<svg xmlns:xlink="http://www.w3.org/1999/xlink" width="82.574ex" height="19.343ex" style="font-size: 15px; vertical-align: -9.171ex;" viewBox="0 -4379.3 35552.4 8328" role="img" focusable="false" xmlns="http://www.w3.org/2000/svg">
<defs>
<path stroke-width="1" id="E1-MJMAINB-4D" d="M314 0Q296 3 181 3T48 0H39V62H147V624H39V686H305Q316 679 323 667Q330 653 434 414L546 157L658 414Q766 662 773 674Q778 681 788 686H1052V624H944V62H1052V0H1040Q1016 3 874 3T708 0H696V62H804V341L803 618L786 580Q770 543 735 462T671 315Q540 13 536 9Q528 1 507 1Q485 1 477 9Q472 14 408 162T281 457T217 603Q215 603 215 334V62H323V0H314Z"></path>
<path stroke-width="1" id="E1-MJMAINB-6F" d="M287 -5Q228 -5 182 10T109 48T63 102T39 161T32 219Q32 272 50 314T94 382T154 423T214 446T265 452H279Q319 452 326 451Q428 439 485 376T542 221Q542 156 514 108T442 33Q384 -5 287 -5ZM399 230V250Q399 280 398 298T391 338T372 372T338 392T282 401Q241 401 212 380Q190 363 183 334T175 230Q175 202 175 189T177 153T183 118T195 91T215 68T245 56T287 50Q348 50 374 84Q388 101 393 132T399 230Z"></path>
<path stroke-width="1" id="E1-MJMAINB-62" d="M32 686L123 690Q214 694 215 694H221V409Q289 450 378 450Q479 450 539 387T600 221Q600 122 535 58T358 -6H355Q272 -6 203 53L160 1L129 0H98V301Q98 362 98 435T99 525Q99 591 97 604T83 620Q69 624 42 624H29V686H32ZM227 105L232 99Q237 93 242 87T258 73T280 59T306 49T339 45Q380 45 411 66T451 131Q457 160 457 230Q457 264 456 284T448 329T430 367T396 389T343 398Q282 398 235 355L227 348V105Z"></path>
<path stroke-width="1" id="E1-MJMAINB-69" d="M72 610Q72 649 98 672T159 695Q193 693 217 670T241 610Q241 572 217 549T157 525Q120 525 96 548T72 610ZM46 442L136 446L226 450H232V62H294V0H286Q271 3 171 3Q67 3 49 0H40V62H109V209Q109 358 108 362Q103 380 55 380H43V442H46Z"></path>
<path stroke-width="1" id="E1-MJMAINB-6C" d="M43 686L134 690Q225 694 226 694H232V62H301V0H292Q274 3 170 3Q67 3 49 0H40V62H109V332Q109 387 109 453T110 534Q110 593 108 605T94 620Q80 624 53 624H40V686H43Z"></path>
<path stroke-width="1" id="E1-MJMAINB-65" d="M32 225Q32 332 102 392T272 452H283Q382 452 436 401Q494 343 494 243Q494 226 486 222T440 217Q431 217 394 217T327 218H175V209Q175 177 179 154T196 107T236 69T306 50Q312 49 323 49Q376 49 410 85Q421 99 427 111T434 127T442 133T463 135H468Q494 135 494 117Q494 110 489 97T468 66T431 32T373 5T292 -6Q181 -6 107 55T32 225ZM383 276Q377 346 348 374T280 402Q253 402 230 390T195 357Q179 331 176 279V266H383V276Z"></path>
<path stroke-width="1" id="E1-MJMAINB-4E" d="M314 0Q296 3 181 3T48 0H39V62H147V624H39V686H171H265Q288 686 297 686T309 684T315 679Q317 676 500 455T684 233V624H576V686H585Q603 683 718 683T851 686H860V624H752V319Q752 15 750 11Q747 4 742 2T718 0H712Q708 0 706 0T700 0T696 1T693 2T690 4T687 7T684 11T679 16T674 23Q671 27 437 311L215 579V62H323V0H314Z"></path>
<path stroke-width="1" id="E1-MJMAINB-74" d="M272 49Q320 49 320 136V145V177H382V143Q382 106 380 99Q374 62 349 36T285 -2L272 -5H247Q173 -5 134 27Q109 46 102 74T94 160Q94 171 94 199T95 245V382H21V433H25Q58 433 90 456Q121 479 140 523T162 621V635H224V444H363V382H224V239V207V149Q224 98 228 81T249 55Q261 49 272 49Z"></path>
<path stroke-width="1" id="E1-MJMAINB-56" d="M592 686H604Q615 685 631 685T666 684T700 684T724 683Q829 683 835 686H843V624H744L611 315Q584 254 546 165Q492 40 482 19T461 -6L460 -7H409Q398 -4 391 9Q385 20 257 315L124 624H25V686H36Q57 683 190 683Q340 683 364 686H377V624H289L384 403L480 185L492 212Q504 240 529 298T575 405L670 624H582V686H592Z"></path>
<path stroke-width="1" id="E1-MJMAINB-31" d="M481 0L294 3Q136 3 109 0H96V62H227V304Q227 546 225 546Q169 529 97 529H80V591H97Q231 591 308 647L319 655H333Q355 655 359 644Q361 640 361 351V62H494V0H481Z"></path>
<path stroke-width="1" id="E1-MJMAIN-2192" d="M56 237T56 250T70 270H835Q719 357 692 493Q692 494 692 496T691 499Q691 511 708 511H711Q720 511 723 510T729 506T732 497T735 481T743 456Q765 389 816 336T935 261Q944 258 944 250Q944 244 939 241T915 231T877 212Q836 186 806 152T761 85T740 35T732 4Q730 -6 727 -8T711 -11Q691 -11 691 0Q691 7 696 25Q728 151 835 230H70Q56 237 56 250Z"></path>
<path stroke-width="1" id="E1-MJMAIN-2212" d="M84 237T84 250T98 270H679Q694 262 694 250T679 230H98Q84 237 84 250Z"></path>
<path stroke-width="1" id="E1-MJMAIN-33" d="M127 463Q100 463 85 480T69 524Q69 579 117 622T233 665Q268 665 277 664Q351 652 390 611T430 522Q430 470 396 421T302 350L299 348Q299 347 308 345T337 336T375 315Q457 262 457 175Q457 96 395 37T238 -22Q158 -22 100 21T42 130Q42 158 60 175T105 193Q133 193 151 175T169 130Q169 119 166 110T159 94T148 82T136 74T126 70T118 67L114 66Q165 21 238 21Q293 21 321 74Q338 107 338 175V195Q338 290 274 322Q259 328 213 329L171 330L168 332Q166 335 166 348Q166 366 174 366Q202 366 232 371Q266 376 294 413T322 525V533Q322 590 287 612Q265 626 240 626Q208 626 181 615T143 592T132 580H135Q138 579 143 578T153 573T165 566T175 555T183 540T186 520Q186 498 172 481T127 463Z"></path>
<path stroke-width="1" id="E1-MJMAIN-D7" d="M630 29Q630 9 609 9Q604 9 587 25T493 118L389 222L284 117Q178 13 175 11Q171 9 168 9Q160 9 154 15T147 29Q147 36 161 51T255 146L359 250L255 354Q174 435 161 449T147 471Q147 480 153 485T168 490Q173 490 175 489Q178 487 284 383L389 278L493 382Q570 459 587 475T609 491Q630 491 630 471Q630 464 620 453T522 355L418 250L522 145Q606 61 618 48T630 29Z"></path>
<path stroke-width="1" id="E1-MJMAINB-44" d="M39 624V686H270H310H408Q500 686 545 680T638 649Q768 584 805 438Q817 388 817 338Q817 171 702 75Q628 17 515 2Q504 1 270 0H39V62H147V624H39ZM655 337Q655 370 655 390T650 442T639 494T616 540T580 580T526 607T451 623Q443 624 368 624H298V62H377H387H407Q445 62 472 65T540 83T606 129Q629 156 640 195T653 262T655 337Z"></path>
<path stroke-width="1" id="E1-MJMAINB-57" d="M915 686L1052 683Q1142 683 1157 686H1164V624H1073L957 320Q930 249 900 170T855 52T839 10Q834 0 826 -5Q821 -7 799 -7H792Q777 -7 772 -5T759 10Q759 11 748 39T716 122T676 228L594 442L512 228Q486 159 455 78Q433 19 428 9T416 -5Q411 -7 389 -7H379Q356 -7 349 10Q349 12 334 51T288 170T231 320L116 624H24V686H35Q44 683 183 683Q331 683 355 686H368V624H323Q278 624 278 623L437 207L499 369L561 531L526 624H434V686H445Q454 683 593 683Q741 683 765 686H778V624H733Q688 624 688 623L847 207Q848 207 927 415T1006 624H905V686H915Z"></path>
<path stroke-width="1" id="E1-MJMATHI-52" d="M230 637Q203 637 198 638T193 649Q193 676 204 682Q206 683 378 683Q550 682 564 680Q620 672 658 652T712 606T733 563T739 529Q739 484 710 445T643 385T576 351T538 338L545 333Q612 295 612 223Q612 212 607 162T602 80V71Q602 53 603 43T614 25T640 16Q668 16 686 38T712 85Q717 99 720 102T735 105Q755 105 755 93Q755 75 731 36Q693 -21 641 -21H632Q571 -21 531 4T487 82Q487 109 502 166T517 239Q517 290 474 313Q459 320 449 321T378 323H309L277 193Q244 61 244 59Q244 55 245 54T252 50T269 48T302 46H333Q339 38 339 37T336 19Q332 6 326 0H311Q275 2 180 2Q146 2 117 2T71 2T50 1Q33 1 33 10Q33 12 36 24Q41 43 46 45Q50 46 61 46H67Q94 46 127 49Q141 52 146 61Q149 65 218 339T287 628Q287 635 230 637ZM630 554Q630 586 609 608T523 636Q521 636 500 636T462 637H440Q393 637 386 627Q385 624 352 494T319 361Q319 360 388 360Q466 361 492 367Q556 377 592 426Q608 449 619 486T630 554Z"></path>
<path stroke-width="1" id="E1-MJMATHI-65" d="M39 168Q39 225 58 272T107 350T174 402T244 433T307 442H310Q355 442 388 420T421 355Q421 265 310 237Q261 224 176 223Q139 223 138 221Q138 219 132 186T125 128Q125 81 146 54T209 26T302 45T394 111Q403 121 406 121Q410 121 419 112T429 98T420 82T390 55T344 24T281 -1T205 -11Q126 -11 83 42T39 168ZM373 353Q367 405 305 405Q272 405 244 391T199 357T170 316T154 280T149 261Q149 260 169 260Q282 260 327 284T373 353Z"></path>
<path stroke-width="1" id="E1-MJMATHI-4C" d="M228 637Q194 637 192 641Q191 643 191 649Q191 673 202 682Q204 683 217 683Q271 680 344 680Q485 680 506 683H518Q524 677 524 674T522 656Q517 641 513 637H475Q406 636 394 628Q387 624 380 600T313 336Q297 271 279 198T252 88L243 52Q243 48 252 48T311 46H328Q360 46 379 47T428 54T478 72T522 106T564 161Q580 191 594 228T611 270Q616 273 628 273H641Q647 264 647 262T627 203T583 83T557 9Q555 4 553 3T537 0T494 -1Q483 -1 418 -1T294 0H116Q32 0 32 10Q32 17 34 24Q39 43 44 45Q48 46 59 46H65Q92 46 125 49Q139 52 144 61Q147 65 216 339T285 628Q285 635 228 637Z"></path>
<path stroke-width="1" id="E1-MJMATHI-55" d="M107 637Q73 637 71 641Q70 643 70 649Q70 673 81 682Q83 683 98 683Q139 681 234 681Q268 681 297 681T342 682T362 682Q378 682 378 672Q378 670 376 658Q371 641 366 638H364Q362 638 359 638T352 638T343 637T334 637Q295 636 284 634T266 623Q265 621 238 518T184 302T154 169Q152 155 152 140Q152 86 183 55T269 24Q336 24 403 69T501 205L552 406Q599 598 599 606Q599 633 535 637Q511 637 511 648Q511 650 513 660Q517 676 519 679T529 683Q532 683 561 682T645 680Q696 680 723 681T752 682Q767 682 767 672Q767 650 759 642Q756 637 737 637Q666 633 648 597Q646 592 598 404Q557 235 548 205Q515 105 433 42T263 -22Q171 -22 116 34T60 167V183Q60 201 115 421Q164 622 164 628Q164 635 107 637Z"></path>
<path stroke-width="1" id="E1-MJMAIN-36" d="M42 313Q42 476 123 571T303 666Q372 666 402 630T432 550Q432 525 418 510T379 495Q356 495 341 509T326 548Q326 592 373 601Q351 623 311 626Q240 626 194 566Q147 500 147 364L148 360Q153 366 156 373Q197 433 263 433H267Q313 433 348 414Q372 400 396 374T435 317Q456 268 456 210V192Q456 169 451 149Q440 90 387 34T253 -22Q225 -22 199 -14T143 16T92 75T56 172T42 313ZM257 397Q227 397 205 380T171 335T154 278T148 216Q148 133 160 97T198 39Q222 21 251 21Q302 21 329 59Q342 77 347 104T352 209Q352 289 347 316T329 361Q302 397 257 397Z"></path>
<path stroke-width="1" id="E1-MJMAIN-31" d="M213 578L200 573Q186 568 160 563T102 556H83V602H102Q149 604 189 617T245 641T273 663Q275 666 285 666Q294 666 302 660V361L303 61Q310 54 315 52T339 48T401 46H427V0H416Q395 3 257 3Q121 3 100 0H88V46H114Q136 46 152 46T177 47T193 50T201 52T207 57T213 61V578Z"></path>
<path stroke-width="1" id="E1-MJMAINB-50" d="M400 0Q376 3 226 3Q75 3 51 0H39V62H147V624H39V686H253Q435 686 470 685T536 678Q585 668 621 648T675 605T705 557T718 514T721 483T718 451T704 409T673 362T616 322T530 293Q500 288 399 287H304V62H412V0H400ZM553 475Q553 554 537 582T459 622Q451 623 373 624H298V343H372Q457 344 480 350Q527 362 540 390T553 475Z"></path>
<path stroke-width="1" id="E1-MJMAINB-32" d="M175 580Q175 578 185 572T205 551T215 510Q215 467 191 449T137 430Q107 430 83 448T58 511Q58 558 91 592T168 640T259 654Q328 654 383 637Q451 610 484 563T517 459Q517 401 482 360T368 262Q340 243 265 184L210 140H274Q416 140 429 145Q439 148 447 186T455 237H517V233Q516 230 501 119Q489 9 486 4V0H57V25Q57 51 58 54Q60 57 109 106T215 214T288 291Q364 377 364 458Q364 515 328 553T231 592Q214 592 201 589T181 584T175 580Z"></path>
<path stroke-width="1" id="E1-MJMATHI-69" d="M184 600Q184 624 203 642T247 661Q265 661 277 649T290 619Q290 596 270 577T226 557Q211 557 198 567T184 600ZM21 287Q21 295 30 318T54 369T98 420T158 442Q197 442 223 419T250 357Q250 340 236 301T196 196T154 83Q149 61 149 51Q149 26 166 26Q175 26 185 29T208 43T235 78T260 137Q263 149 265 151T282 153Q302 153 302 143Q302 135 293 112T268 61T223 11T161 -11Q129 -11 102 10T74 74Q74 91 79 106T122 220Q160 321 166 341T173 380Q173 404 156 404H154Q124 404 99 371T61 287Q60 286 59 284T58 281T56 279T53 278T49 278T41 278H27Q21 284 21 287Z"></path>
<path stroke-width="1" id="E1-MJMATHI-6E" d="M21 287Q22 293 24 303T36 341T56 388T89 425T135 442Q171 442 195 424T225 390T231 369Q231 367 232 367L243 378Q304 442 382 442Q436 442 469 415T503 336T465 179T427 52Q427 26 444 26Q450 26 453 27Q482 32 505 65T540 145Q542 153 560 153Q580 153 580 145Q580 144 576 130Q568 101 554 73T508 17T439 -10Q392 -10 371 17T350 73Q350 92 386 193T423 345Q423 404 379 404H374Q288 404 229 303L222 291L189 157Q156 26 151 16Q138 -11 108 -11Q95 -11 87 -5T76 7T74 17Q74 30 112 180T152 343Q153 348 153 366Q153 405 129 405Q91 405 66 305Q60 285 60 284Q58 278 41 278H27Q21 284 21 287Z"></path>
<path stroke-width="1" id="E1-MJMATHI-61" d="M33 157Q33 258 109 349T280 441Q331 441 370 392Q386 422 416 422Q429 422 439 414T449 394Q449 381 412 234T374 68Q374 43 381 35T402 26Q411 27 422 35Q443 55 463 131Q469 151 473 152Q475 153 483 153H487Q506 153 506 144Q506 138 501 117T481 63T449 13Q436 0 417 -8Q409 -10 393 -10Q359 -10 336 5T306 36L300 51Q299 52 296 50Q294 48 292 46Q233 -10 172 -10Q117 -10 75 30T33 157ZM351 328Q351 334 346 350T323 385T277 405Q242 405 210 374T160 293Q131 214 119 129Q119 126 119 118T118 106Q118 61 136 44T179 26Q217 26 254 59T298 110Q300 114 325 217T351 328Z"></path>
<path stroke-width="1" id="E1-MJMATHI-72" d="M21 287Q22 290 23 295T28 317T38 348T53 381T73 411T99 433T132 442Q161 442 183 430T214 408T225 388Q227 382 228 382T236 389Q284 441 347 441H350Q398 441 422 400Q430 381 430 363Q430 333 417 315T391 292T366 288Q346 288 334 299T322 328Q322 376 378 392Q356 405 342 405Q286 405 239 331Q229 315 224 298T190 165Q156 25 151 16Q138 -11 108 -11Q95 -11 87 -5T76 7T74 17Q74 30 114 189T154 366Q154 405 128 405Q107 405 92 377T68 316T57 280Q55 278 41 278H27Q21 284 21 287Z"></path>
</defs>
<g stroke="currentColor" fill="currentColor" stroke-width="0" transform="matrix(1 0 0 -1 0 0)">
<g transform="translate(167,0)">
<g transform="translate(-11,0)">
<g transform="translate(0,2640)">
 <use xlink:href="#E1-MJMAINB-4D"></use>
 <use xlink:href="#E1-MJMAINB-6F" x="1092" y="0"></use>
 <use xlink:href="#E1-MJMAINB-62" x="1668" y="0"></use>
 <use xlink:href="#E1-MJMAINB-69" x="2307" y="0"></use>
 <use xlink:href="#E1-MJMAINB-6C" x="2627" y="0"></use>
 <use xlink:href="#E1-MJMAINB-65" x="2946" y="0"></use>
 <use xlink:href="#E1-MJMAINB-4E" x="3474" y="0"></use>
 <use xlink:href="#E1-MJMAINB-65" x="4374" y="0"></use>
 <use xlink:href="#E1-MJMAINB-74" x="4902" y="0"></use>
 <use xlink:href="#E1-MJMAINB-56" x="5599" y="0"></use>
 <use xlink:href="#E1-MJMAINB-31" x="6469" y="0"></use>
<g transform="translate(15822,0)">
 <use xlink:href="#E1-MJMAIN-2212" x="-85" y="0"></use>
<g transform="translate(277.7181040092598,0) scale(2.157182201073849,1)">
 <use xlink:href="#E1-MJMAIN-2212"></use>
</g>
 <use xlink:href="#E1-MJMAIN-2192" x="1569" y="0"></use>
<g></g>
</g>
<g transform="translate(19836,0)">
<g transform="translate(-11,0)">
<g transform="translate(0,865)">
 <use xlink:href="#E1-MJMAIN-33" x="0" y="0"></use>
 <use xlink:href="#E1-MJMAIN-D7" x="722" y="0"></use>
 <use xlink:href="#E1-MJMAIN-33" x="1723" y="0"></use>
</g>
<g transform="translate(75,-965)">
 <use xlink:href="#E1-MJMAINB-44"></use>
 <use xlink:href="#E1-MJMAINB-57" x="882" y="0"></use>
</g>
</g>
</g>
<g transform="translate(23495,0)">
 <use xlink:href="#E1-MJMAIN-2212" x="-85" y="0"></use>
<g transform="translate(174.45943873206136,0) scale(3.379178239857262,1)">
 <use xlink:href="#E1-MJMAIN-2212"></use>
</g>
 <use xlink:href="#E1-MJMAIN-2192" x="2314" y="0"></use>
<g transform="translate(28,712)">
<g transform="translate(233,150)">
 <use transform="scale(0.707)" xlink:href="#E1-MJMATHI-52" x="353" y="0"></use>
 <use transform="scale(0.707)" xlink:href="#E1-MJMATHI-65" x="1113" y="0"></use>
 <use transform="scale(0.707)" xlink:href="#E1-MJMATHI-4C" x="1579" y="0"></use>
 <use transform="scale(0.707)" xlink:href="#E1-MJMATHI-55" x="2261" y="0"></use>
 <use transform="scale(0.707)" xlink:href="#E1-MJMAIN-36" x="3028" y="0"></use>
</g>
</g>
</g>
<g transform="translate(28255,0)">
<g transform="translate(-11,0)">
<g transform="translate(0,865)">
 <use xlink:href="#E1-MJMAIN-31" x="0" y="0"></use>
 <use xlink:href="#E1-MJMAIN-D7" x="722" y="0"></use>
 <use xlink:href="#E1-MJMAIN-31" x="1723" y="0"></use>
</g>
<g transform="translate(123,-965)">
 <use xlink:href="#E1-MJMAINB-50"></use>
 <use xlink:href="#E1-MJMAINB-57" x="786" y="0"></use>
</g>
</g>
</g>
<g transform="translate(31913,0)">
 <use xlink:href="#E1-MJMAIN-2212" x="-85" y="0"></use>
<g transform="translate(174.45943873206136,0) scale(3.379178239857262,1)">
 <use xlink:href="#E1-MJMAIN-2212"></use>
</g>
 <use xlink:href="#E1-MJMAIN-2192" x="2314" y="0"></use>
<g transform="translate(28,712)">
<g transform="translate(233,150)">
<g fill="blue" stroke="blue">
<g fill="blue" stroke="blue">
<g fill="blue" stroke="blue"></g>
<g fill="blue" stroke="blue" transform="translate(250,0)">
 <use transform="scale(0.707)" xlink:href="#E1-MJMATHI-52"></use>
</g>
<g fill="blue" stroke="blue" transform="translate(787,0)">
 <use transform="scale(0.707)" xlink:href="#E1-MJMATHI-65"></use>
</g>
<g fill="blue" stroke="blue" transform="translate(1116,0)">
 <use transform="scale(0.707)" xlink:href="#E1-MJMATHI-4C"></use>
</g>
<g fill="blue" stroke="blue" transform="translate(1598,0)">
 <use transform="scale(0.707)" xlink:href="#E1-MJMATHI-55"></use>
</g>
<g fill="blue" stroke="blue" transform="translate(2141,0)">
 <use transform="scale(0.707)" xlink:href="#E1-MJMAIN-36"></use>
</g>
<g fill="blue" stroke="blue"></g>
</g>
</g>
</g>
</g>
</g>
</g>
<g transform="translate(208,-2640)">
 <use xlink:href="#E1-MJMAINB-4D"></use>
 <use xlink:href="#E1-MJMAINB-6F" x="1092" y="0"></use>
 <use xlink:href="#E1-MJMAINB-62" x="1668" y="0"></use>
 <use xlink:href="#E1-MJMAINB-69" x="2307" y="0"></use>
 <use xlink:href="#E1-MJMAINB-6C" x="2627" y="0"></use>
 <use xlink:href="#E1-MJMAINB-65" x="2946" y="0"></use>
 <use xlink:href="#E1-MJMAINB-4E" x="3474" y="0"></use>
 <use xlink:href="#E1-MJMAINB-65" x="4374" y="0"></use>
 <use xlink:href="#E1-MJMAINB-74" x="4902" y="0"></use>
 <use xlink:href="#E1-MJMAINB-56" x="5599" y="0"></use>
 <use xlink:href="#E1-MJMAINB-32" x="6469" y="0"></use>
<g transform="translate(7822,0)">
 <use xlink:href="#E1-MJMAIN-2212" x="-85" y="0"></use>
<g transform="translate(277.7181040092598,0) scale(2.157182201073849,1)">
 <use xlink:href="#E1-MJMAIN-2212"></use>
</g>
 <use xlink:href="#E1-MJMAIN-2192" x="1569" y="0"></use>
<g></g>
</g>
<g transform="translate(11836,0)">
<g transform="translate(-11,0)">
<g transform="translate(0,865)">
<g fill="red" stroke="red">
<g fill="red" stroke="red">
<g fill="red" stroke="red">
 <use xlink:href="#E1-MJMAIN-31"></use>
</g>
<g fill="red" stroke="red" transform="translate(722,0)">
 <use xlink:href="#E1-MJMAIN-D7"></use>
</g>
<g fill="red" stroke="red" transform="translate(1723,0)">
 <use xlink:href="#E1-MJMAIN-31"></use>
</g>
</g>
</g>
</g>
<g transform="translate(123,-965)">
<g fill="red" stroke="red">
<g fill="red" stroke="red">
<g fill="red" stroke="red">
<g fill="red" stroke="red">
<g fill="red" stroke="red">
 <use xlink:href="#E1-MJMAINB-50"></use>
 <use xlink:href="#E1-MJMAINB-57" x="786" y="0"></use>
</g>
</g>
</g>
</g>
</g>
</g>
</g>
</g>
<g transform="translate(15217,0)">
<g fill="red" stroke="red">
<g fill="red" stroke="red">
<g fill="red" stroke="red">
<g fill="red" stroke="red">
 <use xlink:href="#E1-MJMAIN-2212" x="-85" y="0"></use>
<g transform="translate(174.45943873206136,0) scale(3.379178239857262,1)">
 <use xlink:href="#E1-MJMAIN-2212"></use>
</g>
 <use xlink:href="#E1-MJMAIN-2192" x="2314" y="0"></use>
</g>
<g fill="red" stroke="red" transform="translate(28,712)">
<g fill="red" stroke="red" transform="translate(233,150)">
<g fill="red" stroke="red"></g>
<g fill="red" stroke="red" transform="translate(250,0)">
 <use transform="scale(0.707)" xlink:href="#E1-MJMATHI-52"></use>
</g>
<g fill="red" stroke="red" transform="translate(787,0)">
 <use transform="scale(0.707)" xlink:href="#E1-MJMATHI-65"></use>
</g>
<g fill="red" stroke="red" transform="translate(1116,0)">
 <use transform="scale(0.707)" xlink:href="#E1-MJMATHI-4C"></use>
</g>
<g fill="red" stroke="red" transform="translate(1598,0)">
 <use transform="scale(0.707)" xlink:href="#E1-MJMATHI-55"></use>
</g>
<g fill="red" stroke="red" transform="translate(2141,0)">
 <use transform="scale(0.707)" xlink:href="#E1-MJMAIN-36"></use>
</g>
<g fill="red" stroke="red"></g>
</g>
</g>
</g>
</g>
</g>
</g>
<g transform="translate(19699,0)">
<g transform="translate(-11,0)">
<g transform="translate(0,865)">
 <use xlink:href="#E1-MJMAIN-33" x="0" y="0"></use>
 <use xlink:href="#E1-MJMAIN-D7" x="722" y="0"></use>
 <use xlink:href="#E1-MJMAIN-33" x="1723" y="0"></use>
</g>
<g transform="translate(75,-965)">
 <use xlink:href="#E1-MJMAINB-44"></use>
 <use xlink:href="#E1-MJMAINB-57" x="882" y="0"></use>
</g>
</g>
</g>
<g transform="translate(23357,0)">
 <use xlink:href="#E1-MJMAIN-2212" x="-85" y="0"></use>
<g transform="translate(174.45943873206136,0) scale(3.379178239857262,1)">
 <use xlink:href="#E1-MJMAIN-2212"></use>
</g>
 <use xlink:href="#E1-MJMAIN-2192" x="2314" y="0"></use>
<g transform="translate(28,712)">
<g transform="translate(233,150)">
 <use transform="scale(0.707)" xlink:href="#E1-MJMATHI-52" x="353" y="0"></use>
 <use transform="scale(0.707)" xlink:href="#E1-MJMATHI-65" x="1113" y="0"></use>
 <use transform="scale(0.707)" xlink:href="#E1-MJMATHI-4C" x="1579" y="0"></use>
 <use transform="scale(0.707)" xlink:href="#E1-MJMATHI-55" x="2261" y="0"></use>
 <use transform="scale(0.707)" xlink:href="#E1-MJMAIN-36" x="3028" y="0"></use>
</g>
</g>
</g>
<g transform="translate(28118,0)">
<g transform="translate(-11,0)">
<g transform="translate(0,865)">
 <use xlink:href="#E1-MJMAIN-31" x="0" y="0"></use>
 <use xlink:href="#E1-MJMAIN-D7" x="722" y="0"></use>
 <use xlink:href="#E1-MJMAIN-31" x="1723" y="0"></use>
</g>
<g transform="translate(123,-965)">
 <use xlink:href="#E1-MJMAINB-50"></use>
 <use xlink:href="#E1-MJMAINB-57" x="786" y="0"></use>
</g>
</g>
</g>
<g transform="translate(31776,0)">
 <use xlink:href="#E1-MJMAIN-2212" x="-85" y="0"></use>
<g transform="translate(184.303582277195,0) scale(3.262679499678166,1)">
 <use xlink:href="#E1-MJMAIN-2212"></use>
</g>
 <use xlink:href="#E1-MJMAIN-2192" x="2243" y="0"></use>
<g transform="translate(28,712)">
<g transform="translate(233,150)">
<g fill="red" stroke="red">
<g fill="red" stroke="red">
<g fill="red" stroke="red"></g>
<g fill="red" stroke="red" transform="translate(250,0)">
 <use transform="scale(0.707)" xlink:href="#E1-MJMATHI-4C"></use>
</g>
<g fill="red" stroke="red" transform="translate(731,0)">
 <use transform="scale(0.707)" xlink:href="#E1-MJMATHI-69"></use>
</g>
<g fill="red" stroke="red" transform="translate(976,0)">
 <use transform="scale(0.707)" xlink:href="#E1-MJMATHI-6E"></use>
</g>
<g fill="red" stroke="red" transform="translate(1400,0)">
 <use transform="scale(0.707)" xlink:href="#E1-MJMATHI-65"></use>
</g>
<g fill="red" stroke="red" transform="translate(1730,0)">
 <use transform="scale(0.707)" xlink:href="#E1-MJMATHI-61"></use>
</g>
<g fill="red" stroke="red" transform="translate(2105,0)">
 <use transform="scale(0.707)" xlink:href="#E1-MJMATHI-72"></use>
</g>
<g fill="red" stroke="red"></g>
</g>
</g>
</g>
</g>
</g>
</g>
</g>
</g>
</g>
</svg>