<?xml version="1.0" encoding="utf-8"?>
<!-- Generator: Adobe Illustrator 18.0.0, SVG Export Plug-In . SVG Version: 6.00 Build 0)  -->
<!DOCTYPE svg PUBLIC "-//W3C//DTD SVG 1.1//EN" "http://www.w3.org/Graphics/SVG/1.1/DTD/svg11.dtd">
<svg version="1.1" id="Layer_2" xmlns="http://www.w3.org/2000/svg" xmlns:xlink="http://www.w3.org/1999/xlink" x="0px" y="0px"
	 viewBox="0 0 44.9 52.5" enable-background="new 0 0 44.9 52.5" xml:space="preserve">
<g>
	<path fill="#F7941E" d="M44.9,35.9c-0.4-0.8-1.6-1.4-2.3-1c-2.1,1.2-4.2,2.4-6.3,3.7c-0.1,0.1-0.2,0.3-0.2,0.5
		c-0.2,0.5-0.4,1.1-0.7,1.4c-1.7,1.7-3.9,2.6-6.2,3.2c-1.3,0.4-2.6,0.5-4,0.3c-2.1-0.3-4-1.3-5.9-2.1c-0.5-0.2-1-0.4-1.3-0.8
		c-1-1.1-1.9-2.2-2.8-3.3c-1.9-2.7-2.7-5.9-3.3-9.1c-0.3-1.8-0.5-3.7-0.4-5.6c0.3-3.7,1.2-7.4,2.6-10.9c0.6-1.4,1.4-2.8,2.6-3.7
		c3.5-2.6,7.5-3.3,11.8-2.6c2,0.3,3.6,1.1,5.1,2.5c1.2,1.1,2.2,2.4,2.5,4.1c0.1,0.9,0.2,1.8,0.2,2.8c0,0.7,0.4,1,1.1,1.1
		c1.9,0.2,3.8,0.1,5.1-1.7c0.1-0.1,0.3-0.2,0.4-0.3c0.4-0.5,1.1-1,1.2-1.6c0.2-1.7,0.1-3.4,0.1-5.1c0-2,0-4,0.1-6.1
		c0-0.7-0.3-1.1-0.8-1.1c-1.4,0-2.9-0.5-3.8,1.1C39.4,1.9,39.1,2,39,2.2c-0.3,0.4-0.6,0.4-1,0.1C35.9,1,33.7,0,31.2,0c-1,0-2,0-3,0
		c-2.8-0.1-5.5,0.3-8.2,1c-3,0.8-5.6,2.3-8,4.3C11.2,6.1,10.5,7,9.7,7.8c-2.2,1.9-4.1,4-5.7,6.4c-2.3,3.5-3.3,7.4-3.8,11.6
		c-0.5,4.2-0.2,8.2,1.7,11.9c1.9,3.9,4.4,7.4,8,9.8c1.8,1.2,3.7,2.3,5.7,3.2c2.6,1.3,5.5,1.9,8.4,1.7c1.5-0.1,3.1-0.5,4.6-0.8
		c3.3-0.7,6-2.4,8.3-4.7c1.2-1.2,2.4-2.4,3.7-3.6c2.1-1.9,3.4-4.3,4.3-7C44.9,36.2,44.9,36,44.9,35.9z M44,36.9
		c-1.3,2.7-3,5.1-5.3,7.2c-2.7,2.4-5.7,3.5-9.2,3.8c-4.2,0.3-8.2-0.7-11.8-2.7c-2.5-1.4-4.7-3.2-6.7-5.2c-1.8-1.8-3.1-4-4-6.4
		C6.2,31.8,5.6,30,5,28.2c-0.9-2.3-0.7-4.7-0.3-7c0.3-2,0.8-4,1.4-5.9c0.8-2.8,2.4-5,4.4-7.1c0.7-0.7,1.4-1.5,2.1-2.2
		c2.9-2.9,6.5-4.4,10.5-5c3.5-0.5,7-0.6,10.4,0c0.8,0.2,1.6,0.5,2.4,0.9c1.6,0.8,3.1,1.7,4.6,2.5c0.5-0.3,0.5-0.3,0.8-3.5
		c0.5,0,1.1-0.1,1.7,0c0.2,0,0.5,0.4,0.5,0.5c0,3.5-0.1,7-0.2,10.5c-0.3,0-0.6,0.1-0.9,0.1c-0.6,0-1-0.1-1.1-1
		c-0.1-0.7-0.5-1.3-0.7-2c-1-2.3-2.6-3.8-4.9-4.9c-3-1.5-6.2-1.8-9.4-1.5C24.1,3.1,22,3.5,20,4.5c-2.9,1.6-5.3,3.8-6.5,6.9
		c-1.6,3.8-2.7,7.8-2.8,11.9c-0.1,2.4,0.2,4.8,0.8,7.1c0.6,2.6,1.3,5.2,2.9,7.4c0.9,1.3,1.9,2.5,3,3.6c0.5,0.6,1.4,0.9,2.1,1.3
		c3,1.5,6.2,2.2,9.5,2.1c3.3-0.1,6.2-1.3,8.8-3.2c2.2-1.6,4.1-3.4,5.3-5.8c0.1-0.1,0.2-0.2,0.3-0.3C44.5,36,44.5,36.1,44,36.9z"/>
	<path fill="#FFFFFF" d="M43.5,35.6c-0.1,0.1-0.2,0.2-0.3,0.3c-1.2,2.4-3.1,4.3-5.3,5.8c-2.7,1.9-5.5,3.1-8.8,3.2
		c-3.4,0.1-6.5-0.5-9.5-2.1c-0.7-0.4-1.5-0.7-2.1-1.3c-1.1-1.1-2.1-2.4-3-3.6c-1.6-2.2-2.3-4.8-2.9-7.4c-0.5-2.3-0.8-4.8-0.8-7.1
		c0.1-4.1,1.2-8.1,2.8-11.9c1.3-3.1,3.6-5.3,6.5-6.9c1.9-1,4-1.5,6.2-1.6c3.3-0.3,6.4,0,9.4,1.5c2.2,1.1,3.9,2.6,4.9,4.9
		c0.3,0.6,0.7,1.3,0.7,2c0.1,0.8,0.5,1,1.1,1c0.3,0,0.6-0.1,0.9-0.1c0.1-3.6,0.2-7,0.2-10.5c0-0.2-0.3-0.5-0.5-0.5
		c-0.6-0.1-1.1,0-1.7,0c-0.4,3.1-0.4,3.1-0.8,3.5c-1.5-0.9-3.1-1.7-4.6-2.5c-0.8-0.4-1.5-0.7-2.4-0.9c-3.5-0.7-7-0.6-10.4,0
		c-4,0.6-7.6,2.1-10.5,5c-0.7,0.7-1.4,1.5-2.1,2.2c-2,2-3.6,4.3-4.4,7.1c-0.6,1.9-1.1,3.9-1.4,5.9c-0.3,2.3-0.5,4.7,0.3,7
		c0.7,1.8,1.2,3.5,1.9,5.3c0.9,2.4,2.2,4.6,4,6.4c2,2,4.2,3.9,6.7,5.2c3.7,2,7.6,3,11.8,2.7c3.5-0.2,6.6-1.4,9.2-3.8
		c2.3-2,4-4.5,5.3-7.2C44.5,36.1,44.5,36,43.5,35.6z M7.6,20.5c0.4-1.6,0.6-3.3,1.2-4.8c0.8-2.2,1.9-4.3,3-6.4c0.4-0.7,1-1.3,1.5-2
		c0.1,0,0.2,0.1,0.2,0.1c-0.2,0.5-0.5,1-0.8,1.5c-1.8,3-3.3,6.2-4.2,9.7c-0.2,0.9-0.3,1.8-0.5,2.8C7.5,21.4,7.5,20.9,7.6,20.5z
		 M6.8,23.8c0-0.4,0.2-0.7,0.4-1.1c0.1,0,0.2,0,0.4,0c0.3,0.3,0.7,0.7,0.7,1c0,0.2-0.4,0.7-0.7,0.8C7.1,24.7,6.8,24.3,6.8,23.8z
		 M13.5,40.5c-0.5-0.5-1.1-1-1.5-1.6c-2.4-3.4-3.9-7.3-4.5-11.5c0-0.2,0.2-0.5,0.3-0.8c0.1,0,0.2,0.1,0.3,0.1
		c0.6,5.1,2.7,9.5,5.8,13.6C13.7,40.3,13.6,40.4,13.5,40.5z"/>
	<path fill="#F7941E" d="M13.8,40.3c-0.1,0.1-0.2,0.1-0.3,0.2c-0.5-0.5-1.1-1-1.5-1.6c-2.4-3.4-3.9-7.3-4.5-11.5
		c0-0.2,0.2-0.5,0.3-0.8c0.1,0,0.2,0.1,0.3,0.1C8.7,31.8,10.8,36.2,13.8,40.3z"/>
	<path fill="#F7941E" d="M13.6,7.5c-0.2,0.5-0.5,1-0.8,1.5c-1.8,3-3.3,6.2-4.2,9.7c-0.2,0.9-0.3,1.8-0.5,2.8c-0.6-0.1-0.6-0.6-0.5-1
		c0.4-1.6,0.6-3.3,1.2-4.8c0.8-2.2,1.9-4.3,3-6.4c0.4-0.7,1-1.3,1.5-2C13.4,7.4,13.5,7.4,13.6,7.5z"/>
	<path fill="#F7941E" d="M8.3,23.7c0,0.2-0.4,0.7-0.7,0.8c-0.5,0.2-0.8-0.2-0.7-0.7c0-0.4,0.2-0.7,0.4-1.1c0.1,0,0.2,0,0.4,0
		C7.8,23,8.2,23.3,8.3,23.7z"/>
</g>
</svg>
