<svg version="1.1" width="137" height="103" viewBox="-1 -1 137 103" xmlns="http://www.w3.org/2000/svg" xmlns:xlink="http://www.w3.org/1999/xlink">
  <!-- Exported by Scratch - http://scratch.mit.edu/ -->
  <g id="ID0.2882648119702935">
    <g id="Page-1">
      <g id="hen-b-[animals,chicken,farm,owen-davey]">
        <g id="Group">
          <path id="Stroke-1" fill="none" stroke="#FFDB5D" stroke-width="1.575" d="M 14.103 9.874 L 14.103 29.180 " transform="matrix(1, 0, 0, 1, 47.95, 70.85)"/>
          <path id="Stroke-3" fill="none" stroke="#FFDB5D" stroke-width="1.575" d="M 27.327 29.180 C 24.066 29.180 24.066 26.007 20.804 26.007 C 17.543 26.007 17.543 29.180 14.282 29.180 C 11.019 29.180 11.019 26.007 7.756 26.007 C 4.493 26.007 4.493 29.180 1.230 29.180 " transform="matrix(1, 0, 0, 1, 47.95, 70.85)"/>
          <path id="Fill-5" fill="#FFF4E3" stroke="none" stroke-width="1" d="M 15.816 0.088 L 15.816 12.010 C 15.816 13.662 13.826 14.489 12.662 13.321 L 0.264 0.882 L 15.816 0.088 Z " transform="matrix(1, 0, 0, 1, 47.95, 70.85)"/>
        </g>
        <g id="Group-2">
          <path id="Stroke-7" fill="none" stroke="#FFDB5D" stroke-width="1.575" d="M 1.713 13.048 L 23.263 13.048 C 25.993 13.048 28.206 15.268 28.206 18.006 C 28.206 20.745 25.993 22.965 23.263 22.965 L 22.143 22.965 " transform="matrix(1, 0, 0, 1, 44.25, 70.85)"/>
          <path id="Fill-9" fill="#FFF4E3" stroke="none" stroke-width="1" d="M 0.395 0.088 L 0.395 12.010 C 0.395 13.662 2.386 14.489 3.550 13.321 L 15.948 0.882 L 0.395 0.088 Z " transform="matrix(1, 0, 0, 1, 44.25, 70.85)"/>
        </g>
        <g id="Group-3">
          <path id="Fill-11" fill="#FFF4E3" stroke="none" stroke-width="1" d="M 104.784 27.153 C 104.784 54.223 82.911 76.168 55.929 76.168 C 28.947 76.168 7.074 54.223 7.074 27.153 L 104.784 27.153 Z "/>
          <path id="Fill-13" fill="#FFF4E3" stroke="none" stroke-width="1" d="M 20.056 40.178 L 38.994 38.686 C 39.237 37.051 39.365 35.379 39.365 33.676 C 39.365 15.078 24.338 0 5.799 0 C 3.920 0 2.079 0.163 0.283 0.461 L 11.159 11.372 L 0.176 11.372 L 8.831 20.056 L -0.000 20.056 L 20.056 40.178 Z "/>
          <path id="Fill-16" fill="#FFF4E3" stroke="none" stroke-width="1" d="M 121.831 26.271 L 93.087 58.967 L 90.286 27.395 C 90.286 27.395 99.842 10.271 118.031 10.271 L 121.831 26.271 Z "/>
          <path id="Fill-18" fill="#F3E4CE" stroke="none" stroke-width="1" d="M 87.210 27.153 C 87.210 44.486 73.205 58.537 55.929 58.537 C 43.438 58.537 32.656 51.191 27.642 40.570 L 46.527 40.570 L 25.833 27.153 L 87.210 27.153 Z "/>
        </g>
        <g id="Group-4">
          <path id="Fill-20" fill="#CE2235" stroke="none" stroke-width="1" d="M 24.219 26.684 C 24.219 30.363 21.247 33.346 17.579 33.346 C 13.912 33.346 10.940 30.363 10.940 26.684 C 10.940 23.006 13.912 20.023 17.579 20.023 C 21.247 20.023 24.219 23.006 24.219 26.684 " transform="matrix(1, 0, 0, 1, 108.05, 2.1)"/>
          <path id="Fill-22" fill="#CE2235" stroke="none" stroke-width="1" d="M 22.638 7.350 C 22.736 6.910 22.763 6.444 22.708 5.964 C 22.497 4.139 21.041 2.634 19.228 2.378 C 17.394 2.120 15.755 3.081 14.990 4.568 C 14.990 4.546 14.993 4.524 14.993 4.502 C 14.993 2.228 13.156 0.386 10.890 0.386 C 9.329 0.386 7.975 1.262 7.283 2.550 C 7.045 2.991 6.527 3.166 6.072 2.960 C 5.557 2.728 4.987 2.599 4.386 2.601 C 2.219 2.607 0.374 4.398 0.299 6.571 C 0.222 8.809 1.927 10.660 4.099 10.818 L 5.371 10.821 C 5.371 10.821 5.964 13.411 6.393 13.477 C 6.740 13.531 14.925 14.304 17.995 14.592 C 18.715 16.187 20.414 17.242 22.324 16.973 C 24.120 16.720 25.569 15.247 25.799 13.442 C 26.036 11.586 25.039 9.937 23.519 9.198 C 22.836 8.866 22.472 8.093 22.638 7.350 " transform="matrix(1, 0, 0, 1, 108.05, 2.1)"/>
          <path id="Fill-24" fill="#CE2235" stroke="none" stroke-width="1" d="M 13.991 2.257 C 13.991 2.257 13.582 1.199 14.252 2.145 C 14.922 3.091 15.701 3.404 16.650 2.850 C 17.599 2.296 16.367 5.450 16.367 5.450 L 14.661 5.580 L 13.601 4.883 L 13.991 2.257 Z " transform="matrix(1, 0, 0, 1, 108.05, 2.1)"/>
          <path id="Fill-26" fill="#FFDB5D" stroke="none" stroke-width="1" d="M 27.259 21.213 C 25.607 18.370 22.546 16.453 19.029 16.453 C 15.512 16.453 12.452 18.370 10.800 21.213 L 27.259 21.213 Z " transform="matrix(1, 0, 0, 1, 108.05, 2.1)"/>
          <path id="Fill-29" fill="#E8441D" stroke="none" stroke-width="1" d="M 19.771 17.268 C 19.771 22.277 15.723 26.337 10.731 26.337 C 5.738 26.337 1.691 22.277 1.691 17.268 C 1.691 12.259 5.738 8.198 10.731 8.198 C 15.723 8.198 19.771 12.259 19.771 17.268 " transform="matrix(1, 0, 0, 1, 108.05, 2.1)"/>
          <path id="Fill-31" fill="#FFF4E3" stroke="none" stroke-width="1" d="M 14.838 17.268 C 14.838 19.544 12.999 21.389 10.731 21.389 C 8.463 21.389 6.624 19.544 6.624 17.268 C 6.624 14.992 8.463 13.147 10.731 13.147 C 12.999 13.147 14.838 14.992 14.838 17.268 " transform="matrix(1, 0, 0, 1, 108.05, 2.1)"/>
          <path id="Fill-33" fill="#17242D" stroke="none" stroke-width="1" d="M 13.411 17.268 C 13.411 18.754 12.211 19.957 10.731 19.957 C 9.250 19.957 8.051 18.754 8.051 17.268 C 8.051 15.782 9.250 14.579 10.731 14.579 C 12.211 14.579 13.411 15.782 13.411 17.268 " transform="matrix(1, 0, 0, 1, 108.05, 2.1)"/>
        </g>
      </g>
    </g>
  </g>
</svg>