<svg version="1.1" width="110" height="180" viewBox="-1 -1 110 180" xmlns="http://www.w3.org/2000/svg" xmlns:xlink="http://www.w3.org/1999/xlink">
  <!-- Exported by Scratch - http://scratch.mit.edu/ -->
  <g id="ID0.4989991579204798" transform="matrix(1, 0, 0, 1, 0, 0.5)">
    <g id="Page-1">
      <g id="skeleton-d-[fantasy,spooky,halloween,bones,monster,alex-eben-meyer]">
        <g id="RIGHT-RADIUS-+-ULNA-+-HAND">
          <path id="Shape" fill="#C8BEA0" stroke="none" stroke-width="1" d="M 18.119 59.742 C 19.705 59.611 21.026 58.558 21.555 57.110 C 21.753 56.452 22.215 53.096 21.026 51.845 C 18.846 49.674 14.222 49.871 13.429 52.108 C 12.967 53.425 12.768 55.596 13.825 56.978 C 14.882 58.360 17.062 59.150 18.119 59.742 Z " transform="matrix(1, 0, 0, 1, 27.5, 92.5)"/>
          <path id="Shape" fill="#C8BEA0" stroke="none" stroke-width="1" d="M 12.108 56.320 L 10.390 56.847 L 5.700 58.229 C 4.313 58.624 3.058 59.282 1.868 60.071 C 0.812 60.795 0.745 61.388 1.340 62.638 C 1.670 62.901 2.067 62.704 2.397 62.638 C 4.115 62.177 5.700 61.519 7.219 60.598 C 8.144 60.006 9.135 59.479 10.126 58.887 C 10.655 58.558 11.117 58.229 11.579 57.900 C 12.042 57.505 12.240 56.913 12.108 56.320 Z " transform="matrix(1, 0, 0, 1, 27.5, 92.5)"/>
          <path id="Shape" fill="#C8BEA0" stroke="none" stroke-width="1" d="M 1.208 57.242 C 3.124 57.505 9.730 55.728 11.778 54.478 C 11.844 54.280 11.844 54.083 11.844 53.885 C 11.844 53.622 11.778 53.425 11.778 53.227 C 11.513 53.161 11.183 53.161 10.919 53.161 C 10.522 53.227 10.060 53.293 9.664 53.425 C 8.078 53.819 6.493 54.149 4.907 54.609 C 3.916 54.938 2.992 55.333 2.067 55.860 C 1.538 55.991 1.142 56.583 1.208 57.242 Z " transform="matrix(1, 0, 0, 1, 27.5, 92.5)"/>
          <path id="Shape" fill="#C8BEA0" stroke="none" stroke-width="1" d="M 16.600 59.940 L 15.477 59.084 C 14.024 59.479 12.702 60.006 11.381 60.729 C 10.060 61.453 8.673 62.177 7.219 62.769 C 6.228 63.164 5.502 63.888 5.039 64.875 C 5.304 65.007 5.568 65.204 5.832 65.204 C 6.228 65.204 6.559 65.139 6.889 65.007 C 10.126 63.691 13.231 61.980 16.270 60.335 C 16.336 60.269 16.402 60.137 16.600 59.940 Z " transform="matrix(1, 0, 0, 1, 27.5, 92.5)"/>
          <path id="Shape" fill="#C8BEA0" stroke="none" stroke-width="1" d="M 14.288 65.862 C 14.816 66.126 15.477 66.126 15.939 65.731 C 16.534 65.336 17.128 64.941 17.723 64.546 C 18.384 64.020 18.978 63.428 19.639 62.901 C 20.299 62.309 20.828 61.585 21.224 60.795 C 21.356 60.466 21.488 60.071 21.555 59.742 C 21.224 59.676 20.960 59.676 20.630 59.742 C 18.450 60.532 16.468 61.782 14.816 63.362 C 14.024 63.954 13.825 65.007 14.288 65.862 Z " transform="matrix(1, 0, 0, 1, 27.5, 92.5)"/>
          <path id="Shape" fill="#C8BEA0" stroke="none" stroke-width="1" d="M 23.801 53.819 L 22.744 53.096 C 21.819 42.829 30.010 33.419 35.824 25.587 C 39.523 20.849 42.430 15.585 44.610 9.991 C 45.204 8.477 47.120 -2.447 56.302 0.646 C 65.485 3.739 54.387 15.453 52.801 18.019 C 49.895 22.626 46.922 27.233 43.817 31.774 C 38.532 39.539 34.370 52.372 23.801 53.819 Z M 47.781 13.347 C 46.063 13.610 43.222 18.414 42.298 19.731 C 40.316 22.429 38.532 25.258 36.947 28.220 C 35.229 31.379 33.578 34.538 31.662 37.631 C 30.142 40.131 27.566 43.093 26.641 45.791 C 26.773 46.317 26.905 46.910 26.972 47.436 C 27.368 47.831 27.632 48.292 28.293 48.423 C 33.974 44.014 36.484 37.762 40.184 31.905 C 42.165 28.812 43.949 25.653 45.931 22.560 C 47.186 20.586 51.216 16.111 48.573 13.676 L 47.781 13.347 Z " transform="matrix(1, 0, 0, 1, 27.5, 92.5)"/>
        </g>
        <g id="RIGHT-HUMERUS">
          <path id="Shape" fill="#AAA082" stroke="none" stroke-width="1" d="M 16.152 3.448 C 17.605 3.843 19.653 7.923 20.380 9.634 C 20.380 21.217 19.389 33.918 18.927 36.287 C 18.200 40.367 16.152 53.200 11.528 54.582 C 9.678 53.463 11.065 49.317 11.528 47.672 C 15.756 32.470 15.227 9.897 14.765 8.779 C 14.302 7.660 13.113 6.804 12.783 5.554 C 12.849 3.777 14.897 3.777 16.152 3.448 Z " transform="matrix(1, 0, 0, 1, 69.5, 43.5)"/>
          <path id="Shape" fill="#AAA082" stroke="none" stroke-width="1" d="M 15.558 52.673 C 15.359 55.174 13.510 57.017 11.330 56.951 C 9.414 56.951 7.895 55.371 7.961 53.529 C 7.961 53.463 7.961 53.397 7.961 53.331 C 8.093 52.147 8.885 51.094 9.942 50.501 C 10.207 50.370 10.537 50.238 10.801 50.172 C 11.198 50.107 11.660 50.041 12.056 50.107 C 13.444 50.567 14.699 51.489 15.558 52.673 Z " transform="matrix(1, 0, 0, 1, 69.5, 43.5)"/>
          <path id="Shape" fill="#C8BEA0" stroke="none" stroke-width="1" d="M 6.705 0.224 C 6.441 0.487 2.808 0.816 0.232 2.658 C -0.693 6.344 5.384 7.528 7.696 6.804 C 10.008 6.081 11.858 4.567 11.726 3.185 C 11.594 1.737 9.150 0.421 6.705 0.224 Z " transform="matrix(1, 0, 0, 1, 69.5, 43.5)"/>
        </g>
        <g id="RIGHT-FEMUR">
          <path id="Shape" fill="#AAA082" stroke="none" stroke-width="1" d="M 13.348 35.170 C 10.705 35.960 9.979 36.157 7.535 32.340 C 5.685 29.379 5.553 24.311 5.355 20.889 C 5.156 17.336 5.090 13.716 2.580 10.952 C -0.062 8.057 -0.128 5.161 1.259 2.265 C 1.985 0.752 6.940 -0.959 10.573 2.068 C 13.876 4.832 15.924 12.071 16.519 15.427 C 17.576 21.021 15.990 34.446 13.348 35.170 Z " transform="matrix(1, 0, 0, 1, 65.5, 94.5)"/>
          <path id="Shape" fill="#DCD2B4" stroke="none" stroke-width="1" d="M 8.459 3.779 C 10.045 5.227 9.318 7.135 7.931 8.122 C 6.676 9.044 4.958 8.781 4.033 7.530 C 4.033 7.464 3.967 7.464 3.967 7.399 C 3.505 6.543 3.439 5.490 3.901 4.635 C 4.033 4.371 4.165 4.174 4.298 3.976 C 4.496 3.713 4.760 3.516 5.090 3.318 C 5.883 2.989 6.874 2.331 8.459 3.779 Z " transform="matrix(1, 0, 0, 1, 65.5, 94.5)"/>
        </g>
        <g id="RIGHT-TIB-+-FIB">
          <path id="Shape" fill="#AAA082" stroke="none" stroke-width="1" d="M 10.161 1.091 C 11.615 3.197 11.152 5.632 9.236 7.014 C 7.651 8.067 5.075 8.067 3.885 6.224 C 3.225 5.171 3.225 3.789 3.819 2.671 C 3.952 2.407 4.150 2.078 4.414 1.881 C 4.744 1.552 5.075 1.289 5.471 1.025 C 6.528 0.499 8.774 -0.357 10.161 1.091 Z " transform="matrix(1, 0, 0, 1, 74.5, 129.5)"/>
          <path id="Shape" fill="#AAA082" stroke="none" stroke-width="1" d="M 1.573 1.683 C 2.300 1.749 2.762 2.407 2.696 3.131 C 2.696 3.131 2.696 3.197 2.696 3.197 C 2.564 3.855 1.970 4.250 1.309 4.184 C 0.913 4.118 0.648 3.789 0.516 3.394 C 0.516 3.329 0.450 3.197 0.450 3.065 C 0.450 2.934 0.450 2.802 0.516 2.671 C 0.648 2.276 0.979 1.618 1.573 1.683 Z " transform="matrix(1, 0, 0, 1, 74.5, 129.5)"/>
          <path id="Shape" fill="#AAA082" stroke="none" stroke-width="1" d="M 29.451 45.315 L 28.130 45.907 C 28.130 45.907 6.990 7.475 8.312 5.303 C 9.435 5.106 10.624 4.908 12.077 6.553 C 18.947 14.319 29.451 45.315 29.451 45.315 Z " transform="matrix(1, 0, 0, 1, 74.5, 129.5)"/>
          <path id="Shape" fill="#AAA082" stroke="none" stroke-width="1" d="M 1.904 9.844 L 2.762 9.712 C 7.453 13.726 11.945 25.440 15.446 30.508 L 26.544 46.433 L 25.223 47.815 L 22.382 46.302 C 22.382 46.368 -1.003 15.438 1.904 9.844 Z " transform="matrix(1, 0, 0, 1, 74.5, 129.5)"/>
          <path id="Shape" fill="#AAA082" stroke="none" stroke-width="1" d="M 33.943 41.564 C 33.943 41.564 26.280 46.368 25.752 46.763 C 25.752 46.960 24.298 44.064 24.232 44.064 C 23.572 44.854 22.977 45.644 22.382 46.433 L 24.695 48.803 C 25.884 48.539 27.073 48.013 28.064 47.289 C 28.724 47.223 34.934 42.419 34.934 42.419 L 33.943 41.564 Z " transform="matrix(1, 0, 0, 1, 74.5, 129.5)"/>
        </g>
        <g id="PELVIS">
          <path id="Shape" fill="#DCD2B4" stroke="none" stroke-width="1" d="M 37.211 17.399 C 36.748 22.005 30.341 21.150 26.905 21.150 C 23.272 21.150 18.053 21.084 15.147 18.517 C 11.778 15.622 14.750 10.883 12.174 7.659 C 9.201 3.974 4.247 6.343 0.547 5.356 C 0.349 -0.699 15.213 2.921 18.384 3.118 C 25.386 3.579 32.322 3.052 39.259 2.460 C 41.835 2.263 45.270 1.604 47.781 2.328 C 50.291 3.052 52.141 6.540 48.904 7.856 C 46.988 8.646 43.553 6.737 41.307 7.132 C 37.475 7.725 37.211 10.160 37.211 17.399 Z M 18.648 8.383 C 18.252 9.567 18.450 13.845 20.101 15.358 C 21.092 16.280 23.008 16.346 24.792 16.675 C 28.425 17.333 30.803 16.872 31.596 13.911 C 32.124 11.936 31.992 11.278 32.058 9.041 C 32.124 6.803 29.746 6.935 28.821 7.264 C 27.896 7.593 28.689 8.975 27.764 9.633 C 27.104 10.094 23.999 10.489 23.206 9.567 C 22.413 8.646 23.272 7.790 21.621 7.396 C 19.969 7.001 19.044 7.198 18.648 8.383 Z " transform="matrix(1, 0, 0, 1, 27.5, 84.5)"/>
        </g>
        <g id="RIB-CAGE">
          <path id="Shape" fill="#C8BEA0" stroke="none" stroke-width="1" d="M 2.734 2.515 C 2.734 2.515 4.253 26.338 10.265 27.325 L 15.153 26.075 L 12.379 3.437 L 2.734 2.515 Z " transform="matrix(1, 0, 0, 1, 19.5, 49.5)"/>
          <path id="Shape" fill="#AAA082" stroke="none" stroke-width="1" d="M 49.307 4.556 L 48.118 26.536 L 56.111 27.325 C 56.111 27.325 62.122 10.083 58.753 3.634 L 49.307 4.556 Z " transform="matrix(1, 0, 0, 1, 19.5, 49.5)"/>
          <path id="Shape" fill="#DCD2B4" stroke="none" stroke-width="1" d="M 0.752 5.279 C 0.422 3.963 0.620 2.581 1.281 1.397 C 3.527 -0.907 11.190 1.002 13.898 1.265 C 17.994 1.594 22.090 2.121 26.185 2.910 C 26.582 3.305 26.714 3.897 26.516 4.424 C 23.477 6.398 18.192 6.003 14.625 6.201 C 10.793 6.398 3.923 7.978 0.752 5.279 Z " transform="matrix(1, 0, 0, 1, 19.5, 49.5)"/>
          <path id="Shape" fill="#DCD2B4" stroke="none" stroke-width="1" d="M 2.205 13.637 C 1.611 12.321 1.281 11.136 1.941 9.820 C 8.944 8.438 17.664 7.714 24.798 8.438 C 25.855 9.754 25.921 9.952 25.855 11.136 C 18.919 14.624 9.604 16.138 2.205 13.637 Z " transform="matrix(1, 0, 0, 1, 19.5, 49.5)"/>
          <path id="Shape" fill="#DCD2B4" stroke="none" stroke-width="1" d="M 5.046 19.955 C 9.208 18.836 13.370 18.046 17.664 17.520 C 19.844 17.191 25.261 14.887 27.110 16.467 C 27.441 19.033 15.285 22.324 13.502 22.916 C 11.718 23.508 7.887 24.693 6.037 24.101 C 3.791 23.377 4.518 21.863 5.046 19.955 Z " transform="matrix(1, 0, 0, 1, 19.5, 49.5)"/>
          <path id="Shape" fill="#DCD2B4" stroke="none" stroke-width="1" d="M 8.151 28.642 C 11.190 26.799 15.087 26.141 18.456 24.890 C 21.363 23.837 24.468 21.995 27.639 22.126 C 26.384 25.351 9.208 33.709 8.151 28.642 Z " transform="matrix(1, 0, 0, 1, 19.5, 49.5)"/>
          <path id="Shape" fill="#DCD2B4" stroke="none" stroke-width="1" d="M 3.923 2.713 L 0.686 4.687 C 0.686 4.687 2.668 25.088 8.547 29.234 L 11.124 29.563 C 8.944 24.167 7.094 18.639 5.508 13.045 C 4.716 9.623 4.187 6.201 3.923 2.713 Z " transform="matrix(1, 0, 0, 1, 19.5, 49.5)"/>
          <path id="Shape" fill="#DCD2B4" stroke="none" stroke-width="1" d="M 38.010 12.518 L 37.284 11.202 C 37.416 10.742 37.614 10.281 37.812 9.820 C 40.256 7.912 47.127 9.754 49.967 9.952 C 53.138 10.149 56.177 10.281 59.282 11.071 C 59.876 11.992 60.207 13.045 60.339 14.164 C 58.952 17.388 52.478 15.677 49.901 15.414 C 45.805 15.085 41.842 14.098 38.010 12.518 Z " transform="matrix(1, 0, 0, 1, 19.5, 49.5)"/>
          <path id="Shape" fill="#DCD2B4" stroke="none" stroke-width="1" d="M 37.680 4.687 C 38.605 1.462 44.881 2.647 47.193 2.713 C 51.156 2.844 55.054 2.910 59.018 3.042 C 62.981 7.254 52.345 7.385 51.024 7.385 C 48.448 7.319 38.275 8.438 37.680 4.687 Z " transform="matrix(1, 0, 0, 1, 19.5, 49.5)"/>
          <path id="Shape" fill="#DCD2B4" stroke="none" stroke-width="1" d="M 39.067 16.664 C 45.805 17.191 52.808 19.099 59.480 20.547 L 60.141 21.534 C 60.207 22.390 60.008 23.245 59.612 24.035 C 57.168 24.298 36.755 19.626 39.067 16.664 Z " transform="matrix(1, 0, 0, 1, 19.5, 49.5)"/>
          <path id="Shape" fill="#DCD2B4" stroke="none" stroke-width="1" d="M 39.332 23.706 C 39.992 20.810 55.054 26.865 57.432 27.654 L 57.895 28.971 C 56.772 33.314 41.115 26.404 39.332 23.706 Z " transform="matrix(1, 0, 0, 1, 19.5, 49.5)"/>
          <path id="Shape" fill="#DCD2B4" stroke="none" stroke-width="1" d="M 54.261 29.760 L 57.300 29.826 C 57.300 29.826 59.414 27.523 60.537 21.995 C 61.660 16.204 61.330 6.727 59.414 3.766 L 56.309 3.700 C 57.168 5.214 57.762 6.925 57.961 8.636 C 58.357 10.939 58.027 13.835 57.696 17.257 C 57.300 21.271 54.658 28.247 54.261 29.760 Z " transform="matrix(1, 0, 0, 1, 19.5, 49.5)"/>
        </g>
        <g id="SPINE">
          <path id="Shape" fill="#C8BEA0" stroke="none" stroke-width="1" d="M 5.404 9.055 C 4.942 13.596 4.744 18.071 4.810 22.611 C 4.744 25.441 4.876 28.271 4.810 31.101 C 4.744 33.338 4.413 36.036 5.074 38.011 C 5.867 38.471 6.395 38.208 7.056 37.024 C 7.848 28.008 7.650 18.334 7.122 9.121 L 5.404 9.055 Z " transform="matrix(1, 0, 0, 1, 45.5, 42.5)"/>
          <path id="Shape" fill="#C8BEA0" stroke="none" stroke-width="1" d="M 0.978 37.221 C 1.375 33.536 7.518 35.247 10.095 35.444 C 12.605 41.893 1.308 41.169 0.978 37.221 Z " transform="matrix(1, 0, 0, 1, 45.5, 42.5)"/>
          <path id="Shape" fill="#C8BEA0" stroke="none" stroke-width="1" d="M 2.035 29.982 C 2.365 26.363 7.782 28.008 10.028 28.205 C 12.275 34.589 2.299 33.931 2.035 29.982 Z " transform="matrix(1, 0, 0, 1, 45.5, 42.5)"/>
          <path id="Shape" fill="#C8BEA0" stroke="none" stroke-width="1" d="M 2.828 23.401 C 3.158 19.716 8.245 19.584 9.500 22.348 C 11.416 26.823 3.092 27.350 2.828 23.401 Z " transform="matrix(1, 0, 0, 1, 45.5, 42.5)"/>
          <path id="Shape" fill="#C8BEA0" stroke="none" stroke-width="1" d="M 2.299 16.491 C 2.630 12.872 7.716 12.674 8.972 15.438 C 10.887 19.913 2.564 20.374 2.299 16.491 Z " transform="matrix(1, 0, 0, 1, 45.5, 42.5)"/>
          <path id="Shape" fill="#C8BEA0" stroke="none" stroke-width="1" d="M 2.960 10.305 C 3.224 7.344 7.320 7.212 8.311 9.450 C 9.830 13.069 3.158 13.464 2.960 10.305 Z " transform="matrix(1, 0, 0, 1, 45.5, 42.5)"/>
          <path id="Shape" fill="#DCD2B4" stroke="none" stroke-width="1" d="M 7.254 37.089 C 7.386 37.747 6.924 38.406 6.263 38.537 C 6.263 38.537 6.197 38.537 6.197 38.537 C 5.536 38.603 4.942 38.208 4.810 37.550 C 4.810 37.155 4.942 36.760 5.272 36.563 C 5.338 36.497 5.470 36.431 5.536 36.431 C 5.668 36.365 5.801 36.365 5.933 36.365 C 6.395 36.431 7.122 36.497 7.254 37.089 Z " transform="matrix(1, 0, 0, 1, 45.5, 42.5)"/>
          <path id="Shape" fill="#DCD2B4" stroke="none" stroke-width="1" d="M 7.452 29.850 C 7.584 30.508 7.122 31.167 6.461 31.298 C 6.395 31.298 6.395 31.298 6.329 31.298 C 5.668 31.364 5.074 30.969 4.942 30.311 C 4.942 29.916 5.140 29.521 5.470 29.324 C 5.536 29.258 5.668 29.192 5.735 29.192 C 5.867 29.126 5.999 29.126 6.131 29.126 C 6.593 29.126 7.320 29.258 7.452 29.850 Z " transform="matrix(1, 0, 0, 1, 45.5, 42.5)"/>
          <path id="Shape" fill="#DCD2B4" stroke="none" stroke-width="1" d="M 7.584 22.940 C 7.716 23.599 7.254 24.322 6.527 24.388 C 6.527 24.388 6.461 24.388 6.461 24.388 C 5.801 24.454 5.206 24.059 5.074 23.401 C 5.074 23.006 5.206 22.611 5.536 22.414 C 5.602 22.348 5.735 22.282 5.801 22.282 C 5.933 22.217 6.065 22.217 6.197 22.217 C 6.725 22.217 7.452 22.348 7.584 22.940 Z " transform="matrix(1, 0, 0, 1, 45.5, 42.5)"/>
          <path id="Shape" fill="#DCD2B4" stroke="none" stroke-width="1" d="M 7.254 15.899 C 7.386 16.557 6.924 17.281 6.197 17.347 C 6.197 17.347 6.131 17.347 6.131 17.347 C 5.470 17.413 4.876 17.018 4.744 16.360 C 4.744 15.965 4.876 15.570 5.206 15.372 C 5.272 15.307 5.404 15.241 5.470 15.241 C 5.602 15.175 5.735 15.175 5.867 15.175 C 6.395 15.241 7.122 15.307 7.254 15.899 Z " transform="matrix(1, 0, 0, 1, 45.5, 42.5)"/>
          <path id="Shape" fill="#DCD2B4" stroke="none" stroke-width="1" d="M 7.188 9.844 C 7.320 10.503 6.858 11.226 6.131 11.292 C 6.131 11.292 6.065 11.292 6.065 11.292 C 5.404 11.358 4.810 10.963 4.678 10.305 C 4.678 9.910 4.876 9.515 5.140 9.318 C 5.206 9.252 5.338 9.186 5.404 9.186 C 5.536 9.121 5.668 9.121 5.801 9.121 C 6.263 9.186 6.990 9.252 7.188 9.844 Z " transform="matrix(1, 0, 0, 1, 45.5, 42.5)"/>
          <path id="Shape" fill="#DCD2B4" stroke="none" stroke-width="1" d="M 0.516 2.540 C 0.648 1.487 0.978 0.829 1.573 0.697 C 2.101 0.500 2.630 0.368 3.224 0.302 C 4.810 0.105 6.461 0.368 8.047 0.368 C 9.500 0.302 10.953 0.368 12.473 0.368 C 12.737 0.368 13.001 0.368 13.199 0.368 C 14.058 1.750 13.464 3.856 12.671 4.382 C 12.473 4.448 12.341 4.580 12.142 4.646 C 11.152 4.975 10.095 5.106 9.104 5.040 C 7.254 5.040 5.404 4.975 3.488 4.843 C 2.894 4.843 2.299 4.711 1.705 4.514 C 1.110 4.251 0.648 3.724 0.516 2.540 Z " transform="matrix(1, 0, 0, 1, 45.5, 42.5)"/>
        </g>
        <g id="LEFT-FEMUR">
          <path id="Shape" fill="#C8BEA0" stroke="none" stroke-width="1" d="M 17.787 3.594 C 15.805 0.567 11.115 -0.486 7.878 1.160 C 5.103 2.542 4.112 8.069 6.622 9.715 C 9.265 12.215 7.547 14.256 6.160 16.954 C 4.575 19.849 3.584 22.942 2.328 26.035 C 1.338 28.339 -0.116 31.168 0.082 33.801 C 0.215 35.643 1.404 36.696 2.923 37.223 C 3.319 37.354 6.028 36.960 8.208 34.656 C 11.577 31.168 15.012 24.785 16.003 21.955 C 18.051 15.637 19.702 6.556 17.787 3.594 Z " transform="matrix(1, 0, 0, 1, 20.5, 93.5)"/>
          <path id="Shape" fill="#F0E6D2" stroke="none" stroke-width="1" d="M 9.595 3.924 C 8.406 5.503 8.472 7.346 9.793 8.464 C 10.982 9.451 12.700 9.320 13.691 8.135 C 13.691 8.069 13.757 8.069 13.757 8.004 C 14.285 7.148 14.418 6.161 14.021 5.240 C 13.955 4.976 13.823 4.779 13.625 4.582 C 13.427 4.318 13.162 4.121 12.898 3.924 C 12.039 3.265 10.322 3.134 9.595 3.924 Z " transform="matrix(1, 0, 0, 1, 20.5, 93.5)"/>
        </g>
        <g id="LEFT-TIB-+-FIB">
          <path id="Shape" fill="#C8BEA0" stroke="none" stroke-width="1" d="M 24.839 9.462 C 24.905 9.264 25.103 9.001 25.169 8.738 C 25.962 6.435 25.499 5.316 23.253 4 C 22.262 3.407 21.007 3.276 19.884 3.671 C 17.506 4.724 17.902 8.211 19.884 9.396 L 21.338 10.317 C 22.527 10.383 23.782 10.449 24.839 9.462 Z " transform="matrix(1, 0, 0, 1, 0.5, 128.5)"/>
          <path id="Shape" fill="#C8BEA0" stroke="none" stroke-width="1" d="M 18.365 1.038 C 18.035 1.631 18.167 2.420 18.827 2.749 C 18.827 2.749 18.893 2.749 18.893 2.815 C 19.488 3.144 20.215 2.947 20.545 2.354 C 20.677 2.025 20.677 1.565 20.413 1.236 C 20.347 1.170 20.281 1.104 20.215 0.972 C 20.082 0.907 20.016 0.775 19.884 0.775 C 19.422 0.709 18.761 0.578 18.365 1.038 Z " transform="matrix(1, 0, 0, 1, 0.5, 128.5)"/>
          <path id="Shape" fill="#C8BEA0" stroke="none" stroke-width="1" d="M 24.905 14.463 C 24.839 13.739 24.905 13.147 24.442 12.621 C 23.848 12.357 23.319 12.621 22.659 12.752 C 15.326 21.571 8.720 36.641 3.303 46.710 L 4.492 47.104 C 8.125 43.814 13.080 33.679 15.458 29.468 C 18.959 23.413 21.866 20.847 24.905 14.463 Z " transform="matrix(1, 0, 0, 1, 0.5, 128.5)"/>
          <path id="Shape" fill="#C8BEA0" stroke="none" stroke-width="1" d="M 6.672 47.565 C 7.399 47.828 8.786 48.157 9.182 48.881 L 8.852 49.276 C 7.267 49.539 4.624 48.355 3.105 47.960 C 1.321 47.433 0 46.841 0 46.381 C 0 45.657 0.330 44.933 0.859 44.406 C 0.727 44.538 2.907 46.183 2.907 46.183 C 2.907 46.183 6.540 47.499 6.672 47.565 Z " transform="matrix(1, 0, 0, 1, 0.5, 128.5)"/>
          <path id="Shape" fill="#C8BEA0" stroke="none" stroke-width="1" d="M 16.779 9.922 C 15.524 9.133 13.278 15.187 12.023 17.819 C 10.570 20.847 10.173 20.781 8.852 23.940 C 7.531 27.296 0.859 44.340 0.859 44.340 L 1.189 46.446 L 2.642 46.775 L 16.647 14.397 C 16.713 14.463 18.035 10.712 16.779 9.922 Z " transform="matrix(1, 0, 0, 1, 0.5, 128.5)"/>
        </g>
        <g id="HEAD">
          <path id="Shape" fill="#C8BEA0" stroke="none" stroke-width="1" d="M 37.061 31.851 C 38.910 31.786 42.345 31.062 44.195 30.930 C 44.261 31.259 44.856 38.301 42.478 39.090 C 41.751 39.749 40.033 39.156 39.175 38.959 C 37.787 37.906 36.796 33.826 37.061 31.851 Z " transform="matrix(1, 0, 0, 1, 29.5, -0.5)"/>
          <path id="Shape" fill="#F0E6D2" stroke="none" stroke-width="1" d="M 26.689 38.103 C 25.830 37.116 25.566 30.996 25.698 29.811 C 26.821 29.877 30.521 32.773 31.379 33.102 C 31.842 33.628 31.512 37.840 31.247 38.301 C 29.398 38.959 28.407 38.893 26.689 38.103 Z " transform="matrix(1, 0, 0, 1, 29.5, -0.5)"/>
          <path id="Shape" fill="#AAA082" stroke="none" stroke-width="1" d="M 45.252 32.444 C 45.120 34.089 45.186 35.734 45.450 37.314 C 47.036 38.038 47.828 38.038 49.150 37.314 C 49.546 36.787 49.678 30.601 49.612 28.298 L 45.252 32.444 Z " transform="matrix(1, 0, 0, 1, 29.5, -0.5)"/>
          <path id="Shape" fill="#F0E6D2" stroke="none" stroke-width="1" d="M 36.862 33.233 C 37.259 33.957 36.664 37.708 36.466 38.432 C 36.202 39.354 35.277 39.880 34.418 39.617 C 34.286 39.551 34.154 39.485 33.956 39.419 C 33.824 39.354 33.692 39.222 33.559 39.156 C 33.031 38.169 32.106 33.563 32.436 32.510 C 33.361 32.246 36.004 32.970 36.862 33.233 Z " transform="matrix(1, 0, 0, 1, 29.5, -0.5)"/>
          <path id="Shape" fill="#DCD2B4" stroke="none" stroke-width="1" d="M 45.384 4.014 C 41.222 1.579 35.872 1.382 31.247 0.790 C 24.245 -0.132 6.541 3.685 2.048 10.727 C 0 13.886 -0.132 19.545 2.048 22.704 C 4.625 26.521 8.853 27.706 13.213 28.364 C 18.564 29.219 22.527 28.364 26.161 32.970 C 28.076 35.405 30.719 36.326 33.559 36.458 C 35.211 36.524 41.421 36.261 42.742 35.932 C 45.913 35.076 48.489 32.904 49.810 29.943 C 55.888 15.860 49.216 6.252 45.384 4.014 Z " transform="matrix(1, 0, 0, 1, 29.5, -0.5)"/>
          <path id="Shape" fill="#C8BEA0" stroke="none" stroke-width="1" d="M 43.006 16.452 C 42.213 16.386 41.553 16.913 41.355 17.637 C 40.826 18.887 40.430 20.137 40.232 21.454 C 40.099 22.836 39.703 24.152 39.439 25.468 C 39.241 26.389 38.844 28.364 40.430 28.364 C 42.015 28.364 42.213 26.192 43.270 25.994 C 44.327 25.797 44.129 27.311 45.648 28.166 C 47.168 29.022 47.234 27.640 47.366 27.376 C 47.432 24.547 45.648 16.781 43.006 16.452 Z " transform="matrix(1, 0, 0, 1, 29.5, -0.5)"/>
          <path id="Shape" fill="#FFFFFF" stroke="none" stroke-width="1" d="M 36.004 15.926 C 38.052 19.216 35.805 23.033 32.304 24.349 C 29.530 25.402 25.632 24.218 24.641 20.796 C 24.113 18.953 24.641 16.386 25.962 15.070 C 26.293 14.675 26.689 14.281 27.152 14.017 C 27.746 13.622 28.407 13.293 29.067 13.162 C 31.049 12.701 33.956 12.569 36.004 15.926 Z " transform="matrix(1, 0, 0, 1, 29.5, -0.5)"/>
          <path id="Shape" fill="#000000" stroke="none" stroke-width="1" d="M 33.758 17.439 C 34.286 17.637 34.616 18.097 34.682 18.624 C 34.550 19.414 34.484 20.269 33.361 20.401 C 32.568 19.874 32.767 19.085 32.833 18.361 C 32.833 17.834 33.229 17.439 33.758 17.439 Z " transform="matrix(1, 0, 0, 1, 29.5, -0.5)"/>
          <path id="Shape" fill="#FFFFFF" stroke="none" stroke-width="1" d="M 60.116 15.992 C 62.164 19.282 59.918 23.099 56.416 24.415 C 53.642 25.468 49.744 24.283 48.753 20.861 C 48.225 19.019 48.753 16.452 50.075 15.136 C 50.405 14.741 50.801 14.412 51.264 14.083 C 51.858 13.688 52.519 13.359 53.179 13.228 C 55.161 12.767 58.068 12.701 60.116 15.992 Z " transform="matrix(1, 0, 0, 1, 29.5, -0.5)"/>
          <path id="Shape" fill="#000000" stroke="none" stroke-width="1" d="M 56.813 17.505 C 57.341 17.703 57.672 18.163 57.738 18.690 C 57.605 19.479 57.539 20.335 56.416 20.467 C 55.624 19.940 55.888 19.150 55.888 18.426 C 55.888 17.900 56.284 17.505 56.813 17.505 Z " transform="matrix(1, 0, 0, 1, 29.5, -0.5)"/>
        </g>
        <g id="LEFT-RADIUS-+-ULNA-+-HAND">
          <path id="Shape" fill="#AAA082" stroke="none" stroke-width="1" d="M 41.502 56.725 C 40.644 56.067 39.983 55.277 39.587 54.290 C 39.124 53.171 39.124 51.987 39.587 50.868 C 39.917 49.947 40.776 49.486 41.568 49.091 C 41.899 48.960 42.229 49.025 42.493 49.157 C 43.286 49.486 44.079 49.881 44.805 50.407 C 45.995 51.394 46.523 53.040 46.127 54.553 C 46.061 54.685 46.061 54.817 45.995 54.882 C 45.268 55.738 44.475 56.528 43.484 57.120 C 42.890 57.515 42.295 57.317 41.502 56.725 Z " transform="matrix(1, 0, 0, 1, 20.5, 81.5)"/>
          <path id="Shape" fill="#C8BEA0" stroke="none" stroke-width="1" d="M 59.801 60.147 L 58.810 61.266 C 58.282 61.332 57.687 61.266 57.225 60.937 C 55.177 59.752 53.063 58.568 51.015 57.449 C 50.090 56.988 49.232 56.330 48.505 55.606 C 48.108 55.277 47.844 54.882 47.844 54.356 C 47.976 53.961 48.307 53.895 48.703 53.961 C 49.760 53.961 50.883 54.224 51.808 54.751 C 53.063 55.475 54.450 56.001 55.705 56.725 C 56.828 57.383 57.885 58.173 58.876 58.962 C 59.141 59.292 59.471 59.686 59.801 60.147 Z " transform="matrix(1, 0, 0, 1, 20.5, 81.5)"/>
          <path id="Shape" fill="#C8BEA0" stroke="none" stroke-width="1" d="M 57.819 65.346 C 57.159 65.675 56.366 65.543 55.772 65.149 C 54.979 64.688 54.186 64.161 53.393 63.701 C 51.676 62.714 50.024 61.661 48.505 60.410 C 47.778 59.884 47.118 59.292 46.523 58.699 C 46.061 58.370 45.862 57.778 46.127 57.251 C 46.325 57.251 46.457 57.251 46.655 57.317 C 47.184 57.581 47.712 57.778 48.307 57.844 C 48.571 57.910 48.769 57.975 49.033 58.107 C 50.751 59.094 52.667 59.884 54.252 61.068 C 55.309 61.792 56.234 62.582 57.093 63.503 C 57.555 63.964 57.819 64.622 57.819 65.346 Z " transform="matrix(1, 0, 0, 1, 20.5, 81.5)"/>
          <path id="Shape" fill="#C8BEA0" stroke="none" stroke-width="1" d="M 53.856 66.070 C 51.412 65.741 45.334 61.595 44.013 59.423 C 44.673 59.160 45.400 59.292 45.995 59.686 C 47.184 60.542 48.373 61.397 49.562 62.253 C 50.288 62.779 51.015 63.240 51.742 63.701 C 52.733 64.161 53.459 65.017 53.856 66.070 Z " transform="matrix(1, 0, 0, 1, 20.5, 81.5)"/>
          <path id="Shape" fill="#C8BEA0" stroke="none" stroke-width="1" d="M 53.856 50.407 C 53.261 50.868 52.468 51.065 51.742 50.868 C 51.345 50.802 51.015 50.736 50.685 50.605 C 48.703 49.881 46.655 49.289 44.541 48.828 C 44.343 48.762 44.145 48.696 44.013 48.631 C 44.145 48.367 44.277 48.170 44.409 47.972 C 45.070 47.314 45.995 46.985 46.919 47.051 C 48.901 47.314 50.949 47.380 52.799 48.170 C 53.922 48.631 54.120 48.960 53.856 50.407 Z " transform="matrix(1, 0, 0, 1, 20.5, 81.5)"/>
          <path id="ID0.012989614624530077" fill="#DCD2B4" stroke="none" stroke-width="1" d="M 39.587 48.367 C 34.764 48.828 31.990 44.814 28.753 41.655 C 25.119 38.101 21.882 34.153 19.108 29.941 C 16.598 26.124 14.087 22.439 11.313 18.819 C 9.925 17.042 8.538 14.936 6.622 13.686 C 4.575 12.370 -2.956 8.158 2.130 1.906 C 7.217 -4.346 13.955 10.330 14.880 11.778 C 17.853 16.253 21.882 20.530 25.185 24.742 C 28.555 29.019 32.518 32.310 35.887 36.390 C 39.256 40.470 42.758 43.497 39.587 48.367 Z M 8.406 10.001 C 7.349 12.107 11.775 17.635 13.030 19.280 C 15.276 22.373 17.787 25.334 20.231 28.296 C 22.345 30.796 24.261 33.429 26.242 35.995 C 28.026 38.233 30.933 43.366 34.170 43.563 L 36.085 42.247 C 35.557 39.088 31.858 36.258 29.942 33.758 C 27.630 30.796 25.450 27.703 23.138 24.676 C 21.156 22.175 11.445 8.158 8.406 10.001 Z " transform="matrix(1, 0, 0, 1, 20.5, 81.5)"/>
        </g>
        <g id="LEFT-HUMERUS">
          <path id="Shape" fill="#C8BEA0" stroke="none" stroke-width="1" d="M 16.169 47.723 L 15.376 47.986 C 10.818 44.433 9.233 36.667 7.383 31.600 C 5.996 27.849 4.542 24.164 3.221 20.413 C 2.230 17.649 0.711 13.700 0.975 10.607 C 1.041 9.817 2.362 6.790 3.552 8.699 C 7.515 15.016 15.508 37.391 16.169 47.723 Z " transform="matrix(1, 0, 0, 1, 9.5, 39.5)"/>
          <path id="Shape" fill="#C8BEA0" stroke="none" stroke-width="1" d="M 17.028 44.893 C 18.547 45.946 19.010 48.052 18.085 49.697 C 17.226 50.948 15.508 51.277 14.253 50.421 C 14.187 50.421 14.187 50.356 14.121 50.356 C 13.328 49.697 12.998 48.710 13.064 47.723 C 13.064 47.460 13.130 47.197 13.262 46.999 C 13.395 46.670 13.527 46.407 13.791 46.144 C 14.716 45.354 15.839 44.959 17.028 44.893 Z " transform="matrix(1, 0, 0, 1, 9.5, 39.5)"/>
          <path id="Shape" fill="#DCD2B4" stroke="none" stroke-width="1" d="M 9.233 7.909 C 9.167 7.514 6.194 5.342 5.005 2.447 C 6.260 -1.173 12.007 1.065 13.527 2.907 C 15.046 4.750 15.905 6.987 15.046 8.106 C 14.187 9.225 11.413 9.028 9.233 7.909 Z " transform="matrix(1, 0, 0, 1, 9.5, 39.5)"/>
        </g>
      </g>
    </g>
  </g>
</svg>