<svg version="1.1" width="150" height="152" viewBox="-1 -1 150 152" xmlns="http://www.w3.org/2000/svg" xmlns:xlink="http://www.w3.org/1999/xlink">
  <!-- Exported by Scratch - http://scratch.mit.edu/ -->
  <g id="ID0.7956753903999925" transform="matrix(1, 0, 0, 1, 0, 0.75)">
    <g id="Page-1">
      <g id="batter-c-[baseball,sports,people,alex-eben-meyer]">
        <g id="Right-Arm">
          <path id="Shape" fill="#824600" stroke="none" stroke-width="1" d="M 39.783 5.636 C 38.957 5.519 0.877 13.872 0.877 13.872 L 0.877 17.797 L 42.438 16.084 C 42.328 15.184 40.191 6.557 39.783 5.636 Z " transform="matrix(1, 0, 0, 1, 64, 42)"/>
          <path id="Shape" fill="#6E1E3C" stroke="none" stroke-width="1" d="M 34.329 4.457 L 36.030 19.824 L 51.562 0.568 C 49.293 0.850 34.329 4.457 34.329 4.457 Z " transform="matrix(1, 0, 0, 1, 64, 42)"/>
        </g>
        <g id="Right-Leg">
          <path id="Shape" fill="#BE0A3C" stroke="none" stroke-width="1" d="M 31.883 9.409 L 18.613 0.014 L 0.777 4.177 C -0.584 5.335 0.716 11.665 0.938 13.058 C 1.563 17.022 2.414 20.946 3.488 24.810 C 5.382 31.621 10.475 40.127 13.192 46.635 L 30.106 45.303 C 30.184 40.530 30.350 36.691 30.617 31.934 C 30.778 29.024 31.728 24.581 32.133 21.693 C 32.467 19.214 33.616 16.449 33.616 14.010 L 31.883 9.409 Z " transform="matrix(1, 0, 0, 1, 86, 76)"/>
          <path id="Shape" fill="#6E1E3C" stroke="none" stroke-width="1" d="M 34.856 72.796 C 34.856 72.796 32.305 72.796 30.586 72.934 L 30.586 74 C 34.059 73.906 39.699 73.785 39.699 73.785 L 30.761 45.622 L 14.356 46.124 C 14.356 46.124 19.097 53.938 21.885 58.212 C 26.886 65.833 34.856 72.796 34.856 72.796 Z " transform="matrix(1, 0, 0, 1, 86, 76)"/>
          <path id="Shape" fill="#F0E6D2" stroke="none" stroke-width="1" d="M 11.315 42.620 C 11.971 44.846 13.880 49.009 15.285 50.689 L 32.599 50.689 C 32.659 48.780 31.959 43.897 31.505 41.568 L 11.315 42.620 Z " transform="matrix(1, 0, 0, 1, 86, 76)"/>
          <path id="Shape" fill="#F0E6D2" stroke="none" stroke-width="1" d="M 33.058 52.716 L 16.384 53.046 C 16.494 53.620 16.626 54.186 16.779 54.743 L 33.616 54.743 C 33.380 54.094 33.193 53.415 33.058 52.716 Z " transform="matrix(1, 0, 0, 1, 86, 76)"/>
        </g>
        <path id="Shape" fill="#BE0A3C" stroke="none" stroke-width="1" d="M 128.845 51.358 C 128.873 49.510 126.490 44.904 126.772 44.562 C 124.511 42.394 119.762 42.483 116.876 42.637 C 112.763 42.858 109.994 45.235 107.368 48.236 C 104.362 51.742 101.592 55.442 99.075 59.312 C 97.732 61.331 96.399 63.378 95.012 65.380 C 93.906 66.991 91.413 70.951 91.429 70.951 C 90.152 73.654 87.891 76.523 87.178 79.430 C 98.196 82.464 109.120 86.479 119.934 90.203 C 122.316 84.571 123.980 78.751 126.092 73.020 C 128.204 67.289 131.427 60.884 131.781 54.723 C 131.770 54.712 128.845 51.358 128.845 51.358 Z "/>
        <path id="Shape" fill="#FFC800" stroke="none" stroke-width="1" d="M 75.519 60.038 C 72.397 61.882 40.875 62.321 36.786 62.538 C 28.498 62.966 9.142 62.931 0.848 62.464 C -0.869 60.495 0.415 56.124 1.259 54.076 C 2.481 53.425 5.265 53.864 6.709 53.825 C 8.553 53.779 10.348 53.750 12.181 53.825 C 16.626 53.984 32.225 54.201 36.692 54.475 C 44.375 54.943 68.625 55.320 76.024 57.613 C 76.074 58.498 75.469 59.154 75.519 60.038 Z "/>
        <g id="Left-Arm">
          <path id="Shape" fill="#824600" stroke="none" stroke-width="1" d="M 45.306 2.049 L 45.630 12.267 C 40.813 14.389 35.508 15.254 30.240 14.778 C 26.525 14.459 7.800 9.832 6.096 9.772 C 6.593 8.495 19.291 1.730 19.291 1.730 L 45.306 2.049 Z " transform="matrix(1, 0, 0, 1, 75, 53)"/>
          <path id="Shape" fill="#F01446" stroke="none" stroke-width="1" d="M 20.288 12.878 L 8.123 10.234 L 9.772 1.929 L 20.202 1.730 L 20.288 12.878 " transform="matrix(1, 0, 0, 1, 75, 53)"/>
          <path id="Shape" fill="#824600" stroke="none" stroke-width="1" d="M 1.594 1.862 C 4.883 0.544 9.613 0.582 13.105 0.905 C 13.368 4.186 13.214 9.415 10.041 11.204 C 7.108 12.845 2.493 11.204 0.547 8.775 C -0.188 6.369 -0.429 3.776 1.594 1.862 Z " transform="matrix(1, 0, 0, 1, 75, 53)"/>
        </g>
        <path id="Shape" fill="#824600" stroke="none" stroke-width="1" d="M 65.159 53.111 C 69.138 51.690 77.530 54.043 77.019 59.181 C 76.507 64.319 71.267 63.925 68.682 63.781 C 64.997 63.576 63.086 61.428 62.869 58.843 C 62.669 56.396 64.042 53.510 65.159 53.111 Z "/>
        <path id="Shape" fill="#FFC800" stroke="none" stroke-width="1" d="M 90.203 58.915 C 90.311 60.856 89.905 61.778 88.456 62.748 C 84.627 63.826 86.076 54.803 89.289 57.147 L 90.203 58.915 Z "/>
        <g id="Face">
          <path id="Shape" fill="#000000" stroke="none" stroke-width="1" d="M 27.076 22.263 C 26.722 21.367 26.634 20.392 26.823 19.450 C 26.992 18.829 27.020 18.176 27.199 17.561 C 27.698 15.841 28.101 14.094 29.026 12.510 C 29.558 11.602 30.029 10.655 30.477 9.708 C 31.095 8.499 31.910 7.396 32.892 6.442 C 33.839 5.457 34.814 4.488 35.778 3.514 C 37.306 2.016 39.181 0.896 41.247 0.248 C 42.514 -0.176 43.797 0.025 45.063 0.248 C 45.649 0.381 46.127 0.790 46.335 1.337 C 46.896 2.529 47.243 3.753 46.795 5.071 C 46.735 5.229 46.692 5.393 46.666 5.560 C 46.369 7.202 45.718 8.764 44.755 10.143 C 43.353 12.289 41.540 14.155 39.415 15.640 C 38.855 16.070 38.294 16.532 37.734 16.995 C 36.529 17.969 35.226 18.822 33.845 19.542 C 32.903 20.050 31.936 20.509 30.942 20.919 C 29.765 21.409 28.555 21.833 27.356 22.280 C 27.294 22.318 27.216 22.285 27.076 22.263 Z " transform="matrix(1, 0, 0, 1, 101, 0)"/>
          <path id="Shape" fill="#824600" stroke="none" stroke-width="1" d="M 24.272 22.809 L 12.783 14.189 L 0.370 34.399 C 1.151 35.863 4.685 37.808 6.109 38.590 C 9.432 40.419 13.686 41.251 17.292 39.804 C 21.486 38.141 23.912 33.390 24.460 29.205 C 24.732 27.127 24.887 24.837 24.272 22.809 Z " transform="matrix(1, 0, 0, 1, 101, 0)"/>
          <path id="Shape" fill="#642800" stroke="none" stroke-width="1" d="M 4.425 26.960 C 4.533 26.824 8.643 19.865 9.370 19.257 C 10.172 19.569 14.651 32.725 14.560 33.322 C 14.117 34.306 13.264 34.380 12.423 34.459 C 12.014 34.505 4.646 27.449 4.425 26.960 Z " transform="matrix(1, 0, 0, 1, 101, 0)"/>
          <path id="Shape" fill="#000000" stroke="none" stroke-width="1" d="M 19.014 34.540 L 19.630 35.450 C 19.192 36.686 18.174 37.665 16.870 38.103 C 15.930 38.463 14.932 38.743 13.881 38.243 L 13.557 37.668 C 13.545 37.584 13.545 37.498 13.557 37.414 C 13.868 36.588 14.516 35.914 15.357 35.540 C 16.047 35.250 16.716 34.910 17.411 34.635 C 18.022 34.420 18.032 34.420 19.014 34.540 Z " transform="matrix(1, 0, 0, 1, 101, 0)"/>
        </g>
        <g id="Hat">
          <path id="Shape" fill="#BE0A3C" stroke="none" stroke-width="1" d="M 3.309 29.117 C 3.309 29.296 2.381 34.479 7.675 36.039 C 8.304 36.248 8.953 36.392 9.611 36.469 C 11.389 36.580 13.174 36.391 14.889 35.910 C 15.215 35.826 17.061 35.306 17.640 35.071 C 19.564 34.248 21.363 33.162 22.986 31.845 C 24.426 30.733 25.598 29.316 26.418 27.697 C 27.031 26.495 27.588 25.259 28.106 24.012 C 28.348 23.453 30.672 16.912 30.615 16.230 L 3.309 29.117 Z " transform="matrix(1, 0, 0, 1, 89, 1)"/>
          <path id="Shape" fill="#F01446" stroke="none" stroke-width="1" d="M 40.643 19.077 C 39.407 12.157 37.766 7.607 31.706 3.628 C 26.423 0.163 20.263 -1.077 14.176 1.087 C 8.199 3.207 4.196 6.954 1.735 12.788 C 0.421 15.905 -0.178 18.789 0.465 22.121 C 0.842 24.092 3.332 29.405 3.332 29.405 L 28.934 21.191 C 28.934 21.191 32.155 25.619 35.116 26.007 C 39.108 26.560 41.281 22.647 40.643 19.077 Z " transform="matrix(1, 0, 0, 1, 89, 1)"/>
          <path id="Shape" fill="#BE0A3C" stroke="none" stroke-width="1" d="M 14.989 19.245 C 15.929 21.406 15.389 24.040 12.457 25.031 C 10.358 25.746 7.680 25.329 6.707 23.123 C 5.368 20.100 7.444 18.029 10.004 17.421 C 11.540 17.055 14.044 17.077 14.989 19.245 Z " transform="matrix(1, 0, 0, 1, 89, 1)"/>
          <path id="Shape" fill="#6E1E3C" stroke="none" stroke-width="1" d="M 37.712 19.456 C 37.688 19.648 37.653 19.839 37.606 20.027 C 37.373 20.899 37.094 21.737 36.136 22.051 C 35.022 22.433 34.030 22.456 33.100 21.692 C 32.769 21.436 32.467 21.143 32.198 20.819 C 31.716 20.243 31.526 19.468 31.685 18.726 C 31.797 18.070 32.029 17.441 32.371 16.873 C 33.071 16.248 34.049 16.062 34.922 16.388 C 36.470 16.958 36.949 17.472 37.712 19.456 Z " transform="matrix(1, 0, 0, 1, 89, 1)"/>
        </g>
        <g id="Left-Leg">
          <path id="Shape" fill="#F01446" stroke="none" stroke-width="1" d="M 36.954 0.054 C 36.915 -0.035 23.928 31.405 19.945 39.879 C 20.980 42.159 26.914 47.609 29.023 49.716 C 32.110 47.253 41.042 39.251 43.979 36.560 L 53.851 27.507 C 59.444 22.386 64.992 17.220 70.630 12.149 C 70.446 11.693 37.122 0.471 36.954 0.054 Z " transform="matrix(1, 0, 0, 1, 50, 79)"/>
          <path id="Shape" fill="#FFC800" stroke="none" stroke-width="1" d="M 52.011 5.122 C 53.059 5.873 54.388 6.175 55.425 6.915 C 52.732 12.678 44.115 21.276 40.347 26.366 C 36.342 31.781 32.540 37.672 27.916 42.622 L 26.069 41.473 C 25.573 39.836 29.662 35.497 30.575 34.129 C 32.591 31.142 34.636 28.182 36.770 25.262 C 40.769 19.729 47.596 10.307 52.011 5.122 Z " transform="matrix(1, 0, 0, 1, 50, 79)"/>
          <path id="Shape" fill="#6E1E3C" stroke="none" stroke-width="1" d="M 21.053 37.554 C 21.053 37.554 7.759 64.645 4.931 68.944 C 4.264 68.944 0.859 68.423 0.685 69.331 C 1.246 69.981 3.568 69.757 4.954 69.864 C 6.991 70.027 9.037 70.027 11.074 69.864 C 13.727 66.500 32.110 49.370 32.110 49.370 L 21.053 37.554 Z " transform="matrix(1, 0, 0, 1, 50, 79)"/>
          <path id="Shape" fill="#F0E6D2" stroke="none" stroke-width="1" d="M 36.164 47.344 C 31.024 41.757 21.735 31.574 21.507 31.473 C 20.785 32.346 17.165 40.434 16.904 41.447 C 17.051 41.661 24.602 48.606 29.726 53.770 C 31.925 51.799 34.965 49.141 36.164 47.344 Z " transform="matrix(1, 0, 0, 1, 50, 79)"/>
          <path id="Shape" fill="#F0E6D2" stroke="none" stroke-width="1" d="M 15.697 42.622 L 14.877 44.616 L 26.675 55.797 C 27.245 55.169 27.719 54.784 28.055 54.316 C 22.657 48.851 15.697 42.622 15.697 42.622 Z " transform="matrix(1, 0, 0, 1, 50, 79)"/>
        </g>
        <g id="Belt">
          <path id="Rectangle-path" fill="#6E1E3C" stroke="none" stroke-width="1" d="M 0.073 6.122 L 37.580 6.122 L 37.580 11.189 L 0.073 11.189 L 0.073 6.122 " transform="matrix(0.9567120671272278, 0.2910361588001251, -0.2910361588001251, 0.9567120671272278, 88.3, 70.85)"/>
          <path id="Rectangle-path" fill="#F01446" stroke="none" stroke-width="1" d="M 23.443 8.171 L 31.552 8.171 L 31.552 15.265 L 23.443 15.265 L 23.443 8.171 " transform="matrix(0.9534541964530945, 0.30153796076774597, -0.30153796076774597, 0.9534541964530945, 89.8, 68.25)"/>
          <path id="Rectangle-path" fill="#F01446" stroke="none" stroke-width="1" d="M 3.120 1.028 L 6.161 1.028 L 6.161 8.123 L 3.120 8.123 L 3.120 1.028 " transform="matrix(0.9534541964530945, 0.30153796076774597, -0.30153796076774597, 0.9534541964530945, 86.55, 74.8)"/>
          <path id="Rectangle-path" fill="#F01446" stroke="none" stroke-width="1" d="M 10.219 4.118 L 13.260 4.118 L 13.260 11.212 L 10.219 11.212 L 10.219 4.118 " transform="matrix(0.9534541964530945, 0.30153796076774597, -0.30153796076774597, 0.9534541964530945, 87.85, 72.8)"/>
        </g>
        <path id="Shape" fill="#F01446" stroke="none" stroke-width="1" d="M 110.493 54.358 C 110.493 54.358 114.298 50.142 116.330 48.251 C 118.536 46.200 121.089 43.865 124.187 43.613 C 130.771 43.010 131.910 51.211 131.770 55.169 C 130.894 58.102 130.288 60.931 128.038 63.206 C 125.787 65.481 117.677 69.932 117.677 69.932 L 110.493 54.358 Z "/>
      </g>
    </g>
  </g>
</svg>