<svg version="1.1" width="53" height="80" xmlns="http://www.w3.org/2000/svg" xmlns:xlink="http://www.w3.org/1999/xlink">
  <!-- Exported by Scratch - http://scratch.mit.edu/ -->
  <g id="ID0.768292773514986">
    <path id="ID0.19634276255965233" fill="#FF9400" d="M 329 359 C 327.325 360.659 328.204 364.871 328 368 C 316.693 368.048 308.002 370.511 300 369 C 298.680 372.913 299.444 377.363 299 384 C 308.642 384.064 315.733 383.150 326 382 C 328.105 384.224 324.946 386.822 326 391 C 315.027 391.514 307.715 390.374 299 392 C 300.953 397.714 299.605 406.729 300 414 C 309.280 412.613 319.484 412.151 328 410 C 328.281 413.386 329.591 415.742 329 420 C 315.217 420.812 304 420.971 292 425 C 291.470 402.935 292.760 382.584 289 361 C 301.394 356.493 312.584 360.992 329 359 Z " transform="matrix(0.9613259434700012, 0, 0, 0.9613259434700012, -268.2, -340.15)"/>
    <path id="ID0.303032043389976" d="M 323 355 C 326.330 354.994 329.822 354.348 333 355 C 333.652 356.263 333 358.333 333 360 C 332.667 360 332.333 360 332 360 C 330.502 363.168 331.498 368.832 330 372 C 323.941 370.923 325.514 374.579 324 376 L 304.250 377.250 C 302.212 377.706 303.501 376.338 302 380 C 311.490 382.387 318.704 376.826 329 378 C 331.467 386.386 327.299 394.313 324 400 C 315.733 399.733 308.518 400.518 303 403 C 303 405.333 303 407.667 303 410 C 312.786 409.119 323.042 408.709 331 406 C 334.144 417.160 328.404 421.502 329 429 C 314.325 431.659 296.364 431.030 285 437 C 284.333 437 283.667 437 283 437 C 280.073 409.460 288.891 390.562 279 368 C 279 367.333 279 366.667 279 366 C 285.864 366.864 286.196 361.196 288 357 C 292.106 355.772 297.995 356.218 302 355 C 310.064 355.597 316.531 355.059 323 355 Z M 289 361 C 292.760 382.584 291.470 402.935 292 425 C 304 420.971 315.217 420.812 329 420 C 329.591 415.742 328.281 413.386 328 410 C 319.484 412.151 309.280 412.613 300 414 C 299.605 406.729 300.953 397.714 299 392 C 307.715 390.374 315.027 391.514 326 391 C 324.946 386.822 328.105 384.224 326 382 C 315.733 383.150 308.642 384.064 299 384 C 299.444 377.363 298.680 372.913 300 369 C 308.002 370.511 316.693 368.048 328 368 C 328.204 364.871 327.325 360.659 329 359 C 312.584 360.992 301.394 356.493 289 361 Z " transform="matrix(0.9613259434700012, 0, 0, 0.9613259434700012, -268.2, -340.15)"/>
  </g>
</svg>