<svg width="175px" height="300px" viewBox="0 0 175 300" version="1.1" xml:space="preserve" xmlns="http://www.w3.org/2000/svg" xmlns:xlink="http://www.w3.org/1999/xlink">
  <defs/>
  <g>
    <title>wizard-c</title>
    <desc>Created with Sketch.</desc>
    <g id="wizard-c" stroke="none" stroke-width="1" fill="none" fill-rule="evenodd">
      <g id="Wizard-Angry" transform="translate(87.500000, 150.500000) scale(-1, 1) translate(-87.500000, -150.500000) translate(8.000000, 5.000000)" fill-rule="nonzero">
        <path d="M35,130.6 C35,130.6 35.3,130.7 35.6,130.9 C35.9,131.1 36.4,131.4 36.7,131.9 C36.9,132.1 36.9,132.5 36.9,132.8 C36.9,133 36.8,133.1 36.7,133.2 C36.6,133.3 36.5,133.4 36.5,133.4 C36.3,133.5 36.2,133.6 36.1,133.6 C36,133.6 35.9,133.7 35.9,133.7 C35.9,133.7 35.9,133.7 36,133.6 C36.1,133.5 36.2,133.4 36.3,133.3 C36.4,133.2 36.5,133 36.5,132.8 C36.5,132.7 36.5,132.6 36.4,132.6 C36.4,132.5 36.3,132.4 36.2,132.4 C36.1,132.2 35.9,132.1 35.8,132 C35.6,131.9 35.5,131.7 35.3,131.7 C35,131.5 34.8,131.4 34.8,131.4 L35,130.6 Z" id="Shape" fill="#A95947"/>
        <g id="Group" transform="translate(0.000000, 81.000000)">
          <g transform="translate(0.000000, 36.000000)" id="Shape">
            <g>
              <path d="M15.5,15.7 L19.7,15.9 L22.8,3.6 C22.8,3.6 22.2,3.6 21.2,3.5 C19.9,3.3 17.3,2.9 15.3,1.9 C13.5,1.1 12,1.7 12.7,3.3 C12.6,3.3 4.1,0.4 1.7,0.7 C0.6,0.9 -0.7,3.7 9.9,5.6 C9.9,5.6 7.9,6.5 9.2,8.8 C9.2,8.8 8,10.7 9.1,12.6 C9.1,12.6 8.6,13.9 11,15.6 C12.4,16.6 14.7,17.5 15.5,15.7 Z" fill="#C5886B"/>
              <g transform="translate(12.000000, 1.000000)">
                <path d="M3.2,3.8 C10.5,7.3 8.9,4.5 9,3.3 C9,3 8.9,2.8 8.7,2.5 C7.3,2.3 5,1.9 3.2,1 C1.4,0.2 -0.1,0.8 0.6,2.4 C1.2,3 2.1,3.2 3.2,3.8 Z" fill="#C5886B"/>
                <path d="M0.5,1.7 C0.5,2.1 0.8,2.5 1.1,2.7 C1.4,3 1.8,3.2 2.2,3.3 C2.6,3.5 3,3.7 3.4,3.8 C3.8,4 4.2,4.1 4.6,4.2 L4.8,4.3 L4.8,4.5 C5,5.3 5.2,6.1 5.6,6.9 C5.9,7.7 6.3,8.4 7,9 C6.6,8.8 6.3,8.5 6,8.2 C5.7,7.9 5.5,7.5 5.3,7.1 C4.9,6.3 4.6,5.5 4.3,4.7 L4.5,4.9 C3.7,4.6 2.8,4.3 2,3.9 C1.8,3.8 1.6,3.6 1.4,3.5 C1.2,3.4 1.1,3.2 0.9,3 C0.8,2.8 0.6,2.6 0.5,2.4 C0.4,2.1 0.4,1.9 0.5,1.7 Z" fill="#A95947"/>
              </g>
              <path d="M11.4,5.9 C11.4,5.9 10.7,5.9 9.5,5.8 C8.4,5.7 6.9,5.5 5.5,5.1 C4.1,4.7 2.7,4 1.8,3.2 C1.4,2.8 1.2,2.3 1.1,2 C1,1.7 1.1,1.5 1,1.5 C1,1.5 1,1.7 1.2,2 C1.3,2.3 1.6,2.6 2.1,2.9 C3,3.5 4.3,4.1 5.7,4.5 C7.1,4.9 8.5,5.2 9.6,5.5 C10.6,5.7 11.4,5.9 11.4,5.9 Z" fill="#A95947"/>
            </g>
            <g transform="translate(8.000000, 5.000000)">
              <path d="M5.1,8.9 C6.7,8.9 7.7,8.2 7.6,7.7 C7.5,6.4 5,6.3 3.7,6 C2.4,5.7 2.5,5 2.5,5 C5.1,6.2 7.2,5.1 7.3,4.8 C7.5,4 7.7,3 3.6,2.2 C2.9,2.1 2.7,0.9 1.8,0.7 C1.5,0.6 -0.1,1.7 1.2,3.9 C1.2,3.9 1.55431223e-15,5.8 1.1,7.7 C1.1,7.7 0.6,9 3,10.7 C4.3,11.6 6.5,12.5 7.4,10.9 C7.4,10.7 7.4,10.5 7.4,10.3 C7.2,9.2 5.8,8.9 5.1,8.9 Z" fill="#C5886B"/>
              <path d="M3.1,2.6 C3.1,2.6 4,2.5 5.2,2.7 C5.5,2.7 5.9,2.8 6.2,2.9 C6.6,3 6.9,3.2 7.3,3.5 C7.5,3.6 7.7,3.8 7.7,4.1 C7.8,4.4 7.7,4.7 7.6,4.9 C7.3,5.4 6.8,5.5 6.4,5.7 C6,5.8 5.5,5.9 5.1,5.9 C4.9,5.9 4.7,5.9 4.5,5.9 C4.3,5.9 4.1,5.8 3.9,5.8 C3.5,5.7 3.1,5.6 2.8,5.4 C2.5,5.2 2.2,5 1.9,4.8 C1.4,4.3 1.2,3.8 1,3.5 C0.9,3.1 0.9,2.9 0.9,2.9 C0.9,2.9 1,3.1 1.2,3.4 C1.4,3.7 1.7,4.1 2.2,4.5 C2.4,4.7 2.7,4.8 3,5 C3.3,5.1 3.7,5.2 4,5.3 C4.2,5.3 4.4,5.4 4.6,5.4 C4.8,5.4 5,5.4 5.2,5.4 C5.6,5.4 6,5.3 6.4,5.2 C6.8,5.1 7.1,4.9 7.3,4.7 C7.5,4.5 7.4,4.3 7.1,4 C6.6,3.5 5.8,3.3 5.3,3.1 C4.7,2.9 4.2,2.8 3.8,2.7 C3.3,2.6 3.1,2.6 3.1,2.6 Z" fill="#A95947"/>
              <path d="M0.6,5.9 C0.6,5.9 0.6,6.1 0.7,6.5 C0.8,6.9 1,7.4 1.5,7.9 C1.7,8.1 2,8.3 2.4,8.4 C2.7,8.5 3.1,8.5 3.6,8.6 C4.5,8.6 5.4,8.6 6.2,8.5 C6.6,8.4 7.1,8.3 7.2,8.1 C7.3,7.9 7.3,7.5 7,7.3 C6.8,7.1 6.3,6.9 6,6.8 C5.6,6.7 5.3,6.6 4.9,6.5 C4.2,6.4 3.7,6.3 3.3,6.2 C3,6 2.7,6 2.7,6 C2.7,6 3.6,5.9 5,6 C5.4,6 5.7,6.1 6.1,6.2 C6.5,6.3 6.9,6.4 7.4,6.7 C7.5,6.8 7.6,6.9 7.7,7 C7.8,7.2 7.8,7.3 7.9,7.4 C8,7.7 8,8 7.8,8.3 C7.4,8.9 6.8,8.9 6.4,9 C5.4,9.1 4.5,9.1 3.6,9.1 C3.2,9.1 2.7,9 2.3,8.8 C1.9,8.7 1.6,8.4 1.3,8.1 C0.8,7.5 0.7,6.9 0.6,6.5 C0.6,6.1 0.6,5.9 0.6,5.9 Z" fill="#A95947"/>
            </g>
          </g>
          <g transform="translate(18.000000, 35.000000)" id="Shape">
            <path d="M49.8,9.3 C48.4,4.7 46.5,1.7 41.2,0.9 C35.9,0.2 29.5,2.7 24.7,3.7 C19.8,4.8 4.3,2.3 4.3,2.3 C-3.8,10.2 4.5,27.6 4.5,27.6 C4.5,27.6 25.6,26.5 44.3,20.4 C49.1,18.8 51.4,14.2 49.8,9.3 Z" fill="#224363"/>
            <path d="M41.6,1 C41.6,1 41.3,1 40.7,1 C40.2,1 39.4,1.1 38.5,1.1 C37.6,1.2 36.5,1.3 35.4,1.6 C34.3,1.8 33.1,2.1 31.9,2.4 C30.7,2.7 29.5,3.1 28.4,3.4 C27.9,3.6 27.3,3.8 26.8,3.9 C26.3,4.1 25.8,4.3 25.4,4.4 C24.5,4.7 23.8,5 23.3,5.2 C22.8,5.4 22.5,5.5 22.5,5.5 C22.5,5.5 22.8,5.3 23.2,5.1 C23.7,4.8 24.3,4.4 25.2,4 C26,3.6 27,3.1 28.1,2.7 C29.2,2.3 30.4,1.9 31.6,1.6 C32.8,1.3 34.1,1 35.2,0.9 C36.4,0.7 37.5,0.7 38.4,0.6 C39.3,0.6 40.1,0.6 40.7,0.7 C41.3,0.9 41.6,1 41.6,1 Z" fill="#1A324A"/>
            <path d="M20,4.1 C17.4,4.1 14.7,3.9 12.1,3.7 C10.8,3.6 9.5,3.4 8.2,3.2 C6.9,3 5.6,2.8 4.3,2.6 L4.6,2.5 C4.2,2.9 3.8,3.4 3.4,3.9 C3.1,4.4 2.7,4.9 2.5,5.5 C2.2,6 2,6.6 1.8,7.2 C1.6,7.8 1.5,8.4 1.3,9 C1.2,9.6 1.1,10.2 1,10.8 C0.9,11.4 0.9,12 1,12.7 C1,13.3 1.1,13.9 1.1,14.6 C1.1,14.9 1.2,15.2 1.2,15.5 L1.3,16.4 C1.1,15.8 1,15.2 0.8,14.6 C0.7,14 0.6,13.4 0.5,12.7 C0.4,12.1 0.4,11.4 0.5,10.8 C0.5,10.2 0.6,9.5 0.7,8.9 L0.9,8 C1,7.7 1.1,7.4 1.2,7.1 C1.4,6.5 1.6,5.9 1.9,5.3 C2.2,4.7 2.5,4.2 2.8,3.6 C3.2,3.1 3.6,2.6 4,2.1 L4.1,2 L4.3,2 C5.6,2.2 6.9,2.4 8.2,2.6 L12.1,3.2 C14.8,3.5 17.4,3.8 20,4.1 Z" fill="#1A324A"/>
            <path d="M39.2,21.8 C39.2,21.8 38.7,22 37.8,22.3 C36.9,22.6 35.6,23.1 34,23.5 C32.4,23.9 30.5,24.4 28.5,24.8 C26.5,25.2 24.3,25.6 22.1,25.9 C19.9,26.2 17.7,26.5 15.7,26.7 C13.6,26.9 11.7,27.1 10.1,27.2 C8.5,27.3 7.1,27.4 6.1,27.4 C5.1,27.4 4.6,27.5 4.6,27.5 C4.6,27.5 6.8,27.2 10.1,26.9 C11.7,26.7 13.6,26.5 15.7,26.2 C17.7,25.9 19.9,25.7 22.1,25.3 C24.3,25 26.4,24.6 28.5,24.3 C30.5,23.9 32.4,23.6 34,23.2 C35.6,22.8 36.9,22.5 37.9,22.2 C38.7,22 39.2,21.8 39.2,21.8 Z" fill="#1A324A"/>
          </g>
          <g transform="translate(50.000000, 0.000000)" id="Shape">
            <path d="M17.1,52 C22.8,47.5 39.1,12.4 36.8,6.5 C34.3,0.1 25.3,-3 18.7,5.3 C13.6,11.8 8.8,25.9 6.6,31 C4.4,36 4.8,34.6 2.3,37.8 C-0.2,40.9 0.3,41.8 0.4,43.1 C0.5,44.4 2.7,47.6 7.1,50.3 C11.4,53 14,54.4 17.1,52 Z" fill="#224363"/>
            <path d="M13.1,53.1 C13.1,53.1 13.2,53.2 13.4,53.2 C13.6,53.3 13.9,53.3 14.3,53.2 C14.5,53.2 14.7,53.1 15,53 C15.2,52.9 15.5,52.8 15.7,52.6 C16.2,52.3 16.7,51.9 17.2,51.4 C17.7,50.9 18.3,50.4 18.8,49.7 C19.3,49.1 19.8,48.4 20.3,47.6 C20.8,46.9 21.3,46.1 21.8,45.3 C22.3,44.5 22.8,43.7 23.2,42.8 C23.7,42 24.1,41.1 24.6,40.3 C25,39.5 25.5,38.6 25.9,37.8 C26.3,37 26.7,36.2 27,35.5 C27.4,34.8 27.7,34.1 28,33.4 C29.2,30.8 30,29.1 30,29.1 C30,29.1 29.3,30.9 28.3,33.6 C28,34.3 27.7,35 27.4,35.7 C27.1,36.5 26.7,37.3 26.4,38.1 C26,38.9 25.6,39.7 25.2,40.6 C24.8,41.5 24.3,42.3 23.9,43.1 C23.4,43.9 23,44.8 22.4,45.6 C21.9,46.4 21.4,47.2 20.8,47.9 C20.3,48.6 19.7,49.3 19.2,49.9 C18.7,50.5 18.1,51.1 17.5,51.6 C16.9,52 16.4,52.5 15.8,52.7 C15.5,52.9 15.3,52.9 15,53 C14.8,53.1 14.5,53.1 14.3,53.1 C13.9,53.2 13.5,53.1 13.3,53 C13.2,53.2 13.1,53.1 13.1,53.1 Z" fill="#1A324A"/>
            <path d="M9.8,23.1 C9.8,23.1 9.3,24.6 8.5,26.9 C7.6,29.1 6.5,32.1 4.9,35 C4.7,35.4 4.5,35.7 4.2,36 C4,36.3 3.6,36.7 3.3,36.9 C2.7,37.4 2.3,38 1.9,38.6 C1.1,39.8 0.6,41.1 0.5,42.3 C0.4,43.5 0.8,44.4 1.2,45 C1.6,45.6 1.9,45.8 1.9,45.8 C1.9,45.8 1.8,45.7 1.7,45.6 C1.6,45.5 1.3,45.3 1.1,45 C0.9,44.7 0.6,44.4 0.4,43.9 C0.2,43.4 0.1,42.9 0.1,42.2 C0.1,40.9 0.6,39.5 1.4,38.2 C1.8,37.6 2.3,36.9 2.9,36.4 C3.2,36.1 3.5,35.9 3.7,35.6 C3.9,35.3 4.1,35 4.3,34.6 C5.1,33.2 5.8,31.8 6.4,30.4 C7,29.1 7.6,27.8 8.1,26.7 C9.1,24.5 9.8,23.1 9.8,23.1 Z" fill="#1A324A"/>
          </g>
        </g>
        <g id="Group" transform="translate(53.000000, 132.000000)">
          <g transform="translate(39.000000, 139.000000)" id="Shape">
            <path d="M11.6,5.2 C11.6,5.2 6.4,10.7 3.4,12.1 C0.4,13.5 -1.3,18 2.2,19.2 C6.2,20.5 24.2,18.7 27.7,12.6 C31.2,6.4 20.4,-2.3 11.6,5.2 Z" fill="#382A1E"/>
            <path d="M11.6,3.4 C11.6,3.4 7.3,8.9 4.3,10.3 C1.3,11.7 -1.8,16.6 2.3,17.4 C6.4,18.1 24.3,16.9 27.8,10.8 C31.3,4.7 20.5,-4.1 11.6,3.4 Z" fill="#4D3A29"/>
            <path d="M7.3,8.6 C7.3,8.6 7.4,8.5 7.5,8.5 C7.6,8.5 7.9,8.4 8.1,8.5 C8.6,8.6 9.2,9 9.7,9.5 C10.2,10 10.5,10.5 10.8,11 C11,11.4 11.1,11.8 11.1,11.8 C11.1,11.8 10.8,11.6 10.5,11.3 C10.1,11 9.7,10.5 9.3,10.1 C9.1,9.9 8.9,9.7 8.6,9.5 C8.4,9.3 8.2,9.1 8,9 C7.7,8.6 7.3,8.6 7.3,8.6 Z" fill="#382A1E"/>
            <path d="M9.4,6.6 C9.4,6.6 9.5,6.5 9.6,6.5 C9.7,6.5 10,6.4 10.2,6.5 C10.7,6.6 11.3,7 11.8,7.5 C12.3,8 12.6,8.5 12.9,9 C13.1,9.4 13.2,9.8 13.2,9.8 C13.2,9.8 12.9,9.6 12.6,9.3 C12.2,9 11.8,8.5 11.4,8.1 C11.2,7.9 11,7.7 10.7,7.5 C10.5,7.3 10.3,7.1 10.1,7 C9.7,6.5 9.4,6.6 9.4,6.6 Z" fill="#382A1E"/>
          </g>
          <g transform="translate(12.000000, 120.000000)" id="Shape">
            <g transform="translate(0.000000, 16.000000)">
              <path d="M12.3,5 C12.3,5 7.1,10.5 4.1,11.9 C1.1,13.3 -0.6,17.8 2.9,19 C6.9,20.3 24.9,18.5 28.4,12.4 C31.9,6.3 21.1,-2.4 12.3,5 Z" fill="#382A1E"/>
              <path d="M12.3,3.2 C12.3,3.2 8,8.7 5,10.1 C2,11.5 -1.1,16.4 3,17.2 C7.1,17.9 25,16.7 28.5,10.6 C31.9,4.4 21.2,-4.2 12.3,3.2 Z" fill="#4D3A29"/>
              <path d="M8,8.5 C8,8.5 8.1,8.4 8.2,8.4 C8.3,8.4 8.6,8.3 8.8,8.4 C9.3,8.5 9.9,8.9 10.4,9.4 C10.9,9.9 11.2,10.4 11.5,10.9 C11.7,11.3 11.8,11.7 11.8,11.7 C11.8,11.7 11.5,11.5 11.2,11.2 C10.8,10.9 10.4,10.4 10,10 C9.8,9.8 9.6,9.6 9.3,9.4 C9.1,9.2 8.9,9 8.7,8.9 C8.3,8.4 8,8.5 8,8.5 Z" fill="#382A1E"/>
              <path d="M10,6.4 C10,6.4 10.1,6.3 10.2,6.3 C10.3,6.3 10.6,6.2 10.8,6.3 C11.3,6.4 11.9,6.8 12.4,7.3 C12.9,7.8 13.2,8.3 13.5,8.8 C13.7,9.2 13.8,9.6 13.8,9.6 C13.8,9.6 13.5,9.4 13.2,9.1 C12.8,8.8 12.4,8.3 12,7.9 C11.8,7.7 11.6,7.5 11.3,7.3 C11.1,7.1 10.9,6.9 10.7,6.8 C10.4,6.4 10,6.4 10,6.4 Z" fill="#382A1E"/>
            </g>
            <path d="M15.3,22.1 C15.3,22.1 21.3,24.9 28.9,23 L29.8,0.3 L13.8,2.9 L15.3,22.1 Z" fill="#382A1E"/>
          </g>
          <g id="Shape">
            <g>
              <polygon fill="#1C3752" points="46.6 149.3 44.5 138.1 28.8 134.5 28.4 148.7 18.4 146.6 12.8 138.7 21.4 123.1 44.3 124.8 56.8 140"/>
              <path d="M18.2,8.6 C18.2,8.6 12.5,17.4 12,42.9 C11.5,68.4 7.1,131.2 0.7,140.5 C0.7,140.5 3.2,153.2 26.2,149.8 C35.5,148.4 10.7,144.6 17.9,139.8 C25.1,135 53.8,143.5 48.3,147.1 C42.8,150.8 51.3,154 67,151.9 C82.7,149.8 85,154.1 93.1,152.7 C109.3,149.9 104.6,142.2 104.6,142.2 C104.6,142.2 92.8,131.4 91.2,111.8 C89.6,92.2 75.6,14.3 65.7,8 C54.5,0.8 30.1,-5.1 18.2,8.6 Z" fill="#264A6E"/>
              <path d="M16.8,141.3 C16.8,141.3 17.1,140.1 17.5,137.9 C18,135.8 18.5,132.7 19.3,129 C20,125.3 20.8,121 21.5,116.4 C22.3,111.8 23,106.8 23.7,101.9 C24,99.4 24.4,96.9 24.6,94.5 C24.9,92.1 25.2,89.7 25.4,87.3 C25.6,85 25.9,82.7 26,80.6 C26.1,78.5 26.3,76.4 26.4,74.6 C26.5,72.7 26.6,71 26.6,69.5 C26.7,68 26.6,66.7 26.7,65.6 C26.7,63.4 26.7,62.2 26.7,62.2 C26.7,62.2 26.7,63.5 26.8,65.6 C26.8,66.7 26.9,68 26.9,69.5 C26.9,71 26.8,72.7 26.8,74.6 C26.8,76.5 26.6,78.5 26.5,80.7 C26.4,82.9 26.2,85.1 26,87.4 C25.8,89.7 25.5,92.1 25.3,94.6 C25.1,97.1 24.7,99.5 24.4,102 C23.7,107 22.9,111.9 22.1,116.5 C21.3,121.1 20.4,125.4 19.7,129.1 C18.9,132.8 18.2,135.8 17.7,137.9 C17.1,140 16.8,141.3 16.8,141.3 Z" fill="#1A324A"/>
              <path d="M49.1,145.8 C49.1,145.8 48.7,143 48.3,138.9 C48.1,136.8 47.8,134.4 47.6,131.8 C47.4,129.2 47.2,126.4 47,123.6 C46.8,120.8 46.7,118 46.6,115.4 C46.5,112.8 46.5,110.4 46.5,108.3 C46.5,107.3 46.5,106.3 46.5,105.4 C46.5,104.6 46.5,103.8 46.6,103.2 C46.7,102 46.7,101.3 46.7,101.3 C46.7,101.3 46.7,102 46.7,103.2 C46.7,103.8 46.7,104.5 46.7,105.4 C46.7,106.2 46.8,107.2 46.8,108.2 C46.9,110.3 47,112.7 47.1,115.3 C47.2,117.9 47.4,120.7 47.6,123.5 C47.8,126.3 47.9,129.1 48.1,131.7 C48.3,134.3 48.4,136.7 48.6,138.8 C48.9,143 49.1,145.8 49.1,145.8 Z" fill="#1A324A"/>
              <path d="M63.8,16.8 C63.8,16.8 63.9,16.9 64.1,17.1 C64.3,17.3 64.6,17.7 64.9,18.1 C65.2,18.6 65.5,19.2 65.9,19.9 C66.1,20.3 66.2,20.6 66.4,21 C66.6,21.4 66.7,21.8 66.9,22.3 C67.3,23.2 67.6,24.2 67.9,25.3 C68.2,26.4 68.6,27.5 68.9,28.7 C69.2,29.9 69.5,31.1 69.8,32.3 C70.1,33.5 70.4,34.8 70.6,36.1 C71.1,38.6 71.5,41.2 71.8,43.6 C72,44.8 72.1,46 72.3,47.1 C72.4,48.2 72.6,49.2 72.7,50.2 C73.1,54 73.3,56.6 73.3,56.6 C73.3,56.6 72.9,54.1 72.4,50.2 C72.1,48.3 71.8,46.1 71.4,43.7 C71.2,42.5 71,41.3 70.8,40 C70.6,38.8 70.3,37.5 70.1,36.2 C69.9,34.9 69.6,33.7 69.4,32.4 C69.2,31.2 68.8,30 68.6,28.8 C68.3,27.6 68,26.5 67.7,25.4 C67.4,24.3 67.1,23.3 66.8,22.4 C66.5,21.5 66.2,20.7 65.9,19.9 C65.6,19.2 65.3,18.6 65,18.1 C64.7,17.6 64.5,17.2 64.3,17 C63.9,16.9 63.8,16.8 63.8,16.8 Z" fill="#1A324A"/>
              <path d="M35.3,16.8 C35.3,16.8 34.9,17.2 34.4,18 C33.9,18.8 33.2,20 32.5,21.6 C32.1,22.4 31.8,23.2 31.5,24.1 C31.2,25 30.9,26 30.6,27 C30.3,28 30,29 29.8,30.1 C29.7,30.6 29.6,31.2 29.4,31.7 L29.1,33.3 C28.9,34.4 28.7,35.5 28.6,36.6 C28.5,37.1 28.4,37.7 28.4,38.2 C28.3,38.7 28.3,39.3 28.2,39.8 C28.1,40.8 28,41.8 27.9,42.8 C27.8,43.8 27.8,44.7 27.7,45.5 C27.6,47.2 27.6,48.6 27.5,49.6 C27.5,50.6 27.4,51.1 27.4,51.1 C27.4,51.1 27.4,50.5 27.4,49.6 C27.4,48.6 27.3,47.2 27.4,45.5 C27.4,44.7 27.5,43.7 27.5,42.8 C27.5,41.8 27.6,40.8 27.7,39.8 C27.7,39.3 27.8,38.7 27.8,38.2 C27.9,37.7 27.9,37.1 28,36.6 C28.1,35.5 28.3,34.4 28.5,33.3 L28.8,31.6 C28.9,31.1 29.1,30.5 29.2,30 C29.4,28.9 29.8,27.9 30.1,26.9 C30.4,25.9 30.8,24.9 31.1,24 C31.5,23.1 31.8,22.3 32.2,21.5 C32.6,20.7 33,20.1 33.3,19.5 C33.7,18.9 34,18.4 34.3,18 C34.6,17.6 34.9,17.3 35,17.1 C35.2,16.9 35.3,16.8 35.3,16.8 Z" fill="#1A324A"/>
            </g>
            <g transform="translate(15.000000, 7.000000)">
              <path d="M1.5,1.2 C1.5,1.2 -1.2,3.9 1.3,5.2 C7.4,8.3 17.2,9.4 29.8,9.5 C42.4,9.5 56.9,8.4 54.5,1.3 C53.8,-0.7 52.7,3.7 48,4.5 C43.2,5.3 18.6,7 10.2,4.1 C1.8,1.1 3.1,0.5 1.5,1.2 Z" fill="#4D3A29"/>
              <path d="M54.5,1.2 C54.5,1.2 54.7,1.6 54.8,2.4 C54.8,2.8 54.8,3.3 54.7,3.9 C54.6,4.5 54.3,5.1 53.8,5.6 C53.3,6.1 52.6,6.5 51.9,6.8 C51.2,7.1 50.4,7.5 49.6,7.7 C48,8.2 46.2,8.7 44.4,8.9 C42.6,9.2 40.8,9.3 39.1,9.4 C37.4,9.5 35.8,9.5 34.4,9.5 C33,9.5 31.9,9.5 31.1,9.4 C30.3,9.4 29.9,9.3 29.9,9.3 C29.9,9.3 31.7,9.2 34.4,9.1 C35.8,9 37.3,8.9 39,8.8 C40.7,8.7 42.5,8.5 44.3,8.2 C46.1,7.9 47.8,7.6 49.5,7.1 C50.3,6.8 51.1,6.6 51.8,6.3 C52.5,6 53.2,5.7 53.7,5.3 C54.7,4.4 54.9,3.2 54.9,2.4 C54.6,1.6 54.5,1.2 54.5,1.2 Z" fill="#33221B"/>
              <path d="M0.6,2.4 C0.6,2.4 0.4,2.6 0.3,3.1 C0.3,3.3 0.3,3.6 0.4,3.9 C0.5,4.2 0.7,4.5 1,4.7 C1.3,5 1.6,5.2 2.1,5.4 C2.5,5.6 2.9,5.8 3.4,5.9 C4.4,6.2 5.4,6.5 6.5,6.8 C7.5,7.1 8.6,7.3 9.6,7.5 C10.6,7.7 11.5,7.9 12.3,8.1 C13.9,8.4 15,8.7 15,8.7 C15,8.7 13.9,8.7 12.3,8.5 C11.5,8.4 10.5,8.3 9.5,8.1 C8.5,7.9 7.4,7.7 6.4,7.4 C5.3,7.1 4.3,6.8 3.3,6.4 C2.8,6.2 2.3,6 1.9,5.8 C1.5,5.6 1.1,5.3 0.8,5 C0.5,4.7 0.3,4.3 0.2,4 C0.1,3.6 0.2,3.3 0.3,3.1 C0.4,2.9 0.5,2.7 0.6,2.6 C0.5,2.4 0.6,2.4 0.6,2.4 Z" fill="#33221B"/>
            </g>
          </g>
        </g>
        <g id="Group" transform="translate(65.000000, 73.000000)">
          <g id="Shape">
            <path d="M43.5,1.9 C43.5,1.9 55.1,6.3 59,17.9 C62.9,29.5 60.1,63.5 56.9,68.1 C51.9,75.4 30.5,75.9 18.6,71.1 C18.6,71.1 13.1,72.5 5.6,69.9 C-1.9,67.3 -1,26.7 6.2,15.9 C13.4,5.1 32.2,-1.9 43.5,1.9 Z" fill="#264A6E"/>
            <path d="M13.1,66.8 C13.1,66.8 13.3,67 13.7,67.4 C13.9,67.6 14.1,67.8 14.4,68 C14.7,68.2 15,68.5 15.4,68.8 C15.8,69.1 16.2,69.4 16.6,69.6 C17,69.9 17.5,70.1 18,70.4 C18.5,70.7 19.1,70.9 19.6,71.2 C20.2,71.4 20.7,71.7 21.3,71.9 C21.9,72.1 22.5,72.3 23,72.5 C23.6,72.7 24.2,72.8 24.7,73 C25.3,73.1 25.8,73.2 26.3,73.4 C26.8,73.5 27.3,73.6 27.8,73.6 C28.7,73.8 29.5,73.8 30,73.9 C30.5,74 30.9,74 30.9,74 C30.9,74 30.6,74 30,74 C29.5,74 28.7,74 27.7,73.9 C27.2,73.9 26.7,73.8 26.2,73.8 C25.7,73.7 25.1,73.6 24.5,73.5 C23.9,73.4 23.3,73.2 22.7,73.1 C22.1,73 21.5,72.7 20.9,72.5 C20.3,72.3 19.7,72 19.2,71.8 C18.6,71.5 18.1,71.3 17.6,71 C16.6,70.4 15.7,69.7 15,69.1 C14.3,68.5 13.8,67.9 13.4,67.5 C13.3,67 13.1,66.8 13.1,66.8 Z" fill="#1A324A"/>
            <path d="M9.7,62.5 C9.7,62.5 10.4,62.9 11.3,63.5 C12.3,64.1 13.5,65 14.8,65.8 C16.1,66.6 17.4,67.4 18.4,67.9 C18.7,68 18.9,68.2 19.1,68.2 C19.3,68.3 19.5,68.4 19.7,68.4 C20,68.5 20.2,68.5 20.2,68.5 C20.2,68.5 20,68.5 19.7,68.5 C19.5,68.5 19.3,68.4 19.1,68.4 C18.9,68.4 18.6,68.3 18.3,68.2 C17.2,67.8 15.8,67.1 14.5,66.2 C13.2,65.4 12,64.4 11.1,63.7 C10.2,63.1 9.7,62.5 9.7,62.5 Z" fill="#1A324A"/>
            <path d="M46.1,3.7 C46.1,3.7 47.8,4.2 50,5.6 C50.6,6 51.1,6.4 51.7,6.9 C52.3,7.4 52.9,7.9 53.5,8.5 C53.8,8.8 54.1,9.1 54.4,9.4 C54.7,9.7 54.9,10.1 55.2,10.4 C55.8,11.1 56.2,11.8 56.7,12.6 C57.1,13.4 57.6,14.2 58,14.9 C58.3,15.7 58.7,16.5 59,17.3 C59.3,18.1 59.5,18.9 59.7,19.6 C59.9,20.3 60,21 60.1,21.7 C60.2,22.3 60.3,22.9 60.4,23.5 C60.4,24 60.5,24.5 60.5,24.9 C60.6,25.7 60.6,26.1 60.6,26.1 C60.6,26.1 60.5,25.7 60.4,24.9 C60.3,24.5 60.3,24.1 60.2,23.5 C60.1,23 60,22.4 59.8,21.8 C59.6,21.2 59.5,20.5 59.3,19.8 C59.1,19.1 58.8,18.4 58.5,17.6 C58.2,16.9 57.8,16.1 57.5,15.3 C57.1,14.6 56.7,13.8 56.2,13 C55.7,12.3 55.3,11.5 54.7,10.9 C54.4,10.6 54.2,10.2 53.9,9.9 C53.6,9.6 53.3,9.3 53.1,9 C52.6,8.4 52,7.9 51.4,7.4 C50.8,6.9 50.3,6.5 49.8,6.1 C47.7,4.3 46.1,3.7 46.1,3.7 Z" fill="#1A324A"/>
            <path d="M47,73.3 C47,73.3 47.2,73.2 47.7,73.1 C48.1,73 48.7,72.8 49.5,72.6 C49.9,72.5 50.3,72.4 50.6,72.2 C51,72 51.4,71.9 51.8,71.6 C52.2,71.4 52.6,71.2 53.1,70.9 C53.5,70.6 53.9,70.4 54.3,70.1 C54.7,69.8 55.1,69.5 55.4,69.1 C55.7,68.8 56.1,68.4 56.3,68 C56.4,67.8 56.6,67.6 56.7,67.5 C56.8,67.3 56.9,67.1 57,66.9 C57.2,66.5 57.4,66.2 57.5,65.8 C57.6,65.4 57.8,65.1 57.9,64.8 C58,64.5 58,64.2 58.1,64 C58.2,63.6 58.3,63.3 58.3,63.3 C58.3,63.3 58.3,63.6 58.2,64 C58.2,64.2 58.2,64.5 58.1,64.8 C58,65.1 57.9,65.5 57.8,65.8 C57.7,66.2 57.5,66.6 57.3,67 C57.2,67.2 57.1,67.4 57,67.6 C56.9,67.8 56.7,68 56.6,68.2 C56.3,68.6 56,69 55.6,69.4 C55.3,69.8 54.8,70.1 54.4,70.5 C54,70.8 53.5,71.1 53.1,71.3 C52.6,71.5 52.2,71.8 51.7,72 C51.3,72.2 50.8,72.4 50.4,72.5 C50,72.6 49.6,72.7 49.2,72.8 C48,73.3 47,73.3 47,73.3 Z" fill="#1A324A"/>
            <path d="M1.8,62.8 C1.8,62.8 2,63.7 2.5,65.1 C2.7,65.8 3.1,66.5 3.5,67.3 C3.7,67.7 4,68 4.2,68.4 C4.5,68.8 4.8,69 5.2,69.3 C5.9,69.8 6.8,70.2 7.6,70.5 C8.4,70.8 9.2,71 9.9,71.1 C10.6,71.2 11.2,71.3 11.6,71.3 C12,71.3 12.3,71.4 12.3,71.4 C12.3,71.4 12.1,71.4 11.6,71.5 C11.2,71.5 10.6,71.6 9.9,71.5 C9.5,71.5 9.1,71.4 8.7,71.4 C8.3,71.3 7.9,71.3 7.4,71.1 C6.5,70.9 5.6,70.5 4.8,69.9 C4.4,69.6 4,69.2 3.7,68.8 C3.4,68.4 3.2,68 2.9,67.6 C2.5,66.8 2.2,66 2,65.3 C1.8,64.6 1.7,64 1.7,63.6 C1.8,63 1.8,62.8 1.8,62.8 Z" fill="#1A324A"/>
          </g>
          <g transform="translate(30.000000, 2.000000)" id="Shape">
            <g>
              <path d="M19.9,3.8 C19.9,3.8 3.1,6.5 14.9,66.7 C14.9,66.7 4.5,69.2 0.2,66 C0.2,66 -0.8,21.8 4.8,8.6 C7.3,2.7 8.9,2.3 12.4,0.4 C12.4,0.4 19,1.3 19.9,3.8 Z" fill="#724A96"/>
              <path d="M5.1,67.5 C6.7,67.5 8.4,67.4 10,67.3 C11.6,67.1 13.3,67 14.8,66.5 L14.7,66.8 C13.7,63.4 13,59.9 12.5,56.4 C12.2,54.7 12,52.9 11.8,51.2 C11.6,49.4 11.4,47.7 11.3,45.9 C11.2,44.1 11,42.4 11,40.6 C10.9,38.8 10.9,37.1 10.9,35.3 C10.9,33.5 10.9,31.8 10.9,30 C10.9,29.1 11,28.2 11,27.4 L11.1,24.8 L11.1,27.4 C11.1,28.3 11.1,29.2 11.1,30 C11.2,31.8 11.1,33.5 11.2,35.3 L11.3,37.9 L11.5,40.5 C11.6,42.3 11.7,44 11.9,45.8 C12.1,47.6 12.2,49.3 12.5,51 C12.7,52.7 12.9,54.5 13.2,56.2 C13.5,57.9 13.8,59.7 14.1,61.4 C14.4,63.1 14.8,64.9 15.2,66.5 L15.3,66.7 L15.1,66.8 C14.3,67 13.5,67.2 12.7,67.3 C11.9,67.4 11.1,67.4 10.2,67.5 C8.4,67.6 6.8,67.6 5.1,67.5 Z" fill="#3B2656"/>
              <path d="M9.4,4.4 C9.4,4.4 9.1,4.9 8.6,5.9 C8.4,6.4 8.1,7 7.8,7.7 C7.5,8.4 7.3,9.2 7,10.1 C6.7,11 6.4,12 6.1,13 C5.8,14.1 5.6,15.2 5.3,16.3 C5,17.5 4.8,18.7 4.5,19.9 C4.2,21.1 4.1,22.4 3.9,23.6 C3.7,24.8 3.5,26.1 3.3,27.3 C3.1,28.5 3,29.8 2.8,30.9 C2.7,32.1 2.5,33.2 2.4,34.3 C2.3,35.4 2.2,36.4 2.1,37.4 C1.7,41.2 1.5,43.7 1.5,43.7 C1.5,43.7 1.5,43.1 1.5,42 C1.5,41.4 1.5,40.8 1.6,40 C1.6,39.2 1.6,38.4 1.7,37.4 C1.9,35.5 1.9,33.3 2.2,30.9 C2.3,29.7 2.4,28.5 2.6,27.3 C2.8,26.1 2.9,24.8 3.1,23.5 C3.3,22.3 3.5,21 3.8,19.8 C4.1,18.6 4.3,17.4 4.6,16.2 C4.9,15 5.2,13.9 5.5,12.9 C5.8,11.9 6.1,10.9 6.5,10 C6.8,9.1 7.1,8.3 7.5,7.6 C7.8,6.9 8.1,6.3 8.4,5.8 C9,4.9 9.4,4.4 9.4,4.4 Z" fill="#3B2656"/>
            </g>
            <path d="M11.3,62.4 C8.3,62.4 5.8,60 5.8,56.9 C5.8,55.6 6.2,54.5 7,53.5 C4.7,54.1 3,56.3 3,58.8 C3,61.8 5.4,64.3 8.5,64.3 C10.2,64.3 11.8,63.5 12.8,62.2 C12.3,62.3 11.8,62.4 11.3,62.4 Z" fill="#E6AF50"/>
          </g>
          <g transform="translate(0.000000, 3.000000)" id="Shape">
            <g>
              <path d="M17.2,2.1 C17.2,2.1 11.6,26.3 15.3,64.6 C15.3,64.6 4.9,67.1 0.6,63.9 C0.6,63.9 2.3,20 7.6,6.7 C9.3,2.4 9.4,2.4 11,1 C11,1 16.3,-0.4 17.2,2.1 Z" fill="#724A96"/>
              <path d="M5.5,65.5 C7.1,65.5 8.8,65.4 10.4,65.3 C12,65.1 13.7,65 15.2,64.5 L15.1,64.7 C14.6,61.2 14.4,57.7 14.2,54.2 C14.1,52.4 14.1,50.7 14.1,48.9 C14.1,48 14.1,47.1 14.1,46.3 C14.1,45.4 14.1,44.5 14.1,43.7 C14.1,41.9 14.2,40.2 14.3,38.5 C14.4,36.8 14.5,35 14.6,33.3 C14.7,31.6 14.9,29.8 15.1,28.1 L15.7,22.9 L15.4,28.1 L15.1,33.3 C14.9,36.8 14.8,40.3 14.8,43.8 C14.8,44.7 14.8,45.5 14.8,46.4 L14.8,49 C14.8,50.7 14.8,52.5 14.9,54.2 C15,55.9 15,57.7 15.1,59.4 C15.2,61.1 15.3,62.9 15.5,64.6 L15.5,64.8 L15.3,64.8 C14.5,65 13.7,65.2 12.9,65.3 C12.1,65.4 11.3,65.4 10.4,65.5 C8.7,65.6 7.1,65.5 5.5,65.5 Z" fill="#3B2656"/>
              <path d="M9.8,2.4 C9.8,2.4 9.5,2.9 9,3.9 C8.8,4.4 8.5,5 8.2,5.7 C7.9,6.4 7.7,7.2 7.4,8.1 C7.1,9 6.8,10 6.5,11 C6.2,12.1 6,13.2 5.7,14.3 C5.4,15.5 5.2,16.7 4.9,17.9 C4.6,19.1 4.5,20.4 4.3,21.6 C4.1,22.8 3.9,24.1 3.7,25.3 C3.5,26.5 3.4,27.8 3.2,28.9 C3.1,30.1 2.9,31.2 2.8,32.3 C2.7,33.4 2.6,34.4 2.5,35.4 C2.1,39.2 1.9,41.7 1.9,41.7 C1.9,41.7 1.9,41.1 1.9,40 C1.9,39.4 1.9,38.8 2,38 C2,37.2 2,36.4 2.1,35.4 C2.3,33.5 2.3,31.3 2.6,28.9 C2.7,27.7 2.8,26.5 3,25.3 C3.2,24.1 3.3,22.8 3.5,21.5 C3.7,20.3 3.9,19 4.2,17.8 C4.5,16.6 4.7,15.4 5,14.2 C5.3,13 5.6,11.9 5.9,10.9 C6.2,9.9 6.5,8.9 6.9,8 C7.2,7.1 7.5,6.3 7.9,5.6 C8.2,4.9 8.5,4.3 8.8,3.8 C9.4,2.9 9.8,2.4 9.8,2.4 Z" fill="#3B2656"/>
            </g>
            <path d="M10.1,57.8 C11.4,56.7 12.4,55.8 12.4,55.8 C11.5,55.4 10.3,55.3 9,55.2 C8.1,53.3 7.3,51.8 7.3,51.8 C6.9,52.6 6.3,53.9 5.9,55.3 C4.3,55.4 3,55.6 3,55.6 C3.2,56.3 3.9,57.2 4.9,58.1 C4.2,60.2 3.7,62 3.7,62 C4.3,62 5.8,61.1 7.3,60 C9.5,61.5 11.5,62.1 11.5,62.1 C11.3,60.9 10.9,59.6 10.1,57.8 Z" fill="#E6AF50"/>
          </g>
        </g>
        <g id="Group" transform="translate(104.000000, 80.000000)">
          <g transform="translate(6.000000, 74.000000)" id="Shape">
            <path d="M6.3,0.9 C6.3,0.9 2.6,8.4 1.9,10.2 C1.2,12 0.9,13 3,13.5 C3,13.5 3,15.7 5.6,15.4 C5.6,15.4 6.9,17.3 9,17 C9,17 10.7,18.8 13.2,17.3 C14.6,16.5 15.6,13.9 14.3,12.5 L16.2,8.8" fill="#C5886B"/>
            <path d="M6,1.8 C6,1.8 4.1,5.3 1.8,7.2 C0.1,8.7 0.2,10.7 3,9.9" fill="#C5886B"/>
            <path d="M15.6,10.3 C15.6,10.3 15.5,10.7 15.3,11.3 C15.1,11.9 14.8,12.6 14.4,13.3 C14,14 13.5,14.7 13.1,15.1 C12.9,15.3 12.7,15.5 12.5,15.6 C12.3,15.7 12.2,15.7 12.2,15.7 C12.2,15.7 12.3,15.6 12.4,15.5 C12.5,15.4 12.6,15.1 12.8,14.9 C13.1,14.4 13.5,13.7 13.9,13 C14.3,12.3 14.7,11.6 15.1,11.1 C15.4,10.6 15.6,10.3 15.6,10.3 Z" fill="#A95947"/>
            <path d="M9,14.7 C9,14.7 9.1,14.9 9.1,15.3 C9.2,15.6 9.2,16 9.3,16.4 C9.3,16.6 9.4,16.8 9.5,16.9 C9.6,17.1 9.6,17.2 9.7,17.3 C9.8,17.4 9.9,17.5 9.9,17.6 C10,17.7 10,17.7 10,17.7 C10,17.7 9.8,17.7 9.4,17.5 C9.2,17.4 9.1,17.3 8.9,17.1 C8.8,16.9 8.7,16.7 8.6,16.4 C8.5,15.9 8.5,15.5 8.6,15.1 C8.9,14.9 9,14.7 9,14.7 Z" fill="#A95947"/>
            <path d="M5.7,13.3 C5.7,13.3 5.7,13.5 5.8,13.9 C5.8,14.2 5.9,14.6 6,15 C6.1,15.4 6.2,15.7 6.4,16 C6.5,16.1 6.5,16.3 6.6,16.3 C6.7,16.4 6.7,16.4 6.7,16.4 C6.7,16.4 6.4,16.4 6.1,16.2 C5.9,16.1 5.8,15.9 5.7,15.7 C5.6,15.5 5.5,15.3 5.4,15 C5.3,14.5 5.4,14 5.5,13.7 C5.6,13.5 5.7,13.3 5.7,13.3 Z" fill="#A95947"/>
            <path d="M3.2,11.6 C3.2,11.6 3.3,11.8 3.3,12.2 C3.3,12.5 3.3,13 3.3,13.4 C3.3,13.8 3.3,14.2 3.3,14.5 C3.3,14.6 3.3,14.8 3.4,14.9 C3.4,15 3.5,15 3.5,15 C3.5,15 3.4,15 3.3,14.9 C3.2,14.9 3.1,14.8 3,14.6 C2.8,14.3 2.7,13.8 2.7,13.4 C2.7,12.9 2.8,12.5 2.9,12.2 C3.1,11.8 3.2,11.6 3.2,11.6 Z" fill="#A95947"/>
            <path d="M13.3,14.2 C13.3,14.2 13.4,14.2 13.6,14.4 C13.7,14.5 13.9,14.7 13.9,14.9 C14,15.1 14,15.3 13.9,15.5 C13.8,15.7 13.7,15.8 13.7,15.8 C13.7,15.8 13.6,15.7 13.5,15.6 C13.4,15.5 13.3,15.3 13.2,15.1 C13.1,14.9 13.1,14.7 13.1,14.5 C13.3,14.3 13.3,14.2 13.3,14.2 Z" fill="#A95947"/>
            <path d="M1.5,11.9 C1.5,11.9 1.4,11.4 1.5,10.7 C1.6,10 1.8,9.1 2.2,8.3 C2.6,7.5 3,6.7 3.5,6.1 C3.9,5.5 4.2,5.2 4.2,5.2 C4.2,5.2 4.2,5.3 4.1,5.5 C4,5.7 3.9,6 3.8,6.3 C3.5,6.9 3.2,7.7 2.8,8.6 C2.4,9.4 2.1,10.2 1.9,10.9 C1.7,11.5 1.5,11.9 1.5,11.9 Z" fill="#A95947"/>
          </g>
          <g transform="translate(5.000000, 35.000000)" id="Shape">
            <path d="M30.3,1.2 C25.6,0.1 22.1,0.2 18.8,4.4 C15.5,8.6 14.4,15.4 12.9,20 C11.3,24.8 1.4,36.9 1.4,36.9 C4.1,47.9 23.4,49.5 23.4,49.5 C23.4,49.5 33,30.7 37.2,11.5 C38.1,6.7 35.3,2.4 30.3,1.2 Z" fill="#264A6E"/>
            <path d="M19,4.2 C19,4.2 18.8,4.5 18.6,4.9 C18.3,5.4 18,6.1 17.6,6.9 C17.2,7.7 16.8,8.7 16.4,9.8 C16,10.9 15.6,12.1 15.3,13.3 C15,14.5 14.7,15.7 14.4,16.8 C14.3,17.4 14.2,17.9 14.1,18.4 C14,18.9 13.9,19.4 13.9,19.9 C13.7,20.8 13.6,21.6 13.6,22.1 C13.5,22.6 13.5,22.9 13.5,22.9 C13.5,22.9 13.5,22.6 13.5,22 C13.5,21.5 13.5,20.7 13.6,19.7 C13.7,18.8 13.8,17.7 14,16.5 C14.2,15.3 14.5,14.1 14.8,12.9 C15.2,11.7 15.6,10.5 16,9.4 C16.4,8.3 16.9,7.3 17.4,6.5 C17.9,5.7 18.3,5 18.6,4.6 C18.7,4.4 19,4.2 19,4.2 Z" fill="#1A324A"/>
            <path d="M10.8,24.4 C9.5,26.7 8,28.8 6.4,31 C5.6,32.1 4.8,33.1 4,34.1 C3.2,35.1 2.4,36.2 1.5,37.2 L1.6,36.9 C1.7,37.5 2,38 2.2,38.6 C2.5,39.2 2.8,39.7 3.1,40.2 C3.4,40.7 3.8,41.2 4.2,41.7 C4.6,42.2 5,42.6 5.5,43 C6,43.4 6.4,43.8 7,44.1 C7.5,44.5 8,44.8 8.6,45.1 C9.1,45.4 9.7,45.7 10.3,45.9 C10.6,46 10.9,46.1 11.2,46.2 L12.1,46.5 C11.5,46.3 10.9,46.2 10.3,46 C9.7,45.8 9.1,45.6 8.5,45.3 C7.9,45 7.4,44.7 6.8,44.4 C6.2,44.1 5.8,43.7 5.2,43.3 L4.5,42.7 C4.3,42.5 4.1,42.2 3.8,42 C3.4,41.5 3,41 2.6,40.5 C2.2,40 1.9,39.4 1.6,38.8 C1.3,38.2 1.1,37.6 0.9,37 L0.9,36.9 L1,36.8 C1.8,35.8 2.7,34.8 3.5,33.8 L5.9,30.7 C7.6,28.6 9.2,26.5 10.8,24.4 Z" fill="#1A324A"/>
            <path d="M35.8,16.7 C35.8,16.7 35.7,17.2 35.6,18.2 C35.4,19.1 35.1,20.5 34.7,22.1 C34.3,23.7 33.7,25.6 33.1,27.5 C32.4,29.5 31.7,31.5 30.9,33.6 C30.1,35.6 29.2,37.7 28.4,39.6 C27.6,41.5 26.7,43.2 26,44.7 C25.3,46.2 24.6,47.4 24.2,48.3 C23.7,49.2 23.5,49.6 23.5,49.6 C23.5,49.6 24.4,47.6 25.7,44.6 C26.4,43.1 27.1,41.3 27.9,39.4 C28.7,37.5 29.6,35.5 30.3,33.4 C31.1,31.4 31.9,29.3 32.6,27.4 C33.3,25.5 33.9,23.6 34.4,22.1 C34.9,20.5 35.3,19.2 35.5,18.3 C35.6,17.3 35.8,16.7 35.8,16.7 Z" fill="#1A324A"/>
          </g>
          <g id="Shape">
            <path d="M41.5,40.8 C40.5,33.6 18.4,1.8 12.1,0.8 C5.3,-0.3 -1.9,6 1.9,15.9 C4.9,23.6 14.7,34.9 18,39.3 C21.2,43.7 20.2,42.7 21.7,46.4 C23.1,50.1 24.2,50.2 25.4,50.7 C26.6,51.2 30.4,51 35,48.6 C39.6,46.2 42.1,44.7 41.5,40.8 Z" fill="#264A6E"/>
            <path d="M40.5,44.7 C40.5,44.7 40.6,44.6 40.8,44.5 C41,44.3 41.2,44.1 41.3,43.7 C41.4,43.5 41.4,43.3 41.5,43 C41.5,42.8 41.6,42.5 41.6,42.2 C41.6,41.6 41.5,41 41.4,40.3 C41.2,39.6 41,38.9 40.7,38.1 C40.4,37.3 40.1,36.5 39.7,35.7 C39.4,34.9 38.9,34.1 38.5,33.2 C38.1,32.4 37.6,31.6 37.1,30.7 C36.6,29.9 36.1,29 35.6,28.3 C35.1,27.5 34.6,26.7 34.1,26 C33.6,25.3 33.1,24.5 32.7,23.9 C32.2,23.2 31.8,22.6 31.4,22 C29.7,19.7 28.7,18.1 28.7,18.1 C28.7,18.1 29.9,19.6 31.7,21.8 C32.2,22.4 32.6,23 33.1,23.7 C33.6,24.4 34.1,25.1 34.6,25.8 C35.1,26.5 35.6,27.3 36.1,28.1 C36.6,28.9 37.1,29.7 37.6,30.5 C38.1,31.3 38.6,32.2 39,33 C39.4,33.9 39.9,34.7 40.2,35.5 C40.6,36.3 40.9,37.1 41.1,37.9 C41.4,38.7 41.5,39.5 41.7,40.2 C41.8,40.9 41.9,41.6 41.8,42.2 C41.8,42.5 41.7,42.8 41.7,43 C41.7,43.3 41.6,43.5 41.5,43.7 C41.3,44.1 41.1,44.3 40.9,44.5 C40.6,44.7 40.5,44.7 40.5,44.7 Z" fill="#1A324A"/>
            <path d="M12.8,32.3 C12.8,32.3 13.9,33.5 15.4,35.4 C16.9,37.3 18.9,39.8 20.6,42.6 C21,43.3 21.4,44.1 21.5,44.9 C21.6,45.6 21.9,46.4 22.2,47 C22.8,48.3 23.7,49.4 24.6,50.1 C25.6,50.8 26.6,50.9 27.3,50.9 C28,50.8 28.4,50.7 28.4,50.7 C28.4,50.7 28.3,50.7 28.1,50.8 C27.9,50.9 27.7,51 27.3,51 C26.6,51.1 25.5,51.1 24.4,50.4 C23.3,49.8 22.3,48.6 21.6,47.2 C21.3,46.5 21,45.8 20.8,44.9 C20.7,44.2 20.3,43.5 20,42.8 C19.2,41.4 18.3,40.1 17.5,38.8 C16.7,37.6 15.8,36.4 15.1,35.4 C13.7,33.6 12.8,32.3 12.8,32.3 Z" fill="#1A324A"/>
          </g>
        </g>
        <g id="Group" transform="translate(47.000000, 0.000000)">
          <path d="M1,59 C1.44328993e-15,59.8 28.3,63 40.6,62.7 C52.8,62.4 87.7,60.2 86.8,59.2 C85.8,58.2 51.9,48.5 45.4,48.6 C38.8,48.6 3.7,56.8 1,59 Z" id="Shape" fill="#1A324A"/>
          <g transform="translate(18.000000, 40.000000)">
            <path d="M41.3,21.5 C43.9,32.2 40,43.2 24.4,44 C6.2,44.9 4.3,33.2 5.8,22.3 C7.5,10.2 11.9,1.2 22.9,0.7 C33.8,0.2 38.5,10.3 41.3,21.5 Z" id="Shape" fill="#C5886B"/>
            <g id="Shape">
              <path d="M17.5,38 C17.5,38 17.6,38.1 17.8,38.2 C17.9,38.3 18.1,38.4 18.3,38.4 C18.5,38.5 18.7,38.6 18.9,38.7 C19.1,38.8 19.2,38.9 19.2,38.9 C19.2,38.9 19,39 18.8,39.1 C18.6,39.1 18.3,39.1 18,39 C17.7,38.9 17.5,38.6 17.4,38.4 C17.4,38.1 17.5,38 17.5,38 Z" fill="#99918A"/>
              <path d="M49.5,50.6 C45.8,49.2 45.8,45.8 45.8,45.8 C46.5,49.6 51.8,48.5 51.8,48.5 C47.6,48.8 45.7,42.2 47.6,40.1 C49.5,38 47.8,32.9 47.8,32.9 C48.7,33 49.3,35.8 49.3,35.8 C49.3,35.8 50.6,31.2 46.9,29.5 C43.2,27.8 43.9,23.9 42.2,13 C40.6,2.2 28.1,-0.3 24.3,0.1 C23.6,0.2 23,0.2 22.6,0.5 C22,-0.2 20.5,0.1 19.1,0.2 C16.5,0.3 11.4,3.6 9.3,5.6 C3.2,11.4 3.1,24.9 3.3,27.3 C3.5,29.7 0.4,30 0.4,30 C2.5,30.2 4,29.5 4,29.5 C1.3,33 3.4,36.2 3.4,36.2 C2.4,38.4 3,42.5 4.5,45.3 C6,48.1 2.2,50 2.2,50 C5.3,50.1 5.8,48.6 5.9,48.2 C5.3,51.4 4.9,54.4 6.5,56.4 C8.1,58.4 4.7,61.3 4.7,61.3 C5.9,61.2 8.2,60.3 8.2,60.3 C9.7,63.4 4.5,64.3 4.5,64.3 C8.2,64.9 9.6,63.6 9.6,63.6 C8.6,67.3 9.5,69.4 10.7,71.6 C11.8,73.7 9.2,76.7 9.2,76.7 C12,77 13.5,73.3 13.5,73.3 C12.3,79.4 16.8,80.7 16.8,80.7 C15.2,78.7 16.7,75.7 16.7,75.7 C16.8,78 18.1,82.3 20.9,82.8 C23.7,83.3 23.1,87.2 23.1,87.2 C25.1,86.8 24.2,83.1 24.2,82.8 C25.7,89 30.6,87.9 30.6,87.9 C32.9,91.3 38.4,89.4 38.4,89.4 C36.2,89.7 34.3,88 34.3,88 C39,90.2 41.7,87.1 41.5,84.5 C41.4,82 37.9,82.8 37.9,82.8 C37.9,82.8 42,83.2 38.8,86 C35.6,88.8 32.4,81.7 35,80.5 C37.6,79.3 36.8,76.6 36.8,76.6 C38.8,75.7 41.9,72.8 41.1,70.2 C40.4,67.9 41.2,65.4 41.2,65.4 C40,68.6 42.9,69 42.9,69 C42.5,67.1 43.2,65.5 45.5,64 C47.2,62.9 46.5,60.5 45.9,59.4 C47,60.4 49.9,59.5 49.9,59.5 C48.2,59.6 45.5,57.3 47.4,55.6 C49.3,53.9 48.4,52.4 48.4,52.4 C51.4,53.6 49.2,56.3 49.2,56.3 C51.2,56.1 53.1,52.1 49.5,50.6 Z M36.2,26 C33.3,30.8 34.2,31.9 34.2,31.9 C34.2,31.9 30.2,30 27.8,33.2 L22.4,36.7 L17.4,35.3 C17.4,35.3 14.5,31 9.3,31.8 C9.3,31.8 7,31 7.6,28.1 C7.6,28.1 8.3,30.1 10.7,28.9 C10.7,28.9 7.5,28.3 7.9,24.5 C8.3,20.7 9.5,18.4 11.5,14.1 C14.4,7.8 18.9,8 21.3,5.4 C22.6,8.4 30.1,10.8 33.3,14.3 C33.3,14.1 39.1,21.3 36.2,26 Z" fill="#C8BDB4"/>
              <path d="M21.3,2.7 C21.3,2.7 21.3,2.6 21.3,2.3 C21.3,2.1 21.4,1.7 21.7,1.4 C21.8,1.2 22,1.1 22.2,0.9 C22.4,0.7 22.6,0.6 22.8,0.5 C23.3,0.2 23.8,0.1 24.4,7.10542736e-15 C24.7,7.10542736e-15 24.9,7.10542736e-15 25.2,7.10542736e-15 C25.5,7.10542736e-15 25.7,7.10542736e-15 26,7.10542736e-15 C26.5,7.10542736e-15 27,0.1 27.4,0.2 C28.2,0.4 28.7,0.6 28.7,0.6 C28.7,0.6 28.2,0.6 27.4,0.6 C27,0.6 26.6,0.6 26.1,0.6 C25.6,0.6 25.1,0.6 24.6,0.7 C24.4,0.7 24.1,0.8 23.9,0.8 C23.7,0.9 23.4,0.9 23.2,1 C23,1.1 22.8,1.2 22.6,1.3 C22.4,1.4 22.3,1.5 22.1,1.7 C21.8,2 21.6,2.2 21.6,2.4 C21.3,2.6 21.3,2.7 21.3,2.7 Z" fill="#99918A"/>
              <path d="M21.1,4 C21.1,4 21,4.2 21.1,4.4 C21.1,4.5 21.2,4.7 21.2,4.9 C21.3,5.1 21.4,5.3 21.5,5.5 C21.6,5.7 21.8,5.9 22,6.1 C22.2,6.3 22.4,6.5 22.6,6.7 C23.1,7.1 23.6,7.5 24.1,7.9 C24.6,8.3 25.2,8.6 25.7,9 C26.2,9.3 26.7,9.7 27.1,9.9 C28,10.4 28.5,10.8 28.5,10.8 C28.5,10.8 27.9,10.6 26.9,10.2 C26,9.8 24.7,9.2 23.6,8.4 C23,8 22.5,7.6 22,7.1 C21.8,6.9 21.6,6.6 21.4,6.4 C21.2,6.2 21.1,5.9 20.9,5.7 C20.8,5.5 20.7,5.2 20.6,5 C20.6,4.8 20.5,4.6 20.6,4.4 C21,4.1 21.1,4 21.1,4 Z" fill="#99918A"/>
              <path d="M35,28 C35,28 34.8,28.5 34.6,29.2 C34.5,29.6 34.4,30 34.3,30.4 C34.2,30.6 34.3,30.9 34.2,31.1 C34.2,31.3 34.2,31.6 34.2,31.8 C34.2,32 34.2,32.3 34.3,32.5 C34.3,32.7 34.4,33 34.5,33.2 C34.6,33.4 34.7,33.6 34.8,33.8 C34.9,34 35,34.2 35.1,34.3 C35.2,34.4 35.3,34.6 35.4,34.7 C35.5,34.8 35.6,34.9 35.7,35 C35.8,35.2 35.9,35.3 35.9,35.3 C35.9,35.3 35.8,35.2 35.6,35.1 C35.5,35 35.4,35 35.2,34.9 C35.1,34.8 34.9,34.7 34.8,34.5 C34.7,34.4 34.5,34.2 34.4,34 C34.3,33.8 34.1,33.6 34,33.4 C33.8,32.9 33.6,32.4 33.6,31.9 C33.6,31.4 33.6,30.8 33.7,30.3 C33.8,29.8 34,29.4 34.2,29 C34.6,28.3 35,28 35,28 Z" fill="#99918A"/>
              <path d="M10.6,28.7 C10.6,28.7 10.3,29 9.5,29.2 C9.1,29.3 8.7,29.3 8.2,29.1 C8,29 7.8,28.9 7.6,28.7 C7.4,28.5 7.2,28.4 7.1,28.2 C6.9,28 6.9,27.8 6.7,27.6 C6.6,27.4 6.5,27.2 6.5,27 C6.4,26.6 6.3,26.2 6.3,25.8 C6.3,25.1 6.3,24.7 6.3,24.7 C6.3,24.7 6.5,25.1 6.7,25.8 C6.8,26.1 6.9,26.5 7.1,26.8 C7.2,27 7.2,27.2 7.4,27.4 C7.5,27.6 7.6,27.8 7.7,27.9 C7.8,28.1 7.9,28.2 8.1,28.4 C8.2,28.5 8.4,28.6 8.6,28.7 C8.8,28.8 8.9,28.9 9.1,28.9 C9.3,28.9 9.4,29 9.6,29 C9.9,29 10.2,29 10.4,28.9 C10.5,28.8 10.6,28.7 10.6,28.7 Z" fill="#99918A"/>
              <path d="M0.4,30.2 C0.4,30.2 0.8,30.1 1.3,30.1 C1.8,30 2.5,29.9 3.2,29.7 C3.5,29.6 3.9,29.5 4.1,29.4 C4.2,29.3 4.4,29.3 4.5,29.2 C4.6,29.1 4.8,29.1 4.9,29 C5.1,28.8 5.3,28.7 5.4,28.6 C5.5,28.5 5.6,28.4 5.6,28.4 C5.6,28.4 5.5,28.8 5.2,29.2 C5,29.4 4.8,29.7 4.5,29.9 C4.2,30.1 3.8,30.2 3.5,30.3 C2.8,30.5 2,30.5 1.4,30.4 C0.7,30.3 0.4,30.2 0.4,30.2 Z" fill="#99918A"/>
              <path d="M42.6,16.7 C42.6,16.7 42.8,17.6 43.1,19 C43.2,19.7 43.4,20.5 43.6,21.4 C43.8,22.3 43.9,23.2 44.1,24.1 C44.2,24.6 44.3,25 44.3,25.5 C44.4,26 44.4,26.4 44.5,26.8 C44.7,27.6 45.1,28.3 45.6,28.7 C46.1,29.2 46.6,29.5 46.9,29.7 C47.2,29.9 47.4,30 47.4,30 C47.4,30 47.2,29.9 46.8,29.8 C46.6,29.7 46.4,29.6 46.1,29.5 C45.8,29.4 45.6,29.2 45.3,29 C45,28.8 44.7,28.5 44.5,28.2 C44.2,27.9 44,27.4 43.9,27 C43.8,26.6 43.7,26.1 43.6,25.7 C43.5,25.3 43.4,24.8 43.3,24.3 C43,22.4 42.8,20.6 42.6,19.2 C42.7,17.6 42.6,16.7 42.6,16.7 Z" fill="#99918A"/>
              <path d="M47.8,33 C47.8,33 47.9,33.3 48.1,33.7 C48.3,34.2 48.5,34.9 48.6,35.8 C48.7,36.2 48.7,36.7 48.7,37.2 C48.7,37.7 48.6,38.3 48.5,38.8 C48.4,39.3 48.1,39.9 47.8,40.4 C47.5,40.9 47.3,41.4 47.3,41.9 C47.2,42.4 47.2,43 47.3,43.5 C47.4,44 47.5,44.6 47.7,45 C47.9,45.5 48.1,45.9 48.4,46.3 C48.7,46.7 49,47 49.3,47.3 C49.4,47.5 49.6,47.6 49.8,47.7 C50,47.8 50.1,47.9 50.3,48 C50.6,48.2 50.9,48.2 51.1,48.3 C51.3,48.4 51.5,48.4 51.7,48.4 C51.8,48.4 51.9,48.4 51.9,48.4 C51.9,48.4 51.8,48.4 51.7,48.4 C51.6,48.4 51.4,48.4 51.1,48.4 C50.8,48.4 50.5,48.3 50.2,48.2 C49.8,48.1 49.5,47.9 49.1,47.6 C48.7,47.3 48.4,47 48.1,46.6 C47.8,46.2 47.5,45.7 47.3,45.2 C47.1,44.7 46.9,44.1 46.8,43.5 C46.7,42.9 46.7,42.3 46.8,41.7 C46.9,41.1 47.1,40.4 47.4,40 C47.7,39.5 47.9,39.1 48.1,38.5 C48.4,37.5 48.5,36.5 48.4,35.6 C48.3,34.7 48.2,34 48.1,33.5 C47.9,33.3 47.8,33 47.8,33 Z" fill="#99918A"/>
              <path d="M48.9,56.5 C48.9,56.5 49.1,56.1 49.2,55.6 C49.3,55.3 49.3,55 49.3,54.7 C49.3,54.5 49.3,54.4 49.2,54.2 C49.2,54 49.1,53.9 49,53.8 C48.9,53.7 48.8,53.5 48.7,53.4 C48.6,53.3 48.5,53.1 48.4,53 C48.3,52.9 48.2,52.8 48,52.7 C47.9,52.6 47.7,52.5 47.6,52.5 C47.4,52.3 47.2,52.2 47,52.1 C47.1,52 47,52 47,52 C47,52 47.1,52 47.3,52 C47.5,52 47.7,52 48,52.1 C48.3,52.2 48.6,52.3 48.9,52.5 C49.1,52.6 49.2,52.7 49.4,52.9 C49.5,53 49.7,53.2 49.8,53.4 C49.9,53.6 50,53.8 50,54 C50.1,54.2 50,54.4 50,54.6 C49.9,55 49.8,55.3 49.6,55.6 C49.3,56.2 48.9,56.5 48.9,56.5 Z" fill="#99918A"/>
              <path d="M49.7,59.7 C49.7,59.7 49.2,60 48.4,60.2 C48,60.3 47.5,60.4 47,60.3 C46.7,60.3 46.5,60.2 46.2,60.2 C45.9,60.1 45.6,60 45.4,59.9 C45.1,59.8 44.9,59.6 44.7,59.4 C44.5,59.2 44.4,58.9 44.2,58.7 C44.1,58.5 44,58.2 43.9,58 C43.8,57.8 43.8,57.5 43.8,57.3 C43.7,56.9 43.8,56.5 43.8,56.3 C43.8,56.1 43.8,55.9 43.8,55.9 C43.8,55.9 43.8,56 43.9,56.3 C44,56.5 44,56.9 44.2,57.2 C44.3,57.4 44.3,57.6 44.4,57.8 C44.5,58 44.6,58.2 44.7,58.4 C44.9,58.6 45,58.8 45.2,58.9 C45.4,59.1 45.6,59.2 45.8,59.3 C46,59.4 46.2,59.5 46.5,59.6 C46.7,59.6 47,59.7 47.2,59.7 C47.7,59.8 48.1,59.8 48.5,59.8 C49.1,59.8 49.7,59.7 49.7,59.7 Z" fill="#99918A"/>
              <path d="M10.9,4.4 C10.9,4.4 11.1,4.3 11.3,4 C11.6,3.8 12,3.4 12.4,3.1 C12.9,2.8 13.5,2.3 14.1,1.9 C14.4,1.7 14.8,1.5 15.1,1.3 C15.5,1.1 15.8,0.9 16.2,0.8 C16.6,0.7 17,0.5 17.4,0.4 C17.8,0.3 18.2,0.2 18.6,0.1 C19,0 19.4,0 19.8,0 C20.2,0 20.5,0 20.8,0 C21.4,0.1 21.9,0.3 22.3,0.4 C22.6,0.6 22.8,0.7 22.8,0.7 C22.8,0.7 22.6,0.6 22.3,0.5 C22,0.4 21.5,0.3 20.9,0.3 C20.6,0.3 20.3,0.3 20,0.4 C19.7,0.4 19.3,0.5 19,0.6 C18.6,0.7 18.3,0.8 17.9,0.9 C17.5,1 17.2,1.2 16.8,1.3 C16.1,1.6 15.4,2 14.7,2.3 C14,2.6 13.4,3 12.9,3.3 C11.6,4.1 10.9,4.4 10.9,4.4 Z" fill="#99918A"/>
              <path d="M2.1,50.1 C2.1,50.1 2.2,50.1 2.4,50.1 C2.6,50.1 2.9,50 3.2,50 C3.5,49.9 3.9,49.8 4.3,49.6 C4.5,49.5 4.7,49.4 4.8,49.3 C5,49.2 5.1,49 5.3,48.9 C5.4,48.7 5.6,48.6 5.7,48.4 C5.8,48.2 5.9,48 6,47.8 C6.1,47.6 6.2,47.4 6.3,47.2 C6.4,47 6.4,46.8 6.5,46.7 C6.6,46.4 6.7,46.1 6.7,45.9 C6.8,45.7 6.8,45.6 6.8,45.6 C6.8,45.6 6.8,45.7 6.8,45.9 C6.8,46.1 6.8,46.4 6.8,46.8 C6.8,47.2 6.7,47.6 6.5,48 C6.4,48.2 6.3,48.4 6.2,48.7 C6.1,48.9 5.9,49.1 5.8,49.3 C5.6,49.5 5.4,49.7 5.2,49.8 C5,49.9 4.8,50.1 4.5,50.1 C4.3,50.2 4.1,50.2 3.8,50.3 C3.6,50.3 3.4,50.4 3.2,50.3 C2.8,50.3 2.5,50.2 2.3,50.2 C2.2,50.2 2.1,50.1 2.1,50.1 Z" fill="#99918A"/>
              <path d="M2.6,33.3 C2.6,33.3 2.7,33.7 2.9,34.2 C3,34.5 3.1,34.8 3.2,35.1 C3.3,35.4 3.5,35.7 3.6,36 C3.7,36.1 3.8,36.3 3.9,36.4 C4,36.5 4.1,36.7 4.2,36.8 C4.3,36.9 4.4,37 4.6,37.1 C4.7,37.2 4.8,37.3 5,37.3 C5.1,37.4 5.2,37.4 5.3,37.5 C5.4,37.5 5.5,37.6 5.6,37.6 C5.8,37.6 5.9,37.7 5.9,37.7 C5.9,37.7 5.8,37.7 5.6,37.7 C5.4,37.7 5.2,37.8 4.9,37.7 C4.7,37.7 4.6,37.6 4.4,37.6 C4.2,37.6 4.1,37.4 3.9,37.3 C3.6,37.1 3.3,36.8 3.1,36.4 C2.7,35.7 2.5,34.9 2.5,34.3 C2.5,33.7 2.6,33.3 2.6,33.3 Z" fill="#99918A"/>
              <path d="M4.6,61.5 C4.6,61.5 5.3,61.4 6.4,61 C6.9,60.8 7.5,60.6 8.1,60.3 C8.4,60.1 8.7,59.9 9,59.8 C9.3,59.6 9.5,59.4 9.8,59.1 C9.9,59 10,58.8 10.1,58.7 C10.2,58.6 10.3,58.4 10.4,58.3 L10.6,57.9 C10.7,57.7 10.7,57.6 10.8,57.4 C10.9,57.3 10.9,57.1 10.9,56.9 C10.9,56.8 10.9,56.6 10.9,56.5 C10.9,56.2 10.9,55.9 10.9,55.6 C10.8,55.1 10.7,54.6 10.7,54.3 C10.6,54 10.6,53.8 10.6,53.8 C10.6,53.8 11,54.4 11.3,55.5 C11.4,55.8 11.4,56.1 11.5,56.4 C11.5,56.6 11.5,56.7 11.5,56.9 C11.5,57.1 11.5,57.3 11.4,57.4 C11.4,57.6 11.3,57.8 11.3,57.9 C11.2,58.1 11.1,58.3 11.1,58.4 C11,58.6 10.9,58.7 10.8,58.9 C10.7,59.1 10.6,59.2 10.4,59.4 C10.1,59.7 9.8,59.9 9.5,60.2 C9.2,60.4 8.9,60.6 8.5,60.7 C7.8,61 7.2,61.2 6.6,61.3 C5.3,61.5 4.6,61.5 4.6,61.5 Z" fill="#99918A"/>
              <path d="M4.4,64.5 C4.4,64.5 4.9,64.6 5.7,64.5 C6.5,64.5 7.5,64.3 8.4,64 C8.9,63.8 9.3,63.6 9.7,63.4 C9.9,63.3 10.1,63.1 10.3,63 C10.5,62.9 10.6,62.7 10.8,62.6 C10.9,62.5 11.1,62.4 11.2,62.3 C11.3,62.2 11.4,62.1 11.5,62 C11.7,61.8 11.8,61.8 11.8,61.8 C11.8,61.8 11.7,61.9 11.6,62.1 C11.5,62.3 11.3,62.6 11.1,62.9 C11,63.1 10.8,63.2 10.7,63.4 C10.5,63.6 10.4,63.7 10.1,63.9 C9.9,64 9.7,64.2 9.4,64.3 C9.2,64.4 8.9,64.6 8.7,64.6 C8.4,64.7 8.2,64.8 7.9,64.8 C7.6,64.9 7.4,64.9 7.1,64.9 C6.6,64.9 6.1,64.9 5.7,64.8 C4.8,64.7 4.4,64.5 4.4,64.5 Z" fill="#99918A"/>
              <path d="M9,76.9 C9,76.9 9.2,76.6 9.4,76.1 C9.6,75.7 9.9,75.1 10.1,74.5 C10.3,73.9 10.4,73.3 10.5,72.8 C10.6,72.3 10.5,71.9 10.6,71.9 C10.6,71.9 10.6,72 10.7,72.1 C10.8,72.2 10.9,72.4 10.9,72.7 C11,73 11,73.3 11,73.6 C11,73.9 10.9,74.3 10.8,74.6 C10.6,75.3 10.1,75.9 9.7,76.3 C9.4,76.7 9,76.9 9,76.9 Z" fill="#99918A"/>
              <path d="M13.3,73.4 C13.3,73.4 13.2,74 13.2,74.8 C13.2,75.2 13.2,75.7 13.3,76.2 C13.4,76.7 13.5,77.2 13.7,77.7 C13.8,78 13.9,78.2 14,78.4 C14.1,78.6 14.3,78.8 14.4,79 C14.5,79.2 14.7,79.4 14.9,79.5 C15,79.7 15.2,79.8 15.4,79.9 C15.6,80 15.7,80.2 15.8,80.3 C15.9,80.4 16.1,80.5 16.2,80.6 C16.4,80.7 16.5,80.8 16.5,80.8 C16.5,80.8 16.4,80.8 16.1,80.7 C15.9,80.6 15.5,80.5 15.2,80.3 C15,80.2 14.8,80.1 14.6,79.9 C14.4,79.7 14.2,79.6 14,79.4 C13.8,79.2 13.6,79 13.5,78.7 C13.3,78.5 13.2,78.2 13.1,77.9 C13,77.6 12.9,77.3 12.8,77.1 C12.7,76.8 12.7,76.5 12.7,76.3 C12.7,75.8 12.7,75.2 12.8,74.8 C13,73.9 13.3,73.4 13.3,73.4 Z" fill="#99918A"/>
              <path d="M22.8,87.4 C22.8,87.4 22.9,87.4 23.1,87.2 C23.2,87.1 23.3,87.1 23.4,87 C23.5,86.9 23.6,86.8 23.7,86.6 C23.8,86.4 23.8,86.3 23.9,86.1 C24,85.9 23.9,85.7 24,85.5 C24,85.1 23.9,84.6 23.8,84.1 C23.7,83.6 23.6,83.2 23.5,82.7 C23.4,82.3 23.3,81.9 23.1,81.5 C22.9,80.8 22.8,80.3 22.8,80.3 C22.8,80.3 23.1,80.7 23.5,81.3 C23.7,81.6 23.9,82 24,82.5 C24.2,82.9 24.3,83.4 24.4,83.9 C24.5,84.1 24.5,84.4 24.5,84.7 C24.5,85 24.5,85.2 24.5,85.5 C24.5,85.7 24.4,86 24.3,86.2 C24.2,86.4 24.1,86.6 24,86.8 C23.9,87 23.7,87.1 23.6,87.2 C23.5,87.3 23.3,87.3 23.2,87.4 C22.9,87.4 22.8,87.4 22.8,87.4 Z" fill="#99918A"/>
              <path d="M24.1,84.1 C24.1,84.1 24.2,84.2 24.3,84.5 C24.4,84.7 24.7,85 25,85.4 C25.1,85.6 25.3,85.8 25.5,85.9 C25.7,86.1 25.9,86.3 26.1,86.4 C26.3,86.6 26.5,86.7 26.8,86.9 C27,87.1 27.3,87.2 27.6,87.3 C27.9,87.4 28.2,87.5 28.4,87.6 C28.7,87.7 29,87.7 29.2,87.7 C29.5,87.7 29.7,87.7 30,87.7 C30.3,87.7 30.5,87.6 30.7,87.6 C31.2,87.6 31.5,87.5 31.8,87.4 C32.1,87.3 32.2,87.3 32.2,87.3 C32.2,87.3 32.1,87.4 31.8,87.5 C31.5,87.6 31.2,87.8 30.7,87.9 C30.5,88 30.2,88 29.9,88.1 C29.6,88.1 29.3,88.2 29,88.2 C28.7,88.2 28.4,88.2 28.1,88.1 C27.8,88 27.5,88 27.2,87.8 C26.9,87.7 26.6,87.5 26.3,87.3 C26,87.1 25.8,86.9 25.6,86.7 C25.4,86.5 25.2,86.3 25,86 C24.8,85.8 24.7,85.6 24.6,85.4 C24.2,84.8 24.1,84.1 24.1,84.1 Z" fill="#99918A"/>
              <path d="M34,88.1 C34,88.1 34.2,88.2 34.5,88.2 C34.8,88.3 35.3,88.4 35.8,88.4 C36.3,88.5 37,88.5 37.6,88.4 C37.8,88.4 37.9,88.3 38.1,88.3 C38.3,88.3 38.4,88.2 38.6,88.1 C38.9,88 39.2,87.8 39.5,87.6 L39.9,87.3 C40,87.2 40.1,87 40.2,86.9 C40.4,86.6 40.5,86.3 40.7,86.1 C41,85.5 41.1,84.9 41.1,84.4 C41.1,83.9 40.8,83.5 40.6,83.3 C40.4,83.1 40.2,83 40.2,83 C40.2,83 40.4,83 40.7,83.2 C41,83.4 41.4,83.7 41.5,84.3 C41.6,84.9 41.5,85.6 41.2,86.3 C41,86.6 40.9,87 40.7,87.3 C40.6,87.5 40.5,87.6 40.3,87.8 L39.9,88.2 C39.6,88.4 39.2,88.7 38.9,88.8 C38.7,88.9 38.5,88.9 38.3,89 C38.1,89 37.9,89.1 37.7,89.1 C37.3,89.1 37,89.1 36.7,89.1 C36.4,89.1 36.1,89 35.8,88.9 C34.6,88.6 34,88.1 34,88.1 Z" fill="#99918A"/>
              <path d="M33,81.3 C33,81.3 33.1,81.3 33.3,81.2 C33.5,81.1 33.8,81 34.1,80.8 C34.4,80.6 34.8,80.4 35.1,80.1 C35.3,80 35.4,79.8 35.5,79.6 C35.7,79.4 35.7,79.2 35.9,79 C36,78.8 36.1,78.6 36.2,78.4 C36.2,78.2 36.4,78 36.4,77.7 C36.4,77.5 36.5,77.3 36.5,77.1 C36.5,76.9 36.5,76.7 36.5,76.5 C36.5,76.1 36.5,75.8 36.5,75.6 C36.5,75.4 36.5,75.3 36.5,75.3 C36.5,75.3 36.5,75.4 36.6,75.6 C36.6,75.8 36.8,76.1 36.8,76.5 C36.9,76.9 36.9,77.3 36.9,77.8 C36.9,78 36.8,78.3 36.8,78.6 C36.7,78.9 36.6,79.1 36.5,79.4 C36.4,79.6 36.2,79.9 36,80.1 C35.8,80.3 35.6,80.5 35.4,80.6 C35.2,80.8 35,80.9 34.8,81 C34.6,81.1 34.4,81.2 34.2,81.2 C33.8,81.3 33.5,81.3 33.3,81.3 C33.1,81.4 33,81.3 33,81.3 Z" fill="#99918A"/>
              <path d="M42.6,69.2 C42.6,69.2 42.5,69.2 42.3,69.2 C42.1,69.2 41.9,69.2 41.6,69 C41.5,68.9 41.3,68.8 41.2,68.7 C41.1,68.6 40.9,68.5 40.8,68.3 C40.7,68.1 40.6,68 40.5,67.8 C40.4,67.6 40.3,67.4 40.3,67.2 C40.2,67 40.2,66.8 40.2,66.6 C40.1,66.4 40.2,66.2 40.1,66 C40.1,65.6 40.1,65.3 40.1,65 C40.2,64.4 40.3,64 40.3,64 C40.3,64 40.4,64.4 40.5,65 C40.6,65.6 40.7,66.3 40.9,67 C41,67.2 41,67.3 41.1,67.5 C41.2,67.7 41.2,67.8 41.3,67.9 C41.5,68.2 41.7,68.4 41.9,68.6 C42.2,69.1 42.6,69.2 42.6,69.2 Z" fill="#99918A"/>
              <path d="M17.6,80.2 C17.6,80.2 17.3,79.8 17,79.2 C16.7,78.6 16.4,77.7 16.2,76.8 C16.1,76.3 16.1,75.9 16.1,75.4 C16.1,75 16.2,74.5 16.3,74.2 C16.4,73.9 16.5,73.6 16.6,73.4 C16.7,73.2 16.8,73.1 16.8,73.1 C16.8,73.1 16.8,73.2 16.7,73.4 C16.6,73.6 16.6,73.9 16.6,74.2 C16.6,74.4 16.6,74.5 16.6,74.7 C16.6,74.9 16.6,75.1 16.6,75.3 C16.6,75.7 16.7,76.1 16.8,76.6 C16.9,77.5 17.1,78.3 17.3,79 C17.5,79.8 17.6,80.2 17.6,80.2 Z" fill="#99918A"/>
            </g>
            <g transform="translate(9.000000, 13.000000)">
              <ellipse id="Oval" fill="#592F25" transform="translate(18.696519, 9.497241) rotate(-2.876865) translate(-18.696519, -9.497241) " cx="18.6965194" cy="9.49724066" rx="1" ry="2.09991652"/>
              <ellipse id="Oval" fill="#592F25" transform="translate(5.497011, 10.197408) rotate(-2.876865) translate(-5.497011, -10.197408) " cx="5.49701074" cy="10.1974079" rx="1" ry="2.09991652"/>
              <path d="M14.4,8.5 C13.5,7.7 14.1,5.9 16.1,5.2 L15.6,6 C15.6,6 17.8,4.5 19.9,4.4 L19,5.2 C19,5.2 21.8,3.5 23.7,5.3 L22.2,5.7 C22.2,5.7 23.4,5.9 23.9,6.7 C23.9,6.7 22.6,5.9 20.9,6.8 C19.2,7.7 15.2,9.1 14.4,8.5 Z" id="Shape" fill="#C8BDB4"/>
              <path d="M10,9 C10.8,8.1 10,6.4 7.9,5.9 L8.5,6.7 C8.5,6.7 6.2,5.5 4.1,5.6 L5.1,6.2 C5.1,6.2 2.1,4.8 0.4,6.9 L2,7.1 C2,7.1 0.9,7.5 0.4,8.3 C0.4,8.3 1.6,7.4 3.4,8 C5.1,8.7 9.3,9.7 10,9 Z" id="Shape" fill="#C8BDB4"/>
              <path d="M17.4,11.3 C17.4,11.3 17.6,11.2 18,11.2 C18.4,11.2 18.8,11.2 19.3,11.3 C19.8,11.4 20.2,11.6 20.5,11.8 C20.8,12 21,12.2 21,12.2 C21,12.2 20.9,12.2 20.8,12.2 C20.7,12.2 20.5,12.2 20.4,12.2 C20.1,12.2 19.6,12.1 19.2,12 C18.8,11.9 18.3,11.8 18,11.6 C17.6,11.5 17.4,11.3 17.4,11.3 Z" id="Shape" fill="#A95947"/>
              <path d="M4,12.6 C4,12.6 4.2,12.4 4.5,12.3 C4.8,12.1 5.2,11.9 5.6,11.8 C6,11.7 6.5,11.6 6.8,11.7 C7.1,11.7 7.4,11.8 7.4,11.8 C7.4,11.8 7.2,11.9 6.9,12.1 C6.6,12.2 6.2,12.4 5.8,12.5 C5.4,12.6 5,12.7 4.6,12.7 C4.3,12.6 4,12.6 4,12.6 Z" id="Shape" fill="#A95947"/>
              <g transform="translate(3.000000, 18.000000)" id="Shape">
                <path d="M4.7,1.5 C4.7,1.5 3.2,1.2 2.2,3 C1.2,4.8 0.2,4.7 0.2,4.7 C0.2,4.7 1.4,5.7 2.7,4.9 C2.7,4.9 1.6,6.8 3.3,7.8 C3.3,7.8 3.2,6.4 3.6,5.7 C3.6,5.7 3.4,8.1 5.6,8.5 C5.6,8.5 5.5,7.9 5.5,7 C5.5,7 5.6,7.7 7.1,8 L7.1,5.9 C6.9,7.7 8.9,8.3 8.9,8.3 C9.5,7.5 8.9,5.8 8.9,5.8 C9.4,6 9.9,8.5 9.9,8.5 C10.4,7.8 10.3,5.8 10.3,5.8 C10.2,8.1 12.6,8.7 12.6,8.7 C12.1,8.2 12.9,5.7 12.9,5.7 C12.8,7.9 14,8.6 14,8.6 C14.9,8 14.6,6.3 14.6,6.3 L15.9,8.4 C17.3,7.3 16,5.7 16,5.7 C16.5,5.9 17.3,7.4 17.3,7.4 C17.3,6.1 16.6,4.6 16.6,4.6 C17,5.3 18.7,4.7 18.7,4.7 C18.2,4.7 17.1,3.7 16.4,3 C13.4,2.79776202e-14 9,1.5 9,1.5" fill="#C8BDB4"/>
                <path d="M0.2,4.7 C0.2,4.7 0.3,4.7 0.4,4.6 C0.5,4.5 0.7,4.4 0.8,4.2 C1,4 1.1,3.8 1.3,3.5 C1.5,3.3 1.7,3 1.9,2.7 C2.1,2.4 2.4,2.2 2.7,1.9 C3,1.7 3.3,1.6 3.6,1.5 C4.2,1.4 4.5,1.5 4.5,1.5 C4.5,1.5 4.4,1.5 4.3,1.6 C4.2,1.6 4,1.8 3.8,1.9 C3.4,2.1 3,2.6 2.6,3.1 C2.4,3.4 2.2,3.6 1.9,3.9 C1.7,4.1 1.4,4.3 1.2,4.5 C0.5,4.8 0.1,4.7 0.2,4.7 Z" fill="#99918A"/>
                <path d="M3.6,5.7 C3.6,5.7 3.7,6 3.8,6.3 C3.9,6.6 4.1,7 4.3,7.3 C4.4,7.5 4.6,7.6 4.7,7.7 C4.9,7.8 5,8 5.1,8 C5.2,8.1 5.4,8.2 5.5,8.2 C5.6,8.3 5.6,8.3 5.6,8.3 C5.6,8.3 5.5,8.3 5.4,8.3 C5.3,8.3 5.1,8.3 4.9,8.3 C4.7,8.3 4.5,8.2 4.3,8.1 C4.1,8 3.9,7.8 3.7,7.6 C3.4,7.2 3.3,6.6 3.3,6.2 C3.4,5.9 3.6,5.7 3.6,5.7 Z" fill="#99918A"/>
                <path d="M11.9,0.9 C11.9,0.9 12.4,0.8 13.2,0.9 C14,1 15,1.2 15.8,1.8 C16,1.9 16.2,2.1 16.4,2.3 C16.6,2.5 16.7,2.7 16.9,2.8 C17.2,3.1 17.5,3.4 17.8,3.6 C18.4,4.1 18.8,4.4 18.8,4.4 C18.8,4.4 18.3,4.3 17.6,3.9 C17.3,3.7 16.9,3.5 16.5,3.1 C16.1,2.8 15.8,2.5 15.4,2.2 C14.6,1.7 13.7,1.3 13,1.1 C12.4,1 11.9,0.9 11.9,0.9 Z" fill="#99918A"/>
                <path d="M14.7,6.1 C14.7,6.1 14.8,6.2 14.9,6.5 C15,6.7 15.1,7.1 15,7.4 C14.9,7.7 14.7,8.1 14.5,8.2 C14.3,8.4 14.1,8.4 14.1,8.4 C14.1,8.4 14.2,8.2 14.2,8 C14.3,7.8 14.3,7.5 14.4,7.3 C14.5,7 14.5,6.8 14.6,6.5 C14.7,6.3 14.7,6.1 14.7,6.1 Z" fill="#99918A"/>
                <path d="M9,5.7 C9,5.7 9.1,5.8 9.3,6 C9.4,6.2 9.5,6.5 9.6,6.9 C9.6,7.2 9.5,7.6 9.4,7.8 C9.2,8 9.1,8.1 9.1,8.1 L9.1,8 C9.1,7.9 9.1,7.8 9.1,7.7 C9.1,7.5 9.1,7.2 9,6.9 C9,6.6 9,6.3 9,6.1 C8.9,5.9 9,5.7 9,5.7 Z" fill="#99918A"/>
                <path d="M13,5.5 C13,5.5 13,5.7 13,6 C13,6.3 12.9,6.7 12.9,7 C12.8,7.4 12.8,7.7 12.7,8 C12.7,8.1 12.6,8.3 12.6,8.3 C12.6,8.4 12.6,8.4 12.6,8.4 C12.6,8.4 12.4,8.3 12.3,7.9 C12.2,7.6 12.2,7.2 12.2,6.8 C12.3,6.4 12.4,6 12.6,5.8 C12.9,5.6 13,5.5 13,5.5 Z" fill="#99918A"/>
                <path d="M10.4,6.4 C10.4,6.4 10.5,6.5 10.6,6.7 C10.7,6.9 10.7,7.2 10.6,7.4 C10.6,7.7 10.4,7.9 10.3,8.1 C10.1,8.3 10,8.3 10,8.3 C10,8.3 10,8.3 10,8.2 C10,8.1 10,8.1 10,8 C10,7.8 10,7.6 10,7.3 C10,7.1 10.1,6.8 10.2,6.6 C10.3,6.6 10.4,6.4 10.4,6.4 Z" fill="#99918A"/>
                <path d="M2.6,4.9 C2.6,4.9 2.6,5.1 2.6,5.4 C2.6,5.7 2.6,6.1 2.6,6.4 C2.6,6.7 2.8,7.1 2.9,7.3 C3,7.6 3.2,7.7 3.2,7.7 C3.2,7.7 3,7.7 2.7,7.5 C2.5,7.4 2.4,7.3 2.3,7.1 C2.2,6.9 2.1,6.7 2,6.4 C1.9,5.9 2.1,5.5 2.2,5.2 C2.4,5 2.6,4.9 2.6,4.9 Z" fill="#99918A"/>
                <path d="M16,8.2 C16,8.2 16.1,8 16.2,7.8 C16.3,7.6 16.3,7.3 16.3,7 C16.3,6.7 16.2,6.3 16.2,6.1 C16.1,5.8 16.1,5.6 16.1,5.6 C16.1,5.6 16.3,5.7 16.5,5.9 C16.7,6.1 16.9,6.5 17,7 C17,7.1 17,7.2 17,7.3 C17,7.4 16.9,7.5 16.9,7.6 C16.8,7.8 16.7,8 16.5,8.1 C16.2,8.3 16,8.2 16,8.2 Z" fill="#99918A"/>
                <path d="M11,1.5 C11,1.5 11.2,1.4 11.6,1.4 C12,1.4 12.5,1.5 12.9,1.7 C13.1,1.8 13.3,2 13.5,2.1 C13.7,2.3 13.8,2.4 13.9,2.6 C14.1,2.9 14.1,3.2 14.1,3.2 C14.1,3.2 13.9,3 13.6,2.9 C13.3,2.7 13,2.5 12.6,2.3 C12.2,2.1 11.8,1.9 11.5,1.8 C11.2,1.6 11,1.5 11,1.5 Z" fill="#99918A"/>
                <path d="M10.2,1.8 C10.2,1.8 10.3,1.7 10.5,1.7 C10.7,1.7 10.9,1.7 11.1,1.8 C11.3,1.9 11.4,2.1 11.5,2.3 C11.6,2.5 11.5,2.6 11.5,2.6 C11.5,2.6 11.4,2.6 11.2,2.5 C11,2.5 10.9,2.4 10.7,2.3 C10.6,2.2 10.4,2.1 10.3,2 C10.3,1.9 10.2,1.8 10.2,1.8 Z" fill="#99918A"/>
                <path d="M5.5,1.9 C5.5,1.9 5.4,2 5.3,2.2 C5.2,2.4 5,2.6 4.8,2.8 C4.6,3 4.4,3.2 4.3,3.3 C4.1,3.4 4,3.6 4,3.6 C4,3.6 3.9,3.4 4,3.2 C4,2.9 4.2,2.6 4.4,2.4 C4.6,2.2 4.9,2 5.2,1.9 C5.3,1.8 5.5,1.9 5.5,1.9 Z" fill="#99918A"/>
              </g>
              <g transform="translate(7.000000, 9.000000)" id="Shape">
                <path d="M4.7,0.4 C3.7,0.4 0.7,1.3 1.3,7.2 C1.3,7.2 -1.8,11 2.8,11.1 C7.4,11.2 9.3,9.3 7.7,8.3 C7.6,8.4 8.6,0.4 4.7,0.4 Z" fill="#C57761"/>
                <path d="M3.3,0.8 C2.8,1.2 2.5,1.6 2.2,2.1 C2.1,2.4 1.9,2.6 1.9,2.9 C1.8,3.2 1.7,3.4 1.7,3.7 C1.6,4.3 1.5,4.8 1.5,5.4 C1.5,5.7 1.5,6 1.5,6.3 L1.6,7.2 L1.6,7.3 L1.5,7.4 C1.1,7.9 0.7,8.4 0.6,9 C0.5,9.3 0.5,9.6 0.5,9.8 C0.6,10.1 0.7,10.3 1,10.5 C1.2,10.7 1.5,10.8 1.9,10.8 C2.2,10.9 2.5,10.9 2.9,11 C3.6,11.1 4.2,11.1 4.9,11 C4.2,11.1 3.6,11.2 2.9,11.2 C2.2,11.2 1.5,11.2 0.9,10.8 C0.6,10.6 0.3,10.3 0.2,9.9 C0.1,9.5 0.1,9.1 0.2,8.8 C0.4,8.1 0.8,7.5 1.2,7 L1,7.3 L0.9,6.4 C0.9,6.1 0.9,5.8 0.9,5.5 C0.9,4.9 1,4.3 1.1,3.7 C1.2,3.4 1.3,3.1 1.4,2.8 C1.5,2.5 1.7,2.3 1.9,2 C2.1,1.7 2.3,1.5 2.5,1.3 C2.8,1.1 3,0.9 3.3,0.8 Z" fill="#A95947"/>
                <path d="M4.2,7.2 C4.2,7.2 3.9,7.2 3.6,7.2 C3.2,7.2 2.8,7.2 2.4,7.2 C2.2,7.2 2,7.3 1.8,7.3 C1.6,7.4 1.4,7.4 1.3,7.5 C1.2,7.6 1,7.6 0.9,7.7 C0.8,7.8 0.7,7.8 0.7,7.8 C0.7,7.8 0.8,7.5 1,7.2 C1.2,6.9 1.7,6.6 2.3,6.5 C2.8,6.4 3.3,6.6 3.7,6.7 C4,7.1 4.2,7.2 4.2,7.2 Z" fill="#A95947"/>
              </g>
              <path d="M5.2,2.8 C5.2,2.8 6.1,2.9 7.5,3.2 C8.2,3.3 9,3.5 9.8,3.8 C10.2,3.9 10.6,4.1 11.1,4.2 C11.5,4.3 11.9,4.3 12.3,4.2 C13.1,4 13.9,3.5 14.7,3.2 C15.5,2.9 16.3,2.7 17,2.6 C17.3,2.5 17.7,2.5 18,2.5 C18.3,2.5 18.5,2.5 18.7,2.5 C19.1,2.5 19.3,2.5 19.3,2.5 C19.3,2.5 19.1,2.5 18.7,2.6 C18.3,2.6 17.7,2.7 17.1,2.9 C16.8,3 16.4,3.1 16.1,3.2 C15.7,3.3 15.4,3.5 15,3.7 C14.2,4 13.5,4.6 12.5,4.8 C12,4.9 11.5,4.9 11,4.7 L10.7,4.6 L10.4,4.5 C10.2,4.4 10,4.4 9.8,4.3 C9,4 8.2,3.8 7.6,3.5 C6.1,3.1 5.2,2.8 5.2,2.8 Z" id="Shape" fill="#A95947"/>
              <path d="M6.3,1.4 C6.3,1.4 7,1.5 8.1,1.7 C8.6,1.8 9.3,1.9 9.9,2.1 C10.2,2.2 10.6,2.3 10.9,2.3 L11.4,2.4 C11.6,2.4 11.8,2.5 11.9,2.5 C12.2,2.5 12.5,2.5 12.8,2.4 C13.1,2.3 13.4,2.1 13.7,1.9 C14.3,1.5 14.9,1.1 15.4,1 C15.7,0.9 15.9,0.9 16.2,0.9 C16.4,0.9 16.6,0.9 16.8,0.9 C17.1,0.9 17.3,1 17.3,1 C17.3,1 17.3,1 17,1 C16.7,1 16.2,1.2 15.8,1.4 C15.3,1.6 14.8,2 14.3,2.4 C14,2.6 13.7,2.8 13.3,3 C12.9,3.2 12.5,3.2 12.1,3.2 C11.9,3.2 11.7,3.1 11.5,3.1 C11.3,3.1 11.1,3 11,3 C10.7,2.9 10.3,2.8 10,2.7 C9.3,2.5 8.7,2.3 8.2,2.1 C7,1.7 6.3,1.4 6.3,1.4 Z" id="Shape" fill="#A95947"/>
              <path d="M11.4,6.7 C11.4,6.7 11.5,6.8 11.7,7 C11.8,7.2 12,7.5 12.1,7.7 C12.2,7.9 12.4,8.2 12.5,8.3 C12.6,8.5 12.8,8.6 12.8,8.6 C12.8,8.6 12.6,8.7 12.3,8.6 C12,8.5 11.7,8.3 11.5,8 C11.3,7.7 11.3,7.3 11.3,7.1 C11.3,6.9 11.4,6.7 11.4,6.7 Z" id="Shape" fill="#A95947"/>
            </g>
          </g>
          <g transform="translate(1.000000, 0.000000)" id="Shape">
            <g transform="translate(21.000000, 0.000000)">
              <path d="M0.8,51 C0.8,51 7.2,37.6 8.9,34.7 C10.6,31.8 14.4,29.5 15.6,27.1 C16.8,24.7 19.5,14.2 21.8,11.6 C24.1,9 30.8,3.8 31.4,1.77635684e-15 C31.4,1.77635684e-15 33.7,6.2 32.6,11.9 C31.9,15.6 32.1,18.5 33.6,22 C35.1,25.5 39.3,43.4 38.3,50.5 C38.4,50.5 20.6,44.8 0.8,51 Z" fill="#264A6E"/>
              <path d="M38.2,49.5 C38.2,49.5 38.1,48.2 38,46.3 C37.9,44.4 37.7,41.9 37.4,39.3 C37.1,36.8 36.7,34.3 36.4,32.4 C36.2,31.5 36.1,30.7 35.9,30.1 C35.8,29.6 35.7,29.2 35.7,29.2 C35.7,29.2 35.8,29.5 36,30 C36.2,30.5 36.4,31.3 36.7,32.2 C36.9,33.1 37.2,34.2 37.4,35.4 C37.6,36.6 37.8,37.8 38,39.1 C38.4,41.6 38.6,44.2 38.7,46.1 C38.8,48 38.8,49.3 38.8,49.3 L38.2,49.5 Z" fill="#1A324A"/>
              <path d="M12.1,31 C12.1,31 12.4,30.6 12.9,30 C13.4,29.4 14.1,28.7 14.8,28 C15.5,27.3 16.2,26.7 16.8,26.2 C17.4,25.7 17.7,25.4 17.7,25.4 C17.7,25.4 17.5,25.9 17,26.5 C16.6,27.1 15.9,27.8 15.2,28.5 C14.5,29.2 13.7,29.8 13.1,30.3 C12.5,30.7 12.1,31 12.1,31 Z" fill="#1A324A"/>
              <path d="M31.5,18 C31.5,18 31.8,18.4 32.2,19 C32.6,19.6 33.1,20.5 33.5,21.4 C33.9,22.3 34.2,23.3 34.3,24 C34.4,24.8 34.4,25.3 34.4,25.3 C34.4,25.3 34.3,25.2 34.3,25 C34.2,24.8 34.1,24.5 34,24.2 C33.7,23.5 33.3,22.6 32.9,21.7 C32.5,20.8 32.1,19.9 31.9,19.2 C31.7,18.4 31.5,18 31.5,18 Z" fill="#1A324A"/>
            </g>
            <g transform="translate(0.000000, 45.000000)">
              <path d="M0,14 C5.4,11.2 32.6,5.2 49.4,6.3 C66.2,7.4 79,11.9 85.8,14.2 C85.8,14.2 55.3,3.1 53.1,2.2 C50.9,1.3 44.5,-2.8 25.9,3.4 C7.3,9.6 0,14 0,14 Z" fill="#264A6E"/>
              <path d="M45.8,2.4 C45.8,2.4 47.2,2.3 49.2,2.4 C50.2,2.5 51.4,2.6 52.7,2.8 C53.3,2.9 54,3 54.6,3.1 C55.3,3.2 55.9,3.4 56.6,3.5 C57.9,3.8 59.2,4.2 60.4,4.6 C61.6,5 62.7,5.4 63.7,5.8 C64.7,6.2 65.4,6.6 65.9,6.8 C66.4,7.1 66.7,7.2 66.7,7.2 C66.7,7.2 66.4,7.1 65.8,6.9 C65.5,6.8 65.2,6.7 64.8,6.5 C64.4,6.4 64,6.2 63.5,6.1 C63,5.9 62.5,5.8 61.9,5.6 C61.3,5.4 60.8,5.3 60.2,5.1 C59,4.7 57.7,4.4 56.4,4.1 C53.8,3.5 51.1,3 49.1,2.7 C48.1,2.6 47.3,2.5 46.7,2.4 C46.2,2.5 45.8,2.4 45.8,2.4 Z" fill="#1A324A"/>
              <path d="M17.9,6.2 C17.9,6.2 18.9,5.6 20.4,5 C21.2,4.7 22.1,4.3 23.1,4 C24.1,3.7 25.2,3.4 26.3,3.1 C27.4,2.9 28.5,2.7 29.5,2.6 C30,2.5 30.5,2.5 31,2.5 C31.5,2.5 31.9,2.4 32.3,2.4 C33.1,2.4 33.8,2.4 34.3,2.4 C34.8,2.4 35.1,2.4 35.1,2.4 C35.1,2.4 34.8,2.4 34.3,2.5 C33.8,2.5 33.1,2.6 32.3,2.7 C31.5,2.8 30.5,2.9 29.5,3.1 C28.5,3.3 27.4,3.5 26.3,3.7 C25.2,3.9 24.2,4.2 23.2,4.5 C22.2,4.8 21.3,5 20.5,5.3 C18.9,5.8 17.9,6.2 17.9,6.2 Z" fill="#1A324A"/>
            </g>
          </g>
        </g>
      </g>
    </g>
  </g>
</svg>