<svg version="1.1" width="50" height="81" xmlns="http://www.w3.org/2000/svg" xmlns:xlink="http://www.w3.org/1999/xlink">
  <!-- Exported by Scratch - http://scratch.mit.edu/ -->
  <g id="ID0.14758666092529893">
    <path id="ID0.5710278595797718" fill="#FF9400" d="M 289 358 C 292.395 358.271 297.107 357.226 299 359 C 298.743 371.993 299.230 382.221 300 392 C 310.492 386.159 310.168 369.501 317 360 C 321.456 359.877 323.200 362.467 327 363 C 323.987 373.654 317.754 381.087 315 392 C 320.025 399.975 322.893 410.107 328 418 C 325.774 420.441 323.475 422.808 319 423 C 315.611 416.055 314.354 406.979 308 403 C 300.004 407.350 301.783 416.907 301 427 C 297.480 426.757 294.104 429.085 291 428 C 290.184 405.143 290.526 382.355 289 358 Z " transform="matrix(0.9749048948287964, 0, 0, 0.9749048948287964, -273.65, -345.15)"/>
    <path id="ID0.6252089650370181" d="M 332 418 C 332 421.667 332 425.333 332 429 C 324.771 429.105 322.576 434.243 317 436 C 313.710 428.624 310.176 421.490 309 412 C 301.679 414.451 305.066 422.906 305 430 C 302.535 429.868 300.182 429.849 299 431 C 298.978 433.355 300.723 433.944 300 437 C 294.667 437 289.333 437 284 437 C 280.753 413.061 284.625 384.990 281 362 C 281 361.667 281 361.333 281 361 C 282.314 359.717 284.686 359.717 286 361 C 287.121 357.850 286.090 358.736 286 355 C 291.333 355 296.667 355 302 355 C 302.651 360.349 300.687 368.313 303 372 C 306.412 368.746 306.215 361.882 309 358 C 314.347 361.290 313.602 357.807 318 356 C 322.102 358.231 328.233 358.433 331 362 C 329.712 372.853 318.338 381.452 319 392 C 319.589 401.383 328.795 409.020 332 418 Z M 291 428 C 294.104 429.085 297.480 426.757 301 427 C 301.783 416.907 300.004 407.350 308 403 C 314.354 406.979 315.611 416.055 319 423 C 323.475 422.808 325.774 420.441 328 418 C 322.893 410.107 320.025 399.975 315 392 C 317.754 381.087 323.987 373.654 327 363 C 323.200 362.467 321.456 359.877 317 360 C 310.168 369.501 310.492 386.159 300 392 C 299.230 382.221 298.743 371.993 299 359 C 297.107 357.226 292.395 358.271 289 358 C 290.526 382.355 290.184 405.143 291 428 Z " transform="matrix(0.9749048948287964, 0, 0, 0.9749048948287964, -273.65, -345.15)"/>
  </g>
</svg>