<svg version="1.1" width="55" height="82" xmlns="http://www.w3.org/2000/svg" xmlns:xlink="http://www.w3.org/1999/xlink">
  <!-- Exported by Scratch - http://scratch.mit.edu/ -->
  <g id="ID0.9805312547832727">
    <g id="ID0.2794777057133615">
      <g id="ID0.2817511581815779">
        <path id="ID0.1519448710605502" fill="#00CCCC" d="M 53.780 59.432 C 50.550 68.382 41.770 73.822 27.690 75.602 C 27.050 75.682 26.420 75.732 25.790 75.752 C 24.970 76.952 23.900 77.992 22.640 78.802 C 19.340 80.912 16.250 81.942 13.200 81.942 C 6.930 81.942 0.180 77.262 0.180 66.982 C 0.180 66.282 0.210 65.372 0.280 64.112 C 0.310 63.572 0.340 63.152 0.350 62.842 C 0.180 62.062 0.090 61.272 0.090 60.472 L 0.090 55.632 C 0.090 54.842 0.170 54.052 0.330 53.262 C 0.340 52.592 0.370 51.842 0.420 51.022 C 0.180 50.142 0 49.122 0 47.982 C 0 47.462 0.040 46.942 0.110 46.432 C 0.490 43.752 1.680 41.062 3.690 38.912 C 3 36.982 2.640 34.942 2.640 32.852 L 2.640 27.752 C 2.640 25.682 3.050 23.102 5.060 16.682 C 5.900 13.922 6.170 13.062 6.540 12.262 C 8.510 7.842 11.480 5.632 13.640 4.542 C 17.170 2.782 20.960 1.882 24.900 1.882 C 26.720 1.882 28.460 2.072 30.120 2.432 C 30.860 1.932 31.650 1.512 32.490 1.162 C 33.560 0.702 34.700 0.382 35.960 0.182 C 39.110 -0.358 42.440 0.312 45.340 2.072 C 48.390 3.932 51.890 7.792 51.460 15.732 C 51.390 17.132 51.270 19.002 51.090 21.442 C 51.080 21.502 51.080 21.562 51.070 21.622 C 50.910 23.392 50.680 26.032 50.370 29.522 C 50.450 30.872 50.420 32.382 50.300 34.162 C 50.250 34.842 50.140 35.522 49.960 36.182 C 49.920 36.332 49.880 36.472 49.840 36.602 C 51.190 38.332 52.110 40.062 52.740 41.562 C 53.330 42.752 53.830 44.122 54.270 45.792 C 54.440 46.422 54.550 47.062 54.600 47.712 C 55.050 53.322 54.820 56.632 53.780 59.432 Z "/>
      </g>
    </g>
    <g id="ID0.20706806425005198">
      <path id="ID0.570444684009999" fill="#FFFFFF" d="M 43.636 48.596 C 43.929 52.233 43.869 54.577 43.460 55.633 C 41.758 60.442 36.040 63.461 26.308 64.693 C 23.023 65.104 19.740 63.550 16.455 60.031 C 16.455 60.559 16.572 62.142 16.808 64.782 C 16.984 66.717 16.954 68.300 16.720 69.531 C 15.253 70.469 14.081 70.939 13.201 70.939 C 11.851 70.939 11.178 69.620 11.178 66.980 C 11.178 66.511 11.207 65.764 11.266 64.738 C 11.324 63.713 11.354 62.994 11.354 62.583 C 11.354 61.586 11.266 60.883 11.090 60.472 L 11.090 55.634 C 11.090 55.517 11.119 55.385 11.178 55.238 C 11.236 55.092 11.295 54.960 11.354 54.842 C 11.295 54.022 11.324 52.761 11.442 51.060 C 11.559 50.004 11.559 49.331 11.442 49.037 C 11.148 48.452 11.003 48.100 11.003 47.982 C 11.236 46.340 12.440 45.519 14.609 45.519 C 16.016 45.519 16.866 46.018 17.160 47.014 C 17.160 47.952 17.277 49.331 17.512 51.148 C 17.865 53.259 18.978 55.371 20.855 57.481 C 22.907 59.886 24.871 61 26.749 60.824 C 28.860 60.591 30.971 60.092 33.082 59.329 C 36.014 58.273 37.773 57.042 38.360 55.635 C 38.769 54.579 38.975 53.466 38.975 52.292 C 38.975 48.716 37.656 46.047 35.017 44.288 C 33.843 43.526 31.674 42.910 28.507 42.440 C 26.689 42.207 25.574 42.088 25.165 42.088 C 22.350 42.147 19.725 41.238 17.292 39.361 C 14.858 37.485 13.642 35.314 13.642 32.851 L 13.642 27.750 C 13.642 26.637 14.287 24.027 15.578 19.922 C 16.163 17.986 16.486 16.961 16.546 16.843 C 17.073 15.612 17.747 14.791 18.568 14.380 C 20.561 13.384 22.672 12.885 24.901 12.885 C 29.240 12.885 32.436 14.644 34.489 18.162 C 34.665 18.338 34.958 18.602 35.369 18.954 C 35.427 18.134 35.545 16.873 35.721 15.172 C 35.662 14.410 35.603 13.677 35.545 12.973 C 35.545 12.153 35.954 11.596 36.776 11.302 C 37.010 11.185 37.333 11.097 37.744 11.038 C 38.330 10.921 38.961 11.068 39.636 11.477 C 40.309 11.888 40.588 13.120 40.471 15.171 C 40.412 16.461 40.295 18.279 40.119 20.624 C 39.943 22.560 39.680 25.521 39.327 29.509 C 39.444 30.447 39.444 31.738 39.327 33.379 C 39.033 34.493 38.153 35.050 36.688 35.050 C 35.925 35.050 35.193 34.845 34.489 34.435 C 34.137 33.322 33.962 32.851 33.962 33.027 C 34.078 31.444 33.756 29.333 32.994 26.694 C 32.348 25.346 31.455 23.426 30.311 20.933 C 29.167 18.441 27.657 17.106 25.781 16.930 C 23.435 16.754 21.911 17.546 21.207 19.305 C 20.973 20.068 20.649 21.183 20.240 22.648 C 19.536 24.818 19.096 26.900 18.920 28.893 C 18.861 29.539 18.802 29.803 18.744 29.685 C 18.920 30.859 19.125 32.031 19.360 33.204 C 19.653 34.670 20.372 35.785 21.515 36.546 C 22.659 37.309 24.842 37.777 28.068 37.953 C 35.984 38.424 40.880 41.180 42.757 46.222 C 43.049 46.692 43.342 47.483 43.636 48.596 Z "/>
    </g>
  </g>
</svg>