<svg width="173px" height="265px" viewBox="0 0 173 265" version="1.1" xml:space="preserve" xmlns="http://www.w3.org/2000/svg" xmlns:xlink="http://www.w3.org/1999/xlink">
  <g>
    <title>Slice 1</title>
    <desc>Created with Sketch.</desc>
    <g id="Page-1" stroke="none" stroke-width="1" fill="none" fill-rule="evenodd">
      <g id="giraffe-c-[animals,savanna,robert-hunter]" transform="translate(0.000000, 1.000000)">
        <g id="Group-7" transform="translate(71.000000, 125.000000)">
          <polygon id="Fill-1" fill="#624B59" points="42.37194 132.407241 42.277918 133.473478 42.277918 137.673236 55.064874 137.673236 52.558631 134.076654 48.295309 132.407241"/>
          <path d="M0.646897,5.705005 C0.646897,5.705005 3.1854839,6.266971 2.6213535,15.071102 C2.057223,23.875233 2.2452665,27.621672 2.2452665,27.621672 C2.2452665,27.621672 1.5871143,30.056857 5.0659187,33.147669 C8.544723,36.238481 17.57081,47.009493 23.3068883,62.348911 C23.3068883,62.348911 28.2892883,73.609208 28.5713535,75.950732 C28.8534187,78.292256 27.9132013,80.63378 28.5713535,82.600661 C29.229506,84.567541 33.366462,90.655504 34.964832,98.242042 C34.964832,98.242042 39.853962,118.941117 39.289832,129.337484 C41.452332,130.086772 40.888201,131.823621 42.298527,132.407316 C43.708853,132.990262 46.811571,132.66657 48.221897,132.407316 C48.221897,132.407316 50.854506,131.210703 48.64161,125.310062 C45.852549,117.872632 43.356836,112.241735 41.92244,104.142683 C40.512114,96.181501 39.301867,91.392803 39.571897,88.688624 C39.758436,86.816154 40.208236,83.084701 40.136027,80.914763 C40.009662,77.121119 37.03331,75.482427 33.930593,67.521245 C30.827875,59.560062 26.22081,40.734208 25.6566796,36.987769 C25.0925491,33.24133 25.1865709,29.213909 26.22081,25.46747 C27.2550491,21.721031 30.169723,9.357783 29.699614,0.553652 C29.699614,0.553652 16.86151,13.104222 17.3624578,7.765547 C18.665223,-6.106017 1.9496622,4.540612 0.646897,5.705005" id="Fill-2" fill="#DEBB9B"/>
          <path d="M48.394521,132.407016 C48.136525,132.423501 46.639699,131.78286 46.70213,130.908441 C46.76456,130.034022 47.76796,128.222993 47.20383,126.849549 C46.639699,125.476105 45.694969,123.228991 46.699873,122.791407 C47.704777,122.353823 49.397169,126.662227 49.42876,128.348124 C49.460351,130.034022 49.334738,132.344825 48.394521,132.407016" id="Fill-4" fill="#AF7444"/>
          <path d="M41.306184,131.80339 C41.306184,131.80339 45.004623,130.054552 44.440493,128.555977 C43.876363,127.057401 43.119676,124.248322 42.902297,123.186581 C42.684919,122.12484 42.748102,120.937968 41.58825,121.250421 C40.428397,121.562874 39.237706,122.781216 39.237706,122.781216 L39.48818,128.930621 C39.48818,128.930621 41.352067,130.702686 41.306184,131.80339" id="Fill-6" fill="#AF7444"/>
          <path d="M46.257745,119.372032 C46.257745,119.372032 40.61945,119.649268 40.11775,119.149493 C39.61605,118.649719 38.362928,110.220231 38.362928,110.220231 C38.362928,110.220231 38.111702,107.909428 38.927058,107.847237 C39.741663,107.785046 43.367893,110.103342 43.369397,110.228473 C43.393467,111.843938 44.300589,111.74653 46.257745,119.372032" id="Fill-8" fill="#AF7444"/>
          <path d="M42.277993,106.140285 C42.277993,106.140285 38.550971,106.224205 37.986841,104.413176 C37.42271,102.602148 37.986841,94.422923 37.986841,93.17386 C37.986841,91.924797 38.927058,91.584621 39.491189,91.147786 C40.055319,90.710951 40.382515,95.62478 41.197119,99.808054 C42.011723,103.991327 42.277993,106.140285 42.277993,106.140285" id="Fill-10" fill="#AF7444"/>
          <path d="M36.795322,102.35286 C36.862266,102.593381 37.046548,96.670262 36.795322,95.484139 C36.544096,94.298017 36.043148,94.985113 35.354157,94.859982 C34.663661,94.734851 36.482418,101.228928 36.795322,102.35286" id="Fill-12" fill="#AF7444"/>
          <path d="M34.11495,94.773589 C34.240563,94.398946 37.735163,90.114518 37.735163,90.114518 C37.735163,90.114518 38.863424,89.739125 38.738563,88.553003 C38.612198,87.36688 37.98639,83.370928 37.735163,82.121866 C37.483937,80.872803 36.76862,79.999134 36.060824,80.373777 C35.353781,80.748421 34.287198,81.872353 33.346981,81.497709 C32.406763,81.123065 31.780203,80.310837 31.090459,81.060125 C30.401468,81.809413 29.758359,83.764305 29.382272,84.201139 C29.006185,84.637974 31.483094,87.366131 32.297698,90.050829 C33.112303,92.735527 34.11495,94.773589 34.11495,94.773589" id="Fill-14" fill="#AF7444"/>
          <path d="M39.491113,80.286186 C39.491113,80.286186 36.046909,79.686756 35.198457,78.375502 C34.350757,77.064248 34.914135,77.431399 36.419235,76.603436 C37.924335,75.774724 38.00557,77.327248 38.748718,78.444436 C39.491113,79.561624 39.491113,80.286186 39.491113,80.286186" id="Fill-16" fill="#AF7444"/>
          <path d="M37.413835,74.449909 C37.413835,74.449909 33.598809,77.127114 31.029383,77.189305 C28.4592043,77.251495 27.1812609,71.455755 27.1812609,71.455755 L33.07003,64.939199 C33.07003,64.939199 36.221639,73.517045 37.413835,74.449909" id="Fill-18" fill="#AF7444"/>
          <path d="M25.32467,65.450438 C25.2261352,65.084036 25.1366265,58.144133 26.0144135,56.958011 C26.8922004,55.771888 29.148722,54.773088 29.148722,54.773088 C29.148722,54.773088 30.338661,59.205874 31.154018,61.266415 C31.969374,63.326957 30.339413,66.073846 28.9606787,66.886073 C27.5811917,67.698301 26.0136613,68.010754 25.32467,65.450438" id="Fill-20" fill="#AF7444"/>
          <path d="M29.618079,53.323516 C29.618079,53.323516 25.1366265,54.95996 23.8203222,53.399194 C22.5040178,51.838427 23.6954613,51.026949 24.0715483,50.527174 C24.4476352,50.027399 28.0340004,47.910661 28.1588613,47.723339 C28.2844743,47.536017 29.618079,52.948872 29.618079,53.323516" id="Fill-22" fill="#AF7444"/>
          <path d="M23.8938096,63.523045 C23.8938096,63.523045 24.9483574,57.456812 24.2593661,56.208498 C23.5696226,54.960185 21.9396617,54.210897 21.4387139,52.025225 C20.9370139,49.839552 20.310453,47.802988 19.5582791,49.133723 C18.8061052,50.464458 18.4736443,51.514211 18.4736443,51.514211 C18.4736443,51.514211 24.1202139,62.064182 23.8938096,63.523045" id="Fill-24" fill="#AF7444"/>
          <path d="M27.6451265,46.509718 C27.6451265,46.509718 24.8688526,47.644889 24.5010396,48.21135 C24.1339787,48.778561 23.5698483,49.839552 22.8176743,49.59004 C22.0655004,49.340527 18.5551048,47.093413 18.3670613,45.531897 C18.1790178,43.970381 19.4953222,39.661977 20.1850657,37.164601 C20.8748091,34.667225 20.7491961,33.543293 22.2535439,32.856196 C23.7578917,32.169099 24.5093135,33.168649 24.948583,33.792806 C25.3878526,34.416963 27.0636961,44.857538 27.6451265,46.509718" id="Fill-26" fill="#AF7444"/>
          <path d="M25.2644209,31.649094 C25.2644209,31.649094 22.3301904,30.046367 21.7592904,29.109758 C21.1876383,28.173148 19.9961948,26.205518 19.8713339,25.253923 C19.746473,24.301578 19.3703861,23.798057 19.8713339,22.957356 C20.3722817,22.116655 25.8262948,20.367817 26.7040817,19.805852 C27.5811165,19.243886 27.9572035,19.555589 27.2050296,21.679071 C26.4528557,23.802552 25.6698426,28.469866 25.6698426,28.469866 L25.2644209,31.649094 Z" id="Fill-28" fill="#AF7444"/>
          <path d="M14.8016065,45.255485 C14.8016065,45.255485 15.9847761,45.28171 16.23525,44.095587 C16.4864761,42.909465 15.9223457,40.53722 17.0506065,37.664451 C18.1788674,34.791681 20.8114761,32.356496 20.4353891,31.357696 C20.0593022,30.358895 18.9934717,28.236163 18.6798152,27.361744 C18.3669109,26.487325 18.2157239,26.237813 17.60195,26.300003 C16.9874239,26.362194 15.0445587,29.483727 13.9787283,29.546667 C12.91365,29.609607 11.7853891,29.484476 11.3461196,30.79573 C10.9083543,32.106983 9.7800935,37.726642 9.7800935,37.726642 C9.7800935,37.726642 14.1750457,43.81985 14.8016065,45.255485" id="Fill-30" fill="#AF7444"/>
          <path d="M6.81194,34.79333 C6.937553,34.606008 10.53144,29.609008 11.2211835,28.797529 C11.910927,27.986051 12.2245835,26.907826 12.2870139,26.291162 C12.3494443,25.675247 11.5972704,25.234666 10.2185357,22.957581 C8.8398009,20.680495 9.0278443,19.930458 8.087627,20.055589 C7.1474096,20.18072 2.2582791,26.549666 3.6370139,24.863769 C5.0157487,23.177871 1.5580052,28.948885 3.2503965,31.009427 C4.9427878,33.069968 6.81194,34.79333 6.81194,34.79333" id="Fill-32" fill="#AF7444"/>
          <path d="M12.2909252,17.558213 C12.2909252,17.558213 11.4093774,23.236316 13.1017687,22.957581 C14.79416,22.678846 19.8713339,20.368042 22.1278557,18.526293 C24.3843774,16.684544 27.50966,15.684994 27.6081948,14.686193 C27.7067296,13.687393 27.5720904,12.812974 27.6081948,12.43833 C27.6442991,12.063686 27.7067296,11.500971 26.7665122,11.376589 C25.8262948,11.252207 20.8115513,10.565111 20.8115513,10.565111 C20.8115513,10.565111 19.62086,10.564361 18.9942991,11.001945 C18.3669861,11.439529 19.0567296,13.624452 17.1138643,14.686193 C15.170247,15.747934 13.7290817,15.935256 13.1649513,16.3099 C12.6008209,16.684544 12.3428252,17.182071 12.2909252,17.558213" id="Fill-34" fill="#AF7444"/>
          <path d="M3.8877135,20.430982 C3.8877135,20.430982 10.2059743,16.434281 12.0615874,14.935706 C13.9172004,13.43713 14.7054787,13.375689 15.1259439,12.376139 C15.5464091,11.376589 16.0458526,10.356809 15.9209917,6.173535 C15.7953787,1.990262 14.9777657,2.597185 14.2880222,2.347672 C13.5982787,2.098159 9.7652004,1.115843 9.7652004,1.115843 C9.7652004,1.115843 7.406383,3.772068 6.9039309,4.396224 C6.402983,5.020381 5.1408352,8.067734 4.2638004,9.441179 C3.3867657,10.814623 4.075757,13.624452 3.8877135,15.248159 C3.69967,16.871866 3.3687135,19.880256 3.8064787,20.042102" id="Fill-36" fill="#AF7444"/>
          <path d="M0.7203843,5.705005 C0.7203843,5.705005 3.2589713,6.266971 2.6948409,15.071102 C2.1307104,23.875233 2.3187539,27.621672 2.3187539,27.621672 C2.3187539,27.621672 1.6606017,30.056857 5.1394061,33.147669 C8.6182104,36.238481 17.6442974,47.009493 23.3803757,62.348911 C23.3803757,62.348911 28.3627757,73.609208 28.6448409,75.950732 C28.9269061,78.292256 27.9866887,80.63378 28.6448409,82.600661 C29.302993,84.567541 33.43995,90.655504 35.038319,98.242042 C35.038319,98.242042 39.92745,118.941117 39.363319,129.337484 C41.525819,130.086772 40.961689,131.823621 42.372015,132.407316 C43.782341,132.990262 46.885058,132.66657 48.295384,132.407316 C48.295384,132.407316 50.927993,131.210703 48.715097,125.310062 C45.926037,117.872632 43.430323,112.241735 41.995928,104.142683 C40.585602,96.181501 39.375354,91.392803 39.645384,88.688624 C39.831923,86.816154 40.281723,83.084701 40.209515,80.914763 C40.08315,77.121119 37.106797,75.482427 34.00408,67.521245 C30.901363,59.560062 26.2942974,40.734208 25.730167,36.987769 C25.1660365,33.24133 25.2600583,29.213909 26.2942974,25.46747 C27.3285365,21.721031 30.24321,9.357783 29.773102,0.553652" id="Stroke-38" stroke="#533D37" stroke-width="0.5625"/>
        </g>
        <g id="Group-280" transform="translate(0.000000, 0.422598)">
          <g id="Group-6" transform="translate(0.000000, 140.000000)">
            <path d="M24.3781822,1.14708 C24.4722039,11.543447 31.4298126,17.63141 29.1732909,30.088319 C26.9167691,42.545228 14.4118778,55.095798 14.4118778,55.095798 C14.4118778,55.095798 14.693943,71.954772 10.6510083,89.18839 C6.60807348,106.422009 0.402638696,116.25641 0.402638696,116.25641 C4.06948652,118.12963 8.58253,116.912037 8.58253,116.912037 C7.73633435,115.132479 10.4629648,105.017094 10.4629648,105.017094 C10.4629648,105.017094 19.2069865,75.420228 21.55753,67.833689 C23.9080735,60.247151 23.9080735,57.905627 39.6097039,36.363604 C55.3113343,14.821581 51.5504648,1.14708 51.5504648,1.14708 C51.5504648,1.14708 47.7895952,-3.442308 38.481443,6.01745 C31.0138604,13.606986 24.3781822,1.14708 24.3781822,1.14708" id="Fill-40" fill="#DEBB9B"/>
            <polygon id="Fill-42" fill="#AF7444" points="4.12243957 108.932497 9.68025261 108.162229 11.2462787 101.208839 6.76106565 102.341762"/>
            <path d="M7.62471174,99.859821 C7.71873348,99.672499 9.7074813,92.944645 9.7074813,92.944645 C9.7074813,92.944645 13.1892943,91.529989 13.9888552,91.717311 C14.7876639,91.904633 12.2227509,99.070072 12.2227509,99.070072 L7.62471174,99.859821 Z" id="Fill-44" fill="#AF7444"/>
            <path d="M15.2919213,88.720085 C15.2919213,88.720085 11.6852474,88.251781 10.7879039,88.600199 L11.8732909,83.327462 L17.8011735,80.293595 L15.2919213,88.720085 Z" id="Fill-46" fill="#AF7444"/>
            <path d="M12.3963526,80.290598 C12.3467091,80.397746 16.1512048,77.668091 17.0914222,77.246991 C18.0316396,76.825142 19.1132657,72.469533 19.1132657,72.469533 C19.1132657,72.469533 19.8180526,69.613248 18.5491352,69.894231 C17.2794657,70.175214 15.8691396,71.353094 16.0105483,69.874749 C16.1512048,68.395655 16.6213135,60.294356 16.6213135,60.294356 C16.6213135,60.294356 14.8191048,58.436123 14.5370396,58.529783 C14.2549743,58.623444 13.2177265,78.51104 12.3963526,80.290598" id="Fill-48" fill="#AF7444"/>
            <path d="M21.3378952,68.546337 C21.1972387,68.546337 17.4672083,68.302069 17.4205735,66.943611 C17.3731865,65.585901 17.7026387,59.825377 17.7026387,59.68526 C17.7026387,59.544394 17.56123,57.952158 18.5488343,57.624719 C19.5356865,57.296531 27.3793561,54.179494 27.3793561,54.179494 C27.3793561,54.179494 24.4676909,59.184736 23.9035604,60.823428 C23.33943,62.46287 21.3378952,68.546337 21.3378952,68.546337" id="Fill-50" fill="#AF7444"/>
            <path d="M14.4118778,55.095798 C14.4118778,55.095798 19.2069865,54.581037 22.7798126,52.754274 C26.3526387,50.928259 27.8569865,50.647276 28.2797083,49.382479 C28.7031822,48.117681 30.4895952,42.686094 30.4895952,42.686094 C30.4895952,42.686094 30.7716604,41.327635 29.5493778,41.79594 C28.3270952,42.264245 23.3965952,43.654923 23.3965952,43.654923 C23.3965952,43.654923 16.90383,53.831749 14.4118778,55.095798" id="Fill-52" fill="#AF7444"/>
            <path d="M24.9217783,41.103673 C25.2038435,40.869895 29.5965391,38.938981 31.0535,38.798864 C32.511213,38.657998 32.839913,38.705203 33.263387,37.90871 C33.6861087,37.112967 33.7801304,35.614391 34.8617565,35.708052 C35.9426304,35.801713 39.2288783,36.885183 39.2288783,36.885183 C39.2288783,36.885183 45.0665,28.278864 45.6780174,26.780289 C45.8051348,26.124662 44.3105652,22.501856 43.0416478,22.408195 C41.7719783,22.314534 38.9513261,24.421531 37.6824087,25.170819 C36.4127391,25.920106 36.0464304,25.87365 35.5244217,25.686328 C35.002413,25.499007 34.2502391,24.796175 33.8275174,26.341955 C33.4040435,27.886987 33.216,29.947528 33.216,29.947528 C33.216,29.947528 30.6225043,34.755707 29.1264304,35.567186 C27.1346739,36.647659 24.9217783,41.103673 24.9217783,41.103673" id="Fill-54" fill="#AF7444"/>
            <path d="M29.5391483,27.292352 C28.1182917,28.055876 33.73327,24.556702 33.5452265,22.405497 C33.357183,20.253543 31.9942439,18.661306 31.9942439,18.661306 C31.9942439,18.661306 30.7245743,17.771902 30.9600048,16.881748 C31.194683,15.992343 34.4388091,11.964922 34.4388091,11.964922 C34.4388091,11.964922 35.3316396,11.309295 35.0029396,10.606463 C34.6734874,9.90438 26.7290265,12.158238 26.7290265,12.158238 C26.7290265,12.158238 28.5116787,17.517144 29.1593004,20.362189 C29.8633352,23.453001 29.5391483,27.292352 29.5391483,27.292352" id="Fill-56" fill="#AF7444"/>
            <path d="M36.5069865,23.063746 C36.5069865,23.063746 34.7672083,18.661681 34.4385083,17.11665 C34.1090561,15.570869 34.4385083,14.634259 35.4727474,13.884972 C36.5069865,13.135684 38.0113343,12.807496 38.2933996,11.262464 C38.5754648,9.717433 38.9989387,7.844214 40.3144909,7.422365 C41.6307952,7.001265 44.4988343,5.221707 45.0629648,5.642806 C45.6270952,6.064655 45.7685039,13.18214 45.6270952,15.66453 C45.4864387,18.14692 44.0761126,19.832818 40.7845996,21.377849 C37.4938387,22.92363 37.6352474,24.094017 36.5069865,23.063746" id="Fill-58" fill="#AF7444"/>
            <path d="M47.2343404,23.690076 C47.2343404,23.690076 46.734897,22.313634 46.7040578,22.144295 C46.5235361,21.15074 46.0075448,17.465743 47.4133578,13.74478 C49.0591143,9.38917 51.0802057,6.06458 51.0335709,8.96807 C50.9861839,11.87156 50.9831752,13.511751 50.5551883,14.808768 C48.9282361,19.74133 47.2305796,23.577683 46.734897,22.313634" id="Fill-60" fill="#AF7444"/>
            <path d="M2.37709522,117.301292 L1.34285609,121.50105 L13.1895952,121.50105 L11.9673126,119.401546 C11.9673126,119.401546 9.61676913,118.440209 8.01839957,117.301292 C6.42003,116.162375 3.24736043,117.885736 2.37709522,117.301292" id="Fill-62" fill="#624B59"/>
            <path d="M24.3781822,1.14708 C24.4722039,11.543447 31.4298126,17.63141 29.1732909,30.088319 C26.9167691,42.545228 14.4118778,55.095798 14.4118778,55.095798 C14.4118778,55.095798 14.693943,71.954772 10.6510083,89.18839 C6.60807348,106.422009 0.402638696,116.25641 0.402638696,116.25641 C4.06948652,118.12963 8.58253,116.912037 8.58253,116.912037 C7.73633435,115.132479 10.4629648,105.017094 10.4629648,105.017094 C10.4629648,105.017094 19.2069865,75.420228 21.55753,67.833689 C23.9080735,60.247151 23.9080735,57.905627 39.6097039,36.363604 C55.3113343,14.821581 51.5504648,1.14708 51.5504648,1.14708" id="Stroke-64" stroke="#533D37" stroke-width="0.5625"/>
          </g>
          <g id="Group-5" transform="translate(8.000000, 135.000000)">
            <path d="M14.8724048,0.870595821 C14.8724048,0.870595821 17.3026787,34.0265787 6.14568304,40.2082027 C6.14568304,40.2082027 18.7445961,32.3406813 16.6821352,7.95735935" id="Fill-66" fill="#AF7444"/>
            <path d="M14.8724048,0.870595821 C14.8724048,0.870595821 17.3026787,34.0265787 6.14568304,40.2082027 C6.14568304,40.2082027 18.7445961,32.3406813 16.6821352,7.95735935" id="Stroke-68" stroke="#533D37" stroke-width="0.5625"/>
            <path d="M2.0971826,36.672463 C2.0971826,36.672463 2.3469043,41.105999 6.4838609,40.044258" id="Stroke-70" stroke="#533D37" stroke-width="0.5625"/>
            <path d="M0.56786261,39.147136 C0.75590609,39.209327 4.1369278,41.891028 6.1459843,40.208127" id="Stroke-72" stroke="#533D37" stroke-width="0.5625"/>
            <path d="M0.56786261,41.519456 C0.81833652,41.519456 4.6416365,43.080222 5.83308,40.208202" id="Stroke-74" stroke="#533D37" stroke-width="0.5625"/>
            <path d="M3.0770396,42.986561 C3.265083,42.862179 5.5847874,43.673658 6.2737787,40.208202" id="Stroke-76" stroke="#533D37" stroke-width="0.5625"/>
          </g>
          <g id="Group-4" transform="translate(22.000000, 7.000000)">
            <path d="M122.763467,21.7224473 C122.763467,21.7224473 123.938362,23.6114017 126.783084,25.398453 C129.627053,27.1862536 134.140097,28.872151 140.81564,28.466037 C140.81564,28.466037 141.630245,31.4002479 143.698723,32.0873447 C145.767201,32.7744416 148.651036,32.8366325 150.280245,32.0873447 C150.719514,31.8378319 150.629253,31.6227863 149.904158,28.153584 C149.089553,24.2520427 142.633645,20.7865869 135.330788,4.6769003 C135.330788,4.6769003 132.918567,0.24336467 124.738675,2.52269801 C118.172197,3.9583333 110.697093,17.8666125 106.511245,23.9912906 C101.992184,30.6599516 87.739993,56.1859373 65.268797,65.0837293 C65.268797,65.0837293 60.6775274,67.1322821 57.120497,68.0576524 C55.6086274,68.4502792 51.08731,68.8653846 49.4423057,70.5977379 C47.7965491,72.3308405 42.0145883,79.0744302 40.7923057,80.2920228 C39.570023,81.5096154 35.4887274,86.0817692 31.0140448,89.6109145 C24.0090491,95.136912 15.5470926,96.729148 10.2352404,104.315687 C4.1072796,113.067368 0.3155709,119.11412 0.9270883,131.477368 C1.5378535,143.840615 14.2879535,155.201316 26.3595926,154.284188 C43.0014404,153.01939 64.4263622,134.804205 69.2966883,130.744564 C74.5656665,126.352239 85.027653,120.500302 84.042306,113.260684 C83.290132,107.734687 82.510127,102.845584 82.087406,100.456855 C82.087406,100.456855 80.986223,96.776353 86.063397,90.5947293 C86.063397,90.5947293 96.751036,77.4200028 104.209593,63.0584046 C111.668901,48.6968063 118.86194,31.3155783 120.804806,27.4440085 C120.804806,27.4440085 123.601388,28.1693191 126.924493,25.4861197" id="Fill-86" fill="#FADAB9"/>
            <path d="M14.4739661,151.485299 C14.4739661,151.485299 12.2663357,147.790561 12.4543791,147.790561 C12.6424226,147.790561 15.5886878,145.043672 15.3382139,141.859199 C15.0869878,138.674726 16.7793791,138.548846 18.033253,136.738566 C19.287127,134.928287 21.5428965,130.182299 21.4804661,136.176601 C21.4180357,142.170903 21.4819704,151.412618 21.4819704,151.412618 L14.4739661,151.485299 Z" id="Fill-88" fill="#AF7444"/>
            <path d="M27.3732974,143.607512 C27.3732974,143.607512 25.6809061,134.365797 25.8689496,134.303606 C26.056993,134.241415 33.2026452,135.303156 33.2026452,135.303156 L31.8863409,143.607512 L27.3732974,143.607512 Z" id="Fill-90" fill="#AF7444"/>
            <path d="M28.5015583,146.666929 C28.5015583,146.666929 33.0146017,146.167903 33.4531191,143.607587 C33.8916365,141.047271 34.0172496,137.426712 35.2711235,137.925738 C36.5242452,138.424764 39.5961235,139.611635 39.5961235,139.611635 C39.5961235,139.611635 42.9809061,137.924989 43.9835539,136.926188 C44.9862017,135.927387 44.9237713,140.360923 45.1118148,143.170752 C45.2998583,145.980581 38.7183365,149.602638 33.9548191,151.412917 C31.6982974,152.162205 27.4567887,146.857248 28.5015583,146.666929" id="Fill-92" fill="#AF7444"/>
            <path d="M22.7970713,153.348253 C22.5518626,153.296552 22.7970713,138.424689 22.7970713,138.424689 L24.6775061,138.424689 C24.6775061,138.424689 26.6873148,149.775649 29.5282757,151.485523 C32.3684843,153.194649 24.8655496,153.785087 22.7970713,153.348253" id="Fill-94" fill="#AF7444"/>
            <path d="M13.2068539,139.236917 C13.0451365,139.351558 13.2068539,132.180874 13.2068539,132.180874 C13.2068539,132.180874 13.7709843,130.057392 12.7683365,129.433236 C11.7656887,128.809079 9.6340278,128.746888 10.3862017,127.060991 C11.1383757,125.375093 11.0135148,124.937509 12.95638,123.813577 C14.8992452,122.689646 19.7883757,118.506372 19.7883757,118.506372 C19.7883757,118.506372 20.5405496,118.193919 21.8568539,121.878167 C23.1731583,125.562415 25.0242583,125.625355 22.6880061,128.184922 C20.3525061,130.744489 14.9616757,137.988603 13.2068539,139.236917" id="Fill-96" fill="#AF7444"/>
            <path d="M11.4851278,141.138684 C11.9860757,140.951362 11.4851278,132.646256 11.4851278,132.646256 C11.4851278,132.646256 12.0470017,131.522325 10.3245235,130.898168 C8.601293,130.274011 7.4730322,129.524724 7.4730322,129.524724 L7.4730322,120.533271 C7.4730322,120.533271 7.2225583,120.221567 4.9036061,122.781134 C2.5839017,125.340701 1.0208843,126.836279 1.0208843,126.836279 C1.0208843,126.836279 0.1363278,137.567578 5.1766452,143.059108 C5.9762061,143.85635 10.9834278,141.326006 11.4851278,141.138684" id="Fill-98" fill="#AF7444"/>
            <path d="M9.0698974,124.56294 C9.0067148,124.375618 9.0698974,115.634427 9.0698974,115.634427 C9.0698974,115.634427 8.505767,114.198792 9.8852539,112.262632 C11.2632365,110.326473 15.400193,104.020467 15.400193,104.020467 C15.400193,104.020467 16.3509409,102.222177 15.6514191,112.324823 C14.9518974,122.42747 15.400193,119.068413 15.400193,119.068413 C15.400193,119.068413 14.7112017,120.69212 11.45128,123.127305 C8.1928626,125.56249 9.0698974,124.56294 9.0698974,124.56294" id="Fill-100" fill="#AF7444"/>
            <path d="M17.78308,115.134577 L17.78308,102.646199 C17.78308,102.646199 17.2279757,101.709589 23.8049843,98.462925 C30.381993,95.216261 33.6404104,93.716936 33.6404104,94.965999 L33.6404104,107.454378 C33.6404104,107.454378 33.703593,108.141475 30.8829409,109.514919 C28.0622887,110.888364 19.6635148,115.571412 19.6635148,115.571412 C19.6635148,115.571412 17.78308,117.069988 17.78308,115.134577" id="Fill-102" fill="#AF7444"/>
            <path d="M24.1765583,123.376743 C23.88998,123.125731 22.0554278,120.004199 23.8049843,117.819275 C25.5545409,115.634352 28.3383365,112.761583 28.3383365,112.761583 C28.3383365,112.761583 29.2537322,111.012746 31.134167,114.822125 C33.0146017,118.631503 35.5840278,123.376743 35.5840278,123.376743 C35.5840278,123.376743 37.2132365,125.06264 35.5840278,126.93586 C33.9548191,128.809079 32.3872887,131.867672 32.3872887,131.867672 C32.3872887,131.867672 32.1992452,133.366996 29.127367,132.80503 C26.056993,132.243065 23.8049843,131.556717 23.8049843,131.556717 C23.8049843,131.556717 22.9324626,131.556717 23.8049843,130.307654 C24.6775061,129.058592 25.8539061,126.373894 25.8539061,126.373894 C25.8539061,126.373894 25.7433365,124.750187 24.1765583,123.376743" id="Fill-104" fill="#AF7444"/>
            <path d="M32.4504713,110.326473 L34.6438104,108.827897 L35.2711235,103.271179 C35.2711235,103.271179 35.1755974,102.209439 36.7273322,102.022117 C38.2798191,101.834795 41.1004713,101.33502 41.1004713,101.33502 C41.1004713,101.33502 42.4160235,101.148447 43.0425843,103.271179 C43.6698974,105.393912 45.1155757,109.764507 45.1155757,109.764507 C45.1155757,109.764507 46.4905496,110.889188 44.1708452,112.637276 C41.8526452,114.385365 40.2219322,115.571487 40.2219322,115.571487 C40.2219322,115.571487 38.9379713,116.882741 38.9853583,117.632028 C39.031993,118.381316 38.5927235,118.693769 37.7156887,119.068413 C36.8371496,119.443057 35.7720713,120.441858 35.2079409,119.068413 C34.6438104,117.694969 32.0112017,111.637726 32.0112017,111.637726 C32.0112017,111.637726 31.6486539,110.873453 32.4504713,110.326473" id="Fill-106" fill="#AF7444"/>
            <path d="M36.3082961,98.837569 C36.3240917,98.5416 36.0232222,94.527666 36.0232222,94.527666 C36.0232222,94.527666 36.02247,93.404483 37.0251178,93.280102 C38.0285178,93.15572 39.1567787,93.09278 39.2816396,92.343492 C39.4080048,91.5942043 40.473083,85.2252584 40.473083,85.2252584 C40.473083,85.2252584 40.4106526,84.5381615 41.85257,84.2886487 C43.2937352,84.0391359 46.17757,83.2898481 46.17757,83.2898481 C46.17757,83.2898481 47.8067787,82.8530134 47.4938743,84.7884236 C47.1794657,86.7238339 47.5337396,95.09113 47.5337396,95.09113 C47.5337396,95.09113 47.8067787,96.401634 44.8612657,97.775828 C41.9142483,99.150022 36.1556048,101.647398 36.3082961,98.837569" id="Fill-108" fill="#AF7444"/>
            <path d="M28.0799648,91.6820208 C28.0483735,91.7000037 28.8780213,94.592254 30.6952735,93.717836 C32.5125257,92.8434168 37.5280213,91.0323883 37.5280213,91.0323883 C37.5280213,91.0323883 38.4050561,90.5963028 38.4682387,88.6601433 C38.529917,86.7239838 38.72473,82.4575393 38.72473,82.4575393 C38.72473,82.4575393 31.9288387,89.4716219 28.0799648,91.6820208" id="Fill-110" fill="#AF7444"/>
            <path d="M25.2416365,93.35548 C24.9287322,93.099224 25.4402104,96.714537 23.8049843,97.463825 C22.1697583,98.213113 15.9086626,101.772229 15.9086626,101.772229 C15.9086626,101.772229 13.8439452,101.712286 13.1542017,100.967494 C12.4652104,100.222702 23.1731583,93.583264 25.2416365,93.35548" id="Fill-112" fill="#AF7444"/>
            <path d="M10.60877,104.295531 C10.60877,104.295531 12.2770917,105.893012 11.7076961,106.580109 C11.1383004,107.267206 6.5003961,113.698343 5.873083,116.820625 C5.24577,119.942907 4.869683,120.913234 3.9294657,120.521357 C2.9892483,120.130229 1.9948743,119.770571 1.9948743,119.770571 C1.9948743,119.770571 3.8091178,111.849101 10.60877,104.295531" id="Fill-114" fill="#AF7444"/>
            <path d="M36.3082961,133.616584 C36.3082961,133.616584 34.5181222,131.930687 34.9566396,130.994077 C35.3959091,130.057467 37.903657,126.311028 37.903657,126.311028 C37.903657,126.311028 38.6558309,125.282256 38.2797439,124.765997 C37.903657,124.250487 36.900257,123.16402 37.6524309,122.645513 C38.4046048,122.127755 39.9721352,120.603704 39.9721352,120.603704 C39.9721352,120.603704 40.974783,120.254536 41.1003961,119.505248 C41.225257,118.75596 40.473083,117.507647 42.6664222,116.445906 C44.8612657,115.384165 45.8631613,114.822199 45.8631613,114.822199 C45.8631613,114.822199 46.2400004,115.134652 47.1177874,116.82055 C47.9948222,118.506447 48.3084787,119.130604 47.8699613,119.505248 C47.4306917,119.879892 47.0546048,122.752661 47.8067787,125.624681 C48.5589526,128.496701 48.3709091,127.934735 48.3709091,127.934735 C48.3709091,127.934735 48.4965222,128.995726 46.7417004,130.432111 C44.9861265,131.868496 40.84917,136.426413 40.84917,136.426413 C40.84917,136.426413 39.67277,138.075595 38.7250309,136.783074 C37.7772917,135.489803 36.3082961,133.616584 36.3082961,133.616584" id="Fill-116" fill="#AF7444"/>
            <path d="M47.5402083,146.464172 L46.1772691,134.615684 C46.1772691,134.615684 45.4250952,132.616585 47.179917,131.868046 C48.9347387,131.119508 53.8870517,129.620932 53.8870517,129.620932 C53.8870517,129.620932 55.95553,128.933835 55.3913996,132.555892 C54.8272691,136.1772 52.9468343,136.488904 52.7587909,138.425063 C52.5707474,140.360474 52.4534083,143.431804 52.4534083,143.431804" id="Fill-118" fill="#AF7444"/>
            <path d="M45.5202452,101.772529 C45.4081713,101.618176 44.4867583,100.336144 45.5202452,99.586857 C46.5537322,98.837569 48.4965974,97.838019 48.6846409,96.901409 C48.8726843,95.9648 48.434167,92.7181359 49.3743843,92.7181359 C50.3146017,92.7181359 56.5200365,105.955803 58.0243843,107.891213 C59.5287322,109.826623 60.02968,110.202016 59.2775061,111.013495 C58.5253322,111.824974 53.1976843,118.499629 53.1976843,118.499629 C53.1976843,118.499629 52.7584148,118.680207 52.1318539,118.499629 C51.505293,118.31905 48.4018235,115.463515 47.5405843,114.331341 C46.678593,113.198418 46.6154104,113.074785 47.05468,112.449879 C47.4939496,111.824974 50.6297626,108.828572 45.5202452,101.772529" id="Fill-120" fill="#AF7444"/>
            <path d="M52.3286978,88.9095063 C52.3286978,88.9095063 51.5238717,87.7226345 52.3286978,87.2857997 C53.1350283,86.848965 56.4566283,83.539361 56.4566283,83.539361 C56.4566283,83.539361 56.2685848,76.7328311 57.1463717,76.4211274 C58.0241587,76.1094236 61.4713717,79.6056003 61.4713717,79.6056003 C61.4713717,79.6056003 65.983663,79.8558624 66.2348891,79.8558624 C66.4861152,79.8558624 66.7365891,80.1683154 66.8622022,81.3544379 C66.987063,82.5405604 67.990463,88.1699593 67.990463,88.1699593 C67.990463,88.1699593 68.8050674,89.2834009 66.1724587,90.4702726 C63.53985,91.6571444 56.7702848,95.715287 56.7702848,95.715287 C56.7702848,95.715287 55.8293152,96.464575 54.9522804,95.153321 C54.0752457,93.842068 52.3286978,88.9095063 52.3286978,88.9095063" id="Fill-122" fill="#AF7444"/>
            <path d="M39.7767957,81.3573601 C40.1604043,81.5416849 47.118013,78.9806194 47.870187,80.729457 C48.6223609,82.4782946 49.1233087,85.7871493 49.1233087,85.7871493 C49.1233087,85.7871493 48.8728348,88.0350125 51.443013,85.7871493 C54.0124391,83.539286 54.8902261,82.7899983 54.8902261,82.7899983 C54.8902261,82.7899983 55.0782696,82.9143801 55.2038826,79.7928473 C55.3287435,76.6713145 56.087687,76.1085994 55.4889565,74.9224769 C54.8902261,73.7363544 51.1331174,71.7912034 47.7468304,72.482796" id="Fill-124" fill="#AF7444"/>
            <path d="M56.70808,98.088281 C56.9359887,97.951911 62.5374278,94.778677 62.5374278,94.778677 C62.5374278,94.778677 63.5400757,93.842068 64.1042061,94.778677 C64.6683365,95.715287 65.232467,98.088281 67.4889887,98.525116 C69.7455104,98.961951 70.9362017,98.960452 71.3754713,100.116603 C71.8139887,101.272754 71.8764191,106.64215 71.8764191,106.64215 C71.8764191,106.64215 72.1276452,107.703142 70.6857278,108.51537 C69.2438104,109.327597 68.1095322,110.551184 68.1095322,110.551184 C68.1095322,110.551184 66.8624278,111.013495 65.734167,109.514919 C64.6059061,108.016344 64.730767,107.204865 61.7852539,106.892412 C58.8389887,106.579959 60.155293,106.892412 59.3406887,106.205315 C58.5253322,105.518219 56.582467,100.210264 56.331993,99.523917 C56.080767,98.837569 55.5542452,98.778375 56.70808,98.088281" id="Fill-126" fill="#AF7444"/>
            <path d="M66.2982974,93.342368 C66.4750583,92.3712906 67.4882365,91.6572194 68.4916365,90.9701225 C69.4950365,90.2830256 70.4969322,89.9713219 70.1840278,88.5349373 C69.8711235,87.0985527 68.8677235,86.2863248 69.68308,85.84949 C70.4976843,85.4126553 75.3243843,87.6597692 76.2646017,88.4719972 C77.2048191,89.2842251 76.8911626,89.5839402 77.2048191,91.6819459 C77.5177235,93.779952 78.583554,93.63384 79.085254,94.362148 C79.586202,95.091205 79.273297,94.529239 78.521123,95.653171 C77.7689496,96.777103 77.5801539,98.650322 76.3894626,98.712513 C75.1987713,98.774704 73.9787452,97.963974 71.892967,98.275678 C69.8079409,98.587382 70.2464583,98.587382 68.8677235,97.213937 C67.4889887,95.840493 65.9222104,95.402909 66.2982974,93.342368" id="Fill-128" fill="#AF7444"/>
            <path d="M52.3286978,69.5531558 C52.3286978,69.5531558 50.7528935,71.0509821 53.1350283,70.8014692 C55.5164109,70.5519564 56.4566283,70.0446886 58.0865891,70.8291929 C59.71655,71.6136972 61.3457587,75.6943182 61.7850283,76.4016459 C62.2235457,77.1082242 62.6522848,78.2314066 63.9415109,77.357737 C65.2322413,76.4840675 67.0502457,75.172814 68.4289804,74.7981701 C69.8077152,74.4235262 69.4316283,74.8596117 69.9957587,72.6746886 C70.5598891,70.4897655 71.3744935,70.5527057 70.9359761,69.178512 C70.4974587,67.8043182 68.4771196,67.7556145 65.776063,64.8828453" id="Fill-130" fill="#AF7444"/>
            <path d="M70.4976843,62.5139721 L72.7850452,67.5551801 C72.7850452,67.5551801 72.8798191,69.1159464 74.7602539,68.5539806 C76.6406887,67.9920148 78.645984,67.4307983 79.899858,67.4929892 C81.153732,67.5551801 81.09055,67.8054422 80.526419,65.4324479 C79.962289,63.0594536 78.700141,57.3281516 78.700141,57.3281516" id="Fill-132" fill="#AF7444"/>
            <path d="M69.2438104,80.167641 C69.1264713,79.9473504 67.1753322,77.5054217 69.2438104,76.4017208 C71.3122887,75.2972707 73.00468,73.9860171 73.6944235,72.6747635 C74.384167,71.36351 74.3209843,71.3013191 75.3243843,73.3618604 C76.3270322,75.4224017 78.081854,78.2951709 78.145037,79.2939715 C78.207467,80.2927721 78.019423,81.2293818 76.3270322,81.9786695 C74.6346409,82.7279573 71.1242452,84.414604 70.059167,84.1643419 C68.9933365,83.9140798 68.7421104,84.2887236 68.8677235,82.7279573 C68.9933365,81.1671909 69.8485583,81.3073077 69.2438104,80.167641" id="Fill-134" fill="#AF7444"/>
            <path d="M84.287289,68.6758148 C84.287289,68.6758148 80.107458,67.8673333 78.154815,68.991265 C76.2014191,70.1151966 76.659493,70.4890912 78.154815,72.8620855 C79.649384,75.2350798 80.275945,78.1700399 80.213515,80.1054501 C80.150332,82.0408604 79.523019,85.5385356 82.21881,83.789698 C84.914602,82.0408604 86.606993,80.2687949 88.863515,79.5622165 C91.120037,78.8563875 92.937289,78.7949459 92.310728,77.2334302 C91.684167,75.6719145 87.107941,72.8620855 86.042863,70.8015442 C84.977032,68.7410028 85.732967,68.8743761 84.287289,68.6758148" id="Fill-136" fill="#AF7444"/>
            <path d="M92.174885,82.457914 C92.174885,82.457914 86.544111,85.1680877 83.410555,86.1646405 C80.276246,87.1611932 79.711363,87.2428655 79.774546,88.1697345 C79.837729,89.0966034 80.025772,91.4066575 80.025772,91.4066575 C80.025772,91.4066575 82.09425,92.7179111 84.450059,92.7845977" id="Fill-138" fill="#AF7444"/>
            <path d="M95.583136,77.511416 C95.645566,77.324094 95.569597,75.1728889 93.940388,74.1111481 C92.310427,73.0494074 88.988075,72.4881909 89.740249,70.9266752 C90.492423,69.3651595 94.817423,64.0587037 96.572997,61.7479003 C98.327818,59.4370969 98.265388,58.6878091 99.205605,59.5622279 C100.145823,60.4366467 102.316597,64.3996296 102.233857,66.7261681" id="Fill-140" fill="#AF7444"/>
            <path d="M84.287289,66.5553305 C84.287289,66.5553305 82.406854,67.8673333 82.15638,65.681661 C81.905906,63.4959886 80.401558,59.4768091 81.59225,59.2070655 C82.782941,58.9380712 85.854819,58.0014615 86.98308,56.9397208 C88.111341,55.8779801 90.30468,52.5061852 90.931993,56.9397208 C91.558554,61.3732564 91.851902,61.7194274 92.174584,62.5136724 C92.498771,63.3086667 92.309976,65.1189459 88.988376,65.6187208 C85.666776,66.1184957 85.714915,66.2196496 84.287289,66.5553305" id="Fill-142" fill="#AF7444"/>
            <path d="M93.627032,59.2072903 C93.627032,59.2072903 92.326523,54.6291422 92.286658,54.0049855 C92.248297,53.3808288 92.185115,53.6303416 92.436341,52.6937319 C92.686815,51.7571222 94.62968,50.8834527 94.943337,48.1358145 C95.256993,45.3881764 95.044128,44.8891507 95.93395,44.3893758 C96.823771,43.8896009 100.521458,41.7668687 101.775332,41.2049028 C103.029206,40.642937 104.095037,40.2690425 105.473771,47.3243359 C106.852506,54.3796293 106.163515,52.9432447 105.473771,54.1923074 C104.784028,55.4413701 103.655767,59.0012362 102.653119,58.5636521 C101.650471,58.1260681 100.082941,56.1277177 98.39055,56.8148145 C96.698158,57.5019114 95.005767,60.5417718 94.316776,59.8749057 L93.627032,59.2072903 Z" id="Fill-144" fill="#AF7444"/>
            <path d="M89.392368,47.4162735 C89.392368,47.4162735 91.182542,50.821037 90.555981,51.4451937 C89.928668,52.0693504 83.848094,55.3160142 82.594973,56.065302 C81.341851,56.8145897 80.811568,56.4908974 81.138764,55.3729601" id="Fill-146" fill="#AF7444"/>
            <path d="M111.427303,48.2548014 C111.427303,48.2548014 108.92106,48.0105336 108.670586,46.0751234 C108.420112,44.1397131 106.414064,39.0820208 108.670586,38.3949239 C110.927107,37.7078271 115.905747,35.6233085 117.662073,34.4034681" id="Fill-148" fill="#AF7444"/>
            <path d="M95.433303,40.2058026 C95.759746,40.2058026 101.443172,38.8316088 102.236716,36.0217798 C103.029507,33.2119507 102.357063,31.2308339 102.65342,29.9720305" id="Fill-150" fill="#AF7444"/>
            <path d="M104.533554,38.6443618 C103.96491,38.4825157 104.471123,37.4582393 104.533554,35.7723419 C104.595984,34.0864444 104.407941,30.9019715 105.661815,29.5907179 C106.915689,28.2794644 110.676558,24.9698604 112.36895,23.8459288 C114.061341,22.7219972 113.998158,22.4732336 114.813515,22.7849373 C115.628119,23.096641 116.505154,26.4684359 117.006854,27.9048205 C117.508554,29.3412051 118.072684,29.2917521 117.446123,29.9721054 C116.81881,30.6524587 109.87098,34.7113504 107.609193,36.4594387 C105.348158,38.2075271 105.411341,38.8938746 104.533554,38.6443618" id="Fill-152" fill="#AF7444"/>
            <path d="M105.723493,25.2010906 C105.912289,25.2010906 108.356854,23.4709852 110.425332,22.2848627 C112.49381,21.0987402 113.057941,20.9736091 113.559641,18.9130678 C114.061341,16.8525265 115.69055,15.6034638 114.625471,14.7919852 C113.559641,13.9805066 112.724728,14.395612 112.635219,14.5282359" id="Fill-154" fill="#AF7444"/>
            <path d="M115.816163,18.8511017 C115.907928,18.6870077 117.570984,16.7283695 117.25808,13.9807313 C116.944423,11.2330932 116.24791,9.9840305 117.661997,8.6727769 C119.075332,7.3615234 118.87375,6.8003068 119.695123,9.110361 C120.51725,11.4204151 121.519897,14.79221 121.519897,14.79221 C121.519897,14.79221 122.335254,16.2285946 120.454819,17.1652043 C118.574384,18.101814 114.660823,20.9206345 115.816163,18.8511017" id="Fill-156" fill="#AF7444"/>
            <path d="M120.055264,29.0470348 C119.87399,28.922653 117.438451,26.2829123 117.661847,22.6608553 C117.88449,19.0387983 117.508403,19.7109094 118.260577,19.5932712 C119.012751,19.475633 120.61789,20.3500519 121.695756,21.0363994 C122.772869,21.722747 121.519747,22.3296701 122.836051,23.8687071 C124.152356,25.4077442 125.299421,26.5743852 125.299421,26.5743852 C125.299421,26.5743852 121.695756,27.355143 120.81496,27.443559 C120.430599,27.4825219 120.055264,29.0470348 120.055264,29.0470348" id="Fill-158" fill="#AF7444"/>
            <path d="M125.720037,13.5629285 C124.889637,12.7971564 123.33715,13.894863 123.400332,15.4676179 C123.463515,17.0403729 124.108128,22.0950681 125.720037,23.9090937 C127.331193,25.7231194 129.417723,25.2008658 129.417723,25.2008658 C129.417723,25.2008658 129.355293,21.9107433 128.728732,20.2248459 C128.101419,18.5389484 127.161202,14.8936635 125.720037,13.5629285" id="Fill-160" fill="#AF7444"/>
            <path d="M131.987902,19.7526447 C131.987902,19.7526447 129.22968,18.6639296 129.417723,17.0402231 C129.605767,15.4165165 130.609167,16.915092 132.677645,17.0402231 C134.746123,17.1653541 135.059028,17.4778071 134.306854,18.4766077 C133.55468,19.4754083 132.958206,20.2479239 131.987902,19.7526447" id="Fill-162" fill="#AF7444"/>
            <path d="M131.674245,24.5330256 C130.259406,22.8313932 129.292863,20.9746581 131.047684,21.4736838 C132.802506,21.9727094 133.546406,21.1005385 134.678428,22.6605556 C135.811202,24.2205726 137.324576,24.7832877 133.966119,24.8454786 C130.609167,24.9076695 132.403102,25.4096923 131.674245,24.5330256" id="Fill-164" fill="#AF7444"/>
            <path d="M136.019103,27.5923675 C136.019103,27.5923675 135.122511,25.7191481 136.626859,25.5318262 C138.131207,25.3445043 138.883381,24.5952165 139.259468,25.8442792 C139.635555,27.0933419 140.262868,27.1592792 139.509942,27.8426296 C138.757016,28.5259801 136.019103,27.5923675 136.019103,27.5923675" id="Fill-166" fill="#AF7444"/>
            <path d="M141.828593,22.6604806 C141.828593,22.6604806 143.081715,23.0980647 143.332941,22.6604806 C143.584167,22.2228966 143.269758,21.1686487 141.828593,19.2916829 C140.387428,17.4147171 138.944758,15.7288197 136.375332,15.7288197 C133.805906,15.7288197 134.32265,15.9131444 135.945089,16.2892869 C137.566776,16.6654293 137.612658,16.7905604 138.998915,18.9132926 C140.387428,21.0360248 141.264463,22.2243952 141.828593,22.6604806" id="Fill-168" fill="#AF7444"/>
            <path d="M138.99914,24.314908 C139.861884,24.3321416 140.512514,24.4085689 140.136427,23.5341501 C139.76034,22.6597313 138.63208,20.4118681 137.503819,18.9132926 C136.375558,17.4147171 136.391353,17.2273952 135.944562,18.3513268 C135.498523,19.4752584 134.683167,18.5903496 135.184867,19.9068481 C135.686567,21.2233467 137.486519,24.2841872 138.99914,24.314908" id="Fill-170" fill="#AF7444"/>
            <path d="M136.019103,10.5460712 C136.019103,10.5460712 132.789268,10.5138519 132.043863,7.5331852 C131.298459,4.5517692 132.677946,5.8008319 132.552333,5.0515442 C132.42672,4.3022564 133.148055,4.0527436 133.570777,5.61351 C133.99425,7.1742764 135.011942,8.7972336 135.944637,9.2348177 C136.877333,9.6724017 136.978877,10.2336182 136.019103,10.5460712" id="Fill-172" fill="#AF7444"/>
            <path d="M128.164602,10.5460712 C129.04615,9.2782764 130.734028,9.9841054 131.047684,9.1726268 C131.361341,8.3611481 131.423019,6.1747265 129.605767,6.7996325 C127.788515,7.4245385 127.411676,8.110886 127.161202,9.3599487 C126.910728,10.6090114 127.600471,11.3575499 128.164602,10.5460712" id="Fill-174" fill="#AF7444"/>
            <path d="M124.528593,6.6891125 C124.528593,6.6891125 121.557506,7.9629017 121.695154,8.7863689 C121.833554,9.6090869 122.393923,12.0450214 123.398828,11.5452464 C124.403732,11.0454715 124.878354,11.6696282 125.298819,9.9837308 C125.720037,8.2978333 126.585037,5.5749217 124.528593,6.6891125" id="Fill-176" fill="#AF7444"/>
            <path d="M125.843468,5.2388661 C125.00329,5.6262479 124.986742,4.8724644 127.108625,4.462604 C129.229755,4.0527436 131.799181,4.2138405 129.417799,4.850735 C127.036416,5.4883789 126.656568,4.8642222 125.843468,5.2388661" id="Fill-178" fill="#AF7444"/>
            <path d="M137.31555,13.364667 C136.002254,12.8911171 135.569002,11.544647 136.69275,12.0444219 C137.81725,12.5441969 140.586002,14.5432966 137.31555,13.364667" id="Fill-180" fill="#AF7444"/>
            <path d="M140.825945,27.4050456 C140.37765,27.1817578 140.763515,26.1956952 141.139602,25.2703248 C141.515689,24.3457037 143.019284,22.5976154 142.20468,24.7203476 C141.390076,26.8430798 141.452506,27.7167493 140.825945,27.4050456" id="Fill-182" fill="#AF7444"/>
            <path d="M82.64928,96.258296 L75.7142361,101.772304 C75.7142361,101.772304 73.8819404,102.448162 74.1331665,104.295905 C74.3843926,106.1429 74.3843926,107.890988 74.3843926,107.890988 C74.3843926,107.890988 74.7604796,108.951979 76.1392143,108.327823 C77.5179491,107.703666 78.145262,107.07876 78.521349,107.578535 C78.897436,108.07831 84.005449,115.131356 84.052084,113.260384 C84.099471,111.387914 82.068601,100.116378 82.068601,100.116378 C82.068601,100.116378 82.21001,98.288116 82.64928,96.258296" id="Fill-184" fill="#AF7444"/>
            <path d="M83.598297,116.124611 L79.328206,117.319725 C79.328206,117.319725 78.583554,117.757309 78.583554,119.130754 L78.583554,123.470628 C78.583554,123.470628 81.770515,120.533421 82.585871,118.960666 C83.400476,117.38866 83.598297,116.124611 83.598297,116.124611" id="Fill-186" fill="#AF7444"/>
            <path d="M77.2048191,115.384165 L78.583554,114.822199 C78.583554,114.822199 79.258254,115.009521 79.328206,114.072912 C79.398158,113.136302 78.89721,112.199692 77.2048191,111.075761 C75.5124278,109.951829 75.6365365,109.702316 72.7850452,111.075761 C69.9335539,112.449205 69.306993,111.82355 69.1189496,112.760909 C68.9309061,113.698268 70.0456278,114.634877 68.1095322,115.384165 C66.1726843,116.133453 65.6709843,116.320026 65.35808,116.944932 C65.0444235,117.569838 64.7939496,119.604903 64.7939496,122.645513 C64.7939496,125.686872 64.9315974,125.874943 66.2411322,125.437359 C67.5514191,124.999775 70.7526713,124.625131 73.2265713,124.999775 C75.7004713,125.374419 76.884393,124.62588 76.8565626,123.470479 C76.8287322,122.315077 76.4526452,117.007872 77.2048191,115.384165" id="Fill-188" fill="#AF7444"/>
            <path d="M59.6227539,113.88559 C60.8284887,112.357043 60.2177235,109.01447 61.5340278,109.639376 C62.8503322,110.264282 64.1666365,109.452054 64.7939496,110.888439 C65.4205104,112.324823 65.2452539,112.636527 66.2411322,113.198493 C67.2385148,113.760459 68.6172496,113.839883 67.1129017,114.331416 C65.6085539,114.822199 63.5393235,116.383715 62.0981583,115.509296 C60.656993,114.634877 58.5900191,115.196843 59.6227539,113.88559" id="Fill-190" fill="#AF7444"/>
            <path d="M51.505293,125.613666 C51.505293,125.613666 54.9525061,117.25686 56.2688104,116.757834 C57.5851148,116.258809 60.02968,116.321749 60.7194235,116.446131 C61.409167,116.570513 62.4118148,115.932119 61.9732974,117.875023 C61.5340278,119.817926 61.9725452,126.249812 62.6622887,127.310803 C63.3520322,128.371795 63.5400757,128.89255 61.9732974,129.568407 C60.405767,130.245014 58.3372887,131.305256 57.7731583,131.867971 C57.2090278,132.430686 56.9585539,127.684698 54.4515583,128.371795 C51.9438104,129.058891 49.2487713,127.475646 51.505293,125.613666" id="Fill-192" fill="#AF7444"/>
            <path d="M61.5685526,136.970771 C61.5685526,136.721258 59.3398613,133.180124 60.9698222,132.555218 C62.599783,131.930312 64.4177874,131.74299 65.1699613,131.118833 C65.9221352,130.494677 65.1819961,130.303608 66.241057,128.868722 C67.30087,127.434585 65.2196048,126.810429 68.109457,127.185073 C70.9993091,127.559717 72.8609396,127.890152 73.0181439,127.890152 C73.1753483,127.890152 61.5685526,136.970771 61.5685526,136.970771" id="Fill-194" fill="#AF7444"/>
            <path d="M54.4515583,141.047271 C54.4515583,141.047271 54.8900757,136.426413 56.582467,135.052969 C58.2748583,133.679524 58.78408,134.615385 59.3436974,135.864447 C59.9048191,137.11351 60.3734235,137.710692 60.3734235,137.710692 L54.4515583,142.104516 L54.4515583,141.047271 Z" id="Fill-196" fill="#AF7444"/>
            <path d="M6.3344665,144.605638 C6.3344665,144.605638 8.2547665,143.632313 10.5744709,143.214211 C12.8941752,142.795359 14.164597,142.171202 12.4323404,145.168353 C10.6993317,148.165504 10.6948187,148.983726 10.6948187,148.983726 C10.6948187,148.983726 6.9106317,146.131188 6.3344665,144.605638" id="Fill-198" fill="#AF7444"/>
            <path d="M133.570852,3.0011932 C133.570852,3.0011932 122.021221,-4.06459031 115.310326,6.0987487 C109.022904,15.6206974 104.624191,22.9712103 102.653495,25.4813242 C86.712673,45.7787801 79.497821,56.470367 66.9876648,60.8102416 C70.1844039,61.3107658 70.0460039,61.79031 70.4980604,62.5141219 C70.9493648,63.2379339 89.011317,51.7086433 102.864104,29.6488627 C116.716139,7.5898313 120.89296,-0.88011738 133.570852,3.0011932" id="Fill-200" fill="#AF7444"/>
            <path d="M122.773019,21.7224473 C122.773019,21.7224473 123.947915,23.6114017 126.792637,25.398453 C129.636606,27.1862536 134.14965,28.872151 140.825193,28.466037 C140.825193,28.466037 141.64055,31.4002479 143.709028,32.0873447 C145.777506,32.7744416 148.661341,32.8366325 150.29055,32.0873447 C150.729819,31.8378319 150.638806,31.6227863 149.914463,28.153584 C149.099106,24.2520427 142.64395,20.7865869 135.341093,4.6769003 C135.341093,4.6769003 132.928119,0.24336467 124.748228,2.52269801 C118.18175,3.9583333 110.707397,17.8666125 106.520797,23.9912906 C102.001737,30.6599516 87.749545,56.1859373 65.2783496,65.0837293 C65.2783496,65.0837293 60.6878322,67.1322821 57.1300496,68.0576524 C55.61818,68.4502792 51.0976148,68.8653846 49.4518583,70.5977379 C47.8068539,72.3308405 42.0241409,79.0744302 40.8018583,80.2920228 C39.5795757,81.5096154 35.49828,86.0817692 31.0235974,89.6109145 C24.0193539,95.136912 15.5573974,96.729148 10.244793,104.315687 C4.1175843,113.067368 0.3258757,119.11412 0.9366409,131.477368 C1.5481583,143.840615 14.2982583,155.201316 26.3698974,154.284188 C43.0117452,153.01939 64.436667,134.804205 69.306993,130.744564 C74.5752191,126.352239 85.037958,120.500302 84.051858,113.260684 C83.299684,107.734687 82.51968,102.845584 82.096958,100.456855 C82.096958,100.456855 80.996528,96.776353 86.073702,90.5947293 C86.073702,90.5947293 96.761341,77.4200028 104.219897,63.0584046 C111.678454,48.6968063 118.871493,31.3155783 120.814358,27.4440085 C120.814358,27.4440085 123.611693,28.1693191 126.934797,25.4861197" id="Stroke-202" stroke="#533D37" stroke-width="0.5625"/>
            <path d="M133.966044,3.2617205 C133.966044,3.2617205 121.801887,-5.68852165 112.937518,9.5362561 C112.937518,9.5362561 104.741079,22.9200339 98.67254,31.120239 C92.521261,39.432088 77.7056917,58.188259 66.9872135,60.8107661 C66.9872135,60.8107661 70.0154657,61.3142875 70.7578613,62.5138972" id="Stroke-204" stroke="#533D37" stroke-width="0.5625"/>
          </g>
          <g id="Group-3" transform="translate(141.000000, 0.000000)">
            <path d="M16.905223,12.8768846 C16.842793,11.9957222 17.166228,4.28480199 16.62391,4.15967094 C15.887532,3.99033191 13.677645,8.99857123 12.987902,10.3098248" id="Fill-78" fill="#FADAB9"/>
            <path d="M16.905223,12.9010117 C16.842793,12.0198493 17.166228,4.30892906 16.62391,4.18379801 C15.887532,4.01445897 13.677645,9.02269829 12.987902,10.3339519" id="Stroke-80" stroke="#533D37" stroke-width="0.5625"/>
            <path d="M10.426524,8.51655442 C10.488954,8.42289345 10.622089,4.85703305 9.02372,1.68679658 L10.370863,2.5297453 L10.716111,0.96822963 L11.656328,1.9363094 L12.721407,0.62505584 C12.721407,0.62505584 12.000824,6.58788775 14.571002,10.7719105" id="Fill-82" fill="#FADAB9"/>
            <path d="M10.410427,8.51655442 C10.47361,8.42289345 10.605993,4.85703305 9.007623,1.68679658 L10.354767,2.5297453 L10.700014,0.96822963 L11.640232,1.9363094 L12.70531,0.62505584 C12.70531,0.62505584 11.98548,6.58788775 14.554906,10.7719105" id="Stroke-84" stroke="#533D37" stroke-width="0.5625"/>
            <path d="M11.7972101,10.2097199 C11.7972101,10.2097199 7.37818839,6.05716724 8.78851448,0.624831054 L7.72193187,1.81095356 L6.46881013,1.18679687 L5.9046797,2.17136097 L3.83620143,1.62363162 C3.83620143,1.62363162 8.85019274,6.40034103 6.78171448,10.9275376" id="Fill-206" fill="#FADAB9"/>
            <path d="M11.7972101,10.2097199 C11.7972101,10.2097199 7.37818839,6.05716724 8.78851448,0.624831054 L7.72193187,1.81095356 L6.46881013,1.18679687 L5.9046797,2.17136097 L3.83620143,1.62363162 C3.83620143,1.62363162 8.85019274,6.40034103 6.78171448,10.9275376" id="Stroke-208" stroke="#533D37" stroke-width="0.5625"/>
            <path d="M1.329206,14.8613732 C1.329206,14.8613732 0.326558,2.62250712 1.329206,2.18567236 C2.331854,1.74883761 6.092723,11.6147094 6.092723,11.6147094" id="Fill-210" fill="#FADAB9"/>
            <path d="M1.141163,14.8613732 C1.141163,14.8613732 0.138515,2.62250712 1.141163,2.18567236 C2.14381,1.74883761 5.90468,11.6147094 5.90468,11.6147094" id="Stroke-212" stroke="#533D37" stroke-width="0.5625"/>
            <path d="M3.084028,14.5042627 C3.084028,14.5042627 2.234823,9.82945641 2.14381,6.49512593 C2.079123,4.15510028 4.633506,9.60167293 4.766641,11.791841 C4.900528,13.9820091 5.026893,14.1468524 3.084028,14.5042627" id="Fill-214" fill="#A67C9F"/>
            <path d="M16.184641,20.7312185 C16.184641,20.7312185 12.820919,25.2179536 9.164602,19.5758168 C9.164602,19.5758168 11.372984,17.8839251 13.085684,18.1559165 C15.260219,18.5013382 15.969519,20.3648168 16.184641,20.7312185" id="Fill-216" fill="#A67C9F"/>
            <path d="M28.345037,37.4650618 C28.345037,37.4650618 26.75118,36.590643 26.093028,33.4848453 C26.093028,33.4848453 27.232571,33.8272698 27.77188,34.9039963 C28.757228,36.8671302 28.129915,37.0986601 28.345037,37.4650618" id="Fill-218" fill="#A67C9F"/>
            <path d="M13.974378,22.4676179 C13.974378,22.4676179 11.5945,22.0907262 11.796834,19.8570994 C11.953287,18.1254954 13.974378,18.264863 13.974378,18.264863 L16.184265,20.7315182 L13.974378,22.4676179 Z" id="Fill-220" fill="#1B110F"/>
            <path d="M9.164602,19.5758168 C9.164602,19.5758168 13.39558,15.6428054 16.184641,20.7312185 C16.184641,20.7312185 13.175945,25.320606 9.164602,19.5758168 Z" id="Stroke-222" stroke="#533D37" stroke-width="0.5"/>
            <path d="M28.345037,37.4650618 C28.345037,37.4650618 26.213376,36.1223382 26.088515,33.4061701 C26.088515,33.4061701 28.689532,34.5930419 28.345037,37.4650618 Z" id="Stroke-224" stroke="#533D37" stroke-width="0.5"/>
          </g>
          <g id="Group-2" transform="translate(64.000000, 126.000000)">
            <path d="M2.0048404,132.05058 L2.6629926,136.250338 L13.8515796,136.250338 L11.3129926,132.410238 L7.4746491,131.809309 C7.4746491,131.809309 2.3072143,131.507346 1.9108187,130.984343 C1.514423,130.46134 2.0048404,132.05058 2.0048404,132.05058" id="Fill-226" fill="#624B59"/>
            <path d="M38.485275,0.535969 C38.485275,0.535969 23.3477752,42.870726 19.7749491,57.950142 C16.202123,73.029558 17.6124491,78.085003 17.6124491,80.335114 C17.6124491,83.051282 15.0505448,86.599909 13.9456013,89.701211 C12.0839709,94.927493 11.8297361,95.929291 10.41941,106.981285 C8.1779317,124.550584 10.3863143,125.861838 9.4325578,127.540242 C8.0222317,130.021883 9.005323,130.633302 8.8684274,131.661325 C8.8684274,131.661325 2.9450578,132.504274 1.9108187,130.984718 C0.8765796,129.464413 0.1025926,129.606778 0.5004926,128.664174 C1.6287535,126.697293 5.0135361,112.273504 6.4238622,102.907407 C7.8341883,93.541311 7.179797,84.456197 7.179797,79.398504 C7.179797,74.340812 10.6082057,70.936798 12.3472317,53.360755 C14.0080317,36.572963 13.027197,38.602034 8.4141143,28.772877 C7.1113491,25.996017 12.8451709,11.124903 12.8451709,11.124903 C12.8451709,11.124903 16.24951,5.888131 17.3386578,8.374268 C19.0618883,12.308028 19.4402317,11.689866 23.753197,11.090436 C25.8953883,10.792219 29.53591,10.790721 29.53591,7.296792 C29.53591,3.621536 38.485275,0.535969 38.485275,0.535969" id="Fill-228" fill="#FADAB9"/>
            <path d="M0.7825578,128.037095 C0.9367535,127.849773 4.4494057,128.195944 5.5776665,126.510046 C6.7059274,124.824149 6.6457535,123.138252 7.8041013,122.388964 C8.9624491,121.639676 9.5055187,116.399158 9.5055187,116.399158 C9.5055187,116.399158 6.8119839,116.742331 5.2000752,117.14395 C3.5881665,117.545568 2.6660013,121.628437 2.2899143,122.93969 C1.9138274,124.250944 0.7825578,128.037095 0.7825578,128.037095" id="Fill-230" fill="#AF7444"/>
            <path d="M9.6147343,114.758442 C9.6147343,114.758442 5.8914735,114.288639 4.6375996,114.912795 C3.3837257,115.536952 4.5804343,113.241884 5.1445648,110.681568 C5.7086952,108.121251 6.2066343,105.593154 7.8042517,105.031189 C9.4018691,104.469223 10.5978257,105.593904 10.5978257,105.593904 C10.5978257,105.593904 9.7350822,113.696701 9.6147343,114.758442" id="Fill-232" fill="#AF7444"/>
            <path d="M10.4043665,101.471697 C10.4043665,101.471697 9.1414665,101.909281 8.6450317,100.84754 C8.1478448,99.7858 8.2644317,97.412805 8.6450317,94.166142 C9.0256317,90.919478 9.4017187,89.483842 10.4043665,88.047458 C11.4070143,86.611073 11.9087143,85.673714 12.4104143,86.29862 C12.9113622,86.923526 12.8481796,87.859387 13.0994057,88.359162 C13.3506317,88.858936 11.3445839,93.479045 11.1565404,95.290073 C10.968497,97.101102 10.4043665,101.471697 10.4043665,101.471697" id="Fill-234" fill="#AF7444"/>
            <path d="M15.6850035,84.987367 C15.6850035,84.987367 8.6581948,85.205409 7.9278339,82.957546 C7.1982252,80.709683 6.8747904,78.565971 7.3757383,76.817882 C7.8781904,75.069794 8.3355122,75.245877 9.5893861,74.559529 C10.84326,73.873181 15.7316383,71.874831 16.1077252,71.687509 C16.4838122,71.500187 16.3589513,71.437247 16.4213817,73.810241 C16.4838122,76.183236 18.1085078,79.441888 17.5443774,81.127785 C16.980247,82.813683 16.7500817,84.425401 15.6850035,84.987367" id="Fill-236" fill="#AF7444"/>
            <path d="M8.4144904,72.038026 C8.4144904,72.038026 14.540947,70.875131 15.544347,69.689009 C16.547747,68.502886 17.5503948,68.876781 16.9862643,67.628468 C16.4213817,66.380154 15.6067774,63.632516 14.9170339,62.508584 C14.2280426,61.384653 14.6673122,61.010009 13.7263426,61.197331 C12.7861252,61.384653 11.3396948,61.265516 10.7860948,61.806502 C10.233247,62.346738 9.8864948,67.115955 9.385547,68.114755 C8.4866991,69.904804 8.789073,70.185037 8.4144904,72.038026" id="Fill-238" fill="#AF7444"/>
            <path d="M18.035547,65.302528 C17.9099339,65.115207 13.6007296,58.074899 14.0399991,56.888776 C14.4785165,55.702654 15.6067774,55.515332 16.9855122,55.889976 C18.364247,56.26462 20.0889817,56.669984 20.0889817,56.669984 C20.0889817,56.669984 19.1201817,59.730825 19.0577513,61.151474 C18.9953209,62.571375 18.035547,65.302528 18.035547,65.302528" id="Fill-240" fill="#AF7444"/>
            <path d="M13.1185109,51.45674 C13.1185109,51.45674 15.6074543,54.767093 17.6759326,54.516831 C19.7444109,54.266569 20.7605978,54.134694 20.7605978,54.134694 L21.5586543,51.312877 C21.5586543,51.312877 20.13855,45.774891 17.089237,44.463637 C14.0399239,43.152384 14.9801413,44.151184 14.5408717,46.211726 C14.1031065,48.272267 13.1185109,51.45674 13.1185109,51.45674" id="Fill-242" fill="#AF7444"/>
            <path d="M19.4400061,44.401446 C19.43098,44.396951 15.2932713,42.153583 15.0427974,41.279164 C14.7915713,40.404746 14.6035278,39.655458 15.0427974,37.90737 C15.4805626,36.159281 16.64568,31.164529 16.7224017,29.603013 C16.796867,28.041498 16.9849104,28.665654 18.3012148,27.666854 C19.6175191,26.668053 22.4389235,24.981407 22.75258,24.295059 C23.0654843,23.608711 22.8774409,22.858674 23.5047539,25.231669 C24.1305626,27.604663 26.3246539,27.417341 25.2588235,29.29056 C24.1937452,31.16378 21.74918,37.095891 21.6859974,39.031301 C21.6243191,40.966711 20.7435235,45.143991 19.4400061,44.401446" id="Fill-244" fill="#AF7444"/>
            <path d="M32.9549165,16.32511 C32.766873,16.387301 26.3252557,18.674876 24.9465209,19.299782 C23.5677861,19.924688 22.1882991,21.235942 23.6302165,22.547195 C25.0721339,23.858449 26.4508687,24.732868 26.5764817,25.91899 C26.7020948,27.105113 25.8235557,28.665879 26.4508687,28.79101 C27.0781817,28.916141 28.4208122,29.995865 29.4227078,26.686261 C30.4261078,23.376657 32.9549165,16.32511 32.9549165,16.32511" id="Fill-246" fill="#AF7444"/>
            <path d="M9.2357139,28.50688 C8.9303313,28.573567 12.8145574,25.072895 13.7457487,24.510929 C14.6761878,23.948963 15.9300617,23.698701 15.6164052,22.263066 C15.3027487,20.82743 13.046227,21.7011 12.2316226,19.453236 C11.4170183,17.205373 12.0623835,17.143932 11.3952052,16.89367 C10.7272748,16.643407 8.7528183,23.206419 8.7528183,24.642803 C8.7528183,28.24463 8.1458139,28.745154 9.2357139,28.50688" id="Fill-248" fill="#AF7444"/>
            <path d="M18.2397622,15.17855 C18.2457796,15.428812 18.1953839,18.862798 19.4402317,19.05012 C20.6843274,19.237442 21.5613622,19.549895 23.56741,18.300832 C25.5734578,17.051769 25.4004578,17.17765 27.3673926,16.552744 C29.3343274,15.927838 30.2113622,15.428063 30.9011057,15.17855 C31.5908491,14.929037 33.1132491,15.865647 34.0015665,12.914952 C34.4468535,11.436607 32.2798404,11.432111 30.0233187,12.181399 C27.766797,12.930687 27.464423,15.428812 25.5471317,14.741715 C23.6298404,14.054618 25.1966187,12.744114 21.9374491,12.993627 C18.6782796,13.24314 18.2202057,14.364074 18.2397622,15.17855" id="Fill-250" fill="#AF7444"/>
            <path d="M11.8595222,13.525546 C11.8595222,13.525546 8.9072396,21.87486 8.3137743,27.464546 C7.944457,30.941241 13.12167,34.458398 13.1186613,39.704162 C13.1141483,46.799167 12.9057961,50.02635 12.3469309,53.36068 C9.432257,70.78162 7.1794961,74.340737 7.1794961,79.398429 C7.1794961,84.456122 7.8338874,93.541236 6.4235613,102.907332 C5.0132352,112.273429 1.6284526,126.697219 0.5001917,128.664099 C0.1022917,129.606703 0.8762787,129.464338 1.9105178,130.984643 C2.944757,132.504199 8.8681265,131.66125 8.8681265,131.66125 C9.0050222,130.633227 8.0219309,130.022558 9.432257,127.540167 C10.3860135,125.861763 8.1776309,124.550509 10.4198613,106.981959 C11.8301874,95.929965 12.0844222,94.927418 13.9453004,89.701136 C15.0502439,86.599834 17.6121483,83.051207 17.6121483,80.335039 C17.6121483,78.084928 16.2018222,73.029483 19.7746483,57.950068 C23.3474743,42.870652 38.484974,0.535894 38.484974,0.535894" id="Stroke-252" stroke="#533D37" stroke-width="0.5625"/>
          </g>
          <g id="Group" transform="translate(24.000000, 145.000000)">
            <path d="M28.1660439,112.790052 C28.1660439,112.790052 29.7952526,115.303913 29.7952526,116.98981 L39.4794917,116.98981 L38.0691657,113.618015 C38.0691657,113.618015 35.9141874,112.643941 33.8231439,111.735055 C33.3808657,111.650386 29.200283,112.040765 28.1660439,112.790052" id="Fill-254" fill="#624B59"/>
            <path d="M1.6526657,1.800381 C15.8604787,32.987985 9.3925352,59.294728 9.6746004,61.074287 C9.9566657,62.853845 9.5805787,62.010897 12.4012309,65.382691 C15.221883,68.754486 18.6066657,77.371295 18.6066657,77.371295 C24.8790439,94.136609 27.1491048,113.149785 27.1491048,113.149785 C29.3920874,112.119515 35.2485135,111.838532 34.4963396,111.370227 C33.7441657,110.901922 33.0860135,109.028703 33.0860135,109.028703 C33.0860135,109.028703 21.0512309,66.974928 20.1110135,62.947506 C19.1707961,58.920085 20.6751439,54.049714 20.6751439,54.049714 C20.6751439,54.049714 26.8166439,40.357979 27.9449048,32.396797 C29.0731657,24.435615 27.0340222,7.768458 27.0340222,7.768458 C27.0340222,7.768458 25.2190265,15.773099 18.5765787,6.133512 C17.4257526,4.464099 12.3124743,12.763959 10.4320396,11.541122 C8.5516048,10.318284 1.6526657,1.800381 1.6526657,1.800381" id="Fill-256" fill="#FADAB9"/>
            <path d="M25.0133822,100.466367 C25.060017,100.686658 27.9792039,99.257017 28.165743,97.945763 C28.3537865,96.634509 28.9705691,94.60394 28.9705691,94.60394 L27.5624996,89.651897 C27.5624996,89.651897 25.2819083,91.139982 24.592917,92.076592 C23.9031735,93.013202 23.693317,94.454082 23.693317,94.454082 C23.693317,94.454082 24.8253387,99.592697 25.0133822,100.466367" id="Fill-258" fill="#AF7444"/>
            <path d="M21.34503,85.612262 C21.3630822,85.809325 23.4473561,85.581541 24.0205126,85.269837 C24.592917,84.958134 25.6579952,82.937305 25.6579952,82.937305 C25.6579952,82.937305 24.5921648,80.275085 23.6835387,78.838701 C22.7749126,77.402316 21.6466517,76.465706 20.3303474,76.403515 C19.014043,76.341325 18.7169343,77.669062 18.7169343,77.669062 C18.7169343,77.669062 21.2186648,84.301008 21.34503,85.612262" id="Fill-260" fill="#AF7444"/>
            <path d="M16.5455587,72.606575 C16.7336022,72.606575 18.9502587,71.783107 19.0766239,71.096011 C19.202237,70.408914 21.2082848,69.035469 21.3331457,68.848147 C21.4580065,68.660825 20.5050022,64.477552 20.5050022,64.477552 C20.5050022,64.477552 18.700537,63.851897 17.0713283,64.664125 C15.4413674,65.476352 14.2724891,68.17154 14.2724891,68.17154 L16.5455587,72.606575 Z" id="Fill-262" fill="#AF7444"/>
            <path d="M11.6358187,64.477852 C11.6358187,64.477852 13.0596839,64.477852 13.4357709,63.603433 C13.8118578,62.729014 15.9427665,59.045515 17.008597,58.920384 C18.0744274,58.795253 19.8247361,59.109954 19.8247361,59.109954 C19.8247361,59.109954 20.097023,55.236886 20.6754448,54.050014 C21.2531143,52.863142 19.52161,49.86674 17.82621,50.116253 C16.1315622,50.365766 15.0657317,50.927732 13.5613839,52.551438 C12.0570361,54.175145 11.0085057,54.844259 11.0085057,54.844259 C11.0085057,54.844259 9.7380839,60.325299 9.6749013,61.074587 C9.6117187,61.823874 10.9701448,64.152661 11.6358187,64.477852" id="Fill-264" fill="#AF7444"/>
            <path d="M22.3359439,48.867191 C22.3359439,48.867191 17.634857,48.493296 17.0082961,47.431555 C16.3817352,46.369815 17.0707265,43.809498 17.0082961,41.312122 C16.9458657,38.814746 16.5065961,36.316621 17.5724265,36.316621 C18.638257,36.316621 20.9015483,36.878587 20.9015483,36.878587 C20.9015483,36.878587 22.6496004,37.502743 22.6496004,36.316621 C22.6496004,35.130498 23.5898178,30.072057 24.8436917,28.074456 C26.0975657,26.076854 26.84297,27.517735 26.84297,27.517735 C26.84297,27.517735 25.1565961,42.99727 22.3359439,48.867191" id="Fill-266" fill="#AF7444"/>
            <path d="M11.6358187,49.491347 C11.6358187,49.491347 14.7520752,48.056461 14.7520752,46.869589 C14.7520752,45.682718 13.8750404,43.93388 14.2511274,40.625025 C14.6272143,37.316171 16.4444665,33.819245 14.7520752,34.193889 C13.0596839,34.568532 11.6358187,34.943176 11.6358187,34.943176 C11.6358187,34.943176 12.5609926,47.207518 11.6358187,49.491347" id="Fill-268" fill="#AF7444"/>
            <path d="M11.1451757,32.066061 C11.1451757,32.066061 15.692067,32.944976 17.1964148,33.257429 C18.7007626,33.569882 19.9313191,34.505742 20.1622365,33.506942 C20.3931539,32.508141 21.3958017,26.951423 22.2104061,24.953073 C23.0257626,22.954722 23.7147539,22.143244 23.1506235,21.393956 C22.586493,20.644668 22.196867,22.017363 21.5454843,19.83244 C20.8941017,17.647517 20.5180148,17.521637 19.264893,17.584577 C18.0117713,17.647517 12.7465539,21.268825 12.7465539,21.268825 C12.7465539,21.268825 12.6833713,21.581278 11.6799713,21.081503 C10.6780757,20.581728 10.4810061,21.018563 10.4855191,22.829591 C10.4900322,24.64062 9.9687757,25.764551 9.9687757,25.764551 L11.1451757,32.066061 Z" id="Fill-270" fill="#AF7444"/>
            <path d="M7.0419917,10.684985 L10.4854439,12.152091 C10.4854439,12.152091 9.4233743,12.714057 9.6114178,14.399954 C9.7994613,16.085852 11.9852787,16.835139 10.4854439,18.333715 L8.9856091,19.83229 C8.9856091,19.83229 6.0385917,11.965518 7.0419917,10.684985" id="Fill-272" fill="#AF7444"/>
            <path d="M13.5603309,19.145193 C13.4392309,19.002829 11.3038091,17.178313 11.6798961,15.258638 C12.055983,13.338213 13.0789396,13.08945 13.8220874,11.527934 C14.5637309,9.966419 14.910483,8.655914 16.7427787,7.968817 C18.5758265,7.281721 22.3366961,12.526735 22.3366961,12.526735 C22.3366961,12.526735 22.9008265,13.963119 22.3366961,14.899729 C21.7725657,15.836339 18.6525483,15.649017 16.9217961,16.96027 C15.1910439,18.271524 14.0214135,19.686928 13.5603309,19.145193" id="Fill-274" fill="#AF7444"/>
            <path d="M25.2190265,15.773399 C25.2190265,15.773399 22.712783,16.000433 22.8376439,17.572438 C22.9625048,19.145193 24.3419917,19.270325 24.2788091,20.394256 C24.2171309,21.518188 23.7146787,25.139495 23.7146787,25.139495 C23.7146787,25.139495 24.6548961,27.262228 25.2190265,25.139495 C25.783157,23.016763 26.3480396,21.643319 26.3480396,21.643319 C26.3480396,21.643319 27.2860004,14.913216 25.2190265,15.773399" id="Fill-276" fill="#AF7444"/>
            <path d="M26.8431204,6.133662 C26.8431204,6.133662 29.0733161,23.981696 27.9450552,31.942878 C26.8167943,39.904061 20.3548683,55.303423 20.3548683,55.303423 C20.3548683,55.303423 19.1709465,58.920234 20.1111639,62.947656 C21.0513813,66.975078 33.0861639,109.028853 33.0861639,109.028853 C33.0861639,109.028853 33.7443161,110.902072 34.49649,111.370377 C35.2486639,111.838682 29.3922378,112.119665 27.1492552,113.149935 C27.1492552,113.149935 24.8791943,94.136759 18.6068161,77.371445 C18.6068161,77.371445 15.2220335,68.754636 12.4013813,65.382841 C9.5807291,62.011046 9.9568161,62.853995 9.6747509,61.074437 C9.3926857,59.294878 16.3826378,31.942878 0.3838987,0.016477" id="Stroke-278" stroke="#533D37" stroke-width="0.5625"/>
          </g>
        </g>
      </g>
    </g>
  </g>
</svg>