<svg version="1.1" width="140" height="136" viewBox="-1 -1 140 136" xmlns="http://www.w3.org/2000/svg" xmlns:xlink="http://www.w3.org/1999/xlink">
  <!-- Exported by Scratch - http://scratch.mit.edu/ -->
  <g id="ID0.4173115035519004" transform="matrix(1, 0, 0, 1, 0.25, 0)">
    <g id="Page-1">
      <g id="dinosaur2-b-[animals,dinosaur,triceratops,alex-eben-meyer]">
        <path id="Shape" fill="#BE0A3C" stroke="none" stroke-width="1" d="M 77.348 133.646 L 77.172 134.307 C 73.623 134.108 67.763 134.010 64.799 134.065 C 62.624 134.104 61.617 130.371 61.617 130.371 L 52.414 105.038 L 66.767 105.547 C 66.767 105.547 74.060 125.875 77.348 133.646 Z "/>
        <path id="Shape" fill="#BE0A3C" stroke="none" stroke-width="1" d="M 122.640 133.646 L 122.464 134.307 C 118.915 134.108 113.055 134.010 110.091 134.065 C 107.916 134.104 106.909 130.371 106.909 130.371 L 85.508 85.696 L 99.565 82.565 C 99.565 82.565 119.353 125.875 122.640 133.646 Z "/>
        <path id="Shape" fill="#BE0A3C" stroke="none" stroke-width="1" d="M 26.496 83.673 C 24.018 83.034 21.602 82.177 19.276 81.110 C 15.228 77.686 11.503 74.434 8.641 69.860 C 5.939 65.532 3.604 61.251 2.034 56.379 L 1.894 56.379 C -0.590 61.157 0.219 67.919 0.570 73.127 C 0.918 78.214 1.839 83.461 3.651 88.251 C 7.098 97.372 18.054 104.654 26.847 102.627 L 26.496 83.673 Z "/>
        <path id="Shape" fill="#F01446" stroke="none" stroke-width="1" d="M 103.016 85.895 C 103.918 83.457 105.156 79.270 105.156 79.270 C 105.156 79.270 108.990 68.756 100.346 61.435 C 96.589 58.253 89.448 51.183 81.213 50.478 C 81.213 50.478 65.396 50.478 60.520 50.087 C 51.539 49.390 47.381 52.208 47.381 52.208 C 45.038 52.599 39.962 56.293 38.229 57.807 C 36.380 59.440 34.642 61.192 33.024 63.055 C 29.420 67.195 25.996 71.691 24.719 77.142 C 23.509 82.264 23.486 87.817 23.938 93.025 C 24.200 95.987 24.387 98.992 24.887 101.923 C 25.125 103.328 30.268 117.724 32.099 122.063 C 32.938 124.047 33.985 125.828 34.953 127.737 C 35.636 129.083 39.072 134.260 39.935 134.483 C 41.368 134.851 50.360 135.211 52.430 134.311 C 51.395 126.235 47.037 118.624 46.327 110.481 C 56.147 110.633 72.264 110.090 80.753 110.090 C 89.241 110.090 95.980 100.906 98.233 96.046 C 98.085 95.827 101.759 89.307 103.016 85.895 Z "/>
        <path id="Shape" fill="#F01446" stroke="none" stroke-width="1" d="M 88.534 102.130 C 86.852 102.346 76.665 104.017 74.943 104.294 C 77.067 107.617 84.095 123.108 87.609 130.023 C 88.542 131.858 90.694 134.327 90.694 134.327 C 90.694 134.327 99.768 134.433 103.368 134.112 C 103.204 133.791 90.100 103.613 88.534 102.130 Z "/>
        <g id="Group">
          <path id="Shape" fill="#BE0A3C" stroke="none" stroke-width="1" d="M 38.517 10.526 C 35.866 8.280 33.867 -0.223 39.110 0.595 C 41.789 2.258 45.994 5.365 47.470 8.233 C 44.994 8.898 41.059 10.057 38.517 10.526 Z " transform="matrix(1, 0, 0, 1, 37, 0)"/>
          <path id="Shape" fill="#A0640A" stroke="none" stroke-width="1" d="M 18.651 22.030 C 17.323 23.697 16.374 25.552 15.031 27.235 C 13.294 25.513 7.101 20.649 9.901 17.930 C 12.329 15.570 17.210 20.054 18.651 22.030 Z " transform="matrix(1, 0, 0, 1, 37, 0)"/>
          <path id="Shape" fill="#BE0A3C" stroke="none" stroke-width="1" d="M 31.895 13.304 C 30.200 14.478 28.197 16.591 26.429 17.648 C 24.301 16.169 20.006 8.217 23.910 7.145 C 26.253 6.503 31.551 11.039 31.895 13.304 Z " transform="matrix(1, 0, 0, 1, 37, 0)"/>
          <path id="Shape" fill="#BE0A3C" stroke="none" stroke-width="1" d="M 61.667 8.757 C 59.012 8.366 55.455 8.644 52.807 8.366 C 50.547 6.445 49.684 -0.908 53.940 0.540 C 56.524 1.428 60.550 6.410 61.667 8.757 Z " transform="matrix(1, 0, 0, 1, 37, 0)"/>
          <path id="Shape" fill="#A0640A" stroke="none" stroke-width="1" d="M 8.456 53.585 C 6.309 52.701 -3.257 46.514 1.604 43.951 C 2.970 43.231 8.304 45.446 8.839 46.949 C 9.136 47.790 8.456 52.388 8.456 53.585 Z " transform="matrix(1, 0, 0, 1, 37, 0)"/>
          <path id="Shape" fill="#BE0A3C" stroke="none" stroke-width="1" d="M 9.268 39.741 C 7.367 38.305 1.818 34.239 2.795 31.328 C 3.939 27.896 10.213 31.516 11.650 32.866 C 10.520 35.026 9.717 37.343 9.268 39.741 Z " transform="matrix(1, 0, 0, 1, 37, 0)"/>
          <path id="Shape" fill="#E6781E" stroke="none" stroke-width="1" d="M 87.752 37.487 C 86.191 34.893 84.211 31.253 82.677 28.726 C 84.168 26.542 90.759 14.020 91.872 11.579 C 94.523 10.733 93 20.970 92.832 22.050 C 92.266 25.767 90.013 34.353 87.752 37.487 Z " transform="matrix(1, 0, 0, 1, 37, 0)"/>
          <path id="Shape" fill="#C8C8BE" stroke="none" stroke-width="1" d="M 99.552 64.675 C 98.509 60.155 95.308 51.370 95.308 51.370 L 91.520 48.843 L 66.247 48.522 L 68.156 79.282 C 68.156 79.282 79.295 79.251 84.465 79.282 C 87.518 79.306 90.568 79.490 93.609 79.673 C 95.929 79.818 99.204 80.123 101.442 79.282 C 102.184 74.598 100.598 69.230 99.552 64.675 Z " transform="matrix(1, 0, 0, 1, 37, 0)"/>
          <path id="Shape" fill="#F04650" stroke="none" stroke-width="1" d="M 83.368 24.789 C 81.211 21.738 78.762 18.906 76.055 16.333 C 73.204 13.634 69.961 11.383 66.438 9.657 C 65.134 8.994 63.747 8.509 62.315 8.217 C 61.061 7.998 58.285 7.161 57.024 7.591 C 52.928 6.719 48.352 7.380 44.241 7.904 C 41.416 8.243 38.644 8.923 35.983 9.931 C 34.476 10.510 30.036 12.768 29.626 12.995 C 24.726 15.707 16.449 23.373 15.937 23.952 C 12.197 28.174 8.835 34.043 8.394 39.330 C 7.281 43.977 7.113 48.801 7.902 53.515 C 7.902 57.130 10.213 60.719 12.560 63.297 C 15.055 66.013 18.303 69.230 22.321 69.069 C 26.698 68.893 25.835 64.726 27.709 62.112 C 29.443 59.697 32.914 57.655 35.616 59.815 C 41.047 64.158 38.349 75.393 45.674 78.151 C 49.094 79.439 53.534 78.989 57.130 79.110 C 60.726 79.231 68.156 79.286 68.156 79.286 C 68.156 79.286 71.982 67.578 74.579 62.069 C 76.402 58.210 78.690 55.276 81.911 53.339 C 83.882 52.258 86.036 51.553 88.264 51.261 C 90.603 51.031 92.960 51.063 95.292 51.355 C 95.292 51.355 92.352 41.963 88.834 34.137 C 86.999 29.997 83.754 25.329 83.368 24.789 Z " transform="matrix(1, 0, 0, 1, 37, 0)"/>
          <path id="Shape" fill="#F01446" stroke="none" stroke-width="1" d="M 64.794 20.966 C 64.794 20.966 68.667 27.125 72.150 31.821 C 73.076 33.069 75.317 35.734 77.542 36.665 C 80.475 37.910 83.348 37.057 82.794 34.709 C 82.130 31.923 76.621 25.043 73.185 20.947 C 72.728 20.407 71.623 18.923 70.338 18.235 C 67.117 16.505 62.775 16.083 64.794 20.966 Z " transform="matrix(1, 0, 0, 1, 37, 0)"/>
          <path id="Shape" fill="#FFC800" stroke="none" stroke-width="1" d="M 92.543 48.479 C 91.765 48.978 90.881 49.288 89.962 49.387 C 88.318 49.547 86.659 49.426 85.054 49.030 C 83.196 48.381 83.356 44.726 84.199 43.270 C 85.394 41.224 87.737 39.490 89.306 37.706 C 90.743 36.070 92.403 33.429 94.293 32.294 C 95.288 35.108 95.073 38.246 94.628 41.142 C 94.269 43.466 93.769 47.528 92.543 48.479 Z " transform="matrix(1, 0, 0, 1, 37, 0)"/>
          <path id="Shape" fill="#FFC800" stroke="none" stroke-width="1" d="M 53.846 42.531 C 53.846 42.531 42.394 42.887 42.663 40.453 C 43.034 37.080 44.924 33.265 46.177 30.154 C 47.591 26.632 53.479 11.610 55.478 11.371 C 56.657 12.130 53.846 42.531 53.846 42.531 Z " transform="matrix(1, 0, 0, 1, 37, 0)"/>
          <path id="Shape" fill="#000000" stroke="none" stroke-width="1" d="M 94.882 75.001 C 94.781 75.471 94.019 76.473 89.267 76.473 C 84.516 76.473 83.020 75.338 82.888 74.559 C 82.755 73.780 85.484 73.413 89.525 73.413 C 93.566 73.413 94.972 74.528 94.882 75.001 Z " transform="matrix(1, 0, 0, 1, 37, 0)"/>
          <path id="Shape" fill="#000000" stroke="none" stroke-width="1" d="M 52.226 56.101 L 53.006 55.710 C 53.643 56.410 54.232 58.958 52.757 59.110 C 51.281 59.263 51.905 56.806 52.226 56.101 Z " transform="matrix(1, 0, 0, 1, 37, 0)"/>
          <path id="Shape" fill="#000000" stroke="none" stroke-width="1" d="M 99.154 54.391 L 99.935 54 C 100.571 54.700 101.161 57.248 99.685 57.400 C 98.209 57.553 98.830 55.111 99.154 54.391 Z " transform="matrix(1, 0, 0, 1, 37, 0)"/>
          <path id="Shape" fill="#828278" stroke="none" stroke-width="1" d="M 92.668 67.406 L 93.449 67.015 C 94.082 67.715 94.671 70.263 93.195 70.415 C 91.719 70.568 92.348 68.110 92.668 67.406 Z " transform="matrix(1, 0, 0, 1, 37, 0)"/>
          <path id="Shape" fill="#828278" stroke="none" stroke-width="1" d="M 85.882 67.222 L 86.663 66.831 C 87.296 67.531 87.885 70.079 86.409 70.231 C 84.933 70.384 85.562 67.927 85.882 67.222 Z " transform="matrix(1, 0, 0, 1, 37, 0)"/>
        </g>
      </g>
    </g>
  </g>
</svg>