<svg version="1.1" width="65" height="113" viewBox="-1 -1 65 113" xmlns="http://www.w3.org/2000/svg" xmlns:xlink="http://www.w3.org/1999/xlink">
  <!-- Exported by Scratch - http://scratch.mit.edu/ -->
  <g id="ID0.5663834945298731" transform="matrix(1, 0, 0, 1, 0, -0.75)">
    <g id="food">
      <g id="milk-e">
        <g id="scratch_fridge_milk05">
          <path id="Shape" fill="#82001E" stroke="none" stroke-width="1" d="M 30.744 13.857 C 30.744 13.857 44.888 28.200 45.032 29.464 C 43.548 29.508 20.576 33.586 20.576 33.586 L 0.680 28.344 L 30.744 13.857 Z " transform="matrix(1, 0, 0, 1, 0, -0.25)"/>
          <path id="Shape" fill="#BE0A3C" stroke="none" stroke-width="1" d="M 45.428 1.423 L 19.272 1.023 C 19.272 1.355 19.020 6.625 19.424 7.114 C 20.116 7.914 31.452 8.410 34.460 8.618 C 35.860 8.718 45.660 7.194 45.660 7.194 C 45.660 7.194 45.568 2.079 45.428 1.423 Z " transform="matrix(1, 0, 0, 1, 0, -0.25)"/>
          <path id="Shape" fill="#FFC800" stroke="none" stroke-width="1" d="M 0.680 28.348 L 19.424 7.138 C 19.424 7.138 32.116 10.739 34.424 13.261 C 30.200 16.058 0.680 28.348 0.680 28.348 Z " transform="matrix(1, 0, 0, 1, 0, -0.25)"/>
          <path id="Shape" fill="#F01446" stroke="none" stroke-width="1" d="M 63.568 29.288 C 62.220 29.472 48.112 31.545 48.112 31.545 L 39.688 29.116 C 39.688 29.116 25.200 13.481 19.356 7.106 C 21.356 6.401 45.660 7.190 45.660 7.190 C 45.660 7.190 61.272 25.514 63.568 29.288 Z " transform="matrix(1, 0, 0, 1, 0, -0.25)"/>
          <path id="Shape" fill="#BE0A3C" stroke="none" stroke-width="1" d="M 63.224 111.856 L 40.552 112.356 L 29.176 74.590 L 39.688 29.116 L 63.568 29.288 C 63.568 29.288 63.880 81.941 63.688 91.394 C 63.608 95.280 63.224 111.856 63.224 111.856 Z " transform="matrix(1, 0, 0, 1, 0, -0.25)"/>
          <path id="Shape" fill="#F01446" stroke="none" stroke-width="1" d="M 39.688 29.116 C 39.688 29.116 5.688 28.252 0.680 28.348 C 0.424 33.022 2.768 87.732 3.280 97.397 C 3.408 99.798 3.416 102.175 3.484 104.564 C 3.520 105.837 3.820 111.368 3.820 111.368 C 3.820 111.368 6.556 111.428 7.744 111.476 C 10.008 111.564 12.268 111.768 14.544 111.828 C 19.124 111.944 23.692 112.008 28.272 112.188 C 30.392 112.272 40.560 112.364 40.560 112.364 L 39.688 29.116 Z " transform="matrix(1, 0, 0, 1, 0, -0.25)"/>
          <path id="Shape" fill="#FFFFFF" stroke="none" stroke-width="1" d="M 32.528 37.404 C 32.528 37.404 11.028 36.784 7.856 36.852 C 7.692 40.201 9.360 98.437 9.856 99.282 C 10.352 100.126 11.584 99.822 12.336 99.854 C 13.768 99.918 15.196 100.066 16.632 100.106 C 19.528 100.190 22.420 100.234 25.316 100.366 C 26.656 100.426 33.088 100.494 33.088 100.494 L 32.528 37.404 Z " transform="matrix(1, 0, 0, 1, 0, -0.25)"/>
        </g>
      </g>
    </g>
  </g>
</svg>