<svg width="86px" height="73px" viewBox="0 0 86 73" version="1.1" xml:space="preserve" xmlns="http://www.w3.org/2000/svg" xmlns:xlink="http://www.w3.org/1999/xlink">
  <!-- Generator: Sketch 50.2 (55047) - http://www.bohemiancoding.com/sketch -->
  <defs/>
  <g>
    <title>Slice 1</title>
    <desc>Created with Sketch.</desc>
    <g id="Page-1" stroke="none" stroke-width="1" fill="none" fill-rule="evenodd">
      <g id="shorts-b-[people,fashion,pants,shorts,clothing]" transform="translate(1.000000, 1.000000)">
        <path d="M77.9333333,33.1847826 C75.6,21.9173913 72.0222222,9.10652174 71.5555556,7.56304348 C71.0888889,7.87173913 70.4666667,8.02608696 69.8444444,8.02608696 C68.6,8.18043478 66.8888889,7.1 65.1777778,7.25434783 C63.7777778,7.40869565 62.3777778,8.79782609 60.6666667,8.79782609 C58.9555556,8.79782609 57.5555556,7.87173913 56,7.87173913 C54.4444444,7.87173913 53.0444444,9.26086957 51.4888889,9.26086957 C49.9333333,9.26086957 48.3777778,8.18043478 46.8222222,8.18043478 C45.2666667,8.18043478 43.7111111,9.41521739 42.1555556,9.41521739 C40.6,9.41521739 39.0444444,8.18043478 37.4888889,8.18043478 C35.9333333,8.18043478 34.3777778,9.26086957 32.8222222,9.26086957 C31.2666667,9.26086957 29.7111111,7.87173913 28.1555556,7.87173913 C26.6,7.87173913 24.8888889,8.79782609 23.4888889,8.79782609 C22.0888889,8.79782609 20.3777778,7.25434783 18.9777778,7.25434783 C17.2666667,7.1 15.5555556,8.02608696 14.1555556,8.02608696 C13.5333333,8.02608696 12.9111111,7.87173913 12.4444444,7.56304348 C11.9777778,9.10652174 8.4,21.9173913 6.06666667,33.1847826 C3.11111111,47.076087 0.155555556,64.3630435 0.155555556,64.3630435 C6.37777778,66.6782609 12.7555556,68.2217391 19.1333333,68.9934783 C26.1333333,69.7652174 33.1333333,70.073913 40.1333333,69.7652174 C41.0666667,57.8804348 41.8444444,29.4804348 41.8444444,29.4804348 C41.8444444,29.4804348 44.9555556,57.726087 45.8888889,69.6108696 C52.1111111,69.9195652 58.3333333,69.7652174 64.5555556,69.1478261 C71.0888889,68.376087 77.4666667,66.8326087 83.5333333,64.5173913 C83.8444444,64.5173913 80.8888889,47.076087 77.9333333,33.1847826 Z" id="Shape" fill="#F05822" fill-rule="nonzero"/>
        <g id="Bow" stroke-linecap="round" stroke-linejoin="round" transform="translate(31.111111, 10.804348)" stroke="#FFFFFF">
          <path d="M11.0444444,1.38913043 C8.71111111,0.617391304 6.06666667,0.617391304 3.57777778,1.38913043 C-0.155555556,2.46956522 -0.777777778,6.01956522 3.42222222,6.17391304 C6.68888889,6.01956522 9.48888889,4.1673913 11.0444444,1.38913043 Z" id="Shape" stroke-width="1.24"/>
          <path d="M11.0444444,1.38913043 C11.0444444,1.38913043 10.5777778,8.18043478 3.42222222,14.3543478" id="Shape" stroke-width="1.24"/>
          <ellipse id="Oval" stroke-width="0.62" fill="#FFFFFF" fill-rule="nonzero" cx="3.42222222" cy="14.3543478" rx="1.55555556" ry="1.54347826"/>
          <path d="M11.0444444,1.38913043 C13.3777778,0.617391304 16.0222222,0.617391304 18.5111111,1.38913043 C22.2444444,2.46956522 22.8666667,6.01956522 18.6666667,6.17391304 C15.4,6.01956522 12.6,4.1673913 11.0444444,1.38913043 Z" id="Shape" stroke-width="1.24"/>
          <path d="M11.0444444,1.38913043 C11.0444444,1.38913043 11.5111111,8.18043478 18.6666667,14.3543478" id="Shape" stroke-width="1.24"/>
          <ellipse id="Oval" stroke-width="0.62" fill="#FFFFFF" fill-rule="nonzero" cx="18.6666667" cy="14.3543478" rx="1.55555556" ry="1.54347826"/>
        </g>
        <g id="Group" transform="translate(0.000000, 7.717391)" fill="#FFFF4F" fill-rule="nonzero">
          <path d="M9.17777778,48.4652174 C8.71111111,47.8478261 8.08888889,47.3847826 7.46666667,46.9217391 C6.84444444,46.4586957 6.06666667,46.3043478 5.28888889,46.15 L6.37777778,48.6195652 L9.17777778,48.4652174 Z" id="Shape"/>
          <polygon id="Shape" points="3.73333333 53.25 7.46666667 52.9413043 5.91111111 49.3913043 2.17777778 49.8543478"/>
          <path d="M4.04444444,53.8673913 L5.6,57.2630435 L8.71111111,56.9543478 L9.02222222,56.4913043 C9.02222222,56.4913043 9.17777778,56.3369565 9.17777778,56.3369565 L7.77777778,53.4043478 L4.04444444,53.8673913 Z" id="Shape"/>
          <path d="M6.37777778,59.423913 C7,58.9608696 7.62222222,58.3434783 8.08888889,57.726087 L5.75555556,57.8804348 L6.37777778,59.423913 Z" id="Shape"/>
          <path d="M5.75555556,48.773913 L4.51111111,46.15 C3.26666667,46.15 2.02222222,46.4586957 1.08888889,47.2304348 L2.02222222,49.2369565 L5.75555556,48.773913 Z" id="Shape"/>
          <path d="M6.68888889,49.3913043 L8.24444444,52.7869565 L10.2666667,52.6326087 C10.4222222,51.3978261 10.1111111,50.1630435 9.48888889,49.0826087 L6.68888889,49.3913043 Z" id="Shape"/>
          <path d="M9.33333333,55.5652174 C9.64444444,54.7934783 9.95555556,54.0217391 10.1111111,53.25 L8.4,53.4043478 L9.33333333,55.5652174 Z" id="Shape"/>
          <polygon id="Shape" points="18.5111111 36.5804348 18.6666667 36.5804348 22.2444444 37.6608696 22.0888889 33.9565217 20.5333333 33.4934783 18.3555556 32.876087 18.5111111 34.4195652"/>
          <path d="M22.2444444,38.2782609 L18.6666667,37.1978261 L18.8222222,39.5130435 C19.9111111,40.1304348 21.1555556,40.4391304 22.5555556,40.1304348 L22.2444444,38.2782609 Z" id="Shape"/>
          <path d="M17.8888889,36.426087 L17.7333333,32.7217391 L15.8666667,32.2586957 C15.4,33.3391304 15.2444444,34.7282609 15.7111111,35.9630435 L17.8888889,36.426087 Z" id="Shape"/>
          <path d="M18.0444444,39.2043478 L17.8888889,37.0434783 L15.8666667,36.426087 C16.1777778,36.8891304 16.3333333,37.3521739 16.8,37.8152174 C17.1111111,38.4326087 17.5777778,38.8956522 18.0444444,39.2043478 Z" id="Shape"/>
          <path d="M26.7555556,27.3195652 L26.9111111,30.0978261 L29.5555556,30.8695652 C29.4,30.0978261 28.9333333,29.4804348 28.4666667,28.8630435 C28,28.2456522 27.3777778,27.7826087 26.7555556,27.3195652 Z" id="Shape"/>
          <polygon id="Shape" points="26.2888889 30.5608696 22.5555556 29.6347826 22.7111111 33.3391304 26.4444444 34.4195652"/>
          <path d="M26.2888889,38.4326087 C26.2888889,38.4326087 26.4444444,38.2782609 26.4444444,38.2782609 L26.2888889,35.1913043 L22.5555556,34.1108696 L22.7111111,37.8152174 L25.6666667,38.5869565 L26.2888889,38.4326087 Z" id="Shape"/>
          <path d="M22.8666667,38.4326087 L22.8666667,39.976087 C23.6444444,39.8217391 24.4222222,39.5130435 25.0444444,39.05 L22.8666667,38.4326087 Z" id="Shape"/>
          <path d="M18.2,39.976087 C17.4222222,39.5130435 16.8,38.8956522 16.3333333,38.2782609 C15.8666667,37.6608696 15.4,36.8891304 15.0888889,36.1173913 C14.9333333,35.5 14.7777778,34.8826087 14.7777778,34.4195652 C13.8444444,34.4195652 12.7555556,34.4195652 11.8222222,34.1108696 C12.1333333,34.4195652 12.4444444,34.7282609 12.7555556,35.0369565 C12.9111111,35.1913043 13.2222222,35.3456522 13.3777778,35.6543478 C13.6888889,35.8086957 13.8444444,36.1173913 14.1555556,36.2717391 C14.3111111,36.2717391 14.3111111,36.426087 14.3111111,36.5804348 C14.3111111,36.7347826 14.1555556,36.7347826 14.1555556,36.8891304 C13.3777778,37.0434783 12.6,37.1978261 11.8222222,37.1978261 C11.8222222,37.1978261 11.8222222,37.1978261 11.8222222,37.1978261 C11.5111111,37.1978261 11.0444444,37.1978261 10.7333333,37.1978261 C11.0444444,37.3521739 11.3555556,37.6608696 11.8222222,37.9695652 C11.9777778,38.123913 12.2888889,38.2782609 12.6,38.2782609 C13.3777778,38.5869565 14.1555556,38.8956522 15.0888889,38.7413043 C15.0888889,38.7413043 15.2444444,38.7413043 15.2444444,38.7413043 C15.2444444,38.7413043 15.4,38.7413043 15.4,38.8956522 C15.4,39.05 15.5555556,39.05 15.4,39.2043478 C15.0888889,39.976087 15.2444444,40.9021739 15.4,41.8282609 C15.4,42.1369565 15.5555556,42.2913043 15.5555556,42.6 C15.7111111,43.0630435 15.8666667,43.526087 16.0222222,43.8347826 C16.3333333,42.7543478 16.6444444,41.673913 17.1111111,40.7478261 C17.1111111,40.5934783 17.2666667,40.5934783 17.4222222,40.5934783 C17.5777778,40.5934783 17.5777778,40.7478261 17.7333333,40.7478261 C17.8888889,41.0565217 18.0444444,41.3652174 18.2,41.673913 C18.3555556,41.9826087 18.5111111,42.1369565 18.6666667,42.4456522 C18.8222222,42.7543478 19.1333333,43.2173913 19.4444444,43.526087 C19.4444444,42.6 19.6,41.673913 19.7555556,40.7478261 C19.6,40.7478261 19.4444444,40.5934783 19.2888889,40.5934783 C18.9777778,40.4391304 18.2,39.976087 18.2,39.976087 Z" id="Shape"/>
          <path d="M17.1111111,42.6 C17.2666667,42.9086957 17.4222222,43.3717391 17.7333333,43.6804348 C17.7333333,43.2173913 17.8888889,42.9086957 18.0444444,42.4456522 C17.8888889,42.1369565 17.7333333,41.8282609 17.5777778,41.5195652 C17.2666667,41.8282609 17.1111111,42.1369565 17.1111111,42.6 Z" id="Shape"/>
          <path d="M14.7777778,39.3586957 C13.6888889,39.3586957 12.7555556,38.8956522 11.9777778,38.5869565 C11.5111111,38.7413043 11.0444444,38.8956522 10.5777778,38.8956522 C11.3555556,39.6673913 12.4444444,39.976087 13.6888889,39.976087 C13.6888889,39.976087 13.8444444,39.976087 13.8444444,39.976087 C13.8444444,39.976087 14,39.976087 14,40.1304348 C14,40.1304348 14.1555556,40.2847826 14,40.4391304 C13.6888889,41.5195652 13.8444444,42.7543478 14.4666667,43.6804348 C14.6222222,43.2173913 14.9333333,42.9086957 15.0888889,42.4456522 C14.6222222,41.5195652 14.4666667,40.4391304 14.7777778,39.3586957 Z" id="Shape"/>
          <path d="M26.1333333,27.1652174 C25.0444444,26.7021739 23.6444444,26.5478261 22.5555556,26.8565217 L22.7111111,29.0173913 L26.4444444,29.9434783 L26.1333333,27.1652174 Z" id="Shape"/>
          <path d="M13.3777778,36.2717391 C13.0666667,36.1173913 12.9111111,35.8086957 12.6,35.6543478 C12.1333333,35.6543478 11.6666667,35.6543478 11.3555556,35.6543478 C11.6666667,35.9630435 11.9777778,36.2717391 12.2888889,36.426087 C12.6,36.426087 12.9111111,36.426087 13.3777778,36.2717391 Z" id="Shape"/>
          <path d="M21.9333333,28.7086957 L21.9333333,27.0108696 C21.1555556,27.3195652 20.3777778,27.6282609 19.7555556,28.0913043 L21.9333333,28.7086957 Z" id="Shape"/>
          <polygon id="Shape" points="18.3555556 32.1043478 20.6888889 32.876087 22.0888889 33.1847826 21.9333333 29.4804348 18.8222222 28.5543478 18.6666667 28.8630435 18.2 29.1717391 18.3555556 30.4065217"/>
          <path d="M17.5777778,29.6347826 C16.9555556,30.2521739 16.4888889,30.8695652 16.0222222,31.4869565 L17.5777778,31.95 L17.5777778,30.4065217 L17.5777778,29.6347826 Z" id="Shape"/>
          <path d="M27.0666667,34.573913 L29.0888889,35.1913043 C29.7111111,34.1108696 29.8666667,32.876087 29.7111111,31.6413043 L26.9111111,30.8695652 L27.0666667,34.573913 Z" id="Shape"/>
          <path d="M27.0666667,35.1913043 L27.2222222,37.5065217 C27.8444444,36.8891304 28.3111111,36.2717391 28.7777778,35.6543478 L27.0666667,35.1913043 Z" id="Shape"/>
          <polygon id="Shape" points="16.0222222 10.9586957 16.3333333 13.273913 17.7333333 12.5021739 19.7555556 11.576087 19.7555556 11.4217391 19.2888889 7.87173913 15.8666667 9.41521739"/>
          <path d="M19.9111111,7.56304348 L20.3777778,11.2673913 L22.4,10.3413043 C22.5555556,9.10652174 22.2444444,7.87173913 21.4666667,6.79130435 L19.9111111,7.56304348 Z" id="Shape"/>
          <path d="M19.9111111,12.1934783 L16.4888889,13.8913043 L16.8,15.8978261 C18.0444444,15.8978261 19.2888889,15.4347826 20.2222222,14.6630435 L19.9111111,12.1934783 Z" id="Shape"/>
          <path d="M21.7777778,12.6565217 C22.0888889,12.1934783 22.2444444,11.576087 22.4,11.1130435 L20.5333333,12.0391304 L20.8444444,14.0456522 C21.1555556,13.5826087 21.4666667,13.1195652 21.7777778,12.6565217 Z" id="Shape"/>
          <polygon id="Shape" points="11.8222222 10.65 15.2444444 9.10652174 14.6222222 5.24782609 11.2 6.94565217"/>
          <path d="M15.7111111,8.79782609 L19.1333333,7.1 L18.6666667,4.01304348 L18.2,3.70434783 C18.2,3.70434783 18.0444444,3.70434783 18.0444444,3.55 L15.2444444,4.93913043 L15.7111111,8.79782609 Z" id="Shape"/>
          <path d="M21.3111111,6.17391304 C20.8444444,5.55652174 20.2222222,4.93913043 19.6,4.47608696 L19.9111111,6.79130435 L21.3111111,6.17391304 Z" id="Shape"/>
          <path d="M23.0222222,10.4956522 C22.8666667,11.2673913 22.5555556,12.1934783 22.2444444,12.8108696 C21.7777778,13.5826087 21.3111111,14.2 20.6888889,14.8173913 C20.2222222,15.2804348 19.7555556,15.5891304 19.1333333,15.7434783 C19.6,16.6695652 19.9111111,17.5956522 20.0666667,18.5217391 C20.2222222,18.0586957 20.3777778,17.75 20.5333333,17.2869565 C20.6888889,16.9782609 20.6888889,16.6695652 20.8444444,16.5152174 C21,16.2065217 21,15.8978261 21,15.5891304 C21,15.4347826 21.1555556,15.4347826 21.1555556,15.2804348 C21.3111111,15.2804348 21.4666667,15.2804348 21.4666667,15.4347826 C21.9333333,16.0521739 22.4,16.6695652 22.7111111,17.4413043 C22.7111111,17.4413043 22.7111111,17.4413043 22.7111111,17.4413043 C22.8666667,17.75 23.0222222,18.0586957 23.1777778,18.3673913 C23.3333333,18.0586957 23.3333333,17.5956522 23.3333333,17.1326087 C23.3333333,16.823913 23.3333333,16.6695652 23.3333333,16.3608696 C23.3333333,15.5891304 23.1777778,14.6630435 22.8666667,13.8913043 C22.8666667,13.8913043 22.8666667,13.7369565 22.8666667,13.7369565 C22.8666667,13.7369565 22.8666667,13.5826087 22.8666667,13.5826087 C22.8666667,13.4282609 23.0222222,13.4282609 23.1777778,13.4282609 C23.9555556,13.4282609 24.8888889,12.9652174 25.5111111,12.5021739 C25.6666667,12.3478261 25.9777778,12.1934783 26.1333333,12.0391304 C26.4444444,11.7304348 26.7555556,11.4217391 27.0666667,11.1130435 C25.9777778,11.2673913 24.8888889,11.4217391 23.8,11.2673913 C23.6444444,11.2673913 23.6444444,11.1130435 23.4888889,11.1130435 C23.4888889,10.9586957 23.4888889,10.8043478 23.6444444,10.8043478 C23.9555556,10.4956522 24.1111111,10.3413043 24.4222222,10.0326087 C24.5777778,9.87826087 24.7333333,9.56956522 25.0444444,9.41521739 C25.3555556,9.10652174 25.5111111,8.64347826 25.8222222,8.33478261 C24.8888889,8.64347826 24.1111111,8.95217391 23.1777778,9.10652174 C23.1777778,9.26086957 23.1777778,9.41521739 23.1777778,9.56956522 C23.1777778,9.72391304 23.1777778,10.4956522 23.0222222,10.4956522 Z" id="Shape"/>
          <path d="M24.7333333,10.65 C25.0444444,10.65 25.5111111,10.65 25.8222222,10.65 C26.1333333,10.3413043 26.2888889,10.0326087 26.6,9.56956522 C26.1333333,9.72391304 25.8222222,9.72391304 25.3555556,9.87826087 C25.2,10.1869565 25.0444444,10.4956522 24.7333333,10.65 Z" id="Shape"/>
          <path d="M23.8,14.0456522 C24.1111111,14.9717391 24.2666667,16.0521739 24.1111111,16.9782609 C24.4222222,17.2869565 24.7333333,17.75 25.0444444,18.0586957 C25.3555556,16.9782609 25.3555556,15.8978261 24.8888889,14.8173913 C24.8888889,14.8173913 24.8888889,14.6630435 24.8888889,14.6630435 C24.8888889,14.6630435 24.8888889,14.5086957 24.8888889,14.5086957 C24.8888889,14.3543478 25.0444444,14.3543478 25.0444444,14.3543478 C26.1333333,14.2 27.2222222,13.5826087 27.8444444,12.6565217 C27.3777778,12.6565217 26.9111111,12.6565217 26.4444444,12.5021739 C25.8222222,13.273913 24.8888889,13.7369565 23.8,14.0456522 Z" id="Shape"/>
          <path d="M21.6222222,16.5152174 C21.6222222,16.823913 21.4666667,17.1326087 21.3111111,17.4413043 C21.4666667,17.9043478 21.6222222,18.2130435 21.7777778,18.676087 C21.9333333,18.3673913 22.0888889,17.9043478 22.2444444,17.5956522 C21.9333333,17.1326087 21.7777778,16.823913 21.6222222,16.5152174 Z" id="Shape"/>
          <path d="M9.64444444,12.5021739 C10.2666667,13.1195652 10.8888889,13.5826087 11.5111111,14.0456522 L11.2,11.7304348 L9.64444444,12.5021739 Z" id="Shape"/>
          <polygon id="Shape" points="15.4 11.1130435 15.2444444 9.72391304 11.8222222 11.4217391 12.2888889 14.5086957 12.6 14.6630435 13.0666667 14.8173913 14.1555556 14.3543478 15.7111111 13.4282609"/>
          <path d="M15.8666667,14.2 L14.4666667,14.8173913 L13.6888889,15.126087 C14.4666667,15.4347826 15.2444444,15.5891304 16.0222222,15.7434783 L15.8666667,14.2 Z" id="Shape"/>
          <path d="M17.2666667,3.39565217 C16.4888889,3.08695652 15.7111111,2.77826087 14.9333333,2.77826087 L15.0888889,4.47608696 L17.2666667,3.39565217 Z" id="Shape"/>
          <polygon id="Shape" points="58.9555556 29.4804348 59.1111111 27.9369565 59.1111111 25.6217391 58.9555556 25.6217391 55.5333333 24.3869565 55.3777778 28.2456522 56.9333333 28.7086957"/>
          <path d="M59.1111111,25.0043478 L59.1111111,22.6891304 C58.0222222,21.9173913 56.7777778,21.6086957 55.5333333,21.7630435 L55.5333333,23.6152174 L55.6888889,23.6152174 L59.1111111,25.0043478 Z" id="Shape"/>
          <path d="M59.5777778,29.6347826 L61.4444444,30.2521739 C62.0666667,29.1717391 62.2222222,27.7826087 61.9111111,26.5478261 L59.7333333,25.776087 L59.5777778,29.6347826 Z" id="Shape"/>
          <path d="M59.7333333,23.1521739 L59.7333333,25.1586957 L61.7555556,25.9304348 C61.6,25.4673913 61.2888889,24.85 60.9777778,24.3869565 C60.6666667,23.923913 60.2,23.4608696 59.7333333,23.1521739 Z" id="Shape"/>
          <path d="M48.6888889,32.7217391 C49.1555556,33.3391304 49.6222222,33.9565217 50.2444444,34.4195652 L50.2444444,31.6413043 L47.6,30.7152174 C48.0666667,31.4869565 48.3777778,32.1043478 48.6888889,32.7217391 Z" id="Shape"/>
          <polygon id="Shape" points="51.1777778 27.3195652 51.0222222 31.1782609 54.7555556 32.4130435 54.7555556 28.5543478"/>
          <path d="M54.9111111,24.2326087 L51.9555556,23.1521739 L51.4888889,23.4608696 C51.4888889,23.4608696 51.3333333,23.6152174 51.3333333,23.6152174 L51.3333333,26.7021739 L54.9111111,27.9369565 L54.9111111,24.2326087 Z" id="Shape"/>
          <path d="M54.9111111,21.9173913 C54.1333333,22.0717391 53.3555556,22.3804348 52.5777778,22.6891304 L54.7555556,23.4608696 L54.9111111,21.9173913 Z" id="Shape"/>
          <path d="M64.7111111,27.6282609 C64.5555556,27.473913 64.2444444,27.1652174 64.0888889,27.0108696 C63.7777778,26.8565217 63.6222222,26.5478261 63.3111111,26.3934783 C63.1555556,26.3934783 63.1555556,26.2391304 63.1555556,26.0847826 C63.1555556,25.9304348 63.3111111,25.9304348 63.4666667,25.776087 C64.2444444,25.6217391 65.0222222,25.6217391 65.8,25.6217391 C65.8,25.6217391 65.8,25.6217391 65.8,25.6217391 C66.1111111,25.6217391 66.5777778,25.6217391 66.8888889,25.6217391 C66.5777778,25.3130435 66.2666667,25.1586957 65.8,24.85 C65.6444444,24.6956522 65.3333333,24.5413043 65.0222222,24.3869565 C64.2444444,23.923913 63.4666667,23.7695652 62.5333333,23.7695652 C62.5333333,23.7695652 62.3777778,23.7695652 62.3777778,23.7695652 C62.3777778,23.7695652 62.2222222,23.7695652 62.2222222,23.6152174 C62.2222222,23.4608696 62.2222222,23.4608696 62.2222222,23.3065217 C62.5333333,22.5347826 62.5333333,21.6086957 62.3777778,20.6826087 C62.3777778,20.373913 62.2222222,20.2195652 62.2222222,19.9108696 C62.0666667,19.4478261 61.9111111,18.9847826 61.9111111,18.676087 C61.6,19.7565217 61.1333333,20.8369565 60.5111111,21.7630435 C60.5111111,21.9173913 60.3555556,21.9173913 60.2,21.9173913 C60.0444444,21.9173913 60.0444444,21.7630435 59.8888889,21.7630435 C59.7333333,21.4543478 59.5777778,21.1456522 59.5777778,20.8369565 C59.4222222,20.5282609 59.4222222,20.373913 59.2666667,20.0652174 C59.1111111,19.6021739 58.8,19.2934783 58.6444444,18.9847826 C58.6444444,19.9108696 58.3333333,20.8369565 58.0222222,21.7630435 C58.1777778,21.7630435 58.3333333,21.9173913 58.4888889,21.9173913 C58.8,22.0717391 59.4222222,22.3804348 59.4222222,22.5347826 C60.0444444,22.9978261 60.6666667,23.6152174 61.1333333,24.3869565 C61.6,25.0043478 61.9111111,25.776087 62.2222222,26.7021739 C62.3777778,27.3195652 62.3777778,27.9369565 62.3777778,28.5543478 C63.3111111,28.5543478 64.4,28.7086957 65.3333333,29.0173913 C65.3333333,28.2456522 65.0222222,27.9369565 64.7111111,27.6282609 Z" id="Shape"/>
          <path d="M60.9777778,19.9108696 C60.8222222,19.4478261 60.6666667,19.1391304 60.3555556,18.8304348 C60.2,19.2934783 60.2,19.6021739 60.0444444,20.0652174 C60.2,20.373913 60.3555556,20.6826087 60.5111111,20.9913043 C60.6666667,20.5282609 60.8222222,20.2195652 60.9777778,19.9108696 Z" id="Shape"/>
          <path d="M64.4,22.5347826 C64.2444444,22.5347826 64.2444444,22.5347826 64.4,22.5347826 C64.2444444,22.5347826 64.2444444,22.3804348 64.0888889,22.3804348 C64.0888889,22.226087 64.0888889,22.226087 64.0888889,22.0717391 C64.4,20.9913043 64.4,19.7565217 63.7777778,18.8304348 C63.6222222,19.2934783 63.3111111,19.6021739 63,20.0652174 C63.1555556,20.9913043 63.3111111,22.0717391 63,23.1521739 C64.0888889,23.3065217 65.0222222,23.6152174 65.8,24.2326087 C66.2666667,24.0782609 66.7333333,23.923913 67.2,23.923913 C66.5777778,23.1521739 65.4888889,22.6891304 64.4,22.5347826 Z" id="Shape"/>
          <path d="M51.0222222,34.7282609 C52.1111111,35.3456522 53.3555556,35.5 54.6,35.1913043 L54.6,33.0304348 L51.0222222,31.7956522 L51.0222222,34.7282609 Z" id="Shape"/>
          <path d="M65.4888889,26.2391304 C65.0222222,26.2391304 64.7111111,26.2391304 64.2444444,26.2391304 C64.5555556,26.3934783 64.7111111,26.7021739 64.8666667,26.8565217 C65.3333333,26.8565217 65.8,26.8565217 66.1111111,27.0108696 C66.1111111,26.7021739 65.8,26.5478261 65.4888889,26.2391304 Z" id="Shape"/>
          <path d="M55.3777778,33.3391304 L55.3777778,35.0369565 C56.1555556,34.7282609 56.9333333,34.4195652 57.7111111,34.1108696 L55.3777778,33.3391304 Z" id="Shape"/>
          <polygon id="Shape" points="58.4888889 33.4934783 58.9555556 33.1847826 58.9555556 31.95 58.9555556 30.0978261 56.7777778 29.326087 55.3777778 28.8630435 55.3777778 32.5673913 58.3333333 33.6478261"/>
          <path d="M59.5777778,31.95 L59.5777778,32.7217391 C60.2,32.2586957 60.6666667,31.6413043 61.1333333,30.8695652 L59.5777778,30.4065217 L59.5777778,31.95 Z" id="Shape"/>
          <path d="M47.7555556,29.9434783 L50.5555556,30.8695652 L50.7111111,27.1652174 L48.6888889,26.5478261 C47.9111111,27.473913 47.6,28.7086957 47.7555556,29.9434783 Z" id="Shape"/>
          <path d="M48.8444444,25.9304348 L50.5555556,26.5478261 L50.5555556,24.2326087 C49.9333333,24.6956522 49.3111111,25.3130435 48.8444444,25.9304348 Z" id="Shape"/>
          <polygon id="Shape" points="69.3777778 6.94565217 68.6 4.78478261 67.3555556 5.71086957 65.6444444 7.1 65.6444444 7.1 66.8888889 10.65 69.8444444 8.33478261"/>
          <path d="M64.8666667,12.1934783 L66.4222222,11.1130435 L66.4222222,10.9586957 L65.1777778,7.40869565 L63.3111111,8.79782609 C63.3111111,10.0326087 63.7777778,11.2673913 64.8666667,12.1934783 Z" id="Shape"/>
          <path d="M64.7111111,4.1673913 L65.4888889,6.32826087 L68.6,4.01304348 L67.9777778,2.16086957 C66.5777778,2.46956522 65.4888889,3.24130435 64.7111111,4.1673913 Z" id="Shape"/>
          <path d="M63.4666667,6.32826087 C63.3111111,6.94565217 63.1555556,7.40869565 63.1555556,8.02608696 L64.8666667,6.79130435 L64.2444444,4.78478261 C63.9333333,5.24782609 63.6222222,5.86521739 63.4666667,6.32826087 Z" id="Shape"/>
          <path d="M70.1555556,8.95217391 L67.0444444,11.1130435 L67.9777778,14.0456522 L68.4444444,14.2 C68.4444444,14.2 68.6,14.2 68.7555556,14.2 L71.2444444,12.3478261 L70.1555556,8.95217391 Z" id="Shape"/>
          <path d="M65.1777778,12.6565217 C65.8,13.1195652 66.4222222,13.5826087 67.2,13.8913043 L66.4222222,11.7304348 L65.1777778,12.6565217 Z" id="Shape"/>
          <path d="M60.9777778,8.79782609 C60.6666667,8.79782609 60.2,8.95217391 59.8888889,9.10652174 C59.7333333,9.41521739 59.4222222,9.87826087 59.4222222,10.1869565 C59.7333333,10.0326087 60.2,9.87826087 60.5111111,9.72391304 C60.6666667,9.41521739 60.6666667,9.10652174 60.9777778,8.79782609 Z" id="Shape"/>
          <path d="M61.1333333,5.40217391 C60.5111111,4.47608696 60.3555556,3.55 60.2,2.62391304 C59.8888889,2.31521739 59.4222222,2.00652174 59.1111111,1.69782609 C58.9555556,2.77826087 59.2666667,4.01304348 59.8888889,4.78478261 C59.8888889,4.78478261 59.8888889,4.78478261 59.8888889,4.93913043 C59.8888889,4.93913043 59.8888889,5.09347826 59.8888889,5.09347826 C59.8888889,5.24782609 59.7333333,5.24782609 59.7333333,5.24782609 C58.6444444,5.71086957 57.8666667,6.4826087 57.2444444,7.40869565 C57.7111111,7.25434783 58.1777778,7.25434783 58.6444444,7.25434783 C59.4222222,6.4826087 60.2,5.86521739 61.1333333,5.40217391 Z" id="Shape"/>
          <path d="M70.3111111,2.77826087 L70.9333333,2.31521739 C70.1555556,2.16086957 69.3777778,2.16086957 68.4444444,2.16086957 L68.9111111,3.70434783 L70.3111111,2.77826087 Z" id="Shape"/>
          <path d="M71.5555556,13.273913 L69.6888889,14.6630435 C70.4666667,14.8173913 71.4,14.9717391 72.1777778,14.8173913 L71.5555556,13.273913 Z" id="Shape"/>
          <polygon id="Shape" points="33.7555556 56.6456522 34.5333333 55.2565217 35.6222222 53.4043478 34.0666667 53.0956522 31.8888889 52.6326087 31.8888889 52.7869565 30.0222222 56.0282609"/>
          <path d="M29.4,55.873913 L31.2666667,52.4782609 L28.9333333,52.0152174 C28,52.9413043 27.5333333,54.176087 27.5333333,55.4108696 L29.4,55.873913 Z" id="Shape"/>
          <path d="M32.2,52.1695652 L35.9333333,52.9413043 L36.8666667,51.2434783 C35.7777778,50.4717391 34.5333333,50.1630435 33.2888889,50.1630435 L32.2,52.1695652 Z" id="Shape"/>
          <path d="M30.9555556,50.626087 C30.4888889,50.9347826 30.0222222,51.2434783 29.5555556,51.5521739 L31.5777778,51.8608696 L32.6666667,50.0086957 C32.0444444,50.3173913 31.4222222,50.4717391 30.9555556,50.626087 Z" id="Shape"/>
          <polygon id="Shape" points="34.0666667 57.4173913 32.2 60.6586957 36.0888889 61.4304348 37.8 58.0347826"/>
          <path d="M33.4444444,57.2630435 L29.7111111,56.4913043 L28.1555556,59.2695652 L28.3111111,59.7326087 C28.3111111,59.7326087 28.3111111,59.8869565 28.4666667,59.8869565 L31.5777778,60.5043478 L33.4444444,57.2630435 Z" id="Shape"/>
          <path d="M27.5333333,56.1826087 C27.5333333,56.9543478 27.6888889,57.726087 28,58.4978261 L29.0888889,56.4913043 L27.5333333,56.1826087 Z" id="Shape"/>
          <path d="M27.8444444,52.4782609 C28,52.1695652 28.4666667,51.5521739 28.6222222,51.5521739 C29.2444444,50.9347826 29.8666667,50.4717391 30.6444444,50.1630435 C31.4222222,49.8543478 32.2,49.5456522 33.1333333,49.5456522 C33.7555556,49.5456522 34.3777778,49.5456522 35,49.7 C35.1555556,48.773913 35.4666667,47.8478261 35.9333333,46.9217391 C35.4666667,47.076087 35.1555556,47.3847826 34.8444444,47.5391304 C34.5333333,47.6934783 34.3777778,47.8478261 34.2222222,48.0021739 C33.9111111,48.1565217 33.7555556,48.4652174 33.4444444,48.6195652 C33.2888889,48.773913 33.2888889,48.773913 33.1333333,48.6195652 C32.9777778,48.6195652 32.9777778,48.4652174 32.9777778,48.3108696 C32.9777778,47.5391304 32.9777778,46.7673913 33.1333333,45.9956522 C33.1333333,45.9956522 33.1333333,45.9956522 33.1333333,45.9956522 C33.1333333,45.6869565 33.2888889,45.223913 33.2888889,44.9152174 C32.9777778,45.223913 32.6666667,45.3782609 32.3555556,45.8413043 C32.2,45.9956522 32.0444444,46.3043478 31.8888889,46.4586957 C31.4222222,47.076087 30.9555556,47.8478261 30.8,48.773913 C30.8,48.773913 30.8,48.9282609 30.8,48.9282609 C30.8,48.9282609 30.8,49.0826087 30.6444444,49.0826087 C30.4888889,49.0826087 30.4888889,49.0826087 30.3333333,49.0826087 C29.5555556,48.6195652 28.7777778,48.4652174 27.8444444,48.4652174 C27.5333333,48.4652174 27.2222222,48.4652174 27.0666667,48.4652174 C26.6,48.4652174 26.1333333,48.6195652 25.8222222,48.6195652 C26.7555556,49.0826087 27.8444444,49.7 28.6222222,50.4717391 C28.7777778,50.626087 28.7777778,50.626087 28.7777778,50.7804348 C28.7777778,50.9347826 28.6222222,50.9347826 28.4666667,50.9347826 C28.1555556,50.9347826 27.8444444,51.0891304 27.3777778,51.0891304 C27.0666667,51.0891304 26.7555556,51.2434783 26.6,51.2434783 C26.1333333,51.3978261 25.8222222,51.5521739 25.3555556,51.7065217 C26.2888889,51.8608696 27.2222222,52.323913 28,52.6326087 C27.6888889,52.6326087 27.8444444,52.6326087 27.8444444,52.4782609 Z" id="Shape"/>
          <path d="M27.3777778,50.4717391 C27.0666667,50.3173913 26.7555556,50.0086957 26.4444444,49.8543478 C25.9777778,50.0086957 25.6666667,50.0086957 25.2,50.1630435 C25.6666667,50.3173913 25.9777778,50.4717391 26.2888889,50.626087 C26.7555556,50.626087 27.0666667,50.4717391 27.3777778,50.4717391 Z" id="Shape"/>
          <path d="M29.7111111,47.076087 C29.5555556,47.2304348 29.5555556,47.2304348 29.7111111,47.076087 C29.5555556,47.2304348 29.4,47.2304348 29.2444444,47.2304348 C28.1555556,46.7673913 27.0666667,46.6130435 25.9777778,46.9217391 C26.2888889,47.2304348 26.7555556,47.5391304 27.0666667,47.8478261 C28,47.8478261 29.0888889,47.8478261 30.0222222,48.3108696 C30.3333333,47.3847826 30.8,46.4586957 31.4222222,45.6869565 C31.4222222,45.223913 31.2666667,44.7608696 31.4222222,44.2978261 C30.6444444,44.9152174 29.8666667,45.9956522 29.7111111,47.076087 C29.7111111,47.076087 29.7111111,47.076087 29.7111111,47.076087 Z" id="Shape"/>
          <path d="M36.7111111,61.5847826 L39.5111111,62.0478261 C40.2888889,61.1217391 40.6,59.8869565 40.6,58.6521739 L38.4222222,58.1891304 L36.7111111,61.5847826 Z" id="Shape"/>
          <path d="M34.5333333,45.8413043 C34.2222222,45.9956522 33.9111111,46.3043478 33.6,46.4586957 C33.6,46.9217391 33.4444444,47.2304348 33.4444444,47.6934783 C33.7555556,47.5391304 33.9111111,47.3847826 34.2222222,47.076087 C34.2222222,46.7673913 34.3777778,46.3043478 34.5333333,45.8413043 Z" id="Shape"/>
          <path d="M40.6,57.8804348 C40.4444444,57.1086957 40.2888889,56.3369565 39.9777778,55.5652174 L38.8888889,57.5717391 L40.6,57.8804348 Z" id="Shape"/>
          <polygon id="Shape" points="36.2444444 53.5586957 35.1555556 55.5652174 34.5333333 56.8 38.1111111 57.5717391 39.6666667 54.7934783 39.5111111 54.4847826 39.3555556 54.0217391 38.1111111 53.8673913"/>
          <path d="M38.1111111,53.25 L38.8888889,53.4043478 C38.4222222,52.6326087 37.9555556,52.0152174 37.3333333,51.5521739 L36.5555556,52.9413043 L38.1111111,53.25 Z" id="Shape"/>
          <polygon id="Shape" points="61.2888889 55.1021739 58.0222222 57.1086957 60.9777778 59.5782609 62.2222222 58.6521739 64.2444444 57.5717391 63 56.4913043"/>
          <path d="M56,55.4108696 L57.5555556,56.6456522 L57.7111111,56.6456522 L60.8222222,54.6391304 L59.1111111,53.0956522 C57.8666667,53.5586957 56.7777778,54.3304348 56,55.4108696 Z" id="Shape"/>
          <path d="M66.4222222,56.1826087 C65.9555556,54.9478261 65.0222222,54.0217391 63.9333333,53.5586957 L61.9111111,54.7934783 L64.8666667,57.2630435 L66.4222222,56.1826087 Z" id="Shape"/>
          <path d="M59.7333333,52.9413043 L61.2888889,54.3304348 L63.1555556,53.25 C62.6888889,53.0956522 62.0666667,52.9413043 61.4444444,52.9413043 C60.9777778,52.7869565 60.3555556,52.9413043 59.7333333,52.9413043 Z" id="Shape"/>
          <path d="M57.5555556,57.4173913 L54.9111111,59.1152174 L54.9111111,59.5782609 C54.9111111,59.5782609 54.9111111,59.7326087 54.9111111,59.8869565 L57.2444444,61.8934783 L60.5111111,59.8869565 L57.5555556,57.4173913 Z" id="Shape"/>
          <path d="M55.6888889,56.0282609 C55.3777778,56.8 55.0666667,57.5717391 54.9111111,58.3434783 L56.9333333,57.1086957 L55.6888889,56.0282609 Z" id="Shape"/>
          <path d="M65.4888889,52.0152174 C65.1777778,52.0152174 64.8666667,52.1695652 64.5555556,52.1695652 C64.4,52.1695652 64.2444444,52.1695652 64.2444444,52.0152174 C64.2444444,51.8608696 64.0888889,51.8608696 64.2444444,51.7065217 C64.5555556,51.0891304 65.0222222,50.4717391 65.4888889,49.8543478 C65.4888889,49.8543478 65.4888889,49.8543478 65.4888889,49.8543478 C65.6444444,49.5456522 65.9555556,49.2369565 66.1111111,49.0826087 C65.8,49.0826087 65.3333333,49.2369565 64.8666667,49.3913043 C64.5555556,49.5456522 64.4,49.5456522 64.0888889,49.7 C63.3111111,50.0086957 62.5333333,50.4717391 62.0666667,51.0891304 C62.0666667,51.0891304 62.0666667,51.0891304 61.9111111,51.2434783 C61.9111111,51.2434783 61.7555556,51.2434783 61.7555556,51.2434783 C61.6,51.2434783 61.6,51.2434783 61.4444444,51.0891304 C60.9777778,50.3173913 60.3555556,49.7 59.5777778,49.3913043 C59.2666667,49.2369565 59.1111111,49.0826087 58.8,49.0826087 C58.3333333,48.9282609 58.0222222,48.773913 57.5555556,48.6195652 C58.1777778,49.5456522 58.6444444,50.4717391 59.1111111,51.5521739 C59.1111111,51.7065217 59.1111111,51.8608696 58.9555556,51.8608696 C58.8,52.0152174 58.8,52.0152174 58.6444444,51.8608696 C58.3333333,51.7065217 58.0222222,51.5521739 57.7111111,51.5521739 C57.4,51.3978261 57.0888889,51.3978261 56.9333333,51.2434783 C56.4666667,51.0891304 56,51.0891304 55.6888889,51.0891304 C56.3111111,51.7065217 56.9333333,52.4782609 57.5555556,53.25 C57.7111111,53.0956522 57.8666667,53.0956522 58.0222222,52.9413043 C58.3333333,52.7869565 59.1111111,52.4782609 59.1111111,52.4782609 C59.8888889,52.323913 60.8222222,52.1695652 61.6,52.323913 C62.3777778,52.323913 63.3111111,52.6326087 64.0888889,52.9413043 C64.7111111,53.25 65.1777778,53.5586957 65.6444444,53.8673913 C66.2666667,53.0956522 67.0444444,52.4782609 67.8222222,52.0152174 C67.3555556,52.0152174 66.8888889,52.0152174 66.4222222,52.0152174 C66.1111111,52.0152174 65.8,52.0152174 65.4888889,52.0152174 Z" id="Shape"/>
          <path d="M58.4888889,50.9347826 C58.3333333,50.626087 58.1777778,50.3173913 58.0222222,49.8543478 C57.5555556,49.7 57.2444444,49.7 56.7777778,49.5456522 C57.0888889,49.8543478 57.2444444,50.1630435 57.5555556,50.626087 C57.8666667,50.7804348 58.1777778,50.7804348 58.4888889,50.9347826 Z" id="Shape"/>
          <path d="M59.5777778,48.4652174 C60.5111111,48.9282609 61.4444444,49.5456522 61.9111111,50.3173913 C62.6888889,49.5456522 63.6222222,49.0826087 64.5555556,48.773913 C64.7111111,48.3108696 65.0222222,47.8478261 65.1777778,47.5391304 C64.0888889,47.6934783 63,48.1565217 62.2222222,49.0826087 C62.2222222,49.0826087 62.2222222,49.0826087 62.0666667,49.0826087 C62.0666667,49.0826087 61.9111111,49.0826087 61.9111111,49.0826087 C61.7555556,49.0826087 61.7555556,49.0826087 61.6,48.9282609 C60.9777778,48.0021739 60.0444444,47.3847826 58.9555556,47.076087 C59.2666667,47.6934783 59.4222222,48.0021739 59.5777778,48.4652174 Z" id="Shape"/>
          <path d="M65.0222222,51.5521739 C65.3333333,51.5521739 65.6444444,51.5521739 65.9555556,51.3978261 C66.2666667,51.0891304 66.5777778,50.7804348 66.8888889,50.4717391 C66.4222222,50.4717391 66.1111111,50.4717391 65.6444444,50.4717391 C65.4888889,50.7804348 65.3333333,51.0891304 65.0222222,51.5521739 Z" id="Shape"/>
          <path d="M65.3333333,57.5717391 L66.5777778,58.6521739 L67.2,59.1152174 C67.2,58.3434783 67.0444444,57.5717391 66.7333333,56.8 L65.3333333,57.5717391 Z" id="Shape"/>
          <path d="M79.3333333,39.5130435 L75.7555556,38.2782609 L74.5111111,39.8217391 C75.4444444,40.7478261 76.5333333,41.3652174 77.9333333,41.3652174 L79.3333333,39.5130435 Z" id="Shape"/>
          <path d="M72.1777778,31.7956522 L74.2,32.5673913 L76.5333333,29.4804348 L73.7333333,28.5543478 C72.8,29.4804348 72.1777778,30.5608696 72.1777778,31.7956522 Z" id="Shape"/>
          <path d="M76.6888889,44.1434783 C76.5333333,44.6065217 76.3777778,44.9152174 76.2222222,45.3782609 C76.5333333,45.223913 77,45.0695652 77.3111111,44.9152174 C77.4666667,44.6065217 77.6222222,44.1434783 77.6222222,43.8347826 C77.3111111,43.9891304 77,43.9891304 76.6888889,44.1434783 Z" id="Shape"/>
          <path d="M72.0222222,32.5673913 C72.0222222,33.3391304 72.0222222,34.2652174 72.1777778,35.0369565 L73.5777778,33.1847826 L72.0222222,32.5673913 Z" id="Shape"/>
          <polygon id="Shape" points="75.6 37.5065217 77 35.6543478 77.9333333 34.573913 74.3555556 33.3391304 72.4888889 35.8086957 72.4888889 36.1173913 72.6444444 36.5804348 73.8888889 37.0434783"/>
          <path d="M73.7333333,37.5065217 L72.9555556,37.1978261 C73.2666667,37.9695652 73.7333333,38.5869565 74.2,39.3586957 L75.1333333,38.123913 L73.7333333,37.5065217 Z" id="Shape"/>
          <path d="M14.6222222,4.63043478 L14.3111111,2.62391304 C13.3777778,2.62391304 12.4444444,2.62391304 11.6666667,3.08695652 C11.5111111,3.70434783 11.3555556,4.47608696 11.0444444,5.24782609 L11.2,6.32826087 L14.6222222,4.63043478 Z" id="Shape"/>
          <path d="M10.5777778,7.25434783 L10.4222222,7.40869565 C10.1111111,8.79782609 9.64444444,10.3413043 9.17777778,12.0391304 L11.2,11.1130435 L10.5777778,7.25434783 Z" id="Shape"/>
          <path d="M1.71111111,54.0217391 L0.622222222,54.176087 C0.466666667,55.1021739 0.311111111,55.7195652 0.311111111,56.1826087 L0.622222222,56.9543478 C1.24444444,57.1086957 1.86666667,57.4173913 2.48888889,57.5717391 L4.82222222,57.4173913 L3.26666667,54.0217391 L1.71111111,54.0217391 Z" id="Shape"/>
          <path d="M2.95555556,53.25 L1.4,49.8543478 L1.24444444,49.8543478 C0.933333333,51.2434783 0.777777778,52.4782609 0.622222222,53.5586957 L1.4,53.5586957 L2.95555556,53.25 Z" id="Shape"/>
          <path d="M31.4222222,62.2021739 C32.8222222,62.2021739 34.2222222,62.2021739 35.4666667,62.2021739 L35.6222222,61.8934783 L31.8888889,61.1217391 L31.4222222,62.2021739 Z" id="Shape"/>
          <path d="M30.0222222,62.2021739 C30.3333333,62.2021739 30.4888889,62.2021739 30.8,62.2021739 L31.4222222,61.1217391 L29.0888889,60.6586957 C29.2444444,61.276087 29.7111111,61.7391304 30.0222222,62.2021739 Z" id="Shape"/>
          <path d="M58.0222222,62.0478261 C59.5777778,61.8934783 61.1333333,61.8934783 62.5333333,61.7391304 L60.8222222,60.35 L58.0222222,62.0478261 Z" id="Shape"/>
          <path d="M54.9111111,62.2021739 C55.3777778,62.2021739 56,62.2021739 56.4666667,62.2021739 L54.7555556,60.8130435 C54.7555556,61.1217391 54.7555556,61.7391304 54.9111111,62.2021739 Z" id="Shape"/>
          <path d="M64.7111111,58.0347826 L62.6888889,59.2695652 L61.4444444,60.0413043 L63.3111111,61.7391304 C63.7777778,61.7391304 64.2444444,61.7391304 64.7111111,61.5847826 C65.1777778,61.5847826 65.6444444,61.4304348 66.1111111,61.4304348 L66.8888889,60.9673913 L66.8888889,60.6586957 L66.8888889,60.1956522 L65.9555556,59.423913 L64.7111111,58.0347826 Z" id="Shape"/>
          <path d="M78.8666667,29.7891304 C78.7111111,29.1717391 78.5555556,28.5543478 78.5555556,28.0913043 L77.4666667,29.326087 L78.8666667,29.7891304 Z" id="Shape"/>
          <path d="M76.8444444,29.0173913 L78.2444444,27.1652174 C78.2444444,27.0108696 78.2444444,27.0108696 78.2444444,26.8565217 C77.6222222,26.8565217 77,26.8565217 76.3777778,27.1652174 C75.6,27.3195652 74.9777778,27.7826087 74.3555556,28.0913043 L76.8444444,29.0173913 Z" id="Shape"/>
          <path d="M79.8,34.573913 C79.8,34.2652174 79.6444444,33.8021739 79.6444444,33.4934783 L79.0222222,34.2652174 L79.8,34.573913 Z" id="Shape"/>
          <path d="M74.8222222,32.876087 L78.4,34.1108696 L79.4888889,32.7217391 C79.3333333,31.95 79.1777778,31.1782609 79.0222222,30.4065217 L77.1555556,29.7891304 L74.8222222,32.876087 Z" id="Shape"/>
          <path d="M80.7333333,39.3586957 C80.7333333,39.2043478 80.7333333,39.05 80.7333333,39.05 L80.5777778,39.3586957 L80.7333333,39.3586957 Z" id="Shape"/>
          <path d="M77.6222222,35.9630435 L76.2222222,37.8152174 L77.7777778,38.2782609 L79.9555556,39.05 L80.5777778,38.2782609 C80.4222222,37.3521739 80.2666667,36.2717391 79.9555556,35.3456522 L78.5555556,34.8826087 L77.6222222,35.9630435 Z" id="Shape"/>
          <path d="M80.4222222,43.0630435 C80.5777778,43.0630435 80.5777778,42.9086957 80.4222222,43.0630435 C80.5777778,42.9086957 80.5777778,42.9086957 80.5777778,42.9086957 C80.7333333,42.9086957 80.7333333,42.9086957 80.8888889,42.9086957 C81.0444444,43.0630435 81.2,43.0630435 81.3555556,43.2173913 C81.2,42.7543478 81.2,42.1369565 81.0444444,41.673913 C80.8888889,41.673913 80.7333333,41.8282609 80.5777778,41.8282609 C79.8,42.1369565 78.8666667,42.1369565 78.0888889,42.1369565 C77.4666667,42.1369565 76.8444444,41.9826087 76.3777778,41.673913 C76.0666667,42.6 75.6,43.526087 74.9777778,44.2978261 C75.4444444,44.1434783 75.7555556,43.9891304 76.2222222,43.8347826 C76.5333333,43.6804348 76.6888889,43.526087 77,43.3717391 C77.3111111,43.2173913 77.6222222,43.0630435 77.7777778,42.9086957 C77.9333333,42.9086957 78.0888889,42.9086957 78.0888889,42.9086957 C78.2444444,42.9086957 78.2444444,43.0630435 78.2444444,43.2173913 C78.0888889,43.9891304 77.9333333,44.7608696 77.7777778,45.3782609 C77.7777778,45.3782609 77.7777778,45.3782609 77.7777778,45.3782609 C77.6222222,45.6869565 77.6222222,45.9956522 77.4666667,46.4586957 C77.7777778,46.3043478 78.0888889,45.9956522 78.5555556,45.6869565 C78.7111111,45.5326087 79.0222222,45.3782609 79.1777778,45.223913 C79.6444444,44.6065217 80.2666667,43.8347826 80.4222222,43.0630435 Z" id="Shape"/>
          <path d="M78.7111111,41.5195652 C79.3333333,41.5195652 79.8,41.3652174 80.4222222,41.2108696 C80.5777778,41.2108696 80.7333333,41.0565217 81.0444444,41.0565217 C81.0444444,40.7478261 80.8888889,40.4391304 80.8888889,40.1304348 L80.1111111,39.8217391 L78.7111111,41.5195652 Z" id="Shape"/>
          <path d="M81.5111111,43.9891304 C81.3555556,43.8347826 81.0444444,43.8347826 80.8888889,43.6804348 C80.4222222,44.6065217 79.8,45.3782609 79.0222222,45.9956522 C79.0222222,46.4586957 79.0222222,46.9217391 78.8666667,47.3847826 C79.8,46.9217391 80.7333333,45.9956522 81.0444444,44.9152174 C81.0444444,44.9152174 81.0444444,44.9152174 81.0444444,44.7608696 C81.0444444,44.7608696 81.2,44.7608696 81.2,44.6065217 C81.3555556,44.6065217 81.3555556,44.6065217 81.5111111,44.6065217 C81.5111111,44.6065217 81.6666667,44.6065217 81.6666667,44.7608696 C81.6666667,44.6065217 81.6666667,44.2978261 81.5111111,43.9891304 Z" id="Shape"/>
          <path d="M72.8,14.8173913 C73.7333333,14.6630435 74.5111111,14.3543478 75.2888889,13.8913043 C74.9777778,12.9652174 74.8222222,11.8847826 74.5111111,10.9586957 L72.0222222,12.8108696 L72.8,14.8173913 Z" id="Shape"/>
          <path d="M71.8666667,12.1934783 L74.3555556,10.3413043 C74.0444444,8.95217391 73.7333333,7.7173913 73.4222222,6.4826087 L70.6222222,8.48913043 L71.8666667,12.1934783 Z" id="Shape"/>
          <path d="M69.2222222,4.32173913 L70,6.63695652 L70.4666667,8.02608696 L73.2666667,6.01956522 C72.9555556,4.78478261 72.6444444,3.70434783 72.3333333,2.77826087 L72.1777778,2.77826087 L71.7111111,2.62391304 L70.7777778,3.39565217 L69.2222222,4.32173913 Z" id="Shape"/>
          <path d="M63,1.69782609 C62.8444444,1.38913043 62.5333333,1.08043478 62.3777778,0.77173913 C62.3777778,0.77173913 62.2222222,0.77173913 62.2222222,0.77173913 C62.2222222,1.08043478 62.0666667,1.38913043 62.0666667,1.69782609 C62.3777778,2.00652174 62.5333333,2.31521739 62.8444444,2.62391304 C63,2.31521739 63,2.00652174 63,1.69782609 Z" id="Shape"/>
          <path d="M60.9777778,3.08695652 C61.1333333,3.85869565 61.4444444,4.78478261 61.9111111,5.40217391 C61.9111111,5.40217391 61.9111111,5.55652174 61.9111111,5.55652174 C61.9111111,5.55652174 61.9111111,5.71086957 61.9111111,5.71086957 C61.9111111,5.86521739 61.7555556,5.86521739 61.7555556,5.86521739 C60.9777778,6.01956522 60.2,6.63695652 59.5777778,7.25434783 C59.4222222,7.40869565 59.2666667,7.7173913 59.1111111,7.87173913 C58.8,8.18043478 58.6444444,8.64347826 58.3333333,8.95217391 C59.4222222,8.48913043 60.5111111,8.33478261 61.6,8.18043478 C61.7555556,8.18043478 61.9111111,8.18043478 61.9111111,8.33478261 C61.9111111,8.48913043 61.9111111,8.64347826 61.9111111,8.64347826 C61.7555556,8.95217391 61.6,9.26086957 61.2888889,9.56956522 C61.1333333,9.87826087 60.9777778,10.0326087 60.8222222,10.3413043 C60.6666667,10.8043478 60.5111111,11.1130435 60.3555556,11.576087 C61.1333333,11.1130435 61.9111111,10.65 62.8444444,10.3413043 C62.8444444,10.1869565 62.6888889,10.0326087 62.6888889,9.87826087 C62.6888889,9.56956522 62.5333333,8.79782609 62.5333333,8.79782609 C62.5333333,8.02608696 62.5333333,7.1 62.8444444,6.32826087 C63.1555556,5.55652174 63.4666667,4.78478261 63.9333333,4.01304348 C64.2444444,3.55 64.7111111,3.08695652 65.1777778,2.77826087 C64.5555556,2.00652174 64.0888889,1.08043478 63.7777778,0.154347826 C63.7777778,0.617391304 63.7777778,1.08043478 63.6222222,1.54347826 C63.6222222,1.85217391 63.6222222,2.16086957 63.4666667,2.46956522 C63.4666667,2.77826087 63.4666667,3.08695652 63.4666667,3.39565217 C63.4666667,3.55 63.4666667,3.70434783 63.3111111,3.70434783 C63.1555556,3.70434783 63,3.70434783 63,3.70434783 C62.3777778,3.24130435 61.9111111,2.62391304 61.4444444,2.00652174 C61.4444444,2.00652174 61.4444444,2.00652174 61.4444444,2.00652174 C61.2888889,1.85217391 61.1333333,1.54347826 60.9777778,1.38913043 C60.9777778,1.38913043 60.8222222,1.38913043 60.8222222,1.38913043 C60.8222222,1.69782609 60.8222222,2.16086957 60.8222222,2.46956522 C60.8222222,2.62391304 60.8222222,2.77826087 60.9777778,3.08695652 Z" id="Shape"/>
        </g>
        <g id="Group" stroke-linecap="round" stroke-linejoin="round" stroke="#A80054">
          <path d="M77.9333333,33.1847826 C75.6,21.9173913 72.0222222,9.10652174 71.5555556,7.56304348 C71.0888889,7.87173913 70.4666667,8.02608696 69.8444444,8.02608696 C68.6,8.18043478 66.8888889,7.1 65.1777778,7.25434783 C63.7777778,7.40869565 62.3777778,8.79782609 60.6666667,8.79782609 C58.9555556,8.79782609 57.5555556,7.87173913 56,7.87173913 C54.4444444,7.87173913 53.0444444,9.26086957 51.4888889,9.26086957 C49.9333333,9.26086957 48.3777778,8.18043478 46.8222222,8.18043478 C45.2666667,8.18043478 43.7111111,9.41521739 42.1555556,9.41521739 C40.6,9.41521739 39.0444444,8.18043478 37.4888889,8.18043478 C35.9333333,8.18043478 34.3777778,9.26086957 32.8222222,9.26086957 C31.2666667,9.26086957 29.7111111,7.87173913 28.1555556,7.87173913 C26.6,7.87173913 24.8888889,8.79782609 23.4888889,8.79782609 C22.0888889,8.79782609 20.3777778,7.25434783 18.9777778,7.25434783 C17.2666667,7.1 15.5555556,8.02608696 14.1555556,8.02608696 C13.5333333,8.02608696 12.9111111,7.87173913 12.4444444,7.56304348 C11.9777778,9.10652174 8.4,21.9173913 6.06666667,33.1847826 C3.11111111,47.076087 0.155555556,64.3630435 0.155555556,64.3630435 C6.37777778,66.6782609 12.7555556,68.2217391 19.1333333,68.9934783 C26.1333333,69.7652174 33.1333333,70.073913 40.1333333,69.7652174 C41.0666667,57.8804348 41.8444444,29.4804348 41.8444444,29.4804348 C41.8444444,29.4804348 44.9555556,57.726087 45.8888889,69.6108696 C52.1111111,69.9195652 58.3333333,69.7652174 64.5555556,69.1478261 C71.0888889,68.376087 77.4666667,66.8326087 83.5333333,64.5173913 C83.8444444,64.5173913 80.8888889,47.076087 77.9333333,33.1847826 Z" id="Shape" stroke-width="1.24"/>
          <path d="M18.9777778,7.25434783 C20.3777778,7.40869565 21.7777778,8.79782609 23.4888889,8.79782609 C25.2,8.79782609 26.6,7.87173913 28.1555556,7.87173913 C29.7111111,7.87173913 31.1111111,9.26086957 32.8222222,9.26086957 C34.5333333,9.26086957 35.9333333,8.18043478 37.4888889,8.18043478 C39.0444444,8.18043478 40.6,9.41521739 42.1555556,9.41521739 C43.7111111,9.41521739 45.2666667,8.18043478 46.8222222,8.18043478 C48.3777778,8.18043478 49.9333333,9.26086957 51.4888889,9.26086957 C53.0444444,9.26086957 54.6,7.87173913 56,7.87173913 C57.4,7.87173913 59.2666667,8.79782609 60.6666667,8.79782609 C62.0666667,8.79782609 63.7777778,7.25434783 65.1777778,7.25434783 C66.8888889,7.1 68.6,8.18043478 69.8444444,8.02608696 C70.4666667,8.02608696 71.0888889,7.87173913 71.5555556,7.56304348 L71.5555556,7.40869565 L70,1.23478261 C70,1.23478261 55.3777778,2.62391304 42,2.62391304 C28.6222222,2.62391304 14.6222222,1.23478261 14.6222222,1.23478261 L12.4444444,7.40869565 C12.4444444,7.40869565 12.4444444,7.56304348 12.4444444,7.56304348 C13.0666667,7.7173913 13.5333333,7.87173913 14.1555556,7.87173913 C15.5555556,8.02608696 17.2666667,7.1 18.9777778,7.25434783 Z" id="Shape" stroke-width="1.24" fill="#FFFF4F" fill-rule="nonzero"/>
          <path d="M42.1555556,9.56956522 L42.1555556,2.77826087" id="Shape" stroke-width="0.8215"/>
          <path d="M46.9777778,8.18043478 L46.9777778,2.77826087" id="Shape" stroke-width="0.8215"/>
          <path d="M52.1111111,9.10652174 L51.8,2.62391304" id="Shape" stroke-width="0.8215"/>
          <path d="M56.9333333,8.02608696 L56.6222222,2.46956522" id="Shape" stroke-width="0.8215"/>
          <path d="M61.9111111,8.33478261 L61.2888889,2.16086957" id="Shape" stroke-width="0.8215"/>
          <path d="M66.7333333,7.25434783 L65.9555556,1.85217391" id="Shape" stroke-width="0.8215"/>
          <path d="M37.0222222,8.18043478 L37.0222222,2.77826087" id="Shape" stroke-width="0.8215"/>
          <path d="M31.8888889,8.95217391 L32.2,2.62391304" id="Shape" stroke-width="0.8215"/>
          <path d="M27.0666667,7.87173913 L27.3777778,2.46956522" id="Shape" stroke-width="0.8215"/>
          <path d="M22.0888889,8.18043478 L22.7111111,2.16086957" id="Shape" stroke-width="0.8215"/>
          <path d="M17.2666667,7.25434783 L18.0444444,1.85217391" id="Shape" stroke-width="0.8215"/>
        </g>
      </g>
    </g>
  </g>
</svg>