<svg version="1.1" width="93" height="122" viewBox="-1 -1 93 122" xmlns="http://www.w3.org/2000/svg" xmlns:xlink="http://www.w3.org/1999/xlink">
  <!-- Exported by Scratch - http://scratch.mit.edu/ -->
  <g id="ID0.03462219424545765" transform="matrix(1, 0, 0, 1, 0.25, 0)">
    <g id="Page-1">
      <g id="max-c-[sports,basketball,people,alex-eben-meyer]">
        <g id="Head">
          <path id="Shape" fill="#BE0A3C" stroke="none" stroke-width="1" d="M 6.747 5.946 C 0.351 14.504 -6.081 30.214 13.661 38.293 C 36.464 47.617 36.681 11.537 28.156 3.973 C 24.006 0.292 21.061 -0.140 16.569 0.096 C 12.347 0.311 7.892 4.413 6.747 5.946 Z " transform="matrix(1, 0, 0, 1, 27, 0.5)"/>
          <path id="Shape" fill="#A0640A" stroke="none" stroke-width="1" d="M 18.176 2.899 C 9.607 2.899 8.763 12.819 9.065 14.057 C 9.917 17.535 11.194 21.696 14.838 23.202 C 17.871 24.456 21.933 23.557 24.130 21.145 C 26.087 18.997 28.381 12.759 27.630 9.904 C 27.786 9.357 26.742 2.899 18.176 2.899 Z " transform="matrix(1, 0, 0, 1, 27, 0.5)"/>
          <path id="Shape" fill="#A0640A" stroke="none" stroke-width="1" d="M 25.528 18.190 C 29.269 17.954 30.707 16.161 30.506 13.026 C 30.221 8.570 25.930 12.380 25.930 12.380 C 25.930 12.380 25.127 17.327 25.528 18.190 Z " transform="matrix(1, 0, 0, 1, 27, 0.5)"/>
          <path id="Shape" fill="#A0640A" stroke="none" stroke-width="1" d="M 10.559 18.190 C 6.823 17.954 5.381 16.161 5.582 13.026 C 5.867 8.570 10.158 12.364 10.158 12.364 C 10.158 12.364 10.961 17.327 10.559 18.190 Z " transform="matrix(1, 0, 0, 1, 27, 0.5)"/>
          <path id="Shape" fill="#824600" stroke="none" stroke-width="1" d="M 18.566 15.522 C 18.657 15.484 18.742 15.435 18.819 15.375 C 18.845 15.229 18.863 15.083 18.871 14.935 C 18.952 13.394 18.960 12.172 18.104 11.070 C 17.104 10.898 16.871 14.228 17.120 15.530 C 17.587 15.702 18.101 15.699 18.566 15.522 Z " transform="matrix(1, 0, 0, 1, 27, 0.5)"/>
          <path id="Shape" fill="#000000" stroke="none" stroke-width="1" d="M 15.292 18.450 C 15.561 17.220 20.032 17.399 20.844 18.350 C 21.656 19.300 19.968 20.131 18.863 20.059 C 17.068 19.943 15.023 19.679 15.292 18.450 Z " transform="matrix(1, 0, 0, 1, 27, 0.5)"/>
          <path id="Shape" fill="#000000" stroke="none" stroke-width="1" d="M 23.263 12.080 C 24.243 11.569 23.857 13.518 23.664 13.833 C 22.772 13.773 22.925 12.655 23.263 12.080 Z " transform="matrix(1, 0, 0, 1, 27, 0.5)"/>
          <path id="Shape" fill="#000000" stroke="none" stroke-width="1" d="M 11.969 11.896 C 12.946 11.389 12.560 13.338 12.371 13.653 C 11.467 13.578 11.620 12.471 11.969 11.896 Z " transform="matrix(1, 0, 0, 1, 27, 0.5)"/>
          <path id="Shape" fill="#A0001E" stroke="none" stroke-width="1" d="M 18.233 5.048 L 28.152 12.739 C 28.152 12.739 29.220 6.749 24.978 4.021 C 20.736 1.294 18.233 5.048 18.233 5.048 Z " transform="matrix(1, 0, 0, 1, 27, 0.5)"/>
          <path id="Shape" fill="#BE0A3C" stroke="none" stroke-width="1" d="M 8.209 13.941 L 25.115 3.271 C 25.115 3.271 16.445 -2.668 10.117 3.327 C 5.140 8.063 8.209 13.941 8.209 13.941 Z " transform="matrix(1, 0, 0, 1, 27, 0.5)"/>
        </g>
        <g id="Left-Arm">
          <path id="Shape" fill="#A0640A" stroke="none" stroke-width="1" d="M 9.353 59.076 C 7.999 58.501 6.163 64.208 5.094 64.363 C 4.026 64.519 6.645 58.617 6.328 57.946 C 5.926 57.127 3.917 62.031 2.583 61.939 C 2.366 61.939 5.745 53.413 10.875 42.344 C 18.508 25.863 26.977 8.400 29.082 4.311 C 31.188 0.221 33.851 0.137 33.851 0.137 L 39.809 7.541 C 39.809 7.541 10.847 64.052 9.457 64.411 C 8.067 64.771 10.707 59.651 9.353 59.076 Z " transform="matrix(1, 0, 0, 1, 0, 28.5)"/>
          <path id="Shape" fill="#824600" stroke="none" stroke-width="1" d="M 0.362 53.298 C 1.683 54.164 3.849 51.557 5.231 52.355 C 6.613 53.154 5.500 55.606 8.585 55.550 C 11.671 55.494 12.201 53.781 12.699 51.285 C 13.503 47.292 7.967 47.871 6.432 48.601 C 5.259 49.156 0.643 51.868 0.362 53.298 Z " transform="matrix(1, 0, 0, 1, 0, 28.5)"/>
          <path id="Shape" fill="#005A5A" stroke="none" stroke-width="1" d="M 22.068 44.161 C 21.011 42.991 12.426 38.606 10.879 38.941 C 9.333 39.277 8.067 42.723 7.866 44.876 C 8.830 45.534 17.074 49.903 18.842 50.067 C 20.610 50.231 23.125 45.331 22.068 44.161 Z " transform="matrix(1, 0, 0, 1, 0, 28.5)"/>
          <path id="Shape" fill="#00A08C" stroke="none" stroke-width="1" d="M 9.063 40.056 L 22.289 46.589 L 21.019 48.925 L 7.898 42.691 L 9.063 40.056 " transform="matrix(1, 0, 0, 1, 0, 28.5)"/>
        </g>
        <g id="Right-Arm">
          <path id="Shape" fill="#A0640A" stroke="none" stroke-width="1" d="M 33.238 58.257 C 34.568 57.630 36.621 63.265 37.697 63.377 C 38.774 63.489 35.926 57.694 36.219 57.011 C 36.576 56.177 38.770 61.005 40.112 60.845 C 40.325 60.817 36.625 52.459 31.068 41.577 C 22.805 25.400 13.673 8.260 11.411 4.263 C 9.149 0.265 6.490 0.269 6.490 0.269 L 0.817 7.893 C 0.817 7.893 31.924 63.277 33.338 63.585 C 34.752 63.892 31.908 58.876 33.238 58.257 Z " transform="matrix(1, 0, 0, 1, 50, 28.5)"/>
          <path id="Shape" fill="#824600" stroke="none" stroke-width="1" d="M 42 52.132 C 40.710 53.050 38.449 50.534 37.095 51.377 C 35.741 52.219 36.954 54.635 33.881 54.691 C 30.807 54.747 30.189 53.062 29.606 50.586 C 28.670 46.621 34.202 46.992 35.761 47.667 C 36.946 48.182 41.663 50.702 42 52.132 Z " transform="matrix(1, 0, 0, 1, 50, 28.5)"/>
          <path id="Shape" fill="#005A5A" stroke="none" stroke-width="1" d="M 19.956 43.829 C 20.969 42.631 29.385 37.911 30.936 38.187 C 32.487 38.462 33.897 41.861 34.174 44.001 C 33.238 44.700 25.167 49.376 23.407 49.592 C 21.648 49.807 18.948 45.035 19.956 43.829 Z " transform="matrix(1, 0, 0, 1, 50, 28.5)"/>
          <path id="Shape" fill="#00A08C" stroke="none" stroke-width="1" d="M 32.796 39.233 L 19.828 46.261 L 21.186 48.549 L 34.057 41.821 L 32.796 39.233 " transform="matrix(1, 0, 0, 1, 50, 28.5)"/>
        </g>
        <path id="Shape" fill="#005A5A" stroke="none" stroke-width="1" d="M 41.380 48.392 L 21.763 61.171 C 21.763 61.171 20.959 64.114 22.056 66.530 C 23.036 68.670 25.772 70.376 28.235 69.633 C 36.559 67.129 38.861 76.166 52.548 69.960 C 57.369 67.768 59.450 63.104 65.694 64.625 C 68.389 65.284 70.675 64.290 71.760 63.028 C 72.628 61.939 73.058 60.568 72.965 59.182 L 41.380 48.392 Z " transform="matrix(1, 0, 0, 1, 0, 0.5)"/>
        <g id="Right-Leg">
          <path id="Shape" fill="#A0640A" stroke="none" stroke-width="1" d="M 6.464 38.200 L 13.370 31.551 L 13.334 6.013 L 2.298 6.469 L 3.246 31.927 L 6.464 38.200 " transform="matrix(1, 0, 0, 1, 47, 56.5)"/>
          <path id="Shape" fill="#000000" stroke="none" stroke-width="1" d="M 14.853 11.305 L 15.026 0.319 L 0.784 0.686 L 1.041 11.305 L 14.853 11.305 " transform="matrix(1, 0, 0, 1, 47, 56.5)"/>
          <path id="Shape" fill="#FAF0E6" stroke="none" stroke-width="1" d="M 3.343 36.052 L 3.937 52.648 L 13.559 53.487 L 13.463 36.136 L 8.256 34.175 L 3.343 36.052 " transform="matrix(1, 0, 0, 1, 47, 56.5)"/>
          <path id="Shape" fill="#F0E6D2" stroke="none" stroke-width="1" d="M 13.463 36.136 L 13.370 31.551 L 3.122 31.831 L 3.331 36.136 L 13.463 36.136 " transform="matrix(1, 0, 0, 1, 47, 56.5)"/>
          <path id="Shape" fill="#00A08C" stroke="none" stroke-width="1" d="M 19.678 63.778 L 13.033 62.919 L 4.014 63.542 L 4.082 64.736 L 20.140 64.972 L 19.678 63.778 " transform="matrix(1, 0, 0, 1, 47, 56.5)"/>
          <path id="Shape" fill="#000000" stroke="none" stroke-width="1" d="M 18.485 62.488 C 17.285 62.424 16.090 62.281 14.909 62.061 L 13.704 49.534 L 3.620 49.534 L 4.022 63.542 L 19.690 63.778 C 19.531 63.439 19.397 63.089 19.288 62.732 C 19.032 62.616 18.762 62.534 18.485 62.488 Z " transform="matrix(1, 0, 0, 1, 47, 56.5)"/>
          <path id="Shape" fill="#00A08C" stroke="none" stroke-width="1" d="M 6.135 56.422 L 10.582 56.434 L 10.197 51.686 L 5.954 51.602 L 6.135 56.422 " transform="matrix(1, 0, 0, 1, 47, 56.5)"/>
          <path id="Shape" fill="#005A5A" stroke="none" stroke-width="1" d="M 15.078 52.521 L 12.957 52.521 L 12.957 51.742 L 14.937 51.742 L 15.078 52.521 " transform="matrix(1, 0, 0, 1, 47, 56.5)"/>
          <path id="Shape" fill="#00A08C" stroke="none" stroke-width="1" d="M 15.423 54.342 L 12.957 54.342 L 12.957 53.559 L 15.283 53.559 L 15.423 54.342 " transform="matrix(1, 0, 0, 1, 47, 56.5)"/>
          <path id="Shape" fill="#005A5A" stroke="none" stroke-width="1" d="M 15.773 56.159 L 12.957 56.159 L 12.957 55.376 L 15.632 55.376 L 15.773 56.159 " transform="matrix(1, 0, 0, 1, 47, 56.5)"/>
          <path id="Shape" fill="#00A08C" stroke="none" stroke-width="1" d="M 16.122 57.976 L 12.957 57.976 L 12.957 57.193 L 15.982 57.193 L 16.122 57.976 " transform="matrix(1, 0, 0, 1, 47, 56.5)"/>
          <path id="Shape" fill="#005A5A" stroke="none" stroke-width="1" d="M 16.472 59.793 L 12.957 59.793 L 12.957 59.014 L 16.331 59.014 L 16.472 59.793 " transform="matrix(1, 0, 0, 1, 47, 56.5)"/>
        </g>
        <g id="Left-Leg">
          <path id="Shape" fill="#A0640A" stroke="none" stroke-width="1" d="M 14.556 38.200 L 7.650 31.551 L 7.686 6.013 L 18.722 6.469 L 17.774 31.927 L 14.556 38.200 " transform="matrix(1, 0, 0, 1, 24, 56.5)"/>
          <path id="Shape" fill="#000000" stroke="none" stroke-width="1" d="M 6.167 11.305 L 5.994 0.319 L 20.240 0.686 L 19.979 11.305 L 6.167 11.305 " transform="matrix(1, 0, 0, 1, 24, 56.5)"/>
          <path id="Shape" fill="#FAF0E6" stroke="none" stroke-width="1" d="M 17.677 36.052 L 17.083 52.648 L 7.461 53.487 L 7.553 36.136 L 12.764 34.175 L 17.677 36.052 " transform="matrix(1, 0, 0, 1, 24, 56.5)"/>
          <path id="Shape" fill="#F0E6D2" stroke="none" stroke-width="1" d="M 7.553 36.136 L 7.650 31.551 L 17.898 31.831 L 17.689 36.136 L 7.553 36.136 " transform="matrix(1, 0, 0, 1, 24, 56.5)"/>
          <path id="Shape" fill="#00A08C" stroke="none" stroke-width="1" d="M 1.342 63.778 L 7.987 62.919 L 17.006 63.542 L 16.938 64.736 L 0.884 64.972 L 1.342 63.778 " transform="matrix(1, 0, 0, 1, 24, 56.5)"/>
          <path id="Shape" fill="#000000" stroke="none" stroke-width="1" d="M 2.515 62.488 C 3.715 62.424 4.910 62.281 6.091 62.061 L 7.296 49.534 L 17.396 49.534 L 16.994 63.542 L 1.326 63.778 C 1.485 63.439 1.619 63.089 1.728 62.732 C 1.979 62.618 2.243 62.536 2.515 62.488 Z " transform="matrix(1, 0, 0, 1, 24, 56.5)"/>
          <path id="Shape" fill="#00A08C" stroke="none" stroke-width="1" d="M 14.885 56.422 L 10.438 56.434 L 10.823 51.686 L 15.070 51.602 L 14.885 56.422 " transform="matrix(1, 0, 0, 1, 24, 56.5)"/>
          <path id="Shape" fill="#005A5A" stroke="none" stroke-width="1" d="M 5.942 52.521 L 8.063 52.521 L 8.063 51.742 L 6.083 51.742 L 5.942 52.521 " transform="matrix(1, 0, 0, 1, 24, 56.5)"/>
          <path id="Shape" fill="#00A08C" stroke="none" stroke-width="1" d="M 5.597 54.342 L 8.063 54.342 L 8.063 53.559 L 5.733 53.559 L 5.597 54.342 " transform="matrix(1, 0, 0, 1, 24, 56.5)"/>
          <path id="Shape" fill="#005A5A" stroke="none" stroke-width="1" d="M 5.247 56.159 L 8.063 56.159 L 8.063 55.376 L 5.388 55.376 L 5.247 56.159 " transform="matrix(1, 0, 0, 1, 24, 56.5)"/>
          <path id="Shape" fill="#00A08C" stroke="none" stroke-width="1" d="M 4.898 57.976 L 8.063 57.976 L 8.063 57.193 L 5.038 57.193 L 4.898 57.976 " transform="matrix(1, 0, 0, 1, 24, 56.5)"/>
          <path id="Shape" fill="#005A5A" stroke="none" stroke-width="1" d="M 4.552 59.793 L 8.063 59.793 L 8.063 59.014 L 4.689 59.014 L 4.552 59.793 " transform="matrix(1, 0, 0, 1, 24, 56.5)"/>
        </g>
        <g id="Torso">
          <path id="Rectangle-path" fill="#000000" stroke="none" stroke-width="1" d="M 11.618 25.318 L 37.543 25.318 L 37.543 37.302 L 11.618 37.302 L 11.618 25.318 Z " transform="matrix(1, 0, 0, 1, 21, 27.5)"/>
          <path id="Shape" fill="#A0640A" stroke="none" stroke-width="1" d="M 16.101 0.854 L 15.583 4.528 L 17.953 9.596 L 33.135 7.591 L 31.026 0.854 L 16.101 0.854 " transform="matrix(1, 0, 0, 1, 21, 27.5)"/>
          <path id="Shape" fill="#00A08C" stroke="none" stroke-width="1" d="M 35.831 0.319 L 29.552 0.319 C 29.781 2.587 29.327 6.093 24.478 6.569 C 18.709 7.132 18.371 2.304 18.452 0.319 L 12.686 0.319 L 0.775 34.159 C 0.775 34.159 51.869 32.126 51.977 32.162 L 35.831 0.319 Z " transform="matrix(1, 0, 0, 1, 21, 27.5)"/>
        </g>
      </g>
    </g>
  </g>
</svg>