<svg version="1.1" width="83" height="100" viewBox="-1 -1 83 100" xmlns="http://www.w3.org/2000/svg" xmlns:xlink="http://www.w3.org/1999/xlink">
  <!-- Exported by Scratch - http://scratch.mit.edu/ -->
  <g id="ID0.05873875878751278" transform="matrix(1, 0, 0, 1, 0.3, 0.5)">
    <g id="Page-1">
      <g id="catcher-a-[baseball,sports,people,alex-eben-meyer]">
        <g id="Face">
          <path id="Shape" fill="#000000" stroke="none" stroke-width="1" d="M 37.248 0.558 L 11.239 0.558 C 10.612 1.651 10.372 3.240 10.994 6.507 C 11.846 10.967 12.458 15.299 7.660 19.995 C -2.004 29.423 1.538 41.501 0.384 43.048 C 0.516 43.623 8.677 48.233 9.124 48.601 L 43.201 39.682 C 44.524 39.361 48.325 34.312 47.345 30.475 C 46.912 28.773 42.706 26.071 40.945 22.734 C 35.906 13.183 38.331 3.019 37.248 0.558 Z " transform="matrix(1, 0, 0, 1, 13, 14)"/>
          <path id="Shape" fill="#A06446" stroke="none" stroke-width="1" d="M 33.740 10.660 C 34.178 8.695 34.310 6.663 34.743 4.725 C 36.349 2.641 39.188 4.282 39.151 6.568 C 39.099 9.421 36.306 10.882 33.740 10.660 Z " transform="matrix(1, 0, 0, 1, 13, 14)"/>
          <path id="Shape" fill="#A06446" stroke="none" stroke-width="1" d="M 15.162 10.236 C 14.719 8.270 14.587 6.234 14.154 4.296 C 12.548 2.217 9.708 3.853 9.746 6.139 C 9.798 8.996 12.595 10.458 15.162 10.236 Z " transform="matrix(1, 0, 0, 1, 13, 14)"/>
          <path id="Shape" fill="#BE8264" stroke="none" stroke-width="1" d="M 35.812 0.657 L 13.240 0.393 C 12.600 8.869 14.314 19.471 24.580 19.943 C 29.949 20.174 32.911 16.129 34.743 11.603 C 35.596 9.439 36.028 7.132 36.014 4.805 C 36.033 3.778 36.415 1.557 35.812 0.657 Z " transform="matrix(1, 0, 0, 1, 13, 14)"/>
          <path id="Shape" fill="#A06446" stroke="none" stroke-width="1" d="M 23.690 0.925 L 25.776 0.925 C 26.841 3.151 26.940 5.267 25.710 7.323 C 24.952 7.608 24.097 7.325 23.657 6.644 C 22.841 4.823 22.853 2.737 23.690 0.925 Z " transform="matrix(1, 0, 0, 1, 13, 14)"/>
          <path id="Shape" fill="#000000" stroke="none" stroke-width="1" d="M 20.907 10.507 C 20.907 10.507 27.373 10.140 28.159 11.043 C 27.688 13.406 24.745 13.838 23.017 13.085 C 22.070 12.712 21.294 11.764 20.907 10.507 Z " transform="matrix(1, 0, 0, 1, 13, 14)"/>
          <path id="Shape" fill="#000000" stroke="none" stroke-width="1" d="M 19.994 4.415 C 21.079 5.816 20.872 6.476 19.240 7.239 C 18.404 7.239 18.073 6.923 17.867 6.544 C 17.464 5.787 17.702 5.156 18.724 4.249 L 19.994 4.415 Z " transform="matrix(1, 0, 0, 1, 13, 14)"/>
          <path id="Shape" fill="#000000" stroke="none" stroke-width="1" d="M 31.447 7.136 C 31.626 6.325 30.454 5.388 32.412 4.603 L 33.502 4.672 C 34.509 5.141 34.481 6.642 33.502 7.528 C 32.661 7.712 32.068 7.477 31.447 7.136 Z " transform="matrix(1, 0, 0, 1, 13, 14)"/>
        </g>
        <g id="Hat">
          <path id="Shape" fill="#008264" stroke="none" stroke-width="1" d="M 29.876 12.021 C 28.784 8.382 25.638 1.758 17.340 2.159 C 7.389 2.631 5.355 10.107 4.997 12.021 L 29.876 12.021 Z " transform="matrix(1, 0, 0, 1, 20, 0)"/>
          <path id="Shape" fill="#F0E6D2" stroke="none" stroke-width="1" d="M 24.088 6.987 L 24.327 12.644 C 25.158 12.770 26.042 12.770 26.873 12.644 C 26.992 11.922 27.048 9.391 27.075 6.987 L 24.088 6.987 Z " transform="matrix(1, 0, 0, 1, 20, 0)"/>
          <path id="Shape" fill="#F0E6D2" stroke="none" stroke-width="1" d="M 9.593 6.987 L 9.824 12.644 C 10.657 12.770 11.544 12.770 12.377 12.644 C 12.497 11.922 12.552 9.391 12.580 6.987 L 9.593 6.987 Z " transform="matrix(1, 0, 0, 1, 20, 0)"/>
          <path id="Shape" fill="#F01446" stroke="none" stroke-width="1" d="M 32.226 10.881 C 33.066 10.941 33.864 11.271 34.501 11.823 C 35.032 12.308 35.344 12.989 35.363 13.709 C 35.541 14.783 35.161 15.874 34.355 16.604 C 32.796 16.604 31.247 17.075 29.645 16.726 C 29.330 16.656 4.785 16.472 3.547 16.434 C 2.714 16.154 1.916 15.779 1.168 15.317 C 1.057 15.111 0.972 14.893 0.914 14.666 C 0.828 14.054 0.784 13.436 0.782 12.818 C 0.869 11.789 1.647 10.952 2.666 10.791 C 4.620 10.480 30.771 10.843 32.226 10.881 Z " transform="matrix(1, 0, 0, 1, 20, 0)"/>
          <path id="Shape" fill="#F0E6D2" stroke="none" stroke-width="1" d="M 31.831 0.226 L 3.269 0.179 L 3.269 8.283 C 3.269 8.283 23.005 8.373 31.849 8.283 L 31.831 0.226 Z M 30.050 6.209 C 21.729 6.147 13.238 6.209 4.959 6.284 C 4.959 4.818 4.959 3.276 4.959 2.117 C 12.579 2.263 21.772 2.263 30.046 2.216 L 30.050 6.209 Z " transform="matrix(1, 0, 0, 1, 20, 0)"/>
        </g>
        <g id="Torso-and-Shoulders">
          <path id="Shape" fill="#BE0A3C" stroke="none" stroke-width="1" d="M 49.860 19.388 C 49.294 20.213 37.940 20.637 36.739 20.208 C 36.339 19.218 37.597 8.526 37.681 6.598 C 37.804 6.693 42.221 8.088 45.536 11.525 C 48.192 14.254 49.930 19.157 49.860 19.388 Z " transform="matrix(1, 0, 0, 1, 16, 36)"/>
          <path id="Shape" fill="#F01446" stroke="none" stroke-width="1" d="M 38.628 7.060 C 36.382 5.717 30.509 3.539 29.727 3.520 C 29.727 3.807 12.948 3.048 10.518 4.222 C 8.894 4.994 7.465 6.122 6.336 7.522 C 5.941 7.994 2.649 12.260 1.853 14.825 C 0.299 19.860 1.099 24.583 1.424 24.861 L 21.472 34.290 L 44.547 27.742 C 44.449 26.978 38.628 7.277 38.628 7.060 Z " transform="matrix(1, 0, 0, 1, 16, 36)"/>
          <path id="Shape" fill="#6E1E3C" stroke="none" stroke-width="1" d="M 34.206 4.038 C 30.858 1.658 26.139 0.432 21.491 0.498 C 17.008 0.564 12.590 1.832 9.543 4.430 C 9.473 5.335 5.385 30.990 5.305 31.848 L 40.709 32.131 C 40.676 31.650 36.546 6.396 34.206 4.038 Z " transform="matrix(1, 0, 0, 1, 16, 36)"/>
        </g>
        <g id="Left-Arm">
          <path id="Shape" fill="#A06446" stroke="none" stroke-width="1" d="M 1.403 19.583 L 6.984 19.696 C 7.577 18.828 8.170 17.956 8.750 17.084 C 9.588 15.401 9.738 14.472 10.012 12.629 C 10.158 11.625 10.567 1.447 9.541 1.423 C 8.514 1.400 9.541 7.552 7.186 6.830 C 5.580 5.779 6.244 0.301 5.218 0.315 C 4.191 0.329 4.704 5.350 3.659 7.241 C 1.304 8.278 1.704 3.361 0.918 3.309 C 0.132 3.257 0.617 8.231 0.791 11.653 C 0.965 15.076 0.861 17.466 1.403 19.583 Z " transform="matrix(1, 0, 0, 1, 6, 1)"/>
          <path id="Shape" fill="#BE8264" stroke="none" stroke-width="1" d="M 12.630 49.160 C 9.917 49.292 7.219 48.533 4.652 48.458 C 3.833 47.684 2.835 40.363 2.594 39.317 C 2.255 37.769 1.996 36.205 1.817 34.631 C 1.410 30.972 1.193 27.295 1.168 23.613 C 1.083 19.625 0.310 16.070 2.882 13.082 C 4.478 11.224 6.739 11.040 8.698 10.314 C 10.657 9.588 11.895 4.384 12.771 5.642 C 13.431 6.585 10.737 11.993 10.454 13.633 C 9.908 17.049 9.594 20.499 9.512 23.957 C 9.305 30.463 11.778 42.782 12.630 49.160 Z " transform="matrix(1, 0, 0, 1, 6, 1)"/>
          <path id="Shape" fill="#BE0A3C" stroke="none" stroke-width="1" d="M 2.095 42.371 C 2.924 48.321 4.648 58.815 4.737 59.682 C 4.737 59.890 15.861 59.781 15.861 59.781 C 15.861 59.781 13.803 48.938 12.635 42.164 L 2.095 42.371 Z " transform="matrix(1, 0, 0, 1, 6, 1)"/>
        </g>
        <path id="Shape" fill="#BE8264" stroke="none" stroke-width="1" d="M 64.988 57 C 64.880 56.963 47.587 51.725 47.324 51.720 C 47.131 52.663 44.239 63.379 44.239 63.379 L 60.288 64.793 C 60.482 63.643 65.601 57.227 64.988 57 Z "/>
        <path id="Shape" fill="#008264" stroke="none" stroke-width="1" d="M 73.234 59.447 L 70.776 47.803 C 68.191 47.331 64.277 50.815 62.379 52.253 C 60.863 53.399 53.677 58.382 47.936 62.257 C 45.110 64.166 38.013 64.732 35.089 63.624 C 27.620 60.795 25.699 57.920 24.121 56.185 C 16.285 47.562 8.745 48.557 8.745 48.557 L 6.489 70.856 C 6.489 70.856 10.907 83.518 39.012 83.518 C 67.117 83.518 69.330 72.444 70.734 71.058 C 73.936 67.886 70.329 62.865 73.234 59.447 Z "/>
        <g id="Glove">
          <path id="Shape" fill="#824600" stroke="none" stroke-width="1" d="M 16.768 4.544 C 16.801 4.120 12.883 0.773 12.907 0.117 C 11.998 0.495 9.139 1.060 8.456 1.508 C 8.042 1.777 7.609 2.017 7.185 2.272 L 6.394 2.743 C 5.670 3.274 5.015 3.893 4.444 4.587 C 3.206 5.895 2.245 7.441 1.618 9.131 C 1.053 10.545 0.983 12.087 0.851 13.596 C 0.844 13.910 0.856 14.225 0.888 14.538 C 0.888 14.694 0.917 14.845 0.926 15.010 C 0.959 15.811 0.987 16.613 1.030 17.414 C 1.030 17.551 2.494 20.351 2.560 20.559 L 12.483 15.514 C 12.483 15.514 16.721 5.143 16.768 4.544 Z " transform="matrix(1, 0, 0, 1, 27, 42)"/>
          <path id="Shape" fill="#642800" stroke="none" stroke-width="1" d="M 13.971 5.143 C 12.252 5.756 9.318 8.155 8.240 9.452 C 6.869 11.106 6.526 13.115 6.530 15.246 C 6.629 15.467 6.747 18.234 6.879 18.546 C 7.091 18.659 12.266 21.874 12.266 21.874 L 20.903 9.852 L 13.971 5.143 Z " transform="matrix(1, 0, 0, 1, 27, 42)"/>
          <path id="Shape" fill="#A0640A" stroke="none" stroke-width="1" d="M 11.588 0.900 C 11.934 0.509 12.396 0.238 12.907 0.127 C 18.365 0.598 23.865 4.110 25.010 9.461 C 26.027 14.227 25.787 18.748 22.184 22.190 C 16.114 28.002 7.138 25.245 2.584 21.313 C 2.014 19.851 1.882 19.102 2.023 18.230 C 2.930 17.131 4.265 16.475 5.687 16.429 C 6.395 16.672 7.115 16.876 7.844 17.042 C 11.329 17.985 15.327 17.556 16.184 13.063 C 17.041 8.570 10.448 5.086 11.588 0.900 Z " transform="matrix(1, 0, 0, 1, 27, 42)"/>
        </g>
        <g id="Left-Foot">
          <path id="Shape" fill="#00A08C" stroke="none" stroke-width="1" d="M 8.745 0.557 C 8.458 0.798 5.920 0.901 3.603 4.800 C 1.286 8.699 0.655 12.762 1.888 21.687 L 14.161 21.215 C 14.161 21.215 8.835 1.052 8.745 0.557 Z " transform="matrix(1, 0, 0, 1, 0, 48)"/>
          <path id="Shape" fill="#F01446" stroke="none" stroke-width="1" d="M 16.760 34.854 C 16.054 32.355 15.447 29.894 14.839 27.358 C 14.660 26.594 13.968 24.812 13.535 23.195 L 2.077 23.195 C 2.939 27.561 3.895 31.761 5.708 35.924 C 6.786 38.399 7.893 40.855 9.174 43.231 C 10.186 45.117 12.291 47.540 12.748 49.581 C 12.461 49.581 9.922 49.760 9.922 49.760 L 9.857 50.444 C 9.857 50.444 19.247 51.123 20.354 50.137 C 20.255 49.279 19.967 48.440 19.821 47.582 C 19.028 43.288 18.006 39.039 16.760 34.854 Z " transform="matrix(1, 0, 0, 1, 0, 48)"/>
          <path id="Shape" fill="#6E1E3C" stroke="none" stroke-width="1" d="M 1.286 26.571 L 16.054 26.193 L 14.674 20.065 L 0.019 20.065 L 1.286 26.571 " transform="matrix(1, 0, 0, 1, 0, 48)"/>
          <path id="Shape" fill="#6E1E3C" stroke="none" stroke-width="1" d="M 17.128 31.262 L 16.591 28.272 L 1.931 28.272 L 2.397 31.262 L 17.128 31.262 " transform="matrix(1, 0, 0, 1, 0, 48)"/>
          <path id="Shape" fill="#6E1E3C" stroke="none" stroke-width="1" d="M 18.220 35.279 L 17.683 32.289 L 3.023 32.289 L 3.494 35.279 L 18.220 35.279 " transform="matrix(1, 0, 0, 1, 0, 48)"/>
        </g>
        <g id="Right-Foot">
          <path id="Shape" fill="#00A08C" stroke="none" stroke-width="1" d="M 24.322 11.287 C 23.479 5.838 20.465 1.727 14.776 0.803 C 13.538 5.484 8.908 22.602 8.532 26.364 L 23.003 25.279 C 23.950 20.848 25.024 15.808 24.322 11.287 Z " transform="matrix(1, 0, 0, 1, 56, 47)"/>
          <path id="Shape" fill="#F01446" stroke="none" stroke-width="1" d="M 8.758 22.771 L 8.489 23.413 C 6.229 32.799 3.916 42.298 0.771 51.392 C 2.810 51.392 4.100 51.566 5.692 51.392 C 6.690 51.288 8.023 51.392 9.181 51.236 C 9.181 50.977 9.247 50.718 9.290 50.458 L 6.869 50.458 C 7.863 48.431 10.505 46.645 11.885 44.801 C 13.721 42.345 15.497 39.795 17.178 37.216 C 20.036 32.836 21.887 27.863 23.234 22.753 L 8.758 22.771 Z " transform="matrix(1, 0, 0, 1, 56, 47)"/>
          <path id="Shape" fill="#6E1E3C" stroke="none" stroke-width="1" d="M 23.550 27.571 L 6.874 27.193 L 8.428 21.065 L 24.976 21.065 L 23.550 27.571 " transform="matrix(1, 0, 0, 1, 56, 47)"/>
          <path id="Shape" fill="#6E1E3C" stroke="none" stroke-width="1" d="M 5.207 32.262 L 5.824 29.272 L 22.532 29.272 L 22.005 32.262 L 5.207 32.262 " transform="matrix(1, 0, 0, 1, 56, 47)"/>
          <path id="Shape" fill="#6E1E3C" stroke="none" stroke-width="1" d="M 3.964 36.279 L 4.576 33.289 L 21.289 33.289 L 20.757 36.279 L 3.964 36.279 " transform="matrix(1, 0, 0, 1, 56, 47)"/>
        </g>
      </g>
    </g>
  </g>
</svg>