<svg width="95px" height="112px" viewBox="0 0 95 112" version="1.1" xml:space="preserve" xmlns="http://www.w3.org/2000/svg" xmlns:xlink="http://www.w3.org/1999/xlink">
  <g>
    <title>Slice 1</title>
    <desc>Created with Sketch.</desc>
    <g id="Page-1" stroke="none" stroke-width="1" fill="none" fill-rule="evenodd">
      <g id="Right-Arm" transform="translate(70.000000, 85.000000)" fill="#BE0A3C">
        <path d="M3.54,10.378 C5.472,13.367 10.492,19.61 11.28,20.583 C13.516,23.344 17.952,25.929 20.88,26.302 C23.808,26.674 24.14,26.45 24.14,26.45 C24.249,26.461 24.358,26.423 24.435,26.345 C24.513,26.267 24.551,26.159 24.54,26.05 C24.54,25.609 20.096,25.053 17.384,21.579 C12.524,15.348 6.804,4.215 4.428,1.106 C4.428,1.106 1.316,-0.895 0.672,2.902 C0.028,6.7 3.54,10.378 3.54,10.378 Z" id="Shape"/>
        <path d="M19,25.493 C19,25.493 17.98,24.257 17.76,24.293 C17.76,24.293 15.136,25.841 15.064,26.206 C15.016,26.45 16.42,26.25 17.616,25.869 L17.672,25.869 L19,25.493 Z" id="Shape"/>
      </g>
      <g id="Left-Arm" transform="translate(4.000000, 76.000000)">
        <path d="M13.8,9.681 C12.668,12.047 10.872,13.283 9.244,13.335 C7.616,13.387 6.748,12.299 6.088,10.934 C4.748,8.133 4.888,0.325 4.488,0.401 C4.088,0.477 4.008,2.002 3.836,2.55 C2.672,2.274 3.3,-0.031 2.552,0.045 C2.2,0.081 2.632,2.494 1.724,2.574 C0.816,2.654 1,1.205 0.636,0.477 C-0.776,5.503 0.076,13.647 5.036,16.525 C9.748,19.262 15.612,16.713 17.688,9.645 C17.688,9.645 18.58,6.892 16.008,7.132 C13.436,7.372 13.8,9.681 13.8,9.681 Z" id="Shape" fill="#BE0A3C"/>
        <path d="M4.6,6.812 C4.6,6.812 6.072,6.456 6.548,4.563 C6.656,4.139 6.824,2.262 6.272,2.238 C5.72,2.214 6.024,3.286 5.648,3.863 C5.272,4.439 4.6,3.586 3.272,4.011 C1.944,4.435 1.768,8.213 4.6,6.812 Z" id="Shape" fill="#82001E"/>
      </g>
      <path d="M17.62,110.493 C17.62,110.493 31.58,110.009 30.94,106.311 C30.3,102.614 25.26,103.11 23.548,103.51 C16.06,105.247 2.94,108.16 1.652,107.88 C1.508,107.32 1.812,106.747 1.556,106.231 C1.284,106.091 1.036,105.963 0.756,106.295 C0.756,106.491 0.756,110.057 0.696,110.261 C0.964,110.609 17.62,110.493 17.62,110.493 Z" id="Shape" fill="#82001E"/>
      <g id="Carton" transform="translate(14.000000, 0.000000)">
        <path d="M30.544,12.995 C30.544,12.995 44.688,27.337 44.832,28.602 C43.348,28.646 20.376,32.724 20.376,32.724 L0.48,27.481 L30.544,12.995 Z" id="Shape" fill="#82001E"/>
        <path d="M45.228,0.557 L19.072,0.156 C19.072,0.489 18.82,5.759 19.224,6.247 C19.916,7.048 31.252,7.544 34.26,7.752 C35.66,7.852 45.46,6.327 45.46,6.327 C45.46,6.327 45.368,1.213 45.228,0.557 Z" id="Shape" fill="#BE0A3C"/>
        <path d="M0.48,27.485 L19.224,6.275 C19.224,6.275 31.916,9.877 34.224,12.398 C30.016,15.196 0.48,27.485 0.48,27.485 Z" id="Shape" fill="#FFC800"/>
        <path d="M63.368,28.426 C62.02,28.61 47.912,30.683 47.912,30.683 L39.488,28.254 C39.488,28.254 25,12.618 19.156,6.243 C21.156,5.539 45.46,6.327 45.46,6.327 C45.46,6.327 61.072,24.652 63.368,28.426 Z" id="Shape" fill="#F01446"/>
        <path d="M63.024,110.994 L40.352,111.494 L28.976,73.728 L39.488,28.254 L63.368,28.426 C63.368,28.426 63.68,81.079 63.488,90.532 C63.4,94.418 63.024,110.994 63.024,110.994 Z" id="Shape" fill="#BE0A3C"/>
        <path d="M39.488,28.254 C39.488,28.254 5.488,27.389 0.48,27.485 C0.224,32.16 2.568,86.87 3.08,96.535 C3.208,98.936 3.216,101.313 3.284,103.702 C3.32,104.975 3.62,110.505 3.62,110.505 C3.62,110.505 6.356,110.565 7.544,110.613 C9.808,110.701 12.068,110.905 14.344,110.966 C18.924,111.082 23.492,111.146 28.072,111.326 C30.192,111.41 40.36,111.502 40.36,111.502 L39.488,28.254 Z" id="Shape" fill="#F01446"/>
        <path d="M32.328,36.538 C32.328,36.538 10.828,35.918 7.656,35.986 C7.492,39.335 9.16,97.571 9.656,98.415 C10.152,99.26 11.384,98.956 12.136,98.988 C13.568,99.052 14.996,99.2 16.432,99.24 C19.328,99.324 22.22,99.368 25.116,99.5 C26.456,99.56 32.888,99.628 32.888,99.628 L32.328,36.538 Z" id="Shape" fill="#FFFFFF"/>
      </g>
      <path d="M54.352,111.494 L54.288,106.427 L35.04,108.961 L34.98,107.092 C34.98,107.092 34.704,106.419 34.332,107.128 C34.216,107.348 34.732,111.722 34.732,111.722 L54.352,111.494 Z" id="Shape" fill="#82001E"/>
    </g>
  </g>
</svg>