<?xml version="1.0" encoding="utf-8"?>
<!-- Generator: Adobe Illustrator 18.0.0, SVG Export Plug-In . SVG Version: 6.00 Build 0)  -->
<!DOCTYPE svg PUBLIC "-//W3C//DTD SVG 1.1//EN" "http://www.w3.org/Graphics/SVG/1.1/DTD/svg11.dtd">
<svg version="1.1" id="Layer_2" xmlns="http://www.w3.org/2000/svg" xmlns:xlink="http://www.w3.org/1999/xlink" x="0px" y="0px"
	 viewBox="0 0 49.5 51.6" enable-background="new 0 0 49.5 51.6" xml:space="preserve">
<g>
	<path fill="#53AD4E" d="M48.9,45.5c-0.7,0-1.3-0.1-2-0.2c-0.6-0.1-1-0.5-1.1-1.2c0-1-0.1-2-0.1-3c0-1.5-0.1-2.9-0.1-4.3
		c0-5.4-0.1-10.8-0.1-16.2c0-3.8,0.1-7.6,0.2-11.5c0-1.4,0.1-2.8,0.2-4.2c0-0.6,0.2-1.2,0.9-1.4c0.7-0.2,1.3-0.6,2-0.7
		c0.6-0.1,0.7-0.4,0.7-0.9c0-1.7,0-1.7-1.7-1.7c-0.4,0-0.7,0-1.1,0c-2.1,0.1-4.2,0.1-6.3,0.2c-1.6,0-3.2,0.1-4.8,0.2
		c-0.2,0-0.4,0.1-0.5,0.2c-1,1-1.9,2.1-2.9,3.1C31.5,4.5,31.7,5.3,32,6c0.1,0.3,1,0.3,1.5,0.5c0.1,0,0.2,0,0.3,0
		c0.8,0,1.7,0.9,1.8,1.7c0,0.8,0,1.7,0,2.5c-0.1,3-0.1,6-0.2,9.1c0,1,0,2.1,0,3.1H14.6c0-2.3,0.1-4.6,0-6.9
		c-0.2-3.6-0.7-7.3-0.1-10.9c0.2-1.5,0.4-1.7,1.8-2c0.2,0,0.4,0,0.5-0.1c1.6-0.2,1.6-0.2,1.8-1.7c0.1-1.1,0-1.2-1.1-1.2
		c-1.6,0.1-3.2,0.2-4.7,0.2c-2.4,0-4.9,0-7.3-0.2C4.1,0.2,3.1,0.7,2.4,1.8C1.9,2.6,1.4,3.4,0.8,4C0.2,4.6,0.1,5.3,0,6.1
		c-0.1,0.7,0.2,1,0.9,1c1,0,2,0.1,3,0.1c0.6,0,0.8,0.2,0.8,0.8c0,1-0.1,1.9-0.1,2.9c0.1,4.6,0.2,9.3,0.2,13.9c0,4.9,0,9.8,0,14.7
		c0,0.8-0.1,1.6-0.2,2.4c-0.1,1.2-0.1,2.4-0.2,3.6c0,0.1-0.2,0.3-0.3,0.4c-1.1,0.9-2.2,1.8-3.3,2.8c-0.2,0.2-0.3,0.5-0.3,0.7
		c-0.1,0.4,0,0.8,0,1.2c0,0.6,0.3,0.9,1,0.8c0.7-0.1,1.3-0.2,2-0.2c3.8,0.1,7.5,0.2,11.3,0.3c1,0,1.6-0.2,1.9-1.2
		c0.1-0.4,0.4-0.7,0.7-1c0.9-0.8,1-1.8,1.2-2.9c0.1-0.6-0.2-0.9-0.8-0.9c-0.7,0-1.3-0.1-2-0.2c-0.6-0.1-0.9-0.4-0.9-1
		c0-0.9,0-1.8,0-2.8c0-3.2-0.1-6.3-0.2-9.5c0-0.2,0-0.4,0-0.4h20.9c0,1.4,0,2.7,0,4c0,1.3-0.1,2.6-0.1,3.9c0,2,0.2,3.9,0.2,5.9
		c0,0.2-0.1,0.5-0.3,0.7c-0.6,0.5-1.3,1.1-1.9,1.6c-0.9,0.7-1.3,1.6-1,2.8c0.1,0.5,0.3,0.6,0.8,0.6c3.2,0,6.4,0,9.5,0
		c1.6,0,3.2,0.1,4.7,0.2c0.6,0,0.9-0.2,1.2-0.8c0.7-1.4,0.8-3,0.8-4.5C49.5,45.7,49.3,45.5,48.9,45.5z M39.2,30.6
		c0,0.9-0.1,1.8-0.1,2.7c0,2.7-0.1,5.3-0.1,8c0,1-0.1,1.9-0.1,2.9c0,0.8-0.5,1.2-1.2,1.3c-0.5,0.1-1,0.2-1.6,0.3
		c0.5-2.3,0.4-4.4,0-6.5c0-0.2,0-0.3,0-0.5c0-2.3,0-4.7,0-7c0-0.3,0.2-0.7,0.4-1c0.8-1,1.6-1.9,2.6-2.8
		C39.2,28.9,39.2,29.8,39.2,30.6z M32.7,5.7c-0.1,0-0.2-0.1-0.3-0.1c0.1-0.4,0.1-0.9,0.4-1.2c0.7-1,1.5-2,2.3-3
		c0.1,0,0.2,0.1,0.2,0.1C35.5,3.6,33.6,4.3,32.7,5.7z M33.9,5.9c-0.1,0-0.2-0.1-0.3-0.1C34.3,5,35,4.2,35.7,3.4
		c0.7-0.7,1.5-0.3,2.2-0.2c0.7,0.1,1.1,0.5,1.1,1.4c0,1.5,0.1,3,0.1,4.5c0,1.3-0.3,2.7-0.3,4c0,2,0,3.9,0.1,5.9
		c0,1.2,0.1,2.3,0.2,3.5c0,0.5-0.2,0.7-0.7,0.7c-0.8-0.1-1.7-0.1-2.5-0.2c0-0.1,0-0.2,0-0.3c0-2.7,0.1-5.5,0.2-8.2
		c0-1.9,0.1-3.8,0.3-5.7C36.5,7.3,35.2,6.2,33.9,5.9z M0.9,5.9c-0.1-0.5,2.3-4.2,3.2-5C4.6,2.3,2.8,5.1,0.9,5.9z M3.9,6.6
		c-0.7,0-1.3,0-2,0c0.9-1.2,1.6-2.2,2.4-3.2C4.3,3.3,4.4,3.1,4.5,3c0.5-0.3,2.4-0.1,3,0.4c0.7,0.5,1,1.6,0.8,2.4
		C8.2,6.3,8.3,6.8,8.3,7.2C8.1,11.5,8,15.8,7.9,20.2C7.9,23.8,7.9,27.4,7.9,31c0,2.8,0,5.7,0.1,8.5c0,0.6,0.2,1.3,0.2,1.9
		c0,0.8,0,1.7-0.1,2.5c-0.1,1-0.6,1.7-1.7,1.7c-0.4,0-0.8,0.1-1.3,0.2c0-0.2-0.1-0.3,0-0.4c0.6-1.8,0.5-3.6,0.5-5.5
		c0-4.9,0-9.9,0-14.8c0-4.7-0.1-9.5-0.2-14.2C5.2,9.9,5.3,9,5.3,8C5.4,7,5,6.6,3.9,6.6z M1.3,50.3c-0.3-0.6-0.1-0.9,0.4-1.2
		c0.9-0.7,1.8-1.5,2.6-2.2c0.2,0.7,0.1,0.9-0.6,1.4C2.8,48.9,2.1,49.6,1.3,50.3z M17,48.4c-0.4,0.7-0.8,1.5-1.3,2.2
		c-0.2,0.2-0.6,0.4-0.9,0.4c-2.2-0.1-4.4-0.2-6.5-0.3c-1.7,0-3.5,0-5.2-0.1c-0.2,0-0.5,0-0.7,0c0-0.1-0.1-0.1-0.1-0.2
		C3,49.7,3.7,49,4.5,48.3c0.2-0.1,0.5-0.1,0.8-0.1c2.6,0,5.3,0,7.9,0C14.4,48.2,15.7,48.3,17,48.4z M34.8,31c-2.6,0-5.2-0.1-7.7-0.1
		c-3.7,0-7.3,0.1-11,0.1c-0.5,0-0.9,0-1.4,0c-0.1-1.2-0.1-2.3-0.2-3.5h23.8c-0.7,1-1.4,2-2.2,3C35.8,30.8,35.3,31,34.8,31z M33,50.3
		c-0.1-1.7,1.5-2.1,2.1-3.3c0.3,0.9,0.3,1-0.4,1.6C34.2,49.1,33.7,49.7,33,50.3z M48.7,48.8c-0.8,2.2-0.8,2.1-3.1,2
		c-2.8-0.2-5.6-0.3-8.4-0.4c-1,0-2,0.1-3.2,0.2c0.8-0.9,1.5-1.6,2.2-2.3c0.1-0.1,0.3-0.1,0.5-0.1c3,0,6,0,9,0c1.1,0,2.1,0.1,3.2,0.2
		C48.8,48.6,48.8,48.7,48.7,48.8z"/>
	<path fill="#FFFFFF" d="M0.9,5.9c-0.1-0.5,2.3-4.2,3.2-5C4.6,2.3,2.8,5.1,0.9,5.9z"/>
	<path fill="#FFFFFF" d="M35.3,1.5c0.2,2.1-1.7,2.8-2.6,4.2c-0.1,0-0.2-0.1-0.3-0.1c0.1-0.4,0.1-0.9,0.4-1.2c0.7-1,1.5-2,2.3-3
		C35.1,1.4,35.2,1.4,35.3,1.5z"/>
	<path fill="#FFFFFF" d="M39.2,22.5c0,0.5-0.2,0.7-0.7,0.7c-0.8-0.1-1.7-0.1-2.5-0.2c0-0.1,0-0.2,0-0.3c0-2.7,0.1-5.5,0.2-8.2
		c0-1.9,0.1-3.8,0.3-5.7c0.1-1.4-1.2-2.5-2.5-2.8c-0.1,0-0.2-0.1-0.3-0.1C34.3,5,35,4.2,35.7,3.4c0.7-0.7,1.5-0.3,2.2-0.2
		c0.7,0.1,1.1,0.5,1.1,1.4c0,1.5,0.1,3,0.1,4.5c0,1.3-0.3,2.7-0.3,4c0,2,0,3.9,0.1,5.9C39,20.2,39.1,21.3,39.2,22.5z"/>
	<path fill="#FFFFFF" d="M3.6,48.3c-0.8,0.6-1.6,1.3-2.4,2c-0.3-0.6-0.1-0.9,0.4-1.2c0.9-0.7,1.8-1.5,2.6-2.2
		C4.5,47.6,4.4,47.7,3.6,48.3z"/>
	<path fill="#FFFFFF" d="M17,48.4c-0.4,0.7-0.8,1.5-1.3,2.2c-0.2,0.2-0.6,0.4-0.9,0.4c-2.2-0.1-4.4-0.2-6.5-0.3
		c-1.7,0-3.5,0-5.2-0.1c-0.2,0-0.5,0-0.7,0c0-0.1-0.1-0.1-0.1-0.2C3,49.7,3.7,49,4.5,48.3c0.2-0.1,0.5-0.1,0.8-0.1
		c2.6,0,5.3,0,7.9,0C14.4,48.2,15.7,48.3,17,48.4z"/>
	<path fill="#FFFFFF" d="M34.8,48.6c-0.5,0.5-1.1,1.1-1.7,1.7c-0.1-1.7,1.5-2.1,2.1-3.3C35.4,47.9,35.4,48,34.8,48.6z"/>
	<path fill="#FFFFFF" d="M48.9,48.4c0,0.2-0.1,0.3-0.1,0.4c-0.8,2.2-0.8,2.1-3.1,2c-2.8-0.2-5.6-0.3-8.4-0.4c-1,0-2,0.1-3.2,0.2
		c0.8-0.9,1.5-1.6,2.2-2.3c0.1-0.1,0.3-0.1,0.5-0.1c3,0,6,0,9,0C46.7,48.2,47.7,48.3,48.9,48.4z"/>
	<path fill="#FFFFFF" d="M39.2,30.6c0,0.9-0.1,1.8-0.1,2.7c0,2.7-0.1,5.3-0.1,8c0,1-0.1,1.9-0.1,2.9c0,0.8-0.5,1.2-1.2,1.3
		c-0.5,0.1-1,0.2-1.6,0.3c0.5-2.3,0.4-4.4,0-6.5c0-0.2,0-0.3,0-0.5c0-2.3,0-4.7,0-7c0-0.3,0.2-0.7,0.4-1c0.8-1,1.6-1.9,2.6-2.8
		C39.2,28.9,39.2,29.8,39.2,30.6z"/>
	<path fill="#FFFFFF" d="M38.3,27.5c-0.7,1-1.4,2-2.2,3c-0.3,0.3-0.8,0.5-1.3,0.5c-2.6,0-5.2-0.1-7.7-0.1c-3.7,0-7.3,0.1-11,0.1
		c-0.5,0-0.9,0-1.4,0c-0.1-1.2-0.1-2.3-0.2-3.5H38.3z"/>
	<path fill="#FFFFFF" d="M8.3,5.8C8.2,6.3,8.3,6.8,8.3,7.2C8.1,11.5,8,15.8,7.9,20.2C7.9,23.8,7.9,27.4,7.9,31c0,2.8,0,5.7,0.1,8.5
		c0,0.6,0.2,1.3,0.2,1.9c0,0.8,0,1.7-0.1,2.5c-0.1,1-0.6,1.7-1.7,1.7c-0.4,0-0.8,0.1-1.3,0.2c0-0.2-0.1-0.3,0-0.4
		c0.6-1.8,0.5-3.6,0.5-5.5c0-4.9,0-9.9,0-14.8c0-4.7-0.1-9.5-0.2-14.2C5.2,9.9,5.3,9,5.3,8c0-1-0.4-1.4-1.4-1.5c-0.7,0-1.3,0-2,0
		c0.9-1.2,1.6-2.2,2.4-3.2C4.3,3.3,4.4,3.1,4.5,3c0.5-0.3,2.4-0.1,3,0.4C8.2,3.9,8.5,5,8.3,5.8z"/>
</g>
</svg>
