<svg version="1.1" width="75" height="133" viewBox="-1 -1 75 133" xmlns="http://www.w3.org/2000/svg" xmlns:xlink="http://www.w3.org/1999/xlink">
  <!-- Exported by Scratch - http://scratch.mit.edu/ -->
  <g id="ID0.754707554820925" transform="matrix(1, 0, 0, 1, 0.25, 0)">
    <g id="Page-1">
      <g id="milk-b-[food,drink,alex-eben-meyer]">
        <g id="Left-Arm">
          <path id="Shape" fill="#BE0A3C" stroke="none" stroke-width="1" d="M 13.800 9.923 C 12.668 12.288 10.872 13.525 9.244 13.577 C 7.616 13.629 6.748 12.540 6.088 11.176 C 4.748 8.374 4.888 0.566 4.488 0.642 C 4.088 0.719 4.008 2.243 3.836 2.792 C 2.672 2.515 3.300 0.210 2.552 0.286 C 2.200 0.322 2.632 2.735 1.724 2.816 C 0.816 2.896 1 1.479 0.648 0.755 C -0.764 5.781 0.088 13.925 5.048 16.802 C 9.760 19.540 15.624 16.990 17.700 9.923 C 17.700 9.923 19.028 4.620 16.276 4.548 C 13.524 4.476 13.800 9.923 13.800 9.923 Z " transform="matrix(1, 0, 0, 1, 0, 101)"/>
          <path id="Shape" fill="#82001E" stroke="none" stroke-width="1" d="M 4.628 7.082 C 4.628 7.082 6.100 6.725 6.576 4.832 C 6.684 4.408 6.852 2.531 6.300 2.507 C 5.748 2.483 6.052 3.556 5.676 4.132 C 5.300 4.708 4.628 3.856 3.300 4.280 C 1.972 4.704 1.780 8.470 4.628 7.082 Z " transform="matrix(1, 0, 0, 1, 0, 101)"/>
        </g>
        <path id="Shape" fill="#82001E" stroke="none" stroke-width="1" d="M 55.852 108.110 C 55.852 108.110 55.688 103.968 52.728 104.508 C 49.768 105.048 50.352 112.256 50.352 112.256 L 51.444 131.961 L 49.580 131.889 C 49.580 131.889 48.892 132.117 49.580 132.537 C 49.788 132.665 54.188 132.453 54.188 132.453 L 55.852 108.110 Z "/>
        <path id="Shape" fill="#82001E" stroke="none" stroke-width="1" d="M 32.096 107.769 C 32.096 107.769 32.712 101.490 27.624 101.366 C 22.536 101.242 23.984 105.969 23.984 105.969 C 25.380 110.827 30.652 130.084 30.384 131.681 C 29.828 131.849 29.248 131.565 28.744 131.845 C 28.616 132.125 28.500 132.377 28.840 132.645 C 29.036 132.645 32.596 132.473 32.804 132.541 C 33.124 132.245 32.468 112.860 32.096 107.769 Z "/>
        <g id="Right-Arm">
          <path id="Shape" fill="#82001E" stroke="none" stroke-width="1" d="M 3.368 22.513 C 3.368 22.513 2.680 19.143 2.540 19.363 L 0.872 24.430 C 0.872 24.430 0.368 26.031 0.660 26.347 C 0.856 26.567 1.860 25.242 2.548 23.946 L 2.580 23.886 L 3.368 22.513 Z " transform="matrix(1, 0, 0, 1, 59, 101)"/>
          <path id="Shape" fill="#BE0A3C" stroke="none" stroke-width="1" d="M 1.748 6.541 C 1.568 9.783 1.920 17.082 1.980 18.223 C 2.148 21.460 1.980 24.678 2.136 27.912 C 3.140 28.140 2.692 25.510 3.104 25.194 C 4.092 24.466 3.676 27.691 4.152 27.796 C 4.628 27.900 4.460 25.394 5.112 25.114 C 5.768 25.550 5.788 27.663 6.184 27.611 C 6.580 27.559 6.984 12.644 6.836 6.541 C 6.836 6.541 6.932 0.835 4.180 0.626 C 1.428 0.418 1.748 6.541 1.748 6.541 Z " transform="matrix(1, 0, 0, 1, 59, 101)"/>
        </g>
        <g id="Carton">
          <path id="Shape" fill="#82001E" stroke="none" stroke-width="1" d="M 30.544 13.768 C 30.544 13.768 44.688 28.111 44.832 29.376 C 43.348 29.420 20.376 33.498 20.376 33.498 L 0.480 28.255 L 30.544 13.768 Z " transform="matrix(1, 0, 0, 1, 10, 0)"/>
          <path id="Shape" fill="#BE0A3C" stroke="none" stroke-width="1" d="M 45.228 1.330 L 19.072 0.930 C 19.072 1.262 18.820 6.533 19.224 7.021 C 19.916 7.821 31.252 8.318 34.260 8.526 C 35.660 8.626 45.460 7.101 45.460 7.101 C 45.460 7.101 45.368 1.987 45.228 1.330 Z " transform="matrix(1, 0, 0, 1, 10, 0)"/>
          <path id="Shape" fill="#FFC800" stroke="none" stroke-width="1" d="M 0.480 28.259 L 19.224 7.049 C 19.224 7.049 31.916 10.651 34.224 13.172 C 30.016 15.969 0.480 28.259 0.480 28.259 Z " transform="matrix(1, 0, 0, 1, 10, 0)"/>
          <path id="Shape" fill="#F01446" stroke="none" stroke-width="1" d="M 63.368 29.200 C 62.020 29.384 47.912 31.457 47.912 31.457 L 39.488 29.028 C 39.488 29.028 25 13.392 19.156 7.017 C 21.156 6.313 45.460 7.101 45.460 7.101 C 45.460 7.101 61.072 25.422 63.368 29.200 Z " transform="matrix(1, 0, 0, 1, 10, 0)"/>
          <path id="Shape" fill="#BE0A3C" stroke="none" stroke-width="1" d="M 63.024 111.767 L 40.352 112.268 L 28.976 74.501 L 39.488 29.028 L 63.368 29.200 C 63.368 29.200 63.680 81.853 63.488 91.306 C 63.400 95.191 63.024 111.767 63.024 111.767 Z " transform="matrix(1, 0, 0, 1, 10, 0)"/>
          <path id="Shape" fill="#F01446" stroke="none" stroke-width="1" d="M 39.488 29.028 C 39.488 29.028 5.488 28.163 0.480 28.259 C 0.224 32.934 2.568 87.644 3.080 97.308 C 3.208 99.710 3.216 102.087 3.284 104.476 C 3.320 105.748 3.620 111.279 3.620 111.279 C 3.620 111.279 6.356 111.339 7.544 111.387 C 9.808 111.475 12.068 111.679 14.344 111.739 C 18.924 111.855 23.492 111.919 28.072 112.100 C 30.192 112.184 40.360 112.276 40.360 112.276 L 39.488 29.028 Z " transform="matrix(1, 0, 0, 1, 10, 0)"/>
          <path id="Shape" fill="#FFFFFF" stroke="none" stroke-width="1" d="M 32.328 37.312 C 32.328 37.312 10.828 36.691 7.656 36.759 C 7.492 40.109 9.160 98.345 9.656 99.189 C 10.152 100.034 11.384 99.730 12.136 99.762 C 13.568 99.826 14.996 99.974 16.432 100.014 C 19.328 100.098 22.220 100.142 25.116 100.274 C 26.456 100.334 32.888 100.402 32.888 100.402 L 32.328 37.312 Z " transform="matrix(1, 0, 0, 1, 10, 0)"/>
        </g>
      </g>
    </g>
  </g>
</svg>