<svg width="169px" height="169px" viewBox="0 0 169 169" version="1.1" xml:space="preserve" xmlns="http://www.w3.org/2000/svg" xmlns:xlink="http://www.w3.org/1999/xlink">
  <defs/>
  <g>
    <title>rabbit-e</title>
    <desc>Created with Sketch.</desc>
    <g id="forest" stroke="none" stroke-width="1" fill="none" fill-rule="evenodd">
      <g id="rabbit-e" fill-rule="nonzero">
        <g id="Rabbit5" transform="translate(17.000000, 3.000000)">
          <g id="tail" transform="translate(0.000000, 86.453039)">
            <ellipse id="Oval" fill="#B5C5C1" transform="translate(15.262539, 14.769898) rotate(-59.529517) translate(-15.262539, -14.769898) " cx="15.262539" cy="14.7698983" rx="10.660807" ry="10.6266363"/>
            <path d="M13.0096552,19.7220994 C13.5517241,19.7220994 14.0937931,19.7220994 14.6358621,19.7220994 C15.4489655,19.7220994 15.4489655,18.461326 14.6358621,18.461326 C14.0937931,18.461326 13.5517241,18.461326 13.0096552,18.461326 C12.1965517,18.461326 12.1965517,19.7220994 13.0096552,19.7220994 Z" id="Shape" fill="#CBD7D4"/>
            <path d="M12.8289655,23.1441989 C13.3710345,22.9640884 13.9131034,22.8740331 14.4551724,22.6939227 C15.177931,22.4237569 14.9068966,21.2530387 14.0937931,21.5232044 C13.5517241,21.7033149 13.0096552,21.8834254 12.4675862,21.9734807 C11.6544828,22.1535912 12.0158621,23.3243094 12.8289655,23.1441989 Z" id="Shape" fill="#CBD7D4"/>
            <path d="M12.0158621,14.4088398 C12.7386207,14.9491713 13.7324138,15.4895028 14.6358621,15.7596685 C15.4489655,15.939779 15.72,14.7690608 14.9972414,14.5889503 C14.6358621,14.498895 14.2744828,14.3187845 13.9131034,14.138674 C13.7324138,14.0486188 13.5517241,13.9585635 13.2806897,13.778453 C13.1903448,13.6883978 13.1,13.6883978 13.0096552,13.5983425 C13.0096552,13.5983425 12.8289655,13.418232 12.8289655,13.5082873 C12.557931,13.3281768 12.1965517,13.2381215 11.9255172,13.5082873 C11.8351724,13.6883978 11.7448276,14.138674 12.0158621,14.4088398 Z" id="Shape" fill="#CBD7D4"/>
            <path d="M14.8165517,11.7071823 C15.3586207,12.1574586 15.9910345,12.6977901 16.6234483,13.1480663 C16.8944828,13.3281768 17.3462069,13.1480663 17.4365517,12.9679558 C17.6172414,12.6077348 17.4365517,12.3375691 17.2558621,12.1574586 C16.7137931,11.7972376 16.262069,11.3469613 15.72,10.8966851 C15.4489655,10.7165746 15.0875862,10.6265193 14.8165517,10.8966851 C14.6358621,11.0767956 14.5455172,11.5270718 14.8165517,11.7071823 Z" id="Shape" fill="#CBD7D4"/>
            <path d="M18.1593103,9.00552486 C18.34,9.72596685 18.7917241,10.3563536 19.3337931,10.8966851 C19.8758621,11.4370166 20.7793103,10.5364641 20.2372414,9.9961326 C19.8758621,9.6359116 19.5144828,9.18563536 19.4241379,8.64530387 C19.1531034,7.92486188 17.9786207,8.19502762 18.1593103,9.00552486 Z" id="Shape" fill="#CBD7D4"/>
            <path d="M21.7731034,10.8066298 C21.9537931,11.3469613 22.2248276,11.8872928 22.4958621,12.4276243 C22.8572414,13.1480663 23.9413793,12.5176796 23.58,11.7972376 C23.3089655,11.3469613 23.1282759,10.8966851 22.9475862,10.4464088 C22.7668966,9.72596685 21.5924138,10.0861878 21.7731034,10.8066298 Z" id="Shape" fill="#CBD7D4"/>
            <path d="M7.04689655,15.939779 C7.86,16.3 8.67310345,16.4801105 9.4862069,16.8403315 C9.75724138,16.9303867 10.2089655,16.660221 10.2089655,16.3900552 C10.2993103,16.0298343 10.1186207,15.7596685 9.75724138,15.6696133 C9.03448276,15.3994475 8.31172414,15.219337 7.58896552,14.9491713 C6.95655172,14.5889503 6.32413793,15.579558 7.04689655,15.939779 Z" id="Shape" fill="#CBD7D4"/>
            <path d="M7.49862069,11.7071823 C8.04068966,12.0674033 8.67310345,12.5176796 9.21517241,12.9679558 C9.4862069,13.1480663 9.84758621,13.2381215 10.1186207,12.9679558 C10.2993103,12.7878453 10.3896552,12.3375691 10.1186207,12.0674033 C9.4862069,11.6171271 8.8537931,11.0767956 8.13103448,10.6265193 C7.86,10.4464088 7.40827586,10.5364641 7.31793103,10.8066298 C7.13724138,11.1668508 7.22758621,11.4370166 7.49862069,11.7071823 Z" id="Shape" fill="#CBD7D4"/>
            <path d="M10.3896552,8.64530387 C11.2027586,9.4558011 11.9255172,10.2662983 12.8289655,10.8966851 C13.4613793,11.3469613 14.0937931,10.2662983 13.4613793,9.8160221 C12.6482759,9.27569061 12.0158621,8.46519337 11.2931034,7.74475138 C10.6606897,7.20441989 9.84758621,8.01491713 10.3896552,8.64530387 Z" id="Shape" fill="#CBD7D4"/>
            <path d="M14.0034483,6.3038674 C14.1841379,6.4839779 14.3648276,6.6640884 14.4551724,6.8441989 C14.9972414,7.38453039 15.9006897,6.57403315 15.3586207,5.94364641 C15.177931,5.76353591 14.9972414,5.58342541 14.9068966,5.40331492 C14.3648276,4.86298343 13.4613793,5.76353591 14.0034483,6.3038674 Z" id="Shape" fill="#CBD7D4"/>
            <path d="M7.31793103,21.1629834 C7.95034483,21.1629834 8.67310345,21.1629834 9.30551724,21.1629834 C10.1186207,21.1629834 10.1186207,19.9022099 9.30551724,19.9022099 C8.67310345,19.9022099 7.95034483,19.9022099 7.31793103,19.9022099 C6.50482759,19.9022099 6.50482759,21.1629834 7.31793103,21.1629834 Z" id="Shape" fill="#CBD7D4"/>
            <path d="M17.0751724,19.3618785 C17.7075862,19.3618785 18.34,19.4519337 18.882069,19.541989 C19.2434483,19.6320442 19.5144828,19.4519337 19.6048276,19.0917127 C19.6951724,18.821547 19.5144828,18.3712707 19.1531034,18.3712707 C18.4303448,18.2812155 17.7075862,18.1911602 16.9848276,18.101105 C16.262069,18.101105 16.262069,19.2718232 17.0751724,19.3618785 Z" id="Shape" fill="#CBD7D4"/>
            <path d="M17.4365517,22.7839779 C17.797931,22.7839779 18.0689655,22.6939227 18.4303448,22.6038674 C18.7013793,22.5138122 18.9724138,22.1535912 18.882069,21.8834254 C18.7917241,21.6132597 18.4303448,21.3430939 18.1593103,21.4331492 C17.9786207,21.5232044 17.7075862,21.6132597 17.5268966,21.6132597 C16.6234483,21.6132597 16.6234483,22.8740331 17.4365517,22.7839779 Z" id="Shape" fill="#CBD7D4"/>
            <path d="M17.4365517,15.3994475 C17.8882759,16.0298343 18.4303448,16.660221 19.0627586,17.2005525 C19.6048276,17.740884 20.5082759,16.8403315 19.9662069,16.3 C19.4241379,15.8497238 18.9724138,15.3093923 18.6110345,14.7690608 C18.4303448,14.498895 18.0689655,14.4088398 17.797931,14.5889503 C17.3462069,14.7690608 17.1655172,15.1292818 17.4365517,15.3994475 Z" id="Shape" fill="#CBD7D4"/>
            <path d="M20.2372414,14.0486188 C20.417931,14.3187845 20.5986207,14.5889503 20.7793103,14.859116 C21.2310345,15.579558 22.2248276,14.9491713 21.8634483,14.2287293 C21.6827586,13.9585635 21.502069,13.6883978 21.3213793,13.418232 C20.8696552,12.7878453 19.7855172,13.418232 20.2372414,14.0486188 Z" id="Shape" fill="#CBD7D4"/>
          </g>
          <g id="paw_front2" transform="translate(87.634483, 89.154696)" fill="#B5C5C1">
            <path d="M1.08413793,28.0071823 C0.36137931,24.2248619 0.632413793,20.4425414 1.17448276,16.5701657 C2.34896552,8.10497238 21.7731034,-5.04309392 24.0317241,2.70165746 C26.3806897,10.8966851 25.4772414,24.9453039 22.6765517,33.4104972 C21.3213793,37.5530387 25.4772414,48.6298343 25.4772414,48.6298343 L32.1627586,50.701105 C33.6082759,51.8718232 35.0537931,53.1325967 35.3248276,54.9337017 C35.5958621,56.3745856 32.8855172,57.3651934 29.2717241,55.1138122 C31.6206897,57.9055249 28.277931,57.9055249 26.1096552,57.6353591 C20.8696552,57.0950276 15.6296552,50.9712707 14.7262069,49.7104972 C12.0158621,46.1983425 2.71034483,36.1121547 1.08413793,28.0071823 Z" id="Shape"/>
          </g>
          <g id="paw_back2" transform="translate(34.331034, 96.359116)" fill="#B5C5C1">
            <path d="M14.3648276,45.2977901 C9.66689655,40.5248619 16.5331034,39.7143646 16.262069,35.121547 C15.72,26.5662983 -0.542068966,23.7745856 0.813103448,12.8779006 C2.07793103,2.70165746 19.5144828,0.360220994 26.5613793,0.810497238 C36.0475862,1.44088398 44.9917241,6.03370166 52.4903448,12.5176796 C58.0013793,17.2906077 59.0855172,24.4950276 53.6648276,29.358011 C48.6055172,33.9508287 43.8172414,35.9320442 38.5772414,39.9845304 C42.3717241,42.0558011 49.0572414,39.2640884 53.4841379,39.3541436 C54.9296552,39.3541436 57.3689655,38.6337017 59.4468966,39.0839779 C61.7958621,39.5342541 63.6027586,41.3353591 64.8675862,42.5961326 C68.2103448,45.7480663 61.7055172,45.9281768 59.4468966,46.1983425 C72.817931,50.340884 40.7455172,50.340884 36.68,49.3502762 C36.68,49.4403315 16.262069,47.2790055 14.3648276,45.2977901 Z" id="Shape"/>
          </g>
          <path d="M91.2482759,130.670166 C86.46,137.424309 68.4813793,147.330387 60.7117241,148.681215 C48.0634483,150.932597 20.6889655,143.908287 18.7013793,120.493923 C16.6234483,96.359116 36.5896552,78.258011 59.8082759,78.0779006 C83.0268966,77.8977901 84.4724138,80.419337 87.002069,72.7646409 C87.7248276,70.4232044 92.1517241,60.7872928 92.9648276,58.5359116 C94.32,54.7535912 106.155172,60.7872928 110.04,60.6972376 C119.164828,60.5171271 115.09931,49.260221 123.32069,70.3331492 C130.728966,89.2447514 126.392414,108.156354 110.853103,122.204972 L91.2482759,130.670166 Z" id="Shape" fill="#CBD7D4"/>
          <g id="pwa_front1" transform="translate(78.600000, 97.259669)">
            <path d="M0.993793103,29.718232 C0.451724138,25.9359116 1.08413793,22.0635359 1.80689655,18.2812155 C3.52344828,9.90607735 34.3310345,-4.95303867 35.9572414,2.9718232 C37.7641379,11.3469613 26.0193103,32.6 22.4958621,36.6524862 C19.6951724,39.9845304 24.8448276,49.620442 24.8448276,49.620442 L32.0724138,53.4928177 C33.4275862,54.7535912 33.9696552,57.0950276 33.2468966,58.4458564 C32.6144828,59.7966851 30.7172414,60.1569061 27.2841379,57.7254144 C29.4524138,60.6972376 26.1096552,60.3370166 23.9413793,60.0668508 C18.4303448,59.4364641 13.8227586,53.6729282 13.0096552,52.4121547 C10.8413793,48.6298343 2.07793103,37.9132597 0.993793103,29.718232 Z" id="Shape" fill="#CBD7D4"/>
            <path d="M28.1875862,59.2563536 C27.7358621,57.2751381 26.2903448,55.4740331 24.3931034,54.6635359 C23.6703448,54.3033149 23.037931,55.3839779 23.7606897,55.7441989 C25.3868966,56.4646409 26.6517241,57.9055249 27.0131034,59.6165746 C27.1937931,60.3370166 28.3682759,59.9767956 28.1875862,59.2563536 Z" id="Shape" fill="#B5C5C1"/>
          </g>
          <g id="head_x2B_ears" transform="translate(28.006897, 0.000000)">
            <g id="ears">
              <path d="M81.6717241,65.4701657 C71.7337931,61.4176796 60.8924138,37.4629834 57.5496552,26.9265193 C53.9358621,15.579558 54.8393103,0.360220994 54.8393103,0.360220994 C60.26,-1.98121547 72.4565517,19.2718232 76.1606897,27.9171271 C81.5813793,40.5248619 88.8993103,54.7535912 90.7965517,68.6220994 L81.6717241,65.4701657 Z" id="Shape" fill="#B5C5C1"/>
              <path d="M74.8958621,58.1756906 C62.2475862,64.839779 42.5524138,59.4364641 29.0910345,54.3933702 C25.2965517,52.9524862 20.8696552,50.340884 16.5331034,47.3690608 C10.5703448,43.1364641 4.78827586,38.0933702 1.26482759,34.040884 C-4.15586207,27.9171271 28.5489655,31.3392265 38.0351724,34.5812155 C53.9358621,40.0745856 72.5468966,47.3690608 83.7496552,59.0762431 L74.8958621,58.1756906 Z" id="Shape" fill="#C9D8D5"/>
            </g>
            <g id="head" transform="translate(56.013793, 41.425414)">
              <path d="M37.5834483,46.1983425 C30.8075862,50.5209945 21.5924138,45.8381215 13.7324138,43.3165746 C-2.07793103,38.2734807 -6.32413793,9.09558011 14.9068966,2.16132597 C34.3310345,-4.23259669 46.4372414,21.7033149 44.6303448,34.9414365 C42.8234483,48.179558 37.5834483,46.1983425 37.5834483,46.1983425 Z" id="Shape" fill="#B5C5C1"/>
              <path d="M12.0158621,45.2977901 C0.36137931,35.3016575 -3.43310345,10.2662983 16.262069,2.07127072 C35.8668966,-6.03370166 48.2441379,20.0823204 46.0758621,35.0314917 C46.0758621,35.0314917 44.9013793,45.9281768 35.1441379,49.980663 C24.3931034,54.3933702 21.0503448,53.0425414 12.0158621,45.2977901 Z" id="Shape" fill="#C9D8D5"/>
              <g id="face" transform="translate(7.227586, 10.806630)">
                <g id="Group" transform="translate(2.710345, 7.204420)">
                  <ellipse id="Oval" fill="#3C4F45" transform="translate(2.987216, 8.284074) rotate(-12.098759) translate(-2.987216, -8.284074) " cx="2.98721559" cy="8.28407425" rx="1.98761105" ry="2.52157848"/>
                  <g transform="translate(4.517241, 9.906077)" id="Shape">
                    <g transform="translate(14.455172, 5.403315)" fill="#3C4F45">
                      <path d="M0.993793103,2.61160221 C1.80689655,2.9718232 2.98137931,3.42209945 3.97517241,3.06187845 C4.87862069,2.70165746 4.96896552,1.98121547 5.24,1.17071823 C5.51103448,0.360220994 4.2462069,7.10542736e-15 3.97517241,0.810497238 C3.88482759,1.17071823 3.88482759,1.62099448 3.52344828,1.80110497 C3.07172414,1.98121547 2.16827586,1.62099448 1.71655172,1.44088398 C0.903448276,1.08066298 0.180689655,2.25138122 0.993793103,2.61160221 Z"/>
                      <path d="M2.80068966,2.61160221 C3.16206897,4.05248619 3.34275862,5.58342541 3.25241379,7.11436464 C3.16206897,8.01491713 4.51724138,7.92486188 4.60758621,7.11436464 C4.78827586,5.49337017 4.51724138,3.78232044 4.15586207,2.25138122 C3.88482759,1.44088398 2.52965517,1.80110497 2.80068966,2.61160221 Z"/>
                      <path d="M0.36137931,7.02430939 C1.80689655,8.55524862 5.51103448,8.10497238 6.77586207,6.57403315 C7.31793103,5.94364641 6.32413793,4.95303867 5.87241379,5.67348066 C5.05931034,6.6640884 2.34896552,7.20441989 1.35517241,6.12375691 C0.722758621,5.40331492 -0.180689655,6.39392265 0.36137931,7.02430939 Z"/>
                    </g>
                    <path d="M6.14344828,5.76353591 C4.33655172,5.94364641 2.62,6.57403315 1.08413793,7.47458564 C0.36137931,7.83480663 0.993793103,8.91546961 1.71655172,8.55524862 C3.07172414,7.74475138 4.60758621,7.20441989 6.14344828,7.02430939 C6.95655172,6.8441989 6.95655172,5.67348066 6.14344828,5.76353591 Z" fill="#B5C5C1"/>
                    <path d="M4.15586207,9.72596685 C2.98137931,10.2662983 1.89724138,10.8066298 0.813103448,11.6171271 C0.180689655,12.0674033 0.813103448,13.1480663 1.44551724,12.6977901 C2.43931034,11.9773481 3.6137931,11.3469613 4.78827586,10.8066298 C5.42068966,10.4464088 4.78827586,9.36574586 4.15586207,9.72596685 Z" fill="#B5C5C1"/>
                    <path d="M26.4710345,2.9718232 C27.5551724,2.52154696 28.7296552,2.07127072 29.8137931,1.71104972 C30.5365517,1.44088398 30.2655172,0.270165746 29.4524138,0.540331492 C28.277931,0.990607735 27.0131034,1.44088398 25.8386207,1.98121547 C25.1158621,2.16132597 25.7482759,3.24198895 26.4710345,2.9718232 Z" fill="#B5C5C1"/>
                    <path d="M27.2841379,5.22320442 C28.0068966,5.22320442 28.82,5.13314917 29.5427586,5.13314917 C30.3558621,5.13314917 30.3558621,3.87237569 29.5427586,3.87237569 C28.82,3.87237569 28.0068966,3.96243094 27.2841379,3.96243094 C26.4710345,4.05248619 26.4710345,5.22320442 27.2841379,5.22320442 Z" fill="#B5C5C1"/>
                    <path d="M7.86,10.2662983 C6.8662069,11.3469613 5.96275862,12.3375691 5.05931034,13.418232 C4.51724138,14.0486188 5.42068966,14.859116 5.96275862,14.3187845 C6.8662069,13.2381215 7.86,12.1574586 8.76344828,11.1668508 C9.30551724,10.5364641 8.40206897,9.72596685 7.86,10.2662983 Z" fill="#B5C5C1"/>
                    <path d="M26.9227586,7.38453039 C27.8262069,7.56464088 28.7296552,8.01491713 29.7234483,7.92486188 C30.5365517,7.83480663 30.5365517,6.57403315 29.7234483,6.6640884 C28.82,6.75414365 28.0972414,6.39392265 27.2841379,6.21381215 C26.4710345,6.03370166 26.2,7.20441989 26.9227586,7.38453039 Z" fill="#B5C5C1"/>
                  </g>
                  <path d="M25.9289655,3.5121547 C27.8262069,3.78232044 29.7234483,3.3320442 30.5365517,1.44088398 C30.897931,0.63038674 29.7234483,1.63202785e-14 29.362069,0.810497238 C28.82,2.07127072 27.5551724,2.43149171 26.2903448,2.25138122 C25.3868966,2.16132597 25.0255172,3.42209945 25.9289655,3.5121547 Z" id="Shape" fill="#3C4F45"/>
                </g>
                <path d="M1.89724138,8.10497238 C1.80689655,7.65469613 2.16827586,7.11436464 2.43931034,6.75414365 C2.89103448,6.21381215 3.43310345,5.94364641 4.06551724,5.94364641 C4.87862069,5.94364641 4.87862069,4.77292818 4.06551724,4.68287293 C2.25862069,4.59281768 0.451724138,6.57403315 0.722758621,8.37513812 C0.903448276,9.18563536 2.07793103,8.91546961 1.89724138,8.10497238 Z" id="Shape" fill="#B5C5C1"/>
                <path d="M26.5613793,2.16132597 C27.6455172,1.53093923 28.3682759,1.35082873 29.6331034,1.71104972 C30.3558621,1.98121547 30.7172414,0.810497238 29.9944828,0.540331492 C28.4586207,0.0900552486 27.2841379,0.360220994 26.0193103,1.08066298 C25.2965517,1.53093923 25.9289655,2.61160221 26.5613793,2.16132597 Z" id="Shape" fill="#B5C5C1"/>
              </g>
            </g>
          </g>
          <g id="paw_back1" transform="translate(21.682759, 107.165746)">
            <path d="M11.2027586,47.2790055 C6.8662069,42.1458564 13.8227586,41.8756906 13.9131034,37.2828729 C14.0937931,28.7276243 -1.44551724,20.2624309 0.722758621,9.4558011 C2.80068966,-0.63038674 19.4241379,0.270165746 26.2903448,1.35082873 C35.6862069,2.70165746 47.16,12.7878453 54.1165517,19.9022099 C59.1758621,25.1254144 59.717931,32.3298343 53.9358621,36.7425414 C48.5151724,40.8850829 41.2875862,40.3447514 35.6862069,43.9469613 C39.3,46.2883978 46.1662069,44.0370166 50.5931034,44.5773481 C52.0386207,44.7574586 54.5682759,44.2171271 56.5558621,44.7574586 C58.8144828,45.3878453 60.4406897,47.3690608 61.7055172,48.7198895 C64.7772414,52.141989 58.2724138,51.8718232 56.0137931,51.8718232 C69.0234483,57.0049724 37.0413793,54.4834254 33.0662069,53.2226519 C33.1565517,53.2226519 13.0096552,49.3502762 11.2027586,47.2790055 Z" id="Shape" fill="#CBD7D4"/>
            <g id="Group" transform="translate(13.551724, 0.000000)" fill="#B5C5C1">
              <path d="M12.8289655,1.35082873 C21.4117241,2.61160221 31.8917241,11.2569061 38.9386207,18.1911602 C32.2531034,6.75414365 18.7917241,-0.360220994 8.94413793,0.180110497 C5.33034483,0.360220994 2.43931034,0.63038674 0.0903448276,1.08066298 C4.87862069,0.450276243 9.75724138,0.900552486 12.8289655,1.35082873 Z" id="Shape"/>
              <path d="M40.3841379,51.6016575 C42.1910345,51.9618785 43.5462069,52.5922652 44.6303448,54.0331492 C45.082069,54.6635359 46.1662069,54.0331492 45.7144828,53.4027624 C45.082069,52.5922652 44.4496552,51.781768 43.5462069,51.3314917 C42.6427586,50.8812155 41.6489655,50.6110497 40.7455172,50.4309392 C39.9324138,50.2508287 39.6613793,51.5116022 40.3841379,51.6016575 Z" id="Shape"/>
            </g>
          </g>
        </g>
      </g>
    </g>
  </g>
</svg>