<svg version="1.1" width="46" height="80" xmlns="http://www.w3.org/2000/svg" xmlns:xlink="http://www.w3.org/1999/xlink">
  <!-- Exported by Scratch - http://scratch.mit.edu/ -->
  <g id="ID0.9530039201490581">
    <path id="ID0.5364048141054809" fill="#FF9400" d="M 326 361 C 326.723 364.056 324.978 364.644 325 367 C 314.943 370.356 304.928 365.698 298 369 C 297.864 377.016 298.851 379.949 298 387 C 308.088 385.899 311.510 383.678 323 385 C 323.319 387.348 324.580 388.753 324 392 C 317.201 393.429 306.909 395.473 301 392 C 299.751 402.666 301.068 413.079 301 426 C 298.333 426 295.667 426 293 426 C 294.798 403.325 288.006 380.542 292 362 C 302.796 360.035 314.765 360.308 326 361 Z " transform="matrix(1, 0, 0, 1, -283, -356)"/>
    <path id="ID0.6162103633396327" d="M 326 356 C 327 356 328 356 329 356 C 329 358.667 329 361.333 329 364 C 326.764 364.431 328.595 368.928 328 371 C 321.560 368.893 324.436 376.103 321 377 C 313.436 374.602 307.704 377.192 301 377 C 301 379 301 381 301 383 C 308.033 381.720 318.208 381.066 328 382 C 327.112 390.189 325.035 394.406 322 402 C 316.023 399.750 311.001 402.480 304 402 C 302.481 414.844 307.051 426.079 301 436 C 295.667 436 290.333 436 285 436 C 284.641 423.692 286.171 409.496 283 400 C 283 388 283 376 283 364 C 290.979 365.938 287.456 359.602 289 357 C 296.875 358.329 316.553 359.179 326 356 Z M 292 362 C 288.006 380.542 294.798 403.325 293 426 C 295.667 426 298.333 426 301 426 C 301.068 413.079 299.751 402.666 301 392 C 306.909 395.473 317.201 393.429 324 392 C 324.580 388.753 323.319 387.348 323 385 C 311.510 383.678 308.088 385.899 298 387 C 298.851 379.949 297.864 377.016 298 369 C 304.928 365.698 314.943 370.356 325 367 C 324.978 364.644 326.723 364.056 326 361 C 314.765 360.308 302.796 360.035 292 362 Z " transform="matrix(1, 0, 0, 1, -283, -356)"/>
  </g>
</svg>