<?xml version="1.0" encoding="utf-8"?>
<!-- Generator: Adobe Illustrator 18.0.0, SVG Export Plug-In . SVG Version: 6.00 Build 0)  -->
<!DOCTYPE svg PUBLIC "-//W3C//DTD SVG 1.1//EN" "http://www.w3.org/Graphics/SVG/1.1/DTD/svg11.dtd">
<svg version="1.1" id="Layer_2" xmlns="http://www.w3.org/2000/svg" xmlns:xlink="http://www.w3.org/1999/xlink" x="0px" y="0px"
	 viewBox="0 0 42.8 48.2" enable-background="new 0 0 42.8 48.2" xml:space="preserve">
<g>
	<path fill="#41A2F2" d="M42.8,26.3c-0.1,1-0.5,1.3-1.4,1.2c-1.6-0.1-2.5,1.4-2.6,2.9c-0.1,1.1,0.1,2.2,0.1,3.3
		c0.1,2.3,0.2,4.7,0.1,7c0,0.7-0.7,1.4-1.2,1.9c-4.3,4.5-9.9,5.4-15.8,5.4c-4,0-7.4-1.5-10.6-3.7c-0.7-0.5-1.4-0.8-2.1-1.3
		c-3-2.5-5.5-5.4-7-9C0.7,30.3,0.1,26.3,0,22.3c-0.1-2.7,0.5-5.2,1.7-7.6c0.5-1,1-2,1.5-3c1-2,2.4-3.7,4.2-5
		c1.4-1.1,2.7-2.2,4.1-3.2c2.3-1.6,5-2.3,7.7-2.8C20.7,0.3,22.3,0,23.8,0c1.8,0.1,3.7,0.4,5.5,0.8c1.3,0.3,2.6,0.8,4,1.3
		c-0.1-0.4-0.1-0.8-0.2-1.2c-0.1-0.5,0-0.7,0.5-0.8c0.9-0.1,1.9-0.1,2.8,0c0.2,0,0.5,0.3,0.5,0.5c0.1,3.1,0.2,6.3,0.2,9.4
		c0,0.9-0.2,1-1.1,1c-0.5,0-1-0.1-1.5-0.1c-0.6,0-0.8-0.3-0.8-0.7c-0.2-2.1-1.3-3.8-3.1-4.9c-1.1-0.7-2.4-1-3.7-1.3
		c-2.9-0.6-5.8-0.3-8.6,0.9c-2.6,1.1-4.6,3-6.3,5.3c-1,1.3-2.1,2.7-2.7,4.3c-0.8,2.1-1.3,4.4-1.6,6.7c-0.3,3.2-0.3,6.4,0.7,9.5
		c0.8,2.3,1.5,4.7,2.8,6.8c1.9,3,4.4,5.8,8.2,6.5c3.2,0.5,6.4,0.5,9.4-0.7c2-0.7,2.8-2,2.8-4.1c0-3,0.1-6,0.2-8.9
		c0-1.2-0.5-1.8-1.7-2C29.7,28,29,28,28.3,28c-0.2,0-0.4-0.2-0.4-0.3c0-0.6-0.2-1.7-0.1-2.3c0,0,0,0,0,0c0,0,0-0.1,0-0.1
		c0.6-0.1,1.2-0.3,1.8-0.3c3.9-0.1,7.8-0.3,11.8-0.3C42.8,24.6,42.9,24.9,42.8,26.3z"/>
</g>
</svg>
