<svg version="1.1" width="117" height="12" viewBox="-1 -1 117 12" xmlns="http://www.w3.org/2000/svg" xmlns:xlink="http://www.w3.org/1999/xlink">
  <!-- Exported by Scratch - http://scratch.mit.edu/ -->
  <g id="ID0.5555598153732717" transform="matrix(1.7103393077850342, 0, 0, 1.7103393077850342, -52.8, -301.1)">
    <path id="ID0.9825037522241473" fill="#FFFFFF" stroke="#E3DEEE" d="M 598.500 734.900 C 608.600 734.900 826.400 734.900 846.900 734.900 C 867.400 734.900 905.300 732.400 904 724.800 C 902.900 718.600 868.500 721.500 867.700 721.200 C 865.700 720.500 862.600 713.900 836.500 712.600 C 812.100 711.400 780.300 718.800 774 720 C 761.500 717.300 736.500 706.800 713.300 705.700 C 687.600 704.500 663.900 710 658.900 715.500 C 656.200 718.500 658.900 721.100 658.700 722.600 C 658.500 723.800 647.800 727.100 634.500 728.600 C 619.100 727.700 589.800 715.800 582.600 722.600 C 579.300 725.800 586.300 734.900 598.500 734.900 Z " transform="matrix(0.3584859073162079, 0, 0, 0.3584859073162079, -177.05, -76.35)"/>
    <path id="ID0.10603649541735649" fill="#E3DEEE" d="M 774.600 723.200 C 759.300 718.700 739.400 710.100 715.500 708.200 C 691.600 706.300 671.700 711.200 664.400 714.300 C 661.300 715.600 659.500 717.200 658.900 718.400 C 658 720.200 659.100 721.900 658.600 722.700 C 658.400 723.900 647.700 727.200 634.400 728.700 C 621.500 731 607.400 733.200 599.400 733 C 591.400 732.900 586.700 730 584.400 726.800 C 582.200 723.500 584.300 721.600 588.100 720.700 C 585.700 720.900 583.700 721.500 582.500 722.700 C 579.200 725.800 586.200 735 598.400 735 C 608.500 735 826.300 735 846.800 735 C 851.500 735 857 734.900 862.900 734.600 C 824 734.900 790 727.600 774.600 723.200 Z " transform="matrix(0.3584859073162079, 0, 0, 0.3584859073162079, -177.05, -76.35)"/>
  </g>
</svg>