<svg version="1.1" width="104" height="132" xmlns="http://www.w3.org/2000/svg" xmlns:xlink="http://www.w3.org/1999/xlink">
  <!-- Exported by Scratch - http://scratch.mit.edu/ -->
  <g id="ID0.1554504418745637" transform="matrix(1.0499999523162842, 0, 0, 1.0499999523162842, -0.55, 0.65)">
    <path id="Back_Arm_1_" fill="#F05A28" stroke="#000000" stroke-linecap="round" d="M 44.459 112.850 C 44.459 112.850 35.290 119.155 32.004 114.438 C 30.234 111.899 33.940 108.530 35.275 107.604 C 37.214 106.266 37.678 105.821 40.072 105.584 C 42.461 105.346 51.241 104.387 54.397 104.934 C 59.346 105.801 67.525 109.413 55.900 111.620 C 55.900 111.620 49.333 112.247 44.937 112.763 L 44.459 112.850 L 44.459 112.850 L 44.459 112.850 L 44.459 112.850 Z " transform="matrix(0.855231523513794, 0, 0, 0.855231523513794, 0.6, -0.75)"/>
    <path id="Front_Leg_1_" fill="#F05A28" stroke="#000000" stroke-linecap="round" d="M 56.835 135.285 L 67.675 154.332 C 67.675 154.332 81.394 147.121 79.935 145.357 C 78.478 143.591 72.474 146.671 72.474 146.671 L 62.636 131.691 " transform="matrix(0.855231523513794, 0, 0, 0.855231523513794, 0.6, -0.75)"/>
    <path id="Body_1_" fill="#F05A28" stroke="#000000" stroke-linecap="round" d="M 69.553 120.506 C 69.338 118.777 70.881 109.160 71.141 107.338 C 71.141 107.338 73.946 99.791 62.934 98.662 C 56.695 98.023 52.851 100.625 52.005 103.308 C 51.279 105.613 49.697 112.697 49.697 112.697 C 49.697 112.697 47.156 120.644 46.285 123.088 C 44.916 126.914 42.234 136.871 57.641 136.871 C 57.641 136.871 69.445 136.600 70.242 126.203 C 70.394 124.221 70.025 122.293 69.564 120.771 L 69.553 120.506 L 69.553 120.506 L 69.553 120.506 L 69.553 120.506 Z " transform="matrix(0.855231523513794, 0, 0, 0.855231523513794, 0.6, -0.75)"/>
    <path id="Front_Leg_3_" fill="#F05A28" stroke="#000000" stroke-linecap="round" d="M 51.952 131.445 L 39.731 146.257 C 39.731 146.257 51.740 156.054 52.792 154.021 C 53.845 151.990 48.660 147.671 48.660 147.671 L 57.533 135.374 " transform="matrix(0.855231523513794, 0, 0, 0.855231523513794, 0.6, -0.75)"/>
    <path id="Front_Arm_1_" fill="#F05A28" stroke="#000000" stroke-linecap="round" d="M 53.031 108.131 C 54.993 112.617 62.717 121.037 71.371 122.252 C 82.113 123.766 81.574 119.709 81.158 117.965 C 80.543 115.420 75.691 115.162 71.320 113.586 C 67.804 112.320 63.654 108.336 63.654 108.336 " transform="matrix(0.855231523513794, 0, 0, 0.855231523513794, 0.6, -0.75)"/>
    <g id="Head_3_">
      <path id="Head_4_" fill="#F05A28" stroke="#000000" stroke-linecap="round" d="M 19.751 40.563 C 19.751 40.563 20.681 36.751 28.595 28.649 C 36.505 20.551 45.068 17.762 50.747 15.434 C 56.425 13.106 60.238 1.474 60.238 1.474 C 60.238 1.474 65.466 7.978 70.841 13.892 C 76.325 19.923 89.095 25.208 102.779 38.982 C 104.412 40.631 105.800 42.357 106.967 44.128 L 107.203 44.334 C 110.260 46.985 121.098 57.562 119.709 72.959 C 118.647 84.689 113.313 88.396 110.729 89.394 L 110.708 89.480 C 112.040 86.841 112.833 84.041 113.208 81.199 C 114.442 71.798 109.378 65.687 106.130 57.511 C 101.919 46.907 90.400 40.941 75.484 41.238 C 47.097 41.800 40.845 57.759 40.845 57.759 L 40.824 57.965 C 46.091 67.744 48.193 89.438 37.410 95.930 C 25.796 102.912 8.597 100.475 1.900 73.493 C -4.231 48.800 14.126 41.019 19.527 41.083 L 19.751 40.563 L 19.751 40.563 L 19.751 40.563 L 19.751 40.563 Z M 106.967 44.128 C 106.967 44.128 114.414 55.961 111.990 70.583 M 19.526 41.082 C 24.748 41.224 28.248 44.962 28.248 44.962 M 40.824 57.962 C 39.945 56.591 39.332 55.462 39.332 55.462 " transform="matrix(0.855231523513794, 0, 0, 0.855231523513794, 0.6, -0.75)"/>
      <path id="R_Ear_1_" fill="#404041" stroke="#000000" d="M 112.338 85.465 C 112.338 85.465 114.690 81.201 116.276 73.387 C 117.860 65.567 115.747 54.934 115.747 54.934 C 118.372 59.695 120.360 65.805 119.718 72.960 C 118.691 84.391 113.384 88.288 110.736 89.395 L 112.338 85.465 L 112.338 85.465 L 112.338 85.465 L 112.338 85.465 Z " transform="matrix(0.855231523513794, 0, 0, 0.855231523513794, 0.6, -0.75)"/>
      <g id="L_Ear_1_">
        <path id="Outer_Ear_1_" fill="#404041" stroke="#231F20" d="M 2.511 75.897 C 3.712 80.537 6.507 85.959 7.946 88.437 C 9.381 90.916 12.899 94.751 16.968 96.984 C 21.040 99.220 23.058 98.964 23.058 98.964 C 29.220 96.165 31.591 83.950 28.339 70.575 C 24.884 56.386 16.397 46.264 9.376 47.975 C 5.626 48.885 2.218 52.639 1.230 58.432 C 0.269 64.048 1.312 71.268 2.511 75.897 L 2.511 75.897 L 2.511 75.897 L 2.511 75.897 Z " transform="matrix(0.855231523513794, 0, 0, 0.855231523513794, 0.6, -0.75)"/>
        <path id="Inner_Ear_1_" fill="#929497" stroke="#231F20" stroke-linecap="round" d="M 6.873 64.098 C 9.573 62.941 14.157 67.594 17.112 74.494 C 20.064 81.389 20.271 87.926 17.573 89.080 C 14.870 90.234 10.289 85.580 7.336 78.683 C 4.378 71.785 4.173 65.255 6.873 64.098 L 6.873 64.098 L 6.873 64.098 L 6.873 64.098 Z M 18.751 87.953 C 7.628 80.904 7.753 63.924 7.753 63.924 " transform="matrix(0.855231523513794, 0, 0, 0.855231523513794, 0.6, -0.75)"/>
      </g>
      <path id="Face_2_" fill="#E6E7E8" stroke="#000000" stroke-linecap="round" d="M 36.485 96.566 C 37.786 97.457 47.403 103.871 57.847 106.472 C 64.764 108.201 63.035 111.583 63.035 111.583 C 63.035 111.583 63.312 110.562 68.711 108.229 C 74.107 105.911 73.461 107.958 89.565 104.135 C 105.669 100.324 111.919 90.979 113.211 81.196 C 114.449 71.796 109.381 65.685 106.133 57.508 C 101.922 46.904 90.404 40.938 75.490 41.235 C 47.097 41.797 40.845 57.756 40.845 57.756 L 40.802 57.928 C 46.079 67.685 48.204 89.427 37.407 95.927 C 37.083 96.120 36.755 96.310 36.423 96.489 L 36.485 96.566 L 36.485 96.566 L 36.485 96.566 L 36.485 96.566 Z " transform="matrix(0.855231523513794, 0, 0, 0.855231523513794, 0.6, -0.75)"/>
      <path id="Smile_1_" fill="#FFFFFF" stroke="#000000" stroke-width="1.0904" stroke-linecap="round" d="M 79.682 94.426 C 66.967 95.281 65.547 78.746 65.547 78.746 C 65.547 78.746 72.815 78.517 82.192 77.934 C 91.569 77.356 93.817 77.934 93.817 77.934 C 93.817 77.934 92.395 93.566 79.682 94.426 L 79.682 94.426 L 79.682 94.426 L 79.682 94.426 Z " transform="matrix(0.855231523513794, 0, 0, 0.855231523513794, 0.6, -0.75)"/>
      <path id="R_Eye_1_" d="M 98.959 68.458 C 98.801 68.458 98.643 68.437 98.480 68.392 C 97.582 68.129 97.062 67.184 97.330 66.284 C 97.451 65.864 97.476 65.430 97.408 64.996 C 97.150 63.365 95.572 62.253 93.926 62.513 C 92.262 62.775 91.119 64.317 91.375 65.951 C 91.521 66.878 90.887 67.748 89.959 67.893 C 89.025 68.039 88.162 67.407 88.018 66.477 C 87.467 62.995 89.879 59.707 93.399 59.151 C 96.911 58.607 100.215 60.983 100.772 64.463 C 100.918 65.398 100.860 66.330 100.592 67.236 C 100.373 67.977 99.695 68.458 98.959 68.458 L 98.959 68.458 L 98.959 68.458 L 98.959 68.458 L 98.959 68.458 Z " transform="matrix(0.855231523513794, 0, 0, 0.855231523513794, 0.6, -0.75)"/>
      <path id="L_Eye_1_" d="M 66.549 68.458 C 66.393 68.458 66.233 68.437 66.070 68.392 C 65.170 68.129 64.652 67.184 64.918 66.284 C 65.039 65.864 65.064 65.430 64.998 64.996 C 64.740 63.365 63.166 62.253 61.515 62.513 C 59.851 62.775 58.709 64.317 58.965 65.951 C 59.110 66.878 58.477 67.748 57.549 67.893 C 56.614 68.039 55.752 67.407 55.606 66.477 C 55.057 62.995 57.469 59.707 60.986 59.151 C 64.491 58.607 67.805 60.983 68.360 64.463 C 68.506 65.398 68.448 66.330 68.180 67.236 C 67.963 67.977 67.285 68.458 66.549 68.458 L 66.549 68.458 L 66.549 68.458 L 66.549 68.458 L 66.549 68.458 Z " transform="matrix(0.855231523513794, 0, 0, 0.855231523513794, 0.6, -0.75)"/>
    </g>
  </g>
</svg>