<svg version="1.1" id="Layer_1" x="0px" y="0px" width="85.715px" height="136.002px" viewBox="7.025 0 85.715 136.002" enable-background="new 7.025 0 85.715 136.002" xml:space="preserve" xmlns="http://www.w3.org/2000/svg" xmlns:xlink="http://www.w3.org/1999/xlink">
  <g>
    <path fill="#FFE795" d="M24.82,108.566c0.514,2.024,0.334,3.687-0.467,5.602c-0.627,1.523-2.312,1.723-2.74,3.33&#xD;&#xA;&#x9;c-0.287,1.023,0.885,1.553,1.828,2.105c1.655,0.998,3.141,0.108,5.025-0.442c2.741-0.831,4.284-1.306,7.083-1.888&#xD;&#xA;&#x9;c0-2.688-0.428-4.271,0.343-6.881c0.285-0.941,1.428-0.692,2.398-0.89c1.628-0.333,2.542-0.608,4.227-0.774&#xD;&#xA;&#x9;c2.57-0.25,5.17-2.388,6.627-0.334c1.598,2.223,3.142,4.221,1.941,6.658c-0.659,1.331-1.916,2.413-1.145,3.663&#xD;&#xA;&#x9;c0.6,0.97,1.688,0.665,2.742,1.108c2.284,0.999,4.598,0.972,6.396-0.777c1.771-1.721,3.653-2.247,4.34-4.55&#xD;&#xA;&#x9;c0.347-1.222-1.058-1.774-1.369-2.996c-0.519-1.998-0.229-3.163-0.569-5.217L24.82,108.566z"/>
    <path fill="#FFE795" d="M33.038,37.368c-14.053,4.16-22.906,12.651-24.734,26.856c-0.8,6.438,1.085,10.875,4.398,16.424&#xD;&#xA;&#x9;c1.6,2.723,3.599,3.721,5.483,6.219c1.713,2.22-1.485,8.212,4.227,6.82c0.744,2.177,3.484,4.056,5.654,1.392&#xD;&#xA;&#x9;c2.971,2.387,5.916,0.101,5.998-1.997c0.058-1.723-1.371-3.657-1.086-5.318c0.271-1.438,2.278-2.015,3.313-3.115&#xD;&#xA;&#x9;c0.925-0.982,0.924-2.487,0.628-3.771c-0.398-1.831-3.827-0.388-5.77-0.443c-5.254-0.166-5.769-7.77-5.197-12.873&#xD;&#xA;&#x9;c0.742-6.715,7.083-9.158,13.88-10.708c5.255-1.165,7.368-4.106,12.623-2.831c2.856,0.666,4.397,2.331,7.312,1.999&#xD;&#xA;&#x9;c5.6-0.667,7.823-3.885,12.338-7.103c5.369-3.829,5.562-10.123,8.227-15.094c3.824-3.218,9.994-2.497,10.969-5.327&#xD;&#xA;&#x9;c0.555-1.61-1.543-2.663-3.197-3.107c1.426-0.888,2.854-2.332,2.055-3.774c-0.799-1.498-2.567-1.332-4.34-1.332&#xD;&#xA;&#x9;c0.74-1.831,1.199-3.106,0.914-5.104c-5.256,0-7.895,2.318-11.776,5.703c-1.771-1.276-5.188-1.042-6.046,0.956&#xD;&#xA;&#x9;c-1.143,2.664,1.546,4.439,3.199,6.881c0.914,1.387-1.145,2.385-2.059,3.773c-2.111,3.219-4.566,4.606-8.451,5.328&#xD;&#xA;&#x9;c-5.541,1.054-8.798,0.222-14.394,0.222C41.605,38.033,35.607,42.361,33.038,37.368z"/>
    <path fill="#627C00" d="M26.066,39.699c5.142,6.242,9.683,12.818,5.484,19.754c-1.714,2.857-3.627,4.023-4.57,7.214&#xD;&#xA;&#x9;c-1.428,4.716-0.514,7.963,1.713,12.319c1.143,2.246,4.027,0.473,6.627,0.664c1.256,0.082,1.912,1.332,1.826,2.556&#xD;&#xA;&#x9;c-0.17,2.106-3.168,2.163-3.541,4.217c-0.313,1.806,0.515,2.829,0.571,4.661c0.058,1.914-0.342,3.661-2.17,4.438&#xD;&#xA;&#x9;c-1.771,0.752-3.712-0.391-4.798,1.108c-0.941,1.306-3.227-0.026-3.998-1.44c-0.771-1.416-2.313-1.053-3.884-1.664&#xD;&#xA;&#x9;c-0.914,2.164-0.942,3.637-1.941,5.771c-1.2,2.555-3.342,3.911-2.856,6.659c0.228,1.356,2.027,1.026,3.427,1.331&#xD;&#xA;&#x9;c7.568,1.721,11.854,1.832,19.535,2.439c6.938,0.557,10.91,0.025,17.707-1.555c3.113-0.723,4.998-0.584,8.111-1.332&#xD;&#xA;&#x9;c1.368-0.333,2.598-0.333,3.196-1.554c0.828-1.724-1.06-2.806-1.601-4.662c-3.741-12.399-3.856-19.671-6.514-32.188&#xD;&#xA;&#x9;c-0.654-3.104,3.312-4.354,3.312-7.543c0-3.079-1.199-4.882-3.086-7.325c-2.715-3.523-1.742-6.687-2.285-11.098&#xD;&#xA;&#x9;c-0.229-1.859-0.912-2.803-1.143-4.661c-4.998,0.472-4.229,6.908-4.229,11.765c0,1.942-2.456,2.302-4.455,2.44&#xD;&#xA;&#x9;c-3.143,0.223-4.912-0.166-8.054,0.111v-6.881c-3.228-0.554-4.798-3.052-5.425-6.104C32.495,36.563,28.582,38.672,26.066,39.699z"/>
    <path fill="#272525" d="M45.888,7.605c1.417-0.092,7.27,0.184,7.396,4.01c0.023,0.727-0.334,1.542-0.4,2.284&#xD;&#xA;&#x9;c2.707,0.792,4.83,1.814,5.732,4.657c0.896,2.822,0,4.217-1.199,5.438c3.541,2.886,1.145,6.327-0.807,6.895&#xD;&#xA;&#x9;c1.389,2.484,0.586,3.982-2.496,4.593c0.051,3.331-0.16,8.389-3.408,10.393c-7.639,4.71-19.154,0.095-18.579-8.468&#xD;&#xA;&#x9;c-1.604,0.443-3.325,0.881-4.987-0.668c-2.021-1.878-0.797-3.587-0.453-4.309c-2.399-1.332-2.486-4.188-1.44-5.55&#xD;&#xA;&#x9;c-4.699-2.985-3.528-7.284,1.09-9.526c-2.276-2.792-2.235-6.07-1.362-7.453c1.678-2.661,3.197-2.94,5.482-3.607&#xD;&#xA;&#x9;c-1.999-5.66,8.053-8.371,10.053-4.44c1.199,0.277,2.573-0.922,4.691,1.24C46.258,4.173,46.872,6.264,45.888,7.605z"/>
    <path fill="#9471CF" d="M39.124,4.652c5.612-1.634,4.698,4.082,3.612,5.515c1.848-0.184,6.23,0.109,7.109,2.117&#xD;&#xA;&#x9;c0.36,0.822-0.365,2.917-0.688,3.732c1.232,0.155,2.029,0.385,3.039,0.668c3.188,0.895,4.135,5.394,1.949,7.632&#xD;&#xA;&#x9;c2.93-0.044,4.471,5.283-0.287,5.626c-0.494-3.986-0.523-9.267-5.217-10.807c-5.855-1.923-18.486,0.764-17.373,8.689&#xD;&#xA;&#x9;c0.389,1.053,0.493,1.937,0.688,2.897c-1.301-0.192-3.361-0.34-4.357,0.669c-1.809-2.886,0.803-4.955,1.49-5.459&#xD;&#xA;&#x9;c-1.322-0.752-3.566-2.022-3.43-3.768c0.172-2.206,1.857-4.148,4.003-5.034c-1.376-1.015-2.705-3.202-1.835-5.124&#xD;&#xA;&#x9;c0.742-1.638,2.771-3.564,4.701-3.566c-0.188-1.316-1.135-4.668,1.664-5.793C35.435,2.147,39.082,1.353,39.124,4.652z"/>
    <path fill="#272525" d="M87.812,18.746c4.063,0.149,4.729,3.177,2.465,6.017c0.697,0.138,1.938,0.856,2.235,1.504&#xD;&#xA;&#x9;c1.955,4.238-9.225,7.615-11.983,8.132c-0.764,0.954-0.844,2.583-1.26,3.732c-2.65,7.327-5.666,14.192-13.875,16.878&#xD;&#xA;&#x9;c-1.439,0.47-2.861,1.114-4.416,1.058c-0.603-0.728-1.523-1.338-1.777-2.284c1.928-0.435,6.1-1.656,9.633-4.01&#xD;&#xA;&#x9;c5.643-3.759,9.533-10.399,10.422-17.004c-0.105-0.358,6.705-1.73,9.131-3.439c0.518-0.365,2.283-1.652,1.604-2.396&#xD;&#xA;&#x9;c-0.748-0.821-3.562-0.163-4.644-0.278l-0.174-0.389c1.392-0.997,6.174-3.925,3.041-5.236c-1.703-0.713-3.33,0.615-4.935,0.946&#xD;&#xA;&#x9;c-0.854-0.82,3.261-3.429,2.58-5.068c-1.578-3.82-8.297,3.327-9.174,5.068c1.404,0.604,3.719,1.945,2.752,3.732&#xD;&#xA;&#x9;c-0.785,0.208-0.629-0.82-0.979-1.226c-1.018-1.189-1.77-0.816-3.039-0.668c-0.623-0.909-0.844-2.95-2.178-3.174&#xD;&#xA;&#x9;c-1.062-0.179-2.582,0.885-2.926,1.838c-0.818,2.278,1.914,4.285,3.44,5.515c-0.668,3.616-3.776,6.923-6.711,9.079&#xD;&#xA;&#x9;c-1.992,1.468-9.254,3.562-11.582,2.563c-0.709-0.306-0.801-2.452-0.801-2.452c6.198,0.339,12.221-1.32,15.649-6.685&#xD;&#xA;&#x9;c0.68-1.059,1.137-2.213,0-3.174c-0.736-0.627-1.154-1.574-1.662-2.396c-2.129-3.451,2.291-9.647,6.65-4.845&#xD;&#xA;&#x9;C80.896,12.006,90.111,11.716,87.812,18.746z"/>
    <path fill="#FFE795" d="M33.103,35.679c-1.658,0.381-5.666,1.758-4.474-1.863c0.849-2.579,3.551-1.554,4.875-0.421&#xD;&#xA;&#x9;c0.699-2.854-1.544-6.685,1.089-9.19c2.693-2.564,13.809-4.958,15.252-0.279c1.252,4.059,2.688,15.28,0.574,18.995&#xD;&#xA;&#x9;c-1.43,2.515-6.751,3.221-9.348,2.674C33.799,44.062,33.109,37.503,33.103,35.679z"/>
    <path fill="#272525" d="M40.9,36.236c2.104,0.404,4.879,1.666,6.651-0.167c-1.319-1.865-1.889-4.181-1.948-6.693&#xD;&#xA;&#x9;c-0.055-2.311,2.512,4.828,3.654,7.103C48.074,37.761,44.394,39.143,40.9,36.236z"/>
    <path fill="#FFDC95" d="M55.529,31.652c0.83,0.816,0.58,2.743-1.271,2.579c-0.202-0.943-0.114-1.887-0.112-2.84&#xD;&#xA;&#x9;C54.656,31.335,55.207,31.331,55.529,31.652z"/>
    <path fill="#272525" d="M49.615,38.242c0.516-0.167,1.091,0.111,1.091,0.669c-1.835,2.896-6.142,2.785-9.282,2.008&#xD;&#xA;&#x9;c-1.725-0.426-3.428-0.942-4.686-2.719c-0.332-0.47,0.172-0.721,0.606-0.514C40.988,39.414,46.003,40.469,49.615,38.242z"/>
    <path fill="#272525" d="M31.038,38.911c-4.356,0.681-8.837,3.895-11.983,6.795c-7.732,7.128-12.411,17.378-9.117,27.688&#xD;&#xA;&#x9;c1.655,5.174,5.924,11.138,10.78,13.869c-0.76,1.799-1.802,5.603-0.287,6.017c1.515,0.411,1.987-2.265,2.351-2.229&#xD;&#xA;&#x9;c0.365,0.033,0.054,4.719,2.18,4.789s2.121-4.938,2.639-4.958c0.516-0.021,0.836,3.931,2.857,4.197&#xD;&#xA;&#x9;c5.107,0.678,0.521-6.157,1.958-9.153c0.629-1.312,4.707-1.447,3.153-4.011c-1.553-2.562-5.492-0.017-6.594-0.78&#xD;&#xA;&#x9;c-3.414-2.365-5.093-10.708-4-14.467c0.627-2.164,3.454-7.093,6.467-6.756c0.612,0.708-0.629,1.288-0.976,1.837&#xD;&#xA;&#x9;c-3.405,5.401-4.981,13.132,0.287,18.05c2.254-0.188,6.134-2.148,7.396,0.778c0.569,1.319,0.416,3.33-0.516,4.456&#xD;&#xA;&#x9;c-0.803,0.973-2.033,1.167-2.924,2.005c0.013,3.267,1.585,7.414-1.893,9.581c-1.578,0.984-2.928,0.466-4.414-0.389&#xD;&#xA;&#x9;c-1.383,1.957-3.086,2.722-5.219,1.227c-1.348-0.948-0.837-2.045-1.351-3.043c-4.284,0.998-4.398-2.773-3.351-5.537&#xD;&#xA;&#x9;c-2.724-1.302-4.817-4.291-6.479-6.686c-6.896-9.936-6.554-23.414,0.574-33.146c2.812-3.841,8.078-8.963,12.786-10.417&#xD;&#xA;&#x9;c1.754-0.542,3.553-0.821,5.504-0.78C31.372,37.991,31.165,38.6,31.038,38.911z"/>
    <path fill="#272525" d="M49.843,67.934c14.83-0.463,10.904-13.876,6.08-16.208c0.109-4.381,0-8.795-0.977-13.09&#xD;&#xA;&#x9;c1.363-1.651,3.438,10,3.84,12.941c5.297,6.3,5.664,17.514-4.172,17.867C51.531,69.555,49.843,67.934,49.843,67.934z"/>
    <path fill="#272525" d="M33.904,57.737c-0.713,0.713-1.524,1.551-2.637,1.504c-0.057-3.859,0.762-7.544-0.23-11.363&#xD;&#xA;&#x9;c-0.52-2.001-3.705-6.795-3.039-7.241C33.836,43.828,34.759,51.932,33.904,57.737z"/>
    <path fill="#272525" d="M51.76,44.692c0,0-0.303,7.056-0.95,7.552c-0.647,0.495-13.089,0.574-13.58,0.146&#xD;&#xA;&#x9;c-0.492-0.428-0.709-7.087-0.709-7.087l2.731,0.665c0,0-0.237,5.254,0.399,5.55c0.638,0.295,8.99-0.299,9.367-0.277&#xD;&#xA;&#x9;c0.377,0.021,0.127-5.649,0.127-5.649L51.76,44.692z"/>
    <path fill="#272525" d="M44.339,67.266c-3.234,3.324-12.848,4.059-15.139-0.559c0.259-0.671-0.037-2.148,0.976-2.285&#xD;&#xA;&#x9;C31.437,64.255,37.482,69.221,44.339,67.266z"/>
    <path fill="#272525" d="M68.306,103.859c0.735-0.327,2.771,0.154,2.065,1.228c-0.896,1.354-4.229,2.354-5.791,2.785&#xD;&#xA;&#x9;c-11.731,3.229-33.572,4.521-45.243,1.062c-2.12-0.634-9.342-1.306-8.991-4.086c0.108-0.854,1.683-1.089,2.34-0.871l1.147,0.557&#xD;&#xA;&#x9;c2.204-2.834,3.112-6.628,4.816-9.747c0.675,0.022,1.274,0.364,1.777,0.778c-0.208,1.783-3.157,8.483-4.128,10.191&#xD;&#xA;&#x9;c19.352,5.807,46.5,0.611,48.967-0.836c-1.76-6.247-5.928-29.312-6.994-34.592c0.08-0.355,0.229-1.225,0.688-1.338&#xD;&#xA;&#x9;c1.35-0.344,1.104,2.658,1.205,3.344C61.765,83.27,64.951,93.348,68.306,103.859z"/>
    <path fill="#272525" d="M76.449,119.518c0,2.263,0.043,4.529,0,6.793c-0.084,4.312-16.184,4.945-19.266,4.181&#xD;&#xA;&#x9;c-0.447-0.823-0.818-1.688-1.377-2.451c-0.222,1.199,0.196,1.746-0.285,2.562c-2.102,0.283-4.248,0.609-6.365,0.276&#xD;&#xA;&#x9;c-2.512-4.552-1.896-10.823,0.975-15.095c-0.281-1.096-2.645-5.324-1.634-6.495c1.06,0.081,1.31-1.347,2.351-0.279&#xD;&#xA;&#x9;c1.086,1.11,1.91,4.575,2.398,6.104c-0.68,0.869-1.422,1.783-1.74,2.9c0.822,0.438,4.146,1.161,5.104,1.225&#xD;&#xA;&#x9;c0.86,0.053,4.512-4.6,5.219-5.459c-1.736-5.057-1.65-5.323-0.271-6.971c1.692-0.017,1.932,4.729,2.735,5.74&#xD;&#xA;&#x9;C68.336,117.658,75.275,118.229,76.449,119.518z"/>
    <path fill="#272525" d="M26.342,109.451c0.627,3.253-0.053,6.434-2.874,8.17c0.741,0.535,1.561,1.15,2.417,1.43&#xD;&#xA;&#x9;c1.479-0.865,6.683-2.386,8.167-2.552c0.012-1.45,0.034-4.485,0.857-5.771c0.705-0.188,1.303-0.174,1.771,0.168&#xD;&#xA;&#x9;c-1.11,7.519,9.075,18.213,6.568,23.715c-0.166,0.361-0.875,0.644-1.257,0.757c-5.906,1.772-11.766-0.277-15.772-4.877&#xD;&#xA;&#x9;c-0.432,0.716,0.38,1.896-0.86,2.006c-1.181,0.104-4.879-0.293-6.02-0.669c-1.056-3.924-1.53-10.176,0.688-13.812&#xD;&#xA;&#x9;c0.846-1.391,3.699-2.658,4.244-4.123c0.36-0.976-0.789-3.656,0.18-4.552L26.342,109.451z"/>
    <path fill="#FFA501" d="M64.753,116.953c-0.287,1.895-2.869,3.865-3.271,5.646c2.752,1.614,12.834,0.64,13.182,0.473&#xD;&#xA;&#x9;c0.396,1.521,0.76,3.41-2.166,3.971c-3.83,0.729-8.488,1.161-12.562,0.994c-3.211-0.112-3.892-2.604-5.271-5.184&#xD;&#xA;&#x9;c-0.158,1.804-0.041,3.125-0.561,5.074c-0.285,1.077-2.511,1.06-3.199,0.165c-0.514-2.45-0.715-5.464-0.197-7.802&#xD;&#xA;&#x9;c2.234,0.334,4.757,2.172,7.396,1.503c2.062-1.948,3.151-4.288,5.504-5.794L64.753,116.953z"/>
    <path fill="#FFE795" d="M73.707,120.383c-1.943,1.555-6.445,1.166-8.684,0.775l2.021-2.87&#xD;&#xA;&#x9;C68.652,118.898,72.271,119.38,73.707,120.383z"/>
    <path fill="#FFA501" d="M36.349,120.604c-2.373,0.674-6.146,2.211-7.777,4.162c0.613,3.854,8.316,5.498,11.774,5.149&#xD;&#xA;&#x9;c0.235,0.938,0.689,1.912,0.573,2.896c-8.686,2.586-12.305-3.387-16.934-8.787c0,0-0.053,4.115-0.114,5.904&#xD;&#xA;&#x9;c-0.99,0.104-1.95-0.162-2.924-0.279c-0.46-3.346-0.464-6.947,1.146-10.024c1.148,0.465,3.133,3.272,4.357,2.674&#xD;&#xA;&#x9;c0.695-0.34,1.086-0.89,1.664-1.336c1.451-1.126,5.724-2.086,7.548-2.086C36.023,119.395,36.132,120.027,36.349,120.604z"/>
    <path fill="#FFE795" d="M38.861,126.155c-2.351,0.44-5.816,0.21-7.824-0.791c1.377-1.228,3.926-2.663,5.99-2.554&#xD;&#xA;&#x9;C37.888,123.812,38.232,125.04,38.861,126.155z"/>
    <path fill="#272525" d="M40.882,29.072c1.794,1.501-0.249,3.764-2.889,3.619c-1.284-0.071-2.834-0.219-3.352-1.674&#xD;&#xA;&#x9;C33.73,28.44,38.314,26.921,40.882,29.072z"/>
    <path fill="#FFFFFF" d="M39.674,29.928c0.437,0.683-0.073,1.432-0.955,1.673c-1.024,0.279-2.483-0.064-2.489-1.073&#xD;&#xA;&#x9;C36.218,28.748,39.146,29.1,39.674,29.928z"/>
    <path fill="#272525" d="M53.628,28.568c1.584,1.43-0.223,3.584-2.548,3.446c-1.136-0.068-2.505-0.209-2.958-1.595&#xD;&#xA;&#x9;C47.314,27.966,51.357,26.52,53.628,28.568z"/>
    <path fill="#FFFFFF" d="M52.562,29.384c0.387,0.65-0.064,1.363-0.845,1.592c-0.903,0.268-2.192-0.061-2.198-1.021&#xD;&#xA;&#x9;C49.508,28.259,52.094,28.596,52.562,29.384z"/>
    <path fill="#272525" d="M35.558,28.823c-0.615-0.242-0.992-0.514-1.313-1.082c-0.228-0.402-0.378-0.958,0.028-1.193&#xD;&#xA;&#x9;c0.407-0.236,0.521,0.597,0.601,1.055C34.964,28.123,35.257,28.379,35.558,28.823z"/>
    <path fill="#272525" d="M35.263,29.625c-0.641,0.167-1.109,0.172-1.719-0.094c-0.432-0.189-0.895-0.544-0.716-0.97&#xD;&#xA;&#x9;c0.179-0.427,0.786,0.171,1.132,0.492C34.357,29.414,34.75,29.446,35.263,29.625z"/>
    <path fill="#272525" d="M53.072,28.371c0.613-0.242,0.992-0.512,1.312-1.082c0.229-0.402,0.383-0.957-0.025-1.193&#xD;&#xA;&#x9;c-0.405-0.236-0.521,0.596-0.602,1.055C53.667,27.671,53.374,27.928,53.072,28.371z"/>
    <path fill="#272525" d="M53.367,29.175c0.645,0.166,1.111,0.17,1.723-0.095c0.434-0.188,0.896-0.543,0.715-0.97&#xD;&#xA;&#x9;c-0.178-0.426-0.783,0.172-1.131,0.492C54.275,28.961,53.881,28.996,53.367,29.175z"/>
    <ellipse fill="#272525" cx="37.988" cy="30.49" rx="0.803" ry="0.78"/>
    <ellipse fill="#272525" cx="51.232" cy="29.804" rx="0.646" ry="0.628"/>
  </g>
</svg>