<svg version="1.1" width="495" height="373" viewBox="-1 -1 495 373" xmlns="http://www.w3.org/2000/svg" xmlns:xlink="http://www.w3.org/1999/xlink">
  <!-- Exported by Scratch - http://scratch.mit.edu/ -->
  <g id="ID0.5207086340524256" transform="matrix(1, 0, 0, 1, -5, -4)">
    <path id="ID0.8719879011623561" fill="#FFE7C0" stroke="#FFE7C0" stroke-width="7" d="M 4.300 4.100 L 490.800 4.100 L 490.800 369 L 4.300 369 L 4.300 4.100 Z " transform="matrix(1, 0, 0, 1, -3, -1)"/>
    <path id="ID0.9846947053447366" fill="#FFFCF9" stroke="#FFFFFF" stroke-width="5" d="M 247.500 48.700 C 287.400 48.700 323.600 64.100 349.800 89.100 C 376 114 392.200 148.500 392.200 186.500 C 392.200 224.500 376 259 349.800 283.900 C 323.600 308.800 287.400 324.300 247.500 324.300 C 207.600 324.300 171.400 308.900 145.200 283.900 C 119 259 102.800 224.500 102.800 186.500 C 102.800 148.500 119 114 145.200 89.100 C 171.400 64.100 207.600 48.700 247.500 48.700 Z " transform="matrix(1, 0, 0, 1, -3, -1)"/>
  </g>
</svg>