<svg version="1.1" width="122" height="283" viewBox="0 -1 122 283" xmlns="http://www.w3.org/2000/svg" xmlns:xlink="http://www.w3.org/1999/xlink">
  <!-- Exported by Scratch - http://scratch.mit.edu/ -->
  <g id="ID0.25823914678767323">
    <g id="Page-1">
      <g id="Group">
        <g id="ID0.3453642609529197">
          <g id="Path">
            <path id="ID0.421416062861681" fill="#C38F4E" stroke="none" stroke-width="1" d="M 15.500 18.600 C 13.400 18.100 12.900 16.600 13.100 15 C 12.900 18.100 12.800 21 13.100 23.400 C 13.100 23.700 13.100 23.900 13.100 24.200 C 13 25.400 12.300 26.400 11 26.600 C 10.600 26.700 10.200 26.500 9.900 26.300 C 9.900 26.400 9.900 26.600 9.900 26.700 C 9.800 27.900 8.800 28.900 7.600 28.900 C 6.800 28.900 6.200 28.400 6 27.700 C 5.800 27.200 5.600 26.600 5.500 26.100 C 5.500 26.100 5.500 26.100 5.500 26.100 C 4.500 27.100 2.800 26.600 2.500 25.200 C 1.900 22.600 0.900 17.200 1 15.100 C 1.200 10.800 4.500 6.200 4.500 6.200 L 3.600 0.400 L 12.600 1.200 L 11.700 4.100 C 15.300 6.500 16.500 8.500 16.600 12.400 C 16.600 12.400 18.200 15.300 18.300 16.700 C 18.200 18.600 16.200 18.900 15.500 18.600 Z " transform="matrix(1, 0, 0, 1, 99, 159)"/>
            <path id="ID0.09164599888026714" fill="none" stroke="#000000" stroke-width="1" stroke-linecap="round" stroke-linejoin="round" d="M 11.800 12.500 L 11.800 12.100 C 12.100 14.300 12.100 18.100 15.400 18.600 C 16.100 18.900 18.200 18.500 17.900 16.900 C 17.700 15.500 16.200 12.600 16.200 12.600 C 16.100 8.700 14.900 6.700 11.300 4.300 L 11.600 2.100 " transform="matrix(1, 0, 0, 1, 99, 159)"/>
            <path id="ID0.42766742734238505" fill="none" stroke="#000000" stroke-width="1" stroke-linecap="round" stroke-linejoin="round" d="M 5.300 26.200 C 5.300 26.200 5.300 26.200 5.300 26.200 C 4.300 27.200 2.600 26.700 2.200 25.400 C 1.600 22.800 0.600 17.400 0.700 15.300 C 0.900 11 4.200 6.400 4.200 6.400 L 3.300 0.600 " transform="matrix(1, 0, 0, 1, 99, 159)"/>
            <path id="ID0.23460217053070664" fill="none" stroke="#000000" stroke-width="1" stroke-linecap="round" stroke-linejoin="round" d="M 4.600 16.900 C 4 20.300 4.500 24.300 5.900 27.800 C 6.200 28.500 6.800 29.100 7.500 29 C 8.900 28.900 10 27.700 9.800 26.300 " transform="matrix(1, 0, 0, 1, 99, 159)"/>
            <path id="ID0.15939935529604554" fill="none" stroke="#000000" stroke-width="1" stroke-linecap="round" stroke-linejoin="round" d="M 8.200 16.700 C 8.200 19.800 8.400 22.700 9 25.200 C 9.200 26.100 10.100 26.800 11 26.600 C 12.500 26.400 13.300 24.900 13.100 23.400 C 12.900 21.500 12.800 19.300 13 17 " transform="matrix(1, 0, 0, 1, 99, 159)"/>
          </g>
          <g id="ID0.5759275844320655">
            <path id="Shape_73_" fill="#C38F4E" stroke="none" stroke-width="1" d="M 10.300 3.300 C 13.600 8.300 12.800 17.300 13.600 22.600 C 14.400 27.900 14.800 38 14.800 38 C 14.800 38 10.500 42.300 6.700 38.600 C 6.700 38.600 2.300 19.100 1.100 14.600 C -0.200 10.200 -0.100 7.300 1.300 4.400 C 2.800 1.500 6.500 -2.500 10.300 3.300 Z " transform="matrix(1, 0, 0, 1, 96, 123)"/>
            <path id="Shape_72_" fill="none" stroke="#000000" stroke-width="1" stroke-linecap="round" stroke-linejoin="round" d="M 11.900 7.100 C 13.300 12.100 12.900 18.400 13.500 22.600 C 14.300 27.900 14.600 38.400 14.600 38.400 " transform="matrix(1, 0, 0, 1, 96, 123)"/>
            <path id="Shape_71_" fill="none" stroke="#000000" stroke-width="1" stroke-linecap="round" stroke-linejoin="round" d="M 6.900 39.100 C 5.500 36.500 2.100 19 1 14.600 C 0.400 12.300 0.100 10.400 0.100 8.800 " transform="matrix(1, 0, 0, 1, 96, 123)"/>
          </g>
          <g id="Path">
            <path id="ID0.6566127697005868" fill="#C38F4E" stroke="none" stroke-width="1" d="M 2.400 40 C 2.200 41.500 2.500 47.600 3.400 49.200 C 4.600 51.300 10.900 51.200 12.200 51.200 C 16.600 51 15.300 45.700 15.600 43.300 C 15.700 42.500 15.600 41.300 15.700 40.400 C 17.100 25.400 14.500 8.800 12.100 3.400 C 9.200 -2.700 4.100 1.900 1.100 9.600 C -1.100 14.900 3.500 26.300 2.400 40 Z " transform="matrix(1, 0, 0, 1, 93, 85)"/>
            <path id="ID0.532084743026644" fill="none" stroke="#000000" stroke-width="1" stroke-linecap="round" stroke-linejoin="round" d="M 15.200 49 C 15.900 47.200 15.500 44.700 15.600 43.200 C 15.700 42.400 15.600 41.200 15.700 40.300 C 17.100 25.300 14.500 8.700 12.100 3.300 C 11.200 1.400 10.100 0.500 8.900 0.500 " transform="matrix(1, 0, 0, 1, 93, 85)"/>
            <path id="ID0.5828080466017127" fill="none" stroke="#000000" stroke-width="1" stroke-linecap="round" stroke-linejoin="round" d="M 8.600 0.400 C 6 0.600 3.100 4.300 1.100 9.400 C -1.100 14.900 2.500 22.200 2.600 36.500 C 2.400 38 2.900 44.700 3.100 48.900 " transform="matrix(1, 0, 0, 1, 93, 85)"/>
          </g>
        </g>
        <path id="Path" fill="#5EBF9A" stroke="#000000" stroke-width="1" stroke-linecap="round" stroke-linejoin="round" d="M 18 83 L 8 84 C 4.600 65.400 0 23.300 0.300 23.300 C -0.100 12.900 0.400 2.500 1.200 1.700 C 3 0.000 6.300 0.700 9.300 2.700 C 11.900 4.500 14.400 7.400 15.400 10.500 C 15.800 11.900 16.200 13.200 16.700 14.600 C 17.700 17.500 20.700 33.800 20.800 38.900 C 21 53.300 20 68 18 83 Z " transform="matrix(1, 0, 0, 1, 92, 80)"/>
      </g>
      <path id="Path" fill="#C38F4E" stroke="#000000" stroke-width="1" stroke-linecap="round" stroke-linejoin="round" d="M 88.200 80.300 L 89.100 83.700 L 82.800 84.500 L 81.800 84.600 L 80.800 84.500 L 74.500 83.700 L 75.400 80.300 C 76.800 75 76.200 69.300 73.900 64.400 L 81.900 65 L 89.900 64.400 C 87.300 69.700 86.100 75.600 88.200 80.300 Z "/>
      <path id="Path" fill="#C38F4E" stroke="#000000" stroke-width="1" stroke-linecap="round" stroke-linejoin="round" d="M 58.700 171.600 C 46.300 149.700 58.900 84.900 63.600 81.500 C 66.900 79.200 70.800 78.800 72.900 78.800 C 73.700 78.800 74.500 79.100 75.100 79.600 C 78 82 87.300 83.400 89.500 80.500 C 89.500 80.500 89.700 80.400 89.900 80.400 C 93 79.600 96.300 80.700 98.300 83.200 C 98.300 83.300 98.400 83.300 98.400 83.300 C 103.300 90.200 106.500 99.400 105.800 106.300 C 103.700 126.400 109 143.500 105.700 168.400 C 104.200 172.900 61.300 176.700 58.700 171.600 Z "/>
      <g id="Group">
        <g id="Path">
          <g id="ID0.6587394094094634">
            <path id="ID0.25017020106315613" fill="#C38F4E" stroke="none" stroke-width="1" d="M 3.700 4.400 C 6.500 0.600 11.500 -1.700 15.400 2.400 C 27.100 14.700 23.100 51.100 14.700 60.400 C 13.800 61.400 8.800 64.200 6.400 61.700 C -1.300 53.700 -1.300 11.300 3.700 4.400 Z " transform="matrix(1, 0, 0, 1, 85, 160)"/>
            <path id="ID0.17191715026274323" fill="none" stroke="#000000" stroke-width="1" stroke-linecap="round" stroke-linejoin="round" d="M 2.800 53 C -1.100 36.100 -0.300 10 3.800 4.400 C 6.600 0.600 11.600 -1.700 15.500 2.400 C 25.600 13.100 24 40 17.900 55 " transform="matrix(1, 0, 0, 1, 85, 160)"/>
          </g>
          <g id="ID0.7431679768487811">
            <path id="ID0.1020253668539226" fill="#C38F4E" stroke="none" stroke-width="1" d="M 16.700 9.100 L 16.600 10.400 L 12.900 43.700 C 12.700 45.500 12.800 47.400 13.200 49.200 C 13.800 51.800 12.500 54.600 10 55.600 C 10 55.600 9.900 55.600 9.900 55.600 C 6 57.100 2 53.800 2.400 49.700 L 2.800 45.700 C 2.900 44.400 2.900 43.200 2.800 41.900 L 0.400 16.800 C 0.300 13.900 0.700 11.100 1.600 8.400 C 1.600 8.300 1.700 8.200 1.700 8.100 C 2.400 6.300 3.300 4.500 4.400 2.900 C 5.400 1.400 7 0.400 8.800 0.200 C 12.400 -0.300 15.700 2.200 16.200 5.800 L 16.700 9.100 Z " transform="matrix(1, 0, 0, 1, 86, 205)"/>
            <path id="ID0.5290260408073664" fill="none" stroke="#000000" stroke-width="1" stroke-linecap="round" stroke-linejoin="round" d="M 16.600 10.100 L 12.900 43.600 C 12.700 45.400 12.800 47.300 13.200 49.100 " transform="matrix(1, 0, 0, 1, 86, 205)"/>
            <path id="ID0.5156687293201685" fill="none" stroke="#000000" stroke-width="1" stroke-linecap="round" stroke-linejoin="round" d="M 2.400 50.600 C 2.400 50.300 2.400 50 2.400 49.700 L 2.800 45.700 C 2.900 44.400 2.900 43.200 2.800 41.900 L 0.400 16.800 C 0.200 13.800 0.700 10.800 1.700 8 " transform="matrix(1, 0, 0, 1, 86, 205)"/>
          </g>
          <g id="ID0.13526850193738937">
            <path id="ID0.6344031090848148" fill="#C38F4E" stroke="none" stroke-width="1" d="M 0.800 4.500 C 3.800 11.800 9.800 17.200 21.400 19 C 24.400 19.300 26.800 18.800 28.100 16.900 C 29.400 15 28.900 12.400 27.300 10.800 C 22.600 6.200 17.200 2.700 11.300 0.100 L 2.300 1.900 C 1.100 2.200 0.400 3.400 0.800 4.500 Z " transform="matrix(1, 0, 0, 1, 88, 254)"/>
            <path id="ID0.7170903463847935" fill="none" stroke="#000000" stroke-width="1" stroke-linecap="round" stroke-linejoin="round" d="M 0.400 1.900 C 1.900 10.400 9.800 17.200 21.400 19.100 C 24.400 19.400 26.800 18.900 28.100 17 C 29.400 15.100 28.900 12.500 27.300 10.900 C 22.600 6.300 17.200 2.800 11.300 0.200 " transform="matrix(1, 0, 0, 1, 88, 254)"/>
          </g>
        </g>
        <path id="Path" fill="#CCD8FF" stroke="#000000" stroke-width="1" stroke-linecap="round" stroke-linejoin="round" d="M 0.500 19.100 C 1.500 19.100 2.400 26.900 2.200 29.700 C 9.500 31.900 17.300 31.900 25.500 29.700 L 24.500 0.400 L 0.800 1.700 " transform="matrix(1, 0, 0, 1, 83, 154)"/>
        <path id="Path" fill="#333333" stroke="#000000" stroke-width="1" stroke-linecap="round" d="M 2.100 1.700 C -1.200 24.100 1.200 55.300 2.800 56.500 C 8.600 58.700 14.900 59.400 22 58.300 C 22 58.300 27.200 24 25.300 0 L 2.100 1.700 Z " transform="matrix(1, 0, 0, 1, 83, 154)"/>
        <g id="ID0.3089657751843333">
          <path id="Path" fill="#45896D" stroke="#000000" stroke-width="1" stroke-linecap="round" stroke-linejoin="round" d="M 21.500 23.200 C 13.600 20.500 7 15.900 1.400 10 L 0.400 4.200 C 0.300 3.500 1 2.900 1.700 3.200 L 3.800 4.200 C 5.500 1.900 9 -0.300 12.500 0.100 C 17.200 0.500 13.500 3.800 13.500 3.800 L 29.400 13.700 L 28.600 19.500 L 21.900 23.700 " transform="matrix(1, 0, 0, 1, 86, 248)"/>
          <path id="Path" fill="#45896D" stroke="#000000" stroke-width="1" stroke-linecap="round" stroke-linejoin="round" d="M 29.400 13.700 L 27.900 15.300 L 17 7 L 13.500 3.800 L 29.400 13.700 " transform="matrix(1, 0, 0, 1, 86, 248)"/>
          <path id="Path" fill="#45896D" stroke="#000000" stroke-width="1" stroke-linecap="round" stroke-linejoin="round" d="M 25.400 18.300 L 22 22.700 C 14.700 20 6.700 15.600 1.400 10.100 L 0.400 4.300 C 0.300 3.600 1 3 1.700 3.300 L 3.800 4.300 L 5.700 8.300 C 10.300 12.800 18.500 15.500 25.400 18.300 Z " transform="matrix(1, 0, 0, 1, 86, 248)"/>
          <path id="Path" fill="#FFFFFF" stroke="#000000" stroke-width="1" stroke-linecap="round" stroke-linejoin="round" d="M 20 25.400 C 20.100 24.800 20.400 23.800 20.700 23.200 C 20.900 22.800 21.500 23.400 21.700 23 C 23.200 19.900 25.900 15.300 29.400 13.700 C 29.400 13.700 37.500 17.400 35.200 23.500 C 34.200 26.100 31.600 28 28.300 27.900 C 24.700 27.900 20.200 25.900 20 25.400 Z " transform="matrix(1, 0, 0, 1, 86, 248)"/>
          <path id="Path" fill="#FFFFFF" stroke="#000000" stroke-width="1" stroke-linecap="round" stroke-linejoin="round" d="M 22 22.700 C 22.500 19 24.700 15.900 29.400 13.700 C 29.400 13.700 38 17.600 33.600 22.700 C 29.200 27.800 22 22.700 22 22.700 Z " transform="matrix(1, 0, 0, 1, 86, 248)"/>
          <path id="Path" fill="#FFFFFF" stroke="#000000" stroke-width="1" stroke-linecap="round" stroke-linejoin="round" d="M 0.800 13.100 C 4.900 18.100 13.600 22.800 20.900 25.800 C 20.900 25.800 22.200 22.900 21.900 22.700 C 14.600 19.600 5.600 15 1.400 9.900 L 0.800 13.100 Z " transform="matrix(1, 0, 0, 1, 86, 248)"/>
          <g id="ID0.7930627269670367">
            <g id="Oval">
              <path id="ID0.8306586225517094" fill="#000000" stroke="none" stroke-width="1" d="M 1.100 5.700 C 1.376 5.700 1.626 5.812 1.807 5.993 C 1.988 6.174 2.100 6.424 2.100 6.700 C 2.100 6.976 1.988 7.226 1.807 7.407 C 1.626 7.588 1.376 7.700 1.100 7.700 C 0.824 7.700 0.574 7.588 0.393 7.407 C 0.212 7.226 0.100 6.976 0.100 6.700 C 0.100 6.424 0.212 6.174 0.393 5.993 C 0.574 5.812 0.824 5.700 1.100 5.700 Z " transform="matrix(1, 0, 0, 1, 94, 253)"/>
              <path id="ID0.4946387433446944" fill="#000000" stroke="none" stroke-width="1" d="M 9.200 0.900 C 9.476 0.900 9.726 1.012 9.907 1.193 C 10.088 1.374 10.200 1.624 10.200 1.900 C 10.200 2.176 10.088 2.426 9.907 2.607 C 9.726 2.788 9.476 2.900 9.200 2.900 C 8.924 2.900 8.674 2.788 8.493 2.607 C 8.312 2.426 8.200 2.176 8.200 1.900 C 8.200 1.624 8.312 1.374 8.493 1.193 C 8.674 1.012 8.924 0.900 9.200 0.900 Z " transform="matrix(1, 0, 0, 1, 94, 253)"/>
              <path id="ID0.9649093598127365" fill="#000000" stroke="none" stroke-width="1" d="M 16.600 5.500 C 16.876 5.500 17.126 5.612 17.307 5.793 C 17.488 5.974 17.600 6.224 17.600 6.500 C 17.600 6.776 17.488 7.026 17.307 7.207 C 17.126 7.388 16.876 7.500 16.600 7.500 C 16.324 7.500 16.074 7.388 15.893 7.207 C 15.712 7.026 15.600 6.776 15.600 6.500 C 15.600 6.224 15.712 5.974 15.893 5.793 C 16.074 5.612 16.324 5.500 16.600 5.500 Z " transform="matrix(1, 0, 0, 1, 94, 253)"/>
              <path id="ID0.09903538459911942" fill="#000000" stroke="none" stroke-width="1" d="M 12.600 3.200 C 12.876 3.200 13.126 3.312 13.307 3.493 C 13.488 3.674 13.600 3.924 13.600 4.200 C 13.600 4.476 13.488 4.726 13.307 4.907 C 13.126 5.088 12.876 5.200 12.600 5.200 C 12.324 5.200 12.074 5.088 11.893 4.907 C 11.712 4.726 11.600 4.476 11.600 4.200 C 11.600 3.924 11.712 3.674 11.893 3.493 C 12.074 3.312 12.324 3.200 12.600 3.200 Z " transform="matrix(1, 0, 0, 1, 94, 253)"/>
              <path id="ID0.5135959754697978" fill="#000000" stroke="none" stroke-width="1" d="M 9.700 10.200 C 9.976 10.200 10.226 10.312 10.407 10.493 C 10.588 10.674 10.700 10.924 10.700 11.200 C 10.700 11.476 10.588 11.726 10.407 11.907 C 10.226 12.088 9.976 12.200 9.700 12.200 C 9.424 12.200 9.174 12.088 8.993 11.907 C 8.812 11.726 8.700 11.476 8.700 11.200 C 8.700 10.924 8.812 10.674 8.993 10.493 C 9.174 10.312 9.424 10.200 9.700 10.200 Z " transform="matrix(1, 0, 0, 1, 94, 253)"/>
              <path id="ID0.017954565584659576" fill="#000000" stroke="none" stroke-width="1" d="M 5.200 7.900 C 5.476 7.900 5.726 8.012 5.907 8.193 C 6.088 8.374 6.200 8.624 6.200 8.900 C 6.200 9.176 6.088 9.426 5.907 9.607 C 5.726 9.788 5.476 9.900 5.200 9.900 C 4.924 9.900 4.674 9.788 4.493 9.607 C 4.312 9.426 4.200 9.176 4.200 8.900 C 4.200 8.624 4.312 8.374 4.493 8.193 C 4.674 8.012 4.924 7.900 5.200 7.900 Z " transform="matrix(1, 0, 0, 1, 94, 253)"/>
            </g>
            <g id="Path">
              <path id="ID0.05871972721070051" fill="none" stroke="#FFFFFF" stroke-width="1" d="M 0.200 4.700 C 4.300 3 7 1.400 8 0 " transform="matrix(1, 0, 0, 1, 95, 255)"/>
              <path id="ID0.7169455303810537" fill="none" stroke="#FFFFFF" stroke-width="1" d="M 8.700 9.200 C 11.800 8 14.400 6.600 15.400 4.700 " transform="matrix(1, 0, 0, 1, 95, 255)"/>
              <path id="ID0.9336173618212342" fill="none" stroke="#FFFFFF" stroke-width="1" d="M 4.200 6.800 C 7.800 5 10.900 3.400 11.400 2.300 " transform="matrix(1, 0, 0, 1, 95, 255)"/>
            </g>
          </g>
        </g>
      </g>
      <g id="Group">
        <g id="Path">
          <g id="ID0.15444993553683162">
            <path id="ID0.1706319646909833" fill="#C38F4E" stroke="none" stroke-width="1" d="M 3.700 4.400 C 6.500 0.600 11.500 -1.700 15.400 2.400 C 27.100 14.700 23.100 58.100 14.700 67.400 C 13.800 68.400 8.800 71.200 6.400 68.700 C -1.300 60.700 -1.300 11.300 3.700 4.400 Z " transform="matrix(1, 0, 0, 1, 60, 159)"/>
            <path id="ID0.7300297119654715" fill="none" stroke="#000000" stroke-width="1" stroke-linecap="round" stroke-linejoin="round" d="M 2.700 60 C -1.200 43.100 -0.400 10 3.700 4.400 C 6.500 0.600 11.500 -1.700 15.400 2.400 C 25.500 13.100 23.900 47.100 17.800 62 " transform="matrix(1, 0, 0, 1, 60, 159)"/>
          </g>
          <g id="ID0.004642150830477476">
            <path id="ID0.4228437440469861" fill="#C38F4E" stroke="none" stroke-width="1" d="M 16.700 9.100 L 16.600 10.400 L 12.900 43.700 C 12.700 45.500 12.800 47.400 13.200 49.200 C 13.800 51.800 12.500 54.600 10 55.600 C 10 55.600 9.900 55.600 9.900 55.600 C 6 57.100 2 53.800 2.400 49.700 L 2.800 45.700 C 2.900 44.400 2.900 43.200 2.800 41.900 L 0.400 16.800 C 0.300 13.900 0.700 11.100 1.600 8.400 C 1.600 8.300 1.700 8.200 1.700 8.100 C 2.400 6.300 3.300 4.500 4.400 2.900 C 5.400 1.400 7 0.400 8.800 0.200 C 12.400 -0.300 15.700 2.200 16.200 5.800 L 16.700 9.100 Z " transform="matrix(1, 0, 0, 1, 61, 211)"/>
            <path id="ID0.7458797483704984" fill="none" stroke="#000000" stroke-width="1" stroke-linecap="round" stroke-linejoin="round" d="M 16.600 10.100 L 12.900 43.600 C 12.700 45.400 12.800 47.300 13.200 49.100 " transform="matrix(1, 0, 0, 1, 61, 211)"/>
            <path id="ID0.300518702249974" fill="none" stroke="#000000" stroke-width="1" stroke-linecap="round" stroke-linejoin="round" d="M 2.400 50.600 C 2.400 50.300 2.400 50 2.400 49.700 L 2.800 45.700 C 2.900 44.400 2.900 43.200 2.800 41.900 L 0.400 16.800 C 0.200 13.800 0.700 10.800 1.700 8 " transform="matrix(1, 0, 0, 1, 61, 211)"/>
          </g>
          <g id="ID0.8495975383557379">
            <path id="ID0.8885247884318233" fill="#C38F4E" stroke="none" stroke-width="1" d="M 0.800 4.500 C 3.800 11.800 9.800 17.200 21.400 19 C 24.400 19.300 26.800 18.800 28.100 16.900 C 29.400 15 28.900 12.400 27.300 10.800 C 22.600 6.200 17.200 2.700 11.300 0.100 L 2.300 1.900 C 1 2.200 0.400 3.400 0.800 4.500 Z " transform="matrix(1, 0, 0, 1, 63, 260)"/>
            <path id="ID0.5927016925998032" fill="none" stroke="#000000" stroke-width="1" stroke-linecap="round" stroke-linejoin="round" d="M 0.400 1.900 C 1.900 10.400 9.800 17.200 21.400 19.100 C 24.400 19.400 26.800 18.900 28.100 17 C 29.400 15.100 28.900 12.500 27.300 10.900 C 22.600 6.300 17.200 2.800 11.300 0.200 " transform="matrix(1, 0, 0, 1, 63, 260)"/>
          </g>
        </g>
        <path id="Path" fill="#CCD8FF" stroke="#000000" stroke-width="1" stroke-linecap="round" stroke-linejoin="round" d="M 25.800 0.700 L 2.200 1.800 L 1.200 28.800 C 8.900 31.300 16.700 31.500 24.900 29.100 C 24.300 26.300 24.600 18.200 25.600 18.100 " transform="matrix(1, 0, 0, 1, 58, 155)"/>
        <path id="Path" fill="#333333" stroke="#000000" stroke-width="1" stroke-linecap="round" d="M 2.100 1.700 C -1.200 24.100 1.200 60.300 2.800 61.500 C 8.600 63.700 14.900 64.400 22 63.300 C 22 63.300 27.200 24 25.300 0 L 2.100 1.700 Z " transform="matrix(1, 0, 0, 1, 58, 155)"/>
        <g id="ID0.41312546422705054">
          <path id="Path" fill="#45896D" stroke="#000000" stroke-width="1" stroke-linecap="round" stroke-linejoin="round" d="M 21.500 23.200 C 13.600 20.500 7 15.900 1.400 10 L 0.400 4.200 C 0.300 3.500 1 2.900 1.700 3.200 L 3.800 4.200 C 5.500 1.900 9 -0.300 12.500 0.100 C 17.200 0.500 13.500 3.800 13.500 3.800 L 29.400 13.700 L 28.600 19.500 L 21.900 23.700 " transform="matrix(1, 0, 0, 1, 61, 254)"/>
          <path id="Path" fill="#45896D" stroke="#000000" stroke-width="1" stroke-linecap="round" stroke-linejoin="round" d="M 29.400 13.700 L 27.800 15.300 L 17 7 L 13.500 3.800 L 29.400 13.700 " transform="matrix(1, 0, 0, 1, 61, 254)"/>
          <path id="Path" fill="#45896D" stroke="#000000" stroke-width="1" stroke-linecap="round" stroke-linejoin="round" d="M 25.300 18.300 L 21.900 22.700 C 14.600 20 6.600 15.600 1.300 10.100 L 0.300 4.300 C 0.200 3.600 0.900 3 1.600 3.300 L 3.700 4.300 L 5.600 8.300 C 10.300 12.800 18.500 15.500 25.300 18.300 Z " transform="matrix(1, 0, 0, 1, 61, 254)"/>
          <path id="Path" fill="#FFFFFF" stroke="#000000" stroke-width="1" stroke-linecap="round" stroke-linejoin="round" d="M 20 25.400 C 20.100 24.800 20.400 23.800 20.700 23.200 C 20.900 22.800 21.500 23.400 21.700 23 C 23.200 19.900 25.900 15.300 29.400 13.700 C 29.400 13.700 37.500 17.400 35.200 23.500 C 34.200 26.100 31.600 28 28.300 27.900 C 24.700 27.900 20.200 25.900 20 25.400 Z " transform="matrix(1, 0, 0, 1, 61, 254)"/>
          <path id="Path" fill="#FFFFFF" stroke="#000000" stroke-width="1" stroke-linecap="round" stroke-linejoin="round" d="M 22 22.700 C 22.500 19 24.700 15.900 29.400 13.700 C 29.400 13.700 38 17.600 33.600 22.700 C 29.200 27.800 22 22.700 22 22.700 Z " transform="matrix(1, 0, 0, 1, 61, 254)"/>
          <path id="Path" fill="#FFFFFF" stroke="#000000" stroke-width="1" stroke-linecap="round" stroke-linejoin="round" d="M 0.700 13.200 C 4.800 18.200 13.500 22.900 20.800 25.900 C 20.800 25.900 22.100 23 21.800 22.800 C 14.500 19.700 5.500 15.100 1.300 10 L 0.700 13.200 Z " transform="matrix(1, 0, 0, 1, 61, 254)"/>
          <g id="ID0.49727440578863025">
            <g id="Oval">
              <path id="ID0.7477026665583253" fill="#000000" stroke="none" stroke-width="1" d="M 1.100 5.700 C 1.376 5.700 1.626 5.812 1.807 5.993 C 1.988 6.174 2.100 6.424 2.100 6.700 C 2.100 6.976 1.988 7.226 1.807 7.407 C 1.626 7.588 1.376 7.700 1.100 7.700 C 0.824 7.700 0.574 7.588 0.393 7.407 C 0.212 7.226 0.100 6.976 0.100 6.700 C 0.100 6.424 0.212 6.174 0.393 5.993 C 0.574 5.812 0.824 5.700 1.100 5.700 Z " transform="matrix(1, 0, 0, 1, 69, 259)"/>
              <path id="ID0.11139007704332471" fill="#000000" stroke="none" stroke-width="1" d="M 9.200 0.900 C 9.476 0.900 9.726 1.012 9.907 1.193 C 10.088 1.374 10.200 1.624 10.200 1.900 C 10.200 2.176 10.088 2.426 9.907 2.607 C 9.726 2.788 9.476 2.900 9.200 2.900 C 8.924 2.900 8.674 2.788 8.493 2.607 C 8.312 2.426 8.200 2.176 8.200 1.900 C 8.200 1.624 8.312 1.374 8.493 1.193 C 8.674 1.012 8.924 0.900 9.200 0.900 Z " transform="matrix(1, 0, 0, 1, 69, 259)"/>
              <path id="ID0.7942733075469732" fill="#000000" stroke="none" stroke-width="1" d="M 16.600 5.500 C 16.876 5.500 17.126 5.612 17.307 5.793 C 17.488 5.974 17.600 6.224 17.600 6.500 C 17.600 6.776 17.488 7.026 17.307 7.207 C 17.126 7.388 16.876 7.500 16.600 7.500 C 16.324 7.500 16.074 7.388 15.893 7.207 C 15.712 7.026 15.600 6.776 15.600 6.500 C 15.600 6.224 15.712 5.974 15.893 5.793 C 16.074 5.612 16.324 5.500 16.600 5.500 Z " transform="matrix(1, 0, 0, 1, 69, 259)"/>
              <path id="ID0.5846074833534658" fill="#000000" stroke="none" stroke-width="1" d="M 12.600 3.200 C 12.876 3.200 13.126 3.312 13.307 3.493 C 13.488 3.674 13.600 3.924 13.600 4.200 C 13.600 4.476 13.488 4.726 13.307 4.907 C 13.126 5.088 12.876 5.200 12.600 5.200 C 12.324 5.200 12.074 5.088 11.893 4.907 C 11.712 4.726 11.600 4.476 11.600 4.200 C 11.600 3.924 11.712 3.674 11.893 3.493 C 12.074 3.312 12.324 3.200 12.600 3.200 Z " transform="matrix(1, 0, 0, 1, 69, 259)"/>
              <path id="ID0.7124370001256466" fill="#000000" stroke="none" stroke-width="1" d="M 9.600 10.200 C 9.876 10.200 10.126 10.312 10.307 10.493 C 10.488 10.674 10.600 10.924 10.600 11.200 C 10.600 11.476 10.488 11.726 10.307 11.907 C 10.126 12.088 9.876 12.200 9.600 12.200 C 9.324 12.200 9.074 12.088 8.893 11.907 C 8.712 11.726 8.600 11.476 8.600 11.200 C 8.600 10.924 8.712 10.674 8.893 10.493 C 9.074 10.312 9.324 10.200 9.600 10.200 Z " transform="matrix(1, 0, 0, 1, 69, 259)"/>
              <path id="ID0.057290047872811556" fill="#000000" stroke="none" stroke-width="1" d="M 5.100 7.900 C 5.376 7.900 5.626 8.012 5.807 8.193 C 5.988 8.374 6.100 8.624 6.100 8.900 C 6.100 9.176 5.988 9.426 5.807 9.607 C 5.626 9.788 5.376 9.900 5.100 9.900 C 4.824 9.900 4.574 9.788 4.393 9.607 C 4.212 9.426 4.100 9.176 4.100 8.900 C 4.100 8.624 4.212 8.374 4.393 8.193 C 4.574 8.012 4.824 7.900 5.100 7.900 Z " transform="matrix(1, 0, 0, 1, 69, 259)"/>
            </g>
            <g id="Path">
              <path id="ID0.37760389875620604" fill="none" stroke="#FFFFFF" stroke-width="1" d="M 0.200 4.700 C 4.300 3 7 1.400 8 0 " transform="matrix(1, 0, 0, 1, 70, 261)"/>
              <path id="ID0.9437007992528379" fill="none" stroke="#FFFFFF" stroke-width="1" d="M 8.700 9.200 C 11.800 8 14.400 6.600 15.400 4.700 " transform="matrix(1, 0, 0, 1, 70, 261)"/>
              <path id="ID0.10804931353777647" fill="none" stroke="#FFFFFF" stroke-width="1" d="M 4.200 6.800 C 7.800 5 10.900 3.400 11.400 2.300 " transform="matrix(1, 0, 0, 1, 70, 261)"/>
            </g>
          </g>
        </g>
      </g>
      <path id="Path" fill="#5EBF9A" stroke="#000000" stroke-width="1" stroke-linecap="round" stroke-linejoin="round" d="M 58.700 171.600 C 46.300 149.700 58.900 84.900 63.600 81.500 C 66.900 79.200 70.800 78.800 72.900 78.800 C 73.700 78.800 74.500 79.100 75.100 79.600 C 78 82 87.300 83.400 89.500 80.500 C 89.500 80.500 89.700 80.400 89.900 80.400 C 93 79.600 96.300 80.700 98.300 83.200 C 98.300 83.300 98.400 83.300 98.400 83.300 C 103.300 90.200 106.500 99.400 105.800 106.300 C 103.700 126.400 113 143.500 109.700 168.400 C 108.200 172.900 61.300 176.700 58.700 171.600 Z "/>
      <g id="Group-2">
        <g id="Group">
          <path id="Path" fill="#C38F4E" stroke="none" stroke-width="1" d="M 18.300 20 C 16.100 19.900 15.100 16.700 13.500 15 L 13.100 15.400 C 13 19.100 13.100 22.500 13.600 25.400 C 13.600 25.600 13.700 25.800 13.700 26 C 13.700 27.300 13.100 28.400 11.800 28.700 C 11.400 28.800 11 28.700 10.700 28.500 C 10.700 28.600 10.700 28.700 10.700 28.800 C 10.700 30 9.800 31.100 8.500 31.300 C 7.700 31.400 7.100 30.900 6.800 30.200 C 6.600 29.700 6.300 29.200 6.100 28.600 C 6.100 28.600 6.100 28.600 6.100 28.600 C 5.200 29.700 3.400 29.300 3 27.900 C 2.200 25.400 0.900 20 0.900 17.900 C 0.900 14.300 3 10.300 3.600 9.100 L 3.700 9.600 L 3.800 8.800 L 2.500 3.100 C 5.100 0.400 7.800 -0.300 10.600 3.900 L 10.700 7.100 L 12.500 7.500 L 12.800 8 C 15.400 9.300 16.600 10.900 17.500 14 C 17.500 14 19.700 16.400 20.300 17.700 C 21 19.300 19.100 20.100 18.300 20 Z " transform="matrix(1, 0, 0, 1, 50, 165)"/>
          <g id="Path">
            <path id="ID0.9962845197878778" fill="none" stroke="#000000" stroke-width="1" d="M 12.300 12.100 L 12.200 11.700 C 14 13.300 15 17 17.400 17.100 C 18.200 17.200 20 16.300 19.400 14.800 C 18.900 13.500 16.600 11.100 16.600 11.100 C 15.500 7.300 13.800 5.700 9.800 4.300 L 9.700 1.100 " transform="matrix(1, 0, 0, 1, 51, 168)"/>
            <path id="ID0.46798033080995083" fill="none" stroke="#000000" stroke-width="1" d="M 5.200 25.600 C 5.100 25.600 5.100 25.600 5.200 25.600 C 4.200 26.700 2.500 26.300 2.100 25 C 1.300 22.500 0 17.100 0 15 C 0 10.700 2.900 5.900 2.900 5.900 L 1.600 0.200 " transform="matrix(1, 0, 0, 1, 51, 168)"/>
            <path id="ID0.5170987821184099" fill="none" stroke="#000000" stroke-width="1" d="M 3.800 16.400 C 3.400 19.800 4.200 23.800 5.800 27.200 C 6.100 27.900 6.800 28.400 7.500 28.300 C 8.900 28.200 9.900 26.800 9.600 25.400 " transform="matrix(1, 0, 0, 1, 51, 168)"/>
            <path id="ID0.5360412923619151" fill="none" stroke="#000000" stroke-width="1" d="M 7.400 16 C 7.600 19.100 7.900 22 8.700 24.400 C 9 25.300 9.900 25.900 10.800 25.700 C 12.300 25.400 13 23.900 12.700 22.400 C 12.100 19.400 12.100 15.600 12.200 11.700 " transform="matrix(1, 0, 0, 1, 51, 168)"/>
          </g>
        </g>
        <g id="Group">
          <path id="Shape_70_" fill="#C38F4E" stroke="none" stroke-width="1" d="M 12.100 4 C 14.500 9.400 12.200 18.200 12.100 23.600 C 12 29 10.700 38.900 10.700 38.900 C 10.700 38.900 5.700 42.400 2.600 38.100 C 2.600 38.100 1.600 18.100 1.100 13.500 C 0.600 8.900 1.100 6.100 3 3.400 C 5 1 9.300 -2.300 12.100 4 Z " transform="matrix(1, 0, 0, 1, 50, 130)"/>
          <path id="Shape_69_" fill="none" stroke="#000000" stroke-width="1" stroke-linecap="round" stroke-linejoin="round" d="M 13.100 8.100 C 13.600 13.200 12.200 19.500 12.100 23.700 C 12 29.100 10.700 39.300 10.700 39.300 " transform="matrix(1, 0, 0, 1, 50, 130)"/>
          <path id="Shape_68_" fill="none" stroke="#000000" stroke-width="1" stroke-linecap="round" stroke-linejoin="round" d="M 2.700 38.700 C 1.800 35.900 1.400 18.100 1 13.600 C 0.800 11.200 0.800 9.400 1.100 7.700 " transform="matrix(1, 0, 0, 1, 50, 130)"/>
        </g>
        <g id="Group">
          <path id="Path" fill="#C38F4E" stroke="none" stroke-width="1" d="M 18.900 10.500 C 16.500 2.700 11.800 -2.400 8.400 3.500 C 5.500 8.700 1.100 31 1.300 46.100 C 1.300 47 1.200 48.200 1.200 49 C 1.300 51.400 -0.400 56.500 3.900 57.100 C 5.200 57.300 11.500 57.900 12.900 55.900 C 14 54.400 14.700 48.400 14.700 46.900 C 14.700 33.100 20.700 16.200 18.900 10.500 Z " transform="matrix(1, 0, 0, 1, 50, 83)"/>
          <path id="Path" fill="none" stroke="#000000" stroke-width="1" stroke-linecap="round" stroke-linejoin="round" d="M 11.900 0.900 C 10.700 0.800 9.500 1.600 8.400 3.500 C 5.500 8.700 1.100 31 1.300 46.100 C 1.300 47 1.200 48.200 1.200 49 C 1.200 50.500 0.600 53 1.100 54.800 " transform="matrix(1, 0, 0, 1, 50, 83)"/>
          <path id="Path" fill="none" stroke="#000000" stroke-width="1" stroke-linecap="round" stroke-linejoin="round" d="M 13.100 55.700 C 13.700 51.500 14.700 44.800 14.700 43.300 C 16 29.100 20.700 16.100 18.900 10.500 C 17.300 5.300 14.700 1.300 12.100 0.900 " transform="matrix(1, 0, 0, 1, 50, 83)"/>
        </g>
        <path id="Path" fill="#5EBF9A" stroke="#000000" stroke-width="1" stroke-linecap="round" stroke-linejoin="round" d="M 21.600 32.300 C 21.600 32.300 21.600 32.300 21.600 32.300 C 19.500 52.300 16.800 71.700 13.500 90.300 L 3.500 92.100 C 0.600 70.600 -0.200 49.700 1.900 29.400 C 2 22.800 4 16.300 6.100 10.200 C 7.700 5.700 10.700 0.800 14.600 0.400 C 18 0.100 21.500 5 22 9 C 23 16.600 23.100 24.700 21.600 32.300 Z " transform="matrix(1, 0, 0, 1, 48, 81)"/>
      </g>
      <g id="Group">
        <g id="ID0.9447600343264639">
          <path id="ID0.2304357774555683_8_" fill="#C38F4E" stroke="#000000" stroke-width="1" stroke-linecap="round" stroke-linejoin="round" d="M 30.500 0.500 C 23.800 0.900 14.800 3.600 10.100 8.600 C 5.400 13.600 4.400 20.700 4.400 28.300 C 4.400 35.900 7.700 42.600 12.100 48 C 16 52.900 21.700 57.100 27.800 57.600 C 35 58.200 44.800 57.100 48.300 50.900 C 54 40.400 54.600 29.400 54.700 17.700 C 54.800 13.300 53.400 9 50.500 5.700 C 49.400 4.400 48.300 3.400 47.400 3 C 41.800 0.400 36.800 0 30.500 0.500 Z " transform="matrix(1, 0, 0, 1, 58, 12)"/>
          <g id="ID0.0729370559565723">
            <path id="Path" fill="#FFFFFF" stroke="#000000" stroke-width="1" stroke-linecap="round" stroke-linejoin="round" d="M 15.400 6.200 C 15.500 8.600 14.600 10 13 10.700 C 11.900 11.200 10.600 11.400 9 11.500 C 6.900 11.600 5.200 11.500 4 11 C 2.700 10.500 1.900 9.700 1.400 8.400 C 1.400 8.400 1.400 8.300 1.400 8.300 C 1.200 7.700 1 7 0.900 6.100 C 0.500 2 4.100 0.200 8 0.200 C 8.500 0.200 9.100 0.200 9.600 0.200 L 9.700 0.200 C 12.800 0.600 15.200 1.500 15.400 6.200 Z " transform="matrix(1, 0, 0, 1, 76, 35)"/>
            <path id="Path" fill="#000000" stroke="none" stroke-width="1" d="M 12 4.700 C 12.100 8 9.700 8.900 6.200 9.100 C 4.100 9.200 2.600 9.100 1.500 8.600 C 1.500 8.600 1.500 8.500 1.500 8.500 C 1.300 7.900 1.100 7.200 1 6.300 C 0.600 2.200 4.200 0.400 8.100 0.400 C 8.600 0.400 9.200 0.400 9.700 0.400 C 11 1 11.900 2.200 12 4.700 Z " transform="matrix(1, 0, 0, 1, 76, 35)"/>
            <path id="Oval" fill="#FFFFFF" stroke="none" stroke-width="1" d="M 4 2.400 C 4.359 2.400 4.684 2.579 4.919 2.869 C 5.154 3.159 5.300 3.559 5.300 4 C 5.300 4.441 5.154 4.841 4.919 5.131 C 4.684 5.421 4.359 5.600 4 5.600 C 3.641 5.600 3.316 5.421 3.081 5.131 C 2.846 4.841 2.700 4.441 2.700 4 C 2.700 3.559 2.846 3.159 3.081 2.869 C 3.316 2.579 3.641 2.400 4 2.400 Z " transform="matrix(1, 0, 0, 1, 76, 35)"/>
          </g>
          <g id="ID0.5768705462105572">
            <path id="Path" fill="#FFFFFF" stroke="#000000" stroke-width="1" stroke-linecap="round" stroke-linejoin="round" d="M 10.600 6.100 C 10.700 10.100 8.900 11.100 6.200 11.300 C 3.100 11.600 1.600 10.700 0.900 8.300 C 0.900 8.300 0.900 8.200 0.900 8.200 C 0.700 7.600 0.600 6.900 0.600 6.100 C 0.300 2 2.800 0.300 5.500 0.300 C 5.900 0.300 6.300 0.300 6.600 0.300 L 6.700 0.300 C 8.800 0.600 10.500 1.500 10.600 6.100 Z " transform="matrix(1, 0, 0, 1, 100, 35)"/>
            <path id="Path" fill="#000000" stroke="none" stroke-width="1" d="M 8.300 4.600 C 8.400 7.900 6.700 8.700 4.300 8.900 C 2.900 9 1.800 8.900 1 8.500 C 1 8.500 1 8.400 1 8.400 C 0.800 7.800 0.700 7.100 0.700 6.300 C 0.400 2.200 2.900 0.500 5.600 0.500 C 6 0.500 6.400 0.500 6.700 0.500 C 7.600 1 8.200 2.200 8.300 4.600 Z " transform="matrix(1, 0, 0, 1, 100, 35)"/>
            <path id="Oval" fill="#FFFFFF" stroke="none" stroke-width="1" d="M 2.900 2.400 C 3.231 2.400 3.531 2.579 3.748 2.869 C 3.966 3.159 4.100 3.559 4.100 4 C 4.100 4.441 3.966 4.841 3.748 5.131 C 3.531 5.421 3.231 5.600 2.900 5.600 C 2.569 5.600 2.269 5.421 2.052 5.131 C 1.834 4.841 1.700 4.441 1.700 4 C 1.700 3.559 1.834 3.159 2.052 2.869 C 2.269 2.579 2.569 2.400 2.900 2.400 Z " transform="matrix(1, 0, 0, 1, 100, 35)"/>
          </g>
          <path id="Path" fill="none" stroke="#000000" stroke-width="0.8715" stroke-linecap="round" stroke-linejoin="round" d="M 37.300 49.400 C 33.700 49.200 29.100 47.500 26.400 45.100 " transform="matrix(1, 0, 0, 1, 58, 12)"/>
          <path id="Path" fill="#000000" stroke="none" stroke-width="1" d="M 32.100 20.800 C 26.200 20.200 20.900 21 16.200 23.400 C 14.700 21.400 25.500 17.400 30 18.200 C 33.800 18.800 32.400 20.600 32.100 20.800 Z " transform="matrix(1, 0, 0, 1, 58, 12)"/>
          <path id="Path" fill="#000000" stroke="none" stroke-width="1" d="M 41.600 21.300 C 46.500 20.700 49.300 20 53.700 22.100 C 53.600 19.100 47.100 17.900 43.400 18.700 C 40.300 19.300 41.400 21.100 41.600 21.300 Z " transform="matrix(1, 0, 0, 1, 58, 12)"/>
          <g id="Path">
            <path id="ID0.14221111638471484" fill="none" stroke="#000000" stroke-width="1" d="M 2.800 0.300 L 3.500 6.200 " transform="matrix(1, 0, 0, 1, 94, 41)"/>
            <path id="ID0.83767214929685" fill="none" stroke="#000000" stroke-width="0.9916" d="M 2.500 6 C 4.300 5.900 5.900 7.400 5.900 9.200 C 6 11.100 4.500 12.500 2.700 12.700 C 1.900 12.800 1.200 12.600 0.500 12.300 " transform="matrix(1, 0, 0, 1, 94, 41)"/>
          </g>
          <path id="Path" fill="#C38F4E" stroke="#000000" stroke-width="1" stroke-linecap="round" stroke-linejoin="round" d="M 6.800 24.300 C 5.800 23.700 4.400 23.400 2.600 24.100 C -2.400 26 1.600 35 1.600 35 C 1.600 35 0.900 38.500 4.500 39.300 C 8.100 40.100 7.700 38.900 7.700 38.900 " transform="matrix(1, 0, 0, 1, 58, 12)"/>
        </g>
        <g id="Path">
          <path id="ID0.8969994448125362" fill="#000000" stroke="#000000" stroke-width="1" d="M 116.100 44.100 C 116.200 40.100 114.200 38.300 113.100 36.100 C 113.700 39.200 112 50 112 50 C 111.400 49.900 110.900 49.300 110.400 48.200 C 111.500 42.300 111.700 36.200 111.800 29.900 C 112.700 30.300 113.600 30.800 114.300 31.200 C 114.800 31.500 115.400 31.800 116.100 32 C 116.900 35.300 117.300 39.200 116.100 44.100 Z " transform="matrix(1, 0, 0, 1, 1, 0)"/>
          <path id="ID0.19067990500479937" fill="#000000" stroke="#000000" stroke-width="1" d="M 64.200 13.300 L 60 24 C 60 24 54.400 20.400 51.500 24 C 46.700 29.800 50.600 49.400 49 57.500 C 45.600 74.700 34.300 83.800 15.700 84.800 C 24.100 82.400 30.800 79.600 32.300 75.700 C 19.200 81.400 9.700 81.700 2.700 78.200 C 7.500 79.200 12 79.100 16.200 77.800 C 9.400 78.400 4.100 76.900 0.300 73.200 C 1.500 73.200 2.800 73.100 4.200 72.900 C 24.200 70 36.400 53.300 37.800 33.100 C 38.200 27.400 38.900 21 40.400 15.600 C 43.400 4.800 57.900 2.700 63.600 12.300 C 64 12.900 64.200 13.300 64.200 13.300 Z " transform="matrix(1, 0, 0, 1, 1, 0)"/>
          <g id="ID0.7652147468179464">
            <path id="ID0.8356353030540049" fill="#000000" stroke="#000000" stroke-width="1" d="M 12.300 61 C 12.400 61.500 0.900 47.100 0.900 34.600 C 0.900 31.400 1.300 28.300 2 25.100 C 4.400 16.700 5.500 12.600 12.700 11.400 L 15.600 21.600 C 15.700 31.400 15.300 42.500 13.700 48.400 C 13.300 47.300 12.800 46.600 12.200 46.100 C 12.200 46.100 12.100 51 11.600 53.500 C 11.100 56.300 11.900 59.300 12.300 61 Z " transform="matrix(1, 0, 0, 1, 54, 0)"/>
            <path id="ID0.3905480345711112" fill="#000000" stroke="#000000" stroke-width="1" d="M 9.500 15 C 9.200 14 8.400 12.800 7.500 11.600 C 7.400 11.400 7.600 11.200 7.800 11.300 C 9.100 11.800 10.300 12.500 11.200 13.300 C 10.200 11.900 9.800 10.300 9.700 8.700 C 9.700 8.500 10 8.400 10.100 8.600 C 10.700 9.400 11.400 10.100 12.200 10.600 C 13.900 7 17.200 3.100 23.600 1.600 C 34.600 -1.100 65.700 3.100 64.500 27.600 C 64.400 29.500 64.900 31.300 66.100 32.700 L 66.100 32.800 C 64.700 32.600 62.500 32 61.300 31.300 C 55.300 27.600 45.300 25.900 38.200 25.800 C 28.700 25.700 19.700 24.700 11.100 21.700 " transform="matrix(1, 0, 0, 1, 54, 0)"/>
          </g>
        </g>
      </g>
    </g>
  </g>
</svg>