<svg version="1.1" width="213" height="86" viewBox="-1 -1 213 86" xmlns="http://www.w3.org/2000/svg" xmlns:xlink="http://www.w3.org/1999/xlink">
  <!-- Exported by Scratch - http://scratch.mit.edu/ -->
  <g id="ID0.3360874820500612" transform="matrix(1, 0, 0, 1, -0.65, -0.8)">
    <g id="Page-1">
      <g id="owl-c-[animals,bird,robert-hunter]">
        <g id="Group-217">
          <g id="Group-11">
            <path id="Fill-1" fill="#E09D73" stroke="none" stroke-width="1" d="M 13.944 4.815 L 0.892 4.815 C 0.892 4.815 3.770 1.834 7.769 0.493 C 7.769 0.493 9.351 2.065 13.592 2.065 C 13.592 2.065 13.944 2.923 13.944 4.815 " transform="matrix(-1, 0, 0, 1, 121, 81)"/>
            <path id="Stroke-3" fill="none" stroke="#362F52" stroke-width="0.5" d="M 13.944 4.815 L 0.892 4.815 C 0.892 4.815 3.595 1.791 7.769 0.493 C 7.769 0.493 9.351 2.065 13.592 2.065 C 13.592 2.065 13.944 2.923 13.944 4.815 Z " transform="matrix(-1, 0, 0, 1, 121, 81)"/>
          </g>
          <g id="Group-10">
            <path id="Fill-5" fill="#A77E76" stroke="none" stroke-width="1" d="M 85.755 68.044 C 85.755 68.044 88.128 44.946 101.268 30.955 C 101.268 30.955 65.781 10.101 41.786 2.314 C 41.786 2.314 20.494 -5.077 0.498 14.457 C 0.498 14.457 8.057 14.237 15.923 14.457 C 15.923 14.457 6.518 23.828 7.573 36.674 C 7.573 36.674 14.328 30.612 22.427 24.707 C 22.427 24.707 17.945 36.587 26.426 46.530 C 26.426 46.530 28.843 44.594 31.392 42.790 C 31.392 42.790 34.073 47.365 39.742 50.841 L 40.577 47.190 C 40.577 47.190 45.412 53.173 51.652 55.725 L 52.662 53.481 C 52.662 53.481 63.649 61.356 85.755 68.044 " transform="matrix(-1, 0, 0, 1, 213, 4)"/>
            <path id="Fill-7" fill="#784451" stroke="none" stroke-width="1" d="M 85.724 68.044 L 85.979 66.234 C 75.722 62.487 59.385 53.249 56.126 48.510 C 56.126 48.510 53.736 50.138 52.641 53.514 C 52.641 53.514 65.553 62.149 85.724 68.044 " transform="matrix(-1, 0, 0, 1, 213, 4)"/>
            <path id="Fill-9" fill="#784451" stroke="none" stroke-width="1" d="M 40.603 46.519 C 40.603 46.519 36.383 44.195 35.238 40.775 C 35.238 40.775 32.609 41.638 31.370 42.823 C 30.975 43.021 36.416 49.227 39.712 50.842 C 39.932 50.446 40.603 46.519 40.603 46.519 " transform="matrix(-1, 0, 0, 1, 213, 4)"/>
            <path id="Fill-11" fill="#784451" stroke="none" stroke-width="1" d="M 9.240 35.189 C 9.300 35.111 10.575 22.723 16.344 14.275 C 16.344 14.275 6.472 23.333 7.542 36.674 C 7.542 36.674 8.977 35.525 9.240 35.189 " transform="matrix(-1, 0, 0, 1, 213, 4)"/>
            <path id="Fill-13" fill="#784451" stroke="none" stroke-width="1" d="M 53.127 52.172 C 50.646 50.445 46.363 47.674 42.618 41.914 C 42.618 41.914 41.295 43.234 40.499 46.982 C 40.372 47.476 46.008 53.441 51.630 55.758 C 51.738 55.803 53.127 52.172 53.127 52.172 " transform="matrix(-1, 0, 0, 1, 213, 4)"/>
            <path id="Fill-15" fill="#784451" stroke="none" stroke-width="1" d="M 12.794 5.549 C 12.866 5.495 5.334 9.260 0.588 14.341 C 0.476 14.490 2.468 14.423 2.468 14.423 C 2.468 14.423 4.725 11.586 12.794 5.549 " transform="matrix(-1, 0, 0, 1, 213, 4)"/>
            <path id="Fill-17" fill="#784451" stroke="none" stroke-width="1" d="M 29.201 44.367 C 23.215 36.086 24.979 23.745 26.583 22.123 C 26.898 21.805 23.133 23.778 22.405 24.740 C 21.496 25.942 19.132 39.698 26.326 46.448 C 26.570 46.578 28.947 44.556 29.201 44.367 " transform="matrix(-1, 0, 0, 1, 213, 4)"/>
            <path id="Stroke-19" fill="none" stroke="#362F52" stroke-width="0.5" d="M 85.724 68.044 C 85.724 68.044 88.097 44.946 101.238 30.955 C 101.238 30.955 65.751 10.101 41.756 2.314 C 41.756 2.314 20.463 -5.077 0.467 14.457 C 0.467 14.457 8.026 14.237 15.892 14.457 C 15.892 14.457 6.488 23.828 7.543 36.674 C 7.543 36.674 14.298 30.612 22.397 24.707 C 22.397 24.707 17.914 36.587 26.396 46.530 C 26.396 46.530 28.813 44.594 31.362 42.790 C 31.362 42.790 34.043 47.365 39.712 50.841 L 40.547 47.190 C 40.547 47.190 45.381 53.173 51.622 55.725 L 52.632 53.481 C 52.632 53.481 63.619 61.356 85.724 68.044 Z " transform="matrix(-1, 0, 0, 1, 213, 4)"/>
            <path id="Fill-21" fill="#362F52" stroke="none" stroke-width="1" d="M 87.131 40.106 C 87.131 40.106 86.274 39.460 84.775 38.330 C 83.271 37.206 81.102 35.630 78.487 33.756 C 75.872 31.881 72.787 29.742 69.452 27.497 C 66.116 25.252 62.512 22.926 58.840 20.715 C 55.175 18.492 51.442 16.377 47.843 14.594 C 44.247 12.811 40.794 11.326 37.720 10.396 C 36.185 9.930 34.750 9.592 33.460 9.408 C 32.171 9.223 31.028 9.192 30.096 9.279 C 29.163 9.369 28.453 9.578 27.980 9.746 C 27.517 9.938 27.275 10.057 27.275 10.057 C 27.275 10.057 27.514 9.934 27.974 9.731 C 28.444 9.553 29.153 9.328 30.090 9.217 C 31.026 9.110 32.176 9.117 33.478 9.276 C 34.780 9.432 36.232 9.741 37.779 10.196 C 40.877 11.102 44.371 12.529 47.985 14.306 C 51.602 16.081 55.351 18.185 59.030 20.399 C 62.701 22.629 66.300 24.971 69.631 27.232 C 72.962 29.491 76.010 31.687 78.608 33.588 C 81.206 35.489 83.327 37.132 84.812 38.281 C 86.287 39.443 87.131 40.106 87.131 40.106 " transform="matrix(-1, 0, 0, 1, 213, 4)"/>
            <path id="Fill-23" fill="#362F52" stroke="none" stroke-width="1" d="M 40.362 47.150 C 40.362 47.150 40.405 46.888 40.497 46.505 C 40.584 46.120 40.730 45.615 40.899 45.118 C 40.995 44.874 41.076 44.626 41.179 44.402 C 41.284 44.180 41.372 43.970 41.465 43.797 C 41.662 43.460 41.793 43.234 41.793 43.234 L 41.517 43.822 C 41.440 44.000 41.372 44.217 41.288 44.444 C 41.207 44.672 41.148 44.925 41.075 45.172 C 40.953 45.674 40.855 46.180 40.803 46.563 C 40.746 46.945 40.728 47.199 40.728 47.199 L 40.362 47.150 Z " transform="matrix(-1, 0, 0, 1, 213, 4)"/>
            <path id="Fill-25" fill="#362F52" stroke="none" stroke-width="1" d="M 21.940 24.849 C 21.940 24.849 22.035 24.776 22.203 24.650 C 22.371 24.522 22.615 24.347 22.911 24.145 C 23.500 23.735 24.314 23.230 25.152 22.772 C 25.582 22.562 25.994 22.321 26.409 22.151 C 26.615 22.063 26.813 21.978 27.002 21.897 C 27.191 21.820 27.364 21.732 27.537 21.684 C 28.216 21.462 28.669 21.314 28.669 21.314 C 28.669 21.314 28.225 21.483 27.559 21.737 C 27.389 21.793 27.221 21.890 27.036 21.976 C 26.853 22.065 26.660 22.159 26.459 22.256 C 26.058 22.444 25.658 22.705 25.244 22.933 C 24.435 23.427 23.655 23.964 23.094 24.398 C 22.525 24.823 22.174 25.135 22.174 25.135 L 21.940 24.849 Z " transform="matrix(-1, 0, 0, 1, 213, 4)"/>
            <path id="Fill-27" fill="#362F52" stroke="none" stroke-width="1" d="M 21.874 38.675 C 21.874 38.674 21.927 38.297 22.050 37.744 C 22.165 37.189 22.361 36.458 22.590 35.739 C 22.722 35.386 22.832 35.025 22.974 34.702 C 23.045 34.539 23.114 34.383 23.179 34.235 C 23.248 34.089 23.297 33.943 23.370 33.822 C 23.643 33.329 23.826 33.001 23.826 33.001 L 23.423 33.846 C 23.357 33.970 23.317 34.119 23.258 34.268 C 23.202 34.419 23.144 34.577 23.084 34.742 C 22.963 35.071 22.876 35.436 22.768 35.792 C 22.584 36.516 22.437 37.247 22.357 37.800 C 22.269 38.352 22.240 38.721 22.240 38.720 L 21.874 38.675 Z " transform="matrix(-1, 0, 0, 1, 213, 4)"/>
            <path id="Fill-29" fill="#362F52" stroke="none" stroke-width="1" d="M 24.364 44.037 C 24.364 44.037 24.401 43.708 24.494 43.225 C 24.579 42.741 24.730 42.104 24.910 41.475 C 25.015 41.165 25.102 40.850 25.215 40.566 C 25.273 40.424 25.328 40.286 25.381 40.156 C 25.436 40.028 25.476 39.901 25.536 39.794 C 25.761 39.361 25.911 39.073 25.911 39.073 C 25.911 39.073 25.782 39.370 25.589 39.816 C 25.538 39.927 25.506 40.056 25.461 40.187 C 25.418 40.319 25.373 40.458 25.326 40.603 C 25.234 40.891 25.170 41.210 25.089 41.521 C 24.956 42.154 24.852 42.791 24.802 43.271 C 24.744 43.751 24.731 44.071 24.731 44.071 L 24.364 44.037 Z " transform="matrix(-1, 0, 0, 1, 213, 4)"/>
            <path id="Fill-31" fill="#362F52" stroke="none" stroke-width="1" d="M 21.071 31.027 C 21.071 31.027 21.191 30.718 21.403 30.276 C 21.608 29.828 21.915 29.250 22.248 28.687 C 22.429 28.415 22.592 28.132 22.774 27.886 C 22.865 27.763 22.954 27.644 23.038 27.532 C 23.124 27.421 23.195 27.309 23.279 27.220 C 23.607 26.859 23.826 26.617 23.826 26.617 C 23.826 26.617 23.625 26.873 23.325 27.255 C 23.248 27.349 23.185 27.466 23.107 27.582 C 23.032 27.698 22.953 27.822 22.872 27.949 C 22.710 28.205 22.567 28.497 22.410 28.778 C 22.121 29.356 21.860 29.946 21.689 30.398 C 21.512 30.848 21.418 31.153 21.418 31.153 L 21.071 31.027 Z " transform="matrix(-1, 0, 0, 1, 213, 4)"/>
            <path id="Fill-33" fill="#362F52" stroke="none" stroke-width="1" d="M 31.203 42.691 C 31.203 42.691 31.439 42.519 31.807 42.292 C 32.173 42.060 32.677 41.779 33.192 41.524 C 33.457 41.409 33.712 41.277 33.965 41.184 C 34.091 41.137 34.213 41.092 34.328 41.049 C 34.445 41.008 34.550 40.958 34.656 40.935 C 35.070 40.822 35.346 40.747 35.346 40.747 C 35.346 40.747 35.078 40.844 34.675 40.989 C 34.574 41.020 34.472 41.079 34.360 41.128 C 34.250 41.180 34.133 41.234 34.013 41.291 C 33.771 41.403 33.529 41.554 33.280 41.688 C 32.793 41.979 32.322 42.295 31.983 42.550 C 31.640 42.801 31.428 42.984 31.428 42.984 L 31.203 42.691 Z " transform="matrix(-1, 0, 0, 1, 213, 4)"/>
            <path id="Fill-35" fill="#362F52" stroke="none" stroke-width="1" d="M 45.497 52.056 C 45.497 52.056 45.535 51.732 45.629 51.257 C 45.716 50.781 45.867 50.153 46.047 49.536 C 46.152 49.231 46.239 48.921 46.352 48.641 C 46.409 48.503 46.464 48.367 46.517 48.239 C 46.573 48.113 46.612 47.989 46.672 47.884 C 46.895 47.458 47.045 47.175 47.045 47.175 C 47.045 47.175 46.916 47.468 46.724 47.906 C 46.673 48.014 46.643 48.141 46.597 48.270 C 46.554 48.400 46.509 48.537 46.463 48.679 C 46.371 48.963 46.307 49.276 46.226 49.582 C 46.092 50.205 45.988 50.831 45.937 51.304 C 45.879 51.777 45.864 52.090 45.864 52.090 L 45.497 52.056 Z " transform="matrix(-1, 0, 0, 1, 213, 4)"/>
            <path id="Fill-37" fill="#362F52" stroke="none" stroke-width="1" d="M 60.940 58.334 C 60.940 58.334 60.946 58.260 60.957 58.132 C 60.968 58.000 60.990 57.816 61.023 57.597 C 61.049 57.377 61.105 57.124 61.153 56.851 C 61.219 56.584 61.278 56.295 61.363 56.013 C 61.459 55.734 61.523 55.447 61.638 55.195 C 61.747 54.942 61.826 54.698 61.932 54.505 C 62.138 54.118 62.274 53.859 62.274 53.859 C 62.274 53.859 62.159 54.127 61.985 54.528 C 61.895 54.726 61.836 54.976 61.748 55.233 C 61.656 55.488 61.614 55.778 61.543 56.057 C 61.480 56.340 61.446 56.628 61.401 56.894 C 61.377 57.163 61.340 57.414 61.332 57.629 C 61.317 57.845 61.311 58.023 61.310 58.147 C 61.310 58.273 61.309 58.345 61.309 58.345 L 60.940 58.334 Z " transform="matrix(-1, 0, 0, 1, 213, 4)"/>
            <path id="Fill-39" fill="#362F52" stroke="none" stroke-width="1" d="M 56.338 55.872 C 56.338 55.872 56.376 55.549 56.470 55.074 C 56.556 54.597 56.708 53.970 56.888 53.353 C 56.993 53.047 57.080 52.738 57.193 52.458 C 57.250 52.319 57.305 52.184 57.358 52.056 C 57.413 51.930 57.453 51.806 57.513 51.701 C 57.736 51.275 57.885 50.992 57.885 50.992 C 57.885 50.992 57.757 51.285 57.565 51.723 C 57.514 51.831 57.484 51.958 57.438 52.087 C 57.395 52.217 57.350 52.354 57.304 52.496 C 57.212 52.780 57.148 53.093 57.066 53.399 C 56.933 54.021 56.829 54.648 56.778 55.121 C 56.719 55.594 56.705 55.907 56.705 55.907 L 56.338 55.872 Z " transform="matrix(-1, 0, 0, 1, 213, 4)"/>
            <path id="Fill-41" fill="#362F52" stroke="none" stroke-width="1" d="M 66.535 61.093 C 66.535 61.093 66.529 61.035 66.526 60.916 C 66.520 60.798 66.526 60.638 66.534 60.445 C 66.535 60.349 66.552 60.246 66.562 60.137 C 66.576 60.029 66.580 59.913 66.607 59.797 C 66.654 59.563 66.688 59.311 66.767 59.070 C 66.833 58.825 66.905 58.584 67.002 58.368 C 67.091 58.149 67.162 57.942 67.261 57.781 C 67.439 57.451 67.557 57.231 67.557 57.231 C 67.557 57.231 67.460 57.460 67.314 57.804 C 67.232 57.971 67.179 58.184 67.112 58.405 C 67.037 58.625 66.989 58.867 66.947 59.110 C 66.892 59.350 66.881 59.597 66.857 59.825 C 66.842 59.939 66.849 60.050 66.845 60.155 C 66.845 60.260 66.838 60.358 66.845 60.449 C 66.855 60.631 66.863 60.782 66.878 60.882 C 66.888 60.981 66.901 61.046 66.901 61.046 L 66.535 61.093 Z " transform="matrix(-1, 0, 0, 1, 213, 4)"/>
            <path id="Fill-43" fill="#362F52" stroke="none" stroke-width="1" d="M 34.882 47.226 C 34.882 47.226 34.935 47.016 35.035 46.710 C 35.130 46.403 35.282 46.003 35.447 45.609 C 35.541 45.416 35.625 45.221 35.719 45.044 C 35.819 44.871 35.905 44.706 35.989 44.571 C 36.171 44.310 36.293 44.136 36.293 44.136 C 36.293 44.136 36.191 44.321 36.040 44.599 C 35.971 44.741 35.904 44.913 35.825 45.093 C 35.752 45.276 35.690 45.477 35.620 45.675 C 35.368 46.479 35.244 47.301 35.244 47.302 L 34.882 47.226 Z " transform="matrix(-1, 0, 0, 1, 213, 4)"/>
            <path id="Fill-45" fill="#362F52" stroke="none" stroke-width="1" d="M 72.066 63.345 C 72.066 63.345 72.070 63.136 72.100 62.828 C 72.125 62.521 72.182 62.113 72.259 61.711 C 72.307 61.511 72.342 61.309 72.397 61.125 C 72.455 60.941 72.500 60.769 72.553 60.626 C 72.669 60.343 72.746 60.155 72.746 60.155 C 72.746 60.155 72.691 60.350 72.609 60.642 C 72.572 60.789 72.548 60.965 72.512 61.150 C 72.478 61.335 72.466 61.537 72.441 61.737 C 72.371 62.542 72.435 63.336 72.435 63.336 L 72.066 63.345 Z " transform="matrix(-1, 0, 0, 1, 213, 4)"/>
            <path id="Fill-47" fill="#362F52" stroke="none" stroke-width="1" d="M 76.963 65.285 C 76.963 65.285 76.999 64.673 77.121 64.085 C 77.183 63.789 77.267 63.500 77.342 63.288 C 77.430 63.082 77.488 62.944 77.488 62.944 C 77.488 62.944 77.452 63.088 77.397 63.303 C 77.357 63.522 77.320 63.814 77.304 64.108 C 77.276 64.699 77.332 65.277 77.332 65.277 L 76.963 65.285 Z " transform="matrix(-1, 0, 0, 1, 213, 4)"/>
            <path id="Fill-49" fill="#362F52" stroke="none" stroke-width="1" d="M 81.198 66.723 C 81.198 66.723 81.199 66.631 81.201 66.495 C 81.206 66.356 81.211 66.173 81.237 65.990 C 81.249 65.810 81.285 65.630 81.325 65.498 C 81.359 65.368 81.381 65.281 81.381 65.281 C 81.381 65.281 81.381 65.371 81.383 65.506 C 81.377 65.638 81.388 65.813 81.421 65.988 C 81.442 66.162 81.482 66.333 81.511 66.460 C 81.542 66.589 81.563 66.674 81.563 66.674 L 81.198 66.723 Z " transform="matrix(-1, 0, 0, 1, 213, 4)"/>
            <path id="Fill-51" fill="#362F52" stroke="none" stroke-width="1" d="M 7.575 31.233 C 7.575 31.233 7.695 30.924 7.907 30.481 C 8.112 30.034 8.419 29.455 8.752 28.893 C 8.932 28.620 9.096 28.337 9.278 28.091 C 9.369 27.968 9.458 27.849 9.542 27.737 C 9.628 27.627 9.699 27.514 9.783 27.425 C 10.111 27.064 10.329 26.823 10.329 26.823 C 10.329 26.823 10.129 27.078 9.829 27.460 C 9.751 27.554 9.689 27.671 9.611 27.787 C 9.536 27.903 9.457 28.027 9.375 28.155 C 9.214 28.410 9.071 28.702 8.913 28.983 C 8.624 29.561 8.363 30.151 8.193 30.603 C 8.015 31.053 7.922 31.358 7.922 31.358 L 7.575 31.233 Z " transform="matrix(-1, 0, 0, 1, 213, 4)"/>
            <path id="Fill-53" fill="#362F52" stroke="none" stroke-width="1" d="M 9.446 24.260 C 9.446 24.260 9.600 24.043 9.851 23.737 C 9.973 23.581 10.125 23.407 10.285 23.220 C 10.446 23.032 10.631 22.844 10.808 22.650 C 10.997 22.467 11.183 22.281 11.365 22.115 C 11.555 21.957 11.728 21.806 11.881 21.683 C 12.205 21.462 12.421 21.314 12.421 21.314 C 12.421 21.314 12.220 21.479 11.918 21.728 C 11.777 21.863 11.618 22.027 11.447 22.199 C 11.282 22.378 11.115 22.577 10.946 22.773 C 10.788 22.980 10.623 23.180 10.482 23.378 C 10.341 23.576 10.207 23.759 10.102 23.921 C 9.884 24.243 9.754 24.465 9.754 24.465 L 9.446 24.260 Z " transform="matrix(-1, 0, 0, 1, 213, 4)"/>
            <path id="Fill-55" fill="#362F52" stroke="none" stroke-width="1" d="M 52.399 53.531 C 52.399 53.531 52.524 53.230 52.746 52.799 C 52.959 52.365 53.278 51.804 53.620 51.259 C 53.806 50.995 53.974 50.722 54.161 50.484 C 54.254 50.366 54.344 50.252 54.429 50.143 C 54.518 50.037 54.590 49.928 54.676 49.843 C 55.008 49.496 55.229 49.265 55.229 49.265 C 55.229 49.265 55.026 49.511 54.721 49.880 C 54.642 49.970 54.577 50.084 54.498 50.195 C 54.421 50.308 54.340 50.427 54.256 50.550 C 54.090 50.798 53.942 51.082 53.780 51.354 C 53.480 51.915 53.208 52.489 53.028 52.929 C 52.842 53.368 52.742 53.666 52.742 53.666 L 52.399 53.531 Z " transform="matrix(-1, 0, 0, 1, 213, 4)"/>
          </g>
          <g id="Group-9">
            <path id="Fill-57" fill="#C7B4B0" stroke="none" stroke-width="1" d="M 46.508 53.573 C 46.508 53.573 7.245 58.193 1.751 31.795 C -2.765 10.094 5.111 4.342 6.146 2.626 C 7.028 1.163 38.008 0.030 38.008 0.030 C 38.008 0.030 48.970 17.365 46.508 53.573 " transform="matrix(-1, 0, 0, 1, 133, 31)"/>
            <path id="Stroke-59" fill="none" stroke="#362F52" stroke-width="0.5" d="M 46.508 53.573 C 46.508 53.573 7.245 58.193 1.751 31.795 C -2.765 10.094 5.111 4.342 6.146 2.626 C 7.028 1.163 38.007 0.030 38.007 0.030 C 38.007 0.030 48.970 17.365 46.508 53.573 Z " transform="matrix(-1, 0, 0, 1, 133, 31)"/>
            <path id="Fill-61" fill="#362F52" stroke="none" stroke-width="1" d="M 6.960 32.521 C 6.960 32.521 7.014 32.911 7.172 33.579 C 7.259 33.911 7.352 34.318 7.502 34.772 C 7.575 34.999 7.653 35.240 7.735 35.495 C 7.828 35.746 7.927 36.009 8.029 36.285 C 8.228 36.837 8.501 37.413 8.777 38.024 C 9.092 38.618 9.391 39.260 9.780 39.881 C 9.970 40.193 10.148 40.521 10.355 40.835 C 10.570 41.145 10.787 41.458 11.006 41.774 L 11.336 42.248 L 11.704 42.699 L 12.442 43.606 C 12.950 44.196 13.502 44.750 14.022 45.315 C 14.593 45.830 15.154 46.337 15.698 46.828 C 16.278 47.275 16.839 47.707 17.371 48.117 C 17.901 48.531 18.459 48.841 18.945 49.171 C 19.440 49.486 19.880 49.800 20.309 50.013 C 20.728 50.242 21.094 50.441 21.395 50.606 C 21.997 50.940 22.340 51.131 22.340 51.131 C 22.340 51.131 21.985 50.964 21.363 50.671 C 21.053 50.522 20.676 50.341 20.243 50.133 C 19.800 49.943 19.342 49.653 18.836 49.349 C 18.337 49.032 17.764 48.737 17.216 48.338 C 16.668 47.939 16.085 47.522 15.495 47.075 C 14.939 46.585 14.365 46.078 13.782 45.562 C 13.249 44.996 12.683 44.441 12.162 43.846 L 11.422 42.918 L 11.055 42.457 L 10.725 41.972 C 10.507 41.650 10.290 41.331 10.076 41.014 C 9.869 40.693 9.692 40.360 9.503 40.041 C 9.111 39.410 8.832 38.746 8.534 38.136 C 8.274 37.509 8.018 36.920 7.835 36.356 C 7.741 36.075 7.652 35.806 7.567 35.549 C 7.498 35.289 7.432 35.041 7.370 34.809 C 7.244 34.345 7.172 33.931 7.102 33.594 C 6.982 32.914 6.960 32.521 6.960 32.521 " transform="matrix(-1, 0, 0, 1, 133, 31)"/>
          </g>
          <g id="Group-8">
            <path id="Fill-63" fill="#A77E76" stroke="none" stroke-width="1" d="M 15.525 67.331 C 15.525 67.331 13.152 44.233 0.012 30.242 C 0.012 30.242 35.499 9.388 59.494 1.601 C 59.494 1.601 80.786 -5.790 100.782 13.744 C 100.782 13.744 93.223 13.524 85.357 13.744 C 85.357 13.744 94.762 23.115 93.707 35.962 C 93.707 35.962 86.951 29.899 78.853 23.995 C 78.853 23.995 83.335 35.874 74.854 45.817 C 74.854 45.817 72.437 43.881 69.887 42.077 C 69.887 42.077 67.207 46.653 61.538 50.129 L 60.703 46.477 C 60.703 46.477 55.868 52.460 49.628 55.012 L 48.617 52.768 C 48.617 52.768 37.631 60.643 15.525 67.331 " transform="matrix(-1, 0, 0, 1, 102, 5)"/>
            <path id="Fill-65" fill="#784451" stroke="none" stroke-width="1" d="M 15.534 67.298 L 15.279 65.488 C 25.535 61.742 41.873 52.503 45.131 47.764 C 45.131 47.764 47.522 49.392 48.617 52.768 C 48.617 52.768 35.705 61.403 15.534 67.298 " transform="matrix(-1, 0, 0, 1, 102, 5)"/>
            <path id="Fill-67" fill="#784451" stroke="none" stroke-width="1" d="M 60.655 45.774 C 60.655 45.774 64.874 43.450 66.019 40.029 C 66.019 40.029 68.648 40.892 69.888 42.077 C 70.283 42.275 64.842 48.481 61.546 50.096 C 61.325 49.700 60.655 45.774 60.655 45.774 " transform="matrix(-1, 0, 0, 1, 102, 5)"/>
            <path id="Fill-69" fill="#784451" stroke="none" stroke-width="1" d="M 92.018 34.443 C 91.958 34.366 90.682 21.977 84.914 13.530 C 84.914 13.530 94.786 22.587 93.715 35.928 C 93.715 35.928 92.281 34.780 92.018 34.443 " transform="matrix(-1, 0, 0, 1, 102, 5)"/>
            <path id="Fill-71" fill="#784451" stroke="none" stroke-width="1" d="M 48.131 51.426 C 50.611 49.699 54.895 46.928 58.640 41.168 C 58.640 41.168 59.963 42.488 60.758 46.237 C 60.886 46.730 55.250 52.695 49.628 55.012 C 49.520 55.057 48.131 51.426 48.131 51.426 " transform="matrix(-1, 0, 0, 1, 102, 5)"/>
            <path id="Fill-73" fill="#784451" stroke="none" stroke-width="1" d="M 88.464 4.803 C 88.391 4.749 95.923 8.514 100.670 13.595 C 100.782 13.745 98.790 13.678 98.790 13.678 C 98.790 13.678 96.533 10.840 88.464 4.803 " transform="matrix(-1, 0, 0, 1, 102, 5)"/>
            <path id="Fill-75" fill="#784451" stroke="none" stroke-width="1" d="M 72.057 43.621 C 78.042 35.340 76.279 22.999 74.675 21.377 C 74.360 21.059 78.125 23.033 78.853 23.994 C 79.762 25.196 82.126 38.952 74.931 45.702 C 74.688 45.832 72.310 43.811 72.057 43.621 " transform="matrix(-1, 0, 0, 1, 102, 5)"/>
            <path id="Stroke-77" fill="none" stroke="#362F52" stroke-width="0.5" d="M 15.534 67.298 C 15.534 67.298 13.160 44.200 0.020 30.209 C 0.020 30.209 35.507 9.355 59.502 1.568 C 59.502 1.568 80.794 -5.823 100.790 13.711 C 100.790 13.711 93.232 13.491 85.365 13.711 C 85.365 13.711 94.770 23.082 93.715 35.929 C 93.715 35.929 86.960 29.866 78.861 23.962 C 78.861 23.962 83.343 35.841 74.862 45.784 C 74.862 45.784 72.445 43.848 69.896 42.044 C 69.896 42.044 67.215 46.620 61.546 50.096 L 60.711 46.444 C 60.711 46.444 55.876 52.427 49.636 54.979 L 48.626 52.735 C 48.626 52.735 37.639 60.610 15.534 67.298 Z " transform="matrix(-1, 0, 0, 1, 102, 5)"/>
            <path id="Fill-79" fill="#362F52" stroke="none" stroke-width="1" d="M 14.127 39.360 C 14.127 39.360 14.970 38.697 16.445 37.535 C 17.930 36.386 20.052 34.743 22.649 32.842 C 25.247 30.941 28.296 28.745 31.627 26.486 C 34.957 24.226 38.557 21.883 42.227 19.653 C 45.906 17.439 49.656 15.335 53.272 13.560 C 56.886 11.783 60.381 10.356 63.478 9.450 C 65.026 8.995 66.478 8.686 67.780 8.530 C 69.082 8.371 70.232 8.364 71.168 8.471 C 72.105 8.582 72.814 8.807 73.283 8.985 C 73.744 9.188 73.982 9.311 73.982 9.311 C 73.982 9.311 73.741 9.192 73.278 9.000 C 72.805 8.832 72.094 8.623 71.162 8.533 C 70.229 8.446 69.087 8.477 67.798 8.663 C 66.508 8.846 65.072 9.184 63.538 9.650 C 60.464 10.580 57.011 12.065 53.414 13.848 C 49.815 15.631 46.082 17.746 42.418 19.969 C 38.745 22.180 35.141 24.506 31.806 26.751 C 28.470 28.996 25.385 31.135 22.771 33.010 C 20.156 34.884 17.986 36.460 16.483 37.584 C 14.983 38.714 14.127 39.360 14.127 39.360 " transform="matrix(-1, 0, 0, 1, 102, 5)"/>
            <path id="Fill-81" fill="#362F52" stroke="none" stroke-width="1" d="M 60.530 46.453 C 60.530 46.453 60.512 46.199 60.454 45.817 C 60.403 45.434 60.304 44.928 60.182 44.426 C 60.110 44.179 60.051 43.926 59.970 43.698 C 59.885 43.472 59.817 43.254 59.740 43.076 L 59.465 42.488 C 59.465 42.488 59.596 42.714 59.793 43.052 C 59.885 43.224 59.974 43.434 60.080 43.657 C 60.182 43.880 60.263 44.129 60.360 44.373 C 60.528 44.869 60.673 45.374 60.760 45.759 C 60.853 46.142 60.895 46.405 60.895 46.405 L 60.530 46.453 Z " transform="matrix(-1, 0, 0, 1, 102, 5)"/>
            <path id="Fill-83" fill="#362F52" stroke="none" stroke-width="1" d="M 48.431 52.759 C 48.431 52.759 48.354 52.506 48.208 52.132 C 48.068 51.756 47.851 51.266 47.612 50.785 C 47.481 50.552 47.364 50.308 47.229 50.097 C 47.091 49.887 46.972 49.682 46.853 49.519 C 46.605 49.200 46.439 48.987 46.439 48.987 C 46.439 48.987 46.623 49.185 46.899 49.484 C 47.032 49.637 47.168 49.831 47.326 50.032 C 47.481 50.235 47.620 50.468 47.773 50.694 C 48.056 51.159 48.318 51.638 48.494 52.008 C 48.675 52.374 48.777 52.631 48.777 52.631 L 48.431 52.759 Z " transform="matrix(-1, 0, 0, 1, 102, 5)"/>
            <path id="Fill-85" fill="#362F52" stroke="none" stroke-width="1" d="M 79.084 24.390 C 79.084 24.389 78.732 24.078 78.164 23.653 C 77.602 23.219 76.823 22.681 76.014 22.187 C 75.600 21.959 75.200 21.699 74.798 21.511 C 74.598 21.413 74.405 21.319 74.222 21.230 C 74.037 21.145 73.868 21.048 73.699 20.991 C 73.033 20.737 72.589 20.568 72.589 20.568 C 72.589 20.568 73.042 20.716 73.720 20.938 C 73.893 20.986 74.066 21.075 74.256 21.152 C 74.444 21.232 74.643 21.317 74.849 21.406 C 75.263 21.576 75.676 21.816 76.105 22.026 C 76.943 22.485 77.757 22.989 78.347 23.400 C 78.643 23.601 78.887 23.777 79.055 23.904 C 79.223 24.031 79.318 24.103 79.318 24.103 L 79.084 24.390 Z " transform="matrix(-1, 0, 0, 1, 102, 5)"/>
            <path id="Fill-87" fill="#362F52" stroke="none" stroke-width="1" d="M 79.017 37.974 C 79.018 37.975 78.988 37.606 78.900 37.054 C 78.821 36.501 78.674 35.770 78.490 35.046 C 78.381 34.690 78.295 34.325 78.174 33.996 C 78.114 33.832 78.056 33.673 78.000 33.522 C 77.941 33.373 77.901 33.224 77.836 33.101 C 77.594 32.594 77.432 32.255 77.432 32.255 C 77.432 32.255 77.615 32.584 77.887 33.077 C 77.961 33.198 78.010 33.343 78.079 33.489 C 78.144 33.637 78.213 33.794 78.283 33.956 C 78.426 34.279 78.535 34.640 78.667 34.994 C 78.897 35.712 79.092 36.443 79.207 36.998 C 79.331 37.551 79.384 37.928 79.384 37.929 L 79.017 37.974 Z " transform="matrix(-1, 0, 0, 1, 102, 5)"/>
            <path id="Fill-89" fill="#362F52" stroke="none" stroke-width="1" d="M 76.526 43.325 C 76.526 43.325 76.514 43.006 76.455 42.525 C 76.406 42.045 76.302 41.408 76.169 40.776 C 76.088 40.464 76.024 40.146 75.932 39.857 C 75.885 39.713 75.840 39.573 75.797 39.441 C 75.751 39.311 75.720 39.181 75.669 39.070 C 75.475 38.624 75.347 38.326 75.347 38.326 C 75.347 38.326 75.497 38.615 75.722 39.048 C 75.781 39.156 75.821 39.282 75.877 39.411 C 75.929 39.541 75.985 39.678 76.043 39.820 C 76.156 40.104 76.243 40.419 76.348 40.729 C 76.527 41.357 76.678 41.995 76.764 42.479 C 76.857 42.962 76.894 43.291 76.894 43.291 L 76.526 43.325 Z " transform="matrix(-1, 0, 0, 1, 102, 5)"/>
            <path id="Fill-91" fill="#362F52" stroke="none" stroke-width="1" d="M 79.839 30.407 C 79.839 30.407 79.746 30.102 79.568 29.652 C 79.399 29.200 79.137 28.610 78.848 28.032 C 78.690 27.751 78.548 27.459 78.386 27.204 C 78.304 27.076 78.225 26.952 78.150 26.836 C 78.072 26.721 78.009 26.603 77.933 26.509 C 77.632 26.127 77.433 25.872 77.433 25.872 C 77.433 25.872 77.651 26.113 77.978 26.475 C 78.063 26.563 78.134 26.676 78.220 26.786 C 78.304 26.899 78.392 27.017 78.484 27.140 C 78.665 27.386 78.829 27.669 79.010 27.942 C 79.342 28.505 79.650 29.083 79.855 29.530 C 80.067 29.973 80.186 30.282 80.186 30.282 L 79.839 30.407 Z " transform="matrix(-1, 0, 0, 1, 102, 5)"/>
            <path id="Fill-93" fill="#362F52" stroke="none" stroke-width="1" d="M 69.829 42.238 C 69.830 42.238 69.618 42.055 69.274 41.804 C 68.936 41.549 68.465 41.234 67.978 40.942 C 67.729 40.808 67.487 40.657 67.245 40.545 C 67.124 40.489 67.008 40.434 66.897 40.382 C 66.786 40.334 66.684 40.274 66.582 40.243 C 66.180 40.098 65.911 40.001 65.911 40.001 C 65.911 40.001 66.188 40.076 66.602 40.189 C 66.707 40.212 66.813 40.263 66.929 40.303 C 67.045 40.346 67.167 40.391 67.293 40.438 C 67.546 40.531 67.801 40.664 68.065 40.778 C 68.581 41.033 69.085 41.314 69.450 41.546 C 69.819 41.773 70.054 41.945 70.055 41.945 L 69.829 42.238 Z " transform="matrix(-1, 0, 0, 1, 102, 5)"/>
            <path id="Fill-95" fill="#362F52" stroke="none" stroke-width="1" d="M 55.393 51.345 C 55.393 51.345 55.379 51.031 55.320 50.559 C 55.270 50.085 55.165 49.459 55.032 48.837 C 54.951 48.530 54.886 48.217 54.795 47.933 C 54.748 47.792 54.703 47.654 54.661 47.525 C 54.615 47.396 54.584 47.268 54.533 47.160 C 54.342 46.722 54.213 46.429 54.213 46.429 C 54.213 46.429 54.363 46.713 54.586 47.138 C 54.645 47.243 54.685 47.367 54.741 47.494 C 54.793 47.621 54.848 47.756 54.905 47.896 C 55.019 48.175 55.106 48.485 55.211 48.790 C 55.391 49.407 55.542 50.035 55.628 50.511 C 55.723 50.986 55.761 51.310 55.761 51.310 L 55.393 51.345 Z " transform="matrix(-1, 0, 0, 1, 102, 5)"/>
            <path id="Fill-97" fill="#362F52" stroke="none" stroke-width="1" d="M 39.949 57.599 C 39.949 57.599 39.948 57.526 39.948 57.401 C 39.947 57.278 39.940 57.099 39.926 56.883 C 39.917 56.668 39.881 56.418 39.856 56.148 C 39.811 55.882 39.777 55.594 39.715 55.311 C 39.643 55.032 39.602 54.742 39.509 54.487 C 39.422 54.230 39.363 53.980 39.273 53.782 C 39.100 53.381 38.984 53.114 38.984 53.114 C 38.984 53.114 39.121 53.372 39.325 53.759 C 39.432 53.952 39.511 54.197 39.620 54.449 C 39.735 54.701 39.799 54.989 39.894 55.267 C 39.980 55.549 40.038 55.838 40.105 56.106 C 40.152 56.378 40.209 56.631 40.235 56.851 C 40.267 57.070 40.289 57.255 40.301 57.386 C 40.311 57.515 40.317 57.588 40.317 57.588 L 39.949 57.599 Z " transform="matrix(-1, 0, 0, 1, 102, 5)"/>
            <path id="Fill-99" fill="#362F52" stroke="none" stroke-width="1" d="M 44.552 55.162 C 44.552 55.162 44.539 54.848 44.480 54.376 C 44.429 53.902 44.325 53.276 44.191 52.653 C 44.110 52.347 44.046 52.034 43.954 51.750 C 43.907 51.609 43.863 51.471 43.820 51.341 C 43.774 51.213 43.743 51.085 43.692 50.977 C 43.501 50.538 43.373 50.245 43.373 50.245 C 43.373 50.245 43.522 50.529 43.746 50.954 C 43.805 51.060 43.844 51.184 43.900 51.311 C 43.952 51.438 44.008 51.573 44.065 51.713 C 44.178 51.992 44.265 52.302 44.370 52.606 C 44.550 53.224 44.701 53.852 44.788 54.328 C 44.882 54.803 44.920 55.127 44.920 55.127 L 44.552 55.162 Z " transform="matrix(-1, 0, 0, 1, 102, 5)"/>
            <path id="Fill-101" fill="#362F52" stroke="none" stroke-width="1" d="M 34.356 60.300 C 34.356 60.300 34.369 60.236 34.380 60.136 C 34.395 60.036 34.403 59.885 34.412 59.703 C 34.420 59.613 34.412 59.514 34.412 59.409 C 34.409 59.304 34.415 59.193 34.400 59.079 C 34.376 58.851 34.366 58.604 34.310 58.364 C 34.269 58.122 34.220 57.879 34.146 57.660 C 34.078 57.438 34.026 57.226 33.944 57.058 C 33.797 56.714 33.700 56.484 33.700 56.484 C 33.700 56.484 33.818 56.705 33.996 57.035 C 34.095 57.196 34.167 57.404 34.257 57.622 C 34.353 57.839 34.425 58.079 34.490 58.324 C 34.569 58.566 34.605 58.816 34.651 59.051 C 34.678 59.167 34.681 59.283 34.696 59.391 C 34.705 59.501 34.722 59.604 34.724 59.700 C 34.731 59.892 34.738 60.052 34.731 60.170 C 34.729 60.289 34.722 60.347 34.722 60.347 L 34.356 60.300 Z " transform="matrix(-1, 0, 0, 1, 102, 5)"/>
            <path id="Fill-103" fill="#362F52" stroke="none" stroke-width="1" d="M 66.014 46.556 C 66.014 46.555 65.890 45.733 65.637 44.929 C 65.567 44.732 65.506 44.530 65.432 44.347 C 65.354 44.168 65.286 43.995 65.218 43.853 C 65.066 43.575 64.965 43.390 64.965 43.390 C 64.965 43.390 65.087 43.564 65.268 43.825 C 65.353 43.960 65.439 44.125 65.539 44.299 C 65.633 44.475 65.717 44.671 65.810 44.864 C 65.976 45.257 66.128 45.658 66.223 45.965 C 66.323 46.270 66.376 46.480 66.376 46.480 L 66.014 46.556 Z " transform="matrix(-1, 0, 0, 1, 102, 5)"/>
            <path id="Fill-105" fill="#362F52" stroke="none" stroke-width="1" d="M 28.823 62.590 C 28.823 62.590 28.887 61.796 28.816 60.991 C 28.792 60.792 28.780 60.589 28.746 60.404 C 28.710 60.219 28.686 60.043 28.649 59.896 C 28.567 59.604 28.512 59.409 28.512 59.409 C 28.512 59.409 28.588 59.597 28.704 59.880 C 28.758 60.023 28.803 60.196 28.860 60.380 C 28.916 60.563 28.951 60.765 28.999 60.965 C 29.076 61.367 29.133 61.775 29.158 62.083 C 29.188 62.390 29.191 62.600 29.191 62.600 L 28.823 62.590 Z " transform="matrix(-1, 0, 0, 1, 102, 5)"/>
            <path id="Fill-107" fill="#362F52" stroke="none" stroke-width="1" d="M 23.926 64.532 C 23.926 64.532 23.982 63.953 23.954 63.362 C 23.938 63.069 23.901 62.776 23.860 62.558 C 23.806 62.342 23.769 62.198 23.769 62.198 C 23.769 62.198 23.828 62.336 23.915 62.542 C 23.990 62.754 24.074 63.043 24.136 63.339 C 24.259 63.927 24.295 64.539 24.295 64.539 L 23.926 64.532 Z " transform="matrix(-1, 0, 0, 1, 102, 5)"/>
            <path id="Fill-109" fill="#362F52" stroke="none" stroke-width="1" d="M 19.694 65.928 C 19.694 65.928 19.715 65.843 19.748 65.714 C 19.775 65.587 19.816 65.416 19.837 65.242 C 19.869 65.067 19.881 64.893 19.875 64.760 C 19.877 64.625 19.877 64.535 19.877 64.535 C 19.877 64.535 19.899 64.622 19.932 64.752 C 19.973 64.884 20.009 65.064 20.021 65.245 C 20.047 65.427 20.052 65.610 20.057 65.749 C 20.059 65.886 20.060 65.977 20.060 65.977 L 19.694 65.928 Z " transform="matrix(-1, 0, 0, 1, 102, 5)"/>
            <path id="Fill-111" fill="#362F52" stroke="none" stroke-width="1" d="M 93.336 30.613 C 93.336 30.613 93.242 30.307 93.065 29.857 C 92.895 29.405 92.633 28.815 92.344 28.237 C 92.186 27.956 92.044 27.664 91.882 27.409 C 91.800 27.281 91.721 27.158 91.646 27.041 C 91.568 26.926 91.506 26.809 91.429 26.715 C 91.129 26.332 90.929 26.077 90.929 26.077 C 90.929 26.077 91.147 26.318 91.475 26.680 C 91.559 26.769 91.630 26.881 91.716 26.991 C 91.800 27.104 91.888 27.222 91.980 27.345 C 92.161 27.591 92.326 27.874 92.506 28.147 C 92.838 28.710 93.146 29.288 93.351 29.735 C 93.563 30.178 93.683 30.487 93.683 30.487 L 93.336 30.613 Z " transform="matrix(-1, 0, 0, 1, 102, 5)"/>
            <path id="Fill-113" fill="#362F52" stroke="none" stroke-width="1" d="M 91.504 23.719 C 91.504 23.719 91.374 23.497 91.156 23.176 C 91.051 23.013 90.917 22.830 90.775 22.632 C 90.635 22.434 90.470 22.234 90.312 22.027 C 90.143 21.832 89.976 21.632 89.811 21.453 C 89.639 21.281 89.481 21.117 89.340 20.982 C 89.038 20.734 88.836 20.568 88.836 20.568 C 88.836 20.568 89.052 20.716 89.377 20.937 C 89.530 21.060 89.703 21.211 89.893 21.369 C 90.075 21.535 90.261 21.721 90.450 21.904 C 90.627 22.098 90.812 22.286 90.973 22.474 C 91.133 22.661 91.285 22.835 91.407 22.991 C 91.657 23.297 91.811 23.514 91.811 23.514 L 91.504 23.719 Z " transform="matrix(-1, 0, 0, 1, 102, 5)"/>
          </g>
          <g id="Group-7">
            <path id="Fill-115" fill="#E09D73" stroke="none" stroke-width="1" d="M 13.204 3.815 L 0.151 3.815 C 0.151 3.815 2.722 1.197 5.776 0.009 C 5.776 0.009 8.611 1.065 12.852 1.065 C 12.852 1.065 13.204 1.923 13.204 3.815 " transform="matrix(-1, 0, 0, 1, 115, 82)"/>
            <path id="Stroke-117" fill="none" stroke="#362F52" stroke-width="0.5" d="M 13.204 3.815 L 0.151 3.815 C 0.151 3.815 2.722 1.197 5.776 0.009 C 5.776 0.009 8.611 1.065 12.852 1.065 C 12.852 1.065 13.204 1.923 13.204 3.815 Z " transform="matrix(-1, 0, 0, 1, 115, 82)"/>
          </g>
          <g id="Group-6">
            <path id="Fill-119" fill="#A77E76" stroke="none" stroke-width="1" d="M 7.730 3.080 C 7.730 3.080 12.717 1.002 19.159 0.735 C 26.295 0.439 36.176 3.865 37.451 5.876 C 38.726 7.886 40.076 11.046 40.076 15.083 C 40.076 19.119 39.049 21.233 39.049 22.765 C 39.049 24.296 41.106 23.015 36.521 26.672 C 33.415 29.149 23.035 33.305 12.531 32.315 C 6.432 31.740 5.734 30.395 4.884 29.648 L 6.301 27.677 C 5.421 26.652 0.910 21.231 0.910 14.882 C 0.910 8.535 3.632 4.795 7.730 3.080 " transform="matrix(-1, 0, 0, 1, 134, 7)"/>
            <path id="Stroke-121" fill="none" stroke="#362F52" stroke-width="0.5" d="M 6.202 27.522 C 4.575 25.993 0.741 19.998 0.906 15.731 C 1.082 11.196 2.057 6.955 5.096 4.633 C 8.135 2.312 13.540 0.728 19.869 0.728 C 29.111 0.728 35.584 3.764 37.439 5.876 C 39.294 7.987 40.085 12.166 40.085 16.214 C 40.085 20.262 38.195 22.198 39.426 23.562 C 40.656 24.926 28.343 33.342 13.017 32.317 C 6.366 31.872 4.884 29.648 4.884 29.648 C 5.319 29.001 6.202 27.522 6.202 27.522 Z " transform="matrix(-1, 0, 0, 1, 134, 7)"/>
          </g>
          <g id="Group-5">
            <path id="Fill-123" fill="#4B3A42" stroke="none" stroke-width="1" d="M 20.008 0.975 C 20.008 0.975 13.856 11.518 3.380 11.666 L 20.008 0.975 Z " transform="matrix(-1, 0, 0, 1, 117, 1)"/>
            <path id="Stroke-125" fill="none" stroke="#362F52" stroke-width="0.5265" d="M 0.135 13.610 C -0.001 13.635 20.439 0.543 20.439 0.543 C 20.439 0.543 14.682 10.970 0.135 13.610 Z " transform="matrix(-1, 0, 0, 1, 117, 1)"/>
          </g>
          <g id="Group-4">
            <path id="Fill-127" fill="#4B3A42" stroke="none" stroke-width="1" d="M 10.156 11.591 L 1.113 0.900 C 1.113 0.900 4.459 11.443 10.156 11.591 " transform="matrix(-1, 0, 0, 1, 135, 1)"/>
            <path id="Stroke-129" fill="none" stroke="#362F52" stroke-width="0.5265" d="M 11.921 13.535 C 11.995 13.560 0.879 0.468 0.879 0.468 C 0.879 0.468 4.010 10.895 11.921 13.535 " transform="matrix(-1, 0, 0, 1, 135, 1)"/>
          </g>
          <g id="Group-3">
            <path id="Fill-131" fill="#C4AFAD" stroke="none" stroke-width="1" d="M 12.705 10.852 C 12.705 5.209 10.064 0.634 6.805 0.634 C 3.547 0.634 0.906 5.209 0.906 10.852 C 0.906 16.494 3.547 21.070 6.805 21.070 C 10.064 21.070 12.705 16.494 12.705 10.852 " transform="matrix(-1, 0, 0, 1, 134, 11)"/>
            <path id="Fill-133" fill="#FCCF87" stroke="none" stroke-width="1" d="M 9.365 11.083 C 9.365 8.689 8.244 6.749 6.863 6.749 C 5.481 6.749 4.360 8.689 4.360 11.083 C 4.360 13.476 5.481 15.416 6.863 15.416 C 8.244 15.416 9.365 13.476 9.365 11.083 " transform="matrix(-1, 0, 0, 1, 134, 11)"/>
            <path id="Fill-135" fill="#362F52" stroke="none" stroke-width="1" d="M 5.320 11.193 C 5.320 9.686 6.025 8.465 6.894 8.465 C 7.764 8.465 8.469 9.686 8.469 11.193 C 8.469 12.699 7.764 13.920 6.894 13.920 C 6.025 13.920 5.320 12.699 5.320 11.193 " transform="matrix(-1, 0, 0, 1, 134, 11)"/>
            <path id="Stroke-137" fill="none" stroke="#605579" stroke-width="0.5" d="M 9.365 10.995 C 9.365 8.602 8.244 6.661 6.863 6.661 C 5.481 6.661 4.360 8.602 4.360 10.995 C 4.360 13.388 5.481 15.329 6.863 15.329 C 8.244 15.329 9.365 13.388 9.365 10.995 Z " transform="matrix(-1, 0, 0, 1, 134, 11)"/>
            <path id="Stroke-139" fill="none" stroke="#605579" stroke-width="0.5265" d="M 12.740 10.883 C 12.740 5.234 10.096 0.654 6.835 0.654 C 3.573 0.654 0.929 5.234 0.929 10.883 C 0.929 16.532 3.573 21.112 6.835 21.112 C 10.096 21.112 12.740 16.532 12.740 10.883 Z " transform="matrix(-1, 0, 0, 1, 134, 11)"/>
            <path id="Fill-141" fill="#605579" stroke="none" stroke-width="1" d="M 6.202 6.023 C 6.202 6.023 6.125 5.760 6.041 5.362 C 5.959 4.964 5.860 4.432 5.792 3.896 C 5.721 3.359 5.678 2.820 5.657 2.413 C 5.636 2.007 5.643 1.733 5.643 1.733 C 5.643 1.733 5.720 1.996 5.805 2.394 C 5.888 2.792 5.985 3.325 6.054 3.861 C 6.125 4.397 6.167 4.937 6.189 5.343 C 6.209 5.749 6.202 6.023 6.202 6.023 " transform="matrix(-1, 0, 0, 1, 134, 11)"/>
            <path id="Fill-143" fill="#605579" stroke="none" stroke-width="1" d="M 7.960 20.398 C 7.960 20.398 7.888 20.133 7.811 19.732 C 7.735 19.331 7.646 18.794 7.587 18.254 C 7.525 17.715 7.492 17.173 7.478 16.764 C 7.465 16.356 7.476 16.082 7.476 16.082 C 7.476 16.082 7.549 16.347 7.626 16.748 C 7.703 17.149 7.790 17.685 7.849 18.225 C 7.911 18.765 7.944 19.307 7.958 19.716 C 7.972 20.124 7.960 20.398 7.960 20.398 " transform="matrix(-1, 0, 0, 1, 134, 11)"/>
            <path id="Fill-145" fill="#605579" stroke="none" stroke-width="1" d="M 3.482 18.575 C 3.482 18.575 3.545 18.344 3.668 18.013 C 3.791 17.681 3.967 17.244 4.170 16.821 C 4.370 16.395 4.597 15.983 4.777 15.679 C 4.956 15.374 5.096 15.179 5.096 15.179 C 5.096 15.179 5.033 15.411 4.910 15.743 C 4.788 16.074 4.611 16.510 4.408 16.934 C 4.207 17.359 3.981 17.772 3.801 18.076 C 3.621 18.381 3.482 18.575 3.482 18.575 " transform="matrix(-1, 0, 0, 1, 134, 11)"/>
            <path id="Fill-147" fill="#605579" stroke="none" stroke-width="1" d="M 2.062 15.619 C 2.062 15.619 2.179 15.470 2.374 15.270 C 2.570 15.071 2.840 14.816 3.128 14.583 C 3.414 14.349 3.719 14.137 3.955 13.986 C 4.190 13.836 4.360 13.753 4.360 13.753 C 4.360 13.753 4.244 13.902 4.048 14.102 C 3.853 14.302 3.582 14.557 3.294 14.789 C 3.008 15.023 2.702 15.234 2.468 15.385 C 2.232 15.535 2.062 15.619 2.062 15.619 " transform="matrix(-1, 0, 0, 1, 134, 11)"/>
            <path id="Fill-149" fill="#605579" stroke="none" stroke-width="1" d="M 1.323 12.180 C 1.323 12.180 1.473 12.110 1.704 12.037 C 1.936 11.964 2.247 11.880 2.562 11.826 C 2.878 11.768 3.198 11.739 3.440 11.728 C 3.683 11.717 3.848 11.731 3.848 11.731 C 3.848 11.731 3.698 11.801 3.466 11.875 C 3.235 11.948 2.924 12.031 2.608 12.085 C 2.293 12.143 1.972 12.171 1.730 12.183 C 1.488 12.193 1.323 12.180 1.323 12.180 " transform="matrix(-1, 0, 0, 1, 134, 11)"/>
            <path id="Fill-151" fill="#605579" stroke="none" stroke-width="1" d="M 1.504 8.081 C 1.504 8.081 1.675 8.119 1.918 8.205 C 2.160 8.291 2.478 8.418 2.782 8.571 C 3.088 8.722 3.381 8.899 3.595 9.041 C 3.809 9.183 3.943 9.298 3.943 9.298 C 3.943 9.298 3.771 9.259 3.529 9.174 C 3.286 9.088 2.969 8.961 2.665 8.807 C 2.359 8.657 2.067 8.479 1.852 8.337 C 1.637 8.195 1.504 8.081 1.504 8.081 " transform="matrix(-1, 0, 0, 1, 134, 11)"/>
            <path id="Fill-153" fill="#605579" stroke="none" stroke-width="1" d="M 2.992 4.147 C 2.992 4.147 3.136 4.331 3.325 4.620 C 3.513 4.910 3.752 5.303 3.964 5.709 C 4.180 6.115 4.369 6.534 4.502 6.853 C 4.634 7.172 4.703 7.395 4.703 7.395 C 4.703 7.395 4.559 7.212 4.370 6.923 C 4.182 6.633 3.944 6.239 3.731 5.833 C 3.516 5.428 3.327 5.008 3.194 4.689 C 3.062 4.370 2.992 4.147 2.992 4.147 " transform="matrix(-1, 0, 0, 1, 134, 11)"/>
            <path id="Fill-155" fill="#605579" stroke="none" stroke-width="1" d="M 8.443 2.055 C 8.443 2.055 8.435 2.324 8.394 2.723 C 8.351 3.120 8.281 3.649 8.182 4.172 C 8.086 4.695 7.962 5.212 7.858 5.599 C 7.753 5.986 7.663 6.240 7.663 6.240 C 7.663 6.240 7.670 5.970 7.712 5.572 C 7.754 5.174 7.824 4.646 7.923 4.123 C 8.019 3.600 8.145 3.082 8.248 2.695 C 8.353 2.308 8.443 2.055 8.443 2.055 " transform="matrix(-1, 0, 0, 1, 134, 11)"/>
            <path id="Fill-157" fill="#605579" stroke="none" stroke-width="1" d="M 10.711 4.436 C 10.711 4.436 10.618 4.629 10.456 4.898 C 10.290 5.167 10.061 5.518 9.808 5.851 C 9.557 6.186 9.283 6.502 9.069 6.734 C 8.854 6.965 8.694 7.107 8.694 7.107 C 8.694 7.107 8.786 6.914 8.950 6.645 C 9.114 6.375 9.344 6.025 9.598 5.692 C 9.849 5.357 10.123 5.040 10.337 4.809 C 10.551 4.578 10.711 4.436 10.711 4.436 " transform="matrix(-1, 0, 0, 1, 134, 11)"/>
            <path id="Fill-159" fill="#605579" stroke="none" stroke-width="1" d="M 11.903 7.932 C 11.903 7.932 11.777 8.061 11.570 8.230 C 11.364 8.399 11.080 8.612 10.782 8.801 C 10.485 8.992 10.172 9.157 9.932 9.273 C 9.692 9.389 9.520 9.447 9.520 9.447 C 9.520 9.447 9.646 9.316 9.853 9.148 C 10.059 8.979 10.342 8.766 10.641 8.578 C 10.937 8.387 11.251 8.221 11.491 8.106 C 11.732 7.990 11.903 7.932 11.903 7.932 " transform="matrix(-1, 0, 0, 1, 134, 11)"/>
            <path id="Fill-161" fill="#605579" stroke="none" stroke-width="1" d="M 12.096 12.070 C 12.096 12.070 11.937 12.112 11.700 12.145 C 11.462 12.176 11.144 12.205 10.827 12.204 C 10.510 12.207 10.192 12.180 9.955 12.149 C 9.717 12.117 9.558 12.075 9.558 12.075 C 9.558 12.075 9.716 12.033 9.954 12.000 C 10.192 11.968 10.509 11.940 10.827 11.941 C 11.144 11.938 11.462 11.966 11.700 11.996 C 11.937 12.027 12.096 12.070 12.096 12.070 " transform="matrix(-1, 0, 0, 1, 134, 11)"/>
            <path id="Fill-163" fill="#605579" stroke="none" stroke-width="1" d="M 11.454 16.080 C 11.454 16.080 11.286 15.985 11.053 15.820 C 10.821 15.655 10.521 15.424 10.239 15.171 C 9.956 14.921 9.692 14.648 9.501 14.436 C 9.311 14.222 9.198 14.066 9.198 14.066 C 9.198 14.066 9.367 14.160 9.600 14.325 C 9.832 14.490 10.133 14.721 10.414 14.974 C 10.697 15.225 10.960 15.497 11.152 15.710 C 11.342 15.922 11.454 16.080 11.454 16.080 " transform="matrix(-1, 0, 0, 1, 134, 11)"/>
            <path id="Fill-165" fill="#605579" stroke="none" stroke-width="1" d="M 5.735 20.414 C 5.735 20.414 5.716 20.139 5.720 19.728 C 5.724 19.318 5.743 18.772 5.792 18.228 C 5.837 17.685 5.912 17.144 5.979 16.739 C 6.046 16.334 6.112 16.066 6.112 16.066 C 6.112 16.066 6.130 16.341 6.126 16.751 C 6.123 17.162 6.103 17.708 6.054 18.251 C 6.009 18.795 5.933 19.336 5.867 19.741 C 5.800 20.145 5.735 20.414 5.735 20.414 " transform="matrix(-1, 0, 0, 1, 134, 11)"/>
            <path id="Fill-167" fill="#605579" stroke="none" stroke-width="1" d="M 9.996 18.873 C 9.996 18.873 9.868 18.662 9.703 18.334 C 9.540 18.005 9.334 17.563 9.156 17.109 C 8.975 16.656 8.821 16.193 8.716 15.842 C 8.611 15.490 8.560 15.248 8.560 15.248 C 8.560 15.248 8.689 15.458 8.853 15.787 C 9.018 16.115 9.223 16.558 9.401 17.012 C 9.582 17.465 9.735 17.928 9.841 18.279 C 9.946 18.631 9.996 18.873 9.996 18.873 " transform="matrix(-1, 0, 0, 1, 134, 11)"/>
          </g>
          <g id="Group-2">
            <path id="Fill-169" fill="#E89B60" stroke="none" stroke-width="1" d="M 4.375 0.116 C 4.375 0.116 1.145 3.266 0.239 5.716 C 0.091 5.825 7.797 5.716 7.797 5.716 L 6.320 0.920 C 6.320 0.920 6.090 2.761 4.375 0.116 " transform="matrix(-1, 0, 0, 1, 125, 24)"/>
            <path id="Stroke-171" fill="none" stroke="#615D7A" stroke-width="0.5" d="M 4.375 0.116 C 4.375 0.116 1.145 3.266 0.239 5.716 C 0.091 5.825 7.797 5.716 7.797 5.716 L 6.320 0.920 C 6.320 0.920 6.090 2.761 4.375 0.116 Z " transform="matrix(-1, 0, 0, 1, 125, 24)"/>
            <path id="Fill-215" fill="#615D7A" stroke="none" stroke-width="1" d="M 4.668 3.303 C 4.668 3.303 3.794 2.923 3.844 1.638 C 3.844 1.638 4.738 2.058 4.668 3.303 " transform="matrix(-1, 0, 0, 1, 125, 24)"/>
          </g>
          <g id="Group">
            <path id="Fill-173" fill="#C4AFAD" stroke="none" stroke-width="1" d="M 21.305 10.994 C 21.305 5.351 16.736 0.776 11.099 0.776 C 5.462 0.776 0.892 5.351 0.892 10.994 C 0.892 16.636 5.462 21.212 11.099 21.212 C 16.736 21.212 21.305 16.636 21.305 10.994 " transform="matrix(-1, 0, 0, 1, 121, 11)"/>
            <path id="Fill-175" fill="#FCCF87" stroke="none" stroke-width="1" d="M 15.526 11.224 C 15.526 8.831 13.588 6.891 11.198 6.891 C 8.807 6.891 6.869 8.831 6.869 11.224 C 6.869 13.618 8.807 15.558 11.198 15.558 C 13.588 15.558 15.526 13.618 15.526 11.224 " transform="matrix(-1, 0, 0, 1, 121, 11)"/>
            <path id="Fill-177" fill="#362F52" stroke="none" stroke-width="1" d="M 7.615 11.334 C 7.615 9.828 8.835 8.607 10.340 8.607 C 11.845 8.607 13.065 9.828 13.065 11.334 C 13.065 12.841 11.845 14.062 10.340 14.062 C 8.835 14.062 7.615 12.841 7.615 11.334 " transform="matrix(-1, 0, 0, 1, 121, 11)"/>
            <path id="Stroke-179" fill="none" stroke="#605579" stroke-width="0.5" d="M 15.526 11.136 C 15.526 8.743 13.588 6.803 11.198 6.803 C 8.807 6.803 6.869 8.743 6.869 11.136 C 6.869 13.530 8.807 15.470 11.198 15.470 C 13.588 15.470 15.526 13.530 15.526 11.136 Z " transform="matrix(-1, 0, 0, 1, 121, 11)"/>
            <path id="Stroke-181" fill="none" stroke="#605579" stroke-width="0.5265" d="M 21.366 11.025 C 21.366 5.375 16.792 0.795 11.149 0.795 C 5.505 0.795 0.931 5.375 0.931 11.025 C 0.931 16.674 5.505 21.254 11.149 21.254 C 16.792 21.254 21.366 16.674 21.366 11.025 Z " transform="matrix(-1, 0, 0, 1, 121, 11)"/>
            <path id="Fill-183" fill="#605579" stroke="none" stroke-width="1" d="M 10.055 6.165 C 10.055 6.165 9.954 5.907 9.832 5.511 C 9.711 5.116 9.562 4.586 9.443 4.049 C 9.320 3.513 9.227 2.971 9.167 2.562 C 9.107 2.153 9.088 1.876 9.088 1.876 C 9.088 1.876 9.190 2.134 9.312 2.529 C 9.433 2.924 9.581 3.454 9.700 3.991 C 9.823 4.526 9.916 5.069 9.976 5.478 C 10.035 5.888 10.055 6.165 10.055 6.165 " transform="matrix(-1, 0, 0, 1, 121, 11)"/>
            <path id="Fill-185" fill="#605579" stroke="none" stroke-width="1" d="M 13.096 20.540 C 13.096 20.540 13.002 20.279 12.892 19.880 C 12.784 19.481 12.651 18.946 12.548 18.407 C 12.442 17.867 12.365 17.323 12.317 16.912 C 12.270 16.502 12.259 16.223 12.259 16.223 C 12.259 16.223 12.353 16.485 12.463 16.883 C 12.572 17.282 12.704 17.817 12.807 18.356 C 12.913 18.896 12.990 19.441 13.038 19.852 C 13.085 20.262 13.096 20.540 13.096 20.540 " transform="matrix(-1, 0, 0, 1, 121, 11)"/>
            <path id="Fill-187" fill="#605579" stroke="none" stroke-width="1" d="M 5.349 18.716 C 5.349 18.716 5.491 18.478 5.728 18.139 C 5.966 17.801 6.293 17.358 6.643 16.936 C 6.990 16.510 7.361 16.104 7.647 15.805 C 7.933 15.506 8.141 15.322 8.141 15.322 C 8.141 15.322 7.999 15.561 7.762 15.899 C 7.524 16.238 7.197 16.680 6.847 17.102 C 6.499 17.528 6.128 17.935 5.842 18.233 C 5.556 18.531 5.349 18.716 5.349 18.716 " transform="matrix(-1, 0, 0, 1, 121, 11)"/>
            <path id="Fill-189" fill="#605579" stroke="none" stroke-width="1" d="M 2.891 15.761 C 2.891 15.761 3.122 15.606 3.481 15.402 C 3.841 15.199 4.326 14.940 4.824 14.708 C 5.320 14.474 5.829 14.265 6.216 14.119 C 6.602 13.973 6.869 13.895 6.869 13.895 C 6.869 13.895 6.638 14.050 6.278 14.254 C 5.919 14.457 5.434 14.716 4.936 14.947 C 4.440 15.181 3.930 15.390 3.544 15.536 C 3.158 15.683 2.891 15.761 2.891 15.761 " transform="matrix(-1, 0, 0, 1, 121, 11)"/>
            <path id="Fill-191" fill="#605579" stroke="none" stroke-width="1" d="M 1.612 12.321 C 1.612 12.321 1.881 12.251 2.287 12.178 C 2.694 12.105 3.237 12.021 3.784 11.966 C 4.329 11.909 4.878 11.880 5.292 11.870 C 5.704 11.859 5.982 11.873 5.982 11.873 C 5.982 11.873 5.713 11.944 5.307 12.017 C 4.900 12.090 4.357 12.174 3.810 12.228 C 3.265 12.286 2.716 12.314 2.303 12.325 C 1.890 12.335 1.612 12.321 1.612 12.321 " transform="matrix(-1, 0, 0, 1, 121, 11)"/>
            <path id="Fill-193" fill="#605579" stroke="none" stroke-width="1" d="M 1.926 8.222 C 1.926 8.222 2.201 8.258 2.606 8.342 C 3.010 8.426 3.546 8.551 4.072 8.704 C 4.600 8.855 5.121 9.033 5.507 9.178 C 5.895 9.323 6.147 9.439 6.147 9.439 C 6.147 9.439 5.871 9.404 5.467 9.320 C 5.062 9.237 4.527 9.111 4.000 8.958 C 3.472 8.807 2.952 8.628 2.565 8.484 C 2.179 8.339 1.926 8.222 1.926 8.222 " transform="matrix(-1, 0, 0, 1, 121, 11)"/>
            <path id="Fill-195" fill="#605579" stroke="none" stroke-width="1" d="M 4.502 4.289 C 4.502 4.289 4.718 4.464 5.018 4.746 C 5.319 5.030 5.710 5.417 6.079 5.824 C 6.450 6.229 6.799 6.654 7.054 6.980 C 7.308 7.306 7.461 7.537 7.461 7.537 C 7.461 7.537 7.245 7.363 6.944 7.080 C 6.644 6.796 6.253 6.409 5.884 6.002 C 5.513 5.597 5.164 5.172 4.909 4.846 C 4.656 4.520 4.502 4.289 4.502 4.289 " transform="matrix(-1, 0, 0, 1, 121, 11)"/>
            <path id="Fill-197" fill="#605579" stroke="none" stroke-width="1" d="M 13.931 2.197 C 13.931 2.197 13.887 2.472 13.791 2.874 C 13.694 3.275 13.552 3.807 13.382 4.330 C 13.215 4.853 13.020 5.368 12.863 5.750 C 12.707 6.132 12.582 6.381 12.582 6.381 C 12.582 6.381 12.626 6.106 12.722 5.704 C 12.819 5.302 12.961 4.771 13.131 4.248 C 13.299 3.725 13.494 3.211 13.650 2.828 C 13.807 2.446 13.931 2.197 13.931 2.197 " transform="matrix(-1, 0, 0, 1, 121, 11)"/>
            <path id="Fill-199" fill="#605579" stroke="none" stroke-width="1" d="M 17.856 4.578 C 17.856 4.578 17.664 4.778 17.356 5.054 C 17.048 5.329 16.628 5.685 16.191 6.018 C 15.756 6.353 15.303 6.665 14.957 6.890 C 14.611 7.115 14.367 7.248 14.367 7.248 C 14.367 7.248 14.559 7.048 14.867 6.772 C 15.175 6.496 15.594 6.141 16.032 5.808 C 16.467 5.473 16.920 5.162 17.266 4.936 C 17.613 4.711 17.856 4.578 17.856 4.578 " transform="matrix(-1, 0, 0, 1, 121, 11)"/>
            <path id="Fill-201" fill="#605579" stroke="none" stroke-width="1" d="M 19.918 8.073 C 19.918 8.073 19.675 8.207 19.299 8.379 C 18.923 8.551 18.417 8.767 17.902 8.955 C 17.387 9.146 16.862 9.309 16.465 9.422 C 16.067 9.534 15.795 9.589 15.795 9.589 C 15.795 9.589 16.038 9.454 16.413 9.282 C 16.789 9.111 17.295 8.896 17.811 8.707 C 18.326 8.516 18.851 8.353 19.248 8.241 C 19.645 8.128 19.918 8.073 19.918 8.073 " transform="matrix(-1, 0, 0, 1, 121, 11)"/>
            <path id="Fill-203" fill="#605579" stroke="none" stroke-width="1" d="M 20.252 12.211 C 20.252 12.211 19.978 12.254 19.566 12.286 C 19.154 12.318 18.606 12.347 18.057 12.346 C 17.508 12.348 16.959 12.321 16.547 12.290 C 16.135 12.259 15.861 12.217 15.861 12.217 C 15.861 12.217 16.135 12.174 16.547 12.142 C 16.959 12.110 17.508 12.081 18.057 12.082 C 18.606 12.080 19.154 12.108 19.566 12.138 C 19.978 12.170 20.252 12.211 20.252 12.211 " transform="matrix(-1, 0, 0, 1, 121, 11)"/>
            <path id="Fill-205" fill="#605579" stroke="none" stroke-width="1" d="M 19.142 16.221 C 19.142 16.221 18.879 16.133 18.498 15.972 C 18.118 15.812 17.617 15.585 17.130 15.331 C 16.641 15.081 16.165 14.804 15.814 14.587 C 15.462 14.371 15.238 14.207 15.238 14.207 C 15.238 14.207 15.502 14.296 15.882 14.456 C 16.262 14.617 16.763 14.844 17.251 15.097 C 17.739 15.348 18.214 15.624 18.566 15.841 C 18.918 16.058 19.142 16.221 19.142 16.221 " transform="matrix(-1, 0, 0, 1, 121, 11)"/>
            <path id="Fill-207" fill="#605579" stroke="none" stroke-width="1" d="M 9.246 20.556 C 9.246 20.556 9.245 20.278 9.275 19.865 C 9.305 19.453 9.359 18.905 9.441 18.362 C 9.521 17.818 9.630 17.279 9.723 16.876 C 9.815 16.473 9.898 16.208 9.898 16.208 C 9.898 16.208 9.899 16.486 9.870 16.898 C 9.840 17.311 9.785 17.858 9.702 18.401 C 9.622 18.945 9.513 19.485 9.421 19.887 C 9.328 20.290 9.246 20.556 9.246 20.556 " transform="matrix(-1, 0, 0, 1, 121, 11)"/>
            <path id="Fill-209" fill="#605579" stroke="none" stroke-width="1" d="M 16.619 19.015 C 16.619 19.015 16.429 18.812 16.170 18.491 C 15.911 18.168 15.578 17.730 15.268 17.277 C 14.957 16.824 14.669 16.356 14.462 15.998 C 14.256 15.640 14.135 15.389 14.135 15.389 C 14.135 15.389 14.325 15.592 14.585 15.914 C 14.843 16.236 15.176 16.673 15.486 17.127 C 15.797 17.580 16.084 18.049 16.292 18.407 C 16.498 18.764 16.619 19.015 16.619 19.015 " transform="matrix(-1, 0, 0, 1, 121, 11)"/>
            <path id="Fill-211" fill="#FFFFFF" stroke="none" stroke-width="1" d="M 8.460 10.468 C 8.460 10.161 8.709 9.912 9.016 9.912 C 9.323 9.912 9.572 10.161 9.572 10.468 C 9.572 10.775 9.323 11.025 9.016 11.025 C 8.709 11.025 8.460 10.775 8.460 10.468 " transform="matrix(-1, 0, 0, 1, 121, 11)"/>
          </g>
          <path id="Fill-213" fill="#FFFFFF" stroke="none" stroke-width="1" d="M 84.647 20.435 C 84.683 20.131 84.836 19.898 84.988 19.917 C 85.141 19.934 85.236 20.196 85.199 20.501 C 85.163 20.806 85.010 21.039 84.857 21.021 C 84.705 21.002 84.611 20.740 84.647 20.435 " transform="matrix(-1, 0, 0, 1, 213, 1)"/>
        </g>
      </g>
    </g>
  </g>
</svg>