<svg version="1.1" width="129" height="134" viewBox="-1 -1 129 134" xmlns="http://www.w3.org/2000/svg" xmlns:xlink="http://www.w3.org/1999/xlink">
  <!-- Exported by Scratch - http://scratch.mit.edu/ -->
  <g id="ID0.9768206998705864" transform="matrix(1, 0, 0, 1, -0.75, 0)">
    <g id="Page-1">
      <g id="dorian-a-[sports,basketball,people,alex-eben-meyer]">
        <path id="Shape" fill="#006482" stroke="none" stroke-width="1" d="M 48.688 70.662 L 41.600 74.656 C 42.340 79.848 55.132 83.011 65.956 83.702 C 76.780 84.393 86.984 78.722 86.984 78.722 L 48.688 70.662 Z " transform="matrix(1, 0, 0, 1, 0.75, 0)"/>
        <g id="Left-Leg">
          <path id="Shape" fill="#E6BE6E" stroke="none" stroke-width="1" d="M 20.076 34.196 L 14.400 27.546 L 17.008 18.033 L 27.652 17.545 L 24.480 27.922 L 20.076 34.196 " transform="matrix(1, 0, 0, 1, 25.75, 72)"/>
          <path id="Shape" fill="#FAF0E6" stroke="none" stroke-width="1" d="M 8.212 49.485 L 14.400 27.546 L 24.608 27.826 L 17.796 48.647 L 8.212 49.485 " transform="matrix(1, 0, 0, 1, 25.75, 72)"/>
          <path id="Shape" fill="#281446" stroke="none" stroke-width="1" d="M 13.712 22.446 L 19.064 0.703 L 35.676 0.671 L 28.348 23.097 L 13.712 22.446 " transform="matrix(1, 0, 0, 1, 25.75, 72)"/>
          <path id="Shape" fill="#00A0DC" stroke="none" stroke-width="1" d="M 0.524 59.778 L 7.140 58.919 L 17.320 59.542 L 17.084 60.840 L 0.212 60.972 L 0.524 59.778 " transform="matrix(1, 0, 0, 1, 25.75, 72)"/>
          <path id="Shape" fill="#281446" stroke="none" stroke-width="1" d="M 1.708 58.488 C 2.901 58.423 4.089 58.280 5.264 58.060 L 8.064 45.531 L 19.720 45.531 L 17.320 59.542 L 0.520 59.778 C 0.678 59.439 0.811 59.089 0.920 58.731 C 1.171 58.618 1.436 58.536 1.708 58.488 Z " transform="matrix(1, 0, 0, 1, 25.75, 72)"/>
          <path id="Oval" fill="#00A0DC" stroke="none" stroke-width="1" d="M 13.656 48.395 C 14.505 48.395 15.274 48.739 15.830 49.295 C 16.387 49.851 16.732 50.619 16.732 51.466 C 16.732 52.314 16.387 53.082 15.830 53.638 C 15.274 54.194 14.505 54.538 13.656 54.538 C 12.807 54.538 12.038 54.194 11.482 53.638 C 10.925 53.082 10.580 52.314 10.580 51.466 C 10.580 50.619 10.925 49.851 11.482 49.295 C 12.038 48.739 12.807 48.395 13.656 48.395 Z " transform="matrix(1, 0, 0, 1, 25.75, 72)"/>
          <path id="Shape" fill="#006482" stroke="none" stroke-width="1" d="M 6.704 48.519 L 9.764 48.519 L 10.016 47.740 L 6.844 47.740 L 6.704 48.519 " transform="matrix(1, 0, 0, 1, 25.75, 72)"/>
          <path id="Shape" fill="#00A0DC" stroke="none" stroke-width="1" d="M 6.356 50.340 L 9.416 50.340 L 9.668 49.557 L 6.496 49.557 L 6.356 50.340 " transform="matrix(1, 0, 0, 1, 25.75, 72)"/>
          <path id="Shape" fill="#006482" stroke="none" stroke-width="1" d="M 6.012 52.157 L 9.068 52.157 L 9.324 51.374 L 6.152 51.374 L 6.012 52.157 " transform="matrix(1, 0, 0, 1, 25.75, 72)"/>
          <path id="Shape" fill="#00A0DC" stroke="none" stroke-width="1" d="M 5.664 53.975 L 8.724 53.975 L 8.976 53.192 L 5.804 53.192 L 5.664 53.975 " transform="matrix(1, 0, 0, 1, 25.75, 72)"/>
          <path id="Shape" fill="#006482" stroke="none" stroke-width="1" d="M 5.316 55.792 L 8.376 55.792 L 8.628 55.013 L 5.456 55.013 L 5.316 55.792 " transform="matrix(1, 0, 0, 1, 25.75, 72)"/>
        </g>
        <path id="Rectangle-path" fill="#281446" stroke="none" stroke-width="1" d="M 50.876 68.301 L 76.688 68.301 L 76.688 80.287 L 50.876 80.287 L 50.876 68.301 Z " transform="matrix(1, 0, 0, 1, 0.75, 0)"/>
        <g id="Right-Leg">
          <path id="Shape" fill="#E6BE6E" stroke="none" stroke-width="1" d="M 16.432 34.196 L 22.108 27.546 L 19.504 18.033 L 8.860 17.545 L 12.028 27.922 L 16.432 34.196 " transform="matrix(1, 0, 0, 1, 66.75, 72)"/>
          <path id="Shape" fill="#FAF0E6" stroke="none" stroke-width="1" d="M 28.296 49.485 L 22.108 27.546 L 11.904 27.826 L 18.716 48.647 L 28.296 49.485 " transform="matrix(1, 0, 0, 1, 66.75, 72)"/>
          <path id="Shape" fill="#281446" stroke="none" stroke-width="1" d="M 22.800 22.446 L 17.448 0.703 L 0.836 0.671 L 8.160 23.097 L 22.800 22.446 " transform="matrix(1, 0, 0, 1, 66.75, 72)"/>
          <path id="Shape" fill="#00A0DC" stroke="none" stroke-width="1" d="M 35.988 59.778 L 29.372 58.919 L 19.192 59.542 L 19.428 60.840 L 36.300 60.972 L 35.988 59.778 " transform="matrix(1, 0, 0, 1, 66.75, 72)"/>
          <path id="Shape" fill="#281446" stroke="none" stroke-width="1" d="M 34.800 58.488 C 33.605 58.423 32.416 58.281 31.240 58.060 L 28.440 45.531 L 16.800 45.531 L 19.200 59.542 L 36 59.778 C 35.842 59.439 35.708 59.089 35.600 58.731 C 35.345 58.616 35.076 58.534 34.800 58.488 Z " transform="matrix(1, 0, 0, 1, 66.75, 72)"/>
          <path id="Oval" fill="#00A0DC" stroke="none" stroke-width="1" d="M 22.856 48.395 C 23.705 48.395 24.474 48.739 25.030 49.295 C 25.587 49.851 25.932 50.619 25.932 51.466 C 25.932 52.314 25.587 53.082 25.030 53.638 C 24.474 54.194 23.705 54.538 22.856 54.538 C 22.007 54.538 21.238 54.194 20.682 53.638 C 20.125 53.082 19.780 52.314 19.780 51.466 C 19.780 50.619 20.125 49.851 20.682 49.295 C 21.238 48.739 22.007 48.395 22.856 48.395 Z " transform="matrix(1, 0, 0, 1, 66.75, 72)"/>
          <path id="Shape" fill="#006482" stroke="none" stroke-width="1" d="M 29.808 48.519 L 26.748 48.519 L 26.496 47.740 L 29.668 47.740 L 29.808 48.519 " transform="matrix(1, 0, 0, 1, 66.75, 72)"/>
          <path id="Shape" fill="#00A0DC" stroke="none" stroke-width="1" d="M 30.152 50.340 L 27.096 50.340 L 26.844 49.557 L 30.016 49.557 L 30.152 50.340 " transform="matrix(1, 0, 0, 1, 66.75, 72)"/>
          <path id="Shape" fill="#006482" stroke="none" stroke-width="1" d="M 30.500 52.157 L 27.440 52.157 L 27.188 51.374 L 30.360 51.374 L 30.500 52.157 " transform="matrix(1, 0, 0, 1, 66.75, 72)"/>
          <path id="Shape" fill="#00A0DC" stroke="none" stroke-width="1" d="M 30.848 53.975 L 27.788 53.975 L 27.536 53.192 L 30.708 53.192 L 30.848 53.975 " transform="matrix(1, 0, 0, 1, 66.75, 72)"/>
          <path id="Shape" fill="#006482" stroke="none" stroke-width="1" d="M 31.196 55.792 L 28.136 55.792 L 27.884 55.013 L 31.056 55.013 L 31.196 55.792 " transform="matrix(1, 0, 0, 1, 66.75, 72)"/>
        </g>
        <path id="Shape" fill="#00A0DC" stroke="none" stroke-width="1" d="M 76.916 45.392 C 76.916 45.392 74.860 40.934 74.492 39.852 C 71.232 39.033 60.744 39.165 56.824 39.165 C 56.824 39.165 51.452 39.165 50.224 40.699 C 48.996 42.232 48.948 44.853 48.948 44.853 L 41.600 74.644 C 44.172 75.614 48.120 75.043 50.868 75.099 C 54.800 75.167 58.740 75.099 62.664 75.219 C 70.328 75.475 79.320 79.125 86.984 78.710 C 86.236 76.956 76.916 45.392 76.916 45.392 Z " transform="matrix(1, 0, 0, 1, 0.75, 0)"/>
        <g id="Ball">
          <path id="Shape" fill="#E6781E" stroke="none" stroke-width="1" d="M 27.036 8.579 C 22.588 0.408 16.772 0.835 14.512 0.815 C 13.800 0.815 9.736 1.135 7.464 2.473 C 5.612 3.559 1.688 7.170 0.860 10.860 C -0.112 15.213 2.184 19.647 2.184 19.647 C 4.696 25.506 11.076 27.235 16.932 26.113 C 19.357 25.664 21.659 24.704 23.684 23.297 C 24.180 22.942 26.044 21.724 27.136 18.461 C 28 15.860 29.004 12.198 27.036 8.579 Z " transform="matrix(1, 0, 0, 1, 48.75, 45)"/>
          <path id="Shape" fill="none" stroke="#824600" stroke-width="0.5" stroke-linecap="round" d="M 14.536 0.532 C 14.468 9.163 14.404 18.105 14.484 26.744 " transform="matrix(1, 0, 0, 1, 48.75, 45)"/>
          <path id="Shape" fill="none" stroke="#824600" stroke-width="0.5" stroke-linecap="round" d="M 22.712 24.052 C 17.912 20.549 16.732 13.372 18.288 7.948 C 18.879 5.742 20.136 3.770 21.888 2.301 " transform="matrix(1, 0, 0, 1, 48.75, 45)"/>
          <path id="Shape" fill="none" stroke="#824600" stroke-width="0.5" stroke-linecap="round" d="M 5.512 24.116 C 10.828 21.065 12.312 13.732 11.024 8.140 C 10.513 5.875 9.385 3.794 7.764 2.129 " transform="matrix(1, 0, 0, 1, 48.75, 45)"/>
        </g>
        <g id="Left-Arm">
          <path id="Shape" fill="#BE965A" stroke="none" stroke-width="1" d="M 53.560 10.198 C 53.304 10.669 52.656 12.531 51.792 13.445 C 50.589 14.694 49.038 15.554 47.340 15.913 C 47.832 15.290 48.492 13.225 50.060 11.752 C 51.036 10.833 52.992 10.126 53.560 10.198 Z " transform="matrix(1, 0, 0, 1, 0.75, 39)"/>
          <path id="Shape" fill="#E6BE6E" stroke="none" stroke-width="1" d="M 3.880 23.706 C -0.400 20.634 0.252 16.517 0.252 16.517 C 0.252 16.517 37.992 16.425 45.564 15.973 C 48.600 15.794 54.036 11.029 54.924 11.580 C 55.812 12.131 51.540 14.847 52.428 15.458 C 53.316 16.069 57.228 12.083 58.164 12.802 C 59.100 13.521 53.148 17.451 54.316 18.114 C 55.484 18.777 58.752 15.290 59.032 16.065 C 59.312 16.840 56.120 20.511 55.528 21.205 C 54.756 22.112 53.152 24.085 50.676 25.279 C 48.200 26.474 44.852 26.877 44.016 27.001 C 41.960 27.276 20.924 27.081 17.396 26.765 C 11.052 26.214 8.176 26.737 3.880 23.706 Z " transform="matrix(1, 0, 0, 1, 0.75, 39)"/>
          <path id="Shape" fill="#E6BE6E" stroke="none" stroke-width="1" d="M 20.256 8.588 L 43.620 8.612 L 43.620 0.704 C 41.024 0.624 29.620 0.704 28.696 0.704 C 26.820 0.704 24.952 0.740 23.096 0.808 C 19.460 0.936 16.096 1.148 12.580 2.158 C 5.600 4.135 -0.876 10.126 0.444 18.054 C 2.888 17.032 4.704 20.682 7.316 20.155 C 9.928 19.628 20.688 19.919 15.608 18.410 C 10.528 16.900 12.580 13.769 14.312 11.392 C 16.044 9.016 20.256 8.588 20.256 8.588 Z " transform="matrix(1, 0, 0, 1, 0.75, 39)"/>
          <path id="Shape" fill="#00A0DC" stroke="none" stroke-width="1" d="M 60.332 0.800 C 56.556 0.001 40.700 0.209 36.148 0.293 L 36.148 9.986 C 40.200 10.202 47.940 10.118 52.948 10.034 C 54.176 10.014 63.056 1.387 60.332 0.800 Z " transform="matrix(1, 0, 0, 1, 0.75, 39)"/>
        </g>
        <g id="Right-Arm">
          <path id="Shape" fill="#BE965A" stroke="none" stroke-width="1" d="M 12.776 17.815 C 12.228 18.042 7.320 15.262 5.996 13.361 C 5.236 12.267 5.464 11.424 6.652 11.045 C 7.840 10.665 10.064 13.082 11.052 14.492 C 11.800 15.501 12.382 16.622 12.776 17.815 Z " transform="matrix(1, 0, 0, 1, 66.75, 39)"/>
          <path id="Shape" fill="#E6BE6E" stroke="none" stroke-width="1" d="M 2.960 10.601 C 3.736 9.827 6.960 12.283 8.540 13.992 C 10.300 15.917 12.940 17.539 20.720 17.539 C 22.968 17.539 25.212 17.459 27.460 17.503 C 29.144 17.535 48.768 17.503 48.768 17.503 C 48.768 17.503 58 16.165 61.200 16.165 C 62.216 16.608 60.444 19.935 60 20.702 C 59.082 22.139 57.868 23.364 56.440 24.297 C 53.276 26.474 49.204 27.093 45.472 27.408 C 37.296 28.115 14.868 28.003 13.848 27.991 C 11.020 27.967 7.616 26.617 6.316 24.796 C 5.404 23.526 0.524 16.848 0.800 16.129 C 1.076 15.410 4.032 19.001 5.072 17.459 C 6.112 15.917 0.832 13.465 0.980 12.111 C 1.128 10.757 5.216 15.139 6.536 14.839 C 6.800 13.190 2.184 11.376 2.960 10.601 Z " transform="matrix(1, 0, 0, 1, 66.75, 39)"/>
          <path id="Shape" fill="#E6BE6E" stroke="none" stroke-width="1" d="M 58.284 7.662 C 56.071 5.403 53.317 3.746 50.284 2.845 C 45.988 1.591 25.084 1.152 20.800 1.132 L 20.132 9.327 C 22.488 9.359 43.060 9.447 43.060 9.447 C 43.060 9.447 47.580 9.507 48.828 11.288 C 50.076 13.070 49.392 14.312 48.948 15.386 C 48.332 16.860 45.080 17.878 45.080 17.878 C 45.080 17.878 55.964 18.414 61.436 17.108 C 62.360 14.376 59.972 9.383 58.284 7.662 Z " transform="matrix(1, 0, 0, 1, 66.75, 39)"/>
          <path id="Shape" fill="#00A0DC" stroke="none" stroke-width="1" d="M 24.332 0.632 L 0.264 0.541 C 0.264 0.541 9.184 10.869 10.424 10.893 C 14.556 10.961 20.248 11.208 24.332 11.201 L 24.332 0.632 Z " transform="matrix(1, 0, 0, 1, 66.75, 39)"/>
        </g>
        <g id="Head">
          <path id="Shape" fill="#642800" stroke="none" stroke-width="1" d="M 8.600 29.839 C 8.600 29.839 6.644 28.765 5.648 24.531 C 4.932 21.476 4.760 15.553 5.972 13 C 8.868 6.906 11.800 3.694 11.800 3.694 L 16.232 19.571 L 8.600 29.839 Z " transform="matrix(1, 0, 0, 1, 45.75, 0)"/>
          <path id="Shape" fill="#642800" stroke="none" stroke-width="1" d="M 29.372 29.843 C 29.372 29.843 32.504 18.089 29.772 12.349 C 27.040 6.610 23.976 5.636 23.976 5.636 L 20.924 14.958 L 29.372 29.843 Z " transform="matrix(1, 0, 0, 1, 45.75, 0)"/>
          <path id="Shape" fill="#E6BE6E" stroke="none" stroke-width="1" d="M 27.728 32.495 C 28.166 30.318 28.433 28.111 28.528 25.893 C 30.724 22.474 36.480 21.140 35.924 26.856 C 35.512 30.957 31.932 33.969 27.728 32.495 Z " transform="matrix(1, 0, 0, 1, 45.75, 0)"/>
          <path id="Shape" fill="#E6BE6E" stroke="none" stroke-width="1" d="M 9.548 32.515 C 7.818 32.617 6.083 32.427 4.416 31.952 C 3.031 31.463 1.886 30.462 1.216 29.156 C 0.520 27.934 0.172 25.486 2.476 24.128 C 4.780 22.770 7.276 24.399 8.076 25.725 C 8.808 26.959 9.292 31.045 9.548 32.515 Z " transform="matrix(1, 0, 0, 1, 45.75, 0)"/>
          <path id="Shape" fill="#E6BE6E" stroke="none" stroke-width="1" d="M 25.192 16.651 L 10.960 16.595 C 9.668 18.285 7.360 21.871 7.060 24.982 C 7.060 25.118 6.796 30.430 8.752 34.117 C 9.844 36.174 12.312 37.312 14.232 37.759 C 18.788 38.846 24.964 37.963 27.960 33.861 C 29.124 32.263 29.248 30.690 29.356 29.368 C 30.116 19.970 26.884 17.873 25.192 16.651 Z " transform="matrix(1, 0, 0, 1, 45.75, 0)"/>
          <path id="Shape" fill="#642800" stroke="none" stroke-width="1" d="M 27.800 18.772 C 26.024 19.363 10.288 20.026 8.444 19.754 C 8.044 17.238 18.044 0.212 18.044 0.212 C 18.044 0.212 27.800 16.288 27.800 18.772 Z " transform="matrix(1, 0, 0, 1, 45.75, 0)"/>
          <path id="Shape" fill="#BE965A" stroke="none" stroke-width="1" d="M 18.748 27.634 C 19.720 28.795 20.414 30.161 20.780 31.628 C 19.284 32.140 17.084 32.359 15.580 31.856 C 15.564 30.382 16.300 27.591 18.748 27.634 Z " transform="matrix(1, 0, 0, 1, 45.75, 0)"/>
          <path id="Shape" fill="#000000" stroke="none" stroke-width="1" d="M 16.812 34.748 C 16.872 34.922 16.969 35.081 17.096 35.215 C 17.812 35.203 18.528 35.236 19.240 35.315 C 19.264 35.301 19.287 35.285 19.308 35.267 C 19.464 35.143 19.536 34.942 19.496 34.748 C 18.624 34.716 17.696 34.748 16.812 34.748 Z " transform="matrix(1, 0, 0, 1, 45.75, 0)"/>
          <path id="Shape" fill="#000000" stroke="none" stroke-width="1" d="M 11.660 28.505 C 10.676 28.505 11.060 27.111 11.308 26.596 C 11.424 26.506 11.571 26.467 11.717 26.487 C 11.862 26.508 11.993 26.586 12.080 26.704 C 12.229 27.337 12.074 28.003 11.660 28.505 Z " transform="matrix(1, 0, 0, 1, 45.75, 0)"/>
          <path id="Shape" fill="#000000" stroke="none" stroke-width="1" d="M 24.768 28.641 C 23.792 28.769 23.968 27.347 24.148 26.800 C 24.251 26.696 24.391 26.637 24.538 26.637 C 24.685 26.637 24.825 26.696 24.928 26.800 C 25.167 27.405 25.108 28.086 24.768 28.641 Z " transform="matrix(1, 0, 0, 1, 45.75, 0)"/>
        </g>
      </g>
    </g>
  </g>
</svg>