<svg width="104px" height="88px" viewBox="0 0 104 88" version="1.1" xml:space="preserve" xmlns="http://www.w3.org/2000/svg" xmlns:xlink="http://www.w3.org/1999/xlink">
  <g>
    <title>Slice 1</title>
    <desc>Created with Sketch.</desc>
    <g id="Page-1" stroke="none" stroke-width="1" fill="none" fill-rule="evenodd">
      <g id="city_Motorcyle-01" transform="translate(1.000000, 0.000000)">
        <g id="Back-tire" transform="translate(64.000000, 63.000000)">
          <circle id="Oval" stroke="#5E154D" stroke-width="0.72" fill="#B3E0D7" cx="12.14" cy="12.18" r="5.26"/>
          <path d="M24.2,11.64 C23.8754754,5.03663898 18.2710284,-0.06030082 11.6665919,0.24154692 C5.06215544,0.54339466 -0.053999134,6.1303065 0.22516818,12.7357405 C0.50433549,19.3411746 6.0736463,24.4764836 12.68,24.22 C15.8816097,24.0957014 18.9005569,22.6962172 21.0644022,20.3332682 C23.2282474,17.970319 24.357273,14.8401594 24.2,11.64 Z M12.36,16.8 C9.8084445,16.9159798 7.6459798,14.9415555 7.53,12.39 C7.4140202,9.8384445 9.3884445,7.6759798 11.94,7.56 C14.4915555,7.44402028 16.6540201,9.4184445 16.7699999,11.97 C16.8859797,14.5215555 14.9115555,16.6840201 12.36,16.8 Z" id="Shape" stroke="#5E154D" stroke-width="0.96" fill="#5E154D" fill-rule="nonzero" stroke-linecap="round"/>
          <circle id="Oval" stroke="#8B49D4" stroke-width="0.72" fill="#FFFFFF" stroke-linecap="round" cx="12.14" cy="12.18" r="2.04"/>
        </g>
        <g id="Front-Tire" transform="translate(1.000000, 63.000000)">
          <circle id="Oval" stroke="#5E154D" stroke-width="0.72" fill="#B3E0D7" cx="12.1" cy="11.72" r="5.26"/>
          <path d="M24.28,11.52 C23.9554754,4.91663898 18.3510284,-0.18030082 11.7465919,0.12154692 C5.14215544,0.42339466 0.026000866,6.0103065 0.305168178,12.6157405 C0.584335492,19.2211746 6.1536463,24.3564836 12.76,24.1 C15.9616097,23.9757014 18.9805569,22.5762172 21.1444022,20.2132682 C23.3082474,17.850319 24.437273,14.7201594 24.28,11.52 Z M12.42,16.68 C9.8745527,16.7872914 7.72268376,14.8137195 7.60996244,12.2685069 C7.49724112,9.7232943 9.46621798,7.56722004 12.0111844,7.44906932 C14.5561507,7.3309186 16.7164204,9.2952915 16.84,11.84 C16.9530408,14.3960134 14.9757517,16.5611897 12.42,16.68 Z" id="Shape" stroke="#5E154D" stroke-width="0.96" fill="#5E154D" fill-rule="nonzero" stroke-linecap="round"/>
          <circle id="Oval" stroke="#8B49D4" stroke-width="0.72" fill="#FFFFFF" stroke-linecap="round" cx="12.22" cy="12.06" r="2.04"/>
        </g>
        <g id="Body-of-Bike" transform="translate(0.000000, 22.000000)">
          <path d="M94.04,29.54 C93.1771132,29.6434834 92.326404,29.8310414 91.5,30.1 C92.5889548,31.1533912 93.6236248,32.2614894 94.6,33.42 C95.5938824,34.6937188 96.4518794,36.0678544 97.16,37.52 L99.16,36.44 C98.077065,33.7368744 96.3132592,31.3598706 94.04,29.54 Z" id="Path" fill="#D974E8"/>
          <path d="M91.5,30.1 C90.6944706,30.3358562 89.9166598,30.657709 89.18,31.06 L95,38.68 L97,37.52 C96.2918794,36.0678544 95.4338824,34.6937188 94.44,33.42 C93.5155582,32.2653514 92.5343498,31.1573204 91.5,30.1 Z" id="Path" fill="#8B49D4"/>
          <path d="M94.04,29.54 C93.1771132,29.6434834 92.326404,29.8310414 91.5,30.1 C90.6944706,30.3358562 89.9166598,30.657709 89.18,31.06 L95,38.68 L97,37.52 L99,36.44 C97.962125,33.7546624 96.2546876,31.3793968 94.04,29.54 Z" id="Path" stroke="#5E154D" stroke-width="0.72" stroke-linecap="round" stroke-linejoin="round"/>
          <path d="M32.7,42.18 C32.7,42.18 34.5,45.68 34.7,46.18 C35.1270332,46.9715488 35.9607858,47.4579044 36.86,47.44 L57.26,47.44 L57.26,52.2 L33.18,52.2 L29.18,43.9 L32.7,42.18 Z" id="Path" stroke="#5E154D" stroke-width="0.72" fill="#5E154D" stroke-linecap="round" stroke-linejoin="round"/>
          <path d="M2.74,35.46 C4.75153924,34.7145714 6.9781803,34.8082488 8.92,35.72 L10,38 L5,40.36 L2.74,35.46 Z" id="Path" stroke="#5E154D" stroke-width="0.96" fill="#D974E8" stroke-linejoin="round"/>
          <path d="M35.8,37.68 C35.24,36.42 31.14,27.68 30.62,26.66 C30.1,25.64 29.62,25.36 28.78,25.36 L26.02,25.36 L34.34,42.78 C35.9422566,41.6185036 36.5448872,39.5134238 35.8,37.68 Z" id="Path" fill="#D974E8"/>
          <path d="M21.18,25.36 L30.36,45.04 C31.7375812,44.367816 33.0733424,43.6131108 34.36,42.78 L26.04,25.36 L21.18,25.36 Z" id="Path" fill="#8B49D4"/>
          <path d="M35.8,37.68 C35.24,36.42 31.14,27.68 30.62,26.66 C30.1,25.64 29.62,25.36 28.78,25.36 L21.18,25.36 L30.36,45.04 C31.7375812,44.367816 33.0733424,43.6131108 34.36,42.78 C35.9549972,41.6129374 36.5490734,39.5089178 35.8,37.68 Z" id="Path" stroke="#5E154D" stroke-width="0.72" stroke-linecap="round" stroke-linejoin="round"/>
          <path d="M3.82,40.86 L2.6,38.14 C2.04,36.9 1.94,35.84 2.74,35.46 C3.54,35.08 4.4,36.22 4.74,37.14 L5.96,39.84 L3.82,40.86 Z" id="Path" stroke="#5E154D" stroke-width="0.96" fill="#FDBB38" stroke-linejoin="round"/>
          <path d="M19.36,0.42 L27.88,0.42 C29.88,0.42 30.36,1.64 29.88,3.56 C29.4,5.48 25.22,22.46 24.6,25.72 C23.8352422,28.1189608 23.9057404,30.7062442 24.8,33.06 C25.8,35.3 31.86,46.78 32.8,48.26 C33.94,50.26 34.38,50.48 36.14,50.48 L53.2,50.48 C54.82,50.48 58.94,46.2 58.26,40.04 C57.54,33.54 52.72,26.24 52.72,26.24 L82.88,26.24 C91.7059546,31.3781732 97.6245264,40.3448096 98.88,50.48 L68.6,50.48 L67.32,55.44 L32.2,55.44 C29.94,55.44 29.64,54.6 28.52,52.62 C27.2,50.3 21.12,40.04 21.12,40.04 L13.12,40.04 L13.12,33.3 C15.039752,31.956484 16.6999468,30.2759604 18.02,28.34 C19.36,26.02 22.02,13.2 22.3,11.88 C22.58,10.56 22.06,9.88 20.98,9.88 L17.12,9.88 L19.36,0.42 Z" id="Path" stroke="#5E154D" stroke-width="0.96" fill="#8B49D4" stroke-linecap="round" stroke-linejoin="round"/>
          <path d="M88.2,52.64 L100.2,52.64 C101.4,52.64 101.68,52.3 101.68,51.12 L101.68,48.44 C101.68,47.3 101.24,46.9 100.1,46.9 L88.1,46.9 L88.2,52.64 Z" id="Path" stroke="#5E154D" stroke-width="0.96" fill="#8B49D4" stroke-linecap="round" stroke-linejoin="round"/>
          <path d="M62.3,41.42 C64.6221368,35.7972162 70.2231856,32.2365494 76.3,32.52 C86.18,32.52 94.04,41.24 94.04,47.58 C94.1551696,48.9136646 93.6937284,50.2328082 92.772352,51.2038852 C91.8509758,52.1749624 90.5578712,52.705008 89.22,52.66 L79.52,52.66 C67.96,52.66 65.52,52.9 63.66,51.46 C61,49.34 60.66,45.66 62.3,41.42 Z" id="Path" stroke="#5E154D" stroke-width="1.2" fill="#DA53D6" stroke-linejoin="round"/>
          <path d="M19.32,0.42 C21.32,0.42 21.72,3.5 21.32,5.54 C20.92,7.58 19.4,9.88 17,9.88 C14.6,9.88 14.42,7.08 15,4.94 C15.58,2.8 17.22,0.42 19.32,0.42 Z" id="Path" stroke="#5E154D" stroke-width="0.96" fill="#FDBB38" stroke-linejoin="round"/>
          <path d="M18.86,3.02 C19.64,3.12 19.62,4.36 19.36,5.3 C19.1,6.24 18.42,7.6 17.52,7.44 C16.62,7.28 16.7,6 17,4.94 C17.3,3.88 17.9,2.9 18.86,3.02 Z" id="Path" stroke="#FDE982" stroke-width="0.5" fill="#FFFFFF" stroke-linejoin="round"/>
          <path d="M0.26,43.08 C3.23296686,38.9234974 7.99092006,36.4111202 13.1,36.3 C18.346794,35.940254 23.352606,38.5513104 26.06,43.06 C27.7043536,46.0623644 28.8014474,49.3333296 29.3,52.72 L21,52.72 C20.5305938,48.7108906 17.2133367,45.6396704 13.18,45.48 C10.1080596,45.2302004 7.11190218,46.518548 5.18,48.92 L0.26,43.08 Z" id="Path" stroke="#5E154D" stroke-width="0.96" fill="#DA53D6" stroke-linejoin="round"/>
          <g id="Seat" transform="translate(50.000000, 15.000000)">
            <path d="M33.78,3.32 C33.54,1.52 32.72,0.64 30.48,0.8 C28.24,0.96 5.66,2.8 3.1,3.06 C0.92,3.28 0.16,3.7 0.16,5.48 L0.16,6.86 L33.92,4.5 C33.86,4.04 33.82,3.64 33.78,3.32 Z" id="Path" fill="#F7C1D8"/>
            <path d="M33.92,4.5 L0.16,6.86 L0.16,10.6 C0.16,12.28 0.7,12.94 2.4,12.94 L31.92,12.94 C33.6,12.94 34.98,12.68 34.64,10.6 C34.38,9 34.12,6.34 33.92,4.5 Z" id="Path" fill="#D974E8"/>
            <path d="M34.64,10.6 C34.38,8.94 34.12,6.34 33.92,4.6 C33.92,4.14 33.92,3.74 33.78,3.42 C33.54,1.62 32.72,0.74 30.48,0.9 C28.24,1.06 5.66,2.9 3.1,3.16 C0.92,3.38 0.16,3.8 0.16,5.58 L0.16,10.6 C0.16,12.28 0.7,12.94 2.4,12.94 L31.92,12.94 C33.6,13 35,12.68 34.64,10.6 Z" id="Path" stroke="#5E154D" stroke-width="0.96" stroke-linecap="round" stroke-linejoin="round"/>
          </g>
          <g id="Highlight" transform="translate(17.000000, 36.000000)">
            <path d="M71.44,6.38 C71.754995,6.85268496 72.0229404,7.3550828 72.24,7.88" id="Path" stroke="#FFFFFF" stroke-width="1.2"/>
            <path d="M63.78,0.6 C66.1572156,1.33981999 68.2826584,2.72447334 69.92,4.6" id="Path" stroke="#FFFFFF" stroke-width="1.2"/>
            <path d="M6.6,8.78 C7,9.38 6.92,9.38 7.28,10" id="Path" stroke="#FFFFFF" stroke-width="1.2"/>
            <path d="M0,3.64 C2.0879781,4.10310088 3.96492792,5.24192438 5.34,6.88" id="Path" stroke="#FFFFFF" stroke-width="1.2"/>
            <path d="M32.48,17.42 L34.26,17.42" id="Path" stroke="#D974E8" stroke-width="0.96"/>
            <path d="M21.52,17.42 L30.8,17.42" id="Path" stroke="#D974E8" stroke-width="0.96"/>
          </g>
        </g>
        <polygon id="Path" stroke="#FDBB38" stroke-width="0.5" fill="#FDBB38" stroke-linejoin="round" points="72.42 61.26 73.56 63.6 76.14 63.98 74.28 65.78 74.72 68.36 72.42 67.14 70.12 68.36 70.56 65.78 68.68 63.98 71.26 63.6"/>
        <g id="Mirror" transform="translate(25.000000, 0.000000)">
          <path d="M10.7,9.46 L10.42,0.8 C10.42,0.8 6.42,5.16 6.42,9.46 C6.42,13.76 10.42,18.12 10.42,18.12 L10.7,9.48 L10.7,9.46 Z" id="Path" stroke="#5E154D" stroke-width="0.72" fill="#8B49D4" stroke-linecap="round" stroke-linejoin="round"/>
          <path d="M0.22,22.42 C0.593813264,19.8817019 1.10118403,17.3648758 1.74,14.88 C2.3,13.44 6.56,11.02 6.56,11.02 L7.28,13.26 C6.02316724,13.9788376 4.837795,14.8159649 3.74,15.76 C3.42,16.32 2.54,22.42 2.54,22.42 L0.22,22.42 Z" id="Path" stroke="#5E154D" stroke-width="0.72" fill="#8B49D4" stroke-linecap="round" stroke-linejoin="round"/>
          <path d="M15.5,2.56 C15.5,1.4 15.7,0.76 15.7,0.76 L10.4,0.76 C10.0037481,3.64363714 9.78998936,6.5494194 9.76,9.46 C9.76,10.18 9.76,10.88 9.76,11.46 C9.76,13.34 9.96,14.92 10.08,16.06 C10.2,17.2 10.36,18.06 10.36,18.06 L15.66,18.06 C15.3492763,15.170283 15.1890599,12.2663605 15.18,9.36 C15.22,6.44 15.36,4 15.5,2.56 Z" id="Path" fill="#D4FFF5"/>
          <path d="M14.22,0.76 L10.22,16.14 C10.36,17.42 10.5,18.14 10.5,18.14 L15.14,0.74 L14.22,0.76 Z" id="Path" fill="#B3E0D7"/>
          <path d="M10.4,0.76 C10.0037481,3.64363714 9.78998936,6.5494194 9.76,9.46 C9.76,10.18 9.76,10.88 9.76,11.46 L12.62,0.68 L10.4,0.76 Z" id="Path" fill="#B3E0D7"/>
          <path d="M12.66,0.76 L9.8,11.54 C9.8,13.42 10,15 10.12,16.14 L14.12,0.76 L12.66,0.76 Z" id="Path" fill="#D4FFF5"/>
          <path d="M15.7,0.76 L15.04,0.76 L10.4,18.16 L11.34,18.16 L15.5,2.56 C15.6,1.4 15.7,0.76 15.7,0.76 Z" id="Path" fill="#D4FFF5"/>
          <path d="M15.22,9.46 C15.22,6.44 15.36,4.06 15.5,2.56 L11.34,18.16 L15.7,18.16 C15.3892763,15.270283 15.2290599,12.3663605 15.22,9.46 Z" id="Path" fill="#B3E0D7"/>
          <path d="M15.5,2.56 C15.5,1.4 15.7,0.76 15.7,0.76 L10.4,0.76 C10.0037481,3.64363714 9.78998936,6.5494194 9.76,9.46 C9.76,10.18 9.76,10.88 9.76,11.46 C9.76,13.34 9.96,14.92 10.08,16.06 C10.2,17.2 10.36,18.06 10.36,18.06 L15.66,18.06 C15.3492763,15.170283 15.1890599,12.2663605 15.18,9.36 C15.22,6.44 15.36,4 15.5,2.56 Z" id="Path" stroke="#5E154D" stroke-width="0.72" stroke-linecap="round" stroke-linejoin="round"/>
        </g>
        <g id="Handlebars" transform="translate(24.000000, 27.000000)">
          <path d="M7.42,6.22602983 L13.5800008,5.88 C13.5806054,5.01925524 12.9001395,4.31227772 12.04,4.28 L6.58,4.28 C5.96,4.28 4.58,2.28 3.8,1.34 C3.35728542,0.68409908 2.58612168,0.32936375 1.8,0.42 C1.5624131,0.45688928 0.898380553,0.839565225 0.718039773,0.998579545 C2.09803977,2.59857955 4.51705256,5.30240057 4.79705256,5.64240057 C5.07705256,5.98240057 6.16,6.22602983 7.42,6.22602983 Z" id="Path" fill="#F7C1D8"/>
          <path d="M7.38,5.88 C6.12,5.88 5.6,5.88 5.12,5.36 C4.64,4.84 2.44,2.34 1.12,0.74 C0.77840666,1.02926608 0.57172306,1.4469772 0.54899225,1.89401656 C0.52626144,2.3410559 0.68950949,2.77757712 1,3.1 C1.72,3.96 2.14,4.44 3,5.34 C4.08,6.56 4.9,7.34 5.7,7.34 L12.2,7.34 C13.0492387,7.31855812 13.7295174,6.6294447 13.74,5.78 L7.54,5.78 L7.38,5.88 Z" id="Path" fill="#D974E8"/>
          <path d="M13.58,5.88 C13.5806054,5.01925524 12.9001395,4.31227772 12.04,4.28 L6.58,4.28 C5.96,4.28 4.58,2.28 3.8,1.34 C3.35728542,0.68409908 2.58612168,0.32936375 1.8,0.42 C1.5624131,0.45688928 1.34034078,0.56098568 1.16,0.72 C0.8064265,1.00370234 0.58789822,1.42257186 0.5574914,1.87487338 C0.52708457,2.32717488 0.68758128,2.77152508 1,3.1 C1.72,3.96 2.14,4.44 3,5.34 C4.08,6.56 4.9,7.34 5.7,7.34 L12.2,7.34 C13.0492387,7.31855812 13.6095174,6.7294447 13.62,5.88 L13.58,5.88 Z" id="Path" stroke="#5E154D" stroke-width="0.72" stroke-linecap="round" stroke-linejoin="round"/>
        </g>
      </g>
    </g>
  </g>
</svg>