<svg width="74px" height="61px" viewBox="0 0 74 61" version="1.1" xml:space="preserve" xmlns="http://www.w3.org/2000/svg" xmlns:xlink="http://www.w3.org/1999/xlink">
  <!-- Generator: Sketch 50.2 (55047) - http://www.bohemiancoding.com/sketch -->
  <defs/>
  <g>
    <title>Slice 1</title>
    <desc>Created with Sketch.</desc>
    <g id="Page-1" stroke="none" stroke-width="1" fill="none" fill-rule="evenodd">
      <g id="hat-c-[people,fashion,hat].]" transform="translate(1.000000, 1.000000)">
        <circle id="Oval" stroke="#149948" stroke-width="0.96" fill="#C9E2B3" fill-rule="nonzero" cx="32.808" cy="3.212" r="3.192"/>
        <g id="Group" transform="translate(0.000000, 2.600000)">
          <path d="M25.02,43.896 C29.8011419,48.4228759 35.6124635,51.7177428 41.952,53.496 C53.292,56.688 64.68,55.692 69.432,51.408 C74.184,47.124 70.848,39.48 65.244,35.808 L25.02,43.896 Z" id="Shape" stroke="#149948" stroke-width="0.96" fill="#C9E2B3" fill-rule="nonzero"/>
          <path d="M41.58,2.172 C38.7149704,1.43436956 35.7663893,1.07134317 32.808,1.092 C37.176,1.092 46.116,12 49.056,22.692 C50.696412,29.0240914 51.8319732,35.4763259 52.452,41.988 C55.436137,41.1827646 58.3157384,40.030924 61.032,38.556 C59.652,26.556 57.06,19.164 52.344,12.492 C49.3933334,8.44355995 45.7490698,4.94961714 41.58,2.172 Z" id="Shape" fill="#FF7BD0" fill-rule="nonzero"/>
          <path d="M41.58,2.172 C45.7568584,4.92837296 49.413192,8.40188984 52.38,12.432 C57.096,19.104 59.688,26.448 61.068,38.496 C62.5348542,37.6801547 63.9423457,36.7618768 65.28,35.748 C65.7,35.4 63.732,7.98 41.58,2.172 Z" id="Shape" fill="#FFA1E2" fill-rule="nonzero"/>
          <path d="M32.808,1.092 C30.54,1.092 24.84,13.572 23.004,23.892 C21.8447279,30.3465109 21.2026876,36.8832832 21.084,43.44 C24.9740821,43.9091736 28.8897866,44.1336152 32.808,44.112 C39.4269976,44.2482024 46.0342402,43.4934349 52.452,41.868 C51.8319732,35.3563259 50.696412,28.9040914 49.056,22.572 C46.116,12 37.2,1.092 32.808,1.092 Z" id="Shape" fill="#FFFF4F" fill-rule="nonzero"/>
          <path d="M32.808,1.092 C2.364,1.092 -0.144,35.352 0.408,35.748 C6.168,40.164 13.14,42.48 21.132,43.5 C21.2373853,36.9606132 21.863364,30.4400027 23.004,24 C24.84,13.572 30.54,1.092 32.808,1.092 Z" id="Shape" fill="#149948" fill-rule="nonzero"/>
          <path d="M32.808,1.092 C2.364,1.092 -0.144,35.352 0.408,35.748 C6.168,40.164 13.14,42.48 21.132,43.5 C25.0220821,43.9691736 28.9377866,44.1936152 32.856,44.172 C39.4749976,44.3082024 46.0822402,43.5534349 52.5,41.928 C57.1237268,40.7151594 61.4680708,38.616344 65.292,35.748 C65.748,35.352 63.24,1.092 32.808,1.092 Z" id="Shape" stroke="#149948" stroke-width="0.96"/>
          <path d="M69.24,45.744 C69.408,47.424 68.64,49.344 66.216,50.628" id="Shape" stroke="#FFFFFF" stroke-width="1.272" stroke-linecap="round" stroke-linejoin="round"/>
          <path d="M67.716,41.928 C68.0811727,42.3771738 68.3839168,42.873674 68.616,43.404" id="Shape" stroke="#FFFFFF" stroke-width="1.272" stroke-linecap="round" stroke-linejoin="round"/>
          <path d="M4.8,31.476 C4.8,31.476 4.596,32.4 4.392,34.02" id="Shape" stroke="#047F30" stroke-width="1.92" stroke-linecap="round" stroke-linejoin="round"/>
          <path d="M9.288,18.696 C7.57949912,21.6696109 6.31034486,24.8748317 5.52,28.212" id="Shape" stroke="#047F30" stroke-width="1.92" stroke-linecap="round" stroke-linejoin="round"/>
        </g>
        <path d="M38.496,39.596 C36.6477062,39.5505752 34.8905045,38.7839529 33.6,37.46 C33.0435562,37.0589431 32.7700476,36.3716925 32.8987532,35.6979632 C33.0274588,35.0242339 33.5350394,34.4861984 34.2001356,34.3184979 C34.8652318,34.1507973 35.5672362,34.3838422 36,34.916 C36.777806,35.8123418 37.990012,36.200988 39.144,35.924 C39.7038858,35.7670324 40.1210441,35.2983152 40.212,34.724 C40.212,34.304 40.44,33.032 37.32,32.18 C35.0663645,31.6959747 33.3439616,29.8733767 32.988,27.596 C32.8194096,25.6082019 33.9198082,23.7293553 35.736,22.904 C37.7558003,22.0394943 40.077147,22.2657464 41.892,23.504 C42.419324,23.8512621 42.7213295,24.4534696 42.6842536,25.0837767 C42.6471778,25.7140838 42.2766534,26.2767319 41.7122536,26.5597767 C41.1478537,26.8428217 40.475324,26.8032622 39.948,26.456 C39.948,26.456 38.424,25.52 37.344,26.072 C37.008,26.24 36.444,26.624 36.504,27.272 C36.564,27.92 37.044,28.472 38.244,28.808 C43.86,30.2 44.004,33.8 43.812,35.18 C43.5380746,37.0812264 42.2144188,38.664969 40.392,39.272 C39.7828004,39.4861752 39.1417514,39.5957216 38.496,39.596 Z" id="Shape" stroke="#149948" stroke-width="0.636" fill="#FFA1E2" fill-rule="nonzero"/>
      </g>
    </g>
  </g>
</svg>