<?xml version="1.0" encoding="utf-8"?>
<!-- Generator: Adobe Illustrator 18.0.0, SVG Export Plug-In . SVG Version: 6.00 Build 0)  -->
<!DOCTYPE svg PUBLIC "-//W3C//DTD SVG 1.1//EN" "http://www.w3.org/Graphics/SVG/1.1/DTD/svg11.dtd">
<svg version="1.1" id="Layer_2" xmlns="http://www.w3.org/2000/svg" xmlns:xlink="http://www.w3.org/1999/xlink" x="0px" y="0px"
	 viewBox="0 0 45.5 52" enable-background="new 0 0 45.5 52" xml:space="preserve">
<g>
	<path fill="#53AD4E" d="M45.2,44.8c-0.3,0-0.8,0-1.2-0.2c-0.9-0.3-1.9-0.5-2.6-1.1c-2-1.8-3-4.3-3.8-6.9c-0.6-2.1-1.1-4.2-1.8-6.3
		c-0.5-1.6-1.4-3.1-3.1-3.8c-0.8-0.3-1.5-0.5-2.3-0.8c1.1-0.5,2.1-0.9,3.1-1.5c0.9-0.6,1.9-1.1,2.6-1.9c1.6-1.8,2.6-3.9,3.2-6.2
		c0.6-2.2,0.4-4.5-0.3-6.7c-0.9-3-2.6-5.3-5-7.2c-0.7-0.5-1.7-0.8-2.6-1.1c-1.4-0.4-2.9-0.8-4.3-0.9c-2.6-0.1-5.2,0-7.8,0
		c-2.3,0-4.6-0.2-6.9-0.3C10,0,7.4,0.1,4.9,0.1c-0.2,0-0.5,0.1-0.6,0.2C2.8,1.1,1.6,2.2,0.6,3.6C0,4.3,0,5,0.2,5.8
		C0.3,6.3,0.5,6.4,1,6.4c1-0.1,2-0.1,3,0c0.6,0,1.3,0.2,1.4,1c0.1,1.7,0.2,3.3,0.2,5c0,1.1-0.2,2.1-0.2,3.1
		c0.1,3.5,0.3,6.9,0.3,10.3c0,3.2-0.1,6.5-0.1,9.7c0,3-0.1,6-0.2,9c0,0.1,0,0.1,0,0.1c-0.3,0.2-0.7,0.2-0.9,0.4
		c-1.2,1.2-2.4,2.4-3.6,3.6c-0.8,0.8-0.9,1.7-0.6,2.8C0.2,51.7,0.5,52,0.8,52c1.7-0.1,3.4-0.3,5.1-0.3c3.2,0,6.5-0.6,9.7-0.1
		c0.3,0,0.7-0.1,0.9-0.2c0.8-0.9,1.5-1.8,2.2-2.7c0.2-0.3,0.5-0.7,0.6-1c0.1-0.7,0-1.4,0-2.1c0-0.2-0.3-0.4-0.5-0.4
		c-0.7-0.1-1.4-0.1-2-0.3c-1.3-0.2-1.7-0.8-1.7-2c0-2.5,0-5.1,0-7.6c0-1.5,0-3,0-4.6c2.7,0.3,5.3,0,7.7,1.3c1.3,0.7,2.6,1.4,3.2,2.8
		c0.8,1.6,1.4,3.3,2.1,5c0.5,1.3,1.1,2.6,1.7,3.8c0.1,0.2,0.2,0.5,0.3,0.7c0.7,1.9,1.8,3.5,3.7,4.4c2.4,1.1,5,1.7,7.7,1.8
		c0.2,0,0.4,0,0.6-0.2c0.7-0.7,1.5-1.4,2-2.2C44.8,47,46,46.3,45.2,44.8z M0.6,5.5c0.1-0.4,0.1-0.8,0.3-1C2,3.2,3.1,2,4.3,0.8
		C4.4,0.8,4.5,0.9,4.6,1C4.5,1.4,4.5,2,4.3,2.2C3.1,3.3,1.9,4.3,0.6,5.5z M4.1,5.6c-0.7,0-1.5,0-2.2,0C2.3,4.7,3.2,4.1,4,3.4
		c0.9-0.8,1.8-1,2.9-0.9C7.8,2.6,8.4,3,8.4,4c0,1.4-0.1,2.8-0.1,4.1c0,1.6,0.1,3.3,0.1,4.9c0,2-0.1,4-0.2,5.9c0,3.4,0,6.7,0,10.1
		c0,0.3,0,0.5,0,0.8c0.1,3.7,0.1,7.4,0.1,11c0,0.8-0.1,1.7,0,2.5c0,0.9-0.4,1.2-1.2,1.4c-0.5,0.1-0.9,0.1-1.3,0.2
		C5.9,44.4,6,43.9,6,43.4c0.1-5.8,0.3-11.7,0.3-17.5c0-3.5-0.2-7-0.3-10.6c0-0.6,0.1-1.2,0.2-1.8c0.3-2.2,0.2-4.3-0.2-6.4
		C5.7,6.3,5.1,5.7,4.1,5.6z M0.8,51c-0.4-0.7,0.1-1.2,0.4-1.6c0.9-1.1,1.9-2.2,2.8-3.3C4.1,46,4.2,46,4.4,45.9
		c0.3,0.9-0.2,1.5-0.6,2.1c-0.8,1-1.7,1.9-2.6,2.8C1.1,50.9,0.9,51,0.8,51z M18.4,47.8c0,0,0,0,0.3,0.3c-0.5,0.4-1,0.8-1.5,1.2
		c-0.2,0.2-0.5,0.3-0.5,0.6c-0.4,1.1-1.1,1-2.1,0.9c-1.5-0.1-3,0-4.5,0.1C8.2,50.9,6.2,51,4.3,51c-0.8,0-1.6,0.1-2.5,0.2
		c0.5-0.6,0.9-1.1,1.3-1.6c0.5-0.6,1-1.1,1.5-1.7c0.2-0.2,0.5-0.4,0.8-0.4C9.8,47.6,14.1,47.7,18.4,47.8z M15.6,4.5
		c0-0.2,0.2-0.6,0.4-0.7c1-0.6,2.1-0.9,3.2-0.8c1.1,0.1,2.3,0.2,3.5,0.2c4.3-0.2,9.1,3,10.4,7.6c0.8,2.6,0.3,5.1-0.8,7.5
		c-0.7,1.5-1.7,2.8-3.1,3.8c-0.5,0.3-1,0.6-1.5,0.9c0,0-0.1-0.1-0.1-0.1c0.6-0.5,1.3-1,1.8-1.6c2.1-3,2.2-6.4,1.3-9.8
		c-0.4-1.5-1.8-2.4-3.2-3.2c-1.8-1-3.7-1.1-5.6-1.1c-2.1-0.1-4.2,0-6.4,0C15.5,6.1,15.5,5.3,15.6,4.5z M15.8,7.5c2.5,0,5.1,0,7.6,0
		c1.9,0,3.6,0.8,5,1.9c0.9,0.7,1.4,2,1.7,3.1c0.5,1.7,0.3,3.4-0.1,5.1c-0.6,2.8-2.7,4.8-5.5,5.4c-1.9,0.4-3.8,0.7-5.6,1.4
		c-1.1,0.4-2,1.4-3,2.2c-0.2,0.2-0.3,0.4-0.6,0.5C15.4,20.6,14.8,14,15.8,7.5z M15.9,27.5c0.8-0.6,1.6-1.2,2.4-1.9
		c0.2,0.7-0.1,1.1-0.6,1.5c-0.9,0.7-1.7,1.5-2.5,2.3C15,28.3,15.1,28,15.9,27.5z M41.4,49.6c-0.1,0.1-0.2,0.1-0.4,0.1
		c-2.6-0.3-5.2-0.7-7.5-2.2c-1.3-0.8-2.3-1.8-2.7-3.5c-0.1-0.3-0.2-0.6-0.4-1c-0.6-1.3-1.1-2.6-1.7-3.9c-0.2-0.4-0.4-0.8-0.6-1.3
		c-0.3-0.7-0.5-1.5-0.8-2.2c-0.5-1.4-1.3-2.6-2.4-3.4c-1.8-1.3-3.8-2.2-6-2.2c-1.1,0-2.2-0.1-3.4-0.2c1.2-1,2.4-2.1,3.6-3.1
		c0.1-0.1,0.3-0.1,0.5-0.1c2.3,0.3,4.7,0.1,6.8,1.2c1.5,0.8,2.5,2.1,3.5,3.5c1.4,2,1.9,4.2,2.6,6.5c0.6,2.2,1.4,4.3,2.9,6.1
		c1.3,1.6,3.2,2.3,5.2,2.5c1.2,0.1,2.3,0.3,3.3,0.4C43.1,47.8,42.3,48.7,41.4,49.6z"/>
	<path fill="#FFFFFF" d="M18.7,48.1c-0.5,0.4-1,0.8-1.5,1.2c-0.2,0.2-0.5,0.3-0.5,0.6c-0.4,1.1-1.1,1-2.1,0.9c-1.5-0.1-3,0-4.5,0.1
		C8.2,50.9,6.2,51,4.3,51c-0.8,0-1.6,0.1-2.5,0.2c0.5-0.6,0.9-1.1,1.3-1.6c0.5-0.6,1-1.1,1.5-1.7c0.2-0.2,0.5-0.4,0.8-0.4
		c4.3,0,8.6,0.1,12.9,0.2C18.4,47.8,18.4,47.8,18.7,48.1z"/>
	<path fill="#FFFFFF" d="M3.7,48c-0.8,1-1.7,1.9-2.6,2.8C1.1,50.9,0.9,51,0.8,51c-0.4-0.7,0.1-1.2,0.4-1.6c0.9-1.1,1.9-2.2,2.8-3.3
		C4.1,46,4.2,46,4.4,45.9C4.7,46.8,4.2,47.5,3.7,48z"/>
	<path fill="#FFFFFF" d="M4.6,1C4.5,1.4,4.5,2,4.3,2.2C3.1,3.3,1.9,4.3,0.6,5.5c0.1-0.4,0.1-0.8,0.3-1C2,3.2,3.1,2,4.3,0.8
		C4.4,0.8,4.5,0.9,4.6,1z"/>
	<path fill="#FFFFFF" d="M8.2,18.9c0,3.4,0,6.7,0,10.1c0,0.3,0,0.5,0,0.8c0.1,3.7,0.1,7.4,0.1,11c0,0.8-0.1,1.7,0,2.5
		c0,0.9-0.4,1.2-1.2,1.4c-0.5,0.1-0.9,0.1-1.3,0.2C5.9,44.4,6,43.9,6,43.4c0.1-5.8,0.3-11.7,0.3-17.5c0-3.5-0.2-7-0.3-10.6
		c0-0.6,0.1-1.2,0.2-1.8c0.3-2.2,0.2-4.3-0.2-6.4C5.7,6.3,5.1,5.7,4.1,5.6c-0.7,0-1.5,0-2.2,0C2.3,4.7,3.2,4.1,4,3.4
		c0.9-0.8,1.8-1,2.9-0.9C7.8,2.6,8.4,3,8.4,4c0,1.4-0.1,2.8-0.1,4.1c0,1.6,0.1,3.3,0.1,4.9C8.3,15,8.2,17,8.2,18.9z"/>
	<path fill="#FFFFFF" d="M32.3,18.2c-0.7,1.5-1.7,2.8-3.1,3.8c-0.5,0.3-1,0.6-1.5,0.9c0,0-0.1-0.1-0.1-0.1c0.6-0.5,1.3-1,1.8-1.6
		c2.1-3,2.2-6.4,1.3-9.8c-0.4-1.5-1.8-2.4-3.2-3.2c-1.8-1-3.7-1.1-5.6-1.1c-2.1-0.1-4.2,0-6.4,0c0-0.7,0-1.5,0-2.3
		c0-0.2,0.2-0.6,0.4-0.7c1-0.6,2.1-0.9,3.2-0.8c1.1,0.1,2.3,0.2,3.5,0.2c4.3-0.2,9.1,3,10.4,7.6C33.8,13.3,33.4,15.8,32.3,18.2z"/>
	<path fill="#FFFFFF" d="M17.7,27.1c-0.9,0.7-1.7,1.5-2.5,2.3c-0.2-1,0-1.4,0.7-1.9c0.8-0.6,1.6-1.2,2.4-1.9
		C18.5,26.3,18.2,26.7,17.7,27.1z"/>
	<path fill="#FFFFFF" d="M43.9,46.9c-0.8,0.9-1.6,1.8-2.5,2.7c-0.1,0.1-0.2,0.1-0.4,0.1c-2.6-0.3-5.2-0.7-7.5-2.2
		c-1.3-0.8-2.3-1.8-2.7-3.5c-0.1-0.3-0.2-0.6-0.4-1c-0.6-1.3-1.1-2.6-1.7-3.9c-0.2-0.4-0.4-0.8-0.6-1.3c-0.3-0.7-0.5-1.5-0.8-2.2
		c-0.5-1.4-1.3-2.6-2.4-3.4c-1.8-1.3-3.8-2.2-6-2.2c-1.1,0-2.2-0.1-3.4-0.2c1.2-1,2.4-2.1,3.6-3.1c0.1-0.1,0.3-0.1,0.5-0.1
		c2.3,0.3,4.7,0.1,6.8,1.2c1.5,0.8,2.5,2.1,3.5,3.5c1.4,2,1.9,4.2,2.6,6.5c0.6,2.2,1.4,4.3,2.9,6.1c1.3,1.6,3.2,2.3,5.2,2.5
		C41.8,46.6,42.9,46.8,43.9,46.9z"/>
</g>
</svg>
