<?xml version="1.0" encoding="utf-8"?>
<!-- Generator: Adobe Illustrator 18.0.0, SVG Export Plug-In . SVG Version: 6.00 Build 0)  -->
<!DOCTYPE svg PUBLIC "-//W3C//DTD SVG 1.1//EN" "http://www.w3.org/Graphics/SVG/1.1/DTD/svg11.dtd">
<svg version="1.1" id="Layer_2" xmlns="http://www.w3.org/2000/svg" xmlns:xlink="http://www.w3.org/1999/xlink" x="0px" y="0px"
	 viewBox="0 0 40.7 51.4" enable-background="new 0 0 40.7 51.4" xml:space="preserve">
<g>
	<path fill="#53AD4E" d="M40.3,35.3c-0.5-0.1-1.1,0-1.4,0c-0.2,0.8-0.2,1.4-0.5,2c-0.7,1.3-1.4,2.6-2.4,3.8
		c-0.5,0.7-1.4,1.2-2.2,1.6c-0.6,0.3-1.4,0.3-2.2,0.3c-5.3,0.1-10.6,0.2-15.9,0.3c-0.1,0-0.3-0.1-0.4-0.1c0.3-4.5,0.6-9,0.9-13.5
		h0.4c2.1,0.1,4.2,0.2,6.3,0.3c2.7,0.1,2.7,0.1,2.8,2.7c0.1,1.2,0.1,1.2,1.3,1.3c0.3,0,0.6,0.1,0.9,0.1c0.2,0,0.5,0,0.6-0.2
		c0.8-1.2,1.8-2.4,1.8-4c0-1.1-0.1-2.2-0.1-3.2c0-2.7,0-5.4,0-8.1c0-0.5,0-1-0.6-1.2c-0.8-0.2-1.7,0-2.1,0.6
		c-0.8,1.3-1.7,2.6-2.5,3.9c-0.3,0.4-0.6,0.5-1,0.5c-1.8-0.1-3.7-0.1-5.5-0.1c-1,0-2,0.1-2.9,0.2c0.2-5.3,0.5-10.5,0.7-15.7
		c0,0,0.1,0,0.2,0c2.9,0.1,5.9,0.2,8.8,0.3c1.5,0.1,3,0.1,4.5,0.2c1.4,0.1,2.7,0.4,3.4,1.8c0.3,0.7,0.5,1.5,0.6,2.3
		c0.1,0.6,0,1.3,0.9,1.4c0.6,0,1.3,0.2,1.8,0.1c0.8-0.2,1.9-2.5,1.8-3.4c-0.3-2.5-0.5-4.9-0.8-7.3c0-0.3,0-0.6-0.1-0.8
		c-0.2-0.3-0.5-0.6-0.8-0.6c-2.7-0.1-5.4-0.2-8-0.3C25.2,0.2,21.7,0,18.2,0C13.9,0,9.5,0.1,5.2,0.2c-0.5,0-1,0.2-1.4,0.5
		c-1.2,1-2.3,2-3.4,3.1C0.4,3.8,0.4,4,0.4,4.1c0,0.4-0.1,0.7-0.1,1.1c-0.1,0.7,0.2,1,0.9,1.1C2.1,6.4,3,6.6,3.9,7
		c0.8,0.3,1.2,0.9,1.2,1.8c0,1,0,2,0,2.9c-0.1,3.9-0.2,7.8-0.3,11.8c-0.1,2.7-0.1,5.5-0.2,8.2c0,1.4-0.1,2.9-0.2,4.3
		c-0.3,3.2-0.6,6.3-0.9,9.5c0,0.2-0.1,0.4-0.2,0.5c-0.7,0.6-1.4,1.1-2.1,1.6C0,48.5,0,49.7,0,50.8c0,0.1,0.2,0.3,0.2,0.3
		C0.7,51,1,50.9,1.4,50.9c2.3,0.1,4.6,0.4,6.9,0.4c5.8,0,11.7,0.4,17.5-0.1c2.5-0.2,5.1-0.1,7.7-0.1c1.4,0,2.6-0.1,3.5-1.4
		c0.9-1.3,2.1-2.4,2.3-4.1c0.2-1.9,0.6-3.8,0.9-5.7c0.2-1.3,0.3-2.7,0.5-4C40.7,35.7,40.4,35.3,40.3,35.3z M29.2,31.6
		c-0.5,1.4-0.9,1.8-1.9,1.8C28.1,32.1,28.6,31.6,29.2,31.6z M27.7,19.5c0.5,1.9-0.5,3.1-2.2,2.8C26.2,21.3,27,20.4,27.7,19.5z
		 M17.3,27.1c1.5,0.1,3-0.1,4.5-0.1c1.7,0,3.4,0,5.1,0c0.9,0,1.2,0.3,1.3,1.3c0.1,0.7,0.1,1.5,0.1,2.2c0,0.2,0,0.5-0.2,0.7
		c-0.5,0.6-1,1.2-1.5,1.8c-0.1,0-0.1-0.1-0.2-0.1c-0.1-0.8-0.2-1.6-0.3-2.4c-0.1-0.7-0.5-1.1-1.2-1.1c-1.2-0.1-2.4-0.1-3.5-0.2
		c-1.6,0-3.2,0-4.7,0c-0.5,0-0.7-0.1-0.7-0.6c0-0.1,0-0.2,0-0.2C16,27.1,15.7,27,17.3,27.1z M37.4,10.5c-0.3,1.1-0.9,1.9-2.4,1.6
		C36,11.7,36.2,10.5,37.4,10.5z M16.1,3.5c0.2,0,0.3-0.1,0.4-0.1c4.4,0.1,8.7,0.3,13.1,0.5c2.9,0.1,5,1.3,6.3,4
		c0.5,1,0.9,1.9-0.2,2.7c-0.4,0.3-0.7,0.8-1.2,1.3c-0.1-0.8-0.2-1.3-0.3-1.9c-0.5-2.3-1.6-3.4-4-3.6c-1.9-0.2-3.8-0.2-5.7-0.2
		c-2.8,0-5.6,0-8.5,0V3.5z M0.9,5.3c-0.2-0.6-0.1-1,0.5-1.4C2.3,3.1,3.1,2.3,4,1.5C4.1,2.4,1.9,4.9,0.9,5.3z M4.7,41.4
		c0.2-3.8,0.5-7.7,0.6-11.6c0.2-5.3,0.4-10.7,0.5-16c0-1.2-0.1-2.4-0.1-3.6c0-0.4,0-0.8,0.1-1.2c0.2-0.8-0.4-2-1.4-2.4
		c-0.8-0.4-1.8-0.7-2.5-1c0.9-1,1.8-2,2.7-3c0.1-0.1,0.3-0.3,0.5-0.3c2.2-0.1,3.4,1.1,3.7,3.3c0.4,2.8,0.2,5.5,0,8.3
		c-0.2,2.4,0,4.8,0,7.2C8.7,26,8.5,30.8,8.4,35.6c-0.1,2.4,0,4.9,0,7.3c0,1.6-0.1,1.6-1.6,2c-0.8,0.2-1.5,0.3-2.5,0.5
		C4.4,44,4.6,42.7,4.7,41.4z M0.8,50.3c-0.1-1.3,1-2.6,3.3-4c0.2,0.4,0.3,0.7,0.5,1.3C3.4,48.5,2.1,49.4,0.8,50.3z M35.6,50
		c-0.2,0.2-0.6,0.2-1,0.2c-3.1,0.1-6.2,0.2-9.3,0.2c-4.8,0-9.7,0.1-14.5,0.1c-2.6,0-5.2-0.2-7.7-0.4c-0.1,0-0.2,0-0.3-0.1
		c0.9-0.8,1.7-1.7,2.6-2.5c0.1-0.1,0.2-0.1,0.4-0.1c3.9,0,7.8,0.2,11.7,0.1c4.5-0.1,9.1-0.4,13.6-0.5c2.3-0.1,4.6-0.2,6.9-0.2
		c0.1,0.1,0.1,0.2,0.2,0.3C37.3,48.1,36.5,49.1,35.6,50z"/>
	<path fill="#FFFFFF" d="M4,1.5c0,0.8-2.2,3.4-3.1,3.7c-0.2-0.6-0.1-1,0.5-1.4C2.3,3.1,3.1,2.3,4,1.5z"/>
	<path fill="#FFFFFF" d="M37.4,10.5c-0.3,1.1-0.9,1.9-2.4,1.6C36,11.7,36.2,10.5,37.4,10.5z"/>
	<path fill="#FFFFFF" d="M35.7,10.6c-0.4,0.3-0.7,0.8-1.2,1.3c-0.1-0.8-0.2-1.3-0.3-1.9c-0.5-2.3-1.6-3.4-4-3.6
		c-1.9-0.2-3.8-0.2-5.7-0.2c-2.8,0-5.6,0-8.5,0V3.5c0.2,0,0.3-0.1,0.4-0.1c4.4,0.1,8.7,0.3,13.1,0.5c2.9,0.1,5,1.3,6.3,4
		C36.4,8.8,36.8,9.7,35.7,10.6z"/>
	<path fill="#FFFFFF" d="M25.5,22.3c0.8-1,1.5-1.9,2.2-2.8C28.2,21.4,27.2,22.6,25.5,22.3z"/>
	<path fill="#FFFFFF" d="M29.2,31.6c-0.5,1.4-0.9,1.8-1.9,1.8C28.1,32.1,28.6,31.6,29.2,31.6z"/>
	<path fill="#FFFFFF" d="M28.3,30.5c0,0.2,0,0.5-0.2,0.7c-0.5,0.6-1,1.2-1.5,1.8c-0.1,0-0.1-0.1-0.2-0.1c-0.1-0.8-0.2-1.6-0.3-2.4
		c-0.1-0.7-0.5-1.1-1.2-1.1c-1.2-0.1-2.4-0.1-3.5-0.2c-1.6,0-3.2,0-4.7,0c-0.5,0-0.7-0.1-0.7-0.6c0-0.1,0-0.2,0-0.2
		c0-1.4-0.3-1.4,1.4-1.4c1.5,0.1,3-0.1,4.5-0.1c1.7,0,3.4,0,5.1,0c0.9,0,1.2,0.3,1.3,1.3C28.3,29,28.3,29.7,28.3,30.5z"/>
	<path fill="#FFFFFF" d="M38.2,47.1c-0.9,1-1.7,2-2.6,2.9c-0.2,0.2-0.6,0.2-1,0.2c-3.1,0.1-6.2,0.2-9.3,0.2c-4.8,0-9.7,0.1-14.5,0.1
		c-2.6,0-5.2-0.2-7.7-0.4c-0.1,0-0.2,0-0.3-0.1c0.9-0.8,1.7-1.7,2.6-2.5c0.1-0.1,0.2-0.1,0.4-0.1c3.9,0,7.8,0.2,11.7,0.1
		c4.5-0.1,9.1-0.4,13.6-0.5c2.3-0.1,4.6-0.2,6.9-0.2C38.1,46.9,38.1,47,38.2,47.1z"/>
	<path fill="#FFFFFF" d="M4.6,47.6c-1.2,0.9-2.5,1.8-3.8,2.7c-0.1-1.3,1-2.6,3.3-4C4.3,46.7,4.4,47.1,4.6,47.6z"/>
	<path fill="#FFFFFF" d="M8.8,14c-0.2,2.4,0,4.8,0,7.2C8.7,26,8.5,30.8,8.4,35.6c-0.1,2.4,0,4.9,0,7.3c0,1.6-0.1,1.6-1.6,2
		c-0.8,0.2-1.5,0.3-2.5,0.5c0.2-1.4,0.4-2.7,0.5-4c0.2-3.8,0.5-7.7,0.6-11.6c0.2-5.3,0.4-10.7,0.5-16c0-1.2-0.1-2.4-0.1-3.6
		c0-0.4,0-0.8,0.1-1.2c0.2-0.8-0.4-2-1.4-2.4c-0.8-0.4-1.8-0.7-2.5-1c0.9-1,1.8-2,2.7-3c0.1-0.1,0.3-0.3,0.5-0.3
		c2.2-0.1,3.4,1.1,3.7,3.3C9.1,8.5,9,11.2,8.8,14z"/>
</g>
</svg>
