<svg version="1.1" width="130" height="134" viewBox="-1 -1 130 134" xmlns="http://www.w3.org/2000/svg" xmlns:xlink="http://www.w3.org/1999/xlink">
  <!-- Exported by Scratch - http://scratch.mit.edu/ -->
  <g id="ID0.6454701842740178">
    <path id="ID0.9805615041404963" fill="#E7F5F5" d="M 176 227.900 L 304.100 227.900 L 304.100 360 L 176 360 L 176 227.900 Z " transform="matrix(1, 0, 0, 1, -176, -227)"/>
    <g id="ID0.4563788389787078">
      <g id="ID0.02407592535018921">
        <path id="ID0.6895429524593055" fill="#A3DEF8" d="M 182.600 233.500 L 298.200 233.500 L 298.200 236.600 L 182.600 236.600 L 182.600 233.500 Z " transform="matrix(1, 0, 0, 1, -176, -227)"/>
      </g>
      <g id="ID0.3153572380542755">
        <path id="ID0.8587536937557161" fill="#A3DEF8" d="M 182.300 235.500 L 185.400 235.500 L 185.400 250 L 182.300 250 L 182.300 235.500 Z " transform="matrix(1, 0, 0, 1, -176, -227)"/>
      </g>
      <g id="ID0.500053140334785">
        <path id="ID0.686961165163666" fill="#A3DEF8" d="M 189.800 235.500 L 192.900 235.500 L 192.900 250 L 189.800 250 L 189.800 235.500 Z " transform="matrix(1, 0, 0, 1, -176, -227)"/>
      </g>
      <g id="ID0.9283221065998077">
        <path id="ID0.8555283998139203" fill="#A3DEF8" d="M 197.300 235.500 L 200.400 235.500 L 200.400 250 L 197.300 250 L 197.300 235.500 Z " transform="matrix(1, 0, 0, 1, -176, -227)"/>
      </g>
      <g id="ID0.5164866736158729">
        <path id="ID0.8347138082608581" fill="#A3DEF8" d="M 204.800 235.500 L 207.900 235.500 L 207.900 250 L 204.800 250 L 204.800 235.500 Z " transform="matrix(1, 0, 0, 1, -176, -227)"/>
      </g>
      <g id="ID0.9962534601800144">
        <path id="ID0.42499831691384315" fill="#A3DEF8" d="M 212.200 235.500 L 215.300 235.500 L 215.300 250 L 212.200 250 L 212.200 235.500 Z " transform="matrix(1, 0, 0, 1, -176, -227)"/>
      </g>
      <g id="ID0.5417190161533654">
        <path id="ID0.3017918039113283" fill="#A3DEF8" d="M 219.700 235.500 L 222.800 235.500 L 222.800 250 L 219.700 250 L 219.700 235.500 Z " transform="matrix(1, 0, 0, 1, -176, -227)"/>
      </g>
      <g id="ID0.05482932925224304">
        <path id="ID0.8740990841761231" fill="#A3DEF8" d="M 227.200 235.500 L 230.300 235.500 L 230.300 250 L 227.200 250 L 227.200 235.500 Z " transform="matrix(1, 0, 0, 1, -176, -227)"/>
      </g>
      <g id="ID0.850925331003964">
        <path id="ID0.8697319626808167" fill="#A3DEF8" d="M 234.700 235.500 L 237.800 235.500 L 237.800 250 L 234.700 250 L 234.700 235.500 Z " transform="matrix(1, 0, 0, 1, -176, -227)"/>
      </g>
      <g id="ID0.12834183080121875">
        <path id="ID0.40989367570728064" fill="#A3DEF8" d="M 182.600 255.500 L 185.700 255.500 L 185.700 270 L 182.600 270 L 182.600 255.500 Z " transform="matrix(1, 0, 0, 1, -176, -227)"/>
      </g>
      <g id="ID0.341739556286484">
        <path id="ID0.5264815748669207" fill="#A3DEF8" d="M 190 255.500 L 193.100 255.500 L 193.100 270 L 190 270 L 190 255.500 Z " transform="matrix(1, 0, 0, 1, -176, -227)"/>
      </g>
      <g id="ID0.3462742739357054">
        <path id="ID0.9848535992205143" fill="#A3DEF8" d="M 197.500 255.500 L 200.600 255.500 L 200.600 270 L 197.500 270 L 197.500 255.500 Z " transform="matrix(1, 0, 0, 1, -176, -227)"/>
      </g>
      <g id="ID0.4284281232394278">
        <path id="ID0.3441256727091968" fill="#A3DEF8" d="M 205 255.500 L 208.100 255.500 L 208.100 270 L 205 270 L 205 255.500 Z " transform="matrix(1, 0, 0, 1, -176, -227)"/>
      </g>
      <g id="ID0.8229453256353736">
        <path id="ID0.8603811683133245" fill="#A3DEF8" d="M 212.500 255.500 L 215.600 255.500 L 215.600 270 L 212.500 270 L 212.500 255.500 Z " transform="matrix(1, 0, 0, 1, -176, -227)"/>
      </g>
      <g id="ID0.7070941436104476">
        <path id="ID0.6780886412598193" fill="#A3DEF8" d="M 219.900 255.500 L 223 255.500 L 223 270 L 219.900 270 L 219.900 255.500 Z " transform="matrix(1, 0, 0, 1, -176, -227)"/>
      </g>
      <g id="ID0.6863960791379213">
        <path id="ID0.07609295705333352" fill="#A3DEF8" d="M 227.400 255.500 L 230.500 255.500 L 230.500 270 L 227.400 270 L 227.400 255.500 Z " transform="matrix(1, 0, 0, 1, -176, -227)"/>
      </g>
      <g id="ID0.9716828572563827">
        <path id="ID0.652976063080132" fill="#A3DEF8" d="M 234.900 255.500 L 238 255.500 L 238 270 L 234.900 270 L 234.900 255.500 Z " transform="matrix(1, 0, 0, 1, -176, -227)"/>
      </g>
      <g id="ID0.5568879819475114">
        <path id="ID0.5839940067380667" fill="#A3DEF8" d="M 182.600 274.200 L 185.700 274.200 L 185.700 288.700 L 182.600 288.700 L 182.600 274.200 Z " transform="matrix(1, 0, 0, 1, -176, -227)"/>
      </g>
      <g id="ID0.30162305664271116">
        <path id="ID0.3738655801862478" fill="#A3DEF8" d="M 190 274.200 L 193.100 274.200 L 193.100 288.700 L 190 288.700 L 190 274.200 Z " transform="matrix(1, 0, 0, 1, -176, -227)"/>
      </g>
      <g id="ID0.696455430239439">
        <path id="ID0.994355539791286" fill="#A3DEF8" d="M 197.500 274.200 L 200.600 274.200 L 200.600 288.700 L 197.500 288.700 L 197.500 274.200 Z " transform="matrix(1, 0, 0, 1, -176, -227)"/>
      </g>
      <g id="ID0.09361659595742822">
        <path id="ID0.09292380278930068" fill="#A3DEF8" d="M 205 274.200 L 208.100 274.200 L 208.100 288.700 L 205 288.700 L 205 274.200 Z " transform="matrix(1, 0, 0, 1, -176, -227)"/>
      </g>
      <g id="ID0.6879514870233834">
        <path id="ID0.45272211404517293" fill="#A3DEF8" d="M 212.500 274.200 L 215.600 274.200 L 215.600 288.700 L 212.500 288.700 L 212.500 274.200 Z " transform="matrix(1, 0, 0, 1, -176, -227)"/>
      </g>
      <g id="ID0.691447417717427">
        <path id="ID0.706564246211201" fill="#A3DEF8" d="M 219.900 274.200 L 223 274.200 L 223 288.700 L 219.900 288.700 L 219.900 274.200 Z " transform="matrix(1, 0, 0, 1, -176, -227)"/>
      </g>
      <g id="ID0.46185499196872115">
        <path id="ID0.24752401188015938" fill="#A3DEF8" d="M 227.400 274.200 L 230.500 274.200 L 230.500 288.700 L 227.400 288.700 L 227.400 274.200 Z " transform="matrix(1, 0, 0, 1, -176, -227)"/>
      </g>
      <g id="ID0.7345666200853884">
        <path id="ID0.6498445393517613" fill="#A3DEF8" d="M 234.900 274.200 L 238 274.200 L 238 288.700 L 234.900 288.700 L 234.900 274.200 Z " transform="matrix(1, 0, 0, 1, -176, -227)"/>
      </g>
      <g id="ID0.5274201203137636">
        <path id="ID0.9282959052361548" fill="#A3DEF8" d="M 242.100 235.500 L 245.200 235.500 L 245.200 250 L 242.100 250 L 242.100 235.500 Z " transform="matrix(1, 0, 0, 1, -176, -227)"/>
      </g>
      <g id="ID0.5446365005336702">
        <path id="ID0.9434898602776229" fill="#A3DEF8" d="M 249.600 235.500 L 252.700 235.500 L 252.700 250 L 249.600 250 L 249.600 235.500 Z " transform="matrix(1, 0, 0, 1, -176, -227)"/>
      </g>
      <g id="ID0.8158117095008492">
        <path id="ID0.30646442947909236" fill="#A3DEF8" d="M 257.100 235.500 L 260.200 235.500 L 260.200 250 L 257.100 250 L 257.100 235.500 Z " transform="matrix(1, 0, 0, 1, -176, -227)"/>
      </g>
      <g id="ID0.8035901235416532">
        <path id="ID0.4760300503112376" fill="#A3DEF8" d="M 264.600 235.500 L 267.700 235.500 L 267.700 250 L 264.600 250 L 264.600 235.500 Z " transform="matrix(1, 0, 0, 1, -176, -227)"/>
      </g>
      <g id="ID0.41162257036194205">
        <path id="ID0.7661742852069438" fill="#A3DEF8" d="M 272 235.500 L 275.100 235.500 L 275.100 250 L 272 250 L 272 235.500 Z " transform="matrix(1, 0, 0, 1, -176, -227)"/>
      </g>
      <g id="ID0.8375893589109182">
        <path id="ID0.6655784989707172" fill="#A3DEF8" d="M 279.500 235.500 L 282.600 235.500 L 282.600 250 L 279.500 250 L 279.500 235.500 Z " transform="matrix(1, 0, 0, 1, -176, -227)"/>
      </g>
      <g id="ID0.03236937243491411">
        <path id="ID0.3406133404932916" fill="#A3DEF8" d="M 287 235.500 L 290.100 235.500 L 290.100 250 L 287 250 L 287 235.500 Z " transform="matrix(1, 0, 0, 1, -176, -227)"/>
      </g>
      <g id="ID0.409982587210834">
        <path id="ID0.017991815228015184" fill="#A3DEF8" d="M 294.500 235.500 L 297.600 235.500 L 297.600 250 L 294.500 250 L 294.500 235.500 Z " transform="matrix(1, 0, 0, 1, -176, -227)"/>
      </g>
      <g id="ID0.6475474857725203">
        <path id="ID0.8017428545281291" fill="#A3DEF8" d="M 242.400 255.500 L 245.500 255.500 L 245.500 270 L 242.400 270 L 242.400 255.500 Z " transform="matrix(1, 0, 0, 1, -176, -227)"/>
      </g>
      <g id="ID0.8911274950951338">
        <path id="ID0.4399424712173641" fill="#A3DEF8" d="M 249.800 255.500 L 252.900 255.500 L 252.900 270 L 249.800 270 L 249.800 255.500 Z " transform="matrix(1, 0, 0, 1, -176, -227)"/>
      </g>
      <g id="ID0.7958338726311922">
        <path id="ID0.6164455264806747" fill="#A3DEF8" d="M 257.300 255.500 L 260.400 255.500 L 260.400 270 L 257.300 270 L 257.300 255.500 Z " transform="matrix(1, 0, 0, 1, -176, -227)"/>
      </g>
      <g id="ID0.19140496477484703">
        <path id="ID0.041107872035354376" fill="#A3DEF8" d="M 264.800 255.500 L 267.900 255.500 L 267.900 270 L 264.800 270 L 264.800 255.500 Z " transform="matrix(1, 0, 0, 1, -176, -227)"/>
      </g>
      <g id="ID0.5967671163380146">
        <path id="ID0.31503996066749096" fill="#A3DEF8" d="M 272.300 255.500 L 275.400 255.500 L 275.400 270 L 272.300 270 L 272.300 255.500 Z " transform="matrix(1, 0, 0, 1, -176, -227)"/>
      </g>
      <g id="ID0.7560883848927915">
        <path id="ID0.5502900462597609" fill="#A3DEF8" d="M 279.700 255.500 L 282.800 255.500 L 282.800 270 L 279.700 270 L 279.700 255.500 Z " transform="matrix(1, 0, 0, 1, -176, -227)"/>
      </g>
      <g id="ID0.9970372342504561">
        <path id="ID0.6967723611742258" fill="#A3DEF8" d="M 287.200 255.500 L 290.300 255.500 L 290.300 270 L 287.200 270 L 287.200 255.500 Z " transform="matrix(1, 0, 0, 1, -176, -227)"/>
      </g>
      <g id="ID0.060953733045607805">
        <path id="ID0.005726697389036417" fill="#A3DEF8" d="M 294.700 255.500 L 297.800 255.500 L 297.800 270 L 294.700 270 L 294.700 255.500 Z " transform="matrix(1, 0, 0, 1, -176, -227)"/>
      </g>
      <g id="ID0.7793514938093722">
        <path id="ID0.31892565730959177" fill="#A3DEF8" d="M 242.400 274.200 L 245.500 274.200 L 245.500 288.700 L 242.400 288.700 L 242.400 274.200 Z " transform="matrix(1, 0, 0, 1, -176, -227)"/>
      </g>
      <g id="ID0.940010251943022">
        <path id="ID0.3610841208137572" fill="#A3DEF8" d="M 249.800 274.200 L 252.900 274.200 L 252.900 288.700 L 249.800 288.700 L 249.800 274.200 Z " transform="matrix(1, 0, 0, 1, -176, -227)"/>
      </g>
      <g id="ID0.2187366085126996">
        <path id="ID0.4396536983549595" fill="#A3DEF8" d="M 257.300 274.200 L 260.400 274.200 L 260.400 288.700 L 257.300 288.700 L 257.300 274.200 Z " transform="matrix(1, 0, 0, 1, -176, -227)"/>
      </g>
      <g id="ID0.26299855951219797">
        <path id="ID0.782250551506877" fill="#A3DEF8" d="M 264.800 274.200 L 267.900 274.200 L 267.900 288.700 L 264.800 288.700 L 264.800 274.200 Z " transform="matrix(1, 0, 0, 1, -176, -227)"/>
      </g>
      <g id="ID0.40356132481247187">
        <path id="ID0.5609647827222943" fill="#A3DEF8" d="M 272.300 274.200 L 275.400 274.200 L 275.400 288.700 L 272.300 288.700 L 272.300 274.200 Z " transform="matrix(1, 0, 0, 1, -176, -227)"/>
      </g>
      <g id="ID0.9676372953690588">
        <path id="ID0.29182357201352715" fill="#A3DEF8" d="M 279.700 274.200 L 282.800 274.200 L 282.800 288.700 L 279.700 288.700 L 279.700 274.200 Z " transform="matrix(1, 0, 0, 1, -176, -227)"/>
      </g>
      <g id="ID0.6443381528370082">
        <path id="ID0.3712189318612218" fill="#A3DEF8" d="M 287.200 274.200 L 290.300 274.200 L 290.300 288.700 L 287.200 288.700 L 287.200 274.200 Z " transform="matrix(1, 0, 0, 1, -176, -227)"/>
      </g>
      <g id="ID0.9970563501119614">
        <path id="ID0.7424281351268291" fill="#A3DEF8" d="M 294.700 274.200 L 297.800 274.200 L 297.800 288.700 L 294.700 288.700 L 294.700 274.200 Z " transform="matrix(1, 0, 0, 1, -176, -227)"/>
      </g>
      <g id="ID0.4026490789838135">
        <path id="ID0.6054635173641145" fill="#A3DEF8" d="M 182.300 292.900 L 185.400 292.900 L 185.400 307.400 L 182.300 307.400 L 182.300 292.900 Z " transform="matrix(1, 0, 0, 1, -176, -227)"/>
      </g>
      <g id="ID0.8339485926553607">
        <path id="ID0.06156357517465949" fill="#A3DEF8" d="M 189.800 292.900 L 192.900 292.900 L 192.900 307.400 L 189.800 307.400 L 189.800 292.900 Z " transform="matrix(1, 0, 0, 1, -176, -227)"/>
      </g>
      <g id="ID0.48999479319900274">
        <path id="ID0.3451434215530753" fill="#A3DEF8" d="M 197.300 292.900 L 200.400 292.900 L 200.400 307.400 L 197.300 307.400 L 197.300 292.900 Z " transform="matrix(1, 0, 0, 1, -176, -227)"/>
      </g>
      <g id="ID0.5492134965024889">
        <path id="ID0.8605943364091218" fill="#A3DEF8" d="M 204.800 292.900 L 207.900 292.900 L 207.900 307.400 L 204.800 307.400 L 204.800 292.900 Z " transform="matrix(1, 0, 0, 1, -176, -227)"/>
      </g>
      <g id="ID0.22597739519551396">
        <path id="ID0.13568456145003438" fill="#A3DEF8" d="M 212.200 292.900 L 215.300 292.900 L 215.300 307.400 L 212.200 307.400 L 212.200 292.900 Z " transform="matrix(1, 0, 0, 1, -176, -227)"/>
      </g>
      <g id="ID0.14625848131254315">
        <path id="ID0.23892581602558494" fill="#A3DEF8" d="M 219.700 292.900 L 222.800 292.900 L 222.800 307.400 L 219.700 307.400 L 219.700 292.900 Z " transform="matrix(1, 0, 0, 1, -176, -227)"/>
      </g>
      <g id="ID0.02579132653772831">
        <path id="ID0.768258667550981" fill="#A3DEF8" d="M 227.200 292.900 L 230.300 292.900 L 230.300 307.400 L 227.200 307.400 L 227.200 292.900 Z " transform="matrix(1, 0, 0, 1, -176, -227)"/>
      </g>
      <g id="ID0.45822541136294603">
        <path id="ID0.2573526734486222" fill="#A3DEF8" d="M 234.700 292.900 L 237.800 292.900 L 237.800 307.400 L 234.700 307.400 L 234.700 292.900 Z " transform="matrix(1, 0, 0, 1, -176, -227)"/>
      </g>
      <g id="ID0.395256862975657">
        <path id="ID0.7385775661095977" fill="#A3DEF8" d="M 182.600 312.900 L 185.700 312.900 L 185.700 327.400 L 182.600 327.400 L 182.600 312.900 Z " transform="matrix(1, 0, 0, 1, -176, -227)"/>
      </g>
      <g id="ID0.6680252845399082">
        <path id="ID0.9020196138881147" fill="#A3DEF8" d="M 190 312.900 L 193.100 312.900 L 193.100 327.400 L 190 327.400 L 190 312.900 Z " transform="matrix(1, 0, 0, 1, -176, -227)"/>
      </g>
      <g id="ID0.11485876981168985">
        <path id="ID0.09523493750020862" fill="#A3DEF8" d="M 197.500 312.900 L 200.600 312.900 L 200.600 327.400 L 197.500 327.400 L 197.500 312.900 Z " transform="matrix(1, 0, 0, 1, -176, -227)"/>
      </g>
      <g id="ID0.6408908325247467">
        <path id="ID0.5644723912701011" fill="#A3DEF8" d="M 205 312.900 L 208.100 312.900 L 208.100 327.400 L 205 327.400 L 205 312.900 Z " transform="matrix(1, 0, 0, 1, -176, -227)"/>
      </g>
      <g id="ID0.20947095938026905">
        <path id="ID0.9553400846198201" fill="#A3DEF8" d="M 212.500 312.900 L 215.600 312.900 L 215.600 327.400 L 212.500 327.400 L 212.500 312.900 Z " transform="matrix(1, 0, 0, 1, -176, -227)"/>
      </g>
      <g id="ID0.9487326676025987">
        <path id="ID0.2166052171960473" fill="#A3DEF8" d="M 219.900 312.900 L 223 312.900 L 223 327.400 L 219.900 327.400 L 219.900 312.900 Z " transform="matrix(1, 0, 0, 1, -176, -227)"/>
      </g>
      <g id="ID0.6141257584095001">
        <path id="ID0.895855731330812" fill="#A3DEF8" d="M 227.400 312.900 L 230.500 312.900 L 230.500 327.400 L 227.400 327.400 L 227.400 312.900 Z " transform="matrix(1, 0, 0, 1, -176, -227)"/>
      </g>
      <g id="ID0.8318884950131178">
        <path id="ID0.32101255375891924" fill="#A3DEF8" d="M 234.900 312.900 L 238 312.900 L 238 327.400 L 234.900 327.400 L 234.900 312.900 Z " transform="matrix(1, 0, 0, 1, -176, -227)"/>
      </g>
      <g id="ID0.4934910857118666">
        <path id="ID0.11817458411678672" fill="#A3DEF8" d="M 182.600 331.500 L 185.700 331.500 L 185.700 346 L 182.600 346 L 182.600 331.500 Z " transform="matrix(1, 0, 0, 1, -176, -227)"/>
      </g>
      <g id="ID0.4105628910474479">
        <path id="ID0.7135915355756879" fill="#A3DEF8" d="M 190 331.500 L 193.100 331.500 L 193.100 346 L 190 346 L 190 331.500 Z " transform="matrix(1, 0, 0, 1, -176, -227)"/>
      </g>
      <g id="ID0.3490315657109022">
        <path id="ID0.21839853283017874" fill="#A3DEF8" d="M 197.500 331.500 L 200.600 331.500 L 200.600 346 L 197.500 346 L 197.500 331.500 Z " transform="matrix(1, 0, 0, 1, -176, -227)"/>
      </g>
      <g id="ID0.9245366961695254">
        <path id="ID0.6149426377378404" fill="#A3DEF8" d="M 205 331.500 L 208.100 331.500 L 208.100 346 L 205 346 L 205 331.500 Z " transform="matrix(1, 0, 0, 1, -176, -227)"/>
      </g>
      <g id="ID0.7431980106048286">
        <path id="ID0.8084700237959623" fill="#A3DEF8" d="M 212.500 331.500 L 215.600 331.500 L 215.600 346 L 212.500 346 L 212.500 331.500 Z " transform="matrix(1, 0, 0, 1, -176, -227)"/>
      </g>
      <g id="ID0.8288371837697923">
        <path id="ID0.3497806554660201" fill="#A3DEF8" d="M 219.900 331.500 L 223 331.500 L 223 346 L 219.900 346 L 219.900 331.500 Z " transform="matrix(1, 0, 0, 1, -176, -227)"/>
      </g>
      <g id="ID0.867410781327635">
        <path id="ID0.4351030536927283" fill="#A3DEF8" d="M 227.400 331.500 L 230.500 331.500 L 230.500 346 L 227.400 346 L 227.400 331.500 Z " transform="matrix(1, 0, 0, 1, -176, -227)"/>
      </g>
      <g id="ID0.9672944312915206">
        <path id="ID0.807707950938493" fill="#A3DEF8" d="M 234.900 331.500 L 238 331.500 L 238 346 L 234.900 346 L 234.900 331.500 Z " transform="matrix(1, 0, 0, 1, -176, -227)"/>
      </g>
      <g id="ID0.3584961071610451">
        <path id="ID0.14754828345030546" fill="#A3DEF8" d="M 242.100 292.900 L 245.200 292.900 L 245.200 307.400 L 242.100 307.400 L 242.100 292.900 Z " transform="matrix(1, 0, 0, 1, -176, -227)"/>
      </g>
      <g id="ID0.5603743800893426">
        <path id="ID0.8993290569633245" fill="#A3DEF8" d="M 249.600 292.900 L 252.700 292.900 L 252.700 307.400 L 249.600 307.400 L 249.600 292.900 Z " transform="matrix(1, 0, 0, 1, -176, -227)"/>
      </g>
      <g id="ID0.1594226500019431">
        <path id="ID0.127543271984905" fill="#A3DEF8" d="M 257.100 292.900 L 260.200 292.900 L 260.200 307.400 L 257.100 307.400 L 257.100 292.900 Z " transform="matrix(1, 0, 0, 1, -176, -227)"/>
      </g>
      <g id="ID0.6489308588206768">
        <path id="ID0.4876568499021232" fill="#A3DEF8" d="M 264.600 292.900 L 267.700 292.900 L 267.700 307.400 L 264.600 307.400 L 264.600 292.900 Z " transform="matrix(1, 0, 0, 1, -176, -227)"/>
      </g>
      <g id="ID0.03821671428158879">
        <path id="ID0.28490134747698903" fill="#A3DEF8" d="M 272 292.900 L 275.100 292.900 L 275.100 307.400 L 272 307.400 L 272 292.900 Z " transform="matrix(1, 0, 0, 1, -176, -227)"/>
      </g>
      <g id="ID0.6279748426750302">
        <path id="ID0.256508516613394" fill="#A3DEF8" d="M 279.500 292.900 L 282.600 292.900 L 282.600 307.400 L 279.500 307.400 L 279.500 292.900 Z " transform="matrix(1, 0, 0, 1, -176, -227)"/>
      </g>
      <g id="ID0.023459989111870527">
        <path id="ID0.9313449072651565" fill="#A3DEF8" d="M 287 292.900 L 290.100 292.900 L 290.100 307.400 L 287 307.400 L 287 292.900 Z " transform="matrix(1, 0, 0, 1, -176, -227)"/>
      </g>
      <g id="ID0.34160871198400855">
        <path id="ID0.910138560924679" fill="#A3DEF8" d="M 294.500 292.900 L 297.600 292.900 L 297.600 307.400 L 294.500 307.400 L 294.500 292.900 Z " transform="matrix(1, 0, 0, 1, -176, -227)"/>
      </g>
      <g id="ID0.3057138775475323">
        <path id="ID0.1616731989197433" fill="#A3DEF8" d="M 242.400 312.900 L 245.500 312.900 L 245.500 327.400 L 242.400 327.400 L 242.400 312.900 Z " transform="matrix(1, 0, 0, 1, -176, -227)"/>
      </g>
      <g id="ID0.9135612803511322">
        <path id="ID0.2776537472382188" fill="#A3DEF8" d="M 249.800 312.900 L 252.900 312.900 L 252.900 327.400 L 249.800 327.400 L 249.800 312.900 Z " transform="matrix(1, 0, 0, 1, -176, -227)"/>
      </g>
      <g id="ID0.14537231950089335">
        <path id="ID0.6391830425709486" fill="#A3DEF8" d="M 257.300 312.900 L 260.400 312.900 L 260.400 327.400 L 257.300 327.400 L 257.300 312.900 Z " transform="matrix(1, 0, 0, 1, -176, -227)"/>
      </g>
      <g id="ID0.4035021145828068">
        <path id="ID0.22086297580972314" fill="#A3DEF8" d="M 264.800 312.900 L 267.900 312.900 L 267.900 327.400 L 264.800 327.400 L 264.800 312.900 Z " transform="matrix(1, 0, 0, 1, -176, -227)"/>
      </g>
      <g id="ID0.7849920000880957">
        <path id="ID0.1583904977887869" fill="#A3DEF8" d="M 272.300 312.900 L 275.400 312.900 L 275.400 327.400 L 272.300 327.400 L 272.300 312.900 Z " transform="matrix(1, 0, 0, 1, -176, -227)"/>
      </g>
      <g id="ID0.4523827931843698">
        <path id="ID0.25656480016186833" fill="#A3DEF8" d="M 279.700 312.900 L 282.800 312.900 L 282.800 327.400 L 279.700 327.400 L 279.700 312.900 Z " transform="matrix(1, 0, 0, 1, -176, -227)"/>
      </g>
      <g id="ID0.9109527389518917">
        <path id="ID0.2886277879588306" fill="#A3DEF8" d="M 287.200 312.900 L 290.300 312.900 L 290.300 327.400 L 287.200 327.400 L 287.200 312.900 Z " transform="matrix(1, 0, 0, 1, -176, -227)"/>
      </g>
      <g id="ID0.04222543723881245">
        <path id="ID0.5405232235789299" fill="#A3DEF8" d="M 294.700 312.900 L 297.800 312.900 L 297.800 327.400 L 294.700 327.400 L 294.700 312.900 Z " transform="matrix(1, 0, 0, 1, -176, -227)"/>
      </g>
      <g id="ID0.7828981168568134">
        <path id="ID0.16488431254401803" fill="#A3DEF8" d="M 242.400 331.500 L 245.500 331.500 L 245.500 346 L 242.400 346 L 242.400 331.500 Z " transform="matrix(1, 0, 0, 1, -176, -227)"/>
      </g>
      <g id="ID0.6549611478112638">
        <path id="ID0.8942671371623874" fill="#A3DEF8" d="M 249.800 331.500 L 252.900 331.500 L 252.900 346 L 249.800 346 L 249.800 331.500 Z " transform="matrix(1, 0, 0, 1, -176, -227)"/>
      </g>
      <g id="ID0.38102139439433813">
        <path id="ID0.6324284155853093" fill="#A3DEF8" d="M 257.300 331.500 L 260.400 331.500 L 260.400 346 L 257.300 346 L 257.300 331.500 Z " transform="matrix(1, 0, 0, 1, -176, -227)"/>
      </g>
      <g id="ID0.540021853055805">
        <path id="ID0.14504433888942003" fill="#A3DEF8" d="M 264.800 331.500 L 267.900 331.500 L 267.900 346 L 264.800 346 L 264.800 331.500 Z " transform="matrix(1, 0, 0, 1, -176, -227)"/>
      </g>
      <g id="ID0.6320506692864001">
        <path id="ID0.3001907281577587" fill="#A3DEF8" d="M 272.300 331.500 L 275.400 331.500 L 275.400 346 L 272.300 346 L 272.300 331.500 Z " transform="matrix(1, 0, 0, 1, -176, -227)"/>
      </g>
      <g id="ID0.6137331817299128">
        <path id="ID0.6642812010832131" fill="#A3DEF8" d="M 279.700 331.500 L 282.800 331.500 L 282.800 346 L 279.700 346 L 279.700 331.500 Z " transform="matrix(1, 0, 0, 1, -176, -227)"/>
      </g>
      <g id="ID0.9975902214646339">
        <path id="ID0.40785130858421326" fill="#A3DEF8" d="M 287.200 331.500 L 290.300 331.500 L 290.300 346 L 287.200 346 L 287.200 331.500 Z " transform="matrix(1, 0, 0, 1, -176, -227)"/>
      </g>
      <g id="ID0.5951062198728323">
        <path id="ID0.5979973124340177" fill="#A3DEF8" d="M 294.700 331.500 L 297.800 331.500 L 297.800 346 L 294.700 346 L 294.700 331.500 Z " transform="matrix(1, 0, 0, 1, -176, -227)"/>
      </g>
    </g>
  </g>
</svg>