<svg width="200px" height="180px" viewBox="0 0 200 180" version="1.1" xml:space="preserve" xmlns="http://www.w3.org/2000/svg" xmlns:xlink="http://www.w3.org/1999/xlink">
  <!-- Generator: Sketch 49.3 (51167) - http://www.bohemiancoding.com/sketch -->
  <defs/>
  <g>
    <title>bear-a</title>
    <desc>Created with Sketch.</desc>
    <g id="bear-a" stroke="none" stroke-width="1" fill="none" fill-rule="evenodd">
      <g id="Bear" transform="translate(100.000000, 90.000000) scale(-1, 1) translate(-100.000000, -90.000000) translate(7.000000, 6.000000)" fill-rule="nonzero">
        <g id="Group" transform="translate(94.000000, 54.000000)">
          <path d="M1.1,30.3 C1.1,30.3 -1.1,51.7 12.9,76.4 C19.9,88.7 21.7,97.6 20,100 C18.4,102.4 13.1,104.2 14.5,105.7 C15.9,107.2 34.1,109.1 38.3,107.2 C40,106.4 44.9,79.6 43.6,67.8 C42.3,56 40.4,52.1 41.3,43.5 C42.2,34.9 47.6,20.3 44.5,13.6 C41.4,6.9 32.4,-4.1 17.1,1.8 C1.8,7.7 0.8,24.5 1.1,30.3 Z" id="Shape" fill="#856045"/>
          <path d="M22,107.1 C22,107.1 22,106.8 22.1,106.3 C22.2,105.9 22.6,105.3 23,104.8 C23.4,104.3 23.9,104 24.4,103.8 C24.8,103.6 25.1,103.5 25.1,103.5 C25.1,103.5 25.1,103.6 25,103.7 C24.9,103.8 24.8,103.9 24.6,104.1 C24.3,104.4 23.9,104.8 23.5,105.3 C23.1,105.7 22.7,106.2 22.5,106.5 C22.2,106.9 22,107.1 22,107.1 Z" id="Shape" fill="#59402F"/>
          <path d="M16.8,106.4 C16.8,106.4 16.9,106 17.1,105.5 C17.3,105 17.8,104.4 18.3,103.9 C18.6,103.7 18.9,103.4 19.2,103.3 C19.5,103.1 19.8,103 20,102.9 C20.3,102.8 20.5,102.8 20.6,102.7 C20.8,102.7 20.8,102.7 20.8,102.7 C20.8,102.7 20.7,102.8 20.6,102.8 C20.5,102.9 20.3,103 20.1,103.2 C19.7,103.5 19.2,103.9 18.7,104.4 C18.2,104.9 17.7,105.3 17.4,105.7 C17.1,106.1 16.8,106.4 16.8,106.4 Z" id="Shape" fill="#59402F"/>
          <path d="M22.7,108.5 C22.8,107.9 23.9,105.5 24.9,105.7 C25.9,105.9 25.1,106.8 24.5,107.4 C24,108 22.7,108.8 22.7,108.5 Z" id="Shape" fill="#665A52"/>
          <path d="M17.7,107.4 C17.8,106.8 18.9,104.4 19.9,104.6 C20.9,104.8 20.1,105.7 19.5,106.3 C19,106.9 17.7,107.7 17.7,107.4 Z" id="Shape" fill="#665A52"/>
          <path d="M14.5,106.8 C14.6,106.2 15.7,103.8 16.7,104 C17.7,104.2 16.9,105.1 16.3,105.7 C15.9,106.2 14.5,107.1 14.5,106.8 Z" id="Shape" fill="#665A52"/>
          <g transform="translate(40.000000, 46.000000)" id="Shape">
            <path d="M0.8,0.3 C0.8,0.3 6.1,11.1 8.3,11.3 C8.3,11.3 5.9,12.5 4.6,10.8 C4.6,10.8 8.3,13.3 8.4,17.6 L5.9,16.2 C5.9,16.2 8.4,22.8 7.2,26.6 L5.2,23.2 C5.2,23.2 7,29.7 2.4,32.2" fill="#856045"/>
            <path d="M8.1,11.2 C8.1,11.2 7.9,11.2 7.6,11 C7.3,10.8 6.9,10.6 6.6,10.2 C5.8,9.5 4.9,8.3 4.2,7.1 C3.8,6.5 3.5,5.9 3.2,5.3 C2.9,4.7 2.6,4.1 2.4,3.7 C2,2.7 1.7,2.1 1.7,2.1 C1.7,2.1 2.1,2.7 2.7,3.6 C3.3,4.5 4,5.7 4.7,6.9 C5.4,8.1 6.2,9.3 6.9,10.1 C7.2,10.5 7.5,10.8 7.7,11 C7.9,11.2 8.1,11.2 8.1,11.2 Z" fill="#59402F"/>
            <path d="M8.2,17.5 C8.2,17.5 8.1,17.1 7.9,16.5 C7.7,15.9 7.5,15.1 7.1,14.4 C6.9,14 6.8,13.7 6.6,13.4 C6.4,13.1 6.2,12.8 6,12.5 C5.8,12.3 5.7,12 5.5,11.9 C5.4,11.8 5.3,11.7 5.3,11.7 C5.3,11.7 5.4,11.7 5.6,11.8 C5.8,11.9 6,12 6.3,12.2 C6.6,12.4 6.8,12.7 7.1,13 C7.4,13.3 7.6,13.7 7.8,14.1 C8,14.5 8.1,14.9 8.2,15.3 C8.3,15.7 8.3,16.1 8.4,16.4 C8.3,17 8.2,17.5 8.2,17.5 Z" fill="#59402F"/>
            <path d="M7,26.1 C7,26.1 7.2,25.5 7.2,24.5 C7.2,24 7.2,23.5 7.2,22.9 C7.2,22.3 7.1,21.7 7,21.1 C6.9,20.5 6.8,19.9 6.6,19.3 C6.5,18.7 6.3,18.2 6.2,17.7 C6.1,17.2 6,16.8 5.9,16.6 C5.8,16.3 5.8,16.2 5.8,16.2 C5.8,16.2 5.9,16.3 6,16.6 C6.1,16.9 6.3,17.2 6.5,17.7 C6.7,18.1 6.9,18.7 7.1,19.3 C7.3,19.9 7.4,20.5 7.5,21.2 C7.6,21.8 7.7,22.5 7.7,23.1 C7.7,23.7 7.6,24.3 7.5,24.8 C7.4,25.3 7.2,25.7 7.1,25.9 C7.1,26 7,26.1 7,26.1 Z" fill="#59402F"/>
            <path d="M3.6,31.2 C3.6,31.2 3.7,31.1 3.8,30.9 C3.9,30.7 4.1,30.4 4.2,30.1 C4.5,29.4 4.7,28.4 4.8,27.4 C4.9,26.4 4.9,25.4 4.9,24.6 C4.9,23.8 5,23.3 5,23.3 C5,23.3 5.2,23.8 5.3,24.6 C5.4,25 5.4,25.4 5.5,25.9 C5.5,26.1 5.5,26.4 5.5,26.7 C5.5,27 5.5,27.2 5.5,27.5 C5.4,28 5.4,28.6 5.2,29 C5.1,29.5 4.8,29.9 4.6,30.3 C4.4,30.6 4.1,30.9 3.9,31 C3.8,31.2 3.6,31.2 3.6,31.2 Z" fill="#59402F"/>
          </g>
          <path d="M44,72.1 C44,72.1 43.9,74.5 43.7,78.1 C43.6,79.9 43.4,82 43.2,84.3 C43,86.5 42.7,88.9 42.4,91.3 C42.1,93.7 41.7,96.1 41.3,98.3 C40.9,100.5 40.4,102.6 39.8,104.3 C39.5,105.2 39.2,106 38.8,106.6 C38.7,106.8 38.6,106.9 38.5,107.1 L38.3,107.3 C38.2,107.4 38.2,107.4 38.1,107.4 C37.8,107.5 37.5,107.6 37.2,107.6 C36.2,107.8 35.6,107.8 35.6,107.8 C35.6,107.8 36.2,107.7 37.2,107.5 C37.5,107.4 37.7,107.4 38,107.2 C38.1,107.2 38.1,107.1 38.2,107.1 L38.3,106.9 C38.4,106.8 38.5,106.6 38.6,106.4 C38.9,105.8 39.2,105 39.4,104.1 C39.9,102.4 40.3,100.3 40.7,98.1 C41.1,95.9 41.4,93.5 41.7,91.1 C42,88.7 42.3,86.3 42.6,84.1 C42.9,81.9 43.1,79.8 43.3,78 C43.8,74.5 44,72.1 44,72.1 Z" id="Shape" fill="#59402F"/>
          <path d="M0.5,40.6 C0.5,40.6 1.3,44.7 2.8,50.8 C3.6,53.9 4.5,57.4 5.7,61.1 C6.3,62.9 7,64.9 7.9,66.7 C8.4,67.6 8.9,68.5 9.5,69.4 C10,70.3 10.6,71.2 11.1,72.1 C13.1,75.8 14.9,79.6 16.5,83.2 C17.3,85 18,86.8 18.7,88.5 C19.3,90.2 19.9,91.8 20.3,93.3 C20.5,94.1 20.6,94.8 20.7,95.5 C20.8,96.2 20.9,96.9 20.9,97.5 C20.9,98.1 20.8,98.8 20.6,99.3 C20.4,99.8 20,100.2 19.7,100.5 C19,101.1 18.4,101.5 18,101.8 C17.6,102.1 17.4,102.2 17.4,102.2 C17.4,102.2 17.6,102.1 18,101.8 C18.4,101.5 19,101.1 19.6,100.5 C19.9,100.2 20.2,99.8 20.4,99.3 C20.6,98.8 20.7,98.2 20.7,97.6 C20.7,97 20.6,96.3 20.4,95.6 C20.3,94.9 20.2,94.2 19.9,93.4 C19,90.4 17.6,87 16,83.4 C14.4,79.8 12.6,76 10.5,72.4 C10,71.5 9.5,70.6 8.9,69.7 C8.4,68.8 7.8,67.9 7.3,67 C6.4,65.1 5.7,63.2 5.1,61.3 C4.5,59.4 4,57.6 3.5,55.8 C3,54 2.6,52.4 2.3,50.8 C1.6,47.7 1.1,45.1 0.8,43.3 C0.7,41.6 0.5,40.6 0.5,40.6 Z" id="Shape" fill="#59402F"/>
        </g>
        <g id="Group" transform="translate(31.000000, 69.000000)">
          <g fill="#856045" id="Shape">
            <path d="M0.2,19.2 C3.2,40.3 8.9,45.7 9.6,51.7 C10.3,57.7 9.6,80.2 8.3,82.9 C7,85.6 2.9,87.6 2.3,90.6 C1.6,93.6 24.4,92.3 27.1,90.6 C29.8,88.9 44.2,51 43.2,29.5 C38.4,-14 -2.8,-1.9 0.2,19.2 Z"/>
            <path d="M36.3,10.1 C36.3,10.1 42.9,20.1 45.2,20.1 C45.2,20.1 43,21.6 41.4,20.1 C41.4,20.1 45.4,22.1 46,26.3 L43.3,25.2 C43.3,25.2 46.6,31.4 46,35.4 L43.6,32.3 C43.6,32.3 46.3,38.5 42.1,41.6"/>
          </g>
          <path d="M45,20 C45,20 44.8,20 44.5,19.9 C44.2,19.8 43.8,19.6 43.4,19.3 C42.5,18.7 41.5,17.7 40.6,16.6 C40.1,16.1 39.7,15.5 39.3,14.9 C38.9,14.4 38.6,13.8 38.3,13.4 C37.8,12.5 37.4,11.9 37.4,11.9 C37.4,11.9 37.9,12.4 38.6,13.2 C39.3,14 40.2,15.1 41.1,16.2 C42,17.3 42.9,18.3 43.7,19.1 C44.1,19.5 44.4,19.8 44.7,19.9 C44.8,20 45,20 45,20 Z" id="Shape" fill="#59402F"/>
          <path d="M45.9,26.1 C45.9,26.1 45.7,25.7 45.5,25.1 C45.2,24.5 44.9,23.8 44.5,23.1 C44.3,22.8 44.1,22.4 43.8,22.1 C43.6,21.8 43.3,21.5 43.1,21.3 C42.9,21.1 42.7,20.9 42.6,20.8 C42.5,20.7 42.4,20.6 42.4,20.6 C42.4,20.6 42.5,20.6 42.7,20.7 C42.9,20.8 43.1,20.9 43.4,21 C43.7,21.2 44,21.4 44.3,21.7 C44.6,22 44.9,22.3 45.1,22.7 C45.3,23.1 45.5,23.5 45.7,23.8 C45.8,24.2 45.9,24.5 46,24.9 C45.9,25.7 45.9,26.1 45.9,26.1 Z" id="Shape" fill="#59402F"/>
          <path d="M45.9,34.9 C45.9,34.9 46,34.3 45.9,33.3 C45.9,32.8 45.8,32.3 45.6,31.7 C45.5,31.1 45.3,30.5 45.1,29.9 C44.9,29.3 44.7,28.7 44.5,28.1 C44.3,27.5 44.1,27 43.9,26.6 C43.7,26.2 43.6,25.8 43.5,25.5 C43.4,25.2 43.4,25.1 43.4,25.1 C43.4,25.1 43.5,25.2 43.7,25.5 C43.9,25.7 44.1,26.1 44.3,26.5 C44.5,26.9 44.8,27.4 45.1,28 C45.4,28.5 45.6,29.2 45.8,29.8 C46,30.4 46.1,31.1 46.2,31.7 C46.3,32.3 46.3,32.9 46.3,33.4 C46.3,33.9 46.2,34.3 46.1,34.6 C46,34.7 45.9,34.9 45.9,34.9 Z" id="Shape" fill="#59402F"/>
          <path d="M25.3,91.2 C25.3,91.2 25.5,91.2 25.9,91.1 C26.3,91 27,90.8 27.4,90.1 C27.9,89.5 28.4,88.6 28.8,87.6 C29.3,86.6 29.6,85.4 30.1,84.1 C31,81.5 32.2,78.5 33.3,75.2 C34.5,72 35.7,68.5 36.8,65 C37.4,63.3 37.9,61.5 38.4,59.8 C38.6,58.9 38.9,58.1 39.1,57.2 C39.3,56.3 39.5,55.5 39.7,54.7 C40.1,53 40.4,51.4 40.6,49.8 C40.8,48.2 41.1,46.8 41.3,45.4 C41.7,42.7 42,40.4 42.2,38.8 C42.4,37.2 42.4,36.3 42.4,36.3 C42.4,36.3 42.4,37.2 42.3,38.8 C42.2,40.4 42,42.7 41.6,45.4 C41.4,46.8 41.2,48.2 41,49.8 C40.8,51.4 40.5,53 40.2,54.7 C40,55.5 39.8,56.4 39.6,57.3 C39.4,58.2 39.2,59 38.9,59.9 C38.4,61.7 37.9,63.4 37.3,65.2 C36.2,68.7 34.9,72.2 33.7,75.4 C32.4,78.6 31.3,81.6 30.3,84.2 C29.8,85.5 29.4,86.7 28.9,87.7 C28.4,88.7 27.9,89.5 27.3,90.2 C26.8,90.9 26.1,91 25.7,91.2 C25.6,91.2 25.3,91.2 25.3,91.2 Z" id="Shape" fill="#59402F"/>
          <path d="M42.3,41.3 C42.3,41.3 42.8,40.9 43.2,40.1 C43.4,39.7 43.6,39.3 43.7,38.7 C43.8,38.2 43.9,37.6 43.9,37 C43.9,36.7 43.9,36.4 43.9,36.1 C43.9,35.8 43.9,35.5 43.9,35.3 C43.9,34.8 43.8,34.3 43.8,33.8 C43.8,33.4 43.7,33 43.7,32.7 C43.7,32.4 43.7,32.3 43.7,32.3 C43.7,32.3 43.8,32.4 43.9,32.7 C44,32.9 44.1,33.3 44.3,33.7 C44.4,34.1 44.6,34.6 44.6,35.2 C44.6,35.5 44.7,35.8 44.7,36.1 C44.7,36.4 44.7,36.7 44.7,37 C44.7,37.6 44.6,38.2 44.4,38.8 C44.3,39.1 44.2,39.3 44.1,39.6 C44,39.8 43.8,40.1 43.7,40.2 C43.4,40.6 43.1,40.8 42.9,41 C42.5,41.2 42.3,41.3 42.3,41.3 Z" id="Shape" fill="#59402F"/>
          <path d="M9,92.2 C9,92.2 9,91.9 9,91.4 C9.1,90.9 9.3,90.3 9.7,89.8 C10.1,89.3 10.5,88.8 10.9,88.6 C11.3,88.3 11.6,88.2 11.6,88.2 C11.6,88.2 11.6,88.3 11.5,88.4 C11.4,88.5 11.3,88.7 11.2,88.8 C10.9,89.2 10.6,89.6 10.3,90.1 C10,90.6 9.7,91.1 9.4,91.4 C9.2,91.9 9,92.2 9,92.2 Z" id="Shape" fill="#59402F"/>
          <path d="M3.8,91.7 C3.8,91.7 3.8,91.3 4,90.8 C4.2,90.3 4.5,89.6 5,89.1 C5.2,88.8 5.5,88.6 5.8,88.4 C6.1,88.2 6.3,88 6.6,87.9 C6.8,87.8 7.1,87.7 7.2,87.7 C7.4,87.7 7.4,87.6 7.4,87.6 C7.4,87.6 7.3,87.7 7.2,87.8 C7.1,87.9 6.9,88.1 6.7,88.2 C6.3,88.6 5.9,89 5.4,89.6 C5,90.1 4.6,90.7 4.3,91.1 C4,91.4 3.8,91.7 3.8,91.7 Z" id="Shape" fill="#59402F"/>
          <path d="M5.3,86.4 C5.3,86.4 5.5,86.3 5.8,86 C6.1,85.7 6.6,85.3 7.1,84.7 C7.6,84.1 8.1,83.3 8.4,82.2 C8.8,81.2 8.9,80 8.9,78.6 C9,75.9 9.3,72.7 9.5,69.3 C9.7,65.9 9.9,62.3 9.8,58.7 C9.7,56.9 9.7,55.1 9.4,53.4 C9.2,51.7 8.7,50 8.2,48.4 C7.2,45.2 6,42.2 5.1,39.7 C4.1,37.2 3.5,35 3.1,33.4 C2.9,32.6 2.8,32 2.7,31.6 C2.6,31.2 2.6,31 2.6,31 C2.6,31 2.7,31.2 2.8,31.6 C2.9,32 3.1,32.6 3.3,33.4 C3.5,34.2 3.8,35.1 4.2,36.1 C4.6,37.1 5,38.3 5.6,39.5 C6.6,42 7.9,44.9 8.9,48.2 C9.4,49.8 9.9,51.5 10.1,53.3 C10.4,55.1 10.5,56.9 10.5,58.7 C10.6,62.3 10.4,66 10.1,69.4 C9.9,72.8 9.5,75.9 9.3,78.6 C9.3,79.3 9.2,79.9 9.1,80.6 C9,81.2 8.8,81.8 8.6,82.3 C8.2,83.3 7.7,84.2 7.1,84.8 C6.6,85.4 6.1,85.8 5.7,86 C5.5,86.3 5.3,86.4 5.3,86.4 Z" id="Shape" fill="#59402F"/>
          <path d="M9.9,93.4 C9.9,92.8 10.7,90.3 11.8,90.3 C12.9,90.3 12.2,91.4 11.7,92 C11.1,92.7 9.9,93.8 9.9,93.4 Z" id="Shape" fill="#665A52"/>
          <path d="M4.8,93 C4.8,92.4 5.6,89.9 6.7,89.9 C7.8,89.9 7.1,91 6.6,91.6 C6,92.3 4.8,93.4 4.8,93 Z" id="Shape" fill="#665A52"/>
          <path d="M1.6,92.2 C1.6,91.6 2.4,89.1 3.5,89.1 C4.6,89.1 3.9,90.2 3.4,90.8 C2.8,91.5 1.6,92.5 1.6,92.2 Z" id="Shape" fill="#665A52"/>
        </g>
        <g id="Group" transform="translate(24.000000, 21.000000)">
          <path d="M2.4,55 C2.4,55 2.4,64.7 5.8,67.9 L6,65.1 C6,65.1 7,73.9 13.5,76.5 L12.7,73.9 C12.7,73.9 20.1,78.5 20,81.9 L21.2,79.9 C21.2,79.9 28,85.7 31,83.7" id="Shape" fill="#8D674A"/>
          <g id="Shape">
            <path d="M26.6,1.8 C44.6,-3.8 68.3,5.6 79.6,9.8 C96,15.9 115.8,-0.1 142.7,21.9 C169.6,43.9 164.2,76.8 144.1,92.9 C121.6,110.9 42.1,111 28,82.6 C28,82.6 1.7,72.4 0.5,45.1" fill="#8D674A"/>
            <path d="M2.4,55.9 C2.4,55.9 2.5,56.7 2.7,57.8 C2.9,58.9 3.1,60.4 3.4,61.9 C3.5,62.6 3.7,63.4 3.9,64.1 C4,64.4 4.1,64.8 4.2,65.1 C4.3,65.4 4.4,65.7 4.5,66 C4.6,66.3 4.7,66.5 4.8,66.7 C4.9,66.9 5,67.1 5.1,67.2 C5.3,67.5 5.4,67.6 5.4,67.6 C5.4,67.6 5.2,67.5 5,67.3 C4.9,67.2 4.7,67 4.6,66.8 C4.4,66.6 4.3,66.4 4.1,66.1 C3.9,65.9 3.8,65.6 3.7,65.3 C3.6,65 3.4,64.7 3.3,64.3 C3.1,63.6 2.9,62.9 2.7,62.1 C2.4,60.6 2.3,59 2.2,57.9 C2.3,56.7 2.4,55.9 2.4,55.9 Z" fill="#59402F"/>
            <path d="M6,65 C6,65 6.2,65.9 6.6,67.1 C6.8,67.7 7.1,68.5 7.4,69.2 C7.5,69.6 7.8,70 7.9,70.4 C8.1,70.8 8.3,71.2 8.5,71.5 C8.7,71.9 8.9,72.3 9.2,72.6 C9.5,72.9 9.7,73.3 10,73.6 C10.3,73.9 10.5,74.2 10.8,74.5 C11.1,74.7 11.3,75 11.6,75.2 C11.9,75.4 12.1,75.6 12.3,75.8 C12.5,75.9 12.7,76.1 12.9,76.2 C13.2,76.4 13.4,76.5 13.4,76.5 C13.4,76.5 13.2,76.4 12.8,76.3 C12.6,76.2 12.4,76.1 12.1,76 C11.9,75.9 11.6,75.7 11.3,75.5 C11,75.3 10.7,75.1 10.4,74.9 C10.1,74.7 9.8,74.4 9.5,74.1 C9.2,73.8 8.9,73.4 8.6,73.1 C8.3,72.7 8.1,72.3 7.8,72 C7.4,71.2 7,70.4 6.7,69.6 C6.4,68.8 6.2,68 6.1,67.4 C6,65.9 6,65 6,65 Z" fill="#59402F"/>
            <path d="M12.8,74 C12.8,74 13.5,74.2 14.4,74.8 C14.9,75.1 15.4,75.4 15.9,75.8 C16.4,76.2 17,76.6 17.5,77.1 C18,77.6 18.5,78.1 18.9,78.7 C19.3,79.2 19.6,79.8 19.8,80.3 C19.9,80.6 20,80.8 20,81 C20.1,81.2 20.1,81.4 20.1,81.5 C20.2,81.8 20.2,82 20.2,82 C20.2,82 20.1,81.8 20,81.6 C19.9,81.5 19.9,81.3 19.8,81.1 C19.7,80.9 19.6,80.7 19.5,80.5 C19.4,80.3 19.2,80.1 19,79.8 C18.8,79.6 18.6,79.3 18.4,79.1 C18,78.6 17.5,78.1 17,77.6 C16.5,77.1 16,76.7 15.5,76.2 C15,75.8 14.5,75.4 14.1,75.1 C13.3,74.4 12.8,74 12.8,74 Z" fill="#59402F"/>
            <path d="M21.3,80 C21.3,80 21.9,80.4 22.8,81 C23.3,81.3 23.8,81.6 24.3,81.9 C24.9,82.2 25.5,82.6 26.1,82.9 C26.7,83.2 27.4,83.5 28,83.7 C28.3,83.8 28.6,83.9 28.9,84 C29.2,84.1 29.5,84.1 29.7,84.2 C30,84.2 30.2,84.3 30.4,84.3 C30.6,84.3 30.8,84.3 31,84.3 C31.3,84.3 31.5,84.3 31.5,84.3 C31.5,84.3 31.3,84.3 31,84.4 C30.8,84.4 30.7,84.5 30.4,84.5 C30.2,84.5 29.9,84.5 29.7,84.5 C29.2,84.5 28.5,84.4 27.9,84.2 C27.2,84 26.6,83.7 25.9,83.4 C25.3,83.1 24.6,82.7 24.1,82.3 C23.5,81.9 23.1,81.5 22.6,81.2 C21.8,80.5 21.3,80 21.3,80 Z" fill="#59402F"/>
            <path d="M46.3,0.5 C46.3,0.5 49.4,0.7 54,1.6 C56.3,2 59,2.6 61.8,3.4 C63.2,3.8 64.7,4.2 66.1,4.6 C67.6,5 69.1,5.5 70.5,6 C73.4,7.1 76.3,8.4 79,9.3 C80.4,9.8 81.7,10.2 83,10.5 C84.3,10.8 85.5,11 86.7,11.1 C87.9,11.2 88.9,11.3 89.9,11.3 C90.8,11.3 91.7,11.3 92.3,11.3 C93.7,11.2 94.4,11.2 94.4,11.2 C94.4,11.2 93.6,11.3 92.3,11.4 C91.6,11.5 90.8,11.5 89.8,11.5 C88.9,11.5 87.8,11.5 86.6,11.4 C85.4,11.3 84.2,11.1 82.9,10.9 C81.6,10.6 80.2,10.3 78.8,9.8 C76,8.9 73.2,7.6 70.3,6.6 C68.9,6.1 67.4,5.7 65.9,5.2 C64.4,4.8 63,4.4 61.6,4 C58.8,3.2 56.2,2.6 53.9,2.1 C51.6,1.6 49.7,1.2 48.4,0.9 C47,0.7 46.3,0.5 46.3,0.5 Z" fill="#59402F"/>
            <path d="M120.2,10.6 C120.2,10.6 121.4,10.9 123.4,11.5 C125.4,12.1 128.3,13.1 131.6,14.7 C134.9,16.3 138.7,18.3 142.3,21.1 C146,23.9 149.5,27.3 152.3,31.4 C153.7,33.4 154.9,35.6 155.9,37.8 C156.9,40 157.9,42.2 158.7,44.3 C159.5,46.5 160.1,48.6 160.5,50.7 C160.9,52.8 161.1,54.8 161.1,56.6 C161.1,60.3 160.5,63.3 160.1,65.4 C159.7,67.5 159.5,68.7 159.5,68.7 C159.5,68.7 159.7,67.5 160,65.4 C160.3,63.3 160.8,60.3 160.7,56.6 C160.6,54.8 160.4,52.8 160,50.8 C159.6,48.8 158.9,46.7 158.1,44.5 C157.3,42.4 156.4,40.2 155.3,38.1 C154.3,35.9 153.1,33.8 151.7,31.8 C149,27.8 145.5,24.4 141.9,21.6 C138.3,18.8 134.6,16.7 131.4,15.1 C128.1,13.5 125.3,12.4 123.3,11.7 C121.4,10.9 120.2,10.6 120.2,10.6 Z" fill="#59402F"/>
            <path d="M33.4,89.9 C33.4,89.9 34.7,91 37.3,92.6 C39.9,94.2 43.7,96.3 48.5,98.2 C53.3,100.2 59.2,101.9 65.6,103.1 C72,104.4 78.9,105 85.9,105 C89.4,105 92.8,104.9 96.3,104.7 C99.7,104.5 103.1,104.2 106.3,103.9 C107.9,103.7 109.5,103.5 111.1,103.4 C112.7,103.2 114.2,103 115.7,102.8 C118.7,102.4 121.4,101.8 124,101.3 C126.5,100.7 128.9,100.1 130.9,99.5 C131.9,99.2 132.8,98.9 133.7,98.6 C134.5,98.3 135.3,98 136,97.7 C137.4,97.1 138.4,96.5 139.1,96.1 C139.8,95.7 140.1,95.4 140.1,95.4 C140.1,95.4 139.8,95.7 139.1,96.2 C138.4,96.6 137.4,97.3 136,97.9 C135.3,98.2 134.5,98.5 133.7,98.9 C132.8,99.2 131.9,99.6 130.9,99.9 C128.9,100.6 126.6,101.2 124,101.8 C121.5,102.4 118.7,102.9 115.7,103.4 C114.2,103.6 112.7,103.9 111.1,104.1 C109.5,104.3 107.9,104.5 106.3,104.7 C103,105 99.7,105.3 96.3,105.5 C92.9,105.8 89.4,105.9 85.9,105.9 C78.9,105.8 71.9,105.2 65.5,103.9 C59.1,102.6 53.2,100.8 48.4,98.7 C43.6,96.7 39.8,94.5 37.2,92.8 C34.7,91.1 33.4,89.9 33.4,89.9 Z" fill="#59402F"/>
          </g>
        </g>
        <g id="Group" transform="translate(62.000000, 74.000000)">
          <g fill="#8D674A" id="Shape">
            <path d="M0.8,19.2 C3.8,40.3 9.5,45.7 10.2,51.7 C10.9,57.7 10.2,80.2 8.9,82.9 C7.6,85.6 3.5,87.6 2.9,90.6 C2.3,93.6 25,92.3 27.7,90.6 C30.4,88.9 44.8,51 43.8,29.5 C39.1,-14 -2.2,-1.9 0.8,19.2 Z"/>
            <path d="M37,10.1 C37,10.1 43.6,20.1 45.9,20.1 C45.9,20.1 43.7,21.6 42.1,20.1 C42.1,20.1 46.1,22.1 46.7,26.3 L44,25.2 C44,25.2 47.3,31.4 46.7,35.4 L44.3,32.3 C44.3,32.3 47,38.5 42.8,41.6"/>
          </g>
          <path d="M45.6,20 C45.6,20 45.4,20 45.1,19.9 C44.8,19.8 44.4,19.6 44,19.3 C43.1,18.7 42.1,17.7 41.2,16.6 C40.7,16.1 40.3,15.5 39.9,14.9 C39.5,14.4 39.2,13.8 38.9,13.4 C38.4,12.5 38,11.9 38,11.9 C38,11.9 38.5,12.4 39.2,13.2 C39.9,14 40.8,15.1 41.7,16.2 C42.6,17.3 43.5,18.3 44.3,19.1 C44.7,19.5 45,19.8 45.3,19.9 C45.5,20 45.6,20 45.6,20 Z" id="Shape" fill="#59402F"/>
          <path d="M46.5,26.1 C46.5,26.1 46.3,25.7 46.1,25.1 C45.8,24.5 45.5,23.8 45.1,23.1 C44.9,22.8 44.7,22.4 44.4,22.1 C44.2,21.8 43.9,21.5 43.7,21.3 C43.5,21.1 43.3,20.9 43.2,20.8 C43.1,20.7 43,20.6 43,20.6 C43,20.6 43.1,20.6 43.3,20.7 C43.5,20.8 43.7,20.9 44,21 C44.3,21.2 44.6,21.4 44.9,21.7 C45.2,22 45.5,22.3 45.7,22.7 C45.9,23.1 46.1,23.5 46.3,23.8 C46.4,24.2 46.5,24.5 46.6,24.9 C46.6,25.7 46.5,26.1 46.5,26.1 Z" id="Shape" fill="#59402F"/>
          <path d="M46.5,34.9 C46.5,34.9 46.6,34.3 46.5,33.3 C46.5,32.8 46.4,32.3 46.2,31.7 C46.1,31.1 45.9,30.5 45.7,29.9 C45.5,29.3 45.3,28.7 45.1,28.1 C44.9,27.5 44.7,27 44.5,26.6 C44.3,26.2 44.2,25.8 44.1,25.5 C44,25.2 44,25.1 44,25.1 C44,25.1 44.1,25.2 44.3,25.5 C44.5,25.7 44.7,26.1 44.9,26.5 C45.1,26.9 45.4,27.4 45.7,28 C46,28.5 46.2,29.2 46.4,29.8 C46.6,30.4 46.7,31.1 46.8,31.7 C46.9,32.3 46.9,32.9 46.9,33.4 C46.9,33.9 46.8,34.3 46.7,34.6 C46.6,34.7 46.5,34.9 46.5,34.9 Z" id="Shape" fill="#59402F"/>
          <path d="M25.9,91.2 C25.9,91.2 26.1,91.2 26.6,91.1 C27,91 27.7,90.8 28.1,90.1 C28.6,89.5 29.1,88.6 29.6,87.6 C30.1,86.6 30.5,85.4 30.9,84.1 C31.9,81.5 33,78.5 34.2,75.2 C35.4,72 36.6,68.5 37.7,65 C38.3,63.2 38.8,61.5 39.3,59.7 C39.5,58.8 39.8,58 40,57.1 C40.2,56.2 40.4,55.4 40.6,54.5 C40.8,53.7 40.9,52.8 41.1,52 C41.3,51.2 41.4,50.4 41.5,49.6 C41.7,48 42,46.6 42.2,45.2 C42.6,42.5 42.9,40.2 43.1,38.6 C43.3,37 43.3,36.1 43.3,36.1 C43.3,36.1 43.3,37 43.2,38.6 C43.1,40.2 42.9,42.5 42.5,45.3 C42.3,46.7 42.1,48.2 41.9,49.7 C41.7,51.3 41.4,52.9 41.1,54.6 C40.9,55.5 40.7,56.3 40.5,57.2 C40.3,58.1 40.1,58.9 39.8,59.8 C39.3,61.6 38.8,63.3 38.3,65.1 C37.2,68.6 35.9,72.1 34.7,75.3 C33.5,78.5 32.3,81.5 31.3,84.1 C30.8,85.4 30.4,86.6 29.8,87.6 C29.3,88.6 28.7,89.4 28.2,90 C27.7,90.7 27.1,90.9 26.6,91 C26.1,91.3 25.9,91.2 25.9,91.2 Z" id="Shape" fill="#59402F"/>
          <path d="M43,41.3 C43,41.3 43.5,40.9 43.9,40.1 C44.1,39.7 44.3,39.3 44.4,38.7 C44.5,38.2 44.6,37.6 44.6,37 C44.6,36.7 44.6,36.4 44.6,36.1 C44.6,35.8 44.6,35.5 44.6,35.3 C44.6,34.8 44.5,34.3 44.5,33.8 C44.5,33.4 44.4,33 44.4,32.7 C44.4,32.4 44.4,32.3 44.4,32.3 C44.4,32.3 44.5,32.4 44.6,32.7 C44.7,32.9 44.8,33.3 45,33.7 C45.1,34.1 45.3,34.6 45.3,35.2 C45.3,35.5 45.4,35.8 45.4,36.1 C45.4,36.4 45.4,36.7 45.4,37 C45.4,37.6 45.3,38.2 45.1,38.8 C45,39.1 44.9,39.3 44.8,39.6 C44.7,39.8 44.5,40.1 44.4,40.2 C44.1,40.6 43.8,40.8 43.6,41 C43.1,41.2 43,41.3 43,41.3 Z" id="Shape" fill="#59402F"/>
          <path d="M9.7,92.2 C9.7,92.2 9.7,91.9 9.7,91.4 C9.8,90.9 10,90.3 10.4,89.8 C10.8,89.3 11.2,88.8 11.6,88.6 C12,88.3 12.3,88.2 12.3,88.2 C12.3,88.2 12.3,88.3 12.2,88.4 C12.1,88.5 12,88.7 11.9,88.8 C11.6,89.2 11.3,89.6 11,90.1 C10.7,90.6 10.4,91.1 10.1,91.4 C9.8,91.9 9.7,92.2 9.7,92.2 Z" id="Shape" fill="#59402F"/>
          <path d="M4.4,91.7 C4.4,91.7 4.4,91.3 4.6,90.8 C4.8,90.3 5.1,89.6 5.6,89.1 C5.8,88.8 6.1,88.6 6.4,88.4 C6.7,88.2 6.9,88 7.2,87.9 C7.4,87.8 7.7,87.7 7.8,87.7 C8,87.7 8,87.6 8,87.6 C8,87.6 7.9,87.7 7.8,87.8 C7.7,87.9 7.5,88.1 7.3,88.2 C6.9,88.6 6.5,89 6,89.6 C5.6,90.1 5.2,90.7 4.9,91.1 C4.6,91.4 4.4,91.7 4.4,91.7 Z" id="Shape" fill="#59402F"/>
          <path d="M6,86.4 C6,86.4 6.2,86.3 6.5,86 C6.8,85.7 7.3,85.3 7.8,84.7 C8.3,84.1 8.8,83.3 9.1,82.2 C9.5,81.2 9.6,80 9.6,78.6 C9.7,75.9 10,72.7 10.2,69.3 C10.4,65.9 10.6,62.3 10.5,58.7 C10.4,56.9 10.4,55.1 10.1,53.4 C9.9,51.7 9.4,50 8.9,48.4 C7.9,45.2 6.7,42.2 5.8,39.7 C4.8,37.2 4.2,35 3.8,33.4 C3.6,32.6 3.5,32 3.4,31.6 C3.3,31.2 3.3,31 3.3,31 C3.3,31 3.4,31.2 3.5,31.6 C3.6,32 3.8,32.6 4,33.4 C4.2,34.2 4.5,35.1 4.9,36.1 C5.3,37.1 5.7,38.3 6.3,39.5 C7.3,42 8.6,44.9 9.6,48.2 C10.1,49.8 10.6,51.5 10.8,53.3 C11.1,55.1 11.2,56.9 11.2,58.7 C11.3,62.3 11.1,66 10.8,69.4 C10.6,72.8 10.2,75.9 10,78.6 C10,79.3 9.9,79.9 9.8,80.6 C9.7,81.2 9.5,81.8 9.3,82.3 C8.9,83.3 8.4,84.2 7.8,84.8 C7.3,85.4 6.8,85.8 6.4,86 C6.2,86.3 6,86.4 6,86.4 Z" id="Shape" fill="#59402F"/>
          <path d="M10.5,93.4 C10.5,92.8 11.3,90.3 12.4,90.3 C13.5,90.3 12.8,91.4 12.3,92 C11.8,92.7 10.5,93.8 10.5,93.4 Z" id="Shape" fill="#6C5F57"/>
          <path d="M5.4,93 C5.4,92.4 6.2,89.9 7.3,89.9 C8.4,89.9 7.7,91 7.2,91.6 C6.6,92.3 5.4,93.4 5.4,93 Z" id="Shape" fill="#6C5F57"/>
          <path d="M2.2,92.2 C2.2,91.6 3,89.1 4.1,89.1 C5.2,89.1 4.5,90.2 4,90.8 C3.4,91.5 2.2,92.5 2.2,92.2 Z" id="Shape" fill="#6C5F57"/>
        </g>
        <g id="Group" transform="translate(132.000000, 56.000000)">
          <path d="M0.8,34.1 C0.8,34.1 1.6,56.9 18.3,77.6 C21.3,81.3 23.3,85.1 25,88.2 C28.4,94.5 29.8,98.8 29.2,100.3 C28.1,103 22.6,105.8 24.1,107.1 C25.7,108.4 44,107.9 47.9,105.4 C49.5,104.4 50.8,77.2 47.9,65.7 C45,54.2 42.7,50.5 42.4,41.9 C42.1,33.3 45.5,18.1 41.6,11.8 C37.7,5.5 27.2,-4.1 12.8,3.7 C-1.6,11.6 -0.3,28.3 0.8,34.1 Z" id="Shape" fill="#8D674A"/>
          <path d="M31.7,107.4 C31.7,107.4 31.7,107.1 31.7,106.6 C31.8,106.1 32,105.5 32.4,105 C32.8,104.5 33.2,104 33.6,103.8 C34,103.5 34.3,103.4 34.3,103.4 C34.3,103.4 34.3,103.5 34.2,103.6 C34.1,103.7 34,103.9 33.9,104 C33.6,104.4 33.3,104.8 33,105.3 C32.7,105.8 32.4,106.3 32.1,106.6 C31.8,107.2 31.7,107.4 31.7,107.4 Z" id="Shape" fill="#59402F"/>
          <path d="M26.4,107.4 C26.4,107.4 26.4,107 26.6,106.5 C26.8,106 27.1,105.3 27.6,104.8 C27.8,104.5 28.1,104.3 28.4,104.1 C28.7,103.9 28.9,103.7 29.2,103.6 C29.4,103.5 29.7,103.4 29.8,103.4 C30,103.4 30,103.3 30,103.3 C30,103.3 29.9,103.4 29.8,103.5 C29.7,103.6 29.5,103.8 29.3,103.9 C28.9,104.3 28.5,104.7 28,105.3 C27.6,105.8 27.2,106.4 26.9,106.8 C26.6,107.1 26.4,107.4 26.4,107.4 Z" id="Shape" fill="#59402F"/>
          <path d="M32.6,108.7 C32.6,108.1 33.4,105.6 34.5,105.6 C35.6,105.6 34.9,106.7 34.4,107.3 C33.8,108 32.6,109.1 32.6,108.7 Z" id="Shape" fill="#6C5F57"/>
          <path d="M27.4,108.3 C27.4,107.7 28.2,105.2 29.3,105.2 C30.4,105.2 29.7,106.3 29.2,106.9 C28.7,107.6 27.4,108.6 27.4,108.3 Z" id="Shape" fill="#6C5F57"/>
          <path d="M24.2,108.1 C24.2,107.5 25,105 26.1,105 C27.2,105 26.5,106.1 26,106.7 C25.4,107.4 24.2,108.4 24.2,108.1 Z" id="Shape" fill="#6C5F57"/>
          <g transform="translate(42.000000, 44.000000)" id="Shape">
            <path d="M0.3,0.6 C0.3,0.6 6.9,10.6 9.2,10.6 C9.2,10.6 7,12.1 5.4,10.6 C5.4,10.6 9.4,12.6 10,16.8 L7.3,15.7 C7.3,15.7 10.6,21.9 10,25.9 L7.6,22.8 C7.6,22.8 10.3,29 6.1,32.1" fill="#8D674A"/>
            <path d="M8.9,10.6 C8.9,10.6 8.7,10.6 8.4,10.5 C8.1,10.4 7.7,10.2 7.3,9.9 C6.4,9.3 5.4,8.3 4.5,7.2 C4,6.7 3.6,6.1 3.2,5.5 C2.8,5 2.5,4.4 2.2,4 C1.7,3.1 1.3,2.5 1.3,2.5 C1.3,2.5 1.8,3 2.5,3.8 C3.2,4.6 4.1,5.7 5,6.8 C5.9,7.9 6.8,8.9 7.6,9.7 C8,10.1 8.3,10.4 8.6,10.5 C8.8,10.5 8.9,10.6 8.9,10.6 Z" fill="#59402F"/>
            <path d="M9.8,16.7 C9.8,16.7 9.6,16.3 9.4,15.7 C9.1,15.1 8.8,14.4 8.4,13.7 C8.2,13.4 8,13 7.7,12.7 C7.5,12.4 7.2,12.1 7,11.9 C6.8,11.7 6.6,11.5 6.5,11.4 C6.4,11.3 6.3,11.2 6.3,11.2 C6.3,11.2 6.4,11.2 6.6,11.3 C6.8,11.4 7,11.5 7.3,11.6 C7.6,11.8 7.9,12 8.2,12.3 C8.5,12.6 8.8,12.9 9,13.3 C9.2,13.7 9.4,14.1 9.6,14.4 C9.7,14.8 9.8,15.1 9.9,15.5 C9.9,16.3 9.8,16.7 9.8,16.7 Z" fill="#59402F"/>
            <path d="M9.8,25.4 C9.8,25.4 9.9,24.8 9.8,23.8 C9.8,23.3 9.7,22.8 9.5,22.2 C9.4,21.6 9.2,21 9,20.4 C8.8,19.8 8.6,19.2 8.4,18.6 C8.2,18 8,17.5 7.8,17.1 C7.6,16.7 7.5,16.3 7.4,16 C7.3,15.7 7.3,15.6 7.3,15.6 C7.3,15.6 7.4,15.7 7.6,16 C7.8,16.2 8,16.6 8.2,17 C8.4,17.4 8.7,17.9 9,18.5 C9.3,19 9.5,19.7 9.7,20.3 C9.9,20.9 10,21.6 10.1,22.2 C10.2,22.8 10.2,23.4 10.2,23.9 C10.2,24.4 10.1,24.8 10,25.1 C9.9,25.3 9.8,25.4 9.8,25.4 Z" fill="#59402F"/>
            <path d="M7.1,30.9 C7.1,30.9 7.2,30.8 7.3,30.6 C7.4,30.4 7.5,30.1 7.6,29.8 C7.8,29.1 7.9,28.1 7.8,27.1 C7.8,26.1 7.6,25.1 7.6,24.3 C7.5,23.5 7.5,23 7.5,23 C7.5,23 7.7,23.5 8,24.2 C8.1,24.6 8.3,25 8.3,25.5 C8.3,25.7 8.4,26 8.4,26.3 C8.4,26.6 8.5,26.8 8.5,27.1 C8.5,27.6 8.5,28.2 8.4,28.7 C8.3,29.2 8.2,29.7 8,30 C7.8,30.4 7.6,30.6 7.4,30.8 C7.3,30.9 7.1,30.9 7.1,30.9 Z" fill="#59402F"/>
          </g>
          <path d="M48.9,69.8 C48.9,69.8 49.1,72.2 49.4,75.8 C49.5,77.6 49.6,79.7 49.7,82 C49.8,84.3 49.8,86.7 49.8,89.1 C49.8,91.5 49.7,93.9 49.6,96.2 C49.5,98.5 49.2,100.6 48.9,102.4 C48.7,103.3 48.5,104.1 48.2,104.8 C48.1,105 48,105.1 48,105.3 L47.9,105.5 C47.9,105.6 47.8,105.6 47.7,105.7 C47.4,105.9 47.1,106 46.9,106.1 C45.9,106.4 45.3,106.5 45.3,106.5 C45.3,106.5 45.9,106.3 46.9,105.9 C47.1,105.8 47.4,105.7 47.7,105.5 C47.7,105.5 47.8,105.4 47.9,105.4 L48,105.2 C48.1,105 48.1,104.9 48.2,104.7 C48.4,104 48.6,103.2 48.7,102.3 C49,100.5 49.1,98.4 49.2,96.2 C49.3,93.9 49.3,91.5 49.3,89.1 C49.3,86.7 49.3,84.3 49.3,82 C49.3,79.7 49.2,77.6 49.2,75.8 C48.9,72.2 48.9,69.8 48.9,69.8 Z" id="Shape" fill="#59402F"/>
          <path d="M1.6,44.3 C1.6,44.3 3,48.3 5.3,54.1 C6.5,57 7.9,60.4 9.6,64 C10.5,65.7 11.4,67.6 12.5,69.3 C13.1,70.1 13.7,70.9 14.4,71.7 C15.1,72.5 15.7,73.4 16.3,74.2 C18.8,77.6 21.1,81.1 23.1,84.5 C24.1,86.2 25.1,87.8 25.9,89.4 C26.8,91 27.5,92.5 28.1,94 C28.4,94.7 28.6,95.5 28.8,96.2 C29,96.9 29.2,97.6 29.3,98.2 C29.4,98.8 29.4,99.5 29.2,100 C29,100.5 28.7,101 28.4,101.3 C27.8,102 27.2,102.5 26.9,102.8 C26.5,103.1 26.3,103.3 26.3,103.3 C26.3,103.3 26.5,103.1 26.9,102.8 C27.3,102.5 27.8,102 28.4,101.2 C28.7,100.8 28.9,100.4 29.1,99.9 C29.3,99.4 29.2,98.8 29.1,98.2 C29,97.6 28.8,96.9 28.6,96.2 C28.4,95.5 28.2,94.8 27.8,94.1 C26.5,91.2 24.6,88.1 22.6,84.7 C20.5,81.4 18.2,77.8 15.7,74.5 C15.1,73.6 14.5,72.8 13.8,72 C13.1,71.2 12.5,70.4 11.9,69.5 C10.7,67.8 9.8,65.9 9,64.1 C8.2,62.3 7.4,60.6 6.7,58.9 C6,57.2 5.4,55.6 4.9,54.1 C3.8,51.1 3,48.6 2.4,46.9 C1.9,45.3 1.6,44.3 1.6,44.3 Z" id="Shape" fill="#59402F"/>
        </g>
        <g id="Group">
          <g transform="translate(0.000000, 4.000000)" id="Shape">
            <g fill="#8D674A">
              <path d="M76.2,29.6 C76.2,29.6 78.6,38.3 81.5,41.4 C81.5,41.4 79.1,41.2 78.3,39.9 C78.3,39.9 80.7,42 79,49.1 L77.6,46.7 C77.6,46.7 78.8,51.8 76.4,56.3 L75.2,53.9 C75.2,53.9 75.2,60.4 69,64.8 L68.7,61.7 C68.7,61.7 67.8,67.5 56.9,68.4"/>
              <path d="M5.3,29.6 C5.3,29.6 2.9,38.3 0,41.4 C0,41.4 2.4,41.2 3.2,39.9 C3.2,39.9 0.8,42 2.5,49.1 L3.9,46.7 C3.9,46.7 2.7,51.8 5.1,56.3 L6.3,53.9 C6.3,53.9 6.3,60.4 12.5,64.8 L12.8,61.7 C12.8,61.7 13.7,67.5 24.6,68.4"/>
              <path d="M13.6,64.4 C3.6,57.6 2.2,39.8 4.7,31.6 C7.2,23.4 15.1,8.1 24,4.1 C35.8,-1.3 61.8,-4.8 74,22.7 C86.2,50.2 69.4,64.8 58.3,68.4 C47.2,72 25,72.1 13.6,64.4 Z"/>
            </g>
            <path d="M42.4,30.5 C42.4,30.5 42.3,30.5 42.1,30.4 C41.9,30.3 41.6,30.3 41.3,30.2 C40.7,30.1 39.9,30 39,30 C38.2,30 37.3,30 36.7,30.1 C36,30.1 35.6,30.1 35.6,30.1 C35.6,30.1 36,29.9 36.6,29.7 C37.2,29.5 38.1,29.3 39,29.3 C39.4,29.3 39.9,29.3 40.3,29.4 C40.7,29.5 41.1,29.6 41.4,29.7 C41.7,29.8 41.9,30 42.1,30.1 C42.3,30.4 42.4,30.5 42.4,30.5 Z" fill="#59402F"/>
            <path d="M36.3,28.5 C36.3,28.5 36.6,28.3 37,28.2 C37.4,28.1 38,28 38.6,28 C39.2,28 39.8,28.1 40.2,28.3 C40.6,28.5 40.9,28.7 40.9,28.7 C40.9,28.7 40.8,28.7 40.7,28.7 C40.6,28.7 40.4,28.7 40.2,28.7 C39.8,28.7 39.2,28.7 38.6,28.7 C38,28.7 37.5,28.7 37,28.7 C36.7,28.6 36.3,28.5 36.3,28.5 Z" fill="#59402F"/>
            <path d="M67.3,40.1 C67.3,40.1 67.6,40.7 67.8,41.6 C68,42.5 68.2,43.8 68.2,45 C68.2,45.3 68.2,45.6 68.2,45.9 C68.2,46.2 68.1,46.5 68.1,46.8 C68.1,47.1 68,47.4 68,47.6 C68,47.9 67.9,48.1 67.8,48.3 C67.7,48.8 67.5,49.1 67.4,49.4 C67.3,49.7 67.2,49.8 67.2,49.8 C67.2,49.8 67.2,49.6 67.2,49.4 C67.2,49.1 67.3,48.7 67.3,48.3 C67.4,47.4 67.5,46.2 67.5,44.9 C67.6,42.6 67.3,40.1 67.3,40.1 Z" fill="#59402F"/>
            <g transform="translate(63.000000, 50.000000)" fill="#59402F">
              <path d="M3.2,0.2 C3.2,0.2 3.3,0.4 3.3,0.6 C3.3,0.8 3.3,1.2 3.3,1.5 C3.3,1.8 3.1,2.1 3,2.4 C2.9,2.6 2.8,2.8 2.8,2.8 C2.8,2.8 2.7,2.6 2.7,2.4 C2.7,2.2 2.7,1.8 2.7,1.5 C2.7,1.2 2.9,0.9 3,0.6 C3.1,0.3 3.2,0.2 3.2,0.2 Z"/>
              <path d="M1.5,2.4 C1.5,2.4 1.5,2.6 1.6,2.8 C1.6,3 1.6,3.3 1.5,3.6 C1.4,3.9 1.3,4.2 1.2,4.4 C1.1,4.6 1,4.7 1,4.7 C1,4.7 1,4.5 0.9,4.3 C0.9,4.1 0.9,3.8 1,3.5 C1.1,3.2 1.2,2.9 1.3,2.7 C1.4,2.6 1.5,2.4 1.5,2.4 Z"/>
            </g>
            <path d="M63,54.7 C63,54.7 63,55.2 62.7,56 C62.4,56.8 61.9,57.8 61.2,58.6 C60.9,59 60.5,59.4 60.1,59.8 C59.7,60.1 59.3,60.4 59,60.6 C58.7,60.8 58.3,61 58.1,61.1 C57.9,61.2 57.8,61.2 57.8,61.2 C57.8,61.2 57.9,61.1 58.1,60.9 C58.3,60.8 58.5,60.5 58.8,60.3 C59.4,59.8 60.1,59 60.8,58.2 C61.1,57.8 61.4,57.4 61.7,57 C62,56.6 62.2,56.2 62.4,55.9 C62.8,55.2 63,54.7 63,54.7 Z" fill="#59402F"/>
            <path d="M15.4,38.5 C15.4,38.5 15.4,38.9 15.3,39.5 C15.2,40.1 15.1,40.9 15,41.7 C14.9,42.5 14.8,43.3 14.8,43.9 C14.8,44.2 14.7,44.5 14.7,44.6 C14.7,44.8 14.7,44.9 14.7,44.9 C14.7,44.9 14.5,44.5 14.4,43.9 C14.3,43.6 14.3,43.2 14.3,42.8 C14.3,42.4 14.3,42 14.4,41.6 C14.5,40.8 14.7,40 15,39.4 C15.2,38.9 15.4,38.5 15.4,38.5 Z" fill="#59402F"/>
            <path d="M15.6,45.4 C15.6,45.4 15.6,45.6 15.7,45.8 C15.7,46 15.7,46.3 15.6,46.6 C15.5,46.9 15.4,47.2 15.3,47.4 C15.2,47.6 15.1,47.7 15.1,47.7 C15.1,47.7 15.1,47.5 15,47.3 C15,47.1 15,46.8 15.1,46.5 C15.2,46.2 15.3,45.9 15.4,45.7 C15.5,45.5 15.6,45.4 15.6,45.4 Z" fill="#59402F"/>
            <path d="M16.3,48.2 C16.3,48.2 16.3,48.8 16.3,49.7 C16.3,50.1 16.3,50.6 16.4,51.2 C16.5,51.7 16.5,52.3 16.7,52.9 C16.9,54 17.3,55.1 17.7,55.9 C17.9,56.3 18.1,56.6 18.2,56.8 C18.3,57 18.4,57.2 18.4,57.2 C18.4,57.2 18.3,57.1 18.1,56.9 C17.9,56.7 17.6,56.4 17.4,56.1 C17.3,55.9 17.1,55.7 17,55.5 C16.9,55.3 16.7,55 16.6,54.8 C16.4,54.3 16.2,53.7 16.1,53.1 C16,52.5 15.9,51.9 15.9,51.3 C15.9,50.7 15.9,50.2 16,49.8 C16.1,48.8 16.3,48.2 16.3,48.2 Z" fill="#59402F"/>
            <path d="M68.3,13.3 C68.3,13.3 68.7,13.6 69.3,14.2 C69.9,14.8 70.7,15.8 71.5,17 C71.9,17.6 72.3,18.3 72.7,19 C73.1,19.7 73.5,20.5 73.9,21.4 C74.3,22.2 74.6,23.1 75,24 C75.3,24.9 75.7,25.8 75.9,26.8 C76.2,27.7 76.4,28.7 76.7,29.6 C77,30.5 77.2,31.4 77.5,32.3 C78.1,34 78.6,35.7 79.1,37 C79.6,38.4 80.1,39.5 80.6,40.2 C80.8,40.6 81,40.8 81.2,41 C81.4,41.2 81.5,41.2 81.5,41.2 C81.5,41.2 81.4,41.2 81.2,41 C81,40.9 80.8,40.6 80.5,40.3 C80,39.6 79.4,38.5 78.8,37.2 C78.2,35.9 77.6,34.3 77,32.5 C76.7,31.6 76.4,30.7 76.1,29.8 C75.8,28.9 75.5,27.9 75.3,27 C75,26.1 74.7,25.1 74.4,24.2 C74.1,23.3 73.7,22.4 73.4,21.6 C73,20.8 72.7,20 72.3,19.2 C71.9,18.5 71.5,17.8 71.2,17.1 C70.5,15.9 69.8,14.9 69.2,14.2 C68.6,13.6 68.3,13.3 68.3,13.3 Z" fill="#59402F"/>
            <path d="M78.5,40.4 C78.5,40.4 78.8,40.9 79.2,41.7 C79.4,42.1 79.5,42.6 79.6,43.1 C79.7,43.6 79.8,44.2 79.8,44.8 C79.8,45.4 79.8,45.9 79.7,46.5 C79.6,47 79.5,47.5 79.4,47.9 C79.3,48.3 79.1,48.6 79.1,48.9 C79,49.1 79,49.3 79,49.3 C79,49.3 79,49.2 79,48.9 C79,48.7 79.1,48.3 79.1,47.9 C79.1,47.5 79.2,47 79.2,46.5 C79.2,46 79.2,45.4 79.2,44.9 C79.2,43.8 79,42.7 78.9,41.9 C78.7,40.9 78.5,40.4 78.5,40.4 Z" fill="#59402F"/>
            <path d="M77.5,46.7 C77.5,46.7 77.6,47.3 77.8,48.2 C77.9,49.1 77.9,50.3 77.8,51.5 C77.7,52.7 77.4,53.9 77.1,54.7 C76.9,55.1 76.7,55.4 76.6,55.7 C76.5,55.9 76.4,56 76.4,56 C76.4,56 76.4,55.9 76.5,55.6 C76.6,55.4 76.7,55 76.8,54.6 C77,53.8 77.1,52.6 77.2,51.4 C77.3,50.2 77.4,49.1 77.4,48.2 C77.4,47.3 77.5,46.7 77.5,46.7 Z" fill="#59402F"/>
            <path d="M75.1,53.9 C75.1,53.9 75.1,54.7 74.9,55.9 C74.8,56.5 74.6,57.2 74.4,57.9 C74.2,58.6 73.9,59.4 73.5,60.1 C73.3,60.5 73.1,60.8 72.9,61.2 C72.7,61.5 72.5,61.9 72.2,62.2 C72,62.5 71.7,62.8 71.5,63 C71.2,63.2 71,63.5 70.8,63.7 C70.6,63.9 70.3,64 70.1,64.2 C69.9,64.3 69.7,64.4 69.5,64.5 C69.2,64.6 69,64.7 69,64.7 C69,64.7 69.2,64.6 69.4,64.4 C69.5,64.3 69.7,64.2 69.9,64 C70.1,63.8 70.3,63.6 70.5,63.4 C70.7,63.2 70.9,62.9 71.1,62.7 C71.3,62.4 71.5,62.1 71.7,61.9 C72.1,61.3 72.5,60.6 72.8,59.9 C73,59.5 73.1,59.2 73.3,58.8 C73.4,58.4 73.6,58.1 73.7,57.8 C74,57.1 74.2,56.5 74.4,55.9 C74.9,54.7 75.1,53.9 75.1,53.9 Z" fill="#59402F"/>
            <path d="M14.6,13 C14.6,13 14.3,13.4 13.7,14 C13.1,14.7 12.4,15.7 11.6,16.9 C10.8,18.2 9.9,19.7 9.1,21.3 C8.7,22.1 8.2,23 7.9,23.9 C7.5,24.8 7.1,25.7 6.7,26.6 C6,28.5 5.3,30.4 4.7,32.1 C4.1,33.9 3.4,35.5 2.8,36.9 C2.2,38.3 1.6,39.4 1.2,40.2 C1,40.6 0.7,40.8 0.5,41 C0.3,41.1 0.2,41.2 0.2,41.2 C0.2,41.2 0.3,41.2 0.5,41 C0.7,40.8 0.9,40.6 1.1,40.2 C1.5,39.4 2,38.3 2.5,36.9 C3,35.5 3.6,33.8 4.2,32.1 C4.8,30.3 5.4,28.4 6.2,26.6 C6.6,25.7 7,24.7 7.4,23.8 C7.8,22.9 8.3,22 8.7,21.2 C9.2,20.4 9.6,19.6 10.1,18.9 C10.6,18.2 11,17.5 11.5,16.9 C12.4,15.7 13.2,14.7 13.8,14.1 C14.2,13.3 14.6,13 14.6,13 Z" fill="#59402F"/>
            <path d="M2.9,40.4 C2.9,40.4 2.7,40.9 2.6,41.8 C2.5,42.6 2.3,43.7 2.3,44.8 C2.3,45.3 2.3,45.9 2.3,46.4 C2.3,46.9 2.4,47.4 2.4,47.8 C2.4,48.2 2.5,48.6 2.5,48.8 C2.5,49 2.5,49.2 2.5,49.2 C2.5,49.2 2.4,49.1 2.4,48.8 C2.3,48.6 2.2,48.2 2.1,47.8 C2,47.4 1.9,46.9 1.8,46.4 C1.7,45.9 1.7,45.3 1.7,44.7 C1.7,44.1 1.8,43.6 1.9,43 C2,42.5 2.2,42 2.3,41.6 C2.5,40.8 2.9,40.4 2.9,40.4 Z" fill="#59402F"/>
            <path d="M3.9,46.7 C3.9,46.7 3.9,47.3 4,48.2 C4.1,49.1 4.1,50.2 4.2,51.4 C4.3,52.6 4.4,53.7 4.6,54.6 C4.7,55 4.8,55.4 4.9,55.6 C5,55.8 5,56 5,56 C5,56 4.9,55.9 4.8,55.7 C4.6,55.5 4.5,55.2 4.3,54.7 C3.9,53.9 3.7,52.7 3.6,51.5 C3.5,50.3 3.5,49.1 3.6,48.2 C3.8,47.3 3.9,46.7 3.9,46.7 Z" fill="#59402F"/>
            <path d="M6.3,53.9 C6.3,53.9 6.5,54.7 6.9,55.8 C7.1,56.4 7.3,57 7.6,57.7 C7.7,58 7.9,58.4 8,58.7 C8.1,59.1 8.3,59.4 8.5,59.8 C8.8,60.5 9.2,61.2 9.6,61.8 C9.8,62.1 10,62.4 10.2,62.6 C10.4,62.8 10.6,63.1 10.8,63.3 C11,63.5 11.2,63.7 11.4,63.9 C11.6,64.1 11.7,64.2 11.9,64.3 C12.2,64.5 12.3,64.6 12.3,64.6 C12.3,64.6 12.1,64.5 11.8,64.4 C11.6,64.3 11.4,64.2 11.2,64.1 C11,64 10.8,63.8 10.5,63.6 C10.3,63.4 10,63.2 9.8,62.9 C9.5,62.7 9.3,62.4 9.1,62.1 C8.9,61.8 8.7,61.5 8.4,61.1 C8.2,60.8 8,60.4 7.8,60 C7.5,59.3 7.1,58.5 6.9,57.8 C6.7,57.1 6.5,56.4 6.4,55.8 C6.3,54.7 6.3,53.9 6.3,53.9 Z" fill="#59402F"/>
            <path d="M14.1,64.7 C14.1,64.7 15.2,65.3 16.8,66.1 C17.6,66.5 18.6,66.9 19.7,67.3 C20.8,67.7 21.9,68.1 23.1,68.4 C23.7,68.6 24.3,68.7 24.8,68.9 C25.4,69.1 26,69.1 26.5,69.2 C27.1,69.3 27.6,69.4 28.1,69.5 C28.6,69.6 29.1,69.6 29.6,69.7 C30.1,69.7 30.5,69.8 30.8,69.8 C31.2,69.8 31.5,69.8 31.8,69.9 C32.3,69.9 32.6,70 32.6,70 C32.6,70 32.3,70 31.8,70.1 C31.3,70.1 30.5,70.2 29.6,70.2 C29.1,70.2 28.6,70.2 28.1,70.1 C27.6,70 27,70 26.4,69.9 C25.8,69.8 25.2,69.7 24.6,69.6 C24,69.5 23.4,69.4 22.8,69.2 C21.6,68.9 20.5,68.4 19.4,68 C18.3,67.6 17.4,67.1 16.6,66.6 C15,65.5 14.1,64.7 14.1,64.7 Z" fill="#59402F"/>
            <path d="M26.2,3.1 C26.2,3.1 26.6,2.9 27.4,2.6 C28.2,2.3 29.3,1.9 30.8,1.5 C31.5,1.3 32.3,1.1 33.1,0.9 C33.9,0.7 34.8,0.6 35.7,0.4 C36.6,0.3 37.6,0.2 38.5,0.1 C39.5,0.1 40.4,1.42108547e-14 41.4,1.42108547e-14 L42.9,1.42108547e-14 C43.4,1.42108547e-14 43.9,0.1 44.4,0.1 C44.9,0.1 45.4,0.2 45.8,0.2 C46.3,0.3 46.7,0.3 47.2,0.4 C47.7,0.5 48.1,0.5 48.5,0.6 C48.9,0.7 49.3,0.8 49.8,0.9 C50.2,1 50.6,1.1 51,1.2 C51.4,1.3 51.7,1.4 52.1,1.6 C52.8,1.8 53.4,2.1 54,2.3 C54.5,2.6 55,2.8 55.4,3 C56.2,3.4 56.6,3.6 56.6,3.6 C56.6,3.6 56.1,3.4 55.3,3.1 C54.9,2.9 54.4,2.8 53.9,2.6 C53.3,2.4 52.7,2.2 52,2 C51.7,1.9 51.3,1.8 50.9,1.7 C50.5,1.6 50.1,1.5 49.7,1.5 C49.3,1.4 48.9,1.3 48.4,1.2 C48,1.1 47.5,1.1 47.1,1 C46.7,0.9 46.2,0.9 45.7,0.8 C45.2,0.8 44.8,0.7 44.3,0.7 C43.8,0.7 43.3,0.6 42.9,0.6 L41.5,0.6 C40.5,0.6 39.6,0.6 38.6,0.7 C37.7,0.8 36.7,0.9 35.8,1 C34.9,1.1 34,1.2 33.2,1.4 C32.4,1.5 31.6,1.7 30.9,1.8 C29.5,2.1 28.3,2.4 27.5,2.7 C26.6,2.9 26.2,3.1 26.2,3.1 Z" fill="#59402F"/>
          </g>
          <ellipse id="Oval" fill="#332010" cx="52.5" cy="35.2" rx="1.6" ry="2.5"/>
          <ellipse id="Oval" fill="#332010" cx="28.3" cy="35.2" rx="1.6" ry="2.5"/>
          <g transform="translate(25.000000, 35.000000)" id="Shape">
            <path d="M5.4,29.8 C5.4,29.8 11.5,37.4 17.7,30.1 C17.7,30.1 24.1,29.2 24.1,23.1 C24.1,17 20.9,0.3 13,0.6 C8,0.8 0.7,14 0.7,21.9 C0.7,29.8 5.4,29.8 5.4,29.8 Z" fill="#9E7B5C"/>
            <path d="M11.5,22.6 C11.5,22.6 11.6,22.9 11.7,23.5 C11.8,24 11.8,24.7 11.8,25.4 C11.8,26.1 11.7,26.8 11.7,27.3 C11.6,27.8 11.5,28.2 11.5,28.2 C11.5,28.2 11.4,27.9 11.3,27.3 C11.2,26.8 11.2,26.1 11.2,25.4 C11.2,24.7 11.3,24 11.3,23.5 C11.4,22.9 11.5,22.6 11.5,22.6 Z" fill="#59402F"/>
            <path d="M7.3,28.8 C7.3,28.8 7.8,28.5 8.6,28.3 C9,28.2 9.5,28.1 10,28 C10.5,27.9 11.1,27.9 11.7,27.8 C12.3,27.8 12.9,27.8 13.4,27.9 C13.9,28 14.4,28.1 14.8,28.2 C15.2,28.3 15.5,28.5 15.8,28.6 C16,28.7 16.1,28.8 16.1,28.8 C16.1,28.8 16,28.8 15.7,28.7 C15.5,28.6 15.1,28.6 14.7,28.5 C13.9,28.4 12.8,28.3 11.7,28.3 C10.6,28.3 9.5,28.4 8.7,28.5 C7.8,28.8 7.3,28.8 7.3,28.8 Z" fill="#59402F"/>
            <path d="M11.7,16.5 C13.9,16.6 17.2,16.9 17.5,19.3 C17.9,21.7 15.2,21.1 14.3,21.8 C13.4,22.5 13.5,24.3 10.7,24.2 C9.1,24.1 8.8,21.7 7.9,21.7 C7,21.7 5.8,20.4 5.8,19.4 C5.9,18.4 7.5,16.2 11.7,16.5 Z" fill="#332721"/>
            <path d="M8.2,32.4 C8.2,32.4 8.7,32.5 9.4,32.7 C9.8,32.8 10.2,32.9 10.6,32.9 C11,33 11.5,33 12,33 C12.5,33 12.9,33 13.3,32.9 C13.5,32.8 13.7,32.8 13.9,32.8 C14.1,32.7 14.3,32.7 14.4,32.6 C14.7,32.5 15,32.3 15.2,32.2 C15.4,32.1 15.5,32 15.5,32 C15.5,32 15.4,32.1 15.3,32.3 C15.2,32.5 14.9,32.7 14.6,32.9 C14.4,33 14.3,33.1 14.1,33.2 C13.9,33.3 13.7,33.4 13.4,33.4 C12.9,33.5 12.4,33.6 11.9,33.5 C10.9,33.5 9.9,33.2 9.2,32.8 C8.6,32.7 8.2,32.4 8.2,32.4 Z" fill="#59402F"/>
          </g>
          <path d="M56.3,28.9 C56.3,29.9 53.2,30.4 51.9,30.4 C50.5,30.4 49.4,29.6 49.4,28.5 C49.4,27.5 50.5,26.6 51.9,26.6 C53.2,26.6 56.3,27.9 56.3,28.9 Z" id="Shape" fill="#9E7B5C"/>
          <path d="M25.5,28.9 C25.5,29.9 28.6,30.4 29.9,30.4 C31.3,30.4 32.4,29.6 32.4,28.5 C32.4,27.5 31.3,26.6 29.9,26.6 C28.5,26.6 25.5,27.9 25.5,28.9 Z" id="Shape" fill="#9E7B5C"/>
          <g transform="translate(55.000000, 0.000000)" id="Shape">
            <path d="M0.9,9 C0.9,9 3.3,1.3 7.7,1.1 C12.1,0.9 22.1,6.2 13.2,17.7" fill="#8D674A"/>
            <path d="M7.7,3.5 C7.7,3.5 8,4.1 8.3,5 C8.4,5.5 8.6,6 8.6,6.6 C8.7,7.2 8.7,7.8 8.7,8.5 C8.7,8.8 8.6,9.1 8.6,9.5 C8.5,9.8 8.5,10.1 8.3,10.4 C8.2,10.7 8.1,11 7.9,11.2 C7.8,11.4 7.6,11.7 7.5,11.9 C7.2,12.3 6.9,12.6 6.7,12.7 C6.5,12.9 6.4,13 6.4,13 C6.4,13 6.5,12.9 6.7,12.6 C6.8,12.5 6.9,12.4 7,12.2 C7.1,12 7.2,11.8 7.3,11.7 C7.4,11.5 7.5,11.3 7.6,11 C7.7,10.8 7.8,10.5 7.9,10.2 C8,9.7 8.1,9.1 8.2,8.5 C8.2,7.9 8.3,7.3 8.2,6.7 C8.2,6.1 8.1,5.6 8.1,5.1 C7.8,4.2 7.7,3.5 7.7,3.5 Z" fill="#59402F"/>
            <g transform="translate(7.000000, 12.000000)" fill="#59402F">
              <path d="M2.1,0.4 C2.1,0.4 2.1,0.5 2,0.7 C1.9,0.9 1.7,1.1 1.5,1.3 C1.3,1.5 1.1,1.6 0.9,1.7 C0.7,1.8 0.6,1.8 0.6,1.8 C0.6,1.8 0.6,1.7 0.7,1.5 C0.8,1.3 1,1.1 1.2,0.9 C1.4,0.7 1.6,0.6 1.8,0.5 C1.9,0.5 2.1,0.4 2.1,0.4 Z"/>
              <path d="M3.1,1.8 C3.1,1.8 3,2.3 2.7,2.5 C2.4,2.8 2,2.8 1.9,2.8 C1.9,2.8 2,2.3 2.3,2.1 C2.6,1.8 3.1,1.8 3.1,1.8 Z"/>
            </g>
            <path d="M1.1,9.8 C1.1,9.8 1.2,8.7 1.7,7 C2,6.2 2.3,5.3 2.9,4.3 C3.5,3.4 4.2,2.5 5.2,1.8 C5.7,1.5 6.2,1.2 6.8,1.1 C7.4,1 7.9,0.9 8.5,0.9 C9.1,0.9 9.6,1 10.1,1.2 C10.6,1.3 11,1.5 11.4,1.7 C11.8,1.9 12.1,2.1 12.4,2.3 C12.7,2.5 12.9,2.7 13.1,2.8 C13.5,3.1 13.7,3.3 13.7,3.3 C13.7,3.3 13.5,3.2 13,2.9 C12.6,2.6 11.9,2.3 11.2,2 C10.8,1.8 10.4,1.7 9.9,1.6 C9.4,1.5 9,1.4 8.5,1.4 C8,1.4 7.5,1.5 7,1.6 C6.5,1.8 6,2 5.6,2.3 C4.7,2.9 4,3.7 3.4,4.6 C2.8,5.5 2.4,6.3 2.1,7.1 C1.4,8.7 1.1,9.8 1.1,9.8 Z" fill="#59402F"/>
          </g>
          <g transform="translate(11.000000, 0.000000)" id="Shape">
            <path d="M16,9 C16,9 13.6,1.3 9.2,1.1 C4.8,0.9 -5.2,6.2 3.7,17.7" fill="#8D674A"/>
            <path d="M9.2,3.5 C9.2,3.5 9.1,4.1 9,5.1 C9,5.6 8.9,6.1 8.9,6.7 C8.9,7.3 8.9,7.9 8.9,8.5 C8.9,9.1 9,9.7 9.2,10.2 C9.3,10.5 9.3,10.7 9.5,11 C9.6,11.2 9.7,11.5 9.8,11.7 C9.9,11.9 10,12.1 10.1,12.2 C10.2,12.4 10.3,12.5 10.4,12.6 C10.6,12.8 10.7,13 10.7,13 C10.7,13 10.6,12.9 10.4,12.7 C10.2,12.5 9.9,12.3 9.6,11.9 C9.4,11.7 9.3,11.5 9.2,11.2 C9,11 9,10.7 8.8,10.4 C8.7,10.1 8.6,9.8 8.5,9.5 C8.5,9.2 8.4,8.9 8.4,8.5 C8.4,7.9 8.4,7.2 8.5,6.6 C8.6,6 8.7,5.5 8.8,5 C8.9,4.1 9.2,3.5 9.2,3.5 Z" fill="#59402F"/>
            <g transform="translate(6.000000, 12.000000)" fill="#59402F">
              <path d="M1.8,0.4 C1.8,0.4 1.9,0.4 2.1,0.5 C2.3,0.6 2.5,0.7 2.7,0.9 C2.9,1.1 3.1,1.3 3.2,1.5 C3.3,1.7 3.3,1.8 3.3,1.8 C3.3,1.8 3.2,1.8 3,1.7 C2.8,1.6 2.6,1.5 2.4,1.3 C2.2,1.1 2,0.9 1.9,0.7 C1.8,0.6 1.8,0.4 1.8,0.4 Z"/>
              <path d="M0.8,1.8 C0.8,1.8 1.3,1.9 1.6,2.1 C1.9,2.3 2,2.8 2,2.8 C2,2.8 1.5,2.7 1.2,2.5 C0.9,2.3 0.8,1.8 0.8,1.8 Z"/>
            </g>
            <path d="M2.9,3.3 C2.9,3.3 3.1,3.1 3.5,2.8 C3.7,2.6 4,2.5 4.2,2.3 C4.5,2.1 4.8,1.9 5.2,1.7 C5.4,1.6 5.6,1.5 5.8,1.4 C6,1.3 6.3,1.3 6.5,1.2 C6.7,1.1 7,1.1 7.3,1 C7.6,1 7.8,0.9 8.1,0.9 C8.4,0.9 8.7,0.9 9,0.9 C9.3,0.9 9.6,1 9.9,1.1 C10.2,1.1 10.5,1.3 10.7,1.4 C11,1.5 11.3,1.6 11.5,1.8 C12,2.2 12.5,2.5 12.9,2.9 C13.3,3.3 13.7,3.7 14,4.2 C14.3,4.7 14.6,5.1 14.8,5.6 C15,6.1 15.2,6.5 15.4,6.9 C15.6,7.3 15.7,7.7 15.8,8 C15.9,8.3 16,8.6 16,8.9 C16.1,9.4 16.2,9.7 16.2,9.7 C16.2,9.7 16.1,9.4 15.9,9 C15.8,8.8 15.7,8.5 15.5,8.2 C15.4,7.9 15.2,7.5 15,7.1 C14.8,6.7 14.6,6.3 14.4,5.9 C14.2,5.5 13.8,5.1 13.6,4.6 C13.3,4.1 12.9,3.8 12.6,3.4 C12.3,3 11.8,2.7 11.3,2.4 C11.1,2.2 10.8,2.2 10.6,2 C10.4,1.9 10.1,1.8 9.8,1.7 C9.5,1.6 9.3,1.6 9,1.5 C8.7,1.5 8.5,1.5 8.2,1.5 C7.9,1.5 7.7,1.5 7.4,1.6 C7.2,1.6 6.9,1.6 6.7,1.7 C6.5,1.8 6.2,1.8 6,1.9 C5.8,2 5.6,2 5.4,2.1 C4.6,2.4 4,2.7 3.5,3 C3.2,3.2 2.9,3.3 2.9,3.3 Z" fill="#59402F"/>
          </g>
        </g>
      </g>
    </g>
  </g>
</svg>