<svg version="1.1" width="204" height="145" viewBox="-1 -1 204 145" xmlns="http://www.w3.org/2000/svg" xmlns:xlink="http://www.w3.org/1999/xlink">
  <defs>
    <linearGradient id="grad_1" x1="0.999794424" y1="0.49976804199999997" x2="-0.000013737665" y2="0.49976804199999997">
      <stop offset="0.27" stop-color="#0C5A43"/>
      <stop offset="0.87" stop-color="#81AC43"/>
      <stop offset="0.92" stop-color="#B0CC4D"/>
    </linearGradient>
    <linearGradient id="grad_2" x1="1.00022279" y1="0.500193827" x2="0.00020913372600000002" y2="0.500193827">
      <stop offset="0.55" stop-color="#0C5A43"/>
      <stop offset="0.87" stop-color="#81AC43"/>
      <stop offset="0.92" stop-color="#B0CC4D"/>
    </linearGradient>
  </defs>
  <!-- Exported by Scratch - http://scratch.mit.edu/ -->
  <g id="ID0.8648840468376875">
    <g id="Page-1">
      <g id="Asset-9frog-jump">
        <g id="Group">
          <path id="Path" fill="#0C5A43" stroke="none" stroke-width="1" d="M 0.281 62.450 L 0.281 0.285 L 10.471 0.285 L 10.471 51.945 C 10.474 57.616 5.962 62.264 0.281 62.445 L 0.281 62.450 Z " transform="matrix(1, 0, 0, 1, 127.3, 49.5)"/>
          <path id="Path" fill="none" stroke="#1C252E" stroke-width="5" d="M 10.401 49.035 L 0.281 49.035 " transform="matrix(1, 0, 0, 1, 127.3, 49.5)"/>
          <path id="Path" fill="none" stroke="#1C252E" stroke-width="5" d="M 10.471 33.160 L 0.281 33.160 " transform="matrix(1, 0, 0, 1, 127.3, 49.5)"/>
        </g>
        <g id="Group">
          <path id="Path" fill="#0C5A43" stroke="none" stroke-width="1" d="M 0.200 8.950 L 63.857 8.950 C 68.563 8.950 72.378 5.144 72.378 0.450 L 8.556 0.450 C 6.312 0.451 4.162 1.352 2.590 2.951 C 1.019 4.549 0.157 6.711 0.200 8.950 Z " transform="matrix(1, 0, 0, 1, 63.65, 103)"/>
          <path id="Path" fill="none" stroke="#1C252E" stroke-width="5" d="M 58.930 0.450 L 58.930 8.950 " transform="matrix(1, 0, 0, 1, 63.65, 103)"/>
          <path id="Path" fill="none" stroke="#1C252E" stroke-width="5" d="M 43.016 0.450 L 43.016 8.950 " transform="matrix(1, 0, 0, 1, 63.65, 103)"/>
          <path id="Path" fill="none" stroke="#1C252E" stroke-width="5" d="M 15.573 0.450 L 15.573 8.950 " transform="matrix(1, 0, 0, 1, 63.65, 103)"/>
        </g>
        <g id="Group-5">
          <path id="Path" fill="#F3E5CF" stroke="none" stroke-width="1" d="M 53.928 18.230 L 53.928 18.355 C 53.926 19.885 54.824 21.275 56.222 21.904 C 57.620 22.534 59.259 22.288 60.409 21.275 L 73.681 9.620 C 74.554 8.855 74.874 7.639 74.493 6.545 L 74.103 5.500 L 53.928 18.230 Z " transform="matrix(1, 0, 0, 1, 127.3, 1.5)"/>
          <path id="Path" fill="#F3E5CF" stroke="none" stroke-width="1" d="M 64.253 3.500 L 31.673 27.120 C 35.201 34.543 42.840 39.138 51.068 38.785 C 59.295 38.433 66.512 33.201 69.388 25.503 C 72.265 17.806 70.242 9.139 64.253 3.500 Z " transform="matrix(1, 0, 0, 1, 127.3, 1.5)"/>
          <path id="Path" fill="#0C5A43" stroke="none" stroke-width="1" d="M 0.170 55.750 L 0.170 30.175 C 0.169 27.405 1.271 24.749 3.234 22.790 C 5.197 20.831 7.860 19.730 10.636 19.730 L 14.706 19.730 C 26.370 19.730 36.555 12.265 42.956 6.135 C 47.939 1.343 55.013 -0.609 61.757 0.945 L 73.681 3.710 C 74.478 3.894 75.095 4.523 75.263 5.321 C 75.431 6.119 75.119 6.942 74.463 7.430 L 5.779 58.555 C 4.715 59.348 3.294 59.474 2.107 58.880 C 0.919 58.286 0.170 57.075 0.170 55.750 Z " transform="matrix(1, 0, 0, 1, 127.3, 1.5)"/>
          <path id="Oval" fill="#B0CC4D" stroke="none" stroke-width="1" d="M 10.320 27.355 C 10.839 27.355 11.309 27.565 11.649 27.905 C 11.989 28.244 12.200 28.713 12.200 29.230 C 12.200 29.747 11.989 30.216 11.649 30.555 C 11.309 30.895 10.839 31.105 10.320 31.105 C 9.802 31.105 9.332 30.895 8.992 30.555 C 8.651 30.216 8.441 29.747 8.441 29.230 C 8.441 28.713 8.651 28.244 8.992 27.905 C 9.332 27.565 9.802 27.355 10.320 27.355 Z " transform="matrix(1, 0, 0, 1, 127.3, 1.5)"/>
          <path id="Oval" fill="#B0CC4D" stroke="none" stroke-width="1" d="M 41.081 22.350 C 41.687 22.350 42.236 22.595 42.633 22.992 C 43.031 23.388 43.277 23.936 43.277 24.540 C 43.277 25.144 43.031 25.692 42.633 26.088 C 42.236 26.485 41.687 26.730 41.081 26.730 C 40.475 26.730 39.927 26.485 39.529 26.088 C 39.132 25.692 38.886 25.144 38.886 24.540 C 38.886 23.936 39.132 23.388 39.529 22.992 C 39.927 22.595 40.475 22.350 41.081 22.350 Z " transform="matrix(1, 0, 0, 1, 127.3, 1.5)"/>
          <path id="Oval" fill="#B0CC4D" stroke="none" stroke-width="1" d="M 22.536 33.600 C 23.279 33.600 23.954 33.901 24.442 34.388 C 24.930 34.875 25.232 35.548 25.232 36.290 C 25.232 37.032 24.930 37.705 24.442 38.192 C 23.954 38.679 23.279 38.980 22.536 38.980 C 21.792 38.980 21.117 38.679 20.629 38.192 C 20.141 37.705 19.839 37.032 19.839 36.290 C 19.839 35.548 20.141 34.875 20.629 34.388 C 21.117 33.901 21.792 33.600 22.536 33.600 Z " transform="matrix(1, 0, 0, 1, 127.3, 1.5)"/>
          <path id="Oval" fill="#B0CC4D" stroke="none" stroke-width="1" d="M 15.142 37.725 C 15.852 37.725 16.495 38.012 16.960 38.477 C 17.426 38.941 17.714 39.582 17.714 40.290 C 17.714 40.998 17.426 41.639 16.960 42.103 C 16.495 42.568 15.852 42.855 15.142 42.855 C 14.433 42.855 13.790 42.568 13.325 42.103 C 12.859 41.639 12.571 40.998 12.571 40.290 C 12.571 39.582 12.859 38.941 13.325 38.477 C 13.790 38.012 14.433 37.725 15.142 37.725 Z " transform="matrix(1, 0, 0, 1, 127.3, 1.5)"/>
          <path id="Path" fill="none" stroke="#1C252E" stroke-width="0.5" d="M 4.180 45.500 L 4.180 40.370 C 4.182 39.466 4.561 38.604 5.227 37.992 C 5.894 37.379 6.786 37.072 7.689 37.145 L 8.451 37.210 C 10.291 37.364 11.949 36.102 12.285 34.290 L 12.406 33.650 C 12.579 32.725 13.124 31.911 13.915 31.397 C 14.706 30.883 15.672 30.715 16.591 30.930 L 17.914 31.235 C 19.707 31.655 21.523 30.633 22.089 28.885 L 22.515 27.560 C 23.063 25.870 24.770 24.838 26.525 25.135 L 29.984 25.730 C 32.207 26.109 34.455 25.215 35.808 23.415 L 50.650 3.605 " transform="matrix(1, 0, 0, 1, 127.3, 1.5)"/>
          <path id="Oval" fill="#1C252E" stroke="none" stroke-width="1" d="M 69.652 6.040 C 69.927 6.040 70.177 6.152 70.358 6.333 C 70.540 6.514 70.652 6.764 70.652 7.040 C 70.652 7.316 70.540 7.566 70.358 7.747 C 70.177 7.928 69.927 8.040 69.652 8.040 C 69.376 8.040 69.126 7.928 68.945 7.747 C 68.764 7.566 68.652 7.316 68.652 7.040 C 68.652 6.764 68.764 6.514 68.945 6.333 C 69.126 6.152 69.376 6.040 69.652 6.040 Z " transform="matrix(1, 0, 0, 1, 127.3, 1.5)"/>
          <path id="Oval" fill="#1C252E" stroke="none" stroke-width="1" d="M 70.153 3.040 C 70.429 3.040 70.679 3.152 70.860 3.333 C 71.041 3.514 71.153 3.764 71.153 4.040 C 71.153 4.316 71.041 4.566 70.860 4.747 C 70.679 4.928 70.429 5.040 70.153 5.040 C 69.877 5.040 69.627 4.928 69.446 4.747 C 69.265 4.566 69.153 4.316 69.153 4.040 C 69.153 3.764 69.265 3.514 69.446 3.333 C 69.627 3.152 69.877 3.040 70.153 3.040 Z " transform="matrix(1, 0, 0, 1, 127.3, 1.5)"/>
          <path id="Oval" fill="#60A14E" stroke="none" stroke-width="1" d="M 48.665 11.855 C 49.909 11.855 51.037 12.359 51.854 13.174 C 52.670 13.988 53.176 15.113 53.176 16.355 C 53.176 17.597 52.670 18.722 51.854 19.536 C 51.037 20.351 49.909 20.855 48.665 20.855 C 47.420 20.855 46.293 20.351 45.476 19.536 C 44.659 18.722 44.154 17.597 44.154 16.355 C 44.154 15.113 44.659 13.988 45.476 13.174 C 46.293 12.359 47.420 11.855 48.665 11.855 Z " transform="matrix(1, 0, 0, 1, 127.3, 1.5)"/>
          <path id="Path" fill="#B0CC4D" stroke="none" stroke-width="1" d="M 15.583 26.500 C 17.289 26.497 18.848 25.534 19.610 24.011 C 20.373 22.489 20.209 20.668 19.187 19.305 C 17.720 19.540 16.237 19.658 14.751 19.660 L 11.744 19.660 C 11.305 20.362 11.073 21.173 11.072 22 C 11.072 24.485 13.092 26.500 15.583 26.500 Z " transform="matrix(1, 0, 0, 1, 127.3, 1.5)"/>
          <path id="Path" fill="#B0CC4D" stroke="none" stroke-width="1" d="M 0.216 30.085 L 0.216 33.585 C 0.566 33.787 0.947 33.931 1.343 34.010 C 2.981 34.348 4.649 33.584 5.459 32.125 C 6.269 30.666 6.033 28.850 4.877 27.645 C 4.742 27.508 4.674 27.319 4.689 27.127 C 4.704 26.935 4.802 26.759 4.957 26.645 C 5.665 26.095 6.107 25.273 6.175 24.380 C 6.230 23.229 5.671 22.134 4.707 21.500 C 1.889 23.454 0.210 26.662 0.216 30.085 Z " transform="matrix(1, 0, 0, 1, 127.3, 1.5)"/>
          <path id="Path" fill="#B0CC4D" stroke="none" stroke-width="1" d="M 1.925 39.915 C 1.921 38.835 1.236 37.874 0.216 37.515 L 0.216 42.320 C 1.238 41.960 1.923 40.997 1.925 39.915 Z " transform="matrix(1, 0, 0, 1, 127.3, 1.5)"/>
          <path id="Path" fill="#B0CC4D" stroke="none" stroke-width="1" d="M 26.149 20.135 C 25.735 20.671 25.620 21.380 25.845 22.019 C 26.069 22.658 26.603 23.140 27.262 23.300 C 27.860 23.446 28.493 23.309 28.977 22.930 C 29.461 22.550 29.744 21.969 29.743 21.355 C 29.743 21.220 29.743 21.125 29.743 21.040 C 29.734 20.899 29.781 20.760 29.876 20.655 C 29.970 20.549 30.103 20.486 30.244 20.480 C 31.913 20.543 33.465 19.631 34.219 18.145 C 35.016 16.600 34.877 14.740 33.858 13.330 C 31.368 14.959 28.718 16.329 25.949 17.420 C 26.026 17.652 26.121 17.878 26.235 18.095 C 26.612 18.732 26.579 19.531 26.149 20.135 Z " transform="matrix(1, 0, 0, 1, 127.3, 1.5)"/>
        </g>
        <g id="Group-4">
          <path id="Oval" fill="#EEE75A" stroke="none" stroke-width="1" d="M 6.997 0 C 8.830 0 10.490 0.742 11.692 1.942 C 12.894 3.141 13.639 4.797 13.639 6.625 C 13.639 8.453 12.894 10.109 11.692 11.308 C 10.490 12.508 8.830 13.250 6.997 13.250 C 5.165 13.250 3.505 12.508 2.302 11.308 C 1.100 10.109 0.356 8.453 0.356 6.625 C 0.356 4.797 1.100 3.141 2.302 1.942 C 3.505 0.742 5.165 0 6.997 0 Z " transform="matrix(1, 0, 0, 1, 176.9, 0)"/>
          <path id="Path" fill="#1C252E" stroke="none" stroke-width="1" d="M 11.448 5.565 L 10.912 5.565 C 10.410 5.556 9.945 5.297 9.674 4.875 C 9.083 3.974 8.077 3.431 6.997 3.431 C 5.918 3.431 4.911 3.974 4.321 4.875 C 4.049 5.297 3.585 5.556 3.083 5.565 L 2.546 5.565 C 1.986 5.552 1.505 5.961 1.429 6.515 C 1.395 6.818 1.495 7.121 1.701 7.346 C 1.907 7.571 2.201 7.696 2.506 7.690 L 3.103 7.690 C 3.604 7.698 4.068 7.955 4.341 8.375 C 4.931 9.276 5.938 9.819 7.017 9.819 C 8.097 9.819 9.103 9.276 9.694 8.375 C 9.966 7.955 10.431 7.698 10.932 7.690 L 11.528 7.690 C 11.830 7.685 12.115 7.553 12.313 7.326 C 12.511 7.099 12.603 6.799 12.566 6.500 C 12.483 5.952 12.004 5.551 11.448 5.565 Z " transform="matrix(1, 0, 0, 1, 176.9, 0)"/>
        </g>
        <g id="Group-3">
          <path id="Path" fill="none" stroke="#0C5A43" stroke-width="2.5" stroke-linecap="round" d="M 10.696 15.810 L 18.546 15.810 C 25.466 15.810 31.077 21.406 31.077 28.310 " transform="matrix(1, 0, 0, 1, 160.85, 28)"/>
          <path id="Path" fill="#0C5A43" stroke="none" stroke-width="1" d="M 12.280 1.910 L 12.280 17.060 L 8.521 17.060 C 3.815 17.060 0.000 13.254 0.000 8.560 L 0.000 3.325 C -0.000 3.120 0.137 2.939 0.336 2.885 L 9.939 0.145 C 10.494 -0.014 11.092 0.097 11.552 0.444 C 12.012 0.791 12.282 1.334 12.280 1.910 Z " transform="matrix(1, 0, 0, 1, 160.85, 28)"/>
          <path id="Path" fill="#B0CC4D" stroke="none" stroke-width="1" d="M 2.005 14 C 4.364 12.962 5.700 10.445 5.235 7.915 C 4.770 5.385 2.625 3.505 0.050 3.370 L 0.050 8.575 C 0.048 10.555 0.740 12.474 2.005 14 Z " transform="matrix(1, 0, 0, 1, 160.85, 28)"/>
        </g>
        <g id="Group">
          <path id="Path" fill="#0C5A43" stroke="none" stroke-width="1" d="M 0.291 44.355 L 44.359 0.395 L 51.562 7.585 L 14.942 44.115 C 10.925 48.129 4.438 48.236 0.291 44.355 Z " transform="matrix(1, 0, 0, 1, 88.2, 45.5)"/>
          <path id="Path" fill="none" stroke="#1C252E" stroke-width="5" d="M 17.007 42.055 L 9.799 34.865 " transform="matrix(1, 0, 0, 1, 88.2, 45.5)"/>
          <path id="Path" fill="none" stroke="#1C252E" stroke-width="5" d="M 28.260 30.830 L 21.052 23.640 " transform="matrix(1, 0, 0, 1, 88.2, 45.5)"/>
        </g>
        <g id="Group">
          <path id="Path" fill="#0C5A43" stroke="none" stroke-width="1" d="M 8.336 1.595 C 6.092 1.649 3.965 2.601 2.433 4.237 C 0.901 5.872 0.093 8.054 0.190 10.290 L 63.847 8.760 C 64.013 8.760 64.183 8.760 64.348 8.735 C 69.767 8.290 69.210 0.130 63.772 0.260 L 8.336 1.595 Z " transform="matrix(1, 0, 0, 1, 32.05, 84)"/>
          <path id="Path" fill="none" stroke="#1C252E" stroke-width="5" d="M 58.695 0.380 L 58.900 8.880 " transform="matrix(1, 0, 0, 1, 32.05, 84)"/>
          <path id="Path" fill="none" stroke="#1C252E" stroke-width="5" d="M 42.785 0.765 L 42.991 9.265 " transform="matrix(1, 0, 0, 1, 32.05, 84)"/>
          <path id="Path" fill="none" stroke="#1C252E" stroke-width="5" d="M 15.348 1.425 L 15.553 9.920 " transform="matrix(1, 0, 0, 1, 32.05, 84)"/>
        </g>
        <g id="Group">
          <path id="Path" fill="url(#grad_1)" stroke="none" stroke-width="1" d="M 6.516 34.830 C 6.905 34.589 7.188 34.211 7.308 33.770 C 7.481 33.166 7.854 32.637 8.366 32.270 L 18.811 24.425 C 19.152 24.161 19.638 24.199 19.934 24.512 C 20.230 24.825 20.239 25.311 19.954 25.635 L 11.097 36 C 10.821 36.342 10.462 36.609 10.055 36.775 C 9.607 36.951 9.246 37.296 9.052 37.735 C 8.827 38.229 8.842 38.799 9.092 39.280 C 9.355 39.800 9.853 40.163 10.429 40.255 C 11.006 40.347 11.592 40.157 12.005 39.745 C 12.274 39.473 12.450 39.123 12.506 38.745 C 12.580 38.061 12.878 37.419 13.353 36.920 L 27.683 22.620 L 43.607 6.675 C 45.933 4.355 44.475 0.295 41.191 0.115 C 38.489 -0.032 35.852 0.976 33.939 2.885 L 26.565 10.235 C 25.266 11.530 23.818 12.666 22.250 13.620 L 3.925 24.720 C 3.356 25.090 2.682 25.266 2.005 25.220 C 1.320 25.146 0.651 25.467 0.282 26.048 C -0.087 26.628 -0.094 27.368 0.266 27.955 C 0.556 28.431 1.049 28.748 1.604 28.814 C 2.158 28.881 2.713 28.689 3.108 28.295 C 3.210 28.192 3.301 28.078 3.378 27.955 C 3.617 27.538 3.963 27.193 4.381 26.955 L 15.669 20.820 C 16.045 20.623 16.509 20.737 16.751 21.085 C 16.993 21.434 16.938 21.907 16.621 22.190 L 6.476 30.940 C 6.143 31.238 5.730 31.433 5.288 31.500 C 4.898 31.549 4.536 31.725 4.255 32 C 3.563 32.647 3.484 33.716 4.076 34.456 C 4.667 35.197 5.729 35.359 6.516 34.830 Z " transform="matrix(1, 0, 0, 1, 0, 85.5)"/>
          <path id="Rectangle" fill="#1C252E" stroke="none" stroke-width="1" d="M 30.796 5.469 L 35.802 5.475 L 35.814 14.987 L 30.808 14.980 L 30.796 5.469 " transform="matrix(0.7071067690849304, -0.7071067690849304, 0.7071067690849304, 0.7071067690849304, 2.5, 112)"/>
        </g>
        <g id="Group-2">
          <path id="Path" fill="url(#grad_2)" stroke="none" stroke-width="1" d="M 33.969 3.270 L 26.911 10.310 C 25.406 11.814 23.723 13.131 21.899 14.230 L 3.955 25.105 C 3.386 25.475 2.712 25.651 2.035 25.605 C 1.350 25.531 0.682 25.852 0.312 26.433 C -0.057 27.013 -0.064 27.753 0.296 28.340 C 0.446 28.577 0.646 28.778 0.882 28.930 L 1.002 29 L 1.198 29.090 L 1.353 29.140 C 1.421 29.160 1.489 29.175 1.559 29.185 L 1.699 29.210 C 1.813 29.220 1.927 29.220 2.040 29.210 L 2.110 29.210 C 2.205 29.196 2.299 29.174 2.391 29.145 L 2.506 29.105 C 2.585 29.073 2.662 29.037 2.737 28.995 L 2.837 28.935 C 2.945 28.870 3.045 28.791 3.133 28.700 C 3.236 28.597 3.326 28.483 3.403 28.360 C 3.642 27.943 3.988 27.598 4.406 27.360 L 15.699 21.200 C 16.075 21.003 16.539 21.117 16.781 21.465 C 17.024 21.814 16.968 22.287 16.651 22.570 L 6.516 31.325 C 6.182 31.620 5.769 31.812 5.328 31.880 C 4.936 31.928 4.572 32.104 4.291 32.380 C 3.647 33.030 3.588 34.056 4.152 34.775 C 4.717 35.494 5.729 35.683 6.516 35.215 C 6.906 34.976 7.190 34.596 7.308 34.155 C 7.345 34.015 7.397 33.879 7.463 33.750 C 7.502 33.671 7.545 33.594 7.594 33.520 L 7.669 33.390 C 7.739 33.290 7.816 33.194 7.899 33.105 L 7.899 33.075 C 7.990 32.975 8.087 32.882 8.190 32.795 C 8.245 32.750 8.290 32.700 8.346 32.660 L 18.786 24.815 C 19.127 24.551 19.613 24.589 19.909 24.902 C 20.205 25.215 20.214 25.701 19.929 26.025 L 11.137 36.360 C 10.863 36.702 10.506 36.969 10.100 37.135 C 9.650 37.308 9.289 37.654 9.097 38.095 C 8.868 38.588 8.881 39.158 9.132 39.640 C 9.273 39.907 9.476 40.137 9.724 40.310 C 9.724 40.310 9.764 40.310 9.779 40.345 C 9.857 40.402 9.939 40.454 10.025 40.500 L 10.150 40.545 C 10.231 40.571 10.313 40.593 10.396 40.610 L 10.521 40.610 C 10.641 40.622 10.762 40.622 10.882 40.610 L 10.912 40.610 C 11.026 40.598 11.138 40.577 11.248 40.545 L 11.358 40.505 C 11.445 40.474 11.528 40.435 11.609 40.390 L 11.709 40.335 C 12.150 40.058 12.449 39.604 12.531 39.090 C 12.552 38.940 12.584 38.791 12.626 38.645 C 12.626 38.590 12.656 38.535 12.676 38.480 C 12.701 38.392 12.731 38.305 12.766 38.220 C 12.792 38.155 12.822 38.090 12.852 38.030 C 12.887 37.952 12.927 37.877 12.972 37.805 C 13.007 37.750 13.037 37.685 13.077 37.630 C 13.166 37.499 13.267 37.377 13.378 37.265 L 27.713 22.965 L 27.713 22.940 L 43.968 6.725 C 44.087 6.606 44.197 6.479 44.299 6.345 L 44.389 6.215 C 44.454 6.125 44.514 6.031 44.570 5.935 C 44.600 5.885 44.625 5.830 44.650 5.780 C 44.675 5.730 44.740 5.595 44.775 5.500 C 44.810 5.405 44.820 5.395 44.840 5.340 C 44.860 5.285 44.906 5.130 44.931 5.025 C 44.943 4.982 44.953 4.939 44.961 4.895 C 44.993 4.750 45.014 4.603 45.026 4.455 C 45.026 4.405 45.026 4.355 45.026 4.310 C 45.026 4.265 45.026 4.110 45.026 4.010 L 45.026 3.815 C 45.026 3.730 45.026 3.650 44.991 3.570 C 44.956 3.490 44.966 3.430 44.951 3.360 C 44.936 3.290 44.916 3.215 44.896 3.145 C 44.876 3.075 44.855 3 44.830 2.925 C 44.805 2.850 44.780 2.800 44.750 2.740 C 44.689 2.589 44.617 2.442 44.535 2.300 L 44.465 2.175 C 44.414 2.100 44.359 2.025 44.304 1.955 C 44.249 1.885 44.239 1.865 44.204 1.825 C 44.169 1.785 44.084 1.685 44.018 1.620 C 43.953 1.555 43.943 1.545 43.903 1.505 C 43.836 1.439 43.766 1.378 43.693 1.320 C 43.653 1.285 43.612 1.260 43.572 1.230 C 43.494 1.169 43.412 1.112 43.327 1.060 C 42.892 0.794 42.405 0.624 41.898 0.560 C 38.977 0.192 36.050 1.193 33.969 3.270 Z " transform="matrix(1, 0, 0, 1, 31.55, 103)"/>
          <path id="Rectangle" fill="#1C252E" stroke="none" stroke-width="1" d="M 30.799 5.947 L 35.805 5.953 L 35.817 15.465 L 30.810 15.458 L 30.799 5.947 " transform="matrix(0.7071067690849304, -0.7071067690849304, 0.7071067690849304, 0.7071067690849304, 33.75, 129.65)"/>
        </g>
      </g>
    </g>
  </g>
</svg>