<svg width="30px" height="56px" viewBox="0 0 30 56" version="1.1" xml:space="preserve" xmlns="http://www.w3.org/2000/svg" xmlns:xlink="http://www.w3.org/1999/xlink">
  <!-- Generator: Sketch 49.3 (51167) - http://www.bohemiancoding.com/sketch -->
  <defs/>
  <g>
    <title>potion-b</title>
    <desc>Created with Sketch.</desc>
    <g id="potion-b" stroke="none" stroke-width="1" fill="none" fill-rule="evenodd">
      <g id="Potion-Medium2" transform="translate(2.000000, 1.000000)" fill-rule="nonzero">
        <path d="M5.2,7.4 C5.2,7.4 1.6,5 4.6,2 C7.6,-1 28.3,-0.9 20.7,7.9 C20.7,7.9 22.8,33 26.7,47.3 C28,52.1 17.3,53.7 10.1,53.3 C1.3,52.8 -0.4,50.3 0.5,47.2 C1.6,42.5 5.1,16.9 5.2,7.4 Z" id="Shape" fill="#CAE8DE"/>
        <path d="M2.6,48.2 C5.8,26.1 4.8,19.1 6.8,15.3 C8.1,12.8 17,13 19,15.4 C20.6,17.3 21.4,35.8 24.3,47.9 C25.3,52.2 1.9,53.2 2.6,48.2 Z" id="Shape" fill="#73B5E4"/>
        <path d="M19,15.4 C17.3,13.3 10.3,12.9 7.6,14.5 C7.3,14.7 7,15 6.8,15.2 C6.8,15.2 6.8,15.3 6.7,15.3 C6.2,16.6 18.8,17.4 19,15.4 Z" id="Shape" fill="#83CDEF"/>
        <path d="M12.5,46.2 C2.2,46.9 2.3,48.4 2.6,48.9 C4,52.9 24.9,52.2 24.3,48 C24.3,48 24.5,45.4 12.5,46.2 Z" id="Shape" fill="#679FE4"/>
        <path d="M20.2,3.2 C20.2,4.2 17.3,5.2 12.8,5.2 C8.3,5.2 5.1,4.8 5.1,3.8 C5.1,2.8 8.4,1.5 12.8,1.5 C17.2,1.5 20.2,2.2 20.2,3.2 Z" id="Shape" fill="#B6CFD1"/>
        <path d="M20.2,3.2 C20.2,3.2 20.2,3.3 20.2,3.4 C20.2,3.5 20.1,3.7 19.9,3.8 C19.7,3.9 19.5,4.1 19.2,4.2 C18.9,4.3 18.6,4.4 18.2,4.5 C17.5,4.7 16.6,4.8 15.7,4.9 C14.8,5 13.8,5 12.8,5.1 C11.8,5.1 10.8,5.1 9.9,5 C9,5 8.1,4.8 7.3,4.7 C6.6,4.6 5.9,4.4 5.5,4.2 C5.3,4.1 5.2,4 5.1,3.9 C5,3.8 5.1,3.7 5.1,3.7 C5.1,3.7 5.1,3.8 5.1,3.9 C5.2,4 5.3,4.1 5.5,4.2 C5.9,4.4 6.5,4.5 7.2,4.5 C7.9,4.6 8.8,4.6 9.7,4.6 C10.6,4.6 11.6,4.6 12.6,4.6 C13.6,4.6 14.6,4.6 15.5,4.5 C16.4,4.4 17.3,4.4 18,4.2 C18.7,4.1 19.3,3.9 19.7,3.7 C19.9,3.6 20,3.5 20,3.4 C20.3,3.3 20.2,3.2 20.2,3.2 Z" id="Shape" fill="#96B7C4"/>
        <path d="M5.2,7.4 C5.2,7.4 5.6,7.5 6.1,7.7 C6.6,7.8 7.4,8 8.1,8.1 C8.5,8.2 8.8,8.2 9.2,8.3 C9.5,8.4 9.9,8.4 10.1,8.5 C10.7,8.6 11,8.7 11,8.7 C11,8.7 10.6,8.8 10.1,8.8 C9.5,8.8 8.8,8.8 8,8.7 C7.2,8.6 6.5,8.3 6,8 C5.5,7.6 5.2,7.4 5.2,7.4 Z" id="Shape" fill="#96B7C4"/>
        <path d="M22.4,4.3 C22.4,4.3 22.4,4.4 22.4,4.7 C22.4,4.9 22.3,5.3 22.1,5.7 C21.9,6.1 21.7,6.6 21.3,7 C21.1,7.2 20.9,7.4 20.7,7.6 C20.5,7.8 20.2,8 20,8.1 C19.7,8.3 19.5,8.4 19.2,8.5 C18.9,8.6 18.6,8.7 18.4,8.7 C18.1,8.7 17.9,8.8 17.6,8.8 C17.3,8.8 17.1,8.8 16.9,8.8 C16.5,8.8 16.1,8.7 15.9,8.7 C15.7,8.7 15.5,8.6 15.5,8.6 C15.5,8.6 15.6,8.6 15.9,8.6 C16.2,8.6 16.5,8.6 16.9,8.5 C17.1,8.5 17.3,8.5 17.6,8.4 C17.8,8.3 18.1,8.3 18.3,8.2 C18.5,8.1 18.8,8 19.1,7.9 C19.3,7.8 19.6,7.7 19.8,7.5 C20,7.3 20.3,7.2 20.5,7 C20.7,6.8 20.9,6.6 21.1,6.5 C21.4,6.1 21.7,5.7 21.9,5.3 C22.3,4.9 22.4,4.3 22.4,4.3 Z" id="Shape" fill="#96B7C4"/>
        <path d="M4.7,3.8 C4.7,3.8 4.6,3.9 4.6,4.2 C4.6,4.3 4.6,4.5 4.7,4.6 C4.8,4.8 5,4.9 5.2,5 C5.4,5.1 5.6,5.2 5.9,5.3 C6.1,5.4 6.4,5.4 6.7,5.5 C7.3,5.6 7.9,5.7 8.5,5.8 C8.8,5.9 9.1,5.9 9.4,5.9 C9.7,6 10,6 10.3,6 C10.9,6 11.4,6.1 11.9,6.1 C12.8,6.2 13.5,6.2 13.5,6.2 C13.5,6.2 12.9,6.3 11.9,6.4 C11.4,6.4 10.9,6.4 10.3,6.4 C10,6.4 9.7,6.4 9.4,6.4 C9.1,6.4 8.8,6.4 8.4,6.3 C7.8,6.2 7.1,6.1 6.5,5.9 C6.2,5.8 5.9,5.7 5.7,5.6 C5.4,5.5 5.2,5.3 5,5.2 C4.8,5 4.7,4.8 4.6,4.7 C4.5,4.5 4.5,4.3 4.5,4.2 C4.6,3.9 4.7,3.8 4.7,3.8 Z" id="Shape" fill="#FFFFFF"/>
        <path d="M8.5,40.1 C8.5,40.1 8.6,40.1 8.8,40.1 C9,40.1 9.3,40.2 9.5,40.4 C9.6,40.5 9.7,40.7 9.7,40.9 L9.7,41.1 L9.7,41.2 C9.7,41.3 9.6,41.4 9.6,41.5 C9.4,41.9 9,42.1 8.6,42.2 C8.4,42.2 8.1,42.2 7.9,42.1 C7.7,42 7.5,41.8 7.4,41.6 C7.3,41.4 7.2,41.2 7.3,41 C7.3,40.8 7.4,40.6 7.5,40.5 C7.7,40.2 8,40.2 8.2,40.1 C8.4,40.1 8.5,40.1 8.5,40.1 Z M8.5,40.1 C8.5,40.1 8.4,40.1 8.3,40.2 C8.2,40.3 8,40.5 7.9,40.7 C7.9,40.8 7.8,40.9 7.8,41 C7.8,41.1 7.8,41.3 7.9,41.4 C7.9,41.5 8,41.6 8.2,41.7 C8.3,41.8 8.5,41.9 8.6,41.9 C8.8,41.9 9,41.9 9.1,41.8 C9.2,41.7 9.3,41.5 9.4,41.4 C9.4,41.3 9.4,41.1 9.4,41 C9.4,40.9 9.3,40.8 9.3,40.7 C9.2,40.5 9,40.3 8.9,40.2 C8.6,40.1 8.5,40.1 8.5,40.1 Z" id="Shape" fill="#ABE2FF"/>
        <path d="M20.7,37.3 C20.7,37.3 20.7,37.5 20.5,37.8 C20.4,37.9 20.4,37.9 20.3,37.9 C20.2,37.9 20.1,37.9 20,37.9 C19.7,37.8 19.5,37.6 19.5,37.3 C19.5,37.2 19.5,37 19.6,36.9 C19.7,36.8 19.8,36.7 19.9,36.7 C20.1,36.6 20.4,36.7 20.5,36.9 C20.7,37.1 20.7,37.3 20.7,37.3 Z M20.7,37.3 C20.7,37.3 20.7,37.3 20.7,37.3 C20.7,37.1 20.6,37 20.5,37 C20.4,37 20.2,37 20.1,37.1 L20,37.2 C20,37.3 20,37.3 20,37.4 C20,37.5 20,37.6 20.1,37.7 C20.1,37.7 20.2,37.8 20.3,37.8 C20.4,37.8 20.4,37.8 20.5,37.8 C20.7,37.5 20.7,37.3 20.7,37.3 Z" id="Shape" fill="#ABE2FF"/>
        <path d="M18.5,38 C18.5,38 18.3,38.1 18,38.3 C17.6,38.5 17,38.6 16.3,38.4 C15.9,38.3 15.6,38.1 15.3,37.8 C15.2,37.7 15.2,37.6 15.1,37.5 C15.1,37.4 15,37.3 15,37.2 C14.9,37 14.9,36.8 14.8,36.6 C14.7,35.7 15,34.7 15.8,34.1 C16.1,33.8 16.6,33.6 17.1,33.6 C17.6,33.6 18.1,33.7 18.5,33.9 C18.9,34.1 19.3,34.5 19.4,34.9 C19.6,35.3 19.7,35.7 19.7,36.1 C19.7,36.9 19.3,37.4 19,37.7 C18.7,37.9 18.5,38 18.5,38 Z M18.4,38 C18.4,38 18.4,38 18.5,37.9 C18.6,37.8 18.7,37.7 18.8,37.6 C19,37.3 19.2,36.7 19.1,36.1 C19.1,35.8 19,35.5 18.8,35.2 C18.6,34.9 18.4,34.6 18,34.4 C17.8,34.1 17.4,34 17,34 C16.6,34 16.2,34.1 15.8,34.3 C15.4,34.5 15.1,34.9 15,35.3 C14.8,35.7 14.8,36.2 15,36.5 C15.1,36.9 15.3,37.2 15.6,37.5 C15.8,37.8 16.1,37.9 16.4,38.1 C17,38.4 17.6,38.4 17.9,38.2 C18.1,38.1 18.2,38.1 18.3,38 C18.4,38 18.4,38 18.4,38 Z" id="Shape" fill="#ABE2FF"/>
        <path d="M14.8,31.8 C14.8,31.8 14.7,31.9 14.5,31.9 C14.3,32 14,32.1 13.6,32 C13.4,31.9 13.2,31.8 13.1,31.6 C13.1,31.5 13,31.5 13,31.4 C13,31.4 13,31.3 13,31.2 C13,31.1 13,31 13,30.8 C13,30.3 13.2,29.9 13.6,29.5 C13.8,29.3 14.1,29.2 14.3,29.2 C14.6,29.2 14.8,29.3 15,29.4 C15.2,29.5 15.4,29.8 15.5,30 C15.6,30.2 15.6,30.5 15.6,30.7 C15.5,31.1 15.3,31.3 15.1,31.5 C14.9,31.7 14.8,31.8 14.8,31.8 Z M14.8,31.7 C14.8,31.7 14.9,31.7 15,31.5 C15.1,31.4 15.2,31.1 15.2,30.8 C15.2,30.7 15.1,30.5 15.1,30.4 C15,30.2 14.9,30.1 14.8,30 C14.7,29.9 14.5,29.8 14.3,29.8 C14.1,29.8 13.9,29.8 13.7,29.9 C13.5,30 13.3,30.1 13.2,30.3 C13.1,30.5 13.1,30.7 13.2,30.9 C13.2,31.1 13.4,31.2 13.5,31.3 C13.6,31.4 13.7,31.5 13.8,31.6 C14,31.8 14.3,31.8 14.5,31.8 C14.7,31.8 14.8,31.7 14.8,31.7 Z" id="Shape" fill="#ABE2FF"/>
        <path d="M11.8,22 C11.8,22 11.8,22.3 11.5,22.6 C11.4,22.7 11.3,22.7 11.2,22.8 C11.1,22.8 10.9,22.8 10.8,22.8 C10.5,22.7 10.2,22.4 10.2,22 C10.2,21.8 10.3,21.6 10.4,21.5 C10.5,21.4 10.7,21.3 10.8,21.2 C11.1,21.1 11.4,21.2 11.5,21.4 C11.9,21.7 11.8,22 11.8,22 Z M11.8,22 C11.8,22 11.8,21.9 11.8,21.8 C11.8,21.7 11.7,21.5 11.5,21.5 C11.3,21.4 11.1,21.4 11,21.6 C10.9,21.7 10.9,21.7 10.8,21.8 C10.8,21.9 10.7,21.9 10.7,22 C10.7,22.2 10.8,22.3 10.9,22.4 C11,22.5 11.1,22.5 11.2,22.5 C11.3,22.5 11.4,22.5 11.5,22.5 C11.7,22.4 11.8,22.3 11.8,22.2 C11.8,22.1 11.8,22 11.8,22 Z" id="Shape" fill="#ABE2FF"/>
        <path d="M9.3,38.4 C9.3,38.4 9,38.3 8.9,37.9 C8.9,37.8 8.9,37.7 8.9,37.5 C8.9,37.4 9,37.2 9.1,37.1 C9.3,36.9 9.7,36.8 10,36.9 C10.1,37 10.3,37.1 10.4,37.3 C10.5,37.5 10.5,37.6 10.5,37.8 C10.4,38.1 10.2,38.3 10,38.4 C9.5,38.6 9.3,38.4 9.3,38.4 Z M9.3,38.4 C9.3,38.4 9.4,38.4 9.5,38.4 C9.6,38.4 9.8,38.4 9.9,38.3 C10,38.2 10.1,38 10.1,37.8 C10.1,37.7 10,37.6 10,37.6 C9.9,37.5 9.9,37.5 9.8,37.5 C9.7,37.4 9.5,37.4 9.3,37.5 C9.2,37.5 9.1,37.6 9.1,37.7 C9,37.7 9,37.8 9,37.9 C9,38.1 9.1,38.2 9.2,38.3 C9.2,38.4 9.3,38.4 9.3,38.4 Z" id="Shape" fill="#ABE2FF"/>
        <path d="M7.6,10.6 C7.6,10.6 7.6,11.1 7.6,12.1 C7.6,13.1 7.6,14.4 7.6,16.1 C7.5,17.7 7.5,19.7 7.4,21.7 C7.3,23.8 7.1,25.9 6.9,28.1 C6.7,30.3 6.5,32.5 6.2,34.5 C5.9,36.5 5.6,38.4 5.4,40.1 C5.2,41.7 4.9,43.1 4.7,44 C4.5,44.9 4.4,45.5 4.4,45.5 C4.4,45.5 4.4,45 4.5,44 C4.6,43 4.7,41.7 4.8,40 C5.1,36.7 5.5,32.4 5.9,28 C6.3,23.6 6.7,19.3 7,16 C7.2,14.4 7.3,13 7.4,12 C7.5,11.1 7.6,10.6 7.6,10.6 Z" id="Shape" fill="#FFFFFF"/>
        <path d="M12.5,53.3 C12.5,53.3 13.2,53.3 14.4,53.1 C15.6,53 17.4,52.7 19.4,52.3 C20.4,52.1 21.5,51.8 22.6,51.4 C23.7,51 24.9,50.4 25.7,49.5 C26.1,49 26.3,48.4 26.2,47.8 C26.1,47.2 25.9,46.5 25.7,45.8 C25.4,44.5 25,43.1 24.8,41.7 C23.7,36.2 22.9,30.6 22.4,26.4 C21.9,22.2 21.7,19.4 21.7,19.4 C21.7,19.4 22,22.2 22.7,26.4 C23,28.5 23.4,30.9 23.8,33.5 C24.2,36.1 24.7,38.9 25.3,41.6 C25.6,43 25.9,44.3 26.2,45.7 C26.4,46.4 26.6,47 26.7,47.7 C26.8,48.4 26.5,49.2 26.1,49.7 C25.2,50.8 23.9,51.3 22.8,51.7 C21.6,52.1 20.5,52.3 19.5,52.5 C17.4,52.9 15.7,53 14.4,53.1 C13.2,53.3 12.5,53.3 12.5,53.3 Z" id="Shape" fill="#96B7C4"/>
        <path d="M13,51.4 C13,51.4 15.2,51.3 18.4,50.8 C19.2,50.7 20.1,50.5 20.9,50.2 C21.8,49.9 22.7,49.6 23.4,48.9 C23.7,48.6 23.9,48.1 23.8,47.7 C23.7,47.2 23.6,46.7 23.5,46.1 C23.3,45.1 23.1,44 22.9,42.9 C22.5,40.8 22.2,38.6 21.9,36.6 C21.6,34.6 21.4,32.7 21.3,31.1 C21.2,29.5 21.1,28.1 21,27.2 C20.9,26.3 20.9,25.7 20.9,25.7 C20.9,25.7 21.1,27.9 21.5,31.1 C21.9,34.3 22.5,38.6 23.3,42.9 C23.5,44 23.7,45 23.9,46.1 C24,46.6 24.1,47.1 24.2,47.7 C24.3,48.3 24.1,48.9 23.7,49.3 C22.9,50.1 21.9,50.4 21,50.7 C20.1,51 19.2,51.1 18.4,51.2 C16.8,51.4 15.4,51.5 14.5,51.5 C13.6,51.4 13,51.4 13,51.4 Z" id="Shape" fill="#547DC6"/>
        <path d="M24.3,48 C24.3,48 24.3,47.9 24.2,47.8 C24.1,47.7 24,47.6 23.8,47.5 C23.6,47.4 23.3,47.3 23,47.2 C22.7,47.1 22.3,47 22,46.9 C21.2,46.8 20.3,46.7 19.3,46.6 C18.3,46.5 17.2,46.5 16.2,46.5 C15.1,46.5 14.1,46.5 13.1,46.5 C12.1,46.6 11.2,46.6 10.4,46.6 C8.8,46.7 7.7,46.7 7.7,46.7 C7.7,46.7 8.8,46.5 10.4,46.3 C11.2,46.2 12.1,46.1 13.1,46 C14.1,46 15.2,45.9 16.3,45.9 C17.4,45.9 18.5,45.9 19.5,46 C20.5,46.1 21.4,46.3 22.2,46.5 C22.6,46.6 23,46.7 23.3,46.9 C23.6,47 23.9,47.2 24,47.3 C24.2,47.4 24.3,47.6 24.4,47.7 C24.3,47.9 24.3,48 24.3,48 Z" id="Shape" fill="#547DC6"/>
        <path d="M11.9,46.9 C11.9,46.9 11.8,47 11.6,47.1 C11.4,47.2 11,47.4 10.5,47.3 C10.3,47.3 10,47.1 9.8,46.9 C9.7,46.8 9.7,46.8 9.7,46.7 C9.7,46.6 9.6,46.6 9.6,46.5 C9.5,46.4 9.5,46.2 9.5,46.1 C9.4,45.5 9.6,44.9 10,44.4 C10.2,44.2 10.5,44 10.8,44 C11.1,43.9 11.5,44 11.8,44.1 C12.1,44.2 12.3,44.5 12.5,44.7 C12.7,45 12.7,45.2 12.7,45.5 C12.7,46 12.4,46.4 12.3,46.6 C12,46.8 11.9,46.9 11.9,46.9 Z M11.9,46.8 C11.9,46.8 12,46.7 12.1,46.5 C12.2,46.3 12.3,45.9 12.2,45.5 C12.1,45.3 12.1,45.1 12,45 C11.9,44.8 11.7,44.7 11.5,44.6 C11.3,44.5 11.1,44.4 10.8,44.4 C10.5,44.4 10.3,44.5 10.1,44.6 C9.9,44.7 9.7,45 9.6,45.2 C9.5,45.5 9.5,45.7 9.7,46 C9.8,46.2 10,46.4 10.1,46.5 C10.3,46.6 10.4,46.7 10.6,46.8 C10.9,47 11.3,47 11.6,46.9 C11.8,46.9 11.9,46.8 11.9,46.8 Z" id="Shape" fill="#ABE2FF"/>
        <path d="M20.8,48.3 C20.8,48.3 20.6,48.4 20.3,48.6 C19.9,48.8 19.3,48.9 18.6,48.7 C18.2,48.6 17.9,48.4 17.6,48.1 C17.5,48 17.5,47.9 17.4,47.8 C17.4,47.7 17.3,47.6 17.3,47.5 C17.2,47.3 17.2,47.1 17.1,46.9 C17,46 17.3,45 18.1,44.4 C18.4,44.1 18.9,43.9 19.4,43.9 C19.9,43.9 20.4,44 20.8,44.2 C21.2,44.4 21.6,44.8 21.7,45.2 C21.9,45.6 22,46 22,46.4 C22,47.2 21.6,47.7 21.3,48 C21,48.2 20.8,48.3 20.8,48.3 Z M20.7,48.3 C20.7,48.3 20.7,48.3 20.8,48.2 C20.9,48.1 21,48 21.1,47.9 C21.3,47.6 21.5,47 21.4,46.4 C21.4,46.1 21.3,45.8 21.1,45.5 C20.9,45.2 20.7,44.9 20.3,44.7 C20,44.5 19.6,44.4 19.2,44.4 C18.8,44.4 18.4,44.5 18,44.7 C17.6,44.9 17.3,45.3 17.2,45.7 C17,46.1 17,46.6 17.2,46.9 C17.3,47.3 17.5,47.6 17.8,47.9 C18,48.2 18.3,48.3 18.6,48.5 C19.2,48.8 19.8,48.8 20.1,48.6 C20.3,48.5 20.4,48.5 20.5,48.4 C20.7,48.3 20.7,48.3 20.7,48.3 Z" id="Shape" fill="#ABE2FF"/>
      </g>
    </g>
  </g>
</svg>