<svg width="71px" height="78px" viewBox="0 0 71 78" version="1.1" xml:space="preserve" xmlns="http://www.w3.org/2000/svg" xmlns:xlink="http://www.w3.org/1999/xlink">
  <g>
    <title>Slice 1</title>
    <desc>Created with Sketch.</desc>
    <g id="Page-1" stroke="none" stroke-width="1" fill="none" fill-rule="evenodd">
      <g id="Party-Hat-d-[fashion,winter]" transform="translate(0.000000, 1.000000)">
        <g id="Hat_Base" transform="translate(6.039207, 7.858811)">
          <path d="M1.46985191,53.8621259 C1.46985191,53.8621259 -0.113254839,37.8716852 18.6927784,27.8595089 C37.49527,17.843791 47.9430662,7.77849041 49.3809663,5.89080384 C50.4753287,4.45644537 52.7773855,-0.788702502 55.4052719,2.02689004 C58.0473247,4.83894096 58.0473247,15.5559008 55.4052719,26.6270231 C52.7773855,37.6946039 58.9610642,44.5511915 58.2421141,52.810263 C58.2421141,52.8067214 31.6940868,40.6837361 1.46985191,53.8621259 Z" id="Fill_1_" fill="#458EF9"/>
          <g id="Stripes_3_" transform="translate(2.669604, 1.669604)" fill="#1F1287">
            <path d="M0.0823168804,43.7563695 C0.0823168804,43.7563695 25.8547281,29.6677819 54.7366869,43.7563695 L53.220871,38.6635116 C53.220871,38.6635116 30.9688358,27.0151042 2.39854018,38.6670532 L0.0823168804,43.7563695 Z" id="ID0.4795656418427825"/>
            <path d="M11.3092708,28.7752922 C11.3092708,28.7752922 35.7216977,22.0107868 51.2552687,32.033588 L52.1831746,27.8898857 C52.1831746,27.8898857 35.293161,18.3168711 18.2118996,23.9870141 L11.3092708,28.7752922 Z" id="ID0.2848444706760347"/>
            <path d="M35.5587829,15.0196174 C35.5587829,15.0196174 48.2838446,15.118783 52.3708808,22.5384891 L53.9469043,18.7772825 C53.9469043,18.7772825 51.4429748,11.5098662 38.9056194,11.6550729 L35.1302462,15.3348221" id="ID0.9288907898589969"/>
            <path d="M46.7113627,4.22120025 C46.7113627,4.22120025 52.9233744,5.31202101 54.5489807,9.14760179 L54.5489807,2.57788586 L47.9084322,0.83894757 L46.7113627,4.22120025 Z" id="ID0.18686081282794476"/>
          </g>
          <path d="M0.708402356,55.1583609 L0.587987078,53.9471249 C0.570278948,53.7842101 -0.832204885,37.2519007 18.2748665,27.0768096 C37.286314,16.9513013 47.5747371,6.80100168 48.6726411,5.35601833 C48.8603473,5.1187294 49.0728448,4.76456682 49.3243003,4.3643631 C50.3761632,2.66084107 51.8282298,0.323368012 53.83279,0.323368012 C54.6225725,0.323368012 55.3698556,0.6916971 56.0533894,1.42127202 C59.3400182,4.92039835 58.6458595,16.8521358 56.2694286,26.8324374 C54.8031955,33.0090329 56.1738047,37.8043943 57.5019143,42.4439241 C58.4971112,45.9395088 59.4462669,49.2367625 59.1275206,52.8846371 L59.0177302,54.134831 L57.8773267,53.6177537 C57.7675363,53.5681709 46.6999555,48.6063531 31.0318028,48.6063531 C20.8885864,48.6063531 11.0605747,50.6498712 1.8240145,54.6731582 L0.708402356,55.1583609 Z M53.8363316,2.09418093 C52.8128017,2.09418093 51.5271916,4.17665693 50.8259496,5.29581069 C50.5426196,5.75268043 50.2947058,6.15288415 50.0857498,6.42558934 C48.8815971,8.00869609 38.6462984,18.2298283 19.1071486,28.6386666 C3.86044935,36.756073 2.3729665,48.6771856 2.31275886,52.5375578 C11.4253622,48.7515598 21.0762926,46.8319986 31.0282612,46.8319986 C44.2739418,46.8319986 54.1090368,50.2000847 57.4169153,51.503403 C57.4239986,48.6276029 56.6271328,45.8509682 55.7983923,42.9291269 C54.4702826,38.2966803 52.9686333,33.0479908 54.5446568,26.4216088 C57.3673326,14.5890369 56.8537968,4.86019072 54.7606959,2.63250806 C54.4313247,2.27480385 54.1196617,2.09418093 53.8363316,2.09418093 Z" id="Outline_6_" fill="#000000" fill-rule="nonzero"/>
        </g>
        <path d="M61.0796916,0.00102307744 C62.836338,0.00102307744 64.4300696,0.681015239 65.5846396,1.77537762 C66.735668,2.86974001 67.4510764,4.38555587 67.4510764,6.05366164 C67.4510764,7.72176741 66.735668,9.23758327 65.5846396,10.3319457 C64.4300696,11.426308 62.836338,12.1063002 61.0796916,12.1063002 C59.3230451,12.1063002 57.7293135,11.426308 56.5747435,10.3319457 C55.4237151,9.23758327 54.7083067,7.72176741 54.7083067,6.05366164 C54.7083067,4.38555587 55.4237151,2.86974001 56.5747435,1.77537762 C57.7293135,0.681015239 59.3230451,0.00102307744 61.0796916,0.00102307744 Z" id="Puff" stroke="#000000" stroke-width="1.77081292" fill="#4A3CED"/>
        <g id="Brim" transform="translate(0.700000, 52.242072)">
          <path d="M4.23783872,14.3981832 C4.23783872,14.3981832 1.75515901,11.7490471 4.23783872,9.47532327 C6.72406006,7.2051411 20.2778622,0.869172471 35.0995663,1.04271214 C49.9177288,1.2162518 54.7945476,2.97643985 58.5982538,4.73308626 C62.3948767,6.48973268 69.8181244,11.05843 66.6306612,15.0994251 C66.6306612,15.0994251 71.1320676,22.5297561 67.1158639,22.5297561 C66.2092077,22.5297561 63.4715309,21.4247689 63.4715309,21.4247689 C63.4715309,21.4247689 40.9680403,8.77408135 7.4005106,21.4247689 C7.4005106,21.4283105 -2.97999474,25.7030529 4.23783872,14.3981832 Z" id="Brim_Fill" fill="#4A3CED"/>
          <path d="M67.6081499,15.11005 C68.203143,14.1679775 68.3695995,13.1479893 68.1146024,12.0748766 C67.1477385,8.04450643 60.3549002,4.72246139 59.0055407,4.09913524 C55.1026691,2.29644768 50.0558522,0.522093138 35.2235232,0.345011846 L34.6108219,0.34147022 C19.8564087,0.34147022 6.47260463,6.5888982 3.88013451,8.96178752 C3.03368594,9.73740358 2.58744108,10.6369765 2.55202482,11.6321734 C2.50598369,12.8150764 3.06556057,13.8350647 3.46222266,14.4017248 C1.46120406,17.0402361 0.823711413,19.3635426 1.56745284,21.3149785 C2.82473001,24.6122321 8.27175056,21.9028883 8.27175056,21.9028883 C17.922681,18.3258462 27.5736114,16.5125338 36.9695447,16.5125338 C51.4654193,16.5125338 60.9711431,20.893525 62.8871627,21.8603888 C62.8871627,21.8603888 65.950669,23.2274564 67.105239,23.1920401 C68.4191822,23.1495406 68.9645926,22.2783007 69.2302145,21.1095642 C69.7579168,18.7897992 68.2562674,16.1300382 67.6081499,15.11005 Z M67.8560637,20.7943595 C67.2539873,22.6076719 63.9284007,20.8156092 63.9284007,20.8156092 C63.5140304,20.5818619 53.5726867,15.1029667 36.9660031,15.1029667 C27.2371569,15.1029667 17.2426888,17.0083614 7.26592882,20.7731097 L6.75947632,20.9643575 C6.75947632,20.9643575 3.56138819,22.597047 2.8778544,20.808526 C2.28640289,19.2537522 2.96639505,17.2456504 4.89658113,14.844428 L5.27907672,14.3663086 C5.27907672,14.3663086 6.32385634,13.0381989 8.52320599,11.986336 C8.52320599,11.986336 6.6744773,12.0005025 4.55658505,13.5021518 C4.27679661,13.0948649 3.9190924,12.4325808 3.95096703,11.6852978 C3.97575841,11.0690549 4.25908848,10.5165613 4.82574861,9.99948389 C6.99676525,8.00909017 20.0936976,1.74395405 34.6072803,1.74395405 L35.2058151,1.74749568 C49.754814,1.92103535 54.6457993,3.63518225 58.4140892,5.37412054 C62.136338,7.09180907 66.1560833,9.932193 66.7439932,12.3971646 C66.9033664,13.0417405 66.7510764,13.6367336 66.4323301,14.2175603 C64.4419364,12.9213252 62.7384144,12.9036171 62.7384144,12.9036171 C64.937764,13.95548 65.9825436,15.2871313 65.9825436,15.2871313 L66.0179599,15.2835896 L66.1844163,15.517337 C66.7900343,16.3531606 68.4652234,18.9739638 67.8560637,20.7943595 Z" id="Brim_Outline" fill="#000000" fill-rule="nonzero"/>
        </g>
      </g>
    </g>
  </g>
</svg>