<svg version="1.1" width="48" height="191" xmlns="http://www.w3.org/2000/svg" xmlns:xlink="http://www.w3.org/1999/xlink">
  <!-- Exported by Scratch - http://scratch.mit.edu/ -->
  <g id="ID0.5772153753787279" transform="matrix(1, 0, 0, 1, -0.55, 0.2)">
    <path id="Pants" fill="#244764" d="M 311.966 468.379 C 314.667 468.360 316.234 467.318 318.560 466.157 C 319.795 465.540 321.698 464.563 322.831 463.740 C 323.630 463.160 324.892 462.478 325.117 461.494 C 325.395 460.279 324.391 459.265 323.997 458.223 C 323.536 457.009 323.402 455.744 323.793 454.453 C 324.179 453.180 324.906 452.028 325.035 450.715 C 325.159 449.456 324.855 448.069 324.790 446.775 C 324.523 441.424 325.608 436.092 325.595 430.668 C 325.591 429.289 325.854 427.829 325.853 426.463 C 325.851 425.066 326.244 423.686 326.099 422.294 C 325.933 420.689 326.241 419.275 326.417 417.623 C 326.577 416.120 326.433 414.529 326.506 412.989 C 326.547 412.127 326.663 411.151 326.831 410.292 C 326.956 409.648 326.921 408.390 327.224 407.681 C 329.078 403.352 328.295 388.719 327.478 388.926 C 324.269 389.737 316.523 396.186 313.148 397.118 C 311.607 397.542 311.469 397.722 309.851 397.889 C 308.772 398 307.623 397.622 306.546 397.710 C 306.570 397.731 300.947 395.615 300.898 395.556 C 300.570 395.380 301.977 399.643 304.397 401.576 C 304.669 401.795 304.630 405.579 304.744 405.240 C 304.197 405.211 306.140 410.023 305.811 410.386 C 304.231 412.141 303.912 410.788 303.298 410.554 C 302.817 410.370 302.161 410.703 301.677 410.541 C 301.130 410.359 301.086 409.905 300.387 410.060 C 300.160 412.762 300.625 415.684 301.020 418.320 C 301.300 420.196 301.452 421.941 301.596 423.685 C 301.725 425.245 301.763 426.694 301.763 428.241 C 301.763 429.634 301.970 430.980 301.047 432.102 C 300.622 432.617 300.165 433.142 300.018 433.853 C 299.882 434.506 300.087 435.103 300.031 435.709 C 299.887 437.250 299.432 438.408 299.253 439.766 C 299.072 441.134 298.962 442.353 298.761 443.694 C 298.365 446.336 297.991 448.907 297.826 451.615 C 297.673 454.136 297.406 456.879 297.508 459.485 C 297.560 460.831 297.891 461.926 298.012 463.211 C 298.141 464.572 297.951 465.714 297.535 466.884 C 297.116 468.066 296.466 469.217 296.215 470.403 C 295.941 471.695 296.004 472.969 295.883 474.319 C 295.799 475.264 295.649 475.808 296.148 476.667 C 297.071 478.258 297.569 478.106 299.422 479.108 C 301.151 480.339 300.985 480.220 302.597 480.999 C 303.830 481.596 304.953 480.783 306.236 480.249 C 307.762 479.613 309.309 478.707 310.829 478.015 C 311.779 477.581 314.296 477.526 313.953 476.341 C 313.768 475.709 313.307 475.250 313.194 474.567 C 313.074 473.827 312.889 473.101 312.784 472.360 C 312.669 471.562 312.716 470.982 312.446 470.253 C 312.207 469.609 311.978 468.959 311.960 468.208 C 311.879 468.187 311.806 468.212 311.728 468.195 " transform="matrix(0.949999988079071, 0, 0, 0.949999988079071, -273.35, -276.4)"/>
    <path id="Shirt" fill="#555D7B" d="M 305.724 327.866 C 303.523 329.140 301.230 330.219 298.859 331.533 C 295.878 333.891 294.547 335.354 295.144 334.417 C 294.364 335.641 293.385 338.260 293.094 339.637 C 292.506 342.421 292.495 341.743 292.260 344.449 C 292.142 345.816 291.496 346.928 291.078 348.171 C 290.865 348.800 290.557 349.459 290.342 350.077 C 290.112 350.746 289.211 351.134 289.094 351.751 C 288.934 352.592 290.954 354.258 291.661 354.749 C 292.739 355.499 293.782 356.184 294.986 356.659 C 296.079 357.090 297.302 357.451 298.470 357.342 C 299.528 357.243 301.201 357.056 302.132 356.589 C 301.611 359.099 300.778 361.711 299.921 364.157 C 299.468 365.448 299.252 367.039 298.983 368.405 C 298.701 369.836 298.943 370.695 299.477 371.954 C 300.565 374.514 300.149 377.568 299.985 380.226 C 299.774 383.638 300.071 387.062 300.068 390.467 C 300.067 391.875 300.387 393.394 300.714 394.710 C 301.117 396.326 302.107 395.947 303.482 396.609 C 305.883 397.767 308.775 398.147 311.558 397.794 C 312.716 397.647 314.500 396.763 315.553 396.196 C 316.863 395.491 317.919 394.435 319.199 393.692 C 320.568 392.897 321.832 392.068 323.135 391.150 C 324.338 390.303 325.877 389.903 327.127 389.115 C 328.001 388.564 328.104 388.534 328.281 387.603 C 328.408 386.938 328.263 386.299 328.039 385.556 C 327.702 384.446 326.863 383.347 326.961 381.976 C 327.006 381.350 327.458 380.764 327.545 380.146 C 327.652 379.399 327.322 378.808 327.127 378.146 C 326.731 376.793 325.925 375.861 325.350 374.600 C 325.064 373.975 324.681 373.388 324.446 372.753 C 324.219 372.146 324.294 371.545 324.114 370.903 C 323.911 370.176 323.509 369.536 323.280 368.740 C 323.085 368.066 322.846 367.425 322.736 366.739 C 322.507 365.328 322.743 364.072 322.195 362.741 C 321.739 361.634 322.049 360.520 321.992 358.990 C 321.957 358.057 322.274 357.963 323.132 357.826 C 323.758 357.726 324.342 357.508 324.903 357.187 C 325.868 356.636 326.817 355.571 327.421 354.592 C 328.263 353.231 326.966 352.560 326.362 351.587 C 325.690 350.501 325.242 349.285 324.883 348.011 C 324.527 346.751 324.216 345.458 324.036 344.154 C 323.850 342.810 323.787 340.684 323.638 339.353 C 323.336 336.651 321.261 335.610 319.282 334.041 C 318.322 333.280 317.076 332.595 316.136 331.858 C 316.620 332.818 316.879 333.595 317.283 334.189 C 317.637 334.708 317.819 335.309 318.048 335.852 C 318.577 337.108 319.135 338.431 318.327 339.703 C 317.513 340.986 316.579 342.006 314.972 341.847 C 313.266 341.678 312.665 341.232 311.823 339.832 C 311.190 338.782 310.355 338.421 309.908 337.297 C 309.437 336.111 308.548 334.445 308.039 333.274 C 307.578 332.214 307.343 331.178 306.612 330.306 C 306.049 329.633 304.793 327.768 306.146 327.277 " transform="matrix(0.949999988079071, 0, 0, 0.949999988079071, -273.35, -276.4)"/>
    <path id="SkinArmRight" fill="#D8AD8C" d="M 301.865 356.859 C 302.144 356.907 301.489 356.975 301.323 357.014 C 301.063 357.076 300.801 357.120 300.545 357.171 C 300.152 357.250 299.792 357.303 299.362 357.324 C 298.518 357.367 297.466 357.440 296.658 357.251 C 295.831 357.058 294.889 356.762 294.095 356.412 C 293.340 356.079 292.663 355.231 291.940 355.004 C 291.922 355.629 291.774 355.986 291.505 356.587 C 291.221 357.222 291.235 357.622 291.153 358.338 C 291.011 359.578 291.083 360.635 290.662 361.880 C 290.219 363.190 289.998 364.705 290.061 366.119 C 290.123 367.505 290.236 368.480 289.731 369.810 C 288.847 372.137 289.529 374.954 290.139 377.201 C 290.469 378.413 290.794 379.589 291.167 380.777 C 291.355 381.374 291.400 381.921 291.635 382.482 C 291.877 383.062 291.909 383.648 292.121 384.230 C 292.577 385.490 293.089 386.773 293.348 388.066 C 293.585 389.253 294.112 390.648 294.401 391.803 C 294.993 394.176 295.624 396.098 295.885 398.561 C 296.026 399.892 295.403 401.059 295.341 402.367 C 295.279 403.691 295.490 404.882 295.806 406.096 C 296.045 407.024 296.541 408.750 297.439 409.104 C 298.006 409.330 298.501 409.334 299.051 409.609 C 299.557 409.861 300.052 410.040 300.623 410.131 C 301.397 410.255 301.919 410.527 302.722 410.446 C 303.561 410.361 304.086 411.302 304.440 411.283 C 305.794 411.504 306.039 409.880 305.728 408.986 C 305.559 408.500 305.186 408.127 305.031 407.586 C 304.884 407.072 304.894 406.315 304.814 405.782 C 304.636 404.588 304.997 403.326 304.505 402.208 C 304.069 401.214 303.151 400.719 302.541 399.824 C 301.269 397.959 300.626 395.012 300.543 392.813 C 300.494 391.543 300.155 390.550 300.155 389.241 C 300.155 387.957 300.013 386.689 299.950 385.429 C 299.824 382.877 299.758 380.387 300.001 377.904 C 300.126 376.614 300.479 375.511 300.073 374.176 C 299.889 373.570 299.743 372.936 299.531 372.310 C 299.342 371.747 298.962 371.279 298.758 370.758 C 298.450 369.977 298.919 369.691 299.133 369.050 C 299.229 368.761 299.076 368.407 299.142 368.114 C 299.203 367.848 299.450 367.603 299.519 367.324 C 299.840 366.039 299.590 364.761 300 363.459 C 300.370 362.282 300.662 361.145 301.086 359.959 C 301.298 359.370 301.658 356.813 302.329 356.935 " transform="matrix(0.949999988079071, 0, 0, 0.949999988079071, -273.35, -276.4)"/>
    <path id="SkinArmLeft" fill="#D8AD8C" d="M 326.015 356.656 C 325.498 356.348 324.950 356.921 324.514 357.180 C 323.975 357.501 323.500 357.552 322.909 357.682 C 322.231 357.831 322.079 357.979 321.969 358.678 C 321.894 359.150 321.737 359.728 321.833 360.229 C 322.026 361.241 322.151 361.727 322.200 362.810 C 322.225 363.383 322.552 364.371 322.645 364.950 C 322.731 365.488 322.668 366.520 322.801 367.065 C 323.104 368.299 323.368 369.068 323.653 370.280 C 323.928 371.453 324.512 372.365 325.006 373.452 C 325.237 373.963 325.329 374.563 325.557 375.067 C 325.866 375.750 325.954 376.069 326.417 376.543 C 327.170 377.313 327.433 378.434 327.433 379.451 C 327.432 380.062 327.420 380.562 327.247 381.137 C 327.106 381.602 326.727 382.078 326.688 382.554 C 326.614 383.464 327.556 384.679 327.784 385.589 C 327.918 386.126 327.985 386.664 328.039 387.208 C 328.063 387.452 328.144 387.681 328.106 387.950 C 328.057 388.288 327.876 388.338 327.784 388.641 C 327.491 389.600 327.693 390.961 327.841 391.929 C 328.064 393.400 328.309 394.944 328.309 396.448 C 328.309 397.242 328.292 398.030 328.376 398.808 C 328.453 399.521 328.329 400.443 328.454 401.158 C 328.806 401.129 329.537 400.973 329.808 400.779 C 330.105 400.565 330.322 400.014 330.548 399.619 C 331.017 398.804 331.706 397.856 332.003 396.920 C 332.319 395.923 332.690 394.672 332.829 393.616 C 332.985 392.438 332.322 391.546 332.035 390.497 C 331.747 389.441 331.003 388.576 330.415 387.677 C 329.825 386.775 329.641 385.639 329.657 384.579 C 329.675 383.555 329.745 382.434 329.793 381.345 C 329.831 380.483 329.493 379.704 329.569 378.864 C 329.628 378.208 329.451 377.732 329.387 377.093 C 329.306 376.272 329.622 375.550 329.387 374.763 C 329.151 373.970 328.502 372.183 328.285 371.382 C 327.926 370.060 328.086 370.093 327.383 369 C 327.141 368.623 326.674 368.271 326.553 367.854 C 326.416 367.384 326.434 366.650 326.367 366.166 C 326.201 364.956 326.407 363.664 326.285 362.457 C 326.090 360.525 326.015 358.555 326.015 356.590 " transform="matrix(0.949999988079071, 0, 0, 0.949999988079071, -273.35, -276.4)"/>
    <path id="Face" fill="#D8AD8C" d="M 324.939 307.466 C 323.750 307.572 323.845 307.444 322.640 307.630 L 321.933 307.527 C 321.943 307.547 321.463 307.732 321.773 307.484 C 321.048 307.628 320.048 307.673 319.280 307.639 C 318.372 307.598 317.239 307.517 316.430 307.398 C 315.745 307.298 314.449 307.036 313.746 306.583 C 313.018 306.115 311.510 305.237 311.095 304.541 C 310.749 303.960 311.780 306.082 311.303 305.592 C 311.134 306.107 311.523 306.330 311.861 306.779 C 312.123 307.126 312.612 307.683 312.834 308.045 C 313.065 308.422 313.528 308.471 313.826 308.793 C 314.097 309.086 312.455 308.440 312.885 308.636 C 311.499 308.240 310.959 307.888 309.765 307.065 C 309.263 306.718 308.630 304.653 308.276 304.156 C 307.909 303.641 308.154 305.863 307.995 305.245 C 307.606 305.685 308.125 306.573 308.150 307.102 C 308.180 307.741 308.373 308.576 308.506 309.220 C 308.789 310.579 308.768 311.363 308.972 312.735 C 309.037 313.173 308.687 314.178 308.708 314.612 C 308.729 315.104 307.117 310.464 307.052 310.931 C 307.060 310.340 307.706 313.014 307.473 312.463 C 307.135 311.667 308.089 314.943 307.966 314.625 C 308.074 315.251 307.914 314.855 308.004 315.477 C 308.077 315.975 308.088 315.870 308.035 316.347 C 307.926 317.358 307.998 315.756 307.890 316.747 C 307.831 316.428 307.828 317.658 307.831 317.338 C 307.833 317.004 307.772 317.395 307.704 317.052 C 307.574 316.386 307.370 316.333 306.974 315.821 C 306.732 315.536 306.253 314.782 306.233 315.166 C 306.047 314.867 306.403 314.609 305.519 313.696 C 305.093 313.256 304.041 312.368 303.484 312.089 C 302.906 311.800 301.984 311.804 301.310 311.946 C 300.569 312.102 300.652 313.241 300.371 313.884 C 300.062 314.588 300.753 315.216 301.032 315.889 C 301.307 316.552 301.499 317.029 302.005 317.573 C 302.435 318.035 302.888 318.242 303.317 318.689 C 303.681 319.068 304.621 319.272 305.511 318.407 C 306.083 317.852 305.910 319.471 305.957 319.622 C 306.118 319.841 306.021 320.044 306.064 320.335 C 306.111 320.654 306.317 320.740 306.296 321.053 C 306.254 321.744 306.781 322.213 306.667 322.886 C 306.442 324.205 306.661 325.063 306.398 326.362 C 306.217 327.258 305.872 327.683 305.677 328.176 C 305.912 328.847 305.647 328.677 305.912 328.847 C 306.199 329.031 306.367 330.075 306.609 330.304 C 307.210 330.876 306.902 331.387 307.509 331.931 C 308.084 332.447 307.710 333.093 308.228 333.682 C 308.767 334.295 309.056 335.431 309.379 336.172 C 310.047 337.705 310.369 338.107 311.207 339.367 C 311.397 339.653 312.360 340.591 312.555 340.871 C 313.099 341.659 314.209 341.864 315.071 341.871 C 315.582 341.876 316.094 341.610 316.772 341.554 C 317.109 341.526 317.557 340.606 317.857 340.425 C 318.470 340.056 318.528 338.830 318.614 338.255 C 318.731 337.462 318.370 336.602 318.052 335.900 C 317.766 335.269 317.710 334.896 317.348 334.293 C 317.144 333.953 316.848 333.462 316.697 333.094 C 316.557 332.754 316.274 332.310 316.024 332.041 C 315.615 331.598 315.880 331.502 315.503 331.043 C 315.192 330.667 314.946 330.276 315.228 329.733 C 315.403 329.396 314.871 328.922 315.228 329.061 C 315.463 329.152 315.569 328.706 315.831 328.776 C 316.485 328.953 317.324 329.027 318.036 329.063 C 319.452 329.134 321.316 328.924 322.549 328.094 C 322.647 328.028 322.745 327.944 322.827 327.844 C 322.994 327.639 322.929 327.576 323.028 327.375 C 323.176 327.073 323.444 326.836 323.625 326.554 C 324.098 325.810 324.331 325.050 324.675 324.266 C 324.887 323.784 325.220 323.362 325.376 322.846 C 325.487 322.477 325.487 322.123 325.597 321.755 C 325.797 321.085 325.786 320.387 325.893 319.702 C 326.105 318.325 326.352 317.026 326.307 315.668 C 326.299 315.425 326.305 314.887 326.148 314.706 C 326.083 314.630 325.842 314.631 325.748 314.531 C 325.625 314.401 325.600 314.151 325.559 313.983 C 325.375 313.241 325.690 312.577 325.551 311.821 C 325.420 311.117 325.927 310.446 325.861 309.762 C 325.796 309.088 325.864 308.527 325.792 307.841 C 325.770 307.636 325.419 307.665 325.575 307.549 " transform="matrix(0.949999988079071, 0, 0, 0.949999988079071, -273.35, -276.4)"/>
    <path id="EyeWhites" fill="#F5F6F6" d="M 316.728 314.405 C 317.335 315.130 315.155 315.843 314.694 315.881 C 313.704 315.962 312.346 315.836 311.547 315.202 C 311.037 314.799 310.585 314.183 310.866 313.474 C 311.143 312.779 312.336 312.706 312.976 312.675 C 314.440 312.603 315.835 313.145 316.719 314.286 M 321.574 313.618 C 320.961 313.455 320.915 314.652 321.276 314.866 C 321.560 315.034 322.289 315.064 322.632 315.042 C 323.411 314.993 324.176 314.460 324.665 313.832 C 325.110 313.259 325.563 312.481 324.794 312.002 C 324.163 311.610 323.499 311.940 322.888 312.257 C 322.503 312.455 321.329 313.097 321.361 313.578 " transform="matrix(0.949999988079071, 0, 0, 0.949999988079071, -273.35, -276.4)"/>
    <path id="LeftIris" fill="#33512E" d="M 322.479 312.399 C 322.899 311.993 323.856 311.751 324.383 312.066 C 324.428 312.777 324.506 313.677 323.670 313.928 C 322.625 314.243 322.613 313.116 322.522 312.441 " transform="matrix(0.949999988079071, 0, 0, 0.949999988079071, -273.35, -276.4)"/>
    <path id="RightIris" fill="#33512E" d="M 313.401 312.900 C 312.849 312.612 313.085 314.227 313.447 314.431 C 314.031 314.759 314.504 315.302 315.009 315.210 C 315.557 315.111 316.333 314.411 316.044 313.771 C 315.837 313.313 314.738 313.019 314.276 312.900 C 314.040 312.838 313.911 312.727 313.673 312.748 " transform="matrix(0.949999988079071, 0, 0, 0.949999988079071, -273.35, -276.4)"/>
    <path id="Mouth" fill="#F5F6F6" d="M 322.506 323.042 C 322.233 322.887 321.614 322.949 321.289 322.972 C 320.814 323.006 320.369 323.100 319.918 323.219 C 319.139 323.423 318.331 323.525 317.573 323.589 C 317.603 323.877 318.516 324.376 318.798 324.495 C 319.351 324.730 319.885 324.689 320.483 324.739 C 320.934 324.776 321.702 324.926 321.956 324.444 C 322.075 324.218 322.018 323.854 322.157 323.608 C 322.287 323.379 322.600 323.278 322.540 322.953 " transform="matrix(0.949999988079071, 0, 0, 0.949999988079071, -273.35, -276.4)"/>
    <path id="Hair" fill="#A15927" d="M 325.684 314.417 C 326.034 315.063 326.674 314.956 327.170 315.563 C 327.481 315.942 328.631 317.037 328.813 317.337 C 328.690 316.616 328.288 315.258 328.090 314.561 C 327.883 313.824 327.850 313.004 327.652 312.285 C 328.021 312.580 328.531 313.230 328.884 313.527 C 329.124 313.728 329.546 314.028 329.759 314.235 C 329.486 313.550 329.099 313.027 328.959 312.207 C 328.836 311.485 328.615 311.026 328.355 310.393 C 327.906 309.302 327.018 308.591 326.702 307.430 C 327.344 307.433 327.943 307.416 328.642 307.430 C 329.404 307.445 330.681 307.803 331.421 307.711 C 331.262 306.745 330.226 306.202 329.544 305.603 C 328.652 304.821 327.412 304.376 326.732 303.138 C 328.508 302.847 329.478 304.009 330.345 304.719 C 330.258 303.645 329.755 302.591 329.149 301.633 C 328.559 300.702 328.102 300.075 327.139 299.114 C 326.426 298.509 324.515 296.953 323.725 296.337 C 322.624 295.478 323.386 295.650 322.164 294.978 C 321.762 294.673 320.771 294.052 320.743 294.018 C 319.716 293.529 320.232 293.418 319.075 293.172 C 318.922 293.383 317.817 292.664 317.825 292.668 C 316.182 292.250 315.641 291.788 314.253 291.691 C 312.882 291.596 311.455 291.232 310.068 291.353 C 308.477 291.493 306.854 291.835 305.577 292.388 C 304.638 292.794 302.680 293.638 301.735 294.521 C 298.248 297.783 299.684 297.579 298.610 299.603 C 298.003 300.748 297.788 299.330 295.462 302.410 C 294.794 303.295 294.896 303.984 294.881 305.093 C 294.873 305.776 294.830 306.507 295.111 307.125 C 295.367 307.688 295.226 308.318 295.386 308.922 C 295.718 310.154 295.900 311.283 296.471 312.381 C 297.028 313.447 297.420 314.125 297.839 315.085 C 298.316 316.175 298.611 317.058 299.149 318.105 C 299.734 319.248 300.572 322.791 300.089 324.116 C 301.773 323.673 301.646 320.735 301.694 319.706 C 301.935 320.813 302.403 320.811 302.340 321.852 C 302.305 322.419 302.433 323.721 302.078 324.235 C 301.847 324.569 301.152 325.645 301.038 326.035 C 302.415 325.826 302.190 325.680 302.998 324.621 C 303.076 325.323 304.735 323.216 304.543 323.866 C 304.373 324.440 304.015 326.169 304.087 326.776 C 304.455 326.687 306.311 325 306.665 324.799 C 306.897 322.706 306.250 320.929 305.762 319.080 C 305.677 318.759 305.893 318.259 305.664 318.080 C 305.387 317.863 304.641 318.934 304.154 318.934 C 303.551 318.934 301.869 317.421 301.273 316.463 C 300.340 314.958 299.303 312.483 302.079 311.731 C 302.880 311.514 303.083 311.947 303.944 312.280 C 304.387 312.451 305.152 313.425 305.455 313.853 C 305.754 314.277 305.938 314.415 306.222 314.765 C 306.242 314.790 306.375 315.254 306.399 315.292 C 306.313 314.730 306.399 315.292 306.730 315.511 C 307.343 316.328 307.499 316.064 307.763 317.339 C 308.518 316.379 307.949 316.266 308.058 315.045 C 308.309 312.243 306.713 312.018 307.056 311.004 C 307.505 311.962 308.603 313.599 308.704 314.595 C 309.358 313.310 308.646 310.369 308.406 308.581 C 308.290 307.717 307.962 306.845 307.946 306.011 C 307.929 305.150 308.093 303.572 308.169 302.739 C 308.179 303.693 308.408 305.774 309.880 307.201 C 310.771 308.065 312.684 308.737 313.868 308.780 C 313.680 308.403 313.011 308.141 312.668 307.886 C 312.271 307.589 312.012 307.150 311.790 306.726 C 311.402 305.981 310.973 305.227 310.928 304.308 C 311.713 305.235 312.309 305.748 313.447 306.398 C 314.577 307.044 315.759 307.287 317.013 307.474 C 318.242 307.658 319.278 307.609 320.512 307.632 C 321.188 307.644 322.522 307.540 323.210 307.555 C 323.591 307.564 324.422 307.473 325.154 307.431 C 325.200 307.414 325.511 307.460 325.558 307.473 C 325.708 308.162 325.772 308.568 325.823 309.257 C 325.871 309.913 325.845 310.516 325.731 311.138 C 325.619 311.751 325.396 312.276 325.443 312.905 C 325.481 313.370 325.883 314.242 325.684 314.417 " transform="matrix(0.949999988079071, 0, 0, 0.949999988079071, -273.35, -276.4)"/>
    <path id="ShoeLeft" fill="#0B1938" d="M 324.871 462.301 C 325.058 462.857 326.498 463.405 327.046 463.648 C 327.979 464.062 329.096 464.546 330.047 464.845 C 330.932 465.124 331.742 465.419 332.672 465.649 C 333.071 465.749 333.942 465.785 334.301 465.970 C 334.684 466.168 334.703 466.695 334.822 467.172 C 335.451 469.688 332.603 470.780 330.517 470.843 C 329.944 470.859 329.460 470.705 328.921 470.591 C 328.491 470.500 327.796 470.598 327.401 470.412 C 326.577 470.027 326.712 468.777 325.690 468.440 C 323.190 467.617 320.552 467.002 317.980 466.782 C 318.368 465.766 320.315 465.043 321.214 464.528 C 322.340 463.884 323.459 463.227 324.553 462.678 M 324.763 470.927 C 324.625 470.646 324.504 470.320 324.340 470.053 C 324.176 469.786 324.418 469.888 324.162 469.741 C 323.950 469.620 323.246 469.564 323.011 469.483 C 322.024 469.142 321.021 468.892 320.017 468.575 C 319.250 468.332 318.449 468.107 317.657 467.899 C 317.004 467.728 316.035 467.528 315.380 467.668 C 314.809 467.789 314.009 468.154 313.417 468.164 C 313.081 469.754 317.002 469.526 317.825 469.577 C 319.587 469.685 321.343 470.734 323.094 470.956 C 323.636 471.024 324.096 470.730 324.618 470.802 " transform="matrix(0.949999988079071, 0, 0, 0.949999988079071, -273.35, -276.4)"/>
    <path id="ShoeTrimLeft" fill="#A2C6DD" d="M 334.648 466.096 C 334.744 465.873 335.724 466.215 335.929 466.326 C 336.179 466.462 336.456 466.685 336.580 466.950 C 336.837 467.494 337.018 468.144 337.067 468.699 C 337.126 469.384 337.186 469.847 336.981 470.581 C 336.733 471.470 336.574 472.227 335.692 472.544 C 335.126 472.748 334.513 473.004 333.965 473.255 C 333.682 473.385 333.450 473.398 333.160 473.524 C 332.336 473.881 331.250 473.600 330.375 473.670 C 329.422 473.746 328.427 473.664 327.485 473.570 C 326.592 473.482 325.783 473.602 324.901 473.468 C 324.199 473.363 323.507 473.309 322.844 473.033 C 322.052 472.702 321.218 472.444 320.407 472.139 C 319.225 471.694 317.978 470.964 316.733 471.002 C 316.055 471.023 315.602 471.063 314.949 471.182 C 314.387 471.286 313.708 471.231 313.191 471.056 C 312.714 470.893 312.369 470.175 312.186 469.702 C 312.032 469.299 311.614 468.596 312.146 468.373 C 312.362 468.282 312.758 468.245 312.995 468.240 C 313.324 468.232 313.382 468.657 313.603 468.880 C 314.015 469.294 314.478 469.249 315.027 469.425 C 316.220 469.808 317.630 469.326 318.855 469.632 C 319.649 469.830 320.453 470.135 321.229 470.425 C 322.325 470.834 323.568 470.960 324.736 470.902 C 324.751 470.622 324.354 469.815 324.110 469.664 C 323.809 469.478 323.250 469.463 322.905 469.380 C 322.585 469.304 322.308 469.216 321.990 469.168 C 321.225 469.052 320.483 468.730 319.733 468.558 C 319.021 468.396 318.323 468.135 317.653 467.901 C 317.013 467.676 316.270 467.879 315.662 467.625 C 316.184 467.519 316.677 467.327 317.118 467.024 C 317.352 466.862 317.543 466.707 317.843 466.708 C 318.327 466.708 318.870 466.868 319.363 466.921 C 319.986 466.987 320.623 467.129 321.231 467.278 C 321.733 467.401 322.099 467.561 322.606 467.631 C 323.037 467.691 323.695 467.864 324.109 467.968 C 324.576 468.086 324.892 468.084 325.359 468.211 C 325.757 468.320 325.949 468.356 326.228 468.630 C 326.769 469.159 327.086 469.636 327.408 470.308 C 327.496 470.492 327.474 470.516 327.644 470.592 C 327.853 470.686 328.217 470.635 328.447 470.657 C 328.894 470.702 329.358 470.727 329.814 470.752 C 330.796 470.804 331.857 470.875 332.804 470.554 C 333.290 470.389 334.115 469.923 334.361 469.454 C 334.654 468.895 334.837 468.451 334.711 467.808 C 334.642 467.458 334.762 467.221 334.807 466.891 C 334.842 466.626 334.619 466.271 334.678 466.099 " transform="matrix(0.949999988079071, 0, 0, 0.949999988079071, -273.35, -276.4)"/>
    <path id="ShoeRight" fill="#0B1938" d="M 311.231 477.868 C 311.854 477.972 312.493 478.402 313.028 478.730 C 313.632 479.101 313.915 479.444 314.468 479.846 C 314.807 480.091 315.205 480.580 315.541 480.835 C 315.913 481.117 316.269 481.405 316.681 481.632 C 317.426 482.042 318.123 481.905 318.915 482.076 C 319.209 482.139 319.499 482.276 319.743 482.463 C 320.038 482.691 319.985 482.908 319.995 483.270 C 320.007 483.639 320.081 483.973 319.877 484.291 C 319.636 484.668 319.098 485.277 318.762 485.562 C 318.374 485.893 318.072 485.896 317.686 486.221 C 317.329 486.523 316.679 486.827 316.225 486.916 C 315.076 487.144 314.851 487.434 313.706 487.701 C 312.861 487.899 311.191 488.153 310.313 488.108 C 309.709 488.078 309.366 487.923 308.793 487.770 C 308.146 487.595 307.593 487.385 307.052 486.986 C 306.491 486.572 306.388 486.223 306.326 485.549 C 306.304 485.286 306.043 484.928 305.915 484.695 C 305.790 484.464 305.726 484.175 305.502 484.060 C 304.970 483.786 304.473 483.479 303.952 483.183 C 303.353 482.842 302.797 482.447 302.174 482.145 C 301.585 481.859 301.033 481.445 300.441 481.188 C 300.084 481.033 299.834 481.027 299.775 480.586 C 299.731 480.268 299.921 479.975 299.905 479.641 C 300.753 479.938 301.461 480.514 302.300 480.849 C 302.657 480.993 302.952 481.172 303.346 481.228 C 303.784 481.290 304.120 481.122 304.524 480.959 C 304.935 480.793 305.365 480.636 305.795 480.491 C 306.305 480.319 306.733 480.027 307.205 479.796 C 308.193 479.313 309.194 478.772 310.200 478.341 C 310.396 478.257 311.302 478.028 311.295 477.834 M 303.164 484.639 C 303.093 484.341 302.511 484.191 302.246 484.069 C 301.952 483.933 301.718 483.751 301.455 483.570 C 300.942 483.218 300.425 482.846 299.875 482.550 C 299.362 482.275 298.703 482.205 298.482 481.633 C 298.393 481.404 298.405 481.160 298.345 480.905 C 298.289 480.664 298.169 480.429 298.110 480.176 C 297.980 479.623 298.296 479.181 298.580 478.722 C 298.176 478.413 297.709 478.112 297.215 477.961 C 296.846 477.850 296.643 477.980 296.590 478.335 C 296.547 478.618 296.352 478.733 296.183 478.975 C 296.007 479.227 296.177 479.431 296.139 479.757 C 296.101 480.097 296.158 480.445 296.171 480.778 C 296.195 481.386 296.040 482 296.551 482.424 C 297.045 482.835 297.434 483.331 297.911 483.754 C 298.527 484.301 299.272 484.564 300.008 484.924 C 300.391 485.112 300.786 485.258 301.195 485.397 C 301.648 485.551 302.231 485.833 302.729 485.748 C 302.977 485.705 303.125 485.566 303.196 485.305 C 303.240 485.147 303.243 484.656 303.101 484.609 " transform="matrix(0.949999988079071, 0, 0, 0.949999988079071, -273.35, -276.4)"/>
    <path id="ShoeTrimRight" fill="#A2C6DD" d="M 319.618 482.202 C 320.238 482.170 321.092 482.459 321.674 482.653 C 322.280 482.857 322.793 483.382 322.941 484.007 C 323.360 485.778 321.762 487.554 320.282 488.337 C 319.889 488.544 319.496 488.641 319.144 488.919 C 318.797 489.193 318.426 489.407 318.037 489.615 C 317.186 490.067 316.238 490.178 315.341 490.517 C 314.403 490.871 313.510 491.218 312.505 491.252 C 311.812 491.276 311.078 491.458 310.379 491.348 C 310.120 491.308 309.879 491.186 309.620 491.102 C 309.263 490.986 308.871 490.771 308.513 490.621 C 308.239 490.507 308.036 490.465 307.817 490.272 C 307.538 490.028 307.227 489.852 306.930 489.632 C 306.333 489.193 305.875 488.741 305.198 488.381 C 304.562 488.042 304.016 487.703 303.331 487.463 C 302.296 487.100 301.224 486.723 300.160 486.546 C 299.117 486.371 297.763 486.134 297.004 485.359 C 296.575 484.923 296.426 484.514 296.426 483.912 C 296.426 483.625 296.413 483.396 296.338 483.121 C 296.271 482.876 296.134 482.590 296.177 482.334 C 296.870 482.516 297.413 483.251 297.943 483.684 C 298.610 484.226 299.579 484.543 300.354 484.917 C 300.956 485.207 301.433 485.462 302.123 485.462 C 302.329 485.462 302.854 485.605 303.011 485.526 C 303.241 485.410 303.133 485.038 303.078 484.829 C 302.949 484.333 302.208 484.050 301.774 483.792 C 301.201 483.451 300.692 483.082 300.097 482.780 C 299.727 482.592 299.404 482.323 299.045 482.107 C 298.779 481.948 298.544 481.869 298.411 481.571 C 298.219 481.139 298.140 480.532 298.135 480.050 C 298.131 479.673 298.244 478.727 298.704 478.761 C 298.873 478.774 299.118 479.024 299.273 479.101 C 299.414 479.171 299.862 479.264 299.930 479.417 C 300.001 479.570 299.655 479.932 299.621 480.177 C 299.520 480.915 300.174 481.207 300.735 481.505 C 301.439 481.881 302.156 482.217 302.847 482.606 C 303.508 482.979 304.127 483.392 304.778 483.777 C 305.228 484.042 305.759 484.144 305.958 484.639 C 306.337 485.581 306.403 486.660 307.404 487.226 C 308.773 488 309.793 488.261 311.328 488.114 C 312.090 488.041 312.967 487.884 313.708 487.702 C 314.866 487.419 316.219 486.830 317.309 486.348 C 317.687 486.181 317.788 486.064 318.069 485.818 C 318.313 485.603 318.657 485.486 318.923 485.306 C 319.374 484.998 319.467 484.671 319.738 484.228 C 319.997 483.806 320.540 482.458 319.714 482.267 " transform="matrix(0.949999988079071, 0, 0, 0.949999988079071, -273.35, -276.4)"/>
    <path id="linesShoeLeft" fill="#010101" d="M 311.758 477.927 C 311.561 477.847 311.235 477.906 311.577 478.046 C 313.339 478.767 314.389 480.163 315.921 481.229 C 316.451 481.598 317.036 481.993 317.684 482.129 C 319.015 482.409 321.721 482.210 322.433 483.485 C 323.528 485.449 321.712 486.935 320.207 487.984 C 318.195 489.386 315.933 490.374 313.540 490.922 C 311.459 491.399 309.639 491.493 307.892 490.012 C 307.203 489.429 306.485 488.931 305.693 488.494 C 304.190 487.668 302.441 487.106 300.789 486.675 C 299.885 486.440 298.835 486.383 298.006 485.941 C 296.949 485.378 296.742 484.479 296.553 483.394 C 296.288 481.876 295.970 479.358 297.101 478.075 C 297.182 477.983 296.697 477.800 296.610 477.897 C 295.307 479.376 295.750 482.387 296.200 484.126 C 296.603 485.682 297.857 486.202 299.311 486.515 C 302.588 487.217 305.408 488.370 308.028 490.476 C 309.449 491.619 311.324 491.673 313.047 491.325 C 315.832 490.762 318.650 489.758 320.914 487.997 C 322.437 486.813 324.238 485.265 322.736 483.303 C 322.293 482.722 321.552 482.497 320.875 482.346 C 319.119 481.952 317.542 482.242 316.007 480.971 C 314.588 479.797 313.476 478.629 311.758 477.927 L 311.758 477.927 Z M 302.954 485.747 C 303.307 485.741 303.216 485.347 302.912 485.351 C 300.369 485.394 298.071 483.827 296.401 482.056 C 296.235 481.879 295.735 481.979 295.963 482.220 C 297.756 484.122 300.229 485.793 302.954 485.747 L 302.954 485.747 Z M 319.307 482.213 C 318.969 482.167 319.414 482.391 319.537 482.410 C 320.500 482.542 319.178 484.638 318.930 484.947 C 318.089 485.998 316.654 486.628 315.409 487.043 C 313.812 487.575 312.051 488.094 310.348 488.008 C 309.750 487.978 306.902 487.450 306.613 486.320 C 306.460 485.717 306.179 484.988 306.145 484.377 C 306.137 484.231 305.621 484.175 305.624 484.236 C 305.659 484.858 305.845 486.225 306.356 486.648 C 307.045 487.217 307.918 487.610 308.757 487.908 C 310.739 488.608 313.125 488.087 315.055 487.488 C 316.916 486.911 319.010 486.137 319.955 484.301 C 320.488 483.266 320.589 482.390 319.307 482.213 L 319.307 482.213 Z M 305.556 484.402 C 305.678 484.504 306.200 484.516 305.972 484.328 C 305.206 483.696 304.227 483.308 303.369 482.813 C 302.255 482.168 301.150 481.521 300.001 480.940 C 299.838 480.859 299.368 480.923 299.681 481.082 C 300.698 481.595 301.677 482.160 302.661 482.729 C 303.587 483.265 304.732 483.723 305.556 484.402 L 305.556 484.402 Z M 302.942 484.684 C 303.108 484.789 303.563 484.719 303.265 484.531 C 301.813 483.613 300.356 482.705 298.853 481.873 C 298.685 481.778 298.222 481.855 298.530 482.025 C 300.035 482.856 301.490 483.766 302.942 484.684 L 302.942 484.684 Z M 298.466 481.980 C 298.527 482.097 298.908 482.135 298.856 482.034 C 298.413 481.173 298.082 479.712 298.691 478.861 C 298.777 478.740 298.399 478.612 298.327 478.713 C 297.695 479.594 298.006 481.087 298.466 481.980 L 298.466 481.980 Z M 299.659 480.987 C 299.698 481.097 300.081 481.146 300.047 481.049 C 299.884 480.589 299.925 480.125 300.099 479.676 C 300.137 479.581 299.751 479.460 299.709 479.571 C 299.530 480.033 299.492 480.516 299.659 480.987 L 299.659 480.987 Z M 302.928 485.564 C 302.930 485.720 303.324 485.791 303.322 485.602 C 303.318 485.302 303.268 484.991 303.346 484.697 C 303.389 484.533 302.998 484.428 302.954 484.593 C 302.871 484.907 302.924 485.244 302.928 485.564 L 302.928 485.564 Z " transform="matrix(0.949999988079071, 0, 0, 0.949999988079071, -273.35, -276.4)"/>
    <path id="linesShoeRight" fill="#010101" d="M 325.068 462.450 C 324.961 462.385 324.432 462.349 324.662 462.486 C 327.555 464.237 330.814 465.400 334.118 466.091 C 335.260 466.330 336.200 466.315 336.637 467.579 C 336.881 468.284 337.046 469.049 336.902 469.797 C 336.595 471.379 335.472 472.593 333.928 473.086 C 332.101 473.670 330.141 473.579 328.248 473.489 C 326.375 473.400 324.473 473.478 322.666 472.899 C 321.520 472.531 320.418 472.063 319.309 471.599 C 318.763 471.371 318.180 471.043 317.586 470.951 C 316.253 470.744 313.785 471.790 312.761 470.719 C 312.665 470.619 312.158 470.565 312.283 470.696 C 313.116 471.566 314.235 471.512 315.351 471.328 C 316.874 471.073 318.119 471.331 319.542 471.929 C 320.410 472.295 321.280 472.668 322.178 472.956 C 324.023 473.548 325.761 473.601 327.677 473.692 C 329.547 473.781 331.429 473.891 333.284 473.582 C 336.733 473.007 338.487 469.790 336.673 466.717 C 336.391 466.238 336.277 466.282 335.745 466.194 C 334.599 466.002 333.460 465.767 332.340 465.457 C 329.801 464.754 327.328 463.818 325.068 462.450 L 325.068 462.450 Z M 335 466.159 C 334.982 465.958 334.455 465.867 334.477 466.104 C 334.551 466.945 334.801 467.924 334.380 468.713 C 333.921 469.573 333.180 470.272 332.199 470.487 C 330.619 470.837 329.047 470.486 327.457 470.417 C 327.099 470.401 327.242 470.733 327.518 470.745 C 329.330 470.824 331.634 471.474 333.325 470.492 C 335.099 469.461 335.168 468.038 335 466.159 L 335 466.159 Z M 327.244 470.586 C 327.326 470.731 327.849 470.790 327.728 470.578 C 327.289 469.801 326.708 469.126 326.156 468.430 C 326.052 468.299 325.529 468.258 325.672 468.438 C 326.225 469.134 326.805 469.810 327.244 470.586 L 327.244 470.586 Z M 325.990 468.656 C 326.304 468.753 326.378 468.460 326.068 468.364 C 323.300 467.511 320.345 466.922 317.468 466.586 C 317.109 466.544 317.265 466.875 317.530 466.905 C 320.355 467.235 323.276 467.820 325.990 468.656 L 325.990 468.656 Z M 315.235 467.510 C 314.964 467.525 315.441 467.752 315.567 467.746 C 316.668 467.687 318.067 468.182 319.094 468.455 C 320.708 468.886 322.308 469.358 323.931 469.759 C 324.238 469.834 324.291 469.641 323.982 469.565 C 321.855 469.042 319.764 468.375 317.625 467.904 C 316.882 467.740 316.002 467.471 315.235 467.510 L 315.235 467.510 Z M 324.809 471.025 C 325.100 470.985 324.643 470.731 324.488 470.753 C 322.327 471.047 320.119 469.755 318.023 469.438 C 316.896 469.266 313.895 469.753 313.591 468.315 C 313.554 468.146 313.030 468.059 313.070 468.246 C 313.398 469.800 316.077 469.625 317.236 469.642 C 319.800 469.680 322.209 471.379 324.809 471.025 L 324.809 471.025 Z M 324.568 470.897 C 324.627 471.006 325 471.040 324.957 470.957 C 324.728 470.529 324.562 470.071 324.290 469.668 C 324.230 469.579 323.844 469.526 323.932 469.655 C 324.192 470.042 324.350 470.486 324.568 470.897 L 324.568 470.897 Z " transform="matrix(0.949999988079071, 0, 0, 0.949999988079071, -273.35, -276.4)"/>
    <path id="linesPants" fill="#010101" d="M 322.682 401.698 C 322.852 401.640 322.382 401.442 322.256 401.484 C 321.347 401.796 320.281 402.019 319.608 402.764 C 318.558 403.927 318.124 405.585 317.682 407.046 C 317.643 407.174 318.162 407.321 318.203 407.187 C 318.630 405.777 319.060 403.879 320.206 402.840 C 320.901 402.210 321.813 401.996 322.682 401.698 L 322.682 401.698 Z M 320.137 403.076 C 320.151 402.840 319.624 402.761 319.609 403.038 C 319.455 405.713 319.023 408.356 318.522 410.984 C 318.090 413.249 317.764 415.572 317.166 417.798 C 316.535 420.146 315.646 422.402 314.851 424.696 C 314.251 426.427 313.420 428.392 313.420 430.246 C 313.420 430.485 313.948 430.561 313.948 430.284 C 313.948 428.031 315.104 425.555 315.860 423.469 C 316.631 421.345 317.447 419.208 317.915 416.991 C 318.880 412.421 319.868 407.748 320.137 403.076 L 320.137 403.076 Z M 300.818 410.169 C 300.825 410.020 300.301 409.934 300.297 410.029 C 300.045 415.894 301.451 421.675 301.562 427.531 C 301.584 428.714 301.669 430.031 301.159 431.138 C 300.852 431.802 300.189 432.411 299.997 433.113 C 299.715 434.141 299.953 435.232 299.701 436.278 C 299.426 437.422 299.109 438.506 299.125 439.693 C 299.126 439.847 299.646 439.922 299.646 439.834 C 299.629 438.488 300.116 437.315 300.306 436.006 C 300.435 435.121 300.143 433.888 300.592 433.078 C 301.039 432.271 301.680 431.602 301.887 430.670 C 302.144 429.513 302.110 428.348 302.071 427.169 C 301.878 421.488 300.574 415.862 300.818 410.169 L 300.818 410.169 Z M 314.702 439.204 C 314.705 439.409 315.230 439.504 315.225 439.255 C 315.182 436.740 316.285 434.351 316.192 431.843 C 316.106 429.511 315.284 427.292 315.225 424.956 C 315.221 424.752 314.695 424.657 314.702 424.905 C 314.766 427.518 315.920 430.067 315.632 432.693 C 315.392 434.879 314.663 436.990 314.702 439.204 L 314.702 439.204 Z M 326.089 414.019 C 326.087 414.207 326.610 414.313 326.611 414.079 C 326.672 409.451 328.507 405.140 328.634 400.513 C 328.743 396.532 328.253 392.634 327.861 388.682 C 327.841 388.489 327.315 388.395 327.338 388.624 C 327.760 392.863 328.365 397.097 328.066 401.369 C 327.765 405.663 326.145 409.692 326.089 414.019 L 326.089 414.019 Z M 325.578 450.528 C 325.656 450.359 325.144 450.198 325.057 450.390 C 323.966 452.750 323.565 455.824 321.835 457.804 C 321.205 458.525 320.623 459.397 319.811 459.927 C 318.560 460.740 317.076 460.867 315.619 460.924 C 315.266 460.937 315.609 461.243 315.817 461.236 C 317.143 461.185 318.649 461.112 319.833 460.428 C 320.717 459.917 321.329 459.167 321.983 458.401 C 322.869 457.362 323.423 456.447 323.852 455.126 C 324.361 453.558 324.885 452.029 325.578 450.528 L 325.578 450.528 Z M 325.057 450.931 C 325.108 451.111 325.633 451.187 325.578 450.995 C 324.606 447.532 325.229 443.942 325.308 440.411 C 325.390 436.770 325.519 433.156 325.811 429.525 C 326.265 423.853 326.425 418.224 326.675 412.546 C 326.685 412.342 326.161 412.235 326.154 412.406 C 326.040 415.012 326.017 417.619 325.937 420.225 C 325.836 423.458 325.498 426.682 325.249 429.906 C 324.957 433.673 324.944 437.432 324.751 441.201 C 324.585 444.436 324.168 447.763 325.057 450.931 L 325.057 450.931 Z M 323.533 455.979 C 323.500 455.837 322.984 455.755 323.017 455.895 C 323.287 457.051 323.437 458.388 324.161 459.367 C 324.842 460.286 325.510 461.454 324.432 462.405 C 323.804 462.960 323.097 463.383 322.356 463.770 C 318.924 465.573 315.703 468.169 311.668 468.264 C 311.400 468.271 311.878 468.499 312 468.496 C 316.075 468.399 319.393 465.812 322.846 463.955 C 324.087 463.287 326.389 462.045 325.267 460.291 C 324.804 459.566 324.291 458.943 324.053 458.099 C 323.854 457.397 323.698 456.688 323.533 455.979 L 323.533 455.979 Z M 299.629 439.552 C 299.606 439.324 299.075 439.247 299.103 439.508 C 299.157 440.023 298.928 440.773 298.863 441.295 C 298.779 441.975 298.689 442.652 298.593 443.329 C 298.401 444.685 298.191 446.039 298.046 447.401 C 297.923 448.566 297.879 449.719 297.837 450.889 C 297.786 452.341 297.451 453.666 297.264 455.092 C 296.911 457.783 297.242 460.353 297.697 463.009 C 298.108 465.427 299.103 467.773 299.268 470.220 C 299.284 470.449 299.813 470.528 299.794 470.263 C 299.701 468.886 299.307 467.607 298.924 466.288 C 298.565 465.052 298.357 463.809 298.132 462.545 C 297.648 459.827 297.339 457.039 297.947 454.309 C 298.516 451.752 298.348 449.121 298.687 446.531 C 298.866 445.170 299.076 443.812 299.253 442.450 C 299.372 441.554 299.722 440.438 299.629 439.552 L 299.629 439.552 Z M 298.308 463.673 C 298.298 463.469 297.772 463.375 297.784 463.620 C 297.890 465.745 296.899 467.568 296.320 469.553 C 295.845 471.181 295.344 472.925 295.474 474.641 C 295.533 475.421 295.642 476.211 295.952 476.937 C 296.262 477.665 296.839 477.808 297.514 478.217 C 299.031 479.134 300.550 480.354 302.177 481.058 C 303.187 481.495 304.110 481.535 305.125 481.042 C 307.011 480.127 308.760 478.984 310.742 478.264 C 311.524 477.981 314.890 477.614 314.347 476.268 C 314.273 476.083 313.750 476.044 313.856 476.304 C 314.188 477.127 312.094 477.469 311.604 477.589 C 310.715 477.807 309.863 478.145 309.032 478.527 C 307.685 479.145 306.435 479.932 305.105 480.578 C 303.032 481.584 301.238 480.112 299.524 479.050 C 298.067 478.146 296.353 477.512 296.094 475.602 C 295.887 474.072 296.069 472.557 296.459 471.069 C 297.098 468.632 298.437 466.239 298.308 463.673 L 298.308 463.673 Z M 310.280 466.945 C 310.240 467.042 310.748 467.212 310.803 467.084 C 311.491 465.435 313.576 464.270 313.540 462.318 C 313.494 459.816 311.645 457.789 312.617 455.219 C 313.099 453.944 313.839 452.776 314.288 451.490 C 314.758 450.142 315.049 448.748 315.149 447.323 C 315.343 444.583 315.121 441.844 315.106 439.102 C 315.105 438.952 314.584 438.877 314.585 438.963 C 314.602 441.849 314.918 444.778 314.585 447.657 C 314.423 449.058 314.171 450.495 313.592 451.793 C 313.105 452.883 312.461 453.937 312.096 455.077 C 311.733 456.210 311.642 457.328 312.023 458.470 C 312.439 459.721 313.252 461.164 312.989 462.522 C 312.639 464.334 310.965 465.305 310.280 466.945 L 310.280 466.945 Z M 309.891 464.602 C 309.934 464.367 309.412 464.234 309.370 464.463 C 308.998 466.520 311.145 467.275 311.837 468.922 C 312.406 470.284 312.454 471.862 312.696 473.306 C 312.892 474.473 313.359 475.494 313.853 476.560 C 313.945 476.756 314.470 476.774 314.348 476.511 C 313.740 475.199 313.305 473.953 313.096 472.519 C 312.933 471.398 312.773 470.282 312.459 469.191 C 311.957 467.441 309.521 466.647 309.891 464.602 L 309.891 464.602 Z " transform="matrix(0.949999988079071, 0, 0, 0.949999988079071, -273.35, -276.4)"/>
    <path id="linesArmLeft" fill="#010101" d="M 302.336 356.862 C 302.387 356.694 301.867 356.550 301.815 356.722 C 300.478 361.196 299.334 365.680 298.516 370.280 C 298.484 370.462 299.007 370.587 299.037 370.420 C 299.856 365.820 301.001 361.335 302.336 356.862 L 302.336 356.862 Z M 292.062 355.038 C 292.094 354.862 291.571 354.736 291.541 354.898 C 290.723 359.324 290.111 363.732 289.805 368.225 C 289.792 368.411 290.316 368.516 290.326 368.365 C 290.633 363.872 291.245 359.464 292.062 355.038 L 292.062 355.038 Z M 298.201 368.339 C 298.152 368.203 297.648 368.145 297.686 368.250 C 298.195 369.654 298.905 370.976 299.408 372.379 C 299.985 373.991 300.074 375.649 299.991 377.350 C 299.837 380.513 299.493 383.567 299.739 386.737 C 300.114 391.547 299.869 396.904 303.253 400.766 C 303.338 400.862 303.838 400.929 303.727 400.800 C 300.187 396.761 300.449 390.661 300.147 385.610 C 299.954 382.381 300.637 379.191 300.533 375.967 C 300.441 373.144 299.142 370.939 298.201 368.339 L 298.201 368.339 Z M 290.299 368.194 C 290.302 367.997 289.780 367.898 289.778 368.054 C 289.762 369.351 289.207 370.494 289.047 371.762 C 288.895 372.964 288.987 374.188 289.235 375.372 C 289.780 377.977 290.734 380.490 291.505 383.033 C 292.307 385.680 293.230 388.290 293.933 390.968 C 294.626 393.615 295.043 396.278 295.614 398.947 C 295.652 399.121 296.176 399.206 296.135 399.016 C 295.564 396.344 295.156 393.682 294.453 391.036 C 293.743 388.360 292.810 385.755 292.025 383.101 C 291.274 380.563 290.233 378.050 289.755 375.441 C 289.519 374.145 289.335 372.776 289.649 371.476 C 289.914 370.380 290.285 369.333 290.299 368.194 L 290.299 368.194 Z M 304.147 403.753 C 304.064 403.594 303.541 403.543 303.661 403.772 C 304.365 405.117 304.743 406.538 305.105 408.001 C 305.245 408.566 305.890 410.074 305.385 410.599 C 304.065 411.969 303.338 409.903 302.903 408.844 C 302.512 407.894 302.160 406.929 301.748 405.989 C 301.676 405.825 301.154 405.767 301.261 406.008 C 302.070 407.854 302.603 409.812 303.908 411.389 C 303.999 411.498 304.169 411.564 304.310 411.527 C 305.379 411.255 306.286 410.883 306.007 409.631 C 305.565 407.626 305.104 405.579 304.147 403.753 L 304.147 403.753 Z M 303.515 410.652 C 303.869 410.652 303.759 410.282 303.465 410.282 C 302.776 410.282 302.086 410.282 301.396 410.282 C 301.042 410.282 301.152 410.652 301.446 410.652 C 302.136 410.652 302.825 410.652 303.515 410.652 L 303.515 410.652 Z M 301.173 410.410 C 301.295 410.586 301.827 410.588 301.668 410.360 C 300.925 409.288 300.529 408.085 300.055 406.881 C 299.975 406.678 299.452 406.659 299.559 406.932 C 300.032 408.136 300.428 409.339 301.173 410.410 L 301.173 410.410 Z M 301.105 410.212 C 301.458 410.215 301.117 409.896 300.907 409.893 C 300.285 409.889 299.660 409.825 299.058 409.663 C 298.743 409.577 298.666 409.864 298.982 409.948 C 299.675 410.136 300.389 410.206 301.105 410.212 L 301.105 410.212 Z M 298.944 409.887 C 299.039 410.011 299.560 410.064 299.426 409.889 C 298.708 408.956 298.523 407.819 298.286 406.696 C 298.251 406.531 297.728 406.444 297.766 406.623 C 298.010 407.773 298.209 408.933 298.944 409.887 L 298.944 409.887 Z M 298.943 409.407 C 299.191 409.407 298.701 409.209 298.601 409.209 C 298.138 409.209 297.572 409.271 297.208 408.922 C 296.765 408.495 296.595 407.866 296.461 407.286 C 296.433 407.167 295.926 407.094 295.948 407.189 C 296.118 407.926 296.371 408.755 297.101 409.115 C 297.677 409.398 298.316 409.407 298.943 409.407 L 298.943 409.407 Z M 295.941 407.222 C 295.985 407.470 296.519 407.530 296.470 407.254 C 296.206 405.786 295.596 404.294 295.642 402.785 C 295.683 401.473 296.014 400.203 296.057 398.893 C 296.065 398.644 295.536 398.573 295.527 398.860 C 295.479 400.310 294.982 401.760 295.129 403.215 C 295.268 404.579 295.699 405.878 295.941 407.222 L 295.941 407.222 Z M 303.831 400.702 C 303.747 400.571 303.271 400.544 303.316 400.613 C 303.833 401.425 304.529 402.019 304.598 403.043 C 304.652 403.832 304.610 404.618 304.430 405.390 C 304.399 405.520 304.923 405.653 304.951 405.530 C 305.148 404.694 305.237 403.753 305.087 402.901 C 304.926 401.978 304.316 401.463 303.831 400.702 L 303.831 400.702 Z " transform="matrix(0.949999988079071, 0, 0, 0.949999988079071, -273.35, -276.4)"/>
    <path id="linesArmRight" fill="#010101" d="M 326.016 356.294 C 326.013 356.153 325.494 356.089 325.495 356.154 C 325.611 360.545 325.955 364.866 326.574 369.216 C 326.595 369.366 327.101 369.402 327.095 369.356 C 326.477 365.006 326.132 360.685 326.016 356.294 L 326.016 356.294 Z M 326.957 368.370 C 326.871 368.237 326.391 368.207 326.441 368.285 C 328.334 371.213 329.257 373.999 329.300 377.500 C 329.337 380.527 329.114 383.567 329.510 386.579 C 329.529 386.714 330.046 386.814 330.027 386.664 C 329.589 383.348 329.961 380.017 329.793 376.690 C 329.636 373.559 328.656 371 326.957 368.370 L 326.957 368.370 Z M 330.020 386.587 C 329.915 386.371 329.386 386.382 329.519 386.655 C 330.891 389.461 333.074 391.572 332.157 394.939 C 331.628 396.879 330.795 398.906 329.824 400.666 C 329.687 400.913 330.182 401.113 330.300 400.899 C 331.382 398.939 332.562 396.453 332.857 394.213 C 333.260 391.147 331.285 389.179 330.020 386.587 L 330.020 386.587 Z M 328.877 396.215 C 328.870 396.075 328.354 396.018 328.356 396.076 C 328.418 397.355 328.246 399.533 329.951 399.861 C 330.674 400 330.626 399.074 330.643 398.584 C 330.693 397.218 330.673 395.877 331.182 394.584 C 331.214 394.502 330.703 394.334 330.661 394.445 C 330.325 395.299 330.194 396.176 330.163 397.091 C 330.142 397.762 330.288 398.733 330.032 399.362 C 329.782 399.978 329.190 399.021 329.096 398.698 C 328.859 397.875 328.917 397.058 328.877 396.215 L 328.877 396.215 Z M 328.406 396.220 C 328.405 396.373 328.927 396.452 328.927 396.360 C 328.935 395.378 328.466 394.496 328.388 393.527 C 328.374 393.367 327.860 393.309 327.867 393.387 C 327.945 394.355 328.414 395.240 328.406 396.220 L 328.406 396.220 Z M 330.396 400.846 C 330.631 400.659 330.174 400.404 329.994 400.547 C 329.558 400.891 329.037 401.036 328.486 401.047 C 328.375 401.049 328.275 401.155 328.328 401.265 C 328.389 401.392 328.541 401.427 328.668 401.424 C 329.287 401.412 329.906 401.233 330.396 400.846 L 330.396 400.846 Z " transform="matrix(0.949999988079071, 0, 0, 0.949999988079071, -273.35, -276.4)"/>
    <path id="linesShirt" fill="#010101" d="M 306.130 327.383 C 306.281 327.341 305.756 327.650 305.636 327.683 C 301.623 329.863 295.497 332.915 293.575 336.424 C 293.112 338.063 292.985 338.833 292.732 340.017 C 292.381 341.663 292.141 343.329 291.796 344.975 C 291.242 347.624 290.371 349.797 288.707 351.921 C 288.668 351.971 289.130 352.187 289.228 352.061 C 290.884 349.948 291.794 347.761 292.318 345.115 C 292.845 342.449 293.153 339.232 294.047 336.659 C 298.329 331.095 302.882 330.016 305.373 328.282 L 306.130 327.383 Z M 316.193 331.697 C 316.010 331.585 315.561 331.694 315.862 331.879 C 316.971 332.560 318.070 333.249 319.094 334.056 C 320.237 334.956 321.945 336.063 322.659 337.357 C 323.776 339.378 323.653 341.884 323.775 344.127 C 323.872 345.926 324.018 347.492 324.804 349.141 C 325.602 350.814 326.631 352.271 327.592 353.843 C 327.691 354.004 328.219 354.040 328.082 353.816 C 326.934 351.939 325.603 350.199 324.857 348.095 C 324.197 346.231 324.272 344.140 324.177 342.186 C 324.083 340.263 323.999 337.778 322.408 336.404 C 320.416 334.680 318.445 333.080 316.193 331.697 L 316.193 331.697 Z M 328.100 353.898 C 328.178 353.742 327.670 353.575 327.579 353.758 C 326.731 355.466 324.128 357.953 322.071 357.634 C 321.712 357.578 321.889 357.890 322.141 357.929 C 324.431 358.286 327.160 355.790 328.100 353.898 L 328.100 353.898 Z M 322.997 343.977 C 322.985 343.835 322.591 343.763 322.605 343.933 C 322.892 347.338 322.459 350.748 322.205 354.143 C 321.997 356.915 321.525 359.704 321.910 362.480 C 321.930 362.623 322.324 362.690 322.302 362.525 C 321.860 359.326 322.442 355.979 322.694 352.778 C 322.925 349.837 323.246 346.927 322.997 343.977 L 322.997 343.977 Z M 322.146 352.594 C 322.147 352.454 321.755 352.385 321.755 352.489 C 321.734 355.325 321.696 358.130 321.827 360.967 C 321.962 363.908 322.609 366.991 323.406 369.822 C 323.839 371.360 324.341 372.892 325.040 374.332 C 325.663 375.610 326.597 376.817 326.985 378.191 C 327.809 381.098 325.698 383.253 324.399 385.634 C 324.348 385.728 324.723 385.861 324.790 385.739 C 325.933 383.645 328.227 381.252 327.489 378.652 C 327.093 377.251 326.268 376.113 325.639 374.818 C 325.008 373.523 324.473 372.185 324.063 370.804 C 323.182 367.839 322.378 364.562 322.235 361.461 C 322.101 358.499 322.124 355.556 322.146 352.594 L 322.146 352.594 Z M 289.211 351.986 C 289.113 351.847 288.588 351.801 288.726 351.997 C 290.367 354.335 293.294 356.651 296.183 357.139 C 298.337 357.503 301.596 357.694 303.374 356.160 C 303.516 356.037 303.030 355.836 302.891 355.956 C 301.246 357.373 297.917 357.286 295.928 356.812 C 293.314 356.190 290.732 354.154 289.211 351.986 L 289.211 351.986 Z M 305.697 346.762 C 305.747 346.741 305.345 346.525 305.206 346.586 C 302.176 347.912 302.390 353.207 302.854 355.885 C 302.875 356.008 303.386 356.095 303.367 355.979 C 302.909 353.333 302.720 348.065 305.697 346.762 L 305.697 346.762 Z M 305.716 328.043 C 305.651 327.916 305.172 327.886 305.204 327.946 C 306.781 331.050 308.068 334.338 309.730 337.392 C 310.638 339.062 312.019 341.271 314.008 341.770 C 315.890 342.242 318.204 341.746 318.740 339.553 C 319.370 336.976 317.731 333.916 316.195 331.976 C 316.101 331.857 315.659 331.850 315.682 331.880 C 317.028 333.579 318.412 336.053 318.362 338.314 C 318.301 341.059 315.140 343.074 312.844 340.910 C 310.962 339.137 310 336.979 308.931 334.680 C 307.896 332.450 306.829 330.235 305.716 328.043 L 305.716 328.043 Z M 327.055 382.040 C 327.054 381.903 326.534 381.834 326.534 381.900 C 326.538 384.126 329.292 386.958 327.231 388.838 C 327.168 388.896 327.627 389.097 327.723 389.010 C 329.830 387.088 327.059 384.275 327.055 382.040 L 327.055 382.040 Z M 310.981 395.167 C 311.332 395.151 310.947 394.894 310.770 394.903 C 305.771 395.127 302.667 390.969 300.267 387.165 C 300.186 387.038 299.668 386.970 299.787 387.158 C 302.352 391.219 305.707 395.403 310.981 395.167 L 310.981 395.167 Z M 327.807 388.777 C 328.018 388.640 327.536 388.431 327.393 388.525 C 325.334 389.861 323.223 391.112 321.112 392.362 C 319.178 393.507 317.359 394.848 315.363 395.888 C 313.028 397.104 310.479 398.010 307.805 397.738 C 305.347 397.487 303.111 396.652 300.976 395.433 C 300.807 395.336 300.347 395.414 300.654 395.589 C 304.690 397.894 309.335 398.923 313.765 397.085 C 316.257 396.051 318.458 394.523 320.734 393.097 C 323.075 391.630 325.488 390.283 327.807 388.777 L 327.807 388.777 Z " transform="matrix(0.949999988079071, 0, 0, 0.949999988079071, -273.35, -276.4)"/>
    <path id="linesHead" fill="#010101" d="M 305.876 317.842 C 305.936 317.716 305.553 317.594 305.486 317.737 C 304.177 320.518 301.719 317.104 301.083 315.706 C 300.849 315.193 300.319 314.248 300.484 313.642 C 300.820 312.402 301.487 311.633 302.914 311.938 C 303.150 311.989 303.211 311.780 302.970 311.729 C 301.825 311.483 300.708 311.727 300.275 312.954 C 299.838 314.186 300.503 315.421 301.114 316.499 C 302.035 318.129 304.652 320.444 305.876 317.842 L 305.876 317.842 Z M 301.778 316.061 C 301.851 316.028 301.980 316.082 302.062 316.184 C 302.008 316.261 302.855 317.108 303.973 316.796 C 304.496 316.676 305.072 316.530 305.463 316.727 C 305.822 317.013 305.541 317.362 305.605 317.336 C 305.549 317.366 305.784 316.992 305.441 316.767 C 305.075 316.610 304.522 316.780 304.010 316.936 C 302.863 317.366 301.772 316.473 301.825 316.356 C 301.725 316.227 301.704 316.094 301.778 316.061 Z M 304.961 315.081 C 304.917 315.148 304.773 315.115 304.644 315.007 C 304.502 315.035 303.801 313.922 302.808 313.352 C 302.272 313.158 301.620 313.245 301.296 313.536 C 300.974 313.851 301.088 314.211 301.054 314.194 C 301.091 314.210 300.947 313.860 301.265 313.504 C 301.591 313.177 302.256 313.040 302.858 313.215 C 303.998 313.791 304.699 314.825 304.827 314.780 C 304.945 314.878 305.006 315.013 304.961 315.081 Z M 301.931 311.727 C 301.619 311.794 302.029 312.105 302.238 312.060 C 304.013 311.682 305.317 313.853 305.987 315.188 C 306.083 315.379 306.611 315.397 306.482 315.141 C 305.634 313.453 304.102 311.265 301.931 311.727 L 301.931 311.727 Z M 325.563 314.742 C 325.622 314.894 326.132 314.956 326.081 314.821 C 325.709 313.863 325.932 312.378 325.992 311.367 C 326.072 310.043 326.396 308.957 325.820 307.669 C 325.754 307.519 325.247 307.464 325.302 307.591 C 325.929 308.992 325.490 310.298 325.448 311.739 C 325.424 312.632 325.229 313.883 325.563 314.742 L 325.563 314.742 Z M 320.264 328.936 C 320.364 328.915 320.028 328.774 319.940 328.792 C 316.462 329.525 312.500 327.661 309.843 325.503 C 307.461 323.568 306.175 321.199 305.864 318.130 C 305.852 318.019 305.469 317.986 305.473 318.025 C 305.865 321.876 307.902 324.513 311.042 326.615 C 313.559 328.301 317.245 329.572 320.264 328.936 L 320.264 328.936 Z M 321.580 316.341 C 321.615 316.378 321.742 316.367 321.687 316.310 C 320.546 315.128 320.992 311.855 322.101 310.767 C 322.143 310.726 322.019 310.675 321.982 310.712 C 320.850 311.822 320.410 315.128 321.580 316.341 L 321.580 316.341 Z M 322.080 317.072 C 321.994 316.986 321.502 316.922 321.609 317.029 C 322.240 317.664 323.249 318.477 322.867 319.494 C 322.638 320.107 321.954 320.056 321.480 320.442 C 321.408 320.501 321.864 320.706 321.972 320.617 C 322.564 320.135 323.472 320.266 323.470 319.255 C 323.470 318.320 322.688 317.684 322.080 317.072 L 322.080 317.072 Z M 321.242 320.243 C 321.316 320.230 321.091 320.130 321.029 320.141 C 320.497 320.236 319.884 320.772 319.334 320.473 C 318.770 320.166 318.858 319.494 319.265 319.101 C 319.307 319.061 319.070 318.964 319.020 319.012 C 318.497 319.517 318.587 320.249 319.264 320.544 C 320.010 320.869 320.533 320.370 321.242 320.243 L 321.242 320.243 Z M 315.670 328.760 C 315.766 328.581 315.393 328.438 315.312 328.589 C 314.732 329.676 315.172 330.956 315.753 331.949 C 315.838 332.095 316.236 332.095 316.126 331.907 C 315.591 330.992 315.130 329.773 315.670 328.760 L 315.670 328.760 Z M 325.931 314.654 C 325.684 314.539 325.387 314.758 325.713 314.909 C 326.518 315.282 326.002 317.606 325.899 318.219 C 325.704 319.385 325.444 320.543 325.104 321.676 C 324.467 323.799 323.608 326.004 322.223 327.741 C 322.077 327.925 322.577 328.116 322.703 327.956 C 324.328 325.917 325.298 323.242 325.923 320.724 C 326.215 319.548 327.568 315.413 325.931 314.654 L 325.931 314.654 Z M 322.823 327.752 C 322.905 327.655 322.533 327.520 322.458 327.608 C 321.826 328.354 320.783 328.634 319.849 328.750 C 319.639 328.776 319.993 328.950 320.095 328.937 C 321.066 328.818 322.166 328.529 322.823 327.752 L 322.823 327.752 Z M 306.637 321.354 C 306.615 321.201 306.218 321.138 306.244 321.313 C 306.451 322.679 306.711 324.125 306.413 325.498 C 306.214 326.417 305.825 327.249 305.486 328.121 C 305.428 328.268 305.815 328.382 305.876 328.226 C 306.330 327.061 306.864 325.961 306.911 324.685 C 306.952 323.559 306.806 322.466 306.637 321.354 L 306.637 321.354 Z " transform="matrix(0.949999988079071, 0, 0, 0.949999988079071, -273.35, -276.4)"/>
    <path id="linesMouth" fill="#010101" d="M 317.097 323.527 C 317.060 323.695 317.582 323.827 317.618 323.667 C 317.629 323.618 317.639 323.594 317.679 323.562 C 317.512 323.506 317.343 323.450 317.176 323.394 C 317.104 323.519 317.041 323.649 316.969 323.774 C 317.143 323.820 317.317 323.867 317.490 323.914 C 317.534 323.743 317.644 323.615 317.735 323.468 C 317.806 323.353 317.313 323.168 317.214 323.328 C 317.122 323.476 317.013 323.601 316.968 323.775 C 316.925 323.944 317.407 324.058 317.489 323.915 C 317.561 323.790 317.624 323.660 317.695 323.536 C 317.746 323.448 317.508 323.363 317.466 323.351 C 317.384 323.329 317.265 323.310 317.192 323.368 C 317.138 323.409 317.111 323.460 317.097 323.527 L 317.097 323.527 Z M 317.363 323.527 C 316.996 323.457 317.267 323.661 317.465 323.699 C 319.190 324.027 320.766 322.836 322.535 323.027 C 322.875 323.064 322.428 322.849 322.305 322.836 C 321.480 322.747 320.682 322.802 319.882 323.040 C 319.076 323.279 318.224 323.690 317.363 323.527 L 317.363 323.527 Z M 317.207 323.582 C 316.892 323.466 316.805 323.824 317.112 323.937 C 317.950 324.245 318.700 324.906 319.621 324.967 C 320.399 325.019 321.152 324.880 321.921 324.784 C 321.990 324.775 322.072 324.741 322.091 324.665 C 322.237 324.081 322.252 323.525 322.659 323.046 C 322.830 322.845 322.335 322.637 322.181 322.817 C 321.878 323.173 321.771 323.468 321.694 323.925 C 321.585 324.577 321.041 324.529 320.472 324.575 C 319.160 324.683 318.355 324.003 317.207 323.582 L 317.207 323.582 Z " transform="matrix(0.949999988079071, 0, 0, 0.949999988079071, -273.35, -276.4)"/>
    <path id="linesEyes" fill="#010101" d="M 316.656 314.428 C 316.721 314.609 317.246 314.675 317.178 314.489 C 316.511 312.655 310.355 311.434 310.565 314.080 C 310.757 316.509 316.117 316.651 317 314.678 C 317.076 314.509 316.563 314.348 316.479 314.538 C 315.804 316.047 311.254 316.246 311.100 314.297 C 310.913 311.952 316.074 312.826 316.656 314.428 L 316.656 314.428 Z M 313.575 313.001 C 313.631 312.867 313.245 312.750 313.184 312.897 C 312.175 315.330 316.522 316.234 316.351 313.702 C 316.341 313.561 315.948 313.487 315.958 313.658 C 316.020 314.560 315.331 315.234 314.413 314.962 C 313.506 314.692 313.230 313.833 313.575 313.001 L 313.575 313.001 Z M 320.963 314.785 C 320.984 314.908 321.496 314.998 321.478 314.878 C 321.335 314.004 321.879 313.171 322.545 312.651 C 323.115 312.207 324.698 311.339 324.927 312.589 C 325.061 313.319 324.419 313.930 323.854 314.280 C 323.268 314.642 322.106 315.237 321.420 314.825 C 321.327 314.769 320.803 314.705 321.022 314.837 C 321.867 315.344 322.958 315.163 323.805 314.753 C 324.544 314.394 326.038 313.359 325.295 312.357 C 323.900 310.478 320.652 312.875 320.963 314.785 L 320.963 314.785 Z M 322.592 312.527 C 322.574 312.412 322.309 312.376 322.328 312.506 C 322.447 313.279 322.640 314.278 323.676 314.018 C 324.625 313.779 324.701 312.706 324.379 311.931 C 324.335 311.826 324.072 311.822 324.130 311.959 C 324.362 312.518 324.436 313.539 323.711 313.789 C 322.779 314.111 322.694 313.196 322.592 312.527 L 322.592 312.527 Z " transform="matrix(0.949999988079071, 0, 0, 0.949999988079071, -273.35, -276.4)"/>
    <path id="linesEyebrows" fill="#010101" d="M 317.450 310.832 C 318.092 310.962 318.285 310.291 317.631 310.158 C 314.914 309.604 312.139 309.023 309.667 310.639 C 309.185 310.954 310.111 311.458 310.476 311.220 C 312.655 309.796 315.066 310.346 317.450 310.832 L 317.450 310.832 Z M 321.908 310.358 C 321.444 310.712 322.371 311.204 322.717 310.939 C 323.710 310.180 324.572 309.605 325.856 309.523 C 326.562 309.479 325.969 308.770 325.485 308.800 C 324.045 308.892 323.029 309.501 321.908 310.358 L 321.908 310.358 Z " transform="matrix(0.949999988079071, 0, 0, 0.949999988079071, -273.35, -276.4)"/>
    <path id="linesHair" fill="#010101" d="M 308.368 302.788 C 308.370 302.683 307.978 302.626 307.978 302.684 C 307.948 304.463 308.397 306.028 309.775 307.250 C 311.036 308.367 312.621 308.630 314.215 308.989 C 314.326 309.014 314.442 308.973 314.289 308.900 C 312.393 308.001 311.464 306.141 311.025 304.184 C 310.896 304.160 310.769 304.136 310.639 304.112 C 312.247 306.588 315.462 307.443 318.252 307.602 C 322.691 307.856 327.068 307.170 331.507 307.784 C 331.526 307.787 331.638 307.795 331.613 307.745 C 331.047 306.580 330.080 305.917 329.058 305.154 C 328.509 304.744 327.964 304.353 327.499 303.849 C 326.251 302.498 328.450 303.337 328.989 303.715 C 329.421 304.017 329.790 304.338 330.168 304.698 C 330.209 304.738 330.558 304.850 330.536 304.751 C 329.952 302.035 328.359 300.016 326.294 298.253 C 324.558 296.772 322.839 295.473 320.639 294.779 C 320.493 294.733 320.240 294.774 320.506 294.858 C 322.967 295.635 325.063 297.300 326.921 299.055 C 328.532 300.577 329.685 302.506 330.151 304.679 C 330.274 304.696 330.397 304.714 330.520 304.732 C 329.354 303.617 328.125 302.962 326.507 302.848 C 326.495 302.848 326.368 302.840 326.401 302.887 C 327.362 304.307 328.827 305.124 330.108 306.215 C 330.420 306.482 330.753 306.743 330.947 307.115 C 331.305 307.798 330.412 307.510 330.030 307.472 C 328.948 307.368 327.862 307.293 326.774 307.284 C 321.907 307.245 314.201 309.074 311.022 304.181 C 310.980 304.115 310.617 304.017 310.637 304.109 C 310.922 305.379 311.397 306.527 312.209 307.551 C 312.445 307.848 312.747 308.140 313.058 308.358 C 313.348 308.561 314.212 308.866 313.362 308.679 C 310.172 307.982 308.312 306.037 308.368 302.788 L 308.368 302.788 Z M 299.852 324.278 C 299.702 324.389 300.182 324.598 300.335 324.486 C 301.981 323.276 302.329 321.570 301.778 319.664 C 301.609 319.657 301.441 319.649 301.273 319.642 C 302.756 321.819 302.226 325.107 300.006 326.591 C 299.789 326.736 300.271 326.939 300.419 326.849 C 302.112 325.824 303.757 325.001 304.675 323.154 C 304.500 323.120 304.327 323.087 304.153 323.053 C 304.539 324.194 304.171 326.040 303.372 326.950 C 303.219 327.124 303.707 327.239 303.819 327.183 C 304.870 326.663 306.144 325.793 306.911 324.903 C 307.051 324.742 306.551 324.553 306.429 324.695 C 305.661 325.586 304.457 326.404 303.408 326.924 C 303.557 327.002 303.706 327.079 303.855 327.156 C 304.695 326.199 305.087 324.328 304.677 323.114 C 304.621 322.952 304.244 322.832 304.155 323.013 C 303.268 324.796 301.639 325.601 300.007 326.590 C 300.145 326.676 300.282 326.762 300.420 326.848 C 302.741 325.296 303.320 321.913 301.761 319.624 C 301.692 319.522 301.195 319.385 301.256 319.602 C 301.792 321.459 301.453 323.101 299.852 324.278 L 299.852 324.278 Z M 308.286 302.881 C 308.306 302.789 308.045 302.723 308.025 302.811 C 307.426 305.524 308.208 308.120 308.570 310.805 C 308.689 311.687 308.800 312.589 308.745 313.480 C 308.732 313.782 308.706 314.082 308.666 314.381 C 308.869 314.494 308.854 314.354 308.616 313.961 C 308.220 312.751 307.665 311.628 307.074 310.503 C 307.036 310.429 306.774 310.398 306.832 310.507 C 307.569 311.911 308.232 313.299 308.592 314.849 C 308.608 314.919 308.837 314.991 308.853 314.901 C 309.516 310.849 307.394 306.916 308.286 302.881 L 308.286 302.881 Z M 326.748 307.473 C 326.686 307.376 326.295 307.328 326.388 307.470 C 327.133 308.616 327.864 309.778 328.299 311.084 C 328.726 312.368 329.385 313.423 329.903 314.647 C 330.028 314.657 330.153 314.667 330.278 314.676 C 329.561 313.826 328.729 313.112 327.882 312.395 C 327.837 312.356 327.499 312.247 327.533 312.392 C 327.977 314.289 328.436 316.181 328.755 318.103 C 328.775 318.223 329.165 318.296 329.144 318.158 C 328.910 316.647 327.570 315.513 326.303 314.808 C 326.187 314.744 325.836 314.776 326.066 314.905 C 327.258 315.569 328.535 316.678 328.754 318.103 C 328.884 318.122 329.013 318.140 329.144 318.158 C 328.826 316.235 328.367 314.343 327.922 312.446 C 327.806 312.445 327.690 312.444 327.573 312.443 C 328.400 313.143 329.216 313.840 329.917 314.672 C 329.966 314.731 330.347 314.831 330.292 314.701 C 330.040 314.106 329.629 313.601 329.378 313.009 C 329.062 312.260 328.840 311.480 328.535 310.727 C 328.062 309.563 327.432 308.524 326.748 307.473 L 326.748 307.473 Z M 323.007 296.074 C 323.146 296.240 323.646 296.192 323.438 295.942 C 321.701 293.855 318.800 292.671 316.247 291.980 C 313.007 291.103 309.547 290.808 306.302 291.823 C 305.994 291.919 306.405 292.216 306.609 292.152 C 309.693 291.188 313.084 291.415 316.161 292.306 C 318.596 293.013 321.336 294.065 323.007 296.074 L 323.007 296.074 Z M 306.663 292.109 C 306.870 292.014 306.392 291.799 306.245 291.866 C 302.268 293.688 297.904 295.939 298.584 301.046 C 298.606 301.213 299.130 301.311 299.105 301.116 C 298.435 296.090 302.766 293.895 306.663 292.109 L 306.663 292.109 Z M 298.819 299.729 C 299.033 299.602 298.551 299.389 298.405 299.476 C 288.664 305.268 300.881 316.477 299.833 324.311 C 299.807 324.508 300.330 324.627 300.354 324.451 C 301.387 316.729 289.275 305.404 298.819 299.729 L 298.819 299.729 Z M 307.173 310.667 C 307.170 310.594 306.911 310.563 306.912 310.597 C 306.962 311.729 307.572 312.655 307.791 313.744 C 308.045 315.022 307.954 316.355 307.617 317.607 C 307.704 317.630 307.791 317.653 307.878 317.677 C 307.972 316.624 307.056 315.738 306.372 315.040 C 306.330 314.998 306.086 314.965 306.137 315.018 C 306.796 315.690 307.708 316.581 307.617 317.607 C 307.612 317.667 307.863 317.729 307.878 317.677 C 308.172 316.588 308.349 315.305 308.124 314.182 C 307.886 312.983 307.227 311.903 307.173 310.667 L 307.173 310.667 Z " transform="matrix(0.949999988079071, 0, 0, 0.949999988079071, -273.35, -276.4)"/>
  </g>
</svg>