<svg version="1.1" width="64" height="80" xmlns="http://www.w3.org/2000/svg" xmlns:xlink="http://www.w3.org/1999/xlink">
  <!-- Exported by Scratch - http://scratch.mit.edu/ -->
  <g id="ID0.9514507986605167">
    <path id="ID0.33620395278558135" fill="#FF9400" d="M 329 416 C 331.883 420.450 338.146 421.521 338 429 C 335.497 428.830 334.869 430.536 334 432 C 328.891 431.776 329.557 425.776 326 424 C 315.353 422.857 315.307 429.549 308 430 C 296.581 430.705 284.382 420.127 281 410 C 275.125 392.407 283.198 364.925 295 357 C 302.630 351.876 317.071 350.619 326 357 C 332.893 361.925 337.124 377.814 337 389 C 336.869 400.743 334.224 406.906 329 416 Z M 309 420 C 311.651 419.644 314.868 417.932 316 414 C 315.021 410.312 311.621 409.046 310 406 C 316.223 398.330 317.712 407.503 325 409 C 330.747 396.330 327.689 375.701 322 364 C 285.625 341.363 277.469 424.237 309 420 Z " transform="matrix(0.8453987836837769, 0, 0, 0.8453987836837769, -226.85, -294.5)"/>
    <path id="ID0.25073340628296137" d="M 322 364 C 327.689 375.701 330.747 396.330 325 409 C 317.712 407.503 316.223 398.330 310 406 C 311.621 409.046 315.021 410.312 316 414 C 314.868 417.932 311.651 419.644 309 420 C 277.469 424.237 285.625 341.363 322 364 Z M 307 415 C 300.171 410.715 313.356 390.908 320 400 C 319.211 384.268 316.295 367.101 299 371 C 289.370 383.405 290.361 413.665 307 415 Z " transform="matrix(0.8453987836837769, 0, 0, 0.8453987836837769, -226.85, -294.5)"/>
    <path id="ID0.5218712696805596" d="M 344 427 C 344 430 344 433 344 436 C 338.876 436.543 337.585 440.918 334 443 C 332.333 443 330.667 443 329 443 C 328.061 438.606 324.688 436.645 321 435 C 298.555 450.141 271.149 430.743 269 407 C 269 400.667 269 394.333 269 388 C 275.474 368.474 287.254 354.255 308 349 C 309 349 310 349 311 349 C 340.955 348.610 345.158 390.866 334 414 C 336.985 418.682 339.775 423.558 344 427 Z M 337 389 C 337.124 377.814 332.893 361.925 326 357 C 317.071 350.619 302.630 351.876 295 357 C 283.198 364.925 275.125 392.407 281 410 C 284.382 420.127 296.581 430.705 308 430 C 315.307 429.549 315.353 422.857 326 424 C 329.557 425.776 328.891 431.776 334 432 C 334.869 430.536 335.497 428.830 338 429 C 338.146 421.521 331.883 420.450 329 416 C 334.224 406.906 336.869 400.743 337 389 Z " transform="matrix(0.8453987836837769, 0, 0, 0.8453987836837769, -226.85, -294.5)"/>
  </g>
</svg>