<svg width="240px" height="179px" viewBox="0 0 240 179" version="1.1" xml:space="preserve" xmlns="http://www.w3.org/2000/svg" xmlns:xlink="http://www.w3.org/1999/xlink">
  <g>
    <title>Slice 1</title>
    <desc>Created with Sketch.</desc>
    <g id="Page-1" stroke="none" stroke-width="1" fill="none" fill-rule="evenodd">
      <g id="unicorn-run-b-[fantasy,animals,ipzy,walking]">
        <g id="Unicorn-Run3" transform="translate(120.000000, 89.500000) scale(-1, 1) translate(-120.000000, -89.500000) ">
          <path d="M136.9,112.6 C146,124.5 161,133.2 161,133.2 C161,133.2 161,142.3 156.4,162.6 C153.7,167.6 150,169.7 152.6,170.5 C153.7,170.8 159.3,173.1 160.9,171.6 C163.2,169.4 163.6,166.5 163.6,165.2 C163.5,160.9 177.1,129.5 172.8,126.2 C168.5,123 164.3,117.5 165.5,112.7 C168.4,100.4 173.7,73.2 143.4,74.7 C125,76.1 127.6,100.4 136.9,112.6 Z" id="Shape" fill="#DCE2EF"/>
          <g id="Group" transform="translate(148.000000, 168.000000)">
            <path d="M10.5,8.2 C7.7,8.6 3.8,9.5 1.1,8.3 C1.1,8.3 1.7,4.8 3,2.2 C6,3.4 9.8,4 12,4.4 C11,6.2 10.5,8.2 10.5,8.2 Z" id="Shape_1_" fill="#A7B2C4"/>
            <path d="M13.4,3.1 C13.4,3.1 11.8,5.5 12.6,7.7 C12.6,7.7 11.3,7 11.2,5.5 C11.2,5.5 10.6,7.3 9.1,7.1 C9.1,7.1 9.7,5.5 9.2,4.6 C9.2,4.6 8.2,6.6 7,6.4 C7,6.4 7.9,4.2 7.5,3.3 C7.5,3.3 5.4,4.3 5.1,6.1 C5.1,6.1 4.4,4.7 5,3.6 C5,3.6 3.2,4 3.1,5.2 C3.1,5.2 2.8,3.3 4.1,2.1 C4.1,2.1 2.7,3.8 0.8,2.8 C0.8,2.8 3,2.5 4.3,0.4" id="Shape_2_" fill="#DCE2EF"/>
          </g>
          <g id="Group_1_" transform="translate(15.000000, 78.000000)">
            <g id="Shape_3_" transform="translate(0.000000, 55.000000)">
              <path d="M12.5,10 C11.6,12.3 0.9,14 0.9,14 C1.6,5.7 4.4,6.3 4.7,4.7 C7.3,6.7 10,6.6 12,6.3 C12,7.6 12.5,10 12.5,10 Z" id="Path" fill="#A7B2C4"/>
              <path d="M11.3,3.6 C11.3,3.6 12.8,9 14.2,9.5 C14.2,9.5 12.3,9.7 11.4,7.4 C11.4,7.4 12.5,9.5 10.8,10.2 C10.8,10.2 10.5,8.3 9.5,6.3 C9.5,6.3 10.2,9.8 7.4,10.7 C7.4,10.7 8.1,9.6 7.7,7.9 C7.7,7.9 6.7,9.1 5.2,9.6 C5.2,9.6 5.6,8.3 5.9,6.9 C5.9,6.9 4.6,9.4 2.8,9.8 C2.8,9.8 2.4,8.5 3.3,7.4 C3.3,7.4 2.2,7.7 1,7.4 C1,7.4 4.4,3 5.3,0.9" id="Path" fill="#DCE2EF"/>
            </g>
            <path d="M57.4,0.6 C51.3,1.8 39.9,12.2 37.4,25.1 C37.4,25.1 19.8,24.3 17.5,24.6 C15.2,25 10.5,35.5 8.3,45.7 C7.7,48.3 3.6,59.2 3.6,59.2 L12.1,60.6 C12.1,60.6 13.4,53.5 15.4,49.1 C15.4,49.1 19.6,39.9 21.5,36.8 C21.5,36.8 42.7,49.6 46.6,46.4 C53.6,40.6 68.8,24.1 68.8,24.1" id="Shape_4_" fill="#DCE2EF"/>
          </g>
          <g id="Group_2_" transform="translate(152.000000, 54.000000)">
            <path d="M0.3,12.1 C12.1,11.6 21.7,7.5 30.7,3.6 C39.2,-0.1 50.1,1.9 50.1,1.9 C50.1,1.9 47,1.9 44,2.8 C44,2.8 50.5,3.5 59.2,3.8 C67.9,4.1 73.3,5.8 87.5,0.3 C87.5,0.3 80.2,8.2 77.9,9.1 C77.9,9.1 79.2,8.3 83.9,5.8 C83.9,5.8 81.3,13.1 73.9,15.4 C69.8,16.7 64.2,19.7 54.7,19.8 C54.7,19.8 60.8,21.1 66.9,18.9 C66.9,18.9 57.4,25.1 46.4,21.7 C46.4,21.7 50.6,23.9 54.1,23.9 C54.1,23.9 38.9,25.6 30.6,22.2 C22.3,18.8 4.8,16.1 4.8,16.1" id="Shape_5_" fill="#FCCCBA"/>
            <path d="M4.4,11.7 C4.4,11.7 7.4,11.4 11.7,10.4 C13.9,9.9 16.4,9.2 19,8.3 C20.3,7.8 21.6,7.2 22.9,6.6 C24.2,6 25.6,5.4 27,4.8 C28.4,4.2 29.8,3.7 31.2,3.3 C32.6,2.8 34,2.5 35.4,2.2 C36.8,1.9 38.1,1.7 39.4,1.5 C40,1.4 40.7,1.4 41.3,1.3 C41.9,1.3 42.5,1.3 43,1.2 C44.1,1.2 45.2,1.2 46.1,1.3 C47,1.3 47.8,1.5 48.4,1.6 C49.7,1.8 50.4,2 50.4,2 C50.4,2 49.7,1.9 48.4,1.7 C47.7,1.7 47,1.6 46.1,1.6 C45.2,1.6 44.2,1.6 43.1,1.6 C42.5,1.6 42,1.7 41.4,1.7 C40.8,1.8 40.2,1.8 39.6,1.9 C38.3,2.1 37,2.3 35.7,2.7 C34.4,3 33,3.4 31.6,3.9 C30.2,4.3 28.8,4.9 27.5,5.4 C26.1,6 24.8,6.5 23.4,7.2 C22.1,7.8 20.7,8.4 19.4,8.9 C16.7,9.8 14.2,10.4 12,10.8 C9.8,11.2 7.9,11.4 6.7,11.6 C5.2,11.7 4.4,11.7 4.4,11.7 Z" id="Shape_6_" fill="#E0A0A0"/>
            <path d="M44,2.9 C44,2.9 46.7,3.1 50.8,3.2 C52.8,3.3 55.2,3.3 57.8,3.4 C60.4,3.4 63.1,3.6 65.8,3.7 C68.5,3.9 71.3,4 73.8,3.7 C75.1,3.6 76.3,3.4 77.4,3.2 C78.6,3 79.6,2.7 80.6,2.5 C81.6,2.2 82.5,2 83.3,1.7 C84.1,1.4 84.8,1.2 85.3,1 C86.4,0.6 87.1,0.4 87.1,0.4 C87.1,0.4 86.5,0.7 85.4,1.1 C84.9,1.3 84.2,1.6 83.4,1.9 C82.6,2.2 81.7,2.5 80.7,2.8 C78.7,3.4 76.4,3.9 73.8,4.2 C71.2,4.5 68.5,4.4 65.7,4.3 C63,4.1 60.2,4 57.7,3.9 C55.1,3.8 52.7,3.7 50.7,3.5 C46.7,3.3 44,2.9 44,2.9 Z" id="Shape_7_" fill="#E0A0A0"/>
            <path d="M83.7,6 C83.7,6 83.4,6.3 83,6.8 C82.5,7.2 81.8,7.7 81.1,8.1 C80.4,8.5 79.6,8.8 78.9,9 C78.3,9.2 77.9,9.2 77.9,9.2 C77.9,9.2 78,9.1 78.1,9 C78.3,8.9 78.5,8.8 78.8,8.6 C79.3,8.3 80.1,7.9 80.8,7.5 C81.5,7.1 82.3,6.7 82.8,6.4 C83.3,6.2 83.7,6 83.7,6 Z" id="Shape_8_" fill="#E0A0A0"/>
            <path d="M54.6,19.9 C54.6,19.9 56.2,19.8 58.5,19.4 C59.1,19.3 59.7,19.2 60.4,19.1 C61.1,19 61.8,18.8 62.5,18.7 C63.2,18.6 64,18.4 64.7,18.2 C65.5,18 66.2,17.8 67,17.6 C67.8,17.4 68.5,17.2 69.3,17 C70,16.8 70.8,16.5 71.5,16.3 C72.2,16.1 72.9,15.8 73.5,15.5 C74.1,15.2 74.7,15 75.3,14.8 C75.8,14.6 76.3,14.3 76.8,14.1 C77.2,13.9 77.6,13.7 77.9,13.5 C78.5,13.2 78.9,13 78.9,13 C78.9,13 78.6,13.2 78,13.6 C77.7,13.8 77.4,14 76.9,14.3 C76.5,14.5 76,14.8 75.5,15.1 C75,15.4 74.4,15.7 73.8,15.9 C73.2,16.2 72.5,16.5 71.8,16.7 C71.1,17 70.4,17.2 69.6,17.5 C68.9,17.8 68.1,18 67.3,18.2 C66.5,18.4 65.7,18.6 65,18.8 C64.2,19 63.5,19.1 62.7,19.2 C61.2,19.5 59.8,19.6 58.7,19.7 C56.2,20 54.6,19.9 54.6,19.9 Z" id="Shape_9_" fill="#E0A0A0"/>
            <path d="M66.2,19.5 C66.2,19.5 66,19.7 65.5,20 C65,20.3 64.3,20.7 63.5,21.1 C63.1,21.3 62.6,21.5 62.1,21.7 C61.6,21.9 61,22.1 60.4,22.2 C59.8,22.4 59.2,22.5 58.6,22.6 C58,22.7 57.3,22.8 56.7,22.9 C56.1,22.9 55.4,23 54.8,23 C54.2,23 53.5,23 52.9,23 C52.3,23 51.7,22.9 51.2,22.8 C50.6,22.7 50.1,22.6 49.7,22.5 C48.7,22.4 48,22.1 47.4,21.9 C46.9,21.7 46.6,21.7 46.6,21.7 C46.6,21.7 46.9,21.7 47.5,21.8 C47.8,21.8 48.1,21.9 48.5,22 C48.9,22.1 49.3,22.1 49.8,22.2 C50.3,22.2 50.8,22.3 51.3,22.4 C51.8,22.4 52.4,22.4 53,22.5 C53.6,22.5 54.2,22.5 54.8,22.5 C55.4,22.5 56.1,22.4 56.7,22.4 C57.3,22.3 58,22.3 58.6,22.2 C59.2,22.1 59.8,22 60.4,21.8 C61.6,21.5 62.6,21.2 63.5,20.9 C64.4,20.6 65.1,20.2 65.6,20 C65.9,19.6 66.2,19.5 66.2,19.5 Z" id="Shape_10_" fill="#E0A0A0"/>
            <path d="M54,24 C54,24 53.3,24.1 52.1,24.3 C50.9,24.5 49.1,24.7 46.9,24.8 C44.8,24.9 42.2,25 39.5,24.7 C36.8,24.5 33.9,24 31.2,23 C29.9,22.5 28.5,21.9 27.2,21.5 C25.9,21 24.6,20.6 23.3,20.2 C20.7,19.4 18.3,18.8 16.2,18.4 C15.1,18.2 14.2,18 13.3,17.8 C12.4,17.6 11.7,17.5 11.1,17.4 C9.9,17.2 9.2,17.1 9.2,17.1 C9.2,17.1 12.1,17.3 16.3,18.1 C18.4,18.5 20.9,19 23.5,19.7 C24.8,20.1 26.1,20.5 27.5,20.9 C28.9,21.3 30.2,21.9 31.5,22.4 C34.2,23.4 37,23.9 39.6,24.1 C42.3,24.3 44.8,24.4 46.9,24.4 C51.1,24.4 54,24 54,24 Z" id="Shape_11_" fill="#E0A0A0"/>
            <path d="M7.3,13.3 C7.3,13.3 8.6,13.2 10.5,13 C11.4,12.9 12.6,12.8 13.7,12.6 C14.9,12.4 16.1,12.2 17.4,11.9 C18,11.7 18.6,11.6 19.2,11.4 C19.8,11.2 20.4,11.1 20.9,10.9 C21.5,10.7 22,10.5 22.5,10.3 C23,10.1 23.5,9.9 23.9,9.7 C24.3,9.5 24.7,9.3 25.1,9.2 C25.4,9 25.7,8.9 26,8.7 C26.5,8.4 26.8,8.3 26.8,8.3 C26.8,8.3 26.5,8.5 26.1,8.8 C25.7,9.1 25,9.6 24.1,10 C23.7,10.2 23.2,10.4 22.7,10.7 C22.2,11 21.7,11.2 21.1,11.4 C20.5,11.6 19.9,11.8 19.3,12 C18.7,12.2 18.1,12.3 17.4,12.5 C16.1,12.8 14.9,13 13.7,13.1 C12.5,13.3 11.4,13.3 10.4,13.3 C8.6,13.4 7.3,13.3 7.3,13.3 Z" id="Shape_12_" fill="#E0A0A0"/>
            <path d="M11,16.3 C11,16.3 12,16.2 13.5,16.2 C14.2,16.2 15.1,16.2 16,16.3 C16.9,16.4 17.9,16.4 18.9,16.6 C19.9,16.7 20.9,16.9 21.8,17.1 C22.7,17.3 23.6,17.5 24.3,17.8 C24.7,17.9 25,18 25.3,18.2 C25.6,18.3 25.8,18.4 26,18.5 C26.4,18.7 26.6,18.8 26.6,18.8 C26.6,18.8 26.4,18.7 25.9,18.6 C25.7,18.5 25.4,18.5 25.1,18.4 C24.8,18.3 24.5,18.3 24.1,18.2 C23.4,18 22.5,17.9 21.6,17.7 C20.7,17.5 19.7,17.4 18.7,17.3 C17.7,17.2 16.7,17 15.8,17 C14.9,16.9 14,16.8 13.3,16.7 C12,16.4 11,16.3 11,16.3 Z" id="Shape_13_" fill="#E0A0A0"/>
          </g>
          <g id="Group_3_" transform="translate(47.000000, 56.000000)">
            <path d="M8,14.2 C2.8,23.8 1.3,35.4 4.6,44.9 C11.4,64.6 43.2,66 65.9,58.3 C75.5,55.1 79.3,58.2 100.8,56.1 C113.5,54.9 127.9,39.4 121.8,23.4 C115.7,7.5 98.6,0.9 84.5,7.3 C67.7,15.1 42,5.3 36,1.6 C30.7,-1.7 13.3,4.6 8,14.2 Z" id="Shape_14_" fill="#EFF4F9"/>
            <path d="M7,16.6 C7,16.6 3.8,24.6 1.2,25.2 C1.2,25.2 3.7,25.2 4.5,23.4 C4.5,23.4 1,26.4 0.9,29 C0.9,29 1.6,27.5 2.6,27.5 C2.6,27.5 -0.2,31.4 3,34.5" id="Shape_15_" fill="#EFF4F9"/>
            <path d="M66,58.4 C66,58.4 65.2,58.7 63.8,59.1 C62.4,59.5 60.4,60.2 57.9,60.8 C56.7,61.1 55.3,61.4 53.9,61.7 C53.2,61.8 52.5,62 51.7,62.1 C51,62.2 50.2,62.3 49.4,62.4 C47.8,62.7 46.2,62.8 44.6,62.9 C42.9,63 41.3,63.1 39.6,63.1 C38.8,63.1 37.9,63.1 37.1,63.1 C36.3,63 35.4,63 34.6,62.9 C34.2,62.9 33.8,62.8 33.4,62.8 C33,62.7 32.6,62.7 32.2,62.6 C31.4,62.5 30.6,62.4 29.8,62.3 C28.2,62 26.8,61.7 25.3,61.3 C23.9,60.9 22.6,60.5 21.4,60.1 C20.2,59.6 19.2,59.2 18.2,58.8 C17.7,58.6 17.3,58.4 16.9,58.2 C16.5,58 16.2,57.8 15.8,57.6 C14.5,56.9 13.8,56.5 13.8,56.5 C13.8,56.5 14.6,56.9 15.9,57.5 C16.2,57.7 16.6,57.8 17,58 C17.4,58.2 17.8,58.4 18.3,58.6 C19.3,59 20.3,59.4 21.5,59.8 C22.7,60.1 24,60.5 25.4,60.9 C26.8,61.2 28.3,61.5 29.8,61.8 C30.6,61.9 31.4,62 32.2,62.1 C32.6,62.1 33,62.2 33.4,62.3 C33.8,62.3 34.2,62.4 34.6,62.4 C35.4,62.5 36.2,62.5 37.1,62.6 C37.9,62.6 38.8,62.6 39.6,62.6 C41.3,62.7 42.9,62.5 44.6,62.5 C46.2,62.3 47.9,62.3 49.4,62 C51,61.8 52.5,61.6 53.9,61.3 C55.3,61.1 56.7,60.8 57.9,60.5 C60.4,60 62.4,59.5 63.8,59.1 C65.2,58.6 66,58.4 66,58.4 Z" id="Shape_16_" fill="#D4DBE7"/>
            <path d="M3.5,30.7 C3.5,30.7 3.3,31.6 3.2,32.9 C3.1,33.6 3.1,34.4 3.1,35.2 C3.1,36 3.1,36.9 3.2,37.8 C3.2,38.2 3.3,38.7 3.3,39.1 C3.4,39.5 3.4,40 3.5,40.4 C3.6,40.8 3.7,41.2 3.8,41.6 C3.9,42 4,42.3 4.1,42.7 C4.2,43 4.3,43.3 4.4,43.6 C4.5,43.9 4.6,44.1 4.6,44.3 C4.7,44.7 4.8,44.9 4.8,44.9 C4.8,44.9 4.7,44.7 4.5,44.3 C4.3,43.9 4,43.4 3.8,42.8 C3.7,42.5 3.5,42.1 3.4,41.8 C3.3,41.4 3.1,41 3.1,40.6 C3,40.2 2.9,39.7 2.8,39.3 C2.7,38.8 2.7,38.4 2.6,37.9 C2.5,37 2.5,36 2.6,35.2 C2.7,34.3 2.8,33.5 2.9,32.9 C3.1,31.5 3.5,30.7 3.5,30.7 Z" id="Shape_17_" fill="#D4DBE7"/>
            <path d="M3,34.5 C3,34.5 2.5,34.3 2.1,33.7 C1.9,33.4 1.6,33 1.5,32.6 C1.3,32.2 1.3,31.6 1.3,31.1 C1.3,30.6 1.4,30.1 1.5,29.7 C1.6,29.3 1.8,28.9 2,28.5 C2.2,28.2 2.4,27.9 2.5,27.8 C2.6,27.6 2.7,27.5 2.7,27.5 C2.7,27.5 2.7,27.6 2.6,27.8 C2.5,28 2.4,28.3 2.3,28.6 C2.2,28.9 2.1,29.3 2,29.8 C1.9,30 1.9,30.2 1.9,30.4 C1.9,30.6 1.9,30.8 1.9,31.1 C1.9,31.3 1.9,31.5 1.9,31.8 C1.9,32 1.9,32.2 2,32.4 C2.1,32.8 2.2,33.2 2.4,33.5 C2.7,34.2 3,34.5 3,34.5 Z" id="Shape_18_" fill="#D4DBE7"/>
            <path d="M1,29 C1,29 0.9,28.7 0.9,28.3 C0.9,27.8 1.1,27.3 1.3,26.7 C1.6,26.2 2,25.7 2.4,25.4 C2.8,25.1 3,25 3,25 C3,25 3,25.1 2.9,25.2 C2.8,25.3 2.7,25.5 2.6,25.6 C2.4,26 2.1,26.4 1.8,26.9 C1.5,27.4 1.3,27.9 1.2,28.3 C1.1,28.8 1,29 1,29 Z" id="Shape_19_" fill="#D4DBE7"/>
            <path d="M1.3,25.2 C1.3,25.2 1.6,24.9 2.1,24.4 C2.5,23.9 3.1,23.3 3.6,22.6 C4.1,21.9 4.6,21.2 5,20.7 C5.2,20.4 5.3,20.2 5.4,20 C5.5,19.8 5.6,19.7 5.6,19.7 C5.6,19.7 5.6,19.8 5.5,20 C5.5,20.2 5.4,20.5 5.3,20.8 C5.2,21.1 5,21.5 4.8,21.9 C4.6,22.3 4.4,22.7 4.1,23 C3.5,23.7 2.9,24.3 2.3,24.7 C1.7,25.1 1.3,25.2 1.3,25.2 Z" id="Shape_20_" fill="#D4DBE7"/>
            <path d="M84.6,7.4 C84.6,7.4 84.1,7.6 83.1,7.9 C82.2,8.2 80.8,8.7 79.2,9.2 C78.4,9.4 77.5,9.7 76.5,9.9 C75.5,10.1 74.5,10.3 73.5,10.5 C72.4,10.6 71.3,10.7 70.2,10.8 C69.6,10.8 69.1,10.8 68.5,10.8 C67.9,10.8 67.4,10.8 66.8,10.7 C65.7,10.6 64.5,10.5 63.4,10.4 C62.3,10.2 61.2,10.1 60.1,9.9 C58,9.5 56,9 54.4,8.6 C52.7,8.2 51.4,7.8 50.4,7.5 C49.4,7.2 48.9,7 48.9,7 C48.9,7 49.5,7.1 50.4,7.3 C51.4,7.5 52.8,7.8 54.4,8.2 C56.1,8.6 58,8.9 60.1,9.3 C61.1,9.5 62.2,9.6 63.3,9.8 C64.4,9.9 65.5,10 66.7,10.1 C67.3,10.1 67.8,10.2 68.4,10.2 C69,10.2 69.5,10.2 70.1,10.2 C71.2,10.2 72.3,10.1 73.4,10 C74.4,9.9 75.5,9.7 76.4,9.5 C77.4,9.3 78.3,9.1 79.1,8.9 C80.8,8.5 82.1,8.1 83.1,7.9 C84.1,7.6 84.6,7.4 84.6,7.4 Z" id="Shape_21_" fill="#D4DBE7"/>
          </g>
          <g id="Group_4_" transform="translate(31.000000, 13.000000)">
            <g id="Shape_22_">
              <path d="M0.7,2.8 C0.7,2.8 12.1,0.8 20.7,0.7 C20.7,0.7 15.6,3.5 13.7,4.6 C13.7,4.6 19,3.5 22.4,5.2 C25.8,6.9 32.3,6 32.3,6 C32.3,6 30.3,9.3 25.7,9.8 C25.7,9.8 30.1,11.1 36.3,13.1 C38.4,13.8 42.8,13.5 42.8,13.5 C42.8,13.5 39.8,17 35.1,16.4 C35.1,16.4 39.5,17.8 43.6,20.9 C43.6,20.9 40.5,20.8 37,21.2 C37,21.2 40.6,21 47,25.4 C55,30.8 57.4,37.7 61.3,37.9 C61.3,37.9 58.4,40 54.1,38.6 C54.1,38.6 55.9,41.9 60.8,43.6 C60.8,43.6 53.7,46.9 44.4,42.3 C37.2,38.7 0.7,2.8 0.7,2.8 Z" id="Path" fill="#FCCCBA"/>
              <path d="M60.8,43.5 C60.8,43.5 60.7,43.6 60.4,43.5 C60.2,43.5 59.8,43.4 59.4,43.3 C58.6,43 57.7,42.4 56.9,41.7 C56.1,41 55.4,40.2 54.8,39.6 C54.3,39 54,38.5 54,38.5 C54,38.5 54.4,38.8 55.1,39.3 C55.7,39.8 56.5,40.5 57.3,41.2 C58.1,41.9 58.9,42.5 59.6,43 C59.9,43.2 60.2,43.4 60.4,43.4 C60.7,43.5 60.8,43.5 60.8,43.5 Z" id="Path" fill="#E0A0A0"/>
              <path d="M61.6,37.7 C61.6,37.7 61.5,37.8 61.3,37.8 C61.1,37.8 60.7,37.8 60.3,37.7 C59.9,37.6 59.4,37.4 58.9,37.1 C58.4,36.8 57.9,36.4 57.4,35.9 C56.9,35.4 56.3,34.9 55.8,34.3 C55.3,33.7 54.7,33 54.2,32.3 C53.1,30.9 51.9,29.5 50.6,28.2 C50,27.5 49.3,26.9 48.6,26.3 C47.9,25.7 47.2,25.2 46.4,24.8 C45.7,24.3 44.9,23.9 44.2,23.6 C43.5,23.3 42.8,22.9 42.2,22.7 C40.9,22.1 39.8,21.7 39,21.5 C38.2,21.2 37.8,21.1 37.8,21.1 C37.8,21.1 38.3,21.2 39,21.4 C39.8,21.6 40.9,21.9 42.2,22.4 C42.9,22.6 43.6,22.9 44.3,23.3 C45,23.6 45.8,24 46.6,24.5 C47.4,25 48.1,25.5 48.9,26 C49.6,26.6 50.3,27.2 51,27.9 C52.4,29.2 53.5,30.7 54.6,32.1 C55.1,32.8 55.7,33.5 56.2,34.1 C56.7,34.7 57.2,35.3 57.7,35.8 C58.7,36.8 59.6,37.5 60.3,37.8 C60.7,38 61,38 61.2,38 C61.5,37.8 61.6,37.7 61.6,37.7 Z" id="Path" fill="#E0A0A0"/>
              <path d="M43.8,20.9 C43.8,20.9 43.3,20.6 42.5,20.1 C41.7,19.6 40.6,19 39.6,18.4 C38.5,17.8 37.4,17.3 36.6,16.9 C36.2,16.7 35.8,16.5 35.6,16.4 C35.4,16.3 35.2,16.2 35.2,16.2 C35.2,16.2 35.4,16.2 35.6,16.3 C35.9,16.4 36.3,16.4 36.7,16.6 C37.2,16.7 37.7,16.9 38.2,17.1 C38.7,17.3 39.3,17.6 39.9,17.9 C41,18.5 42,19.2 42.7,19.8 C43.4,20.4 43.8,20.9 43.8,20.9 Z" id="Path" fill="#E0A0A0"/>
              <path d="M43.1,13.3 C43.1,13.3 42,13.4 40.3,13.5 C39.5,13.5 38.5,13.6 37.4,13.5 C36.3,13.4 35.2,13.1 34.2,12.7 C33.1,12.3 32.2,11.7 31.2,11.4 C30.2,11 29.3,10.7 28.5,10.5 C26.9,10 25.8,9.8 25.8,9.8 C25.8,9.8 26.9,9.8 28.6,10.2 C29.4,10.4 30.4,10.6 31.4,10.9 C32.4,11.2 33.4,11.7 34.4,12.1 C34.9,12.3 35.4,12.5 35.9,12.6 C36.4,12.7 36.9,12.8 37.4,12.9 C38.4,13 39.4,13.1 40.2,13.1 C42,13.3 43.1,13.3 43.1,13.3 Z" id="Path" fill="#E0A0A0"/>
              <path d="M32.2,5.9 C32.2,5.9 31.1,6.3 29.3,6.4 C28.4,6.4 27.4,6.5 26.3,6.4 C25.7,6.3 25.2,6.3 24.6,6.2 C24,6.1 23.4,6 22.9,5.8 C22.3,5.7 21.8,5.4 21.2,5.3 C20.7,5.1 20.1,5 19.6,4.9 C18.5,4.7 17.5,4.5 16.7,4.5 C15.8,4.5 15.1,4.5 14.6,4.6 C14.1,4.7 13.8,4.7 13.8,4.7 C13.8,4.7 14.1,4.6 14.6,4.5 C15.1,4.4 15.8,4.2 16.7,4.2 C17.6,4.2 18.6,4.2 19.7,4.4 C20.2,4.5 20.8,4.7 21.4,4.8 C22,5 22.5,5.2 23.1,5.3 C23.7,5.4 24.2,5.6 24.8,5.7 C25.4,5.8 25.9,5.9 26.5,6 C27.6,6.1 28.6,6.2 29.5,6.2 C31.1,6 32.2,5.9 32.2,5.9 Z" id="Path" fill="#E0A0A0"/>
              <path d="M20.5,0.5 C20.5,0.5 19.5,0.7 18,0.9 C17.2,1 16.4,1.1 15.4,1.2 C14.4,1.3 13.4,1.4 12.4,1.5 C11.4,1.6 10.4,1.6 9.4,1.7 C8.4,1.8 7.5,1.8 6.8,1.8 C5.3,1.9 4.2,1.8 4.2,1.8 C4.2,1.8 5.2,1.6 6.7,1.4 C7.5,1.3 8.3,1.2 9.3,1.1 C10.3,1 11.3,0.9 12.3,0.8 C13.3,0.7 14.3,0.7 15.3,0.6 C16.3,0.5 17.2,0.5 17.9,0.5 C19.5,0.5 20.5,0.5 20.5,0.5 Z" id="Path" fill="#E0A0A0"/>
            </g>
            <path d="M8.5,8.1 C8.5,8.1 33.5,22.4 47.3,40.1 C61.1,57.8 29.5,75.2 22.3,69.4 C15.1,63.6 4.9,46.7 3.8,36.8 C2.7,26.9 1.2,6.1 8.5,8.1 Z" id="Shape_23_" fill="#EFF4F9"/>
          </g>
          <g id="Group_5_">
            <g id="Shape_24_" transform="translate(23.000000, 0.000000)">
              <path d="M14.7,21.9 C14.7,21.9 16.8,16.5 9.9,9.3 C5.6,4.8 6.2,-0.8 4.1,0.1 C2,1 -2.9,17.1 5.6,22.6 C10.7,25.9 13.2,26.4 14.7,21.9 Z" id="Path" fill="#DCE2EF"/>
              <path d="M4.3,2.7 C4.3,2.7 4.3,3 4.2,3.5 C4.1,4 4.1,4.8 4,5.7 C4,6.1 4,6.6 3.9,7.1 C3.9,7.6 3.9,8.2 3.9,8.7 C3.9,9.8 3.9,11 4.1,12.2 C4.1,12.8 4.2,13.4 4.3,13.9 C4.4,14.5 4.5,15 4.7,15.5 C4.8,16 5,16.5 5.2,17 C5.4,17.5 5.7,17.9 5.9,18.2 C6.2,18.5 6.4,18.9 6.7,19.1 C7,19.3 7.2,19.6 7.4,19.7 C7.9,20 8.1,20.1 8.1,20.1 C8.1,20.1 7.8,20 7.3,19.8 C7,19.7 6.8,19.5 6.5,19.3 C6.2,19.1 5.9,18.8 5.6,18.4 C5.3,18 5,17.6 4.8,17.2 C4.7,17 4.6,16.7 4.4,16.5 C4.3,16.2 4.2,16 4.1,15.7 C3.9,15.2 3.8,14.6 3.7,14 C3.6,13.4 3.5,12.8 3.4,12.2 C3.3,11 3.3,9.8 3.3,8.6 C3.3,7.5 3.5,6.4 3.6,5.5 C4,3.9 4.3,2.7 4.3,2.7 Z" id="Path" fill="#BCC4D4"/>
            </g>
            <g id="Group" transform="translate(0.000000, 14.000000)">
              <path d="M14.4,13.5 C12,17.9 -2.5,29.4 0.4,37.3 C2.5,43.1 6.8,42.2 14.5,40.5 C15.2,40.3 19.1,41.2 23,41.1 C44.1,40.5 48,33.5 50.1,23.4 C52.2,13.3 45.7,3.5 35.6,1.4 C25.7,-0.7 19.4,3.8 14.4,13.5 Z" id="Shape_25_" fill="#EFF4F9"/>
              <ellipse id="Oval" fill="#9098A4" transform="translate(20.916237, 21.100392) rotate(-0.344548) translate(-20.916237, -21.100392) " cx="20.9162371" cy="21.1003923" rx="1.300024" ry="2.700049"/>
              <path d="M3.6,36.4 C4.4,36 4.4,34 2.8,34.9 C1.2,35.8 2.1,37.1 3.6,36.4 Z" id="Shape_26_" fill="#D4DBE7"/>
              <path d="M21.5,18.9 C21.5,18.9 21.3,18.9 21,18.8 C20.7,18.7 20.4,18.4 20.1,18.1 C19.8,17.8 19.7,17.4 19.6,17.1 C19.6,16.8 19.6,16.6 19.6,16.6 C19.6,16.6 19.7,16.8 19.9,17 C20.1,17.2 20.3,17.5 20.5,17.8 C20.7,18.1 21,18.4 21.1,18.6 C21.4,18.7 21.5,18.9 21.5,18.9 Z" id="Shape_27_" fill="#9098A4"/>
              <path d="M4.1,34.9 C4.1,34.9 4.2,35.1 4.3,35.4 C4.4,35.7 4.3,36.2 4,36.5 C3.8,36.7 3.6,36.8 3.4,36.8 C3.2,36.8 3,36.8 2.9,36.8 C2.6,36.7 2.5,36.6 2.5,36.6 C2.5,36.6 2.7,36.5 3,36.5 C3.3,36.4 3.5,36.3 3.7,36.2 C3.9,36.1 4,35.8 4.1,35.5 C4,35.1 4.1,34.9 4.1,34.9 Z" id="Shape_28_" fill="#BCC4D4"/>
              <path d="M3.6,41.3 C3.6,41.3 4.1,41 4.8,40.7 C5.5,40.4 6.5,40 7.5,39.7 C8.5,39.4 9.5,39.2 10.3,39.1 C11.1,39 11.6,39.1 11.6,39.1 C11.6,39.1 11.5,39.1 11.3,39.2 C11.1,39.3 10.8,39.4 10.4,39.5 C9.7,39.7 8.7,40 7.7,40.3 C6.7,40.6 5.7,40.8 4.9,41 C4.1,41.2 3.6,41.3 3.6,41.3 Z" id="Shape_29_" fill="#BCC4D4"/>
              <path d="M23.1,41.1 C23.1,41.1 24.1,41 25.6,40.9 C26.3,40.9 27.2,40.8 28.1,40.7 C29,40.6 30,40.6 31,40.4 C32,40.3 32.9,40.2 33.9,40 C34.8,39.8 35.6,39.6 36.3,39.4 C37,39.2 37.6,39 38,38.8 C38.4,38.6 38.6,38.6 38.6,38.6 C38.6,38.6 38.4,38.7 38,39 C37.8,39.1 37.6,39.2 37.3,39.4 C37,39.5 36.7,39.7 36.4,39.8 C35.7,40.1 34.9,40.4 34,40.6 C33,40.8 32,40.9 31,41.1 C30,41.2 29,41.3 28.1,41.3 C27.2,41.3 26.3,41.3 25.5,41.3 C24.1,41.2 23.1,41.1 23.1,41.1 Z" id="Shape_30_" fill="#D4DBE7"/>
            </g>
            <g id="Shape_31_" transform="translate(12.000000, 0.000000)">
              <path d="M18.5,13 C18.5,13 11.7,11.6 7.4,15.7 C3.1,19.8 0.1,18.5 0.1,18.5 C0.1,18.5 4.1,20.9 6.3,19.1 C6.3,19.1 0.8,21.6 0.3,26.2 L3.2,23.7 C3.2,23.7 -0.2,27.6 1.6,29.9 C1.6,29.9 4.1,24.6 7,23.1 C7,23.1 5.4,25.7 5.2,26.7 C5.2,26.7 12.8,25.9 15.2,20.1 C17.6,14.4 20.9,16.1 20.9,16.1 C20.9,16.1 22,14.1 18.5,13 Z" id="Path" fill="#FCCCBA"/>
              <path d="M5.3,26.7 C5.3,26.7 5.9,26.5 6.7,26.2 C7.6,25.9 8.7,25.5 9.7,25 C10.2,24.8 10.8,24.5 11.2,24.2 C11.4,24.1 11.7,23.9 11.9,23.8 C12.1,23.7 12.3,23.5 12.5,23.4 C12.8,23.1 13.2,22.9 13.3,22.7 C13.5,22.5 13.6,22.4 13.6,22.4 C13.6,22.4 13.5,22.5 13.4,22.8 C13.3,23 13,23.3 12.7,23.7 C12.4,24 12,24.4 11.5,24.7 C11,25 10.5,25.3 9.9,25.6 C9.3,25.8 8.8,26.1 8.2,26.2 C7.6,26.4 7.1,26.5 6.7,26.5 C5.9,26.7 5.3,26.7 5.3,26.7 Z" id="Path" fill="#E0A0A0"/>
              <path d="M7,23.1 C7,23.1 6.6,23.5 6,24.1 C5.4,24.7 4.7,25.5 4.1,26.4 C3.8,26.8 3.5,27.3 3.2,27.7 C2.9,28.1 2.6,28.5 2.4,28.9 C2.2,29.2 2,29.5 1.8,29.7 C1.7,29.9 1.6,30 1.6,30 C1.6,30 1.6,29.9 1.7,29.6 C1.8,29.4 1.9,29 2,28.6 C2.2,28.2 2.4,27.8 2.6,27.3 C2.9,26.8 3.2,26.4 3.5,25.9 C3.9,25.5 4.2,25 4.6,24.7 C5,24.3 5.4,24 5.7,23.8 C6.5,23.3 7,23.1 7,23.1 Z" id="Path" fill="#E0A0A0"/>
              <path d="M0.4,26.2 C0.4,26.2 0.3,25.5 0.5,24.5 C0.6,24 0.8,23.4 1.1,22.9 C1.4,22.3 1.8,21.8 2.3,21.3 C2.6,21.1 2.8,20.8 3.1,20.6 C3.4,20.4 3.6,20.2 3.9,20 C4.4,19.7 5,19.4 5.4,19.3 C5.9,19.1 6.3,19 6.6,19 C6.9,18.9 7,18.9 7,18.9 C7,18.9 6.9,19 6.6,19.1 C6.3,19.2 6,19.4 5.6,19.7 C5.4,19.8 5.2,20 4.9,20.1 C4.7,20.3 4.4,20.4 4.2,20.6 C3.7,21 3.2,21.4 2.8,21.8 C2.6,22 2.4,22.3 2.2,22.5 C2,22.7 1.8,23 1.7,23.2 C1.4,23.7 1.1,24.2 0.9,24.6 C0.5,25.5 0.4,26.2 0.4,26.2 Z" id="Path" fill="#E0A0A0"/>
              <path d="M0.1,18.5 C0.1,18.5 0.3,18.5 0.7,18.6 C1.1,18.6 1.6,18.6 2.2,18.5 C2.5,18.4 2.8,18.4 3.1,18.3 C3.4,18.2 3.8,18 4.1,17.9 C4.4,17.7 4.8,17.5 5.1,17.3 C5.4,17.1 5.8,16.8 6.1,16.5 C7.4,15.5 8.6,14.3 9.8,13.7 C10.4,13.4 10.9,13.3 11.3,13.3 C11.5,13.3 11.6,13.3 11.7,13.3 C11.8,13.3 11.9,13.3 11.9,13.3 C11.9,13.3 11.7,13.3 11.3,13.4 C10.9,13.5 10.5,13.7 10,14 C9,14.7 7.8,15.9 6.5,16.9 C6.2,17.2 5.9,17.4 5.5,17.7 C5.2,18 4.8,18.2 4.4,18.3 C3.7,18.6 2.9,18.8 2.3,18.8 C1.7,18.8 1.1,18.7 0.8,18.6 C0.3,18.6 0.1,18.5 0.1,18.5 Z" id="Path" fill="#E0A0A0"/>
              <path d="M15.7,16.8 C17.4,16.4 16.2,13.9 14.2,13.7 C14.2,13.7 14.8,11.9 12.3,10.7 C12.3,10.7 12,8.1 10.4,7.8 C10.4,7.8 10.8,6 8.5,5.2 C8.5,5.2 8.3,3.7 6.6,3.1 C6.6,3.1 5.5,1.3 4.4,0.9 C3.5,0.5 5,3.1 5,3.1 C5,3.1 5.1,5.1 6.2,5.3 C6.2,5.3 5.5,6.5 7.7,8 C7.7,8 7.1,9.5 9.5,10.8 C9.5,10.8 8.2,11.4 10.8,13.9 C10.8,13.9 10.5,16.8 12.7,16.8 C14.8,16.9 15.5,16.9 15.7,16.8 Z" id="Path" fill="#EFF4F9"/>
              <g id="Group" transform="translate(9.000000, 14.000000)">
                <path d="M7.7,0 C7.7,0 3.1,2.7 0.1,3.3 C0.1,3.3 4.5,5.5 7.3,3.1 C8,2.5 9,2.4 7.7,0 Z" id="Path" fill="#FCCCBA"/>
                <path d="M8.2,0.1 C8.2,0.1 7.8,0.3 7.2,0.7 C6.6,1 5.7,1.4 4.9,1.8 C4.1,2.2 3.2,2.6 2.6,2.9 C2.3,3.1 2,3.2 1.8,3.3 C1.6,3.4 1.5,3.5 1.5,3.5 C1.5,3.5 1.8,3.1 2.3,2.6 C2.9,2.1 3.7,1.7 4.6,1.3 C5.5,0.9 6.4,0.6 7.1,0.4 C7.7,0.2 8.2,0.1 8.2,0.1 Z" id="Path" fill="#E0A0A0"/>
              </g>
            </g>
            <g id="Shape_32_" transform="translate(31.000000, 0.000000)">
              <path d="M14.9,22.4 C14.9,22.4 17,17 10.1,9.8 C5.8,5.3 6.4,-0.3 4.3,0.6 C2.2,1.5 -2.7,17.6 5.8,23.1 C10.8,26.4 13.3,26.9 14.9,22.4 Z" id="Path" fill="#EFF4F9"/>
              <path d="M4.5,3.2 C4.5,3.2 4.5,3.5 4.4,4 C4.3,4.5 4.3,5.3 4.2,6.2 C4.2,6.6 4.2,7.1 4.1,7.6 C4.1,8.1 4.1,8.7 4.1,9.2 C4.1,10.3 4.1,11.5 4.3,12.7 C4.3,13.3 4.4,13.9 4.5,14.4 C4.6,15 4.7,15.5 4.9,16 C5,16.5 5.2,17 5.4,17.5 C5.6,18 5.9,18.4 6.1,18.7 C6.4,19 6.6,19.4 6.9,19.6 C7.2,19.8 7.4,20.1 7.6,20.2 C8.1,20.5 8.3,20.6 8.3,20.6 C8.3,20.6 8,20.5 7.5,20.3 C7.2,20.2 7,20 6.7,19.8 C6.4,19.6 6.1,19.3 5.8,18.9 C5.5,18.5 5.2,18.1 5,17.7 C4.9,17.5 4.8,17.2 4.6,17 C4.5,16.7 4.4,16.5 4.3,16.2 C4.1,15.7 4,15.1 3.9,14.5 C3.8,13.9 3.7,13.3 3.6,12.7 C3.5,11.5 3.5,10.3 3.5,9.1 C3.5,8 3.7,6.9 3.8,6 C4.1,4.4 4.5,3.2 4.5,3.2 Z" id="Path" fill="#D4DBE7"/>
            </g>
          </g>
          <g id="Group_6_" transform="translate(57.000000, 145.000000)">
            <path d="M12,3.5 C13.3,5.6 8.5,15.3 8.5,15.3 C2.2,9.9 4.3,7.9 3.2,6.8 C6.3,5.9 7.8,3.6 8.8,1.9 C9.8,2.5 12,3.5 12,3.5 Z" id="Shape_33_" fill="#BCC4D4"/>
            <path d="M6.2,0.7 C6.2,0.7 11.4,2.7 12.7,1.8 C12.7,1.8 11.7,3.5 9.4,2.8 C9.4,2.8 11.7,3.1 11.3,4.9 C11.3,4.9 9.6,4.1 7.4,3.7 C7.4,3.7 10.7,5.2 9.7,8 C9.7,8 9.3,6.8 7.6,6.1 C7.6,6.1 8,7.6 7.5,9.2 C7.5,9.2 6.7,8.2 5.7,7.1 C5.7,7.1 7,9.6 6.3,11.3 C6.3,11.3 5,10.9 4.6,9.5 C4.6,9.5 4.2,10.6 3.3,11.4 C3.3,11.4 1.7,6.1 0.5,4.1" id="Shape_34_" fill="#EFF4F9"/>
          </g>
          <path d="M78.1,73.3 C74.2,78.2 60.7,97.7 63.9,111 C63.9,111 49.9,121.7 48.4,123.5 C46.9,125.3 54,143.7 55.2,145.7 C56.4,147.7 58.5,151.1 58.5,151.1 L64.8,146.5 C64.8,146.5 63.7,145.6 61.5,142.8 C59.3,140 59.9,133.7 59.4,130.2 C59.4,130.2 83.9,126.3 84.8,121.3 C86.4,112.4 94.1,99.1 94.1,99.1" id="Shape_35_" fill="#EFF4F9"/>
          <path d="M73.6,127.1 C73.6,127.1 75.4,126.3 78.1,125.4 C79.5,124.9 81.1,124.4 82.7,123.6 C83.5,123.2 84.2,122.6 84.6,121.8 C85,121 85.1,120.1 85.3,119.1 C85.7,117.2 86.4,115.4 86.9,113.6 C87.5,111.9 88.1,110.3 88.7,109 C89.8,106.3 90.6,104.6 90.6,104.6 C90.6,104.6 90,106.4 89,109.2 C88.5,110.6 88,112.2 87.4,113.9 C86.8,115.6 86.3,117.5 85.9,119.3 C85.7,120.2 85.5,121.2 85.1,122.1 C84.6,123 83.8,123.7 83,124.1 C82.2,124.5 81.3,124.8 80.5,125.1 C79.7,125.3 79,125.6 78.3,125.8 C75.4,126.6 73.6,127.1 73.6,127.1 Z" id="Shape_36_" fill="#D4DBE7"/>
          <path d="M63.4,111.1 C63.4,111.1 63.2,109.5 63.3,107.1 C63.3,106.5 63.4,105.8 63.4,105.2 C63.5,104.5 63.5,103.8 63.6,103 C63.8,101.5 64,99.9 64.4,98.3 C64.6,97.5 64.8,96.7 65,96 C65.2,95.2 65.4,94.5 65.6,93.8 C65.8,93.1 66.1,92.4 66.3,91.7 C66.5,91 66.8,90.4 67,89.9 C67.4,88.8 67.9,87.9 68.2,87.3 C68.5,86.7 68.7,86.3 68.7,86.3 C68.7,86.3 68.6,86.7 68.3,87.3 C68.2,87.6 68,88 67.8,88.5 C67.6,89 67.5,89.5 67.3,90 C67.1,90.6 66.9,91.2 66.7,91.8 C66.5,92.5 66.3,93.1 66.1,93.9 C65.9,94.6 65.7,95.4 65.5,96.1 C65.3,96.9 65.1,97.6 65,98.4 C64.6,100 64.4,101.5 64.1,103 C63.9,104.5 63.7,105.9 63.6,107.1 C63.5,109.4 63.4,111.1 63.4,111.1 Z" id="Shape_37_" fill="#D4DBE7"/>
          <g id="Group_7_" transform="translate(96.000000, 73.000000)">
            <path d="M26.1,29.3 C24.3,43.1 25.1,63.3 25.1,63.3 C25.1,63.3 18,78.7 7.9,88.6 C3.7,92.7 -1,98 0.5,98.5 C1.6,98.9 6.3,101.2 8.2,100.3 C11.1,98.9 12.9,93.9 13.3,92.7 C14.6,88.6 44.1,66.5 41.6,61.6 C39.2,56.7 50.1,43.2 57.2,39.5 C69.8,32.9 81,5.1 63.3,0.8 C45.6,-3.7 28,14.1 26.1,29.3 Z" id="Shape_38_" fill="#EFF4F9"/>
            <path d="M24.9,63.1 C24.9,63.1 24.8,60 24.8,55.4 C24.8,53.1 24.8,50.4 24.7,47.5 C24.7,44.6 24.7,41.5 24.8,38.4 C24.8,36.9 24.9,35.3 25,33.8 C25.1,33 25.2,32.3 25.2,31.5 C25.3,30.8 25.4,30 25.5,29.3 C25.7,27.9 26.1,26.5 26.5,25.2 C26.9,23.9 27.4,22.8 28,21.7 C28.3,21.2 28.5,20.7 28.8,20.2 C29.1,19.8 29.3,19.3 29.6,18.9 C30.2,18.1 30.6,17.5 31,16.9 C31.8,15.8 32.3,15.2 32.3,15.2 C32.3,15.2 31.9,15.8 31.1,16.9 C30.7,17.4 30.3,18.2 29.8,18.9 C29.5,19.3 29.3,19.7 29.1,20.2 C28.8,20.7 28.6,21.1 28.3,21.7 C27.8,22.7 27.3,23.9 26.9,25.1 C26.5,26.4 26.2,27.7 26,29.1 C25.9,29.8 25.8,30.5 25.7,31.3 C25.6,32 25.6,32.8 25.5,33.5 C25.4,35 25.3,36.5 25.3,38.1 C25.2,41.2 25.2,44.3 25.1,47.2 C25.1,50.1 25,52.8 25,55.1 C25,57.4 24.9,59.3 24.8,60.7 C24.9,62.4 24.9,63.1 24.9,63.1 Z" id="Shape_39_" fill="#D4DBE7"/>
            <path d="M37.4,69 C37.4,69 37.5,68.9 37.8,68.7 C38,68.5 38.4,68.1 38.8,67.6 C39.2,67.1 39.7,66.5 40.2,65.8 C40.7,65.1 41.3,64.3 41.7,63.3 C41.8,63.1 41.9,62.8 41.9,62.6 C41.9,62.5 41.9,62.4 41.8,62.3 C41.7,62.2 41.7,62 41.6,61.9 C41.4,61.4 41.2,60.7 41.2,60.1 C41.1,58.8 41.5,57.5 42,56.3 C42.2,55.7 42.6,55 42.9,54.4 C43.2,53.8 43.5,53.2 43.9,52.5 C44.6,51.3 45.4,50 46.3,48.9 C48.1,46.6 50.3,44.8 52.5,43.2 C53.6,42.4 54.6,41.7 55.6,41 C56.6,40.3 57.5,39.6 58.4,38.9 C59.2,38.2 60,37.6 60.6,37 C61.2,36.4 61.8,35.9 62.3,35.5 C63.2,34.6 63.7,34.1 63.7,34.1 C63.7,34.1 63.2,34.6 62.3,35.5 C61.9,36 61.3,36.5 60.7,37.1 C60.1,37.7 59.3,38.4 58.5,39.1 C57.7,39.8 56.8,40.5 55.8,41.3 C54.8,42 53.8,42.8 52.7,43.6 C50.6,45.2 48.4,47 46.6,49.3 C45.7,50.4 45,51.6 44.3,52.8 C43.9,53.4 43.6,54 43.3,54.6 C43,55.2 42.7,55.8 42.4,56.4 C41.9,57.6 41.5,58.8 41.5,60 C41.5,60.6 41.6,61.2 41.8,61.7 C41.8,61.8 41.9,62 42,62.1 C42.1,62.2 42.1,62.5 42.1,62.6 C42.1,62.9 41.9,63.2 41.8,63.4 C41.3,64.4 40.7,65.2 40.2,65.9 C39.7,66.6 39.2,67.2 38.8,67.6 C38.4,68.1 38,68.4 37.8,68.6 C37.5,68.9 37.4,69 37.4,69 Z" id="Shape_40_" fill="#D4DBE7"/>
          </g>
          <g id="Group_8_" transform="translate(93.000000, 169.000000)">
            <path d="M10.2,8.2 C7.5,8.7 3.5,9.6 0.8,8.5 C0.8,8.5 1.3,5 2.5,2.3 C5.5,3.4 9.4,4 11.6,4.3 C10.6,6.1 10.2,8.2 10.2,8.2 Z" id="Shape_41_" fill="#BCC4D4"/>
            <path d="M12.9,3 C12.9,3 11.4,5.5 12.2,7.6 C12.2,7.6 10.9,6.9 10.8,5.4 C10.8,5.4 10.2,7.2 8.8,7 C8.8,7 9.4,5.4 8.8,4.5 C8.8,4.5 7.8,6.5 6.6,6.4 C6.6,6.4 7.5,4.2 7.1,3.3 C7.1,3.3 5,4.4 4.8,6.2 C4.8,6.2 4.1,4.8 4.7,3.8 C4.7,3.8 2.9,4.3 2.8,5.5 C2.8,5.5 2.4,3.6 3.7,2.4 C3.7,2.4 2.3,4.2 0.4,3.2 C0.4,3.2 2.6,2.9 3.9,0.7" id="Shape_42_" fill="#EFF4F9"/>
          </g>
        </g>
      </g>
    </g>
  </g>
</svg>