<svg version="1.1" width="156" height="121" viewBox="-1 -1 156 121" xmlns="http://www.w3.org/2000/svg" xmlns:xlink="http://www.w3.org/1999/xlink">
  <!-- Exported by Scratch - http://scratch.mit.edu/ -->
  <g id="ID0.9362249937839806" transform="matrix(1, 0, 0, 1, 0, 0.75)">
    <g id="Page-1">
      <g id="dorian-d-[sports,basketball,people,alex-eben-meyer]">
        <g id="Right-Arm">
          <path id="Shape" fill="#E6BE6E" stroke="none" stroke-width="1" d="M 55.932 8.462 C 55.804 7.102 49.636 8.063 49.656 5.930 C 49.676 3.797 55.225 4.336 54.450 3.562 C 54.007 3.108 25.144 2.976 0.643 2.793 L 0.643 13.198 C 20.402 13.545 41.523 13.800 41.854 13.804 C 44.683 13.804 54.274 13.780 54.007 13.058 C 53.739 12.337 49.472 12.333 49.800 10.615 C 50.128 8.896 56.060 9.825 55.932 8.462 Z " transform="matrix(1, 0, 0, 1, 99, 39)"/>
          <path id="Shape" fill="#BE965A" stroke="none" stroke-width="1" d="M 45.482 3.355 C 45.765 2.936 46.149 2.956 46.512 2.761 C 47.926 1.963 49.476 1.019 49.468 0.369 C 49.468 -0.429 39.250 1.441 40.680 7.266 C 41.842 12.010 46.348 9.849 46.077 5.420 C 46.037 4.854 45.214 3.777 45.482 3.355 Z " transform="matrix(1, 0, 0, 1, 99, 39)"/>
        </g>
        <g id="Left-Arm">
          <path id="Shape" fill="#E6BE6E" stroke="none" stroke-width="1" d="M 60.957 2.955 C 35.538 3.163 2.313 3.278 1.834 3.753 C 1.067 4.550 6.627 3.972 6.627 6.121 C 6.627 8.270 0.475 7.293 0.348 8.652 C 0.220 10.012 6.148 9.083 6.476 10.805 C 6.803 12.528 2.533 12.524 2.265 13.249 C 1.997 13.975 11.589 14.007 14.417 13.995 C 14.781 13.995 39.861 13.684 60.941 13.293 L 60.957 2.955 Z " transform="matrix(1, 0, 0, 1, 0, 38)"/>
          <path id="Shape" fill="#BE965A" stroke="none" stroke-width="1" d="M 10.818 3.557 C 10.534 3.139 10.147 3.159 9.783 2.963 C 8.373 2.166 6.819 1.221 6.827 0.571 C 6.827 -0.226 17.046 1.644 15.616 7.468 C 14.453 12.213 9.951 10.052 10.219 5.623 C 10.259 5.056 11.098 3.980 10.818 3.557 Z " transform="matrix(1, 0, 0, 1, 0, 38)"/>
        </g>
        <path id="Shape" fill="#006482" stroke="none" stroke-width="1" d="M 65.404 72.128 L 58.325 76.114 C 59.064 81.297 71.839 84.454 82.649 85.144 C 93.459 85.834 103.650 80.173 103.650 80.173 L 65.404 72.128 Z "/>
        <path id="Rectangle-path" fill="#281446" stroke="none" stroke-width="1" d="M 67.589 69.771 L 93.368 69.771 L 93.368 81.736 L 67.589 81.736 L 67.589 69.771 Z "/>
        <g id="Right-Leg">
          <path id="Shape" fill="#E6BE6E" stroke="none" stroke-width="1" d="M 27.660 23.759 L 33.884 21.411 C 33.884 21.411 32.893 16.540 29.258 13.649 C 25.622 10.759 17.785 7.701 17.785 7.701 L 5.025 11.086 L 22.570 21.882 L 27.660 23.759 Z " transform="matrix(1, 0, 0, 1, 81, 70)"/>
          <path id="Shape" fill="#FAF0E6" stroke="none" stroke-width="1" d="M 23.593 35.313 L 34.263 21.184 L 22.067 21.619 L 14.301 35.130 L 19.610 36.617 L 23.593 35.313 " transform="matrix(1, 0, 0, 1, 81, 70)"/>
          <path id="Shape" fill="#281446" stroke="none" stroke-width="1" d="M 27.208 9.220 L 9.999 0.629 L 0.611 10.827 L 17.896 22.316 L 27.208 9.220 " transform="matrix(1, 0, 0, 1, 81, 70)"/>
          <path id="Shape" fill="#00A0DC" stroke="none" stroke-width="1" d="M 24.280 48.780 L 17.673 47.923 L 6.307 48.545 L 6.543 49.841 L 24.592 49.972 L 24.280 48.780 " transform="matrix(1, 0, 0, 1, 81, 70)"/>
          <path id="Shape" fill="#281446" stroke="none" stroke-width="1" d="M 23.098 47.492 C 21.904 47.428 20.717 47.286 19.542 47.066 L 24.736 34.559 L 13.490 34.559 L 6.299 48.545 L 24.276 48.780 C 24.118 48.442 23.985 48.093 23.877 47.736 C 23.628 47.622 23.367 47.540 23.098 47.492 Z " transform="matrix(1, 0, 0, 1, 81, 70)"/>
          <path id="Oval" fill="#00A0DC" stroke="none" stroke-width="1" d="M 15.931 37.099 C 16.778 37.099 17.546 37.443 18.103 37.998 C 18.659 38.553 19.003 39.319 19.003 40.165 C 19.003 41.011 18.659 41.777 18.103 42.332 C 17.546 42.887 16.778 43.231 15.931 43.231 C 15.083 43.231 14.315 42.887 13.759 42.332 C 13.203 41.777 12.859 41.011 12.859 40.165 C 12.859 39.319 13.203 38.553 13.759 37.998 C 14.315 37.443 15.083 37.099 15.931 37.099 Z " transform="matrix(1, 0, 0, 1, 81, 70)"/>
          <path id="Shape" fill="#006482" stroke="none" stroke-width="1" d="M 21.032 37.542 L 24.084 37.542 L 24.340 36.764 L 21.172 36.764 L 21.032 37.542 " transform="matrix(1, 0, 0, 1, 81, 70)"/>
          <path id="Shape" fill="#00A0DC" stroke="none" stroke-width="1" d="M 20.685 39.359 L 23.741 39.359 L 23.993 38.578 L 20.825 38.578 L 20.685 39.359 " transform="matrix(1, 0, 0, 1, 81, 70)"/>
          <path id="Shape" fill="#006482" stroke="none" stroke-width="1" d="M 20.337 41.173 L 23.393 41.173 L 23.645 40.392 L 20.477 40.392 L 20.337 41.173 " transform="matrix(1, 0, 0, 1, 81, 70)"/>
          <path id="Shape" fill="#00A0DC" stroke="none" stroke-width="1" d="M 19.994 42.987 L 23.046 42.987 L 23.297 42.206 L 20.134 42.206 L 19.994 42.987 " transform="matrix(1, 0, 0, 1, 81, 70)"/>
          <path id="Shape" fill="#006482" stroke="none" stroke-width="1" d="M 19.646 44.801 L 22.702 44.801 L 22.954 44.024 L 19.786 44.024 L 19.646 44.801 " transform="matrix(1, 0, 0, 1, 81, 70)"/>
        </g>
        <g id="Left-Leg">
          <path id="Shape" fill="#E6BE6E" stroke="none" stroke-width="1" d="M 6.672 23.759 L 0.448 21.411 C 0.448 21.411 1.906 16.540 5.526 13.649 C 9.145 10.759 16.523 7.701 16.523 7.701 L 29.283 11.086 L 11.734 21.882 L 6.672 23.759 Z " transform="matrix(1, 0, 0, 1, 46, 70)"/>
          <path id="Shape" fill="#FAF0E6" stroke="none" stroke-width="1" d="M 10.731 35.313 L 0.057 21.184 L 12.253 21.619 L 20.019 35.130 L 14.714 36.617 L 10.731 35.313 " transform="matrix(1, 0, 0, 1, 46, 70)"/>
          <path id="Shape" fill="#281446" stroke="none" stroke-width="1" d="M 7.115 9.220 L 25.156 0.393 L 33.709 10.827 L 16.423 22.316 L 7.115 9.220 " transform="matrix(1, 0, 0, 1, 46, 70)"/>
          <path id="Shape" fill="#00A0DC" stroke="none" stroke-width="1" d="M 10.044 48.780 L 16.651 47.923 L 28.016 48.545 L 27.777 49.841 L 9.728 49.972 L 10.044 48.780 " transform="matrix(1, 0, 0, 1, 46, 70)"/>
          <path id="Shape" fill="#281446" stroke="none" stroke-width="1" d="M 11.226 47.492 C 12.418 47.428 13.604 47.285 14.778 47.066 L 9.584 34.559 L 20.834 34.559 L 28.024 48.545 L 10.048 48.780 C 10.205 48.442 10.339 48.093 10.447 47.736 C 10.696 47.623 10.957 47.541 11.226 47.492 Z " transform="matrix(1, 0, 0, 1, 46, 70)"/>
          <path id="Oval" fill="#00A0DC" stroke="none" stroke-width="1" d="M 18.393 37.099 C 19.240 37.099 20.008 37.443 20.565 37.998 C 21.121 38.553 21.465 39.319 21.465 40.165 C 21.465 41.011 21.121 41.777 20.565 42.332 C 20.008 42.887 19.240 43.231 18.393 43.231 C 17.545 43.231 16.777 42.887 16.221 42.332 C 15.665 41.777 15.321 41.011 15.321 40.165 C 15.321 39.319 15.665 38.553 16.221 37.998 C 16.777 37.443 17.545 37.099 18.393 37.099 Z " transform="matrix(1, 0, 0, 1, 46, 70)"/>
          <path id="Shape" fill="#006482" stroke="none" stroke-width="1" d="M 13.291 37.542 L 10.235 37.542 L 9.984 36.764 L 13.152 36.764 L 13.291 37.542 " transform="matrix(1, 0, 0, 1, 46, 70)"/>
          <path id="Shape" fill="#00A0DC" stroke="none" stroke-width="1" d="M 13.635 39.359 L 10.583 39.359 L 10.331 38.578 L 13.499 38.578 L 13.635 39.359 " transform="matrix(1, 0, 0, 1, 46, 70)"/>
          <path id="Shape" fill="#006482" stroke="none" stroke-width="1" d="M 13.983 41.173 L 10.931 41.173 L 10.675 40.392 L 13.843 40.392 L 13.983 41.173 " transform="matrix(1, 0, 0, 1, 46, 70)"/>
          <path id="Shape" fill="#00A0DC" stroke="none" stroke-width="1" d="M 14.330 42.987 L 11.274 42.987 L 11.022 42.206 L 14.190 42.206 L 14.330 42.987 " transform="matrix(1, 0, 0, 1, 46, 70)"/>
          <path id="Shape" fill="#006482" stroke="none" stroke-width="1" d="M 14.678 44.801 L 11.622 44.801 L 11.370 44.024 L 14.538 44.024 L 14.678 44.801 " transform="matrix(1, 0, 0, 1, 46, 70)"/>
        </g>
        <path id="Shape" fill="#00A0DC" stroke="none" stroke-width="1" d="M 106.994 40.473 C 106.994 40.473 56.152 39.967 52.880 40.043 L 52.880 52.290 C 55.524 52.465 59.739 52.481 63.738 52.441 C 61.281 62.591 58.325 76.102 58.325 76.102 C 60.893 77.071 64.836 76.501 67.581 76.557 C 71.508 76.625 75.443 76.557 79.362 76.676 C 87.016 76.932 96.212 77.171 103.866 76.756 C 103.355 75.560 98.705 61.934 95.836 53.510 C 99.516 53.637 103.758 53.833 106.994 53.821 L 106.994 40.473 Z "/>
        <g id="Head">
          <path id="Shape" fill="#642800" stroke="none" stroke-width="1" d="M 8.309 29.785 C 8.309 29.785 6.356 28.712 5.361 24.486 C 4.646 21.437 4.474 15.524 5.685 12.977 C 8.577 6.893 11.505 3.688 11.505 3.688 L 15.931 19.535 L 8.309 29.785 Z " transform="matrix(1, 0, 0, 1, 62, 0)"/>
          <path id="Shape" fill="#642800" stroke="none" stroke-width="1" d="M 29.055 29.789 C 29.055 29.789 32.182 18.056 29.454 12.327 C 26.726 6.598 23.665 5.625 23.665 5.625 L 20.617 14.930 L 29.055 29.789 Z " transform="matrix(1, 0, 0, 1, 62, 0)"/>
          <path id="Shape" fill="#E6BE6E" stroke="none" stroke-width="1" d="M 27.413 32.436 C 27.850 30.263 28.117 28.060 28.212 25.846 C 30.405 22.433 36.153 21.102 35.598 26.807 C 35.187 30.901 31.611 33.907 27.413 32.436 Z " transform="matrix(1, 0, 0, 1, 62, 0)"/>
          <path id="Shape" fill="#E6BE6E" stroke="none" stroke-width="1" d="M 9.256 32.456 C 7.528 32.558 5.795 32.368 4.131 31.894 C 2.747 31.405 1.603 30.407 0.935 29.103 C 0.240 27.883 -0.108 25.439 2.193 24.084 C 4.494 22.728 6.987 24.355 7.786 25.678 C 8.517 26.910 9.000 30.989 9.256 32.456 Z " transform="matrix(1, 0, 0, 1, 62, 0)"/>
          <path id="Shape" fill="#E6BE6E" stroke="none" stroke-width="1" d="M 24.880 16.621 L 10.666 16.565 C 9.376 18.251 7.071 21.831 6.771 24.937 C 6.771 25.072 6.508 30.375 8.461 34.054 C 9.552 36.108 12.016 37.244 13.934 37.690 C 18.484 38.775 24.652 37.894 27.644 33.799 C 28.807 32.205 28.931 30.634 29.039 29.314 C 29.798 19.934 26.570 17.841 24.880 16.621 Z " transform="matrix(1, 0, 0, 1, 62, 0)"/>
          <path id="Shape" fill="#642800" stroke="none" stroke-width="1" d="M 27.485 18.738 C 25.711 19.328 9.995 19.989 8.153 19.718 C 7.754 17.207 17.741 0.211 17.741 0.211 C 17.741 0.211 27.485 16.258 27.485 18.738 Z " transform="matrix(1, 0, 0, 1, 62, 0)"/>
          <path id="Shape" fill="#BE965A" stroke="none" stroke-width="1" d="M 18.444 27.584 C 19.415 28.742 20.108 30.106 20.474 31.571 C 18.980 32.081 16.782 32.300 15.280 31.798 C 15.264 30.327 15.999 27.540 18.444 27.584 Z " transform="matrix(1, 0, 0, 1, 62, 0)"/>
          <path id="Shape" fill="#000000" stroke="none" stroke-width="1" d="M 16.511 34.684 C 16.571 34.858 16.667 35.017 16.794 35.151 C 17.509 35.139 18.225 35.172 18.936 35.250 C 18.960 35.237 18.983 35.221 19.003 35.203 C 19.159 35.079 19.232 34.879 19.191 34.684 C 18.320 34.652 17.394 34.684 16.511 34.684 Z " transform="matrix(1, 0, 0, 1, 62, 0)"/>
          <path id="Shape" fill="#000000" stroke="none" stroke-width="1" d="M 11.365 28.453 C 10.383 28.453 10.766 27.062 11.014 26.548 C 11.130 26.458 11.277 26.419 11.422 26.439 C 11.567 26.459 11.698 26.537 11.785 26.655 C 11.934 27.287 11.778 27.952 11.365 28.453 Z " transform="matrix(1, 0, 0, 1, 62, 0)"/>
          <path id="Shape" fill="#000000" stroke="none" stroke-width="1" d="M 24.456 28.589 C 23.482 28.716 23.657 27.297 23.837 26.751 C 23.940 26.647 24.080 26.588 24.227 26.588 C 24.373 26.588 24.513 26.647 24.616 26.751 C 24.855 27.355 24.796 28.035 24.456 28.589 Z " transform="matrix(1, 0, 0, 1, 62, 0)"/>
        </g>
      </g>
    </g>
  </g>
</svg>