<svg width="74px" height="25px" viewBox="0 0 74 25" version="1.1" xml:space="preserve" xmlns="http://www.w3.org/2000/svg" xmlns:xlink="http://www.w3.org/1999/xlink">
  <!-- Generator: Sketch 49.3 (51167) - http://www.bohemiancoding.com/sketch -->
  <defs/>
  <g>
    <title>bread</title>
    <desc>Created with Sketch.</desc>
    <g id="bread" stroke="none" stroke-width="1" fill="none" fill-rule="evenodd">
      <g id="Bread" transform="translate(1.000000, 1.000000)" fill-rule="nonzero">
        <g id="Group">
          <path d="M35.1,21.5 C13.8,20 -1.5,20.5 1.3,10.6 C4.1,0.7 32.3,1 44.7,1 C57.1,1 72.4,6.6 70.6,16 C69.5,21 42.2,22 35.1,21.5 Z" id="Shape" fill="#E8AE68"/>
          <path d="M70.7,14.5 C68.5,15.1 64.7,17 63.3,17 C61.6,17 60.2,17.1 58.7,17.8 C57.2,18.5 49.7,16.9 47.8,18 C45.8,19.1 42,18.6 40.7,18.4 C39.4,18.2 38.1,18.4 36,18.9 C33.9,19.4 26.9,16.9 24.6,16.9 C22.2,16.9 22.1,17.5 20,17.5 C17.9,17.5 16.7,16.3 13.3,17.3 C9.9,18.3 6.4,15.9 5,14.8 C3.8,13.8 2.7,14.1 1.1,14.3 C3,20.4 16.8,20.2 34.9,21.5 C42.2,22 69.5,21 70.5,16 C70.6,15.5 70.7,15 70.7,14.5 Z" id="Shape" fill="#D69A51"/>
          <path d="M19.8,2.1 C18.8,3.8 18.2,6.2 19.1,9.7 C19.1,9.7 21.4,5.1 25,1.6 C23.2,1.7 21.5,1.8 19.8,2.1 Z" id="Shape" fill="#F2C083"/>
          <path d="M38.8,1 C37.2,1 35.4,1 33.6,1.1 C32.3,2.8 31.2,5.5 32.3,9.6 C32.3,9.6 34.8,4.5 38.8,1 Z" id="Shape" fill="#F2C083"/>
          <path d="M51.2,1.5 C49.6,1.3 48,1.1 46.5,1.1 C45,2.7 43.5,5.5 44.7,10.2 C44.7,10.1 47.3,5 51.2,1.5 Z" id="Shape" fill="#F2C083"/>
          <path d="M8.1,19 C8.1,19 9.3,19.2 11.5,19.5 C13.6,19.8 16.7,20.1 20.4,20.4 C24.1,20.7 28.4,20.9 33,21.1 C35.3,21.2 37.7,21.3 40.1,21.3 C42.5,21.3 45,21.2 47.4,21.1 C52.3,20.9 57.2,20.4 61.8,19.6 C64.1,19.2 66.2,18.7 68.2,17.9 C69.1,17.5 70.1,16.9 70.4,16.1 C70.5,15.2 70.5,14.2 70.4,13.3 C70.2,11.5 69.3,10 68.3,8.9 C67.3,7.8 66.3,7 65.4,6.4 C64.5,5.8 63.8,5.4 63.3,5.1 C62.8,4.8 62.5,4.7 62.5,4.7 C62.5,4.7 62.8,4.8 63.3,5.1 C63.8,5.4 64.6,5.7 65.5,6.3 C66.4,6.9 67.5,7.6 68.5,8.7 C69.5,9.8 70.5,11.3 70.8,13.2 C70.9,14.1 71,15.1 70.8,16.2 C70.6,16.8 70.2,17.2 69.8,17.5 C69.4,17.8 68.9,18.1 68.4,18.3 C66.4,19.2 64.2,19.7 61.9,20.2 C57.3,21.1 52.4,21.5 47.5,21.8 C45,21.9 42.5,22 40,22 C37.6,22 35.2,21.9 32.9,21.8 C28.3,21.6 24,21.3 20.3,20.9 C16.6,20.5 13.6,20.1 11.4,19.7 C9.3,19.3 8.1,19 8.1,19 Z" id="Shape" fill="#AD7939"/>
          <path d="M46.2,17.5 C44.9,17.6 44.2,16.4 45.3,16.3 C46.4,16.2 47.8,17.4 46.2,17.5 Z" id="Shape" fill="#D69A51"/>
          <path d="M35,18 C33.7,18.1 35.1,17.2 36.1,17.3 C37.1,17.4 36.2,17.9 35,18 Z" id="Shape" fill="#D69A51"/>
          <path d="M57.8,17.3 C56.7,17.4 56.9,15.5 59.2,15.5 C61.5,15.5 59.5,17.2 57.8,17.3 Z" id="Shape" fill="#D69A51"/>
          <path d="M56.1,16.3 C54.9,16.9 54.6,16.7 54.9,16.2 C55.2,15.7 56.7,16 56.1,16.3 Z" id="Shape" fill="#D69A51"/>
          <path d="M11.2,16.5 C9.4,16.6 7.7,15.2 9.3,15.1 C10.9,15 12.4,16.4 11.2,16.5 Z" id="Shape" fill="#D69A51"/>
          <path d="M13.1,16.5 C12.2,16.3 11.9,15.1 12.7,15.1 C13.5,15.1 14.1,16.7 13.1,16.5 Z" id="Shape" fill="#D69A51"/>
          <path d="M29.5,17.4 C28.6,17.7 28.2,16.5 29.2,16.5 C30.2,16.5 30.1,17.2 29.5,17.4 Z" id="Shape" fill="#D69A51"/>
          <path d="M68.1,14.4 C66.9,14.4 67.5,13.1 68.6,13.1 C69.7,13.1 69.3,14.4 68.1,14.4 Z" id="Shape" fill="#D69A51"/>
        </g>
        <path d="M44.7,10.1 C44.7,10.1 45,9.5 45.4,8.6 C45.6,8.2 45.9,7.6 46.3,7.1 C46.6,6.6 47,6 47.4,5.4 C48.2,4.3 49.1,3.3 49.9,2.6 C50.7,1.9 51.3,1.5 51.3,1.5 C51.3,1.5 51.2,1.6 51,1.9 C50.8,2.1 50.5,2.5 50.2,2.8 C49.9,3.2 49.5,3.7 49.1,4.2 C48.7,4.7 48.3,5.2 47.9,5.8 C47.1,6.9 46.3,8 45.7,8.8 C45.1,9.6 44.7,10.1 44.7,10.1 Z" id="Shape" fill="#D69A51"/>
        <g id="Group" transform="translate(19.000000, 1.000000)" fill="#D69A51">
          <path d="M13.3,8.6 C13.3,8.6 13.6,8 14,7.1 C14.5,6.2 15.2,5 16,3.9 C16.8,2.8 17.7,1.7 18.4,1 C19.2,0.4 19.8,0 19.8,0 C19.8,0 19.7,0.1 19.5,0.4 C19.3,0.6 19,0.9 18.7,1.3 C18.1,2.1 17.3,3.2 16.5,4.3 C15.7,5.4 14.9,6.5 14.3,7.3 C13.7,8.1 13.3,8.6 13.3,8.6 Z" id="Shape"/>
          <path d="M0.1,8.6 C0.1,8.6 0.3,8 0.8,7.2 C1.2,6.4 1.9,5.3 2.6,4.2 C3.3,3.2 4.1,2.2 4.8,1.5 C5.5,0.8 6,0.5 6,0.5 C6,0.5 5.9,0.6 5.7,0.8 C5.5,1 5.3,1.3 5,1.7 C4.5,2.5 3.7,3.5 3,4.5 C2.3,5.5 1.6,6.5 1,7.3 C0.5,8.1 0.1,8.6 0.1,8.6 Z" id="Shape"/>
        </g>
      </g>
    </g>
  </g>
</svg>