<svg version="1.1" width="161" height="137" viewBox="-1 -1 161 137" xmlns="http://www.w3.org/2000/svg" xmlns:xlink="http://www.w3.org/1999/xlink">
  <!-- Exported by Scratch - http://scratch.mit.edu/ -->
  <g id="ID0.6214102567173541" transform="matrix(0.7737809419631958, 0, 0, 0.7737809419631958, -0.05, 0.4)">
    <g id="ID0.2265301109291613">
      <path id="ID0.36331856762990355" fill="#000000" stroke="none" stroke-linecap="round" d="M 118.750 224.500 C 136.062 224.500 151.750 226.713 163.109 230.288 C 174.469 233.864 181.500 238.801 181.500 244.250 C 181.500 249.699 174.469 254.636 163.109 258.212 C 151.750 261.787 136.062 264 118.750 264 C 101.438 264 85.750 261.787 74.391 258.212 C 63.031 254.636 56 249.699 56 244.250 C 56 238.801 63.031 233.864 74.391 230.288 C 85.750 226.713 101.438 224.500 118.750 224.500 Z " transform="matrix(0.8028897643089294, 0, 0, 1.1626006364822388, -37.25, -194.55)"/>
      <path id="ID0.3923717634752393" fill="#663B00" stroke="#000000" stroke-width="2" stroke-linecap="round" d="M 103.250 110.150 L 248.750 101.750 C 297.202 98.953 283.324 103.967 295.450 114.600 C 305.898 123.763 305.411 140.253 308.050 153.300 C 312.449 175.412 318.929 197.906 316.500 219.750 C 314.956 233.565 307.390 246.807 297.150 256.750 C 282.849 270.612 264.660 283.102 245.400 286.750 C 214.578 292.580 181.704 293.028 151.200 285.750 C 129.127 280.477 108.896 267.400 92.750 251.700 C 82.344 241.551 76.216 227.397 75.100 213.850 C 73.439 192.553 79.326 170.982 84.750 151.350 C 88.759 136.855 88.833 114.427 103.250 110.150 Z " transform="matrix(0.46081894636154175, 0, 0, 0.46081894636154175, -33.8, -38.95)"/>
      <path id="ID0.7147510801441967" fill="none" stroke="#FFE9CC" stroke-width="7" stroke-linecap="round" d="M 95 130 C 88.558 159.860 83.366 169.321 83.500 189.500 C 83.570 199.814 96 218 96 218 " transform="matrix(0.7750974297523499, 0, 0, 0.7750974297523499, -39.55, -78.75)"/>
      <path id="ID0.524744383059442" fill="none" stroke="#FFE9CC" stroke-width="7" stroke-linecap="round" d="M 136 221 C 136 221 141.754 199.074 141.500 187.500 C 141.094 168.997 133.500 132.500 133.500 132.500 " transform="matrix(0.7750974297523499, 0, 0, 0.7750974297523499, -39.55, -78.75)"/>
      <path id="ID0.6405112035572529" fill="none" stroke="#FFE9CC" stroke-width="7" stroke-linecap="round" d="M 157 132 C 157 132 168.100 165 167.500 182 C 167.050 194.700 152.565 216.477 155 217 C 157.514 217.570 181.032 199.513 184 185.500 C 188.041 165.570 174 125 174 125 " transform="matrix(0.7750974297523499, 0, 0, 0.7750974297523499, -40.3, -77.95)"/>
      <path id="ID0.524744383059442" fill="none" stroke="#FFE9CC" stroke-width="7" stroke-linecap="round" d="M 135.250 222 C 135.250 222 127.843 195.714 127.750 182.500 C 127.695 165.739 133.500 132.500 133.500 132.500 " transform="matrix(0.7750974297523499, 0, 0, 0.7750974297523499, -52.15, -78.35)"/>
      <path id="ID0.6905003897845745" fill="none" stroke="#FFE9CC" stroke-width="7" stroke-linecap="round" d="M 72.500 126 C 72.500 126 65.700 144.350 64.500 154 C 63 165.650 59.100 179.050 64 190 C 69.300 201.950 81.503 210.456 92.500 216.500 C 101.579 221.549 112.721 221.530 123 223 C 126.794 223.543 130.371 222.463 134 222 C 139.532 221.796 145.274 222.186 150.500 221 C 152.754 220.486 156.500 217.500 156.500 217.500 " transform="matrix(0.7750974297523499, 0, 0, 0.7750974297523499, -39.55, -78.75)"/>
      <path id="ID0.4903492908924818" fill="#FFFFFF" stroke="#000000" stroke-width="3" d="M 187 81 C 212.106 81 234.856 84.081 251.330 89.060 C 267.803 94.038 278 100.913 278 108.500 C 278 116.087 267.803 122.962 251.330 127.940 C 234.856 132.919 212.106 136 187 136 C 161.894 136 139.144 132.919 122.670 127.940 C 106.197 122.962 96 116.087 96 108.500 C 96 100.913 106.197 94.038 122.670 89.060 C 139.144 84.081 161.894 81 187 81 Z " transform="matrix(0.5032169818878174, 0, 0, 0.4123116433620453, -37.4, -32.3)"/>
      <path id="ID0.05982814775779843" fill="#000000" stroke="#000000" stroke-width="2" d="M 198.500 101 C 206.915 101 214.540 102.065 220.061 103.784 C 225.582 105.504 229 107.879 229 110.500 C 229 113.121 225.582 115.496 220.061 117.216 C 214.540 118.935 206.915 120 198.500 120 C 190.085 120 182.460 118.935 176.939 117.216 C 171.418 115.496 168 113.121 168 110.500 C 168 107.879 171.418 105.504 176.939 103.784 C 182.460 102.065 190.085 101 198.500 101 Z " transform="matrix(0.46081894636154175, 0, 0, 0.46081894636154175, -33.8, -38.95)"/>
      <path id="ID0.23072667652741075" fill="none" stroke="#FFFFFF" stroke-width="4" stroke-linecap="round" d="M 62.500 214 C 62.500 214 69.280 223.588 74 226 C 84.039 231.125 94.830 235.521 106 237 C 121.770 239.087 137.876 239.215 153.500 237 C 163.143 235.314 172.435 230.998 180.500 225.500 C 184.625 222.686 189 213 189 213 " transform="matrix(0.7750974297523499, 0, 0, 0.7750974297523499, -39.55, -78.75)"/>
    </g>
    <g id="ID0.06147985206916928">
      <path id="ID0.36331856762990355" fill="#000000" stroke="none" stroke-linecap="round" d="M 118.750 224.500 C 136.062 224.500 151.750 226.713 163.109 230.288 C 174.469 233.864 181.500 238.801 181.500 244.250 C 181.500 249.699 174.469 254.636 163.109 258.212 C 151.750 261.787 136.062 264 118.750 264 C 101.438 264 85.750 261.787 74.391 258.212 C 63.031 254.636 56 249.699 56 244.250 C 56 238.801 63.031 233.864 74.391 230.288 C 85.750 226.713 101.438 224.500 118.750 224.500 Z " transform="matrix(0.5721652507781982, 0, 0, 0.8680615425109863, 55.25, -92.8)"/>
      <path id="ID0.0939373173750937" fill="#663B00" stroke="#000000" stroke-width="2" stroke-linecap="round" d="M 281.500 136 L 281.800 136.300 C 281.733 136.899 321.621 136.254 341.500 136 C 346.470 135.937 343.504 135.681 344.500 135.500 C 347.167 135.015 349.842 134.532 352.500 134 C 354.005 133.699 355.483 133.233 357 133 C 357.658 132.899 358.334 133 359 133 C 360.498 133 362.005 132.893 363.500 133 C 364.347 133.060 365.156 133.406 366 133.500 C 366.662 133.574 367.347 133.369 368 133.500 C 369.033 133.707 369.967 134.293 371 134.500 C 371.653 134.631 372.334 134.500 373 134.500 C 373.666 134.500 374.345 134.623 375 134.500 C 377.024 134.120 379.125 133.852 381 133 C 381.469 132.787 380.189 128.272 380.500 132 C 381.744 146.914 383.241 161.851 384.650 176.750 C 387.170 203.393 394.607 230.088 392.300 256.750 C 391.461 266.441 382.839 274.198 375.650 280.750 C 368.765 287.024 359.913 291.096 351.150 294.250 C 345.482 296.285 339.374 296.116 333.450 296.300 C 326.103 296.032 318.374 296.311 311.500 294 C 302.672 291.031 293.834 286.830 287 280.500 C 279.464 273.520 270.386 265.333 269.500 255.100 C 267.230 228.872 275.286 202.686 278 176.500 C 279.448 162.526 280.678 148.487 282 134.500 Z " transform="matrix(0.46081894636154175, 0, 0, 0.45810139179229736, -29.3, -9.35)"/>
      <path id="ID0.6405112035572529" fill="none" stroke="#FFE9CC" stroke-width="5" stroke-linecap="round" d="M 162.150 129.500 C 162.150 129.500 168.664 170.673 169.150 191 C 169.343 198.835 161.739 213.821 164.150 214 C 166.564 214.180 180.626 201.300 181.650 192 C 184.046 170.236 174.150 126.500 174.150 126.500 " transform="matrix(0.7750974297523499, 0, 0, 0.7750974297523499, 2.5, -42.3)"/>
      <path id="ID0.6405112035572529" fill="none" stroke="#FFE9CC" stroke-width="5" stroke-linecap="round" d="M 162.150 129.500 C 162.150 129.500 168.664 170.673 169.150 191 C 169.343 198.835 161.739 213.821 164.150 214 C 166.564 214.180 180.626 201.300 181.650 192 C 184.046 170.236 174.150 126.500 174.150 126.500 " transform="matrix(-0.7750974297523499, 0, 0, 0.7750974297523499, 244.15, -41.7)"/>
      <path id="ID0.3397635603323579" fill="#FFFFFF" stroke="#000000" stroke-width="2" d="M 323 106 C 334.863 106 345.613 107.737 353.398 110.543 C 361.182 113.349 366 117.224 366 121.500 C 366 125.776 361.182 129.651 353.398 132.457 C 345.613 135.263 334.863 137 323 137 C 311.137 137 300.387 135.263 292.602 132.457 C 284.818 129.651 280 125.776 280 121.500 C 280 117.224 284.818 113.349 292.602 110.543 C 300.387 107.737 311.137 106 323 106 Z " transform="matrix(0.5288944244384766, 0, 0, 0.45810139179229736, -47.3, -4.85)"/>
      <path id="ID0.237257300876081" fill="#000000" stroke="none" d="M 327.500 127 C 333.156 127 338.281 127.952 341.992 129.491 C 345.703 131.030 348 133.155 348 135.500 C 348 137.845 345.703 139.970 341.992 141.509 C 338.281 143.048 333.156 144 327.500 144 C 321.844 144 316.719 143.048 313.008 141.509 C 309.297 139.970 307 137.845 307 135.500 C 307 133.155 309.297 131.030 313.008 129.491 C 316.719 127.952 321.844 127 327.500 127 Z " transform="matrix(0.46081894636154175, 0, 0, 0.45810139179229736, -27.7, -10.7)"/>
      <path id="ID0.000271389726549387" fill="none" stroke="#FFE9CC" stroke-width="7" stroke-linecap="round" d="M 271.500 251.500 C 271.500 251.500 277.375 255.579 280.500 256 C 284.836 256.554 289.617 256.493 293.500 256 C 296.091 255.667 301 253.500 301 253.500 " transform="matrix(0.5956570506095886, 0, 0, 0.7750974297523499, -47.5, -73.7)"/>
      <path id="ID0.23072667652741075" fill="none" stroke="#FFFFFF" stroke-width="4" stroke-linecap="round" d="M 62.500 214 C 62.500 214 69.280 223.588 74 226 C 84.039 231.125 94.830 235.521 106 237 C 121.770 239.087 137.876 239.215 153.500 237 C 163.143 235.314 172.435 230.998 180.500 225.500 C 184.625 222.686 189 213 189 213 " transform="matrix(0.5497624278068542, 0, 0, 0.518480658531189, 54.2, 8.05)"/>
    </g>
  </g>
</svg>