<?xml version="1.0" encoding="utf-8"?>
<!-- Generator: Adobe Illustrator 18.0.0, SVG Export Plug-In . SVG Version: 6.00 Build 0)  -->
<!DOCTYPE svg PUBLIC "-//W3C//DTD SVG 1.1//EN" "http://www.w3.org/Graphics/SVG/1.1/DTD/svg11.dtd">
<svg version="1.1" id="Layer_2" xmlns="http://www.w3.org/2000/svg" xmlns:xlink="http://www.w3.org/1999/xlink" x="0px" y="0px"
	 viewBox="0 0 36.8 47.8" enable-background="new 0 0 36.8 47.8" xml:space="preserve">
<g>
	<path fill="#41A2F2" d="M35.8,28.5c-0.2-0.4-0.3-0.9-0.6-1.2c-0.4-0.6-0.9-1.1-1.5-1.5c-1-0.9-1.9-1.8-3-2.5
		c-0.9-0.6-2-1.1-3.1-1.6c0.2-0.1,0.3-0.2,0.4-0.2c4.3-1.9,5.2-5.1,5.5-8.7c0.1-1-0.2-2-0.4-3c-0.1-0.8-0.3-1.6-0.5-2.4
		c-0.4-1.5-1.4-2.5-2.6-3.4c-1.5-1.2-2.7-2.7-4.8-3.1c-2.3-0.4-4.5-1-6.8-0.8c-1.4,0.1-2.8,0-4.3,0.1c-2.8,0.1-5.5,0.2-8.3,0.2
		c-1.5,0-3.1,0-4.7,0c-0.7,0-1,0.3-1,0.9c-0.1,0.6,0.1,1,0.7,1.1C1.4,2.4,2,2.5,2.5,2.7c0.5,0.2,1,0.5,1.3,0.9
		c0.3,0.6,0.6,1.3,0.6,2c0.1,3,0.2,6,0.1,8.9c-0.1,3.1-0.3,6.2-0.2,9.4C4.3,30.6,4.1,37.2,4,43.8c0,1.1-0.3,1.3-1.5,1.4
		c-0.5,0-1.1,0-1.6,0.2c-0.8,0.2-1.1,0.7-1,1.5c0.1,0.7,0.7,0.7,1.2,0.7c1.6,0.1,3.2,0.3,4.8,0.3c5,0,10-0.1,15-0.2
		c1.3,0,2.5-0.1,3.8-0.2c1.8-0.1,3.6-0.4,5.3-1.3c1.8-1,3.1-2.6,4.3-4.2c0.8-1,1.2-2.3,1.6-3.6C37,35.1,37.3,31.8,35.8,28.5z
		 M31,37.5c-1.1,3.9-4,5.7-7.6,6.8c-2.5,0.7-5,0.8-7.5,0.5c-1.1-0.1-2.3-0.1-3.4-0.3c-0.8-0.1-1.1-0.7-1.1-1.4c0-0.8,0-1.6,0-2.4
		c0,0-0.1,0-0.1,0c0.1-1,0.2-2.1,0.2-3.1c0-3.3,0-6.6-0.1-10c0-2.5-0.1-4.9-0.1-7.4c0-4.9,0-9.8,0-14.7c0-2.3,0.4-2.8,2.7-2.7
		c2.5,0,5.1,0.2,7.6,0.5c2.2,0.3,3.8,1.7,4.9,3.6c1.3,2.3,1.8,4.9,1.6,7.5c-0.1,1.5-0.9,2.8-1.8,4c-0.2,0.3-0.8,0.4-1.2,0.6
		c-2.7,1.6-5.7,2-8.7,1.9c-0.5,0-0.9,0.1-1.4,0.1c-0.5,0.1-0.7,0.5-0.7,1c0,0.5,0.3,0.7,0.8,0.7c1.9,0.2,3.7,0.4,5.6,0.6
		c2.1,0.1,4,0.8,5.4,2.3c1.2,1.3,2.4,2.5,3.6,3.8C31.9,31.8,31.8,34.6,31,37.5z"/>
</g>
</svg>
