<svg version="1.1" width="227" height="100" viewBox="-1 -1 227 100" xmlns="http://www.w3.org/2000/svg" xmlns:xlink="http://www.w3.org/1999/xlink">
  <!-- Exported by Scratch - http://scratch.mit.edu/ -->
  <g id="ID0.7282230369746685" transform="matrix(1, 0, 0, 1, 0, -0.3)">
    <g id="Page-1">
      <g id="dinosaur3-d-[animals,dinosaur,pteranodon,flying,alex-eben-meyer]">
        <g id="Group-5">
          <path id="Shape" fill="#C8C8BE" stroke="none" stroke-width="1" d="M 23.131 8.589 C 22.909 8.655 7.407 23.409 5.189 26.775 C 4.524 27.138 1.691 26.388 1.011 26.109 C 1.011 26.040 0.984 25.971 0.966 25.875 C 1.475 25.665 2.009 25.908 2.536 25.785 C 3.283 23.781 10.090 2.385 16.594 0.768 C 16.588 0.780 23.131 8.589 23.131 8.589 Z " transform="matrix(1, 0, 0, 1, 84, 72.7)"/>
          <path id="Shape" fill="#C8C8BE" stroke="none" stroke-width="1" d="M 3.618 25.890 C 3.618 25.890 0.945 24.621 0.708 24.474 C 0.708 24.402 0.708 24.333 0.708 24.237 C 1.176 24.129 3.193 24.570 3.654 24.609 C 3.665 25.036 3.653 25.464 3.618 25.890 Z " transform="matrix(1, 0, 0, 1, 84, 72.7)"/>
          <path id="Shape" fill="#C8C8BE" stroke="none" stroke-width="1" d="M 4.365 24.804 C 4.365 24.804 1.697 23.520 1.463 23.373 C 1.463 23.301 1.463 23.232 1.463 23.136 C 1.934 23.031 4.065 23.781 4.524 23.823 C 4.507 24.155 4.454 24.484 4.365 24.804 Z " transform="matrix(1, 0, 0, 1, 84, 72.7)"/>
        </g>
        <g id="Group-4">
          <path id="Shape" fill="#C8C8BE" stroke="none" stroke-width="1" d="M 0.435 8.589 C 0.657 8.655 16.156 23.409 18.377 26.775 C 19.040 27.138 21.872 26.388 22.553 26.109 C 22.568 26.040 22.580 25.971 22.601 25.875 C 22.091 25.665 21.555 25.908 21.027 25.785 C 20.281 23.781 13.474 2.385 6.970 0.768 C 6.976 0.780 0.435 8.589 0.435 8.589 Z " transform="matrix(1, 0, 0, 1, 119, 72.7)"/>
          <path id="Shape" fill="#C8C8BE" stroke="none" stroke-width="1" d="M 19.406 26.283 C 19.406 26.283 22.103 25.053 22.337 24.909 C 22.337 24.840 22.337 24.771 22.337 24.675 C 21.869 24.561 19.843 24.975 19.385 25.002 C 19.368 25.429 19.375 25.857 19.406 26.283 Z " transform="matrix(1, 0, 0, 1, 119, 72.7)"/>
          <path id="Shape" fill="#C8C8BE" stroke="none" stroke-width="1" d="M 19.205 25.287 C 19.205 25.287 21.812 23.883 22.040 23.724 C 22.040 23.655 22.040 23.586 22.040 23.487 C 21.576 23.400 19.477 24.249 19.010 24.300 C 19.040 24.635 19.105 24.966 19.205 25.287 Z " transform="matrix(1, 0, 0, 1, 119, 72.7)"/>
        </g>
        <g id="Group-3">
          <path id="Shape" fill="#64645A" stroke="none" stroke-width="1" d="M 63.939 3.749 L 66.337 18.671 C 66.771 18.500 68.108 17.963 68.549 17.798 C 71.846 16.553 86.140 14.234 95.438 10.196 C 103.747 6.596 107.299 1.172 107.883 0.896 C 107.906 0.839 107.917 0.778 107.916 0.716 C 107.868 0.554 93.094 2.327 88.880 2.606 C 77.262 3.389 67.101 3.653 63.939 3.749 Z " transform="matrix(1, 0, 0, 1, 118, 19.7)"/>
          <path id="Shape" fill="#3C3C32" stroke="none" stroke-width="1" d="M 22.875 22.874 C 21.107 23.861 19.332 24.851 17.630 25.790 L 1.423 31.553 L 10.736 65.546 C 12.235 65.882 19.305 55.760 19.977 54.653 C 20.648 53.546 26.247 46.853 32.931 40.808 C 32.095 38.951 23.694 25.130 22.875 22.874 Z " transform="matrix(1, 0, 0, 1, 118, 19.7)"/>
          <path id="Shape" fill="#828278" stroke="none" stroke-width="1" d="M 66.337 3.800 C 65.285 3.836 64.574 3.866 64.293 3.866 C 64.847 4.865 39.972 12.740 39.229 13.736 C 38.695 13.937 20.082 24.869 20.082 24.869 C 20.082 24.869 32.308 39.428 32.940 40.811 C 33.690 40.136 34.694 39.251 35.464 38.603 C 41.369 33.632 51.794 24.632 66.337 18.674 L 66.337 3.800 Z " transform="matrix(1, 0, 0, 1, 118, 19.7)"/>
          <path id="Shape" fill="#C8C8BE" stroke="none" stroke-width="1" d="M 72.838 4.139 C 71.738 3.806 70.497 3.131 69.376 2.867 C 67.299 2.381 65.138 2.492 63.025 2.768 C 59.155 3.272 55.448 4.568 51.863 6.095 C 44.243 9.329 21.730 23.570 14.570 25.769 C 9.294 27.386 3.638 27.620 0.911 27.647 L 0.911 32.873 C 2.949 33.272 13.608 30.878 15.124 30.344 C 24.191 27.146 30.516 21.443 34.970 18.560 C 38.987 15.978 43.183 13.686 47.526 11.702 C 50.280 10.430 56.410 7.406 61.496 6.365 C 63.954 5.861 67.437 6.629 67.761 6.740 C 68.678 7.040 69.601 7.976 70.512 7.826 C 71.423 7.676 68.363 5.954 68.765 5.459 C 68.864 5.336 69.754 5.408 70.200 5.648 C 71.540 6.368 73.426 8.222 74.298 7.865 C 75.053 7.565 71.423 5.225 71.918 4.865 C 72.412 4.505 74.834 6.509 75.569 6.161 C 76.303 5.813 73.581 4.367 72.838 4.139 Z " transform="matrix(1, 0, 0, 1, 118, 19.7)"/>
        </g>
        <g id="Group-2">
          <path id="Shape" fill="#64645A" stroke="none" stroke-width="1" d="M 48.857 2.133 C 45.719 2.022 30.429 1.332 19.753 2.400 C 14.112 2.964 0.192 0.300 0 0.900 C 0 0.957 9.427 9.660 16.111 10.248 C 24.899 11.022 33.777 13.440 40.030 15.798 C 41.172 16.227 42.586 16.806 43.680 17.274 L 48.857 2.133 Z " transform="matrix(1, 0, 0, 1, 0, 21.7)"/>
          <path id="Shape" fill="#3C3C32" stroke="none" stroke-width="1" d="M 107.149 29.553 L 90.943 23.790 C 87.945 22.134 76.013 15.870 76.013 15.870 C 76.013 15.870 74.241 31.275 71.574 35.301 L 73.117 36.600 C 78.992 41.547 93.853 60.201 93.853 60.201 L 108.018 49.146 L 107.149 29.553 Z " transform="matrix(1, 0, 0, 1, 0, 21.7)"/>
          <path id="Shape" fill="#828278" stroke="none" stroke-width="1" d="M 69.350 11.733 C 68.606 10.737 43.731 2.862 44.289 1.863 C 44.166 1.863 43.959 1.863 43.689 1.863 L 43.689 17.289 C 56.317 22.734 65.708 30.375 71.583 35.316 C 75.196 29.913 78.492 24.303 81.453 18.516 C 75.141 14.940 69.793 11.898 69.350 11.733 Z " transform="matrix(1, 0, 0, 1, 0, 21.7)"/>
          <path id="Shape" fill="#C8C8BE" stroke="none" stroke-width="1" d="M 107.533 25.833 C 103.849 25.623 98.370 25.107 94.009 23.769 C 86.851 21.570 64.335 7.329 56.716 4.095 C 53.119 2.574 49.423 1.272 45.557 0.768 C 43.444 0.492 41.282 0.381 39.205 0.867 C 38.084 1.131 36.843 1.806 35.743 2.139 C 34.997 2.367 32.278 3.819 33.010 4.167 C 33.741 4.515 36.166 2.517 36.661 2.871 C 37.155 3.225 33.528 5.553 34.284 5.871 C 35.153 6.228 37.038 4.371 38.381 3.654 C 38.828 3.414 39.715 3.354 39.817 3.465 C 40.215 3.960 37.155 5.682 38.066 5.832 C 38.978 5.982 39.904 5.061 40.818 4.746 C 41.145 4.635 44.625 3.867 47.082 4.371 C 52.178 5.412 58.301 8.436 61.056 9.708 C 65.399 11.692 69.595 13.984 73.612 16.566 C 78.063 19.449 82.235 22.806 87.007 25.179 C 88.071 25.707 93.002 28.479 98.175 29.877 C 101.233 30.681 104.373 31.133 107.533 31.224 L 107.533 25.833 Z " transform="matrix(1, 0, 0, 1, 0, 21.7)"/>
        </g>
        <g id="Group">
          <path id="Shape" fill="#000000" stroke="none" stroke-width="1" d="M 29.626 22.548 L 25.792 17.430 C 25.792 17.430 19.195 30 16.414 30.300 L 27.504 29.700 L 29.626 22.548 Z " transform="matrix(1, 0, 0, 1, 81, 0.7)"/>
          <path id="Shape" fill="#F01446" stroke="none" stroke-width="1" d="M 20.880 21.774 C 18.944 20.967 24.138 25.209 26.875 26.421 C 29.611 27.633 22.816 22.581 20.880 21.774 Z " transform="matrix(1, 0, 0, 1, 81, 0.7)"/>
          <path id="Shape" fill="#64645A" stroke="none" stroke-width="1" d="M 28.145 28.641 C 23.616 28.419 23.766 28.398 0.983 28.641 C 0.983 28.641 1.364 29.517 4.296 30.141 C 10.623 31.485 22.226 33.114 28.634 33.096 L 28.145 28.641 Z " transform="matrix(1, 0, 0, 1, 81, 0.7)"/>
          <path id="Shape" fill="#828278" stroke="none" stroke-width="1" d="M 44.553 36.732 C 40.476 31.848 17.490 2.343 14.241 0 C 13.929 0.109 13.672 0.337 13.524 0.633 C 13.479 0.933 13.524 2.109 13.677 2.355 C 15.883 6 28.403 20.853 27.804 22.839 C 27.438 24.075 26.305 26.739 24.600 28.467 C 24.078 29.001 28.607 37.230 28.436 37.920 C 28.307 38.448 12.850 81.201 12.850 81.201 C 12.850 81.201 19.144 87.702 20.256 88.440 C 24.345 91.206 29.198 92.619 34.131 92.478 C 39.062 92.394 45.011 89.154 48.629 85.680 C 50.377 84.003 51.893 80.652 51.893 80.652 C 51.893 80.652 41.535 49.953 39.574 40.248 C 39.397 39.372 38.675 37.230 40.626 37.683 C 43.024 38.241 44.892 40.578 45.782 41.361 C 47.547 42.909 52.586 46.404 53.122 46.233 C 53.125 46.233 48.632 41.616 44.553 36.732 Z " transform="matrix(1, 0, 0, 1, 81, 0.7)"/>
          <path id="Shape" fill="#000000" stroke="none" stroke-width="1" d="M 34.113 27.840 L 30.157 27.807 L 30.037 28.140 C 30.037 28.140 32.099 30.273 33.034 30.957 C 33.334 30.957 33.496 30.771 33.439 30.609 C 33.382 30.447 30.990 28.290 30.990 28.290 L 34.095 28.290 L 34.113 27.840 Z " transform="matrix(1, 0, 0, 1, 81, 0.7)"/>
          <path id="Shape" fill="#000000" stroke="none" stroke-width="1" d="M 16.219 3.369 C 16.476 3.419 16.687 3.601 16.773 3.849 C 16.708 4.338 16.450 4.449 15.892 4.209 C 15.763 3.887 15.906 3.519 16.219 3.369 Z " transform="matrix(1, 0, 0, 1, 81, 0.7)"/>
          <path id="Shape" fill="#000000" stroke="none" stroke-width="1" d="M 14.774 1.593 C 15.031 1.641 15.242 1.823 15.329 2.070 C 15.266 2.562 15.005 2.670 14.448 2.433 C 14.319 2.111 14.462 1.743 14.774 1.593 Z " transform="matrix(1, 0, 0, 1, 81, 0.7)"/>
        </g>
      </g>
    </g>
  </g>
</svg>