<svg width="46px" height="45px" viewBox="0 0 46 45" version="1.1" xml:space="preserve" xmlns="http://www.w3.org/2000/svg" xmlns:xlink="http://www.w3.org/1999/xlink">
  <!-- Generator: Sketch 52.4 (67378) - http://www.bohemiancoding.com/sketch -->
  <g>
    <title>Slice 1</title>
    <desc>Created with Sketch.</desc>
    <g id="Page-1" stroke="none" stroke-width="1" fill="none" fill-rule="evenodd">
      <g id="soccer-ball-[sports,soccer,football,alex-eben-meyer]">
        <g id="Group">
          <path d="M27.524,0.824336283 C27.184,0.27079646 23.524,0.258849558 22.896,0.22699115 C21.528,0.163274336 19.08,-0.0836283186 17.868,0.521681416 C17.868,0.577433628 15.172,1.98318584 15.172,1.98318584 L19.5,6.87743363 L26.4,7.43893805 L29.512,3.05840708 C29.512,3.05840708 27.792,1.25442478 27.524,0.824336283 Z" id="Shape" fill="#AAA082"/>
          <path d="M40.256,25.0327434 C37.332,26.9283186 33.672,29.3057522 30.732,31.1734513 C28.416,32.6469027 27.228,34.359292 25.2,36.2030973 C25.2,36.2030973 30,43.1681416 30.104,43.3115044 C37.304,41.5513274 41.704,35.800885 44.376,29.2579646 L40.256,25.0327434 Z" id="Shape" fill="#AAA082"/>
          <path d="M7.66,24.5867257 L2.12,31.1853982 C3.86,34.8769912 5.976,38.4252212 9.504,40.6871681 C10.556,41.3641593 12.932,42.8455752 14.18,42.6783186 C14.98,42.5787611 17.516,41.1929204 17.516,41.1929204 C17.516,41.1929204 18.16,37.7522124 18.252,36.4659292 L18.68,30.5840708 C18.436,30.4247788 7.864,24.3756637 7.66,24.5867257 Z" id="Shape" fill="#AAA082"/>
          <path d="M16.4,2.46106195 C16.4,2.46106195 13.652,1.66460177 13.164,1.88362832 C11.692,2.56858407 8.66,4.31681416 7.436,5.37610619 C4.928,7.54646018 2.684,10.5252212 1.792,13.7389381 C1.9,13.7827434 2.3,16.1721239 2.384,16.2039823 C2.408,16.2756637 8.524,18.5137168 8.524,18.5137168 C9.796,17.7172566 15.1,14.2128319 15.1,14.2128319 L18.384,5.45176991 L16.4,2.46106195 Z" id="Shape" fill="#DCD2B4"/>
          <path d="M27.012,38.7199115 L22.724,33.8495575 C20.652,34.1482301 17.336,38.1066372 16.784,38.7159292 C15.7415945,39.9824859 14.8190039,41.3422516 14.028,42.7778761 C14.868,43.5743363 16.964,43.9725664 18.072,44.2154867 C19.5045973,44.5249101 20.9660799,44.6824256 22.432,44.6853982 C25.0446995,44.6389756 27.63323,44.177871 30.1,43.319469 L27.012,38.7199115 Z" id="Shape" fill="#F0E6D2"/>
          <path d="M39.96,16.7853982 C39.66,17.0402655 31.688,9.21902655 31.392,9.4699115 C31.096,9.72079646 21.032,15.0212389 21.14,15.4672566 C21.14,15.5469027 21.5,27.4818584 21.5,27.5654867 C21.5,28.1309735 30.728,31.1774336 30.728,31.1774336 L38.656,26.1199115 C38.656,26.1199115 40.212,16.5743363 39.96,16.7853982 Z" id="Shape" fill="#DCD2B4"/>
          <path d="M21.388,18.5336283 L19.508,12.7433628 L14.364,11.7358407 C14.248,11.8234513 6.14,17.060177 6.012,17.1477876 L6.012,25.1123894 C8.772,27.9836283 14.256,30.6876106 14.256,30.6876106 C14.256,30.6876106 19.164,28.4216814 19.116,28.5809735 C19.276,28.2544248 21.456,25.7933628 21.456,25.7933628 L21.388,18.5336283 Z" id="Shape" fill="#F0E6D2"/>
          <path d="M19.116,28.5451327 C19.1144335,28.5544003 19.1144335,28.5638651 19.116,28.5731327 L19.116,28.5451327 Z" id="Shape" fill="#F0E6D2"/>
          <path d="M16.8,38.7079646 C16.8,38.7079646 14.524,32.1331858 14.216,30.6836283 C16.176,28.6088496 21.448,25.7535398 21.448,25.7535398 C24.504,27.5097345 27.88,29.1066372 30.72,31.1774336 C29.956,33.7977876 28.208,36.2707965 27.004,38.7238938 C25.028,39.2216814 18.14,38.6721239 16.8,38.7079646 Z" id="Shape" fill="#000000"/>
          <polygon id="Shape" fill="#F0E6D2" points="33.6 2.83141593 33.568 2.83141593 33.568 2.83141593"/>
          <path d="M42.864,11.739823 C41.3,8.5539823 34.128,2.97876106 33.476,2.80752212 L33.584,2.80752212 C33.156,2.60044248 31.352,1.68849558 30.856,1.8159292 C30.528,1.50132743 28.68,2.03097345 28.332,2.2699115 C27.532,2.83539823 25.596,5.67876106 25.596,5.67876106 L25.036,8.72123894 L29.1,11.6880531 C29.1,11.6880531 35.352,15.1646018 37.996,16.4668142 L43.16,12.3451327 C43.132,12.2654867 42.888,11.7915929 42.864,11.739823 Z" id="Shape" fill="#F0E6D2"/>
          <path d="M25.6,5.69469027 C25.6,5.69469027 18.464,5.3840708 18.4,5.47566372 L14.4,11.7199115 C14.568,11.9827434 15.312,12.6318584 15.516,12.8668142 C15.948,13.3725664 16.38,13.8823009 16.848,14.3522124 C17.316,14.8221239 21.08,18.3623894 21.424,18.5336283 C21.5225713,18.4934482 21.6164574,18.442707 21.704,18.3823009 C22.072,18.0716814 29.14,11.8234513 29.14,11.8234513 L25.6,5.69469027 Z" id="Shape" fill="#000000"/>
          <path d="M44.372,29.2539823 C42.3197662,28.4966684 40.393055,27.4375721 38.656,26.1119469 C38.62,25.5544248 37.66,16.4030973 37.66,16.2079646 C38.492,15.4553097 42.38,12.3132743 43.164,12.3451327 C45.248,17.1557522 46.8,24.2920354 44.372,29.2539823 Z" id="Shape" fill="#000000"/>
          <path d="M6.848,16.5584071 C6.708,16.3951327 2.696,14.2128319 1.784,13.7707965 C-0.12,19.3858407 -0.472,25.6858407 2.116,31.2013274 L2.212,31.2411504 L7.252,26.2672566 C7.236,26.1637168 6.908,16.6261062 6.848,16.5584071 Z" id="Shape" fill="#000000"/>
          <path d="M16.64,0.772566372 C16.4433283,0.85484666 16.2399118,0.920131557 16.032,0.967699115 C15.724,1.05530973 15.412,1.13097345 15.104,1.22654867 C14.632,1.37389381 14.164,1.53318584 13.696,1.68849558 C13.512,1.74823009 13.336,1.8199115 13.152,1.88362832 L13.152,1.98318584 C13.384,2.02699115 13.616,2.07876106 13.848,2.11061947 C14.288,2.17035398 15.936,2.39734513 16.376,2.46106195 L17.924,0.469911504 C17.4862165,0.523998816 17.0556683,0.625484415 16.64,0.772566372 Z" id="Shape" fill="#000000"/>
          <path d="M28,2.53274336 C28,2.53274336 27.688,1.38982301 27.516,0.824336283 C28.598082,1.07349032 29.6662287,1.37922371 30.716,1.74026549 L30.716,1.83185841 C30.632,1.87168142 28,2.53274336 28,2.53274336 Z" id="Shape" fill="#000000"/>
        </g>
      </g>
    </g>
  </g>
</svg>