<svg version="1.1" width="159" height="120" viewBox="-1 -1 159 120" xmlns="http://www.w3.org/2000/svg" xmlns:xlink="http://www.w3.org/1999/xlink">
  <!-- Exported by Scratch - http://scratch.mit.edu/ -->
  <g id="ID0.29816496977582574" transform="matrix(1, 0, 0, 1, 0, -0.5)">
    <g id="Page-1">
      <g id="bat-a-[fantasy,spooky,halloween,bat,animals,alex-eben-meyer]">
        <g id="Group">
          <path id="Path" fill="#C8C8BE" stroke="none" stroke-width="1" d="M 18.804 10.046 L 64.882 14.471 L 68.306 30.318 C 68.306 30.318 69.989 41.321 70.469 44.191 C 70.710 45.627 73.473 74.988 73.233 74.868 C 60.376 70.383 54.129 48.736 54.129 48.736 L 39.230 43.294 C 39.230 43.294 36.706 34.265 31.660 31.335 C 26.614 28.405 19.765 28.823 19.765 28.823 C 19.765 28.823 0.421 4.545 0.480 4.007 C 4.205 6.937 17.002 9.089 18.804 10.046 Z " transform="matrix(1, 0, 0, 1, 0, 38.85)"/>
          <path id="Path" fill="#F0E6D2" stroke="none" stroke-width="1" d="M 54.189 48.736 L 66.324 40.843 L 62.719 34.863 L 54.189 48.736 " transform="matrix(1, 0, 0, 1, 0, 38.85)"/>
          <path id="Path" fill="#F0E6D2" stroke="none" stroke-width="1" d="M 19.825 28.823 L 30.218 12.917 L 26.554 11.661 L 19.825 28.823 " transform="matrix(1, 0, 0, 1, 0, 38.85)"/>
          <path id="Path" fill="#F0E6D2" stroke="none" stroke-width="1" d="M 39.290 43.294 L 56.291 14.352 L 61.518 17.581 C 61.518 17.581 41.933 42.098 39.290 43.294 Z " transform="matrix(1, 0, 0, 1, 0, 38.85)"/>
          <path id="Path" fill="#828278" stroke="none" stroke-width="1" d="M 0.541 4.007 C 0.841 3.648 4.325 5.920 4.325 5.143 C 4.325 4.365 1.682 2.990 1.262 2.213 C 2.463 2.213 6.188 3.887 6.368 3.050 C 6.548 2.213 2.043 1.076 2.343 0.179 C 2.523 -0.299 11.835 2.990 35.925 7.236 C 46.439 9.089 59.716 9.687 62.840 9.807 L 59.355 19.674 C 53.468 19.674 36.226 20.332 5.707 8.192 C 2.463 6.757 0.360 4.246 0.541 4.007 Z " transform="matrix(1, 0, 0, 1, 0, 38.85)"/>
        </g>
        <g id="Group">
          <path id="Path" fill="#C8C8BE" stroke="none" stroke-width="1" d="M 52.807 10.046 L 6.729 14.471 L 3.304 30.318 C 3.304 30.318 5.767 52.324 5.227 55.194 C 4.986 56.630 0.300 73.373 0.541 73.373 C 19.104 72.177 17.722 48.138 17.722 48.138 L 32.261 43.414 C 32.261 43.414 34.784 34.384 39.830 31.454 C 44.877 28.524 51.725 28.943 51.725 28.943 C 51.725 28.943 70.529 4.664 70.410 4.126 C 66.805 6.937 54.549 9.089 52.807 10.046 Z " transform="matrix(1, 0, 0, 1, 87.1, 38.85)"/>
          <path id="Path" fill="#F0E6D2" stroke="none" stroke-width="1" d="M 51.786 28.823 L 41.332 12.917 L 45.057 11.661 L 51.786 28.823 " transform="matrix(1, 0, 0, 1, 87.1, 38.85)"/>
          <path id="Path" fill="#F0E6D2" stroke="none" stroke-width="1" d="M 32.321 43.294 L 15.319 14.352 L 10.093 17.581 C 10.093 17.581 29.678 42.098 32.321 43.294 Z " transform="matrix(1, 0, 0, 1, 87.1, 38.85)"/>
          <path id="Path" fill="#828278" stroke="none" stroke-width="1" d="M 70.469 4.007 C 70.169 3.648 66.684 5.920 66.684 5.143 C 66.684 4.365 69.328 2.990 69.748 2.213 C 68.547 2.213 64.822 3.887 64.642 3.050 C 64.462 2.213 68.967 1.076 68.607 0.179 C 68.427 -0.299 59.716 2.990 35.625 7.236 C 25.112 9.089 11.835 9.687 8.711 9.807 L 12.195 19.674 C 18.083 19.674 34.724 20.332 65.243 8.192 C 68.547 6.757 70.649 4.246 70.469 4.007 Z " transform="matrix(1, 0, 0, 1, 87.1, 38.85)"/>
          <path id="Path" fill="#F0E6D2" stroke="none" stroke-width="1" d="M 17.722 48.078 L 7.510 37.673 L 4.325 44.012 L 17.722 48.078 " transform="matrix(1, 0, 0, 1, 87.1, 38.85)"/>
        </g>
        <path id="Path" fill="#3C3C32" stroke="none" stroke-width="1" d="M 72.211 92.210 L 60.256 83.420 C 60.076 88.204 66.144 103.751 69.448 109.073 C 70.469 110.748 73.894 114.635 73.894 114.635 C 73.894 114.635 73.533 116.548 73.113 118.701 L 74.074 118.880 C 74.795 114.694 76.056 109.671 76.056 109.671 C 76.056 109.671 72.452 94.124 72.211 92.210 Z "/>
        <path id="Path" fill="#3C3C32" stroke="none" stroke-width="1" d="M 95.701 102.615 C 95.581 100.582 93.598 90.237 92.637 88.443 L 80.983 95.499 C 81.283 95.798 85.248 99.745 85.548 100.044 L 85.608 100.044 C 87.591 101.778 87.891 104.110 86.690 106.323 C 85.248 109.014 81.163 110.449 81.163 110.449 L 80.983 117.445 C 81.223 117.505 81.403 117.505 81.643 117.445 C 81.884 116.309 82.004 115.113 82.004 113.917 C 82.004 113.917 91.796 113.259 94.920 107.818 C 95.581 106.622 95.821 104.110 95.701 102.615 Z "/>
        <g id="Group">
          <g id="Path">
            <path id="ID0.7506304606795311" fill="#64645A" stroke="none" stroke-width="1" d="M 2.583 3.229 L 2.163 3.050 C 2.103 2.811 2.103 2.631 2.103 2.452 C 1.983 1.914 1.922 1.375 1.802 0.777 C 1.682 0.538 1.742 0.239 1.862 0.000 C 2.163 0.000 2.283 0.060 2.343 0.299 C 2.403 0.718 2.523 1.196 2.583 1.615 C 2.643 1.973 2.703 2.332 2.703 2.691 C 2.643 2.930 2.583 3.110 2.583 3.229 Z " transform="matrix(1, 0, 0, 1, 59.45, 0.55)"/>
            <path id="ID0.2348456894978881" fill="#64645A" stroke="none" stroke-width="1" d="M 1.802 4.007 L 1.322 3.947 C 1.262 3.767 1.202 3.528 1.141 3.349 C 0.901 2.811 0.721 2.332 0.481 1.794 C 0.300 1.375 0.300 1.375 0.421 1.017 C 0.721 0.957 0.841 1.017 0.961 1.196 C 1.141 1.615 1.322 2.033 1.502 2.452 C 1.682 2.870 1.742 3.169 1.862 3.468 C 1.802 3.648 1.802 3.827 1.802 4.007 Z " transform="matrix(1, 0, 0, 1, 59.45, 0.55)"/>
            <path id="ID0.15804738411679864" fill="#64645A" stroke="none" stroke-width="1" d="M 3.064 3.588 L 3.484 3.409 C 3.484 3.169 3.484 2.990 3.544 2.811 C 3.605 2.272 3.665 1.674 3.785 1.136 C 3.845 0.718 3.845 0.718 3.665 0.359 C 3.304 0.419 3.244 0.478 3.244 0.718 C 3.184 1.196 3.124 1.615 3.064 2.093 C 3.004 2.452 3.004 2.811 3.004 3.169 C 3.004 3.289 3.064 3.468 3.064 3.588 Z " transform="matrix(1, 0, 0, 1, 59.45, 0.55)"/>
          </g>
          <path id="Path" fill="#64645A" stroke="none" stroke-width="1" d="M 6.368 60.457 C 6.368 60.457 2.043 45.387 1.081 37.733 C 0.300 31.454 0.421 25.116 0.721 18.837 C 0.901 14.770 1.322 3.708 6.188 2.093 C 12.316 3.767 15.199 19.734 16.160 24.757 C 17.422 31.275 20.065 47.959 20.486 54.596 C 17.662 56.331 6.368 60.457 6.368 60.457 Z " transform="matrix(1, 0, 0, 1, 55.85, 0.55)"/>
          <path id="Path" fill="#3C3C32" stroke="none" stroke-width="1" d="M 6.969 49.992 C 6.969 49.992 4.325 35.162 3.965 23.262 C 3.725 15.069 5.046 9.448 6.248 9.089 C 9.252 8.192 11.955 21.049 12.556 24.278 C 13.397 28.524 15.319 42.158 15.620 46.464 C 13.757 47.600 6.969 49.992 6.969 49.992 Z " transform="matrix(1, 0, 0, 1, 55.85, 0.55)"/>
        </g>
        <g id="Group">
          <g id="Path">
            <path id="ID0.7005550274625421" fill="#64645A" stroke="none" stroke-width="1" d="M 2.043 3.708 L 1.682 3.468 C 1.682 3.229 1.742 3.050 1.742 2.870 C 1.742 2.332 1.802 1.734 1.802 1.196 C 1.802 0.777 1.802 0.777 2.043 0.478 C 2.343 0.598 2.403 0.658 2.403 0.897 C 2.403 1.375 2.343 1.794 2.343 2.272 C 2.343 2.751 2.283 2.990 2.223 3.349 C 2.163 3.409 2.103 3.528 2.043 3.708 Z " transform="matrix(1, 0, 0, 1, 90.7, 0)"/>
            <path id="ID0.10773778334259987" fill="#64645A" stroke="none" stroke-width="1" d="M 1.081 4.246 L 0.661 4.066 C 0.661 3.827 0.601 3.648 0.601 3.468 C 0.481 2.930 0.421 2.332 0.300 1.794 C 0.180 1.555 0.240 1.256 0.360 1.017 C 0.721 1.017 0.781 1.076 0.841 1.316 C 0.901 1.794 1.021 2.213 1.081 2.631 C 1.141 3.050 1.202 3.349 1.202 3.708 C 1.202 3.947 1.141 4.066 1.081 4.246 Z " transform="matrix(1, 0, 0, 1, 90.7, 0)"/>
            <path id="ID0.09923103591427207" fill="#64645A" stroke="none" stroke-width="1" d="M 2.463 4.126 L 2.944 4.007 C 3.004 3.827 3.064 3.588 3.124 3.409 C 3.304 2.870 3.484 2.332 3.725 1.854 C 3.905 1.615 3.905 1.316 3.785 1.076 C 3.484 1.076 3.364 1.076 3.304 1.316 C 3.124 1.734 3.004 2.153 2.824 2.631 C 2.643 3.110 2.583 3.349 2.523 3.708 C 2.463 3.767 2.463 3.947 2.463 4.126 Z " transform="matrix(1, 0, 0, 1, 90.7, 0)"/>
          </g>
          <path id="Path" fill="#64645A" stroke="none" stroke-width="1" d="M 16.281 68.649 C 13.938 64.703 1.021 54.596 0.240 53.580 C -0.661 47.301 1.562 1.914 9.852 2.631 C 16.881 3.229 16.641 16.564 17.242 21.288 C 18.083 28.046 17.302 60.576 16.281 68.649 Z " transform="matrix(1, 0, 0, 1, 82.3, 0)"/>
          <path id="Path" fill="#3C3C32" stroke="none" stroke-width="1" d="M 12.556 58.483 C 13.517 46.284 14.418 31.215 14.298 26.969 C 14.178 22.425 13.157 6.099 9.612 9.209 C 6.068 12.319 4.626 46.165 3.785 57.407 L 12.556 58.483 Z " transform="matrix(1, 0, 0, 1, 82.3, 0)"/>
        </g>
        <path id="Path" fill="#64645A" stroke="none" stroke-width="1" d="M 102.249 58.005 C 101.769 52.743 99.426 46.882 95.521 43.175 C 90.715 38.690 84.287 36.238 77.678 36.477 C 67.766 36.717 64.402 38.750 59.355 45.985 C 54.729 52.683 56.231 63.925 56.712 71.639 C 57.192 79.832 61.338 90.835 68.367 95.619 C 75.696 100.642 86.389 101.419 93.118 95.080 C 99.246 89.280 103.331 69.905 102.249 58.005 Z "/>
        <g id="Group">
          <path id="Path" fill="#000000" stroke="none" stroke-width="1" d="M 9.011 15.488 C 9.071 15.249 9.011 15.010 9.973 14.950 C 12.916 14.651 18.924 14.830 21.027 14.770 C 23.129 14.711 25.472 15.069 25.472 15.667 C 25.472 16.265 24.751 16.684 23.490 16.684 C 21.207 16.744 18.924 16.744 16.701 16.684 C 14.839 16.684 13.037 16.624 11.234 16.505 C 10.573 16.445 8.771 16.445 9.011 15.488 Z " transform="matrix(1, 0, 0, 1, 61.85, 48.4)"/>
          <path id="Path" fill="#FFFFFF" stroke="none" stroke-width="1" d="M 19.164 14.711 C 19.525 15.488 20.666 17.880 21.087 17.880 C 21.447 17.880 22.649 15.548 23.009 14.770 C 23.009 14.770 22.468 14.711 21.387 14.711 C 21.087 14.711 19.164 14.711 19.164 14.711 Z " transform="matrix(1, 0, 0, 1, 61.85, 48.4)"/>
          <path id="Path" fill="#F01446" stroke="none" stroke-width="1" d="M 25.292 3.409 C 24.151 0.359 22.228 0.478 19.284 0.120 C 16.401 0.239 12.496 -0.120 10.033 1.794 C 7.570 3.708 7.029 7.774 9.432 9.747 C 12.256 12.079 21.147 12.976 24.451 9.508 C 25.713 8.252 26.133 5.621 25.292 3.409 Z " transform="matrix(1, 0, 0, 1, 61.85, 48.4)"/>
          <path id="Path" fill="#6E1E3C" stroke="none" stroke-width="1" d="M 22.168 3.050 C 23.730 2.930 23.790 5.023 23.730 5.980 C 23.670 6.937 23.610 8.551 22.228 8.432 C 20.846 8.312 20.606 6.817 20.666 5.980 C 20.726 5.143 20.546 3.110 22.168 3.050 Z " transform="matrix(1, 0, 0, 1, 61.85, 48.4)"/>
          <path id="Path" fill="#6E1E3C" stroke="none" stroke-width="1" d="M 11.535 3.050 C 13.097 2.930 13.217 5.023 13.097 5.980 C 12.976 6.937 12.976 8.551 11.595 8.432 C 10.213 8.312 9.973 6.817 10.033 5.980 C 10.093 5.143 9.973 3.110 11.535 3.050 Z " transform="matrix(1, 0, 0, 1, 61.85, 48.4)"/>
          <path id="Path" fill="#000000" stroke="none" stroke-width="1" d="M 1.141 6.458 C 0.781 6.458 0.541 6.219 0.481 5.860 C 0.360 5.322 0.360 4.784 0.360 4.246 C 0.421 3.708 0.841 3.528 1.322 3.349 C 1.682 3.887 1.742 4.605 1.562 5.203 C 1.562 5.681 1.562 6.159 1.141 6.458 Z " transform="matrix(1, 0, 0, 1, 61.85, 48.4)"/>
          <path id="Path" fill="#000000" stroke="none" stroke-width="1" d="M 33.102 6.638 C 32.261 6.279 32.381 5.621 32.441 4.904 C 32.441 4.126 32.561 4.066 33.282 3.767 C 34.063 4.485 34.123 5.621 33.402 6.398 C 33.282 6.458 33.222 6.518 33.102 6.638 Z " transform="matrix(1, 0, 0, 1, 61.85, 48.4)"/>
          <path id="Path" fill="#FFFFFF" stroke="none" stroke-width="1" d="M 11.775 14.770 C 12.256 15.787 13.097 17.282 13.397 17.282 C 13.697 17.282 14.598 15.667 15.139 14.711 C 15.139 14.711 13.817 14.711 13.817 14.711 C 13.757 14.711 11.835 14.770 11.775 14.770 Z " transform="matrix(1, 0, 0, 1, 61.85, 48.4)"/>
        </g>
      </g>
    </g>
  </g>
</svg>