<svg width="191px" height="87px" viewBox="0 0 191 87" version="1.1" xml:space="preserve" xmlns="http://www.w3.org/2000/svg" xmlns:xlink="http://www.w3.org/1999/xlink">
  <defs>
    <polygon id="path-1" points="0.200617647 0.657235772 9.07613235 0.657235772 9.07613235 11.6234244 0.200617647 11.6234244"/>
  </defs>
  <g>
    <title>Slice 1</title>
    <desc>Created with Sketch.</desc>
    <g id="Page-1" stroke="none" stroke-width="1" fill="none" fill-rule="evenodd">
      <g id="lion-a-[cat,animals,africa,savanna,robert-hunter]">
        <g id="Group-4" transform="translate(119.448529, 37.098862)">
          <path d="M12.4320772,0.0431398374 C11.6539154,6.68541626 2.77071691,13.545839 2.77071691,13.545839 C3.63619485,17.9157577 2.30409926,24.9754488 1.40090074,34.0411073 C0.957334559,38.4935301 0.167297794,42.830587 0.0261948529,44.4415138 C-0.205018382,47.0816439 2.55836397,47.9814976 2.55836397,47.9814976 L12.9867096,47.9814976 C16.0923713,47.9814976 18.5281434,44.9540179 18.0573346,42.1258065 C17.795386,40.5526358 17.3643934,40.4246846 13.6475184,41.0329772 C9.10707721,41.776213 8.66770221,40.0708959 8.58318015,39.5038553 C8.62369485,38.1760992 9.42700368,34.4927821 14.4459375,23.072961 C19.4641728,11.6524407 30.4017463,0.815042276 30.4017463,0.815042276" id="Fill-1" fill="#BB8E5D"/>
          <path d="M12.4320772,0.0431398374 C11.6539154,6.68541626 2.77071691,13.545839 2.77071691,13.545839 C3.63619485,17.9157577 2.30409926,24.9754488 1.40090074,34.0411073 C0.957334559,38.4935301 0.167297794,42.830587 0.0261948529,44.4415138 C-0.205018382,47.0816439 2.55836397,47.9814976 2.55836397,47.9814976 L12.9867096,47.9814976 C16.0923713,47.9814976 18.5281434,44.9540179 18.0573346,42.1258065 C17.795386,40.5526358 17.3643934,40.4246846 13.6475184,41.0329772 C9.10707721,41.776213 8.66770221,40.0708959 8.58318015,39.5038553 C8.62369485,38.1760992 9.42700368,34.4927821 14.4459375,23.072961 C19.4641728,11.6524407 30.4017463,0.815042276 30.4017463,0.815042276" id="Stroke-3" stroke="#784E3D" stroke-width="0.525"/>
        </g>
        <g id="Group-5" transform="translate(58.000000, 19.000000)">
          <path d="M74.834239,60.6763431 C74.834239,60.6763431 74.969055,60.5875463 75.221224,60.4595951 C75.347658,60.3952699 75.50343,60.3211561 75.68854,60.249839 C75.871555,60.1687333 76.087401,60.0960179 76.336077,60.0960179 C76.581261,60.0729447 76.853688,60.0659528 77.152658,60.1072049 C77.441849,60.1589447 77.808577,60.2547333 78.055158,60.5945382 C78.309423,60.9511236 78.231886,61.3447659 78.178099,61.6810748 C78.09707,61.9817252 78.041886,62.2788797 77.936408,62.5900179 C77.844202,62.9011561 77.737327,63.2080992 77.597621,63.4996602 C77.486555,63.8017089 77.285379,64.0611073 77.133798,64.3295951 C76.92843,64.5603268 76.761482,64.8183268 76.542143,64.9966195 C76.327695,65.1777089 76.142585,65.3776764 75.933026,65.5007333 C75.744423,65.6552537 75.535563,65.7468472 75.349055,65.8139691 C75.160452,65.8720016 74.995599,65.9223431 74.860085,65.9635951 C74.590452,66.0440016 74.435379,66.0803593 74.435379,66.0803593 C74.435379,66.0803593 74.556224,65.9691886 74.767879,65.7908959 C74.873357,65.7034976 75.001188,65.5979203 75.147879,65.4762618 C75.281996,65.338522 75.425195,65.1833024 75.624974,65.0763268 C75.822658,64.9616602 75.984018,64.7819691 76.179607,64.6183593 C76.379386,64.4575463 76.521188,64.228213 76.706996,64.0254488 C76.840415,63.7828309 77.020636,63.5604894 77.121923,63.2808146 C77.249055,63.016522 77.347548,62.7333512 77.432768,62.4452862 C77.529864,62.164213 77.591335,61.8453837 77.670967,61.5517252 C77.710085,61.3007171 77.746408,61.0294325 77.624864,60.8937902 C77.522879,60.7448634 77.301445,60.6637577 77.074423,60.6253024 C76.841114,60.593839 76.602217,60.5966358 76.38218,60.6183106 C76.271114,60.6169122 76.167732,60.6616602 76.064349,60.6553675 C75.960268,60.6469772 75.860379,60.6504732 75.766077,60.6476764 C75.575379,60.6511724 75.409129,60.6539691 75.272217,60.6567659 C74.993504,60.6693512 74.834239,60.6763431 74.834239,60.6763431" id="Fill-5" fill="#784E3D"/>
          <path d="M27.9017941,66.0800098 L15.3282647,66.0800098 C8.8012059,53.0849203 9.1567574,54.6629854 6.4220147,49.7365138 C5.3302132,47.7704 2.3614632,43.7934244 2.5360956,41.4336683 C2.7107279,39.0739122 7.1645515,30.159278 1.619625,17.442465 C-3.9253015,4.7263512 16.2887426,-1.8725756 21.1344412,0.836774 C25.9808382,3.5461236 35.5856176,14.1213268 30.8705441,22.8178146 C26.1554706,31.5136033 20.8724926,36.4079122 18.5589632,38.549522 C16.2454338,40.6904325 13.9214265,43.3221724 13.4073088,44.8862537 C12.9225294,46.3594407 13.0831912,46.3342699 18.1656912,57.383522 C19.3881176,60.0054732 19.0828603,59.6558797 20.4359118,59.5251317 C21.7896618,59.3936846 26.5906544,58.9007577 26.5906544,58.9007577 C26.5906544,58.9007577 30.4339632,58.1267577 30.2160221,60.8361073 C30.0253235,63.2028553 29.1242206,65.075278 27.9017941,66.0800098" id="Fill-7" fill="#BB8E5D"/>
        </g>
        <g id="Group-4" transform="translate(58.000000, 19.000000)">
          <path d="M27.9017941,66.0800098 L15.3282647,66.0800098 C8.8012059,53.0849203 9.1567574,54.6629854 6.4220147,49.7365138 C5.3302132,47.7704 2.3614632,43.7934244 2.5360956,41.4336683 C2.7107279,39.0739122 7.1645515,30.159278 1.619625,17.442465 C-3.9253015,4.7263512 16.2887426,-1.8725756 21.1344412,0.836774 C25.9808382,3.5461236 35.5856176,14.1213268 30.8705441,22.8178146 C26.1554706,31.5136033 20.8724926,36.4079122 18.5589632,38.549522 C16.2454338,40.6904325 13.9214265,43.3221724 13.4073088,44.8862537 C12.9225294,46.3594407 13.0831912,46.3342699 18.1656912,57.383522 C19.3881176,60.0054732 19.0828603,59.6558797 20.4359118,59.5251317 C21.7896618,59.3936846 26.5906544,58.9007577 26.5906544,58.9007577 C26.5906544,58.9007577 30.4339632,58.1267577 30.2160221,60.8361073 C30.0253235,63.2028553 29.1242206,65.075278 27.9017941,66.0800098 Z" id="Stroke-9" stroke="#784E3D" stroke-width="0.525"/>
          <path d="M23.7979338,61.7537902 C23.7979338,61.7537902 23.9138897,61.6594 24.1325294,61.5167659 C24.2421985,61.446148 24.3770147,61.3622455 24.5376765,61.2762455 C24.6194044,61.2342943 24.7053235,61.1895463 24.7968309,61.1420016 C24.8883382,61.0944569 24.9994044,61.0972537 25.1055809,61.0636927 C25.322125,61.0133512 25.5589265,60.9644081 25.8173824,60.9364407 C26.0723456,60.9021805 26.3489632,60.8854 26.6409485,60.907774 C26.9315368,60.9210585 27.2423824,60.9923756 27.5413529,61.1329122 C27.8333382,61.2916276 28.1071618,61.5475301 28.2370882,61.8677577 C28.2587426,61.9187984 28.2706176,61.9153024 28.2999559,62.0110911 L28.3251029,62.1159691 L28.3746985,62.325026 C28.4201029,62.4515789 28.4061324,62.6417577 28.4138162,62.8018715 C28.4256912,62.9745707 28.3991471,63.1234976 28.3705074,63.2703268 C28.3432647,63.4185545 28.3251029,63.5681805 28.2713162,63.701026 C28.2259118,63.8366683 28.1812059,63.970213 28.1371985,64.100961 C28.0785221,64.2240179 28.0219412,64.344278 27.9660588,64.4617415 C27.8640735,64.7022618 27.7201765,64.897335 27.6084118,65.0917089 C27.5127132,65.2986683 27.3422721,65.4280179 27.2046618,65.5489772 C27.0719412,65.6734325 26.9413162,65.7664244 26.8379338,65.8447333 C26.628375,65.9999528 26.5047353,66.0796602 26.5047353,66.0796602 C26.5047353,66.0796602 26.569,65.9426195 26.6891471,65.7174813 C26.7492206,65.6056114 26.8253603,65.4741642 26.8924191,65.3098553 C26.9273456,65.2308472 26.9650662,65.1455463 27.0041838,65.0560504 C27.0412059,64.9658553 27.1243309,64.9022293 27.1683382,64.807839 C27.2703235,64.6288472 27.4065368,64.4456602 27.4966471,64.2296114 C27.5469412,64.123335 27.5986324,64.0142618 27.6517206,63.9037902 C27.6901397,63.7884244 27.7292574,63.670961 27.7697721,63.5514 C27.8186691,63.4332374 27.8305441,63.3087821 27.8535956,63.1836276 C27.8794412,63.057774 27.9017941,62.9312211 27.8906176,62.818652 C27.8808382,62.6983919 27.9157647,62.5970098 27.8654706,62.4480829 L27.8151765,62.239026 L27.7907279,62.134148 C27.7991103,62.1614163 27.7690735,62.0984894 27.7599926,62.0852049 C27.6726765,61.8656602 27.5008382,61.7146358 27.3031544,61.5999691 C27.0901029,61.5034813 26.8519044,61.4405545 26.6039265,61.4307659 C26.3594412,61.4118878 26.1128603,61.4251724 25.88025,61.4566358 C25.6469412,61.4811073 25.4262059,61.5279528 25.2236324,61.5747984 C25.12025,61.5915789 25.0294412,61.637026 24.9330441,61.6461154 C24.83525,61.6524081 24.7430441,61.6587008 24.6564265,61.6649935 C24.4803971,61.681774 24.3267206,61.6964569 24.2009853,61.7090423 C23.944625,61.7377089 23.7979338,61.7537902 23.7979338,61.7537902" id="Fill-11" fill="#784E3D"/>
        </g>
        <g id="Group-16" transform="translate(55.183824, 2.139512)">
          <path d="M119.366103,7.9722 C119.366103,7.9722 124.570846,10.6333057 127.103015,13.4300537 L126.724412,12.0316797 C126.724412,12.0316797 129.343897,12.9930618 130.625,14.0418423 C130.625,14.0418423 129.984449,9.99215122 126.608456,7.31216748 C126.608456,7.31216748 127.568235,7.22476911 128.558051,7.83655772 C128.558051,7.83655772 120.540331,0.0839723577 113.191103,0.058102439 C107.835478,0.0385252033 104.750074,2.03889919 104.051544,2.35912683 C103.353015,2.68005366 100.878824,4.04906179 99.0165441,3.96166341 C97.1535662,3.87426504 92.2638603,2.18433008 87.3161765,4.19449268 C87.3161765,4.19449268 88.9172059,4.39865528 89.3824265,4.86501301 C89.3824265,4.86501301 87.3741544,4.6021187 83.0376838,6.93320813 C83.0376838,6.93320813 85.2785662,6.72904553 85.5698529,7.3702 C85.5698529,7.3702 80.4468382,8.56441138 76.0810294,11.1283301 C76.0810294,11.1283301 77.3034559,10.8367691 78.2932721,10.8955008 C78.149375,10.8906065 76.1159559,12.3330293 74.5093382,12.8762976 C69.9395588,14.4201024 64.1773897,16.3428667 42.3483456,13.4300537 C20.5193015,10.5165415 17.5505515,11.0409317 16.3861029,11.0989642 C15.2223529,11.1569967 13.8273897,11.7394195 12.4282353,12.6141024 C10.3326471,14.0712081 2.35753676,18.2222813 0.727169118,27.3550618 C-2.70680147,51.768574 21.8583824,36.0948992 28.0284926,40.6396146 C42.9881985,53.6913382 57.30875,53.4585089 57.30875,53.4585089 C69.5909926,53.3417447 77.6240809,46.466639 84.9586397,43.6698911 C92.2931985,40.8731431 99.0458824,38.7748829 108.068088,42.0379886 L110.687574,40.4067854 C110.687574,40.4067854 112.491875,41.7471268 112.666507,42.5043463 C112.666507,42.5043463 114.122243,41.2227366 114.180221,40.0571919 C114.180221,40.0571919 115.112059,40.2900211 115.402647,40.9892081 C115.402647,40.9892081 116.625074,40.0571919 115.926544,38.9503789 C115.926544,38.9503789 118.254743,39.6495659 118.604007,42.2715171 C118.604007,42.2715171 121.223493,39.1832081 121.107537,34.0560699 C121.107537,34.0560699 121.864044,34.4049642 121.980699,35.3957122 C121.980699,35.3957122 122.4075,33.2289317 124.735699,31.0146065 L120.604596,29.4889805 C125.174375,30.2755659 127.248309,33.4149154 127.860221,32.3367691 C129.029559,30.2741675 131.5275,27.4424602 133.186507,25.4322976 C134.845515,23.422135 133.855699,22.7816797 133.855699,22.7816797 L129.315257,18.4697935 C129.315257,15.6730455 127.99364,12.5532732 127.99364,12.5532732" id="Fill-13" fill="#DCB285"/>
          <path d="M119.366103,7.9722 C119.366103,7.9722 124.570846,10.6333057 127.103015,13.4300537 L126.724412,12.0316797 C126.724412,12.0316797 129.343897,12.9930618 130.625,14.0418423 C130.625,14.0418423 129.984449,9.99215122 126.608456,7.31216748 C126.608456,7.31216748 127.568235,7.22476911 128.558051,7.83655772 C128.558051,7.83655772 120.540331,0.0839723577 113.191103,0.058102439 C107.835478,0.0385252033 104.750074,2.03889919 104.051544,2.35912683 C103.353015,2.68005366 100.878824,4.04906179 99.0165441,3.96166341 C97.1535662,3.87426504 92.2638603,2.18433008 87.3161765,4.19449268 C87.3161765,4.19449268 88.9172059,4.39865528 89.3824265,4.86501301 C89.3824265,4.86501301 87.3741544,4.6021187 83.0376838,6.93320813 C83.0376838,6.93320813 85.2785662,6.72904553 85.5698529,7.3702 C85.5698529,7.3702 80.4468382,8.56441138 76.0810294,11.1283301 C76.0810294,11.1283301 77.3034559,10.8367691 78.2932721,10.8955008 C78.149375,10.8906065 76.1159559,12.3330293 74.5093382,12.8762976 C69.9395588,14.4201024 64.1773897,16.3428667 42.3483456,13.4300537 C20.5193015,10.5165415 17.5505515,11.0409317 16.3861029,11.0989642 C15.2223529,11.1569967 13.8273897,11.7394195 12.4282353,12.6141024 C10.3326471,14.0712081 2.35753676,18.2222813 0.727169118,27.3550618 C-2.70680147,51.768574 21.8583824,36.0948992 28.0284926,40.6396146 C42.9881985,53.6913382 57.30875,53.4585089 57.30875,53.4585089 C69.5909926,53.3417447 77.6240809,46.466639 84.9586397,43.6698911 C92.2931985,40.8731431 99.0458824,38.7748829 108.068088,42.0379886 L110.687574,40.4067854 C110.687574,40.4067854 112.491875,41.7471268 112.666507,42.5043463 C112.666507,42.5043463 114.122243,41.2227366 114.180221,40.0571919 C114.180221,40.0571919 115.112059,40.2900211 115.402647,40.9892081 C115.402647,40.9892081 116.625074,40.0571919 115.926544,38.9503789 C115.926544,38.9503789 118.254743,39.6495659 118.604007,42.2715171 C118.604007,42.2715171 121.223493,39.1832081 121.107537,34.0560699 C121.107537,34.0560699 121.864044,34.4049642 121.980699,35.3957122 C121.980699,35.3957122 122.4075,33.2289317 124.735699,31.0146065 L120.604596,29.4889805 C125.174375,30.2755659 127.248309,33.4149154 127.860221,32.3367691 C129.029559,30.2741675 131.5275,27.4424602 133.186507,25.4322976 C134.845515,23.422135 133.855699,22.7816797 133.855699,22.7816797 L129.315257,18.4697935 C129.315257,15.6730455 127.99364,12.5532732 127.99364,12.5532732" id="Stroke-15" stroke="#784E3D" stroke-width="0.525"/>
        </g>
        <path d="M174.489224,10.1991106 C174.489224,10.1991106 179.693967,12.8602163 182.226136,15.6569642 L181.847533,14.2585902 C181.847533,14.2585902 184.467018,15.2199724 185.748121,16.2687528 C185.748121,16.2687528 185.10757,12.2190618 181.731577,9.53907805 C181.731577,9.53907805 182.691357,9.45167967 183.681173,10.0634683 C183.681173,10.0634683 175.663452,2.31088293 168.314224,2.28501301 C162.958599,2.26543577 159.873195,4.26580976 159.174665,4.5860374 C158.476136,4.90696423 156.001945,6.27597236 154.139665,6.18857398 C152.276688,6.10117561 147.386982,4.41124065 142.439298,6.42140325 C142.439298,6.42140325 144.040327,6.62556585 144.505548,7.09192358 C144.505548,7.09192358 142.497276,6.82902927 138.160805,9.1601187 C138.160805,9.1601187 140.401688,8.9559561 140.692974,9.59711057 C140.692974,9.59711057 135.56996,10.791322 131.204151,13.3552407 C131.204151,13.3552407 132.426577,13.0636797 133.416393,13.1224114 C133.272496,13.1175171 131.239077,14.5599398 129.63246,15.1032081 C125.06268,16.647013 119.300511,18.5697772 97.4714669,15.6569642 C75.6424228,12.743452 72.6736728,13.2678423 71.5092243,13.3258748 C70.3454743,13.3839073 68.950511,13.9663301 67.5513566,14.841013 C65.4557684,16.2981187 57.4806581,20.4491919 55.8502904,29.5819724 C52.4163199,53.9954846 76.9815037,38.3218098 83.151614,42.8665252 C98.1113199,55.9182488 112.431871,55.6854195 112.431871,55.6854195 C124.714114,55.5686553 132.747202,48.6935496 140.081761,45.8968016 C147.41632,43.1000537 154.169004,41.0017935 163.19121,44.2648992 L165.810695,42.6336959 C165.810695,42.6336959 167.614996,43.9740374 167.789629,44.7312569 C167.789629,44.7312569 169.245364,43.4496472 169.303342,42.2841024 C169.303342,42.2841024 170.23518,42.5169317 170.525768,43.2161187 C170.525768,43.2161187 171.748195,42.2841024 171.049665,41.1772894 C171.049665,41.1772894 173.377864,41.8764764 173.727129,44.4984276 C173.727129,44.4984276 176.346614,41.4101187 176.230658,36.2829805 C176.230658,36.2829805 176.987165,36.6318748 177.10382,37.6226228 C177.10382,37.6226228 177.530621,35.4558423 179.85882,33.2415171 L175.727717,31.7158911 C180.297496,32.5024764 182.37143,35.641826 182.983342,34.5636797 C184.15268,32.501078 186.650621,29.6693707 188.309629,27.6592081 C189.968636,25.6490455 188.97882,25.0085902 188.97882,25.0085902 L184.438379,20.6967041 C184.438379,17.8999561 183.116761,14.7801837 183.116761,14.7801837" id="Stroke-19" stroke="#784E3D" stroke-width="0.525"/>
        <g id="Group-3" transform="translate(129.000000, 0.000000)">
          <path d="M46.738195,31.764974 C46.796173,31.6775756 50.328636,32.5368764 50.783379,33.3136732 C50.783379,33.3136732 48.634004,35.0371691 48.441908,36.4753967 C48.028379,39.5692992 48.169482,36.6376081 47.056026,36.1153154 C47.056026,36.1153154 47.819518,39.9167951 44.774629,44.3279659 C44.774629,44.3279659 43.624849,41.0166163 41.674555,40.899852 C41.674555,40.899852 43.089077,41.7262911 41.46779,43.2596081 C41.46779,43.2596081 41.245658,41.9269577 40.255842,42.1891528 C40.255842,42.1891528 39.634151,43.7993805 38.789629,44.7313967 C38.789629,44.7313967 37.527386,42.6590065 36.810695,42.6338358 L34.19121,44.265039 C34.19121,44.265039 28.337533,42.1891528 23.786614,42.6464211 C23.786614,42.6464211 31.047827,32.3096407 29.15621,25.2884049 L28.271871,27.670535 C28.271871,27.670535 28.555474,22.9615106 26.983783,19.9242423 L26.383746,21.7819821 C26.383746,21.7819821 26.311099,18.1217382 24.418783,16.0241772 C24.418783,16.0241772 24.457901,18.0287463 24.244151,18.7880634 C24.244151,18.7880634 23.338158,15.8388927 22.901577,15.1501935 C22.464996,14.4621935 21.679151,13.402226 21.123121,12.9764211 L20.817165,13.5882098 C20.817165,13.5882098 18.852901,10.4635431 14.934151,11.1522423 C10.506871,11.9297382 5.224592,14.6565675 3.02632,15.0851691 C0.559812,15.5655106 0.014261,15.4669252 0.014261,15.4669252 C0.014261,15.4669252 3.714371,13.6756081 4.292754,13.2386163 C4.292754,13.2386163 3.627055,12.9323724 3.113636,12.9764211 C3.113636,12.9764211 9.204114,9.82658374 11.692974,9.59655122 C11.62871,9.60354309 11.04893,9.0868439 9.69518,8.93442114 C9.69518,8.93442114 13.048121,6.8669252 15.460143,7.05290894 C15.460143,7.05290894 14.868489,6.62920163 13.963195,6.35581951 C13.908011,6.35581951 17.390879,5.2063561 19.923048,5.47903902 C22.455217,5.75242114 25.291945,6.63968943 26.983783,5.99573821 C28.675621,5.3510878 35.824371,1.09024228 41.926026,2.6962748 C48.026982,4.30230732 54.276724,9.6888439 54.276724,9.6888439 C54.276724,9.6888439 53.058489,9.40777073 52.731577,9.5385187 C52.731577,9.5385187 56.420511,12.8778358 56.649629,16.0899008 C56.649629,16.0899008 53.112974,14.254535 52.76371,14.1888114 L53.198195,15.5529252 C53.198195,15.5529252 49.697165,12.5170553 45.473158,10.0153642 C45.424261,9.98599837 45.451504,8.9365187 45.124592,8.80297398 C44.36529,8.49253496 42.978011,9.02741301 41.527864,8.55336423 C40.975327,8.3722748 39.495842,6.22017724 38.957276,6.07194959 C38.450842,5.93281138 38.46621,7.63533171 38.018452,7.60107154 C35.704923,7.4262748 35.06018,7.75699024 39.062754,11.0648439 C46.444813,16.6031041 46.330254,20.457722 46.613857,21.4407789 C46.613857,21.4407789 45.156724,20.4926813 44.43654,21.2247301 C44.43654,21.2247301 47.874004,25.0590715 46.949849,30.044974 C46.949849,30.044974 45.789592,29.057722 45.53882,28.9374618 L46.738195,31.764974" id="Fill-17" fill="#AC612A"/>
          <path d="M38.789699,10.9952049 C39.824919,11.4643593 40.785397,12.0908309 41.707456,12.7711398 C42.177566,13.1032537 42.566647,13.5297577 42.975287,13.9303919 C43.376243,14.3401154 43.756941,14.7708146 44.11389,15.2210911 C44.829184,16.1195463 45.453669,17.0963106 45.939147,18.1429935 C46.435801,19.1847821 46.771096,20.3020829 46.965287,21.4410585 L47.046316,21.9200016 L46.591574,21.7186358 C45.960801,21.438961 45.17775,21.2250098 44.58889,21.4361642 L44.685985,21.0131561 C44.969588,21.3333837 45.204294,21.6557089 45.432713,21.9955138 C45.65764,22.3353187 45.863007,22.6863106 46.053007,23.0456927 C46.240912,23.405774 46.407162,23.7770423 46.562934,24.1532049 L46.771096,24.7265382 C46.846537,24.9160179 46.889147,25.1159854 46.949221,25.3103593 C47.008596,25.5054325 47.060287,25.7019041 47.098007,25.9025707 C47.137125,26.101839 47.186721,26.3004081 47.217456,26.5010748 C47.268449,26.9052049 47.335507,27.3086358 47.341096,27.716961 C47.345985,27.9204244 47.371132,28.1238878 47.359257,28.3273512 L47.334809,28.9384407 C47.320838,29.3460667 47.241904,29.7474 47.197199,30.1515301 L47.128743,30.7780016 L46.731978,30.2661967 C46.585985,30.0781154 46.396684,29.8998228 46.216463,29.736213 C46.120765,29.6627984 46.034147,29.5733024 45.936353,29.5068797 C45.843449,29.4278715 45.742162,29.3817252 45.642272,29.3222943 L45.907015,29.0062618 C46.245103,29.6970585 46.517529,30.3997415 46.699147,31.1373837 C46.78786,31.5044569 46.860507,31.8792211 46.86889,32.2588797 C46.880066,32.446961 46.867493,32.6385382 46.843743,32.824522 C46.822787,33.0126033 46.766904,33.1929935 46.706132,33.3691886 C46.748044,33.1860016 46.782272,33.0049122 46.782272,32.8196276 C46.785765,32.6357415 46.777382,32.4511561 46.746647,32.2693675 C46.695654,31.9057902 46.59786,31.5492049 46.477015,31.2031073 C46.238118,30.5109122 45.902824,29.8417902 45.527015,29.2258065 L45.190324,28.674148 L45.791757,28.909774 C45.930765,28.9636114 46.078853,29.014652 46.200397,29.0915626 C46.333816,29.1586846 46.446978,29.2446846 46.560838,29.3334813 C46.778779,29.5187659 46.961096,29.7215301 47.146904,29.9466683 L46.681684,30.061335 C46.722199,29.6753837 46.799735,29.2929285 46.812309,28.9055789 L46.83536,28.3238553 C46.847235,28.1301805 46.822088,27.9365057 46.817897,27.7428309 C46.813706,27.3547821 46.748044,26.9716276 46.700544,26.5863756 C46.671206,26.3947984 46.623706,26.2067171 46.585985,26.0165382 C46.551059,25.824961 46.501463,25.6375789 46.444882,25.4522943 C46.386904,25.2670098 46.347088,25.0761317 46.27514,24.8950423 L46.076757,24.3475789 C45.927272,23.9881967 45.769404,23.6337089 45.588485,23.2890098 C45.407566,22.9457089 45.210581,22.6100992 44.996831,22.2863756 C44.783081,21.9668472 44.546279,21.6459203 44.303191,21.3711398 L44.044037,21.0774813 L44.400287,20.9474325 C44.831978,20.7894163 45.26786,20.8089935 45.667419,20.878213 C46.071868,20.9537252 46.444184,21.0746846 46.82139,21.2473837 L46.447676,21.524961 C46.261868,20.4349285 45.941941,19.3658715 45.464846,18.365335 C44.998926,17.3599041 44.396096,16.4174 43.703853,15.5476114 C43.358779,15.1120179 42.989956,14.6946033 42.600176,14.2960667 C42.219478,13.8877415 41.782897,13.5402455 41.394515,13.1368146 C40.595397,12.353026 39.723632,11.6363593 38.789699,10.9952049" id="Fill-21" fill="#784E3D"/>
          <path d="M18.765305,11.6653756 C19.16207,11.9198797 19.540673,12.2023512 19.906004,12.5037008 C20.082732,12.6610179 20.266445,12.8127415 20.429202,12.9875382 C20.603136,13.151148 20.74843,13.3434244 20.904901,13.5266114 L20.721886,13.5405951 L20.992217,12.9113268 L21.065563,12.740026 L21.21854,12.8658797 C21.69354,13.259522 22.103577,13.6993106 22.487768,14.1726602 C22.683357,14.4047902 22.851004,14.6599935 23.003982,14.9221886 C23.15207,15.1871805 23.305746,15.4493756 23.436371,15.7234569 C23.703908,16.2681236 23.93582,16.8323675 24.104864,17.4168878 C24.199864,17.7063512 24.26343,18.0035057 24.330489,18.299961 C24.398945,18.5964163 24.431077,18.8998634 24.482768,19.1991154 L23.987511,19.115213 C24.026629,19.0264163 24.070636,18.9082537 24.104165,18.7984813 C24.143283,18.6880098 24.166335,18.5698472 24.196371,18.4551805 C24.245268,18.2223512 24.291371,17.9867252 24.30604,17.7469041 C24.336077,17.5084813 24.328393,17.2672618 24.328393,17.0267415 C24.324202,16.7862211 24.28718,16.5464 24.269018,16.3065789 L24.203357,15.4360911 L24.729349,16.1010179 C24.837621,16.2373593 24.911665,16.3569203 24.994092,16.4876683 C25.07093,16.6170179 25.14707,16.7463675 25.21343,16.879213 C25.353835,17.1421073 25.471886,17.4133919 25.582952,17.686774 C25.80229,18.2356358 25.967842,18.801278 26.10196,19.3718146 C26.237474,19.9430504 26.323393,20.5226764 26.391151,21.1030016 C26.454018,21.684026 26.481261,22.267148 26.493136,22.8495707 L25.979018,22.7810504 L26.764864,19.9843024 L26.968835,19.257148 L27.25593,19.9493431 C27.54582,20.6471317 27.752585,21.3421236 27.927915,22.0573919 C28.100452,22.7705626 28.233871,23.4928228 28.314901,24.2213756 C28.398724,24.9499285 28.446923,25.6833756 28.435048,26.417522 C28.441335,26.7852943 28.411996,27.1509691 28.39593,27.5180423 C28.384754,27.8851154 28.301629,28.2465951 28.243651,28.6080748 L27.814754,28.4857171 C28.072511,27.9871967 28.321886,27.4781886 28.553798,26.9656846 C28.777327,26.4489854 29.027401,25.939278 29.15593,25.3869203 C29.131482,25.6693919 29.076298,25.950465 29.009938,26.2280423 C28.937989,26.503522 28.861849,26.7790016 28.775232,27.049587 C28.606886,27.5942537 28.423871,28.1312293 28.226886,28.6682049 L27.758173,29.9477171 L27.797989,28.5458472 C27.818246,27.8305789 27.923026,27.1271967 27.911151,26.414026 C27.923026,25.7022537 27.875526,24.9904813 27.794496,24.2829041 C27.715563,23.5753268 27.586335,22.8733431 27.418688,22.1818472 C27.251739,21.4938472 27.04218,20.7995545 26.777438,20.1625951 L27.268504,20.1269366 L26.482658,22.9236846 L26.004864,24.6241073 L25.969239,22.854465 C25.957364,22.2881236 25.931518,21.7217821 25.870048,21.1596358 C25.805085,20.5974894 25.72196,20.0381398 25.591335,19.4899772 C25.462805,18.9418146 25.304239,18.4013431 25.096776,17.8818472 C24.991298,17.623148 24.879533,17.3665463 24.749607,17.1225301 C24.62457,16.8799122 24.475085,16.6296033 24.326996,16.4359285 L24.787327,16.2310667 C24.808283,16.490465 24.847401,16.7498634 24.85229,17.0113593 C24.85229,17.2728553 24.859974,17.5343512 24.827143,17.795148 C24.811077,18.0566439 24.761482,18.3160423 24.706996,18.5733431 C24.673467,18.7012943 24.647621,18.8306439 24.602915,18.9578959 C24.562401,19.0872455 24.521188,19.2061073 24.457621,19.3459447 L24.111151,20.1122537 L23.962364,19.2620423 C23.912768,18.9774732 23.88343,18.6887089 23.817768,18.4076358 C23.753504,18.1258634 23.69343,17.8426927 23.602621,17.5679122 C23.443357,17.0120585 23.221923,16.4750829 22.967658,15.9562862 C22.72457,15.4290992 22.38718,14.957148 22.086114,14.4621236 C21.777364,13.9740911 21.42321,13.4986439 21.027143,13.0868228 L21.253467,13.0413756 L20.912585,13.6356846 L20.828761,13.7818146 L20.730268,13.6489691 C20.592658,13.4650829 20.466224,13.2714081 20.306261,13.1008065 C20.158173,12.9211154 19.992621,12.7561073 19.829864,12.5876033 C19.493871,12.2610829 19.140415,11.9506439 18.765305,11.6653756" id="Fill-23" fill="#784E3D"/>
          <path d="M39.280904,4.7363626 C39.598037,3.15829756 40.652816,0.740508943 42.39914,0.959354472 C43.442743,1.08940325 44.959949,2.19761463 45.124801,6.68359837 C45.246346,10.0019398 44.46539,11.2017447 41.643331,11.1933545 C40.52289,11.1898585 38.386088,9.19367967 39.280904,4.7363626" id="Fill-25" fill="#BB8E5D"/>
          <path d="M53.844614,20.9733024 L51.050496,20.4489122 L48.69296,16.7565057 L52.791232,17.9360341 C52.791232,17.9360341 53.786636,20.1286846 53.844614,20.9733024" id="Fill-27" fill="#FBF3ED"/>
          <path d="M57.970268,27.2222862 C57.970268,27.2222862 56.922474,26.3923512 57.141114,24.783522 C57.325526,23.4201073 57.948614,22.8523675 60.051187,25.0736846 C60.803504,25.867961 59.85071,27.0125301 59.451151,27.4914732 C59.050893,27.9704163 58.62479,27.7026276 57.970268,27.2222862" id="Fill-29" fill="#311A14"/>
          <path d="M53.844614,20.9733024 L53.211746,18.2639528 C53.211746,18.2639528 53.245974,18.0073512 51.792335,17.5647659 C50.286305,17.1060992 48.69296,16.7565057 48.69296,16.7565057 L51.050496,20.4489122 L53.844614,20.9733024 Z" id="Stroke-31" stroke="#311A14" stroke-width="0.5"/>
          <path d="M52.120085,20.5254033 C52.120085,20.5254033 51.399901,20.0450618 51.552879,18.9305577 C51.627621,18.3837935 52.220673,17.7859886 52.791371,17.9356146 C53.49968,18.1215984 53.844754,20.9735821 53.844754,20.9735821 L51.631114,20.5575659" id="Fill-33" fill="#311A14"/>
          <path d="M48.860397,26.202522 C48.860397,26.202522 48.868081,26.3703268 48.954699,26.6332211 C48.995213,26.7646683 49.064368,26.9170911 49.147493,27.0827984 C49.231316,27.2513024 49.370324,27.4107171 49.45275,27.619774 C49.558926,27.8169447 49.691647,28.0253024 49.859294,28.2266683 C50.019257,28.4329285 50.213449,28.6349935 50.427897,28.8293675 C50.853301,29.2286033 51.363228,29.5740016 51.912971,29.9117089 C52.457824,30.2515138 53.001978,30.5892211 53.519588,30.8807821 C54.0365,31.1702455 54.533853,31.4135626 54.954368,31.5156439 C55.057051,31.5380179 55.159037,31.5513024 55.247051,31.5520016 C55.337162,31.5743756 55.422382,31.5918553 55.504809,31.5918553 C55.67036,31.5995463 55.820544,31.5547984 55.942787,31.4995626 C56.061537,31.4394325 56.160728,31.3862943 56.220801,31.3387496 C56.284368,31.2954 56.318596,31.2716276 56.318596,31.2716276 C56.308118,31.2646358 56.266904,31.4317415 56.065029,31.6624732 C55.961647,31.7743431 55.810765,31.9064894 55.590728,31.9931886 C55.481059,32.0372374 55.359515,32.0742943 55.22889,32.0833837 C55.097566,32.0854813 54.970434,32.0477252 54.837713,32.0267496 C54.318007,31.8987984 53.798301,31.6359041 53.263926,31.3380504 C52.730949,31.0387984 52.181904,30.6968959 51.634956,30.3563919 C51.089404,30.0214813 50.527787,29.6432211 50.072346,29.2153187 C49.841132,29.0048634 49.628779,28.7839203 49.449956,28.5538878 C49.264846,28.330148 49.113265,28.0959203 48.991022,27.8686846 C48.837346,27.6568309 48.817787,27.4002293 48.777971,27.1967659 C48.750029,26.9870098 48.750029,26.8031236 48.762603,26.6541967 C48.789147,26.3549447 48.860397,26.202522 48.860397,26.202522" id="Fill-35" fill="#23110A"/>
          <g id="Group-39" transform="translate(36.551471, 0.041951)">
            <mask id="mask-2" fill="white">
              <use xlink:href="#path-1"/>
            </mask>
            <g id="path-1"/>
            <path d="M9.06355882,11.6234244 C9.06355882,11.6234244 8.99580147,11.289213 8.87705147,10.7053919 C8.82186765,10.4131317 8.75550735,10.0572455 8.67866912,9.64961951 C8.64025,9.4461561 8.59903676,9.22940813 8.55572794,9.00077398 C8.51451471,8.77144065 8.51730882,8.52532683 8.48657353,8.27222114 C8.39157353,7.25700163 8.28050735,6.07327805 8.16175735,4.80425366 C8.08561765,4.18757073 7.96407353,3.54781463 7.74613235,2.95000976 C7.52679412,2.35779837 7.19219853,1.78586341 6.68506618,1.46843252 C6.43289706,1.3139122 6.14999265,1.20833496 5.84752941,1.19505041 C5.78047059,1.19225366 5.67848529,1.17687154 5.64076471,1.18176585 L5.38859559,1.20413984 C5.21745588,1.22161951 5.11756618,1.26846504 4.97576471,1.31041626 C4.43021324,1.53205854 4.00620588,2.00331057 3.70164706,2.52420488 C3.38800735,3.04370081 3.17286029,3.60794472 2.98914706,4.15121301 C2.89763971,4.43018862 2.809625,4.70077398 2.72440441,4.96296911 C2.63569118,5.22026992 2.56933088,5.45939187 2.50227206,5.70690407 C2.39190441,6.20053008 2.239625,6.6508065 2.04892647,7.04374959 C1.95183088,7.23952195 1.86172059,7.42830244 1.68638971,7.58352195 C1.61513971,7.67022114 1.43072794,7.70168455 1.37344853,7.68979837 C1.29102206,7.69119675 1.21208824,7.69259512 1.13734559,7.6939935 C0.820213235,7.66253008 0.584808824,7.59750569 0.434625,7.5485626 C0.28025,7.50521301 0.200617647,7.47235122 0.200617647,7.47235122 C0.200617647,7.47235122 0.285139706,7.48773333 0.445102941,7.49682276 C0.605764706,7.51430244 0.834882353,7.51570081 1.11010294,7.5003187 C1.24771324,7.45696911 1.45797059,7.46675772 1.49010294,7.37516423 C1.56903676,7.27518049 1.63120588,7.09479024 1.68080147,6.90670894 C1.77580147,6.52145691 1.84076471,6.06069268 1.99653676,5.5705626 C2.06219853,5.32654634 2.13833824,5.05316423 2.22914706,4.79166829 C2.31436765,4.53087154 2.40168382,4.26168455 2.49249265,3.98410732 C2.68249265,3.42335935 2.90672059,2.82765203 3.25249265,2.2543187 C3.58778676,1.68518049 4.07675735,1.11184715 4.78366912,0.823082927 C4.95620588,0.762253659 5.17903676,0.695131707 5.34179412,0.681847154 L5.59326471,0.659473171 C5.72388971,0.65038374 5.79025,0.669261789 5.89223529,0.672757724 C6.26664706,0.690237398 6.64245588,0.824481301 6.96517647,1.02514797 C7.62109559,1.44186341 7.99550735,2.12077398 8.23789706,2.76822114 C8.47749265,3.42895285 8.60113235,4.09318049 8.68146324,4.73922927 C8.80091176,6.00755447 8.91127941,7.19197724 9.00627941,8.20719675 C9.02304412,8.46170081 9.07194118,8.70152195 9.07333824,8.93574959 C9.07403676,9.16927805 9.07403676,9.39161951 9.07473529,9.59997724 C9.07473529,10.0173919 9.07543382,10.3809691 9.07613235,10.6802211 C9.06775,11.2808228 9.06355882,11.6234244 9.06355882,11.6234244" id="Fill-37" fill="#784E3D" mask="url(#mask-2)"/>
            <path d="M3.087569,3.1508864 C3.087569,3.1508864 0.681136,10.953114 5.702165,11.2299921 C8.718415,11.3963986 8.647165,6.90621973 8.534003,5.7308864" id="Stroke-40" stroke="#784E3D" stroke-width="0.525" mask="url(#mask-2)"/>
          </g>
        </g>
        <g id="Group-45" transform="translate(0.000000, 23.814309)">
          <path d="M56.9524301,2.03316585 C56.9524301,2.03316585 42.1561801,20.7126455 24.9541949,20.4511496 C6.7058125,19.3142715 4.39228309,6.07376748 4.13033456,4.28175122 C3.86838603,2.49043415 3.69375368,0.480271545 2.1220625,0.655068293 C0.550371324,0.829865041 -1.37477574,6.91279187 2.68507721,13.7732146 C6.74562868,20.6343366 17.4023934,25.3811171 24.9989007,25.3447593 C33.8611434,25.2140114 45.466511,22.5046618 56.9524301,12.2350033" id="Fill-42" fill="#DCB285"/>
          <path d="M56.9524301,2.03316585 C56.9524301,2.03316585 42.1561801,20.7126455 24.9541949,20.4511496 C6.7058125,19.3142715 4.39228309,6.07376748 4.13033456,4.28175122 C3.86838603,2.49043415 3.69375368,0.480271545 2.1220625,0.655068293 C0.550371324,0.829865041 -1.37477574,6.91279187 2.68507721,13.7732146 C6.74562868,20.6343366 17.4023934,25.3811171 24.9989007,25.3447593 C33.8611434,25.2140114 45.466511,22.5046618 56.9524301,12.2350033" id="Stroke-44" stroke="#784E3D" stroke-width="0.525"/>
        </g>
        <g id="Group-2" transform="translate(41.000000, 28.000000)">
          <path d="M49.893136,4.8447984 C49.893136,4.8447984 50.2451949,17.5553187 33.1577684,24.8737089 C15.9809301,32.2298553 12.8137978,34.2588959 11.8176949,35.9390423 C10.7608199,37.7212699 11.3727316,40.4145382 12.5371801,44.2600667 L14.268136,49.1264081 C14.268136,49.1264081 14.7920331,50.9911398 16.655011,50.5247821 C22.3410404,49.1026358 23.839386,49.0627821 24.3821434,49.6507984 C25.9182096,51.316961 24.9311875,52.8852374 22.8251213,57.0796602 L10.324239,57.0796602 C10.324239,57.0796602 9.5824007,57.2111073 8.2286507,53.4089285 C6.8755993,49.6074488 1.1560404,33.6568959 1.1560404,33.6568959 C1.1560404,33.6568959 0.6321434,32.6521642 1.1560404,31.3411886 C1.6799375,30.030213 5.4666654,27.0404894 7.1808566,24.6548634 C8.9711875,22.1643593 14.0704522,13.817465 15.9522904,0.0959203" id="Fill-46" fill="#DCB285"/>
          <path d="M49.8934853,4.8447984 C49.8934853,4.8447984 50.2455441,17.5553187 33.1581176,24.8737089 C15.9812794,32.2298553 12.8141471,34.2588959 11.8180441,35.9390423 C10.7611691,37.7212699 11.3730809,40.4145382 12.5375294,44.2600667 L14.2684853,49.1264081 C14.2684853,49.1264081 14.7923824,50.9911398 16.6553603,50.5247821 C22.3413897,49.1026358 23.8397353,49.0627821 24.3824926,49.6507984 C25.9185588,51.316961 25.1753235,52.9635463 22.8254706,57.0796602 L10.3245882,57.0796602 C10.3245882,57.0796602 9.58275,57.2111073 8.229,53.4089285 C6.8759485,49.6074488 1.1563897,33.6568959 1.1563897,33.6568959 C1.1563897,33.6568959 0.6324926,32.6521642 1.1563897,31.3411886 C1.6802868,30.030213 5.4670147,27.0404894 7.1812059,24.6548634 C8.9715368,22.1643593 14.0708015,13.817465 15.9526397,0.0959203" id="Stroke-48" stroke="#784E3D" stroke-width="0.525"/>
          <path d="M19.2744963,52.1857008 C19.2744963,52.1857008 19.398136,52.0913106 19.6300478,51.9486764 C19.7474007,51.8794569 19.8892022,51.7927577 20.0603419,51.7088553 C20.2321801,51.6347415 20.4186875,51.5004976 20.6540919,51.476026 C21.1123272,51.3844325 21.6606728,51.2753593 22.2928419,51.3830341 C22.6001949,51.4403675 22.9627316,51.5802049 23.196739,51.8920423 C23.3112978,52.0395707 23.3944228,52.2241561 23.4307463,52.388465 C23.4726581,52.5248065 23.5033934,52.6905138 23.5257463,52.8681073 C23.5990919,53.5379285 23.4265551,54.1888715 23.1785772,54.7272455 C22.9340919,55.2726114 22.6197537,55.7221886 22.341739,56.0934569 C22.2690919,56.183652 22.2027316,56.273148 22.141261,56.359148 C22.0637243,56.4318634 21.9785037,56.4905951 21.9044596,56.5507252 C21.7521801,56.6639935 21.618761,56.7625789 21.5097904,56.8443837 C21.286261,57.0003024 21.1521434,57.0800098 21.1521434,57.0800098 C21.1521434,57.0800098 21.2261875,56.9443675 21.356114,56.7059447 C21.4203787,56.5884813 21.4979154,56.445148 21.5873272,56.2815382 C21.6313346,56.2004325 21.6711507,56.1081398 21.7249375,56.0221398 C21.7905993,55.9459285 21.8576581,55.8641236 21.9240184,55.776026 C22.1880625,55.424335 22.4828419,55.0006276 22.7014816,54.5111967 C22.9257096,54.0266602 23.0647169,53.4673106 23.0053419,52.9289366 C22.9906728,52.8058797 22.971114,52.6744325 22.9243125,52.5227089 C22.8956728,52.3933593 22.8467757,52.3010667 22.7818125,52.2129691 C22.6560772,52.0402699 22.4353419,51.9430829 22.1950478,51.898335 C21.7060772,51.8116358 21.1891654,51.898335 20.7679522,51.9899285 C20.561886,52.0640423 20.348136,52.0395707 20.168614,52.070335 C19.9855993,52.0927089 19.825636,52.111587 19.693614,52.1269691 C19.4267757,52.1647252 19.2744963,52.1857008 19.2744963,52.1857008" id="Fill-50" fill="#784E3D"/>
        </g>
        <g id="Group" transform="translate(134.000000, 30.000000)">
          <path d="M2.719809,7.1420016 C5.688559,12.5607008 0.230949,20.6447008 0.230949,20.6447008 C3.418338,25.0146195 5.557235,32.0917902 9.74911,41.1399691 C13.767051,49.8154813 17.170287,55.0803593 17.170287,55.0803593 L28.740029,55.0803593 C31.01025,51.1180667 32.00286,49.1659366 31.187676,48.1758878 C30.372493,47.1851398 29.016647,47.3599366 25.174735,48.2919528 C21.332824,49.2246683 21.194515,47.5780829 20.808926,47.0103431 C20.143926,45.6832862 18.014809,41.5916439 16.967015,30.1718228 C15.919221,18.7513024 21.099515,7.9139041 21.099515,7.9139041 C21.099515,7.9139041 20.127162,6.4560992 19.309882,5.3940341 C12.237272,-3.797478 0.738779,3.5258065 2.719809,7.1420016" id="Fill-52" fill="#DCB285"/>
          <path d="M2.719809,7.1420016 C5.470618,13.784278 0.230949,20.6447008 0.230949,20.6447008 C3.418338,25.0146195 5.557235,32.0917902 9.74911,41.1399691 C13.767051,49.8154813 17.170287,55.0803593 17.170287,55.0803593 L28.740029,55.0803593 C31.01025,51.1180667 32.00286,49.1659366 31.187676,48.1758878 C30.372493,47.1851398 29.016647,47.3599366 25.174735,48.2919528 C21.332824,49.2246683 21.194515,47.5780829 20.808926,47.0103431 C20.143926,45.6832862 18.014809,41.5916439 16.967015,30.1718228 C15.919221,18.7513024 21.099515,7.9139041 21.099515,7.9139041" id="Stroke-54" stroke="#784E3D" stroke-width="0.525"/>
          <path d="M24.548853,50.5352943 C24.548853,50.5352943 24.682971,50.4304163 24.933743,50.2737984 C25.061574,50.1982862 25.216647,50.1066927 25.393375,50.0018146 C25.484882,49.9521724 25.581279,49.8990341 25.683265,49.8430992 C25.788743,49.7955545 25.910287,49.7815707 26.029735,49.7403187 C26.514515,49.6039772 27.088007,49.457148 27.743926,49.4186927 C28.070838,49.4082049 28.429184,49.4130992 28.800801,49.5788065 C28.985213,49.6578146 29.168228,49.8158309 29.273007,50.0137008 C29.379184,50.2101724 29.414809,50.4304163 29.403632,50.6219935 C29.398044,50.8359447 29.368706,50.9631967 29.35264,51.1372943 C29.326096,51.3044 29.298853,51.4777984 29.264625,51.6428065 C29.191978,51.9721236 29.103963,52.2944488 28.985912,52.5957984 C28.755397,53.2019935 28.422199,53.7242862 28.088301,54.1172293 C27.940912,54.3325789 27.735544,54.4647252 27.560912,54.5793919 C27.386978,54.6954569 27.233301,54.7884488 27.105471,54.8625626 C26.84911,55.0093919 26.695434,55.0800098 26.695434,55.0800098 C26.695434,55.0800098 26.798816,54.9478634 26.979735,54.7164325 C27.070544,54.6031642 27.178118,54.464026 27.292676,54.3011154 C27.409331,54.1382049 27.516206,53.9424325 27.687346,53.7802211 C27.991206,53.420839 28.288081,52.957278 28.496941,52.4077171 C28.604515,52.134335 28.684846,51.839278 28.751904,51.5351317 C28.783338,51.3820098 28.807088,51.2323837 28.832235,51.0757659 C28.846904,50.9233431 28.881831,50.724774 28.879735,50.6094081 C28.889515,50.3332293 28.79661,50.1535382 28.576574,50.0521561 C28.353743,49.9500748 28.053375,49.9290992 27.768375,49.9430829 C27.189993,49.9759447 26.637456,50.1129854 26.174331,50.2444325 C26.056279,50.2724 25.950801,50.324839 25.841831,50.3465138 C25.730066,50.3604976 25.62389,50.3737821 25.524,50.3863675 C25.323522,50.4164325 25.14889,50.4423024 25.005691,50.4639772 C24.715103,50.5094244 24.548853,50.5352943 24.548853,50.5352943" id="Fill-56" fill="#784E3D"/>
        </g>
      </g>
    </g>
  </g>
</svg>