<svg version="1.1" width="110" height="90" viewBox="-1 -1 110 90" xmlns="http://www.w3.org/2000/svg" xmlns:xlink="http://www.w3.org/1999/xlink">
  <!-- Exported by Scratch - http://scratch.mit.edu/ -->
  <path id="body" fill="#3E5360" stroke="none" stroke-width="1" d="M 113.438 56.623 C 113.438 56.382 113.438 56.222 113.358 55.981 C 104.092 54.297 104.251 53.014 112.719 51.090 C 112.639 50.609 112.559 50.208 112.399 49.727 C 104.891 48.685 104.251 46.760 110.562 43.794 C 110.322 43.152 110.083 42.591 109.843 42.030 C 102.095 42.110 101.615 41.869 107.846 38.021 C 107.686 37.700 107.527 37.379 107.287 37.139 C 99.219 39.063 98.500 38.341 105.450 34.332 C 105.370 34.252 105.290 34.092 105.210 34.012 C 97.701 37.139 97.382 37.299 104.331 32.809 C 104.172 32.649 104.092 32.488 103.932 32.328 C 97.462 34.894 97.062 33.932 102.095 30.083 C 101.855 29.842 101.615 29.522 101.376 29.281 C 95.544 32.007 94.825 31.847 99.778 27.677 C 99.698 27.597 99.538 27.517 99.459 27.357 C 93.467 30.885 92.589 29.361 96.583 24.791 C 96.183 24.470 95.784 24.150 95.305 23.749 C 90.751 25.914 89.314 24.550 91.550 21.023 C 91.311 20.862 91.071 20.702 90.831 20.541 C 86.598 23.909 84.680 23.989 87.237 18.457 C 86.997 18.296 86.678 18.136 86.438 17.976 C 81.246 23.909 80.367 22.706 82.923 16.292 C 82.683 16.212 82.444 16.132 82.204 15.971 C 77.331 22.466 76.133 21.905 78.609 14.608 C 78.450 14.528 78.290 14.448 78.050 14.448 C 72.858 21.584 72.618 20.541 73.178 13.005 C 72.938 12.924 72.618 12.844 72.379 12.844 C 69.423 20.301 67.746 20.060 68.864 12.123 C 68.784 12.123 68.624 12.042 68.544 12.042 C 65.269 20.301 63.911 19.659 63.592 11.401 C 63.432 11.401 63.192 11.401 63.033 11.321 C 60.876 19.900 59.837 20.221 58.719 11.160 C 58.559 11.160 58.479 11.160 58.320 11.160 C 56.322 19.098 56.562 18.296 53.766 11.401 C 53.287 11.481 52.808 11.481 52.249 11.561 C 51.689 19.178 52.249 19.098 48.334 12.203 C 47.935 12.283 47.536 12.363 47.136 12.443 C 48.095 18.697 47.536 18.858 44.101 13.165 C 43.781 13.245 43.462 13.325 43.142 13.405 C 44.740 19.980 43.941 19.820 39.947 14.448 C 39.707 14.528 39.467 14.608 39.228 14.688 C 41.145 20.221 39.148 21.504 35.234 16.292 C 35.074 16.372 34.994 16.452 34.834 16.452 C 37.790 22.786 36.911 23.749 32.038 17.815 C 31.879 17.895 31.799 17.976 31.639 18.056 C 34.834 23.909 34.115 24.310 29.083 19.499 C 28.763 19.659 28.444 19.900 28.124 20.060 C 30.920 25.112 30.121 25.753 25.009 22.065 C 24.689 22.305 24.450 22.466 24.130 22.706 C 28.444 28.559 27.485 29.361 20.615 25.513 C 20.376 25.673 20.216 25.914 19.976 26.074 C 25.169 32.007 24.130 32.969 16.302 29.602 C 16.062 29.842 15.822 30.163 15.583 30.404 C 20.536 34.974 19.577 36.096 12.308 34.413 C 11.988 34.814 11.669 35.295 11.429 35.695 C 17.580 40.266 16.861 41.709 8.314 40.907 C 8.154 41.228 7.994 41.549 7.834 41.869 C 15.183 46.039 14.464 47.562 5.518 48.123 C 5.438 48.524 5.278 48.925 5.198 49.326 C 11.269 50.930 11.189 51.812 4.639 52.373 C 4.879 52.934 4.799 53.495 4.799 53.977 C 9.672 55.179 9.592 56.302 4.639 57.505 C 4.639 58.226 4.639 58.868 4.719 59.589 C 8.793 60.231 8.873 61.113 5.038 62.556 C 5.118 63.277 5.278 63.999 5.438 64.721 C 9.512 64.961 9.751 65.843 6.157 67.607 C 6.317 68.249 6.556 68.810 6.796 69.371 C 11.749 69.050 12.148 70.093 8.154 72.578 C 8.473 73.220 8.793 73.941 9.112 74.583 C 15.024 73.941 15.743 75.144 11.429 78.432 C 11.669 78.832 11.988 79.233 12.228 79.554 C 18.618 77.469 19.257 78.351 14.544 82.521 C 14.784 82.841 15.104 83.162 15.343 83.403 C 22.053 80.516 22.852 81.398 18.299 86.369 C 18.618 86.610 18.938 86.931 19.257 87.171 C 25.888 83.643 27.086 84.525 23.251 90.298 C 23.571 90.539 23.970 90.779 24.370 91.020 C 29.722 87.251 30.601 88.053 27.885 93.185 C 28.204 93.345 28.604 93.586 28.923 93.746 C 33.796 89.015 34.914 89.657 31.799 95.189 C 32.038 95.269 32.278 95.430 32.518 95.510 C 38.030 89.737 37.950 89.737 35.713 96.793 C 36.112 96.953 36.432 97.033 36.831 97.194 C 41.225 91.501 42.183 91.741 40.426 98.236 C 40.666 98.316 40.905 98.316 41.065 98.396 C 45.379 90.940 46.657 91.100 45.858 99.278 C 46.018 99.278 46.178 99.359 46.337 99.359 C 49.852 91.822 51.210 91.902 51.290 99.759 C 51.609 99.759 51.929 99.759 52.249 99.759 C 54.325 93.986 55.683 93.986 56.962 99.679 C 57.041 99.679 57.121 99.679 57.201 99.679 C 57.601 99.679 58.080 99.599 58.479 99.599 C 59.438 94.387 60.556 94.307 61.994 99.278 C 62.473 99.198 62.873 99.198 63.352 99.118 C 63.831 93.666 64.870 93.505 67.027 98.637 C 67.346 98.557 67.746 98.557 68.065 98.477 C 67.586 91.661 68.544 91.581 71.340 97.915 C 71.500 97.915 71.660 97.835 71.820 97.835 C 70.382 90.539 71.260 90.298 75.095 97.114 C 75.334 97.033 75.574 97.033 75.734 96.953 C 74.136 90.539 75.015 90.218 79.009 96.151 C 79.249 96.071 79.488 95.991 79.728 95.991 C 77.411 89.817 78.370 89.496 83.163 94.949 C 83.562 94.788 83.962 94.708 84.361 94.548 C 82.364 88.614 83.882 88.053 89.553 92.543 C 89.953 92.383 90.352 92.223 90.751 91.982 C 88.036 88.053 88.515 87.813 92.589 91.100 C 92.988 90.859 93.467 90.699 93.867 90.459 C 91.870 87.332 92.669 86.850 96.583 88.855 C 97.302 88.374 98.101 87.893 98.740 87.412 C 96.902 84.525 97.941 83.804 101.855 84.926 C 102.654 84.205 103.453 83.483 104.172 82.761 C 100.417 78.592 101.296 77.309 107.766 78.351 C 108.086 77.870 108.485 77.309 108.805 76.828 C 103.692 73.300 104.571 72.258 110.882 72.739 C 111.041 72.338 111.201 71.937 111.361 71.536 C 104.970 69.371 104.811 69.131 111.601 70.734 C 111.680 70.574 111.680 70.414 111.760 70.253 C 104.012 66.966 104.491 63.999 113.038 64.721 C 113.118 64.320 113.118 63.919 113.198 63.598 C 105.530 60.231 105.769 61.433 113.438 60.872 C 113.438 60.391 113.438 59.910 113.518 59.429 C 108.485 58.226 105.689 57.424 113.438 56.623 Z " transform="matrix(1, 0, 0, 1, -3.75, -11)"/>
  <g id="face" transform="matrix(1, 0, 0, 1, 0.25, 0)">
    <g id="Group">
      <path id="Shape" fill="#DBCCB6" stroke="none" stroke-width="1" d="M 28.997 10.183 C 29.476 5.372 25.802 5.693 23.325 2.726 C 20.689 -0.481 -1.038 -0.481 0.320 3.368 C 2.396 9.221 5.112 14.753 26.361 11.386 L 28.997 10.183 Z " transform="matrix(1, 0, 0, 1, 65.5, 53.7)"/>
      <path id="Shape" fill="#65746F" stroke="none" stroke-width="1" d="M 25.562 8.659 C 25.562 8.659 26.680 11.225 28.118 11.225 C 29.556 11.225 30.675 8.659 30.675 8.659 C 30.675 7.216 29.556 6.655 28.118 6.575 C 26.680 6.655 25.562 7.296 25.562 8.659 Z " transform="matrix(1, 0, 0, 1, 65.5, 53.7)"/>
    </g>
    <g id="Group">
      <path id="Shape" fill="#DBCCB6" stroke="none" stroke-width="1" d="M 6.470 11.546 C 9.346 9.942 7.669 1.203 4.234 0.561 C -0.160 -0.160 -0.320 6.655 2.796 8.499 L 6.470 11.546 Z " transform="matrix(1, 0, 0, 1, 54.3, 32.05)"/>
      <path id="Shape" fill="#DBCCB6" stroke="none" stroke-width="1" d="M 37.784 19.243 C 36.186 16.437 42.178 9.782 45.373 11.065 C 49.527 12.749 46.092 18.682 42.497 18.602 L 37.784 19.243 Z " transform="matrix(1, 0, 0, 1, 54.3, 32.05)"/>
      <g id="Shape">
        <path id="ID0.05043839616701007" fill="#DBCCB6" stroke="none" stroke-width="1" d="M 38.982 11.867 C 36.746 9.381 26.281 14.112 20.050 12.508 C 13.820 10.905 6.950 1.604 3.834 2.726 C -1.038 4.410 0.799 11.546 3.036 16.196 C 4.633 19.644 10.784 25.016 18.133 26.540 C 25.322 28.785 30.675 26.780 33.231 24.054 C 35.627 21.488 42.497 15.715 38.982 11.867 Z " transform="matrix(1, 0, 0, 1, 55.1, 38.45)"/>
        <g id="ID0.2484090835787356">
          <path id="ID0.9792239018715918" fill="#C6A87B" stroke="none" stroke-width="1" opacity="0.6" d="M 0.799 1.363 C 2.876 1.283 4.074 3.047 4.473 4.891 C 4.633 5.613 5.672 5.292 5.592 4.570 C 5.112 2.245 3.355 0.080 0.799 0.241 C 0 0.321 0 1.443 0.799 1.363 Z " transform="matrix(1, 0, 0, 1, 63.9, 38.45)"/>
        </g>
        <g id="ID0.9377266182564199">
          <path id="ID0.47474324610084295" fill="#C6A87B" stroke="none" stroke-width="1" opacity="0.6" d="M 1.358 4.089 C 2.636 2.085 4.953 0.641 7.269 1.844 C 7.908 2.165 8.467 1.203 7.828 0.882 C 4.953 -0.641 1.997 0.962 0.399 3.528 C 0 4.169 0.959 4.731 1.358 4.089 Z " transform="matrix(1, 0, 0, 1, 81.45, 44.05)"/>
        </g>
      </g>
    </g>
    <path id="Shape" fill="#3E5360" stroke="none" stroke-width="1" d="M 7.589 16.918 C 8.707 18.762 10.225 20.205 12.462 19.484 C 13.101 19.323 12.781 18.361 12.222 18.522 C 10.385 19.083 9.346 17.880 8.467 16.357 C 8.148 15.876 7.269 16.357 7.589 16.918 Z " transform="matrix(1, 0, 0, 1, 54.3, 32.05)"/>
    <path id="Shape" fill="#3E5360" stroke="none" stroke-width="1" d="M 27.719 22.611 C 29.556 24.856 32.033 24.695 34.109 22.851 C 34.589 22.450 33.870 21.729 33.391 22.130 C 31.713 23.653 29.876 23.733 28.358 21.889 C 27.959 21.408 27.240 22.130 27.719 22.611 Z " transform="matrix(1, 0, 0, 1, 54.3, 32.05)"/>
  </g>
</svg>