<svg version="1.1" id="shark1-a" x="0px" y="0px" width="150px" height="150px" viewBox="0 0 150 150" enable-background="new 0 0 150 150" xml:space="preserve" xmlns="http://www.w3.org/2000/svg" xmlns:xlink="http://www.w3.org/1999/xlink">
  <g>
    <g id="Body">
      <g id="Teeth">
        <path fill="#FFFFFF" stroke="#000000" d="M95.999,76.837c-0.5,0.129-1.312-1.987-1.851-3.673c0.705-0.352,1.388-0.678,2.056-0.979&#xD;&#xA;&#x9;&#x9;&#x9;C96.566,74.016,96.529,76.701,95.999,76.837z"/>
        <path fill="#FFFFFF" stroke="#000000" d="M123.373,74.146c-0.605,2.03-2.988,5.427-3.671,5.09c-0.685-0.34,0.507-4.258,1.182-6.15&#xD;&#xA;&#x9;&#x9;&#x9;L123.373,74.146z"/>
        <path fill="#FFFFFF" stroke="#000000" d="M117.764,71.741c-0.509,2.062-2.722,5.587-3.418,5.288&#xD;&#xA;&#x9;&#x9;&#x9;c-0.699-0.301,0.297-4.278,0.881-6.208L117.764,71.741z"/>
        <path fill="#FFFFFF" stroke="#000000" d="M109.044,75.492c-0.673-0.178-0.321-3.674-0.004-5.782&#xD;&#xA;&#x9;&#x9;&#x9;c1.062,0.063,1.838,0.209,2.661,0.37C111.335,72.241,109.736,75.674,109.044,75.492z"/>
        <path fill="#FFFFFF" stroke="#000000" d="M106.182,69.262c0,0.095-0.004,0.196-0.004,0.196S106.178,69.405,106.182,69.262&#xD;&#xA;&#x9;&#x9;&#x9;c-0.193,2.513-1.218,5.528-1.83,5.45c-0.572-0.071-0.647-2.782-0.603-4.708c0,0,0.032-0.902,0,0&#xD;&#xA;&#x9;&#x9;&#x9;C103.782,69.102,106.182,69.262,106.182,69.262z"/>
        <path fill="#FFFFFF" stroke="#000000" d="M99.625,75.527c-0.55,0.016-0.962-2.422-1.175-4.308&#xD;&#xA;&#x9;&#x9;&#x9;c0.771-0.271,1.544-0.503,2.333-0.701C100.838,72.514,100.227,75.514,99.625,75.527z"/>
        <path fill="#FFFFFF" stroke="#000000" d="M128.835,83.802c-0.489-0.521,1.456-3.3,2.731-4.935&#xD;&#xA;&#x9;&#x9;&#x9;c0.801,0.461,1.625,0.876,2.234,1.631C132.523,82.168,129.355,84.357,128.835,83.802z"/>
        <path fill="#FFFFFF" stroke="#000000" d="M128.77,77.033c-0.894,1.902-3.734,4.854-4.358,4.406&#xD;&#xA;&#x9;&#x9;&#x9;c-0.626-0.45,1.112-4.121,2.056-5.875L128.77,77.033z"/>
        <path fill="#FFFFFF" stroke="#000000" d="M132.618,87.531c-0.382-0.538,1.479-2.623,2.93-4.068&#xD;&#xA;&#x9;&#x9;&#x9;c0.396,0.85,0.741,1.719,1.093,2.598C135.02,87.145,132.958,88.011,132.618,87.531z"/>
        <path fill="#FFFFFF" stroke="#000000" d="M125.243,82.48c0.511,0.062,0.604,2.354,0.573,4.137&#xD;&#xA;&#x9;&#x9;&#x9;c-0.771,0.068-1.517,0.124-2.237,0.158C123.814,84.924,124.701,82.413,125.243,82.48z"/>
        <path fill="#FFFFFF" stroke="#000000" d="M98.857,79.396c0.668-1.552,2.867-4.002,3.381-3.662c0.514,0.344-0.785,3.336-1.494,4.77&#xD;&#xA;&#x9;&#x9;&#x9;L98.857,79.396z"/>
        <path fill="#FFFFFF" stroke="#000000" d="M103.018,81.086c0.735-1.979,3.33-5.188,3.989-4.799c0.658,0.389-0.78,4.208-1.575,6.045&#xD;&#xA;&#x9;&#x9;&#x9;L103.018,81.086z"/>
        <path fill="#FFFFFF" stroke="#000000" d="M111.966,78.396c0.614,0.349-0.509,3.646-1.289,5.609&#xD;&#xA;&#x9;&#x9;&#x9;c-1.017-0.34-1.735-0.683-2.499-1.054C109.016,80.953,111.335,78.041,111.966,78.396z"/>
        <path fill="#FFFFFF" stroke="#000000" d="M113.34,84.898c0.021-0.094,0.049-0.189,0.049-0.189S113.375,84.759,113.34,84.898&#xD;&#xA;&#x9;&#x9;&#x9;c0.751-2.391,2.419-5.045,2.996-4.812c0.539,0.221,0.008,2.872-0.47,4.729c0,0-0.233,0.867,0,0&#xD;&#xA;&#x9;&#x9;&#x9;C115.633,85.682,113.34,84.898,113.34,84.898z"/>
        <path fill="#FFFFFF" stroke="#000000" d="M120.988,81.671c0.521,0.188,0.14,2.632-0.26,4.479c-0.812-0.03-1.608-0.1-2.414-0.202&#xD;&#xA;&#x9;&#x9;&#x9;C118.895,84.055,120.418,81.463,120.988,81.671z"/>
        <path fill="#FFFFFF" stroke="#000000" d="M95.341,77.453c0.722-1.162,2.792-2.839,3.166-2.492&#xD;&#xA;&#x9;&#x9;&#x9;c0.374,0.348-1.032,2.588-1.774,3.648L95.341,77.453z"/>
      </g>
      <path id="Fill" fill="#2F8EFF" d="M129.993,41.787c-20.677-19.056-42.912-10.438-54.747,1.809c-0.169,0.28-0.406,0.524-0.613,0.607&#xD;&#xA;&#x9;&#x9;c-0.717,0.286-23.428-14.237-26.678-11.441c-4.525,3.895,7.287,22.431,9.458,26.724c-6.865,3.862-15.995,19.257-18.362,25.217&#xD;&#xA;&#x9;&#x9;l-0.302,0.232c-3.352-2.58-8.537-4.795-12.659-5.139c-3.467-0.286-21.245-0.357-18.664,7.146c0.831,2.418,5.315,5.173,7.388,6.306&#xD;&#xA;&#x9;&#x9;c8.948,4.89,19.835,0.972,22.385-0.006c-1.076,7.271-2.037,16.655,2.068,22.28c0.992,1.354,3.437,3.476,5.185,2.709&#xD;&#xA;&#x9;&#x9;c2.424-1.065,3.938-5.58,4.58-7.192c1.801-4.528,1.3-13.485-4.796-21.388c12.469-14.279,31.096-6.423,35.255-2.709&#xD;&#xA;&#x9;&#x9;c4.572,4.082,10.509,8.724,22.621,9.454c7.438-0.828,19.602-3.268,24.907-8.999c-10.82-1.562-29.961-3.213-36.43-13.578&#xD;&#xA;&#x9;&#x9;c19.361-9.773,39.021-4.521,48.311,13.693c3.779-5.021,3.561-13.228,3.396-15.867C141.55,59.523,138.691,49.804,129.993,41.787z"/>
      <path id="Outline_2_" d="M109.305,27.857c-6.127-1.045-23.924-0.296-34.894,13.928c-4.554-3.703-22.714-14.805-28.098-12.151&#xD;&#xA;&#x9;&#x9;c-2.268,1.117-2.295,5.513-1.771,7.845c1.298,5.772,6.931,16.021,10.062,20.889c-5.57,4.281-13.389,14.242-17.016,23.485&#xD;&#xA;&#x9;&#x9;c-3.553-3.604-7.95-3.818-12.537-4.762c-4.221-0.867-21.067,0.913-20.003,8.405c0.889,6.244,10.782,10.963,15.857,11.86&#xD;&#xA;&#x9;&#x9;c3.455,0.611,8.577,1.189,11.839-0.326c0.77-0.357,1.507-0.789,2.29-1.121c-1.626,6.874-1.34,13.091,1.858,19.38&#xD;&#xA;&#x9;&#x9;c0.853,1.676,3.458,5.763,5.271,6.164c4.733,1.047,8.346-8.427,9.333-12.095c1.891-7.034-0.559-13.74-4.477-19.236&#xD;&#xA;&#x9;&#x9;c7.657-6.771,17.628-8.025,26.381-3.832c0.746,0.357,1.475,0.883,2.218,1.375C88,98.5,92.652,98.5,98.006,99.23l0.002-0.002&#xD;&#xA;&#x9;&#x9;c5.632,1.438,27.396-5.024,31.43-12.018c0.164-0.283-0.597-0.925-0.863-1.027c-2.139-0.797-29.639-3.807-34.482-11.8&#xD;&#xA;&#x9;&#x9;c12.838-5.783,32.494-5.549,43.835,16.399c5.294-3.852,6.919-10.383,7.345-14.944C147.445,52.65,133.932,32.06,109.305,27.857z&#xD;&#xA;&#x9;&#x9; M138.9,87.514C129.611,69.3,109.951,64.048,90.59,73.821c6.469,10.365,25.609,12.015,36.43,13.578&#xD;&#xA;&#x9;&#x9;c-5.306,5.731-17.469,8.171-24.907,8.999C90,95.667,84.063,91.025,79.491,86.943c-4.159-3.714-22.786-11.57-35.255,2.709&#xD;&#xA;&#x9;&#x9;c6.096,7.902,6.597,16.859,4.796,21.388c-0.642,1.612-2.156,6.127-4.58,7.192c-1.748,0.767-4.193-1.354-5.185-2.709&#xD;&#xA;&#x9;&#x9;c-4.105-5.625-3.144-15.01-2.068-22.28c-2.55,0.978-13.437,4.896-22.385,0.006c-2.073-1.133-6.557-3.888-7.388-6.306&#xD;&#xA;&#x9;&#x9;c-2.581-7.504,15.197-7.433,18.664-7.146c4.122,0.344,9.307,2.559,12.659,5.139l0.302-0.232&#xD;&#xA;&#x9;&#x9;c2.367-5.96,11.497-21.355,18.362-25.217c-2.171-4.293-13.983-22.829-9.458-26.724c3.25-2.796,25.961,11.727,26.678,11.441&#xD;&#xA;&#x9;&#x9;c0.208-0.083,0.444-0.327,0.613-0.607c11.835-12.247,34.07-20.865,54.747-1.809c8.698,8.017,11.557,17.736,12.303,29.86&#xD;&#xA;&#x9;&#x9;C142.461,74.286,142.68,82.492,138.9,87.514z"/>
      <path id="Gill_1_" d="M84.342,79.682c-4.48-5.018-1.303-17.28,2.904-21.322c0.896-0.861,3.033-2.784,3.663-2.136&#xD;&#xA;&#x9;&#x9;c1.161,1.2-0.774,1.91-1.574,2.76c-3.526,3.747-5.433,10.559-5.067,15.809c0.094,1.342,0.742,2.55,1.162,3.723&#xD;&#xA;&#x9;&#x9;C85.855,79.712,84.971,80.386,84.342,79.682z"/>
      <path id="Gill" d="M79.834,59.617c-0.734,1.685-1.057,1.944-1.576,3.455c-1.666,4.823-0.98,7.964,0.699,11.708&#xD;&#xA;&#x9;&#x9;c0.412,0.913-0.096,1.897-1.018,1.388c-1.9-1.048-2.066-3.694-2.398-5.714c-0.379-3.38,0.577-8.126,2.107-11.333&#xD;&#xA;&#x9;&#x9;C78.625,57.077,80.677,57.686,79.834,59.617z"/>
    </g>
    <g id="Front_Fin">
      <path id="Fill_1_" fill="#2F8EFF" d="M73.932,101.641c0.584,1.387,3.27,1.568,4.494,1.721c5.815,0.712,12.611-2.865,16.057-7.895&#xD;&#xA;&#x9;&#x9;c0.774-1.133,1.33-5.035,3.371-4.146c-5.437-9.734-13.379-7.554-15.271-6.86c0.257,0.361,0.385,1.045,0.431,1.396&#xD;&#xA;&#x9;&#x9;C84.02,93.665,72.787,98.923,73.932,101.641z"/>
      <path id="Outline_3_" d="M97.854,91.32c-2.041-0.889-2.597,3.014-3.371,4.146c-3.445,5.029-10.241,8.606-16.057,7.895&#xD;&#xA;&#x9;&#x9;c-1.224-0.152-3.91-0.334-4.494-1.721c-1.145-2.718,10.087-7.976,9.082-15.785c-0.046-0.351-0.174-1.034-0.431-1.396&#xD;&#xA;&#x9;&#x9;c-0.204-0.287-0.489-0.371-0.881,0.08c-1.707,9.931-12.418,13.063-12.592,16.747c-0.195,4.15,10.781,4.286,13.341,3.896&#xD;&#xA;&#x9;&#x9;c2.462-0.377,4.744-1.031,6.974-2.18c4.009-2.061,8.249-4.464,9.456-8.246C99.173,93.842,98.786,91.727,97.854,91.32z"/>
    </g>
    <g id="L_Eye">
      <path id="White" fill="#FFFFFF" d="M103.382,25.383c-2.905,2.694-4.61,7.392-2.274,10.146c2.125,2.504,6.113,1.892,8.979-0.186&#xD;&#xA;&#x9;&#x9;c2.557-1.855,4.15-4.842,2.869-7.894C111.346,23.62,106.326,22.658,103.382,25.383z"/>
      <path id="Pupil" d="M107.723,30.726c0.237-1.46,1.764-2.39,3.408-2.077c1.646,0.314,2.785,1.752,2.547,3.212&#xD;&#xA;&#x9;&#x9;s-1.765,2.39-3.408,2.076C108.624,33.624,107.482,32.187,107.723,30.726z"/>
      <path id="Outline" d="M115.248,27.648c-0.818-3.118-4.346-5.763-7.199-6.16c-6.484-0.902-12.686,6.57-10.089,13.44&#xD;&#xA;&#x9;&#x9;C101.082,43.191,118.191,38.88,115.248,27.648z M110.086,35.343c-2.865,2.078-6.854,2.69-8.979,0.186&#xD;&#xA;&#x9;&#x9;c-2.336-2.754-0.631-7.452,2.274-10.146c2.944-2.725,7.964-1.763,9.573,2.066C114.236,30.501,112.643,33.488,110.086,35.343z"/>
      <path id="Eyebrow" d="M110.777,23.05c-0.656,0.135-1.688-0.352-2.318-0.583c-2.503-0.919-7.542-0.8-9.352-2.114&#xD;&#xA;&#x9;&#x9;c-0.205-0.149-0.293-0.611-0.17-0.839c0.994-1.856,10.41,1.827,11.715,2.944C110.802,22.585,110.835,22.873,110.777,23.05z"/>
    </g>
    <g id="R_Eye">
      <path id="White_1_" fill="#FFFFFF" d="M130.432,36.125c-3.947,1.664-2.334,10.118,3.346,9.064c2.103-0.39,2.887-3.289,2.445-5.828&#xD;&#xA;&#x9;&#x9;C135.736,36.563,133.25,34.938,130.432,36.125z"/>
      <path id="Pupil_1_" d="M133.07,41.016c0.447-0.988,1.709-1.313,2.822-0.727c1.111,0.586,1.651,1.862,1.207,2.851&#xD;&#xA;&#x9;&#x9;c-0.445,0.989-1.709,1.313-2.82,0.727C133.166,43.28,132.626,42.004,133.07,41.016z"/>
      <path id="Outline_1_" d="M135.37,34.437c-1.812-1.069-4.886-1.14-6.573,0.295c-6.081,5.168-0.084,16.647,7.182,12.083&#xD;&#xA;&#x9;&#x9;C140.229,44.145,139.475,36.864,135.37,34.437z M133.777,45.189c-5.68,1.054-7.293-7.4-3.346-9.064&#xD;&#xA;&#x9;&#x9;c2.818-1.187,5.305,0.438,5.791,3.236C136.664,41.9,135.88,44.799,133.777,45.189z"/>
      <path id="Eyebrow_1_" d="M131.564,34.119c0.402,0.28,1.207,0.256,1.687,0.285c1.892,0.116,5.206,1.655,6.731,1.308&#xD;&#xA;&#x9;&#x9;c0.172-0.039,0.347-0.32,0.322-0.507c-0.199-1.521-7.367-1.806-8.514-1.443C131.665,33.803,131.57,33.984,131.564,34.119z"/>
    </g>
  </g>
</svg>