<svg version="1.1" width="127" height="166" xmlns="http://www.w3.org/2000/svg" xmlns:xlink="http://www.w3.org/1999/xlink">
  <!-- Exported by Scratch - http://scratch.mit.edu/ -->
  <g id="ID0.8892158004455268" transform="matrix(0.7737809419631958, 0, 0, 0.7737809419631958, 0.25, -0.4)">
    <path id="R_Arm_1_" fill="#1B75BB" stroke="#000000" d="M 88.942 106.658 C 88.184 108.299 89.754 110.763 90.137 111.336 C 91.000 112.635 93.907 113.721 93.907 113.721 C 93.907 113.721 104.407 116.721 104.157 119.721 L 104.020 120 C 101.815 120.613 97.930 121.697 93.592 122.914 C 86.971 124.769 82.383 137.107 94.211 138.365 C 105.961 139.615 113.930 121.470 113.930 116.220 C 113.930 110.970 92.977 105.165 92.977 105.165 C 92.854 105.159 92.807 105.595 92.807 105.595 C 92.807 105.595 89.963 106.469 88.942 106.658 "/>
    <path id="R_Leg_1_" fill="#1B75BB" stroke="#000000" d="M 79.206 156.057 C 79.128 159.614 79.996 164.752 83.478 164.595 C 85.768 164.492 85.371 159.537 85.532 154.475 C 85.636 151.194 86.334 148.451 86.816 146.921 C 86.816 146.921 86.928 146.654 86.928 146.558 C 86.929 144.305 85.681 143.546 84.096 143.309 C 82.108 143.011 81.867 144.731 81.857 144.775 C 81.449 146.523 80.753 148.720 80.753 148.720 C 79.815 151.797 79.253 153.980 79.206 156.057 L 79.206 156.057 Z "/>
    <path id="L_Leg" fill="#1B75BB" stroke="#000000" d="M 69.856 156.057 C 69.779 159.614 70.646 164.752 74.128 164.595 C 76.419 164.492 76.021 159.537 76.183 154.475 C 76.286 151.194 76.984 148.451 77.466 146.921 C 77.466 146.921 77.578 146.654 77.578 146.558 C 77.579 144.305 76.331 143.546 74.746 143.309 C 72.759 143.011 72.518 144.731 72.508 144.775 C 72.099 146.523 71.404 148.720 71.404 148.720 C 70.465 151.797 69.904 153.980 69.856 156.057 L 69.856 156.057 Z "/>
    <g id="Body_1_">
      <path id="Body" fill="#1B75BB" stroke="#000000" d="M 84.768 146.560 C 86.164 146.413 87.628 146.122 89.153 145.652 C 100.019 142.311 95.841 128.309 94.378 122.874 C 93.789 120.679 93.232 117.458 92.776 114.399 L 92.694 114.206 L 91.819 106.821 C 91.327 106.197 91.591 104.747 89.906 103.868 C 87.913 102.829 83.674 102.225 81.545 102.223 C 73.716 102.215 70.196 105.015 70.196 105.015 C 68.887 107.886 70.204 109.229 68.016 114.034 C 64.030 122.790 64.765 124.124 63.824 124.325 C 63.686 124.354 63.714 126.244 63.504 126.283 C 63.500 126.950 63.541 128.887 64.075 131.442 C 64.075 131.442 65.536 137.504 68.048 140.428 C 68.487 140.941 69.093 141.540 69.843 142.157 C 69.843 142.157 71.972 143.871 73.950 144.820 C 75.929 145.768 79.329 146.244 80.912 146.481 C 82.496 146.718 84.768 146.558 84.768 146.560 L 84.768 146.560 Z "/>
      <path id="Belly" fill="#D0D2D3" stroke="#000000" d="M 96.364 135.874 C 96.683 131.064 95.158 125.820 94.387 122.960 C 93.601 120.054 92.881 115.356 92.375 111.609 L 92.148 111.423 C 91.011 110.420 90.058 108.503 87.391 108.980 C 81.551 110.031 78.924 115.649 78.924 123.871 C 78.924 132.096 83.457 139.433 88.129 139.433 C 90.468 139.433 94.767 138.751 96.299 136.055 L 96.364 135.874 L 96.364 135.874 Z "/>
    </g>
    <path id="L_Arm_1_" fill="#1B75BB" stroke="#000000" d="M 75.444 106.722 C 76.202 108.361 74.631 110.827 74.249 111.398 C 73.383 112.695 70.479 113.781 70.479 113.781 C 70.479 113.781 59.979 116.781 60.229 119.781 L 60.366 120.062 C 62.571 120.677 66.455 121.761 70.792 122.976 C 77.414 124.831 82.001 137.171 70.173 138.429 C 58.423 139.679 50.456 121.531 50.456 116.281 C 50.456 111.031 71.409 105.228 71.409 105.228 C 71.532 105.224 71.579 105.656 71.579 105.656 C 71.579 105.656 74.422 106.530 75.444 106.722 "/>
    <g id="Head_1_">
      <path id="Head" fill="#1B75BB" stroke="#000000" stroke-linecap="round" stroke-linejoin="round" d="M 124.042 69.899 C 124.160 70.320 126.972 80.607 119.865 90.134 C 115.051 96.582 106.664 104.822 85.232 106.671 C 74.738 107.574 65.397 104.867 58.682 100.730 C 58.781 100.791 58.874 100.855 58.974 100.915 L 58.878 100.857 C 52.639 98.040 44.728 93.682 39.475 86.387 C 39.475 86.387 36.648 92.285 23.973 92.531 C 7.956 92.847 1.490 83.968 0.662 77.275 C -0.179 70.486 1.895 62.704 15.431 60.408 C 26.763 58.491 32.923 61.914 34.627 63.077 L 34.759 63.228 C 36.008 59.365 38.090 57.586 38.090 57.586 L 37.919 57.525 C 33.149 55.735 26.873 52.876 19.193 48.308 C 3.116 38.743 3.275 21.870 7.722 15.803 C 12.325 9.531 25.961 1.651 45.224 12.378 C 56.064 18.410 61.550 27.701 64.277 34.664 L 64.853 34.436 C 65.596 34.008 66.406 33.586 67.273 33.187 L 67.386 32.989 C 63.161 23.063 56.783 2.653 74.942 1.078 C 92.212 -0.420 90.726 20.390 89.333 29.238 L 89.469 29.259 C 91.700 29.416 93.966 29.743 96.231 30.275 C 96.181 30.171 93.605 24.765 96.913 16.890 C 99.505 10.726 111.115 -4.052 120.546 3.800 C 130.495 12.086 125.094 21.458 119.916 27.206 C 115.430 32.183 110.270 34.217 107.929 35.115 L 107.995 35.157 C 108.571 35.519 109.147 35.896 109.716 36.298 C 125.551 47.442 124.193 70.514 124.193 70.514 L 124.158 70.350 C 124.098 70.092 124.055 69.942 124.042 69.899 L 124.042 69.899 Z M 105.551 33.746 C 106.508 34.251 107.444 34.797 108.354 35.380 M 89.289 29.795 C 89.085 30.905 88.852 32.009 88.597 33.107 M 69.909 38.337 C 68.957 36.537 68.104 34.683 67.311 32.808 M 33.869 70.405 C 33.768 68.186 33.975 65.946 34.583 63.806 M 21.474 59.841 M 19.453 92.239 "/>
      <path id="Hair1" fill="#F1F1F2" stroke="#000000" d="M 19.535 92.367 C 6.743 91.127 1.409 83.313 0.662 77.275 C -0.179 70.486 1.895 62.704 15.431 60.408 C 17.400 60.074 19.213 59.902 20.870 59.851 L 20.998 59.859 C 15.602 70.295 15.092 82.569 19.453 92.238 L 19.535 92.367 L 19.535 92.367 Z "/>
      <path id="Hair2" fill="#F1F1F2" stroke="#000000" d="M 16.693 46.672 C 3.146 36.924 3.519 21.537 7.721 15.802 C 12.105 9.826 24.700 2.391 42.543 10.985 L 42.364 11.044 C 32.123 14.250 23.263 22.315 19.104 33.571 C 17.510 37.893 16.750 42.309 16.738 46.624 L 16.693 46.672 L 16.693 46.672 Z "/>
      <path id="Hair3" fill="#F1F1F2" stroke="#000000" d="M 62.897 17.055 C 62.143 9.208 64.434 1.986 74.944 1.076 C 85.548 0.158 89.082 7.648 89.906 15.616 L 89.825 15.534 C 80.963 12.096 71.282 12.834 62.940 16.931 L 62.897 17.055 L 62.897 17.055 Z "/>
      <path id="Hair4" fill="#F1F1F2" stroke="#000000" d="M 110.503 2.453 C 113.802 1.076 117.304 1.099 120.545 3.800 C 126.917 9.111 126.993 14.864 124.860 19.826 L 124.752 19.834 C 122.157 12.671 117.274 6.473 110.488 2.489 L 110.503 2.453 L 110.503 2.453 Z "/>
      <path id="Face_1_" fill="#E6E7E8" stroke="#000000" d="M 110.153 55.871 C 104.091 51.448 94.606 38.962 94.606 38.962 C 94.606 38.962 94.357 52.132 76.368 63.219 C 58.377 74.312 48.980 72.619 47.941 85.584 C 47.159 95.324 63.804 108.516 85.233 106.672 C 106.665 104.822 115.051 96.583 119.866 90.135 C 127.122 80.407 124.037 69.880 124.037 69.880 C 121.951 62.608 118.874 62.222 110.153 55.871 L 110.153 55.871 Z "/>
      <g id="L_Eye">
        <path id="Inner_Eye_1_" fill="#FFFFFF" d="M 80.352 74.813 C 80.225 74.232 79.707 73.811 79.121 73.811 C 79.028 73.811 78.936 73.822 78.845 73.841 C 78.508 73.913 78.226 74.111 78.041 74.395 C 77.859 74.677 77.800 75.014 77.874 75.348 C 78.016 76.014 78.691 76.468 79.378 76.318 C 80.062 76.171 80.496 75.496 80.352 74.813 L 80.352 74.813 Z "/>
        <path id="Outer_Eye_1_" fill="#231F20" d="M 82.300 74.395 C 81.926 72.671 80.131 71.521 78.419 71.896 C 77.567 72.081 76.838 72.586 76.365 73.319 C 75.894 74.048 75.739 74.920 75.927 75.771 C 76.243 77.257 77.582 78.340 79.108 78.340 C 79.339 78.340 79.570 78.315 79.798 78.266 C 81.555 77.885 82.675 76.149 82.300 74.395 L 82.300 74.395 Z M 77.874 75.349 C 77.800 75.015 77.859 74.678 78.041 74.396 C 78.226 74.111 78.508 73.914 78.845 73.842 C 78.937 73.823 79.029 73.812 79.121 73.812 C 79.708 73.812 80.225 74.233 80.352 74.814 C 80.496 75.497 80.062 76.172 79.377 76.319 C 78.691 76.468 78.015 76.015 77.874 75.349 L 77.874 75.349 Z "/>
      </g>
      <g id="R_Eye">
        <path id="Inner_Eye" fill="#FFFFFF" d="M 111.285 72.907 C 111.159 72.326 110.641 71.905 110.054 71.905 C 109.962 71.905 109.870 71.915 109.778 71.935 C 109.442 72.007 109.160 72.205 108.974 72.489 C 108.792 72.771 108.734 73.108 108.807 73.442 C 108.950 74.109 109.625 74.562 110.311 74.413 C 110.995 74.265 111.428 73.589 111.285 72.907 L 111.285 72.907 Z "/>
        <path id="Outer_Eye" fill="#231F20" d="M 113.233 72.487 C 112.860 70.763 111.065 69.613 109.353 69.988 C 108.500 70.172 107.771 70.678 107.298 71.411 C 106.827 72.140 106.673 73.012 106.860 73.863 C 107.177 75.350 108.515 76.432 110.041 76.432 C 110.272 76.432 110.503 76.407 110.731 76.359 C 112.488 75.979 113.609 74.243 113.233 72.487 L 113.233 72.487 Z M 108.806 73.441 C 108.733 73.107 108.791 72.770 108.973 72.488 C 109.159 72.204 109.441 72.006 109.777 71.934 C 109.870 71.914 109.962 71.904 110.053 71.904 C 110.641 71.904 111.158 72.325 111.284 72.906 C 111.428 73.588 110.994 74.264 110.309 74.411 C 109.625 74.562 108.949 74.108 108.806 73.441 L 108.806 73.441 Z "/>
      </g>
      <path id="Mouth" fill="none" stroke="#231F20" stroke-linecap="round" d="M 80.305 84.797 C 80.305 84.797 85.809 81.254 96.106 79.750 C 106.407 78.246 111.188 81.909 111.188 81.909 "/>
      <path id="R_Eyebrow" fill="#231F20" d="M 107.524 73.627 C 106.840 73.627 106.184 73.234 105.881 72.569 C 105.473 71.664 105.873 70.596 106.779 70.187 L 112.529 67.585 C 113.431 67.173 114.502 67.577 114.912 68.481 C 115.320 69.387 114.920 70.454 114.014 70.864 L 108.264 73.466 C 108.024 73.576 107.772 73.627 107.524 73.627 L 107.524 73.627 L 107.524 73.627 Z "/>
      <path id="L_Eyebrow" fill="#231F20" d="M 81.374 75.431 C 81.149 75.431 80.927 75.390 80.710 75.303 L 74.851 72.975 C 73.927 72.608 73.476 71.561 73.843 70.637 C 74.210 69.712 75.265 69.264 76.179 69.628 L 82.038 71.956 C 82.962 72.323 83.413 73.370 83.046 74.294 C 82.766 75 82.088 75.431 81.374 75.431 L 81.374 75.431 L 81.374 75.431 Z "/>
    </g>
  </g>
</svg>