<svg version="1.1" width="127" height="166" xmlns="http://www.w3.org/2000/svg" xmlns:xlink="http://www.w3.org/1999/xlink">
  <!-- Exported by Scratch - http://scratch.mit.edu/ -->
  <g id="ID0.4150293259881437" transform="matrix(0.7737809419631958, 0, 0, 0.7737809419631958, 0.25, -0.4)">
    <path id="R_Leg_1_" fill="#1B75BB" stroke="#000000" d="M 79.206 156.057 C 79.128 159.614 79.996 164.752 83.478 164.595 C 85.768 164.492 85.371 159.537 85.532 154.475 C 85.636 151.194 86.334 148.451 86.816 146.921 C 86.816 146.921 86.928 146.654 86.928 146.558 C 86.929 144.305 85.681 143.546 84.096 143.309 C 82.108 143.011 81.867 144.731 81.857 144.775 C 81.449 146.523 80.753 148.720 80.753 148.720 C 79.815 151.797 79.253 153.980 79.206 156.057 L 79.206 156.057 Z "/>
    <path id="L_Leg" fill="#1B75BB" stroke="#000000" d="M 69.856 156.057 C 69.779 159.614 70.646 164.752 74.128 164.595 C 76.419 164.492 76.021 159.537 76.183 154.475 C 76.286 151.194 76.984 148.451 77.466 146.921 C 77.466 146.921 77.578 146.654 77.578 146.558 C 77.579 144.305 76.331 143.546 74.746 143.309 C 72.759 143.011 72.518 144.731 72.508 144.775 C 72.099 146.523 71.404 148.720 71.404 148.720 C 70.465 151.797 69.904 153.980 69.856 156.057 L 69.856 156.057 Z "/>
    <g id="Body_1_">
      <path id="Body" fill="#1B75BB" stroke="#000000" d="M 84.768 146.560 C 86.164 146.413 87.628 146.122 89.153 145.652 C 100.019 142.311 95.841 128.309 94.378 122.874 C 93.789 120.679 93.232 117.458 92.776 114.399 L 92.694 114.206 L 91.819 106.821 C 91.327 106.197 91.591 104.747 89.906 103.868 C 87.913 102.829 83.674 102.225 81.545 102.223 C 73.716 102.215 70.196 105.015 70.196 105.015 C 68.887 107.886 70.204 109.229 68.016 114.034 C 64.030 122.790 63.540 128.887 64.075 131.442 C 64.075 131.442 65.536 137.504 68.048 140.428 C 68.487 140.941 69.093 141.540 69.843 142.157 C 69.843 142.157 71.972 143.871 73.950 144.820 C 75.929 145.768 79.329 146.244 80.912 146.481 C 82.496 146.718 84.768 146.558 84.768 146.560 L 84.768 146.560 Z "/>
      <path id="Belly" fill="#D0D2D3" stroke="#000000" d="M 96.364 135.874 C 96.683 131.064 95.158 125.820 94.387 122.960 C 93.601 120.054 92.881 115.356 92.375 111.609 L 92.148 111.423 C 91.011 110.420 90.058 108.503 87.391 108.980 C 81.551 110.031 78.924 115.649 78.924 123.871 C 78.924 132.096 83.457 139.433 88.129 139.433 C 90.468 139.433 94.767 138.751 96.299 136.055 L 96.364 135.874 L 96.364 135.874 Z "/>
    </g>
    <g id="Head_1_">
      <path id="Head" fill="#1B75BB" stroke="#000000" stroke-linecap="round" stroke-linejoin="round" d="M 124.042 69.899 C 124.160 70.320 126.972 80.607 119.865 90.134 C 115.051 96.582 106.664 104.822 85.232 106.671 C 74.738 107.574 65.397 104.867 58.682 100.730 C 58.781 100.791 58.874 100.855 58.974 100.915 L 58.878 100.857 C 52.639 98.040 44.728 93.682 39.475 86.387 C 39.475 86.387 36.648 92.285 23.973 92.531 C 7.956 92.847 1.490 83.968 0.662 77.275 C -0.179 70.486 1.895 62.704 15.431 60.408 C 26.763 58.491 32.923 61.914 34.627 63.077 L 34.759 63.228 C 36.008 59.365 38.090 57.586 38.090 57.586 L 37.919 57.525 C 33.149 55.735 26.873 52.876 19.193 48.308 C 3.116 38.743 3.275 21.870 7.722 15.803 C 12.325 9.531 25.961 1.651 45.224 12.378 C 56.064 18.410 61.550 27.701 64.277 34.664 L 64.853 34.436 C 65.596 34.008 66.406 33.586 67.273 33.187 L 67.386 32.989 C 63.161 23.063 56.783 2.653 74.942 1.078 C 92.212 -0.420 90.726 20.390 89.333 29.238 L 89.469 29.259 C 91.700 29.416 93.966 29.743 96.231 30.275 C 96.181 30.171 93.605 24.765 96.913 16.890 C 99.505 10.726 111.115 -4.052 120.546 3.800 C 130.495 12.086 125.094 21.458 119.916 27.206 C 115.430 32.183 110.270 34.217 107.929 35.115 L 107.995 35.157 C 108.571 35.519 109.147 35.896 109.716 36.298 C 125.551 47.442 124.193 70.514 124.193 70.514 L 124.158 70.350 C 124.098 70.092 124.055 69.942 124.042 69.899 L 124.042 69.899 Z M 105.551 33.746 C 106.508 34.251 107.444 34.797 108.354 35.380 M 89.289 29.795 C 89.085 30.905 88.852 32.009 88.597 33.107 M 69.909 38.337 C 68.957 36.537 68.104 34.683 67.311 32.808 M 33.869 70.405 C 33.768 68.186 33.975 65.946 34.583 63.806 M 21.474 59.841 M 19.453 92.239 "/>
      <path id="Hair1" fill="#F1F1F2" stroke="#000000" d="M 19.535 92.367 C 6.743 91.127 1.409 83.313 0.662 77.275 C -0.179 70.486 1.895 62.704 15.431 60.408 C 17.400 60.074 19.213 59.902 20.870 59.851 L 20.998 59.859 C 15.602 70.295 15.092 82.569 19.453 92.238 L 19.535 92.367 L 19.535 92.367 Z "/>
      <path id="Hair2" fill="#F1F1F2" stroke="#000000" d="M 16.693 46.672 C 3.146 36.924 3.519 21.537 7.721 15.802 C 12.105 9.826 24.700 2.391 42.543 10.985 L 42.364 11.044 C 32.123 14.250 23.263 22.315 19.104 33.571 C 17.510 37.893 16.750 42.309 16.738 46.624 L 16.693 46.672 L 16.693 46.672 Z "/>
      <path id="Hair3" fill="#F1F1F2" stroke="#000000" d="M 62.897 17.055 C 62.143 9.208 64.434 1.986 74.944 1.076 C 85.548 0.158 89.082 7.648 89.906 15.616 L 89.825 15.534 C 80.963 12.096 71.282 12.834 62.940 16.931 L 62.897 17.055 L 62.897 17.055 Z "/>
      <path id="Hair4" fill="#F1F1F2" stroke="#000000" d="M 110.503 2.453 C 113.802 1.076 117.304 1.099 120.545 3.800 C 126.917 9.111 126.993 14.864 124.860 19.826 L 124.752 19.834 C 122.157 12.671 117.274 6.473 110.488 2.489 L 110.503 2.453 L 110.503 2.453 Z "/>
      <path id="Face_1_" fill="#E6E7E8" stroke="#000000" d="M 110.153 55.871 C 104.091 51.448 94.606 38.962 94.606 38.962 C 94.606 38.962 94.357 52.132 76.368 63.219 C 58.377 74.312 48.980 72.619 47.941 85.584 C 47.159 95.324 63.804 108.516 85.233 106.672 C 106.665 104.822 115.051 96.583 119.866 90.135 C 127.122 80.407 124.037 69.880 124.037 69.880 C 121.951 62.608 118.874 62.222 110.153 55.871 L 110.153 55.871 Z "/>
      <g id="R_Eye">
        <path id="Inner_Eye_1_" fill="#FFFFFF" d="M 113.204 70.753 C 112.997 69.434 111.860 68.477 110.501 68.477 C 110.356 68.477 110.212 68.487 110.065 68.509 C 108.567 68.748 107.538 70.139 107.770 71.613 C 107.999 73.075 109.366 74.101 110.911 73.855 C 111.643 73.741 112.286 73.349 112.720 72.754 C 113.145 72.171 113.317 71.460 113.204 70.753 L 113.204 70.753 Z "/>
        <path id="Outer_Eye_1_" fill="#231F20" d="M 115.180 70.441 C 114.780 67.902 112.414 66.119 109.754 66.534 C 107.166 66.944 105.391 69.363 105.795 71.925 C 106.158 74.223 108.123 75.891 110.469 75.891 C 110.717 75.891 110.967 75.871 111.221 75.831 C 112.481 75.633 113.588 74.959 114.336 73.931 C 115.077 72.917 115.375 71.676 115.180 70.441 L 115.180 70.441 Z M 110.911 73.855 C 109.366 74.101 107.999 73.075 107.770 71.613 C 107.538 70.139 108.567 68.748 110.065 68.509 C 110.211 68.487 110.356 68.477 110.501 68.477 C 111.860 68.477 112.997 69.434 113.204 70.753 C 113.317 71.460 113.145 72.171 112.720 72.754 C 112.286 73.349 111.643 73.741 110.911 73.855 L 110.911 73.855 Z "/>
      </g>
      <g id="L_Eye">
        <path id="Inner_Eye" fill="#FFFFFF" d="M 82.543 72.016 C 82.336 70.697 81.199 69.740 79.840 69.740 C 79.695 69.740 79.551 69.750 79.404 69.772 C 77.906 70.011 76.877 71.402 77.109 72.876 C 77.338 74.338 78.705 75.364 80.250 75.118 C 80.982 75.004 81.625 74.612 82.059 74.017 C 82.485 73.434 82.657 72.723 82.543 72.016 L 82.543 72.016 Z "/>
        <path id="Outer_Eye" fill="#231F20" d="M 84.520 71.704 C 84.120 69.165 81.754 67.382 79.094 67.797 C 76.506 68.207 74.731 70.626 75.135 73.188 C 75.498 75.486 77.463 77.154 79.809 77.154 C 80.057 77.154 80.307 77.134 80.561 77.094 C 81.821 76.896 82.928 76.222 83.676 75.194 C 84.417 74.180 84.715 72.938 84.520 71.704 L 84.520 71.704 Z M 80.250 75.118 C 78.705 75.364 77.338 74.338 77.109 72.876 C 76.877 71.402 77.906 70.011 79.404 69.772 C 79.550 69.750 79.695 69.740 79.840 69.740 C 81.199 69.740 82.336 70.697 82.543 72.016 C 82.656 72.723 82.484 73.434 82.059 74.017 C 81.625 74.611 80.983 75.003 80.250 75.118 L 80.250 75.118 Z "/>
      </g>
      <path id="Mouth_1_" fill="#FFFFFF" stroke="#231F20" stroke-width="1.0905" stroke-linecap="round" d="M 95.454 96.415 C 82.739 97.272 79.657 80.909 79.657 80.909 C 79.657 80.909 88.302 78.912 97.677 78.330 C 107.058 77.752 111.777 80.086 111.777 80.086 C 111.777 80.086 108.168 95.558 95.454 96.415 L 95.454 96.415 Z "/>
    </g>
    <path id="L_Arm" fill="#1B75BB" stroke="#000000" d="M 65.908 104.438 L 66.102 104.538 C 66.625 104.812 67.164 105.081 67.717 105.344 L 68.014 105.484 C 71.533 98.141 76.386 89.700 81.832 92.758 C 85.820 94.996 88.685 100.494 84.788 109.232 L 84.882 109.278 C 83.645 112.194 81.530 115.896 77.900 119.757 C 69.819 128.344 67.463 128.676 66.524 128.904 C 66.380 128.938 63.601 128.316 62.612 127.860 C 59.627 126.465 60.251 113.543 65.908 104.438 L 65.908 104.438 Z M 63.971 119.367 C 64.497 114.363 66.117 109.546 68.261 105.013 "/>
    <path id="R_Arm" fill="#1B75BB" stroke="#000000" stroke-linecap="round" stroke-linejoin="round" d="M 105.833 124.609 C 108.780 125.203 113.497 124.902 117.022 113.211 C 120.544 101.520 116.249 91.873 110.745 92.775 C 105.163 93.691 102.100 100.925 102.296 105.646 C 102.382 107.738 102.681 109.695 102.991 111.226 L 102.725 111.217 C 101.561 111.295 96.718 111.256 93.776 105.793 L 93.762 105.796 C 93.012 105.908 92.241 106.002 91.452 106.101 L 92.544 112.951 C 93.843 114.689 100.662 123.562 105.833 124.609 L 105.833 124.609 Z M 103.777 114.391 C 103.448 113.323 103.165 112.241 102.932 111.147 "/>
  </g>
</svg>