<svg width="169px" height="169px" viewBox="0 0 169 169" version="1.1" xml:space="preserve" xmlns="http://www.w3.org/2000/svg" xmlns:xlink="http://www.w3.org/1999/xlink">
  <defs/>
  <g>
    <title>rabbit-b</title>
    <desc>Created with Sketch.</desc>
    <g id="forest" stroke="none" stroke-width="1" fill="none" fill-rule="evenodd">
      <g id="rabbit-b" fill-rule="nonzero">
        <g id="Rabbit2(jumping)" transform="translate(19.000000, 10.000000)">
          <g id="taila" transform="translate(0.000000, 26.080537)">
            <ellipse id="Oval" fill="#B5C5C1" transform="translate(14.230944, 14.133897) rotate(-20.267021) translate(-14.230944, -14.133897) " cx="14.230944" cy="14.1338973" rx="10.6201305" ry="10.6122109"/>
            <path d="M9.36,16.3677852 C9.81,16.7275168 10.17,17.0872483 10.62,17.4469799 C10.89,17.6268456 11.25,17.7167785 11.52,17.4469799 C11.7,17.2671141 11.79,16.8174497 11.52,16.547651 C11.07,16.1879195 10.71,15.8281879 10.26,15.4684564 C9.99,15.2885906 9.63,15.1986577 9.36,15.4684564 C9.09,15.738255 9.09,16.1879195 9.36,16.3677852 Z" id="Shape" fill="#CBD7D4"/>
            <path d="M7.02,18.9758389 C7.56,19.2456376 8.19,19.5154362 8.73,19.695302 C9,19.7852349 9.45,19.6053691 9.45,19.2456376 C9.54,18.885906 9.36,18.6161074 9,18.5261745 C8.55,18.3463087 8.01,18.166443 7.56,17.8966443 C7.29,17.7167785 6.93,17.8067114 6.75,18.0765101 C6.66,18.3463087 6.66,18.7959732 7.02,18.9758389 Z" id="Shape" fill="#CBD7D4"/>
            <path d="M12.06,11.8711409 C12.24,12.6805369 12.69,13.6697987 13.14,14.3892617 C13.59,15.0187919 14.67,14.3892617 14.22,13.7597315 C13.77,13.1302013 13.41,12.3208054 13.23,11.5114094 C13.05,10.7020134 11.88,11.061745 12.06,11.8711409 Z" id="Shape" fill="#CBD7D4"/>
            <path d="M15.84,11.6013423 C16.02,12.3208054 16.11,12.9503356 16.29,13.6697987 C16.47,14.4791946 17.64,14.1194631 17.46,13.3100671 C17.28,12.590604 17.19,11.9610738 17.01,11.2416107 C16.92,10.4322148 15.75,10.7919463 15.84,11.6013423 Z" id="Shape" fill="#CBD7D4"/>
            <path d="M20.16,11.5114094 C19.89,12.1409396 19.8,12.8604027 19.89,13.5798658 C19.89,13.9395973 20.16,14.209396 20.52,14.209396 C20.79,14.209396 21.15,13.9395973 21.15,13.5798658 C21.06,12.9503356 21.15,12.4107383 21.42,11.8711409 C21.51,11.6013423 21.24,11.1516779 20.97,11.1516779 C20.52,10.9718121 20.25,11.2416107 20.16,11.5114094 Z" id="Shape" fill="#CBD7D4"/>
            <path d="M21.78,15.1986577 C21.6,15.738255 21.42,16.1879195 21.33,16.7275168 C21.24,17.0872483 21.42,17.357047 21.78,17.4469799 C22.05,17.5369128 22.5,17.357047 22.5,16.9973154 C22.59,16.4577181 22.77,15.9181208 22.95,15.4684564 C23.04,15.1986577 22.86,14.7489933 22.5,14.7489933 C22.23,14.6590604 21.87,14.9288591 21.78,15.1986577 Z" id="Shape" fill="#CBD7D4"/>
            <path d="M7.2,9.89261745 C7.56,10.6120805 8.1,11.2416107 8.46,11.9610738 C8.82,12.6805369 9.9,12.0510067 9.54,11.3315436 C9.18,10.6120805 8.64,9.98255034 8.28,9.26308725 C8.1,8.99328859 7.74,8.9033557 7.47,9.08322148 C7.11,9.26308725 7.02,9.62281879 7.2,9.89261745 Z" id="Shape" fill="#CBD7D4"/>
            <path d="M10.26,6.74496644 C10.44,7.46442953 10.71,8.18389262 10.8,8.9033557 C10.98,9.71275168 12.15,9.35302013 11.97,8.54362416 C11.79,7.82416107 11.61,7.10469799 11.43,6.3852349 C11.16,5.66577181 9.99,6.02550336 10.26,6.74496644 Z" id="Shape" fill="#CBD7D4"/>
            <path d="M14.4,6.20536913 C14.49,7.28456376 14.58,8.45369128 14.85,9.53288591 C15.03,10.3422819 16.29,9.98255034 16.02,9.17315436 C15.75,8.18389262 15.75,7.19463087 15.57,6.20536913 C15.57,5.39597315 14.31,5.39597315 14.4,6.20536913 Z" id="Shape" fill="#CBD7D4"/>
            <path d="M18.63,6.65503356 C18.63,6.92483221 18.72,7.10469799 18.72,7.37449664 C18.72,7.73422819 18.99,8.00402685 19.35,8.00402685 C19.62,8.00402685 19.98,7.73422819 19.98,7.37449664 C19.98,7.10469799 19.89,6.92483221 19.89,6.65503356 C19.89,6.29530201 19.62,6.02550336 19.26,6.02550336 C18.99,6.02550336 18.63,6.3852349 18.63,6.65503356 Z" id="Shape" fill="#CBD7D4"/>
            <path d="M4.05,14.0295302 C4.59,14.4791946 5.04,14.8389262 5.58,15.2885906 C5.85,15.4684564 6.21,15.5583893 6.48,15.2885906 C6.66,15.1087248 6.75,14.6590604 6.48,14.3892617 C5.94,13.9395973 5.49,13.5798658 4.95,13.1302013 C4.68,12.9503356 4.32,12.8604027 4.05,13.1302013 C3.87,13.3100671 3.78,13.7597315 4.05,14.0295302 Z" id="Shape" fill="#CBD7D4"/>
            <path d="M12.78,18.7060403 C13.32,19.1557047 13.77,19.6053691 14.22,20.1449664 C14.76,20.6845638 15.66,19.8751678 15.12,19.2456376 C14.67,18.7959732 14.22,18.2563758 13.68,17.8067114 C13.41,17.6268456 13.05,17.5369128 12.78,17.8067114 C12.51,18.0765101 12.51,18.5261745 12.78,18.7060403 Z" id="Shape" fill="#CBD7D4"/>
            <path d="M10.8,21.6738255 C11.16,21.9436242 11.43,22.1234899 11.79,22.2134228 C12.15,22.3033557 12.51,22.1234899 12.51,21.7637584 C12.6,21.4040268 12.42,21.1342282 12.06,21.0442953 C11.88,20.9543624 11.7,20.9543624 11.61,20.7744966 C11.34,20.5946309 10.98,20.504698 10.71,20.7744966 C10.62,20.9543624 10.53,21.4040268 10.8,21.6738255 Z" id="Shape" fill="#CBD7D4"/>
            <path d="M15.48,16.0080537 C15.39,16.7275168 15.48,17.4469799 15.57,18.2563758 C15.57,18.6161074 15.84,18.885906 16.2,18.885906 C16.47,18.885906 16.83,18.6161074 16.83,18.2563758 C16.74,17.5369128 16.65,16.8174497 16.74,16.0080537 C16.74,15.1986577 15.57,15.1986577 15.48,16.0080537 Z" id="Shape" fill="#CBD7D4"/>
            <path d="M18.54,16.6375839 C18.45,16.9973154 18.45,17.2671141 18.36,17.6268456 C18.27,17.9865772 18.45,18.2563758 18.81,18.3463087 C19.08,18.4362416 19.53,18.2563758 19.53,17.8966443 C19.62,17.5369128 19.62,17.2671141 19.71,16.9073826 C19.8,16.547651 19.62,16.2778523 19.26,16.1879195 C18.99,16.0979866 18.54,16.2778523 18.54,16.6375839 Z" id="Shape" fill="#CBD7D4"/>
          </g>
          <g id="paw_back2" transform="translate(30.600000, 54.859060)" fill="#B5C5C1">
            <path d="M0.63,44.6966443 C-1.89,38.4912752 4.77,40.3798658 6.21,36.0630872 C9,27.9691275 -3.15,15.1986577 2.25,5.57583893 C7.29,-3.32751678 24.3,1.16912752 30.51,4.22684564 C38.97,8.36375839 43.74,20.1449664 48.15,28.9583893 C51.39,35.433557 49.68,42.4483221 42.84,44.966443 C36.36,47.304698 31.32,47.304698 24.93,49.1033557 C27.63,52.4308725 34.83,52.4308725 38.88,54.2295302 C40.14,54.7691275 42.75,55.0389262 44.46,56.2080537 C46.44,57.557047 47.34,59.895302 48.15,61.514094 C50.04,65.7409396 44.01,63.4026846 41.76,62.7731544 C52.47,71.6765101 22.95,59.4456376 19.53,57.0174497 C19.53,57.0174497 1.62,47.2147651 0.63,44.6966443 Z" id="Shape"/>
          </g>
          <g id="paw_front2" transform="translate(99.000000, 66.550336)" fill="#B5C5C1">
            <path d="M3.24,14.3892617 C4.32,10.7919463 6.48,7.55436242 8.73,4.40671141 C13.68,-2.42818792 36.99,-0.179865772 35.28,7.6442953 C33.48,15.9181208 28.8,26.3503356 21.87,32.5557047 C18.63,35.433557 14.22,45.0563758 14.22,45.0563758 C14.22,45.0563758 8.73,53.3302013 7.74,54.409396 C2.7,59.6255034 -0.09,54.8590604 2.25,52.1610738 C-0.9,54.4993289 0.54,50.5422819 1.98,48.9234899 C1.98,48.9234899 6.75,44.157047 6.57,42.6281879 C5.94,38.4013423 0.81,22.2134228 3.24,14.3892617 Z" id="Shape"/>
          </g>
          <g id="body" transform="translate(4.500000, 44.067114)" fill="#CBD7D4">
            <path d="M54.9,65.2013423 C46.08,66.7302013 24.57,60.6147651 17.46,55.6684564 C5.94,47.7543624 -8.82,26.8 7.29,6.92483221 C20.61,-9.44295302 55.53,11.2416107 69.21,15.0187919 C77.04,17.1771812 88.38,21.2241611 96.21,17.2671141 C98.64,16.0080537 99.72,13.4 102.06,12.3208054 C106.02,10.4322148 118.98,4.40671141 122.04,7.37449664 C129.15,14.209396 141.12,17.8966443 131.22,40.5597315 C122.31,60.8845638 87.66,63.4926174 70.92,65.1114094 L54.9,65.2013423 Z" id="Shape"/>
          </g>
          <g id="head_x2B_ears" transform="translate(54.000000, 0.000000)">
            <path d="M58.5,55.3986577 C45,58.5463087 29.16,50.452349 18.81,43.7973154 C11.7,39.3006711 3.78,28.6885906 0.45,21.8536913 C-2.43,15.738255 25.74,24.7315436 33.12,29.138255 C45.63,36.6026846 57.06,47.3946309 68.04,56.8375839 L58.5,55.3986577 Z" id="Shape" fill="#C9D8D5"/>
            <path d="M69.66,52.8805369 C59.76,51.8912752 47.97,35.3436242 43.29,27.609396 C38.25,19.2456376 35.37,0.719463087 35.37,0.719463087 C40.05,-2.42818792 54.18,17.5369128 58.95,23.652349 C65.88,32.6456376 74.88,42.4483221 78.75,53.3302013 L69.66,52.8805369 Z" id="Shape" fill="#B5C5C1"/>
            <g id="head" transform="translate(44.100000, 40.469799)">
              <path d="M13.77,41.9087248 C1.26,34.714094 -5.04,14.3892617 11.88,3.32751678 C19.98,-1.97852349 27.9,0.44966443 34.02,6.02550336 C36.45,8.2738255 38.25,11.3315436 40.41,13.9395973 C44.73,19.3355705 45.09,24.1020134 45.27,28.6885906 C45.27,28.6885906 45.27,33.5449664 43.47,37.861745 C42.39,40.4697987 40.59,42.8979866 37.71,44.0671141 C29.07,47.3946309 23.4,47.4845638 13.77,41.9087248 Z" id="Shape" fill="#C9D8D5"/>
              <path d="M11.79,3.41744966 C12.33,3.05771812 12.78,2.78791946 13.32,2.51812081 C12.42,2.87785235 11.43,3.23758389 10.44,3.77718121 C-6.03,12.8604027 -0.54,34.714094 11.79,40.7395973 C0.63,32.6456376 -4.23,13.8496644 11.79,3.41744966 Z" id="Shape" fill="#B5C5C1"/>
              <g id="face" transform="translate(13.500000, 13.489933)">
                <g id="Group" transform="translate(3.600000, 15.288591)">
                  <g transform="translate(22.500000, 0.000000)" fill="#3C4F45" id="Shape">
                    <path d="M0.72,3.14765101 C1.53,3.32751678 2.61,3.41744966 3.42,2.87785235 C4.23,2.33825503 4.14,1.61879195 4.23,0.809395973 C4.32,-6.46704912e-15 3.06,-6.46704912e-15 2.97,0.809395973 C2.97,1.16912752 3.15,1.70872483 2.7,1.8885906 C2.25,2.06845638 1.62,1.97852349 1.17,1.8885906 C0.27,1.70872483 -0.09,2.96778523 0.72,3.14765101 Z"/>
                    <path d="M2.34,2.69798658 C3.06,3.95704698 3.6,5.30604027 3.78,6.74496644 C3.87,7.55436242 5.13,7.19463087 5.04,6.3852349 C4.77,4.85637584 4.23,3.41744966 3.42,2.06845638 C3.06,1.34899329 1.98,1.97852349 2.34,2.69798658 Z"/>
                    <path d="M1.35,7.6442953 C2.7,8.2738255 4.23,7.82416107 5.13,6.56510067 C5.58,5.93557047 4.5,5.21610738 4.05,5.93557047 C3.6,6.56510067 2.7,6.92483221 1.98,6.56510067 C1.26,6.20536913 0.63,7.28456376 1.35,7.6442953 Z"/>
                  </g>
                  <g transform="translate(0.000000, 2.697987)" fill="#B5C5C1" id="Shape">
                    <path d="M5.76,0.809395973 C3.96,1.07919463 2.25,1.61879195 0.63,2.51812081 C-0.09,2.87785235 0.54,3.95704698 1.26,3.59731544 C2.61,2.78791946 4.14,2.24832215 5.76,2.06845638 C6.57,1.8885906 6.57,0.719463087 5.76,0.809395973 Z"/>
                    <path d="M7.65,2.78791946 C5.22,3.95704698 2.61,5.1261745 0.36,6.74496644 C-0.27,7.19463087 0.36,8.2738255 0.99,7.82416107 C3.15,6.20536913 5.85,5.03624161 8.28,3.86711409 C9,3.50738255 8.37,2.42818792 7.65,2.78791946 Z"/>
                    <path d="M7.56,5.39597315 C6.57,6.47516779 5.67,7.55436242 4.68,8.63355705 C4.14,9.26308725 5.04,10.1624161 5.58,9.53288591 C6.48,8.45369128 7.47,7.37449664 8.46,6.29530201 C8.91,5.66577181 8.1,4.76644295 7.56,5.39597315 Z"/>
                  </g>
                </g>
                <ellipse id="Oval" fill="#3C4F45" transform="translate(8.982288, 9.188767) rotate(-29.215433) translate(-8.982288, -9.188767) " cx="8.982288" cy="9.18876671" rx="1.98002124" ry="2.60808166"/>
                <path d="M1.53,4.31677852 C1.98,3.14765101 3.06,1.97852349 4.41,2.06845638 C5.22,2.06845638 5.22,0.899328859 4.41,0.809395973 C2.52,0.719463087 0.99,2.33825503 0.36,3.95704698 C0.09,4.67651007 1.26,5.03624161 1.53,4.31677852 Z" id="Shape" fill="#B5C5C1"/>
              </g>
            </g>
          </g>
          <g id="paw_back1" transform="translate(8.100000, 75.543624)">
            <path d="M27.54,2.06845638 C35.91,4.22684564 45.36,13.9395973 51.66,21.4939597 C46.26,9.44295302 33.66,0.989261745 23.85,0.44966443 C20.25,0.269798658 17.37,0.179865772 14.94,0.44966443 C19.8,0.359731544 24.57,1.34899329 27.54,2.06845638 Z" id="Shape" fill="#B5C5C1"/>
            <path d="M7.74,46.1355705 C3.96,40.5597315 10.89,41.0993289 11.43,36.5127517 C12.51,28.0590604 -2.07,17.9865772 1.35,7.46442953 C4.5,-2.33825503 20.79,0.359731544 27.54,2.06845638 C36.72,4.40671141 47.07,15.6483221 53.19,23.3825503 C57.69,29.0483221 57.42,36.3328859 51.21,40.1100671 C45.36,43.7073826 38.34,42.3583893 32.4,45.3261745 C35.73,48.0241611 42.75,46.495302 47.07,47.4845638 C48.42,47.7543624 51.03,47.4845638 52.92,48.2939597 C55.17,49.1932886 56.52,51.261745 57.6,52.790604 C60.3,56.5677852 53.91,55.4885906 51.57,55.3087248 C63.9,61.7838926 32.49,55.938255 28.71,54.2295302 C28.8,54.2295302 9.27,48.3838926 7.74,46.1355705 Z" id="Shape" fill="#CBD7D4"/>
            <path d="M49.77,55.2187919 C51.57,55.6684564 52.83,56.2080537 54,57.7369128 C54.45,58.366443 55.53,57.7369128 55.08,57.1073826 C54.45,56.2979866 53.82,55.4885906 52.92,54.9489933 C52.02,54.409396 51.12,54.2295302 50.13,53.9597315 C49.32,53.8697987 49.05,55.0389262 49.77,55.2187919 Z" id="Shape" fill="#B5C5C1"/>
          </g>
          <g id="paw_front1" transform="translate(76.500000, 80.939597)">
            <path d="M12.51,10.7919463 C14.49,7.55436242 17.28,4.94630872 20.25,2.51812081 C26.73,-2.87785235 55.08,3.32751678 51.48,10.5221477 C47.7,18.0765101 31.32,32.1060403 26.1,33.0053691 C21.87,33.8147651 15.57,43.2577181 15.57,43.2577181 C15.57,43.2577181 8.19,49.9127517 6.93,50.7221477 C0.72,54.5892617 -0.72,49.642953 2.25,47.6644295 C-1.44,49.1932886 0.99,45.1463087 2.7,43.9771812 C2.7,43.9771812 8.55,40.5597315 8.73,39.0308725 C9.18,34.8040268 8.19,17.8067114 12.51,10.7919463 Z" id="Shape" fill="#CBD7D4"/>
            <path d="M1.08,48.4738255 C3.15,48.2939597 5.13,47.0348993 6.21,45.2362416 C6.66,44.5167785 5.58,43.8872483 5.13,44.6067114 C4.32,46.0456376 2.7,47.1248322 1.08,47.304698 C0.27,47.304698 0.27,48.5637584 1.08,48.4738255 Z" id="Shape" fill="#B5C5C1"/>
          </g>
        </g>
      </g>
    </g>
  </g>
</svg>