<svg version="1.1" width="128" height="136" viewBox="-1 -1 128 136" xmlns="http://www.w3.org/2000/svg" xmlns:xlink="http://www.w3.org/1999/xlink">
  <!-- Exported by Scratch - http://scratch.mit.edu/ -->
  <g id="ID0.33544107619673014" transform="matrix(1, 0, 0, 1, -0.5, 0.75)">
    <g id="Page-1">
      <g id="dinosaur2-d-[animals,dinosaur,triceratops,alex-eben-meyer]">
        <path id="Shape" fill="#BE0A3C" stroke="none" stroke-width="1" d="M 26.526 93.284 C 24.037 92.683 21.608 91.867 19.269 90.847 C 15.182 87.556 11.439 84.432 8.534 80.015 C 5.794 75.845 3.445 71.705 1.825 67 L 1.680 67 C -0.779 71.648 0.075 78.192 0.466 83.238 C 0.858 88.166 1.801 93.243 3.649 97.872 C 7.172 106.686 18.200 113.670 27 111.649 L 26.526 93.284 Z " transform="matrix(1, 0, 0, 1, 0.75, 0)"/>
        <path id="Shape" fill="#BE0A3C" stroke="none" stroke-width="1" d="M 74 132.345 L 73.824 133 C 70.265 132.802 64.389 132.705 61.418 132.760 C 59.237 132.798 58.227 129.100 58.227 129.100 L 49 104 L 63.391 104.504 C 63.391 104.504 70.704 124.645 74 132.345 Z " transform="matrix(1, 0, 0, 1, 0.75, 0)"/>
        <path id="Shape" fill="#F01446" stroke="none" stroke-width="1" d="M 22 104.391 C 23.338 109.521 28.374 119.255 29.257 121.382 C 30.072 123.336 31.088 125.090 32.029 126.970 C 32.692 128.296 36.029 133.394 36.867 133.614 C 38.258 133.976 46.990 134.331 49 133.444 C 48.014 125.641 42.069 110.862 41.265 103 L 22 104.391 Z " transform="matrix(1, 0, 0, 1, 0.75, 0)"/>
        <path id="Shape" fill="#BE0A3C" stroke="none" stroke-width="1" d="M 111.734 87.980 C 111.078 84.969 108.922 81.451 105.875 80.100 C 101.738 78.277 88.066 76.737 81 77.038 L 81.887 90.575 C 88.953 89.463 100.074 87.436 101.094 92.505 C 101.265 97.050 97.355 99.764 97.355 99.764 C 97.355 99.764 101.543 104.969 103.734 107 C 108.804 103.208 113.132 94.382 111.734 87.980 Z " transform="matrix(1, 0, 0, 1, 0.75, 0)"/>
        <path id="Shape" fill="#F01446" stroke="none" stroke-width="1" d="M 87.033 53.136 C 82.850 50.767 74.710 45.280 66.657 46.079 C 66.657 46.079 51.424 48.885 46.664 49.391 C 37.908 50.322 34.394 53.760 34.394 53.760 C 32.195 54.570 27.963 58.988 26.586 60.741 C 25.098 62.629 23.737 64.613 22.514 66.681 C 19.784 71.278 17.303 76.187 17.039 81.629 C 16.790 86.724 17.762 92.048 19.146 96.942 C 19.910 99.725 20.644 102.562 21.650 105.277 C 21.883 105.908 23.787 109.273 25.971 113 L 43.827 109.696 C 43.822 109.674 43.816 109.652 43.808 109.631 C 53.290 108.026 68.707 104.619 76.881 103.106 C 85.056 101.592 89.881 91.618 91.200 86.572 C 91.021 86.393 93.388 79.511 93.992 76.028 C 94.424 73.537 94.867 69.316 94.867 69.316 C 94.867 69.316 96.664 58.585 87.033 53.136 Z " transform="matrix(1, 0, 0, 1, 0.75, 0)"/>
        <path id="Shape" fill="#F01446" stroke="none" stroke-width="1" d="M 94.430 101.858 C 93.383 98.936 89.461 94.671 86.350 93.753 C 82.146 92.511 68.882 92.906 62.181 94.202 L 62 106.424 C 68.588 105.928 81.822 101.920 83.494 106.842 C 84.286 111.368 79.550 114.188 79.550 114.188 C 79.550 114.188 85.250 120.285 87.623 122 C 91.970 117.504 96.649 108.080 94.430 101.858 Z " transform="matrix(1, 0, 0, 1, 0.75, 0)"/>
        <g id="Group">
          <path id="Shape" fill="#BE0A3C" stroke="none" stroke-width="1" d="M 28.404 14 C 25.401 12.529 21.361 4.677 26.361 4 C 29.238 4.886 33.891 6.772 36 9.189 C 33.883 10.555 30.602 12.811 28.404 14 Z " transform="matrix(1, 0, 0, 1, 20.75, 0)"/>
          <path id="Shape" fill="#A0640A" stroke="none" stroke-width="1" d="M 13 29.851 C 12.169 31.857 11.757 33.958 10.918 36 C 8.745 34.797 1.360 31.752 3.331 28.279 C 5.041 25.271 11.045 28.311 13 29.851 Z " transform="matrix(1, 0, 0, 1, 20.75, 0)"/>
          <path id="Shape" fill="#BE0A3C" stroke="none" stroke-width="1" d="M 23 18.135 C 21.618 19.801 20.190 22.447 18.679 24 C 16.109 23.141 9.392 16.498 13.084 14.320 C 15.269 13.013 21.990 15.998 23 18.135 Z " transform="matrix(1, 0, 0, 1, 20.75, 0)"/>
          <path id="Shape" fill="#BE0A3C" stroke="none" stroke-width="1" d="M 49 5.882 C 46.568 6.249 43.507 7.520 41.110 8 C 38.642 6.753 36.052 -0.230 40.142 0.006 C 42.639 0.126 47.428 3.891 49 5.882 Z " transform="matrix(1, 0, 0, 1, 20.75, 0)"/>
          <path id="Shape" fill="#A0640A" stroke="none" stroke-width="1" d="M 12 63 C 9.715 62.739 -1.079 59.390 2.854 55.542 C 3.964 54.457 9.641 55.126 10.561 56.441 C 11.072 57.181 11.675 61.844 12 63 Z " transform="matrix(1, 0, 0, 1, 20.75, 0)"/>
          <path id="Shape" fill="#BE0A3C" stroke="none" stroke-width="1" d="M 8.595 50 C 6.358 49.088 -0.135 46.572 0.002 43.318 C 0.163 39.492 7.251 41.336 9 42.302 C 8.504 44.833 8.368 47.427 8.595 50 Z " transform="matrix(1, 0, 0, 1, 20.75, 0)"/>
          <path id="Shape" fill="#E6781E" stroke="none" stroke-width="1" d="M 82.027 26 C 79.889 23.951 77.086 21.025 75 19.015 C 75.811 16.524 78.610 2.788 78.998 0.157 C 81.235 -1.376 82.540 8.814 82.665 9.877 C 83.110 13.591 83.295 22.391 82.027 26 Z " transform="matrix(1, 0, 0, 1, 20.75, 0)"/>
          <path id="Shape" fill="#C8C8BE" stroke="none" stroke-width="1" d="M 100.319 47.395 C 98.147 43.531 92.825 36.319 92.825 36.319 L 88.639 35 L 65 41.336 L 74.965 69 C 74.965 69 104.127 61.632 106 60.290 C 105.413 55.792 102.510 51.290 100.319 47.395 Z " transform="matrix(1, 0, 0, 1, 20.75, 0)"/>
          <path id="Shape" fill="#F04650" stroke="none" stroke-width="1" d="M 74.715 14.911 C 71.871 12.633 68.811 10.639 65.579 8.957 C 62.183 7.195 58.540 5.958 54.775 5.288 C 53.376 5.018 51.947 4.937 50.526 5.048 C 49.293 5.181 46.468 5.139 45.398 5.882 C 41.325 6.164 37.213 8.012 33.498 9.608 C 30.941 10.680 28.525 12.060 26.303 13.719 C 25.043 14.667 21.483 17.970 21.160 18.290 C 17.296 22.142 11.585 31.540 11.262 32.214 C 8.875 37.167 7.310 43.571 8.304 48.634 C 8.508 53.281 9.645 57.840 11.646 62.040 C 12.613 65.426 15.742 68.166 18.628 69.929 C 21.693 71.808 25.598 73.945 29.314 72.718 C 33.372 71.377 31.442 67.712 32.504 64.764 C 33.483 62.032 36.193 59.194 39.300 60.489 C 45.554 63.099 46.023 74.337 53.636 74.966 C 57.188 75.255 61.227 73.640 64.631 72.790 C 68.034 71.941 75.016 69.994 75.016 69.994 C 75.016 69.994 75.469 58.009 76.432 52.169 C 77.106 48.066 78.469 44.706 80.970 42.028 C 82.530 40.491 84.362 39.257 86.372 38.390 C 88.508 37.545 90.731 36.941 93 36.588 C 93 36.588 87.731 28.588 82.341 22.187 C 79.508 18.812 75.218 15.311 74.715 14.911 Z " transform="matrix(1, 0, 0, 1, 20.75, 0)"/>
          <path id="Shape" fill="#F01446" stroke="none" stroke-width="1" d="M 55.160 16.192 C 55.160 16.192 60.463 20.719 65.008 24.027 C 66.216 24.906 69.030 26.704 71.359 26.955 C 74.431 27.287 76.862 25.733 75.707 23.772 C 74.317 21.424 67.291 16.687 62.970 13.914 C 62.394 13.544 60.959 12.503 59.561 12.226 C 56.092 11.532 51.937 12.322 55.160 16.192 Z " transform="matrix(1, 0, 0, 1, 20.75, 0)"/>
          <path id="Shape" fill="#000000" stroke="none" stroke-width="1" d="M 54.135 50.527 C 53.691 50.831 50 52.566 50 52.566 L 50.528 53 L 55 50.907 L 55 50.401 C 54.632 50.294 53.274 48.908 51.513 48.114 C 51.300 47.962 50.998 47.962 50.785 48.114 C 50.892 48.465 53.758 50.227 54.135 50.527 Z " transform="matrix(1, 0, 0, 1, 20.75, 0)"/>
          <path id="Shape" fill="#000000" stroke="none" stroke-width="1" d="M 96.865 38.527 C 97.309 38.831 101 40.569 101 40.569 L 100.472 41 L 96 38.906 L 96 38.404 C 96.373 38.294 97.726 36.907 99.487 36.113 C 99.700 35.962 100.002 35.962 100.215 36.113 C 100.122 36.468 97.260 38.230 96.865 38.527 Z " transform="matrix(1, 0, 0, 1, 20.75, 0)"/>
          <path id="Shape" fill="#FFC800" stroke="none" stroke-width="1" d="M 82.499 37 C 80.550 36.890 79.688 33.444 80.101 31.879 C 80.690 29.657 82.460 27.427 83.478 25.353 C 84.414 23.463 85.284 20.557 86.785 19 C 88.512 21.347 89.164 24.321 89.515 27.129 C 89.807 29.396 90.443 33.285 89.515 34.494 C 88.900 35.157 88.137 35.674 87.284 36.006 C 85.748 36.592 84.121 36.922 82.472 36.981 " transform="matrix(1, 0, 0, 1, 20.75, 0)"/>
          <path id="Shape" fill="#FFC800" stroke="none" stroke-width="1" d="M 51 40.087 C 51 40.087 40.584 43.548 40.193 41.159 C 39.652 37.849 40.386 33.705 40.722 30.399 C 41.094 26.677 42.566 10.771 44.340 10 C 45.611 10.383 51 40.087 51 40.087 Z " transform="matrix(1, 0, 0, 1, 20.75, 0)"/>
          <path id="Shape" fill="#000000" stroke="none" stroke-width="1" d="M 99.726 54.803 C 99.838 55.578 100.385 57.164 99.522 58.391 C 98.658 59.617 96.387 60.480 93.119 61.167 C 90.822 61.647 87.569 62.225 85.972 61.911 C 83.028 61.351 82.589 59.187 82.090 57.591 C 81.319 55.124 85.611 52.400 91.169 51.248 C 96.726 50.095 99.510 53.253 99.726 54.803 Z " transform="matrix(1, 0, 0, 1, 20.75, 0)"/>
          <path id="Shape" fill="#828278" stroke="none" stroke-width="1" d="M 93.061 44.518 L 93.731 44 C 94.524 44.456 95.769 46.482 94.361 46.938 C 92.953 47.394 92.906 45.190 93.061 44.518 Z " transform="matrix(1, 0, 0, 1, 20.75, 0)"/>
          <path id="Shape" fill="#828278" stroke="none" stroke-width="1" d="M 84.052 46.518 L 84.724 46 C 85.520 46.453 86.774 48.482 85.357 48.938 C 83.940 49.395 83.920 47.188 84.052 46.518 Z " transform="matrix(1, 0, 0, 1, 20.75, 0)"/>
        </g>
      </g>
    </g>
  </g>
</svg>