<svg version="1.1" width="122" height="127" viewBox="-1 -1 122 127" xmlns="http://www.w3.org/2000/svg" xmlns:xlink="http://www.w3.org/1999/xlink">
  <!-- Exported by Scratch - http://scratch.mit.edu/ -->
  <g id="ID0.6126808323897421" transform="matrix(1, 0, 0, 1, 1, 0)">
    <g id="Page-1">
      <g id="ghost-c-[fantasy,spooky,halloween,ghoul,monster,alex-eben-meyer]">
        <g id="Arm-R">
          <path id="Shape" fill="#78C8C8" stroke="none" stroke-width="1" d="M 30.713 39.271 C 32.322 34.986 31.936 30.253 29.747 26.223 C 27.623 22.450 25.113 20.147 24.277 15.670 C 23.762 13.112 24.019 10.617 24.341 8.059 C 24.470 6.844 25.499 3.518 24.277 2.622 C 22.861 2.366 21.831 6.844 21.573 7.675 L 21.123 8.123 C 17.261 9.466 19.128 2.303 18.677 0.895 C 18.484 0.640 18.098 0.512 17.776 0.640 C 16.103 3.006 16.875 6.204 15.073 8.443 L 14.365 8.698 C 13.399 8.571 12.563 8.059 11.984 7.291 C 11.726 6.076 12.691 2.303 11.533 1.343 C 8.186 1.279 8.379 8.762 8.444 10.873 C 8.637 14.583 9.280 18.164 11.597 21.171 C 16.424 27.566 19.514 31.660 14.365 38.823 C 12.177 41.893 9.795 44.644 9.666 48.545 C 9.538 52.575 11.855 55.773 13.464 59.290 C 14.751 62.105 15.395 66.454 12.627 68.628 C 10.568 70.227 4.711 70.036 0.656 70.099 L 0.656 83.275 C 5.805 83.275 11.597 82.763 16.231 81.356 C 19.836 80.205 22.925 77.839 24.856 74.577 C 27.044 71.123 27.302 66.070 26.272 62.169 C 25.178 58.075 22.603 54.877 23.504 50.400 C 24.405 45.923 29.104 43.428 30.713 39.271 Z " transform="matrix(1, 0, 0, 1, 89, 0)"/>
          <path id="Shape" fill="#AADCDC" stroke="none" stroke-width="1" d="M 11.469 74.449 C 7.671 74.641 7.414 80.141 11.340 79.949 C 15.266 79.757 14.751 74.257 11.469 74.449 Z " transform="matrix(1, 0, 0, 1, 89, 0)"/>
          <path id="Shape" fill="#AADCDC" stroke="none" stroke-width="1" d="M 14.687 46.051 C 12.563 46.179 12.370 49.249 14.622 49.185 C 16.875 49.121 16.489 45.987 14.687 46.051 Z " transform="matrix(1, 0, 0, 1, 89, 0)"/>
          <path id="Shape" fill="#AADCDC" stroke="none" stroke-width="1" d="M 22.346 64.087 C 20.222 64.215 20.029 67.285 22.281 67.221 C 24.534 67.157 24.148 64.023 22.346 64.087 Z " transform="matrix(1, 0, 0, 1, 89, 0)"/>
          <path id="Shape" fill="#AADCDC" stroke="none" stroke-width="1" d="M 12.756 12.344 C 10.632 12.472 10.439 15.542 12.691 15.478 C 14.944 15.414 14.622 12.280 12.756 12.344 Z " transform="matrix(1, 0, 0, 1, 89, 0)"/>
        </g>
        <g id="Arm-L">
          <path id="Shape" fill="#78C8C8" stroke="none" stroke-width="1" d="M 28.062 66.756 C 24.136 66.628 18.343 66.181 17.056 64.710 C 13.773 60.872 15.576 53.389 17.442 49.231 C 18.794 46.289 19.437 43.731 18.279 40.597 C 17.249 37.719 15.061 35.672 13.773 32.922 C 12.293 29.788 12.100 26.846 13.838 23.840 C 15.704 20.642 18.214 19.235 18.214 15.269 C 18.214 11.943 17.506 8.617 16.090 5.547 C 15.576 4.460 13.130 -0.785 11.263 0.175 C 11.006 1.518 14.288 5.739 12.100 6.635 C 9.204 7.210 8.753 0.239 5.406 1.518 C 3.604 3.181 9.912 7.210 6.307 8.617 C 3.926 8.042 2.896 5.547 0.322 5.099 C -1.287 6.059 3.669 12.263 4.119 13.670 C 5.599 17.891 3.669 21.345 2.317 25.247 C 0.965 29.148 1.223 32.666 3.476 36.120 C 5.793 39.702 7.852 42.196 7.530 46.737 C 6.951 54.476 1.287 61.256 3.862 69.187 C 5.085 72.769 7.852 75.647 11.392 77.054 C 16.734 78.845 22.334 79.868 27.997 79.996 L 28.062 66.756 Z " transform="matrix(1, 0, 0, 1, 0, 2)"/>
          <path id="Shape" fill="#AADCDC" stroke="none" stroke-width="1" d="M 5.149 27.677 C 3.025 27.805 2.832 30.875 5.085 30.811 C 7.337 30.747 7.015 27.549 5.149 27.677 Z " transform="matrix(1, 0, 0, 1, 0, 2)"/>
          <path id="Shape" fill="#00A0B4" stroke="none" stroke-width="1" d="M 10.555 48.656 C 8.431 48.784 8.238 51.854 10.491 51.790 C 12.744 51.726 12.357 48.592 10.555 48.656 Z " transform="matrix(1, 0, 0, 1, 0, 2)"/>
          <path id="Shape" fill="#AADCDC" stroke="none" stroke-width="1" d="M 13.516 40.341 C 8.946 40.597 8.560 47.249 13.323 47.057 C 18.086 46.865 17.506 40.149 13.516 40.341 Z " transform="matrix(1, 0, 0, 1, 0, 2)"/>
        </g>
        <g id="Backside">
          <path id="Shape" fill="#00A0B4" stroke="none" stroke-width="1" d="M 35.312 26.982 C 34.732 32.738 32.930 34.657 29.390 35.488 C 27.588 35.936 25.851 36 24.241 35.169 C 20.830 33.378 20.122 28.389 18.385 25.127 C 14.909 24.168 15.360 27.813 10.404 27.813 C 1.779 27.813 1.844 23.272 0.235 10.288 C -1.374 -2.695 34.089 1.334 34.089 1.334 C 34.089 1.334 35.891 21.289 35.312 26.982 Z " transform="matrix(1, 0, 0, 1, 23, 90)"/>
          <path id="Shape" fill="#00A0B4" stroke="none" stroke-width="1" d="M 41.233 24.168 C 40.010 20.906 41.490 4.980 41.490 4.980 L 67.042 7.858 C 67.042 7.858 67.943 16.237 68.072 18.859 C 68.394 30.755 64.532 32.226 61.893 32.290 C 50.051 32.738 53.076 21.225 49.922 19.562 C 44.387 16.684 43.550 20.970 41.233 24.168 Z " transform="matrix(1, 0, 0, 1, 23, 90)"/>
        </g>
        <g id="Body-+-Face">
          <path id="Rectangle-path" fill="#006482" stroke="none" stroke-width="1" d="M 16.652 31.242 L 60.160 31.242 L 60.160 64.373 L 16.652 64.373 L 16.652 31.242 Z " transform="matrix(1, 0, 0, 1, 21, 4)"/>
          <path id="Shape" fill="#FFFFFF" stroke="none" stroke-width="1" d="M 39.307 33.736 C 39.307 33.736 38.599 37.638 40.465 38.341 C 42.332 39.045 43.877 39.109 44.585 37.638 C 45.293 36.166 45.099 32.969 45.099 32.969 L 39.307 33.736 Z " transform="matrix(1, 0, 0, 1, 21, 4)"/>
          <path id="Shape" fill="#000000" stroke="none" stroke-width="1" d="M 41.366 53.372 C 33.450 52.220 26.306 53.883 22.058 57.593 L 22.058 63.605 L 55.784 63.605 L 55.784 57.081 C 53.016 55.162 48.124 54.395 41.366 53.372 Z " transform="matrix(1, 0, 0, 1, 21, 4)"/>
          <path id="Shape" fill="#AADCDC" stroke="none" stroke-width="1" d="M 74.191 74.414 C 72.646 58.041 75.607 42.179 70.587 26.189 C 66.210 12.182 58.809 3.547 44.263 0.605 C 30.232 -2.209 12.983 5.274 7.190 17.938 C 0.819 31.881 2.235 47.935 1.140 62.710 C 0.497 71.088 1.076 79.083 1.462 87.526 C 1.784 95.457 4.165 110.231 12.018 108.824 C 15.622 108.185 17.295 103.132 22.444 103.708 C 27.593 104.283 26.241 110.743 27.593 112.598 C 30.103 116.052 36.153 118.930 40.272 117.331 C 48.704 114.005 42.461 99.614 49.605 99.039 C 56.749 98.463 57.779 107.353 60.160 110.040 C 63.056 113.365 68.270 114.069 70.844 110.040 C 73.419 106.010 73.161 99.294 73.354 94.689 C 73.676 88.038 74.770 81.002 74.191 74.414 Z M 53.080 48.383 C 52.759 57.465 44.713 60.087 37.247 60.087 C 29.781 60.087 23.410 56.314 22.509 48.575 C 21.607 40.836 27.851 34.248 38.277 34.887 C 48.060 35.463 53.402 39.237 53.080 48.383 Z " transform="matrix(1, 0, 0, 1, 21, 4)"/>
          <path id="Shape" fill="#78C8C8" stroke="none" stroke-width="1" d="M 62.928 101.917 C 63.121 104.091 64.022 105.946 67.304 106.138 C 71.102 106.330 70.072 90.468 66.081 90.212 C 62.091 89.956 62.541 96.800 62.928 101.917 Z " transform="matrix(1, 0, 0, 1, 21, 4)"/>
          <path id="Shape" fill="#78C8C8" stroke="none" stroke-width="1" d="M 52.887 94.242 C 53.080 95.329 53.981 96.224 57.264 96.352 C 61.061 96.416 60.031 88.549 56.041 88.357 C 52.051 88.165 52.501 91.683 52.887 94.242 Z " transform="matrix(1, 0, 0, 1, 21, 4)"/>
          <path id="Shape" fill="#00A0B4" stroke="none" stroke-width="1" d="M 61.319 77.292 C 57.521 77.676 57.264 88.293 61.190 87.974 C 65.116 87.654 64.601 76.973 61.319 77.292 Z " transform="matrix(1, 0, 0, 1, 21, 4)"/>
          <path id="Shape" fill="#006482" stroke="none" stroke-width="1" d="M 21.093 94.945 C 17.295 95.137 17.038 100.638 20.964 100.446 C 24.890 100.254 24.375 94.817 21.093 94.945 Z " transform="matrix(1, 0, 0, 1, 21, 4)"/>
          <path id="Shape" fill="#78C8C8" stroke="none" stroke-width="1" d="M 68.270 60.599 C 64.472 60.791 64.215 66.291 68.141 66.099 C 72.067 65.908 71.552 60.407 68.270 60.599 Z " transform="matrix(1, 0, 0, 1, 21, 4)"/>
          <path id="Shape" fill="#78C8C8" stroke="none" stroke-width="1" d="M 19.612 10.135 C 16.394 8.152 8.606 17.362 11.953 19.473 C 15.300 21.584 22.380 11.862 19.612 10.135 Z " transform="matrix(1, 0, 0, 1, 21, 4)"/>
          <path id="Shape" fill="#78C8C8" stroke="none" stroke-width="1" d="M 20.449 88.229 C 17.746 88.357 17.488 92.323 20.320 92.195 C 23.152 92.067 22.766 88.102 20.449 88.229 Z " transform="matrix(1, 0, 0, 1, 21, 4)"/>
          <path id="Shape" fill="#78C8C8" stroke="none" stroke-width="1" d="M 37.054 76.653 C 34.351 76.781 34.094 80.746 36.926 80.618 C 39.757 80.490 39.371 76.525 37.054 76.653 Z " transform="matrix(1, 0, 0, 1, 21, 4)"/>
          <path id="Shape" fill="#78C8C8" stroke="none" stroke-width="1" d="M 31.905 106.714 C 29.202 106.842 28.945 110.807 31.777 110.679 C 34.609 110.551 34.222 106.586 31.905 106.714 Z " transform="matrix(1, 0, 0, 1, 21, 4)"/>
          <path id="Shape" fill="#00A0B4" stroke="none" stroke-width="1" d="M 46.837 87.462 C 44.134 87.590 43.877 91.555 46.709 91.427 C 49.540 91.299 49.154 87.334 46.837 87.462 Z " transform="matrix(1, 0, 0, 1, 21, 4)"/>
          <path id="Shape" fill="#78C8C8" stroke="none" stroke-width="1" d="M 5.710 97.312 C 5.968 100.574 7.448 103.260 12.532 103.516 C 18.454 103.836 16.845 80.426 10.666 80.043 C 4.487 79.659 5.131 89.764 5.710 97.312 Z " transform="matrix(1, 0, 0, 1, 21, 4)"/>
          <path id="Shape" fill="#000000" stroke="none" stroke-width="1" d="M 57.328 44.481 C 58.680 45.121 59.774 46.080 61.190 46.272 C 61.576 46.336 61.898 46.400 62.091 46.848 L 61.898 47.104 C 61.383 47.168 60.932 47.104 60.482 46.848 C 59.259 46.208 58.036 45.632 56.813 44.993 C 56.556 44.865 56.234 44.737 55.912 44.609 L 55.719 44.097 L 60.611 41.475 L 61.512 41.603 L 61.447 42.051 C 59.388 43.010 58.036 43.714 57.328 44.481 Z " transform="matrix(1, 0, 0, 1, 21, 4)"/>
          <path id="Shape" fill="#000000" stroke="none" stroke-width="1" d="M 15.236 44.609 C 14.270 43.522 13.176 42.562 12.082 41.603 C 11.889 41.347 11.953 41.027 12.211 40.836 C 12.211 40.836 12.211 40.836 12.275 40.836 C 12.339 40.836 12.468 40.836 12.532 40.899 C 12.661 40.963 12.726 41.027 12.854 41.155 C 13.820 42.371 14.978 43.458 16.265 44.353 C 16.587 44.545 16.973 44.801 16.845 45.377 L 16.265 45.505 C 16.072 45.505 15.879 45.569 15.686 45.632 C 14.785 46.016 13.948 46.464 13.047 46.848 L 12.018 47.295 C 11.567 47.231 11.374 47.104 11.438 46.720 C 12.661 46.144 13.820 45.569 14.978 44.993 C 15.043 44.865 15.107 44.737 15.236 44.609 Z " transform="matrix(1, 0, 0, 1, 21, 4)"/>
        </g>
      </g>
    </g>
  </g>
</svg>