<svg width="56px" height="56px" viewBox="0 0 56 56" version="1.1" xml:space="preserve" xmlns="http://www.w3.org/2000/svg" xmlns:xlink="http://www.w3.org/1999/xlink">
  <defs/>
  <g>
    <title>Slice 1</title>
    <desc>Created with Sketch.</desc>
    <g id="Page-1" stroke="none" stroke-width="1" fill="none" fill-rule="evenodd">
      <g id="baseball-[baseball,sports,ball,alex-eben-meyer]" fill-rule="nonzero">
        <g id="Group-3">
          <path d="M28,0 C35.7,0 42.7,3.1 47.8,8.2 C52.9,13.3 56,20.3 56,28 C56,35.7 52.9,42.7 47.8,47.8 C42.7,52.9 35.7,56 28,56 C20.3,56 13.3,52.9 8.2,47.8 C3.1,42.7 0,35.7 0,28 C0,20.3 3.1,13.3 8.2,8.2 C13.3,3.1 20.3,0 28,0 Z" id="Oval" fill="#FAF0E6"/>
          <path d="M56,28.1 C56,21.8 53.9,16 50.3,11.4 C47.1,13.7 40.4,19.7 37,30.4 C37,30.4 33,42.4 38.9,53.8 C49.1,49.4 56,39.6 56,28.1 Z" id="Shape" fill="#F0E6D2"/>
        </g>
        <g id="Group-2" transform="translate(32.000000, 10.000000)" fill="#F01446">
          <polyline id="Shape_1_" points="12.9 5.3 13.7 0.9 14.4 1.1 13.9 4.6 17.6 4.7 17.6 5.5 12.9 5.3"/>
          <polyline id="Shape_2_" points="9 10.6 8.8 6.1 9.6 6 9.9 9.6 13.5 8.9 13.6 9.7 9 10.6"/>
          <polyline id="Shape_3_" points="6.5 16.2 5 12 5.9 11.8 7 15.1 10.3 13.9 10.5 14.6 6.5 16.2"/>
          <polyline id="Shape_4_" points="3.6 28.5 1 25 1.6 24.5 3.7 27.4 6.5 25.1 7 25.7 3.6 28.5"/>
          <polyline id="Shape_5_" points="3.8 35.4 0.6 32.2 1.3 31.6 3.7 34.1 6.1 31.6 6.8 32.2 3.8 35.4"/>
          <polyline id="Shape_6_" points="5.5 41.4 1.8 38.9 2.2 38.3 5.2 40.2 7 37.2 7.8 37.6 5.5 41.4"/>
          <polyline id="Shape_7_" points="4.6 22 2.8 18.1 3.6 17.7 5 20.9 8.2 19.3 8.5 20 4.6 22"/>
          <path d="M18.2,1 C14.5,3.2 11.4,6.3 9.2,9.9 C3.3,19.4 0.7,33.7 6.5,44.1 C6.7,44 7.1,43.9 7.3,43.8 C2.9,35.8 2.4,22.6 9.9,10.4 C12.1,6.8 15.1,3.9 18.7,1.8 C18.5,1.4 18.3,1.3 18.2,1 Z" id="Shape_8_"/>
        </g>
        <g id="Group" transform="translate(5.000000, 2.000000)" fill="#F01446">
          <polyline id="Shape_9_" points="6.6 39.1 5.9 43.5 5.1 43.4 5.6 39.9 2.1 39.8 2.2 39 6.6 39.1"/>
          <polyline id="Shape_10_" points="10.2 34 10.5 38.4 9.7 38.4 9.5 35 6 35.6 5.9 34.8 10.2 34"/>
          <polyline id="Shape_11_" points="12.7 28.4 14 32.5 13.2 32.7 12.2 29.5 9.1 30.7 8.7 30 12.7 28.4"/>
          <polyline id="Shape_12_" points="15.3 16.3 17.8 19.7 17.2 20.2 15.2 17.4 12.7 19.6 12.2 19 15.3 16.3"/>
          <polyline id="Shape_13_" points="15.2 9.5 18.1 12.6 17.6 13.1 15.2 10.6 13 13.1 12.3 12.6 15.2 9.5"/>
          <polyline id="Shape_14_" points="13.6 3.5 17.1 5.9 16.7 6.6 13.8 4.7 12.1 7.5 11.5 7.1 13.6 3.5"/>
          <polyline id="Shape_15_" points="14.4 22.7 16.1 26.6 15.4 26.9 14 23.7 11 25.4 10.7 24.7 14.4 22.7"/>
          <path d="M9.4,34.2 C7.4,37.9 4.3,40.9 0.7,43 C0.9,43.2 1,43.5 1.2,43.6 C4.9,41.4 7.9,38.3 10,34.6 C15.6,25.1 18.1,10.6 12.3,0.4 C12.1,0.5 11.8,0.6 11.5,0.7 C16,8.6 16.7,22 9.4,34.2 Z" id="Shape_16_"/>
        </g>
      </g>
    </g>
  </g>
</svg>