<svg version="1.1" width="103" height="129" viewBox="-1 -1 103 129" xmlns="http://www.w3.org/2000/svg" xmlns:xlink="http://www.w3.org/1999/xlink">
  <!-- Exported by Scratch - http://scratch.mit.edu/ -->
  <g id="ID0.2275134902447462">
    <g id="Page-1">
      <g id="hen-d-[animals,chicken,farm,owen-davey]">
        <g id="Group">
          <path id="Stroke-1" fill="none" stroke="#FFDB5D" stroke-width="1.575" d="M 14.125 10.174 L 14.125 29.322 " transform="matrix(1, 0, 0, 1, 28.9, 97.55)"/>
          <path id="Stroke-3" fill="none" stroke="#FFDB5D" stroke-width="1.575" d="M 27.312 29.322 C 24.060 29.322 24.060 26.174 20.807 26.174 C 17.555 26.174 17.555 29.322 14.303 29.322 C 11.049 29.322 11.049 26.174 7.795 26.174 C 4.541 26.174 4.541 29.322 1.287 29.322 " transform="matrix(1, 0, 0, 1, 28.9, 97.55)"/>
          <path id="Fill-7" fill="#FFF4E3" stroke="none" stroke-width="1" d="M 15.833 0.469 L 15.833 12.293 C 15.833 13.931 13.848 14.751 12.688 13.593 L 0.323 1.256 L 15.833 0.469 Z " transform="matrix(1, 0, 0, 1, 28.9, 97.55)"/>
        </g>
        <g id="Group-2">
          <path id="Stroke-5" fill="none" stroke="#FFDB5D" stroke-width="1.575" d="M 1.681 12.623 L 11.979 22.897 C 14.363 25.275 15.702 28.501 15.702 31.864 L 15.702 36.928 " transform="matrix(1, 0, 0, 1, 12.6, 86.55)"/>
          <path id="Fill-9" fill="#FFF4E3" stroke="none" stroke-width="1" d="M 0.279 0.469 L 0.279 12.293 C 0.279 13.931 2.264 14.751 3.425 13.593 L 15.790 1.256 L 0.279 0.469 Z " transform="matrix(1, 0, 0, 1, 12.6, 86.55)"/>
        </g>
        <g id="Group-4">
          <path id="Fill-11" fill="#FFF4E3" stroke="none" stroke-width="1" d="M 83.173 88.775 C 64.146 107.759 33.297 107.759 14.270 88.775 C -4.756 69.791 -4.756 39.012 14.270 20.027 L 83.173 88.775 Z "/>
          <path id="Fill-13" fill="#FFF4E3" stroke="none" stroke-width="1" d="M 22.365 39.847 L 41.640 54.065 C 41.640 52.229 41.621 35.087 41.621 33.399 C 41.621 14.953 26.635 0.000 8.147 0.000 C 6.273 0.000 4.437 0.161 2.646 0.456 L 13.492 11.279 L 2.539 11.279 L 11.171 19.890 L 2.364 19.890 L 22.365 39.847 Z "/>
          <path id="Fill-15" fill="#FFF4E3" stroke="none" stroke-width="1" d="M 78.047 114.302 L 43.042 86.633 L 82.738 88.469 C 82.738 88.469 93.056 96.732 93.951 110.521 L 78.047 114.302 Z "/>
          <path id="Fill-17" fill="#F3E4CE" stroke="none" stroke-width="1" d="M 70.781 76.410 C 58.597 88.566 38.846 88.566 26.663 76.410 C 17.854 67.621 15.414 54.884 19.344 43.908 L 32.661 57.195 L 27.500 33.227 L 70.781 76.410 Z "/>
        </g>
        <g id="Group-3">
          <path id="Fill-19" fill="#CE2235" stroke="none" stroke-width="1" d="M 6.656 23.996 C 3.000 23.996 0.035 21.038 0.035 17.389 C 0.035 13.741 3.000 10.783 6.656 10.783 C 10.314 10.783 13.278 13.741 13.278 17.389 C 13.278 21.038 10.314 23.996 6.656 23.996 " transform="matrix(1, 0, 0, 1, 68.85, 100.7)"/>
          <path id="Fill-21" fill="#CE2235" stroke="none" stroke-width="1" d="M 25.875 22.423 C 26.312 22.520 26.775 22.548 27.253 22.493 C 29.066 22.283 30.563 20.834 30.817 19.030 C 31.074 17.205 30.118 15.574 28.641 14.813 C 28.663 14.813 28.684 14.816 28.706 14.816 C 30.966 14.816 32.797 12.989 32.797 10.734 C 32.797 9.181 31.927 7.833 30.646 7.145 C 30.207 6.909 30.034 6.392 30.239 5.939 C 30.469 5.428 30.597 4.860 30.596 4.262 C 30.589 2.106 28.809 0.270 26.649 0.195 C 24.425 0.119 22.585 1.815 22.428 3.977 L 22.438 5.658 C 22.438 5.658 19.850 5.832 19.784 6.259 C 19.731 6.605 18.964 14.749 18.676 17.803 C 17.091 18.519 16.043 20.210 16.310 22.111 C 16.561 23.898 18.025 25.339 19.819 25.568 C 21.664 25.804 23.304 24.812 24.038 23.300 C 24.368 22.620 25.137 22.258 25.875 22.423 " transform="matrix(1, 0, 0, 1, 68.85, 100.7)"/>
          <path id="Fill-23" fill="#CE2235" stroke="none" stroke-width="1" d="M 30.937 13.819 C 30.937 13.819 31.989 13.412 31.049 14.078 C 30.109 14.745 29.797 15.521 30.348 16.465 C 30.899 17.410 27.764 16.183 27.764 16.183 L 27.635 14.486 L 28.327 13.431 L 30.937 13.819 Z " transform="matrix(1, 0, 0, 1, 68.85, 100.7)"/>
          <path id="Fill-25" fill="#FFDB5D" stroke="none" stroke-width="1" d="M 12.095 27.021 C 14.921 25.377 16.827 22.332 16.827 18.832 C 16.827 15.333 14.921 12.287 12.095 10.644 L 12.095 27.021 Z " transform="matrix(1, 0, 0, 1, 68.85, 100.7)"/>
          <path id="Fill-27" fill="#E8441D" stroke="none" stroke-width="1" d="M 16.017 19.570 C 11.038 19.570 7.002 15.543 7.002 10.575 C 7.002 5.608 11.038 1.581 16.017 1.581 C 20.996 1.581 25.031 5.608 25.031 10.575 C 25.031 15.543 20.996 19.570 16.017 19.570 " transform="matrix(1, 0, 0, 1, 68.85, 100.7)"/>
          <path id="Fill-29" fill="#FFF4E3" stroke="none" stroke-width="1" d="M 16.017 14.662 C 13.754 14.662 11.921 12.832 11.921 10.575 C 11.921 8.318 13.754 6.488 16.017 6.488 C 18.279 6.488 20.112 8.318 20.112 10.575 C 20.112 12.832 18.279 14.662 16.017 14.662 " transform="matrix(1, 0, 0, 1, 68.85, 100.7)"/>
          <path id="Fill-31" fill="#17242D" stroke="none" stroke-width="1" d="M 16.017 13.242 C 14.540 13.242 13.344 12.048 13.344 10.575 C 13.344 9.102 14.540 7.908 16.017 7.908 C 17.493 7.908 18.690 9.102 18.690 10.575 C 18.690 12.048 17.493 13.242 16.017 13.242 " transform="matrix(1, 0, 0, 1, 68.85, 100.7)"/>
        </g>
      </g>
    </g>
  </g>
</svg>