<svg width="126px" height="185px" viewBox="0 0 126 185" version="1.1" xml:space="preserve" xmlns="http://www.w3.org/2000/svg" xmlns:xlink="http://www.w3.org/1999/xlink">
  <!-- Generator: Sketch 52.4 (67378) - http://www.bohemiancoding.com/sketch -->
  <g>
    <title>Slice 1</title>
    <desc>Created with Sketch.</desc>
    <g id="Page-1" stroke="none" stroke-width="1" fill="none" fill-rule="evenodd">
      <g id="rocketship-a-[space,spaceship,wren-mcdonald]">
        <g id="Group-7" transform="translate(4.000000, 0.000000)">
          <polyline id="Shape" fill="#C1B4D8" points="37.75 11.921 34.15 17.409 28.75 32.425 26.25 46.147 25.75 63.011 25.75 82.269 29.809 86.061 40.95 90.451 52.731 92.446 71.19 91.549 82.95 90.352 92.15 86.36 96.95 83.267 93.85 50.039 90.852 33.075 86.364 22.399 82.45 16.112 74.874 8.229 66.65 2.242 58.25 1.244 50.323 2.841 43.15 6.932 37.75 11.921"/>
          <polyline id="Shape" fill="#897AB8" points="26.35 84.364 27.95 98.733 34.35 100.329 43.45 102.824 54.95 105.019 61.775 104.62 69.25 105.318 79.15 104.52 89.697 101.327 96.95 96.038 97.55 91.349 96.95 83.267 93.35 85.262 88.543 88.555 83.25 90.75 77.35 91.449 71.19 92.446 68.05 92.446 58.35 92.845 54.35 92.446 50.323 92.038 45.55 91.349 39.75 90.251 35.85 89.154 30.75 87.058 26.35 84.364"/>
          <polyline id="Shape" fill="#F7EC1E" points="57.425 112.329 53 114.95 49.7 118.914 47.525 125.949 47 135.753 49.85 149.373 54.425 162.62 57.85 171.226 61.35 178.71 61.95 181.254 62.675 181.778 63.55 179.758 69.575 165.613 74.675 152.367 76.925 141.366 78.95 131.962 78.05 123.18 73.625 116.294 69.25 112.852 67.625 112.329 58.85 112.329 57.425 112.329"/>
          <polyline id="Shape" fill="#FBF5A8" points="59.75 123.928 57.85 124.976 56.75 128.045 56.75 133.657 58.85 143.162 61.95 153.041 62.975 153.041 66.95 140.543 68.75 129.865 67.775 125.725 66.05 123.928 60.875 123.33 59.75 123.928"/>
          <polyline id="Shape" fill="#EF463C" points="65.35 65.304 62.95 65.304 60.15 66.801 58.45 70.294 57.85 80.073 58.55 96.238 59.15 110.507 60.45 120.685 62.75 131.162 66.35 114.298 67.95 97.535 69.25 82.867 69.25 73.786 68.05 68.597 66.65 66.103 65.35 65.304"/>
          <path d="M25.15,61.014 L21.351,59.378 L14.35,59.378 L8.35,62.112 C8.35,62.112 4.45,67.101 4.251,67.4 C4.051,67.699 1.75,78.376 1.75,78.376 L2.35,86.957 L4.851,97.834 L12.151,113.9 L19.751,126.488 L22.651,129.865 L23.051,128.168 L21.351,120.086 L20.951,110.307 L22.051,102.823 L25.151,99.63 L27.951,98.233 L26.451,83.565 L25.551,74.884 L25.051,65.304 L25.15,61.014 Z" id="Shape" fill="#EF463C"/>
          <polyline id="Shape" fill="#EF463C" points="95.25 62.311 96.55 76.58 97.35 87.556 98.05 96.038 100.842 97.235 104.65 100.129 107.35 104.919 109.05 110.706 109.05 116.294 114.15 106.814 119.25 91.547 121.45 79.574 119.25 68.298 114.35 62.311 107.45 59.378 100.842 59.916 95.25 62.311"/>
          <path d="M71.95,5.733 L66.15,2.44 L56.75,1.542 L48.2,3.638 L43.45,7.031 L46.931,9.026 L54.75,10.523 L62.55,9.924 C62.55,9.924 68.05,8.328 68.35,8.228 C68.65,8.128 71.95,5.733 71.95,5.733 Z" id="Shape" fill="#EF463C"/>
          <path d="M121.906,78.105 C121.847,75.854 121.425,73.641 121.016,71.423 C120.549,68.888 119.494,66.685 117.999,64.625 C116.793,62.966 115.078,61.936 113.446,60.809 C112.771,60.343 111.97,60.029 111.188,59.75 C110.404,59.471 109.566,59.347 108.765,59.111 C107.083,58.615 105.337,58.614 103.617,58.454 C102.737,58.372 101.814,58.477 100.942,58.656 C99.861,58.88 98.713,58.833 97.726,59.532 C97.197,59.907 96.492,60.035 95.786,60.305 C95.695,59.529 95.592,58.809 95.53,58.086 C95.382,56.356 95.285,54.622 95.109,52.896 C94.944,51.282 94.734,49.671 94.485,48.068 C94.185,46.133 93.845,44.204 93.48,42.281 C93.26,41.116 92.955,39.966 92.7,38.807 C92.364,37.28 92.206,35.718 91.645,34.232 C91.239,33.158 91.023,32.012 90.708,30.902 C90.034,28.519 89.062,26.248 88.135,23.956 C87.39,22.112 86.008,20.685 85.081,18.966 C84.735,18.321 84.299,17.72 83.872,17.122 C82.995,15.891 82.546,14.329 81.096,13.532 C80.944,13.449 80.875,13.222 80.759,13.069 C80.566,12.812 80.37,12.556 80.169,12.305 C79.688,11.709 79.207,11.114 78.72,10.523 C78.333,10.055 77.983,9.543 77.533,9.145 C76.914,8.596 76.171,8.184 75.561,7.628 C74.444,6.612 73.328,5.61 71.995,4.871 C71.465,4.577 70.962,4.215 70.498,3.824 C68.708,2.312 66.574,1.486 64.354,0.961 C62.579,0.542 60.733,0.427 58.917,0.181 C58.824,0.169 58.723,0.183 58.63,0.202 C57.434,0.442 56.232,0.657 55.047,0.943 C54.659,1.037 54.33,1.07 53.928,0.987 C53.507,0.9 52.97,0.873 52.612,1.062 C51.337,1.735 49.816,1.882 48.7,2.889 C48.592,2.986 48.397,2.981 48.252,3.046 C47.613,3.333 46.967,3.608 46.342,3.924 C44.889,4.656 43.684,5.825 42.103,6.337 C42.021,6.363 41.962,6.461 41.892,6.525 C41.199,7.149 40.479,7.744 39.821,8.402 C38.761,9.461 37.773,10.585 36.684,11.622 C35.345,12.897 34.143,14.329 33.284,16.012 C32.96,16.648 32.702,17.219 33.111,17.773 C32.537,19.012 31.969,20.159 31.473,21.335 C30.975,22.514 30.543,23.721 30.098,24.922 C30.014,25.147 30.064,25.435 29.949,25.635 C29.185,26.953 28.848,28.398 28.59,29.877 C28.437,30.761 28.222,31.636 28.021,32.512 C27.585,34.414 27.009,36.295 26.737,38.22 C26.443,40.307 25.854,42.341 25.783,44.475 C25.722,46.33 25.324,48.17 25.164,50.025 C25.005,51.876 24.962,53.737 24.856,55.592 C24.826,56.133 24.724,56.67 24.709,57.211 C24.684,58.158 24.702,59.105 24.702,60.111 C23.759,59.765 22.942,59.428 22.102,59.166 C21.339,58.929 20.559,58.68 19.77,58.604 C18.205,58.453 16.629,58.413 15.057,58.341 C14.808,58.329 14.539,58.343 14.308,58.425 C13.588,58.679 12.879,58.964 12.172,59.252 C11.713,59.439 11.254,59.633 10.815,59.862 C10.081,60.244 9.362,60.655 8.638,61.056 C8.387,61.194 8.1,61.296 7.894,61.484 C6.545,62.713 5.031,63.804 4.33,65.593 C4.213,65.889 4.159,66.251 3.954,66.464 C2.818,67.645 2.415,69.074 2.248,70.664 C2.161,71.5 1.675,72.288 1.459,73.12 C1.334,73.599 1.381,74.126 1.361,74.631 C1.346,75.015 1.44,75.43 1.326,75.779 C0.844,77.256 1.299,78.838 0.784,80.309 C0.717,80.5 0.824,80.751 0.847,80.974 C0.944,81.886 1.044,82.798 1.133,83.71 C1.231,84.728 1.302,85.749 1.415,86.766 C1.57,88.161 2.222,89.45 2.289,90.876 C2.317,91.464 2.588,92.041 2.754,92.622 C2.883,93.076 3.063,93.52 3.147,93.982 C3.327,94.976 3.432,95.983 3.624,96.973 C3.713,97.43 3.981,97.85 4.092,98.305 C4.394,99.543 4.692,100.776 5.405,101.866 C5.613,102.182 5.751,102.544 5.913,102.89 C6.71,104.588 7.226,106.415 8.286,107.992 C8.46,108.251 8.511,108.588 8.661,108.866 C9.039,109.567 9.469,110.24 9.828,110.95 C10.389,112.059 10.907,113.19 11.446,114.31 C11.556,114.538 11.685,114.757 11.799,114.983 C12.057,115.49 12.298,116.006 12.57,116.506 C12.862,117.044 13.277,117.535 13.467,118.104 C13.869,119.311 14.607,120.324 15.24,121.394 C15.927,122.553 16.783,123.612 17.444,124.783 C18.508,126.669 19.801,128.359 21.374,129.843 C21.467,129.93 21.537,130.042 21.619,130.141 C21.997,130.599 22.375,131.055 22.705,131.454 C23.181,131.36 23.516,131.293 23.88,131.221 C23.908,131.004 23.988,130.806 23.95,130.633 C23.583,129.001 24.052,127.306 23.533,125.677 C23.262,124.828 23.056,123.93 23.01,123.045 C22.904,120.959 22.006,118.984 22.191,116.859 C22.223,116.488 22.06,116.102 22.017,115.72 C21.93,114.955 21.815,114.188 21.802,113.421 C21.79,112.685 21.894,111.947 21.942,111.211 C22.005,110.25 22.006,109.281 22.138,108.33 C22.282,107.286 22.559,106.261 22.75,105.223 C22.931,104.238 23.108,103.217 23.728,102.434 C24.628,101.297 25.692,100.32 27.271,100.166 C27.704,100.125 28.247,100.05 28.521,99.774 C29.139,99.152 29.708,99.331 30.367,99.598 C32.624,100.513 34.89,101.405 37.276,101.949 C37.989,102.111 38.695,102.306 39.395,102.516 C40.028,102.706 40.638,102.978 41.277,103.143 C42.174,103.374 43.094,103.511 43.989,103.747 C44.481,103.876 45.147,103.992 45.373,104.344 C45.759,104.947 46.317,104.876 46.819,105.102 C47.274,104.341 47.91,104.727 48.463,104.835 C49.402,105.018 50.32,105.304 51.258,105.496 C52.069,105.661 52.899,105.733 53.713,105.884 C55.237,106.167 56.753,106.334 58.381,105.766 C58.455,107.15 58.526,108.475 58.597,109.806 C58.554,109.8 58.521,109.798 58.481,109.793 C58.592,110.103 58.636,110.419 58.597,110.756 C58.573,110.963 58.455,111.076 58.25,111.102 C57.943,111.142 57.634,111.148 57.324,111.15 C56.67,111.416 55.959,111.692 55.258,112 C54.708,112.241 54.112,112.445 53.647,112.807 C52.847,113.432 52.078,114.117 51.397,114.867 C50.559,115.79 49.822,116.804 49.05,117.786 C48.973,117.883 48.939,118.017 48.9,118.14 C48.454,119.533 47.998,120.924 47.573,122.323 C47.219,123.487 46.899,124.661 46.571,125.832 C46.495,126.105 46.408,126.383 46.393,126.661 C46.341,127.685 46.315,128.712 46.281,129.736 C46.265,130.247 46.241,130.758 46.244,131.268 C46.247,131.703 46.318,132.139 46.299,132.572 C46.266,133.304 46.01,134.072 46.165,134.754 C46.393,135.755 46.308,136.738 46.362,137.73 C46.421,138.816 46.407,139.912 46.816,140.953 C46.967,141.339 47.088,141.742 47.173,142.147 C47.437,143.401 47.65,144.666 47.941,145.914 C48.1,146.597 48.394,147.247 48.589,147.923 C48.777,148.571 48.882,149.243 49.083,149.886 C49.452,151.071 49.587,152.31 50.064,153.478 C50.519,154.591 50.71,155.81 51.108,156.95 C51.475,158.004 51.965,159.016 52.397,160.049 C52.782,160.966 53.152,161.889 53.545,162.803 C54.428,164.861 55.576,166.799 56.296,168.932 C56.572,169.75 56.971,170.526 57.253,171.342 C57.775,172.851 58.207,174.392 59.086,175.755 C59.51,176.411 59.774,177.119 59.83,177.92 C59.864,178.389 59.994,178.894 60.228,179.297 C60.672,180.059 60.964,180.838 61.031,181.724 C61.083,182.414 61.222,183.098 61.344,183.78 C61.441,184.332 62.007,184.733 62.634,184.713 C63.197,184.696 63.28,184.3 63.314,183.852 C63.328,183.664 63.384,183.473 63.449,183.293 C63.815,182.271 64.197,181.254 64.56,180.23 C65.214,178.382 65.806,176.51 66.522,174.686 C67.459,172.297 68.508,169.951 69.479,167.574 C70.753,164.454 72.053,161.342 73.242,158.188 C74.394,155.131 75.627,152.096 76.26,148.861 C76.561,147.32 77.097,145.826 77.485,144.299 C77.722,143.367 77.872,142.414 78.076,141.474 C78.307,140.407 78.583,139.351 78.79,138.28 C79.023,137.081 79.209,135.872 79.401,134.665 C79.531,133.843 79.699,133.019 79.733,132.191 C79.771,131.228 79.696,130.259 79.644,129.295 C79.584,128.178 79.555,127.054 79.399,125.948 C79.265,125.003 79.014,124.066 78.736,123.149 C78.448,122.201 78.154,121.235 77.7,120.361 C77.171,119.342 76.427,118.435 75.846,117.438 C75.064,116.096 73.848,115.193 72.694,114.235 C71.695,113.406 70.548,112.746 69.598,111.87 C69.073,111.385 68.606,111.266 67.975,111.369 C67.838,111.392 67.686,111.317 67.527,111.284 C67.527,110.695 67.521,110.15 67.529,109.607 C67.537,109.06 67.551,108.513 67.578,107.967 C67.61,107.312 68.111,106.732 68.667,106.697 C69.037,106.673 69.409,106.661 69.78,106.652 C71.754,106.607 73.725,106.546 75.651,106.026 C75.882,105.964 76.183,105.992 76.402,106.089 C76.926,106.319 77.374,106.37 77.794,105.889 C77.904,105.763 78.118,105.709 78.294,105.663 C80.008,105.218 81.728,104.794 83.439,104.339 C84.244,104.124 85.035,103.851 85.833,103.608 C86.781,103.32 87.769,103.122 88.672,102.728 C90.231,102.052 91.78,101.33 93.249,100.481 C94.15,99.962 95.117,99.511 95.829,98.652 C96.324,98.054 97.059,97.654 97.609,97.226 C98.269,97.451 98.803,97.678 99.36,97.817 C101.548,98.361 103.11,99.799 104.361,101.528 C105.913,103.675 106.936,106.091 107.612,108.676 C108.029,110.273 108.345,111.817 108.325,113.495 C108.309,114.933 108.105,116.324 107.815,117.689 C107.477,119.29 106.731,120.771 105.882,122.188 C105.679,122.528 105.583,122.96 105.539,123.361 C105.492,123.787 105.921,124.395 106.341,124.42 C106.94,124.455 107.637,124.94 108.139,124.255 C108.418,123.877 108.735,123.418 108.755,122.982 C108.802,121.937 109.11,120.966 109.33,119.964 C109.561,118.915 109.848,117.919 110.482,117.033 C110.722,116.697 110.895,116.302 111.045,115.914 C111.774,114.028 112.441,112.116 113.217,110.249 C113.795,108.857 114.547,107.537 115.147,106.153 C116.056,104.059 116.907,101.941 117.768,99.827 C118.047,99.143 118.389,98.462 118.515,97.746 C118.879,95.686 119.703,93.752 120.032,91.672 C120.402,89.332 121.149,87.061 121.505,84.702 C121.835,82.509 121.963,80.309 121.906,78.105 Z M48.472,4.77 C49.886,4.272 51.187,3.52 52.695,3.211 C54.544,2.832 56.389,2.474 58.266,2.286 C58.678,2.245 59.11,2.197 59.509,2.274 C61.084,2.58 62.672,2.746 64.27,2.868 C64.669,2.899 65.052,3.132 65.443,3.27 C67.194,3.885 68.888,4.604 70.355,5.943 C69.873,6.472 69.273,6.819 68.653,7.098 C67.129,7.781 65.605,8.424 63.895,8.594 C62.757,8.706 61.655,9.143 60.527,9.389 C58.411,9.851 56.278,9.932 54.122,9.655 C53.476,9.572 52.812,9.523 52.165,9.489 C50.319,9.392 48.656,8.698 46.96,8.105 C46.36,7.895 45.795,7.585 45.222,7.304 C45.091,7.24 44.994,7.105 44.877,6.999 C45.99,6.058 47.131,5.241 48.472,4.77 Z M27.624,42.742 C28.078,39.928 28.598,37.126 29.11,34.322 C29.196,33.851 29.394,33.401 29.504,32.934 C29.833,31.53 30.058,30.096 30.481,28.723 C31.265,26.181 32.066,23.637 33.355,21.288 C33.955,20.191 34.579,19.107 35.169,18.005 C35.357,17.653 35.619,17.313 35.43,16.837 C35.366,16.675 35.471,16.35 35.611,16.22 C36.363,15.52 36.664,14.504 37.419,13.794 C38.14,13.116 38.74,12.31 39.396,11.562 C39.82,11.078 40.221,10.57 40.68,10.123 C41.388,9.433 42.138,8.786 42.95,8.048 C43.348,8.25 43.681,8.436 44.026,8.593 C45.394,9.215 46.726,9.956 48.149,10.408 C49.635,10.88 51.199,11.24 52.75,11.344 C55.462,11.526 58.192,11.809 60.904,11.198 C62.024,10.946 63.181,10.862 64.299,10.605 C64.911,10.465 65.499,10.213 66.114,10.042 C67.91,9.543 69.618,8.797 71.248,7.884 C71.607,7.683 71.982,7.511 72.395,7.302 C74.695,8.799 76.681,10.697 78.538,12.735 C79.399,13.679 80.202,14.676 81.033,15.649 C81.261,15.917 81.52,16.163 81.717,16.452 C82.14,17.074 82.447,17.733 83.049,18.281 C83.634,18.814 84.03,19.644 84.285,20.465 C84.349,20.672 84.441,20.879 84.559,21.061 C85.165,21.987 85.862,22.865 86.374,23.839 C86.932,24.898 87.343,26.038 87.78,27.157 C88.059,27.871 88.278,28.609 88.509,29.34 C88.779,30.196 89.031,31.057 89.296,31.914 C89.692,33.199 90.105,34.48 90.485,35.77 C90.656,36.349 90.776,36.943 90.9,37.535 C91.275,39.309 91.645,41.085 92.001,42.864 C92.056,43.14 91.965,43.45 92.043,43.715 C92.191,44.214 92.641,44.687 92.088,45.196 C91.704,45.55 91.635,46.184 90.978,46.315 C90.69,46.373 90.425,46.639 90.19,46.853 C88.585,48.329 86.785,49.484 84.76,50.312 C83.813,50.699 82.929,51.24 82,51.677 C81.567,51.881 81.095,52.003 80.64,52.163 C79.579,52.538 78.534,52.966 77.455,53.277 C74.982,53.989 72.463,54.494 69.902,54.779 C68.79,54.902 67.678,55.032 66.564,55.126 C66.117,55.164 65.662,55.105 65.211,55.11 C64.638,55.116 64.048,55.061 63.497,55.178 C62.369,55.417 61.261,55.356 60.132,55.234 C59.343,55.148 58.528,55.132 57.742,55.226 C56.767,55.343 55.818,55.263 54.857,55.16 C53.574,55.022 52.279,54.967 51.006,54.771 C48.468,54.383 45.949,53.88 43.41,53.51 C41.615,53.248 39.927,52.635 38.2,52.145 C37.275,51.883 36.337,51.663 35.407,51.414 C32.849,50.73 30.535,49.63 28.721,47.622 C28.348,47.209 27.814,46.94 27.231,46.515 C27.349,45.344 27.415,44.031 27.624,42.742 Z M25.041,98.65 C24.234,99.04 23.584,99.592 22.967,100.293 C21.913,101.488 21.404,102.813 21.194,104.341 C20.988,105.836 20.658,107.313 20.463,108.809 C20.338,109.761 20.133,110.792 20.37,111.68 C20.721,112.994 20.214,114.236 20.41,115.53 C20.722,117.585 20.884,119.659 21.261,121.712 C21.601,123.569 21.744,125.463 21.966,127.341 C21.984,127.494 21.945,127.653 21.915,128.027 C21.282,127.339 20.706,126.815 20.254,126.201 C19.19,124.753 18.156,123.281 17.167,121.781 C16.638,120.979 16.219,120.103 15.765,119.254 C14.658,117.188 13.559,115.117 12.457,113.048 C12.412,112.961 12.354,112.88 12.326,112.788 C11.578,110.331 10.003,108.277 8.973,105.955 C8.194,104.198 7.222,102.523 6.51,100.742 C5.881,99.17 5.448,97.515 5.012,95.874 C4.492,93.918 4.062,91.939 3.595,89.969 C2.929,87.163 2.404,84.344 2.414,81.437 C2.422,79.114 2.385,76.782 2.782,74.498 C3.09,72.736 3.589,70.986 4.206,69.304 C4.665,68.053 5.385,66.88 6.105,65.746 C6.921,64.461 7.987,63.363 9.346,62.639 C10.846,61.84 12.377,61.093 13.933,60.41 C14.47,60.174 15.121,60.123 15.72,60.123 C16.603,60.123 17.486,60.247 18.37,60.314 C18.529,60.326 18.69,60.33 18.848,60.318 C19.899,60.233 20.877,60.483 21.833,60.906 C22.758,61.315 23.703,61.679 24.639,62.062 C24.598,63.473 24.353,64.726 24.643,65.983 C24.664,66.073 24.671,66.184 24.637,66.267 C24.231,67.25 24.61,68.242 24.634,69.222 C24.673,70.815 24.87,72.404 24.981,73.996 C25.01,74.405 24.991,74.82 24.96,75.23 C24.831,76.926 25.256,78.59 25.25,80.279 C25.248,80.72 25.309,81.129 24.871,81.491 C24.546,81.76 24.513,82.223 24.907,82.588 C25.283,82.936 25.412,83.374 25.414,83.892 C25.417,85.151 25.652,86.378 25.938,87.605 C26.132,88.44 26.075,89.329 26.239,90.174 C26.492,91.472 26.603,92.763 26.609,94.09 C26.614,95.092 26.955,96.092 27.137,97.094 C27.177,97.311 27.175,97.535 27.193,97.755 C26.449,98.06 25.726,98.318 25.041,98.65 Z M28.804,97.627 C28.636,97.558 28.49,97.283 28.448,97.08 C28.319,96.454 28.198,95.82 28.161,95.185 C28.108,94.258 28.148,93.326 28.118,92.399 C28.102,91.888 28.049,91.376 27.97,90.872 C27.717,89.269 27.444,87.671 27.158,85.95 C27.458,85.998 27.645,85.971 27.733,86.051 C28.878,87.084 30.264,87.707 31.628,88.371 C32.05,88.576 32.39,88.855 32.416,89.366 C32.502,91.051 32.611,92.734 32.653,94.419 C32.679,95.434 32.574,96.452 32.578,97.468 C32.581,97.988 32.696,98.509 32.775,99.152 C31.348,98.61 30.067,98.14 28.804,97.627 Z M45.429,102.595 C42.522,102.151 39.879,101.387 37.283,100.424 C36.48,100.126 35.595,100.054 34.748,99.871 C34.502,99.817 34.263,99.734 33.897,99.629 C33.991,99.196 34.089,98.806 34.159,98.412 C34.248,97.912 34.352,97.411 34.383,96.906 C34.422,96.265 34.428,95.619 34.389,94.978 C34.302,93.57 34.174,92.164 34.072,90.757 C34.051,90.475 34.069,90.192 34.069,89.785 C35.088,90.02 36.009,90.24 36.934,90.443 C39.256,90.951 41.58,91.455 43.905,91.952 C44.892,92.164 44.991,92.238 45.055,93.269 C45.141,94.645 45.174,96.024 45.262,97.399 C45.349,98.77 45.491,100.137 45.576,101.509 C45.597,101.843 45.488,102.186 45.429,102.595 Z M47.448,103.113 C46.722,99.6 46.99,96.078 46.671,92.45 C48.635,92.669 50.491,92.873 52.347,93.083 C54.179,93.291 56.049,93.205 57.955,93.707 C57.951,97.222 58.168,100.679 58.247,104.202 C54.555,104.739 51.049,103.961 47.448,103.113 Z M68.909,113.471 C69.006,113.443 69.169,113.61 69.288,113.704 C69.94,114.213 70.588,114.726 71.239,115.238 C71.264,115.257 71.296,115.269 71.321,115.289 C73.927,117.374 75.976,119.845 77.034,123.082 C77.553,124.673 77.91,126.286 78.15,127.931 C78.194,128.236 78.1,128.558 78.108,128.87 C78.132,129.818 78.292,130.779 78.186,131.71 C77.977,133.54 77.65,135.359 77.324,137.174 C77.029,138.813 76.655,140.438 76.345,142.075 C76.228,142.695 76.243,143.343 76.102,143.956 C76.005,144.378 75.736,144.759 75.555,145.163 C75.373,145.565 75.114,145.959 75.049,146.381 C74.823,147.84 74.384,149.25 74.098,150.685 C73.807,152.148 73.26,153.5 72.779,154.882 C72.254,156.39 71.597,157.853 70.996,159.335 C70.568,160.393 70.139,161.451 69.71,162.508 C69.625,162.717 69.512,162.917 69.458,163.132 C69.117,164.508 68.517,165.767 67.827,167.002 C67.47,167.639 67.302,168.378 67.023,169.061 C66.685,169.892 66.312,170.709 65.968,171.539 C65.515,172.631 65.082,173.732 64.627,174.824 C64.269,175.679 63.871,176.518 63.531,177.38 C63.343,177.852 63.27,178.368 63.088,178.843 C62.971,179.147 62.75,179.41 62.575,179.692 C62.483,179.67 62.389,179.647 62.297,179.625 C61.924,178.635 61.55,177.646 61.179,176.655 C61.033,176.265 60.962,175.827 60.739,175.488 C59.91,174.233 59.676,172.741 59.051,171.417 C58.332,169.895 57.91,168.282 57.325,166.72 C57.046,165.977 56.571,165.309 56.231,164.585 C55.656,163.366 55.119,162.128 54.564,160.899 C54.103,159.883 53.598,158.886 53.187,157.85 C52.749,156.748 52.387,155.615 52.017,154.487 C51.546,153.052 51.049,151.623 50.656,150.166 C50.203,148.493 49.845,146.795 49.458,145.105 C49.042,143.292 48.6,141.484 48.244,139.658 C48.019,138.5 47.887,137.32 47.794,136.143 C47.718,135.186 47.727,134.218 47.763,133.259 C47.813,131.943 47.907,130.629 48.013,129.316 C48.096,128.294 48.164,127.263 48.35,126.257 C48.874,123.413 49.5,120.588 50.979,118.052 C51.347,117.422 51.839,116.845 52.356,116.326 C53.377,115.301 54.487,114.324 55.848,113.823 C56.745,113.493 57.652,112.982 58.719,113.111 C59.212,116.261 59.563,119.411 59.881,122.477 C59.517,122.763 59.25,122.974 58.983,123.184 C58.882,123.263 58.794,123.384 58.68,123.415 C57.373,123.772 56.864,124.819 56.452,125.95 C56.365,126.192 56.368,126.486 56.229,126.685 C55.47,127.768 55.672,128.972 55.711,130.168 C55.744,131.185 55.717,132.204 55.722,133.222 C55.723,133.447 55.7,133.686 55.765,133.894 C56.223,135.368 56.326,136.902 56.572,138.412 C56.638,138.822 56.752,139.234 56.91,139.618 C57.385,140.769 57.726,141.952 58.009,143.167 C58.566,145.557 59.41,147.87 60.054,150.238 C60.354,151.342 60.778,152.377 61.216,153.425 C61.432,153.945 61.311,154.603 61.355,155.198 C61.377,155.484 61.4,155.777 61.474,156.052 C61.646,156.692 62.133,156.944 62.776,157.01 C63.173,156.642 63.289,156.174 63.27,155.632 C63.257,155.283 63.29,154.92 63.375,154.582 C63.894,152.509 64.21,150.389 65.193,148.436 C65.646,147.535 65.748,146.462 66.041,145.477 C66.479,144.003 67.038,142.577 67.65,141.162 C68.102,140.115 68.245,138.936 68.525,137.815 C68.587,137.566 68.597,137.292 68.71,137.069 C69.257,135.999 69.248,134.84 69.327,133.686 C69.388,132.802 69.64,131.926 69.643,131.045 C69.651,129.156 69.595,127.26 68.496,125.591 C68.151,125.067 68.149,124.363 67.637,123.925 C67.229,123.575 66.858,123.144 66.388,122.915 C65.851,122.654 65.848,122.298 65.874,121.819 C65.953,120.4 66.23,119.02 66.547,117.639 C66.761,116.704 66.822,115.735 66.949,114.781 C67.034,114.149 67.114,113.516 67.21,112.778 C67.748,113.206 68.2,113.673 68.909,113.471 Z M60.267,125.093 C60.418,125.844 60.555,126.596 60.724,127.341 C60.945,128.323 61.201,129.297 61.426,130.278 C61.611,131.088 61.822,131.898 61.922,132.72 C61.975,133.154 62.143,133.446 62.458,133.691 C63.135,134.22 63.688,134.045 63.867,133.215 C64.036,132.434 64.128,131.636 64.285,130.853 C64.686,128.871 65.103,126.894 65.517,124.916 C65.536,124.828 65.595,124.749 65.659,124.616 C66.327,125.528 67.121,126.27 67.513,127.349 C68.047,128.814 68.341,130.259 67.998,131.81 C67.882,132.336 67.989,132.909 67.881,133.438 C67.637,134.63 67.325,135.808 67.035,136.991 C66.695,138.381 66.351,139.77 66.001,141.157 C65.963,141.309 65.878,141.45 65.814,141.596 C65.427,142.472 64.99,143.331 64.666,144.23 C64.453,144.824 64.411,145.479 64.275,146.102 C64.134,146.755 64.152,147.548 63.775,148.02 C63.225,148.708 63.079,149.516 62.72,150.251 C62.533,150.634 62.458,151.071 62.17,151.467 C61.698,149.954 61.228,148.441 60.753,146.929 C60.639,146.565 60.549,146.187 60.384,145.845 C59.86,144.765 59.709,143.585 59.4,142.445 C59.066,141.214 58.589,140.019 58.297,138.779 C57.954,137.316 57.709,135.825 57.482,134.337 C57.328,133.326 57.235,132.302 57.195,131.281 C57.162,130.451 57.221,129.614 57.291,128.785 C57.375,127.798 57.561,126.833 58.088,125.96 C58.571,125.159 59.129,124.889 60.267,125.093 Z M67.844,90.78 C67.748,91.926 67.548,93.063 67.429,94.209 C67.336,95.089 67.303,95.975 67.236,96.858 C67.113,98.447 67.111,100.059 66.82,101.618 C66.573,102.946 66.582,104.274 66.441,105.597 C66.324,106.697 66.083,107.783 65.92,108.879 C65.864,109.254 65.893,109.641 65.853,110.019 C65.731,111.187 65.682,112.373 65.441,113.517 C65.086,115.202 65.122,116.939 64.62,118.608 C64.339,119.545 64.321,120.564 64.199,121.547 C64.088,122.435 64.033,123.332 63.887,124.215 C63.794,124.779 63.556,125.319 63.43,125.88 C63.346,126.25 63.34,126.638 63.306,127.018 C63.262,127.512 63.269,128.023 62.801,128.564 C62.379,126.604 61.928,124.817 61.623,123.006 C61.289,121.02 61.088,119.011 60.833,117.011 C60.655,115.613 60.43,114.218 60.32,112.814 C60.158,110.764 60.07,108.708 59.969,106.653 C59.839,104.021 59.72,101.388 59.611,98.755 C59.503,96.132 59.446,93.506 59.303,90.885 C59.234,89.609 58.967,88.344 58.88,87.069 C58.659,83.838 58.541,80.605 58.536,77.363 C58.533,75.231 58.946,73.159 59.132,71.059 C59.213,70.149 59.556,69.242 59.898,68.381 C60.465,66.951 61.683,66.245 63.082,65.802 C63.356,65.715 63.64,65.664 63.885,65.604 C65.073,66.111 66.084,66.771 66.843,67.842 C67.572,68.87 67.999,69.962 68.116,71.196 C68.141,71.451 68.116,71.742 68.23,71.952 C69.097,73.535 68.816,75.263 68.899,76.944 C68.93,77.549 68.913,78.156 68.908,78.762 C68.9,79.766 68.889,80.77 68.869,81.773 C68.864,82.06 68.845,82.35 68.798,82.632 C68.534,84.232 68.207,85.825 68.006,87.433 C67.867,88.538 67.938,89.668 67.844,90.78 Z M75.867,104.387 C75.504,104.501 75.109,104.523 74.727,104.572 C73.71,104.703 72.694,104.854 71.673,104.943 C71.266,104.979 70.848,104.866 70.434,104.833 C69.84,104.787 69.246,104.753 68.645,104.779 C68.176,104.651 68.082,104.289 68.133,103.826 C68.346,101.819 68.556,99.812 68.746,97.803 C68.842,96.793 68.872,95.777 68.97,94.767 C69.021,94.228 69.153,93.697 69.259,93.099 C71.263,92.836 73.222,92.578 75.176,92.322 C75.492,92.927 75.589,93.486 75.58,94.124 C75.568,95.107 75.728,96.093 75.819,97.078 C75.922,98.189 76.06,99.299 76.126,100.414 C76.195,101.581 76.211,102.753 76.212,103.923 C76.212,104.085 76.021,104.339 75.867,104.387 Z M75.197,90.669 C73.385,90.896 71.569,91.092 69.754,91.291 C69.637,91.303 69.51,91.227 69.316,91.17 C69.316,90.827 69.291,90.476 69.32,90.129 C69.502,87.957 69.581,85.769 69.913,83.619 C70.369,80.67 70.33,77.726 70.196,74.77 C70.156,73.904 70.102,73.039 70.048,72.175 C70.019,71.704 69.966,71.28 69.661,70.841 C69.393,70.454 69.437,69.856 69.317,69.359 C68.719,66.884 67.348,65.08 64.857,64.239 C64.576,64.145 64.33,63.95 63.943,63.729 C63.805,63.76 63.503,63.848 63.195,63.897 C60.852,64.268 59.252,65.506 58.533,67.81 C58.211,68.844 57.726,69.826 57.591,70.92 C57.529,71.423 57.398,71.918 57.324,72.419 C57.211,73.179 57.058,73.94 57.033,74.703 C56.981,76.271 56.961,77.842 57.003,79.41 C57.079,82.275 57.187,85.14 57.331,88.003 C57.374,88.858 57.594,89.703 57.709,90.557 C57.765,90.968 57.765,91.386 57.792,91.855 C57.504,91.915 57.208,92.079 57.029,91.995 C56.19,91.607 55.323,91.802 54.465,91.764 C53.604,91.726 52.749,91.585 51.89,91.49 C50.879,91.377 49.866,91.281 48.858,91.146 C48.19,91.057 47.533,90.901 46.867,90.795 C45.667,90.603 44.463,90.427 43.261,90.243 C43.071,90.214 42.882,90.182 42.693,90.148 C41.431,89.915 40.17,89.68 38.908,89.446 C38.751,89.417 38.584,89.409 38.438,89.35 C36.774,88.686 35.12,87.994 33.447,87.352 C32.115,86.84 30.928,86.099 29.827,85.215 C29.104,84.634 28.365,84.052 27.747,83.367 C27.384,82.965 27.108,82.379 27.034,81.844 C26.819,80.284 26.685,78.709 26.595,77.136 C26.454,74.709 26.385,72.279 26.267,69.85 C26.217,68.801 26.04,67.753 26.063,66.707 C26.123,64.112 26.271,61.519 26.369,58.925 C26.389,58.412 26.311,57.894 26.337,57.381 C26.457,55.038 26.589,52.696 26.737,50.356 C26.769,49.849 26.884,49.348 26.975,48.756 C27.801,49.47 28.393,50.241 29.338,50.596 C29.718,50.738 30.025,51.061 30.393,51.252 C32.33,52.256 34.375,52.927 36.537,53.278 C37.286,53.4 38.042,53.644 38.724,53.976 C39.882,54.538 41.127,54.682 42.358,54.904 C44.536,55.295 46.718,55.669 48.903,56.024 C50.545,56.29 52.187,56.622 53.842,56.734 C57.148,56.958 60.46,56.926 63.772,56.718 C64.882,56.648 65.998,56.709 67.111,56.672 C67.655,56.654 68.197,56.549 68.739,56.481 C69.28,56.414 69.82,56.339 70.361,56.275 C70.833,56.22 71.314,56.212 71.778,56.12 C73.311,55.817 74.832,55.448 76.369,55.174 C78.297,54.831 80.104,54.101 81.942,53.489 C83.329,53.027 84.671,52.386 85.882,51.528 C85.984,51.455 86.116,51.419 86.238,51.382 C87.877,50.881 89.275,49.964 90.603,48.908 C91.064,48.541 91.627,48.304 92.137,47.996 C92.272,47.916 92.384,47.797 92.584,47.631 C92.952,48.741 93.302,49.8 93.22,50.973 C93.184,51.47 93.327,51.978 93.374,52.483 C93.513,53.98 93.632,55.48 93.784,56.975 C93.879,57.902 94.027,58.823 94.138,59.749 C94.191,60.186 94.286,60.636 94.237,61.066 C94.071,62.525 94.303,63.948 94.516,65.38 C94.605,65.979 94.605,66.59 94.669,67.194 C94.869,69.069 95.101,70.941 95.277,72.818 C95.361,73.714 95.34,74.62 95.376,75.521 C95.419,76.613 95.45,77.707 95.53,78.797 C95.585,79.533 95.727,80.262 95.806,80.996 C95.875,81.63 95.91,82.266 95.965,82.981 C95.262,82.951 94.798,83.217 94.378,83.657 C93.324,84.76 92.053,85.573 90.697,86.261 C90.096,86.566 89.529,86.944 88.913,87.212 C87.531,87.813 86.132,88.377 84.732,88.934 C83.991,89.229 83.25,89.591 82.476,89.718 C81.364,89.9 80.24,90.047 79.108,90.13 C77.797,90.224 76.503,90.506 75.197,90.669 Z M87.295,101.641 C84.303,102.604 81.245,103.327 78.119,104.018 C78.09,99.965 77.157,96.128 77.202,92.131 C78.843,91.871 80.448,91.58 82.065,91.374 C83.677,91.17 85.111,90.417 86.729,89.863 C87.078,93.855 87.521,97.71 87.295,101.641 Z M96.816,95.281 C95.727,96.318 94.903,97.669 93.471,98.443 C92.128,99.169 90.904,100.114 89.341,100.604 C89.287,100.27 89.209,99.94 89.183,99.605 C88.945,96.534 88.692,93.465 88.495,90.391 C88.422,89.23 88.502,89.26 89.581,88.785 C90.904,88.202 92.128,87.441 93.291,86.579 C94.207,85.9 95.146,85.249 96.31,84.417 C96.346,85.371 96.378,86.093 96.398,86.814 C96.414,87.386 96.402,87.959 96.426,88.531 C96.477,89.748 96.545,90.965 96.606,92.182 C96.613,92.343 96.561,92.53 96.625,92.661 C97.042,93.505 96.988,94.384 96.816,95.281 Z M120.037,82.359 C119.806,84.076 119.401,85.763 119.176,87.466 C118.926,89.365 118.228,91.145 118.002,93.039 C117.892,93.949 117.466,94.816 117.27,95.72 C116.976,97.071 116.432,98.321 115.958,99.608 C115.216,101.625 114.247,103.529 113.384,105.485 C112.819,106.765 112.317,108.072 111.774,109.364 C111.297,110.498 110.804,111.626 110.318,112.757 C110.253,112.746 110.187,112.735 110.121,112.724 C110.086,112.493 110.029,112.263 110.02,112.032 C109.966,110.634 109.546,109.325 109.073,108.027 C108.535,106.552 107.974,105.085 107.455,103.602 C106.599,101.159 105.084,99.197 103.021,97.678 C101.967,96.901 100.732,96.405 99.467,96.043 C99.054,95.925 98.726,95.756 98.647,95.341 C98.427,94.177 98.228,93.007 98.064,91.833 C98.017,91.496 98.159,91.137 98.148,90.789 C98.066,88.414 98.03,86.035 97.854,83.666 C97.72,81.875 97.347,80.103 97.177,78.312 C97.008,76.524 96.991,74.72 96.845,72.928 C96.741,71.654 96.503,70.391 96.378,69.118 C96.249,67.809 96.191,66.495 96.09,65.183 C96.024,64.324 95.933,63.466 95.845,62.514 C97.028,61.956 98.059,61.339 99.175,60.981 C100.167,60.663 101.249,60.529 102.297,60.499 C103.481,60.464 104.67,60.692 105.859,60.702 C107.368,60.714 108.759,61.246 110.194,61.565 C111.226,61.795 112.146,62.347 113.095,62.831 C114.3,63.442 115.159,64.443 116.259,65.15 C116.413,65.25 116.555,65.404 116.644,65.566 C117.315,66.787 118.002,68 118.617,69.248 C118.911,69.843 119.109,70.498 119.259,71.147 C119.512,72.239 119.742,73.34 119.894,74.45 C120.254,77.077 120.394,79.706 120.037,82.359 Z" id="Shape" fill="#30419A" fill-rule="nonzero"/>
          <path d="M32.733,54.84 C32.671,55.572 32.025,55.741 31.525,55.849 C31.236,55.911 30.801,55.54 30.509,55.277 C30.218,55.014 30.218,54.328 30.414,54.04 C30.604,53.759 31.126,53.757 31.617,53.901 C32.151,54.057 32.484,54.382 32.733,54.84 Z" id="Shape" fill="#30419A"/>
          <path d="M50.211,58.514 C50.437,59.571 50.328,60.015 49.81,60.247 C49.293,60.477 48.636,60.402 48.393,60.084 C48.115,59.72 48.142,58.991 48.45,58.57 C48.79,58.106 49.234,58.086 50.211,58.514 Z" id="Shape" fill="#30419A"/>
          <path d="M72.537,59.738 C72.775,59.202 72.991,58.719 73.227,58.187 C73.922,58.467 74.698,58.417 74.863,59.281 C74.944,59.707 74.562,60.308 74.07,60.498 C73.368,60.768 73.035,60.208 72.537,59.738 Z" id="Shape" fill="#30419A"/>
          <path d="M90.852,53.857 C90.768,54.115 90.69,54.322 90.634,54.535 C90.523,54.961 90.396,55.307 89.818,55.249 C89.07,55.173 88.817,55.041 88.636,54.504 C88.513,54.14 88.455,53.74 88.833,53.57 C89.211,53.401 89.668,53.333 90.084,53.353 C90.32,53.365 90.543,53.643 90.852,53.857 Z" id="Shape" fill="#30419A"/>
          <g id="Group-2" transform="translate(46.000000, 17.000000)">
            <polyline id="Shape" fill="#EF463C" points="15.567 2.005 7.25 3.003 3.261 6.794 2.2 11.185 2.2 16.972 4.323 22.061 9.85 26.751 14.85 28.647 23.25 27.15 28.15 22.959 29.35 15.326 28.15 10.087 24.55 5.999 19.55 3.202 15.567 2.005"/>
            <polyline id="Shape" fill="#FFFFFF" points="15.961 7.394 10.65 8.092 7.95 11.585 7.95 16.674 10.65 20.865 15.961 22.561 21.95 21.164 23.95 18.769 23.95 15.031 22.05 10.886 18.95 8.092 15.961 7.394"/>
            <path d="M13.99,0.908 C15.594,1.158 17.154,1.253 18.624,1.668 C20.462,2.186 22.247,2.878 23.804,4.096 C24.891,4.947 25.967,5.801 26.973,6.744 C27.589,7.322 27.986,8.03 28.392,8.775 C29.185,10.234 29.665,11.768 30.029,13.368 C30.212,14.166 30.237,14.936 30.168,15.748 C30.084,16.738 30.173,17.74 30.162,18.737 C30.144,20.475 29.694,22.14 28.874,23.636 C28.052,25.133 26.821,26.332 25.292,27.171 C24.412,27.654 23.556,28.195 22.638,28.587 C21.648,29.008 20.647,29.41 19.522,29.46 C18.438,29.507 17.362,29.737 16.283,29.885 C16.124,29.907 15.953,29.965 15.807,29.93 C14.084,29.506 12.223,29.373 10.759,28.312 C9.709,27.551 8.458,27.164 7.478,26.34 C6.254,25.311 5.029,24.276 4.175,22.882 C3.693,22.094 3.18,21.315 2.599,20.599 C1.701,19.493 1.399,18.149 0.947,16.86 C0.927,16.803 0.927,16.73 0.942,16.671 C1.253,15.433 0.846,14.179 1.011,12.948 C1.16,11.844 1.413,10.751 1.676,9.666 C1.925,8.641 2.292,7.643 2.517,6.614 C2.638,6.063 2.863,5.631 3.222,5.21 C3.594,4.774 3.824,4.212 4.216,3.799 C5.036,2.939 5.984,2.127 7.166,1.965 C8.028,1.847 8.834,1.555 9.684,1.444 C11.141,1.253 12.599,1.081 13.99,0.908 Z M28.51,16.864 C28.692,14.916 28.263,13.038 27.692,11.24 C27.299,9.997 26.723,8.727 25.596,7.876 C25.392,7.722 25.122,7.642 24.948,7.464 C23.961,6.457 22.886,5.578 21.58,5.004 C20.708,4.621 19.9,4.118 18.912,3.984 C17.842,3.84 16.795,3.531 15.732,3.322 C15.263,3.229 14.775,3.133 14.303,3.16 C12.456,3.268 10.64,3.737 8.772,3.625 C8.66,3.618 8.54,3.71 8.426,3.761 C8.106,3.902 7.793,4.06 7.468,4.187 C5.809,4.833 4.507,5.816 4.095,7.667 C4.033,7.946 3.917,8.212 3.847,8.49 C3.592,9.507 3.368,10.532 3.09,11.543 C2.819,12.534 2.794,13.551 2.66,14.557 C2.516,15.641 2.557,16.678 2.983,17.654 C3.494,18.826 4.057,19.987 4.73,21.071 C5.211,21.845 5.849,22.553 6.531,23.164 C7.334,23.884 8.246,24.486 9.133,25.108 C10.525,26.083 11.93,27.041 13.693,27.238 C13.909,27.262 14.107,27.417 14.324,27.474 C14.624,27.554 14.934,27.652 15.239,27.646 C15.841,27.633 16.45,27.469 17.043,27.52 C18.732,27.665 20.267,27.133 21.744,26.46 C22.838,25.962 23.882,25.33 24.881,24.659 C25.809,24.035 26.927,23.543 27.194,22.263 C27.199,22.236 27.237,22.217 27.258,22.192 C27.811,21.57 28.061,20.833 28.139,20.012 C28.239,18.96 28.384,17.913 28.51,16.864 Z" id="Shape" fill="#30419A" fill-rule="nonzero"/>
            <path d="M17.03,24.065 C15.49,23.969 14.274,23.881 13.161,23.287 C13.02,23.212 12.867,23.133 12.711,23.113 C11.575,22.965 10.587,22.343 9.898,21.589 C8.895,20.491 7.606,19.613 7.188,17.962 C6.747,16.221 6.583,14.558 6.885,12.784 C7.13,11.342 7.559,10.005 8.257,8.733 C8.624,8.064 9.091,7.543 9.852,7.311 C10.155,7.219 10.421,7.013 10.711,6.875 C10.941,6.764 11.185,6.585 11.417,6.594 C12.183,6.626 12.863,6.332 13.57,6.13 C13.782,6.069 14.006,6.024 14.226,6.012 C16.118,5.906 17.834,6.46 19.422,7.446 C20.075,7.851 20.693,8.31 21.329,8.744 C22.592,9.605 23.385,10.842 24.046,12.174 C24.739,13.571 25.187,15.046 25.191,16.614 C25.195,18.27 24.709,19.769 23.576,21.021 C23.3,21.326 23.041,21.646 22.757,21.943 C21.981,22.755 21.075,23.317 19.919,23.423 C19.57,23.456 19.23,23.583 18.884,23.66 C18.171,23.817 17.457,23.971 17.03,24.065 Z M23.487,16.678 C23.411,15.856 23.471,15.082 23.243,14.405 C22.982,13.633 22.506,12.921 22.048,12.234 C21.662,11.653 21.233,11.066 20.703,10.625 C20.07,10.1 19.333,9.685 18.602,9.295 C17.348,8.627 16.039,8.114 14.567,8.311 C13.964,8.392 13.329,8.388 12.77,8.589 C12.405,8.719 12.081,8.849 11.682,8.865 C11.015,8.89 10.471,9.21 10.016,9.711 C9.083,10.736 8.64,11.967 8.403,13.302 C8.163,14.653 8.295,15.969 8.773,17.243 C9.449,19.041 10.827,20.191 12.516,20.949 C13.436,21.362 14.452,21.564 15.428,21.848 C15.542,21.881 15.684,21.806 15.807,21.822 C16.653,21.937 17.433,21.659 18.245,21.494 C19.641,21.209 20.91,20.813 21.999,19.785 C22.961,18.876 23.361,17.824 23.487,16.678 Z" id="Shape" fill="#30419A" fill-rule="nonzero"/>
          </g>
        </g>
        <g id="Group" transform="translate(0.000000, 53.000000)">
          <g id="Group-5" transform="translate(20.000000, 73.000000)">
            <path d="M21.25,4.265 L18.15,9.354 L16.45,13.245 L14.575,16.863 L10.862,22.363 L4.825,27.677 C4.825,27.677 2.162,32.018 2.162,32.13 C2.162,32.243 2.162,36.059 2.162,36.059 L4.675,38.566 L8.05,39.501 L11.5,38.716 L14.5,40.848 L17.537,41.784 L21.55,41.784 L24.175,38.903 L24.925,35.348 L24.588,32.504 L23.501,30.857 L22.713,30.371 L24.626,29.623 L25.301,28.612 L25.864,25.095 L25.227,22.363 L24.364,20.231 L23.277,18.771 L22.302,17.162 L21.739,14.205 L22.076,3.865 L21.25,4.265 Z" id="Shape" fill="#FFFFFF"/>
            <path d="M11.056,39.661 C10.016,40.591 8.756,40.47 7.569,40.174 C6.261,39.849 4.975,39.375 3.744,38.822 C1.658,37.887 0.51,35.28 1.055,33.058 C1.631,30.705 2.79,28.692 4.53,27.018 C5.39,26.192 6.297,25.413 7.206,24.639 C9.445,22.733 11.559,20.755 13.088,18.167 C14.439,15.88 15.604,13.53 16.595,11.075 C17.148,9.702 17.724,8.323 18.455,7.041 C19.278,5.598 19.932,4.075 20.747,2.632 C20.966,2.246 21.098,1.809 21.276,1.398 C21.352,1.222 21.419,1.034 21.534,0.885 C21.762,0.589 22.049,0.387 22.453,0.54 C22.828,0.682 23.045,0.972 23.006,1.36 C22.868,2.762 22.701,4.16 22.541,5.56 C22.446,6.389 22.287,7.215 22.259,8.046 C22.212,9.464 22.308,10.888 22.231,12.304 C22.125,14.247 22.975,15.945 23.495,17.728 C23.579,18.014 23.864,18.248 24.074,18.49 C25.055,19.618 25.962,20.798 26.349,22.271 C26.536,22.98 26.67,23.721 26.689,24.452 C26.718,25.544 26.655,26.642 26.578,27.733 C26.478,29.149 25.839,30.189 24.39,30.539 C24.378,30.647 24.341,30.732 24.367,30.761 C25.347,31.821 25.704,33.082 25.638,34.5 C25.605,35.208 25.634,35.919 25.629,36.629 C25.608,39.302 24.252,41.196 22.086,42.589 C21.33,43.076 20.444,43.196 19.567,43.143 C17.479,43.017 15.476,42.513 13.654,41.472 C12.766,40.965 11.967,40.303 11.056,39.661 Z M20.691,7.254 C20.214,8.081 19.857,8.711 19.49,9.335 C18.148,11.612 16.763,13.865 15.471,16.17 C14.198,18.444 13.184,20.877 11.42,22.845 C10.584,23.777 9.678,24.652 8.752,25.494 C7.728,26.426 6.597,27.242 5.597,28.197 C4.272,29.462 3.345,30.979 2.777,32.753 C2.32,34.176 2.395,35.425 3.414,36.534 C3.775,36.926 4.209,37.314 4.689,37.523 C5.661,37.949 6.681,38.27 7.693,38.596 C8.055,38.712 8.452,38.752 8.835,38.761 C9.959,38.789 10.703,38.095 10.802,36.963 C10.824,36.707 10.799,36.443 10.851,36.194 C10.938,35.788 11.337,35.48 11.69,35.54 C12.074,35.604 12.349,35.829 12.39,36.234 C12.425,36.586 12.464,36.951 12.406,37.295 C12.224,38.373 12.728,39.078 13.584,39.618 C13.775,39.738 13.962,39.865 14.16,39.974 C15.503,40.705 16.915,41.275 18.438,41.435 C19.289,41.523 20.274,41.636 21.004,41.308 C22.671,40.558 23.791,39.191 23.987,37.309 C24.113,36.097 24.053,34.86 24.018,33.636 C23.994,32.822 23.625,32.146 22.925,31.688 C22.466,31.389 22.011,31.078 21.526,30.829 C21.119,30.62 20.787,30.393 20.879,29.886 C20.973,29.366 21.371,29.286 21.828,29.26 C22.472,29.224 23.118,29.174 23.753,29.066 C24.583,28.924 24.906,28.637 24.968,27.797 C25.067,26.451 25.169,25.087 25.054,23.749 C24.982,22.916 24.597,22.072 24.194,21.318 C23.819,20.618 23.224,20.038 22.746,19.39 C22.461,19.003 22.115,18.622 21.968,18.181 C21.26,16.045 20.471,13.931 20.671,11.595 C20.787,10.234 20.691,8.851 20.691,7.254 Z" id="Shape" fill="#30419A" fill-rule="nonzero"/>
          </g>
          <g id="Group-4" transform="translate(90.000000, 61.000000)">
            <polyline id="Shape" fill="#FFFFFF" points="2.737 3.193 7.013 7.159 12.037 12.099 16.387 14.157 21.075 14.456 24.563 15.13 26.625 16.514 28.087 18.385 28.387 20.294 27.525 23.624 24.6 24.148 25.275 26.73 25.125 29.985 21.675 31.594 17.1 30.921 15.3 29.237 14.1 32.118 11.55 33.465 7.163 34.289 4.237 32.418 2.925 28.189 2.925 22.052 4.763 17.786 5.137 15.317 5.063 12.735 4.463 9.33 2.287 3.755 2.737 3.193"/>
            <path d="M26.066,25.118 C26.17,26.111 26.287,27.159 26.385,28.209 C26.483,29.262 25.919,30.13 25.535,31.042 C25.468,31.204 25.205,31.314 25.009,31.388 C24.65,31.526 24.235,31.551 23.914,31.741 C22.867,32.36 21.664,32.586 20.554,32.473 C18.908,32.305 17.066,32.497 15.773,30.874 C15.548,31.265 15.364,31.553 15.211,31.856 C14.737,32.795 14.021,33.434 13.004,33.759 C11.439,34.259 9.901,34.815 8.233,34.951 C6.261,35.114 4.882,34.368 3.698,32.783 C2.33,30.95 2.031,28.915 1.981,26.766 C1.951,25.509 1.909,24.246 1.993,22.994 C2.044,22.206 2.243,21.406 2.509,20.658 C2.876,19.628 3.349,18.634 3.814,17.642 C4.538,16.093 4.578,14.455 4.422,12.814 C4.315,11.695 4.055,10.59 3.833,9.485 C3.757,9.11 3.62,8.739 3.455,8.392 C2.48,6.33 1.489,4.273 0.5,2.217 C0.334,1.871 0.286,1.528 0.553,1.223 C0.853,0.879 1.25,0.902 1.622,1.067 C2.208,1.329 2.777,1.629 3.351,1.916 C3.408,1.944 3.465,1.984 3.503,2.033 C5.151,4.132 7.197,5.874 8.849,7.968 C9.86,9.248 11.113,10.252 12.429,11.194 C12.742,11.417 13.064,11.655 13.303,11.95 C14.225,13.085 15.425,13.553 16.859,13.584 C18.602,13.622 20.349,13.645 22.085,13.787 C24.589,13.99 26.753,14.919 28.376,16.941 C28.997,17.716 29.269,18.571 29.305,19.524 C29.331,20.233 29.294,20.944 29.317,21.653 C29.339,22.341 29.095,22.916 28.636,23.407 C28.327,23.736 28.032,24.102 27.66,24.343 C27.192,24.646 26.653,24.84 26.066,25.118 Z M25.01,22.81 C25.282,23.423 25.82,23.375 26.33,23.283 C26.896,23.181 27.746,22.109 27.768,21.498 C27.789,20.887 27.787,20.272 27.755,19.66 C27.716,18.9 27.455,18.234 26.921,17.653 C25.479,16.086 23.644,15.419 21.581,15.301 C19.906,15.206 18.227,15.187 16.55,15.132 C14.816,15.076 13.357,14.438 12.219,13.108 C12.053,12.914 11.872,12.718 11.66,12.578 C9.98,11.459 8.526,10.107 7.263,8.529 C6.518,7.599 5.674,6.746 4.839,5.893 C4.424,5.467 3.927,5.121 3.538,4.797 C3.542,4.81 3.578,4.956 3.635,5.094 C3.868,5.66 4.175,6.204 4.33,6.79 C4.805,8.59 5.251,10.395 5.762,12.187 C6.328,14.171 6.222,16.271 5.28,18.229 C4.792,19.246 4.336,20.282 3.928,21.333 C3.733,21.834 3.602,22.388 3.584,22.923 C3.539,24.276 3.573,25.632 3.575,26.989 C3.577,28.869 3.935,30.614 5.19,32.129 C5.857,32.934 6.552,33.411 7.64,33.404 C9.163,33.395 10.538,32.838 11.972,32.471 C13.229,32.15 13.886,31.332 14.217,30.184 C14.375,29.634 14.414,29.048 14.492,28.475 C14.523,28.252 14.498,28.023 14.527,27.8 C14.585,27.355 14.846,27.09 15.301,27.092 C15.751,27.094 16.012,27.366 16.089,27.799 C16.124,27.987 16.097,28.186 16.124,28.377 C16.282,29.462 17.485,30.625 18.565,30.659 C19.889,30.701 21.226,30.777 22.54,30.653 C24.008,30.514 24.442,30.114 24.449,28.652 C24.452,28.071 24.418,27.488 24.458,26.91 C24.514,26.114 24.345,25.512 23.59,25.044 C22.792,24.549 22.915,23.873 23.777,23.439 C24.151,23.252 24.521,23.06 25.01,22.81 Z" id="Shape" fill="#30419A" fill-rule="nonzero"/>
          </g>
          <g id="Group-3" transform="translate(92.000000, 0.000000)"/>
          <g id="Group-6" transform="translate(0.000000, 121.000000)">
            <polyline id="Shape" fill="#FFFFFF" points="3.95 0.968 2.55 0.968 1.45 2.066 1.45 4.161 2.989 4.56 4.763 3.562 4.763 1.866 3.95 0.968"/>
            <path d="M2.775,0.508 C4.835,0.508 6.073,2.437 5.305,4.214 C5.192,4.477 5.078,4.742 4.943,4.994 C4.603,5.631 4.121,6.051 3.342,6.03 C2.701,6.013 2.065,6.067 1.507,5.615 C0.535,4.828 0.168,3.395 0.663,2.128 C0.686,2.069 0.722,2.013 0.742,1.952 C1.099,0.911 1.753,0.32 2.775,0.508 Z M2.476,2.182 C2.07,2.926 1.932,3.684 2.165,4.016 C2.47,4.452 2.903,4.445 3.344,4.321 C3.785,3.631 4.097,2.957 3.424,2.182 C3.132,2.182 2.793,2.182 2.476,2.182 Z" id="Shape" fill="#30419A" fill-rule="nonzero"/>
          </g>
        </g>
      </g>
    </g>
  </g>
</svg>