<svg width="30px" height="30px" viewBox="0 0 30 30" version="1.1" xml:space="preserve" xmlns="http://www.w3.org/2000/svg" xmlns:xlink="http://www.w3.org/1999/xlink">
  <!-- Generator: Sketch 49.3 (51167) - http://www.bohemiancoding.com/sketch -->
  <defs/>
  <g>
    <title>crystal-a</title>
    <desc>Created with Sketch.</desc>
    <g id="crystal-a" stroke="none" stroke-width="1" fill="none" fill-rule="evenodd">
      <g id="Blue-Crystal" transform="translate(3.000000, 4.000000)" fill-rule="nonzero">
        <path d="M0,8.3 C0,8.3 2.9,3.1 7,1.6 C7,1.6 14.9,-0.2 17.5,0.9 C17.5,0.9 22.7,4.5 24,6.5 C24,6.5 17,19.5 13.7,21.5 C13.7,21.6 1.3,13.7 0,8.3 Z" id="Shape" fill="#7FCCEF"/>
        <path d="M24,6.5 C23.8,6.2 23.5,5.8 23.1,5.5 L17.6,8.9 L12.8,14.7 L13.7,21.6 C17.1,19.5 24,6.5 24,6.5 Z" id="Shape" fill="#678FE4"/>
        <path d="M8.3,9.9 C8.3,9.9 10.8,18.6 13.7,21.6 C13.7,21.6 17.4,12.1 17.6,8.9 L10.8,5.7 L8.3,9.9 Z" id="Shape" fill="#73B5E4"/>
        <path d="M17.5,0.9 C14.8,-0.2 7,1.6 7,1.6 C3,3.2 0,8.3 0,8.3 C0,8.3 6.5,9.9 8.3,9.9 C8.3,9.9 14,10 17.6,8.9 C20,8.2 21.5,7.9 24,6.5 C22.7,4.5 17.5,0.9 17.5,0.9 Z" id="Shape" fill="#92D7EF"/>
        <path d="M14.2,0.6 C12.8,0.7 11.3,0.8 10,1.1 L8.8,3.5 L8.4,10 C8.4,10 14.1,10.1 17.7,9 L15,2.9 L14.2,0.6 Z" id="Shape" fill="#7FCCEF"/>
        <path d="M8.2,5.6 C7.4,5.6 3.2,6.9 0.3,7.8 C0.1,8.1 0,8.3 0,8.3 C0,8.3 6.5,9.9 8.3,9.9 C8.3,9.9 14,10 17.6,8.9 C20,8.2 21.5,7.9 24,6.5 C23.9,6.4 23.9,6.3 23.8,6.2 C21.4,5.7 17.2,4.8 16.7,4.8 C16,4.9 9.4,5.6 8.2,5.6 Z" id="Shape" fill="#83CDEF"/>
        <path d="M8.8,3.4 L15.1,3 C15.1,3 16.9,2.8 17.6,1 C14.8,-0.2 7,1.6 7,1.6 C7,1.6 7.6,2.5 8.8,3.4 Z" id="Shape" fill="#BEE6F1"/>
        <path d="M17.5,0.9 C17.3,0.8 17,0.7 16.7,0.7 L15,2.9 L17.6,8.8 C20,8.1 21.5,7.8 24,6.4 C22.7,4.5 17.5,0.9 17.5,0.9 Z" id="Shape" fill="#73B5E4"/>
        <path d="M24,6.5 C24,6.5 23.9,6.8 23.7,7.2 C23.5,7.7 23.2,8.3 22.9,9.1 C22.7,9.5 22.5,9.9 22.3,10.3 C22.1,10.7 21.8,11.2 21.5,11.7 C21,12.6 20.3,13.6 19.7,14.6 C19,15.5 18.3,16.5 17.7,17.3 C17,18.1 16.4,18.9 15.8,19.5 C14.6,20.8 13.8,21.5 13.8,21.5 C13.8,21.5 14.6,20.6 15.6,19.3 C16.1,18.6 16.7,17.8 17.4,17 C18,16.1 18.7,15.2 19.4,14.3 C20.1,13.4 20.7,12.4 21.2,11.5 C21.8,10.6 22.3,9.7 22.7,9 C23.1,8.3 23.5,7.6 23.7,7.2 C23.9,6.8 24,6.5 24,6.5 Z" id="Shape" fill="#3B73E4"/>
        <path d="M0,8.3 C0,8.3 0.5,8.3 1.2,8.4 C1.9,8.5 2.8,8.6 3.7,8.8 C4.6,9 5.5,9.2 6.2,9.4 C6.9,9.6 7.3,9.7 7.3,9.7 C7.3,9.7 6.8,9.8 6.1,9.7 C5.4,9.6 4.5,9.5 3.6,9.3 C2.7,9.1 1.8,8.9 1.1,8.7 C0.4,8.5 0,8.3 0,8.3 Z" id="Shape" fill="#BEE6F1"/>
        <path d="M8.5,10.9 C8.5,10.9 8.8,11.5 9.1,12.3 C9.5,13.2 9.9,14.3 10.4,15.4 C10.8,16.5 11.3,17.7 11.6,18.5 C11.8,18.9 11.9,19.3 12.1,19.5 C12.3,19.7 12.3,19.8 12.3,19.8 C12.3,19.8 12.2,19.7 12,19.5 C11.8,19.3 11.6,19 11.3,18.6 C10.8,17.8 10.3,16.7 9.8,15.5 C9.3,14.3 9,13.2 8.7,12.3 C8.7,11.5 8.5,10.9 8.5,10.9 Z" id="Shape" fill="#BEE6F1"/>
        <path d="M15.9,4.9 L17.6,8.9 C20,8.2 21.5,7.9 24,6.5 C23.9,6.4 23.9,6.3 23.8,6.2 C21.4,5.7 17.2,4.8 16.7,4.8 C16.6,4.9 16.3,4.9 15.9,4.9 Z" id="Shape" fill="#679FE4"/>
        <path d="M8.6,5.6 L8.3,9.9 C8.3,9.9 14,10 17.6,8.9 L15.9,4.9 C14.2,5.1 10.2,5.5 8.6,5.6 Z" id="Shape" fill="#7CBFEF"/>
      </g>
    </g>
  </g>
</svg>