<?xml version="1.0" encoding="utf-8"?>
<!-- Generator: Adobe Illustrator 18.0.0, SVG Export Plug-In . SVG Version: 6.00 Build 0)  -->
<!DOCTYPE svg PUBLIC "-//W3C//DTD SVG 1.1//EN" "http://www.w3.org/Graphics/SVG/1.1/DTD/svg11.dtd">
<svg version="1.1" id="Layer_2" xmlns="http://www.w3.org/2000/svg" xmlns:xlink="http://www.w3.org/1999/xlink" x="0px" y="0px"
	 viewBox="0 0 40.6 51.5" enable-background="new 0 0 40.6 51.5" xml:space="preserve">
<g>
	<path fill="#F7941E" d="M40.2,35.3c-0.5-0.1-1.1,0-1.4,0c-0.2,0.8-0.2,1.5-0.5,2.1c-0.6,1.1-1.3,2.2-2,3.2
		c-0.6,1.1-1.6,1.9-2.8,2.2c-0.6,0.2-1.3,0.2-2,0.2c-5.2,0.1-10.5,0.2-15.7,0.3c-0.1,0-0.3,0-0.4-0.1c0.3-4.5,0.6-9,0.8-13.3
		c1.7,0,3.4,0,5.1,0c1.1,0,2.3,0.1,3.4,0.1c0.5,0,0.8,0.3,0.9,0.8c0.1,0.6,0.1,1.2,0.2,1.8c0.1,1.3,0.1,1.3,1.3,1.3
		c0.3,0,0.6,0.1,0.9,0.1c0.2,0,0.5,0,0.6-0.2c0.9-1.4,1.9-2.7,1.8-4.5c-0.1-0.8-0.1-1.6-0.1-2.4c0-2.8,0-5.6,0.1-8.4
		c0-0.5,0-1-0.6-1.2c-0.8-0.2-1.8,0-2.1,0.6c-0.8,1.3-1.6,2.6-2.5,3.9c-0.2,0.2-0.6,0.4-1,0.4c-1.9,0-3.7-0.1-5.6-0.1
		c-1,0-1.9,0.1-2.9,0.1c0.2-5.3,0.5-10.5,0.7-15.7c0,0,0.1,0,0.2,0c3,0.1,6,0.2,8.9,0.3C26.9,7,28.5,7,30,7.2
		c1.3,0.1,2.6,0.5,3.2,1.8c0.3,0.7,0.5,1.5,0.6,2.3c0.1,0.6-0.1,1.3,0.9,1.4c0.6,0,1.4,0.2,1.9,0c0.9-0.3,1.8-2.5,1.7-3.5
		c-0.3-2.4-0.5-4.8-0.8-7.2c0-0.3-0.1-0.5-0.1-0.8c-0.1-0.5-0.4-0.6-0.9-0.6c-2.5-0.1-5-0.2-7.5-0.2C24.3,0.2,19.4,0.1,14.6,0
		c-3.1,0-6.2,0.1-9.3,0.3c-0.6,0-1.2,0.2-1.6,0.6C2.5,1.8,1.5,2.8,0.5,3.8C0.4,3.9,0.4,4,0.3,4.2c0,0.4-0.1,0.8-0.1,1.2
		C0.2,6,0.4,6.2,1,6.3c1,0.2,2,0.4,2.9,0.7C4.6,7.4,5.1,8,5.1,8.9c0,1,0,1.9,0,2.8c-0.2,6.7-0.4,13.4-0.5,20.1
		c-0.1,1.9-0.1,3.8-0.3,5.8c-0.2,2.7-0.5,5.5-0.8,8.2c0,0.2-0.1,0.4-0.3,0.5c-0.6,0.5-1.2,1-1.9,1.4c-1,0.6-1.3,1.5-1.3,2.6
		c0,0.3,0.1,0.7,0.1,1c0.5-0.1,0.9-0.2,1.2-0.2c2.3,0.1,4.6,0.4,6.8,0.4c5.8,0,11.6,0.4,17.5-0.1c2.6-0.2,5.2-0.1,7.7-0.1
		c1.4,0,2.7-0.1,3.6-1.4c0.9-1.3,2.1-2.4,2.3-4.1c0.2-1.9,0.6-3.7,0.9-5.6c0.2-1.3,0.3-2.7,0.5-4C40.7,35.8,40.4,35.4,40.2,35.3z
		 M38.7,46.2c-5,0.1-9.8,0.2-14.5,0.4c-4.4,0.1-8.8,0.3-13.3,0.5c-1.8,0.1-3.6,0-5.4-0.1c-0.2,0-0.4-0.3-0.6-0.4
		c0.2-0.3,0.4-0.7,0.6-0.8c0.6-0.2,1.3-0.2,2-0.5C8.8,44.9,9,44.5,9,43.2c0-1.4-0.1-2.8-0.1-4.2c0-3.4,0.1-6.8,0.2-10.2
		c0.1-2.3,0.3-4.5,0.3-6.8c0-1.9-0.2-3.7-0.2-5.6c0-1.8,0.3-3.5,0.3-5.3c0-1.7-0.1-3.3-0.2-5C9.2,5.4,9.1,4.6,8.9,3.9
		C8.6,3,8.1,2.5,7.2,2.3C6.3,2.1,5.5,1.8,4.6,1.6c0-0.1,0-0.2,0-0.3C4.9,1.2,5.2,1,5.5,1C10.7,0.7,15.8,0.6,21,0.9
		c2.6,0.2,5.2,0.1,7.7,0.2c2.7,0.1,5.5,0.2,8.1,0.4c0.3,2.7,0.6,5.5,1,8.2c-0.6,0.1-0.7,0.1-0.9-0.7C36.6,7.6,36,6.5,35,5.5
		c-1-1.1-2.3-1.9-3.8-2C26.4,3.1,21.5,2.7,16.6,3c-1.3,0.1-1.3,0.1-1.3,1.4c0,2.1,0.2,4.2,0.1,6.4c-0.1,3-0.3,6-0.4,9.1
		c0,0.9,0,1.9,0,3c1.3,0,2.5,0,3.7,0c1.8,0,3.6,0.1,5.4,0.2c0.6,0,1.2,0.1,1.8,0.1c1.3,0,1.9-0.4,2.2-1.7c0.2-0.8,0.1-1.7,0.2-2.5
		c0-0.6,0.2-1,0.9-0.9c0.2,0,0.5,0.4,0.5,0.6c0,0.9-0.1,1.7-0.1,2.6c0,1.2,0,2.4,0.1,3.7c0,1.6,0,3.3,0,4.9c0,0.2,0,0.4,0,0.5
		c-0.1,0.2-0.3,0.4-0.4,0.5c-0.2-0.2-0.4-0.3-0.5-0.5c-0.1-0.7-0.2-1.3-0.2-2c0-1.6-0.4-2-2-2.1c-3.6-0.1-7.3-0.1-10.9,0.4
		c-0.5,0.1-0.6,0.3-0.6,0.8c0,2.6,0.1,5.2,0,7.7c0,2.4-0.2,4.7-0.3,7.1c-0.1,1.5,0.1,1.6,1.6,1.7c1.6,0.1,3.1,0,4.7,0
		c3.5,0,6.9-0.1,10.3-0.1c1.7,0,3.2-0.3,4.4-1.5c0.7-0.6,1.1-1.5,1.7-2.3c0.3-0.5,0.7-0.9,0.9-1.5c0.4-0.9,0.6-1.8,1-2.8
		c0.2,0,0.4,0,0.8,0.1C39.7,39.4,39.2,42.8,38.7,46.2z"/>
	<path fill="#FFFFFF" d="M39.4,35.8c-0.3,1-0.6,1.9-1,2.8c-0.2,0.5-0.6,1-0.9,1.5c-0.5,0.8-1,1.6-1.7,2.3c-1.2,1.1-2.7,1.5-4.4,1.5
		c-3.5,0-6.9,0.1-10.3,0.1c-1.5,0-3.1,0.1-4.7,0c-1.5-0.1-1.6-0.2-1.6-1.7c0.1-2.4,0.2-4.7,0.3-7.1c0-2.6,0-5.2,0-7.7
		c0-0.5,0.1-0.7,0.6-0.8c3.6-0.5,7.2-0.5,10.9-0.4c1.6,0.1,1.9,0.5,2,2.1c0,0.7,0.1,1.3,0.2,2c0,0.2,0.3,0.3,0.5,0.5
		c0.1-0.2,0.3-0.3,0.4-0.5c0.1-0.2,0-0.4,0-0.5c0-1.6,0-3.3,0-4.9c0-1.2-0.1-2.5-0.1-3.7c0-0.9,0.1-1.7,0.1-2.6
		c0-0.2-0.3-0.5-0.5-0.6c-0.7-0.2-0.9,0.2-0.9,0.9c0,0.8,0,1.7-0.2,2.5c-0.3,1.3-0.9,1.7-2.2,1.7c-0.6,0-1.2-0.1-1.8-0.1
		c-1.8-0.1-3.6-0.1-5.4-0.2c-1.2,0-2.4,0-3.7,0c0-1.2,0-2.1,0-3c0.1-3,0.3-6,0.4-9.1c0.1-2.1-0.1-4.2-0.1-6.4c0-1.4,0-1.4,1.3-1.4
		c4.9-0.3,9.7,0.1,14.6,0.5c1.5,0.1,2.8,0.9,3.8,2c0.9,1,1.6,2.2,1.9,3.5c0.2,0.8,0.2,0.8,0.9,0.7c-0.3-2.8-0.6-5.5-1-8.2
		c-2.6-0.1-5.4-0.3-8.1-0.4c-2.6-0.1-5.2,0-7.7-0.2C15.8,0.6,10.7,0.7,5.5,1C5.2,1,4.9,1.2,4.6,1.3c0,0.1,0,0.2,0,0.3
		c0.8,0.2,1.7,0.5,2.5,0.7c1,0.2,1.5,0.8,1.7,1.7c0.2,0.7,0.3,1.5,0.4,2.2c0.1,1.7,0.2,3.3,0.2,5c0,1.8-0.3,3.5-0.3,5.3
		c0,1.9,0.2,3.7,0.2,5.6c0,2.3-0.2,4.5-0.3,6.8C9,32.2,9,35.6,8.9,39c0,1.4,0.1,2.8,0.1,4.2c0,1.3-0.2,1.7-1.4,2.1
		c-0.7,0.2-1.4,0.2-2,0.5c-0.3,0.1-0.4,0.5-0.6,0.8c0.2,0.2,0.4,0.4,0.6,0.4c1.8,0.1,3.6,0.2,5.4,0.1c4.4-0.1,8.8-0.3,13.3-0.5
		c4.8-0.2,9.6-0.2,14.5-0.4c0.5-3.4,1-6.8,1.5-10.3C39.8,35.9,39.6,35.9,39.4,35.8z M11.8,7.4c0-0.7,0-1.3,0.1-2
		c0-0.3,0.2-0.5,0.3-0.8c0,0,0.1,0,0.2,0c0.1,1.5,0.3,3,0.4,4.5c0,3,0,6,0,9c0,1-0.1,1.9-0.2,2.9c0,0.1-0.2,0.3-0.3,0.4
		c-0.1-0.2-0.3-0.3-0.3-0.5c0-0.9,0.2-1.8,0.2-2.7C12,14.7,11.9,11.1,11.8,7.4z M12.1,33.6c-0.1,2.6,0,5.2-0.1,7.8
		c0,0.7-0.1,1.3-0.1,2h-0.3c-0.1-1.3-0.4-2.6-0.4-3.9c0.1-3.5,0.4-7.1,0.6-10.6c0-0.5,0-0.9,0.1-1.3c0-0.2,0.2-0.3,0.4-0.5
		c0.1,0.2,0.3,0.4,0.3,0.5C12.4,29.7,12.1,31.6,12.1,33.6z M12,25.5c-0.1,0-0.5-0.4-0.9-0.8c0.5-0.4,0.8-0.7,1.1-0.7
		c0.2,0,0.7,0.5,0.6,0.6C12.6,24.9,12.3,25.3,12,25.5z"/>
	<path fill="#F7941E" d="M12.6,27.7c-0.2,2-0.4,4-0.5,6c-0.1,2.6,0,5.2-0.1,7.8c0,0.7-0.1,1.3-0.1,2h-0.3c-0.1-1.3-0.4-2.6-0.4-3.9
		c0.1-3.5,0.4-7.1,0.6-10.6c0-0.5,0-0.9,0.1-1.3c0-0.2,0.2-0.3,0.4-0.5C12.4,27.3,12.6,27.5,12.6,27.7z"/>
	<path fill="#F7941E" d="M12.7,18.2c0,1-0.1,1.9-0.2,2.9c0,0.1-0.2,0.3-0.3,0.4c-0.1-0.2-0.3-0.3-0.3-0.5c0-0.9,0.2-1.8,0.2-2.7
		c0-3.7-0.1-7.3-0.1-11c0-0.7,0-1.3,0.1-2c0-0.3,0.2-0.5,0.3-0.8c0,0,0.1,0,0.2,0c0.1,1.5,0.3,3,0.4,4.5
		C12.7,12.2,12.7,15.2,12.7,18.2z"/>
	<path fill="#F7941E" d="M12.8,24.6c-0.1,0.3-0.5,0.7-0.8,0.9c-0.1,0-0.5-0.4-0.9-0.8c0.5-0.4,0.8-0.7,1.1-0.7
		C12.3,24,12.8,24.5,12.8,24.6z"/>
</g>
</svg>
