<svg width="80px" height="176px" viewBox="0 0 80 176" version="1.1" xml:space="preserve" xmlns="http://www.w3.org/2000/svg" xmlns:xlink="http://www.w3.org/1999/xlink">
  <defs/>
  <g>
    <title>microphone-a</title>
    <desc>Created with Sketch.</desc>
    <g id="music" stroke="none" stroke-width="1" fill="none" fill-rule="evenodd">
      <g id="microphone-a" fill-rule="nonzero">
        <g id="mic_0" transform="translate(21.000000, 22.000000)">
          <path d="M8.7,34.5 C8.15,34.35 8,33.95 7.9,33.45 C7.8,32.65 7.85,31.85 7.8,31.05 C7.65,30.9 7.5,30.75 7.35,30.65 C4.25,28.35 2.55,25.15 1.35,21.6 C1.1,20.85 0.8,20.1 0.8,19.3 C0.8,19.15 0.75,18.95 0.65,18.85 C0.1,18.3 0.1,17.65 0.05,16.95 C7.57623131e-14,16.35 0.05,15.75 0.05,15.15 C0.05,14.8 0.15,14.45 0.45,14.2 C0.75,13.95 0.9,13.55 1.05,13.2 C1.7,11.1 2.7,9.15 4,7.35 C4.75,6.35 5.65,5.55 6.6,4.75 C9.4,2.4 12.65,1.05 16.2,0.45 C17.8,0.2 19.45,0.2 21.1,0.4 C22.35,0.55 23.5,1.05 24.6,1.6 C28.1,3.35 30.65,6.1 32.45,9.55 C32.8,10.2 33,10.95 33.2,11.7 C33.35,12.2 33.55,12.65 34.05,12.95 C34.5,13.2 34.7,13.65 34.8,14.15 C34.9,14.95 34.9,15.75 34.9,16.55 C34.9,16.8 34.8,17 34.7,17.2 C34.25,17.9 34.1,18.65 34.05,19.45 C34,21.15 33.45,22.75 32.95,24.35 C32.75,24.95 32.5,25.55 32.15,26.1 C31.05,27.9 29.9,29.6 28.3,31 C28.3,31.75 28.25,32.55 28.25,33.35 C28.25,33.65 28.25,34 27.95,34.2 C27.7,34.4 27.75,34.7 27.75,35 C27.7,37 27.7,39 27.65,41 C27.6,45.45 27.55,49.95 27.4,54.4 C27.25,58.75 27.25,63.1 27.2,67.45 C27.2,68.15 27.1,68.8 27.1,69.5 C27.1,72.9 27.1,76.3 27.05,79.7 C27.05,80.3 27.15,80.9 26.85,81.45 C26.75,81.65 26.8,81.9 26.8,82.15 C26.8,84.65 26.75,87.2 26.75,89.7 C26.75,89.8 26.75,89.95 26.75,90.05 C26.8,90.85 26.45,91.25 25.75,91.6 C23.4,92.75 20.95,93.05 18.4,92.5 C17.75,92.35 17.1,92.1 16.5,91.75 C16.05,91.5 15.85,91.1 15.8,90.6 C15.65,89.1 15.45,87.6 15.3,86.05 C15.2,84.95 15.2,83.8 14.95,82.7 C14.4,80.3 14.45,77.85 14.05,75.45 C13.85,74.1 13.55,72.8 13.4,71.45 C13.25,70 13,68.6 12.8,67.2 C12.45,64.65 12.2,62.05 11.8,59.5 C11.2,56.15 10.8,52.8 10.4,49.45 C10.25,48.3 10.1,47.15 9.95,46 C9.75,44.2 9.55,42.35 9.35,40.55 C9.25,39.55 9.05,38.6 8.95,37.6 C8.8,36.55 8.8,35.6 8.7,34.5 Z M9.95,33.8 C10.55,34.1 11.15,34.3 11.8,34.35 C13.1,34.8 14.45,34.9 15.8,35 C17.5,35.15 19.25,35.1 20.95,35.05 C22.9,35 24.7,34.45 26.55,33.85 C26.75,33.75 26.95,33.65 27.25,33.5 C27.25,33.1 27.25,32.7 27.25,32.3 C27.25,32.2 27.2,32.1 27.15,31.95 C26.8,31.95 26.45,32 26.1,32.1 C25.5,32.25 24.95,32.3 24.35,32.45 C22.85,32.75 21.3,32.6 19.8,32.75 C19,32.8 18.2,32.95 17.4,32.9 C15.65,32.75 13.9,32.85 12.15,32.5 C11.7,32.4 11.2,32.3 10.75,32.2 C10.55,31.9 10.15,32 9.9,31.9 C9.6,31.75 9.3,31.6 8.75,31.65 C9.1,32.3 8.95,32.95 9.15,33.55 C9.4,33.6 9.6,33.9 9.95,33.8 Z M11.95,35.5 C10.8,35.05 10.5,35 9.85,35.1 C9.9,35.7 9.95,36.25 10,36.85 C10,37.2 10.2,37.45 10.5,37.6 C10.7,37.7 10.95,37.7 11.15,37.8 C11.9,38.15 12.75,38.3 13.55,38.25 C13.9,38.5 14.3,38.5 14.7,38.5 C16.95,38.55 19.15,38.65 21.4,38.45 C22.4,38.35 23.4,38.2 24.35,38 C25.1,37.8 25.9,37.6 26.5,37 C26.5,36.35 26.5,35.7 26.5,35.05 C26.1,35.15 25.75,35.25 25.45,35.35 C24.05,35.75 22.65,36.05 21.25,36.15 C19.45,36.3 17.65,36.2 15.85,36.15 C15,36.15 14.2,35.85 13.35,35.9 C12.9,35.55 12.4,35.5 11.95,35.5 Z M18.15,91.15 C18.85,91.45 19.55,91.5 20.25,91.45 C20.3,91.5 20.4,91.55 20.45,91.55 C21.65,91.5 22.85,91.35 23.95,90.9 C24.6,90.65 25.25,90.45 25.75,89.9 C25.75,87.1 25.75,84.3 25.75,81.35 C24.55,81.9 23.35,82.15 22.15,82.35 C21.1,82.55 20.1,82.4 19.05,82.5 C18.65,82.5 18.3,82.45 17.9,82.45 C17.3,82.2 16.65,82.05 15.9,82 C15.9,83.5 16.3,84.9 16.4,86.3 C16.55,87.75 16.75,89.2 16.9,90.6 C17.35,90.95 17.75,91.05 18.15,91.15 Z M16.9,81.1 C17.25,81.35 17.65,81.4 18.05,81.4 C18.45,81.6 18.9,81.55 19.35,81.6 C20.75,81.65 22.15,81.45 23.5,81.15 C24.3,80.95 25.1,80.65 25.8,80.15 C25.8,79.95 25.85,79.75 25.85,79.55 C25.85,77.1 25.85,74.7 25.9,72.25 C25.95,69.65 26,67.1 26.05,64.5 C26.1,60.7 26.2,56.95 26.25,53.15 C26.35,48.9 26.3,44.7 26.5,40.45 C26.55,39.75 26.5,39 26.5,38.25 C25.95,38.45 25.45,38.75 24.9,38.85 C23.15,39.3 21.35,39.45 19.55,39.5 C17.95,39.5 16.35,39.45 14.75,39.4 C14.1,39.3 13.5,39.25 12.85,39.15 C12.45,38.85 12,38.95 11.6,38.85 C11.15,38.75 10.75,38.55 10.25,38.6 C10.15,39.1 10.25,39.5 10.3,39.85 C10.85,42.8 11,45.8 11.4,48.75 C11.65,50.65 11.9,52.55 12.2,54.45 C12.55,57 12.95,59.5 13.3,62 C13.6,64.05 13.9,66.1 14.15,68.15 C14.45,70.35 14.7,72.5 14.95,74.7 C15.2,76.7 15.45,78.75 15.75,80.8 C16.2,80.85 16.5,81.15 16.9,81.1 Z M33.6,14.1 C32.5,14.55 31.45,14.75 30.4,15 C29.3,15.25 28.25,15.55 27.15,15.75 C26.1,15.95 25,16.05 23.95,16.2 C22.85,16.35 21.75,16.5 20.6,16.6 C19.55,16.7 18.45,16.75 17.4,16.85 C16.3,16.9 15.2,16.75 14.1,17 C13.05,16.7 11.95,16.9 10.9,16.85 C9.8,16.75 8.65,16.75 7.55,16.65 C6.5,16.55 5.4,16.4 4.35,16.25 C3.25,16.1 2.2,15.75 1.1,15.75 C1,16.95 1,17.3 1.4,18.2 C2,18.45 2.6,18.7 3.3,18.85 C4.15,19 5,19.15 5.9,19.35 C7.6,19.7 9.25,20 11,20 C12.2,20 13.4,19.95 14.6,20.15 C14.85,20.2 15.15,20.2 15.45,20.1 C16.05,19.95 16.7,20 17.3,20 C19.5,20 21.7,19.7 23.85,19.35 C26.7,18.95 29.45,18.2 32.2,17.3 C32.75,17.15 33.3,17 33.7,16.55 C33.8,15.8 33.75,15.05 33.6,14.1 Z M13.4,8.15 C13,8.8 12.8,9.45 12.55,10.1 C12.3,10.65 12.25,11.25 12.45,11.85 C12.75,13 12.9,14.2 12.85,15.4 C12.85,15.5 12.9,15.65 12.9,15.7 C13.15,15.85 13.35,15.85 13.6,15.7 C13.65,15.65 13.7,15.55 13.7,15.5 C13.85,14.05 14.1,12.6 14.45,11.15 C14.5,10.95 14.55,10.65 14.45,10.45 C14.25,9.65 14.05,8.85 13.4,8.15 Z M10.4,15.7 C10.55,14.35 10.8,13.05 11.1,11.8 C11.2,11.4 11.15,11.05 11,10.65 C10.75,10.05 10.4,9.55 10.05,9 C9.95,8.8 9.85,8.55 9.55,8.65 C9.3,9.5 9,10.3 8.85,11.15 C9.7,13.25 9.7,13.25 9.75,15.65 C9.9,15.8 10.1,15.85 10.4,15.7 Z M22.7,20.65 C22.5,21.55 22.35,22.45 22.2,23.35 C22.15,23.55 22.1,23.75 22.15,23.95 C22.5,24.75 22.8,25.55 23.4,26.2 C24,25.6 24.15,24.85 24.45,24.15 C24.6,23.8 24.55,23.5 24.4,23.15 C24,22.35 23.7,21.55 23.45,20.7 C23.45,20.65 23.35,20.6 23.25,20.5 C23.1,20.55 22.9,20.6 22.7,20.65 Z M23.4,8 C22.75,8.8 22.45,9.55 22.1,10.3 C22,10.6 22.05,10.85 22.1,11.1 C22.4,12.3 22.55,13.5 22.5,14.75 C22.5,14.9 22.55,15.05 22.55,15.2 C23.1,15.25 23.2,15.2 23.2,14.8 C23.2,13.5 23.45,12.25 23.95,11.1 C24.25,10.4 24.2,9.8 23.95,9.15 C23.75,8.8 23.6,8.5 23.4,8 Z M16.3,15.75 C16.55,15.75 16.6,15.55 16.6,15.35 C16.6,13.95 17,12.6 17.4,11.25 C17.7,10.15 17.5,9 16.75,7.9 C16.4,8.35 16.35,8.85 16.1,9.3 C15.6,10.25 15.6,11.2 15.8,12.2 C16,13.3 16.25,14.4 16.15,15.5 C16.2,15.65 16.25,15.7 16.3,15.75 Z M19.9,8.05 C19.6,8.65 19.35,9.05 19.15,9.45 C18.8,10.1 18.75,10.7 18.95,11.4 C19.25,12.35 19.35,13.35 19.4,14.35 C19.45,14.7 19.45,15.1 19.45,15.45 C19.7,15.5 19.75,15.35 19.75,15.25 C20,13.8 20.3,12.35 20.8,10.95 C20.85,10.7 20.9,10.5 20.85,10.25 C20.6,9.55 20.4,8.85 19.9,8.05 Z M25.85,20.15 C26.05,21.1 25.9,22 25.8,22.9 C25.8,23.15 25.65,23.35 25.75,23.6 C25.9,24 26.5,24.8 27.05,25.25 C27.4,24.75 27.5,24.15 27.7,23.6 C27.85,23.15 27.8,22.75 27.55,22.35 C27.15,21.65 26.85,20.95 26.7,20.15 C26.7,20.1 26.6,20 26.55,19.95 C26.35,19.9 26.15,19.9 25.85,20.15 Z M8.75,23.45 C9.05,24.15 9,25 9.45,25.65 C9.8,25.6 9.95,25.35 10.15,25.15 C10.5,24.75 10.9,24.45 11.15,23.9 C10.85,23 10.95,22 10.7,21.05 C10.45,20.9 10.2,20.9 9.95,21 C9.65,21.85 9.25,22.65 8.75,23.45 Z M16.75,21.1 C16.65,21.6 16.55,22.1 16.3,22.45 C15.7,23.3 15.75,24.15 16.15,25 C16.3,25.3 16.3,25.6 16.6,25.9 C17.1,25.4 17.45,24.85 17.8,24.3 C17.9,24.15 17.9,23.95 17.85,23.7 C17.65,22.95 17.5,22.25 17.3,21.5 C17.3,21.35 17.2,21.15 16.75,21.1 Z M13.6,21.1 C13.4,22.2 13.1,23.2 12.45,24 C12.3,24.15 12.35,24.35 12.35,24.55 C12.4,25 12.5,25.45 12.8,25.9 C13.5,25.2 13.95,24.5 14.4,23.75 C14.55,23.5 14.6,23.25 14.55,22.95 C14.45,22.4 14.4,21.85 14.3,21.3 C14.3,21.25 14.2,21.15 14.15,21.1 C14,21.1 13.85,21.1 13.6,21.1 Z M27.2,10.45 C27,9.95 26.8,9.4 26.6,8.9 C26.55,8.85 26.5,8.8 26.4,8.7 C25.85,9.15 25.55,9.75 25.35,10.3 C25.7,11.85 26.05,13.3 26.05,15 C26.75,14.2 26.4,13.4 26.55,12.75 C26.7,11.95 26.95,11.2 27.2,10.45 Z M12.7,6.95 C12.2,6.35 11.8,5.75 11.1,5.4 C10.9,5.75 10.65,6 10.5,6.3 C10.35,6.6 10.15,6.9 10.15,7.25 C10.3,7.7 10.65,8 10.9,8.35 C11.15,8.7 11.3,9.1 11.7,9.35 C12.05,8.55 12.35,7.8 12.7,6.95 Z M7.2,15.8 C7.4,14.3 7.55,13.05 7.7,11.8 C7.7,11.7 7.75,11.55 7.65,11.45 C7.3,10.9 7.05,10.25 6.4,9.9 C6.2,10.6 6,11.25 5.85,11.9 C6.5,13.05 6.85,14.3 7.2,15.8 Z M19.9,25.95 C20.35,25.6 20.45,25.1 20.65,24.7 C20.9,24.25 21,23.8 20.8,23.25 C20.55,22.5 20.3,21.75 20.4,20.95 C20.05,20.85 19.85,20.9 19.85,21.2 C19.8,21.95 19.75,22.75 19.45,23.4 C19.05,24.35 19.45,25.1 19.9,25.95 Z M14.95,24.85 C14.3,25.7 13.75,26.35 13.25,27 C13.25,27.35 13.4,27.55 13.5,27.75 C13.65,27.95 13.75,28.25 14.1,28.35 C14.65,27.95 15.15,27.45 15.6,26.9 C15.45,26.25 15.25,25.65 14.95,24.85 Z M22.8,27.3 C22.35,26.55 21.95,25.9 21.55,25.2 C21.2,25.85 20.85,26.45 20.5,27.05 C20.85,27.7 21.1,28.3 21.7,28.75 C22.15,28.3 22.45,27.8 22.8,27.3 Z M15.1,5.35 C14.5,5.65 14.35,6.3 14.05,6.8 C13.95,6.95 14,7.2 14.1,7.35 C14.4,7.85 14.65,8.3 14.95,8.75 C14.95,8.8 15.05,8.8 15.15,8.8 C15.5,8.1 15.8,7.35 16.15,6.65 C15.9,6.15 15.5,5.75 15.1,5.35 Z M22.75,6.9 C22.55,6.35 22.35,5.85 21.8,5.5 C21.4,5.95 20.9,6.4 20.65,7 C20.8,7.35 20.85,7.7 21.05,8 C21.2,8.3 21.15,8.7 21.6,8.85 C22,8.2 22.4,7.55 22.75,6.9 Z M24.2,27.05 C24.4,27.5 24.85,27.75 25.3,28.05 C25.7,27.45 26.2,27 26.4,26.3 C26,25.9 25.75,25.35 25.2,24.95 C24.85,25.65 24.55,26.35 24.2,27.05 Z M28.95,19.35 C28.9,20.25 29.05,21.2 28.9,22.1 C28.8,22.85 29.15,23.25 29.75,23.65 C30.1,23.1 30.2,22.55 30.35,21.95 C29.7,21.15 29.45,20.2 28.95,19.35 Z M4.4,15.1 C4.6,15.05 4.6,14.9 4.6,14.75 C4.65,14.1 4.65,13.4 4.75,12.75 C4.95,11.8 4.45,11.3 3.8,10.75 C3.7,11.1 3.6,11.35 3.55,11.6 C3.4,12.2 3.35,12.75 3.8,13.3 C4.05,13.65 4.15,14.1 4.25,14.5 C4.2,14.7 4.1,14.95 4.4,15.1 Z M6.45,24.65 C6.7,24.45 6.85,24.25 7,24.1 C7.5,23.7 7.65,23.25 7.55,22.65 C7.45,22.15 7.5,21.6 7.45,21.1 C7.45,20.95 7.5,20.8 7.15,20.75 C6.9,21.45 6.55,22.15 6.1,22.8 C6,22.95 6,23.2 6,23.4 C6.1,23.8 6.2,24.15 6.45,24.65 Z M19.15,27 C18.95,26.5 18.8,25.95 18.45,25.5 C17.95,26.05 17.4,26.5 17.05,27.15 C17.35,27.65 17.5,28.15 18.05,28.45 C18.45,28 18.9,27.6 19.15,27 Z M18.3,8.65 C18.8,8.1 19.1,7.5 19.3,6.9 C19,6.4 18.75,5.95 18.3,5.5 C17.9,5.8 17.65,6.2 17.45,6.65 C17.75,7.3 18,7.95 18.3,8.65 Z M14.7,29.3 C15,29.65 15.15,29.9 15.4,30.1 C15.55,30.25 15.7,30.35 15.85,30.45 C16.35,30.2 16.8,29.85 17.1,29.35 C16.85,28.85 16.6,28.35 16.1,28 C15.65,28.45 15.2,28.8 14.7,29.3 Z M4.9,20.35 C4.35,20.95 3.95,21.35 3.5,21.85 C3.45,22.05 3.5,22.4 3.65,22.7 C3.75,23 3.65,23.35 3.95,23.6 C4.4,23.45 4.7,23.2 4.95,22.85 C4.9,22.05 4.9,21.3 4.9,20.35 Z M11.75,4.5 C12,4.75 12.25,5 12.5,5.25 C12.75,5.5 13,5.7 13.25,5.95 C13.6,5.4 13.95,5 14.05,4.45 C13.9,4.15 13.6,4.05 13.35,3.9 C13.1,3.75 12.85,3.45 12.5,3.5 C12.2,3.85 11.9,4.1 11.75,4.5 Z M20.85,29.6 C20.45,29.1 20.2,28.5 19.6,28.1 C19.25,28.5 18.95,28.9 18.6,29.3 C19,29.8 19.3,30.25 19.9,30.5 C20.25,30.25 20.6,30.1 20.85,29.6 Z M8,9.9 C8.3,9 8.55,8.2 8.8,7.4 C8.6,7.1 8.45,6.8 8.1,6.7 C7.55,7.25 7.3,7.95 7,8.65 C7.2,8.95 7.4,9.25 7.65,9.5 C7.7,9.7 7.8,9.75 8,9.9 Z M11.95,27 C11.65,26.45 11.65,25.85 11.25,25.45 C10.7,25.95 10.2,26.4 9.8,27 C10.15,27.35 10.15,27.85 10.65,28.15 C11.15,27.9 11.45,27.45 11.95,27 Z M26,7.45 C25.7,6.85 25.45,6.3 25,5.95 C24.65,6.25 24.35,6.6 24.15,7 C24.45,7.6 24.7,8.2 25,8.9 C25.3,8.35 25.6,7.95 26,7.45 Z M6.7,25.75 C6.9,26.4 7.05,26.95 7.55,27.35 C7.95,27.1 8.3,26.9 8.5,26.5 C8.3,25.9 8.15,25.3 7.9,24.6 C7.45,24.95 7.05,25.3 6.7,25.75 Z M20.1,5.95 C20.45,5.35 21,5.05 21.1,4.5 C20.8,4 20.4,3.7 19.95,3.45 C19.55,3.8 19.15,4.1 19,4.65 C19.35,5.05 19.65,5.45 20.1,5.95 Z M24.55,28.95 C24.2,28.6 23.95,28.25 23.5,28.05 C23.15,28.6 22.6,28.95 22.4,29.6 C22.7,29.95 23,30.15 23.45,30.2 C23.85,29.8 24.2,29.35 24.55,28.95 Z M5.7,9 C5.4,8.6 5.15,8.4 4.8,8.25 C4.45,8.65 4.15,9.15 4.15,9.75 C4.45,10.05 4.75,10.35 5.05,10.7 C5.45,10.15 5.5,9.55 5.7,9 Z M32.05,23.3 C31.75,23.05 31.5,22.85 31.2,22.8 C30.9,23.3 30.7,23.8 30.6,24.35 C30.85,24.65 31.1,24.85 31.45,24.95 C31.8,24.45 31.85,23.85 32.05,23.3 Z M16.8,31.1 C17.1,31.7 17.5,31.75 17.95,31.7 C18.3,31.7 18.65,31.6 18.8,31.2 C18.5,30.8 18.2,30.45 17.75,30.2 C17.4,30.5 17.1,30.8 16.8,31.1 Z M29.55,10.5 C29.4,10.05 29.4,9.65 29.05,9.4 C28.05,10.25 28.3,11.2 28.8,12.25 C29.05,11.65 29.3,11.1 29.55,10.5 Z M12.15,29.95 C12.6,29.75 12.9,29.5 13.2,29.05 C12.85,28.8 12.8,28.3 12.4,28.1 C12.1,28.15 12,28.35 11.8,28.5 C11.6,28.7 11.35,28.8 11.35,29.15 C11.55,29.45 11.75,29.75 12.15,29.95 Z M17.45,15.55 C18,15.85 18.3,15.75 18.35,15.3 C18.4,14.65 18.35,14 18.3,13.4 C18.3,13.2 18.25,12.95 17.95,12.85 C17.7,13.75 17.55,14.65 17.45,15.55 Z M27.4,29.05 C27.5,29.35 27.7,29.5 28,29.55 C28.5,29.1 29.1,28.7 29.4,28 C28.8,27.7 28.35,27.8 28,28.3 C27.8,28.5 27.5,28.65 27.4,29.05 Z M24.15,15.05 C24.85,15.05 25,14.95 25,14.5 C24.95,13.8 24.9,13.05 24.65,12.35 C24.25,13.25 23.9,14.1 24.15,15.05 Z M31.6,20.1 C31.55,20.5 31.55,20.85 31.5,21.2 C31.45,21.9 31.45,21.9 32.35,22.15 C32.45,21.8 32.6,21.4 32.65,21.2 C32.25,20.8 31.95,20.45 31.6,20.1 Z M17.85,2.1 C17.55,2.35 17.1,2.45 17.1,3 C17.4,3.25 17.75,3.45 18.1,3.75 C18.45,3.45 18.85,3.2 19,2.8 C18.65,2.55 18.35,2.25 17.85,2.1 Z M28.55,24.05 C28.3,24.7 28,25.35 27.75,26 C27.85,26.25 28,26.45 28.3,26.35 C28.75,25.9 29.1,25.35 29.25,24.7 C29.05,24.4 28.85,24.2 28.55,24.05 Z M26.6,6.6 C26.95,6.55 27.2,6.35 27.4,6.05 C27.3,5.85 27.2,5.65 27.1,5.45 C26.95,5.2 26.85,4.95 26.55,4.85 C26.25,4.85 26,4.95 25.8,5.2 C26.05,5.65 26.35,6.15 26.6,6.6 Z M16.75,5.6 C17.1,5.3 17.3,4.95 17.45,4.55 C17.05,4.25 16.7,3.95 16.35,3.7 C15.95,3.85 15.75,4.15 15.7,4.45 C16.05,4.85 16.4,5.25 16.75,5.6 Z M28.6,8.15 C28.45,7.85 28.3,7.55 28.1,7.25 C28.05,7.2 27.95,7.2 27.85,7.15 C27.65,7.3 27.35,7.4 27.2,7.8 C27.35,8.2 27.45,8.7 27.8,9.1 C28.2,8.85 28.4,8.55 28.6,8.15 Z M31.25,12.45 C31.3,11.9 31.85,11.8 31.85,11.3 C31.65,10.9 31.6,10.45 31.2,10.05 C30.85,10.3 30.55,10.55 30.7,11 C30.85,11.45 30.8,11.9 31.25,12.45 Z M30.3,26.95 C30.5,26.6 30.75,26.25 30.95,25.95 C31,25.9 30.95,25.8 30.95,25.7 C30.7,25.6 30.45,25.35 30,25.5 C29.75,25.9 29.5,26.35 29.2,26.8 C29.55,27 29.85,27.05 30.3,26.95 Z M15.25,3 C14.95,2.7 14.65,2.35 14.4,2.1 C13.95,2.25 13.65,2.5 13.4,2.75 C13.45,3.1 13.8,3.15 14,3.3 C14.2,3.45 14.4,3.65 14.75,3.6 C14.95,3.5 15.15,3.35 15.25,3 Z M8,28.3 C8.25,28.65 8.45,28.9 8.65,29.15 C8.7,29.25 8.85,29.3 8.9,29.35 C9.25,29.35 9.5,29.15 9.7,28.85 C9.45,28.45 9.25,28.05 8.9,27.7 C8.6,27.85 8.35,28.05 8,28.3 Z M32.95,20.05 C33.15,19.4 33.35,18.75 33.2,18.05 C32.75,18.2 32.35,18.25 32.1,18.65 C32.35,19.5 32.35,19.5 32.95,20.05 Z M13,30.65 C13.85,31.6 13.9,31.6 14.8,31.1 C14.5,30.75 14.15,30.45 13.85,30.1 C13.5,30.15 13.25,30.35 13,30.65 Z M24.3,4.95 C24.05,4.55 23.8,4.25 23.4,4.05 C23.3,4.1 23.15,4.2 23,4.3 C22.9,4.4 22.8,4.55 22.7,4.65 C22.95,5.05 23.15,5.5 23.55,5.75 C23.85,5.6 24.1,5.3 24.3,4.95 Z M5,25.95 C5.15,25.85 5.35,25.7 5.4,25.55 C5.55,25 5.45,24.5 5.1,23.95 C4.8,24.15 4.4,24.25 4.25,24.55 C4.45,25.05 4.5,25.6 5,25.95 Z M7.25,6 C7.2,5.95 7.15,5.9 7.05,5.8 C6.4,6.2 5.9,6.75 5.4,7.3 C5.55,7.65 5.75,7.8 6.15,7.85 C6.5,7.25 6.9,6.65 7.25,6 Z M21.3,13.05 C21,13.8 20.65,14.5 20.7,15.35 C20.7,15.4 20.9,15.5 21,15.5 C21.25,15.5 21.45,15.3 21.45,15.05 C21.6,14.4 21.5,13.75 21.3,13.05 Z M22.65,3.2 C22.4,2.9 22.15,2.6 21.8,2.4 C21.45,2.4 21.2,2.5 20.95,2.85 C21.3,3.15 21.65,3.5 22,3.75 C22.3,3.65 22.5,3.5 22.65,3.2 Z M20.6,31.45 C21.3,31.5 21.9,31.55 22.5,31.2 C22.35,30.75 22,30.55 21.6,30.4 C21.2,30.7 20.85,30.95 20.6,31.45 Z M2.2,21.45 C2.65,21.15 2.7,21.1 2.7,20.95 C2.75,20.45 2.5,20 2.25,19.6 C2.15,19.45 1.9,19.4 1.75,19.7 C2.05,20.15 1.85,20.8 2.2,21.45 Z M9.25,6.35 C9.65,5.75 10.1,5.2 10.15,4.35 C9.45,4.7 9.1,5.3 8.75,5.8 C8.8,6.05 8.95,6.15 9.25,6.35 Z M10.3,29.7 C10.05,29.85 9.8,29.95 9.55,30.1 C9.8,30.55 10.1,30.9 10.65,30.75 C10.8,30.7 10.95,30.65 11,30.45 C10.9,30.15 10.65,29.95 10.3,29.7 Z M27.5,14.55 C27.95,14.55 28.15,14.45 28.1,14.05 C28.05,13.7 28,13.35 27.9,13 C27.85,12.85 27.75,12.7 27.55,12.75 C27.4,13.35 27.4,13.9 27.5,14.55 Z M8.5,13.55 C8.3,14.2 8.2,14.85 8.35,15.5 C8.35,15.55 8.55,15.65 8.6,15.65 C8.7,15.65 8.8,15.5 8.8,15.4 C8.75,14.75 8.85,14.15 8.5,13.55 Z M6.1,15.25 C5.95,14.75 5.95,14.2 5.65,13.65 C5.4,14.3 5.3,14.85 5.45,15.15 C5.55,15.45 5.75,15.45 6.1,15.25 Z M25.45,30.85 C26.05,30.7 26.75,30.7 27.1,30.1 C26.2,29.7 25.85,30.3 25.45,30.85 Z M24.75,21.75 C24.85,21.75 24.9,21.7 25,21.7 C24.95,21.2 25.15,20.75 24.9,20.3 C24.6,20.25 24.45,20.3 24.3,20.55 C24.45,20.9 24.6,21.3 24.75,21.75 Z M14.85,13.75 C14.7,14.45 14.6,15 14.65,15.6 C14.65,15.7 14.75,15.8 14.9,15.8 C14.95,15.8 15.05,15.75 15.1,15.7 C15.3,15.05 15.3,14.45 14.85,13.75 Z M5.85,26.55 C5.55,26.65 5.4,26.75 5.5,26.9 C5.65,27.25 5.85,27.6 6.05,27.95 C6.2,28.15 6.35,28.15 6.5,27.95 C6.35,27.4 6.2,26.95 5.85,26.55 Z M20,2.15 C20.2,2 20.4,1.9 20.6,1.75 C20.65,1.7 20.65,1.6 20.7,1.45 C20.1,1.45 19.55,1.3 18.9,1.5 C19.25,1.8 19.5,2 20,2.15 Z M11.8,21.1 C11.85,21.6 11.9,22.05 11.95,22.65 C12.45,22.15 12.6,21.7 12.55,21.2 C12.3,21.05 12.15,21 11.8,21.1 Z M27.5,19.85 C27.7,20.2 27.6,20.75 28.15,21.05 C28.3,19.85 28.3,19.6 28.05,19.5 C27.8,19.5 27.65,19.6 27.5,19.85 Z M11.85,13.85 C11.25,14.6 11.25,15.2 11.45,15.95 C12.15,15.35 11.75,14.65 11.85,13.85 Z M30.1,12.1 C29.55,12.8 29.55,13.35 29.65,13.95 C29.65,14 29.75,14.05 29.85,14.05 C30,14.05 30.1,13.95 30.1,13.85 C30.15,13.35 30.1,12.85 30.1,12.1 Z M29.9,19.1 C30.05,19.55 30.1,20.05 30.6,20.4 C30.75,19.9 30.7,19.45 30.65,19.05 C30.35,18.9 30.15,18.95 29.9,19.1 Z M30.8,9.25 C30.45,8.8 30.45,8.25 29.95,8.05 C29.8,8.75 29.8,8.75 30.35,9.45 C30.45,9.4 30.55,9.35 30.8,9.25 Z M26.1,28.45 C26.8,28.3 27.15,27.85 27.45,27.35 C27.3,27.05 27.1,27.05 26.95,27.2 C26.7,27.6 26.4,28 26.1,28.45 Z M25.05,4.3 C25.35,4.25 25.6,4.2 25.75,3.9 C25.55,3.65 25.35,3.4 25.05,3.35 C24.8,3.4 24.65,3.5 24.55,3.7 C24.65,3.95 24.8,4.1 25.05,4.3 Z M18.7,22.15 C18.85,21.75 18.95,21.45 18.85,21.15 C18.8,21.05 18.7,21 18.6,20.95 C18.45,20.95 18.25,21.05 18.3,21.2 C18.3,21.5 18.3,21.85 18.7,22.15 Z M16.6,1.55 C16.15,1.4 15.75,1.65 15.35,1.75 C15.95,2.4 16.05,2.4 16.6,1.55 Z M3.3,15.2 C3.5,14.45 3.5,14.45 3.05,14.15 C2.95,14.45 2.85,14.8 3.3,15.2 Z M21.75,20.8 C21.55,20.65 21.4,20.65 21.35,20.75 C21.1,21.15 21.15,21.3 21.6,21.75 C21.75,21.4 21.75,21.1 21.75,20.8 Z M32.2,12.5 C31.95,12.75 31.75,13 31.85,13.35 C32.65,13.2 32.7,13.1 32.2,12.5 Z M2.25,13.45 C1.95,13.8 1.9,14.2 1.85,14.55 C1.85,14.75 2,14.9 2.3,14.7 C2.35,14.35 2.4,13.95 2.25,13.45 Z M29,6.5 C28.9,7 29.05,7.25 29.45,7.35 C29.45,7.35 29.55,7.3 29.55,7.25 C29.6,6.95 29.3,6.75 29,6.5 Z M15.35,21.75 C15.65,21.65 15.75,21.45 15.7,21.25 C15.7,21.15 15.6,21.05 15.5,21 C15.4,20.95 15.25,21.05 15.25,21.15 C15.2,21.3 15.2,21.5 15.35,21.75 Z M23.25,2.5 C23.45,2.85 23.65,3 24.05,2.8 C23.8,2.4 23.6,2.3 23.25,2.5 Z" id="Shape" fill="#000000"/>
          <path d="M14.75,39.35 C16.35,39.4 17.95,39.45 19.55,39.45 C21.35,39.45 23.15,39.25 24.9,38.8 C25.45,38.65 25.9,38.4 26.5,38.2 C26.5,39 26.55,39.7 26.5,40.4 C26.3,44.6 26.35,48.85 26.25,53.1 C26.15,56.9 26.1,60.65 26.05,64.45 C26,67.05 25.95,69.6 25.9,72.2 C25.85,74.65 25.9,77.05 25.85,79.5 C25.85,79.7 25.85,79.9 25.8,80.1 C25.1,80.65 24.35,80.9 23.5,81.1 C22.15,81.4 20.75,81.6 19.35,81.55 C18.9,81.55 18.45,81.6 18.05,81.35 C18.5,81.25 19,81.4 19.55,81.15 C19.2,80.35 19.35,79.5 19.3,78.7 C19.3,78.65 19.3,78.6 19.25,78.6 C18.85,77.25 18.85,75.8 18.6,74.4 C18.5,73.9 18.25,73.4 18.35,72.9 C18.45,71.9 18,70.95 18.1,69.95 C18.1,69.9 18.05,69.8 18.05,69.7 C17.9,68.75 17.7,67.85 17.65,66.9 C17.65,65.8 17.25,64.8 17.35,63.7 C17.05,63.05 17.15,62.4 17.1,61.7 C17.1,61.6 17.1,61.55 17.1,61.45 C16.7,60.45 16.9,59.4 16.7,58.4 C16.5,57.4 16.6,56.35 16.45,55.35 C16.3,54.2 16,53.1 16.15,51.9 C16.15,51.8 16.15,51.65 16.1,51.55 C15.8,51 15.95,50.4 15.9,49.8 C15.9,49.5 15.95,49.15 15.85,48.85 C15.65,48.4 15.7,48 15.7,47.55 C15.7,47.3 15.75,47.05 15.65,46.85 C15.35,46.2 15.45,45.5 15.45,44.85 C15.45,44.6 15.5,44.35 15.4,44.15 C15.15,43.6 15.2,43.05 15.2,42.5 C15.2,41.6 14.85,40.7 14.9,39.8 C14.95,39.65 14.8,39.5 14.75,39.35 Z" id="Shape" fill="#87D7DC"/>
          <path d="M14.75,39.35 C14.8,39.5 14.95,39.65 14.95,39.8 C14.9,40.7 15.2,41.6 15.25,42.5 C15.25,43.05 15.2,43.6 15.45,44.15 C15.55,44.35 15.5,44.6 15.5,44.85 C15.5,45.5 15.45,46.2 15.7,46.85 C15.8,47.05 15.7,47.3 15.75,47.55 C15.75,48 15.75,48.4 15.9,48.85 C16,49.15 15.95,49.5 15.95,49.8 C16,50.4 15.85,51 16.15,51.55 C16.2,51.65 16.2,51.8 16.2,51.9 C16.05,53.05 16.35,54.2 16.5,55.35 C16.65,56.4 16.55,57.45 16.75,58.4 C16.95,59.4 16.75,60.45 17.15,61.45 C17.2,61.5 17.15,61.6 17.15,61.7 C17.15,62.35 17.1,63.05 17.4,63.7 C17.25,64.8 17.65,65.8 17.7,66.9 C17.7,67.85 17.95,68.75 18.1,69.7 C18.1,69.8 18.15,69.85 18.15,69.95 C18.05,70.95 18.5,71.9 18.4,72.9 C18.35,73.45 18.6,73.9 18.65,74.4 C18.85,75.8 18.9,77.25 19.3,78.6 C19.3,78.65 19.35,78.7 19.35,78.7 C19.4,79.5 19.25,80.35 19.6,81.15 C19.1,81.4 18.6,81.2 18.1,81.35 C17.7,81.35 17.3,81.35 16.95,81.05 C16.95,80.75 17,80.4 16.9,80.1 C16.55,79.05 16.6,78 16.5,76.95 C16.4,75.9 16.05,74.85 16.2,73.75 C15.9,73.1 16,72.45 15.95,71.75 C15.95,71.65 15.95,71.5 15.9,71.4 C15.65,70.95 15.75,70.45 15.7,70 C15.7,69.75 15.7,69.5 15.65,69.3 C15.4,68.2 15.2,67.05 15.2,65.9 C15.2,65.75 15.25,65.55 15.15,65.45 C14.9,64.95 14.95,64.45 14.95,63.95 C15,63.4 14.65,62.9 14.7,62.3 C14.75,61.5 14.5,60.75 14.4,59.95 C14.3,58.85 14,57.8 14,56.65 C14,56.45 14.05,56.2 13.95,56.05 C13.75,55.65 13.8,55.2 13.75,54.75 C13.75,54.35 13.7,53.95 13.6,53.6 C13.4,52.95 13.3,52.3 13.3,51.6 C13.25,50.55 12.9,49.5 13.05,48.4 C13.05,48.3 13,48.15 13,48.05 C12.85,47 12.65,45.95 12.6,44.9 C12.6,43.8 12.2,42.7 12.3,41.6 C12.3,41.45 12.2,41.3 12.15,41.15 C12.05,40.5 12,39.8 12.15,39.15 C12.4,39.1 12.6,39.1 12.8,39.05 C13.5,39.2 14.1,39.3 14.75,39.35 Z" id="Shape" fill="#B0EEF2"/>
          <path d="M33.6,14.1 C33.75,15.05 33.8,15.8 33.6,16.55 C33.2,16.95 32.65,17.1 32.1,17.3 C29.35,18.15 26.6,18.95 23.75,19.35 C21.6,19.65 19.4,19.95 17.2,20 C16.6,20 15.95,19.95 15.35,20.1 C15.1,20.15 14.8,20.15 14.5,20.15 C13.3,19.95 12.1,20.05 10.9,20 C9.2,19.95 7.5,19.7 5.8,19.35 C4.95,19.15 4.1,19 3.2,18.85 C2.5,18.75 1.9,18.45 1.3,18.2 C0.95,17.3 0.9,16.95 1,15.75 C2.1,15.8 3.15,16.1 4.25,16.25 C5.3,16.4 6.4,16.55 7.45,16.65 C8.55,16.75 9.7,16.8 10.8,16.85 C11.85,16.95 12.95,16.75 14,17 C15.1,16.75 16.2,16.9 17.3,16.85 C18.35,16.8 19.45,16.7 20.5,16.6 C21.6,16.5 22.7,16.35 23.85,16.2 C24.9,16.05 26,15.95 27.05,15.75 C28.15,15.55 29.2,15.25 30.3,15 C31.45,14.75 32.5,14.55 33.6,14.1 Z" id="Shape" fill="#D1EAEB"/>
          <path d="M12.85,39.1 C12.65,39.15 12.45,39.15 12.2,39.2 C12.05,39.85 12.05,40.5 12.2,41.2 C12.25,41.35 12.35,41.5 12.35,41.65 C12.25,42.75 12.6,43.85 12.65,44.95 C12.65,46 12.9,47.05 13.05,48.1 C13.05,48.2 13.1,48.35 13.1,48.45 C12.95,49.55 13.35,50.55 13.35,51.65 C13.35,52.3 13.45,53 13.65,53.65 C13.75,54.05 13.8,54.45 13.8,54.8 C13.8,55.25 13.75,55.65 14,56.1 C14.1,56.25 14.05,56.5 14.05,56.7 C14.05,57.8 14.35,58.9 14.45,60 C14.55,60.8 14.8,61.55 14.75,62.35 C14.7,62.9 15.05,63.4 15,64 C14.95,64.5 14.9,65.05 15.2,65.5 C15.25,65.65 15.25,65.8 15.25,65.95 C15.25,67.1 15.45,68.2 15.7,69.35 C15.75,69.6 15.7,69.85 15.75,70.05 C15.75,70.5 15.7,71 15.95,71.45 C16,71.55 16,71.7 16,71.8 C16,72.45 15.95,73.15 16.25,73.8 C16.1,74.9 16.45,75.95 16.55,77 C16.65,78.05 16.6,79.15 16.95,80.15 C17.05,80.45 17,80.8 17,81.1 C16.55,81.15 16.25,80.85 15.9,80.8 C15.65,78.7 15.35,76.7 15.1,74.7 C14.8,72.5 14.55,70.35 14.3,68.15 C14.05,66.1 13.75,64.05 13.45,62 C13.1,59.45 12.7,56.95 12.35,54.45 C12.1,52.55 11.85,50.65 11.55,48.75 C11.15,45.8 10.95,42.8 10.45,39.85 C10.4,39.45 10.25,39.05 10.4,38.6 C10.85,38.6 11.3,38.75 11.75,38.85 C12,38.95 12.45,38.85 12.85,39.1 Z" id="Shape" fill="#87D7DC"/>
          <path d="M19.05,82.6 C20.1,82.5 21.1,82.6 22.15,82.45 C23.35,82.25 24.55,82 25.75,81.45 C25.75,84.35 25.75,87.2 25.75,90 C25.2,90.55 24.55,90.75 23.95,91 C22.8,91.45 21.65,91.55 20.45,91.65 C20.4,91.65 20.3,91.6 20.25,91.55 C20.7,91.25 20.55,90.85 20.45,90.45 C20.2,89.45 20,88.45 20.05,87.45 C20.05,87.25 20.05,87.05 20,86.85 C19.7,85.9 19.75,84.9 19.6,83.95 C19.5,83.4 19.4,83 19.05,82.6 Z" id="Shape" fill="#61AFB4"/>
          <path d="M12.1,32.45 C13.85,32.75 15.6,32.7 17.35,32.85 C18.15,32.9 18.95,32.8 19.75,32.7 C21.25,32.6 22.8,32.7 24.3,32.4 C24.9,32.3 25.5,32.2 26.05,32.05 C26.4,31.95 26.75,31.9 27.1,31.9 C27.15,32.05 27.2,32.15 27.2,32.25 C27.2,32.65 27.2,33.05 27.2,33.45 C26.95,33.6 26.75,33.7 26.5,33.8 C24.7,34.4 22.85,35 20.9,35 C19.2,35.05 17.45,35.1 15.75,34.95 C14.4,34.85 13.05,34.8 11.75,34.3 C12,34.2 12.3,34.35 12.5,34.05 C12.6,33.5 12.75,32.85 12.1,32.45 Z" id="Shape" fill="#61AEB3"/>
          <path d="M13.3,35.8 C14.15,35.7 14.95,36 15.8,36.05 C17.6,36.1 19.4,36.15 21.2,36.05 C22.65,35.95 24.05,35.65 25.4,35.25 C25.75,35.15 26.1,35.05 26.45,34.95 C26.45,35.65 26.45,36.25 26.45,36.9 C25.85,37.5 25.1,37.75 24.3,37.9 C23.35,38.1 22.35,38.3 21.35,38.35 C19.1,38.55 16.9,38.45 14.65,38.4 C14.25,38.4 13.85,38.4 13.5,38.15 C13.5,37.9 13.55,37.65 13.45,37.45 C13.25,36.95 13.3,36.35 13.3,35.8 Z" id="Shape" fill="#61AEB3"/>
          <path d="M19.05,82.6 C19.35,82.95 19.5,83.35 19.55,83.85 C19.7,84.8 19.65,85.8 19.95,86.75 C20,86.95 20,87.15 20,87.35 C20,88.4 20.2,89.35 20.4,90.35 C20.5,90.7 20.65,91.15 20.2,91.45 C19.45,91.5 18.75,91.4 18.1,91.15 C17.95,90.45 17.75,89.75 17.85,89.05 C17.85,88.95 17.8,88.8 17.8,88.7 C17.65,87.7 17.5,86.65 17.4,85.65 C17.35,85.2 17.35,84.8 17.25,84.35 C17.1,83.8 17.05,83.2 17.3,82.65 C17.55,82.6 17.75,82.6 17.95,82.55 C18.3,82.55 18.7,82.6 19.05,82.6 Z" id="Shape" fill="#87D7DC"/>
          <path d="M13.4,8.15 C14,8.85 14.25,9.65 14.45,10.45 C14.5,10.65 14.5,10.95 14.45,11.15 C14.05,12.6 13.85,14.05 13.7,15.5 C13.7,15.55 13.65,15.65 13.6,15.7 C13.4,15.85 13.15,15.85 12.9,15.7 C12.9,15.6 12.85,15.5 12.85,15.4 C12.9,14.2 12.8,13 12.45,11.85 C12.3,11.25 12.3,10.7 12.55,10.1 C12.85,9.45 13,8.8 13.4,8.15 Z" id="Shape" fill="#CCE5E6"/>
          <path d="M10.4,15.7 C10.1,15.85 9.9,15.8 9.75,15.65 C9.65,13.25 9.65,13.25 8.85,11.15 C8.95,10.3 9.3,9.45 9.55,8.65 C9.9,8.55 9.95,8.85 10.05,9 C10.4,9.55 10.75,10.05 11,10.65 C11.15,11.05 11.2,11.4 11.1,11.8 C10.8,13.05 10.55,14.35 10.4,15.7 Z" id="Shape" fill="#CCE5E6"/>
          <path d="M17.9,82.55 C17.7,82.6 17.5,82.6 17.25,82.65 C17,83.2 17.05,83.8 17.2,84.35 C17.3,84.8 17.3,85.2 17.35,85.65 C17.45,86.65 17.6,87.7 17.75,88.7 C17.75,88.8 17.8,88.95 17.8,89.05 C17.75,89.8 17.95,90.45 18.05,91.15 C17.65,91.05 17.3,90.95 16.9,90.65 C16.75,89.25 16.5,87.8 16.4,86.35 C16.25,84.95 15.9,83.55 15.9,82.05 C16.7,82.1 17.3,82.3 17.9,82.55 Z" id="Shape" fill="#60ADB2"/>
          <path d="M22.7,20.65 C22.9,20.6 23.05,20.55 23.25,20.5 C23.35,20.6 23.4,20.65 23.45,20.7 C23.65,21.55 24,22.35 24.4,23.15 C24.55,23.5 24.6,23.8 24.45,24.15 C24.2,24.85 24.05,25.6 23.4,26.2 C22.8,25.55 22.45,24.75 22.15,23.95 C22.1,23.8 22.15,23.55 22.2,23.35 C22.35,22.45 22.5,21.55 22.7,20.65 Z" id="Shape" fill="#CCE5E6"/>
          <path d="M23.4,8 C23.6,8.5 23.75,8.8 23.9,9.15 C24.15,9.8 24.2,10.4 23.9,11.1 C23.45,12.3 23.15,13.55 23.15,14.8 C23.15,15.2 23.1,15.25 22.5,15.2 C22.5,15.05 22.45,14.9 22.45,14.75 C22.5,13.5 22.35,12.3 22.05,11.1 C22,10.8 21.95,10.55 22.05,10.3 C22.45,9.55 22.75,8.8 23.4,8 Z" id="Shape" fill="#CAE2E3"/>
          <path d="M16.3,15.75 C16.25,15.7 16.2,15.6 16.2,15.55 C16.3,14.4 16.1,13.3 15.85,12.25 C15.65,11.25 15.65,10.3 16.15,9.35 C16.4,8.9 16.45,8.35 16.8,7.95 C17.6,9 17.8,10.2 17.45,11.3 C17.05,12.65 16.6,13.95 16.65,15.4 C16.6,15.55 16.6,15.75 16.3,15.75 Z" id="Shape" fill="#C9E1E2"/>
          <path d="M19.9,8.05 C20.4,8.85 20.6,9.55 20.8,10.3 C20.85,10.55 20.85,10.8 20.75,11 C20.3,12.4 19.95,13.85 19.7,15.3 C19.7,15.4 19.65,15.55 19.4,15.5 C19.4,15.15 19.4,14.75 19.35,14.4 C19.3,13.4 19.2,12.4 18.9,11.45 C18.7,10.75 18.75,10.1 19.1,9.5 C19.35,9.05 19.6,8.65 19.9,8.05 Z" id="Shape" fill="#C9E1E2"/>
          <path d="M25.85,20.15 C26.15,19.9 26.4,19.9 26.65,19.9 C26.7,19.95 26.75,20.05 26.8,20.1 C26.9,20.9 27.2,21.65 27.65,22.3 C27.9,22.7 27.95,23.1 27.8,23.55 C27.6,24.1 27.45,24.7 27.15,25.2 C26.6,24.75 25.95,23.95 25.85,23.55 C25.75,23.3 25.85,23.1 25.9,22.85 C25.85,22 26.05,21.1 25.85,20.15 Z" id="Shape" fill="#CAE3E4"/>
          <path d="M8.75,23.45 C9.25,22.65 9.6,21.85 9.9,21 C10.2,20.9 10.4,20.9 10.65,21.05 C10.9,21.95 10.8,23 11.1,23.9 C10.85,24.45 10.45,24.75 10.1,25.15 C9.9,25.35 9.75,25.6 9.4,25.65 C9,25 9.05,24.2 8.75,23.45 Z" id="Shape" fill="#C8E0E1"/>
          <path d="M16.75,21.1 C17.2,21.15 17.25,21.35 17.3,21.55 C17.5,22.3 17.7,23 17.85,23.75 C17.9,23.95 17.9,24.15 17.8,24.35 C17.45,24.9 17.05,25.45 16.6,25.95 C16.35,25.65 16.3,25.35 16.15,25.05 C15.7,24.15 15.65,23.3 16.3,22.5 C16.6,22.1 16.7,21.6 16.75,21.1 Z" id="Shape" fill="#CBE4E5"/>
          <path d="M13.6,21.1 C13.85,21.1 14,21.1 14.15,21.1 C14.2,21.2 14.3,21.25 14.3,21.3 C14.4,21.85 14.45,22.4 14.55,22.95 C14.6,23.25 14.55,23.5 14.4,23.75 C13.95,24.5 13.45,25.2 12.8,25.9 C12.45,25.45 12.4,25 12.35,24.55 C12.35,24.35 12.35,24.15 12.45,24 C13.1,23.2 13.4,22.2 13.6,21.1 Z" id="Shape" fill="#C8E0E1"/>
          <path d="M13.3,35.8 C13.3,36.35 13.25,36.95 13.5,37.5 C13.6,37.7 13.55,37.95 13.55,38.2 C12.7,38.25 11.9,38.1 11.15,37.75 C11.25,37.05 11.05,36.35 10.95,35.75 C11.3,35.5 11.65,35.65 11.95,35.55 C12.4,35.5 12.9,35.55 13.3,35.8 Z" id="Shape" fill="#85D5D9"/>
          <path d="M27.2,10.45 C26.95,11.2 26.7,11.95 26.5,12.75 C26.35,13.45 26.75,14.25 26,15 C26,13.3 25.65,11.8 25.3,10.3 C25.55,9.75 25.85,9.15 26.35,8.7 C26.45,8.8 26.5,8.85 26.55,8.9 C26.8,9.4 27,9.9 27.2,10.45 Z" id="Shape" fill="#C6DEDE"/>
          <path d="M12.7,6.95 C12.35,7.8 12.05,8.55 11.7,9.4 C11.3,9.1 11.15,8.7 10.9,8.4 C10.65,8.05 10.3,7.75 10.15,7.3 C10.15,6.95 10.35,6.65 10.5,6.35 C10.65,6.05 10.85,5.75 11.1,5.45 C11.8,5.75 12.2,6.35 12.7,6.95 Z" id="Shape" fill="#CAE3E3"/>
          <path d="M7.2,15.8 C6.85,14.3 6.5,13.05 5.85,11.85 C6.05,11.2 6.2,10.55 6.4,9.85 C7.05,10.25 7.3,10.85 7.65,11.4 C7.7,11.5 7.7,11.65 7.7,11.75 C7.55,13 7.4,14.25 7.2,15.8 Z" id="Shape" fill="#CAE3E4"/>
          <path d="M19.9,25.95 C19.4,25.15 19,24.4 19.45,23.4 C19.75,22.7 19.8,21.95 19.85,21.2 C19.85,20.9 20.1,20.85 20.4,20.95 C20.3,21.75 20.55,22.5 20.8,23.25 C21,23.8 20.9,24.25 20.65,24.7 C20.45,25.1 20.35,25.55 19.9,25.95 Z" id="Shape" fill="#C8E0E1"/>
          <path d="M12.1,32.45 C12.75,32.9 12.6,33.5 12.55,34.1 C12.35,34.4 12.05,34.3 11.8,34.35 C11.15,34.3 10.55,34.1 9.95,33.8 C10,33.25 9.8,32.7 10.05,32.2 C10.3,32.15 10.45,32.15 10.65,32.15 C11.15,32.25 11.65,32.35 12.1,32.45 Z" id="Shape" fill="#85D4D9"/>
          <path d="M14.95,24.85 C15.25,25.6 15.45,26.25 15.7,26.9 C15.25,27.45 14.75,27.95 14.2,28.35 C13.85,28.25 13.75,27.95 13.6,27.75 C13.45,27.55 13.3,27.35 13.35,27 C13.75,26.4 14.3,25.7 14.95,24.85 Z" id="Shape" fill="#C7DFE0"/>
          <path d="M22.8,27.3 C22.45,27.8 22.15,28.3 21.65,28.75 C21.05,28.3 20.8,27.7 20.45,27.05 C20.8,26.45 21.15,25.85 21.5,25.2 C22,25.9 22.35,26.55 22.8,27.3 Z" id="Shape" fill="#C8E0E1"/>
          <path d="M15.1,5.35 C15.5,5.75 15.9,6.15 16.15,6.7 C15.85,7.4 15.5,8.1 15.15,8.85 C15.05,8.85 14.95,8.85 14.95,8.8 C14.65,8.35 14.35,7.85 14.1,7.4 C14,7.2 13.95,7 14.05,6.85 C14.35,6.25 14.5,5.65 15.1,5.35 Z" id="Shape" fill="#C4DCDD"/>
          <path d="M22.75,6.9 C22.35,7.55 22,8.2 21.6,8.85 C21.2,8.7 21.2,8.3 21.05,8 C20.9,7.7 20.8,7.35 20.65,7 C20.9,6.4 21.4,6 21.8,5.5 C22.35,5.85 22.55,6.35 22.75,6.9 Z" id="Shape" fill="#C8E0E1"/>
          <path d="M24.2,27.05 C24.55,26.35 24.85,25.7 25.2,24.95 C25.7,25.35 25.95,25.9 26.4,26.3 C26.2,27 25.7,27.45 25.3,28.05 C24.8,27.75 24.4,27.5 24.2,27.05 Z" id="Shape" fill="#C6DDDE"/>
          <path d="M28.95,19.35 C29.45,20.2 29.7,21.15 30.35,21.9 C30.2,22.5 30.1,23.05 29.75,23.6 C29.15,23.25 28.8,22.8 28.9,22.05 C29.05,21.15 28.95,20.25 28.95,19.35 Z" id="Shape" fill="#B9CFD0"/>
          <path d="M4.4,15.1 C4.1,14.95 4.25,14.7 4.2,14.5 C4.1,14.05 4.05,13.6 3.75,13.3 C3.35,12.75 3.4,12.2 3.5,11.6 C3.55,11.35 3.65,11.1 3.75,10.75 C4.4,11.3 4.9,11.8 4.7,12.75 C4.55,13.4 4.6,14.1 4.55,14.75 C4.55,14.9 4.55,15.05 4.4,15.1 Z" id="Shape" fill="#C0D8D8"/>
          <path d="M6.45,24.65 C6.2,24.2 6.1,23.8 6.1,23.4 C6.1,23.2 6.1,22.95 6.2,22.8 C6.65,22.15 6.95,21.45 7.25,20.75 C7.6,20.75 7.55,20.95 7.55,21.1 C7.55,21.6 7.55,22.15 7.65,22.65 C7.75,23.3 7.6,23.75 7.1,24.1 C6.85,24.25 6.7,24.4 6.45,24.65 Z" id="Shape" fill="#C1D9D9"/>
          <path d="M19.15,27 C18.85,27.55 18.45,27.95 18.05,28.45 C17.5,28.15 17.35,27.6 17.05,27.15 C17.4,26.5 17.95,26.05 18.45,25.5 C18.8,26 18.95,26.5 19.15,27 Z" id="Shape" fill="#C3DBDC"/>
          <path d="M18.3,8.65 C18,7.95 17.75,7.3 17.45,6.65 C17.65,6.2 17.85,5.8 18.3,5.5 C18.75,5.9 19,6.4 19.3,6.9 C19.1,7.55 18.8,8.1 18.3,8.65 Z" id="Shape" fill="#C3DADB"/>
          <path d="M14.7,29.3 C15.2,28.85 15.65,28.45 16.1,28.05 C16.6,28.4 16.85,28.9 17.1,29.4 C16.75,29.85 16.35,30.2 15.85,30.5 C15.7,30.4 15.5,30.25 15.4,30.15 C15.15,29.85 15,29.6 14.7,29.3 Z" id="Shape" fill="#C4DBDC"/>
          <path d="M4.9,20.35 C4.9,21.3 4.9,22.05 4.9,22.85 C4.65,23.2 4.35,23.45 3.9,23.6 C3.6,23.35 3.7,23 3.6,22.7 C3.5,22.4 3.45,22.1 3.45,21.85 C3.95,21.35 4.35,20.95 4.9,20.35 Z" id="Shape" fill="#C2D9DA"/>
          <path d="M11.75,4.5 C11.95,4.1 12.2,3.8 12.5,3.6 C12.9,3.55 13.1,3.85 13.35,4 C13.6,4.15 13.9,4.2 14.05,4.55 C13.95,5.05 13.6,5.5 13.25,6.05 C13,5.8 12.75,5.55 12.5,5.35 C12.25,5.05 12,4.75 11.75,4.5 Z" id="Shape" fill="#C5DDDE"/>
          <path d="M20.85,29.6 C20.6,30.1 20.2,30.25 19.9,30.55 C19.35,30.3 19,29.85 18.6,29.35 C18.95,28.95 19.3,28.55 19.6,28.15 C20.2,28.5 20.45,29.1 20.85,29.6 Z" id="Shape" fill="#C3DBDC"/>
          <path d="M8,9.9 C7.8,9.75 7.7,9.65 7.6,9.55 C7.4,9.3 7.2,9 6.95,8.7 C7.3,8 7.5,7.3 8.05,6.75 C8.4,6.85 8.55,7.1 8.75,7.45 C8.55,8.2 8.3,9.05 8,9.9 Z" id="Shape" fill="#C7DFE0"/>
          <path d="M11.95,27 C11.45,27.4 11.15,27.9 10.6,28.15 C10.15,27.85 10.1,27.3 9.75,27 C10.2,26.35 10.7,25.95 11.2,25.45 C11.7,25.9 11.7,26.45 11.95,27 Z" id="Shape" fill="#C7DEE0"/>
          <path d="M11.95,35.5 C11.65,35.6 11.3,35.45 10.95,35.7 C11.05,36.35 11.2,37.05 11.15,37.7 C10.95,37.65 10.7,37.6 10.5,37.5 C10.2,37.35 10,37.1 10,36.75 C9.95,36.15 9.9,35.6 9.85,35 C10.5,35 10.8,35.05 11.95,35.5 Z" id="Shape" fill="#61ACB1"/>
          <path d="M26,7.45 C25.65,7.95 25.35,8.35 24.95,8.85 C24.65,8.2 24.35,7.6 24.1,6.95 C24.35,6.55 24.6,6.2 24.95,5.9 C25.45,6.35 25.7,6.85 26,7.45 Z" id="Shape" fill="#C2DADA"/>
          <path d="M6.7,25.75 C7.05,25.25 7.45,24.95 7.9,24.55 C8.1,25.25 8.3,25.85 8.5,26.45 C8.3,26.9 7.95,27.05 7.55,27.3 C7.1,26.95 6.95,26.4 6.7,25.75 Z" id="Shape" fill="#C1D9D9"/>
          <path d="M20.1,5.95 C19.65,5.45 19.35,5.05 19,4.65 C19.15,4.15 19.55,3.8 19.95,3.45 C20.4,3.7 20.8,4 21.1,4.5 C20.95,5.1 20.45,5.35 20.1,5.95 Z" id="Shape" fill="#C6DEDF"/>
          <path d="M24.55,28.95 C24.2,29.4 23.8,29.8 23.45,30.2 C23,30.15 22.7,29.95 22.4,29.6 C22.6,28.95 23.15,28.6 23.5,28.05 C23.95,28.25 24.2,28.6 24.55,28.95 Z" id="Shape" fill="#C0D7D7"/>
          <path d="M5.7,9 C5.5,9.55 5.45,10.15 5,10.65 C4.7,10.3 4.4,10 4.1,9.7 C4.1,9.1 4.35,8.6 4.75,8.2 C5.15,8.35 5.4,8.6 5.7,9 Z" id="Shape" fill="#C3DADB"/>
          <path d="M10.7,32.15 C10.5,32.15 10.3,32.2 10.1,32.2 C9.85,32.7 10.05,33.25 10,33.8 C9.65,33.85 9.45,33.55 9.1,33.5 C8.9,32.85 9.05,32.25 8.7,31.6 C9.2,31.55 9.5,31.7 9.85,31.85 C10.1,31.95 10.45,31.85 10.7,32.15 Z" id="Shape" fill="#5AA0A4"/>
          <path d="M32.05,23.3 C31.85,23.85 31.8,24.45 31.4,24.9 C31.05,24.8 30.85,24.6 30.55,24.3 C30.65,23.75 30.85,23.2 31.15,22.75 C31.5,22.85 31.7,23 32.05,23.3 Z" id="Shape" fill="#BDD3D4"/>
          <path d="M16.8,31.1 C17.15,30.8 17.45,30.5 17.75,30.2 C18.2,30.45 18.5,30.8 18.8,31.2 C18.65,31.6 18.3,31.7 17.95,31.7 C17.5,31.7 17.05,31.7 16.8,31.1 Z" id="Shape" fill="#BDD4D5"/>
          <path d="M29.55,10.5 C29.3,11.1 29.05,11.65 28.8,12.25 C28.3,11.2 28.05,10.25 29.05,9.4 C29.35,9.65 29.4,10.05 29.55,10.5 Z" id="Shape" fill="#BBD2D3"/>
          <path d="M12.15,29.95 C11.75,29.75 11.55,29.45 11.35,29.15 C11.35,28.8 11.6,28.7 11.8,28.5 C11.95,28.35 12.1,28.15 12.4,28.1 C12.8,28.3 12.8,28.8 13.2,29.05 C12.9,29.5 12.55,29.75 12.15,29.95 Z" id="Shape" fill="#C3DADB"/>
          <path d="M17.45,15.55 C17.55,14.65 17.65,13.75 17.95,12.85 C18.25,12.9 18.3,13.15 18.3,13.4 C18.35,14.05 18.35,14.7 18.35,15.3 C18.35,15.75 18.05,15.85 17.45,15.55 Z" id="Shape" fill="#B1C6C7"/>
          <path d="M27.4,29.05 C27.5,28.65 27.8,28.5 28,28.25 C28.35,27.75 28.8,27.7 29.4,27.95 C29.1,28.65 28.5,29.1 28,29.5 C27.65,29.45 27.5,29.35 27.4,29.05 Z" id="Shape" fill="#BBD2D3"/>
          <path d="M24.15,15.05 C23.95,14.1 24.3,13.25 24.6,12.35 C24.9,13.05 24.9,13.8 24.95,14.5 C25,14.95 24.85,15.05 24.15,15.05 Z" id="Shape" fill="#BAD1D2"/>
          <path d="M31.6,20.1 C31.95,20.5 32.3,20.8 32.65,21.2 C32.6,21.45 32.45,21.8 32.35,22.15 C31.45,21.9 31.45,21.85 31.5,21.2 C31.5,20.85 31.55,20.5 31.6,20.1 Z" id="Shape" fill="#B5CBCC"/>
          <path d="M17.85,2.1 C18.35,2.25 18.65,2.5 18.95,2.75 C18.8,3.2 18.4,3.4 18.05,3.7 C17.7,3.45 17.4,3.2 17.05,2.95 C17.1,2.5 17.55,2.4 17.85,2.1 Z" id="Shape" fill="#C0D7D8"/>
          <path d="M28.55,24.05 C28.85,24.15 29.05,24.4 29.25,24.7 C29.1,25.35 28.75,25.9 28.3,26.35 C27.95,26.4 27.85,26.25 27.75,26 C28,25.35 28.25,24.7 28.55,24.05 Z" id="Shape" fill="#BDD4D4"/>
          <path d="M26.6,6.6 C26.3,6.15 26.05,5.65 25.75,5.2 C25.95,4.95 26.2,4.85 26.5,4.85 C26.8,4.95 26.9,5.2 27.05,5.45 C27.15,5.65 27.25,5.85 27.35,6.05 C27.2,6.35 27,6.55 26.6,6.6 Z" id="Shape" fill="#B6CCCC"/>
          <path d="M16.75,5.6 C16.4,5.2 16.1,4.85 15.7,4.45 C15.75,4.15 15.9,3.85 16.35,3.7 C16.7,3.95 17.05,4.25 17.45,4.55 C17.25,4.95 17.1,5.3 16.75,5.6 Z" id="Shape" fill="#C1D9D9"/>
          <path d="M28.6,8.15 C28.4,8.55 28.2,8.85 27.85,9.1 C27.5,8.7 27.4,8.2 27.25,7.8 C27.35,7.4 27.65,7.3 27.9,7.15 C28.05,7.2 28.15,7.2 28.15,7.25 C28.3,7.55 28.45,7.85 28.6,8.15 Z" id="Shape" fill="#B7CDCE"/>
          <path d="M31.25,12.45 C30.85,11.9 30.85,11.45 30.75,11 C30.6,10.5 30.9,10.3 31.25,10.05 C31.6,10.45 31.7,10.9 31.9,11.3 C31.8,11.8 31.3,11.95 31.25,12.45 Z" id="Shape" fill="#B6CCCC"/>
          <path d="M30.3,26.95 C29.85,27 29.55,27 29.2,26.75 C29.5,26.3 29.75,25.85 30,25.45 C30.45,25.3 30.65,25.6 30.95,25.65 C30.95,25.75 31,25.85 30.95,25.9 C30.7,26.3 30.5,26.6 30.3,26.95 Z" id="Shape" fill="#C2DADA"/>
          <path d="M15.25,3 C15.1,3.35 14.95,3.5 14.7,3.6 C14.4,3.65 14.2,3.45 13.95,3.3 C13.75,3.15 13.4,3.1 13.35,2.75 C13.6,2.45 13.9,2.2 14.35,2.1 C14.7,2.4 14.95,2.7 15.25,3 Z" id="Shape" fill="#BBD2D3"/>
          <path d="M8,28.3 C8.35,28.05 8.6,27.85 8.9,27.65 C9.25,28 9.45,28.4 9.7,28.8 C9.5,29.1 9.25,29.3 8.9,29.3 C8.8,29.25 8.7,29.2 8.65,29.1 C8.45,28.9 8.25,28.65 8,28.3 Z" id="Shape" fill="#BBD2D3"/>
          <path d="M32.95,20.05 C32.35,19.5 32.35,19.5 32.1,18.65 C32.35,18.25 32.75,18.2 33.2,18.05 C33.35,18.75 33.1,19.4 32.95,20.05 Z" id="Shape" fill="#ADC2C3"/>
          <path d="M13,30.65 C13.2,30.35 13.5,30.15 13.85,30.1 C14.2,30.45 14.5,30.75 14.8,31.1 C13.95,31.6 13.9,31.6 13,30.65 Z" id="Shape" fill="#B5CBCC"/>
          <path d="M24.3,4.95 C24.05,5.3 23.85,5.55 23.5,5.8 C23.1,5.55 22.95,5.1 22.65,4.7 C22.75,4.55 22.85,4.45 22.95,4.35 C23.05,4.25 23.2,4.2 23.35,4.1 C23.8,4.25 24.05,4.55 24.3,4.95 Z" id="Shape" fill="#BBD1D2"/>
          <path d="M5,25.95 C4.5,25.6 4.45,25 4.2,24.6 C4.4,24.25 4.75,24.2 5.05,24 C5.4,24.55 5.5,25.05 5.35,25.6 C5.35,25.75 5.15,25.85 5,25.95 Z" id="Shape" fill="#B6CCCD"/>
          <path d="M7.25,6 C6.9,6.65 6.5,7.25 6.15,7.85 C5.8,7.8 5.6,7.65 5.4,7.3 C5.9,6.75 6.4,6.2 7.05,5.8 C7.15,5.9 7.2,5.95 7.25,6 Z" id="Shape" fill="#ACC1C2"/>
          <path d="M21.3,13.05 C21.45,13.7 21.55,14.35 21.45,15 C21.4,15.25 21.25,15.45 21,15.45 C20.9,15.45 20.7,15.35 20.7,15.3 C20.65,14.55 21,13.8 21.3,13.05 Z" id="Shape" fill="#A7BBBB"/>
          <path d="M22.65,3.2 C22.55,3.5 22.3,3.65 22,3.8 C21.65,3.5 21.3,3.2 20.95,2.9 C21.15,2.5 21.45,2.45 21.8,2.45 C22.1,2.6 22.4,2.9 22.65,3.2 Z" id="Shape" fill="#B7CDCD"/>
          <path d="M20.6,31.45 C20.85,30.95 21.2,30.7 21.6,30.45 C22,30.6 22.3,30.8 22.5,31.25 C21.9,31.55 21.3,31.5 20.6,31.45 Z" id="Shape" fill="#B7CECE"/>
          <path d="M2.2,21.45 C1.85,20.85 2.05,20.2 1.8,19.7 C2,19.4 2.2,19.45 2.3,19.6 C2.55,20 2.75,20.45 2.75,20.95 C2.7,21.1 2.7,21.15 2.2,21.45 Z" id="Shape" fill="#B4CACB"/>
          <path d="M9.25,6.35 C8.95,6.2 8.8,6.05 8.7,5.8 C9.05,5.3 9.4,4.75 10.1,4.35 C10.15,5.2 9.7,5.7 9.25,6.35 Z" id="Shape" fill="#B2C8C9"/>
          <path d="M10.3,29.7 C10.65,29.95 10.9,30.15 11,30.45 C10.95,30.65 10.8,30.7 10.65,30.75 C10.05,30.95 9.8,30.6 9.55,30.1 C9.8,30 10.05,29.85 10.3,29.7 Z" id="Shape" fill="#B5CBCB"/>
          <path d="M27.5,14.55 C27.45,13.9 27.45,13.35 27.6,12.75 C27.85,12.7 27.95,12.85 27.95,13 C28,13.35 28.1,13.7 28.15,14.05 C28.15,14.45 27.95,14.55 27.5,14.55 Z" id="Shape" fill="#91A3A3"/>
          <path d="M8.5,13.55 C8.85,14.15 8.8,14.8 8.8,15.4 C8.8,15.5 8.7,15.6 8.6,15.65 C8.5,15.65 8.35,15.55 8.35,15.5 C8.2,14.8 8.3,14.15 8.5,13.55 Z" id="Shape" fill="#99ABAC"/>
          <path d="M6.1,15.25 C5.75,15.45 5.5,15.45 5.4,15.2 C5.3,14.85 5.4,14.35 5.6,13.7 C5.95,14.2 5.95,14.75 6.1,15.25 Z" id="Shape" fill="#93A5A6"/>
          <path d="M25.45,30.85 C25.85,30.3 26.2,29.7 27.1,30.1 C26.7,30.7 26.05,30.7 25.45,30.85 Z" id="Shape" fill="#9AADAD"/>
          <path d="M24.75,21.75 C24.6,21.35 24.45,20.9 24.3,20.55 C24.45,20.3 24.6,20.25 24.9,20.3 C25.15,20.75 24.95,21.25 25,21.7 C24.9,21.7 24.85,21.7 24.75,21.75 Z" id="Shape" fill="#C5DDDD"/>
          <path d="M14.85,13.75 C15.3,14.4 15.3,15.05 15.1,15.7 C15.1,15.75 15,15.8 14.9,15.8 C14.75,15.85 14.65,15.7 14.65,15.6 C14.6,15.05 14.75,14.45 14.85,13.75 Z" id="Shape" fill="#AEC2C3"/>
          <path d="M5.85,26.55 C6.2,26.95 6.35,27.45 6.5,27.9 C6.35,28.15 6.15,28.1 6.05,27.9 C5.85,27.55 5.65,27.25 5.5,26.85 C5.4,26.75 5.55,26.6 5.85,26.55 Z" id="Shape" fill="#9CAEAF"/>
          <path d="M20,2.15 C19.55,2 19.25,1.8 18.9,1.5 C19.55,1.3 20.1,1.45 20.7,1.45 C20.65,1.6 20.65,1.7 20.6,1.75 C20.4,1.9 20.2,2 20,2.15 Z" id="Shape" fill="#A9BEBF"/>
          <path d="M11.8,21.1 C12.15,21 12.35,21.05 12.55,21.2 C12.6,21.7 12.45,22.15 11.95,22.65 C11.85,22.05 11.85,21.6 11.8,21.1 Z" id="Shape" fill="#B9CFD0"/>
          <path d="M27.5,19.85 C27.65,19.6 27.85,19.55 28.05,19.5 C28.3,19.6 28.3,19.85 28.15,21.05 C27.55,20.75 27.7,20.2 27.5,19.85 Z" id="Shape" fill="#869797"/>
          <path d="M11.85,13.85 C11.7,14.65 12.15,15.35 11.45,15.95 C11.25,15.2 11.3,14.6 11.85,13.85 Z" id="Shape" fill="#93A4A5"/>
          <path d="M30.1,12.1 C30.1,12.85 30.1,13.35 30.1,13.85 C30.1,13.95 30,14.05 29.85,14.05 C29.8,14.05 29.7,14 29.65,13.95 C29.55,13.35 29.55,12.8 30.1,12.1 Z" id="Shape" fill="#94A5A6"/>
          <path d="M29.9,19.1 C30.2,18.9 30.35,18.85 30.6,19.05 C30.65,19.45 30.7,19.9 30.55,20.4 C30.05,20.05 30.05,19.55 29.9,19.1 Z" id="Shape" fill="#ABBFC0"/>
          <path d="M30.8,9.25 C30.55,9.35 30.45,9.4 30.35,9.4 C29.8,8.7 29.8,8.7 29.95,8 C30.45,8.3 30.45,8.8 30.8,9.25 Z" id="Shape" fill="#ACC0C1"/>
          <path d="M26.1,28.45 C26.4,28.05 26.65,27.6 27,27.2 C27.15,27.05 27.35,27.05 27.5,27.35 C27.15,27.85 26.8,28.3 26.1,28.45 Z" id="Shape" fill="#9FB2B2"/>
          <path d="M25.05,4.3 C24.8,4.1 24.65,3.95 24.55,3.7 C24.65,3.5 24.8,3.4 25.05,3.35 C25.35,3.4 25.55,3.65 25.75,3.9 C25.65,4.2 25.35,4.25 25.05,4.3 Z" id="Shape" fill="#AEC2C3"/>
          <path d="M18.7,22.15 C18.3,21.9 18.3,21.55 18.25,21.2 C18.25,21.05 18.4,20.95 18.55,20.95 C18.65,20.95 18.8,21.05 18.8,21.15 C18.95,21.45 18.85,21.75 18.7,22.15 Z" id="Shape" fill="#91A2A3"/>
          <path d="M16.6,1.55 C16.05,2.4 16,2.45 15.35,1.75 C15.75,1.65 16.1,1.4 16.6,1.55 Z" id="Shape" fill="#869696"/>
          <path d="M3.3,15.2 C2.85,14.8 3,14.5 3.05,14.15 C3.5,14.4 3.5,14.4 3.3,15.2 Z" id="Shape" fill="#555F5F"/>
          <path d="M21.75,20.8 C21.75,21.05 21.75,21.4 21.6,21.75 C21.15,21.3 21.15,21.1 21.35,20.75 C21.4,20.65 21.55,20.65 21.75,20.8 Z" id="Shape" fill="#93A5A6"/>
          <path d="M32.2,12.5 C32.7,13.1 32.65,13.2 31.85,13.35 C31.75,13 31.95,12.75 32.2,12.5 Z" id="Shape" fill="#8B9B9C"/>
          <path d="M2.25,13.45 C2.4,13.95 2.35,14.35 2.3,14.75 C2,14.9 1.85,14.8 1.85,14.6 C1.85,14.2 1.9,13.8 2.25,13.45 Z" id="Shape" fill="#9AACAD"/>
          <path d="M29,6.5 C29.3,6.75 29.6,6.9 29.55,7.3 C29.55,7.35 29.5,7.4 29.45,7.4 C29,7.3 28.9,7 29,6.5 Z" id="Shape" fill="#5F6A6B"/>
          <path d="M15.35,21.75 C15.2,21.55 15.2,21.35 15.25,21.15 C15.3,21.05 15.4,20.95 15.5,21 C15.6,21.05 15.7,21.15 15.7,21.25 C15.7,21.45 15.65,21.65 15.35,21.75 Z" id="Shape" fill="#636E6F"/>
          <path d="M23.25,2.5 C23.6,2.35 23.85,2.4 24.05,2.8 C23.65,3 23.45,2.85 23.25,2.5 Z" id="Shape" fill="#4A5354"/>
        </g>
      </g>
    </g>
  </g>
</svg>