<svg version="1.1" width="597" height="417" viewBox="-1 -1 597 417" xmlns="http://www.w3.org/2000/svg" xmlns:xlink="http://www.w3.org/1999/xlink">
  <!-- Exported by Scratch - http://scratch.mit.edu/ -->
  <path id="Rectangle-path" fill="#000000" stroke="none" stroke-width="1" d="M -2 -2 L 482 -2 L 482 361 L -2 361 L -2 -2 Z " transform="matrix(1, 0, 0, 1, 1, 0)"/>
  <path id="Rectangle-path" fill="#FFFFFF" stroke="none" stroke-width="1" d="M -19.545 8.890 L 299.895 8.890 L 299.895 380.360 L -19.545 380.360 L -19.545 8.890 Z " transform="matrix(1, 0, 0, 1, 1, 0)"/>
  <path id="Shape" fill="#000000" stroke="none" stroke-width="1" d="M 207.935 8.890 L 299.290 98.430 L 299.895 8.890 L 207.935 8.890 " transform="matrix(1, 0, 0, 1, 1, 0)"/>
  <path id="Shape" fill="#FAFAF0" stroke="none" stroke-width="1" d="M 142.922 312.896 L 89.839 312.896 L 89.839 241.428 L 170.891 241.428 L 142.922 312.896 " transform="matrix(1, 0, 0, 1, 1, 0)"/>
  <path id="Shape" fill="#3C3C32" stroke="none" stroke-width="1" d="M 329.141 413.084 L 294.680 413.084 L 303.616 10.705 L 309.998 10.693 L 329.141 413.084 " transform="matrix(1, 0, 0, 1, 1, 0)"/>
  <path id="Shape" fill="#3C3C32" stroke="none" stroke-width="1" d="M 464.522 78.604 C 461.140 70.957 457.752 70.491 449.681 70.019 C 448.586 66.946 448.677 60.993 449.881 54.791 C 454.273 56.413 459.325 55.136 463.560 57.284 C 468.133 59.601 469.313 64.266 470.820 68.731 C 474.353 102.562 471.310 204.747 470.820 221.136 C 470.529 230.677 471.661 243.152 467.141 251.931 C 462.809 260.352 453.148 261.242 444.653 260.237 C 444.111 257.349 443.922 254.405 444.091 251.471 C 451.544 249.704 458.931 248.887 462.283 240.932 C 465.798 232.577 463.977 221.384 464.310 212.557 C 464.866 198.201 466.621 109.048 464.522 78.604 Z " transform="matrix(1, 0, 0, 1, 1, 0)"/>
  <path id="Shape" fill="#828278" stroke="none" stroke-width="1" d="M 468.835 78.604 C 465.453 70.957 462.065 70.491 453.995 70.019 C 452.899 66.946 452.990 60.993 454.194 54.791 C 458.587 56.413 463.638 55.136 467.873 57.284 C 472.447 59.601 473.627 64.266 475.133 68.731 C 478.666 102.562 475.623 204.747 475.133 221.136 C 474.843 230.677 475.974 243.152 471.455 251.931 C 467.123 260.352 457.461 261.242 448.967 260.237 C 448.432 257.356 448.249 254.420 448.423 251.495 C 455.876 249.728 463.263 248.912 466.615 240.956 C 470.130 232.601 468.309 221.408 468.642 212.581 C 469.186 198.201 470.935 109.048 468.835 78.604 Z " transform="matrix(1, 0, 0, 1, 1, 0)"/>
  <path id="Shape" fill="#FAFAF0" stroke="none" stroke-width="1" d="M 458.018 392.660 C 458.423 288.291 459.228 39.945 458.205 16.713 C 457.600 2.350 449.282 5.441 437.635 4.129 L 359.530 392.660 L 458.018 392.660 Z " transform="matrix(1, 0, 0, 1, 1, 0)"/>
  <path id="Shape" fill="#828278" stroke="none" stroke-width="1" d="M 309.992 4.304 L 309.992 402.231 L 437.617 402.231 L 437.617 4.141 C 436.304 4.189 381.655 4.207 309.992 4.304 Z " transform="matrix(1, 0, 0, 1, 1, 0)"/>
  <path id="Shape" fill="#FFFFFF" stroke="none" stroke-width="1" d="M 429.292 281.309 L 430.575 16.809 C 414.984 15.339 324.416 16.150 324.416 16.150 L 320.677 281.285 L 429.292 281.309 Z " transform="matrix(1, 0, 0, 1, 1, 0)"/>
  <path id="Shape" fill="#E6E6DC" stroke="none" stroke-width="1" d="M 389.865 156.377 L 385.902 130.078 L 334.283 130.180 L 327.840 156.062 L 389.865 156.377 " transform="matrix(1, 0, 0, 1, 1, 0)"/>
  <path id="Shape" fill="#C8C8BE" stroke="none" stroke-width="1" d="M 385.902 130.078 L 419.897 130.265 L 424.773 157.829 L 376.754 157.454 L 385.902 130.078 " transform="matrix(1, 0, 0, 1, 1, 0)"/>
  <path id="Shape" fill="#FFDC00" stroke="none" stroke-width="1" d="M 383.373 137.598 L 341.337 137.580 L 341.337 161.017 L 383.875 161.017 L 383.373 137.598 " transform="matrix(1, 0, 0, 1, 1, 0)"/>
  <path id="Shape" fill="#FFC800" stroke="none" stroke-width="1" d="M 383.373 137.598 L 374.631 161.017 L 396.647 161.017 L 396.647 137.580 L 383.373 137.598 " transform="matrix(1, 0, 0, 1, 1, 0)"/>
  <path id="Rectangle-path" fill="#FAB414" stroke="none" stroke-width="1" d="M 395.788 137.580 L 413.308 137.580 L 413.308 161.017 L 395.788 161.017 L 395.788 137.580 Z " transform="matrix(1, 0, 0, 1, 1, 0)"/>
  <path id="Shape" fill="#828278" stroke="none" stroke-width="1" d="M 398.183 196.670 C 398.183 196.670 410.102 208.770 410.223 209.817 C 408.970 209.853 389.616 213.289 389.616 213.289 L 372.852 208.879 L 398.183 196.670 Z " transform="matrix(1, 0, 0, 1, 1, 0)"/>
  <path id="Shape" fill="#828278" stroke="none" stroke-width="1" d="M 410.556 186.197 L 388.521 185.865 C 388.521 186.143 388.310 190.590 388.649 190.995 C 389.253 191.679 398.782 192.084 401.317 192.266 C 402.497 192.350 410.749 191.055 410.749 191.055 C 410.749 191.055 410.671 186.760 410.556 186.197 Z " transform="matrix(1, 0, 0, 1, 1, 0)"/>
  <path id="Shape" fill="#C8C8BE" stroke="none" stroke-width="1" d="M 372.852 208.873 L 388.649 190.995 C 388.649 190.995 399.339 194.020 401.287 196.150 C 397.736 198.521 372.852 208.873 372.852 208.873 Z " transform="matrix(1, 0, 0, 1, 1, 0)"/>
  <path id="Shape" fill="#E6E6DC" stroke="none" stroke-width="1" d="M 425.832 209.665 C 424.700 209.823 412.812 211.565 412.812 211.565 L 405.716 209.520 C 405.716 209.520 393.513 196.355 388.588 190.995 C 390.264 190.390 410.749 191.068 410.749 191.068 C 410.749 191.068 423.920 206.483 425.832 209.665 Z " transform="matrix(1, 0, 0, 1, 1, 0)"/>
  <path id="Shape" fill="#C8C8BE" stroke="none" stroke-width="1" d="M 425.541 279.192 L 406.442 279.615 L 396.858 247.817 L 405.716 209.526 L 425.832 209.671 C 425.832 209.671 426.092 254.012 425.935 261.968 C 425.868 265.235 425.541 279.192 425.541 279.192 Z " transform="matrix(1, 0, 0, 1, 1, 0)"/>
  <path id="Shape" fill="#E6E6DC" stroke="none" stroke-width="1" d="M 405.716 209.520 C 405.716 209.520 377.075 208.794 372.852 208.873 C 372.634 212.811 374.062 277.788 374.062 277.788 L 375.526 278.774 C 375.526 278.774 377.831 278.823 378.829 278.865 C 380.735 278.938 382.641 279.113 384.553 279.162 C 388.413 279.258 392.260 279.313 396.120 279.464 C 397.905 279.537 406.472 279.615 406.472 279.615 L 405.716 209.520 Z " transform="matrix(1, 0, 0, 1, 1, 0)"/>
  <path id="Shape" fill="#FFFFFF" stroke="none" stroke-width="1" d="M 399.684 216.496 C 399.684 216.496 381.570 215.975 378.902 216.030 C 378.763 218.849 379.083 272.724 379.507 273.420 C 379.930 274.116 400.500 273.965 400.500 273.965 L 399.684 216.496 Z " transform="matrix(1, 0, 0, 1, 1, 0)"/>
  <path id="Shape" fill="#FAFAF0" stroke="none" stroke-width="1" d="M 376.990 173.148 L 339.982 281.624 L 322.582 281.624 L 322.582 174.424 L 376.990 173.148 " transform="matrix(1, 0, 0, 1, 1, 0)"/>
  <path id="Shape" fill="#000000" stroke="none" stroke-width="1" d="M 428.978 344.483 L 429.286 281.945 L 320.671 281.945 L 319.787 344.483 L 428.978 344.483 " transform="matrix(1, 0, 0, 1, 1, 0)"/>
  <path id="Shape" fill="#FAFAF0" stroke="none" stroke-width="1" d="M 319.775 345.119 L 318.928 405.340 C 354.406 405.582 393.343 408.238 428.687 404.191 L 428.978 345.119 L 319.775 345.119 Z " transform="matrix(1, 0, 0, 1, 1, 0)"/>
  <path id="Rectangle-path" fill="#E6E6DC" stroke="none" stroke-width="1" d="M 318.293 16.168 L 324.422 16.168 L 324.422 391.383 L 318.293 391.383 L 318.293 16.168 Z " transform="matrix(1, 0, 0, 1, 1, 0)"/>
  <path id="Rectangle-path" fill="#A0AA1E" stroke="none" stroke-width="1" d="M 408.244 302.920 L 412.976 302.920 L 412.976 305.401 L 408.244 305.401 L 408.244 302.920 Z " transform="matrix(1, 0, 0, 1, 1, 0)"/>
  <path id="Rectangle-path" fill="#BE0A3C" stroke="none" stroke-width="1" d="M 406.127 309.980 L 415.020 309.980 L 415.020 315.105 L 406.127 315.105 L 406.127 309.980 Z " transform="matrix(1, 0, 0, 1, 1, 0)"/>
  <path id="Shape" fill="#645A1E" stroke="none" stroke-width="1" d="M 416.406 309.714 C 412.594 309.781 408.722 309.563 404.754 309.672 L 404.754 313.030 L 416.406 313.030 L 416.406 309.714 Z " transform="matrix(1, 0, 0, 1, 1, 0)"/>
  <path id="Shape" fill="#A0AA1E" stroke="none" stroke-width="1" d="M 411.348 296.985 L 409.866 297.033 L 408.801 306.677 L 412.546 306.865 L 411.348 296.985 " transform="matrix(1, 0, 0, 1, 1, 0)"/>
  <path id="Shape" fill="#82783C" stroke="none" stroke-width="1" d="M 417.549 306.018 C 412.988 306.133 408.359 305.745 403.634 305.939 L 403.634 311.904 L 417.549 311.904 L 417.549 306.018 Z " transform="matrix(1, 0, 0, 1, 1, 0)"/>
  <path id="Shape" fill="#82783C" stroke="none" stroke-width="1" d="M 415.341 304.953 C 412.225 305.019 409.061 304.802 405.824 304.910 L 405.824 308.268 L 415.341 308.268 L 415.341 304.953 Z " transform="matrix(1, 0, 0, 1, 1, 0)"/>
  <path id="Shape" fill="#F01446" stroke="none" stroke-width="1" d="M 422.583 330.381 C 422.444 328.342 422.244 325.989 422.129 325.541 C 421.379 322.437 420.187 317.555 417.071 315.310 C 409.454 312.969 403.156 314.209 400.216 320.411 C 399.048 322.831 398.613 325.438 398.183 328.015 C 398.147 328.221 398.056 329.667 398.014 330.393 L 412.298 333.146 L 422.583 330.381 Z " transform="matrix(1, 0, 0, 1, 1, 0)"/>
  <path id="Shape" fill="#BE0A3C" stroke="none" stroke-width="1" d="M 422.474 345.875 C 422.637 338.887 422.843 331.960 422.583 327.955 L 398.020 327.955 C 397.857 331.246 397.911 338.433 397.941 345.875 L 422.474 345.875 Z " transform="matrix(1, 0, 0, 1, 1, 0)"/>
  <path id="Rectangle-path" fill="#F04650" stroke="none" stroke-width="1" d="M 399.254 333.091 L 411.378 333.091 L 411.378 345.875 L 399.254 345.875 L 399.254 333.091 Z " transform="matrix(1, 0, 0, 1, 1, 0)"/>
  <path id="Rectangle-path" fill="#FFDC00" stroke="none" stroke-width="1" d="M 379.307 312.358 L 384.038 312.358 L 384.038 314.839 L 379.307 314.839 L 379.307 312.358 Z " transform="matrix(1, 0, 0, 1, 1, 0)"/>
  <path id="Rectangle-path" fill="#FFC800" stroke="none" stroke-width="1" d="M 377.190 319.424 L 386.083 319.424 L 386.083 324.549 L 377.190 324.549 L 377.190 319.424 Z " transform="matrix(1, 0, 0, 1, 1, 0)"/>
  <path id="Shape" fill="#E6821E" stroke="none" stroke-width="1" d="M 387.469 319.158 C 383.657 319.225 379.785 319.007 375.816 319.116 L 375.816 322.474 L 387.469 322.474 L 387.469 319.158 Z " transform="matrix(1, 0, 0, 1, 1, 0)"/>
  <path id="Shape" fill="#FFDC00" stroke="none" stroke-width="1" d="M 382.411 306.423 L 380.929 306.471 L 379.864 316.121 L 383.609 316.303 L 382.411 306.423 " transform="matrix(1, 0, 0, 1, 1, 0)"/>
  <path id="Shape" fill="#FFC800" stroke="none" stroke-width="1" d="M 388.612 315.462 C 384.050 315.577 379.422 315.189 374.697 315.383 L 374.697 321.348 L 388.612 321.348 L 388.612 315.462 Z " transform="matrix(1, 0, 0, 1, 1, 0)"/>
  <path id="Shape" fill="#FFC800" stroke="none" stroke-width="1" d="M 386.410 314.415 C 383.294 314.482 380.130 314.264 376.893 314.373 L 376.893 317.730 L 386.410 317.730 L 386.410 314.415 Z " transform="matrix(1, 0, 0, 1, 1, 0)"/>
  <path id="Shape" fill="#FFDC00" stroke="none" stroke-width="1" d="M 392.902 333.963 L 386.083 324.543 L 377.190 324.543 L 369.803 333.902 L 383.361 336.516 L 392.902 333.963 " transform="matrix(1, 0, 0, 1, 1, 0)"/>
  <path id="Shape" fill="#FFC800" stroke="none" stroke-width="1" d="M 394.227 345.875 C 394.051 341.174 393.845 336.879 393.622 333.775 L 369.059 333.775 C 368.932 336.383 368.780 340.811 368.647 345.875 L 394.227 345.875 Z " transform="matrix(1, 0, 0, 1, 1, 0)"/>
  <path id="Shape" fill="#828278" stroke="none" stroke-width="1" d="M 312.630 178.562 L 324.337 154.592 L 324.494 188.273 L 312.630 178.562 " transform="matrix(1, 0, 0, 1, 1, 0)"/>
  <path id="Shape" fill="#C8C8BE" stroke="none" stroke-width="1" d="M 424.858 159.499 L 414.748 153.872 L 312.769 153.243 L 312.630 178.913 L 414.899 179.524 L 424.858 159.499 " transform="matrix(1, 0, 0, 1, 1, 0)"/>
  <path id="Shape" fill="#828278" stroke="none" stroke-width="1" d="M 414.936 179.597 L 414.748 153.872 L 432.765 154.084 L 432.862 186.367 L 414.936 179.597 " transform="matrix(1, 0, 0, 1, 1, 0)"/>
  <path id="Shape" fill="#828278" stroke="none" stroke-width="1" d="M 312.630 294.069 L 324.337 270.099 L 324.494 302.497 L 312.630 294.069 " transform="matrix(1, 0, 0, 1, 1, 0)"/>
  <path id="Shape" fill="#C8C8BE" stroke="none" stroke-width="1" d="M 424.858 275.005 L 414.748 269.373 L 312.769 268.744 L 312.630 294.414 L 414.899 295.025 L 424.858 275.005 " transform="matrix(1, 0, 0, 1, 1, 0)"/>
  <path id="Shape" fill="#828278" stroke="none" stroke-width="1" d="M 414.936 295.097 L 414.748 269.373 L 432.765 269.591 L 432.862 301.226 L 414.936 295.097 " transform="matrix(1, 0, 0, 1, 1, 0)"/>
  <path id="Shape" fill="#828278" stroke="none" stroke-width="1" d="M 312.630 361.060 L 324.337 337.090 L 324.494 369.488 L 312.630 361.060 " transform="matrix(1, 0, 0, 1, 1, 0)"/>
  <path id="Shape" fill="#C8C8BE" stroke="none" stroke-width="1" d="M 424.858 341.997 L 414.748 336.364 L 312.769 335.735 L 312.630 361.405 L 414.899 362.016 L 424.858 341.997 " transform="matrix(1, 0, 0, 1, 1, 0)"/>
  <path id="Shape" fill="#828278" stroke="none" stroke-width="1" d="M 414.936 362.089 L 414.748 336.364 L 432.765 336.582 L 432.862 368.218 L 414.936 362.089 " transform="matrix(1, 0, 0, 1, 1, 0)"/>
  <path id="Shape" fill="#FAFAF0" stroke="none" stroke-width="1" d="M 57.931 25.104 L -45.439 229.939 L -46.716 23.827 L 57.931 25.104 " transform="matrix(1, 0, 0, 1, 1, 0)"/>
  <path id="Rectangle-path" fill="#000000" stroke="none" stroke-width="1" d="M -38.657 25.915 L 96.748 25.915 L 96.748 67.998 L -38.657 67.998 L -38.657 25.915 Z " transform="matrix(1, 0, 0, 1, 1, 0)"/>
  <path id="Shape" fill="#C8C8BE" stroke="none" stroke-width="1" d="M -30.792 14.141 L -30.792 23.410 C 48.959 24.160 257.714 24.076 257.714 24.076 C 257.714 24.076 255.198 49.885 275.495 52.359 C 280.335 52.964 287.922 52.807 299.617 52.686 L 299.617 14.281 C 299.617 14.281 6.797 13.905 -30.792 14.141 Z " transform="matrix(1, 0, 0, 1, 1, 0)"/>
  <path id="Rectangle-path" fill="#64645A" stroke="none" stroke-width="1" d="M 86.947 14.783 L 101.679 14.783 L 101.679 382.036 L 86.947 382.036 L 86.947 14.783 Z " transform="matrix(1, 0, 0, 1, 1, 0)"/>
  <path id="Shape" fill="#FFFFFF" stroke="none" stroke-width="1" d="M 290.723 33.889 C 290.596 29.502 287.444 21.861 278.405 21.861 C 272.755 21.861 266.082 25.915 266.009 32.751 C 265.936 39.588 269.288 45.716 277.734 45.716 C 286.180 45.716 290.941 41.560 290.723 33.889 Z " transform="matrix(1, 0, 0, 1, 1, 0)"/>
  <path id="Shape" fill="#FFFFFF" stroke="none" stroke-width="1" d="M 289.005 33.870 C 288.896 30.089 286.180 23.507 278.393 23.507 C 273.553 23.507 267.769 27.004 267.709 32.872 C 267.649 38.741 270.534 44.041 277.813 44.041 C 285.091 44.041 289.205 40.465 289.005 33.870 Z " transform="matrix(1, 0, 0, 1, 1, 0)"/>
  <path id="Shape" fill="none" stroke="#C8C8BE" stroke-width="0.605" d="M 278.424 20.064 L 278.424 47.326 " transform="matrix(1, 0, 0, 1, 1, 0)"/>
  <path id="Shape" fill="none" stroke="#C8C8BE" stroke-width="0.605" d="M 292.054 33.695 L 264.793 33.695 " transform="matrix(1, 0, 0, 1, 1, 0)"/>
  <path id="Shape" fill="none" stroke="#C8C8BE" stroke-width="0.605" d="M 288.061 24.057 L 268.786 43.333 " transform="matrix(1, 0, 0, 1, 1, 0)"/>
  <path id="Shape" fill="none" stroke="#C8C8BE" stroke-width="0.605" d="M 288.061 43.333 L 268.786 24.057 " transform="matrix(1, 0, 0, 1, 1, 0)"/>
  <path id="Shape" fill="#C8C8BE" stroke="none" stroke-width="1" d="M 286.960 33.852 C 286.869 30.827 284.679 25.485 278.393 25.485 C 274.461 25.485 269.820 28.304 269.766 33.048 C 269.712 37.791 272.047 42.062 277.921 42.062 C 283.796 42.062 287.117 39.176 286.960 33.852 Z " transform="matrix(1, 0, 0, 1, 1, 0)"/>
  <path id="Shape" fill="#828278" stroke="none" stroke-width="1" d="M 275.423 39.322 C 274.443 38.774 273.636 37.963 273.094 36.980 C 273.033 35.770 279.627 29.170 281.291 28.244 C 282.204 28.689 282.964 29.394 283.475 30.271 C 282.459 32.055 277.159 38.493 275.423 39.322 Z " transform="matrix(1, 0, 0, 1, 1, 0)"/>
  <path id="Shape" fill="#828278" stroke="none" stroke-width="1" d="M 303.616 4.316 C 167.739 4.504 -24.445 4.970 -33.587 6.506 L -33.587 17.166 L 294.988 17.166 L 294.988 393.325 L -33.587 393.325 L -33.587 402.231 L 304.892 402.231 L 303.616 4.316 Z " transform="matrix(1, 0, 0, 1, 1, 0)"/>
  <path id="Shape" fill="#FAFAF0" stroke="none" stroke-width="1" d="M 99.743 394.571 L 294.244 394.571 C 294.801 369.881 295.134 340.224 294.644 328.227 L 99.785 328.227 C 99.785 328.227 99.761 391.250 99.743 394.571 Z " transform="matrix(1, 0, 0, 1, 1, 0)"/>
  <path id="Shape" fill="#A0AA1E" stroke="none" stroke-width="1" d="M 141.929 373.100 C 148.784 360.504 141.566 350.661 130.543 348.470 C 123.985 347.164 116.114 347.412 111.093 358.368 C 105.394 370.801 112.200 377.383 116.501 379.676 C 120.803 381.969 135.075 385.684 141.929 373.100 Z " transform="matrix(1, 0, 0, 1, 1, 0)"/>
  <path id="Shape" fill="#A0AA1E" stroke="none" stroke-width="1" d="M 141.929 373.100 C 148.784 360.504 141.566 350.661 130.543 348.470 C 123.985 347.164 116.114 347.412 111.093 358.368 C 105.394 370.801 112.200 377.383 116.501 379.676 C 120.803 381.969 135.075 385.684 141.929 373.100 Z " transform="matrix(1, 0, 0, 1, 1, 0)"/>
  <path id="Shape" fill="#DCE614" stroke="none" stroke-width="1" d="M 137.755 345.222 C 139.364 343.455 142.383 341.392 144.767 342.681 C 146.957 343.891 146.546 347.012 144.089 349.100 C 142.020 350.854 138.076 351.641 137.265 351.907 C 136.362 352.133 135.444 352.297 134.518 352.397 C 133.744 352.536 132.600 353.335 131.790 353.038 C 133.503 350.234 135.502 347.614 137.755 345.222 Z " transform="matrix(1, 0, 0, 1, 1, 0)"/>
  <path id="Shape" fill="#000000" stroke="none" stroke-width="1" d="M 131.705 353.014 L 132.219 341.598 L 133.520 341.598 C 133.520 341.598 135.335 348.525 131.705 353.014 Z " transform="matrix(1, 0, 0, 1, 1, 0)"/>
  <path id="Shape" fill="#F01446" stroke="none" stroke-width="1" d="M 243.890 375.708 C 245.263 358.163 232.238 350.739 218.783 353.807 C 210.779 355.622 202.079 359.857 201.939 374.643 C 201.788 391.438 212.708 395.400 218.680 395.818 C 224.651 396.235 242.517 393.265 243.890 375.708 Z " transform="matrix(1, 0, 0, 1, 1, 0)"/>
  <path id="Shape" fill="#F01446" stroke="none" stroke-width="1" d="M 243.890 375.708 C 245.263 358.163 232.238 350.739 218.783 353.807 C 210.779 355.622 202.079 359.857 201.939 374.643 C 201.788 391.438 212.708 395.400 218.680 395.818 C 224.651 396.235 242.517 393.265 243.890 375.708 Z " transform="matrix(1, 0, 0, 1, 1, 0)"/>
  <path id="Shape" fill="#DCE614" stroke="none" stroke-width="1" d="M 223.695 346.395 C 224.615 343.606 226.962 339.783 230.284 340.031 C 233.309 340.261 234.446 344 232.740 347.563 C 231.300 350.588 227.295 353.431 226.496 354.127 C 225.596 354.835 224.648 355.480 223.659 356.057 C 222.860 356.602 221.977 358.072 220.918 358.144 C 221.436 354.143 222.366 350.205 223.695 346.395 Z " transform="matrix(1, 0, 0, 1, 1, 0)"/>
  <path id="Shape" fill="#000000" stroke="none" stroke-width="1" d="M 220.640 358.701 L 218.771 344.786 L 220.319 344.508 C 220.319 344.508 224.010 352.494 220.640 358.701 Z " transform="matrix(1, 0, 0, 1, 1, 0)"/>
  <path id="Shape" fill="#000000" stroke="none" stroke-width="1" d="M 285.926 375.429 C 286.204 356.124 286.289 337.217 285.926 328.239 L 108.491 328.239 C 108.491 328.239 108.491 355.809 108.491 375.429 L 285.926 375.429 Z " transform="matrix(1, 0, 0, 1, 1, 0)"/>
  <path id="Shape" fill="#828278" stroke="none" stroke-width="1" d="M 215.195 331.748 C 213.779 351.066 179.591 351.435 179.470 331.452 L 215.195 331.748 Z " transform="matrix(1, 0, 0, 1, 1, 0)"/>
  <path id="Shape" fill="#C8C8BE" stroke="none" stroke-width="1" d="M 207.614 332.843 C 206.798 343.975 187.093 344.187 187.044 332.674 L 207.614 332.843 Z " transform="matrix(1, 0, 0, 1, 1, 0)"/>
  <path id="Shape" fill="#C8C8BE" stroke="none" stroke-width="1" d="M 298.382 335.457 C 298.485 330.544 298.522 325.644 298.497 320.683 L 97.184 320.683 C 97.051 325.601 96.942 330.968 96.905 335.457 L 298.382 335.457 Z " transform="matrix(1, 0, 0, 1, 1, 0)"/>
  <path id="Shape" fill="#828278" stroke="none" stroke-width="1" d="M 291.371 335.590 C 291.467 333.563 291.498 331.536 291.479 329.486 L 104.184 329.486 C 104.056 331.518 103.960 333.721 103.923 335.590 L 291.371 335.590 Z " transform="matrix(1, 0, 0, 1, 1, 0)"/>
  <path id="Shape" fill="#FAFAF0" stroke="none" stroke-width="1" d="M -105.733 394.571 L 88.750 394.571 C 89.307 369.881 89.639 340.224 89.149 328.227 L -105.691 328.227 C -105.691 328.227 -105.715 391.250 -105.733 394.571 Z " transform="matrix(1, 0, 0, 1, 1, 0)"/>
  <path id="Shape" fill="#000000" stroke="none" stroke-width="1" d="M 80.026 375.429 C 80.304 356.124 80.389 337.217 80.026 328.239 L -96.555 328.239 C -96.555 328.239 -96.555 355.809 -96.555 375.429 L 80.026 375.429 Z " transform="matrix(1, 0, 0, 1, 1, 0)"/>
  <path id="Shape" fill="#828278" stroke="none" stroke-width="1" d="M 9.707 331.748 C 8.291 351.066 -25.898 351.435 -26.018 331.452 L 9.707 331.748 Z " transform="matrix(1, 0, 0, 1, 1, 0)"/>
  <path id="Shape" fill="#C8C8BE" stroke="none" stroke-width="1" d="M 2.144 332.843 C 1.327 343.975 -18.377 344.187 -18.426 332.674 L 2.144 332.843 Z " transform="matrix(1, 0, 0, 1, 1, 0)"/>
  <path id="Shape" fill="#C8C8BE" stroke="none" stroke-width="1" d="M 92.912 335.457 C 93.015 330.544 93.052 325.644 93.027 320.683 L -108.292 320.683 C -108.426 325.601 -108.534 330.968 -108.571 335.457 L 92.912 335.457 Z " transform="matrix(1, 0, 0, 1, 1, 0)"/>
  <path id="Shape" fill="#828278" stroke="none" stroke-width="1" d="M 85.894 335.590 C 85.991 333.563 86.021 331.536 86.003 329.486 L -101.287 329.486 C -101.414 331.518 -101.510 333.721 -101.547 335.590 L 85.894 335.590 Z " transform="matrix(1, 0, 0, 1, 1, 0)"/>
  <path id="Shape" fill="#C8C8BE" stroke="none" stroke-width="1" d="M 298.292 317.591 C 298.473 315.171 298.540 312.751 298.503 310.331 L -58.979 310.331 C -59.221 312.751 -59.408 315.389 -59.475 317.591 L 298.292 317.591 Z " transform="matrix(1, 0, 0, 1, 1, 0)"/>
  <path id="Shape" fill="#E6E6DC" stroke="none" stroke-width="1" d="M 66.196 155.560 L -22.431 155.560 C -24.123 154.345 -25.538 152.784 -26.581 150.980 C -28.541 147.774 -30.072 141.300 -30.072 141.300 L 72.306 141.300 C 72.306 141.300 71.616 146.703 70.195 150.091 C 69.282 152.187 67.916 154.055 66.196 155.560 Z " transform="matrix(1, 0, 0, 1, 1, 0)"/>
  <path id="Shape" fill="#C8C8BE" stroke="none" stroke-width="1" d="M -23.962 127.543 L 64.665 127.543 C 67.039 129.392 68.985 131.732 70.370 134.403 C 72.506 138.681 72.306 141.809 72.306 141.809 L -30.072 141.809 C -30.072 141.809 -30.502 137.616 -27.834 131.911 C -25.165 126.206 -23.962 127.543 -23.962 127.543 Z " transform="matrix(1, 0, 0, 1, 1, 0)"/>
  <path id="Rectangle-path" fill="#E6E6DC" stroke="none" stroke-width="1" d="M 47.925 134.851 L 55.511 134.851 L 55.511 137.338 L 47.925 137.338 L 47.925 134.851 Z " transform="matrix(1, 0, 0, 1, 1, 0)"/>
  <path id="Shape" fill="#C8C8BE" stroke="none" stroke-width="1" d="M 59.643 156.915 L 53.606 156.915 L 55.632 150.254 L 57.617 150.254 L 59.643 156.915 " transform="matrix(1, 0, 0, 1, 1, 0)"/>
  <path id="Shape" fill="#C8C8BE" stroke="none" stroke-width="1" d="M 43.308 156.915 L 37.271 156.915 L 39.297 150.254 L 41.282 150.254 L 43.308 156.915 " transform="matrix(1, 0, 0, 1, 1, 0)"/>
  <path id="Shape" fill="#C8C8BE" stroke="none" stroke-width="1" d="M 26.973 156.915 L 20.936 156.915 L 22.962 150.254 L 24.947 150.254 L 26.973 156.915 " transform="matrix(1, 0, 0, 1, 1, 0)"/>
  <path id="Shape" fill="#C8C8BE" stroke="none" stroke-width="1" d="M 10.638 156.915 L 4.601 156.915 L 6.627 150.254 L 8.612 150.254 L 10.638 156.915 " transform="matrix(1, 0, 0, 1, 1, 0)"/>
  <path id="Rectangle-path" fill="#FAFAF0" stroke="none" stroke-width="1" d="M -31.361 140.114 L 73.625 140.114 L 73.625 143.200 L -31.361 143.200 L -31.361 140.114 Z " transform="matrix(1, 0, 0, 1, 1, 0)"/>
  <path id="Shape" fill="#3C3C32" stroke="none" stroke-width="1" d="M 114.329 171.901 C 112.061 171.901 111.788 161.072 113.162 158.319 L 116.435 157.950 C 117.239 160.213 116.580 171.901 114.329 171.901 Z " transform="matrix(1, 0, 0, 1, 1, 0)"/>
  <path id="Rectangle-path" fill="#3C3C32" stroke="none" stroke-width="1" d="M 107.209 159.565 L 121.541 159.565 L 121.541 166.541 L 107.209 166.541 L 107.209 159.565 Z " transform="matrix(1, 0, 0, 1, 1, 0)"/>
  <path id="Shape" fill="#3C3C32" stroke="none" stroke-width="1" d="M 284.661 171.901 C 282.392 171.901 282.120 161.072 283.493 158.319 L 286.767 157.950 C 287.571 160.213 286.930 171.901 284.661 171.901 Z " transform="matrix(1, 0, 0, 1, 1, 0)"/>
  <path id="Rectangle-path" fill="#3C3C32" stroke="none" stroke-width="1" d="M 277.274 159.565 L 291.606 159.565 L 291.606 166.541 L 277.274 166.541 L 277.274 159.565 Z " transform="matrix(1, 0, 0, 1, 1, 0)"/>
  <path id="Shape" fill="#C8C8BE" stroke="none" stroke-width="1" d="M 300.415 153.364 L 95.587 153.364 L 95.587 163.165 L 300.173 163.165 C 300.379 159.910 300.458 156.661 300.415 153.364 Z " transform="matrix(1, 0, 0, 1, 1, 0)"/>
  <path id="Shape" fill="#3C3C32" stroke="none" stroke-width="1" d="M 75.991 171.901 C 73.722 171.901 73.450 161.072 74.823 158.319 L 78.096 157.950 C 78.907 160.213 78.265 171.901 75.991 171.901 Z " transform="matrix(1, 0, 0, 1, 1, 0)"/>
  <path id="Rectangle-path" fill="#3C3C32" stroke="none" stroke-width="1" d="M 68.603 159.565 L 82.936 159.565 L 82.936 166.541 L 68.603 166.541 L 68.603 159.565 Z " transform="matrix(1, 0, 0, 1, 1, 0)"/>
  <path id="Shape" fill="#C8C8BE" stroke="none" stroke-width="1" d="M 91.775 153.364 L -113.084 153.364 L -113.084 163.165 L 91.509 163.165 C 91.715 159.910 91.775 156.661 91.775 153.364 Z " transform="matrix(1, 0, 0, 1, 1, 0)"/>
  <path id="Shape" fill="#C8C8BE" stroke="none" stroke-width="1" d="M 66.196 66.383 L 71.792 50.048 L 40.507 49.528 L 40.507 66.383 L 66.196 66.383 " transform="matrix(1, 0, 0, 1, 1, 0)"/>
  <path id="Shape" fill="#E6E6DC" stroke="none" stroke-width="1" d="M 46.993 66.383 L 45.626 49.104 L 20.391 48.838 L 26.048 66.383 L 46.993 66.383 " transform="matrix(1, 0, 0, 1, 1, 0)"/>
  <path id="Rectangle-path" fill="#FAFAF0" stroke="none" stroke-width="1" d="M 19.036 47.731 L 73.474 47.731 L 73.474 53.660 L 19.036 53.660 L 19.036 47.731 Z " transform="matrix(1, 0, 0, 1, 1, 0)"/>
  <path id="Rectangle-path" fill="#C8C8BE" stroke="none" stroke-width="1" d="M 15.539 45.396 L 77.479 45.396 L 77.479 49.395 L 15.539 49.395 L 15.539 45.396 Z " transform="matrix(1, 0, 0, 1, 1, 0)"/>
  <path id="Shape" fill="#3C3C32" stroke="none" stroke-width="1" d="M 75.991 80.649 C 73.722 80.649 73.450 69.820 74.823 67.067 L 78.096 66.698 C 78.907 68.954 78.265 80.649 75.991 80.649 Z " transform="matrix(1, 0, 0, 1, 1, 0)"/>
  <path id="Rectangle-path" fill="#3C3C32" stroke="none" stroke-width="1" d="M 68.603 68.307 L 82.936 68.307 L 82.936 75.283 L 68.603 75.283 L 68.603 68.307 Z " transform="matrix(1, 0, 0, 1, 1, 0)"/>
  <path id="Shape" fill="#C8C8BE" stroke="none" stroke-width="1" d="M 91.775 62.130 L -113.084 62.130 L -113.084 71.931 L 91.509 71.931 C 91.715 68.658 91.775 65.403 91.775 62.130 Z " transform="matrix(1, 0, 0, 1, 1, 0)"/>
  <path id="Shape" fill="#C8C8BE" stroke="none" stroke-width="1" d="M 170.262 242.438 L 175.852 226.103 L 138.517 225.583 L 138.517 242.438 L 170.262 242.438 " transform="matrix(1, 0, 0, 1, 1, 0)"/>
  <path id="Shape" fill="#E6E6DC" stroke="none" stroke-width="1" d="M 145.003 242.438 L 143.636 225.159 L 112.345 224.893 L 118.002 242.438 L 145.003 242.438 " transform="matrix(1, 0, 0, 1, 1, 0)"/>
  <path id="Rectangle-path" fill="#FAFAF0" stroke="none" stroke-width="1" d="M 110.990 223.786 L 177.540 223.786 L 177.540 229.715 L 110.990 229.715 L 110.990 223.786 Z " transform="matrix(1, 0, 0, 1, 1, 0)"/>
  <path id="Rectangle-path" fill="#C8C8BE" stroke="none" stroke-width="1" d="M 107.487 221.451 L 181.539 221.451 L 181.539 225.450 L 107.487 225.450 L 107.487 221.451 Z " transform="matrix(1, 0, 0, 1, 1, 0)"/>
  <path id="Shape" fill="#C8C8BE" stroke="none" stroke-width="1" d="M 19.181 312.939 L 24.771 296.604 L -12.563 296.084 L -12.563 312.939 L 19.181 312.939 " transform="matrix(1, 0, 0, 1, 1, 0)"/>
  <path id="Rectangle-path" fill="#FAFAF0" stroke="none" stroke-width="1" d="M -40.091 294.287 L 26.459 294.287 L 26.459 300.216 L -40.091 300.216 L -40.091 294.287 Z " transform="matrix(1, 0, 0, 1, 1, 0)"/>
  <path id="Rectangle-path" fill="#C8C8BE" stroke="none" stroke-width="1" d="M -43.594 291.951 L 30.458 291.951 L 30.458 295.950 L -43.594 295.950 L -43.594 291.951 Z " transform="matrix(1, 0, 0, 1, 1, 0)"/>
  <path id="Shape" fill="#3C3C32" stroke="none" stroke-width="1" d="M 113.688 258.047 C 111.419 258.047 111.147 247.218 112.520 244.465 L 115.793 244.096 C 116.580 246.359 115.975 258.047 113.688 258.047 Z " transform="matrix(1, 0, 0, 1, 1, 0)"/>
  <path id="Rectangle-path" fill="#3C3C32" stroke="none" stroke-width="1" d="M 106.567 245.711 L 120.900 245.711 L 120.900 252.687 L 106.567 252.687 L 106.567 245.711 Z " transform="matrix(1, 0, 0, 1, 1, 0)"/>
  <path id="Shape" fill="#3C3C32" stroke="none" stroke-width="1" d="M 284.020 258.047 C 281.751 258.047 281.479 247.218 282.852 244.465 L 286.125 244.096 C 286.936 246.359 286.289 258.047 284.020 258.047 Z " transform="matrix(1, 0, 0, 1, 1, 0)"/>
  <path id="Rectangle-path" fill="#3C3C32" stroke="none" stroke-width="1" d="M 276.633 245.711 L 290.965 245.711 L 290.965 252.687 L 276.633 252.687 L 276.633 245.711 Z " transform="matrix(1, 0, 0, 1, 1, 0)"/>
  <path id="Shape" fill="#C8C8BE" stroke="none" stroke-width="1" d="M 299.774 239.510 L 94.945 239.510 L 94.945 249.311 L 299.538 249.311 C 299.744 246.050 299.816 242.807 299.774 239.510 Z " transform="matrix(1, 0, 0, 1, 1, 0)"/>
  <path id="Shape" fill="#FAFAF0" stroke="none" stroke-width="1" d="M 338.210 132.733 L 334.803 145.856 L 356.807 145.680 L 359.899 132.558 L 338.210 132.733 " transform="matrix(1, 0, 0, 1, 1, 0)"/>
</svg>