<svg version="1.1" width="63" height="100" viewBox="-1 -1 63 100" xmlns="http://www.w3.org/2000/svg" xmlns:xlink="http://www.w3.org/1999/xlink">
  <!-- Exported by Scratch - http://scratch.mit.edu/ -->
  <g id="ID0.05464230990037322" transform="matrix(1, 0, 0, 1, 0, 0.5)">
    <g id="Page-1">
      <g id="strawberry-e-[food,fruit,alex-eben-meyer]">
        <path id="Shape" fill="#82001E" stroke="none" stroke-width="1" d="M 42.516 68.074 C 40.116 66.975 36.784 66.250 34.460 69.128 C 30.484 74.054 37.808 76.150 37.808 76.150 C 37.808 76.150 41.716 76.442 41.808 86.699 C 41.876 92.852 39.460 98.800 39.460 98.800 C 39.460 98.800 40.784 98.800 42.048 98.896 C 43.312 98.992 44.104 99.032 43.648 98.202 C 43.556 98.034 41.952 98.275 41.952 98.275 C 41.952 98.275 46.288 94.791 48.292 86.146 C 49.644 80.314 47.852 74.923 46.540 72.030 C 45.643 70.323 44.236 68.940 42.516 68.074 Z " transform="matrix(1, 0, 0, 1, 0.75, 0)"/>
        <g id="Group-5">
          <path id="Shape" fill="#82001E" stroke="none" stroke-width="1" d="M 5.140 37.655 C 5.140 37.655 6.120 34.356 6.244 34.585 L 7.444 39.795 C 7.444 39.795 7.808 41.427 7.488 41.723 C 7.272 41.924 6.372 40.521 5.820 39.174 L 5.796 39.114 L 5.140 37.655 Z " transform="matrix(1, 0, 0, 1, 5.75, 53)"/>
          <path id="Shape" fill="#BE0A3C" stroke="none" stroke-width="1" d="M 6.104 42.036 C 5.996 43.491 6.104 44.621 5.800 44.617 C 5.496 44.613 5.256 43.671 5.120 42.794 C 5.036 42.252 4.948 41.840 4.792 41.808 C 4.392 41.727 4.556 44.990 3.936 44.906 C 3.316 44.822 3.684 41.848 2.864 41.551 C 2.044 41.254 2.712 44.357 1.664 44.132 C 1.372 44.064 1.232 40.781 1.028 37.066 C 0.776 32.569 -0.972 0.512 3.620 0.512 C 8.212 0.512 6.572 35.631 6.104 42.036 Z " transform="matrix(1, 0, 0, 1, 5.75, 53)"/>
        </g>
        <g id="Group-4">
          <path id="Shape" fill="#82001E" stroke="none" stroke-width="1" d="M 3.008 37.655 C 3.008 37.655 2.028 34.356 1.904 34.585 L 0.704 39.795 C 0.704 39.795 0.340 41.427 0.660 41.723 C 0.876 41.924 1.776 40.521 2.328 39.174 L 2.352 39.114 L 3.008 37.655 Z " transform="matrix(1, 0, 0, 1, 50.75, 53)"/>
          <path id="Shape" fill="#BE0A3C" stroke="none" stroke-width="1" d="M 2.044 42.036 C 2.152 43.491 2.044 44.621 2.348 44.617 C 2.652 44.613 2.892 43.671 3.028 42.794 C 3.112 42.252 3.200 41.840 3.356 41.808 C 3.756 41.727 3.592 44.990 4.212 44.906 C 4.832 44.822 4.464 41.848 5.284 41.551 C 6.104 41.254 5.436 44.357 6.484 44.132 C 6.776 44.064 6.916 40.781 7.120 37.066 C 7.372 32.569 9.120 0.512 4.528 0.512 C -0.064 0.512 1.576 35.631 2.044 42.036 Z " transform="matrix(1, 0, 0, 1, 50.75, 53)"/>
        </g>
        <path id="Shape" fill="#82001E" stroke="none" stroke-width="1" d="M 20.096 68.074 C 22.496 66.975 25.828 66.250 28.152 69.128 C 32.128 74.058 24.800 76.154 24.800 76.154 C 24.800 76.154 20.892 76.446 20.800 86.703 C 20.732 92.856 23.148 98.804 23.148 98.804 C 23.148 98.804 21.824 98.804 20.560 98.900 C 19.296 98.996 18.504 99.036 18.960 98.206 C 19.052 98.038 20.656 98.279 20.656 98.279 C 20.656 98.279 16.320 94.796 14.316 86.150 C 12.964 80.318 14.756 74.927 16.068 72.034 C 16.966 70.325 18.374 68.940 20.096 68.074 Z " transform="matrix(1, 0, 0, 1, 0.75, 0)"/>
        <g id="Group-3">
          <path id="Shape" fill="#A0AA1E" stroke="none" stroke-width="1" d="M 11.372 19.135 C 10.612 16.533 8.512 13.231 8.512 13.231 L 4.356 14.786 L 0.456 15.483 C 0.456 15.483 6.764 22.990 7.172 23.455 C 8.056 24.474 9.095 25.345 10.252 26.037 C 11.219 26.548 12.271 26.879 13.356 27.015 C 13.356 27.015 12.104 21.644 11.372 19.135 Z " transform="matrix(1, 0, 0, 1, 19.75, 0)"/>
          <path id="Shape" fill="#82783C" stroke="none" stroke-width="1" d="M 13.324 26.854 C 13.324 26.854 14.672 24.634 15.416 23.119 C 16.216 21.495 16.988 19.912 17.912 18.337 C 19.743 15.130 21.760 12.033 23.952 9.062 C 25.896 6.509 28 3.663 30.632 1.764 C 32.880 0.160 36.752 -1.230 38.632 1.788 C 40.268 4.393 37.948 8.477 36.632 10.766 C 34.836 13.856 32.400 16.161 29.700 18.429 C 27.608 20.189 19.428 25.544 15.040 27.524 C 14.108 27.944 13.324 26.854 13.324 26.854 Z " transform="matrix(1, 0, 0, 1, 19.75, 0)"/>
          <path id="Shape" fill="#A0AA1E" stroke="none" stroke-width="1" d="M 13.988 27.063 C 15.560 26.153 17.700 25.740 19.424 25.083 C 21.660 24.229 23.912 23.427 26.164 22.618 C 29.432 21.443 32.880 20.281 36.372 21.251 C 37.636 21.604 39.848 22.453 39.644 24.097 C 39.456 25.628 36.996 26.433 35.804 26.798 C 34.052 27.297 32.258 27.635 30.444 27.808 C 29.424 27.928 18.044 27.532 13.988 27.063 Z " transform="matrix(1, 0, 0, 1, 19.75, 0)"/>
        </g>
        <g id="Group-2">
          <path id="Shape" fill="#BE0A3C" stroke="none" stroke-width="1" d="M 31.452 63.948 C 27.508 63.967 23.653 62.780 20.400 60.545 C 18.240 59.042 16.536 56.777 15.076 54.613 C 12.896 51.378 10.756 48.076 8.744 44.729 C 5.101 38.706 2.436 32.142 0.848 25.282 C -0.400 19.726 -0.792 9.478 4.964 6.043 C 7.912 4.275 12.280 3.265 15.620 2.576 C 18.512 1.979 21.364 1.229 24.336 0.972 C 26.032 0.836 27.744 0.680 29.424 0.944 C 30.716 1.149 31.344 1.862 32.276 1.870 C 32.456 1.870 33.628 1.217 33.952 1.137 C 34.611 1.007 35.280 0.935 35.952 0.920 C 38.088 0.796 40.096 1.137 42.192 1.453 C 47.604 2.255 53.312 4.323 57.548 7.894 C 62.832 12.347 61.972 19.161 60.508 25.290 C 58.908 32.039 53.192 47.382 47.708 54.821 C 42.224 62.260 34.700 63.980 31.452 63.948 Z " transform="matrix(1, 0, 0, 1, 0.75, 25)"/>
          <path id="Shape" fill="#F01446" stroke="none" stroke-width="1" d="M 5.036 10.724 C 5.036 10.724 5.608 9.213 8.136 7.882 C 11.329 6.317 14.913 5.734 18.436 6.207 C 26.624 7.470 25.604 34.508 15.844 34.508 C 10.556 34.508 6.980 32.228 5.304 27.053 C 3.888 22.696 2.872 15.927 5.036 10.724 Z " transform="matrix(1, 0, 0, 1, 0.75, 25)"/>
          <path id="Shape" fill="#F01446" stroke="none" stroke-width="1" d="M 46.080 13.309 C 46.080 13.309 46.252 12.371 47.576 11.337 C 49.261 10.092 51.277 9.376 53.368 9.277 C 58.244 9.145 60.500 24.909 54.844 25.951 C 51.780 26.508 49.468 25.550 47.952 22.744 C 46.672 20.360 45.372 16.552 46.080 13.309 Z " transform="matrix(1, 0, 0, 1, 0.75, 25)"/>
          <path id="Shape" fill="#F01446" stroke="none" stroke-width="1" d="M 11.740 38.480 C 11.740 38.480 12.020 37.915 13.360 37.358 C 15.125 36.685 17.009 36.377 18.896 36.452 C 23.344 36.673 23.316 46.520 18.040 46.801 C 15.180 46.953 13.204 46.228 12.200 44.396 C 11.348 42.853 10.668 40.432 11.740 38.480 Z " transform="matrix(1, 0, 0, 1, 0.75, 25)"/>
          <path id="Oval" fill="#F04650" stroke="none" stroke-width="1" d="M 26.216 43.282 C 26.492 43.282 26.742 43.397 26.923 43.583 C 27.104 43.768 27.216 44.025 27.216 44.308 C 27.216 44.591 27.104 44.848 26.923 45.033 C 26.742 45.219 26.492 45.334 26.216 45.334 C 25.940 45.334 25.690 45.219 25.509 45.033 C 25.328 44.848 25.216 44.591 25.216 44.308 C 25.216 44.025 25.328 43.768 25.509 43.583 C 25.690 43.397 25.940 43.282 26.216 43.282 Z " transform="matrix(1, 0, 0, 1, 0.75, 25)"/>
          <path id="Oval" fill="#F04650" stroke="none" stroke-width="1" d="M 45.284 14.913 C 45.560 14.913 45.810 15.028 45.991 15.213 C 46.172 15.399 46.284 15.656 46.284 15.939 C 46.284 16.222 46.172 16.478 45.991 16.664 C 45.810 16.850 45.560 16.965 45.284 16.965 C 45.008 16.965 44.758 16.850 44.577 16.664 C 44.396 16.478 44.284 16.222 44.284 15.939 C 44.284 15.656 44.396 15.399 44.577 15.213 C 44.758 15.028 45.008 14.913 45.284 14.913 Z " transform="matrix(1, 0, 0, 1, 0.75, 25)"/>
          <path id="Oval" fill="#F04650" stroke="none" stroke-width="1" d="M 42.144 10.139 C 42.420 10.139 42.670 10.254 42.851 10.440 C 43.032 10.625 43.144 10.882 43.144 11.165 C 43.144 11.448 43.032 11.705 42.851 11.890 C 42.670 12.076 42.420 12.191 42.144 12.191 C 41.868 12.191 41.618 12.076 41.437 11.890 C 41.256 11.705 41.144 11.448 41.144 11.165 C 41.144 10.882 41.256 10.625 41.437 10.440 C 41.618 10.254 41.868 10.139 42.144 10.139 Z " transform="matrix(1, 0, 0, 1, 0.75, 25)"/>
          <path id="Oval" fill="#F04650" stroke="none" stroke-width="1" d="M 49.176 10.616 C 49.452 10.616 49.702 10.731 49.883 10.917 C 50.064 11.102 50.176 11.359 50.176 11.642 C 50.176 11.925 50.064 12.182 49.883 12.367 C 49.702 12.553 49.452 12.668 49.176 12.668 C 48.900 12.668 48.650 12.553 48.469 12.367 C 48.288 12.182 48.176 11.925 48.176 11.642 C 48.176 11.359 48.288 11.102 48.469 10.917 C 48.650 10.731 48.900 10.616 49.176 10.616 Z " transform="matrix(1, 0, 0, 1, 0.75, 25)"/>
          <path id="Oval" fill="#F04650" stroke="none" stroke-width="1" d="M 37.768 5.345 C 38.044 5.345 38.294 5.460 38.475 5.646 C 38.656 5.832 38.768 6.088 38.768 6.371 C 38.768 6.654 38.656 6.911 38.475 7.097 C 38.294 7.282 38.044 7.397 37.768 7.397 C 37.492 7.397 37.242 7.282 37.061 7.097 C 36.880 6.911 36.768 6.654 36.768 6.371 C 36.768 6.088 36.880 5.832 37.061 5.646 C 37.242 5.460 37.492 5.345 37.768 5.345 Z " transform="matrix(1, 0, 0, 1, 0.75, 25)"/>
          <path id="Oval" fill="#F04650" stroke="none" stroke-width="1" d="M 29.580 7.914 C 29.856 7.914 30.106 8.029 30.287 8.215 C 30.468 8.401 30.580 8.657 30.580 8.941 C 30.580 9.224 30.468 9.480 30.287 9.666 C 30.106 9.852 29.856 9.967 29.580 9.967 C 29.304 9.967 29.054 9.852 28.873 9.666 C 28.692 9.480 28.580 9.224 28.580 8.941 C 28.580 8.657 28.692 8.401 28.873 8.215 C 29.054 8.029 29.304 7.914 29.580 7.914 Z " transform="matrix(1, 0, 0, 1, 0.75, 25)"/>
          <path id="Oval" fill="#F04650" stroke="none" stroke-width="1" d="M 22.864 7.209 C 23.140 7.209 23.390 7.324 23.571 7.510 C 23.752 7.696 23.864 7.952 23.864 8.235 C 23.864 8.518 23.752 8.775 23.571 8.960 C 23.390 9.146 23.140 9.261 22.864 9.261 C 22.588 9.261 22.338 9.146 22.157 8.960 C 21.976 8.775 21.864 8.518 21.864 8.235 C 21.864 7.952 21.976 7.696 22.157 7.510 C 22.338 7.324 22.588 7.209 22.864 7.209 Z " transform="matrix(1, 0, 0, 1, 0.75, 25)"/>
          <path id="Oval" fill="#F04650" stroke="none" stroke-width="1" d="M 14.356 7.017 C 14.632 7.017 14.882 7.132 15.063 7.317 C 15.244 7.503 15.356 7.760 15.356 8.043 C 15.356 8.326 15.244 8.582 15.063 8.768 C 14.882 8.954 14.632 9.069 14.356 9.069 C 14.080 9.069 13.830 8.954 13.649 8.768 C 13.468 8.582 13.356 8.326 13.356 8.043 C 13.356 7.760 13.468 7.503 13.649 7.317 C 13.830 7.132 14.080 7.017 14.356 7.017 Z " transform="matrix(1, 0, 0, 1, 0.75, 25)"/>
          <path id="Oval" fill="#F04650" stroke="none" stroke-width="1" d="M 20.384 15.422 C 20.660 15.422 20.910 15.537 21.091 15.722 C 21.272 15.908 21.384 16.165 21.384 16.448 C 21.384 16.731 21.272 16.987 21.091 17.173 C 20.910 17.359 20.660 17.474 20.384 17.474 C 20.108 17.474 19.858 17.359 19.677 17.173 C 19.496 16.987 19.384 16.731 19.384 16.448 C 19.384 16.165 19.496 15.908 19.677 15.722 C 19.858 15.537 20.108 15.422 20.384 15.422 Z " transform="matrix(1, 0, 0, 1, 0.75, 25)"/>
          <path id="Oval" fill="#F04650" stroke="none" stroke-width="1" d="M 11.776 14.925 C 12.052 14.925 12.302 15.040 12.483 15.225 C 12.664 15.411 12.776 15.668 12.776 15.951 C 12.776 16.234 12.664 16.490 12.483 16.676 C 12.302 16.862 12.052 16.977 11.776 16.977 C 11.500 16.977 11.250 16.862 11.069 16.676 C 10.888 16.490 10.776 16.234 10.776 15.951 C 10.776 15.668 10.888 15.411 11.069 15.225 C 11.250 15.040 11.500 14.925 11.776 14.925 Z " transform="matrix(1, 0, 0, 1, 0.75, 25)"/>
          <path id="Oval" fill="#F04650" stroke="none" stroke-width="1" d="M 36.496 45.599 C 36.772 45.599 37.022 45.714 37.203 45.899 C 37.384 46.085 37.496 46.342 37.496 46.625 C 37.496 46.908 37.384 47.164 37.203 47.350 C 37.022 47.536 36.772 47.651 36.496 47.651 C 36.220 47.651 35.970 47.536 35.789 47.350 C 35.608 47.164 35.496 46.908 35.496 46.625 C 35.496 46.342 35.608 46.085 35.789 45.899 C 35.970 45.714 36.220 45.599 36.496 45.599 Z " transform="matrix(1, 0, 0, 1, 0.75, 25)"/>
          <path id="Oval" fill="#F04650" stroke="none" stroke-width="1" d="M 33.340 13.854 C 33.616 13.854 33.866 13.969 34.047 14.155 C 34.228 14.341 34.340 14.597 34.340 14.881 C 34.340 15.164 34.228 15.420 34.047 15.606 C 33.866 15.792 33.616 15.907 33.340 15.907 C 33.064 15.907 32.814 15.792 32.633 15.606 C 32.452 15.420 32.340 15.164 32.340 14.881 C 32.340 14.597 32.452 14.341 32.633 14.155 C 32.814 13.969 33.064 13.854 33.340 13.854 Z " transform="matrix(1, 0, 0, 1, 0.75, 25)"/>
          <path id="Oval" fill="#F04650" stroke="none" stroke-width="1" d="M 35.620 20.432 C 35.896 20.432 36.146 20.547 36.327 20.733 C 36.508 20.918 36.620 21.175 36.620 21.458 C 36.620 21.741 36.508 21.997 36.327 22.183 C 36.146 22.369 35.896 22.484 35.620 22.484 C 35.344 22.484 35.094 22.369 34.913 22.183 C 34.732 21.997 34.620 21.741 34.620 21.458 C 34.620 21.175 34.732 20.918 34.913 20.733 C 35.094 20.547 35.344 20.432 35.620 20.432 Z " transform="matrix(1, 0, 0, 1, 0.75, 25)"/>
          <path id="Oval" fill="#F04650" stroke="none" stroke-width="1" d="M 27.872 15.506 C 28.148 15.506 28.398 15.621 28.579 15.807 C 28.760 15.992 28.872 16.249 28.872 16.532 C 28.872 16.815 28.760 17.072 28.579 17.257 C 28.398 17.443 28.148 17.558 27.872 17.558 C 27.596 17.558 27.346 17.443 27.165 17.257 C 26.984 17.072 26.872 16.815 26.872 16.532 C 26.872 16.249 26.984 15.992 27.165 15.807 C 27.346 15.621 27.596 15.506 27.872 15.506 Z " transform="matrix(1, 0, 0, 1, 0.75, 25)"/>
          <path id="Oval" fill="#F04650" stroke="none" stroke-width="1" d="M 19.284 49.262 C 19.560 49.262 19.810 49.377 19.991 49.563 C 20.172 49.748 20.284 50.005 20.284 50.288 C 20.284 50.571 20.172 50.828 19.991 51.013 C 19.810 51.199 19.560 51.314 19.284 51.314 C 19.008 51.314 18.758 51.199 18.577 51.013 C 18.396 50.828 18.284 50.571 18.284 50.288 C 18.284 50.005 18.396 49.748 18.577 49.563 C 18.758 49.377 19.008 49.262 19.284 49.262 Z " transform="matrix(1, 0, 0, 1, 0.75, 25)"/>
          <path id="Oval" fill="#F04650" stroke="none" stroke-width="1" d="M 26.216 21.871 C 26.492 21.871 26.742 21.986 26.923 22.171 C 27.104 22.357 27.216 22.614 27.216 22.897 C 27.216 23.180 27.104 23.436 26.923 23.622 C 26.742 23.808 26.492 23.923 26.216 23.923 C 25.940 23.923 25.690 23.808 25.509 23.622 C 25.328 23.436 25.216 23.180 25.216 22.897 C 25.216 22.614 25.328 22.357 25.509 22.171 C 25.690 21.986 25.940 21.871 26.216 21.871 Z " transform="matrix(1, 0, 0, 1, 0.75, 25)"/>
          <path id="Oval" fill="#F04650" stroke="none" stroke-width="1" d="M 14.392 38.845 C 14.668 38.845 14.918 38.960 15.099 39.146 C 15.280 39.331 15.392 39.588 15.392 39.871 C 15.392 40.154 15.280 40.411 15.099 40.596 C 14.918 40.782 14.668 40.897 14.392 40.897 C 14.116 40.897 13.866 40.782 13.685 40.596 C 13.504 40.411 13.392 40.154 13.392 39.871 C 13.392 39.588 13.504 39.331 13.685 39.146 C 13.866 38.960 14.116 38.845 14.392 38.845 Z " transform="matrix(1, 0, 0, 1, 0.75, 25)"/>
          <path id="Oval" fill="#F04650" stroke="none" stroke-width="1" d="M 21.236 28.616 C 21.512 28.616 21.762 28.731 21.943 28.917 C 22.124 29.103 22.236 29.359 22.236 29.642 C 22.236 29.925 22.124 30.182 21.943 30.368 C 21.762 30.553 21.512 30.668 21.236 30.668 C 20.960 30.668 20.710 30.553 20.529 30.368 C 20.348 30.182 20.236 29.925 20.236 29.642 C 20.236 29.359 20.348 29.103 20.529 28.917 C 20.710 28.731 20.960 28.616 21.236 28.616 Z " transform="matrix(1, 0, 0, 1, 0.75, 25)"/>
          <path id="Oval" fill="#F04650" stroke="none" stroke-width="1" d="M 13.944 28.352 C 14.220 28.352 14.470 28.467 14.651 28.653 C 14.832 28.838 14.944 29.095 14.944 29.378 C 14.944 29.661 14.832 29.917 14.651 30.103 C 14.470 30.289 14.220 30.404 13.944 30.404 C 13.668 30.404 13.418 30.289 13.237 30.103 C 13.056 29.917 12.944 29.661 12.944 29.378 C 12.944 29.095 13.056 28.838 13.237 28.653 C 13.418 28.467 13.668 28.352 13.944 28.352 Z " transform="matrix(1, 0, 0, 1, 0.75, 25)"/>
          <path id="Oval" fill="#F04650" stroke="none" stroke-width="1" d="M 46.448 26.861 C 46.724 26.861 46.974 26.976 47.155 27.161 C 47.336 27.347 47.448 27.604 47.448 27.887 C 47.448 28.170 47.336 28.426 47.155 28.612 C 46.974 28.798 46.724 28.913 46.448 28.913 C 46.172 28.913 45.922 28.798 45.741 28.612 C 45.560 28.426 45.448 28.170 45.448 27.887 C 45.448 27.604 45.560 27.347 45.741 27.161 C 45.922 26.976 46.172 26.861 46.448 26.861 Z " transform="matrix(1, 0, 0, 1, 0.75, 25)"/>
          <path id="Oval" fill="#F04650" stroke="none" stroke-width="1" d="M 52.772 15.422 C 53.048 15.422 53.298 15.537 53.479 15.722 C 53.660 15.908 53.772 16.165 53.772 16.448 C 53.772 16.731 53.660 16.987 53.479 17.173 C 53.298 17.359 53.048 17.474 52.772 17.474 C 52.496 17.474 52.246 17.359 52.065 17.173 C 51.884 16.987 51.772 16.731 51.772 16.448 C 51.772 16.165 51.884 15.908 52.065 15.722 C 52.246 15.537 52.496 15.422 52.772 15.422 Z " transform="matrix(1, 0, 0, 1, 0.75, 25)"/>
          <path id="Oval" fill="#F04650" stroke="none" stroke-width="1" d="M 53.396 25.522 C 53.672 25.522 53.922 25.637 54.103 25.823 C 54.284 26.009 54.396 26.265 54.396 26.548 C 54.396 26.831 54.284 27.088 54.103 27.273 C 53.922 27.459 53.672 27.574 53.396 27.574 C 53.120 27.574 52.870 27.459 52.689 27.273 C 52.508 27.088 52.396 26.831 52.396 26.548 C 52.396 26.265 52.508 26.009 52.689 25.823 C 52.870 25.637 53.120 25.522 53.396 25.522 Z " transform="matrix(1, 0, 0, 1, 0.75, 25)"/>
          <path id="Oval" fill="#F04650" stroke="none" stroke-width="1" d="M 56.780 20.151 C 57.056 20.151 57.306 20.266 57.487 20.452 C 57.668 20.638 57.780 20.894 57.780 21.177 C 57.780 21.460 57.668 21.717 57.487 21.903 C 57.306 22.088 57.056 22.203 56.780 22.203 C 56.504 22.203 56.254 22.088 56.073 21.903 C 55.892 21.717 55.780 21.460 55.780 21.177 C 55.780 20.894 55.892 20.638 56.073 20.452 C 56.254 20.266 56.504 20.151 56.780 20.151 Z " transform="matrix(1, 0, 0, 1, 0.75, 25)"/>
          <path id="Oval" fill="#F04650" stroke="none" stroke-width="1" d="M 56.976 10.540 C 57.252 10.540 57.502 10.655 57.683 10.841 C 57.864 11.026 57.976 11.283 57.976 11.566 C 57.976 11.849 57.864 12.105 57.683 12.291 C 57.502 12.477 57.252 12.592 56.976 12.592 C 56.700 12.592 56.450 12.477 56.269 12.291 C 56.088 12.105 55.976 11.849 55.976 11.566 C 55.976 11.283 56.088 11.026 56.269 10.841 C 56.450 10.655 56.700 10.540 56.976 10.540 Z " transform="matrix(1, 0, 0, 1, 0.75, 25)"/>
          <path id="Oval" fill="#F04650" stroke="none" stroke-width="1" d="M 45.160 4.187 C 45.436 4.187 45.686 4.302 45.867 4.488 C 46.048 4.673 46.160 4.930 46.160 5.213 C 46.160 5.496 46.048 5.753 45.867 5.938 C 45.686 6.124 45.436 6.239 45.160 6.239 C 44.884 6.239 44.634 6.124 44.453 5.938 C 44.272 5.753 44.160 5.496 44.160 5.213 C 44.160 4.930 44.272 4.673 44.453 4.488 C 44.634 4.302 44.884 4.187 45.160 4.187 Z " transform="matrix(1, 0, 0, 1, 0.75, 25)"/>
          <path id="Oval" fill="#F04650" stroke="none" stroke-width="1" d="M 5.808 11.261 C 6.084 11.261 6.334 11.376 6.515 11.562 C 6.696 11.748 6.808 12.004 6.808 12.287 C 6.808 12.570 6.696 12.827 6.515 13.013 C 6.334 13.198 6.084 13.313 5.808 13.313 C 5.532 13.313 5.282 13.198 5.101 13.013 C 4.920 12.827 4.808 12.570 4.808 12.287 C 4.808 12.004 4.920 11.748 5.101 11.562 C 5.282 11.376 5.532 11.261 5.808 11.261 Z " transform="matrix(1, 0, 0, 1, 0.75, 25)"/>
          <path id="Oval" fill="#F04650" stroke="none" stroke-width="1" d="M 4.076 25.009 C 4.352 25.009 4.602 25.124 4.783 25.310 C 4.964 25.495 5.076 25.752 5.076 26.035 C 5.076 26.318 4.964 26.575 4.783 26.760 C 4.602 26.946 4.352 27.061 4.076 27.061 C 3.800 27.061 3.550 26.946 3.369 26.760 C 3.188 26.575 3.076 26.318 3.076 26.035 C 3.076 25.752 3.188 25.495 3.369 25.310 C 3.550 25.124 3.800 25.009 4.076 25.009 Z " transform="matrix(1, 0, 0, 1, 0.75, 25)"/>
          <path id="Oval" fill="#F04650" stroke="none" stroke-width="1" d="M 2.340 18.684 C 2.616 18.684 2.866 18.799 3.047 18.985 C 3.228 19.171 3.340 19.427 3.340 19.710 C 3.340 19.993 3.228 20.250 3.047 20.436 C 2.866 20.621 2.616 20.736 2.340 20.736 C 2.064 20.736 1.814 20.621 1.633 20.436 C 1.452 20.250 1.340 19.993 1.340 19.710 C 1.340 19.427 1.452 19.171 1.633 18.985 C 1.814 18.799 2.064 18.684 2.340 18.684 Z " transform="matrix(1, 0, 0, 1, 0.75, 25)"/>
          <path id="Oval" fill="#F04650" stroke="none" stroke-width="1" d="M 32.408 25.246 C 32.684 25.246 32.934 25.360 33.115 25.546 C 33.296 25.732 33.408 25.988 33.408 26.272 C 33.408 26.555 33.296 26.811 33.115 26.997 C 32.934 27.183 32.684 27.298 32.408 27.298 C 32.132 27.298 31.882 27.183 31.701 26.997 C 31.520 26.811 31.408 26.555 31.408 26.272 C 31.408 25.988 31.520 25.732 31.701 25.546 C 31.882 25.360 32.132 25.246 32.408 25.246 Z " transform="matrix(1, 0, 0, 1, 0.75, 25)"/>
          <path id="Oval" fill="#F04650" stroke="none" stroke-width="1" d="M 49.816 34.408 C 50.092 34.408 50.342 34.523 50.523 34.709 C 50.704 34.894 50.816 35.151 50.816 35.434 C 50.816 35.717 50.704 35.974 50.523 36.159 C 50.342 36.345 50.092 36.460 49.816 36.460 C 49.540 36.460 49.290 36.345 49.109 36.159 C 48.928 35.974 48.816 35.717 48.816 35.434 C 48.816 35.151 48.928 34.894 49.109 34.709 C 49.290 34.523 49.540 34.408 49.816 34.408 Z " transform="matrix(1, 0, 0, 1, 0.75, 25)"/>
          <path id="Oval" fill="#F04650" stroke="none" stroke-width="1" d="M 38.314 29.919 C 38.597 29.919 38.853 30.031 39.038 30.212 C 39.224 30.393 39.338 30.643 39.338 30.919 C 39.338 31.195 39.224 31.445 39.038 31.626 C 38.853 31.807 38.597 31.919 38.314 31.919 C 38.032 31.919 37.776 31.807 37.591 31.626 C 37.405 31.445 37.290 31.195 37.290 30.919 C 37.290 30.643 37.405 30.393 37.591 30.212 C 37.776 30.031 38.032 29.919 38.314 29.919 Z " transform="matrix(0.36650121212005615, -0.9304175972938538, 0.9304175972938538, 0.36650121212005615, -3.7, 80.2)"/>
          <path id="Oval" fill="#F04650" stroke="none" stroke-width="1" d="M 41.508 18.684 C 41.784 18.684 42.034 18.799 42.215 18.985 C 42.396 19.171 42.508 19.427 42.508 19.710 C 42.508 19.993 42.396 20.250 42.215 20.436 C 42.034 20.621 41.784 20.736 41.508 20.736 C 41.232 20.736 40.982 20.621 40.801 20.436 C 40.620 20.250 40.508 19.993 40.508 19.710 C 40.508 19.427 40.620 19.171 40.801 18.985 C 40.982 18.799 41.232 18.684 41.508 18.684 Z " transform="matrix(1, 0, 0, 1, 0.75, 25)"/>
          <path id="Oval" fill="#F04650" stroke="none" stroke-width="1" d="M 29.024 34.023 C 29.300 34.023 29.550 34.138 29.731 34.324 C 29.912 34.510 30.024 34.766 30.024 35.049 C 30.024 35.332 29.912 35.589 29.731 35.775 C 29.550 35.960 29.300 36.075 29.024 36.075 C 28.748 36.075 28.498 35.960 28.317 35.775 C 28.136 35.589 28.024 35.332 28.024 35.049 C 28.024 34.766 28.136 34.510 28.317 34.324 C 28.498 34.138 28.748 34.023 29.024 34.023 Z " transform="matrix(1, 0, 0, 1, 0.75, 25)"/>
          <path id="Oval" fill="#F04650" stroke="none" stroke-width="1" d="M 48.836 20.728 C 49.112 20.728 49.362 20.843 49.543 21.029 C 49.724 21.215 49.836 21.471 49.836 21.754 C 49.836 22.038 49.724 22.294 49.543 22.480 C 49.362 22.666 49.112 22.781 48.836 22.781 C 48.560 22.781 48.310 22.666 48.129 22.480 C 47.948 22.294 47.836 22.038 47.836 21.754 C 47.836 21.471 47.948 21.215 48.129 21.029 C 48.310 20.843 48.560 20.728 48.836 20.728 Z " transform="matrix(1, 0, 0, 1, 0.75, 25)"/>
          <path id="Oval" fill="#F04650" stroke="none" stroke-width="1" d="M 50.088 43.090 C 50.364 43.090 50.614 43.205 50.795 43.390 C 50.976 43.576 51.088 43.833 51.088 44.116 C 51.088 44.399 50.976 44.655 50.795 44.841 C 50.614 45.027 50.364 45.142 50.088 45.142 C 49.812 45.142 49.562 45.027 49.381 44.841 C 49.200 44.655 49.088 44.399 49.088 44.116 C 49.088 43.833 49.200 43.576 49.381 43.390 C 49.562 43.205 49.812 43.090 50.088 43.090 Z " transform="matrix(1, 0, 0, 1, 0.75, 25)"/>
          <path id="Oval" fill="#F04650" stroke="none" stroke-width="1" d="M 41.732 37.498 C 42.008 37.498 42.258 37.613 42.439 37.799 C 42.620 37.985 42.732 38.241 42.732 38.524 C 42.732 38.807 42.620 39.064 42.439 39.250 C 42.258 39.435 42.008 39.550 41.732 39.550 C 41.456 39.550 41.206 39.435 41.025 39.250 C 40.844 39.064 40.732 38.807 40.732 38.524 C 40.732 38.241 40.844 37.985 41.025 37.799 C 41.206 37.613 41.456 37.498 41.732 37.498 Z " transform="matrix(1, 0, 0, 1, 0.75, 25)"/>
          <path id="Oval" fill="#F04650" stroke="none" stroke-width="1" d="M 16.720 21.935 C 16.996 21.935 17.246 22.050 17.427 22.236 C 17.608 22.421 17.720 22.678 17.720 22.961 C 17.720 23.244 17.608 23.500 17.427 23.686 C 17.246 23.872 16.996 23.987 16.720 23.987 C 16.444 23.987 16.194 23.872 16.013 23.686 C 15.832 23.500 15.720 23.244 15.720 22.961 C 15.720 22.678 15.832 22.421 16.013 22.236 C 16.194 22.050 16.444 21.935 16.720 21.935 Z " transform="matrix(1, 0, 0, 1, 0.75, 25)"/>
          <path id="Oval" fill="#F04650" stroke="none" stroke-width="1" d="M 9.736 20.520 C 10.012 20.520 10.262 20.635 10.443 20.821 C 10.624 21.006 10.736 21.263 10.736 21.546 C 10.736 21.829 10.624 22.086 10.443 22.271 C 10.262 22.457 10.012 22.572 9.736 22.572 C 9.460 22.572 9.210 22.457 9.029 22.271 C 8.848 22.086 8.736 21.829 8.736 21.546 C 8.736 21.263 8.848 21.006 9.029 20.821 C 9.210 20.635 9.460 20.520 9.736 20.520 Z " transform="matrix(1, 0, 0, 1, 0.75, 25)"/>
        </g>
        <g id="Group">
          <path id="Shape" fill="#82783C" stroke="none" stroke-width="1" d="M 5.672 0.227 C 4.678 0.184 3.682 0.216 2.692 0.323 C 1.004 5.654 -0.136 7.357 0.808 12.692 C 1.528 16.752 3.700 18.427 6.868 16.299 C 9.224 14.696 10.068 11.890 10.868 9.033 C 11.692 6.087 12.196 5.345 12.496 0.279 C 10.232 0.255 7.948 0.339 5.672 0.227 Z " transform="matrix(1, 0, 0, 1, 15.75, 13)"/>
          <path id="Shape" fill="#82783C" stroke="none" stroke-width="1" d="M 26.496 34.091 C 22.536 35.294 20.420 32.308 17.612 28.548 C 15.248 25.386 16.328 14.756 17.324 13.854 C 22.260 17.061 32.964 32.139 26.496 34.091 Z " transform="matrix(1, 0, 0, 1, 15.75, 13)"/>
        </g>
      </g>
    </g>
  </g>
</svg>