<svg width="161px" height="127px" viewBox="0 0 161 127" version="1.1" xml:space="preserve" xmlns="http://www.w3.org/2000/svg" xmlns:xlink="http://www.w3.org/1999/xlink">
  <defs/>
  <g>
    <title>toucan-b</title>
    <desc>Created with Sketch.</desc>
    <g id="jungle" stroke="none" stroke-width="1" fill="none" fill-rule="evenodd">
      <g id="toucan-b">
        <g id="Group-84" transform="translate(81.000000, 64.000000) scale(-1, 1) translate(-81.000000, -64.000000) translate(6.000000, 4.000000)">
          <g id="Group-43" transform="translate(58.431373, 83.827586)">
            <path d="M0.423685882,0.53896947 C0.559246667,0.592954004 5.40671333,3.7737175 8.78872118,7.94868942 C12.1713133,12.1242475 12.1397604,13.0047317 12.1397604,13.0047317 C12.1397604,13.0047317 12.1672231,15.9299086 10.6357369,18.2911536 C9.19774078,20.5081914 4.75578784,23.788024 1.59114471,25.8432686 C1.26334471,26.0378896 0.851403529,26.1275794 0.950152549,28.0052029 C1.04831725,29.8828265 1.06584667,31.5699325 1.06584667,31.5699325 C1.06584667,31.5699325 1.05357608,32.9305208 2.08605843,31.5945533 C3.59826235,29.6366192 12.2274075,19.0198098 12.2274075,19.0198098 L12.7527055,16.503806 C12.1269055,21.6290207 8.53162314,27.2349259 7.31449765,28.3264448 C6.18268196,29.3423429 6.91599569,30.2052408 7.05097216,30.5258964 C7.18653294,30.8471383 7.96542314,32.4779684 8.59122314,34.1304882 C9.38764275,36.2308707 9.91235647,34.2330745 9.91235647,34.2330745 C13.8442035,18.1082567 13.7530506,18.4933952 15.4954741,15.121528 C17.2519212,11.7209366 20.3844271,8.68203537 20.3844271,8.68203537 C17.6889878,8.34789693 14.0522192,12.0029025 14.0522192,12.0029025 C9.5132702,7.84141339 9.05107804,2.85278505 9.05107804,2.85278505 C9.05107804,2.85278505 2.87605059,0.526126315 0.423685882,0.53896947" id="Fill-40" fill="#8088AD"/>
            <path d="M0.423685882,0.53896947 C0.559246667,0.592954004 5.40671333,3.7737175 8.78872118,7.94868942 C12.1713133,12.1242475 12.1397604,13.0047317 12.1397604,13.0047317 C12.1397604,13.0047317 12.1672231,15.9299086 10.6357369,18.2911536 C9.19774078,20.5081914 4.75578784,23.788024 1.59114471,25.8432686 C1.26334471,26.0378896 0.851403529,26.1275794 0.950152549,28.0052029 C1.04831725,29.8828265 1.06584667,31.5699325 1.06584667,31.5699325 C1.06584667,31.5699325 1.05357608,32.9305208 2.08605843,31.5945533 C3.59826235,29.6366192 12.2274075,19.0198098 12.2274075,19.0198098 L12.7527055,16.503806 C12.1269055,21.6290207 8.53162314,27.2349259 7.31449765,28.3264448 C6.18268196,29.3423429 6.91599569,30.2052408 7.05097216,30.5258964 C7.18653294,30.8471383 7.96542314,32.4779684 8.59122314,34.1304882 C9.38764275,36.2308707 9.91235647,34.2330745 9.91235647,34.2330745 C13.8442035,18.1082567 13.7530506,18.4933952 15.4954741,15.121528 C17.2519212,11.7209366 20.3844271,8.68203537 20.3844271,8.68203537 C17.6889878,8.34789693 14.0522192,12.0029025 14.0522192,12.0029025 C9.5132702,7.84141339 9.05107804,2.85278505 9.05107804,2.85278505 C9.05107804,2.85278505 2.87605059,0.526126315 0.423685882,0.53896947" id="Stroke-42" stroke="#2E4166" stroke-width="0.5"/>
          </g>
          <g id="Group-47" transform="translate(67.196078, 87.931034)">
            <path d="M0.0596584314,1.12012414 C0.205736863,1.12012414 5.87825451,2.29253793 10.5527643,4.93046897 C15.2272741,7.5684 15.519431,8.39905517 15.519431,8.39905517 C15.519431,8.39905517 16.6156035,11.1096759 16.0552467,13.8701241 C15.5293643,16.462331 12.5978624,21.1490552 10.4066859,24.2266414 C10.1729604,24.5291241 9.82295647,24.7636069 10.6018467,26.4735724 C11.3807369,28.1835379 12.0135486,29.7469517 12.0135486,29.7469517 C12.0135486,29.7469517 12.5008663,31.0166759 12.9718231,29.393469 C13.6613133,27.0158138 17.802929,13.9615724 17.802929,13.9615724 L17.3699525,11.4279862 C18.6642075,16.4248138 17.3722898,22.9645379 16.6395604,24.4282966 C15.9582506,25.789469 16.9562584,26.322331 17.1993329,26.5708828 C17.4424075,26.8194345 18.7641251,28.0492966 19.9508663,29.3559517 C21.4601486,31.0166759 21.2170741,28.9649517 21.2170741,28.9649517 C18.9721408,12.5177448 19.0288192,12.909331 19.4150506,9.13181379 C19.8047878,5.32146897 21.6062271,1.34053793 21.6062271,1.34053793 C18.9768153,2.02346897 16.9317173,6.76236552 16.9317173,6.76236552 C11.1861604,4.56408966 8.93129373,0.094262069 8.93129373,0.094262069 C8.93129373,0.094262069 2.33614471,0.204468966 0.0596584314,1.12012414" id="Fill-44" fill="#8088AD"/>
            <path d="M0.0596584314,1.12012414 C0.205736863,1.12012414 5.87825451,2.29253793 10.5527643,4.93046897 C15.2272741,7.5684 15.519431,8.39905517 15.519431,8.39905517 C15.519431,8.39905517 16.6156035,11.1096759 16.0552467,13.8701241 C15.5293643,16.462331 12.5978624,21.1490552 10.4066859,24.2266414 C10.1729604,24.5291241 9.82295647,24.7636069 10.6018467,26.4735724 C11.3807369,28.1835379 12.0135486,29.7469517 12.0135486,29.7469517 C12.0135486,29.7469517 12.5008663,31.0166759 12.9718231,29.393469 C13.6613133,27.0158138 17.802929,13.9615724 17.802929,13.9615724 L17.3699525,11.4279862 C18.6642075,16.4248138 17.3722898,22.9645379 16.6395604,24.4282966 C15.9582506,25.789469 16.9562584,26.322331 17.1993329,26.5708828 C17.4424075,26.8194345 18.7641251,28.0492966 19.9508663,29.3559517 C21.4601486,31.0166759 21.2170741,28.9649517 21.2170741,28.9649517 C18.9721408,12.5177448 19.0288192,12.909331 19.4150506,9.13181379 C19.8047878,5.32146897 21.6062271,1.34053793 21.6062271,1.34053793 C18.9768153,2.02346897 16.9317173,6.76236552 16.9317173,6.76236552 C11.1861604,4.56408966 8.93129373,0.094262069 8.93129373,0.094262069 C8.93129373,0.094262069 2.33614471,0.204468966 0.0596584314,1.12012414" id="Stroke-46" stroke="#2E4166" stroke-width="0.5"/>
          </g>
          <g id="Group-51" transform="translate(30.384314, 0.000000)">
            <path d="M1.0707549,61.0841069 C1.0707549,61.0841069 -5.09609216,39.4026586 15.4372765,23.9889345 C35.9688922,8.57521034 66.8440294,1.54776207 85.1301275,0.0816586207 L66.8510412,14.1506241 C66.8510412,14.1506241 72.3605353,14.6729345 78.9253,10.5636241 C78.5858137,10.7705552 79.0386569,14.7069345 68.0488843,22.0614862 C68.0488843,22.0614862 70.9809706,21.8950034 74.8625667,18.8901069 C74.8625667,18.8901069 71.9310647,25.9105207 60.1752569,33.9257276 L65.0525235,32.8195552 C65.0525235,32.8195552 39.6360451,49.6917621 30.8146608,64.393831" id="Fill-48" fill="#2E4166"/>
            <path d="M1.0707549,61.0841069 C1.0707549,61.0841069 -5.09609216,39.4026586 15.4372765,23.9889345 C35.9688922,8.57521034 66.8440294,1.54776207 85.1301275,0.0816586207 L66.8510412,14.1506241 C66.8510412,14.1506241 72.3605353,14.6729345 78.9253,10.5636241 C78.5858137,10.7705552 79.0386569,14.7069345 68.0488843,22.0614862 C68.0488843,22.0614862 70.9809706,21.8950034 74.8625667,18.8901069 C74.8625667,18.8901069 71.9310647,25.9105207 60.1752569,33.9257276 L65.0525235,32.8195552 C65.0525235,32.8195552 39.6360451,49.6917621 30.8146608,64.393831" id="Stroke-50" stroke="#5F6484" stroke-width="0.5"/>
          </g>
          <path d="M0.953833725,55.692 C0.953833725,55.692 -1.0141349,47.5665862 3.67556706,42.6629655 C7.73537882,38.4182414 25.5873318,24.9061724 52.3851278,27.3776207 C62.1566063,28.2024138 62.2506808,34.7814138 62.2407475,35.7064483 C62.2296455,36.6308966 60.2318769,45.6350345 60.2318769,45.6350345 C60.2318769,45.6350345 60.4387239,62.0236207 81.3898769,67.2654828 C95.6015553,70.8214138 107.5981,79.8917931 107.5981,79.8917931 C107.5981,79.8917931 111.651485,75.6746207 114.833657,73.6275862 C118.193461,71.4662414 121.420626,69.7386897 122.461289,70.365931 C123.65212,71.0822759 124.031924,73.8098966 124.031924,73.8098966 C124.031924,73.8098966 134.438551,71.2370345 134.184375,73.8831724 C133.92903,76.5269655 120.191814,81.0858966 107.040081,83.7261724 C94.0315043,86.3371379 68.5770455,92.1464483 45.9711161,87.567 C26.9108024,83.555 24.1505043,75.3117586 28.7321082,62.7821724 C31.9329788,54.0295172 41.4210651,43.7327931 41.4210651,43.7327931 C41.4210651,43.7327931 21.9458886,44.1443103 6.10923373,49.5931034 C6.10923373,49.5931034 2.42572,50.7274138 0.953833725,55.692" id="Fill-52" fill="#353C62"/>
          <path d="M54.1503396,34.086231 C54.1503396,34.086231 57.8245043,37.1087138 54.6733004,41.7573345 C51.5220965,46.4071276 37.0755239,55.608231 33.1723082,64.6358172 C28.2763435,75.9589897 34.1212337,82.9096448 35.9939592,84.366369 C35.9939592,84.366369 26.1739827,79.6210241 26.9499514,70.4896793 C28.1805161,56.0080241 43.9225122,40.2267483 49.4734925,37.1040241 C55.0238886,33.9813 54.1503396,34.086231 54.1503396,34.086231" id="Fill-54" fill="#FAF1E8"/>
          <path d="M46.8652329,38.9988793 C46.8652329,38.9988793 44.8066957,38.7737759 44.468378,36.5743276 C44.1972565,34.7998793 44.6202996,30.509431 44.2375741,29.2420517 C43.8554329,27.9740862 43.367531,27.2618448 43.367531,27.2618448 C43.367531,27.2618448 21.3833114,26.6943966 3.67568392,42.6632586 C-0.872029804,46.7643621 0.953950588,55.6922931 0.953950588,55.6922931 C0.953950588,55.6922931 1.75971922,51.6591897 6.22329176,49.5541207 C10.8820251,47.3576034 35.8503349,43.1076034 41.421182,43.7330862 L46.8652329,38.9988793 Z" id="Fill-56" fill="#FFA364"/>
          <path d="M41.4209482,43.7328517 L46.663411,39.1029897 C46.663411,39.1029897 16.327011,42.4320586 5.58849333,49.6001966 C5.58849333,49.6001966 22.573909,44.1150586 41.4209482,43.7328517" id="Fill-58" fill="#FF7664"/>
          <path d="M0.976621961,56.0083172 C0.976621961,56.0083172 -2.55380157,45.1400414 8.43188078,38.8201448 C13.3144063,36.0116276 18.7304102,35.5807655 19.5466965,38.7509724 C20.0895239,40.8583862 18.3967671,44.271869 9.58064157,47.4690414 C5.04227686,49.1145241 1.52646118,52.3304552 0.976621961,56.0083172" id="Fill-60" fill="#353C62"/>
          <path d="M0.953833725,55.692 C0.953833725,55.692 -1.0141349,47.5665862 3.67556706,42.6629655 C7.73537882,38.4182414 25.5873318,24.9061724 52.3851278,27.3776207 C62.1566063,28.2024138 62.2962573,34.7831724 62.2407475,35.7064483 C62.0578573,38.7107586 60.2318769,45.6350345 60.2318769,45.6350345 C60.2318769,45.6350345 59.31392,61.3137241 79.1128063,66.5555862 C84.8472612,68.0738621 97.5549161,72.490931 107.5981,79.8917931 C107.5981,79.8917931 112.27261,75.2021379 114.833657,73.6275862 C118.779528,71.2018621 121.420626,69.7386897 122.461289,70.365931 C123.65212,71.0822759 124.031924,73.8098966 124.031924,73.8098966 C124.031924,73.8098966 134.438551,71.2370345 134.184375,73.8831724 C133.92903,76.5269655 122.322222,80.4527931 109.204963,83.2624828 C95.0704141,86.2902414 82.5456494,89.0624138 62.8250612,89.0512759 C37.7726102,88.9047241 29.6892141,81.8215862 27.6931984,76.0814483 C23.006418,62.6039655 41.4210651,43.7327931 41.4210651,43.7327931 C41.4210651,43.7327931 21.9458886,44.1443103 6.10923373,49.5931034 C6.10923373,49.5931034 2.42572,50.7274138 0.953833725,55.692 Z" id="Stroke-62" stroke="#1E223D" stroke-width="0.5"/>
          <path d="M44.3641949,30.1811552 C44.3641949,30.1811552 54.1251557,27.1135345 54.9852655,31.1999828 C55.8442067,35.2870172 49.8152576,37.8692586 46.9562106,38.9555 C46.9562106,38.9555 44.8567714,38.7128103 44.4401557,36.4301207 C44.02354,34.147431 44.5698733,32.0159828 44.3641949,30.1811552" id="Fill-64" fill="#FFD5A3"/>
          <path d="M43.2406765,27.1304759 C43.2406765,27.1304759 44.5711588,28.2513034 44.366649,31.5088552 C44.1621392,34.7675793 43.8746569,38.5914069 46.8651745,38.9988207 C46.8651745,38.9988207 41.8184569,43.3039241 41.2557627,43.9376138" id="Stroke-66" stroke="#1E223D" stroke-width="0.5"/>
          <path d="M46.8652329,38.9988793 C46.8652329,38.9988793 4.89456235,43.8837414 1.79010353,53.6218103" id="Stroke-68" stroke="#1E223D" stroke-width="0.5"/>
          <path d="M8.41008588,38.7109345 C8.41008588,38.7109345 17.6714584,33.997831 19.4337486,38.4154862 C21.0756702,42.5283138 13.5409447,45.6985207 11.8984388,46.5338655" id="Stroke-70" stroke="#1E223D" stroke-width="0.5"/>
          <path d="M51.2812424,32.6313241 C51.0469325,31.4817724 49.9273875,30.7402207 48.7815482,30.9758759 C47.635709,31.211531 46.8959678,32.3347034 47.130862,33.4842552 C47.3663404,34.6338069 48.4853012,35.3753586 49.6317247,35.1397034 C50.7775639,34.9040483 51.5161365,33.7808759 51.2812424,32.6313241" id="Fill-72" fill="#1E223D"/>
          <path d="M50.3157808,32.8296379 C50.1673651,32.1027414 49.4597612,31.6343621 48.7357965,31.7832586 C48.0112475,31.9321552 47.5437965,32.6420517 47.6922122,33.3689483 C47.8406278,34.0958448 48.5488161,34.5642241 49.2733651,34.4153276 C49.9973298,34.266431 50.4641965,33.5565345 50.3157808,32.8296379" id="Fill-74" fill="#495AA9"/>
          <path d="M49.8449992,32.9267138 C49.7497561,32.4606793 49.2957443,32.1599552 48.8317992,32.2555069 C48.3672698,32.3510586 48.0681012,32.8059552 48.1621757,33.2725759 C48.2574188,33.7386103 48.7120149,34.0381621 49.1753757,33.9431966 C49.6399051,33.8476448 49.9402424,33.3927483 49.8449992,32.9267138" id="Fill-76" fill="#1E223D"/>
          <g id="Group-81" transform="translate(48.498039, 29.896552)">
            <path d="M0.505840392,30.2839172 C0.505840392,30.2839172 3.51680902,8.10595172 28.0579855,2.3411931 C52.599162,-3.42297931 83.1295541,2.58564138 100.147691,8.59426207 L78.1628875,14.0412966 C78.1628875,14.0412966 82.9104365,16.7278828 90.4334757,15.6287448 C90.04666,15.680331 88.8996522,19.4390897 76.1177894,21.7106414 C76.1177894,21.7106414 78.8202404,22.7365034 83.4947502,21.5640897 C83.4947502,21.5640897 78.0898482,26.7666759 64.3584757,29.331331 L69.1790639,30.2839172 C69.1790639,30.2839172 39.6712208,35.4132276 25.9398482,45.2321931" id="Fill-78" fill="#353C62"/>
            <path d="M0.505840392,30.2839172 C0.505840392,30.2839172 3.51680902,8.10595172 28.0579855,2.3411931 C52.599162,-3.42297931 83.1295541,2.58564138 100.147691,8.59426207 L78.1628875,14.0412966 C78.1628875,14.0412966 82.9104365,16.7278828 90.4334757,15.6287448 C90.04666,15.680331 88.8996522,19.4390897 76.1177894,21.7106414 C76.1177894,21.7106414 78.8202404,22.7365034 83.4947502,21.5640897 C83.4947502,21.5640897 78.0898482,26.7666759 64.3584757,29.331331 L69.1790639,30.2839172 C69.1790639,30.2839172 39.6712208,35.4132276 25.9398482,45.2321931" id="Stroke-80" stroke="#5F6484" stroke-width="0.5"/>
          </g>
          <path d="M55.0678875,65.3830552 C55.0678875,65.3830552 55.1771541,65.0272276 55.428409,64.3747793 C55.6890129,63.7276069 56.0729071,62.7744345 56.6694914,61.6125724 C57.2707502,60.4548138 58.032111,59.0590552 59.0406365,57.5413655 C60.0532522,56.0295379 61.2522639,54.349469 62.7557031,52.6793655 C63.1115502,52.2438138 63.5240757,51.8451931 63.9196561,51.4155034 C64.3210796,50.9910897 64.7242561,50.5526069 65.1712561,50.1434345 C65.6100757,49.725469 66.0564914,49.300469 66.5093345,48.8696069 C66.9843816,48.4621931 67.4664404,48.048331 67.9549267,47.6291931 C69.9445149,45.9989517 72.1339384,44.3628483 74.5962365,42.999331 C75.7917424,42.2548483 77.0988522,41.6698138 78.3814208,41.0009517 C79.0387737,40.6996414 79.7119031,40.4217793 80.3815267,40.1286759 C81.0517345,39.8344 81.7260325,39.542469 82.4260404,39.3085724 C83.1202051,39.0582621 83.8167071,38.8073655 84.514962,38.5552966 C85.2155541,38.3055724 85.9389345,38.1256069 86.6523816,37.9069517 C87.3710875,37.7094 88.0792757,37.4614345 88.8108365,37.3037448 L90.9996757,36.8042966 L92.0964325,36.5627793 L93.2048757,36.386331 C93.9422796,36.2702621 94.6802678,36.1547793 95.4165031,36.0392966 C96.1504012,35.9050552 96.8924796,35.8540552 97.6292992,35.7784345 C98.3672875,35.706331 99.1017698,35.6348138 99.8339149,35.5632966 C101.299374,35.4331586 102.759574,35.4243655 104.198154,35.3505034 C104.918029,35.3047793 105.633813,35.3270552 106.344338,35.3370207 C107.054864,35.3469862 107.760131,35.3569517 108.45897,35.366331 C109.85957,35.3581241 111.229785,35.4806414 112.57137,35.5785379 C113.242746,35.6295379 113.905358,35.6799517 114.560958,35.7297793 C115.215974,35.7784345 115.85755,35.8839517 116.493868,35.9572276 C117.763582,36.1178483 118.998236,36.2737793 120.193158,36.4250207 C121.378731,36.6319517 122.523985,36.8312621 123.624248,37.0235379 C125.831201,37.3623655 127.816699,37.8659172 129.581911,38.2709862 C130.46364,38.4796759 131.292197,38.6578828 132.051221,38.8530897 C132.806154,39.0623655 133.500319,39.2546414 134.126703,39.4287448 C136.626397,40.137469 138.055044,40.5425379 138.055044,40.5425379 C138.055044,40.5425379 136.607115,40.2177793 134.072362,39.650331 C133.440135,39.5043655 132.740127,39.3437448 131.978182,39.168469 C131.212731,39.0078483 130.378915,38.8671586 129.491342,38.698331 C127.71386,38.3765034 125.719013,37.9655724 123.517319,37.6742276 C122.419393,37.5136069 121.275891,37.3459517 120.091487,37.1724345 C118.901825,37.0546069 117.671844,36.9326759 116.407389,36.8078138 C115.775162,36.7527103 115.136507,36.6647793 114.485582,36.6342966 C113.834656,36.6026414 113.176135,36.5709862 112.510601,36.5387448 C111.17895,36.4900897 109.822174,36.3535034 108.437935,36.3834 C107.746107,36.3798828 107.049021,36.3763655 106.34726,36.3728483 C105.644915,36.369331 104.937311,36.3535034 104.22737,36.4050897 C102.807487,36.4912621 101.365401,36.5123655 99.9233149,36.6536414 C99.2016875,36.7310207 98.4783071,36.8078138 97.7525894,36.8851931 C97.0274561,36.9660897 96.2964796,37.0229517 95.5760208,37.1612966 C94.8532247,37.281469 94.1286757,37.4022276 93.402958,37.5224 L92.3161345,37.7058828 L91.2404129,37.950331 L89.0860482,38.4210552 C88.3661737,38.5687793 87.6702561,38.8067793 86.9626522,38.9943655 C86.2614757,39.2030552 85.5480286,39.372469 84.8602914,39.6116414 C84.1731384,39.8525724 83.4877384,40.0929172 82.8046757,40.3320897 C82.1151855,40.5554345 81.4519894,40.8356414 80.7928835,41.1187793 C80.1337776,41.4001586 79.4711659,41.6662966 78.8243306,41.9558828 C77.5622129,42.6012966 76.2738012,43.1622966 75.096409,43.8815724 C72.682609,45.2134345 70.4861737,46.739331 68.4889894,48.2910207 C67.9975816,48.6896414 67.5131855,49.0829862 67.0352169,49.4710552 C66.5788678,49.8831586 66.1289463,50.2888138 65.6866208,50.6880207 C65.2355306,51.0790207 64.8270953,51.4999172 64.4209973,51.907331 C64.020158,52.3200207 63.6017894,52.7022276 63.2400992,53.1213655 C61.7249737,54.7363655 60.4675306,56.3378828 59.3964835,57.7875724 C58.3330325,59.2460552 57.5167463,60.5955034 56.8687424,61.7198483 C55.5914325,63.9820207 55.0678875,65.3830552 55.0678875,65.3830552" id="Fill-82" fill="#1E223D"/>
        </g>
      </g>
    </g>
  </g>
</svg>