<svg version="1.1" id="Layer_1" x="0px" y="0px" width="150px" height="150px" viewBox="0 0 150 150" enable-background="new 0 0 150 150" xml:space="preserve" xmlns="http://www.w3.org/2000/svg" xmlns:xlink="http://www.w3.org/1999/xlink">
  <g>
    <path fill="#006B9E" d="M48.354,64.124c4.19,0.516,6.142,3.55,10.332,3.228c-0.504-4.261-1.039-6.746-3.15-10.458&#xD;&#xA;&#x9;c-2.302,0.714-3.086,1.528-4.411,3.163c-0.339,0.419-1.09,0.792-1.323,1.292c-0.161,0.343,0.292,0.648,0.189,1.032&#xD;&#xA;&#x9;C49.875,62.807,48.391,63.643,48.354,64.124z M52.889,76.389c-2.299-0.775-3.087-2.389-5.167-3.615&#xD;&#xA;&#x9;c-2.709-1.614-4.568-2.1-7.183-3.874c-2.236-1.517-4.19-1.549-4.662-4.26c-0.6-3.356,2.172-4.776,4.157-7.487&#xD;&#xA;&#x9;c3.875-5.293,9.892-11.103,15.374-14.588c4.096-2.614,4.663-2,4.663-6.971c6.08,0,9.293,2.066,15.374,2.582&#xD;&#xA;&#x9;c1.354,0.097,0.724,2.323,1.891,2.969c1.479,0.807,2.68,0.613,4.032,1.678c2.679,2.13,5.008,2.97,6.174,6.197&#xD;&#xA;&#x9;c1.953,5.357,2.742,8.585,3.653,14.201c1.011,6.229,3.275,9.294,4.285,15.621c-3.057,1.194-5.073,0.903-8.316,0.903l-2.896-15.492&#xD;&#xA;&#x9;c-1.354,1.227-1.767,9.618-1.64,12.779c0.188,5.166,1.701,7.876,2.144,13.038c0.473,5.587,3.592,7.875,5.166,13.299&#xD;&#xA;&#x9;c0.758,2.646,1.354,4.132,2.771,6.455c0.949,1.56,8.969,16.593,9.896,17.76c0.111,0.1,0.088,0.111,0,0&#xD;&#xA;&#x9;c-1.619,2.064-3.185,2.559-5.36,3.93c-2.079,1.321-4.946,2.484-6.302,0.387c-3.184-4.904-16.38-36.082-16.38-39.502&#xD;&#xA;&#x9;c-1.135,3.261-1.135,35.211-1.135,43.504c-1.764-0.256-3.465,0-5.166-0.773c-2.395-1.097-4.064-1.097-6.68-0.773&#xD;&#xA;&#x9;c0-13.65,0.757-21.334,0.757-34.983c0-6.165-0.915-9.586-1.261-15.75c-0.125-2.519,0.379-5.196-1.89-6.197&#xD;&#xA;&#x9;C56.794,76.354,55.503,75.968,52.889,76.389z"/>
    <path fill="#BA8743" d="M67.398,14.147c-1.73,0.583-0.065,0.519-1.436,1.728c-0.844,0.735-0.506,1.772-1.181,2.68&#xD;&#xA;&#x9;c-0.506,0.691-1.413,0.541-1.772,1.296c-0.569,1.167-0.504,2.204,0.085,3.372c0.485,0.972,0.949,2.117,0.169,2.852&#xD;&#xA;&#x9;c-0.927,0.886-2.339,0.341-3.628,0.259c-2.7-0.173-1.961,4.127-0.337,4.494c0.949,0.217,1.772-0.346,2.447,0.346&#xD;&#xA;&#x9;c0.929,0.952,0.193,3.102,0.721,4.355c0.802,1.88,2.618,1.83,4.6,1.614c2.236-0.238,4.758,0.688,6.994,0.774&#xD;&#xA;&#x9;c0.803,0.022,0.722-1.125,0.933-1.903c0.38-1.426-0.169-2.312-0.169-3.803c-2.278-0.194-4.535-0.108-5.399-2.247&#xD;&#xA;&#x9;c3.227-1.513,6.96-0.151,8.437-3.457c-0.61-0.303-0.844-0.627-1.266-1.125c1.266-1.469,2.995-2.399,2.532-4.321&#xD;&#xA;&#x9;c-0.423-1.772-2.596-1.038-4.22-1.729C71.659,17.949,70.919,14.147,67.398,14.147z"/>
    <path fill="#272525" d="M67.104,16.134c-0.378,1.804-1.477,3.372-3.265,3.467c0.199,0.559,0.311,1.288-0.211,1.648&#xD;&#xA;&#x9;c3.175,3.925-0.321,5.041-1.44,5.423c0.206,0.281,0.971,0.627,0.508,1.041c-1.161-0.559-2.73-1.511-4.15-0.304&#xD;&#xA;&#x9;c-0.413,0.352-0.494,1.108-0.26,1.56c0.938,1.806,2.912,1.254,4.43,0.908c0.478,1.186,0.211,2.333-0.104,3.129&#xD;&#xA;&#x9;c0.464,0.849,0.292,2.384,0.611,3.232c3.781,0.71,7.261,1.693,10.9,1.614c-0.034-1.171,0.485-4.011,0.261-5.149&#xD;&#xA;&#x9;c-2.051,0.086-4.078-0.019-5.382-3.431c2.91,0,6.36-0.963,8.143-2.074c-0.761-0.562-1.479-1.038-2.251-2.088&#xD;&#xA;&#x9;c0.979-0.629,3.72-2.019,3.606-3.395c-0.054-0.639-0.687-1.443-1.312-1.562c-3.303-0.626-5.222-1.252-7.545-3.806&#xD;&#xA;&#x9;c-0.179-0.93,1.142-0.745,1.524-1.345c2.098,5.237,8.12,3.299,8.926,5.414c0.807,2.114-0.839,3.713-2.529,4.564&#xD;&#xA;&#x9;c0.318,0.697,1.82,1.405,1.102,2.299c-1.721,2.134-5.814,2.786-8.342,2.604c1.847,2.285,3.743,1.967,5.685,1.593&#xD;&#xA;&#x9;c0.043,1.97,0.027,4.896-0.874,6.699c-0.653,0.545-12.376-1.447-13.535-1.829c-0.375-0.842-0.207-1.823-0.508-2.69&#xD;&#xA;&#x9;c-3.517,2.66-6.681,0.814-6.691-1.908c-2.358,0.079-5.391-2.043-3.261-5.51c-3.167-2.803-3.493-5.806-0.128-8.547&#xD;&#xA;&#x9;c-0.413-0.982-0.482-3.632,2.302-3.806c-0.971-2.463,1.265-8.038,6.762-6.086c0.832-3.638,6.654-3.594,6.906-0.656&#xD;&#xA;&#x9;c0.97-0.129,4.346-1.411,5.442,1.686C73.092,10.735,72.292,16.177,67.104,16.134z"/>
    <path fill="#553723" d="M68.832,14.448c-1.519,0.697-2.842-1.388-3.248,0.821c-0.415,2.261-2.404,3.544-3.989,3.16&#xD;&#xA;&#x9;c1.109,1.959,0.403,3.151-0.508,3.558c1.855,0.564,2.145,3.046,0.719,4.252c-4.977-3.022-6.911,4.386-2.54,5.119&#xD;&#xA;&#x9;c0.897,0.15,1.847,0.032,2.54-0.434c-0.355,1.807-3.397,3.288-5.671,1.979c-1.157-0.666-0.802-1.815-1.097-3.025&#xD;&#xA;&#x9;c-4.05-0.648-2.152-3.673-1.478-4.538c-1.409-1.236-3.203-2.084-2.995-3.889c0.284-2.458,1.729-2.81,3.08-3.371&#xD;&#xA;&#x9;c-0.929-0.951-0.126-3.285,1.771-2.939c-0.295-1.254-0.698-2.736,1.011-4.216c1.453-1.258,3.083-1.874,4.954-1.128&#xD;&#xA;&#x9;c-0.523-2.91,4.962-4.034,4.919,0.115C71.743,7.361,71.659,13.152,68.832,14.448z"/>
    <path fill="#272525" d="M85.667,46.415c-1.758-0.151-3.537-1.828-5.203-2.518c-1.524-0.631-3.002-1.042-4.547-1.594&#xD;&#xA;&#x9;c-0.409-0.586-0.241-1.389,0-2.015c1.94-5.036,9.455-1.552,10.446,2.434C86.625,43.772,86.534,45.672,85.667,46.415z"/>
    <path fill="#EBBC0A" d="M85.146,45.275c-1.105-0.395-7.428-4.274-7.428-4.274C76.874,38.094,85.902,39.273,85.146,45.275z"/>
    <path fill="#272525" d="M60.056,39.39c-0.727,2.03-7.735,6.934-9.827,7.646c-4.192-0.983-0.771-10.611,6.167-9.529&#xD;&#xA;&#x9;C57.619,37.698,59.394,38.245,60.056,39.39z"/>
    <path fill="#EBBC0A" d="M59.063,40.047c-0.897,0.735-8.13,5.547-8.757,5.423c-0.643-2.698,0.695-4.826,2.645-5.87&#xD;&#xA;&#x9;C54.828,38.594,57.992,38.304,59.063,40.047z"/>
    <path fill="#272525" d="M76.629,37.367c0.768,1.086-0.391,2.797,1.271,3.231c8.119,2.125,11.783,10.626,13.561,18.34&#xD;&#xA;&#x9;c1.607,6.992,5.398,20.746,5.292,21c-0.106,0.256-0.957,0.449-0.957,0.449l0.763,1.973c0,0-0.472,0.142-0.668,0.257&#xD;&#xA;&#x9;c1.438,1.635,3.688,5.241,3.066,7.548c-0.492,1.834-2.35,0.516-2.785,1.092c0.281,1.955-1.717,2.488-3.031,1.217&#xD;&#xA;&#x9;c-0.435,0.354-0.994,0.592-1.564,0.697c-2,0.372-1.579-2.311-2.143-3.484c-1.957,0.983-4.728-2.58-0.631-5.293&#xD;&#xA;&#x9;c0.127-0.773,0.188-1.291,0.188-1.291l-0.661-0.064l0.156-1.936c0,0-0.979,0.133-1.135-0.26C85.91,77.141,84.35,66.746,83.88,65.99&#xD;&#xA;&#x9;c-1.993,20.794,7.244,41.738,18.106,58.797c0.637,0.999,1.572,2.068,2.377,2.938c0.084,0.742-0.646,0.898-1.105,1.215&#xD;&#xA;&#x9;c1.854,1.11,7.702,4.271,8.071,6.55c0.101,0.626-0.483,1.095-0.983,1.301c-2.662,1.103-11.179-0.108-14.053-0.922&#xD;&#xA;&#x9;c-1.85-0.522-1.382-0.29-2.578-1.261c-0.165-0.131-1.923,0.168-2.134,0.168c-4.378-6.67-10.558-21.41-13.479-29.127&#xD;&#xA;&#x9;c-1.386-3.659-2.129-7.588-3.646-11.164c-0.484,3.201-0.571,31.053-0.082,41.51c-0.731,0.329-1.59,0.891-2.376,0.377&#xD;&#xA;&#x9;c0.148,0.646,3.093,7.337,2.539,8.854c-0.316,0.873-1.216,0.828-1.966,0.713c-6.467-0.986-10.061-10.524-10.405-10.658&#xD;&#xA;&#x9;c-0.555-0.217-1.208,0.326-1.885-0.295c1.219-16.934,2.301-33.635,0.41-50.571c0.44-0.236,1.059-0.593,1.557-0.293&#xD;&#xA;&#x9;c1.978,16.165,1.483,32.427,0.614,48.642c4.32-0.935,6.2-0.007,9.709,2.52c0.304-0.715,0.125-35.238,0.493-40.206&#xD;&#xA;&#x9;c0.06-0.825,0.46-5.419,1.883-4.532c0.772,0.48,1.257,3.282,1.557,4.238c0.734,2.346,6.454,20.721,9.751,26.986&#xD;&#xA;&#x9;c1.931,3.672,4.093,7.308,6.882,10.365c1.842-0.65,6.973-2.947,8.357-4.111c-1.49-1.623-12.906-23.381-14.544-27.701&#xD;&#xA;&#x9;c-3.027-7.992-5.61-18.014-5.202-26.607c-4.852-0.25-11.002,0.146-15.884-0.035c-0.375-0.319-0.999-1.026-1.071-1.483&#xD;&#xA;&#x9;c1.122-0.121,5.384-0.316,6.303-0.284c0.315-0.332,4.346-17.79-0.081-24.846c-0.406-0.647-2.026-2.6-2.376-2.645&#xD;&#xA;&#x9;c0.329-1.861,0.491-5.833,0.491-5.833c-2.74-0.373-5.388-1.21-8.029-2.015c-0.031,1.271,0.401,2.489,0.573,3.735&#xD;&#xA;&#x9;c-7.994,3.43-23.009,15.799-25.275,24.971c2.955,1.905,14.545,8.269,16.917,10.367c1.126-0.866,4.936-4.969,5.365-6.291&#xD;&#xA;&#x9;c0.189-0.582-10.557-4.269-11.959-5.292c-0.236-0.172,1.706-1.248,2.375-1.889c-0.285-0.445-0.686-0.86-0.696-1.427l1.761-0.209&#xD;&#xA;&#x9;c-0.018-0.299-0.321-0.842-0.204-1.091c0.501-1.075,4.201-2.757,5.325-3.316c1.043,1.101,4.859,10.008,4.658,11.353&#xD;&#xA;&#x9;c-0.906,0.085-1.578-0.709-2.458-0.797c-0.315-1.979-0.503-3.851-3.184-8.164c-0.818,0.75-2.957,1.308-2.459,2.812l-1.064,0.629&#xD;&#xA;&#x9;c0.214,0.328,0.454,0.671,0.369,1.091l-1.188,0.63c3.767,1.467,7.632,2.649,11.428,4.029c0.158,0.461-0.05,1.461-0.05,1.461&#xD;&#xA;&#x9;l2.103,1.084c0,0-0.167,0.454-0.29,0.645c2.005,0.361,4.27,3.426,2.117,5.197c0.509,0.899,0.935,2.09,0.441,3.002&#xD;&#xA;&#x9;c-0.925,1.707-2.714,0.02-3.049,2.084c-0.156,0.957-0.549,1.238-1.475,1.807c-0.927,0.562-4.087,0.447-4.896-1.307&#xD;&#xA;&#x9;c-0.924-2.013,1.502-1.705,2.835-2.392l-0.888-0.627c-2.177,1.017-1.612-0.196-3.441-1.597c-0.512,0.509-1.146,0.916-1.884,0.883&#xD;&#xA;&#x9;c-4.324-3.934-15.235-9.901-17.572-12.593c-1.627-1.873,3.114-7.682,4.219-9.233c4.667-6.552,12.662-13.786,20.137-16.919&#xD;&#xA;&#x9;c-0.44-1.42-1.702-4.906-0.377-4.519C60.187,34.945,71.877,38.06,76.629,37.367z"/>
    <path fill="#00A1E4" d="M71.603,38.95c0.031,1.454-0.373,2.924-0.379,4.376c7.036,6.953,4.915,18.731,2.458,28.479&#xD;&#xA;&#x9;c-0.615,0.08-1.009,0.096-1.261,0.064c2.586-7.897,4.388-22.432-2.181-28.836c-0.177-1.337,0.314-2.913,0.29-4.244&#xD;&#xA;&#x9;C70.972,38.852,71.246,38.756,71.603,38.95z"/>
    <path fill="#006B9E" d="M75.033,39.087c0.152,1.01,0.006,1.327,0.229,2.334c1.451,0.533,2.925,0.964,4.343,1.594&#xD;&#xA;&#x9;c10.582,4.712,10.711,23.689,15.121,35.437c0.069,0.188-5.01,0.131-5.724,0.212c-1.687-3.091-3.842-11.792-4.508-15.11&#xD;&#xA;&#x9;c-0.097-0.491,1.521-5.633,1.764-6.547l-0.411-0.503c-0.369-0.076-0.649,0.337-0.777,0.629c-1.955,4.509-2.85,9.635-3.439,14.479&#xD;&#xA;&#x9;c-2.285,0.22-4.482,0.127-6.883,0.209c1.966-5.967,5.424-23.643-2.073-28.87c-0.122-1.062,0.137-2.901,0.312-3.948L75.033,39.087z"/>
    <path fill="#FFFFFF" d="M61.552,71.482c-0.82,2.141-2.271,4.35-4.032,5.776l-1.249-1.322c1.597-1.47,2.991-3.189,3.932-5.038&#xD;&#xA;&#x9;C60.571,70.898,61.225,71.355,61.552,71.482z"/>
    <path fill="#BA8743" d="M64.71,74.551c-0.363,0.433-0.796,0.644-1.353,0.882c0.495,0.729,1.388,1.813,0.937,2.667&#xD;&#xA;&#x9;c-0.559,1.049-2.792-0.347-2.27,1.711c0.21,0.82-0.346,1.549-1.354,2.131c-0.833,0.479-3.213,0.58-3.371-0.971&#xD;&#xA;&#x9;c-0.077-0.756,3.591,0.938,3.477-2.306c-0.588,0.09-1.25-0.114-1.638-0.589c1.739-1.62,2.761-3.808,3.728-5.959&#xD;&#xA;&#x9;C63.627,72.119,65.552,73.547,64.71,74.551z"/>
    <path fill="#FFFFFF" d="M89.779,82.357c0,0,0-0.74,0.031-1.646c1.513,0,3.184-0.098,4.916-0.323l0.25,1.613&#xD;&#xA;&#x9;C94.346,82.326,89.779,82.357,89.779,82.357z"/>
    <path fill="#BA8743" d="M97.182,89.686c-0.934,0.461-2.281-1.242-2.281-1.242s0.41,2.479-0.545,2.568&#xD;&#xA;&#x9;c-0.953,0.094-1.396-1.264-1.396-1.264s-1.045,1.277-1.583,0.919c-0.895-0.599,0.122-2.896-1.475-3.146&#xD;&#xA;&#x9;c-0.51,0.254,0.187,0.791-0.285,1.008c-3.335-0.377-1.811-2.362,0.285-3.315l0.082-1.513c2.408,0.177,3.729-0.342,4.908-0.299&#xD;&#xA;&#x9;C95.325,83.624,98.118,89.225,97.182,89.686z"/>
    <path fill="#765B31" d="M109.468,135.578c-0.651,1.273-9.813-0.678-14.444-2.021c1.764-1.006,3.646-2.14,5.49-3.229&#xD;&#xA;&#x9;C103.874,131.167,110.12,134.301,109.468,135.578z"/>
    <path fill="#765B31" d="M70.813,135.994c1.544,3.326,2.83,7.849,1.544,8.361c-1.285,0.517-6.6-5.613-7.934-9.203&#xD;&#xA;&#x9;C66.108,134.43,69.262,135.521,70.813,135.994z"/>
    <path fill="#272525" d="M71.194,19.787c0.369,1.547-1.92,1.165-3.513,3.091C66.685,21.705,69.78,18.915,71.194,19.787z"/>
    <polygon fill="#EBBC0A" points="50.196,44.877 52.251,50.214 53.255,49.676 50.755,44.549 "/>
    <polygon fill="#EBBC0A" points="51.572,43.753 53.627,49.089 54.63,48.551 52.12,43.432 "/>
    <polygon fill="#EBBC0A" points="52.897,42.819 55.304,47.757 56.258,47.131 53.464,42.414 "/>
    <polygon fill="#EBBC0A" points="54.506,41.833 56.927,47.022 57.882,46.395 55.042,41.45 "/>
    <polygon fill="#EBBC0A" points="56.215,40.825 58.541,46.044 59.516,45.452 56.847,40.408 "/>
    <polygon fill="#EBBC0A" points="57.868,39.908 60.272,45.237 61.248,44.645 58.58,39.6 "/>
    <polygon fill="#EBBC0A" points="77.691,40.488 75.643,43.782 77.357,44.063 78.421,40.596 "/>
    <polygon fill="#EBBC0A" points="79.508,41.027 77.877,44.389 79.174,44.602 80.236,41.135 "/>
    <polygon fill="#EBBC0A" points="81.6,41.98 79.375,44.962 80.607,45.424 82.297,42.228 "/>
    <polygon fill="#EBBC0A" points="83.369,43.261 81.141,46.244 82.375,46.706 84.064,43.51 "/>
    <polygon fill="#EBBC0A" points="84.535,44.486 82.66,47.837 83.891,48.3 85.113,44.928 "/>
  </g>
</svg>