<svg version="1.1" width="219" height="128" viewBox="-1 -1 219 128" xmlns="http://www.w3.org/2000/svg" xmlns:xlink="http://www.w3.org/1999/xlink">
  <!-- Exported by Scratch - http://scratch.mit.edu/ -->
  <g id="ID0.7729682996869087" transform="matrix(1, 0, 0, 1, 0, 0.5)">
    <g id="Page-1">
      <g id="City_Bus-02">
        <g id="Pink-Stripe">
          <path id="Path" fill="#FC9FE4" stroke="#FC9FE4" stroke-width="1.2" d="M 1.725 5.020 L 58.800 5.020 C 59.513 3.760 60.425 2.624 61.500 1.656 L 1.725 1.656 L 1.725 5.020 Z " transform="matrix(1, 0, 0, 1, -1, 103.4)"/>
          <path id="Path" fill="#FC9FE4" stroke="#FC9FE4" stroke-width="1.2" d="M 82.275 5.020 L 162.750 5.020 C 163.480 3.764 164.399 2.630 165.475 1.656 L 79.575 1.656 C 80.643 2.631 81.554 3.765 82.275 5.020 Z " transform="matrix(1, 0, 0, 1, -1, 103.4)"/>
          <path id="Path" fill="#FC9FE4" stroke="#FC9FE4" stroke-width="1.2" d="M 183.550 1.581 C 184.617 2.585 185.527 3.744 186.250 5.020 L 218.275 5.020 L 218.275 1.581 L 183.550 1.581 Z " transform="matrix(1, 0, 0, 1, -1, 103.4)"/>
        </g>
        <path id="Path" fill="#EA3681" stroke="none" stroke-width="1" d="M 213.950 2.510 L 12.200 2.510 C 10.375 12.775 4.575 45.754 4.575 48.489 L 4.575 106.591 L 61.500 106.591 C 66.636 101.945 74.439 101.945 79.575 106.591 L 165.475 106.591 C 170.611 101.945 178.414 101.945 183.550 106.591 L 218.275 106.591 L 218.275 40.282 L 218.275 6.902 C 218.282 5.744 217.830 4.630 217.019 3.807 C 216.208 2.983 215.104 2.516 213.950 2.510 Z " transform="matrix(1, 0, 0, 1, -1, -2)"/>
        <g id="Bergundy">
          <path id="Path" fill="#5E154D" stroke="#5E154D" stroke-width="1.2" d="M 84.075 6.676 L 160.975 6.676 C 160.984 4.334 161.596 2.035 162.750 0 L 82.275 0 C 83.448 2.028 84.068 4.331 84.075 6.676 Z " transform="matrix(1, 0, 0, 1, -1, 108.4)"/>
          <path id="Path" fill="#5E154D" stroke="#5E154D" stroke-width="1.2" d="M 1.725 2.334 C 1.739 4.726 3.667 6.662 6.050 6.676 L 57 6.676 C 57.007 4.331 57.627 2.028 58.800 0 L 1.725 0 L 1.725 2.334 Z " transform="matrix(1, 0, 0, 1, -1, 108.4)"/>
          <path id="Path" fill="#5E154D" stroke="#5E154D" stroke-width="1.2" d="M 186.250 0 C 187.424 2.055 188.045 4.382 188.050 6.751 L 213.950 6.751 C 216.333 6.738 218.261 4.802 218.275 2.409 L 218.275 0 L 186.250 0 Z " transform="matrix(1, 0, 0, 1, -1, 108.4)"/>
        </g>
        <g id="Top-Windows">
          <path id="Path" fill="#A170E0" stroke="none" stroke-width="1" d="M 28.775 1.882 L 19.200 26.980 L 47.750 26.980 L 57.325 1.882 L 28.775 1.882 " transform="matrix(1, 0, 0, 1, 11.5, 8)"/>
          <path id="Path" fill="#C5A2FC" stroke="none" stroke-width="1" d="M 27.325 1.882 L 17.750 26.980 L 19.200 26.980 L 28.775 1.882 L 27.325 1.882 " transform="matrix(1, 0, 0, 1, 11.5, 8)"/>
          <path id="Path" fill="#C5A2FC" stroke="none" stroke-width="1" d="M 55.325 1.882 L 45.600 26.980 L 49.200 26.980 L 58.800 1.882 L 55.325 1.882 " transform="matrix(1, 0, 0, 1, 11.5, 8)"/>
          <path id="Path" fill="#A170E0" stroke="none" stroke-width="1" d="M 58.800 1.882 L 49.200 26.980 L 110.150 26.980 L 119.725 1.882 L 58.800 1.882 " transform="matrix(1, 0, 0, 1, 11.5, 8)"/>
          <path id="Path" fill="#A170E0" stroke="none" stroke-width="1" d="M 24.125 1.882 L 14.550 26.980 L 17.750 26.980 L 27.325 1.882 L 24.125 1.882 " transform="matrix(1, 0, 0, 1, 11.5, 8)"/>
          <path id="Path" fill="#C5A2FC" stroke="none" stroke-width="1" d="M 18.625 1.882 L 9 26.980 L 14.550 26.980 L 24.125 1.882 L 18.625 1.882 " transform="matrix(1, 0, 0, 1, 11.5, 8)"/>
          <path id="Path" fill="#A170E0" stroke="none" stroke-width="1" d="M 7.950 1.882 C 5.950 1.882 6.150 1.481 5.750 3.288 C 5.350 5.095 2.825 21.459 2.500 23.918 C 2.175 26.378 3 27.031 5 27.031 L 9 27.031 L 18.625 1.933 L 7.950 1.882 Z " transform="matrix(1, 0, 0, 1, 11.5, 8)"/>
          <path id="Path" fill="#A170E0" stroke="none" stroke-width="1" d="M 128.400 1.882 L 118.825 26.980 L 180.750 26.980 L 190.325 1.882 L 128.400 1.882 " transform="matrix(1, 0, 0, 1, 11.5, 8)"/>
          <path id="Path" fill="#C5A2FC" stroke="none" stroke-width="1" d="M 188.425 1.882 L 178.950 26.980 L 182.225 26.980 L 191.800 1.882 L 188.425 1.882 " transform="matrix(1, 0, 0, 1, 11.5, 8)"/>
          <path id="Path" fill="#A170E0" stroke="none" stroke-width="1" d="M 195.850 1.882 L 191.800 1.882 L 182.225 26.980 L 195.850 26.980 L 195.850 1.882 " transform="matrix(1, 0, 0, 1, 11.5, 8)"/>
          <path id="Path" fill="#C5A2FC" stroke="none" stroke-width="1" d="M 124.425 1.882 L 114.850 26.980 L 120.625 26.980 L 129.925 1.882 L 124.425 1.882 " transform="matrix(1, 0, 0, 1, 11.5, 8)"/>
          <path id="Path" fill="#C5A2FC" stroke="none" stroke-width="1" d="M 119.725 1.882 L 110.150 26.980 L 111.600 26.980 L 121.200 1.882 L 119.725 1.882 " transform="matrix(1, 0, 0, 1, 11.5, 8)"/>
          <path id="Path" fill="#A170E0" stroke="none" stroke-width="1" d="M 121.200 1.882 L 111.600 26.980 L 114.850 26.980 L 124.425 1.882 L 121.200 1.882 " transform="matrix(1, 0, 0, 1, 11.5, 8)"/>
          <path id="Path" fill="none" stroke="#5E154D" stroke-width="0.9" stroke-linecap="round" stroke-linejoin="round" d="M 8.075 1.882 L 195.950 1.882 L 195.950 26.980 L 5 26.980 C 3.100 26.980 2.225 26.177 2.500 23.868 C 2.775 21.559 5.450 5.045 5.850 3.238 C 6.250 1.431 6.050 1.882 8.075 1.882 Z " transform="matrix(1, 0, 0, 1, 11.5, 8)"/>
          <path id="Rectangle" fill="#5E154D" stroke="#5E154D" stroke-width="0.725" stroke-linecap="round" stroke-linejoin="round" d="M 33.225 1.832 L 36.700 1.832 L 36.700 27.031 L 33.225 27.031 L 33.225 1.832 Z " transform="matrix(1, 0, 0, 1, 11.5, 8)"/>
          <path id="Rectangle" fill="#5E154D" stroke="#5E154D" stroke-width="0.725" stroke-linecap="round" stroke-linejoin="round" d="M 66.775 1.832 L 70.250 1.832 L 70.250 27.031 L 66.775 27.031 L 66.775 1.832 Z " transform="matrix(1, 0, 0, 1, 11.5, 8)"/>
          <path id="Rectangle" fill="#5E154D" stroke="#5E154D" stroke-width="0.725" stroke-linecap="round" stroke-linejoin="round" d="M 100.650 1.832 L 104.125 1.832 L 104.125 27.031 L 100.650 27.031 L 100.650 1.832 Z " transform="matrix(1, 0, 0, 1, 11.5, 8)"/>
          <path id="Rectangle" fill="#5E154D" stroke="#5E154D" stroke-width="0.725" stroke-linecap="round" stroke-linejoin="round" d="M 134.550 1.832 L 138.025 1.832 L 138.025 27.031 L 134.550 27.031 L 134.550 1.832 Z " transform="matrix(1, 0, 0, 1, 11.5, 8)"/>
          <path id="Rectangle" fill="#5E154D" stroke="#5E154D" stroke-width="0.725" stroke-linecap="round" stroke-linejoin="round" d="M 168.450 1.832 L 171.925 1.832 L 171.925 27.031 L 168.450 27.031 L 168.450 1.832 Z " transform="matrix(1, 0, 0, 1, 11.5, 8)"/>
        </g>
        <g id="Left-Wheel">
          <path id="Oval" fill="#FDE982" stroke="none" stroke-width="1" d="M 10.425 4.518 C 12.398 4.518 14.185 5.322 15.479 6.621 C 16.774 7.921 17.575 9.715 17.575 11.696 C 17.575 13.676 16.774 15.471 15.479 16.770 C 14.185 18.069 12.398 18.874 10.425 18.874 C 8.452 18.874 6.665 18.069 5.371 16.770 C 4.076 15.471 3.275 13.676 3.275 11.696 C 3.275 9.715 4.076 7.921 5.371 6.621 C 6.665 5.322 8.452 4.518 10.425 4.518 Z " transform="matrix(1, 0, 0, 1, 59, 103.4)"/>
          <path id="Shape" fill="#5E154D" stroke="#5E154D" stroke-width="0.6" stroke-linecap="round" stroke-linejoin="round" d="M 10.525 1.581 C 4.754 1.581 0.075 6.278 0.075 12.072 C 0.075 17.866 4.754 22.563 10.525 22.563 C 16.296 22.563 20.975 17.866 20.975 12.072 C 20.975 6.278 16.296 1.581 10.525 1.581 Z M 10.525 18.045 C 8.106 18.045 5.926 16.581 5.002 14.337 C 4.079 12.092 4.595 9.510 6.309 7.797 C 8.023 6.083 10.597 5.576 12.829 6.512 C 15.061 7.449 16.510 9.644 16.500 12.072 C 16.500 13.661 15.870 15.184 14.748 16.305 C 13.627 17.426 12.107 18.052 10.525 18.045 Z " transform="matrix(1, 0, 0, 1, 59, 103.4)"/>
          <path id="Oval" fill="#FFFFFF" stroke="#A170E0" stroke-width="0.9" stroke-linecap="round" stroke-linejoin="round" d="M 10.525 9.085 C 11.346 9.085 12.090 9.420 12.628 9.961 C 13.167 10.501 13.500 11.248 13.500 12.072 C 13.500 12.896 13.167 13.643 12.628 14.183 C 12.090 14.724 11.346 15.059 10.525 15.059 C 9.704 15.059 8.960 14.724 8.422 14.183 C 7.883 13.643 7.550 12.896 7.550 12.072 C 7.550 11.248 7.883 10.501 8.422 9.961 C 8.960 9.420 9.704 9.085 10.525 9.085 Z " transform="matrix(1, 0, 0, 1, 59, 103.4)"/>
        </g>
        <g id="Right-Wheel">
          <path id="Oval" fill="#FDE982" stroke="none" stroke-width="1" d="M 12 4.518 C 13.973 4.518 15.760 5.322 17.054 6.621 C 18.349 7.921 19.150 9.715 19.150 11.696 C 19.150 13.676 18.349 15.471 17.054 16.770 C 15.760 18.069 13.973 18.874 12 18.874 C 10.027 18.874 8.240 18.069 6.946 16.770 C 5.651 15.471 4.850 13.676 4.850 11.696 C 4.850 9.715 5.651 7.921 6.946 6.621 C 8.240 5.322 10.027 4.518 12 4.518 Z " transform="matrix(1, 0, 0, 1, 161.5, 103.4)"/>
          <path id="Shape" fill="#5E154D" stroke="#5E154D" stroke-width="0.6" stroke-linecap="round" stroke-linejoin="round" d="M 12 1.581 C 6.235 1.609 1.582 6.318 1.600 12.105 C 1.618 17.893 6.302 22.572 12.067 22.563 C 17.831 22.554 22.500 17.860 22.500 12.072 C 22.500 9.281 21.392 6.605 19.422 4.636 C 17.451 2.667 14.780 1.568 12 1.581 Z M 12 18.045 C 9.579 18.056 7.391 16.598 6.460 14.354 C 5.528 12.110 6.038 9.524 7.750 7.806 C 9.462 6.087 12.038 5.575 14.273 6.510 C 16.508 7.445 17.960 9.641 17.950 12.072 C 17.950 15.371 15.286 18.045 12 18.045 Z " transform="matrix(1, 0, 0, 1, 161.5, 103.4)"/>
          <path id="Oval" fill="#FFFFFF" stroke="#A170E0" stroke-width="0.9" stroke-linecap="round" stroke-linejoin="round" d="M 12 9.085 C 12.821 9.085 13.565 9.420 14.103 9.961 C 14.642 10.501 14.975 11.248 14.975 12.072 C 14.975 12.896 14.642 13.643 14.103 14.183 C 13.565 14.724 12.821 15.059 12 15.059 C 11.179 15.059 10.435 14.724 9.897 14.183 C 9.358 13.643 9.025 12.896 9.025 12.072 C 9.025 11.248 9.358 10.501 9.897 9.961 C 10.435 9.420 11.179 9.085 12 9.085 Z " transform="matrix(1, 0, 0, 1, 161.5, 103.4)"/>
        </g>
        <g id="Left-Door-Windows">
          <path id="Path" fill="#FDE982" stroke="#5E154D" stroke-width="0.9" stroke-linejoin="round" d="M 38.975 0 L 1.475 0 L 1.475 51.853 L 38.975 51.853 L 38.975 0 " transform="matrix(1, 0, 0, 1, 11.5, 63.25)"/>
          <path id="Path" fill="#8B49D4" stroke="#FFFFFF" stroke-width="0.9" stroke-linecap="round" stroke-linejoin="round" d="M 18.200 4.242 L 5.575 4.242 L 5.575 41.738 L 18.200 41.738 L 18.200 4.242 " transform="matrix(1, 0, 0, 1, 11.5, 63.25)"/>
          <path id="Path" fill="#B388ED" stroke="none" stroke-width="1" d="M 27.350 4.242 L 22.350 17.493 L 22.350 21.459 L 28.900 4.242 L 27.350 4.242 " transform="matrix(1, 0, 0, 1, 11.5, 63.25)"/>
          <path id="Path" fill="#8B49D4" stroke="none" stroke-width="1" d="M 22.300 4.242 L 22.300 17.569 L 27.300 4.317 L 22.300 4.242 " transform="matrix(1, 0, 0, 1, 11.5, 63.25)"/>
          <path id="Path" fill="#8B49D4" stroke="none" stroke-width="1" d="M 33.525 4.242 L 22.300 33.682 L 22.300 41.738 L 34.800 41.738 L 34.800 4.242 L 33.525 4.242 " transform="matrix(1, 0, 0, 1, 11.5, 63.25)"/>
          <path id="Path" fill="#B388ED" stroke="none" stroke-width="1" d="M 30.300 4.242 L 22.300 25.249 L 22.300 33.682 L 33.525 4.242 L 30.300 4.242 " transform="matrix(1, 0, 0, 1, 11.5, 63.25)"/>
          <path id="Path" fill="#8B49D4" stroke="none" stroke-width="1" d="M 28.850 4.242 L 22.300 21.459 L 22.300 25.249 L 30.300 4.242 L 28.850 4.242 " transform="matrix(1, 0, 0, 1, 11.5, 63.25)"/>
          <path id="Path" fill="none" stroke="#FFFFFF" stroke-width="0.9" stroke-linecap="round" stroke-linejoin="round" d="M 22.300 4.242 L 22.300 41.738 L 34.800 41.738 L 34.800 4.242 L 22.300 4.242 " transform="matrix(1, 0, 0, 1, 11.5, 63.25)"/>
        </g>
        <g id="Right-Door-Windows">
          <path id="Path" fill="#FDE982" stroke="#5E154D" stroke-width="0.9" stroke-linejoin="round" d="M 38.300 0 L 0.800 0 L 0.800 51.853 L 38.300 51.853 L 38.300 0 " transform="matrix(1, 0, 0, 1, 116.5, 63.25)"/>
          <path id="Path" fill="#8B49D4" stroke="#FFFFFF" stroke-width="0.9" stroke-linecap="round" stroke-linejoin="round" d="M 34.275 4.242 L 21.775 4.242 L 21.775 41.738 L 34.275 41.738 L 34.275 4.242 " transform="matrix(1, 0, 0, 1, 116.5, 63.25)"/>
          <path id="Path" fill="#B388ED" stroke="none" stroke-width="1" d="M 12.500 4.242 L 5 23.843 L 5 32.276 L 15.675 4.242 L 12.500 4.242 " transform="matrix(1, 0, 0, 1, 116.5, 63.25)"/>
          <path id="Path" fill="#8B49D4" stroke="none" stroke-width="1" d="M 15.600 4.242 L 5 32.276 L 5 41.738 L 17.500 41.738 L 17.500 4.242 L 15.600 4.242 " transform="matrix(1, 0, 0, 1, 116.5, 63.25)"/>
          <path id="Path" fill="#8B49D4" stroke="none" stroke-width="1" d="M 5 4.242 L 5 23.843 L 12.500 4.242 L 5 4.242 " transform="matrix(1, 0, 0, 1, 116.5, 63.25)"/>
          <path id="Path" fill="none" stroke="#FFFFFF" stroke-width="0.9" stroke-linecap="round" stroke-linejoin="round" d="M 17.500 4.242 L 5 4.242 L 5 41.738 L 17.500 41.738 L 17.500 4.242 " transform="matrix(1, 0, 0, 1, 116.5, 63.25)"/>
        </g>
        <g id="Left-Bar">
          <path id="Path" fill="#8B49D4" stroke="none" stroke-width="1" d="M 6.225 0 L 1.925 0 L 1.925 19.627 L 6.225 8.307 L 6.225 0 " transform="matrix(1, 0, 0, 1, 4, 63.25)"/>
          <path id="Path" fill="#8B49D4" stroke="none" stroke-width="1" d="M 1.925 25.374 L 1.925 30.118 C 1.869 31.290 2.300 32.433 3.115 33.275 C 3.930 34.117 5.056 34.582 6.225 34.560 L 6.225 14.030 L 1.925 25.374 Z " transform="matrix(1, 0, 0, 1, 4, 63.25)"/>
          <path id="Path" fill="#B388ED" stroke="none" stroke-width="1" d="M 6.225 8.282 L 1.925 19.602 L 1.925 25.374 L 6.225 14.030 L 6.225 8.282 " transform="matrix(1, 0, 0, 1, 4, 63.25)"/>
          <path id="Path" fill="none" stroke="#5E154D" stroke-width="0.9" d="M 6.225 0 L 1.925 0 L 1.925 30.118 C 1.869 31.290 2.300 32.433 3.115 33.275 C 3.930 34.117 5.056 34.582 6.225 34.560 L 6.225 0 Z " transform="matrix(1, 0, 0, 1, 4, 63.25)"/>
        </g>
        <g id="Text">
          <path id="Path" fill="#FFFFFF" stroke="#FFFFFF" stroke-width="0.5" d="M 9.850 2.736 C 5.825 2.359 2.950 3.614 2.100 5.798 C 0.850 9.060 3.625 10.667 5.525 11.420 C 6.475 11.796 6.400 12.900 5.525 13.076 C 4.253 13.196 2.972 13.196 1.700 13.076 L 1.700 16.113 C 3.729 16.348 5.783 16.237 7.775 15.787 C 9.329 15.347 10.293 13.791 10 12.198 C 9.606 10.332 8.269 8.809 6.475 8.182 C 5.050 7.504 5.425 6.450 6.700 6.149 C 7.760 5.927 8.842 5.826 9.925 5.848 L 9.850 2.736 Z " transform="matrix(1, 0, 0, 1, 41.5, 40.65)"/>
          <path id="Path" fill="#FFFFFF" stroke="#FFFFFF" stroke-width="0.5" d="M 131.475 4.618 C 128.425 4.317 126.250 5.296 125.600 6.952 C 124.650 9.462 126.750 10.642 128.100 11.194 C 128.825 11.495 128.775 12.323 128.100 12.449 C 127.136 12.543 126.164 12.543 125.200 12.449 L 125.200 14.758 C 126.736 14.937 128.292 14.852 129.800 14.507 C 130.982 14.187 131.715 13.001 131.475 11.796 C 131.198 10.374 130.189 9.208 128.825 8.734 C 127.750 8.232 128.025 7.429 128.975 7.203 C 129.798 7.041 130.636 6.965 131.475 6.977 L 131.475 4.618 Z " transform="matrix(1, 0, 0, 1, 41.5, 40.65)"/>
          <path id="Path" fill="#FFFFFF" stroke="#FFFFFF" stroke-width="0.5" d="M 20.575 4.442 L 20.575 6.952 C 19.017 6.928 17.511 7.513 16.375 8.584 C 15.250 9.864 15.700 11.645 17.075 11.846 C 18.208 12.018 19.367 11.843 20.400 11.344 L 20.400 13.854 C 18.894 14.746 17.108 15.033 15.400 14.657 C 14.399 14.442 13.527 13.831 12.981 12.961 C 12.435 12.092 12.262 11.039 12.500 10.039 C 12.811 8.012 14.103 6.273 15.950 5.396 C 17.382 4.679 18.977 4.350 20.575 4.442 Z " transform="matrix(1, 0, 0, 1, 41.5, 40.65)"/>
          <path id="Path" fill="#FFFFFF" stroke="#FFFFFF" stroke-width="0.5" d="M 60.300 4.442 L 60.300 6.952 C 58.743 6.930 57.237 7.515 56.100 8.584 C 54.975 9.864 55.425 11.645 56.800 11.846 C 57.933 12.018 59.092 11.843 60.125 11.344 L 60.125 13.854 C 58.619 14.746 56.833 15.033 55.125 14.657 C 54.138 14.425 53.284 13.807 52.754 12.939 C 52.223 12.072 52.060 11.028 52.300 10.039 C 52.611 8.012 53.903 6.273 55.750 5.396 C 57.160 4.691 58.727 4.363 60.300 4.442 Z " transform="matrix(1, 0, 0, 1, 41.5, 40.65)"/>
          <path id="Path" fill="#FFFFFF" stroke="#FFFFFF" stroke-width="0.5" d="M 24.600 4.417 L 23.200 15.059 L 25.900 15.059 C 25.995 13.545 26.377 12.063 27.025 10.692 C 28.257 9.570 29.754 8.783 31.375 8.408 L 31.375 5.898 C 29.742 6.259 28.190 6.923 26.800 7.856 L 27.150 4.467 L 24.600 4.417 Z " transform="matrix(1, 0, 0, 1, 41.5, 40.65)"/>
          <path id="Path" fill="#FFFFFF" stroke="#FFFFFF" stroke-width="0.5" d="M 116.350 4.417 L 115 15.059 L 117.700 15.059 C 117.795 13.545 118.177 12.063 118.825 10.692 C 120.071 9.576 121.575 8.791 123.200 8.408 L 123.200 5.898 C 121.558 6.256 119.998 6.920 118.600 7.856 L 118.950 4.467 L 116.350 4.417 Z " transform="matrix(1, 0, 0, 1, 41.5, 40.65)"/>
          <path id="Shape" fill="#FFFFFF" stroke="#FFFFFF" stroke-width="0.5" d="M 40.875 8.960 C 40.708 7.452 40.658 5.933 40.725 4.417 C 38.405 4.057 36.063 4.920 34.525 6.701 C 32.425 9.060 32.700 14.456 35.775 14.908 C 37.231 15.277 38.758 14.658 39.550 13.377 C 39.863 13.946 40.241 14.476 40.675 14.958 L 42.650 13.955 C 41.759 12.413 41.158 10.720 40.875 8.960 Z M 36.800 11.671 C 35.800 11.495 35.650 10.089 36.125 9.161 C 36.569 8.283 37.446 7.709 38.425 7.655 C 38.431 8.670 38.557 9.681 38.800 10.667 C 38.800 10.667 37.850 11.821 36.800 11.671 Z " transform="matrix(1, 0, 0, 1, 41.5, 40.65)"/>
          <path id="Rectangle" fill="#FFFFFF" stroke="#FFFFFF" stroke-width="0.5" d="M 43.375 4.417 L 51.300 4.417 L 51.300 6.927 L 43.375 6.927 L 43.375 4.417 Z " transform="matrix(1, 0, 0, 1, 41.5, 40.65)"/>
          <path id="Rectangle" fill="#FFFFFF" stroke="#FFFFFF" stroke-width="0.5" d="M 83.150 1.280 L 93.175 1.280 L 93.175 3.790 L 83.150 3.790 L 83.150 1.280 Z " transform="matrix(1, 0, 0, 1, 41.5, 40.65)"/>
          <path id="Path" fill="#FFFFFF" stroke="#FFFFFF" stroke-width="0.5" d="M 46.375 1.280 C 45.601 4.889 45.141 8.559 45 12.248 C 44.999 12.940 45.283 13.603 45.784 14.078 C 46.286 14.553 46.961 14.799 47.650 14.758 C 48.715 14.790 49.774 14.585 50.750 14.155 L 50.750 11.796 C 50.750 11.796 48.825 12.700 47.875 12.122 C 46.925 11.545 48.875 1.205 48.875 1.205 L 46.375 1.280 Z " transform="matrix(1, 0, 0, 1, 41.5, 40.65)"/>
          <path id="Path" fill="#FFFFFF" stroke="#FFFFFF" stroke-width="0.5" d="M 63.225 1.280 L 65.325 1.280 L 64.275 14.858 L 62.175 14.858 L 63.225 1.280 " transform="matrix(1, 0, 0, 1, 41.5, 40.65)"/>
          <path id="Path" fill="#FFFFFF" stroke="#FFFFFF" stroke-width="0.5" d="M 86.925 3.765 L 89.275 3.765 L 88.250 14.958 L 85.875 14.958 L 86.925 3.765 " transform="matrix(1, 0, 0, 1, 41.5, 40.65)"/>
          <path id="Path" fill="#FFFFFF" stroke="#FFFFFF" stroke-width="0.5" d="M 65 5.020 C 65.566 4.615 66.258 4.428 66.950 4.493 C 68.550 4.493 69.850 5.622 70.050 8.006 C 70.263 9.990 70.968 11.888 72.100 13.528 L 69.850 14.808 C 69.194 13.909 68.687 12.909 68.350 11.846 C 67.600 9.537 68.075 8.282 66.950 7.630 C 65.825 6.977 64.800 8.006 64.800 8.006 L 65 5.020 Z " transform="matrix(1, 0, 0, 1, 41.5, 40.65)"/>
          <path id="Shape" fill="#FFFFFF" stroke="#FFFFFF" stroke-width="0.5" d="M 98.300 4.543 C 95.676 4.787 93.625 6.921 93.475 9.562 C 93.050 12.900 94.650 15.034 97 15.034 C 99.713 14.919 101.886 12.737 102 10.014 C 102.337 8.787 102.121 7.473 101.409 6.420 C 100.697 5.367 99.560 4.681 98.300 4.543 Z M 99.825 9.738 C 99.825 11.124 98.706 12.248 97.325 12.248 C 96.175 12.248 95.375 11.194 95.600 9.562 C 95.598 8.224 96.643 7.119 97.975 7.053 C 98.599 7.112 99.166 7.445 99.523 7.963 C 99.879 8.481 99.990 9.131 99.825 9.738 Z " transform="matrix(1, 0, 0, 1, 41.5, 40.65)"/>
          <path id="Path" fill="#FFFFFF" stroke="#FFFFFF" stroke-width="0.5" d="M 105 5.020 L 107.100 5.020 C 107.100 5.020 106.050 10.391 107.100 11.796 C 108.150 13.202 109.725 12.097 110.650 11.244 L 110.650 13.754 C 109.937 14.594 108.873 15.050 107.775 14.984 C 105.725 14.984 104.575 13.076 104.575 10.315 C 104.590 8.542 104.733 6.772 105 5.020 Z " transform="matrix(1, 0, 0, 1, 41.5, 40.65)"/>
          <path id="Path" fill="#FFFFFF" stroke="#FFFFFF" stroke-width="0.5" d="M 110.850 5.020 C 110.497 7.028 110.263 9.057 110.150 11.093 C 110.086 12.449 110.316 13.802 110.825 15.059 L 112.750 15.059 C 112.392 13.672 112.191 12.249 112.150 10.817 C 112.207 8.872 112.407 6.935 112.750 5.020 L 110.850 5.020 Z " transform="matrix(1, 0, 0, 1, 41.5, 40.65)"/>
        </g>
        <g id="Left-Window">
          <path id="Path" fill="#B388ED" stroke="none" stroke-width="1" d="M 14.100 2.510 L 4.500 27.608 L 8.150 27.608 L 17.725 2.510 L 14.100 2.510 " transform="matrix(1, 0, 0, 1, 54, 60.7)"/>
          <path id="Path" fill="#8B49D4" stroke="none" stroke-width="1" d="M 2 2.510 L 2 27.608 L 4.500 27.608 L 14.100 2.510 L 2 2.510 " transform="matrix(1, 0, 0, 1, 54, 60.7)"/>
          <path id="Path" fill="#B388ED" stroke="none" stroke-width="1" d="M 20.700 2.510 L 11.125 27.608 L 12.625 27.608 L 22.200 2.510 L 20.700 2.510 " transform="matrix(1, 0, 0, 1, 54, 60.7)"/>
          <path id="Path" fill="#8B49D4" stroke="none" stroke-width="1" d="M 17.725 2.510 L 8.150 27.608 L 11.125 27.608 L 20.700 2.510 L 17.725 2.510 " transform="matrix(1, 0, 0, 1, 54, 60.7)"/>
          <path id="Path" fill="#8B49D4" stroke="none" stroke-width="1" d="M 57.950 2.510 L 22.200 2.510 L 12.625 27.608 L 57.950 27.608 L 57.950 2.510 " transform="matrix(1, 0, 0, 1, 54, 60.7)"/>
          <path id="Path" fill="none" stroke="#5E154D" stroke-width="0.9" stroke-linecap="round" stroke-linejoin="round" d="M 57.950 2.510 L 2 2.510 L 2 27.608 L 57.950 27.608 L 57.950 2.510 " transform="matrix(1, 0, 0, 1, 54, 60.7)"/>
          <path id="Rectangle" fill="#5E154D" stroke="#5E154D" stroke-width="0.725" stroke-linecap="round" stroke-linejoin="round" d="M 28.425 2.485 L 31.900 2.485 L 31.900 27.683 L 28.425 27.683 L 28.425 2.485 Z " transform="matrix(1, 0, 0, 1, 54, 60.7)"/>
        </g>
        <g id="Right-Window">
          <path id="Path" fill="#B388ED" stroke="none" stroke-width="1" d="M 23.975 2.510 L 14.400 27.608 L 18.925 27.608 L 28.500 2.510 L 23.975 2.510 " transform="matrix(1, 0, 0, 1, 159, 60.7)"/>
          <path id="Path" fill="#8B49D4" stroke="none" stroke-width="1" d="M 28.500 2.510 L 18.925 27.608 L 22.025 27.608 L 31.600 2.510 L 28.500 2.510 " transform="matrix(1, 0, 0, 1, 159, 60.7)"/>
          <path id="Path" fill="#B388ED" stroke="none" stroke-width="1" d="M 31.600 2.510 L 22.025 27.608 L 24.075 27.608 L 33.650 2.510 L 31.600 2.510 " transform="matrix(1, 0, 0, 1, 159, 60.7)"/>
          <path id="Path" fill="#8B49D4" stroke="none" stroke-width="1" d="M 1 2.510 L 1 27.608 L 14.400 27.608 L 23.975 2.510 L 1 2.510 " transform="matrix(1, 0, 0, 1, 159, 60.7)"/>
          <path id="Path" fill="#8B49D4" stroke="none" stroke-width="1" d="M 47.500 2.510 L 33.625 2.510 L 24.075 27.608 L 47.500 27.608 L 47.500 2.510 " transform="matrix(1, 0, 0, 1, 159, 60.7)"/>
          <path id="Path" fill="none" stroke="#5E154D" stroke-width="0.9" stroke-linecap="round" stroke-linejoin="round" d="M 47.250 2.510 L 0.725 2.510 L 0.725 27.608 L 47.250 27.608 L 47.250 2.510 " transform="matrix(1, 0, 0, 1, 159, 60.7)"/>
          <path id="Rectangle" fill="#5E154D" stroke="#5E154D" stroke-width="0.725" stroke-linecap="round" stroke-linejoin="round" d="M 9.100 2.485 L 12.575 2.485 L 12.575 27.683 L 9.100 27.683 L 9.100 2.485 Z " transform="matrix(1, 0, 0, 1, 159, 60.7)"/>
          <path id="Rectangle" fill="#5E154D" stroke="#5E154D" stroke-width="0.725" stroke-linecap="round" stroke-linejoin="round" d="M 35.375 2.485 L 38.850 2.485 L 38.850 27.683 L 35.375 27.683 L 35.375 2.485 Z " transform="matrix(1, 0, 0, 1, 159, 60.7)"/>
        </g>
        <g id="Pattern">
          <path id="Path" fill="none" stroke="#D81D7B" stroke-width="1.2" d="M 1.375 0.753 L 2.775 3.790 " transform="matrix(1, 0, 0, 1, 9, 38.15)"/>
          <path id="Path" fill="none" stroke="#D81D7B" stroke-width="1.2" d="M 13.850 11.420 L 12.425 8.182 " transform="matrix(1, 0, 0, 1, 9, 38.15)"/>
          <path id="Path" fill="none" stroke="#D81D7B" stroke-width="1.2" d="M 22.775 3.890 L 20.250 3.012 " transform="matrix(1, 0, 0, 1, 9, 38.15)"/>
          <path id="Path" fill="none" stroke="#D81D7B" stroke-width="1.2" d="M 43.550 21.409 L 47.175 21.609 " transform="matrix(1, 0, 0, 1, 9, 38.15)"/>
          <path id="Path" fill="none" stroke="#D81D7B" stroke-width="1.2" d="M 33.275 2.435 L 30.600 4.518 " transform="matrix(1, 0, 0, 1, 9, 38.15)"/>
          <path id="Path" fill="none" stroke="#D81D7B" stroke-width="1.2" d="M 55.900 4.166 L 54.150 1.907 " transform="matrix(1, 0, 0, 1, 9, 38.15)"/>
          <path id="Path" fill="none" stroke="#D81D7B" stroke-width="1.2" d="M 70.400 1.405 L 67.675 2.987 " transform="matrix(1, 0, 0, 1, 9, 38.15)"/>
          <path id="Path" fill="none" stroke="#D81D7B" stroke-width="1.2" d="M 90.325 1.832 L 86.975 1.983 " transform="matrix(1, 0, 0, 1, 9, 38.15)"/>
          <path id="Path" fill="none" stroke="#D81D7B" stroke-width="1.2" d="M 112.325 18.071 L 110.425 15.586 " transform="matrix(1, 0, 0, 1, 9, 38.15)"/>
          <path id="Path" fill="none" stroke="#D81D7B" stroke-width="1.2" d="M 85.700 21.835 L 82.200 21.258 " transform="matrix(1, 0, 0, 1, 9, 38.15)"/>
          <path id="Path" fill="none" stroke="#D81D7B" stroke-width="1.2" d="M 110.450 6.124 L 107.500 7.178 " transform="matrix(1, 0, 0, 1, 9, 38.15)"/>
          <path id="Path" fill="none" stroke="#D81D7B" stroke-width="1.2" d="M 135.675 19.878 L 132.475 21.007 " transform="matrix(1, 0, 0, 1, 9, 38.15)"/>
          <path id="Path" fill="none" stroke="#D81D7B" stroke-width="1.2" d="M 172.025 17.895 L 169.225 20.078 " transform="matrix(1, 0, 0, 1, 9, 38.15)"/>
          <path id="Path" fill="none" stroke="#D81D7B" stroke-width="1.2" d="M 133.175 3.614 L 130.475 1.230 " transform="matrix(1, 0, 0, 1, 9, 38.15)"/>
          <path id="Path" fill="none" stroke="#D81D7B" stroke-width="1.2" d="M 149.650 2.334 L 145.275 2.535 " transform="matrix(1, 0, 0, 1, 9, 38.15)"/>
          <path id="Path" fill="none" stroke="#D81D7B" stroke-width="1.2" d="M 167.850 2.435 L 170.700 4.417 " transform="matrix(1, 0, 0, 1, 9, 38.15)"/>
          <path id="Path" fill="none" stroke="#D81D7B" stroke-width="1.2" d="M 186.425 5.823 L 188.225 3.790 " transform="matrix(1, 0, 0, 1, 9, 38.15)"/>
          <path id="Path" fill="none" stroke="#D81D7B" stroke-width="1.2" d="M 197.525 8.182 L 200.375 7.655 " transform="matrix(1, 0, 0, 1, 9, 38.15)"/>
          <path id="Path" fill="none" stroke="#D81D7B" stroke-width="1.2" d="M 198.200 17.995 L 199.725 20.656 " transform="matrix(1, 0, 0, 1, 9, 38.15)"/>
          <path id="Path" fill="none" stroke="#D81D7B" stroke-width="1.2" d="M 187.200 19.652 L 187.750 16.339 " transform="matrix(1, 0, 0, 1, 9, 38.15)"/>
          <path id="Path" fill="none" stroke="#D81D7B" stroke-width="1.2" d="M 175.575 10.993 L 178.500 10.993 " transform="matrix(1, 0, 0, 1, 9, 38.15)"/>
          <path id="Path" fill="none" stroke="#D81D7B" stroke-width="1.2" d="M 24.625 15.310 L 24.875 12.173 " transform="matrix(1, 0, 0, 1, 9, 38.15)"/>
          <path id="Path" fill="none" stroke="#D81D7B" stroke-width="1.2" d="M 61.400 21.635 L 63.575 18.748 " transform="matrix(1, 0, 0, 1, 9, 38.15)"/>
          <path id="Path" fill="none" stroke="#D81D7B" stroke-width="1.2" d="M 15.200 20.455 L 12.150 18.497 " transform="matrix(1, 0, 0, 1, 9, 38.15)"/>
          <path id="Path" fill="none" stroke="#D81D7B" stroke-width="1.2" d="M 0.725 15.360 L 4.050 14.331 " transform="matrix(1, 0, 0, 1, 9, 38.15)"/>
        </g>
        <g id="Highlight">
          <path id="Path" fill="#C1176C" stroke="none" stroke-width="1" d="M 12.200 2.510 C 10.499 2.364 8.996 3.616 8.825 5.321 C 8.350 7.354 3.825 32.929 2.800 40.207 C 2.675 40.935 2.575 41.487 2.525 41.813 C 2.013 45.135 1.746 48.491 1.725 51.853 L 1.725 106.566 L 4.575 106.566 L 4.575 48.540 C 4.575 45.804 10.375 12.825 12.200 2.510 Z " transform="matrix(1, 0, 0, 1, -1, -2)"/>
          <path id="Path" fill="none" stroke="#FFFFFF" stroke-width="1.5" stroke-linecap="round" stroke-linejoin="round" d="M 207.500 5.773 L 211.200 5.773 C 214.275 5.773 215.400 6.751 215.400 9.838 L 215.400 14.231 " transform="matrix(1, 0, 0, 1, -1, -2)"/>
          <path id="Path" fill="none" stroke="#FFFFFF" stroke-width="1.5" stroke-linecap="round" stroke-linejoin="round" d="M 202.225 5.773 L 204.725 5.773 " transform="matrix(1, 0, 0, 1, -1, -2)"/>
          <path id="Path" fill="none" stroke="#F48CC5" stroke-width="1.5" stroke-linecap="round" stroke-linejoin="round" d="M 81 5.773 L 30.700 5.773 " transform="matrix(1, 0, 0, 1, -1, -2)"/>
          <path id="Path" fill="none" stroke="#F48CC5" stroke-width="1.5" stroke-linecap="round" stroke-linejoin="round" d="M 88.600 5.773 L 83.875 5.773 " transform="matrix(1, 0, 0, 1, -1, -2)"/>
        </g>
        <path id="Path" fill="none" stroke="#5E154D" stroke-width="1.2" stroke-linecap="round" stroke-linejoin="round" d="M 213.950 2.962 L 12.500 2.962 C 10.125 2.962 9.250 3.815 8.775 5.773 C 8.300 7.730 3 38.977 2.500 42.265 C 1.989 45.587 1.721 48.943 1.700 52.304 L 1.700 112.791 C 1.714 115.183 3.642 117.119 6.025 117.133 L 57 117.133 C 57 109.634 63.055 103.555 70.525 103.555 C 73.864 103.548 77.088 104.782 79.575 107.018 C 80.647 108.007 81.558 109.159 82.275 110.431 C 83.460 112.482 84.082 114.812 84.075 117.183 L 160.975 117.183 C 160.971 114.816 161.583 112.488 162.750 110.431 C 163.480 109.176 164.399 108.042 165.475 107.068 C 170.620 102.445 178.405 102.445 183.550 107.068 C 184.611 108.049 185.521 109.182 186.250 110.431 C 187.424 112.486 188.045 114.813 188.050 117.183 L 213.950 117.183 C 216.333 117.169 218.261 115.233 218.275 112.841 L 218.275 7.429 C 218.302 6.258 217.859 5.125 217.046 4.285 C 216.232 3.445 215.117 2.968 213.950 2.962 Z " transform="matrix(1, 0, 0, 1, -1, -2)"/>
      </g>
    </g>
  </g>
</svg>