<svg width="113px" height="107px" viewBox="0 0 113 107" version="1.1" xml:space="preserve" xmlns="http://www.w3.org/2000/svg" xmlns:xlink="http://www.w3.org/1999/xlink">
  <!-- Generator: Sketch 50.2 (55047) - http://www.bohemiancoding.com/sketch -->
  <defs/>
  <g>
    <title>Slice 1</title>
    <desc>Created with Sketch.</desc>
    <g id="Page-1" stroke="none" stroke-width="1" fill="none" fill-rule="evenodd">
      <g id="hen-c-[animals,chicken,farm,owen-davey]" transform="translate(0.000000, 1.000000)">
        <g id="Group" transform="translate(52.226667, 72.714789)">
          <path d="M1.02496,0.25385915 L30.1277333,31.2898873" id="Stroke-5" stroke="#FFDB5D" stroke-width="1.575"/>
          <path d="M43.3110667,31.2898873 C40.05968,31.2898873 40.05968,28.1070141 36.8082933,28.1070141 C33.5569067,28.1070141 33.5569067,31.2898873 30.3070267,31.2898873 C27.0526267,31.2898873 27.0526267,28.1070141 23.80124,28.1070141 C20.54684,28.1070141 20.54684,31.2898873 17.2939467,31.2898873" id="Stroke-7" stroke="#FFDB5D" stroke-width="1.575"/>
          <path d="M15.85056,2.11053521 L15.85056,14.0674085 C15.85056,15.7251549 13.8677867,16.5540282 12.7061467,15.3830563 L0.34696,2.90625352 L15.85056,2.11053521 Z" id="Fill-9" fill="#FFF4E3" fill-rule="nonzero"/>
        </g>
        <g id="Group-2" transform="translate(33.146667, 74.728873)">
          <path d="M13.1275867,9.04225352 L13.1275867,28.6246479" id="Stroke-1" stroke="#FFDB5D" stroke-width="1.575"/>
          <path d="M26.3124267,29.2667606 C23.0595333,29.2667606 23.0595333,26.0838873 19.8081467,26.0838873 C16.55676,26.0838873 16.55676,29.2667606 13.30688,29.2667606 C10.0539867,29.2667606 10.0539867,26.0838873 6.80109333,26.0838873 C3.5482,26.0838873 3.5482,29.2667606 0.295306667,29.2667606" id="Stroke-3" stroke="#FFDB5D" stroke-width="1.575"/>
          <path d="M11.3557467,0.0874084507 L11.3557467,12.0442817 C11.3557467,13.7020282 13.3400267,14.5309014 14.50016,13.3599296 L26.8608533,0.883126761 L11.3557467,0.0874084507 Z" id="Fill-11" fill="#FFF4E3" fill-rule="nonzero"/>
        </g>
        <g id="Group-4" transform="translate(0.000000, 3.390845)" fill-rule="nonzero">
          <path d="M104.460213,27.5147465 C104.460213,54.6671268 82.6542267,76.6774789 55.7557067,76.6774789 C28.8571867,76.6774789 7.0512,54.6671268 7.0512,27.5147465 L104.460213,27.5147465 Z" id="Fill-13" fill="#FFF4E3"/>
          <path d="M19.9934667,40.5792958 L38.8735067,39.0812958 C39.11608,37.4416338 39.24264,35.7658028 39.24264,34.0583239 C39.24264,15.4026479 24.2618533,0.27947887 5.78108,0.27947887 C3.90829333,0.27947887 2.07166667,0.44374648 0.281746667,0.74214085 L11.1252267,11.6862817 L0.174773333,11.6862817 L8.80345333,20.3969859 L0,20.3969859 L19.9934667,40.5792958 Z" id="Fill-15" fill="#FFF4E3"/>
          <path d="M106.167267,19.0029718 L103.605933,36.7107183 L74.9611867,27.7573803 C74.9611867,27.7573803 84.1593867,6.00473239 102.29212,6.00473239 L106.167267,19.0029718 Z" id="Fill-17" fill="#FFF4E3"/>
          <path d="M86.9391867,27.5147465 C86.9391867,44.8999859 72.9784133,58.9938451 55.7557067,58.9938451 C43.3031067,58.9938451 32.5545467,51.6244085 27.5569333,40.9726338 L46.3827333,40.9726338 L25.7534533,27.5147465 L86.9391867,27.5147465 Z" id="Fill-19" fill="#F3E4CE"/>
        </g>
        <g id="Group-3" transform="translate(91.906667, 0.376761)">
          <path d="M19.8428,16.2556338 C19.8428,21.2801127 15.8079467,25.3521408 10.8314267,25.3521408 C5.8534,25.3521408 1.81854667,21.2801127 1.81854667,16.2556338 C1.81854667,11.2311549 5.8534,7.15912676 10.8314267,7.15912676 C15.8079467,7.15912676 19.8428,11.2311549 19.8428,16.2556338" id="Fill-21" fill="#E8441D" fill-rule="nonzero"/>
          <path d="M17.3794,25.7002676 C17.3794,29.389507 14.4157867,32.382493 10.7591067,32.382493 C7.10393333,32.382493 4.14182667,29.389507 4.14182667,25.7002676 C4.14182667,22.0110282 7.10393333,19.0180423 10.7591067,19.0180423 C14.4157867,19.0180423 17.3794,22.0110282 17.3794,25.7002676" id="Fill-23" fill="#CE2235" fill-rule="nonzero"/>
          <path d="M9.07766667,16.2556338 C9.07766667,18.5388028 7.24556,20.3879437 4.98405333,20.3879437 C2.72254667,20.3879437 0.888933333,18.5388028 0.888933333,16.2556338 C0.888933333,13.9724648 2.72254667,12.1218169 4.98405333,12.1218169 C7.24556,12.1218169 9.07766667,13.9724648 9.07766667,16.2556338" id="Fill-25" fill="#FFF4E3" fill-rule="nonzero"/>
          <path d="M7.65537333,16.2556338 C7.65537333,17.7460986 6.45908,18.9517324 4.98405333,18.9517324 C3.50752,18.9517324 2.31122667,17.7460986 2.31122667,16.2556338 C2.31122667,14.765169 3.50752,13.5580282 4.98405333,13.5580282 C6.45908,13.5580282 7.65537333,14.765169 7.65537333,16.2556338" id="Fill-27" fill="#17242D" fill-rule="nonzero"/>
          <path d="M20.7181733,16.2556338 C20.7181733,18.5388028 18.88456,20.3879437 16.6230533,20.3879437 C14.3615467,20.3879437 12.5279333,18.5388028 12.5279333,16.2556338 C12.5279333,13.9724648 14.3615467,12.1218169 16.6230533,12.1218169 C18.88456,12.1218169 20.7181733,13.9724648 20.7181733,16.2556338" id="Fill-29" fill="#FFF4E3" fill-rule="nonzero"/>
          <path d="M19.2943733,16.2556338 C19.2943733,17.7460986 18.09808,18.9517324 16.6230533,18.9517324 C15.14652,18.9517324 13.9502267,17.7460986 13.9502267,16.2556338 C13.9502267,14.765169 15.14652,13.5580282 16.6230533,13.5580282 C18.09808,13.5580282 19.2943733,14.765169 19.2943733,16.2556338" id="Fill-32" fill="#17242D" fill-rule="nonzero"/>
          <path d="M10.8193733,0.05492958 L10.8193733,8" id="Stroke-34" stroke="#CE2235" stroke-width="1.05" stroke-linecap="round"/>
          <path d="M14.01652,20.1799718 L12.4330133,16.4319577 C11.8273333,15.0017746 9.81894667,15.0047887 9.21628,16.4364789 L7.64482667,20.1799718 L14.01652,20.1799718 Z" id="Fill-36" fill="#FFDB5D" fill-rule="nonzero"/>
        </g>
      </g>
    </g>
  </g>
</svg>