<svg version="1.1" width="147" height="137" viewBox="-1 -1 147 137" xmlns="http://www.w3.org/2000/svg" xmlns:xlink="http://www.w3.org/1999/xlink">
  <!-- Exported by Scratch - http://scratch.mit.edu/ -->
  <g id="ID0.12500963546335697">
    <g id="Page-1">
      <g id="llama-c-[animals,mammal,robert-hunter]">
        <g id="Group-130">
          <g id="Group-2">
            <path id="Fill-84" fill="#D7C3BC" stroke="none" stroke-width="1" d="M 15.849 119.172 L 5.580 127.867 C 5.580 127.867 2.829 131.601 6.752 134.390 C 9.500 136.343 13.797 135.673 14.873 135.673 C 14.976 135.673 16.441 135.987 17.376 135.992 C 26.166 136.038 66.953 135.975 69.082 136.169 C 71.437 136.383 70.704 135.111 72.217 135.219 C 73.730 135.327 128.721 135.244 130.644 135.244 C 131.173 135.244 135.052 133.023 135.642 131.794 C 136.775 129.435 135.247 126.938 135.463 125.747 C 135.680 124.556 139.000 104.656 137.429 98.699 C 136.951 96.882 136.884 96.640 137.264 96.519 C 138.075 96.260 145.065 94.685 145.336 88.895 C 145.342 88.759 124.319 77.508 117.889 74.823 C 114.881 73.568 103.105 74.150 91.873 74.150 C 80.640 74.150 48.658 74.224 46.507 73.933 C 44.211 73.622 40.498 73.906 40.233 67.601 C 39.948 60.791 40.894 47.225 42.824 34.454 C 43.958 26.949 41.059 18.267 37.975 16.144 C 34.811 13.964 18.765 0.892 18.765 0.892 C 18.765 0.892 17.993 4.526 21.751 9.132 C 25.231 13.396 27.678 14.592 27.678 14.592 L 25.160 15.125 C 24.745 15.213 23.614 14.027 21.552 12.945 C 19.490 11.861 8.863 5.276 8.429 5.014 C 8.225 4.891 6.954 9.453 12.224 13.300 C 17.108 16.864 19.651 16.638 19.390 16.725 C 15.181 18.128 10.866 21.957 11.621 22.702 C 13.598 24.653 9.039 30.726 0.645 33.909 C -0.321 34.276 0.934 39.281 3.043 40.532 C 4.780 41.561 7.479 38.785 20.575 36.685 C 20.843 36.642 20.587 38.754 20.514 39.333 C 20.017 43.270 20.096 41.956 19.428 46.958 C 18.264 55.683 11.725 84.871 11.286 88.360 C 10.179 97.158 6.598 109.479 15.849 119.172 " transform="matrix(-1, 0, 0, 1, 146, 0)"/>
            <path id="Fill-86" fill="#BB9696" stroke="none" stroke-width="1" d="M 15.849 119.172 L 19.275 122.679 C 19.275 122.679 14.255 127.192 12.827 129.466 C 11.399 131.739 13.673 134.836 15.281 135.402 L 9.703 135.402 C 9.703 135.402 6.372 135.684 4.708 131.464 C 3.857 129.140 5.920 127.517 7.059 126.541 C 8.199 125.566 15.669 119.325 15.669 119.325 " transform="matrix(-1, 0, 0, 1, 146, 0)"/>
            <path id="Fill-88" fill="#BB968C" stroke="none" stroke-width="1" d="M 21.278 15.886 C 21.278 15.886 12.051 14.438 8.431 5.200 C 8.277 5.305 8.431 5.200 8.431 5.200 C 8.431 5.200 6.531 13.096 19.500 16.562 L 21.278 15.886 " transform="matrix(-1, 0, 0, 1, 146, 0)"/>
            <path id="Fill-90" fill="#BB968C" stroke="none" stroke-width="1" d="M 31.531 16.240 L 33.242 16.168 C 33.242 16.168 20.950 7.019 18.761 0.561 C 18.662 0.481 18.345 10.756 31.531 16.240 " transform="matrix(-1, 0, 0, 1, 146, 0)"/>
            <path id="Fill-92" fill="#F0E1DB" stroke="none" stroke-width="1" d="M 3.235 40.520 C 3.428 40.542 4.027 40.744 5.198 40.402 C 10.331 38.900 24.439 35.306 27.068 35.373 C 27.432 35.382 27.525 36.188 27.731 35.986 C 28.316 35.414 28.079 33.934 28.764 34.276 C 28.988 34.387 28.866 36.147 29.293 35.724 C 33.637 31.412 34.159 25.644 33.011 21.800 C 31.206 15.753 21.888 18.722 17.322 20.213 C 15.544 20.793 13.982 21.218 14.310 20.931 C 14.703 20.587 14.558 19.302 13.147 20.424 C 10.748 22.334 11.673 22.500 12.211 23.886 C 12.892 25.644 6.841 31.649 0.906 33.696 C -1.353 34.168 2.328 40.416 3.235 40.520 " transform="matrix(-1, 0, 0, 1, 146, 0)"/>
            <path id="Stroke-94" fill="none" stroke="#26214B" stroke-width="0.5" d="M 25.187 15.019 L 8.252 4.785 C 8.252 4.785 6.596 13.482 19.701 16.611 " transform="matrix(-1, 0, 0, 1, 146, 0)"/>
            <path id="Fill-96" fill="#26214B" stroke="none" stroke-width="1" d="M 21.778 15.922 C 21.778 15.922 21.489 15.937 20.983 15.893 C 20.733 15.861 20.423 15.835 20.077 15.767 C 19.727 15.711 19.336 15.625 18.916 15.503 C 18.495 15.389 18.049 15.228 17.580 15.054 C 17.119 14.857 16.622 14.668 16.150 14.389 C 15.659 14.144 15.190 13.828 14.710 13.512 C 14.225 13.201 13.789 12.809 13.322 12.457 C 12.903 12.051 12.477 11.650 12.083 11.234 C 11.715 10.794 11.338 10.373 11.001 9.944 C 10.684 9.500 10.392 9.061 10.113 8.648 C 9.849 8.225 9.639 7.801 9.425 7.423 C 9.210 7.045 9.024 6.694 8.901 6.362 C 8.766 6.037 8.646 5.753 8.549 5.520 C 8.361 5.052 8.252 4.785 8.252 4.785 C 8.252 4.785 8.389 5.039 8.630 5.483 C 8.747 5.705 8.889 5.976 9.053 6.286 C 9.204 6.601 9.420 6.932 9.648 7.297 C 9.880 7.658 10.109 8.063 10.391 8.465 C 10.687 8.857 11.002 9.268 11.313 9.702 C 11.650 10.116 12.027 10.520 12.394 10.944 C 12.785 11.344 13.209 11.725 13.622 12.114 C 14.069 12.463 14.487 12.854 14.954 13.165 C 15.415 13.481 15.867 13.797 16.341 14.043 C 16.800 14.317 17.268 14.533 17.708 14.749 C 18.157 14.944 18.586 15.125 18.993 15.259 C 19.399 15.395 19.773 15.516 20.112 15.602 C 20.449 15.700 20.750 15.752 20.995 15.805 C 21.490 15.897 21.778 15.922 21.778 15.922 " transform="matrix(-1, 0, 0, 1, 146, 0)"/>
            <path id="Fill-98" fill="#26214B" stroke="none" stroke-width="1" d="M 18.305 24.852 C 18.305 24.852 24.613 23.837 25.711 23.511 C 25.999 23.585 25.386 27.573 22.333 28.020 C 19.281 28.467 18.508 26.233 18.305 24.852 " transform="matrix(-1, 0, 0, 1, 146, 0)"/>
            <path id="Fill-100" fill="#26214B" stroke="none" stroke-width="1" d="M 0.275 34.416 L 6.478 33.146 C 6.478 33.146 5.890 37.366 1.414 38.301 C 1.029 38.117 -0.009 35.066 0.275 34.416 " transform="matrix(-1, 0, 0, 1, 146, 0)"/>
            <path id="Fill-102" fill="#26214B" stroke="none" stroke-width="1" d="M 17.857 25.795 C 17.857 25.795 17.896 26.177 18.083 26.701 C 18.165 26.966 18.311 27.256 18.485 27.547 C 18.574 27.693 18.673 27.837 18.788 27.974 C 18.890 28.120 19.028 28.238 19.153 28.368 C 19.282 28.493 19.431 28.598 19.567 28.713 C 19.719 28.808 19.869 28.901 20.013 28.991 C 20.169 29.062 20.316 29.139 20.458 29.211 C 20.603 29.275 20.748 29.319 20.879 29.369 C 21.138 29.475 21.370 29.520 21.527 29.569 C 21.688 29.617 21.778 29.645 21.778 29.645 C 21.778 29.645 21.684 29.640 21.518 29.632 C 21.354 29.608 21.107 29.626 20.829 29.545 C 20.545 29.491 20.221 29.393 19.883 29.246 C 19.721 29.162 19.555 29.069 19.389 28.971 C 19.237 28.851 19.074 28.739 18.930 28.605 C 18.795 28.461 18.649 28.327 18.540 28.165 C 18.416 28.016 18.324 27.849 18.236 27.687 C 18.066 27.361 17.965 27.033 17.907 26.749 C 17.843 26.467 17.843 26.223 17.839 26.057 C 17.839 25.889 17.857 25.795 17.857 25.795 " transform="matrix(-1, 0, 0, 1, 146, 0)"/>
            <path id="Stroke-104" fill="none" stroke="#26214B" stroke-width="0.5" d="M 12.271 21.114 C 12.271 21.114 13.461 19.937 14.275 20.059 C 15.089 20.180 13.773 21.359 13.773 21.359 C 13.773 21.359 27.502 16.403 31.002 19.043 C 34.502 21.684 35.194 29.198 28.845 36.470 C 28.845 36.470 29.415 34.966 28.764 34.276 C 28.113 33.585 28.682 35.332 27.502 36.185 C 26.322 37.038 27.991 35.576 27.299 35.332 C 27.299 35.332 11.508 38.094 4.833 40.532 C 4.182 40.613 2.717 41.182 1.578 38.663 C 0.438 36.145 -0.539 34.114 1.089 33.626 C 2.717 33.139 15.333 26.492 11.508 22.463 C 11.508 22.463 12.494 17.362 27.959 14.437 " transform="matrix(-1, 0, 0, 1, 146, 0)"/>
            <path id="Stroke-106" fill="none" stroke="#26214B" stroke-width="0.5" d="M 31.531 16.240 C 31.531 16.240 19.282 11.732 18.508 0.561 L 38.003 16.038 C 38.003 16.038 45.327 21.602 42.194 39.516 C 39.061 57.430 40.241 67.747 40.403 68.804 C 40.892 71.932 41.014 74.044 51.351 74.044 L 113.619 74.044 C 113.619 74.044 124.932 73.394 134.415 88.870 C 135.715 91.216 136.576 93.828 137.114 96.554 C 139.391 108.083 135.901 121.655 135.473 125.794 C 135.392 127.338 136.775 128.435 135.799 131.481 C 135.054 132.894 131.200 135.137 131.200 135.137 L 58.880 135.137 C 58.880 135.137 20.016 135.944 10.572 110.110 C 7.886 102.763 12.282 83.387 12.282 83.387 C 12.282 83.387 18.549 56.821 20.868 36.549 " transform="matrix(-1, 0, 0, 1, 146, 0)"/>
            <path id="Fill-108" fill="#26214B" stroke="none" stroke-width="1" d="M 35.316 17.703 C 35.316 17.703 34.054 16.899 32.250 15.562 C 31.353 14.889 30.310 14.097 29.227 13.203 C 28.154 12.299 27.016 11.325 25.922 10.301 C 25.379 9.785 24.840 9.264 24.331 8.729 C 23.809 8.208 23.317 7.674 22.851 7.146 C 22.368 6.635 21.954 6.094 21.554 5.587 C 21.142 5.091 20.811 4.576 20.489 4.115 C 20.151 3.664 19.914 3.201 19.693 2.801 C 19.583 2.601 19.480 2.414 19.384 2.241 C 19.294 2.066 19.236 1.891 19.171 1.741 C 18.929 1.133 18.791 0.786 18.791 0.786 C 18.791 0.786 18.958 1.119 19.251 1.703 C 19.326 1.847 19.393 2.015 19.495 2.182 C 19.602 2.347 19.717 2.525 19.839 2.715 C 20.086 3.095 20.350 3.532 20.699 3.968 C 21.037 4.411 21.383 4.904 21.814 5.379 C 22.229 5.864 22.663 6.376 23.145 6.881 C 23.613 7.398 24.108 7.921 24.634 8.431 C 25.146 8.955 25.689 9.464 26.234 9.970 C 27.307 11.002 28.426 11.988 29.482 12.902 C 30.548 13.805 31.535 14.660 32.407 15.361 C 34.138 16.781 35.316 17.703 35.316 17.703 " transform="matrix(-1, 0, 0, 1, 146, 0)"/>
            <path id="Stroke-110" fill="none" stroke="#26214B" stroke-width="0.5" d="M 120.171 75.529 L 145.363 88.789 C 145.363 88.789 145.901 94.531 137.085 96.413 " transform="matrix(-1, 0, 0, 1, 146, 0)"/>
            <path id="Fill-112" fill="#26214B" stroke="none" stroke-width="1" d="M 143.317 93.335 C 143.317 93.335 143.237 93.195 143.090 92.978 C 142.952 92.754 142.720 92.443 142.447 92.068 C 142.308 91.882 142.144 91.690 141.978 91.480 C 141.811 91.273 141.636 91.051 141.434 90.839 C 141.239 90.623 141.035 90.399 140.830 90.172 C 140.628 89.939 140.391 89.735 140.171 89.514 C 139.947 89.296 139.722 89.078 139.502 88.864 C 139.267 88.664 139.036 88.467 138.813 88.277 C 138.588 88.088 138.371 87.904 138.166 87.730 C 137.966 87.549 137.747 87.416 137.560 87.273 C 136.796 86.720 136.287 86.352 136.287 86.352 C 136.287 86.352 136.820 86.687 137.619 87.190 C 137.815 87.321 138.044 87.441 138.257 87.609 C 138.474 87.770 138.704 87.941 138.941 88.117 C 139.179 88.294 139.424 88.477 139.674 88.663 C 139.911 88.864 140.152 89.070 140.392 89.274 C 140.628 89.484 140.883 89.676 141.102 89.898 C 141.326 90.115 141.546 90.329 141.760 90.535 C 141.978 90.738 142.171 90.952 142.355 91.153 C 142.539 91.355 142.719 91.541 142.875 91.723 C 143.180 92.091 143.439 92.394 143.605 92.628 C 143.781 92.857 143.865 92.985 143.865 92.985 L 143.317 93.335 Z " transform="matrix(-1, 0, 0, 1, 146, 0)"/>
            <path id="Fill-114" fill="#26214B" stroke="none" stroke-width="1" d="M 139.669 95.570 C 139.669 95.570 139.663 95.435 139.631 95.239 C 139.613 95.040 139.533 94.731 139.449 94.372 C 139.333 94.017 139.225 93.590 139.029 93.160 C 138.937 92.943 138.851 92.713 138.747 92.488 C 138.631 92.267 138.514 92.043 138.396 91.819 C 138.273 91.597 138.175 91.360 138.029 91.156 C 137.894 90.945 137.760 90.739 137.631 90.538 C 137.500 90.337 137.375 90.143 137.256 89.958 C 137.121 89.786 136.993 89.623 136.875 89.472 C 136.400 88.867 136.083 88.464 136.083 88.464 C 136.083 88.464 136.431 88.841 136.953 89.408 C 137.084 89.549 137.226 89.703 137.376 89.866 C 137.510 90.042 137.651 90.227 137.799 90.419 C 137.946 90.611 138.097 90.810 138.252 91.012 C 138.416 91.208 138.534 91.439 138.678 91.655 C 138.816 91.875 138.954 92.094 139.089 92.311 C 139.215 92.533 139.322 92.762 139.436 92.979 C 139.673 93.407 139.822 93.843 139.973 94.208 C 140.041 94.393 140.088 94.571 140.138 94.725 C 140.188 94.877 140.222 95.018 140.246 95.139 C 140.303 95.382 140.316 95.503 140.316 95.503 L 139.669 95.570 Z " transform="matrix(-1, 0, 0, 1, 146, 0)"/>
            <path id="Fill-116" fill="#26214B" stroke="none" stroke-width="1" d="M 105.764 101.788 C 105.764 101.788 105.049 102.060 103.827 102.600 C 102.603 103.133 100.885 103.962 98.880 105.056 C 96.874 106.147 94.615 107.568 92.358 109.296 C 91.231 110.161 90.122 111.127 89.074 112.180 C 88.031 113.238 87.035 114.379 86.207 115.634 C 85.363 116.875 84.660 118.210 84.168 119.596 C 83.672 120.981 83.387 122.419 83.358 123.820 C 83.352 123.991 83.331 124.180 83.338 124.333 L 83.359 124.862 C 83.370 125.213 83.381 125.560 83.393 125.903 C 83.411 126.592 83.542 127.230 83.606 127.873 C 83.863 129.130 84.181 130.324 84.744 131.298 C 84.976 131.814 85.332 132.219 85.619 132.644 C 85.972 133.010 86.284 133.388 86.660 133.653 C 87.369 134.230 88.106 134.583 88.737 134.782 C 89.364 134.993 89.885 135.078 90.239 135.110 C 90.595 135.149 90.787 135.138 90.787 135.138 C 90.787 135.138 90.596 135.162 90.237 135.145 C 89.879 135.133 89.347 135.092 88.699 134.902 C 88.048 134.731 87.276 134.407 86.513 133.845 C 86.110 133.588 85.769 133.215 85.381 132.848 C 85.063 132.424 84.683 132.002 84.424 131.477 C 83.808 130.476 83.443 129.254 83.139 127.960 C 83.051 127.301 82.898 126.615 82.859 125.928 C 82.842 125.584 82.823 125.237 82.804 124.886 L 82.779 124.359 C 82.769 124.156 82.789 123.990 82.793 123.803 C 82.810 122.345 83.093 120.842 83.594 119.398 C 84.092 117.950 84.807 116.558 85.669 115.269 C 86.537 113.983 87.570 112.823 88.645 111.752 C 89.726 110.687 90.863 109.716 92.016 108.849 C 94.322 107.114 96.666 105.784 98.708 104.734 C 100.755 103.685 102.533 102.969 103.780 102.484 C 105.031 102.006 105.764 101.788 105.764 101.788 " transform="matrix(-1, 0, 0, 1, 146, 0)"/>
            <path id="Fill-118" fill="#26214B" stroke="none" stroke-width="1" d="M 77.687 135.368 C 77.687 135.368 76.811 135.247 75.613 134.791 C 75.309 134.686 74.994 134.536 74.656 134.394 C 74.330 134.225 73.973 134.074 73.631 133.865 C 73.279 133.674 72.927 133.458 72.582 133.219 C 72.225 132.999 71.898 132.724 71.558 132.469 C 71.221 132.210 70.917 131.912 70.600 131.640 C 70.299 131.349 70.021 131.047 69.743 130.764 C 69.478 130.467 69.242 130.164 69.008 129.886 C 68.767 129.613 68.593 129.313 68.405 129.058 C 68.227 128.796 68.046 128.567 67.926 128.339 C 67.796 128.117 67.684 127.923 67.590 127.764 C 67.404 127.445 67.298 127.262 67.298 127.262 C 67.298 127.262 67.411 127.441 67.607 127.753 C 67.705 127.909 67.825 128.099 67.961 128.316 C 68.089 128.540 68.277 128.762 68.462 129.017 C 68.659 129.264 68.840 129.557 69.090 129.819 C 69.332 130.088 69.576 130.381 69.848 130.665 C 70.133 130.937 70.419 131.226 70.725 131.503 C 71.048 131.761 71.357 132.046 71.697 132.290 C 72.042 132.529 72.371 132.788 72.730 132.993 C 73.076 133.215 73.428 133.416 73.779 133.591 C 74.120 133.784 74.474 133.920 74.798 134.074 C 75.132 134.202 75.444 134.338 75.742 134.429 C 76.932 134.835 77.746 134.917 77.746 134.918 L 77.687 135.368 Z " transform="matrix(-1, 0, 0, 1, 146, 0)"/>
            <path id="Fill-120" fill="#26214B" stroke="none" stroke-width="1" d="M 61.747 135.370 C 61.747 135.370 60.530 135.277 58.759 134.917 C 57.871 134.742 56.845 134.494 55.759 134.181 C 55.216 134.026 54.663 133.838 54.100 133.654 C 53.547 133.440 52.972 133.255 52.422 133.012 C 51.869 132.772 51.309 132.551 50.784 132.274 C 50.252 132.015 49.730 131.755 49.248 131.462 C 48.757 131.186 48.287 130.910 47.866 130.609 C 47.440 130.317 47.024 130.060 46.681 129.767 C 46.328 129.486 46.005 129.230 45.719 129.002 C 45.453 128.751 45.221 128.532 45.030 128.352 C 44.650 127.991 44.432 127.785 44.432 127.785 C 44.432 127.785 44.655 127.986 45.044 128.338 C 45.238 128.513 45.475 128.725 45.746 128.970 C 46.037 129.190 46.366 129.438 46.724 129.709 C 47.071 129.994 47.493 130.240 47.923 130.520 C 48.349 130.810 48.822 131.073 49.318 131.336 C 49.804 131.617 50.329 131.863 50.864 132.107 C 51.391 132.370 51.953 132.576 52.507 132.801 C 53.058 133.029 53.633 133.200 54.186 133.398 C 54.749 133.567 55.301 133.740 55.843 133.881 C 56.926 134.165 57.948 134.388 58.830 134.540 C 60.595 134.856 61.780 134.917 61.780 134.917 L 61.747 135.370 Z " transform="matrix(-1, 0, 0, 1, 146, 0)"/>
            <path id="Fill-122" fill="#26214B" stroke="none" stroke-width="1" d="M 33.022 130.895 C 33.022 130.895 31.955 130.306 30.495 129.241 C 29.761 128.714 28.932 128.061 28.075 127.326 C 27.646 126.958 27.222 126.557 26.786 126.157 C 26.372 125.733 25.928 125.326 25.528 124.875 C 25.126 124.428 24.709 123.994 24.348 123.524 C 23.972 123.067 23.605 122.614 23.290 122.146 C 22.958 121.691 22.646 121.245 22.389 120.797 C 22.124 120.354 21.852 119.948 21.663 119.538 C 21.459 119.137 21.273 118.769 21.107 118.444 C 20.971 118.104 20.852 117.809 20.753 117.566 C 20.557 117.080 20.446 116.802 20.446 116.802 C 20.446 116.802 20.564 117.077 20.771 117.558 C 20.875 117.800 21.001 118.091 21.146 118.425 C 21.318 118.747 21.513 119.109 21.725 119.504 C 21.923 119.908 22.204 120.306 22.479 120.740 C 22.744 121.181 23.065 121.617 23.406 122.061 C 23.730 122.518 24.105 122.960 24.490 123.405 C 24.859 123.863 25.285 124.283 25.694 124.718 C 26.100 125.155 26.551 125.549 26.971 125.959 C 27.413 126.347 27.842 126.735 28.276 127.088 C 29.142 127.796 29.978 128.423 30.717 128.928 C 32.192 129.949 33.242 130.497 33.242 130.497 L 33.022 130.895 Z " transform="matrix(-1, 0, 0, 1, 146, 0)"/>
            <g id="Group">
              <path id="Stroke-124" fill="none" stroke="#26214B" stroke-width="0.5" d="M 7.466 0.845 L 2.194 5.582 C 2.194 5.582 -0.695 8.344 0.770 10.700 C 2.235 13.056 2.275 14.072 9.560 14.072 C 17.130 14.072 57.584 13.950 57.705 14.072 C 57.828 14.193 59.537 13.555 59.578 13.143 " transform="matrix(-1, 0, 0, 1, 134, 122)"/>
              <path id="Fill-126" fill="#26214B" stroke="none" stroke-width="1" d="M 10.700 10.903 C 10.700 10.903 10.702 10.845 10.727 10.737 C 10.752 10.632 10.797 10.470 10.919 10.294 C 11.038 10.116 11.233 9.919 11.516 9.781 C 11.658 9.717 11.817 9.661 11.989 9.629 C 12.168 9.605 12.332 9.624 12.502 9.620 L 17.538 9.620 L 22.573 9.620 C 22.917 9.599 23.231 9.640 23.511 9.677 C 23.790 9.710 24.033 9.739 24.233 9.763 C 24.633 9.816 24.863 9.847 24.863 9.847 C 24.863 9.847 24.633 9.878 24.233 9.932 C 24.033 9.956 23.790 9.984 23.511 10.017 C 23.231 10.054 22.917 10.095 22.573 10.075 L 17.538 10.075 L 12.502 10.075 C 12.328 10.068 12.164 10.087 12.030 10.085 C 11.890 10.080 11.758 10.090 11.635 10.113 C 11.391 10.165 11.193 10.281 11.054 10.407 C 10.772 10.667 10.700 10.903 10.700 10.903 " transform="matrix(-1, 0, 0, 1, 134, 122)"/>
            </g>
            <path id="Stroke-128" fill="none" stroke="#26214B" stroke-width="0.5" d="M 15.759 119.090 L 5.607 127.785 C 5.607 127.785 3.450 129.979 5.485 132.903 C 7.537 135.853 10.287 135.584 12.159 135.584 L 16.070 135.584 " transform="matrix(-1, 0, 0, 1, 146, 0)"/>
          </g>
        </g>
      </g>
    </g>
  </g>
</svg>