<svg version="1.1" width="199" height="109" viewBox="4 -1 199 109" xmlns="http://www.w3.org/2000/svg" xmlns:xlink="http://www.w3.org/1999/xlink">
  <!-- Exported by Scratch - http://scratch.mit.edu/ -->
  <g id="Ear_Back" transform="matrix(1, 0, 0, 1, -1, 0)">
    <path id="Fill" fill="#8395D4" d="M 97.766 61.977 C 97.766 61.977 96.465 55.536 90.504 55.452 C 84.545 55.368 83.529 61.894 82.820 61.977 C 82.820 61.977 82.279 66.925 82.820 68.595 C 83.361 70.265 82.581 74.253 82.581 74.253 C 82.581 74.253 77.894 82.338 78.511 83.448 C 79.127 84.554 81.262 87.017 84.165 87.759 C 87.068 88.499 91.332 87.153 94.281 82.714 C 97.228 78.276 98.832 74.858 98.954 71.272 C 99.077 67.684 97.766 61.977 97.766 61.977 Z " transform="matrix(1.3400955200195313, 0, 0, 1.3400955200195313, 6.35, -72.65)"/>
    <path id="Outline_2_" fill="#272525" d="M 98.410 62.016 C 97.838 62.742 97.041 60.827 96.831 60.209 C 96.166 58.248 94.223 56.335 91.693 55.971 C 89.226 55.615 87.047 56.574 85.664 58.228 C 81.712 62.954 84.004 68.323 83.160 73.606 C 82.668 76.686 80.551 78.880 79.674 81.698 C 79.356 82.718 79.770 84.343 80.628 85.134 C 82.363 86.738 85.941 87.468 88.385 86.839 C 91.276 86.098 93.315 83.202 94.604 81.095 C 95.403 83.391 93.175 85.651 91.182 87.005 C 86.653 90.087 76.811 88.868 77.508 82.884 C 77.842 80.011 81.145 77.225 81.901 74.065 C 82.862 70.046 81.041 66.024 82.112 62.060 C 82.895 59.159 84.930 55.154 89.045 54.832 C 94.614 54.397 97.229 57.820 98.410 62.016 Z " transform="matrix(1.3400955200195313, 0, 0, 1.3400955200195313, 6.35, -72.65)"/>
  </g>
  <g id="Back_Leg_2_1_" transform="matrix(1, 0, 0, 1, -1, 0)">
    <path id="Fill_5_" fill="#8395D4" d="M 20.092 106.339 C 18.823 107.165 18.708 108.550 18.753 109.719 C 18.841 112.073 23.226 118.115 25.628 117.201 C 25.753 117.152 25.912 117.132 26.086 117.127 C 26.087 117.126 29.751 115.938 32.938 108.625 C 32.938 108.625 33.337 108.229 33.747 108.266 C 34.118 106.071 32.600 104.699 30.875 103.563 C 29.408 102.598 27.537 102.946 26.319 103.352 C 28.933 104.590 21.781 105.236 20.092 106.339 Z " transform="matrix(1.3400955200195313, 0, 0, 1.3400955200195313, 6.35, -72.65)"/>
    <path id="Toenail1_3_" fill="#B7CBE7" d="M 24.834 114.663 C 23.983 113.818 22.657 114.904 21.797 115.225 C 22.466 115.950 23.174 116.547 23.853 116.913 C 24.510 116.239 25.582 115.405 24.834 114.663 Z " transform="matrix(1.3400955200195313, 0, 0, 1.3400955200195313, 6.35, -72.65)"/>
    <path id="Outline_7_" fill="#272525" d="M 33.747 108.266 C 33.337 108.229 32.938 108.625 32.938 108.625 C 30.846 113.426 28.554 115.578 27.222 116.497 C 26.525 116.977 26.086 117.127 26.086 117.127 C 25.913 117.132 25.754 117.152 25.628 117.201 C 25.457 117.265 25.274 117.287 25.085 117.286 C 25.319 117.005 25.552 116.682 25.780 116.355 C 27.004 114.605 24.617 112.125 22.146 113.722 C 21.625 114.060 21.309 114.267 21.114 114.419 C 19.952 112.959 19.026 111.261 18.806 110.117 C 18.779 109.975 18.758 109.840 18.753 109.717 C 18.708 108.548 18.823 107.163 20.092 106.337 C 21.781 105.233 28.933 104.588 26.320 103.349 C 26.055 103.224 25.694 103.092 25.214 102.953 C 24.220 102.666 24.501 103.248 22.751 103.748 C 20.643 104.351 19.701 103.960 18.192 105.522 C 17.067 106.689 17.002 108.359 17.485 110.117 C 18.083 112.291 19.521 114.599 20.857 116.264 C 22.186 117.922 25.062 119.942 27.222 118.752 C 27.271 118.725 27.322 118.705 27.370 118.675 L 27.371 118.676 C 30.679 117.418 34.438 109.059 34.438 109.059 C 34.268 108.480 34.005 108.287 33.747 108.266 Z M 23.853 116.913 C 23.174 116.547 22.466 115.949 21.797 115.225 C 22.657 114.905 23.983 113.819 24.834 114.663 C 25.582 115.405 24.510 116.239 23.853 116.913 Z " transform="matrix(1.3400955200195313, 0, 0, 1.3400955200195313, 6.35, -72.65)"/>
  </g>
  <g id="Front_Leg_2" transform="matrix(1, 0, 0, 1, -1, 0)">
    <path id="Fill_3_" fill="#8395D4" d="M 73.272 113.559 C 74.073 117.171 77.439 124.784 79.658 125.612 C 83.261 126.965 87.693 125.044 89.978 122.436 C 90.478 121.866 90.958 121.069 90.728 120.292 C 89.999 117.859 86.590 119.225 84.667 117.757 C 84.329 117.497 83.170 113.624 79.229 112.405 C 78.990 112.331 79.135 112.217 79.456 112.105 C 78.268 111.623 77 111.318 75.748 111.333 C 74.881 111.343 72.767 110.937 72.601 112.837 C 72.855 112.859 73.164 113.068 73.272 113.559 Z " transform="matrix(1.3400955200195313, 0, 0, 1.3400955200195313, 6.35, -72.65)"/>
    <path id="Toenail2_2_" fill="#B7CBE7" d="M 89.979 122.436 C 90.393 121.963 90.788 121.336 90.783 120.696 C 89.899 120.297 88.780 119.811 87.901 120.737 C 87.136 121.545 88.606 122.366 89.412 123.022 C 89.611 122.832 89.803 122.636 89.979 122.436 Z " transform="matrix(1.3400955200195313, 0, 0, 1.3400955200195313, 6.35, -72.65)"/>
    <path id="Toenail1_2_" fill="#B7CBE7" d="M 86.350 125.084 C 85.580 124.219 84.643 122.430 82.811 123.068 C 81.612 123.486 82.415 124.915 82.913 126.019 C 84.090 125.920 85.264 125.585 86.350 125.084 Z " transform="matrix(1.3400955200195313, 0, 0, 1.3400955200195313, 6.35, -72.65)"/>
    <path id="Outline_6_" fill="#272525" d="M 79.938 128.085 C 83.634 128.857 87.686 127.452 90.175 124.908 C 91.606 123.450 93.358 120.351 92.274 118.335 C 91.989 117.804 91.432 117.496 90.765 117.295 C 89.195 116.821 86.994 116.949 86.161 116.234 C 85.932 116.033 84.542 112.707 81.667 111.791 C 81.148 111.723 80.025 111.908 79.458 112.105 C 79.139 112.215 78.992 112.331 79.232 112.405 C 82.458 113.403 83.818 116.178 84.391 117.295 C 84.518 117.542 84.607 117.710 84.668 117.757 C 86.304 119.004 89.004 118.213 90.228 119.440 C 87.855 118.641 85.771 120.999 86.976 122.393 C 87.388 122.872 87.966 123.453 88.529 123.778 C 88.163 124.059 87.771 124.321 87.359 124.563 C 87.164 124.270 86.845 123.868 86.390 123.264 C 84.424 120.657 80.359 122.110 80.820 124.343 C 80.924 124.852 81.083 125.457 81.302 125.997 C 80.742 125.932 80.191 125.810 79.657 125.611 C 78.998 125.365 78.236 124.510 77.471 123.349 C 75.663 120.602 73.833 116.096 73.270 113.556 C 73.162 113.068 72.853 112.859 72.601 112.835 C 72.403 112.817 72.239 112.913 72.241 113.099 C 72.299 117.544 74.899 123.398 77.470 126.312 C 78.329 127.283 79.183 127.928 79.938 128.085 Z M 87.900 120.736 C 88.779 119.810 89.898 120.296 90.782 120.695 C 90.787 121.336 90.392 121.963 89.978 122.435 C 89.802 122.635 89.611 122.831 89.411 123.021 C 88.605 122.365 87.136 121.544 87.900 120.736 Z M 82.811 123.068 C 84.643 122.429 85.581 124.218 86.350 125.084 C 85.264 125.585 84.090 125.920 82.912 126.020 C 82.415 124.915 81.611 123.486 82.811 123.068 Z " transform="matrix(1.3400955200195313, 0, 0, 1.3400955200195313, 6.35, -72.65)"/>
  </g>
  <g id="Body" transform="matrix(1, 0, 0, 1, -1, 0)">
    <path id="ID0.3126746523194015" fill="#8395D4" d="M 136.816 81.874 C 136.816 81.874 136.814 76.498 134.583 75.883 C 133.389 75.555 131.480 77.043 130.986 77.970 C 130.254 79.352 130.657 81.688 131.668 82.872 C 133.407 84.912 136.547 84.941 136.232 88.316 C 136.080 89.978 135.627 91.844 134.744 93.445 C 135.812 93.258 137.361 93.427 137.357 94.080 C 137.355 94.873 135.654 94.314 134.568 93.744 C 134.468 93.910 134.370 94.076 134.259 94.234 C 135.144 94.742 135.972 95.618 135.771 95.972 C 135.579 96.318 134.556 95.425 133.967 94.631 C 133.177 95.640 132.154 96.452 130.838 96.894 C 129.673 97.285 128.308 97.506 126.879 97.562 C 127.328 98.912 127.372 100.722 126.458 100.868 C 125.373 101.044 125.612 99.103 126.106 97.568 C 125.946 97.568 125.791 97.577 125.629 97.572 C 125.546 99.009 124.809 100.744 124.156 100.726 C 123.527 100.708 124.211 98.736 124.984 97.537 C 121.955 97.336 118.913 96.371 117.088 94.536 C 116.604 94.048 116.175 93.433 115.784 92.740 C 114.232 93.734 112.673 94.959 112.119 93.918 C 111.626 92.992 114.116 92.716 115.658 92.522 C 115.500 92.229 115.347 91.922 115.202 91.602 C 113.275 91.998 111.098 92.780 110.973 91.547 C 110.860 90.436 113.703 91.195 115.157 91.505 C 112.737 86.065 112.045 76.975 109.754 72.297 C 107.251 67.187 102.003 62.599 96.015 61.874 C 91.459 61.324 88.216 60.541 81.161 63.389 C 80.536 63.762 77.265 65.733 76.250 66.749 C 76.250 66.749 68.192 60.164 53.750 58.355 C 40.500 56.695 33.936 61.566 25.505 67.647 C 22.773 69.629 19.641 74.497 19.638 74.501 C 17.971 78.618 15.228 86.283 19.802 94.857 C 21.740 98.491 22.255 99.368 26.285 102.769 C 42.125 116.138 72.206 113.683 72.206 113.683 C 73.788 113.581 78.049 112.984 80.951 111.826 C 84.060 110.582 87.372 108.660 89.935 106.605 C 94.330 110.244 98.463 109.127 100.331 107.376 C 97.531 105.203 93.643 98.015 98.435 95.938 C 104.331 105.509 124.370 110.589 133.898 103.108 C 139.253 98.903 139.558 92.713 139.585 86.770 C 139.606 86.762 139.622 86.759 139.643 86.752 C 139.619 86.053 139.780 85.655 139.912 85.454 C 139.999 85.321 140.073 85.269 140.073 85.269 C 141.455 84.615 143.889 83.623 144.494 82.185 C 146.033 78.527 139.423 76.546 136.816 81.874 Z " transform="matrix(1.3400955200195313, 0, 0, 1.3400955200195313, 6.35, -72.65)"/>
    <path id="ID0.8108903267420828" fill="#272525" d="M 138.082 77.969 C 138.361 73.630 135.137 72.975 132.249 73.842 C 130.447 74.381 128.678 76.141 128.168 77.744 C 126.341 83.480 135.656 84.488 133.900 90.182 C 133.152 92.602 129.726 95.621 127.003 95.809 C 124.065 96.007 120.527 95.382 118.598 93.084 C 117.225 91.447 114.932 85.743 114.518 83.645 C 112.992 75.917 112.548 69.861 105.919 64.129 C 99.777 58.818 89.251 57.782 81.773 61.089 C 81.474 61.220 81.126 61.358 80.784 61.513 L 80.784 61.512 C 80.721 61.540 80.642 61.578 80.556 61.624 C 80.332 61.735 80.120 61.856 79.937 61.996 C 78.523 62.900 76.249 64.626 76.249 64.626 C 69.999 59.505 60.470 57.515 60.470 57.515 C 58.293 56.832 50.346 55.895 46.525 56.161 C 37.869 56.765 29.647 61.629 23.115 67.038 C 23.115 67.038 19.496 70.089 17.229 74.658 C 17.180 74.679 16.688 75.828 16.667 75.882 C 13.250 84.196 15.705 97.070 23.854 103.040 L 23.842 103.046 C 23.842 103.046 39.341 118.358 72.546 115.866 C 78.907 115.327 85.328 113.595 90.183 109.556 C 95.383 112.338 102.152 111.064 103.445 107.467 C 100.795 106.019 97.042 101.413 98.509 98.597 C 100.675 101.066 103.443 103.176 106.359 104.880 C 113.785 109.217 126.929 110.847 134.491 105.969 C 139.529 102.719 142.573 95.505 141.583 89.948 C 141.523 89.162 141.605 88.284 141.506 87.622 L 141.692 86.242 C 142.573 86.046 143.479 85.649 144.159 85.272 C 150.342 81.865 144.375 71.592 138.082 77.969 Z M 144.493 82.191 C 143.889 83.628 141.454 84.620 140.072 85.275 C 140.072 85.275 139.998 85.326 139.911 85.459 C 139.779 85.660 139.618 86.057 139.642 86.757 C 139.621 86.764 139.605 86.768 139.584 86.774 C 139.560 92.718 139.254 98.909 133.897 103.112 C 124.369 110.594 104.330 105.514 98.434 95.942 C 93.641 98.018 97.530 105.208 100.330 107.380 C 98.463 109.131 94.328 110.246 89.934 106.609 C 87.371 108.663 84.059 110.585 80.950 111.829 C 78.048 112.988 73.787 113.586 72.205 113.687 C 72.205 113.687 42.124 116.142 26.284 102.773 C 22.253 99.371 21.738 98.494 19.801 94.861 C 15.227 86.286 17.970 78.621 19.637 74.504 C 19.640 74.500 22.772 69.633 25.504 67.650 C 33.935 61.568 40.499 56.698 53.749 58.358 C 68.191 60.167 76.249 66.752 76.249 66.752 C 77.265 65.736 80.535 63.765 81.160 63.392 C 88.217 60.544 91.460 61.327 96.014 61.877 C 102.002 62.602 107.250 67.190 109.753 72.300 C 112.044 76.977 112.736 86.067 115.156 91.508 C 113.704 91.199 110.859 90.440 110.972 91.550 C 111.097 92.782 113.277 92 115.201 91.604 C 115.347 91.925 115.499 92.231 115.657 92.526 C 114.115 92.718 111.625 92.996 112.118 93.922 C 112.672 94.963 114.231 93.739 115.783 92.744 C 116.174 93.438 116.600 94.052 117.087 94.540 C 118.912 96.375 121.954 97.340 124.983 97.541 C 124.210 98.739 123.526 100.714 124.155 100.729 C 124.807 100.748 125.545 99.011 125.628 97.576 C 125.788 97.581 125.944 97.571 126.105 97.571 C 125.611 99.108 125.372 101.048 126.457 100.872 C 127.371 100.727 127.327 98.916 126.878 97.565 C 128.307 97.510 129.672 97.289 130.837 96.897 C 132.152 96.458 133.176 95.645 133.966 94.635 C 134.555 95.429 135.576 96.321 135.770 95.977 C 135.971 95.622 135.143 94.746 134.258 94.239 C 134.367 94.080 134.467 93.914 134.567 93.748 C 135.653 94.317 137.354 94.877 137.356 94.084 C 137.360 93.433 135.811 93.265 134.743 93.449 C 135.626 91.848 136.079 89.981 136.231 88.319 C 136.544 84.944 133.406 84.916 131.667 82.876 C 130.656 81.690 130.253 79.355 130.985 77.974 C 131.479 77.047 133.387 75.560 134.582 75.887 C 136.813 76.502 136.815 81.878 136.815 81.878 C 139.423 76.546 146.033 78.527 144.493 82.191 Z " transform="matrix(1.3400955200195313, 0, 0, 1.3400955200195313, 6.35, -72.65)"/>
  </g>
  <g id="Ear_Front" transform="matrix(1, 0, 0, 1, -1, 0)">
    <g id="Outside">
      <path id="Outside_Fill" fill="#8395D4" d="M 77.725 64.944 C 77.725 64.944 75.965 56.227 67.900 56.113 C 59.833 56 58.461 64.832 57.500 64.944 C 57.500 64.944 56.769 71.639 57.500 73.900 C 58.231 76.161 57.175 81.557 57.175 81.557 C 57.175 81.557 50.834 92.500 51.667 94 C 52.500 95.500 55.389 98.832 59.319 99.834 C 63.249 100.836 69.017 99.012 73.008 93.006 C 76.999 87 79.167 82.374 79.333 77.522 C 79.499 72.668 77.725 64.944 77.725 64.944 Z " transform="matrix(1.3400955200195313, 0, 0, 1.3400955200195313, 6.35, -72.65)"/>
      <path id="Outside_Outline" fill="#272525" d="M 78.598 64.998 C 77.824 65.981 76.744 63.389 76.460 62.553 C 75.559 59.899 72.928 57.311 69.509 56.817 C 66.169 56.335 63.221 57.633 61.349 59.872 C 56 66.268 59.100 73.533 57.959 80.684 C 57.294 84.852 54.429 87.821 53.240 91.635 C 52.809 93.016 53.372 95.212 54.531 96.282 C 56.880 98.452 61.724 99.441 65.030 98.592 C 68.941 97.587 71.701 93.670 73.445 90.817 C 74.527 93.924 71.513 96.983 68.816 98.817 C 62.684 102.987 49.367 101.338 50.310 93.242 C 50.763 89.350 55.231 85.581 56.253 81.305 C 57.553 75.867 55.090 70.423 56.539 65.057 C 57.599 61.132 60.353 55.712 65.921 55.277 C 73.462 54.687 77 59.318 78.598 64.998 Z " transform="matrix(1.3400955200195313, 0, 0, 1.3400955200195313, 6.35, -72.65)"/>
    </g>
    <g id="Inside">
      <path id="Inside_Fill" fill="#B7CBE7" d="M 75.822 75.792 C 74.910 74.253 73.666 73.746 72.947 72.124 C 72.053 70.110 72.527 67.704 72.527 65.509 C 72.527 62.546 70.073 61.055 66.637 61.383 C 62.696 61.759 60.397 65.411 60.748 69.112 C 61.116 73.041 63.272 74.875 63.693 78.805 C 64.131 82.964 59.977 84.733 59.977 88.893 C 59.977 90.840 62.098 91.872 64.184 91.971 C 65.639 92.036 66.392 91.266 67.549 90.464 C 70.301 88.548 69.845 85.863 70.493 82.670 C 70.844 80.967 71.615 80.018 73.017 78.872 C 74.245 77.872 75.700 77.298 75.822 75.792 Z " transform="matrix(1.3400955200195313, 0, 0, 1.3400955200195313, 6.35, -72.65)"/>
      <path id="Inside_Outline" fill="#272525" d="M 75.589 74.841 C 75.490 76.754 72.434 73.364 72.167 73.035 C 69.750 70.060 73.133 67.768 72.071 64.747 C 71.525 63.193 69.958 61.598 67.863 61.527 C 65.341 61.441 63.172 63.856 62.407 65.631 C 60.051 71.107 65.626 76.069 64.611 81.657 C 64.183 84.008 59.828 87.796 61.032 89.884 C 61.422 90.559 63.123 91.153 63.984 91.151 C 70.776 91.132 67.583 79.764 75.110 77.492 C 74.816 78.221 74.082 78.708 73.518 79.288 C 69.928 82.994 72.145 88.600 67.774 91.897 C 66.197 93.088 63.084 93.335 61.190 92.563 C 54.100 89.667 61.975 84.129 62.972 81.430 C 64.890 76.235 55.548 69.070 62.346 62.277 C 63.683 60.942 66.478 59.913 68.580 60.288 C 79.932 62.314 69.468 70.725 75.589 74.841 Z " transform="matrix(1.3400955200195313, 0, 0, 1.3400955200195313, 6.35, -72.65)"/>
    </g>
  </g>
  <g id="Back_Leg_1" transform="matrix(1, 0, 0, 1, -1, 0)">
    <path id="Fill_4_" fill="#8395D4" d="M 27.535 104.125 C 27.989 106.833 28.243 113.631 29.154 118.162 C 29.804 121.400 28.819 124.484 33.905 126.241 C 37.815 127.592 46.224 128.353 46.972 126.484 C 48.830 121.836 44.931 122.152 42.485 119.437 C 40.865 117.642 40.164 111.275 40.312 111.213 C 39.446 107.060 36.855 102.166 32.250 101.026 C 28.137 100.008 27.366 102.586 27.222 103.698 C 27.366 103.794 27.509 103.967 27.535 104.125 Z " transform="matrix(1.3400955200195313, 0, 0, 1.3400955200195313, 6.35, -72.65)"/>
    <path id="Knee_Swirl_1_" fill="#272525" d="M 37.618 117.436 C 36.221 118.124 35.152 117.045 35.836 115.249 C 37.361 114.363 36.380 116.301 36.913 116.602 C 37.289 116.815 37.646 116.507 37.804 116.186 C 38.599 114.569 36.528 113.891 35.577 114.415 C 33.261 115.698 35.333 119.512 37.990 118.684 C 38.670 118.471 38.708 117.401 39.401 117.503 C 40.811 120.117 32.081 120.055 33.610 115.943 C 35.900 109.783 41.038 115.746 37.618 117.436 Z " transform="matrix(1.3400955200195313, 0, 0, 1.3400955200195313, 6.35, -72.65)"/>
    <path id="Toenail2_1_" fill="#B7CBE7" d="M 38.184 124.085 C 36.985 123.927 36.711 125.600 36.412 126.867 C 37.452 127.075 38.581 127.250 39.706 127.373 C 39.691 126.171 39.910 124.312 38.184 124.085 Z " transform="matrix(1.3400955200195313, 0, 0, 1.3400955200195313, 6.35, -72.65)"/>
    <path id="Toenail1_1_" fill="#B7CBE7" d="M 44.068 124.230 C 42.853 124.156 42.914 126.256 42.738 127.564 C 43.883 127.574 44.896 127.494 45.653 127.300 C 45.389 126.105 45.236 124.301 44.068 124.230 Z " transform="matrix(1.3400955200195313, 0, 0, 1.3400955200195313, 6.35, -72.65)"/>
    <path id="Outline_4_" fill="#272525" d="M 44.856 119.340 C 42.538 118.203 40.968 110.481 40.959 110.440 C 40.710 109.311 40.269 109.281 39.991 109.395 C 39.844 109.457 39.742 109.557 39.742 109.557 C 39.570 112.725 40.631 117.455 42.486 119.438 C 43.813 120.857 45.257 121.523 46.239 122.295 C 47.335 123.157 47.856 124.153 46.973 126.484 C 46.937 126.581 46.865 126.663 46.789 126.744 C 46.765 126.478 46.737 126.183 46.706 125.816 C 46.415 122.454 42.647 122.320 41.962 124.722 C 41.721 125.574 41.473 126.704 41.525 127.525 C 41.304 127.513 41.079 127.497 40.854 127.480 C 40.875 127.119 40.880 126.628 40.898 125.923 C 40.987 122.554 36.847 122.042 35.800 124.366 C 35.508 125.012 35.192 125.835 35.047 126.557 C 34.641 126.453 34.251 126.348 33.905 126.240 C 32.903 125.923 32.143 125.401 31.546 124.755 C 29.965 123.041 29.572 120.419 29.154 118.161 C 28.686 115.638 28.144 107.963 27.711 104.852 L 27.714 104.852 C 27.602 103.498 27.876 101.248 26.969 102.155 C 26.969 102.155 26.508 103.497 26.691 104.747 C 26.667 107.331 26.750 114.858 26.778 115.421 C 26.961 119.032 27.462 124.705 31.122 126.829 C 31.246 126.901 31.391 126.974 31.546 127.046 C 34.603 128.473 43.370 129.862 47.566 128.358 C 48.562 128.001 49.302 127.482 49.645 126.760 C 50.004 126.005 51.143 122.425 44.856 119.340 Z M 39.706 127.373 C 38.581 127.250 37.452 127.075 36.412 126.867 C 36.711 125.599 36.985 123.927 38.184 124.085 C 39.910 124.312 39.691 126.171 39.706 127.373 Z M 42.738 127.564 C 42.914 126.256 42.853 124.156 44.068 124.230 C 45.236 124.300 45.389 126.105 45.653 127.300 C 44.896 127.494 43.883 127.574 42.738 127.564 Z " transform="matrix(1.3400955200195313, 0, 0, 1.3400955200195313, 6.35, -72.65)"/>
  </g>
  <g id="Front_Leg_1" transform="matrix(1, 0, 0, 1, -1, 0)">
    <path id="Fill_2_" fill="#8395D4" d="M 72.386 115.159 C 71.949 113.527 69.450 112.162 69.421 112.021 C 69.419 112.011 69.427 112.001 69.426 111.994 C 65.054 108.631 62.609 110.980 61.584 112.558 C 62.173 112.820 62.639 113.355 62.476 114.066 C 63.342 122.097 55.633 125.062 55.625 127.958 C 55.618 130.457 61.577 131.680 61.907 131.753 C 68.083 133.291 71.458 132.125 71.630 131.668 C 73.197 130.268 69.497 126.647 68.109 125.113 C 70.563 122.953 73.648 119.875 72.386 115.159 Z " transform="matrix(1.3400955200195313, 0, 0, 1.3400955200195313, 6.35, -72.65)"/>
    <path id="Toenail2" fill="#B7CBE7" d="M 62.474 129.041 C 61.251 129.105 61.164 130.575 60.925 131.523 C 61.862 131.771 62.859 131.972 63.859 132.118 C 63.670 130.930 63.748 128.973 62.474 129.041 Z " transform="matrix(1.3400955200195313, 0, 0, 1.3400955200195313, 6.35, -72.65)"/>
    <path id="Toenail1" fill="#B7CBE7" d="M 68.462 129.055 C 66.708 129.286 66.961 131.200 66.940 132.401 C 68.233 132.444 69.409 132.380 70.325 132.199 C 69.980 130.917 69.779 128.881 68.462 129.055 Z " transform="matrix(1.3400955200195313, 0, 0, 1.3400955200195313, 6.35, -72.65)"/>
    <path id="Outline_5_" fill="#272525" d="M 73.468 127.652 C 72.907 127.087 72.257 126.553 71.609 126.056 C 71.179 125.726 70.751 125.410 70.354 125.111 C 71.532 122.556 75.417 120.566 74.069 115.219 C 73.713 113.806 71.821 111.486 70.076 111.125 C 69.886 111.313 69.396 111.687 69.426 111.992 C 69.427 112.001 69.419 112.011 69.421 112.018 C 69.450 112.160 71.949 113.524 72.386 115.157 C 73.648 119.873 70.563 122.951 68.109 125.110 C 68.345 125.371 68.651 125.695 68.983 126.055 C 70.606 127.814 72.930 130.502 71.630 131.665 C 71.502 130.912 71.157 130.021 70.846 129.334 C 69.798 127.014 65.658 127.522 65.748 130.893 C 65.765 131.526 65.770 131.981 65.786 132.332 C 65.554 132.312 65.319 132.292 65.084 132.268 C 65.224 131.518 64.937 130.346 64.660 129.490 C 63.950 127.296 60.039 127.420 59.736 130.485 C 59.711 130.744 59.690 130.961 59.673 131.149 C 58.835 130.866 58.085 130.538 57.467 130.170 C 56.486 129.586 55.846 128.900 55.770 128.124 C 55.490 125.242 63.342 122.096 62.476 114.064 C 62.639 113.353 62.173 112.818 61.584 112.556 C 60.651 112.142 59.405 112.410 59.830 113.775 C 61.369 118.704 54.984 124.650 54.040 126.474 C 53.132 128.228 54.772 130.094 57.467 131.604 C 61.943 134.110 69.327 135.628 72.784 133.995 C 73.013 133.888 73.244 133.768 73.468 133.623 C 74.067 133.233 74.617 132.632 74.955 131.378 C 75.323 130.014 74.574 128.769 73.468 127.652 Z M 60.925 131.523 C 61.164 130.575 61.251 129.105 62.474 129.041 C 63.748 128.973 63.670 130.930 63.859 132.118 C 62.859 131.973 61.862 131.771 60.925 131.523 Z M 66.940 132.400 C 66.961 131.199 66.708 129.286 68.462 129.054 C 69.779 128.880 69.980 130.916 70.325 132.198 C 69.409 132.379 68.233 132.443 66.940 132.400 Z " transform="matrix(1.3400955200195313, 0, 0, 1.3400955200195313, 6.35, -72.65)"/>
    <path id="Knee_Swirl" fill="#272525" d="M 68.844 119.449 C 68.788 120.267 68.496 121.783 67.346 121.872 C 66.236 121.957 66.260 120.154 66.953 119.829 C 66.763 120.579 66.779 121.267 67.462 121.127 C 68.407 120.934 68.483 118.337 67.343 118.641 C 65.142 119.227 65.988 122.348 67.179 122.643 C 67.544 122.735 67.926 122.776 68.324 122.130 C 69.002 121.031 69.488 119.867 69.703 118.729 C 69.819 119.718 69.149 121.875 68.286 122.866 C 66.553 124.850 64.595 122.334 65.118 120.401 C 65.636 118.488 69.063 116.243 68.844 119.449 Z " transform="matrix(1.3400955200195313, 0, 0, 1.3400955200195313, 6.35, -72.65)"/>
  </g>
  <g id="Tail" transform="matrix(1, 0, 0, 1, 0, -9)">
    <path id="Fill_1_" fill="#8395D4" d="M 23.484 69.333 C 23.301 70 21.552 69.941 21.552 69.941 C 18.872 69.800 17.912 68.633 17.813 66.941 C 17.571 62.792 25.484 58.173 19.104 52.933 C 21.004 55.660 20.455 58.025 19.105 60.138 C 19.105 60.139 19.105 60.139 19.104 60.140 L 19.103 60.141 C 17.016 63.406 13.014 66.067 13.145 68.521 C 13.145 71.796 17.374 71.345 20.619 71.485 C 22.907 71.540 22 72.332 21.031 73.363 C 21.031 73.365 25.032 70.677 23.484 69.333 Z " transform="matrix(0.9143053889274597, 0.9797458052635193, 0.9797458052635193, -0.9143053889274597, -54.45, 84.85)"/>
    <path id="Outline_3_" fill="#272525" d="M 20.619 71.487 C 17.374 71.347 13.145 71.798 13.145 68.523 C 13.014 66.069 17.016 63.407 19.103 60.143 C 19.104 60.142 19.104 60.141 19.105 60.140 C 20.455 58.027 21.004 55.662 19.104 52.935 C 25.484 58.175 17.571 62.794 17.813 66.943 C 17.912 68.635 18.873 69.802 21.552 69.943 C 21.552 69.943 23.301 70.001 23.484 69.335 C 23.667 68.669 21.936 67.991 21.936 67.991 C 19.218 67.759 24.037 62.570 23.799 57.783 C 23.694 55.660 21.963 53.470 19.172 52.075 C 19.915 51.554 20.319 50.490 21.212 50.469 C 22.520 50.439 24.207 47.975 23.448 47.503 C 21.534 47.903 19.737 49.213 18.809 51.296 C 18.410 49.742 17 46.751 16.338 47.018 C 16.304 48.244 16.989 50.443 17.848 51.868 C 15.945 50.497 13.670 50.300 11.789 50.971 C 11.388 51.770 14.112 52.992 15.244 52.335 C 16.166 51.799 17.272 52.893 18.352 52.576 C 18.415 52.650 18.478 52.740 18.542 52.803 C 18.546 52.759 18.563 52.721 18.577 52.681 C 21.581 61.935 10.785 63.285 10.059 67.345 C 9.668 69.529 11.198 73.654 16.703 73.804 C 16.703 73.804 20.062 74.397 21.032 73.366 C 22.002 72.335 22.907 71.542 20.619 71.487 Z " transform="matrix(0.9143053889274597, 0.9797458052635193, 0.9797458052635193, -0.9143053889274597, -54.45, 84.85)"/>
  </g>
  <g id="L_Eye" transform="matrix(1, 0, 0, 1, -1, 0)">
    <g id="Eyeball">
      <path id="Outline" fill="#272525" d="M 90.318 75.451 C 89.086 77.394 89.179 81.400 90.318 83.368 C 92.660 87.422 97.797 85.538 98.888 82.128 C 100.965 75.639 93.611 70.250 90.318 75.451 Z M 92.868 83.176 C 91.017 81.952 90.650 75.907 93.128 75.263 C 93.915 75.059 95.441 75.067 96.491 76.353 C 98.100 78.327 97.934 86.527 92.868 83.176 Z " transform="matrix(1.3400955200195313, 0, 0, 1.3400955200195313, 6.35, -72.65)"/>
      <path id="White" fill="#FFFFFF" d="M 93.128 75.263 C 90.650 75.907 91.018 81.952 92.868 83.176 C 97.933 86.528 98.099 78.327 96.491 76.354 C 95.441 75.067 93.915 75.059 93.128 75.263 Z " transform="matrix(1.3400955200195313, 0, 0, 1.3400955200195313, 6.35, -72.65)"/>
      <path id="Pupil" fill="#272525" d="M 96.016 78.609 C 96.441 78.609 96.826 78.836 97.105 79.204 C 97.384 79.571 97.557 80.079 97.557 80.639 C 97.557 81.199 97.384 81.707 97.105 82.074 C 96.826 82.442 96.441 82.669 96.016 82.669 C 95.591 82.669 95.206 82.442 94.927 82.074 C 94.648 81.707 94.475 81.199 94.475 80.639 C 94.475 80.079 94.648 79.571 94.927 79.204 C 95.206 78.836 95.591 78.609 96.016 78.609 Z " transform="matrix(1.3400955200195313, 0, 0, 1.3400955200195313, 6.35, -72.65)"/>
    </g>
    <g id="Eyelid_2_">
      <path id="Lid" fill="#B7CBE7" d="M 98.039 74.871 C 96.287 73.270 95.096 72.483 92.509 73.040 C 90.738 73.417 89.915 74.448 89.074 75.922 C 88.331 77.229 88.663 78.010 88.868 79.268 C 90.918 77.826 97.178 74.982 97.978 74.876 C 97.994 74.874 98.020 74.873 98.039 74.871 Z " transform="matrix(1.3400955200195313, 0, 0, 1.3400955200195313, 6.35, -72.65)"/>
      <path id="Lash" fill="#272525" d="M 98.039 74.871 C 98.019 74.873 97.994 74.874 97.978 74.876 C 97.176 74.982 90.916 77.824 88.868 79.268 C 88.402 79.594 88.152 79.850 88.232 79.985 C 88.933 81.165 97.508 76.580 98.679 75.464 C 99.275 74.895 98.379 74.842 98.039 74.871 Z " transform="matrix(1.3400955200195313, 0, 0, 1.3400955200195313, 6.35, -72.65)"/>
    </g>
  </g>
  <g id="R_Eye" transform="matrix(1, 0, 0, 1, -1, 0)">
    <g id="Eyeball_1_">
      <path id="Outline_1_" fill="#272525" d="M 103.639 76.100 C 102.701 77.582 102.772 80.641 103.639 82.143 C 105.425 85.240 109.125 84.764 110.180 81.196 C 111.652 76.213 106.150 72.131 103.639 76.100 Z M 105.585 81.997 C 104.173 81.062 103.895 76.449 105.783 75.958 C 106.384 75.800 107.550 75.807 108.351 76.789 C 109.581 78.294 109.453 84.555 105.585 81.997 Z " transform="matrix(1.3400955200195313, 0, 0, 1.3400955200195313, 6.35, -72.65)"/>
      <path id="White_1_" fill="#FFFFFF" d="M 105.783 75.958 C 103.894 76.449 104.173 81.062 105.585 81.997 C 109.453 84.555 109.581 78.294 108.352 76.789 C 107.550 75.807 106.384 75.800 105.783 75.958 Z " transform="matrix(1.3400955200195313, 0, 0, 1.3400955200195313, 6.35, -72.65)"/>
      <path id="Pupil_1_" fill="#272525" d="M 108.350 78.787 C 108.640 78.787 108.903 78.942 109.093 79.193 C 109.283 79.444 109.401 79.790 109.401 80.172 C 109.401 80.554 109.283 80.900 109.093 81.151 C 108.903 81.402 108.640 81.557 108.350 81.557 C 108.060 81.557 107.797 81.402 107.607 81.151 C 107.417 80.900 107.299 80.554 107.299 80.172 C 107.299 79.790 107.417 79.444 107.607 79.193 C 107.797 78.942 108.060 78.787 108.350 78.787 Z " transform="matrix(1.3400955200195313, 0, 0, 1.3400955200195313, 6.35, -72.65)"/>
    </g>
    <g id="Eyelid">
      <path id="Lid_1_" fill="#B7CBE7" d="M 103.656 74.745 C 101.716 76.011 101.241 78.367 101.945 79.415 C 103.867 78.141 108.853 75.868 109.787 75.646 C 108.895 73.565 105.646 73.452 103.656 74.745 Z " transform="matrix(1.3400955200195313, 0, 0, 1.3400955200195313, 6.35, -72.65)"/>
      <path id="Lash_1_" fill="#272525" d="M 109.882 75.623 C 109.861 75.626 109.817 75.641 109.787 75.646 C 108.853 75.868 103.867 78.138 101.945 79.415 C 101.424 79.764 101.116 80.039 101.197 80.175 C 101.822 81.227 109.465 77.141 110.507 76.149 C 111.068 75.609 110.135 75.589 109.882 75.623 Z " transform="matrix(1.3400955200195313, 0, 0, 1.3400955200195313, 6.35, -72.65)"/>
    </g>
  </g>
</svg>