<svg version="1.1" width="74" height="280" viewBox="-1 -1 74 280" xmlns="http://www.w3.org/2000/svg" xmlns:xlink="http://www.w3.org/1999/xlink">
  <!-- Exported by Scratch - http://scratch.mit.edu/ -->
  <g id="ID0.5190414423123002" transform="matrix(1, 0, 0, 1, 0, 0.5)">
    <g id="Page-1">
      <g id="Group">
        <g id="ID0.8531652987003326">
          <g id="Path">
            <path id="ID0.43046604422852397" fill="#C38F4E" stroke="none" stroke-width="1" d="M 15.500 18.600 C 13.400 18.100 12.900 16.600 13.100 15 C 12.900 18.100 12.800 21 13.100 23.400 C 13.100 23.700 13.100 23.900 13.100 24.200 C 13 25.400 12.300 26.400 11 26.600 C 10.600 26.700 10.200 26.500 9.900 26.300 C 9.900 26.400 9.900 26.600 9.900 26.700 C 9.800 27.900 8.800 28.900 7.600 28.900 C 6.800 28.900 6.200 28.400 6 27.700 C 5.800 27.200 5.600 26.600 5.500 26.100 C 5.500 26.100 5.500 26.100 5.500 26.100 C 4.500 27.100 2.800 26.600 2.500 25.200 C 1.900 22.600 0.900 17.200 1 15.100 C 1.200 10.800 4.500 6.200 4.500 6.200 L 3.600 0.400 L 12.600 1.200 L 11.700 4.100 C 15.300 6.500 16.500 8.500 16.600 12.400 C 16.600 12.400 18.200 15.300 18.300 16.700 C 18.200 18.600 16.200 18.900 15.500 18.600 Z " transform="matrix(1, 0, 0, 1, 50, 155.5)"/>
            <path id="ID0.13506866991519928" fill="none" stroke="#000000" stroke-width="1" stroke-linecap="round" stroke-linejoin="round" d="M 11.800 12.500 L 11.800 12.100 C 12.100 14.300 12.100 18.100 15.400 18.600 C 16.100 18.900 18.200 18.500 17.900 16.900 C 17.700 15.500 16.200 12.600 16.200 12.600 C 16.100 8.700 14.900 6.700 11.300 4.300 L 11.600 2.100 " transform="matrix(1, 0, 0, 1, 50, 155.5)"/>
            <path id="ID0.5289783230982721" fill="none" stroke="#000000" stroke-width="1" stroke-linecap="round" stroke-linejoin="round" d="M 5.300 26.200 C 5.300 26.200 5.300 26.200 5.300 26.200 C 4.300 27.200 2.600 26.700 2.200 25.400 C 1.600 22.800 0.600 17.400 0.700 15.300 C 0.900 11 4.200 6.400 4.200 6.400 L 3.300 0.600 " transform="matrix(1, 0, 0, 1, 50, 155.5)"/>
            <path id="ID0.006497284863144159" fill="none" stroke="#000000" stroke-width="1" stroke-linecap="round" stroke-linejoin="round" d="M 4.600 16.900 C 4 20.300 4.500 24.300 5.900 27.800 C 6.200 28.500 6.800 29.100 7.500 29 C 8.900 28.900 10 27.700 9.800 26.300 " transform="matrix(1, 0, 0, 1, 50, 155.5)"/>
            <path id="ID0.3074013707228005" fill="none" stroke="#000000" stroke-width="1" stroke-linecap="round" stroke-linejoin="round" d="M 8.200 16.700 C 8.200 19.800 8.400 22.700 9 25.200 C 9.200 26.100 10.100 26.800 11 26.600 C 12.500 26.400 13.300 24.900 13.100 23.400 C 12.900 21.500 12.800 19.300 13 17 " transform="matrix(1, 0, 0, 1, 50, 155.5)"/>
          </g>
          <g id="ID0.8155852258205414">
            <path id="Shape_79_" fill="#C38F4E" stroke="none" stroke-width="1" d="M 10.300 3.300 C 13.600 8.300 12.800 17.300 13.600 22.600 C 14.400 27.900 14.800 38 14.800 38 C 14.800 38 10.500 42.300 6.700 38.600 C 6.700 38.600 2.300 19.100 1.100 14.600 C -0.200 10.200 -0.100 7.300 1.300 4.400 C 2.800 1.500 6.500 -2.500 10.300 3.300 Z " transform="matrix(1, 0, 0, 1, 47, 119.5)"/>
            <path id="Shape_78_" fill="none" stroke="#000000" stroke-width="1" stroke-linecap="round" d="M 11.900 7.100 C 13.300 12.100 12.900 18.400 13.500 22.600 C 14.300 27.900 14.600 38.400 14.600 38.400 " transform="matrix(1, 0, 0, 1, 47, 119.5)"/>
            <path id="Shape_77_" fill="none" stroke="#000000" stroke-width="1" stroke-linecap="round" d="M 6.900 39.100 C 5.500 36.500 2.100 19 1 14.600 C 0.400 12.300 0.100 10.400 0.100 8.800 " transform="matrix(1, 0, 0, 1, 47, 119.5)"/>
          </g>
          <g id="Path">
            <path id="ID0.6271581398323178" fill="#C38F4E" stroke="none" stroke-width="1" d="M 2.400 40 C 2.200 41.500 2.500 47.600 3.400 49.200 C 4.600 51.300 10.900 51.200 12.200 51.200 C 16.600 51 15.300 45.700 15.600 43.300 C 15.700 42.500 15.600 41.300 15.700 40.400 C 17.100 25.400 14.500 8.800 12.100 3.400 C 9.200 -2.700 4.100 1.900 1.100 9.600 C -1.100 14.900 3.500 26.300 2.400 40 Z " transform="matrix(1, 0, 0, 1, 44, 81.5)"/>
            <path id="ID0.6500099808908999" fill="none" stroke="#000000" stroke-width="1" stroke-linecap="round" d="M 15.200 49 C 15.900 47.200 15.500 44.700 15.600 43.200 C 15.700 42.400 15.600 41.200 15.700 40.300 C 17.100 25.300 14.500 8.700 12.100 3.300 C 11.200 1.400 10.100 0.500 8.900 0.500 " transform="matrix(1, 0, 0, 1, 44, 81.5)"/>
            <path id="ID0.20807866472750902" fill="none" stroke="#000000" stroke-width="1" stroke-linecap="round" d="M 8.600 0.400 C 6 0.600 3.100 4.300 1.100 9.400 C -1.100 14.900 2.500 22.200 2.600 36.500 C 2.400 38 2.900 44.700 3.100 48.900 " transform="matrix(1, 0, 0, 1, 44, 81.5)"/>
          </g>
        </g>
        <path id="ID0.8950433996506035_19_" fill="#2C96FF" stroke="#000000" stroke-width="1" stroke-linecap="round" stroke-linejoin="round" d="M 15.300 10.500 C 15.700 11.900 16.100 13.200 16.600 14.600 C 19.100 21.600 21.200 29.200 20.100 36.700 C 19.600 40.400 14.700 41 11.400 42 C 8.700 42.800 4 44.600 2.900 41.600 C -0.700 32.200 -0.200 3.100 1.200 1.800 C 4.600 -1.500 13.200 3.900 15.300 10.500 Z " transform="matrix(1, 0, 0, 1, 43, 76.5)"/>
      </g>
      <path id="Path" fill="#C38F4E" stroke="#000000" stroke-width="1" d="M 39.200 77.300 L 40.100 80.700 L 33.800 81.500 L 32.800 81.600 L 31.800 81.500 L 25.500 80.700 L 26.400 77.300 C 27.800 72 27.200 66.300 24.900 61.400 L 32.900 62 L 40.900 61.400 C 38.300 66.700 37.100 72.600 39.200 77.300 Z " transform="matrix(1, 0, 0, 1, 0, -0.5)"/>
      <path id="Path" fill="#C38F4E" stroke="#000000" stroke-width="1" stroke-linecap="round" d="M 9.700 168.600 C -2.700 146.700 9.900 81.900 14.600 78.500 C 17.900 76.200 21.800 75.800 23.900 75.800 C 24.700 75.800 25.500 76.100 26.100 76.600 C 29 79 38.300 80.400 40.500 77.500 C 40.500 77.500 40.700 77.400 40.900 77.400 C 44 76.600 47.300 77.700 49.300 80.200 C 49.300 80.300 49.400 80.300 49.400 80.300 C 54.300 87.200 57.500 96.400 56.800 103.300 C 54.700 123.400 60 140.500 56.700 165.400 C 55.200 169.900 12.300 173.700 9.700 168.600 Z " transform="matrix(1, 0, 0, 1, 0, -0.5)"/>
      <g id="Group">
        <g id="Path">
          <g id="ID0.43320409674197435">
            <path id="ID0.19412223529070616" fill="#C38F4E" stroke="none" stroke-width="1" d="M 3.700 4.400 C 6.500 0.600 11.500 -1.700 15.400 2.400 C 27.100 14.700 23.100 51.100 14.700 60.400 C 13.800 61.400 8.800 64.200 6.400 61.700 C -1.300 53.700 -1.300 11.300 3.700 4.400 Z " transform="matrix(1, 0, 0, 1, 36, 156.5)"/>
            <path id="ID0.8202957748435438" fill="none" stroke="#000000" stroke-width="1" stroke-linecap="round" d="M 2.800 53 C -1.100 36.100 -0.300 10 3.800 4.400 C 6.600 0.600 11.600 -1.700 15.500 2.400 C 25.600 13.100 24 40 17.900 55 " transform="matrix(1, 0, 0, 1, 36, 156.5)"/>
          </g>
          <g id="ID0.4194535305723548">
            <path id="ID0.04569871723651886" fill="#C38F4E" stroke="none" stroke-width="1" d="M 16.700 9.100 L 16.600 10.400 L 12.900 43.700 C 12.700 45.500 12.800 47.400 13.200 49.200 C 13.800 51.800 12.500 54.600 10 55.600 C 10 55.600 9.900 55.600 9.900 55.600 C 6 57.100 2 53.800 2.400 49.700 L 2.800 45.700 C 2.900 44.400 2.900 43.200 2.800 41.900 L 0.400 16.800 C 0.300 13.900 0.700 11.100 1.600 8.400 C 1.600 8.300 1.700 8.200 1.700 8.100 C 2.400 6.300 3.300 4.500 4.400 2.900 C 5.400 1.400 7 0.400 8.800 0.200 C 12.400 -0.300 15.700 2.200 16.200 5.800 L 16.700 9.100 Z " transform="matrix(1, 0, 0, 1, 37, 201.5)"/>
            <path id="ID0.17142299329861999" fill="none" stroke="#000000" stroke-width="1" stroke-linecap="round" d="M 16.600 10.100 L 12.900 43.600 C 12.700 45.400 12.800 47.300 13.200 49.100 " transform="matrix(1, 0, 0, 1, 37, 201.5)"/>
            <path id="ID0.9802132793702185" fill="none" stroke="#000000" stroke-width="1" stroke-linecap="round" d="M 2.400 50.600 C 2.400 50.300 2.400 50 2.400 49.700 L 2.800 45.700 C 2.900 44.400 2.900 43.200 2.800 41.900 L 0.400 16.800 C 0.200 13.800 0.700 10.800 1.700 8 " transform="matrix(1, 0, 0, 1, 37, 201.5)"/>
          </g>
          <g id="ID0.28234442276880145">
            <path id="ID0.8708723485469818" fill="#C38F4E" stroke="none" stroke-width="1" d="M 0.800 4.500 C 3.800 11.800 9.800 17.200 21.400 19 C 24.400 19.300 26.800 18.800 28.100 16.900 C 29.400 15 28.900 12.400 27.300 10.800 C 22.600 6.200 17.200 2.700 11.300 0.100 L 2.300 1.900 C 1.100 2.200 0.400 3.400 0.800 4.500 Z " transform="matrix(1, 0, 0, 1, 39, 250.5)"/>
            <path id="ID0.25457615591585636" fill="none" stroke="#000000" stroke-width="1" stroke-linecap="round" d="M 0.400 1.900 C 1.900 10.400 9.800 17.200 21.400 19.100 C 24.400 19.400 26.800 18.900 28.100 17 C 29.400 15.100 28.900 12.500 27.300 10.900 C 22.600 6.300 17.200 2.800 11.300 0.200 " transform="matrix(1, 0, 0, 1, 39, 250.5)"/>
          </g>
        </g>
        <path id="Path" fill="#CCD8FF" stroke="#000000" stroke-width="1" stroke-linecap="round" d="M 0.500 24.100 C 1.500 24.100 2.400 31.900 2.200 34.700 C 9.500 36.900 17.300 36.900 25.500 34.700 L 24.500 5.400 L 0.800 6.700 " transform="matrix(1, 0, 0, 1, 34, 145.5)"/>
        <path id="Path" fill="#333333" stroke="#000000" stroke-width="1" stroke-linecap="round" d="M 2.100 1.700 C -0.300 24.800 -0.100 47.100 2.800 61.500 C 0.400 70.500 1.700 86.600 4.200 103.100 C 4.200 103.300 4.500 103.500 4.700 103.500 L 16 102.800 C 16.200 102.800 16.400 102.600 16.400 102.400 C 18.700 89.400 21 76.900 21.200 66 C 26.500 46.400 25.100 24 23.200 0 L 2.100 1.700 Z " transform="matrix(1, 0, 0, 1, 34, 145.5)"/>
        <g id="ID0.021961564663797617">
          <path id="Path" fill="#BA0000" stroke="#000000" stroke-width="1" stroke-linecap="round" d="M 21.500 23.200 C 13.600 20.500 7 15.900 1.400 10 L 0.400 4.200 C 0.300 3.500 1 2.900 1.700 3.200 L 3.800 4.200 C 5.500 1.900 9 -0.300 12.500 0.100 C 17.200 0.500 13.500 3.800 13.500 3.800 L 29.400 13.700 L 28.600 19.500 L 21.900 23.700 " transform="matrix(1, 0, 0, 1, 37, 244.5)"/>
          <path id="Path" fill="#7A0000" stroke="#000000" stroke-width="1" stroke-linecap="round" d="M 29.400 13.700 L 27.800 15.300 L 17 7 L 13.500 3.800 L 29.400 13.700 " transform="matrix(1, 0, 0, 1, 37, 244.5)"/>
          <path id="Path" fill="#7A0000" stroke="#000000" stroke-width="1" stroke-linecap="round" d="M 25.300 18.300 L 21.900 22.700 C 14.600 20 6.600 15.600 1.300 10.100 L 0.300 4.300 C 0.200 3.600 0.900 3 1.600 3.300 L 3.700 4.300 L 5.600 8.300 C 10.300 12.800 18.500 15.500 25.300 18.300 Z " transform="matrix(1, 0, 0, 1, 37, 244.5)"/>
          <path id="Path" fill="#FFFFFF" stroke="#000000" stroke-width="1" stroke-linecap="round" stroke-linejoin="round" d="M 20 25.400 C 20.100 24.800 20.400 23.800 20.700 23.200 C 20.900 22.800 21.500 23.400 21.700 23 C 23.200 19.900 25.900 15.300 29.400 13.700 C 29.400 13.700 37.500 17.400 35.200 23.500 C 34.200 26.100 31.600 28 28.300 27.900 C 24.700 27.900 20.200 25.900 20 25.400 Z " transform="matrix(1, 0, 0, 1, 37, 244.5)"/>
          <path id="Path" fill="#FFFFFF" stroke="#000000" stroke-width="1" stroke-linecap="round" stroke-linejoin="round" d="M 22 22.700 C 22.500 19 24.700 15.900 29.400 13.700 C 29.400 13.700 38 17.600 33.600 22.700 C 29.200 27.800 22 22.700 22 22.700 Z " transform="matrix(1, 0, 0, 1, 37, 244.5)"/>
          <path id="Path" fill="#FFFFFF" stroke="#000000" stroke-width="1" stroke-linecap="round" stroke-linejoin="round" d="M 0.700 13.100 C 4.800 18.100 13.500 22.800 20.800 25.800 C 20.800 25.800 22.100 22.900 21.800 22.700 C 14.500 19.600 5.500 15 1.300 9.900 L 0.700 13.100 Z " transform="matrix(1, 0, 0, 1, 37, 244.5)"/>
          <g id="ID0.49023663671687245">
            <g id="Oval">
              <path id="ID0.23806315986439586" fill="#000000" stroke="none" stroke-width="1" d="M 1.100 5.700 C 1.376 5.700 1.626 5.812 1.807 5.993 C 1.988 6.174 2.100 6.424 2.100 6.700 C 2.100 6.976 1.988 7.226 1.807 7.407 C 1.626 7.588 1.376 7.700 1.100 7.700 C 0.824 7.700 0.574 7.588 0.393 7.407 C 0.212 7.226 0.100 6.976 0.100 6.700 C 0.100 6.424 0.212 6.174 0.393 5.993 C 0.574 5.812 0.824 5.700 1.100 5.700 Z " transform="matrix(1, 0, 0, 1, 45, 249.5)"/>
              <path id="ID0.5412170155905187" fill="#000000" stroke="none" stroke-width="1" d="M 9.100 0.900 C 9.376 0.900 9.626 1.012 9.807 1.193 C 9.988 1.374 10.100 1.624 10.100 1.900 C 10.100 2.176 9.988 2.426 9.807 2.607 C 9.626 2.788 9.376 2.900 9.100 2.900 C 8.824 2.900 8.574 2.788 8.393 2.607 C 8.212 2.426 8.100 2.176 8.100 1.900 C 8.100 1.624 8.212 1.374 8.393 1.193 C 8.574 1.012 8.824 0.900 9.100 0.900 Z " transform="matrix(1, 0, 0, 1, 45, 249.5)"/>
              <path id="ID0.9987731543369591" fill="#000000" stroke="none" stroke-width="1" d="M 16.600 5.500 C 16.876 5.500 17.126 5.612 17.307 5.793 C 17.488 5.974 17.600 6.224 17.600 6.500 C 17.600 6.776 17.488 7.026 17.307 7.207 C 17.126 7.388 16.876 7.500 16.600 7.500 C 16.324 7.500 16.074 7.388 15.893 7.207 C 15.712 7.026 15.600 6.776 15.600 6.500 C 15.600 6.224 15.712 5.974 15.893 5.793 C 16.074 5.612 16.324 5.500 16.600 5.500 Z " transform="matrix(1, 0, 0, 1, 45, 249.5)"/>
              <path id="ID0.5293586030602455" fill="#000000" stroke="none" stroke-width="1" d="M 12.600 3.200 C 12.876 3.200 13.126 3.312 13.307 3.493 C 13.488 3.674 13.600 3.924 13.600 4.200 C 13.600 4.476 13.488 4.726 13.307 4.907 C 13.126 5.088 12.876 5.200 12.600 5.200 C 12.324 5.200 12.074 5.088 11.893 4.907 C 11.712 4.726 11.600 4.476 11.600 4.200 C 11.600 3.924 11.712 3.674 11.893 3.493 C 12.074 3.312 12.324 3.200 12.600 3.200 Z " transform="matrix(1, 0, 0, 1, 45, 249.5)"/>
              <path id="ID0.527447157073766" fill="#000000" stroke="none" stroke-width="1" d="M 9.600 10.200 C 9.876 10.200 10.126 10.312 10.307 10.493 C 10.488 10.674 10.600 10.924 10.600 11.200 C 10.600 11.476 10.488 11.726 10.307 11.907 C 10.126 12.088 9.876 12.200 9.600 12.200 C 9.324 12.200 9.074 12.088 8.893 11.907 C 8.712 11.726 8.600 11.476 8.600 11.200 C 8.600 10.924 8.712 10.674 8.893 10.493 C 9.074 10.312 9.324 10.200 9.600 10.200 Z " transform="matrix(1, 0, 0, 1, 45, 249.5)"/>
              <path id="ID0.21842080261558294" fill="#000000" stroke="none" stroke-width="1" d="M 5.100 7.900 C 5.376 7.900 5.626 8.012 5.807 8.193 C 5.988 8.374 6.100 8.624 6.100 8.900 C 6.100 9.176 5.988 9.426 5.807 9.607 C 5.626 9.788 5.376 9.900 5.100 9.900 C 4.824 9.900 4.574 9.788 4.393 9.607 C 4.212 9.426 4.100 9.176 4.100 8.900 C 4.100 8.624 4.212 8.374 4.393 8.193 C 4.574 8.012 4.824 7.900 5.100 7.900 Z " transform="matrix(1, 0, 0, 1, 45, 249.5)"/>
            </g>
            <g id="Path">
              <path id="ID0.40158668952062726" fill="none" stroke="#FFFFFF" stroke-width="1" d="M 0.200 4.700 C 4.300 3 7 1.400 8 0 " transform="matrix(1, 0, 0, 1, 46, 251.5)"/>
              <path id="ID0.35588851664215326" fill="none" stroke="#FFFFFF" stroke-width="1" d="M 8.700 9.200 C 11.800 8 14.400 6.600 15.400 4.700 " transform="matrix(1, 0, 0, 1, 46, 251.5)"/>
              <path id="ID0.6722920974716544" fill="none" stroke="#FFFFFF" stroke-width="1" d="M 4.200 6.800 C 7.800 5 10.900 3.400 11.400 2.300 " transform="matrix(1, 0, 0, 1, 46, 251.5)"/>
            </g>
          </g>
        </g>
      </g>
      <g id="Group">
        <g id="Path">
          <g id="ID0.7843436999246478">
            <path id="ID0.2641713609918952" fill="#C38F4E" stroke="none" stroke-width="1" d="M 3.700 4.400 C 6.500 0.600 11.500 -1.700 15.400 2.400 C 27.100 14.700 23.100 58.100 14.700 67.400 C 13.800 68.400 8.800 71.200 6.400 68.700 C -1.300 60.700 -1.300 11.300 3.700 4.400 Z " transform="matrix(1, 0, 0, 1, 11, 155.5)"/>
            <path id="ID0.4401736166328192" fill="none" stroke="#000000" stroke-width="1" stroke-linecap="round" d="M 2.700 60 C -1.200 43.100 -0.400 10 3.700 4.400 C 6.500 0.600 11.500 -1.700 15.400 2.400 C 25.500 13.100 23.900 47.100 17.800 62 " transform="matrix(1, 0, 0, 1, 11, 155.5)"/>
          </g>
          <g id="ID0.636023560538888">
            <path id="ID0.23039837274700403" fill="#C38F4E" stroke="none" stroke-width="1" d="M 16.700 9.100 L 16.600 10.400 L 12.900 43.700 C 12.700 45.500 12.800 47.400 13.200 49.200 C 13.800 51.800 12.500 54.600 10 55.600 C 10 55.600 9.900 55.600 9.900 55.600 C 6 57.100 2 53.800 2.400 49.700 L 2.800 45.700 C 2.900 44.400 2.900 43.200 2.800 41.900 L 0.400 16.800 C 0.300 13.900 0.700 11.100 1.600 8.400 C 1.600 8.300 1.700 8.200 1.700 8.100 C 2.400 6.300 3.300 4.500 4.400 2.900 C 5.400 1.400 7 0.400 8.800 0.200 C 12.400 -0.300 15.700 2.200 16.200 5.800 L 16.700 9.100 Z " transform="matrix(1, 0, 0, 1, 12, 207.5)"/>
            <path id="ID0.23852512706071138" fill="none" stroke="#000000" stroke-width="1" stroke-linecap="round" d="M 16.600 10.100 L 12.900 43.600 C 12.700 45.400 12.800 47.300 13.200 49.100 " transform="matrix(1, 0, 0, 1, 12, 207.5)"/>
            <path id="ID0.07580001372843981" fill="none" stroke="#000000" stroke-width="1" stroke-linecap="round" d="M 2.400 50.600 C 2.400 50.300 2.400 50 2.400 49.700 L 2.800 45.700 C 2.900 44.400 2.900 43.200 2.800 41.900 L 0.400 16.800 C 0.200 13.800 0.700 10.800 1.700 8 " transform="matrix(1, 0, 0, 1, 12, 207.5)"/>
          </g>
          <g id="ID0.5798300602473319">
            <path id="ID0.31979061057791114" fill="#C38F4E" stroke="none" stroke-width="1" d="M 0.800 4.500 C 3.800 11.800 9.800 17.200 21.400 19 C 24.400 19.300 26.800 18.800 28.100 16.900 C 29.400 15 28.900 12.400 27.300 10.800 C 22.600 6.200 17.200 2.700 11.300 0.100 L 2.300 1.900 C 1 2.200 0.400 3.400 0.800 4.500 Z " transform="matrix(1, 0, 0, 1, 14, 256.5)"/>
            <path id="ID0.28148085391148925" fill="none" stroke="#000000" stroke-width="1" stroke-linecap="round" d="M 0.400 1.900 C 1.900 10.400 9.800 17.200 21.400 19.100 C 24.400 19.400 26.800 18.900 28.100 17 C 29.400 15.100 28.900 12.500 27.300 10.900 C 22.600 6.300 17.200 2.800 11.300 0.200 " transform="matrix(1, 0, 0, 1, 14, 256.5)"/>
          </g>
        </g>
        <path id="Path" fill="#CCD8FF" stroke="#000000" stroke-width="1" stroke-linecap="round" d="M 25.800 0.700 L 2.200 1.800 L 1.200 28.800 C 8.900 31.300 16.700 31.500 24.900 29.100 C 24.300 26.300 24.600 18.200 25.600 18.100 " transform="matrix(1, 0, 0, 1, 9, 151.5)"/>
        <path id="Path" fill="#333333" stroke="#000000" stroke-width="1" stroke-linecap="round" d="M 2.100 1.700 C -0.300 24.800 -0.100 47.100 2.800 61.500 C 0.400 70.500 1.700 86.600 4.200 103.100 C 4.200 103.300 4.500 103.500 4.700 103.500 L 16 102.800 C 16.200 102.800 16.400 102.600 16.400 102.400 C 18.700 89.400 21 76.900 21.200 66 C 26.500 46.400 27.100 24 25.200 0 L 2.100 1.700 Z " transform="matrix(1, 0, 0, 1, 9, 151.5)"/>
        <g id="ID0.790769993327558">
          <path id="Path" fill="#BA0000" stroke="#000000" stroke-width="1" stroke-linecap="round" d="M 21.500 23.200 C 13.600 20.500 7 15.900 1.400 10 L 0.400 4.200 C 0.300 3.500 1 2.900 1.700 3.200 L 3.800 4.200 C 5.500 1.900 9 -0.300 12.500 0.100 C 17.200 0.500 13.500 3.800 13.500 3.800 L 29.400 13.700 L 28.600 19.500 L 21.900 23.700 " transform="matrix(1, 0, 0, 1, 12, 250.5)"/>
          <path id="Path" fill="#7A0000" stroke="#000000" stroke-width="1" stroke-linecap="round" d="M 29.400 13.700 L 27.800 15.300 L 17 7 L 13.500 3.800 L 29.400 13.700 " transform="matrix(1, 0, 0, 1, 12, 250.5)"/>
          <path id="Path" fill="#7A0000" stroke="#000000" stroke-width="1" stroke-linecap="round" d="M 25.300 18.300 L 21.900 22.700 C 14.600 20 6.600 15.600 1.300 10.100 L 0.300 4.300 C 0.200 3.600 0.900 3 1.600 3.300 L 3.700 4.300 L 5.600 8.300 C 10.300 12.800 18.500 15.500 25.300 18.300 Z " transform="matrix(1, 0, 0, 1, 12, 250.5)"/>
          <path id="Path" fill="#FFFFFF" stroke="#000000" stroke-width="1" stroke-linecap="round" stroke-linejoin="round" d="M 20 25.400 C 20.100 24.800 20.400 23.800 20.700 23.200 C 20.900 22.800 21.500 23.400 21.700 23 C 23.200 19.900 25.900 15.300 29.400 13.700 C 29.400 13.700 37.500 17.400 35.200 23.500 C 34.200 26.100 31.600 28 28.300 27.900 C 24.700 27.900 20.200 25.900 20 25.400 Z " transform="matrix(1, 0, 0, 1, 12, 250.5)"/>
          <path id="Path" fill="#FFFFFF" stroke="#000000" stroke-width="1" stroke-linecap="round" stroke-linejoin="round" d="M 22 22.700 C 22.500 19 24.700 15.900 29.400 13.700 C 29.400 13.700 38 17.600 33.600 22.700 C 29.200 27.800 22 22.700 22 22.700 Z " transform="matrix(1, 0, 0, 1, 12, 250.5)"/>
          <path id="Path" fill="#FFFFFF" stroke="#000000" stroke-width="1" stroke-linecap="round" stroke-linejoin="round" d="M 0.700 13.200 C 4.800 18.200 13.500 22.900 20.800 25.900 C 20.800 25.900 22.100 23 21.800 22.800 C 14.500 19.700 5.500 15.100 1.300 10 L 0.700 13.200 Z " transform="matrix(1, 0, 0, 1, 12, 250.5)"/>
          <g id="ID0.42240909906104207">
            <g id="Oval">
              <path id="ID0.7339978027157485" fill="#000000" stroke="none" stroke-width="1" d="M 1.100 5.700 C 1.376 5.700 1.626 5.812 1.807 5.993 C 1.988 6.174 2.100 6.424 2.100 6.700 C 2.100 6.976 1.988 7.226 1.807 7.407 C 1.626 7.588 1.376 7.700 1.100 7.700 C 0.824 7.700 0.574 7.588 0.393 7.407 C 0.212 7.226 0.100 6.976 0.100 6.700 C 0.100 6.424 0.212 6.174 0.393 5.993 C 0.574 5.812 0.824 5.700 1.100 5.700 Z " transform="matrix(1, 0, 0, 1, 20, 255.5)"/>
              <path id="ID0.7091171024367213" fill="#000000" stroke="none" stroke-width="1" d="M 9.200 0.900 C 9.476 0.900 9.726 1.012 9.907 1.193 C 10.088 1.374 10.200 1.624 10.200 1.900 C 10.200 2.176 10.088 2.426 9.907 2.607 C 9.726 2.788 9.476 2.900 9.200 2.900 C 8.924 2.900 8.674 2.788 8.493 2.607 C 8.312 2.426 8.200 2.176 8.200 1.900 C 8.200 1.624 8.312 1.374 8.493 1.193 C 8.674 1.012 8.924 0.900 9.200 0.900 Z " transform="matrix(1, 0, 0, 1, 20, 255.5)"/>
              <path id="ID0.6719959196634591" fill="#000000" stroke="none" stroke-width="1" d="M 16.600 5.500 C 16.876 5.500 17.126 5.612 17.307 5.793 C 17.488 5.974 17.600 6.224 17.600 6.500 C 17.600 6.776 17.488 7.026 17.307 7.207 C 17.126 7.388 16.876 7.500 16.600 7.500 C 16.324 7.500 16.074 7.388 15.893 7.207 C 15.712 7.026 15.600 6.776 15.600 6.500 C 15.600 6.224 15.712 5.974 15.893 5.793 C 16.074 5.612 16.324 5.500 16.600 5.500 Z " transform="matrix(1, 0, 0, 1, 20, 255.5)"/>
              <path id="ID0.1550924782641232" fill="#000000" stroke="none" stroke-width="1" d="M 12.600 3.200 C 12.876 3.200 13.126 3.312 13.307 3.493 C 13.488 3.674 13.600 3.924 13.600 4.200 C 13.600 4.476 13.488 4.726 13.307 4.907 C 13.126 5.088 12.876 5.200 12.600 5.200 C 12.324 5.200 12.074 5.088 11.893 4.907 C 11.712 4.726 11.600 4.476 11.600 4.200 C 11.600 3.924 11.712 3.674 11.893 3.493 C 12.074 3.312 12.324 3.200 12.600 3.200 Z " transform="matrix(1, 0, 0, 1, 20, 255.5)"/>
              <path id="ID0.7365721296519041" fill="#000000" stroke="none" stroke-width="1" d="M 9.600 10.200 C 9.876 10.200 10.126 10.312 10.307 10.493 C 10.488 10.674 10.600 10.924 10.600 11.200 C 10.600 11.476 10.488 11.726 10.307 11.907 C 10.126 12.088 9.876 12.200 9.600 12.200 C 9.324 12.200 9.074 12.088 8.893 11.907 C 8.712 11.726 8.600 11.476 8.600 11.200 C 8.600 10.924 8.712 10.674 8.893 10.493 C 9.074 10.312 9.324 10.200 9.600 10.200 Z " transform="matrix(1, 0, 0, 1, 20, 255.5)"/>
              <path id="ID0.9963890081271529" fill="#000000" stroke="none" stroke-width="1" d="M 5.100 7.900 C 5.376 7.900 5.626 8.012 5.807 8.193 C 5.988 8.374 6.100 8.624 6.100 8.900 C 6.100 9.176 5.988 9.426 5.807 9.607 C 5.626 9.788 5.376 9.900 5.100 9.900 C 4.824 9.900 4.574 9.788 4.393 9.607 C 4.212 9.426 4.100 9.176 4.100 8.900 C 4.100 8.624 4.212 8.374 4.393 8.193 C 4.574 8.012 4.824 7.900 5.100 7.900 Z " transform="matrix(1, 0, 0, 1, 20, 255.5)"/>
            </g>
            <g id="Path">
              <path id="ID0.3144862884655595" fill="none" stroke="#FFFFFF" stroke-width="1" d="M 0.200 4.700 C 4.300 3 7 1.400 8 0 " transform="matrix(1, 0, 0, 1, 21, 257.5)"/>
              <path id="ID0.9174258331768215" fill="none" stroke="#FFFFFF" stroke-width="1" d="M 8.700 9.200 C 11.800 8 14.400 6.600 15.400 4.700 " transform="matrix(1, 0, 0, 1, 21, 257.5)"/>
              <path id="ID0.7839862601831555" fill="none" stroke="#FFFFFF" stroke-width="1" d="M 4.200 6.800 C 7.800 5 10.900 3.400 11.400 2.300 " transform="matrix(1, 0, 0, 1, 21, 257.5)"/>
            </g>
          </g>
        </g>
      </g>
      <g id="Group">
        <g id="ID0.2245294926688075">
          <path id="Path" fill="#78C2FF" stroke="#000000" stroke-width="1" stroke-linecap="round" stroke-linejoin="round" d="M 5.700 99.600 C -6.700 77.700 5.900 12.900 10.600 9.500 C 13.900 7.200 17.800 6.800 19.900 6.800 C 20.700 6.800 21.500 7.100 22.100 7.600 C 25 10 34.300 11.400 36.500 8.500 C 36.500 8.500 36.700 8.400 36.900 8.400 C 40 7.600 43.300 8.700 45.300 11.200 C 45.300 11.300 45.400 11.300 45.400 11.300 C 50.300 18.200 53.500 27.400 52.800 34.300 C 50.700 54.400 60 71.500 56.700 96.400 C 55.200 100.900 8.300 104.700 5.700 99.600 Z " transform="matrix(1, 0, 0, 1, 4, 68.5)"/>
          <path id="Path" fill="#2C96FF" stroke="#000000" stroke-width="1" stroke-linecap="round" stroke-linejoin="round" d="M 30.600 10.500 C 29 12.600 28.200 15.200 27.800 18 C 23.400 15 19.200 11.500 17.300 7 L 23 0.900 L 23.100 5 C 24.700 7.200 26.900 9.200 30.600 10.500 Z " transform="matrix(1, 0, 0, 1, 4, 68.5)"/>
          <path id="Path" fill="#2C96FF" stroke="#000000" stroke-width="1" stroke-linecap="round" stroke-linejoin="round" d="M 30.600 10.500 C 32.700 11.300 34.800 12.600 37.100 16 C 38.800 13.900 39.400 11.400 38.900 8.500 L 35.100 4.500 C 34.500 7.300 33 9.300 30.600 10.500 Z " transform="matrix(1, 0, 0, 1, 4, 68.5)"/>
          <path id="Path" fill="none" stroke="#000000" stroke-width="1" stroke-linecap="round" d="M 30.600 10.500 C 35.700 39.100 37.600 69.100 35.800 100.700 " transform="matrix(1, 0, 0, 1, 4, 68.5)"/>
          <path id="Oval" fill="none" stroke="#000000" stroke-width="1" d="M 28.900 19.500 C 29.286 19.500 29.636 19.657 29.890 19.910 C 30.143 20.164 30.300 20.514 30.300 20.900 C 30.300 21.286 30.143 21.636 29.890 21.890 C 29.636 22.143 29.286 22.300 28.900 22.300 C 28.514 22.300 28.164 22.143 27.910 21.890 C 27.657 21.636 27.500 21.286 27.500 20.900 C 27.500 20.514 27.657 20.164 27.910 19.910 C 28.164 19.657 28.514 19.500 28.900 19.500 Z " transform="matrix(1, 0, 0, 1, 4, 68.5)"/>
          <path id="Oval" fill="none" stroke="#000000" stroke-width="1" d="M 31.300 36.600 C 31.686 36.600 32.036 36.757 32.290 37.010 C 32.543 37.264 32.700 37.614 32.700 38 C 32.700 38.386 32.543 38.736 32.290 38.990 C 32.036 39.243 31.686 39.400 31.300 39.400 C 30.914 39.400 30.564 39.243 30.310 38.990 C 30.057 38.736 29.900 38.386 29.900 38 C 29.900 37.614 30.057 37.264 30.310 37.010 C 30.564 36.757 30.914 36.600 31.300 36.600 Z " transform="matrix(1, 0, 0, 1, 4, 68.5)"/>
          <path id="Oval" fill="none" stroke="#000000" stroke-width="1" d="M 32.900 56.800 C 33.286 56.800 33.636 56.957 33.890 57.210 C 34.143 57.464 34.300 57.814 34.300 58.200 C 34.300 58.586 34.143 58.936 33.890 59.190 C 33.636 59.443 33.286 59.600 32.900 59.600 C 32.514 59.600 32.164 59.443 31.910 59.190 C 31.657 58.936 31.500 58.586 31.500 58.200 C 31.500 57.814 31.657 57.464 31.910 57.210 C 32.164 56.957 32.514 56.800 32.900 56.800 Z " transform="matrix(1, 0, 0, 1, 4, 68.5)"/>
          <path id="Oval" fill="none" stroke="#000000" stroke-width="1" d="M 33.100 76.700 C 33.486 76.700 33.836 76.857 34.090 77.110 C 34.343 77.364 34.500 77.714 34.500 78.100 C 34.500 78.486 34.343 78.836 34.090 79.090 C 33.836 79.343 33.486 79.500 33.100 79.500 C 32.714 79.500 32.364 79.343 32.110 79.090 C 31.857 78.836 31.700 78.486 31.700 78.100 C 31.700 77.714 31.857 77.364 32.110 77.110 C 32.364 76.857 32.714 76.700 33.100 76.700 Z " transform="matrix(1, 0, 0, 1, 4, 68.5)"/>
          <path id="Oval" fill="none" stroke="#000000" stroke-width="1" d="M 33.100 93.700 C 33.486 93.700 33.836 93.857 34.090 94.110 C 34.343 94.364 34.500 94.714 34.500 95.100 C 34.500 95.486 34.343 95.836 34.090 96.090 C 33.836 96.343 33.486 96.500 33.100 96.500 C 32.714 96.500 32.364 96.343 32.110 96.090 C 31.857 95.836 31.700 95.486 31.700 95.100 C 31.700 94.714 31.857 94.364 32.110 94.110 C 32.364 93.857 32.714 93.700 33.100 93.700 Z " transform="matrix(1, 0, 0, 1, 4, 68.5)"/>
        </g>
      </g>
      <g id="Group">
        <g id="Path">
          <path id="ID0.5008125244639814" fill="#C38F4E" stroke="none" stroke-width="1" d="M 18.300 20 C 16.100 19.900 15.100 16.700 13.500 15 L 13.100 15.400 C 13 19.100 13.100 22.500 13.600 25.400 C 13.600 25.600 13.700 25.800 13.700 26 C 13.700 27.300 13.100 28.400 11.800 28.700 C 11.400 28.800 11 28.700 10.700 28.500 C 10.700 28.600 10.700 28.700 10.700 28.800 C 10.700 30 9.800 31.100 8.500 31.300 C 7.700 31.400 7.100 30.900 6.800 30.200 C 6.600 29.700 6.300 29.200 6.100 28.600 C 6.100 28.600 6.100 28.600 6.100 28.600 C 5.200 29.700 3.400 29.300 3 27.900 C 2.200 25.400 0.900 20 0.900 17.900 C 0.900 14.300 3 10.300 3.600 9.100 L 3.700 9.600 L 3.800 8.800 L 2.500 3.100 C 5.100 0.400 7.800 -0.300 10.600 3.900 L 10.700 7.100 L 12.500 7.500 L 12.800 8 C 15.400 9.300 16.600 10.900 17.500 14 C 17.500 14 19.700 16.400 20.300 17.700 C 21 19.300 19.100 20.100 18.300 20 Z " transform="matrix(1, 0, 0, 1, 1, 161.5)"/>
          <g id="ID0.08067327877506614">
            <path id="ID0.2389802192337811" fill="none" stroke="#000000" stroke-width="1" d="M 12.300 12.100 L 12.200 11.700 C 14 13.300 15 17 17.400 17.100 C 18.200 17.200 20 16.300 19.400 14.800 C 18.900 13.500 16.600 11.100 16.600 11.100 C 15.500 7.300 13.800 5.700 9.800 4.300 L 9.700 1.100 " transform="matrix(1, 0, 0, 1, 2, 164.5)"/>
            <path id="ID0.7276169587858021" fill="none" stroke="#000000" stroke-width="1" d="M 5.200 25.600 C 5.100 25.600 5.100 25.600 5.200 25.600 C 4.200 26.700 2.500 26.300 2.100 25 C 1.300 22.500 0 17.100 0 15 C 0 10.700 2.900 5.900 2.900 5.900 L 1.600 0.200 " transform="matrix(1, 0, 0, 1, 2, 164.5)"/>
            <path id="ID0.646368635352701" fill="none" stroke="#000000" stroke-width="1" d="M 3.800 16.400 C 3.400 19.800 4.200 23.800 5.800 27.200 C 6.100 27.900 6.800 28.400 7.500 28.300 C 8.900 28.200 9.900 26.800 9.600 25.400 " transform="matrix(1, 0, 0, 1, 2, 164.5)"/>
            <path id="ID0.10165057750418782" fill="none" stroke="#000000" stroke-width="1" d="M 7.400 16 C 7.600 19.100 7.900 22 8.700 24.400 C 9 25.300 9.900 25.900 10.800 25.700 C 12.300 25.400 13 23.900 12.700 22.400 C 12.100 19.400 12.100 15.600 12.200 11.700 " transform="matrix(1, 0, 0, 1, 2, 164.5)"/>
          </g>
        </g>
        <g id="ID0.8204078925773501">
          <path id="Shape_76_" fill="#C38F4E" stroke="none" stroke-width="1" d="M 12.100 4 C 14.500 9.400 12.200 18.200 12.100 23.600 C 12 29 10.700 38.900 10.700 38.900 C 10.700 38.900 5.700 42.400 2.600 38.100 C 2.600 38.100 1.600 18.100 1.100 13.500 C 0.600 8.900 1.100 6.100 3 3.400 C 5 1 9.300 -2.300 12.100 4 Z " transform="matrix(1, 0, 0, 1, 1, 126.5)"/>
          <path id="Shape_75_" fill="none" stroke="#000000" stroke-width="1" stroke-linecap="round" d="M 13.100 8.100 C 13.600 13.200 12.200 19.500 12.100 23.700 C 12 29.100 10.700 39.300 10.700 39.300 " transform="matrix(1, 0, 0, 1, 1, 126.5)"/>
          <path id="Shape_74_" fill="none" stroke="#000000" stroke-width="1" stroke-linecap="round" d="M 2.700 38.700 C 1.800 35.900 1.400 18.100 1 13.600 C 0.800 11.200 0.800 9.400 1.100 7.700 " transform="matrix(1, 0, 0, 1, 1, 126.5)"/>
        </g>
        <g id="Path">
          <path id="ID0.5474575045518577" fill="#C38F4E" stroke="none" stroke-width="1" d="M 18.900 10.500 C 16.500 2.700 11.800 -2.400 8.400 3.500 C 5.500 8.700 1.100 31 1.300 46.100 C 1.300 47 1.200 48.200 1.200 49 C 1.300 51.400 -0.400 56.500 3.900 57.100 C 5.200 57.300 11.500 57.900 12.900 55.900 C 14 54.400 14.700 48.400 14.700 46.900 C 14.700 33.100 20.700 16.200 18.900 10.500 Z " transform="matrix(1, 0, 0, 1, 1, 79.5)"/>
          <path id="ID0.7102344618178904" fill="none" stroke="#000000" stroke-width="1" stroke-linecap="round" d="M 11.900 0.900 C 10.700 0.800 9.500 1.600 8.400 3.500 C 5.500 8.700 1.100 31 1.300 46.100 C 1.300 47 1.200 48.200 1.200 49 C 1.200 50.500 0.600 53 1.100 54.800 " transform="matrix(1, 0, 0, 1, 1, 79.5)"/>
          <path id="ID0.03855483187362552" fill="none" stroke="#000000" stroke-width="1" stroke-linecap="round" d="M 13.100 55.700 C 13.700 51.500 14.700 44.800 14.700 43.300 C 16 29.100 20.700 16.100 18.900 10.500 C 17.300 5.300 14.700 1.300 12.100 0.900 " transform="matrix(1, 0, 0, 1, 1, 79.5)"/>
        </g>
        <path id="ID0.8950433996506035_18_" fill="#2C96FF" stroke="#000000" stroke-width="1" stroke-linecap="round" stroke-linejoin="round" d="M 13.500 0.400 C 16.900 0 20.400 5 20.900 9 C 22.300 18.900 22.100 29.700 18.700 39.200 C 17.600 42.200 12.900 40.600 10.200 39.900 C 6.800 39 1.900 38.600 1.300 34.900 C -0.200 26.500 2.400 17.900 5 10.200 C 6.700 5.600 9.700 0.800 13.500 0.400 Z " transform="matrix(1, 0, 0, 1, 0, 77.5)"/>
      </g>
      <g id="Group">
        <g id="ID0.10504204453900456">
          <path id="ID0.2304357774555683_9_" fill="#C38F4E" stroke="#000000" stroke-width="1" d="M 30.500 0.500 C 23.800 0.900 14.800 3.600 10.100 8.600 C 5.400 13.600 4.400 20.700 4.400 28.300 C 4.400 35.900 7.700 42.600 12.100 48 C 16 52.900 21.700 57.100 27.800 57.600 C 35 58.200 44.800 57.100 48.300 50.900 C 54 40.400 54.600 29.400 54.700 17.700 C 54.800 13.300 53.400 9 50.500 5.700 C 49.400 4.400 48.300 3.400 47.400 3 C 41.800 0.400 36.800 0 30.500 0.500 Z " transform="matrix(1, 0, 0, 1, 9, 8.5)"/>
          <g id="ID0.13923467881977558">
            <path id="Path" fill="#FFFFFF" stroke="#000000" stroke-width="1" d="M 15.400 6.200 C 15.500 8.600 14.600 10 13 10.700 C 11.900 11.200 10.600 11.400 9 11.500 C 6.900 11.600 5.200 11.500 4 11 C 2.700 10.500 1.900 9.700 1.400 8.400 C 1.400 8.400 1.400 8.300 1.400 8.300 C 1.200 7.700 1 7 0.900 6.100 C 0.500 2 4.100 0.200 8 0.200 C 8.500 0.200 9.100 0.200 9.600 0.200 L 9.700 0.200 C 12.800 0.600 15.200 1.500 15.400 6.200 Z " transform="matrix(1, 0, 0, 1, 27, 31.5)"/>
            <path id="Path" fill="#000000" stroke="none" stroke-width="1" d="M 12 4.700 C 12.100 8 9.700 8.900 6.200 9.100 C 4.100 9.200 2.600 9.100 1.500 8.600 C 1.500 8.600 1.500 8.500 1.500 8.500 C 1.300 7.900 1.100 7.200 1 6.300 C 0.600 2.200 4.200 0.400 8.100 0.400 C 8.600 0.400 9.200 0.400 9.700 0.400 C 11 1 11.900 2.200 12 4.700 Z " transform="matrix(1, 0, 0, 1, 27, 31.5)"/>
            <path id="Oval" fill="#FFFFFF" stroke="none" stroke-width="1" d="M 4 2.400 C 4.359 2.400 4.684 2.579 4.919 2.869 C 5.154 3.159 5.300 3.559 5.300 4 C 5.300 4.441 5.154 4.841 4.919 5.131 C 4.684 5.421 4.359 5.600 4 5.600 C 3.641 5.600 3.316 5.421 3.081 5.131 C 2.846 4.841 2.700 4.441 2.700 4 C 2.700 3.559 2.846 3.159 3.081 2.869 C 3.316 2.579 3.641 2.400 4 2.400 Z " transform="matrix(1, 0, 0, 1, 27, 31.5)"/>
          </g>
          <g id="ID0.7607037764973938">
            <path id="Path" fill="#FFFFFF" stroke="#000000" stroke-width="1" d="M 10.600 6.100 C 10.700 10.100 8.900 11.100 6.200 11.300 C 3.100 11.600 1.600 10.700 0.900 8.300 C 0.900 8.300 0.900 8.200 0.900 8.200 C 0.700 7.600 0.600 6.900 0.600 6.100 C 0.300 2 2.800 0.300 5.500 0.300 C 5.900 0.300 6.300 0.300 6.600 0.300 L 6.700 0.300 C 8.800 0.600 10.500 1.500 10.600 6.100 Z " transform="matrix(1, 0, 0, 1, 51, 31.5)"/>
            <path id="Path" fill="#000000" stroke="none" stroke-width="1" d="M 8.300 4.600 C 8.400 7.900 6.700 8.700 4.300 8.900 C 2.900 9 1.800 8.900 1 8.500 C 1 8.500 1 8.400 1 8.400 C 0.800 7.800 0.700 7.100 0.700 6.300 C 0.400 2.200 2.900 0.500 5.600 0.500 C 6 0.500 6.400 0.500 6.700 0.500 C 7.600 1 8.200 2.200 8.300 4.600 Z " transform="matrix(1, 0, 0, 1, 51, 31.5)"/>
            <path id="Oval" fill="#FFFFFF" stroke="none" stroke-width="1" d="M 2.900 2.400 C 3.231 2.400 3.531 2.579 3.748 2.869 C 3.966 3.159 4.100 3.559 4.100 4 C 4.100 4.441 3.966 4.841 3.748 5.131 C 3.531 5.421 3.231 5.600 2.900 5.600 C 2.569 5.600 2.269 5.421 2.052 5.131 C 1.834 4.841 1.700 4.441 1.700 4 C 1.700 3.559 1.834 3.159 2.052 2.869 C 2.269 2.579 2.569 2.400 2.900 2.400 Z " transform="matrix(1, 0, 0, 1, 51, 31.5)"/>
          </g>
          <path id="Path" fill="none" stroke="#000000" stroke-width="0.8715" stroke-linecap="round" stroke-linejoin="round" d="M 37.300 49.400 C 33.700 49.200 29.100 47.500 26.400 45.100 " transform="matrix(1, 0, 0, 1, 9, 8.5)"/>
          <path id="Path" fill="#000000" stroke="none" stroke-width="1" d="M 32.100 20.800 C 26.200 20.200 20.900 21 16.200 23.400 C 14.700 21.400 25.500 17.400 30 18.200 C 33.800 18.800 32.400 20.600 32.100 20.800 Z " transform="matrix(1, 0, 0, 1, 9, 8.5)"/>
          <path id="Path" fill="#000000" stroke="none" stroke-width="1" d="M 41.600 21.300 C 46.500 20.700 49.300 20 53.700 22.100 C 53.600 19.100 47.100 17.900 43.400 18.700 C 40.300 19.300 41.400 21.100 41.600 21.300 Z " transform="matrix(1, 0, 0, 1, 9, 8.5)"/>
          <g id="Path">
            <path id="ID0.5711293402127922" fill="none" stroke="#000000" stroke-width="1" d="M 2.800 0.300 L 3.500 6.200 " transform="matrix(1, 0, 0, 1, 45, 37.5)"/>
            <path id="ID0.7860546447336674" fill="none" stroke="#000000" stroke-width="0.9916" d="M 2.500 6 C 4.300 5.900 5.900 7.400 5.900 9.200 C 6 11.100 4.500 12.500 2.700 12.700 C 1.900 12.800 1.200 12.600 0.500 12.300 " transform="matrix(1, 0, 0, 1, 45, 37.5)"/>
          </g>
          <path id="Path" fill="#C38F4E" stroke="#000000" stroke-width="1" d="M 6.800 24.300 C 5.800 23.700 4.400 23.400 2.600 24.100 C -2.400 26 1.600 35 1.600 35 C 1.600 35 0.900 38.500 4.500 39.300 C 8.100 40.100 7.700 38.900 7.700 38.900 " transform="matrix(1, 0, 0, 1, 9, 8.5)"/>
        </g>
        <path id="Path" fill="#000000" stroke="#000000" stroke-width="1" stroke-linecap="round" d="M 61.900 12.200 C 61.700 17.200 60.900 21.800 55.300 23 C 39 26.700 28 16 9.700 19.300 C 5.800 17.700 4.200 14.100 5 9.200 L 7 10.400 C 9 6.800 11.700 4.600 16.800 4.900 L 16.600 7.700 C 19.500 3.400 24.800 1.200 31.700 0.300 L 28.900 4.400 C 31.900 2.500 35.300 2.100 38.900 2.600 C 37.700 3.500 37.100 4.500 37.300 5.400 C 43 7.200 48.800 6.400 52.100 3.400 C 52.500 4.800 51.500 6 49.900 7.300 C 56.700 4.800 59.900 7.900 62.500 2.700 L 61.900 12.200 Z " transform="matrix(1, 0, 0, 1, 9, 0.5)"/>
      </g>
    </g>
  </g>
</svg>