<svg width="24px" height="48px" viewBox="0 0 24 48" version="1.1" xml:space="preserve" xmlns="http://www.w3.org/2000/svg" xmlns:xlink="http://www.w3.org/1999/xlink">
  <!-- Generator: Sketch 49.3 (51167) - http://www.bohemiancoding.com/sketch -->
  <defs/>
  <g>
    <title>crystal-b</title>
    <desc>Created with Sketch.</desc>
    <g id="crystal-b" stroke="none" stroke-width="1" fill="none" fill-rule="evenodd">
      <g id="Purple-Crystal" transform="translate(2.000000, 0.000000)" fill-rule="nonzero">
        <g id="Group">
          <path d="M1.1,44.4 C1.1,44.4 0.1,14.7 1.3,10.6 C1.3,10.6 5.6,3.6 12.4,0.9 C12.4,0.9 17.2,7.7 19.2,13.7 C19.2,13.7 10,43.1 8.6,45.1 C8.6,45.1 5.5,46.8 3.5,47 C3.6,47.1 1.1,45.9 1.1,44.4 Z" id="Shape" fill="#8644B3"/>
          <path d="M1.4,10.7 C1.4,10.7 3.6,15.8 7,17.7 L12.4,1.1 C5.7,3.7 1.4,10.7 1.4,10.7 Z" id="Shape" fill="#EA8BE5"/>
          <path d="M1.4,10.7 C1.4,10.7 3.6,15.8 7,17.7 L12.4,1.1 C5.7,3.7 1.4,10.7 1.4,10.7 Z" id="Shape" fill="#EA8BE5"/>
          <path d="M19.2,13.8 C17.3,7.8 12.5,1 12.5,1 C12.5,1 12.4,1 12.4,1.1 L6.9,17.7 C6.9,17.7 12.7,16.5 19,14.6 C19.2,14 19.2,13.8 19.2,13.8 Z" id="Shape" fill="#AD59C2"/>
          <path d="M1.4,10.7 C0.2,14.8 1.2,44.5 1.2,44.5 C1.2,45.9 3.6,47.2 3.6,47.2 L7,17.8 L1.4,10.7 Z" id="Shape" fill="#AD59C2"/>
          <path d="M6.9,17.7 C6.9,17.7 6.8,19.3 6.6,21.7 C6.5,22.9 6.3,24.3 6.2,25.8 C6,27.3 5.9,28.9 5.7,30.4 C5.5,32 5.3,33.6 5.1,35 C4.9,36.5 4.7,37.9 4.6,39 C4.2,41.3 4,42.9 4,42.9 C4,42.9 4.1,41.3 4.3,38.9 C4.4,37.7 4.6,36.3 4.7,34.8 C4.9,33.3 5,31.7 5.2,30.2 C5.4,28.6 5.6,27 5.8,25.6 C6,24.1 6.2,22.7 6.3,21.6 C6.7,19.2 6.9,17.7 6.9,17.7 Z" id="Shape" fill="#EA8BE5"/>
          <path d="M1.1,44.4 C1.1,45.8 3.5,47.1 3.5,47.1 L3.9,43.8 C2.7,44.1 1.1,44.4 1.1,44.4 Z" id="Shape" fill="#A546BD"/>
          <path d="M5.2,43.6 C5,43.6 4.5,43.7 3.9,43.8 L3.5,47.1 C5.4,46.9 8.6,45.2 8.6,45.2 C8.6,45.2 6,43.5 5.2,43.6 Z" id="Shape" fill="#7C36AB"/>
          <path d="M3.6,47.1 C4.5,46.9 5.4,46.6 6.2,46.3 C7,46 7.8,45.6 8.5,45 L8.4,45.1 C9,43.1 9.7,41.1 10.4,39.1 C11.1,37.1 11.7,35.1 12.4,33.2 C13.8,29.2 15.2,25.3 16.7,21.4 C15.5,25.4 14.2,29.4 12.8,33.4 C12.1,35.4 11.4,37.4 10.8,39.3 C10.1,41.3 9.4,43.3 8.7,45.2 C7.9,45.7 7.1,46.1 6.2,46.4 C5.3,46.8 4.5,47 3.6,47.1 Z" id="Shape" fill="#6B348F"/>
          <path d="M6.9,17.7 L9.3,10.3 C5.9,10.3 1.3,10.7 1.3,10.7 C1.3,10.7 3.6,15.7 6.9,17.7 Z" id="Shape" fill="#E17DE3"/>
          <path d="M9.3,10.3 L6.9,17.7 C6.9,17.7 12.7,16.5 19,14.6 C19.1,14.1 19.2,13.9 19.2,13.9 C19.2,13.8 19.1,13.6 19.1,13.5 C16.9,12.4 13.6,10.9 12.7,10.6 C12.3,10.3 10.9,10.3 9.3,10.3 Z" id="Shape" fill="#9B4DAE"/>
          <path d="M19,14.5 C19,14.5 18.4,14.8 17.6,15.1 C16.7,15.4 15.6,15.8 14.4,16.2 C13.2,16.5 12,16.8 11.1,17 C10.2,17.2 9.6,17.2 9.6,17.2 C9.6,17.2 9.7,17.2 10,17.1 C10.3,17 10.6,16.9 11.1,16.8 C12,16.5 13.1,16.2 14.3,15.8 C15.5,15.5 16.7,15.1 17.6,14.9 C18.4,14.6 19,14.5 19,14.5 Z" id="Shape" fill="#6B348F"/>
        </g>
        <path d="M12.4,1.1 C12.4,1.1 12.2,1.9 11.9,3.1 C11.6,4.3 11.1,5.9 10.6,7.5 C10.1,9.1 9.5,10.7 9,11.9 C8.5,13.1 8.2,13.9 8.2,13.9 C8.2,13.9 8.4,13.1 8.7,11.9 C9,10.6 9.5,8.9 10,7.4 C10.5,5.8 11.1,4.2 11.6,3 C12,1.8 12.4,1.1 12.4,1.1 Z" id="Shape" fill="#FFBCFC"/>
      </g>
    </g>
  </g>
</svg>