<svg version="1.1" width="79" height="142" viewBox="-1 -1 79 142" xmlns="http://www.w3.org/2000/svg" xmlns:xlink="http://www.w3.org/1999/xlink">
  <!-- Exported by Scratch - http://scratch.mit.edu/ -->
  <g id="ID0.5002414719201624" transform="matrix(1, 0, 0, 1, -0.25, -0.25)">
    <g id="Page-1">
      <g id="bat-b-[fantasy,spooky,halloween,bat,animals,alex-eben-meyer]">
        <g id="Group">
          <path id="Path" fill="#C8C8BE" stroke="none" stroke-width="1" d="M 16.320 16.320 C 16.320 16.320 9.900 15.780 6.180 35.100 C 2.460 54.420 4.560 74.460 4.560 74.460 C 5.040 76.680 9.180 90.180 10.740 91.920 C 11.280 87.660 12.240 82.200 14.880 78.720 C 13.680 74.820 13.740 66.840 21 64.560 C 22.980 63.960 28.260 64.140 28.260 64.140 L 34.380 65.880 L 28.140 40.140 C 28.140 40.140 18.120 23.280 16.320 16.320 Z " transform="matrix(1, 0, 0, 1, 0.75, 45.25)"/>
          <path id="Path" fill="#F0E6D2" stroke="none" stroke-width="1" d="M 35.400 68.940 C 35.400 68.940 9.600 54.840 6.660 41.460 L 9.660 33.360 C 9.660 33.360 13.800 48.780 20.220 55.860 C 23.700 59.640 34.620 67.260 34.620 67.260 L 35.400 68.940 Z " transform="matrix(1, 0, 0, 1, 0.75, 45.25)"/>
          <path id="Path" fill="#F0E6D2" stroke="none" stroke-width="1" d="M 14.880 78.720 C 14.880 78.720 5.460 66.540 4.500 56.880 L 5.280 67.200 C 7.320 71.940 10.680 75.900 14.880 78.720 Z " transform="matrix(1, 0, 0, 1, 0.75, 45.25)"/>
          <path id="Path" fill="#828278" stroke="none" stroke-width="1" d="M 7.980 16.080 C 6.420 19.140 5.100 22.320 4.080 25.620 C 1.860 33.420 0.660 41.400 0.360 49.440 C -1.020 77.580 6.060 93.120 8.640 95.640 L 8.760 95.520 C 8.580 94.980 7.020 91.740 7.500 91.260 C 7.980 90.780 9.840 94.620 10.260 94.320 C 10.680 94.020 8.340 90.720 8.880 90.240 C 9.420 89.760 10.440 92.100 10.740 91.920 C 6.720 80.100 6.060 68.160 7.680 55.800 C 8.520 49.440 8.940 43.380 10.740 37.200 C 11.520 34.500 12.240 31.860 13.260 29.220 C 13.920 27.540 15.180 25.500 15.240 23.700 L 18.780 0.420 C 18.540 0.660 12.960 5.880 7.980 16.080 Z " transform="matrix(1, 0, 0, 1, 0.75, 45.25)"/>
        </g>
        <g id="Group">
          <path id="Path" fill="#C8C8BE" stroke="none" stroke-width="1" d="M 32.760 37.380 C 32.940 36 19.980 15.060 19.980 15.060 L 8.400 49.080 L 0.780 70.560 C 0.780 70.560 11.460 64.680 16.680 67.620 C 21.900 70.560 19.440 77.460 19.440 77.460 C 21.600 78.480 23.460 80.040 24.780 82.080 C 26.100 84.060 26.820 88.020 27.600 89.700 C 29.520 87 32.640 83.760 33.180 80.460 C 33.900 76.140 33.180 71.100 33.120 66.720 C 33.060 60.480 32.940 54.240 32.820 47.940 C 32.760 44.460 32.340 40.800 32.760 37.380 Z " transform="matrix(1, 0, 0, 1, 39.75, 43.45)"/>
          <path id="Path" fill="#F0E6D2" stroke="none" stroke-width="1" d="M 0.540 70.920 C 0.540 70.920 29.700 54 27.900 28.380 L 32.040 41.520 C 26.940 51.060 19.680 59.340 10.860 65.580 C 7.740 67.800 4.320 69.180 0.540 70.920 Z " transform="matrix(1, 0, 0, 1, 39.75, 43.45)"/>
          <path id="Path" fill="#F0E6D2" stroke="none" stroke-width="1" d="M 19.440 77.400 C 19.440 77.400 35.640 59.040 32.580 44.880 L 34.200 49.020 C 34.200 49.020 37.320 63.360 19.440 77.400 Z " transform="matrix(1, 0, 0, 1, 39.75, 43.45)"/>
          <path id="Path" fill="#828278" stroke="none" stroke-width="1" d="M 35.940 35.160 C 34.440 29.220 32.100 23.460 29.100 18.120 C 26.580 13.860 23.580 9.900 20.220 6.300 C 19.200 5.160 15.480 0.180 13.980 0.239 L 18.660 19.020 C 18.660 19.020 23.040 26.700 24.240 29.460 C 26.760 35.220 28.620 41.280 29.760 47.520 C 31.140 54.840 31.440 62.400 30.660 69.840 C 30.300 73.440 29.700 77.040 29.160 80.640 C 28.620 84.120 27.240 87.540 27.120 91.020 C 27.420 91.200 28.380 89.400 28.560 89.520 C 28.860 90.240 27.780 92.880 28.020 93.600 C 28.620 93.300 29.400 91.320 30.240 91.560 C 31.020 92.220 29.100 94.200 29.100 94.920 C 31.500 93.960 33.420 88.200 34.380 86.040 C 35.700 82.980 37.020 79.860 37.440 76.500 C 40.380 53.460 37.620 41.460 35.940 35.160 Z " transform="matrix(1, 0, 0, 1, 39.75, 43.45)"/>
        </g>
        <path id="Path" fill="#3C3C32" stroke="none" stroke-width="1" d="M 32.460 93.780 L 19.920 87.180 C 20.640 91.920 25.620 104.580 29.820 109.260 C 31.140 110.700 35.220 114 35.220 114 C 35.220 114 35.220 115.980 35.160 118.140 L 36.120 118.140 C 36.060 113.880 36.420 108.720 36.420 108.720 C 36.420 108.720 33 95.580 32.460 93.780 Z " transform="matrix(1, 0, 0, 1, 0.75, 0.25)"/>
        <path id="Path" fill="#3C3C32" stroke="none" stroke-width="1" d="M 41.940 93.300 C 41.940 93.480 38.580 108.900 38.580 108.900 C 38.580 108.900 38.460 116.400 38.400 118.080 L 39.480 118.080 C 39.480 116.940 39.540 115.260 39.540 114.120 C 40.560 113.820 44.460 111.420 47.340 106.920 C 49.980 102.900 53.580 92.880 53.820 89.100 L 41.940 93.300 Z " transform="matrix(1, 0, 0, 1, 0.75, 0.25)"/>
        <g id="Group">
          <g id="Path">
            <path id="ID0.9009404038079083" fill="#64645A" stroke="none" stroke-width="1" d="M 2.220 3.720 L 1.800 3.480 C 1.800 3.240 1.800 3.060 1.800 2.880 C 1.800 2.340 1.740 1.740 1.740 1.200 C 1.680 0.900 1.740 0.660 1.920 0.420 C 2.220 0.480 2.340 0.540 2.340 0.780 C 2.340 1.260 2.400 1.680 2.400 2.160 C 2.400 2.640 2.400 2.880 2.400 3.240 C 2.340 3.420 2.280 3.540 2.220 3.720 Z " transform="matrix(1, 0, 0, 1, 24.15, 0.25)"/>
            <path id="ID0.18977740360423923" fill="#64645A" stroke="none" stroke-width="1" d="M 1.380 4.320 L 0.900 4.200 C 0.840 4.020 0.840 3.780 0.780 3.600 C 0.660 3.060 0.480 2.520 0.300 1.980 C 0.180 1.560 0.180 1.560 0.300 1.200 C 0.660 1.200 0.720 1.260 0.780 1.500 C 0.900 1.920 1.020 2.400 1.140 2.820 C 1.260 3.240 1.320 3.540 1.380 3.900 C 1.380 4.020 1.380 4.200 1.380 4.320 Z " transform="matrix(1, 0, 0, 1, 24.15, 0.25)"/>
            <path id="ID0.24484720826148987" fill="#64645A" stroke="none" stroke-width="1" d="M 2.700 4.080 L 3.180 3.960 C 3.240 3.780 3.240 3.540 3.300 3.360 C 3.420 2.820 3.600 2.280 3.780 1.740 C 3.900 1.500 3.900 1.200 3.780 0.960 C 3.420 0.960 3.360 1.020 3.300 1.260 C 3.180 1.680 3.060 2.160 2.940 2.580 C 2.820 3 2.760 3.300 2.700 3.660 C 2.640 3.780 2.640 3.900 2.700 4.080 Z " transform="matrix(1, 0, 0, 1, 24.15, 0.25)"/>
          </g>
          <path id="Path" fill="#64645A" stroke="none" stroke-width="1" d="M 2.400 60.600 C 2.400 60.600 0.180 45.060 0.300 37.320 C 0.420 30.960 1.380 24.720 2.520 18.480 C 3.240 14.460 5.160 3.540 10.200 2.580 C 16.020 5.100 16.740 21.360 16.980 26.460 C 17.340 33.120 17.700 50.100 17.220 56.700 C 14.160 58.020 2.400 60.600 2.400 60.600 Z " transform="matrix(1, 0, 0, 1, 16.35, 0.25)"/>
          <path id="Path" fill="#3C3C32" stroke="none" stroke-width="1" d="M 4.440 50.280 C 4.440 50.280 3.840 35.160 5.100 23.340 C 6 15.180 8.040 9.720 9.300 9.540 C 12.420 9.060 13.320 22.200 13.500 25.500 C 13.740 29.820 13.800 43.680 13.500 47.940 C 11.520 48.840 4.440 50.280 4.440 50.280 Z " transform="matrix(1, 0, 0, 1, 16.35, 0.25)"/>
        </g>
        <g id="Group">
          <g id="Path">
            <path id="ID0.16098821721971035" fill="#64645A" stroke="none" stroke-width="1" d="M 2.580 3.600 L 2.160 3.360 C 2.160 3.120 2.160 2.940 2.160 2.760 C 2.160 2.220 2.100 1.620 2.100 1.080 C 2.040 0.780 2.100 0.540 2.280 0.300 C 2.580 0.360 2.700 0.420 2.700 0.660 C 2.700 1.140 2.760 1.560 2.760 2.040 C 2.760 2.400 2.760 2.760 2.760 3.120 C 2.700 3.300 2.640 3.480 2.580 3.600 Z " transform="matrix(1, 0, 0, 1, 45.15, 0.25)"/>
            <path id="ID0.7715142779052258" fill="#64645A" stroke="none" stroke-width="1" d="M 1.740 4.260 L 1.260 4.140 C 1.200 3.900 1.200 3.720 1.140 3.540 C 1.020 3 0.840 2.460 0.660 1.920 C 0.540 1.500 0.540 1.500 0.660 1.140 C 1.020 1.140 1.080 1.200 1.140 1.380 C 1.260 1.800 1.380 2.280 1.500 2.700 C 1.620 3.120 1.680 3.420 1.740 3.780 C 1.740 3.960 1.740 4.080 1.740 4.260 Z " transform="matrix(1, 0, 0, 1, 45.15, 0.25)"/>
            <path id="ID0.2585688652470708" fill="#64645A" stroke="none" stroke-width="1" d="M 3.060 4.020 L 3.540 3.900 C 3.600 3.720 3.600 3.480 3.660 3.300 C 3.780 2.760 3.960 2.220 4.140 1.680 C 4.260 1.440 4.260 1.140 4.140 0.900 C 3.780 0.900 3.720 0.960 3.660 1.200 C 3.540 1.620 3.420 2.100 3.300 2.520 C 3.180 2.940 3.120 3.240 3.060 3.600 C 3 3.720 3.060 3.840 3.060 4.020 Z " transform="matrix(1, 0, 0, 1, 45.15, 0.25)"/>
          </g>
          <path id="Path" fill="#64645A" stroke="none" stroke-width="1" d="M 19.140 67.980 C 16.440 64.200 2.640 55.320 1.800 54.360 C 0.360 48.180 -1.560 2.640 6.720 2.580 C 13.800 2.520 14.760 15.900 15.780 20.520 C 17.220 27.240 19.380 59.820 19.140 67.980 Z " transform="matrix(1, 0, 0, 1, 40.35, 0.25)"/>
          <path id="Path" fill="#3C3C32" stroke="none" stroke-width="1" d="M 14.520 58.200 C 14.340 45.960 13.920 30.780 13.380 26.580 C 12.840 22.080 10.380 5.820 7.140 9.240 C 3.900 12.660 5.580 46.620 5.760 57.900 L 14.520 58.200 Z " transform="matrix(1, 0, 0, 1, 40.35, 0.25)"/>
        </g>
        <path id="Path" fill="#64645A" stroke="none" stroke-width="1" d="M 60.120 58.200 C 59.640 52.920 57.300 47.040 53.400 43.320 C 48.600 38.820 42.180 36.360 35.580 36.600 C 25.680 36.840 22.320 38.880 17.280 46.140 C 12.660 52.860 14.160 64.140 14.640 71.880 C 15.120 80.100 19.260 91.140 26.280 95.940 C 33.600 100.980 44.280 101.760 51 95.400 C 57.120 89.580 61.200 70.140 60.120 58.200 Z " transform="matrix(1, 0, 0, 1, 0.75, 0.25)"/>
        <g id="Group">
          <path id="Path" fill="#000000" stroke="none" stroke-width="1" d="M 9 15.540 C 9.060 15.300 9 15.060 9.960 15 C 12.900 14.700 18.900 14.880 21 14.820 C 23.100 14.760 25.440 15.120 25.440 15.720 C 25.440 16.320 24.720 16.740 23.460 16.740 C 21.180 16.800 18.900 16.800 16.680 16.740 C 14.820 16.740 13.020 16.680 11.220 16.560 C 10.560 16.500 8.760 16.500 9 15.540 Z " transform="matrix(1, 0, 0, 1, 20.55, 48.85)"/>
          <path id="Path" fill="#FFFFFF" stroke="none" stroke-width="1" d="M 19.140 14.760 C 19.500 15.540 20.640 17.940 21.060 17.940 C 21.420 17.940 22.620 15.600 22.980 14.820 C 22.980 14.820 22.440 14.760 21.360 14.760 C 21.060 14.760 19.140 14.760 19.140 14.760 Z " transform="matrix(1, 0, 0, 1, 20.55, 48.85)"/>
          <path id="Path" fill="#F01446" stroke="none" stroke-width="1" d="M 25.260 3.420 C 24.120 0.360 22.200 0.480 19.260 0.120 C 16.380 0.240 12.480 -0.120 10.020 1.800 C 7.560 3.720 7.020 7.800 9.420 9.780 C 12.240 12.120 21.120 13.020 24.420 9.540 C 25.680 8.280 26.100 5.640 25.260 3.420 Z " transform="matrix(1, 0, 0, 1, 20.55, 48.85)"/>
          <path id="Path" fill="#6E1E3C" stroke="none" stroke-width="1" d="M 22.140 3.060 C 23.700 2.940 23.760 5.040 23.700 6 C 23.640 6.960 23.580 8.580 22.200 8.460 C 20.820 8.340 20.580 6.840 20.640 6 C 20.700 5.160 20.520 3.120 22.140 3.060 Z " transform="matrix(1, 0, 0, 1, 20.55, 48.85)"/>
          <path id="Path" fill="#6E1E3C" stroke="none" stroke-width="1" d="M 11.520 3.060 C 13.080 2.940 13.200 5.040 13.080 6 C 12.960 6.960 12.960 8.580 11.580 8.460 C 10.200 8.340 9.960 6.840 10.020 6 C 10.080 5.160 9.960 3.120 11.520 3.060 Z " transform="matrix(1, 0, 0, 1, 20.55, 48.85)"/>
          <path id="Path" fill="#000000" stroke="none" stroke-width="1" d="M 1.140 6.480 C 0.780 6.480 0.540 6.240 0.480 5.880 C 0.360 5.340 0.360 4.800 0.360 4.260 C 0.420 3.720 0.840 3.540 1.320 3.360 C 1.680 3.900 1.740 4.620 1.560 5.220 C 1.560 5.700 1.560 6.180 1.140 6.480 Z " transform="matrix(1, 0, 0, 1, 20.55, 48.85)"/>
          <path id="Path" fill="#000000" stroke="none" stroke-width="1" d="M 33.060 6.660 C 32.220 6.300 32.340 5.640 32.400 4.920 C 32.400 4.140 32.520 4.080 33.240 3.780 C 34.020 4.500 34.080 5.640 33.360 6.420 C 33.240 6.480 33.180 6.540 33.060 6.660 Z " transform="matrix(1, 0, 0, 1, 20.55, 48.85)"/>
          <path id="Path" fill="#FFFFFF" stroke="none" stroke-width="1" d="M 11.760 14.820 C 12.240 15.840 13.080 17.340 13.380 17.340 C 13.680 17.340 14.580 15.720 15.120 14.760 C 15.120 14.760 13.800 14.760 13.800 14.760 C 13.740 14.760 11.820 14.820 11.760 14.820 Z " transform="matrix(1, 0, 0, 1, 20.55, 48.85)"/>
        </g>
      </g>
    </g>
  </g>
</svg>