<svg version="1.1" width="118" height="171" viewBox="-1 -1 118 171" xmlns="http://www.w3.org/2000/svg" xmlns:xlink="http://www.w3.org/1999/xlink">
  <defs>
    <linearGradient id="grad_1" x1="192.1665" y1="337.4843" x2="195.014" y2="228.1382" gradientUnits="userSpaceOnUse">
      <stop offset="0" stop-color="#81D3F1"/>
      <stop offset="0.3076" stop-color="#7FD0EF"/>
      <stop offset="0.495" stop-color="#78C7E8"/>
      <stop offset="0.6502" stop-color="#6DBBDF"/>
      <stop offset="0.787" stop-color="#5DABD3"/>
      <stop offset="0.91" stop-color="#4998C4"/>
      <stop offset="1" stop-color="#4A99C5"/>
      <stop offset="1" stop-color="#000000"/>
    </linearGradient>
    <linearGradient id="grad_2" x1="203.2454" y1="337.7728" x2="206.0929" y2="228.4268" gradientUnits="userSpaceOnUse">
      <stop offset="0" stop-color="#81D3F1"/>
      <stop offset="0.3076" stop-color="#7FD0EF"/>
      <stop offset="0.495" stop-color="#78C7E8"/>
      <stop offset="0.6502" stop-color="#6DBBDF"/>
      <stop offset="0.787" stop-color="#5DABD3"/>
      <stop offset="0.91" stop-color="#4998C4"/>
      <stop offset="1" stop-color="#4A99C5"/>
      <stop offset="1" stop-color="#000000"/>
    </linearGradient>
    <linearGradient id="grad_3" x1="214.2575" y1="338.0596" x2="217.105" y2="228.7135" gradientUnits="userSpaceOnUse">
      <stop offset="0" stop-color="#81D3F1"/>
      <stop offset="0.3076" stop-color="#7FD0EF"/>
      <stop offset="0.495" stop-color="#78C7E8"/>
      <stop offset="0.6502" stop-color="#6DBBDF"/>
      <stop offset="0.787" stop-color="#5DABD3"/>
      <stop offset="0.91" stop-color="#4998C4"/>
      <stop offset="1" stop-color="#4A99C5"/>
      <stop offset="1" stop-color="#000000"/>
    </linearGradient>
    <linearGradient id="grad_4" x1="225.2696" y1="338.3463" x2="228.1172" y2="229.0003" gradientUnits="userSpaceOnUse">
      <stop offset="0" stop-color="#81D3F1"/>
      <stop offset="0.3076" stop-color="#7FD0EF"/>
      <stop offset="0.495" stop-color="#78C7E8"/>
      <stop offset="0.6502" stop-color="#6DBBDF"/>
      <stop offset="0.787" stop-color="#5DABD3"/>
      <stop offset="0.91" stop-color="#4998C4"/>
      <stop offset="1" stop-color="#4A99C5"/>
      <stop offset="1" stop-color="#000000"/>
    </linearGradient>
    <linearGradient id="grad_5" x1="236.2817" y1="338.6331" x2="239.1293" y2="229.2871" gradientUnits="userSpaceOnUse">
      <stop offset="0" stop-color="#81D3F1"/>
      <stop offset="0.3076" stop-color="#7FD0EF"/>
      <stop offset="0.495" stop-color="#78C7E8"/>
      <stop offset="0.6502" stop-color="#6DBBDF"/>
      <stop offset="0.787" stop-color="#5DABD3"/>
      <stop offset="0.91" stop-color="#4998C4"/>
      <stop offset="1" stop-color="#4A99C5"/>
      <stop offset="1" stop-color="#000000"/>
    </linearGradient>
    <linearGradient id="grad_6" x1="247.2938" y1="338.9199" x2="250.1414" y2="229.5739" gradientUnits="userSpaceOnUse">
      <stop offset="0" stop-color="#81D3F1"/>
      <stop offset="0.3076" stop-color="#7FD0EF"/>
      <stop offset="0.495" stop-color="#78C7E8"/>
      <stop offset="0.6502" stop-color="#6DBBDF"/>
      <stop offset="0.787" stop-color="#5DABD3"/>
      <stop offset="0.91" stop-color="#4998C4"/>
      <stop offset="1" stop-color="#4A99C5"/>
      <stop offset="1" stop-color="#000000"/>
    </linearGradient>
    <linearGradient id="grad_7" x1="258.328" y1="339.2072" x2="261.1755" y2="229.8612" gradientUnits="userSpaceOnUse">
      <stop offset="0" stop-color="#81D3F1"/>
      <stop offset="0.3076" stop-color="#7FD0EF"/>
      <stop offset="0.495" stop-color="#78C7E8"/>
      <stop offset="0.6502" stop-color="#6DBBDF"/>
      <stop offset="0.787" stop-color="#5DABD3"/>
      <stop offset="0.91" stop-color="#4998C4"/>
      <stop offset="1" stop-color="#4A99C5"/>
      <stop offset="1" stop-color="#000000"/>
    </linearGradient>
  </defs>
  <!-- Exported by Scratch - http://scratch.mit.edu/ -->
  <path id="ID0.8545032935217023" fill="#C3E8F3" d="M 270.100 190.700 L 220.600 194.700 L 212.100 228.900 L 191.600 228.900 L 182.400 247.300 L 181.900 360 L 270.100 360 L 270.100 190.700 Z M 222.300 204.800 L 230.200 204.200 L 230.300 204.300 L 266.600 201.700 L 266.600 206.500 L 266.600 240.200 L 222.800 241.600 L 222.300 204.800 L 222.300 204.800 L 222.300 204.800 Z M 188.400 252.200 L 196.500 252.200 L 196.500 308.400 L 196.500 332.800 L 188.400 332.800 L 188.400 316.300 L 188.400 252.200 Z M 201.800 332.800 L 199.700 332.800 L 199.700 305.300 L 199.700 252.200 L 207.800 252.200 L 207.800 297.400 L 207.800 326.800 L 207.800 332.700 L 201.800 332.700 Z M 211.100 332.800 L 211.100 323.800 L 211.100 294.400 L 211.100 252.300 L 219.200 252.300 L 219.200 286.600 L 219.200 316 L 219.200 333 L 211.100 333 Z M 222.400 332.800 L 222.400 312.700 L 222.400 283.400 L 222.400 252.200 L 230.500 252.200 L 230.500 275.500 L 230.500 304.800 L 230.500 332.800 L 222.400 332.800 Z M 233.700 332.800 L 233.700 301.700 L 233.700 272.500 L 233.700 252.300 L 241.800 252.300 L 241.800 264.600 L 241.800 293.800 L 241.800 332.800 L 233.700 332.800 Z M 245 332.800 L 245 290.700 L 245 261.500 L 245 252.200 L 253.100 252.200 L 253.100 253.600 L 253.100 282.700 L 253.100 332.800 L 245 332.800 Z M 256.300 279.600 L 256.300 252.200 L 264.400 252.200 L 264.400 271.600 L 264.400 332.700 L 256.300 332.700 L 256.300 279.600 Z " transform="matrix(1, 0, 0, 1, -181, -190)"/>
  <path id="ID0.975953864865005" fill="#C3E8F3" d="M 196.600 252.200 L 188.400 252.200 L 188.400 316.200 L 196.600 308.400 L 196.600 252.200 " transform="matrix(1, 0, 0, 1, -181, -190)"/>
  <path id="ID0.8673065602779388" fill="#5DABD3" d="M 196.600 252.200 L 188.400 252.200 L 188.400 316.200 L 196.600 308.400 L 196.600 252.200 " transform="matrix(1, 0, 0, 1, -181, -190)"/>
  <path id="ID0.8760471809655428" fill="#C3E8F3" d="M 207.900 252.200 L 199.700 252.200 L 199.700 305.300 L 207.900 297.400 L 207.900 252.200 " transform="matrix(1, 0, 0, 1, -181, -190)"/>
  <path id="ID0.7196954139508307" fill="#5DABD3" d="M 207.900 252.200 L 199.700 252.200 L 199.700 305.300 L 207.900 297.400 L 207.900 252.200 " transform="matrix(1, 0, 0, 1, -181, -190)"/>
  <path id="ID0.05960062285885215" fill="#C3E8F3" d="M 201.800 332.800 L 207.900 332.800 L 207.900 326.900 L 201.800 332.800 " transform="matrix(1, 0, 0, 1, -181, -190)"/>
  <path id="ID0.7375213345512748" fill="#70BFE2" d="M 201.800 332.800 L 207.900 332.800 L 207.900 326.900 L 201.800 332.800 " transform="matrix(1, 0, 0, 1, -181, -190)"/>
  <path id="ID0.9089473183266819" fill="#C3E8F3" d="M 219.200 252.200 L 211.100 252.200 L 211.100 294.300 L 219.200 286.500 L 219.200 252.200 " transform="matrix(1, 0, 0, 1, -181, -190)"/>
  <path id="ID0.07450101105496287" fill="#5DABD3" d="M 219.200 252.200 L 211.100 252.200 L 211.100 294.300 L 219.200 286.500 L 219.200 252.200 " transform="matrix(1, 0, 0, 1, -181, -190)"/>
  <path id="ID0.5845435252413154" fill="#C3E8F3" d="M 211.100 323.700 L 211.100 332.800 L 219.200 332.800 L 219.200 315.800 L 211.100 323.700 " transform="matrix(1, 0, 0, 1, -181, -190)"/>
  <path id="ID0.34498749719932675" fill="#70BFE2" d="M 211.100 323.700 L 211.100 332.800 L 219.200 332.800 L 219.200 315.800 L 211.100 323.700 " transform="matrix(1, 0, 0, 1, -181, -190)"/>
  <path id="ID0.5947716715745628" fill="#C3E8F3" d="M 222.400 312.700 L 222.400 332.800 L 230.500 332.800 L 230.500 304.800 L 222.400 312.700 " transform="matrix(1, 0, 0, 1, -181, -190)"/>
  <path id="ID0.5732809505425394" fill="#70BFE2" d="M 222.400 312.700 L 222.400 332.800 L 230.500 332.800 L 230.500 304.800 L 222.400 312.700 " transform="matrix(1, 0, 0, 1, -181, -190)"/>
  <path id="ID0.6384242596104741" fill="#C3E8F3" d="M 230.500 252.200 L 222.400 252.200 L 222.400 283.400 L 230.500 275.500 L 230.500 252.200 " transform="matrix(1, 0, 0, 1, -181, -190)"/>
  <path id="ID0.6162898438051343" fill="#5DABD3" d="M 230.500 252.200 L 222.400 252.200 L 222.400 283.400 L 230.500 275.500 L 230.500 252.200 " transform="matrix(1, 0, 0, 1, -181, -190)"/>
  <path id="ID0.5884986985474825" fill="#C3E8F3" d="M 241.800 252.200 L 233.700 252.200 L 233.700 272.400 L 241.800 264.600 L 241.800 252.200 " transform="matrix(1, 0, 0, 1, -181, -190)"/>
  <path id="ID0.6047590277157724" fill="#5DABD3" d="M 241.800 252.200 L 233.700 252.200 L 233.700 272.400 L 241.800 264.600 L 241.800 252.200 " transform="matrix(1, 0, 0, 1, -181, -190)"/>
  <path id="ID0.3613296621479094" fill="#C3E8F3" d="M 233.700 301.700 L 233.700 332.800 L 241.800 332.800 L 241.800 293.700 L 233.700 301.700 " transform="matrix(1, 0, 0, 1, -181, -190)"/>
  <path id="ID0.39592458168044686" fill="#70BFE2" d="M 233.700 301.700 L 233.700 332.800 L 241.800 332.800 L 241.800 293.700 L 233.700 301.700 " transform="matrix(1, 0, 0, 1, -181, -190)"/>
  <path id="ID0.6458407514728606" fill="#C3E8F3" d="M 253.100 252.200 L 245 252.200 L 245 261.500 L 253.100 253.600 L 253.100 252.200 " transform="matrix(1, 0, 0, 1, -181, -190)"/>
  <path id="ID0.8484288924373686" fill="#5DABD3" d="M 253.100 252.200 L 245 252.200 L 245 261.500 L 253.100 253.600 L 253.100 252.200 " transform="matrix(1, 0, 0, 1, -181, -190)"/>
  <path id="ID0.7328262785449624" fill="#C3E8F3" d="M 245 290.600 L 245 332.800 L 253.100 332.800 L 253.100 282.700 L 245 290.600 " transform="matrix(1, 0, 0, 1, -181, -190)"/>
  <path id="ID0.5436356589198112" fill="#70BFE2" d="M 245 290.600 L 245 332.800 L 253.100 332.800 L 253.100 282.700 L 245 290.600 " transform="matrix(1, 0, 0, 1, -181, -190)"/>
  <path id="ID0.25805519660934806" fill="#C3E8F3" d="M 264.400 271.600 L 256.300 279.600 L 256.300 332.800 L 264.400 332.800 L 264.400 271.600 " transform="matrix(1, 0, 0, 1, -181, -190)"/>
  <path id="ID0.7574803261086345" fill="#70BFE2" d="M 264.400 271.600 L 256.300 279.600 L 256.300 332.800 L 264.400 332.800 L 264.400 271.600 " transform="matrix(1, 0, 0, 1, -181, -190)"/>
  <path id="ID0.8348133186809719" fill="#40B4E5" d="M 270.100 360 L 298.100 360 L 296.900 197.100 L 270.100 190.700 L 270.100 360 " transform="matrix(1, 0, 0, 1, -181, -190)"/>
  <path id="ID0.07479591574519873" fill="#C3E8F3" d="M 247.400 231.900 L 258.900 202.400 L 266.500 201.700 L 230.200 204.300 L 241.500 232.100 L 247.400 231.900 Z M 252 202.700 L 243.700 221.100 L 235.800 204 L 252 202.700 Z " transform="matrix(1, 0, 0, 1, -181, -190)"/>
  <path id="ID0.4458111459389329" fill="#5DABD3" d="M 247.400 231.900 L 258.900 202.400 L 266.500 201.700 L 230.200 204.300 L 241.500 232.100 L 247.400 231.900 Z M 252 202.700 L 243.700 221.100 L 235.800 204 L 252 202.700 Z " transform="matrix(1, 0, 0, 1, -181, -190)"/>
  <path id="ID0.7393439514562488" fill="#C3E8F3" d="M 222.700 241.600 L 266.500 240.200 L 266.500 206.500 L 251.500 240.600 L 237.200 240.900 L 222.300 204.900 L 222.200 204.900 L 222.700 241.600 " transform="matrix(1, 0, 0, 1, -181, -190)"/>
  <path id="ID0.08146621007472277" fill="#7DCEED" d="M 222.700 241.600 L 266.500 240.200 L 266.500 206.500 L 251.500 240.600 L 237.200 240.900 L 222.300 204.900 L 222.200 204.900 L 222.700 241.600 " transform="matrix(1, 0, 0, 1, -181, -190)"/>
  <path id="ID0.7938482165336609" fill="#9BDBF1" d="M 251.500 240.600 L 266.500 206.500 L 266.500 201.700 L 258.900 202.400 L 247.400 231.900 L 241.400 232.100 L 230.200 204.300 L 230.100 204.200 L 222.300 204.800 L 222.300 204.900 L 237.200 240.900 L 251.500 240.600 " transform="matrix(1, 0, 0, 1, -181, -190)"/>
  <path id="ID0.8088220404461026" fill="#9BDBF1" d="M 252 202.700 L 235.800 204 L 243.700 221.100 L 252 202.700 " transform="matrix(1, 0, 0, 1, -181, -190)"/>
  <path id="ID0.31497198436409235" fill="#C3E8F3" d="M 196.600 332.800 L 196.600 308.400 L 188.400 316.200 L 188.400 332.800 L 196.600 332.800 " transform="matrix(1, 0, 0, 1, -181, -190)"/>
  <path id="ID0.04896959289908409" fill="url(#grad_1)" d="M 196.600 332.800 L 196.600 308.400 L 188.400 316.200 L 188.400 332.800 L 196.600 332.800 " transform="matrix(1, 0, 0, 1, -181, -190)"/>
  <path id="ID0.38707465259358287" fill="#D9F0F6" opacity="0.56" d="M 196.600 332.800 L 196.600 308.400 L 188.400 316.200 L 188.400 332.800 L 196.600 332.800 " transform="matrix(1, 0, 0, 1, -181, -190)"/>
  <path id="ID0.23735713539645076" fill="#C3E8F3" d="M 207.900 297.400 L 199.700 305.300 L 199.700 332.800 L 201.800 332.800 L 207.900 326.900 L 207.900 297.400 " transform="matrix(1, 0, 0, 1, -181, -190)"/>
  <path id="ID0.6971203424036503" fill="url(#grad_2)" d="M 207.900 297.400 L 199.700 305.300 L 199.700 332.800 L 201.800 332.800 L 207.900 326.900 L 207.900 297.400 " transform="matrix(1, 0, 0, 1, -181, -190)"/>
  <path id="ID0.5022018379531801" fill="#D9F0F6" opacity="0.56" d="M 207.900 297.400 L 199.700 305.300 L 199.700 332.800 L 201.800 332.800 L 207.900 326.900 L 207.900 297.400 " transform="matrix(1, 0, 0, 1, -181, -190)"/>
  <path id="ID0.7823559269309044" fill="#C3E8F3" d="M 219.200 286.500 L 211.100 294.300 L 211.100 323.700 L 219.200 315.800 L 219.200 286.500 " transform="matrix(1, 0, 0, 1, -181, -190)"/>
  <path id="ID0.16822492377832532" fill="url(#grad_3)" d="M 219.200 286.500 L 211.100 294.300 L 211.100 323.700 L 219.200 315.800 L 219.200 286.500 " transform="matrix(1, 0, 0, 1, -181, -190)"/>
  <path id="ID0.96534986468032" fill="#D9F0F6" opacity="0.56" d="M 219.200 286.500 L 211.100 294.300 L 211.100 323.700 L 219.200 315.800 L 219.200 286.500 " transform="matrix(1, 0, 0, 1, -181, -190)"/>
  <path id="ID0.9581986172124743" fill="#C3E8F3" d="M 230.500 275.500 L 222.400 283.400 L 222.400 312.700 L 230.500 304.800 L 230.500 275.500 " transform="matrix(1, 0, 0, 1, -181, -190)"/>
  <path id="ID0.17190683726221323" fill="url(#grad_4)" d="M 230.500 275.500 L 222.400 283.400 L 222.400 312.700 L 230.500 304.800 L 230.500 275.500 " transform="matrix(1, 0, 0, 1, -181, -190)"/>
  <path id="ID0.9630941208451986" fill="#D9F0F6" opacity="0.56" d="M 230.500 275.500 L 222.400 283.400 L 222.400 312.700 L 230.500 304.800 L 230.500 275.500 " transform="matrix(1, 0, 0, 1, -181, -190)"/>
  <path id="ID0.9489440503530204" fill="#C3E8F3" d="M 241.800 264.600 L 233.700 272.400 L 233.700 301.700 L 241.800 293.700 L 241.800 264.600 " transform="matrix(1, 0, 0, 1, -181, -190)"/>
  <path id="ID0.24033186165615916" fill="url(#grad_5)" d="M 241.800 264.600 L 233.700 272.400 L 233.700 301.700 L 241.800 293.700 L 241.800 264.600 " transform="matrix(1, 0, 0, 1, -181, -190)"/>
  <path id="ID0.8563483008183539" fill="#D9F0F6" opacity="0.56" d="M 241.800 264.600 L 233.700 272.400 L 233.700 301.700 L 241.800 293.700 L 241.800 264.600 " transform="matrix(1, 0, 0, 1, -181, -190)"/>
  <path id="ID0.46940037654712796" fill="#C3E8F3" d="M 253.100 253.600 L 245 261.500 L 245 290.600 L 253.100 282.700 L 253.100 253.600 " transform="matrix(1, 0, 0, 1, -181, -190)"/>
  <path id="ID0.1012669880874455" fill="url(#grad_6)" d="M 253.100 253.600 L 245 261.500 L 245 290.600 L 253.100 282.700 L 253.100 253.600 " transform="matrix(1, 0, 0, 1, -181, -190)"/>
  <path id="ID0.5606321641243994" fill="#D9F0F6" opacity="0.56" d="M 253.100 253.600 L 245 261.500 L 245 290.600 L 253.100 282.700 L 253.100 253.600 " transform="matrix(1, 0, 0, 1, -181, -190)"/>
  <path id="ID0.07834019418805838" fill="#C3E8F3" d="M 264.400 252.200 L 256.300 252.200 L 256.300 279.600 L 264.400 271.600 L 264.400 252.200 " transform="matrix(1, 0, 0, 1, -181, -190)"/>
  <path id="ID0.6999503024853766" fill="url(#grad_7)" d="M 264.400 252.200 L 256.300 252.200 L 256.300 279.600 L 264.400 271.600 L 264.400 252.200 " transform="matrix(1, 0, 0, 1, -181, -190)"/>
  <path id="ID0.3238086733035743" fill="#D9F0F6" opacity="0.56" d="M 264.400 252.200 L 256.300 252.200 L 256.300 279.600 L 264.400 271.600 L 264.400 252.200 " transform="matrix(1, 0, 0, 1, -181, -190)"/>
</svg>