<svg width="156px" height="96px" viewBox="0 0 156 96" version="1.1" xml:space="preserve" xmlns="http://www.w3.org/2000/svg" xmlns:xlink="http://www.w3.org/1999/xlink">
  <defs/>
  <g>
    <title>Taco</title>
    <desc>Created with Sketch.</desc>
    <g id="Page-1" stroke="none" stroke-width="1" fill="none" fill-rule="evenodd">
      <g id="Taco" transform="translate(-162.000000, -132.000000)">
        <g transform="translate(162.000000, 132.000000)">
          <g>
            <path d="M115.7078,95.2776 C115.7078,95.2776 98.5718,21.9216 51.3738,20.7776 C5.0378,19.6556 -5.9602,95.2776 12.2078,95.2776 L115.7078,95.2776 Z" id="Fill-27" fill="#EFAB00"/>
            <path d="M149.9324,64.924 C149.9324,64.924 164.9584,51.278 144.2084,44.278 C131.4764,39.984 131.0404,19.33 121.3744,15.444 C110.0924,10.91 104.7884,20.132 94.7084,16.528 C84.0364,12.712 80.8864,-0.982 66.4624,0.674 C57.1624,1.742 56.8744,16.278 37.9564,17.028 C15.3384,17.924 26.7064,35.278 21.8744,45.946 C17.0404,56.612 1.2664,57.256 5.7924,76.778 C8.5284,88.58 16.0404,95.868 38.7064,92.528 C55.6324,90.034 149.9324,64.924 149.9324,64.924" id="Fill-29" fill="#59C059"/>
            <path d="M27.403,58.9416 L38.415,62.2796 C40.475,62.9036 42.671,61.7316 43.295,59.6716 L44.549,55.5376 C45.175,53.4776 44.001,51.2816 41.941,50.6556 L30.929,47.3176 C28.869,46.6936 26.673,47.8676 26.049,49.9256 L24.795,54.0616 C24.169,56.1196 25.345,58.3176 27.403,58.9416" id="Fill-31" fill="#E8511C"/>
            <path d="M20.0242,56.0216 C22.3042,56.6016 25.5642,59.0816 28.2242,59.7416 C21.3442,77.5616 20.1042,94.6416 11.5842,95.2416 L11.5442,95.2416 C5.0042,94.7016 -2.0558,88.5816 2.0242,82.2816 C4.4442,78.5416 0.6842,73.9016 1.7042,69.6016 C3.1642,63.4016 9.5042,62.0616 11.7042,61.4416 C14.1042,60.7816 16.6442,55.1616 20.0242,56.0216" id="Fill-33" fill="#C18500"/>
            <path d="M37.1638,49.2208 C35.1438,52.8808 33.4838,56.6408 32.0838,60.3608 L30.2038,59.7808 L28.4038,59.2428 C29.8638,55.5208 31.5838,51.7808 33.6638,48.1628 L37.1638,49.2208 Z" id="Fill-35" fill="#C6431A"/>
            <path d="M32.0838,60.3616 C25.4638,77.8016 24.1238,94.3616 15.9038,95.2216 C14.9438,95.2216 14.4638,95.2216 12.8638,95.2816 L12.4638,95.2816 C12.1638,95.2816 11.8838,95.2616 11.5838,95.2416 C20.1038,94.6416 21.3438,77.5616 28.2238,59.7416 C28.9438,59.9216 29.6038,59.9616 30.2038,59.7816 L32.0838,60.3616 Z" id="Fill-37" fill="#A06B00"/>
            <path d="M35.7048,36.0608 L41.0748,33.4908 C43.0148,32.5628 43.8428,30.2128 42.9148,28.2728 L42.5548,27.5228 C41.6268,25.5828 39.2788,24.7548 37.3368,25.6848 L31.9668,28.2548 C30.0268,29.1848 29.1988,31.5308 30.1268,33.4728 L30.4868,34.2208 C31.4148,36.1628 33.7648,36.9908 35.7048,36.0608" id="Fill-39" fill="#E8511C"/>
            <path d="M90.2038,19.5618 C88.7438,19.5818 87.2438,19.6618 85.7038,19.7818 C58.8638,21.8418 45.1638,34.7018 37.1638,49.2218 L33.6638,48.1618 C41.7438,34.0618 55.4238,21.8018 81.6038,19.7818 C84.6038,19.5418 87.4638,19.4818 90.2038,19.5618" id="Fill-41" fill="#4BA04B"/>
            <path d="M136.526,49.754 L140.592,56.796 C141.668,58.66 144.074,59.304 145.938,58.228 L147.842,57.13 C149.708,56.052 150.352,53.648 149.276,51.784 L145.21,44.74 C144.134,42.878 141.728,42.232 139.864,43.308 L137.96,44.408 C136.094,45.484 135.45,47.89 136.526,49.754" id="Fill-43" fill="#E8511C"/>
            <path d="M90.3992,22.7638 L98.0672,20.0538 C100.0972,19.3378 101.1712,17.0898 100.4532,15.0598 L99.7192,12.9858 C99.0032,10.9578 96.7572,9.8838 94.7272,10.5998 L87.0592,13.3098 C85.0292,14.0278 83.9572,16.2738 84.6752,18.3038 L85.4072,20.3778 C86.1232,22.4078 88.3692,23.4798 90.3992,22.7638" id="Fill-45" fill="#E8511C"/>
            <path d="M143.8894,95.2776 C150.0414,95.2776 154.7554,89.8956 154.0414,83.7816 C151.3074,60.3536 138.2914,15.7416 85.7074,19.7776 C19.6534,24.8476 33.2074,95.2776 15.2074,95.2776 L143.8894,95.2776 Z" id="Fill-47" fill="#FFBF00"/>
            <path d="M63.1804,17.7648 C62.6004,17.7648 62.0244,17.5128 61.6284,17.0268 C60.9304,16.1708 61.0604,14.9108 61.9164,14.2148 L72.4164,5.6628 C73.2744,4.9688 74.5344,5.0948 75.2304,5.9508 C75.9284,6.8068 75.7984,8.0668 74.9424,8.7648 L64.4424,17.3148 C64.0704,17.6168 63.6244,17.7648 63.1804,17.7648" id="Fill-49" fill="#FFBF00"/>
            <path d="M131.362,24.0246 C131.238,24.0246 131.114,24.0146 130.988,23.9886 L117.682,21.4706 C116.596,21.2666 115.884,20.2186 116.088,19.1346 C116.294,18.0486 117.342,17.3246 118.424,17.5406 L131.732,20.0606 C132.818,20.2646 133.53,21.3126 133.324,22.3966 C133.144,23.3566 132.304,24.0246 131.362,24.0246" id="Fill-51" fill="#FFBF00"/>
            <path d="M17.699,65.0822 C17.255,65.0822 16.807,64.9362 16.435,64.6302 L5.941,56.0702 C5.085,55.3742 4.957,54.1142 5.657,53.2582 C6.355,52.4042 7.613,52.2722 8.471,52.9722 L18.965,61.5342 C19.821,62.2302 19.949,63.4902 19.249,64.3462 C18.855,64.8302 18.279,65.0822 17.699,65.0822" id="Fill-53" fill="#FFBF00"/>
            <path d="M130.5378,59.3694 C127.2758,59.3694 127.2698,54.2994 130.5378,54.2994 C133.8018,54.2994 133.8058,59.3694 130.5378,59.3694" id="Fill-55" fill="#EFAB00"/>
            <path d="M104.573,63.9044 C101.311,63.9044 101.305,58.8344 104.573,58.8344 C107.837,58.8344 107.841,63.9044 104.573,63.9044" id="Fill-57" fill="#EFAB00"/>
            <path d="M101.4342,84.7794 C98.1722,84.7794 98.1662,79.7094 101.4342,79.7094 C104.6982,79.7094 104.7042,84.7794 101.4342,84.7794" id="Fill-59" fill="#EFAB00"/>
            <path d="M58.491,87.3146 C55.229,87.3146 55.223,82.2446 58.491,82.2446 C61.753,82.2446 61.759,87.3146 58.491,87.3146" id="Fill-61" fill="#EFAB00"/>
            <path d="M63.5154,43.2326 C60.2534,43.2326 60.2474,38.1626 63.5154,38.1626 C66.7774,38.1626 66.7834,43.2326 63.5154,43.2326" id="Fill-63" fill="#EFAB00"/>
            <path d="M90.3932,31.7444 C87.1312,31.7444 87.1252,26.6724 90.3932,26.6724 C93.6552,26.6724 93.6612,31.7444 90.3932,31.7444" id="Fill-65" fill="#EFAB00"/>
            <path d="M77.2174,66.9748 C73.9554,66.9748 73.9494,61.9048 77.2174,61.9048 C80.4794,61.9048 80.4854,66.9748 77.2174,66.9748" id="Fill-67" fill="#EFAB00"/>
            <path d="M49.152,68.9748 C45.89,68.9748 45.884,63.9048 49.152,63.9048 C52.414,63.9048 52.42,68.9748 49.152,68.9748" id="Fill-69" fill="#EFAB00"/>
            <path d="M135.489,79.9612 C132.227,79.9612 132.221,74.8912 135.489,74.8912 C138.751,74.8912 138.757,79.9612 135.489,79.9612" id="Fill-71" fill="#EFAB00"/>
            <path d="M115.7078,40.6974 C112.4438,40.6974 112.4378,35.6274 115.7078,35.6274 C118.9698,35.6274 118.9758,40.6974 115.7078,40.6974" id="Fill-73" fill="#EFAB00"/>
            <path d="M28.404,59.2424 L30.204,59.7824 C29.604,59.9604 28.944,59.9224 28.224,59.7424 C28.284,59.5824 28.344,59.4224 28.404,59.2424" id="Fill-81" fill="#4BA04B"/>
          </g>
        </g>
      </g>
    </g>
  </g>
</svg>