<?xml version="1.0" encoding="utf-8"?>
<!-- Generator: Adobe Illustrator 18.0.0, SVG Export Plug-In . SVG Version: 6.00 Build 0)  -->
<!DOCTYPE svg PUBLIC "-//W3C//DTD SVG 1.1//EN" "http://www.w3.org/Graphics/SVG/1.1/DTD/svg11.dtd">
<svg version="1.1" id="Layer_2" xmlns="http://www.w3.org/2000/svg" xmlns:xlink="http://www.w3.org/1999/xlink" x="0px" y="0px"
	 viewBox="0 0 45.5 47.6" enable-background="new 0 0 45.5 47.6" xml:space="preserve">
<g>
	<path fill="#41A2F2" d="M45.5,23.1c-0.2-3-1.1-5.9-2.2-8.7c-0.9-2.3-2-4.4-3.6-6.3c-1.4-1.7-3.2-2.8-4.9-4
		c-2.6-1.9-5.7-2.8-8.8-3.5c-2.1-0.5-4.3-0.4-6.5-0.5C16.8,0.1,14.1,0,11.4,0C8.2,0,5.1,0,2,0.1c-2,0.1-2-0.2-2,2.3
		c0,0.5,0.2,0.6,0.6,0.6C1.2,3,1.9,3,2.5,3C3.5,3,4,3.4,4,4.4c0,1.8-0.1,3.7-0.1,5.5c0,1.2-0.1,2.5,0,3.7c0.2,5.2,0.4,10.3,0.7,15.5
		c-0.1,0-0.2,0-0.3,0c0,4.5,0,8.9,0,13.4c0,1.6-0.5,2.2-2,2.6c-0.3,0.1-0.6,0.1-0.9,0.2c-0.7,0.1-1,0.4-0.9,1.1
		c0.1,1.2,0.2,1.3,1.5,1.2c2.8-0.1,5.6-0.3,8.4-0.3c4.5,0,9,0,13.5,0.1c2.6,0.1,5.1-0.4,7.5-1.2c1.9-0.7,3.3-2,4.8-3.2
		c2.7-2.2,5.2-4.5,6.6-7.7c1.2-2.7,2.3-5.4,2.5-8.4C45.2,25.6,45.6,24.3,45.5,23.1z M38,24.6c-0.3,2.2-0.6,4.4-1,6.6
		c-0.1,0.6-0.3,1.1-0.6,1.6c-1.1,2-2.2,4.1-3.4,6.1c-1.8,3-4.8,4.6-8.1,5.2c-2.5,0.5-5.1,0.5-7.7,0.8c0-0.1,0-0.2,0-0.3
		c-1.3,0-2.5,0-3.8,0c-0.5,0-1-0.1-1.4-0.3c-0.3-0.2-0.7-0.7-0.7-1c0-4.9,0.1-9.7,0.1-14.6c0-5.1,0-10.3,0-15.4
		c0-2.6-0.1-5.2-0.1-7.8c0-1.7,0.8-2.6,2.5-2.7c2.3-0.1,4.6,0,6.9,0c2.4,0,4.8,0.4,7,1.5c2.3,1.1,4.4,2.5,5.6,4.8
		c1.3,2.6,2.8,5.2,3.9,7.9C38.2,19.4,38.3,22,38,24.6z"/>
</g>
</svg>
