<?xml version="1.0" encoding="utf-8"?>
<!-- Generator: Adobe Illustrator 18.0.0, SVG Export Plug-In . SVG Version: 6.00 Build 0)  -->
<!DOCTYPE svg PUBLIC "-//W3C//DTD SVG 1.1//EN" "http://www.w3.org/Graphics/SVG/1.1/DTD/svg11.dtd">
<svg version="1.1" id="Layer_2" xmlns="http://www.w3.org/2000/svg" xmlns:xlink="http://www.w3.org/1999/xlink" x="0px" y="0px"
	 viewBox="0 0 74.4 51.3" enable-background="new 0 0 74.4 51.3" xml:space="preserve">
<g>
	<path fill="#F7941E" d="M74.4,1.8c0-0.2,0-0.4,0-0.5c-0.2-0.2-0.4-0.6-0.6-0.6c-1.4,0-2.8,0-4.2,0c-2.6,0-5.2,0.1-7.8,0.1
		c-1.1,0-2.2-0.4-3,0.7c-0.1,0.1-0.2,0.1-0.3,0.2c-1.4,0.7-2.7,1.5-4.1,2.2C54.2,4,54,4.2,54,4.3c-0.1,0.8-0.1,1.5-0.1,2.3
		c0,0.1,0.3,0.3,0.4,0.3c1,0,2,0,3.1,0c0.8,0,1.3,0.3,1.4,1.1c0.1,0.5,0.1,1.1-0.1,1.6c-0.3,1.2-0.7,2.5-1.2,3.7
		c-2.1,5.5-4.2,11-6.2,16.5c-0.3,0.8-0.6,1.6-1,2.5c-0.5-1.5-0.9-2.8-1.4-4.2c-1.4-4.1-2.8-8.2-4.3-12.3c-0.7-2.1-1.5-4.3-2.2-6.4
		c-0.4-1-0.6-2.1-1-3.2c-0.5-1.5-0.2-2.3,1.4-2.5c0.9-0.1,1.9,0,2.9,0c0.6,0,0.9,0,0.9-0.7c-0.1-0.6,0-1.3-0.1-2
		c0-0.2-0.3-0.4-0.5-0.4c-2.4,0-4.8,0-7.2-0.1c-3.6-0.1-7.3-0.5-10.8,1c-1.1,0.5-2.2,1-3.3,1.6C24.2,3.4,24,3.7,24,3.9
		c0,0.6,0,1.3,0.1,1.9c0,0.2,0.3,0.5,0.5,0.5c1.1,0.1,2.2,0,3.3,0.1c1.1,0.1,1.9,0.5,2.4,1.5c0.3,0.7,0.7,1.5,1,2.2
		c0.6,1.5,1.2,3.1,1.7,4.7c0.1,0.3,0,0.6-0.1,0.9c-0.9,1.9-1.8,3.8-2.6,5.7c-0.6,1.2-1.1,2.5-1.6,3.7c-0.8,1.7-1.6,3.4-2.4,5.2
		c-0.4,0.9-0.7,1.8-1,2.7c-0.1-0.2-0.2-0.3-0.2-0.4c-1.5-4.5-3.1-9-4.6-13.4c-0.8-2.2-1.7-4.4-2.4-6.7c-0.8-2.4-1.5-4.7-2.3-7.1
		c-0.3-0.9-0.2-1.1,0.6-1.4c0.6-0.2,1.2-0.3,1.9-0.4c1.2-0.1,1.3-0.1,1.4-1.4c0-0.1,0-0.3,0-0.4c0-1.4,0-1.3-1.4-1.4
		c-2.3-0.1-4.6-0.3-6.9-0.3C9,0,6.8,0.1,4.7,0.1c-0.1,0-0.3,0.1-0.4,0.2C3.2,1.6,2.1,2.8,1,4.1C0.7,4.4,0.4,4.6,0,4.9
		C0,5.6,0,6.3,0,7c0,0.2,0.3,0.4,0.5,0.5c1,0.1,2,0.1,3.1,0.1c1,0,1.6,0.4,2,1.3c0.3,0.8,0.7,1.6,1.1,2.4c0.4,1,1,2,1.3,3
		c1.8,5.7,3.4,11.5,5.2,17.2c0.9,3.1,1.9,6.1,2.9,9.2c0.5,1.6,1,3.1,1.5,4.7c0.5,1.4,1.2,2.7,1.6,4.1c0.5,1.6,0.5,1.5,2.1,1.8
		c1.6,0.2,3-0.1,4.1-1.2c0.6-0.6,1.5-1.1,1.8-1.8c1-2.3,1.8-4.6,2.7-6.9c1.2-3.1,2.3-6.2,3.6-9.2c1-2.3,2.1-4.7,2.6-7.2
		c0.1-0.2,0.2-0.4,0.3-0.7c0.7,2.9,1.4,5.6,2.1,8.3c0.5,1.8,1.2,3.6,1.7,5.4c0.4,1.3,0.6,2.7,1.1,3.9c1.2,3,2.6,5.9,3.9,8.9
		c0.1,0.2,0.3,0.4,0.5,0.5c0.6,0.1,1.2,0.2,1.7,0.2c0.5,0,1.1,0.1,1.4-0.2c1.5-1.3,3.2-2.4,3.6-4.6c0-0.2,0.1-0.3,0.2-0.5
		c1-2.2,2-4.4,2.9-6.7c0.8-2,1.5-4.2,2.2-6.2c1-2.8,1.9-5.6,3-8.4c1.2-3,2.5-5.8,3.7-8.8c1.1-2.8,2.2-5.7,3.2-8.6
		c0.9-2.5,2.8-3.5,5.2-3.7C74.4,3.4,74.4,3.4,74.4,1.8z M72.5,3c-2.1,0-4.7,1-5.8,4.5c-0.6,2-1.4,3.9-2.2,5.8
		c-0.8,2.2-1.6,4.4-2.5,6.6c-1,2.4-2.2,4.8-3.1,7.2c-1,2.8-1.8,5.6-2.8,8.4c-0.9,2.4-2,4.8-2.9,7.2c-0.6,1.4-1.1,2.8-1.7,4.3
		c-0.2,0.4-0.4,0.6-0.8,0.6c-1.6,0-1.7,0-2.2-1.5c-1.2-3.3-2.4-6.6-3.6-9.9c-0.8-2.3-1.6-4.6-2.4-6.8c-1.2-3.5-2.5-7.1-3.7-10.7
		c-0.2-0.5-0.1-1-0.2-1.7c-0.5,0.9-0.9,1.6-1.2,2.4c-0.8,2.1-1.5,4.3-2.3,6.4c-0.7,1.9-1.5,3.7-2.2,5.6c-1.7,4.3-3.4,8.6-5,13
		c-0.4,1.1-0.8,2.1-1.3,3.2c0,0,0,0.1-0.1,0.1c-0.7,0.1-1.5,0.2-2.2,0.2c-0.2,0-0.6-0.3-0.7-0.5c-1.7-5-3.4-10-4.9-15.1
		c-1.4-5.1-2.9-10.2-4.9-15.2c-0.9-2.3-2.1-4.6-3.1-6.9c-0.6-1.4-0.9-2.9-1.4-4.3c-0.8-2-1.6-2.6-3.9-2.5V0.6
		c4.5,0.1,9,0.3,13.5,0.4c0,0.3,0,0.6,0,0.8c0,0.6-0.1,1-0.9,1c-0.6,0-1.1,0.2-1.7,0.3c-1.4,0.4-1.8,1.1-1.3,2.5
		c1.6,4.7,3.2,9.5,4.8,14.2c2,5.8,4,11.5,6,17.2c0.2,0.7,0.4,1.5,0.6,2.2c0,0.2,0.3,0.4,0.3,0.3c0.2,0,0.4-0.2,0.4-0.4
		c0.4-1.1,0.8-2.2,1.2-3.3c1.1-2.8,2.2-5.6,3.4-8.4c1.3-3.3,2.7-6.5,4-9.8c0.5-1.2,0.9-2.5,1.3-3.8c0.1-0.2,0.1-0.4,0-0.5
		c-0.9-2.7-1.9-5.3-2.9-7.9c-0.3-0.8-0.9-1.4-1.5-2c-0.3-0.3-0.8-0.5-1.2-0.6c-1.2-0.2-1.3-0.4-1.1-1.6c5-0.8,10.1,0.3,15.2,0
		c0,0.6,0.1,1.2,0.1,1.6c-1.4,0.1-2.7,0.2-4,0.4c-1.2,0.3-1.7,1.2-1.3,2.4c0.5,1.6,0.9,3.2,1.5,4.8c2.2,6.2,4.3,12.4,6.5,18.6
		c1.1,3.1,2.1,6.2,3.1,9.4c0.1,0.3,0.4,0.6,0.7,0.9c0.2-0.3,0.5-0.5,0.6-0.8c1.5-3.6,2.9-7.2,4.3-10.8c2.2-5.8,4.3-11.5,6.5-17.3
		c0.4-1,0.9-2,1.3-3.1c0.3-0.8,0.5-1.6,0.6-2.4c0.2-0.7-0.2-1.2-0.8-1.3C63.8,3.4,62.9,3.2,62,3c-0.1,0-0.3,0-0.4,0
		c-1.6,0-1.8-0.3-1.2-1.8h13.2c0,0.2,0,0.3,0,0.5C73.7,2.9,73.7,3,72.5,3z"/>
	<path fill="#FFFFFF" d="M73.7,1.7c0-0.1,0-0.2,0-0.5H60.4C59.8,2.8,60,3,61.6,3c0.1,0,0.3,0,0.4,0c0.9,0.2,1.8,0.4,2.7,0.6
		c0.6,0.2,1,0.7,0.8,1.3c-0.2,0.8-0.4,1.6-0.6,2.4c-0.4,1-0.9,2-1.3,3.1c-2.2,5.8-4.3,11.5-6.5,17.3c-1.4,3.6-2.8,7.2-4.3,10.8
		c-0.1,0.3-0.4,0.6-0.6,0.8c-0.2-0.3-0.5-0.5-0.7-0.9c-1.1-3.1-2-6.2-3.1-9.4c-2.1-6.2-4.3-12.4-6.5-18.6c-0.5-1.6-1-3.2-1.5-4.8
		c-0.3-1.2,0.1-2.1,1.3-2.4c1.3-0.3,2.6-0.3,4-0.4c0-0.4-0.1-1-0.1-1.6c-5.2,0.4-10.2-0.8-15.2,0c-0.2,1.2-0.1,1.4,1.1,1.6
		c0.4,0.1,0.9,0.3,1.2,0.6c0.6,0.6,1.2,1.2,1.5,2c1,2.6,2,5.3,2.9,7.9c0.1,0.2,0.1,0.4,0,0.5c-0.4,1.3-0.8,2.6-1.3,3.8
		c-1.3,3.3-2.7,6.5-4,9.8c-1.1,2.8-2.3,5.6-3.4,8.4c-0.4,1.1-0.8,2.2-1.2,3.3c-0.1,0.1-0.3,0.3-0.4,0.4c-0.1,0-0.3-0.2-0.3-0.3
		c-0.2-0.7-0.4-1.5-0.6-2.2c-2-5.7-4-11.5-6-17.2c-1.6-4.7-3.2-9.5-4.8-14.2c-0.5-1.4-0.1-2.1,1.3-2.5C17,3,17.5,2.8,18.1,2.8
		c0.7,0,0.9-0.3,0.9-1c0-0.2,0-0.5,0-0.8c-4.5-0.1-9-0.3-13.5-0.4v2.6c2.3,0,3.2,0.5,3.9,2.5c0.5,1.4,0.8,2.9,1.4,4.3
		c1,2.3,2.1,4.6,3.1,6.9c2,4.9,3.5,10,4.9,15.2c1.4,5.1,3.2,10.1,4.9,15.1c0.1,0.2,0.4,0.5,0.7,0.5c0.7,0,1.4-0.1,2.2-0.2
		c0,0,0-0.1,0.1-0.1c0.4-1,0.9-2.1,1.3-3.2c1.7-4.3,3.3-8.6,5-13c0.7-1.9,1.5-3.7,2.2-5.6c0.8-2.1,1.5-4.2,2.3-6.4
		c0.3-0.8,0.7-1.5,1.2-2.4c0.1,0.7,0.1,1.2,0.2,1.7c1.2,3.6,2.4,7.1,3.7,10.7c0.8,2.3,1.6,4.6,2.4,6.8c1.2,3.3,2.3,6.6,3.6,9.9
		c0.6,1.5,0.7,1.5,2.2,1.5c0.5,0,0.7-0.2,0.8-0.6c0.5-1.4,1.1-2.9,1.7-4.3c1-2.4,2-4.8,2.9-7.2c1-2.8,1.8-5.6,2.8-8.4
		c0.9-2.5,2.1-4.8,3.1-7.2c0.9-2.2,1.7-4.4,2.5-6.6c0.7-1.9,1.5-3.9,2.2-5.8C67.8,4,70.3,3,72.5,3C73.7,3,73.7,2.9,73.7,1.7z
		 M17.3,21.7c-1.3-4.8-3.5-9.3-4-14.4c0.1,0.2,0.3,0.5,0.4,0.7c0.3,0.9,0.5,1.7,0.8,2.6c1.1,3.4,2.2,6.8,3.3,10.1
		C17.9,21.2,18.2,21.6,17.3,21.7z M18.8,25.4c-0.3,0-0.5-0.4-0.8-0.6c0.2-0.7,0.3-1.1,1-1.1c0.5,0,0.8,0.2,0.8,0.8
		C19.7,25.1,19.4,25.5,18.8,25.4z M24.4,42.6c-0.6-1.7-1.2-3.3-1.7-5c-0.5-1.7-1.1-3.4-1.6-5.1c-0.4-1.4-0.8-2.9-1.1-4.3
		c-0.1-0.2,0.1-0.5,0.2-0.7c0.2,0.2,0.4,0.4,0.5,0.6c0.5,1.6,0.9,3.2,1.3,4.8c0.8,2.8,1.7,5.7,2.5,8.5c0.1,0.4,0.1,0.8,0.1,1.2
		C24.5,42.6,24.5,42.6,24.4,42.6z M41.7,20.1c-0.9-2.8-1.9-5.5-2.7-8.3c-0.5-1.7-1-3.4-1.4-5.1c-0.1-0.3,0-0.6,0-0.9
		c0.1,0,0.2,0,0.2,0c1.6,4.9,3.2,9.9,4.9,14.8C41.9,21,41.8,20.5,41.7,20.1z M43.1,23.5c0.1-0.1,0.3-0.5,0.6-0.6
		c0.4-0.1,1.2,0.7,1,1.1c-0.1,0.3-0.5,0.6-0.8,0.6C43.4,24.7,43.1,24.3,43.1,23.5z M49.6,41.4c-0.3-0.6-0.8-1.2-1-1.9
		c-0.6-1.6-1.3-3.1-1.8-4.7c-0.8-2.3-1.5-4.5-2.2-6.8c-0.1-0.2,0.1-0.5,0.1-0.8c0.2,0.2,0.4,0.4,0.5,0.6c1.3,3.6,2.6,7.3,3.8,10.9
		c0.3,0.9,0.6,1.7,0.9,2.6C49.8,41.4,49.7,41.4,49.6,41.4z"/>
	<path fill="#F7941E" d="M24.6,42.6c-0.1,0-0.2,0-0.3,0.1c-0.6-1.7-1.2-3.3-1.7-5c-0.5-1.7-1.1-3.4-1.6-5.1
		c-0.4-1.4-0.8-2.9-1.1-4.3c-0.1-0.2,0.1-0.5,0.2-0.7c0.2,0.2,0.4,0.4,0.5,0.6c0.5,1.6,0.9,3.2,1.3,4.8c0.8,2.8,1.7,5.7,2.5,8.5
		C24.6,41.7,24.6,42.2,24.6,42.6z"/>
	<path fill="#F7941E" d="M42.6,20.6c-0.7,0.3-0.8-0.2-0.9-0.5c-0.9-2.8-1.9-5.5-2.7-8.3c-0.5-1.7-1-3.4-1.4-5.1
		c-0.1-0.3,0-0.6,0-0.9c0.1,0,0.2,0,0.2,0C39.4,10.7,41,15.7,42.6,20.6z"/>
	<path fill="#F7941E" d="M49.9,41.3c-0.1,0-0.2,0.1-0.3,0.1c-0.3-0.6-0.8-1.2-1-1.9c-0.6-1.6-1.3-3.1-1.8-4.7
		c-0.8-2.3-1.5-4.5-2.2-6.8c-0.1-0.2,0.1-0.5,0.1-0.8c0.2,0.2,0.4,0.4,0.5,0.6c1.3,3.6,2.6,7.3,3.8,10.9
		C49.4,39.6,49.7,40.5,49.9,41.3z"/>
	<path fill="#F7941E" d="M17.3,21.7c-1.3-4.8-3.5-9.3-4-14.4c0.1,0.2,0.3,0.5,0.4,0.7c0.3,0.9,0.5,1.7,0.8,2.6
		c1.1,3.4,2.2,6.8,3.3,10.1C17.9,21.2,18.2,21.6,17.3,21.7z"/>
	<path fill="#F7941E" d="M19.7,24.5c0,0.6-0.3,1-0.9,0.9c-0.3,0-0.5-0.4-0.8-0.6c0.2-0.7,0.3-1.1,1-1.1C19.4,23.8,19.7,24,19.7,24.5
		z"/>
	<path fill="#F7941E" d="M44.8,24c-0.1,0.3-0.5,0.6-0.8,0.6c-0.6,0.1-0.8-0.3-0.9-1.2c0.1-0.1,0.3-0.5,0.6-0.6
		C44.1,22.8,44.9,23.6,44.8,24z"/>
</g>
</svg>
