<svg version="1.1" width="121" height="139" xmlns="http://www.w3.org/2000/svg" xmlns:xlink="http://www.w3.org/1999/xlink">
  <!-- Exported by Scratch - http://scratch.mit.edu/ -->
  <g id="ID0.5260870358906686" transform="matrix(0.9024999737739563, 0, 0, 0.9024999737739563, -0.15, -0.2)">
    <g id="R_Foot">
      <path id="ID0.4096909505315125" fill="#F7941E" d="M 90.736 149.969 C 90.249 149.969 89.744 149.834 89.194 149.556 C 86.715 148.306 84.722 146.042 83.274 142.827 L 82.647 141.436 L 84.047 140.832 C 84.604 140.593 85.161 140.338 85.724 140.060 C 90.226 137.820 94.207 134.351 97.555 129.751 L 98.228 128.827 L 99.297 129.230 C 102.778 130.542 105.926 131.988 108.652 133.526 C 110.355 134.487 111.323 135.833 111.374 137.315 C 111.424 138.760 110.603 140.116 109.063 141.130 C 108.123 141.748 107.009 142.062 105.754 142.062 C 104.375 142.062 102.970 141.685 101.640 141.174 C 102.187 141.793 102.642 142.437 103.069 143.065 C 103.802 144.141 103.912 145.348 103.369 146.376 C 102.770 147.506 101.449 148.236 100.003 148.236 L 100.003 148.236 C 99.271 148.236 98.561 148.047 97.947 147.687 C 95.980 146.534 94.297 144.939 92.862 143.394 C 93.372 145.996 93.474 147.964 92.545 149.112 C 92.099 149.665 91.456 149.969 90.736 149.969 L 90.736 149.969 Z " transform="matrix(0.9024999737739563, 0, 0, 0.9024999737739563, 0.3, 0.5)"/>
      <path id="ID0.8810942587442696" d="M 98.769 130.635 C 101.900 131.816 105.015 133.197 107.916 134.834 C 110.452 136.264 110.495 138.393 108.239 139.879 C 107.492 140.371 106.640 140.564 105.756 140.564 C 103.754 140.564 101.579 139.578 100.041 138.833 C 99.850 138.740 99.665 138.699 99.492 138.699 C 98.499 138.699 97.913 140.056 98.921 140.747 C 100.170 141.602 100.983 142.664 101.830 143.910 C 102.905 145.489 101.515 146.738 100.004 146.738 C 99.563 146.738 99.110 146.632 98.707 146.395 C 96.549 145.129 94.733 143.268 93.090 141.410 C 92.856 141.145 92.590 141.034 92.332 141.034 C 91.659 141.034 91.038 141.789 91.158 142.535 C 91.285 143.327 92.654 148.470 90.736 148.470 C 90.500 148.470 90.214 148.392 89.870 148.218 C 87.410 146.978 85.743 144.656 84.641 142.212 C 85.221 141.962 85.803 141.696 86.389 141.406 C 91.373 138.926 95.517 135.104 98.769 130.635 M 97.688 127.022 L 96.342 128.870 C 93.138 133.273 89.340 136.587 85.053 138.721 C 84.556 138.966 84.032 139.208 83.453 139.457 L 80.652 140.664 L 81.905 143.444 C 83.499 146.980 85.723 149.487 88.518 150.896 C 89.271 151.276 90.017 151.469 90.735 151.469 C 91.899 151.469 92.983 150.954 93.711 150.058 C 94.348 149.271 94.643 148.309 94.727 147.249 C 95.493 147.879 96.312 148.468 97.189 148.982 C 98.033 149.476 99.005 149.737 100.003 149.737 C 101.998 149.737 103.840 148.693 104.695 147.078 C 105.275 145.980 105.358 144.722 104.962 143.530 C 105.226 143.551 105.489 143.563 105.755 143.563 C 107.309 143.563 108.698 143.167 109.887 142.384 C 111.854 141.089 112.942 139.223 112.873 137.264 C 112.833 136.091 112.326 133.876 109.389 132.220 C 106.597 130.645 103.379 129.167 99.827 127.827 L 97.688 127.022 L 97.688 127.022 Z " transform="matrix(0.9024999737739563, 0, 0, 0.9024999737739563, 0.3, 0.5)"/>
    </g>
    <g id="L_Foot">
      <path id="ID0.7786169820465147" fill="#F7941E" d="M 37.957 151.483 C 37.323 151.482 36.746 151.214 36.332 150.729 C 35.440 149.681 35.531 147.738 35.765 146.291 C 35.827 145.902 35.907 145.522 35.997 145.150 C 34.085 147.024 31.935 148.747 29.310 149.698 C 28.684 149.926 28.140 150.036 27.649 150.036 C 26.693 150.036 25.906 149.595 25.489 148.826 C 24.296 146.624 26.973 142.404 27 142.362 C 27.291 141.918 27.597 141.498 27.918 141.102 C 26.362 141.693 24.353 142.314 22.836 142.314 C 21.702 142.314 20.847 141.980 20.292 141.322 C 19.939 140.903 19.561 140.163 19.759 139.014 C 20.092 137.083 21.999 135.532 23.924 134.109 L 24.252 133.866 C 25.991 132.559 27.878 131.492 29.703 130.459 C 30.416 130.056 31.130 129.651 31.834 129.234 L 33.014 128.534 L 33.816 129.647 C 36.770 133.746 40.568 137.082 45.106 139.562 L 46.208 140.165 L 45.809 141.355 C 44.736 144.553 43.337 147.062 41.408 149.251 C 40.046 150.794 38.982 151.483 37.957 151.483 L 37.957 151.483 Z " transform="matrix(0.9024999737739563, 0, 0, 0.9024999737739563, 0.3, 0.5)"/>
      <path id="ID0.8209071131423116" d="M 32.599 130.525 C 35.736 134.878 39.778 138.360 44.386 140.879 C 43.468 143.617 42.209 146.074 40.282 148.259 C 39.170 149.520 38.435 149.983 37.956 149.983 C 36.753 149.983 37.158 147.067 37.245 146.531 C 37.391 145.609 37.666 144.702 37.902 143.802 C 38.085 143.105 37.493 142.504 36.878 142.504 C 36.638 142.504 36.395 142.595 36.193 142.808 C 34.087 145.027 31.717 147.232 28.798 148.289 C 28.325 148.461 27.947 148.537 27.649 148.537 C 25.263 148.537 27.954 143.648 28.257 143.183 C 28.944 142.132 29.778 141.159 30.752 140.370 C 31.507 139.759 30.814 138.649 30.005 138.649 C 29.848 138.649 29.687 138.691 29.531 138.787 C 29.290 138.933 25.192 140.816 22.837 140.816 C 21.754 140.816 21.040 140.418 21.238 139.271 C 21.523 137.622 24.035 135.908 25.154 135.066 C 27.475 133.321 30.098 132.008 32.599 130.525 M 33.429 126.544 L 31.069 127.944 C 30.374 128.356 29.669 128.755 28.965 129.153 C 27.098 130.210 25.168 131.301 23.352 132.666 L 23.033 132.903 C 21.430 134.089 18.746 136.074 18.283 138.758 C 17.971 140.566 18.690 141.745 19.147 142.287 C 19.733 142.983 20.850 143.813 22.838 143.813 C 23.398 143.813 24.005 143.744 24.628 143.628 C 23.873 145.333 23.190 147.728 24.171 149.538 C 24.848 150.788 26.149 151.534 27.650 151.534 C 28.318 151.534 29.029 151.394 29.823 151.106 C 31.403 150.533 32.831 149.698 34.129 148.737 C 34.217 149.979 34.572 150.971 35.191 151.699 C 35.884 152.512 36.893 152.980 37.958 152.980 C 39.861 152.980 41.339 151.595 42.534 150.241 C 44.573 147.929 46.109 145.179 47.232 141.831 L 48.031 139.449 L 45.827 138.245 C 41.488 135.872 37.856 132.683 35.035 128.768 L 33.429 126.544 L 33.429 126.544 Z " transform="matrix(0.9024999737739563, 0, 0, 0.9024999737739563, 0.3, 0.5)"/>
    </g>
    <g id="Body_1_">
      <g id="Body">
        <path id="ID0.08855116786435246" fill="#898DC5" d="M 68.058 144.131 C 67.312 144.131 66.563 144.111 65.814 144.071 L 65.404 144.049 C 59.288 143.722 53.512 143.412 47.472 140.713 C 46.886 140.451 46.324 140.154 45.763 139.858 C 40.207 136.916 35.449 132.230 31.917 126.265 C 23.535 112.104 25.686 95.149 37.817 79.746 L 37.998 79.517 L 38.343 79.321 C 38.410 79.262 38.381 79.148 38.291 79.047 C 38.234 78.982 38.165 78.938 38.120 78.938 C 38.089 78.938 38.040 78.954 37.988 78.982 C 31.850 82.233 26.806 86.953 22.116 93.836 L 21.967 94.055 C 19.774 97.272 17.505 100.599 14.738 103.564 C 12.771 105.672 9.082 107.914 6.120 107.914 C 4.835 107.914 3.734 107.489 2.936 106.685 C 1.968 105.709 1.485 104.231 1.500 102.291 C 1.560 95.083 7.040 87.544 12.393 81.119 C 16.707 75.943 21.852 71.699 26.827 67.595 C 29.320 65.538 31.896 63.413 34.328 61.201 L 34.323 61.140 C 33.372 59.889 32.376 58.644 31.410 57.437 C 27.988 53.159 24.450 48.735 22.302 43.385 C 19.352 36.038 20.475 27.491 25.466 19.319 C 32.205 8.285 46.400 1.699 63.441 1.699 C 63.787 1.699 64.132 1.702 64.477 1.707 C 77.884 1.926 93.040 3.821 103.794 16.222 C 109.725 23.061 112.134 32.117 110.239 40.448 C 108.435 48.378 102.551 54.907 96.462 60.781 C 96.353 60.887 96.358 60.935 96.359 60.960 L 96.382 61.181 L 96.356 61.322 C 98.466 62.824 100.842 64.373 103.355 66.011 C 115.281 73.785 130.122 83.461 131.353 98.139 C 131.515 100.067 131.088 101.597 130.085 102.688 C 129.104 103.755 127.606 104.320 125.755 104.320 C 125.755 104.320 125.755 104.320 125.754 104.320 C 123.212 104.320 120.479 103.287 118.909 102.402 C 115.196 100.308 112.232 97.170 109.365 94.134 L 109.259 94.022 C 108.362 93.072 107.472 92.097 106.577 91.118 C 102.698 86.870 98.692 82.482 93.679 79.843 C 105.684 95.096 108.074 110.267 100.800 124.974 C 97.632 131.381 92.524 136.538 86.026 139.889 C 80.644 142.664 74.431 144.131 68.058 144.131 L 68.058 144.131 Z " transform="matrix(0.9024999737739563, 0, 0, 0.9024999737739563, 0.3, 0.5)"/>
        <path id="ID0.3412396004423499" d="M 63.441 3.199 C 63.779 3.199 64.116 3.202 64.452 3.207 C 78.890 3.443 92.675 5.690 102.661 17.205 C 108.093 23.469 110.619 32.013 108.776 40.115 C 107.001 47.922 100.995 54.324 95.421 59.701 C 94.969 60.139 94.817 60.639 94.868 61.118 C 94.776 61.600 94.915 62.137 95.417 62.494 C 107.551 71.148 128.437 81.312 129.858 98.265 C 130.148 101.710 128.170 102.821 125.755 102.821 C 123.646 102.821 121.203 101.974 119.647 101.096 C 116.086 99.088 113.131 95.937 110.350 92.992 C 105.293 87.640 100.487 81.506 93.756 78.199 C 93.520 78.083 93.290 78.031 93.077 78.031 C 92.010 78.032 91.340 79.323 92.129 80.307 C 102.627 93.411 107.275 108.495 99.455 124.308 C 96.285 130.720 91.281 135.491 85.338 138.555 C 80.105 141.253 74.143 142.630 68.057 142.630 C 67.337 142.630 66.616 142.611 65.893 142.572 C 59.570 142.232 53.997 141.985 48.083 139.343 C 47.499 139.081 46.939 138.782 46.379 138.486 C 40.817 135.540 36.406 130.903 33.207 125.500 C 24.217 110.312 28.759 93.670 38.995 80.674 C 39.009 80.666 39.023 80.656 39.037 80.651 C 40.730 79.763 39.692 77.437 38.120 77.437 C 37.854 77.437 37.573 77.503 37.287 77.655 C 30.336 81.337 25.267 86.548 20.877 92.990 C 18.616 96.305 16.391 99.594 13.642 102.539 C 11.989 104.311 8.626 106.412 6.121 106.412 C 4.330 106.412 2.977 105.338 3.002 102.302 C 3.062 95.118 9.292 87.186 13.547 82.078 C 19.972 74.370 28.188 68.847 35.526 62.140 C 35.786 61.902 35.869 61.617 35.846 61.338 C 35.957 61.101 35.970 60.827 35.790 60.590 C 31.462 54.840 26.416 49.601 23.696 42.825 C 20.595 35.104 22.560 26.958 26.748 20.099 C 34.277 7.770 49.758 3.199 63.441 3.199 M 63.441 0.199 L 63.441 0.199 C 45.873 0.199 31.199 7.053 24.187 18.535 C 18.943 27.122 17.780 36.145 20.912 43.942 C 23.142 49.497 26.751 54.009 30.241 58.372 C 30.928 59.231 31.630 60.109 32.317 60.990 C 30.211 62.858 28.012 64.672 25.874 66.435 C 20.846 70.583 15.646 74.873 11.243 80.156 C 5.720 86.785 0.066 94.597 0.002 102.276 C -0.017 104.631 0.613 106.469 1.873 107.740 C 2.958 108.834 4.428 109.412 6.122 109.412 C 9.946 109.412 14.027 106.525 15.837 104.585 C 18.682 101.538 20.983 98.162 23.208 94.898 L 23.356 94.680 C 26.329 90.317 29.441 86.854 32.892 84.104 C 23.754 98.551 22.867 113.919 30.627 127.029 C 34.300 133.233 39.262 138.111 44.976 141.138 L 45.061 141.183 C 45.627 141.483 46.212 141.793 46.858 142.082 C 53.154 144.895 59.066 145.212 65.324 145.547 L 65.733 145.569 C 66.505 145.610 67.287 145.631 68.058 145.631 C 74.668 145.631 81.120 144.107 86.714 141.222 C 93.498 137.724 98.835 132.335 102.146 125.638 C 108.408 112.976 107.624 99.549 99.957 86.374 C 101.875 88.190 103.686 90.175 105.472 92.130 C 106.352 93.094 107.262 94.090 108.171 95.053 L 108.276 95.164 C 111.083 98.136 114.263 101.504 118.174 103.709 C 119.984 104.730 122.926 105.820 125.756 105.820 C 128.639 105.820 130.303 104.669 131.191 103.703 C 132.084 102.732 133.096 100.957 132.848 98.013 C 131.556 82.606 116.374 72.708 104.175 64.755 C 102.148 63.434 100.211 62.171 98.441 60.950 C 104.354 55.150 109.906 48.679 111.703 40.781 C 113.703 31.987 111.171 22.438 104.929 15.240 C 93.786 2.393 78.240 0.432 64.501 0.208 C 64.149 0.202 63.796 0.199 63.441 0.199 L 63.441 0.199 L 63.441 0.199 Z " transform="matrix(0.9024999737739563, 0, 0, 0.9024999737739563, 0.3, 0.5)"/>
      </g>
      <path id="Belly" fill="#FFFFFF" d="M 95.577 16.506 C 82.456 3.072 65.897 17.481 65.897 17.481 C 65.897 17.481 49.339 3.071 36.217 16.506 C 16.666 36.522 46.666 61.510 46.666 68.516 C 46.666 75.522 34.416 88.435 34.416 110.772 C 34.416 125.370 41.483 134.152 46.380 138.487 C 46.941 138.784 47.500 139.083 48.084 139.344 C 53.998 141.987 59.571 142.234 65.894 142.573 C 72.723 142.938 79.486 141.573 85.339 138.555 C 90.238 134.244 97.379 125.445 97.379 110.771 C 97.379 88.434 85.129 75.521 85.129 68.515 C 85.129 61.509 115.129 36.522 95.577 16.506 Z " transform="matrix(0.9024999737739563, 0, 0, 0.9024999737739563, 0.3, 0.5)"/>
    </g>
    <g id="Beak_1_">
      <g id="Beak">
        <path id="ID0.08505663182586432" fill="#F7941E" d="M 64.875 69.028 C 55.183 69.028 44.395 56.138 44.395 47.403 C 44.395 40.044 54.715 29.805 64.875 29.805 C 75.444 29.805 85.395 39.719 85.395 47.403 C 85.396 54.965 74.848 69.028 64.875 69.028 L 64.875 69.028 Z " transform="matrix(0.9024999737739563, 0, 0, 0.9024999737739563, 0.3, 0.5)"/>
        <path id="ID0.6856351788155735" d="M 64.875 31.305 C 74.394 31.305 83.895 40.330 83.895 47.403 C 83.895 54.476 73.731 67.528 64.875 67.528 C 56.019 67.528 45.895 55.097 45.895 47.403 C 45.896 41.153 55.356 31.305 64.875 31.305 M 64.875 28.305 C 53.971 28.305 42.895 39.416 42.895 47.403 C 42.895 56.744 54.473 70.528 64.875 70.528 C 75.796 70.528 86.895 55.692 86.895 47.403 C 86.896 38.121 75.577 28.305 64.875 28.305 L 64.875 28.305 Z " transform="matrix(0.9024999737739563, 0, 0, 0.9024999737739563, 0.3, 0.5)"/>
      </g>
      <path id="Mouth" fill="#231F20" d="M 53.836 57.723 C 57.168 60.494 60.916 62.635 65.302 62.920 C 69.144 63.170 73.179 60.181 75.924 57.820 C 77.237 56.691 75.463 54.568 74.135 55.503 C 71.775 57.164 69.743 59.357 67.052 60.276 C 62.724 61.755 58.954 57.425 55.599 55.419 C 54.416 54.712 52.562 56.663 53.836 57.723 L 53.836 57.723 Z " transform="matrix(0.9024999737739563, 0, 0, 0.9024999737739563, 0.3, 0.5)"/>
    </g>
    <path id="L_Eye" fill="#231F20" d="M 44.229 24.862 C 45.275 24.862 46.222 25.404 46.908 26.278 C 47.594 27.153 48.019 28.362 48.019 29.695 C 48.019 31.028 47.594 32.237 46.908 33.112 C 46.222 33.986 45.275 34.528 44.229 34.528 C 43.183 34.528 42.236 33.986 41.550 33.112 C 40.864 32.237 40.439 31.028 40.439 29.695 C 40.439 28.362 40.864 27.153 41.550 26.278 C 42.236 25.404 43.183 24.862 44.229 24.862 Z " transform="matrix(0.9024999737739563, 0, 0, 0.9024999737739563, 0.3, 0.5)"/>
    <path id="R_Eye" fill="#231F20" d="M 84.791 24.862 C 85.837 24.862 86.785 25.404 87.472 26.278 C 88.158 27.153 88.583 28.362 88.583 29.695 C 88.583 31.028 88.158 32.237 87.472 33.112 C 86.785 33.986 85.837 34.528 84.791 34.528 C 83.745 34.528 82.797 33.986 82.110 33.112 C 81.424 32.237 80.999 31.028 80.999 29.695 C 80.999 28.362 81.424 27.153 82.110 26.278 C 82.797 25.404 83.745 24.862 84.791 24.862 Z " transform="matrix(0.9024999737739563, 0, 0, 0.9024999737739563, 0.3, 0.5)"/>
  </g>
</svg>