<svg version="1.1" width="63" height="249" xmlns="http://www.w3.org/2000/svg" xmlns:xlink="http://www.w3.org/1999/xlink">
  <!-- Exported by Scratch - http://scratch.mit.edu/ -->
  <g id="ID0.5977698415517807" transform="matrix(0.6634204387664795, 0, 0, 0.6634204387664795, 0.4, 0.5)">
    <path id="Fill" fill="#FAEC00" d="M 60.156 78.704 L 38.672 89.234 L 54.263 40.710 L 32.413 51.627 L 40.775 4.086 L 2.643 4.087 L 4.544 81.961 L 19.551 72.408 L 9.001 124.262 L 26.232 111.504 L 18.654 175.001 L 29.695 163.562 L 23.270 236.066 L 54.822 133.646 L 39.350 144.628 L 60.156 78.704 "/>
    <path id="Outline" fill="#231F20" d="M 63 75.334 L 44.666 82.917 L 58.500 36.432 L 38.333 45.167 L 45.667 2.334 L 0 0 L 1.666 88.667 L 14.268 79.380 L 5.666 129.776 L 23.084 119.617 L 15 182.917 L 23.839 175.148 L 21.199 248.254 L 63 124.001 L 46.750 135.167 L 63 75.334 L 63 75.334 Z M 53 136.167 L 25.102 226.724 L 30.944 160.830 L 20 172.167 L 27.500 109.320 L 10.500 121.907 L 21 70.300 L 5.500 80.167 L 3.667 5.087 L 39.584 5.086 L 31.084 53.409 L 52.584 42.667 L 37 91.167 L 58.500 80.630 L 37.500 147.167 L 53 136.167 L 53 136.167 Z "/>
  </g>
</svg>