<svg version="1.1" id="Layer_1" x="0px" y="0px" width="150px" height="150px" viewBox="0 0 150 150" enable-background="new 0 0 150 150" xml:space="preserve" xmlns="http://www.w3.org/2000/svg" xmlns:xlink="http://www.w3.org/1999/xlink">
  <g>
    <path fill="#FF9CD1" d="M74.877,91.977c8.803,3.314,22.496,13.125,25.498,15.205c3.661,2.566,8.968,4.741,7.896,7.668&#xD;&#xA;&#x9;c3.043,1.166,5.881,1.006,8.638,0.389c2.467-0.553,1.012-2.875-3.454-4.809c-3.456-1.494-10.283-7.018-13.244-9.486&#xD;&#xA;&#x9;c-5.021-4.187-6.868-7.243-12.01-11.305c-2.057-1.623-3.659-2.957-6.579-2.856C78.289,86.908,73.354,89.573,74.877,91.977z"/>
    <path fill="#FF9CD1" d="M49.871,91.718c-1.932,2.435-0.082,7.405-0.493,10.265c-1.687,11.145,2.797,15.074,4.112,25.341&#xD;&#xA;&#x9;c2.714,0.194,5.552-0.065,6.416-2.08c0.988-2.208-2.015-2.563-2.961-4.808c-2.015-4.679-0.329-8.479,0.658-13.385&#xD;&#xA;&#x9;c0.986-4.904,0.823-7.893,2.796-12.605c0.782-1.913-0.166-4.223-2.632-4.807C54.682,88.893,51.598,89.54,49.871,91.718z"/>
    <path fill="#FF5BA1" d="M54.477,68.587c-2.735,0-5.075-0.297-7.074,0.39c-1.744,0.6-2.543,2.308-4.36,3.25&#xD;&#xA;&#x9;c-1.079,0.558-3.013,0.426-4.36,0.778c-1.81,0.478-4.485,0.666-5.922,1.755c-3.36,2.547-4.16,6.989-1.48,9.811&#xD;&#xA;&#x9;c2.098,2.209,6.046,0.357,8.554,2.34c2.509,1.982,2.304,5.459,5.759,5.847c3.248,0.39,5.099-0.26,8.39-0.26&#xD;&#xA;&#x9;c3.208,0,4.482,2.144,7.567,1.495c3.331-0.684,4.03-2.729,7.486-3.055c3.331-0.324,6.786,2.502,9.128,0.648&#xD;&#xA;&#x9;c4.731-3.736,14.065-1.494,14.808-6.757c0.369-2.664,3.742-3.995,2.633-6.496c-1.15-2.632-3.826-3.509-7.238-4.289&#xD;&#xA;&#x9;c-2.676-0.618-3.66-1.853-5.924-3.119c-3.536-1.982-6.579-1.234-10.732-2.307V51.434c-3.579,0-5.594,0.326-9.172,0.52&#xD;&#xA;&#x9;c-3.084,0.162-7.073,0.423-7.073,2.858C55.465,60.173,54.477,63.227,54.477,68.587z"/>
    <path fill="#CF8C6E" d="M54.807,58.451c-4.03-0.324-7.403-3.995-9.542-7.927c-2.386-4.32-4.977-5.977-6.169-10.59&#xD;&#xA;&#x9;c-0.699-2.632-1.48-4.125-1.727-6.822c-0.124-1.429,0.083-2.664-0.988-3.768c-1.85-1.918-2.878-2.405-3.947-4.678&#xD;&#xA;&#x9;c-0.412-0.909-1.069-2.923,0.165-2.923c1.152,0,1.398,0.714,2.303,1.234c1.152-1.853,0.247-3.769,2.304-5.068&#xD;&#xA;&#x9;c1.233,0.78,1.975,1.787,2.222,3.054c1.193-0.683,2.715-1.961,2.715-0.78c0,0.78-0.166,2.501-0.742,3.638&#xD;&#xA;&#x9;c1.087,0,2.816-0.181,2.879,0.455c0.15,1.504-2.633,4.204-2.633,6.238c0,3.378,0.535,5.49,2.633,8.446&#xD;&#xA;&#x9;c4.359,6.172,9.007,11.305,17.932,11.305c8.884,0,15.341-5.36,16.779-12.28c0.657-3.184,0.739-6.107,0.247-9.356&#xD;&#xA;&#x9;c-0.328-2.242-3.62-1.43-5.347-3.184c-0.45-0.454,0.156-1.3,1.317-1.559c0.748-0.167,1.981,0.131,2.467,0.196&#xD;&#xA;&#x9;c0.657-1.559-1.728-3.087-2.139-4.678c-0.246-0.942,0.123-1.852,1.315-1.624c0.862,0.163,1.027,0.812,1.48,1.429&#xD;&#xA;&#x9;c0-1.461-0.042-3.704,1.811-3.507c1.604,0.162,2.098,1.981,2.221,3.248c1.316-0.812,1.152-1.689,2.879-1.689&#xD;&#xA;&#x9;c0.41,4.191-2.633,6.205-2.467,10.396c0.164,4.255,0.82,6.66,0.82,10.916c0,8.577-2.384,15.204-11.515,20.012&#xD;&#xA;&#x9;c0.781-1.917,0.166-3.151-0.164-5.166c-2.028,0.454-2.255,2.206-3.208,3.542c-1.098,1.537-2.905,2.655-5.347,2.794&#xD;&#xA;&#x9;c-3.227,0.184-4.689-2.469-5.757-5.392c-0.713-0.809-1.459-0.861-2.796-0.976C55.587,55.267,54.807,56.468,54.807,58.451z"/>
    <path fill="#272525" d="M82.729,17.68c0.424-0.629,1.525-1.721,2.76-0.747c1.244,0.984-0.658,6.919-2.658,9.419&#xD;&#xA;&#x9;c2.072,8.149,2.822,26.835-9.266,32.381c-0.082,2.697,0.789,12.542-0.604,14.401c-0.263,0.353-0.93,0.39-1.359,0.556&#xD;&#xA;&#x9;c-1.64-0.244-0.96-2.086-0.856-3.022c0.759-6.877,1.222-12.125,0.603-19.094c0.319-0.451,0.933-0.213,1.108,0.159&#xD;&#xA;&#x9;c0.158,0.334,0.803,4.388,0.856,4.972c9.379-4.426,10.694-22.1,8.393-30.611c1.15-2.047,4.188-7.102,2.586-7.578&#xD;&#xA;&#x9;c-1.6-0.478-0.82,2.625-2.503,4.233c-0.054-2.049,0.304-6.442-1.576-6.421c-1.879,0.021,1.021,6.233-0.401,7.08&#xD;&#xA;&#x9;c-0.453-0.298-1.029-5.184-3.021-4.773c-1.991,0.41,2.473,4.037,1.965,6.285c-1.312,0.342-3.657-1.618-3.979,0.279&#xD;&#xA;&#x9;c0.318,0.624,1.275,0.87,2.016,1.075c1.479,0.409,1.962-0.983,2.695,0.666c2.771,6.219-0.92,17.473-6.322,22.526l-0.604-0.198&#xD;&#xA;&#x9;c-0.381-2.266,9.5-10.833,5.817-21.742c-2.76-0.56-6.539-1.365-4.607-3.917c0.367-0.485,1.153-0.696,2.819-0.199&#xD;&#xA;&#x9;c0.253-1.908-3.053-3.571-1.21-5.648c0.939-1.058,2.051-0.493,2.871,0.278c0.041-1.011,0.48-2.836,2.064-3.023&#xD;&#xA;&#x9;C82.266,14.784,82.343,17.523,82.729,17.68z"/>
    <path fill="#272525" d="M39.59,20.377c0.699-1.365,2.735-1.379,3.151-0.51c0.259,0.536-0.206,2.327-0.806,3.336&#xD;&#xA;&#x9;c0.74-0.421,1.347-0.825,2.016-0.55c3.228,1.325-1.702,5.444-1.813,6.763c-0.416,4.943,3.121,10.871,7.251,14.4&#xD;&#xA;&#x9;c1.551,1.326,3.571,2.388,4.935,3.819c0.06,0.419,0.039,0.927-0.502,1.153c-0.745-0.132-1.666-0.779-2.268-1.153&#xD;&#xA;&#x9;c-7.306-4.556-11.042-12.399-11.028-19.572c1.108-0.899,3.893-3.221,2.568-3.699c-1.325-0.479-1.775,1.591-2.67,2.386&#xD;&#xA;&#x9;c-1.538-0.189,2.534-6.667,0.705-6.324c-1.829,0.341-2.75,4.252-2.856,5.02c0,0,1.057-7.341-0.87-6.253&#xD;&#xA;&#x9;c-1.927,1.089-0.3,6.081-0.706,6.683c0,0-2.569-4.31-3.564-3.321c-0.997,0.988,2.641,5.448,4.975,6.742&#xD;&#xA;&#x9;c0.345,9.006,6.992,24.997,16.115,28.005c0.313-2.327,0.323-4.665,0.455-7c0.266-0.144,0.363-0.494,0.755-0.358&#xD;&#xA;&#x9;c1.616,3.899,0.782,18.208-0.857,22.316c-1.39-0.098-1.545-0.688-1.36-1.592c0.676-3.288,1.17-7.779,1.007-11.099&#xD;&#xA;&#x9;c-9.779-4.864-17.597-20.424-17.425-29.398c-3.219-1.982-5.795-5.024-5.086-8.394c0.264-1.263,1.523-2.253,2.77-0.875l0.748,1.001&#xD;&#xA;&#x9;c0.042-1.624,0.65-3.351,1.217-3.865c0.76-0.691,2.379-0.589,2.77,0.318C39.42,18.828,39.713,19.402,39.59,20.377z"/>
    <path fill="#272525" d="M70.541,52.687c-0.306,2.933-0.759,6.093-4.734,7.28c-1.684,0.503-4.546,0.226-6.043-0.596&#xD;&#xA;&#x9;c-2.321-1.275-2.704-4.656-2.571-6.637c0.193-0.305,1.318-0.666,1.562-0.064c-2.006,5.362,9.195,10.546,10.428-0.26&#xD;&#xA;&#x9;C69.663,52.317,70.139,52.5,70.541,52.687z"/>
    <path fill="#272525" d="M52.259,68.36c0.144,2.03-3.043,0.12-4.582,1.631c-4.602,4.514-7.61,2.041-12.338,4.495&#xD;&#xA;&#x9;c-2.051,1.065-3.738,2.81-3.979,4.774c-0.268,2.194,0.861,4.499,3.273,5.729c1.825,0.931,4.987,0.017,6.296,1.712&#xD;&#xA;&#x9;c1.255,1.624,3.491,5.139,6.144,5.25c3.189,0.132,6.233-1.932,9.316-0.396c2.256,1.119,3.467,2.006,6.296,1.352&#xD;&#xA;&#x9;c2.804-0.648,4.755-3.592,7.958-2.506c2.287,0.776,4.224,1.553,6.546,0.317c1.369-0.727,2.109-1.961,3.728-2.387&#xD;&#xA;&#x9;c3.267-0.856,9.917,0.334,10.022-2.388c0.086-2.233,3.156-2.963,3.625-5.252c0.467-2.268-0.607-3.864-2.869-5.25&#xD;&#xA;&#x9;c-2.609-1.598-6.491-0.596-8.834-2.312c-0.522-0.383-0.674-0.835-1.086-1.229c-1.252-1.194-4.912-1.964-6.8-1.909&#xD;&#xA;&#x9;c-0.46-0.376,0.037-0.871,0.252-1.233c2.171-0.873,5.136-0.085,7.151,0.756c2.245,0.938,0.974,2.841,7.252,3.7&#xD;&#xA;&#x9;c3.761,0.515,8.526,2.714,8.31,6.404c-0.164,2.8-4.418,2.823-4.582,6.403c-0.056,1.218-1.564,3.049-3.123,3.343&#xD;&#xA;&#x9;c-3.52,0.663-6.75-0.328-9.944,1.735c-0.706,0.459-1.077,1.062-1.69,1.525c-2.789,2.111-6.979-2.361-10.122-0.874&#xD;&#xA;&#x9;c-1.75,0.829-2.539,1.823-4.583,2.308c-4.16,0.984-4.454,0.071-8.108-0.955c-2.363-0.664-10.918,2.805-15.259-2.107&#xD;&#xA;&#x9;c-1.033-1.169,0.426-3.477-1.914-4.098c-2.292-0.607-4.677,0.891-7.001-0.6c-5.871-3.755-2.699-12.716,4.484-14.119&#xD;&#xA;&#x9;c2.027-0.397,4.058,0.303,5.893,0c2.091-0.346,2.378-3.314,4.985-4.019C47.879,67.917,51.752,67.664,52.259,68.36z"/>
    <path fill="#272525" d="M69.452,70.059c0.438,0.014,0.697,0.185,0.485,0.769c-2.075,1.634-11.461,0.311-14.051-0.477&#xD;&#xA;&#x9;c-0.206-0.217-0.284-0.51-0.101-0.756C58.766,70.087,67.062,70.602,69.452,70.059z"/>
    <path fill="#272525" d="M69.182,73.611c0.503,0,1.158-0.041,1.36,0.397c0.05,0.556-0.555,0.835-1.108,1.034&#xD;&#xA;&#x9;c-5.036,0.357-10.475,0.438-14.605-1.511c0-0.317,0-0.716,0.453-0.796C59.512,74.089,64.448,74.089,69.182,73.611z"/>
    <path fill="#272525" d="M52.259,74.168c-0.902,0.571-2.292,0.111-3.122,0.796c-1.975,1.632-1.393,5.123-5.339,5.251&#xD;&#xA;&#x9;c-1.842,0.059-3.165-1.627-5.086-1.074c-1.822,0.521-2.686,4.446-4.936,3.144c-0.551-0.32-0.604-1.283-0.251-1.712&#xD;&#xA;&#x9;c3.936-4.782,9.665-0.971,11.834-3.422C48.802,73.264,51.122,72.421,52.259,74.168z"/>
    <path fill="#272525" d="M74.62,74.566c3.541-0.687,2.721,4.148,4.835,4.694c1.793,0.462,3.828-0.417,6.396,0.356&#xD;&#xA;&#x9;c4.096,1.234,2.854,6.682,0,4.416c-0.785-0.624,0.297-2.658-1.41-3.182c-2.084-0.641-7.402,1.451-8.36-1.035&#xD;&#xA;&#x9;C75.512,78.339,77.344,76.514,74.62,74.566z"/>
    <path fill="#272525" d="M44.757,88.014c1.149-2.971,7.296-3.179,7.856-6.087c0.253-1.323,0.219-5.088,6.042-5.928&#xD;&#xA;&#x9;c-0.806,0.19-3.392,2.226-3.978,3.739c-0.635,1.633,1.327,3.604-1.059,4.775c-1.718,0.844-3.767,0.663-4.834,2.269&#xD;&#xA;&#x9;c-0.549,0.819-0.5,2.135-1.812,2.504C46.334,89.466,44.278,89.247,44.757,88.014z"/>
    <path fill="#272525" d="M68.929,89.086c-2.51-1.005,1.45-2.453-0.201-3.54c-1.167-0.771-4.661-1.993-3.525-3.619&#xD;&#xA;&#x9;c0.851-1.218,1.85-2.936,1.108-4.417c-0.143-0.281-0.44-0.408-0.504-0.756c0.185-0.247,0.549-0.221,0.856-0.277&#xD;&#xA;&#x9;c6.364,2.809-1.877,5.809,3.021,7.834C72.982,85.68,72.884,88.868,68.929,89.086z"/>
    <path fill="#272525" d="M88.139,89.006c5.443,4.566,22.475,21.573,30.004,22.723c2.906,0.442,8.022,1.799,10.651,3.653&#xD;&#xA;&#x9;c3.295,2.322-8.879,7.651-21.151,2.108c-1.883-0.85-0.609-3.362-0.354-4.973c-6.479-4.885-24.215-16.77-31.591-19.894&#xD;&#xA;&#x9;c1.21-0.267,1.862-1.092,3.122-0.478c6.77,3.297,22.48,14.107,28.216,18.539c0.847,0.653,2.864,1.436,2.567,2.506&#xD;&#xA;&#x9;c2.836,1.186,4.908,3.115,6.146-0.596c-0.652-0.438-1.448-0.609-2.165-0.955c-8.306-4.021-20.467-17.289-28.317-22.279&#xD;&#xA;&#x9;C85.268,89.364,87.189,89.182,88.139,89.006z"/>
    <path fill="#272525" d="M51.435,92.756c-0.161,2.279-1.108,5.781-1.339,8.064c-0.826,8.168,1.312,15.254,3.625,23.113&#xD;&#xA;&#x9;c0.206,0.7-0.175,1.854,0.957,2.107c2.166,0.488,3.891-2.695,3.273-4.018c-5.388-2.123,0.001-24.295,1.238-28.314&#xD;&#xA;&#x9;c0.75-0.312,1.46,0.104,2.165,0.279c-1.254,3.182-6.012,23.712-3.655,26.683c1.515,0.548,5.121,0.856,5.625,2.296&#xD;&#xA;&#x9;c2.138,6.107-7.158,15.09-12.274,13.18c-1.658-0.621,1.203-8.441,1.37-9.799c0.61-4.94-2.231-8.591-3.183-13.515&#xD;&#xA;&#x9;c-1.055-5.458-1.341-11.308-0.518-19.562C48.97,91.73,48.101,92.077,51.435,92.756z"/>
    <path fill="#FF5BA1" d="M119.627,116.615c3.45,0.699,3.368-1.186,3.879-1.987c1.299,0.413,4.73,1.067,3.977,1.649&#xD;&#xA;&#x9;c-6.416,4.937-13.572,2.207-17.774,0.537c-0.624-0.697-0.845-1.543-0.705-2.388c2.779,1.663,8.093,2.345,8.31-1.511&#xD;&#xA;&#x9;C119.268,113.673,115.291,115.734,119.627,116.615z"/>
    <path fill="#FF9CD1" d="M122.338,114.198c-0.822,1.753-1.893,1.559-2.96,1.104c-0.757-0.638-0.103-1.154-0.103-1.91L122.338,114.198&#xD;&#xA;&#x9;z"/>
    <path fill="#FF5BA1" d="M52.384,135.186c-0.387-0.886,0.474-2.391,0.63-3.254c3.022,1.252,6.231-4.082,1.058-4.576v-0.558&#xD;&#xA;&#x9;c3.036,0.849,6.464-1.339,5.439-4.416c0.732,0.101,2.455,0.72,2.66,1.367C63.096,126.672,60.034,134.34,52.384,135.186z"/>
    <path fill="#FF9CD1" d="M53.368,130.895l0.604-2.307C56.066,128.137,56.054,131.182,53.368,130.895z"/>
    <path fill="#272525" d="M44.114,39.024c-0.452-1.737-3.106-1.818-5.346-1.689c-1.029,0.065-1.522-0.389-2.468-0.714&#xD;&#xA;&#x9;c-1.666-0.585-3.208-0.585-4.606,0.585c-1.074,0.898-1.419,1.704-2.797,2.338c-1.315,0.601-2.405,0.114-3.866,0.455&#xD;&#xA;&#x9;c-1.398,0.325-2.591,0.698-2.961,1.818c-0.371,1.122,0.802,2.177,2.221,2.405c0.844,0,1.604-0.374,2.138,0.129&#xD;&#xA;&#x9;c0.555,0.537,0.103,1.137,0.33,1.819c0.205,0.617,1.068,0.779,1.892,0.779c3.003,0,3.66-3.054,6.663-3.054&#xD;&#xA;&#x9;c2.303,0,4.051,1.04,5.922,0c1.11-0.617,0.33-1.656,0.083-2.728C41.09,40.177,44.361,40.015,44.114,39.024z"/>
    <path fill="#272525" d="M84.254,38.439c2.057-2.599,4.133,0.162,6.251-0.974c1.213-0.65,2.488-0.894,3.783-0.325&#xD;&#xA;&#x9;c0.966,0.423,1.274,1.073,2.386,1.235c2.879,0.454,3.676-1.205,6.088,0.065c1.233,0.649,1.705,3.345,0.575,3.833&#xD;&#xA;&#x9;c-1.131,0.487-2.634,0.602-2.634,1.624c0,0.812,0.352,1.43-0.246,2.08c-1.109,1.202-3.371,1.396-4.852,0.456&#xD;&#xA;&#x9;c-1.502-0.96-1.049-2.6-2.797-3.249c-0.865-0.308-4.936,3.767-7.322-0.196c-0.361-0.603,0.371-1.039,0.164-1.689&#xD;&#xA;&#x9;c-0.185-0.617-2.321-1.121-2.631-1.689C82.712,39.073,83.514,38.569,84.254,38.439z"/>
    <path fill="#272525" d="M80.891,42.326c0.702,0.277,3.817,0.043,4.494-0.625c0.811-0.798-0.779-3.871-1.867-4.084&#xD;&#xA;&#x9;c-0.856-0.17-3.639,0.821-3.869,1.635C79.559,39.568,79.818,41.902,80.891,42.326z"/>
    <path fill="#FF9CD1" d="M80.245,39.446c0.082-0.292,2.22-1.169,2.714-1.071c0.494,0.097,1.688,2.566,1.357,2.891&#xD;&#xA;&#x9;c-0.33,0.325-2.92,0.585-3.33,0.423C80.574,41.525,80.162,39.738,80.245,39.446z"/>
    <path fill="#272525" d="M46.84,42.326c-0.703,0.277-3.818,0.043-4.495-0.625c-0.81-0.798,0.78-3.871,1.866-4.084&#xD;&#xA;&#x9;c0.86-0.17,3.641,0.821,3.87,1.635C48.171,39.568,47.911,41.902,46.84,42.326z"/>
    <path fill="#FF9CD1" d="M47.485,39.446c-0.082-0.292-2.22-1.169-2.714-1.071c-0.493,0.097-1.686,2.566-1.358,2.891&#xD;&#xA;&#x9;c0.329,0.325,2.921,0.585,3.332,0.423C47.156,41.525,47.567,39.738,47.485,39.446z"/>
    <path fill="#272525" d="M46.348,43.896c-0.95-0.618-1.473-1.608-1.113-2.664c0.376-1.072,2.044-0.52,2.488-1.558&#xD;&#xA;&#x9;c0.359-0.846,0.016-1.528,0.458-2.34c0.638-1.153,1.915-1.462,3.207-1.169c2.537,0.585,1.734-1.804,4.19-2.664&#xD;&#xA;&#x9;c2.225-0.779,3.142,0.796,4.189,0.91c1.359,0.146,1.833-1.495,4.189-1.495c2.357,0,2.717,1.641,4.076,1.495&#xD;&#xA;&#x9;c1.047-0.114,1.964-1.689,4.189-0.91c2.456,0.86,1.653,3.249,4.191,2.664c1.291-0.292,2.566,0.016,3.206,1.169&#xD;&#xA;&#x9;c0.44,0.813,0.098,1.495,0.458,2.34c0.441,1.039,2.111,0.487,2.488,1.558c0.358,1.056-0.164,2.046-1.112,2.664H46.348z"/>
    <path fill="#272525" d="M80.08,47.654c-0.754-0.919-0.284-2.217,1.048-2.901c1.334-0.684,3.026-0.494,3.78,0.423&#xD;&#xA;&#x9;c0.756,0.919,0.285,2.217-1.047,2.901C82.527,48.761,80.835,48.571,80.08,47.654z"/>
    <path fill="#CF8C6E" d="M80.312,47.457c0.457,0.557,1.537,0.644,2.416,0.194c0.875-0.449,1.215-1.265,0.756-1.822&#xD;&#xA;&#x9;c-0.455-0.556-1.539-0.644-2.416-0.194C80.193,46.084,79.854,46.899,80.312,47.457z"/>
    <path fill="none" d="M80.08,47.654c-0.754-0.919-0.284-2.217,1.048-2.901c1.334-0.684,3.026-0.494,3.78,0.423&#xD;&#xA;&#x9;c0.756,0.919,0.285,2.217-1.047,2.901C82.527,48.761,80.835,48.571,80.08,47.654z"/>
    <path fill="none" d="M80.08,47.654c-0.754-0.919-0.284-2.217,1.048-2.901c1.334-0.684,3.026-0.494,3.78,0.423&#xD;&#xA;&#x9;c0.756,0.919,0.285,2.217-1.047,2.901C82.527,48.761,80.835,48.571,80.08,47.654z"/>
    <path fill="#272525" d="M47.731,47.654c0.753-0.919,0.284-2.217-1.049-2.901c-1.334-0.684-3.025-0.494-3.781,0.423&#xD;&#xA;&#x9;c-0.754,0.919-0.285,2.217,1.049,2.901C45.283,48.761,46.976,48.571,47.731,47.654z"/>
    <path fill="#CF8C6E" d="M47.5,47.457c-0.457,0.557-1.539,0.644-2.415,0.194c-0.876-0.449-1.216-1.265-0.759-1.822&#xD;&#xA;&#x9;c0.458-0.556,1.541-0.644,2.416-0.194C47.618,46.084,47.957,46.899,47.5,47.457z"/>
    <path fill="none" d="M47.731,47.654c0.753-0.919,0.284-2.217-1.049-2.901c-1.334-0.684-3.025-0.494-3.781,0.423&#xD;&#xA;&#x9;c-0.754,0.919-0.285,2.217,1.049,2.901C45.283,48.761,46.976,48.571,47.731,47.654z"/>
    <path fill="none" d="M47.731,47.654c0.753-0.919,0.284-2.217-1.049-2.901c-1.334-0.684-3.025-0.494-3.781,0.423&#xD;&#xA;&#x9;c-0.754,0.919-0.285,2.217,1.049,2.901C45.283,48.761,46.976,48.571,47.731,47.654z"/>
    <ellipse fill="#272525" cx="63.937" cy="46.171" rx="18.179" ry="8.641"/>
    <path fill="#CF8C6E" d="M80.221,46.171c0,3.352-6.33,7.731-16.284,7.731c-9.951,0-16.283-4.379-16.283-7.731&#xD;&#xA;&#x9;s6.332-7.145,16.283-7.145C73.889,39.026,80.221,42.819,80.221,46.171z"/>
    <path fill="#272525" d="M63.685,45.996h-0.051c-1.48,0.015-1.769,0.72-1.868,1.03c-0.1,0.314-1.092,0.411-1.171-0.008&#xD;&#xA;&#x9;c-0.042-0.216,0.572-1.758,3.042-1.778h0.045c2.474,0.019,3.083,1.562,3.042,1.778c-0.079,0.419-1.073,0.322-1.172,0.008&#xD;&#xA;&#x9;C65.452,46.715,65.163,46.01,63.685,45.996z"/>
    <path fill="#272525" d="M58.401,48.456c3.237,1.703,7.096,1.75,10.277,0.126c0.218-0.111,0.65,0.294,0.48,0.547&#xD;&#xA;&#x9;c-1.738,2.579-9.254,2.275-11.223,0.03C57.715,48.909,58.146,48.322,58.401,48.456z"/>
    <path fill="#272525" d="M74.592,43.396c-1.653,1.439-4.728,2.164-6.321,0.68c-0.709-0.661,0.544-1.501,1.255-0.84&#xD;&#xA;&#x9;c1.141,1.062,3.379,0.833,4.562-0.199C74.391,42.771,74.894,43.13,74.592,43.396z"/>
    <path fill="#272525" d="M52.811,43.396c1.651,1.439,4.727,2.164,6.318,0.68c0.711-0.661-0.544-1.5-1.253-0.84&#xD;&#xA;&#x9;c-1.141,1.062-3.378,0.832-4.562-0.199C53.01,42.771,52.506,43.13,52.811,43.396z"/>
  </g>
</svg>