<svg version="1.1" width="122" height="165" viewBox="-1 -1 122 165" xmlns="http://www.w3.org/2000/svg" xmlns:xlink="http://www.w3.org/1999/xlink">
  <!-- Exported by Scratch - http://scratch.mit.edu/ -->
  <g id="space" transform="matrix(1, 0, 0, 1, -11, -12)">
    <g id="101-c">
      <g id="101-walk-2">
        <g id="Group">
          <path id="Shape" fill="#FFFFFF" stroke="none" stroke-width="1" d="M 26.939 17.196 L 27.993 12.540 L 26.939 9.837 L 24.381 8.185 L 20.919 8.185 L 17.608 9.837 C 17.608 9.837 16.479 9.236 16.479 8.936 C 16.479 8.636 14.583 4.355 14.583 4.355 L 12.266 2.553 L 8.804 1.277 L 5.493 1.877 L 3.160 3.755 L 1.731 6.158 L 1.731 9.762 L 2.859 12.090 L 6.622 14.718 L 4.590 17.196 L 3.687 19.299 L 4.139 22.828 L 5.869 25.756 L 8.578 27.108 L 11.739 27.108 L 14.862 25.832 L 16.932 21.581 L 18.963 21.581 L 21.672 22.227 L 24.983 20.800 L 26.939 17.196 Z " transform="matrix(1, 0, 0, 1, 11, 141.75)"/>
          <path id="Shape" fill="#FFFFFF" stroke="none" stroke-width="1" d="M 37.735 24.179 L 35.517 23.053 L 33.335 23.053 L 31.078 24.179 L 31.078 26.733 C 31.078 26.733 30.927 29.736 31.078 29.962 C 31.228 30.187 33.636 31.538 33.636 31.538 L 35.216 31.538 L 36.797 29.962 L 38.527 32.064 C 38.527 32.064 40.183 32.590 40.484 32.665 C 40.785 32.740 42.741 32.214 42.741 32.214 L 44.171 30.562 L 44.623 27.863 L 43.945 23.954 L 41.688 22.603 L 39.355 23.128 L 37.735 24.179 Z " transform="matrix(1, 0, 0, 1, 11, 141.75)"/>
          <path id="Shape" fill="#30419A" stroke="none" stroke-width="1" d="M 17.345 8.515 C 18.541 8.001 19.641 7.253 20.829 7.072 C 23.619 6.644 26.255 7.097 28.048 9.602 C 28.421 10.122 28.642 10.830 28.711 11.475 C 29.139 15.446 27.655 18.820 25.202 21.807 C 23.981 23.295 20.450 23.675 18.829 22.656 C 18.609 22.517 18.375 22.400 18.054 22.224 C 17.534 23.283 17.206 24.457 16.523 25.431 C 14.598 28.180 11.059 28.816 7.961 28.131 C 6.866 27.888 6.029 27.229 5.161 26.548 C 2.107 24.153 1.778 17.833 4.395 15.159 C 3.950 14.678 3.555 14.131 3.047 13.726 C 1.584 12.563 0.730 11.004 0.470 9.245 C 0.303 8.121 0.337 6.722 0.873 5.784 C 2.510 2.926 4.504 0.308 8.218 0.024 C 8.785 -0.018 9.378 0.148 9.946 0.274 C 14.493 1.277 17.000 4.093 17.345 8.515 Z M 4.435 21.375 C 4.638 21.977 4.798 22.920 5.248 23.696 C 7.091 26.865 12.313 27.129 14.685 24.280 C 15.831 22.905 16.234 21.277 15.938 19.475 C 15.841 18.883 15.713 18.160 16.673 18.006 C 17.636 17.852 17.809 18.538 18.153 19.180 C 18.451 19.733 18.878 20.338 19.409 20.629 C 21.108 21.560 23.586 20.880 24.528 19.172 C 25.353 17.676 26.022 16.083 26.642 14.487 C 27.097 13.315 27.130 11.979 26.465 10.933 C 25.346 9.171 22.245 8.557 20.620 9.355 C 19.296 10.004 18.414 10.977 17.920 12.355 C 17.553 13.379 16.773 13.668 16.038 13.116 C 15.407 12.640 14.925 11.039 15.126 10.260 C 15.534 8.680 15.607 7.193 14.668 5.666 C 12.908 2.801 10.284 1.832 7.112 2.429 C 5.264 2.778 4.319 4.192 3.227 5.454 C 1.920 6.966 2.025 8.670 2.786 10.318 C 3.520 11.908 4.688 13.078 6.634 13.129 C 7.574 13.154 7.955 13.760 8.135 14.632 C 8.335 15.597 7.608 15.691 7.046 15.885 C 5.965 16.257 5.201 16.932 4.948 18.040 C 4.723 19.020 4.635 20.032 4.435 21.375 Z " transform="matrix(1, 0, 0, 1, 11, 141.75)"/>
          <path id="Shape" fill="#30419A" stroke="none" stroke-width="1" d="M 36.833 31.635 C 34.093 34.145 30.532 31.578 29.982 29.210 C 29.764 28.266 29.594 27.280 29.620 26.319 C 29.676 24.310 30.674 22.777 32.545 22.034 C 34.159 21.393 35.717 21.706 37.009 22.959 C 37.113 23.062 37.242 23.138 37.384 23.244 C 37.632 23.045 37.883 22.883 38.084 22.675 C 40.191 20.490 44.338 21.861 44.998 24.307 C 45.512 26.215 46.287 28.085 45.548 30.126 C 44.851 32.047 42.458 34.468 39.586 33.500 C 38.461 33.120 37.334 33.008 36.833 31.635 Z M 31.341 26.839 C 31.735 27.862 31.966 29.001 32.581 29.867 C 32.956 30.393 33.935 30.741 34.621 30.707 C 35.054 30.687 35.641 29.871 35.808 29.309 C 36.060 28.462 36.667 28.150 37.292 28.266 C 37.703 28.341 38.217 28.999 38.306 29.468 C 38.712 31.623 40.564 32.424 42.460 31.273 C 43.626 30.565 43.992 29.484 43.940 28.325 C 43.874 26.852 44.164 25.166 42.613 24.154 C 41.849 23.657 40.984 23.268 40.094 23.808 C 39.404 24.226 38.427 24.561 38.978 25.755 C 39.038 25.887 38.831 26.219 38.665 26.365 C 37.817 27.104 37.170 26.915 36.712 25.853 C 36.513 25.388 36.377 24.756 36.009 24.532 C 35.081 23.964 34.027 23.672 32.957 24.272 C 31.989 24.816 31.500 25.642 31.341 26.839 Z " transform="matrix(1, 0, 0, 1, 11, 141.75)"/>
        </g>
        <g id="Group">
          <path id="Shape" fill="#AFD7F2" stroke="none" stroke-width="1" d="M 90.449 33.791 L 73.819 27.784 L 70.324 26.808 L 44.171 29.060 L 24.907 34.993 L 24.004 36.419 L 24.381 54.592 L 26.337 69.835 L 26.036 81.174 L 26.111 82.976 L 37.323 87.332 L 51.569 93.264 L 57.791 91.987 L 79.613 86.639 L 90.976 82.826 L 91.803 81.850 L 91.803 67.057 C 91.803 67.057 91.489 34.167 90.449 33.791 Z " transform="matrix(1, 0, 0, 1, 20.6, 12)"/>
          <path id="Shape" fill="#AFD7F2" stroke="none" stroke-width="1" d="M 47.933 90.410 L 46.127 93.264 L 42.741 96.418 L 39.280 98.445 L 31.604 100.548 L 24.907 99.046 L 21.521 97.769 L 18.361 100.548 L 19.489 102.575 L 24.983 105.128 L 31.153 106.029 L 37.624 105.353 L 45.074 102.125 L 43.720 104.603 L 42.666 107.306 L 41.914 113.463 L 42.817 118.495 L 44.472 122.024 L 47.933 126.004 L 51.569 127.505 L 56.136 127.505 L 60.350 125.328 L 64.563 120.372 L 67.649 112.637 L 69.455 105.729 L 69.455 99.271 L 72.314 99.797 L 76.227 100.998 L 81.118 101.674 L 85.934 101.524 L 91.126 100.097 L 96.770 97.394 L 94.287 92.363 L 89.998 94.465 L 86.431 95.441 L 81.118 96.042 L 75.174 94.690 L 69.379 92.513 L 68.777 87.782 L 47.933 90.410 " transform="matrix(1, 0, 0, 1, 20.6, 12)"/>
          <path id="Shape" fill="#FFFFFF" stroke="none" stroke-width="1" d="M 64.864 50.987 L 60.274 50.987 L 56.136 52.189 L 53.577 53.991 L 52.373 57.220 L 53.427 60.036 L 56.361 62.188 L 64.864 60.599 L 64.864 50.987 " transform="matrix(1, 0, 0, 1, 20.6, 12)"/>
          <path id="Shape" fill="#FFFFFF" stroke="none" stroke-width="1" d="M 83.752 46.707 L 78.409 47.683 L 75.249 49.356 L 73.669 51.440 L 73.669 53.615 L 74.797 55.868 L 76.678 56.588 L 80.743 56.272 L 85.407 53.841 L 83.752 46.707 " transform="matrix(1, 0, 0, 1, 20.6, 12)"/>
          <path id="Shape" fill="#F7EC1E" stroke="none" stroke-width="1" d="M 55.674 1.502 L 53.652 4.130 L 49.514 15.694 L 47.106 24.104 L 45.601 29.511 L 46.052 32.440 L 49.664 35.518 L 56.726 37.095 L 63.660 36.119 L 67.874 34.542 L 71.578 31.238 L 70.884 29.286 L 63.660 14.943 L 55.674 1.502 " transform="matrix(1, 0, 0, 1, 20.6, 12)"/>
          <path id="Shape" fill="#F7EC1E" stroke="none" stroke-width="1" d="M 33.636 54.216 L 30.250 53.615 L 25.810 54.817 L 18.963 58.722 L 12.190 63.040 L 5.945 67.658 L 1.580 71.788 L 2.257 72.538 L 11.965 74.840 L 24.531 76.593 L 33.636 77.119 L 37.925 73.289 L 40.559 65.367 L 39.506 60.449 L 35.969 56.272 L 33.636 54.216 " transform="matrix(1, 0, 0, 1, 20.6, 12)"/>
          <path id="Shape" fill="#F7EC1E" stroke="none" stroke-width="1" d="M 91.277 44.229 L 92.180 62.188 L 108.433 48.960 L 108.433 47.908 L 99.855 45.881 L 91.277 44.229 " transform="matrix(1, 0, 0, 1, 20.6, 12)"/>
          <path id="Shape" fill="#F7EC1E" stroke="none" stroke-width="1" d="M 69.455 102.049 L 69.455 99.271 L 67.272 97.469 L 64.262 97.469 L 60.947 98.821 L 59.522 101.299 L 59.522 104.377 L 60.947 107.644 L 63.886 109.559 L 68.025 109.033 L 69.078 106.104 L 69.455 102.049 " transform="matrix(1, 0, 0, 1, 20.6, 12)"/>
          <path id="Shape" fill="#FCF6B6" stroke="none" stroke-width="1" d="M 83.978 64.203 L 58.619 70.661 L 57.904 72.163 L 58.619 85.454 L 85.784 77.795 L 84.730 65.367 L 83.978 64.203 " transform="matrix(1, 0, 0, 1, 20.6, 12)"/>
          <path id="Shape" fill="#E63C32" stroke="none" stroke-width="1" d="M 21.521 97.469 L 17.683 100.773 L 15.125 100.773 L 11.814 100.097 L 8.428 98.370 L 5.794 94.165 L 5.230 90.560 L 6.396 88.984 L 8.052 88.984 L 10.384 90.636 L 11.739 92.513 L 13.376 94.165 L 15.351 94.879 L 17.683 93.714 L 18.361 91.912 L 17.006 87.782 L 15.877 84.253 L 17.157 82.826 L 19.152 82.451 L 21.070 83.652 L 22.876 86.639 L 24.004 89.059 L 24.004 91.612 L 24.004 94.165 L 22.650 96.643 L 21.521 97.469 " transform="matrix(1, 0, 0, 1, 20.6, 12)"/>
          <path id="Shape" fill="#E63C32" stroke="none" stroke-width="1" d="M 102.639 84.778 L 102.639 83.051 L 100.909 82.451 L 99.178 83.051 L 96.770 85.079 L 95.265 87.782 L 94.512 91.612 L 95.340 94.465 L 98.576 99.121 L 103.241 101.449 L 106.477 101.449 L 108.433 100.247 L 109.713 98.220 L 109.035 96.643 L 107.004 95.817 L 104.069 95.366 L 102.113 94.465 L 100.231 92.663 L 99.855 90.185 L 101.435 86.639 L 102.639 84.778 " transform="matrix(1, 0, 0, 1, 20.6, 12)"/>
          <path id="Shape" fill="#E63C32" stroke="none" stroke-width="1" d="M 54.781 128.181 L 51.019 127.505 L 46.353 125.403 L 39.205 134.714 L 39.205 135.615 L 40.559 136.967 L 51.922 139.070 L 55.674 139.070 L 56.726 138.394 L 54.781 128.181 " transform="matrix(1, 0, 0, 1, 20.6, 12)"/>
          <path id="Shape" fill="#30419A" stroke="none" stroke-width="1" d="M 96.406 98.396 C 96.400 98.397 96.394 98.398 96.389 98.398 C 96.201 98.419 95.871 98.775 95.675 98.874 C 95.116 99.156 94.623 99.486 94.062 99.773 C 93.649 99.986 93.255 100.228 92.848 100.435 C 92.172 100.779 91.466 101.119 90.728 101.305 C 90.035 101.481 89.361 101.758 88.667 101.914 C 87.691 102.133 86.693 102.235 85.699 102.344 C 82.818 102.662 79.902 102.530 77.040 102.101 C 75.435 101.861 73.887 101.252 72.307 100.833 C 71.817 100.702 71.309 100.635 70.710 100.520 C 70.615 100.896 70.481 101.241 70.444 101.599 C 70.225 103.721 70.134 105.864 69.785 107.964 C 69.501 109.677 68.974 111.358 68.452 113.019 C 67.876 114.846 67.361 116.727 66.496 118.418 C 65.752 119.868 64.928 121.276 64.056 122.653 C 63.672 123.258 63.195 123.687 62.770 124.246 C 62.458 124.657 62.163 125.033 61.829 125.418 C 61.193 126.150 60.351 126.794 59.469 127.209 C 58.654 127.594 57.866 127.957 57.027 128.282 C 56.905 128.330 56.177 128.466 56.133 128.512 C 55.906 128.742 56.150 129.278 56.226 129.497 C 56.604 130.582 56.625 131.849 56.851 132.991 C 57.137 134.436 57.455 135.876 57.753 137.319 C 58.107 139.039 57.152 140.302 55.410 140.251 C 53.624 140.201 51.809 140.252 50.062 139.946 C 46.884 139.390 43.736 138.650 40.598 137.892 C 38.990 137.504 38.132 136.345 38.113 134.873 C 38.111 134.685 38.155 134.457 38.264 134.311 C 40.362 131.460 42.431 128.587 44.609 125.799 C 45.238 124.994 45.173 124.463 44.598 123.758 C 42.472 121.144 41.457 118.161 41.204 114.783 C 40.997 112.002 41.568 109.416 42.293 106.814 C 42.440 106.289 42.591 105.731 42.762 105.218 C 42.847 104.962 43.226 104.097 43.410 103.980 C 42.300 104.685 41.393 105.174 40.112 105.516 C 38.751 105.878 37.380 106.223 35.983 106.417 C 30.319 107.204 24.947 106.482 19.854 103.826 C 19.126 103.446 18.474 102.945 17.803 102.477 C 17.545 102.297 17.278 102.024 16.971 101.961 C 16.629 101.890 16.259 102.082 15.911 102.055 C 15.071 101.992 14.111 101.738 13.291 101.535 C 11.264 101.034 9.434 99.985 7.836 98.662 C 5.487 96.716 4.416 94.346 4.206 91.440 C 4.105 90.034 4.565 88.836 5.753 88.061 C 6.995 87.252 8.359 87.419 9.410 88.329 C 10.491 89.265 11.346 90.463 12.281 91.563 C 12.594 91.933 12.843 92.357 13.134 92.747 C 13.968 93.870 15.179 93.682 16.270 93.474 C 17.417 93.254 17.771 92.341 17.271 90.958 C 16.870 89.847 16.317 88.782 15.744 87.744 C 14.923 86.256 14.627 84.718 15.267 83.128 C 15.811 81.779 18.326 81.009 19.920 81.616 C 21.653 82.276 22.684 83.698 23.433 85.245 C 24.621 87.694 25.558 90.330 25.223 93.077 C 25.048 94.511 23.956 95.681 23.384 96.958 C 24.447 97.515 25.509 98.088 26.530 98.726 C 27.999 99.645 29.566 99.696 31.256 99.699 C 34.043 99.702 36.385 98.645 38.875 97.583 C 40.276 96.986 41.537 96.127 42.684 95.133 C 43.275 94.620 43.828 94.071 44.383 93.520 C 44.831 93.074 45.041 92.577 45.444 92.120 C 45.690 91.841 46.107 91.713 46.401 91.472 C 45.697 91.489 45.119 91.008 44.462 90.836 C 43.723 90.643 43.035 90.501 42.295 90.235 C 40.651 89.642 38.998 89.069 37.370 88.433 C 33.463 86.904 29.574 85.332 25.695 83.735 C 25.416 83.620 25.119 83.156 25.109 82.845 C 25.052 81.124 25.082 79.401 25.082 77.601 C 23.884 77.368 22.762 77.078 21.621 76.940 C 19.068 76.631 16.489 76.477 13.951 76.099 C 12.620 75.901 11.273 75.566 9.958 75.399 C 9.047 75.283 8.189 75.165 7.290 74.943 C 5.997 74.625 4.748 74.302 3.455 73.957 C 2.597 73.729 1.649 73.634 0.963 73.021 C 0.017 72.177 0.520 71.250 1.357 70.522 C 3.759 68.438 6.143 66.321 8.667 64.391 C 10.847 62.724 13.210 61.295 15.487 59.752 C 16.779 58.877 18.069 57.998 19.359 57.118 C 20.155 56.575 21.024 56.147 21.822 55.608 C 22.330 55.265 23.313 54.894 23.529 54.266 C 23.711 53.736 23.540 53.066 23.599 52.512 C 23.679 51.758 23.603 50.993 23.559 50.231 C 23.466 48.596 23.351 46.963 23.249 45.329 C 23.107 43.053 22.832 40.777 22.859 38.503 C 22.875 37.088 23.221 35.637 23.678 34.289 C 23.824 33.858 24.775 33.625 25.399 33.446 C 26.641 33.088 27.924 32.870 29.168 32.520 C 32.403 31.609 35.614 30.613 38.859 29.742 C 39.823 29.483 40.775 29.182 41.740 28.923 C 42.505 28.719 43.087 28.389 43.878 28.224 C 44.356 28.124 44.816 27.971 45.294 27.875 C 45.358 26.758 45.670 25.482 46.037 24.434 C 46.436 23.292 46.589 22.084 46.934 20.927 C 47.899 17.679 48.815 14.401 50.049 11.252 C 51.404 7.794 51.993 4.015 54.268 0.929 C 54.955 -0.001 55.729 -0.147 56.414 0.740 C 57.067 1.584 57.549 2.562 58.096 3.486 C 58.566 4.279 59.020 5.082 59.484 5.878 C 60.914 8.320 62.350 10.759 63.772 13.205 C 64.521 14.491 65.301 15.763 65.969 17.090 C 66.766 18.673 67.409 20.334 68.211 21.914 C 68.882 23.236 69.631 24.529 70.469 25.750 C 70.691 26.074 71.374 26.064 71.828 26.251 C 73.462 26.923 75.057 27.711 76.727 28.276 C 79.836 29.328 82.991 30.247 86.123 31.236 C 87.770 31.757 89.424 32.268 91.038 32.880 C 91.327 32.990 91.563 33.556 91.610 33.938 C 91.819 35.649 91.972 37.367 92.102 39.086 C 92.187 40.208 92.146 41.340 92.271 42.456 C 92.308 42.796 92.653 43.310 92.947 43.382 C 94.652 43.796 96.386 44.073 98.094 44.477 C 98.865 44.660 99.615 44.931 100.383 45.109 C 101.245 45.309 102.139 45.332 102.997 45.557 C 103.819 45.773 104.619 45.954 105.437 46.118 C 106.700 46.369 109.646 46.638 109.466 48.495 C 109.379 49.392 108.478 50.040 107.883 50.620 C 107.114 51.369 106.324 52.097 105.507 52.793 C 103.589 54.425 101.575 55.941 99.607 57.514 C 98.270 58.583 96.941 59.662 95.612 60.742 C 94.921 61.302 94.174 61.811 93.578 62.459 C 93.260 62.807 93.063 63.401 93.064 63.883 C 93.080 68.428 93.158 72.975 93.197 77.521 C 93.208 78.778 93.210 80.042 93.100 81.292 C 92.944 83.063 92.083 83.936 90.378 84.377 C 86.282 85.435 82.200 86.546 78.100 87.587 C 76.842 87.906 75.521 87.986 74.272 88.328 C 73.066 88.659 71.913 89.189 70.737 89.629 C 70.495 89.720 70.248 89.801 69.968 89.898 C 69.881 90.629 70.189 90.990 70.840 91.448 C 73.229 93.126 76.010 93.813 78.693 94.702 C 81.199 95.533 83.815 95.465 86.340 94.620 C 88.242 93.983 90.145 93.311 91.960 92.468 C 92.872 92.045 93.599 91.322 93.712 90.056 C 93.899 87.974 94.458 85.935 95.814 84.259 C 97.038 82.746 98.555 81.438 100.506 81.205 C 101.365 81.103 102.471 81.828 103.226 82.461 C 103.933 83.054 104.255 84.033 103.687 85.016 C 102.854 86.457 102.036 87.907 101.186 89.339 C 100.843 89.918 100.489 90.926 100.595 91.618 C 100.649 91.968 100.809 92.286 100.994 92.575 C 101.999 94.153 103.567 94.190 105.254 94.521 C 106.371 94.742 107.576 94.668 108.627 95.047 C 109.917 95.512 110.944 96.628 110.894 97.999 C 110.834 99.615 110.121 101.062 108.441 101.864 C 105.840 103.106 103.201 103.425 100.699 101.921 C 99.955 101.474 99.284 100.919 98.638 100.343 C 98.303 100.044 97.974 99.736 97.645 99.431 C 97.342 99.151 96.884 98.365 96.406 98.396 Z M 89.815 35.495 C 87.738 36.173 86.028 36.843 84.261 37.284 C 81.113 38.069 77.920 38.669 74.767 39.431 C 70.476 40.468 66.199 41.560 61.927 42.675 C 58.285 43.625 54.681 44.731 51.014 45.569 C 49.826 45.840 49.945 46.368 50.013 47.192 C 50.184 49.255 50.355 51.322 50.428 53.390 C 50.520 56.008 50.503 58.629 50.555 61.249 C 50.603 63.715 50.671 66.180 50.747 68.645 C 50.798 70.319 50.863 71.993 50.948 73.665 C 51.173 78.129 51.379 82.596 51.662 87.056 C 51.768 88.727 52.064 90.386 52.290 92.180 C 53.478 91.948 54.578 91.782 55.653 91.516 C 59.184 90.639 62.706 89.715 66.235 88.829 C 68.123 88.355 70.036 87.974 71.911 87.455 C 74.890 86.632 77.837 85.695 80.815 84.870 C 83.070 84.245 85.359 83.742 87.620 83.137 C 88.373 82.935 89.066 82.461 89.825 82.329 C 90.767 82.164 91.235 81.421 91.233 80.363 C 91.229 78.763 91.153 77.164 91.129 75.564 C 91.102 73.794 91.022 72.033 90.951 70.263 C 90.848 67.701 90.850 65.179 90.850 62.617 C 90.850 61.319 90.850 60.022 90.850 58.725 C 90.850 57.132 90.751 55.565 90.749 53.985 C 90.748 52.757 90.749 51.528 90.749 50.300 C 90.749 49.331 90.719 48.368 90.697 47.400 C 90.678 46.574 90.624 45.770 90.584 44.964 C 90.435 41.827 90.085 38.700 89.815 35.495 Z M 49.741 90.911 C 49.900 90.476 49.790 89.829 49.847 89.369 C 49.934 88.675 49.868 87.943 49.825 87.246 C 49.729 85.681 49.652 84.115 49.588 82.549 C 49.518 80.835 49.512 79.118 49.470 77.403 C 49.422 75.385 49.397 73.366 49.302 71.351 C 49.219 69.574 49.103 67.793 48.915 66.024 C 48.549 62.547 49.149 59.062 48.689 55.574 C 48.383 53.253 48.554 50.873 48.351 48.533 C 48.268 47.557 48.050 46.268 47.394 45.741 C 46.301 44.863 44.823 44.440 43.476 43.904 C 42.047 43.337 40.558 42.919 39.138 42.335 C 34.799 40.553 30.479 38.723 26.152 36.910 C 25.339 36.569 24.738 36.420 24.795 37.704 C 24.936 40.869 24.992 44.037 25.086 47.205 C 25.110 48.054 25.201 48.880 25.223 49.726 C 25.247 50.624 25.120 51.522 25.197 52.419 C 25.256 53.114 24.951 53.892 25.960 53.653 C 26.827 53.448 27.667 53.140 28.539 52.949 C 31.687 52.260 34.167 53.121 36.526 55.250 C 37.846 56.441 38.946 57.856 39.876 59.365 C 41.432 61.887 41.986 64.572 41.132 67.316 C 40.101 70.622 38.975 73.972 36.060 76.267 C 35.693 76.556 35.500 77.090 35.114 77.325 C 34.470 77.719 33.731 78.226 33.039 78.217 C 31.173 78.190 29.311 77.909 27.445 77.747 C 27.282 77.733 27.107 77.844 27.067 77.857 C 27.029 78.518 27.028 79.059 26.965 79.595 C 26.672 82.076 26.912 82.567 28.972 83.363 C 31.195 84.223 33.428 85.060 35.664 85.887 C 39.253 87.214 42.850 88.523 46.443 89.843 C 47.086 90.079 47.734 90.397 48.380 90.606 C 48.783 90.736 49.382 90.654 49.718 90.968 C 49.726 90.951 49.733 90.932 49.741 90.911 Z M 3.028 71.447 C 2.925 71.558 2.825 71.670 2.725 71.783 C 2.959 72.029 3.864 72.182 4.238 72.320 C 4.989 72.596 5.780 72.814 6.559 72.993 C 8.558 73.453 10.562 73.939 12.591 74.210 C 15.888 74.650 19.204 74.941 22.515 75.267 C 25.969 75.606 29.423 75.963 32.885 76.183 C 33.525 76.223 34.400 75.819 34.832 75.328 C 37.356 72.460 38.978 69.114 39.308 65.296 C 39.426 63.941 39.275 62.330 38.620 61.195 C 37.578 59.391 36.083 57.822 34.644 56.280 C 33.249 54.786 31.446 53.990 29.369 54.445 C 26.734 55.022 24.235 56.005 21.988 57.531 C 18.114 60.162 14.196 62.735 10.411 65.491 C 7.963 67.274 5.126 69.176 3.028 71.447 Z M 46.368 30.005 C 46.754 30.965 46.971 31.972 47.511 32.756 C 48.705 34.490 50.587 35.189 52.563 35.632 C 54.984 36.175 57.440 36.364 59.892 35.968 C 62.981 35.470 66.110 35.106 68.705 33.017 C 70.053 31.932 70.559 30.721 69.856 29.181 C 69.069 27.455 68.281 25.730 67.448 24.027 C 65.582 20.209 63.710 16.395 61.789 12.605 C 61.372 11.782 60.719 11.083 60.206 10.304 C 59.552 9.313 58.893 8.321 58.309 7.289 C 57.572 5.989 56.912 4.648 56.211 3.329 C 55.877 2.702 55.446 2.622 55.050 3.242 C 54.611 3.932 54.142 4.632 53.864 5.392 C 53.213 7.176 52.674 9.001 52.077 10.806 C 50.843 14.536 49.529 18.242 48.389 22.001 C 47.602 24.592 47.053 27.255 46.368 30.005 Z M 67.252 110.936 C 67.385 110.647 67.529 110.317 67.505 110.000 C 67.089 109.981 66.599 110.380 66.177 110.481 C 65.621 110.612 65.042 110.630 64.475 110.576 C 63.439 110.478 62.149 110.189 61.376 109.470 C 60.611 108.758 59.882 107.953 59.345 107.052 C 58.516 105.657 58.026 104.113 58.220 102.490 C 58.320 101.640 58.837 100.846 59.073 100.001 C 59.615 98.055 61.142 97.110 62.871 96.739 C 64.724 96.342 66.732 95.632 68.621 97.408 C 68.346 94.905 68.107 92.721 67.855 90.429 C 65.817 90.874 63.910 91.259 62.018 91.711 C 59.661 92.274 57.319 92.902 54.967 93.482 C 53.605 93.818 52.071 93.831 51.795 95.751 C 51.722 96.257 51.260 96.723 50.926 97.171 C 50.348 97.947 49.751 98.711 49.124 99.446 C 48.308 100.400 47.457 101.324 46.615 102.255 C 46.265 102.642 45.780 102.953 45.559 103.400 C 45.045 104.439 44.603 105.520 44.233 106.619 C 44.017 107.263 43.831 107.874 43.812 108.557 C 43.790 109.323 44.019 109.648 44.488 110.227 C 45.300 111.232 46.428 111.864 47.496 112.561 C 48.564 113.258 49.783 113.826 50.979 114.247 C 53.883 115.272 56.911 116.369 60.044 115.995 C 61.432 115.830 62.884 115.710 64.169 115.112 C 64.809 114.814 65.386 114.394 65.825 113.836 C 66.312 113.218 66.433 112.422 66.822 111.747 C 66.942 111.537 67.110 111.243 67.252 110.936 Z M 87.431 34.530 C 87.821 34.415 88.234 34.248 88.245 34.024 C 88.266 33.592 87.028 33.235 86.728 33.135 C 85.680 32.787 84.610 32.415 83.589 31.926 C 82.566 31.436 81.354 31.313 80.266 30.963 C 79.457 30.703 78.698 30.318 77.884 30.082 C 75.681 29.443 73.540 28.662 71.362 27.944 C 71.764 29.236 72.060 30.157 72.333 31.085 C 72.401 31.319 72.487 31.612 72.407 31.816 C 71.477 34.165 69.659 35.599 67.365 36.453 C 64.488 37.527 61.463 37.864 58.421 38.141 C 55.614 38.396 52.964 37.701 50.417 36.780 C 48.907 36.234 47.534 35.342 46.466 34.140 C 45.910 33.514 45.486 32.822 45.076 32.096 C 44.920 31.819 44.683 31.546 44.559 31.256 C 44.272 30.581 44.523 29.987 43.539 30.156 C 42.602 30.318 41.675 30.727 40.753 30.971 C 39.839 31.213 38.952 31.505 38.046 31.775 C 36.867 32.127 35.697 32.488 34.506 32.826 C 32.652 33.354 30.756 33.878 28.941 34.506 C 28.306 34.726 27.474 34.920 26.940 35.354 C 31.081 37.027 35.235 38.726 39.407 40.381 C 41.566 41.238 43.844 41.843 45.911 42.874 C 48.108 43.971 50.275 43.786 52.452 43.266 C 56.627 42.269 60.756 41.087 64.922 40.046 C 68.661 39.112 72.420 38.262 76.172 37.381 C 78.360 36.866 80.566 36.418 82.735 35.832 C 84.111 35.461 85.436 35.071 86.800 34.691 C 86.910 34.660 87.165 34.607 87.431 34.530 Z M 43.239 111.720 C 43.228 111.790 43.192 111.958 43.177 112.128 C 42.869 115.672 43.940 118.914 45.651 121.907 C 46.989 124.248 48.847 126.223 51.740 126.625 C 54.568 127.018 57.323 126.643 59.561 124.742 C 60.422 124.011 61.109 123.181 61.812 122.312 C 62.544 121.406 63.397 120.621 63.990 119.607 C 64.338 119.012 65.321 117.426 65.019 116.733 C 64.397 117.059 63.921 117.323 63.240 117.550 C 62.579 117.768 61.894 117.901 61.204 117.978 C 58.026 118.331 54.630 117.870 51.620 116.830 C 50.093 116.302 48.629 115.603 47.251 114.761 C 46.533 114.323 45.840 113.846 45.170 113.337 C 44.920 113.147 43.196 111.993 43.239 111.720 Z M 93.033 60.491 C 94.522 59.418 95.837 58.561 97.046 57.574 C 98.947 56.023 100.746 54.348 102.645 52.794 C 104.184 51.534 105.805 50.378 107.645 48.983 C 102.526 47.136 97.395 46.832 92.370 45.282 C 92.404 50.413 92.421 55.353 93.033 60.491 Z M 14.902 100.047 C 16.529 100.154 17.829 99.379 19.036 98.387 C 19.410 98.080 19.772 97.777 20.155 97.468 C 20.752 96.983 21.393 96.538 21.859 95.910 C 22.396 95.185 22.985 94.407 23.213 93.520 C 23.453 92.586 23.166 91.514 23.081 90.574 C 22.867 88.233 22.068 86.118 20.335 84.507 C 19.718 83.934 18.837 83.262 17.816 83.916 C 16.799 84.566 16.941 85.452 17.381 86.372 C 17.883 87.418 18.452 88.437 18.882 89.513 C 19.453 90.938 19.910 92.436 19.125 93.918 C 17.827 96.366 12.878 96.226 11.785 94.253 C 11.035 92.901 10.027 91.671 8.992 90.511 C 8.573 90.041 7.796 89.776 7.145 89.686 C 6.921 89.655 6.363 90.432 6.340 90.860 C 6.256 92.430 6.246 94.056 7.181 95.419 C 9.027 98.109 11.472 99.875 14.902 100.047 Z M 105.350 100.772 C 105.870 100.572 106.874 100.291 107.768 99.806 C 108.836 99.230 108.709 98.122 107.770 97.398 C 106.880 96.711 105.927 97.168 105.030 96.953 C 103.553 96.598 101.774 96.535 100.673 95.346 C 100.405 95.057 100.214 94.709 99.955 94.441 C 99.714 94.192 99.517 94.061 99.370 93.721 C 99.115 93.131 99.124 92.462 99.000 91.841 C 98.755 90.611 99.276 89.380 99.770 88.248 C 100.258 87.126 101.026 86.126 101.527 85.009 C 101.978 84.003 101.440 83.286 100.386 83.573 C 99.496 83.814 98.589 84.348 97.929 84.996 C 96.294 86.601 95.675 88.773 95.706 90.935 C 95.721 92.075 96.228 93.001 96.562 94.051 C 96.982 95.373 97.603 96.366 98.459 97.445 C 98.952 98.067 99.705 98.616 100.319 99.129 C 101.723 100.302 103.564 100.683 105.350 100.772 Z M 65.530 108.806 C 66.654 108.810 67.661 108.084 67.882 106.891 C 68.220 105.062 68.494 103.216 68.664 101.366 C 68.808 99.812 67.138 98.035 65.737 98.187 C 64.852 98.282 63.943 98.467 63.129 98.808 C 62.447 99.095 61.750 99.559 61.299 100.133 C 60.165 101.576 59.931 103.231 60.593 104.978 C 61.354 106.978 63.407 109.052 65.530 108.806 Z M 50.208 93.532 C 48.876 92.375 47.961 92.953 46.991 93.877 C 45.575 95.231 44.036 96.456 42.605 97.796 C 42.364 98.020 42.204 98.643 42.345 98.902 C 42.856 99.843 43.510 100.708 44.188 101.718 C 45.539 100.555 46.924 99.683 47.867 98.470 C 48.998 97.013 51.075 95.854 50.208 93.532 Z M 45.152 136.662 C 45.208 136.551 47.613 137.082 47.891 137.124 C 48.331 137.189 49.525 137.564 49.882 137.180 C 50.148 136.894 49.983 136.184 49.983 135.837 C 49.985 135.180 50.102 134.520 50.196 133.867 C 50.364 132.698 50.499 131.520 50.711 130.357 C 50.969 128.945 50.860 128.721 49.402 128.292 C 48.015 131.022 46.622 133.764 45.152 136.662 Z M 47.806 127.609 C 46.450 126.014 46.129 126.133 45.220 127.823 C 44.447 129.260 43.367 130.529 42.453 131.891 C 41.944 132.650 41.561 133.435 41.123 134.203 C 40.802 134.764 40.064 135.317 40.987 135.757 C 41.286 135.900 41.895 135.980 42.228 135.965 C 42.888 135.934 43.498 135.337 43.805 134.818 C 44.362 133.877 44.855 132.893 45.385 131.936 C 46.177 130.503 46.982 129.079 47.806 127.609 Z M 51.936 135.675 C 51.891 136.644 51.953 137.531 52.335 137.695 C 52.720 137.860 53.463 137.717 53.892 137.717 C 54.231 137.717 55.145 137.890 55.434 137.719 C 55.918 137.431 55.570 135.737 55.476 135.321 C 55.228 134.207 54.944 133.100 54.687 131.988 C 54.549 131.393 54.463 129.214 53.778 128.956 C 53.631 128.901 52.805 128.891 52.727 128.951 C 52.423 129.189 52.439 130.065 52.400 130.397 C 52.297 131.273 52.241 132.155 52.187 133.035 C 52.161 133.461 51.985 134.617 51.936 135.675 Z M 34.909 104.446 C 34.974 104.502 35.058 104.545 35.169 104.578 C 36.502 104.965 37.983 104.570 39.226 104.059 C 40.061 103.716 42.218 103.005 41.458 101.816 C 40.994 101.090 40.773 100.275 40.365 99.547 C 40.002 98.898 39.056 99.561 38.441 99.786 C 37.869 99.997 37.417 100.267 36.826 100.408 C 36.137 100.572 34.728 100.599 34.463 101.276 C 34.208 101.929 34.415 103.155 34.594 103.748 C 34.688 104.061 34.729 104.296 34.909 104.446 Z M 94.068 93.464 C 92.411 94.281 90.755 95.098 89.098 95.915 C 88.381 96.270 88.025 96.380 88.170 97.225 C 88.325 98.126 88.553 98.999 88.601 99.916 C 89.359 99.783 90.188 99.313 90.938 99.072 C 91.805 98.792 92.689 98.412 93.525 98.014 C 94.127 97.727 94.631 97.486 95.163 97.104 C 95.777 96.664 95.460 96.352 95.169 95.808 C 94.763 95.051 94.434 94.241 94.068 93.464 Z M 33.279 104.774 C 33.210 104.108 33.043 103.435 32.920 102.775 C 32.869 102.499 32.822 101.426 32.600 101.279 C 32.547 101.244 31.858 101.407 31.709 101.420 C 31.048 101.482 30.362 101.497 29.689 101.473 C 29.051 101.450 28.400 101.390 27.793 101.246 C 27.301 101.129 26.350 100.690 26.052 101.405 C 25.763 102.099 25.547 102.821 25.317 103.537 C 25.142 104.085 25.054 104.193 25.635 104.396 C 26.063 104.545 26.532 104.571 26.977 104.640 C 27.759 104.764 28.533 104.937 29.334 104.977 C 30.698 105.045 31.946 105.028 33.279 104.774 Z M 70.415 93.881 C 70.355 93.859 70.294 93.837 70.232 93.816 C 69.959 94.609 70.299 95.732 70.332 96.566 C 70.350 97.038 70.167 97.728 70.482 98.135 C 70.752 98.485 71.822 98.815 72.240 98.881 C 72.673 98.948 73.289 99.196 73.718 99.015 C 74.125 98.842 74.239 98.341 74.408 97.962 C 74.477 97.808 75.316 95.815 75.381 95.841 C 73.731 95.198 72.078 94.473 70.415 93.881 Z M 77.522 96.379 C 77.371 96.395 76.281 98.843 76.188 99.099 C 75.800 100.173 76.722 100.194 77.568 100.414 C 78.363 100.622 79.582 101.080 80.384 100.724 C 80.977 100.461 80.768 99.659 80.768 99.055 C 80.768 98.348 80.800 97.628 80.760 96.925 C 79.691 96.547 78.590 96.881 77.522 96.379 Z M 24.570 100.325 C 24.662 100.160 24.727 100.057 24.741 100.069 C 24.429 99.787 23.929 99.678 23.567 99.461 C 23.156 99.216 22.782 98.908 22.316 98.767 C 21.588 98.547 21.088 99.212 20.603 99.676 C 20.100 100.157 19.696 100.853 19.931 101.508 C 20.100 101.980 20.386 102.134 20.832 102.395 C 21.307 102.673 21.801 102.860 22.314 103.062 C 22.546 103.152 23.017 103.542 23.254 103.387 C 23.431 103.270 23.552 102.423 23.633 102.203 C 23.687 102.057 24.272 100.859 24.570 100.325 Z M 84.796 100.772 C 84.102 100.797 83.372 100.804 82.682 100.763 C 82.462 100.336 82.428 99.866 82.423 99.366 C 82.415 98.699 82.349 97.725 82.591 97.124 C 83.107 97.104 83.626 97.135 84.130 97.069 C 84.540 97.015 85.944 96.627 86.211 96.781 C 86.639 97.028 86.699 98.383 86.788 98.821 C 86.887 99.300 87.019 100.154 86.585 100.515 C 86.182 100.852 85.279 100.754 84.796 100.772 Z " transform="matrix(1, 0, 0, 1, 20.6, 12)"/>
          <path id="Shape" fill="#30419A" stroke="none" stroke-width="1" d="M 85.468 65.189 C 85.536 66.314 85.509 67.447 85.685 68.572 C 86.124 71.386 86.099 74.293 86.411 77.132 C 86.515 78.071 86.207 78.493 85.484 78.754 C 84.327 79.170 83.145 79.521 81.968 79.882 C 78.503 80.944 75.048 82.040 71.565 83.039 C 67.879 84.095 64.165 85.053 60.465 86.057 C 59.800 86.237 59.146 86.459 58.475 86.610 C 57.692 86.786 57.149 86.150 57.138 85.294 C 57.120 83.823 57.037 82.350 56.918 80.883 C 56.659 77.741 56.628 74.605 57.039 71.475 C 57.181 70.393 57.905 69.780 58.890 69.516 C 62.211 68.628 65.548 67.803 68.868 66.913 C 71.203 66.287 73.508 65.548 75.848 64.939 C 78.381 64.281 80.932 63.693 83.485 63.120 C 84.742 62.837 85.292 63.308 85.420 64.580 C 85.440 64.782 85.455 64.985 85.468 65.189 Z M 59.295 84.228 C 59.307 84.232 59.322 84.228 59.338 84.212 C 59.628 83.927 60.307 83.979 60.713 83.941 C 61.109 83.904 62.314 83.883 62.512 83.553 C 62.621 83.374 62.520 82.609 62.510 82.389 C 62.493 81.958 62.382 81.527 62.355 81.092 C 62.291 80.026 62.067 79.030 61.973 77.988 C 61.759 75.600 61.568 73.210 61.358 70.728 C 60.773 70.865 60.377 70.951 59.984 71.053 C 59.197 71.260 58.689 71.597 58.806 72.591 C 58.929 73.611 58.797 74.658 58.840 75.690 C 58.905 77.248 58.979 78.807 59.056 80.365 C 59.096 81.177 59.185 82.002 59.178 82.815 C 59.179 82.863 59.143 84.176 59.295 84.228 Z M 70.551 68.657 C 70.474 68.532 70.330 68.515 69.993 68.529 C 69.461 68.551 68.933 68.690 68.426 68.844 C 67.880 69.010 67.924 69.313 67.926 69.834 C 67.929 71.260 67.847 72.677 68.008 74.099 C 68.157 75.420 68.021 76.701 68.076 78.023 C 68.107 78.749 68.186 79.473 68.221 80.200 C 68.238 80.566 68.187 81.162 68.407 81.486 C 68.847 82.133 69.971 81.539 70.531 81.350 C 70.565 81.338 70.595 81.290 70.626 81.291 C 71.512 81.322 71.537 80.753 71.499 80.094 C 71.354 77.615 71.260 75.132 71.082 72.655 C 70.999 71.491 70.828 70.335 70.667 69.180 C 70.630 68.917 70.612 68.754 70.551 68.657 Z M 73.799 79.998 C 74.008 80.213 74.271 80.084 74.662 79.958 C 74.860 79.894 76.213 79.582 76.245 79.388 C 76.427 78.272 76.213 77.141 76.151 76.025 C 76.125 75.560 76.095 75.148 76.004 74.687 C 75.739 73.348 75.842 71.976 75.681 70.626 C 75.561 69.612 75.688 68.363 75.254 67.424 C 74.965 67.491 72.276 67.796 72.306 68.101 C 72.602 70.756 72.897 73.411 73.193 76.067 C 73.315 77.162 73.204 78.715 73.635 79.731 C 73.687 79.852 73.741 79.939 73.799 79.998 Z M 83.459 65.347 C 83.006 65.454 82.691 65.545 82.368 65.604 C 80.418 65.963 80.482 65.954 80.682 68.002 C 80.884 70.074 80.913 72.161 81.072 74.239 C 81.168 75.489 81.367 76.732 81.526 78.024 C 81.515 77.943 84.474 77.372 84.730 77.335 C 84.737 76.134 84.561 74.991 84.363 73.804 C 84.222 72.950 84.188 72.083 84.091 71.226 C 83.872 69.273 83.781 67.287 83.459 65.347 Z M 66.285 70.020 C 66.260 69.806 66.216 69.610 66.146 69.449 C 65.480 69.604 64.853 69.902 64.182 70.047 C 63.578 70.177 63.028 70.132 63.155 70.947 C 63.523 73.309 63.676 75.674 63.999 78.039 C 64.185 79.399 64.065 80.770 64.202 82.137 C 64.290 83.017 64.247 83.037 65.065 82.864 C 65.499 82.773 65.969 82.702 66.363 82.543 C 66.481 81.403 66.321 80.110 66.315 78.949 C 66.307 77.627 66.291 76.305 66.283 74.983 C 66.278 73.978 66.279 72.973 66.280 71.968 C 66.281 71.441 66.361 70.652 66.285 70.020 Z M 79.254 78.730 C 79.399 78.653 79.525 78.559 79.613 78.444 C 79.883 78.090 79.713 77.783 79.658 77.409 C 79.576 76.857 79.611 76.293 79.541 75.739 C 79.345 74.193 79.195 72.638 79.102 71.083 C 79.067 70.491 79.070 69.890 79.014 69.302 C 78.966 68.800 79.019 68.274 78.943 67.778 C 78.875 67.335 78.757 66.720 78.278 66.559 C 77.769 66.387 77.266 66.827 76.762 66.839 C 76.646 67.822 77.135 69.055 77.235 70.054 C 77.385 71.559 77.541 73.063 77.698 74.567 C 77.780 75.343 77.861 76.119 77.941 76.895 C 78.013 77.576 77.968 78.466 78.215 79.092 C 78.509 79.001 78.929 78.905 79.254 78.730 Z " transform="matrix(1, 0, 0, 1, 20.6, 12)"/>
          <path id="Shape" fill="#30419A" stroke="none" stroke-width="1" d="M 70.291 54.792 C 70.221 55.406 70.043 56.035 69.794 56.683 C 69.364 57.804 68.837 58.553 68.083 59.448 C 67.706 59.896 67.462 60.131 66.969 60.449 C 63.760 62.523 59.419 63.660 55.597 63.002 C 53.658 62.667 51.929 60.664 51.681 58.586 C 51.518 57.226 51.433 55.836 52.159 54.438 C 52.929 52.951 54.174 52.049 55.467 51.366 C 58.335 49.848 61.504 49.229 64.756 49.377 C 66.442 49.453 68.148 50.162 69.258 51.455 C 70.169 52.517 70.426 53.624 70.291 54.792 Z M 61.491 51.885 C 61.227 51.845 61.093 51.816 60.957 51.805 C 59.185 51.660 57.732 52.518 56.176 53.182 C 53.887 54.159 53.267 56.486 53.659 58.457 C 53.896 59.643 54.638 60.764 55.806 61.018 C 58.071 61.512 60.306 61.002 62.616 60.237 C 60.397 57.628 59.227 54.994 61.491 51.885 Z " transform="matrix(1, 0, 0, 1, 20.6, 12)"/>
          <path id="Shape" fill="#30419A" stroke="none" stroke-width="1" d="M 77.551 57.658 C 74.248 58.024 72.527 55.497 72.330 53.555 C 72.210 52.366 72.393 50.997 73.355 49.887 C 75.064 47.915 77.268 46.848 79.663 46.068 C 81.490 45.472 83.359 44.987 85.297 45.263 C 86.763 45.472 88.088 46.233 88.735 47.627 C 89.513 49.303 89.218 51.074 88.373 52.670 C 87.422 54.467 85.744 55.486 83.910 56.221 C 81.759 57.081 79.583 57.883 77.551 57.658 Z M 80.363 55.374 C 80.638 55.266 80.909 55.116 81.179 54.906 C 80.731 54.710 80.389 54.664 79.965 54.302 C 78.644 53.175 78.371 51.352 78.893 49.723 C 79.033 49.284 79.242 48.861 79.540 48.507 C 79.756 48.250 80.343 47.980 80.291 47.639 C 79.196 47.771 78.076 48.557 77.140 49.101 C 75.626 49.980 74.105 51.759 74.667 53.616 C 75.081 54.984 75.898 55.625 77.511 55.625 C 78.556 55.626 79.481 55.719 80.363 55.374 Z " transform="matrix(1, 0, 0, 1, 20.6, 12)"/>
          <path id="Shape" fill="#30419A" stroke="none" stroke-width="1" d="M 74.157 60.785 C 74.218 61.496 73.774 62.300 72.829 62.176 C 71.406 61.988 71.801 59.640 73.280 59.780 C 73.822 59.831 74.114 60.285 74.157 60.785 Z " transform="matrix(1, 0, 0, 1, 20.6, 12)"/>
        </g>
      </g>
    </g>
  </g>
</svg>