<svg version="1.1" width="99" height="150" viewBox="-1 -1 99 150" xmlns="http://www.w3.org/2000/svg" xmlns:xlink="http://www.w3.org/1999/xlink">
  <!-- Exported by Scratch - http://scratch.mit.edu/ -->
  <g id="ID0.4228116939775646" transform="matrix(1, 0, 0, 1, -0.5, 0)">
    <g id="Page-1">
      <g id="jamal-a-[sports,basketball,people,alex-eben-meyer]">
        <path id="Shape" fill="#780046" stroke="none" stroke-width="1" d="M 58.605 63.027 L 36.380 73.613 C 36.380 73.613 41.658 77.097 48.394 77.097 C 55.131 77.097 53.884 78.423 61.035 77.516 C 68.186 76.609 72.986 70.413 72.986 70.413 L 58.605 63.027 Z " transform="matrix(1, 0, 0, 1, 0.5, 0)"/>
        <g id="Right-Leg">
          <path id="Shape" fill="#824600" stroke="none" stroke-width="1" d="M 16.201 44.051 C 16.547 46.888 16.591 49.753 16.333 52.599 L 20.125 54.705 L 25.730 52.599 C 26.328 50.107 26.989 46.707 26.926 43.500 C 26.858 38.706 25.089 33.150 25.089 33.150 C 25.089 33.150 20.309 16.104 18.771 11.027 C 16.620 10.380 7.031 11.159 5.597 11.890 C 6.393 14.862 10.039 22.963 11.094 25.903 C 11.696 27.557 15.134 36.337 16.201 44.051 Z " transform="matrix(1, 0, 0, 1, 55.5, 67)"/>
          <path id="Shape" fill="#FFDC00" stroke="none" stroke-width="1" d="M 26.268 30.070 C 25.221 25.676 16.592 2.231 16.592 2.231 C 16.592 2.231 7.031 0.977 0 0.094 L 10.333 30.070 C 10.333 30.070 21.747 30.649 26.268 30.070 Z " transform="matrix(1, 0, 0, 1, 55.5, 67)"/>
          <path id="Shape" fill="#FAB414" stroke="none" stroke-width="1" d="M 16.333 52.611 C 16.199 54.110 15.966 55.598 15.636 57.065 C 15.281 58.599 14.811 60.097 14.397 61.615 C 13.516 64.811 10.481 71.366 9.142 74.398 C 11.744 74.846 13.289 75.473 15.887 75.029 C 17.436 72.633 20.544 67.815 22.715 62.778 C 23.572 60.739 24.252 58.630 24.747 56.474 C 24.978 55.440 25.356 54.121 25.730 52.599 L 16.333 52.611 Z " transform="matrix(1, 0, 0, 1, 55.5, 67)"/>
          <path id="Shape" fill="#FFDC00" stroke="none" stroke-width="1" d="M 20.500 80.666 L 13.911 79.811 L 4.967 80.434 L 5.202 81.732 L 20.811 81.864 L 20.500 80.666 " transform="matrix(1, 0, 0, 1, 55.5, 67)"/>
          <path id="Shape" fill="#AA3278" stroke="none" stroke-width="1" d="M 19.321 79.380 C 18.132 79.315 16.949 79.172 15.779 78.952 L 22.153 66.421 L 10.935 66.421 L 4.959 80.434 L 20.496 80.670 C 20.337 80.331 20.204 79.982 20.097 79.623 C 19.850 79.510 19.589 79.428 19.321 79.380 Z " transform="matrix(1, 0, 0, 1, 55.5, 67)"/>
          <path id="Shape" fill="#FFDC00" stroke="none" stroke-width="1" d="M 18.803 69.409 L 21.846 69.409 L 22.101 68.630 L 18.942 68.630 L 18.803 69.409 " transform="matrix(1, 0, 0, 1, 55.5, 67)"/>
          <path id="Shape" fill="#FAB414" stroke="none" stroke-width="1" d="M 17.859 71.226 L 20.906 71.226 L 21.157 70.448 L 17.998 70.448 L 17.859 71.226 " transform="matrix(1, 0, 0, 1, 55.5, 67)"/>
          <path id="Shape" fill="#FFDC00" stroke="none" stroke-width="1" d="M 16.914 73.048 L 19.962 73.048 L 20.213 72.265 L 17.054 72.265 L 16.914 73.048 " transform="matrix(1, 0, 0, 1, 55.5, 67)"/>
          <path id="Shape" fill="#FAB414" stroke="none" stroke-width="1" d="M 15.974 74.866 L 19.018 74.866 L 19.269 74.083 L 16.110 74.083 L 15.974 74.866 " transform="matrix(1, 0, 0, 1, 55.5, 67)"/>
          <path id="Shape" fill="#FFDC00" stroke="none" stroke-width="1" d="M 15.030 76.683 L 18.078 76.683 L 18.329 75.904 L 15.170 75.904 L 15.030 76.683 " transform="matrix(1, 0, 0, 1, 55.5, 67)"/>
          <path id="Oval" fill="#FFDC00" stroke="none" stroke-width="1" d="M 13.122 68.230 C 13.967 68.230 14.733 68.575 15.288 69.131 C 15.842 69.687 16.185 70.455 16.185 71.302 C 16.185 72.150 15.842 72.918 15.288 73.474 C 14.733 74.030 13.967 74.374 13.122 74.374 C 12.277 74.374 11.511 74.030 10.956 73.474 C 10.402 72.918 10.058 72.150 10.058 71.302 C 10.058 70.455 10.402 69.687 10.956 69.131 C 11.511 68.575 12.277 68.230 13.122 68.230 Z " transform="matrix(1, 0, 0, 1, 55.5, 67)"/>
          <path id="Oval" fill="#780046" stroke="none" stroke-width="1" d="M 13.122 69.844 C 13.523 69.844 13.887 70.008 14.150 70.272 C 14.413 70.536 14.576 70.900 14.576 71.302 C 14.576 71.705 14.413 72.069 14.150 72.333 C 13.887 72.597 13.523 72.760 13.122 72.760 C 12.721 72.760 12.357 72.597 12.094 72.333 C 11.831 72.069 11.668 71.705 11.668 71.302 C 11.668 70.900 11.831 70.536 12.094 70.272 C 12.357 70.008 12.721 69.844 13.122 69.844 Z " transform="matrix(1, 0, 0, 1, 55.5, 67)"/>
        </g>
        <g id="Left-Leg">
          <path id="Shape" fill="#824600" stroke="none" stroke-width="1" d="M 36.845 10.567 L 18.871 54.440 L 20.632 58.934 L 30.344 54.695 C 30.344 54.695 52.115 11.953 52.067 11.873 L 36.845 10.567 Z " transform="matrix(1, 0, 0, 1, 2.5, 65)"/>
          <path id="Shape" fill="#FFDC00" stroke="none" stroke-width="1" d="M 25.886 34.067 C 26.137 33.891 43.016 34.866 43.016 34.866 L 57.262 1.647 C 50.147 0.752 39.945 0.500 39.897 0.404 L 25.886 34.067 Z " transform="matrix(1, 0, 0, 1, 2.5, 65)"/>
          <path id="Shape" fill="#FAB414" stroke="none" stroke-width="1" d="M 12.632 69.380 L 18.871 54.444 L 30.344 54.699 L 22.795 69.583 L 12.632 69.380 " transform="matrix(1, 0, 0, 1, 2.5, 65)"/>
          <path id="Shape" fill="#FFDC00" stroke="none" stroke-width="1" d="M 1.111 82.666 L 7.700 81.811 L 17.441 82.434 L 17.202 83.732 L 0.797 83.864 L 1.111 82.666 " transform="matrix(1, 0, 0, 1, 2.5, 65)"/>
          <path id="Shape" fill="#AA3278" stroke="none" stroke-width="1" d="M 2.290 81.380 C 3.479 81.315 4.662 81.172 5.832 80.952 L 12.206 68.421 L 23.819 68.421 L 17.445 82.434 L 1.111 82.670 C 1.268 82.331 1.401 81.981 1.510 81.623 C 1.759 81.510 2.021 81.428 2.290 81.380 Z " transform="matrix(1, 0, 0, 1, 2.5, 65)"/>
          <path id="Oval" fill="#FFDC00" stroke="none" stroke-width="1" d="M 17.122 70.230 C 17.967 70.230 18.733 70.575 19.288 71.131 C 19.842 71.687 20.185 72.455 20.185 73.302 C 20.185 74.150 19.842 74.918 19.288 75.474 C 18.733 76.030 17.967 76.374 17.122 76.374 C 16.277 76.374 15.511 76.030 14.956 75.474 C 14.402 74.918 14.058 74.150 14.058 73.302 C 14.058 72.455 14.402 71.687 14.956 71.131 C 15.511 70.575 16.277 70.230 17.122 70.230 Z " transform="matrix(1, 0, 0, 1, 2.5, 65)"/>
          <path id="Oval" fill="#780046" stroke="none" stroke-width="1" d="M 17.122 71.844 C 17.523 71.844 17.887 72.008 18.150 72.272 C 18.413 72.536 18.576 72.900 18.576 73.302 C 18.576 73.705 18.413 74.069 18.150 74.333 C 17.887 74.597 17.523 74.760 17.122 74.760 C 16.721 74.760 16.357 74.597 16.094 74.333 C 15.831 74.069 15.668 73.705 15.668 73.302 C 15.668 72.900 15.831 72.536 16.094 72.272 C 16.357 72.008 16.721 71.844 17.122 71.844 Z " transform="matrix(1, 0, 0, 1, 2.5, 65)"/>
          <path id="Shape" fill="#FFDC00" stroke="none" stroke-width="1" d="M 10.055 71.409 L 13.098 71.409 L 13.349 70.630 L 10.194 70.630 L 10.055 71.409 " transform="matrix(1, 0, 0, 1, 2.5, 65)"/>
          <path id="Shape" fill="#FAB414" stroke="none" stroke-width="1" d="M 9.298 73.226 L 12.341 73.226 L 12.592 72.448 L 9.433 72.448 L 9.298 73.226 " transform="matrix(1, 0, 0, 1, 2.5, 65)"/>
          <path id="Shape" fill="#FFDC00" stroke="none" stroke-width="1" d="M 8.139 75.048 L 11.186 75.048 L 11.437 74.265 L 8.278 74.265 L 8.139 75.048 " transform="matrix(1, 0, 0, 1, 2.5, 65)"/>
          <path id="Shape" fill="#FAB414" stroke="none" stroke-width="1" d="M 7.382 76.866 L 10.429 76.866 L 10.680 76.083 L 7.521 76.083 L 7.382 76.866 " transform="matrix(1, 0, 0, 1, 2.5, 65)"/>
          <path id="Shape" fill="#FFDC00" stroke="none" stroke-width="1" d="M 6.226 78.683 L 9.274 78.683 L 9.525 77.904 L 6.366 77.904 L 6.226 78.683 " transform="matrix(1, 0, 0, 1, 2.5, 65)"/>
        </g>
        <g id="Torso">
          <path id="Rectangle-path" fill="#FFDC00" stroke="none" stroke-width="1" d="M 11.414 34.299 L 29.588 34.299 L 29.588 42.752 L 11.414 42.752 L 11.414 34.299 Z " transform="matrix(1, 0, 0, 1, 36.5, 32)"/>
          <path id="Shape" fill="#780046" stroke="none" stroke-width="1" d="M 35.815 17.605 C 29.090 13.024 15.566 4.978 8.299 0.069 L 6.200 7 L 8.299 14.006 L 22.597 24.324 L 35.847 33.704 L 38.345 30.967 L 35.815 17.605 Z " transform="matrix(1, 0, 0, 1, 36.5, 32)"/>
          <path id="Shape" fill="#AA3278" stroke="none" stroke-width="1" d="M 13.729 2.138 L 16.765 4.303 C 16.765 4.303 13.446 12.552 19.031 15.352 C 24.617 18.153 27.485 11.418 27.485 11.418 L 28.995 12.404 C 28.995 12.404 36.803 36.931 36.962 38.409 C 34.456 39.129 5.395 43.019 0.360 41.605 C 2.395 36.372 13.729 2.138 13.729 2.138 Z " transform="matrix(1, 0, 0, 1, 36.5, 32)"/>
        </g>
        <path id="Shape" fill="#824600" stroke="none" stroke-width="1" d="M 35.750 74.895 C 35.750 74.895 38.539 70.673 38.837 70.629 C 40.144 73.254 41.487 78.702 41.148 81.614 C 40.634 81.347 35.750 74.895 35.750 74.895 Z " transform="matrix(1, 0, 0, 1, 0.5, 0)"/>
        <path id="Shape" fill="#824600" stroke="none" stroke-width="1" d="M 27.775 59.304 C 26.930 59.908 21.691 59.560 20.656 59.304 C 20.257 58.505 19.807 57.671 19.373 56.832 C 20.265 55.282 26.982 57.990 27.775 59.304 Z " transform="matrix(1, 0, 0, 1, 0.5, 0)"/>
        <g id="Ball">
          <path id="Shape" fill="#E6781E" stroke="none" stroke-width="1" d="M 29.634 15.958 C 29.041 5.880 23.153 3.627 20.950 2.568 C 20.256 2.236 16.129 0.683 13.293 0.950 C 10.982 1.170 5.481 2.912 2.967 6.175 C 0.019 10.002 0.222 15.427 0.222 15.427 C -0.013 22.338 5.429 26.987 11.683 28.565 C 14.272 29.230 16.972 29.334 19.603 28.869 C 20.248 28.745 22.635 28.405 25.200 25.701 C 27.244 23.556 29.901 20.420 29.634 15.958 Z " transform="matrix(1, 0, 0, 1, 11.5, 57)"/>
          <path id="Shape" fill="none" stroke="#824600" stroke-width="0.5" stroke-linecap="round" d="M 21.109 2.292 C 17.077 10.741 12.898 19.509 9.010 28.026 " transform="matrix(1, 0, 0, 1, 11.5, 57)"/>
          <path id="Shape" fill="none" stroke="#824600" stroke-width="0.5" stroke-linecap="round" d="M 29.005 21.291 L 1.385 8.308 " transform="matrix(1, 0, 0, 1, 11.5, 57)"/>
          <path id="Shape" fill="none" stroke="#824600" stroke-width="0.5" stroke-linecap="round" d="M 18.296 29.172 C 15.221 23.528 17.352 15.926 21.368 11.312 C 22.966 9.418 25.106 8.061 27.499 7.426 " transform="matrix(1, 0, 0, 1, 11.5, 57)"/>
          <path id="Shape" fill="none" stroke="#824600" stroke-width="0.5" stroke-linecap="round" d="M 1.437 21.323 C 8.042 20.772 12.871 14.232 14.185 8.141 C 14.725 5.676 14.578 3.109 13.759 0.723 " transform="matrix(1, 0, 0, 1, 11.5, 57)"/>
        </g>
        <g id="Right-Arm">
          <path id="Shape" fill="#A0640A" stroke="none" stroke-width="1" d="M 69.315 34.412 C 68.056 26.223 62.188 18.246 56.511 12.266 C 53.940 9.619 51.197 7.147 48.301 4.864 L 48.301 19.856 C 49.711 21.218 51.137 22.680 52.523 24.250 C 61.068 33.837 60.029 47.562 52.738 53.518 C 50.033 55.727 40.536 54.629 33.995 51.573 C 29.517 49.484 17.419 36.593 15.176 33.565 C 13.909 31.851 9.921 25.935 9.156 24.897 C 7.858 23.123 6.212 21.266 5.240 22.041 C 4.957 23.638 8.065 26.139 7.105 27.633 C 5.826 29.630 3.786 25.911 3.173 25.061 C 2.703 24.813 2.703 24.813 2.300 24.893 C 1.810 27.106 4.619 28.848 4.244 30.793 C 3.715 33.541 1.412 29.878 0.205 30.150 C -0.421 31.384 1.918 34.017 2.523 34.911 C 3.834 36.845 5.081 38.834 6.475 40.712 C 9.180 44.347 13.797 49.356 23.494 58.140 C 29.023 63.153 42.022 68.055 51.400 65.974 C 58.463 64.404 63.291 58.256 64.945 55.012 C 68.594 47.814 70.550 42.441 69.315 34.412 Z " transform="matrix(1, 0, 0, 1, 28.5, 49)"/>
          <path id="Shape" fill="#780046" stroke="none" stroke-width="1" d="M 15.367 30.893 C 16.992 32.890 18.745 34.887 19.924 37.160 C 19.805 37.772 14.897 41.159 14.228 41.638 C 12.666 42.786 11.047 43.853 9.375 44.834 C 7.746 45.725 7.097 45.389 5.559 43.967 C 4.364 42.873 3.595 40.823 3.073 39.301 C 3.153 39.034 4.806 38.031 7.455 36.062 C 9.976 34.166 12.619 32.439 15.367 30.893 Z " transform="matrix(1, 0, 0, 1, 28.5, 49)"/>
          <path id="Shape" fill="#780046" stroke="none" stroke-width="1" d="M 43.815 0.605 L 43.847 16.704 L 48.301 20.451 L 48.301 3.765 C 48.201 3.685 43.815 0.605 43.815 0.605 Z " transform="matrix(1, 0, 0, 1, 28.5, 49)"/>
        </g>
        <g id="Left-Arm">
          <path id="Shape" fill="#A0640A" stroke="none" stroke-width="1" d="M 14.740 25.672 C 13.182 21.578 12.326 16.389 12.573 15.749 C 14.345 11.184 22.241 13.912 25.930 16.221 C 27.994 17.511 34.220 21.414 40.005 25.576 L 40.220 13.624 C 37.738 11.919 34.738 9.598 32.312 8.204 C 26.305 4.752 19.564 0.046 12.302 0.937 C 5.024 1.738 -0.364 8.098 0.024 15.430 C 0.239 19.053 1.038 22.617 2.390 25.984 C 3.661 29.271 13.067 49.368 13.067 49.368 C 14.760 52.184 16.927 55.109 17.907 54.186 C 17.939 52.987 15.190 49.640 17.046 48.993 C 18.608 48.434 20.146 51.581 21.209 52.428 C 23.476 51.629 18.516 47.147 20.731 45.673 C 22.305 44.627 24.185 48.206 25.452 48.745 C 26.647 48.166 22.938 42.793 22.397 41.954 C 22.345 41.695 17.648 33.302 14.740 25.672 Z " transform="matrix(1, 0, 0, 1, 0.5, 16)"/>
          <path id="Shape" fill="#780046" stroke="none" stroke-width="1" d="M 19.214 32.671 C 20.528 34.868 21.970 37.097 22.799 39.537 C 22.568 40.137 17.222 42.777 16.489 43.133 C 14.779 44.034 13.024 44.846 11.230 45.565 C 9.485 46.212 8.892 45.781 7.581 44.151 C 6.569 42.897 5.848 40.796 5.553 39.214 C 5.673 38.962 7.701 38.167 10.589 36.605 C 13.372 35.101 16.254 33.787 19.214 32.671 Z " transform="matrix(1, 0, 0, 1, 0.5, 16)"/>
          <path id="Shape" fill="#780046" stroke="none" stroke-width="1" d="M 44.299 16.069 C 42.116 14.591 40.164 12.717 39.519 12.274 L 39.559 26.587 L 44.295 30.006 L 44.299 16.069 Z " transform="matrix(1, 0, 0, 1, 0.5, 16)"/>
        </g>
        <g id="Head">
          <path id="Shape" fill="#824600" stroke="none" stroke-width="1" d="M 27.189 31.414 C 27.189 31.414 29.978 30.247 31.572 28.018 C 32.599 26.580 32.970 24.128 32.332 23.185 C 31.496 21.951 30.034 21.567 28.863 22.634 C 27.958 23.457 27.010 28.194 26.895 29.309 C 26.911 29.325 27.189 31.414 27.189 31.414 Z " transform="matrix(1, 0, 0, 1, 44.5, 0)"/>
          <path id="Shape" fill="#000000" stroke="none" stroke-width="1" d="M 29.874 5.592 C 25.094 0.999 17.174 -0.903 10.964 1.314 C 4.036 3.783 -0.051 10.394 0.574 17.692 C 0.817 20.528 1.371 23.852 3.199 26.137 C 4.928 28.278 9.279 30.811 12.103 30.243 L 30.253 24.495 C 33.285 20.269 35.675 11.125 29.874 5.592 Z " transform="matrix(1, 0, 0, 1, 44.5, 0)"/>
          <path id="Shape" fill="#A0640A" stroke="none" stroke-width="1" d="M 13.366 29.417 C 13.366 29.417 10.362 29.237 8.123 27.667 C 6.677 26.648 5.518 24.471 5.809 23.357 C 6.207 21.915 7.442 21.068 8.900 21.687 C 10.023 22.162 12.485 26.313 12.963 27.327 C 12.916 27.355 13.366 29.417 13.366 29.417 Z " transform="matrix(1, 0, 0, 1, 44.5, 0)"/>
          <path id="Shape" fill="#A0640A" stroke="none" stroke-width="1" d="M 30.894 26.129 C 30.894 25.825 30.380 20.516 27.962 17.481 C 25.783 14.740 21.736 14.233 20.441 14.173 C 14.975 13.925 10.800 17.604 10.358 20.692 C 9.701 25.322 10.956 30.080 14.075 34.410 C 15.792 36.787 18.278 37.534 20.537 37.530 C 26.843 37.522 31.181 32.217 30.894 26.129 Z " transform="matrix(1, 0, 0, 1, 44.5, 0)"/>
          <path id="Shape" fill="#000000" stroke="none" stroke-width="1" d="M 19.620 29.560 C 22.016 29.339 24.429 29.732 26.632 30.703 C 27.667 33.607 17.903 32.297 19.620 29.560 Z " transform="matrix(1, 0, 0, 1, 44.5, 0)"/>
          <path id="Shape" fill="#824600" stroke="none" stroke-width="1" d="M 27.787 27.563 C 26.755 27.986 25.715 27.743 24.688 27.491 C 24.341 26.604 25.700 24.263 26.636 24.231 C 27.508 25.166 28.138 26.141 27.787 27.563 Z " transform="matrix(1, 0, 0, 1, 44.5, 0)"/>
          <path id="Shape" fill="#000000" stroke="none" stroke-width="1" d="M 20.863 24.152 C 20.955 24.803 21.031 25.386 20.656 25.913 C 19.712 26.001 19.999 24.315 20.445 23.940 L 20.863 24.152 Z " transform="matrix(1, 0, 0, 1, 44.5, 0)"/>
          <path id="Shape" fill="#000000" stroke="none" stroke-width="1" d="M 30.098 24.815 C 30.157 25.290 30.412 25.737 30.030 26.213 L 29.508 26.101 C 29.536 25.614 29.345 25.134 29.711 24.707 L 30.098 24.815 Z " transform="matrix(1, 0, 0, 1, 44.5, 0)"/>
          <path id="Shape" fill="#000000" stroke="none" stroke-width="1" d="M 7.637 17.576 L 9.573 24.048 L 11.075 23.445 L 12.617 12.643 L 7.637 17.576 " transform="matrix(1, 0, 0, 1, 44.5, 0)"/>
        </g>
      </g>
    </g>
  </g>
</svg>