<svg version="1.1" width="179" height="35" viewBox="-1 -1 179 35" xmlns="http://www.w3.org/2000/svg" xmlns:xlink="http://www.w3.org/1999/xlink">
  <!-- Exported by Scratch - http://scratch.mit.edu/ -->
  <g id="ID0.3278132351115346" transform="matrix(0.8573749661445618, 0, 0, 0.8573749661445618, 0.3, 0.3)">
    <path id="ID0.7241233633831143" fill="#FFFFFF" stroke="#E3DEEE" d="M 528.700 271.800 C 525.500 249.300 546.600 216.300 582.200 216.300 C 633.700 216.300 676.800 277.600 788.900 265.400 L 811.400 295 L 771.900 303.400 L 713.300 306.700 L 656.900 306.700 C 656.900 306.700 608.100 302.900 582.600 303.400 C 540.900 304.200 532.300 289.900 528.700 271.800 Z " transform="matrix(0.3584859073162079, 0, 0, 0.3584859073162079, -177.05, -76.35)"/>
    <path id="ID0.7151904893107712" fill="#E3DEEE" d="M 981.800 235.100 C 970.200 220 952.800 213.400 929 213.800 C 892.300 214.400 873.300 231.800 861.100 231.200 C 847.400 230.500 839.800 223.500 821.800 229.900 C 805.700 235.700 785.700 258.900 772.900 268.500 C 762.700 276.100 738.900 297.800 713.500 306.600 C 794.200 306.600 874.200 306.500 890.800 306.500 C 924.900 306.500 962.300 298.100 977.100 285.200 C 991.800 272.400 994.700 251.900 981.800 235.100 Z " transform="matrix(0.3584859073162079, 0, 0, 0.3584859073162079, -177.05, -76.35)"/>
    <path id="ID0.9633253426291049" fill="#E3DEEE" d="M 498.400 278.900 C 488.400 293.700 511.300 306.400 529.300 306.600 C 538.300 306.700 592.800 306.700 656.900 306.700 C 633.100 301 618 289.300 593.100 275.700 C 557.700 256.300 512 258.900 498.400 278.900 Z " transform="matrix(0.3584859073162079, 0, 0, 0.3584859073162079, -177.05, -76.35)"/>
  </g>
</svg>