<svg width="61px" height="149px" viewBox="0 0 61 149" version="1.1" xml:space="preserve" xmlns="http://www.w3.org/2000/svg" xmlns:xlink="http://www.w3.org/1999/xlink">
  <defs/>
  <g>
    <title>drum-cymbal-a</title>
    <desc>Created with Sketch.</desc>
    <g id="music" stroke="none" stroke-width="1" fill="none" fill-rule="evenodd">
      <g id="drum-cymbal-a" fill-rule="nonzero">
        <g id="Group" transform="translate(3.000000, 12.000000)">
          <path d="M29.7657658,23.15 C29.7153153,23.7 29.7153153,24.2 29.7153153,24.7 C29.7153153,28.1 29.7153153,31.5 29.7153153,34.85 C29.7153153,38 29.7657658,41.15 29.7657658,44.3 C29.7657658,46.15 29.7153153,48.05 29.7153153,49.9 C29.7153153,52.45 29.7153153,55 29.7153153,57.55 C29.7153153,60.4 29.7153153,63.3 29.7153153,66.15 C29.7153153,68.8 29.7153153,71.5 29.7153153,74.15 C29.7153153,76.55 29.6648649,78.95 29.6648649,81.3 C29.6648649,83.75 29.6648649,86.15 29.6648649,88.6 C29.6648649,89.45 29.9171171,89.75 30.6738739,90 C31.9351351,90.4 33.1963964,90.75 34.4576577,91.15 C35.9711712,91.6 37.5855856,91.9 39.0486486,92.55 C39.5027027,92.75 39.9063063,92.7 40.3603604,92.75 C41.218018,92.8 41.9747748,93.15 42.781982,93.5 C43.790991,93.95 44.0936937,95.65 43.6396396,96.4 C42.9837838,97.55 41.772973,98 40.6630631,97.55 C40.1081081,97.3 39.5531532,97 39.1495495,96.55 C38.8468468,96.25 38.5441441,96.05 38.1405405,95.9 C35.5675676,94.9 32.9441441,93.9 30.2702703,93.25 C30.1189189,93.2 29.9171171,93.2 29.8162162,93.2 C28.554955,93.65 27.2936937,93.45 26.0324324,93.2 C25.6288288,93.1 25.2252252,93.1 24.8216216,93.2 C24.2666667,93.35 23.7117117,93.5 23.2072072,93.65 C20.9873874,94.25 18.8684685,95.1 16.7495495,95.95 C16.4468468,96.05 16.1945946,96.2 15.9423423,96.45 C15.4882883,96.9 14.9333333,97.2 14.3279279,97.5 C13.0162162,98.2 11.1495495,97 11.1495495,95.4 C11.1495495,94.45 11.5531532,93.75 12.4612613,93.3 C13.218018,92.95 14.0252252,92.65 14.8828829,92.65 C15.3369369,92.65 15.7405405,92.55 16.1945946,92.4 C18.0108108,91.7 19.8774775,91.35 21.7441441,90.75 C22.6018018,90.45 23.4594595,90.25 24.2666667,90 C25.0234234,89.75 25.4774775,89.1 25.5279279,88.3 C25.5279279,87.05 25.5279279,85.8 25.5279279,84.6 C25.5279279,81.35 25.5279279,78.05 25.5279279,74.8 C25.5279279,71.05 25.4774775,67.3 25.4774775,63.55 C25.4774775,60.7 25.4774775,57.9 25.4774775,55.05 C25.4774775,50.8 25.4774775,46.6 25.4774775,42.35 C25.4774775,39.5 25.4774775,36.6 25.4774775,33.75 C25.4774775,30.7 25.5279279,27.7 25.5279279,24.65 C25.5279279,24.2 25.4774775,23.8 25.4774775,23.35 C25.0234234,22.95 24.5693694,22.85 24.0144144,22.85 C20.4324324,22.65 16.9009009,22.2 13.4198198,21.35 C10.645045,20.65 7.92072072,19.8 5.44864865,18.35 C4.13693694,17.6 2.92612613,16.8 1.91711712,15.7 C1.10990991,14.8 0.454054054,13.8 0.201801802,12.55 C-0.0504504505,11.25 0.100900901,10.05 0.807207207,8.85 C1.71531532,7.25 3.07747748,6.15 4.59099099,5.25 C6.81081081,3.9 9.13153153,2.9 11.6540541,2.2 C13.2684685,1.75 14.9333333,1.35 16.5981982,1.05 C18.818018,0.65 21.0378378,0.35 23.3081081,0.25 C24.418018,0.2 25.5279279,0.1 26.6378378,0.05 C29.1099099,-0.05 31.6324324,0.1 34.1045045,0.35 C36.172973,0.55 38.2414414,0.8 40.3099099,1.25 C43.236036,1.9 46.1117117,2.6 48.7855856,3.85 C50.2990991,4.6 51.7621622,5.4 53.0738739,6.5 C54.0828829,7.35 54.8396396,8.35 55.3441441,9.55 C56.1009009,11.2 55.8486486,12.8 54.9405405,14.35 C54.1333333,15.75 52.972973,16.75 51.6612613,17.6 C49.845045,18.75 47.9279279,19.6 45.9099099,20.3 C42.5801802,21.45 39.1495495,22.15 35.6684685,22.55 C34.0540541,22.75 32.4900901,23 30.8756757,22.9 C30.5225225,22.95 30.1693694,23.1 29.7657658,23.15 Z M28.0504505,22 C28.554955,22 29.1099099,22 29.6144144,22 C31.581982,22 33.5495495,21.8 35.5171171,21.6 C36.7279279,21.45 37.8882883,21.25 39.0990991,21.1 C41.1675676,20.8 43.1855856,20.2 45.1531532,19.65 C46.2126126,19.35 47.2216216,18.85 48.2810811,18.4 C50.2486486,17.55 52.0648649,16.5 53.4774775,14.8 C55.2432432,12.7 55.1927928,10.6 53.5783784,8.6 C52.972973,7.85 52.2162162,7.25 51.4594595,6.65 C50.3495495,5.85 49.1387387,5.25 47.8774775,4.7 C45.4558559,3.7 42.9837838,2.9 40.4108108,2.4 C38.7963964,2.1 37.181982,1.8 35.5171171,1.6 C33.7009009,1.35 31.9351351,1.25 30.0684685,1.25 C28.6054054,1.25 27.0918919,1.1 25.6288288,1.2 C23.3081081,1.35 20.9873874,1.45 18.6666667,1.85 C16.6990991,2.2 14.6810811,2.45 12.763964,3.05 C9.93873874,3.9 7.16396396,4.75 4.69189189,6.4 C3.43063063,7.25 2.37117117,8.25 1.66486486,9.55 C0.807207207,11.1 0.958558559,12.65 1.86666667,14.1 C2.57297297,15.2 3.58198198,16.1 4.74234234,16.8 C6.65945946,18 8.67747748,18.9 10.8468468,19.6 C13.3693694,20.4 15.8918919,21 18.4648649,21.35 C19.9783784,21.55 21.4918919,21.7 23.0054054,21.85 C24.7711712,22.05 26.436036,21.9 28.0504505,22 Z M26.7387387,23.2 C26.6882883,23.9 26.5873874,24.45 26.5873874,25.05 C26.5873874,27.9 26.6882883,30.75 26.6378378,33.6 C26.6378378,34.65 26.6378378,35.75 26.6378378,36.8 C26.5873874,39.2 26.6882883,41.65 26.6378378,44.05 C26.6378378,47 26.5873874,49.95 26.6378378,52.9 C26.6882883,54.9 26.6378378,56.85 26.6378378,58.85 C26.6378378,62.8 26.4864865,66.7 26.6378378,70.65 C26.6882883,72.65 26.6378378,74.7 26.6378378,76.7 C26.6378378,79.1 26.5873874,81.55 26.5873874,83.95 C26.5873874,85.3 26.5873874,86.65 26.5873874,88 C26.5873874,88.45 26.5369369,88.9 26.8396396,89.3 C27.3945946,89.45 27.8990991,89.55 28.4540541,89.35 C28.6558559,88.6 28.554955,87.85 28.554955,87.15 C28.5045045,83.9 28.5045045,80.6 28.5045045,77.35 C28.5045045,76.05 28.4540541,74.7 28.554955,73.4 C28.6558559,72.4 28.5045045,71.35 28.5045045,70.3 C28.5045045,66.85 28.5045045,63.45 28.5045045,60 C28.5045045,59.15 28.4036036,58.35 28.5045045,57.5 C28.6054054,56.5 28.554955,55.5 28.5045045,54.55 C28.5045045,53.25 28.554955,51.9 28.5045045,50.6 C28.4540541,48.45 28.4540541,46.3 28.4540541,44.15 C28.4540541,42.65 28.5045045,41.1 28.5045045,39.6 C28.5045045,38.55 28.3531532,37.45 28.4540541,36.4 C28.6054054,34.8 28.4036036,33.25 28.4540541,31.65 C28.5045045,30.8 28.4540541,30 28.4540541,29.15 C28.4540541,27.7 28.4540541,26.3 28.4540541,24.85 C28.4540541,24.2 28.4540541,23.6 28.2522523,22.95 C27.8486486,23.05 27.3441441,23.15 26.7387387,23.2 Z M39.0990991,93.7 C38.9981982,93.65 38.8972973,93.55 38.7963964,93.5 C37.636036,93.15 36.5261261,92.75 35.3153153,92.5 C33.8018018,92.15 32.3891892,91.7 30.9261261,91.25 C30.7243243,91.2 30.5225225,91 30.2198198,91.25 C30.1693694,91.6 30.1189189,92 30.3711712,92.4 C33.1459459,93.1 35.8702703,94.1 38.5441441,95.15 C38.9477477,94.7 39.2,94.25 39.0990991,93.7 Z M24.6702703,91.2 C24.5693694,91.2 24.4684685,91.15 24.418018,91.15 C21.7945946,91.9 19.1711712,92.65 16.5477477,93.4 C16.3459459,93.45 16.0432432,93.5 15.9423423,93.95 C16.0936937,94.3 16.1441441,94.85 16.6990991,95.1 C18.2126126,94.45 19.7765766,93.9 21.3405405,93.4 C22.2486486,93.1 23.2072072,92.85 24.1153153,92.55 C24.7207207,92.4 24.8216216,92.2 24.8216216,91.6 C24.7711712,91.5 24.7207207,91.35 24.6702703,91.2 Z M25.981982,92.55 C27.0918919,92.7 28.2018018,93 29.3117117,92.5 C29.3621622,91.75 29.4630631,91.05 29.009009,90.35 C28,90.5 27.0918919,90.3 26.1333333,90.15 C25.7801802,90.95 25.5279279,91.65 25.981982,92.55 Z" id="Shape" fill="#010101"/>
          <path d="M28.0504505,22 C26.3855856,21.9 24.7711712,22 23.1063063,21.85 C21.5927928,21.7 20.0792793,21.55 18.5657658,21.35 C15.9423423,21 13.4198198,20.4 10.9477477,19.6 C8.77837838,18.95 6.76036036,18 4.84324324,16.8 C3.68288288,16.1 2.67387387,15.2 1.96756757,14.1 C1.05945946,12.7 0.908108108,11.1 1.76576577,9.55 C2.47207207,8.2 3.58198198,7.25 4.79279279,6.4 C7.26486486,4.75 10.0396396,3.9 12.8648649,3.05 C14.781982,2.45 16.8,2.2 18.7675676,1.85 C21.0882883,1.45 23.409009,1.35 25.7297297,1.2 C27.1927928,1.1 28.6558559,1.25 30.1693694,1.25 C31.9855856,1.25 33.8018018,1.35 35.618018,1.6 C37.2324324,1.8 38.8972973,2.1 40.5117117,2.4 C43.0846847,2.9 45.5567568,3.7 47.9783784,4.7 C49.2396396,5.2 50.4504505,5.85 51.5603604,6.65 C52.3675676,7.2 53.1243243,7.85 53.6792793,8.6 C55.2432432,10.6 55.3441441,12.7 53.5783784,14.8 C52.1657658,16.45 50.3495495,17.5 48.381982,18.4 C47.372973,18.85 46.363964,19.35 45.2540541,19.65 C43.236036,20.2 41.2684685,20.85 39.2,21.1 C37.9891892,21.25 36.8288288,21.45 35.618018,21.6 C33.6504505,21.85 31.6828829,22 29.7153153,22 C29.1099099,22 28.6054054,22 28.0504505,22 Z M24.5189189,5.75 C25.0234234,6.75 25.981982,7.1 26.990991,7.25 C27.7981982,7.4 28.6054054,7.35 29.4126126,7.25 C29.9171171,7.2 30.4216216,6.95 30.9261261,6.8 C31.3297297,6.65 31.2792793,6.1 31.6324324,5.95 C32.2882883,5.85 32.7927928,6 33.3477477,6.25 C34.3567568,6.7 35.3657658,7.25 36.2738739,7.9 C36.4756757,8.05 36.7279279,8.25 36.9801802,8.4 C37.181982,8.55 37.3837838,8.5 37.5351351,8.35 C37.7369369,8.15 37.636036,7.95 37.5351351,7.8 C37.3837838,7.6 37.2324324,7.4 37.0306306,7.3 C35.4666667,6.3 33.9027027,5.2 32.036036,4.75 C31.6828829,4.65 31.3297297,4.55 31.027027,4.15 C31.027027,3.65 31.1279279,2.9 30.3207207,2.65 C29.8162162,2.65 29.3621622,3 28.9585586,3.15 C28.3027027,2.7 27.7477477,2.85 27.1927928,3.2 C27.0414414,3.15 26.8900901,3.05 26.7387387,3 C25.8810811,2.6 25.3765766,2.8 25.0738739,3.65 C24.972973,3.9 24.9225225,4.15 24.8720721,4.4 C24.4684685,4.7 24.0144144,4.7 23.5603604,4.8 C21.9963964,5.3 20.4828829,6 19.1711712,7 C18.7675676,7.3 18.4144144,7.6 18.4648649,8.15 C18.818018,8.45 19.0702703,8.35 19.372973,8.15 C19.9279279,7.8 20.4828829,7.5 21.0378378,7.15 C22.0468468,6.55 23.2072072,6.05 24.5189189,5.75 Z" id="Shape" fill="#FFC941"/>
          <path d="M26.7387387,23.2 C27.3441441,23.15 27.8486486,23.05 28.4036036,23 C28.6054054,23.65 28.6054054,24.3 28.6054054,24.9 C28.6054054,26.35 28.6054054,27.75 28.6054054,29.2 C28.6054054,30.05 28.6054054,30.85 28.6054054,31.7 C28.554955,33.3 28.7567568,34.85 28.6054054,36.45 C28.5045045,37.5 28.6558559,38.6 28.6558559,39.65 C28.6558559,41.15 28.6054054,42.7 28.6054054,44.2 C28.6054054,46.35 28.6054054,48.5 28.6558559,50.65 C28.6558559,51.95 28.6054054,53.25 28.6558559,54.6 C28.6558559,55.6 28.7063063,56.6 28.6558559,57.55 C28.554955,58.4 28.7063063,59.2 28.6558559,60.05 C28.6054054,63.5 28.6054054,66.9 28.6558559,70.35 C28.6558559,71.4 28.8072072,72.4 28.7063063,73.45 C28.6054054,74.75 28.6558559,76.1 28.6558559,77.4 C28.6558559,80.65 28.6054054,83.95 28.7063063,87.2 C28.7063063,87.9 28.8072072,88.65 28.6054054,89.4 C28.0504505,89.6 27.4954955,89.5 26.990991,89.35 C26.6882883,88.95 26.7387387,88.5 26.7387387,88.05 C26.7387387,86.7 26.7387387,85.35 26.7387387,84 C26.7387387,81.6 26.7891892,79.15 26.7891892,76.75 C26.7891892,74.75 26.8396396,72.7 26.7891892,70.7 C26.6882883,66.75 26.8396396,62.85 26.7891892,58.9 C26.7891892,56.9 26.8396396,54.95 26.7891892,52.95 C26.7387387,50 26.7891892,47.05 26.7891892,44.1 C26.7891892,41.7 26.6882883,39.25 26.7891892,36.85 C26.8396396,35.8 26.7891892,34.7 26.7891892,33.65 C26.7891892,30.8 26.7387387,27.95 26.7387387,25.1 C26.5873874,24.45 26.6882883,23.9 26.7387387,23.2 Z" id="Shape" fill="#CDE6E7"/>
          <path d="M39.0990991,93.7 C39.2,94.25 38.9477477,94.7 38.5441441,95.15 C35.8702703,94.1 33.1459459,93.15 30.3711712,92.4 C30.1189189,92 30.1693694,91.6 30.2198198,91.25 C30.5225225,91 30.7243243,91.2 30.9261261,91.25 C32.3891892,91.7 33.8522523,92.15 35.3153153,92.5 C36.4756757,92.8 37.636036,93.15 38.7963964,93.5 C38.8972973,93.55 38.9981982,93.6 39.0990991,93.7 Z" id="Shape" fill="#CAE2E3"/>
          <path d="M24.6702703,91.2 C24.7207207,91.35 24.7711712,91.5 24.7711712,91.65 C24.7711712,92.25 24.6702703,92.4 24.0648649,92.6 C23.1567568,92.9 22.1981982,93.15 21.2900901,93.45 C19.7261261,93.95 18.1621622,94.5 16.6486486,95.15 C16.0936937,94.85 16.0432432,94.35 15.8918919,94 C15.9927928,93.6 16.245045,93.55 16.4972973,93.45 C19.1207207,92.7 21.7441441,91.95 24.3675676,91.2 C24.4684685,91.15 24.5693694,91.2 24.6702703,91.2 Z" id="Shape" fill="#CAE2E3"/>
          <path d="M25.981982,92.55 C25.4774775,91.65 25.7801802,90.95 26.1333333,90.15 C27.0918919,90.35 28.0504505,90.55 29.009009,90.35 C29.4630631,91.05 29.3621622,91.75 29.3117117,92.5 C28.2522523,93 27.1423423,92.7 25.981982,92.55 Z" id="Shape" fill="#C8DFE0"/>
          <path d="M24.5189189,5.75 C23.2072072,6.05 22.0468468,6.55 20.9369369,7.2 C20.381982,7.55 19.827027,7.85 19.2720721,8.2 C18.9693694,8.35 18.6666667,8.45 18.363964,8.2 C18.363964,7.65 18.7171171,7.35 19.0702703,7.05 C20.381982,6.05 21.8954955,5.35 23.4594595,4.85 C23.8630631,4.7 24.3171171,4.7 24.7711712,4.45 C24.8216216,4.2 24.8720721,3.95 24.972973,3.7 C25.2756757,2.8 25.7801802,2.65 26.6378378,3.05 C26.7891892,3.1 26.9405405,3.2 27.0918919,3.25 C27.6468468,2.85 28.2018018,2.75 28.8576577,3.2 C29.2612613,3.05 29.7153153,2.75 30.2198198,2.7 C31.0774775,2.95 30.9261261,3.65 30.9261261,4.2 C31.2288288,4.6 31.581982,4.7 31.9351351,4.8 C33.8018018,5.3 35.3657658,6.35 36.9297297,7.35 C37.1315315,7.5 37.2828829,7.65 37.4342342,7.85 C37.5351351,8 37.636036,8.2 37.4342342,8.4 C37.2828829,8.55 37.0810811,8.6 36.8792793,8.45 C36.627027,8.3 36.4252252,8.15 36.172973,7.95 C35.2648649,7.3 34.3063063,6.75 33.2468468,6.3 C32.7423423,6.05 32.1873874,5.95 31.5315315,6 C31.2288288,6.15 31.2288288,6.7 30.8252252,6.85 C30.3207207,7 29.8162162,7.25 29.3117117,7.3 C28.5045045,7.4 27.6972973,7.45 26.8900901,7.3 C26.0324324,7.1 25.0738739,6.75 24.5189189,5.75 Z M27.4954955,4.5 C26.9405405,4.6 26.5873874,3.95 25.981982,3.85 C26.2846847,4.65 26.8396396,4.75 27.445045,4.75 C28,4.85 28.554955,4.85 29.1099099,4.75 C29.3117117,4.7 29.4630631,4.55 29.3117117,4.3 C28.8072072,4.75 28.4540541,4.35 28.1009009,4.05 C27.8990991,4.2 27.6972973,4.35 27.4954955,4.5 Z M30.1189189,5.55 C29.4126126,5.8 28.6558559,5.6 27.9495495,5.7 C27.2432432,5.8 26.5873874,5.35 25.8810811,5.5 C26.1333333,5.8 26.436036,5.9 26.7387387,6 C27.2936937,6.1 27.8486486,6.2 28.4036036,6.3 C29.1603604,6.45 29.5135135,6.3 30.1189189,5.55 Z" id="Shape" fill="#020201"/>
          <path d="M30.1189189,5.55 C29.5135135,6.3 29.1603604,6.45 28.4036036,6.3 C27.8486486,6.2 27.2936937,6.1 26.7387387,6 C26.436036,5.95 26.1333333,5.85 25.8810811,5.5 C26.6378378,5.35 27.2432432,5.8 27.9495495,5.7 C28.6558559,5.6 29.3621622,5.8 30.1189189,5.55 Z" id="Shape" fill="#A2B5B6"/>
          <path d="M27.4954955,4.5 C27.6972973,4.35 27.8486486,4.25 28.1009009,4.05 C28.4540541,4.35 28.8072072,4.7 29.3117117,4.3 C29.4630631,4.6 29.3621622,4.7 29.1099099,4.75 C28.554955,4.85 28,4.9 27.445045,4.75 C27.4954955,4.65 27.4954955,4.6 27.4954955,4.5 Z" id="Shape" fill="#A6BABA"/>
          <path d="M27.4954955,4.5 C27.4954955,4.6 27.4954955,4.65 27.4954955,4.75 C26.8900901,4.75 26.2846847,4.65 26.0324324,3.85 C26.6378378,3.95 26.9405405,4.6 27.4954955,4.5 Z" id="Shape" fill="#656768"/>
        </g>
      </g>
    </g>
  </g>
</svg>