<svg version="1.1" width="129" height="106" viewBox="-1 -1 129 106" xmlns="http://www.w3.org/2000/svg" xmlns:xlink="http://www.w3.org/1999/xlink">
  <!-- Exported by Scratch - http://scratch.mit.edu/ -->
  <path id="ID0.5747466580942273" fill="#B2B2B2" stroke="#B2B2B2" stroke-width="2" d="M 240 212 C 261.244 212 280.494 213.905 294.433 216.982 C 308.372 220.060 317 224.310 317 229 C 317 233.690 308.372 237.940 294.433 241.018 C 280.494 244.095 261.244 246 240 246 C 218.756 246 199.506 244.095 185.567 241.018 C 171.628 237.940 163 233.690 163 229 C 163 224.310 171.628 220.060 185.567 216.982 C 199.506 213.905 218.756 212 240 212 Z " transform="matrix(0.8145062327384949, 0, 0, 0.8145062327384949, -131.6, -96.45)"/>
  <g id="ID0.302299955394119">
    <path id="ID0.9443309367634356" fill="#660000" stroke="#703D00" stroke-width="1.995125" stroke-linecap="round" d="M 221.300 166.300 C 235.481 166.300 246.007 168.582 257.636 172.506 C 263.162 174.375 267.979 178.031 271.500 182.500 C 274.272 186.024 276.315 190.545 276 194.750 C 275.399 199.482 276.571 206.052 269 206.900 C 238.720 210.290 207.875 210.156 177.500 206.300 C 169.906 205.336 171.544 198.190 170.500 193.800 C 169.746 190.238 169.342 185.944 171.300 182.850 C 174.381 178.077 179.390 174.495 184.964 172.506 C 196.527 168.403 207.119 166.300 221.300 166.300 Z " transform="matrix(0.8145062327384949, 0, 0, 1.2708868980407715, -117.75, -171.6)"/>
    <path id="ID0.28453653072938323" fill="#FF99E5" stroke="#FF00BF" stroke-width="2" stroke-linecap="round" d="M 200.750 137.650 C 212.899 137.281 225.090 137.485 237 139.250 C 243.876 140.635 253.028 141.081 256.500 147 C 261.011 154.675 257.598 164.417 257 173.750 C 256.739 176.235 255.827 181.287 253.500 180.550 C 248.217 178.160 246.379 167.280 241.050 165.550 C 238.287 164.657 240.612 173.234 237.450 174.850 C 233.150 177.024 225.406 170.282 223 173.800 C 220.274 177.795 228.332 184.327 226.600 189.300 C 225.747 192.528 219.233 194.547 217.300 191.900 C 213.616 186.850 217.840 178.705 214.700 173.300 C 213.051 170.455 207.848 170.325 205.400 172.250 C 200.799 175.881 201.332 183.887 196.650 187.250 C 194.145 189.047 190.168 187.790 187.850 186.200 C 181.990 181.248 180.523 170.010 173.400 168.650 C 168.026 167.617 165.179 181.604 161.500 180 C 157.343 178.168 162.014 162.102 158.400 160.900 C 155.007 159.801 151.007 177.002 148 176.200 C 144.557 175.177 145.218 163.329 145.500 157.250 C 145.730 152.259 144.307 144.324 149 142.650 C 165.326 136.863 183.451 138.177 200.750 137.650 Z " transform="matrix(0.8145062327384949, 0, 0, 0.8378993272781372, -100.2, -76.2)"/>
    <path id="ID0.9467714759521186" fill="none" stroke="#9B4976" stroke-width="1.995125" stroke-linecap="round" d="M 195.750 178.150 C 195.750 178.150 200.900 177.150 200.900 177.150 " transform="matrix(0.8145062327384949, 0, 0, 0.8145062327384949, -117.75, -96.4)"/>
    <path id="ID0.23042773781344295" fill="none" stroke="#9B4976" stroke-width="1.995125" stroke-linecap="round" d="M 212.250 190.550 C 212.250 190.550 218.450 190.550 218.450 190.550 " transform="matrix(0.8145062327384949, 0, 0, 0.8145062327384949, -117.75, -96.4)"/>
    <path id="ID0.20588193368166685" fill="none" stroke="#9B4976" stroke-width="1.995125" stroke-linecap="round" d="M 253.050 184.900 C 253.050 184.900 253.050 180.250 253.050 180.250 " transform="matrix(0.8145062327384949, 0, 0, 0.8145062327384949, -117.75, -96.4)"/>
    <path id="ID0.6261316067539155" fill="none" stroke="#9B4976" stroke-width="1.995125" stroke-linecap="round" d="M 232.900 170.950 C 232.900 170.950 238.100 174.050 238.100 174.050 " transform="matrix(0.8145062327384949, 0, 0, 0.8145062327384949, -117.75, -96.4)"/>
    <path id="ID0.2090843333862722" fill="none" stroke="#9B4976" stroke-width="1.995125" stroke-linecap="round" d="M 271.150 194.200 C 271.150 194.200 271.150 188.500 271.150 188.500 " transform="matrix(0.8145062327384949, 0, 0, 0.8145062327384949, -117.75, -96.4)"/>
    <path id="ID0.9659954085946083" fill="none" stroke="#9B4976" stroke-width="1.995125" stroke-linecap="round" d="M 261.850 176.600 C 261.850 176.600 266 176.600 266 176.600 " transform="matrix(0.8145062327384949, 0, 0, 0.8145062327384949, -117.75, -96.4)"/>
    <path id="ID0.702816660515964" fill="none" stroke="#9B4976" stroke-width="1.995125" stroke-linecap="round" d="M 180.750 184.350 C 180.750 184.350 185.400 179.700 185.400 179.700 " transform="matrix(0.8145062327384949, 0, 0, 0.8145062327384949, -117.75, -96.4)"/>
    <path id="ID0.6778297000564635" fill="none" stroke="#FFFFFF" stroke-width="1.995125" stroke-linecap="round" d="M 186.450 190.550 C 186.450 190.550 190.550 189.550 190.550 189.550 " transform="matrix(0.8145062327384949, 0, 0, 0.8145062327384949, -117.75, -96.4)"/>
    <path id="ID0.7210087068378925" fill="none" stroke="#FFFFFF" stroke-width="1.995125" stroke-linecap="round" d="M 210.200 170.950 C 210.200 170.950 214.350 174.550 214.350 174.550 " transform="matrix(0.8145062327384949, 0, 0, 0.8145062327384949, -117.75, -96.4)"/>
    <path id="ID0.2551163868047297" fill="none" stroke="#FFFFFF" stroke-width="1.995125" stroke-linecap="round" d="M 212.800 206.600 C 212.800 206.600 216.900 202.950 216.900 202.950 " transform="matrix(0.8145062327384949, 0, 0, 0.8145062327384949, -117.75, -96.4)"/>
    <path id="ID0.3400295590981841" fill="none" stroke="#FFFFFF" stroke-width="1.995125" stroke-linecap="round" d="M 234.450 197.300 C 234.450 197.300 238.600 200.400 238.600 200.400 " transform="matrix(0.8145062327384949, 0, 0, 0.8145062327384949, -117.75, -96.4)"/>
    <path id="ID0.8367559141479433" fill="none" stroke="#FFFFFF" stroke-width="1.995125" stroke-linecap="round" d="M 247.400 200.900 C 247.400 200.900 247.900 197.800 247.900 197.800 Z " transform="matrix(0.8145062327384949, 0, 0, 0.8145062327384949, -117.75, -96.4)"/>
    <path id="ID0.2565021519549191" fill="none" stroke="#FFFFFF" stroke-width="1.995125" stroke-linecap="round" d="M 248.400 172.500 C 248.400 172.500 253.050 172.500 253.050 172.500 " transform="matrix(0.8145062327384949, 0, 0, 0.8145062327384949, -117.75, -96.4)"/>
    <path id="ID0.4049390903674066" fill="none" stroke="#FFFFFF" stroke-width="1.995125" stroke-linecap="round" d="M 261.350 188 C 261.350 188 265.450 186.950 265.450 186.950 " transform="matrix(0.8145062327384949, 0, 0, 0.8145062327384949, -117.75, -96.4)"/>
    <path id="ID0.9062348022125661" fill="none" stroke="#FFFFFF" stroke-width="1.995125" stroke-linecap="round" d="M 175.050 177.150 C 175.050 177.150 180.750 175.050 180.750 175.050 " transform="matrix(0.8145062327384949, 0, 0, 0.8145062327384949, -117.75, -96.4)"/>
    <path id="ID0.021216348744928837" fill="none" stroke="#FFFFFF" stroke-width="1.995125" stroke-linecap="round" d="M 189 172.500 C 189 172.500 190.550 176.100 190.550 176.100 Z " transform="matrix(0.8145062327384949, 0, 0, 0.8145062327384949, -117.75, -96.4)"/>
    <path id="ID0.7581375841982663" fill="none" stroke="#FFFFFF" stroke-width="1.995125" stroke-linecap="round" d="M 232.900 184.900 C 232.900 184.900 233.450 187.450 233.450 187.450 Z " transform="matrix(0.8145062327384949, 0, 0, 0.8145062327384949, -117.75, -96.4)"/>
    <path id="ID0.8662396180443466" fill="none" stroke="#6148A4" stroke-width="1.995125" stroke-linecap="round" d="M 199.850 191.600 C 199.850 191.600 202.950 184.900 202.950 184.900 " transform="matrix(0.8145062327384949, 0, 0, 0.8145062327384949, -117.75, -96.4)"/>
    <path id="ID0.7959343986585736" fill="none" stroke="#6148A4" stroke-width="1.995125" stroke-linecap="round" d="M 221.050 169.900 C 221.050 169.900 227.250 169.900 227.250 169.900 " transform="matrix(0.8145062327384949, 0, 0, 0.8145062327384949, -117.75, -96.4)"/>
    <path id="ID0.47782517969608307" fill="none" stroke="#6148A4" stroke-width="1.995125" stroke-linecap="round" d="M 224.150 198.300 C 224.150 198.300 230.350 196.250 230.350 196.250 " transform="matrix(0.8145062327384949, 0, 0, 0.8145062327384949, -117.75, -96.4)"/>
    <path id="ID0.0538422497920692" fill="none" stroke="#6148A4" stroke-width="1.995125" stroke-linecap="round" d="M 242.200 188.500 C 242.200 188.500 247.900 190.550 247.900 190.550 " transform="matrix(0.8145062327384949, 0, 0, 0.8145062327384949, -117.75, -96.4)"/>
    <path id="ID0.7071157796308398" fill="none" stroke="#6148A4" stroke-width="1.995125" stroke-linecap="round" d="M 186.950 199.350 C 186.950 199.350 192.100 197.300 192.100 197.300 " transform="matrix(0.8145062327384949, 0, 0, 0.8145062327384949, -117.75, -96.4)"/>
    <path id="ID0.3825798323377967" fill="none" stroke="#6148A4" stroke-width="1.995125" stroke-linecap="round" d="M 174.050 182.800 C 174.050 182.800 174.050 186.950 174.050 186.950 " transform="matrix(0.8145062327384949, 0, 0, 0.8145062327384949, -117.75, -96.4)"/>
    <path id="ID0.12323137884959579" fill="none" stroke="#6148A4" stroke-width="1.995125" stroke-linecap="round" d="M 198.850 169.400 C 198.850 169.400 203.500 168.900 203.500 168.900 " transform="matrix(0.8145062327384949, 0, 0, 0.8145062327384949, -117.75, -96.4)"/>
    <path id="ID0.6972495093941689" fill="none" stroke="#6148A4" stroke-width="1.995125" stroke-linecap="round" d="M 277.350 190.550 C 277.350 190.550 277.350 196.250 277.350 196.250 " transform="matrix(0.8145062327384949, 0, 0, 0.8145062327384949, -117.75, -96.4)"/>
    <path id="ID0.2711392594501376" fill="none" stroke="#6148A4" stroke-width="1.995125" stroke-linecap="round" d="M 242.750 180.750 C 242.750 180.750 247.400 180.750 247.400 180.750 " transform="matrix(0.8145062327384949, 0, 0, 0.8145062327384949, -117.75, -96.4)"/>
    <path id="ID0.8978235688991845" fill="none" stroke="#6148A4" stroke-width="1.995125" stroke-linecap="round" d="M 241.700 168.900 C 241.700 168.900 244.800 168.900 244.800 168.900 Z " transform="matrix(0.8145062327384949, 0, 0, 0.8145062327384949, -117.75, -96.4)"/>
  </g>
  <path id="White" fill="#FFFFFF" d="M 106.321 26.470 C 106.567 27.338 106.811 28.496 106.811 29.696 C 106.811 31.050 106.657 32.345 106.519 33.241 C 112.883 33.177 119.066 33.076 124.975 32.926 C 125.211 32.081 125.532 31.219 125.544 30.384 C 125.561 29.075 125.482 27.499 124.869 26.254 C 119.561 26.372 113.125 26.437 106.321 26.470 L 106.321 26.470 Z " transform="matrix(-0.006874412298202515, -1.6892306804656982, 0.48767274618148804, -0.0010921199573203921, 21.9, 228.05)"/>
  <path id="Blue" fill="#42B5E8" d="M 106.321 26.470 C 92.817 26.537 77.853 26.482 67.322 26.485 C 45.977 26.493 24.177 26.079 2.884 26.352 C 2.863 26.395 2.840 26.432 2.823 26.477 C 2.518 27.409 2.361 28.373 2.386 29.345 C 2.421 30.676 2.720 31.778 3.166 32.899 C 34.410 32.878 73.020 33.576 106.518 33.241 C 106.656 32.345 106.810 31.050 106.810 29.696 C 106.811 28.496 106.567 27.338 106.321 26.470 L 106.321 26.470 Z " transform="matrix(-0.00020353686704766005, -0.05001456290483475, 0.6049068570137024, -0.0013546592090278864, 17.55, 35.75)"/>
  <path id="Blue" fill="#42B5E8" d="M 106.321 26.470 C 92.817 26.537 77.853 26.482 67.322 26.485 C 45.977 26.493 24.177 26.079 2.884 26.352 C 2.863 26.395 2.840 26.432 2.823 26.477 C 2.518 27.409 2.361 28.373 2.386 29.345 C 2.421 30.676 2.720 31.778 3.166 32.899 C 34.410 32.878 73.020 33.576 106.518 33.241 C 106.656 32.345 106.810 31.050 106.810 29.696 C 106.811 28.496 106.567 27.338 106.321 26.470 L 106.321 26.470 Z " transform="matrix(-0.00020353686704766005, -0.05001456290483475, 0.6049068570137024, -0.0013546592090278864, 17.75, 26.15)"/>
  <path id="Blue" fill="#42B5E8" d="M 106.321 26.470 C 92.817 26.537 77.853 26.482 67.322 26.485 C 45.977 26.493 24.177 26.079 2.884 26.352 C 2.863 26.395 2.840 26.432 2.823 26.477 C 2.518 27.409 2.361 28.373 2.386 29.345 C 2.421 30.676 2.720 31.778 3.166 32.899 C 34.410 32.878 73.020 33.576 106.518 33.241 C 106.656 32.345 106.810 31.050 106.810 29.696 C 106.811 28.496 106.567 27.338 106.321 26.470 L 106.321 26.470 Z " transform="matrix(-0.00020353686704766005, -0.05001456290483475, 0.6049068570137024, -0.0013546592090278864, 17.4, 46.15)"/>
  <path id="Outline" fill="#231F20" d="M 125.922 23.789 C 125.586 23.416 125.182 23.361 124.832 23.489 C 87.297 24.458 39.545 23.755 2.186 24.494 C 2.144 24.495 2.114 24.508 2.077 24.515 C 2.054 24.515 2.021 24.513 2.009 24.513 C 0.100 24.699 0.020 28.098 0.001 29.346 C -0.023 30.992 0.258 34.221 2.348 34.868 C 2.367 34.874 2.399 34.871 2.425 34.872 C 2.487 34.900 2.548 34.934 2.608 34.937 C 24.394 35.416 46.046 35.921 67.740 35.916 C 83.585 35.910 109.460 36.039 125.300 35.686 C 126.181 35.665 126.665 35.104 126.764 34.491 C 127.587 33.407 127.784 31.342 127.835 30.387 C 127.954 28.127 127.473 25.508 125.922 23.789 L 125.922 23.789 Z M 124.975 32.925 C 119.066 33.075 112.883 33.176 106.519 33.240 C 73.022 33.575 34.412 32.878 3.167 32.898 C 2.721 31.777 2.422 30.675 2.387 29.344 C 2.362 28.371 2.519 27.407 2.824 26.476 C 2.841 26.431 2.864 26.394 2.885 26.351 C 24.178 26.078 45.978 26.492 67.323 26.484 C 77.854 26.482 92.818 26.537 106.322 26.469 C 113.127 26.436 119.562 26.371 124.871 26.252 C 125.483 27.497 125.562 29.073 125.546 30.382 C 125.532 31.218 125.211 32.080 124.975 32.925 L 124.975 32.925 Z " transform="matrix(0.0010329789947718382, -0.253831148147583, -0.48767274618148804, -0.001092119375243783, 49.8, 48.4)"/>
  <path id="ID0.18814716208726168" fill="#FF9400" stroke="#FF9400" stroke-width="2" stroke-linecap="round" d="M 66.600 139.850 C 66.614 139.550 66.388 139.041 66.700 139.850 C 67.965 143.106 69.407 146.479 70.200 149.950 C 70.412 150.868 70.051 151.933 69.600 152.850 C 69.151 153.647 68.602 154.876 67.600 154.900 C 66.548 154.924 65.739 153.699 65.350 152.750 C 64.715 151.565 64.498 150.138 64.700 148.850 C 64.962 147.177 66.163 145.614 66.500 144.100 C 66.810 142.713 66.551 141.041 66.600 139.850 Z " transform="matrix(1.1717298030853271, 0, 0, 0.869210422039032, -43.15, -118.55)"/>
  <path id="ID0.6274793283082545" fill="#FFFF99" stroke="none" stroke-linecap="round" d="M 68.350 151.600 C 68.497 151.380 68.509 151.261 68.600 151.400 C 68.992 152.404 69.404 153.432 69.500 154.325 C 69.564 154.943 69.266 155.544 69.148 156.145 C 69.014 156.869 69.232 158.540 68.850 158.600 C 68.422 158.540 67.774 156.920 67.452 156.145 C 67.215 155.579 67 154.940 67.100 154.325 C 67.254 153.440 67.827 152.432 68.350 151.600 Z " transform="matrix(0.8145062327384949, 0, 0, 0.6042155623435974, -20.15, -79.45)"/>
  <path id="White" fill="#FFFFFF" d="M 106.321 26.470 C 106.567 27.338 106.811 28.496 106.811 29.696 C 106.811 31.050 106.657 32.345 106.519 33.241 C 112.883 33.177 119.066 33.076 124.975 32.926 C 125.211 32.081 125.532 31.219 125.544 30.384 C 125.561 29.075 125.482 27.499 124.869 26.254 C 119.561 26.372 113.125 26.437 106.321 26.470 L 106.321 26.470 Z " transform="matrix(0.006874412298202515, -1.6892306804656982, -0.48767274618148804, -0.0010921199573203921, 62.75, 226.35)"/>
  <path id="Blue" fill="#42B5E8" d="M 106.321 26.470 C 92.817 26.537 77.853 26.482 67.322 26.485 C 45.977 26.493 24.177 26.079 2.884 26.352 C 2.863 26.395 2.840 26.432 2.823 26.477 C 2.518 27.409 2.361 28.373 2.386 29.345 C 2.421 30.676 2.720 31.778 3.166 32.899 C 34.410 32.878 73.020 33.576 106.518 33.241 C 106.656 32.345 106.810 31.050 106.810 29.696 C 106.811 28.496 106.567 27.338 106.321 26.470 L 106.321 26.470 Z " transform="matrix(0.00020353686704766005, -0.05001456290483475, -0.6049068570137024, -0.0013546592090278864, 67.15, 34)"/>
  <path id="Blue" fill="#42B5E8" d="M 106.321 26.470 C 92.817 26.537 77.853 26.482 67.322 26.485 C 45.977 26.493 24.177 26.079 2.884 26.352 C 2.863 26.395 2.840 26.432 2.823 26.477 C 2.518 27.409 2.361 28.373 2.386 29.345 C 2.421 30.676 2.720 31.778 3.166 32.899 C 34.410 32.878 73.020 33.576 106.518 33.241 C 106.656 32.345 106.810 31.050 106.810 29.696 C 106.811 28.496 106.567 27.338 106.321 26.470 L 106.321 26.470 Z " transform="matrix(0.00020353686704766005, -0.05001456290483475, -0.6049068570137024, -0.0013546592090278864, 66.9, 24.55)"/>
  <path id="Blue" fill="#42B5E8" d="M 106.321 26.470 C 92.817 26.537 77.853 26.482 67.322 26.485 C 45.977 26.493 24.177 26.079 2.884 26.352 C 2.863 26.395 2.840 26.432 2.823 26.477 C 2.518 27.409 2.361 28.373 2.386 29.345 C 2.421 30.676 2.720 31.778 3.166 32.899 C 34.410 32.878 73.020 33.576 106.518 33.241 C 106.656 32.345 106.810 31.050 106.810 29.696 C 106.811 28.496 106.567 27.338 106.321 26.470 L 106.321 26.470 Z " transform="matrix(0.00020353686704766005, -0.05001456290483475, -0.6049068570137024, -0.0013546592090278864, 67.15, 44.4)"/>
  <path id="Outline" fill="#231F20" d="M 125.922 23.789 C 125.586 23.416 125.182 23.361 124.832 23.489 C 87.297 24.458 39.545 23.755 2.186 24.494 C 2.144 24.495 2.114 24.508 2.077 24.515 C 2.054 24.515 2.021 24.513 2.009 24.513 C 0.100 24.699 0.020 28.098 0.001 29.346 C -0.023 30.992 0.258 34.221 2.348 34.868 C 2.367 34.874 2.399 34.871 2.425 34.872 C 2.487 34.900 2.548 34.934 2.608 34.937 C 24.394 35.416 46.046 35.921 67.740 35.916 C 83.585 35.910 109.460 36.039 125.300 35.686 C 126.181 35.665 126.665 35.104 126.764 34.491 C 127.587 33.407 127.784 31.342 127.835 30.387 C 127.954 28.127 127.473 25.508 125.922 23.789 L 125.922 23.789 Z M 124.975 32.925 C 119.066 33.075 112.883 33.176 106.519 33.240 C 73.022 33.575 34.412 32.878 3.167 32.898 C 2.721 31.777 2.422 30.675 2.387 29.344 C 2.362 28.371 2.519 27.407 2.824 26.476 C 2.841 26.431 2.864 26.394 2.885 26.351 C 24.178 26.078 45.978 26.492 67.323 26.484 C 77.854 26.482 92.818 26.537 106.322 26.469 C 113.127 26.436 119.562 26.371 124.871 26.252 C 125.483 27.497 125.562 29.073 125.546 30.382 C 125.532 31.218 125.211 32.080 124.975 32.925 L 124.975 32.925 Z " transform="matrix(0.0010329789947718382, -0.253831148147583, -0.48767274618148804, -0.001092119375243783, 63.55, 46.75)"/>
  <path id="ID0.18814716208726168" fill="#FF9400" stroke="none" stroke-linecap="round" d="M 66.600 139.850 C 66.614 139.550 66.388 139.041 66.700 139.850 C 67.965 143.106 69.407 146.479 70.200 149.950 C 70.412 150.868 70.051 151.933 69.600 152.850 C 69.151 153.647 68.602 154.876 67.600 154.900 C 66.548 154.924 65.739 153.699 65.350 152.750 C 64.715 151.565 64.498 150.138 64.700 148.850 C 64.962 147.177 66.163 145.614 66.500 144.100 C 66.810 142.713 66.551 141.041 66.600 139.850 Z " transform="matrix(-1.2040526866912842, -2.0079128877070162e-32, 0, 0.8931881785392761, 130.1, -123.75)"/>
  <path id="ID0.6274793283082545" fill="#FFFF99" stroke="none" stroke-linecap="round" d="M 68.350 151.600 C 68.497 151.380 68.509 151.261 68.600 151.400 C 68.992 152.404 69.404 153.432 69.500 154.325 C 69.564 154.943 69.266 155.544 69.148 156.145 C 69.014 156.869 69.232 158.540 68.850 158.600 C 68.422 158.540 67.774 156.920 67.452 156.145 C 67.215 155.579 67 154.940 67.100 154.325 C 67.254 153.440 67.827 152.432 68.350 151.600 Z " transform="matrix(-0.8145062327384949, 0, 0, 0.6042155623435974, 104.85, -81.1)"/>
  <path id="White" fill="#FFFFFF" d="M 106.321 26.470 C 106.567 27.338 106.811 28.496 106.811 29.696 C 106.811 31.050 106.657 32.345 106.519 33.241 C 112.883 33.177 119.066 33.076 124.975 32.926 C 125.211 32.081 125.532 31.219 125.544 30.384 C 125.561 29.075 125.482 27.499 124.869 26.254 C 119.561 26.372 113.125 26.437 106.321 26.470 L 106.321 26.470 Z " transform="matrix(-0.006874412298202515, -1.6892306804656982, 0.48767274618148804, -0.0010921199573203921, 50.15, 225.7)"/>
  <path id="Blue" fill="#42B5E8" d="M 106.321 26.470 C 92.817 26.537 77.853 26.482 67.322 26.485 C 45.977 26.493 24.177 26.079 2.884 26.352 C 2.863 26.395 2.840 26.432 2.823 26.477 C 2.518 27.409 2.361 28.373 2.386 29.345 C 2.421 30.676 2.720 31.778 3.166 32.899 C 34.410 32.878 73.020 33.576 106.518 33.241 C 106.656 32.345 106.810 31.050 106.810 29.696 C 106.811 28.496 106.567 27.338 106.321 26.470 L 106.321 26.470 Z " transform="matrix(-0.00020353686704766005, -0.05001456290483475, 0.6049068570137024, -0.0013546592090278864, 45.8, 33.4)"/>
  <path id="Blue" fill="#42B5E8" d="M 106.321 26.470 C 92.817 26.537 77.853 26.482 67.322 26.485 C 45.977 26.493 24.177 26.079 2.884 26.352 C 2.863 26.395 2.840 26.432 2.823 26.477 C 2.518 27.409 2.361 28.373 2.386 29.345 C 2.421 30.676 2.720 31.778 3.166 32.899 C 34.410 32.878 73.020 33.576 106.518 33.241 C 106.656 32.345 106.810 31.050 106.810 29.696 C 106.811 28.496 106.567 27.338 106.321 26.470 L 106.321 26.470 Z " transform="matrix(-0.00020353686704766005, -0.05001456290483475, 0.6049068570137024, -0.0013546592090278864, 46.05, 23.8)"/>
  <path id="Blue" fill="#42B5E8" d="M 106.321 26.470 C 92.817 26.537 77.853 26.482 67.322 26.485 C 45.977 26.493 24.177 26.079 2.884 26.352 C 2.863 26.395 2.840 26.432 2.823 26.477 C 2.518 27.409 2.361 28.373 2.386 29.345 C 2.421 30.676 2.720 31.778 3.166 32.899 C 34.410 32.878 73.020 33.576 106.518 33.241 C 106.656 32.345 106.810 31.050 106.810 29.696 C 106.811 28.496 106.567 27.338 106.321 26.470 L 106.321 26.470 Z " transform="matrix(-0.00020353686704766005, -0.05001456290483475, 0.6049068570137024, -0.0013546592090278864, 45.75, 43.8)"/>
  <path id="Outline" fill="#231F20" d="M 125.922 23.789 C 125.586 23.416 125.182 23.361 124.832 23.489 C 87.297 24.458 39.545 23.755 2.186 24.494 C 2.144 24.495 2.114 24.508 2.077 24.515 C 2.054 24.515 2.021 24.513 2.009 24.513 C 0.100 24.699 0.020 28.098 0.001 29.346 C -0.023 30.992 0.258 34.221 2.348 34.868 C 2.367 34.874 2.399 34.871 2.425 34.872 C 2.487 34.900 2.548 34.934 2.608 34.937 C 24.394 35.416 46.046 35.921 67.740 35.916 C 83.585 35.910 109.460 36.039 125.300 35.686 C 126.181 35.665 126.665 35.104 126.764 34.491 C 127.587 33.407 127.784 31.342 127.835 30.387 C 127.954 28.127 127.473 25.508 125.922 23.789 L 125.922 23.789 Z M 124.975 32.925 C 119.066 33.075 112.883 33.176 106.519 33.240 C 73.022 33.575 34.412 32.878 3.167 32.898 C 2.721 31.777 2.422 30.675 2.387 29.344 C 2.362 28.371 2.519 27.407 2.824 26.476 C 2.841 26.431 2.864 26.394 2.885 26.351 C 24.178 26.078 45.978 26.492 67.323 26.484 C 77.854 26.482 92.818 26.537 106.322 26.469 C 113.127 26.436 119.562 26.371 124.871 26.252 C 125.483 27.497 125.562 29.073 125.546 30.382 C 125.532 31.218 125.211 32.080 124.975 32.925 L 124.975 32.925 Z " transform="matrix(0.0010329789947718382, -0.253831148147583, -0.48767274618148804, -0.001092119375243783, 78.15, 46.05)"/>
  <path id="ID0.18814716208726168" fill="#FF9400" stroke="none" stroke-linecap="round" d="M 66.600 139.850 C 66.614 139.550 66.388 139.041 66.700 139.850 C 67.965 143.106 69.407 146.479 70.200 149.950 C 70.412 150.868 70.051 151.933 69.600 152.850 C 69.151 153.647 68.602 154.876 67.600 154.900 C 66.548 154.924 65.739 153.699 65.350 152.750 C 64.715 151.565 64.498 150.138 64.700 148.850 C 64.962 147.177 66.163 145.614 66.500 144.100 C 66.810 142.713 66.551 141.041 66.600 139.850 Z " transform="matrix(1.2370405197143555, 0, 0, 0.9176591634750366, -19.3, -127.85)"/>
  <path id="ID0.6274793283082545" fill="#FFFF99" stroke="none" stroke-linecap="round" d="M 68.350 151.600 C 68.497 151.380 68.509 151.261 68.600 151.400 C 68.992 152.404 69.404 153.432 69.500 154.325 C 69.564 154.943 69.266 155.544 69.148 156.145 C 69.014 156.869 69.232 158.540 68.850 158.600 C 68.422 158.540 67.774 156.920 67.452 156.145 C 67.215 155.579 67 154.940 67.100 154.325 C 67.254 153.440 67.827 152.432 68.350 151.600 Z " transform="matrix(0.8145062327384949, 0, 0, 0.6042155623435974, 8.05, -81.7)"/>
  <path id="White" fill="#FFFFFF" d="M 106.321 26.470 C 106.567 27.338 106.811 28.496 106.811 29.696 C 106.811 31.050 106.657 32.345 106.519 33.241 C 112.883 33.177 119.066 33.076 124.975 32.926 C 125.211 32.081 125.532 31.219 125.544 30.384 C 125.561 29.075 125.482 27.499 124.869 26.254 C 119.561 26.372 113.125 26.437 106.321 26.470 L 106.321 26.470 Z " transform="matrix(-0.006874412298202515, -1.6892306804656982, 0.48767274618148804, -0.0010921199573203921, 65.1, 226.75)"/>
  <path id="Blue" fill="#42B5E8" d="M 106.321 26.470 C 92.817 26.537 77.853 26.482 67.322 26.485 C 45.977 26.493 24.177 26.079 2.884 26.352 C 2.863 26.395 2.840 26.432 2.823 26.477 C 2.518 27.409 2.361 28.373 2.386 29.345 C 2.421 30.676 2.720 31.778 3.166 32.899 C 34.410 32.878 73.020 33.576 106.518 33.241 C 106.656 32.345 106.810 31.050 106.810 29.696 C 106.811 28.496 106.567 27.338 106.321 26.470 L 106.321 26.470 Z " transform="matrix(-0.00020353686704766005, -0.05001456290483475, 0.6049068570137024, -0.0013546592090278864, 60.65, 34.4)"/>
  <path id="Blue" fill="#42B5E8" d="M 106.321 26.470 C 92.817 26.537 77.853 26.482 67.322 26.485 C 45.977 26.493 24.177 26.079 2.884 26.352 C 2.863 26.395 2.840 26.432 2.823 26.477 C 2.518 27.409 2.361 28.373 2.386 29.345 C 2.421 30.676 2.720 31.778 3.166 32.899 C 34.410 32.878 73.020 33.576 106.518 33.241 C 106.656 32.345 106.810 31.050 106.810 29.696 C 106.811 28.496 106.567 27.338 106.321 26.470 L 106.321 26.470 Z " transform="matrix(-0.00020353686704766005, -0.05001456290483475, 0.6049068570137024, -0.0013546592090278864, 60.9, 24.9)"/>
  <path id="Blue" fill="#42B5E8" d="M 106.321 26.470 C 92.817 26.537 77.853 26.482 67.322 26.485 C 45.977 26.493 24.177 26.079 2.884 26.352 C 2.863 26.395 2.840 26.432 2.823 26.477 C 2.518 27.409 2.361 28.373 2.386 29.345 C 2.421 30.676 2.720 31.778 3.166 32.899 C 34.410 32.878 73.020 33.576 106.518 33.241 C 106.656 32.345 106.810 31.050 106.810 29.696 C 106.811 28.496 106.567 27.338 106.321 26.470 L 106.321 26.470 Z " transform="matrix(-0.00020353686704766005, -0.05001456290483475, 0.6049068570137024, -0.0013546592090278864, 60.65, 44.8)"/>
  <path id="Outline" fill="#231F20" d="M 125.922 23.789 C 125.586 23.416 125.182 23.361 124.832 23.489 C 87.297 24.458 39.545 23.755 2.186 24.494 C 2.144 24.495 2.114 24.508 2.077 24.515 C 2.054 24.515 2.021 24.513 2.009 24.513 C 0.100 24.699 0.020 28.098 0.001 29.346 C -0.023 30.992 0.258 34.221 2.348 34.868 C 2.367 34.874 2.399 34.871 2.425 34.872 C 2.487 34.900 2.548 34.934 2.608 34.937 C 24.394 35.416 46.046 35.921 67.740 35.916 C 83.585 35.910 109.460 36.039 125.300 35.686 C 126.181 35.665 126.665 35.104 126.764 34.491 C 127.587 33.407 127.784 31.342 127.835 30.387 C 127.954 28.127 127.473 25.508 125.922 23.789 L 125.922 23.789 Z M 124.975 32.925 C 119.066 33.075 112.883 33.176 106.519 33.240 C 73.022 33.575 34.412 32.878 3.167 32.898 C 2.721 31.777 2.422 30.675 2.387 29.344 C 2.362 28.371 2.519 27.407 2.824 26.476 C 2.841 26.431 2.864 26.394 2.885 26.351 C 24.178 26.078 45.978 26.492 67.323 26.484 C 77.854 26.482 92.818 26.537 106.322 26.469 C 113.127 26.436 119.562 26.371 124.871 26.252 C 125.483 27.497 125.562 29.073 125.546 30.382 C 125.532 31.218 125.211 32.080 124.975 32.925 L 124.975 32.925 Z " transform="matrix(0.0010329789947718382, -0.253831148147583, -0.48767274618148804, -0.001092119375243783, 93.05, 47.15)"/>
  <path id="ID0.18814716208726168" fill="#FF9400" stroke="none" stroke-linecap="round" d="M 66.600 139.850 C 66.614 139.550 66.388 139.041 66.700 139.850 C 67.965 143.106 69.407 146.479 70.200 149.950 C 70.412 150.868 70.051 151.933 69.600 152.850 C 69.151 153.647 68.602 154.876 67.600 154.900 C 66.548 154.924 65.739 153.699 65.350 152.750 C 64.715 151.565 64.498 150.138 64.700 148.850 C 64.962 147.177 66.163 145.614 66.500 144.100 C 66.810 142.713 66.551 141.041 66.600 139.850 Z " transform="matrix(1.1688871383666992, 0, 0, 0.8671016693115234, -0.05, -118.95)"/>
  <path id="ID0.6274793283082545" fill="#FFFF99" stroke="none" stroke-linecap="round" d="M 68.350 151.600 C 68.497 151.380 68.509 151.261 68.600 151.400 C 68.992 152.404 69.404 153.432 69.500 154.325 C 69.564 154.943 69.266 155.544 69.148 156.145 C 69.014 156.869 69.232 158.540 68.850 158.600 C 68.422 158.540 67.774 156.920 67.452 156.145 C 67.215 155.579 67 154.940 67.100 154.325 C 67.254 153.440 67.827 152.432 68.350 151.600 Z " transform="matrix(0.8145062327384949, 0, 0, 0.6042155623435974, 22.9, -80.7)"/>
  <path id="White" fill="#FFFFFF" d="M 106.321 26.470 C 106.567 27.338 106.811 28.496 106.811 29.696 C 106.811 31.050 106.657 32.345 106.519 33.241 C 112.883 33.177 119.066 33.076 124.975 32.926 C 125.211 32.081 125.532 31.219 125.544 30.384 C 125.561 29.075 125.482 27.499 124.869 26.254 C 119.561 26.372 113.125 26.437 106.321 26.470 L 106.321 26.470 Z " transform="matrix(0.006874412298202515, -1.6892306804656982, -0.48767274618148804, -0.0010921199573203921, 106, 227.85)"/>
  <path id="Blue" fill="#42B5E8" d="M 106.321 26.470 C 92.817 26.537 77.853 26.482 67.322 26.485 C 45.977 26.493 24.177 26.079 2.884 26.352 C 2.863 26.395 2.840 26.432 2.823 26.477 C 2.518 27.409 2.361 28.373 2.386 29.345 C 2.421 30.676 2.720 31.778 3.166 32.899 C 34.410 32.878 73.020 33.576 106.518 33.241 C 106.656 32.345 106.810 31.050 106.810 29.696 C 106.811 28.496 106.567 27.338 106.321 26.470 L 106.321 26.470 Z " transform="matrix(0.00020353686704766005, -0.05001456290483475, -0.6049068570137024, -0.0013546592090278864, 110.35, 35.55)"/>
  <path id="Blue" fill="#42B5E8" d="M 106.321 26.470 C 92.817 26.537 77.853 26.482 67.322 26.485 C 45.977 26.493 24.177 26.079 2.884 26.352 C 2.863 26.395 2.840 26.432 2.823 26.477 C 2.518 27.409 2.361 28.373 2.386 29.345 C 2.421 30.676 2.720 31.778 3.166 32.899 C 34.410 32.878 73.020 33.576 106.518 33.241 C 106.656 32.345 106.810 31.050 106.810 29.696 C 106.811 28.496 106.567 27.338 106.321 26.470 L 106.321 26.470 Z " transform="matrix(0.00020353686704766005, -0.05001456290483475, -0.6049068570137024, -0.0013546592090278864, 110.1, 26)"/>
  <path id="Blue" fill="#42B5E8" d="M 106.321 26.470 C 92.817 26.537 77.853 26.482 67.322 26.485 C 45.977 26.493 24.177 26.079 2.884 26.352 C 2.863 26.395 2.840 26.432 2.823 26.477 C 2.518 27.409 2.361 28.373 2.386 29.345 C 2.421 30.676 2.720 31.778 3.166 32.899 C 34.410 32.878 73.020 33.576 106.518 33.241 C 106.656 32.345 106.810 31.050 106.810 29.696 C 106.811 28.496 106.567 27.338 106.321 26.470 L 106.321 26.470 Z " transform="matrix(0.00020353686704766005, -0.05001456290483475, -0.6049068570137024, -0.0013546592090278864, 110.5, 45.9)"/>
  <path id="Outline" fill="#231F20" d="M 125.922 23.789 C 125.586 23.416 125.182 23.361 124.832 23.489 C 87.297 24.458 39.545 23.755 2.186 24.494 C 2.144 24.495 2.114 24.508 2.077 24.515 C 2.054 24.515 2.021 24.513 2.009 24.513 C 0.100 24.699 0.020 28.098 0.001 29.346 C -0.023 30.992 0.258 34.221 2.348 34.868 C 2.367 34.874 2.399 34.871 2.425 34.872 C 2.487 34.900 2.548 34.934 2.608 34.937 C 24.394 35.416 46.046 35.921 67.740 35.916 C 83.585 35.910 109.460 36.039 125.300 35.686 C 126.181 35.665 126.665 35.104 126.764 34.491 C 127.587 33.407 127.784 31.342 127.835 30.387 C 127.954 28.127 127.473 25.508 125.922 23.789 L 125.922 23.789 Z M 124.975 32.925 C 119.066 33.075 112.883 33.176 106.519 33.240 C 73.022 33.575 34.412 32.878 3.167 32.898 C 2.721 31.777 2.422 30.675 2.387 29.344 C 2.362 28.371 2.519 27.407 2.824 26.476 C 2.841 26.431 2.864 26.394 2.885 26.351 C 24.178 26.078 45.978 26.492 67.323 26.484 C 77.854 26.482 92.818 26.537 106.322 26.469 C 113.127 26.436 119.562 26.371 124.871 26.252 C 125.483 27.497 125.562 29.073 125.546 30.382 C 125.532 31.218 125.211 32.080 124.975 32.925 L 124.975 32.925 Z " transform="matrix(0.0010329789947718382, -0.253831148147583, -0.48767274618148804, -0.001092119375243783, 106.8, 48.25)"/>
  <path id="ID0.18814716208726168" fill="#FF9400" stroke="none" stroke-linecap="round" d="M 66.600 139.850 C 66.614 139.550 66.388 139.041 66.700 139.850 C 67.965 143.106 69.407 146.479 70.200 149.950 C 70.412 150.868 70.051 151.933 69.600 152.850 C 69.151 153.647 68.602 154.876 67.600 154.900 C 66.548 154.924 65.739 153.699 65.350 152.750 C 64.715 151.565 64.498 150.138 64.700 148.850 C 64.962 147.177 66.163 145.614 66.500 144.100 C 66.810 142.713 66.551 141.041 66.600 139.850 Z " transform="matrix(1.1686393022537231, 0, 0, 0.8669179677963257, 14.05, -117.75)"/>
  <path id="ID0.6274793283082545" fill="#FFFF99" stroke="none" stroke-linecap="round" d="M 68.350 151.600 C 68.497 151.380 68.509 151.261 68.600 151.400 C 68.992 152.404 69.404 153.432 69.500 154.325 C 69.564 154.943 69.266 155.544 69.148 156.145 C 69.014 156.869 69.232 158.540 68.850 158.600 C 68.422 158.540 67.774 156.920 67.452 156.145 C 67.215 155.579 67 154.940 67.100 154.325 C 67.254 153.440 67.827 152.432 68.350 151.600 Z " transform="matrix(0.8145062327384949, 0, 0, 0.6042155623435974, 36.9, -79.7)"/>
</svg>