<svg version="1.1" width="48" height="191" viewBox="0 -1 48 191" xmlns="http://www.w3.org/2000/svg" xmlns:xlink="http://www.w3.org/1999/xlink">
  <!-- Exported by Scratch - http://scratch.mit.edu/ -->
  <g id="ID0.3783438066020608" transform="matrix(1, 0, 0, 1, 0.15, 0.55)">
    <g id="Shoes">
      <path id="Shoe_Right" fill="#0B1938" d="M 36.281 170.044 C 36.470 170.606 37.919 171.157 38.472 171.403 C 39.410 171.819 40.535 172.305 41.493 172.608 C 42.385 172.889 43.201 173.188 44.137 173.419 C 44.540 173.517 45.379 173.661 45.778 173.741 C 46.401 173.868 46.184 174.470 46.305 174.950 C 46.938 177.485 44.071 178.585 41.969 178.647 C 41.393 178.665 40.907 178.510 40.362 178.395 C 39.930 178.303 39.229 178.403 38.833 178.215 C 38.003 177.828 38.138 176.569 37.110 176.231 C 34.592 175.399 31.743 174.690 29.151 174.469 C 30.079 173.852 31.725 172.893 32.630 172.375 C 33.764 171.727 34.863 170.979 35.964 170.426 M 36.173 178.731 C 36.035 178.448 35.913 178.118 35.748 177.850 C 35.583 177.582 35.827 177.684 35.567 177.536 C 35.354 177.415 34.645 177.356 34.409 177.276 C 33.414 176.930 32.404 176.678 31.393 176.360 C 30.621 176.116 29.813 175.887 29.016 175.678 C 28.358 175.508 27.381 175.303 26.723 175.448 C 26.147 175.569 25.342 175.936 24.745 175.948 C 24.408 177.550 28.355 177.319 29.183 177.372 C 30.958 177.481 32.726 178.538 34.490 178.761 C 35.036 178.833 35.500 178.534 36.025 178.607 " transform="matrix(0.949999988079071, 0, 0, 0.949999988079071, 0.15, 0.9)"/>
      <path id="Shoe_Trim_Right_1_" fill="#A2C6DD" d="M 46.435 173.858 C 46.375 174.032 46.599 174.389 46.564 174.655 C 46.519 174.989 46.398 175.227 46.466 175.581 C 46.595 176.226 46.193 176.558 45.898 177.120 C 45.650 177.593 44.880 178.083 44.390 178.249 C 43.437 178.573 42.527 178.597 41.536 178.546 C 41.078 178.519 40.610 178.495 40.159 178.450 C 39.929 178.427 39.561 178.479 39.352 178.384 C 39.180 178.308 39.201 178.286 39.113 178.099 C 38.790 177.425 38.469 176.945 37.925 176.411 C 37.646 176.134 37.452 176.099 37.050 175.989 C 36.581 175.858 36.263 175.862 35.791 175.743 C 35.374 175.636 34.711 175.466 34.278 175.403 C 33.766 175.335 33.397 175.174 32.891 175.049 C 32.280 174.901 31.637 174.758 31.010 174.692 C 30.514 174.637 29.967 174.475 29.481 174.475 C 29.176 174.473 28.856 174.551 28.596 174.672 C 27.727 175.088 27.385 175.172 27.283 175.401 C 27.897 175.657 28.643 175.452 29.289 175.678 C 29.964 175.912 30.666 176.176 31.384 176.340 C 32.140 176.514 32.886 176.838 33.657 176.955 C 33.975 177.002 34.257 177.090 34.578 177.168 C 34.927 177.250 35.489 177.264 35.792 177.453 C 36.038 177.605 36.437 178.418 36.422 178.699 C 35.246 178.761 33.994 178.633 32.890 178.220 C 32.107 177.929 31.300 177.622 30.499 177.423 C 29.265 177.114 27.847 177.603 26.644 177.214 C 26.091 177.036 25.625 177.081 25.209 176.665 C 24.985 176.440 24.929 176.011 24.597 176.020 C 24.357 176.026 23.959 176.061 23.743 176.153 C 23.207 176.378 23.627 177.087 23.783 177.491 C 23.967 177.968 24.316 178.692 24.795 178.856 C 25.315 179.032 26 179.086 26.565 178.983 C 27.223 178.862 27.680 178.821 28.364 178.799 C 29.617 178.762 30.874 179.498 32.061 179.945 C 32.877 180.252 33.719 180.511 34.516 180.845 C 35.184 181.124 35.879 181.177 36.587 181.284 C 37.475 181.419 38.291 181.298 39.190 181.386 C 40.139 181.482 41.141 181.566 42.100 181.490 C 42.981 181.420 44.076 181.703 44.906 181.344 C 45.197 181.217 45.430 181.205 45.718 181.073 C 46.269 180.821 47.068 180.427 47.484 179.987 C 48.043 179.395 48.505 179.278 48.755 178.383 C 48.961 177.643 48.901 177.176 48.841 176.487 C 48.791 175.926 48.610 175.272 48.352 174.725 C 48.227 174.455 47.948 174.233 47.696 174.096 C 47.489 173.983 46.501 173.639 46.405 173.866 " transform="matrix(0.949999988079071, 0, 0, 0.949999988079071, 0.15, 0.9)"/>
      <path id="Shoe_Left" fill="#0B1938" d="M 22.547 185.722 C 23.175 185.829 23.818 186.263 24.355 186.593 C 24.963 186.966 25.250 187.312 25.808 187.716 C 26.148 187.964 26.550 188.456 26.888 188.712 C 27.263 188.997 27.619 189.286 28.034 189.515 C 28.785 189.927 29.487 189.790 30.285 189.962 C 30.580 190.030 30.872 190.165 31.118 190.353 C 31.415 190.582 31.360 190.802 31.373 191.165 C 31.384 191.536 31.459 191.872 31.253 192.192 C 31.009 192.571 30.470 193.184 30.130 193.473 C 29.739 193.805 29.435 193.807 29.046 194.135 C 28.687 194.440 28.032 194.746 27.575 194.836 C 26.417 195.065 26.190 195.356 25.037 195.627 C 24.186 195.824 22.507 196.082 21.620 196.033 C 21.013 196.006 20.667 195.845 20.093 195.693 C 19.439 195.517 18.882 195.302 18.337 194.904 C 17.775 194.488 17.669 194.136 17.608 193.459 C 17.585 193.195 17.323 192.834 17.194 192.600 C 17.067 192.366 17.003 192.073 16.778 191.961 C 16.240 191.680 15.738 191.373 15.217 191.074 C 14.612 190.732 14.051 190.334 13.424 190.029 C 12.829 189.742 12.276 189.326 11.678 189.066 C 11.320 188.912 11.067 188.904 11.008 188.462 C 10.965 188.140 11.156 187.845 11.141 187.509 C 11.992 187.808 12.704 188.388 13.551 188.726 C 13.912 188.871 14.209 189.052 14.606 189.109 C 15.049 189.170 15.387 189.002 15.792 188.838 C 16.206 188.670 16.640 188.510 17.073 188.363 C 17.585 188.189 18.016 187.896 18.493 187.666 C 19.487 187.180 20.550 186.529 21.563 186.096 C 21.760 186.012 23.051 185.784 23.042 185.592 M 14.420 192.536 C 14.349 192.235 13.763 192.087 13.496 191.964 C 13.199 191.827 12.963 191.644 12.699 191.460 C 12.182 191.106 11.662 190.733 11.106 190.435 C 10.590 190.156 9.928 190.085 9.705 189.509 C 9.615 189.280 9.627 189.036 9.565 188.779 C 9.512 188.537 9.684 188.175 9.625 187.920 C 9.494 187.361 9.517 187.043 9.804 186.582 C 9.396 186.270 8.927 185.963 8.429 185.814 C 8.058 185.701 7.853 185.834 7.800 186.189 C 7.756 186.474 7.560 186.589 7.390 186.834 C 7.211 187.086 7.384 187.293 7.347 187.621 C 7.306 187.963 7.364 188.314 7.377 188.650 C 7.401 189.261 7.246 189.879 7.761 190.306 C 8.259 190.718 8.652 191.220 9.131 191.646 C 9.750 192.197 10.502 192.462 11.242 192.826 C 11.626 193.015 12.024 193.160 12.434 193.301 C 12.891 193.461 13.479 193.742 13.979 193.656 C 14.229 193.613 14.380 193.476 14.453 193.213 C 14.496 193.053 14.500 192.559 14.354 192.512 " transform="matrix(0.949999988079071, 0, 0, 0.949999988079071, 0.15, 0.9)"/>
      <path id="Shoe_Trim_Left" fill="#A2C6DD" d="M 31.357 190.142 C 32.189 190.339 31.644 191.695 31.382 192.121 C 31.109 192.566 31.015 192.896 30.560 193.207 C 30.292 193.389 29.947 193.506 29.701 193.723 C 29.418 193.971 29.316 194.088 28.935 194.258 C 27.837 194.740 26.476 195.336 25.308 195.623 C 24.562 195.805 23.681 195.963 22.912 196.037 C 21.365 196.182 20.341 195.918 18.961 195.141 C 17.953 194.571 17.888 193.485 17.504 192.534 C 17.304 192.040 16.769 191.938 16.316 191.669 C 15.662 191.280 15.039 190.864 14.373 190.489 C 13.678 190.098 12.955 189.759 12.246 189.384 C 11.682 189.081 11.021 188.788 11.123 188.044 C 11.158 187.798 11.505 187.429 11.435 187.278 C 11.367 187.126 10.914 187.028 10.771 186.960 C 10.617 186.882 10.369 186.630 10.199 186.614 C 9.736 186.585 9.621 187.534 9.625 187.917 C 9.633 188.399 9.711 189.007 9.904 189.444 C 10.039 189.749 10.273 189.825 10.543 189.985 C 10.907 190.204 11.231 190.475 11.604 190.665 C 12.202 190.970 12.713 191.343 13.292 191.686 C 13.728 191.946 14.476 192.229 14.604 192.729 C 14.659 192.940 14.768 193.315 14.536 193.430 C 14.377 193.510 13.850 193.366 13.643 193.366 C 12.948 193.366 12.467 193.110 11.860 192.817 C 11.080 192.440 10.104 192.122 9.434 191.575 C 8.901 191.143 8.352 190.401 7.655 190.216 C 7.612 190.474 7.749 190.763 7.817 191.009 C 7.893 191.286 7.907 191.519 7.907 191.806 C 7.907 192.413 8.055 192.826 8.489 193.263 C 9.255 194.044 10.616 194.283 11.667 194.458 C 12.739 194.636 13.817 195.019 14.860 195.382 C 15.551 195.624 16.100 195.964 16.741 196.308 C 17.424 196.675 17.886 197.128 18.485 197.572 C 18.786 197.793 19.098 197.970 19.380 198.217 C 19.603 198.410 19.806 198.453 20.081 198.569 C 20.440 198.721 20.835 198.938 21.196 199.053 C 21.456 199.139 21.700 199.258 21.962 199.301 C 22.665 199.410 23.403 199.225 24.103 199.203 C 25.115 199.170 26.013 198.818 26.958 198.465 C 27.860 198.121 28.815 198.012 29.673 197.555 C 30.066 197.346 30.439 197.129 30.788 196.856 C 31.142 196.575 31.539 196.477 31.934 196.268 C 33.424 195.481 35.033 193.692 34.612 191.909 C 34.464 191.280 33.947 190.751 33.336 190.548 C 32.751 190.351 31.892 190.060 31.267 190.093 " transform="matrix(0.949999988079071, 0, 0, 0.949999988079071, 0.15, 0.9)"/>
      <g id="Right_Shoe_Lines">
        <g id="ID0.6123573230579495">
          <path id="ID0.28505046339705586" fill="#010101" d="M 24.160 178.345 C 23.949 178.206 23.515 178.384 23.814 178.574 C 24.673 179.136 24.874 179.420 25.996 179.254 C 29.435 178.752 32.407 180.506 35.637 181.315 C 38.723 182.085 43.168 181.973 46.223 181.022 C 49.507 179.999 49.492 176.504 48.092 174.063 C 47.757 173.477 41.110 172.333 44.967 173.344 C 42.001 172.571 39.200 171.532 36.533 170.008 C 36.275 169.863 35.992 170.137 36.303 170.317 C 38.977 171.844 41.852 173.049 44.872 173.702 C 46.189 173.991 48.443 174.175 48.521 176.264 C 48.683 180.621 44.532 181.379 41.077 181.243 C 36.915 181.077 33.476 180.370 29.566 178.764 C 27.785 178.032 25.966 179.526 24.160 178.345 L 24.160 178.345 Z " transform="matrix(0.949999988079071, 0, 0, 0.949999988079071, 0.15, 0.9)"/>
          <path id="ID0.2633480802178383" fill="#010101" d="M 46.625 173.872 C 46.604 173.640 46.070 173.563 46.094 173.831 C 46.184 174.833 46.452 175.944 45.786 176.831 C 45.185 177.630 44.377 178.200 43.353 178.317 C 41.902 178.483 40.480 178.210 39.033 178.145 C 38.676 178.127 38.786 178.508 39.081 178.524 C 40.914 178.608 43.285 179.270 44.978 178.231 C 46.739 177.153 46.792 175.759 46.625 173.872 L 46.625 173.872 Z " transform="matrix(0.949999988079071, 0, 0, 0.949999988079071, 0.15, 0.9)"/>
          <path id="ID0.7318954882211983" fill="#010101" d="M 37.691 176.095 C 37.545 175.909 37.046 175.986 37.253 176.245 C 37.798 176.933 38.371 177.599 38.807 178.364 C 38.919 178.561 39.453 178.561 39.309 178.305 C 38.853 177.507 38.259 176.812 37.691 176.095 L 37.691 176.095 Z " transform="matrix(0.949999988079071, 0, 0, 0.949999988079071, 0.15, 0.9)"/>
          <path id="ID0.9398090578615665" fill="#010101" d="M 28.974 174.280 C 28.617 174.235 28.734 174.624 29.021 174.659 C 31.871 175.007 34.800 175.583 37.541 176.425 C 37.863 176.525 37.954 176.169 37.637 176.071 C 34.841 175.212 31.877 174.634 28.974 174.280 L 28.974 174.280 Z " transform="matrix(0.949999988079071, 0, 0, 0.949999988079071, 0.15, 0.9)"/>
          <path id="ID0.4406727198511362" fill="#010101" d="M 26.793 175.171 C 26.439 175.177 26.728 175.552 26.976 175.550 C 28.236 175.525 29.728 176.032 30.921 176.364 C 32.429 176.782 33.933 177.212 35.453 177.587 C 35.776 177.671 35.874 177.314 35.548 177.233 C 32.784 176.546 29.681 175.112 26.793 175.171 L 26.793 175.171 Z " transform="matrix(0.949999988079071, 0, 0, 0.949999988079071, 0.15, 0.9)"/>
          <path id="ID0.2346159191802144" fill="#010101" d="M 36.289 178.833 C 36.644 178.804 36.359 178.437 36.107 178.456 C 33.882 178.638 31.636 177.544 29.496 177.122 C 28.383 176.901 25.488 177.505 25.064 176.036 C 25 175.811 24.462 175.749 24.534 175.995 C 24.965 177.493 27.140 177.415 28.385 177.431 C 31.084 177.462 33.566 179.054 36.289 178.833 L 36.289 178.833 Z " transform="matrix(0.949999988079071, 0, 0, 0.949999988079071, 0.15, 0.9)"/>
          <path id="ID0.8513877997174859" fill="#010101" d="M 35.908 177.380 C 35.785 177.192 35.249 177.196 35.407 177.439 C 35.670 177.839 35.842 178.287 36.064 178.710 C 36.168 178.911 36.702 178.915 36.564 178.653 C 36.343 178.231 36.170 177.780 35.908 177.380 L 35.908 177.380 Z " transform="matrix(0.949999988079071, 0, 0, 0.949999988079071, 0.15, 0.9)"/>
        </g>
      </g>
      <g id="Left_Shoe_Lines">
        <g id="ID0.5589553508907557">
          <path id="ID0.23305168049409986" fill="#010101" d="M 8.468 185.862 C 8.503 185.801 8.017 185.596 7.943 185.716 C 6.366 188.316 6.712 193.476 10.206 194.253 C 15.667 195.472 19.652 200.601 25.443 199.017 C 27.545 198.441 38.234 194.515 34 190.872 C 33.346 190.310 32.314 190.122 31.500 190.056 C 27.807 189.757 26.234 187.093 23.275 185.757 C 23.161 185.710 22.663 185.673 22.976 185.818 C 25.836 187.109 27.265 189.650 30.419 190.148 C 40.224 191.697 28.435 198.203 25.009 198.822 C 21.378 199.478 16.181 195.808 12.525 194.658 C 9.829 193.812 7.661 192.826 7.693 189.551 C 7.705 188.202 7.755 187.034 8.468 185.862 L 8.468 185.862 Z " transform="matrix(0.949999988079071, 0, 0, 0.949999988079071, 0.15, 0.9)"/>
          <path id="ID0.32446596631780267" fill="#010101" d="M 14.500 193.509 C 14.754 193.505 14.264 193.304 14.159 193.306 C 11.623 193.351 9.413 191.742 7.767 189.997 C 7.683 189.907 7.189 189.841 7.290 189.948 C 9.134 191.901 11.710 193.560 14.500 193.509 L 14.500 193.509 Z " transform="matrix(0.949999988079071, 0, 0, 0.949999988079071, 0.15, 0.9)"/>
          <path id="ID0.22177046863362193" fill="#010101" d="M 30.955 190.071 C 30.650 189.997 30.607 190.145 30.915 190.219 C 33.049 190.739 28.461 194.281 28.111 194.426 C 26.800 194.971 25.414 195.473 24.001 195.688 C 21.872 196.204 19.885 195.704 18.034 194.182 C 17.894 193.528 17.741 192.873 17.562 192.227 C 17.536 192.069 17.032 192.039 17.040 192.084 C 17.385 194.027 17.900 194.973 19.821 195.650 C 21.868 196.373 24.087 196.089 26.131 195.476 C 28.207 194.853 30.817 194.021 31.656 191.781 C 32.036 190.765 31.943 190.312 30.955 190.071 L 30.955 190.071 Z " transform="matrix(0.949999988079071, 0, 0, 0.949999988079071, 0.15, 0.9)"/>
          <path id="ID0.3993028518743813" fill="#010101" d="M 11.364 188.810 C 11.247 188.751 10.754 188.710 11.062 188.867 C 12.204 189.443 13.300 190.090 14.407 190.726 C 15.219 191.195 16.219 191.595 16.939 192.193 C 17.036 192.271 17.519 192.328 17.415 192.240 C 16.540 191.515 15.394 191.066 14.415 190.496 C 13.409 189.911 12.402 189.335 11.364 188.810 L 11.364 188.810 Z " transform="matrix(0.949999988079071, 0, 0, 0.949999988079071, 0.15, 0.9)"/>
          <path id="ID0.7009192113764584" fill="#010101" d="M 10.255 189.778 C 10.165 189.727 9.638 189.661 9.859 189.784 C 11.371 190.622 12.838 191.536 14.302 192.462 C 14.388 192.519 14.915 192.593 14.698 192.456 C 13.238 191.532 11.771 190.616 10.255 189.778 L 10.255 189.778 Z " transform="matrix(0.949999988079071, 0, 0, 0.949999988079071, 0.15, 0.9)"/>
          <path id="ID0.9466923717409372" fill="#010101" d="M 9.767 189.794 C 9.831 189.923 10.314 189.954 10.283 189.890 C 9.832 189.011 9.510 187.538 10.135 186.667 C 10.171 186.620 9.700 186.403 9.612 186.526 C 8.984 187.401 9.312 188.905 9.767 189.794 L 9.767 189.794 Z " transform="matrix(0.949999988079071, 0, 0, 0.949999988079071, 0.15, 0.9)"/>
          <path id="ID0.7554976916871965" fill="#010101" d="M 14.259 193.372 C 14.263 193.517 14.785 193.583 14.782 193.513 C 14.772 193.201 14.739 192.882 14.807 192.570 C 14.832 192.453 14.305 192.324 14.284 192.427 C 14.216 192.737 14.250 193.056 14.259 193.372 L 14.259 193.372 Z " transform="matrix(0.949999988079071, 0, 0, 0.949999988079071, 0.15, 0.9)"/>
          <path id="ID0.30537131475284696" fill="#010101" d="M 10.968 188.796 C 11.011 188.925 11.515 188.982 11.482 188.896 C 11.326 188.416 11.367 187.974 11.539 187.509 C 11.577 187.417 11.060 187.253 11.018 187.368 C 10.837 187.849 10.808 188.313 10.968 188.796 L 10.968 188.796 Z " transform="matrix(0.949999988079071, 0, 0, 0.949999988079071, 0.15, 0.9)"/>
        </g>
      </g>
    </g>
    <g id="Pants">
      <path id="Pants_2_" fill="#244764" d="M 23.046 175.970 C 23.124 175.988 23.200 175.962 23.280 175.984 C 23.297 176.742 23.647 177.129 23.887 177.775 C 24.158 178.509 23.993 179.361 24.108 180.166 C 24.215 180.916 24.606 181.607 24.727 182.354 C 24.840 183.045 25.393 183.442 25.578 184.079 C 25.925 185.272 23.099 185.429 22.140 185.866 C 20.609 186.563 19.052 187.471 17.515 188.116 C 16.224 188.655 15.093 189.475 13.851 188.872 C 12.228 188.089 12.394 188.212 10.656 186.970 C 8.789 185.960 8.287 186.115 7.355 184.511 C 6.853 183.646 7.004 183.099 7.088 182.146 C 7.210 180.789 7.374 179.589 7.648 178.289 C 7.902 177.094 8.287 176.330 8.709 175.143 C 9.127 173.965 9.361 172.331 9.232 170.963 C 9.109 169.670 8.777 168.565 8.724 167.211 C 8.621 164.588 9.271 161.967 9.425 159.430 C 9.590 156.703 9.589 153.967 9.986 151.307 C 10.189 149.959 10.472 148.780 10.655 147.401 C 10.833 146.034 11.120 144.821 11.265 143.266 C 11.320 142.655 11.116 142.055 11.252 141.397 C 11.399 140.680 11.858 140.155 12.289 139.633 C 13.218 138.504 13.227 137.229 13.227 135.828 C 13.227 134.269 13.145 132.793 13.014 131.223 C 12.869 129.465 12.796 127.567 12.516 125.676 C 12.119 123.020 11.826 120.899 12.055 118.174 C 12.758 118.020 11.436 116.190 11.987 116.375 C 12.475 116.537 11.798 115.234 11.944 114.738 C 12.194 113.879 11.417 113.506 11.923 111.388 C 12.036 110.906 11.437 108.382 11.987 108.411 C 11.874 108.751 12.194 106.647 12.194 106.294 C 12.194 104.608 12.440 102.878 12.770 103.056 C 13.293 103.066 17.850 105.015 17.827 104.994 C 18.913 104.904 20.110 105.142 21.198 105.033 C 22.827 104.865 22.925 104.824 24.473 104.396 C 27.873 103.458 35.676 96.961 38.907 96.145 C 39.731 95.936 40.518 110.678 38.651 115.035 C 38.346 115.752 38.380 117.017 38.255 117.664 C 38.086 118.531 37.970 119.514 37.929 120.383 C 37.855 121.934 38 123.533 37.838 125.049 C 37.662 126.713 37.351 128.137 37.519 129.754 C 37.665 131.154 37.269 132.547 37.271 133.949 C 37.273 135.326 37.007 136.793 37.011 138.181 C 37.025 143.648 35.933 149.015 36.201 154.408 C 36.266 155.713 36.573 157.109 36.448 158.377 C 36.317 159.701 35.585 160.863 35.196 162.143 C 34.803 163.444 34.938 164.717 35.401 165.942 C 35.799 166.991 37.010 168.219 36.731 169.444 C 36.502 170.434 35.032 170.915 34.227 171.497 C 33.086 172.327 31.171 173.309 29.928 173.931 C 27.583 175.103 26.005 176.152 23.286 176.171 " transform="matrix(0.949999988079071, 0, 0, 0.949999988079071, 0.15, 0.9)"/>
      <g id="Pants_Lines_2_">
        <g id="ID0.4155438197776675">
          <path id="ID0.21040254598483443" fill="#010101" d="M 34.159 109.017 C 34.467 108.912 34.048 108.622 33.849 108.691 C 32.956 108.998 31.927 109.218 31.236 109.910 C 30.089 111.060 29.638 112.846 29.183 114.348 C 29.117 114.565 29.640 114.709 29.706 114.491 C 30.128 113.095 30.542 111.311 31.610 110.241 C 32.304 109.542 33.256 109.325 34.159 109.017 L 34.159 109.017 Z " transform="matrix(0.949999988079071, 0, 0, 0.949999988079071, 0.15, 0.9)"/>
          <path id="ID0.7107321028597653" fill="#010101" d="M 31.650 110.399 C 31.668 110.167 31.142 110.045 31.126 110.258 C 30.723 115.569 29.949 121.348 28.309 126.430 C 27.180 129.924 24.891 133.985 24.891 137.705 C 24.891 137.914 25.420 138.010 25.420 137.756 C 25.420 133.430 28.372 129.176 29.268 124.998 C 30.298 120.181 31.275 115.317 31.650 110.399 L 31.650 110.399 Z " transform="matrix(0.949999988079071, 0, 0, 0.949999988079071, 0.15, 0.9)"/>
          <path id="ID0.5298327566124499" fill="#010101" d="M 13.032 103.128 C 13.095 102.909 12.568 102.769 12.513 102.989 C 10.618 109.719 11.652 117.694 12.173 124.550 C 12.433 127.995 12.903 131.446 12.946 134.900 C 12.975 137.320 12.938 138.218 11.602 140.152 C 11.483 140.382 11.383 140.621 11.307 140.869 C 11.200 143.043 10.631 145.076 10.495 147.230 C 10.477 147.464 11.004 147.584 11.018 147.371 C 11.167 145.008 11.372 141.400 12.717 139.459 C 13.245 138.691 13.501 137.494 13.491 136.580 C 13.444 132.900 13.049 129.268 12.771 125.607 C 12.228 118.440 11.060 110.136 13.032 103.128 L 13.032 103.128 Z " transform="matrix(0.949999988079071, 0, 0, 0.949999988079071, 0.15, 0.9)"/>
          <path id="ID0.9860925432294607" fill="#010101" d="M 26.709 132.384 C 26.699 132.173 26.168 132.081 26.181 132.329 C 26.314 135.122 27.513 137.901 27.056 140.714 C 26.728 142.730 26.209 144.681 26.181 146.732 C 26.177 146.941 26.705 147.039 26.709 146.783 C 26.747 144.131 27.935 141.498 27.664 138.845 C 27.443 136.669 26.814 134.571 26.709 132.384 L 26.709 132.384 Z " transform="matrix(0.949999988079071, 0, 0, 0.949999988079071, 0.15, 0.9)"/>
          <path id="ID0.6904278523288667" fill="#010101" d="M 39.435 95.845 C 39.414 95.632 38.880 95.546 38.906 95.792 C 39.359 100.211 40.080 104.749 39.599 109.198 C 39.152 113.315 37.830 117.216 37.646 121.372 C 37.638 121.579 38.164 121.677 38.175 121.423 C 38.384 116.730 40.159 112.345 40.216 107.648 C 40.265 103.671 39.839 99.794 39.435 95.845 L 39.435 95.845 Z " transform="matrix(0.949999988079071, 0, 0, 0.949999988079071, 0.15, 0.9)"/>
          <path id="ID0.6602921220473945" fill="#010101" d="M 37.134 158.138 C 37.224 157.945 36.705 157.786 36.609 157.997 C 35.511 160.395 35.086 163.468 33.338 165.489 C 31.493 167.626 30.048 168.458 27.109 168.591 C 26.753 168.609 27.068 168.948 27.300 168.939 C 30.142 168.812 31.728 168.134 33.554 166.021 C 35.474 163.798 35.923 160.784 37.134 158.138 L 37.134 158.138 Z " transform="matrix(0.949999988079071, 0, 0, 0.949999988079071, 0.15, 0.9)"/>
          <path id="ID0.765230895485729" fill="#010101" d="M 36.607 158.550 C 36.655 158.759 37.189 158.835 37.136 158.595 C 35.527 151.482 36.911 142.603 37.495 135.406 C 37.917 130.209 38.028 125.049 38.241 119.840 C 38.250 119.633 37.723 119.533 37.712 119.789 C 37.448 126.250 37.097 132.664 36.670 139.115 C 36.257 145.374 35.216 152.394 36.607 158.550 L 36.607 158.550 Z " transform="matrix(0.949999988079071, 0, 0, 0.949999988079071, 0.15, 0.9)"/>
          <path id="ID0.21591732883825898" fill="#010101" d="M 35.080 163.610 C 35.032 163.401 34.497 163.325 34.551 163.559 C 34.784 164.571 34.889 165.920 35.508 166.793 C 36.053 167.561 37.257 168.836 36.153 169.898 C 35.448 170.572 34.688 171.025 33.838 171.468 C 30.374 173.290 27.258 175.749 23.199 175.939 C 22.839 175.957 23.156 176.298 23.387 176.289 C 25.449 176.193 27.346 175.627 29.158 174.635 C 31.250 173.492 33.605 172.401 35.543 171.018 C 36.333 170.450 37.587 169.456 36.995 168.301 C 36.168 166.692 35.493 165.407 35.080 163.610 L 35.080 163.610 Z " transform="matrix(0.949999988079071, 0, 0, 0.949999988079071, 0.15, 0.9)"/>
          <path id="ID0.04007707303389907" fill="#010101" d="M 10.638 177.968 C 10.663 178.181 11.200 178.263 11.162 178.019 C 10.393 172.210 8.526 167.499 9.408 161.472 C 10.098 156.763 9.826 151.777 10.994 147.132 C 11.052 146.909 10.526 146.771 10.472 146.989 C 9.216 151.987 8.958 157.909 8.576 163.042 C 8.185 168.282 9.964 172.878 10.638 177.968 L 10.638 177.968 Z " transform="matrix(0.949999988079071, 0, 0, 0.949999988079071, 0.15, 0.9)"/>
          <path id="ID0.05291978782042861" fill="#010101" d="M 25.839 184.104 C 25.814 183.891 25.280 183.807 25.312 184.053 C 25.425 184.987 21.025 186.061 20.291 186.414 C 19.295 186.893 18.342 187.416 17.367 187.937 C 15.035 189.189 13.406 188.414 11.228 187.064 C 8.751 185.527 6.830 183.839 7.455 180.541 C 7.684 179.344 7.920 178.129 8.330 176.980 C 9.002 175.095 9.650 173.382 9.672 171.375 C 9.674 171.166 9.147 171.068 9.143 171.324 C 9.100 175.459 5.544 179.832 7.069 184.029 C 7.746 185.884 9.210 186.230 10.891 187.269 C 11.846 187.861 13 188.816 14.125 189.119 C 16.961 189.879 20.073 186.650 22.646 185.910 C 23.575 185.642 26.007 185.489 25.839 184.104 L 25.839 184.104 Z " transform="matrix(0.949999988079071, 0, 0, 0.949999988079071, 0.15, 0.9)"/>
          <path id="ID0.024109832476824522" fill="#010101" d="M 26.591 146.587 C 26.586 146.378 26.058 146.282 26.062 146.534 C 26.112 149.720 26.597 153.179 25.923 156.313 C 25.470 158.422 24.480 160.084 23.802 162.086 C 23.269 163.670 22.998 164.877 23.586 166.482 C 25.412 171.476 23.466 171.525 21.750 174.628 C 21.627 174.853 22.130 175.032 22.231 174.851 C 23.276 172.958 24.731 171.855 25.002 169.640 C 25.306 167.171 23.093 164.861 24.326 162.232 C 26.822 156.921 26.679 152.325 26.591 146.587 L 26.591 146.587 Z " transform="matrix(0.949999988079071, 0, 0, 0.949999988079071, 0.15, 0.9)"/>
          <path id="ID0.12331758998334408" fill="#010101" d="M 21.335 172.313 C 21.363 172.081 20.835 171.956 20.810 172.172 C 20.568 174.219 22.408 174.799 23.179 176.445 C 24.349 178.927 24.138 181.800 25.325 184.345 C 25.412 184.534 25.940 184.564 25.821 184.306 C 24.700 181.904 24.596 179.451 23.920 176.933 C 23.429 175.097 21.076 174.526 21.335 172.313 L 21.335 172.313 Z " transform="matrix(0.949999988079071, 0, 0, 0.949999988079071, 0.15, 0.9)"/>
        </g>
      </g>
    </g>
    <g id="Face">
      <path id="Face_1_" fill="#D8AD8C" d="M 30.687 12.965 C 30.558 13.115 30.972 12.953 31.036 13.149 C 31.251 13.811 31.486 13.749 31.691 14.399 C 31.900 15.058 31.547 16.013 31.823 16.680 C 32.118 17.395 31.594 18.369 31.929 19.062 C 32.004 19.219 32.081 19.459 32.230 19.563 C 32.345 19.642 32.623 20.148 32.704 20.209 C 32.894 20.356 32.961 20.329 33.019 20.566 C 33.347 21.896 33.375 23.226 33.455 24.627 C 33.493 25.325 33.648 26.009 33.592 26.712 C 33.561 27.099 33.637 27.447 33.602 27.834 C 33.557 28.373 33.317 28.859 33.208 29.380 C 33.033 30.223 32.962 31.021 32.652 31.852 C 32.533 32.170 32.318 32.459 32.234 32.786 C 32.177 33.006 32.257 33.055 32.134 33.291 C 32.073 33.408 31.994 33.511 31.911 33.596 C 30.870 34.671 29.077 35.266 27.667 35.493 C 26.959 35.608 26.117 35.710 25.437 35.672 C 25.163 35.658 24.836 35.769 24.586 35.727 C 24.206 35.667 24.593 36.456 24.491 36.824 C 24.327 37.418 24.955 38.249 25.341 38.556 C 25.810 38.928 25.882 39.384 26.377 39.736 C 26.681 39.947 27.103 40.628 27.310 40.933 C 27.538 41.264 27.853 42.338 28.125 42.631 C 28.608 43.149 28.195 42.972 28.608 43.534 C 29.067 44.158 28.918 44.037 28.967 44.845 C 29.004 45.428 29.451 46.379 28.924 46.869 C 28.666 47.112 28.583 47.591 28.430 47.894 C 28.207 48.329 27.212 49.330 26.708 49.432 C 25.857 49.604 24.094 49.952 23.393 49.290 C 23.143 49.054 20.996 47.251 20.747 47.010 C 19.660 45.944 20.035 46.006 19.057 44.634 C 18.584 43.971 18.147 43.137 17.489 42.646 C 16.854 42.175 17.153 41.626 16.477 41.238 C 15.766 40.830 16.373 40.711 15.663 40.273 C 15.378 40.097 15.243 39.504 14.925 39.382 C 14.626 39.271 14.677 38.881 14.306 38.270 C 14.394 37.744 15.435 36.072 15.427 35.150 C 15.413 33.816 14.989 33.078 14.933 31.732 C 14.905 31.044 14.534 30.741 14.431 30.052 C 14.384 29.740 14.161 29.699 14.052 29.393 C 13.947 29.115 13.999 28.897 13.794 28.714 C 13.716 28.575 13.347 26.349 12.898 27.016 C 12.202 28.054 11.525 28.132 11.086 27.834 C 10.570 27.483 10.357 27.705 9.836 27.340 C 9.222 26.908 8.894 26.630 8.483 26.034 C 8.067 25.431 7.643 24.936 7.354 24.217 C 6.979 23.285 7.115 21.738 7.811 21.430 C 8.445 21.148 9.377 20.962 10.006 21.126 C 10.614 21.285 11.176 21.806 11.688 22.151 C 12.751 22.867 12.826 23.479 13.072 23.735 C 13.010 23.354 13.805 24.239 14.104 24.470 C 14.602 24.891 14.709 25.188 14.979 25.816 C 15.119 26.141 15.096 25.742 15.164 26.072 C 15.229 26.388 14.976 25.174 15.099 25.478 C 15.001 24.478 15.265 26.072 15.161 25.052 C 15.112 24.571 15.194 24.317 15.016 23.842 C 14.797 23.248 14.969 23.965 14.731 23.371 C 14.919 23.658 13.795 20.713 14.293 21.429 C 14.641 21.922 13.385 19.045 13.498 19.630 C 13.467 19.157 15.701 23.309 15.576 22.829 C 15.465 22.406 15.506 21.287 15.349 20.870 C 14.859 19.562 15.109 19.414 14.548 18.134 C 14.279 17.527 13.957 16.660 13.795 16.038 C 13.660 15.520 13.523 14.916 13.285 14.101 C 13.151 13.862 12.742 11.839 13.214 12.270 C 13.666 12.686 14.685 14.816 15.250 15.051 C 16.601 15.614 16.933 16.105 18.382 16.206 C 17.917 16.102 20.142 16.501 19.814 16.269 C 19.455 16.014 18.587 15.679 18.281 15.356 C 17.988 15.046 17.709 14.939 17.381 14.652 C 16.953 14.281 17.078 14.287 16.721 13.795 C 16.510 13.426 15.713 11.868 16.178 12.368 C 16.731 12.967 18.251 13.690 19.065 13.998 C 19.852 14.296 20.815 14.314 21.510 14.270 C 22.331 14.218 23.520 14.273 24.421 14.124 C 25.186 13.996 25.909 14.052 26.592 13.758 C 27.594 13.726 27.126 13.744 27.113 13.726 L 27.877 13.561 C 29.026 13.125 28.773 13.500 29.921 13.146 " transform="matrix(0.949999988079071, 0, 0, 0.949999988079071, 0.15, 0.9)"/>
      <g id="Face_Lines">
        <g id="ID0.5847395132295787">
          <path id="ID0.36607834277674556" fill="#010101" d="M 9.122 25.469 C 9.018 25.346 8.493 25.301 8.639 25.471 C 9.102 26.026 9.809 26.345 10.540 26.267 C 10.956 26.223 11.292 26.076 11.671 25.913 C 12.003 25.769 12.678 25.399 12.632 26.032 C 12.616 26.224 13.143 26.332 13.155 26.173 C 13.198 25.592 12.827 25.354 12.273 25.365 C 11.146 25.387 10.161 26.711 9.122 25.469 L 9.122 25.469 Z " transform="matrix(0.949999988079071, 0, 0, 0.949999988079071, 0.15, 0.9)"/>
          <path id="ID0.9774431996047497" fill="#010101" d="M 13.304 26.610 C 13.351 26.438 12.828 26.296 12.781 26.469 C 11.972 29.373 9.105 26.627 8.189 25.270 C 7.759 24.629 7.134 23.839 7.281 23.019 C 7.494 21.809 8.124 21.159 9.435 21.218 C 9.789 21.234 9.412 20.944 9.226 20.935 C 7.685 20.867 6.875 21.665 6.724 23.192 C 6.626 24.175 7.837 25.531 8.408 26.202 C 9.607 27.615 12.564 29.278 13.304 26.610 L 13.304 26.610 Z " transform="matrix(0.949999988079071, 0, 0, 0.949999988079071, 0.15, 0.9)"/>
          <path id="ID0.5416430425830185" fill="#010101" d="M 11.718 24.038 C 11.878 24.122 12.351 24.060 12.036 23.897 C 11.104 23.416 10.181 22.284 9.028 22.369 C 8.268 22.426 7.383 22.787 7.585 23.699 C 7.624 23.869 8.149 23.954 8.108 23.769 C 7.938 22.999 8.928 22.379 9.628 22.707 C 10.380 23.058 10.980 23.656 11.718 24.038 L 11.718 24.038 Z " transform="matrix(0.949999988079071, 0, 0, 0.949999988079071, 0.15, 0.9)"/>
          <path id="ID0.41236252849921584" fill="#010101" d="M 12.913 23.841 C 13.010 23.971 13.536 24.024 13.398 23.840 C 12.275 22.310 10.364 20.358 8.280 21.159 C 8.071 21.239 8.551 21.461 8.700 21.403 C 10.418 20.743 12.004 22.604 12.913 23.841 L 12.913 23.841 Z " transform="matrix(0.949999988079071, 0, 0, 0.949999988079071, 0.15, 0.9)"/>
          <path id="ID0.6560165639966726" fill="#010101" d="M 32.306 20.208 C 32.388 20.348 32.913 20.411 32.792 20.206 C 32.276 19.327 32.257 17.849 32.149 16.859 C 32.003 15.512 32.135 14.355 31.346 13.145 C 31.258 13.009 30.733 12.951 30.860 13.147 C 32.204 15.208 31.062 18.091 32.306 20.208 L 32.306 20.208 Z " transform="matrix(0.949999988079071, 0, 0, 0.949999988079071, 0.15, 0.9)"/>
          <path id="ID0.3196215317584574" fill="#010101" d="M 13.339 26.863 C 13.288 26.694 12.765 26.619 12.814 26.792 C 14.747 33.273 22.870 37.587 29.416 35.267 C 29.624 35.194 29.146 34.969 28.996 35.023 C 22.707 37.251 15.164 32.992 13.339 26.863 L 13.339 26.863 Z " transform="matrix(0.949999988079071, 0, 0, 0.949999988079071, 0.15, 0.9)"/>
          <path id="ID0.4138333359733224" fill="#010101" d="M 28.368 16.921 C 28.486 16.759 27.978 16.584 27.880 16.720 C 26.910 18.051 27.038 21.436 28.438 22.474 C 28.563 22.567 29.090 22.575 28.856 22.400 C 27.562 21.442 27.476 18.146 28.368 16.921 L 28.368 16.921 Z " transform="matrix(0.949999988079071, 0, 0, 0.949999988079071, 0.15, 0.9)"/>
          <path id="ID0.6931495200842619" fill="#010101" d="M 29.191 26.498 C 29.064 26.643 29.566 26.829 29.679 26.700 C 30.209 26.095 31.109 26.106 30.949 25.063 C 30.804 24.119 29.894 23.598 29.183 23.086 C 29.058 22.995 28.529 22.989 28.765 23.160 C 29.476 23.671 30.609 24.292 30.405 25.336 C 30.282 25.970 29.591 26.042 29.191 26.498 L 29.191 26.498 Z " transform="matrix(0.949999988079071, 0, 0, 0.949999988079071, 0.15, 0.9)"/>
          <path id="ID0.7708320207893848" fill="#010101" d="M 26.869 25.663 C 26.986 25.501 26.478 25.326 26.381 25.462 C 25.934 26.079 26.141 26.855 26.901 27.076 C 27.237 27.175 27.684 27.215 28.003 27.041 C 28.336 26.858 28.646 26.614 29.004 26.481 C 29.212 26.404 28.733 26.180 28.584 26.237 C 28.179 26.387 27.808 26.809 27.374 26.859 C 26.597 26.945 26.515 26.151 26.869 25.663 L 26.869 25.663 Z " transform="matrix(0.949999988079071, 0, 0, 0.949999988079071, 0.15, 0.9)"/>
          <path id="ID0.10616219183430076" fill="#010101" d="M 24.855 35.793 C 24.911 35.629 24.390 35.479 24.332 35.652 C 23.941 36.811 24.609 38.009 25.337 38.881 C 25.440 39.004 25.967 39.049 25.823 38.879 C 25.124 38.042 24.482 36.907 24.855 35.793 L 24.855 35.793 Z " transform="matrix(0.949999988079071, 0, 0, 0.949999988079071, 0.15, 0.9)"/>
          <path id="ID0.9261908582411706" fill="#010101" d="M 32.877 28.707 C 32.831 28.880 33.356 29.021 33.399 28.847 C 33.867 27.069 33.921 25.064 33.809 23.236 C 33.747 22.239 33.772 20.450 32.580 20.085 C 32.268 19.989 32.207 20.235 32.516 20.329 C 33.530 20.640 33.325 23.964 33.307 24.650 C 33.273 25.998 33.222 27.396 32.877 28.707 L 32.877 28.707 Z " transform="matrix(0.949999988079071, 0, 0, 0.949999988079071, 0.15, 0.9)"/>
          <path id="ID0.5998756154440343" fill="#010101" d="M 28.863 35.025 C 28.658 35.085 29.131 35.314 29.282 35.269 C 30.316 34.964 31.730 34.436 32.320 33.465 C 32.427 33.288 31.916 33.125 31.832 33.264 C 31.251 34.219 29.884 34.723 28.863 35.025 L 28.863 35.025 Z " transform="matrix(0.949999988079071, 0, 0, 0.949999988079071, 0.15, 0.9)"/>
          <path id="ID0.2880496885627508" fill="#010101" d="M 13.868 38.167 C 13.734 38.297 14.228 38.491 14.353 38.367 C 16.417 36.319 15.415 32.318 14.646 29.969 C 14.593 29.801 14.066 29.729 14.124 29.899 C 14.879 32.210 15.898 36.151 13.868 38.167 L 13.868 38.167 Z " transform="matrix(0.949999988079071, 0, 0, 0.949999988079071, 0.15, 0.9)"/>
          <path id="ID0.5999437849968672" fill="#010101" d="M 31.945 33.217 C 31.880 33.367 32.394 33.531 32.468 33.358 C 32.736 32.741 32.989 32.100 33.013 31.421 C 33.021 31.227 32.493 31.126 32.489 31.280 C 32.463 31.959 32.211 32.602 31.945 33.217 L 31.945 33.217 Z " transform="matrix(0.949999988079071, 0, 0, 0.949999988079071, 0.15, 0.9)"/>
        </g>
      </g>
    </g>
    <g id="Shirt">
      <path id="Shirt_2_" fill="#555D7B" d="M 14.113 38.271 C 14.722 39.131 14.722 39.131 15.287 39.808 C 16.025 40.688 16.586 41.387 17.049 42.452 C 17.561 43.631 19.481 44.834 19.955 46.026 C 20.404 47.158 21.723 48.007 22.699 48.761 C 23.956 49.731 23.703 49.560 25.421 49.731 C 27.040 49.890 28.404 48.030 28.957 46.468 C 29.463 45.037 29.081 45.266 28.549 44 C 28.319 43.454 27.710 41.433 27.322 40.933 C 26.523 39.900 26.074 39.671 25.794 38.623 C 27.174 39.095 30.374 40.074 31.340 40.841 C 33.334 42.422 35.507 43.305 35.811 46.026 C 35.962 47.368 37.377 49.551 37.944 50.317 C 38.733 51.384 39.419 51.561 39.794 52.304 C 40.396 53.495 39.565 57.209 39.671 58.269 C 39.786 59.416 39.789 60.300 39.202 61.574 C 38.718 62.626 37.531 63.465 36.557 64.021 C 35.993 64.341 34.774 64.791 33.805 64.625 C 33.229 64.525 33.354 65.063 33.389 66.002 C 33.449 67.544 33.135 68.664 33.596 69.779 C 34.149 71.121 34.176 72.363 34.406 73.783 C 34.518 74.473 34.492 75.140 34.688 75.820 C 34.918 76.622 35.324 77.266 35.528 77.999 C 35.708 78.646 35.633 79.250 35.862 79.861 C 36.100 80.501 36.485 81.091 36.772 81.721 C 37.352 82.992 38.164 83.930 38.565 85.292 C 38.760 85.959 39.092 86.554 38.985 87.307 C 38.897 87.929 38.442 88.521 38.397 89.152 C 38.296 90.531 39.143 91.638 39.481 92.756 C 39.709 93.505 39.854 94.149 39.727 94.818 C 39.546 95.756 39.442 95.785 38.563 96.340 C 37.303 97.135 35.969 97.703 34.757 98.554 C 33.445 99.480 31.942 100.324 30.563 101.126 C 29.274 101.872 28.223 102.759 26.906 103.470 C 25.846 104.040 24.059 104.718 22.891 104.866 C 20.087 105.223 17.165 105.052 14.747 103.886 C 13.359 103.220 11.547 103.448 12.523 102.087 C 13.464 100.775 10.746 95.718 10.419 94.337 C 9.737 91.454 8.958 90.620 8.399 87.056 C 7.989 84.405 7.850 84.739 7.657 81.649 C 7.567 80.276 6.983 77.377 7.268 75.936 C 7.539 74.559 7.145 72.580 6.434 70.647 C 5.192 67.267 6.362 69.987 5.717 67.643 C 4.883 67.245 4.653 67.147 3.655 66.759 C 3.149 66.565 3.655 65.507 3.655 64.382 C 3.655 63.079 3.655 62.760 3.501 61.579 C 3.388 60.720 3.317 60.582 3.478 59.736 C 3.595 59.115 3.023 57.713 3.255 57.039 C 3.472 56.416 2.933 55.810 2.849 55.104 C 2.698 53.793 1.496 51.669 1.616 50.292 C 1.851 47.566 1.527 48.210 2.642 45.792 C 3.236 44.504 4.685 42.891 5.746 41.888 C 6.888 40.813 8.093 40.232 9.350 39.526 C 11.594 38.267 10.221 38.925 12.662 38.252 " transform="matrix(0.949999988079071, 0, 0, 0.949999988079071, 0.15, 0.9)"/>
      <g id="Shirt_Lines_2_">
        <g id="ID0.7054122132249177">
          <path id="ID0.04322133073583245" fill="#010101" d="M 14.282 38.374 C 14.539 38.370 14.051 38.159 13.941 38.162 C 9.140 38.244 3.890 42.180 1.912 46.538 C 1.005 48.530 1.183 50.685 1.857 52.741 C 3.384 57.408 3.027 61.894 3.394 66.691 C 3.405 66.847 3.925 66.904 3.918 66.832 C 3.662 63.508 4.203 59.910 3.442 56.649 C 2.869 54.177 1.537 51.436 1.789 48.843 C 2.302 43.587 9.336 38.459 14.282 38.374 L 14.282 38.374 Z " transform="matrix(0.949999988079071, 0, 0, 0.949999988079071, 0.15, 0.9)"/>
          <path id="ID0.8909908910281956" fill="#010101" d="M 25.330 38.382 C 25.131 38.318 24.791 38.385 25.148 38.499 C 28.015 39.418 31.652 40.380 33.728 42.718 C 35.501 44.718 35.584 47.368 37.099 49.491 C 37.870 50.572 38.849 51.465 39.699 52.485 C 39.777 52.581 40.280 52.653 40.174 52.526 C 38.530 50.550 37.055 48.996 36.207 46.490 C 35.512 44.431 34.707 42.973 32.874 41.761 C 30.493 40.188 28.056 39.255 25.330 38.382 L 25.330 38.382 Z " transform="matrix(0.949999988079071, 0, 0, 0.949999988079071, 0.15, 0.9)"/>
          <path id="ID0.7282259715721011" fill="#010101" d="M 39.806 61.163 C 39.849 61.080 39.347 60.893 39.282 61.022 C 38.413 62.737 35.621 64.954 33.589 64.635 C 33.221 64.576 33.477 64.795 33.688 64.828 C 35.958 65.183 38.816 63.116 39.806 61.163 L 39.806 61.163 Z " transform="matrix(0.949999988079071, 0, 0, 0.949999988079071, 0.15, 0.9)"/>
          <path id="ID0.7448925022035837" fill="#010101" d="M 34.583 73.347 C 34.563 73.221 34.046 73.129 34.065 73.253 C 34.618 76.765 35.565 79.734 37.307 82.854 C 39.617 86.991 37.979 89.127 35.881 92.764 C 35.838 92.838 36.330 93.035 36.405 92.905 C 38.613 89.079 40.082 87.098 37.824 82.948 C 36.113 79.797 35.138 76.875 34.583 73.347 L 34.583 73.347 Z " transform="matrix(0.949999988079071, 0, 0, 0.949999988079071, 0.15, 0.9)"/>
          <path id="ID0.6100088409148157" fill="#010101" d="M 19.791 63.536 C 19.832 63.444 19.323 63.270 19.268 63.397 C 16.852 68.932 8.336 68.719 3.807 66.725 C 3.684 66.671 3.188 66.653 3.504 66.793 C 8.283 68.895 17.226 69.418 19.791 63.536 L 19.791 63.536 Z " transform="matrix(0.949999988079071, 0, 0, 0.949999988079071, 0.15, 0.9)"/>
          <path id="ID0.7704726946540177" fill="#010101" d="M 19.210 63.347 C 19.288 63.444 19.788 63.517 19.683 63.389 C 17.927 61.227 15.244 56.860 17.154 54.165 C 17.195 54.107 16.722 53.895 16.631 54.024 C 14.689 56.765 17.451 61.182 19.210 63.347 L 19.210 63.347 Z " transform="matrix(0.949999988079071, 0, 0, 0.949999988079071, 0.15, 0.9)"/>
          <path id="ID0.7805127152241766" fill="#010101" d="M 25.816 38.901 C 25.728 38.812 25.232 38.749 25.343 38.860 C 26.677 40.196 27.961 42.061 28.525 43.906 C 29.152 45.958 28.601 49.205 25.950 49.542 C 22.435 49.988 20.437 46.264 18.706 43.949 C 17.284 42.052 15.801 40.204 14.370 38.314 C 14.273 38.190 13.814 38.174 13.849 38.220 C 16.080 41.166 18.181 44.744 20.827 47.319 C 22.088 48.547 23.334 49.600 25.103 49.822 C 27.232 50.090 29.347 48.319 29.365 46.114 C 29.386 43.438 27.658 40.746 25.816 38.901 L 25.816 38.901 Z " transform="matrix(0.949999988079071, 0, 0, 0.949999988079071, 0.15, 0.9)"/>
          <path id="ID0.7762935534119606" fill="#010101" d="M 38.621 89.161 C 38.621 89.012 38.096 88.938 38.096 89.020 C 38.100 91.254 40.870 94.116 38.799 96.005 C 38.719 96.079 39.192 96.277 39.294 96.183 C 41.418 94.246 38.625 91.419 38.621 89.161 L 38.621 89.161 Z " transform="matrix(0.949999988079071, 0, 0, 0.949999988079071, 0.15, 0.9)"/>
          <path id="ID0.987479719799012" fill="#010101" d="M 22.498 102.356 C 22.760 102.350 22.268 102.139 22.161 102.143 C 16.807 102.248 12.833 97.051 10.245 93.006 C 10.163 92.877 9.689 92.854 9.726 92.912 C 12.556 97.339 16.744 102.470 22.498 102.356 L 22.498 102.356 Z " transform="matrix(0.949999988079071, 0, 0, 0.949999988079071, 0.15, 0.9)"/>
          <path id="ID0.9213130888529122" fill="#010101" d="M 39.417 95.909 C 39.488 95.864 39.048 95.651 38.921 95.731 C 31.036 100.782 22.316 108.382 12.394 102.722 C 12.302 102.667 11.769 102.609 11.995 102.736 C 22.222 108.571 30.720 101.479 39.417 95.909 L 39.417 95.909 Z " transform="matrix(0.949999988079071, 0, 0, 0.949999988079071, 0.15, 0.9)"/>
          <path id="ID0.2212864337489009" fill="#010101" d="M 5.681 67.690 C 5.621 67.556 5.124 67.510 5.164 67.594 C 7.474 72.981 6.754 78.701 7.545 84.333 C 7.983 87.449 8.884 91.316 10.129 94.210 C 11.074 96.398 13.332 100.305 11.845 102.581 C 11.804 102.645 12.283 102.852 12.367 102.722 C 13.725 100.648 12.055 97.574 11.188 95.563 C 9.735 92.194 8.231 87.634 8.029 83.963 C 7.732 78.557 7.851 72.753 5.681 67.690 L 5.681 67.690 Z " transform="matrix(0.949999988079071, 0, 0, 0.949999988079071, 0.15, 0.9)"/>
          <path id="ID0.09911620896309614" fill="#010101" d="M 34.601 50.875 C 34.589 50.720 34.071 50.660 34.077 50.734 C 34.471 56.488 32.577 62.326 33.221 67.995 C 33.239 68.154 33.753 68.201 33.745 68.136 C 33.101 62.468 34.994 56.629 34.601 50.875 L 34.601 50.875 Z " transform="matrix(0.949999988079071, 0, 0, 0.949999988079071, 0.15, 0.9)"/>
        </g>
      </g>
    </g>
    <g id="Right_Arm">
      <path id="Right_Arm_Color" fill="#D8AD8C" d="M 32.138 35.562 C 31.925 36.100 31.775 37.277 32.175 37.605 C 32.538 37.906 31.035 38.123 31.285 38.560 C 31.656 39.207 31.274 38.952 31.667 39.367 C 31.817 39.527 32.117 39.527 32.138 39.730 C 32.161 39.964 32.804 40.325 32.866 40.555 C 33.033 41.191 33.152 41.380 33.696 41.779 C 34.429 42.321 34.582 43.183 35.218 43.818 C 35.586 44.187 36.158 44.299 36.459 44.734 C 36.698 45.082 38.365 45.756 38.695 46.022 C 39.479 46.655 38.695 47.247 39.217 47.739 C 39.936 49.684 40.178 50.548 40.065 52.702 C 39.985 54.228 39.733 56.077 39.733 57.613 C 39.733 58.086 39.657 58.652 39.590 59.111 C 39.535 59.500 39.602 59.740 39.645 60.130 C 39.735 60.968 39.178 61.738 38.694 62.254 C 38.219 62.761 37.621 63.343 37.018 63.733 C 36.446 64.099 35.871 64.422 35.190 64.548 C 34.947 64.592 34.067 64.623 33.885 64.772 C 33.667 64.948 34.266 65.188 34.375 65.409 C 34.674 66.008 35.023 66.620 35.448 67.182 C 35.664 67.469 35.878 67.635 36.240 67.614 C 36.646 67.593 36.646 67.427 36.907 67.163 C 37.398 66.665 38.461 66.198 39.030 65.799 C 39.623 65.383 40.152 65.309 40.578 64.891 C 40.840 64.634 41.055 64.516 41.355 64.538 C 41.746 64.567 42.168 64.706 42.572 64.776 C 43.422 64.924 44.261 65.088 45.150 65.045 C 45.495 65.026 45.996 64.817 46.011 65.317 C 46.017 65.489 45.704 65.940 45.569 66.051 C 45.097 66.440 44.252 66.420 43.656 66.447 C 43.332 66.463 42.926 66.467 42.614 66.584 C 42.208 66.736 42.001 66.955 42.489 67.001 C 43.739 67.121 45.301 66.427 46.327 65.768 C 46.917 65.391 47.264 65.175 47.551 64.549 C 47.811 63.981 48.106 63.340 48.217 62.740 C 48.490 61.281 48.102 59.523 47.819 58.115 C 47.410 56.094 46.782 54.393 46.174 52.386 C 45.901 51.489 45.534 50.600 45.195 49.746 C 44.795 48.743 44.858 48.780 44.471 47.782 C 44.291 47.321 44.036 46.761 43.883 46.293 C 43.735 45.836 43.014 44.640 42.860 44.190 C 42.549 43.287 42.813 41.743 42.551 40.813 C 42.289 39.883 42.098 39.105 41.592 38.267 C 41.010 37.302 40.760 35.757 39.840 35.147 C 38.946 34.558 37.965 32.782 37.076 32.185 C 36.394 31.729 33.404 28.669 32.458 28.536 C 31.898 28.973 31.758 29.097 31.855 29.927 C 31.898 30.305 33.726 31.968 33.460 32.186 C 33.228 32.377 31.804 33.972 31.685 34.257 " transform="matrix(0.949999988079071, 0, 0, 0.949999988079071, 0.15, 0.9)"/>
      <g id="Right_Arm_Lines">
        <g id="ID0.648610710632056">
          <path id="ID0.29767346335574985" fill="#010101" d="M 32.573 28.671 C 32.812 28.601 32.521 28.349 32.347 28.400 C 30.448 28.960 32.243 31.148 33.140 31.822 C 33.300 31.942 33.618 31.796 33.404 31.636 C 32.671 31.086 30.962 29.146 32.573 28.671 L 32.573 28.671 Z " transform="matrix(0.949999988079071, 0, 0, 0.949999988079071, 0.15, 0.9)"/>
          <path id="ID0.22740556625649333" fill="#010101" d="M 36.216 35.109 C 36.331 35.251 36.705 35.182 36.546 34.988 C 35.583 33.815 34.355 32.884 33.437 31.669 C 33.327 31.521 32.955 31.589 33.107 31.790 C 34.023 33.005 35.252 33.937 36.216 35.109 L 36.216 35.109 Z " transform="matrix(0.949999988079071, 0, 0, 0.949999988079071, 0.15, 0.9)"/>
          <path id="ID0.7338390341028571" fill="#010101" d="M 31.978 35.230 C 31.947 35.422 32.341 35.523 32.372 35.335 C 32.516 34.442 33.500 33.342 34.369 33.105 C 34.607 33.039 34.316 32.787 34.142 32.834 C 33.197 33.092 32.134 34.260 31.978 35.230 L 31.978 35.230 Z " transform="matrix(0.949999988079071, 0, 0, 0.949999988079071, 0.15, 0.9)"/>
          <path id="ID0.6978229340165854" fill="#010101" d="M 35.634 37.061 C 35.763 37.188 36.142 37.113 35.966 36.940 C 35.023 36.010 33.750 35.504 32.874 34.501 C 32.753 34.363 32.378 34.434 32.543 34.622 C 33.423 35.627 34.693 36.129 35.634 37.061 L 35.634 37.061 Z " transform="matrix(0.949999988079071, 0, 0, 0.949999988079071, 0.15, 0.9)"/>
          <path id="ID0.8898559394292533" fill="#010101" d="M 31.982 35.300 C 32.189 35.382 32.410 35.161 32.160 35.060 C 31.064 34.617 33.176 32.563 33.615 32.300 C 33.808 32.185 33.465 31.978 33.312 32.070 C 32.630 32.475 30.484 34.695 31.982 35.300 L 31.982 35.300 Z " transform="matrix(0.949999988079071, 0, 0, 0.949999988079071, 0.15, 0.9)"/>
          <path id="ID0.2429049531929195" fill="#010101" d="M 38.562 46.114 C 38.720 46.238 39.037 46.094 38.825 45.926 C 38.176 45.417 37.527 45.153 36.806 44.771 C 35.507 44.083 34.640 43.042 33.905 41.791 C 33.359 40.863 30.671 38.693 32.066 37.889 C 32.259 37.778 31.917 37.570 31.763 37.659 C 29.875 38.745 32.455 40.165 33.027 41.037 C 33.765 42.162 34.339 43.365 35.421 44.222 C 36.398 45 37.578 45.343 38.562 46.114 L 38.562 46.114 Z " transform="matrix(0.949999988079071, 0, 0, 0.949999988079071, 0.15, 0.9)"/>
          <path id="ID0.5656414902769029" fill="#010101" d="M 38.882 45.998 C 38.825 45.827 38.431 45.828 38.505 46.047 C 39.657 49.435 40.091 52.731 39.681 56.302 C 39.381 58.909 39.185 61.266 39.937 63.810 C 39.989 63.984 40.380 63.984 40.314 63.761 C 39.226 60.072 40.457 56.590 40.269 52.868 C 40.152 50.510 39.642 48.229 38.882 45.998 L 38.882 45.998 Z " transform="matrix(0.949999988079071, 0, 0, 0.949999988079071, 0.15, 0.9)"/>
          <path id="ID0.821934178005904" fill="#010101" d="M 42.763 42.966 C 42.714 42.790 42.310 42.746 42.364 42.938 C 44.168 49.500 50.540 58.169 47.124 65.042 C 47.029 65.232 47.402 65.379 47.482 65.218 C 50.917 58.308 44.581 49.580 42.763 42.966 L 42.763 42.966 Z " transform="matrix(0.949999988079071, 0, 0, 0.949999988079071, 0.15, 0.9)"/>
          <path id="ID0.5435489602386951" fill="#010101" d="M 35.855 67.704 C 35.978 67.840 36.355 67.768 36.187 67.582 C 35.402 66.714 34.626 65.841 34.138 64.764 C 34.064 64.601 33.665 64.605 33.761 64.814 C 34.261 65.916 35.052 66.813 35.855 67.704 L 35.855 67.704 Z " transform="matrix(0.949999988079071, 0, 0, 0.949999988079071, 0.15, 0.9)"/>
          <path id="ID0.9326082416810095" fill="#010101" d="M 32.618 28.362 C 32.453 28.258 32.130 28.405 32.355 28.549 C 34.920 30.177 37.249 32.339 39.207 34.654 C 40.191 35.819 41.165 37.036 41.687 38.494 C 42.306 40.224 42.183 41.779 42.454 43.517 C 42.482 43.698 42.885 43.748 42.853 43.544 C 42.573 41.744 42.837 40.178 42.064 38.444 C 41.409 36.976 40.607 35.734 39.537 34.532 C 37.489 32.231 35.228 30.019 32.618 28.362 L 32.618 28.362 Z " transform="matrix(0.949999988079071, 0, 0, 0.949999988079071, 0.15, 0.9)"/>
          <path id="ID0.1306577129289508" fill="#010101" d="M 31.986 37.629 C 32.076 37.782 32.476 37.774 32.364 37.580 C 32.017 36.990 32.228 36.076 32.372 35.449 C 32.415 35.260 32.021 35.156 31.978 35.344 C 31.822 36.019 31.614 36.996 31.986 37.629 L 31.986 37.629 Z " transform="matrix(0.949999988079071, 0, 0, 0.949999988079071, 0.15, 0.9)"/>
          <path id="ID0.743031611200422" fill="#010101" d="M 32.226 37.523 C 32.025 37.421 31.810 37.642 32.050 37.764 C 32.918 38.202 33.707 38.700 34.449 39.332 C 34.602 39.462 34.916 39.319 34.712 39.146 C 33.945 38.491 33.125 37.979 32.226 37.523 L 32.226 37.523 Z " transform="matrix(0.949999988079071, 0, 0, 0.949999988079071, 0.15, 0.9)"/>
        </g>
      </g>
    </g>
    <g id="Left_Arm">
      <path id="Left_Arm_Color_2_" fill="#D8AD8C" d="M 6.234 67.666 C 6.193 67.981 6.377 68.262 6.513 68.524 C 6.707 68.901 6.757 69.180 6.777 69.614 C 6.806 70.313 7.314 71.056 7.519 71.717 C 7.769 72.529 7.904 73.200 8.226 73.997 C 8.361 74.336 8.664 74.680 8.814 75.002 C 9.036 75.467 9.138 75.911 9.392 76.362 C 9.609 76.745 9.823 77.166 10.070 77.540 C 10.292 77.870 10.587 78.110 10.816 78.440 C 11.333 79.179 11.773 80.056 12.357 80.743 C 12.835 81.305 13.461 81.938 14.066 82.383 C 14.847 82.958 15.433 82.921 16.378 82.736 C 18.399 82.341 20.245 81.507 22.128 80.665 C 25.650 79.087 28.731 76.838 31.899 74.686 C 32.723 74.127 33.600 73.624 34.456 73.114 C 35.185 72.680 35.778 72.260 36.621 72.334 C 37.504 72.413 38.288 72.661 39.158 72.877 C 40.192 73.131 41.229 73.179 42.281 73.341 C 43.688 73.559 46.510 73.400 47.305 71.941 C 47.774 71.082 48.151 70.484 48.666 69.627 C 48.967 69.126 49.557 68.195 49.648 67.613 C 49.726 67.128 49.491 67.249 49.478 66.762 C 49.462 66.102 49.265 65.827 48.913 65.208 C 48.713 64.854 48.721 64.301 48.269 64.237 C 47.489 64.127 47.314 65.249 46.896 65.620 C 46.626 65.860 46.232 65.944 45.959 66.186 C 45.793 66.334 45.677 66.067 45.483 66.165 C 45.268 66.273 44.965 66.650 44.723 66.671 C 43.995 66.744 43.156 67.133 42.419 67.025 C 42.623 66.025 43.816 66.555 44.496 66.582 C 44.891 66.596 45.219 66.461 45.482 66.165 C 45.666 65.955 46.124 65.396 45.990 65.087 C 45.870 64.813 45.422 65.015 45.075 64.996 C 44.607 64.972 44.142 64.865 43.681 64.826 C 42.911 64.758 42.013 64.510 41.241 64.554 C 40.872 64.575 40.685 64.803 40.371 65.076 C 39.785 65.588 39.010 65.656 38.385 66.095 C 37.835 66.479 37.297 66.905 36.760 67.321 C 36.143 67.798 35.303 67.770 34.532 67.930 C 33.556 68.134 32.551 68.296 31.553 68.392 C 30.182 68.526 28.949 68.933 27.602 69.200 C 26.460 69.424 25.315 69.661 24.209 70.012 C 23.210 70.328 22.104 70.440 21.085 70.793 C 20.540 70.981 19.606 71.424 19.068 71.617 C 18.582 71.792 18.738 71.478 18.466 70.971 C 18.261 70.594 18.370 70.194 18.237 69.797 C 18.094 69.372 17.930 69.006 17.817 68.572 C 17.692 68.096 17.493 67.889 17.243 67.468 C 17.093 67.219 16.763 66.678 16.768 66.406 C 16.454 66.650 16.106 66.833 15.737 66.990 C 14.998 67.301 14.303 67.633 13.551 67.796 C 12.751 67.967 11.989 68.088 11.159 68.124 C 10.346 68.160 9.521 68.113 8.722 68.076 C 7.874 68.037 7.081 67.635 6.222 67.716 " transform="matrix(0.949999988079071, 0, 0, 0.949999988079071, 0.15, 0.9)"/>
      <g id="Left_Arm_Lines_2_">
        <g id="ID0.732623090967536">
          <path id="ID0.362706299405545" fill="#010101" d="M 41.531 64.479 C 41.642 64.393 41.169 64.188 41.040 64.288 C 39.579 65.413 37.773 66.059 36.489 67.413 C 36.379 67.528 36.873 67.716 36.980 67.604 C 38.263 66.250 40.070 65.604 41.531 64.479 L 41.531 64.479 Z " transform="matrix(0.949999988079071, 0, 0, 0.949999988079071, 0.15, 0.9)"/>
          <path id="ID0.25667169596999884" fill="#010101" d="M 42.042 66.895 C 41.979 66.989 42.469 67.184 42.566 67.036 C 42.788 66.700 43.097 66.563 43.499 66.661 C 43.809 66.737 43.868 66.530 43.555 66.452 C 42.957 66.306 42.404 66.344 42.042 66.895 L 42.042 66.895 Z " transform="matrix(0.949999988079071, 0, 0, 0.949999988079071, 0.15, 0.9)"/>
          <path id="ID0.878867058083415" fill="#010101" d="M 49.720 68.392 C 49.769 68.256 49.250 68.098 49.196 68.251 C 48.763 69.428 48.144 70.522 47.390 71.522 C 47.287 71.657 47.792 71.831 47.881 71.712 C 48.646 70.696 49.282 69.587 49.720 68.392 L 49.720 68.392 Z " transform="matrix(0.949999988079071, 0, 0, 0.949999988079071, 0.15, 0.9)"/>
          <path id="ID0.5171960722655058" fill="#010101" d="M 14.392 82.942 C 14.496 83.034 15.017 83.084 14.802 82.895 C 10.210 78.886 8.261 73.483 6.495 67.825 C 6.449 67.673 5.929 67.600 5.974 67.745 C 7.767 73.491 9.747 78.886 14.392 82.942 L 14.392 82.942 Z " transform="matrix(0.949999988079071, 0, 0, 0.949999988079071, 0.15, 0.9)"/>
          <path id="ID0.4331868104636669" fill="#010101" d="M 18.476 71.747 C 18.536 71.897 19.046 71.957 18.997 71.827 C 18.273 70.032 17.861 68.131 17.163 66.325 C 17.105 66.174 16.592 66.112 16.642 66.245 C 17.339 68.050 17.751 69.952 18.476 71.747 L 18.476 71.747 Z " transform="matrix(0.949999988079071, 0, 0, 0.949999988079071, 0.15, 0.9)"/>
          <path id="ID0.024119833949953318" fill="#010101" d="M 37.185 67.625 C 37.464 67.579 36.989 67.356 36.853 67.378 C 31.435 68.270 26 68.936 20.792 70.774 C 18.145 71.710 14.982 72.854 14.251 75.864 C 14.212 76.017 14.739 76.153 14.773 76.006 C 15.620 72.534 19.761 71.441 22.777 70.503 C 27.484 69.039 32.337 68.423 37.185 67.625 L 37.185 67.625 Z " transform="matrix(0.949999988079071, 0, 0, 0.949999988079071, 0.15, 0.9)"/>
          <path id="ID0.6288441205397248" fill="#010101" d="M 14.433 82.795 C 14.157 82.808 14.630 83.048 14.763 83.042 C 23.666 82.635 29.300 74.859 37.218 72.238 C 37.405 72.176 36.929 71.967 36.793 72.011 C 28.906 74.624 23.292 82.389 14.433 82.795 L 14.433 82.795 Z " transform="matrix(0.949999988079071, 0, 0, 0.949999988079071, 0.15, 0.9)"/>
          <path id="ID0.45783697767183185" fill="#010101" d="M 43.554 66.431 C 43.202 66.416 43.607 66.674 43.771 66.681 C 44.845 66.727 46.556 66.374 46.302 64.966 C 46.280 64.847 46.023 64.805 45.933 64.801 C 44.396 64.735 42.804 64.774 41.314 64.346 C 41.004 64.258 40.950 64.466 41.257 64.555 C 42.839 65.008 44.517 64.981 46.148 65.051 C 46.025 64.996 45.902 64.942 45.780 64.886 C 46.004 66.131 44.509 66.470 43.554 66.431 L 43.554 66.431 Z " transform="matrix(0.949999988079071, 0, 0, 0.949999988079071, 0.15, 0.9)"/>
          <path id="ID0.21428501699119806" fill="#010101" d="M 42.060 66.907 C 41.707 66.907 42.111 67.157 42.275 67.155 C 44.292 67.151 46.006 66.628 47.541 65.294 C 47.652 65.198 47.171 64.998 47.051 65.103 C 45.593 66.370 43.989 66.901 42.060 66.907 L 42.060 66.907 Z " transform="matrix(0.949999988079071, 0, 0, 0.949999988079071, 0.15, 0.9)"/>
          <path id="ID0.6983160772360861" fill="#010101" d="M 44.265 68.856 C 44.083 68.899 44.552 69.114 44.689 69.083 C 46.252 68.705 47.640 67.389 48.577 66.120 C 49.234 65.227 49.449 64.337 48.174 64.042 C 47.863 63.971 47.805 64.178 48.118 64.251 C 49.412 64.550 47.941 66.101 47.541 66.577 C 46.714 67.561 45.530 68.549 44.265 68.856 L 44.265 68.856 Z " transform="matrix(0.949999988079071, 0, 0, 0.949999988079071, 0.15, 0.9)"/>
          <path id="ID0.4162214584648609" fill="#010101" d="M 45.861 69.925 C 45.755 69.997 46.216 70.207 46.353 70.115 C 47.459 69.376 51.175 66.558 49.097 65.175 C 48.986 65.102 48.455 65.069 48.687 65.222 C 50.550 66.463 46.857 69.260 45.861 69.925 L 45.861 69.925 Z " transform="matrix(0.949999988079071, 0, 0, 0.949999988079071, 0.15, 0.9)"/>
          <path id="ID0.3435832681134343" fill="#010101" d="M 46.880 70.739 C 46.771 70.817 47.238 71.026 47.371 70.930 C 48.079 70.429 48.681 69.665 49.183 68.969 C 49.420 68.639 49.697 68.285 49.834 67.899 C 49.987 67.468 49.733 67.036 49.731 66.591 C 49.731 66.415 49.206 66.329 49.207 66.449 C 49.209 66.855 49.476 67.385 49.310 67.758 C 49.120 68.186 48.853 68.576 48.566 68.946 C 48.075 69.579 47.542 70.272 46.880 70.739 L 46.880 70.739 Z " transform="matrix(0.949999988079071, 0, 0, 0.949999988079071, 0.15, 0.9)"/>
          <path id="ID0.42599560786038637" fill="#010101" d="M 36.456 72.157 C 36.146 72.087 36.086 72.294 36.400 72.366 C 40.363 73.282 44.804 74.778 48.050 71.542 C 48.161 71.432 47.670 71.241 47.560 71.351 C 44.480 74.422 40.208 73.026 36.456 72.157 L 36.456 72.157 Z " transform="matrix(0.949999988079071, 0, 0, 0.949999988079071, 0.15, 0.9)"/>
        </g>
      </g>
    </g>
    <g id="Mouth">
      <path id="Mouth_1_" fill="#F5F6F6" d="M 30.997 28.622 C 31.148 28.917 30.875 29.105 30.816 29.363 C 30.752 29.641 30.911 29.974 30.861 30.227 C 30.754 30.765 29.970 30.840 29.523 30.934 C 28.933 31.058 28.429 31.250 27.828 31.183 C 27.521 31.149 26.498 30.930 26.385 30.660 C 27.100 30.382 27.850 30.052 28.543 29.631 C 28.943 29.386 29.348 29.168 29.796 28.999 C 30.102 28.883 30.682 28.646 30.990 28.717 " transform="matrix(0.949999988079071, 0, 0, 0.949999988079071, 0.15, 0.9)"/>
      <g id="Mouth_Lines">
        <g id="ID0.2163526345975697">
          <path id="ID0.3192782602272928" fill="#010101" d="M 31.099 28.596 C 31.400 28.534 30.953 28.270 30.780 28.306 C 29.870 28.491 29.075 28.875 28.322 29.414 C 27.664 29.884 27.030 30.421 26.200 30.520 C 25.900 30.555 26.349 30.832 26.519 30.811 C 27.187 30.732 27.730 30.398 28.267 30.011 C 29.159 29.368 30.004 28.820 31.099 28.596 L 31.099 28.596 Z " transform="matrix(0.949999988079071, 0, 0, 0.949999988079071, 0.15, 0.9)"/>
          <path id="ID0.5877434951253235" fill="#010101" d="M 26.039 30.635 C 26.043 30.815 26.570 30.922 26.564 30.700 C 26.575 30.662 26.585 30.625 26.597 30.587 C 26.422 30.540 26.247 30.493 26.073 30.446 C 26.045 30.589 26.019 30.731 25.993 30.874 C 26.167 30.921 26.342 30.968 26.517 31.015 C 26.519 30.835 26.564 30.684 26.611 30.512 C 26.665 30.323 26.140 30.182 26.088 30.371 C 26.040 30.543 25.995 30.694 25.993 30.874 C 25.990 31.065 26.478 31.211 26.517 31.015 C 26.544 30.872 26.570 30.730 26.597 30.587 C 26.634 30.389 26.152 30.268 26.073 30.446 C 26.034 30.531 26.037 30.544 26.039 30.635 L 26.039 30.635 Z " transform="matrix(0.949999988079071, 0, 0, 0.949999988079071, 0.15, 0.9)"/>
          <path id="ID0.07411610335111618" fill="#010101" d="M 31.203 28.521 C 31.273 28.350 30.755 28.192 30.680 28.380 C 30.451 28.937 30.571 29.300 30.612 29.880 C 30.641 30.306 29.692 30.597 29.391 30.715 C 28.233 31.172 27.235 30.768 26.063 30.732 C 25.709 30.721 26.065 31.031 26.264 31.037 C 27.149 31.065 28.055 31.458 28.942 31.250 C 29.713 31.070 30.393 30.690 31.104 30.356 C 31.147 30.336 31.162 30.304 31.159 30.259 C 31.114 29.649 30.959 29.113 31.203 28.521 L 31.203 28.521 Z " transform="matrix(0.949999988079071, 0, 0, 0.949999988079071, 0.15, 0.9)"/>
        </g>
      </g>
    </g>
    <g id="Eyes">
      <path id="Eye_Whites_2_" fill="#F5F6F6" d="M 23.320 21.324 C 24.070 21.912 22.073 23.069 21.626 23.202 C 20.667 23.490 19.305 23.649 18.385 23.192 C 17.798 22.901 17.225 22.390 17.354 21.631 C 17.481 20.888 18.641 20.567 19.266 20.402 C 20.690 20.025 22.180 20.268 23.288 21.209 M 28.259 19.707 C 27.620 19.674 27.826 20.862 28.226 20.999 C 28.541 21.105 29.265 20.982 29.599 20.889 C 30.357 20.678 30.999 19.994 31.351 19.271 C 31.669 18.614 31.962 17.991 31.105 17.679 C 30.402 17.425 29.806 17.650 29.269 18.091 C 28.933 18.366 27.910 19.244 28.040 19.712 " transform="matrix(0.949999988079071, 0, 0, 0.949999988079071, 0.15, 0.9)"/>
      <path id="ID0.860699977260083" fill="#33512E" d="M 28.890 18.455 C 29.121 19.101 29.368 20.209 30.330 19.680 C 31.102 19.259 30.836 18.390 30.643 17.698 C 30.059 17.497 29.165 17.936 28.837 18.423 " transform="matrix(0.949999988079071, 0, 0, 0.949999988079071, 0.15, 0.9)"/>
      <path id="ID0.5291979033499956" fill="#33512E" d="M 20.230 20.332 C 20.459 20.260 20.609 20.343 20.855 20.354 C 21.336 20.374 22.478 20.434 22.780 20.843 C 23.198 21.413 22.642 22.039 22.122 22.251 C 21.641 22.447 21.003 22.236 20.357 22.034 C 19.960 21.911 19.390 20.367 19.995 20.537 " transform="matrix(0.949999988079071, 0, 0, 0.949999988079071, 0.15, 0.9)"/>
      <g id="ID0.3189289798028767">
        <g id="ID0.03485636645928025">
          <path id="ID0.3815922709181905" fill="#010101" d="M 28.091 20.915 C 27.855 20.820 27.542 20.993 27.884 21.130 C 28.838 21.512 29.929 21.043 30.693 20.452 C 31.337 19.953 32.416 18.805 31.670 17.951 C 30.051 16.095 27.075 19.102 27.727 20.989 C 27.788 21.163 28.313 21.233 28.251 21.055 C 27.949 20.180 28.391 19.242 29.003 18.609 C 29.456 18.140 30.943 17.020 31.315 18.190 C 31.548 18.924 30.950 19.639 30.419 20.077 C 29.867 20.529 28.845 21.217 28.091 20.915 L 28.091 20.915 Z " transform="matrix(0.949999988079071, 0, 0, 0.949999988079071, 0.15, 0.9)"/>
          <path id="ID0.7067580078728497" fill="#010101" d="M 23.761 21.613 C 23.810 21.430 23.285 21.290 23.239 21.472 C 22.804 23.126 18.013 24.108 17.804 22.064 C 17.576 19.824 22.588 19.911 23.408 21.370 C 23.490 21.519 24.016 21.577 23.895 21.360 C 22.934 19.653 16.641 19.441 17.281 21.998 C 17.875 24.377 23.207 23.739 23.761 21.613 L 23.761 21.613 Z " transform="matrix(0.949999988079071, 0, 0, 0.949999988079071, 0.15, 0.9)"/>
        </g>
      </g>
      <g id="ID0.40079038217663765">
        <g id="ID0.8423438775353134">
          <path id="ID0.526274039875716" fill="#010101" d="M 20.082 20.505 C 20.122 20.344 19.727 20.241 19.689 20.400 C 19.085 23.009 23.550 23.218 22.961 20.738 C 22.925 20.586 22.524 20.528 22.565 20.697 C 22.766 21.546 22.288 22.287 21.370 22.274 C 20.371 22.259 19.869 21.432 20.082 20.505 L 20.082 20.505 Z " transform="matrix(0.949999988079071, 0, 0, 0.949999988079071, 0.15, 0.9)"/>
          <path id="ID0.8224131688475609" fill="#010101" d="M 30.707 17.637 C 30.630 17.511 30.230 17.490 30.337 17.664 C 30.622 18.125 30.871 18.948 30.410 19.393 C 30.073 19.717 29.562 19.806 29.329 19.332 C 29.203 19.077 29.121 18.807 29.033 18.537 C 28.984 18.388 28.585 18.338 28.637 18.496 C 28.911 19.333 29.272 20.202 30.319 19.850 C 31.286 19.525 31.134 18.331 30.707 17.637 L 30.707 17.637 Z " transform="matrix(0.949999988079071, 0, 0, 0.949999988079071, 0.15, 0.9)"/>
        </g>
      </g>
    </g>
    <g id="Hair">
      <path id="Hair_1_" fill="#A15927" d="M 32.146 19.463 C 32.306 19.249 32.169 18.372 32.029 17.918 C 31.851 17.309 32.086 17.172 32.066 16.544 C 32.050 15.909 31.595 14.891 31.628 14.231 C 31.676 13.255 31.031 13.146 30.570 13.146 C 30.523 13.143 29.734 13.533 30.148 13.070 C 29.435 13.264 28.746 13.380 28.369 13.450 C 27.687 13.580 26.474 13.841 25.807 13.969 C 24.585 14.204 23.401 14.357 22.151 14.433 C 20.874 14.510 20.305 14.398 19.057 13.998 C 17.801 13.595 16.920 12.958 15.955 12.209 C 16.191 13.108 16.535 13.698 17.072 14.348 C 17.379 14.721 17.539 15.059 17.992 15.268 C 18.385 15.448 19.398 15.845 19.664 16.177 C 18.488 16.383 16.480 15.922 15.423 15.255 C 13.673 14.155 13.277 12.511 13.069 11.572 C 13.171 12.410 13.188 13.808 13.381 14.652 C 13.570 15.470 13.985 16.561 14.279 17.386 C 14.888 19.098 15.826 21.781 15.451 23.183 C 15.140 22.223 14.137 20.478 13.494 19.628 C 13.367 20.699 14.568 20.949 14.908 23.761 C 15.054 24.988 15.246 24.860 15.179 25.903 C 14.652 24.700 14.702 24.897 13.929 24.220 C 13.558 24.074 13.023 23.304 13.224 23.840 C 13.316 23.328 13.169 23.722 13.146 23.701 C 12.795 23.415 12.577 22.944 12.196 22.590 C 11.808 22.231 10.909 21.359 10.296 21.168 C 9.977 21.068 8.751 20.794 8.126 21.134 C 5.583 22.518 7.436 25.174 8.671 26.461 C 9.456 27.282 11.118 28.276 11.882 28.021 C 12.567 27.794 12.869 27.097 13.188 27.252 C 13.452 27.381 13.344 27.920 13.493 28.217 C 14.360 29.938 14.915 31.327 15.124 33.438 C 14.817 33.709 13.240 35.615 12.895 35.781 C 12.698 35.197 13.086 33.830 13.135 33.228 C 13.188 32.548 12.835 33.011 12.610 32.337 C 12.036 33.548 11.151 35.174 9.839 35.666 C 9.871 35.257 10.403 33.740 10.562 33.364 C 10.806 32.782 10.791 32.229 10.708 31.664 C 10.553 30.624 10.094 30.724 9.624 29.685 C 9.790 30.708 10.146 33.076 8.581 33.864 C 8.777 32.457 7.594 29.644 6.777 28.638 C 6.029 27.719 5.769 26.776 5.070 25.802 C 4.460 24.946 4.009 23.950 3.238 23.016 C 2.445 22.054 2.109 21.352 1.525 20.206 C 1.243 19.647 0.950 19.024 0.691 18.457 C 0.415 17.843 0.370 17.267 0.234 16.593 C 0.019 15.498 -0.163 15.024 0.251 13.997 C 1.686 10.449 1.957 10.479 2.186 10.330 C 4.085 9.082 1.912 8.905 4.667 4.963 C 5.239 4.142 6.679 2.710 7.736 1.960 C 8.880 1.150 10.503 0.266 12.042 -0.203 C 13.381 -0.612 14.566 -0.600 15.938 -0.793 C 17.325 -0.987 16.885 -0.811 18.590 -0.743 C 18.580 -0.746 20.278 -0.288 20.385 -0.528 C 21.577 -0.527 22.198 -0.105 23.311 0.163 C 23.350 0.191 24.518 0.594 24.979 0.809 C 26.323 1.218 25.375 1.290 26.639 1.906 C 27.545 2.348 29.862 3.635 30.692 4.081 C 31.839 4.827 32.299 5.136 33.075 5.929 C 33.874 6.746 34.897 8.306 35.207 9.346 C 34.205 8.827 33.153 7.773 31.465 8.431 C 32.394 9.508 33.068 9.389 34.109 9.974 C 34.907 10.421 36.581 11.336 36.939 12.255 C 36.228 12.499 34.371 12.348 33.617 12.493 C 32.926 12.627 32.711 12.691 32.077 12.823 C 32.632 13.901 33.271 13.961 33.939 14.942 C 34.329 15.510 34.642 15.917 34.914 16.602 C 35.223 17.380 35.889 18.117 36.303 18.733 C 36.049 18.574 35.307 18.279 35.030 18.132 C 34.621 17.914 34.475 17.759 34.051 17.545 C 34.396 18.212 34.470 18.520 34.829 19.202 C 35.168 19.849 35.464 21.431 35.735 22.116 C 35.494 21.858 34.108 20.431 33.619 20.491 C 33.023 20.564 32.625 20.028 32.146 19.463 " transform="matrix(0.949999988079071, 0, 0, 0.949999988079071, 0.15, 0.9)"/>
      <g id="Hair_Lines">
        <g id="ID0.8998978366144001">
          <path id="ID0.6456047515384853" fill="#010101" d="M 13.214 11.199 C 13.191 11.078 12.796 11.010 12.827 11.145 C 13.593 15.170 16.331 16.225 20.095 16.422 C 20.271 16.431 20.202 16.297 20.089 16.253 C 18.306 15.700 17.153 14.606 16.632 12.972 C 16.644 12.979 16.655 12.987 16.667 12.995 C 18.060 13.792 17.429 13.500 18.954 14.047 C 19.559 14.264 20.955 14.457 21.600 14.454 C 26.813 14.429 31.799 12.596 37.022 12.356 C 37.076 12.354 37.180 12.333 37.124 12.257 C 36.793 11.817 36.613 11.489 36.140 11.204 C 35.609 10.866 35.062 10.555 34.499 10.272 C 32.849 9.669 33.103 9.414 35.259 9.507 C 35.291 9.525 35.629 9.609 35.573 9.487 C 33.468 4.924 28.834 2.095 23.996 1.154 C 23.724 1.101 23.882 1.313 24.058 1.347 C 26.377 1.798 30.035 3.310 31.902 5.021 C 27.367 0.865 37.661 10.032 34.202 8.646 C 32.810 8.089 32.771 8.209 31.275 8.201 C 31.187 8.200 31.113 8.251 31.199 8.325 C 32.627 9.562 37.842 11.806 33.658 12.376 C 28.435 13.088 20.669 16.339 16.054 12.109 C 16.013 12.070 15.644 11.981 15.701 12.104 C 16.442 13.716 17.283 14.877 18.735 15.909 C 15.189 13.387 13.970 15.174 13.214 11.199 L 13.214 11.199 Z " transform="matrix(0.949999988079071, 0, 0, 0.949999988079071, 0.15, 0.9)"/>
          <path id="ID0.8164167273789644" fill="#010101" d="M 8.400 33.942 C 8.310 34.036 8.685 34.179 8.771 34.088 C 10.193 32.598 10.265 30.909 9.412 29.088 C 9.287 29.078 9.160 29.068 9.035 29.058 C 10.894 31.019 10.894 34.365 8.914 36.244 C 8.818 36.332 9.187 36.470 9.281 36.390 C 10.777 35.104 12.261 34.020 12.865 32.060 C 12.732 32.033 12.601 32.006 12.470 31.979 C 13.060 33.096 12.992 34.949 12.330 36.031 C 12.267 36.136 12.640 36.209 12.711 36.157 C 13.679 35.454 14.761 34.412 15.386 33.389 C 15.437 33.304 15.064 33.164 14.992 33.284 C 14.377 34.288 13.293 35.322 12.343 36.011 C 12.470 36.053 12.597 36.095 12.724 36.137 C 13.378 35.069 13.451 33.149 12.859 32.036 C 12.816 31.955 12.509 31.817 12.466 31.955 C 11.865 33.901 10.386 34.975 8.908 36.244 C 9.029 36.292 9.149 36.341 9.272 36.390 C 11.295 34.473 11.286 31.061 9.389 29.062 C 9.342 29.011 8.951 28.905 9.012 29.032 C 9.851 30.815 9.804 32.469 8.400 33.942 L 8.400 33.942 Z " transform="matrix(0.949999988079071, 0, 0, 0.949999988079071, 0.15, 0.9)"/>
          <path id="ID0.46109370747581124" fill="#010101" d="M 13.218 11.337 C 13.222 11.198 12.826 11.125 12.822 11.232 C 12.726 13.962 13.814 16.308 14.613 18.858 C 14.825 19.543 15.060 20.236 15.179 20.946 C 15.250 21.388 15.968 23.407 15.091 21.728 C 14.599 20.787 13.913 19.937 13.277 19.093 C 13.209 19.002 12.816 18.958 12.914 19.089 C 13.877 20.363 14.744 21.627 15.381 23.102 C 15.419 23.183 15.777 23.307 15.776 23.183 C 15.697 19.047 13.072 15.496 13.218 11.337 L 13.218 11.337 Z " transform="matrix(0.949999988079071, 0, 0, 0.949999988079071, 0.15, 0.9)"/>
          <path id="ID0.3620091271586716" fill="#010101" d="M 32.257 12.824 C 32.181 12.740 31.789 12.705 31.892 12.817 C 33.183 14.226 34.043 15.675 35.050 17.285 C 35.404 17.851 35.849 18.309 36.224 18.850 C 36.634 19.068 36.527 18.974 35.900 18.569 C 35.351 18.174 34.749 17.840 34.167 17.494 C 34.133 17.475 33.801 17.389 33.852 17.514 C 34.327 18.650 34.819 19.780 35.260 20.928 C 35.440 21.382 35.612 21.838 35.776 22.297 C 35.926 22.384 36.074 22.470 36.221 22.556 C 36.130 22.389 36.020 22.234 35.893 22.090 C 35.012 21.186 34.182 20.588 32.996 20.150 C 32.828 20.088 32.587 20.191 32.847 20.287 C 34.174 20.777 35.488 21.593 36.015 22.985 C 36.060 23.102 36.449 23.160 36.408 23.042 C 35.928 21.654 35.387 20.292 34.818 18.937 C 34.548 18.296 34.056 17.618 35.060 18.271 C 35.618 18.604 36.138 18.985 36.623 19.414 C 36.681 19.461 37.063 19.541 36.960 19.393 C 35.419 17.172 34.095 14.832 32.257 12.824 L 32.257 12.824 Z " transform="matrix(0.949999988079071, 0, 0, 0.949999988079071, 0.15, 0.9)"/>
          <path id="ID0.6538908984512091" fill="#010101" d="M 9.370 0.691 C 9.220 0.762 9.582 0.918 9.685 0.868 C 14.622 -1.486 22.263 -1.564 26.695 2.013 C 26.782 2.083 27.175 2.104 27.006 1.966 C 22.415 -1.740 14.472 -1.743 9.370 0.691 L 9.370 0.691 Z " transform="matrix(0.949999988079071, 0, 0, 0.949999988079071, 0.15, 0.9)"/>
          <path id="ID0.7983635314740241" fill="#010101" d="M 3.282 11.049 C 3.316 11.170 3.709 11.228 3.672 11.105 C 2.230 6.166 6.076 3.312 9.708 0.853 C 9.800 0.792 9.449 0.633 9.343 0.707 C 5.663 3.196 1.836 6.086 3.282 11.049 L 3.282 11.049 Z " transform="matrix(0.949999988079071, 0, 0, 0.949999988079071, 0.15, 0.9)"/>
          <path id="ID0.9985817270353436" fill="#010101" d="M 8.390 33.986 C 8.398 34.104 8.792 34.186 8.782 34.042 C 8.157 25.885 -5.071 17.278 3.185 9.719 C 3.277 9.635 2.913 9.487 2.818 9.573 C -5.459 17.149 7.775 25.972 8.390 33.986 L 8.390 33.986 Z " transform="matrix(0.949999988079071, 0, 0, 0.949999988079071, 0.15, 0.9)"/>
          <path id="ID0.048851495143026114" fill="#010101" d="M 13.402 19.231 C 13.377 19.110 12.982 19.043 13.009 19.173 C 13.248 20.297 14.002 21.091 14.400 22.145 C 14.864 23.366 15.001 24.701 14.874 25.996 C 15.005 26.023 15.137 26.050 15.268 26.077 C 15.186 25.012 14.104 24.254 13.311 23.678 C 13.221 23.614 12.825 23.598 12.999 23.725 C 13.772 24.288 14.796 24.989 14.876 26.021 C 14.886 26.127 15.259 26.214 15.269 26.102 C 15.380 24.968 15.347 23.655 14.937 22.577 C 14.499 21.421 13.663 20.452 13.402 19.231 L 13.402 19.231 Z " transform="matrix(0.949999988079071, 0, 0, 0.949999988079071, 0.15, 0.9)"/>
        </g>
      </g>
    </g>
    <g id="Eyebrows">
      <g id="ID0.6012311452068388">
        <g id="ID0.7290764157660306">
          <path id="ID0.9351740987040102" fill="#010101" d="M 23.661 17.702 C 24.376 17.727 24.156 16.966 23.562 16.944 C 20.833 16.848 18.002 16.721 15.857 18.696 C 15.414 19.106 16.334 19.606 16.669 19.296 C 18.640 17.480 21.152 17.613 23.661 17.702 L 23.661 17.702 Z " transform="matrix(0.949999988079071, 0, 0, 0.949999988079071, 0.15, 0.9)"/>
          <path id="ID0.011035825125873089" fill="#010101" d="M 27.896 16.456 C 27.541 16.835 28.538 17.258 28.859 16.915 C 29.728 15.988 30.501 15.295 31.769 15.002 C 32.015 14.945 32.050 14.671 31.904 14.502 C 31.718 14.288 31.424 14.242 31.162 14.303 C 29.754 14.626 28.859 15.429 27.896 16.456 L 27.896 16.456 Z " transform="matrix(0.949999988079071, 0, 0, 0.949999988079071, 0.15, 0.9)"/>
        </g>
      </g>
    </g>
  </g>
</svg>