<svg width="74px" height="283px" viewBox="0 0 74 283" version="1.1" xml:space="preserve" xmlns="http://www.w3.org/2000/svg" xmlns:xlink="http://www.w3.org/1999/xlink">
  <g>
    <title>Slice 1</title>
    <desc>Created with Sketch.</desc>
    <g id="Page-1" stroke="none" stroke-width="1" fill="none" fill-rule="evenodd">
      <g id="Group" transform="translate(43.000000, 80.000000)">
        <g transform="translate(1.000000, 5.000000)">
          <g transform="translate(6.000000, 74.000000)" id="Path">
            <path d="M15.5,18.6 C13.4,18.1 12.9,16.6 13.1,15 C12.9,18.1 12.8,21 13.1,23.4 C13.1,23.7 13.1,23.9 13.1,24.2 C13,25.4 12.3,26.4 11,26.6 C10.6,26.7 10.2,26.5 9.9,26.3 C9.9,26.4 9.9,26.6 9.9,26.7 C9.8,27.9 8.8,28.9 7.6,28.9 C6.8,28.9 6.2,28.4 6,27.7 C5.8,27.2 5.6,26.6 5.5,26.1 C5.5,26.1 5.5,26.1 5.5,26.1 C4.5,27.1 2.8,26.6 2.5,25.2 C1.9,22.6 0.9,17.2 1,15.1 C1.2,10.8 4.5,6.2 4.5,6.2 L3.6,0.4 L12.6,1.2 L11.7,4.1 C15.3,6.5 16.5,8.5 16.6,12.4 C16.6,12.4 18.2,15.3 18.3,16.7 C18.2,18.6 16.2,18.9 15.5,18.6 Z" fill="#C38F4E"/>
            <path d="M11.8,12.5 L11.8,12.1 C12.1,14.3 12.1,18.1 15.4,18.6 C16.1,18.9 18.2,18.5 17.9,16.9 C17.7,15.5 16.2,12.6 16.2,12.6 C16.1,8.7 14.9,6.7 11.3,4.3 L11.6,2.1" stroke="#000000" stroke-linecap="round" stroke-linejoin="round"/>
            <path d="M5.3,26.2 C5.3,26.2 5.3,26.2 5.3,26.2 C4.3,27.2 2.6,26.7 2.2,25.4 C1.6,22.8 0.6,17.4 0.7,15.3 C0.9,11 4.2,6.4 4.2,6.4 L3.3,0.6" stroke="#000000" stroke-linecap="round" stroke-linejoin="round"/>
            <path d="M4.6,16.9 C4,20.3 4.5,24.3 5.9,27.8 C6.2,28.5 6.8,29.1 7.5,29 C8.9,28.9 10,27.7 9.8,26.3" stroke="#000000" stroke-linecap="round" stroke-linejoin="round"/>
            <path d="M8.2,16.7 C8.2,19.8 8.4,22.7 9,25.2 C9.2,26.1 10.1,26.8 11,26.6 C12.5,26.4 13.3,24.9 13.1,23.4 C12.9,21.5 12.8,19.3 13,17" stroke="#000000" stroke-linecap="round" stroke-linejoin="round"/>
          </g>
          <g transform="translate(3.000000, 38.000000)">
            <path d="M10.3,3.3 C13.6,8.3 12.8,17.3 13.6,22.6 C14.4,27.9 14.8,38 14.8,38 C14.8,38 10.5,42.3 6.7,38.6 C6.7,38.6 2.3,19.1 1.1,14.6 C-0.2,10.2 -0.1,7.3 1.3,4.4 C2.8,1.5 6.5,-2.5 10.3,3.3 Z" id="Shape_61_" fill="#C38F4E"/>
            <path d="M11.9,7.1 C13.3,12.1 12.9,18.4 13.5,22.6 C14.3,27.9 14.6,38.4 14.6,38.4" id="Shape_60_" stroke="#000000" stroke-linecap="round"/>
            <path d="M6.9,39.1 C5.5,36.5 2.1,19 1,14.6 C0.4,12.3 0.1,10.4 0.1,8.8" id="Shape_59_" stroke="#000000" stroke-linecap="round"/>
          </g>
          <g id="Path">
            <path d="M2.4,40 C2.2,41.5 2.5,47.6 3.4,49.2 C4.6,51.3 10.9,51.2 12.2,51.2 C16.6,51 15.3,45.7 15.6,43.3 C15.7,42.5 15.6,41.3 15.7,40.4 C17.1,25.4 14.5,8.8 12.1,3.4 C9.2,-2.7 4.1,1.9 1.1,9.6 C-1.1,14.9 3.5,26.3 2.4,40 Z" fill="#C38F4E"/>
            <path d="M15.2,49 C15.9,47.2 15.5,44.7 15.6,43.2 C15.7,42.4 15.6,41.2 15.7,40.3 C17.1,25.3 14.5,8.7 12.1,3.3 C11.2,1.4 10.1,0.5 8.9,0.5" stroke="#000000" stroke-linecap="round"/>
            <path d="M8.6,0.4 C6,0.6 3.1,4.3 1.1,9.4 C-1.1,14.9 2.5,22.2 2.6,36.5 C2.4,38 2.9,44.7 3.1,48.9" stroke="#000000" stroke-linecap="round"/>
          </g>
        </g>
        <path d="M15.3,10.5 C15.7,11.9 16.1,13.2 16.6,14.6 C19.1,21.6 21.2,29.2 20.1,36.7 C19.6,40.4 14.7,41 11.4,42 C8.7,42.8 4,44.6 2.9,41.6 C-0.7,32.2 -0.2,3.1 1.2,1.8 C4.6,-1.5 13.2,3.9 15.3,10.5 Z" id="ID0.8950433996506035_13_" stroke="#000000" fill="#540096" stroke-linecap="round" stroke-linejoin="round"/>
      </g>
      <path d="M39.2,80.3 L40.1,83.7 L33.8,84.5 L32.8,84.6 L31.8,84.5 L25.5,83.7 L26.4,80.3 C27.8,75 27.2,69.3 24.9,64.4 L32.9,65 L40.9,64.4 C38.3,69.7 37.1,75.6 39.2,80.3 Z" id="Path" stroke="#000000" fill="#C38F4E"/>
      <path d="M9.7,171.6 C-2.7,149.7 9.9,84.9 14.6,81.5 C17.9,79.2 21.8,78.8 23.9,78.8 C24.7,78.8 25.5,79.1 26.1,79.6 C29,82 38.3,83.4 40.5,80.5 C40.5,80.5 40.7,80.4 40.9,80.4 C44,79.6 47.3,80.7 49.3,83.2 C49.3,83.3 49.4,83.3 49.4,83.3 C54.3,90.2 57.5,99.4 56.8,106.3 C54.7,126.4 60,143.5 56.7,168.4 C55.2,172.9 12.3,176.7 9.7,171.6 Z" id="Path" stroke="#000000" fill="#C38F4E" stroke-linecap="round"/>
      <g id="Group" transform="translate(1.000000, 0.000000)">
        <g transform="translate(8.000000, 12.000000)">
          <path d="M30.5,0.5 C23.8,0.9 14.8,3.6 10.1,8.6 C5.4,13.6 4.4,20.7 4.4,28.3 C4.4,35.9 7.7,42.6 12.1,48 C16,52.9 21.7,57.1 27.8,57.6 C35,58.2 44.8,57.1 48.3,50.9 C54,40.4 54.6,29.4 54.7,17.7 C54.8,13.3 53.4,9 50.5,5.7 C49.4,4.4 48.3,3.4 47.4,3 C41.8,0.4 36.8,0 30.5,0.5 Z" id="ID0.2304357774555683_6_" stroke="#000000" fill="#C38F4E"/>
          <g transform="translate(18.000000, 23.000000)">
            <path d="M15.4,6.2 C15.5,8.6 14.6,10 13,10.7 C11.9,11.2 10.6,11.4 9,11.5 C6.9,11.6 5.2,11.5 4,11 C2.7,10.5 1.9,9.7 1.4,8.4 C1.4,8.4 1.4,8.3 1.4,8.3 C1.2,7.7 1,7 0.9,6.1 C0.5,2 4.1,0.2 8,0.2 C8.5,0.2 9.1,0.2 9.6,0.2 L9.7,0.2 C12.8,0.6 15.2,1.5 15.4,6.2 Z" id="Path" stroke="#000000" fill="#FFFFFF"/>
            <path d="M12,4.7 C12.1,8 9.7,8.9 6.2,9.1 C4.1,9.2 2.6,9.1 1.5,8.6 C1.5,8.6 1.5,8.5 1.5,8.5 C1.3,7.9 1.1,7.2 1,6.3 C0.6,2.2 4.2,0.4 8.1,0.4 C8.6,0.4 9.2,0.4 9.7,0.4 C11,1 11.9,2.2 12,4.7 Z" id="Path" fill="#000000"/>
            <ellipse id="Oval" fill="#FFFFFF" cx="4" cy="4" rx="1.3" ry="1.6"/>
          </g>
          <g transform="translate(42.000000, 23.000000)">
            <path d="M10.6,6.1 C10.7,10.1 8.9,11.1 6.2,11.3 C3.1,11.6 1.6,10.7 0.9,8.3 C0.9,8.3 0.9,8.2 0.9,8.2 C0.7,7.6 0.6,6.9 0.6,6.1 C0.3,2 2.8,0.3 5.5,0.3 C5.9,0.3 6.3,0.3 6.6,0.3 L6.7,0.3 C8.8,0.6 10.5,1.5 10.6,6.1 Z" id="Path" stroke="#000000" fill="#FFFFFF"/>
            <path d="M8.3,4.6 C8.4,7.9 6.7,8.7 4.3,8.9 C2.9,9 1.8,8.9 1,8.5 C1,8.5 1,8.4 1,8.4 C0.8,7.8 0.7,7.1 0.7,6.3 C0.4,2.2 2.9,0.5 5.6,0.5 C6,0.5 6.4,0.5 6.7,0.5 C7.6,1 8.2,2.2 8.3,4.6 Z" id="Path" fill="#000000"/>
            <ellipse id="Oval" fill="#FFFFFF" cx="2.9" cy="4" rx="1.2" ry="1.6"/>
          </g>
          <path d="M37.3,49.4 C33.7,49.2 29.1,47.5 26.4,45.1" id="Path" stroke="#000000" stroke-width="0.8715" stroke-linecap="round" stroke-linejoin="round"/>
          <path d="M32.1,20.8 C26.2,20.2 20.9,21 16.2,23.4 C14.7,21.4 25.5,17.4 30,18.2 C33.8,18.8 32.4,20.6 32.1,20.8 Z" id="Path" fill="#000000"/>
          <path d="M41.6,21.3 C46.5,20.7 49.3,20 53.7,22.1 C53.6,19.1 47.1,17.9 43.4,18.7 C40.3,19.3 41.4,21.1 41.6,21.3 Z" id="Path" fill="#000000"/>
          <g transform="translate(36.000000, 29.000000)" id="Path" stroke="#000000" stroke-linecap="round" stroke-linejoin="round">
            <path d="M2.8,0.3 L3.5,6.2"/>
            <path d="M2.5,6 C4.3,5.9 5.9,7.4 5.9,9.2 C6,11.1 4.5,12.5 2.7,12.7 C1.9,12.8 1.2,12.6 0.5,12.3" stroke-width="0.9916"/>
          </g>
          <path d="M6.8,24.3 C5.8,23.7 4.4,23.4 2.6,24.1 C-2.4,26 1.6,35 1.6,35 C1.6,35 0.9,38.5 4.5,39.3 C8.1,40.1 7.7,38.9 7.7,38.9" id="Path" stroke="#000000" fill="#C38F4E"/>
        </g>
        <g fill="#000000" id="Path" stroke="#000000" stroke-linecap="round">
          <path d="M69.1,48.1 C69.2,44.1 67.2,42.3 66.1,40.1 C69.3,57.8 59.6,65.7 56.7,71.5 C56.4,72 56.3,72.6 56.3,73.2 C56.3,74 56.6,74.8 57.1,75.5 C50.2,76.4 43.6,76 37.1,74.9 C37.1,73.3 37.3,71.6 37.8,69.9 C44.7,70.1 53.1,68.7 56.3,63.1 C62,52.6 62.6,41.6 62.7,29.9 C62.7,27.6 62.3,25.2 61.5,23.1 L65.2,23.4 C65.1,30.1 72,35.7 69.1,48.1 Z"/>
          <path d="M26,72.9 C21.9,71.1 17.2,69.3 14.3,67 C4.6,59.1 0.9,47.1 0.9,34.6 C0.9,31.4 1.3,28.3 2,25.1 C4.4,16.7 9.6,12.6 16.7,11.4 L19.6,21.6 C19.5,31.5 17.8,41.7 15,52.3 C16.3,55.1 18,57.7 19.9,60.1 C21.1,61.7 23.6,64.4 23.6,64.4 C25.1,67.1 25.8,70 26,72.9 Z"/>
          <path d="M13.5,15 C13.2,14 12.4,12.8 11.5,11.6 C11.4,11.4 11.6,11.2 11.8,11.3 C13.1,11.8 14.3,12.5 15.2,13.3 C14.2,11.9 13.8,10.3 13.7,8.7 C13.7,8.5 14,8.4 14.1,8.6 C14.7,9.4 15.4,10.1 16.2,10.6 C17.9,7 21.2,3.1 27.6,1.6 C38.6,-1.1 69.7,3.1 68.5,27.6 C68.4,29.5 68.9,31.3 70.1,32.7 L70.1,32.8 C68.7,32.6 66.5,32 65.3,31.3 C59.3,27.6 49.3,25.9 42.2,25.8 C32.7,25.7 23.7,24.7 15.1,21.7"/>
          <path d="M14.2,54.7 L15.1,52.3"/>
        </g>
      </g>
      <g id="Group" transform="translate(34.000000, 149.000000)">
        <g transform="translate(2.000000, 11.000000)" id="Path">
          <g>
            <path d="M3.7,4.4 C6.5,0.6 11.5,-1.7 15.4,2.4 C27.1,14.7 23.1,51.1 14.7,60.4 C13.8,61.4 8.8,64.2 6.4,61.7 C-1.3,53.7 -1.3,11.3 3.7,4.4 Z" fill="#C38F4E"/>
            <path d="M2.8,53 C-1.1,36.1 -0.3,10 3.8,4.4 C6.6,0.6 11.6,-1.7 15.5,2.4 C25.6,13.1 24,40 17.9,55" stroke="#000000" stroke-linecap="round"/>
          </g>
          <g transform="translate(1.000000, 45.000000)">
            <path d="M16.7,9.1 L16.6,10.4 L12.9,43.7 C12.7,45.5 12.8,47.4 13.2,49.2 C13.8,51.8 12.5,54.6 10,55.6 C10,55.6 9.9,55.6 9.9,55.6 C6,57.1 2,53.8 2.4,49.7 L2.8,45.7 C2.9,44.4 2.9,43.2 2.8,41.9 L0.4,16.8 C0.3,13.9 0.7,11.1 1.6,8.4 C1.6,8.3 1.7,8.2 1.7,8.1 C2.4,6.3 3.3,4.5 4.4,2.9 C5.4,1.4 7,0.4 8.8,0.2 C12.4,-0.3 15.7,2.2 16.2,5.8 L16.7,9.1 Z" fill="#C38F4E"/>
            <path d="M16.6,10.1 L12.9,43.6 C12.7,45.4 12.8,47.3 13.2,49.1" stroke="#000000" stroke-linecap="round"/>
            <path d="M2.4,50.6 C2.4,50.3 2.4,50 2.4,49.7 L2.8,45.7 C2.9,44.4 2.9,43.2 2.8,41.9 L0.4,16.8 C0.2,13.8 0.7,10.8 1.7,8" stroke="#000000" stroke-linecap="round"/>
          </g>
          <g transform="translate(3.000000, 94.000000)">
            <path d="M0.8,4.5 C3.8,11.8 9.8,17.2 21.4,19 C24.4,19.3 26.8,18.8 28.1,16.9 C29.4,15 28.9,12.4 27.3,10.8 C22.6,6.2 17.2,2.7 11.3,0.1 L2.3,1.9 C1.1,2.2 0.4,3.4 0.8,4.5 Z" fill="#C38F4E"/>
            <path d="M0.4,1.9 C1.9,10.4 9.8,17.2 21.4,19.1 C24.4,19.4 26.8,18.9 28.1,17 C29.4,15.1 28.9,12.5 27.3,10.9 C22.6,6.3 17.2,2.8 11.3,0.2" stroke="#000000" stroke-linecap="round"/>
          </g>
        </g>
        <path d="M0.5,24.1 C1.5,24.1 2.4,31.9 2.2,34.7 C9.5,36.9 17.3,36.9 25.5,34.7 L24.5,5.4 L0.8,6.7" id="Path" stroke="#000000" fill="#CCD8FF" stroke-linecap="round"/>
        <path d="M2.1,1.7 C-0.3,24.8 -0.1,47.1 2.8,61.5 C0.4,70.5 1.7,86.6 4.2,103.1 C4.2,103.3 4.5,103.5 4.7,103.5 L16,102.8 C16.2,102.8 16.4,102.6 16.4,102.4 C18.7,89.4 21,76.9 21.2,66 C26.5,46.4 25.1,24 23.2,2.84217094e-14 L2.1,1.7 Z" id="Path" stroke="#000000" fill="#333333" stroke-linecap="round"/>
        <g transform="translate(3.000000, 99.000000)">
          <path d="M21.5,23.2 C13.6,20.5 7,15.9 1.4,10 L0.4,4.2 C0.3,3.5 1,2.9 1.7,3.2 L3.8,4.2 C5.5,1.9 9,-0.3 12.5,0.1 C17.2,0.5 13.5,3.8 13.5,3.8 L29.4,13.7 L28.6,19.5 L21.9,23.7" id="Path" stroke="#000000" fill="#000000" stroke-linecap="round" stroke-linejoin="round"/>
          <polygon id="Path" stroke="#000000" fill="#000000" stroke-linecap="round" stroke-linejoin="round" points="29.4 13.7 27.8 15.3 17 7 13.5 3.8"/>
          <path d="M25.3,18.3 L21.9,22.7 C14.6,20 6.6,15.6 1.3,10.1 L0.3,4.3 C0.2,3.6 0.9,3 1.6,3.3 L3.7,4.3 L5.6,8.3 C10.3,12.8 18.5,15.5 25.3,18.3 Z" id="Path" stroke="#000000" fill="#000000" stroke-linecap="round" stroke-linejoin="round"/>
          <path d="M20,25.4 C20.1,24.8 20.4,23.8 20.7,23.2 C20.9,22.8 21.5,23.4 21.7,23 C23.2,19.9 25.9,15.3 29.4,13.7 C29.4,13.7 37.5,17.4 35.2,23.5 C34.2,26.1 31.6,28 28.3,27.9 C24.7,27.9 20.2,25.9 20,25.4 Z" id="Path" stroke="#000000" fill="#FFFFFF" stroke-linecap="round" stroke-linejoin="round"/>
          <path d="M22,22.7 C22.5,19 24.7,15.9 29.4,13.7 C29.4,13.7 38,17.6 33.6,22.7 C29.2,27.8 22,22.7 22,22.7 Z" id="Path" stroke="#000000" fill="#FFFFFF" stroke-linecap="round" stroke-linejoin="round"/>
          <path d="M0.7,13.1 C4.8,18.1 13.5,22.8 20.8,25.8 C20.8,25.8 22.1,22.9 21.8,22.7 C14.5,19.6 5.5,15 1.3,9.9 L0.7,13.1 Z" id="Path" stroke="#000000" fill="#FFFFFF" stroke-linecap="round" stroke-linejoin="round"/>
          <g transform="translate(8.000000, 5.000000)">
            <g fill="#000000" id="Oval">
              <circle cx="1.1" cy="6.7" r="1"/>
              <circle cx="9.1" cy="1.9" r="1"/>
              <circle cx="16.6" cy="6.5" r="1"/>
              <circle cx="12.6" cy="4.2" r="1"/>
              <circle cx="9.6" cy="11.2" r="1"/>
              <circle cx="5.1" cy="8.9" r="1"/>
            </g>
            <g transform="translate(1.000000, 2.000000)" id="Path" stroke="#FFFFFF" stroke-linecap="round" stroke-linejoin="round">
              <path d="M0.2,4.7 C4.3,3 7,1.4 8,0"/>
              <path d="M8.7,9.2 C11.8,8 14.4,6.6 15.4,4.7"/>
              <path d="M4.2,6.8 C7.8,5 10.9,3.4 11.4,2.3"/>
            </g>
          </g>
        </g>
      </g>
      <g id="Group" transform="translate(9.000000, 155.000000)">
        <g transform="translate(2.000000, 4.000000)" id="Path">
          <g>
            <path d="M3.7,4.4 C6.5,0.6 11.5,-1.7 15.4,2.4 C27.1,14.7 23.1,58.1 14.7,67.4 C13.8,68.4 8.8,71.2 6.4,68.7 C-1.3,60.7 -1.3,11.3 3.7,4.4 Z" fill="#C38F4E"/>
            <path d="M2.7,60 C-1.2,43.1 -0.4,10 3.7,4.4 C6.5,0.6 11.5,-1.7 15.4,2.4 C25.5,13.1 23.9,47.1 17.8,62" stroke="#000000" stroke-linecap="round"/>
          </g>
          <g transform="translate(1.000000, 52.000000)">
            <path d="M16.7,9.1 L16.6,10.4 L12.9,43.7 C12.7,45.5 12.8,47.4 13.2,49.2 C13.8,51.8 12.5,54.6 10,55.6 C10,55.6 9.9,55.6 9.9,55.6 C6,57.1 2,53.8 2.4,49.7 L2.8,45.7 C2.9,44.4 2.9,43.2 2.8,41.9 L0.4,16.8 C0.3,13.9 0.7,11.1 1.6,8.4 C1.6,8.3 1.7,8.2 1.7,8.1 C2.4,6.3 3.3,4.5 4.4,2.9 C5.4,1.4 7,0.4 8.8,0.2 C12.4,-0.3 15.7,2.2 16.2,5.8 L16.7,9.1 Z" fill="#C38F4E"/>
            <path d="M16.6,10.1 L12.9,43.6 C12.7,45.4 12.8,47.3 13.2,49.1" stroke="#000000" stroke-linecap="round"/>
            <path d="M2.4,50.6 C2.4,50.3 2.4,50 2.4,49.7 L2.8,45.7 C2.9,44.4 2.9,43.2 2.8,41.9 L0.4,16.8 C0.2,13.8 0.7,10.8 1.7,8" stroke="#000000" stroke-linecap="round"/>
          </g>
          <g transform="translate(3.000000, 101.000000)">
            <path d="M0.8,4.5 C3.8,11.8 9.8,17.2 21.4,19 C24.4,19.3 26.8,18.8 28.1,16.9 C29.4,15 28.9,12.4 27.3,10.8 C22.6,6.2 17.2,2.7 11.3,0.1 L2.3,1.9 C1,2.2 0.4,3.4 0.8,4.5 Z" fill="#C38F4E"/>
            <path d="M0.4,1.9 C1.9,10.4 9.8,17.2 21.4,19.1 C24.4,19.4 26.8,18.9 28.1,17 C29.4,15.1 28.9,12.5 27.3,10.9 C22.6,6.3 17.2,2.8 11.3,0.2" stroke="#000000" stroke-linecap="round"/>
          </g>
        </g>
        <path d="M25.8,0.7 L2.2,1.8 L1.2,28.8 C8.9,31.3 16.7,31.5 24.9,29.1 C24.3,26.3 24.6,18.2 25.6,18.1" id="Path" stroke="#000000" fill="#CCD8FF" stroke-linecap="round"/>
        <path d="M2.1,1.7 C-0.3,24.8 -0.1,47.1 2.8,61.5 C0.4,70.5 1.7,86.6 4.2,103.1 C4.2,103.3 4.5,103.5 4.7,103.5 L16,102.8 C16.2,102.8 16.4,102.6 16.4,102.4 C18.7,89.4 21,76.9 21.2,66 C26.5,46.4 27.1,24 25.2,5.68434189e-14 L2.1,1.7 Z" id="Path" stroke="#000000" fill="#333333" stroke-linecap="round"/>
        <g transform="translate(3.000000, 99.000000)">
          <path d="M21.5,23.2 C13.6,20.5 7,15.9 1.4,10 L0.4,4.2 C0.3,3.5 1,2.9 1.7,3.2 L3.8,4.2 C5.5,1.9 9,-0.3 12.5,0.1 C17.2,0.5 13.5,3.8 13.5,3.8 L29.4,13.7 L28.6,19.5 L21.9,23.7" id="Path" stroke="#000000" fill="#000000" stroke-linecap="round" stroke-linejoin="round"/>
          <polygon id="Path" stroke="#000000" fill="#000000" stroke-linecap="round" stroke-linejoin="round" points="29.4 13.7 27.8 15.3 17 7 13.5 3.8"/>
          <path d="M25.3,18.3 L21.9,22.7 C14.6,20 6.6,15.6 1.3,10.1 L0.3,4.3 C0.2,3.6 0.9,3 1.6,3.3 L3.7,4.3 L5.6,8.3 C10.3,12.8 18.5,15.5 25.3,18.3 Z" id="Path" stroke="#000000" fill="#000000" stroke-linecap="round" stroke-linejoin="round"/>
          <path d="M20,25.4 C20.1,24.8 20.4,23.8 20.7,23.2 C20.9,22.8 21.5,23.4 21.7,23 C23.2,19.9 25.9,15.3 29.4,13.7 C29.4,13.7 37.5,17.4 35.2,23.5 C34.2,26.1 31.6,28 28.3,27.9 C24.7,27.9 20.2,25.9 20,25.4 Z" id="Path" stroke="#000000" fill="#FFFFFF" stroke-linecap="round" stroke-linejoin="round"/>
          <path d="M22,22.7 C22.5,19 24.7,15.9 29.4,13.7 C29.4,13.7 38,17.6 33.6,22.7 C29.2,27.8 22,22.7 22,22.7 Z" id="Path" stroke="#000000" fill="#FFFFFF" stroke-linecap="round" stroke-linejoin="round"/>
          <path d="M0.7,13.2 C4.8,18.2 13.5,22.9 20.8,25.9 C20.8,25.9 22.1,23 21.8,22.8 C14.5,19.7 5.5,15.1 1.3,10 L0.7,13.2 Z" id="Path" stroke="#000000" fill="#FFFFFF" stroke-linecap="round" stroke-linejoin="round"/>
          <g transform="translate(8.000000, 5.000000)">
            <g fill="#000000" id="Oval">
              <circle cx="1.1" cy="6.7" r="1"/>
              <circle cx="9.2" cy="1.9" r="1"/>
              <circle cx="16.6" cy="6.5" r="1"/>
              <circle cx="12.6" cy="4.2" r="1"/>
              <circle cx="9.6" cy="11.2" r="1"/>
              <circle cx="5.1" cy="8.9" r="1"/>
            </g>
            <g transform="translate(1.000000, 2.000000)" id="Path" stroke="#FFFFFF" stroke-linecap="round" stroke-linejoin="round">
              <path d="M0.2,4.7 C4.3,3 7,1.4 8,0"/>
              <path d="M8.7,9.2 C11.8,8 14.4,6.6 15.4,4.7"/>
              <path d="M4.2,6.8 C7.8,5 10.9,3.4 11.4,2.3"/>
            </g>
          </g>
        </g>
      </g>
      <path d="M60.7,168.3 C60.1,170.1 52.7,171.8 43.6,172.8 C42.7,172.9 41.7,173 40.7,173.1 C39.9,173.2 39.1,173.3 38.3,173.3 C37.4,173.4 36.4,173.4 35.5,173.5 C23.3,174.4 10.9,174 9.6,171.5 C-2.8,149.6 9.8,84.8 14.5,81.4 C17.8,79.1 21.7,78.7 23.8,78.7 C24.6,78.7 25.4,79 26,79.5 C28.9,81.9 38.2,83.3 40.4,80.4 C40.4,80.4 40.6,80.3 40.8,80.3 C43.9,79.5 47.2,80.6 49.3,83.1 C49.3,83.1 49.4,83.2 49.4,83.2 C54.3,90.1 57.5,99.3 56.8,106.2 C54.7,126.3 64,143.4 60.7,168.3 Z" id="Path" stroke="#000000" fill="#540096" stroke-linecap="round" stroke-linejoin="round"/>
      <g id="Group-2" transform="translate(0.000000, 81.000000)">
        <g id="Group" transform="translate(1.000000, 2.000000)">
          <g transform="translate(0.000000, 82.000000)" id="Path">
            <path d="M18.3,20 C16.1,19.9 15.1,16.7 13.5,15 L13.1,15.4 C13,19.1 13.1,22.5 13.6,25.4 C13.6,25.6 13.7,25.8 13.7,26 C13.7,27.3 13.1,28.4 11.8,28.7 C11.4,28.8 11,28.7 10.7,28.5 C10.7,28.6 10.7,28.7 10.7,28.8 C10.7,30 9.8,31.1 8.5,31.3 C7.7,31.4 7.1,30.9 6.8,30.2 C6.6,29.7 6.3,29.2 6.1,28.6 C6.1,28.6 6.1,28.6 6.1,28.6 C5.2,29.7 3.4,29.3 3,27.9 C2.2,25.4 0.9,20 0.9,17.9 C0.9,14.3 3,10.3 3.6,9.1 L3.7,9.6 L3.8,8.8 L2.5,3.1 C5.1,0.4 7.8,-0.3 10.6,3.9 L10.7,7.1 L12.5,7.5 L12.8,8 C15.4,9.3 16.6,10.9 17.5,14 C17.5,14 19.7,16.4 20.3,17.7 C21,19.3 19.1,20.1 18.3,20 Z" fill="#C38F4E"/>
            <g transform="translate(1.000000, 3.000000)" stroke="#000000" stroke-linecap="round" stroke-linejoin="round">
              <path d="M12.3,12.1 L12.2,11.7 C14,13.3 15,17 17.4,17.1 C18.2,17.2 20,16.3 19.4,14.8 C18.9,13.5 16.6,11.1 16.6,11.1 C15.5,7.3 13.8,5.7 9.8,4.3 L9.7,1.1"/>
              <path d="M5.2,25.6 C5.1,25.6 5.1,25.6 5.2,25.6 C4.2,26.7 2.5,26.3 2.1,25 C1.3,22.5 0,17.1 0,15 C0,10.7 2.9,5.9 2.9,5.9 L1.6,0.2"/>
              <path d="M3.8,16.4 C3.4,19.8 4.2,23.8 5.8,27.2 C6.1,27.9 6.8,28.4 7.5,28.3 C8.9,28.2 9.9,26.8 9.6,25.4"/>
              <path d="M7.4,16 C7.6,19.1 7.9,22 8.7,24.4 C9,25.3 9.9,25.9 10.8,25.7 C12.3,25.4 13,23.9 12.7,22.4 C12.1,19.4 12.1,15.6 12.2,11.7"/>
            </g>
          </g>
          <g transform="translate(0.000000, 47.000000)">
            <path d="M12.1,4 C14.5,9.4 12.2,18.2 12.1,23.6 C12,29 10.7,38.9 10.7,38.9 C10.7,38.9 5.7,42.4 2.6,38.1 C2.6,38.1 1.6,18.1 1.1,13.5 C0.6,8.9 1.1,6.1 3,3.4 C5,1 9.3,-2.3 12.1,4 Z" id="Shape_58_" fill="#C38F4E"/>
            <path d="M13.1,8.1 C13.6,13.2 12.2,19.5 12.1,23.7 C12,29.1 10.7,39.3 10.7,39.3" id="Shape_57_" stroke="#000000" stroke-linecap="round"/>
            <path d="M2.7,38.7 C1.8,35.9 1.4,18.1 1,13.6 C0.8,11.2 0.8,9.4 1.1,7.7" id="Shape_56_" stroke="#000000" stroke-linecap="round"/>
          </g>
          <g id="Path">
            <path d="M18.9,10.5 C16.5,2.7 11.8,-2.4 8.4,3.5 C5.5,8.7 1.1,31 1.3,46.1 C1.3,47 1.2,48.2 1.2,49 C1.3,51.4 -0.4,56.5 3.9,57.1 C5.2,57.3 11.5,57.9 12.9,55.9 C14,54.4 14.7,48.4 14.7,46.9 C14.7,33.1 20.7,16.2 18.9,10.5 Z" fill="#C38F4E"/>
            <path d="M11.9,0.9 C10.7,0.8 9.5,1.6 8.4,3.5 C5.5,8.7 1.1,31 1.3,46.1 C1.3,47 1.2,48.2 1.2,49 C1.2,50.5 0.6,53 1.1,54.8" stroke="#000000" stroke-linecap="round"/>
            <path d="M13.1,55.7 C13.7,51.5 14.7,44.8 14.7,43.3 C16,29.1 20.7,16.1 18.9,10.5 C17.3,5.3 14.7,1.3 12.1,0.9" stroke="#000000" stroke-linecap="round"/>
          </g>
        </g>
        <path d="M13.5,0.4 C16.9,7.10542736e-15 20.4,5 20.9,9 C22.3,18.9 22.1,29.7 18.7,39.2 C17.6,42.2 12.9,40.6 10.2,39.9 C6.8,39 1.9,38.6 1.3,34.9 C-0.2,26.5 2.4,17.9 5,10.2 C6.7,5.6 9.7,0.8 13.5,0.4 Z" id="ID0.8950433996506035_12_" stroke="#000000" fill="#540096" stroke-linecap="round" stroke-linejoin="round"/>
      </g>
    </g>
  </g>
</svg>