<?xml version="1.0" encoding="utf-8"?>
<!-- Generator: Adobe Illustrator 18.0.0, SVG Export Plug-In . SVG Version: 6.00 Build 0)  -->
<!DOCTYPE svg PUBLIC "-//W3C//DTD SVG 1.1//EN" "http://www.w3.org/Graphics/SVG/1.1/DTD/svg11.dtd">
<svg version="1.1" id="Layer_2" xmlns="http://www.w3.org/2000/svg" xmlns:xlink="http://www.w3.org/1999/xlink" x="0px" y="0px"
	 viewBox="0 0 36.5 47.6" enable-background="new 0 0 36.5 47.6" xml:space="preserve">
<g>
	<path fill="#41A2F2" d="M36.5,37c-0.2,2-0.4,4-0.8,6c-0.2,1.1-0.5,2.3-0.8,3.4c0,0.2-0.4,0.3-0.7,0.4c-5.1,0.1-10.2,0.1-15.2,0.4
		c-3.3,0.2-6.7,0.4-10,0.4c-2.3,0-4.6-0.1-6.9-0.1c-0.3,0-0.6-0.1-0.9-0.1c-0.5-0.1-1.1-0.1-1.1-0.8c0-0.7,0.4-1.3,1.1-1.4
		c0.7-0.2,1.3-0.3,2-0.4c0.7-0.1,1-0.6,1-1.3c0-1.5-0.1-2.9-0.1-4.4c0-2.9,0.1-5.9,0.1-8.8c0-4.2,0.6-8.3,0.3-12.5
		c-0.1-2.1,0.1-4.3,0.3-6.4C5.1,8.7,4.8,6.3,4.2,4C4.2,3.5,3.5,3.1,3.1,2.8C2.4,2.5,1.6,2.4,0.8,2.2C0.1,2.1,0,1.7,0,1.1
		c0-0.6,0.4-0.9,0.9-1c0.8-0.1,1.6,0,2.4,0c0.7,0,1.4,0,2.1,0c3.7,0,7.4-0.1,11,0c2.6,0,5.1,0.1,7.7,0.2c2.8,0.1,5.6,0.1,8.4,0.3
		c0.3,0,0.6,0.4,0.8,0.6c0.1,0.2,0.1,0.5,0.1,0.8c0.3,2.4,0.5,4.8,0.7,7.3c0,0.4,0.3,1-0.4,1.2c-0.8,0.2-1.3,0-1.5-0.8
		C32,7.6,31.1,6.1,29.5,5c-1.2-0.9-2.6-1.1-4-1.1c-3.6-0.2-7.2-0.3-10.7-0.4c-0.9,0-1.7-0.1-2.6-0.1c-0.2,6.3-0.4,12.5-0.6,18.9
		c0.9,0,1.9-0.1,2.8-0.1c1.9,0,3.8,0.1,5.7,0.1c0.6,0,1.1,0.1,1.7,0.1c1.1,0,1.6-0.4,1.8-1.5c0.1-0.9,0.1-1.7,0.2-2.6
		c0.1-0.8,0.3-0.9,1.3-1c0.7,0,1.2,0.2,1.2,1c0,0.9-0.1,1.8-0.1,2.7c0,2.8,0.1,5.5,0.1,8.3c0,0.6-0.1,1.1-0.2,1.7
		c-0.1,0.4-0.2,0.7-0.7,0.7c-0.5-0.1-1-0.1-1.1-0.8c-0.1-0.7-0.2-1.4-0.2-2c0-1.5-0.3-1.8-1.8-1.8c-2.9,0-5.8,0.1-8.8,0.1
		c-0.1,0-0.2,0-0.2,0c-1.7-0.2-1.6-0.2-1.4,1.6c0.3,2.8,0.1,5.5-0.2,8.2c-0.1,1-0.1,2.1-0.1,3.2c-0.1,1.1-0.1,2.2-0.2,3.3
		c0.1,0,0.2,0.1,0.3,0.1c5.4-0.1,10.8-0.2,16.2-0.3c2.1,0,3.6-0.8,4.6-2.7c0.6-1,1.3-2,1.8-3c0.3-0.6,0.3-1.2,0.6-2.1
		c0.4,0,1,0,1.7-0.1C36.5,35.8,36.6,36.4,36.5,37z"/>
</g>
</svg>
