<svg width="193px" height="112px" viewBox="0 0 193 112" version="1.1" xml:space="preserve" xmlns="http://www.w3.org/2000/svg" xmlns:xlink="http://www.w3.org/1999/xlink">
  <g>
    <title>Slice 1</title>
    <desc>Created with Sketch.</desc>
    <g id="Page-1" stroke="none" stroke-width="1" fill="none" fill-rule="evenodd">
      <g id="zebra-c-[animals,savanna,robert-hunter]">
        <g id="Group-6" transform="translate(14.000000, 34.000000)">
          <path d="M17.9209984,0.9962416 C17.9209984,1.1841611 18.2964848,6.5714362 16.7322086,20.5398658 C15.1671813,34.5082953 4.1023486,37.1955436 2.4637261,37.8126711 C0.9768,38.3726711 0.6959362,37.983302 1.2118545,40.5848591 C3.402442,51.4841879 2.5883875,74.284832 2.5883875,74.284832 C2.5883875,74.284832 10.7867572,71.403651 9.7857105,70.589584 C7.6574537,68.960698 7.4697105,66.217074 7.4697105,66.217074 C7.4697105,66.217074 7.4073798,58.1237584 7.4697105,51.2609396 C7.5320412,44.3981208 9.2840607,44.969396 9.2840607,44.969396 C9.2840607,44.969396 23.8033681,46.0969128 35.4434459,35.9808322 C49.336442,24.3606443 48.0853214,9.264698 48.0853214,9.264698 C48.0853214,9.264698 41.5526093,12.7825503 36.0014187,15.1029799 C28.768049,18.1277315 17.9209984,0.9962416 17.9209984,0.9962416" id="Fill-1" fill="#B1B6CC"/>
          <path d="M48.0853214,9.264698 C48.0853214,9.264698 49.336442,24.3606443 35.4434459,35.9808322 C23.8033681,46.0969128 9.2840607,44.969396 9.2840607,44.969396 C9.2840607,44.969396 7.5320412,44.3981208 7.4697105,51.2609396 C7.4073798,58.1237584 7.4697105,66.217074 7.4697105,66.217074 C7.4697105,66.217074 7.6574537,68.960698 9.7857105,70.589584 C10.7867572,71.403651 2.5883875,74.284832 2.5883875,74.284832 C2.5883875,74.284832 3.402442,51.4841879 1.2118545,40.5848591 C0.6959362,37.983302 0.9768,38.3726711 2.4637261,37.8126711 C4.1023486,37.1955436 15.1671813,34.5082953 16.7322086,20.5398658 C18.2964848,6.5714362 17.9209984,1.1841611 17.9209984,0.9962416" id="Stroke-3" stroke="#424763" stroke-width="0.5625"/>
          <path d="M3.7779284,77.322738 C3.7779284,77.322738 4.4808389,76.205745 4.0663019,73.741745 C4.4087455,73.610953 9.4883253,71.236403 9.4883253,71.236403 L13.1020062,73.908617 L14.7916949,77.322738 L3.7779284,77.322738 Z" id="Fill-5" fill="#313753"/>
          <path d="M25.6808,14.0878389 C25.6808,14.0878389 31.8733214,29.4949799 38.5674926,33.0579329 C38.8228233,33.1932349 36.1741424,35.353557 36.1741424,35.353557 C36.1741424,35.353557 30.1243058,30.4992215 25.6808,14.0878389" id="Fill-7" fill="#424763"/>
          <path d="M17.8000167,8.1929557 C17.8000167,8.1929557 24.9259973,25.5875329 29.1855148,31.0003651 C32.4394798,35.1360966 22.4890907,26.0520698 17.4831062,13.7749154" id="Fill-9" fill="#424763"/>
          <path d="M17.0989086,17.0798174 C17.0989086,17.0798174 24.1933482,35.819898 29.825644,39.9541262 L26.1819241,41.9002201 C26.1819241,41.9002201 18.3447724,28.7473611 16.7804961,20.1030658 C16.9825078,18.0344483 17.0989086,17.0798174 17.0989086,17.0798174" id="Fill-11" fill="#424763"/>
          <path d="M15.5793903,25.7299758 C15.5793903,25.7299758 17.5259117,41.0228617 21.5714019,43.4109423 L18.1019078,44.2483114 C18.1019078,44.2483114 14.1683125,39.3436134 13.4804214,30.0002577 C13.8529039,29.1839356 15.5793903,25.7299758 15.5793903,25.7299758" id="Fill-13" fill="#424763"/>
          <path d="M9.9880977,33.8872591 C9.9880977,33.8872591 12.6059887,43.3576483 14.1079342,44.8309369 L11.3481093,44.9978094 C11.3481093,44.9978094 8.408051,40.5847087 8.1196774,35.3537826 C8.0986502,34.9764403 9.9880977,33.8872591 9.9880977,33.8872591" id="Fill-15" fill="#424763"/>
          <path d="M4.0096786,37.2774765 C4.2559977,37.2353826 8.1197525,44.5304161 8.7911222,45.1054497 C8.7911222,45.1054497 7.5910677,46.5125906 7.7788109,47.389047 C7.9665541,48.266255 1.2115541,40.5841074 1.2115541,40.5841074 C1.2115541,40.5841074 0.7346864,38.9770201 1.0455891,38.5169933 C1.3917875,38.006604 2.7976086,37.4826846 4.0096786,37.2774765" id="Fill-17" fill="#424763"/>
          <path d="M7.4697105,51.2610148 L2.328551,50.1056859 C2.328551,50.1056859 2.3383136,53.8016859 2.5260568,53.7392966 C2.7138,53.6761557 7.4509362,54.1143839 7.4509362,54.1143839 L7.4697105,51.2610148 Z" id="Fill-19" fill="#424763"/>
          <polygon id="Fill-21" fill="#424763" points="7.4697105 57.3093154 2.6356988 56.8748456 2.7100451 60.5685906 7.4449284 60.817396"/>
          <path d="M7.4624261,65.1395436 L2.7350525,65.3898523 L2.6351732,70.589208 C2.6351732,70.589208 6.776037,69.555651 8.1195272,68.835544 C8.4341848,68.666416 7.2746829,66.956349 7.4624261,65.1395436" id="Fill-23" fill="#424763"/>
        </g>
        <g id="Group-5" transform="translate(0.000000, 34.000000)">
          <path d="M16.2671965,21.170749 C30.535679,16.3630174 32.6489163,0.3778362 32.6489163,0.3778362" id="Stroke-25" stroke="#424763" stroke-width="1.5"/>
          <path d="M17.9143802,20.894357 C17.9143802,20.894357 17.7206292,21.0589745 17.3714268,21.3258201 C17.1836837,21.4641289 16.9794191,21.6279946 16.7248393,21.8031356 C16.483777,21.9888 16.1766292,22.1714577 15.9002712,22.4059812 C15.6261661,22.6299812 15.2912323,22.8923168 15.0051117,23.1050416 C14.6859482,23.3929342 14.3540183,23.7026255 13.9920494,23.9987866 C13.6683802,24.3092295 13.3619833,24.6444779 13.0232946,24.9571758 C12.6958704,25.302196 12.3624385,25.6524779 12.0305086,26.0027597 C11.3696525,26.7303839 10.7095475,27.4572564 10.0899949,28.1397799 C9.79185875,28.4893101 9.50724008,28.8132832 9.22412335,29.1244779 C8.93650078,29.4311624 8.70520117,29.7468671 8.47014669,30.0287463 C8.25161362,30.3203973 8.00229066,30.5654443 7.83632568,30.8127463 C7.67336459,31.0608 7.51566031,31.2735248 7.38724397,31.4524242 C7.12815837,31.8079678 6.96219339,32.0131758 6.96219339,32.0131758 C6.96219339,32.0131758 7.00800272,31.7658738 7.11464086,31.3299007 C7.17021284,31.1134174 7.23629844,30.8458201 7.32866809,30.542894 C7.41578093,30.2369611 7.57648911,29.9265181 7.7364463,29.5739812 C7.90166031,29.2252027 8.06687432,28.8313235 8.3154463,28.4675114 C8.54824786,28.0954309 8.78855914,27.6827597 9.06867198,27.299404 C9.35028677,26.9258201 9.62589377,26.5281826 9.93304163,26.1455785 C10.2627187,25.7389208 10.5916447,25.3705987 10.9280805,24.9819812 C11.2915514,24.6181691 11.6467615,24.2505987 12.017742,23.9048268 C12.4112518,23.5643168 12.817528,23.2456054 13.1990222,22.9449342 C13.5812673,22.6773369 13.9695202,22.4413101 14.3322401,22.2120483 C14.7708082,21.9692564 15.1320261,21.8174174 15.493244,21.6490416 C15.8424463,21.4686389 16.1751272,21.3957262 16.4672556,21.2927463 C16.7556292,21.1965315 17.0237265,21.1213638 17.2272401,21.0657396 C17.6605514,20.9492295 17.9143802,20.894357 17.9143802,20.894357" id="Fill-27" fill="#424763"/>
          <path d="M3.84460506,27.9916242 C3.84460506,27.9916242 3.86863619,27.9397584 3.91444553,27.8427919 C3.96250778,27.7465772 4.01582685,27.6015034 4.11946109,27.4248591 C4.22685019,27.2624966 4.35376459,27.0617987 4.51146887,26.8453154 C4.66541829,26.6258255 4.8967179,26.3950604 5.14078405,26.141745 C5.38710311,25.8959463 5.65520039,25.6584161 5.95183463,25.4126174 C6.09752335,25.2938523 6.24696693,25.1713289 6.40016537,25.0465503 L6.51581518,24.9518389 L6.54435214,24.9285369 L6.60292802,24.8902013 L6.66450778,24.8481074 L6.91533268,24.6774765 C7.60397471,24.2242148 8.28060117,23.7093154 9.10216537,23.3222013 C9.92222763,22.9493691 10.7452938,22.5291812 11.5428268,22.3066846 C11.9370875,22.1728859 12.3260914,22.0706577 12.6925661,21.9684295 C13.0590409,21.864698 13.4059903,21.7722416 13.7356673,21.7218792 C15.0423599,21.4798389 15.9427763,21.4497718 15.9427763,21.4497718 C15.9427763,21.4497718 15.1903016,21.9639195 14.018784,22.5374497 C13.4352782,22.8321074 12.7751732,23.2004295 12.0444767,23.5311678 C11.6704922,23.6860134 11.316784,23.8919732 10.9533132,24.0798926 C10.5883405,24.2715705 10.2121031,24.4512215 9.83661673,24.6323758 C9.45587354,24.7872215 9.08264008,25.026255 8.70640272,25.2277047 C8.33316926,25.4389262 7.9516751,25.6215839 7.58970623,25.8117584 C6.8845428,26.1823356 6.22593969,26.5288591 5.66120817,26.8250201 C5.40287354,26.9873826 5.1392821,27.0971275 4.91549222,27.2504698 C4.69620817,27.4060671 4.49344553,27.530094 4.32973346,27.6353289 C4.02108366,27.8623356 3.84460506,27.9916242 3.84460506,27.9916242" id="Fill-29" fill="#424763"/>
          <path d="M3.84460506,22.1368054 C3.84460506,22.1368054 4.58431323,21.6264161 5.75658171,21.0498792 C6.0381965,20.8867651 6.39190467,20.7897987 6.75988132,20.6785503 C7.12935992,20.5680537 7.5213677,20.4432752 7.93440272,20.3448054 C8.14842996,20.2914362 8.33316926,20.2380671 8.58249222,20.1839463 C8.78750778,20.1478658 8.99552724,20.1140403 9.20655058,20.0869799 C9.62709533,20.0253423 10.0559008,19.9772349 10.4839553,19.9268725 C10.9105078,19.8810201 11.3655973,19.8787651 11.7989086,19.8667383 C12.2352237,19.8524564 12.6662821,19.8659866 13.0800681,19.872 C13.9038852,19.9306309 14.6698774,20.0118121 15.3202198,20.119302 C16.6224066,20.3861477 17.4559864,20.6965906 17.4559864,20.6965906 C17.4559864,20.6958389 16.5675856,20.8897718 15.287177,20.9822282 C14.6450953,21.0694228 13.9016323,21.1498523 13.1078541,21.1957047 C12.7135934,21.2295302 12.30957,21.2949262 11.898037,21.3219866 C11.4835,21.3663356 11.0734689,21.3670872 10.6439125,21.4212081 C10.2136051,21.463302 9.78479961,21.5068993 9.36125097,21.5354631 C9.14872568,21.5535034 8.93845331,21.5640268 8.73043385,21.5722953 C8.54043774,21.596349 8.35269455,21.6204027 8.16795525,21.6437047 C7.78796304,21.7000805 7.41247665,21.7256376 7.05351167,21.7572081 C6.69755058,21.799302 6.34985019,21.7872752 6.02768288,21.8654497 C4.74276848,22.1037315 3.84460506,22.1368054 3.84460506,22.1368054" id="Fill-34" fill="#424763"/>
          <path d="M0.000976264591,25.5824213 C0.000976264591,25.5891864 0.0655599222,25.6282736 0.190972374,25.5741528 C0.316384825,25.5313072 0.48910856,25.431334 0.70914358,25.3140723 C1.14846265,25.0675219 1.76125642,24.6856696 2.50396848,24.2444347 C2.68945875,24.1324347 2.88320973,24.0159246 3.08296848,23.8949045 C3.30225253,23.7708776 3.44944319,23.6656427 3.77161051,23.5235756 C4.22820195,23.326636 4.70807354,23.1116562 5.21272724,22.9177233 C5.71738093,22.7207837 6.23329922,22.5020454 6.76724086,22.3081125 C7.28691401,22.0886226 7.87943152,21.9691058 8.44115914,21.802985 C9.01340039,21.6586629 9.58489066,21.513589 10.1481202,21.3715219 C10.4409996,21.3016159 10.6835638,21.2377233 11.0147428,21.1798441 C11.2918518,21.1422602 11.5644549,21.1061797 11.8333031,21.0700991 C12.1014004,21.0370253 12.3642409,20.993428 12.6255794,20.970126 C12.8936767,20.9573474 13.1565171,20.9445689 13.4110969,20.9317904 C13.9210074,20.902475 14.4061358,20.8919515 14.8349412,20.8942065 C15.2682525,20.8881931 15.6670191,20.8987166 16.0222292,20.9077367 C16.3729335,20.9017233 16.6808323,20.9099917 16.936163,20.9145018 C17.4453226,20.9265287 17.7427078,20.946824 17.7427078,20.946824 C17.7427078,20.946824 17.4701047,21.0513072 16.9797195,21.2099112 C16.4908362,21.3752803 15.7834198,21.5774817 14.9310658,21.7526226 C14.4992564,21.8458307 14.0524276,21.9518172 13.5770619,22.0420186 C13.1062019,22.1269582 12.6053031,22.2472266 12.0721125,22.3720052 C11.809272,22.4328911 11.5404237,22.493777 11.2685716,22.5561662 C11.0162447,22.6320857 10.7594121,22.7087568 10.5010774,22.7869313 C9.96638482,22.9357635 9.42268054,23.0883541 8.87897626,23.2401931 C8.33226809,23.3935354 7.78480895,23.4927568 7.24335759,23.6844347 C6.70340817,23.861079 6.16270778,24.0084078 5.64453658,24.1655085 C5.12711634,24.3256159 4.61720584,24.4526495 4.13733424,24.5804347 C3.9923965,24.6074951 3.71453658,24.7352803 3.50877004,24.801428 C3.2864821,24.8780991 3.07095292,24.9525152 2.86443541,25.0239246 C2.03536148,25.3095622 1.32193735,25.4997367 0.809022957,25.5936964 C0.553692218,25.6448105 0.345672763,25.6583407 0.202236965,25.6545823 C0.0490385214,25.657589 -0.00878638132,25.5831729 0.000976264591,25.5824213" id="Fill-31" fill="#424763"/>
        </g>
        <g id="Group-4" transform="translate(103.000000, 55.000000)">
          <g id="Group-39" transform="translate(0.634241, 0.792537)">
            <path d="M23.0875311,2.12987919 C23.0875311,2.12987919 19.7584689,4.57283221 18.6883327,7.51715436 C17.6181965,10.4607248 11.5788735,26.5902282 11.5788735,26.5902282 C11.5788735,26.5902282 11.7756284,27.946255 12.1038035,29.1932886 C12.4102004,30.3576376 10.9082549,32.6983624 9.4513677,35.3292349 C7.99372957,37.9601074 6.94011479,41.717745 6.89956226,43.7224698 C6.8597607,45.7271946 7.82025486,47.0426309 7.82025486,47.0426309 C7.77820039,49.4976107 8.03878794,49.7749799 8.119893,51.2084295 C8.15819261,51.8781745 2.33139494,51.7361074 1.71334436,51.6609396 C0.802414397,51.550443 2.46807198,50.6604564 2.01899027,49.6577181 C1.57065953,48.6557315 -0.11827821,47.7048591 1.13434436,45.637745 C2.38696693,43.5706309 3.34971401,42.4701745 4.26665175,39.0876242 C5.18434047,35.7050738 4.98533268,30.6154631 4.66692023,30.114094 C4.34850778,29.6134765 5.93230934,28.3130738 6.46174514,25.995651 C6.99118093,23.6782282 8.69138327,11.0876242 7.66330156,5.82587919 C7.66330156,5.82587919 11.8627412,3.57084564 12.199177,0.0627651007" id="Fill-36" fill="#B1B6CC"/>
            <path d="M23.0875311,2.12987919 C23.0875311,2.12987919 19.7584689,4.57283221 18.6883327,7.51715436 C17.6181965,10.4607248 11.5788735,26.5902282 11.5788735,26.5902282 C11.5788735,26.5902282 11.7756284,27.946255 12.1038035,29.1932886 C12.4102004,30.3576376 10.9082549,32.6983624 9.4513677,35.3292349 C7.99372957,37.9601074 6.94011479,41.717745 6.89956226,43.7224698 C6.8597607,45.7271946 7.82025486,47.0426309 7.82025486,47.0426309 C7.77820039,49.4976107 8.03878794,49.7749799 8.119893,51.2084295 C8.15819261,51.8781745 2.33139494,51.7361074 1.71334436,51.6609396 C0.802414397,51.550443 2.46807198,50.6604564 2.01899027,49.6577181 C1.57065953,48.6557315 -0.11827821,47.7048591 1.13434436,45.637745 C2.38696693,43.5706309 3.34971401,42.4701745 4.26665175,39.0876242 C5.18434047,35.7050738 4.98533268,30.6154631 4.66692023,30.114094 C4.34850778,29.6134765 5.93230934,28.3130738 6.46174514,25.995651 C6.99118093,23.6782282 8.69138327,11.0876242 7.66330156,5.82587919 C7.66330156,5.82587919 11.8627412,3.57084564 12.199177,0.0627651007" id="Stroke-38" stroke="#424763" stroke-width="0.5625"/>
          </g>
          <path d="M2.347661,52.453477 L1.440486,56.416322 L12.077264,56.416322 C12.077264,56.416322 9.718458,53.738846 9.543482,52.799248 C9.543482,52.799248 8.807528,52.502336 8.405007,52.251275" id="Fill-40" fill="#424763"/>
          <path d="M8.577656,8.1345503 C9.332383,8.0744161 18.763099,6.9235973 18.763099,6.9235973 L8.616706,11.7388456 L8.577656,8.1345503 Z" id="Fill-42" fill="#313753"/>
          <path d="M11.038143,12.9603221 C11.038143,12.9603221 17.340306,11.742604 18.055232,11.7388456 C18.366886,11.738094 17.162326,14.1359463 17.162326,14.1359463 L11.038143,12.9603221 Z" id="Fill-44" fill="#313753"/>
          <path d="M16.847893,14.9804564 C16.847893,14.9804564 9.45757,15.9907114 8.726123,16.3898523 C7.993925,16.7889933 8.352139,18.6448859 8.352139,18.6448859 L16.401065,16.1786309 L16.847893,14.9804564 Z" id="Fill-46" fill="#424763"/>
          <path d="M8.057006,21.1582711 C8.057006,21.1582711 13.614205,21.2755329 14.478574,20.899694 L13.530096,23.5072644 L7.693535,24.5874255 L8.057006,21.1582711 Z" id="Fill-48" fill="#424763"/>
          <path d="M6.635715,28.4636779 C6.635715,28.4636779 11.196373,28.6982013 12.189159,28.2291544 C12.189159,28.2291544 12.807209,30.2722148 12.580416,30.7660671 C12.580416,30.7660671 6.001894,32.3370738 5.75933,32.2927248 L5.478466,30.4841879 L6.635715,28.4636779 Z" id="Fill-50" fill="#424763"/>
          <path d="M5.745362,35.4302282 C5.745362,35.4302282 9.631646,35.7331544 10.470482,35.4324832 C10.69277,35.3385235 9.111222,37.7889933 9.111222,37.7889933 C9.111222,37.7889933 5.911327,38.0077315 5.552362,37.9603758 C5.194148,37.9137718 5.414183,36.2758658 5.745362,35.4302282" id="Fill-52" fill="#424763"/>
          <path d="M5.159453,40.3965638 C5.159453,40.3965638 7.380079,40.5837315 8.070974,40.3928054 C8.371363,40.2747919 7.599363,42.722255 7.599363,42.722255 C7.599363,42.722255 5.425297,43.2153557 4.279313,42.8162148 C3.823472,42.6515973 4.243266,42.2051007 4.243266,42.2051007 L4.838037,40.3928054 L5.159453,40.3965638 Z" id="Fill-54" fill="#424763"/>
          <path d="M2.67914,45.217149 C2.781272,45.193847 4.42365,45.992129 6.808739,45.282545 C8.230331,44.8593503 7.730183,46.621283 7.730183,46.621283 C7.730183,46.621283 4.37784,47.806679 2.097887,47.65484 C0.333101,47.537579 2.67914,45.217149 2.67914,45.217149" id="Fill-56" fill="#424763"/>
        </g>
        <g id="Group-3" transform="translate(31.000000, 0.000000)">
          <path d="M131.368046,26.007302 C131.368046,26.007302 128.522611,34.113396 132.371346,38.1063087 C135.059828,40.8965369 145.905377,46.1800805 148.358805,51.6583087 C148.667455,52.4077315 148.90326,53.0534228 149.01891,53.6788188 C149.149579,54.3861477 149.124797,55.0664161 148.874723,55.8398926 C148.874723,55.8398926 152.347972,58.846604 156.713377,56.6381745 C161.078782,54.4304966 162.956214,49.1326711 160.140066,41.7278926 C157.323918,34.3231141 157.238307,34.185557 155.540358,28.5915705 C153.969323,23.4155168 154.069202,22.1121074 150.83326,17.1119463 C150.83326,17.1119463 152.703182,15.4131544 155.448739,16.7676779 C155.448739,16.7676779 158.781556,4.91522148 147.238354,1.44322148 C136.793074,-1.69804027 109.292451,2.81127517 102.503657,6.48322148 C95.864307,10.0747383 95.265782,13.0213154 95.75842,14.3841074 C96.251058,15.7461477 99.782883,17.1119463 99.782883,17.1119463" id="Fill-58" fill="#D3D5DF"/>
          <path d="M142.386995,10.5391248 C142.386995,10.5391248 139.206625,8.62460134 131.603026,10.0655678 C125.08308,11.3005745 107.603438,14.7635544 103.848574,15.389702 C100.093711,16.0166013 95.462461,14.9514738 89.204605,15.389702 C82.946749,15.8286819 75.687096,17.0185879 71.181259,16.7682792 C66.6754226,16.5172188 58.0392358,16.7051383 54.284372,15.452843 C50.5295082,14.199796 34.8221619,9.31388993 26.1236444,11.1930846 C17.4243759,13.0722792 6.035123,22.4058631 3.9068661,25.4125745 C1.7786093,28.4192859 1.2161307,31.8010846 1.1538,34.1816483 C1.0907183,36.5622121 0.2774148,55.3541584 17.9876054,50.2179436 C31.1919595,46.5219436 28.1565276,46.4437691 32.1456949,50.1081987 C35.0219206,52.7495946 48.6670957,69.4165477 64.9864848,70.0118765 C81.622784,70.6192322 95.556333,71.4836617 107.318068,53.605004 C115.832598,40.834749 127.477181,36.5238765 130.650792,34.789004" id="Fill-60" fill="#D3D5DF"/>
          <path d="M146.202687,14.6557638 C146.202687,14.6557638 144.142769,16.6116295 143.517209,16.5492403 C142.891648,16.4860993 142.52217,12.6991463 145.95787,8.8505557 C149.295944,5.11246174 151.407679,3.22800537 151.407679,3.22800537 C151.407679,3.22800537 150.520781,9.50526711 146.202687,14.6557638" id="Fill-62" fill="#C0A1A7"/>
          <path d="M140.4223,44.0156242 C140.4223,44.0156242 142.987623,36.7183356 148.110759,35.4968591 C148.110759,35.4968591 143.229436,41.4163221 143.692786,46.4984161" id="Fill-64" fill="#424763"/>
          <path d="M146.641255,40.4143356 C146.566158,40.4789799 148.862633,36.4680268 152.555166,37.1573154 C156.246948,37.8458523 157.279535,40.4143356 157.279535,40.4143356 C157.279535,40.4143356 150.865477,36.749906 146.641255,40.4143356" id="Fill-66" fill="#424763"/>
          <path d="M144.207953,46.936043 C144.207953,46.936043 144.607471,43.3873718 146.42107,41.7614926 C147.923016,40.4152376 151.428556,40.6963651 153.39986,40.9977879 C154.206405,41.1218148 154.932595,42.1997208 153.618393,42.4500295 C152.304191,42.7010899 149.644245,41.9178416 148.110759,43.4835866 C146.578023,45.0500832 146.014794,46.8037477 145.984004,47.367506 C145.951712,47.9312644 150.55142,43.5775463 153.242907,45.1748617 C154.024669,45.8957208 147.962817,46.2076671 147.114218,49.9668081" id="Fill-68" fill="#424763"/>
          <path d="M159.28238,40.8345235 C159.28238,40.8345235 157.624232,38.2818255 156.184617,37.0776376 C154.745002,35.872698 152.459041,33.3365369 151.959644,31.6760805 C151.459496,30.0163758 155.151279,34.7143624 156.340819,35.9042685 C157.53036,37.0941745 158.287341,37.732349 158.287341,37.732349" id="Fill-70" fill="#424763"/>
          <path d="M155.861248,31.4756832 C155.861248,31.4756832 153.99433,29.8595758 153.055614,28.2622604 C152.5044,27.3249181 151.710622,24.1596027 151.710622,24.1596027 C151.710622,24.1596027 151.263042,27.2843275 152.26484,29.1319517 C153.266637,30.9803275 156.323096,34.8710121 157.583229,36.6878174" id="Fill-72" fill="#424763"/>
          <path d="M153.524672,35.7479195 C153.524672,35.7479195 150.958598,33.3673557 150.614652,32.2090201 C150.270707,31.0499329 149.863679,31.1935034 148.643349,31.325047 C147.423018,31.4573423 145.028917,31.3002416 144.208104,30.8935839 C143.386539,30.4861745 143.270139,29.9848054 142.154193,30.8935839 C141.039749,31.8016107 136.908648,35.1841611 137.066353,41.3231141 C137.082123,41.9815839 138.16052,42.7009396 138.16052,42.4679195 L139.367333,43.2819866 C139.367333,43.2819866 138.900979,38.941047 140.42245,35.4976107 C141.321364,33.4613154 142.822559,32.2142819 143.284407,32.2142819 C143.746255,32.2142819 144.388337,33.4928859 146.265769,33.117047 C148.143201,32.7412081 149.425862,32.0211007 149.613605,32.3653691 C149.801349,32.7096376 152.006956,35.4818255 153.524672,35.7479195" id="Fill-74" fill="#424763"/>
          <path d="M150.45845,24.002953 C150.45845,24.002953 147.320135,19.5552752 149.70222,15.8472483 C149.87194,15.5834094 151.279263,18.0917584 151.279263,18.0917584 C151.279263,18.0917584 149.301952,21.9065235 150.45845,24.002953" id="Fill-76" fill="#424763"/>
          <path d="M149.274842,15.1707383 C149.18097,15.1707383 146.234153,17.1281074 144.88841,22.3116779 C144.193009,24.987651 144.387511,24.5982819 144.043565,24.159302 C143.69962,23.7210738 142.760904,20.9022819 144.732207,17.8324295 C146.703511,14.7633289 147.407923,13.4411275 147.407923,13.4411275" id="Fill-78" fill="#424763"/>
          <path d="M133.312991,39.1241557 C133.406862,39.0925852 137.754244,33.586545 139.037656,30.7053638 C140.320318,27.8234309 141.509107,23.5328537 141.509107,21.8415785 C141.509107,20.1503034 139.507014,26.1952966 136.34617,30.7993235 C134.214909,33.9030013 131.65259,35.4973101 131.65259,35.4973101 C131.65259,35.4973101 136.644306,29.9228671 136.847068,24.9738201 C137.050582,20.0240215 135.407454,26.6613369 133.593104,29.1704376 C132.305185,30.9504107 130.845294,32.6469477 130.188193,33.3986255" id="Fill-80" fill="#424763"/>
          <path d="M133.312991,39.1241557 C133.312991,39.1241557 129.775158,35.9039678 130.401469,33.430196" id="Fill-82" fill="#424763"/>
          <path d="M140.206695,9.87779866 C140.206695,9.87779866 138.285707,11.3232752 138.441909,13.2340403 C138.598863,15.1440537 138.535781,19.4609396 137.409322,21.3093154 C136.56673,22.6924027 134.343851,24.8166443 134.343851,24.8166443 C134.343851,24.8166443 135.719633,21.6791409 135.719633,18.9573154 C135.719633,16.2354899 133.885007,11.377396 137.28466,9.54931544 C138.129505,9.09455034 139.89354,9.87779866 140.206695,9.87779866" id="Fill-84" fill="#424763"/>
          <path d="M135.595197,9.52834362 C135.501325,9.55991409 131.039796,14.5728537 130.651543,22.2489879 C130.26329,29.9251221 128.899524,23.3141154 128.899524,23.3141154 C128.899524,23.3141154 127.398329,17.5201826 130.589212,12.1637262 C132.528975,8.90670604 133.630652,9.71551141 133.630652,9.71551141 L135.595197,9.52834362 Z" id="Fill-86" fill="#424763"/>
          <path d="M127.110106,10.884145 C127.110106,10.884145 126.521343,21.9984537 127.084573,26.7588295 C127.647802,31.519957 127.52239,31.676306 126.834499,29.5152322 C126.145857,27.3541584 124.174553,19.1165208 124.112223,14.356145 C124.049141,9.59576913 124.112223,11.4659436 124.112223,11.4659436 L127.110106,10.884145" id="Fill-88" fill="#424763"/>
          <path d="M122.104121,11.8571919 C122.104121,11.8571919 122.516405,27.2598228 127.598238,36.1829906 L123.156985,38.5605477 C123.156985,38.5605477 119.606386,31.5511517 118.479927,22.7189369 C117.353468,13.8867221 117.960254,12.8215946 117.960254,12.8215946 L122.104121,11.8571919 Z" id="Fill-90" fill="#424763"/>
          <path d="M114.724913,13.2919195 C114.724913,13.2919195 114.192473,31.3254228 119.772201,40.7251544 C119.380944,41.2513289 116.82238,42.9365906 116.82238,42.9365906 C116.82238,42.9365906 111.053407,29.6213691 112.398399,13.7421745 C113.786197,13.4407517 114.00473,13.0769396 114.474088,13.2340403" id="Fill-92" fill="#424763"/>
          <path d="M114.999243,44.4864752 C114.999243,44.4864752 110.060846,31.8500188 108.715103,18.0432 C108.715854,14.7538577 107.467737,26.5431732 108.154126,34.7454819 C108.631745,40.4567302 110.198274,46.5002201 111.037862,48.4681128" id="Fill-94" fill="#424763"/>
          <path d="M106.432672,15.1707383 C106.432672,15.1707383 103.804267,35.1210201 104.774524,47.3357852 C105.040368,50.6867651 102.967683,45.4994362 102.216711,40.0497718 C101.465738,34.6001074 100.98887,29.5653691 101.207403,15.5886711" id="Fill-96" fill="#424763"/>
          <path d="M102.388909,59.6672107 C102.388909,59.6672107 97.765169,50.2178685 97.483554,32.0520698 C97.671298,28.1997208 96.263224,42.3560698 96.764123,50.6245262 C97.265021,58.8929826 97.680309,61.7959624 98.211998,63.5188081" id="Fill-98" fill="#424763"/>
          <path d="M97.921897,15.6717315 C97.921897,15.6717315 93.547481,28.2931544 90.699792,53.0616913 C90.856746,56.5750336 90.304781,38.3889396 90.987415,32.9731007 C91.580683,28.2593289 93.196777,16.7052886 94.041621,15.4838121 C94.448648,14.8576644 97.921897,15.6717315 97.921897,15.6717315" id="Fill-100" fill="#424763"/>
          <path d="M92.852831,15.6092671 C92.25731,16.141455 89.097967,23.846153 87.314407,33.5871463 C85.530847,43.3273879 83.653415,56.1059114 83.653415,56.1059114 C82.057598,48.3959517 82.496917,44.9998711 82.620827,39.6945289 C82.80857,31.6448107 85.061489,21.1168107 86.845049,17.7440322 C88.346995,15.217643 88.334979,15.4371329 88.500944,15.4243544 C88.665407,15.4115758 92.852831,15.2845423 92.852831,15.2845423 C92.852831,15.2845423 93.446851,15.0770792 92.852831,15.6092671" id="Fill-102" fill="#424763"/>
          <path d="M84.810664,15.8156027 C84.810664,15.8156027 82.471384,19.5243812 80.197438,29.9539114 C77.985823,40.1030658 78.239652,61.4770255 78.239652,61.6183409 C78.239652,61.7589047 75.633026,55.5147168 75.611247,43.6720322 C75.586465,29.9065557 79.553854,19.284596 80.539882,17.4783141 C81.525158,15.6720322 81.846574,16.0696698 81.846574,16.0696698 L84.247434,15.8156027 L84.810664,15.8156027 Z" id="Fill-104" fill="#424763"/>
          <path d="M78.192716,16.4692617 C78.192716,16.4692617 71.903319,31.7831946 69.415347,62.8395168 C69.019584,67.783302 65.848977,50.8592752 68.195016,36.8592752 C70.541806,22.8592752 72.137623,19.065557 72.935907,17.7441074 C73.734191,16.4234094 75.142265,16.6977718 75.142265,16.6977718 L77.958413,16.4692617 L78.192716,16.4692617 Z" id="Fill-106" fill="#424763"/>
          <path d="M71.718505,16.7959409 C71.626135,16.9365047 67.6790226,20.3694174 64.910186,33.8996188 C62.1405984,47.4298201 60.3570381,64.1546523 60.3570381,64.1546523 C60.3570381,64.1546523 58.6207891,56.9671087 59.0901471,46.4902228 C59.5595051,36.0140886 61.2491938,25.8190819 65.0506179,18.2083436 C66.3287735,15.6496322 66.4158864,16.6200483 66.4158864,16.6200483 L71.526256,16.7914309 L71.718505,16.7959409 Z" id="Fill-108" fill="#424763"/>
          <path d="M59.9831288,16.3616966 C59.9831288,16.3616966 48.5766035,54.1011866 48.9986502,60.2085691 C49.3778914,65.6928107 46.4768837,53.9771597 49.1863934,37.5642738 C51.9559809,20.7928376 56.2109926,15.9542872 56.2109926,15.9542872" id="Fill-110" fill="#424763"/>
          <path d="M49.911007,16.4394953 C49.2899525,17.5579919 46.9221354,23.9292134 45.5253261,29.2022336 C41.8177735,43.2022336 42.4275634,56.8729987 42.4275634,56.8729987 C42.4275634,56.8729987 40.8790576,52.3163275 40.9729292,43.2488376 C41.0668008,34.1820993 41.9018825,27.5154685 45.9849214,16.6161396 C47.2150148,13.7725423 48.4954233,13.7725423 48.4954233,13.7725423 L51.2514934,14.5670658 L52.2975984,14.8880322 C52.2975984,14.8880322 50.5320615,15.3209987 49.911007,16.4394953" id="Fill-112" fill="#424763"/>
          <path d="M41.9113447,12.5710604 C41.7236016,12.6176644 32.6646171,34.134443 34.1200023,47.6646443 C34.1200023,47.6646443 31.8978739,33.8713557 34.4481774,22.8592752 C36.7018467,13.1348188 38.0761268,11.4540671 38.0761268,11.4540671 L41.9113447,12.1666577 L41.9113447,12.5710604 Z" id="Fill-114" fill="#424763"/>
          <path d="M57.1185432,68.0542819 C57.0719829,67.7724027 55.2058156,52.2134228 56.1948467,41.073557 C57.1358156,30.4703893 52.5158311,55.3381477 53.1729323,67.0357584 L53.5904732,67.2266846 L57.1358156,68.6075168 L57.1185432,68.0542819 Z" id="Fill-116" fill="#424763"/>
          <path d="M67.3374051,70.2557208 C67.3374051,70.2557208 64.3455296,56.6668886 64.4874634,50.4835866 C64.6286463,44.376204 62.3869926,59.787855 63.5134518,69.935506" id="Fill-118" fill="#424763"/>
          <path d="M75.611247,70.2557208 C75.611247,70.2557208 73.686504,55.1267007 74.156613,46.5801235 C74.625971,38.034298 72.481193,62.1526336 72.466174,70.2444456 C72.465423,70.6383248 74.813714,70.2527141 74.813714,70.2527141" id="Fill-120" fill="#424763"/>
          <path d="M156.00934,12.4201987 C156.00934,12.4201987 152.105784,11.8714738 149.5705,14.6519302 C149.436826,14.7338631 148.290091,13.4409772 148.290091,13.4409772 C148.290091,13.4409772 149.935472,10.0246013 155.253861,8.49418523 C155.253861,8.49418523 156.149772,10.5575409 156.00934,12.4201987" id="Fill-122" fill="#424763"/>
          <path d="M140.206695,9.40724832 C140.206695,9.40724832 141.791999,4.04026846 141.608761,0.495355705 C141.59224,0.229261745 145.431213,1.02378523 145.431213,1.02378523 C145.431213,1.02378523 145.412439,5.66389262 141.371454,9.78383893" id="Fill-124" fill="#424763"/>
          <path d="M136.38139,0.440708725 C136.38139,0.440708725 136.91383,6.44586309 136.148589,9.12634631 L138.144674,9.12634631 C138.144674,9.12634631 140.206846,4.49826577 139.873414,0.95335302 L139.774285,0.440708725" id="Fill-126" fill="#424763"/>
          <path d="M135.0569,0.440708725 C135.0569,0.440708725 135.26567,6.29853423 134.502682,9.20903087 L132.157394,9.40747383 C132.157394,9.40747383 132.091308,2.50105772 131.458989,0.636896644 C131.326818,0.336977181 134.086643,0.440708725 134.086643,0.440708725 L135.0569,0.440708725 Z" id="Fill-128" fill="#424763"/>
          <path d="M129.74587,0.721084564 C129.74587,0.721084564 130.909127,4.63281611 129.978672,9.78406443 L128.349061,10.0742121 C128.349061,10.0742121 127.716742,3.23319195 126.336454,1.03603758 C126.037567,0.40387651 127.018337,0.919527517 127.018337,0.919527517 L129.74587,0.721084564 Z" id="Fill-130" fill="#424763"/>
          <path d="M124.873333,1.23605906 C124.873333,1.23605906 125.25633,8.97157584 125.82782,10.441106 C125.788769,10.5237906 123.426209,10.956757 123.426209,10.956757 C123.426209,10.956757 122.095485,9.95852886 120.748991,1.90204564 C120.707688,1.53522685 121.345263,1.56905235 121.345263,1.56905235 L124.873333,1.23605906 Z" id="Fill-132" fill="#424763"/>
          <path d="M118.409411,2.03358926 C118.409411,2.03358926 119.418718,9.54209933 119.966928,11.5731329 L117.689228,12.072247 C117.689228,12.072247 115.24406,8.2770255 114.83478,2.70258255 L115.340936,2.60035436 L118.409411,2.03358926 Z" id="Fill-134" fill="#424763"/>
          <path d="M112.466888,3.44997584 C112.466888,3.44997584 112.629098,5.78318389 112.849133,6.87011007 C113.03988,7.81421745 113.481452,9.6588349 113.963577,10.5413047 C114.399141,11.3380832 114.999168,12.5054389 114.999168,12.5054389 L112.068121,13.1962309 C112.068121,13.1962309 110.138121,10.6578148 109.107036,6.82951946 C108.646689,5.11569396 108.458946,4.4489557 108.458946,4.4489557 L112.432343,3.22823087 L112.466888,3.44997584 Z" id="Fill-136" fill="#424763"/>
          <path d="M107.344277,5.39779866 C107.344277,5.39779866 109.306569,10.6242148 109.240484,13.7872752 L107.094954,14.202953 C107.094954,14.202953 105.74846,9.72520805 103.519573,6.09685906 C103.376137,5.91344966 103.951382,5.91344966 103.951382,5.91344966 L107.111476,4.81524832 L107.344277,5.39779866 Z" id="Fill-138" fill="#424763"/>
          <path d="M102.255386,7.05306846 C102.255386,7.05306846 104.500043,10.0086658 104.716323,14.4360483 C104.716323,14.4360483 103.685238,14.9186255 103.103985,14.9186255 C103.103985,14.9186255 101.124421,10.1650148 99.594689,8.70525638 L99.194421,8.4090953 L102.014323,6.72082685 L102.255386,7.05306846 Z" id="Fill-140" fill="#424763"/>
          <path d="M98.038523,9.52834362 C98.09034,9.52157852 98.806768,12.4719141 99.994056,15.0185987 L98.447053,15.0185987 C98.447053,15.0185987 96.867006,12.7049342 96.218916,12.2554309 C95.570827,11.8059275 97.389683,9.61177987 98.038523,9.52834362" id="Fill-142" fill="#424763"/>
          <path d="M153.848867,5.87857181 C153.848867,5.87857181 152.142656,3.84227651 151.755154,3.71298792 C151.367653,3.58369933 150.88703,5.87857181 150.88703,5.87857181 L150.171353,8.08249128 C150.171353,8.08249128 149.548796,9.6429745 149.572828,9.57306846" id="Fill-144" fill="#424763"/>
          <path d="M147.87623,1.76569128 C147.87623,1.76569128 148.330568,4.27103356 146.577798,6.43210738 L151.132448,3.04955705" id="Fill-146" fill="#424763"/>
          <path d="M153.282708,4.97791141 C153.3533,4.98693154 155.227728,3.15208591 155.227728,3.15208591 L154.546595,6.9059651 L153.282708,4.97791141 Z" id="Fill-148" fill="#D3D5DF"/>
          <path d="M153.160975,4.82524564 C154.693711,3.50905772 155.371088,3.04978255 155.371088,3.04978255 C155.371088,3.04978255 154.942283,4.8538094 154.54652,6.90588993" id="Stroke-150" stroke="#424763" stroke-width="0.5625"/>
          <path d="M148.643349,55.8395168 C148.643349,55.8395168 149.375547,53.7265503 149.319224,53.099651 C149.263652,52.4735034 149.662419,50.880698 150.225648,50.7551678 C150.788878,50.6303893 153.900158,51.5015839 154.737493,48.6677584 C155.085944,47.4891275 155.71601,45.1596779 155.903753,43.9013691 C156.091496,42.6423087 156.265722,42.1244027 157.053493,41.2629799 C157.841263,40.401557 159.497158,40.7616107 159.680395,41.1351946 C163.162656,48.2129933 160.267656,53.613047 158.384216,55.3381477 C155.15203,58.298255 152.184936,57.9066309 148.643349,55.8395168" id="Fill-152" fill="#C0A1A7"/>
          <path d="M131.136296,26.007302 C131.136296,26.007302 128.29086,34.113396 132.139596,38.1063087 C134.828078,40.8965369 145.672876,46.1800805 148.127055,51.6583087 C148.434954,52.4077315 148.67151,53.0534228 148.786409,53.6788188 C148.917078,54.3861477 148.893047,55.0664161 148.642973,55.8398926 C148.642973,55.8398926 152.116222,58.846604 156.481627,56.6381745 C160.847032,54.4304966 162.724463,49.1326711 159.908316,41.7278926 C157.092168,34.3231141 156.200012,34.3697181 155.308607,28.5915705 C154.416452,22.8126711 151.855635,18.0725906 147.537541,13.2340403" id="Stroke-154" stroke="#424763" stroke-width="0.5625"/>
          <path d="M159.680621,41.1348188 C159.680621,41.1348188 158.018718,40.2538523 156.763091,41.5106577 C155.871687,42.4028993 156.10599,43.4838121 155.542761,45.7854497 C154.979531,48.0878389 154.627325,50.0376913 152.937636,50.6480537 C151.247947,51.2591678 150.145519,50.2023087 149.58229,51.1885101 C149.01906,52.1754631 149.707702,53.3495839 148.862858,54.5710604" id="Stroke-156" stroke="#424763" stroke-width="0.5"/>
          <path d="M157.091792,54.5710604 C157.091792,54.5710604 157.701582,53.5608054 157.091792,52.3160268 C156.771878,51.5831409 156.599154,50.9066309 157.091792,50.554094 C157.58443,50.2023087 158.758201,51.2118121 158.264812,52.8091275 C157.748893,54.1719195 157.091792,54.5710604 157.091792,54.5710604 Z" id="Stroke-158" stroke="#424763" stroke-width="0.5"/>
          <path d="M151.248323,29.648204 C151.248323,29.648204 151.362471,26.1656805 148.432175,25.8898148 C145.682864,25.6312376 144.207953,25.4433181 144.207953,25.4433181 C144.207953,25.4433181 144.982206,26.0311302 145.055802,27.3894121 C145.13916,28.9145664 146.367,29.2956671 148.619918,29.2257611 C150.872837,29.1551034 151.248323,29.648204 151.248323,29.648204" id="Fill-160" fill="#EDEEF4"/>
          <path d="M151.248323,29.648204 C151.248323,29.648204 151.362471,26.1656805 148.432175,25.8898148 C145.682864,25.6312376 144.207953,25.4433181 144.207953,25.4433181 C144.207953,25.4433181 144.982206,26.0311302 145.055802,27.3894121 C145.13916,28.9145664 146.367,29.2956671 148.619918,29.2257611 C150.872837,29.1551034 151.248323,29.648204 151.248323,29.648204 Z" id="Stroke-162" stroke="#424763" stroke-width="0.5"/>
          <path d="M147.728138,26.007302 C147.728138,26.007302 146.789422,26.3831409 146.812702,27.416698 C146.836733,28.450255 147.306091,28.8441342 147.728138,29.1079732 C148.150185,29.3718121 148.862858,29.3597852 148.862858,29.3597852 C148.862858,29.3597852 151.130796,29.3191946 151.247947,29.6484295 C151.36585,29.9769128 151.281741,26.4259866 148.613535,25.9231141 C147.911375,25.7990872 147.728138,26.007302 147.728138,26.007302" id="Fill-164" fill="#424763"/>
          <path d="M141.164411,16.7680537 C141.164411,16.7680537 139.162318,14.6385503 140.945878,11.9452886 C142.729438,9.25127517 151.710321,2.79962416 151.710321,2.79962416 C151.710321,2.79962416 150.208376,8.18614765 149.26966,10.1284832 C148.330944,12.0700671 147.141403,13.8868725 146.672045,14.5445906" id="Stroke-166" stroke="#424763" stroke-width="0.5625"/>
          <path d="M143.386539,16.298255 C143.386539,16.298255 140.351858,13.1975839 151.710321,2.79962416" id="Fill-168" fill="#C0A1A7"/>
          <path d="M142.154493,10.5391248 C142.154493,10.5391248 138.974875,8.62460134 131.371275,10.0655678 C124.85133,11.3005745 107.370937,14.7635544 103.616073,15.389702 C99.861209,16.0166013 95.230711,14.9514738 88.972104,15.389702 C82.714999,15.8286819 75.454595,17.0185879 70.948758,16.7682792 C66.4429214,16.5172188 57.8067346,16.7051383 54.0518708,15.452843 C50.297007,14.199796 34.5896607,9.31388993 25.8911432,11.1930846 C17.1926257,13.0722792 5.8026218,22.4058631 3.675116,25.4125745 C1.5468591,28.4192859 0.9836296,31.8010846 0.9212988,34.1816483 C0.8589681,36.5622121 7.5441276,52.4910174 17.7558553,50.2179436 C30.9594584,46.5219436 27.9247774,46.4437691 31.9139447,50.1081987 C34.7894195,52.7495946 48.4353455,69.4165477 64.7539837,70.0118765 C81.390283,70.6192322 95.324583,71.4836617 107.085567,53.605004 C115.600847,40.834749 127.24468,36.5238765 130.419042,34.789004" id="Stroke-170" stroke="#424763" stroke-width="0.5625"/>
          <path d="M150.633727,17.1281074 C150.633727,17.1281074 152.961742,15.2023087 155.448964,16.7680537 C155.448964,16.7680537 157.795754,10.269047 152.961742,4.58485906 C148.12698,-1.10008054 131.688186,0.300295302 127.229661,0.817449664 C122.770384,1.33385235 102.76447,3.46711409 97.220038,10.2359732 C94.11026,14.032698 96.545665,15.4225503 96.545665,15.4225503" id="Stroke-172" stroke="#424763" stroke-width="0.5625"/>
        </g>
        <g id="Group-2" transform="translate(30.000000, 33.000000)">
          <path d="M38.9108377,14.6650201 C38.9108377,14.6650201 39.8916082,26.3182819 32.7731374,35.3827651 C24.8120751,45.4995973 11.3786743,45.969396 11.3786743,45.969396 C11.3786743,45.969396 9.4186354,45.3981208 11.8517872,52.2609396 C14.2849389,59.1237584 17.2895809,67.217074 17.2895809,67.217074 C17.2895809,67.217074 18.4753669,69.960698 21.1953903,71.589584 C22.4930712,72.403651 15.3423086,75.284832 15.3423086,75.284832 C15.3423086,75.284832 7.8656237,52.4841879 1.7114019,41.5848591 C0.2500089,38.983302 0.6713047,39.3726711 1.9547171,38.8126711 C3.3703008,38.1955436 12.5787288,32.7368591 7.6350751,21.8946577 C1.8713591,9.2536913 2.1987833,2.8629262 2.1304447,2.6750067" id="Fill-174" fill="#D3D5DF"/>
          <path d="M1.9202475,0.8239248 C1.988586,1.0118443 1.5259868,7.9024752 7.3032202,21.1034416 C13.0774498,34.297643 3.3703759,38.1958443 1.9547922,38.8129718 C0.6713798,39.3722201 0.2493331,38.982851 1.711477,41.5844081 C7.8656988,52.4837369 15.3423837,75.285133 15.3423837,75.285133 C15.3423837,75.285133 22.2595938,71.886797 21.1954654,71.589133 C19.1145198,70.617965 17.289656,67.216623 17.289656,67.216623 C17.289656,67.216623 14.285014,59.1240591 11.8518623,52.2612403 C9.4179595,45.3984215 11.3787494,45.9696966 11.3787494,45.9696966 C11.3787494,45.9696966 24.8113992,45.499898 32.7732125,35.3830658 C42.4412358,23.7636295 37.7949673,5.2219919 37.7949673,5.2219919" id="Stroke-176" stroke="#424763" stroke-width="0.5625"/>
          <path d="M16.6221914,78.322738 C16.6221914,78.322738 17.9318879,77.205745 16.6221914,74.741745 C16.9180747,74.610953 21.1332848,72.236403 21.1332848,72.236403 L24.7469658,73.860027 L27.2003938,78.322738 L16.6221914,78.322738 Z" id="Fill-184" fill="#424763"/>
          <path d="M16.5458926,15.0878389 C16.5458926,15.0878389 26.6329588,29.2479463 34.622558,32.8108993 C34.9267019,32.9462013 32.7729121,35.3831409 32.7729121,35.3831409 C32.7729121,35.3831409 26.956628,31.4992215 16.5458926,15.0878389" id="Fill-186" fill="#424763"/>
          <path d="M2.5304128,7.2972242 C2.5304128,7.2972242 15.981837,24.6918013 22.2096541,30.1046336 C26.9678175,34.2403651 13.7146502,25.1563383 4.2433817,12.8791839" id="Fill-188" fill="#424763"/>
          <path d="M6.2904584,18.6990497 C6.2904584,18.6990497 21.5442171,35.3464591 28.6784584,39.4806872 L26.014758,41.3967141 C26.014758,41.3967141 12.8652249,31.9578953 8.1573767,23.3136 C7.6069136,21.2442309 6.2904584,18.6990497 6.2904584,18.6990497" id="Fill-190" fill="#424763"/>
          <path d="M9.0581685,29.5132134 C9.0581685,29.5132134 16.8367444,41.113106 21.7503591,43.5011866 L19.106184,44.4648376 C19.106184,44.4648376 12.6305459,41.6174819 8.5437521,32.2733745 C8.6203514,31.4570523 9.0581685,29.5132134 9.0581685,29.5132134" id="Fill-192" fill="#424763"/>
          <path d="M7.6405572,34.1913557 C7.6405572,34.1913557 13.5980241,43.9022819 15.6354132,45.3755705 L13.242814,45.7874899 C13.242814,45.7874899 7.7614638,41.8404295 5.5708763,36.6095034 C5.413172,36.2329128 7.6405572,34.1913557 7.6405572,34.1913557" id="Fill-194" fill="#424763"/>
          <path d="M3.3070689,38.2774765 C3.5383685,38.2353826 10.0538082,45.5304161 10.9354502,46.1054497 C10.9354502,46.1054497 10.2460572,47.5125906 10.7522128,48.389047 C11.2591195,49.266255 1.7112518,41.5841074 1.7112518,41.5841074 C1.7112518,41.5841074 0.6493763,39.9770201 0.793563,39.5169933 C0.9542712,39.006604 2.1685942,38.4826846 3.3070689,38.2774765" id="Fill-196" fill="#424763"/>
          <path d="M11.851637,52.2610148 L6.2906837,51.1056859 C6.2906837,51.1056859 7.6439366,54.8016859 7.8091506,54.7392966 C7.9743646,54.6761557 12.869956,55.1143839 12.869956,55.1143839 L11.851637,52.2610148 Z" id="Fill-198" fill="#424763"/>
          <polygon id="Fill-200" fill="#424763" points="14.0510109 58.3093154 9.058544 57.8748456 10.4763805 61.5685906 15.3021315 61.817396"/>
          <path d="M16.8913401,66.1395436 L12.2540833,66.3898523 L14.0451533,71.589208 C14.0451533,71.589208 17.8105307,70.555651 18.8919315,69.835544 C19.1450093,69.666416 17.3644529,67.956349 16.8913401,66.1395436" id="Fill-202" fill="#424763"/>
        </g>
        <path d="M65.7924984,11.0148617 C65.6986268,11.098298 55.4508525,27.4164725 54.5121366,45.1748617 C53.7611638,53.1148349 51.5555568,25.4741369 61.2708914,10.7690631 C64.2222144,10.5367946 65.7924984,11.0148617 65.7924984,11.0148617" id="Fill-178" fill="#424763"/>
        <path d="M51.5856708,13.0404832 C51.5856708,13.0404832 46.1576397,37.282094 49.9125035,45.8324295 C49.9125035,45.8324295 43.2100716,25.9776107 47.528165,15.1699866 C49.6308887,13.4636779 51.5856708,13.0404832 51.5856708,13.0404832" id="Fill-180" fill="#424763"/>
        <path d="M42.2476249,18.6461208 C42.2476249,18.6461208 39.3526249,31.269047 42.3752903,43.4364564 C43.8126521,49.2236242 38.109014,36.5285369 37.7477961,29.9596242 C37.4661813,24.838443 37.8258973,22.1812617 37.8258973,22.1812617 C37.8258973,22.1812617 40.3942241,19.6924564 42.2476249,18.6461208" id="Fill-182" fill="#424763"/>
        <g id="Group-207" transform="translate(113.396887, 55.792537)">
          <g id="Group">
            <path d="M14.4601307,2.12987919 C14.4601307,2.12987919 12.0194693,4.57283221 12.0194693,7.51715436 C12.0194693,10.4607248 11.8467455,26.5902282 11.8467455,26.5902282 C11.8467455,26.5902282 12.5361385,27.946255 13.3179012,29.1932886 C14.0470957,30.3576376 13.3967533,32.6983624 12.8958545,35.3292349 C12.3949556,37.9601074 12.7088623,41.717745 13.3967533,43.7224698 C14.0846444,45.7271946 15.5250101,47.0426309 15.5250101,47.0426309 C16.3758623,49.4976107 16.7363292,49.7749799 17.3393603,51.2084295 C17.6209751,51.8781745 11.7431113,51.7361074 11.0965237,51.6609396 C10.1465432,51.550443 11.4877805,50.6604564 10.674477,49.6577181 C9.86117354,48.6557315 7.82603735,47.7048591 8.32768716,45.637745 C8.82783502,43.5706309 9.39106459,42.4701745 9.07865992,39.0876242 C8.76625525,35.7050738 6.71534864,30.6154631 6.21520078,30.114094 C5.71505292,29.6134765 6.82574163,28.3130738 6.51333696,25.995651 C6.19943035,23.6782282 3.32095175,11.0876242 0.37939144,5.82587919 C0.37939144,5.82587919 3.75876887,3.57084564 2.82005292,0.0627651007" id="Fill-204" fill="#D3D5DF"/>
            <path d="M14.4601307,2.12987919 C14.4601307,2.12987919 12.0194693,4.57283221 12.0194693,7.51715436 C12.0194693,10.4607248 11.8467455,26.5902282 11.8467455,26.5902282 C11.8467455,26.5902282 12.5361385,27.946255 13.3179012,29.1932886 C14.0470957,30.3576376 13.3967533,32.6983624 12.8958545,35.3292349 C12.3949556,37.9601074 12.7088623,41.717745 13.3967533,43.7224698 C14.0846444,45.7271946 15.5250101,47.0426309 15.5250101,47.0426309 C16.3758623,49.4976107 16.7363292,49.7749799 17.3393603,51.2084295 C17.6209751,51.8781745 11.7431113,51.7361074 11.0965237,51.6609396 C10.1465432,51.550443 11.4877805,50.6604564 10.674477,49.6577181 C9.86117354,48.6557315 7.82603735,47.7048591 8.32768716,45.637745 C8.82783502,43.5706309 9.39106459,42.4701745 9.07865992,39.0876242 C8.76625525,35.7050738 6.71534864,30.6154631 6.21520078,30.114094 C5.71505292,29.6134765 6.82574163,28.3130738 6.51333696,25.995651 C6.19943035,23.6782282 3.32095175,11.0876242 0.37939144,5.82587919 C0.37939144,5.82587919 3.75876887,3.57084564 2.82005292,0.0627651007" id="Stroke-206" stroke="#424763" stroke-width="0.5625"/>
            <path d="M11.096899,51.66094 L10.487109,55.623785 L22.267619,55.623785 C22.267619,55.623785 18.935553,52.946309 18.418884,52.006711 C18.418884,52.006711 17.57479,51.709799 17.081401,51.458738" id="Fill-208" fill="#313753"/>
            <path d="M1.21177,7.3420133 C1.944719,7.2818791 10.956392,6.1310603 10.956392,6.1310603 L2.561268,10.9463086 L1.21177,7.3420133 Z" id="Fill-210" fill="#424763"/>
            <path d="M5.426529,12.1677851 C5.426529,12.1677851 11.285619,10.950067 11.999043,10.9463086 C12.310697,10.945557 11.978767,13.3434093 11.978767,13.3434093 L5.426529,12.1677851 Z" id="Fill-212" fill="#424763"/>
            <path d="M11.971107,14.1879194 C11.971107,14.1879194 4.948009,15.1981744 4.3615,15.5973153 C3.77499,15.9964563 4.807578,17.8523489 4.807578,17.8523489 L11.959091,15.3860939 L11.971107,14.1879194 Z" id="Fill-214" fill="#424763"/>
            <path d="M5.426529,20.3657341 C5.426529,20.3657341 11.026533,20.4829959 11.754226,20.107157 L11.754226,22.7147274 L6.309673,23.7948885 L5.426529,20.3657341 Z" id="Fill-216" fill="#424763"/>
            <path d="M6.661504,27.6711409 C6.661504,27.6711409 11.307773,27.9056643 12.129337,27.4366174 C12.129337,27.4366174 13.49085,29.4796778 13.443539,29.9735301 C13.443539,29.9735301 7.435757,31.5445368 7.177422,31.5001878 L6.239457,29.6916509 L6.661504,27.6711409 Z" id="Fill-218" fill="#424763"/>
            <path d="M8.304257,34.6376912 C8.304257,34.6376912 12.300934,34.9406174 13.03088,34.6399462 C13.218623,34.5459865 12.528479,36.9964563 12.528479,36.9964563 C12.528479,36.9964563 9.407436,37.2151945 9.03195,37.1678388 C8.656463,37.1212348 8.280977,35.4833288 8.304257,34.6376912" id="Fill-220" fill="#424763"/>
            <path d="M9.524588,39.6040268 C9.524588,39.6040268 11.813553,39.7911945 12.434607,39.6002684 C12.692942,39.4822549 12.810094,41.929718 12.810094,41.929718 C12.810094,41.929718 10.81551,42.4228187 9.524588,42.0236778 C9.008669,41.8590603 9.266253,41.4125637 9.266253,41.4125637 L9.201669,39.6002684 L9.524588,39.6040268 Z" id="Fill-222" fill="#424763"/>
            <path d="M8.797045,44.424612 C8.890917,44.40131 10.82317,45.199592 12.950676,44.490008 C14.218318,44.0668133 14.35875,45.828746 14.35875,45.828746 C14.35875,45.828746 11.437466,47.014142 9.10194,46.862303 C7.2951,46.745042 8.797045,44.424612 8.797045,44.424612" id="Fill-224" fill="#424763"/>
          </g>
        </g>
      </g>
    </g>
  </g>
</svg>