<svg version="1.1" width="82" height="79" xmlns="http://www.w3.org/2000/svg" xmlns:xlink="http://www.w3.org/1999/xlink">
  <!-- Exported by Scratch - http://scratch.mit.edu/ -->
  <g id="ID0.2443972434848547">
    <g id="ID0.37392420740798116">
      <g id="ID0.11921940511092544">
        <path id="ID0.6013165418989956" fill="#00CCCC" d="M 75.580 70.500 C 73.180 72.150 70.310 73.100 67.280 73.260 C 66.860 73.290 66.450 73.290 66.040 73.260 C 64.550 73.180 61.960 73.200 58.610 73.340 C 56.690 73.580 54.240 73.710 51.010 73.720 C 50.750 73.760 50.420 73.810 50.020 73.880 C 47.510 74.300 45.640 74.410 43.940 74.290 C 41.860 76.570 39.030 78 35.830 78.260 C 35.730 78.270 35.640 78.270 35.540 78.280 C 35.010 78.310 34.480 78.320 33.970 78.320 C 30.700 78.320 27.700 77.710 25.070 76.500 C 25.010 76.480 24.950 76.450 24.890 76.420 C 24.640 76.340 23.920 76.130 22.450 75.820 C 21.030 75.590 19.010 75.250 16.360 74.790 C 15.030 74.570 13.610 74.340 12.160 74.110 C 11.760 74.050 11.370 73.960 10.980 73.850 C 4.530 72.080 0.350 66.950 0.350 60.790 C 0.350 59.140 0.680 57.490 1.320 55.890 C 1.750 54.830 2.340 53.840 3.070 52.960 C 4.210 51.600 5.980 49.730 8.680 48.620 C 11.330 47.460 14.230 46.860 17.310 46.850 C 18.180 45.250 18.470 44.800 18.740 44.390 C 19.150 43.780 19.880 42.720 21.650 40.310 C 20.820 39.210 19.930 38.020 18.970 36.740 C 18.930 36.680 18.900 36.630 18.860 36.580 C 17.950 35.310 16.620 33.500 14.900 31.170 C 14.500 31.150 14.130 31.130 13.780 31.090 C 13.690 31.080 13.600 31.070 13.510 31.060 C 3.340 29.790 0.890 22.730 0.330 20.140 C 0.110 19.100 0 18.070 0 17.060 C 0 12.210 2.470 7.810 6.760 5.320 C 9.260 3.860 12.120 3 15.230 2.750 C 15.520 2.730 15.810 2.720 16.100 2.720 C 17.180 2.720 18.250 2.690 19.280 2.640 L 19.400 2.640 C 20.840 2.590 22.990 2.480 25.840 2.330 C 26.230 2.270 26.650 2.180 27.080 2.090 C 27.390 2.020 27.710 1.970 28.020 1.930 C 30.130 1.670 31.910 1.600 33.350 1.690 C 35.520 1.800 37.510 2.370 39.230 3.320 C 41.310 2.020 43.840 1.180 46.790 0.800 C 49.750 0.430 52.980 0.260 56.740 0.260 C 57.220 0.260 58.520 0.240 61.900 0.100 C 61.970 0.090 62.030 0.090 62.100 0.090 C 64.600 0.030 66.500 0 67.910 0 C 68.380 0 68.840 0.030 69.300 0.090 C 71.880 0.410 75.580 1.750 78.600 6.230 C 79.860 8.090 81.580 11.760 80.280 16.840 C 79.240 21.380 76.610 23.870 74.850 25.070 C 72.480 26.720 69.610 27.530 66.090 27.530 C 65.490 27.530 64.870 27.500 64.220 27.460 C 62.050 30.630 59.500 34.410 56.600 38.790 C 58.160 40.740 59.920 42.970 61.900 45.480 L 62.500 45.480 L 66.590 45.310 C 66.860 45.300 67.130 45.300 67.390 45.310 C 75.660 45.580 79.010 50.190 80.270 52.920 C 80.320 53.010 80.360 53.110 80.400 53.210 C 80.890 54.340 81.240 55.490 81.450 56.630 C 82.500 62.050 80.270 67.340 75.580 70.500 Z "/>
      </g>
    </g>
    <g id="ID0.5475822952575982">
      <path id="ID0.31206753151491284" fill="#FFFFFF" d="M 70.640 58.674 C 70.873 59.789 70.463 60.697 69.408 61.401 C 68.645 61.929 67.737 62.223 66.681 62.281 C 64.687 62.164 61.667 62.193 57.621 62.369 C 56.096 62.604 53.691 62.721 50.408 62.721 C 50.174 62.721 49.440 62.825 48.209 63.030 C 46.978 63.236 46.011 63.338 45.307 63.338 C 42.668 63.338 41.554 62.077 41.964 59.556 C 42.844 58.500 43.987 57.870 45.395 57.664 C 46.802 57.460 48.180 57.268 49.530 57.093 C 47.887 54.865 44.457 50.643 39.238 44.427 C 37.595 46.186 35.689 48.824 33.521 52.343 C 32.054 54.748 30.587 57.123 29.123 59.468 C 29.827 60.114 31.380 60.642 33.785 61.051 C 35.601 61.345 36.687 62.313 37.039 63.953 C 36.980 63.777 36.805 64.042 36.512 64.745 C 36.512 64.980 36.482 65.304 36.424 65.713 C 36.130 66.711 35.632 67.238 34.929 67.296 C 32.818 67.414 31.059 67.150 29.651 66.505 C 28.772 66.036 27.042 65.537 24.462 65.010 C 23.055 64.776 20.973 64.424 18.217 63.953 C 16.810 63.720 15.372 63.485 13.907 63.250 C 12.205 62.781 11.355 61.961 11.355 60.787 C 11.355 60.554 11.414 60.289 11.532 59.995 C 12.117 59.292 12.587 58.882 12.939 58.764 C 15.108 57.768 17.717 57.592 20.767 58.237 C 21.705 58.413 22.496 58.501 23.142 58.501 C 23.669 57.974 24.461 56.742 25.517 54.807 C 26.866 52.286 27.657 50.849 27.892 50.496 C 28.830 49.089 31.351 45.659 35.456 40.205 C 33.579 37.860 31.028 34.517 27.804 30.178 C 26.630 28.537 24.754 25.986 22.174 22.526 C 20.943 20.942 20.209 20.151 19.975 20.151 C 19.799 20.151 19.008 20.151 17.601 20.151 C 16.370 20.210 15.459 20.210 14.873 20.151 C 12.586 19.865 11.325 19.094 11.091 17.835 C 10.797 16.464 11.193 15.465 12.279 14.835 C 13.364 14.205 14.639 13.835 16.105 13.719 C 17.336 13.719 18.568 13.692 19.799 13.634 C 21.383 13.576 23.786 13.462 27.012 13.290 C 27.774 13.174 28.566 13.026 29.387 12.851 C 30.794 12.675 31.908 12.618 32.730 12.675 C 34.195 12.734 34.929 13.526 34.929 15.050 C 34.929 16.047 34.634 16.897 34.049 17.601 C 33.403 17.835 32.568 18.056 31.542 18.260 C 30.516 18.466 29.181 18.687 27.540 18.920 C 27.364 19.331 27.804 20.182 28.859 21.471 C 30.382 23.406 31.204 24.461 31.322 24.637 C 32.318 26.221 33.609 27.951 35.192 29.827 C 37.303 32.466 38.563 34.049 38.974 34.577 C 41.143 32.114 43.372 29.182 45.659 25.780 C 47.359 23.141 49.059 20.503 50.761 17.864 C 50.937 17.631 51.026 17.278 51.026 16.808 C 50.615 16.750 50.175 16.720 49.707 16.720 C 49.354 16.720 48.871 16.764 48.256 16.852 C 47.640 16.940 47.214 16.984 46.980 16.984 C 45.925 16.984 44.927 16.339 43.990 15.049 C 43.638 13.232 45.046 12.117 48.212 11.706 C 50.616 11.413 53.460 11.267 56.744 11.267 C 57.741 11.267 59.617 11.208 62.374 11.090 C 64.716 11.030 66.563 11 67.912 11 C 68.381 11.060 68.909 11.528 69.496 12.407 C 69.788 12.818 69.817 13.434 69.584 14.255 C 69.407 15.135 69.085 15.722 68.614 16.014 C 67.968 16.485 66.619 16.630 64.565 16.454 C 63.215 16.337 61.161 16.366 58.403 16.542 C 54.763 21.707 49.629 29.336 42.998 39.430 C 45.583 42.592 49.433 47.423 54.547 53.921 C 54.839 54.391 55.132 54.861 55.426 55.331 C 55.895 56.036 56.364 56.418 56.833 56.476 C 58.123 56.476 60.085 56.476 62.724 56.476 C 64.132 56.418 65.568 56.360 67.035 56.300 C 68.852 56.360 69.936 56.771 70.288 57.531 C 70.463 57.942 70.580 58.323 70.640 58.674 Z "/>
    </g>
  </g>
</svg>