<svg width="261px" height="189px" viewBox="0 0 261 189" version="1.1" xml:space="preserve" xmlns="http://www.w3.org/2000/svg" xmlns:xlink="http://www.w3.org/1999/xlink">
  <!-- Generator: Sketch 49.3 (51167) - http://www.bohemiancoding.com/sketch -->
  <defs/>
  <g>
    <title>bear-walk-e</title>
    <desc>Created with Sketch.</desc>
    <g id="bear-walk-e" stroke="none" stroke-width="1" fill="none" fill-rule="evenodd">
      <g id="bear-walk9" transform="translate(131.000000, 94.500000) scale(-1, 1) translate(-131.000000, -94.500000) translate(18.000000, 15.000000)" fill-rule="nonzero">
        <g id="Group" transform="translate(150.000000, 38.000000)">
          <path d="M5.2,30.1 C5.2,30.1 -6.1,54.5 6.9,82 C13.4,95.8 18.9,104.3 16.9,106.7 C14.9,109.1 10.4,112.1 11.7,113.9 C13,115.7 20.8,115.5 37.1,111.4 C39.1,110.9 43.2,96.7 40.3,80.6 C38.1,68.1 41.4,60.3 43.4,51.2 C45.4,42.2 52.3,25.8 49.9,18.3 C47.5,10.8 42.6,-2.7 25.6,1.7 C8.6,6.1 5.6,23.9 5.2,30.1 Z" id="Shape" fill="#856045"/>
          <g transform="translate(13.000000, 109.000000)" id="Shape">
            <path d="M8.6,5.5 C8.6,5.5 8.6,5.2 8.7,4.7 C8.8,4.2 9.1,3.6 9.5,3 C9.9,2.5 10.4,2 10.8,1.8 C11.2,1.5 11.6,1.4 11.6,1.4 C11.6,1.4 11.6,1.5 11.5,1.6 C11.4,1.7 11.3,1.9 11.1,2.1 C10.8,2.5 10.4,3 10,3.5 C9.6,4 9.3,4.5 9,4.9 C8.8,5.2 8.6,5.5 8.6,5.5 Z" fill="#59402F"/>
            <path d="M3,5.2 C3,5.2 3,4.8 3.2,4.3 C3.4,3.8 3.8,3.1 4.3,2.5 C4.6,2.2 4.8,1.9 5.1,1.7 C5.4,1.5 5.7,1.3 6,1.2 C6.3,1.1 6.5,1 6.7,1 C6.9,1 7,0.9 7,0.9 C7,0.9 6.9,1 6.8,1.1 C6.7,1.2 6.5,1.4 6.3,1.5 C5.9,1.9 5.4,2.4 4.9,2.9 C4.4,3.4 4,4 3.6,4.4 C3.2,4.9 3,5.2 3,5.2 Z" fill="#59402F"/>
            <path d="M9.5,6.8 C9.5,6.2 10.5,3.5 11.6,3.6 C12.7,3.7 12,4.7 11.4,5.4 C10.8,6.2 9.5,7.2 9.5,6.8 Z" fill="#665A52"/>
            <path d="M4,6.2 C4,5.6 5,2.9 6.1,3 C7.2,3.1 6.5,4.1 5.9,4.8 C5.3,5.5 4,6.6 4,6.2 Z" fill="#665A52"/>
            <path d="M0.6,5.9 C0.6,5.3 1.6,2.6 2.7,2.7 C3.8,2.8 3.1,3.8 2.5,4.5 C1.9,5.2 0.5,6.3 0.6,5.9 Z" fill="#665A52"/>
          </g>
          <path d="M40.5,81.5 C40.5,81.5 40.9,83.8 41.1,87.2 C41.2,88.9 41.3,90.9 41.3,93 C41.3,95.1 41.3,97.4 41.1,99.7 C40.9,102 40.6,104.3 40,106.3 C39.7,107.3 39.4,108.3 39,109.2 C38.8,109.7 38.5,110.1 38.3,110.5 C38.2,110.7 38,110.9 37.9,111.1 C37.8,111.2 37.8,111.3 37.7,111.4 C37.6,111.5 37.5,111.5 37.4,111.5 C36.6,111.8 35.8,112 35.2,112.1 C34.5,112.3 33.9,112.4 33.4,112.5 C32.4,112.7 31.9,112.8 31.9,112.8 C31.9,112.8 32.5,112.7 33.4,112.4 C33.9,112.3 34.5,112.1 35.1,111.9 C35.8,111.7 36.5,111.5 37.3,111.2 C37.5,111.1 37.6,111.1 37.7,110.8 C37.8,110.6 37.9,110.4 38.1,110.2 C38.3,109.8 38.5,109.4 38.7,108.9 C39.1,108 39.4,107 39.6,106 C40.1,103.9 40.4,101.7 40.5,99.4 C40.7,97.1 40.8,94.9 40.8,92.8 C40.8,90.7 40.8,88.7 40.8,87 C40.6,83.8 40.5,81.5 40.5,81.5 Z" id="Shape" fill="#59402F"/>
          <path d="M0.8,43.2 C0.8,43.2 1,47.5 1.6,54 C1.9,57.2 2.3,61 2.8,65 C3.1,67 3.4,69.1 3.7,71.2 C4.1,73.3 4.5,75.4 5.1,77.4 C5.4,78.4 5.8,79.4 6.3,80.3 C6.8,81.3 7.3,82.2 7.8,83.1 C8.8,85 9.8,86.8 10.7,88.6 C12.6,92.2 14.3,95.6 15.5,98.6 C16.1,100.1 16.6,101.5 16.9,102.8 C17.2,104.1 17.3,105.3 17.1,106.2 C16.9,107.2 16.2,107.7 15.8,108 C15.4,108.3 15.1,108.4 15.1,108.4 C15.1,108.4 15.3,108.3 15.7,107.9 C16.1,107.6 16.7,107.1 16.8,106.1 C16.9,105.2 16.7,104.1 16.4,102.8 C16.1,101.5 15.6,100.2 14.9,98.7 C13.6,95.8 11.8,92.4 9.9,88.8 C8.9,87 8,85.2 7,83.3 C6.5,82.4 6,81.4 5.5,80.4 C5,79.4 4.6,78.4 4.3,77.4 C3.7,75.3 3.3,73.2 2.9,71.1 C2.5,69 2.3,66.9 2,64.9 C1.5,60.9 1.2,57.1 1,53.9 C0.9,47.5 0.8,43.2 0.8,43.2 Z" id="Shape" fill="#59402F"/>
        </g>
        <g id="Group" transform="translate(97.000000, 57.000000)">
          <path d="M5.5,24.4 C10.6,40 16,44.8 16,44.8 C16,44.8 1.7,63.7 1.3,66.9 C0.4,75.1 19.2,94 23.2,88.3 C27.1,82.9 21.2,74.8 21.2,74.8 C21.2,74.8 35.5,58.3 36.8,57.2 C39.4,55 57.4,50.7 52.7,28.2 C40.4,-17.2 -1.6,2.6 5.5,24.4 Z" id="Shape" fill="#856045"/>
          <path d="M43.2,9.1 C43.2,9.1 51.7,18.7 54,18.4 C54,18.4 51.9,20.4 50,18.9 C50,18.9 54.5,20.5 55.8,24.8 L52.8,24 C52.8,24 57.2,30.1 57.1,34.4 L54.1,31.5 C54.1,31.5 57.8,37.7 53.8,41.6" id="Shape" fill="#856045"/>
          <path d="M53.8,18.4 C53.8,18.4 53.6,18.4 53.3,18.4 C53,18.3 52.5,18.2 52,17.9 C51,17.4 49.8,16.4 48.6,15.4 C48,14.9 47.5,14.3 47,13.8 C46.5,13.3 46.1,12.8 45.7,12.3 C45,11.4 44.6,10.8 44.6,10.8 C44.6,10.8 45.2,11.3 46,12.1 C46.8,12.9 47.9,13.9 49,14.9 C49.5,15.4 50.1,15.9 50.6,16.4 C51.1,16.9 51.6,17.3 52.1,17.6 C52.5,17.9 52.9,18.2 53.2,18.3 C53.6,18.3 53.8,18.4 53.8,18.4 Z" id="Shape" fill="#59402F"/>
          <path d="M55.8,25 C55.8,25 55.5,24.6 55.2,24 C54.8,23.4 54.3,22.7 53.7,22 C53.4,21.7 53.1,21.3 52.8,21 C52.6,20.9 52.5,20.7 52.4,20.6 C52.3,20.5 52.1,20.3 52,20.2 C51.7,20 51.5,19.8 51.3,19.7 C51.1,19.6 51,19.5 51,19.5 C51,19.5 51.1,19.5 51.3,19.6 C51.5,19.6 51.8,19.7 52.1,19.9 C52.3,20 52.4,20.1 52.6,20.2 C52.8,20.3 53,20.4 53.1,20.6 C53.5,20.9 53.8,21.2 54.1,21.6 C54.7,22.3 55.1,23.2 55.4,23.9 C55.7,24.5 55.8,25 55.8,25 Z" id="Shape" fill="#59402F"/>
          <path d="M57.2,34.5 C57.2,34.5 57.2,33.8 56.9,32.7 C56.6,31.7 56.1,30.3 55.5,29.1 C55.2,28.5 54.9,27.8 54.6,27.2 C54.3,26.6 54,26.1 53.7,25.6 C53.4,25.1 53.2,24.7 53.1,24.5 C52.9,24.2 52.9,24.1 52.9,24.1 C52.9,24.1 53,24.2 53.2,24.5 C53.4,24.7 53.7,25.1 54,25.5 C54.7,26.4 55.5,27.6 56.1,28.9 C56.4,29.6 56.7,30.3 56.9,30.9 C57.1,31.6 57.2,32.2 57.3,32.7 C57.4,33.2 57.3,33.7 57.3,34 C57.3,34.3 57.2,34.5 57.2,34.5 Z" id="Shape" fill="#59402F"/>
          <path d="M21.3,74.5 C21.3,74.5 23.4,72 26.6,68.3 C28.2,66.4 30,64.3 32,61.9 C33,60.8 34.1,59.6 35.3,58.5 C36.5,57.4 37.9,56.5 39.4,55.8 C40.9,55.1 42.3,54.4 43.6,53.5 C44.9,52.6 46.1,51.5 47.2,50.5 C47.7,50 48.3,49.5 48.8,49 C49.3,48.5 49.8,47.9 50.2,47.4 C51,46.3 51.6,45.1 52,44 C52.9,41.7 53.2,39.7 53.4,38.3 C53.6,36.9 53.5,36.1 53.5,36.1 C53.5,36.1 53.6,36.9 53.5,38.3 C53.4,39.7 53.2,41.8 52.4,44.1 C52,45.3 51.4,46.5 50.6,47.7 C49.8,48.9 48.7,50 47.7,51 C46.6,52.1 45.4,53.1 44.1,54.1 C42.8,55.1 41.3,55.8 39.8,56.5 C38.3,57.1 37,58 35.8,59.1 C34.6,60.1 33.5,61.2 32.4,62.3 C31.3,63.4 30.4,64.5 29.5,65.6 C28.6,66.6 27.7,67.6 26.9,68.6 C23.5,72.1 21.3,74.5 21.3,74.5 Z" id="Shape" fill="#59402F"/>
          <path d="M54.1,41.3 C54.1,41.3 54.5,40.8 54.8,39.9 C54.9,39.5 55,38.9 55.1,38.4 C55.1,38.1 55.1,37.8 55.1,37.5 C55.1,37.2 55.1,36.9 55,36.6 C55,36.3 54.9,36 54.9,35.7 C54.9,35.4 54.8,35.1 54.7,34.8 C54.6,34.2 54.5,33.7 54.4,33.2 C54.3,32.7 54.2,32.4 54.1,32.1 C54,31.8 54,31.7 54,31.7 C54,31.7 54.1,31.8 54.2,32.1 C54.3,32.4 54.5,32.7 54.7,33.1 C54.9,33.5 55.1,34.1 55.3,34.7 C55.4,35 55.5,35.3 55.5,35.6 C55.5,35.9 55.6,36.2 55.6,36.6 C55.7,37.2 55.7,37.9 55.5,38.5 C55.5,38.8 55.4,39.1 55.3,39.4 C55.2,39.7 55.1,39.9 55,40.1 C54.8,40.5 54.5,40.9 54.3,41.1 C54.2,41.3 54.1,41.3 54.1,41.3 Z" id="Shape" fill="#59402F"/>
          <path d="M3.8,74.3 C3.2,73.8 2.8,73.2 2.4,72.6 C2,72 1.7,71.3 1.5,70.6 C1.3,69.9 1.1,69.2 1,68.4 C1,68 0.9,67.7 0.9,67.3 C0.9,66.9 1,66.5 1.1,66.2 C1.6,64.8 2.3,63.5 3,62.2 C3.7,60.9 4.5,59.7 5.3,58.4 C6.9,55.9 8.6,53.5 10.2,51.1 C11.9,48.7 13.7,46.4 15.4,44 L15.4,44.4 C13.9,42.6 12.6,40.6 11.5,38.5 C10.9,37.5 10.4,36.4 10,35.3 C9.8,34.8 9.6,34.2 9.4,33.7 C9.2,33.2 9,32.6 8.9,32 C9.3,33.1 9.8,34.2 10.3,35.2 C10.8,36.2 11.4,37.3 11.9,38.3 C12.5,39.3 13.1,40.3 13.8,41.2 C14.5,42.1 15.2,43.1 15.9,43.9 L16.1,44.1 L15.9,44.3 C14.1,46.6 12.4,49 10.7,51.4 C9,53.8 7.3,56.2 5.7,58.6 C4.9,59.8 4.1,61 3.4,62.3 C2.7,63.6 1.9,64.8 1.4,66.2 C1.3,66.5 1.2,66.9 1.2,67.2 C1.2,67.5 1.2,67.9 1.3,68.3 C1.4,69 1.5,69.7 1.7,70.4 C1.9,71.1 2.1,71.8 2.5,72.4 C2.9,73.2 3.3,73.8 3.8,74.3 Z" id="Shape" fill="#59402F"/>
          <g transform="translate(19.000000, 77.000000)" id="Shape">
            <path d="M5.3,4.3 C5.3,4.3 5,4.4 4.5,4.4 C4,4.4 3.3,4.2 2.7,3.9 C2.1,3.6 1.6,3.2 1.3,2.8 C1,2.4 0.8,2.1 0.8,2.1 C0.8,2.1 0.9,2.1 1,2.2 C1.1,2.3 1.3,2.4 1.5,2.5 C1.9,2.7 2.5,3 3,3.3 C3.5,3.6 4.1,3.8 4.5,4 C4.9,4.2 5.3,4.3 5.3,4.3 Z" fill="#59402F"/>
            <path d="M5.5,9.9 C5.5,9.9 5.1,9.9 4.5,9.8 C3.9,9.7 3.2,9.4 2.5,9 C2.2,8.8 1.9,8.5 1.6,8.3 C1.3,8 1.1,7.8 1,7.5 C0.8,7.3 0.7,7 0.7,6.9 C0.6,6.7 0.6,6.7 0.6,6.7 C0.6,6.7 0.7,6.8 0.8,6.9 C0.9,7 1.1,7.2 1.3,7.3 C1.7,7.7 2.3,8.1 2.9,8.5 C3.5,8.9 4.1,9.2 4.6,9.5 C5.1,9.7 5.5,9.9 5.5,9.9 Z" fill="#59402F"/>
            <path d="M6.5,3.2 C5.9,3.3 3.1,2.8 3,1.6 C2.9,0.5 4.1,1.1 4.9,1.5 C5.6,2 6.9,3.1 6.5,3.2 Z" fill="#6C5F57"/>
            <path d="M6.7,8.7 C6.1,8.8 3.3,8.3 3.2,7.1 C3.1,6 4.3,6.6 5.1,7 C5.9,7.4 7.1,8.6 6.7,8.7 Z" fill="#6C5F57"/>
            <path d="M5.1,12.1 C4.5,12.2 1.7,11.7 1.6,10.5 C1.5,9.4 2.7,10 3.5,10.4 C4.2,10.8 5.5,12 5.1,12.1 Z" fill="#6C5F57"/>
          </g>
          <path d="M14,46.9 C14,46.9 14.1,46.4 14.4,45.8 C14.6,45.5 14.8,45.2 15.1,44.8 C15.4,44.5 15.7,44.2 16.1,43.9 C16.5,43.6 16.9,43.4 17.2,43.2 C17.6,43 18,42.9 18.3,42.8 C18.6,42.7 18.9,42.7 19.1,42.6 C19.3,42.6 19.4,42.6 19.4,42.6 C19.4,42.6 19.3,42.7 19.1,42.8 C18.9,42.9 18.7,43 18.4,43.2 C18.1,43.4 17.8,43.6 17.4,43.8 C17.1,44 16.7,44.3 16.4,44.5 C15.7,45 15.1,45.6 14.7,46.1 C14.3,46.5 14,46.9 14,46.9 Z" id="Shape" fill="#59402F"/>
        </g>
        <g id="Group" transform="translate(57.000000, 11.000000)">
          <g transform="translate(145.000000, 28.000000)" id="Shape">
            <path d="M0.9,0.6 C0.9,0.6 11.3,-3.1 22,12.6 C22,12.6 18.9,10 17,10 C17,10 21.9,11.7 23.1,20 C23.1,20 21.3,16.7 19.9,16.4 C19.9,16.4 26.7,25.8 16.6,27.5 C6.4,29.2 -1.5,2.8 0.9,0.6 Z" fill="#8D674A"/>
            <path d="M22,12.5 C22,12.5 21.8,12.2 21.4,11.7 C21,11.2 20.4,10.5 19.7,9.7 C19,8.9 18.1,8 17.2,7 C16.7,6.5 16.2,6.1 15.7,5.6 C15.2,5.1 14.6,4.7 14,4.3 C13.4,3.9 12.8,3.5 12.3,3.1 C11.7,2.8 11.1,2.4 10.5,2.1 C9.9,1.9 9.3,1.5 8.7,1.4 C8.1,1.2 7.6,1 7,0.9 C6.5,0.8 6,0.7 5.6,0.6 C5.2,0.5 4.8,0.6 4.5,0.5 C3.9,0.5 3.5,0.4 3.5,0.4 C3.5,0.4 3.9,0.4 4.5,0.3 C4.8,0.3 5.2,0.2 5.7,0.2 C6.1,0.2 6.6,0.3 7.2,0.3 C7.7,0.4 8.3,0.6 8.9,0.7 C9.5,0.8 10.1,1.1 10.8,1.4 C11.4,1.7 12,2 12.7,2.4 C13.3,2.8 13.9,3.2 14.5,3.6 C15.1,4.1 15.7,4.5 16.2,5 C16.7,5.5 17.3,6 17.7,6.5 C18.7,7.5 19.4,8.5 20.1,9.4 C21.3,11.3 22,12.5 22,12.5 Z" fill="#59402F"/>
            <path d="M17,10 C17,10 17.7,10.3 18.6,11.1 C19.1,11.5 19.5,11.9 20,12.4 C20.5,12.9 21,13.5 21.4,14.2 C21.8,14.9 22.2,15.5 22.4,16.2 C22.5,16.5 22.6,16.9 22.7,17.2 C22.8,17.5 22.9,17.8 22.9,18.1 C23,18.7 23,19.1 23,19.5 C23,19.8 23,20 23,20 C23,20 23,19.8 22.9,19.5 C22.9,19.3 22.8,19.1 22.8,18.9 C22.7,18.7 22.7,18.4 22.6,18.2 C22.5,17.9 22.4,17.7 22.3,17.4 C22.2,17.1 22.1,16.8 21.9,16.5 C21.8,16.2 21.6,15.9 21.4,15.6 C21.2,15.3 21,15 20.8,14.7 C20,13.4 19.1,12.3 18.3,11.5 C17.6,10.5 17,10 17,10 Z" fill="#59402F"/>
            <path d="M19.8,16.4 C19.8,16.4 20.3,16.8 20.8,17.5 C21.1,17.9 21.4,18.3 21.6,18.8 C21.9,19.3 22,19.9 22.2,20.5 C22.3,21.1 22.4,21.7 22.3,22.3 C22.3,22.6 22.2,22.9 22.1,23.1 C22,23.4 22,23.6 21.9,23.8 C21.7,24.2 21.5,24.5 21.4,24.8 C21.2,25 21.2,25.1 21.2,25.1 C21.2,25.1 21.2,25 21.3,24.7 C21.3,24.6 21.4,24.4 21.5,24.3 C21.5,24.1 21.6,23.9 21.6,23.7 C21.7,23.5 21.7,23.3 21.7,23 C21.7,22.8 21.8,22.5 21.8,22.2 C21.8,21.9 21.8,21.7 21.8,21.4 C21.8,21.1 21.7,20.8 21.7,20.6 C21.6,20 21.4,19.5 21.2,19 C21,18.5 20.8,18 20.6,17.6 C20.2,16.9 19.8,16.4 19.8,16.4 Z" fill="#59402F"/>
          </g>
          <g id="Shape">
            <path d="M2.4,57.9 C2.4,57.9 2.4,65.7 5.8,68.9 L6,66.1 C6,66.1 7,74.9 13.6,77.5 L12.8,74.9 C12.8,74.9 20.2,79.5 20.2,82.9 L21.4,80.9 C21.4,80.9 28.2,86.7 31.2,84.7" fill="#8D674A"/>
            <g>
              <path d="M26.3,2.7 C44.3,-3 68,6.3 79.3,10.4 C95.7,16.4 115.5,0.3 142.4,22.1 C169.3,43.9 164.2,76.9 144.2,93.1 C121.8,111.2 42.3,111.7 28.1,83.4 C28.1,83.4 1.7,73.3 0.4,46" fill="#8D674A"/>
              <path d="M2.3,58 C2.3,58 2.5,58.7 2.7,59.7 C2.9,60.7 3.2,62.1 3.5,63.5 C3.6,63.8 3.7,64.2 3.8,64.5 C3.9,64.8 4,65.2 4.1,65.5 C4.3,66.1 4.5,66.7 4.7,67.2 C4.8,67.4 4.9,67.7 5,67.8 C5.1,68 5.2,68.2 5.3,68.3 C5.5,68.5 5.6,68.7 5.6,68.7 C5.6,68.7 5.5,68.6 5.2,68.4 C5.1,68.3 4.9,68.2 4.8,68 C4.6,67.8 4.5,67.6 4.3,67.4 C4,67 3.7,66.4 3.5,65.8 C3.2,65.2 3.1,64.5 2.9,63.8 C2.6,62.4 2.4,61 2.4,59.9 C2.2,58.7 2.3,58 2.3,58 Z" fill="#59402F"/>
              <path d="M6,66 C6,66 6.2,66.9 6.6,68.1 C6.8,68.7 7.1,69.5 7.4,70.2 C7.5,70.6 7.8,71 7.9,71.3 C8.1,71.7 8.3,72.1 8.5,72.4 C8.7,72.8 8.9,73.2 9.2,73.5 C9.5,73.8 9.7,74.2 10,74.5 C10.3,74.8 10.5,75.1 10.8,75.4 C11.1,75.6 11.3,75.9 11.6,76.1 C11.9,76.3 12.1,76.5 12.3,76.7 C12.5,76.8 12.7,77 12.9,77.1 C13.2,77.3 13.4,77.4 13.4,77.4 C13.4,77.4 13.2,77.3 12.8,77.2 C12.6,77.1 12.4,77 12.1,76.9 C11.9,76.8 11.6,76.6 11.3,76.4 C11,76.2 10.7,76 10.4,75.8 C10.1,75.6 9.8,75.3 9.5,75 C9.2,74.7 8.9,74.3 8.6,74 C8.3,73.6 8.1,73.2 7.8,72.9 C7.4,72.1 6.9,71.3 6.7,70.5 C6.4,69.7 6.2,68.9 6.1,68.3 C6,66.9 6,66 6,66 Z" fill="#59402F"/>
              <path d="M12.8,75 C12.8,75 13.5,75.2 14.4,75.7 C14.9,76 15.4,76.3 15.9,76.7 C16.4,77.1 17,77.5 17.5,78 C18,78.5 18.5,79 18.9,79.6 C19.3,80.1 19.6,80.7 19.8,81.2 C19.9,81.5 20,81.7 20,81.9 C20.1,82.1 20.1,82.3 20.1,82.4 C20.2,82.7 20.2,82.9 20.2,82.9 C20.2,82.9 20.1,82.7 20,82.5 C20,82.3 20,82.1 19.8,82 C19.7,81.8 19.6,81.6 19.5,81.4 C19.4,81.2 19.2,81 19,80.7 C18.8,80.5 18.6,80.2 18.4,80 C18,79.5 17.5,79 17,78.5 C16.5,78 16,77.6 15.5,77.2 C15,76.8 14.5,76.4 14.1,76.1 C13.4,75.4 12.8,75 12.8,75 Z" fill="#59402F"/>
              <path d="M21.4,80.9 C21.4,80.9 22,81.3 22.9,81.9 C23.4,82.2 23.9,82.5 24.4,82.8 C25,83.1 25.6,83.5 26.2,83.8 C26.8,84.1 27.5,84.4 28.1,84.6 C28.4,84.7 28.7,84.8 29,84.9 C29.3,85 29.6,85 29.8,85.1 C30.1,85.1 30.3,85.2 30.5,85.2 C30.7,85.2 30.9,85.2 31.1,85.2 C31.4,85.2 31.6,85.2 31.6,85.2 C31.6,85.2 31.4,85.2 31.1,85.3 C30.9,85.3 30.8,85.4 30.5,85.4 C30.3,85.4 30,85.4 29.8,85.4 C29.3,85.4 28.6,85.3 28,85.1 C27.3,84.9 26.7,84.7 26,84.3 C25.4,84 24.7,83.6 24.2,83.2 C23.6,82.8 23.1,82.4 22.7,82.1 C21.9,81.5 21.4,80.9 21.4,80.9 Z" fill="#59402F"/>
              <path d="M46,1.4 C46,1.4 49.1,1.6 53.7,2.4 C56,2.8 58.7,3.3 61.5,4.1 C64.3,4.8 67.3,5.7 70.2,6.7 C73.1,7.8 75.9,9.1 78.6,10.1 C80,10.6 81.3,10.9 82.6,11.2 C83.9,11.5 85.1,11.6 86.3,11.7 C87.4,11.8 88.5,11.8 89.4,11.9 C90.3,11.9 91.2,11.9 91.8,11.9 C93.2,11.9 93.9,11.9 93.9,11.9 C93.9,11.9 93.1,12 91.8,12 C91.1,12 90.3,12 89.4,12.1 C88.5,12.1 87.4,12.1 86.2,12 C85,11.9 83.8,11.8 82.5,11.6 C81.2,11.4 79.8,11 78.4,10.6 C77,10.2 75.6,9.6 74.2,9 C72.8,8.4 71.4,7.8 69.9,7.3 C68.4,6.8 67,6.3 65.5,5.9 C64,5.5 62.6,5 61.2,4.7 C58.4,4 55.8,3.4 53.5,2.9 C51.2,2.4 49.3,2.1 48,1.8 C46.7,1.5 46,1.4 46,1.4 Z" fill="#59402F"/>
              <path d="M120,11.1 C120,11.1 121.2,11.3 123.2,12 C125.2,12.6 128.1,13.6 131.5,15.1 C134.8,16.6 138.6,18.7 142.3,21.5 C146,24.3 149.5,27.7 152.3,31.7 C153.7,33.7 154.9,35.9 155.9,38.1 C157,40.2 157.9,42.4 158.7,44.6 C159.5,46.8 160.2,48.9 160.6,50.9 C161,53 161.2,55 161.3,56.8 C161.3,60.5 160.7,63.5 160.4,65.6 C160,67.7 159.8,68.9 159.8,68.9 C159.8,68.9 160,67.7 160.3,65.6 C160.6,63.5 161,60.5 160.9,56.8 C160.8,55 160.6,53 160.1,51 C159.6,49 158.9,46.9 158.2,44.8 C157.4,42.7 156.4,40.5 155.4,38.4 C154.4,36.2 153.2,34.1 151.8,32.1 C149.1,28.1 145.6,24.7 142,21.9 C138.4,19.1 134.7,17 131.4,15.4 C128.1,13.8 125.3,12.7 123.3,12 C121.1,11.4 120,11.1 120,11.1 Z" fill="#59402F"/>
              <path d="M33.5,90.8 C33.5,90.8 33.9,91.1 34.5,91.5 C35.2,92 36.2,92.6 37.5,93.4 C38.2,93.8 38.9,94.2 39.7,94.6 C40.5,95 41.4,95.5 42.3,95.9 C43.3,96.3 44.3,96.8 45.4,97.3 C46.5,97.8 47.6,98.2 48.8,98.7 C50,99.2 51.3,99.6 52.6,100.1 C53.9,100.6 55.3,101 56.7,101.4 C59.6,102.2 62.6,103 65.8,103.6 C66.6,103.8 67.4,103.9 68.2,104.1 C69,104.2 69.8,104.3 70.7,104.5 C71.5,104.6 72.4,104.7 73.2,104.9 C74,105 74.9,105.1 75.7,105.2 C76.5,105.3 77.4,105.4 78.3,105.4 C79.2,105.5 80,105.6 80.9,105.6 C82.6,105.7 84.4,105.7 86.1,105.8 C89.6,105.7 93,105.7 96.4,105.5 C99.8,105.3 103.2,105 106.4,104.7 C108,104.5 109.6,104.3 111.2,104.1 C112.8,103.9 114.3,103.7 115.7,103.5 C118.6,103 121.4,102.5 124,101.9 C126.5,101.3 128.8,100.7 130.9,100.1 C131.9,99.8 132.8,99.4 133.7,99.1 C134.5,98.7 135.3,98.5 136,98.1 C137.4,97.5 138.4,96.9 139.1,96.4 C139.8,95.9 140.1,95.6 140.1,95.6 C140.1,95.6 139.8,95.9 139.1,96.4 C138.4,96.8 137.4,97.5 136,98.1 C135.3,98.5 134.5,98.8 133.7,99.1 C132.8,99.4 131.9,99.8 130.9,100.1 C128.9,100.8 126.6,101.5 124.1,102.1 C121.6,102.7 118.8,103.3 115.8,103.8 C114.3,104 112.8,104.3 111.3,104.5 C109.7,104.7 108.1,104.9 106.5,105.1 C103.3,105.4 99.9,105.8 96.5,106 C93.1,106.3 89.6,106.3 86.1,106.4 C84.4,106.3 82.6,106.3 80.9,106.2 C80,106.2 79.2,106.1 78.3,106 C77.4,105.9 76.6,105.8 75.7,105.8 C74.8,105.7 74,105.7 73.2,105.5 C72.4,105.4 71.5,105.2 70.7,105.1 C69.9,105 69,104.8 68.2,104.7 C67.4,104.6 66.6,104.4 65.8,104.2 C62.6,103.6 59.5,102.7 56.7,101.9 C55.3,101.4 53.9,101 52.6,100.5 C51.3,100 50,99.5 48.8,99 C47.6,98.5 46.4,98 45.4,97.5 C44.3,97 43.3,96.5 42.4,96 C41.5,95.5 40.6,95 39.8,94.6 C39,94.1 38.3,93.7 37.6,93.3 C36.3,92.5 35.3,91.8 34.6,91.4 C33.9,91.1 33.5,90.8 33.5,90.8 Z" fill="#59402F"/>
            </g>
          </g>
        </g>
        <g id="Group" transform="translate(185.000000, 87.000000)">
          <path d="M0.4,0.9 C0.4,0.9 7,11.9 9.4,12 C9.4,12 7,13.6 5.4,11.8 C5.4,11.8 9.6,14.1 10.1,18.7 L7.3,17.4 C7.3,17.4 10.6,24.2 9.7,28.4 L7.2,25 C7.2,25 9.8,31.8 5.1,34.9" id="Shape" fill="#856045"/>
          <path d="M9.2,11.9 C9.2,11.9 9,11.9 8.7,11.8 C8.4,11.7 8,11.4 7.5,11.1 C6.6,10.4 5.5,9.3 4.6,8 C4.1,7.4 3.7,6.8 3.3,6.2 C2.9,5.6 2.6,5 2.3,4.5 C1.8,3.5 1.4,2.8 1.4,2.8 C1.4,2.8 1.9,3.4 2.6,4.3 C3.3,5.2 4.2,6.4 5.1,7.6 C5.5,8.2 6,8.8 6.4,9.3 C6.8,9.8 7.3,10.3 7.6,10.7 C8,11.1 8.3,11.4 8.6,11.6 C9.1,11.9 9.2,11.9 9.2,11.9 Z" id="Shape" fill="#59402F"/>
          <path d="M9.9,18.6 C9.9,18.6 9.7,18.2 9.5,17.6 C9.2,17 8.9,16.2 8.5,15.4 C8.3,15 8.1,14.7 7.8,14.3 C7.6,14 7.3,13.7 7.1,13.4 C6.9,13.2 6.7,12.9 6.5,12.8 C6.4,12.7 6.3,12.6 6.3,12.6 C6.3,12.6 6.4,12.6 6.6,12.7 C6.8,12.8 7.1,12.9 7.3,13.1 C7.6,13.3 7.9,13.6 8.2,13.9 C8.5,14.2 8.8,14.6 9,15 C9.2,15.4 9.4,15.8 9.5,16.2 C9.6,16.6 9.7,17 9.8,17.3 C10,18.1 9.9,18.6 9.9,18.6 Z" id="Shape" fill="#59402F"/>
          <path d="M9.5,27.9 C9.5,27.9 9.7,27.2 9.6,26.2 C9.6,25.7 9.5,25.1 9.4,24.5 C9.3,23.9 9.2,23.2 9,22.6 C8.8,21.9 8.6,21.3 8.4,20.7 C8.2,20.1 8,19.5 7.9,19 C7.7,18.5 7.6,18.1 7.5,17.8 C7.4,17.5 7.4,17.3 7.4,17.3 C7.4,17.3 7.5,17.4 7.7,17.7 C7.8,18 8.1,18.3 8.3,18.8 C8.5,19.3 8.8,19.8 9,20.4 C9.3,21 9.5,21.7 9.6,22.3 C9.8,23 9.9,23.7 10,24.3 C10.1,25 10.1,25.6 10,26.1 C9.9,26.6 9.8,27.1 9.7,27.3 C9.6,27.7 9.5,27.9 9.5,27.9 Z" id="Shape" fill="#59402F"/>
          <path d="M6.4,33.7 C6.4,33.7 6.5,33.6 6.6,33.4 C6.7,33.2 6.9,32.9 7,32.5 C7.2,31.7 7.4,30.7 7.4,29.6 C7.4,28.5 7.3,27.4 7.3,26.6 C7.2,25.8 7.2,25.2 7.2,25.2 C7.2,25.2 7.3,25.3 7.3,25.6 C7.4,25.8 7.5,26.2 7.6,26.6 C7.7,27 7.8,27.5 7.9,28 C7.9,28.3 8,28.5 8,28.8 C8,29.1 8,29.4 8,29.6 C8,30.2 7.9,30.7 7.8,31.3 C7.7,31.8 7.5,32.3 7.3,32.7 C7.1,33.1 6.8,33.4 6.7,33.5 C6.5,33.6 6.4,33.7 6.4,33.7 Z" id="Shape" fill="#59402F"/>
        </g>
        <g id="Group" transform="translate(163.000000, 35.000000)">
          <path d="M2.8,39.8 C2.8,39.8 11.1,73.8 18,85 C20.2,88.6 36.7,110 35.7,113 C34.7,116 29.7,122.2 31.6,123.4 C33.5,124.5 53,118.1 56.7,114.9 C58.2,113.6 58.4,91.2 53.9,74.9 C50.6,62.6 49.7,50.3 48,41.2 C46.3,32.1 47.4,15.5 42.2,9.5 C37,3.5 24.4,-5 10.4,5.7 C-3.4,16.4 0.8,33.9 2.8,39.8 Z" id="Shape" fill="#8D674A"/>
          <g transform="translate(31.000000, 117.000000)" id="Shape">
            <path d="M8,4.9 C8,4.9 7.9,4.6 7.9,4.1 C7.9,3.6 8.1,2.9 8.4,2.3 C8.7,1.7 9.1,1.2 9.5,0.8 C9.9,0.5 10.2,0.3 10.2,0.3 C10.2,0.3 10.2,0.4 10.1,0.5 C10,0.6 9.9,0.8 9.8,1 C9.6,1.4 9.3,2 9,2.5 C8.7,3.1 8.5,3.6 8.3,4.1 C8.1,4.6 8,4.9 8,4.9 Z" fill="#59402F"/>
            <path d="M2.5,5.7 C2.5,5.7 2.5,5.3 2.6,4.7 C2.7,4.1 2.9,3.4 3.3,2.7 C3.5,2.4 3.7,2 4,1.8 C4.2,1.5 4.5,1.3 4.8,1.1 C5,0.9 5.3,0.8 5.4,0.7 C5.6,0.6 5.6,0.6 5.6,0.6 C5.6,0.6 5.5,0.7 5.4,0.8 C5.3,0.9 5.1,1.1 5,1.3 C4.7,1.7 4.2,2.3 3.9,2.9 C3.5,3.5 3.2,4.2 2.9,4.7 C2.6,5.4 2.5,5.7 2.5,5.7 Z" fill="#59402F"/>
            <path d="M9.1,6.1 C9,5.5 9.4,2.7 10.6,2.5 C11.7,2.3 11.2,3.6 10.8,4.4 C10.3,5.2 9.2,6.5 9.1,6.1 Z" fill="#6C5F57"/>
            <path d="M3.6,6.5 C3.5,5.9 3.9,3.1 5.1,2.9 C6.2,2.7 5.7,4 5.3,4.8 C4.8,5.6 3.7,6.9 3.6,6.5 Z" fill="#6C5F57"/>
            <path d="M0.2,6.8 C0.1,6.2 0.5,3.4 1.7,3.2 C2.8,3 2.3,4.3 1.9,5.1 C1.4,5.9 0.3,7.2 0.2,6.8 Z" fill="#6C5F57"/>
          </g>
          <g transform="translate(49.000000, 51.000000)" id="Shape">
            <path d="M0.2,0.5 C0.2,0.5 7.1,11.3 9.5,11.4 C9.5,11.4 7.1,13 5.5,11.3 C5.5,11.3 9.7,13.5 10.4,18 L7.6,16.8 C7.6,16.8 11,23.5 10.2,27.8 L7.7,24.4 C7.7,24.4 10.4,31.1 5.9,34.3" fill="#8D674A"/>
            <path d="M9.3,11.3 C9.3,11.3 9.1,11.3 8.8,11.2 C8.5,11.1 8.1,10.8 7.6,10.5 C6.7,9.8 5.6,8.7 4.6,7.5 C4.1,6.9 3.7,6.3 3.3,5.7 C2.9,5.1 2.6,4.5 2.3,4.1 C1.7,3.1 1.4,2.4 1.4,2.4 C1.4,2.4 1.9,3 2.6,3.9 C3.3,4.8 4.2,6 5.2,7.1 C5.7,7.7 6.1,8.3 6.6,8.8 C7.1,9.3 7.5,9.8 7.9,10.2 C8.3,10.6 8.6,10.9 8.9,11.1 C9.1,11.3 9.3,11.3 9.3,11.3 Z" fill="#59402F"/>
            <path d="M10.1,17.9 C10.1,17.9 9.9,17.5 9.7,16.9 C9.4,16.3 9.1,15.5 8.6,14.8 C8.4,14.4 8.1,14.1 7.9,13.8 C7.7,13.5 7.4,13.2 7.2,13 C7,12.8 6.8,12.6 6.6,12.4 C6.5,12.3 6.4,12.2 6.4,12.2 C6.4,12.2 6.5,12.2 6.7,12.3 C6.9,12.4 7.2,12.5 7.4,12.7 C7.7,12.9 8,13.1 8.3,13.5 C8.6,13.8 8.9,14.2 9.1,14.6 C9.3,15 9.5,15.4 9.7,15.8 C9.8,16.2 9.9,16.6 10,16.9 C10.1,17.5 10.1,17.9 10.1,17.9 Z" fill="#59402F"/>
            <path d="M9.9,27.2 C9.9,27.2 10.1,26.5 10,25.5 C10,25 9.9,24.4 9.8,23.8 C9.7,23.2 9.5,22.5 9.3,21.9 C9.1,21.3 8.9,20.6 8.7,20 C8.5,19.4 8.3,18.8 8.1,18.4 C7.9,17.9 7.8,17.5 7.7,17.2 C7.6,16.9 7.5,16.7 7.5,16.7 C7.5,16.7 7.6,16.8 7.8,17.1 C8,17.4 8.2,17.7 8.5,18.2 C8.7,18.7 9,19.2 9.3,19.8 C9.6,20.4 9.8,21.1 10,21.7 C10.2,22.4 10.3,23.1 10.4,23.7 C10.5,24.4 10.5,25 10.4,25.5 C10.4,26 10.2,26.5 10.1,26.7 C10,27.1 9.9,27.2 9.9,27.2 Z" fill="#59402F"/>
            <path d="M6.9,33.1 C6.9,33.1 7,33 7.1,32.8 C7.2,32.6 7.4,32.3 7.5,31.9 C7.7,31.1 7.8,30.1 7.8,29 C7.8,27.9 7.7,26.8 7.6,26 C7.5,25.2 7.5,24.6 7.5,24.6 C7.5,24.6 7.6,24.7 7.6,25 C7.7,25.2 7.8,25.6 7.9,26 C8,26.4 8.2,26.9 8.2,27.4 C8.2,27.7 8.3,27.9 8.3,28.2 C8.3,28.5 8.3,28.8 8.4,29 C8.4,29.6 8.4,30.1 8.3,30.7 C8.2,31.2 8,31.7 7.8,32.1 C7.6,32.5 7.4,32.8 7.2,32.9 C7.1,33.1 6.9,33.1 6.9,33.1 Z" fill="#59402F"/>
          </g>
          <path d="M55,75.4 C55,75.4 55.4,78 55.9,82 C56.1,84 56.4,86.3 56.7,88.8 C56.9,91.3 57.2,93.9 57.4,96.6 C57.6,99.3 57.7,101.9 57.8,104.4 C57.9,106.9 57.8,109.2 57.7,111.2 C57.6,112.2 57.5,113.1 57.3,113.9 C57.3,114.1 57.2,114.3 57.1,114.5 C57,114.7 57,114.9 56.8,115 C56.5,115.3 56.2,115.4 56,115.5 C55,116 54.3,116.3 54.3,116.3 C54.3,116.3 54.9,116 55.9,115.4 C56.1,115.2 56.4,115.1 56.6,114.8 C56.7,114.7 56.7,114.5 56.8,114.3 C56.9,114.1 56.9,113.9 56.9,113.7 C57.1,112.9 57.1,112 57.2,111 C57.3,109 57.2,106.7 57.1,104.2 C57,101.7 56.8,99.1 56.7,96.4 C56.5,93.7 56.3,91.1 56.1,88.6 C55.9,86.1 55.7,83.8 55.5,81.8 C55.2,78.1 55,75.4 55,75.4 Z" id="Shape" fill="#59402F"/>
          <path d="M7.9,59.2 C7.9,59.2 9,63.1 11.1,68.8 C12.1,71.7 13.3,75 14.9,78.4 C15.7,80.1 16.5,81.9 17.5,83.6 L18.3,84.8 L19.2,86 C19.8,86.8 20.4,87.6 21,88.4 C23.4,91.7 25.8,94.9 27.9,98.1 C30.1,101.2 32,104.2 33.4,106.9 C34.2,108.2 34.7,109.5 35.3,110.6 C35.6,111.1 35.9,111.6 36,112.2 C36.1,112.8 36,113.3 35.8,113.7 C35.5,114.5 35.1,115.1 34.8,115.5 C34.5,115.9 34.4,116.1 34.4,116.1 C34.4,116.1 34.5,115.9 34.8,115.5 C35,115.1 35.4,114.5 35.7,113.7 C35.8,113.3 36,112.8 35.8,112.3 C35.7,111.8 35.3,111.3 35,110.8 C34.3,109.7 33.8,108.5 33,107.2 C31.5,104.6 29.5,101.7 27.3,98.6 C25.1,95.5 22.7,92.3 20.3,89 C19.7,88.2 19.1,87.4 18.5,86.5 L17.6,85.3 L16.8,84 C15.8,82.3 14.9,80.5 14.2,78.8 C13.4,77.1 12.8,75.3 12.2,73.7 C11.6,72.1 11.1,70.5 10.6,69.1 C9.7,66.2 9,63.8 8.5,62.1 C8.1,60.2 7.9,59.2 7.9,59.2 Z" id="Shape" fill="#59402F"/>
        </g>
        <g id="Group" transform="translate(66.000000, 59.000000)">
          <g fill="#8D674A" id="Shape">
            <path d="M14.7,17 C13.1,39.8 17.8,46.7 17.2,53.2 C16.5,59.7 10.7,83.1 8.7,85.6 C6.7,88.1 2.2,90.7 0.8,93.7 C-0.6,96.7 24.4,98.2 27.6,97 C30.8,95.9 53.5,60.3 57.3,37.6 C62.3,-9.1 16.3,-5.8 14.7,17 Z"/>
            <path d="M55.2,15.4 C55.2,15.4 59.9,27.3 62.2,27.8 C62.2,27.8 59.5,28.9 58.3,26.9 C58.3,26.9 62,29.9 61.8,34.4 L59.3,32.6 C59.3,32.6 61.4,39.8 59.8,43.9 L58,40.1 C58,40.1 59.4,47.2 54.3,49.5"/>
          </g>
          <g transform="translate(54.000000, 17.000000)" fill="#59402F" id="Shape">
            <path d="M8.8,11.3 C8.8,11.3 8.6,11.3 8.3,11.1 C8,10.9 7.7,10.6 7.3,10.1 C6.5,9.2 5.7,7.9 5.1,6.5 C4.8,5.8 4.5,5.1 4.2,4.5 C3.9,3.8 3.7,3.2 3.5,2.7 C3.2,1.6 3,0.9 3,0.9 C3,0.9 3.4,1.6 3.9,2.6 C4.4,3.6 5,5 5.7,6.3 C6,7 6.4,7.6 6.7,8.3 C7,8.9 7.3,9.5 7.6,10 C7.9,10.5 8.2,10.9 8.4,11.1 C8.7,11.2 8.8,11.3 8.8,11.3 Z"/>
            <path d="M8.2,17.9 C8.2,17.9 8.1,17.4 8,16.8 C7.9,16.2 7.7,15.3 7.4,14.5 C7.3,14.1 7.1,13.7 6.9,13.3 C6.7,12.9 6.6,12.6 6.4,12.3 C6.2,12 6.1,11.8 6,11.6 C5.9,11.4 5.8,11.3 5.8,11.3 C5.8,11.3 5.9,11.4 6.1,11.5 C6.3,11.6 6.5,11.8 6.7,12 C6.9,12.2 7.2,12.6 7.4,12.9 C7.6,13.3 7.8,13.7 8,14.1 C8.1,14.5 8.2,15 8.3,15.4 C8.4,15.8 8.4,16.2 8.3,16.6 C8.3,17.5 8.2,17.9 8.2,17.9 Z"/>
            <path d="M6,27 C6,27 6.3,26.4 6.4,25.4 C6.5,24.9 6.5,24.3 6.5,23.7 C6.5,23.1 6.5,22.4 6.5,21.7 C6.5,21 6.4,20.4 6.3,19.7 C6.2,19.1 6.1,18.5 6.1,18 C6,17.5 6,17.1 5.9,16.8 C5.9,16.5 5.9,16.3 5.9,16.3 C5.9,16.3 6,16.5 6.1,16.7 C6.2,17 6.4,17.4 6.5,17.9 C6.6,18.4 6.8,19 6.9,19.6 C7,20.2 7.1,20.9 7.2,21.6 C7.2,22.3 7.2,23 7.2,23.7 C7.1,24.4 7,25 6.8,25.5 C6.6,26 6.4,26.4 6.3,26.7 C6.1,26.9 6,27 6,27 Z"/>
            <path d="M0.6,32.7 C0.6,32.7 1.2,32.4 1.8,31.7 C2.1,31.4 2.4,30.9 2.6,30.4 C2.9,29.9 3.1,29.3 3.2,28.7 C3.3,28.4 3.4,28.1 3.4,27.8 C3.5,27.5 3.5,27.2 3.6,26.9 C3.7,26.3 3.8,25.8 3.9,25.3 C4,24.8 4,24.4 4.1,24.2 C4.1,23.9 4.2,23.8 4.2,23.8 C4.2,23.8 4.2,24 4.3,24.2 C4.3,24.5 4.4,24.9 4.4,25.4 C4.4,25.9 4.4,26.4 4.3,27 C4.3,27.3 4.2,27.6 4.2,27.9 C4.1,28.2 4.1,28.5 4,28.8 C3.8,29.4 3.6,30 3.2,30.6 C3.1,30.9 2.8,31.1 2.7,31.3 C2.5,31.5 2.3,31.7 2.1,31.9 C1.7,32.2 1.3,32.4 1.1,32.5 C0.8,32.7 0.6,32.7 0.6,32.7 Z"/>
          </g>
        </g>
        <path d="M69.7,149.1 C69.7,149.1 69.7,149.1 69.8,149 C69.9,148.9 70,148.8 70.2,148.6 C70.5,148.3 71.1,147.9 71.8,147.3 C72.5,146.8 73.3,146.1 74.1,145.2 C74.9,144.3 75.5,143.1 75.9,141.7 C77.4,136 79.9,128.4 81.5,120.7 C81.9,118.8 82.3,116.8 82.5,114.9 C82.7,113 82.9,111.1 82.7,109.2 C82.5,105.5 81.9,102.1 81.4,99.2 C81.1,97.7 80.9,96.4 80.8,95.2 C80.7,94 80.6,92.9 80.6,92.1 C80.6,91.2 80.6,90.6 80.6,90.1 C80.6,89.6 80.6,89.4 80.6,89.4 C80.6,89.4 80.6,89.6 80.6,90.1 C80.6,90.6 80.6,91.2 80.7,92.1 C80.8,93 80.9,94 81.1,95.2 C81.3,96.4 81.5,97.7 81.8,99.2 C82.4,102.1 83.1,105.5 83.3,109.3 C83.4,111.1 83.3,113.1 83.1,115.1 C82.9,117.1 82.5,119 82.1,120.9 C81.2,124.8 80.2,128.6 79.1,132.2 C78,135.8 76.9,139 76.1,141.9 C75.7,143.3 74.9,144.6 74.1,145.4 C73.3,146.3 72.4,146.9 71.7,147.4 C71,147.9 70.4,148.3 70.1,148.6 C69.9,148.7 69.8,148.9 69.7,149 C69.7,149.1 69.7,149.1 69.7,149.1 Z" id="Shape" fill="#59402F"/>
        <g id="Group" transform="translate(66.000000, 150.000000)">
          <path d="M7.9,5.1 C7.9,5.1 7.9,4.8 7.9,4.3 C8,3.8 8.2,3.2 8.6,2.6 C9,2 9.5,1.6 9.9,1.3 C10.3,1 10.6,0.9 10.6,0.9 C10.6,0.9 10.6,1 10.5,1.1 C10.4,1.2 10.3,1.4 10.2,1.6 C9.9,2 9.5,2.5 9.2,3 C8.8,3.5 8.5,4 8.3,4.4 C8,4.8 7.9,5.1 7.9,5.1 Z" id="Shape" fill="#59402F"/>
          <path d="M2.7,4.1 C2.7,4.1 2.7,3.7 2.8,3.2 C2.9,2.7 3.3,2 3.7,1.5 C4.2,1 4.8,0.5 5.2,0.3 C5.7,0.1 6,0 6,0 C6,0 5.9,0.1 5.8,0.2 C5.7,0.3 5.5,0.4 5.3,0.6 C4.9,0.9 4.5,1.4 4.1,1.9 C3.7,2.4 3.3,2.9 3,3.3 C2.8,3.8 2.7,4.1 2.7,4.1 Z" id="Shape" fill="#59402F"/>
          <path d="M8.8,6.4 C8.8,5.8 9.7,3.1 10.8,3.1 C11.9,3.1 11.2,4.2 10.7,5 C10.1,5.7 8.8,6.8 8.8,6.4 Z" id="Shape" fill="#6C5F57"/>
          <path d="M3.3,5.9 C3.3,5.3 4.2,2.6 5.3,2.6 C6.4,2.6 5.7,3.7 5.2,4.5 C4.7,5.3 3.3,6.3 3.3,5.9 Z" id="Shape" fill="#6C5F57"/>
          <path d="M0.2,4.7 C0.2,4.1 1.1,1.4 2.2,1.4 C3.3,1.4 2.6,2.5 2.1,3.3 C1.6,4.1 0.2,5.1 0.2,4.7 Z" id="Shape" fill="#6C5F57"/>
        </g>
        <path d="M91.8,156.1 C91.8,156.1 92,156.3 92.5,156.2 C92.9,156.1 93.6,155.9 94.2,155.3 C94.9,154.8 95.6,154 96.3,153.1 C97,152.2 97.8,151.1 98.6,149.9 C100.3,147.5 102.1,144.6 104,141.6 C105.9,138.5 107.9,135.2 109.8,131.7 C110.7,130 111.7,128.3 112.5,126.6 C113.4,124.9 114.2,123.2 114.9,121.5 C116.4,118.2 117.6,115 118.6,112.3 C119.6,109.6 120.5,107.3 121,105.7 C121.5,104.1 121.8,103.1 121.8,103.1 C121.8,103.1 121.6,104.1 121.1,105.7 C120.6,107.3 119.9,109.7 118.9,112.4 C118.4,113.8 117.9,115.3 117.3,116.8 C116.7,118.4 116.1,120 115.4,121.7 C114.7,123.4 113.9,125.1 113,126.8 C112.2,128.5 111.3,130.3 110.3,132 C108.4,135.4 106.4,138.8 104.5,141.8 C102.5,144.9 100.6,147.7 98.9,150.1 C97.2,152.5 95.6,154.4 94.2,155.4 C93.5,155.9 92.9,156.2 92.4,156.2 C92,156.3 91.8,156.1 91.8,156.1 Z" id="Shape" fill="#59402F"/>
        <g id="Group">
          <g transform="translate(0.000000, 6.000000)">
            <path d="M70.8,1.2 C50.5,-1.6 27.7,10.3 24.6,15.9 C21.5,21.5 20.9,34.7 20.9,34.7 C20.9,34.7 0.4,45.5 0.8,49.7 C1.2,53.9 7.8,63.8 16.1,64.4 C24.4,65 31.5,65.9 41.2,65.4 C50.9,64.9 68.3,67 77.1,57.2 C77.1,57.2 75.9,61.5 74.2,62.7 C74.2,62.7 85.6,60.1 82.6,49.2 C82.6,49.2 84.6,51 84,56.7 C84,56.7 90.1,50.5 86.2,41.5 C86.2,41.5 88.9,46.4 91.6,46.4 C91.6,46.4 89,42.6 89.1,36.1 C89,29.7 87.8,3.6 70.8,1.2 Z" id="Shape" fill="#8D674A"/>
            <path d="M67.7,0.3 C47.3,-1.7 27.6,10.2 24.5,15.9 C21.4,21.6 20.8,34.7 20.8,34.7 C20.8,34.7 0.4,45.5 0.8,49.7 C1.2,53.9 7.8,63.8 16.1,64.4 C24.4,65 33,67.9 42.6,67.3 C52.2,66.7 68.2,67.1 77,57.3 C77,57.3 75.8,61.6 74.1,62.8 C74.1,62.8 85.5,60.2 82.5,49.3 C82.5,49.3 84.5,51.1 83.9,56.8 C83.9,56.8 90,50.6 86.1,41.6 C86.1,41.6 88.8,46.5 91.5,46.5 C91.5,46.5 96,31.3 96.1,24.8 C96.2,18.3 82.1,1.7 67.7,0.3 Z" id="Shape" fill="#8D674A"/>
            <path d="M0.8,49.7 C1.2,53.7 6.9,62.4 14.4,64.1 C16.9,62.7 19.7,60.7 19.9,58 C19.9,58 36,46.9 21,34.7 C20.9,34.8 0.4,45.5 0.8,49.7 Z" id="Shape" fill="#9E7B5C"/>
            <path d="M1.7,52.9 C0.8,51.3 -0.6,49.7 0.3,48.3 C0.8,47.5 2,46 3,46 C4,46 5.5,49 2.5,50.5 C2.9,52.1 2.3,52.6 1.7,52.9 Z" id="Shape" fill="#332721"/>
            <path d="M7.1,59.7 C7.1,59.7 7.6,59.4 8.4,59 C8.8,58.8 9.3,58.7 9.8,58.5 C10.3,58.4 10.9,58.2 11.5,58.2 C12.1,58.1 12.7,58.1 13.3,58.1 C13.9,58.1 14.4,58.2 14.8,58.3 C15.2,58.4 15.6,58.5 15.8,58.6 C16,58.7 16.2,58.8 16.2,58.8 C16.2,58.8 16,58.8 15.8,58.8 C15.5,58.8 15.2,58.7 14.8,58.7 C14.6,58.7 14.4,58.7 14.1,58.7 C13.9,58.7 13.6,58.7 13.3,58.7 C12.8,58.7 12.2,58.8 11.6,58.8 C10.5,58.9 9.3,59.1 8.5,59.3 C7.7,59.6 7.1,59.7 7.1,59.7 Z" id="Shape" fill="#59402F"/>
            <ellipse id="Oval" fill="#332010" transform="translate(30.900633, 34.100484) rotate(-5.263682) translate(-30.900633, -34.100484) " cx="30.9006333" cy="34.1004837" rx="1.70002894" ry="2.60004426"/>
            <path d="M34.1,27.3 C34.2,28.4 31.1,29.1 29.7,29.2 C28.3,29.3 27,28.6 26.9,27.5 C26.8,26.4 27.9,25.5 29.3,25.3 C30.8,25.2 34,26.2 34.1,27.3 Z" id="Shape" fill="#9E7B5C"/>
            <path d="M20.9,34.8 C20.9,34.8 20.9,34 20.9,32.5 C21,31.1 21,29 21.3,26.5 C21.4,25.3 21.6,23.9 21.9,22.5 C22.2,21.1 22.5,19.6 23.1,18.2 C23.4,17.5 23.7,16.7 24.1,16 C24.6,15.3 25,14.7 25.6,14 C26.7,12.8 27.9,11.6 29.2,10.6 C30.5,9.6 31.9,8.7 33.3,7.9 C34.7,7.1 36.1,6.3 37.5,5.7 C38.9,5 40.3,4.5 41.6,4 C42.9,3.5 44.2,3.1 45.4,2.7 C46.6,2.3 47.7,2 48.7,1.8 C49.7,1.6 50.5,1.3 51.2,1.2 C52.6,0.9 53.4,0.7 53.4,0.7 C53.4,0.7 52.7,1 51.3,1.3 C49.9,1.7 47.9,2.3 45.6,3 C44.4,3.4 43.2,3.8 41.9,4.4 C40.6,4.9 39.2,5.5 37.8,6.2 C36.4,6.9 35,7.6 33.6,8.4 C32.2,9.2 30.9,10.2 29.6,11.1 C28.3,12.1 27.1,13.2 26,14.4 C25.5,15 25,15.6 24.6,16.3 C24.2,17 23.9,17.7 23.6,18.4 C22.5,21.3 22,24.1 21.7,26.5 C21,31.5 20.9,34.8 20.9,34.8 Z" id="Shape" fill="#59402F"/>
            <path d="M74.1,62.8 C74.1,62.8 74.4,62.7 74.8,62.6 C75.3,62.5 75.9,62.2 76.7,61.8 C77.1,61.6 77.5,61.4 77.9,61.1 C78.3,60.9 78.7,60.5 79.1,60.2 C79.5,59.9 79.9,59.5 80.3,59.1 C80.7,58.7 81,58.3 81.3,57.8 C81.6,57.4 81.8,56.8 82.1,56.4 C82.3,55.9 82.4,55.4 82.6,54.9 C82.7,54.4 82.7,53.9 82.8,53.4 C82.9,52.9 82.8,52.5 82.8,52 C82.8,51.6 82.8,51.2 82.7,50.8 C82.7,50.5 82.6,50.2 82.6,49.9 C82.5,49.4 82.5,49.1 82.5,49.1 C82.5,49.1 82.6,49.4 82.7,49.9 C82.8,50.1 82.9,50.4 82.9,50.8 C83,51.1 83.1,51.5 83.1,52 C83.1,52.4 83.2,52.9 83.2,53.4 C83.2,53.9 83.2,54.4 83.1,55 C82.9,55.5 82.9,56.1 82.6,56.6 C82.4,57.1 82.2,57.7 81.8,58.2 C81.5,58.7 81.1,59.1 80.7,59.6 C80.3,60 79.8,60.4 79.4,60.7 C78.5,61.3 77.6,61.8 76.8,62.1 C75.3,62.8 74.1,62.8 74.1,62.8 Z" id="Shape" fill="#59402F"/>
            <path d="M83.9,56.8 C83.9,56.8 84.6,56.1 85.4,54.7 C85.6,54.4 85.8,54 86,53.6 C86.2,53.2 86.4,52.8 86.5,52.3 C86.6,52.1 86.7,51.9 86.7,51.6 C86.8,51.4 86.8,51.1 86.9,50.9 C87,50.4 87.1,49.9 87.2,49.4 C87.3,48.9 87.3,48.4 87.3,47.9 C87.3,47.4 87.3,46.9 87.2,46.4 C87.1,45.9 87.1,45.5 87,45 C86.9,44.6 86.8,44.2 86.7,43.8 C86.6,43.4 86.5,43.1 86.4,42.8 C86.3,42.5 86.2,42.2 86.2,42 C86.1,41.6 86,41.3 86,41.3 C86,41.3 86.1,41.5 86.3,41.9 C86.4,42.1 86.5,42.4 86.7,42.6 C86.9,42.9 87,43.2 87.1,43.6 C87.2,44 87.4,44.4 87.5,44.8 C87.6,45.2 87.7,45.7 87.8,46.2 C87.8,46.7 87.9,47.2 87.9,47.7 C87.9,48.2 87.9,48.7 87.8,49.3 C87.7,49.8 87.6,50.3 87.5,50.8 C87.4,51 87.4,51.3 87.3,51.5 C87.2,51.7 87.1,52 87,52.2 C86.8,52.7 86.6,53.1 86.4,53.5 C86.2,53.9 85.9,54.2 85.7,54.6 C85.2,55.2 84.8,55.7 84.4,56 C84.1,56.6 83.9,56.8 83.9,56.8 Z" id="Shape" fill="#59402F"/>
            <path d="M91.4,46.5 C91.4,46.5 91.2,46.3 91,46 C90.8,45.6 90.4,45.1 90.1,44.4 C89.8,43.7 89.5,42.9 89.3,42 C89.1,41.1 88.9,40.1 88.8,39.2 C88.7,38.7 88.7,38.2 88.7,37.7 C88.7,37.2 88.6,36.7 88.6,36.3 C88.5,35.4 88.6,34.5 88.6,33.8 C88.6,33.1 88.7,32.5 88.7,32 C88.7,31.6 88.8,31.3 88.8,31.3 C88.8,31.3 88.8,31.5 88.9,32 C88.9,32.4 89,33 89,33.8 C89,34.5 89.1,35.4 89.2,36.3 C89.3,37.2 89.4,38.2 89.5,39.1 C89.6,40.1 89.7,41 89.9,41.9 C90.1,42.8 90.3,43.6 90.5,44.3 C90.7,45 90.9,45.5 91.1,45.9 C91.3,46.3 91.4,46.5 91.4,46.5 Z" id="Shape" fill="#59402F"/>
            <path d="M65,0.3 C65,0.3 65.4,0.2 66.1,0.1 C66.4,0.1 66.9,0.1 67.3,0.1 C67.8,0.1 68.3,0.2 68.9,0.3 C69.5,0.4 70.1,0.5 70.8,0.7 C71.4,0.9 72.1,1 72.8,1.3 C73.5,1.5 74.2,1.8 74.9,2.1 C75.6,2.4 76.3,2.8 77,3.1 C77.7,3.4 78.4,3.9 79,4.2 C79.7,4.6 80.3,5 80.9,5.4 C82.1,6.2 83.2,7 84.1,7.7 C84.6,8 85,8.4 85.3,8.7 C85.7,9 86,9.3 86.2,9.5 C86.7,9.9 87,10.2 87,10.2 C87,10.2 86.7,10 86.1,9.6 C85.8,9.4 85.5,9.2 85.1,8.9 C84.7,8.6 84.3,8.3 83.8,8 C83.3,7.7 82.8,7.3 82.2,7 C81.7,6.6 81,6.3 80.4,5.9 C79.8,5.5 79.2,5.1 78.5,4.8 C77.8,4.4 77.2,4 76.5,3.7 C75.8,3.4 75.1,3 74.4,2.7 C73.7,2.4 73,2.1 72.4,1.8 C71.1,1.3 69.8,0.9 68.6,0.6 C68,0.5 67.5,0.4 67,0.3 C66.5,0.2 66.1,0.2 65.8,0.2 C65.4,0.2 65,0.3 65,0.3 Z" id="Shape" fill="#59402F"/>
          </g>
          <g transform="translate(51.000000, 0.000000)" id="Shape">
            <path d="M1,9.2 C1,9.2 2.7,1 7.3,0.4 C11.9,-0.2 22.6,4.3 14.5,17" fill="#8D674A"/>
            <path d="M7.5,2.9 C7.5,2.9 7.9,3.5 8.2,4.4 C8.4,4.9 8.6,5.4 8.7,6 C8.9,6.6 9,7.2 9,7.9 C9,8.2 9,8.6 9,8.9 C8.9,9.2 8.9,9.6 8.8,9.9 C8.7,10.2 8.6,10.5 8.5,10.8 C8.4,11.1 8.3,11.3 8.1,11.5 C7.8,11.9 7.6,12.2 7.3,12.4 C7.1,12.6 7,12.7 7,12.7 C7,12.7 7.1,12.6 7.2,12.3 C7.3,12.2 7.4,12 7.5,11.9 C7.6,11.7 7.7,11.5 7.8,11.3 C7.9,11.1 8,10.8 8,10.6 C8.1,10.3 8.1,10.1 8.2,9.8 C8.3,9.5 8.3,9.2 8.3,8.9 C8.3,8.6 8.3,8.3 8.3,8 C8.3,7.4 8.2,6.7 8.1,6.2 C8,5.6 7.9,5.1 7.8,4.6 C7.7,3.5 7.5,2.9 7.5,2.9 Z" fill="#59402F"/>
            <g transform="translate(8.000000, 11.000000)" fill="#59402F">
              <path d="M1.8,0.9 C1.8,0.9 1.8,1.1 1.7,1.2 C1.6,1.4 1.5,1.6 1.3,1.8 C1.1,2 0.9,2.2 0.7,2.3 C0.5,2.4 0.4,2.4 0.4,2.4 C0.4,2.4 0.4,2.2 0.5,2.1 C0.6,1.9 0.7,1.7 0.9,1.5 C1.1,1.3 1.3,1.1 1.5,1 C1.6,0.9 1.8,0.9 1.8,0.9 Z"/>
              <path d="M3,2.2 C3,2.2 3,2.3 2.9,2.5 C2.8,2.7 2.7,2.8 2.6,3 C2.5,3.1 2.3,3.3 2.1,3.3 C1.9,3.4 1.8,3.4 1.8,3.4 C1.8,3.4 1.8,3.3 1.9,3.1 C2,2.9 2.1,2.8 2.2,2.6 C2.3,2.5 2.5,2.3 2.7,2.3 C2.8,2.2 3,2.2 3,2.2 Z"/>
            </g>
            <path d="M13.9,2 C13.9,2 13.6,1.9 13.2,1.6 C12.7,1.4 12,1.1 11.2,0.9 C11,0.8 10.8,0.8 10.5,0.7 C10.3,0.7 10,0.6 9.8,0.6 C9.6,0.6 9.3,0.6 9,0.6 C8.7,0.6 8.5,0.6 8.2,0.6 C7.9,0.6 7.7,0.7 7.4,0.7 C7.2,0.8 7,0.9 6.7,1 C6.4,1.1 6.2,1.2 5.9,1.3 C5.7,1.4 5.4,1.5 5.2,1.7 C4.8,2.1 4.3,2.4 4,2.8 C3.6,3.2 3.3,3.6 3,4.1 C2.8,4.6 2.4,5 2.3,5.5 C2.1,6 1.9,6.4 1.7,6.8 C1.5,7.2 1.4,7.6 1.3,7.9 C1.2,8.2 1.1,8.5 1,8.8 C0.8,9.3 0.7,9.6 0.7,9.6 C0.7,9.6 0.7,9.3 0.8,8.8 C0.8,8.5 0.9,8.2 1,7.9 C1.1,7.5 1.1,7.1 1.3,6.7 C1.4,6.3 1.6,5.8 1.8,5.3 C2,5 2.3,4.5 2.6,4 C2.8,3.5 3.2,3 3.6,2.5 C3.9,2 4.5,1.6 4.9,1.2 C5.1,1 5.4,0.9 5.7,0.7 C6,0.6 6.2,0.4 6.5,0.3 C6.8,0.2 7.1,0.1 7.4,0.1 C7.7,0.1 8,0 8.3,0 C8.6,0 8.9,0 9.1,0 C9.4,0 9.6,0 9.9,0.1 C10.2,0.2 10.4,0.2 10.6,0.3 C10.8,0.4 11.1,0.5 11.3,0.5 C11.7,0.6 12.1,0.8 12.4,1 C12.7,1.2 13,1.3 13.2,1.5 C13.7,1.9 13.9,2 13.9,2 Z" fill="#59402F"/>
          </g>
        </g>
      </g>
    </g>
  </g>
</svg>