<svg width="184px" height="181px" viewBox="0 0 184 181" version="1.1" xml:space="preserve" xmlns="http://www.w3.org/2000/svg" xmlns:xlink="http://www.w3.org/1999/xlink">
  <!-- Generator: Sketch 52.4 (67378) - http://www.bohemiancoding.com/sketch -->
  <g>
    <title>Slice 1</title>
    <desc>Created with Sketch.</desc>
    <g id="Page-1" stroke="none" stroke-width="1" fill="none" fill-rule="evenodd">
      <g id="llama-b-[animals,mammal,robert-hunter]">
        <g id="Group-83" transform="translate(91.500000, 90.000000) scale(-1, 1) translate(-91.500000, -90.000000) ">
          <g id="Group-5" transform="translate(0.000000, 93.000000)">
            <path d="M28.6417209,7.731555 L5.11846512,0.4984602 C5.11846512,0.4984602 3.20209302,1.1165457 2.87651163,3.8787574 C2.55093023,6.6409691 0.0673953488,46.862671 0.0673953488,46.862671 C0.0673953488,46.862671 -0.631953488,52.955135 3.52246512,52.955135 C12.2812558,52.955135 18.2393953,55.446974 19.2148372,56.700044 C20.1902791,57.952463 17.0432093,46.1042 17.0432093,46.1042 L7.05827907,46.687189 C6.4207907,43.356287 11.6509302,15.839459 11.7915814,15.002996 C11.8345581,14.744973 14.0914884,15.73677 15.2310233,16.549185 C16.3705581,17.3616 33.4440465,26.118786 33.4440465,26.118786 L28.6417209,7.731555 Z" id="Fill-1" fill="#BB9696"/>
            <path d="M3.52233488,52.9552 C3.52233488,52.9552 1.65935814,50.166991 4.4163814,47.713497 C5.64512558,46.619661 14.7418698,46.278447 16.8750791,46.117263 C17.0430791,46.104265 18.2640093,48.650699 19.4302419,56.722856 C19.4302419,56.722856 17.9651256,55.068779 12.1320093,53.904101 C8.58317209,53.195674 7.25675349,53.364007 3.52233488,52.9552" id="Fill-3" fill="#5F5579"/>
            <path d="M28.003907,7.595719 L6.29869767,0.663543 C6.29869767,0.663543 3.31376744,-0.74486 2.77134884,4.6710247 C2.17618605,10.615304 0.0579534884,47.025154 0.0579534884,47.025154 C0.0579534884,47.025154 -0.647906977,52.71271 3.80213953,52.983082 C8.25218605,53.253453 18.1283721,54.33689 19.4847442,57.099102 C19.4847442,57.099102 18.2911628,48.59604 17.0428837,46.1042 L7.05860465,46.862671 C7.05860465,46.862671 7.22074419,40.687665 8.19748837,35.380319 C9.17423256,30.072973 12.1591628,13.066198 12.1591628,12.741232" id="Stroke-9" stroke="#26214B" stroke-width="0.5"/>
            <path d="M32.8335814,25.902358 L11.8348837,14.744973" id="Stroke-11" stroke="#26214B" stroke-width="0.5"/>
            <path d="M3.52233488,52.9552 C3.52233488,52.9552 0.764009302,47.675151 7.0588,46.862736" id="Stroke-13" stroke="#26214B" stroke-width="0.5"/>
          </g>
          <g id="Group-4" transform="translate(144.000000, 104.000000)">
            <path d="M22.024958,75.524391 C22.024958,75.524391 27.667284,67.249454 29.375935,66.030831 C29.615563,65.859899 21.384865,61.934309 20.096865,59.965015 C19.990726,59.802532 23.332493,52.102785 23.990167,50.097095 C24.823656,47.55456 38.038353,20.618122 38.084586,18.449948 C38.145795,15.579848 36.858447,16.016602 34.55854,15.963308 C27.287656,15.796275 18.198726,13.35838 13.260307,2.932818 C8.623377,-6.8564602 -6.790298,17.367811 5.039377,22.512674 C16.869051,27.657537 24.601609,26.141245 22.973702,30.013541 C21.345795,33.885837 13.693981,57.819589 13.055842,60.10605 C12.148121,63.357661 13.134633,64.177225 14.677237,65.75331 C16.861888,67.984528 22.079656,73.330869 22.024958,75.524391" id="Fill-5" fill="#BB9696"/>
            <path d="M15.790595,6.994634 C15.790595,6.994634 20.123433,13.402315 27.096735,14.848414 C34.150781,16.310761 36.972921,15.985795 36.972921,15.985795 C36.972921,15.985795 39.849107,16.03974 36.593293,22.539061 C33.337479,29.038383 20.910688,56.227645 20.096735,59.964755 C19.879898,60.668631 29.375805,66.030572 29.375805,66.030572 C29.375805,66.030572 23.624084,72.042444 22.050223,75.942037 C22.050223,75.942037 22.593293,73.396253 14.182223,65.272101 C11.903153,63.159821 12.8252,61.317913 13.096735,59.91016 C13.36827,58.502407 22.918874,29.742909 22.918874,29.742909 C22.918874,29.742909 22.702037,27.251719 13.802595,24.218486" id="Stroke-15" stroke="#26214B" stroke-width="0.5"/>
            <path d="M21.048865,60.917425 C21.048865,60.917425 17.111935,59.503823 15.511377,61.453619 C13.910819,63.403416 14.253981,65.553391 15.22226,66.293014" id="Stroke-17" stroke="#26214B" stroke-width="0.5"/>
            <path d="M14.403684,65.191509 C14.403684,65.191509 14.210288,60.804467 17.726567,60.443105 C20.755126,60.132437 22.724242,62.166075 24.813172,63.35805 C26.902102,64.550026 29.373916,66.029272 29.259963,66.152759 C22.91894,73.044639 22.484614,75.284955 22.231312,75.524131 C21.942195,75.797752 21.698009,73.884352 19.899498,71.567993 C18.653172,69.962011 15.901358,67.052265 14.403684,65.191509" id="Fill-7" fill="#5F5579"/>
          </g>
          <g id="Group-3" transform="translate(26.000000, 0.000000)">
            <path d="M49.652614,14.7577495 C49.652614,14.7577495 50.7491721,0.0328865672 63.3628465,0.601577205 L53.3512186,14.6830073 L49.652614,14.7577495 Z" id="Fill-19" fill="#D7C3BC"/>
            <path d="M38.3640558,35.6298008 C38.3640558,35.6298008 39.5035907,29.8343558 37.4960558,25.9347628 C35.4885209,22.0351699 35.5933581,17.7846136 35.5933581,17.7846136 C35.5933581,17.7846136 40.7173581,15.174486 48.3450791,14.8995647 C55.2168,14.6525905 54.6463814,14.3997669 54.6463814,14.3997669 C54.6463814,14.3997669 66.7404279,-0.251653731 76.508521,2.83552402 C76.508521,2.83552402 62.8477767,13.3572757 58.6718698,16.3352649 C58.6718698,16.3352649 65.1294512,21.669908 63.920893,29.688771 C62.6341953,38.2295294 57.448986,46.4648198 52.1543814,54.4693843 C46.5022884,63.0146923 42.1987535,71.572349 42.1987535,71.572349 C42.1987535,71.572349 46.1441488,73.5949379 54.944614,75.3029596 C72.5260093,78.7151034 102.479498,72.0013042 108.838102,72.5309989 C119.013172,73.3798103 134.871591,81.3284806 136.716335,82.8447723 C136.716335,82.8447723 136.089265,88.9515349 125.443405,87.8609487 C125.443405,87.8609487 131.641172,99.8372486 133.801079,111.370945 C135.961637,122.904641 134.111684,126.390227 134.111684,126.390227 L103.507033,131.548738 C103.507033,131.548738 92.227591,141.20543 63.0776372,141.921006 C41.548893,142.448751 10.1980093,136.668904 2.5318698,113.528719 C-5.2130605,90.1532594 12.7850791,68.6099582 18.4736372,62.1964277 C30.4114047,48.7376326 38.3640558,35.6298008 38.3640558,35.6298008" id="Fill-21" fill="#D7C3BC"/>
            <path d="M49.671693,14.6054054 C49.671693,14.6054054 50.3599721,7.3086171 54.3483442,3.72944071 C58.1439721,0.321846404 63.0368093,0.601317232 63.0368093,0.601317232 C63.0368093,0.601317232 52.6182047,4.43981655 50.7825767,14.5131151 L49.671693,14.6054054 Z" id="Fill-25" fill="#BB968C"/>
            <path d="M54.6533488,14.8998897 C54.3277674,14.5950715 65.3773488,0.585783853 76.35986,2.79750299 C76.35986,2.79750299 72.8045116,2.61162239 54.6533488,14.8998897" id="Fill-27" fill="#BB968C"/>
            <path d="M54.7487442,15.2921237 C54.7487442,15.2921237 70.7276279,3.55304912 76.25014,3.03180353" id="Stroke-29" stroke="#26214B" stroke-width="0.5"/>
            <path d="M22.2884744,28.1346532 C22.2884744,28.1346532 31.1169395,26.5039734 33.538614,21.7568689 C34.6957302,19.4899056 31.6385209,19.8538676 35.8385209,17.7571864 C39.0396372,16.1590033 37.7164744,18.4097183 36.8419628,18.7047875 C35.9668,18.9998567 48.5414047,17.4315704 52.3012186,19.7238811 C55.4111721,21.6203832 56.7564744,27.0707142 50.7488465,33.2847156 C45.9953581,38.2008024 47.9162884,34.832854 47.9162884,34.832854 L46.9890326,35.7921539 C46.9890326,35.7921539 34.7797302,34.4922896 28.8450326,35.407394 C23.0321023,36.3043004 21.7968465,36.0287292 21.5936837,35.1350725 C21.3898698,34.2414157 18.9922884,28.7436396 22.2884744,28.1346532" id="Fill-23" fill="#F0E1DB"/>
            <path d="M34.8742791,18.3317265 C34.8742791,18.3317265 37.2210698,16.9720684 37.818186,17.2424402 C38.4153023,17.5128119 36.8414419,18.7047875 36.8414419,18.7047875 C36.8414419,18.7047875 49.4844186,17.3503289 52.7949302,20.0585962 C56.1054419,22.7668635 54.965907,26.6125121 53.8804186,29.103702 C52.7949302,31.594892 47.4775349,36.6318662 47.4775349,36.6318662 L47.965907,34.6281254 C47.965907,34.6281254 47.5875814,35.8538974 46.5001395,35.7109123 C46.5001395,35.7109123 38.0897209,34.3564537 25.5548372,35.7109123 C24.0897209,35.819451 21.9734419,36.739755 21.3763256,34.411048 C20.7792093,32.0823411 20.4536279,29.8075786 20.6164186,29.6450955 C20.7792093,29.4826125 20.3455349,28.3452312 22.950186,28.0202651 C25.5548372,27.6952991 35.334,24.1746166 33.5374419,19.4626084 C33.5374419,19.4626084 37.2757674,14.3716898 54.5856279,14.6966559 C54.5856279,14.6966559 66.0897209,0.0731823609 76.508326,2.83539403 L58.5466512,16.430025 C58.5466512,16.430025 56.8646977,17.675295 58.0582791,18.8126763" id="Stroke-31" stroke="#26214B" stroke-width="0.5"/>
            <path d="M39.6092093,23.1998483 C39.6092093,23.1998483 46.7173023,23.4715199 47.2603721,23.4169256 C47.2603721,23.4169256 46.3376744,27.4244073 43.4347907,27.0454969 C43.1365581,26.9369582 40.5859535,27.369813 39.6092093,23.1998483" id="Fill-33" fill="#26214B"/>
            <path d="M21.267907,28.9952934 L27.5086512,28.9952934 C27.5086512,28.9952934 24.0353488,32.9494806 21.5394419,32.8409419 C20.3653953,32.8428917 20.9716279,32.6505118 20.9716279,32.6505118 C20.9716279,32.6505118 20.3347907,29.8519039 20.6909767,29.3001115 C20.9149767,28.9530478 21.267907,28.9952934 21.267907,28.9952934" id="Fill-35" fill="#26214B"/>
            <path d="M39.1748837,23.7145946 C39.1748837,23.7145946 39.1931163,24.0369609 39.2569302,24.5042621 C39.2868837,24.7382377 39.3389767,25.0079596 39.4093023,25.2893802 C39.4392558,25.4317153 39.4861395,25.5734005 39.5317209,25.7170355 C39.5688372,25.8645701 39.639814,26.000406 39.6938605,26.1420912 C39.7589767,26.277927 39.8247442,26.4157126 39.9022326,26.5424494 C39.9927442,26.6581373 40.0533023,26.7972228 40.156186,26.8947126 C40.2512558,26.9974019 40.3326512,27.11114 40.4374884,27.188482 C40.5377674,27.2723232 40.6256744,27.3633137 40.7298605,27.4140084 C40.8294884,27.4712024 40.9180465,27.532946 40.9994419,27.5836407 C41.0873488,27.6219867 41.1635349,27.6551332 41.2266977,27.6824304 C41.3543256,27.7422242 41.4272558,27.7766706 41.4272558,27.7766706 C41.4272558,27.7766706 41.347814,27.7643218 41.2084651,27.7428741 C41.0665116,27.7233761 40.8646512,27.6850301 40.6406512,27.5738917 C40.5208372,27.5342459 40.4133953,27.4517045 40.2916279,27.3756624 C40.164,27.3041699 40.055907,27.197581 39.943907,27.0857927 C39.8227907,26.9818035 39.7374884,26.8420681 39.6372093,26.7101319 C39.5473488,26.5723463 39.4711628,26.4228619 39.3969302,26.2740274 C39.271907,25.9666095 39.1683721,25.6507425 39.1293023,25.3459243 C39.0752558,25.0430559 39.0765581,24.7564358 39.0752558,24.5140111 C39.0889302,24.0272119 39.1748837,23.7145946 39.1748837,23.7145946" id="Fill-59" fill="#26214B"/>
            <path d="M53.3510233,14.6828123 L63.3626512,0.601382225 C63.3626512,0.601382225 51.605907,-1.00330027 49.6524186,14.7575545" id="Stroke-37" stroke="#26214B" stroke-width="0.5"/>
            <path d="M63.3626512,0.601382225 C51.7641395,4.82594125 50.7489767,14.7575545 50.7489767,14.7575545" id="Stroke-39" stroke="#26214B" stroke-width="0.5"/>
            <path d="M58.5469767,16.430155 C58.5469767,16.430155 65.2754419,21.7647981 63.9731163,30.3763992 C62.6707907,38.9880003 54.4928372,51.5804358 50.2986977,57.6735498 C46.1045581,63.7666638 41.4266047,73.4344046 40.7754419,75.3029596" id="Stroke-41" stroke="#26214B" stroke-width="0.5"/>
            <path d="M42.3041116,71.8705379 C42.3041116,71.8705379 53.879838,76.2777278 65.9263553,76.2777278 C77.972873,76.2777278 105.11856,73.028067 105.11856,73.028067 C105.11856,73.028067 108.321631,72.501622 110.254934,72.8610345 C114.64182,73.6779992 134.984155,91.0636844 134.949732,124.535191" id="Stroke-43" stroke="#26214B" stroke-width="0.5"/>
            <path d="M125.279702,88.0725016 C124.969749,88.1277459 134.827702,89.0733972 136.822214,83.1427662 C136.822214,83.1427662 120.168726,73.1676075 107.719795,72.7594501" id="Stroke-45" stroke="#26214B" stroke-width="0.5"/>
            <path d="M130.014633,88.0470893 C130.014633,88.0470893 129.974912,87.9515493 129.905888,87.7845167 C129.817981,87.6434814 129.692958,87.4413525 129.54254,87.1989278 C129.412958,86.948054 129.145981,86.6757324 128.919377,86.3715642 C128.678447,86.0693457 128.421237,85.7476293 128.164028,85.425263 C127.021888,84.217689 125.8804,83.010765 125.8804,83.010765 L128.399098,85.2003864 C128.692121,85.501305 128.985144,85.8022236 129.259284,86.0842942 C129.528214,86.3813132 129.805609,86.6055398 129.997702,86.8921598 C130.198912,87.1644814 130.36626,87.3919577 130.48347,87.5505411 C130.570074,87.7123742 130.618912,87.8046646 130.618912,87.8046646 L130.014633,88.0470893 Z" id="Fill-47" fill="#26214B"/>
            <path d="M134.437916,86.0972928 C134.437916,86.0972928 134.38387,86.008902 134.290102,85.8548681 C134.181358,85.7287813 134.027033,85.5487501 133.841451,85.3323227 C133.674102,85.1041965 133.368056,84.8760703 133.097823,84.610248 C132.813265,84.3489753 132.509172,84.0701544 132.20573,83.7906836 C130.892335,82.7735398 129.578288,81.7550961 129.578288,81.7550961 L132.403033,83.5326605 C132.739033,83.7848342 133.075033,84.0376578 133.390195,84.2742331 C133.7008,84.5264068 134.009451,84.7051381 134.243219,84.9586117 C134.484149,85.1971368 134.684707,85.3966659 134.825358,85.5357514 C134.934753,85.6819862 134.997265,85.7658274 134.997265,85.7658274 L134.437916,86.0972928 Z" id="Fill-49" fill="#26214B"/>
            <path d="M103.612651,131.847057 C103.612651,131.847057 88.473116,141.921006 61.6126512,141.921006 C34.752186,141.921006 5.0428837,133.309405 1.0545116,107.555843 C-1.5501395,85.4581495 12.4446512,69.5107642 14.9731163,66.3663924 C16.5723721,64.4198456 37.0325581,40.6914725 38.4156279,35.1280532" id="Stroke-51" stroke="#26214B" stroke-width="0.5"/>
            <path d="M88.447005,138.47461 C88.447005,138.47461 87.088028,138.816475 85.024493,139.081647 C84.506819,139.132992 83.948772,139.218133 83.353609,139.252579 C82.759098,139.301974 82.132028,139.346819 81.481516,139.359168 C80.832307,139.394914 80.159005,139.376716 79.477237,139.368267 C78.794167,139.364368 78.102633,139.288326 77.411749,139.250629 C76.72347,139.161589 76.033237,139.090746 75.361237,138.971809 C74.6964,138.819724 74.027005,138.734583 73.4070977,138.537004 C73.0951907,138.445364 72.7891442,138.355673 72.4889581,138.267932 C72.3391907,138.223737 72.1907256,138.180191 72.0448651,138.136646 C71.9029116,138.080752 71.7629116,138.024207 71.6248651,137.968963 C71.0778884,137.734338 70.5374233,137.566655 70.0822605,137.316431 C69.6251442,137.071407 69.2057953,136.84653 68.8346326,136.647651 C68.4699814,136.437723 68.1847721,136.201798 67.9334233,136.034115 C67.440493,135.685752 67.1591907,135.486222 67.1591907,135.486222 C67.1591907,135.486222 67.4444,135.679902 67.9451442,136.018517 C68.1990977,136.18035 68.488214,136.409126 68.8554698,136.611905 C69.2298884,136.802335 69.652493,137.017463 70.1128651,137.251438 C70.5699814,137.491913 71.1130512,137.647897 71.6606791,137.869524 C71.7993767,137.921518 71.9387256,137.974163 72.0806791,138.028107 C72.2278419,138.068403 72.3756558,138.108699 72.5254233,138.148994 C72.8256093,138.230236 73.1310047,138.313427 73.4429116,138.397269 C74.061516,138.581199 74.729609,138.652042 75.391842,138.788528 C76.060586,138.893817 76.747563,138.949061 77.430633,139.024453 C78.11826,139.046551 78.803935,139.108944 79.481144,139.098545 C80.158353,139.092046 80.824493,139.097245 81.467842,139.048501 C82.111842,139.023153 82.733051,138.966609 83.3204,138.904866 C83.909051,138.85807 84.460586,138.76188 84.9724,138.701437 C87.015749,138.395319 88.333702,138.033956 88.333702,138.033956 L88.447005,138.47461 Z" id="Fill-53" fill="#26214B"/>
            <path d="M66.2725023,142.072164 C66.2725023,142.072164 64.8705488,142.080537 62.8037581,141.84591 C62.2886884,141.772467 61.7267349,141.722422 61.139386,141.614533 C60.5507349,141.520943 59.9314791,141.414353 59.2959442,141.272667 C58.6571535,141.151779 58.0085953,140.973697 57.3476651,140.803414 C56.6854326,140.637031 56.0323163,140.397854 55.3700837,140.197024 C54.7241302,139.946149 54.0697116,139.713473 53.4465488,139.43725 C52.8364093,139.132431 52.2067349,138.890005 51.6519442,138.550089 C51.371293,138.386955 51.0945488,138.226421 50.8249674,138.069786 C50.6895256,137.991794 50.5560372,137.913802 50.4245023,137.83711 C50.3007814,137.748069 50.1777116,137.660327 50.0572465,137.573236 C49.5818977,137.215122 49.0974326,136.923951 48.7152,136.572336 C48.3297116,136.22527 47.9761302,135.908102 47.6635721,135.62603 C47.3601302,135.334859 47.139386,135.037839 46.9355721,134.815561 C46.5396651,134.359956 46.3143628,134.098682 46.3143628,134.098682 C46.3143628,134.098682 46.5455256,134.354757 46.9498977,134.802562 C47.1582698,135.02029 47.3835721,135.312111 47.6928744,135.595483 C48.0106419,135.869756 48.3694326,136.179775 48.7601302,136.517091 C49.1469209,136.858957 49.6365953,137.139729 50.1158512,137.485495 C50.2376186,137.569336 50.3606884,137.653828 50.4857116,137.740269 C50.6185488,137.813062 50.7526884,137.888455 50.8887814,137.963197 C51.1603163,138.113332 51.4383628,138.267367 51.7203163,138.423351 C52.2777116,138.748969 52.9093395,138.976446 53.5188279,139.267617 C54.143293,139.528241 54.7977116,139.745969 55.4423628,139.981896 C56.1052465,140.167127 56.7564093,140.390705 57.4160372,140.54214 C58.0756651,140.697475 58.7209674,140.861258 59.3578047,140.967198 C59.9900837,141.095885 60.6054326,141.188826 61.1908279,141.269418 C61.7742698,141.363658 62.3323163,141.402004 62.8434791,141.464398 C64.9011535,141.653529 66.267293,141.617783 66.267293,141.617783 L66.2725023,142.072164 Z" id="Fill-55" fill="#26214B"/>
            <path d="M1.7679907,91.5220815 C1.7679907,91.5220815 2.0675256,90.4795904 2.6620372,88.9834465 C2.8196186,88.6116853 2.9739442,88.203528 3.1673395,87.7836718 C3.3548744,87.3618658 3.5541302,86.9179621 3.781386,86.4682091 C3.9949674,86.0119567 4.2456651,85.5550544 4.4957116,85.0903529 C4.7398977,84.6217518 5.0348744,84.170049 5.3038047,83.7066474 C5.5948744,83.2549445 5.8918047,82.8077912 6.193293,82.3736365 C6.5182233,81.9563801 6.8132,81.5274248 7.1420372,81.1459147 C7.4793395,80.7728536 7.7762698,80.385494 8.1096651,80.0663773 C8.4443628,79.7485605 8.7425953,79.4300938 9.0479907,79.1681711 C9.3605488,78.9159974 9.6477116,78.6833217 9.9016651,78.4785931 C10.1536651,78.2706148 10.4095721,78.1393285 10.6016651,78.0054425 C10.9962698,77.7526189 11.2215721,77.6083339 11.2215721,77.6083339 C11.2215721,77.6083339 11.0001767,77.7584682 10.6127349,78.0223407 C10.4245488,78.1601263 10.1732,78.297262 9.9270605,78.5110897 C9.6796186,78.7229676 9.4002698,78.9614927 9.0955256,79.2208156 C8.7992465,79.4892376 8.5101302,79.8142037 8.1865023,80.1385198 C7.8641767,80.4641358 7.5789674,80.8579947 7.2546884,81.2362552 C6.9375721,81.6229649 6.6562698,82.0571195 6.345014,82.4795754 C6.0585023,82.9176297 5.7752465,83.3693326 5.4985023,83.8236351 C5.2438977,84.2915863 4.9645488,84.7452389 4.7353395,85.2170897 C4.4983163,85.6850408 4.2632465,86.1438929 4.0626884,86.6014452 C3.8497581,87.0524981 3.6641767,87.4977016 3.4903163,87.9201575 C3.309293,88.3400137 3.1673395,88.748821 3.0214791,89.1199323 C2.4712465,90.6212756 2.2068744,91.6436189 2.2068744,91.6436189 L1.7679907,91.5220815 Z" id="Fill-57" fill="#26214B"/>
          </g>
          <g id="Group-2" transform="translate(23.000000, 117.000000)">
            <path d="M20.1434419,2.118786 L2.9416744,5.152019 C2.9416744,5.152019 -0.1630698,5.608272 1.3684651,9.674247 C2.9,13.740223 19.0579535,49.537186 20.1974884,51.486983 C21.3370233,53.436779 23.4266047,53.436779 27.0620465,51.405741 C30.7469767,49.346756 38.5049302,47.058995 40.8725581,47.397609 C41.631814,47.506148 33.3027907,39.571126 33.2077209,39.476236 C33.1133023,39.381996 24.8109767,45.772779 24.8109767,45.772779 L15.9655814,16.25481 L32.4614884,15.036837" id="Fill-61" fill="#D7C3BC"/>
            <path d="M24.685693,52.524079 C24.685693,52.524079 20.6569488,50.02639 24.8107163,45.772584 C26.9061581,43.627158 33.1123907,39.544934 33.1123907,39.544934 L41.469414,47.722381 C41.469414,47.722381 40.0720186,46.226887 27.9766698,51.17872 C27.0429023,51.56088 24.8107163,52.596872 24.685693,52.524079" id="Fill-63" fill="#5F5579"/>
            <path d="M20.2528372,1.902358 L3.3766512,4.935592 C3.3766512,4.935592 -0.747814,5.152669 1.5859535,10.731037 C3.9197209,16.309405 19.4929302,50.051932 19.4929302,50.051932 C19.4929302,50.051932 20.904,54.438325 24.8109767,52.597067 C28.7179535,50.755809 38.3226047,46.639139 41.4696744,47.722576 L33.1133023,39.381996 L24.648186,45.772779 L15.9655814,16.25481 L33.276093,15.063485" id="Stroke-65" stroke="#26214B" stroke-width="0.5"/>
            <path d="M19.4884372,0.848753 C19.4884372,0.848753 19.8042512,1.219215 20.3577395,1.868497 C20.9086233,2.517129 21.7128093,3.427684 22.6758791,4.513721 C23.1701116,5.046015 23.6871349,5.636804 24.2575535,6.240591 C24.8182047,6.852827 25.4263907,7.480661 26.0547628,8.129943 C26.667507,8.795474 27.359693,9.422658 28.0212744,10.100538 C28.6913209,10.770618 29.411507,11.407551 30.1102047,12.067882 C30.8362512,12.695067 31.5408093,13.350199 32.2720651,13.947486 C33.0241581,14.516177 33.7052744,15.15961 34.4423907,15.673056 C34.8044372,15.938878 35.1612744,16.200801 35.5102977,16.456874 C35.8528093,16.723996 36.1966233,16.97227 36.5469488,17.188048 C37.2456465,17.623502 37.8759721,18.093403 38.499786,18.454116 C39.1288093,18.804429 39.7011814,19.139794 40.2103907,19.438763 C40.7215535,19.732532 41.1975535,19.924262 41.5752279,20.119892 C42.339693,20.502702 42.7766233,20.721079 42.7766233,20.721079 C42.7766233,20.721079 42.3064837,20.599542 41.4821116,20.361017 C41.0751349,20.22973 40.5561581,20.120542 40.0046233,19.891766 C39.451786,19.665589 38.8260186,19.408216 38.147507,19.112497 C37.4696465,18.816128 36.7800651,18.41122 36.0325302,18.010862 C35.2752279,17.624152 34.5524372,17.100957 33.7729953,16.602459 C33.3809953,16.356135 33.0052744,16.076664 32.6262977,15.790044 C32.2440651,15.508623 31.8605302,15.218104 31.4776465,14.920435 C30.7183907,14.319897 29.9864837,13.663466 29.2343907,13.029132 C28.5311349,12.344104 27.8050884,11.680523 27.1330884,10.987045 C26.4623907,10.292268 25.8099256,9.60139 25.2128093,8.903363 C24.5974605,8.221584 24.0400651,7.530056 23.5210884,6.868425 C22.9851814,6.220443 22.5300186,5.566611 22.0943907,4.977772 C20.3805302,2.595121 19.4884372,0.848753 19.4884372,0.848753" id="Fill-67" fill="#26214B"/>
            <path d="M24.8109767,52.597067 C24.8109767,52.597067 21.0674419,50.701215 24.648186,45.772779" id="Stroke-69" stroke="#26214B" stroke-width="0.5"/>
          </g>
          <g id="Group" transform="translate(115.000000, 95.000000)">
            <path d="M7.931851,36.691593 C7.931851,36.691593 16.186642,44.862541 37.317526,46.437326 C37.317526,46.437326 15.622735,63.203626 13.680316,65.295108 C10.298828,68.937328 16.1632,73.737077 16.562363,83.732383 L24.813898,74.110138 C23.918549,73.459555 20.837898,68.273097 22.411758,66.377245 C23.985619,64.481393 49.80227,47.570808 56.274177,44.016979 C59.566456,42.209518 59.659572,40.285068 57.48013,38.788275 C50.670921,34.112013 41.58134,28.370512 39.651293,22.801243 C37.882084,17.696676 32.412316,-3.5021609 17.977991,0.9388255 C3.543665,5.379812 -5.410474,23.224999 7.931851,36.691593" id="Fill-71" fill="#D7C3BC"/>
            <path d="M16.531758,83.991901 C16.531758,83.991901 16.815665,81.164696 13.270735,70.936714 C13.03306,70.251035 12.547293,68.999266 13.775386,68.623605 C14.870642,68.28824 15.295851,68.971319 15.295851,68.971319 C15.5192,68.413027 15.454084,66.988376 17.099572,65.875692 C18.244967,65.101623 22.020409,65.737907 22.020409,66.717354 C22.020409,68.19335 22.212502,71.0706 24.640688,73.999844 C24.732502,74.110333 17.218084,82.450912 16.531758,83.991901" id="Fill-73" fill="#5F5579"/>
            <path d="M38.94986,20.653348 C38.94986,20.653348 39.926605,26.719164 48.554512,32.677093 L57.182419,38.635021 C57.182419,38.635021 59.135907,39.880291 58.810326,41.288694 C58.484744,42.697097 55.782419,44.416167 52.244,46.434207 C48.705581,48.452246 25.057953,63.440331 22.236465,66.473565 C22.236465,66.473565 20.879442,69.506148 24.732372,74.110268 C24.732372,74.110268 18.33014,80.718778 16.484744,84.076327 C16.484744,84.076327 16.647535,79.851768 13.120186,70.752718 C13.120186,70.752718 11.438233,66.852475 14.368465,64.523768 C17.298698,62.195061 42.585302,42.209647 42.585302,42.209647" id="Stroke-75" stroke="#26214B" stroke-width="0.5"/>
            <path d="M2.538791,0.3969121 C2.538791,0.3969121 -5.709488,30.510869 11.601023,39.230358 C26.344651,46.656483 34.328558,46.061795 37.236,46.437456" id="Stroke-77" stroke="#26214B" stroke-width="0.5"/>
            <path d="M22.020279,66.636048 C22.020279,66.636048 19.957395,64.956623 17.841116,65.552611 C15.724837,66.148599 15.182419,68.802272 15.182419,68.802272 C15.182419,68.802272 14.154233,68.24008 13.445767,68.802272 C12.737302,69.364463 12.945023,70.247071 12.945023,70.247071" id="Stroke-79" stroke="#26214B" stroke-width="0.5"/>
            <path d="M18.415312,81.277329 C18.415312,81.277329 19.008521,74.408196 15.182288,68.802532" id="Stroke-81" stroke="#26214B" stroke-width="0.5"/>
          </g>
        </g>
      </g>
    </g>
  </g>
</svg>