<svg version="1.1" width="78" height="74" xmlns="http://www.w3.org/2000/svg" xmlns:xlink="http://www.w3.org/1999/xlink">
  <!-- Exported by Scratch - http://scratch.mit.edu/ -->
  <g id="ID0.051367413718253374">
    <g id="ID0.8733905404806137">
      <g id="ID0.1347602866590023">
        <path id="ID0.9752935594879091" fill="#00CCCC" d="M 77.670 55.770 L 77.670 56.390 C 77.670 62.940 73.440 68.270 66.860 70.050 C 65.040 70.580 62.980 70.730 58.140 70.730 C 58.140 70.730 57.350 70.780 55.320 71.300 C 52.930 71.920 50.590 72.530 48.290 73.110 C 48.160 73.150 48.040 73.180 47.910 73.200 C 46 73.620 44.330 73.820 42.800 73.820 C 42.460 73.820 42.120 73.810 41.800 73.790 C 39.590 73.680 36.520 72.890 33.520 70.050 C 33.380 69.920 33.250 69.790 33.120 69.660 C 31.320 70.050 29.290 70.220 26.910 70.150 C 26.660 70.200 26.360 70.270 26.020 70.340 C 23.790 70.830 22.200 71.060 20.770 71.080 C 20.670 71.090 20.470 71.120 20.130 71.190 C 18.380 71.530 16.850 71.700 15.480 71.700 C 12.360 71.700 9.410 70.940 6.710 69.430 C 6.450 69.290 6.210 69.140 5.970 68.980 C 2.130 66.440 0.110 61.990 0.700 57.380 C 1.400 52.030 4.590 47.900 9.230 45.990 L 9.230 44.810 C 8.780 43.060 8.760 41.200 9.200 39.410 C 9.220 39.260 9.270 38.750 9.240 37.710 C 9.230 37.660 9.230 37.610 9.230 37.570 C 9.180 34.280 9.170 31.760 9.210 29.910 C 8.170 29.540 7.170 29.060 6.230 28.470 C 2.320 26.030 0 21.870 0 17.330 C 0 13.310 1.810 6.240 13.930 4.050 C 16.080 3.650 19.300 3.040 23.600 2.240 C 23.890 2.170 24.380 2.040 25.070 1.860 C 26.910 1.370 28.450 1.140 29.910 1.140 C 31.330 1.140 32.640 1.320 33.840 1.630 C 34.390 1.400 34.950 1.200 35.520 1.040 C 37.370 0.500 39.610 0.270 47.130 0.270 C 48.980 0.150 51.430 0.060 54.590 0 C 54.980 0 55.380 0.010 55.770 0.040 C 55.860 0.040 55.960 0.030 56.080 0.030 C 56.330 0.010 56.570 0 56.820 0 L 58.930 0 C 65.150 0 70.310 3.030 72.730 8.110 C 72.800 8.240 72.860 8.380 72.920 8.520 C 74.930 13.220 74.020 18.480 70.490 22.600 C 68.270 25.240 65.420 26.310 63.110 26.940 C 61.330 27.470 59.410 27.640 57.080 27.490 C 56.620 27.870 55.840 28.560 54.680 29.750 C 54.620 29.810 54.570 29.870 54.510 29.930 C 54.780 30.600 55.080 31.310 55.380 32.060 C 56.710 35.300 57.390 36.800 57.700 37.440 C 58.020 37.900 58.320 38.390 58.570 38.900 C 59.080 39.910 59.820 41.340 60.790 43.180 C 61.030 43.150 61.290 43.110 61.550 43.080 C 63.910 42.640 66.420 42.900 68.940 43.840 C 72.470 45.170 75.150 47.640 76.520 50.810 L 76.790 51.440 C 77.370 52.810 77.670 54.280 77.670 55.770 Z "/>
      </g>
    </g>
    <g id="ID0.1337555479258299">
      <path id="ID0.23075303388759494" fill="#FFFFFF" d="M 66.410 55.157 C 66.586 55.568 66.674 55.773 66.674 55.773 C 66.674 55.773 66.674 55.979 66.674 56.388 C 66.674 57.972 65.736 58.998 63.860 59.467 C 63.333 59.643 61.426 59.731 58.143 59.731 C 56.793 59.731 54.932 60.039 52.557 60.655 C 50.182 61.270 47.851 61.873 45.564 62.458 C 44.214 62.753 43.160 62.869 42.398 62.811 C 42.046 62.811 41.606 62.562 41.079 62.063 C 40.551 61.566 40.287 61.082 40.287 60.612 C 40.287 60.379 40.345 60.173 40.463 59.996 C 41.225 58.883 42.632 58.092 44.686 57.621 C 47.089 57.152 48.613 56.683 49.259 56.214 C 47.676 53.634 45.418 49.676 42.487 44.339 C 41.724 42.523 40.345 39.531 38.353 35.367 C 38.058 34.664 37.531 33.520 36.769 31.936 C 35.362 32.934 33.719 34.399 31.843 36.334 C 29.673 38.563 28.090 40.116 27.093 40.996 C 26.683 41.290 26.038 41.817 25.158 42.579 C 25.040 47.623 25.274 51.522 25.861 54.278 C 26.682 54.337 27.722 54.263 28.984 54.057 C 30.244 53.853 31.051 53.749 31.403 53.749 C 32.341 53.749 33.015 54.160 33.426 54.980 C 33.659 55.508 33.778 55.948 33.778 56.299 C 33.778 58.469 31.285 59.408 26.301 59.113 C 26.007 59.113 25.127 59.276 23.662 59.597 C 22.195 59.920 21.155 60.080 20.539 60.080 C 19.924 60.080 19.088 60.184 18.032 60.389 C 16.976 60.595 16.126 60.697 15.481 60.697 C 14.250 60.697 13.106 60.404 12.050 59.817 C 11.698 59.584 11.551 59.231 11.611 58.761 C 11.840 57.002 12.876 56.034 14.715 55.859 C 17.702 55.507 19.368 55.243 19.713 55.067 C 20.058 54.891 20.232 54.422 20.232 53.660 C 20.232 53.133 20.232 52.311 20.232 51.197 C 20.232 50.025 20.232 49.204 20.232 48.734 L 20.232 42.753 C 20.232 42.695 20.114 42.460 19.879 42.050 C 20.172 40.937 20.289 39.382 20.232 37.388 C 20.172 33.694 20.172 30.996 20.232 29.295 C 20.290 26.832 20.496 23.813 20.847 20.235 C 20.964 19.355 20.905 18.858 20.671 18.740 C 20.025 18.799 18.970 18.990 17.505 19.311 C 16.038 19.634 14.983 19.794 14.338 19.794 C 13.516 19.794 12.755 19.574 12.051 19.135 C 11.348 18.696 10.995 18.095 10.995 17.331 C 10.995 16.276 12.637 15.455 15.921 14.868 C 18.090 14.459 21.375 13.844 25.773 13.021 C 26.066 12.963 26.770 12.788 27.884 12.493 C 28.764 12.260 29.437 12.141 29.907 12.141 C 31.548 12.141 32.370 12.728 32.370 13.901 C 32.370 14.839 32.073 15.690 31.479 16.452 C 30.767 16.922 29.712 17.199 28.319 17.287 C 26.924 17.375 26.167 17.493 26.048 17.640 C 25.929 17.787 25.723 19.091 25.427 21.554 C 25.070 24.368 24.893 26.334 24.893 27.448 C 24.893 28.094 24.893 29.383 24.893 31.318 C 24.893 33.195 24.893 34.631 24.893 35.628 L 25.157 35.893 L 44.684 17.466 C 43.862 17.408 42.602 17.349 40.902 17.288 C 38.028 17.230 36.504 16.079 36.328 13.835 C 36.328 13.481 36.577 13.053 37.075 12.550 C 37.573 12.048 38.056 11.738 38.527 11.619 C 39.288 11.383 42.279 11.265 47.499 11.265 C 49.199 11.147 51.633 11.059 54.799 10.999 C 55.268 11.059 55.944 11.059 56.822 10.999 C 57.818 10.999 58.523 10.999 58.933 10.999 C 60.925 10.999 62.216 11.615 62.804 12.847 C 63.156 13.668 62.919 14.548 62.099 15.486 C 61.865 15.780 61.189 16.073 60.076 16.366 C 59.373 16.600 58.142 16.600 56.383 16.366 C 55.619 16.308 54.477 16.308 52.953 16.366 C 52.777 16.953 52.424 17.392 51.896 17.685 C 50.546 18.506 48.847 19.972 46.794 22.082 C 45.093 23.842 43.393 25.631 41.692 27.448 C 42.396 29.325 43.568 32.257 45.211 36.244 C 47.204 41.112 48.378 43.633 48.730 43.808 C 49.316 44.982 50.195 46.682 51.369 48.910 C 53.890 52.898 55.355 54.891 55.767 54.891 C 57.466 54.715 60.017 54.394 63.419 53.923 C 63.829 53.807 64.386 53.879 65.091 54.143 C 65.795 54.410 66.234 54.747 66.410 55.157 Z "/>
    </g>
  </g>
</svg>