<?xml version="1.0" encoding="utf-8"?>
<!-- Generator: Adobe Illustrator 18.0.0, SVG Export Plug-In . SVG Version: 6.00 Build 0)  -->
<!DOCTYPE svg PUBLIC "-//W3C//DTD SVG 1.1//EN" "http://www.w3.org/Graphics/SVG/1.1/DTD/svg11.dtd">
<svg version="1.1" id="Layer_2" xmlns="http://www.w3.org/2000/svg" xmlns:xlink="http://www.w3.org/1999/xlink" x="0px" y="0px"
	 viewBox="0 0 44.8 53" enable-background="new 0 0 44.8 53" xml:space="preserve">
<g>
	<path fill="#F7941E" d="M44.6,47.8c0-0.1-0.1-0.3-0.1-0.5C44.4,46,44.4,46,43,46.3c-1.6,0.3-3-0.1-3.9-1.4
		c-1.2-1.7-2.3-3.5-3.3-5.3c-2.9-5.2-5.8-10.5-8.6-15.7c-0.2-0.3-0.1-0.9,0.1-1.2c0.8-1.6,1.6-3.2,2.4-4.7c0.2-0.5,0.5-0.9,0.7-1.4
		c1.1-2.1,2.2-4.2,3.4-6.2c0.4-0.7,0.8-1.4,1.2-2c0.4-0.6,1-1.2,1.3-1.9c0.8-1.7,2.1-2.7,3.9-3c0.8-0.1,1.7-0.2,2.5-0.4
		c0-0.3,0-0.6,0-0.9c0-0.3,0-0.6,0-0.9c0.1-1,0.1-1.1-1-1.1c-4.6,0-9.2,0.1-13.8,0.2c-0.2,0-0.4,0.1-0.5,0.2
		c-1.2,1.1-2.4,2.3-3.5,3.5c-0.4,0.4-0.3,1.9,0.1,2.2c0.1,0.1,0.3,0.1,0.4,0.1c0.9,0,1.8,0,2.7,0c0.9,0,1.3,0.5,1.1,1.4
		c0,0.3-0.2,0.6-0.4,0.9c-0.8,1.4-1.5,2.8-2.3,4.2c-0.7,1.3-1.5,2.5-2.2,3.9c-0.2-0.3-0.3-0.5-0.4-0.8c-0.7-1.3-1.2-2.7-2-3.9
		c-1.1-1.9-2.4-3.7-3.5-5.6c-0.3-0.5-0.6-1.1-0.8-1.7c-0.4-0.8-0.2-1.2,0.7-1.3c0.7-0.1,1.4-0.2,2-0.2C20.8,3,20.8,3,20.8,1.6
		c0-0.2,0-0.4,0-0.6c0.2-0.8-0.2-1-0.9-1c-1.8,0-3.6,0-5.5,0C11.7,0,9,0.1,6.3,0.2c-0.2,0-0.5,0.1-0.6,0.3C4.3,1.7,2.9,2.9,1.6,4.1
		C1.1,4.6,1,6.3,1.5,6.9C1.6,7,1.7,7.1,1.9,7.1C2.9,7.3,4,7.5,5,7.7C6.4,8,7.5,8.6,8.1,9.9c0.4,0.9,0.8,1.8,1.2,2.7
		c0.2,0.6,0.5,1.2,0.7,1.8c1.2,2.7,2.5,5.3,3.8,8c0.8,1.8,1.6,3.5,2.4,5.3c0.2,0.4,0.2,0.9,0.1,1.2c-0.3,0.8-0.8,1.7-1.2,2.5
		c-2.7,4.7-5.4,9.3-8.1,14c-0.4,0.7-1,1-1.8,1c-0.3,0-0.8,0.1-1,0.3c-1.1,1-2.2,2.1-3.3,3c-0.9,0.8-0.9,1.6-0.7,2.6
		C0.2,52.7,0.5,53,1,52.9c1.6-0.1,3.3-0.1,4.9-0.1c3.4,0,6.8,0.1,10.2,0.2c0.2,0,0.6-0.1,0.7-0.2c0.6-1.5,1.6-2.7,2.9-3.8
		c0.1-0.1,0.2-0.3,0.2-0.5c0.1-0.4,0.2-0.9,0.3-1.3c0.2-0.8,0-1-0.8-1c-1.2-0.1-2.5-0.2-3.7-0.4c-0.8-0.1-1-0.5-0.7-1.2
		c0.3-0.6,0.6-1.3,0.9-1.9c0.9-1.6,2-3.2,2.9-4.8c0.6-1.1,1.2-2.2,1.8-3.5c0.8,1.6,1.6,3,2.2,4.5c1,2.8,2.6,5.2,4.3,7.6
		c0.3,0.4,0.3,0.7-0.1,1c-1,0.9-1.9,1.9-2.9,2.8c-0.4,0.4-0.7,1.8-0.3,2.3c0.1,0.2,0.4,0.3,0.6,0.3c0.5,0,1.1-0.1,1.6-0.1
		c1.5,0,3.1,0,4.7,0c1.6-0.1,3.3-0.3,5-0.3c1.8,0,3.6,0.1,5.4,0.1c0.3,0,0.6,0,0.8-0.2c0.8-0.7,1.4-1.6,2.2-2.3
		C44.9,49.3,44.9,48.6,44.6,47.8z M43.6,48.2c-3.4,0.2-6.8,0.3-10.1,0.4c-1.4,0-2.9,0-4.4,0c-0.1-0.6-0.2-1.2-0.3-1.8
		c0.8-0.1,1.6-0.1,2.3-0.3c1.5-0.4,1.7-1.3,1.1-2.7c-1.6-4.5-4.7-8.2-6.7-12.4c-0.5-1-1.1-2-1.7-2.9c-0.2-0.4-0.4-0.4-0.7,0
		c-0.7,1.3-1.3,2.6-2.1,3.9c-1.9,3.4-3.9,6.8-5.9,10.2c-0.3,0.5-0.6,1.1-0.8,1.6c-0.5,1.2-0.1,2,1.2,2.2c1.3,0.2,2.5,0.4,3.9,0.5
		c0,0,0,0.1,0,0.1c-0.3,1.7-0.3,1.8-2.1,1.8c-4,0-8.1,0-12.2,0c0-0.8-0.1-1.3-0.1-1.8c0.9-0.1,1.9-0.2,2.8-0.3
		c1.7-0.2,2.9-1.2,4-2.5c1.3-1.4,2-3.1,2.8-4.9c0.4-0.9,1-1.8,1.5-2.7c0.8-1.5,1.5-3,2.4-4.4c1.1-1.8,2-3.6,2.8-5.5
		c0.1-0.3,0.4-0.5,0.7-0.8c-0.7-1.2-1.5-2.5-2.2-3.8c-1.2-2.2-2.3-4.5-3.6-6.8c-1-1.9-2.1-3.8-3.2-5.6c-1-1.8-2-3.5-2.8-5.4
		C9.8,3,8.7,2.9,7.6,2.7c-0.3-0.1-0.7,0-1.2,0c0.1-0.7,0.2-1.3,0.3-2c1.8-0.1,3.5-0.3,5.3-0.3c2.5,0,4.9,0.1,7.4,0.1
		c0.5,0,0.9,0,0.8,0.6c-0.1,0.5,0.5,1.3-0.7,1.4c-0.8,0-1.7,0.2-2.5,0.4c-1,0.2-1.4,1.1-0.9,2c1,1.9,2,3.9,3.2,5.7
		c1.3,1.8,2.1,3.9,3.2,5.8c0.6,1.1,1.2,2.2,1.8,3.3c0.1,0.2,0.4,0.4,0.6,0.5c0.1-0.2,0.2-0.4,0.4-0.6c0.1-0.1,0.1-0.2,0.2-0.3
		c1.8-1.9,2.6-4.4,3.8-6.6c0.9-1.6,1.9-3.2,2.9-4.8c0.5-0.9,1.1-1.9,1.5-2.8c0.4-0.8-0.1-1.7-1-2c-0.8-0.2-1.7-0.4-2.6-0.4
		c-0.7,0-1.2-0.4-1.6-0.8c-0.1-0.1-0.2-0.5-0.1-0.7C28.4,1,28.7,0.9,29,0.9c2.6-0.1,5.3-0.2,7.9-0.2c1.4,0,2.9,0,4.3,0h1
		c0,0.7-0.1,1.2-0.1,1.8c-0.9,0.1-1.6,0.3-2.4,0.4C38,3,36.9,4,35.9,5.4c-1.8,2.6-3.2,5.5-4.7,8.3c-1.6,3.1-3.2,6.2-4.7,9.3
		c-0.1,0.2-0.1,0.6,0.1,0.8c1.1,2.1,2.2,4.3,3.4,6.4c0.3,0.5,0.6,1,0.9,1.5c2.2,4.7,4.7,9.1,7.5,13.5c1.1,1.7,2.4,2.2,4.4,1.8
		c0.3-0.1,0.6-0.1,1-0.2C43.7,47.2,43.7,47.6,43.6,48.2z"/>
	<path fill="#FFFFFF" d="M42.7,46.9c-2,0.4-3.3-0.1-4.4-1.8c-2.7-4.4-5.3-8.8-7.5-13.5c-0.2-0.5-0.6-1-0.9-1.5
		c-1.1-2.1-2.3-4.3-3.4-6.4c-0.1-0.2-0.2-0.6-0.1-0.8c1.5-3.1,3.1-6.2,4.7-9.3c1.5-2.8,2.8-5.7,4.7-8.3C36.9,4,38,3,39.6,2.8
		c0.8-0.1,1.5-0.2,2.4-0.4c0-0.5,0.1-1.1,0.1-1.8h-1c-1.5,0-2.9-0.1-4.3,0c-2.6,0-5.3,0.1-7.9,0.2c-0.2,0-0.5,0.1-0.6,0.3
		c-0.1,0.2,0,0.6,0.1,0.7c0.5,0.4,0.9,0.8,1.6,0.8c0.9,0,1.7,0.2,2.6,0.4c0.9,0.3,1.4,1.2,1,2c-0.5,1-1,1.9-1.5,2.8
		c-0.9,1.6-2,3.2-2.9,4.8c-1.2,2.2-2,4.7-3.8,6.6c-0.1,0.1-0.1,0.2-0.2,0.3c-0.1,0.2-0.2,0.4-0.4,0.6c-0.2-0.2-0.5-0.3-0.6-0.5
		c-0.6-1.1-1.2-2.2-1.8-3.3c-1.1-1.9-1.9-4-3.2-5.8C17.9,8.8,17,6.8,16,4.9c-0.5-0.9-0.1-1.7,0.9-2c0.8-0.2,1.6-0.3,2.5-0.4
		c1.2,0,0.6-0.9,0.7-1.4c0.1-0.6-0.3-0.6-0.8-0.6c-2.5,0-5-0.2-7.4-0.1c-1.8,0-3.5,0.2-5.3,0.3C6.5,1.4,6.4,2,6.3,2.7
		c0.5,0,0.9-0.1,1.2,0C8.7,2.9,9.8,3,10.4,4.3c0.8,1.8,1.8,3.6,2.8,5.4c1,1.9,2.1,3.8,3.2,5.6c1.2,2.2,2.4,4.5,3.6,6.8
		c0.7,1.3,1.4,2.5,2.2,3.8c-0.3,0.3-0.6,0.5-0.7,0.8c-0.9,1.9-1.7,3.8-2.8,5.5c-0.9,1.4-1.6,2.9-2.4,4.4c-0.5,0.9-1,1.8-1.5,2.7
		c-0.8,1.7-1.6,3.4-2.8,4.9c-1.1,1.2-2.3,2.3-4,2.5c-0.9,0.1-1.8,0.2-2.8,0.3c0,0.5,0,1.1,0.1,1.8c4.1,0,8.2,0,12.2,0
		c1.8,0,1.8,0,2.1-1.8c0,0,0,0,0-0.1c-1.3-0.2-2.6-0.3-3.9-0.5c-1.3-0.2-1.7-1-1.2-2.2c0.2-0.6,0.5-1.1,0.8-1.6
		c2-3.4,3.9-6.8,5.9-10.2c0.7-1.3,1.4-2.6,2.1-3.9c0.2-0.5,0.5-0.4,0.7,0c0.6,1,1.2,1.9,1.7,2.9c2,4.3,5,8,6.7,12.4
		c0.5,1.5,0.4,2.3-1.1,2.7c-0.7,0.2-1.5,0.2-2.3,0.3c0.1,0.6,0.2,1.3,0.3,1.8c1.5,0,3,0,4.4,0c3.4-0.1,6.7-0.3,10.1-0.4
		c0-0.5,0.1-1,0.1-1.5C43.3,46.8,43,46.9,42.7,46.9z M22.4,22.2c-0.2-0.1-0.5-0.2-0.6-0.3c-1-1.8-2-3.5-2.9-5.3
		c-0.9-1.8-1.7-3.7-2.6-5.6c-0.4-0.9-1-1.8-1.5-2.7c-0.2-0.3-0.2-0.6-0.3-0.9c0.1,0,0.2-0.1,0.3-0.1c0.7,1.2,1.7,2.2,2.2,3.5
		c1.2,3.1,2.9,6,4.4,8.9c0.3,0.6,0.7,1.2,1,1.8C22.4,21.6,22.3,21.9,22.4,22.2z M23.9,24.9c-0.4-0.1-0.8-0.4-0.9-0.7
		c-0.2-0.5,0.4-1,0.8-1c0.5,0,0.8,0.4,0.8,1.2C24.5,24.5,24.2,25,23.9,24.9z M33.6,41.9c-1.1-1-2-2.2-2.6-3.6
		c-0.6-1.4-1.3-2.9-2-4.3c-1.1-2.1-2.2-4.2-3.3-6.3c-0.1-0.2-0.3-0.4-0.4-0.6c-0.1-0.2-0.1-0.3-0.1-0.5c0.2,0,0.5-0.1,0.6,0
		c0.2,0.2,0.4,0.4,0.6,0.7c1.3,2.4,2.5,4.7,3.7,7.1c0.5,1,0.9,2.1,1.4,3.1c0.6,1.2,1.2,2.3,1.8,3.4c0.2,0.3,0.3,0.6,0.5,1
		C33.7,41.8,33.7,41.8,33.6,41.9z"/>
	<path fill="#F7941E" d="M33.8,41.8c-0.1,0-0.1,0.1-0.2,0.1c-1.1-1-2-2.2-2.6-3.6c-0.6-1.4-1.3-2.9-2-4.3c-1.1-2.1-2.2-4.2-3.3-6.3
		c-0.1-0.2-0.3-0.4-0.4-0.6c-0.1-0.2-0.1-0.3-0.1-0.5c0.2,0,0.5-0.1,0.6,0c0.2,0.2,0.4,0.4,0.6,0.7c1.3,2.4,2.5,4.7,3.7,7.1
		c0.5,1,0.9,2.1,1.4,3.1c0.6,1.2,1.2,2.3,1.8,3.4C33.5,41.1,33.7,41.4,33.8,41.8z"/>
	<path fill="#F7941E" d="M22.4,22.2c-0.2-0.1-0.5-0.2-0.6-0.3c-1-1.8-2-3.5-2.9-5.3c-0.9-1.8-1.7-3.7-2.6-5.6
		c-0.4-0.9-1-1.8-1.5-2.7c-0.2-0.3-0.2-0.6-0.3-0.9c0.1,0,0.2-0.1,0.3-0.1c0.7,1.2,1.7,2.2,2.2,3.5c1.2,3.1,2.9,6,4.4,8.9
		c0.3,0.6,0.7,1.2,1,1.8C22.4,21.6,22.3,21.9,22.4,22.2z"/>
	<path fill="#F7941E" d="M24.6,24.4c-0.1,0.1-0.5,0.5-0.7,0.5c-0.4-0.1-0.8-0.4-0.9-0.7c-0.2-0.5,0.4-1,0.8-1
		C24.3,23.2,24.6,23.6,24.6,24.4z"/>
</g>
</svg>
