<svg version="1.1" width="109" height="150" xmlns="http://www.w3.org/2000/svg" xmlns:xlink="http://www.w3.org/1999/xlink">
  <!-- Exported by Scratch - http://scratch.mit.edu/ -->
  <g id="ID0.15071874391287565">
    <path id="Back_Leg" fill="#BE1E2D" stroke="#000000" stroke-linecap="round" stroke-linejoin="round" d="M 114.562 194.373 C 115.912 195.887 119.635 201.818 119.635 201.818 C 119.635 201.818 115.123 208.147 116.690 209.435 C 119.773 211.978 126.964 214.899 128.004 211.998 C 129.043 209.095 124.157 207.786 124.157 207.786 C 124.159 207.787 126.760 203.342 127.098 201.562 C 127.380 200.069 124.134 196.168 123.028 194.881 " transform="matrix(0.6931127309799194, 0, 0, 0.6931127309799194, -18, 0.2)"/>
    <path id="Back_Arm" fill="#BE1E2D" stroke="#000000" stroke-linecap="round" stroke-linejoin="round" d="M 112.438 181.194 C 110.916 182.793 108.275 185.853 106.140 187.525 C 105.765 187.825 105.403 188.083 105.038 188.334 L 105.056 188.333 C 105.056 188.333 104.893 191.399 103.439 191.239 C 102.554 191.156 101.970 190.529 101.634 190.055 C 100.072 190.494 98.720 190.318 97.678 189.304 C 95.240 186.940 96.669 183.525 98.445 181.609 C 100.204 179.687 111.370 167.471 115.758 172.400 C 120.141 177.325 112.438 181.194 112.438 181.194 L 112.438 181.194 L 112.438 181.194 L 112.438 181.194 L 112.438 181.194 L 112.438 181.194 L 112.438 181.194 L 112.438 181.194 L 112.438 181.194 Z " transform="matrix(0.6931127309799194, 0, 0, 0.6931127309799194, -18, 0.2)"/>
    <g id="Body">
      <path id="Body_1_" fill="#BE1E2D" stroke="#000000" d="M 114.193 169.706 C 114.193 169.706 123.726 170.185 125.213 178.445 C 125.676 181.392 126.977 192.695 121.947 196.132 C 117.004 199.510 112.228 199.850 107.732 197.313 C 103.186 194.751 102.245 187.447 102.833 183.477 C 103.161 181.264 103.852 178.783 104.500 177.067 C 104.500 177.064 107.312 170.331 114.193 169.706 L 114.193 169.706 L 114.193 169.706 L 114.193 169.706 L 114.193 169.706 L 114.193 169.706 L 114.193 169.706 L 114.193 169.706 L 114.193 169.706 Z " transform="matrix(0.6931127309799194, 0, 0, 0.6931127309799194, -18, 0.2)"/>
      <g id="Belly">
        <path id="ID0.24337819125503302" fill="none" stroke="#000000" stroke-linecap="round" stroke-linejoin="round" d="M 125.391 182.906 C 117.834 183.796 119.858 191.775 123.233 194.914 " transform="matrix(0.6931127309799194, 0, 0, 0.6931127309799194, -18, 0.2)"/>
        <path id="ID0.24078302131965756" fill="#E6E7E8" d="M 125.391 183.331 C 125.391 183.331 121.153 183.514 120.473 187.429 C 119.826 191.164 123.076 194.373 123.076 194.373 C 123.076 194.373 125.582 192.271 125.391 183.331 L 125.391 183.331 L 125.391 183.331 L 125.391 183.331 L 125.391 183.331 L 125.391 183.331 L 125.391 183.331 L 125.391 183.331 L 125.391 183.331 Z " transform="matrix(0.6931127309799194, 0, 0, 0.6931127309799194, -18, 0.2)"/>
      </g>
    </g>
    <path id="Front_Leg_1_" fill="#BE1E2D" stroke="#000000" stroke-linecap="round" stroke-linejoin="round" d="M 106.628 194.715 C 106.628 194.715 102.003 212.022 105.613 213.733 C 109.219 215.446 116.907 216.528 117.206 213.462 C 117.512 210.400 112.450 210.319 112.450 210.319 L 114.609 198.434 " transform="matrix(0.6931127309799194, 0, 0, 0.6931127309799194, -18, 0.2)"/>
    <path id="Front_Arm" fill="#BE1E2D" stroke="#000000" d="M 115.842 179.319 C 116.220 181.515 117.090 185.514 117.154 188.262 C 117.164 188.740 117.143 189.201 117.134 189.646 L 117.141 189.623 C 117.141 189.623 119.530 191.615 118.518 192.704 C 117.911 193.364 117.052 193.457 116.459 193.441 C 115.871 194.976 114.908 195.961 113.456 196.186 C 110.066 196.733 108.173 193.498 107.686 190.904 C 107.203 188.315 104.072 171.864 110.727 171.300 C 117.380 170.741 115.842 179.319 115.842 179.319 L 115.842 179.319 L 115.842 179.319 L 115.842 179.319 L 115.842 179.319 L 115.842 179.319 L 115.842 179.319 L 115.842 179.319 L 115.842 179.319 Z " transform="matrix(0.6931127309799194, 0, 0, 0.6931127309799194, -18, 0.2)"/>
    <g id="Head_2_">
      <g id="R_Ear">
        <path id="Outer_Ear_1_" fill="#BE1E2D" stroke="#000000" d="M 165.211 82.936 C 166.477 81.366 170.047 76.846 172.154 73.389 C 175.697 67.572 180.355 60.167 180.355 60.167 C 180.355 60.167 182.482 70.870 180.937 79.965 C 179.578 87.973 174.507 95.430 173.328 97.095 L 167.450 89.743 L 165.211 82.936 L 165.211 82.936 L 165.211 82.936 L 165.211 82.936 L 165.211 82.936 L 165.211 82.936 L 165.211 82.936 L 165.211 82.936 L 165.211 82.936 Z " transform="matrix(0.6931127309799194, 0, 0, 0.6931127309799194, -18, 0.2)"/>
        <path id="Inner_Ear_2_" fill="#939598" stroke="#000000" stroke-linecap="round" stroke-linejoin="round" d="M 173.990 84.195 C 176.660 84.553 179.105 83.344 180.281 82.153 L 180.281 82.153 C 178.616 89.611 174.554 95.727 173.427 97.293 L 173.398 97.407 C 172.710 95.836 172.398 94.847 171.656 93.426 L 171.656 93.426 C 173.329 91.055 173.837 87.073 173.990 84.195 L 173.990 84.195 L 173.990 84.195 L 173.990 84.195 L 173.990 84.195 L 173.990 84.195 L 173.990 84.195 L 173.990 84.195 L 173.990 84.195 L 173.990 84.195 Z M 173.990 84.195 C 174.132 82.357 173.636 79.706 173.636 79.706 " transform="matrix(0.6931127309799194, 0, 0, 0.6931127309799194, -18, 0.2)"/>
      </g>
      <g id="Head_1_">
        <path id="Head" fill="#BE1E2D" stroke="#000000" stroke-linecap="round" stroke-linejoin="round" d="M 73.520 148.874 C 73.520 148.874 89.300 172.941 120.537 173.896 C 151.773 174.849 160.728 161.210 162.455 155.089 C 164.473 147.946 160.495 141.636 159.962 140.829 L 159.850 140.785 C 156.259 143.125 152.057 141.770 152.057 141.770 C 152.057 141.770 154.288 141.781 155.442 140.584 C 156.561 139.438 157.770 132.574 156.055 123.212 C 153.772 110.746 149.063 108.069 149.063 108.069 L 148.621 107.685 C 140.243 110.277 129.877 113.473 123.936 115.269 C 112.789 118.638 107.348 122.267 107.348 122.267 C 107.348 122.267 108.128 117.084 111.754 113.974 C 113.645 112.347 116.102 110.801 118.022 109.685 L 117.673 109.613 C 117.673 109.613 99.657 111.896 90.094 124.327 C 83.355 133.087 85.950 145.683 85.950 145.683 C 85.950 145.683 81.174 139.845 79.664 133.704 L 79.639 133.683 C 79.639 133.683 74.570 138.101 73.338 147.449 C 73.293 147.786 73.258 148.158 73.234 148.556 L 73.520 148.874 L 73.520 148.874 L 73.520 148.874 L 73.520 148.874 L 73.520 148.874 L 73.520 148.874 L 73.520 148.874 L 73.520 148.874 L 73.520 148.874 Z M 160.070 164.523 C 160.138 164.107 160.200 163.695 160.255 163.286 C 160.201 163.695 160.139 164.107 160.070 164.523 L 160.070 164.523 L 160.070 164.523 L 160.070 164.523 L 160.070 164.523 L 160.070 164.523 L 160.070 164.523 L 160.070 164.523 L 160.070 164.523 Z M 160.400 161.975 C 160.368 162.356 160.327 162.743 160.275 163.138 C 160.326 162.741 160.368 162.354 160.400 161.975 L 160.400 161.975 L 160.400 161.975 L 160.400 161.975 L 160.400 161.975 L 160.400 161.975 L 160.400 161.975 L 160.400 161.975 L 160.400 161.975 Z M 160.432 161.557 C 160.452 161.300 160.463 161.050 160.470 160.809 C 160.463 161.051 160.450 161.299 160.432 161.557 L 160.432 161.557 L 160.432 161.557 L 160.432 161.557 L 160.432 161.557 L 160.432 161.557 L 160.432 161.557 L 160.432 161.557 L 160.432 161.557 Z M 160.479 160.438 C 160.481 160.096 160.473 159.770 160.446 159.470 L 160.451 159.465 C 160.475 159.766 160.480 160.095 160.479 160.438 L 160.479 160.438 L 160.479 160.438 L 160.479 160.438 L 160.479 160.438 L 160.479 160.438 L 160.479 160.438 L 160.479 160.438 L 160.479 160.438 Z M 79.640 133.689 C 79.640 133.689 74.572 138.105 73.340 147.454 C 72.643 152.752 74.493 165.491 74.493 165.491 C 74.493 165.491 61.310 150.060 61.744 133.541 C 62.183 117.023 67.780 105.044 67.780 105.044 M 58.549 158.174 L 54.291 168.320 C 54.291 168.320 34.847 149.628 39.032 115.521 M 68.739 158.118 L 69.800 166.191 C 69.800 166.191 59.985 161.042 55.174 153.670 C 46.109 139.793 47.702 125.819 47.702 125.819 M 165.674 116.496 C 167.563 128.719 165.041 133.814 162.576 137.894 C 158.894 143.980 152.056 141.771 152.056 141.771 C 152.056 141.771 154.286 141.783 155.443 140.590 C 156.564 139.441 157.769 132.582 156.056 123.214 C 153.769 110.748 148.769 107.899 148.769 107.899 L 148.769 107.899 C 142.301 109.899 134.331 112.117 123.933 115.269 C 112.786 118.636 107.345 122.265 107.345 122.265 C 107.345 122.265 108.121 117.082 111.751 113.972 C 113.563 112.416 115.897 110.928 117.774 109.826 L 117.670 109.608 C 117.670 109.608 99.654 111.891 90.091 124.324 C 83.352 133.088 85.947 145.678 85.947 145.678 C 85.947 145.678 81.181 139.852 79.661 133.718 L 79.636 133.680 C 79.636 133.680 74.567 138.102 73.335 147.449 C 72.967 150.253 73.312 155.141 73.718 159.123 C 73.719 159.124 73.718 159.123 73.719 159.125 C 73.719 159.126 73.719 159.127 73.719 159.128 L 73.718 159.126 C 74.079 162.666 74.489 165.489 74.489 165.489 C 74.489 165.489 71.776 162.309 68.846 157.295 L 68.731 158.108 L 69.792 166.182 C 69.792 166.182 63.710 162.986 58.770 158.032 L 58.546 158.169 L 54.288 168.315 C 54.288 168.315 31.309 146.223 40.686 106.263 C 45.575 85.440 80 60.368 85.313 44.431 C 90.623 28.493 80.214 16.165 80.214 16.165 C 80.214 16.165 81.274 16.381 84.038 18.293 C 86.797 20.206 90.622 25.516 90.622 25.516 C 90.622 25.516 90.592 18.673 91.259 13.404 C 92.163 6.315 93.809 1.081 93.809 1.081 C 93.809 1.081 109.538 31.254 126.322 49.741 C 143.109 68.229 165.174 70.646 176.474 105.631 C 188.751 143.638 167.933 163.447 167.933 163.447 C 167.933 163.447 168.312 160.876 168.595 157.001 L 168.351 157.182 C 168.351 157.182 165.562 162.993 163.554 165.634 C 161.134 168.826 158.476 171.733 158.476 171.733 C 158.476 171.733 159.474 168.161 160.062 164.572 L 159.995 164.608 C 155.533 171.100 144.703 179.098 120.529 178.360 C 90.265 177.436 74.662 160.200 73.720 159.129 C 73.363 155.627 73.055 151.433 73.233 148.564 L 73.517 148.875 C 73.517 148.875 89.296 172.941 120.535 173.898 C 145.495 174.658 156.223 166.105 160.407 159.511 L 160.402 159.515 C 160.418 159.493 160.427 159.470 160.441 159.449 C 160.441 159.445 160.441 159.441 160.441 159.437 L 160.460 159.417 C 161.475 157.797 162.098 156.293 162.445 155.090 C 164.413 148.117 160.675 141.933 160 140.900 L 159.891 140.759 C 156.290 143.144 152.051 141.775 152.051 141.775 C 152.051 141.775 154.283 141.787 155.438 140.587 M 117.775 109.828 C 119.306 108.598 121.088 108.016 121.088 108.016 M 79.638 133.684 C 79.638 133.684 79.220 128.811 79.576 127.518 M 168.354 157.182 C 168.354 157.182 165.565 162.993 163.557 165.634 C 161.137 168.826 158.479 171.733 158.479 171.733 C 158.479 171.733 160.899 163.088 160.425 159.190 M 166.118 128.043 C 166.118 128.043 171.258 144.032 168.353 157.182 " transform="matrix(0.6931127309799194, 0, 0, 0.6931127309799194, -18, 0.2)"/>
        <path id="Face" fill="#E6E7E8" stroke="#000000" d="M 73.520 148.874 C 73.520 148.874 89.300 172.941 120.537 173.896 C 151.773 174.849 160.728 161.210 162.455 155.089 C 164.473 147.946 160.495 141.636 159.962 140.829 L 159.850 140.785 C 156.259 143.125 152.057 141.770 152.057 141.770 C 152.057 141.770 154.288 141.781 155.442 140.584 C 156.561 139.438 157.770 132.574 156.055 123.212 C 153.772 110.746 149.063 108.069 149.063 108.069 L 148.621 107.685 C 140.243 110.277 129.877 113.473 123.936 115.269 C 112.789 118.638 107.348 122.267 107.348 122.267 C 107.348 122.267 108.128 117.084 111.754 113.974 C 113.645 112.347 116.102 110.801 118.022 109.685 L 117.673 109.613 C 117.673 109.613 99.657 111.896 90.094 124.327 C 83.355 133.087 85.950 145.683 85.950 145.683 C 85.950 145.683 81.174 139.845 79.664 133.704 L 79.639 133.683 C 79.639 133.683 74.570 138.101 73.338 147.449 C 73.293 147.786 73.258 148.158 73.234 148.556 L 73.520 148.874 L 73.520 148.874 L 73.520 148.874 L 73.520 148.874 L 73.520 148.874 L 73.520 148.874 L 73.520 148.874 L 73.520 148.874 L 73.520 148.874 Z " transform="matrix(0.6931127309799194, 0, 0, 0.6931127309799194, -18, 0.2)"/>
      </g>
      <g id="L_Ear">
        <path id="Outer_Ear" fill="#BE1E2D" stroke="#000000" d="M 62.201 139.828 C 61.862 137.769 61.694 135.666 61.746 133.541 C 62.050 122.043 64.860 112.739 66.534 108.152 L 66.026 107.602 C 62.776 103.429 53.371 91.586 47.566 86.475 C 40.449 80.223 26.502 77.833 26.502 77.833 C 26.502 77.833 31.283 99.770 37.638 112.373 C 47.440 131.816 61.585 139.671 61.585 139.671 L 62.201 139.828 L 62.201 139.828 L 62.201 139.828 L 62.201 139.828 L 62.201 139.828 L 62.201 139.828 L 62.201 139.828 L 62.201 139.828 L 62.201 139.828 Z " transform="matrix(0.6931127309799194, 0, 0, 0.6931127309799194, -18, 0.2)"/>
        <path id="Inner_Ear_1_" fill="#939598" stroke="#000000" stroke-linecap="round" stroke-linejoin="round" d="M 51.363 131.479 C 51.363 131.479 54.117 129.645 54.734 123.177 C 55.117 119.170 53.638 111.754 53.638 111.754 L 53.772 111.992 C 52.667 110.644 51.516 109.070 50.485 107.361 C 48.742 104.453 46.739 100.149 44.918 95.897 L 44.638 95.303 C 44.638 95.303 39.669 87.536 28.661 86.062 L 28.526 86.122 C 30.506 93.652 33.776 104.727 37.635 112.373 C 41.952 120.943 47.123 127.261 51.544 131.646 L 51.363 131.479 L 51.363 131.479 L 51.363 131.479 L 51.363 131.479 L 51.363 131.479 L 51.363 131.479 L 51.363 131.479 L 51.363 131.479 L 51.363 131.479 Z M 58.697 115.994 C 58.697 115.994 53.907 112.230 53.773 111.992 " transform="matrix(0.6931127309799194, 0, 0, 0.6931127309799194, -18, 0.2)"/>
      </g>
      <path id="Mouth" fill="#939598" stroke="#000000" d="M 144.451 153.425 C 144.451 153.425 137.930 153.223 129.172 153.425 C 120.410 153.625 111.247 154.649 111.247 154.649 C 111.247 154.649 115.728 163.617 127.135 162.999 C 138.544 162.387 143.641 158.521 144.451 153.425 L 144.451 153.425 L 144.451 153.425 L 144.451 153.425 L 144.451 153.425 L 144.451 153.425 L 144.451 153.425 L 144.451 153.425 L 144.451 153.425 Z " transform="matrix(0.6931127309799194, 0, 0, 0.6931127309799194, -18, 0.2)"/>
      <path id="L_Eye" fill="#231F20" d="M 110.967 133.777 C 110.797 133.728 107.802 132.913 103.993 133.089 C 103.868 132.901 103.698 132.740 103.468 132.661 C 103.464 132.659 102.969 132.455 102.849 132.002 C 102.699 131.437 102.121 131.089 101.548 131.244 C 100.980 131.397 100.641 131.975 100.792 132.547 C 100.883 132.887 101.036 133.164 101.199 133.410 C 101.044 133.436 100.886 133.472 100.728 133.504 C 100.610 133.410 100.473 133.339 100.317 133.304 C 100.310 133.302 99.780 133.178 99.598 132.743 C 99.368 132.199 98.740 131.957 98.202 132.181 C 97.660 132.410 97.407 133.035 97.637 133.576 C 97.833 134.042 98.116 134.380 98.414 134.640 C 98.231 134.992 98.172 135.410 98.291 135.816 C 98.494 136.509 99.132 136.965 99.823 136.965 C 99.971 136.965 100.119 136.943 100.268 136.900 C 105.105 135.491 110.054 136.836 110.101 136.851 C 110.955 137.082 111.830 136.590 112.068 135.742 C 112.307 134.895 111.814 134.016 110.967 133.777 L 110.967 133.777 L 110.967 133.777 L 110.967 133.777 L 110.967 133.777 L 110.967 133.777 L 110.967 133.777 L 110.967 133.777 L 110.967 133.777 Z " transform="matrix(0.6931127309799194, 0, 0, 0.6931127309799194, -18, 0.2)"/>
      <path id="R_Eye" fill="#231F20" d="M 153.273 132.282 C 153.385 131.705 153.013 131.148 152.439 131.032 C 151.855 130.907 151.304 131.292 151.187 131.867 C 151.097 132.322 150.625 132.555 150.594 132.572 C 150.394 132.659 150.256 132.808 150.146 132.980 C 150.021 132.951 149.888 132.923 149.750 132.896 C 149.863 132.609 149.955 132.297 149.977 131.928 C 150.005 131.340 149.555 130.842 148.971 130.812 C 148.343 130.747 147.885 131.234 147.856 131.821 C 147.834 132.153 147.616 132.394 147.479 132.511 C 144.666 132.142 141.149 132.099 139.481 133.790 C 138.862 134.420 138.872 135.429 139.499 136.046 C 139.811 136.355 140.214 136.507 140.622 136.507 C 141.036 136.507 141.442 136.351 141.755 136.033 C 142.618 135.155 146.906 135.451 150.219 136.268 C 151.093 136.481 151.939 135.955 152.150 135.100 C 152.234 134.764 152.172 134.436 152.054 134.135 C 152.518 133.797 153.087 133.229 153.273 132.282 L 153.273 132.282 L 153.273 132.282 L 153.273 132.282 L 153.273 132.282 L 153.273 132.282 L 153.273 132.282 L 153.273 132.282 L 153.273 132.282 Z " transform="matrix(0.6931127309799194, 0, 0, 0.6931127309799194, -18, 0.2)"/>
    </g>
  </g>
</svg>