<svg width="69px" height="133px" viewBox="0 0 69 133" version="1.1" xml:space="preserve" xmlns="http://www.w3.org/2000/svg" xmlns:xlink="http://www.w3.org/1999/xlink">
  <!-- Generator: Sketch 50.2 (55047) - http://www.bohemiancoding.com/sketch -->
  <defs/>
  <g>
    <title>Slice 1</title>
    <desc>Created with Sketch.</desc>
    <g id="Page-1" stroke="none" stroke-width="1" fill="none" fill-rule="evenodd">
      <g id="pants-a-[people,fashion,pants]" transform="translate(1.000000, 1.000000)">
        <g id="Color" fill-rule="nonzero">
          <path d="M8.67809524,9.24987805 L9.045,1.18219512 L5.51952381,0.846707317 L5.51952381,8.93036585 C5.51952381,8.93036585 0.526428571,12.6047561 0.526428571,29.475 C0.526428571,45.929878 2.83952381,68.4714634 2.83952381,76.267561 L4.06785714,130.153293 L7.4497619,130.153293 C7.14666667,107.42 5.85452381,67.2413415 4.48261905,42.5110976 C3.07880952,16.295122 8.67809524,9.24987805 8.67809524,9.24987805 Z" id="Shape" fill="#A2C3F4"/>
          <path d="M66.1864286,27.430122 C65.6440476,13.3236585 61.4007143,8.94634146 61.4007143,8.94634146 L61.2252381,1.21414634 C61.2252381,1.21414634 60.0128571,1.32597561 57.9071429,1.4697561 L58.2102381,9.58536585 C58.2102381,9.58536585 62.3419048,15.0490244 62.6130952,42.5430488 C62.8364286,65.0526829 61.4645238,108.554268 60.2042857,130.185244 L62.9480952,130.185244 C62.9480952,130.185244 66.1385714,84.7985366 66.1385714,76.2995122 C66.1385714,67.8004878 66.8564286,44.252439 66.1864286,27.430122 Z" id="Shape" fill="#D7E6FF"/>
          <path d="M62.6130952,42.5110976 C62.3419048,15.0170732 58.2102381,9.58536585 58.2102381,9.58536585 L57.8433333,1.50170732 C53.1852381,1.83719512 44.2040476,2.36439024 34.1540476,2.36439024 C24.1040476,2.36439024 14.1178571,1.59756098 9.045,1.18219512 L8.67809524,9.24987805 C8.67809524,9.24987805 3.07880952,16.295122 4.48261905,42.5110976 C5.79071429,67.2413415 7.14666667,107.42 7.4497619,130.153293 L23.0352381,130.153293 C23.0352381,130.153293 29.272619,88.345122 30.1021429,79.6703659 C31.1390476,68.9347561 33.5,35.1463415 33.5,35.1463415 C33.5,35.1463415 38.8440476,71.6985366 39.4502381,78.9514634 C39.8969048,84.3671951 43.6935714,130.153293 43.6935714,130.153293 L60.2042857,130.153293 C61.4645238,108.522317 62.8364286,65.0207317 62.6130952,42.5110976 Z" id="Shape" fill="#B8D0FF"/>
        </g>
        <g id="Outline" stroke-linecap="round" stroke-linejoin="round" stroke="#1062C4">
          <path d="M33.5,35.1463415 L33.5159524,2.33243902" id="Shape" stroke-width="1.28" fill="#B8D0FF" fill-rule="nonzero"/>
          <path d="M38.2857143,11.0391463 L38.2857143,20.6245122 C38.2857143,26.3757317 34.2178571,27.3662195 34.2178571,27.3662195" id="Shape" stroke-width="1.28"/>
          <path d="M15.3142857,10.4320732 C15.3142857,10.4320732 13.1288095,25.3053659 0.638095238,25.3053659" id="Shape" stroke-width="0.848" stroke-dasharray="2.560000038146973"/>
          <path d="M12.602381,9.58536585 C12.602381,9.58536585 11.1985714,22.6534146 0.84547619,22.6534146" id="Shape" stroke-width="1.28"/>
          <path d="M52.0207143,10.4320732 C52.2803942,18.2336791 58.3106741,24.615479 66.0747619,25.3053659" id="Shape" stroke-width="0.848" stroke-dasharray="2.560000038146973"/>
          <path d="M54.2380952,10.0806098 C54.2380952,10.0806098 56.2640476,21.5830488 65.867381,22.4936585" id="Shape" stroke-width="1.28"/>
          <path d="M66.1864286,27.430122 C65.6440476,13.3236585 61.4007143,8.94634146 61.4007143,8.94634146 L61.2252381,1.21414634 C61.2252381,1.21414634 60.0128571,1.32597561 57.9071429,1.4697561 C53.2490476,1.8052439 44.2678571,2.33243902 34.2178571,2.33243902 C24.1678571,2.33243902 14.1178571,1.59756098 9.045,1.18219512 L5.51952381,0.846707317 L5.51952381,8.93036585 C5.51952381,8.93036585 0.526428571,12.6047561 0.526428571,29.475 C0.526428571,45.929878 2.83952381,68.4714634 2.83952381,76.267561 L4.06785714,130.153293 L23.0352381,130.153293 C23.0352381,130.153293 29.272619,88.345122 30.1021429,79.6703659 C31.1390476,68.9347561 33.5,35.1463415 33.5,35.1463415 C33.5,35.1463415 38.8440476,71.6985366 39.4502381,78.9514634 C39.8969048,84.3671951 43.6935714,130.153293 43.6935714,130.153293 L62.9480952,130.153293 C62.9480952,130.153293 66.1385714,84.7665854 66.1385714,76.267561 C66.1385714,67.7685366 66.8564286,44.252439 66.1864286,27.430122 Z" id="Shape" stroke-width="1.28"/>
        </g>
        <g id="Belt" stroke-linecap="round" stroke-linejoin="round" transform="translate(4.785714, 0.000000)" stroke="#1062C4">
          <path d="M0.733809524,0.846707317 L0.733809524,8.93036585 C0.733809524,8.93036585 20.6264286,10.8793902 29.3683333,10.6717073 L29.3683333,2.33243902 C29.3683333,2.33243902 17.547619,2.33243902 0.733809524,0.846707317 Z" id="Shape" stroke-width="1.28" fill="#A2C3F4" fill-rule="nonzero"/>
          <path d="M27.4859524,2.31646341 L27.4859524,10.5918293 C27.4859524,10.5918293 44.5709524,11.6941463 56.5511905,8.99426829 L56.3757143,1.26207317 C46.7821315,2.28782547 37.1286425,2.64014906 27.4859524,2.31646341 Z" id="Shape" stroke-width="1.28" fill="#A2C3F4" fill-rule="nonzero"/>
          <ellipse id="Oval" stroke-width="0.848" cx="32.16" cy="6.16658537" rx="1.5952381" ry="1.59756098"/>
        </g>
        <path d="M15.2345238,69.9412195 C16.671923,70.8462461 17.5452055,72.4264748 17.547619,74.1268293 C17.3720168,75.6352427 16.5438161,76.9903297 15.282381,77.8331707" id="Shape" stroke="#8FBCF2" stroke-width="1.28" stroke-linecap="round" stroke-linejoin="round"/>
        <path d="M51.4783333,69.9412195 C52.9043036,70.8512444 53.7606461,72.4335573 53.7435714,74.1268293 C53.5764771,75.6381726 52.7462445,76.9965843 51.4783333,77.8331707" id="Shape" stroke="#8FBCF2" stroke-width="1.28" stroke-linecap="round" stroke-linejoin="round"/>
      </g>
    </g>
  </g>
</svg>