<svg version="1.1" width="116" height="125" viewBox="-1 -1 116 125" xmlns="http://www.w3.org/2000/svg" xmlns:xlink="http://www.w3.org/1999/xlink">
  <!-- Exported by Scratch - http://scratch.mit.edu/ -->
  <g id="ID0.687575941439718" transform="matrix(1, 0, 0, 1, 0.5, 0)">
    <g id="Page-1">
      <g id="referee-c-[sports,soccer,football,alex-eben-meyer]">
        <g id="scratch_footie_player_ref03">
          <g id="Group-7">
            <path id="Shape" fill="#828278" stroke="none" stroke-width="1" d="M 48.178 0.474 C 32.484 1.732 19.766 2.859 12.280 3.484 C 4.794 4.108 0.104 4.409 0.054 5.169 C 0.023 5.757 4.032 5.317 5.917 5.416 C 5.885 5.640 6.039 6.121 6.102 6.723 C 6.323 8.826 10.314 9.230 13.178 9.315 C 19.108 9.491 33.706 9.365 49.653 8.987 C 49.653 8.987 57.103 9.351 57.347 4.243 C 57.590 -0.865 48.178 0.474 48.178 0.474 Z " transform="matrix(-1, 0, 0, 1, 115, 63)"/>
            <path id="Shape" fill="#3C3C32" stroke="none" stroke-width="1" d="M 5.579 3.012 C 4.812 2.967 5.037 3.461 5.881 3.753 C 6.466 3.948 7.071 4.077 7.685 4.140 C 7.685 4.140 7.279 6.633 10.215 5.991 C 11.568 5.694 11.374 4.126 10.111 3.502 C 8.650 2.792 5.989 3.043 5.579 3.012 Z " transform="matrix(-1, 0, 0, 1, 115, 63)"/>
          </g>
          <g id="Group-6">
            <path id="Shape" fill="#828278" stroke="none" stroke-width="1" d="M 19.612 8.936 C 16.699 16.214 11.855 28.808 11.855 28.808 C 11.855 28.808 15.179 31.009 17.317 32.213 C 21.317 26.822 28.280 14.656 28.280 14.656 C 28.280 14.656 34.265 5.778 28.767 1.627 C 23.270 -2.525 19.612 8.936 19.612 8.936 Z " transform="matrix(-1, 0, 0, 1, 89, 74)"/>
            <path id="Shape" fill="#000000" stroke="none" stroke-width="1" d="M 11.860 26.188 C 11.688 26.305 5.785 43.530 5.515 44.326 C 5.447 44.532 5.348 44.730 5.235 45.000 C 5.074 44.890 4.923 44.767 4.784 44.631 C 4.369 44.119 3.959 43.602 3.562 43.072 C 3.316 42.685 2.912 42.425 2.457 42.362 L 2.299 42.933 C 2.269 43.142 2.210 43.347 2.123 43.539 C 1.884 43.917 1.591 44.258 1.334 44.627 C 1.077 44.995 0.883 45.238 1.077 45.647 C 1.591 45.647 1.771 45.570 1.947 45.036 C 2.167 44.572 2.473 44.155 2.849 43.804 L 3.526 44.357 C 3.405 44.648 3.268 44.931 3.115 45.206 C 2.932 45.471 2.734 45.726 2.525 45.970 L 2.425 45.871 C 2.177 46.487 2.204 46.568 2.764 46.806 C 2.957 46.532 3.147 46.231 3.368 45.957 C 3.589 45.682 3.819 45.435 4.076 45.161 L 4.694 45.647 C 4.198 46.500 3.580 47.143 3.278 47.965 C 3.477 48.222 3.842 48.281 4.112 48.100 C 4.376 47.423 4.746 46.792 5.208 46.231 L 5.943 46.815 C 5.659 47.241 5.406 47.605 5.172 47.983 C 4.978 48.288 4.635 48.535 4.788 49.057 L 5.388 49.173 C 5.745 48.607 5.839 47.915 6.583 47.659 L 6.795 48.252 L 6.493 48.468 L 6.205 48.666 C 6.177 48.832 6.141 49.007 6.123 49.182 C 6.056 49.775 6.308 49.937 6.926 49.677 C 7.165 49.142 7.228 48.450 7.828 48.239 C 8.103 47.821 8.329 47.480 8.550 47.138 C 9.001 46.415 9.452 45.682 9.903 44.959 C 10.277 44.371 10.701 43.813 11.039 43.202 C 11.535 42.304 19.035 31.360 19.247 31.072 C 18.949 30.789 11.964 26.341 11.860 26.188 Z " transform="matrix(-1, 0, 0, 1, 89, 74)"/>
            <path id="Rectangle-path" fill="#FFFFFF" stroke="none" stroke-width="1" d="M 10.665 27.692 L 20.434 27.692 L 20.434 29.722 L 10.665 29.722 L 10.665 27.692 Z " transform="matrix(-0.8412277698516846, 0.5406808853149414, 0.5406808853149414, 0.8412277698516846, 71, 70.15)"/>
            <path id="Rectangle-path" fill="#FFFFFF" stroke="none" stroke-width="1" d="M 8.841 30.808 L 18.595 30.808 L 18.595 32.836 L 8.841 32.836 L 8.841 30.808 Z " transform="matrix(-0.8411784768104553, 0.5407575964927673, 0.5407575964927673, 0.8411784768104553, 69.6, 71.6)"/>
            <path id="Rectangle-path" fill="#FFFFFF" stroke="none" stroke-width="1" d="M 7.259 34.081 L 17.013 34.081 L 17.013 36.109 L 7.259 36.109 L 7.259 34.081 Z " transform="matrix(-0.8411784768104553, 0.5407575964927673, 0.5407575964927673, 0.8411784768104553, 68.05, 73)"/>
          </g>
          <g id="Group-5">
            <path id="Shape" fill="#828278" stroke="none" stroke-width="1" d="M 12.035 8.330 C 14.948 15.608 19.841 28.547 19.841 28.547 C 19.841 28.547 16.518 30.749 14.380 31.953 C 10.380 26.561 4.955 17.221 4.955 17.221 C 4.955 17.221 -2.496 6.393 2.880 1.649 C 8.256 -3.095 12.035 8.330 12.035 8.330 Z " transform="matrix(-1, 0, 0, 1, 36, 74)"/>
            <path id="Shape" fill="#000000" stroke="none" stroke-width="1" d="M 19.837 25.932 C 20.008 26.049 25.912 43.274 26.182 44.070 C 26.250 44.276 26.349 44.474 26.462 44.743 C 26.622 44.634 26.773 44.510 26.913 44.375 C 27.328 43.863 27.738 43.346 28.135 42.816 C 28.378 42.414 28.791 42.143 29.258 42.079 L 29.416 42.650 C 29.445 42.859 29.505 43.063 29.592 43.256 C 29.831 43.634 30.124 43.975 30.381 44.344 C 30.638 44.712 30.832 44.955 30.638 45.363 C 30.124 45.363 29.943 45.287 29.767 44.752 C 29.547 44.289 29.241 43.872 28.865 43.521 L 28.189 44.074 C 28.310 44.364 28.447 44.648 28.599 44.923 C 28.783 45.188 28.980 45.443 29.190 45.687 L 29.289 45.588 C 29.537 46.204 29.510 46.284 28.951 46.523 C 28.757 46.249 28.568 45.948 28.347 45.673 C 28.126 45.399 27.896 45.152 27.639 44.878 L 26.980 45.368 C 27.476 46.222 28.094 46.864 28.396 47.686 C 28.198 47.943 27.832 48.002 27.562 47.821 C 27.298 47.144 26.928 46.514 26.466 45.952 L 25.731 46.536 C 26.015 46.963 26.268 47.327 26.502 47.704 C 26.696 48.010 27.039 48.257 26.886 48.778 L 26.286 48.895 C 25.930 48.329 25.835 47.637 25.091 47.381 L 24.879 47.974 L 25.181 48.189 L 25.470 48.387 C 25.497 48.553 25.533 48.729 25.551 48.904 C 25.618 49.497 25.366 49.659 24.748 49.398 C 24.509 48.863 24.446 48.171 23.846 47.960 C 23.571 47.542 23.345 47.201 23.125 46.860 C 22.674 46.136 22.223 45.404 21.772 44.681 C 21.397 44.092 20.973 43.535 20.635 42.924 C 20.139 42.025 12.639 31.081 12.427 30.793 C 12.747 30.515 19.733 26.072 19.837 25.932 Z " transform="matrix(-1, 0, 0, 1, 36, 74)"/>
            <path id="Rectangle-path" fill="#FFFFFF" stroke="none" stroke-width="1" d="M 11.277 27.411 L 21.046 27.411 L 21.046 29.441 L 11.277 29.441 L 11.277 27.411 Z " transform="matrix(0.8412277698516846, 0.5406808853149414, 0.5406808853149414, -0.8412277698516846, -9.1, 117.6)"/>
            <path id="Rectangle-path" fill="#FFFFFF" stroke="none" stroke-width="1" d="M 13.132 30.734 L 22.900 30.734 L 22.900 32.765 L 13.132 32.765 L 13.132 30.734 Z " transform="matrix(0.8412277698516846, 0.5406808853149414, 0.5406808853149414, -0.8412277698516846, -14.3, 122.7)"/>
            <path id="Rectangle-path" fill="#FFFFFF" stroke="none" stroke-width="1" d="M 14.720 34.004 L 24.489 34.004 L 24.489 36.035 L 14.720 36.035 L 14.720 34.004 Z " transform="matrix(0.8412277698516846, 0.5406808853149414, 0.5406808853149414, -0.8412277698516846, -19, 127.85)"/>
          </g>
          <g id="Group-4">
            <path id="Shape" fill="#000000" stroke="none" stroke-width="1" d="M 85.833 68.573 C 84.074 56.609 75.582 42.232 62.098 43.692 C 61.346 43.776 60.595 43.891 59.843 44.038 C 63.063 38.741 66.581 33.574 69.476 28.232 C 72.015 23.551 79.163 11.901 79.163 11.901 L 74.437 0.669 L 68.800 4.300 C 68.800 4.300 47.667 37.699 41.533 47.736 C 36.649 55.710 31.968 63.267 30.809 72.863 C 29.844 80.838 32.036 88.211 38.683 93.081 C 42.034 95.538 45.570 96.122 49.574 97.124 C 56.474 98.850 63.622 100.103 69.954 97.124 C 82.063 91.441 86 80.497 85.833 68.573 Z " transform="matrix(-1, 0, 0, 1, 86, 0)"/>
            <path id="Shape" fill="#000000" stroke="none" stroke-width="1" d="M 13.843 42.852 L 6.763 57.709 L 34.742 58.887 L 41.565 43.103 L 13.843 42.852 " transform="matrix(-1, 0, 0, 1, 86, 0)"/>
            <path id="Shape" fill="#824600" stroke="none" stroke-width="1" d="M 34.232 44.451 C 33.781 48.692 30.236 51.190 25.826 50.885 C 22.831 50.678 20.067 48.360 19.985 45.179 C 19.909 42.120 23.215 39.545 25.961 38.921 C 29.028 38.224 33.713 39.195 34.232 44.451 Z " transform="matrix(-1, 0, 0, 1, 86, 0)"/>
            <path id="Shape" fill="#A0640A" stroke="none" stroke-width="1" d="M 35.828 56.263 C 35.504 59.354 32.920 61.169 29.704 60.949 C 27.521 60.796 25.510 59.111 25.451 56.793 C 25.397 54.547 27.805 52.691 29.803 52.237 C 32.036 51.730 35.450 52.430 35.828 56.263 Z " transform="matrix(-1, 0, 0, 1, 86, 0)"/>
            <path id="Shape" fill="#824600" stroke="none" stroke-width="1" d="M 21.726 52.417 C 21.600 53.603 20.608 54.299 19.377 54.214 C 18.503 54.177 17.799 53.489 17.744 52.619 C 17.744 51.766 18.646 51.047 19.413 50.871 C 20.274 50.678 21.582 50.948 21.726 52.417 Z " transform="matrix(-1, 0, 0, 1, 86, 0)"/>
            <path id="Shape" fill="#A0640A" stroke="none" stroke-width="1" d="M 38.827 50.287 C 38.701 51.473 37.709 52.170 36.478 52.084 C 35.604 52.047 34.900 51.359 34.845 50.490 C 34.845 49.636 35.747 48.917 36.514 48.742 C 37.375 48.549 38.683 48.818 38.827 50.287 Z " transform="matrix(-1, 0, 0, 1, 86, 0)"/>
            <path id="Shape" fill="#A0640A" stroke="none" stroke-width="1" d="M 17.690 55.966 C 17.564 57.152 16.572 57.849 15.340 57.763 C 14.464 57.726 13.758 57.032 13.708 56.159 C 13.708 55.306 14.610 54.587 15.376 54.412 C 16.233 54.228 17.546 54.497 17.690 55.966 Z " transform="matrix(-1, 0, 0, 1, 86, 0)"/>
            <path id="Shape" fill="#A0640A" stroke="none" stroke-width="1" d="M 16.946 49.506 C 16.734 51.509 15.056 52.691 12.973 52.547 C 11.497 52.482 10.308 51.320 10.213 49.852 C 10.177 48.405 11.737 47.192 13.036 46.895 C 14.484 46.567 16.698 47.021 16.946 49.506 Z " transform="matrix(-1, 0, 0, 1, 86, 0)"/>
            <path id="Shape" fill="#828278" stroke="none" stroke-width="1" d="M 40.280 47.731 L 15.855 47.718 L 11.331 58.136 L 6.222 57.570 L 12.919 41.850 L 43.116 40.947 L 40.280 47.731 " transform="matrix(-1, 0, 0, 1, 86, 0)"/>
            <path id="Shape" fill="#3C3C32" stroke="none" stroke-width="1" d="M 37.565 1.348 C 33.686 7.188 27.575 16.390 23.765 22.311 C 22.966 23.542 13.176 37.335 8.936 45.552 C 2.172 58.671 0.138 68.807 0.494 75.653 C 0.598 77.612 1.743 86.238 5.261 90.259 C 10.646 96.414 19.174 98.108 19.174 98.108 L 58.125 98.715 C 58.125 98.715 43.107 94.977 38.864 88.431 C 36.244 84.205 34.741 79.388 34.494 74.427 C 34.245 65.379 38.976 56.604 43.274 48.971 C 47.784 40.933 71.154 4.403 74.153 1.271 L 37.565 1.348 Z M 35.080 55.468 L 10.005 55.517 C 10.005 55.517 13.297 47.628 14.321 46.046 L 40.027 46.073 L 35.080 55.468 Z " transform="matrix(-1, 0, 0, 1, 86, 0)"/>
            <path id="Shape" fill="#000000" stroke="none" stroke-width="1" d="M 75.019 0.117 C 74.117 0.193 37.217 0.238 36.297 0.341 C 35.715 0.359 35.161 0.595 34.746 1.002 L 34.534 1.550 L 34.615 2.130 C 35.057 2.577 35.681 2.797 36.306 2.727 C 37.208 2.610 71.988 2.610 72.908 2.651 L 75.019 0.117 Z " transform="matrix(-1, 0, 0, 1, 86, 0)"/>
            <path id="Shape" fill="#000000" stroke="none" stroke-width="1" d="M 72.922 2.651 L 78.180 13.671 C 78.180 13.671 79.483 14.053 80.020 13.249 C 80.345 12.749 80.519 12.165 80.521 11.569 L 75.019 0.117 L 72.922 2.651 Z " transform="matrix(-1, 0, 0, 1, 86, 0)"/>
            <path id="Shape" fill="#3C3C32" stroke="none" stroke-width="1" d="M 75.176 75.811 C 74.078 79.232 71.922 82.220 69.016 84.347 C 65.652 86.755 61.534 87.631 57.674 86.373 C 54.588 85.327 52.050 83.094 50.625 80.173 C 48.704 76.220 48.432 71.670 49.867 67.517 C 51.074 63.706 53.604 60.448 57.002 58.325 C 60.159 56.411 63.442 55.494 66.924 56.636 C 73.936 58.936 77.882 67.683 75.176 75.811 Z " transform="matrix(-1, 0, 0, 1, 86, 0)"/>
            <path id="Shape" fill="#828278" stroke="none" stroke-width="1" d="M 70.793 74.337 C 70.076 76.576 68.666 78.531 66.766 79.922 C 64.654 81.526 61.895 82.018 59.356 81.242 C 57.341 80.560 55.684 79.105 54.752 77.199 C 53.498 74.616 53.321 71.644 54.260 68.932 C 55.049 66.442 56.702 64.312 58.923 62.926 C 60.993 61.677 63.131 61.074 65.413 61.820 C 69.972 63.312 72.538 69.027 70.793 74.337 Z " transform="matrix(-1, 0, 0, 1, 86, 0)"/>
          </g>
          <g id="Group-3">
            <path id="Rectangle-path" fill="#000000" stroke="none" stroke-width="1" d="M 0.135 7.950 L 7.130 7.950 L 7.130 8.950 L 0.135 8.950 L 0.135 7.950 Z " transform="matrix(-0.9876062870025635, 0.15695159137248993, 0.15695159137248993, 0.9876062870025635, 95.6, 41.5)"/>
            <path id="Rectangle-path" fill="#000000" stroke="none" stroke-width="1" d="M 3.201 13.194 L 10.195 13.194 L 10.195 14.194 L 3.201 14.194 L 3.201 13.194 Z " transform="matrix(-0.9156625866889954, -0.4019477665424347, -0.4019477665424347, 0.9156625866889954, 101.9, 45.8)"/>
            <path id="Rectangle-path" fill="#000000" stroke="none" stroke-width="1" d="M 3.717 2.578 L 10.711 2.578 L 10.711 3.578 L 3.717 3.578 L 3.717 2.578 Z " transform="matrix(-0.7238106727600098, 0.6899986267089844, 0.6899986267089844, 0.7238106727600098, 92.85, 37.85)"/>
          </g>
          <g id="Group-2">
            <path id="Shape" fill="#3C3C32" stroke="none" stroke-width="1" d="M 11.088 6.312 C 11.088 6.312 6.578 5.023 5.784 4.964 C 4.991 4.906 4.932 5.297 5.829 5.643 C 6.526 5.972 7.168 6.405 7.733 6.928 L 11.088 6.312 Z " transform="matrix(-1, 0, 0, 1, 105, 69)"/>
            <path id="Shape" fill="#828278" stroke="none" stroke-width="1" d="M 77.008 9.430 C 77.008 9.430 82.870 10.162 83.840 4.569 C 84.810 -1.025 77.125 0.678 77.125 0.678 C 73.855 0.840 25.713 4.551 11.029 5.782 C 4.648 6.317 0.657 6.568 0.630 7.215 C 0.603 7.862 5.518 7.826 5.518 7.826 C 5.670 9.108 6.605 10.161 7.863 10.468 C 7.863 10.468 7.863 10.490 7.922 10.504 C 9.205 10.657 10.495 10.734 11.787 10.733 C 22.994 11.070 77.008 9.430 77.008 9.430 Z " transform="matrix(-1, 0, 0, 1, 105, 69)"/>
            <g id="Group">
              <path id="Shape" fill="#F01446" stroke="none" stroke-width="1" d="M 2.241 7.259 L 3.653 7.308 C 3.761 6.481 3.874 4.105 3.986 3.264 C 3.793 3.215 2.588 3.318 2.354 3.264 C 2.367 3.404 2.286 5.727 2.241 7.259 Z " transform="matrix(-1, 0, 0, 1, 96, 73)"/>
              <path id="Shape" fill="#000000" stroke="none" stroke-width="1" d="M 5.073 5.102 C 3.576 5.744 1.750 6.046 0.789 4.482 C 0.447 3.985 0.320 3.372 0.436 2.781 C 0.552 2.189 0.902 1.669 1.407 1.337 C 3.017 0.250 4.672 0.555 5.294 1.867 C 5.674 2.929 5.593 4.101 5.073 5.102 Z " transform="matrix(-1, 0, 0, 1, 96, 73)"/>
              <path id="Shape" fill="#3C3C32" stroke="none" stroke-width="1" d="M 4.090 4.190 C 3.292 4.531 2.318 4.693 1.808 3.858 C 1.623 3.594 1.553 3.266 1.615 2.950 C 1.678 2.634 1.866 2.357 2.137 2.182 C 2.994 1.602 3.878 1.764 4.212 2.465 C 4.413 3.032 4.369 3.657 4.090 4.190 Z " transform="matrix(-1, 0, 0, 1, 96, 73)"/>
            </g>
          </g>
        </g>
      </g>
    </g>
  </g>
</svg>