<?xml version="1.0" encoding="utf-8"?>
<!-- Generator: Adobe Illustrator 18.0.0, SVG Export Plug-In . SVG Version: 6.00 Build 0)  -->
<!DOCTYPE svg PUBLIC "-//W3C//DTD SVG 1.1//EN" "http://www.w3.org/Graphics/SVG/1.1/DTD/svg11.dtd">
<svg version="1.1" id="Layer_2" xmlns="http://www.w3.org/2000/svg" xmlns:xlink="http://www.w3.org/1999/xlink" x="0px" y="0px"
	 viewBox="0 0 32.7 50.3" enable-background="new 0 0 32.7 50.3" xml:space="preserve">
<g>
	<path fill="#53AD4E" d="M31.8,29.8c-0.7-2.3-1.9-4.2-4-5.5c-1.4-0.9-3-1.6-4.6-2.1c-3.4-1.2-7-2.2-10.1-4.2c-1.7-1.1-3-2.4-3.3-4.5
		C9.5,11.7,9.5,9.8,10.2,8c0.8-1.8,2.2-2.7,4-2.8c2.8-0.2,6.1,1.9,7.2,4.5c0.7,1.5,1.2,3.1,1.7,4.6c0.2,0.7,0.6,0.8,1.2,0.7
		c0.8,0,1.5-0.1,2.3-0.2c0.3,0,0.6-0.1,0.8-0.3c1-1,2-2,2.9-3c0.2-0.2,0.4-0.6,0.4-0.9c0.1-2.4,0.1-4.7,0.3-7.1c0.2-2,0.2-2-1.8-2
		c-1.1,0-1.1,0-1.1,1.2c0,0.1,0,0.2,0,0.4c-0.5-0.3-0.9-0.5-1.4-0.7c-1.2-0.5-2.4-1-3.6-1.5c-3.1-1.2-6.2-1.3-9.3-0.3
		c-1.9,0.6-3.6,1.5-5.4,2.4C6.4,4.1,4.3,5.4,2.7,7.3c-1.1,1.2-2,2.6-2.4,4.2C-0.3,14,0,16.4,0.8,18.9c1.1,3.2,3,5.8,5.9,7.5
		c3.2,1.9,6.5,3.4,9.8,5.2c1.4,0.8,2.7,1.7,3.9,2.6c0.9,0.7,1.7,1.6,2,2.8c0.9,2.6-1.6,6.3-3.4,7.3c-2.1,1.1-4.4,1.1-6.5-0.1
		c-3-1.6-4.8-4.3-5.6-7.6c-0.3-1.2-0.3-1.2-1.5-1.2c-0.3,0-0.5,0-0.8,0c-0.2,0-0.4,0-0.6,0.2c-1,0.8-1.9,1.8-3,2.5
		c-0.7,0.6-1,1.1-1,2.1c0.1,1.9,0.1,3.8,0.1,5.7c0,1,0,1.9,0,2.9c1.8-0.1,3.5,0.8,4.5-0.8c2,0.7,3.9,1.4,5.8,1.9
		c3.2,0.8,6.5,0.7,9.7,0.2c0.8-0.1,1.6-0.4,2.4-0.8c2.9-1.3,5-3.6,7.1-5.8c0.8-0.9,1.6-1.9,2-3.1C33.1,36.8,32.8,33.3,31.8,29.8z
		 M29.7,11.3c-1,1-1.8,2-2.8,2.8c-0.4,0.3-1.2,0.2-1.9,0.3c0-0.1-0.1-0.2-0.1-0.3c0.6-0.5,1.1-1.1,1.7-1.6c0.2-0.2,0.4-0.3,0.5-0.5
		C27.6,10.9,28.5,10.9,29.7,11.3z M20.2,2.8c2.8,0.5,4.9,2,6.4,4.3c0.5,0.8,0.8,1.6,1.2,2.5c0.1,0.3,0,0.8-0.2,1
		c-1.2,1.2-2.5,2.2-3.9,3.4c-0.1-0.5-0.2-1-0.3-1.4c-0.7-2.6-1.6-5-4-6.5c-2-1.2-4.1-1.9-6.5-1.4C15,3.3,17.4,2.4,20.2,2.8z
		 M0.8,46.8c0-2.3,0-4.5-0.1-6.8c0-0.7,0.3-1.1,0.8-1.4c0.9-0.7,1.8-1.3,2.5-1.9c-0.1,2.7-0.2,5.5-0.3,8.3c0,0.5-0.1,0.8-0.6,1.1
		c-0.8,0.5-1.4,1.1-2.3,1.8C0.8,47.3,0.8,47.1,0.8,46.8z M1.8,48.1c1.4-1.4,2-1.7,3.4-1.8C4.3,47.6,3.3,48.4,1.8,48.1z M18.1,49.5
		c-3,0.1-6-0.1-8.8-0.8c-1.3-0.3-2.6-0.9-3.9-1.4c0.5-0.7,1-1.3,1.6-2c5.7,2.5,11.7,3.3,18.1,1.5C22.8,48.6,20.6,49.4,18.1,49.5z
		 M26.1,39.5c-0.9,1.9-2.2,3.4-4.1,4.5c-0.6,0.3-1.4,0.5-2,0.8c0-0.1,0-0.1-0.1-0.2c0.6-0.8,1.3-1.4,1.8-2.3c0.6-1,1.1-2.2,1.4-3.3
		c0.4-1.8-0.2-3.5-1.6-4.8c-1.5-1.5-3.3-2.6-5.3-3.5C15,30,14,29.4,12.9,28.8c-2-1-4-2-5.9-3.1c-2.8-1.7-4.6-4.2-5.6-7.4
		c-0.7-2.2-0.8-4.4-0.3-6.6c0.2-0.7,0.4-1.3,0.8-1.9c1.5-2.4,3.4-4.3,5.7-5.4C6.9,5.6,6,6.9,5.2,8.2c-0.9,1.4-1.1,3-0.9,4.5
		c0.2,1.3,0.6,2.7,0.9,4c0.4,1.4,1.3,2.6,2.4,3.6c3.2,2.8,6.8,5,10.8,6.4c0.2,0.1,0.4,0.2,0.6,0.3c1.8,1.1,3.6,2.2,5.4,3.3
		c1.3,0.9,2,2.1,2.4,3.8C27.2,36.1,26.9,37.8,26.1,39.5z"/>
	<path fill="#FFFFFF" d="M27.6,10.6c-1.2,1.2-2.5,2.2-3.9,3.4c-0.1-0.5-0.2-1-0.3-1.4c-0.7-2.6-1.6-5-4-6.5c-2-1.2-4.1-1.9-6.5-1.4
		c2.2-1.4,4.6-2.3,7.4-1.9c2.8,0.5,4.9,2,6.4,4.3c0.5,0.8,0.8,1.6,1.2,2.5C27.9,9.9,27.8,10.4,27.6,10.6z"/>
	<path fill="#FFFFFF" d="M29.7,11.3c-1,1-1.8,2-2.8,2.8c-0.4,0.3-1.2,0.2-1.9,0.3c0-0.1-0.1-0.2-0.1-0.3c0.6-0.5,1.1-1.1,1.7-1.6
		c0.2-0.2,0.4-0.3,0.5-0.5C27.6,10.9,28.5,10.9,29.7,11.3z"/>
	<path fill="#FFFFFF" d="M5.1,46.3c-0.8,1.3-1.8,2-3.4,1.8C3.2,46.7,3.8,46.4,5.1,46.3z"/>
	<path fill="#FFFFFF" d="M25,46.8c-2.1,1.8-4.4,2.6-6.9,2.7c-3,0.1-6-0.1-8.8-0.8c-1.3-0.3-2.6-0.9-3.9-1.4c0.5-0.7,1-1.3,1.6-2
		C12.5,47.8,18.5,48.6,25,46.8z"/>
	<path fill="#FFFFFF" d="M4,36.6c-0.1,2.7-0.2,5.5-0.3,8.3c0,0.5-0.1,0.8-0.6,1.1c-0.8,0.5-1.4,1.1-2.3,1.8c0-0.5,0-0.8,0-1
		c0-2.3,0-4.5-0.1-6.8c0-0.7,0.3-1.1,0.8-1.4C2.4,37.9,3.3,37.2,4,36.6z"/>
	<path fill="#FFFFFF" d="M26.1,39.5c-0.9,1.9-2.2,3.4-4.1,4.5c-0.6,0.3-1.4,0.5-2,0.8c0-0.1,0-0.1-0.1-0.2c0.6-0.8,1.3-1.4,1.8-2.3
		c0.6-1,1.1-2.2,1.4-3.3c0.4-1.8-0.2-3.5-1.6-4.8c-1.5-1.5-3.3-2.6-5.3-3.5C15,30,14,29.4,12.9,28.8c-2-1-4-2-5.9-3.1
		c-2.8-1.7-4.6-4.2-5.6-7.4c-0.7-2.2-0.8-4.4-0.3-6.6c0.2-0.7,0.4-1.3,0.8-1.9c1.5-2.4,3.4-4.3,5.7-5.4C6.9,5.6,6,6.9,5.2,8.2
		c-0.9,1.4-1.1,3-0.9,4.5c0.2,1.3,0.6,2.7,0.9,4c0.4,1.4,1.3,2.6,2.4,3.6c3.2,2.8,6.8,5,10.8,6.4c0.2,0.1,0.4,0.2,0.6,0.3
		c1.8,1.1,3.6,2.2,5.4,3.3c1.3,0.9,2,2.1,2.4,3.8C27.2,36.1,26.9,37.8,26.1,39.5z"/>
</g>
</svg>
