<svg width="75px" height="137px" viewBox="0 0 75 137" version="1.1" xml:space="preserve" xmlns="http://www.w3.org/2000/svg" xmlns:xlink="http://www.w3.org/1999/xlink">
  <!-- Generator: Sketch 50.2 (55047) - http://www.bohemiancoding.com/sketch -->
  <defs/>
  <g>
    <title>Slice 1</title>
    <desc>Created with Sketch.</desc>
    <g id="Page-1" stroke="none" stroke-width="1" fill="none" fill-rule="evenodd">
      <g id="ghost-a-[fantasy,spooky,halloween,ghoul,monster,alex-eben-meyer]" fill-rule="nonzero">
        <g id="Backside" transform="translate(1.000000, 86.000000)" fill="#00A0B4">
          <path d="M36.2413793,27.249065 C35.6594828,33.010748 33.8491379,34.931308 30.2931034,35.763551 C28.4827586,36.211682 26.737069,36.275701 25.1206897,35.443458 C21.6939655,33.650935 20.9827586,28.657477 19.237069,25.392523 C15.7456897,24.432243 16.1982759,28.081308 11.2198276,28.081308 C2.5560345,28.081308 2.6206897,23.535981 1.0043103,10.540187 C-0.612069,-2.4556075 35.012931,1.5775701 35.012931,1.5775701 C35.012931,1.5775701 36.8232759,21.551402 36.2413793,27.249065 Z" id="Shape"/>
          <path d="M42.189655,24.432243 C40.961207,21.16729 42.448276,5.2266355 42.448276,5.2266355 L68.116379,8.1074766 C68.116379,8.1074766 69.021552,16.493925 69.150862,19.118692 C69.474138,31.026168 65.594828,32.626636 62.943966,32.562617 C59.258621,32.434579 53.375,25.008411 52.146552,22.383645 C50.659483,19.118692 44.517241,21.231308 42.189655,24.432243 Z" id="Shape"/>
        </g>
        <g id="Hand-L" transform="translate(4.000000, 92.000000)">
          <path d="M11.3232759,0.8271028 L0.137931,1.403271 C0.3965517,7.677103 2.4008621,40.518692 5.6982759,44.807944 L6.4094828,44.935981 C6.7327586,44.103738 5.8275862,40.774766 7.0560345,40.710748 C8.2198276,41.542991 8.0905172,43.911682 9.0603448,45 C9.5775862,43.719626 7.7672414,40.774766 10.0301724,40.518692 C10.5474138,41.671028 10.9353448,43.591589 11.9698276,44.423832 C12.9396552,42.695327 12.2284483,9.085514 11.3232759,0.8271028 Z" id="Shape" fill="#78C8C8"/>
          <path d="M9.1896552,19.008411 C6.4741379,19.136449 6.2155172,23.105607 9.0603448,22.97757 C11.9051724,22.849533 11.5172414,18.880374 9.1896552,19.008411 Z" id="Shape" fill="#AADCDC"/>
          <path d="M5.1163793,25.794393 C3.6293103,25.858411 3.5,28.035047 5.0517241,27.971028 C6.6034483,27.907009 6.4094828,25.794393 5.1163793,25.794393 Z" id="Shape" fill="#AADCDC"/>
        </g>
        <g id="Hand-R" transform="translate(56.000000, 94.000000)">
          <path d="M10.918103,5.100935 L0.314655,0.4915888 C0.314655,4.780841 0.37931,39.542991 1.284483,41.207477 C2.577586,40.05514 2.189655,38.134579 3.224138,36.982243 L3.806034,36.982243 C5.099138,38.326636 3.87069,40.759346 4.711207,42.359813 C6.844828,41.591589 6.068966,37.942523 7.491379,36.598131 C8.784483,37.366355 7.75,39.542991 8.784483,39.991121 C10.918103,38.518692 11.176724,31.860748 11.435345,29.620093 C11.887931,25.714953 12.081897,21.745794 12.017241,17.776636 C12.017241,13.871495 11.952586,8.878037 10.918103,5.100935 Z" id="Shape" fill="#78C8C8"/>
          <path d="M4.646552,20.913551 C0.896552,21.48972 1.025862,33.525234 4.969828,33.013084 C8.913793,32.500935 7.87931,20.465421 4.646552,20.913551 Z" id="Shape" fill="#AADCDC"/>
        </g>
        <g id="Body-+-Face">
          <rect id="Rectangle-path" fill="#006482" x="24.3103448" y="38.8593458" width="27.9956897" height="21.1901869"/>
          <path d="M38.7931034,40.2037383 C38.7931034,40.2037383 38.0818966,44.1088785 39.9568966,44.8130841 C41.831897,45.5172897 43.383621,45.5813084 44.094828,44.1088785 C44.806034,42.6364486 44.612069,39.435514 44.612069,39.435514 L38.7931034,40.2037383 Z" id="Shape" fill="#FFFFFF"/>
          <path d="M49.849138,59.985514 C48.943966,64.8509346 43.189655,68.6920561 34.9784483,67.2196262 C28.512931,66.0672897 23.5991379,63.5705607 24.5043103,58.8971963 C25.5387931,53.7757009 31.9396552,50.9588785 39.375,52.111215 C47.456897,53.2635514 51.465517,53.9037383 49.849138,59.985514 Z" id="Shape" fill="#000000"/>
          <path d="M74.288793,74.6457944 C72.737069,58.2570093 75.711207,42.3803738 70.668103,26.3757009 C66.271552,12.3556075 58.836207,3.71308411 44.224138,0.7682243 C30.1293103,-2.04859813 12.8017241,5.4415888 6.9827586,18.1172897 C0.5818966,32.0733645 2.0043103,48.1420561 0.9051724,62.9303738 C0.2586207,71.3168224 0.8405172,79.3191589 1.2284483,87.7696262 C1.5517241,95.707944 3.9439655,110.496262 11.8318966,109.08785 C15.4525862,108.447664 17.1336207,103.390187 22.3060345,103.966355 C27.4784483,104.542523 26.1206897,111.008411 27.4784483,112.864953 C30,116.321963 36.0775862,119.202804 40.215517,117.602336 C48.685345,114.273364 42.413793,99.869159 49.590517,99.292991 C56.767241,98.716822 57.801724,107.615421 60.193966,110.304206 C63.103448,113.633178 68.340517,114.337383 70.926724,110.304206 C73.512931,106.271028 73.25431,99.549065 73.448276,94.9397196 C73.771552,88.2817757 74.87069,81.2397196 74.288793,74.6457944 Z M47.780172,49.8065421 C47.586207,55.632243 42.413793,57.296729 37.5646552,57.296729 C32.7155172,57.296729 28.6422414,54.8640187 28.0603448,49.8705607 C27.4784483,44.8771028 31.487069,40.7158879 38.2112069,41.1 C44.547414,41.5481308 47.974138,43.9808411 47.780172,49.8065421 Z" id="Shape" fill="#AADCDC"/>
          <path d="M21.4008621,10.3070093 C18.1681034,8.3224299 10.3448276,17.5411215 13.7068966,19.6537383 C17.0689655,21.7663551 24.1810345,12.035514 21.4008621,10.3070093 Z" id="Shape" fill="#78C8C8"/>
          <path d="M14.9353448,46.4775701 C14.4181034,46.0934579 14.1594828,45.5172897 14.2241379,44.9411215 C14.0948276,44.428972 14.2887931,43.8528037 14.7413793,43.5327103 C15.387931,43.7247664 15.5818966,43.9168224 15.6465517,44.621028 C15.7112069,45.3252336 15.7758621,46.0934579 14.9353448,46.4775701 Z" id="Shape" fill="#000000"/>
          <path d="M59.87069,45.453271 C59.159483,44.7490654 59.159483,43.596729 59.87069,42.8925234 C59.87069,42.8925234 59.87069,42.8925234 59.87069,42.8925234 C60.193966,42.8285047 60.387931,43.0205607 60.517241,43.2766355 C60.840517,43.7247664 60.905172,44.3009346 60.711207,44.8130841 L59.87069,45.453271 Z" id="Shape" fill="#000000"/>
          <path d="M62.974138,102.173832 C63.168103,104.350467 64.073276,106.207009 67.37069,106.399065 C71.185345,106.591121 70.150862,90.714486 66.142241,90.4584112 C62.133621,90.2023364 62.586207,97.052336 62.974138,102.173832 Z" id="Shape" fill="#78C8C8"/>
          <path d="M52.887931,94.4915888 C53.081897,95.579907 53.987069,96.476168 57.284483,96.604206 C61.099138,96.668224 60.064655,88.7939252 56.056034,88.6018692 C52.047414,88.4098131 52.5,91.9308411 52.887931,94.4915888 Z" id="Shape" fill="#78C8C8"/>
          <path d="M69.375,77.9107477 C65.560345,78.2948598 65.301724,88.9219626 69.24569,88.6018692 C73.189655,88.2817757 72.672414,77.5906542 69.375,77.9107477 Z" id="Shape" fill="#00A0B4"/>
          <path d="M20.9482759,95.195794 C17.1336207,95.38785 16.875,100.893458 20.8189655,100.701402 C24.762931,100.509346 24.2456897,95.067757 20.9482759,95.195794 Z" id="Shape" fill="#006482"/>
          <path d="M5.3663793,75.8621495 C2.6508621,75.9901869 2.3922414,79.9593458 5.237069,79.8313084 C8.0818966,79.703271 7.7586207,75.7981308 5.3663793,75.8621495 Z" id="Shape" fill="#78C8C8"/>
          <path d="M49.267241,80.5995327 C46.551724,80.7275701 46.357759,84.696729 49.137931,84.5686916 C51.918103,84.4406542 51.659483,80.4714953 49.267241,80.5995327 Z" id="Shape" fill="#78C8C8"/>
          <path d="M26.8318966,70.6126168 C24.1163793,70.7406542 23.9224138,74.7098131 26.7025862,74.5817757 C29.4827586,74.4537383 29.1594828,70.4845794 26.8318966,70.6126168 Z" id="Shape" fill="#00A0B4"/>
          <path d="M5.4956897,97.564486 C5.7543103,100.829439 7.2413793,103.518224 12.3491379,103.774299 C18.2974138,104.094393 16.6810345,80.6635514 10.4741379,80.2794393 C4.2672414,79.8953271 4.9137931,90.0102804 5.4956897,97.564486 Z" id="Shape" fill="#78C8C8"/>
        </g>
      </g>
    </g>
  </g>
</svg>