<svg version="1.1" width="209" height="96" viewBox="-1 -1 209 96" xmlns="http://www.w3.org/2000/svg" xmlns:xlink="http://www.w3.org/1999/xlink">
  <!-- Exported by Scratch - http://scratch.mit.edu/ -->
  <g id="ID0.6175439013168216" transform="matrix(1, 0, 0, 1, 0, 0.5)">
    <g id="Page-1">
      <g id="Grasshopper-1Grasshopper-1">
        <g id="Group">
          <path id="Path" fill="#174832" stroke="none" stroke-width="1" d="M 140.688 19 L 125.802 30.500 L 37.490 30.500 C 24.008 30.500 11.127 25 1.804 15.250 L 0.802 14.200 C 0 13.350 0.050 12.050 0.852 11.250 C 1.002 11.100 1.153 11 1.353 10.900 L 22.203 0.350 L 140.638 0.350 L 140.638 19 L 140.688 19 Z " transform="matrix(1, 0, 0, 1, 0, 42.75)"/>
          <g id="Path">
            <path id="ID0.6622228352352977" fill="none" stroke="#151B22" stroke-width="0.5" d="M 119.287 2.500 L 119.287 27.350 " transform="matrix(1, 0, 0, 1, 9, 42.75)"/>
            <path id="ID0.7392017706297338" fill="none" stroke="#151B22" stroke-width="0.5" d="M 107.408 0.500 L 107.408 30.350 " transform="matrix(1, 0, 0, 1, 9, 42.75)"/>
            <path id="ID0.051407866179943085" fill="none" stroke="#151B22" stroke-width="0.5" d="M 95.480 1 L 95.480 30.350 " transform="matrix(1, 0, 0, 1, 9, 42.75)"/>
            <path id="ID0.8760720072314143" fill="none" stroke="#151B22" stroke-width="0.5" d="M 83.601 0 L 83.601 30.350 " transform="matrix(1, 0, 0, 1, 9, 42.75)"/>
            <path id="ID0.9872665079310536" fill="none" stroke="#151B22" stroke-width="0.5" d="M 71.722 0.500 L 71.722 30.350 " transform="matrix(1, 0, 0, 1, 9, 42.75)"/>
            <path id="ID0.46958543499931693" fill="none" stroke="#151B22" stroke-width="0.5" d="M 59.794 0.500 L 59.794 30.350 " transform="matrix(1, 0, 0, 1, 9, 42.75)"/>
            <path id="ID0.624063057359308" fill="none" stroke="#151B22" stroke-width="0.5" d="M 47.915 0 L 47.915 30.350 " transform="matrix(1, 0, 0, 1, 9, 42.75)"/>
            <path id="ID0.4137639608234167" fill="none" stroke="#151B22" stroke-width="0.5" d="M 36.037 0 L 36.037 30.350 " transform="matrix(1, 0, 0, 1, 9, 42.75)"/>
            <path id="ID0.9047740730457008" fill="none" stroke="#151B22" stroke-width="0.5" d="M 24.108 0.500 L 24.108 29.850 " transform="matrix(1, 0, 0, 1, 9, 42.75)"/>
            <path id="ID0.24088295456022024" fill="none" stroke="#151B22" stroke-width="0.5" d="M 12.229 1.500 L 12.229 27.350 " transform="matrix(1, 0, 0, 1, 9, 42.75)"/>
            <path id="ID0.24455612944439054" fill="none" stroke="#151B22" stroke-width="0.5" d="M 0.351 7 L 0.351 21.350 " transform="matrix(1, 0, 0, 1, 9, 42.75)"/>
          </g>
        </g>
        <g id="Group">
          <path id="Path" fill="#00B694" stroke="none" stroke-width="1" d="M 116.931 0.350 L 3.709 0.350 C -0.501 0.350 -1.303 6.350 2.807 7.400 L 49.218 19.600 C 65.858 23.950 83.501 22.900 99.489 16.600 L 120.039 8.500 L 116.931 0.350 Z " transform="matrix(1, 0, 0, 1, 11, 42.25)"/>
          <g id="Path">
            <path id="ID0.35658307699486613" fill="none" stroke="#1B7E64" stroke-width="0.5" d="M 132.719 0.550 L 0 0.550 " transform="matrix(1, 0, 0, 1, 11.5, 45.25)"/>
            <path id="ID0.38544233702123165" fill="none" stroke="#1B7E64" stroke-width="0.5" d="M 112.671 8.050 L 17.041 8.050 " transform="matrix(1, 0, 0, 1, 11.5, 45.25)"/>
            <path id="ID0.8587798592634499" fill="none" stroke="#1B7E64" stroke-width="0.5" d="M 92.623 15.550 L 45.610 15.550 " transform="matrix(1, 0, 0, 1, 11.5, 45.25)"/>
          </g>
        </g>
        <g id="Group">
          <path id="Path" fill="none" stroke="#151B22" stroke-width="1" stroke-linecap="round" d="M 42.552 0 L 17.191 42.350 L 57.288 15.150 " transform="matrix(1, 0, 0, 1, 150.35, 2.25)"/>
          <path id="Path" fill="#00C0A5" stroke="none" stroke-width="1" d="M 3.809 34.650 L 11.478 34.650 C 15.587 34.650 18.895 37.950 18.895 42.050 C 18.895 43.350 18.545 44.650 17.893 45.800 L 8.120 62.350 C 6.967 64.300 4.411 65 2.406 63.800 C 1.153 63.050 0.351 61.700 0.351 60.250 L 0.351 38.150 C 0.351 36.200 1.905 34.650 3.809 34.650 Z " transform="matrix(1, 0, 0, 1, 150.35, 2.25)"/>
          <path id="Path" fill="none" stroke="#174832" stroke-width="0.5" d="M 4.260 64.400 L 10.174 45.150 " transform="matrix(1, 0, 0, 1, 150.35, 2.25)"/>
          <path id="Oval" fill="#ECF135" stroke="none" stroke-width="1" d="M 10.826 36.950 C 12.333 36.950 13.699 37.561 14.688 38.547 C 15.677 39.534 16.289 40.896 16.289 42.400 C 16.289 43.904 15.677 45.266 14.688 46.253 C 13.699 47.239 12.333 47.850 10.826 47.850 C 9.319 47.850 7.953 47.239 6.964 46.253 C 5.975 45.266 5.363 43.904 5.363 42.400 C 5.363 40.896 5.975 39.534 6.964 38.547 C 7.953 37.561 9.319 36.950 10.826 36.950 Z " transform="matrix(1, 0, 0, 1, 150.35, 2.25)"/>
          <path id="Oval" fill="#151B22" stroke="none" stroke-width="1" d="M 10.826 39.050 C 11.752 39.050 12.592 39.425 13.200 40.032 C 13.808 40.638 14.184 41.476 14.184 42.400 C 14.184 43.324 13.808 44.162 13.200 44.768 C 12.592 45.375 11.752 45.750 10.826 45.750 C 9.900 45.750 9.060 45.375 8.452 44.768 C 7.844 44.162 7.468 43.324 7.468 42.400 C 7.468 41.476 7.844 40.638 8.452 40.032 C 9.060 39.425 9.900 39.050 10.826 39.050 Z " transform="matrix(1, 0, 0, 1, 150.35, 2.25)"/>
        </g>
        <g id="Group">
          <path id="Path" fill="none" stroke="#151B22" stroke-width="1.5" stroke-linecap="round" d="M 0.150 93.650 L 13.533 93.650 L 13.533 3.500 " transform="matrix(1, 0, 0, 1, 40.05, -0.25)"/>
          <path id="Path" fill="#ECF135" stroke="none" stroke-width="1" d="M 66.811 59.950 L 15.387 1.350 C 14.635 0.350 13.232 0.150 12.229 0.900 C 11.227 1.650 11.027 3.050 11.778 4.050 L 54.581 69.850 C 56.937 73.550 61.849 74.600 65.558 72.250 C 69.267 69.900 70.319 65 67.963 61.300 C 67.613 60.850 67.212 60.350 66.811 59.950 Z " transform="matrix(1, 0, 0, 1, 40.05, -0.25)"/>
        </g>
        <g id="Group">
          <path id="Path" fill="none" stroke="#151B22" stroke-width="1.5" stroke-linecap="round" d="M 0.150 54.650 L 12.981 54.650 L 12.981 4.350 " transform="matrix(1, 0, 0, 1, 75.15, 38.75)"/>
          <path id="Oval" fill="#151B22" stroke="none" stroke-width="1" d="M 12.981 0.350 C 13.603 0.350 14.167 0.602 14.576 1.009 C 14.984 1.417 15.237 1.979 15.237 2.600 C 15.237 3.221 14.984 3.783 14.576 4.191 C 14.167 4.598 13.603 4.850 12.981 4.850 C 12.359 4.850 11.795 4.598 11.387 4.191 C 10.979 3.783 10.726 3.221 10.726 2.600 C 10.726 1.979 10.979 1.417 11.387 1.009 C 11.795 0.602 12.359 0.350 12.981 0.350 Z " transform="matrix(1, 0, 0, 1, 75.15, 38.75)"/>
          <path id="Oval" fill="#151B22" stroke="none" stroke-width="1" d="M 50.120 24.500 C 51.503 24.500 52.756 25.060 53.664 25.965 C 54.571 26.871 55.133 28.121 55.133 29.500 C 55.133 30.879 54.571 32.129 53.664 33.035 C 52.756 33.940 51.503 34.500 50.120 34.500 C 48.738 34.500 47.485 33.940 46.577 33.035 C 45.670 32.129 45.108 30.879 45.108 29.500 C 45.108 28.121 45.670 26.871 46.577 25.965 C 47.485 25.060 48.738 24.500 50.120 24.500 Z " transform="matrix(1, 0, 0, 1, 75.15, 38.75)"/>
          <path id="Path" fill="none" stroke="#151B22" stroke-width="2.5" d="M 50.120 29.500 L 12.981 2.600 " transform="matrix(1, 0, 0, 1, 75.15, 38.75)"/>
        </g>
        <g id="Group">
          <path id="Path" fill="#54923A" stroke="none" stroke-width="1" d="M 1.504 0.350 L 31.927 0.350 L 31.927 30.150 C 31.927 32.700 29.872 34.800 27.316 34.800 C 25.812 34.800 24.409 34.100 23.557 32.900 L 0.652 1.950 C 0.301 1.500 0.401 0.900 0.852 0.550 C 1.053 0.400 1.303 0.350 1.504 0.350 Z " transform="matrix(1, 0, 0, 1, 118.75, 40.25)"/>
          <path id="Oval" fill="#174832" stroke="none" stroke-width="1" d="M 14.184 3 C 15.180 3 16.082 3.403 16.735 4.055 C 17.388 4.707 17.793 5.607 17.793 6.600 C 17.793 7.593 17.388 8.493 16.735 9.145 C 16.082 9.797 15.180 10.200 14.184 10.200 C 13.188 10.200 12.286 9.797 11.633 9.145 C 10.980 8.493 10.575 7.593 10.575 6.600 C 10.575 5.607 10.980 4.707 11.633 4.055 C 12.286 3.403 13.188 3 14.184 3 Z " transform="matrix(1, 0, 0, 1, 118.75, 40.25)"/>
          <path id="Oval" fill="#174832" stroke="none" stroke-width="1" d="M 25.461 10.200 C 26.457 10.200 27.359 10.603 28.012 11.255 C 28.666 11.907 29.070 12.807 29.070 13.800 C 29.070 14.793 28.666 15.693 28.012 16.345 C 27.359 16.997 26.457 17.400 25.461 17.400 C 24.466 17.400 23.563 16.997 22.910 16.345 C 22.257 15.693 21.853 14.793 21.853 13.800 C 21.853 12.807 22.257 11.907 22.910 11.255 C 23.563 10.603 24.466 10.200 25.461 10.200 Z " transform="matrix(1, 0, 0, 1, 118.75, 40.25)"/>
          <path id="Path" fill="#174832" stroke="none" stroke-width="1" d="M 15.086 21.400 C 16.640 21 17.793 19.600 17.793 17.950 C 17.793 15.950 16.189 14.350 14.184 14.350 C 12.881 14.350 11.728 15.050 11.127 16.100 L 15.086 21.400 Z " transform="matrix(1, 0, 0, 1, 118.75, 40.25)"/>
          <path id="Path" fill="#174832" stroke="none" stroke-width="1" d="M 22.604 0.350 C 22.153 0.950 21.903 1.650 21.903 2.450 C 21.903 4.450 23.507 6.050 25.511 6.050 C 27.516 6.050 29.120 4.450 29.120 2.450 C 29.120 1.650 28.869 0.950 28.418 0.350 L 22.604 0.350 Z " transform="matrix(1, 0, 0, 1, 118.75, 40.25)"/>
          <path id="Path" fill="#174832" stroke="none" stroke-width="1" d="M 2.255 0.350 C 2.255 0.350 2.255 0.350 2.255 0.350 C 2.255 2.350 3.859 3.950 5.864 3.950 C 7.869 3.950 9.473 2.350 9.473 0.350 C 9.473 0.350 9.473 0.350 9.473 0.350 L 2.255 0.350 Z " transform="matrix(1, 0, 0, 1, 118.75, 40.25)"/>
          <path id="Path" fill="#174832" stroke="none" stroke-width="1" d="M 31.927 17.200 C 29.922 17.200 28.318 18.800 28.318 20.800 C 28.318 22.800 29.922 24.400 31.927 24.400 L 31.927 17.200 Z " transform="matrix(1, 0, 0, 1, 118.75, 40.25)"/>
          <path id="Path" fill="#174832" stroke="none" stroke-width="1" d="M 23.657 32.650 C 24.509 33.850 25.912 34.550 27.416 34.550 C 29.972 34.550 32.027 32.450 32.027 29.900 L 32.027 25.350 L 18.244 25.350 L 23.657 32.650 Z " transform="matrix(1, 0, 0, 1, 118.75, 40.25)"/>
        </g>
        <g id="Group">
          <path id="Path" fill="none" stroke="#151B22" stroke-width="1.5" stroke-linecap="round" d="M 58.841 27.950 L 46.011 27.950 L 30.473 4.650 L 6.566 4.650 " transform="matrix(1, 0, 0, 1, 141.3, 65.75)"/>
          <path id="Oval" fill="#151B22" stroke="none" stroke-width="1" d="M 4.661 0.150 C 5.906 0.150 7.033 0.654 7.850 1.469 C 8.667 2.283 9.172 3.408 9.172 4.650 C 9.172 5.892 8.667 7.017 7.850 7.831 C 7.033 8.646 5.906 9.150 4.661 9.150 C 3.417 9.150 2.289 8.646 1.472 7.831 C 0.656 7.017 0.150 5.892 0.150 4.650 C 0.150 3.408 0.656 2.283 1.472 1.469 C 2.289 0.654 3.417 0.150 4.661 0.150 Z " transform="matrix(1, 0, 0, 1, 141.3, 65.75)"/>
        </g>
      </g>
    </g>
  </g>
</svg>