<svg width="261px" height="189px" viewBox="0 0 261 189" version="1.1" xml:space="preserve" xmlns="http://www.w3.org/2000/svg" xmlns:xlink="http://www.w3.org/1999/xlink">
  <!-- Generator: Sketch 49.3 (51167) - http://www.bohemiancoding.com/sketch -->
  <defs/>
  <g>
    <title>bear-walk-f</title>
    <desc>Created with Sketch.</desc>
    <g id="bear-walk-f" stroke="none" stroke-width="1" fill="none" fill-rule="evenodd">
      <g id="bear-walk11" transform="translate(131.000000, 94.500000) scale(-1, 1) translate(-131.000000, -94.500000) translate(17.000000, 16.000000)" fill-rule="nonzero">
        <g id="Group" transform="translate(79.000000, 55.000000)">
          <path d="M2.7,27 C10.3,41.6 16.4,45.4 16.4,45.4 C16.4,45.4 2.1,62 2.3,65.2 C2.8,73.5 24.3,89 27.4,82.7 C30.3,76.7 23.2,69.7 23.2,69.7 C23.2,69.7 37.9,55.5 39,54.2 C41.2,51.6 58.2,44.5 49.9,23 C30.4,-19.8 -7.8,6.7 2.7,27 Z" id="Shape" fill="#856045"/>
          <path d="M36.4,5.4 C36.4,5.4 46.5,13.3 48.8,12.5 C48.8,12.5 47.1,14.8 45,13.8 C45,13.8 49.7,14.5 51.8,18.5 L48.7,18.3 C48.7,18.3 54.2,23.5 54.9,27.7 L51.4,25.4 C51.4,25.4 56.2,30.8 53,35.4" id="Shape" fill="#856045"/>
          <path d="M48.6,12.5 C48.6,12.5 48.4,12.6 48.1,12.6 C47.8,12.6 47.3,12.5 46.7,12.3 C45.6,12 44.2,11.3 42.9,10.5 C42.3,10.1 41.6,9.7 41.1,9.2 C40.5,8.8 40,8.4 39.6,8 C38.7,7.3 38.2,6.7 38.2,6.7 C38.2,6.7 38.9,7.1 39.8,7.7 C40.8,8.3 42,9.1 43.3,9.9 C43.9,10.3 44.6,10.7 45.2,11 C45.8,11.3 46.4,11.7 46.9,11.9 C47.4,12.1 47.8,12.3 48.1,12.4 C48.4,12.5 48.6,12.5 48.6,12.5 Z" id="Shape" fill="#59402F"/>
          <path d="M51.8,18.6 C51.8,18.6 51.5,18.3 51,17.8 C50.5,17.3 49.9,16.7 49.2,16.1 C48.9,15.8 48.5,15.5 48.2,15.3 C48,15.2 47.9,15.1 47.7,15 C47.5,14.9 47.4,14.8 47.2,14.7 C46.9,14.5 46.6,14.4 46.5,14.3 C46.3,14.2 46.2,14.2 46.2,14.2 C46.2,14.2 46.3,14.2 46.5,14.2 C46.7,14.2 47,14.2 47.4,14.3 C47.6,14.3 47.8,14.4 48,14.5 C48.2,14.6 48.4,14.7 48.6,14.8 C49,15 49.4,15.3 49.8,15.6 C50.5,16.2 51.1,17 51.5,17.6 C51.7,18.2 51.8,18.6 51.8,18.6 Z" id="Shape" fill="#59402F"/>
          <path d="M55,27.7 C55,27.7 54.8,27 54.4,26 C53.9,25 53.2,23.8 52.4,22.7 C52,22.1 51.6,21.6 51.1,21 C50.7,20.5 50.3,20 49.9,19.6 C49.6,19.2 49.3,18.8 49.1,18.6 C48.9,18.4 48.8,18.2 48.8,18.2 C48.8,18.2 49,18.3 49.2,18.5 C49.4,18.7 49.8,19 50.2,19.3 C51,20 52,21.1 52.9,22.3 C53.3,22.9 53.7,23.5 54,24.1 C54.3,24.7 54.6,25.3 54.7,25.8 C54.9,26.3 54.9,26.8 55,27.1 C55,27.5 55,27.7 55,27.7 Z" id="Shape" fill="#59402F"/>
          <path d="M23.4,69.6 C23.4,69.6 25.8,67.5 29.3,64.2 C30.2,63.4 31.1,62.5 32.1,61.5 C33.1,60.5 34,59.4 34.9,58.2 C35.9,57 36.9,55.9 38,54.7 C39.1,53.5 40.3,52.5 41.5,51.4 C42.7,50.4 44.1,49.5 45.4,48.6 C46.6,47.7 47.6,46.5 48.4,45.2 C48.8,44.6 49.2,43.9 49.6,43.3 C49.8,43 49.9,42.7 50.1,42.4 C50.2,42.1 50.4,41.8 50.5,41.5 C51,40.2 51.3,39 51.5,37.8 C51.9,35.4 51.9,33.4 51.8,32 C51.7,30.6 51.6,29.8 51.6,29.8 C51.6,29.8 51.8,30.6 51.9,32 C52,33.4 52.1,35.4 51.8,37.8 C51.6,39 51.3,40.3 50.8,41.6 C50.7,41.9 50.5,42.3 50.4,42.6 C50.2,42.9 50.1,43.2 49.9,43.6 C49.5,44.3 49.2,44.9 48.8,45.5 C48,46.8 47,48.1 45.7,49.1 C44.4,50.1 43.1,50.9 41.8,51.9 C40.6,52.9 39.4,53.9 38.3,55.1 C37.2,56.2 36.1,57.3 35.1,58.4 C34.1,59.5 33.1,60.6 32.1,61.6 C31.1,62.6 30.2,63.5 29.3,64.3 C27.5,65.9 26,67.2 24.9,68.2 C24,69.1 23.4,69.6 23.4,69.6 Z" id="Shape" fill="#59402F"/>
          <path d="M53.2,35 C53.2,35 53.5,34.4 53.6,33.5 C53.7,33 53.7,32.5 53.6,31.9 C53.6,31.6 53.5,31.3 53.5,31 C53.5,30.7 53.4,30.4 53.3,30.1 C53.2,29.8 53.1,29.5 53,29.2 C52.9,28.9 52.8,28.6 52.7,28.4 C52.5,27.9 52.2,27.4 52.1,26.9 C51.9,26.5 51.7,26.1 51.6,25.9 C51.5,25.6 51.4,25.5 51.4,25.5 C51.4,25.5 51.5,25.6 51.7,25.8 C51.9,26 52.1,26.3 52.4,26.7 C52.7,27.1 53,27.6 53.2,28.1 C53.3,28.4 53.5,28.6 53.6,29 C53.7,29.3 53.8,29.6 53.9,29.9 C54.1,30.5 54.2,31.2 54.2,31.8 C54.2,32.1 54.2,32.4 54.2,32.7 C54.2,33 54.1,33.2 54,33.5 C53.9,34 53.7,34.3 53.5,34.6 C53.3,34.9 53.2,35 53.2,35 Z" id="Shape" fill="#59402F"/>
          <path d="M6.1,72.4 C5.1,71.4 4.4,70.3 3.7,69.1 C3.4,68.5 3.1,67.9 2.8,67.2 C2.7,66.9 2.5,66.6 2.4,66.2 C2.3,66.1 2.3,65.9 2.2,65.7 C2.2,65.5 2.2,65.3 2.2,65.1 C2.3,64.4 2.5,63.7 2.8,63.1 C3.1,62.5 3.4,61.9 3.7,61.3 C4.4,60.1 5.1,58.9 5.9,57.8 C7.4,55.5 9.1,53.4 10.7,51.2 C12.4,49 14.1,47 15.9,44.9 L15.9,45.3 C14,43.8 12.4,42.1 10.9,40.3 C10.2,39.4 9.4,38.4 8.8,37.5 C8.5,37 8.2,36.5 7.9,36 C7.6,35.5 7.3,35 7,34.5 C7.6,35.5 8.3,36.5 9,37.4 C9.7,38.3 10.4,39.2 11.2,40.1 C12,41 12.8,41.8 13.6,42.6 C14.4,43.4 15.3,44.2 16.2,44.9 L16.5,45.1 L16.3,45.3 C14.5,47.4 12.8,49.5 11.2,51.6 C9.5,53.7 7.9,55.9 6.3,58.1 C5.5,59.2 4.8,60.3 4.1,61.5 C3.8,62.1 3.4,62.7 3.2,63.3 C2.9,63.9 2.7,64.5 2.6,65.2 C2.6,65.4 2.6,65.5 2.6,65.6 C2.6,65.8 2.7,65.9 2.7,66.1 C2.8,66.4 2.9,66.7 3,67.1 C3.2,67.7 3.5,68.4 3.8,69 C4.1,69.6 4.4,70.2 4.8,70.8 C5.2,71.3 5.6,71.9 6.1,72.4 Z" id="Shape" fill="#59402F"/>
          <g transform="translate(22.000000, 73.000000)" id="Shape">
            <path d="M4.9,2.9 C4.9,2.9 4.6,3.1 4.1,3.1 C3.6,3.2 2.9,3.1 2.3,3 C1.7,2.8 1.1,2.5 0.7,2.2 C0.3,1.9 0.1,1.6 0.1,1.6 C0.1,1.6 0.2,1.6 0.3,1.7 C0.4,1.7 0.6,1.8 0.9,1.9 C1.4,2 1.9,2.2 2.5,2.4 C3.1,2.6 3.7,2.7 4.2,2.8 C4.6,2.8 4.9,2.9 4.9,2.9 Z" fill="#59402F"/>
            <path d="M6.2,8.4 C6.2,8.4 5.8,8.5 5.2,8.5 C4.6,8.5 3.8,8.4 3.1,8.1 C2.7,8 2.4,7.8 2.1,7.6 C1.8,7.4 1.5,7.2 1.3,7 C1.1,6.8 0.9,6.6 0.8,6.5 C0.7,6.4 0.7,6.3 0.7,6.3 C0.7,6.3 0.8,6.3 0.9,6.4 C1,6.5 1.3,6.6 1.5,6.7 C2,7 2.6,7.3 3.3,7.5 C4,7.8 4.7,8 5.2,8.1 C5.9,8.2 6.2,8.4 6.2,8.4 Z" fill="#59402F"/>
            <path d="M5.9,1.6 C5.3,1.8 2.5,1.8 2.1,0.8 C1.7,-0.2 3,0.1 3.9,0.3 C4.8,0.5 6.3,1.4 5.9,1.6 Z" fill="#6C5F57"/>
            <path d="M7.2,6.9 C6.6,7.1 3.8,7.1 3.4,6.1 C3,5 4.3,5.4 5.2,5.6 C6.1,5.8 7.6,6.8 7.2,6.9 Z" fill="#6C5F57"/>
            <path d="M7.5,10.5 C6.9,10.7 4.1,10.7 3.7,9.7 C3.3,8.6 4.6,9 5.5,9.2 C6.4,9.4 7.9,10.3 7.5,10.5 Z" fill="#6C5F57"/>
          </g>
          <path d="M15,46.8 C15,46.8 15,46.7 15,46.5 C15,46.3 15.1,46.1 15.3,45.8 C15.6,45.3 16.1,44.6 16.7,44.1 C17.3,43.6 18,43.2 18.5,43 C18.8,42.9 19,42.8 19.2,42.8 C19.4,42.7 19.5,42.7 19.5,42.7 C19.5,42.7 19.4,42.8 19.3,42.9 C19.2,43 19,43.2 18.8,43.4 C18.4,43.8 17.8,44.2 17.2,44.7 C16.6,45.2 16.1,45.7 15.7,46.1 C15.2,46.5 15,46.8 15,46.8 Z" id="Shape" fill="#59402F"/>
        </g>
        <g id="Group" transform="translate(139.000000, 42.000000)">
          <path d="M8.7,26.1 C8.7,26.1 -5.5,48.9 4,77.8 C8.8,92.3 13.2,101.4 10.9,103.5 C8.6,105.6 3.8,108.1 4.9,110 C6,111.9 13.8,112.7 30.4,110.7 C32.4,110.5 38.2,96.9 37.4,80.5 C36.8,67.8 41,60.5 44.1,51.7 C47.2,43 56.1,27.6 54.6,19.8 C53.1,12 49.9,-1.9 32.5,0.4 C15.1,2.7 9.9,19.9 8.7,26.1 Z" id="Shape" fill="#856045"/>
          <g transform="translate(5.000000, 107.000000)" id="Shape">
            <path d="M8.1,4.9 C8.1,4.9 8.1,4.6 8.3,4.1 C8.5,3.6 8.8,3 9.3,2.5 C9.8,2 10.3,1.6 10.8,1.4 C11.3,1.2 11.6,1.1 11.6,1.1 C11.6,1.1 11.5,1.2 11.4,1.3 C11.3,1.4 11.2,1.5 11,1.7 C10.7,2 10.2,2.5 9.8,2.9 C9.4,3.3 9,3.8 8.7,4.2 C8.3,4.7 8.1,4.9 8.1,4.9 Z" fill="#59402F"/>
            <path d="M2.4,4.2 C2.4,4.2 2.5,3.8 2.8,3.3 C3.1,2.8 3.6,2.1 4.2,1.6 C4.5,1.3 4.8,1.1 5.2,0.9 C5.5,0.7 5.9,0.6 6.2,0.5 C6.5,0.4 6.7,0.4 6.9,0.3 C7.1,0.3 7.2,0.3 7.2,0.3 C7.2,0.3 7.1,0.4 7,0.5 C6.8,0.6 6.6,0.7 6.4,0.9 C5.9,1.2 5.3,1.7 4.8,2.2 C4.2,2.7 3.7,3.2 3.3,3.7 C2.7,3.9 2.4,4.2 2.4,4.2 Z" fill="#59402F"/>
            <path d="M8.8,6.4 C8.9,5.8 10.2,3.3 11.3,3.4 C12.4,3.6 11.5,4.6 10.9,5.2 C10.3,5.9 8.8,6.8 8.8,6.4 Z" fill="#665A52"/>
            <path d="M3.5,5.1 C3.6,4.5 4.9,2 6,2.1 C7.1,2.3 6.2,3.3 5.6,3.9 C4.9,4.6 3.4,5.5 3.5,5.1 Z" fill="#665A52"/>
            <path d="M0.1,4.4 C0.2,3.8 1.5,1.3 2.6,1.4 C3.7,1.6 2.8,2.6 2.2,3.2 C1.5,3.8 0.1,4.7 0.1,4.4 Z" fill="#665A52"/>
          </g>
          <g transform="translate(32.000000, 53.000000)" id="Shape">
            <path d="M0.7,0.2 C0.7,0.2 7.3,11.2 9.7,11.3 C9.7,11.3 7.3,12.9 5.7,11.1 C5.7,11.1 9.9,13.4 10.4,18 L7.6,16.7 C7.6,16.7 10.9,23.5 10,27.7 L7.5,24.3 C7.5,24.3 10.1,31.1 5.4,34.2" fill="#856045"/>
            <path d="M9.5,11.2 C9.5,11.2 9.3,11.2 9,11.1 C8.7,11 8.3,10.7 7.8,10.4 C6.9,9.7 5.8,8.6 4.9,7.3 C4.4,6.7 4,6.1 3.6,5.5 C3.2,4.9 2.9,4.3 2.6,3.8 C2.1,2.8 1.7,2.1 1.7,2.1 C1.7,2.1 2.2,2.7 2.9,3.6 C3.6,4.5 4.5,5.7 5.4,6.9 C5.8,7.5 6.3,8.1 6.7,8.6 C7.1,9.1 7.6,9.6 7.9,10 C8.3,10.4 8.6,10.7 8.9,10.9 C9.4,11.1 9.5,11.2 9.5,11.2 Z" fill="#59402F"/>
            <path d="M10.2,17.8 C10.2,17.8 10,17.4 9.8,16.8 C9.5,16.2 9.2,15.4 8.8,14.6 C8.6,14.2 8.4,13.9 8.1,13.5 C7.9,13.2 7.6,12.9 7.4,12.6 C7.2,12.4 7,12.1 6.8,12 C6.7,11.9 6.6,11.8 6.6,11.8 C6.6,11.8 6.7,11.8 6.9,11.9 C7.1,12 7.4,12.1 7.6,12.3 C7.9,12.5 8.2,12.8 8.5,13.1 C8.8,13.4 9.1,13.8 9.3,14.2 C9.5,14.6 9.7,15 9.8,15.4 C9.9,15.8 10,16.2 10.1,16.5 C10.3,17.4 10.2,17.8 10.2,17.8 Z" fill="#59402F"/>
            <path d="M9.8,27.1 C9.8,27.1 10,26.4 9.9,25.4 C9.9,24.9 9.8,24.3 9.7,23.7 C9.6,23.1 9.5,22.4 9.3,21.8 C9.1,21.1 8.9,20.5 8.7,19.9 C8.5,19.3 8.3,18.7 8.2,18.2 C8,17.7 7.9,17.3 7.8,17 C7.7,16.7 7.7,16.5 7.7,16.5 C7.7,16.5 7.8,16.6 8,16.9 C8.1,17.2 8.4,17.5 8.6,18 C8.8,18.5 9.1,19 9.3,19.6 C9.6,20.2 9.8,20.9 9.9,21.5 C10.1,22.2 10.2,22.9 10.3,23.5 C10.4,24.2 10.4,24.8 10.3,25.3 C10.2,25.8 10.1,26.3 10,26.5 C9.9,27 9.8,27.1 9.8,27.1 Z" fill="#59402F"/>
            <path d="M6.7,32.9 C6.7,32.9 6.8,32.8 6.9,32.6 C7,32.4 7.2,32.1 7.3,31.7 C7.5,30.9 7.7,29.9 7.7,28.8 C7.7,27.7 7.6,26.6 7.6,25.8 C7.5,25 7.5,24.4 7.5,24.4 C7.5,24.4 7.6,24.5 7.6,24.8 C7.7,25 7.8,25.4 7.9,25.8 C8,26.2 8.1,26.7 8.2,27.2 C8.2,27.5 8.3,27.7 8.3,28 C8.3,28.3 8.3,28.6 8.3,28.8 C8.3,29.4 8.2,29.9 8.1,30.5 C8,31 7.8,31.5 7.6,31.9 C7.4,32.3 7.1,32.6 7,32.7 C6.8,32.9 6.7,32.9 6.7,32.9 Z" fill="#59402F"/>
          </g>
          <path d="M37.5,81.4 C37.5,81.4 37.6,83.7 37.4,87.1 C37.3,88.8 37.2,90.8 36.9,93 C36.6,95.1 36.3,97.4 35.8,99.7 C35.3,101.9 34.7,104.2 33.8,106.2 C33.4,107.2 32.9,108.1 32.3,109 C32,109.4 31.7,109.8 31.4,110.2 C31.2,110.4 31.1,110.5 30.9,110.7 C30.6,110.8 30.4,110.8 30.2,110.9 C28.5,111.2 27.1,111.3 26.1,111.3 C25.1,111.4 24.5,111.4 24.5,111.4 C24.5,111.4 25.1,111.3 26.1,111.2 C27.1,111.1 28.5,110.9 30.2,110.6 C30.4,110.6 30.6,110.5 30.8,110.4 C30.9,110.3 31.1,110.1 31.2,109.9 C31.5,109.5 31.7,109.2 32,108.7 C32.5,107.9 32.9,106.9 33.3,105.9 C34,103.9 34.6,101.7 35.1,99.5 C35.5,97.3 35.9,95 36.2,92.9 C36.5,90.8 36.7,88.8 36.9,87.1 C37.3,83.7 37.5,81.4 37.5,81.4 Z" id="Shape" fill="#59402F"/>
          <path d="M2.8,38.5 C2.8,38.5 2.5,42.9 2.3,49.4 C2.2,52.7 2.1,56.5 2.1,60.6 C2.1,62.6 2.2,64.8 2.3,66.9 C2.4,69 2.6,71.2 3,73.3 C3.2,74.4 3.5,75.4 3.9,76.4 C4.3,77.4 4.7,78.4 5,79.4 C5.8,81.4 6.5,83.4 7.2,85.3 C8.6,89.1 9.9,92.7 10.8,95.9 C11.2,97.5 11.5,99 11.6,100.3 C11.6,101 11.7,101.6 11.6,102.2 C11.5,102.8 11.2,103.3 10.9,103.6 C10.2,104.3 9.5,104.6 9.1,104.9 C8.7,105.2 8.4,105.3 8.4,105.3 C8.4,105.3 8.6,105.1 9,104.8 C9.4,104.5 10.1,104.1 10.7,103.4 C11,103.1 11.3,102.6 11.3,102 C11.3,101.4 11.3,100.8 11.2,100.2 C11.1,98.9 10.8,97.4 10.3,95.9 C9.4,92.8 8,89.2 6.6,85.4 C5.9,83.5 5.1,81.5 4.3,79.5 C3.9,78.5 3.6,77.5 3.2,76.4 C2.8,75.4 2.5,74.3 2.3,73.2 C1.9,71 1.7,68.8 1.6,66.7 C1.5,64.5 1.5,62.4 1.5,60.4 C1.5,56.3 1.7,52.5 1.9,49.2 C2.3,42.8 2.8,38.5 2.8,38.5 Z" id="Shape" fill="#59402F"/>
        </g>
        <g id="Group" transform="translate(57.000000, 10.000000)">
          <g transform="translate(145.000000, 26.000000)" id="Shape">
            <path d="M0.9,1.2 C0.9,1.2 11.2,-2.6 22.1,12.9 C22.1,12.9 19,10.4 17.1,10.4 C17.1,10.4 22,12.1 23.3,20.4 C23.3,20.4 21.4,17.1 20,16.8 C20,16.8 26.9,26.1 16.8,27.9 C6.7,29.8 -1.5,3.5 0.9,1.2 Z" fill="#8D674A"/>
            <path d="M22.1,12.9 C22.1,12.9 21.9,12.6 21.5,12.1 C21.1,11.6 20.5,10.9 19.8,10.1 C19.1,9.3 18.2,8.4 17.2,7.5 C16.7,7 16.2,6.6 15.7,6.1 C15.2,5.6 14.6,5.2 14,4.8 C13.4,4.4 12.8,4 12.2,3.6 C11.6,3.3 11,2.9 10.4,2.6 C9.8,2.4 9.2,2 8.6,1.9 C8,1.7 7.5,1.5 6.9,1.4 C6.4,1.3 5.9,1.2 5.5,1.2 C5.1,1.1 4.7,1.2 4.4,1.1 C3.8,1.1 3.4,1.1 3.4,1.1 C3.4,1.1 3.8,1.1 4.4,1 C4.7,1 5.1,0.9 5.6,0.9 C6,0.9 6.5,1 7.1,1 C7.6,1.1 8.2,1.2 8.8,1.4 C9.4,1.5 10,1.8 10.7,2.1 C11.3,2.4 12,2.7 12.6,3.1 C13.2,3.5 13.8,3.9 14.4,4.3 C15,4.8 15.6,5.2 16.1,5.7 C16.6,6.2 17.2,6.7 17.6,7.1 C18.6,8.1 19.4,9.1 20,9.9 C21.4,11.6 22.1,12.9 22.1,12.9 Z" fill="#59402F"/>
            <path d="M17.1,10.4 C17.1,10.4 17.8,10.7 18.7,11.4 C19.2,11.7 19.7,12.2 20.1,12.7 C20.6,13.2 21.1,13.8 21.5,14.5 C21.9,15.2 22.3,15.8 22.5,16.5 C22.6,16.8 22.8,17.2 22.8,17.5 C22.9,17.8 23,18.1 23,18.4 C23.1,19 23.1,19.4 23.1,19.8 C23.1,20.1 23.1,20.3 23.1,20.3 C23.1,20.3 23,20.1 23,19.8 C23,19.6 22.9,19.4 22.9,19.2 C22.8,19 22.7,18.7 22.7,18.5 C22.6,18.2 22.5,18 22.4,17.7 C22.3,17.4 22.2,17.1 22,16.8 C21.9,16.5 21.7,16.2 21.5,15.9 C21.3,15.6 21.1,15.3 20.9,15 C20.1,13.8 19.1,12.6 18.4,11.8 C17.6,10.9 17.1,10.4 17.1,10.4 Z" fill="#59402F"/>
            <path d="M20,16.8 C20,16.8 20.5,17.2 21,17.9 C21.3,18.3 21.6,18.7 21.8,19.2 C22.1,19.7 22.3,20.3 22.4,20.9 C22.5,21.5 22.6,22.1 22.5,22.7 C22.5,23 22.4,23.3 22.4,23.5 C22.3,23.8 22.3,24 22.2,24.2 C22,24.6 21.8,25 21.7,25.2 C21.6,25.4 21.5,25.5 21.5,25.5 C21.5,25.5 21.5,25.4 21.6,25.1 C21.6,25 21.7,24.8 21.7,24.7 C21.7,24.5 21.8,24.3 21.8,24.1 C21.9,23.9 21.9,23.7 21.9,23.4 C21.9,23.2 22,22.9 21.9,22.6 C21.9,22.3 21.9,22.1 21.9,21.8 C21.9,21.5 21.8,21.2 21.8,21 C21.7,20.4 21.5,19.9 21.3,19.4 C21.1,18.9 20.9,18.4 20.7,18 C20.3,17.3 20,16.8 20,16.8 Z" fill="#59402F"/>
          </g>
          <g id="Shape">
            <path d="M2.7,58.1 C2.7,58.1 2.8,65.9 6.2,69 L6.4,66.2 C6.4,66.2 7.5,75 14.1,77.5 L13.3,74.9 C13.3,74.9 20.7,79.4 20.8,82.8 L22,80.8 C22,80.8 28.8,86.5 31.8,84.5" fill="#8D674A"/>
            <g>
              <path d="M24.8,2.9 C43.6,-3.6 67.7,5.7 79,9.8 C95.5,15.6 115.1,-0.7 142.3,20.9 C169.5,42.5 164.7,75.4 144.8,91.9 C122.6,110.3 43.1,111.6 28.6,83.5 C28.6,83.5 2.1,73.7 0.5,46.4" fill="#8D674A"/>
              <path d="M2.5,58.1 C2.5,58.1 2.7,58.8 2.9,59.8 C3.1,60.8 3.4,62.2 3.8,63.6 C3.9,63.9 4,64.3 4.1,64.6 C4.2,64.9 4.3,65.3 4.4,65.6 C4.6,66.2 4.8,66.8 5,67.2 C5.1,67.4 5.2,67.7 5.3,67.8 C5.4,68 5.5,68.2 5.6,68.2 C5.8,68.4 5.9,68.6 5.9,68.6 C5.9,68.6 5.8,68.5 5.5,68.3 C5.4,68.2 5.2,68.1 5.1,67.9 C4.9,67.7 4.8,67.5 4.6,67.3 C4.3,66.9 4,66.3 3.7,65.7 C3.4,65.1 3.2,64.4 3,63.7 C2.7,62.3 2.5,60.9 2.4,59.8 C2.5,58.9 2.5,58.1 2.5,58.1 Z" fill="#59402F"/>
              <path d="M6.4,66.1 C6.4,66.1 6.6,67 7.1,68.2 C7.3,68.8 7.6,69.6 7.9,70.3 C8.1,70.7 8.3,71.1 8.5,71.4 C8.7,71.8 8.9,72.2 9.1,72.5 C9.3,72.9 9.6,73.2 9.8,73.6 C10.1,73.9 10.3,74.3 10.6,74.6 C10.9,74.9 11.1,75.2 11.4,75.4 C11.7,75.6 11.9,75.9 12.2,76.1 C12.5,76.3 12.7,76.5 12.9,76.6 C13.1,76.7 13.3,76.9 13.5,77 C13.8,77.2 14,77.3 14,77.3 C14,77.3 13.8,77.2 13.4,77.1 C13.2,77 13,76.9 12.7,76.8 C12.5,76.7 12.2,76.5 11.9,76.4 C11.6,76.2 11.3,76 11,75.8 C10.7,75.6 10.4,75.3 10.1,75 C9.8,74.7 9.5,74.4 9.2,74 C8.9,73.7 8.7,73.3 8.4,72.9 C7.9,72.1 7.5,71.3 7.2,70.5 C6.9,69.7 6.7,68.9 6.5,68.3 C6.4,67 6.4,66.1 6.4,66.1 Z" fill="#59402F"/>
              <path d="M13.3,75 C13.3,75 14,75.2 14.9,75.7 C15.4,76 15.9,76.3 16.4,76.7 C16.9,77.1 17.5,77.5 18,78 C18.5,78.5 19,79 19.4,79.6 C19.8,80.1 20.1,80.7 20.3,81.2 C20.4,81.5 20.5,81.7 20.5,81.9 C20.6,82.1 20.6,82.3 20.6,82.4 C20.7,82.7 20.7,82.9 20.7,82.9 C20.7,82.9 20.6,82.7 20.5,82.5 C20.4,82.4 20.4,82.2 20.3,82 C20.2,81.8 20.1,81.6 19.9,81.4 C19.8,81.2 19.6,81 19.4,80.7 C19.2,80.5 19,80.2 18.8,80 C18.4,79.5 17.9,79 17.4,78.6 C16.9,78.1 16.4,77.7 15.9,77.3 C15.4,76.9 14.9,76.5 14.5,76.2 C13.8,75.4 13.3,75 13.3,75 Z" fill="#59402F"/>
              <path d="M21.9,80.9 C21.9,80.9 22.5,81.3 23.4,81.9 C23.9,82.2 24.4,82.5 25,82.8 C25.6,83.1 26.2,83.5 26.8,83.7 C27.4,84 28.1,84.3 28.7,84.5 C29,84.6 29.3,84.7 29.6,84.8 C29.9,84.9 30.2,84.9 30.4,85 C30.7,85 30.9,85.1 31.1,85.1 C31.3,85.1 31.5,85.1 31.7,85.1 C32,85.1 32.2,85.1 32.2,85.1 C32.2,85.1 32,85.1 31.7,85.2 C31.5,85.2 31.4,85.3 31.1,85.3 C30.9,85.3 30.6,85.3 30.4,85.3 C29.9,85.3 29.2,85.2 28.6,85 C27.9,84.8 27.3,84.6 26.6,84.3 C25.9,84 25.3,83.6 24.8,83.2 C24.2,82.8 23.7,82.4 23.3,82.1 C22.4,81.4 21.9,80.9 21.9,80.9 Z" fill="#59402F"/>
              <path d="M45.6,1 C45.6,1 48.7,1.2 53.3,2 C54.4,2.2 55.7,2.4 57,2.7 C58.3,3 59.7,3.3 61.1,3.6 C63.9,4.3 66.9,5.1 69.8,6.1 C72.7,7.2 75.5,8.5 78.3,9.3 C79.7,9.7 81,10.1 82.3,10.3 C83.6,10.5 84.8,10.7 86,10.8 C87.1,10.9 88.2,10.9 89.1,11 C90,11 90.9,11 91.5,11 C92.9,11 93.6,10.9 93.6,10.9 C93.6,10.9 92.8,11 91.5,11.1 C90.8,11.2 90,11.2 89.1,11.2 C88.2,11.2 87.1,11.2 85.9,11.2 C84.7,11.1 83.5,11 82.2,10.8 C80.9,10.6 79.5,10.3 78.1,9.9 C75.3,9.1 72.5,7.8 69.6,6.8 C68.1,6.3 66.7,5.9 65.2,5.5 C63.7,5.1 62.3,4.7 60.9,4.3 C58.1,3.6 55.5,3 53.2,2.5 C50.9,2 49,1.7 47.7,1.5 C46.4,1.2 45.6,1 45.6,1 Z" fill="#59402F"/>
              <path d="M119.7,10 C119.7,10 120.9,10.2 122.9,10.8 C124.9,11.4 127.9,12.4 131.2,13.9 C134.5,15.4 138.3,17.4 142,20.1 C145.7,22.8 149.3,26.2 152.2,30.2 C153.6,32.2 154.9,34.4 155.9,36.5 C157,38.6 157.9,40.8 158.8,43 C159.6,45.1 160.3,47.3 160.7,49.3 C161.1,51.4 161.4,53.3 161.4,55.2 C161.5,58.9 160.9,61.9 160.6,64 C160.2,66.1 160,67.3 160,67.3 C160,67.3 160.2,66.1 160.4,64 C160.7,61.9 161.1,58.9 160.9,55.2 C160.8,53.4 160.5,51.4 160.1,49.4 C159.6,47.4 158.9,45.3 158.1,43.2 C157.2,41.1 156.3,39 155.2,36.8 C154.2,34.6 153,32.6 151.5,30.6 C148.7,26.7 145.2,23.3 141.5,20.5 C137.9,17.8 134.1,15.7 130.9,14.1 C127.6,12.5 124.8,11.5 122.7,10.8 C120.9,10.2 119.7,10 119.7,10 Z" fill="#59402F"/>
              <path d="M34.2,90.6 C34.2,90.6 34.6,90.9 35.2,91.3 C35.9,91.7 36.9,92.4 38.2,93.1 C38.9,93.5 39.6,93.9 40.4,94.3 C41.2,94.7 42.1,95.1 43.1,95.6 C44.1,96 45.1,96.5 46.2,97 C47.3,97.4 48.5,97.9 49.7,98.4 C50.9,98.9 52.2,99.3 53.5,99.8 C54.8,100.3 56.2,100.6 57.7,101.1 C60.6,101.9 63.6,102.6 66.8,103.2 C67.6,103.3 68.4,103.5 69.2,103.7 C70,103.8 70.8,103.9 71.7,104 C72.5,104.1 73.4,104.2 74.2,104.3 C75,104.4 75.9,104.5 76.7,104.5 C77.5,104.6 78.4,104.6 79.3,104.7 C80.2,104.8 81,104.8 81.9,104.8 C83.6,104.8 85.4,104.9 87.1,104.9 C90.6,104.8 94,104.8 97.4,104.4 C100.8,104.2 104.2,103.8 107.4,103.5 C109,103.3 110.6,103.1 112.2,102.9 C113.8,102.7 115.3,102.4 116.7,102.2 C119.6,101.7 122.4,101.2 124.9,100.6 C127.4,100 129.7,99.3 131.7,98.7 C132.7,98.4 133.6,98 134.5,97.7 C135.3,97.3 136.1,97.1 136.8,96.7 C138.2,96.1 139.2,95.4 139.9,95 C140.6,94.5 140.9,94.2 140.9,94.2 C140.9,94.2 140.6,94.5 139.9,95 C139.2,95.5 138.2,96.1 136.8,96.8 C136.1,97.2 135.3,97.5 134.5,97.9 C133.6,98.2 132.7,98.6 131.7,99 C129.7,99.7 127.4,100.4 124.9,101 C122.4,101.6 119.6,102.2 116.7,102.8 C115.2,103 113.7,103.3 112.2,103.6 C110.6,103.8 109.1,104 107.4,104.2 C104.2,104.5 100.8,104.9 97.4,105.2 C94,105.5 90.5,105.6 87,105.7 C85.3,105.7 83.5,105.6 81.8,105.6 C80.9,105.6 80.1,105.5 79.2,105.4 C78.3,105.3 77.5,105.3 76.6,105.2 C75.7,105.1 74.9,105.1 74.1,105 C73.3,104.9 72.4,104.8 71.6,104.6 C70.8,104.5 69.9,104.4 69.1,104.2 C68.3,104.1 67.5,103.9 66.7,103.7 C63.5,103.1 60.4,102.3 57.6,101.5 C56.2,101 54.8,100.7 53.4,100.2 C52.1,99.7 50.8,99.3 49.6,98.8 C48.4,98.3 47.2,97.8 46.1,97.4 C45,96.9 44,96.4 43,96 C42.1,95.5 41.2,95.1 40.4,94.6 C39.6,94.1 38.9,93.7 38.2,93.4 C36.9,92.6 35.9,92 35.2,91.5 C34.5,90.9 34.2,90.6 34.2,90.6 Z" fill="#59402F"/>
            </g>
          </g>
        </g>
        <g id="Group" transform="translate(81.000000, 55.000000)">
          <g id="Shape">
            <g fill="#8D674A">
              <path d="M0.7,20.4 C3.4,43.1 9.3,49 9.9,55.5 C10.5,62 9.1,86 7.6,88.9 C6.1,91.7 2.2,95.2 1.4,98.4 C0.6,101.6 24.9,99.2 27.9,97.4 C30.8,95.7 47,55.7 46.5,32.6 C42.5,-14.2 -2,-2.3 0.7,20.4 Z"/>
              <path d="M40.2,11.3 C40.2,11.3 47,22.1 49.4,22.2 C49.4,22.2 47,23.8 45.4,22.1 C45.4,22.1 49.6,24.3 50.2,28.9 L47.4,27.6 C47.4,27.6 50.8,34.3 50,38.6 L47.5,35.2 C47.5,35.2 50.2,41.9 45.6,45.1"/>
            </g>
            <g transform="translate(42.000000, 13.000000)" fill="#59402F">
              <path d="M8.1,9.5 C8.1,9.5 7.9,9.5 7.6,9.4 C7.3,9.3 6.9,9 6.4,8.7 C5.5,8 4.5,6.8 3.5,5.6 C3,5 2.6,4.4 2.2,3.8 C1.8,3.2 1.5,2.6 1.2,2.1 C0.7,1.1 0.4,0.4 0.4,0.4 C0.4,0.4 0.9,1 1.6,1.9 C2.3,2.8 3.2,4 4.1,5.2 C4.5,5.8 5,6.4 5.4,6.9 C5.8,7.4 6.3,7.9 6.6,8.4 C7,8.8 7.3,9.1 7.6,9.3 C7.9,9.5 8.1,9.5 8.1,9.5 Z"/>
              <path d="M8.7,16.2 C8.7,16.2 8.5,15.8 8.3,15.2 C8,14.6 7.7,13.8 7.3,13 C7.1,12.6 6.9,12.3 6.6,11.9 C6.4,11.6 6.1,11.3 5.9,11 C5.7,10.8 5.5,10.5 5.4,10.4 C5.3,10.3 5.2,10.2 5.2,10.2 C5.2,10.2 5.3,10.2 5.5,10.3 C5.7,10.4 6,10.5 6.2,10.7 C6.5,10.9 6.8,11.2 7.1,11.5 C7.4,11.8 7.7,12.2 7.9,12.6 C8.1,13 8.3,13.4 8.4,13.8 C8.5,14.2 8.6,14.6 8.7,14.9 C8.7,15.7 8.7,16.2 8.7,16.2 Z"/>
              <path d="M8.2,25.5 C8.2,25.5 8.4,24.8 8.3,23.8 C8.3,23.3 8.2,22.7 8.1,22.1 C8,21.5 7.9,20.8 7.7,20.2 C7.5,19.5 7.4,18.9 7.2,18.3 C7,17.7 6.8,17.1 6.7,16.6 C6.5,16.1 6.4,15.7 6.3,15.4 C6.2,15.1 6.2,14.9 6.2,14.9 C6.2,14.9 6.3,15 6.5,15.3 C6.6,15.6 6.9,15.9 7.1,16.4 C7.3,16.9 7.6,17.4 7.8,18 C8.1,18.6 8.3,19.3 8.4,19.9 C8.6,20.6 8.7,21.3 8.7,21.9 C8.8,22.6 8.7,23.2 8.7,23.7 C8.6,24.2 8.5,24.7 8.4,24.9 C8.3,25.3 8.2,25.5 8.2,25.5 Z"/>
              <path d="M4,32.1 C4,32.1 4.5,31.7 5,30.9 C5.2,30.5 5.4,30 5.6,29.5 C5.8,29 5.9,28.4 5.9,27.7 C6,27.4 5.9,27.1 6,26.8 C6,26.5 6,26.2 6,25.9 C6,25.3 6,24.8 6,24.3 C6,23.8 6,23.4 5.9,23.2 C5.9,22.9 5.9,22.8 5.9,22.8 C5.9,22.8 6,22.9 6,23.2 C6.1,23.5 6.2,23.8 6.3,24.3 C6.4,24.8 6.5,25.3 6.6,25.9 C6.6,26.2 6.7,26.5 6.6,26.8 C6.6,27.1 6.6,27.4 6.6,27.8 C6.5,28.4 6.4,29.1 6.2,29.7 C6.1,30 5.9,30.3 5.8,30.5 C5.6,30.7 5.5,31 5.3,31.2 C5,31.6 4.6,31.8 4.4,32 C4.2,32.1 4,32.1 4,32.1 Z"/>
            </g>
          </g>
          <path d="M4.2,93.5 C4.2,93.5 4.7,92.7 5.8,91.4 C6.3,90.7 7,89.9 7.5,88.9 C8,87.8 8.1,86.5 8.2,85 C8.3,83.5 8.4,81.9 8.5,80.3 C8.6,78.6 8.8,76.9 8.9,75 C9.2,71.4 9.4,67.5 9.5,63.6 C9.5,61.7 9.5,59.7 9.3,57.8 C9.1,55.9 8.8,54.1 8.4,52.3 C7.5,48.8 6.5,45.5 5.5,42.7 C4.6,39.9 3.9,37.5 3.6,35.9 C3.4,35.1 3.3,34.4 3.2,33.9 C3.1,33.4 3.1,33.2 3.1,33.2 C3.1,33.2 3.2,33.4 3.2,33.9 C3.3,34.3 3.4,35 3.7,35.8 C3.9,36.6 4.2,37.6 4.6,38.8 C5,39.9 5.4,41.2 5.9,42.6 C6.9,45.4 8.1,48.6 9,52.2 C9.5,54 9.8,55.9 10,57.8 C10.1,59.7 10.2,61.7 10.2,63.7 C10.2,67.6 9.9,71.5 9.6,75.2 C9.3,78.9 8.9,82.3 8.6,85.2 C8.5,86.7 8.3,88.1 7.8,89.1 C7.3,90.2 6.5,91 6,91.6 C4.8,92.7 4.2,93.5 4.2,93.5 Z" id="Shape" fill="#59402F"/>
          <g transform="translate(1.000000, 95.000000)" id="Shape">
            <path d="M8.1,5.3 C8.1,5.3 8.1,4.9 8.2,4.4 C8.3,3.9 8.6,3.2 9,2.7 C9.4,2.1 9.9,1.6 10.3,1.3 C10.7,1 11.1,0.9 11.1,0.9 C11.1,0.9 11.1,1 11,1.1 C10.9,1.2 10.8,1.4 10.7,1.6 C10.4,2 10,2.5 9.7,3.1 C9.3,3.6 9,4.2 8.7,4.6 C8.3,5 8.1,5.3 8.1,5.3 Z" fill="#59402F"/>
            <path d="M2.7,4.9 C2.7,4.9 2.7,4.5 2.9,3.9 C3.1,3.3 3.4,2.6 3.9,2 C4.1,1.7 4.4,1.4 4.7,1.2 C5,1 5.3,0.8 5.5,0.6 C5.8,0.5 6,0.4 6.2,0.3 C6.4,0.2 6.5,0.2 6.5,0.2 C6.5,0.2 6.4,0.3 6.3,0.4 C6.2,0.5 6,0.7 5.8,0.9 C5.4,1.3 4.9,1.8 4.5,2.4 C4,3 3.6,3.6 3.3,4 C2.9,4.6 2.7,4.9 2.7,4.9 Z" fill="#59402F"/>
            <path d="M9.3,6.5 C9.3,5.9 10.1,3.2 11.2,3.1 C12.3,3.1 11.6,4.2 11.1,5 C10.6,5.8 9.3,6.9 9.3,6.5 Z" fill="#6C5F57"/>
            <path d="M3.8,6.2 C3.8,5.6 4.6,2.9 5.7,2.8 C6.8,2.8 6.1,3.9 5.6,4.7 C5.1,5.5 3.8,6.6 3.8,6.2 Z" fill="#6C5F57"/>
            <path d="M0.3,5.5 C0.3,4.9 1.1,2.2 2.2,2.1 C3.3,2 2.6,3.2 2.1,4 C1.6,4.7 0.4,5.9 0.3,5.5 Z" fill="#6C5F57"/>
          </g>
          <path d="M25,98.3 C25,98.3 25.3,98.3 25.7,98.2 C26.2,98.1 26.9,98 27.6,97.5 C28,97.3 28.3,96.9 28.6,96.5 C28.9,96.1 29.2,95.6 29.5,95 C30.1,93.9 30.8,92.7 31.2,91.3 C32.3,88.5 33.5,85.2 34.9,81.7 C36.2,78.2 37.6,74.4 38.9,70.6 C40.2,66.8 41.4,63 42.2,59.3 C42.4,58.4 42.6,57.5 42.8,56.6 C43,55.7 43.2,54.9 43.3,54 C43.6,52.3 43.9,50.7 44.2,49.2 C44.8,46.2 45.3,43.8 45.6,42.1 C45.9,40.4 46.1,39.4 46.1,39.4 C46.1,39.4 45.6,43.4 44.6,49.3 C44.4,50.8 44.1,52.4 43.8,54.1 C43.5,55.8 43.2,57.6 42.7,59.4 C42.3,61.2 41.8,63.1 41.2,65 C40.6,66.9 40.1,68.8 39.4,70.7 C38.1,74.5 36.7,78.3 35.3,81.8 C33.9,85.3 32.5,88.5 31.4,91.3 C30.9,92.7 30.1,93.9 29.5,95 C29.2,95.5 28.9,96 28.6,96.5 C28.3,96.9 27.9,97.2 27.5,97.5 C26.7,98 26,98.1 25.6,98.1 C25.2,98.3 25,98.3 25,98.3 Z" id="Shape" fill="#59402F"/>
        </g>
        <g id="Group" transform="translate(163.000000, 34.000000)">
          <path d="M3.8,41 C3.8,41 15.2,74.1 23.1,84.7 C25.6,88 44,107.9 43.3,111 C42.6,114.1 38.1,118.8 40.1,119.8 C41.3,120.4 46,121.5 52.3,119 C56.8,117.2 63,112.4 64.4,110.9 C65.8,109.4 63.9,87.2 58,71.4 C53.5,59.5 51.6,47.3 49.1,38.4 C46.6,29.5 46.1,12.9 40.4,7.4 C34.7,1.9 21.3,-5.4 8.4,6.5 C-4.5,18.4 1.2,35.3 3.8,41 Z" id="Shape" fill="#8D674A"/>
          <g transform="translate(51.000000, 48.000000)" id="Shape">
            <path d="M0,0.4 C0,0.4 7.9,10.5 10.2,10.4 C10.2,10.4 8,12.2 6.2,10.7 C6.2,10.7 10.6,12.5 11.7,17 L8.8,16 C8.8,16 12.8,22.4 12.4,26.7 L9.6,23.6 C9.6,23.6 12.9,30 8.7,33.7" fill="#8D674A"/>
            <path d="M10,10.4 C10,10.4 9.8,10.4 9.5,10.3 C9.2,10.2 8.7,10 8.2,9.7 C7.2,9.1 6,8.1 5,7 C4.5,6.4 4,5.9 3.5,5.3 C3,4.8 2.7,4.2 2.3,3.8 C1.7,2.9 1.3,2.2 1.3,2.2 C1.3,2.2 1.9,2.7 2.6,3.5 C3.4,4.3 4.4,5.4 5.5,6.5 C6,7 6.5,7.6 7,8.1 C7.5,8.6 8,9 8.4,9.4 C8.8,9.8 9.2,10 9.5,10.2 C9.8,10.3 10,10.4 10,10.4 Z" fill="#59402F"/>
            <path d="M11.5,16.8 C11.5,16.8 11.3,16.4 11,15.8 C10.7,15.2 10.2,14.5 9.7,13.8 C9.4,13.5 9.2,13.1 8.9,12.8 C8.6,12.5 8.4,12.2 8.1,12 C7.9,11.8 7.6,11.6 7.5,11.5 C7.3,11.4 7.3,11.3 7.3,11.3 C7.3,11.3 7.4,11.3 7.6,11.4 C7.8,11.5 8.1,11.5 8.4,11.7 C8.7,11.9 9.1,12.1 9.4,12.4 C9.7,12.7 10,13 10.3,13.4 C10.6,13.8 10.8,14.2 11,14.6 C11.2,15 11.3,15.4 11.4,15.7 C11.5,16.4 11.5,16.8 11.5,16.8 Z" fill="#59402F"/>
            <path d="M12.2,26.2 C12.2,26.2 12.3,25.5 12.1,24.5 C12,24 11.9,23.4 11.7,22.8 C11.5,22.2 11.3,21.6 11.1,20.9 C10.9,20.3 10.6,19.6 10.3,19.1 C10,18.5 9.8,18 9.6,17.5 C9.4,17 9.2,16.6 9.1,16.4 C9,16.1 8.9,16 8.9,16 C8.9,16 9,16.1 9.2,16.4 C9.4,16.6 9.7,17 10,17.4 C10.3,17.8 10.6,18.3 10.9,18.9 C11.2,19.5 11.5,20.1 11.8,20.8 C12,21.5 12.3,22.1 12.4,22.8 C12.5,23.4 12.6,24.1 12.6,24.6 C12.6,25.1 12.5,25.6 12.5,25.9 C12.2,26 12.2,26.2 12.2,26.2 Z" fill="#59402F"/>
            <path d="M9.7,32.3 C9.7,32.3 9.8,32.2 9.9,32 C10,31.8 10.1,31.5 10.2,31.1 C10.3,30.3 10.3,29.2 10.2,28.2 C10.1,27.1 9.9,26 9.7,25.2 C9.5,24.4 9.5,23.8 9.5,23.8 C9.5,23.8 9.6,23.9 9.7,24.1 C9.8,24.3 10,24.6 10.1,25 C10.2,25.4 10.4,25.9 10.6,26.4 C10.7,26.7 10.7,26.9 10.8,27.2 C10.8,27.5 10.9,27.8 10.9,28 C10.9,28.6 11,29.1 10.9,29.7 C10.9,30.2 10.7,30.7 10.6,31.1 C10.4,31.5 10.2,31.8 10.1,32 C9.8,32.2 9.7,32.3 9.7,32.3 Z" fill="#59402F"/>
          </g>
          <path d="M59,71.7 C59,71.7 59.7,74.3 60.5,78.2 C60.9,80.2 61.4,82.5 61.9,84.9 C62.4,87.4 62.9,90 63.3,92.7 C63.7,95.4 64.1,98 64.4,100.5 C64.7,103 64.8,105.4 64.9,107.4 C64.9,108.4 64.8,109.3 64.7,110.2 C64.6,110.4 64.6,110.6 64.5,110.8 C64.4,111 64.2,111.1 64.1,111.2 C63.8,111.4 63.6,111.6 63.3,111.8 C62.3,112.5 61.7,112.8 61.7,112.8 C61.7,112.8 62.3,112.4 63.2,111.7 C63.4,111.5 63.7,111.3 63.9,111.1 C64,111 64.1,110.9 64.2,110.7 C64.2,110.5 64.3,110.3 64.3,110.1 C64.4,109.3 64.4,108.4 64.4,107.4 C64.3,105.4 64,103.1 63.7,100.6 C63.4,98.1 63,95.5 62.5,92.8 C62.1,90.1 61.6,87.5 61.2,85 C60.8,82.5 60.4,80.2 60,78.2 C59.4,74.4 59,71.7 59,71.7 Z" id="Shape" fill="#59402F"/>
          <path d="M10.6,59.9 C10.6,59.9 12.1,63.6 14.6,69.1 C15.9,71.8 17.4,75 19.2,78.3 C20.1,79.9 21.1,81.6 22.3,83.2 C23.5,84.7 24.9,86.2 26.2,87.7 C31.5,93.7 36.8,99.8 40.2,104.8 C41.1,106 41.7,107.3 42.4,108.3 C42.7,108.8 43.1,109.3 43.3,109.8 C43.6,110.3 43.4,110.9 43.3,111.3 C43,112.1 42.7,112.7 42.5,113.2 C42.3,113.6 42.2,113.8 42.2,113.8 C42.2,113.8 42.3,113.6 42.5,113.1 C42.7,112.7 43,112 43.2,111.2 C43.3,110.8 43.4,110.3 43.1,109.9 C42.9,109.5 42.5,109 42.1,108.5 C41.4,107.5 40.7,106.3 39.8,105.1 C38.1,102.7 35.8,100 33.4,97.1 C31,94.2 28.3,91.2 25.6,88.2 C24.3,86.7 22.9,85.2 21.7,83.6 C20.5,82 19.5,80.3 18.6,78.6 C17.7,76.9 16.9,75.3 16.1,73.7 C15.4,72.1 14.7,70.6 14.1,69.3 C12.9,66.5 12,64.2 11.4,62.5 C10.9,60.8 10.6,59.9 10.6,59.9 Z" id="Shape" fill="#59402F"/>
        </g>
        <g id="Group" transform="translate(202.000000, 149.000000)">
          <path d="M8,5.1 C8,5.1 8,4.8 8,4.3 C8.1,3.8 8.3,3.2 8.7,2.6 C9.1,2 9.6,1.6 10,1.3 C10.4,1 10.7,0.9 10.7,0.9 C10.7,0.9 10.7,1 10.6,1.1 C10.5,1.2 10.4,1.4 10.3,1.6 C10,2 9.6,2.5 9.3,3 C9,3.5 8.6,4 8.4,4.4 C8.2,4.8 8,5.1 8,5.1 Z" id="Shape" fill="#59402F"/>
          <path d="M2.4,5 C2.4,5 2.4,4.6 2.6,4.1 C2.8,3.5 3.1,2.8 3.6,2.2 C3.9,1.9 4.1,1.6 4.4,1.4 C4.7,1.2 5,1 5.2,0.9 C5.5,0.8 5.7,0.7 5.9,0.6 C6.1,0.6 6.2,0.5 6.2,0.5 C6.2,0.5 6.1,0.6 6,0.7 C5.9,0.8 5.7,1 5.5,1.2 C5.1,1.6 4.6,2.1 4.1,2.7 C3.6,3.3 3.2,3.8 2.9,4.3 C2.6,4.7 2.4,5 2.4,5 Z" id="Shape" fill="#59402F"/>
          <path d="M9,6.4 C9,5.8 9.8,3.1 11,3.1 C12.1,3.1 11.4,4.2 10.9,5 C10.3,5.7 9,6.8 9,6.4 Z" id="Shape" fill="#6C5F57"/>
          <path d="M3.5,6 C3.5,5.4 4.3,2.7 5.5,2.7 C6.6,2.7 5.9,3.8 5.4,4.6 C4.9,5.4 3.5,6.4 3.5,6 Z" id="Shape" fill="#6C5F57"/>
          <path d="M0,5.8 C0,5.2 0.8,2.5 2,2.5 C3.1,2.5 2.4,3.6 1.9,4.4 C1.4,5 0,6.2 0,5.8 Z" id="Shape" fill="#6C5F57"/>
        </g>
        <g id="Group">
          <g transform="translate(0.000000, 6.000000)">
            <path d="M70.8,1.6 C50.5,-1.2 27.7,10.7 24.6,16.3 C21.5,21.9 20.9,35.1 20.9,35.1 C20.9,35.1 0.4,45.8 0.8,50.1 C1.2,54.4 7.8,64.2 16.1,64.8 C24.4,65.5 31.5,66.3 41.2,65.8 C50.9,65.3 68.3,67.4 77.1,57.6 C77.1,57.6 75.9,61.9 74.2,63.1 C74.2,63.1 85.6,60.5 82.6,49.6 C82.6,49.6 84.6,51.4 84,57.1 C84,57.1 90.1,50.9 86.2,41.9 C86.2,41.9 88.9,46.8 91.6,46.8 C91.6,46.8 89,43 89.1,36.5 C89,30.1 87.8,4 70.8,1.6 Z" id="Shape" fill="#8D674A"/>
            <path d="M67.7,0.7 C47.3,-1.3 27.6,10.6 24.5,16.3 C21.4,22 20.8,35.1 20.8,35.1 C20.8,35.1 0.4,45.8 0.8,50.1 C1.2,54.4 7.8,64.2 16.1,64.8 C24.4,65.5 33,68.3 42.6,67.7 C52.2,67.1 68.2,67.5 77,57.7 C77,57.7 75.8,62 74.1,63.2 C74.1,63.2 85.5,60.6 82.5,49.7 C82.5,49.7 84.5,51.5 83.9,57.2 C83.9,57.2 90,51 86.1,42 C86.1,42 88.8,46.9 91.5,46.9 C91.5,46.9 96,31.7 96.1,25.2 C96.2,18.7 82.1,2.1 67.7,0.7 Z" id="Shape" fill="#8D674A"/>
            <path d="M0.8,50.1 C1.2,54.1 6.9,62.8 14.4,64.5 C16.9,63.1 19.7,61.1 19.9,58.4 C19.9,58.4 36,47.3 21,35.1 C20.9,35.1 0.4,45.8 0.8,50.1 Z" id="Shape" fill="#9E7B5C"/>
            <path d="M1.7,53.3 C0.8,51.7 -0.6,50.1 0.3,48.7 C0.8,47.9 2,46.4 3,46.4 C4,46.4 5.5,49.4 2.5,50.9 C2.9,52.5 2.3,53 1.7,53.3 Z" id="Shape" fill="#332721"/>
            <path d="M7.1,60.1 C7.1,60.1 7.6,59.8 8.4,59.4 C8.8,59.2 9.3,59.1 9.8,58.9 C10.3,58.8 10.9,58.6 11.5,58.6 C12.1,58.5 12.7,58.5 13.3,58.5 C13.9,58.5 14.4,58.6 14.8,58.7 C15.2,58.8 15.6,58.9 15.8,59 C16,59.1 16.2,59.2 16.2,59.2 C16.2,59.2 16,59.2 15.8,59.2 C15.5,59.2 15.2,59.1 14.8,59.1 C14.6,59.1 14.4,59.1 14.1,59.1 C13.9,59.1 13.6,59.1 13.3,59.1 C12.8,59.1 12.2,59.2 11.6,59.2 C10.5,59.3 9.3,59.5 8.5,59.7 C7.7,60 7.1,60.1 7.1,60.1 Z" id="Shape" fill="#59402F"/>
            <ellipse id="Oval" fill="#332010" transform="translate(30.900571, 34.500604) rotate(-5.263682) translate(-30.900571, -34.500604) " cx="30.9005707" cy="34.5006037" rx="1.70002894" ry="2.60004426"/>
            <path d="M34.1,27.7 C34.2,28.8 31.1,29.5 29.7,29.6 C28.3,29.7 27,29 26.9,27.9 C26.8,26.8 27.9,25.9 29.3,25.7 C30.8,25.6 34,26.6 34.1,27.7 Z" id="Shape" fill="#9E7B5C"/>
            <path d="M20.9,35.1 C20.9,35.1 20.9,34.3 20.9,32.8 C21,31.4 21,29.3 21.3,26.8 C21.4,25.6 21.6,24.2 21.9,22.8 C22.2,21.4 22.5,19.9 23.1,18.5 C23.4,17.8 23.7,17 24.1,16.3 C24.6,15.6 25,15 25.6,14.3 C26.7,13.1 27.9,11.9 29.2,10.9 C30.5,9.9 31.9,9 33.3,8.2 C34.7,7.4 36.1,6.6 37.5,6 C38.9,5.3 40.3,4.8 41.6,4.3 C42.9,3.8 44.2,3.4 45.4,3 C46.6,2.6 47.7,2.3 48.7,2.1 C49.7,1.9 50.5,1.6 51.2,1.5 C52.6,1.2 53.4,1 53.4,1 C53.4,1 52.6,1.2 51.2,1.6 C49.8,2 47.8,2.6 45.5,3.3 C44.3,3.7 43.1,4.1 41.8,4.7 C40.5,5.2 39.1,5.8 37.7,6.5 C36.3,7.2 34.9,7.9 33.5,8.7 C32.1,9.5 30.8,10.5 29.5,11.4 C28.2,12.4 27,13.5 25.9,14.7 C25.4,15.3 24.9,15.9 24.5,16.6 C24.1,17.3 23.8,18 23.5,18.7 C22.4,21.6 21.9,24.4 21.6,26.8 C21,31.8 20.9,35.1 20.9,35.1 Z" id="Shape" fill="#59402F"/>
            <path d="M74.1,63.2 C74.1,63.2 74.4,63.1 74.8,63 C75.3,62.9 75.9,62.6 76.7,62.2 C77.1,62 77.5,61.8 77.9,61.5 C78.3,61.3 78.7,60.9 79.1,60.6 C79.5,60.3 79.9,59.9 80.3,59.5 C80.7,59.1 81,58.7 81.3,58.2 C81.6,57.8 81.8,57.2 82.1,56.8 C82.3,56.3 82.4,55.8 82.6,55.3 C82.7,54.8 82.7,54.3 82.8,53.8 C82.9,53.3 82.8,52.9 82.8,52.4 C82.8,52 82.8,51.6 82.7,51.2 C82.7,50.9 82.6,50.6 82.6,50.3 C82.5,49.8 82.5,49.5 82.5,49.5 C82.5,49.5 82.6,49.8 82.7,50.3 C82.8,50.5 82.9,50.8 82.9,51.2 C83,51.5 83.1,51.9 83.1,52.4 C83.1,52.8 83.2,53.3 83.2,53.8 C83.2,54.3 83.2,54.8 83.1,55.4 C83,56 83,56.6 82.7,57.1 C82.5,57.6 82.3,58.2 81.9,58.7 C81.6,59.2 81.2,59.6 80.8,60.1 C80.4,60.5 79.9,60.9 79.5,61.2 C78.6,61.8 77.7,62.3 76.9,62.6 C75.3,63.1 74.1,63.2 74.1,63.2 Z" id="Shape" fill="#59402F"/>
            <path d="M83.9,57.2 C83.9,57.2 84.6,56.5 85.4,55.1 C85.6,54.8 85.8,54.4 86,54 C86.2,53.6 86.4,53.2 86.5,52.7 C86.6,52.5 86.7,52.3 86.7,52 C86.8,51.8 86.8,51.5 86.9,51.3 C87,50.8 87.1,50.3 87.2,49.8 C87.3,49.3 87.3,48.8 87.3,48.3 C87.3,47.8 87.3,47.3 87.2,46.8 C87.1,46.3 87.1,45.9 87,45.4 C86.9,45 86.8,44.6 86.7,44.2 C86.6,43.8 86.5,43.5 86.4,43.2 C86.3,42.9 86.2,42.6 86.2,42.4 C86.1,42.2 86,42 86,42 C86,42 86.1,42.2 86.3,42.6 C86.4,42.8 86.5,43.1 86.7,43.3 C86.9,43.6 87,43.9 87.1,44.3 C87.2,44.7 87.4,45.1 87.5,45.5 C87.6,45.9 87.7,46.4 87.8,46.9 C87.8,47.4 87.9,47.9 87.9,48.4 C87.9,48.9 87.9,49.4 87.8,50 C87.7,50.5 87.6,51 87.5,51.5 C87.4,51.7 87.4,52 87.3,52.2 C87.2,52.4 87.1,52.7 87,52.9 C86.8,53.4 86.6,53.8 86.4,54.2 C86.2,54.6 85.9,54.9 85.7,55.3 C85.2,55.9 84.8,56.4 84.4,56.7 C84.1,57 83.9,57.2 83.9,57.2 Z" id="Shape" fill="#59402F"/>
            <path d="M91.4,46.9 C91.4,46.9 91.2,46.7 91,46.4 C90.8,46 90.4,45.5 90.1,44.8 C89.8,44.1 89.5,43.3 89.3,42.4 C89.1,41.5 88.9,40.5 88.8,39.6 C88.7,39.1 88.7,38.6 88.7,38.1 C88.7,37.6 88.6,37.1 88.6,36.7 C88.5,35.8 88.6,34.9 88.6,34.2 C88.6,33.5 88.7,32.9 88.7,32.4 C88.7,32 88.8,31.7 88.8,31.7 C88.8,31.7 88.8,31.9 88.9,32.4 C88.9,32.8 89,33.4 89,34.2 C89,34.9 89.1,35.8 89.2,36.7 C89.3,37.6 89.4,38.6 89.5,39.5 C89.6,40.5 89.7,41.4 89.9,42.3 C90.1,43.2 90.3,44 90.5,44.7 C90.7,45.4 90.9,45.9 91.1,46.3 C91.3,46.6 91.4,46.9 91.4,46.9 Z" id="Shape" fill="#59402F"/>
            <path d="M65,0.7 C65,0.7 65.4,0.6 66.1,0.5 C66.4,0.5 66.9,0.5 67.3,0.5 C67.8,0.5 68.3,0.6 68.9,0.7 C69.5,0.8 70.1,0.9 70.8,1.1 C71.4,1.3 72.1,1.4 72.8,1.7 C73.5,1.9 74.2,2.2 74.9,2.5 C75.6,2.8 76.3,3.2 77,3.5 C77.7,3.8 78.4,4.3 79,4.6 C79.7,5 80.3,5.4 80.9,5.8 C82.1,6.6 83.2,7.4 84.1,8.1 C84.6,8.4 85,8.8 85.3,9.1 C85.7,9.4 86,9.7 86.2,9.9 C86.7,10.3 87,10.6 87,10.6 C87,10.6 86.7,10.4 86.1,10 C85.8,9.8 85.5,9.6 85.1,9.3 C84.7,9 84.3,8.7 83.8,8.4 C83.3,8.1 82.8,7.7 82.2,7.4 C81.7,7 81,6.7 80.4,6.3 C79.8,5.9 79.2,5.5 78.5,5.2 C77.8,4.8 77.2,4.4 76.5,4.1 C75.8,3.8 75.1,3.4 74.4,3.1 C73.7,2.8 73,2.5 72.4,2.2 C71.2,1.6 70,1.2 68.8,1 C68.2,0.9 67.7,0.8 67.2,0.7 C66.7,0.6 66.3,0.6 66,0.6 C65.4,0.6 65,0.7 65,0.7 Z" id="Shape" fill="#59402F"/>
          </g>
          <g transform="translate(51.000000, 0.000000)" id="Shape">
            <path d="M1,9.5 C1,9.5 2.7,1.3 7.3,0.7 C11.9,0.1 22.6,4.6 14.5,17.3" fill="#8D674A"/>
            <path d="M7.5,3.3 C7.5,3.3 7.9,3.9 8.2,4.8 C8.4,5.3 8.6,5.8 8.7,6.4 C8.9,6.9 9,7.6 9,8.3 C9,8.6 9,9 9,9.3 C8.9,9.6 8.9,10 8.8,10.3 C8.7,10.6 8.6,10.9 8.5,11.2 C8.4,11.5 8.3,11.7 8.1,11.9 C7.8,12.3 7.6,12.6 7.3,12.8 C7.1,13 7,13.1 7,13.1 C7,13.1 7.1,13 7.2,12.7 C7.3,12.6 7.4,12.4 7.5,12.3 C7.6,12.1 7.7,11.9 7.8,11.7 C7.9,11.5 8,11.2 8,11 C8.1,10.7 8.1,10.5 8.2,10.2 C8.3,9.9 8.3,9.6 8.3,9.3 C8.3,9 8.3,8.7 8.3,8.4 C8.3,7.8 8.2,7.1 8.1,6.6 C8,6 7.9,5.5 7.8,5 C7.7,3.9 7.5,3.3 7.5,3.3 Z" fill="#59402F"/>
            <g transform="translate(8.000000, 12.000000)" fill="#59402F">
              <path d="M1.8,0.3 C1.8,0.3 1.8,0.5 1.7,0.6 C1.6,0.8 1.5,1 1.3,1.2 C1.1,1.4 0.9,1.6 0.7,1.7 C0.5,1.8 0.4,1.8 0.4,1.8 C0.4,1.8 0.4,1.6 0.5,1.5 C0.6,1.3 0.7,1.1 0.9,0.9 C1.1,0.7 1.3,0.5 1.5,0.4 C1.6,0.3 1.8,0.3 1.8,0.3 Z"/>
              <path d="M3,1.6 C3,1.6 3,1.7 2.9,1.9 C2.8,2.1 2.7,2.2 2.6,2.4 C2.5,2.5 2.3,2.7 2.1,2.7 C1.9,2.8 1.8,2.8 1.8,2.8 C1.8,2.8 1.8,2.7 1.9,2.5 C2,2.3 2.1,2.2 2.2,2 C2.3,1.9 2.5,1.7 2.7,1.7 C2.8,1.6 3,1.6 3,1.6 Z"/>
            </g>
            <path d="M13.9,2.4 C13.9,2.4 13.6,2.3 13.2,2 C12.7,1.8 12,1.5 11.2,1.3 C11,1.2 10.8,1.2 10.5,1.1 C10.3,1.1 10,1 9.8,1 C9.6,1 9.3,1 9,1 C8.7,1 8.5,1 8.2,1 C7.9,1 7.7,1.1 7.4,1.1 C7.1,1.2 6.9,1.3 6.6,1.3 C6.3,1.4 6.1,1.5 5.8,1.6 C5.6,1.7 5.3,1.8 5.1,2 C4.7,2.4 4.2,2.7 3.9,3.1 C3.5,3.5 3.2,3.9 2.9,4.4 C2.7,4.9 2.3,5.3 2.2,5.8 C2,6.3 1.8,6.7 1.6,7.1 C1.4,7.5 1.3,7.9 1.2,8.2 C1.1,8.5 1,8.8 0.9,9.1 C0.7,9.6 0.6,9.9 0.6,9.9 C0.6,9.9 0.6,9.6 0.7,9.1 C0.7,8.8 0.8,8.5 0.9,8.2 C1,7.8 1,7.4 1.2,7 C1.3,6.6 1.5,6.1 1.7,5.6 C1.8,5.1 2.1,4.6 2.4,4.1 C2.6,3.6 3,3.1 3.4,2.6 C3.7,2.1 4.3,1.7 4.7,1.3 C4.9,1.1 5.2,1 5.5,0.8 C5.8,0.7 6,0.5 6.3,0.4 C6.6,0.3 6.9,0.2 7.2,0.2 C7.5,0.2 7.8,0.1 8.1,0.1 C8.4,0.1 8.7,0.1 8.9,0.1 C9.2,0.1 9.4,0.1 9.7,0.2 C10,0.3 10.2,0.3 10.4,0.4 C10.6,0.5 10.9,0.6 11.1,0.6 C11.5,0.7 11.9,0.9 12.2,1.1 C12.8,1.7 13,1.8 13.3,2 C13.7,2.2 13.9,2.4 13.9,2.4 Z" fill="#59402F"/>
          </g>
        </g>
      </g>
    </g>
  </g>
</svg>