<?xml version="1.0" encoding="UTF-8" standalone="no"?>
<!DOCTYPE svg PUBLIC "-//W3C//DTD SVG 1.1//EN"
 "http://www.w3.org/Graphics/SVG/1.1/DTD/svg11.dtd">
<!-- Generated by graphviz version 2.38.0 (20140413.2041)
 -->
<!-- Title: graphviz Pages: 1 -->
<svg width="686pt" height="832pt"
 viewBox="0.00 0.00 686.00 832.23" xmlns="http://www.w3.org/2000/svg" xmlns:xlink="http://www.w3.org/1999/xlink">
<g id="graph0" class="graph" transform="scale(1 1) rotate(0) translate(4 828.233)">
<title>graphviz</title>
<polygon fill="#666666" stroke="none" points="-4,4 -4,-828.233 682,-828.233 682,4 -4,4"/>
<text text-anchor="middle" x="339" y="-801.033" font-family="Futura" font-size="24.00" fill="white">Graphviz</text>
<text text-anchor="middle" x="339" y="-769.158" font-family="Futura" font-size="24.00" fill="white">关系图脚本绘制工具</text>
<g id="clust1" class="cluster"><title>cluster_prepare</title>
<path fill="#dfc1c1" stroke="#1c1c1c" stroke-width="0.5" d="M20,-342.957C20,-342.957 210,-342.957 210,-342.957 216,-342.957 222,-348.957 222,-354.957 222,-354.957 222,-671.258 222,-671.258 222,-677.258 216,-683.258 210,-683.258 210,-683.258 20,-683.258 20,-683.258 14,-683.258 8,-677.258 8,-671.258 8,-671.258 8,-354.957 8,-354.957 8,-348.957 14,-342.957 20,-342.957"/>
<text text-anchor="middle" x="115" y="-354.158" font-family="Futura" font-size="12.00" fill="white">准备</text>
</g>
<g id="clust2" class="cluster"><title>cluster_dot</title>
<path fill="#c1dfc1" stroke="#1c1c1c" stroke-width="0.5" d="M243,-8C243,-8 433,-8 433,-8 439,-8 445,-14 445,-20 445,-20 445,-599.258 445,-599.258 445,-605.258 439,-611.258 433,-611.258 433,-611.258 243,-611.258 243,-611.258 237,-611.258 231,-605.258 231,-599.258 231,-599.258 231,-20 231,-20 231,-14 237,-8 243,-8"/>
<text text-anchor="middle" x="338" y="-19.5575" font-family="Futura" font-size="12.00" fill="white">DOT语言</text>
</g>
<g id="clust3" class="cluster"><title>cluster_tpi</title>
<path fill="#c1c1df" stroke="#1c1c1c" stroke-width="0.5" d="M468,-273.157C468,-273.157 658,-273.157 658,-273.157 664,-273.157 670,-279.157 670,-285.157 670,-285.157 670,-530.758 670,-530.758 670,-536.758 664,-542.758 658,-542.758 658,-542.758 468,-542.758 468,-542.758 462,-542.758 456,-536.758 456,-530.758 456,-530.758 456,-285.157 456,-285.157 456,-279.157 462,-273.157 468,-273.157"/>
<text text-anchor="middle" x="563" y="-284.357" font-family="Futura" font-size="12.00" fill="white">第三方集成</text>
</g>
<!-- prepare -->
<g id="node1" class="node"><title>prepare</title>
<polygon fill="#dfc1c1" stroke="#1c1c1c" stroke-width="0.5" points="323,-744.758 119,-744.758 119,-720.758 323,-720.758 335,-732.758 323,-744.758"/>
<text text-anchor="middle" x="227" y="-731.758" font-family="Futura" font-size="10.00">准备</text>
</g>
<!-- dot -->
<g id="node2" class="node"><title>dot</title>
<polygon fill="#c1dfc1" stroke="#1c1c1c" stroke-width="0.5" points="436,-672.758 232,-672.758 232,-648.758 436,-648.758 448,-660.758 436,-672.758"/>
<text text-anchor="middle" x="340" y="-659.906" font-family="Futura" font-size="10.00">DOT语言</text>
</g>
<!-- prepare&#45;&gt;dot -->
<g id="edge1" class="edge"><title>prepare&#45;&gt;dot</title>
<path fill="none" stroke="#cccccc" stroke-width="0.75" stroke-dasharray="5,2" d="M254.643,-714.634C269.965,-705.142 289.157,-693.253 305.46,-683.154"/>
<polygon fill="#cccccc" stroke="#cccccc" stroke-width="0.75" points="312.251,-678.947 307.652,-685.766 309.063,-680.922 305.875,-682.897 305.875,-682.897 305.875,-682.897 309.063,-680.922 304.098,-680.028 312.251,-678.947 312.251,-678.947"/>
</g>
<!-- p_install -->
<g id="node4" class="node"><title>p_install</title>
<path fill="#aaaaaa" stroke="#aaaaaa" stroke-width="0.5" d="M204.333,-675.258C204.333,-675.258 25.6667,-675.258 25.6667,-675.258 20.8333,-675.258 16,-670.424 16,-665.591 16,-665.591 16,-655.924 16,-655.924 16,-651.091 20.8333,-646.258 25.6667,-646.258 25.6667,-646.258 204.333,-646.258 204.333,-646.258 209.167,-646.258 214,-651.091 214,-655.924 214,-655.924 214,-665.591 214,-665.591 214,-670.424 209.167,-675.258 204.333,-675.258"/>
<text text-anchor="middle" x="115" y="-659.758" font-family="Futura" font-size="10.00">安装</text>
</g>
<!-- prepare&#45;&gt;p_install -->
<g id="edge18" class="edge"><title>prepare&#45;&gt;p_install</title>
<path fill="none" stroke="#ffffff" stroke-width="0.75" stroke-dasharray="1,5" d="M199.602,-714.634C184.223,-705.022 164.911,-692.952 148.622,-682.771"/>
</g>
<!-- tpi -->
<g id="node3" class="node"><title>tpi</title>
<polygon fill="#c1c1df" stroke="#1c1c1c" stroke-width="0.5" points="659,-600.758 455,-600.758 455,-576.758 659,-576.758 671,-588.758 659,-600.758"/>
<text text-anchor="middle" x="563" y="-587.758" font-family="Futura" font-size="10.00">第三方集成</text>
</g>
<!-- dot&#45;&gt;tpi -->
<g id="edge2" class="edge"><title>dot&#45;&gt;tpi</title>
<path fill="none" stroke="#cccccc" stroke-width="0.75" stroke-dasharray="5,2" d="M394.267,-642.723C426.509,-632.602 467.51,-619.732 501.022,-609.213"/>
<polygon fill="#cccccc" stroke="#cccccc" stroke-width="0.75" points="508.49,-606.868 502.345,-612.335 504.912,-607.991 501.334,-609.115 501.334,-609.115 501.334,-609.115 504.912,-607.991 500.323,-605.895 508.49,-606.868 508.49,-606.868"/>
</g>
<!-- d_base -->
<g id="node9" class="node"><title>d_base</title>
<path fill="#aaaaaa" stroke="#aaaaaa" stroke-width="0.5" d="M427.333,-603.258C427.333,-603.258 248.667,-603.258 248.667,-603.258 243.833,-603.258 239,-598.424 239,-593.591 239,-593.591 239,-583.924 239,-583.924 239,-579.091 243.833,-574.258 248.667,-574.258 248.667,-574.258 427.333,-574.258 427.333,-574.258 432.167,-574.258 437,-579.091 437,-583.924 437,-583.924 437,-593.591 437,-593.591 437,-598.424 432.167,-603.258 427.333,-603.258"/>
<text text-anchor="middle" x="338" y="-587.758" font-family="Futura" font-size="10.00">基本语法</text>
</g>
<!-- dot&#45;&gt;d_base -->
<g id="edge19" class="edge"><title>dot&#45;&gt;d_base</title>
<path fill="none" stroke="#ffffff" stroke-width="0.75" stroke-dasharray="1,5" d="M339.506,-642.454C339.233,-632.904 338.892,-620.969 338.603,-610.874"/>
</g>
<!-- t_c -->
<g id="node18" class="node"><title>t_c</title>
<path fill="#ff4444" stroke="#ff4444" stroke-width="0.5" d="M652.333,-534.758C652.333,-534.758 473.667,-534.758 473.667,-534.758 468.833,-534.758 464,-529.924 464,-525.091 464,-525.091 464,-515.424 464,-515.424 464,-510.591 468.833,-505.758 473.667,-505.758 473.667,-505.758 652.333,-505.758 652.333,-505.758 657.167,-505.758 662,-510.591 662,-515.424 662,-515.424 662,-525.091 662,-525.091 662,-529.924 657.167,-534.758 652.333,-534.758"/>
<text text-anchor="middle" x="563" y="-518.898" font-family="Futura" font-size="10.00">C</text>
</g>
<!-- tpi&#45;&gt;t_c -->
<g id="edge20" class="edge"><title>tpi&#45;&gt;t_c</title>
<path fill="none" stroke="#ffffff" stroke-width="0.75" stroke-dasharray="1,5" d="M563,-570.632C563,-562.06 563,-551.601 563,-542.52"/>
</g>
<!-- p_layout -->
<g id="node5" class="node"><title>p_layout</title>
<path fill="#aaaaaa" stroke="#aaaaaa" stroke-width="0.5" d="M204.333,-603.258C204.333,-603.258 25.6667,-603.258 25.6667,-603.258 20.8333,-603.258 16,-598.424 16,-593.591 16,-593.591 16,-583.924 16,-583.924 16,-579.091 20.8333,-574.258 25.6667,-574.258 25.6667,-574.258 204.333,-574.258 204.333,-574.258 209.167,-574.258 214,-579.091 214,-583.924 214,-583.924 214,-593.591 214,-593.591 214,-598.424 209.167,-603.258 204.333,-603.258"/>
<text text-anchor="middle" x="115" y="-587.758" font-family="Futura" font-size="10.00">布局引擎</text>
</g>
<!-- p_install&#45;&gt;p_layout -->
<g id="edge3" class="edge"><title>p_install&#45;&gt;p_layout</title>
<path fill="none" stroke="#222222" stroke-width="0.75" stroke-dasharray="1,5" d="M115,-645.928C115,-636.053 115,-622.576 115,-611.299"/>
<polygon fill="#222222" stroke="#222222" stroke-width="0.75" points="115,-603.559 118.375,-611.058 115,-607.309 115,-611.059 115,-611.059 115,-611.059 115,-607.309 111.625,-611.059 115,-603.559 115,-603.559"/>
</g>
<!-- p_format -->
<g id="node6" class="node"><title>p_format</title>
<path fill="#aaaaaa" stroke="#aaaaaa" stroke-width="0.5" d="M204.333,-534.758C204.333,-534.758 25.6667,-534.758 25.6667,-534.758 20.8333,-534.758 16,-529.924 16,-525.091 16,-525.091 16,-515.424 16,-515.424 16,-510.591 20.8333,-505.758 25.6667,-505.758 25.6667,-505.758 204.333,-505.758 204.333,-505.758 209.167,-505.758 214,-510.591 214,-515.424 214,-515.424 214,-525.091 214,-525.091 214,-529.924 209.167,-534.758 204.333,-534.758"/>
<text text-anchor="middle" x="115" y="-519.258" font-family="Futura" font-size="10.00">输出格式</text>
</g>
<!-- p_layout&#45;&gt;p_format -->
<g id="edge4" class="edge"><title>p_layout&#45;&gt;p_format</title>
<path fill="none" stroke="#222222" stroke-width="0.75" stroke-dasharray="1,5" d="M115,-573.979C115,-564.973 115,-553.025 115,-542.781"/>
<polygon fill="#222222" stroke="#222222" stroke-width="0.75" points="115,-535.019 118.375,-542.519 115,-538.769 115,-542.519 115,-542.519 115,-542.519 115,-538.769 111.625,-542.519 115,-535.019 115,-535.019"/>
</g>
<!-- p_cmd -->
<g id="node7" class="node"><title>p_cmd</title>
<path fill="#aaaaaa" stroke="#aaaaaa" stroke-width="0.5" d="M204.333,-469.758C204.333,-469.758 25.6667,-469.758 25.6667,-469.758 20.8333,-469.758 16,-464.924 16,-460.091 16,-460.091 16,-450.424 16,-450.424 16,-445.591 20.8333,-440.758 25.6667,-440.758 25.6667,-440.758 204.333,-440.758 204.333,-440.758 209.167,-440.758 214,-445.591 214,-450.424 214,-450.424 214,-460.091 214,-460.091 214,-464.924 209.167,-469.758 204.333,-469.758"/>
<text text-anchor="middle" x="115" y="-454.258" font-family="Futura" font-size="10.00">命令运行方式</text>
</g>
<!-- p_format&#45;&gt;p_cmd -->
<g id="edge5" class="edge"><title>p_format&#45;&gt;p_cmd</title>
<path fill="none" stroke="#222222" stroke-width="0.75" stroke-dasharray="1,5" d="M115,-505.587C115,-497.414 115,-486.853 115,-477.602"/>
<polygon fill="#222222" stroke="#222222" stroke-width="0.75" points="115,-469.901 118.375,-477.401 115,-473.651 115,-477.401 115,-477.401 115,-477.401 115,-473.651 111.625,-477.401 115,-469.901 115,-469.901"/>
</g>
<!-- p_tools -->
<g id="node8" class="node"><title>p_tools</title>
<path fill="#aaaaaa" stroke="#aaaaaa" stroke-width="0.5" d="M204.333,-404.758C204.333,-404.758 25.6667,-404.758 25.6667,-404.758 20.8333,-404.758 16,-399.924 16,-395.091 16,-395.091 16,-385.424 16,-385.424 16,-380.591 20.8333,-375.758 25.6667,-375.758 25.6667,-375.758 204.333,-375.758 204.333,-375.758 209.167,-375.758 214,-380.591 214,-385.424 214,-385.424 214,-395.091 214,-395.091 214,-399.924 209.167,-404.758 204.333,-404.758"/>
<text text-anchor="middle" x="115" y="-389.258" font-family="Futura" font-size="10.00">工具</text>
</g>
<!-- p_cmd&#45;&gt;p_tools -->
<g id="edge6" class="edge"><title>p_cmd&#45;&gt;p_tools</title>
<path fill="none" stroke="#222222" stroke-width="0.75" stroke-dasharray="1,5" d="M115,-440.587C115,-432.414 115,-421.853 115,-412.602"/>
<polygon fill="#222222" stroke="#222222" stroke-width="0.75" points="115,-404.901 118.375,-412.401 115,-408.651 115,-412.401 115,-412.401 115,-412.401 115,-408.651 111.625,-412.401 115,-404.901 115,-404.901"/>
</g>
<!-- d_graph -->
<g id="node10" class="node"><title>d_graph</title>
<path fill="#aaaaaa" stroke="#aaaaaa" stroke-width="0.5" d="M427.333,-534.758C427.333,-534.758 248.667,-534.758 248.667,-534.758 243.833,-534.758 239,-529.924 239,-525.091 239,-525.091 239,-515.424 239,-515.424 239,-510.591 243.833,-505.758 248.667,-505.758 248.667,-505.758 427.333,-505.758 427.333,-505.758 432.167,-505.758 437,-510.591 437,-515.424 437,-515.424 437,-525.091 437,-525.091 437,-529.924 432.167,-534.758 427.333,-534.758"/>
<text text-anchor="middle" x="338" y="-519.258" font-family="Futura" font-size="10.00">图</text>
</g>
<!-- d_base&#45;&gt;d_graph -->
<g id="edge7" class="edge"><title>d_base&#45;&gt;d_graph</title>
<path fill="none" stroke="#222222" stroke-width="0.75" stroke-dasharray="1,5" d="M338,-573.979C338,-564.973 338,-553.025 338,-542.781"/>
<polygon fill="#222222" stroke="#222222" stroke-width="0.75" points="338,-535.019 341.375,-542.519 338,-538.769 338,-542.519 338,-542.519 338,-542.519 338,-538.769 334.625,-542.519 338,-535.019 338,-535.019"/>
</g>
<!-- d_node -->
<g id="node11" class="node"><title>d_node</title>
<path fill="#aaaaaa" stroke="#aaaaaa" stroke-width="0.5" d="M427.333,-469.758C427.333,-469.758 248.667,-469.758 248.667,-469.758 243.833,-469.758 239,-464.924 239,-460.091 239,-460.091 239,-450.424 239,-450.424 239,-445.591 243.833,-440.758 248.667,-440.758 248.667,-440.758 427.333,-440.758 427.333,-440.758 432.167,-440.758 437,-445.591 437,-450.424 437,-450.424 437,-460.091 437,-460.091 437,-464.924 432.167,-469.758 427.333,-469.758"/>
<text text-anchor="middle" x="338" y="-454.258" font-family="Futura" font-size="10.00">节点</text>
</g>
<!-- d_graph&#45;&gt;d_node -->
<g id="edge8" class="edge"><title>d_graph&#45;&gt;d_node</title>
<path fill="none" stroke="#222222" stroke-width="0.75" stroke-dasharray="1,5" d="M338,-505.587C338,-497.414 338,-486.853 338,-477.602"/>
<polygon fill="#222222" stroke="#222222" stroke-width="0.75" points="338,-469.901 341.375,-477.401 338,-473.651 338,-477.401 338,-477.401 338,-477.401 338,-473.651 334.625,-477.401 338,-469.901 338,-469.901"/>
</g>
<!-- d_edge -->
<g id="node12" class="node"><title>d_edge</title>
<path fill="#aaaaaa" stroke="#aaaaaa" stroke-width="0.5" d="M427.333,-404.758C427.333,-404.758 248.667,-404.758 248.667,-404.758 243.833,-404.758 239,-399.924 239,-395.091 239,-395.091 239,-385.424 239,-385.424 239,-380.591 243.833,-375.758 248.667,-375.758 248.667,-375.758 427.333,-375.758 427.333,-375.758 432.167,-375.758 437,-380.591 437,-385.424 437,-385.424 437,-395.091 437,-395.091 437,-399.924 432.167,-404.758 427.333,-404.758"/>
<text text-anchor="middle" x="338" y="-389.258" font-family="Futura" font-size="10.00">边</text>
</g>
<!-- d_node&#45;&gt;d_edge -->
<g id="edge9" class="edge"><title>d_node&#45;&gt;d_edge</title>
<path fill="none" stroke="#222222" stroke-width="0.75" stroke-dasharray="1,5" d="M338,-440.587C338,-432.414 338,-421.853 338,-412.602"/>
<polygon fill="#222222" stroke="#222222" stroke-width="0.75" points="338,-404.901 341.375,-412.401 338,-408.651 338,-412.401 338,-412.401 338,-412.401 338,-408.651 334.625,-412.401 338,-404.901 338,-404.901"/>
</g>
<!-- d_subgraph -->
<g id="node13" class="node"><title>d_subgraph</title>
<path fill="#aaaaaa" stroke="#aaaaaa" stroke-width="0.5" d="M427.333,-334.957C427.333,-334.957 248.667,-334.957 248.667,-334.957 243.833,-334.957 239,-330.124 239,-325.291 239,-325.291 239,-315.624 239,-315.624 239,-310.791 243.833,-305.957 248.667,-305.957 248.667,-305.957 427.333,-305.957 427.333,-305.957 432.167,-305.957 437,-310.791 437,-315.624 437,-315.624 437,-325.291 437,-325.291 437,-330.124 432.167,-334.957 427.333,-334.957"/>
<text text-anchor="middle" x="338" y="-319.458" font-family="Futura" font-size="10.00">子图</text>
</g>
<!-- d_edge&#45;&gt;d_subgraph -->
<g id="edge10" class="edge"><title>d_edge&#45;&gt;d_subgraph</title>
<path fill="none" stroke="#222222" stroke-width="0.75" stroke-dasharray="1,5" d="M338,-375.537C338,-366.164 338,-353.553 338,-342.868"/>
<polygon fill="#222222" stroke="#222222" stroke-width="0.75" points="338,-335.157 341.375,-342.657 338,-338.907 338,-342.657 338,-342.657 338,-342.657 338,-338.907 334.625,-342.657 338,-335.157 338,-335.157"/>
</g>
<!-- d_group -->
<g id="node14" class="node"><title>d_group</title>
<path fill="#aaaaaa" stroke="#aaaaaa" stroke-width="0.5" d="M427.333,-265.157C427.333,-265.157 248.667,-265.157 248.667,-265.157 243.833,-265.157 239,-260.324 239,-255.491 239,-255.491 239,-245.824 239,-245.824 239,-240.991 243.833,-236.157 248.667,-236.157 248.667,-236.157 427.333,-236.157 427.333,-236.157 432.167,-236.157 437,-240.991 437,-245.824 437,-245.824 437,-255.491 437,-255.491 437,-260.324 432.167,-265.157 427.333,-265.157"/>
<text text-anchor="middle" x="338" y="-249.657" font-family="Futura" font-size="10.00">分组与布局</text>
</g>
<!-- d_subgraph&#45;&gt;d_group -->
<g id="edge11" class="edge"><title>d_subgraph&#45;&gt;d_group</title>
<path fill="none" stroke="#222222" stroke-width="0.75" stroke-dasharray="1,5" d="M338,-305.737C338,-296.364 338,-283.753 338,-273.068"/>
<polygon fill="#222222" stroke="#222222" stroke-width="0.75" points="338,-265.357 341.375,-272.857 338,-269.107 338,-272.857 338,-272.857 338,-272.857 338,-269.107 334.625,-272.857 338,-265.357 338,-265.357"/>
</g>
<!-- d_table -->
<g id="node15" class="node"><title>d_table</title>
<path fill="#aaaaaa" stroke="#aaaaaa" stroke-width="0.5" d="M427.333,-200.157C427.333,-200.157 248.667,-200.157 248.667,-200.157 243.833,-200.157 239,-195.324 239,-190.491 239,-190.491 239,-180.824 239,-180.824 239,-175.991 243.833,-171.157 248.667,-171.157 248.667,-171.157 427.333,-171.157 427.333,-171.157 432.167,-171.157 437,-175.991 437,-180.824 437,-180.824 437,-190.491 437,-190.491 437,-195.324 432.167,-200.157 427.333,-200.157"/>
<text text-anchor="middle" x="338" y="-184.657" font-family="Futura" font-size="10.00">表格</text>
</g>
<!-- d_group&#45;&gt;d_table -->
<g id="edge12" class="edge"><title>d_group&#45;&gt;d_table</title>
<path fill="none" stroke="#222222" stroke-width="0.75" stroke-dasharray="1,5" d="M338,-235.987C338,-227.814 338,-217.253 338,-208.001"/>
<polygon fill="#222222" stroke="#222222" stroke-width="0.75" points="338,-200.301 341.375,-207.801 338,-204.051 338,-207.801 338,-207.801 338,-207.801 338,-204.051 334.625,-207.801 338,-200.301 338,-200.301"/>
</g>
<!-- d_image -->
<g id="node16" class="node"><title>d_image</title>
<path fill="#aaaaaa" stroke="#aaaaaa" stroke-width="0.5" d="M427.333,-135.157C427.333,-135.157 248.667,-135.157 248.667,-135.157 243.833,-135.157 239,-130.324 239,-125.491 239,-125.491 239,-115.824 239,-115.824 239,-110.991 243.833,-106.157 248.667,-106.157 248.667,-106.157 427.333,-106.157 427.333,-106.157 432.167,-106.157 437,-110.991 437,-115.824 437,-115.824 437,-125.491 437,-125.491 437,-130.324 432.167,-135.157 427.333,-135.157"/>
<text text-anchor="middle" x="338" y="-119.657" font-family="Futura" font-size="10.00">图片</text>
</g>
<!-- d_table&#45;&gt;d_image -->
<g id="edge13" class="edge"><title>d_table&#45;&gt;d_image</title>
<path fill="none" stroke="#222222" stroke-width="0.75" stroke-dasharray="1,5" d="M338,-170.987C338,-162.814 338,-152.253 338,-143.001"/>
<polygon fill="#222222" stroke="#222222" stroke-width="0.75" points="338,-135.301 341.375,-142.801 338,-139.051 338,-142.801 338,-142.801 338,-142.801 338,-139.051 334.625,-142.801 338,-135.301 338,-135.301"/>
</g>
<!-- d_strict -->
<g id="node17" class="node"><title>d_strict</title>
<path fill="#aaaaaa" stroke="#aaaaaa" stroke-width="0.5" d="M427.333,-70.1575C427.333,-70.1575 248.667,-70.1575 248.667,-70.1575 243.833,-70.1575 239,-65.3241 239,-60.4908 239,-60.4908 239,-50.8241 239,-50.8241 239,-45.9908 243.833,-41.1575 248.667,-41.1575 248.667,-41.1575 427.333,-41.1575 427.333,-41.1575 432.167,-41.1575 437,-45.9908 437,-50.8241 437,-50.8241 437,-60.4908 437,-60.4908 437,-65.3241 432.167,-70.1575 427.333,-70.1575"/>
<text text-anchor="middle" x="338" y="-54.6575" font-family="Futura" font-size="10.00">约束条件</text>
</g>
<!-- d_image&#45;&gt;d_strict -->
<g id="edge14" class="edge"><title>d_image&#45;&gt;d_strict</title>
<path fill="none" stroke="#222222" stroke-width="0.75" stroke-dasharray="1,5" d="M338,-105.987C338,-97.8143 338,-87.2534 338,-78.0015"/>
<polygon fill="#222222" stroke="#222222" stroke-width="0.75" points="338,-70.3008 341.375,-77.8008 338,-74.0508 338,-77.8008 338,-77.8008 338,-77.8008 338,-74.0508 334.625,-77.8009 338,-70.3008 338,-70.3008"/>
</g>
<!-- t_python -->
<g id="node19" class="node"><title>t_python</title>
<path fill="#aaaaaa" stroke="#aaaaaa" stroke-width="0.5" d="M652.333,-469.758C652.333,-469.758 473.667,-469.758 473.667,-469.758 468.833,-469.758 464,-464.924 464,-460.091 464,-460.091 464,-450.424 464,-450.424 464,-445.591 468.833,-440.758 473.667,-440.758 473.667,-440.758 652.333,-440.758 652.333,-440.758 657.167,-440.758 662,-445.591 662,-450.424 662,-450.424 662,-460.091 662,-460.091 662,-464.924 657.167,-469.758 652.333,-469.758"/>
<text text-anchor="middle" x="563" y="-453.898" font-family="Futura" font-size="10.00">Python</text>
</g>
<!-- t_c&#45;&gt;t_python -->
<!-- t_javascript -->
<g id="node20" class="node"><title>t_javascript</title>
<path fill="#aaaaaa" stroke="#aaaaaa" stroke-width="0.5" d="M652.333,-404.758C652.333,-404.758 473.667,-404.758 473.667,-404.758 468.833,-404.758 464,-399.924 464,-395.091 464,-395.091 464,-385.424 464,-385.424 464,-380.591 468.833,-375.758 473.667,-375.758 473.667,-375.758 652.333,-375.758 652.333,-375.758 657.167,-375.758 662,-380.591 662,-385.424 662,-385.424 662,-395.091 662,-395.091 662,-399.924 657.167,-404.758 652.333,-404.758"/>
<text text-anchor="middle" x="563" y="-388.898" font-family="Futura" font-size="10.00">JavaScript</text>
</g>
<!-- t_python&#45;&gt;t_javascript -->
<!-- t_other -->
<g id="node21" class="node"><title>t_other</title>
<path fill="#aaaaaa" stroke="#aaaaaa" stroke-width="0.5" d="M652.333,-334.957C652.333,-334.957 473.667,-334.957 473.667,-334.957 468.833,-334.957 464,-330.124 464,-325.291 464,-325.291 464,-315.624 464,-315.624 464,-310.791 468.833,-305.957 473.667,-305.957 473.667,-305.957 652.333,-305.957 652.333,-305.957 657.167,-305.957 662,-310.791 662,-315.624 662,-315.624 662,-325.291 662,-325.291 662,-330.124 657.167,-334.957 652.333,-334.957"/>
<text text-anchor="middle" x="563" y="-319.098" font-family="Futura" font-size="10.00">...</text>
</g>
<!-- t_javascript&#45;&gt;t_other -->
</g>
</svg>
