<?xml version="1.0" encoding="UTF-8" standalone="no"?>
<!DOCTYPE svg PUBLIC "-//W3C//DTD SVG 1.1//EN"
 "http://www.w3.org/Graphics/SVG/1.1/DTD/svg11.dtd">
<!-- Generated by graphviz version 2.38.0 (20140413.2041)
 -->
<!-- Title: graphviz Pages: 1 -->
<svg width="706pt" height="753pt"
 viewBox="0.00 0.00 706.00 753.23" xmlns="http://www.w3.org/2000/svg" xmlns:xlink="http://www.w3.org/1999/xlink">
<g id="graph0" class="graph" transform="scale(1 1) rotate(0) translate(4 749.233)">
<title>graphviz</title>
<polygon fill="#666666" stroke="none" points="-4,4 -4,-749.233 702,-749.233 702,4 -4,4"/>
<text text-anchor="middle" x="349" y="-722.033" font-family="Futura" font-size="24.00" fill="white">Graphviz</text>
<text text-anchor="middle" x="349" y="-690.158" font-family="Futura" font-size="24.00" fill="white">关系图脚本绘制工具</text>
<g id="clust2" class="cluster"><title>cluster_prepare</title>
<path fill="#dfc1c1" stroke="#1c1c1c" stroke-width="0.5" d="M20,-273.157C20,-273.157 210,-273.157 210,-273.157 216,-273.157 222,-279.157 222,-285.157 222,-285.157 222,-595.758 222,-595.758 222,-601.758 216,-607.758 210,-607.758 210,-607.758 20,-607.758 20,-607.758 14,-607.758 8,-601.758 8,-595.758 8,-595.758 8,-285.157 8,-285.157 8,-279.157 14,-273.157 20,-273.157"/>
<text text-anchor="middle" x="115" y="-284.357" font-family="Futura" font-size="12.00" fill="white">准备</text>
</g>
<g id="clust3" class="cluster"><title>cluster_dot</title>
<path fill="#c1dfc1" stroke="#1c1c1c" stroke-width="0.5" d="M254,-8C254,-8 444,-8 444,-8 450,-8 456,-14 456,-20 456,-20 456,-595.758 456,-595.758 456,-601.758 450,-607.758 444,-607.758 444,-607.758 254,-607.758 254,-607.758 248,-607.758 242,-601.758 242,-595.758 242,-595.758 242,-20 242,-20 242,-14 248,-8 254,-8"/>
<text text-anchor="middle" x="349" y="-19.5575" font-family="Futura" font-size="12.00" fill="white">DOT语言</text>
</g>
<g id="clust4" class="cluster"><title>cluster_tpi</title>
<path fill="#c1c1df" stroke="#1c1c1c" stroke-width="0.5" d="M488,-342.957C488,-342.957 678,-342.957 678,-342.957 684,-342.957 690,-348.957 690,-354.957 690,-354.957 690,-595.758 690,-595.758 690,-601.758 684,-607.758 678,-607.758 678,-607.758 488,-607.758 488,-607.758 482,-607.758 476,-601.758 476,-595.758 476,-595.758 476,-354.957 476,-354.957 476,-348.957 482,-342.957 488,-342.957"/>
<text text-anchor="middle" x="583" y="-354.158" font-family="Futura" font-size="12.00" fill="white">第三方集成</text>
</g>
<!-- prepare -->
<g id="node1" class="node"><title>prepare</title>
<polygon fill="#dfc1c1" stroke="#1c1c1c" stroke-width="0.5" points="211,-665.758 7,-665.758 7,-641.758 211,-641.758 223,-653.758 211,-665.758"/>
<text text-anchor="middle" x="115" y="-652.758" font-family="Futura" font-size="10.00">准备</text>
</g>
<!-- dot -->
<g id="node2" class="node"><title>dot</title>
<polygon fill="#c1dfc1" stroke="#1c1c1c" stroke-width="0.5" points="445,-665.758 241,-665.758 241,-641.758 445,-641.758 457,-653.758 445,-665.758"/>
<text text-anchor="middle" x="349" y="-652.906" font-family="Futura" font-size="10.00">DOT语言</text>
</g>
<!-- prepare&#45;&gt;dot -->
<g id="edge1" class="edge"><title>prepare&#45;&gt;dot</title>
<path fill="none" stroke="#cccccc" stroke-width="0.75" stroke-dasharray="5,2" d="M223.316,-653.758C226.63,-653.758 229.944,-653.758 233.258,-653.758"/>
<polygon fill="#cccccc" stroke="#cccccc" stroke-width="0.75" points="240.991,-653.758 233.491,-657.133 237.241,-653.758 233.491,-653.758 233.491,-653.758 233.491,-653.758 237.241,-653.758 233.491,-650.383 240.991,-653.758 240.991,-653.758"/>
</g>
<!-- p_install -->
<g id="node4" class="node"><title>p_install</title>
<path fill="#aaaaaa" stroke="#aaaaaa" stroke-width="0.5" d="M204.333,-599.758C204.333,-599.758 25.6667,-599.758 25.6667,-599.758 20.8333,-599.758 16,-594.924 16,-590.091 16,-590.091 16,-580.424 16,-580.424 16,-575.591 20.8333,-570.758 25.6667,-570.758 25.6667,-570.758 204.333,-570.758 204.333,-570.758 209.167,-570.758 214,-575.591 214,-580.424 214,-580.424 214,-590.091 214,-590.091 214,-594.924 209.167,-599.758 204.333,-599.758"/>
<text text-anchor="middle" x="115" y="-584.258" font-family="Futura" font-size="10.00">安装</text>
</g>
<!-- prepare&#45;&gt;p_install -->
<g id="edge18" class="edge"><title>prepare&#45;&gt;p_install</title>
<path fill="none" stroke="#ffffff" stroke-width="0.75" stroke-dasharray="1,5" d="M115,-635.632C115,-627.06 115,-616.601 115,-607.52"/>
</g>
<!-- tpi -->
<g id="node3" class="node"><title>tpi</title>
<polygon fill="#c1c1df" stroke="#1c1c1c" stroke-width="0.5" points="679,-665.758 475,-665.758 475,-641.758 679,-641.758 691,-653.758 679,-665.758"/>
<text text-anchor="middle" x="583" y="-652.758" font-family="Futura" font-size="10.00">第三方集成</text>
</g>
<!-- dot&#45;&gt;tpi -->
<g id="edge2" class="edge"><title>dot&#45;&gt;tpi</title>
<path fill="none" stroke="#cccccc" stroke-width="0.75" stroke-dasharray="5,2" d="M457.316,-653.758C460.63,-653.758 463.944,-653.758 467.258,-653.758"/>
<polygon fill="#cccccc" stroke="#cccccc" stroke-width="0.75" points="474.991,-653.758 467.491,-657.133 471.241,-653.758 467.491,-653.758 467.491,-653.758 467.491,-653.758 471.241,-653.758 467.491,-650.383 474.991,-653.758 474.991,-653.758"/>
</g>
<!-- d_base -->
<g id="node9" class="node"><title>d_base</title>
<path fill="#aaaaaa" stroke="#aaaaaa" stroke-width="0.5" d="M438.333,-599.758C438.333,-599.758 259.667,-599.758 259.667,-599.758 254.833,-599.758 250,-594.924 250,-590.091 250,-590.091 250,-580.424 250,-580.424 250,-575.591 254.833,-570.758 259.667,-570.758 259.667,-570.758 438.333,-570.758 438.333,-570.758 443.167,-570.758 448,-575.591 448,-580.424 448,-580.424 448,-590.091 448,-590.091 448,-594.924 443.167,-599.758 438.333,-599.758"/>
<text text-anchor="middle" x="349" y="-584.258" font-family="Futura" font-size="10.00">基本语法</text>
</g>
<!-- dot&#45;&gt;d_base -->
<g id="edge19" class="edge"><title>dot&#45;&gt;d_base</title>
<path fill="none" stroke="#ffffff" stroke-width="0.75" stroke-dasharray="1,5" d="M349,-635.632C349,-627.06 349,-616.601 349,-607.52"/>
</g>
<!-- t_c -->
<g id="node18" class="node"><title>t_c</title>
<path fill="#ff4444" stroke="#ff4444" stroke-width="0.5" d="M672.333,-599.758C672.333,-599.758 493.667,-599.758 493.667,-599.758 488.833,-599.758 484,-594.924 484,-590.091 484,-590.091 484,-580.424 484,-580.424 484,-575.591 488.833,-570.758 493.667,-570.758 493.667,-570.758 672.333,-570.758 672.333,-570.758 677.167,-570.758 682,-575.591 682,-580.424 682,-580.424 682,-590.091 682,-590.091 682,-594.924 677.167,-599.758 672.333,-599.758"/>
<text text-anchor="middle" x="583" y="-583.898" font-family="Futura" font-size="10.00">C</text>
</g>
<!-- tpi&#45;&gt;t_c -->
<g id="edge20" class="edge"><title>tpi&#45;&gt;t_c</title>
<path fill="none" stroke="#ffffff" stroke-width="0.75" stroke-dasharray="1,5" d="M583,-635.632C583,-627.06 583,-616.601 583,-607.52"/>
</g>
<!-- p_layout -->
<g id="node5" class="node"><title>p_layout</title>
<path fill="#aaaaaa" stroke="#aaaaaa" stroke-width="0.5" d="M204.333,-534.758C204.333,-534.758 25.6667,-534.758 25.6667,-534.758 20.8333,-534.758 16,-529.924 16,-525.091 16,-525.091 16,-515.424 16,-515.424 16,-510.591 20.8333,-505.758 25.6667,-505.758 25.6667,-505.758 204.333,-505.758 204.333,-505.758 209.167,-505.758 214,-510.591 214,-515.424 214,-515.424 214,-525.091 214,-525.091 214,-529.924 209.167,-534.758 204.333,-534.758"/>
<text text-anchor="middle" x="115" y="-519.258" font-family="Futura" font-size="10.00">布局引擎</text>
</g>
<!-- p_install&#45;&gt;p_layout -->
<g id="edge3" class="edge"><title>p_install&#45;&gt;p_layout</title>
<path fill="none" stroke="#222222" stroke-width="0.75" stroke-dasharray="1,5" d="M115,-570.587C115,-562.414 115,-551.853 115,-542.602"/>
<polygon fill="#222222" stroke="#222222" stroke-width="0.75" points="115,-534.901 118.375,-542.401 115,-538.651 115,-542.401 115,-542.401 115,-542.401 115,-538.651 111.625,-542.401 115,-534.901 115,-534.901"/>
</g>
<!-- p_format -->
<g id="node6" class="node"><title>p_format</title>
<path fill="#aaaaaa" stroke="#aaaaaa" stroke-width="0.5" d="M204.333,-469.758C204.333,-469.758 25.6667,-469.758 25.6667,-469.758 20.8333,-469.758 16,-464.924 16,-460.091 16,-460.091 16,-450.424 16,-450.424 16,-445.591 20.8333,-440.758 25.6667,-440.758 25.6667,-440.758 204.333,-440.758 204.333,-440.758 209.167,-440.758 214,-445.591 214,-450.424 214,-450.424 214,-460.091 214,-460.091 214,-464.924 209.167,-469.758 204.333,-469.758"/>
<text text-anchor="middle" x="115" y="-454.258" font-family="Futura" font-size="10.00">输出格式</text>
</g>
<!-- p_layout&#45;&gt;p_format -->
<g id="edge4" class="edge"><title>p_layout&#45;&gt;p_format</title>
<path fill="none" stroke="#222222" stroke-width="0.75" stroke-dasharray="1,5" d="M115,-505.587C115,-497.414 115,-486.853 115,-477.602"/>
<polygon fill="#222222" stroke="#222222" stroke-width="0.75" points="115,-469.901 118.375,-477.401 115,-473.651 115,-477.401 115,-477.401 115,-477.401 115,-473.651 111.625,-477.401 115,-469.901 115,-469.901"/>
</g>
<!-- p_cmd -->
<g id="node7" class="node"><title>p_cmd</title>
<path fill="#aaaaaa" stroke="#aaaaaa" stroke-width="0.5" d="M204.333,-404.758C204.333,-404.758 25.6667,-404.758 25.6667,-404.758 20.8333,-404.758 16,-399.924 16,-395.091 16,-395.091 16,-385.424 16,-385.424 16,-380.591 20.8333,-375.758 25.6667,-375.758 25.6667,-375.758 204.333,-375.758 204.333,-375.758 209.167,-375.758 214,-380.591 214,-385.424 214,-385.424 214,-395.091 214,-395.091 214,-399.924 209.167,-404.758 204.333,-404.758"/>
<text text-anchor="middle" x="115" y="-389.258" font-family="Futura" font-size="10.00">命令运行方式</text>
</g>
<!-- p_format&#45;&gt;p_cmd -->
<g id="edge5" class="edge"><title>p_format&#45;&gt;p_cmd</title>
<path fill="none" stroke="#222222" stroke-width="0.75" stroke-dasharray="1,5" d="M115,-440.587C115,-432.414 115,-421.853 115,-412.602"/>
<polygon fill="#222222" stroke="#222222" stroke-width="0.75" points="115,-404.901 118.375,-412.401 115,-408.651 115,-412.401 115,-412.401 115,-412.401 115,-408.651 111.625,-412.401 115,-404.901 115,-404.901"/>
</g>
<!-- p_tools -->
<g id="node8" class="node"><title>p_tools</title>
<path fill="#aaaaaa" stroke="#aaaaaa" stroke-width="0.5" d="M204.333,-334.957C204.333,-334.957 25.6667,-334.957 25.6667,-334.957 20.8333,-334.957 16,-330.124 16,-325.291 16,-325.291 16,-315.624 16,-315.624 16,-310.791 20.8333,-305.957 25.6667,-305.957 25.6667,-305.957 204.333,-305.957 204.333,-305.957 209.167,-305.957 214,-310.791 214,-315.624 214,-315.624 214,-325.291 214,-325.291 214,-330.124 209.167,-334.957 204.333,-334.957"/>
<text text-anchor="middle" x="115" y="-319.458" font-family="Futura" font-size="10.00">工具</text>
</g>
<!-- p_cmd&#45;&gt;p_tools -->
<g id="edge6" class="edge"><title>p_cmd&#45;&gt;p_tools</title>
<path fill="none" stroke="#222222" stroke-width="0.75" stroke-dasharray="1,5" d="M115,-375.537C115,-366.164 115,-353.553 115,-342.868"/>
<polygon fill="#222222" stroke="#222222" stroke-width="0.75" points="115,-335.157 118.375,-342.657 115,-338.907 115,-342.657 115,-342.657 115,-342.657 115,-338.907 111.625,-342.657 115,-335.157 115,-335.157"/>
</g>
<!-- d_graph -->
<g id="node10" class="node"><title>d_graph</title>
<path fill="#aaaaaa" stroke="#aaaaaa" stroke-width="0.5" d="M438.333,-534.758C438.333,-534.758 259.667,-534.758 259.667,-534.758 254.833,-534.758 250,-529.924 250,-525.091 250,-525.091 250,-515.424 250,-515.424 250,-510.591 254.833,-505.758 259.667,-505.758 259.667,-505.758 438.333,-505.758 438.333,-505.758 443.167,-505.758 448,-510.591 448,-515.424 448,-515.424 448,-525.091 448,-525.091 448,-529.924 443.167,-534.758 438.333,-534.758"/>
<text text-anchor="middle" x="349" y="-519.258" font-family="Futura" font-size="10.00">图</text>
</g>
<!-- d_base&#45;&gt;d_graph -->
<g id="edge7" class="edge"><title>d_base&#45;&gt;d_graph</title>
<path fill="none" stroke="#222222" stroke-width="0.75" stroke-dasharray="1,5" d="M349,-570.587C349,-562.414 349,-551.853 349,-542.602"/>
<polygon fill="#222222" stroke="#222222" stroke-width="0.75" points="349,-534.901 352.375,-542.401 349,-538.651 349,-542.401 349,-542.401 349,-542.401 349,-538.651 345.625,-542.401 349,-534.901 349,-534.901"/>
</g>
<!-- d_node -->
<g id="node11" class="node"><title>d_node</title>
<path fill="#aaaaaa" stroke="#aaaaaa" stroke-width="0.5" d="M438.333,-469.758C438.333,-469.758 259.667,-469.758 259.667,-469.758 254.833,-469.758 250,-464.924 250,-460.091 250,-460.091 250,-450.424 250,-450.424 250,-445.591 254.833,-440.758 259.667,-440.758 259.667,-440.758 438.333,-440.758 438.333,-440.758 443.167,-440.758 448,-445.591 448,-450.424 448,-450.424 448,-460.091 448,-460.091 448,-464.924 443.167,-469.758 438.333,-469.758"/>
<text text-anchor="middle" x="349" y="-454.258" font-family="Futura" font-size="10.00">节点</text>
</g>
<!-- d_graph&#45;&gt;d_node -->
<g id="edge8" class="edge"><title>d_graph&#45;&gt;d_node</title>
<path fill="none" stroke="#222222" stroke-width="0.75" stroke-dasharray="1,5" d="M349,-505.587C349,-497.414 349,-486.853 349,-477.602"/>
<polygon fill="#222222" stroke="#222222" stroke-width="0.75" points="349,-469.901 352.375,-477.401 349,-473.651 349,-477.401 349,-477.401 349,-477.401 349,-473.651 345.625,-477.401 349,-469.901 349,-469.901"/>
</g>
<!-- d_edge -->
<g id="node12" class="node"><title>d_edge</title>
<path fill="#aaaaaa" stroke="#aaaaaa" stroke-width="0.5" d="M438.333,-404.758C438.333,-404.758 259.667,-404.758 259.667,-404.758 254.833,-404.758 250,-399.924 250,-395.091 250,-395.091 250,-385.424 250,-385.424 250,-380.591 254.833,-375.758 259.667,-375.758 259.667,-375.758 438.333,-375.758 438.333,-375.758 443.167,-375.758 448,-380.591 448,-385.424 448,-385.424 448,-395.091 448,-395.091 448,-399.924 443.167,-404.758 438.333,-404.758"/>
<text text-anchor="middle" x="349" y="-389.258" font-family="Futura" font-size="10.00">边</text>
</g>
<!-- d_node&#45;&gt;d_edge -->
<g id="edge9" class="edge"><title>d_node&#45;&gt;d_edge</title>
<path fill="none" stroke="#222222" stroke-width="0.75" stroke-dasharray="1,5" d="M349,-440.587C349,-432.414 349,-421.853 349,-412.602"/>
<polygon fill="#222222" stroke="#222222" stroke-width="0.75" points="349,-404.901 352.375,-412.401 349,-408.651 349,-412.401 349,-412.401 349,-412.401 349,-408.651 345.625,-412.401 349,-404.901 349,-404.901"/>
</g>
<!-- d_subgraph -->
<g id="node13" class="node"><title>d_subgraph</title>
<path fill="#aaaaaa" stroke="#aaaaaa" stroke-width="0.5" d="M438.333,-334.957C438.333,-334.957 259.667,-334.957 259.667,-334.957 254.833,-334.957 250,-330.124 250,-325.291 250,-325.291 250,-315.624 250,-315.624 250,-310.791 254.833,-305.957 259.667,-305.957 259.667,-305.957 438.333,-305.957 438.333,-305.957 443.167,-305.957 448,-310.791 448,-315.624 448,-315.624 448,-325.291 448,-325.291 448,-330.124 443.167,-334.957 438.333,-334.957"/>
<text text-anchor="middle" x="349" y="-319.458" font-family="Futura" font-size="10.00">子图</text>
</g>
<!-- d_edge&#45;&gt;d_subgraph -->
<g id="edge10" class="edge"><title>d_edge&#45;&gt;d_subgraph</title>
<path fill="none" stroke="#222222" stroke-width="0.75" stroke-dasharray="1,5" d="M349,-375.537C349,-366.164 349,-353.553 349,-342.868"/>
<polygon fill="#222222" stroke="#222222" stroke-width="0.75" points="349,-335.157 352.375,-342.657 349,-338.907 349,-342.657 349,-342.657 349,-342.657 349,-338.907 345.625,-342.657 349,-335.157 349,-335.157"/>
</g>
<!-- d_group -->
<g id="node14" class="node"><title>d_group</title>
<path fill="#aaaaaa" stroke="#aaaaaa" stroke-width="0.5" d="M438.333,-265.157C438.333,-265.157 259.667,-265.157 259.667,-265.157 254.833,-265.157 250,-260.324 250,-255.491 250,-255.491 250,-245.824 250,-245.824 250,-240.991 254.833,-236.157 259.667,-236.157 259.667,-236.157 438.333,-236.157 438.333,-236.157 443.167,-236.157 448,-240.991 448,-245.824 448,-245.824 448,-255.491 448,-255.491 448,-260.324 443.167,-265.157 438.333,-265.157"/>
<text text-anchor="middle" x="349" y="-249.657" font-family="Futura" font-size="10.00">分组与布局</text>
</g>
<!-- d_subgraph&#45;&gt;d_group -->
<g id="edge11" class="edge"><title>d_subgraph&#45;&gt;d_group</title>
<path fill="none" stroke="#222222" stroke-width="0.75" stroke-dasharray="1,5" d="M349,-305.737C349,-296.364 349,-283.753 349,-273.068"/>
<polygon fill="#222222" stroke="#222222" stroke-width="0.75" points="349,-265.357 352.375,-272.857 349,-269.107 349,-272.857 349,-272.857 349,-272.857 349,-269.107 345.625,-272.857 349,-265.357 349,-265.357"/>
</g>
<!-- d_table -->
<g id="node15" class="node"><title>d_table</title>
<path fill="#aaaaaa" stroke="#aaaaaa" stroke-width="0.5" d="M438.333,-200.157C438.333,-200.157 259.667,-200.157 259.667,-200.157 254.833,-200.157 250,-195.324 250,-190.491 250,-190.491 250,-180.824 250,-180.824 250,-175.991 254.833,-171.157 259.667,-171.157 259.667,-171.157 438.333,-171.157 438.333,-171.157 443.167,-171.157 448,-175.991 448,-180.824 448,-180.824 448,-190.491 448,-190.491 448,-195.324 443.167,-200.157 438.333,-200.157"/>
<text text-anchor="middle" x="349" y="-184.657" font-family="Futura" font-size="10.00">表格</text>
</g>
<!-- d_group&#45;&gt;d_table -->
<g id="edge12" class="edge"><title>d_group&#45;&gt;d_table</title>
<path fill="none" stroke="#222222" stroke-width="0.75" stroke-dasharray="1,5" d="M349,-235.987C349,-227.814 349,-217.253 349,-208.001"/>
<polygon fill="#222222" stroke="#222222" stroke-width="0.75" points="349,-200.301 352.375,-207.801 349,-204.051 349,-207.801 349,-207.801 349,-207.801 349,-204.051 345.625,-207.801 349,-200.301 349,-200.301"/>
</g>
<!-- d_image -->
<g id="node16" class="node"><title>d_image</title>
<path fill="#aaaaaa" stroke="#aaaaaa" stroke-width="0.5" d="M438.333,-135.157C438.333,-135.157 259.667,-135.157 259.667,-135.157 254.833,-135.157 250,-130.324 250,-125.491 250,-125.491 250,-115.824 250,-115.824 250,-110.991 254.833,-106.157 259.667,-106.157 259.667,-106.157 438.333,-106.157 438.333,-106.157 443.167,-106.157 448,-110.991 448,-115.824 448,-115.824 448,-125.491 448,-125.491 448,-130.324 443.167,-135.157 438.333,-135.157"/>
<text text-anchor="middle" x="349" y="-119.657" font-family="Futura" font-size="10.00">图片</text>
</g>
<!-- d_table&#45;&gt;d_image -->
<g id="edge13" class="edge"><title>d_table&#45;&gt;d_image</title>
<path fill="none" stroke="#222222" stroke-width="0.75" stroke-dasharray="1,5" d="M349,-170.987C349,-162.814 349,-152.253 349,-143.001"/>
<polygon fill="#222222" stroke="#222222" stroke-width="0.75" points="349,-135.301 352.375,-142.801 349,-139.051 349,-142.801 349,-142.801 349,-142.801 349,-139.051 345.625,-142.801 349,-135.301 349,-135.301"/>
</g>
<!-- d_strict -->
<g id="node17" class="node"><title>d_strict</title>
<path fill="#aaaaaa" stroke="#aaaaaa" stroke-width="0.5" d="M438.333,-70.1575C438.333,-70.1575 259.667,-70.1575 259.667,-70.1575 254.833,-70.1575 250,-65.3241 250,-60.4908 250,-60.4908 250,-50.8241 250,-50.8241 250,-45.9908 254.833,-41.1575 259.667,-41.1575 259.667,-41.1575 438.333,-41.1575 438.333,-41.1575 443.167,-41.1575 448,-45.9908 448,-50.8241 448,-50.8241 448,-60.4908 448,-60.4908 448,-65.3241 443.167,-70.1575 438.333,-70.1575"/>
<text text-anchor="middle" x="349" y="-54.6575" font-family="Futura" font-size="10.00">约束条件</text>
</g>
<!-- d_image&#45;&gt;d_strict -->
<g id="edge14" class="edge"><title>d_image&#45;&gt;d_strict</title>
<path fill="none" stroke="#222222" stroke-width="0.75" stroke-dasharray="1,5" d="M349,-105.987C349,-97.8143 349,-87.2534 349,-78.0015"/>
<polygon fill="#222222" stroke="#222222" stroke-width="0.75" points="349,-70.3008 352.375,-77.8008 349,-74.0508 349,-77.8008 349,-77.8008 349,-77.8008 349,-74.0508 345.625,-77.8009 349,-70.3008 349,-70.3008"/>
</g>
<!-- t_python -->
<g id="node19" class="node"><title>t_python</title>
<path fill="#aaaaaa" stroke="#aaaaaa" stroke-width="0.5" d="M672.333,-534.758C672.333,-534.758 493.667,-534.758 493.667,-534.758 488.833,-534.758 484,-529.924 484,-525.091 484,-525.091 484,-515.424 484,-515.424 484,-510.591 488.833,-505.758 493.667,-505.758 493.667,-505.758 672.333,-505.758 672.333,-505.758 677.167,-505.758 682,-510.591 682,-515.424 682,-515.424 682,-525.091 682,-525.091 682,-529.924 677.167,-534.758 672.333,-534.758"/>
<text text-anchor="middle" x="583" y="-518.898" font-family="Futura" font-size="10.00">Python</text>
</g>
<!-- t_c&#45;&gt;t_python -->
<!-- t_javascript -->
<g id="node20" class="node"><title>t_javascript</title>
<path fill="#aaaaaa" stroke="#aaaaaa" stroke-width="0.5" d="M672.333,-469.758C672.333,-469.758 493.667,-469.758 493.667,-469.758 488.833,-469.758 484,-464.924 484,-460.091 484,-460.091 484,-450.424 484,-450.424 484,-445.591 488.833,-440.758 493.667,-440.758 493.667,-440.758 672.333,-440.758 672.333,-440.758 677.167,-440.758 682,-445.591 682,-450.424 682,-450.424 682,-460.091 682,-460.091 682,-464.924 677.167,-469.758 672.333,-469.758"/>
<text text-anchor="middle" x="583" y="-453.898" font-family="Futura" font-size="10.00">JavaScript</text>
</g>
<!-- t_python&#45;&gt;t_javascript -->
<!-- t_other -->
<g id="node21" class="node"><title>t_other</title>
<path fill="#aaaaaa" stroke="#aaaaaa" stroke-width="0.5" d="M672.333,-404.758C672.333,-404.758 493.667,-404.758 493.667,-404.758 488.833,-404.758 484,-399.924 484,-395.091 484,-395.091 484,-385.424 484,-385.424 484,-380.591 488.833,-375.758 493.667,-375.758 493.667,-375.758 672.333,-375.758 672.333,-375.758 677.167,-375.758 682,-380.591 682,-385.424 682,-385.424 682,-395.091 682,-395.091 682,-399.924 677.167,-404.758 672.333,-404.758"/>
<text text-anchor="middle" x="583" y="-388.898" font-family="Futura" font-size="10.00">...</text>
</g>
<!-- t_javascript&#45;&gt;t_other -->
</g>
</svg>
