<svg width="130px" height="280px" viewBox="0 0 130 280" version="1.1" xml:space="preserve" xmlns="http://www.w3.org/2000/svg" xmlns:xlink="http://www.w3.org/1999/xlink">
  <!-- Generator: Sketch 49.3 (51167) - http://www.bohemiancoding.com/sketch -->
  <defs/>
  <g>
    <title>witch-c</title>
    <desc>Created with Sketch.</desc>
    <g id="witch-c" stroke="none" stroke-width="1" fill="none" fill-rule="evenodd">
      <g id="Witch-Sassy" transform="translate(21.000000, 8.000000)" fill-rule="nonzero">
        <g id="Group" transform="translate(54.000000, 75.000000)">
          <g transform="translate(26.000000, 67.000000)" id="Shape">
            <path d="M4.1,0.5 C4.1,0.5 7,1.1 9.3,5 C10.9,7.7 12.9,9.3 12.2,9.9 C10.8,11 8.5,6.8 8.5,6.8 C8.5,6.8 9.7,11 9.9,12.4 C10.2,13.7 10.4,16.5 9.9,16.9 C9.1,17.6 8.8,15.9 8.2,13 C8.2,13 8.5,15.5 8.2,16.8 C7.9,18 7,18.6 6.5,17.2 C6.5,17.2 6.2,19.6 4.6,17.2 C4.6,17.2 3.2,18.8 2.6,12.7 C2.4,10.1 -3.7,1.1 4.1,0.5 Z" fill="#FFE9B8"/>
            <path d="M4.8,17.2 C4.8,17.2 4.8,16.8 4.7,16.1 C4.7,15.8 4.6,15.4 4.6,15 C4.5,14.6 4.5,14.2 4.4,13.7 C4.3,13.3 4.3,12.8 4.2,12.4 C4.2,12 4.1,11.6 4.1,11.3 C4,10.6 4,10.2 4,10.2 C4,10.2 4.2,10.6 4.4,11.2 C4.6,11.8 4.8,12.7 5,13.6 C5.1,14.5 5.1,15.4 5,16.1 C4.9,16.8 4.8,17.2 4.8,17.2 Z" fill="#BD875F"/>
            <path d="M6.8,17.5 C6.8,17.5 6.8,17 6.7,16.3 C6.6,15.6 6.5,14.7 6.4,13.7 C6.3,13.2 6.3,12.8 6.2,12.3 C6.1,11.9 6.1,11.5 6,11.1 C5.9,10.7 5.9,10.5 5.9,10.2 C5.9,10 5.9,9.9 5.9,9.9 C5.9,9.9 6.1,10.3 6.4,11 C6.5,11.3 6.7,11.7 6.8,12.2 C6.9,12.6 7,13.1 7.1,13.6 C7.2,14.1 7.2,14.6 7.2,15 C7.2,15.5 7.2,15.9 7.1,16.2 C7,17 6.8,17.5 6.8,17.5 Z" fill="#BD875F"/>
            <path d="M8.6,14.8 C8.6,14.8 8.5,14.4 8.4,13.9 C8.3,13.4 8.1,12.7 8,12 C8,11.6 7.9,11.3 7.9,11 C7.9,10.7 7.8,10.4 7.8,10.1 C7.7,9.6 7.7,9.2 7.7,9.2 C7.7,9.2 7.9,9.5 8.1,10 C8.3,10.5 8.5,11.2 8.6,12 C8.6,12.4 8.7,12.7 8.7,13.1 C8.7,13.4 8.7,13.8 8.7,14 C8.7,14.5 8.6,14.8 8.6,14.8 Z" fill="#BD875F"/>
            <path d="M5.1,1 C5.1,1 5.2,1 5.4,1 C5.6,1 5.8,1.1 6.1,1.2 C6.6,1.5 7.3,1.9 7.8,2.5 C8.1,2.8 8.3,3.1 8.5,3.4 C8.7,3.7 8.9,4 9,4.2 C9.3,4.7 9.4,5.1 9.4,5.1 C9.4,5.1 9.1,4.8 8.7,4.4 C8.3,4 7.8,3.4 7.3,2.9 C7.1,2.6 6.8,2.4 6.6,2.1 C6.4,1.9 6.1,1.6 5.9,1.5 C5.7,1.3 5.5,1.2 5.4,1.1 C5.2,1 5.1,1 5.1,1 Z" fill="#BD875F"/>
            <path d="M8.6,6.8 C8.6,6.8 8.3,7 7.8,7 C7.6,7 7.3,7 7,7 C6.7,7 6.4,6.8 6.1,6.7 C5.8,6.5 5.5,6.4 5.3,6.2 C5.1,6 4.9,5.8 4.8,5.6 C4.6,5.4 4.6,5.2 4.5,5.1 C4.4,5 4.4,4.9 4.4,4.9 C4.4,4.9 4.5,4.9 4.6,5 C4.7,5.1 4.9,5.2 5,5.4 C5.2,5.6 5.4,5.7 5.6,5.9 C5.8,6 6.1,6.2 6.3,6.3 C6.6,6.4 6.8,6.5 7.1,6.6 C7.4,6.7 7.6,6.8 7.8,6.8 C8.3,6.8 8.6,6.8 8.6,6.8 Z" fill="#BD875F"/>
          </g>
          <g transform="translate(11.000000, 35.000000)" id="Shape">
            <g>
              <path d="M7,1 C10.3,4.3 13.5,14.1 15.5,20.8 C16.8,25.1 19.7,32.8 19.7,32.8 C19.1,34.8 17.2,34.9 15.4,34.9 C15.4,34.9 13.4,31.7 9.6,25.6 C5.5,19 0.1,6.6 0.9,3.8 C1.8,0.5 5.3,-0.6 7,1 Z" fill="#714FAB"/>
              <path d="M8.8,3.4 C8.8,3.4 9.5,4.6 10.4,6.4 C10.9,7.3 11.4,8.4 11.9,9.6 C12.4,10.8 12.9,12.1 13.4,13.4 C13.9,14.7 14.3,16 14.7,17.2 C14.9,17.8 15.1,18.4 15.2,19 C15.4,19.6 15.5,20.1 15.6,20.6 C15.9,21.6 16,22.4 16.1,23 C16.2,23.6 16.3,23.9 16.3,23.9 C16.3,23.9 15.9,22.6 15.3,20.6 C15,19.6 14.6,18.5 14.2,17.3 C13.8,16.1 13.3,14.8 12.9,13.5 C12.4,12.2 12,10.9 11.5,9.7 C11,8.5 10.6,7.4 10.2,6.4 C9.4,4.6 8.8,3.4 8.8,3.4 Z" fill="#3B2B78"/>
            </g>
            <path d="M15.3,34.6 C15.3,34.6 15,34.2 14.5,33.6 C14,32.9 13.3,32 12.5,30.9 C11.7,29.7 10.8,28.4 9.9,26.9 C9,25.4 8.1,23.8 7.2,22.2 C6.3,20.6 5.5,18.9 4.8,17.3 C4.4,16.5 4.1,15.7 3.8,15 C3.5,14.3 3.2,13.6 3,12.9 C2.5,11.6 2.2,10.5 1.9,9.7 C1.7,8.9 1.5,8.5 1.5,8.5 C1.5,8.5 1.7,8.9 2,9.7 C2.1,10.1 2.3,10.5 2.5,11.1 C2.7,11.6 3,12.2 3.2,12.8 C3.7,14.1 4.4,15.5 5.2,17.1 C5.9,18.7 6.8,20.3 7.6,21.9 C8.4,23.5 9.3,25.2 10.2,26.7 C11.1,28.2 11.9,29.6 12.6,30.8 C14.3,33 15.3,34.6 15.3,34.6 Z" fill="#3B2B78"/>
          </g>
          <g id="Shape">
            <path d="M13.8,13.5 C12.3,9.5 4.7,-6.4 0.8,4.5 C-3,15.1 12.7,48 17.2,43.2 C21.8,38.5 17.2,22.4 13.8,13.5 Z" fill="#714FAB"/>
            <path d="M11.1,7.5 C11.1,7.5 11.8,8.7 12.7,10.5 C13.1,11.4 13.6,12.5 14.1,13.7 C14.6,14.9 15.1,16.1 15.5,17.4 C15.9,18.7 16.3,20 16.7,21.2 C17.1,22.4 17.3,23.6 17.5,24.6 C17.7,25.6 17.9,26.4 18,27 C18.1,27.6 18.1,27.9 18.1,27.9 C18.1,27.9 18,27.6 17.8,27 C17.7,26.4 17.4,25.6 17.1,24.7 C16.8,23.7 16.5,22.6 16.1,21.4 C15.7,20.2 15.3,18.9 14.8,17.7 C14.4,16.4 13.9,15.2 13.5,14 C13,12.8 12.6,11.7 12.3,10.8 C11.6,8.8 11.1,7.5 11.1,7.5 Z" fill="#3B2B78"/>
            <path d="M3.5,0.9 C3.5,0.9 3.4,0.9 3.2,1.1 C3,1.2 2.7,1.4 2.4,1.8 C2.1,2.1 1.7,2.6 1.5,3.2 C1.3,3.5 1.3,3.8 1.1,4.1 C1,4.4 0.9,4.8 0.8,5.2 C0.6,6 0.6,6.8 0.5,7.7 C0.5,8.2 0.5,8.6 0.5,9.1 C0.5,9.3 0.5,9.6 0.5,9.8 C0.5,10 0.5,10.3 0.6,10.5 C0.7,11.5 0.8,12.5 1,13.5 C1.2,14.5 1.4,15.6 1.7,16.6 C2,17.6 2.2,18.7 2.5,19.6 C2.8,20.6 3.1,21.6 3.4,22.5 C3.7,23.4 4.1,24.3 4.4,25.2 C4.7,26.1 5,26.9 5.3,27.6 C6.5,30.6 7.3,32.5 7.3,32.5 C7.3,32.5 6.4,30.6 5,27.7 C4.7,27 4.4,26.2 4,25.3 C3.7,24.4 3.3,23.6 3,22.6 C2.7,21.6 2.4,20.7 2,19.7 C1.6,18.7 1.4,17.7 1.1,16.6 C0.8,15.6 0.6,14.5 0.5,13.5 C0.3,12.5 0.2,11.4 0.1,10.4 C1.42108547e-14,9.9 1.42108547e-14,9.4 1.42108547e-14,8.9 C1.42108547e-14,8.4 1.42108547e-14,7.9 1.42108547e-14,7.5 C0.1,6.6 0.2,5.7 0.4,4.9 C0.5,4.5 0.6,4.1 0.8,3.8 C1,3.5 1.1,3.1 1.3,2.9 C1.6,2.3 2,1.9 2.4,1.6 C2.8,1.3 3.1,1.1 3.3,1 C3.4,0.9 3.5,0.9 3.5,0.9 Z" fill="#3B2B78"/>
          </g>
        </g>
        <g id="Group" transform="translate(21.000000, 142.000000)">
          <g transform="translate(1.000000, 49.000000)" id="Shape">
            <g>
              <path d="M14.3,8.6 L9.8,59.4 C9.8,59.4 6,61.9 3.1,58.6 C3.1,58.6 -2.9,13.2 2.5,3.7 C6,-2.3 14.6,-0.9 14.3,8.6 Z" fill="#63B7CE"/>
              <g fill="#3B8293">
                <path d="M12.1,33.1 L12,34.8 C10.7,35.1 8.9,35.5 7,35.5 C5.1,35.5 2.9,35.2 0.9,34.4 C0.9,33.8 0.8,33.2 0.8,32.6 C4.9,34.6 9.6,33.8 12.1,33.1 Z"/>
                <path d="M12.6,27.5 L12.4,29.2 C11,29.6 9,30 6.8,30 C4.8,30 2.6,29.7 0.4,28.7 C0.4,28.1 0.4,27.5 0.3,26.9 C5,29.3 10.2,28.3 12.6,27.5 Z"/>
                <path d="M10.1,1 C8.8,1 7.4,0.9 5.9,0.6 C7.7,-0.2 9.7,-0.1 11.3,1 C10.8,1 10.5,1 10.1,1 Z"/>
                <path d="M1.2,39.3 C1.2,38.7 1.1,38.1 1.1,37.5 C5,39.3 9.2,38.7 11.8,38.1 L11.7,39.8 C10.4,40.1 8.8,40.3 7.1,40.3 C5.1,40.3 3.1,40 1.2,39.3 Z"/>
                <path d="M1.6,44.9 C1.5,44.3 1.5,43.7 1.4,43.2 C4.9,44.6 8.6,44.3 11.1,43.7 L11,45.4 C9.8,45.6 8.4,45.8 6.9,45.8 C5.3,45.7 3.5,45.5 1.6,44.9 Z"/>
                <path d="M0.3,23.5 C0.3,22.9 0.3,22.4 0.3,21.8 C5.2,23.9 10.5,22.8 13.1,22.1 L13,23.8 C11.5,24.2 9.3,24.6 6.9,24.6 C4.8,24.6 2.6,24.3 0.3,23.5 Z"/>
                <path d="M0.3,17.6 C0.4,15 0.5,12.6 0.8,10.4 C6.1,12.2 11.7,11 14.1,10.3 L14,12 C12.4,12.4 9.9,12.9 7.1,12.9 C5.1,12.9 2.9,12.7 0.7,12 C0.6,13.2 0.5,14.5 0.5,15.9 C5.5,17.8 11,16.8 13.7,16.1 L13.6,17.8 C12,18.2 9.8,18.6 7.2,18.6 C5,18.7 2.6,18.4 0.3,17.6 Z"/>
                <path d="M1.8,5.4 C2,4.9 2.2,4.4 2.4,3.9 C6.5,5.2 10.9,4.8 13.7,4.2 C13.9,4.7 14,5.2 14.1,5.7 C12.6,6 10.6,6.3 8.4,6.3 C6.3,6.4 4.1,6.2 1.8,5.4 Z"/>
              </g>
              <path d="M2,4.6 C2,4.6 1.9,4.7 1.8,5 C1.7,5.3 1.6,5.7 1.5,6.2 C1.3,7.3 1,8.8 0.9,10.7 C0.8,11.6 0.8,12.6 0.7,13.7 C0.7,14.8 0.6,15.9 0.6,17.1 C0.6,18.3 0.6,19.5 0.6,20.7 C0.6,21.9 0.6,23.2 0.7,24.4 C0.7,26.9 0.8,29.4 0.9,31.7 C1,34 1.1,36.2 1.2,38.1 C1.4,41.9 1.5,44.4 1.5,44.4 C1.5,44.4 1.4,43.8 1.3,42.7 C1.2,41.6 1,40.1 0.8,38.2 C0.7,37.3 0.6,36.2 0.6,35.2 C0.5,34.1 0.4,33 0.4,31.8 C0.3,29.5 0.1,26.9 0.1,24.4 C0.1,23.1 0.1,21.9 0.1,20.7 C0.1,19.5 0.1,18.2 0.2,17.1 C0.2,15.9 0.3,14.8 0.4,13.7 C0.5,12.6 0.6,11.6 0.7,10.7 C0.8,9.8 0.9,8.9 1.1,8.2 C1.3,7.4 1.4,6.8 1.6,6.3 C1.7,5.8 1.9,5.4 2,5.1 C1.9,4.8 2,4.6 2,4.6 Z" fill="#466D8C"/>
              <path d="M14,12.3 C14,12.3 14,13 13.9,14.2 C13.8,15.4 13.7,17.1 13.6,19.2 C13.4,21.3 13.3,23.7 13.1,26.2 C12.9,28.8 12.7,31.5 12.4,34.2 C12.1,36.9 11.9,39.7 11.6,42.2 C11.3,44.8 11.1,47.2 10.9,49.2 C10.7,51.2 10.5,53 10.3,54.2 C10.2,55.4 10.1,56.1 10.1,56.1 C10.1,56.1 10.1,55.4 10.2,54.2 C10.3,53 10.4,51.3 10.5,49.2 C10.7,47.1 10.8,44.7 11,42.2 C11.2,39.6 11.4,36.9 11.7,34.2 C12,31.5 12.2,28.7 12.5,26.2 C12.8,23.6 13,21.2 13.2,19.2 C13.4,17.2 13.6,15.4 13.8,14.2 C13.9,13 14,12.3 14,12.3 Z" fill="#466D8C"/>
            </g>
            <g transform="translate(1.000000, 46.000000)">
              <path d="M24,25.8 L23.9,27.1 C23.9,27.1 17.5,28.6 13.9,27.6 C10.3,26.6 5.9,24.8 5,24.8 L5,25.8 C5,25.8 2.1,25.8 0.4,24.6 L0.3,20.5 C0.2,20.5 20.6,18.5 24,25.8 Z" fill="#17110B"/>
              <path d="M10.4,0.5 C10.4,0.5 7,4.2 0.3,0.4 C0.3,0.4 0.6,14.3 0.6,16.9 C0.6,19.4 -1.4,22.7 3.5,23.5 C8.4,24.3 10.9,26.5 16.1,26.7 C21.3,26.9 24,25.8 24,25.8 C24,25.8 24.2,22.8 22.1,21.4 C19.9,20 13.2,18 11.4,15.2 C9.6,12.4 10.4,0.5 10.4,0.5 Z" fill="#4F3B26"/>
              <path d="M24,25.8 C24,25.8 24,25.3 23.9,24.4 C23.8,24 23.7,23.4 23.4,22.9 C23.1,22.4 22.7,21.8 22,21.5 C20.6,20.9 18.9,20.4 17.2,19.5 C15.5,18.7 13.6,17.8 12.1,16.3 C11.4,15.6 10.7,14.7 10.5,13.6 C10.3,12.6 10.3,11.6 10.2,10.7 C10.1,8.8 10.1,7 10.1,5.5 C10.2,2.5 10.3,0.4 10.3,0.4 C10.3,0.4 10.3,2.4 10.4,5.5 C10.4,7 10.5,8.8 10.6,10.7 C10.7,11.6 10.8,12.6 10.9,13.6 C11.1,14.5 11.6,15.3 12.3,16 C13.7,17.4 15.5,18.3 17.2,19.1 C18.1,19.5 18.9,19.9 19.7,20.2 C20.5,20.6 21.3,20.9 21.9,21.2 C22.6,21.6 23.1,22.2 23.3,22.8 C23.5,23.4 23.6,23.9 23.7,24.4 C24,25.3 24,25.8 24,25.8 Z" fill="#241B10"/>
              <path d="M9.6,1.1 C9.6,1.1 9.2,1.5 8.4,1.9 C8,2.1 7.5,2.2 7,2.3 C6.5,2.4 5.9,2.4 5.3,2.4 C5,2.4 4.7,2.4 4.4,2.3 C4.1,2.2 3.8,2.2 3.6,2.1 C3.1,2 2.6,1.8 2.2,1.6 C1.8,1.5 1.5,1.2 1.3,1.1 C1.1,1 1,0.9 1,0.9 C1,0.9 1.1,0.9 1.4,1 C1.6,1.1 2,1.2 2.4,1.3 C2.6,1.4 2.8,1.4 3,1.5 C3.2,1.5 3.5,1.6 3.7,1.6 C3.9,1.7 4.2,1.7 4.5,1.7 C4.8,1.8 5,1.7 5.3,1.8 C6.4,1.9 7.5,1.8 8.2,1.6 C8.6,1.5 8.9,1.4 9.1,1.3 C9.5,1.2 9.6,1.1 9.6,1.1 Z" fill="#241B10"/>
              <path d="M0.4,2.3 C0.4,2.3 0.5,3.7 0.6,5.9 C0.6,7 0.7,8.3 0.8,9.6 C0.8,11 0.9,12.4 0.9,13.9 C0.9,14.6 0.9,15.4 0.9,16.1 C0.9,16.8 0.8,17.6 0.7,18.2 C0.5,19.5 0.3,20.8 0.7,21.8 C0.9,22.3 1.3,22.6 1.6,22.9 C1.8,23 2,23.1 2.1,23.2 C2.3,23.3 2.4,23.3 2.6,23.4 C2.9,23.5 3.2,23.5 3.3,23.6 C3.5,23.6 3.6,23.6 3.6,23.6 C3.6,23.6 3.5,23.6 3.3,23.6 C3.1,23.6 2.9,23.6 2.6,23.5 C2.4,23.5 2.3,23.4 2.1,23.4 C1.9,23.3 1.7,23.2 1.5,23.2 C1.1,23 0.7,22.6 0.4,22.1 C-0.1,21 -4.10782519e-15,19.7 0.2,18.3 C0.3,17.6 0.4,17 0.4,16.2 C0.4,15.5 0.4,14.8 0.4,14 C0.4,12.5 0.4,11.1 0.4,9.7 C0.4,8.3 0.4,7.1 0.4,6 C0.4,3.8 0.4,2.3 0.4,2.3 Z" fill="#241B10"/>
              <path d="M19,20.2 C19,20.2 18.8,20.3 18.6,20.5 C18.4,20.7 18.1,21 17.8,21.2 C17.5,21.5 17.2,21.7 17,21.9 C16.8,22.1 16.6,22.2 16.6,22.2 C16.6,22.2 16.7,22 16.8,21.7 C16.9,21.4 17.2,21.1 17.5,20.8 C17.8,20.5 18.2,20.3 18.5,20.2 C18.7,20.1 19,20.2 19,20.2 Z" fill="#241B10"/>
              <path d="M14.8,18.1 C14.8,18.1 14.6,18.2 14.4,18.4 C14.2,18.6 13.8,18.8 13.5,19.1 C13.2,19.3 12.9,19.6 12.6,19.8 C12.5,19.9 12.4,20 12.3,20 C12.2,20.1 12.2,20.1 12.2,20.1 C12.2,20.1 12.2,19.9 12.4,19.6 C12.5,19.3 12.8,18.9 13.1,18.6 C13.4,18.3 13.9,18.1 14.2,18.1 C14.6,18.1 14.8,18.1 14.8,18.1 Z" fill="#241B10"/>
              <path d="M11.4,15.2 C11.4,15.2 11.2,15.3 11,15.4 C10.9,15.4 10.7,15.5 10.6,15.6 C10.4,15.7 10.3,15.7 10.1,15.8 C9.8,15.9 9.4,16.1 9.2,16.2 C9.1,16.3 9,16.3 8.9,16.3 C8.8,16.3 8.8,16.3 8.8,16.3 C8.8,16.3 8.9,16.1 9.1,15.9 C9.2,15.8 9.3,15.7 9.5,15.5 C9.7,15.4 9.8,15.3 10,15.2 C10.4,15 10.8,15 11.1,15 C11.2,15.1 11.4,15.2 11.4,15.2 Z" fill="#241B10"/>
              <path d="M10.5,10.3 C10.5,10.3 10.4,10.5 10.1,10.7 C10,10.8 9.8,10.9 9.6,10.9 C9.4,11 9.2,11 8.9,11 C8.7,11 8.4,11 8.2,10.9 C8,10.9 7.8,10.8 7.7,10.7 C7.4,10.6 7.2,10.4 7.2,10.4 C7.2,10.4 7.4,10.4 7.7,10.4 C7.9,10.4 8,10.4 8.2,10.4 C8.4,10.4 8.6,10.4 8.8,10.4 C9.2,10.4 9.6,10.4 9.9,10.3 C10.2,10.3 10.5,10.3 10.5,10.3 Z" fill="#241B10"/>
              <path d="M10.3,4.5 C10.3,4.5 10.2,4.7 9.9,4.9 C9.6,5.1 9.2,5.3 8.8,5.4 C8.6,5.4 8.3,5.5 8.1,5.4 C7.9,5.4 7.7,5.3 7.5,5.3 C7.3,5.2 7.2,5.1 7.1,5.1 C7,5 7,5 7,5 C7,5 7.2,5 7.5,5 C7.8,5 8.2,4.9 8.6,4.9 C8.8,4.9 9,4.8 9.2,4.8 C9.4,4.8 9.6,4.7 9.7,4.7 C10.1,4.5 10.3,4.5 10.3,4.5 Z" fill="#241B10"/>
              <path d="M4.9,23.4 C4.9,23.4 4.8,22.9 4.6,22.1 C4.4,21.3 4.1,20.3 3.6,19.4 C3.5,19.2 3.3,19 3.2,18.8 C3,18.6 2.9,18.4 2.7,18.2 C2.5,18 2.4,17.9 2.2,17.7 C2,17.6 1.9,17.4 1.7,17.3 C1.5,17.2 1.4,17.1 1.2,17 C1.1,16.9 0.9,16.9 0.8,16.8 C0.6,16.7 0.5,16.7 0.5,16.7 C0.5,16.7 0.6,16.7 0.9,16.7 C1.1,16.7 1.5,16.8 1.9,16.9 C2.1,17 2.3,17.1 2.5,17.2 C2.7,17.3 2.9,17.5 3.1,17.6 C3.5,17.9 3.8,18.4 4.1,18.9 C4.2,19.2 4.4,19.4 4.4,19.7 C4.5,20 4.6,20.2 4.6,20.5 C4.7,21 4.8,21.5 4.8,21.9 C5,22.9 4.9,23.4 4.9,23.4 Z" fill="#241B10"/>
            </g>
          </g>
          <g id="Shape">
            <path d="M10.9,59.7 C19.1,60.9 21.8,20 18.9,8.8 C16,-2.4 3.3,-3.5 1.8,14.3 C0.3,32.1 0.1,58.1 10.9,59.7 Z" fill="#63B7CE"/>
            <g transform="translate(0.000000, 2.000000)">
              <g transform="translate(1.000000, 0.000000)" fill="#3B8293">
                <path d="M10.1,42.3 C7.5,42.3 4.3,41.8 0.7,40.3 C0.6,39.7 0.6,39.1 0.5,38.5 C6.2,41.2 10.8,41 13.8,40.4 C15.6,40 17,39.4 17.9,38.9 C17.8,39.5 17.7,40.2 17.6,40.8 C16.7,41.2 15.5,41.6 14.2,41.9 C13,42.1 11.6,42.3 10.1,42.3 Z"/>
                <path d="M10,19.7 C7.3,19.7 4,19.3 0.4,17.9 C0.4,17.3 0.5,16.8 0.5,16.3 C6.3,18.6 11,18.4 14,17.8 C16.3,17.3 17.9,16.6 18.9,16.1 C18.9,16.7 18.9,17.2 19,17.8 C17.9,18.3 16.4,18.9 14.4,19.3 C13.2,19.5 11.7,19.7 10,19.7 Z"/>
                <path d="M14.3,2.7 C13.1,3 11.6,3.1 9.9,3.1 C8,3.1 5.9,2.9 3.6,2.3 C3.9,1.8 4.3,1.3 4.7,0.9 C8.5,1.7 11.7,1.5 13.9,1.1 C14.2,1 14.5,1 14.7,0.9 C15.1,1.3 15.5,1.7 15.8,2.2 C15.4,2.5 14.9,2.6 14.3,2.7 Z"/>
                <path d="M10,8.2 C7.6,8.2 4.9,7.9 1.8,6.9 C1.9,6.4 2.1,5.9 2.3,5.4 C7.3,7 11.3,6.8 14,6.2 C15.3,5.9 16.5,5.6 17.4,5.2 C17.6,5.7 17.7,6.2 17.9,6.7 C17,7.1 15.8,7.5 14.4,7.7 C13.1,8 11.7,8.1 10,8.2 Z"/>
                <path d="M10,13.8 C7.4,13.8 4.3,13.4 0.8,12.2 C0.8,11.6 0.9,11.1 1,10.6 C6.6,12.7 11.1,12.5 14,11.9 C16,11.5 17.5,10.9 18.5,10.4 C18.6,10.9 18.6,11.5 18.7,12.1 C17.6,12.6 16.2,13.1 14.4,13.5 C13.2,13.6 11.7,13.8 10,13.8 Z"/>
                <path d="M10.1,48 C7.7,48 4.9,47.6 1.6,46.4 C1.5,45.8 1.3,45.2 1.2,44.5 C6.5,46.8 10.9,46.6 13.7,46 C14.9,45.7 15.9,45.4 16.8,45 C16.7,45.6 16.5,46.3 16.4,46.9 C15.7,47.1 15,47.4 14.2,47.6 C13,47.8 11.7,48 10.1,48 Z"/>
                <path d="M4,53 C3.7,52.4 3.4,51.8 3.1,51.2 C8,52.5 13,51.5 15.3,50.9 C15.1,51.5 14.9,52.1 14.7,52.7 C13.1,53.1 10.9,53.5 8.4,53.5 C7,53.4 5.5,53.3 4,53 Z"/>
                <path d="M10.3,37.2 C7.5,37.2 4.1,36.7 0.2,35 C0.2,34.4 0.1,33.8 0.1,33.2 C6.1,36 10.9,35.9 14,35.2 C16,34.8 17.4,34.1 18.4,33.6 C18.3,34.2 18.3,34.8 18.2,35.5 C17.2,36 16,36.4 14.4,36.8 C13.3,37 11.9,37.2 10.3,37.2 Z"/>
                <path d="M10.1,31.5 C7.3,31.5 3.9,31 0.1,29.5 C0.1,28.9 0.1,28.4 0.1,27.8 C6.1,30.3 11,30.1 14.1,29.5 C16.2,29.1 17.8,28.4 18.8,27.9 C18.8,28.5 18.7,29.1 18.7,29.7 C17.6,30.2 16.2,30.7 14.5,31.1 C13.3,31.3 11.8,31.5 10.1,31.5 Z"/>
                <path d="M10.1,25.4 C7.3,25.4 4,24.9 0.2,23.5 C0.2,22.9 0.2,22.4 0.3,21.8 C6.2,24.2 11,24 14.2,23.4 C16.5,22.9 18.2,22.2 19.2,21.6 C19.2,22.2 19.2,22.8 19.2,23.4 C18.1,23.9 16.6,24.5 14.7,24.9 C13.2,25.2 11.7,25.4 10.1,25.4 Z"/>
              </g>
              <path d="M4.2,51.4 C4.2,51.4 3.9,50.8 3.5,49.7 C3.3,49.2 3.1,48.5 2.9,47.7 C2.7,46.9 2.4,46.1 2.3,45.1 C2.1,44.1 1.9,43.1 1.7,42 C1.6,40.9 1.3,39.7 1.2,38.5 C1.1,37.3 1,36 0.9,34.7 C0.8,33.4 0.8,32.1 0.7,30.8 C0.7,29.5 0.7,28.2 0.7,26.9 C0.7,25.6 0.7,24.3 0.8,23.1 C0.9,21.9 0.9,20.7 1,19.6 C1.1,18.5 1.2,17.4 1.3,16.4 C1.5,14.4 1.7,12.8 1.8,11.7 C1.9,10.6 2,9.9 2,9.9 C2,9.9 2,10.6 1.9,11.7 C1.8,12.8 1.7,14.5 1.6,16.4 C1.5,17.4 1.5,18.4 1.4,19.6 C1.3,20.7 1.3,21.9 1.3,23.1 C1.2,24.3 1.2,25.6 1.2,26.9 C1.2,28.2 1.2,29.5 1.2,30.8 C1.2,32.1 1.2,33.4 1.3,34.7 C1.4,36 1.5,37.2 1.6,38.5 C1.7,39.7 1.9,40.9 2,42 C2.2,43.1 2.3,44.2 2.5,45.1 C2.8,47 3.2,48.6 3.6,49.7 C3.9,50.8 4.2,51.4 4.2,51.4 Z" fill="#466D8C"/>
              <path d="M18.6,5.7 C18.6,5.7 18.7,5.8 18.8,6.2 C18.9,6.5 19,7 19.1,7.5 C19.3,8.6 19.6,10.3 19.8,12.3 C19.9,13.3 20,14.4 20.1,15.5 C20.2,16.6 20.3,17.9 20.3,19.1 C20.3,20.4 20.3,21.7 20.3,23 C20.3,24.3 20.2,25.7 20.2,27 C20.1,28.3 20,29.7 19.9,31 C19.8,32.3 19.6,33.6 19.5,34.8 C19.4,36 19.2,37.2 19,38.4 C18.8,39.5 18.6,40.6 18.4,41.6 C18.2,42.6 18.1,43.5 17.9,44.3 C17.7,45.1 17.6,45.8 17.4,46.4 C17.1,47.5 17,48.2 17,48.2 C17,48.2 17.1,47.5 17.3,46.4 C17.4,45.8 17.5,45.1 17.7,44.3 C17.9,43.5 18,42.6 18.1,41.6 C18.2,40.6 18.4,39.5 18.6,38.4 C18.7,37.3 18.9,36.1 19,34.8 C19.1,33.6 19.2,32.3 19.4,31 C19.5,29.7 19.6,28.4 19.6,27 C19.6,25.7 19.7,24.3 19.7,23 C19.7,21.7 19.7,20.4 19.7,19.1 C19.7,16.6 19.6,14.3 19.4,12.3 C19.2,10.3 19.1,8.6 18.9,7.5 C18.8,6.9 18.7,6.5 18.7,6.2 C18.7,5.8 18.6,5.7 18.6,5.7 Z" fill="#466D8C"/>
            </g>
          </g>
        </g>
        <g id="Group" transform="translate(47.000000, 137.000000)">
          <g transform="translate(0.000000, 48.000000)" id="Shape">
            <g>
              <path d="M15,9.4 L10.5,60.2 C10.5,60.2 6.7,62.7 3.8,59.4 C3.8,59.4 -2.2,14 3.2,4.5 C6.6,-1.6 15.2,-0.1 15,9.4 Z" fill="#63B7CE"/>
              <g transform="translate(1.000000, 0.000000)" fill="#3B8293">
                <path d="M11.8,33.9 L11.7,35.6 C10.4,35.9 8.6,36.3 6.7,36.3 C4.8,36.3 2.6,36 0.6,35.2 C0.6,34.6 0.5,34 0.5,33.4 C4.6,35.4 9.2,34.6 11.8,33.9 Z"/>
                <path d="M12.3,28.3 L12.1,30 C10.7,30.4 8.7,30.8 6.5,30.8 C4.5,30.8 2.3,30.5 0.1,29.5 C0.1,28.9 0.1,28.3 -7.10542736e-15,27.7 C4.7,30.1 9.8,29 12.3,28.3 Z"/>
                <path d="M9.7,1.8 C8.4,1.8 7,1.7 5.5,1.4 C7.3,0.6 9.3,0.7 10.9,1.8 C10.5,1.8 10.1,1.8 9.7,1.8 Z"/>
                <path d="M0.8,40.1 C0.8,39.5 0.7,38.9 0.7,38.3 C4.6,40.1 8.8,39.5 11.4,38.9 L11.3,40.6 C10,40.9 8.4,41.1 6.7,41.1 C4.8,41.1 2.8,40.8 0.8,40.1 Z"/>
                <path d="M1.3,45.7 C1.2,45.1 1.2,44.5 1.1,44 C4.6,45.4 8.3,45.1 10.8,44.5 L10.7,46.2 C9.5,46.4 8.1,46.6 6.6,46.6 C4.9,46.5 3.1,46.3 1.3,45.7 Z"/>
                <path d="M0,24.2 C0,23.6 0,23.1 0,22.5 C4.9,24.6 10.2,23.5 12.8,22.8 L12.7,24.5 C11.2,24.9 9,25.3 6.6,25.3 C4.5,25.4 2.2,25.1 0,24.2 Z"/>
                <path d="M0,18.4 C0.1,15.8 0.2,13.4 0.5,11.2 C5.8,13 11.4,11.8 13.8,11.1 L13.7,12.8 C12.1,13.2 9.6,13.7 6.8,13.7 C4.8,13.7 2.6,13.5 0.4,12.8 C0.3,14 0.2,15.3 0.2,16.7 C5.2,18.6 10.7,17.6 13.4,16.9 L13.3,18.6 C11.7,19 9.5,19.4 6.9,19.4 C4.6,19.5 2.3,19.2 0,18.4 Z"/>
                <path d="M1.5,6.2 C1.7,5.7 1.9,5.2 2.1,4.7 C6.2,6 10.6,5.6 13.4,5 C13.6,5.5 13.7,6 13.8,6.5 C12.3,6.8 10.3,7.1 8.1,7.1 C6,7.2 3.7,6.9 1.5,6.2 Z"/>
              </g>
              <path d="M2.7,5.4 C2.7,5.4 2.6,5.5 2.5,5.8 C2.4,6.1 2.3,6.5 2.2,7 C2,8.1 1.7,9.6 1.6,11.5 C1.5,12.4 1.5,13.4 1.4,14.5 C1.4,15.6 1.3,16.7 1.3,17.9 C1.3,19.1 1.3,20.3 1.3,21.5 C1.3,22.7 1.3,24 1.4,25.2 C1.4,27.7 1.5,30.2 1.6,32.5 C1.7,34.8 1.8,37 1.9,38.9 C2.1,42.7 2.2,45.2 2.2,45.2 C2.2,45.2 2.1,44.6 2,43.5 C1.9,42.4 1.7,40.9 1.5,39 C1.4,38.1 1.3,37 1.3,36 C1.2,34.9 1.1,33.8 1.1,32.6 C1,30.3 0.8,27.7 0.8,25.2 C0.8,23.9 0.8,22.7 0.8,21.5 C0.8,20.3 0.8,19 0.9,17.9 C0.9,16.7 1,15.6 1.1,14.5 C1.2,13.4 1.3,12.4 1.4,11.5 C1.5,10.6 1.6,9.7 1.8,9 C2,8.2 2.1,7.6 2.3,7.1 C2.4,6.6 2.6,6.2 2.7,5.9 C2.6,5.6 2.7,5.4 2.7,5.4 Z" fill="#466D8C"/>
              <path d="M14.6,13.1 C14.6,13.1 14.6,13.8 14.5,15 C14.4,16.2 14.3,17.9 14.2,20 C14,22.1 13.9,24.5 13.7,27 C13.5,29.6 13.3,32.3 13,35 C12.7,37.7 12.5,40.5 12.2,43 C11.9,45.6 11.7,48 11.5,50 C11.3,52 11.1,53.8 10.9,55 C10.8,56.2 10.7,56.9 10.7,56.9 C10.7,56.9 10.7,56.2 10.8,55 C10.9,53.8 11,52.1 11.1,50 C11.3,47.9 11.4,45.5 11.6,43 C11.8,40.4 12,37.7 12.3,35 C12.6,32.3 12.8,29.5 13.1,27 C13.4,24.4 13.6,22 13.8,20 C14,18 14.2,16.2 14.4,15 C14.6,13.8 14.6,13.1 14.6,13.1 Z" fill="#466D8C"/>
            </g>
            <g transform="translate(1.000000, 47.000000)">
              <path d="M24.6,25.6 L24.5,26.9 C24.5,26.9 18.1,28.4 14.5,27.4 C10.9,26.4 6.5,24.6 5.6,24.6 L5.6,25.6 C5.6,25.6 2.7,25.6 1,24.4 L0.9,20.3 C0.9,20.2 21.3,18.2 24.6,25.6 Z" fill="#17110B"/>
              <path d="M11.1,0.3 C11.1,0.3 7.7,4 1,0.2 C1,0.2 1.3,14.1 1.3,16.7 C1.3,19.2 -0.7,22.5 4.2,23.3 C9.1,24.1 11.6,26.3 16.8,26.5 C22,26.7 24.7,25.6 24.7,25.6 C24.7,25.6 24.9,22.6 22.8,21.2 C20.7,19.8 13.9,17.8 12.1,15 C10.3,12.2 11.1,0.3 11.1,0.3 Z" fill="#4F3B26"/>
              <path d="M24.6,25.6 C24.6,25.6 24.6,25.1 24.5,24.2 C24.4,23.8 24.3,23.2 24,22.7 C23.7,22.2 23.3,21.6 22.6,21.3 C21.2,20.7 19.5,20.2 17.8,19.3 C16.1,18.5 14.2,17.6 12.7,16.1 C12,15.4 11.3,14.5 11.1,13.4 C10.9,12.4 10.9,11.4 10.8,10.5 C10.7,8.6 10.7,6.8 10.7,5.3 C10.8,2.3 10.9,0.2 10.9,0.2 C10.9,0.2 10.9,2.2 11,5.3 C11,6.8 11.1,8.6 11.2,10.5 C11.3,11.4 11.4,12.4 11.5,13.4 C11.7,14.3 12.2,15.1 12.9,15.8 C14.3,17.2 16.1,18.1 17.8,18.9 C18.7,19.3 19.5,19.7 20.3,20 C21.1,20.4 21.9,20.7 22.5,21 C23.2,21.4 23.7,22 23.9,22.6 C24.1,23.2 24.2,23.7 24.3,24.2 C24.7,25.1 24.6,25.6 24.6,25.6 Z" fill="#241B10"/>
              <path d="M10.2,0.9 C10.2,0.9 9.8,1.3 9,1.7 C8.6,1.9 8.1,2 7.6,2.1 C7.1,2.2 6.5,2.2 5.9,2.2 C5.6,2.2 5.3,2.2 5,2.1 C4.7,2 4.4,2 4.2,1.9 C3.7,1.8 3.2,1.6 2.8,1.4 C2.4,1.3 2.1,1 1.9,0.9 C1.7,0.8 1.6,0.7 1.6,0.7 C1.6,0.7 1.7,0.7 2,0.8 C2.2,0.9 2.6,1 3,1.1 C3.2,1.2 3.4,1.2 3.6,1.3 C3.8,1.3 4.1,1.4 4.3,1.4 C4.5,1.5 4.8,1.5 5.1,1.5 C5.4,1.6 5.6,1.5 5.9,1.6 C7,1.7 8.1,1.6 8.8,1.4 C9.2,1.3 9.5,1.2 9.7,1.1 C10.1,0.9 10.2,0.9 10.2,0.9 Z" fill="#241B10"/>
              <path d="M1.1,2.1 C1.1,2.1 1.2,3.5 1.3,5.7 C1.3,6.8 1.4,8.1 1.5,9.4 C1.5,10.8 1.6,12.2 1.6,13.7 C1.6,14.4 1.6,15.2 1.6,15.9 C1.6,16.6 1.5,17.4 1.4,18 C1.2,19.3 1,20.6 1.4,21.6 C1.6,22.1 2,22.4 2.3,22.7 C2.5,22.8 2.7,22.9 2.8,23 C3,23.1 3.1,23.1 3.3,23.2 C3.6,23.3 3.9,23.3 4,23.4 C4.2,23.4 4.3,23.4 4.3,23.4 C4.3,23.4 4.2,23.4 4,23.4 C3.8,23.4 3.6,23.4 3.3,23.3 C3.1,23.3 3,23.2 2.8,23.2 C2.6,23.1 2.4,23 2.2,23 C1.8,22.8 1.4,22.4 1.1,21.9 C0.6,20.8 0.7,19.5 0.9,18.1 C1,17.4 1.1,16.8 1.1,16 C1.1,15.3 1.1,14.6 1.1,13.8 C1.1,12.3 1.1,10.9 1.1,9.5 C1.1,8.1 1.1,6.9 1.1,5.8 C1,3.6 1.1,2.1 1.1,2.1 Z" fill="#241B10"/>
              <path d="M19.6,19.9 C19.6,19.9 19.4,20 19.2,20.2 C19,20.4 18.7,20.7 18.4,20.9 C18.1,21.2 17.8,21.4 17.6,21.6 C17.4,21.8 17.2,21.9 17.2,21.9 C17.2,21.9 17.3,21.7 17.4,21.4 C17.5,21.1 17.8,20.8 18.1,20.5 C18.4,20.2 18.8,20 19.1,19.9 C19.4,19.9 19.6,19.9 19.6,19.9 Z" fill="#241B10"/>
              <path d="M15.5,17.9 C15.5,17.9 15.3,18 15.1,18.2 C14.9,18.4 14.5,18.6 14.2,18.9 C13.9,19.1 13.6,19.4 13.3,19.6 C13.2,19.7 13.1,19.8 13,19.8 C12.9,19.9 12.9,19.9 12.9,19.9 C12.9,19.9 12.9,19.7 13.1,19.4 C13.2,19.1 13.5,18.7 13.8,18.4 C14.1,18.1 14.6,17.9 14.9,17.9 C15.2,17.9 15.5,17.9 15.5,17.9 Z" fill="#241B10"/>
              <path d="M12,15 C12,15 11.8,15.1 11.6,15.2 C11.5,15.2 11.3,15.3 11.2,15.4 C11,15.5 10.9,15.5 10.7,15.6 C10.4,15.7 10,15.9 9.8,16 C9.7,16.1 9.6,16.1 9.5,16.1 C9.4,16.1 9.4,16.1 9.4,16.1 C9.4,16.1 9.5,15.9 9.7,15.7 C9.8,15.6 9.9,15.5 10.1,15.3 C10.3,15.2 10.4,15.1 10.6,15 C11,14.8 11.4,14.8 11.7,14.8 C11.8,14.9 12,15 12,15 Z" fill="#241B10"/>
              <path d="M11.1,10.1 C11.1,10.1 11,10.3 10.7,10.5 C10.6,10.6 10.4,10.7 10.2,10.7 C10,10.8 9.8,10.8 9.5,10.8 C9.3,10.8 9,10.8 8.8,10.7 C8.6,10.7 8.4,10.6 8.3,10.5 C8,10.4 7.8,10.2 7.8,10.2 C7.8,10.2 8,10.2 8.3,10.2 C8.5,10.2 8.6,10.2 8.8,10.2 C9,10.2 9.2,10.2 9.4,10.2 C9.8,10.2 10.2,10.2 10.5,10.1 C10.9,10.1 11.1,10.1 11.1,10.1 Z" fill="#241B10"/>
              <path d="M11,4.3 C11,4.3 10.9,4.5 10.6,4.7 C10.3,4.9 9.9,5.1 9.5,5.2 C9.3,5.2 9,5.3 8.8,5.2 C8.6,5.2 8.4,5.1 8.2,5.1 C8,5 7.9,4.9 7.8,4.9 C7.7,4.8 7.7,4.8 7.7,4.8 C7.7,4.8 7.9,4.8 8.2,4.8 C8.5,4.8 8.9,4.7 9.3,4.7 C9.5,4.7 9.7,4.6 9.9,4.6 C10.1,4.6 10.3,4.5 10.4,4.5 C10.8,4.3 11,4.3 11,4.3 Z" fill="#241B10"/>
              <path d="M5.6,23.2 C5.6,23.2 5.5,22.7 5.3,21.9 C5.1,21.1 4.8,20.1 4.3,19.2 C4.2,19 4,18.8 3.9,18.6 C3.7,18.4 3.6,18.2 3.4,18 C3.2,17.8 3.1,17.7 2.9,17.5 C2.7,17.4 2.6,17.2 2.4,17.1 C2.2,17 2.1,16.9 1.9,16.8 C1.8,16.7 1.6,16.7 1.5,16.6 C1.3,16.5 1.2,16.5 1.2,16.5 C1.2,16.5 1.3,16.5 1.6,16.5 C1.8,16.5 2.2,16.6 2.6,16.7 C2.8,16.8 3,16.9 3.2,17 C3.4,17.1 3.6,17.3 3.8,17.4 C4.2,17.7 4.5,18.2 4.8,18.7 C4.9,19 5.1,19.2 5.1,19.5 C5.2,19.8 5.3,20 5.3,20.3 C5.4,20.8 5.5,21.3 5.5,21.7 C5.7,22.7 5.6,23.2 5.6,23.2 Z" fill="#241B10"/>
            </g>
          </g>
          <g id="Shape">
            <path d="M10.5,59.4 C18.7,60.6 21.4,19.7 18.5,8.5 C15.6,-2.6 2.9,-3.8 1.4,14 C-0.1,31.8 -0.3,57.9 10.5,59.4 Z" fill="#63B7CE"/>
            <g transform="translate(0.000000, 2.000000)">
              <g fill="#3B8293">
                <path d="M10.7,42.1 C8.1,42.1 4.9,41.6 1.3,40.1 C1.2,39.5 1.2,38.9 1.1,38.3 C6.8,41 11.4,40.8 14.4,40.2 C16.2,39.8 17.6,39.2 18.5,38.7 C18.4,39.3 18.3,40 18.2,40.6 C17.3,41 16.1,41.4 14.8,41.7 C13.6,41.9 12.3,42.1 10.7,42.1 Z"/>
                <path d="M10.7,19.5 C8,19.5 4.7,19.1 1.1,17.7 C1.1,17.1 1.2,16.6 1.2,16.1 C7,18.4 11.7,18.2 14.7,17.6 C17,17.1 18.6,16.4 19.6,15.9 C19.6,16.5 19.6,17 19.7,17.6 C18.6,18.1 17.1,18.7 15.1,19.1 C13.8,19.3 12.4,19.5 10.7,19.5 Z"/>
                <path d="M15,2.5 C13.8,2.8 12.3,2.9 10.6,2.9 C8.7,2.9 6.6,2.7 4.3,2.1 C4.6,1.6 5,1.1 5.4,0.7 C9.2,1.5 12.4,1.3 14.6,0.9 C14.9,0.8 15.2,0.8 15.4,0.7 C15.8,1.1 16.2,1.5 16.5,2 C16,2.3 15.5,2.4 15,2.5 Z"/>
                <path d="M10.6,7.9 C8.2,7.9 5.5,7.6 2.4,6.6 C2.5,6.1 2.7,5.6 2.9,5.1 C7.9,6.7 11.9,6.5 14.6,5.9 C15.9,5.6 17.1,5.3 18,4.9 C18.2,5.4 18.3,5.9 18.5,6.4 C17.6,6.8 16.4,7.2 15,7.4 C13.8,7.7 12.3,7.9 10.6,7.9 Z"/>
                <path d="M10.6,13.6 C8,13.6 4.9,13.2 1.4,12 C1.4,11.4 1.5,10.9 1.6,10.4 C7.2,12.5 11.7,12.3 14.6,11.7 C16.6,11.3 18.1,10.7 19.1,10.2 C19.2,10.7 19.2,11.3 19.3,11.9 C18.2,12.4 16.8,12.9 15,13.3 C13.8,13.4 12.3,13.6 10.6,13.6 Z"/>
                <path d="M10.7,47.8 C8.3,47.8 5.5,47.4 2.2,46.2 C2.1,45.6 1.9,45 1.8,44.3 C7.1,46.6 11.5,46.4 14.3,45.8 C15.5,45.5 16.5,45.2 17.4,44.8 C17.3,45.4 17.1,46.1 17,46.7 C16.3,46.9 15.6,47.2 14.8,47.4 C13.7,47.6 12.3,47.8 10.7,47.8 Z"/>
                <path d="M4.6,52.8 C4.3,52.2 4,51.6 3.7,51 C8.6,52.3 13.6,51.3 15.9,50.7 C15.7,51.3 15.5,51.9 15.3,52.5 C13.7,52.9 11.5,53.3 9,53.3 C7.7,53.2 6.2,53.1 4.6,52.8 Z"/>
                <path d="M10.9,37 C8.1,37 4.7,36.5 0.8,34.8 C0.8,34.2 0.7,33.6 0.7,33 C6.7,35.8 11.5,35.7 14.6,35 C16.6,34.6 18,33.9 19,33.4 C18.9,34 18.9,34.6 18.8,35.3 C17.8,35.8 16.6,36.2 15,36.6 C13.9,36.8 12.5,37 10.9,37 Z"/>
                <path d="M10.7,31.3 C7.9,31.3 4.5,30.8 0.7,29.3 C0.7,28.7 0.7,28.2 0.7,27.6 C6.7,30.1 11.6,29.9 14.7,29.3 C16.8,28.9 18.4,28.2 19.4,27.7 C19.4,28.3 19.3,28.9 19.3,29.5 C18.2,30 16.8,30.5 15.1,30.9 C13.9,31.1 12.4,31.3 10.7,31.3 Z"/>
                <path d="M10.7,25.2 C7.9,25.2 4.6,24.7 0.8,23.3 C0.8,22.7 0.8,22.2 0.9,21.6 C6.8,24 11.6,23.8 14.8,23.2 C17.1,22.7 18.8,22 19.8,21.4 C19.8,22 19.8,22.6 19.8,23.2 C18.7,23.7 17.2,24.3 15.3,24.7 C13.9,25 12.4,25.2 10.7,25.2 Z"/>
              </g>
              <path d="M3.8,51.2 C3.8,51.2 3.5,50.6 3.1,49.5 C2.9,49 2.7,48.3 2.5,47.5 C2.3,46.7 2,45.9 1.9,44.9 C1.7,43.9 1.5,42.9 1.3,41.8 C1.2,40.7 0.9,39.5 0.8,38.3 C0.7,37.1 0.6,35.8 0.5,34.5 C0.4,33.2 0.4,31.9 0.3,30.6 C0.3,29.3 0.3,28 0.3,26.7 C0.3,25.4 0.3,24.1 0.4,22.9 C0.5,21.7 0.5,20.5 0.6,19.4 C0.7,18.3 0.8,17.2 0.9,16.2 C1.1,14.2 1.3,12.6 1.4,11.5 C1.5,10.4 1.6,9.7 1.6,9.7 C1.6,9.7 1.6,10.4 1.5,11.5 C1.4,12.6 1.3,14.3 1.2,16.2 C1.1,17.2 1.1,18.2 1,19.4 C0.9,20.5 0.9,21.7 0.9,22.9 C0.8,24.1 0.8,25.4 0.8,26.7 C0.8,28 0.8,29.3 0.8,30.6 C0.8,31.9 0.8,33.2 0.9,34.5 C1,35.8 1.1,37 1.2,38.3 C1.3,39.5 1.5,40.7 1.6,41.8 C1.8,42.9 1.9,44 2.1,44.9 C2.4,46.8 2.8,48.4 3.2,49.5 C3.6,50.6 3.8,51.2 3.8,51.2 Z" fill="#466D8C"/>
              <path d="M18.3,5.4 C18.3,5.4 18.4,5.5 18.5,5.9 C18.6,6.2 18.7,6.7 18.8,7.2 C19,8.3 19.3,10 19.5,12 C19.6,13 19.7,14.1 19.8,15.2 C19.9,16.3 20,17.6 20,18.8 C20,20.1 20,21.4 20,22.7 C20,24 19.9,25.4 19.9,26.7 C19.8,28 19.7,29.4 19.6,30.7 C19.5,32 19.3,33.3 19.2,34.5 C19.1,35.7 18.9,36.9 18.7,38.1 C18.5,39.2 18.3,40.3 18.1,41.3 C17.9,42.3 17.8,43.2 17.6,44 C17.4,44.8 17.3,45.5 17.1,46.1 C16.8,47.2 16.7,47.9 16.7,47.9 C16.7,47.9 16.8,47.2 17,46.1 C17.1,45.5 17.2,44.8 17.4,44 C17.6,43.2 17.7,42.3 17.8,41.3 C17.9,40.3 18.1,39.2 18.3,38.1 C18.4,37 18.6,35.8 18.7,34.5 C18.8,33.3 18.9,32 19.1,30.7 C19.2,29.4 19.3,28.1 19.3,26.7 C19.3,25.4 19.4,24 19.4,22.7 C19.4,21.4 19.4,20.1 19.4,18.8 C19.4,16.3 19.3,14 19.1,12 C18.9,10 18.8,8.3 18.6,7.2 C18.5,6.6 18.4,6.2 18.4,5.9 C18.4,5.6 18.3,5.4 18.3,5.4 Z" fill="#466D8C"/>
            </g>
          </g>
        </g>
        <g id="Group" transform="translate(0.000000, 111.000000)">
          <g id="Shape">
            <path d="M59.2,4.3 C75.7,20.7 85.2,71.5 87.2,93.8 C87.2,93.8 47.3,120.8 0.6,95.8 C0.6,95.8 7.5,18.2 35.8,3.9 C40.8,1.5 52.4,-2.5 59.2,4.3 Z" fill="#714FAB"/>
            <path d="M60.8,6 C60.8,6 60.9,6.1 61.1,6.4 C61.3,6.7 61.7,7.1 62.1,7.6 C62.5,8.1 63,8.8 63.5,9.5 C64,10.3 64.6,11.1 65.2,12.1 C65.8,13.1 66.4,14.1 67.1,15.3 C67.7,16.4 68.4,17.7 69,18.9 C69.6,20.2 70.3,21.5 70.8,22.9 C71.4,24.3 72,25.7 72.6,27.1 C73.2,28.5 73.7,29.9 74.2,31.3 C74.7,32.7 75.2,34.1 75.6,35.4 C76.1,36.7 76.4,38.1 76.8,39.3 C77.2,40.5 77.5,41.7 77.8,42.8 C78.1,43.9 78.4,44.9 78.6,45.8 C78.8,46.7 79,47.5 79.1,48.1 C79.4,49.4 79.6,50.1 79.6,50.1 C79.6,50.1 79.4,49.4 79,48.1 C78.8,47.5 78.6,46.7 78.3,45.8 C78.1,44.9 77.7,43.9 77.4,42.8 C77.1,41.7 76.7,40.5 76.3,39.3 C75.9,38.1 75.5,36.8 75,35.4 C74.5,34.1 74.1,32.7 73.6,31.3 C73.1,29.9 72.6,28.5 72,27.1 C71.5,25.7 70.9,24.3 70.3,22.9 C69.7,21.5 69.1,20.2 68.5,18.9 C67.9,17.6 67.3,16.4 66.7,15.3 C66.1,14.1 65.5,13.1 64.9,12.1 C64.3,11.1 63.8,10.2 63.3,9.5 C62.8,8.7 62.4,8.1 62,7.5 C61.6,7 61.3,6.5 61.1,6.3 C60.9,6.1 60.8,6 60.8,6 Z" fill="#3B2B78"/>
            <path d="M33.4,5.3 C33.4,5.3 33.2,5.4 32.8,5.7 C32.4,6 31.9,6.4 31.3,6.9 C31,7.2 30.7,7.5 30.3,7.8 C29.9,8.1 29.5,8.5 29.1,9 C28.3,9.8 27.4,10.8 26.5,11.9 C26.1,12.5 25.6,13.1 25.1,13.7 C24.6,14.3 24.2,15 23.7,15.7 C23.2,16.4 22.8,17.1 22.3,17.8 C21.9,18.5 21.4,19.3 20.9,20.1 C20.5,20.9 20,21.7 19.6,22.5 C19.2,23.3 18.8,24.2 18.3,25 C17.4,26.7 16.7,28.4 15.9,30.2 C15.1,32 14.4,33.7 13.7,35.5 C13.1,37.3 12.4,39 11.8,40.7 C11.2,42.4 10.7,44.1 10.2,45.6 C9.7,47.2 9.3,48.7 8.9,50 C8.5,51.4 8.1,52.6 7.8,53.8 C7.5,54.9 7.2,55.9 7,56.7 C6.6,58.3 6.3,59.3 6.3,59.3 C6.3,59.3 6.5,58.4 6.9,56.7 C7.1,55.9 7.3,54.9 7.6,53.7 C7.8,52.6 8.2,51.3 8.5,49.9 C8.9,48.5 9.2,47 9.7,45.4 C10.2,43.8 10.7,42.2 11.2,40.4 C11.8,38.7 12.4,36.9 13,35.2 C13.7,33.4 14.4,31.6 15.1,29.9 C15.9,28.2 16.6,26.4 17.5,24.7 C17.9,23.9 18.3,23 18.8,22.2 C19.3,21.4 19.7,20.6 20.2,19.8 C20.6,19 21.1,18.3 21.6,17.5 C22.1,16.8 22.5,16.1 23,15.4 C23.5,14.7 23.9,14.1 24.4,13.5 C24.9,12.9 25.4,12.3 25.8,11.7 C26.7,10.6 27.6,9.6 28.5,8.8 C28.9,8.4 29.3,8 29.7,7.7 C30.1,7.4 30.4,7 30.8,6.8 C31.5,6.3 32,5.9 32.4,5.6 C33.2,5.5 33.4,5.3 33.4,5.3 Z" fill="#3B2B78"/>
            <path d="M34.8,7 C34.8,7 34.6,7.2 34.3,7.5 C34,7.8 33.5,8.3 33,8.9 C32.5,9.5 31.9,10.2 31.3,11 C30.7,11.8 30.1,12.7 29.5,13.5 C28.9,14.4 28.4,15.3 27.9,16.2 C27.4,17.1 27,17.9 26.6,18.6 C26.2,19.3 26,19.9 25.8,20.3 C25.6,20.7 25.5,21 25.5,21 C25.5,21 25.6,20.7 25.7,20.3 C25.9,19.9 26,19.2 26.3,18.5 C26.6,17.8 27,16.9 27.4,16 C27.9,15.1 28.4,14.2 28.9,13.3 C29.5,12.4 30.1,11.5 30.8,10.8 C31.4,10 32.1,9.4 32.7,8.8 C33.9,7.6 34.8,7 34.8,7 Z" fill="#3B2B78"/>
            <path d="M52.4,9.4 C52.4,9.4 53,11.4 53.8,14.4 C54.2,15.9 54.6,17.7 55.1,19.6 C55.5,21.5 55.9,23.5 56.3,25.6 C56.7,27.6 57,29.7 57.3,31.6 C57.4,32.6 57.6,33.5 57.6,34.4 C57.7,35.3 57.8,36.1 57.8,36.9 C57.9,38.5 58,39.7 58,40.7 C58,41.6 58,42.1 58,42.1 C58,42.1 57.9,41.6 57.8,40.7 C57.7,39.8 57.5,38.5 57.4,37 C57.3,36.2 57.2,35.4 57.1,34.5 C57,33.6 56.8,32.7 56.7,31.7 C56.4,29.8 56,27.7 55.7,25.7 C55.3,23.7 54.9,21.6 54.6,19.7 C54.2,17.8 53.8,16 53.5,14.5 C52.8,11.4 52.4,9.4 52.4,9.4 Z" fill="#3B2B78"/>
            <path d="M49.1,9 C49.1,9 49.3,10.3 49.5,12.2 C49.6,13.2 49.7,14.3 49.8,15.5 C49.9,16.7 50,18 50.1,19.2 C50.2,20.5 50.3,21.8 50.3,23 C50.4,24.2 50.4,25.3 50.4,26.3 C50.5,28.2 50.5,29.5 50.5,29.5 C50.5,29.5 50.3,28.2 50.1,26.3 C50,25.3 49.9,24.2 49.8,23 C49.7,21.8 49.6,20.5 49.5,19.3 C49.4,18 49.3,16.7 49.3,15.5 C49.2,14.3 49.2,13.2 49.2,12.2 C49.1,10.2 49.1,9 49.1,9 Z" fill="#3B2B78"/>
          </g>
          <path d="M87.3,93.8 C87.3,93.8 86.1,94.6 84,95.9 C81.9,97.1 78.7,98.8 74.8,100.4 C72.8,101.2 70.7,102 68.3,102.7 C66,103.4 63.5,104.1 60.9,104.7 C58.3,105.3 55.6,105.7 52.8,106.1 C50,106.4 47.2,106.7 44.3,106.7 C42.9,106.7 41.5,106.7 40,106.7 C38.6,106.7 37.2,106.6 35.8,106.5 C33,106.3 30.3,105.9 27.7,105.5 C26.4,105.3 25.1,105 23.9,104.7 C22.6,104.4 21.4,104.1 20.3,103.8 C17.9,103.2 15.8,102.4 13.7,101.8 C11.7,101 9.9,100.4 8.3,99.6 C6.7,98.9 5.3,98.3 4.2,97.7 C2,96.6 0.7,95.9 0.7,95.9 C0.7,95.9 2,96.5 4.2,97.6 C5.3,98.2 6.7,98.7 8.3,99.4 C8.7,99.6 9.1,99.7 9.5,99.9 C9.9,100.1 10.4,100.2 10.8,100.4 C11.7,100.7 12.7,101.1 13.7,101.4 C15.7,102 17.9,102.8 20.3,103.3 C21.5,103.6 22.7,103.9 23.9,104.2 C25.1,104.4 26.4,104.8 27.7,104.9 C30.3,105.4 33,105.7 35.8,105.9 C37.2,106 38.6,106.1 40,106.1 C40.7,106.1 41.4,106.1 42.1,106.1 L44.2,106.1 C47,106.1 49.8,105.8 52.6,105.5 C55.4,105.1 58.1,104.7 60.6,104.1 C63.2,103.5 65.7,102.9 68,102.2 C70.3,101.5 72.5,100.7 74.5,100 C76.5,99.2 78.3,98.5 79.8,97.7 C81.4,97 82.7,96.3 83.8,95.7 C86.1,94.6 87.3,93.8 87.3,93.8 Z" id="Shape" fill="#3B2B78"/>
        </g>
        <path d="M60.9,69.8 C60.9,69.8 61.6,67.2 50.8,67.1 C40,67.1 34.8,69.5 33.1,71.5 C33.1,71.5 34.9,39 48.8,44.6 C62.7,50.2 60.9,69.8 60.9,69.8 Z" id="Shape" fill="#211910"/>
        <g id="Group" transform="translate(25.000000, 60.000000)">
          <path d="M15.3,1 C15.3,1 17.3,9.7 15.4,11.9 C13.4,14.1 5.6,17.8 5.6,17.8 C5.6,17.8 15.7,33.1 26.2,26.1 C36.7,19.1 30.9,15 30.9,15 C30.9,15 24.8,14 25.7,6.8 C25.7,6.8 20.8,-3 15.3,1 Z" id="Shape" fill="#FFE9B8"/>
          <g transform="translate(0.000000, 10.000000)">
            <path d="M26.1,1.1 C26.2,2.6 23,3.4 20.2,3.2 C17.4,2.9 15.6,1.6 16.1,0.2 C16.1,0.2 11.2,5.7 4.2,7.1 C-2.7,8.5 1.7,20.8 5,25.8 C8.4,30.8 6,44 9.5,47.7 C10.7,49 11.8,48.5 11.8,48.5 C11.8,48.5 12.8,49.5 15.1,49.7 C19.5,50.1 19.9,48.7 22.5,49.7 C26.9,51.3 29.2,49.9 29.2,49.9 C29.2,49.9 31.8,50.1 32.8,48.9 C33.1,48.5 33.7,48.2 33.7,48.2 C33.7,48.2 34.6,48.2 35.4,46.8 C36.8,44.4 35.2,37.3 34.9,30.3 C34.7,25.6 34.2,21.3 35,18.9 C36.6,13.5 36.3,5.8 33.4,5.4 C29.1,4.7 26.1,1.1 26.1,1.1 Z" id="Shape" fill="#714FAB"/>
            <path d="M7.8,41 C7.8,41 7.8,41.6 7.9,42.5 C7.9,42.9 8,43.4 8.1,44 C8.2,44.5 8.3,45.1 8.5,45.6 C8.6,45.9 8.7,46.1 8.8,46.4 C8.9,46.7 9.1,46.9 9.2,47.1 C9.4,47.3 9.5,47.5 9.7,47.7 C9.9,47.8 10.1,48 10.2,48.1 C10.4,48.2 10.6,48.3 10.7,48.3 C10.9,48.4 11,48.4 11.1,48.4 C11.4,48.5 11.5,48.5 11.5,48.5 C11.5,48.5 11.4,48.5 11.1,48.5 C11,48.5 10.8,48.5 10.6,48.5 C10.4,48.5 10.2,48.4 10,48.3 C9.8,48.2 9.6,48.1 9.3,47.9 C9.1,47.7 8.9,47.5 8.7,47.3 C8.5,47.1 8.3,46.8 8.2,46.6 C8.1,46.3 7.9,46 7.8,45.8 C7.6,45.2 7.5,44.6 7.4,44.1 C7.3,43.5 7.3,43 7.4,42.6 C7.6,41.6 7.8,41 7.8,41 Z" id="Shape" fill="#3B2B78"/>
            <path d="M33.6,48.1 C33.6,48.1 33.7,48.1 33.9,48.1 C34.1,48.1 34.4,48 34.8,47.8 C35.1,47.6 35.5,47.2 35.7,46.7 C35.9,46.2 36.1,45.6 36.1,44.9 C36.3,43.6 36.1,42 35.9,40.3 C35.8,39.5 35.7,38.6 35.6,37.7 C35.5,36.8 35.4,35.9 35.3,35 C35.2,33.2 35,31.4 34.9,29.6 C34.8,27.9 34.8,26.3 34.7,24.9 C34.7,23.5 34.7,22.4 34.7,21.6 C34.7,20.8 34.8,20.3 34.8,20.3 C34.8,20.3 34.8,20.8 34.8,21.6 C34.8,22.4 34.9,23.5 35,24.9 C35.1,26.3 35.2,27.9 35.4,29.6 C35.5,31.3 35.7,33.1 35.9,34.9 C36,35.8 36.1,36.7 36.2,37.6 C36.3,38.5 36.4,39.4 36.5,40.2 C36.7,41.9 36.7,43.5 36.5,44.9 C36.4,45.6 36.2,46.2 35.9,46.7 C35.6,47.2 35.3,47.6 34.9,47.8 C34.5,48 34.2,48 34,48 C33.7,48.1 33.6,48.1 33.6,48.1 Z" id="Shape" fill="#3B2B78"/>
            <path d="M34.3,47 C34.3,47 34.3,47.1 34.2,47.3 C34.1,47.5 34.1,47.7 33.9,48 C33.6,48.5 33.1,49.2 32.4,49.5 C32,49.7 31.7,49.8 31.3,49.9 C30.9,50 30.6,50 30.3,49.9 C30,49.9 29.8,49.8 29.6,49.8 C29.4,49.8 29.3,49.7 29.3,49.7 C29.3,49.7 29.4,49.7 29.6,49.7 C29.8,49.7 30,49.7 30.3,49.6 C30.6,49.6 30.9,49.5 31.2,49.4 C31.5,49.3 31.9,49.2 32.2,49 C32.5,48.8 32.8,48.6 33.1,48.4 C33.4,48.2 33.6,48 33.8,47.8 C34.1,47.4 34.3,47 34.3,47 Z" id="Shape" fill="#3B2B78"/>
            <path d="M32.2,46.2 C32.2,46.2 32.1,46.6 31.8,47.2 C31.5,47.8 31,48.6 30.1,49.4 C29.2,50.2 27.9,50.7 26.4,50.7 C25.7,50.7 24.9,50.6 24.2,50.3 C23.5,50.1 22.8,49.8 22.1,49.7 C21.4,49.6 20.7,49.6 20,49.7 C19.7,49.8 19.3,49.9 18.9,49.9 C18.5,50 18.1,50 17.8,50 C16.4,50 15,50 13.9,49.6 C13.3,49.4 12.8,49.2 12.5,48.9 C12.1,48.6 11.9,48.2 11.8,47.9 C11.6,47.3 11.7,46.9 11.7,46.9 C11.7,46.9 11.7,47 11.7,47.2 C11.7,47.4 11.8,47.6 11.9,47.9 C12,48.2 12.3,48.5 12.7,48.7 C13.1,48.9 13.5,49.1 14.1,49.3 C15.2,49.5 16.5,49.5 17.9,49.5 C18.3,49.5 18.6,49.5 18.9,49.4 C19.2,49.3 19.6,49.2 20,49.1 C20.8,48.9 21.6,49 22.4,49.1 C23.2,49.2 23.9,49.5 24.6,49.7 C25.3,49.9 26,50.1 26.7,50.1 C28.1,50.2 29.3,49.7 30.2,49 C31.1,48.3 31.7,47.6 32,47 C32.1,46.5 32.2,46.2 32.2,46.2 Z" id="Shape" fill="#3B2B78"/>
            <path d="M16.1,0.2 C16.1,0.2 16.1,0.4 16.2,0.6 C16.2,0.9 16.4,1.2 16.7,1.6 C16.8,1.8 17,1.9 17.2,2.1 C17.4,2.3 17.6,2.3 17.9,2.5 C18.2,2.6 18.4,2.7 18.7,2.8 C19,2.8 19.3,2.9 19.6,2.9 C20.2,3 20.8,3 21.4,3 C22,3 22.5,3 23,3 C23.9,2.9 24.6,2.9 24.6,2.9 C24.6,2.9 24,3.1 23.1,3.3 C22.9,3.3 22.6,3.4 22.3,3.4 C22,3.4 21.7,3.5 21.4,3.5 C20.8,3.5 20.2,3.5 19.5,3.5 C19.2,3.5 18.9,3.4 18.5,3.3 C18.2,3.2 17.9,3.1 17.6,3 C17.3,2.9 17.1,2.7 16.9,2.5 C16.7,2.3 16.5,2.1 16.4,1.9 C16,1.3 16,0.9 16,0.6 C16,0.3 16.1,0.2 16.1,0.2 Z" id="Shape" fill="#3B2B78"/>
            <path d="M22.5,2.9 C22.5,2.9 22.7,3.8 23,5 C23.3,6.3 23.6,8 23.8,9.8 C24,11.5 24.2,13.3 24.3,14.6 C24.3,15.3 24.3,15.8 24.3,16.2 C24.3,16.6 24.3,16.8 24.3,16.8 C24.3,16.8 24.3,16.6 24.2,16.2 C24.1,15.8 24,15.3 23.9,14.6 C23.7,13.3 23.4,11.6 23.2,9.8 C23,8.1 22.8,6.3 22.7,5 C22.5,3.8 22.5,2.9 22.5,2.9 Z" id="Shape" fill="#3B2B78"/>
            <path d="M14.4,1.8 C14.4,1.8 14.1,2.2 13.5,2.8 C13.2,3.1 12.9,3.4 12.5,3.7 C12.1,4 11.7,4.3 11.3,4.6 C10.9,4.9 10.4,5.2 10,5.4 C9.6,5.6 9.1,5.8 8.7,5.9 C7.9,6.1 7.4,6.2 7.4,6.2 C7.4,6.2 7.5,6.1 7.7,6 C7.9,5.9 8.2,5.8 8.5,5.6 C8.8,5.4 9.2,5.2 9.6,4.9 C10,4.6 10.4,4.4 10.9,4.1 C11.8,3.5 12.6,2.9 13.2,2.5 C14,2 14.4,1.8 14.4,1.8 Z" id="Shape" fill="#3B2B78"/>
            <path d="M26.1,1.1 C26.1,1.1 26.4,1.3 26.9,1.6 C27.4,1.9 28,2.4 28.6,2.8 C28.9,3 29.2,3.2 29.5,3.4 C29.8,3.6 30,3.8 30.3,3.9 C30.5,4 30.7,4.2 30.9,4.3 C31,4.4 31.1,4.4 31.1,4.4 C31.1,4.4 30.7,4.4 30.1,4.2 C29.8,4.1 29.5,4 29.2,3.8 C28.9,3.6 28.6,3.4 28.2,3.2 C27.9,3 27.6,2.7 27.3,2.5 C27,2.3 26.8,2 26.6,1.8 C26.3,1.5 26.1,1.1 26.1,1.1 Z" id="Shape" fill="#3B2B78"/>
            <circle id="Oval" fill="#9EA69A" transform="translate(24.100554, 5.400869) rotate(-0.272764) translate(-24.100554, -5.400869) " cx="24.1005541" cy="5.40086941" r="1"/>
            <circle id="Oval" fill="#9EA69A" transform="translate(24.900577, 9.900861) rotate(-0.272764) translate(-24.900577, -9.900861) " cx="24.9005771" cy="9.90086087" r="1"/>
            <circle id="Oval" fill="#9EA69A" transform="translate(25.300568, 13.700957) rotate(-0.272764) translate(-25.300568, -13.700957) " cx="25.3005676" cy="13.7009566" r="1"/>
          </g>
        </g>
        <g id="Group" transform="translate(1.000000, 76.000000)">
          <g transform="translate(12.000000, 57.000000)" id="Shape">
            <g>
              <path d="M13.2,2.2 C13.2,2.2 14.1,4.9 11.9,8.8 C10.4,11.4 10,13.9 9.1,13.6 C7.5,13 10,9 10,9 C10,9 6.8,12 6.5,13.7 C6.3,15 4.9,16.7 4.3,16.5 C3.7,16.4 4.6,13.5 5.2,11.6 C5.2,11.6 4.2,13.7 3.4,14.8 C2.6,16 1.9,16.1 2,14.4 C2,14.4 -0.1,15.7 1.5,11.3 C1.5,11.3 0.5,11.1 1.5,8.9 C2.8,6.7 9.1,-4.2 13.2,2.2 Z" fill="#FFE9B8"/>
              <path d="M4.3,15.9 C4.3,15.9 4.2,15.4 4.3,14.6 C4.4,14.2 4.4,13.8 4.6,13.3 C4.7,12.8 4.9,12.4 5.1,11.9 C5.3,11.4 5.6,11 5.8,10.6 C6.1,10.2 6.3,9.9 6.6,9.6 C6.8,9.3 7.1,9.1 7.2,8.9 C7.4,8.7 7.4,8.7 7.4,8.7 C7.4,8.7 7.3,8.8 7.2,9 C7.1,9.2 6.9,9.5 6.8,9.8 C6.6,10.1 6.4,10.5 6.2,10.9 C6,11.3 5.8,11.7 5.6,12.2 C5.4,12.6 5.2,13.1 5,13.5 C4.8,13.9 4.7,14.3 4.6,14.7 C4.3,15.4 4.3,15.9 4.3,15.9 Z" fill="#BD875F"/>
              <path d="M2.2,14.4 C2.2,14.4 2.1,13.9 2.3,13.2 C2.4,12.9 2.5,12.4 2.6,12 C2.7,11.6 2.9,11.1 3.1,10.7 C3.5,9.9 4.1,9.1 4.6,8.5 C4.8,8.2 5.1,8 5.2,7.9 C5.3,7.8 5.4,7.7 5.4,7.7 C5.4,7.7 5.3,7.8 5.2,8 C5.1,8.2 5,8.4 4.8,8.7 C4.6,9 4.4,9.4 4.2,9.7 C4,10.1 3.8,10.5 3.6,10.9 C3.2,11.7 2.8,12.5 2.5,13.2 C2.3,14 2.2,14.4 2.2,14.4 Z" fill="#BD875F"/>
              <path d="M1.7,11.4 C1.7,11.4 1.8,11 1.9,10.5 C2,10.3 2.1,9.9 2.2,9.6 C2.3,9.3 2.5,9 2.6,8.7 C2.9,8.1 3.4,7.5 3.7,7.1 C4.1,6.7 4.4,6.5 4.4,6.5 C4.4,6.5 4.2,6.8 4,7.3 C3.9,7.5 3.8,7.8 3.6,8.1 C3.4,8.4 3.3,8.7 3.1,9 C2.8,9.6 2.4,10.2 2.1,10.7 C1.9,11.1 1.7,11.4 1.7,11.4 Z" fill="#BD875F"/>
            </g>
            <path d="M13.3,3.2 C13.3,3.2 13.4,3.3 13.5,3.4 C13.6,3.6 13.6,3.8 13.7,4.1 C13.7,4.7 13.6,5.4 13.4,6.1 C13.3,6.5 13.1,6.8 13,7.1 C12.9,7.4 12.7,7.7 12.5,7.9 C12.2,8.4 12,8.7 12,8.7 C12,8.7 12.1,8.3 12.2,7.8 C12.4,7.3 12.6,6.6 12.8,5.9 C12.9,5.6 13,5.2 13.1,4.9 C13.2,4.6 13.3,4.3 13.3,4 C13.3,3.7 13.4,3.5 13.4,3.4 C13.4,3.3 13.3,3.2 13.3,3.2 Z" fill="#BD875F"/>
          </g>
          <g transform="translate(0.000000, 28.000000)" id="Shape">
            <g>
              <path d="M6.3,0.6 C10.1,3.3 14.8,12.5 17.8,18.9 C19.8,23 23.8,30.1 23.8,30.1 C23.5,32.1 21.4,33.8 18.7,31.5 C18.7,31.5 17.5,30 12.7,24.6 C7.6,18.7 0.4,7.3 0.7,4.4 C1.2,0.9 4.5,-0.7 6.3,0.6 Z" fill="#714FAB"/>
              <path d="M8.5,2.7 C8.5,2.7 9.4,3.7 10.6,5.4 C11.2,6.2 11.9,7.2 12.6,8.3 C13.3,9.4 14,10.6 14.7,11.8 C15.4,13 16,14.2 16.6,15.4 C16.9,16 17.1,16.6 17.4,17.1 C17.6,17.6 17.9,18.2 18.1,18.6 C18.5,19.5 18.8,20.4 19,20.9 C19.2,21.5 19.3,21.8 19.3,21.8 C19.3,21.8 18.7,20.6 17.8,18.7 C17.4,17.8 16.8,16.7 16.2,15.6 C15.6,14.5 15,13.3 14.3,12.1 C13.6,10.9 13,9.7 12.3,8.6 C11.6,7.5 11,6.5 10.5,5.6 C9.3,3.8 8.5,2.7 8.5,2.7 Z" fill="#3B2B78"/>
            </g>
            <path d="M19.8,32.5 C19.8,32.5 19.5,32.2 18.9,31.6 C18.3,31 17.5,30.2 16.5,29.2 C15.5,28.2 14.5,27 13.3,25.7 C12.2,24.4 11,22.9 9.9,21.4 C8.8,19.9 7.7,18.4 6.8,16.9 C6.3,16.2 5.9,15.5 5.5,14.8 C5.1,14.1 4.7,13.5 4.4,12.9 C3.7,11.7 3.2,10.7 2.8,9.9 C2.4,9.2 2.2,8.8 2.2,8.8 C2.2,8.8 2.4,9.2 2.9,9.9 C3.1,10.2 3.4,10.7 3.6,11.2 C3.9,11.7 4.2,12.2 4.6,12.8 C5.3,14 6.2,15.3 7.2,16.8 C8.2,18.2 9.2,19.7 10.4,21.2 C11.5,22.7 12.6,24.1 13.7,25.5 C14.8,26.8 15.8,28.1 16.7,29.2 C18.5,31.1 19.8,32.5 19.8,32.5 Z" fill="#3B2B78"/>
          </g>
          <g id="Shape">
            <path d="M25.9,16.8 C28.6,13.5 38.4,-1.2 27,1 C16,3.1 -4.4,33.4 2,34.9 C8.5,36.4 19.9,24.2 25.9,16.8 Z" fill="#714FAB"/>
            <path d="M29.6,11.4 C29.6,11.4 28.9,12.6 27.8,14.3 C27.2,15.1 26.6,16.1 25.8,17.1 C25,18.1 24.2,19.2 23.3,20.2 C22.4,21.2 21.5,22.2 20.6,23.2 C19.7,24.1 18.9,24.9 18.1,25.6 C17.4,26.3 16.7,26.8 16.3,27.2 C15.8,27.6 15.6,27.8 15.6,27.8 C15.6,27.8 15.8,27.6 16.2,27.1 C16.6,26.7 17.2,26.1 17.9,25.3 C18.6,24.6 19.4,23.7 20.2,22.7 C21,21.8 21.9,20.7 22.8,19.7 C23.7,18.7 24.5,17.6 25.3,16.7 C26.1,15.7 26.8,14.8 27.4,14 C28.8,12.4 29.6,11.4 29.6,11.4 Z" fill="#3B2B78"/>
            <path d="M31.6,1.5 C31.6,1.5 31.5,1.4 31.3,1.3 C31.1,1.2 30.7,1 30.3,0.9 C29.8,0.8 29.3,0.7 28.6,0.8 C28.3,0.8 27.9,0.9 27.6,1 C27.2,1 26.9,1.2 26.5,1.3 C25.7,1.5 25,2 24.1,2.3 C23.7,2.5 23.3,2.8 22.9,3.1 C22.7,3.2 22.5,3.4 22.3,3.5 C22.1,3.7 21.9,3.8 21.7,4 C20.9,4.6 20.1,5.2 19.3,6 C18.5,6.7 17.7,7.4 17,8.2 C16.2,9 15.4,9.7 14.8,10.5 C14.1,11.3 13.4,12.1 12.7,12.9 C12.1,13.7 11.4,14.5 10.8,15.2 C10.2,15.9 9.6,16.6 9.1,17.3 C7.1,19.9 5.8,21.6 5.8,21.6 C5.8,21.6 7,19.8 8.8,17.1 C9.3,16.4 9.8,15.7 10.4,15 C11,14.3 11.5,13.4 12.2,12.7 C12.9,11.9 13.6,11.1 14.3,10.3 C15,9.5 15.8,8.7 16.5,7.9 C17.2,7.1 18.1,6.4 18.9,5.7 C19.7,5 20.6,4.3 21.4,3.7 C21.6,3.5 21.8,3.4 22,3.2 C22.2,3.1 22.4,2.9 22.6,2.8 C23,2.5 23.4,2.3 23.9,2.1 C24.8,1.7 25.6,1.3 26.4,1.1 C26.8,1 27.2,0.9 27.6,0.8 C28,0.8 28.3,0.7 28.7,0.7 C29.4,0.7 30,0.8 30.4,0.9 C30.9,1 31.2,1.2 31.4,1.4 C31.5,1.4 31.6,1.5 31.6,1.5 Z" fill="#3B2B78"/>
          </g>
        </g>
        <g id="Group" transform="translate(2.000000, 67.000000)">
          <g>
            <path d="M33.7,0.5 C33.7,0.5 37.4,0.9 43.9,4.5 L46.8,13.9 C46.8,13.9 34.7,39.4 28.6,56.1 C28.6,56.1 3.6,47.7 0.3,37.5 C0.3,37.5 8,12.7 33.9,6.9 L33.7,0.5 Z" id="Shape" fill="#122F42"/>
            <path d="M55,0.8 C55,0.8 53,1 47.9,4.7 L46.6,14.3 C46.6,14.3 53.1,40.1 54.9,60.2 C54.9,60.2 71.7,59.7 76.1,53 C76.1,53 73.8,11.6 54.4,7.2 L55,0.8 Z" id="Shape" fill="#122F42"/>
            <g transform="translate(43.000000, 13.000000)">
              <path d="M6.2,2.5 C6.1,2.6 5.9,2.7 5.7,2.7 C5.5,2.8 5.4,2.8 5.2,2.8 C4.9,2.9 4.5,2.9 4.2,3 C3.5,3.1 2.8,3.1 2.1,3 C1.8,2.9 1.4,2.8 1.1,2.6 C0.9,2.5 0.8,2.4 0.7,2.2 C0.6,2.1 0.5,1.9 0.4,1.7 C0.4,1.5 0.4,1.2 0.5,1 C0.6,0.8 0.8,0.7 0.9,0.6 C1.2,0.4 1.6,0.3 1.9,0.2 L2.2,0.2 L2.2,0.3 L2.3,0.4 L2.4,0.5 C2.5,0.6 2.6,0.6 2.7,0.7 C2.9,0.8 3.2,0.8 3.5,0.8 C3.8,0.8 4,0.7 4.3,0.6 C4.5,0.5 4.8,0.4 5,0.2 L5.1,0.1 L5.3,0.2 C5.6,0.5 5.9,0.8 6.2,1.1 C6.3,1.3 6.4,1.5 6.5,1.7 C6.6,2 6.4,2.4 6.2,2.5 Z M5.9,2.2 C6,2.1 6,2 6,1.9 C6,1.8 5.9,1.6 5.8,1.5 C5.6,1.2 5.3,1 5,0.7 L5.3,0.7 C4.7,0.9 4.2,1.1 3.6,1.1 C3.3,1.1 3,1.1 2.7,1.1 C2.5,1.1 2.4,1 2.2,1 C2.1,1 2.1,0.9 2,0.9 C1.9,0.9 1.9,0.8 1.8,0.7 L2.1,0.8 C1.8,0.9 1.5,0.9 1.2,1.1 C0.9,1.2 0.8,1.4 0.8,1.7 C0.8,1.8 0.9,1.9 1,2.1 C1.1,2.2 1.2,2.3 1.3,2.4 C1.6,2.6 1.9,2.7 2.2,2.8 C2.8,2.9 3.5,2.9 4.2,2.9 C4.5,2.9 4.9,2.8 5.2,2.7 C5.4,2.7 5.5,2.6 5.7,2.5 C5.7,2.3 5.8,2.2 5.9,2.2 Z" id="Shape" fill="#141B30"/>
              <g transform="translate(4.000000, 0.000000)">
                <circle id="Oval" fill="#B5AEC4" transform="translate(1.600642, 1.300928) rotate(-0.272764) translate(-1.600642, -1.300928) " cx="1.60064198" cy="1.30092841" r="1.2000136"/>
                <path d="M2.3,1.8 C2.3,1.8 2.3,1.7 2.3,1.4 C2.3,1.2 2.3,0.9 2.1,0.7 C2,0.6 1.9,0.5 1.8,0.5 C1.7,0.5 1.6,0.4 1.5,0.4 C1.3,0.4 1.1,0.4 1.1,0.4 C1.1,0.4 1.2,0.4 1.5,0.3 C1.7,0.3 2.1,0.3 2.3,0.6 C2.5,0.9 2.5,1.2 2.4,1.4 C2.4,1.7 2.3,1.8 2.3,1.8 Z" id="Shape" fill="#FFFFFF"/>
                <path d="M0.7,0.8 C0.7,0.8 0.7,0.9 0.7,1.2 C0.7,1.4 0.7,1.7 0.9,1.9 C1,2 1.1,2.1 1.2,2.1 C1.3,2.1 1.4,2.2 1.5,2.2 C1.7,2.2 1.9,2.2 1.9,2.2 C1.9,2.2 1.8,2.2 1.5,2.3 C1.3,2.3 0.9,2.3 0.7,2 C0.5,1.7 0.5,1.4 0.6,1.2 C0.7,0.9 0.7,0.8 0.7,0.8 Z" id="Shape" fill="#FFFFFF"/>
              </g>
              <g>
                <circle id="Oval" fill="#B5AEC4" transform="translate(1.300542, 1.300899) rotate(-0.272764) translate(-1.300542, -1.300899) " cx="1.30054198" cy="1.30089926" r="1.2000136"/>
                <path d="M2,1.8 C2,1.8 2,1.7 2,1.4 C2,1.2 2,0.9 1.8,0.7 C1.7,0.6 1.6,0.5 1.5,0.5 C1.4,0.5 1.3,0.4 1.2,0.4 C1,0.4 0.8,0.4 0.8,0.4 C0.8,0.4 0.9,0.4 1.2,0.3 C1.4,0.3 1.8,0.3 2,0.6 C2.2,0.9 2.2,1.2 2.1,1.4 C2.1,1.7 2,1.8 2,1.8 Z" id="Shape" fill="#FFFFFF"/>
                <path d="M0.5,0.8 C0.5,0.8 0.5,0.9 0.5,1.2 C0.5,1.4 0.5,1.7 0.7,1.9 C0.8,2 0.9,2.1 1,2.1 C1.1,2.1 1.2,2.2 1.3,2.2 C1.5,2.2 1.7,2.2 1.7,2.2 C1.7,2.2 1.6,2.2 1.3,2.3 C1.1,2.3 0.7,2.3 0.5,2 C0.3,1.7 0.3,1.4 0.4,1.2 C0.4,0.9 0.5,0.8 0.5,0.8 Z" id="Shape" fill="#FFFFFF"/>
              </g>
            </g>
          </g>
          <path d="M33.6,7.1 C33.6,7.1 32.9,7.2 31.6,7.6 C31,7.8 30.2,8 29.4,8.3 C29,8.5 28.5,8.6 28.1,8.8 C27.6,9 27.2,9.2 26.7,9.4 C25.7,9.8 24.6,10.4 23.5,11 C22.4,11.7 21.3,12.3 20.1,13.1 C19.5,13.5 18.9,13.9 18.4,14.3 C17.8,14.7 17.3,15.2 16.7,15.6 C16.4,15.8 16.1,16 15.8,16.3 L15,17 L13.4,18.5 C12.4,19.5 11.4,20.6 10.4,21.6 C9.5,22.7 8.6,23.8 7.7,24.9 C6.9,26 6.2,27.1 5.4,28.2 C4.7,29.2 4.1,30.3 3.6,31.2 C3,32.2 2.5,33 2.1,33.8 C1.7,34.6 1.4,35.3 1.1,35.9 C0.5,37.1 0.2,37.7 0.2,37.7 C0.2,37.7 0.5,37 1,35.8 C1.3,35.2 1.6,34.5 1.9,33.7 C2.3,32.9 2.8,32 3.3,31 C3.9,30 4.4,29 5.1,27.9 C5.8,26.8 6.5,25.7 7.3,24.6 C8.2,23.5 9.1,22.4 10,21.3 C11,20.2 12,19.1 13,18.1 L14.7,16.6 L15.5,15.9 C15.8,15.7 16.1,15.5 16.4,15.2 C17,14.8 17.6,14.3 18.1,13.9 C18.7,13.5 19.3,13.1 19.9,12.7 C21,11.9 22.2,11.3 23.3,10.7 C24.4,10.1 25.5,9.6 26.5,9.2 C27,9 27.5,8.8 28,8.6 C28.5,8.4 28.9,8.3 29.4,8.2 C30.3,7.9 31,7.7 31.6,7.6 C32.9,7.1 33.6,7.1 33.6,7.1 Z" id="Shape" fill="#141B30"/>
          <path d="M46.6,14.8 C46.6,14.8 45.4,17.4 43.6,21.2 C42.7,23.1 41.7,25.4 40.6,27.7 C39.5,30.1 38.3,32.7 37.2,35.2 C36,37.8 34.9,40.3 33.9,42.8 C32.9,45.2 31.9,47.5 31.2,49.5 C30.8,50.5 30.5,51.4 30.2,52.2 C29.9,53 29.6,53.7 29.4,54.3 C29,55.5 28.8,56.1 28.8,56.1 C28.8,56.1 29,55.4 29.3,54.2 C29.5,53.6 29.7,52.9 30,52.1 C30.3,51.3 30.5,50.4 30.9,49.4 C31.6,47.4 32.5,45.1 33.5,42.6 C34.5,40.2 35.6,37.6 36.8,35 C38,32.4 39.2,29.9 40.3,27.5 C41.4,25.1 42.6,22.9 43.5,21 C45.2,17.3 46.6,14.8 46.6,14.8 Z" id="Shape" fill="#141B30"/>
          <path d="M54.9,60.2 C54.9,60.2 54.8,59.5 54.7,58.4 C54.5,57.2 54.3,55.6 54,53.6 C53.7,51.6 53.3,49.3 52.9,46.8 C52.5,44.3 52.1,41.7 51.6,39.1 C51.2,36.5 50.7,33.8 50.2,31.4 C49.7,28.9 49.3,26.6 48.9,24.7 C48.5,22.7 48.2,21.1 47.9,20 C47.6,18.9 47.5,18.2 47.5,18.2 C47.5,18.2 47.7,18.8 48,20 C48.3,21.1 48.8,22.7 49.2,24.7 C49.7,26.7 50.2,28.9 50.7,31.4 C51.2,33.9 51.7,36.5 52.1,39.1 C52.5,41.7 53,44.4 53.3,46.9 C53.7,49.4 54,51.7 54.2,53.7 C54.4,55.7 54.6,57.4 54.7,58.5 C54.9,59.5 54.9,60.2 54.9,60.2 Z" id="Shape" fill="#141B30"/>
          <path d="M76.1,53.1 C76.1,53.1 76,52.3 75.9,50.8 C75.8,49.3 75.5,47.3 75.1,44.8 C74.7,42.3 74.2,39.5 73.5,36.4 C73.1,34.9 72.8,33.3 72.3,31.7 C71.9,30.1 71.3,28.5 70.8,27 C70.2,25.4 69.6,23.9 69,22.4 C68.3,20.9 67.6,19.5 66.8,18.2 C66.4,17.5 66,16.9 65.6,16.3 C65.2,15.7 64.8,15.1 64.3,14.5 C63.4,13.4 62.5,12.4 61.6,11.5 C61.2,11.1 60.7,10.7 60.2,10.3 C60,10.1 59.8,9.9 59.6,9.8 C59.4,9.7 59.2,9.5 59,9.4 C58.2,8.8 57.4,8.4 56.7,8.1 C56.1,7.8 55.5,7.6 55.1,7.4 C54.7,7.3 54.5,7.2 54.5,7.2 C54.5,7.2 54.7,7.3 55.1,7.4 C55.5,7.5 56,7.7 56.7,8 C57.4,8.3 58.2,8.7 59,9.2 C59.2,9.3 59.4,9.5 59.7,9.6 C59.9,9.8 60.1,9.9 60.4,10.1 C60.9,10.4 61.4,10.8 61.8,11.2 C62.7,12 63.7,13 64.6,14.1 C65.1,14.7 65.5,15.2 65.9,15.9 C66.4,16.5 66.8,17.2 67.2,17.8 C68,19.1 68.8,20.6 69.5,22.1 C70.2,23.6 70.8,25.2 71.4,26.7 C72,28.3 72.5,29.9 72.9,31.5 C73.3,33.1 73.7,34.7 74.1,36.2 C74.8,39.3 75.2,42.2 75.5,44.6 C75.8,47.1 76,49.2 76.1,50.6 C76,52.2 76.1,53.1 76.1,53.1 Z" id="Shape" fill="#141B30"/>
          <path d="M54.3,8.1 C54.3,8.1 54.1,8.5 53.8,9.1 C53.4,9.7 52.9,10.4 52.2,11 C51.9,11.3 51.5,11.6 51.2,11.8 C50.8,12 50.5,12.2 50.2,12.3 C49.9,12.4 49.6,12.4 49.4,12.5 C49.2,12.5 49.1,12.5 49.1,12.5 C49.1,12.5 49.2,12.5 49.4,12.4 C49.6,12.3 49.8,12.2 50.1,12.1 C50.4,11.9 50.7,11.7 51,11.5 C51.3,11.3 51.6,11 51.9,10.7 C52.5,10.1 53.1,9.5 53.6,9.1 C54,8.4 54.3,8.1 54.3,8.1 Z" id="Shape" fill="#141B30"/>
          <path d="M34.2,8.1 C34.2,8.1 34.5,8.4 35,8.9 C35.5,9.4 36.1,9.9 36.7,10.5 C37,10.8 37.3,11 37.7,11.3 C38,11.5 38.3,11.8 38.6,11.9 C38.9,12 39.1,12.2 39.3,12.2 C39.5,12.3 39.6,12.3 39.6,12.3 C39.6,12.3 39.5,12.3 39.3,12.3 C39.1,12.3 38.8,12.3 38.5,12.2 C38.2,12.1 37.8,11.9 37.5,11.7 C37.1,11.5 36.8,11.2 36.4,10.9 C35.7,10.3 35.2,9.6 34.8,9.1 C34.4,8.5 34.2,8.1 34.2,8.1 Z" id="Shape" fill="#141B30"/>
        </g>
        <g id="Group" transform="translate(13.000000, 0.000000)">
          <path d="M66.6,40.9 C68.2,43.4 43.2,48.7 37.2,48.7 C31.2,48.7 1.9,51.6 0.8,48.7 C0.3,47.4 19.3,36 35,34.8 C50.7,33.6 64.4,37.5 66.6,40.9 Z" id="Shape" fill="#0C252B"/>
          <g>
            <g transform="translate(11.000000, 29.000000)">
              <g>
                <g transform="translate(34.000000, 12.000000)" id="Shape">
                  <path d="M3.6,0.4 C3.4,6 2.7,12.8 5.6,16.9 C8.5,21 8.6,29.2 4.6,29.9 C4.6,29.9 8.6,26.5 5.5,21.1 C5.5,21.1 7.6,31.9 1.4,32.6 C1.4,32.6 5,30.6 2.9,25.3 C-3.2,9.2 3.6,0.4 3.6,0.4 Z" fill="#382A1B"/>
                  <path d="M1.5,32.5 C1.5,32.5 1.8,32.5 2.2,32.3 C2.7,32.2 3.3,31.8 3.8,31.2 C4.3,30.6 4.7,29.7 5,28.8 C5.1,28.3 5.2,27.8 5.3,27.2 C5.4,26.7 5.4,26.1 5.4,25.6 C5.5,24.5 5.4,23.4 5.3,22.4 C5.2,21.4 5,20.4 4.8,19.6 C4.7,19.2 4.6,18.8 4.5,18.5 C4.4,18.2 4.3,17.9 4.2,17.7 C4,17.3 3.9,17 3.9,17 C3.9,17 3.9,17.1 4,17.2 C4.1,17.3 4.2,17.5 4.3,17.7 C4.5,18.1 4.9,18.8 5.1,19.6 C5.4,20.4 5.6,21.4 5.8,22.4 C5.9,23.5 6,24.6 6,25.7 C6,26.3 5.9,26.8 5.8,27.4 C5.7,28 5.6,28.5 5.5,29 C5.2,30 4.7,30.9 4,31.6 C3.4,32.2 2.6,32.5 2.2,32.5 C1.7,32.6 1.5,32.5 1.5,32.5 Z" fill="#241B10"/>
                  <path d="M5.1,29.6 C5.1,29.6 5.4,29.5 5.9,29.1 C6.4,28.7 6.9,28 7.2,27 C7.4,26.5 7.5,26 7.5,25.4 C7.5,24.8 7.5,24.2 7.4,23.6 C7.3,22.3 7.1,20.9 6.6,19.7 C6.2,18.4 5.3,17.3 4.8,16.1 C4.2,14.9 4,13.7 3.7,12.6 C3.5,11.6 3.4,10.7 3.4,10.1 C3.4,9.5 3.4,9.1 3.4,9.1 C3.4,9.1 3.4,9.5 3.5,10.1 C3.6,10.7 3.8,11.6 4,12.6 C4.3,13.6 4.7,14.7 5.2,15.9 C5.7,17.1 6.6,18.2 7.1,19.5 C7.6,20.9 7.8,22.3 7.8,23.6 C7.8,24.2 7.8,24.9 7.8,25.5 C7.7,26.1 7.6,26.7 7.4,27.2 C7,28.2 6.4,28.9 5.9,29.3 C5.5,29.6 5.1,29.6 5.1,29.6 Z" fill="#241B10"/>
                </g>
                <path d="M35.7,8.5 C38.8,13.2 36.3,22.5 36.3,22.5 C36.3,22.5 40.4,31.7 28.2,41.2 C28.2,41.2 20.9,40 16,35.1 C13.1,32.2 12,29.1 10.2,23.3 C4.7,4.8 26.2,-6 35.7,8.5 Z" id="Shape" fill="#FFE9B8"/>
                <ellipse id="Oval" fill="#382A1B" transform="translate(22.500594, 22.000547) rotate(-0.272764) translate(-22.500594, -22.000547) " cx="22.5005939" cy="22.0005471" rx="1" ry="2.1000238"/>
                <ellipse id="Oval" fill="#382A1B" transform="translate(32.500694, 22.000540) rotate(-0.272764) translate(-32.500694, -22.000540) " cx="32.5006939" cy="22.0005405" rx="1" ry="2.1000238"/>
                <path d="M34.9,20.5 C34.9,20.5 33.3,19.1 30.4,21.2 C30.4,21.2 30.9,18.3 32.9,18.5 C34.9,18.7 34.9,20.5 34.9,20.5 Z" id="Shape" fill="#FFC8A6"/>
                <path d="M19.8,20.5 C19.8,20.5 21.3,19.1 24.3,21.2 C24.3,21.2 23.7,18.1 21.8,18.3 C19.9,18.5 19.8,20.5 19.8,20.5 Z" id="Shape" fill="#FFC8A6"/>
                <path d="M29.9,21.6 C29.9,21.6 30.1,21.3 30.5,20.9 C30.7,20.7 31,20.5 31.3,20.3 C31.6,20.1 32,20 32.4,19.9 C32.8,19.8 33.2,19.8 33.6,19.8 C33.8,19.8 34,19.9 34.1,19.9 C34.3,19.9 34.4,20 34.5,20.1 C35,20.4 35.2,20.7 35.3,20.7 C35.3,20.7 35.2,20.7 35.1,20.6 C35,20.5 34.7,20.5 34.5,20.4 C34.2,20.3 33.9,20.3 33.6,20.3 C33.4,20.3 33.3,20.3 33.1,20.3 C32.9,20.3 32.8,20.4 32.6,20.4 C31.9,20.5 31.3,20.9 30.8,21.1 C30.2,21.4 29.9,21.6 29.9,21.6 Z" id="Shape" fill="#382A1B"/>
                <path d="M24.8,21.6 C24.8,21.6 24.5,21.4 24,21.1 C23.5,20.9 22.9,20.5 22.2,20.4 C22,20.4 21.9,20.3 21.7,20.3 C21.5,20.3 21.4,20.3 21.2,20.3 C20.9,20.3 20.6,20.3 20.3,20.4 C20,20.4 19.8,20.5 19.7,20.6 C19.5,20.7 19.5,20.7 19.5,20.7 C19.5,20.7 19.7,20.4 20.2,20.1 C20.3,20 20.5,20 20.6,19.9 C20.8,19.8 20.9,19.8 21.1,19.8 C21.5,19.7 21.9,19.8 22.3,19.8 C22.7,19.9 23,20 23.4,20.2 C23.7,20.4 24,20.6 24.2,20.8 C24.6,21.3 24.8,21.6 24.8,21.6 Z" id="Shape" fill="#382A1B"/>
                <path d="M25.6,19.7 C25.6,19.7 25.2,19.6 24.5,19.4 C23.8,19.2 23,19 22.1,18.8 C21.2,18.6 20.3,18.5 19.6,18.4 C19.3,18.4 19,18.4 18.8,18.4 C18.6,18.4 18.5,18.4 18.5,18.4 C18.5,18.4 18.6,18.4 18.8,18.3 C19,18.2 19.3,18.1 19.6,18.1 C20,18 20.4,18 20.8,18 C21.2,18 21.7,18.1 22.2,18.2 C23.1,18.4 24,18.8 24.6,19.1 C25.2,19.4 25.6,19.7 25.6,19.7 Z" id="Shape" fill="#382A1B"/>
                <path d="M35.9,18.2 C35.9,18.2 35.5,18.3 34.9,18.5 C34.3,18.6 33.6,18.8 32.8,19 C32,19.2 31.3,19.3 30.7,19.4 C30.4,19.5 30.2,19.5 30,19.5 C29.8,19.5 29.7,19.6 29.7,19.6 C29.7,19.6 30,19.3 30.6,19.1 C31.1,18.8 31.9,18.6 32.7,18.4 C33.5,18.2 34.3,18.2 34.9,18.2 C35.5,18.1 35.9,18.2 35.9,18.2 Z" id="Shape" fill="#382A1B"/>
                <path d="M30,30.8 C30,30.8 30.2,30.3 30.3,29.5 C30.3,29.1 30.3,28.7 30.3,28.2 C30.2,27.7 30.1,27.2 29.9,26.7 C29.4,24.6 28.8,22.5 28.8,22.5 C28.8,22.5 29.5,24.5 30.3,26.6 C30.4,26.9 30.5,27.1 30.6,27.4 C30.7,27.6 30.8,27.9 30.8,28.2 C30.9,28.7 30.9,29.3 30.8,29.7 C30.7,30.1 30.5,30.4 30.3,30.6 C30.2,30.7 30,30.8 30,30.8 Z" id="Shape" fill="#A16A51"/>
                <path d="M28.5,30 C28.5,30 28.5,30.1 28.4,30.2 C28.3,30.3 28.3,30.4 28.2,30.5 C28.1,30.6 28,30.6 27.9,30.7 C27.8,30.7 27.7,30.8 27.7,30.8 C27.7,30.8 27.6,30.7 27.6,30.5 C27.6,30.3 27.7,30.1 27.8,30 C27.9,29.9 28.1,29.8 28.3,29.8 C28.4,30 28.5,30 28.5,30 Z" id="Shape" fill="#A16A51"/>
                <path d="M30.8,34.9 C30.8,34.9 30.3,35 29.4,35 C28.6,35 27.5,35 26.4,34.8 C25.3,34.6 24.3,34.3 23.5,34 C22.7,33.7 22.3,33.4 22.3,33.4 C22.3,33.4 22.4,33.4 22.7,33.5 C22.9,33.6 23.3,33.6 23.7,33.7 C24.5,33.9 25.5,34 26.6,34.2 C27.7,34.4 28.7,34.5 29.5,34.6 C30.3,34.8 30.8,34.9 30.8,34.9 Z" id="Shape" fill="#A16A51"/>
                <g id="Shape">
                  <path d="M29.8,6.1 C29.8,6.1 31.7,9.8 30.5,13.7 C30.5,13.7 24.8,13.7 20,15 C20,15 19.4,12.3 19.9,10.3 C19.9,10.3 18.7,13.2 19.2,15.3 C19.2,15.3 17.5,13.7 17.7,10.9 C17.7,10.9 17.2,14.4 18.1,15.8 C18.1,15.8 15.3,16.6 13.7,18 C13.7,18 9.2,44.6 15,46 C15,46 9.9,45.7 10.7,35.7 C10.7,35.7 8.9,44 12.3,46 C12.3,46 7.1,46.7 5,44.1 C3,41.5 4.9,34.3 4.9,34.3 C4.9,34.3 0.8,38.8 3,41.5 C3,41.5 -0.6,39.6 1.9,35.5 C4.1,31.8 4.5,30.8 5,27 C6,18.2 7,9.8 11.1,5.1 C14.9,0.7 21.2,-2.22044605e-16 23.8,0.8 C23.8,0.8 29.9,-1 34.8,4.2 C37,6.5 38.8,10.8 38.3,16 C38.3,16 36.1,14.4 34.1,14.3 C34.1,14.3 34.5,9.8 32.3,7.3 C32.3,7.3 34.3,10.6 32.8,13.8 C32.8,13.8 32.6,11.3 32.1,9.8 C32.1,9.8 32.4,12.9 31.7,13.8 C31.5,13.8 31.4,8.2 29.8,6.1 Z" fill="#382A1B"/>
                  <path d="M15,46 C15,46 14.9,46 14.8,46 C14.7,46 14.5,46 14.3,45.9 C14.1,45.8 13.8,45.7 13.5,45.6 C13.2,45.4 12.9,45.2 12.6,44.9 C12.3,44.6 12,44.3 11.8,43.8 C11.5,43.4 11.4,42.9 11.2,42.5 C11.1,42 10.9,41.5 10.8,41 C10.7,40.5 10.6,40 10.5,39.4 C10.5,38.9 10.4,38.3 10.4,37.8 C10.4,37.3 10.4,36.8 10.4,36.3 C10.4,35.8 10.5,35.3 10.5,34.9 C10.5,34.4 10.6,34 10.6,33.6 C10.8,32 11,31 11,31 C11,31 11,32.1 10.9,33.7 C10.9,34.1 10.9,34.5 10.9,35 C10.9,35.5 10.9,35.9 10.9,36.4 C10.9,36.9 10.9,37.4 11,37.9 C11,38.4 11.1,38.9 11.2,39.5 C11.2,40 11.4,40.5 11.4,41 C11.5,41.5 11.7,42 11.8,42.5 C12,42.9 12.1,43.4 12.3,43.8 C12.5,44.2 12.7,44.5 13,44.8 C13.3,45.1 13.5,45.3 13.8,45.5 C14,45.7 14.3,45.8 14.5,45.9 C14.8,46 15,46 15,46 Z" fill="#241B10"/>
                  <path d="M12.4,46 C12.4,46 12.2,46.1 11.9,46.1 C11.7,46.1 11.5,46.1 11.3,46.1 C11.1,46.1 10.8,46.1 10.5,46 C10.4,46 10.2,45.9 10.1,45.8 C10,45.7 9.8,45.6 9.7,45.6 C9.5,45.5 9.4,45.4 9.3,45.3 C9.1,45.2 9,45.1 8.9,44.9 C8.6,44.6 8.4,44.3 8.2,43.9 C8,43.6 7.9,43.2 7.7,42.8 C7.6,42.4 7.5,42 7.4,41.7 C7.3,41.3 7.3,40.9 7.3,40.6 C7.2,39.9 7.3,39.2 7.3,38.6 C7.4,37.4 7.6,36.7 7.6,36.7 C7.6,36.7 7.7,37.5 7.7,38.6 C7.8,39.2 7.8,39.8 7.9,40.5 C8,40.8 8,41.2 8.1,41.6 C8.2,42 8.3,42.3 8.4,42.7 C8.5,43 8.6,43.4 8.8,43.7 L9.1,44.2 C9.2,44.4 9.3,44.5 9.4,44.6 C9.5,44.7 9.6,44.9 9.7,45 C9.8,45.1 9.9,45.2 10.1,45.3 C10.2,45.4 10.4,45.5 10.5,45.6 C10.6,45.7 10.8,45.7 10.9,45.8 C11.2,45.9 11.4,46 11.6,46 C11.8,46.1 12,46.1 12.2,46.1 C12.2,46 12.4,46 12.4,46 Z" fill="#241B10"/>
                  <path d="M10.9,46 C10.9,46 10.6,46.1 10,46.1 C9.4,46.1 8.6,46.1 7.6,45.9 C7.1,45.8 6.6,45.6 6.1,45.3 C5.6,45 5.1,44.6 4.8,44.1 C4.4,43.6 4.2,42.9 4,42.3 C3.9,41.6 3.8,41 3.8,40.3 C3.9,37.7 4.6,35.1 5.1,33.2 C5.6,31.2 6,30 6,30 C6,30 5.8,31.3 5.4,33.2 C5.2,34.2 5,35.3 4.8,36.5 C4.6,37.7 4.4,39 4.4,40.2 C4.4,40.8 4.4,41.5 4.5,42.1 C4.6,42.7 4.8,43.3 5.2,43.7 C5.5,44.2 5.9,44.6 6.4,44.9 C6.8,45.2 7.3,45.4 7.8,45.6 C8.7,45.9 9.5,46 10.1,46 C10.5,46 10.9,46 10.9,46 Z" fill="#241B10"/>
                  <path d="M23.7,0.8 C23.7,0.8 23.5,0.8 23.1,0.7 C22.7,0.6 22.1,0.6 21.4,0.6 C20,0.6 17.8,0.7 15.6,1.8 C14.5,2.3 13.4,3.1 12.3,4.1 C11.3,5.1 10.3,6.3 9.6,7.6 C8,10.3 7.1,13.5 6.5,16.8 C5.9,20.1 5.7,23.4 5.3,26.5 C5.1,28.1 4.9,29.6 4.5,31 C4.1,32.4 3.6,33.7 2.9,34.7 C2.2,35.7 1.7,36.7 1.4,37.6 C1.1,38.5 1.3,39.4 1.6,40 C1.9,40.6 2.3,41.1 2.6,41.3 C2.9,41.6 3.1,41.7 3.1,41.7 C3.1,41.7 2.9,41.6 2.6,41.4 C2.3,41.2 1.8,40.8 1.4,40.1 C1,39.5 0.7,38.5 1,37.5 C1.2,36.5 1.8,35.4 2.4,34.3 C3.1,33.3 3.7,32.1 4.1,30.7 C4.5,29.4 4.7,27.9 4.9,26.3 C5.3,23.2 5.6,19.9 6.2,16.6 C6.8,13.3 7.7,10.1 9.4,7.4 C10.2,6.1 11.2,4.9 12.2,3.9 C13.2,2.9 14.4,2.2 15.6,1.7 C17.9,0.7 20.1,0.6 21.5,0.6 C22.2,0.6 22.8,0.7 23.2,0.8 C23.5,0.7 23.7,0.8 23.7,0.8 Z" fill="#241B10"/>
                  <path d="M12.1,33.3 C12.1,33.3 12.1,32.9 12.1,32.3 C12.1,31.7 12.1,30.8 12.2,29.7 C12.3,28.6 12.3,27.4 12.5,26.1 C12.6,25.4 12.6,24.8 12.7,24.1 C12.8,23.4 12.8,22.7 13,22 C13.4,19.2 13.8,16.4 14.4,14.4 C14.7,13.4 14.9,12.5 15.1,11.9 C15.3,11.3 15.4,11 15.4,11 C15.4,11 15.2,11.4 15,12 C14.9,12.6 14.7,13.5 14.5,14.5 C14.3,15.5 14.2,16.8 14,18.1 C13.8,19.4 13.6,20.8 13.5,22.2 C13.1,25 12.8,27.8 12.5,29.9 C12.2,31.9 12.1,33.3 12.1,33.3 Z" fill="#241B10"/>
                  <path d="M19.2,15.3 C19.2,15.3 18.7,15 18.2,14.2 C18,13.8 17.7,13.3 17.6,12.8 C17.4,12.3 17.4,11.6 17.4,11 C17.4,10.7 17.4,10.4 17.5,10.1 C17.5,9.8 17.6,9.5 17.7,9.2 C17.8,8.6 18,8.2 18.2,7.7 C18.4,7.3 18.6,7 18.7,6.7 C18.8,6.5 18.9,6.4 18.9,6.4 C18.9,6.4 18.9,6.5 18.8,6.8 C18.7,7.1 18.6,7.4 18.5,7.8 C18.5,8 18.4,8.2 18.3,8.5 C18.3,8.7 18.2,9 18.2,9.3 C18.1,9.6 18.1,9.8 18.1,10.1 C18.1,10.4 18.1,10.7 18.1,10.9 C18.1,11.5 18.1,12 18.2,12.5 C18.3,13 18.5,13.5 18.6,13.9 C18.8,14.8 19.2,15.3 19.2,15.3 Z" fill="#241B10"/>
                  <path d="M20,15 C20,15 19.8,14.6 19.7,13.9 C19.6,13.2 19.5,12.3 19.5,11.3 C19.6,10.4 19.8,9.4 20.1,8.8 C20.2,8.5 20.4,8.2 20.5,8 C20.6,7.8 20.7,7.7 20.7,7.7 C20.7,7.7 20.7,7.8 20.6,8 C20.5,8.2 20.5,8.5 20.4,8.8 C20.3,9.5 20.2,10.4 20.1,11.3 C20,12.2 20,13.1 20,13.8 C20,14.6 20,15 20,15 Z" fill="#241B10"/>
                  <path d="M23.7,1.6 C23.7,1.6 23.4,1.7 23,1.9 C22.6,2.1 22,2.3 21.5,2.7 C21,3 20.5,3.4 20.2,3.7 C19.9,4 19.7,4.3 19.6,4.3 C19.6,4.3 19.6,4.2 19.7,4.1 C19.7,4 19.8,3.8 19.9,3.5 C20,3.3 20.2,3 20.4,2.8 C20.6,2.6 20.9,2.4 21.2,2.2 C21.8,1.8 22.4,1.7 22.9,1.6 C23.3,1.5 23.7,1.6 23.7,1.6 Z" fill="#241B10"/>
                  <path d="M28.3,13.8 C28.3,13.8 28.2,13.2 28.1,12.3 C28,11.4 27.9,10.2 27.8,9 C27.7,7.8 27.5,6.7 27.3,5.8 C27.2,5.4 27.1,5 27,4.8 C26.9,4.6 26.8,4.4 26.8,4.4 C26.8,4.4 26.9,4.5 27.1,4.7 C27.3,4.9 27.5,5.2 27.7,5.7 C27.9,6.1 28.1,6.6 28.2,7.2 C28.4,7.8 28.4,8.4 28.5,9 C28.6,10.2 28.6,11.4 28.6,12.3 C28.4,13.2 28.3,13.8 28.3,13.8 Z" fill="#241B10"/>
                  <path d="M31.5,13.8 C31.5,13.8 31.4,13.2 31.2,12.3 C31,11.4 30.8,10.3 30.6,9.1 C30.3,8 30,6.8 29.7,6.1 C29.6,5.9 29.5,5.7 29.4,5.6 C29.3,5.4 29.2,5.3 29.2,5.2 C29.1,5 29,4.9 29,4.9 C29,4.9 29.1,5 29.3,5.2 C29.4,5.3 29.5,5.4 29.6,5.5 C29.7,5.6 29.9,5.8 30,6 C30.3,6.4 30.5,6.9 30.7,7.4 C30.9,7.9 31.1,8.5 31.2,9.1 C31.5,10.3 31.6,11.5 31.6,12.4 C31.6,13.2 31.5,13.8 31.5,13.8 Z" fill="#241B10"/>
                  <path d="M32.6,13.8 C32.6,13.8 32.8,13.3 32.9,12.5 C32.9,12.1 33,11.6 32.9,11.1 C32.9,10.6 32.8,10.1 32.6,9.5 C32.5,9.2 32.5,9 32.4,8.7 C32.3,8.5 32.2,8.2 32.1,8 C32,7.8 31.9,7.5 31.8,7.3 C31.7,7.1 31.6,6.9 31.5,6.7 C31.3,6.3 31.1,6 31,5.8 C30.9,5.6 30.8,5.5 30.8,5.5 C30.8,5.5 30.9,5.6 31.1,5.8 C31.3,6 31.6,6.2 31.8,6.6 C32.1,6.9 32.4,7.3 32.6,7.8 C32.7,8 32.8,8.3 33,8.6 C33.1,8.9 33.2,9.1 33.3,9.4 C33.4,10 33.5,10.5 33.5,11.1 C33.5,11.6 33.4,12.2 33.3,12.6 C33,13.4 32.6,13.8 32.6,13.8 Z" fill="#241B10"/>
                  <path d="M36.1,14.7 C36.1,14.7 36.2,14.3 36.2,13.7 C36.2,13.1 36.2,12.3 36.1,11.5 C36,10.7 35.8,9.9 35.7,9.3 C35.6,9 35.5,8.7 35.5,8.6 C35.4,8.4 35.4,8.3 35.4,8.3 C35.4,8.3 35.5,8.4 35.6,8.5 C35.7,8.7 35.9,8.9 36,9.1 C36.2,9.4 36.3,9.7 36.5,10.1 C36.6,10.5 36.7,10.9 36.8,11.3 C36.9,12.2 36.8,13 36.6,13.7 C36.3,14.4 36.1,14.7 36.1,14.7 Z" fill="#241B10"/>
                  <path d="M38.2,16 C38.2,16 38.4,14.5 38.1,12.3 C37.9,11.2 37.6,9.9 37.1,8.6 C36.6,7.3 35.8,6 34.8,4.9 C33.9,3.8 32.7,2.7 31.6,2 C30.4,1.3 29.2,0.9 28.1,0.7 C27,0.5 26,0.5 25.4,0.5 C24.7,0.5 24.4,0.5 24.4,0.5 C24.4,0.5 24.8,0.4 25.4,0.3 C26.1,0.2 27,0.1 28.2,0.2 C29.3,0.3 30.7,0.6 32,1.3 C32.6,1.7 33.2,2.1 33.8,2.6 C34.4,3.1 34.9,3.6 35.4,4.2 C36.4,5.4 37.2,6.7 37.7,8.1 C38.2,9.4 38.5,10.8 38.6,11.9 C38.7,13 38.6,14 38.6,14.7 C38.3,15.6 38.2,16 38.2,16 Z" fill="#241B10"/>
                  <path d="M24.8,1.6 C24.8,1.6 25.2,1.4 26,1.3 C26.4,1.3 26.8,1.3 27.3,1.4 C27.8,1.5 28.3,1.6 28.7,1.8 C29.6,2.2 30.5,2.7 31,3.3 C31.3,3.5 31.5,3.8 31.6,3.9 C31.7,4.1 31.8,4.2 31.8,4.2 C31.8,4.2 31.7,4.1 31.5,4 C31.3,3.9 31.1,3.7 30.7,3.6 C30.4,3.4 30,3.2 29.6,3 C29.4,2.9 29.2,2.8 29,2.7 C28.8,2.6 28.6,2.5 28.4,2.4 C27.5,2 26.6,1.8 25.9,1.7 C25.3,1.6 24.8,1.6 24.8,1.6 Z" fill="#241B10"/>
                </g>
              </g>
              <path d="M28.2,41.1 C28.2,41.1 27.2,41 25.8,40.7 C25.1,40.5 24.3,40.3 23.4,40 C22.6,39.7 21.7,39.3 20.8,38.9 C20.4,38.7 19.9,38.4 19.5,38.2 C19.1,37.9 18.7,37.7 18.3,37.4 C17.9,37.1 17.6,36.9 17.3,36.6 C17,36.3 16.7,36.1 16.4,35.8 C15.9,35.3 15.5,34.8 15.3,34.5 C15.1,34.2 15,34 15,34 C15,34 15.2,34.2 15.5,34.5 C15.7,34.6 15.8,34.8 16,35 C16.2,35.2 16.5,35.4 16.7,35.6 C17,35.8 17.3,36.1 17.6,36.3 C17.9,36.5 18.3,36.8 18.7,37 C19.1,37.3 19.5,37.5 19.9,37.7 C20.3,37.9 20.7,38.1 21.1,38.4 C21.9,38.8 22.8,39.2 23.6,39.6 C24.4,39.9 25.2,40.2 25.9,40.5 C27.3,40.9 28.2,41.1 28.2,41.1 Z" id="Shape" fill="#BD875F"/>
            </g>
            <g id="Shape">
              <g transform="translate(19.000000, 0.000000)">
                <path d="M27.2,34 C27.2,34 23.7,20 6.8,0 C6.8,0 0.3,29.1 0.2,38.4 C0.2,38.4 2.8,35.3 12.9,34.1 C16.8,33.6 22.8,32.3 27.2,34 Z" fill="#122F42"/>
                <path d="M0.2,37 C0.2,37 0.2,36.4 0.3,35.4 C0.4,34.4 0.5,32.9 0.7,31.2 C0.9,29.5 1.2,27.4 1.5,25.2 C1.8,23 2.2,20.7 2.6,18.4 C3,16.1 3.5,13.8 3.9,11.6 C4.3,9.4 4.8,7.4 5.2,5.7 C6.1,2.3 6.8,0 6.8,0 C6.8,0 6.3,2.3 5.7,5.8 C5.4,7.5 5,9.5 4.6,11.7 C4.2,13.9 3.8,16.2 3.4,18.5 C3,20.8 2.6,23.1 2.2,25.3 C1.8,27.5 1.5,29.5 1.2,31.2 C0.9,32.9 0.7,34.4 0.6,35.4 C0.3,36.4 0.2,37 0.2,37 Z" fill="#141B30"/>
                <path d="M27,33.2 C27,33.2 26.8,32.6 26.4,31.6 C26,30.6 25.4,29.2 24.6,27.6 C23.8,26 22.9,24.1 21.8,22.1 C21.3,21.1 20.7,20.1 20.1,19 C19.5,18 18.9,16.9 18.2,15.9 C16.9,13.8 15.6,11.8 14.3,10 C13.6,9.1 13,8.2 12.4,7.3 C11.8,6.4 11.2,5.7 10.6,5 C10,4.3 9.5,3.6 9,3 C8.5,2.4 8.1,1.9 7.8,1.5 C7.1,0.7 6.7,0.2 6.7,0.2 C6.7,0.2 7.1,0.6 7.8,1.4 C8.2,1.8 8.6,2.3 9.1,2.8 C9.6,3.3 10.1,4 10.7,4.7 C11.4,5.5 12,6.2 12.7,7 C13.3,7.8 14,8.7 14.7,9.6 C16,11.5 17.4,13.5 18.7,15.5 C19.3,16.5 20,17.6 20.5,18.6 C21.1,19.6 21.7,20.7 22.2,21.7 C23.3,23.7 24.1,25.7 24.9,27.3 C25.6,29 26.1,30.4 26.5,31.4 C26.8,32.6 27,33.2 27,33.2 Z" fill="#141B30"/>
              </g>
              <g transform="translate(19.000000, 30.000000)">
                <path d="M26.9,3.1 C26.9,3.1 18.7,2.9 13.5,3.7 C8.3,4.5 0.2,7 0.2,7 C0.2,7 -0.1,5.9 0.5,4.7 C0.5,4.7 13.2,3.33066907e-15 26.4,1.5 C26.4,1.5 27.2,2.2 26.9,3.1 Z" fill="#63B7CE"/>
                <path d="M26.9,3.1 C26.9,3.1 25.2,3.1 22.7,3.2 C21.4,3.3 20,3.4 18.4,3.5 C16.8,3.6 15.2,3.9 13.5,4.1 C11.8,4.3 10.2,4.6 8.6,4.9 C7.8,5.1 7.1,5.2 6.4,5.4 C5.7,5.5 5,5.7 4.4,5.9 C3.8,6.1 3.2,6.2 2.7,6.3 C2.2,6.4 1.8,6.5 1.4,6.6 C0.7,6.8 0.3,6.9 0.3,6.9 C0.3,6.9 0.7,6.8 1.4,6.5 C2.1,6.3 3.1,5.9 4.3,5.5 C4.9,5.3 5.6,5.1 6.3,4.9 C7,4.7 7.7,4.5 8.5,4.4 C9.3,4.2 10.1,4.1 10.9,3.9 C11.7,3.8 12.6,3.6 13.4,3.5 C15.1,3.3 16.8,3.1 18.4,3 C20,2.9 21.5,2.9 22.7,2.8 C25.2,2.9 26.9,3.1 26.9,3.1 Z" fill="#466D8C"/>
                <path d="M26.4,1.5 C26.4,1.5 24.8,1.4 22.3,1.4 C21.1,1.4 19.6,1.5 18.1,1.5 C16.6,1.6 14.9,1.7 13.3,1.9 C11.7,2.1 10.1,2.3 8.5,2.6 C7.7,2.7 7,2.9 6.3,3 C5.6,3.1 5,3.3 4.4,3.5 C3.8,3.7 3.3,3.8 2.8,3.9 C2.3,4 1.9,4.2 1.6,4.3 C0.9,4.5 0.5,4.6 0.5,4.6 C0.5,4.6 0.9,4.4 1.5,4.2 C2.2,3.9 3.1,3.5 4.3,3.2 C4.9,3 5.5,2.8 6.2,2.6 C6.9,2.4 7.6,2.2 8.4,2.1 C9.9,1.8 11.5,1.5 13.2,1.3 C14.8,1.1 16.5,1 18,0.9 C19.5,0.9 21,0.9 22.2,1 C23.4,1.1 24.5,1.2 25.2,1.3 C26,1.4 26.4,1.5 26.4,1.5 Z" fill="#466D8C"/>
              </g>
              <g transform="translate(0.000000, 32.000000)">
                <g>
                  <path d="M66.6,8.9 C66.6,8.9 63.8,3 35.1,4.6 C32.5,4.7 6.9,10 0.8,16.5 C0.8,16.5 9.6,7 26.8,2.6 C44,-1.8 62.5,3 66.6,8.9 Z" fill="#122F42"/>
                  <path d="M66.7,9.1 C66.7,9.1 66.4,8.7 65.8,8.2 C65.5,7.9 65.1,7.6 64.7,7.3 C64.2,7 63.7,6.6 63.1,6.3 C62.5,5.9 61.9,5.6 61.2,5.2 C60.5,4.9 59.7,4.5 58.9,4.2 C58.1,3.9 57.3,3.6 56.4,3.3 C56,3.2 55.5,3 55.1,2.9 L53.8,2.6 L52.5,2.3 C52.1,2.2 51.6,2.1 51.2,2.1 C50.8,2 50.3,1.9 49.9,1.9 C49.5,1.8 49,1.8 48.6,1.7 C47.7,1.6 46.9,1.5 46.1,1.4 C45.3,1.3 44.6,1.3 43.9,1.2 C42.5,1.1 41.4,1.1 40.6,1 C39.8,1 39.3,0.9 39.3,0.9 C39.3,0.9 39.8,0.9 40.6,0.8 C41.4,0.8 42.6,0.7 43.9,0.7 C44.6,0.7 45.3,0.8 46.1,0.8 C46.9,0.8 47.7,0.9 48.6,1 C49,1 49.5,1.1 49.9,1.1 C50.3,1.2 50.8,1.2 51.2,1.3 C51.6,1.4 52.1,1.5 52.6,1.5 L54,1.8 L55.3,2.1 C55.7,2.2 56.2,2.4 56.6,2.5 C57.5,2.8 58.3,3.1 59.1,3.4 C59.9,3.7 60.7,4.1 61.4,4.5 C62.1,4.9 62.7,5.3 63.3,5.7 C63.9,6.1 64.4,6.5 64.8,6.8 C65.2,7.2 65.6,7.5 65.9,7.8 C66.5,8.7 66.7,9.1 66.7,9.1 Z" fill="#141B30"/>
                  <path d="M26.4,2.8 C26.4,2.8 25.9,2.9 25.2,3.1 C24.4,3.3 23.3,3.6 22,4.1 C21.4,4.3 20.7,4.6 19.9,4.9 C19.2,5.2 18.4,5.5 17.6,5.9 C16.8,6.2 16,6.6 15.2,7 C14.4,7.4 13.6,7.8 12.8,8.3 C12,8.8 11.2,9.2 10.4,9.7 C9.6,10.2 8.9,10.7 8.2,11.1 C7.5,11.6 6.8,12.1 6.2,12.5 C5.5,12.9 5,13.4 4.4,13.8 C3.9,14.2 3.3,14.6 2.9,14.9 C2.5,15.2 2.1,15.6 1.8,15.8 C1.2,16.3 0.8,16.6 0.8,16.6 C0.8,16.6 1.1,16.3 1.7,15.7 C2.3,15.2 3.1,14.3 4.2,13.5 C4.7,13.1 5.3,12.6 5.9,12.1 C6.5,11.6 7.2,11.1 7.9,10.6 C8.6,10.1 9.4,9.6 10.1,9.1 C10.9,8.6 11.7,8.2 12.5,7.7 C13.3,7.3 14.1,6.8 15,6.5 C15.8,6.1 16.6,5.7 17.4,5.4 C18.2,5.1 19,4.8 19.7,4.5 C20.4,4.2 21.2,4 21.8,3.8 C23.1,3.4 24.3,3.2 25,3 C25.9,2.8 26.4,2.8 26.4,2.8 Z" fill="#141B30"/>
                </g>
                <path d="M61.5,6.3 C61.5,6.2 60.7,6 59.2,5.7 C57.7,5.4 55.5,5.1 52.9,4.9 C50.3,4.7 47.3,4.5 44,4.6 C40.7,4.6 37.3,4.9 33.8,5.3 C30.4,5.7 26.9,6.4 23.8,7.2 C20.6,8 17.7,8.8 15.2,9.6 C12.7,10.4 10.7,11.1 9.2,11.7 C7.8,12.3 7,12.6 7,12.6 C7,12.6 7.8,12.2 9.2,11.6 C10.6,11 12.6,10.1 15.1,9.3 C17.6,8.5 20.5,7.6 23.7,6.7 C26.9,5.9 30.3,5.2 33.8,4.7 C37.3,4.3 40.8,4.1 44.1,4.1 C47.4,4.1 50.4,4.3 53,4.6 C55.6,4.9 57.8,5.3 59.2,5.7 C60.7,5.9 61.5,6.2 61.5,6.3 Z" fill="#141B30"/>
              </g>
            </g>
          </g>
        </g>
      </g>
    </g>
  </g>
</svg>