<svg version="1.1" width="144" height="130" viewBox="-1 -1 144 130" xmlns="http://www.w3.org/2000/svg" xmlns:xlink="http://www.w3.org/1999/xlink">
  <!-- Exported by Scratch - http://scratch.mit.edu/ -->
  <g id="ID0.4628783264197409" transform="matrix(1, 0, 0, 1, 0, -0.25)">
    <g id="Page-1">
      <g id="casey-d-[sports,basketball,people,alex-eben-meyer]">
        <path id="Shape" fill="#006482" stroke="none" stroke-width="1" d="M 45.203 70.475 L 29.241 83.071 C 29.241 83.071 29.609 85.939 33.050 87.464 C 36.551 89.026 53.415 90.564 69.958 89.861 C 86.501 89.158 93.731 83.770 93.731 83.770 L 45.203 70.475 Z "/>
        <path id="Shape" fill="#281446" stroke="none" stroke-width="1" d="M 77.308 87.065 L 46.064 87.065 L 42.059 70.690 L 81.314 70.690 L 77.308 87.065 "/>
        <g id="Left-Leg">
          <path id="Shape" fill="#DC785A" stroke="none" stroke-width="1" d="M 21.921 13.369 C 21.738 15.569 21.280 17.737 20.559 19.823 C 18.656 25.291 11.679 32.687 10.866 34.257 C 13.962 35.615 16.938 37.256 20.143 38.323 C 23.980 35.731 27.381 32.304 30.365 28.786 C 31.967 26.912 33.934 23.286 35.268 21.221 C 35.556 20.774 36.021 20.067 36.469 19.272 L 21.921 13.369 Z " transform="matrix(1, 0, 0, 1, 16, 76)"/>
          <path id="Shape" fill="#FAF0E6" stroke="none" stroke-width="1" d="M 11.843 32.013 C 11.843 32.013 13.337 30.239 14.174 29.141 C 15.011 28.043 16.397 26.214 16.397 26.214 L 28.322 31.457 C 27.569 32.561 26.730 33.603 25.810 34.573 C 24.769 35.543 22.971 37.017 22.971 37.017 L 11.843 32.013 Z " transform="matrix(1, 0, 0, 1, 16, 76)"/>
          <path id="Shape" fill="#00A0DC" stroke="none" stroke-width="1" d="M 12.580 30.395 L 4.264 39.269 L 6.519 46.007 L 14.843 48.890 C 15.412 48.112 12.372 47.001 12.372 47.001 L 24.857 35.691 L 12.580 30.395 Z " transform="matrix(1, 0, 0, 1, 16, 76)"/>
          <path id="Oval" fill="#006482" stroke="none" stroke-width="1" d="M 12.712 32.979 C 13.418 32.979 14.058 33.265 14.522 33.727 C 14.985 34.189 15.272 34.827 15.272 35.531 C 15.272 36.235 14.985 36.873 14.522 37.335 C 14.058 37.797 13.418 38.083 12.712 38.083 C 12.006 38.083 11.366 37.797 10.903 37.335 C 10.439 36.873 10.153 36.235 10.153 35.531 C 10.153 34.827 10.439 34.189 10.903 33.727 C 11.366 33.265 12.006 32.979 12.712 32.979 Z " transform="matrix(1, 0, 0, 1, 16, 76)"/>
          <path id="Shape" fill="#FAF0E6" stroke="none" stroke-width="1" d="M 21.252 36.398 C 21.024 36.613 20.791 36.817 20.551 37.017 L 23.139 38.067 L 23.455 37.288 L 21.252 36.398 Z " transform="matrix(1, 0, 0, 1, 16, 76)"/>
          <path id="Shape" fill="#F0E6D2" stroke="none" stroke-width="1" d="M 18.849 38.039 C 18.745 38.143 18.636 38.247 18.516 38.351 L 18.164 38.662 L 21.112 39.860 L 21.428 39.062 L 18.849 38.039 Z " transform="matrix(1, 0, 0, 1, 16, 76)"/>
          <path id="Shape" fill="#FAF0E6" stroke="none" stroke-width="1" d="M 19.570 41.626 L 19.814 41.027 L 16.866 39.828 C 16.638 40.036 16.409 40.228 16.185 40.455 L 19.410 41.761 L 19.570 41.626 Z " transform="matrix(1, 0, 0, 1, 16, 76)"/>
          <path id="Shape" fill="#F0E6D2" stroke="none" stroke-width="1" d="M 17.903 43.063 L 18.072 42.924 L 14.935 41.654 L 14.795 41.793 L 14.274 42.289 L 17.375 43.547 C 17.547 43.383 17.723 43.219 17.903 43.063 Z " transform="matrix(1, 0, 0, 1, 16, 76)"/>
          <path id="Shape" fill="#FAF0E6" stroke="none" stroke-width="1" d="M 12.472 44.162 L 15.476 45.380 C 15.708 45.176 15.929 44.980 16.149 44.749 L 13.013 43.475 C 12.840 43.698 12.648 43.930 12.472 44.162 Z " transform="matrix(1, 0, 0, 1, 16, 76)"/>
          <path id="Shape" fill="#281446" stroke="none" stroke-width="1" d="M 7.593 45.931 C 10.797 42.197 4.280 39.277 4.280 39.277 L 0.074 44.118 L 14.270 49.869 L 14.823 48.890 L 7.593 45.931 Z " transform="matrix(1, 0, 0, 1, 16, 76)"/>
          <path id="Shape" fill="#281446" stroke="none" stroke-width="1" d="M 38.292 21.629 C 38.292 21.629 41.897 12.443 40.603 5.002 L 20.852 0.422 C 19.830 8.809 18.220 19.488 18.220 19.488 L 38.292 21.629 Z " transform="matrix(1, 0, 0, 1, 16, 76)"/>
        </g>
        <g id="Left-Arm">
          <path id="Shape" fill="#DC785A" stroke="none" stroke-width="1" d="M 24.598 23.456 C 22.431 10.699 23.905 6.334 23.232 4.233 C 22.351 1.522 20.865 2.692 20.028 4.657 C 19.435 5.963 18.205 15.863 14.941 11.902 C 13.964 10.703 13.535 8.774 13.411 7.369 C 13.218 5.192 13.996 2.133 12.477 0.351 C 9.405 -0.467 9.886 3.774 9.357 6.190 C 9.073 7.488 9.405 14.677 5.796 14.342 C 2.187 14.006 4.206 4.517 0.929 4.793 C 0.437 4.837 -0.977 22.325 1.202 32.749 C 4.058 46.412 11.216 54.192 15.742 57.679 C 28.652 67.599 39.167 69.380 41.690 70.023 L 45.664 48.481 C 43.020 48.129 37.573 45.809 32.097 40.573 C 27.190 35.876 25.636 29.486 24.598 23.456 Z "/>
          <path id="Shape" fill="#DC5050" stroke="none" stroke-width="1" d="M 24.138 17.381 L 24.594 17.101 C 24.534 15.644 25.896 10.140 28.256 10.560 C 30.310 10.927 28.035 16.906 27.723 18.148 C 27.030 20.916 26.289 23.340 26.585 26.199 C 26.882 29.059 26.533 32.338 24.242 34.271 C 21.951 36.204 13.150 37.011 11.424 28.963 C 9.726 21.031 16.167 13.731 24.138 17.381 Z "/>
        </g>
        <g id="Right-Arm">
          <path id="Shape" fill="#DC5050" stroke="none" stroke-width="1" d="M 35.174 30.962 C 36.692 35.799 35.434 42.744 38.651 44.326 C 39.452 43.926 39.809 43.183 40.069 42.496 C 40.221 40.715 40.253 39.249 39.748 37.540 C 39.825 37.420 39.696 35.567 41.599 35.595 C 43.502 35.623 46.270 35.451 48.216 31.533 C 50.003 27.939 50.219 23.785 47.692 20.391 C 45.468 17.415 41.924 15.526 38.302 16.972 C 35.523 18.078 33.556 19.744 32.458 22.188 C 30.940 25.571 33.660 26.130 35.174 30.962 Z " transform="matrix(1, 0, 0, 1, 75, 45)"/>
          <path id="Shape" fill="#DC785A" stroke="none" stroke-width="1" d="M 67.760 37.820 C 66.478 39.441 62.989 29.716 58.499 32.720 C 55.507 34.716 59.656 38.183 60.578 40.511 C 61.223 42.141 62.873 44.529 61.211 46.103 C 58.294 45.763 54.177 36.050 50.796 37.256 C 47.415 38.463 51.765 44.553 51.813 46.510 C 51.938 51.522 45.288 41.075 44.920 40.384 C 41.619 34.177 30.688 23.522 23.217 22.116 C 15.747 20.710 6.951 24.912 6.951 24.912 L 0.265 2.802 C 4.347 2.702 18.126 -3.712 40.794 6.524 C 59.961 15.183 69.041 36.194 67.760 37.820 Z " transform="matrix(1, 0, 0, 1, 75, 45)"/>
        </g>
        <g id="Right-Leg">
          <path id="Shape" fill="#DC785A" stroke="none" stroke-width="1" d="M 9.564 14.973 C 10.225 17.080 10.619 19.260 10.738 21.463 C 11.038 27.242 7.365 36.712 7.205 38.473 C 10.586 38.569 13.962 38.972 17.339 38.757 C 19.915 34.914 21.769 30.465 23.207 26.088 C 23.972 23.752 24.437 19.650 24.894 17.238 C 24.990 16.715 25.154 15.888 25.294 14.973 L 9.564 14.973 Z " transform="matrix(1, 0, 0, 1, 65, 77)"/>
          <path id="Shape" fill="#FAF0E6" stroke="none" stroke-width="1" d="M 7.265 36.025 C 7.265 36.025 7.982 33.820 8.339 32.486 C 8.695 31.152 9.296 28.940 9.296 28.940 L 22.322 29.339 C 22.043 30.645 21.658 31.925 21.173 33.169 C 20.576 34.459 19.462 36.496 19.462 36.496 L 7.265 36.025 Z " transform="matrix(1, 0, 0, 1, 65, 77)"/>
          <path id="Shape" fill="#00A0DC" stroke="none" stroke-width="1" d="M 7.337 34.252 L 2.983 45.610 L 7.618 51.006 L 16.398 50.562 C 16.630 49.628 13.394 49.736 13.394 49.736 L 20.724 34.559 L 7.337 34.252 Z " transform="matrix(1, 0, 0, 1, 65, 77)"/>
          <path id="Oval" fill="#006482" stroke="none" stroke-width="1" d="M 9.400 36.408 C 10.106 36.408 10.746 36.694 11.209 37.156 C 11.673 37.618 11.960 38.256 11.960 38.960 C 11.960 39.664 11.673 40.302 11.209 40.764 C 10.746 41.226 10.106 41.512 9.400 41.512 C 8.694 41.512 8.054 41.226 7.591 40.764 C 7.127 40.302 6.840 39.664 6.840 38.960 C 6.840 38.256 7.127 37.618 7.591 37.156 C 8.054 36.694 8.694 36.408 9.400 36.408 Z " transform="matrix(1, 0, 0, 1, 65, 77)"/>
          <path id="Shape" fill="#FAF0E6" stroke="none" stroke-width="1" d="M 17.227 36.564 C 17.099 36.847 16.959 37.123 16.826 37.399 L 19.630 37.399 L 20.031 36.564 L 17.227 36.564 Z " transform="matrix(1, 0, 0, 1, 65, 77)"/>
          <path id="Shape" fill="#F0E6D2" stroke="none" stroke-width="1" d="M 16.045 38.972 C 15.989 39.112 15.925 39.248 15.857 39.372 C 15.789 39.495 15.717 39.655 15.645 39.795 L 18.829 39.795 L 18.829 38.956 L 16.045 38.972 Z " transform="matrix(1, 0, 0, 1, 65, 77)"/>
          <path id="Shape" fill="#FAF0E6" stroke="none" stroke-width="1" d="M 18.052 42.015 L 18.052 41.368 L 14.872 41.368 C 14.736 41.648 14.607 41.928 14.471 42.207 L 17.956 42.207 C 17.992 42.159 18.024 42.095 18.052 42.015 Z " transform="matrix(1, 0, 0, 1, 65, 77)"/>
          <path id="Shape" fill="#F0E6D2" stroke="none" stroke-width="1" d="M 17.055 43.988 C 17.087 43.925 17.119 43.861 17.155 43.797 L 13.770 43.797 C 13.742 43.857 13.718 43.917 13.690 43.980 C 13.598 44.200 13.498 44.416 13.398 44.635 L 16.742 44.635 C 16.842 44.412 16.943 44.200 17.055 43.988 Z " transform="matrix(1, 0, 0, 1, 65, 77)"/>
          <path id="Shape" fill="#FAF0E6" stroke="none" stroke-width="1" d="M 12.436 47.044 L 15.681 47.044 C 15.813 46.768 15.941 46.489 16.081 46.209 L 12.697 46.209 C 12.589 46.485 12.508 46.764 12.436 47.044 Z " transform="matrix(1, 0, 0, 1, 65, 77)"/>
          <path id="Shape" fill="#281446" stroke="none" stroke-width="1" d="M 8.583 50.514 C 10.125 45.862 3.003 45.594 3.003 45.594 L 0.932 51.657 L 16.254 51.657 L 16.398 50.546 L 8.583 50.514 Z " transform="matrix(1, 0, 0, 1, 65, 77)"/>
          <path id="Shape" fill="#281446" stroke="none" stroke-width="1" d="M 28.214 18.851 C 28.214 18.851 28.098 6.610 24.081 0.192 L 2.711 0.220 C 4.934 8.380 7.918 19.211 7.918 19.211 L 28.214 18.851 Z " transform="matrix(1, 0, 0, 1, 65, 77)"/>
        </g>
        <g id="Torso">
          <path id="Shape" fill="#DC785A" stroke="none" stroke-width="1" d="M 44.246 3.147 L 42.568 14.122 L 15.182 14.174 L 18.266 3.422 L 44.246 3.147 " transform="matrix(1, 0, 0, 1, 29, 44)"/>
          <path id="Shape" fill="#006482" stroke="none" stroke-width="1" d="M 46.994 3.007 L 50.964 1.426 L 61.286 24.222 L 56.187 28.428 L 46.994 3.007 " transform="matrix(1, 0, 0, 1, 29, 44)"/>
          <path id="Shape" fill="#006482" stroke="none" stroke-width="1" d="M 16.444 3.007 L 11.745 1.581 L 3.013 24.378 L 7.002 28.699 L 16.444 3.007 " transform="matrix(1, 0, 0, 1, 29, 44)"/>
          <path id="Shape" fill="#00A0DC" stroke="none" stroke-width="1" d="M 64.731 39.770 L 48.124 0.994 L 41.847 1.162 C 41.847 1.162 42.836 10.428 31.136 10.460 C 22.752 10.484 21.439 1.330 21.439 1.330 L 14.401 0.731 L 0.241 39.071 L 64.731 39.770 Z " transform="matrix(1, 0, 0, 1, 29, 44)"/>
        </g>
        <g id="Head">
          <path id="Shape" fill="#DC5050" stroke="none" stroke-width="1" d="M 29.496 34.020 C 29.376 33.828 30.065 28.788 30.830 27.299 C 31.507 25.981 33.481 24.631 34.879 25.441 C 36.610 26.452 36.053 28.956 35.280 30.310 C 34.150 32.311 31.655 33.369 29.496 34.020 Z " transform="matrix(1, 0, 0, 1, 39, 2)"/>
          <path id="Shape" fill="#DC785A" stroke="none" stroke-width="1" d="M 11.515 34.020 C 11.639 33.828 10.946 28.788 10.181 27.299 C 9.504 25.981 7.529 24.631 6.131 25.441 C 4.401 26.452 4.957 28.956 5.731 30.310 C 6.876 32.311 9.372 33.369 11.515 34.020 Z " transform="matrix(1, 0, 0, 1, 39, 2)"/>
          <path id="Shape" fill="#FFC800" stroke="none" stroke-width="1" d="M 25.174 14.638 C 27.729 16.308 32.644 5.053 33.357 3.456 C 31.098 0.612 27.866 -0.019 24.373 0.612 C 23.865 3.048 23.759 5.550 24.060 8.020 C 24.289 10.157 24.349 12.649 25.174 14.638 Z " transform="matrix(1, 0, 0, 1, 39, 2)"/>
          <path id="Shape" fill="#006482" stroke="none" stroke-width="1" d="M 21.392 16.587 L 28.030 18.896 C 28.030 18.896 29.828 15.397 26.143 14.039 C 22.458 12.681 21.392 16.587 21.392 16.587 Z " transform="matrix(1, 0, 0, 1, 39, 2)"/>
          <path id="Shape" fill="#FFC800" stroke="none" stroke-width="1" d="M 12.200 16.731 C 10.597 19.323 1.352 11.200 0.043 10.081 C 0.876 6.551 3.531 4.614 6.964 3.691 C 8.463 5.682 9.624 7.904 10.401 10.269 C 11.090 12.302 12.103 14.582 12.200 16.731 Z " transform="matrix(1, 0, 0, 1, 39, 2)"/>
          <path id="Shape" fill="#006482" stroke="none" stroke-width="1" d="M 16.454 16.899 L 11.423 21.795 C 11.423 21.795 8.306 19.399 11.070 16.603 C 13.834 13.807 16.454 16.899 16.454 16.899 Z " transform="matrix(1, 0, 0, 1, 39, 2)"/>
          <path id="Shape" fill="#FFC800" stroke="none" stroke-width="1" d="M 33.293 21.220 L 9.788 21.164 C 9.788 21.164 9.972 15.066 22.105 15.141 C 31.647 15.217 33.293 21.220 33.293 21.220 Z " transform="matrix(1, 0, 0, 1, 39, 2)"/>
          <path id="Shape" fill="#DC785A" stroke="none" stroke-width="1" d="M 10.629 23.496 C 10.457 23.836 10.361 27.450 10.189 27.794 C 10.141 28.744 9.720 29.615 10.429 31.939 C 11.086 33.804 11.903 35.609 12.869 37.335 C 13.918 38.809 15.560 40.438 17.275 41.113 C 20.591 42.431 24.805 42.072 27.593 40.107 C 30.918 37.762 32.051 33.717 32.584 29.791 C 32.828 27.982 33.786 25.166 33.501 23.349 L 10.629 23.496 Z " transform="matrix(1, 0, 0, 1, 39, 2)"/>
          <path id="Shape" fill="#DC5050" stroke="none" stroke-width="1" d="M 28.891 28.237 C 28.815 30.030 24.449 30.801 24.569 27.930 C 24.689 25.058 24.529 23.161 26.548 23.137 C 28.566 23.113 28.963 26.444 28.891 28.237 Z " transform="matrix(1, 0, 0, 1, 39, 2)"/>
          <path id="Shape" fill="#FFC800" stroke="none" stroke-width="1" d="M 13.445 24.794 L 10.041 29.795 L 9.219 24.890 L 13.445 24.794 " transform="matrix(1, 0, 0, 1, 39, 2)"/>
          <path id="Shape" fill="#00A0DC" stroke="none" stroke-width="1" d="M 34.423 26.775 C 34.823 25.090 35.224 21.683 34.138 20.537 L 9.552 20.537 C 8.426 21.436 8.198 25.453 8.298 27.059 L 34.423 26.775 Z " transform="matrix(1, 0, 0, 1, 39, 2)"/>
          <path id="Shape" fill="#000000" stroke="none" stroke-width="1" d="M 28.146 31.808 C 28.146 31.808 27.529 33.006 25.206 32.918 C 22.883 32.830 22.430 31.848 22.430 31.848 L 28.146 31.808 Z " transform="matrix(1, 0, 0, 1, 39, 2)"/>
          <path id="Shape" fill="#000000" stroke="none" stroke-width="1" d="M 31.439 28.569 C 30.754 29.519 30.017 27.946 30.782 27.271 C 31.282 27.331 31.455 27.666 31.439 28.569 Z " transform="matrix(1, 0, 0, 1, 39, 2)"/>
          <path id="Shape" fill="#000000" stroke="none" stroke-width="1" d="M 18.937 29.264 C 18.436 29.052 18.476 28.609 18.392 28.209 L 19.045 27.714 C 19.774 27.954 19.622 29.104 18.937 29.264 Z " transform="matrix(1, 0, 0, 1, 39, 2)"/>
          <path id="Shape" fill="#006482" stroke="none" stroke-width="1" d="M 34.775 25.290 L 7.950 25.174 L 8.422 22.019 L 34.775 21.915 L 34.775 25.290 " transform="matrix(1, 0, 0, 1, 39, 2)"/>
        </g>
      </g>
    </g>
  </g>
</svg>