<svg width="261px" height="189px" viewBox="0 0 261 189" version="1.1" xml:space="preserve" xmlns="http://www.w3.org/2000/svg" xmlns:xlink="http://www.w3.org/1999/xlink">
  <!-- Generator: Sketch 49.3 (51167) - http://www.bohemiancoding.com/sketch -->
  <defs/>
  <g>
    <title>bear-walk-b</title>
    <desc>Created with Sketch.</desc>
    <g id="bear-walk-b" stroke="none" stroke-width="1" fill="none" fill-rule="evenodd">
      <g id="bear-walk3" transform="translate(131.500000, 95.500000) scale(-1, 1) translate(-131.500000, -95.500000) translate(14.000000, 16.000000)" fill-rule="nonzero">
        <g id="Group" transform="translate(173.000000, 41.000000)">
          <path d="M2.5,38 C2.5,38 0.2,61.2 21.8,82.7 C32.6,93.5 40.6,103.1 39.4,106.1 C38.3,109 33.3,112.2 35.1,113.4 C36.9,114.6 46.3,117.4 60.2,108 C61.9,106.9 60.4,84.1 56.1,72.2 C51.8,60.2 46.7,54.1 45.5,45 C44.3,35.8 45.3,18.1 40.5,11.8 C35.7,5.5 26.5,-5.5 12,4.4 C-2.5,14.3 0.8,32 2.5,38 Z" id="Shape" fill="#856045"/>
          <path d="M42.1,114.5 C42.1,114.5 42,114.2 42,113.8 C42,113.3 42.2,112.7 42.5,112.2 C42.8,111.7 43.2,111.2 43.6,111 C44,110.7 44.2,110.6 44.2,110.6 C44.2,110.6 44.2,110.7 44.1,110.8 C44,110.9 44,111.1 43.8,111.3 C43.6,111.7 43.3,112.1 43,112.6 C42.7,113.1 42.5,113.5 42.3,113.9 C42.2,114.3 42.1,114.5 42.1,114.5 Z" id="Shape" fill="#59402F"/>
          <path d="M37.5,114.1 C37.5,114.1 37.4,113.8 37.4,113.3 C37.4,112.8 37.6,112.1 38,111.6 C38.2,111.3 38.4,111.1 38.6,110.8 C38.8,110.6 39.1,110.4 39.3,110.3 C39.5,110.2 39.7,110.1 39.9,110.1 C40,110 40.1,110 40.1,110 C40.1,110 40.1,110.1 40,110.2 C39.9,110.3 39.8,110.5 39.6,110.6 C39.3,111 38.9,111.4 38.6,111.9 C38.3,112.4 38,112.9 37.8,113.4 C37.6,113.7 37.5,114.1 37.5,114.1 Z" id="Shape" fill="#59402F"/>
          <path d="M43.9,115.3 C43.8,114.7 44.4,111.9 45.5,111.8 C46.6,111.7 46,112.9 45.6,113.7 C45.2,114.5 44,115.7 43.9,115.3 Z" id="Shape" fill="#665A52"/>
          <path d="M38.4,115.4 C38.3,114.8 38.9,112 40,111.9 C41.1,111.8 40.5,113 40.1,113.8 C39.6,114.5 38.4,115.8 38.4,115.4 Z" id="Shape" fill="#665A52"/>
          <path d="M35.4,114.4 C35.3,113.8 35.9,111 37,110.9 C38.1,110.8 37.5,112 37.1,112.8 C36.6,113.6 35.4,114.8 35.4,114.4 Z" id="Shape" fill="#665A52"/>
          <g transform="translate(44.000000, 46.000000)" id="Shape">
            <path d="M0.9,0.2 C0.9,0.2 9.9,9.3 12.3,8.8 C12.3,8.8 10.3,10.9 8.3,9.6 C8.3,9.6 12.9,10.9 14.5,15.2 L11.5,14.6 C11.5,14.6 16.3,20.4 16.4,24.8 L13.2,22 C13.2,22 17.3,28 13.5,32.1" fill="#856045"/>
            <path d="M12.1,8.9 C12.1,8.9 11.9,8.9 11.6,8.9 C11.3,8.8 10.8,8.7 10.3,8.5 C9.2,8 8,7.2 6.8,6.2 C6.2,5.7 5.6,5.2 5.1,4.7 C4.6,4.2 4.1,3.7 3.7,3.3 C2.9,2.4 2.5,1.8 2.5,1.8 C2.5,1.8 3.1,2.2 4,3 C4.9,3.7 6,4.7 7.2,5.6 C7.8,6.1 8.4,6.5 8.9,7 C9.5,7.4 10,7.8 10.5,8.1 C11,8.4 11.4,8.6 11.7,8.8 C11.9,8.9 12.1,8.9 12.1,8.9 Z" fill="#59402F"/>
            <path d="M14.4,15.2 C14.4,15.2 14.1,14.8 13.7,14.3 C13.3,13.8 12.7,13.1 12.1,12.4 C11.8,12.1 11.5,11.8 11.2,11.5 C10.9,11.2 10.6,11 10.3,10.8 C10,10.6 9.8,10.4 9.6,10.4 C9.4,10.3 9.3,10.2 9.3,10.2 C9.3,10.2 9.4,10.2 9.6,10.2 C9.8,10.2 10.1,10.3 10.4,10.4 C10.7,10.5 11.1,10.7 11.5,11 C11.9,11.2 12.2,11.6 12.6,11.9 C12.9,12.2 13.2,12.6 13.4,13 C13.6,13.4 13.8,13.7 14,14 C14.3,14.7 14.4,15.2 14.4,15.2 Z" fill="#59402F"/>
            <path d="M16.2,24.5 C16.2,24.5 16.2,23.8 15.8,22.8 C15.6,22.3 15.4,21.8 15.2,21.2 C14.9,20.6 14.6,20 14.3,19.4 C14,18.8 13.6,18.2 13.3,17.6 C13,17 12.6,16.5 12.4,16.1 C12.1,15.7 11.9,15.3 11.7,15 C11.5,14.7 11.5,14.6 11.5,14.6 C11.5,14.6 11.6,14.7 11.9,14.9 C12.1,15.1 12.4,15.4 12.8,15.8 C13.1,16.2 13.5,16.7 13.9,17.2 C14.3,17.7 14.7,18.3 15,19 C15.7,20.2 16.2,21.6 16.3,22.7 C16.4,23.2 16.4,23.7 16.4,24 C16.3,24.4 16.2,24.5 16.2,24.5 Z" fill="#59402F"/>
            <path d="M14.4,30.7 C14.4,30.7 14.5,30.6 14.6,30.4 C14.7,30.2 14.7,29.8 14.8,29.4 C14.8,28.6 14.7,27.5 14.5,26.5 C14.3,25.4 13.9,24.4 13.7,23.6 C13.4,22.8 13.3,22.3 13.3,22.3 C13.3,22.3 13.4,22.4 13.5,22.6 C13.6,22.8 13.8,23.1 14,23.5 C14.2,23.9 14.4,24.3 14.6,24.8 C14.7,25 14.8,25.3 14.9,25.6 C15,25.9 15.1,26.1 15.1,26.4 C15.2,27 15.3,27.5 15.3,28.1 C15.3,28.6 15.2,29.2 15.1,29.6 C15,30 14.8,30.3 14.7,30.6 C14.5,30.6 14.4,30.7 14.4,30.7 Z" fill="#59402F"/>
          </g>
          <path d="M56.5,72 C56.5,72 57.2,74.4 58,78 C58.4,79.8 58.9,81.9 59.3,84.2 C59.7,86.5 60.1,88.9 60.5,91.4 C60.8,93.9 61.1,96.3 61.2,98.7 C61.3,101 61.3,103.2 61.1,105.1 C61,106 60.8,106.9 60.5,107.6 C60.4,107.8 60.4,107.9 60.2,108.1 C60.1,108.3 59.9,108.3 59.8,108.4 C59.5,108.6 59.3,108.7 59,108.9 C58,109.4 57.5,109.7 57.5,109.7 C57.5,109.7 58,109.4 59,108.8 C59.2,108.7 59.5,108.5 59.7,108.3 C59.8,108.2 60,108.1 60.1,108 C60.2,107.9 60.2,107.7 60.3,107.5 C60.5,106.8 60.7,106 60.8,105 C61,103.2 60.9,101 60.7,98.7 C60.5,96.4 60.2,93.9 59.9,91.5 C59.6,89 59.2,86.6 58.8,84.3 C58.4,82 58,79.9 57.7,78 C56.9,74.4 56.5,72 56.5,72 Z" id="Shape" fill="#59402F"/>
          <path d="M2.8,51.8 C2.8,51.8 4.7,55.8 7.7,61.6 C9.2,64.5 11,67.9 13.1,71.5 C14.1,73.3 15.3,75.1 16.5,76.8 C17.1,77.7 17.8,78.5 18.5,79.4 C19.2,80.2 20,80.9 20.8,81.7 C24,84.8 27.1,87.9 29.9,90.9 C32.7,93.9 35.3,96.8 37.2,99.5 C37.7,100.2 38.1,100.8 38.5,101.5 C38.9,102.2 39.1,102.9 39.3,103.5 C39.5,104.1 39.8,104.7 39.8,105.4 C39.8,106 39.5,106.5 39.3,106.9 C38.8,107.7 38.2,108.2 37.8,108.6 C37.4,109 37.2,109.2 37.2,109.2 C37.2,109.2 37.4,109 37.7,108.6 C38,108.2 38.6,107.7 39.1,106.8 C39.3,106.4 39.5,105.9 39.5,105.3 C39.5,104.7 39.2,104.2 39,103.6 C38.7,103 38.5,102.3 38.1,101.7 C37.7,101.1 37.3,100.4 36.8,99.7 C34.8,97.1 32.2,94.2 29.4,91.2 C26.6,88.2 23.4,85.1 20.3,82 C19.5,81.2 18.7,80.5 18,79.6 C17.3,78.7 16.6,77.9 16,77 C14.8,75.2 13.7,73.4 12.6,71.6 C10.5,68 8.8,64.6 7.3,61.6 C5.8,58.6 4.7,56.1 3.9,54.4 C3.2,52.8 2.8,51.8 2.8,51.8 Z" id="Shape" fill="#59402F"/>
        </g>
        <g id="Group" transform="translate(72.000000, 55.000000)">
          <g id="Shape">
            <path d="M0.8,23.3 C6.1,45.6 12.7,50.7 14.1,57.1 C15.4,63.5 16.9,87.5 15.8,90.5 C14.7,93.5 10.5,94 10.1,97.3 C9.7,100.6 33.9,98.9 36.6,96.8 C39.3,94.7 50.9,52.9 47.7,30.1 C38.3,-15.9 -4.6,1.1 0.8,23.3 Z" fill="#856045"/>
            <path d="M38.4,10 C38.4,10 46.5,20 48.8,19.7 C48.8,19.7 46.6,21.6 44.8,20.1 C44.8,20.1 49.2,21.8 50.4,26.3 L47.5,25.4 C47.5,25.4 51.7,31.7 51.3,36 L48.4,32.9 C48.4,32.9 51.8,39.2 47.7,43" fill="#8D674A"/>
          </g>
          <path d="M35.9,97.2 C35.9,97.2 36.1,97.1 36.4,96.8 C36.7,96.5 37.1,95.9 37.4,95.1 C37.8,94.3 38.1,93.4 38.5,92.3 C38.8,91.2 39.2,89.9 39.6,88.5 C40.4,85.7 41.3,82.5 42.2,79 C43.1,75.5 44,71.7 44.8,68 C45.6,64.2 46.3,60.4 46.7,56.8 C47.1,53.2 47.3,49.8 47.5,46.9 C47.7,44 47.8,41.6 47.8,39.9 C47.8,38.2 47.8,37.2 47.8,37.2 C47.8,37.2 47.9,38.2 48,39.9 C48,41.6 48.1,44 48,46.9 C47.9,48.3 47.9,49.9 47.8,51.6 C47.7,53.3 47.6,55 47.4,56.8 C47,60.4 46.4,64.2 45.6,68 C45.2,69.9 44.8,71.8 44.3,73.6 C43.9,75.5 43.4,77.3 42.9,79 C42,82.5 41,85.7 40.1,88.5 C39.3,91.3 38.5,93.6 37.7,95.1 C37.3,95.9 36.9,96.4 36.6,96.7 C36.2,97.2 35.9,97.2 35.9,97.2 Z" id="Shape" fill="#59402F"/>
          <path d="M13,93.4 C13,93.4 13.2,93.3 13.6,93 C14,92.7 14.5,92.3 14.9,91.6 C15.4,90.9 15.8,90 16,88.9 C16.2,87.8 16.1,86.5 16,85 C15.7,79.2 15.8,71.6 14.9,64 C14.7,62.1 14.4,60.2 13.9,58.4 C13.4,56.6 12.8,54.9 12.1,53.2 C10.7,49.9 9.2,46.9 7.9,44.3 C6.6,41.7 5.7,39.5 5.2,37.9 C4.9,37.1 4.7,36.5 4.6,36 C4.5,35.6 4.4,35.3 4.4,35.3 C4.4,35.3 4.5,35.5 4.6,36 C4.7,36.4 5,37 5.3,37.8 C5.6,38.6 6,39.5 6.5,40.6 C7,41.6 7.6,42.8 8.3,44.1 C9.6,46.6 11.3,49.6 12.7,52.9 C13.4,54.6 14.1,56.3 14.6,58.2 C15.1,60 15.4,62 15.6,63.9 C16,67.7 16.2,71.6 16.3,75.2 C16.4,78.8 16.3,82.2 16.4,85 C16.4,86.4 16.5,87.8 16.3,88.9 C16.1,90.1 15.6,91 15.1,91.7 C14.6,92.4 14,92.8 13.7,93 C13.2,93.4 13,93.4 13,93.4 Z" id="Shape" fill="#59402F"/>
          <g transform="translate(9.000000, 94.000000)" id="Shape">
            <path d="M8.4,5.7 C8.4,5.7 8.4,5.4 8.5,4.9 C8.6,4.4 8.9,3.8 9.3,3.2 C9.7,2.7 10.2,2.2 10.7,2 C11.1,1.7 11.5,1.6 11.5,1.6 C11.5,1.6 11.5,1.7 11.4,1.8 C11.3,1.9 11.2,2.1 11,2.3 C10.7,2.7 10.3,3.2 9.9,3.6 C9.5,4.1 9.2,4.6 8.9,5 C8.6,5.4 8.4,5.7 8.4,5.7 Z" fill="#59402F"/>
            <path d="M2.9,5 C2.9,5 2.9,4.6 3.1,4.1 C3.3,3.6 3.7,2.9 4.2,2.3 C4.5,2 4.8,1.7 5.1,1.5 C5.4,1.3 5.7,1.1 6,1 C6.3,0.9 6.5,0.8 6.7,0.8 C6.9,0.8 7,0.7 7,0.7 C7,0.7 6.9,0.8 6.8,0.9 C6.7,1 6.5,1.2 6.3,1.3 C5.9,1.7 5.4,2.2 4.9,2.7 C4.4,3.2 4,3.8 3.6,4.2 C3.1,4.7 2.9,5 2.9,5 Z" fill="#59402F"/>
            <path d="M9.3,7.1 C9.3,6.5 10.3,3.8 11.4,3.9 C12.5,3.9 11.7,5 11.2,5.7 C10.7,6.4 9.3,7.5 9.3,7.1 Z" fill="#665A52"/>
            <path d="M3.8,6.4 C3.8,5.8 4.8,3.1 5.9,3.2 C7,3.2 6.2,4.3 5.7,5 C5.2,5.7 3.8,6.8 3.8,6.4 Z" fill="#665A52"/>
            <path d="M0.4,5.4 C0.4,4.8 1.4,2.1 2.5,2.2 C3.6,2.2 2.8,3.3 2.3,4 C1.8,4.7 0.4,5.8 0.4,5.4 Z" fill="#665A52"/>
          </g>
        </g>
        <g id="Group" transform="translate(57.000000, 10.000000)">
          <g transform="translate(145.000000, 26.000000)" id="Shape">
            <path d="M0.9,1.2 C0.9,1.2 11.2,-2.6 22.1,12.9 C22.1,12.9 19,10.4 17.1,10.4 C17.1,10.4 22,12.1 23.3,20.4 C23.3,20.4 21.4,17.1 20,16.8 C20,16.8 26.9,26.1 16.8,27.9 C6.7,29.8 -1.5,3.5 0.9,1.2 Z" fill="#8D674A"/>
            <path d="M22.1,12.9 C22.1,12.9 21.9,12.6 21.5,12.1 C21.1,11.6 20.5,10.9 19.8,10.1 C19.1,9.3 18.2,8.4 17.2,7.5 C16.7,7 16.2,6.6 15.7,6.1 C15.2,5.6 14.6,5.2 14,4.8 C13.4,4.4 12.8,4 12.2,3.6 C11.6,3.3 11,2.9 10.4,2.6 C9.8,2.4 9.2,2 8.6,1.9 C8,1.7 7.5,1.5 6.9,1.4 C6.4,1.3 5.9,1.2 5.5,1.2 C5.1,1.1 4.7,1.2 4.4,1.1 C3.8,1.1 3.4,1.1 3.4,1.1 C3.4,1.1 3.8,1.1 4.4,1 C4.7,1 5.1,0.9 5.6,0.9 C6,0.9 6.5,1 7.1,1 C7.6,1.1 8.2,1.2 8.8,1.4 C9.4,1.5 10,1.8 10.7,2.1 C11.3,2.4 12,2.7 12.6,3.1 C13.2,3.5 13.8,3.9 14.4,4.3 C15,4.8 15.6,5.2 16.1,5.7 C16.6,6.2 17.2,6.7 17.6,7.1 C18.6,8.1 19.4,9.1 20,9.9 C21.4,11.6 22.1,12.9 22.1,12.9 Z" fill="#59402F"/>
            <path d="M17.1,10.4 C17.1,10.4 17.8,10.7 18.7,11.4 C19.2,11.7 19.7,12.2 20.1,12.7 C20.6,13.2 21.1,13.8 21.5,14.5 C21.9,15.2 22.3,15.8 22.5,16.5 C22.6,16.8 22.8,17.2 22.8,17.5 C22.9,17.8 23,18.1 23,18.4 C23.1,19 23.1,19.4 23.1,19.8 C23.1,20.1 23.1,20.3 23.1,20.3 C23.1,20.3 23,20.1 23,19.8 C23,19.6 22.9,19.4 22.9,19.2 C22.8,19 22.7,18.7 22.7,18.5 C22.6,18.2 22.5,18 22.4,17.7 C22.3,17.4 22.2,17.1 22,16.8 C21.9,16.5 21.7,16.2 21.5,15.9 C21.3,15.6 21.1,15.3 20.9,15 C20.1,13.8 19.1,12.6 18.4,11.8 C17.6,10.9 17.1,10.4 17.1,10.4 Z" fill="#59402F"/>
            <path d="M20,16.8 C20,16.8 20.5,17.2 21,17.9 C21.3,18.3 21.6,18.7 21.8,19.2 C22.1,19.7 22.3,20.3 22.4,20.9 C22.5,21.5 22.6,22.1 22.5,22.7 C22.5,23 22.4,23.3 22.4,23.5 C22.3,23.8 22.3,24 22.2,24.2 C22,24.6 21.8,25 21.7,25.2 C21.6,25.4 21.5,25.5 21.5,25.5 C21.5,25.5 21.5,25.4 21.6,25.1 C21.6,25 21.7,24.8 21.7,24.7 C21.7,24.5 21.8,24.3 21.8,24.1 C21.9,23.9 21.9,23.7 21.9,23.4 C21.9,23.2 22,22.9 21.9,22.6 C21.9,22.3 21.9,22.1 21.9,21.8 C21.9,21.5 21.8,21.2 21.8,21 C21.7,20.4 21.5,19.9 21.3,19.4 C21.1,18.9 20.9,18.4 20.7,18 C20.3,17.3 20,16.8 20,16.8 Z" fill="#59402F"/>
          </g>
          <g id="Shape">
            <path d="M2.7,58.1 C2.7,58.1 2.8,65.9 6.2,69 L6.4,66.2 C6.4,66.2 7.5,75 14.1,77.5 L13.3,74.9 C13.3,74.9 20.7,79.4 20.8,82.8 L22,80.8 C22,80.8 28.8,86.5 31.8,84.5" fill="#8D674A"/>
            <g>
              <path d="M24.6,2.6 C42.5,-3.3 67.7,5.7 79,9.8 C95.5,15.6 115.1,-0.7 142.3,20.9 C169.5,42.5 164.7,75.4 144.8,91.9 C122.6,110.3 43.1,111.6 28.6,83.5 C28.6,83.5 2.1,73.7 0.5,46.4" fill="#8D674A"/>
              <path d="M2.5,58.1 C2.5,58.1 2.7,58.8 2.9,59.8 C3.1,60.8 3.4,62.2 3.8,63.6 C3.9,63.9 4,64.3 4.1,64.6 C4.2,64.9 4.3,65.3 4.4,65.6 C4.6,66.2 4.8,66.8 5,67.2 C5.1,67.4 5.2,67.7 5.3,67.8 C5.4,68 5.5,68.2 5.6,68.2 C5.8,68.4 5.9,68.6 5.9,68.6 C5.9,68.6 5.8,68.5 5.5,68.3 C5.4,68.2 5.2,68.1 5.1,67.9 C4.9,67.7 4.8,67.5 4.6,67.3 C4.3,66.9 4,66.3 3.7,65.7 C3.4,65.1 3.2,64.4 3,63.7 C2.7,62.3 2.5,60.9 2.4,59.8 C2.5,58.9 2.5,58.1 2.5,58.1 Z" fill="#59402F"/>
              <path d="M6.4,66.1 C6.4,66.1 6.6,67 7.1,68.2 C7.3,68.8 7.6,69.6 7.9,70.3 C8.1,70.7 8.3,71.1 8.5,71.4 C8.7,71.8 8.9,72.2 9.1,72.5 C9.3,72.9 9.6,73.2 9.8,73.6 C10.1,73.9 10.3,74.3 10.6,74.6 C10.9,74.9 11.1,75.2 11.4,75.4 C11.7,75.6 11.9,75.9 12.2,76.1 C12.5,76.3 12.7,76.5 12.9,76.6 C13.1,76.7 13.3,76.9 13.5,77 C13.8,77.2 14,77.3 14,77.3 C14,77.3 13.8,77.2 13.4,77.1 C13.2,77 13,76.9 12.7,76.8 C12.5,76.7 12.2,76.5 11.9,76.4 C11.6,76.2 11.3,76 11,75.8 C10.7,75.6 10.4,75.3 10.1,75 C9.8,74.7 9.5,74.4 9.2,74 C8.9,73.7 8.7,73.3 8.4,72.9 C7.9,72.1 7.5,71.3 7.2,70.5 C6.9,69.7 6.7,68.9 6.5,68.3 C6.4,67 6.4,66.1 6.4,66.1 Z" fill="#59402F"/>
              <path d="M13.3,75 C13.3,75 14,75.2 14.9,75.7 C15.4,76 15.9,76.3 16.4,76.7 C16.9,77.1 17.5,77.5 18,78 C18.5,78.5 19,79 19.4,79.6 C19.8,80.1 20.1,80.7 20.3,81.2 C20.4,81.5 20.5,81.7 20.5,81.9 C20.6,82.1 20.6,82.3 20.6,82.4 C20.7,82.7 20.7,82.9 20.7,82.9 C20.7,82.9 20.6,82.7 20.5,82.5 C20.4,82.4 20.4,82.2 20.3,82 C20.2,81.8 20.1,81.6 19.9,81.4 C19.8,81.2 19.6,81 19.4,80.7 C19.2,80.5 19,80.2 18.8,80 C18.4,79.5 17.9,79 17.4,78.6 C16.9,78.1 16.4,77.7 15.9,77.3 C15.4,76.9 14.9,76.5 14.5,76.2 C13.8,75.4 13.3,75 13.3,75 Z" fill="#59402F"/>
              <path d="M21.9,80.9 C21.9,80.9 22.5,81.3 23.4,81.9 C23.9,82.2 24.4,82.5 25,82.8 C25.6,83.1 26.2,83.5 26.8,83.7 C27.4,84 28.1,84.3 28.7,84.5 C29,84.6 29.3,84.7 29.6,84.8 C29.9,84.9 30.2,84.9 30.4,85 C30.7,85 30.9,85.1 31.1,85.1 C31.3,85.1 31.5,85.1 31.7,85.1 C32,85.1 32.2,85.1 32.2,85.1 C32.2,85.1 32,85.1 31.7,85.2 C31.5,85.2 31.4,85.3 31.1,85.3 C30.9,85.3 30.6,85.3 30.4,85.3 C29.9,85.3 29.2,85.2 28.6,85 C27.9,84.8 27.3,84.6 26.6,84.3 C25.9,84 25.3,83.6 24.8,83.2 C24.2,82.8 23.7,82.4 23.3,82.1 C22.4,81.4 21.9,80.9 21.9,80.9 Z" fill="#59402F"/>
              <path d="M45.6,1 C45.6,1 48.7,1.1 53.3,1.9 C54.4,2.1 55.7,2.3 57,2.6 C58.3,2.9 59.7,3.2 61.1,3.5 C62.5,3.8 64,4.2 65.4,4.6 C66.9,5 68.4,5.5 69.8,6 C72.7,7 75.5,8.3 78.3,9.3 C79.7,9.8 81,10.1 82.3,10.3 C83.6,10.6 84.8,10.7 86,10.8 C87.1,10.9 88.2,10.9 89.2,11 C90.1,11 91,11 91.6,11 C93,11 93.7,10.9 93.7,10.9 C93.7,10.9 92.9,11 91.6,11.1 C90.9,11.2 90.1,11.2 89.2,11.2 C88.3,11.2 87.2,11.2 86,11.2 C84.8,11.1 83.6,11 82.3,10.8 C81,10.6 79.6,10.3 78.2,9.8 C75.4,9 72.6,7.6 69.7,6.6 C68.2,6.1 66.8,5.7 65.3,5.3 C63.8,4.9 62.4,4.5 61,4.1 C58.2,3.4 55.6,2.8 53.3,2.3 C51,1.8 49.1,1.5 47.8,1.3 C46.4,1.2 45.6,1 45.6,1 Z" fill="#59402F"/>
              <path d="M119.7,10 C119.7,10 120.9,10.2 122.9,10.8 C124.9,11.4 127.9,12.4 131.2,13.9 C134.5,15.4 138.3,17.4 142,20.1 C145.7,22.8 149.3,26.2 152.2,30.2 C153.6,32.2 154.9,34.4 155.9,36.5 C157,38.6 157.9,40.8 158.8,43 C159.6,45.1 160.3,47.3 160.7,49.3 C161.1,51.4 161.4,53.3 161.4,55.2 C161.5,58.9 160.9,61.9 160.6,64 C160.2,66.1 160,67.3 160,67.3 C160,67.3 160.2,66.1 160.4,64 C160.7,61.9 161.1,58.9 160.9,55.2 C160.8,53.4 160.5,51.4 160.1,49.4 C159.6,47.4 158.9,45.3 158.1,43.2 C157.2,41.1 156.3,39 155.2,36.8 C154.2,34.6 153,32.6 151.5,30.6 C148.7,26.7 145.2,23.3 141.5,20.5 C137.9,17.8 134.1,15.7 130.9,14.1 C127.6,12.5 124.8,11.5 122.7,10.8 C120.9,10.2 119.7,10 119.7,10 Z" fill="#59402F"/>
              <path d="M34.2,90.6 C34.2,90.6 34.6,90.9 35.2,91.3 C35.9,91.7 36.9,92.4 38.2,93.1 C38.9,93.5 39.6,93.9 40.4,94.3 C41.2,94.7 42.1,95.1 43.1,95.6 C44.1,96 45.1,96.5 46.2,97 C47.3,97.4 48.5,97.9 49.7,98.4 C50.9,98.9 52.2,99.3 53.5,99.8 C54.8,100.3 56.2,100.6 57.7,101.1 C60.6,101.9 63.6,102.6 66.8,103.2 C67.6,103.3 68.4,103.5 69.2,103.7 C70,103.8 70.8,103.9 71.7,104 C72.5,104.1 73.4,104.2 74.2,104.3 C75,104.4 75.9,104.5 76.7,104.5 C77.5,104.6 78.4,104.6 79.3,104.7 C80.2,104.8 81,104.8 81.9,104.8 C83.6,104.8 85.4,104.9 87.1,104.9 C90.6,104.8 94,104.8 97.4,104.4 C100.8,104.2 104.2,103.8 107.4,103.5 C109,103.3 110.6,103.1 112.2,102.9 C113.8,102.7 115.3,102.4 116.7,102.2 C119.6,101.7 122.4,101.2 124.9,100.6 C127.4,100 129.7,99.3 131.7,98.7 C132.7,98.4 133.6,98 134.5,97.7 C135.3,97.3 136.1,97.1 136.8,96.7 C138.2,96.1 139.2,95.4 139.9,95 C140.6,94.5 140.9,94.2 140.9,94.2 C140.9,94.2 140.6,94.5 139.9,95 C139.2,95.5 138.2,96.1 136.8,96.8 C136.1,97.2 135.3,97.5 134.5,97.9 C133.6,98.2 132.7,98.6 131.7,99 C129.7,99.7 127.4,100.4 124.9,101 C122.4,101.6 119.6,102.2 116.7,102.8 C115.2,103 113.7,103.3 112.2,103.6 C110.6,103.8 109.1,104 107.4,104.2 C104.2,104.5 100.8,104.9 97.4,105.2 C94,105.5 90.5,105.6 87,105.7 C85.3,105.7 83.5,105.6 81.8,105.6 C80.9,105.6 80.1,105.5 79.2,105.4 C78.3,105.3 77.5,105.3 76.6,105.2 C75.7,105.1 74.9,105.1 74.1,105 C73.3,104.9 72.4,104.8 71.6,104.6 C70.8,104.5 69.9,104.4 69.1,104.2 C68.3,104.1 67.5,103.9 66.7,103.7 C63.5,103.1 60.4,102.3 57.6,101.5 C56.2,101 54.8,100.7 53.4,100.2 C52.1,99.7 50.8,99.3 49.6,98.8 C48.4,98.3 47.2,97.8 46.1,97.4 C45,96.9 44,96.4 43,96 C42.1,95.5 41.2,95.1 40.4,94.6 C39.6,94.1 38.9,93.7 38.2,93.4 C36.9,92.6 35.9,92 35.2,91.5 C34.5,90.9 34.2,90.6 34.2,90.6 Z" fill="#59402F"/>
            </g>
          </g>
        </g>
        <path d="M120.7,74.7 C120.7,74.7 120.5,74.7 120.2,74.6 C119.9,74.5 119.4,74.3 118.9,74 C117.9,73.4 116.7,72.4 115.6,71.4 C115.1,70.9 114.5,70.3 114.1,69.8 C113.6,69.3 113.2,68.7 112.9,68.3 C112.2,67.4 111.8,66.7 111.8,66.7 C111.8,66.7 112.4,67.2 113.2,68 C114,68.8 115.1,69.9 116.1,70.9 C116.6,71.4 117.2,72 117.7,72.4 C118.2,72.9 118.7,73.3 119.1,73.7 C119.5,74.1 119.9,74.3 120.2,74.5 C120.5,74.6 120.7,74.7 120.7,74.7 Z" id="Shape" fill="#59402F"/>
        <path d="M122.2,81.2 C122.2,81.2 122,80.8 121.6,80.2 C121.3,79.6 120.8,78.9 120.3,78.2 C120,77.9 119.8,77.5 119.5,77.2 C119.2,76.9 118.9,76.7 118.7,76.4 C118.5,76.2 118.2,76 118.1,75.9 C117.9,75.8 117.9,75.7 117.9,75.7 C117.9,75.7 118,75.7 118.2,75.8 C118.4,75.8 118.7,75.9 119,76.1 C119.3,76.3 119.7,76.5 120,76.8 C120.3,77.1 120.7,77.4 120.9,77.8 C121.2,78.2 121.4,78.6 121.6,79 C121.8,79.4 121.9,79.8 122,80.1 C122.2,80.7 122.2,81.2 122.2,81.2 Z" id="Shape" fill="#59402F"/>
        <path d="M123.1,90.4 C123.1,90.4 123.2,89.7 123,88.7 C122.9,88.2 122.8,87.6 122.6,87 C122.4,86.4 122.2,85.8 121.9,85.1 C121.6,84.5 121.4,83.9 121.1,83.3 C120.8,82.7 120.6,82.2 120.3,81.7 C120.1,81.2 119.9,80.9 119.7,80.6 C119.6,80.3 119.5,80.2 119.5,80.2 C119.5,80.2 119.6,80.3 119.8,80.6 C120,80.8 120.3,81.2 120.6,81.6 C120.9,82 121.2,82.5 121.6,83.1 C121.9,83.7 122.2,84.3 122.5,84.9 C122.8,85.5 123,86.2 123.1,86.9 C123.3,87.5 123.3,88.2 123.3,88.7 C123.3,89.2 123.2,89.7 123.2,90 C123.2,90.3 123.1,90.4 123.1,90.4 Z" id="Shape" fill="#59402F"/>
        <path d="M119.9,97.6 C119.9,97.6 120.4,97.1 120.7,96.3 C120.9,95.9 121,95.4 121.1,94.8 C121.2,94.2 121.2,93.6 121.2,93 C121.2,92.7 121.2,92.4 121.1,92.1 C121.1,91.8 121,91.5 121,91.2 C120.9,90.6 120.8,90.1 120.7,89.6 C120.6,89.1 120.5,88.7 120.5,88.5 C120.4,88.2 120.4,88.1 120.4,88.1 C120.4,88.1 120.5,88.2 120.6,88.5 C120.7,88.8 120.9,89.1 121.1,89.6 C121.3,90.1 121.5,90.6 121.6,91.2 C121.7,91.5 121.8,91.8 121.8,92.1 C121.8,92.4 121.9,92.7 121.9,93.1 C121.9,93.8 121.9,94.4 121.7,95 C121.7,95.3 121.5,95.6 121.4,95.9 C121.3,96.2 121.2,96.4 121,96.6 C120.7,97 120.4,97.3 120.2,97.5 C120.1,97.6 119.9,97.6 119.9,97.6 Z" id="Shape" fill="#59402F"/>
        <path d="M158,66.6 C158,66.6 153.7,97.3 155.3,110.4 C155.8,114.6 156.8,117.6 157.4,122.7 C159.4,140.8 159.4,144.7 157.3,147 C155.2,149.3 148,152.9 149.2,154.7 C150.4,156.5 170.9,158.9 175.6,157.5 C177.5,156.9 196.1,124.4 198.9,107.7 C201,95.2 196.3,96 198.6,87 C200.9,78 208.8,63.4 206.6,55.8 C204.4,48.2 196.5,35.1 179.3,39 C162.1,42.9 158.7,60.4 158,66.6 Z" id="Shape" fill="#8D674A"/>
        <g id="Group" transform="translate(148.000000, 151.000000)">
          <path d="M8.5,5.4 C8.5,5.4 8.5,5.1 8.8,4.6 C9,4.1 9.4,3.6 10,3.2 C10.5,2.8 11.1,2.5 11.6,2.3 C12.1,2.1 12.4,2.1 12.4,2.1 C12.4,2.1 12.3,2.2 12.2,2.3 C12.1,2.4 11.9,2.5 11.7,2.7 C11.3,3 10.8,3.4 10.4,3.8 C9.9,4.2 9.5,4.6 9.1,4.9 C8.8,5.1 8.5,5.4 8.5,5.4 Z" id="Shape" fill="#59402F"/>
          <path d="M3.1,3.8 C3.1,3.8 3.2,3.4 3.6,2.9 C3.9,2.4 4.5,1.8 5.1,1.4 C5.4,1.2 5.8,1 6.1,0.9 C6.4,0.8 6.8,0.7 7.1,0.6 C7.4,0.5 7.6,0.5 7.8,0.5 C8,0.5 8.1,0.5 8.1,0.5 C8.1,0.5 8,0.6 7.9,0.6 C7.7,0.7 7.5,0.8 7.3,0.9 C6.8,1.2 6.2,1.5 5.6,1.9 C5,2.3 4.4,2.8 4,3.1 C3.4,3.6 3.1,3.8 3.1,3.8 Z" id="Shape" fill="#59402F"/>
          <path d="M9.1,6.9 C9.3,6.3 10.8,4 11.9,4.3 C13,4.6 12,5.5 11.3,6 C10.5,6.6 8.9,7.3 9.1,6.9 Z" id="Shape" fill="#6C5F57"/>
          <path d="M3.9,5 C4.1,4.4 5.6,2.1 6.7,2.4 C7.8,2.7 6.8,3.6 6.1,4.1 C5.4,4.6 3.8,5.4 3.9,5 Z" id="Shape" fill="#6C5F57"/>
          <path d="M0.6,3.8 C0.8,3.2 2.3,0.9 3.4,1.2 C4.5,1.5 3.5,2.4 2.8,2.9 C2.1,3.5 0.5,4.2 0.6,3.8 Z" id="Shape" fill="#6C5F57"/>
        </g>
        <g id="Group" transform="translate(192.000000, 93.000000)">
          <path d="M6.9,0.4 C6.9,0.4 9.6,12.9 11.8,13.8 C11.8,13.8 9,14.5 8.1,12.3 C8.1,12.3 11.3,15.9 10.3,20.3 L8.1,18.1 C8.1,18.1 8.9,25.6 6.7,29.3 L5.5,25.2 C5.5,25.2 5.7,32.4 0.3,33.8" id="Shape" fill="#8D674A"/>
          <path d="M11.6,13.7 C11.6,13.7 11.4,13.6 11.2,13.4 C11,13.2 10.6,12.8 10.3,12.3 C9.7,11.3 9.1,9.9 8.6,8.5 C8.4,7.8 8.2,7 8,6.4 C7.8,5.7 7.7,5.1 7.6,4.5 C7.4,3.4 7.4,2.6 7.4,2.6 C7.4,2.6 7.7,3.3 8,4.4 C8.4,5.5 8.8,6.9 9.3,8.3 C9.5,9 9.8,9.7 10,10.4 C10.2,11.1 10.5,11.7 10.7,12.2 C10.9,12.7 11.1,13.1 11.3,13.4 C11.5,13.6 11.6,13.7 11.6,13.7 Z" id="Shape" fill="#59402F"/>
          <path d="M10.1,20.2 C10.1,20.2 10.1,19.7 10,19.1 C10,18.4 9.9,17.6 9.7,16.7 C9.6,16.3 9.5,15.9 9.4,15.5 C9.3,15.1 9.2,14.8 9,14.5 C8.9,14.2 8.8,13.9 8.7,13.8 C8.6,13.6 8.6,13.5 8.6,13.5 C8.6,13.5 8.7,13.6 8.8,13.7 C9,13.8 9.2,14 9.4,14.3 C9.6,14.6 9.8,14.9 10,15.3 C10.2,15.7 10.3,16.2 10.4,16.6 C10.5,17.1 10.5,17.5 10.5,18 C10.5,18.4 10.4,18.8 10.4,19.2 C10.3,19.8 10.1,20.2 10.1,20.2 Z" id="Shape" fill="#59402F"/>
          <path d="M6.6,29.2 C6.6,29.2 7,28.6 7.3,27.6 C7.5,27.1 7.6,26.5 7.7,25.9 C7.8,25.3 7.9,24.6 8,23.9 C8.1,23.2 8.1,22.5 8.1,21.9 C8.1,21.2 8.1,20.6 8.1,20.1 C8.1,19.6 8.1,19.1 8.1,18.8 C8.1,18.5 8.1,18.3 8.1,18.3 C8.1,18.3 8.1,18.5 8.2,18.8 C8.3,19.1 8.4,19.5 8.4,20.1 C8.5,20.6 8.6,21.3 8.6,21.9 C8.6,22.6 8.6,23.3 8.6,24 C8.5,24.7 8.4,25.4 8.2,26.1 C8,26.8 7.8,27.4 7.6,27.8 C7.4,28.3 7.1,28.7 6.9,28.9 C6.7,29.1 6.6,29.2 6.6,29.2 Z" id="Shape" fill="#59402F"/>
          <path d="M1.8,33.3 C1.8,33.3 1.9,33.2 2.1,33.1 C2.3,33 2.5,32.7 2.8,32.4 C3.3,31.8 3.7,30.8 4.1,29.8 C4.5,28.8 4.7,27.7 5,26.9 C5.2,26.1 5.4,25.6 5.4,25.6 C5.4,25.6 5.4,25.7 5.4,26 C5.4,26.2 5.4,26.6 5.4,27 C5.4,27.4 5.3,27.9 5.2,28.4 C5.1,28.7 5.1,28.9 5,29.2 C4.9,29.5 4.8,29.7 4.8,30 C4.6,30.5 4.4,31.1 4.1,31.5 C3.8,32 3.5,32.4 3.2,32.7 C2.9,33 2.5,33.2 2.3,33.3 C1.9,33.3 1.8,33.3 1.8,33.3 Z" id="Shape" fill="#59402F"/>
        </g>
        <path d="M194.9,122.2 C194.9,122.2 193.8,124.7 192.1,128.4 C191.2,130.2 190.2,132.4 189.1,134.6 C188,136.9 186.7,139.3 185.5,141.7 C184.2,144.1 182.9,146.5 181.7,148.7 C180.5,150.9 179.2,152.9 178,154.6 C177.4,155.4 176.9,156.2 176.3,156.8 C176,157.1 175.8,157.4 175.5,157.6 C175.1,157.7 174.8,157.7 174.5,157.8 C173.9,157.8 173.4,157.8 173.1,157.8 C172.8,157.8 172.6,157.8 172.6,157.8 C172.6,157.8 173.3,157.8 174.5,157.7 C174.8,157.7 175.1,157.6 175.4,157.5 C175.6,157.3 175.9,157 176.1,156.7 C176.6,156.1 177.1,155.3 177.7,154.4 C178.8,152.7 179.9,150.6 181.2,148.4 C182.4,146.2 183.7,143.8 184.9,141.4 C189.9,131.7 194.9,122.2 194.9,122.2 Z" id="Shape" fill="#59402F"/>
        <path d="M156.6,81.8 C156.6,81.8 156.2,86.1 155.7,92.5 C155.5,95.7 155.3,99.5 155.3,103.5 C155.3,105.5 155.3,107.6 155.6,109.7 C155.8,111.8 156.3,113.9 156.6,116 C157.3,120.3 157.8,124.6 158.2,128.6 C158.6,132.6 158.8,136.4 158.9,139.6 C158.9,141.2 159,142.7 158.8,144 C158.7,144.7 158.5,145.3 158.2,145.8 C157.9,146.3 157.6,146.7 157.2,147 C156.5,147.7 155.9,148.1 155.5,148.4 C155.1,148.7 154.9,148.8 154.9,148.8 C154.9,148.8 155.1,148.6 155.5,148.3 C155.9,148 156.5,147.6 157.1,146.9 C157.7,146.2 158.4,145.2 158.5,143.9 C158.6,142.6 158.5,141.1 158.5,139.5 C158.4,136.3 158,132.5 157.6,128.5 C157.2,124.5 156.7,120.2 156,116 C155.7,113.9 155.2,111.8 155,109.6 C154.8,107.5 154.8,105.4 154.8,103.3 C154.9,99.2 155.2,95.5 155.4,92.2 C155.7,89 156,86.3 156.3,84.4 C156.5,82.8 156.6,81.8 156.6,81.8 Z" id="Shape" fill="#59402F"/>
        <g id="Group" transform="translate(75.000000, 55.000000)">
          <path d="M21.6,16.4 C20.5,32.8 23.8,39.2 23.8,39.2 C23.8,39.2 2.9,45.9 1.4,48.8 C-2.5,56.1 7.9,80.6 13.8,76.8 C19.4,73.2 17,63.6 17,63.6 C17,63.6 36.9,59.1 38.5,58.6 C41.7,57.5 60,60.3 64.1,37.6 C69.5,-9.2 23.1,-6.5 21.6,16.4 Z" id="Shape" fill="#8D674A"/>
          <path d="M61.6,15.4 C61.6,15.4 66.2,27.4 68.5,27.9 C68.5,27.9 65.8,29 64.6,27 C64.6,27 68.3,30 68,34.6 L65.5,32.8 C65.5,32.8 67.5,40.1 65.9,44.1 L64.1,40.3 C64.1,40.3 65.4,47.4 60.3,49.6" id="Shape" fill="#8D674A"/>
          <path d="M68.3,27.8 C68.3,27.8 68.1,27.8 67.8,27.6 C67.5,27.4 67.1,27.1 66.8,26.7 C66,25.8 65.2,24.5 64.5,23.2 C64.2,22.5 63.8,21.8 63.6,21.2 C63.3,20.5 63.1,19.9 62.9,19.4 C62.6,18.3 62.4,17.6 62.4,17.6 C62.4,17.6 62.8,18.3 63.3,19.3 C63.8,20.3 64.5,21.7 65.2,23 C65.5,23.7 65.9,24.3 66.2,24.9 C66.5,25.5 66.9,26.1 67.2,26.5 C67.5,27 67.8,27.3 68,27.6 C68.1,27.8 68.3,27.8 68.3,27.8 Z" id="Shape" fill="#59402F"/>
          <path d="M67.9,34.7 C67.9,34.7 67.8,34.2 67.6,33.6 C67.4,32.9 67.2,32 66.9,31.2 C66.8,30.8 66.6,30.4 66.4,30 C66.3,29.8 66.2,29.6 66.1,29.5 C66,29.3 65.9,29.2 65.8,29 C65.6,28.7 65.5,28.5 65.3,28.3 C65.2,28.1 65.1,28 65.1,28 C65.1,28 65.2,28.1 65.4,28.2 C65.6,28.3 65.8,28.5 66.1,28.7 C66.2,28.8 66.4,29 66.5,29.1 C66.6,29.3 66.8,29.4 66.9,29.6 C67.1,30 67.3,30.4 67.5,30.9 C67.8,31.8 67.9,32.8 67.9,33.5 C68,34.3 67.9,34.7 67.9,34.7 Z" id="Shape" fill="#59402F"/>
          <path d="M65.9,44.2 C65.9,44.2 66.1,43.5 66.2,42.4 C66.3,41.3 66.3,39.9 66.2,38.5 C66.2,37.8 66.1,37.1 66,36.4 C65.9,35.7 65.8,35.1 65.7,34.6 C65.6,34.1 65.6,33.6 65.5,33.3 C65.5,33 65.4,32.8 65.4,32.8 C65.4,32.8 65.5,33 65.6,33.3 C65.7,33.6 65.9,34 66,34.5 C66.3,35.5 66.6,37 66.8,38.4 C66.9,39.1 66.9,39.9 66.8,40.6 C66.7,41.3 66.6,41.9 66.5,42.5 C66.4,43 66.2,43.5 66,43.8 C66,44 65.9,44.2 65.9,44.2 Z" id="Shape" fill="#59402F"/>
          <path d="M17.1,63.5 C17.1,63.5 20.2,62.6 24.8,61.4 C27.1,60.8 29.9,60.1 32.8,59.4 C35.7,58.7 38.9,58.1 42.1,57.8 C43.7,57.6 45.3,57.6 46.8,57.3 C48.3,57 49.7,56.4 51.1,55.7 C51.8,55.4 52.4,55 53,54.7 C53.3,54.5 53.6,54.3 53.9,54.1 C54.2,53.9 54.5,53.7 54.7,53.5 C55.8,52.7 56.7,51.8 57.5,50.9 C59.1,49.1 60.1,47.4 60.8,46.2 C61.5,45 61.8,44.2 61.8,44.2 C61.8,44.2 61.6,45 60.9,46.2 C60.3,47.5 59.3,49.2 57.8,51.1 C57,52 56.1,53 55,53.9 C54.7,54.1 54.4,54.3 54.1,54.5 C53.8,54.7 53.5,54.9 53.2,55.1 C52.6,55.5 51.9,55.8 51.2,56.2 C49.9,56.9 48.4,57.5 46.8,57.9 C45.2,58.2 43.6,58.3 42,58.4 C40.4,58.5 38.8,58.7 37.3,59 C35.7,59.2 34.2,59.5 32.7,59.8 C32,59.9 31.2,60.1 30.5,60.2 C29.8,60.4 29.1,60.5 28.4,60.7 C27.1,61 25.8,61.3 24.6,61.6 C20.2,62.8 17.1,63.5 17.1,63.5 Z" id="Shape" fill="#59402F"/>
          <path d="M60.6,49.5 C60.6,49.5 61.2,49.2 61.7,48.5 C62,48.1 62.3,47.7 62.5,47.2 C62.6,46.9 62.7,46.7 62.8,46.4 C62.9,46.1 63,45.8 63.1,45.5 C63.2,45.2 63.2,44.9 63.3,44.6 C63.4,44.3 63.4,44 63.5,43.7 C63.6,43.1 63.7,42.6 63.7,42.1 C63.8,41.6 63.8,41.2 63.8,41 C63.8,40.7 63.9,40.6 63.9,40.6 C63.9,40.6 63.9,40.8 64,41 C64,41.3 64.1,41.7 64.1,42.2 C64.1,42.7 64.1,43.2 64.1,43.8 C64.1,44.1 64.1,44.4 64,44.7 C63.9,45 63.9,45.3 63.8,45.6 C63.6,46.2 63.4,46.9 63.1,47.4 C63,47.7 62.8,47.9 62.6,48.1 C62.4,48.3 62.2,48.5 62.1,48.7 C61.7,49 61.4,49.2 61.1,49.3 C60.7,49.5 60.6,49.5 60.6,49.5 Z" id="Shape" fill="#59402F"/>
          <path d="M0.9,57 C0.6,55.7 0.5,54.3 0.6,52.9 C0.6,52.2 0.7,51.5 0.8,50.9 C0.8,50.6 0.9,50.2 1,49.9 C1,49.7 1.1,49.5 1.1,49.4 C1.2,49.2 1.3,49.1 1.4,48.9 C1.8,48.3 2.4,47.9 3,47.5 C3.6,47.1 4.1,46.7 4.7,46.4 C5.9,45.7 7.1,45.1 8.4,44.5 C10.9,43.4 13.4,42.3 16,41.4 C18.5,40.4 21.1,39.5 23.7,38.7 L23.4,39 C22.6,36.8 22.1,34.5 21.8,32.1 C21.6,30.9 21.5,29.8 21.5,28.6 C21.5,28 21.5,27.4 21.5,26.8 C21.5,26.2 21.5,25.6 21.6,25 C21.6,26.2 21.7,27.3 21.8,28.5 C21.9,29.7 22.1,30.8 22.3,32 C22.5,33.1 22.8,34.3 23.1,35.4 C23.4,36.5 23.7,37.6 24.1,38.7 L24.2,39 L23.9,39.1 C21.3,40 18.8,40.9 16.2,41.8 C13.7,42.7 11.1,43.7 8.7,44.8 C7.5,45.4 6.2,45.9 5,46.6 C4.4,46.9 3.8,47.3 3.3,47.6 C2.7,48 2.2,48.4 1.8,48.9 C1.7,49 1.6,49.2 1.6,49.3 C1.5,49.5 1.5,49.6 1.5,49.8 C1.4,50.1 1.3,50.5 1.3,50.8 C1.2,51.5 1.1,52.1 1,52.8 C0.7,54.2 0.7,55.6 0.9,57 Z" id="Shape" fill="#59402F"/>
          <g transform="translate(11.000000, 66.000000)" id="Shape">
            <path d="M5.9,4.8 C5.9,4.8 5.6,4.8 5.1,4.6 C4.6,4.4 4.1,4 3.6,3.5 C3.1,3 2.8,2.4 2.6,1.9 C2.4,1.4 2.4,1.1 2.4,1.1 C2.4,1.1 2.5,1.2 2.6,1.3 C2.7,1.4 2.8,1.6 3,1.7 C3.3,2.1 3.7,2.5 4.1,3 C4.5,3.5 5,3.9 5.3,4.2 C5.6,4.5 5.9,4.8 5.9,4.8 Z" fill="#59402F"/>
            <path d="M4.2,10.1 C4.2,10.1 3.8,10 3.3,9.7 C2.8,9.4 2.2,8.9 1.7,8.3 C1.5,8 1.3,7.7 1.1,7.3 C0.9,7 0.8,6.6 0.8,6.4 C0.7,6.1 0.7,5.9 0.7,5.7 C0.7,5.5 0.7,5.4 0.7,5.4 C0.7,5.4 0.8,5.5 0.8,5.6 C0.9,5.7 1,6 1.1,6.2 C1.4,6.7 1.8,7.3 2.2,7.8 C2.6,8.4 3.1,8.9 3.5,9.3 C3.9,9.8 4.2,10.1 4.2,10.1 Z" fill="#59402F"/>
            <path d="M7.4,4.1 C6.8,4 4.4,2.5 4.6,1.4 C4.8,0.3 5.8,1.3 6.4,1.9 C7,2.5 7.8,4.2 7.4,4.1 Z" fill="#6C5F57"/>
            <path d="M5.7,9.4 C5.1,9.3 2.7,7.8 2.9,6.7 C3.1,5.6 4.1,6.6 4.7,7.2 C5.3,7.8 6.1,9.5 5.7,9.4 Z" fill="#6C5F57"/>
            <path d="M4.1,12.6 C3.5,12.5 1.1,11 1.3,9.9 C1.5,8.8 2.5,9.8 3.1,10.4 C3.7,11.1 4.5,12.7 4.1,12.6 Z" fill="#6C5F57"/>
          </g>
          <path d="M21.8,39.7 C21.8,39.7 21.9,39.6 22,39.5 C22.1,39.4 22.3,39.2 22.6,39.1 C23.1,38.8 23.9,38.5 24.6,38.4 C25.4,38.3 26.2,38.3 26.7,38.4 C27,38.4 27.2,38.5 27.4,38.5 C27.6,38.5 27.7,38.6 27.7,38.6 C27.7,38.6 27.6,38.6 27.4,38.7 C27.2,38.7 27,38.8 26.7,38.8 C26.1,38.9 25.4,39 24.7,39.1 C24,39.2 23.2,39.3 22.7,39.5 C22.2,39.5 21.8,39.7 21.8,39.7 Z" id="Shape" fill="#59402F"/>
        </g>
        <g id="Group">
          <g transform="translate(0.000000, 6.000000)">
            <path d="M70.8,1.5 C50.5,-1.3 27.7,10.6 24.6,16.2 C21.5,21.8 20.9,35 20.9,35 C20.9,35 0.4,45.8 0.8,50.1 C1.2,54.4 7.8,64.2 16.1,64.8 C24.4,65.4 31.5,66.3 41.2,65.8 C50.9,65.3 68.3,67.4 77.1,57.6 C77.1,57.6 75.9,61.9 74.2,63.1 C74.2,63.1 85.6,60.5 82.6,49.6 C82.6,49.6 84.6,51.4 84,57.1 C84,57.1 90.1,50.9 86.2,41.9 C86.2,41.9 88.9,46.8 91.6,46.8 C91.6,46.8 89,43 89.1,36.5 C89,30 87.8,3.9 70.8,1.5 Z" id="Shape" fill="#8D674A"/>
            <path d="M67.7,0.7 C47.3,-1.3 27.6,10.6 24.5,16.3 C21.4,22 20.8,35.1 20.8,35.1 C20.8,35.1 0.4,45.8 0.8,50.1 C1.2,54.4 7.8,64.2 16.1,64.8 C24.4,65.4 33,68.3 42.6,67.7 C52.2,67.1 68.2,67.4 77,57.6 C77,57.6 75.8,61.9 74.1,63.1 C74.1,63.1 85.5,60.5 82.5,49.6 C82.5,49.6 84.5,51.4 83.9,57.1 C83.9,57.1 90,50.9 86.1,41.9 C86.1,41.9 88.8,46.8 91.5,46.8 C91.5,46.8 96,31.6 96.1,25.1 C96.2,18.6 82.1,2.1 67.7,0.7 Z" id="Shape" fill="#8D674A"/>
            <path d="M0.8,50.1 C1.2,54.1 6.9,62.8 14.4,64.5 C16.9,63.1 19.7,61.1 19.9,58.4 C19.9,58.4 36,47.3 21,35.1 C20.9,35.1 0.4,45.8 0.8,50.1 Z" id="Shape" fill="#9E7B5C"/>
            <path d="M1.7,53.3 C0.8,51.7 -0.6,50.1 0.3,48.7 C0.8,47.8 2,46.4 3,46.4 C4,46.4 5.5,49.4 2.5,50.9 C2.9,52.4 2.3,52.9 1.7,53.3 Z" id="Shape" fill="#332721"/>
            <path d="M7.1,60.1 C7.1,60.1 7.6,59.8 8.4,59.4 C8.8,59.2 9.3,59.1 9.8,58.9 C10.3,58.8 10.9,58.6 11.5,58.6 C12.1,58.5 12.7,58.5 13.3,58.5 C13.9,58.5 14.4,58.6 14.8,58.7 C15.2,58.8 15.6,58.9 15.8,59 C16,59.1 16.2,59.2 16.2,59.2 C16.2,59.2 16,59.2 15.8,59.2 C15.5,59.2 15.2,59.1 14.8,59.1 C14.6,59.1 14.4,59.1 14.1,59.1 C13.9,59.1 13.6,59.1 13.3,59.1 C12.8,59.1 12.2,59.2 11.6,59.2 C10.5,59.3 9.3,59.5 8.5,59.7 C7.7,59.9 7.1,60.1 7.1,60.1 Z" id="Shape" fill="#59402F"/>
            <ellipse id="Oval" fill="#332010" transform="translate(30.900671, 34.501004) rotate(-5.263682) translate(-30.900671, -34.501004) " cx="30.9006707" cy="34.5010037" rx="1.70002894" ry="2.60004426"/>
            <path d="M34.1,27.6 C34.2,28.7 31.1,29.4 29.7,29.5 C28.3,29.6 27,28.9 26.9,27.8 C26.8,26.7 27.9,25.8 29.3,25.6 C30.8,25.6 34,26.6 34.1,27.6 Z" id="Shape" fill="#9E7B5C"/>
            <path d="M20.9,35.1 C20.9,35.1 20.9,34.3 20.9,32.8 C21,31.4 21,29.3 21.3,26.8 C21.4,25.6 21.6,24.2 21.9,22.8 C22.2,21.4 22.5,19.9 23.1,18.5 C23.4,17.8 23.7,17 24.1,16.3 C24.6,15.6 25,15 25.6,14.3 C26.7,13.1 27.9,11.9 29.2,10.9 C30.5,9.9 31.9,9 33.3,8.2 C34.7,7.4 36.1,6.6 37.5,6 C38.9,5.3 40.3,4.8 41.6,4.3 C42.9,3.8 44.2,3.4 45.4,3 C46.6,2.6 47.7,2.3 48.7,2.1 C49.7,1.9 50.5,1.6 51.2,1.5 C52.6,1.2 53.4,1 53.4,1 C53.4,1 52.6,1.2 51.2,1.6 C49.8,2 47.8,2.6 45.5,3.3 C44.3,3.7 43.1,4.1 41.8,4.7 C40.5,5.2 39.1,5.8 37.7,6.5 C36.3,7.2 34.9,7.9 33.5,8.7 C32.1,9.5 30.8,10.5 29.5,11.4 C28.2,12.4 27,13.5 25.9,14.7 C25.4,15.3 24.9,15.9 24.5,16.6 C24.1,17.3 23.8,18 23.5,18.7 C22.4,21.6 21.9,24.4 21.6,26.8 C21,31.8 20.9,35.1 20.9,35.1 Z" id="Shape" fill="#59402F"/>
            <path d="M74.1,63.2 C74.1,63.2 74.4,63.1 74.8,63 C75.3,62.9 75.9,62.6 76.7,62.2 C77.1,62 77.5,61.8 77.9,61.5 C78.3,61.3 78.7,60.9 79.1,60.6 C79.5,60.3 79.9,59.9 80.3,59.5 C80.7,59.1 81,58.7 81.3,58.2 C81.6,57.8 81.8,57.2 82.1,56.8 C82.3,56.3 82.4,55.8 82.6,55.3 C82.7,54.8 82.7,54.3 82.8,53.8 C82.9,53.3 82.8,52.9 82.8,52.4 C82.8,52 82.8,51.6 82.7,51.2 C82.7,50.9 82.6,50.6 82.6,50.3 C82.5,49.8 82.5,49.5 82.5,49.5 C82.5,49.5 82.6,49.8 82.7,50.3 C82.8,50.5 82.9,50.8 82.9,51.2 C83,51.5 83.1,51.9 83.1,52.4 C83.1,52.8 83.2,53.3 83.2,53.8 C83.2,54.3 83.2,54.8 83.1,55.4 C82.9,55.9 82.9,56.5 82.6,57 C82.4,57.5 82.2,58.1 81.8,58.6 C81.5,59.1 81.1,59.5 80.7,60 C80.3,60.4 79.8,60.8 79.4,61.1 C78.5,61.7 77.6,62.2 76.8,62.5 C75.3,63.1 74.1,63.2 74.1,63.2 Z" id="Shape" fill="#59402F"/>
            <path d="M83.9,57.1 C83.9,57.1 84.6,56.4 85.4,55 C85.6,54.7 85.8,54.3 86,53.9 C86.2,53.5 86.4,53.1 86.5,52.6 C86.6,52.4 86.7,52.2 86.7,51.9 C86.8,51.7 86.8,51.4 86.9,51.2 C87,50.7 87.1,50.2 87.2,49.7 C87.3,49.2 87.3,48.7 87.3,48.2 C87.3,47.7 87.3,47.2 87.2,46.7 C87.1,46.2 87.1,45.8 87,45.3 C86.9,44.9 86.8,44.5 86.7,44.1 C86.6,43.7 86.5,43.4 86.4,43.1 C86.3,42.8 86.2,42.5 86.2,42.3 C86.1,41.9 86,41.6 86,41.6 C86,41.6 86.1,41.8 86.3,42.2 C86.4,42.4 86.5,42.7 86.7,42.9 C86.9,43.2 87,43.5 87.1,43.9 C87.2,44.3 87.4,44.7 87.5,45.1 C87.6,45.5 87.7,46 87.8,46.5 C87.8,47 87.9,47.5 87.9,48 C87.9,48.5 87.9,49 87.8,49.6 C87.7,50.1 87.6,50.6 87.5,51.1 C87.4,51.3 87.4,51.6 87.3,51.8 C87.2,52 87.1,52.3 87,52.5 C86.8,53 86.6,53.4 86.4,53.8 C86.2,54.2 85.9,54.5 85.7,54.9 C85.2,55.5 84.8,56 84.4,56.3 C84.1,57 83.9,57.1 83.9,57.1 Z" id="Shape" fill="#59402F"/>
            <path d="M91.4,46.8 C91.4,46.8 91.2,46.6 91,46.3 C90.8,45.9 90.4,45.4 90.1,44.7 C89.8,44 89.5,43.2 89.3,42.3 C89.1,41.4 88.9,40.4 88.8,39.5 C88.7,39 88.7,38.5 88.7,38 C88.7,37.5 88.6,37 88.6,36.6 C88.5,35.7 88.6,34.8 88.6,34.1 C88.6,33.4 88.7,32.8 88.7,32.3 C88.7,31.9 88.8,31.6 88.8,31.6 C88.8,31.6 88.8,31.8 88.9,32.3 C88.9,32.7 89,33.3 89,34.1 C89,34.8 89.1,35.7 89.2,36.6 C89.3,37.5 89.4,38.5 89.5,39.4 C89.6,40.4 89.7,41.3 89.9,42.2 C90.1,43.1 90.3,43.9 90.5,44.6 C90.7,45.3 90.9,45.8 91.1,46.2 C91.3,46.6 91.4,46.8 91.4,46.8 Z" id="Shape" fill="#59402F"/>
            <path d="M65,0.6 C65,0.6 65.4,0.5 66.1,0.4 C66.4,0.4 66.9,0.4 67.3,0.4 C67.8,0.4 68.3,0.5 68.9,0.6 C69.5,0.7 70.1,0.8 70.8,1 C71.4,1.2 72.1,1.3 72.8,1.6 C73.5,1.8 74.2,2.1 74.9,2.4 C75.6,2.7 76.3,3.1 77,3.4 C77.7,3.7 78.4,4.2 79,4.5 C79.7,4.9 80.3,5.3 80.9,5.7 C82.1,6.5 83.2,7.3 84.1,8 C84.6,8.3 85,8.7 85.3,9 C85.7,9.3 86,9.6 86.2,9.8 C86.7,10.2 87,10.5 87,10.5 C87,10.5 86.7,10.3 86.1,9.9 C85.8,9.7 85.5,9.5 85.1,9.2 C84.7,8.9 84.3,8.6 83.8,8.3 C83.3,8 82.8,7.6 82.2,7.3 C81.7,6.9 81,6.6 80.4,6.2 C79.8,5.8 79.2,5.4 78.5,5.1 C77.8,4.7 77.2,4.3 76.5,4 C75.8,3.7 75.1,3.3 74.4,3 C73.7,2.7 73,2.4 72.4,2.1 C71.2,1.6 70,1.2 68.8,1 C68.2,0.9 67.7,0.8 67.2,0.7 C66.7,0.6 66.3,0.6 66,0.6 C65.4,0.6 65,0.6 65,0.6 Z" id="Shape" fill="#59402F"/>
          </g>
          <g transform="translate(51.000000, 0.000000)" id="Shape">
            <path d="M1,9.5 C1,9.5 2.7,1.3 7.3,0.7 C11.9,0.1 22.6,4.6 14.5,17.3" fill="#8D674A"/>
            <path d="M7.5,3.2 C7.5,3.2 7.9,3.8 8.2,4.7 C8.4,5.2 8.6,5.7 8.7,6.3 C8.9,6.9 9,7.6 9,8.2 C9,8.5 9,8.9 9,9.2 C8.9,9.5 8.9,9.9 8.8,10.2 C8.7,10.5 8.6,10.8 8.5,11.1 C8.4,11.4 8.3,11.6 8.1,11.8 C7.8,12.2 7.6,12.5 7.3,12.7 C7.1,12.9 7,13 7,13 C7,13 7.1,12.9 7.2,12.6 C7.3,12.5 7.4,12.3 7.5,12.2 C7.6,12 7.7,11.8 7.8,11.6 C7.9,11.4 8,11.1 8,10.9 C8.1,10.6 8.1,10.4 8.2,10.1 C8.3,9.8 8.3,9.5 8.3,9.2 C8.3,8.9 8.3,8.6 8.3,8.3 C8.3,7.7 8.2,7 8.1,6.5 C8,5.9 7.9,5.4 7.8,4.9 C7.7,3.8 7.5,3.2 7.5,3.2 Z" fill="#59402F"/>
            <g transform="translate(8.000000, 12.000000)" fill="#59402F">
              <path d="M1.8,0.2 C1.8,0.2 1.8,0.4 1.7,0.5 C1.6,0.7 1.5,0.9 1.3,1.1 C1.1,1.3 0.9,1.5 0.7,1.6 C0.5,1.7 0.4,1.7 0.4,1.7 C0.4,1.7 0.4,1.5 0.5,1.4 C0.6,1.2 0.7,1 0.9,0.8 C1.1,0.6 1.3,0.4 1.5,0.3 C1.6,0.3 1.8,0.2 1.8,0.2 Z"/>
              <path d="M3,1.6 C3,1.6 3,1.7 2.9,1.9 C2.8,2.1 2.7,2.2 2.6,2.4 C2.5,2.5 2.3,2.7 2.1,2.7 C1.9,2.8 1.8,2.8 1.8,2.8 C1.8,2.8 1.8,2.7 1.9,2.5 C2,2.3 2.1,2.2 2.2,2 C2.3,1.9 2.5,1.7 2.7,1.7 C2.8,1.6 3,1.6 3,1.6 Z"/>
            </g>
            <path d="M13.9,2.4 C13.9,2.4 13.6,2.3 13.2,2 C12.7,1.8 12,1.5 11.2,1.3 C11,1.2 10.8,1.2 10.5,1.1 C10.3,1.1 10,1 9.8,1 C9.6,1 9.3,1 9,1 C8.7,1 8.5,1 8.2,1 C7.9,1 7.7,1.1 7.4,1.1 C7.1,1.2 6.9,1.3 6.6,1.3 C6.3,1.4 6.1,1.5 5.8,1.6 C5.6,1.7 5.3,1.8 5.1,2 C4.7,2.4 4.2,2.7 3.9,3.1 C3.5,3.5 3.2,3.9 2.9,4.4 C2.7,4.9 2.3,5.3 2.2,5.8 C2,6.3 1.8,6.7 1.6,7.1 C1.4,7.5 1.3,7.9 1.2,8.2 C1.1,8.5 1,8.8 0.9,9.1 C0.7,9.6 0.6,9.9 0.6,9.9 C0.6,9.9 0.6,9.6 0.7,9.1 C0.7,8.8 0.8,8.5 0.9,8.2 C1,7.8 1,7.4 1.2,7 C1.3,6.6 1.5,6.1 1.7,5.6 C1.8,5.1 2.1,4.6 2.4,4.1 C2.6,3.6 3,3.1 3.4,2.6 C3.7,2.1 4.3,1.7 4.7,1.3 C4.9,1.1 5.2,1 5.5,0.8 C5.8,0.7 6,0.5 6.3,0.4 C6.6,0.3 6.9,0.2 7.2,0.2 C7.5,0.2 7.8,0.1 8.1,0.1 C8.4,0.1 8.7,0.1 8.9,0.1 C9.2,0.1 9.4,0.1 9.7,0.2 C10,0.3 10.2,0.3 10.4,0.4 C10.6,0.5 10.9,0.6 11.1,0.6 C11.5,0.7 11.9,0.9 12.2,1.1 C12.5,1.3 12.8,1.4 13,1.6 C13.7,2.2 13.9,2.4 13.9,2.4 Z" fill="#59402F"/>
          </g>
        </g>
      </g>
    </g>
  </g>
</svg>