<?xml version="1.0" encoding="utf-8"?>
<!-- Generator: Adobe Illustrator 18.0.0, SVG Export Plug-In . SVG Version: 6.00 Build 0)  -->
<!DOCTYPE svg PUBLIC "-//W3C//DTD SVG 1.1//EN" "http://www.w3.org/Graphics/SVG/1.1/DTD/svg11.dtd">
<svg version="1.1" id="Layer_2" xmlns="http://www.w3.org/2000/svg" xmlns:xlink="http://www.w3.org/1999/xlink" x="0px" y="0px"
	 viewBox="0 0 43.1 48.5" enable-background="new 0 0 43.1 48.5" xml:space="preserve">
<g>
	<path fill="#41A2F2" d="M43.1,1.1c0,0.6,0.1,1.3-0.2,1.8c-0.2,0.3-1,0.3-1.6,0.4C39.6,3.5,39,4.4,39,6.1c0.1,5.3,0.3,10.6,0.3,15.9
		c0,3.8-0.1,7.6-0.2,11.5c-0.1,2.3-1,4.4-2.2,6.4c-1.4,2.5-3.5,4.3-5.7,5.9c-2.4,1.6-5.1,2.8-8.1,2.7c-1.4,0-2.9,0-4.3-0.1
		c-2.1-0.2-4-0.9-5.9-2c-3.9-2.2-6.3-5.5-8-9.5c-0.5-1.3-0.5-2.8-0.7-4.2c-0.7-5-0.3-10-0.5-15.1c-0.1-1.9,0.1-3.8,0.1-5.8
		c0-2.1-0.1-4.3-0.1-6.4c0-0.8-0.3-1.3-1.1-1.5C1.9,3.8,1.3,3.5,0.7,3.4C0.2,3.4,0,3.2,0,2.7C0,2,0,1.3,0,0.6c1.7,0,3.2,0,4.8,0
		c2,0,4.1-0.1,6.1-0.2c1.2,0,2.4-0.1,3.5,0c0.2,0,0.5,0.3,0.5,0.5C15,1.5,15,2.1,15.1,2.7c0,0.4-0.2,0.5-0.6,0.6
		c-0.7,0.1-1.5,0.3-2.2,0.6c-0.7,0.3-1,0.9-1.2,1.7c-0.4,2.2,0,4.3,0,6.4c0,1.2-0.1,2.5-0.1,3.7c0,5.6-0.2,11.2,0.1,16.8
		c0.2,4.7,2.7,8.2,7.2,10c1.5,0.6,3.1,1.3,4.8,1.3c2.8,0.1,5-1.1,7-2.8c1.2-1,2.2-2.1,3.2-3.3c0.9-1,1.4-2.3,1.4-3.7
		c0.1-2.6,0.1-5.3,0.1-7.9c0.1-4.3-0.1-8.5,0.2-12.8c0.2-2.8,0.1-5.6-0.1-8.4c0-0.8-0.8-1.5-1.8-1.7c-0.5-0.1-1,0-1.4-0.2
		c-0.2-0.1-0.4-0.4-0.6-0.6c0,0,0-0.1,0-0.1c0-2.7-0.3-2.2,2.1-2.2c3-0.1,6-0.1,9-0.2C42.9,0,43.2,0.3,43.1,1.1
		C43.1,1,43.1,1,43.1,1.1z"/>
</g>
</svg>
