<?xml version="1.0" encoding="utf-8"?>
<!-- Generator: Adobe Illustrator 18.0.0, SVG Export Plug-In . SVG Version: 6.00 Build 0)  -->
<!DOCTYPE svg PUBLIC "-//W3C//DTD SVG 1.1//EN" "http://www.w3.org/Graphics/SVG/1.1/DTD/svg11.dtd">
<svg version="1.1" id="Layer_2" xmlns="http://www.w3.org/2000/svg" xmlns:xlink="http://www.w3.org/1999/xlink" x="0px" y="0px"
	 viewBox="0 0 39.9 51.5" enable-background="new 0 0 39.9 51.5" xml:space="preserve">
<g>
	<path fill="#F7941E" d="M39.9,32.1c-0.2-2-0.6-3.9-2.1-5.3c-0.3-0.3-0.6-0.7-0.9-1c-1-0.9-1.9-1.8-3-2.5c-0.9-0.6-2-1.1-3.1-1.6
		c0.2-0.1,0.3-0.2,0.5-0.2c3.8-1.6,5.2-4.8,5.4-8.7c0-0.7-0.2-1.4-0.3-2.1c-0.3-1.3-0.6-2.5-0.9-3.8c-0.3-1.3-1.4-2.1-2.3-2.9
		c-1.5-1.3-2.8-2.8-4.9-3.1c-1.8-0.2-3.6-0.7-5.4-0.8c-1.9-0.1-3.7,0-5.6,0c-2.8,0.1-5.6,0.2-8.4,0.2c-1.5,0-3,0-4.5,0
		C3.9,0.3,3.3,0.4,3,0.7C2,1.9,1.1,3.2,0.1,4.4C0,4.5,0,4.7,0,4.8c0,1.2,0,1.2,1.3,1.5c0.4,0.1,0.9,0.1,1.3,0.2c0.6,0.1,1,0.4,1,1.2
		c0,1.4,0,2.7,0,4.1c0,5.8,0,11.6-0.5,17.4v0.2C3,32,3,34.4,3,36.9c0,1.5,0.1,2.9,0,4.4c-0.1,1.6-0.2,3.1-0.4,4.6
		c0,0.3-0.3,0.5-0.4,0.7c-0.6,0.8-1.3,1.6-1.8,2.5C0,49.5,0,50.2,0.1,50.7c0,0.2,0.7,0.2,1.1,0.3c0.5,0.1,1,0.1,1.5,0.1
		c4.6,0.1,9.2,0.2,13.8,0.3c2.5,0,5.1,0.2,7.6,0c1.8-0.1,3.6-0.6,5.4-1.2c2.1-0.7,3.6-2.4,5.1-4c1.5-1.6,2.9-3.3,3.7-5.4
		C39.4,38,40.1,35.1,39.9,32.1z M37.7,40.4c-0.5,1.2-1.5,2.2-2.5,3.2c-0.7,0.8-1.6,1.5-2.5,2c-1.7,1-3.7,1.4-5.7,1.5
		c-5.4,0.2-10.8,0.3-16.2,0.3c-2.1,0-4.2-0.2-6.3-0.3c-0.3,0-0.5-0.3-0.8-0.5c0.2-0.2,0.4-0.6,0.7-0.7c0.3-0.1,0.7-0.1,1.1-0.1
		c1.5-0.1,1.9-0.5,2-2.1c0.1-2.1,0.2-4.2,0.3-6.4C8,35.2,8,33.1,8.1,31.1c0-2.4,0-4.8,0-7.1c0-2.3,0-4.6,0-6.8
		c0-3.7,0.2-7.4,0.1-11.1c0-1-0.4-2-0.8-2.9c-0.3-0.8-1.2-1-2-1.2c-0.5-0.1-1-0.2-1.5-0.4c0-0.1,0-0.2,0-0.3C4,1.2,4.2,1,4.5,1
		c2.9-0.1,5.8-0.2,8.7-0.3c3,0,6,0.1,8.9,0c2.2-0.1,4.2,0.4,6.2,0.9c0.6,0.2,1.4,0.2,1.8,0.5c1.3,1.1,2.6,2.2,3.8,3.5
		c1.2,1.2,1.6,2.8,1.9,4.5c0.3,1.9,0.4,3.8-0.2,5.7c-0.8,2.5-2.5,4-4.8,5c-0.8,0.3-1.6,0.5-2.6,0.7c0.4,0.2,0.5,0.2,0.8,0.3
		c2.3,0.7,4.6,1.5,6.4,3.2c1.6,1.5,3.2,3,3.7,5.3c0.2,1,0.3,2.1,0.4,3.1C39.4,35.9,38.7,38.3,37.7,40.4z"/>
	<path fill="#FFFFFF" d="M39,30.4c-0.5-2.3-2.1-3.8-3.7-5.3c-1.8-1.7-4.1-2.5-6.4-3.2c-0.2-0.1-0.4-0.1-0.8-0.3
		c1-0.3,1.8-0.4,2.6-0.7c2.3-1,4-2.4,4.8-5c0.6-1.9,0.5-3.8,0.2-5.7c-0.2-1.7-0.7-3.3-1.9-4.5c-1.2-1.2-2.4-2.4-3.8-3.5
		c-0.5-0.4-1.2-0.4-1.8-0.5c-2-0.5-4.1-1-6.2-0.9c-3,0.1-6,0-8.9,0c-2.9,0-5.8,0.2-8.7,0.3C4.2,1,4,1.2,3.8,1.2c0,0.1,0,0.2,0,0.3
		c0.5,0.1,1,0.3,1.5,0.4c0.8,0.2,1.6,0.4,2,1.2C7.7,4,8.1,5,8.2,6C8.2,9.7,8.1,13.4,8,17.1c0,2.3,0,4.6,0,6.8c0,2.4,0,4.8,0,7.1
		c0,2.1,0,4.2-0.1,6.2c-0.1,2.1-0.2,4.2-0.3,6.4c-0.1,1.5-0.5,2-2,2.1c-0.4,0-0.8,0-1.1,0.1c-0.3,0.1-0.5,0.5-0.7,0.7
		C4.1,46.7,4.4,47,4.6,47c2.1,0.1,4.2,0.3,6.3,0.3c5.4,0,10.8-0.1,16.2-0.3c2-0.1,3.9-0.5,5.7-1.5c0.9-0.5,1.8-1.2,2.5-2
		c0.9-1,1.9-2,2.5-3.2c1-2.2,1.7-4.5,1.6-6.9C39.3,32.5,39.2,31.4,39,30.4z M10.6,4.7c0,0,0.1,0,0.2-0.1C10.8,4.9,11,5.2,11,5.5
		c0.1,1.1,0.3,2.2,0.2,3.3c-0.4,4,0,8,0.2,12c0,0.8,0,0.8-0.8,0.9V4.7z M11.2,36.2c0,1.8,0,3.5,0,5.3c0,0.9-0.2,1.8-0.2,2.6
		c-0.1,0-0.2,0-0.3,0c0-0.8-0.1-1.5-0.1-2.3c0-5.1,0.1-10.1,0.2-15.2c0-0.2,0.2-0.4,0.4-0.6c0.1,0.2,0.3,0.4,0.3,0.6
		C11.3,29.9,11.3,33.1,11.2,36.2z M11,24.6c-0.5,0.1-0.8-0.3-0.8-0.8c0-0.2,0.3-0.5,0.4-0.7c0.1,0,0.2,0,0.3,0
		c0.2,0.3,0.5,0.6,0.6,0.9C11.6,24.2,11.2,24.5,11,24.6z M34.9,37c-0.3,1.4-1,2.7-1.8,3.9c-0.8,1-1.8,1.9-2.9,2.6
		c-3.8,2.2-7.9,2.6-12.2,1.9c-0.6-0.1-1.2,0-1.8,0c-1.7,0.1-2.3-0.5-2.3-2.1c0-4,0.1-7.9,0.1-11.9c0-2.5-0.3-5.1-0.3-7.7
		c0-5.5,0.1-11,0.1-16.5c0-0.9,0-1.8,0-2.7c-0.1-1.4,0.5-2,1.8-2.1c2.2-0.1,4.5-0.1,6.7,0c1.5,0.1,3,0.4,4.4,0.9
		c1.4,0.6,2.6,1.6,3.4,3c1.4,2.5,2,5.3,1.7,8.1c-0.2,1.6-1,3-1.9,4.3c-0.1,0.1-0.3,0.2-0.5,0.3c-3,1.6-6.1,2.8-9.5,2.5
		c-0.6,0-1.1,0.1-1.7,0.2c0,0.1,0,0.2,0,0.4c1.1,0.1,2.3,0.2,3.4,0.3c1.8,0.2,3.6,0.1,5.3,0.9c0.8,0.4,1.7,0.8,2.4,1.4
		c1.8,1.5,3.4,3.2,4.8,5.1C35.7,32.1,35.5,34.6,34.9,37z"/>
	<path fill="#F7941E" d="M34,29.8c-1.4-1.9-3-3.6-4.8-5.1c-0.7-0.6-1.6-1-2.4-1.4c-1.7-0.8-3.5-0.7-5.3-0.9
		c-1.1-0.1-2.3-0.2-3.4-0.3c0-0.1,0-0.2,0-0.4c0.5-0.1,1.1-0.2,1.7-0.2c3.5,0.3,6.6-0.9,9.5-2.5c0.2-0.1,0.3-0.2,0.5-0.3
		c0.9-1.3,1.8-2.8,1.9-4.3c0.3-2.9-0.3-5.6-1.7-8.1c-0.8-1.4-2-2.4-3.4-3c-1.4-0.5-2.9-0.8-4.4-0.9c-2.2-0.2-4.5-0.2-6.7,0
		c-1.3,0.1-1.9,0.6-1.8,2.1c0,0.9,0,1.8,0,2.7c0,5.5-0.1,11-0.1,16.5c0,2.6,0.2,5.1,0.3,7.7c0,4,0,7.9-0.1,11.9
		c0,1.7,0.5,2.2,2.3,2.1c0.6,0,1.2-0.1,1.8,0c4.3,0.8,8.4,0.4,12.2-1.9c1.1-0.6,2.2-1.5,2.9-2.6c0.8-1.1,1.4-2.5,1.8-3.9
		C35.5,34.6,35.7,32.1,34,29.8z M14.4,6.1c0.7,0,1.3,0,2,0.1c1.7,0.2,3.5,0.4,5.1,0.8c2.8,0.7,4.2,2.9,4.8,5.6
		c0.2,1,0.3,2.1,0.3,3.2c-0.1,1.9-0.7,3.3-2.5,4.3c-0.9,0.5-1.8,0.5-2.7,0.6c-0.4,0.1-0.9,0.1-1.3,0c-2-0.2-3.5,0.7-4.7,2.2
		c-0.2,0.3-0.5,0.6-0.8,0.8c-0.1,0-0.1-0.1-0.2-0.1V6.1z M26.4,44c-2.5,0.8-5,1-7.6,0.8c-1.1-0.1-2.2-0.1-3.3-0.2
		c-0.9-0.1-1.1-0.7-1.1-1.5c0.1-1.9,0.2-3.7,0.1-5.6c0-3.4-0.1-6.8-0.1-10.1c0-0.1,0-0.2,0-0.4c0.1,0,0.2-0.1,0.3-0.1
		c3.4,0.2,6.7,0.3,10,1.2c1.8,0.5,3,1.7,4,3.2c1.4,2,1.7,4.3,1.7,6.5C30.5,39.9,29,43.2,26.4,44z"/>
	<path fill="#F7941E" d="M11.3,26.7c0,3.2-0.1,6.4-0.1,9.6c0,1.8,0,3.5,0,5.3c0,0.9-0.2,1.8-0.2,2.6c-0.1,0-0.2,0-0.3,0
		c0-0.8-0.1-1.5-0.1-2.3c0-5.1,0.1-10.1,0.2-15.2c0-0.2,0.2-0.4,0.4-0.6C11.1,26.3,11.3,26.5,11.3,26.7z"/>
	<path fill="#F7941E" d="M10.6,21.7v-17c0,0,0.1,0,0.2-0.1C10.8,4.9,11,5.2,11,5.5c0.1,1.1,0.3,2.2,0.2,3.3c-0.4,4,0,8,0.2,12
		C11.5,21.6,11.4,21.6,10.6,21.7z"/>
	<path fill="#F7941E" d="M11.6,24c0,0.1-0.3,0.5-0.6,0.5c-0.5,0.1-0.8-0.3-0.8-0.8c0-0.2,0.3-0.5,0.4-0.7c0.1,0,0.2,0,0.3,0
		C11.2,23.4,11.5,23.7,11.6,24z"/>
</g>
</svg>
