<svg version="1.1" width="180" height="151" xmlns="http://www.w3.org/2000/svg" xmlns:xlink="http://www.w3.org/1999/xlink">
  <!-- Exported by Scratch - http://scratch.mit.edu/ -->
  <g id="ID0.7862224709242582" transform="matrix(0.949999988079071, 0, 0, 0.949999988079071, 0.4, -0.25)">
    <g id="Back_Wing">
      <path id="Outer_1_" fill="#279AFA" d="M 127.990 98.015 C 127.950 85.508 142.086 63.228 151.839 53.817 C 154.101 51.636 155.881 46.721 155.248 37.621 C 154.965 33.572 154.156 29.333 152.263 24.825 C 152.263 24.825 151.429 20.698 146.854 13.278 C 138.908 0.397 113.673 -9.307 117.698 18.131 C 118.902 26.346 123.201 34.745 125.760 38.213 C 124.114 37.405 115.943 32.789 112.690 36.848 C 108.529 42.042 124.306 53.849 124.306 53.849 C 120.177 52.222 114.597 51.111 112.928 54.404 C 110.588 59.027 118.645 65.946 118.645 65.946 C 116.240 66.153 111.977 66.017 111.191 68.356 C 110.405 70.695 113.874 75.594 115.435 76.943 C 110.950 77.445 108.696 79.432 108.671 81.390 C 108.453 83.472 111.545 87.621 116.314 90.685 C 113.599 95.845 116.527 101.508 118.897 102.714 C 121.166 103.870 123.367 103.651 125.546 102.355 C 126.574 101.753 127.999 100.524 127.990 98.015 L 127.990 98.015 Z "/>
      <path id="Inner_2_" fill="#0043A5" d="M 127.990 98.015 C 127.950 85.508 142.086 63.228 151.839 53.817 C 154.101 51.636 155.881 46.721 155.248 37.621 C 154.965 33.572 154.156 29.333 152.263 24.825 C 149.498 18.121 137.980 5.279 130.395 7.117 C 116.892 10.390 135.418 44.058 135.418 44.058 C 108.512 36.220 132.532 57.694 132.532 57.694 C 108.124 53.150 126.131 68.733 126.131 68.733 C 109.294 68.278 122.821 79.898 122.821 79.898 C 108.546 80.506 116.314 90.686 116.314 90.686 C 113.599 95.846 116.527 101.509 118.897 102.715 C 121.166 103.871 123.367 103.652 125.546 102.356 C 126.574 101.753 127.999 100.524 127.990 98.015 L 127.990 98.015 Z "/>
    </g>
    <path id="Back_Foot" fill="#FFA600" d="M 130.686 121.310 C 132.721 117.786 135.377 116.247 139.423 115.750 C 141.160 115.551 142.401 115.601 143.791 116.644 C 145.057 117.587 143.300 120.141 137.617 121.135 C 143.726 121.703 146.968 122.402 147.464 124.785 C 147.837 126.646 145.181 127.639 143.295 127.366 C 139.002 126.746 134.310 125.083 132.275 128.955 C 131.754 129.948 131.530 130.915 130.488 131.238 C 129.346 131.586 127.956 130.866 127.807 129.650 C 127.559 127.490 128.756 126.160 128.204 124.090 C 128.006 123.345 119.865 120.218 116.539 118.878 C 118.177 118.481 120.336 117.066 121.950 116.594 C 123.042 116.271 127.956 118.927 130.686 121.310 L 130.686 121.310 Z "/>
    <g id="Body">
      <path id="Body_1_" fill="#FF0600" d="M 138.129 96.332 C 138.286 95.398 138.547 94.419 138.914 93.380 C 141.045 87.342 145.449 83.755 151.558 81.731 C 152.506 81.417 153.496 81.126 154.509 80.867 C 158.995 79.721 163.960 79.285 168.067 81.051 C 167.399 80.238 166.601 79.422 165.623 78.606 C 152.534 67.682 136.428 73.208 121.866 82.300 C 110.714 89.261 82.369 108.442 74.698 107.021 C 49.534 88.461 40.603 91.392 38.615 95.370 C 36.768 99.135 41.030 103.326 44.440 105.883 C 38.312 106.930 34.760 106.504 34.353 110.714 C 33.979 114.573 39.467 115.118 43.303 116.112 C 39.893 117.532 36.996 119.780 38.312 122.557 C 39.591 125.257 46.126 125.825 50.104 124.688 C 47.973 128.666 44.990 137.900 54.243 134.581 C 62.835 131.498 67.739 126.768 74.985 120.943 C 86.208 132.592 102.830 137.849 110.928 134.723 C 125.102 129.253 133.538 116.258 138.441 101.480 C 137.936 99.861 137.817 98.187 138.129 96.332 L 138.129 96.332 Z "/>
      <path id="Eye_Spot" fill="#0043A5" d="M 151.558 81.730 C 152.506 81.416 153.496 81.125 154.509 80.866 C 148.634 76.028 140.651 76.857 133.297 80.160 C 128.658 82.248 125.474 87.261 128.367 91.126 C 131.853 95.784 136.254 96.704 138.130 96.332 C 138.287 95.398 138.548 94.419 138.915 93.380 C 141.045 87.341 145.449 83.754 151.558 81.730 L 151.558 81.730 Z "/>
      <path id="Beak" fill="#FFA600" d="M 169.885 82.014 C 169.302 81.636 168.694 81.319 168.067 81.049 C 163.960 79.283 158.995 79.719 154.509 80.865 C 153.497 81.124 152.506 81.415 151.558 81.729 C 145.449 83.753 141.045 87.340 138.914 93.378 C 138.548 94.417 138.287 95.396 138.129 96.330 C 137.817 98.185 137.936 99.859 138.440 101.477 C 139.036 103.389 140.178 105.220 141.898 107.159 C 145.770 111.528 152.676 113.924 157.365 110.195 C 153.458 108.916 151.488 104.993 151.985 100.908 C 163.900 96.840 172.566 115.451 175.142 127.332 C 188.522 98 169.885 82.014 169.885 82.014 L 169.885 82.014 Z "/>
    </g>
    <path id="Front_Foot" fill="#FFA600" d="M 125.140 136.018 C 128.806 131.493 132.904 129.912 138.733 130.116 C 141.233 130.224 144.099 131.197 144.579 133.637 C 145.445 138.042 134.918 135.626 132.787 137.757 C 140.600 136.762 147.908 141.207 148.076 144.685 C 148.185 147.399 144.210 148.208 141.605 147.400 C 135.675 145.562 129.417 142.162 125.674 147.178 C 124.715 148.465 124.182 149.783 122.637 150.005 C 120.946 150.241 119.142 148.912 119.204 147.160 C 119.337 144.053 122.029 142.282 121.010 139.391 C 119.432 134.915 111.051 132.216 105.689 129.413 C 108.093 129.219 111.760 127.954 113.609 126.249 C 115.596 126.959 121.814 132.040 125.140 136.018 L 125.140 136.018 Z "/>
    <g id="Eye">
      <path id="White" fill="#FFFFFF" d="M 148.317 83.162 C 153.030 88.447 145.089 96.276 138.093 91.077 C 135.362 89.047 135.809 85.119 137.351 83.365 C 139.871 80.497 145.521 80.025 148.317 83.162 L 148.317 83.162 Z "/>
      <path id="Pupil" fill="#272525" d="M 146.605 86.058 C 147.229 86.058 147.794 86.286 148.203 86.654 C 148.612 87.022 148.865 87.530 148.865 88.091 C 148.865 88.652 148.612 89.160 148.203 89.528 C 147.794 89.896 147.229 90.124 146.605 90.124 C 145.981 90.124 145.416 89.896 145.007 89.528 C 144.598 89.160 144.345 88.652 144.345 88.091 C 144.345 87.530 144.598 87.022 145.007 86.654 C 145.416 86.286 145.981 86.058 146.605 86.058 Z "/>
    </g>
    <g id="Front_Wing">
      <path id="Outer" fill="#279AFA" d="M 118.917 92.534 C 103.965 84.429 86.591 53.037 81.718 35.264 C 80.588 31.144 75.885 25.815 64.612 20.641 C 59.595 18.338 54.010 16.541 47.396 15.863 C 47.396 15.863 41.927 14.167 30.090 14.792 C 9.540 15.878 -18.489 39.667 16.878 52.749 C 27.466 56.666 40.292 57.010 46.099 56.217 C 44.062 57.655 33.227 64.398 35.951 70.925 C 39.437 79.278 63.810 68.144 63.810 68.144 C 59.176 72.011 54.214 77.946 57.057 82.084 C 61.047 87.890 74.557 82.786 74.557 82.786 C 73.236 85.791 70.295 90.789 72.574 93.252 C 74.853 95.714 82.960 94.767 85.589 93.785 C 83.265 99.465 84.166 103.449 86.486 104.754 C 88.829 106.372 95.797 105.386 102.560 101.694 C 106.949 108.298 115.615 108.493 118.599 106.451 C 121.458 104.498 122.630 101.727 122.506 98.282 C 122.456 96.661 121.917 94.161 118.917 92.534 L 118.917 92.534 Z "/>
      <path id="Inner_1_" fill="#0043A5" d="M 118.917 92.534 C 103.965 84.429 86.591 53.037 81.718 35.264 C 80.588 31.144 75.885 25.815 64.612 20.641 C 59.595 18.338 54.010 16.541 47.396 15.863 C 37.594 14.792 14.760 20.167 12.010 30.417 C 7.116 48.664 59.370 48.500 59.370 48.500 C 32.478 75.500 73.762 60.833 73.762 60.833 C 52.429 87 82.762 75.666 82.762 75.666 C 71.244 95.464 93.928 86.895 93.928 86.895 C 85.350 104.325 102.560 101.692 102.560 101.692 C 106.949 108.296 115.615 108.491 118.599 106.449 C 121.458 104.496 122.630 101.725 122.506 98.280 C 122.456 96.661 121.917 94.161 118.917 92.534 L 118.917 92.534 Z "/>
    </g>
  </g>
</svg>