<?xml version="1.0" encoding="utf-8"?>
<!-- Generator: Adobe Illustrator 18.0.0, SVG Export Plug-In . SVG Version: 6.00 Build 0)  -->
<!DOCTYPE svg PUBLIC "-//W3C//DTD SVG 1.1//EN" "http://www.w3.org/Graphics/SVG/1.1/DTD/svg11.dtd">
<svg version="1.1" id="Layer_2" xmlns="http://www.w3.org/2000/svg" xmlns:xlink="http://www.w3.org/1999/xlink" x="0px" y="0px"
	 viewBox="0 0 28.7 51.3" enable-background="new 0 0 28.7 51.3" xml:space="preserve">
<g>
	<path fill="#F7941E" d="M27.8,0C25.9,0.1,24,0.1,22,0.1c-2.6,0-5.2-0.1-7.8,0c-0.4,0-0.9,0.2-1.2,0.5c-1.2,1.3-2.2,2.6-3.3,3.9
		C9.4,4.8,9.5,6.7,9.9,6.9c0.2,0.1,0.4,0.1,0.6,0.2c0.4,0,0.9,0,1.3,0c1,0.1,2,0.2,2.3,1.4c0.2,0.8,0.6,1.5,0.7,2.3
		c0.2,2.2,0.2,4.4,0.2,6.6c0,2.7,0,5.3-0.1,8c-0.1,2.8-0.1,5.7-0.3,8.5c-0.2,2.5-0.4,4.9-0.8,7.4C13.4,44,11,44.9,8.5,44
		c0.4-0.3,0.7-0.5,1-0.7c0.3-0.3,0.7-0.5,0.9-0.9c0.9-1.4,0.7-3.7-0.3-5c-0.3-0.3-0.7-0.6-1.1-0.7c-1.9-0.5-3.7-0.2-5.3,1
		c-1.1,0.8-2.2,1.7-3,2.8c-1.5,2-0.5,5.9,1.1,7.5c2.1,2.1,4.6,3.1,7.5,3.2c0.9,0,1.8,0,2.7-0.1c2-0.3,3.9-1.2,5.6-2.4
		c2.1-1.5,3.8-3.4,4.9-5.7c1.8-4,2.8-8.3,2.8-12.7c0-3.2-0.1-6.5-0.1-9.7c0-5.3,0-10.6-0.1-16c0-1.8,1-2.2,2.4-2.4
		c1.1-0.1,1.2-0.1,1.2-1.3c0-0.1,0-0.2,0-0.2C28.8,0.1,28.4,0,27.8,0z M28,1.5c-0.6,0.1-1.1,0.2-1.7,0.3C25.3,2,24.6,2.9,24.6,4
		c0,2.5,0.1,5,0.1,7.5c0,1.5,0,3,0,4.6c0,4.3,0.2,8.5,0.2,12.8c0,4.8-0.8,9.6-2.9,14c-1.1,2.4-3.1,4-5.8,4.4
		c-1.3,0.2-2.6,0.4-3.9,0.5c-2.4,0.2-4.5-0.6-6.1-2.2c-1.6-1.7-2.5-3.8-1.8-6.3c0.4-1.4,1.2-1.9,2.6-1.9c0.2,0,0.3,0,0.5,0
		c2,0,2.4,0.3,3,2.3c0.4,1.3-0.1,2.5-1.4,3.3c-0.4,0.3-0.9,0.5-1.4,0.7c-0.2,0.1-0.4,0.2-0.4,0.3c0,0.2,0.1,0.4,0.3,0.5
		c1.6,1,5.4,1.4,7,0.1c2.2-1.8,3.4-4.1,4-6.9c0.7-3.2,0.2-6.4,0.3-9.7c0.1-2.9,0.3-5.7,0.2-8.6c0-3.3-0.2-6.6-0.3-9.9
		c-0.1-1.5,0-2.9-0.2-4.4c-0.1-1.2-0.5-2.4-1.9-2.8C16.1,2,15.8,2,15.5,2c-1.1-0.1-1.2-0.2-1.2-1.3H28V1.5z"/>
	<path fill="#FFFFFF" d="M14.3,0.7c0,1.1,0.1,1.3,1.2,1.3c0.3,0,0.6,0,0.9,0.1c1.4,0.4,1.8,1.6,1.9,2.8c0.2,1.5,0.1,2.9,0.2,4.4
		c0.1,3.3,0.3,6.6,0.3,9.9c0,2.9-0.2,5.7-0.2,8.6c-0.1,3.2,0.5,6.4-0.3,9.7c-0.6,2.7-1.8,5-4,6.9c-1.6,1.4-5.4,0.9-7-0.1
		c-0.2-0.1-0.3-0.3-0.3-0.5c0-0.1,0.3-0.2,0.4-0.3c0.5-0.2,1-0.4,1.4-0.7c1.3-0.8,1.8-2,1.4-3.3c-0.6-2-1-2.3-3-2.3
		c-0.1,0-0.3,0-0.5,0c-1.4,0-2.2,0.6-2.6,1.9c-0.7,2.5,0.2,4.6,1.8,6.3c1.6,1.6,3.7,2.5,6.1,2.2c1.3-0.1,2.6-0.3,3.9-0.5
		c2.7-0.4,4.7-2,5.8-4.4c2.1-4.4,2.9-9.1,2.9-14c0-4.3-0.1-8.5-0.2-12.8c0-1.5,0-3.1,0-4.6c0-2.5-0.1-5-0.1-7.5
		c0-1.1,0.8-1.9,1.8-2.2c0.5-0.1,1.1-0.2,1.7-0.3V0.7H14.3z M21,5.2c0.1,0,0.2,0,0.3,0c0.1,0.4,0.2,0.8,0.2,1.1
		c0.1,4.2,0.2,8.4,0.2,12.6c0,0.2-0.2,0.4-0.4,0.7c-0.1-0.2-0.3-0.5-0.3-0.7c0-1.5,0.1-2.9,0.1-4.4c0-2-0.2-4.1-0.2-6.1
		C20.8,7.3,20.9,6.2,21,5.2z M21.4,37.9c-0.3,1-0.8,1.8-1.2,2.7c-0.1,0-0.3-0.1-0.4-0.2c2.1-4.6,1.7-9.5,1.8-14.5
		c0.5,0,0.7,0.4,0.7,0.8C22.2,30.6,22.4,34.3,21.4,37.9z M21.4,23.3c-0.1,0-0.5-0.3-0.5-0.5c0-0.5,0.3-0.9,0.9-0.9
		c0.2,0,0.5,0.3,0.9,0.6C22.2,22.8,21.8,23.1,21.4,23.3z"/>
	<path fill="#F7941E" d="M21.7,18.9c0,0.2-0.2,0.4-0.4,0.7c-0.1-0.2-0.3-0.5-0.3-0.7c0-1.5,0.1-2.9,0.1-4.4c0-2-0.2-4.1-0.2-6.1
		c0-1,0.1-2.1,0.1-3.1c0.1,0,0.2,0,0.3,0c0.1,0.4,0.2,0.8,0.2,1.1C21.5,10.5,21.6,14.7,21.7,18.9z"/>
	<path fill="#F7941E" d="M22.3,26.9c-0.1,3.7,0.2,7.4-0.8,11.1c-0.3,1-0.8,1.8-1.2,2.7c-0.1,0-0.3-0.1-0.4-0.2
		c2.1-4.6,1.7-9.5,1.8-14.5C22.1,26,22.3,26.4,22.3,26.9z"/>
	<path fill="#F7941E" d="M22.7,22.4c-0.6,0.4-0.9,0.7-1.3,0.9c-0.1,0-0.5-0.3-0.5-0.5c0-0.5,0.3-0.9,0.9-0.9
		C22.1,21.9,22.3,22.1,22.7,22.4z"/>
</g>
</svg>
