<svg version="1.1" width="59" height="81" xmlns="http://www.w3.org/2000/svg" xmlns:xlink="http://www.w3.org/1999/xlink">
  <!-- Exported by Scratch - http://scratch.mit.edu/ -->
  <g id="ID0.4446126422844827">
    <path id="ID0.08609286043792963" d="M 283 352 C 284 352 285 352 286 352 C 294.197 352 294.483 351.911 297 352 C 309.032 354.021 326.416 349.779 339 354 C 341.137 366.727 341.681 368.617 340 372 C 331.603 383.495 319.313 394.653 312 405 C 317.883 407.838 327.574 399.918 338 401 C 339.091 407.350 337.847 416.666 339 425 C 336.838 427.255 335.589 424.172 332 425 C 331.292 428.708 333.708 429.292 333 433 C 314.175 434.850 294.735 432.982 282 439 C 281.333 439 280.667 439 280 439 C 276.851 431.317 279.518 423.658 277 415 C 287.648 403.314 295.798 389.131 307 378 C 296.175 376.624 287.325 382.169 278 379 C 277.223 370.523 278.060 368.017 277 361 C 277.726 358.726 283.921 361.921 283 358 C 283 356 283 354 283 352 Z M 287 357 C 285.933 359.847 285.933 363.968 287 368 C 301.546 369.645 310.060 364.269 321 368 C 316.966 380.966 304.136 385.136 301 399 C 294.458 405.012 282.519 414.415 288 426 C 304.922 425.989 322.726 419.361 335 421 C 333.689 414.951 337.708 410.940 334 405 C 323.883 406.889 310.966 411.291 303 412 C 308.688 392.667 335.615 385.965 336 358 C 317.319 356.659 304.270 357.527 287 357 Z " transform="matrix(0.9181709885597229, 0, 0, 0.9181709885597229, -254.25, -322.2)"/>
    <path id="ID0.5058415131643414" fill="#FF9400" d="M 336 358 C 335.615 385.965 308.688 392.667 303 412 C 310.966 411.291 323.883 406.889 334 405 C 337.708 410.940 333.689 414.951 335 421 C 322.726 419.361 304.922 425.989 288 426 C 282.519 414.415 294.458 405.012 301 399 C 304.136 385.136 316.966 380.966 321 368 C 310.060 364.269 301.546 369.645 287 368 C 285.933 363.968 285.933 359.847 287 357 C 304.270 357.527 317.319 356.659 336 358 Z " transform="matrix(0.9181709885597229, 0, 0, 0.9181709885597229, -254.25, -322.2)"/>
  </g>
</svg>