<svg version="1.1" width="44" height="77" xmlns="http://www.w3.org/2000/svg" xmlns:xlink="http://www.w3.org/1999/xlink">
  <!-- Exported by Scratch - http://scratch.mit.edu/ -->
  <g id="ID0.0413050539791584">
    <g id="ID0.6539395335130394">
      <g id="ID0.833999352529645">
        <path id="ID0.426238551735878" fill="#00CCCC" d="M 41.515 69.653 C 40.795 70.723 39.895 71.673 38.845 72.433 C 37.415 73.483 35.685 74.393 33.395 75.293 C 32.115 75.793 30.745 76.053 29.375 76.053 C 29.165 76.053 28.965 76.053 28.755 76.043 L 22.755 75.703 L 16.405 75.703 C 16.175 75.703 15.935 75.693 15.705 75.683 C 14.335 75.593 13.475 75.543 13.145 75.523 C 12.615 75.503 12.075 75.443 11.555 75.353 C 6.405 74.423 2.475 71.233 0.755 66.603 C 0.705 66.483 0.665 66.373 0.635 66.263 C -0.165 63.883 -0.905 59.143 3.045 54.023 C 4.965 51.533 7.105 50.113 8.945 49.303 L 8.945 39.713 C 8.885 37.733 8.885 35.733 8.945 33.753 L 8.945 27.723 C 6.475 26.683 4.345 25.033 2.705 22.833 C 1.995 21.893 1.445 20.853 1.075 19.733 C 0.575 18.253 0.325 16.753 0.325 15.273 C 0.325 12.133 1.555 1.753 17.365 0.193 C 20.295 -0.117 23.425 -0.057 26.335 0.403 C 27.875 0.563 29.445 0.723 31.045 0.883 C 40.465 1.663 42.865 8.363 43.375 10.403 C 43.415 10.593 43.455 10.773 43.495 10.953 C 43.685 11.953 43.785 12.953 43.785 13.953 C 43.785 19.333 40.855 23.823 36.045 26.153 L 36.045 49.343 C 36.665 49.613 37.255 49.923 37.825 50.283 C 38.005 50.393 38.175 50.503 38.345 50.623 C 40.435 52.103 43.055 54.943 43.705 60.073 C 43.725 60.293 43.755 60.513 43.765 60.733 C 44.035 64.893 42.685 67.873 41.515 69.653 Z "/>
      </g>
    </g>
    <g id="ID0.07091213669627905">
      <path id="ID0.5514666894450784" fill="#FFFFFF" d="M 32.700 13.071 C 32.758 13.365 32.788 13.658 32.788 13.951 C 32.788 15.358 31.850 16.268 29.974 16.678 C 28.391 16.796 26.836 16.942 25.312 17.117 C 24.842 17.177 24.637 17.470 24.697 17.997 C 24.755 18.467 24.813 18.935 24.873 19.404 C 24.873 20.871 24.931 23.010 25.049 25.825 L 25.049 58.898 C 25.582 59.016 26.799 59.075 28.696 59.075 C 30.238 59.016 31.335 59.193 31.988 59.602 C 32.403 59.896 32.671 60.512 32.789 61.450 C 32.847 62.329 32.701 63.033 32.351 63.560 C 31.708 64.031 30.716 64.528 29.373 65.056 L 23.065 64.703 L 20.962 64.703 C 18.859 64.703 17.340 64.703 16.405 64.703 C 14.593 64.587 13.631 64.527 13.515 64.527 C 12.228 64.294 11.411 63.707 11.062 62.768 C 10.885 62.240 11.114 61.567 11.749 60.745 C 12.383 59.925 13.045 59.426 13.735 59.250 C 15.345 59.309 17.416 59.133 19.946 58.722 C 19.946 55.439 19.946 49.046 19.946 39.547 C 19.886 37.671 19.886 35.794 19.946 33.917 C 19.946 31.572 19.946 29.930 19.946 28.991 L 19.946 23.097 C 20.004 21.690 19.858 19.814 19.506 17.468 C 17.453 17.820 16.134 17.995 15.548 17.995 C 13.730 17.995 12.382 17.410 11.502 16.236 C 11.384 15.883 11.326 15.562 11.326 15.268 C 11.326 12.981 13.701 11.604 18.451 11.133 C 20.679 10.900 22.818 10.957 24.872 11.310 C 26.572 11.486 28.303 11.662 30.061 11.837 C 31.645 11.958 32.525 12.367 32.700 13.071 Z "/>
    </g>
  </g>
</svg>