<svg version="1.1" width="504" height="381" viewBox="-1 -1 504 381" xmlns="http://www.w3.org/2000/svg" xmlns:xlink="http://www.w3.org/1999/xlink">
  <defs>
    <radialGradient id="grad_1" cx="0.5233" cy="0.2896" r="0.92352">
      <stop offset="0" stop-color="#C08BF5" stop-opacity="1"/>
      <stop offset="1" stop-color="#6E28B4" stop-opacity="1"/>
    </radialGradient>
    <radialGradient id="grad_2" cx="114.6187" cy="-0.0625" r="76.7554" gradientUnits="userSpaceOnUse">
      <stop offset="0" stop-color="#FCFCF1"/>
      <stop offset="0.2699" stop-color="#FDE754"/>
      <stop offset="0.7423" stop-color="#EEBA31"/>
      <stop offset="1" stop-color="#E6A124"/>
    </radialGradient>
    <radialGradient id="grad_3" cx="0.6718999999999999" cy="0.33899999999999997" r="0.87347">
      <stop offset="0" stop-color="#FF99E5" stop-opacity="1"/>
      <stop offset="1" stop-color="#FF00BF" stop-opacity="1"/>
    </radialGradient>
    <radialGradient id="grad_4" cx="397.998" cy="-3.2949" r="76.7551" gradientUnits="userSpaceOnUse">
      <stop offset="0" stop-color="#FFFFFF"/>
      <stop offset="1" stop-color="#D7DF23"/>
    </radialGradient>
    <radialGradient id="grad_5" cx="418.417" cy="29.4404" r="76.7547" gradientUnits="userSpaceOnUse">
      <stop offset="0" stop-color="#FCFCF1"/>
      <stop offset="0.2577" stop-color="#F7941E"/>
      <stop offset="0.7423" stop-color="#EF4136"/>
      <stop offset="1" stop-color="#BE1E2D"/>
    </radialGradient>
    <linearGradient id="grad_6" x1="393.7021" y1="-132.3242" x2="396.8778" y2="-41.3831" gradientUnits="userSpaceOnUse">
      <stop offset="0" stop-color="#2E368F"/>
      <stop offset="0.0234" stop-color="#333590"/>
      <stop offset="0.3273" stop-color="#583393"/>
      <stop offset="0.6019" stop-color="#6E3894"/>
      <stop offset="0.8354" stop-color="#7C3895"/>
      <stop offset="1" stop-color="#803895"/>
    </linearGradient>
    <radialGradient id="grad_7" cx="0.43450000000000005" cy="0.2967" r="0.91429">
      <stop offset="0" stop-color="#99FFBB" stop-opacity="1"/>
      <stop offset="1" stop-color="#009933" stop-opacity="1"/>
    </radialGradient>
    <radialGradient id="grad_8" cx="0.5451" cy="0.36450000000000005" r="0.8261499999999999">
      <stop offset="0" stop-color="#00FFFF" stop-opacity="1"/>
      <stop offset="1" stop-color="#0033CC" stop-opacity="1"/>
    </radialGradient>
    <radialGradient id="grad_9" cx="0.5292" cy="0.3013" r="0.9083100000000001">
      <stop offset="0" stop-color="#FFFF99" stop-opacity="1"/>
      <stop offset="1" stop-color="#FF9400" stop-opacity="1"/>
    </radialGradient>
    <radialGradient id="grad_10" cx="0.2641" cy="0.34740000000000004" r="0.95667">
      <stop offset="0" stop-color="#CC99FF" stop-opacity="1"/>
      <stop offset="1" stop-color="#4C0099" stop-opacity="1"/>
    </radialGradient>
    <radialGradient id="grad_11" cx="0.514" cy="0.3191" r="0.88517">
      <stop offset="0" stop-color="#99FFBB" stop-opacity="1"/>
      <stop offset="1" stop-color="#009933" stop-opacity="1"/>
    </radialGradient>
    <radialGradient id="grad_12" cx="0.6397999999999999" cy="0.4036" r="0.8317399999999999">
      <stop offset="0" stop-color="#00FFFF" stop-opacity="1"/>
      <stop offset="1" stop-color="#0033CC" stop-opacity="1"/>
    </radialGradient>
    <radialGradient id="grad_13" cx="353.8037" cy="17.3213" r="76.7547" gradientUnits="userSpaceOnUse">
      <stop offset="0" stop-color="#FFFFFF"/>
      <stop offset="1" stop-color="#EC008C"/>
    </radialGradient>
    <radialGradient id="grad_14" cx="0.5922" cy="0.39899999999999997" r="0.7813">
      <stop offset="0" stop-color="#FFC341" stop-opacity="1"/>
      <stop offset="1" stop-color="#FF7320" stop-opacity="1"/>
    </radialGradient>
    <radialGradient id="grad_15" cx="0.55" cy="0.2616" r="0.95992">
      <stop offset="0" stop-color="#CC99FF" stop-opacity="1"/>
      <stop offset="1" stop-color="#4C0099" stop-opacity="1"/>
    </radialGradient>
    <radialGradient id="grad_16" cx="0.3555" cy="0.2829" r="0.93223">
      <stop offset="0" stop-color="#FF9DF8" stop-opacity="1"/>
      <stop offset="1" stop-color="#FF308B" stop-opacity="1"/>
    </radialGradient>
    <radialGradient id="grad_17" cx="58.4385" cy="200.8369" r="76.7552" gradientUnits="userSpaceOnUse">
      <stop offset="0" stop-color="#FCFCF1"/>
      <stop offset="0.2699" stop-color="#FDE754"/>
      <stop offset="0.7423" stop-color="#EEBA31"/>
      <stop offset="1" stop-color="#E6A124"/>
    </radialGradient>
    <radialGradient id="grad_18" cx="0.33130000000000004" cy="0.4587" r="0.86931">
      <stop offset="0" stop-color="#FF9DF8" stop-opacity="1"/>
      <stop offset="1" stop-color="#FF308B" stop-opacity="1"/>
    </radialGradient>
  </defs>
  <!-- Exported by Scratch - http://scratch.mit.edu/ -->
  <path id="ID0.07641608640551567" fill="#FFFFFF" stroke="#FFFFFF" stroke-width="2" d="M 0 0 L 479 0 L 479 286 L 0 286 L 0 0 Z "/>
  <g id="ID0.909210252109915">
    <g id="ID0.5962806497700512">
      <g id="ID0.13276191987097263">
        <path id="ID0.3390429518185556" fill="#F7941E" d="M 120.333 91.500 C 122.750 91.620 124.594 92.515 126.215 94.304 C 127.062 95.238 127.602 96.425 128.071 97.578 C 128.426 98.449 128.709 102.032 128.920 99.471 C 128.480 104.815 124.597 107.660 119.666 105.168 C 119.666 106.835 119.666 108.501 119.666 110.168 C 121.176 110.678 123.140 108.393 124.333 107.668 C 127.657 105.646 128.925 110.700 129.038 113.001 C 129.040 111.364 129.042 109.727 129.045 108.090 C 128.786 111.286 123.854 122.158 120.333 115.834 C 120.333 117.501 120.333 119.167 120.333 120.834 C 129.889 122.141 125.846 137.439 123.666 143.167 C 123.107 144.635 124.215 146.725 123.666 148.167 C 126.020 141.981 131.193 117.318 120.333 115.834 C 120.569 115.866 120.062 120.349 120.333 120.834 C 122.720 125.122 126.140 120.834 127.642 118.118 C 129.077 115.523 129.077 112.777 129.069 109.926 C 129.062 107.366 129.070 103.093 126.135 102.205 C 123.687 101.464 121.986 105.953 119.666 105.168 C 120.204 105.350 119.064 109.864 119.666 110.168 C 126.741 113.744 129.014 106.932 129.030 101.114 C 129.047 95.021 128.052 86.883 120.332 86.501 C 120.378 86.502 120.213 91.494 120.333 91.500 L 120.333 91.500 Z "/>
      </g>
    </g>
    <path id="ID0.03616762487217784" fill="url(#grad_1)" d="M 71.634 87.040 C 78.745 111.041 59.109 139.486 50.836 142.886 C 41.814 146.594 8.704 131.793 1.592 107.791 C -5.518 83.790 4.397 59.686 23.738 53.955 C 43.080 48.225 64.523 63.039 71.634 87.040 Z " transform="matrix(1, 0, 0, 1, -2, 1)"/>
    <path id="ID0.5689278179779649" fill="url(#grad_2)" d="M 163.742 49.638 C 159.190 74.253 128.786 90.694 119.870 89.970 C 110.148 89.181 87.357 60.970 91.908 36.353 C 96.460 11.738 116.232 -5.244 136.068 -1.577 C 155.903 2.092 168.294 25.022 163.742 49.638 Z "/>
    <path id="ID0.6952885356731713" fill="url(#grad_3)" d="M 489.757 130.181 C 487.452 155.108 458.660 174.233 449.717 174.318 C 439.962 174.413 414.711 148.380 417.016 123.453 C 419.322 98.527 437.475 79.825 457.561 81.682 C 477.648 83.540 492.062 105.254 489.757 130.181 Z "/>
    <g id="ID0.18077351385727525">
      <path id="ID0.972966393455863" fill="url(#grad_4)" d="M 442.985 97.989 C 438.433 122.604 408.029 139.045 399.113 138.321 C 389.390 137.532 366.599 109.321 371.150 84.704 C 375.703 60.089 395.474 43.107 415.310 46.774 C 435.146 50.443 447.537 73.374 442.985 97.989 Z " transform="matrix(1, 0, 0, 1, 24, -45)"/>
      <g id="ID0.2594972983933985">
        <g id="ID0.3901972258463502">
          <path id="ID0.795583619736135" fill="#8DC63F" d="M 399.667 137.833 C 397.128 137.331 393.645 136.878 393.319 140.259 C 393.149 142.030 393.127 144.078 393.332 145.848 C 394.049 152.024 399.797 156.832 400.334 162.832 C 400.334 161.165 400.334 159.499 400.334 157.832 C 399.994 161.626 397.121 164.198 395.099 167.214 C 393.696 169.308 393.611 171.443 393.611 173.832 C 393.611 176.263 393.533 178.690 394.250 181.037 C 395.810 186.150 399.843 181.089 401.001 178.831 C 401.338 178.175 400.522 174.025 401.001 173.831 C 393.327 176.931 393.061 185.733 394.335 192.831 C 394.046 191.224 394.626 189.451 394.335 187.831 C 394.132 186.924 394.006 186.005 393.958 185.076 C 393.966 185.489 393.973 185.902 393.980 186.314 C 393.977 185.864 393.975 185.415 393.973 184.964 C 393.966 186.218 393.959 187.472 393.952 188.726 C 394.375 183.995 396.539 180.633 401.001 178.831 C 401.001 177.164 401.001 175.498 401.001 173.831 C 400.011 175.761 398.884 178.195 396.419 178.250 C 393.694 178.311 393.681 172.824 393.644 171.421 C 393.642 173.058 393.639 174.695 393.637 176.332 C 394.283 171.725 398.249 168.995 399.981 164.869 C 400.798 162.921 400.417 159.971 400.342 157.921 C 400.119 151.803 393.472 146.984 393.333 140.600 C 393.329 142.153 393.325 143.705 393.320 145.258 C 393.645 141.877 397.129 142.330 399.668 142.832 C 399.387 142.778 400.021 137.903 399.667 137.833 L 399.667 137.833 Z " transform="matrix(1, 0, 0, 1, 24, -45)"/>
        </g>
      </g>
    </g>
    <g id="ID0.4335021679289639">
      <g id="ID0.7858876697719097">
        <path id="ID0.9400746240280569" fill="#009933" d="M 80.333 94.167 C 82.926 95.021 84.957 96.169 85.351 99.048 C 85.344 97.794 85.337 96.540 85.330 95.286 C 85.328 95.560 85.327 95.834 85.325 96.108 C 85.332 95.695 85.339 95.283 85.346 94.870 C 84.649 100.502 79.733 105.052 79.636 110.746 C 79.606 112.522 79.617 114.301 79.660 116.077 C 79.685 117.103 81.293 117.797 82 118.250 C 83.885 119.457 84.263 120.229 84.520 122.434 C 84.520 120.767 84.520 119.101 84.520 117.434 C 83.909 124.770 80.017 135.917 85.667 142.167 C 84.855 141.269 86.513 138.103 85.667 137.167 C 84.239 135.587 82.963 133.968 82.935 131.733 C 82.929 133.155 82.923 134.578 82.917 136.001 C 83.344 130.862 84.530 125.755 84.544 120.599 C 84.548 118.978 84.521 117.444 84.333 115.834 C 84.016 113.113 79.723 113.307 79.655 110.494 C 79.653 112.131 79.651 113.768 79.648 115.405 C 80.402 108.274 92.524 93.181 80.333 89.167 C 80.794 89.318 79.805 93.992 80.333 94.167 L 80.333 94.167 Z " transform="matrix(1, 0, 0, 1, 13, 2)"/>
      </g>
    </g>
    <g id="ID0.43693031184375286">
      <g id="ID0.24021239578723907">
        <g id="ID0.5392833999358118">
          <path id="ID0.6169458548538387" fill="#FF9400" d="M 431 234.273 C 433.604 235.844 434.718 238.572 434.763 241.549 C 434.767 239.995 434.772 238.443 434.776 236.890 C 434.496 240.536 432.771 243.313 429.001 243.939 C 429.010 244.772 429.018 245.606 429.026 246.439 C 429.026 245.550 429.026 244.662 429.026 243.773 C 429.017 244.606 429.009 245.440 429.001 246.273 C 432.370 247.126 434.286 249.616 434.656 253.026 C 434.648 252.192 434.639 251.359 434.632 250.526 C 434.632 250.800 434.632 251.076 434.632 251.351 C 434.640 250.518 434.649 249.684 434.656 248.851 C 434.248 252.479 431.917 254.386 428.335 254.606 C 428.424 254.600 428.054 259.246 428.335 259.606 C 431.786 264.039 429.988 271.697 431.668 276.939 C 431.188 275.439 432.155 273.460 431.668 271.939 C 430.005 266.747 431.776 259.025 428.335 254.606 C 428.335 256.273 428.335 257.939 428.335 259.606 C 437.352 259.052 436.963 243.289 429.001 241.273 C 429.064 241.289 428.976 243.629 428.976 243.773 C 428.976 244.662 428.976 245.550 428.976 246.439 C 428.976 246.574 429.034 248.934 429.001 248.939 C 436.725 247.657 436.958 232.868 431.001 229.273 C 431.709 229.701 430.235 233.812 431 234.273 L 431 234.273 Z " transform="matrix(1, 0, 0, 1, -4.25, -160.5)"/>
        </g>
      </g>
      <path id="ID0.3335471940226853" fill="url(#grad_5)" d="M 477.684 59.599 C 469.085 83.108 436.363 94.240 427.694 92.037 C 418.239 89.636 400.480 58.015 409.078 34.504 C 417.678 10.995 440.008 -2.447 458.952 4.482 C 477.897 11.413 486.282 36.089 477.684 59.599 Z " transform="matrix(1, 0, 0, 1, -1.5, -17.5)"/>
    </g>
    <path id="ID0.5851512253284454" fill="url(#grad_6)" d="M -0.710 285.709 L 479.291 285.709 L 479.291 360 L -0.710 360 L -0.710 285.709 Z "/>
    <g id="ID0.1777151026763022">
      <g id="ID0.8621723703108728">
        <g id="ID0.10313070099800825">
          <path id="ID0.37551852921023965" fill="#8DC63F" d="M 271 65.500 C 273.824 65.615 276.108 66.539 277.992 68.675 C 278.828 69.623 279.338 70.823 279.765 71.993 C 280.035 72.732 280.161 73.517 280.290 74.289 C 279.954 72.280 280.142 74.165 279.975 74.926 C 279.333 77.844 277.615 80.396 275.245 82.175 C 274.146 82.999 267.773 85.433 267.435 83.258 C 267.435 84.925 267.435 86.591 267.435 88.258 C 267.634 86.423 268.714 84.825 270.321 83.938 C 273.641 82.106 276.068 88.852 276.426 90.870 C 276.418 89.616 276.411 88.362 276.404 87.108 C 276.401 87.561 276.398 88.014 276.395 88.467 C 276.402 88.054 276.410 87.641 276.416 87.229 C 275.684 91.486 273.098 94.672 269.666 97.167 C 269.210 97.499 270.022 102.114 269.666 102.167 C 271.266 101.932 272.783 101.827 274.198 102.717 C 274.625 102.985 274.884 103.446 275.124 103.868 C 276.353 106.022 275.641 102.013 275.338 103.906 C 274.666 108.110 272.866 112.183 271.345 116.131 C 269.328 121.364 267.489 126.472 268.333 132.168 C 268.092 130.543 268.575 128.803 268.333 127.168 C 268.923 131.145 268.173 130.976 268.608 129.047 C 268.829 128.074 269.157 127.124 269.471 126.179 C 270.139 124.174 270.929 122.208 271.689 120.237 C 273.204 116.307 274.791 112.330 275.459 108.152 C 276.269 103.086 276.535 96.156 269.666 97.168 C 269.666 98.835 269.666 100.501 269.666 102.168 C 276.474 97.218 279.631 86.302 273.228 79.581 C 270.593 76.816 267.465 81.069 267.421 83.601 C 267.374 86.369 266.370 88.891 269.630 88.944 C 283.531 89.172 285.147 61.075 271 60.500 C 271.029 60.501 270.895 65.496 271 65.500 L 271 65.500 Z "/>
        </g>
      </g>
      <path id="ID0.8373652226291597" fill="url(#grad_7)" d="M 294.432 15.552 C 300.666 35.969 282.657 60.809 275.142 63.915 C 266.948 67.301 237.111 55.371 230.876 34.955 C 224.643 14.539 233.818 -6.356 251.368 -11.714 C 268.918 -17.072 288.199 -4.864 294.432 15.552 Z "/>
    </g>
    <g id="ID0.5971775203943253">
      <path id="ID0.5953956423327327" fill="url(#grad_8)" d="M 349.135 32.885 C 347.463 57.862 319.165 77.710 310.226 78.023 C 300.477 78.364 274.575 52.980 276.247 28.002 C 277.921 3.025 295.595 -16.131 315.722 -14.783 C 335.848 -13.435 350.808 7.908 349.135 32.885 Z "/>
      <g id="ID0.8979668361134827">
        <g id="ID0.8875703834928572">
          <path id="ID0.02498038299381733" fill="#27AAE1" d="M 309.667 76.500 C 308.622 80.275 308.688 84.848 309.363 88.695 C 310.281 93.920 316.876 101.127 318.334 92.166 C 318.412 91.688 318.429 87.176 318.334 87.166 C 310.910 86.391 309.286 91.721 309.303 97.867 C 309.311 100.653 310.857 109.380 314.334 103.500 C 314.828 102.665 313.643 98.943 314.334 98.500 C 304.376 104.886 308.303 125.417 319 128.833 C 318.552 128.690 319.517 123.998 319 123.833 C 314.196 122.299 311.314 118.356 309.798 113.702 C 309.472 112.699 309.319 111.651 309.171 110.611 C 309.464 112.657 309.697 109.418 309.966 108.641 C 310.737 106.415 312.399 104.741 314.334 103.499 C 314.334 101.832 314.334 100.166 314.334 98.499 C 312.170 102.157 310.031 99.691 309.451 96.550 C 309.992 99.480 309.373 98.139 309.882 96.541 C 310.213 95.499 310.854 94.622 311.593 93.837 C 313.308 92.016 316.034 91.924 318.334 92.165 C 318.334 90.498 318.334 88.832 318.334 87.165 C 317.910 89.767 316.854 92.870 313.747 91.186 C 310.506 89.430 309.091 84.217 309.049 80.873 C 309.043 82.295 309.037 83.718 309.031 85.141 C 309.128 83.866 309.326 82.731 309.667 81.498 C 310.098 79.943 309.241 78.038 309.667 76.500 L 309.667 76.500 Z "/>
        </g>
      </g>
    </g>
    <g id="ID0.7528758146800101">
      <path id="ID0.7456754087470472" fill="url(#grad_9)" d="M 452.611 174.972 C 448.059 199.587 417.655 216.028 408.739 215.304 C 399.017 214.515 376.226 186.304 380.777 161.687 C 385.329 137.072 405.100 120.090 424.936 123.757 C 444.772 127.426 457.163 150.356 452.611 174.972 Z " transform="matrix(1, 0, 0, 1, 37, 2.5)"/>
      <g id="ID0.18347000610083342">
        <g id="ID0.8796915402635932">
          <path id="ID0.5234660082496703" fill="#FBB040" d="M 407.667 218.833 C 409.387 219.440 411.517 220.037 412.006 222.017 C 412.003 220.380 412.001 218.744 411.999 217.107 C 411.712 221.175 405.515 224.281 403.667 227.834 C 403.464 228.225 403.525 232.790 403.667 232.834 C 406.242 233.630 408.662 234.737 408.994 237.676 C 408.988 236.253 408.982 234.831 408.976 233.408 C 408.926 238.254 404.580 242.275 404.266 247.166 C 403.994 251.412 403.696 255.676 406.999 258.834 C 406.187 258.058 407.851 254.648 406.999 253.834 C 405.862 252.747 405.071 251.683 404.525 250.202 C 403.643 247.809 404.012 253.032 404.558 250.474 C 404.735 249.647 405.046 248.845 405.338 248.054 C 406.464 244.994 408.264 242.202 408.910 238.974 C 409.944 233.814 409.025 229.489 403.665 227.833 C 403.665 229.500 403.665 231.166 403.665 232.833 C 405.586 229.140 411.711 226.178 412.010 221.928 C 412.320 217.544 412.240 215.450 407.665 213.833 C 408.157 214.006 407.110 218.636 407.667 218.833 L 407.667 218.833 Z " transform="matrix(1, 0, 0, 1, 37, 2.5)"/>
        </g>
      </g>
    </g>
    <g id="ID0.7149204779416323">
      <path id="ID0.790923397988081" fill="url(#grad_10)" d="M 493.075 212.752 C 488.523 237.367 458.119 253.808 449.203 253.084 C 439.480 252.295 416.689 224.084 421.240 199.467 C 425.793 174.852 445.564 157.870 465.400 161.538 C 485.236 165.206 497.627 188.137 493.075 212.752 Z " transform="matrix(1, 0, 0, 1, -19, -120)"/>
      <g id="ID0.24653360107913613">
        <g id="ID0.7889753989875317">
          <path id="ID0.2718133074231446" fill="#662D91" d="M 449.667 256.833 C 452.102 256.888 456.740 256.669 457.396 259.820 C 457.388 258.765 457.379 257.711 457.372 256.656 C 457.372 256.843 457.371 257.028 457.371 257.215 C 457.379 256.604 457.387 255.991 457.395 255.380 C 456.543 260.397 451.261 263.489 450.334 268.500 C 450.064 269.958 450.296 271.679 450.321 273.158 C 450.357 275.290 453.952 274.336 455 275.500 C 454.991 274.667 454.983 273.833 454.975 273 C 454.975 275 454.975 277 454.975 279 C 454.984 278.167 454.992 277.333 455 276.500 C 454.706 280.441 451.656 283.511 451.589 287.450 C 451.538 290.429 451.401 293.306 452.334 296.167 C 451.847 294.673 452.828 292.684 452.334 291.167 C 451.836 289.983 451.596 288.744 451.614 287.450 C 451.610 289.003 451.606 290.555 451.601 292.108 C 452.055 288.712 454.189 286.003 454.911 282.686 C 455.297 280.913 455.025 278.784 455.025 276.999 C 455.025 274.866 455.084 272.721 455.006 270.588 C 454.970 269.603 450.926 269.803 450.333 268.499 C 450.333 270.166 450.333 271.832 450.333 273.499 C 451.252 268.531 457.319 265.130 457.406 260.037 C 457.434 258.331 457.463 256.614 457.401 254.909 C 457.283 251.678 451.725 251.878 449.666 251.832 C 449.666 251.833 449.592 256.831 449.667 256.833 L 449.667 256.833 Z " transform="matrix(1, 0, 0, 1, -19, -120)"/>
        </g>
      </g>
    </g>
    <path id="ID0.8532632892020047" fill="url(#grad_11)" d="M 116.481 44.974 C 116.255 70.005 89.153 91.457 80.247 92.286 C 70.535 93.191 43.207 69.347 43.432 44.314 C 43.658 19.283 60.194 -0.863 80.365 -0.682 C 100.538 -0.500 116.706 19.942 116.481 44.974 Z " transform="matrix(1, 0, 0, 1, 13, 2)"/>
    <g id="ID0.401253177318722">
      <path id="ID0.1722585060633719" fill="url(#grad_12)" d="M 60.017 14.707 C 67.128 38.708 47.492 67.153 39.218 70.553 C 30.195 74.260 -2.914 59.459 -10.026 35.458 C -17.136 11.457 -7.221 -12.647 12.120 -18.378 C 31.461 -24.108 52.905 -9.295 60.017 14.707 Z "/>
      <g id="ID0.42289137467741966">
        <g id="ID0.7686668732203543">
          <path id="ID0.6676873811520636" fill="#009D9F" d="M 36.333 74.167 C 40.640 67.792 44.814 75.688 45.942 79.980 C 46.166 80.832 46.303 81.703 46.426 82.573 C 46.649 84.139 46.741 80.866 46.296 83.344 C 46.022 84.872 45.377 86.284 44.435 87.509 C 42.034 90.633 37.646 90.120 34.333 89.167 C 34.333 90.834 34.333 92.500 34.333 94.167 C 36.402 92.560 38.688 91.433 40.691 93.693 C 41.516 94.625 41.868 95.996 42.191 97.161 C 42.437 98.049 42.672 103.490 42.808 100.335 C 42.420 109.374 35.948 116.694 35.661 125.923 C 35.614 127.430 35.711 129.566 35.675 130.744 C 35.910 123.201 39.651 117.274 41.930 110.296 C 42.914 107.284 42.891 104.118 42.891 100.987 C 42.891 95.799 42.324 82.961 34.334 89.166 C 34.080 89.364 34.275 94.149 34.334 94.166 C 38.789 95.447 43.394 95.221 45.596 90.604 C 47.113 87.423 46.653 83.298 46.598 79.886 C 46.530 75.546 41.988 60.797 36.333 69.166 C 35.549 70.328 37.094 73.041 36.333 74.167 L 36.333 74.167 Z "/>
        </g>
      </g>
    </g>
    <g id="ID0.898396029137075">
      <path id="ID0.3562651169486344" fill="url(#grad_13)" d="M 405.968 20.540 C 413.079 44.541 393.443 72.986 385.169 76.386 C 376.147 80.094 343.037 65.293 335.925 41.291 C 328.815 17.290 338.731 -6.814 358.071 -12.545 C 377.412 -18.275 398.856 -3.461 405.968 20.540 Z "/>
      <g id="ID0.7759630489163101">
        <g id="ID0.31937230192124844">
          <path id="ID0.6403314904309809" fill="#EC008C" d="M 383.583 79.167 C 385.594 80.176 387.056 81.340 387.437 83.645 C 387.428 82.812 387.420 81.978 387.412 81.145 C 387.413 81.399 387.413 81.654 387.413 81.908 C 387.422 81.075 387.430 80.241 387.438 79.408 C 386.546 85.516 378.912 91.005 372.917 90.834 C 372.917 92.501 372.917 94.167 372.917 95.834 C 377.249 93.508 380.149 96.413 381.071 100.674 C 381.428 102.326 381.559 98.494 380.812 101.231 C 380.531 102.260 379.965 103.150 379.269 103.942 C 377.805 105.606 375.486 105.406 373.583 104.834 C 373.583 106.501 373.583 108.167 373.583 109.834 C 378.274 108.058 378.128 115.288 378.303 118.126 C 378.561 122.339 378.233 127.640 380.916 131.168 C 380.127 130.131 381.732 127.241 380.916 126.168 C 377.911 122.218 378.523 116.075 378.189 111.401 C 377.987 108.570 377.671 103.287 373.583 104.835 C 373.421 104.897 373.483 109.805 373.583 109.835 C 385.648 113.467 383.450 85.178 372.916 90.835 C 372.579 91.016 373.073 95.839 372.916 95.835 C 378.839 96.004 385.733 90.878 387.323 85.187 C 388.498 80.986 387.567 76.168 383.583 74.168 C 384.221 74.487 382.885 78.816 383.583 79.167 L 383.583 79.167 Z "/>
        </g>
      </g>
    </g>
    <g id="ID0.22515145922079682">
      <path id="ID0.5834699599072337" fill="url(#grad_14)" d="M 113.592 133.098 C 116.445 157.968 92.185 182.589 83.447 184.506 C 73.920 186.598 43.869 166.294 41.015 141.423 C 38.162 116.554 52.097 94.528 72.137 92.229 C 92.179 89.929 110.739 108.228 113.592 133.098 Z " transform="matrix(1, 0, 0, 1, 0.95, -29)"/>
      <g id="ID0.9813417503610253">
        <g id="ID0.6985900145955384">
          <path id="ID0.020438293926417828" fill="#EF4136" d="M 83 184.500 C 79.510 188.657 78.570 193.384 79.462 198.675 C 80.188 202.973 87.212 204.792 87.411 199.347 C 87.478 197.485 87.457 195.606 87.377 193.745 C 87.179 189.166 83.261 196.588 83.125 198.566 C 82.738 204.181 82.620 210.519 87.667 214.167 C 87.677 214.054 87.681 213.939 87.680 213.825 C 87.697 212.671 87.789 211.835 88.334 210.833 C 88.834 209.914 87.604 206.382 88.334 205.833 C 79.698 212.321 83.404 228.141 89.667 234.833 C 88.854 233.964 90.516 230.740 89.667 229.833 C 84.201 223.993 81.153 216.228 88.334 210.833 C 88.334 209.166 88.334 207.500 88.334 205.833 C 87.815 206.787 87.681 207.721 87.665 208.800 C 87.658 209.283 85.387 207.048 85.350 207.003 C 84.636 206.154 84.209 205.090 83.791 204.080 C 82.900 201.931 83.202 202.320 84.050 200.250 C 84.485 199.188 85.282 198.356 86.068 197.553 C 87.619 195.967 87.348 198.186 87.398 199.347 C 87.400 197.709 87.402 196.073 87.405 194.436 C 87.153 197.541 84.650 198.535 82.001 197.167 C 80.647 196.468 79.878 195.072 79.463 193.675 C 80.190 196.124 79.381 195.618 80.162 193.677 C 80.790 192.114 81.933 190.773 83.001 189.500 C 83.836 188.504 82.195 185.459 83 184.500 L 83 184.500 Z " transform="matrix(1, 0, 0, 1, 0.95, -29)"/>
        </g>
      </g>
    </g>
    <g id="ID0.3972066226415336">
      <path id="ID0.9110348140820861" fill="url(#grad_15)" d="M 250.075 49.639 C 245.523 74.254 215.119 90.695 206.203 89.971 C 196.480 89.182 173.689 60.971 178.240 36.355 C 182.792 11.740 202.564 -5.242 222.399 -1.575 C 242.236 2.093 254.627 25.023 250.075 49.639 Z "/>
      <g id="ID0.5911416849121451">
        <g id="ID0.25543481949716806">
          <path id="ID0.07335308333858848" fill="#662D91" d="M 206.333 89.833 C 204.857 93.719 204.375 98.921 205.062 103.118 C 205.377 105.048 205.900 106.644 206.839 108.361 C 208.006 110.496 208.821 108.274 208.871 106.919 C 208.933 105.216 208.905 103.501 208.876 101.797 C 208.795 97.066 198.985 104.518 198.017 105.689 C 195.160 109.145 194.587 114.781 195.263 119.172 C 195.876 123.154 198.147 125.683 201.667 127.500 C 203.037 128.207 203.895 126.281 203.959 125.279 C 204.119 122.830 204.767 118.483 202.792 116.598 C 201.042 114.928 198.582 118.709 197.885 119.725 C 195.792 122.779 195.142 125.926 195.121 129.516 C 195.081 136.328 196.977 141.766 203.667 144.833 C 203.067 144.558 204.329 140.137 203.667 139.833 C 198.764 137.585 195.650 133.711 195.143 128.278 C 195.147 129.831 195.151 131.383 195.156 132.937 C 195.253 128.843 197.220 124.311 200.503 121.739 C 202.020 120.551 203.276 121.789 203.778 123.220 C 204.424 125.062 204.733 119.240 203.523 121.762 C 203.159 122.522 202.399 122.618 201.668 122.500 C 197.666 121.851 195.342 116.529 195.233 113.084 C 195.231 114.721 195.229 116.357 195.226 117.995 C 195.611 113.535 198.029 109.633 201.793 107.226 C 203.191 106.332 207.881 104 208.864 106.456 C 208.856 105.844 208.848 105.232 208.840 104.621 C 208.840 104.805 208.841 104.990 208.841 105.174 C 208.849 104.119 208.857 103.064 208.865 102.009 C 208.107 104.802 207.509 104.586 206.172 102.140 C 204.753 99.545 205.343 97.443 206.334 94.834 C 206.891 93.365 205.786 91.277 206.333 89.833 L 206.333 89.833 Z " transform="matrix(1, 0, 0, 1, 0, -2)"/>
        </g>
      </g>
    </g>
    <g id="ID0.9008805751800537">
      <g id="ID0.5839351895265281">
        <g id="ID0.4953843802213669">
          <path id="ID0.44153284141793847" fill="#EC008C" d="M 12.333 261.885 C 13.936 261.872 15.061 262.302 16.203 263.429 C 16.717 263.936 17.031 264.632 17.337 265.270 C 17.979 266.608 17.635 269.224 17.996 265.502 C 17.675 268.812 15.333 270.543 12.333 268.885 C 12.333 270.552 12.333 272.218 12.333 273.885 C 14.197 272.734 15.995 272.336 17.900 273.598 C 18.591 274.056 19.060 274.809 19.478 275.500 C 20.069 276.481 20.459 279.949 20.482 276.351 C 20.489 275.938 20.496 275.526 20.503 275.113 C 20.132 279.416 17.184 281.387 12.999 280.885 C 12.999 282.552 12.999 284.218 12.999 285.885 C 15.894 285.281 17.195 286.872 17.785 289.553 C 17.955 290.325 17.979 293.526 18.054 290.596 C 18.029 291.583 17.967 292.570 17.911 293.555 C 17.796 295.575 17.651 297.591 17.556 299.612 C 17.349 303.984 16.441 310.749 19 314.552 C 18.240 313.423 19.783 310.716 19 309.552 C 15.868 304.897 18.102 297.107 18.117 291.800 C 18.127 288.037 18.950 279.644 13 280.885 C 12.857 280.915 12.977 285.882 13 285.885 C 19.755 286.695 20.547 281.557 20.533 276.256 C 20.520 271.488 18.017 265.373 12.333 268.885 C 12.131 269.010 12.151 273.784 12.333 273.885 C 17.319 276.640 18.099 270.776 18.109 267.169 C 18.121 262.996 17.948 256.840 12.333 256.885 C 12.282 256.885 12.309 261.885 12.333 261.885 L 12.333 261.885 Z " transform="matrix(1, 0, 0, 1, 17, -76.95)"/>
        </g>
      </g>
      <path id="ID0.9853581278584898" fill="url(#grad_16)" d="M 60.770 167 C 64.917 191.687 41.975 217.539 33.351 219.910 C 23.945 222.496 -7.125 203.789 -11.273 179.101 C -15.419 154.414 -2.653 131.691 17.239 128.349 C 37.134 125.008 56.623 142.313 60.770 167 Z " transform="matrix(1, 0, 0, 1, 1, -34)"/>
    </g>
    <g id="ID0.45177611568942666">
      <path id="ID0.9089598571881652" fill="url(#grad_17)" d="M 70.342 219.441 C 77.828 243.328 58.639 272.077 50.419 275.606 C 41.456 279.455 8.119 265.173 0.632 241.286 C -6.853 217.399 2.683 193.142 21.932 187.110 C 41.181 181.078 62.855 195.554 70.342 219.441 Z " transform="matrix(1, 0, 0, 1, -5, -33)"/>
      <g id="ID0.8240609467029572">
        <g id="ID0.9972853134386241">
          <path id="ID0.8134871190413833" fill="#F7941E" d="M 48.333 278.833 C 50.614 279.145 51.990 280.415 52.999 282.434 C 53.427 283.290 53.916 287.269 54.006 284.147 C 53.952 286.009 53.513 287.842 52.979 289.615 C 52.193 292.221 50.747 294.583 48.771 296.444 C 47.753 297.404 46.479 297.964 45.158 298.352 C 44.385 298.775 44.065 298.555 44.199 297.691 C 44.766 301.122 43.779 300.990 44.473 299.689 C 45.915 296.985 50.372 303.888 50.798 304.711 C 51.307 305.695 51.633 306.753 51.883 307.827 C 52.098 309.296 52.116 308.665 51.938 305.934 C 51.846 306.540 51.578 307.090 51.307 307.631 C 50.055 310.126 46.812 310.825 44.332 311.166 C 44.377 311.160 44.043 315.883 44.332 316.166 C 47.697 319.457 47.636 325.329 47.641 329.666 C 47.644 332.494 47.694 332.494 47.691 329.666 C 47.685 323.969 48.734 315.472 44.333 311.166 C 44.333 312.833 44.333 314.499 44.333 316.166 C 51.958 315.118 53.002 309.494 51.884 302.826 C 51.397 299.926 44.155 289.694 44.081 297.081 C 44.068 298.389 44.064 299.698 44.086 301.007 C 44.125 303.303 44.368 303.769 46.708 302.806 C 51.172 300.969 53.128 295.244 53.833 290.916 C 54.677 285.736 55.262 274.781 48.333 273.832 C 48.521 273.858 48.072 278.797 48.333 278.833 L 48.333 278.833 Z " transform="matrix(1, 0, 0, 1, -5, -33)"/>
        </g>
      </g>
    </g>
    <g id="ID0.036877048667520285">
      <g id="ID0.6639191801659763">
        <g id="ID0.514187291264534">
          <path id="ID0.42132040672004223" fill="#EC008C" d="M 171.667 74.167 C 172.357 75.524 172.963 76.862 173.497 78.288 C 174.235 80.256 174.139 80.225 173.774 81.486 C 172.805 84.840 169.710 87.259 167 89.168 C 166.783 89.321 166.804 94.050 167 94.168 C 170.126 96.051 172.187 98.248 172.659 101.956 C 172.652 101.543 172.644 101.130 172.638 100.718 C 172.640 101.094 172.643 101.470 172.645 101.847 C 172.652 100.593 172.660 99.339 172.667 98.085 C 172.082 103.886 168.596 109.714 163.469 112.550 C 160.344 114.279 154.897 113.237 154.006 109.338 C 154.008 110.975 154.010 112.612 154.013 114.249 C 154.086 112.364 156.780 112.229 158.188 112.327 C 160.101 112.460 161.142 114.415 161.750 115.965 C 163.391 120.148 162.784 125.089 162.862 129.493 C 162.927 133.145 164.035 136.504 165.423 139.872 C 167.238 144.275 170.041 146.892 171.667 140.836 C 171.887 140.018 171.110 136.215 171.667 135.836 C 167.409 138.736 167.716 144.145 168.286 148.780 C 169.210 156.293 175.575 162.835 179.667 168.836 C 178.903 167.717 180.455 164.990 179.667 163.836 C 176.946 159.847 173.972 156.067 171.522 151.894 C 170.203 149.647 169.159 147.271 168.481 144.756 C 168.246 143.332 168.202 143.457 168.349 145.134 C 168.485 144.567 168.694 144.027 168.975 143.516 C 169.523 142.341 170.634 141.539 171.666 140.836 C 171.666 139.169 171.666 137.503 171.666 135.836 C 170.215 141.239 167.855 139.950 165.796 135.711 C 164.031 132.079 162.899 128.149 162.899 124.117 C 162.899 119.106 163.623 103.472 154.512 108.082 C 153.388 108.651 153.785 113.380 154.004 114.338 C 155.510 120.927 163.899 117.813 167.095 114.888 C 170.752 111.542 172.676 106.099 172.689 101.250 C 172.704 95.869 172.084 92.232 166.998 89.168 C 166.998 90.835 166.998 92.501 166.998 94.168 C 171.434 91.045 174.337 87.499 174.370 81.949 C 174.397 77.262 173.853 73.471 171.665 69.168 C 172.332 70.475 170.986 72.828 171.667 74.167 L 171.667 74.167 Z " transform="matrix(0.7323135733604431, 0, 0, 1, 43.9, -23)"/>
        </g>
      </g>
      <path id="ID0.9528157133609056" fill="url(#grad_18)" d="M 192.835 14.707 C 199.946 38.708 180.310 67.153 172.036 70.553 C 163.014 74.261 129.904 59.460 122.792 35.458 C 115.682 11.457 125.597 -12.647 144.938 -18.378 C 164.280 -24.108 185.724 -9.295 192.835 14.707 Z "/>
    </g>
  </g>
</svg>