<svg version="1.1" id="crab1-a" x="0px" y="0px" width="150px" height="150px" viewBox="0 0 150 150" enable-background="new 0 0 150 150" xml:space="preserve" xmlns="http://www.w3.org/2000/svg" xmlns:xlink="http://www.w3.org/1999/xlink">
  <g>
    <g id="R_Leg2">
      <path id="Outline_3_" d="M98.341,77.68c-1.746-9.187-11.521-12.795-11.521-12.795s-3.013,2.793-2.991,4.167&#xD;&#xA;&#x9;&#x9;c11.414,7.263,3.824,17.208,6.696,19.955C94.55,92.855,99.433,83.441,98.341,77.68z M92.653,87.033&#xD;&#xA;&#x9;&#x9;c-1.408-0.117,0.812-7.986-0.688-11.482c-1.434-3.338-3.959-5.607-6.463-7.091l1.401-1.649&#xD;&#xA;&#x9;&#x9;C100.652,73.236,96.362,87.344,92.653,87.033z"/>
      <path id="Fill_3_" fill="#FF0000" d="M86.904,66.811l-1.401,1.649c2.504,1.484,5.029,3.753,6.463,7.091&#xD;&#xA;&#x9;&#x9;c1.5,3.496-0.721,11.365,0.688,11.482C96.362,87.344,100.652,73.236,86.904,66.811z"/>
    </g>
    <g id="R_Leg1">
      <path id="Outline_2_" d="M104.085,62.202c-6.811-6.406-16.84-3.579-16.84-3.579s-0.799,4.032,0.029,5.129&#xD;&#xA;&#x9;&#x9;c13.503-0.833,13.208,11.675,17.143,12.208C109.938,76.707,108.355,66.219,104.085,62.202z M104.982,73.113&#xD;&#xA;&#x9;&#x9;c-1.208,0.732-4.037-6.937-7.308-8.884c-3.121-1.858-6.498-2.209-9.396-1.938l0.164-2.158&#xD;&#xA;&#x9;&#x9;C103.343,57.249,108.165,71.185,104.982,73.113z"/>
      <path id="Fill_2_" fill="#FF0000" d="M88.443,60.132l-0.164,2.158c2.897-0.271,6.274,0.08,9.396,1.938&#xD;&#xA;&#x9;&#x9;c3.271,1.948,6.1,9.617,7.308,8.884C108.165,71.185,103.343,57.249,88.443,60.132z"/>
    </g>
    <g id="L_Leg2">
      <path id="Outline_1_" d="M67.217,69.049c0.022-1.375-2.993-4.167-2.993-4.167s-9.776,3.607-11.52,12.793&#xD;&#xA;&#x9;&#x9;c-1.094,5.762,3.79,15.176,7.817,11.326C63.393,86.258,55.802,76.311,67.217,69.049z M59.082,75.549&#xD;&#xA;&#x9;&#x9;c-1.5,3.496,0.72,11.363-0.688,11.48c-3.71,0.312-8.001-13.796,5.749-20.222l1.402,1.649C63.039,69.94,60.514,72.209,59.082,75.549&#xD;&#xA;&#x9;&#x9;z"/>
      <path id="Fill_1_" fill="#FF0000" d="M64.143,66.808l1.402,1.649c-2.505,1.484-5.03,3.753-6.462,7.092&#xD;&#xA;&#x9;&#x9;c-1.5,3.496,0.72,11.363-0.688,11.48C54.683,87.342,50.392,73.233,64.143,66.808z"/>
    </g>
    <g id="L_Leg1">
      <path id="Outline" d="M63.8,58.621c0,0-10.029-2.827-16.84,3.58c-4.271,4.018-5.854,14.504-0.333,13.756&#xD;&#xA;&#x9;&#x9;c3.936-0.535,3.642-13.041,17.145-12.208C64.598,62.651,63.8,58.621,63.8,58.621z M53.37,64.226&#xD;&#xA;&#x9;&#x9;c-3.27,1.946-6.098,9.616-7.306,8.884c-3.184-1.928,1.638-15.863,16.537-12.98l0.165,2.158&#xD;&#xA;&#x9;&#x9;C59.868,62.017,56.491,62.367,53.37,64.226z"/>
      <path id="Fill" fill="#FF0000" d="M62.602,60.129l0.165,2.158c-2.898-0.271-6.275,0.079-9.396,1.938&#xD;&#xA;&#x9;&#x9;c-3.27,1.946-6.098,9.616-7.306,8.884C42.88,71.182,47.702,57.247,62.602,60.129z"/>
    </g>
    <g id="L_Eye">
      <path id="Eye_Socket_1_" d="M65.005,18.578c4.237-2.102,6.748-8.484,1.64-13.01c-5.738-5.083-14.606,3.542-10.56,9.856&#xD;&#xA;&#x9;&#x9;c1.744,2.722,3.899,3.823,5.97,3.849c0.815,4.618,3.455,10.77,7.514,13.271l1.59-2.58C67.966,27.996,65.664,22.545,65.005,18.578z&#xD;&#xA;&#x9;&#x9; M58.079,12.726c-1.569-7.684,8.688-8.696,9.446-0.996c0.12,1.205-0.117,2.138-0.704,3.108c-0.708,1.172-1.661,1.838-2.676,2.111&#xD;&#xA;&#x9;&#x9;l-1.802,0.08C60.385,16.696,58.56,15.077,58.079,12.726z"/>
      <path id="White_1_" fill="#FFFFFF" d="M67.525,11.729c0.12,1.205-0.117,2.138-0.704,3.108c-2.466,4.081-7.861,2.199-8.742-2.112&#xD;&#xA;&#x9;&#x9;C56.51,5.042,66.768,4.03,67.525,11.729z"/>
      <circle id="Pupil_1_" cx="62.779" cy="9.029" r="2.738"/>
    </g>
    <g id="R_Eye">
      <path id="Eye_Socket" d="M92.394,7.677C85.462-2.35,73.46,10.698,82.182,17.896c0.117,0.097,0.238,0.18,0.357,0.266&#xD;&#xA;&#x9;&#x9;c-2.68,3.576-5.05,8.688-4.511,12.864l3.006-0.388c-0.45-3.488,1.972-8.296,4.476-11.361C90.739,19.671,95.896,12.746,92.394,7.677&#xD;&#xA;&#x9;&#x9;z M91.283,12.358c-0.005,0.086-0.014,0.171-0.022,0.255c-0.013,0.125-0.029,0.246-0.05,0.365c-0.014,0.08-0.029,0.159-0.046,0.237&#xD;&#xA;&#x9;&#x9;c-0.026,0.117-0.058,0.23-0.091,0.343c-0.021,0.07-0.041,0.142-0.065,0.21c-0.041,0.117-0.088,0.229-0.137,0.339&#xD;&#xA;&#x9;&#x9;c-0.024,0.055-0.047,0.113-0.073,0.167c-0.067,0.137-0.143,0.267-0.221,0.393c-0.014,0.021-0.025,0.045-0.039,0.066&#xD;&#xA;&#x9;&#x9;c-0.098,0.149-0.203,0.29-0.316,0.423c-0.014,0.016-0.029,0.029-0.043,0.045c-0.099,0.113-0.202,0.221-0.312,0.321&#xD;&#xA;&#x9;&#x9;c-0.031,0.029-0.065,0.055-0.098,0.083c-0.096,0.083-0.193,0.163-0.296,0.237c-0.038,0.027-0.077,0.052-0.116,0.079&#xD;&#xA;&#x9;&#x9;c-0.102,0.069-0.206,0.134-0.313,0.193c-0.04,0.022-0.079,0.043-0.12,0.063c-0.112,0.059-0.228,0.111-0.345,0.16&#xD;&#xA;&#x9;&#x9;c-0.037,0.015-0.073,0.03-0.11,0.044c-0.13,0.049-0.263,0.092-0.396,0.13c-0.025,0.007-0.051,0.016-0.076,0.022&#xD;&#xA;&#x9;&#x9;c-1.696,0.443-3.672-0.068-4.977-1.659c-0.019-0.022-0.036-0.047-0.054-0.07c-0.104-0.131-0.203-0.268-0.298-0.413&#xD;&#xA;&#x9;&#x9;c-0.031-0.048-0.061-0.098-0.091-0.147c-0.077-0.127-0.15-0.259-0.22-0.396c-0.032-0.063-0.063-0.128-0.095-0.193&#xD;&#xA;&#x9;&#x9;c-0.062-0.135-0.119-0.274-0.173-0.418c-0.028-0.073-0.057-0.146-0.083-0.221c-0.052-0.154-0.097-0.315-0.141-0.479&#xD;&#xA;&#x9;&#x9;c-0.019-0.071-0.04-0.14-0.057-0.213c-0.056-0.24-0.104-0.489-0.139-0.75c-0.16-1.2,0.043-2.141,0.598-3.131&#xD;&#xA;&#x9;&#x9;c2.321-4.165,7.778-2.472,8.809,1.806c0.062,0.256,0.107,0.503,0.143,0.745c0.012,0.081,0.017,0.157,0.025,0.235&#xD;&#xA;&#x9;&#x9;c0.018,0.158,0.034,0.315,0.042,0.467c0.004,0.09,0.003,0.176,0.003,0.263C91.292,12.095,91.291,12.228,91.283,12.358z"/>
      <path id="White" fill="#FFFFFF" d="M91.246,11.229c-0.009-0.079-0.014-0.155-0.025-0.235c-0.035-0.241-0.081-0.489-0.143-0.745&#xD;&#xA;&#x9;&#x9;c-1.03-4.278-6.487-5.971-8.809-1.806c-0.555,0.99-0.758,1.931-0.598,3.131c0.035,0.261,0.083,0.51,0.139,0.75&#xD;&#xA;&#x9;&#x9;c0.017,0.074,0.038,0.142,0.057,0.213c0.044,0.164,0.089,0.325,0.141,0.479c0.026,0.076,0.055,0.148,0.083,0.221&#xD;&#xA;&#x9;&#x9;c0.054,0.144,0.111,0.283,0.173,0.418c0.03,0.065,0.062,0.13,0.095,0.193c0.069,0.138,0.143,0.27,0.22,0.396&#xD;&#xA;&#x9;&#x9;c0.03,0.05,0.06,0.1,0.091,0.147c0.095,0.145,0.194,0.282,0.298,0.413c0.018,0.023,0.035,0.047,0.054,0.07&#xD;&#xA;&#x9;&#x9;c1.305,1.591,3.28,2.103,4.977,1.659c0.025-0.007,0.051-0.016,0.076-0.022c0.134-0.038,0.267-0.081,0.396-0.13&#xD;&#xA;&#x9;&#x9;c0.037-0.014,0.073-0.03,0.11-0.044c0.117-0.049,0.232-0.102,0.345-0.16c0.04-0.021,0.08-0.042,0.12-0.063&#xD;&#xA;&#x9;&#x9;c0.107-0.06,0.212-0.125,0.313-0.193c0.039-0.026,0.078-0.051,0.116-0.079c0.103-0.074,0.2-0.154,0.296-0.237&#xD;&#xA;&#x9;&#x9;c0.032-0.028,0.066-0.054,0.098-0.083c0.109-0.101,0.213-0.208,0.312-0.321c0.015-0.016,0.029-0.029,0.043-0.045&#xD;&#xA;&#x9;&#x9;c0.113-0.133,0.219-0.274,0.316-0.423c0.014-0.021,0.025-0.045,0.039-0.066c0.078-0.126,0.153-0.256,0.221-0.393&#xD;&#xA;&#x9;&#x9;c0.026-0.054,0.049-0.111,0.073-0.167c0.049-0.11,0.096-0.222,0.137-0.339c0.024-0.068,0.044-0.14,0.065-0.21&#xD;&#xA;&#x9;&#x9;c0.033-0.112,0.064-0.226,0.091-0.343c0.017-0.078,0.032-0.157,0.046-0.237c0.021-0.119,0.037-0.241,0.05-0.365&#xD;&#xA;&#x9;&#x9;c0.009-0.084,0.018-0.169,0.022-0.255c0.008-0.13,0.009-0.263,0.008-0.398c0-0.087,0.001-0.173-0.003-0.263&#xD;&#xA;&#x9;&#x9;C91.28,11.545,91.264,11.388,91.246,11.229z"/>
      <circle id="Pupil" cx="86.443" cy="8.539" r="2.737"/>
    </g>
    <g id="R_Claw">
      <path id="Fill_5_" fill="#FF0000" d="M133.443,4.841c-2.276-1.396-4.593-2.089-6.875-0.47c-3.037,2.154-0.687,4.799-1.921,7.449&#xD;&#xA;&#x9;&#x9;c-0.557,1.194-1.574,1.27-2.542,1.934c-2.945,2.017,0.309,5.889-0.366,8.762c-0.702,2.98-3.439,2.194-4.705,5.096&#xD;&#xA;&#x9;&#x9;c-0.458,1.051,0.285,2.664-0.679,3.033c-0.64-0.416-0.375-1.144-0.482-1.757c-0.819-4.679,3.319-4.009,3.367-7.684&#xD;&#xA;&#x9;&#x9;c0.019-1.427-1.752-4.723-0.667-6.96c-0.005-0.007-0.011-0.009-0.016-0.016c-1.784-2.503-10.627,2.365-12.291,5.362&#xD;&#xA;&#x9;&#x9;c-3.023,5.446-1.801,12.318,2.563,16.981c0.336,0.303,0.577,0.906,0.601,1.368c0.122,2.493-4.976,7.49-13.492,6.118&#xD;&#xA;&#x9;&#x9;c-0.488,0.88-0.979,1.76-1.43,2.659c4.646,2.213,15.079,4.589,21.422-7.711c2.231,0.167,4.922,0.39,7.109-0.132&#xD;&#xA;&#x9;&#x9;C138.251,35.244,144.552,11.655,133.443,4.841z"/>
      <path id="Outline_4_" d="M129.119,0.074c-2.102-0.408-4.959,1.066-6.104,3.506c-1.417,3.014,1.764,6.766-2.126,8.785&#xD;&#xA;&#x9;&#x9;c-1.855-2.185-9.499-0.844-14.499,4.167c-3.226,3.23-4.986,9.931-3.351,14.336c1.009,2.712,3.222,5.813,3.992,6.799&#xD;&#xA;&#x9;&#x9;c0.041,0.052,0.087,0.096,0.134,0.137c-1.468,2.361-3.575,5.254-10.648,5.171h-1.329l-2.125,4.338l0.774,0.769l0.286-0.545&#xD;&#xA;&#x9;&#x9;c-0.06,0.13-0.129,0.256-0.184,0.39c-0.025,0.062-0.069,0.102-0.103,0.155c5.347,3.896,18.852,4.573,23.051-6.164&#xD;&#xA;&#x9;&#x9;c15.674,1.531,22.998-9.937,24.814-18.781C143.606,13.857,140.093,2.203,129.119,0.074z M123.04,38.874&#xD;&#xA;&#x9;&#x9;c-2.188,0.522-4.878,0.299-7.109,0.132c-6.327,12.27-16.723,9.936-21.386,7.727l1.402-2.674c8.511,1.367,13.605-3.627,13.483-6.119&#xD;&#xA;&#x9;&#x9;c-0.023-0.462-0.265-1.065-0.601-1.368c-4.364-4.663-5.587-11.535-2.563-16.981c1.664-2.997,10.507-7.865,12.291-5.362&#xD;&#xA;&#x9;&#x9;c0.005,0.007,0.011,0.009,0.016,0.016c-1.085,2.238,0.686,5.533,0.667,6.96c-0.048,3.675-4.187,3.005-3.367,7.684&#xD;&#xA;&#x9;&#x9;c0.107,0.613-0.157,1.341,0.482,1.757c0.964-0.369,0.221-1.982,0.679-3.033c1.266-2.902,4.003-2.116,4.705-5.096&#xD;&#xA;&#x9;&#x9;c0.675-2.873-2.579-6.745,0.366-8.762c0.968-0.664,1.985-0.74,2.542-1.934c1.234-2.65-1.116-5.295,1.921-7.449&#xD;&#xA;&#x9;&#x9;c2.282-1.619,4.599-0.926,6.875,0.47C144.552,11.655,138.251,35.244,123.04,38.874z"/>
    </g>
    <g id="L_Claw">
      <path id="Fill_4_" fill="#FF0000" d="M54.415,44.098c-8.317,1.192-13.286-3.699-13.164-6.16c0.026-0.544,0.355-1.287,0.786-1.5&#xD;&#xA;&#x9;&#x9;c0.016-0.021,0.026-0.04,0.043-0.061c4.287-4.739,5.152-11.512,2.034-16.906c-1.642-2.84-9.876-7.264-12.105-5.414&#xD;&#xA;&#x9;&#x9;c1.282,2.239-0.59,5.678-0.571,7.145c0.049,3.675,4.187,3.005,3.368,7.684c-0.107,0.613,0.156,1.341-0.484,1.756&#xD;&#xA;&#x9;&#x9;c-0.962-0.368-0.219-1.981-0.678-3.032c-1.265-2.902-4.003-2.116-4.704-5.097c-0.676-2.873,2.579-6.744-0.366-8.763&#xD;&#xA;&#x9;&#x9;c-0.968-0.662-1.986-0.739-2.543-1.934c-1.235-2.65,1.117-5.295-1.92-7.448c-2.284-1.62-4.599-0.926-6.875,0.47&#xD;&#xA;&#x9;&#x9;C6.127,11.65,12.43,35.24,27.639,38.869c2.188,0.522,4.878,0.3,7.109,0.133c6.222,12.063,16.376,10.009,21.146,7.84&#xD;&#xA;&#x9;&#x9;C55.312,45.972,54.812,45.059,54.415,44.098z"/>
      <path id="Outline_5_" d="M55.062,42.688L54.01,42.97c-6.994,0.038-9.067-2.866-10.526-5.219c0.068-0.061,0.13-0.125,0.183-0.193&#xD;&#xA;&#x9;&#x9;c0.754-1,2.913-4.139,3.872-6.868c1.56-4.433-0.319-11.101-3.6-14.275c-4.894-4.735-12.173-6.032-14.336-4.15&#xD;&#xA;&#x9;&#x9;c-3.609-2.041-0.541-5.724-1.935-8.691c-1.148-2.44-4.005-3.913-6.106-3.506C10.587,2.198,7.074,13.852,8.979,23.131&#xD;&#xA;&#x9;&#x9;c1.815,8.845,9.14,20.312,24.813,18.783c4.192,10.713,17.639,10.058,23.008,6.186l1.137-0.85L55.062,42.688z M34.748,39.001&#xD;&#xA;&#x9;&#x9;c-2.231,0.167-4.921,0.389-7.109-0.133C12.43,35.24,6.127,11.65,17.237,4.838c2.276-1.396,4.591-2.09,6.875-0.47&#xD;&#xA;&#x9;&#x9;c3.037,2.153,0.685,4.798,1.92,7.448c0.557,1.195,1.575,1.272,2.543,1.934c2.945,2.019-0.31,5.89,0.366,8.763&#xD;&#xA;&#x9;&#x9;c0.701,2.981,3.439,2.195,4.704,5.097c0.459,1.051-0.284,2.664,0.678,3.032c0.64-0.415,0.377-1.143,0.484-1.756&#xD;&#xA;&#x9;&#x9;c0.819-4.679-3.319-4.009-3.368-7.684c-0.019-1.467,1.853-4.906,0.571-7.145c2.229-1.851,10.463,2.573,12.105,5.414&#xD;&#xA;&#x9;&#x9;c3.118,5.394,2.253,12.167-2.034,16.906c-0.017,0.021-0.027,0.04-0.043,0.061c-0.431,0.212-0.76,0.955-0.786,1.5&#xD;&#xA;&#x9;&#x9;c-0.121,2.439,4.766,7.26,12.954,6.182l0.001,0.006l1.688,2.717C51.125,49.011,40.97,51.064,34.748,39.001z"/>
    </g>
    <g id="Body">
      <path id="Body_Fill" fill="#FF0000" d="M75.529,31.028c7.812-0.037,17.913,2.925,19.028,7.236c0.964,3.714-0.771,7.033-2.814,9.973&#xD;&#xA;&#x9;&#x9;c-3.48,5.01-4.48,11.894-7.184,16.896c-1.828,3.385-5.546,4.95-9.03,4.811c-3.483,0.14-7.203-1.426-9.03-4.811&#xD;&#xA;&#x9;&#x9;c-2.702-5.004-4.17-11.888-7.65-16.896c-2.042-2.939-3.778-6.259-2.816-9.973C57.15,33.954,67.716,30.992,75.529,31.028z"/>
      <path id="Body_Outline" fill="#272525" d="M95.236,33.043c-4.519-3.131-12.084-4.263-19.657-4.263h-0.102&#xD;&#xA;&#x9;&#x9;c-7.573,0-15.138,1.133-19.658,4.263c-4.432,3.069-3.906,9.52,0,14.491c4.316,5.493,6.684,19.427,8.683,21.824&#xD;&#xA;&#x9;&#x9;c2.511,3.012,6.723,3.32,11.074,3.324c4.253-0.004,8.466-0.312,10.978-3.324c1.998-2.397,4.367-16.331,8.683-21.824&#xD;&#xA;&#x9;&#x9;C99.142,42.564,99.669,36.113,95.236,33.043z M91.743,48.238c-3.48,5.01-4.48,11.894-7.184,16.896&#xD;&#xA;&#x9;&#x9;c-1.828,3.385-5.546,4.95-9.03,4.811c-3.483,0.14-7.203-1.426-9.03-4.811c-2.702-5.004-4.17-11.888-7.65-16.896&#xD;&#xA;&#x9;&#x9;c-2.042-2.939-3.778-6.259-2.816-9.973c1.117-4.311,11.683-7.273,19.496-7.236c7.812-0.037,17.913,2.925,19.028,7.236&#xD;&#xA;&#x9;&#x9;C95.521,41.979,93.786,45.297,91.743,48.238z"/>
    </g>
  </g>
</svg>