<svg version="1.1" width="120" height="182" viewBox="-1 -1 120 182" xmlns="http://www.w3.org/2000/svg" xmlns:xlink="http://www.w3.org/1999/xlink">
  <!-- Exported by Scratch - http://scratch.mit.edu/ -->
  <g id="space" transform="matrix(1, 0, 0, 1, -33, -8)">
    <g id="ripley-f">
      <g id="mike-puppet-back">
        <g id="Group">
          <path id="Shape" fill="#FFFFFF" stroke="none" stroke-width="1" d="M 22.613 79.029 L 16.753 77.315 L 9.852 72.820 L 5.553 68.100 L 2.329 63.530 L 1.503 55.364 L 2.705 46.898 L 6.235 39.481 L 13.120 34.462 L 21.110 31.540 L 31.177 30.491 L 41.996 30.941 L 51.210 32.364 L 60.927 35.661 L 67.463 40.380 L 72.271 46.823 L 74.162 52.966 L 74.162 59.859 L 71.971 67.425 L 67.614 72.745 L 61.804 76.715 L 53.415 80.667 L 46.653 82.259 L 38.690 81.060 L 22.613 79.029 " transform="matrix(1, 0, 0, 1, 59.4, 8)"/>
          <path id="Shape" fill="#FCF6B6" stroke="none" stroke-width="1" d="M 45.627 82.259 L 35.710 80.667 L 26.895 80.262 L 21.536 79.029 L 16.979 73.469 C 16.979 73.469 16.077 67.725 16.077 67.575 C 16.077 67.425 16.328 63.330 16.328 63.330 L 13.273 63.580 C 13.273 63.580 9.366 61.732 9.116 61.433 C 8.865 61.133 6.561 56.987 6.561 56.738 C 6.561 56.489 6.561 51.044 6.561 51.044 L 8.873 48.298 C 8.873 48.298 12.434 47.848 12.528 47.898 C 12.622 47.948 16.128 47.998 16.378 48.097 C 16.629 48.197 19.433 49.246 19.433 49.246 L 24.291 44.901 C 24.291 44.901 27.646 42.354 27.947 42.304 C 28.247 42.255 35.710 40.706 35.710 40.706 L 43.073 41.932 L 49.083 45.251 L 53.240 49.147 L 56.103 53.242 L 59.901 52.043 C 59.901 52.043 62.355 52.343 62.605 52.443 C 62.856 52.543 66.412 54.890 66.412 54.890 C 66.412 54.890 67.614 58.087 67.714 58.236 C 67.814 58.386 68.015 63.281 68.015 63.281 L 66.312 66.526 L 63.557 67.875 L 59.150 68.425 L 56.996 68.375 L 56.103 72.470 C 56.103 72.470 53.540 75.916 53.440 76.066 C 53.340 76.216 50.436 80.012 50.235 80.212 C 50.034 80.412 46.929 82.260 46.929 82.260 L 45.627 82.260 L 45.627 82.259 Z " transform="matrix(1, 0, 0, 1, 59.4, 8)"/>
          <path id="Shape" fill="#EF453E" stroke="none" stroke-width="1" d="M 40.318 17.131 L 36.612 16.332 L 33.256 12.486 L 32.605 7.342 L 34.057 3.896 L 37.663 1.998 L 41.770 2.297 L 45.326 4.295 L 48.031 7.791 L 48.031 10.788 L 47.430 13.835 L 43.573 18.380 L 41.069 18.380 L 40.318 17.131 " transform="matrix(1, 0, 0, 1, 59.4, 8)"/>
          <path id="Shape" fill="#30419A" stroke="none" stroke-width="1" d="M 22.382 77.757 C 20.226 77.042 19.074 75.453 18.446 73.366 C 18.124 72.295 17.624 71.271 17.366 70.188 C 16.764 67.651 17.015 65.093 17.326 62.537 C 17.367 62.194 17.255 61.587 17.054 61.509 C 16.590 61.328 15.947 61.211 15.517 61.395 C 13.400 62.299 11.420 61.967 9.913 60.096 C 8.343 58.147 7.447 55.892 7.424 53.329 C 7.408 51.423 9.592 49.136 11.368 48.694 C 13.279 48.219 14.879 48.618 16.578 49.098 C 17.540 49.370 18.110 50.280 17.927 51.150 C 17.751 51.990 17.684 52.865 18.682 53.127 C 19.615 53.372 20.269 52.667 20.680 51.937 C 21.205 51.002 21.559 49.972 22.030 49.004 C 23.023 46.962 24.623 45.502 26.612 44.464 C 27.726 43.881 28.867 43.342 30.028 42.860 C 32.098 42.001 34.279 41.567 36.510 41.780 C 38.239 41.946 39.997 42.188 41.648 42.699 C 44.769 43.665 47.614 45.242 50.225 47.218 C 52.711 49.099 54.296 51.530 54.631 54.654 C 54.739 55.666 55.235 56.074 56.139 56.080 C 56.986 56.085 57.404 55.596 57.480 54.745 C 57.575 53.686 58.506 53.527 59.252 53.450 C 62.196 53.144 64.610 54.305 65.995 56.838 C 67.769 60.080 67.506 64.705 63.904 66.844 C 62.559 67.644 59.361 67.831 58.000 67.198 C 58.107 66.395 58.232 65.578 58.318 64.758 C 58.355 64.401 58.427 63.974 58.276 63.689 C 58.172 63.492 58.020 63.320 57.856 63.155 C 57.566 63.120 57.277 63.097 56.991 63.105 C 56.806 63.342 56.640 63.580 56.641 63.817 C 56.642 66.066 55.757 68.092 55.104 70.163 C 54.185 73.080 52.581 75.672 50.734 78.078 C 49.910 79.152 48.837 80.139 47.670 80.809 C 46.995 81.197 45.887 81.002 45.017 80.836 C 44.718 80.779 42.532 80.110 43.254 81.188 C 43.617 81.729 44.671 81.941 45.238 82.191 C 46.225 82.625 47.278 83.144 48.366 83.275 C 49.514 83.413 50.650 83.056 51.714 82.687 C 52.897 82.277 54.081 81.867 55.278 81.499 C 59.184 80.297 62.545 78.084 65.751 75.680 C 68.942 73.287 71.924 70.603 73.544 66.821 C 74.377 64.876 75.487 62.875 75.614 60.845 C 75.807 57.751 76.186 54.594 75.238 51.465 C 74.538 49.155 73.507 47.044 72.340 44.977 C 71.320 43.173 69.818 41.731 68.518 40.141 C 67.146 38.464 65.419 37.349 63.836 36.010 C 62.933 35.248 61.896 34.549 60.802 34.124 C 58.139 33.092 55.416 32.206 52.695 31.329 C 51.924 31.081 51.064 31.121 50.266 30.938 C 48.380 30.509 46.516 29.979 44.623 29.582 C 43.449 29.335 42.239 29.256 40.836 29.074 C 40.953 27.701 41.000 26.338 41.202 24.998 C 41.445 23.393 41.866 21.815 42.112 20.211 C 42.208 19.589 42.502 19.381 43.032 19.226 C 45.313 18.563 46.986 17.012 48.129 15.078 C 49.789 12.270 49.846 9.216 48.587 6.194 C 48.359 5.648 47.944 5.146 47.516 4.722 C 46.447 3.661 45.454 2.439 44.190 1.678 C 42.970 0.943 41.530 0.648 40.120 0.587 C 38.884 0.533 37.061 0.489 35.918 1.034 C 34.823 1.556 33.687 2.863 32.972 3.816 C 31.824 5.345 31.488 7.256 31.375 9.127 C 31.319 10.053 31.412 10.992 31.697 11.878 C 31.982 12.764 32.544 13.453 32.940 14.272 C 33.738 15.921 35.389 17.132 37.026 17.903 C 37.594 18.171 38.204 18.386 38.834 18.444 C 39.509 18.506 39.702 18.846 39.650 19.455 C 39.381 22.587 39.116 25.719 38.863 28.709 C 36.941 28.709 35.205 28.597 33.490 28.733 C 31.010 28.932 28.519 28.931 26.036 29.106 C 24.908 29.185 23.741 29.236 22.630 29.460 C 21.416 29.705 20.249 30.131 19.057 30.460 C 18.330 30.662 17.609 30.858 16.939 31.203 C 15.482 31.953 13.963 32.549 12.520 33.406 C 10.916 34.360 9.388 35.438 7.929 36.601 C 6.254 37.935 4.896 39.753 3.678 41.545 C 2.685 43.005 1.912 44.689 1.396 46.380 C 0.484 49.366 0.057 52.471 0.255 55.602 C 0.402 57.933 0.550 60.300 1.092 62.557 C 1.575 64.568 2.495 66.495 3.926 68.111 C 5.004 69.328 5.864 70.771 7.070 71.832 C 8.680 73.249 10.522 74.406 12.282 75.650 C 13.460 76.482 14.645 77.303 15.832 78.122 C 16.424 78.532 17.020 78.937 17.613 79.343 C 18.044 79.638 18.449 79.951 18.973 80.081 C 19.437 80.196 19.991 80.124 20.469 80.124 C 21.229 80.124 21.990 80.124 22.750 80.124 C 23.368 80.124 23.989 80.137 24.607 80.124 C 25.135 80.113 25.908 80.200 26.398 80.015 C 27.209 79.708 26.014 79.036 25.666 78.891 C 24.616 78.455 23.465 78.117 22.382 77.757 Z M 34.461 12.570 C 34.454 12.547 34.448 12.524 34.441 12.500 C 33.761 11.407 33.634 9.996 33.506 8.541 C 33.498 8.458 33.524 8.396 33.565 8.349 C 33.833 5.600 35.423 3.543 37.568 2.895 C 37.772 2.833 37.995 2.829 38.222 2.840 C 38.962 2.782 39.663 2.835 40.323 2.991 C 40.568 3.009 40.809 3.063 41.042 3.159 C 41.562 3.277 42.073 3.452 42.601 3.608 C 42.689 3.634 42.744 3.687 42.777 3.749 C 42.786 3.752 42.793 3.755 42.802 3.758 C 42.855 3.779 42.893 3.811 42.925 3.848 C 44.347 4.532 45.526 5.625 46.428 7.257 C 47.620 9.413 47.359 11.419 46.533 13.532 C 45.934 15.064 45.016 16.285 43.466 16.951 C 42.831 17.225 42.288 17.357 41.828 16.547 C 41.645 16.224 40.925 15.922 40.570 16.025 C 38.415 16.653 35.179 14.850 34.461 12.570 Z M 15.097 75.290 C 13.353 74.069 11.427 73.017 9.947 71.528 C 7.230 68.796 4.350 66.090 3.298 62.163 C 2.372 58.706 2.009 55.206 2.823 51.668 C 3.342 49.414 3.780 47.129 4.509 44.942 C 4.895 43.785 5.764 42.762 6.522 41.758 C 8.548 39.077 11.111 37.035 14.179 35.635 C 15.786 34.902 17.349 34.041 19.013 33.473 C 19.381 33.348 19.757 33.245 20.137 33.152 C 21.380 32.617 22.760 32.262 24.074 32.033 C 24.102 32.028 24.131 32.024 24.159 32.019 C 24.506 31.960 24.844 31.909 25.175 31.866 C 26.605 31.544 28.035 31.670 29.469 31.609 C 31.808 31.511 34.156 31.368 36.490 31.470 C 39.593 31.607 42.709 31.822 45.780 32.271 C 47.863 32.575 49.888 33.308 51.922 33.905 C 54.450 34.644 57.032 35.266 59.459 36.259 C 62.205 37.383 64.790 38.802 66.803 41.179 C 68.741 43.463 70.384 45.891 71.767 48.524 C 72.657 50.221 73.184 51.994 73.163 53.929 C 73.145 55.690 73.332 57.467 73.166 59.211 C 72.737 63.740 70.714 67.345 67.870 70.797 C 66.526 72.429 64.493 73.899 62.721 75.033 C 60.423 76.505 58.254 78.031 55.652 78.948 C 54.595 79.321 53.511 79.615 52.120 80.044 C 54.404 76.572 56.529 73.333 57.491 69.843 C 58.728 69.777 59.797 69.728 60.865 69.656 C 61.301 69.627 61.732 69.542 62.167 69.488 C 65.316 69.104 67.545 67.181 68.462 64.159 C 69.379 61.135 69.392 58.199 67.941 55.313 C 67.003 53.450 65.391 52.350 63.592 51.565 C 62.203 50.958 60.679 50.468 59.121 50.937 C 58.264 51.194 57.470 51.663 56.783 51.975 C 55.788 50.368 54.955 48.707 53.816 47.290 C 52.882 46.127 51.698 45.068 50.423 44.294 C 48.206 42.949 45.896 41.721 43.510 40.714 C 41.943 40.052 40.186 39.808 38.494 39.478 C 36.040 38.999 33.583 39.202 31.157 39.717 C 28.827 40.211 26.626 41.037 24.723 42.523 C 24.522 42.679 24.339 42.875 24.113 42.978 C 22.699 43.625 21.443 44.786 20.548 46.041 C 20.321 46.358 19.809 47.810 19.533 47.936 C 19.125 48.121 17.709 46.881 17.293 46.645 C 13.767 44.642 8.615 46.020 6.535 49.575 C 4.348 53.315 5.305 56.768 7.306 60.271 C 8.862 62.993 11.339 63.934 14.115 64.601 C 14.392 64.667 14.761 65.183 14.751 65.479 C 14.654 68.405 15.126 71.225 16.147 73.965 C 16.382 74.595 16.522 75.259 16.792 76.212 C 16.104 75.843 15.565 75.617 15.097 75.290 Z " transform="matrix(1, 0, 0, 1, 59.4, 8)"/>
        </g>
        <g id="Group">
          <path id="Shape" fill="#EF453E" stroke="none" stroke-width="1" d="M 39.766 13.185 L 27.791 7.092 L 21.837 16.681 L 16.928 13.685 L 11.519 13.585 L 7.112 15.183 L 3.907 18.779 L 2.104 23.873 L 2.104 29.368 L 8.114 36.260 L 17.753 41.154 L 24.140 42.853 L 26.044 39.856 L 39.766 13.185 " transform="matrix(1, 0, 0, 1, 36, 140.45)"/>
          <path id="Shape" fill="#FABFBD" stroke="none" stroke-width="1" d="M 38.965 12.486 L 32.312 9.392 L 27.791 6.792 L 28.993 3.196 C 28.993 3.196 29.551 0.961 30.001 1.230 C 30.451 1.498 32.481 0.964 32.481 0.964 C 32.481 0.964 35.421 0.961 35.641 1.230 C 35.860 1.498 38.564 2.219 38.564 2.219 L 39.766 3.596 L 40.768 5.368 L 42.277 6.713 L 42.277 8.391 L 41.442 10.240 L 40.367 12.486 L 38.965 12.486 Z " transform="matrix(1, 0, 0, 1, 36, 140.45)"/>
          <path id="Shape" fill="#30419A" stroke="none" stroke-width="1" d="M 40.887 9.406 C 39.809 11.494 39.721 11.648 37.574 10.707 C 35.127 9.631 32.820 8.234 30.458 6.966 C 30.044 6.743 29.664 6.461 29.087 6.091 C 29.017 6.046 30.477 3.305 30.606 3.047 C 30.965 2.333 31.509 1.215 30.991 0.460 C 30.620 -0.082 30.078 0.333 29.665 0.622 C 29.354 0.838 29.046 1.004 28.891 1.378 C 28.681 1.884 28.506 2.399 28.259 2.906 C 26.916 5.663 25.515 8.390 24.113 11.117 C 23.474 12.363 22.776 13.580 22.086 14.847 C 21.040 14.314 20.117 13.772 19.137 13.366 C 18.108 12.939 17.046 12.442 15.962 12.333 C 13.830 12.118 11.728 12.162 9.641 13.067 C 7.924 13.813 6.333 14.604 5.160 16.076 C 4.596 16.784 4.132 17.573 3.563 18.277 C 1.820 20.431 0.733 23.019 0.603 25.625 C 0.441 28.869 1.070 32.195 3.605 34.694 C 4.658 35.733 5.725 36.797 6.943 37.616 C 8.333 38.551 10.010 39.071 11.360 40.050 C 13.067 41.287 15.013 41.918 16.912 42.658 C 18.569 43.305 20.301 43.845 22.050 44.151 C 24.287 44.542 24.940 44.566 26.097 42.279 C 27.059 40.378 27.976 38.454 28.981 36.576 C 30.523 33.696 32.158 30.866 33.693 27.982 C 35.822 23.986 37.879 19.954 40.006 15.957 C 40.440 15.144 41.133 14.467 41.556 13.650 C 42.213 12.378 42.707 11.030 43.319 9.737 C 43.700 8.933 44.507 7.643 43.856 6.781 C 43.399 6.174 42.552 6.663 42.157 7.084 C 41.580 7.697 41.270 8.665 40.887 9.406 Z M 34.681 21.161 C 32.743 24.788 30.729 28.373 28.785 31.995 C 27.734 33.955 26.764 35.961 25.750 37.942 C 25.131 39.153 24.545 40.386 23.837 41.544 C 23.668 41.821 22.844 42.073 22.708 41.940 C 21.632 40.892 20.157 41.031 18.896 40.576 C 16.347 39.657 13.784 38.838 11.534 37.231 C 10.131 36.229 8.523 35.518 7.072 34.575 C 4.705 33.037 3.506 30.771 2.853 28.045 C 2.184 25.253 3.197 22.934 4.409 20.616 C 4.891 19.694 5.553 18.865 6.132 17.992 C 7.764 15.528 12.880 13.258 16.123 14.565 C 17.441 15.097 18.716 15.753 19.958 16.448 C 20.664 16.842 20.907 17.425 20.340 18.247 C 19.705 19.164 19.184 20.171 18.708 21.184 C 18.410 21.817 18.262 22.579 19.175 22.897 C 19.987 23.178 20.648 22.962 21.066 22.119 C 22.757 18.696 24.470 15.284 26.179 11.870 C 26.600 11.032 27.108 10.229 27.440 9.358 C 27.732 8.593 28.155 8.532 28.775 8.850 C 31.254 10.128 33.726 11.422 36.208 12.695 C 36.917 13.059 37.648 13.377 38.465 13.760 C 37.169 16.302 35.966 18.753 34.681 21.161 Z " transform="matrix(1, 0, 0, 1, 36, 140.45)"/>
        </g>
        <g id="Group">
          <path id="Shape" fill="#FABFBD" stroke="none" stroke-width="1" d="M 17.830 5.758 L 17.830 2.647 L 15.326 1.498 C 15.326 1.498 12.421 0.099 11.520 0.099 C 10.618 0.099 8.236 -0.101 7.924 0.099 C 7.613 0.300 4.238 0.499 4.238 0.499 C 4.238 0.499 3.005 2.498 3.005 2.647 C 3.005 2.797 2.226 5.291 2.226 5.291 C 2.226 5.291 2.905 7.192 3.105 7.691 C 3.305 8.191 5.044 10.163 5.044 10.163 C 5.044 10.163 7.543 11.698 8.314 11.787 C 9.191 11.887 13.168 12.312 13.195 12.536 C 13.222 12.759 15.426 10.588 15.426 10.588 L 17.830 7.691 L 17.830 5.758 Z " transform="matrix(1, 0, 0, 1, 64.25, 135.65)"/>
          <path id="Shape" fill="#30419A" stroke="none" stroke-width="1" d="M 16.317 6.644 C 16.168 7.262 15.954 7.684 15.661 8.263 C 15.114 9.343 14.578 10.428 14.029 11.507 C 13.570 12.412 12.357 14.552 14.123 14.851 C 14.738 14.955 15.166 14.617 15.377 14.063 C 15.590 13.503 15.729 13.045 16.027 12.520 C 16.943 10.906 17.670 9.159 18.505 7.500 C 18.678 7.153 19.059 6.690 19.371 6.669 C 20.347 6.603 19.446 5.685 18.994 5.470 C 18.477 5.223 17.627 4.992 17.080 5.277 C 16.626 5.513 16.430 6.162 16.322 6.620 C 16.321 6.628 16.319 6.636 16.317 6.644 Z " transform="matrix(1, 0, 0, 1, 64.25, 135.65)"/>
          <path id="Shape" fill="#30419A" stroke="none" stroke-width="1" d="M 2.766 6.885 C 2.997 6.516 3.238 6.149 3.408 5.748 C 3.645 5.191 3.738 4.598 4.011 4.079 C 4.271 3.582 4.393 2.916 3.862 2.527 C 3.284 2.105 2.357 2.426 1.875 2.839 C 1.421 3.229 1.524 3.804 1.385 4.327 C 1.096 5.413 0.359 6.384 0.245 7.491 C 0.180 8.128 0.151 9.300 1.100 9.179 C 1.823 9.088 2.051 8.324 2.290 7.757 C 2.418 7.455 2.589 7.169 2.766 6.885 Z " transform="matrix(1, 0, 0, 1, 64.25, 135.65)"/>
        </g>
        <g id="Group">
          <path id="Shape" fill="#EF453E" stroke="none" stroke-width="1" d="M 5.560 14.584 L 14.648 13.085 L 18.861 11.187 L 20.536 10.788 L 24.741 20.078 L 30.551 20.078 L 35.035 21.076 L 38.465 23.474 L 40.568 28.368 L 41.269 32.264 L 39.165 37.958 L 36.187 41.354 L 30.751 43.750 L 23.415 46.149 L 19.633 46.149 L 16.755 43.750 L 11.218 31.964 L 6.511 18.379 L 5.560 14.584 " transform="matrix(1, 0, 0, 1, 99.1, 141.05)"/>
          <path id="Shape" fill="#FABFBD" stroke="none" stroke-width="1" d="M 4.908 14.384 L 3.217 10.788 L 2.203 7.891 L 3.556 4.769 C 3.556 4.769 4.206 3.296 4.908 3.296 C 5.609 3.296 8.414 2.297 8.414 2.297 L 12.321 2.297 L 15.025 2.297 L 17.930 2.797 L 19.633 7.691 L 20.536 10.089 L 18.861 11.887 L 14.297 13.143 L 8.614 14.384 L 4.908 14.384 Z " transform="matrix(1, 0, 0, 1, 99.1, 141.05)"/>
          <path id="Shape" fill="#30419A" stroke="none" stroke-width="1" d="M 17.280 4.464 C 18.132 6.171 19.017 7.857 18.943 9.905 C 14.709 11.741 10.344 13.368 5.511 13.555 C 5.357 13.561 4.535 11.257 4.430 11.010 C 4.073 10.170 3.790 9.206 3.323 8.422 C 3.167 8.160 2.950 7.977 2.828 7.691 C 2.701 7.396 2.655 7.061 2.556 6.756 C 2.382 6.220 2.122 5.623 1.504 5.506 C 0.932 5.398 0.503 5.744 0.420 6.292 C 0.256 7.369 1.067 8.576 1.424 9.555 C 1.877 10.799 2.311 12.051 2.806 13.280 C 4.153 16.625 5.565 19.945 6.950 23.276 C 7.255 24.009 7.570 24.739 7.864 25.477 C 8.881 28.028 9.842 30.603 10.922 33.127 C 11.685 34.913 12.766 36.572 13.419 38.391 C 14.286 40.804 14.953 43.282 16.516 45.381 C 16.597 45.491 16.626 45.643 16.669 45.779 C 17.110 47.186 18.384 47.966 19.783 47.728 C 20.318 47.637 20.868 47.584 21.408 47.600 C 24.075 47.682 26.574 46.908 29.019 46.012 C 30.835 45.346 32.523 44.333 34.342 43.680 C 36.340 42.962 37.936 41.927 39.290 40.208 C 43.428 34.946 43.341 30.745 40.914 25.066 C 40.526 24.156 39.875 23.289 39.152 22.603 C 36.200 19.803 32.470 18.823 28.556 18.472 C 27.354 18.364 26.113 18.683 24.911 18.804 C 24.210 17.145 23.685 15.511 22.857 14.046 C 22.020 12.566 22.400 10.730 21.278 9.379 C 21.148 9.221 21.136 8.970 21.058 8.768 C 20.383 7.029 19.711 5.289 19.031 3.552 C 18.650 2.578 18.492 1.006 17.241 0.633 C 16.431 0.393 16.261 1.224 16.295 1.841 C 16.349 2.795 16.863 3.629 17.280 4.464 Z M 20.627 13.768 C 21.459 15.980 22.240 18.214 23.114 20.411 C 23.861 22.285 24.718 24.115 25.500 25.975 C 25.648 26.326 25.705 26.726 25.745 27.110 C 25.825 27.872 26.096 28.464 26.954 28.537 C 27.729 28.603 27.953 28.310 28.155 27.458 C 28.331 26.717 28.192 26.295 27.925 25.713 C 27.320 24.401 26.759 23.065 26.247 21.714 C 26.177 21.530 26.436 21.027 26.625 20.977 C 27.240 20.815 27.894 20.793 28.240 20.754 C 30.962 21.001 33.341 21.229 35.503 22.530 C 37.978 24.020 39.274 26.202 39.744 28.975 C 39.881 29.785 40.213 30.569 40.294 31.381 C 40.572 34.165 39.001 36.235 37.517 38.350 C 36.302 40.082 34.481 40.781 32.624 41.487 C 31.577 41.885 30.593 42.447 29.555 42.870 C 27.820 43.575 26.106 44.392 24.303 44.847 C 22.822 45.221 21.190 45.373 19.693 45.155 C 18.934 45.045 18.083 44.015 17.693 43.201 C 15.995 39.646 14.406 36.038 12.859 32.413 C 10.987 28.029 9.192 23.610 7.377 19.202 C 7.159 18.672 7.047 18.098 6.854 17.556 C 6.228 15.809 6.429 15.493 8.306 15.265 C 10.214 15.031 12.150 14.917 14.019 14.502 C 15.598 14.150 17.095 13.439 18.633 12.895 C 20.093 12.379 20.106 12.383 20.627 13.768 Z " transform="matrix(1, 0, 0, 1, 99.1, 141.05)"/>
        </g>
        <g id="Group">
          <path id="Shape" fill="#FABFBD" stroke="none" stroke-width="1" d="M 18.230 4.495 L 15.426 1.898 L 11.670 0.610 C 11.670 0.610 7.412 0.721 7.262 0.610 C 7.112 0.499 3.506 0.849 3.406 0.999 C 3.306 1.149 2.004 2.997 1.903 3.247 C 1.803 3.496 1.231 5.263 1.352 5.590 C 1.473 5.917 2.354 8.391 2.504 8.940 C 2.655 9.489 3.856 12.636 3.956 12.936 C 4.057 13.235 6.862 14.334 6.862 14.334 C 6.862 14.334 7.914 14.284 8.164 14.334 C 8.414 14.384 11.570 14.334 11.871 14.334 C 12.171 14.334 16.028 12.852 16.178 12.786 C 16.328 12.720 18.223 11.556 18.223 11.556 L 18.782 10.001 L 19.060 6.358 L 18.230 4.495 Z " transform="matrix(1, 0, 0, 1, 96.7, 135.05)"/>
          <path id="Shape" fill="#30419A" stroke="none" stroke-width="1" d="M 18.863 8.937 C 18.942 9.086 19.030 9.223 19.132 9.331 C 19.513 9.736 20.434 10.238 20.979 9.876 C 21.395 9.601 21.285 9.151 21.103 8.766 C 20.904 8.347 20.753 8.053 20.646 7.606 C 20.458 6.814 20.078 6.031 19.806 5.261 C 19.545 4.524 19.341 3.702 18.552 3.357 C 17.474 2.886 16.880 4.001 17.096 4.923 C 17.337 5.947 17.974 6.988 18.423 7.932 C 18.565 8.231 18.693 8.615 18.863 8.937 Z " transform="matrix(1, 0, 0, 1, 96.7, 135.05)"/>
          <path id="Shape" fill="#30419A" stroke="none" stroke-width="1" d="M 2.729 7.206 C 2.442 6.603 2.058 6.071 1.473 5.917 C 1.096 5.817 0.672 6.014 0.448 6.303 C -0.278 7.241 0.956 8.837 1.356 9.686 C 1.933 10.913 2.497 12.145 3.012 13.398 C 3.283 14.057 3.440 14.705 3.997 15.188 C 4.393 15.532 5.136 15.924 5.494 15.316 C 5.708 14.953 5.606 14.297 5.520 13.923 C 5.416 13.466 5.107 12.994 4.920 12.556 C 4.708 12.059 4.499 11.561 4.291 11.063 C 3.984 10.328 3.685 9.592 3.375 8.859 C 3.188 8.421 3.003 7.781 2.729 7.206 Z " transform="matrix(1, 0, 0, 1, 96.7, 135.05)"/>
        </g>
        <g id="Group">
          <path id="Shape" fill="#EF453E" stroke="none" stroke-width="1" d="M 27.546 4.063 L 20.758 5.993 L 18.731 4.063 L 15.426 1.729 L 10.016 1.739 L 5.710 3.861 L 1.803 7.691 L 1.803 14.838 L 4.207 21.076 L 10.016 24.772 L 14.674 24.772 L 20.758 22.874 L 22.938 19.378 L 23.539 15.283 L 30.796 13.409 L 28.748 4.063 L 27.546 4.063 " transform="matrix(1, 0, 0, 1, 33, 88.3)"/>
          <path id="Shape" fill="#FABFBD" stroke="none" stroke-width="1" d="M 30.689 12.919 L 27.947 4.495 L 29.850 4.063 L 32.555 3.496 L 34.358 4.495 L 35.318 7.192 L 35.487 9.589 C 35.487 9.589 35.546 11.497 35.213 11.975 C 34.880 12.454 33.007 13.521 33.007 13.521 L 30.689 12.919 Z " transform="matrix(1, 0, 0, 1, 33, 88.3)"/>
          <path id="Shape" fill="#30419A" stroke="none" stroke-width="1" d="M 33.102 12.387 C 31.415 12.879 31.162 12.695 30.764 10.949 C 30.313 8.970 29.799 7.006 29.273 4.874 C 30.214 4.663 31.148 4.472 32.036 4.117 C 32.711 3.847 33.431 3.862 33.735 3.069 C 33.910 2.613 33.720 2.158 33.264 1.927 C 32.640 1.611 31.523 1.939 30.896 2.107 C 29.971 2.354 29.050 2.616 28.127 2.872 C 26.307 3.376 24.477 3.859 22.611 4.164 C 21.193 4.396 20.580 4.493 19.622 3.145 C 18.141 1.060 15.830 0.067 13.104 0.430 C 12.087 0.566 10.965 0.284 10.027 0.598 C 7.666 1.385 5.296 2.286 3.532 4.149 C 2.471 5.269 1.111 6.415 0.716 7.786 C -0.000 10.282 -0.264 12.956 0.565 15.559 C 0.728 16.072 1.049 16.540 1.179 17.058 C 2.423 22.028 5.788 24.869 10.587 26.020 C 13.220 26.651 15.970 26.715 18.541 25.496 C 20.767 24.440 23.091 23.444 24.073 20.919 C 24.445 19.963 24.861 18.903 24.792 17.923 C 24.685 16.388 24.670 16.170 26.193 15.910 C 28.114 15.582 30.035 15.254 31.956 14.926 C 32.750 14.790 35.190 14.469 35.309 13.333 C 35.434 12.156 33.910 12.151 33.102 12.387 Z M 28.229 13.342 C 26.639 13.682 25.034 13.956 23.426 14.206 C 22.371 14.370 21.656 15.407 22.102 16.391 C 23.045 18.475 22.480 21.044 19.832 22.155 C 18.933 22.532 18.098 23.187 17.171 23.341 C 15.343 23.647 13.449 23.937 11.624 23.775 C 9.818 23.612 8.172 22.751 6.717 21.500 C 4.298 19.419 3.131 16.539 2.715 13.710 C 2.113 9.610 2.922 6.639 7.303 4.195 C 9.775 2.814 12.376 2.300 15.172 2.749 C 16.596 2.977 17.866 4.169 18.210 5.609 C 18.561 7.076 19.383 7.442 20.831 7.030 C 22.285 6.616 23.799 6.415 25.280 6.088 C 25.983 5.933 26.669 5.702 27.671 5.419 C 27.871 6.808 28.051 8.127 28.252 9.443 C 28.409 10.476 28.633 11.501 28.732 12.539 C 28.756 12.799 28.454 13.294 28.229 13.342 Z " transform="matrix(1, 0, 0, 1, 33, 88.3)"/>
        </g>
        <g id="Group">
          <path id="Shape" fill="#EF453E" stroke="none" stroke-width="1" d="M 27.646 4.095 L 23.840 4.095 L 20.610 4.986 L 17.429 6.593 L 14.524 5.982 L 8.013 2.997 L 7.074 7.416 L 5.609 12.558 L 12.521 15.982 L 12.521 18.579 L 13.924 22.775 L 18.631 25.472 L 21.763 26.071 L 28.175 24.873 L 31.953 22.375 L 35.059 19.478 L 36.761 15.882 L 36.761 12.985 L 33.857 7.416 L 29.249 4.495 L 27.646 4.095 " transform="matrix(1, 0, 0, 1, 113.5, 94.3)"/>
          <g id="Shape">
            <path id="ID0.31293948739767075" fill="#FABFBD" stroke="none" stroke-width="1" d="M 7.713 2.583 L 4.783 2.497 L 2.012 2.583 L 1.001 4.195 L 0.224 6.593 C 0.224 6.593 -0.096 8.389 0.224 8.617 C 0.543 8.846 1.081 11.510 1.081 11.510 L 4.437 12.558 L 6.112 12.558 L 7.713 2.583 Z " transform="matrix(1, 0, 0, 1, 113.5, 94.3)"/>
            <path id="ID0.8056447994895279" fill="#30419A" stroke="none" stroke-width="1" d="M 37.746 13.212 C 37.541 12.096 37.102 10.998 36.608 9.968 C 36.121 8.951 35.595 7.859 34.799 7.099 C 32.412 4.822 29.533 3.565 26.239 2.945 C 23.323 2.396 20.897 2.966 18.577 4.663 C 17.834 5.206 17.031 6.053 16.091 5.366 C 15.520 5.232 15.029 4.916 14.508 4.616 C 14.193 4.535 13.886 4.428 13.596 4.267 C 13.576 4.255 13.564 4.240 13.549 4.227 C 13.092 4.053 12.637 3.875 12.194 3.673 C 10.882 3.076 9.641 2.321 8.318 1.755 C 7.575 1.437 6.822 1.140 6.067 0.850 C 5.486 0.628 4.627 0.287 4.015 0.633 C 3.623 0.856 3.416 1.265 3.652 1.653 C 3.961 2.159 4.566 2.394 5.073 2.634 C 5.570 2.870 6.062 3.178 6.516 3.487 C 6.686 3.603 6.788 4.008 6.733 4.234 C 6.408 5.553 6.017 6.856 5.669 8.171 C 5.401 9.185 5.163 10.210 4.877 11.377 C 4.327 11.040 3.837 10.701 3.183 10.973 C 2.990 11.054 2.733 11.253 2.589 11.407 C 2.348 11.666 2.159 12.081 2.260 12.446 C 2.414 13.006 2.890 13.202 3.419 13.278 C 4.055 13.370 4.582 13.701 5.207 13.836 C 7.549 14.342 9.803 15.021 11.657 16.750 C 11.719 17.465 11.795 18.324 11.866 19.184 C 12.083 21.858 13.320 23.971 15.600 25.344 C 18.108 26.856 20.867 27.763 23.831 27.451 C 25.586 27.267 27.387 26.928 29.013 26.275 C 30.520 25.668 31.980 24.724 33.182 23.625 C 36.213 20.856 38.561 17.668 37.746 13.212 Z M 32.865 20.602 C 31.842 21.407 30.942 22.395 29.843 23.069 C 26.505 25.112 22.912 25.659 19.152 24.403 C 18.030 24.029 16.934 23.518 15.912 22.921 C 13.952 21.779 13.421 19.918 13.629 17.790 C 13.653 17.550 13.939 17.342 14.085 17.108 C 14.331 16.711 14.731 16.318 14.763 15.900 C 14.826 15.096 14.676 14.470 13.497 14.431 C 12.508 14.397 11.515 13.873 10.566 13.470 C 9.308 12.937 8.091 12.310 6.997 11.789 C 7.498 9.516 8.022 7.142 8.590 4.564 C 9.143 4.751 9.678 4.876 10.164 5.105 C 12.281 6.107 14.351 7.221 16.510 8.124 C 17.501 8.539 18.562 8.045 19.282 7.292 C 20.619 5.895 22.185 4.870 24.104 4.909 C 25.666 4.940 27.273 5.290 28.761 5.791 C 31.532 6.724 33.787 8.319 34.970 11.187 C 36.444 14.755 36.013 18.130 32.865 20.602 Z " transform="matrix(1, 0, 0, 1, 113.5, 94.3)"/>
          </g>
        </g>
        <g id="Group">
          <path id="Shape" fill="#FABFBD" stroke="none" stroke-width="1" d="M 13.924 2.198 L 7.463 3.147 L 2.827 3.996 C 2.827 3.996 2.069 5.694 1.803 5.944 C 1.537 6.194 1.390 6.956 1.346 7.042 C 1.302 7.129 1.340 8.541 1.346 8.790 C 1.352 9.040 2.354 12.179 2.354 12.179 C 2.354 12.179 3.132 13.229 3.483 13.378 C 3.833 13.528 4.417 13.636 4.838 13.785 C 5.259 13.935 7.612 13.585 7.813 13.636 C 8.014 13.686 9.720 12.886 9.943 12.936 C 10.167 12.986 12.771 11.838 13.122 11.787 C 13.472 11.737 15.726 9.340 15.726 9.190 C 15.726 9.040 16.564 7.070 16.496 6.357 C 16.427 5.645 15.819 2.830 15.819 2.830 L 13.924 2.198 Z " transform="matrix(1, 0, 0, 1, 63.65, 87.1)"/>
          <path id="Shape" fill="#30419A" stroke="none" stroke-width="1" d="M 9.768 12.446 C 9.456 12.031 8.859 12.212 8.400 12.249 C 8.358 12.253 8.319 12.254 8.280 12.254 C 8.247 12.280 8.207 12.302 8.156 12.313 C 6.590 12.648 5.064 13.129 3.483 13.378 C 3.471 13.382 3.460 13.387 3.448 13.392 C 2.761 13.654 1.603 13.517 1.394 14.419 C 0.882 16.643 4.547 15.571 5.479 15.410 C 6.147 15.294 6.830 15.069 7.481 14.883 C 8.131 14.697 9.061 14.621 9.536 14.086 C 9.884 13.695 10.123 12.918 9.768 12.446 Z " transform="matrix(1, 0, 0, 1, 63.65, 87.1)"/>
          <path id="Shape" fill="#30419A" stroke="none" stroke-width="1" d="M 14.310 2.981 C 14.478 2.960 14.652 2.951 14.870 2.952 C 15.249 2.954 15.738 2.927 16.066 2.711 C 17.039 2.073 16.184 0.695 15.267 0.614 C 14.093 0.510 12.899 0.851 11.754 1.054 C 9.040 1.534 6.318 1.973 3.613 2.502 C 2.746 2.672 1.487 2.740 0.811 3.345 C 0.326 3.781 -0.271 4.637 0.554 5.067 C 1.149 5.377 2.087 5.259 2.709 5.111 C 3.573 4.905 4.438 4.700 5.305 4.505 C 7.038 4.113 8.781 3.755 10.539 3.486 C 11.568 3.329 12.631 3.389 13.643 3.120 C 13.905 3.051 14.103 3.006 14.310 2.981 Z " transform="matrix(1, 0, 0, 1, 63.65, 87.1)"/>
        </g>
        <g id="Group">
          <path id="Shape" fill="#FABFBD" stroke="none" stroke-width="1" d="M 4.608 2.048 L 2.605 1.796 C 2.605 1.796 1.202 1.998 0.902 2.298 C 0.601 2.598 0.200 3.996 0.150 4.445 C 0.100 4.895 0.651 8.641 0.701 8.840 C 0.751 9.040 3.506 12.060 3.657 12.323 C 3.807 12.586 6.511 14.284 6.511 14.284 C 6.511 14.284 9.466 14.584 9.717 14.584 C 9.967 14.584 12.471 15.233 12.471 15.233 C 12.471 15.233 13.623 14.234 13.773 14.234 C 13.924 14.234 14.963 12.559 14.969 12.323 C 14.975 12.087 15.727 8.514 15.727 8.514 L 15.176 6.693 L 12.830 4.795 L 7.937 2.865 L 4.608 2.048 Z " transform="matrix(1, 0, 0, 1, 102.7, 89.5)"/>
          <path id="Shape" fill="#30419A" stroke="none" stroke-width="1" d="M 5.262 3.445 C 5.737 3.564 6.244 3.541 6.711 3.726 C 8.805 4.555 10.891 5.405 12.973 6.264 C 13.664 6.549 17.470 8.581 16.865 6.330 C 16.558 5.190 14.633 4.796 13.718 4.438 C 11.772 3.676 9.833 2.899 7.891 2.123 C 6.785 1.680 5.639 1.281 4.491 0.936 C 4.022 0.795 2.564 0.278 2.140 0.708 C 1.486 1.370 2.735 2.397 3.206 2.643 C 3.743 2.922 4.365 3.069 4.919 3.326 C 5.030 3.378 5.145 3.416 5.262 3.445 Z " transform="matrix(1, 0, 0, 1, 102.7, 89.5)"/>
          <path id="Shape" fill="#30419A" stroke="none" stroke-width="1" d="M 11.361 13.640 C 11.533 13.651 11.688 13.778 11.863 13.886 C 12.316 14.167 12.768 14.447 13.221 14.727 L 14.123 15.302 C 14.501 15.471 14.888 15.592 14.958 16.051 C 15.014 16.423 14.863 16.871 14.599 17.140 C 14.286 17.459 13.812 17.350 13.430 17.256 C 12.952 17.140 12.513 16.876 12.146 16.554 C 11.988 16.416 11.859 16.231 11.682 16.118 C 11.503 16.004 11.313 15.956 11.155 15.794 C 10.874 15.505 10.702 15.076 10.692 14.675 C 10.684 14.360 10.815 13.927 11.081 13.734 C 11.182 13.661 11.274 13.636 11.361 13.640 Z " transform="matrix(1, 0, 0, 1, 102.7, 89.5)"/>
        </g>
        <g id="Group">
          <path id="Shape" fill="#F7EC1E" stroke="none" stroke-width="1" d="M 50.672 2.996 L 39.366 1.948 L 28.648 1.948 L 26.369 2.797 L 23.515 8.609 L 18.105 16.409 L 11.284 27.645 L 5.710 38.433 L 1.427 46.674 L 6.217 49.446 L 24.013 54.137 L 39.892 55.171 L 59.500 52.442 C 59.500 52.442 74.225 49.970 74.525 49.820 C 74.826 49.670 79.108 47.423 79.108 47.423 L 76.629 42.853 L 62.113 20.349 L 53.471 7.716 L 50.672 2.996 Z " transform="matrix(1, 0, 0, 1, 53.4, 86.5)"/>
          <path id="Shape" fill="#30419A" stroke="none" stroke-width="1" d="M 80.711 46.430 C 78.903 44.278 77.543 41.774 76.000 39.433 C 74.284 36.831 72.543 34.245 70.796 31.662 C 69.197 29.297 67.564 26.951 65.972 24.581 C 65.204 23.439 64.491 22.261 63.769 21.101 L 61.110 16.759 C 60.431 16.157 59.850 15.412 59.463 14.401 C 58.954 13.078 57.763 12.021 56.912 10.821 C 56.048 9.603 55.213 8.364 54.370 7.131 L 52.793 4.882 C 52.780 4.872 52.765 4.869 52.752 4.856 C 51.748 3.905 50.819 2.921 49.563 2.310 C 49.406 2.262 49.252 2.210 49.091 2.166 C 49.062 2.185 49.033 2.195 49.003 2.216 C 48.939 2.264 48.793 2.209 48.688 2.192 C 46.818 1.883 44.955 1.515 43.076 1.275 C 41.247 1.042 39.432 0.744 37.596 0.643 C 36.267 0.569 34.917 0.599 33.586 0.599 C 32.674 0.599 31.704 0.702 30.804 0.515 C 30.790 0.517 30.780 0.524 30.766 0.524 C 29.320 0.552 27.847 0.795 26.560 1.494 C 25.844 1.883 25.471 2.395 25.060 2.942 C 25.057 2.948 25.057 2.954 25.053 2.960 C 24.838 3.269 24.683 3.609 24.500 3.933 C 24.467 4.040 24.427 4.148 24.369 4.262 C 24.020 4.949 23.846 5.703 23.416 6.354 C 22.591 7.601 21.731 8.825 20.862 10.041 C 20.419 10.660 19.949 11.266 19.527 11.900 C 19.183 12.416 18.699 12.900 18.437 13.465 C 18.252 13.863 18.066 14.228 17.845 14.598 C 17.481 15.208 17.217 15.884 16.845 16.480 C 16.446 17.120 16.013 17.742 15.623 18.391 C 14.148 20.846 12.739 23.341 11.246 25.786 C 10.093 27.673 8.726 29.439 7.682 31.381 C 6.076 34.366 4.661 37.454 3.174 40.503 C 2.398 42.091 1.587 43.668 0.887 45.287 C 0.632 45.877 0.224 46.660 0.347 47.323 C 0.527 48.283 1.624 48.168 2.295 48.555 C 2.578 48.717 2.876 48.859 3.179 48.982 C 4.777 49.631 6.267 50.509 7.856 51.176 C 8.636 51.503 9.470 51.674 10.245 51.984 C 11.060 52.310 11.874 52.621 12.736 52.829 C 13.467 53.006 14.270 53.260 15.017 53.343 C 15.655 53.415 16.270 53.561 16.908 53.688 C 19.021 54.108 21.096 54.755 23.223 55.100 C 25.266 55.430 27.214 55.700 29.297 55.700 C 31.010 55.700 32.721 55.690 34.426 55.768 C 35.981 55.839 37.528 56.088 39.083 56.147 C 40.319 56.192 41.560 56.094 42.800 56.069 C 42.818 56.061 42.833 56.051 42.856 56.048 C 43.812 55.891 44.772 55.812 45.737 55.786 C 45.828 55.780 45.920 55.771 46.010 55.766 C 50.641 55.087 55.164 54.423 59.662 53.763 C 59.690 53.747 59.720 53.732 59.759 53.725 C 60.872 53.535 61.984 53.349 63.107 53.228 C 63.120 53.226 63.130 53.231 63.143 53.231 C 63.290 53.119 63.554 53.044 63.973 52.959 C 66.099 52.528 68.231 52.126 70.358 51.698 C 72.673 51.231 75.012 50.834 77.307 50.274 C 78.099 50.081 78.774 49.764 79.576 49.614 C 80.394 48.797 80.675 47.783 80.711 46.430 Z M 75.142 48.455 C 72.209 49.224 69.243 49.885 66.268 50.480 C 64.204 50.893 62.107 51.135 60.022 51.441 C 57.422 51.822 54.800 52.082 52.224 52.585 C 47.809 53.445 43.369 53.932 38.875 53.803 C 36.930 53.748 34.990 53.533 33.045 53.441 C 30.588 53.325 28.101 53.451 25.675 53.124 C 22.971 52.760 20.312 52.037 17.647 51.411 C 15.731 50.961 13.818 50.477 11.940 49.892 C 9.331 49.079 6.616 48.527 4.265 47.020 C 3.964 46.827 3.657 46.643 3.228 46.379 C 4.274 44.154 5.460 41.966 6.356 39.665 C 8.533 34.080 11.755 29.095 14.991 24.099 C 16.368 21.973 17.383 19.617 18.694 17.446 C 19.724 15.741 20.996 14.186 22.087 12.517 C 23.658 10.116 25.709 8.000 26.459 5.103 C 26.800 3.785 27.720 3.228 29.148 3.162 C 31.687 3.045 34.233 2.682 36.760 2.793 C 39.918 2.932 43.070 3.380 46.203 3.829 C 47.503 4.014 48.851 4.366 49.987 4.988 C 50.711 5.386 51.089 6.415 51.615 7.167 C 53.206 9.443 54.795 11.719 56.381 13.998 C 56.810 14.615 57.280 15.212 57.638 15.869 C 58.410 17.290 59.246 18.639 60.242 19.942 C 61.738 21.903 62.831 24.165 64.202 26.229 C 65.482 28.156 66.949 29.958 68.245 31.875 C 69.478 33.698 70.586 35.605 71.770 37.463 C 72.058 37.912 72.418 38.319 72.761 38.732 C 73.126 39.174 73.591 39.554 73.874 40.042 C 75.180 42.293 76.438 44.572 77.819 47.029 C 76.905 47.531 76.081 48.209 75.142 48.455 Z " transform="matrix(1, 0, 0, 1, 53.4, 86.5)"/>
        </g>
      </g>
    </g>
  </g>
</svg>