<svg version="1.1" width="173" height="180" xmlns="http://www.w3.org/2000/svg" xmlns:xlink="http://www.w3.org/1999/xlink">
  <defs>
    <linearGradient id="grad_1" x1="1261.3057" y1="-1383.2051" x2="1268.8572" y2="-1432.0247" gradientUnits="userSpaceOnUse">
      <stop offset="0" stop-color="#FF9900"/>
      <stop offset="1" stop-color="#FFCC99"/>
    </linearGradient>
  </defs>
  <!-- Exported by Scratch - http://scratch.mit.edu/ -->
  <g id="ID0.8221628447063267" transform="matrix(0.8573749661445618, 0, 0, 0.8573749661445618, 0.3, 0.75)">
    <g id="color">
      <path id="path3914" fill="#FF9900" d="M 141.932 69.953 C 137.262 78.139 138.789 86.831 139.502 95.457 C 138.331 101.533 136.539 106.986 135.010 112.702 C 135.551 121.564 140.957 126.066 144.481 132.255 C 142.874 142.743 140.905 153.106 135.130 162.129 L 136.952 169.053 C 127.930 175.406 120.405 170.585 116.428 167.594 L 112.299 115.252 C 103.190 116.495 94.082 116.160 84.973 114.887 C 78.725 124.762 72.876 134.908 71.883 144.382 C 70.596 156.669 75.303 167.479 75.500 171.481 C 73.297 175.034 69.812 174.740 66.514 175.003 L 64.694 178.038 C 58.702 180.637 52.710 179.603 46.719 177.187 C 40.219 164.170 46.615 114.773 57.528 119.138 C 51.399 104.482 51.096 89.039 62.750 75.902 C 58.642 74.062 51.674 72.782 50.242 96.306 L 48.905 93.754 C 47.356 102.965 47.741 112.691 43.077 121.200 L 41.619 119.012 C 38.677 122.305 32.879 140.180 11.501 129.944 L 15.022 129.459 C 1.387 123.534 1.447 116.192 0.692 108.937 C 4.336 114.167 18.768 124.121 29.475 113.916 L 23.645 114.037 C 29.051 112.742 35.553 103.361 38.602 81.894 L 35.303 81.976 C 45.858 64.810 56.850 63.943 68.092 72.380 C 73.395 70.269 78.697 70.441 84.001 70.558 C 91.283 73.068 98.504 76.625 106.227 71.652 L 105.498 68.859 L 103.556 71.288 C 102.605 61.127 103.702 50.967 107.927 40.806 L 103.798 43.235 C 106.146 36.959 108.427 30.640 112.665 25.625 C 112.770 17.584 111.743 10.660 120.923 0.365 C 124.201 2.184 126.429 5.678 128.089 10.081 L 138.412 3.766 L 137.198 6.923 C 144.172 5.135 148.647 0.421 166.223 10.931 L 162.457 10.810 C 171.504 19.492 171.200 28.534 172.172 37.528 L 164.401 34.855 C 164.917 42.064 165.549 49.243 163.549 57.080 C 172.354 69.507 148.139 70.337 141.932 69.953 L 141.932 69.953 Z "/>
      <path id="path3920" fill="#FFFFFF" d="M 146 45.240 C 145.783 38.785 142.586 35.546 138.350 34.917 C 134.215 34.302 128.538 38.245 128.270 42.385 C 127.807 49.515 133.372 56.159 140.779 54.772 C 145.822 53.828 146.164 50.127 146 45.240 L 146 45.240 Z "/>
      <path id="path3922" fill="#FFFFFF" d="M 165.137 62.034 C 162.092 68.851 154.768 70.765 145.098 69.989 C 139.592 68.593 124.891 71.160 127.549 59.726 C 129.317 52.125 147.858 50.803 156.817 59.665 L 165.137 62.034 L 165.137 62.034 Z "/>
      <path id="path3942" fill="#FFFFFF" d="M 116.004 114.100 C 115.074 109.688 114.921 104.985 109.022 102.440 C 99.592 99.391 91.450 100.502 86.373 101.225 C 85.572 105.543 83.209 109.473 80.483 113.309 C 93.098 116.576 104.671 115.805 116.004 114.100 L 116.004 114.100 Z "/>
      <path id="path3944" fill="#FFFFFF" d="M 37.583 124.662 C 33.107 129.247 27.118 136.966 11.646 129.900 L 14.826 129.642 C 6.751 125.688 0.040 120.547 0.570 109.120 C 5.049 115.348 20.855 123.037 29.081 113.930 L 24.045 114.292 L 30.283 109.205 L 32.345 109.205 L 32.151 111.159 L 35.349 109.120 L 32.860 117.363 L 39.644 114.357 L 37.583 124.662 L 37.583 124.662 Z "/>
      <path id="path4112" fill="#FFFFFF" d="M 164.648 36.481 C 162.677 36.207 159.572 37.884 159.138 43.372 C 158.964 50.824 159.948 56.151 164.193 54.591 C 165.325 48.554 165.521 42.517 164.648 36.481 Z "/>
    </g>
    <g id="face">
      <path id="path3947" d="M 131.432 36.832 C 129.704 38.239 128.377 40.109 127.791 41.943 L 128.487 42.160 C 129.019 40.495 130.263 38.724 131.886 37.402 C 133.509 36.080 135.491 35.215 137.489 35.291 C 139.282 35.358 141.142 35.867 142.623 37.333 C 144.105 38.799 145.244 41.255 145.510 45.297 C 145.756 48.669 145.239 50.892 144.346 52.302 C 141.973 56.855 134.348 54.828 131.030 51.222 C 132.450 53.174 135.010 54.531 136.372 54.915 C 137.735 55.299 139.351 55.539 140.902 55.291 C 142.454 55.044 143.956 54.282 144.964 52.690 C 145.972 51.097 146.482 48.720 146.230 45.250 C 145.957 41.091 144.777 38.440 143.138 36.818 C 141.499 35.197 139.439 34.632 137.525 34.559 C 135.301 34.475 133.158 35.423 131.432 36.832 Z "/>
      <path id="path3955" d="M 140.309 50.198 C 140.328 49.476 140.917 48.899 141.641 48.899 C 142.375 48.899 142.971 49.496 142.971 50.231 C 142.971 50.966 142.375 51.562 141.641 51.562 C 140.906 51.562 140.309 50.966 140.309 50.231 "/>
      <path id="path3955-1" d="M 161.112 49.489 C 161.130 48.768 161.720 48.191 162.441 48.191 C 163.177 48.191 163.773 48.788 163.773 49.522 C 163.773 50.258 163.177 50.854 162.441 50.854 C 161.707 50.854 161.112 50.258 161.112 49.522 "/>
      <path id="path3975" d="M 163.251 36.088 C 162.635 36.134 162.005 36.358 161.436 36.784 C 160.299 37.638 159.416 39.275 159.121 41.884 L 159.121 41.896 L 159.108 41.908 C 158.758 45.340 158.291 48.844 159.690 52.530 L 159.703 52.542 L 159.716 52.564 C 160.250 53.671 160.855 54.567 161.689 55.028 C 162.525 55.490 163.523 55.023 164.626 54.288 C 161.889 55.371 160.989 54.397 160.153 52.158 C 158.935 48.707 159.443 45.453 159.841 41.964 C 159.843 41.957 159.841 41.949 159.841 41.941 C 160.126 39.475 160.966 38.056 161.884 37.365 C 162.806 36.673 163.829 36.662 164.679 37.092 L 165.009 36.442 C 164.473 36.170 163.868 36.043 163.251 36.088 L 163.251 36.088 Z "/>
      <path id="path3981" d="M 160.301 63.880 C 162.233 63.713 164.402 63.352 165.613 60.297 C 165.853 58.313 162.955 58.477 160.209 58.536 C 156.879 58.307 154.694 58.741 154.592 60.449 C 154.543 62.420 158.110 63.566 160.301 63.880 L 160.301 63.880 Z "/>
      <path id="path3983" fill="none" stroke="#000000" stroke-width="0.5" d="M 148.672 67.828 C 145.584 67.012 145.971 64.531 146.061 63.031 C 146.061 63.031 154.867 64.974 155.473 65.095 C 153.965 67.447 151.799 68.550 148.672 67.828 Z "/>
      <path id="path3985" fill="none" stroke="#000000" stroke-linecap="round" d="M 133.613 58.900 C 133.613 58.900 141.386 61.390 141.810 61.390 "/>
      <path id="path3985-7" fill="none" stroke="#000000" stroke-linecap="round" d="M 132.186 66.036 C 132.186 66.036 141.539 64.762 141.963 64.762 "/>
      <path id="path3985-7-4" fill="none" stroke="#000000" stroke-linecap="round" d="M 164.369 64.275 L 169.592 66.097 "/>
      <path id="path3985-7-4-0" fill="none" stroke="#000000" stroke-linecap="round" d="M 165.370 61.027 L 170.411 60.054 "/>
      <path id="path4074" d="M 128.118 41.558 C 126.586 42.293 124.969 41.921 123.624 40.738 C 124.178 41.854 125.844 43.393 128.489 42.153 L 128.118 41.558 Z "/>
      <path id="path4074-9" d="M 128.999 39.986 C 127.292 40.098 125.557 39.481 124.171 38.712 C 125.120 39.821 126.709 40.686 128.635 40.761 L 128.999 39.986 Z "/>
      <path id="path4074-4" d="M 130 38.468 C 128.320 38.299 126.844 37.240 125.962 36.009 C 126.497 38.402 128.040 38.754 129.545 39.167 L 130 38.468 Z "/>
      <path id="path4108" d="M 165.084 38.210 C 167.163 38.086 168.463 38.011 169.377 36.255 C 167.707 37.177 167.234 37.722 164.869 37.243 L 165.084 38.210 Z "/>
      <path id="path4110" d="M 164.010 36.149 C 165.799 36.400 167.449 35.684 168.606 34.131 C 167.739 36.581 166.242 36.917 164.590 36.964 L 164.010 36.149 Z "/>
    </g>
    <g id="outline">
      <path id="path3026" d="M 141.676 69.621 C 137.910 74.693 137.416 81.619 138.652 90.853 C 139.414 96.556 138.430 100.591 137.237 103.861 C 136.043 107.130 134.582 109.621 134.578 112.269 C 134.571 117.581 136.886 121.992 139.153 125.503 C 140.287 127.261 141.405 128.791 142.233 130.103 C 143.063 131.413 143.565 132.505 143.569 133.228 C 143.624 141.888 140.861 150.601 137.407 157.132 C 135.680 160.396 133.777 163.119 131.999 165.003 C 130.222 166.888 128.542 167.876 127.470 167.890 C 124.638 167.927 122.495 165.911 121.046 163.338 C 119.597 160.765 118.927 157.660 119.038 156.035 C 119.087 155.323 119.679 153.841 120.578 152.143 C 121.479 150.446 122.663 148.477 123.843 146.541 C 125.023 144.605 126.202 142.699 127.083 141.100 C 127.524 140.299 127.894 139.578 128.155 138.954 C 128.416 138.330 128.590 137.827 128.577 137.333 C 128.563 136.856 128.328 136.503 128.016 136.067 C 127.706 135.630 127.286 135.137 126.785 134.594 C 125.784 133.508 124.459 132.205 123.089 130.782 C 120.349 127.941 117.455 124.599 116.711 121.963 C 116.271 120.405 116.679 118.702 116.677 116.227 C 116.677 113.749 115.909 109.907 113.338 105.471 C 114.457 108.227 115.771 112.299 115.582 116.227 C 115.585 118.571 115.125 120.354 115.662 122.262 C 116.534 125.354 119.538 128.682 122.302 131.549 C 123.685 132.983 125.006 134.282 125.976 135.337 C 126.462 135.864 126.868 136.338 127.129 136.706 C 127.392 137.074 127.483 137.367 127.483 137.367 C 127.487 137.521 127.378 137.969 127.139 138.531 C 126.902 139.093 126.555 139.792 126.123 140.573 C 125.264 142.136 124.087 144.031 122.906 145.969 C 121.724 147.909 120.530 149.891 119.607 151.629 C 118.687 153.369 118.021 154.823 117.943 155.953 C 117.806 157.945 118.530 161.105 120.088 163.872 C 121.647 166.639 124.123 169.027 127.483 168.982 C 129.137 168.962 130.928 167.737 132.799 165.753 C 134.669 163.773 136.602 160.978 138.366 157.642 C 141.894 150.970 144.720 142.112 144.664 133.216 C 144.658 132.058 144.018 130.878 143.158 129.519 C 142.299 128.158 141.179 126.632 140.066 124.910 C 137.841 121.465 135.667 117.271 135.673 112.279 C 135.677 110.049 137.036 107.595 138.263 104.235 C 139.490 100.875 140.535 96.599 139.745 90.704 C 138.525 81.578 139.044 75.007 142.554 70.281 L 141.676 69.621 L 141.676 69.621 Z "/>
      <path id="path3798" fill="none" stroke="#000000" stroke-width="1.5" d="M 111.928 115.518 L 116.447 167.399 C 116.637 169.630 127.051 173.811 135.557 170.459 C 137.840 169.254 136.883 166.483 135.010 162.495 "/>
      <path id="path3802" fill="none" stroke="#000000" stroke-width="1.5" d="M 80.520 112.812 C 81.979 115.619 108.036 117.492 116.415 114.015 "/>
      <path id="path3804" fill="none" stroke="#000000" stroke-width="1.5" d="M 65.861 174.896 C 67.843 174.972 69.812 175.086 71.959 174.552 C 73.432 173.875 77.135 172.832 75.137 166.993 C 66.077 143.453 75.615 131.584 85.012 114.352 "/>
      <path id="path47" d="M 79.540 69.838 C 67.514 69.442 59.463 76.100 55.478 85.198 C 51.046 95.308 51.536 108.370 56.654 118.320 C 55.021 118.285 53.549 118.745 52.364 119.792 C 50.950 121.042 49.933 123.020 49.271 125.736 C 45.636 140.257 40.722 156.195 44.457 173.804 L 44.457 173.816 C 44.712 174.931 44.982 175.851 45.428 176.634 C 45.874 177.416 46.516 178.045 47.436 178.493 C 49.277 179.389 52.149 179.703 57.329 179.999 L 57.352 179.999 L 57.373 179.999 C 59.073 179.972 61.486 179.942 63.442 179.108 C 64.420 178.690 65.289 178.046 65.838 177.087 C 66.386 176.133 66.585 174.894 66.317 173.357 C 66.317 173.355 66.317 173.349 66.317 173.345 C 65.247 166.341 59.325 155.791 63.270 141.114 C 65.479 132.902 72.332 124.066 81.924 111.974 C 81.932 111.967 81.940 111.960 81.947 111.951 C 86.340 107.000 86.883 100.555 87.275 94.290 C 86.665 99.413 85.171 107.334 81.103 111.245 L 81.091 111.256 L 81.091 111.268 C 71.484 123.376 64.513 132.258 62.208 140.830 C 58.154 155.907 64.233 166.967 65.231 173.518 L 65.231 173.532 C 65.469 174.889 65.292 175.839 64.889 176.544 C 64.485 177.248 63.833 177.742 63.006 178.097 C 61.361 178.799 59.079 178.881 57.391 178.906 C 57.377 178.906 57.361 178.906 57.346 178.906 C 52.227 178.615 49.412 178.246 47.909 177.515 C 47.155 177.148 46.721 176.715 46.370 176.099 C 46.019 175.484 45.771 174.664 45.525 173.587 C 45.525 173.584 45.526 173.579 45.525 173.576 C 41.863 156.294 46.681 140.557 50.328 125.998 C 50.958 123.414 51.903 121.640 53.078 120.602 C 54.253 119.563 55.664 119.197 57.448 119.449 L 58.532 119.608 L 58.008 118.639 C 52.663 108.934 52.079 95.682 56.479 85.643 C 60.877 75.604 70.109 68.746 84.729 71.528 C 84.734 71.528 84.738 71.528 84.742 71.528 C 88.593 72.315 99.063 77.686 106.718 71.938 L 106.067 71.072 C 99.058 76.333 89.314 71.344 84.947 70.455 L 84.935 70.455 C 83.057 70.096 81.260 69.895 79.540 69.838 L 79.540 69.838 Z "/>
      <path id="path3829" d="M 121.276 0 C 121.267 0 121.261 0.012 121.254 0.010 C 120.503 -0.016 119.836 0.444 119.120 1.151 C 118.396 1.865 117.623 2.879 116.861 4.151 C 115.336 6.696 113.835 10.280 112.923 14.454 C 112.210 17.730 111.892 21.381 112.194 25.179 C 107.986 29.814 105.458 36.465 103.112 43.549 L 102.542 45.283 L 103.980 44.154 L 106.535 42.133 C 105.256 45.273 103.959 50.029 103.191 55.459 C 102.420 61.451 102.167 71.511 104.855 77.149 C 104.648 74.827 104.714 73.805 104.845 71.809 C 104.876 70.932 105.037 70.198 105.324 69.674 C 106.984 74.625 110.257 81.116 118.068 85.248 L 119.358 85.934 L 118.844 84.577 C 116.865 79.368 115.440 74.095 115.799 68.444 C 117.235 70.171 118.592 70.858 119.838 71.741 L 120.989 72.552 L 120.681 71.171 C 119.724 66.759 116.827 62.653 115.830 58.347 C 117.421 60.218 118.925 61.840 120.314 62.968 C 122.075 64.398 123.708 65.222 125.254 65.216 L 126.213 65.216 L 125.721 64.396 C 121.762 57.761 117.905 51.155 116.572 42.751 L 119.641 43.230 L 121.045 43.458 L 120.153 42.351 C 112.759 33.183 112.222 22.794 113.991 14.683 C 114.875 10.628 116.347 7.150 117.803 4.722 C 118.531 3.509 119.252 2.558 119.879 1.939 C 120.508 1.319 121.049 1.087 121.215 1.094 L 121.227 1.094 L 121.239 1.094 C 121.328 1.094 121.658 1.207 122.061 1.528 C 122.463 1.849 122.953 2.344 123.463 2.977 C 124.488 4.243 125.624 6.068 126.635 8.180 C 129.086 13.612 130.010 17.269 129.239 25.337 C 132.450 17.976 129.282 11.872 127.628 7.701 C 126.584 5.521 125.403 3.647 124.308 2.293 C 123.763 1.616 123.243 1.067 122.746 0.672 C 122.258 0.284 121.801 0.022 121.274 0.011 L 121.274 0 L 121.276 0 Z M 118.525 41.942 L 115.982 41.543 L 115.263 41.429 L 115.353 42.159 C 116.541 50.737 120.318 57.431 124.196 63.951 C 123.265 63.681 122.198 63.086 121.013 62.125 C 119.353 60.775 117.482 58.762 115.421 56.192 L 114.292 54.789 L 114.440 56.580 C 114.856 61.480 117.878 65.784 119.219 69.998 C 118.102 69.275 117.020 68.529 115.809 66.678 L 114.988 65.423 L 114.805 66.918 C 114.117 72.818 115.430 78.258 117.315 83.518 C 110.350 79.300 107.475 73.073 106.043 68.457 L 105.814 67.749 L 105.210 68.171 C 104.525 68.639 104.200 69.381 104 70.202 C 103.412 65.478 103.606 60.335 104.274 55.610 C 105.003 50.582 106.432 43.739 109.375 38.594 C 108.015 39.833 105.802 41.501 104.765 42.135 C 106.810 36.152 109.068 30.662 112.375 26.675 C 113.008 31.737 114.846 36.986 118.525 41.942 Z "/>
      <path id="path3849" d="M 138.219 3.128 C 134.448 4.773 131.061 7.182 127.824 9.859 L 128.532 10.703 C 131.355 8.366 134.277 6.298 137.420 4.747 L 136.473 7.201 L 135.891 8.696 L 137.260 7.874 C 141.375 5.401 146.994 4.743 152.389 5.535 C 156.772 6.178 160.940 7.807 164.084 10.087 C 163.475 10.026 162.840 10.013 162.145 10.121 L 161.061 10.292 L 161.850 11.057 C 169.274 18.266 171.307 27.486 171.446 36.694 C 160.122 32.754 153.415 31.636 145.245 24.377 C 148.451 27.971 152.472 32.003 156.123 35.611 C 150.479 34.916 145.056 31.498 139.727 25.628 L 138.780 24.578 L 138.780 25.994 L 138.780 28.777 C 135.688 26.050 132.616 23.078 130.577 19.124 L 129.606 19.626 C 131.956 24.182 135.555 27.452 138.961 30.408 L 139.874 31.196 L 139.874 29.997 L 139.874 27.350 C 145.497 33.231 151.360 36.642 157.582 36.866 L 158.975 36.911 L 157.983 35.930 L 151.924 29.860 C 154.736 32.462 164.549 35.719 171.844 37.972 L 172.574 38.223 L 172.562 37.458 C 172.526 28.189 170.599 18.663 163.376 11.113 C 164.894 11.016 166.622 11.560 168.146 12.521 C 167.921 12.133 167.583 11.665 166.902 10.964 C 163.476 7.561 158.136 5.270 152.548 4.449 C 147.492 3.707 142.240 4.191 138.013 6.252 L 138.949 3.822 L 139.428 2.601 L 138.219 3.128 Z "/>
      <path id="path3853" fill="none" stroke="#000000" stroke-width="1.5" d="M 163.473 57.400 C 165.174 52.231 166.411 45.286 164.289 34.752 "/>
      <path id="path3855" d="M 160.467 54.868 C 162.596 56.820 163.317 57.523 164.438 59.741 C 164.880 60.595 164.938 61.351 164.768 62.080 C 164.434 63.525 163.078 64.911 161.678 66.039 C 161.669 66.043 161.662 66.045 161.655 66.050 C 161.651 66.055 161.647 66.059 161.643 66.063 C 157.330 68.966 151.999 69.586 146.731 69.508 C 142.696 69.428 134.192 68.807 128.910 67.375 C 135.070 69.523 140.086 70.506 146.722 70.604 C 152.101 70.684 157.691 70.059 162.295 66.942 L 162.306 66.930 L 162.329 66.918 C 163.802 65.736 165.399 64.237 165.843 62.318 C 166.064 61.359 165.960 60.299 165.409 59.238 C 164.858 58.176 163.873 57.114 162.350 56.020 L 160.467 54.868 Z "/>
      <path id="path3875" d="M 55.249 66.495 C 50.775 66.398 46.064 67.745 42.496 71.519 L 42.484 71.540 L 42.472 71.552 C 39.900 74.761 37.269 79.074 34.257 82.882 C 35.412 82.720 36.568 82.562 37.726 82.414 C 35.984 90.388 34.679 97.474 32.716 102.849 C 30.687 108.406 28.015 112.120 23.429 113.517 L 22.036 113.939 L 23.359 114.543 C 24.928 115.253 26.383 115.395 27.785 114.897 C 26.791 115.815 25.868 116.442 24.990 116.836 C 23.094 117.688 21.315 117.604 19.160 117.555 C 11.120 117.430 4.975 114.165 1.098 108.098 L 0.208 106.704 L 0.081 108.348 C -0.471 115.824 1.801 120.981 5.182 124.412 C 7.418 126.678 10.118 128.146 12.782 129.146 L 11.333 129.101 L 9.521 129.033 L 11.003 130.094 C 17.709 134.865 25.621 134.576 31.117 131.510 C 35.757 128.921 39.157 124.071 41.522 119.656 L 42.584 121.869 L 43.007 122.760 L 43.543 121.928 C 47.332 115.973 48.753 106.882 48.481 101.686 L 48.481 101.673 L 48.481 101.661 C 48.158 97.829 48.604 96.109 49.030 94.633 C 49.290 95.074 49.498 95.537 49.578 96.082 L 49.829 97.736 L 50.604 96.263 C 51.883 93.833 51.625 91.066 51.928 87.946 C 52.229 84.825 53.022 81.318 56.251 77.220 L 56.264 77.208 L 56.276 77.196 C 57.258 75.815 58.479 75.475 59.674 75.530 C 60.870 75.585 62.029 76.102 62.516 76.421 L 63.110 75.508 C 62.438 75.068 61.180 74.501 59.721 74.435 C 58.266 74.370 56.590 74.873 55.397 76.535 C 55.391 76.542 55.389 76.550 55.385 76.556 C 52.031 80.820 51.155 84.617 50.842 87.840 C 50.596 90.396 50.635 92.552 50.135 94.366 C 49.871 93.852 49.553 93.391 49.199 92.973 L 48.525 92.188 L 48.252 93.178 C 47.819 94.776 46.975 96.852 47.385 101.737 C 47.387 101.740 47.385 101.746 47.385 101.750 C 47.387 101.754 47.385 101.757 47.385 101.763 C 47.625 106.447 46.307 114.796 43.108 120.439 L 42.047 118.238 L 41.567 117.232 L 41.063 118.226 C 38.744 122.773 35.211 127.962 30.580 130.547 C 25.911 133.153 19.326 133.601 13.388 130.261 C 15.519 130.331 17.388 130.306 19.747 130.093 C 14.369 128.954 10.343 127.609 5.970 123.646 C 3.039 120.669 1.005 116.336 1.134 109.999 C 5.236 115.502 11.419 118.525 19.138 118.646 C 19.142 118.646 19.146 118.646 19.150 118.646 C 21.282 118.696 23.288 118.800 25.435 117.836 C 28.251 116.447 32.693 111.982 33.959 108.159 C 32.164 110.619 30.476 112.565 27.626 113.807 C 26.835 114.135 26.058 114.180 25.195 113.991 C 29.313 112.158 31.871 108.332 33.741 103.209 C 36.095 96.608 37.161 88.567 39.137 81.120 C 38.311 81.229 37.485 81.340 36.659 81.451 C 38.803 78.504 40.842 75.295 43.289 72.266 C 43.295 72.260 43.303 72.251 43.310 72.244 C 47.119 68.245 52.283 67.169 57.025 67.703 C 61.777 68.238 66.064 70.452 67.898 72.780 L 68.765 72.106 C 66.638 69.408 62.156 67.182 57.152 66.619 C 56.529 66.550 55.889 66.509 55.249 66.495 L 55.249 66.495 Z "/>
      <path id="path3877" d="M 135.035 109.589 L 136.062 109.965 C 139.056 101.839 136.109 94.997 134.064 91.037 C 135.459 94.471 138.148 104.656 135.035 109.589 Z "/>
      <path id="path3909" d="M 119.334 12.940 C 117.230 17.212 117.878 22.138 119.291 26.852 C 116.848 22.272 115.865 17.520 119.334 12.940 Z "/>
    </g>
    <g id="scratch_S">
      <path id="path4044" fill="#FFFFFF" d="M 67.201 106.330 C 66.269 110.045 60.435 109.574 59.789 106.123 C 59.670 102.107 60.234 97.255 61.872 93.700 C 62.769 91.756 62.473 89.153 62.878 85.968 C 63.222 84.895 62.915 74.979 70.969 78.002 C 72.310 78.741 73.816 78.160 74.985 78.277 C 83.457 79.131 79.255 88.970 79.297 93.035 C 79.093 93.908 79.573 94.310 80.384 95.283 C 83.551 99.068 82.639 110.337 67.201 106.330 L 67.201 106.330 Z "/>
      <path id="path4046" fill="url(#grad_1)" d="M 66.510 103.249 C 66.669 103.502 66.267 107.258 64.192 106.761 C 63.643 106.630 62.730 106.664 62.415 106.275 C 61.696 105.391 62.001 103.819 62.001 103.819 L 63.709 95.786 C 64.045 94.172 64.855 94.001 65.807 94.259 C 67.113 94.541 68.042 95.279 67.869 97.345 C 68.181 103.967 75.783 102.404 76.502 99.970 C 76.553 98.993 77.585 97.339 71.018 94.722 C 68.006 93.417 63.567 92.645 64.680 86.358 C 65.111 84.580 65.584 82.833 66.164 81.154 C 66.752 78.456 73.434 80.252 74.492 82.585 C 74.727 81.308 75.228 80.316 76.962 80.670 C 77.704 80.821 78.423 82.262 78.328 83.702 C 78.328 83.702 78.491 93.159 77.405 93.152 C 76.226 93.144 74.701 92.875 74.392 91.878 C 73.766 89.881 73.009 86.475 71.995 84.449 C 71.779 83.999 70.146 82.043 69.284 84.612 C 68.595 86.571 68.211 90.171 68.718 90.373 L 76.633 93.516 C 78.618 94.287 82.978 101.138 78.371 103.626 C 75.583 104.857 68.910 106.666 66.510 103.249 L 66.510 103.249 Z "/>
    </g>
  </g>
</svg>