<svg version="1.1" width="121" height="162" viewBox="-2 0 121 162" xmlns="http://www.w3.org/2000/svg" xmlns:xlink="http://www.w3.org/1999/xlink">
  <!-- Exported by Scratch - http://scratch.mit.edu/ -->
  <g id="ID0.2627106620930135" transform="matrix(0.7737809419631958, 0, 0, 0.7737809419631958, 1.15, 0)">
    <g id="L_Foot">
      <path id="ID0.3591194679029286" fill="#F7941E" d="M 62.307 160.064 C 58.882 160.064 54.536 155.946 54.052 155.476 C 54.023 155.447 53.994 155.417 53.967 155.386 C 52.810 154.063 49.006 147.251 47.969 144.941 C 47.856 144.688 47.816 144.413 47.848 144.146 C 47.769 143.951 47.699 143.750 47.636 143.541 C 47.491 143.058 47.598 142.533 47.922 142.146 C 48.209 141.803 48.631 141.609 49.072 141.609 C 49.129 141.609 49.186 141.612 49.244 141.619 C 52.940 142.046 58.206 142.555 62.299 142.555 C 64.121 142.555 65.508 142.452 66.420 142.252 C 68.490 141.796 73.314 140.592 78.256 138.965 C 78.408 138.914 78.567 138.890 78.725 138.890 C 78.981 138.890 79.235 138.955 79.462 139.083 C 79.502 139.105 79.543 139.124 79.584 139.141 C 79.842 139.244 80.060 139.413 80.220 139.624 C 84.241 141.558 86.298 144.233 85.754 146.888 C 85.233 149.429 82.492 151.071 78.771 151.071 C 78.770 151.071 78.770 151.071 78.769 151.071 C 78.406 151.071 78.035 151.055 77.659 151.024 C 78.652 152.439 79.333 153.976 79.249 155.327 C 79.159 156.770 78.250 157.879 76.754 158.368 C 76.196 158.550 75.594 158.642 74.961 158.642 C 72.161 158.642 68.941 156.799 66.101 154.606 C 66.364 156.744 66.070 159.043 63.541 159.870 C 63.181 159.995 62.756 160.064 62.307 160.064 L 62.307 160.064 Z "/>
      <path id="ID0.31000857846811414" d="M 78.726 140.389 C 78.825 140.445 78.926 140.492 79.029 140.533 C 78.949 140.561 78.869 140.595 78.789 140.623 L 78.795 140.623 C 87.191 144.212 85.118 149.570 78.772 149.570 C 76.915 149.570 74.690 149.111 72.256 148.014 C 75.022 149.316 80.338 155.617 76.289 156.941 C 75.868 157.079 75.424 157.141 74.962 157.141 C 70.975 157.141 65.707 152.455 63.705 150.575 C 64.014 152.696 66.113 157.450 63.076 158.443 C 62.839 158.526 62.581 158.564 62.307 158.564 C 59.924 158.564 56.391 155.655 55.097 154.399 C 54.084 153.241 50.359 146.602 49.339 144.327 C 49.418 144.197 49.443 144.030 49.354 143.843 C 49.239 143.600 49.148 143.357 49.074 143.110 C 52.502 143.506 58.030 144.055 62.301 144.055 C 64.082 144.055 65.645 143.959 66.744 143.717 C 69.096 143.199 73.886 141.982 78.726 140.389 M 78.726 137.389 C 78.411 137.389 78.094 137.439 77.788 137.539 C 72.902 139.146 68.142 140.337 66.099 140.786 C 65.544 140.908 64.435 141.054 62.300 141.054 C 58.066 141.054 52.411 140.474 49.417 140.128 C 49.302 140.115 49.187 140.108 49.073 140.108 C 48.191 140.108 47.346 140.497 46.773 141.182 C 46.125 141.956 45.910 143.004 46.200 143.971 C 46.243 144.115 46.289 144.255 46.339 144.393 C 46.348 144.788 46.435 145.183 46.601 145.553 C 47.613 147.809 51.482 154.822 52.838 156.372 C 52.892 156.434 52.949 156.494 53.007 156.551 C 53.870 157.388 58.374 161.563 62.306 161.563 C 62.912 161.563 63.494 161.469 64.034 161.285 C 66.208 160.564 67.171 159.091 67.513 157.453 C 70.289 159.239 72.782 160.141 74.961 160.141 C 75.752 160.141 76.512 160.024 77.220 159.792 C 79.301 159.111 80.618 157.477 80.746 155.418 C 80.806 154.451 80.597 153.461 80.206 152.494 C 83.937 152.089 86.629 150.096 87.225 147.187 C 87.486 145.915 87.759 141.679 81.131 138.395 C 80.859 138.124 80.531 137.905 80.160 137.753 C 79.716 137.512 79.222 137.389 78.726 137.389 L 78.726 137.389 Z "/>
    </g>
    <g id="ID0.5672075832262635">
      <path id="ID0.6458409526385367" fill="#F7941E" d="M 93.527 144.304 C 90.252 144.304 86.915 141.200 84.692 138.597 C 84.521 138.397 84.406 138.156 84.358 137.897 C 84.227 137.193 84.601 136.423 85.266 136.159 C 90.878 133.923 92.579 132.347 93.094 131.607 C 94.034 130.250 95.397 129.061 97.140 128.073 C 97.303 127.981 97.482 127.921 97.667 127.893 C 97.701 127.888 97.922 127.867 97.964 127.864 L 98.179 127.826 C 98.258 127.813 98.337 127.807 98.415 127.807 C 98.628 127.807 98.836 127.853 99.025 127.937 C 102.213 128.169 104.700 129.932 104.700 132.066 C 104.700 132.945 104.262 133.728 103.482 134.270 C 103.738 134.553 103.957 134.865 104.124 135.203 C 104.648 136.265 104.570 137.418 103.903 138.448 C 103.412 139.208 102.376 140.116 100.235 140.116 C 100.234 140.116 100.235 140.116 100.234 140.116 C 99.447 140.116 98.626 139.995 97.863 139.826 C 98.027 140.976 97.822 142.206 96.688 143.150 C 95.769 143.917 94.705 144.304 93.527 144.304 L 93.527 144.304 Z "/>
      <path id="ID0.7743005249649286" d="M 98.415 129.307 C 98.353 129.371 98.311 129.411 98.311 129.411 C 103.244 129.411 105.597 133.648 99.783 133.648 C 99.506 133.648 99.210 133.638 98.895 133.618 C 100.688 133.762 104.012 135.519 102.645 137.632 C 102.175 138.359 101.270 138.615 100.235 138.615 C 98.515 138.615 96.436 137.907 95.399 137.476 C 96.002 138.582 97.175 140.791 95.729 141.997 C 95.043 142.567 94.296 142.804 93.527 142.804 C 90.454 142.804 87.032 139.028 85.833 137.623 C 85.828 137.597 85.827 137.579 85.821 137.552 C 89.760 135.983 93.106 134.218 94.326 132.462 C 95.244 131.139 96.526 130.145 97.880 129.378 C 97.935 129.370 97.991 129.372 98.047 129.361 C 98.172 129.355 98.292 129.327 98.415 129.307 M 98.416 126.307 C 98.260 126.307 98.103 126.319 97.944 126.344 L 97.772 126.373 C 97.778 126.373 97.822 126.369 97.870 126.366 C 97.809 126.370 97.750 126.375 97.690 126.383 C 97.610 126.389 97.532 126.398 97.456 126.408 C 97.085 126.461 96.727 126.583 96.401 126.767 C 94.460 127.867 92.932 129.207 91.861 130.751 C 91.675 131.019 90.452 132.477 84.711 134.764 C 83.389 135.291 82.623 136.672 82.865 138.064 C 82.870 138.097 82.876 138.131 82.883 138.168 C 82.979 138.686 83.209 139.169 83.552 139.570 C 87.082 143.706 90.439 145.802 93.528 145.802 C 95.044 145.802 96.468 145.283 97.648 144.302 C 98.558 143.543 99.119 142.631 99.330 141.571 C 99.633 141.598 99.936 141.614 100.236 141.614 C 103.053 141.614 104.471 140.333 105.166 139.259 C 106.116 137.792 106.228 136.071 105.472 134.538 C 105.456 134.507 105.441 134.476 105.424 134.444 C 105.927 133.752 106.202 132.932 106.202 132.064 C 106.202 129.148 103.270 126.813 99.357 126.457 C 99.057 126.360 98.739 126.307 98.416 126.307 L 98.416 126.307 Z "/>
    </g>
    <g id="Body">
      <g id="Purple_Fill">
        <path id="ID0.9839096711948514" fill="#8A8FC6" d="M 53.785 146.210 C 51.726 146.210 50.027 145.916 48.589 145.313 L 48.452 145.255 C 46.943 144.941 41.124 143.754 34.799 142.838 C 31.886 142.418 29.231 142.106 26.907 141.913 C 25.567 141.804 24.385 141.735 23.320 141.703 L 23.205 140.198 L 23.164 141.697 C 22.735 141.686 22.316 141.680 21.909 141.680 L 21.552 141.682 C 20.982 141.690 20.511 141.703 20.067 141.730 C 19.435 141.768 18.819 141.787 18.216 141.787 C 11.708 141.787 6.366 139.613 3.175 135.666 C 0.452 132.299 -0.494 127.861 0.509 123.171 C 1.774 117.275 4.613 113.748 7.359 110.338 C 8.376 109.074 9.428 107.768 10.405 106.338 C 13.706 100.990 15.575 94.167 17.553 86.943 C 19.942 78.221 22.411 69.206 27.743 62.363 C 27.763 62.183 27.773 62.009 27.767 61.902 C 26.798 60.078 25.683 58.287 24.605 56.555 C 22.906 53.826 21.149 51.005 19.838 47.882 C 17.497 42.300 16.804 35.945 17.833 29.504 C 19.582 18.538 27.413 9.272 38.781 4.718 C 43.877 2.676 49.820 1.597 55.968 1.597 C 66.944 1.597 77.131 5.027 83.919 11.007 C 86.934 13.663 89.268 16.778 90.857 20.265 C 91.259 21.152 92.633 27.934 92.349 29.786 C 91.839 33.114 90.814 36.403 89.822 39.583 C 89.519 40.555 89.218 41.521 88.934 42.480 C 87.762 46.436 86.985 50.477 86.349 53.955 C 85.959 56.085 85.891 58.206 86.147 60.258 C 87.071 67.654 90.937 73.365 95.031 79.411 C 98.840 85.036 102.778 90.853 104.199 98.169 C 107.290 114.069 102.752 123.973 99.772 128.461 L 99.683 128.593 L 99.570 128.704 C 93.217 134.902 85.959 139.420 77.995 142.133 C 72.510 144.001 66.849 144.815 62.036 145.362 C 61.364 145.439 60.649 145.539 59.908 145.642 C 58.013 145.909 55.863 146.210 53.785 146.210 L 53.785 146.210 Z "/>
        <path id="ID0.5177942626178265" d="M 55.969 3.097 C 65.801 3.097 75.935 5.971 82.929 12.133 C 85.663 14.543 87.925 17.447 89.493 20.888 C 89.769 21.496 91.099 28.051 90.868 29.559 C 90.222 33.774 88.705 37.975 87.497 42.056 C 86.360 45.893 85.594 49.757 84.875 53.686 C 84.465 55.927 84.378 58.182 84.660 60.445 C 86.524 75.370 99.891 83.857 102.727 98.457 C 105.713 113.816 101.397 123.305 98.523 127.633 C 92.563 133.448 85.621 137.953 77.512 140.715 C 72.438 142.444 67.172 143.270 61.866 143.874 C 59.474 144.146 56.548 144.711 53.783 144.711 C 52.138 144.711 50.550 144.511 49.168 143.931 C 49.161 143.912 49.149 143.886 49.143 143.869 C 49.143 143.869 42.473 142.434 35.013 141.354 C 35.013 141.355 35.013 141.355 35.013 141.356 C 32.365 140.972 29.616 140.633 27.030 140.418 C 27.005 140.416 26.980 140.414 26.954 140.412 C 25.708 140.310 24.502 140.238 23.363 140.204 C 23.310 140.202 23.256 140.200 23.203 140.198 C 22.760 140.186 22.328 140.180 21.909 140.180 C 21.814 140.180 21.721 140.180 21.627 140.181 C 21.567 140.182 21.509 140.183 21.449 140.184 C 20.938 140.190 20.442 140.205 19.974 140.233 C 19.374 140.269 18.788 140.287 18.214 140.287 C 6.341 140.287 -0.013 132.765 1.974 123.485 C 3.616 115.829 7.974 112.550 11.641 107.184 C 19.308 94.771 19.498 75.058 29.165 62.981 C 29.165 62.981 29.400 61.787 29.154 61.319 C 26.633 56.540 23.329 52.325 21.220 47.300 C 18.891 41.746 18.368 35.654 19.313 29.739 C 21.084 18.635 29.171 10.181 39.337 6.109 C 44.280 4.131 50.070 3.097 55.969 3.097 M 55.969 0.097 C 49.633 0.097 43.496 1.214 38.224 3.326 C 26.362 8.077 18.186 17.776 16.353 29.268 C 15.280 35.985 16.007 42.622 18.456 48.461 C 19.814 51.696 21.602 54.569 23.332 57.348 C 24.321 58.938 25.264 60.451 26.124 62.015 C 20.910 69.011 18.470 77.919 16.107 86.547 C 14.165 93.637 12.331 100.336 9.128 105.550 C 8.195 106.908 7.177 108.173 6.191 109.397 C 3.336 112.945 0.383 116.612 -0.956 122.857 C -2.057 128 -1.004 132.883 2.009 136.610 C 5.491 140.916 11.247 143.288 18.217 143.288 C 18.852 143.288 19.504 143.267 20.156 143.229 C 20.547 143.205 20.981 143.191 21.486 143.185 L 21.557 143.184 L 21.678 143.182 L 21.912 143.181 C 22.305 143.181 22.710 143.186 23.125 143.198 L 23.203 143.201 L 23.255 143.203 C 24.315 143.235 25.471 143.302 26.713 143.403 L 26.804 143.410 C 29.077 143.599 31.701 143.907 34.585 144.325 L 35.421 144.446 C 41.195 145.309 46.396 146.361 48.004 146.695 L 48.009 146.697 C 49.634 147.379 51.524 147.711 53.785 147.711 C 55.968 147.711 58.172 147.402 60.117 147.130 C 60.846 147.028 61.548 146.930 62.208 146.855 C 67.101 146.297 72.860 145.469 78.481 143.555 C 86.658 140.770 94.106 136.135 100.619 129.781 L 100.848 129.558 L 101.024 129.292 C 104.131 124.613 108.868 114.310 105.674 97.885 C 104.195 90.269 100.168 84.323 96.276 78.573 C 92.287 72.680 88.518 67.114 87.638 60.074 C 87.402 58.175 87.465 56.207 87.827 54.227 C 88.456 50.788 89.223 46.793 90.374 42.909 C 90.656 41.956 90.956 40.996 91.257 40.032 C 92.265 36.799 93.307 33.455 93.834 30.015 C 94.170 27.831 92.723 20.744 92.226 19.649 C 90.546 15.964 88.086 12.680 84.914 9.884 C 77.854 3.663 67.305 0.097 55.969 0.097 L 55.969 0.097 Z "/>
      </g>
      <path id="White" fill="#FFFFFF" d="M 102.728 98.456 C 99.892 83.856 86.525 75.370 84.661 60.444 C 84.379 58.181 84.466 55.926 84.876 53.685 C 85.595 49.756 86.361 45.892 87.498 42.055 C 88.706 37.974 90.094 33.752 90.869 29.558 C 91.423 26.562 89.771 21.497 89.494 20.887 C 87.926 17.447 85.664 14.542 82.930 12.132 C 81.331 14.444 80.670 16.780 80.670 16.780 C 67.503 10.447 43.337 14.447 42.552 31.795 C 41.926 45.640 51.640 57.239 55.592 61.363 C 62.136 69.319 52.571 76.124 47.457 78.992 C 47.462 78.964 47.465 78.950 47.465 78.950 C 47.465 78.950 46.327 79.438 44.592 80.449 L 44.590 80.450 C 39.280 83.547 28.363 91.567 27.170 105.700 C 26.206 117.122 31.582 132.753 32.620 135.948 C 33.213 137.766 34.604 139.572 35.015 141.352 C 42.475 142.432 49.145 143.867 49.145 143.867 C 49.151 143.884 49.163 143.910 49.170 143.929 C 52.875 145.484 58.053 144.307 61.868 143.872 C 67.174 143.268 72.439 142.441 77.514 140.713 C 85.622 137.951 92.565 133.446 98.525 127.631 C 101.397 123.303 105.714 113.815 102.728 98.456 Z "/>
    </g>
    <g id="Beak">
      <path id="ID0.7711298847571015" fill="#F7941E" d="M 89.943 60.514 C 85.889 60.378 72.526 59.143 70.766 48.957 C 70.080 45.001 71.611 40.445 74.965 36.459 C 78.959 31.711 84.749 28.644 89.714 28.644 C 89.951 28.644 90.189 28.651 90.423 28.665 C 93.314 28.834 96.944 30.198 100.787 31.643 C 102.715 32.367 104.709 33.117 106.591 33.700 C 107.357 33.938 108.110 34.159 108.838 34.375 C 114.257 35.974 119.376 37.483 118.442 42.875 C 117.734 46.972 115.269 49.356 110.202 50.844 L 109.968 50.908 C 109.543 51.028 109.148 51.131 108.733 51.231 C 108.683 51.240 108.633 51.249 108.583 51.257 L 107.413 52.670 C 102.739 58.316 93.692 60.393 90.044 60.515 L 89.994 60.517 L 89.943 60.514 Z "/>
      <path id="ID0.30929173808544874" d="M 89.715 30.144 C 89.923 30.144 90.131 30.150 90.337 30.162 C 94.413 30.400 100.599 33.411 106.148 35.132 C 112.400 37.073 117.771 37.969 116.965 42.618 C 116.459 45.543 115.033 47.861 109.779 49.404 C 109.695 49.424 109.605 49.450 109.514 49.477 C 109.154 49.579 108.778 49.677 108.382 49.771 C 107.605 49.912 106.628 49.975 105.518 49.975 C 99.090 49.975 88.174 47.848 85.475 46.223 C 85.300 46.117 85.111 46.070 84.919 46.070 C 83.814 46.070 82.628 47.632 83.714 48.540 C 86.220 50.637 96.187 51.839 102.913 51.839 C 104.161 51.839 105.299 51.797 106.256 51.713 C 101.877 57.002 93.261 58.906 89.992 59.015 C 83.902 58.811 73.648 56.832 72.244 48.702 C 70.760 40.139 81.155 30.144 89.715 30.144 M 89.715 27.144 C 84.325 27.144 78.086 30.421 73.818 35.494 C 70.125 39.884 68.516 44.757 69.290 49.215 C 71.242 60.516 85.554 61.869 89.894 62.014 L 89.995 62.017 L 90.095 62.014 C 93.171 61.911 103.168 60.150 108.570 53.626 L 109.413 52.608 C 109.730 52.529 110.035 52.447 110.331 52.364 L 110.344 52.360 L 110.390 52.347 L 110.479 52.322 L 110.563 52.302 L 110.628 52.282 C 116.247 50.632 119.114 47.809 119.924 43.129 C 121.086 36.421 114.532 34.488 109.267 32.935 C 108.544 32.722 107.799 32.502 107.040 32.267 C 105.199 31.696 103.227 30.955 101.318 30.238 C 97.366 28.753 93.631 27.350 90.514 27.167 C 90.248 27.152 89.981 27.144 89.715 27.144 L 89.715 27.144 Z "/>
    </g>
    <path id="L_Eye" d="M 65.385 24.732 C 66.431 24.732 67.379 25.277 68.065 26.158 C 68.751 27.038 69.176 28.254 69.176 29.596 C 69.176 30.938 68.751 32.154 68.065 33.034 C 67.379 33.915 66.431 34.460 65.385 34.460 C 64.339 34.460 63.391 33.915 62.705 33.034 C 62.019 32.154 61.594 30.938 61.594 29.596 C 61.594 28.254 62.019 27.038 62.705 26.158 C 63.391 25.277 64.339 24.732 65.385 24.732 Z "/>
    <path id="R_Eye" d="M 86.774 22.831 C 87.576 22.831 88.303 23.249 88.829 23.924 C 89.355 24.600 89.681 25.533 89.681 26.562 C 89.681 27.591 89.355 28.524 88.829 29.200 C 88.303 29.875 87.576 30.293 86.774 30.293 C 85.972 30.293 85.245 29.875 84.719 29.200 C 84.193 28.524 83.867 27.591 83.867 26.562 C 83.867 25.533 84.193 24.600 84.719 23.924 C 85.245 23.249 85.972 22.831 86.774 22.831 Z "/>
    <path id="Wing" fill="#8A8FC6" stroke="#000000" stroke-width="3" stroke-linecap="round" stroke-linejoin="round" d="M 46.972 77.422 C 46.972 77.422 39.990 95.885 46.972 110.263 C 53.954 124.641 62.368 133.096 69.868 118.596 C 79.507 99.962 65.723 75.429 54.865 61.382 "/>
  </g>
</svg>