<svg width="25px" height="85px" viewBox="0 0 25 85" version="1.1" xml:space="preserve" xmlns="http://www.w3.org/2000/svg" xmlns:xlink="http://www.w3.org/1999/xlink">
  <!-- Generator: Sketch 49.3 (51167) - http://www.bohemiancoding.com/sketch -->
  <defs/>
  <g>
    <title>wand</title>
    <desc>Created with Sketch.</desc>
    <g id="wand" stroke="none" stroke-width="1" fill="none" fill-rule="evenodd">
      <g id="Wand" transform="translate(1.000000, 2.000000)" fill-rule="nonzero">
        <g id="Group" transform="translate(7.000000, 18.000000)">
          <path d="M2,62 C2,62 0.3,46.9 0.6,40.1 C0.9,34.1 1.1,24.6 1.5,19.8 C1.9,15 2.4,0.7 2.4,0.7 C2.4,0.7 6.1,-0.2 6.3,0.9 C6.5,2 5.4,21.4 5.4,23.7 C5.4,26 6.4,38.2 5.6,41.9 C4.7,46 5.7,61.1 5.7,61.1 C5.7,61.1 3.8,63 2,62 Z" id="Shape" fill="#694932"/>
          <path d="M3.1,60.3 C3.1,60.3 3,59.8 2.9,58.8 C2.8,57.9 2.6,56.6 2.4,55 C2.2,53.4 2,51.6 1.8,49.6 C1.6,47.6 1.4,45.5 1.5,43.3 C1.6,39 1.8,34.7 2,31.5 C2.2,28.3 2.4,26.2 2.4,26.2 C2.4,26.2 2.3,28.3 2.3,31.5 C2.2,34.7 2,39 1.9,43.2 C1.9,44.3 1.9,45.3 2,46.4 C2.1,47.4 2.1,48.5 2.2,49.5 C2.4,51.5 2.5,53.4 2.7,55 C2.9,58.1 3.1,60.3 3.1,60.3 Z" id="Shape" fill="#4F3726"/>
          <path d="M3.1,51 C3.1,51 3,50.5 2.9,49.6 C2.8,48.8 2.7,47.7 2.7,46.6 C2.7,45.5 2.8,44.4 3,43.6 C3.1,42.8 3.3,42.3 3.3,42.3 C3.3,42.3 3.3,42.8 3.3,43.7 C3.3,44.5 3.3,45.6 3.3,46.7 C3.3,47.8 3.3,48.9 3.3,49.7 C3.1,50.4 3.1,51 3.1,51 Z" id="Shape" fill="#4F3726"/>
          <path d="M4.1,38.8 C4.1,38.8 4,38 4,36.8 C4,35.6 3.9,34 4,32.4 C4,29.2 4.1,26 4.1,26 C4.1,26 4.2,26.8 4.3,28 C4.4,29.2 4.5,30.8 4.4,32.4 C4.4,34 4.3,35.6 4.2,36.8 C4.2,38 4.1,38.8 4.1,38.8 Z" id="Shape" fill="#4F3726"/>
          <path d="M3.4,29.8 C3.4,29.8 3.3,28.3 3.2,26.1 C3.1,23.9 3,21 3.2,18 C3.3,16.5 3.4,15.1 3.4,13.7 C3.5,12.3 3.5,11 3.5,9.9 C3.6,7.7 3.7,6.2 3.7,6.2 C3.7,6.2 4,12.1 3.7,18 C3.6,19.5 3.5,20.9 3.5,22.3 C3.5,23.7 3.5,25 3.5,26.1 C3.4,28.3 3.4,29.8 3.4,29.8 Z" id="Shape" fill="#4F3726"/>
          <path d="M5,3.4 C5,3.4 5.1,4.3 5.1,5.6 C5.1,6.9 5.2,8.7 5.1,10.5 C5.1,12.3 5,14.1 4.8,15.4 C4.7,16.1 4.7,16.6 4.6,17 C4.5,17.4 4.5,17.6 4.5,17.6 C4.5,17.6 4.5,17.4 4.5,17 C4.5,16.6 4.5,16.1 4.5,15.4 C4.5,14.1 4.5,12.3 4.5,10.5 C4.5,8.7 4.6,6.9 4.7,5.6 C4.9,4.2 5,3.4 5,3.4 Z" id="Shape" fill="#4F3726"/>
          <path d="M2.4,21.4 C2.4,21.4 2.4,21.6 2.5,21.9 C2.5,22.2 2.5,22.5 2.6,22.9 C2.6,23.3 2.6,23.6 2.5,23.9 C2.5,24.2 2.4,24.4 2.4,24.4 C2.4,24.4 2.4,24.2 2.3,23.9 C2.3,23.6 2.3,23.3 2.2,22.9 C2.2,22.5 2.2,22.2 2.3,21.9 C2.3,21.6 2.4,21.4 2.4,21.4 Z" id="Shape" fill="#4F3726"/>
          <path d="M4.4,20.1 C4.4,20.1 4.4,20.2 4.5,20.5 C4.5,20.7 4.5,21 4.6,21.3 C4.6,21.6 4.6,21.9 4.5,22.1 C4.5,22.3 4.4,22.5 4.4,22.5 C4.4,22.5 4.4,22.4 4.3,22.1 C4.3,21.9 4.3,21.6 4.2,21.3 C4.2,21 4.2,20.7 4.3,20.5 C4.4,20.3 4.4,20.1 4.4,20.1 Z" id="Shape" fill="#4F3726"/>
          <path d="M3.1,36.7 C3.1,36.7 3.1,36.9 3.2,37.3 C3.2,37.7 3.2,38.1 3.3,38.6 C3.3,39.1 3.3,39.6 3.2,39.9 C3.2,40.3 3.1,40.5 3.1,40.5 C3.1,40.5 3.1,40.3 3,39.9 C3,39.5 3,39.1 2.9,38.6 C2.9,38.1 2.9,37.6 3,37.3 C3.1,37 3.1,36.7 3.1,36.7 Z" id="Shape" fill="#4F3726"/>
          <path d="M3.3,53.3 C3.3,53.3 3.4,53.4 3.4,53.6 C3.5,53.8 3.5,54 3.6,54.3 C3.6,54.6 3.7,54.8 3.6,55 C3.6,55.2 3.6,55.3 3.6,55.3 C3.6,55.3 3.5,55.2 3.5,55 C3.4,54.8 3.4,54.6 3.3,54.3 C3.3,54 3.2,53.8 3.3,53.6 C3.2,53.5 3.3,53.3 3.3,53.3 Z" id="Shape" fill="#4F3726"/>
          <path d="M4.1,60.6 C4.1,60.6 4,60.4 4,60.2 C3.9,59.9 3.9,59.6 3.8,59.2 C3.8,58.8 3.7,58.5 3.7,58.2 C3.7,57.9 3.7,57.8 3.7,57.8 C3.7,57.8 3.8,58 3.8,58.2 C3.9,58.5 3.9,58.8 4,59.2 C4,59.6 4.1,59.9 4.1,60.2 C4.2,60.4 4.1,60.6 4.1,60.6 Z" id="Shape" fill="#4F3726"/>
          <path d="M3.6,2.5 C3.6,2.5 3.6,2.6 3.7,2.8 C3.7,3 3.7,3.2 3.8,3.5 C3.8,3.7 3.8,4 3.7,4.2 C3.7,4.4 3.6,4.5 3.6,4.5 C3.6,4.5 3.6,4.4 3.5,4.2 C3.5,4 3.5,3.8 3.4,3.5 C3.4,3.3 3.4,3 3.5,2.8 C3.5,2.6 3.6,2.5 3.6,2.5 Z" id="Shape" fill="#4F3726"/>
          <path d="M4.1,51.3 C4.1,51.3 3.9,50.6 3.8,49.5 C3.7,48.4 3.6,47 3.7,45.5 C3.8,44.8 3.8,44.1 3.9,43.4 C4,42.7 4.1,42.1 4.3,41.6 C4.4,41.1 4.6,40.6 4.7,40.3 C4.8,40 4.9,39.8 4.9,39.8 C4.9,39.8 4.8,40.5 4.7,41.6 C4.6,42.7 4.4,44.1 4.3,45.5 C4.1,48.4 4.1,51.3 4.1,51.3 Z" id="Shape" fill="#4F3726"/>
          <path d="M5.8,31.7 C5.8,31.7 5.7,30.4 5.6,28.5 C5.6,27.5 5.5,26.4 5.5,25.2 C5.5,24 5.5,22.7 5.5,21.4 C5.5,20.1 5.5,18.8 5.6,17.6 C5.6,16.4 5.7,15.3 5.8,14.3 C6,12.4 6.2,11.1 6.2,11.1 C6.2,11.1 6.1,12.4 6.1,14.3 C6.1,15.3 6.1,16.4 6.1,17.6 C6.1,18.8 6.1,20.1 6.1,21.3 C6.1,22.6 6.1,23.9 6.1,25 C6.1,26.2 6.1,27.3 6.1,28.3 C5.8,30.5 5.8,31.7 5.8,31.7 Z" id="Shape" fill="#4F3726"/>
        </g>
        <g id="Group">
          <g id="Shape">
            <path d="M11.5,18.4 C11.5,18.4 7.6,22.9 5.5,23.1 C3.4,23.3 5.9,15.5 5.9,15.5 C5.9,15.5 0.2,11.6 1.2,10.2 C2.2,8.8 7.8,8.2 7.8,8.2 C7.8,8.2 11.1,0.2 12.1,1 C13.1,1.8 15,7.7 15,7.7 C15,7.7 22,7.1 22.2,8.1 C22.4,9.1 16.7,14.1 16.7,14.1 C16.7,14.1 19.2,19.8 19.2,21.9 C19.2,24 11.5,18.4 11.5,18.4 Z" fill="#EDC545"/>
            <path d="M5.1,23 C5.2,23 5.3,23.1 5.4,23 C7.5,22.8 11.4,18.3 11.4,18.3 L11.3,12.2 L5.1,23 Z" fill="#E6AF50"/>
            <path d="M19.2,22.2 C19.2,22.1 19.3,22.1 19.3,22 C19.3,19.9 16.8,14.2 16.8,14.2 L11.4,12.4 L19.2,22.2 Z" fill="#E6AF50"/>
            <path d="M5.8,15.5 L11.4,12.3 L1.1,10.2 C0.1,11.6 5.8,15.5 5.8,15.5 Z" fill="#E6AF50"/>
            <path d="M15,7.7 C15,7.7 13,1.8 12.1,1.1 L11.4,12.4 L15,7.7 Z" fill="#E6AF50"/>
            <path d="M16.7,14.1 C16.7,14.1 21.9,9.5 22.1,8.2 L22.1,8 L11.3,12.3 L16.7,14.1 Z" fill="#DB9637"/>
            <path d="M11.4,12.3 L12,1.1 C11,0.3 7.7,8.3 7.7,8.3 L11.4,12.3 Z" fill="#FFDE75"/>
          </g>
          <path d="M11.5,18.4 C11.5,18.4 11.9,18.6 12.5,18.9 C13.1,19.2 13.9,19.7 14.7,20.2 C15.5,20.7 16.3,21.2 16.8,21.6 C17.4,22 17.8,22.2 17.8,22.2 C17.8,22.2 17.3,22.1 16.7,21.9 C16,21.6 15.2,21.2 14.4,20.7 C13.6,20.2 12.9,19.7 12.3,19.2 C11.8,18.7 11.5,18.4 11.5,18.4 Z" id="Shape" fill="#B0792C"/>
          <path d="M18.2,18.1 C17.6,16.8 17,15.5 16.5,14.2 L16.4,14.1 L16.5,14 C17.3,13.2 18,12.5 18.8,11.7 L20,10.6 C20.4,10.2 20.8,9.9 21.2,9.5 C20.9,10 20.6,10.4 20.2,10.8 C19.8,11.2 19.5,11.6 19.1,12 C18.4,12.8 17.6,13.6 16.8,14.3 L16.9,14 C17.4,15.4 17.9,16.7 18.2,18.1 Z" id="Shape" fill="#B0792C"/>
          <path d="M1.4,11.6 C1.4,11.6 1.7,11.8 2.1,12.2 C2.5,12.6 3.1,13.1 3.6,13.6 C3.9,13.8 4.1,14.1 4.4,14.3 C4.7,14.5 4.9,14.7 5.1,14.9 C5.5,15.3 5.8,15.5 5.8,15.5 C5.8,15.5 5.4,15.4 4.9,15.1 C4.4,14.8 3.8,14.4 3.2,13.9 C2.6,13.4 2.2,12.8 1.8,12.4 C1.6,11.9 1.4,11.6 1.4,11.6 Z" id="Shape" fill="#B0792C"/>
        </g>
      </g>
    </g>
  </g>
</svg>