<svg version="1.1" id="Layer_1" x="0px" y="0px" width="63.384px" height="201.346px" viewBox="0 0 63.384 201.346" enable-background="new 0 0 63.384 201.346" xml:space="preserve" xmlns="http://www.w3.org/2000/svg" xmlns:xlink="http://www.w3.org/1999/xlink">
  <g>
    <path id="Shoe_Left_1_" fill="#2FA64A" d="M3.544,187.291c-0.809-0.038-1.17,0.124-1.45,0.7c-0.304,0.625-0.338,1.695-0.301,2.43&#xD;&#xA;&#x9;c0.044,0.891-0.096,1.604,0.316,2.386c0.425,0.808,1.854,1.212,2.623,1.64c1.577,0.876,3.072,1.129,4.559,2.188&#xD;&#xA;&#x9;c1.4,0.997,2.921,2.008,3.931,3.381c1.249,1.697,4.255,1.012,6.186,0.925c0.885-0.038,1.764-0.376,2.629-0.507&#xD;&#xA;&#x9;c0.884-0.133,1.728-0.526,2.555-0.86c0.733-0.296,1.37-0.719,2.079-1.069c0.568-0.282,1.117-0.797,1.545-1.307&#xD;&#xA;&#x9;c0.867-1.034,1.629-2.27,0.072-2.836c-0.008-0.59-0.938-0.862-1.388-0.974c-0.516-0.126-1.639-0.426-2.172-0.545&#xD;&#xA;&#x9;c-1.091-0.244-0.657-0.316-1.55-0.727c-0.753-0.347-1.177-0.826-1.682-1.508c-0.467-0.631-1.077-1.133-1.474-1.854&#xD;&#xA;&#x9;c-0.175-0.318-0.667-0.448-0.893-0.734c-0.26-0.331-0.842-0.235-0.928-0.648c-0.141-0.676-0.522-2.474-1.242-2.586&#xD;&#xA;&#x9;c-0.98-0.155-2.088-0.146-3.028,0.136c-0.813,0.244-2.117,0.539-2.923,0.874c-0.468,0.195-1.042,0.72-1.478,0.931&#xD;&#xA;&#x9;c-0.038,0.366,0.313,0.93,0.244,1.301c-1.294,0.082-1.105,0.061-2.481,0.258c-0.713,0.102-2.336-0.37-3.142-0.721&#xD;&#xA;&#x9;c-0.273-0.118-0.336-0.27-0.712-0.578"/>
    <path id="Shoe_Right_1_" fill="#2FA64A" d="M33.46,180.205c-0.394-0.083-0.563,0.695-0.799,0.96&#xD;&#xA;&#x9;c-0.513,0.572-0.496,1.903-0.421,2.674c0.069,0.71,0.396,1.373,0.727,1.996c0.192,0.36,0.372,0.68,0.659,0.967&#xD;&#xA;&#x9;c0.387,0.388,1.307,0.816,1.879,0.88c1.902,0.21,4.289,0.407,6.104-0.089c2.182-0.597,3.704-0.849,5.975-0.43&#xD;&#xA;&#x9;c1.817,0.336,3.919,0.873,5.744,1.142c2.118,0.312,5.345-0.037,7.377-0.462c1.432-0.298,1.922-1.396,2.432-2.78&#xD;&#xA;&#x9;c0.184-0.497-0.402-1.688-0.6-2.229c-0.33-0.912-1.616-0.622-2.406-0.622c-2.292,0-4.456-0.377-6.58-1.304&#xD;&#xA;&#x9;c-0.82-0.357-1.682-0.868-2.449-1.353c-0.692-0.438-0.528-0.389-1.351-0.574c-0.187-0.044,2.015-1.819,1.831-1.802&#xD;&#xA;&#x9;c1.025-0.898,0,0-0.474-1.334c-0.096-0.272-0.563-0.285-0.806-0.445c-0.334-0.225-0.421-0.21-0.81-0.319&#xD;&#xA;&#x9;c-0.788-0.223-1.646-0.87-1.71,0.183c-0.048,0.755,0.518,1.555,0.428,2.282c-0.092,0.746-1.27,1.596-1.91,1.841&#xD;&#xA;&#x9;c-1.722,0.657-3.375,1.624-5.19,1.73c-1.298,0.075-2.899,0.536-4.161,0.216c-0.551-0.139-1.562-0.192-2.074-0.429&#xD;&#xA;&#x9;c-0.27-0.125-0.563-0.445-1.116-0.608"/>
    <path id="Shoe_Trim_Left_1_" fill="#A9D7AA" d="M1.785,192.017c2.051,0.334,4.252,1.694,6.182,2.473&#xD;&#xA;&#x9;c2.15,0.866,3.894,2.474,6.085,3.279c2.447,0.899,5.425,0.589,7.866-0.338c1.145-0.434,2.333-0.691,3.229-1.338&#xD;&#xA;&#x9;c0.556-0.397,1.173-0.603,1.409-1.194c0.164-0.409-0.146-0.688,0.039-1.038c0.051-0.098-0.191-0.435-0.186-0.536&#xD;&#xA;&#x9;c1.188-0.136,1.637,0.488,2.274,1.508c0.676,1.081-0.008,1.779-0.483,2.596c-1.156,1.984-4.318,2.554-6.501,3.146&#xD;&#xA;&#x9;c-2.177,0.59-5.503,1.141-7.586,0.188c-0.582-0.266-0.638-0.591-1.013-1.002c-0.319-0.35-0.813-0.585-1.186-0.879&#xD;&#xA;&#x9;c-0.511-0.402-0.785-0.922-1.241-1.316c-0.376-0.324-0.736-0.54-1.186-0.769c-1.378-0.699-3.035-1.51-4.46-2.123&#xD;&#xA;&#x9;c-0.585-0.252-1.744-0.677-2.268-1.015c-0.78-0.502-0.429-1.126-0.98-1.711"/>
    <path id="Shoe_Trim_Right_1_" fill="#A9D7AA" d="M32.935,185.407c0.158-0.39,2.333,0.764,2.759,0.72&#xD;&#xA;&#x9;c1.021-0.103,2.176,0.15,3.187-0.118c0.907-0.241,1.593,0.016,2.401-0.214c1.075-0.305,2.084-0.183,3.186-0.071&#xD;&#xA;&#x9;c1.127,0.113,2.202,0.451,3.352,0.57c1.363,0.142,2.8,0.375,4.187,0.499c2.18,0.196,4.17,0.342,6.301-0.356&#xD;&#xA;&#x9;c3.369-1.104,3.301-3.81,3.66-4.117c1.414,1.062,1.425,2.811-0.143,4.717c-1.345,1.635-4.056,1.245-5.961,1.428&#xD;&#xA;&#x9;c-2.218,0.211-4.431-0.653-6.591-0.888c-0.997-0.107-1.953-0.245-2.978-0.347c-1.419-0.141-3.061-0.017-4.419,0.324&#xD;&#xA;&#x9;c-1.643,0.412-3.068,0.318-4.802,0.381c-0.999,0.035-1.617,0.293-2.474-0.428c-0.523-0.442-0.346-0.146-0.688-0.522&#xD;&#xA;&#x9;c-0.042-0.103-0.409-0.54-0.381-0.596"/>
    <path id="Pants_3_" fill="#536AA4" d="M48.125,172.084c-0.088,0.486-0.113,0.625-0.195,0.83c-0.193,0.489,0.565,1.059,0.301,1.522&#xD;&#xA;&#x9;c-0.599,1.05,0.571,3.173-0.357,3.95c-1.646,1.38-3.45,2.199-5.829,2.649c-0.534,0.102-1.097,0.165-1.604,0.366&#xD;&#xA;&#x9;c-0.589,0.233-1.27,0.205-1.927,0.178c-0.555-0.023-0.516,0.07-1.032-0.007c-0.507-0.076-0.128-0.245-0.736-0.14&#xD;&#xA;&#x9;c-0.633-0.107,0.25,0.054-0.921-0.145c-0.723-0.122-2.149-0.749-1.338-0.675c-1.242-0.171-4.079-1.589-3.684-2.552&#xD;&#xA;&#x9;c0.148-0.36,1.65-1.75,0.367-3.948c-0.406-0.696-0.456-1.979,0.294-2.72c0.765-0.755,0.347-0.434,0.306-1.525&#xD;&#xA;&#x9;c-0.038-1.077-1.461-3.115-1.272-4.211c0.205-1.195,0.566-0.75,1.183-2.05c0.353-0.744,0.838-3.148,0.153-4.189&#xD;&#xA;&#x9;c-0.724-1.102-0.594-3.062-0.849-4.347c-0.543-2.74-0.342-5.775-0.42-8.557c-0.065-2.394,0.005-4.822,0.709-7.089&#xD;&#xA;&#x9;c0.254-0.813,0.463-1.662,0.72-2.497c0.286-0.94,0.58-1.766,0.677-2.749c0.251-2.557,0.338-4.835-0.128-7.347&#xD;&#xA;&#x9;c-0.17-0.923-0.568-1.782-0.738-2.701c-0.188-1.017-0.35-1.98-0.396-3.042c-0.04-0.862-0.105-2.075-0.582-2.805&#xD;&#xA;&#x9;c-0.574,1.573-1.008,3.123-1.826,4.208c-0.824,1.091-1.141,2.377-1.781,3.578c-1.148,2.146-1.907,4.604-3.276,6.606&#xD;&#xA;&#x9;c-1.354,1.98-0.308,4.362-0.209,5.323c0.078,0.759-0.222,1.084-0.392,1.833c-0.15,0.671-0.203,1.514-0.753,2.047&#xD;&#xA;&#x9;c-0.45,0.438-0.202,0.56-0.27,1.148c-0.162,1.46-0.782,2.311-1.032,3.782c-0.279,1.647-0.672,3.198-1.07,4.729&#xD;&#xA;&#x9;c-0.36,1.384-0.881,3.08-1.135,4.51c-0.246,1.388-0.759,3.15-0.839,5.979c-0.055,1.931-0.516,2.209-0.487,4.062&#xD;&#xA;&#x9;c0.011,0.722-0.089,0.814-0.101,1.542c-0.016,0.914-0.224,0.09-0.007,0.833c0.318,1.092-0.583,2.175-0.65,3.311&#xD;&#xA;&#x9;c-0.068,1.151-0.113,0.084,0.031,1.222c0.103,0.816,0.871,1.931,0.448,2.583c-1.332,2.057,0.923,1.692,0.861,2.105&#xD;&#xA;&#x9;c-0.352,2.312-0.484,1.791-1.585,4.164c-0.695,1.499,0.338,2.772,0.125,2.782c-2.055,0.095-5.201,0.549-6.843,1.506&#xD;&#xA;&#x9;c-1.164,0.68,0.125,1.835-1.336,1.839c-0.601,0.002-1.983,0.4-2.579,0.175c-1.053-0.4-0.512,0.056-1.703-0.485&#xD;&#xA;&#x9;c-1.338-0.604-2.51-1.061-1.911-0.784c1.428,0.659-1.239-0.463-1.678-1.405c-0.442-0.95-0.54-6.05-0.207-7.466&#xD;&#xA;&#x9;c0.151-0.64,0.921-1.588,0.752-2.229c-0.073-0.277-0.319-1.296-0.091-1.716c0.294-0.54-0.532-0.416-0.093-0.995&#xD;&#xA;&#x9;c0.353-0.465,0.059-1.066,0.215-1.768c0.121-0.54-0.401-1.538-0.177-2.038c0.236-0.525-0.029-1.147,0.028-1.727&#xD;&#xA;&#x9;c0.098-0.984,0.489-2.154,0.737-3.321c0.538-2.542,1.691-4.466,2.199-7.189c0.459-2.467,0.501-5.564,0.957-7.954&#xD;&#xA;&#x9;c0.409-2.143,0.257-4.104,1.093-6.207c0.42-1.058,0.454-2.585,0.957-3.604c0.445-0.9,1.748-4.146,1.603-3.154&#xD;&#xA;&#x9;c-0.02,0.135,1.816-3.476,1.682-2.771c-0.277,1.457,0.447-2.686,0.668-4.117c0.221-1.431,0.272-2.907,0.623-4.275&#xD;&#xA;&#x9;c0.286-1.118,0.337-2.356,0.522-3.52c0.38-2.386,1.048-4.738,1.092-7.174c0.052-2.865,0.583-5.395,0.48-8.252&#xD;&#xA;&#x9;c-0.046-1.269,0.941-9.267,0.932-9.257c5.072,1.98,9.47,2.535,13.545,1.894c3.807-0.599,7.826-0.956,11.579-2.278&#xD;&#xA;&#x9;c2.573-0.906,4.642-4.164,6.319-5.107c0.207,0.352,0.271,0.006,0.426,0.398c0.171,0.436,0.484,1.018,0.592,1.482&#xD;&#xA;&#x9;c0.234,1.015,0.505,2.188,0.641,3.229c0.263,2.003,0.303,3.742,0.379,5.848c0.087,2.396,0.273,4.847,0.117,7.204&#xD;&#xA;&#x9;c-0.155,2.376,0.021,4.774-0.684,7.025c-0.353,1.126-0.494,2.143-0.726,3.303c-0.209,1.049-0.39,2.194-0.688,3.255&#xD;&#xA;&#x9;c-0.279,0.996-0.281,1.883-0.396,2.839c-0.121,1.013-0.625,2.849-1.339,3.652c-0.51,0.575-0.268,0.773-0.431,1.616&#xD;&#xA;&#x9;c-0.144,0.738-0.423,1.2-0.433,1.959c-0.009,0.531,0.454,1.595,0.512,1.893c0.118,0.615,0.077,0.664,0,1.427&#xD;&#xA;&#x9;c-0.147,1.447-0.98,2.469-1.143,3.776c-0.124,0.994-0.093,2.077-0.3,3.108c-0.45,2.255,0.396,4.563,0.593,6.822&#xD;&#xA;&#x9;c0.411,4.775,1.285,10.559,1.64,13c0.205,1.416,0.434,0.696,0.722,2.191c0.386,1.998,0.419,2.735,1.697,2.632&#xD;&#xA;&#x9;c0.245-0.02-0.322,1.385,0.364,1.581c0.021,0.006,0.092,0.405,0.388,1.344c0.281,0.892,0.82,0.072,0.246,0.7"/>
    <path id="Hair_3_" fill="#613D27" d="M40.717,30.802c0.05-0.06,0.125-0.08,0.198-0.108 M30.329,43.185&#xD;&#xA;&#x9;c2.287,1.479,5.64-0.888,10.663,1.437c0.709,0.328,0.858-2.667,0.944-4.18c0.293-0.246,1.916,2.377,1.935,2.297&#xD;&#xA;&#x9;c2.771-2.137-3.819-6.905-4.03-10.899c-0.026-0.492,1.61-2.511,1.765-4.128c0.057-0.578,0.867-3.898,0.812-4.494&#xD;&#xA;&#x9;c-0.062-0.637-0.267-1.028-0.315-1.676c-0.188-2.503-0.874-4.732-1.383-7.139c-0.256-1.218-0.867-2.507-1.516-3.565&#xD;&#xA;&#x9;c-0.619-1.013-1.226-1.571-1.724-2.636c-0.964-2.063-3.065-3.509-4.778-4.935c-0.914-0.761-2.431-1.757-3.566-2.093&#xD;&#xA;&#x9;c-2.141-0.631-4.589-1.087-6.778-1.086C20.053,0.09,18.06,0.346,15.81,0.921c-2.175,0.556-3.188,1.078-5.03,1.729&#xD;&#xA;&#x9;C9.521,3.095,8.396,3.498,6.833,4.82C6.386,5.198,6.254,6.15,6.014,6.663C5.712,7.307,5.311,7.062,4.664,7.47&#xD;&#xA;&#x9;C3.424,8.248,2.369,8.964,1.9,10.366c-0.4,1.194-0.904,2.337-0.952,3.551c-0.049,1.241,0.376,2.508,0.649,3.798&#xD;&#xA;&#x9;c0.262,1.235,0.645,2.624,0.769,3.869c0.285,2.881,0.462,4.681,0.667,7.275c0.051,0.639,0.202,2.019,0.078,2.628&#xD;&#xA;&#x9;c-0.123,0.601-0.024,1.269,0.016,1.876c0.096,1.486-0.666,2.748-0.844,4.21c-0.145,1.183-0.357,1.998-0.603,3.185&#xD;&#xA;&#x9;c-0.232,1.117-0.489,2.166-0.303,3.313c0.131,0.81,0.795,2.633,1.223,3.323c0.397,0.642,1.455,1.665,1.944,2.258&#xD;&#xA;&#x9;c0.448,0.543,0.474,0.569,1.047,0.996c0.453,0.337,1.139,0.591,1.668,0.752c-0.744-0.53-0.858-1.048-0.954-2.034&#xD;&#xA;&#x9;c-0.069-0.709-0.064-1.892,0.679-2.154c0.814,2.864,4.398,4.195,5.833,4.512c0.77,0.17,0.124-0.773,0.194-1.326&#xD;&#xA;&#x9;c0.147-1.165-0.451-2.204,0.147-1.165c-0.113-0.925-0.426-1.091-0.121-2.021c0.312-0.951,0.348-0.675,0.135-1.688&#xD;&#xA;&#x9;c-0.109-0.518-0.079-0.794,0.386-1.062c0.461-0.265,0.786-0.427,1.438-0.986c0.674-0.579,0.294-0.027,0.738-0.68&#xD;&#xA;&#x9;c0.196-0.288,0.926-0.762,0.612-0.89c0.508-0.345,0.104-0.345,1.264-0.957c-0.699-1.164-0.625,0.366,0.309-0.464&#xD;&#xA;&#x9;c0.283-0.349,0.573-0.734,0.54-0.741c0.825,0.081,0.218,0.234,0.244-0.287c0.03-0.604-0.095-0.288,0.098-0.832&#xD;&#xA;&#x9;c0.365-1.03,0.667-0.07,0.137-1.029c0.095-0.607,0.779-1.277-0.961-1.8c-0.988-0.297-1.393-2.021-2.372-1.889&#xD;&#xA;&#x9;c-0.629,0.085-1.421,0.527-2.046,0.409c-0.395-0.074-1.485-0.155-1.944-0.312c-1.163-0.396-1.974-0.889-2.419-1.989&#xD;&#xA;&#x9;c-0.302-0.748-0.429-1.718-0.33-2.61c0.08-0.715,0.72-1.523,1.389-1.456c0.717,0.072,1.901,0.992,2.644,1.171&#xD;&#xA;&#x9;c0.936,0.226,1.842,0.078,2.768,0.188c-0.972-0.287-1.171-0.857-1.995-1.72c-0.401-0.42-1.032-1.333-1.237-1.88&#xD;&#xA;&#x9;c-0.194-0.517-0.444-0.992-0.602-1.493c-0.348-1.105-0.852-2.893-0.366-3.9c0.511-1.062,0.504-1.95,0.781-3.022&#xD;&#xA;&#x9;c0.187-0.725,0.484-0.982,0.865-1.563c0.57-0.868,0.15-0.887-0.102-1.649c-0.052-0.039,0.077-0.394,0.019-0.445&#xD;&#xA;&#x9;c0.357-0.259,1.013,0.42,1.491,0.447c0.672,0.039,1.658-0.402,2.334-0.481c1.584-0.186,2.566-0.788,4.025-1.418&#xD;&#xA;&#x9;c2.354-1.017,5.287-2.473,7.96-2.653c1.467-0.1,2.867,0.562,3.971,1.459c0.511,0.414,0.678,0.875,1.074,1.415&#xD;&#xA;&#x9;c0.383,0.521,0.58,1.281,0.813,1.889c0.429,1.113,0.828,2.579,1.197,3.691c0.354,1.07,0.384,2.171,1.013,3.029&#xD;&#xA;&#x9;c0.714,0.977,1.731,1.922,2.208,3.063c0.204,0.488,0.197,0.685,0.352,1.167c0.21,0.663-0.028,0.789,0.138,1.397&#xD;&#xA;&#x9;c0.326,1.186-4.119,12.916-9.713,12.477c-0.564-0.044-0.125,1.325,0.047,3.405"/>
    <path id="Shirt_3_" fill="#2FA64A" d="M12.708,51.883c0,2.437-0.836,4.269-1.122,6.581c-0.15,1.216-0.534,2.351-0.766,3.517&#xD;&#xA;&#x9;c-0.297,1.498,0.039,2.394-1.526,2.791c-0.635,0.161-1.918,0.164-2.644-0.068c-0.627-0.201-1.251-0.906-1.762-1.328&#xD;&#xA;&#x9;c-0.6-0.497-1.576-1.338-1.924-2.029c-0.314-0.623-0.04-1.025,0.156-1.766c0.424-1.608,0.813-2.456,1.21-4.063&#xD;&#xA;&#x9;c0.191-0.771,0.366-2.21,0.237-3.002c-0.125-0.763,0.268-1.698,0.589-2.439c0.667,0.641,1.907,1.244,2.873,1.531&#xD;&#xA;&#x9;c0.033,0.033-0.026,0.166-0.064,0.136c-1.102-0.684-2.554-2.985-1.146-4.514c0.429,2.164,4.043,3.976,5.738,4.433 M22.615,49.618&#xD;&#xA;&#x9;c-0.336,0.171-0.537,0.998-0.768,1.373c-0.379,0.619-0.641,0.639-1.214,0.997c-0.779,0.486-0.966,1.743-1.514,2.479&#xD;&#xA;&#x9;c-0.316,0.425-0.862,0.63-1.213,0.979c-0.457,0.453-0.33,0.804-0.372,1.518c-0.037,0.613-0.279,1.173-0.341,1.783&#xD;&#xA;&#x9;c-0.081,0.796,0.035,1.621,0.071,2.407c0.075,1.605,0.343,2.904,0.343,4.497c0,1.475-0.065,3.072,0,4.507&#xD;&#xA;&#x9;c0.062,1.364-0.278,2.389-0.343,3.712c-0.06,1.203-0.684,2.372-0.785,3.563c-0.086,1.008-0.838,2.177-1.203,3.057&#xD;&#xA;&#x9;c2.203,0.111,5.316-0.819,7.052,0.802c1.664-0.725,3.241-1.438,4.852-2.362c2.428-1.394,5.41-2.687,7.721-4.262&#xD;&#xA;&#x9;c2.31-1.574,4.491-2.856,7.332-2.253c0.033-0.372-0.041-0.75-0.076-1.115c-0.239-2.399-1.44-4.495-1.069-6.989&#xD;&#xA;&#x9;c0.078-0.535,0.049-1.235,0.281-1.729c0.312-0.658,0.885-0.633,1.502-0.838c1.188-0.394,2.535-0.988,3.614-1.603&#xD;&#xA;&#x9;c-0.024-0.041,1.231-0.951,0.382-0.663c0.531-0.528,0.342-0.76,0.783-1.358c0.571-0.773,0.188-1.48-0.16-2.225&#xD;&#xA;&#x9;c-0.806-1.714-2.317-2.983-3.05-4.709c-0.502-1.185-1.298-2.197-1.449-3.452c-0.122-1.007-1.192-2.251-2.101-2.986&#xD;&#xA;&#x9;c-0.937-0.76-2.376-1.082-3.513-1.197c-1.242-0.126-2.51,0.238-3.698,0.157c0.076,0.424,0.312,0.784,0.346,1.273&#xD;&#xA;&#x9;c0.034,0.471-0.051,0.912-0.143,1.358c-0.18,0.876-0.227,1.805-0.356,2.707c-0.338,2.339-2.469,3.851-4.776,3.796&#xD;&#xA;&#x9;c-2.724-0.064-4.183-1.749-6.207-3.226 M30.488,43.319c0.021,0.299,0.093,0.647,0.382,0.803c0.406,0.219,1.118,0.223,1.573,0.201&#xD;&#xA;&#x9;c0.31-0.015,0.82,0.066,1.119-0.021c0.244-0.071,0.174-0.349-0.102-0.459c-0.156-0.062-0.41,0.022-0.571,0.023&#xD;&#xA;&#x9;c-0.286,0.002-0.583-0.065-0.863-0.125c-0.212-0.045-0.405-0.108-0.608-0.188c-0.239-0.095-0.55-0.322-0.811-0.305 M15.726,87.964&#xD;&#xA;&#x9;c-0.144,0.224,0.536,0.987,0.592,1.345c0.068,0.435-0.163,0.974-0.428,1.291c-0.401,0.481-0.665,0.389-0.702,1.075&#xD;&#xA;&#x9;c-0.025,0.471-0.077,0.893-0.309,1.302c-0.211,0.371-0.701,0.694-0.862,1.076c-0.185,0.438,0.006,0.873,0.137,1.28&#xD;&#xA;&#x9;c0.307,0.946,0.832,1.373,1.743,1.76c1.785,0.759,3.438,1.234,5.384,1.4c2.104,0.179,4.826,0.37,6.929,0.169&#xD;&#xA;&#x9;c3.533-0.339,6.684-0.603,10.088-1.658c2.407-0.746,4.596-2.522,6.364-4.24c0.345-0.335,0.689-0.791,1.132-0.994&#xD;&#xA;&#x9;c0.65-0.3,0.77,0.001,1.062,0.551c0.293,0.55,0.344,0.84,0.659,0.215c0.193-0.381,0.355-0.745,0.606-1.117&#xD;&#xA;&#x9;c0.29-0.429,0.237-0.658,0.36-1.142c0.115-0.458,0.396-0.725,0.324-1.236c-0.143-1.044-1.331-1.33-1.789-2.139&#xD;&#xA;&#x9;c-0.455-0.805-0.87-1.979-1.185-2.864c-0.352-0.988-1.151-1.779-1.427-2.785c-0.191-0.7-0.071-0.763-0.817-0.66&#xD;&#xA;&#x9;c-0.6,0.083-1.015,0.096-1.615,0.313c-1.888,0.679-3.836,1.345-5.754,1.909c-0.784,0.23-1.583,0.368-2.378,0.578&#xD;&#xA;&#x9;c-1.129,0.299-2.18,0.762-3.312,1.034c-1.891,0.454-3.758,1.003-5.657,1.399c-1.939,0.405-3.82,1.297-5.758,1.654&#xD;&#xA;&#x9;c-0.909,0.168-2.641,0.42-3.442,0.592"/>
    <path id="SkinArms_1_" fill="#DEB252" d="M41.708,61.734c1.699,0.059,2.979-1.104,4.538-1.429c0.306,1.324,1.062,2.801,1.409,4.124&#xD;&#xA;&#x9;c0.422,1.604,0.862,2.595,1.085,4.101c0.22,1.501,0.803,2.717,0.724,4.321c-0.062,1.228,0.081,3.081-0.542,4.156&#xD;&#xA;&#x9;c-0.317,0.549-0.965,0.862-1.454,1.217c-0.596,0.432-1.102,0.922-1.686,1.317c-1.091,0.737-2.279,1.174-3.576,1.52&#xD;&#xA;&#x9;c-4.006,1.066-7.897,2.308-11.909,3.317c-4.388,1.104-8.423,2.262-13.032,3.361c-1.62,0.386-2.762,0.602-4.337,0.034&#xD;&#xA;&#x9;c-0.702-0.253-1.433-0.352-2.096-0.635c-0.567-0.243-1.01-0.642-1.567-0.876c0.02-0.571-0.213-1.21-0.432-1.727&#xD;&#xA;&#x9;c-0.253-0.599-0.312-1.053-0.479-1.697c-0.307-1.181-1.177-2.347-1.603-3.514c-0.897-2.46-1.466-4.586-1.593-7.245&#xD;&#xA;&#x9;c-0.069-1.435-0.407-3.127-0.683-4.537c-0.156-0.802-0.152-1.748-0.152-2.593c0-0.849-0.735-1.897,0.271-1.438&#xD;&#xA;&#x9;c0.65,0.297,1.103,0.842,1.841,1.037c0.622,0.163,1.313,0.266,2.017,0.222c1.682-0.104,1.751-1.147,2.159-2.479&#xD;&#xA;&#x9;c0.2-0.651,0.625-1.213,0.816-1.839c0.207-0.677,0.156-1.389,0.3-2.078c0.29-1.386,0.648-2.815,0.722-4.22&#xD;&#xA;&#x9;c0.141-2.67,0.419-4.713,0.598-7.4c0.086-1.303,0.113-1.947,1.261-2.693c1.026-0.667,2.192-1.862,2.958-2.835&#xD;&#xA;&#x9;c0.667-0.848,1.15-1.438,1.878-2.218c0.472-0.506,1.453-2.04,2.246-1.887c0.022,0.52-0.28,1.205-0.386,1.748&#xD;&#xA;&#x9;c-0.099,0.506-0.343,1.31-0.557,1.762c-0.281,0.59-0.791,1.089-1.204,1.595c-0.416,0.509-1.226,0.995-1.512,1.507&#xD;&#xA;&#x9;c0.618-0.029,1.094-0.417,1.752-0.388c0.741,0.032,1.338,0.347,1.824,0.862c1.015,1.077,1.774,1.519,1.774,3.135&#xD;&#xA;&#x9;c0,1.134-0.502,2.39-1.038,3.361c-0.234,0.426-0.732,0.902-1.139,1.178c-0.248,0.167-0.492,0.139-0.682,0.336&#xD;&#xA;&#x9;c-0.225,0.234-0.224,0.633-0.335,0.886c-0.246,0.555-0.623,0.791-0.942,1.294c-0.377,0.594-1.681,0.997-1.608,1.418&#xD;&#xA;&#x9;c0.198,1.147-0.166,3.1-0.024,4.023c0.198,1.284,0.232,2.004,0.295,3.303c0.066,1.365-0.089,3.293-0.105,4.686&#xD;&#xA;&#x9;c-0.015,1.302,0.068,2.397-0.116,3.641c-0.157,1.06-0.319,2.18-0.524,3.216c-0.209,1.059-0.318,2.159-0.576,3.199&#xD;&#xA;&#x9;c-0.213,0.861-0.793,1.671-1.031,2.543c1.324,0.082,2.698-0.354,4.067-0.15c0.645,0.096,1.327,0.289,1.937,0.563&#xD;&#xA;&#x9;c0.799,0.359,0.949,0.612,1.746,0.16c1.537-0.873,3.219-1.408,4.711-2.38c1.379-0.897,2.779-1.485,4.241-2.232&#xD;&#xA;&#x9;c1.797-0.919,3.752-2.397,5.629-3.149c1.441-0.577,2.761-1.23,4.349-1.124c0.051-1.088,0.155-1.688-0.276-2.669&#xD;&#xA;&#x9;c-0.38-0.857-0.324-1.56-0.285-2.521c0.068-1.72-0.474-3.763,0.334-5.271"/>
    <path id="SkinFace_1_" fill="#DEB252" d="M13.057,13.457c-0.032-0.083-0.076-0.101-0.063-0.19c1.739,1.784,4.717,0.018,6.553-0.721&#xD;&#xA;&#x9;c2.024-0.813,4.171-1.678,6.261-2.386c2.378-0.805,4.066-1.028,6.219,0.269c1,0.603,2.236,1.856,2.642,3.064&#xD;&#xA;&#x9;c0.393,1.169,0.89,1.939,0.999,3.174c0.052,0.574,0.073,1.177,0.127,1.728c0.052,0.528,0.287,1.09,0.49,1.617&#xD;&#xA;&#x9;c0.393,1.018,1.113,1.601,1.79,2.379c0.758,0.872,1.012,2.018,1.319,3.05c0.363,1.21,0.017,2.283-0.207,3.41&#xD;&#xA;&#x9;c-0.109,0.559-0.816,1.866-0.985,2.42c-0.195,0.644-0.474,0.899-0.827,1.457c-0.604,0.95-3.233,4.205-4.339,5.236&#xD;&#xA;&#x9;c-1.661,1.551-3.099,0.458-3.234,1.992c-0.143,1.61,0.09,1.605,0.146,2.76c0.016,0.315,0.173,0.732,0.428,0.984&#xD;&#xA;&#x9;c0.276,0.274,0.604,0.248,1.018,0.352c0.747,0.188,1.51,0.335,2.281,0.034c0.682,1.934,0.04,4.77-0.84,6.533&#xD;&#xA;&#x9;c-0.922,1.847-3.76,2.888-5.813,2.155c-1.016-0.362-2.108-1.111-2.998-1.712c-1.289-0.869-1.236-1.439-1.034-2.783&#xD;&#xA;&#x9;c0.159-1.061-0.218-2.118-0.925-2.887c-0.68-0.739-0.893-1.932-2.158-1.98c-0.598-0.023-1.117,0.372-1.772,0.276&#xD;&#xA;&#x9;c0.015-0.551,0.845-0.906,1.219-1.256c0.461-0.431,0.75-0.88,0.963-1.482c0.266-0.753,1.564-3.115,0.875-3.822&#xD;&#xA;&#x9;c-0.761,0.777-1.647,1.421-2.484,2.142c0.046-1.115,0.65-1.819,0.057-2.988c-0.402-0.792-1.863-1.409-2.582-2.049&#xD;&#xA;&#x9;c-0.768-0.685-0.761-0.322-1.626-0.107c-0.564,0.141-1.29,0.186-1.863,0.055c-1.061-0.242-2.059-0.772-2.916-1.537&#xD;&#xA;&#x9;c-1.127-1.004-1.848-4.293,0.055-4.651c0.934-0.176,1.718,0.565,2.582,0.803c1.061,0.291,2.173,0.229,3.22,0.471&#xD;&#xA;&#x9;c-0.208-0.42-0.835-0.62-1.204-0.919c-0.399-0.323-0.789-0.657-1.105-1.05c-0.592-0.733-1.034-1.806-1.337-2.712&#xD;&#xA;&#x9;c-0.778-2.323-0.641-4.471,0.305-6.701c0.279-0.659,0.635-1.454,0.765-2.144c0.151-0.805-0.242-1.545-0.204-2.414&#xD;&#xA;&#x9;c0.147-0.057,0.196,0.019,0.275,0.061"/>
    <path id="Teeth_1_" fill="#FFFFFF" d="M26.947,33.026c1.064-0.475,2.131-1.202,3.182-1.719c0.888-0.436,2.231-0.729,3.156-0.688&#xD;&#xA;&#x9;c0.092,0.004,0.185,0.071,0.277,0.101c-0.002,0.012-0.003,0.082-0.001,0.093c-0.193,0.097-0.335,0.341-0.451,0.521&#xD;&#xA;&#x9;c-0.22,0.343-0.193,0.398-0.587,0.486c-0.557,0.124-1.17,0.19-1.749,0.281c-0.634,0.101-1.257,0.349-1.896,0.468&#xD;&#xA;&#x9;c-0.355,0.065-0.729,0.153-1.068,0.217c-0.233,0.043-0.602-0.023-0.804,0.099c-0.009,0.013-0.018,0.024-0.026,0.037"/>
    <path id="Eye_Whites_1_" fill="#FFFFFF" d="M17.379,24.213c0.961-0.206,1.151-0.63,2.034-0.748c0.498-0.067,1.39-0.327,1.955-0.256&#xD;&#xA;&#x9;c0.609,0.078,0.811-0.143,1.23,0.084c0.362,0.196,0.93,0.427,1.248,0.69c0.093,0.077,0.76,0.652,0.838,0.76&#xD;&#xA;&#x9;c0.351,0.48-0.313,0.857-0.411,0.933c-0.503,0.391-0.706,0.379-1.212,0.674c-0.514,0.3-1.505,0.994-2.115,0.944&#xD;&#xA;&#x9;c-0.633-0.051-2.259-0.814-2.729-1.276c-0.184-0.181-0.999-1.316-0.609-1.542 M31.425,21.741c-0.15,0.129-0.141,0.399-0.174,0.587&#xD;&#xA;&#x9;c-0.074,0.412-0.495,1.046-0.06,1.055c0.363,0.008,1.959,0.321,2.328,0.29c0.729-0.062,1.812-0.689,2.423-1.498&#xD;&#xA;&#x9;c0.21-0.277,0.167-0.619,0.245-0.948c0.066-0.279,0.142-1.502-0.105-1.684c-0.363-0.268-0.363-0.268-1.039-0.174&#xD;&#xA;&#x9;c-0.602,0.083-1.194,0.289-1.737,0.567c-0.348,0.178-0.812,0.487-0.971,0.734c-0.1,0.156-0.357,0.401-0.466,0.551&#xD;&#xA;&#x9;c-0.096,0.131-0.298,0.069-0.246,0.253"/>
    <path id="Irises_3_" fill="#3B2416" d="M22.879,23.158c0.206-0.008,0.479,0.223,0.638,0.349c0.208,0.165,0.229,0.301,0.295,0.537&#xD;&#xA;&#x9;c0.037,0.136-0.019,0.282-0.02,0.427c-0.001,0.143,0.027,0.156-0.024,0.273c-0.079,0.179-0.036,0.233-0.193,0.383&#xD;&#xA;&#x9;c-0.101,0.094-0.189,0.183-0.313,0.251c-0.481,0.267-1.188,0.286-1.62-0.116c-0.213-0.198-0.317-0.248-0.365-0.562&#xD;&#xA;&#x9;c-0.049-0.324,0.033-0.661,0.15-0.949C21.604,23.314,22.441,23.02,22.879,23.158 M33.731,20.8c0.026,0.245,0.255,0.52,0.403,0.698&#xD;&#xA;&#x9;c0.307,0.365,0.961,0.354,1.322,0.138c0.188-0.113,0.556-0.521,0.621-0.757c0.05-0.181-0.207-0.741-0.34-0.89&#xD;&#xA;&#x9;c-0.149-0.169-0.593-0.306-0.787-0.376C34.07,19.291,33.671,20.207,33.731,20.8z"/>
    <path id="Mouth_1_" fill="#3F1212" d="M26.056,33.406c0.769-0.479,1.673-0.586,2.525-0.85c0.887-0.275,1.789-0.354,2.702-0.483&#xD;&#xA;&#x9;c0.562-0.078,1.117-0.3,1.669-0.353c-0.027,0.156-0.14,0.261-0.14,0.441c0,0.162,0.035,0.331,0.054,0.494&#xD;&#xA;&#x9;c0.024,0.237,0.215,0.683,0.075,0.896c-0.09,0.138-0.262,0.121-0.396,0.103c-0.187-0.026-0.394-0.037-0.592-0.054&#xD;&#xA;&#x9;c-0.404-0.034-0.808-0.053-1.222-0.053c-0.823,0-1.694-0.038-2.489,0.142c-0.312,0.071-0.646,0.148-0.96,0.195&#xD;&#xA;&#x9;c-0.328,0.049-0.643-0.184-0.946-0.332c-0.086-0.043-0.275-0.097-0.263-0.184"/>
    <path id="Tongue_1_" fill="#A23422" d="M27.179,33.951c-0.025-0.189,2.214-0.39,2.493-0.403c0.608-0.03,1.229,0.041,1.84,0.04&#xD;&#xA;&#x9;c0.239,0,0.315-0.034,0.548,0.012c0.185,0.037,0.596,0.01,0.73,0.113c0.006,0.001,0.013,0.003,0.02,0.005&#xD;&#xA;&#x9;c0.18,0.51-0.256,0.784-0.602,1.043c-0.387,0.291-0.767,0.364-1.254,0.469c-0.613,0.131-1.324-0.037-1.91-0.232&#xD;&#xA;&#x9;c-0.322-0.107-0.594-0.27-0.891-0.428c-0.246-0.132-0.56-0.25-0.779-0.409c-0.091-0.066-0.183-0.18-0.219-0.28"/>
    <path id="Pants_2_" fill="#010101" d="M32.125,106.757c2.537-1.396,5.186-2.55,7.895-3.571c0.367-0.138,0.021-0.218-0.192-0.137&#xD;&#xA;&#x9;c-2.751,1.036-5.445,2.205-8.021,3.625C31.483,106.851,31.99,106.831,32.125,106.757L32.125,106.757z M43.691,132.861&#xD;&#xA;&#x9;c1.306-3.42,2.135-7.003,3.105-10.526c0.976-3.542,1.566-7.23,1.791-10.896c0.222-3.609-0.035-7.236-0.201-10.845&#xD;&#xA;&#x9;c-0.145-3.121-0.387-6.359-1.75-9.22c-0.068-0.143-0.6,0.047-0.551,0.147c1.3,2.729,1.562,5.785,1.727,8.764&#xD;&#xA;&#x9;c0.197,3.573,0.39,7.164,0.252,10.742c-0.146,3.84-0.835,7.688-1.812,11.398c-0.93,3.527-1.803,7.114-3.105,10.526&#xD;&#xA;&#x9;C43.103,133.064,43.635,133.007,43.691,132.861L43.691,132.861z M23.498,134.597c1.818-5.067,4.752-9.685,6.942-14.598&#xD;&#xA;&#x9;c2.158-4.838,4.027-9.839,5.374-14.966c0.034-0.128-0.507-0.049-0.544,0.094c-1.35,5.133-3.232,10.115-5.374,14.966&#xD;&#xA;&#x9;c-2.173,4.925-5.124,9.525-6.942,14.599C22.913,134.805,23.447,134.742,23.498,134.597L23.498,134.597z M10.778,133.276&#xD;&#xA;&#x9;c0.614-2.495,0.784-5.074,1.159-7.611c0.452-3.054,1.305-6.028,1.716-9.092c0.408-3.038,0.463-6.109,0.487-9.171&#xD;&#xA;&#x9;c0.027-3.5,0.454-7,1.041-10.445c0.024-0.142-0.521-0.045-0.544,0.094c-0.504,2.961-0.858,5.939-1.002,8.941&#xD;&#xA;&#x9;c-0.155,3.219-0.081,6.424-0.404,9.637c-0.332,3.303-1.228,6.489-1.777,9.754c-0.448,2.657-0.574,5.364-1.219,7.987&#xD;&#xA;&#x9;C10.201,133.502,10.743,133.42,10.778,133.276L10.778,133.276z M41.033,141.85c1.32-1.2,2.543-2.455,3.199-4.145&#xD;&#xA;&#x9;c0.723-1.854-0.464-3.69-0.204-5.581c0.021-0.146-0.525-0.044-0.545,0.093c-0.242,1.772,0.703,3.407,0.328,5.172&#xD;&#xA;&#x9;c-0.393,1.844-1.944,3.283-3.28,4.496C40.407,141.998,40.931,141.941,41.033,141.85L41.033,141.85z M42.96,139.493&#xD;&#xA;&#x9;c-0.886,5.767,0.438,11.597,0.991,17.335c0.347,3.595,0.877,7.424,1.976,10.873c0.043,0.137,0.59-0.022,0.551-0.147&#xD;&#xA;&#x9;c-1.08-3.395-1.553-7.115-1.951-10.646c-0.647-5.744-1.907-11.736-1.021-17.51C43.527,139.255,42.981,139.355,42.96,139.493&#xD;&#xA;&#x9;L42.96,139.493z M32.77,138.848c-0.195-3.647,0.438-7.273,0.166-10.925c-0.259-3.485-1.323-6.847-1.486-10.342&#xD;&#xA;&#x9;c-0.005-0.107-0.56-0.014-0.552,0.146c0.163,3.49,1.167,6.865,1.486,10.344c0.336,3.643-0.362,7.277-0.166,10.924&#xD;&#xA;&#x9;C32.224,139.104,32.779,139.008,32.77,138.848L32.77,138.848z M32.365,133.816c-0.111,2.658-1.404,5.018-1.715,7.631&#xD;&#xA;&#x9;c-0.347,2.932-0.333,5.872-0.243,8.817c0.083,2.806,0.242,5.55,0.971,8.271c0.384,1.438,1.851,3.254,1.474,4.793&#xD;&#xA;&#x9;c-0.031,0.131,0.51,0.049,0.545-0.094c0.32-1.311-0.761-3.037-1.235-4.211c-0.983-2.423-1.074-5.227-1.165-7.804&#xD;&#xA;&#x9;c-0.11-3.131-0.175-6.259,0.144-9.38c0.284-2.799,1.658-5.345,1.777-8.174C32.919,133.575,32.371,133.648,32.365,133.816&#xD;&#xA;&#x9;L32.365,133.816z M12.316,140.387c-0.143,2.084,0.507,4.656,2.671,5.44c0.127,0.046,0.624-0.158,0.451-0.222&#xD;&#xA;&#x9;c-2.11-0.765-2.708-3.354-2.571-5.366C12.874,140.15,12.328,140.217,12.316,140.387L12.316,140.387z M20.717,145.462&#xD;&#xA;&#x9;c0.735-1.932,2.276-3.392,3.017-5.315c0.91-2.357-0.584-4.851-0.421-7.261c0.006-0.089-0.539-0.021-0.551,0.148&#xD;&#xA;&#x9;c-0.176,2.588,1.283,4.985,0.301,7.535c-0.695,1.804-2.198,3.164-2.891,4.985C20.131,145.667,20.662,145.607,20.717,145.462&#xD;&#xA;&#x9;L20.717,145.462z M17.029,184.641c-0.066-1.16-0.205-2.244,0.251-3.351c0.349-0.848,0.903-1.556,1.185-2.443&#xD;&#xA;&#x9;c0.259-0.817,0.117-1.683-1-1.604c-1.061,0.074-2.007,0.859-2.911,1.334c-1.188,0.622-3.299,0.359-4.588,0.29&#xD;&#xA;&#x9;c-1.105-0.062-2.205-0.225-3.291-0.435c-0.134-0.025-0.614,0.188-0.451,0.221c1.622,0.312,3.282,0.519,4.937,0.495&#xD;&#xA;&#x9;c1.3-0.02,2.765,0.009,3.947-0.609c0.781-0.409,1.781-1.346,2.749-0.799c0.654,0.37-0.172,1.878-0.381,2.303&#xD;&#xA;&#x9;c-0.348,0.708-0.774,1.316-1,2.084c-0.248,0.839-0.045,1.81,0.003,2.662C16.484,184.896,17.037,184.801,17.029,184.641&#xD;&#xA;&#x9;L17.029,184.641z M7.824,184.685c4.28-0.376,9.108-2.347,10.508-6.772c0.039-0.12-0.499-0.051-0.544,0.094&#xD;&#xA;&#x9;c-1.313,4.151-5.671,6.09-9.729,6.447C7.911,184.466,7.46,184.717,7.824,184.685L7.824,184.685z M3.485,183.902&#xD;&#xA;&#x9;c0.761-0.229,1.498-0.631,2.021-1.239c0.016-0.02,0.046-0.06,0.009-0.078c-0.821-0.427-1.708-0.705-2.529-1.131&#xD;&#xA;&#x9;c-0.146-0.076-0.595,0.15-0.518,0.189c0.618,0.321,1.27,0.561,1.908,0.834c0.159,0.068,0.314,0.144,0.469,0.22&#xD;&#xA;&#x9;c0.194,0.096-0.063,0.239-0.131,0.303c-0.354,0.329-0.817,0.582-1.277,0.72C3.118,183.814,3.165,183.999,3.485,183.902&#xD;&#xA;&#x9;L3.485,183.902z M22.372,141.914c-1.237,5.3-2.474,10.601-3.711,15.899c-0.583,2.5-0.6,5.272-0.89,7.818&#xD;&#xA;&#x9;c-0.317,2.785-0.634,5.57-0.951,8.355c-0.009,0.081,0.532,0.023,0.551-0.148c0.612-5.38,1.225-10.76,1.836-16.14&#xD;&#xA;&#x9;c0.292-2.573,1.254-5.363,1.853-7.931c0.619-2.649,1.238-5.301,1.855-7.949C22.947,141.687,22.404,141.771,22.372,141.914&#xD;&#xA;&#x9;L22.372,141.914z M2.938,177.341c-1.816,0.246-3.021,0.814-2.934,2.823c0.062,1.452,0.195,2.874,0.219,4.336&#xD;&#xA;&#x9;c0.026,1.623,1.407,2.076,2.655,2.784c0.142,0.08,0.599-0.146,0.519-0.191c-0.903-0.512-2.027-0.904-2.525-1.883&#xD;&#xA;&#x9;c-0.356-0.699-0.093-2.014-0.087-2.771c0.017-2.293-1.107-4.454,2.055-4.883C3.068,177.526,3.326,177.289,2.938,177.341&#xD;&#xA;&#x9;L2.938,177.341z M10.256,133.341c-2.397,3.199-3.532,7.066-4.334,10.931c-0.884,4.258-1.654,8.676-2.111,12.997&#xD;&#xA;&#x9;c-0.245,2.313-1.348,4.246-1.926,6.468c-0.407,1.56-0.642,3.283-0.763,4.896c-0.234,3.146,0.4,6.383-0.542,9.435&#xD;&#xA;&#x9;c-0.038,0.12,0.5,0.051,0.544-0.095c0.838-2.713,0.497-5.635,0.506-8.443c0.006-1.821,0.42-3.615,0.694-5.407&#xD;&#xA;&#x9;c0.318-2.083,1.536-3.911,1.928-5.983c1.545-8.158,1.301-17.887,6.504-24.831C10.87,133.154,10.337,133.233,10.256,133.341&#xD;&#xA;&#x9;L10.256,133.341z M30.576,178.466c2.978,3.102,7.149,3.745,11.199,2.74c1.516-0.375,8.43-2.065,6.672-4.71&#xD;&#xA;&#x9;c-0.096-0.143-0.603,0.073-0.552,0.147c1.652,2.485-4.609,3.944-6.169,4.38c-3.823,1.062-7.876,0.122-10.633-2.749&#xD;&#xA;&#x9;C30.993,178.168,30.482,178.368,30.576,178.466L30.576,178.466z M31.083,178.305c0.791-0.856,1.05-1.419,1.01-2.627&#xD;&#xA;&#x9;c-0.023-0.704-0.39-1.281-0.713-1.881c-0.243-0.454-0.443-1.854,0.316-2.059c0.321-0.086,0.272-0.271-0.05-0.185&#xD;&#xA;&#x9;c-0.909,0.244-1.188,1.229-0.958,2.07c0.217,0.792,0.751,1.346,0.853,2.2c0.132,1.111-0.245,1.741-0.958,2.515&#xD;&#xA;&#x9;C30.461,178.472,30.992,178.405,31.083,178.305L31.083,178.305z M31.453,171.893c0.524-0.285,1.507-0.157,2.108-0.165&#xD;&#xA;&#x9;c0.843-0.009,1.688-0.001,2.529-0.014c1.345-0.02,2.693-0.071,4.027-0.247c2.563-0.338,5.008-1.015,7.313-2.199&#xD;&#xA;&#x9;c0.325-0.167-0.187-0.151-0.321-0.083c-3.065,1.575-6.372,2.146-9.787,2.276c-1.49,0.057-2.996,0.041-4.487,0.034&#xD;&#xA;&#x9;c-0.622-0.003-1.155,0.014-1.704,0.312C30.81,171.984,31.318,171.966,31.453,171.893L31.453,171.893z M48.369,174.128&#xD;&#xA;&#x9;c0.055-0.544-0.398-0.958-0.183-1.507c0.126-0.316,0.424-0.469,0.539-0.812c0.291-0.872-0.867-2.077-1.184-2.827&#xD;&#xA;&#x9;c-0.062-0.143-0.599,0.037-0.551,0.146c0.378,0.896,1.467,1.946,1.119,2.983c-0.095,0.282-0.435,0.516-0.553,0.813&#xD;&#xA;&#x9;c-0.15,0.383,0.302,0.924,0.257,1.349C47.808,174.358,48.35,174.3,48.369,174.128L48.369,174.128z M31.529,159.22&#xD;&#xA;&#x9;c0.621,1.275,0.541,2.662,0.113,3.99c-0.272,0.846-1.156,1.403-1.258,2.29c-0.234,2.057,1.343,3.994,1.01,6.001&#xD;&#xA;&#x9;c-0.022,0.143,0.521,0.045,0.544-0.094c0.319-1.923-1.074-3.846-1.031-5.797c0.021-0.962,1.093-1.912,1.396-2.851&#xD;&#xA;&#x9;c0.386-1.193,0.327-2.562-0.221-3.688C32.011,158.93,31.48,159.12,31.529,159.22L31.529,159.22z M47.431,169.238&#xD;&#xA;&#x9;c0.174-0.457,0.691-0.956,0.31-1.435c-0.109-0.137-0.369-0.144-0.525-0.163c-0.242-0.03-0.529-0.005-0.754-0.108&#xD;&#xA;&#x9;c-0.107-0.052-0.25-0.014-0.355,0.025c-0.017,0.007-0.258,0.12-0.162,0.164c0.38,0.178,0.835,0.05,1.21,0.221&#xD;&#xA;&#x9;c0.524,0.234-0.152,1.095-0.267,1.39C46.845,169.443,47.376,169.384,47.431,169.238L47.431,169.238z M38.292,175.222&#xD;&#xA;&#x9;c1.758,0.735,4.036,0.343,5.841-0.013c1.832-0.36,3.391-1.318,4.227-3.051c0.047-0.097-0.475-0.051-0.545,0.094&#xD;&#xA;&#x9;c-0.916,1.898-2.635,2.614-4.608,2.922c-1.416,0.22-3.107,0.396-4.461-0.173C38.619,174.949,38.118,175.148,38.292,175.222&#xD;&#xA;&#x9;L38.292,175.222z M17.087,177.261c0.332-0.479,0.634-0.88,0.683-1.474c0.067-0.824-0.543-1.521-0.365-2.336&#xD;&#xA;&#x9;c0.03-0.136-0.514-0.048-0.544,0.094c-0.134,0.612,0.136,1.114,0.3,1.694c0.24,0.846-0.165,1.459-0.618,2.114&#xD;&#xA;&#x9;C16.496,177.421,16.993,177.398,17.087,177.261L17.087,177.261z M47.827,174.327c0.019,0.87-0.553,1.68,0.146,2.426&#xD;&#xA;&#x9;c0.102,0.106,0.612-0.091,0.52-0.191c-0.663-0.708-0.097-1.554-0.113-2.382C48.376,174.076,47.824,174.164,47.827,174.327&#xD;&#xA;&#x9;L47.827,174.327z"/>
    <path id="Right_Shoe_1_" fill="#010101" d="M33.097,180.332c-0.764,1.173-1.312,2.388-1.196,3.813&#xD;&#xA;&#x9;c0.138,1.662,1.602,2.895,2.858,3.781c0.157,0.111,0.663-0.116,0.436-0.278c-1.221-0.861-2.286-1.843-2.687-3.328&#xD;&#xA;&#x9;c-0.376-1.397,0.369-2.836,1.104-3.967C33.759,180.129,33.201,180.17,33.097,180.332L33.097,180.332z M59.236,188.061&#xD;&#xA;&#x9;c-2.332,0.3-4.446,0.468-6.783,0.037c-1.977-0.362-3.907-0.888-5.909-1.111c-2.073-0.232-3.936,0.303-5.952,0.661&#xD;&#xA;&#x9;c-1.837,0.328-3.671,0.122-5.51-0.024c-0.225-0.019-0.582,0.303-0.209,0.333c1.528,0.122,3.023,0.243,4.562,0.146&#xD;&#xA;&#x9;c0.947-0.061,1.856-0.276,2.777-0.488c1.706-0.396,3.343-0.415,5.072-0.178c2.117,0.292,4.176,0.914,6.295,1.218&#xD;&#xA;&#x9;c1.883,0.27,3.718-0.025,5.588-0.267C59.441,188.352,59.616,188.012,59.236,188.061L59.236,188.061z M55.468,188.658&#xD;&#xA;&#x9;c2.014,0.064,4.002,0.083,5.8-0.943c1.464-0.838,2.657-2.966,1.86-4.578c-0.729-1.474-3.664-1.098-4.906-1.112&#xD;&#xA;&#x9;c-3.279-0.045-5.479-1.748-8.254-3.184c-0.171-0.089-0.674,0.154-0.436,0.277c1.562,0.808,2.997,1.831,4.613,2.531&#xD;&#xA;&#x9;c1.713,0.74,3.549,0.691,5.376,0.728c0.982,0.019,2.075,0.014,2.865,0.677c0.873,0.732,0.383,2.127-0.039,2.933&#xD;&#xA;&#x9;c-1.289,2.467-4.266,2.419-6.672,2.341C55.457,188.318,55.095,188.646,55.468,188.658L55.468,188.658z M32.528,185.172&#xD;&#xA;&#x9;c1.237,0.915,2.694,1.13,4.2,1.126c2.121-0.004,4.189-0.407,6.328-0.317c2.761,0.114,5.461,0.597,8.201,0.896&#xD;&#xA;&#x9;c3.801,0.418,10.49,0.76,10.75-4.551c0.012-0.242-0.543-0.135-0.553,0.062c-0.267,5.443-7.434,4.483-11.168,4.019&#xD;&#xA;&#x9;c-2.175-0.271-4.312-0.603-6.497-0.73c-1.864-0.109-3.663-0.037-5.514,0.194c-1.823,0.229-3.786,0.152-5.312-0.978&#xD;&#xA;&#x9;C32.808,184.779,32.302,185.005,32.528,185.172L32.528,185.172z M47.947,180.443c0.745-1.022,1.924-1.6,2.918-2.346&#xD;&#xA;&#x9;c0.305-0.229,1.159-0.777,1.185-1.214c0.077-1.401-2.753-2.283-3.784-2.071c-0.34,0.069-0.254,0.366,0.08,0.299&#xD;&#xA;&#x9;c0.76-0.156,1.698,0.416,2.33,0.787c0.191,0.11,1.094,0.896,0.723,1.221c-0.243,0.212-0.469,0.438-0.707,0.652&#xD;&#xA;&#x9;c-1.058,0.948-2.401,1.474-3.26,2.648C47.275,180.633,47.833,180.598,47.947,180.443L47.947,180.443z M46.006,179.821&#xD;&#xA;&#x9;c0.157,0.797,1.3,1.271,1.89,0.623c0.224-0.245-0.313-0.252-0.445-0.106c-0.138,0.151-0.327,0.031-0.479-0.061&#xD;&#xA;&#x9;c-0.215-0.133-0.366-0.359-0.414-0.604C46.517,179.469,45.964,179.607,46.006,179.821L46.006,179.821z"/>
    <path id="Left_Shoe_1_" fill="#010101" d="M18.072,187.682c1.441,0.845,2.319,2.005,3.402,3.247&#xD;&#xA;&#x9;c1.419,1.629,2.863,1.976,4.893,2.479c1.439,0.357,2.362,1.309,2.258,2.843c-0.07,1.039-1.463,1.789-2.239,2.263&#xD;&#xA;&#x9;c-2.229,1.36-4.752,2.044-7.326,2.365c-1.521,0.19-3.108,0.252-4.558-0.323c-0.992-0.393-1.671-1.419-2.383-2.163&#xD;&#xA;&#x9;c-1.342-1.403-3.129-2.298-4.854-3.13c-1.436-0.69-3.37-1.053-4.497-2.218c-0.749-0.774-0.611-2.229-0.616-3.202&#xD;&#xA;&#x9;c-0.004-0.84-0.087-2.221,0.811-2.667c-0.095-0.072-0.19-0.144-0.285-0.216c-0.053,0.029-0.105,0.059-0.158,0.087&#xD;&#xA;&#x9;c-0.326,0.181,0.157,0.289,0.347,0.184c0.053-0.028,0.105-0.059,0.158-0.088c0.297-0.164-0.1-0.308-0.286-0.215&#xD;&#xA;&#x9;c-1.304,0.648-1.176,2.188-1.136,3.467c0.032,1.039,0.01,2.014,0.655,2.871c0.514,0.686,1.487,1.009,2.253,1.285&#xD;&#xA;&#x9;c2.681,0.974,5.436,2.323,7.424,4.403c0.812,0.85,1.426,1.6,2.544,2.043c1.093,0.433,2.381,0.368,3.529,0.301&#xD;&#xA;&#x9;c2.673-0.154,5.583-0.804,7.926-2.141c1.493-0.853,3.396-1.793,3.242-3.767c-0.069-0.905-0.788-1.591-1.542-1.98&#xD;&#xA;&#x9;c-1.543-0.8-3.276-0.577-4.697-1.735c-1.652-1.349-2.55-3.171-4.426-4.27C18.342,187.307,17.837,187.543,18.072,187.682&#xD;&#xA;&#x9;L18.072,187.682z M2.528,187.009c1.195,0.562,2.496,1.286,3.835,1.433c1.191,0.128,2.36-0.151,3.52-0.394&#xD;&#xA;&#x9;c0.34-0.07,0.253-0.367-0.08-0.298c-1.129,0.234-2.266,0.516-3.423,0.325c-1.191-0.196-2.336-0.838-3.417-1.345&#xD;&#xA;&#x9;C2.791,186.649,2.287,186.896,2.528,187.009L2.528,187.009z M1.848,192.085c3.214,1.333,6.54,2.445,9.431,4.43&#xD;&#xA;&#x9;c1.204,0.826,2.302,1.528,3.758,1.788c1.453,0.259,3.066,0.021,4.501-0.227c1.854-0.317,8.625-1.934,7.202-4.918&#xD;&#xA;&#x9;c-0.099-0.202-0.638-0.03-0.553,0.147c1.45,3.04-6.173,4.432-8.027,4.655c-1.633,0.197-3.253,0.128-4.743-0.616&#xD;&#xA;&#x9;c-1.181-0.591-2.216-1.484-3.36-2.146c-2.449-1.414-5.171-2.312-7.774-3.392C2.108,191.734,1.607,191.985,1.848,192.085&#xD;&#xA;&#x9;L1.848,192.085z M11.08,190.448c2.347,0.183,5.505-0.213,7.085-2.17c0.162-0.2-0.397-0.17-0.516-0.022&#xD;&#xA;&#x9;c-1.401,1.735-4.292,2.021-6.359,1.86C11.066,190.099,10.708,190.418,11.08,190.448L11.08,190.448z M17.964,188.518&#xD;&#xA;&#x9;c0.932-1.322,0.388-3.813-1.354-3.999c-2.536-0.268-5.478,1.026-7.625,2.216c-0.077,0.043-0.129,0.12-0.081,0.201&#xD;&#xA;&#x9;c0.661,1.121,1.502,2.113,1.991,3.331c0.082,0.206,0.627,0.042,0.551-0.146c-0.335-0.835-0.808-1.553-1.319-2.291&#xD;&#xA;&#x9;c-0.541-0.778-0.52-1.085,0.426-1.549c0.679-0.333,1.39-0.592,2.108-0.819c1.088-0.345,3.641-1.13,4.64-0.229&#xD;&#xA;&#x9;c0.695,0.628,0.635,2.57,0.147,3.264C17.295,188.711,17.854,188.674,17.964,188.518L17.964,188.518z"/>
    <path id="Irises_2_" fill="none" stroke="#010101" stroke-width="0.75" d="M23.9,24.008c0.188,0.669-0.202,1.364-0.872,1.552&#xD;&#xA;&#x9;c-0.669,0.188-1.362-0.203-1.549-0.873c-0.188-0.669,0.203-1.363,0.873-1.551C23.018,22.949,23.712,23.339,23.9,24.008z&#xD;&#xA;&#x9; M34.682,19.627c-0.575,0.122-0.939,0.688-0.816,1.263c0.122,0.574,0.688,0.94,1.262,0.817c0.574-0.123,0.94-0.688,0.817-1.263&#xD;&#xA;&#x9;C35.822,19.87,35.257,19.504,34.682,19.627z"/>
    <path id="Hair_2_" fill="#010101" d="M12.982,51.638c-2.564-0.854-5.039-1.758-5.828-4.61c-0.031-0.11-0.352,0.008-0.395,0.066&#xD;&#xA;&#x9;c-0.795,1.079-0.756,2.316-0.186,3.498c0.275,0.569,0.757,1.002,1.315,1.277c-0.211-0.104,0.834,0.017-0.055-0.24&#xD;&#xA;&#x9;c-0.408-0.118-0.755-0.438-1.088-0.686c-1.65-1.227-3.148-2.428-4.238-4.212c-1.224-2.003-0.755-3.936-0.644-6.132&#xD;&#xA;&#x9;c0.004-0.077-0.406-0.021-0.413,0.111c-0.073,1.435-0.413,2.728-0.143,4.162c0.213,1.134,0.848,2.152,1.527,3.062&#xD;&#xA;&#x9;c1.202,1.61,3.319,3.606,5.353,4.034c0.089,0.019,0.482-0.124,0.337-0.171c-1.9-0.606-2.521-3.188-1.388-4.725&#xD;&#xA;&#x9;c-0.131,0.021-0.263,0.044-0.395,0.065c0.797,2.88,3.311,3.807,5.904,4.67C12.746,51.842,13.118,51.683,12.982,51.638L12.982,51.638&#xD;&#xA;&#x9;z M10.124,27.579c1.398,1.484,3.544,1.758,5.489,1.663c0.03-0.001,0.381-0.118,0.281-0.165c-3.092-1.471-4.43-4.86-4.293-8.137&#xD;&#xA;&#x9;c0.071-1.708,0.705-3.614,1.605-5.062c0.546-0.879,0.122-1.877-0.382-2.717c-0.067-0.112-0.456,0.04-0.413,0.11&#xD;&#xA;&#x9;c0.272,0.453,0.429,0.952,0.58,1.456c0.212,0.71-0.132,1.083-0.464,1.672c-0.864,1.532-1.286,3.388-1.358,5.131&#xD;&#xA;&#x9;c-0.129,3.104,1.495,6.34,4.339,7.692c0.094-0.055,0.188-0.11,0.281-0.165c-1.881,0.091-3.925-0.192-5.274-1.626&#xD;&#xA;&#x9;C10.432,27.349,10.046,27.497,10.124,27.579L10.124,27.579z M39.968,31.36c3.01-3.277,2.609-8.965,1.895-12.987&#xD;&#xA;&#x9;c-1.059-5.938-4.092-12.107-9.188-15.563C27.307-0.831,20.27-0.452,14.303,1.244c-1.656,0.47-3.246,1.141-4.773,1.93&#xD;&#xA;&#x9;c-1.027,0.531-2.104,0.963-2.975,1.74c-0.406,0.362-0.62,0.851-0.749,1.365C5.626,6.994,5.478,7.02,4.792,7.31&#xD;&#xA;&#x9;c-0.949,0.4-1.613,1.306-2.38,1.957c-0.1,0.084,0.297,0.047,0.377-0.021c1.082-0.918,1.779-1.758,3.202-2.2&#xD;&#xA;&#x9;c0.057-0.018,0.187-0.051,0.187-0.13c-0.008-1.6,1.006-2.365,2.334-3.043c1.303-0.665,2.609-1.321,3.971-1.856&#xD;&#xA;&#x9;c3.315-1.302,6.988-1.91,10.542-1.825c5.604,0.133,10.404,2.694,13.74,7.147c2.857,3.815,4.463,8.57,4.994,13.275&#xD;&#xA;&#x9;c0.39,3.45,0.338,8.036-2.168,10.767C39.496,31.486,39.896,31.439,39.968,31.36L39.968,31.36z M1.862,40.621&#xD;&#xA;&#x9;c0.393-2.68,1.107-5.302,1.353-8.003c0.236-2.605-0.247-5.39-0.436-8.002c-0.374-5.165-3.34-10.606,0.01-15.37&#xD;&#xA;&#x9;c0.088-0.125-0.316-0.065-0.377,0.021c-3.063,4.355-0.896,8.988-0.227,13.706c0.378,2.67,0.594,5.537,0.67,8.227&#xD;&#xA;&#x9;c0.09,3.201-0.942,6.348-1.402,9.488C1.435,40.808,1.846,40.731,1.862,40.621L1.862,40.621z M41.179,44.61&#xD;&#xA;&#x9;c1.106-0.977,1.271-3.568,0.289-4.675c-0.129,0.049-0.258,0.098-0.387,0.146c1.193,0.755,2.137,1.544,2.616,2.921&#xD;&#xA;&#x9;c0.04,0.113,0.378-0.005,0.41-0.089c0.523-1.312,0.602-2.184-0.03-3.489c-0.511-1.055-1.368-1.951-2.081-2.867&#xD;&#xA;&#x9;c-1.218-1.564-1.479-3.473-2.016-5.344c-0.029-0.108-0.442,0.006-0.413,0.111c0.45,1.575,0.67,3.412,1.607,4.796&#xD;&#xA;&#x9;c0.636,0.938,1.411,1.771,2.059,2.701c0.965,1.382,1.083,2.609,0.467,4.159c0.137-0.03,0.272-0.06,0.409-0.09&#xD;&#xA;&#x9;c-0.485-1.397-1.417-2.182-2.643-2.956c-0.08-0.052-0.473,0.05-0.387,0.146c0.957,1.08,0.782,3.611-0.279,4.55&#xD;&#xA;&#x9;C40.704,44.72,41.101,44.681,41.179,44.61L41.179,44.61z"/>
    <path id="Eyes_1_" fill="#010101" d="M24.701,24.862c-1.205,1.315-3.171,2.53-4.979,1.915c-0.539-0.183-3.254-2.264-2.106-2.739&#xD;&#xA;&#x9;c2.21-0.917,5.598-1.413,7.083,0.93c0.092,0.145,0.628-0.029,0.514-0.21c-1.735-2.737-5.887-1.801-8.336-0.699&#xD;&#xA;&#x9;c-0.055,0.025-0.197,0.091-0.169,0.178c0.591,1.844,2.232,3.063,4.167,3.072c1.543,0.007,3.354-1.372,4.336-2.445&#xD;&#xA;&#x9;C25.363,24.697,24.813,24.739,24.701,24.862L24.701,24.862z M30.947,23.495c1.245,0.39,3.256,0.565,4.368-0.281&#xD;&#xA;&#x9;c0.716-0.543,1.145-1.257,1.374-2.118c0.126-0.471,0.314-1.669-0.312-1.831c-2.484-0.643-5.467,1.688-5.484,4.177&#xD;&#xA;&#x9;c-0.002,0.154,0.55,0.057,0.551-0.148c0.017-2.125,1.971-3.69,4.01-3.807c0.527-0.029,0.688,0.076,0.765,0.611&#xD;&#xA;&#x9;c0.1,0.711-0.137,1.458-0.465,2.077c-0.81,1.522-2.904,1.521-4.363,1.064C31.23,23.19,30.732,23.428,30.947,23.495L30.947,23.495z&#xD;&#xA;&#x9; M17.583,24.18c0.077-0.076,0.159-0.147,0.245-0.212c0.251-0.203-0.287-0.161-0.387-0.11c-0.236,0.118-0.439,0.245-0.614,0.444&#xD;&#xA;&#x9;c-0.138,0.156,0.229,0.145,0.289,0.128c0.38-0.106,0.758-0.231,1.041-0.519c0.22-0.223-0.274-0.186-0.387-0.11&#xD;&#xA;&#x9;c-0.324,0.215-0.628,0.467-0.65,0.88c-0.013,0.238,0.451,0.046,0.53-0.037c0.178-0.188,0.292-0.374,0.341-0.629&#xD;&#xA;&#x9;c0.041-0.216-0.462-0.063-0.53,0.037c-0.217,0.322-0.268,0.656-0.193,1.034c0.184-0.05,0.367-0.099,0.551-0.148&#xD;&#xA;&#x9;c-0.088-0.277-0.139-0.562-0.256-0.829c-0.076-0.175-0.57-0.041-0.551,0.147c0.083,0.813,0.511,1.343,1.024,1.943&#xD;&#xA;&#x9;c0.171-0.07,0.342-0.141,0.513-0.21c-0.33-0.288-0.439-0.702-0.455-1.126c-0.017-0.447,0.194-1.252,0.767-1.205&#xD;&#xA;&#x9;c0.16,0.014,0.645-0.26,0.341-0.284c-0.671-0.056-1.235,0.224-1.52,0.846c-0.284,0.619-0.171,1.521,0.354,1.979&#xD;&#xA;&#x9;c0.125,0.109,0.65-0.05,0.513-0.21c-0.497-0.581-0.906-1.097-0.986-1.881c-0.184,0.05-0.367,0.099-0.551,0.148&#xD;&#xA;&#x9;c0.116,0.267,0.168,0.552,0.256,0.829c0.056,0.179,0.587,0.036,0.551-0.147c-0.065-0.329-0.037-0.604,0.152-0.886&#xD;&#xA;&#x9;c-0.177,0.013-0.354,0.024-0.53,0.037c-0.043,0.227-0.146,0.389-0.301,0.553c0.176-0.013,0.354-0.024,0.53-0.037&#xD;&#xA;&#x9;c0.017-0.308,0.189-0.494,0.438-0.659c-0.129-0.037-0.259-0.074-0.387-0.111c-0.188,0.191-0.419,0.27-0.671,0.34&#xD;&#xA;&#x9;c0.096,0.043,0.193,0.085,0.289,0.128c0.126-0.144,0.276-0.218,0.44-0.3c-0.129-0.037-0.258-0.074-0.387-0.111&#xD;&#xA;&#x9;c-0.087,0.065-0.168,0.136-0.246,0.212C16.913,24.317,17.459,24.293,17.583,24.18L17.583,24.18z M36.007,20.085&#xD;&#xA;&#x9;c0.163,0.315,0.139,0.616,0.139,0.962c0.185-0.049,0.367-0.099,0.552-0.148c-0.103-0.481-0.132-0.879-0.531-1.21&#xD;&#xA;&#x9;c-0.16,0.078-0.318,0.155-0.479,0.233c0.051,0.02,0.103,0.039,0.151,0.059c0.112,0.043,0.64-0.124,0.478-0.233&#xD;&#xA;&#x9;c-0.489-0.333-0.959-0.476-1.551-0.427c-0.183,0.015-0.494,0.281-0.149,0.29c0.469,0.012,0.883,0.166,1.306,0.356&#xD;&#xA;&#x9;c0.14,0.063,0.664-0.121,0.441-0.257c-0.697-0.421-1.378-0.549-2.149-0.253c-0.361,0.139-0.028,0.299,0.213,0.207&#xD;&#xA;&#x9;c0.542-0.208,1.031,0.022,1.495,0.303c0.146-0.085,0.294-0.171,0.441-0.256c-0.497-0.225-0.979-0.382-1.528-0.396&#xD;&#xA;&#x9;c-0.049,0.097-0.101,0.193-0.148,0.29c0.424-0.035,0.774,0.119,1.117,0.353c0.16-0.078,0.318-0.155,0.479-0.233&#xD;&#xA;&#x9;c-0.052-0.02-0.103-0.039-0.151-0.059c-0.104-0.04-0.642,0.098-0.478,0.233c0.381,0.314,0.397,0.695,0.493,1.147&#xD;&#xA;&#x9;c0.039,0.187,0.552,0.035,0.552-0.147c0.001-0.345,0.024-0.646-0.138-0.962C36.467,19.758,35.933,19.94,36.007,20.085L36.007,20.085&#xD;&#xA;&#x9;z"/>
    <path id="Shirt_2_" fill="#010101" d="M47.81,90.795c-1.284-0.027-1.997,1.003-2.881,1.796c-1.376,1.236-2.891,2.461-4.495,3.387&#xD;&#xA;&#x9;c-3.05,1.76-6.954,2.2-10.414,2.474c-3.534,0.279-7.164,0.301-10.667-0.291c-1.37-0.231-2.763-0.594-3.956-1.328&#xD;&#xA;&#x9;c-0.463-0.284-0.853-0.668-1.13-1.136c-0.527-0.892,0.575-2.193,1.054-2.934c0.033-0.05-0.457-0.031-0.542,0.101&#xD;&#xA;&#x9;c-0.36,0.556-1.415,1.846-1.252,2.518c0.111,0.458,0.416,0.839,0.741,1.164c0.908,0.908,2.316,1.299,3.525,1.596&#xD;&#xA;&#x9;c3.473,0.853,7.216,0.789,10.761,0.601c3.196-0.17,6.399-0.597,9.459-1.569c1.45-0.461,2.813-1.076,4.055-1.963&#xD;&#xA;&#x9;c0.819-0.585,1.601-1.22,2.377-1.857c0.675-0.554,2.089-2.361,3.007-2.342C47.56,91.012,48.078,90.801,47.81,90.795L47.81,90.795z&#xD;&#xA;&#x9; M41.014,65.655c0.108,0,0.626-0.214,0.36-0.214C41.265,65.441,40.749,65.655,41.014,65.655L41.014,65.655z M47.202,87.14&#xD;&#xA;&#x9;c-0.885-2.288-1.745-4.584-2.643-6.866c-0.049-0.123-0.588,0.053-0.551,0.147c0.896,2.283,1.757,4.579,2.641,6.866&#xD;&#xA;&#x9;C46.699,87.41,47.238,87.234,47.202,87.14L47.202,87.14z M47.475,93.061c0.427-1.166,1.189-2.193,1.645-3.354&#xD;&#xA;&#x9;c0.506-1.291-1.166-2.054-2.017-2.685c-0.119-0.089-0.589,0.133-0.521,0.184c0.997,0.739,2.474,1.378,1.915,2.806&#xD;&#xA;&#x9;c-0.429,1.093-1.162,2.051-1.564,3.15C46.9,93.25,47.425,93.196,47.475,93.061L47.475,93.061z M48.312,56.588&#xD;&#xA;&#x9;c-2.444-2.846-3.922-6.179-5.338-9.601c-0.582-1.409-1.428-2.473-2.89-2.958c-1.628-0.541-3.38-0.756-5.087-0.608&#xD;&#xA;&#x9;c-0.137,0.012-0.604,0.24-0.242,0.208c1.846-0.158,3.799,0.146,5.521,0.841c1.661,0.67,2.232,2.919,2.826,4.42&#xD;&#xA;&#x9;c1.11,2.806,2.714,5.585,4.688,7.882C47.876,56.87,48.388,56.676,48.312,56.588L48.312,56.588z M15.005,93.249&#xD;&#xA;&#x9;c0.427-0.39,0.634-0.831,0.76-1.395c0.042-0.188-0.005-0.296-0.058-0.469c-0.145-0.478,0.156-0.769,0.554-0.958&#xD;&#xA;&#x9;c1.007-0.478-0.048-1.527-0.046-2.289c0-0.077-0.551-0.003-0.551,0.147c-0.001,0.519,0.259,0.895,0.454,1.358&#xD;&#xA;&#x9;c0.241,0.572-0.429,0.793-0.808,0.99c-0.266,0.139-0.26,0.439-0.228,0.69c0.052,0.405,0.195,0.388,0.084,0.881&#xD;&#xA;&#x9;c-0.098,0.438-0.328,0.79-0.658,1.092C14.398,93.398,14.911,93.335,15.005,93.249L15.005,93.249z M41.397,65.578&#xD;&#xA;&#x9;c-0.288-1.063,0.018-1.928,0.371-2.93c0.358-1.011,0.46-2.022,0.319-3.085c-0.146-1.091-0.8-2.121-1.437-2.986&#xD;&#xA;&#x9;c-0.436-0.593-1.243-1.311-1.465-2.018c-0.037-0.118-0.585,0.04-0.551,0.147c0.188,0.601,0.807,1.136,1.176,1.624&#xD;&#xA;&#x9;c0.691,0.916,1.256,1.83,1.615,2.926c0.754,2.294-1.181,4.264-0.581,6.469C40.876,65.84,41.428,65.691,41.397,65.578L41.397,65.578z&#xD;&#xA;&#x9; M30.042,43.276c1.465,0.648,3.231,0.684,4.781,0.343c0.209-0.046,0.491-0.273,0.105-0.189c-1.415,0.312-3.03,0.255-4.366-0.337&#xD;&#xA;&#x9;C30.417,43.028,29.997,43.256,30.042,43.276L30.042,43.276z M22.349,49.466c1.499,2.478,4.632,4.131,7.535,3.435&#xD;&#xA;&#x9;c4.16-0.996,4.58-5.598,4.131-9.179c-0.012-0.097-0.566,0.013-0.551,0.147c0.396,3.166,0.227,8.113-3.744,8.898&#xD;&#xA;&#x9;c-2.645,0.522-5.492-1.256-6.82-3.449C22.822,49.189,22.31,49.402,22.349,49.466L22.349,49.466z M2.961,60.908&#xD;&#xA;&#x9;c0.834-1.634,1.228-3.473,1.581-5.261c0.366-1.853,0.276-3.831,0.861-5.622c0.031-0.095-0.499-0.034-0.542,0.101&#xD;&#xA;&#x9;c-0.515,1.579-0.449,3.261-0.727,4.891c-0.345,2.024-0.775,4.151-1.715,5.993C2.383,61.077,2.891,61.044,2.961,60.908L2.961,60.908z&#xD;&#xA;&#x9; M2.415,61.033c1.447,2.728,5.046,5.423,7.892,3.056c0.11-0.092-0.399-0.032-0.497,0.05c-2.438,2.027-5.72-1.135-6.844-3.253&#xD;&#xA;&#x9;C2.897,60.756,2.375,60.959,2.415,61.033L2.415,61.033z M41.725,61.919c2.739-0.366,6.615-2.072,6.604-5.313&#xD;&#xA;&#x9;c0-0.079-0.553-0.002-0.552,0.148c0.012,2.908-3.295,4.62-5.809,4.957C41.835,61.728,41.367,61.968,41.725,61.919L41.725,61.919z&#xD;&#xA;&#x9; M42.234,72.008c-0.387-2.338-0.366-4.712-0.967-7.015c-0.03-0.113-0.582,0.032-0.552,0.148c0.601,2.303,0.581,4.676,0.967,7.014&#xD;&#xA;&#x9;C41.699,72.258,42.255,72.137,42.234,72.008L42.234,72.008z"/>
    <path id="Right_Arm_1_" fill="#010101" d="M16.375,82.483c-1.716,0.14-3.667-0.087-4.985-1.323c-0.289-0.271-0.385-0.622-0.349-1.01&#xD;&#xA;&#x9;c0.076-0.808,1.507-0.197,1.779-0.099c0.542,0.194,1.067,0.441,1.639,0.532c2.259,0.356,6.481-1.28,7.809,1.347&#xD;&#xA;&#x9;c0.101,0.194,0.636,0.019,0.552-0.148c-0.831-1.643-2.987-1.651-4.59-1.631c-1.016,0.013-2.027,0.118-3.043,0.131&#xD;&#xA;&#x9;c-1.106,0.015-2.101-0.659-3.175-0.867c-1.308-0.254-1.961,0.962-1.131,1.963c1.19,1.436,3.768,1.555,5.423,1.421&#xD;&#xA;&#x9;C16.577,82.777,16.755,82.452,16.375,82.483L16.375,82.483z M10.056,82.207c1.747,0.853,4.165,1.2,6.035,0.578&#xD;&#xA;&#x9;c0.322-0.107,0.251-0.396-0.077-0.287c-1.703,0.566-3.929,0.213-5.521-0.563C10.326,81.854,9.821,82.093,10.056,82.207&#xD;&#xA;&#x9;L10.056,82.207z M10.765,82.14c-0.521-1.57-1.388-2.898-2.41-4.188c-0.122-0.153-0.652,0.041-0.511,0.22&#xD;&#xA;&#x9;c1.003,1.266,1.857,2.573,2.369,4.115C10.28,82.487,10.828,82.332,10.765,82.14L10.765,82.14z M9.399,86.415&#xD;&#xA;&#x9;c1.681,0.889,3.475,1.87,5.406,2.021c0.217,0.018,0.584-0.292,0.211-0.321c-1.842-0.146-3.577-1.125-5.181-1.973&#xD;&#xA;&#x9;C9.672,86.056,9.167,86.292,9.399,86.415L9.399,86.415z M14.875,88.37c4.351-0.731,8.699-1.913,12.929-3.158&#xD;&#xA;&#x9;c0.327-0.097,0.254-0.385-0.078-0.287c-4.18,1.231-8.479,2.407-12.779,3.13C14.681,88.1,14.495,88.435,14.875,88.37L14.875,88.37z&#xD;&#xA;&#x9; M43.936,72.544c-3.359-1.31-6.401,0.493-9.307,2.094c-4.121,2.271-8.2,4.621-12.414,6.72c-0.342,0.17-0.028,0.361,0.22,0.237&#xD;&#xA;&#x9;c3.051-1.52,6.033-3.168,9.01-4.823c1.599-0.889,3.193-1.779,4.798-2.656c2.278-1.247,4.675-2.306,7.257-1.299&#xD;&#xA;&#x9;C43.669,72.883,44.171,72.636,43.936,72.544L43.936,72.544z M27.804,85.212c4.322-1.229,8.682-2.321,12.99-3.599&#xD;&#xA;&#x9;c3.1-0.919,6.962-2.129,8.717-5.083c0.137-0.229-0.419-0.178-0.515-0.017c-1.846,3.105-6.085,4.191-9.326,5.117&#xD;&#xA;&#x9;c-3.972,1.136-7.972,2.165-11.943,3.294C27.398,85.019,27.472,85.306,27.804,85.212L27.804,85.212z M49.531,76.489&#xD;&#xA;&#x9;c0.41-5.666-1.334-11.017-2.771-16.421c-0.053-0.199-0.604-0.052-0.551,0.148c1.428,5.377,3.178,10.699,2.768,16.339&#xD;&#xA;&#x9;C48.961,76.787,49.516,76.681,49.531,76.489L49.531,76.489z M8.318,77.926C7.214,77.474,6.848,78.227,7,79.239&#xD;&#xA;&#x9;c0.361,2.435,1.498,4.986,2.388,7.245c0.079,0.199,0.624,0.035,0.551-0.148c-0.676-1.717-1.214-3.47-1.811-5.213&#xD;&#xA;&#x9;c-0.108-0.317-1.02-3.242-0.246-2.925C8.051,78.268,8.553,78.023,8.318,77.926L8.318,77.926z"/>
    <path id="Left_Arm_1_" fill="#010101" d="M8.955,76.109c-0.749-1.626-1.126-3.147-0.577-4.895c0.463-1.475,1.073-2.885,1.491-4.379&#xD;&#xA;&#x9;c1.198-4.283,2.092-8.654,3.111-12.982c0.035-0.149-0.511-0.063-0.546,0.089c-1.02,4.33-1.938,8.69-3.111,12.982&#xD;&#xA;&#x9;c-0.41,1.498-0.979,2.917-1.492,4.379c-0.603,1.723-0.169,3.343,0.573,4.954C8.475,76.41,9.009,76.227,8.955,76.109L8.955,76.109z&#xD;&#xA;&#x9; M15.56,80.304c1.814-2.707,1.939-6.789,2.2-9.938c0.406-4.904-0.382-9.81,0.03-14.719c0.009-0.103-0.536-0.033-0.551,0.147&#xD;&#xA;&#x9;c-0.404,4.817,0.341,9.625-0.008,14.438c-0.136,1.876-0.369,3.747-0.706,5.597c-0.281,1.544-0.624,3.238-1.511,4.562&#xD;&#xA;&#x9;C14.959,80.476,15.466,80.444,15.56,80.304L15.56,80.304z M3.885,63.218C4.55,69.785,4.34,76.169,7.824,82.05&#xD;&#xA;&#x9;c0.09,0.152,0.609-0.05,0.551-0.147C4.891,76.022,5.1,69.638,4.436,63.07C4.424,62.94,3.868,63.051,3.885,63.218L3.885,63.218z&#xD;&#xA;&#x9; M12.833,53.871c0.051-1.441,0.44-2.837,0.493-4.277c0.059-1.593-0.145-3.162,0.265-4.728c0.039-0.146-0.506-0.063-0.545,0.089&#xD;&#xA;&#x9;c-0.371,1.413-0.282,2.855-0.267,4.303c0.016,1.609-0.44,3.159-0.497,4.762C12.278,54.129,12.827,54.05,12.833,53.871L12.833,53.871&#xD;&#xA;&#x9;z M18.222,43.782c1.799-1.922,3.671-4.062,3.477-6.868c-0.01-0.147-0.438,0.02-0.49,0.055c-1.37,0.948-2.375,2.26-3.483,3.485&#xD;&#xA;&#x9;c-1.46,1.613-2.973,3.126-4.717,4.438c-0.232,0.175,0.321,0.119,0.428,0.038c1.379-1.036,2.634-2.188,3.823-3.438&#xD;&#xA;&#x9;c1.432-1.505,2.655-3.291,4.377-4.483c-0.163,0.018-0.327,0.036-0.49,0.054c0.191,2.763-1.66,4.855-3.429,6.746&#xD;&#xA;&#x9;C17.588,43.948,18.125,43.888,18.222,43.782L18.222,43.782z M17.427,55.803c2.962-1.363,3.063-4.165,4.269-6.843&#xD;&#xA;&#x9;c0.052-0.116-0.478-0.063-0.546,0.089c-1.143,2.539-1.2,5.344-4.048,6.653C16.769,55.856,17.282,55.869,17.427,55.803L17.427,55.803&#xD;&#xA;&#x9;z M20.451,52.151c0.834-0.083,1.359-0.832,1.79-1.478c0.735-1.103,1.37-2.667,0.928-3.99c-0.05-0.149-0.597,0.012-0.551,0.147&#xD;&#xA;&#x9;c0.321,0.966,0.032,1.961-0.349,2.865c-0.209,0.494-0.944,2.142-1.586,2.206C20.524,51.918,20.086,52.188,20.451,52.151&#xD;&#xA;&#x9;L20.451,52.151z M18.151,47.231c1.249-1.014,2.945-1.053,4.452-1.422c0.06-0.015,0.313-0.1,0.23-0.199&#xD;&#xA;&#x9;c-0.562-0.686-0.825-1.111-1.745-1.1c-1.445,0.018-2.873,0.615-4.264,0.936c-0.329,0.076-0.27,0.274,0.054,0.203&#xD;&#xA;&#x9;c1.554-0.345,3.085-0.788,4.653-1.069c0.231-0.042,0.479-0.304,0.094-0.234c-0.741,0.133-1.472,0.296-2.203,0.474&#xD;&#xA;&#x9;c-0.432,0.104-0.862,0.215-1.293,0.322c-0.29,0.072-0.579,0.142-0.87,0.208c-0.078,0.288,0.044,0.327,0.367,0.117&#xD;&#xA;&#x9;c1.072-0.273,2.117-0.625,3.229-0.707c0.757-0.056,1.042,0.538,1.458,1.047c0.077-0.066,0.154-0.133,0.231-0.199&#xD;&#xA;&#x9;c-1.648,0.404-3.455,0.474-4.825,1.585C17.495,47.376,18.046,47.316,18.151,47.231L18.151,47.231z M20.102,43.358&#xD;&#xA;&#x9;c-1.246,0.196-2.479,0.457-3.711,0.722c-0.228,0.048-0.477,0.315-0.094,0.234c1.233-0.265,2.466-0.525,3.711-0.722&#xD;&#xA;&#x9;C20.242,43.556,20.488,43.298,20.102,43.358L20.102,43.358z M19.542,48.326c1.09-0.682,2.348-0.994,3.513-1.519&#xD;&#xA;&#x9;c0.051-0.023,0.111-0.063,0.113-0.124c0.009-0.432-0.096-0.742-0.365-1.071c-0.096-0.116-0.62,0.072-0.518,0.196&#xD;&#xA;&#x9;c0.388,0.474,0.479,0.898-0.157,1.152c-0.374,0.149-0.755,0.28-1.132,0.421c-0.658,0.244-1.288,0.534-1.883,0.906&#xD;&#xA;&#x9;C18.872,48.439,19.429,48.397,19.542,48.326L19.542,48.326z M21.988,44.566c-0.444-0.58-1.065-0.958-1.739-1.219&#xD;&#xA;&#x9;c-0.134-0.051-0.635,0.158-0.448,0.23c0.651,0.252,1.242,0.625,1.67,1.185C21.56,44.88,22.088,44.697,21.988,44.566L21.988,44.566z"/>
    <path id="Head_1_" fill="#010101" d="M35.938,20.085c1.034,1.258,2.168,2.421,2.862,3.915c0.783,1.682,0.502,3.655-0.032,5.36&#xD;&#xA;&#x9;c-0.581,1.854-1.704,3.531-2.812,5.103c-1.073,1.523-2.582,3.617-4.33,4.377c-0.355,0.154-0.023,0.272,0.203,0.174&#xD;&#xA;&#x9;c1.397-0.607,2.373-1.802,3.342-2.938c1.424-1.672,2.663-3.505,3.617-5.486c0.887-1.843,1.299-3.94,0.836-5.953&#xD;&#xA;&#x9;c-0.433-1.876-1.996-3.324-3.17-4.753C36.353,19.76,35.826,19.948,35.938,20.085L35.938,20.085z M28.965,39.183&#xD;&#xA;&#x9;c0.798,0.074,1.587,0.099,2.378-0.044c0.238-0.043,0.473-0.321,0.09-0.253c-0.707,0.128-1.407,0.104-2.119,0.036&#xD;&#xA;&#x9;C29.17,38.908,28.671,39.154,28.965,39.183L28.965,39.183z M27.116,34.016c1.927-0.417,3.729-0.415,5.679-0.183&#xD;&#xA;&#x9;c0.143,0.017,0.643-0.226,0.348-0.261c-2.104-0.251-4.011-0.228-6.086,0.223C26.724,33.867,26.791,34.087,27.116,34.016&#xD;&#xA;&#x9;L27.116,34.016z M29.617,39.158c-0.209,1.819-0.117,3.239,0.616,4.923c0.072,0.163,0.609-0.015,0.554-0.148&#xD;&#xA;&#x9;c-0.73-1.669-0.832-3.037-0.623-4.858C30.184,38.894,29.634,39.003,29.617,39.158L29.617,39.158z M35.938,20.085&#xD;&#xA;&#x9;c1.034,1.258,2.168,2.421,2.862,3.915c0.851,1.829,0.462,3.983-0.191,5.804c-0.66,1.841-1.811,3.512-2.958,5.076&#xD;&#xA;&#x9;c-1.113,1.519-2.597,3.295-4.363,4.046c-0.357,0.151-0.023,0.271,0.203,0.174c3.319-1.409,5.805-5.407,7.299-8.51&#xD;&#xA;&#x9;c0.887-1.843,1.299-3.94,0.836-5.953c-0.433-1.876-1.996-3.324-3.17-4.753C36.353,19.76,35.826,19.948,35.938,20.085L35.938,20.085z&#xD;&#xA;&#x9; M15.343,34.008c1.92,2.061,5,3.043,7.61,3.853c2.601,0.807,5.648,1.695,8.39,1.278c0.242-0.037,0.475-0.312,0.09-0.253&#xD;&#xA;&#x9;c-2.854,0.435-6.088-0.636-8.774-1.499c-2.362-0.759-5.067-1.723-6.798-3.581C15.747,33.687,15.229,33.884,15.343,34.008&#xD;&#xA;&#x9;L15.343,34.008z M32.238,27.784c0.026,0.553-0.36,1.056-0.884,1.212c-0.45,0.134-0.901-0.008-1.352,0.023&#xD;&#xA;&#x9;c-0.17,0.013-0.595,0.292-0.228,0.266c0.701-0.05,1.369,0.116,2.039-0.212c0.556-0.272,1.006-0.787,0.975-1.438&#xD;&#xA;&#x9;C32.783,27.5,32.23,27.603,32.238,27.784L32.238,27.784z M29.454,27.975c0.716-0.496,1.509-0.855,2.398-0.775&#xD;&#xA;&#x9;c0.143,0.013,0.642-0.234,0.349-0.261c-1.162-0.104-2.236,0.333-3.181,0.984C28.779,28.091,29.335,28.056,29.454,27.975&#xD;&#xA;&#x9;L29.454,27.975z M15.477,32.303c0.354,2.94-3.427,1.783-4.879,0.801c-0.796-0.539-1.266-1.385-1.522-2.287&#xD;&#xA;&#x9;c-0.297-1.047-0.246-3.026,1.479-2.8c0.144,0.02,0.644-0.222,0.348-0.261c-1.058-0.139-1.938,0.138-2.359,1.18&#xD;&#xA;&#x9;c-0.685,1.692,0.465,3.643,1.83,4.565c1.771,1.198,6.045,1.897,5.655-1.346C16.011,32.01,15.457,32.127,15.477,32.303L15.477,32.303&#xD;&#xA;&#x9;z M16.007,32.289c-0.083-0.588-0.502-0.711-1.03-0.531c-1.157,0.395-2.044,1.746-3.34,0.718c-0.134-0.106-0.633,0.107-0.516,0.201&#xD;&#xA;&#x9;c0.665,0.526,1.433,0.562,2.219,0.307c0.317-0.102,0.587-0.28,0.853-0.477c0.417-0.309,1.141-0.927,1.263-0.07&#xD;&#xA;&#x9;C15.477,32.585,16.032,32.463,16.007,32.289L16.007,32.289z M10.01,30.737c-0.493-1.107,0.876-1.537,1.741-1.26&#xD;&#xA;&#x9;c0.701,0.225,1.328,0.619,2.042,0.817c0.145,0.041,0.64-0.185,0.446-0.238c-1.189-0.332-2.215-1.188-3.496-0.912&#xD;&#xA;&#x9;c-0.802,0.172-1.677,0.858-1.284,1.74C9.531,31.048,10.069,30.869,10.01,30.737L10.01,30.737z M30.021,9.769&#xD;&#xA;&#x9;c4.631,1.12,5.22,6.329,5.928,10.326c0.025,0.15,0.58,0.021,0.551-0.148c-0.721-4.069-1.335-9.281-6.032-10.417&#xD;&#xA;&#x9;C30.322,9.494,29.83,9.723,30.021,9.769L30.021,9.769z M30.466,9.529c-2.591-0.606-5.512,0.849-7.84,1.803&#xD;&#xA;&#x9;c-1.681,0.689-3.351,1.415-5.087,1.956c-1.465,0.456-3.374,0.929-4.666-0.172c-0.129-0.11-0.633,0.101-0.516,0.201&#xD;&#xA;&#x9;c1.905,1.622,5.083,0.303,7.079-0.44c1.762-0.656,3.479-1.43,5.233-2.104c1.621-0.623,3.591-1.416,5.352-1.004&#xD;&#xA;&#x9;C30.167,9.803,30.658,9.574,30.466,9.529L30.466,9.529z M33.358,44.114c-0.814,0.295-1.597-0.014-2.396-0.198&#xD;&#xA;&#x9;c-0.146-0.034-0.636,0.194-0.446,0.238c1.068,0.247,1.975,0.521,3.046,0.134C33.928,44.156,33.585,44.032,33.358,44.114&#xD;&#xA;&#x9;L33.358,44.114z M16.629,22.892c1.038-2.263,4.402-3.954,6.866-3.118c0.145,0.048,0.644-0.173,0.446-0.239&#xD;&#xA;&#x9;c-2.753-0.934-6.685,0.877-7.86,3.441C16.023,23.105,16.557,23.049,16.629,22.892L16.629,22.892z M30.818,17.935&#xD;&#xA;&#x9;c1.144-1.284,3.156-0.987,4.407-0.025c0.138,0.104,0.633-0.111,0.518-0.201c-1.55-1.19-4.07-1.286-5.431,0.242&#xD;&#xA;&#x9;C30.175,18.106,30.718,18.047,30.818,17.935L30.818,17.935z M33.403,30.509c0.276,0.109,0.448,0.343,0.463,0.642&#xD;&#xA;&#x9;c0.006,0.136,0.56,0.035,0.551-0.148c-0.017-0.351-0.25-0.607-0.566-0.732c-0.117-0.046-0.285,0.006-0.388,0.062&#xD;&#xA;&#x9;C33.398,30.365,33.285,30.462,33.403,30.509L33.403,30.509z M26.13,33.832c-0.095-0.152-0.136-0.317-0.117-0.496&#xD;&#xA;&#x9;c0.007-0.064,0.026-0.127,0.047-0.188c0.012-0.027,0.023-0.055,0.037-0.08c0.002-0.005,0.073-0.084,0.026-0.055&#xD;&#xA;&#x9;c0.056-0.034,0.184-0.134,0.059-0.178c-0.114-0.04-0.288-0.001-0.388,0.062c-0.36,0.226-0.435,0.73-0.217,1.082&#xD;&#xA;&#x9;C25.677,34.139,26.197,33.939,26.13,33.832L26.13,33.832z M25.875,33.54c0.9-0.284,1.745-0.716,2.593-1.129&#xD;&#xA;&#x9;c1.465-0.715,3.5-1.966,5.191-1.56c0.146,0.035,0.637-0.193,0.444-0.238c-2.862-0.689-5.719,1.896-8.289,2.706&#xD;&#xA;&#x9;C25.498,33.42,25.552,33.643,25.875,33.54L25.875,33.54z M32.648,32.922c0.41,2.151-1.936,2.338-3.479,1.846&#xD;&#xA;&#x9;c-1.113-0.354-2-1.135-3.101-1.457c-0.146-0.042-0.642,0.183-0.446,0.239c1.058,0.31,2.047,1.062,3.102,1.457&#xD;&#xA;&#x9;c0.744,0.279,1.449,0.394,2.23,0.313c1.383-0.141,2.521-1.091,2.244-2.547C33.169,32.621,32.616,32.753,32.648,32.922L32.648,32.922&#xD;&#xA;&#x9;z M33.199,32.773c-0.158-0.815,0.114-1.553,0.849-1.982c0.319-0.188-0.179-0.205-0.329-0.116c-0.842,0.492-1.26,1.274-1.07,2.246&#xD;&#xA;&#x9;C32.677,33.074,33.232,32.941,33.199,32.773L33.199,32.773z M32.761,34.883c-0.294,1.064-2.221,1.615-3.098,1.104&#xD;&#xA;&#x9;c-0.152-0.088-0.627,0.137-0.518,0.201c1.142,0.664,3.776,0.005,4.161-1.39C33.352,34.64,32.806,34.722,32.761,34.883L32.761,34.883&#xD;&#xA;&#x9;z M18.659,36.475c-0.022,0.752,0.014,1.52-0.087,2.266c-0.088,0.652-0.465,1.192-0.847,1.709c-0.129,0.175,0.416,0.105,0.506-0.017&#xD;&#xA;&#x9;c0.376-0.509,0.726-1.021,0.865-1.647c0.175-0.788,0.091-1.659,0.113-2.458C19.213,36.202,18.665,36.287,18.659,36.475&#xD;&#xA;&#x9;L18.659,36.475z M27.015,33.121c0.236-0.15,0.601-0.128,0.873-0.188c0.684-0.146,1.355-0.36,2.037-0.521&#xD;&#xA;&#x9;c1.058-0.252,2.236-0.299,3.252-0.704c0.361-0.145,0.023-0.265-0.203-0.174c-1.368,0.546-3.08,0.628-4.512,1.011&#xD;&#xA;&#x9;c-0.601,0.16-1.344,0.184-1.88,0.524C26.337,33.225,26.896,33.196,27.015,33.121L27.015,33.121z M29.426,29.685&#xD;&#xA;&#x9;c0.125-0.125,0.255-0.276,0.411-0.362c0.059-0.032,0.18-0.134,0.058-0.178c-0.119-0.042-0.279,0.004-0.388,0.062&#xD;&#xA;&#x9;c-0.225,0.123-0.407,0.314-0.588,0.494c-0.094,0.095,0.081,0.127,0.141,0.125C29.189,29.821,29.333,29.777,29.426,29.685&#xD;&#xA;&#x9;L29.426,29.685z"/>
  </g>
</svg>