<svg version="1.1" width="109" height="128" xmlns="http://www.w3.org/2000/svg" xmlns:xlink="http://www.w3.org/1999/xlink">
  <!-- Exported by Scratch - http://scratch.mit.edu/ -->
  <g id="ID0.8323829737491906" transform="matrix(0.8573749661445618, 0, 0, 0.8573749661445618, 0.8, 0.05)">
    <path id="R_Leg" fill="#FFC93E" stroke="#603813" stroke-width="2" d="M 75.198 146.331 C 75.198 144.274 75.775 141.319 78.967 140.652 C 83.572 139.686 88.841 144.349 90.274 145.721 C 90.168 146.267 91.960 157.283 91.960 158.238 C 91.960 161.467 91.097 161.595 90.762 161.648 C 87.609 162.107 79.206 153.271 75.349 148.130 C 75.296 147.851 75.198 147.230 75.198 146.331 L 75.198 146.331 L 75.198 146.331 Z " transform="matrix(0.7737809419631958, 0, 0, 0.7737809419631958, -4, 0.5)"/>
    <path id="Center_Leg" fill="#FFC93E" stroke="#603813" stroke-width="2" d="M 62.430 161.767 C 60.144 159.287 59.818 152.566 59.818 149.707 C 59.818 148.494 59.880 147.687 59.883 147.662 L 59.887 147.600 C 59.887 147.600 59.880 147.341 59.880 147.246 C 59.880 141.862 64.837 139.993 65.677 139.712 C 68.547 139.747 73.508 141.105 74.692 143.154 C 74.812 143.360 74.924 143.620 74.924 143.953 C 74.924 144.245 74.837 144.599 74.589 145.026 C 74.474 145.222 72.436 150.038 70.712 153.731 L 69.480 157.146 C 68.558 160.130 67.107 163.116 65.528 163.116 C 64.280 163.118 63.267 162.676 62.430 161.767 L 62.430 161.767 L 62.430 161.767 Z " transform="matrix(0.7737809419631958, 0, 0, 0.7737809419631958, -4, 0.5)"/>
    <path id="R_Arm" fill="#FFC93E" stroke="#603813" stroke-width="2" d="M 127.081 122.735 L 124.852 118.802 C 122.411 114.551 119.591 110.659 117.104 107.233 C 113.907 102.820 111.125 98.254 110.204 95.028 C 109.872 93.866 110.032 92.757 110.510 92.144 C 110.556 91.979 111.038 91.716 111.378 91.646 C 115.474 90.761 132.429 100.495 136.659 105.698 C 142.856 113.318 145.334 124.007 143.952 129.391 C 143.385 131.591 142.117 133.150 140.281 133.892 C 135.588 135.788 132.501 132.366 127.081 122.735 L 127.081 122.735 L 127.081 122.735 Z " transform="matrix(0.7737809419631958, 0, 0, 0.7737809419631958, -4, 0.5)"/>
    <path id="Body" fill="#FFC93E" stroke="#603813" stroke-width="2" stroke-linecap="round" stroke-linejoin="round" d="M 60.339 47.617 C 66.358 44.346 60.146 32.030 54.136 20.116 C 50.851 13.602 44.993 2.600 46.897 1.569 C 50.580 -0.427 68.175 20.337 75.308 28.706 L 82.579 36.988 C 82.579 36.988 87.777 43.365 91.755 47.571 C 91.825 47.644 95.586 47.060 98.184 44.901 C 100.302 43.134 100.022 41.157 100.696 36.999 C 101.315 33.179 101.987 26.266 104.037 26.231 C 107.125 26.184 109.155 38.912 109.946 43.627 L 110.383 46.149 C 111.420 51.757 116.830 68.618 117.062 69.333 C 117.136 69.507 117.258 69.733 117.258 69.733 L 117.303 69.824 L 117.365 69.900 C 125.719 80.261 131.932 92.824 131.932 104.594 C 131.932 129.518 110.084 147.063 80.840 147.063 C 75.416 147.063 70.111 146.303 65.072 144.809 L 64.801 144.731 C 64.801 144.731 56.891 144.066 46.772 157.367 C 44.742 160.037 44.923 162.526 42.062 161.760 C 41.108 161.505 40.407 160.804 39.835 159.531 C 38.467 156.495 39.477 149.302 41.149 144.706 L 41.412 143.984 L 40.808 143.506 C 40.660 143.388 24.248 131.429 22.590 114.292 C 21.145 99.354 28.691 90.849 31.822 86.175 L 33.621 83.179 C 35.892 77.654 31.618 69.970 27.846 63.190 C 25.594 59.142 21.959 53.235 22.780 51.847 C 23.691 50.309 26.947 51.946 30.235 53.514 C 32.901 54.788 35.466 56.588 37.247 55.401 C 39.099 54.168 37.884 51.071 36.201 46.784 C 34.618 42.758 31.621 36.398 32.772 33.773 C 33.089 33.051 33.645 32.544 34.472 32.223 C 37.530 31.039 41.902 36.190 45.441 40.219 C 49.758 45.138 54.654 50.712 60.339 47.617 L 60.339 47.617 L 60.339 47.617 Z " transform="matrix(0.7737809419631958, 0, 0, 0.7737809419631958, -4, 0.5)"/>
    <g id="L_Eye">
      <path id="White_1_" fill="#FFFFFF" d="M 65.386 106.419 C 65.386 110.914 69.033 114.559 73.531 114.559 C 78.029 114.559 81.674 110.914 81.674 106.419 C 81.674 101.921 78.028 98.271 73.531 98.271 C 69.032 98.273 65.386 101.921 65.386 106.419 L 65.386 106.419 L 65.386 106.419 Z " transform="matrix(0.7737809419631958, 0, 0, 0.7737809419631958, -4, 0.5)"/>
      <path id="Pupil_1_" fill="#603813" d="M 74.627 100.467 C 76.208 100.467 77.641 101.109 78.678 102.147 C 79.716 103.184 80.358 104.617 80.358 106.198 C 80.358 107.779 79.716 109.212 78.678 110.249 C 77.641 111.287 76.208 111.929 74.627 111.929 C 73.046 111.929 71.613 111.287 70.576 110.249 C 69.538 109.212 68.896 107.779 68.896 106.198 C 68.896 104.617 69.538 103.184 70.576 102.147 C 71.613 101.109 73.046 100.467 74.627 100.467 L 74.627 100.467 Z " transform="matrix(0.7737809419631958, 0, 0, 0.7737809419631958, -4, 0.5)"/>
    </g>
    <g id="R_Eye">
      <path id="White" fill="#FFFFFF" d="M 104.618 106.419 C 104.618 110.914 108.264 114.559 112.764 114.559 C 117.259 114.559 120.907 110.914 120.907 106.419 C 120.907 101.921 117.261 98.271 112.764 98.271 C 108.264 98.273 104.618 101.921 104.618 106.419 L 104.618 106.419 L 104.618 106.419 Z " transform="matrix(0.7737809419631958, 0, 0, 0.7737809419631958, -4, 0.5)"/>
      <path id="Pupil" fill="#603813" d="M 108.127 106.198 C 108.127 109.363 110.691 111.927 113.857 111.927 C 117.021 111.927 119.588 109.365 119.588 106.198 C 119.588 103.035 117.021 100.467 113.857 100.467 C 110.691 100.467 108.127 103.034 108.127 106.198 L 108.127 106.198 L 108.127 106.198 Z " transform="matrix(0.7737809419631958, 0, 0, 0.7737809419631958, -4, 0.5)"/>
    </g>
    <path id="L_Arm" fill="#FFC93E" stroke="#603813" stroke-width="2" d="M 9.154 137.858 C 7.485 136.792 6.523 135.032 6.368 132.762 C 5.991 127.211 10.384 117.158 17.867 110.800 C 22.977 106.458 41.427 99.990 45.291 101.607 C 45.610 101.741 46.038 102.085 46.051 102.259 C 46.412 102.947 46.364 104.064 45.825 105.146 C 44.331 108.150 40.761 112.133 36.809 115.882 C 33.737 118.806 30.256 122.108 27.081 125.845 L 24.169 129.295 C 17.082 137.777 13.417 140.583 9.154 137.858 L 9.154 137.858 L 9.154 137.858 Z " transform="matrix(0.7737809419631958, 0, 0, 0.7737809419631958, -4, 0.5)"/>
    <path id="Mouth" fill="none" stroke="#603813" stroke-width="2" stroke-linecap="round" stroke-linejoin="round" d="M 100.718 132.050 C 100.718 132.050 93.305 132.056 88.114 127.607 " transform="matrix(0.7737809419631958, 0, 0, 0.7737809419631958, -4, 0.5)"/>
  </g>
</svg>