<svg version="1.1" width="97" height="202" xmlns="http://www.w3.org/2000/svg" xmlns:xlink="http://www.w3.org/1999/xlink">
  <!-- Exported by Scratch - http://scratch.mit.edu/ -->
  <g id="ID0.16613082960247993" transform="matrix(0.949999988079071, 0, 0, 0.949999988079071, 0.3, 0)">
    <path id="ShoeRight" fill="#4E3A78" d="M 11.281 188.034 C 11.707 187.231 12.455 187.113 13.313 187.317 C 14.243 187.538 15.121 187.923 15.972 188.380 C 17.108 188.987 18.442 189.180 19.610 189.717 C 20.839 190.285 22.089 190.510 23.401 190.809 C 24.734 191.110 26.182 191.099 27.555 191.104 C 27.975 191.105 29.034 190.751 29.104 191.358 C 29.157 191.817 28.916 192.127 28.648 192.443 C 28.279 192.877 27.872 193.218 27.320 193.407 C 26.465 193.700 25.574 193.870 24.694 194.088 C 23.782 194.314 22.795 194.480 21.928 194.839 C 21.293 195.103 20.684 195.445 20.059 195.729 C 18.818 196.290 17.600 197.114 16.242 197.391 C 14.514 197.743 12.730 197.773 10.999 197.408 C 9.524 197.099 7.915 197.188 6.509 196.583 C 5.675 196.227 4.740 196.066 4.105 195.384 C 3.809 195.071 3.750 194.836 3.642 194.433 C 3.578 194.200 3.438 194.033 3.455 193.781 C 3.475 193.517 3.566 193.318 3.704 193.093 C 4.342 192.069 5.480 191.666 6.550 191.177 C 7.094 190.927 7.715 190.693 8.191 190.327 C 8.333 190.219 8.451 190.073 8.581 189.952 C 8.874 189.677 9.227 189.470 9.568 189.255 C 10.047 188.948 10.558 188.558 10.976 188.176 C 11.172 187.996 11.347 187.788 11.536 187.601 C 11.813 187.326 12.172 187.292 12.484 187.161 " transform="matrix(1, 0, 0, 1, 0.65, 0)"/>
    <path id="ShoeLeft" fill="#4E3A78" d="M 53.400 186.464 C 53.291 186.349 53.050 186.568 53.060 186.772 C 53.068 186.974 52.724 186.801 52.598 186.977 C 52.421 187.221 52.105 187.660 51.971 187.911 C 51.703 188.418 51.458 189.301 50.907 189.442 C 49.223 189.868 49.206 190.035 47.921 189.802 C 46.500 189.544 44.063 189.310 42.625 189.065 C 42.081 188.972 41.280 188.868 40.730 188.818 C 40.264 188.775 39.170 188.623 38.704 188.701 C 38.156 188.797 37.067 188.955 36.648 189.297 C 36.402 189.494 34.596 189.837 34.362 190.056 C 34.211 190.197 33.872 191.792 33.872 191.993 C 34.233 192.045 35.016 193.081 37.601 192.311 C 38.950 191.910 39.790 191.452 41.476 191.732 C 42.450 191.896 43.660 192.337 44.361 192.542 C 44.683 192.635 45.147 192.706 45.459 192.859 C 45.836 193.045 46.341 193.105 46.759 193.234 C 47.101 193.338 47.567 193.540 47.915 193.592 C 48.629 193.698 48.709 193.822 49.417 193.899 C 50.168 193.981 51.076 194.124 51.813 194.251 C 52.775 194.414 53.919 194.407 54.875 194.362 C 55.755 194.320 56.662 194.438 57.504 194.159 C 58.116 193.957 59.069 193.974 59.666 193.717 C 60.364 193.416 61.150 193.233 61.767 192.791 C 62.284 192.423 62.522 192.153 63.006 191.769 C 65.076 190.132 64.015 190.058 63.558 189.862 C 62.061 189.218 59.639 189.070 57.836 188.383 C 57.038 188.079 56.255 187.745 55.464 187.443 C 55.066 187.291 54.721 186.887 54.334 186.711 C 54.073 186.593 53.919 186.578 53.703 186.392 " transform="matrix(1, 0, 0, 1, 0.65, 0)"/>
    <path id="ShoeTrimRight" fill="#BFB3D8" d="M 29.369 191.919 C 29.328 192.223 29.507 192.550 29.610 192.824 C 29.741 193.180 29.651 193.426 29.616 193.785 C 29.601 193.946 29.642 194.119 29.611 194.278 C 29.574 194.466 29.444 194.625 29.369 194.799 C 29.244 195.091 29.162 195.335 28.931 195.569 C 28.617 195.888 27.980 196.001 27.526 196.126 C 26.500 196.406 25.647 196.797 24.704 197.245 C 23.370 197.880 22.351 198.872 21.134 199.667 C 20.901 199.823 20.727 200.031 20.484 200.177 C 20.249 200.318 19.976 200.415 19.737 200.547 C 19.120 200.883 18.433 201.068 17.758 201.276 C 17.028 201.501 16.357 201.668 15.589 201.695 C 14.421 201.737 13.249 201.581 12.081 201.587 C 10.039 201.594 8.007 201.296 6.015 200.983 C 5.456 200.895 4.890 200.787 4.332 200.654 C 3.805 200.528 3.537 200.335 3.185 199.940 C 2.463 199.130 2.123 198.272 2.191 197.147 C 2.220 196.643 2.520 196.223 2.665 195.767 C 2.793 195.364 2.998 194.632 3.365 194.399 C 3.469 194.561 3.432 194.739 3.571 194.909 C 3.689 195.056 3.843 195.139 3.942 195.302 C 4.059 195.502 4.044 195.592 4.252 195.736 C 4.407 195.844 4.576 195.917 4.744 195.998 C 5.511 196.363 5.945 196.652 6.819 196.817 C 7.462 196.939 8.389 197 9.006 197.165 C 9.768 197.368 10.497 197.491 11.278 197.585 C 13.073 197.797 14.923 197.801 16.660 197.246 C 18.041 196.805 19.535 196.654 20.722 195.770 C 21.386 195.275 22.038 194.879 22.864 194.693 C 23.305 194.593 23.738 194.486 24.176 194.377 C 24.467 194.304 25.344 194.267 25.456 194.033 C 26.291 193.791 27.284 193.567 28 193.053 C 28.228 192.893 28.401 192.644 28.604 192.455 C 28.835 192.241 29.083 192.101 29.345 191.954 " transform="matrix(1, 0, 0, 1, 0.65, 0)"/>
    <path id="ShoeTrimLeft" fill="#BFB3D8" d="M 64.300 190.289 C 64.776 190.211 64.310 191.223 64.279 191.435 C 64.209 191.908 64.217 192.394 64.217 192.880 C 64.217 193.447 64.114 193.870 63.916 194.402 C 63.739 194.879 63.356 195.162 63.126 195.602 C 62.878 196.077 62.482 196.379 61.953 196.581 C 61.158 196.885 60.316 197.268 59.468 197.384 C 57.545 197.653 55.319 197.568 53.484 196.905 C 52.409 196.517 51.179 196.057 50.048 195.884 C 49.148 195.744 47.774 195.622 46.875 195.703 C 45.576 195.821 44.654 196.050 43.343 196.050 C 42.027 196.050 40.693 196.187 39.381 196.290 C 38.252 196.378 37.164 196.240 36.056 196.065 C 35.618 195.996 35.202 195.906 34.769 195.813 C 34.564 195.770 33.911 195.771 33.738 195.618 C 33.559 195.464 33.679 195.158 33.650 194.948 C 33.601 194.617 33.588 194.351 33.591 194.004 C 33.596 193.480 33.634 192.883 33.864 192.412 C 34.077 191.974 34.802 192.427 35.176 192.517 C 35.869 192.682 36.646 192.371 37.308 192.196 C 38.577 191.860 40.083 191.408 41.387 191.735 C 42.466 192.006 43.345 192.331 44.446 192.590 C 44.992 192.718 45.724 192.950 46.249 193.130 C 46.708 193.284 47.395 193.179 47.777 193.484 C 47.903 193.433 48.340 193.611 48.539 193.646 C 48.776 193.687 48.978 193.833 49.217 193.862 C 50.507 194.017 51.754 194.270 53.043 194.392 C 54.187 194.498 55.443 194.390 56.731 194.309 C 57.665 194.249 58.609 194.072 59.499 193.814 C 60.209 193.607 60.932 193.173 61.588 192.828 C 62.106 192.558 62.654 192.207 63.106 191.830 C 63.331 191.643 63.477 191.405 63.665 191.182 C 63.819 190.994 64.252 190.359 64.419 190.342 " transform="matrix(1, 0, 0, 1, 0.65, 0)"/>
    <path id="Pants" fill="#A17456" d="M 49.939 97.728 C 50.076 99.013 50.105 100.224 50.508 101.511 C 50.925 102.834 51.368 104.168 51.516 105.547 C 51.745 107.673 52.002 110.108 51.892 112.259 C 51.766 114.704 51.704 117.133 51.437 119.559 C 51.163 122.014 50.381 124.394 49.921 126.841 C 49.387 129.683 48.775 132.470 48.323 135.318 C 48.122 136.582 47.990 137.857 47.850 139.128 C 47.722 140.300 47.683 141.337 47.199 142.454 C 46.494 144.081 45.030 144.798 43.613 145.698 C 42.527 146.390 41.523 147.321 40.479 148.094 C 38.818 149.324 36.975 150.071 35.005 150.698 C 32.776 151.410 30.423 151.752 28.151 152.295 C 25.802 152.857 23.483 153.250 21.083 153.518 C 18.529 153.801 15.987 154.241 13.411 154.236 C 12.492 154.235 11.643 153.940 10.841 153.869 C 10.797 152.825 10.834 151.697 10.833 150.691 C 10.878 150.184 10.716 149.708 10.640 149.218 C 10.487 148.242 9.911 147.663 9.911 146.517 C 9.911 145.420 10.378 144.186 10.378 143.052 C 10.378 142.547 10.378 141.939 10.378 141.386 C 10.378 141.394 10.378 141.401 10.378 141.407 C 10.378 139.822 11.021 138.177 11.393 136.636 C 11.650 135.574 11.334 134.265 11.616 133.184 C 11.876 132.185 12.361 131.323 12.527 130.316 C 12.707 129.214 13.228 126.604 13.228 125.486 C 13.228 123.008 13.644 123.201 14.267 120.603 C 14.558 119.390 14.672 118.112 14.795 116.891 C 14.905 115.779 15.132 114.693 15.280 113.567 C 15.350 113.028 15.550 112.457 15.738 111.938 C 15.947 111.359 15.986 110.881 16.128 110.309 C 16.259 109.775 16.504 109.387 16.555 108.809 C 16.607 108.234 16.710 107.787 16.879 107.246 C 17.263 106.025 17.587 104.832 17.871 103.595 C 18.152 102.368 18.083 100.783 18.590 99.640 C 19.178 98.318 19.082 96.806 19.910 95.519 C 20.557 94.510 21.158 94.299 22.109 94.949 C 22.449 94.847 23.861 95.720 24.258 95.970 C 24.910 96.376 25.818 96.781 26.550 97.018 C 28.319 97.589 30.685 98.729 32.477 98.975 C 32.481 98.981 32.373 98.910 32.363 98.904 C 32.820 98.970 35.370 99.491 35.859 99.491 C 38.269 99.491 39.136 99.540 41.602 99.220 C 43.268 99.004 44.848 98.772 46.464 98.404 C 47.105 98.259 49.262 97.184 49.738 97.672 M 9.305 151.113 C 9.368 150.823 9.852 149.546 9.580 149.467 C 9.948 149.022 9.656 148.728 9.726 148.130 C 9.914 146.509 15.040 147.962 16.853 147.347 C 19.402 146.480 22.094 146.183 24.741 145.752 C 27.478 145.311 30.206 144.779 32.892 144.081 C 35.966 143.281 39.105 142.359 41.868 140.754 C 43.639 139.726 45.106 138.341 46.725 137.109 C 47.063 136.852 47.954 135.791 48.464 136.135 C 48.773 136.343 48.415 138.334 48.409 138.531 C 48.326 140.871 47.894 143.042 48.221 145.352 C 48.549 147.671 48.110 150.026 48.521 152.349 C 48.618 152.899 48.268 153.651 48.570 154.107 C 48.962 154.699 48.989 155.038 48.953 155.767 C 48.930 156.251 49.346 156.413 49.372 156.846 C 49.407 157.406 49.934 157.691 50.365 158.001 C 50.964 158.433 51.027 158.516 51.063 159.256 C 51.091 159.853 50.596 160.619 50.450 161.226 C 50.248 162.055 49.704 162.875 49.656 163.741 C 49.623 164.313 49.672 164.881 49.810 165.429 C 50.104 166.610 51.082 168.104 51.665 169.143 C 52.395 170.442 52.211 171.337 52.115 172.748 C 52.087 173.153 51.950 173.581 51.918 173.986 C 51.898 174.236 51.957 174.659 52.042 174.781 C 52.422 175.328 52.053 174.949 52.525 175.428 C 53.274 176.186 54.171 177.460 54.458 177.824 C 55.128 178.676 55.234 179.378 55.958 179.713 C 56.678 181.239 56.789 180.141 57.089 181.515 C 57.215 182.095 56.989 182.006 56.719 182.520 C 56.464 183.001 56.572 183.913 56.239 184.345 C 55.971 184.691 55.145 186.630 55.010 187.074 C 54.846 187.618 54.068 185.746 53.136 186.604 C 52.745 186.964 52.875 187.187 52.527 187.589 C 52.148 188.027 51.992 188.595 51.527 188.926 C 51.116 189.221 51.030 189.349 50.523 189.515 C 50.026 189.676 48.903 189.987 48.422 189.940 C 47.077 189.812 46.526 189.576 45.186 189.514 C 43.395 189.428 41.279 188.573 39.442 188.660 C 38.544 188.701 38.164 188.697 37.466 188.995 C 36.898 189.239 35.122 189.571 34.661 189.981 C 34.260 190.337 33.683 189.857 33.214 190.127 C 32.987 190.257 32.567 189.577 32.384 189.766 C 32.320 189.829 31.810 190.384 31.822 190.378 C 31.230 190.703 31.090 190.788 30.450 190.981 C 29.971 191.126 30.143 191.031 29.664 191.002 C 29.141 190.972 28.906 191.190 28.366 191.105 C 27.131 190.913 25.745 191.263 24.512 190.975 C 22.771 190.570 21.213 190.823 20.006 190.023 C 19.373 189.604 17.715 189.202 17.020 188.919 C 16.123 188.555 14.867 188.087 13.971 187.725 C 12.684 187.205 11.999 187.143 11.332 187.871 C 10.644 188.622 10.735 188.944 9.545 189.597 C 8.685 190.071 8.708 190.781 7.830 190.819 C 7.195 191.472 7.172 190.312 6.360 189.268 C 5.359 187.976 4.958 185.378 6.360 184.339 C 6.437 183.453 4.887 181.930 5.434 181.403 C 5.897 180.956 4.317 180.163 5.087 180.144 C 4.473 178.821 3.595 175.126 4.073 174.209 C 4.869 172.687 5.129 172.463 6.728 170.832 C 7.683 169.857 7.787 170.314 7.787 168.835 C 7.787 167.590 7.657 166.416 7.657 165.188 C 7.657 163.972 7.803 162.807 8.448 161.781 C 9.082 160.770 8.999 159.505 9.055 158.317 C 9.122 156.867 8.345 154.930 9.055 153.675 C 9.342 153.169 9.322 152.565 9.055 152.081 " transform="matrix(1, 0, 0, 1, 0.65, 0)"/>
    <path id="PocketTrimRight" fill="#4E3A78" d="M 23.992 101.585 C 23.644 101.605 23.610 101.880 23.499 102.163 C 23.118 103.129 23.216 104.105 22.742 105.058 C 22.295 105.953 22.036 106.907 21.372 107.719 C 20.283 109.056 18.050 111.228 16.318 110.338 C 15.961 110.692 15.471 111.907 15.667 112.443 C 15.876 113.019 17.047 112.859 17.693 112.790 C 19.185 112.630 20.341 112.082 21.607 111.284 C 23.465 110.110 24.305 108.036 25.149 106.144 C 25.635 105.049 25.517 103.936 25.873 102.810 C 26.076 102.170 26.320 102.081 25.516 101.726 C 24.986 101.490 24.458 101.510 23.848 101.510 " transform="matrix(1, 0, 0, 1, 0.65, 0)"/>
    <path id="PocketTrimLeft" fill="#4E3A78" d="M 51.597 107.037 C 51.731 107.663 51.652 108.388 51.652 109.037 C 51.652 109.410 51.618 109.800 51.652 110.172 C 51.677 110.465 51.811 110.786 51.751 111.080 C 50.786 111.060 49.952 109.254 49.612 108.496 C 49.378 107.977 49.160 107.688 48.800 107.254 C 48.439 106.819 48.518 106.333 48.408 105.798 C 48.242 104.987 48.306 104.091 48.180 103.260 C 48.091 102.675 48.029 102.458 48.691 102.300 C 49.047 102.215 49.739 102.106 49.920 102.396 C 50.073 102.635 49.936 103.391 50.013 103.692 C 50.116 104.089 50.238 104.516 50.392 104.880 C 50.577 105.315 50.688 105.463 50.731 105.959 C 50.756 106.254 51.174 107.492 51.487 107.094 " transform="matrix(1, 0, 0, 1, 0.65, 0)"/>
    <path id="SkinFace" fill="#A16235" d="M 34.047 9.418 C 34.597 9.597 35.558 9.971 35.953 10.372 C 36.477 10.904 37.067 11.454 37.578 12.021 C 38.266 12.786 38.503 13.583 38.913 14.496 C 39.282 15.317 39.961 16.358 40.134 17.231 C 40.470 18.924 39.810 20.953 40.685 22.487 C 41.110 23.231 41.587 23.712 41.968 24.494 C 42.229 25.028 42.294 25.572 42.496 26.122 C 42.684 26.631 42.635 27.050 42.642 27.612 C 42.654 28.695 42.523 29.591 42.129 30.591 C 41.688 31.713 41.470 32.731 40.985 33.862 C 40.647 34.650 40.349 35.348 40.078 36.131 C 39.915 36.601 39.653 37.114 39.342 37.475 C 39.188 37.655 39.046 38.084 38.928 38.301 C 38.828 38.485 38.449 38.649 38.339 38.796 C 37.726 39.630 36.305 39.458 35.395 39.537 C 34.709 39.598 33.967 39.450 33.276 39.433 C 32.782 39.419 32.579 39.373 32.144 39.268 C 31.958 39.896 31.764 40.682 31.930 41.368 C 32.101 42.071 32.622 42.302 33.375 42.742 C 33.795 42.989 33.931 43.266 33.836 43.752 C 33.793 43.978 33.711 44.440 33.628 44.648 C 33.358 45.325 32.341 45.942 31.716 46.170 C 29.296 47.055 27.207 45.898 25.018 44.881 C 22.999 43.944 21.390 42.147 20.442 40.097 C 20.195 39.568 20.254 39.606 20.464 39.052 C 20.610 38.681 21.017 38.295 21.147 37.898 C 21.484 36.865 21.245 35.934 21.193 34.864 C 21.140 33.790 21.224 32.583 20.766 31.627 C 20.348 30.754 20.332 30.361 20.058 29.398 C 19.607 29.722 19.272 29.960 18.623 29.907 C 18.130 29.867 17.500 29.285 17.104 28.977 C 16.600 28.585 16.050 28.287 15.646 27.777 C 15.153 27.155 14.793 27.041 14.683 26.240 C 14.573 25.451 14.371 24.378 14.587 23.606 C 14.707 23.183 14.857 22.820 14.946 22.377 C 15.064 21.815 15.233 21.753 15.795 21.584 C 16.641 21.327 17.603 21.498 18.249 22.074 C 18.608 22.393 18.755 22.943 19.091 23.286 C 19.484 23.687 19.590 24.015 20.281 23.902 C 20.253 23.411 20.433 22.918 20.343 22.417 C 20.266 21.982 20.124 21.470 19.864 21.107 C 19.470 20.561 19.216 20.182 18.864 19.626 C 18.586 19.188 18.320 18.997 18.096 18.553 C 17.822 18.004 17.799 17.339 17.606 16.737 C 17.455 16.272 17.542 15.883 17.672 15.416 C 17.958 14.382 18.810 13.695 19.693 12.939 C 19.922 12.606 20.295 12.501 20.642 12.234 C 22.330 10.942 24.199 10.281 26.323 9.962 C 28.139 9.689 30.283 9.643 31.970 10.203 C 32.168 9.851 32.445 9.205 32.785 9.141 C 33.080 9.084 33.825 9.349 34.097 9.416 " transform="matrix(1, 0, 0, 1, 0.65, 0)"/>
    <path id="Hair" fill="#371E10" d="M 36.260 10.684 C 35.399 10.525 34.948 9.907 34.074 9.510 C 33.581 9.288 32.935 8.738 32.513 9.130 C 32.249 9.374 31.948 9.932 31.820 10.257 C 31.115 10.153 30.256 10.003 29.550 9.910 C 28.785 9.808 26.266 9.738 24.906 10.192 C 22.927 10.851 22.951 10.827 21.114 11.888 C 20.300 12.358 19.036 13.333 18.405 14.007 C 17.863 14.585 18.008 14.684 17.673 15.408 C 17.075 16.698 17.703 18.243 18.493 19.397 C 19.296 20.572 20.197 21.596 20.197 23.043 C 20.197 23.222 20.296 23.918 20.197 24.019 C 19.949 24.271 19.563 24.082 19.387 23.883 C 18.977 23.416 18.758 22.757 18.252 22.349 C 18.013 22.155 17.695 21.909 17.408 21.807 C 17.065 21.686 16.662 21.624 16.383 21.451 C 15.869 21.129 15.086 20.150 14.882 19.644 C 14.575 18.880 14.313 18.249 14.112 17.443 C 13.924 16.685 13.955 15.944 13.871 15.144 C 13.779 14.262 13.750 13.587 13.871 12.667 C 13.922 12.271 14.003 11.649 14.101 11.262 C 14.203 10.850 14.047 10.641 14.173 10.253 C 14.444 9.417 14.794 8.291 15.293 7.574 C 15.746 6.922 16.021 6.399 16.568 5.840 C 16.911 5.493 17.297 5.026 17.682 4.728 C 17.987 4.493 18.389 4.118 18.701 3.889 C 19.347 3.415 20.449 2.801 21.202 2.521 C 23.010 1.848 24.640 1.570 26.555 1.855 C 27.330 1.972 28.200 2.195 28.936 2.534 C 29.348 2.722 30.081 3.234 30.408 3.523 C 30.798 3.868 31.253 3.940 31.682 4.207 C 31.659 4.183 31.364 3.964 31.342 3.939 C 31.324 3.922 31.664 4.187 31.682 4.207 C 32.503 4.283 33.029 4.557 33.722 4.951 C 34.451 5.366 35.185 5.909 35.678 6.616 C 36.080 7.194 36.184 7.845 36.390 8.508 C 36.512 8.900 36.532 9.100 36.495 9.522 C 36.476 9.741 36.502 9.935 36.438 10.151 C 36.393 10.299 36.144 10.636 36.303 10.539 M 18.537 0.558 C 17.523 0.932 16.375 1.249 15.415 1.786 C 14.426 2.340 13.155 3.237 12.398 4.091 C 11.189 5.455 10.451 6.850 9.783 8.521 C 9.402 9.473 9.168 10.450 9.168 11.500 C 9.168 12.389 9.202 13.345 9.288 14.223 C 9.466 16.038 10.020 17.481 10.960 19.076 C 11.180 19.449 11.469 19.873 11.711 20.232 C 12.042 20.724 12.494 21.098 12.890 21.552 C 13.464 22.212 14.943 23.048 14.320 24.144 C 13.902 24.881 14.536 25.232 14.683 26.056 C 14.746 26.418 14.907 26.848 15.094 27.156 C 15.264 27.435 15.763 27.730 15.699 28.025 C 16.385 28.611 16.996 29.068 17.760 29.510 C 18.699 30.053 18.955 29.839 19.948 29.456 C 19.810 30.485 20.862 31.802 21.061 32.736 C 21.245 33.596 21.627 34.563 21.495 35.460 C 21.375 36.250 20.871 37.107 20.019 37.415 C 18.031 38.132 18.216 34.319 18.463 33.206 C 17.933 33.709 17.460 34.291 17.025 34.896 C 16.571 35.529 15.985 36.420 15.031 36.360 C 14.223 36.310 14.531 35.697 14.437 35.063 C 14.303 34.169 14.446 33.371 14.792 32.542 C 14.382 32.915 13.968 33.311 13.604 33.717 C 13.307 34.050 13.097 34.184 12.787 34.495 C 12.044 35.242 10.946 35.098 10.592 34.183 C 10.252 33.302 10.394 32.293 10.473 31.439 C 10.564 30.468 10.856 29.442 10.598 28.505 C 10.254 28.704 9.994 29.401 9.748 29.722 C 9.480 30.072 9.353 30.120 8.946 30.341 C 8.237 30.727 7.829 31.010 7.425 30.427 C 6.686 29.359 6.444 26.321 7.037 25.138 C 6.744 25.696 5.784 26.572 5.159 26.675 C 4.384 26.802 3.717 25.991 3.513 25.329 C 3.272 24.552 3.212 23.761 3.327 23.009 C 3.447 22.223 3.606 21.371 3.682 20.571 C 3.022 21.159 2.419 23.772 1.069 23.062 C 0.417 22.720 0.496 21.580 0.630 20.976 C 0.806 20.181 0.852 19.673 0.820 18.869 C 0.737 16.723 3.197 11.203 3.048 11.499 C 2.175 13.231 4.770 7.969 6.032 6.482 C 6.690 5.709 7.540 5.083 8.327 4.440 C 9.233 3.700 10.559 3.234 11.628 2.746 C 12.713 2.250 13.828 1.507 14.988 1.214 C 15.575 1.067 16.632 0.820 17.220 0.712 C 17.724 0.620 18.093 0.736 18.537 0.558 " transform="matrix(1, 0, 0, 1, 0.65, 0)"/>
    <path id="EyeWhites" fill="#FFFFFF" d="M 32.329 22.270 C 33.502 23.662 30.600 24.101 29.890 24.200 C 29.181 24.299 28.502 24.469 27.786 24.259 C 27.221 24.093 26.669 23.768 26.096 23.568 C 26.056 22.900 28.360 22.098 28.923 21.889 C 29.616 21.631 31.999 21.502 32.386 22.272 M 38.045 20.426 C 37.658 20.427 36.870 22.348 37.246 22.201 C 37.349 22.160 38.208 22.353 38.353 22.348 C 38.633 22.338 38.916 22.154 39.131 21.975 C 39.901 21.335 40.201 20.829 39.692 20.269 C 39.217 19.750 38.200 20.045 37.818 20.482 " transform="matrix(1, 0, 0, 1, 0.65, 0)"/>
    <path id="Headband" fill="#BD5DA4" d="M 29.999 3.048 C 30.179 3.167 30.903 3.912 30.784 4.064 C 30.523 3.918 30.489 3.773 30.189 3.635 C 29.995 3.546 30.220 3.418 30.041 3.293 C 29.688 3.042 29.329 2.695 28.936 2.539 C 28.304 2.287 27.717 2.028 27.072 1.934 C 26.276 1.816 24.975 1.638 24.223 1.788 C 22.496 2.135 20.952 2.407 19.416 3.392 C 18.632 3.895 17.708 4.672 17.062 5.320 C 16.388 5.992 15.783 6.806 15.293 7.583 C 14.869 8.256 14.587 9.393 14.273 10.002 C 14.092 10.353 14.149 10.617 14.021 11.046 C 13.894 11.473 13.875 11.921 13.790 12.364 C 13.450 14.150 13.898 15.874 14.141 17.641 C 14.205 18.120 14.373 18.630 14.680 19.028 C 14.818 19.208 14.817 19.499 14.911 19.704 C 15.003 19.911 15.273 20.044 15.356 20.266 C 15.498 20.648 15.932 21.242 16.248 21.506 C 16.545 21.755 16.035 21.082 16.248 21.506 C 15.859 21.620 15.647 21.915 15.354 22.239 C 15.175 22.436 14.750 22.622 14.683 22.888 C 14.438 23.849 14.228 22.784 14.065 22.661 C 13.712 22.397 13.492 22.113 13.100 21.855 C 12.508 21.466 12.080 20.728 11.700 20.123 C 11.273 19.444 10.872 18.709 10.537 17.977 C 10.200 17.239 9.844 16.630 9.572 15.860 C 9.288 15.060 9.456 14.310 9.343 13.470 C 9.243 12.728 8.976 11.867 9.179 11.122 C 9.373 10.411 9.454 9.539 9.669 8.818 C 9.789 8.422 9.922 8.122 10.043 7.719 C 10.167 7.297 10.369 6.886 10.632 6.492 C 11.087 5.815 11.215 5.444 11.775 4.810 C 12.117 4.420 12.361 4.121 12.778 3.806 C 13.116 3.552 13.489 3.136 13.795 2.858 C 14.353 2.354 15.347 1.810 16.043 1.471 C 17.587 0.720 18.900 0.628 20.542 0.322 C 21.592 0.128 21.938 0.071 23 0.188 C 23.435 0.235 24.895 0.358 25.338 0.415 C 25.789 0.473 26.796 0.758 27.213 0.960 C 28.055 1.370 28.576 1.675 29.325 2.333 C 29.867 2.810 30.533 3.238 30.745 4.016 " transform="matrix(1, 0, 0, 1, 0.65, 0)"/>
    <path id="Shirt" fill="#4E3A78" d="M 47.360 80.306 C 47.142 79.937 45.740 81.141 45.425 81.342 C 43.060 82.863 40.537 84.154 37.801 84.932 C 34.488 85.874 30.827 85.502 27.429 85.654 C 25.473 85.742 23.536 85.847 21.582 85.691 C 21.144 85.656 21.027 85.625 20.676 85.831 C 19.740 86.382 18.911 87.746 18.673 88.700 C 18.420 89.717 18.488 90.381 18.239 91.393 C 18.013 92.306 18.131 93.883 19.017 94.683 C 19.252 94.894 19.619 95.249 19.931 95.197 C 20.239 95.146 20.046 94.686 20.292 94.612 C 20.878 94.433 21.898 94.899 22.491 95.180 C 23.803 95.802 25.194 96.604 26.577 97.137 C 28.400 97.837 29.812 98.115 31.650 98.644 C 33.379 99.142 34.862 99.387 36.671 99.295 C 38.420 99.208 40.569 99.168 42.321 98.982 C 44.207 98.782 46.123 98.500 47.779 97.920 C 48.367 97.714 49.423 97.953 49.895 97.466 C 50.366 96.981 50.416 96.759 50.187 96.216 C 49.921 95.596 49.197 95.064 49.345 94.366 C 49.458 93.840 49.070 93.390 49.240 92.905 C 49.670 91.682 50.317 90.776 49.654 89.641 C 49.307 89.044 49.196 88.834 49.377 88.150 C 49.537 87.546 49.559 87.216 49.430 86.610 C 49.302 86.002 48.983 85.548 48.790 84.963 C 48.602 84.390 48.512 83.788 48.306 83.200 C 48.011 82.354 46.966 80.955 47.285 80.099 M 60.635 59.973 C 61.538 57.202 62.836 56.866 63.416 56.567 C 64.040 56.245 63.915 56.029 63.886 55.424 C 63.806 53.751 62.537 53.674 60.939 53.447 C 59.493 53.243 58.135 55.248 57.535 55.181 C 55.713 54.977 50.792 52.222 48.563 50.223 C 47.292 49.084 44.982 46.283 43.616 45.262 C 42.641 44.533 40.933 43.709 39.444 43.111 C 38.299 42.651 37.356 42.141 36.185 41.953 C 35.131 41.782 32.830 41.283 31.914 41.265 C 31.705 42.612 33.517 42.621 33.785 43.525 C 33.954 44.098 32.840 45.323 32.423 45.653 C 30.803 46.937 28.377 46.370 26.793 45.550 C 25.148 44.699 22.727 43.805 21.814 42.055 C 21.450 41.357 21.397 39.675 20.352 39.447 C 19.912 39.351 19.310 39.710 18.807 39.703 C 18.327 39.695 17.857 40.364 17.551 40.034 C 17.458 40.593 16.553 40.156 16.537 40.718 C 15.627 40.673 15.094 41.416 14.402 41.487 C 14.311 42.046 13.584 41.645 13.564 42.207 C 12.727 42.377 11.537 43.265 10.806 43.831 C 9.760 44.643 8.598 45.179 7.583 45.999 C 7.188 46.319 6.813 47.003 6.459 47.369 C 5.912 47.940 5.735 48.232 5.583 48.967 C 5.464 49.543 5.645 49.894 5.487 50.457 C 5.317 51.062 5.224 51.726 5.082 52.353 C 4.920 53.068 4.924 53.732 4.897 54.470 C 4.870 55.171 4.672 55.810 4.613 56.505 C 4.509 57.694 4.597 58.935 4.493 60.131 C 4.401 61.196 3.614 62.652 2.885 63.465 C 2.424 63.982 2.038 64.500 1.723 65.170 C 1.439 65.776 1.739 66.075 1.676 66.691 C 1.587 66.661 1.505 66.676 1.413 66.659 C 1.293 67.075 1.327 67.460 1.117 67.858 C 0.871 68.326 0.598 68.540 0.448 69.051 C 0.133 70.120 0.096 70.352 0.406 71.312 C 0.595 71.904 1.149 72.757 1.116 73.299 C 1.085 73.822 1.030 74.272 1.120 74.792 C 1.286 75.754 2.473 77.388 3.322 77.904 C 5.397 79.168 7.483 79.171 9.362 79.116 C 9.945 79.100 11.268 78.289 11.736 77.917 C 12.190 77.557 12.131 76.928 12.711 76.691 C 13.913 76.203 14.499 76.196 15.324 75.084 C 15.949 74.241 16.992 73.481 16.917 72.319 C 16.882 71.786 16.646 69.413 16.673 68.884 C 16.703 68.378 17.326 69.816 17.337 69.276 C 17.944 69.331 18.853 71.276 19.142 71.819 C 19.693 72.848 19.951 74.007 20.354 75.112 C 20.840 76.448 19.794 77.346 19.204 78.527 C 18.729 79.479 19.130 80.056 19.866 80.973 C 20.453 81.702 21.135 82.337 21.422 83.306 C 21.737 84.368 19.641 85.039 19.846 86.194 C 20.611 86.126 22.259 86.232 23.048 86.261 C 24.644 86.320 26.358 86.345 27.875 86.812 C 30.854 87.727 33.767 87.788 36.826 87.127 C 38.824 86.696 40.834 85.984 42.716 85.189 C 43.962 84.662 46.266 84.385 47.093 83.239 C 48.026 81.953 46.821 79.960 46.418 78.607 C 46.256 78.061 46.073 77.698 45.753 77.185 C 45.479 76.744 45.249 76.181 44.994 75.715 C 44.326 74.499 44.364 73.999 44.022 72.681 C 43.827 71.928 42.917 70.068 42.874 69.288 C 42.832 68.534 42.307 67.050 42.196 66.307 C 42.002 64.999 42.073 63.996 42.044 62.677 C 42.166 62.798 41.895 62.254 42.006 62.384 C 42.860 63.375 44.530 65.373 45.599 66.244 C 46.884 67.290 48.477 68.150 49.951 68.890 C 52.775 70.308 55.666 71.528 58.722 71.264 C 59.321 71.213 59.909 70.512 60.456 70.241 C 61.076 69.935 61.254 70.407 61.942 70.406 C 63.189 70.406 64.385 70.055 65.431 69.385 C 65.922 69.069 66.143 68.406 66.619 68.070 C 68.693 66.598 67.336 62.900 67.414 63.503 C 67.450 63.780 65.921 65.660 65.303 65.578 C 63.594 65.352 61.780 63.575 61.240 63.021 " transform="matrix(1, 0, 0, 1, 0.65, 0)"/>
    <path id="SkinArmLeft" fill="#A16235" d="M 62.875 56.703 C 62.427 57.151 61.569 57.099 61.167 57.581 C 60.827 57.987 60.810 58.397 60.680 58.915 C 60.489 59.681 60.285 60.436 60.359 61.177 C 60.431 61.907 60.615 62.673 61.248 63.198 C 61.539 63.439 61.850 63.565 62.115 63.844 C 62.350 64.094 62.551 64.277 62.851 64.452 C 63.481 64.822 64.322 65.491 65.065 65.538 C 65.829 65.585 65.990 64.725 66.442 64.211 C 67.030 63.545 67.544 62.890 68.198 62.280 C 69.361 61.195 70.516 60.051 71.588 58.868 C 72.726 57.613 74.087 56.584 75.214 55.356 C 75.853 54.661 76.427 53.925 77.155 53.322 C 77.785 52.799 78.613 52.773 79.384 52.621 C 81.411 52.219 83.413 51.466 85.381 50.740 C 86.668 50.266 87.964 50.425 89.274 50.198 C 90.196 50.038 91.120 49.895 92.039 49.724 C 92.418 49.653 93.150 49.657 93.363 49.308 C 94.116 48.075 88.500 48.164 88.064 48.063 C 87.485 47.930 87.291 47.811 87.877 47.497 C 88.281 47.280 88.697 47.133 89.124 46.988 C 90.067 46.670 90.997 46.221 91.949 45.939 C 92.810 45.684 94.075 45.494 94.755 44.868 C 95.433 44.245 94.908 43.365 94.067 43.352 C 92.715 43.331 91.316 43.528 89.957 43.631 C 89.130 43.693 88.321 43.751 87.499 43.871 C 86.970 43.948 86.382 44.106 85.853 43.942 C 86.173 43.195 88.073 43.028 88.755 42.855 C 89.819 42.584 90.974 42.427 91.989 42.012 C 92.225 41.915 92.947 41.632 92.961 41.366 C 92.980 41.008 92.361 40.920 92.128 40.904 C 90.991 40.832 89.771 40.879 88.663 41.090 C 87.846 41.245 87.069 41.480 86.267 41.700 C 85.245 41.980 84.245 42.443 83.288 42.894 C 82.775 43.137 81.194 43.955 80.861 43.121 C 80.574 42.401 81.344 41.569 81.751 41.089 C 82.800 39.848 81.656 37.926 80.132 38.003 C 79.828 39.145 79.366 40.017 78.909 41.101 C 78.701 41.593 78.136 41.988 77.768 42.382 C 77.448 42.726 77.250 43.150 76.937 43.489 C 76.279 44.204 75.402 44.728 74.674 45.373 C 74.005 45.967 73.383 46.770 73.427 47.704 C 73.460 48.378 73.532 49.046 73.566 49.725 C 73.598 50.388 73.499 50.376 73.103 50.911 C 72.713 51.348 71.183 52.153 70.683 52.455 C 69.668 53.063 68.543 53.317 67.504 53.916 C 65.299 55.187 63.386 56.078 61.649 56.925 C 61.570 56.922 61.633 56.884 61.609 56.837 " transform="matrix(1, 0, 0, 1, 0.65, 0)"/>
    <path id="SkinArmRight" fill="#A16235" d="M 22.861 36.982 C 23.846 36.664 23.429 37.993 23.226 38.461 C 22.951 39.098 22.516 39.304 22.101 39.848 C 21.671 40.411 21.298 41.054 20.993 41.694 C 20.862 41.966 20.587 42.419 20.437 42.683 C 20.273 42.966 20.233 43.167 20.198 43.487 C 20.987 43.582 21.795 43.989 22.546 44.233 C 23.260 44.463 23.377 45.131 23.377 45.801 C 23.377 46.170 23.407 46.559 23.321 46.900 C 23.226 47.278 23.005 47.617 22.962 48.018 C 22.871 48.865 22.523 49.511 22.240 50.302 C 22.004 50.961 21.952 51.650 21.851 52.358 C 21.789 52.809 21.922 53.009 21.484 53.272 C 21.214 53.432 20.328 53.071 20.198 53.366 C 19.912 53.396 20.305 53.979 20.285 54.206 C 20.210 55.002 19.941 55.941 19.588 56.650 C 19.423 56.984 19.142 56.939 18.785 57.077 C 18.323 57.257 17.984 57.113 17.889 57.949 C 17.694 59.681 16.752 60.989 15.884 62.471 C 15.507 63.116 15.487 63.914 15.307 64.641 C 15.212 65.025 15.127 65.415 14.963 65.784 C 14.757 66.242 14.345 66.477 14.278 66.970 C 14.216 67.408 14.285 67.699 14.153 68.105 C 14.041 68.444 13.574 68.961 13.487 69.294 C 13.302 70.007 13.407 70.525 13.042 71.160 C 12.203 72.622 10.223 72.356 8.867 71.716 C 8.238 71.421 7.398 71.088 6.881 70.644 C 6.357 70.191 5.985 69.378 5.656 68.787 C 5.387 68.307 5.148 67.225 5.471 66.731 C 5.652 66.454 6.087 66.259 6.337 66.028 C 6.629 65.758 6.857 65.431 7.086 65.114 C 8.036 63.814 9.422 62.827 10.294 61.490 C 10.705 60.857 11.257 60.366 11.681 59.747 C 12.147 59.065 12.595 58.344 13.020 57.625 C 13.427 56.937 13.860 56.279 14.039 55.547 C 14.223 54.788 14.339 53.879 14.418 53.101 C 14.500 52.292 14.417 51.708 14.417 50.884 C 14.417 50.023 14.483 46.319 14.563 45.488 C 14.717 43.816 14.708 44.785 16.044 43.690 C 16.697 43.156 17.139 42.535 17.706 41.937 C 18.336 41.273 18.754 40.794 19.366 40.107 C 19.917 39.490 20.910 38.935 21.426 38.278 C 21.986 37.567 22.437 37.171 23.376 37.171 " transform="matrix(1, 0, 0, 1, 0.65, 0)"/>
    <path id="Mouth" fill="#FFFFFF" d="M 39.590 32.158 C 39.586 32.419 39.460 32.560 39.395 32.796 C 39.299 33.123 39.404 33.524 39.141 33.740 C 38.947 33.901 38.416 33.986 38.162 34.063 C 37.764 34.183 35.958 34.475 35.550 34.255 C 34.826 33.868 38.981 32.407 39.592 32.066 " transform="matrix(1, 0, 0, 1, 0.65, 0)"/>
    <path id="Irises" fill="#371E10" d="M 28.882 21.944 C 29.559 22.216 29.634 23.497 29.199 24.043 C 28.709 24.655 27.605 24.217 26.959 24.046 C 24.859 23.491 27.972 21.934 28.881 21.775 M 38.149 20.159 C 37.730 20.173 37.623 20.747 37.538 21.032 C 37.491 21.191 37.293 21.254 37.235 21.417 C 37.176 21.580 37.058 21.915 37.200 22.116 C 37.322 22.293 38.090 22.301 38.271 22.238 C 38.625 22.113 38.924 21.752 38.924 21.361 C 38.924 21.039 38.860 20.698 38.695 20.438 C 38.591 20.276 38.380 20.115 38.195 20.129 C 37.988 20.145 37.823 20.377 37.630 20.441 " transform="matrix(1, 0, 0, 1, 0.65, 0)"/>
    <path id="linesShoeLeft" fill="#010101" d="M 29.459 191.851 C 29.569 191.703 29.051 191.528 28.959 191.655 C 27.697 193.381 25.847 193.817 23.855 194.221 C 22.001 194.597 20.564 195.479 18.863 196.273 C 15.900 197.655 13.402 197.727 10.259 197.258 C 8.836 197.046 3.440 196.454 3.662 194.174 C 3.830 192.446 5.981 191.780 7.306 191.180 C 9.132 190.352 10.349 188.800 12.086 187.837 C 12.282 187.730 11.785 187.529 11.653 187.602 C 10.466 188.257 9.616 189.167 8.554 189.984 C 7.656 190.674 6.601 191.019 5.592 191.507 C 4.620 191.980 2.811 192.980 3.148 194.347 C 3.660 196.414 7.313 196.977 8.999 197.286 C 11.791 197.800 14.814 198.264 17.543 197.242 C 19.955 196.346 21.973 194.921 24.522 194.412 C 26.457 194.027 28.241 193.516 29.459 191.851 L 29.459 191.851 Z M 28.722 195.868 C 29.077 195.801 28.821 195.405 28.543 195.455 C 25.812 195.975 23.434 197.200 21.410 199.101 C 19.055 201.314 15.856 201.425 12.793 201.285 C 11.409 201.223 10.034 201.100 8.659 200.933 C 7.215 200.756 5.662 200.723 4.256 200.347 C 1.152 199.517 2.409 195.493 3.800 193.614 C 3.974 193.382 3.466 193.163 3.313 193.371 C 2.202 194.873 0.817 198.274 2.494 199.896 C 3.128 200.509 3.984 200.745 4.837 200.873 C 6.507 201.124 8.200 201.312 9.880 201.483 C 12.883 201.789 16.504 202.221 19.373 201.004 C 20.892 200.360 21.848 199.209 23.159 198.266 C 24.840 197.053 26.683 196.254 28.722 195.868 L 28.722 195.868 Z M 28.916 195.585 C 28.820 195.441 28.281 195.392 28.417 195.593 C 28.433 195.615 28.447 195.639 28.462 195.659 C 28.549 195.787 28.785 195.843 28.924 195.783 C 29.372 195.595 29.607 194.615 29.693 194.214 C 29.917 193.163 29.786 192.201 29.346 191.223 C 29.269 191.050 28.738 190.992 28.812 191.155 C 29.191 192.002 29.407 192.911 29.208 193.840 C 29.127 194.217 28.930 195.349 28.499 195.529 C 28.654 195.569 28.808 195.612 28.962 195.652 C 28.946 195.630 28.931 195.606 28.916 195.585 L 28.916 195.585 Z " transform="matrix(1, 0, 0, 1, 0.65, 0)"/>
    <path id="linesShoeRight" fill="#010101" d="M 64.625 190.233 C 64.618 190.004 64.076 189.917 64.085 190.187 C 64.165 192.863 64.038 195.832 60.901 196.514 C 60.578 196.584 60.994 196.910 61.213 196.863 C 64.495 196.149 64.711 193.074 64.625 190.233 L 64.625 190.233 Z M 34.085 192.133 C 34.163 191.904 33.630 191.756 33.548 191.989 C 33.126 193.232 33.110 194.205 33.401 195.478 C 33.436 195.637 33.622 195.693 33.765 195.688 C 34.346 195.666 35.155 196.029 35.742 196.133 C 36.257 196.227 36.783 196.292 37.304 196.330 C 38.460 196.415 39.618 196.435 40.778 196.373 C 43.409 196.236 46.127 195.704 48.761 195.894 C 51.347 196.081 53.647 197.353 56.197 197.542 C 58.081 197.685 59.951 197.472 61.713 196.771 C 62.026 196.648 61.616 196.337 61.401 196.423 C 59.142 197.321 56.505 197.519 54.172 196.774 C 52.018 196.084 49.922 195.427 47.626 195.502 C 45.114 195.584 42.618 195.958 40.105 196.022 C 38.825 196.055 37.532 196.040 36.263 195.850 C 35.442 195.725 34.404 195.288 33.576 195.315 C 33.698 195.385 33.820 195.455 33.942 195.525 C 33.666 194.316 33.684 193.312 34.085 192.133 L 34.085 192.133 Z M 39.088 191.633 C 38.927 191.670 39.400 191.876 39.526 191.850 C 41.167 191.459 42.804 192.172 44.366 192.606 C 45.742 192.986 47.106 193.438 48.500 193.754 C 50.477 194.203 52.508 194.453 54.538 194.445 C 56.684 194.435 58.810 194.183 60.806 193.357 C 61.672 192.995 62.541 192.472 63.206 191.801 C 63.545 191.460 64.634 190.583 64.373 190.040 C 64.306 189.900 63.800 189.857 63.844 189.948 C 64.173 190.631 62.102 192.174 61.593 192.486 C 60.676 193.048 59.684 193.476 58.635 193.727 C 56.485 194.242 54.249 194.316 52.050 194.116 C 49.315 193.869 46.692 193.119 44.071 192.321 C 42.489 191.842 40.751 191.238 39.088 191.633 L 39.088 191.633 Z M 39.539 191.896 C 39.903 191.872 39.562 191.550 39.338 191.563 C 37.846 191.664 35.655 192.852 34.278 191.985 C 34.090 191.867 33.631 191.979 33.939 192.173 C 35.617 193.230 37.770 192.014 39.539 191.896 L 39.539 191.896 Z M 64.297 190.148 C 64.617 190.235 64.690 189.972 64.369 189.883 C 61.072 188.987 57.016 188.745 54.283 186.517 C 54.152 186.411 53.618 186.408 53.855 186.601 C 56.723 188.942 60.848 189.210 64.297 190.148 L 64.297 190.148 Z M 34.608 190.120 C 34.776 189.930 34.265 189.723 34.115 189.892 C 33.433 190.667 33.368 191.449 33.468 192.441 C 33.490 192.664 34.034 192.750 34.008 192.489 C 33.915 191.558 33.965 190.850 34.608 190.120 L 34.608 190.120 Z " transform="matrix(1, 0, 0, 1, 0.65, 0)"/>
    <path id="linesPockets" fill="#010101" d="M 23.949 101.389 C 23.964 101.192 23.563 101.095 23.548 101.281 C 23.380 103.491 22.454 106.250 20.893 107.881 C 20.271 108.533 17.286 111.362 16.347 110.141 C 16.235 109.992 15.854 110.060 16.008 110.263 C 17.047 111.613 19.409 109.713 20.243 109.007 C 22.401 107.180 23.736 104.184 23.949 101.389 L 23.949 101.389 Z M 23.753 101.350 C 23.489 101.337 23.826 101.501 23.930 101.506 C 25.607 101.584 25.955 101.757 25.602 103.248 C 25.441 103.936 25.258 104.620 25.026 105.289 C 24.555 106.634 24.007 107.980 23.255 109.196 C 21.559 111.936 18.623 112.853 15.502 112.454 C 15.241 112.421 15.579 112.597 15.678 112.609 C 18.345 112.952 21.212 112.408 23.017 110.267 C 24.868 108.072 25.912 104.649 26.259 101.850 C 26.267 101.788 26.114 101.747 26.074 101.737 C 25.298 101.547 24.553 101.387 23.753 101.350 L 23.753 101.350 Z M 50.111 102 C 50.103 101.864 49.704 101.808 49.710 101.892 C 49.811 103.747 50.162 105.575 51.125 107.187 C 51.190 107.293 51.568 107.324 51.523 107.249 C 50.569 105.651 50.210 103.840 50.111 102 L 50.111 102 Z M 49.911 102.131 C 50.182 102.115 49.893 101.909 49.752 101.921 C 49.088 101.958 48.465 102.080 47.819 102.237 C 47.776 102.249 47.737 102.260 47.743 102.313 C 48.004 104.604 48.407 107.264 49.751 109.204 C 50.413 110.161 50.580 110.642 51.565 110.933 C 51.801 111.001 51.849 110.817 51.614 110.747 C 51.446 110.698 51.263 110.635 51.084 110.640 C 51.041 110.641 51.273 110.812 51.087 110.536 C 50.492 109.647 49.830 108.870 49.429 107.860 C 49.016 106.826 48.702 105.757 48.493 104.663 C 48.392 104.142 48.297 103.618 48.230 103.090 C 48.106 102.125 49.201 102.172 49.911 102.131 L 49.911 102.131 Z " transform="matrix(1, 0, 0, 1, 0.65, 0)"/>
    <path id="linesPants" fill="#010101" d="M 45.821 109.146 C 46.042 109.089 45.689 108.910 45.572 108.941 C 41.402 109.999 37.997 112.321 35.154 115.515 C 35.058 115.620 35.442 115.765 35.528 115.665 C 38.331 112.516 41.704 110.190 45.821 109.146 L 45.821 109.146 Z M 20.562 94.743 C 20.625 94.590 20.100 94.425 20.027 94.598 C 19.452 95.971 19.217 97.390 18.760 98.793 C 18.114 100.774 17.510 102.772 16.989 104.789 C 16.005 108.601 15.256 112.464 14.705 116.361 C 14.680 116.551 15.218 116.673 15.241 116.507 C 15.815 112.444 16.587 108.404 17.656 104.439 C 18.190 102.459 18.885 100.519 19.411 98.539 C 19.755 97.246 20.042 95.984 20.562 94.743 L 20.562 94.743 Z M 49.980 97.322 C 49.917 97.165 49.391 97.101 49.447 97.241 C 50.237 99.251 50.468 101.384 50.758 103.509 C 51.085 105.913 51.349 108.330 51.434 110.759 C 51.591 115.242 51.242 119.696 50.132 124.052 C 50.091 124.215 50.627 124.354 50.667 124.197 C 51.820 119.670 52.151 115.043 51.946 110.385 C 51.847 108.113 51.610 105.841 51.291 103.589 C 50.990 101.463 50.772 99.336 49.980 97.322 L 49.980 97.322 Z M 15.161 116.456 C 15.168 116.208 14.626 116.131 14.620 116.424 C 14.575 118 14.143 119.539 13.809 121.073 C 13.486 122.562 13.274 124.072 13.037 125.578 C 12.528 128.789 11.820 131.950 11.215 135.143 C 10.611 138.340 10.233 141.561 9.831 144.789 C 9.623 146.464 9.510 148.167 9.227 149.827 C 9 151.155 8.700 152.456 8.664 153.808 C 8.657 154.058 9.199 154.133 9.207 153.844 C 9.253 152.050 9.748 150.297 9.941 148.515 C 10.126 146.799 10.349 145.089 10.557 143.375 C 10.947 140.177 11.373 136.990 12.038 133.835 C 12.711 130.646 13.293 127.462 13.801 124.242 C 14.208 121.667 15.086 119.068 15.161 116.456 L 15.161 116.456 Z M 50.718 124.195 C 50.741 123.956 50.204 123.830 50.182 124.050 C 50.088 125.030 49.633 125.884 49.421 126.838 C 49.233 127.693 49.050 128.554 48.900 129.415 C 48.589 131.180 48.341 132.948 48.199 134.735 C 47.924 138.170 47.845 141.621 47.950 145.066 C 48.020 147.325 47.998 149.592 48.190 151.847 C 48.353 153.765 48.527 155.960 49.618 157.613 C 49.734 157.790 50.280 157.804 50.125 157.569 C 48.939 155.770 48.802 153.273 48.678 151.183 C 48.559 149.163 48.543 147.137 48.490 145.115 C 48.392 141.343 48.449 137.557 48.832 133.800 C 49.012 132.030 49.278 130.266 49.632 128.519 C 49.923 127.081 50.579 125.644 50.718 124.195 L 50.718 124.195 Z M 49.152 157.122 C 48.822 157.017 48.720 157.412 49.046 157.518 C 49.728 157.738 50.763 158.044 50.692 158.956 C 50.645 159.561 50.435 160.137 50.276 160.717 C 49.835 162.310 49.236 163.913 49.250 165.583 C 49.252 165.930 50.108 166.494 50.335 166.827 C 50.836 167.563 51.250 168.367 51.481 169.231 C 51.955 171.002 51.947 172.798 51.450 174.565 C 51.376 174.829 51.911 174.975 51.985 174.710 C 52.490 172.916 52.562 170.950 51.997 169.157 C 51.719 168.274 51.356 167.391 50.789 166.651 C 50.009 165.631 49.628 165.321 49.983 163.888 C 50.258 162.768 50.582 161.652 50.901 160.542 C 51.051 160.018 51.324 159.355 51.231 158.792 C 51.060 157.755 50.046 157.411 49.152 157.122 L 49.152 157.122 Z M 37.273 147.760 C 37.282 147.661 36.877 147.584 36.874 147.654 C 36.669 149.498 36.559 151.359 36.291 153.195 C 36.043 154.896 35.542 156.526 35.230 158.209 C 34.664 161.251 34.589 164.364 34.263 167.430 C 34.252 167.530 34.658 167.605 34.664 167.536 C 34.989 164.479 35.013 161.341 35.629 158.317 C 35.993 156.529 36.508 154.786 36.734 152.971 C 36.949 151.239 37.081 149.496 37.273 147.760 L 37.273 147.760 Z M 41.531 111.006 C 41.563 110.831 41.160 110.730 41.130 110.900 C 40.606 113.754 40.404 116.653 39.854 119.515 C 39.274 122.527 38.817 125.558 38.245 128.570 C 37.035 134.936 36.802 141.225 36.871 147.691 C 36.873 147.853 37.278 147.923 37.276 147.729 C 37.205 141.111 37.495 134.694 38.740 128.182 C 39.308 125.206 39.755 122.210 40.329 119.236 C 40.856 116.500 41.029 113.733 41.531 111.006 L 41.531 111.006 Z M 34.638 113.602 C 34.418 113.644 34.780 113.820 34.890 113.799 C 37.110 113.367 38.797 111.628 40.973 111.040 C 41.119 111.001 40.758 110.832 40.650 110.861 C 38.500 111.442 36.828 113.177 34.638 113.602 L 34.638 113.602 Z M 34.278 178.355 C 34.174 178.523 34.560 178.667 34.647 178.526 C 35.571 177.020 38.010 174.587 36.947 172.686 C 36.420 171.747 35.805 170.871 35.397 169.874 C 35.073 169.086 34.900 168.312 34.665 167.497 C 34.618 167.337 34.209 167.284 34.260 167.462 C 34.695 168.963 35.140 170.266 35.941 171.637 C 36.215 172.107 36.724 172.736 36.795 173.289 C 36.900 174.110 36.514 174.827 36.112 175.518 C 35.545 176.494 34.867 177.395 34.278 178.355 L 34.278 178.355 Z M 54.213 186.795 C 54.315 186.912 54.846 186.964 54.705 186.801 C 54.409 186.454 54.328 186.052 53.811 186.045 C 53.173 186.034 52.660 186.471 52.323 186.961 C 51.595 188.021 51.320 189.022 49.906 189.396 C 48.238 189.835 46.551 189.702 44.872 189.394 C 42.628 188.984 39.888 188.053 37.591 188.619 C 36.959 188.777 33.172 190.539 32.850 189.842 C 32.777 189.685 32.254 189.627 32.318 189.766 C 32.721 190.637 34.145 190.190 34.806 189.979 C 35.698 189.695 36.557 189.325 37.446 189.031 C 38.833 188.572 40.425 188.809 41.833 189.061 C 44.492 189.535 47.166 190.302 49.873 189.760 C 50.767 189.580 51.658 189.162 52.157 188.364 C 52.567 187.708 53.300 185.732 54.213 186.795 L 54.213 186.795 Z M 52.036 174.489 C 51.932 174.401 51.400 174.346 51.620 174.535 C 52.770 175.505 53.699 176.990 54.613 178.181 C 55.381 179.183 56.129 180.202 56.845 181.243 C 56.925 181.361 57.452 181.434 57.334 181.264 C 56.449 179.974 55.522 178.721 54.553 177.494 C 53.766 176.502 53.006 175.307 52.036 174.489 L 52.036 174.489 Z M 57.359 181.323 C 57.431 181.100 56.898 180.952 56.824 181.180 C 56.521 182.109 56.265 183.051 55.938 183.972 C 55.610 184.891 55.256 186.252 54.399 186.827 C 54.156 186.989 54.634 187.241 54.816 187.120 C 55.596 186.600 55.975 185.474 56.284 184.637 C 56.687 183.547 57 182.427 57.359 181.323 L 57.359 181.323 Z M 8.446 182.120 C 8.592 181.941 8.080 181.747 7.951 181.902 C 6.990 183.058 6.039 184.160 5.190 185.402 C 5.055 185.599 5.573 185.784 5.684 185.620 C 6.533 184.377 7.485 183.276 8.446 182.120 L 8.446 182.120 Z M 5.705 185.583 C 5.763 185.420 5.232 185.264 5.168 185.441 C 4.814 186.451 4.992 187.434 5.564 188.330 C 6.049 189.090 6.818 189.763 7.154 190.605 C 7.219 190.773 7.750 190.834 7.688 190.678 C 6.962 188.855 4.908 187.851 5.705 185.583 L 5.705 185.583 Z M 4.355 173.752 C 4.359 173.593 3.822 173.506 3.819 173.608 C 3.726 177.132 4.943 180.849 6.098 184.140 C 6.148 184.282 6.666 184.343 6.626 184.231 C 5.480 180.963 4.264 177.249 4.355 173.752 L 4.355 173.752 Z M 3.812 173.793 C 3.718 173.967 4.241 174.135 4.347 173.938 C 5.207 172.308 6.692 171.142 7.937 169.820 C 8.092 169.653 7.583 169.451 7.442 169.601 C 6.170 170.947 4.690 172.132 3.812 173.793 L 3.812 173.793 Z M 7.417 169.689 C 7.417 169.934 7.959 170.012 7.960 169.729 C 7.959 167.207 7.480 164.779 8.451 162.385 C 9.574 159.616 9.319 156.765 9.206 153.846 C 9.197 153.600 8.653 153.524 8.664 153.806 C 8.733 155.546 8.920 157.329 8.723 159.068 C 8.550 160.570 7.985 161.811 7.542 163.231 C 6.905 165.274 7.416 167.583 7.417 169.689 L 7.417 169.689 Z M 32.697 186.923 C 32.642 187.024 33.029 187.159 33.098 187.029 C 33.997 185.385 35.405 184.118 36.617 182.713 C 36.711 182.605 36.328 182.463 36.243 182.562 C 35.017 183.982 33.606 185.260 32.697 186.923 L 32.697 186.923 Z M 36.231 182.607 C 36.276 182.726 36.669 182.775 36.628 182.666 C 35.935 180.813 35.059 179.055 34.050 177.354 C 33.993 177.256 33.596 177.199 33.682 177.345 C 34.680 179.029 35.543 180.773 36.231 182.607 L 36.231 182.607 Z M 30.182 191.119 C 30.542 191.084 30.183 190.791 29.972 190.814 C 27.849 191.018 25.686 191.107 23.573 190.754 C 21.259 190.367 19.129 189.483 16.947 188.657 C 15.355 188.053 12.136 185.788 10.876 187.970 C 10.764 188.165 11.284 188.334 11.373 188.181 C 12.097 186.929 13.287 187.482 14.365 187.938 C 15.149 188.270 15.939 188.581 16.735 188.880 C 18.191 189.427 19.631 190.074 21.130 190.493 C 24.109 191.328 27.119 191.413 30.182 191.119 L 30.182 191.119 Z M 29.979 190.767 C 29.617 190.777 29.702 191.194 30.021 191.185 C 30.943 191.158 31.878 190.637 32.449 189.911 C 33.096 189.088 33.151 187.953 33.181 186.941 C 33.190 186.682 32.647 186.612 32.637 186.908 C 32.613 187.706 32.597 188.858 32.079 189.515 C 31.583 190.144 30.810 190.743 29.979 190.767 L 29.979 190.767 Z " transform="matrix(1, 0, 0, 1, 0.65, 0)"/>
    <path id="linesArmLeft" fill="#010101" d="M 13.946 56.191 C 14.087 55.933 13.581 55.722 13.457 55.948 C 12.290 58.068 10.910 60.047 9.377 61.918 C 7.904 63.714 6.217 65.317 4.788 67.151 C 4.611 67.380 5.117 67.600 5.277 67.394 C 6.706 65.559 8.405 63.968 9.865 62.161 C 11.386 60.275 12.776 58.315 13.946 56.191 L 13.946 56.191 Z M 18.451 56.859 C 18.515 56.661 17.983 56.509 17.917 56.713 C 17.042 59.475 15.822 62.072 14.805 64.775 C 13.940 67.073 13.218 69.410 12.201 71.649 C 12.119 71.832 12.646 71.995 12.737 71.794 C 13.754 69.553 14.450 67.210 15.340 64.920 C 16.384 62.229 17.577 59.619 18.451 56.859 L 18.451 56.859 Z M 18.322 56.839 C 18.133 56.727 17.671 56.840 17.983 57.027 C 19.849 58.141 20.083 55.132 20.318 53.990 C 20.361 53.776 19.824 53.640 19.782 53.846 C 19.666 54.409 19.356 57.457 18.322 56.839 L 18.322 56.839 Z M 13.505 55.999 C 13.476 56.192 14.013 56.317 14.042 56.144 C 14.411 53.772 14.633 51.504 14.623 49.108 C 14.620 48.199 14.604 47.285 14.666 46.379 C 14.695 45.962 14.649 45.077 15.038 44.798 C 15.180 44.696 14.691 44.484 14.540 44.591 C 14.173 44.854 14.177 45.556 14.150 45.950 C 14.080 46.953 14.081 47.960 14.087 48.964 C 14.100 51.360 13.874 53.628 13.505 55.999 L 13.505 55.999 Z M 14.359 44.708 C 14.109 44.905 14.566 45.190 14.767 45.031 C 17.522 42.840 19.577 39.881 22.306 37.635 C 22.553 37.433 22.097 37.149 21.899 37.313 C 19.171 39.557 17.111 42.519 14.359 44.708 L 14.359 44.708 Z M 19.467 43.038 C 19.246 42.962 18.912 43.080 19.271 43.201 C 20.314 43.564 23.693 43.849 22.871 45.586 C 22.813 45.709 23.332 45.886 23.406 45.731 C 24.319 43.802 20.544 43.410 19.467 43.038 L 19.467 43.038 Z M 19.181 44.407 C 18.803 44.359 19.058 44.585 19.278 44.612 C 20.234 44.733 21.399 44.734 22.241 45.258 C 23.386 45.973 22.953 47.209 22.376 48.170 C 22.329 48.250 22.829 48.451 22.911 48.315 C 23.593 47.180 23.872 45.847 22.500 45.153 C 21.472 44.633 20.306 44.551 19.181 44.407 L 19.181 44.407 Z M 21.372 50.284 C 21.739 50.339 21.590 49.977 21.314 49.936 C 19.615 49.684 19.848 52.915 19.710 53.915 C 19.679 54.147 20.216 54.276 20.245 54.060 C 20.339 53.383 20.255 50.119 21.372 50.284 L 21.372 50.284 Z M 19.933 53.212 C 19.582 53.170 20.034 53.402 20.164 53.418 C 20.806 53.494 21.701 53.583 21.954 52.810 C 22.438 51.331 22.764 49.607 22.882 48.057 C 22.888 47.990 22.752 47.944 22.706 47.929 C 21.593 47.573 20.467 47.329 19.316 47.147 C 18.939 47.087 19.207 47.302 19.418 47.335 C 19.924 47.415 22.414 47.585 22.314 48.366 C 22.216 49.114 22.062 49.844 21.889 50.578 C 21.577 51.924 21.720 53.424 19.933 53.212 L 19.933 53.212 Z M 19.096 45.469 C 18.735 45.463 18.822 45.883 19.135 45.890 C 20.497 45.916 21.785 46.286 23.083 46.667 C 23.415 46.765 23.520 46.368 23.190 46.271 C 21.845 45.876 20.507 45.496 19.096 45.469 L 19.096 45.469 Z M 21.708 37.492 C 21.593 37.608 22.096 37.802 22.209 37.685 C 22.198 37.696 23.005 36.898 23.047 37.128 C 23.096 37.391 23.080 37.662 22.985 37.913 C 22.701 38.659 22.176 39.291 21.715 39.934 C 20.963 40.982 20.216 42.027 19.751 43.239 C 19.698 43.379 20.226 43.542 20.286 43.384 C 20.792 42.070 21.633 40.954 22.444 39.814 C 22.957 39.092 23.610 38.343 23.610 37.412 C 23.611 36.137 22.038 37.157 21.708 37.492 L 21.708 37.492 Z " transform="matrix(1, 0, 0, 1, 0.65, 0)"/>
    <path id="linesArmRight" fill="#010101" d="M 61.176 57.176 C 60.945 57.279 61.431 57.520 61.599 57.446 C 63.836 56.462 65.823 55.023 68.033 53.986 C 70.068 53.032 72.153 52.139 73.926 50.738 C 74.083 50.613 73.586 50.400 73.431 50.523 C 71.564 52 69.335 52.876 67.211 53.906 C 65.147 54.906 63.280 56.250 61.176 57.176 L 61.176 57.176 Z M 78.029 52.937 C 78.133 52.817 77.626 52.630 77.528 52.747 C 75.615 54.931 73.275 56.798 71.239 58.877 C 69.190 60.968 67.414 63.313 65.310 65.352 C 65.203 65.456 65.699 65.653 65.812 65.543 C 67.916 63.503 69.678 61.147 71.740 59.067 C 73.787 57.005 76.119 55.118 78.029 52.937 L 78.029 52.937 Z M 73.123 50.826 C 73.057 51.070 73.591 51.214 73.659 50.972 C 73.948 49.905 73.696 48.862 73.703 47.779 C 73.715 46.017 74.866 45.412 76.170 44.478 C 77.883 43.251 80.024 40.893 80.325 38.734 C 80.501 37.468 81.742 38.799 81.798 39.572 C 81.831 40.033 81.825 40.487 81.579 40.886 C 81.223 41.468 80.815 42.019 80.508 42.630 C 80.080 43.488 80.692 43.806 81.482 43.651 C 81.836 43.581 81.554 43.215 81.294 43.267 C 80.402 43.441 81.526 41.963 81.725 41.661 C 82.100 41.091 82.317 40.703 82.363 40.004 C 82.455 38.598 81.269 37.675 79.976 37.657 C 79.874 37.656 79.710 37.690 79.730 37.830 C 79.959 39.574 78.703 41.039 77.656 42.312 C 76.657 43.527 75.494 44.189 74.319 45.172 C 72.435 46.749 73.681 48.766 73.123 50.826 L 73.123 50.826 Z M 81.347 43.356 C 81.084 43.507 81.551 43.787 81.758 43.667 C 82.813 43.060 84.055 42.881 85.197 42.490 C 86.352 42.095 87.509 41.692 88.722 41.513 C 90.130 41.306 91.567 41.216 92.985 41.378 C 93.066 41.389 92.211 41.805 92.004 41.874 C 90.697 42.314 89.347 42.614 88.014 42.971 C 87.175 43.195 86.014 43.362 85.343 43.965 C 85.112 44.174 85.576 44.440 85.755 44.277 C 86.273 43.812 87.148 43.654 87.795 43.477 C 88.806 43.202 89.823 42.958 90.833 42.682 C 91.477 42.505 93.644 42.185 93.706 41.253 C 93.716 41.118 93.512 41.046 93.412 41.035 C 91.322 40.797 89.138 40.851 87.100 41.421 C 85.954 41.742 84.846 42.195 83.696 42.500 C 82.875 42.718 82.085 42.931 81.347 43.356 L 81.347 43.356 Z M 85.330 44.135 C 85.200 44.149 85.650 44.347 85.772 44.334 C 87.212 44.186 88.640 43.949 90.078 43.765 C 91.223 43.618 93.902 42.960 94.973 43.767 C 95.071 43.840 95.559 43.896 95.454 43.816 C 94.537 43.124 93.466 43.234 92.372 43.298 C 90.009 43.440 87.683 43.891 85.330 44.135 L 85.330 44.135 Z M 95.410 43.933 C 95.459 43.906 95.035 43.685 94.903 43.755 C 93.672 44.437 91.936 44.571 90.587 44.917 C 89.107 45.297 87.635 45.706 86.188 46.198 C 86.161 46.209 86.545 46.426 86.694 46.376 C 88.596 45.729 90.542 45.233 92.492 44.749 C 93.417 44.519 94.559 44.403 95.410 43.933 L 95.410 43.933 Z M 95.648 43.752 C 95.648 43.563 95.113 43.469 95.113 43.609 C 95.112 44.881 93.254 45.430 92.276 45.799 C 90.570 46.445 88.824 46.980 87.114 47.613 C 86.912 47.687 87.400 47.906 87.545 47.853 C 89.423 47.157 91.354 46.608 93.207 45.845 C 94.098 45.479 95.647 44.923 95.648 43.752 L 95.648 43.752 Z M 81.353 43.562 C 81.313 43.499 81.074 43.489 81.088 43.510 C 82.407 45.613 78.546 47.104 77.092 47.572 C 77.022 47.596 77.255 47.691 77.315 47.672 C 78.775 47.203 82.695 45.698 81.353 43.562 L 81.353 43.562 Z M 83.193 43.954 C 83.149 43.929 82.880 43.890 82.991 43.952 C 84.716 44.946 86.331 46.866 85.727 48.973 C 85.713 49.023 85.981 49.097 85.996 49.044 C 86.609 46.901 84.946 44.962 83.193 43.954 L 83.193 43.954 Z M 87.150 47.825 C 86.932 47.740 86.601 47.844 86.954 47.981 C 88.185 48.463 89.523 48.303 90.816 48.331 C 91.448 48.346 92.173 48.325 92.762 48.584 C 93.515 48.915 93.769 49.380 92.942 49.585 C 92.065 49.804 91.181 49.790 90.288 49.875 C 88.222 50.071 85.980 50.392 84.001 51.042 C 81.834 51.755 79.806 52.802 77.486 52.911 C 77.207 52.926 77.695 53.163 77.826 53.156 C 81.081 53.002 83.966 51.164 87.172 50.644 C 88.661 50.403 90.136 50.163 91.641 50.058 C 92.508 49.996 93.426 49.946 94.155 49.420 C 94.190 49.396 94.167 49.358 94.149 49.335 C 92.577 47.160 89.267 48.656 87.150 47.825 L 87.150 47.825 Z " transform="matrix(1, 0, 0, 1, 0.65, 0)"/>
    <path id="linesShirt" fill="#010101" d="M 5.404 65.703 C 5.441 65.481 4.904 65.349 4.868 65.562 C 4.366 68.578 6.320 71.169 9.188 72.021 C 11.099 72.585 14.071 72.369 13.626 69.668 C 13.592 69.463 13.049 69.376 13.088 69.610 C 13.503 72.122 10.658 72.293 8.925 71.589 C 6.466 70.592 4.957 68.385 5.404 65.703 L 5.404 65.703 Z M 1.286 72.551 C 1.309 72.451 0.906 72.352 0.885 72.445 C 0.458 74.358 1.399 76.304 2.708 77.661 C 2.776 77.731 3.159 77.779 3.072 77.688 C 1.786 76.352 0.865 74.430 1.286 72.551 L 1.286 72.551 Z M 31.947 41.036 C 31.629 40.942 31.570 41.177 31.885 41.268 C 34.767 42.111 37.698 41.914 40.246 43.709 C 40.367 43.795 40.907 43.814 40.668 43.647 C 37.959 41.738 35.018 41.936 31.947 41.036 L 31.947 41.036 Z M 38.701 50.081 C 38.626 49.922 38.105 49.868 38.171 50.003 C 39.269 52.289 41.549 54.120 42.002 56.687 C 42.615 60.162 41.079 63.629 41.992 67.130 C 42.896 70.600 44.080 73.975 45.518 77.257 C 46.850 80.298 48.226 83.312 49.249 86.475 C 49.304 86.639 49.834 86.711 49.782 86.551 C 47.656 79.985 44.065 73.980 42.522 67.206 C 42.053 65.149 42.183 63.133 42.428 61.058 C 42.608 59.543 42.892 57.900 42.446 56.401 C 41.729 53.993 39.771 52.310 38.701 50.081 L 38.701 50.081 Z M 49.787 86.534 C 49.788 86.301 49.247 86.216 49.246 86.492 C 49.242 87.237 48.960 87.631 48.783 88.292 C 48.763 88.361 48.792 88.495 48.823 88.559 C 49.110 89.140 49.690 89.432 49.794 90.163 C 49.912 90.980 49.731 91.634 49.275 92.324 C 48.604 93.342 49.051 95.144 49.824 96.024 C 51.048 97.420 44.240 98.491 43.512 98.595 C 39.783 99.122 35.837 99.468 32.135 98.582 C 29.412 97.932 26.855 96.831 24.328 95.642 C 23.308 95.161 22.280 94.562 21.214 94.188 C 20.623 93.980 20.634 94.274 20.049 94.451 C 19.731 94.549 20.137 94.873 20.361 94.805 C 20.912 94.638 20.829 94.413 21.491 94.723 C 22.217 95.059 22.941 95.403 23.665 95.744 C 24.940 96.346 26.215 96.949 27.525 97.473 C 29.836 98.397 32.234 99.148 34.722 99.383 C 38.390 99.733 42.256 99.338 45.857 98.607 C 46.460 98.484 51.527 97.584 50.498 96.122 C 49.942 95.330 49.572 94.531 49.504 93.532 C 49.444 92.630 50.231 91.939 50.383 91.033 C 50.514 90.262 50.117 89.281 49.575 88.731 C 49.139 88.289 49.649 88.097 49.724 87.601 C 49.781 87.245 49.785 86.898 49.787 86.534 L 49.787 86.534 Z M 17.149 68.683 C 16.985 68.482 16.480 68.591 16.694 68.861 C 17.587 69.962 18.546 70.955 19.076 72.288 C 19.558 73.501 20.703 76.488 19.636 77.710 C 18.896 78.556 18.441 79.276 19.177 80.398 C 19.715 81.214 21.562 82.480 21.040 83.485 C 19.372 86.705 15.218 92.558 19.753 95.270 C 20.024 95.431 20.308 95.116 19.997 94.930 C 17.136 93.220 18.452 89.575 19.633 87.204 C 20.127 86.214 20.683 85.263 21.221 84.297 C 21.399 83.979 21.868 83.364 21.760 82.964 C 21.463 81.866 18.058 79.674 19.630 78.415 C 20.554 77.675 20.547 76.630 20.451 75.527 C 20.205 72.698 18.872 70.806 17.149 68.683 L 17.149 68.683 Z M 21.329 41.014 C 21.272 40.894 20.870 40.848 20.955 41.022 C 21.792 42.777 23.141 44.140 24.918 44.947 C 26.458 45.648 28.665 46.517 30.386 46.382 C 31.704 46.279 33.096 45.599 33.793 44.444 C 34.537 43.213 33.123 42.376 32.172 41.990 C 31.991 41.917 31.752 42.055 32.013 42.160 C 33.668 42.831 34.069 44.141 32.594 45.214 C 31.337 46.129 30.183 46.232 28.689 45.912 C 25.575 45.246 22.767 44.027 21.329 41.014 L 21.329 41.014 Z M 20.102 39.363 C 20.423 39.260 20.020 38.933 19.793 39.005 C 15.996 40.210 12.185 42.050 9.122 44.628 C 8.887 44.828 9.355 45.086 9.534 44.936 C 12.575 42.377 16.333 40.559 20.102 39.363 L 20.102 39.363 Z M 40.483 43.583 C 40.168 43.495 40.117 43.688 40.432 43.776 C 44.200 44.832 46.121 48.086 48.786 50.650 C 51.198 52.974 54.308 54.207 57.440 55.260 C 57.653 55.333 57.992 55.233 57.631 55.112 C 55.288 54.323 52.889 53.454 50.849 52.022 C 49.481 51.062 48.339 49.754 47.224 48.522 C 45.233 46.321 43.440 44.409 40.483 43.583 L 40.483 43.583 Z M 42.307 62.073 C 42.264 61.941 41.748 61.881 41.778 61.977 C 42.274 63.499 43.674 64.742 44.880 65.714 C 46.600 67.100 48.488 68.295 50.484 69.240 C 53.257 70.557 57.862 72.488 60.705 70.335 C 60.776 70.281 60.316 70.068 60.200 70.155 C 57.184 72.439 52.219 70.037 49.412 68.467 C 46.939 67.086 43.249 64.974 42.307 62.073 L 42.307 62.073 Z M 62.768 55.770 C 62.925 55.573 62.413 55.372 62.276 55.543 C 60.074 58.288 59.291 61.662 62.087 64.252 C 63.691 65.736 66.514 66.683 68.110 64.715 C 68.268 64.519 67.756 64.317 67.617 64.488 C 65.848 66.668 62.608 64.797 61.431 62.875 C 59.949 60.451 61.153 57.784 62.768 55.770 L 62.768 55.770 Z M 67.755 63.692 C 67.660 63.564 67.125 63.507 67.263 63.690 C 68.868 65.856 66.070 68.762 64.127 69.586 C 60.589 71.086 58.076 68.549 56.695 65.529 C 56.621 65.367 56.096 65.310 56.162 65.456 C 57.493 68.362 59.906 70.935 63.357 70.247 C 65.790 69.760 69.725 66.348 67.755 63.692 L 67.755 63.692 Z M 55.879 58.681 C 55.894 58.910 56.438 58.995 56.419 58.727 C 56.307 56.860 57.498 55.140 59.115 54.270 C 60.981 53.267 63.061 53.463 63.609 55.791 C 63.662 56.017 64.209 56.087 64.150 55.838 C 62.904 50.540 55.626 54.458 55.879 58.681 L 55.879 58.681 Z M 20.225 61.060 C 20.248 60.970 19.983 60.899 19.956 60.989 C 19.581 62.390 18.049 63.286 16.752 63.690 C 16.648 63.723 16.888 63.839 16.965 63.816 C 18.287 63.403 19.844 62.483 20.225 61.060 L 20.225 61.060 Z M 17.486 63.719 C 17.480 63.559 16.945 63.442 16.953 63.645 C 17.044 65.955 16.513 68.126 16.120 70.385 C 16.089 70.568 16.627 70.695 16.655 70.530 C 17.050 68.246 17.578 66.053 17.486 63.719 L 17.486 63.719 Z M 10.689 76.510 C 10.372 76.406 10.317 76.642 10.625 76.743 C 13.076 77.548 15.440 75.779 16.700 73.778 C 18.142 71.488 15.946 68.948 13.859 68.070 C 13.630 67.975 13.310 68.112 13.657 68.258 C 15.752 69.141 17.533 71.689 16.052 73.817 C 14.901 75.469 12.844 77.218 10.689 76.510 L 10.689 76.510 Z M 7.218 64.498 C 7.591 64.565 7.363 64.298 7.129 64.255 C 3.997 63.684 0.119 66.388 0.002 69.729 C -0.100 72.639 2.363 74.210 4.999 74.446 C 5.354 74.478 4.939 74.207 4.777 74.191 C 2.088 73.951 -0.289 71.633 0.751 68.815 C 1.697 66.251 4.354 63.974 7.218 64.498 L 7.218 64.498 Z M 10.029 44.644 C 10.239 44.533 9.743 44.320 9.598 44.396 C 7.725 45.380 5.727 46.845 5.286 49.042 C 5.038 50.281 5.020 51.521 4.926 52.777 C 4.829 54.112 4.616 55.435 4.518 56.768 C 4.323 59.437 4.163 61.418 2.448 63.606 C 1.885 64.326 0.485 65.863 1.419 66.747 C 1.536 66.859 2.067 66.884 1.844 66.674 C 0.867 65.751 3.353 63.370 3.865 62.574 C 5.078 60.689 4.871 58.539 5.098 56.418 C 5.338 54.179 5.298 51.797 5.742 49.590 C 6.216 47.217 7.954 45.734 10.029 44.644 L 10.029 44.644 Z M 2.937 77.632 C 2.841 77.587 2.466 77.566 2.706 77.684 C 4.774 78.697 6.663 79.503 9.010 79.270 C 9.209 79.250 8.834 79.100 8.749 79.108 C 6.584 79.321 4.825 78.557 2.937 77.632 L 2.937 77.632 Z M 8.729 79.045 C 8.627 79.066 8.971 79.211 9.059 79.191 C 10.442 78.899 12.049 78.090 12.666 76.748 C 12.693 76.691 12.307 76.552 12.266 76.641 C 11.667 77.947 10.079 78.760 8.729 79.045 L 8.729 79.045 Z " transform="matrix(1, 0, 0, 1, 0.65, 0)"/>
    <path id="linesHead" fill="#010101" d="M 20.643 28.266 C 20.704 28.071 20.303 27.961 20.240 28.158 C 19.979 28.990 19.458 29.909 18.406 29.541 C 17.930 29.374 17.500 29.146 17.086 28.856 C 16.375 28.359 15.656 27.800 15.195 27.050 C 14.555 26.012 14.256 24.764 14.654 23.570 C 15.069 22.329 15.897 21.075 17.413 22.004 C 17.617 22.127 17.827 21.889 17.598 21.747 C 14.405 19.793 13.394 25.157 14.858 27.185 C 16.148 28.976 19.601 31.581 20.643 28.266 L 20.643 28.266 Z M 16.101 26.651 C 16.178 26.622 16.301 26.704 16.374 26.836 C 16.324 26.902 17.243 27.955 18.542 27.628 C 19.145 27.524 19.805 27.390 20.237 27.634 C 20.629 27.977 20.289 28.358 20.364 28.332 C 20.298 28.362 20.590 27.952 20.212 27.673 C 19.804 27.472 19.165 27.631 18.573 27.776 C 17.238 28.226 16.070 27.108 16.123 27.002 C 16.032 26.839 16.025 26.682 16.101 26.651 Z M 19.668 25.493 C 19.618 25.560 19.464 25.509 19.322 25.379 C 19.162 25.403 18.433 24.103 17.334 23.395 C 16.733 23.142 15.988 23.205 15.603 23.517 C 15.219 23.856 15.329 24.272 15.291 24.250 C 15.332 24.270 15.191 23.862 15.573 23.480 C 15.962 23.128 16.723 23.018 17.392 23.253 C 18.641 23.975 19.374 25.195 19.523 25.153 C 19.652 25.274 19.716 25.427 19.668 25.493 Z M 37.762 29.265 C 37.873 29.221 37.629 29.104 37.548 29.134 C 37.077 29.322 36.685 29.821 36.150 29.820 C 35.383 29.817 35.224 29.062 35.593 28.524 C 35.656 28.435 35.397 28.346 35.345 28.420 C 34.975 28.960 35.090 29.712 35.783 29.911 C 36.085 29.998 36.488 30.020 36.772 29.857 C 37.102 29.666 37.406 29.407 37.762 29.265 L 37.762 29.265 Z M 38.199 29.372 C 38.017 29.383 38.184 29.548 38.300 29.542 C 38.998 29.498 40.582 29.142 40.503 28.163 C 40.458 27.602 40.111 27.247 39.633 26.983 C 39.254 26.775 38.786 26.612 38.496 26.285 C 38.177 25.924 37.959 25.382 37.792 24.921 C 37.756 24.823 37.486 24.789 37.523 24.894 C 37.854 25.812 38.202 26.419 39.082 26.878 C 39.855 27.279 40.837 28.246 39.710 28.913 C 39.244 29.187 38.738 29.339 38.199 29.372 L 38.199 29.372 Z M 39.993 21.556 C 40.073 21.686 40.604 21.759 40.485 21.566 C 40.088 20.915 40.420 19.707 40.467 18.982 C 40.537 17.937 40.367 16.979 39.746 16.115 C 39.657 15.991 39.126 15.927 39.254 16.105 C 40.068 17.236 39.932 18.430 39.852 19.735 C 39.818 20.284 39.690 21.057 39.993 21.556 L 39.993 21.556 Z M 40.441 21.587 C 40.409 21.451 40.005 21.388 40.040 21.537 C 40.306 22.700 41.288 23.451 41.723 24.542 C 42.290 25.965 42.528 27.336 42.255 28.864 C 41.790 31.477 40.541 33.734 39.605 36.183 C 39.555 36.311 39.952 36.431 40.004 36.290 C 41.031 33.605 42.561 31.057 42.764 28.119 C 42.849 26.903 42.625 25.706 42.123 24.591 C 41.651 23.544 40.699 22.722 40.441 21.587 L 40.441 21.587 Z M 40.167 35.834 C 40.203 35.736 39.807 35.615 39.765 35.727 C 39.452 36.590 39.186 37.996 38.417 38.589 C 37.594 39.225 36.558 39.358 35.545 39.409 C 32.749 39.555 30.010 38.797 27.604 37.374 C 24.570 35.581 20.711 33.311 20.237 29.487 C 20.223 29.381 19.824 29.301 19.839 29.424 C 20.123 31.714 21.600 33.441 23.391 34.790 C 25.274 36.208 27.324 37.641 29.526 38.505 C 31.744 39.375 34.106 39.844 36.491 39.536 C 37.431 39.415 38.344 39.230 39.007 38.502 C 39.628 37.817 39.859 36.683 40.167 35.834 L 40.167 35.834 Z M 32.288 39.491 C 32.307 39.365 31.767 39.256 31.752 39.347 C 31.566 40.671 31.348 42.067 32.379 43.095 C 32.464 43.181 32.963 43.248 32.860 43.145 C 31.871 42.159 32.109 40.751 32.288 39.491 L 32.288 39.491 Z M 39.368 16.634 C 39.432 16.884 39.984 16.941 39.911 16.668 C 38.930 12.870 36.850 9.788 32.837 8.930 C 32.504 8.858 32.395 9.251 32.733 9.323 C 36.510 10.131 38.448 13.074 39.368 16.634 L 39.368 16.634 Z M 36.947 23.024 C 36.971 23.056 37.106 23.068 37.071 23.025 C 36.228 21.958 36.859 19.272 37.864 18.463 C 37.898 18.436 37.775 18.384 37.740 18.412 C 36.712 19.238 36.077 21.923 36.947 23.024 L 36.947 23.024 Z M 20.516 31.640 C 20.554 31.742 20.940 31.783 20.912 31.711 C 20.907 31.691 20.899 31.672 20.891 31.652 C 20.853 31.550 20.469 31.509 20.495 31.582 C 21.215 33.504 21.766 37.162 20.248 38.862 C 20.187 38.931 20.560 39.073 20.625 38.999 C 22.166 37.273 21.637 33.645 20.891 31.652 C 20.851 31.550 20.467 31.509 20.495 31.582 C 20.502 31.602 20.509 31.621 20.516 31.640 L 20.516 31.640 Z " transform="matrix(1, 0, 0, 1, 0.65, 0)"/>
    <path id="linesMouth" fill="#010101" d="M 40.365 31.533 C 40.346 31.569 40.601 31.667 40.631 31.605 C 41.086 30.696 40.557 30.325 39.683 30.358 C 38.120 30.419 36.698 31.908 35.659 32.908 C 35.626 32.940 35.865 33.042 35.912 32.997 C 36.630 32.305 37.372 31.570 38.246 31.073 C 38.640 30.849 39.075 30.607 39.524 30.516 C 40.545 30.308 40.677 30.911 40.365 31.533 L 40.365 31.533 Z M 39.446 33.463 C 39.280 33.435 39.225 33.620 39.394 33.648 C 39.687 33.698 39.890 34.504 39.805 34.718 C 39.650 35.115 39.286 35.380 38.896 35.527 C 37.830 35.930 36.696 35.895 35.622 35.541 C 35.458 35.487 35.411 35.675 35.572 35.729 C 36.876 36.158 38.575 36.219 39.708 35.322 C 39.990 35.098 40.200 34.684 40.075 34.322 C 39.982 34.049 39.777 33.521 39.446 33.463 L 39.446 33.463 Z M 40.605 31.635 C 40.712 31.560 40.465 31.450 40.393 31.503 C 38.806 32.612 36.876 33.068 35.148 33.899 C 35.102 33.920 35.121 33.961 35.146 33.989 C 35.831 34.764 37.257 34.415 38.159 34.192 C 38.628 34.075 39.097 34.089 39.391 33.671 C 39.744 33.170 39.330 32.527 39.814 32.078 C 39.888 32.008 39.635 31.905 39.566 31.973 C 38.962 32.531 39.670 33.715 38.592 33.911 C 37.912 34.034 37.256 34.236 36.559 34.249 C 36.747 34.246 34.885 34.236 35.597 33.916 C 37.262 33.166 39.093 32.692 40.605 31.635 L 40.605 31.635 Z " transform="matrix(1, 0, 0, 1, 0.65, 0)"/>
    <path id="linesEyes" fill="#010101" d="M 40.310 19.469 C 40.272 19.393 40.013 19.367 40.043 19.430 C 40.206 19.754 39.890 19.921 39.618 19.992 C 39.555 20.010 39.621 20.066 39.646 20.081 C 39.701 20.109 39.772 20.126 39.834 20.109 C 40.137 20.028 40.492 19.825 40.310 19.469 L 40.310 19.469 Z M 30.427 21.735 C 30.614 21.752 30.525 21.597 30.390 21.587 C 29.590 21.519 28.804 21.398 28.048 21.116 C 27.927 21.071 27.768 21.163 27.944 21.227 C 28.745 21.526 29.577 21.663 30.427 21.735 L 30.427 21.735 Z M 28.698 21.874 C 28.881 21.885 28.803 21.718 28.664 21.711 C 28.179 21.683 27.702 21.664 27.267 21.420 C 27.171 21.366 26.940 21.425 27.097 21.514 C 27.602 21.796 28.129 21.840 28.698 21.874 L 28.698 21.874 Z M 27.919 22.135 C 28.076 22.083 27.864 21.935 27.759 21.971 C 27.304 22.122 26.781 22 26.363 21.788 C 26.235 21.723 26.086 21.843 26.251 21.926 C 26.746 22.177 27.381 22.316 27.919 22.135 L 27.919 22.135 Z M 36.920 21.907 C 36.917 22.021 37.321 22.084 37.322 22.015 C 37.340 21.315 37.600 20.589 38.255 20.244 C 38.810 19.954 39.561 19.904 39.811 20.596 C 39.848 20.698 40.234 20.740 40.207 20.666 C 39.975 20.024 39.165 19.785 38.540 19.886 C 37.510 20.050 36.946 20.906 36.920 21.907 L 36.920 21.907 Z M 37.160 22.063 C 37.127 22.046 37.002 22.044 37.080 22.084 C 37.596 22.339 38.118 22.478 38.674 22.270 C 39.265 22.049 39.790 21.484 40.151 20.986 C 40.162 20.969 40.041 20.916 40.016 20.950 C 39.346 21.876 38.379 22.668 37.160 22.063 L 37.160 22.063 Z M 32.399 22.697 C 32.407 22.885 32.817 22.940 32.807 22.726 C 32.746 21.586 31.027 21.466 30.181 21.467 C 28.365 21.471 27.044 22.403 25.584 23.380 C 25.391 23.510 25.739 23.721 25.893 23.616 C 27.034 22.853 28.198 21.902 29.624 21.792 C 30.327 21.737 32.344 21.644 32.399 22.697 L 32.399 22.697 Z M 32.774 22.748 C 32.786 22.628 32.517 22.563 32.505 22.676 C 32.362 23.972 30.128 24.174 29.100 24.242 C 27.750 24.334 26.963 23.933 25.796 23.429 C 25.663 23.372 25.513 23.499 25.682 23.572 C 27.209 24.233 28.149 24.605 29.876 24.348 C 30.846 24.203 32.635 23.980 32.774 22.748 L 32.774 22.748 Z M 39.756 19.345 C 39.748 19.306 39.616 19.283 39.624 19.324 C 39.680 19.606 39.454 19.785 39.198 19.828 C 39.125 19.839 39.246 19.897 39.282 19.891 C 39.564 19.845 39.819 19.657 39.756 19.345 L 39.756 19.345 Z M 39.158 19.341 C 39.146 19.280 39.008 19.264 39.022 19.331 C 39.078 19.602 38.865 19.769 38.617 19.811 C 38.527 19.826 38.597 19.920 38.663 19.909 C 38.952 19.862 39.223 19.665 39.158 19.341 L 39.158 19.341 Z M 28.715 21.751 C 28.607 21.684 28.383 21.778 28.537 21.873 C 29.552 22.486 29.726 23.616 28.599 24.210 C 28.466 24.279 28.702 24.419 28.805 24.364 C 29.294 24.106 29.782 23.634 29.681 23.022 C 29.587 22.449 29.197 22.043 28.715 21.751 L 28.715 21.751 Z M 38.404 20.134 C 38.329 20.098 38.083 20.110 38.244 20.190 C 39.083 20.599 38.949 21.797 38.199 22.213 C 38.147 22.242 38.375 22.352 38.449 22.311 C 39.311 21.832 39.287 20.566 38.404 20.134 L 38.404 20.134 Z M 26.246 23.381 C 26.240 23.301 25.973 23.246 25.977 23.349 C 25.985 23.442 26.014 23.510 26.062 23.590 C 26.092 23.646 26.285 23.705 26.319 23.627 C 26.340 23.580 26.353 23.528 26.369 23.479 C 26.280 23.454 26.190 23.430 26.100 23.407 C 26.100 23.449 26.100 23.490 26.100 23.532 C 26.100 23.628 26.369 23.675 26.369 23.604 C 26.369 23.494 26.372 23.387 26.394 23.279 C 26.305 23.260 26.214 23.242 26.125 23.224 C 26.136 23.328 26.171 23.422 26.200 23.524 C 26.218 23.589 26.449 23.667 26.467 23.579 C 26.519 23.348 26.595 23.138 26.736 22.943 C 26.653 22.909 26.569 22.877 26.486 22.842 C 26.280 23.167 26.272 23.482 26.512 23.791 C 26.587 23.785 26.664 23.780 26.741 23.775 C 26.570 23.660 26.369 23.590 26.216 23.450 C 26.159 23.398 25.896 23.380 26.005 23.482 C 26.160 23.624 26.358 23.691 26.530 23.807 C 26.566 23.829 26.837 23.892 26.759 23.791 C 26.546 23.515 26.554 23.228 26.738 22.938 C 26.790 22.855 26.534 22.774 26.488 22.837 C 26.342 23.040 26.256 23.257 26.204 23.501 C 26.292 23.520 26.382 23.537 26.472 23.557 C 26.444 23.456 26.408 23.361 26.398 23.256 C 26.391 23.185 26.148 23.122 26.129 23.201 C 26.109 23.308 26.107 23.417 26.107 23.525 C 26.196 23.549 26.286 23.574 26.375 23.597 C 26.375 23.555 26.375 23.513 26.375 23.472 C 26.375 23.387 26.133 23.314 26.107 23.400 C 26.089 23.450 26.076 23.501 26.055 23.549 C 26.141 23.562 26.226 23.572 26.313 23.586 C 26.267 23.515 26.253 23.462 26.246 23.381 L 26.246 23.381 Z " transform="matrix(1, 0, 0, 1, 0.65, 0)"/>
    <path id="linesEyebrows" fill="#010101" d="M 32.288 19.248 C 33.015 19.243 32.798 18.472 32.189 18.476 C 30.879 18.483 29.501 18.002 28.205 18.307 C 26.996 18.590 25.983 19.235 24.923 19.857 C 24.407 20.158 25.352 20.703 25.749 20.468 C 26.847 19.823 28.091 18.886 29.437 18.998 C 30.391 19.077 31.328 19.253 32.288 19.248 L 32.288 19.248 Z M 37.323 18.745 C 37.279 18.906 37.814 19.051 37.858 18.888 C 38.122 17.905 39.286 17.420 40.051 16.885 C 40.173 16.800 39.696 16.586 39.551 16.687 C 38.763 17.238 37.596 17.728 37.323 18.745 L 37.323 18.745 Z " transform="matrix(1, 0, 0, 1, 0.65, 0)"/>
    <path id="linesHair" fill="#010101" d="M 19.384 20.742 C 19.436 20.837 19.706 20.847 19.638 20.721 C 18.881 19.323 17.721 18.340 17.675 16.612 C 17.620 14.527 19.269 13.280 20.882 12.232 C 24.154 10.108 27.519 9.407 31.321 10.275 C 31.485 10.313 31.532 10.146 31.366 10.108 C 27.558 9.238 23.940 9.839 20.673 12.087 C 19.183 13.112 17.539 14.227 17.398 16.173 C 17.252 18.149 18.535 19.176 19.384 20.742 L 19.384 20.742 Z M 31.696 10.358 C 31.876 10.385 31.821 10.181 31.673 10.160 C 30.709 10.009 29.572 9.132 28.636 8.796 C 27.790 8.489 26.917 8.213 26.020 8.114 C 24.036 7.900 22.093 8.311 20.156 8.704 C 19.976 8.739 20.114 8.929 20.247 8.901 C 22.343 8.477 24.569 7.944 26.702 8.422 C 27.793 8.666 28.841 9.042 29.859 9.508 C 30.531 9.817 30.974 10.245 31.696 10.358 L 31.696 10.358 Z M 31.685 10.222 C 31.656 10.290 31.915 10.376 31.954 10.293 C 32.362 9.380 33.751 8.156 32.971 7.047 C 32.415 6.257 31.540 5.907 30.640 5.641 C 27.813 4.806 25.568 4.277 22.634 4.827 C 22.489 4.855 22.730 4.973 22.801 4.959 C 24.041 4.727 25.324 4.499 26.586 4.705 C 27.743 4.893 28.859 5.247 29.982 5.571 C 31.148 5.909 33.553 6.599 32.807 8.319 C 32.510 9.003 31.990 9.542 31.685 10.222 L 31.685 10.222 Z M 35.802 10.548 C 35.710 10.750 36.240 10.909 36.338 10.693 C 37.284 8.616 36.085 6.065 34.151 4.990 C 31.671 3.613 29.131 3.074 26.320 3.282 C 25.955 3.308 26.274 3.656 26.512 3.638 C 28.905 3.461 30.991 3.838 33.156 4.876 C 35.254 5.882 36.863 8.225 35.802 10.548 L 35.802 10.548 Z M 19.621 20.696 C 19.547 20.613 19.288 20.642 19.401 20.766 C 19.925 21.349 20.042 22.145 20.059 22.904 C 20.068 23.258 20.059 23.610 20.057 23.964 C 20.055 24.252 19.383 23.675 19.313 23.589 C 18.778 22.945 18.420 22.009 17.563 21.735 C 17.400 21.683 17.357 21.854 17.517 21.905 C 18.706 22.284 18.780 24.211 20.205 24.223 C 20.263 24.224 20.326 24.210 20.326 24.143 C 20.332 22.977 20.461 21.628 19.621 20.696 L 19.621 20.696 Z M 18.633 0.739 C 18.996 0.709 18.686 0.355 18.443 0.378 C 14.424 0.732 10.186 2.397 7.132 5.068 C 3.953 7.851 2.063 11.879 0.974 15.906 C 0.474 17.755 0.078 19.769 0.192 21.697 C 0.240 22.512 0.452 23.202 1.368 23.180 C 2.625 23.150 3.311 21.246 3.646 20.316 C 4.352 18.357 5.018 16.270 6.334 14.625 C 6.494 14.423 5.984 14.221 5.842 14.396 C 4.866 15.616 4.204 17.132 3.670 18.593 C 3.238 19.775 2.848 21.980 1.629 22.614 C 0.575 23.164 0.711 21.781 0.735 21.214 C 0.776 20.260 0.827 19.304 0.993 18.362 C 1.297 16.629 1.790 14.946 2.434 13.308 C 3.708 10.063 5.365 6.910 8.246 4.800 C 11.279 2.582 14.874 1.072 18.633 0.739 L 18.633 0.739 Z M 11.975 25.536 C 12.010 25.450 11.620 25.318 11.578 25.429 C 11.245 26.197 11.017 27.131 10.561 27.841 C 10.084 28.581 7.769 31.781 7.129 29.468 C 6.368 26.714 6.970 23.712 8.987 21.673 C 9.060 21.597 8.689 21.450 8.610 21.530 C 7.321 22.831 6.548 24.473 6.423 26.343 C 6.357 27.329 6.226 30.071 7.490 30.479 C 9.914 31.263 11.264 27.179 11.975 25.536 L 11.975 25.536 Z M 5.278 16.298 C 5.343 16.169 4.952 16.043 4.877 16.191 C 4.156 17.569 3.772 19.354 3.453 20.871 C 3.166 22.238 2.798 23.975 3.270 25.357 C 3.539 26.147 3.951 26.667 4.810 26.735 C 5.790 26.815 6.415 25.722 6.872 25.045 C 6.973 24.897 6.584 24.758 6.501 24.882 C 6.264 25.232 6.044 25.639 5.737 25.933 C 4.868 26.764 3.785 26.174 3.597 25.107 C 3.415 24.074 3.475 23.014 3.659 21.984 C 3.985 20.153 4.407 17.960 5.278 16.298 L 5.278 16.298 Z M 19.244 31.016 C 19.319 30.848 18.921 30.732 18.841 30.910 C 18.279 32.190 17.645 33.463 16.832 34.607 C 16.519 35.048 16.191 35.591 15.734 35.903 C 15.148 36.301 14.504 36.014 14.545 35.280 C 14.575 34.770 14.508 34.229 14.607 33.726 C 14.755 32.933 15.072 32.170 15.355 31.418 C 15.420 31.244 15.022 31.130 14.954 31.311 C 14.599 32.256 14.151 33.242 14.160 34.272 C 14.164 34.876 13.901 36.089 14.622 36.399 C 15.400 36.732 16.163 36.143 16.628 35.550 C 17.712 34.169 18.537 32.620 19.244 31.016 L 19.244 31.016 Z M 16.327 29.406 C 16.419 29.246 16.031 29.112 15.954 29.240 C 15.349 30.310 14.793 31.423 14.110 32.445 C 13.686 33.080 11.497 36.292 10.885 33.799 C 10.180 30.925 10.859 27.941 11.948 25.232 C 12.006 25.088 11.610 24.971 11.547 25.126 C 10.866 26.819 10.152 29.009 10.130 30.840 C 10.121 31.776 10.050 34.540 11.188 35.023 C 12.272 35.484 13.088 34.535 13.691 33.729 C 14.707 32.365 15.492 30.882 16.327 29.406 L 16.327 29.406 Z M 18.554 32.603 C 18.575 32.490 18.172 32.393 18.153 32.495 C 17.961 33.458 17.962 34.460 18.109 35.433 C 18.198 36.023 18.336 36.745 18.754 37.203 C 19.687 38.224 20.702 37.180 21.288 36.340 C 21.330 36.279 20.961 36.125 20.886 36.233 C 20.627 36.602 19.698 37.972 19.120 37.222 C 18.869 36.896 18.716 36.501 18.622 36.104 C 18.356 34.969 18.326 33.744 18.554 32.603 L 18.554 32.603 Z " transform="matrix(1, 0, 0, 1, 0.65, 0)"/>
    <path id="linesHeadband" fill="#010101" d="M 30.298 3.798 C 30.338 3.855 30.601 3.892 30.541 3.812 C 29.367 2.163 27.055 1.750 25.155 1.731 C 22.404 1.706 19.777 2.741 17.715 4.576 C 15.270 6.754 13.764 9.660 13.619 12.965 C 13.500 15.709 14 19.510 16.164 21.457 C 16.215 21.504 16.473 21.529 16.408 21.471 C 14.517 19.768 13.832 16.290 13.863 13.868 C 13.899 11.287 14.539 8.622 16.172 6.563 C 17.851 4.449 20.235 2.628 22.923 2.067 C 25.282 1.574 28.774 1.656 30.298 3.798 L 30.298 3.798 Z M 30.512 3.667 C 30.571 3.745 30.841 3.757 30.765 3.653 C 26.812 -1.700 17.226 -0.667 12.827 3.521 C 7.193 8.885 8.112 18.219 14.193 22.860 C 14.284 22.930 14.507 22.875 14.363 22.765 C 9.046 18.706 7.357 10.186 11.876 4.894 C 14.321 2.029 17.481 0.657 21.168 0.351 C 24.672 0.060 28.298 0.669 30.512 3.667 L 30.512 3.667 Z " transform="matrix(1, 0, 0, 1, 0.65, 0)"/>
    <path id="linesGlasses" fill="#010101" d="M 32.998 21.083 C 32.907 20.905 32.368 20.865 32.494 21.113 C 32.885 21.883 33.248 22.676 33.336 23.545 C 33.410 24.274 31.830 24.546 31.246 24.697 C 29.654 25.113 27.964 25.504 26.319 25.592 C 25.183 25.653 25.248 24.585 25.105 23.955 C 24.916 23.123 25.275 23.015 26.077 22.761 C 26.852 22.519 27.634 22.313 28.430 22.153 C 29.886 21.860 31.374 21.456 32.846 21.269 C 33.207 21.224 32.876 20.903 32.648 20.932 C 29.923 21.274 26.889 21.858 24.384 22.994 C 24.348 23.010 24.310 23.063 24.325 23.105 C 24.667 23.980 24.563 25.014 25.297 25.684 C 25.717 26.067 26.453 25.939 26.946 25.876 C 29.311 25.570 31.638 25.124 33.861 24.239 C 33.907 24.222 33.923 24.173 33.920 24.129 C 33.839 23.020 33.500 22.068 32.998 21.083 L 32.998 21.083 Z M 36.500 20.664 C 36.330 20.829 36.837 21.040 36.993 20.890 C 38.019 19.895 39.787 19.379 41.183 19.290 C 41.547 19.266 41.223 18.922 40.989 18.938 C 39.479 19.034 37.608 19.591 36.500 20.664 L 36.500 20.664 Z M 41.352 19.154 C 41.288 19.003 40.767 18.944 40.821 19.071 C 41.196 19.962 41.057 20.963 41.050 21.903 C 41.048 22.082 41.584 22.172 41.585 22.048 C 41.593 21.091 41.735 20.061 41.352 19.154 L 41.352 19.154 Z M 41.532 22.098 C 41.741 22.010 41.251 21.791 41.103 21.853 C 39.752 22.415 38.330 22.688 36.948 23.146 C 37.108 23.200 37.267 23.252 37.428 23.306 C 37.154 22.489 36.913 21.721 36.920 20.848 C 36.922 20.651 36.387 20.555 36.385 20.703 C 36.378 21.593 36.614 22.391 36.896 23.230 C 36.949 23.391 37.240 23.435 37.375 23.390 C 38.760 22.932 40.179 22.660 41.532 22.098 L 41.532 22.098 Z M 36.433 22.004 C 36.489 22.171 37.022 22.245 36.965 22.078 C 36.405 20.349 33.457 22 33.303 23.266 C 33.280 23.454 33.818 23.572 33.837 23.410 C 33.905 22.869 34.332 22.432 34.771 22.142 C 35.179 21.870 36.199 21.276 36.433 22.004 L 36.433 22.004 Z M 17.215 21.296 C 16.600 21.473 17.500 22.010 17.863 21.904 C 19.217 21.515 20.634 22.953 21.953 23.241 C 22.812 23.429 23.624 23.585 24.504 23.651 C 25.244 23.709 24.911 23.062 24.369 23.021 C 22.828 22.903 21.594 22.580 20.242 21.821 C 19.258 21.270 18.327 20.977 17.215 21.296 L 17.215 21.296 Z " transform="matrix(1, 0, 0, 1, 0.65, 0)"/>
  </g>
</svg>