<svg width="70px" height="132px" viewBox="0 0 70 132" version="1.1" xml:space="preserve" xmlns="http://www.w3.org/2000/svg" xmlns:xlink="http://www.w3.org/1999/xlink">
  <!-- Generator: Sketch 50.2 (55047) - http://www.bohemiancoding.com/sketch -->
  <defs/>
  <g>
    <title>Slice 1</title>
    <desc>Created with Sketch.</desc>
    <g id="Page-1" stroke="none" stroke-width="1" fill="none" fill-rule="evenodd">
      <g id="pants-b-[people,fashion,pants]" transform="translate(1.000000, 1.000000)">
        <g id="Color" transform="translate(0.000000, 4.642857)" fill-rule="nonzero">
          <path d="M5.37818182,35.7345238 C5.37818182,25.5821429 7.77363636,10.3535714 9.39636364,0.95952381 L6.30545455,0.95952381 C3.9434709,8.94486397 2.34954759,17.1381177 1.54545455,25.427381 C-0.139090909,42.3428571 0.85,75.4 1.39090909,87.502381 C2.24090909,106.39881 6.27454545,117.52619 6.27454545,117.52619 L9.36545455,117.52619 C3.97181818,86.372619 5.25454545,60.3571429 5.37818182,35.7345238 Z" id="Shape" fill="#EAADCB"/>
          <path d="M66.4545455,25.427381 C65.6657713,17.1457193 64.113705,8.95487439 61.8181818,0.95952381 L58.5727273,0.95952381 C60.2263636,10.3690476 62.6372727,25.5821429 62.8690909,35.7345238 C63.2863636,53.7797619 62.8690909,84.9333333 60.35,117.52619 L63.2090909,117.52619 C65.1545646,107.627669 66.2865365,97.5861118 66.5936364,87.502381 C67.1345455,75.4 68.0772727,42.3428571 66.4545455,25.427381 Z" id="Shape" fill="#FCDBEB"/>
          <path d="M62.7763636,35.7345238 C62.5445455,25.5821429 60.1336364,10.3690476 58.48,0.95952381 L9.39636364,0.95952381 C7.85090909,10.3535714 5.44,25.5821429 5.37818182,35.7345238 C5.25454545,60.3571429 3.97181818,86.372619 9.42727273,117.52619 L24.2172727,117.52619 C27.0558213,107.791836 28.685679,97.744296 29.07,87.6107143 C29.5954545,76.4833333 31.7745455,49.3071429 32.3309091,28.8011905 L35.7154545,28.8011905 C37.2609091,47.4809524 39.0072727,73.6821429 39.9345455,87.6107143 C40.5272794,97.7971695 42.3752324,107.871182 45.4363636,117.603571 L60.2727273,117.603571 C62.8072727,84.9333333 63.1936364,53.7797619 62.7763636,35.7345238 Z" id="Shape" fill="#F7C1D8"/>
        </g>
        <polygon id="Shape" stroke="#DA53D6" stroke-width="1.24" fill="#DA53D6" fill-rule="nonzero" stroke-linecap="round" stroke-linejoin="round" points="61.3060479 0 33.9922404 0 7.08193229 0 6.18181818 6.19047619 61.8181818 6.19047619"/>
        <g id="Bow" stroke-linecap="round" stroke-linejoin="round" transform="translate(23.181818, 9.285714)" stroke="#DB20A5" stroke-width="1.643">
          <path d="M11.3436364,4.78214286 C9.37136484,2.70200876 6.65014494,1.49831402 3.78636364,1.43928571 C2.16414286,1.4401598 0.801997755,2.66236965 0.623723072,4.27702338 C0.445448388,5.8916771 1.50806214,7.38235617 3.09090909,7.73809524 C6.95454545,8.79047619 11.3436364,4.78214286 11.3436364,4.78214286 Z" id="Shape"/>
          <path d="M11.3436364,4.78214286 C11.3436364,4.78214286 11.1272727,10.2297619 5.84181818,16.7916667" id="Shape"/>
          <path d="M11.3436364,4.78214286 C13.3159079,2.70200876 16.0371277,1.49831402 18.9009091,1.43928571 C20.6506475,1.25551954 22.2178545,2.52697755 22.4013636,4.27916667 C22.5848728,6.03135579 21.315193,7.60075764 19.5654545,7.78452381 C15.7327273,8.79047619 11.3436364,4.78214286 11.3436364,4.78214286 Z" id="Shape"/>
          <path d="M11.3436364,4.78214286 C11.3436364,4.78214286 11.56,10.2297619 16.8454545,16.7916667" id="Shape"/>
        </g>
        <g id="Outline" stroke-linecap="round" stroke-linejoin="round" transform="translate(0.000000, 4.642857)" stroke="#DA53D6" stroke-width="1.24">
          <polygon id="Shape" fill="#F7C1D8" fill-rule="nonzero" points="23.0890909 125.310714 7.24818182 125.310714 6.32090909 117.52619 24.2172727 117.52619"/>
          <polygon id="Shape" fill="#F7C1D8" fill-rule="nonzero" points="62.4827273 125.310714 46.24 125.310714 45.4363636 117.52619 63.2090909 117.52619"/>
          <path d="M28.3590909,28.7392857 L39.6872727,28.7392857" id="Shape" fill="#F7C1D8" fill-rule="nonzero"/>
          <path d="M66.4545455,25.427381 C65.6657713,17.1457193 64.113705,8.95487439 61.8181818,0.95952381 L6.32090909,0.95952381 C3.95369354,8.94434794 2.35459341,17.1376106 1.54545455,25.427381 C-0.139090909,42.3428571 0.85,75.4 1.39090909,87.502381 C2.24090909,106.39881 6.27454545,117.52619 6.27454545,117.52619 L24.2172727,117.52619 C27.0558213,107.791836 28.685679,97.744296 29.07,87.6107143 C29.5954545,76.4833333 31.7745455,49.3071429 32.3309091,28.8011905 L35.7154545,28.8011905 C37.2609091,47.4809524 39.0072727,73.6821429 39.9345455,87.6107143 C40.5272794,97.7971695 42.3752324,107.871182 45.4363636,117.603571 L63.2090909,117.603571 C65.1545646,107.70505 66.2865365,97.6634928 66.5936364,87.5797619 C67.1345455,75.4 68.0772727,42.3428571 66.4545455,25.427381 Z" id="Shape"/>
        </g>
        <path d="M18.5889823,71.1904762 C19.5389077,72.1037962 20.1037177,73.6442459 20.0906885,75.2861953 C19.9739568,76.7678912 19.4086534,78.1004064 18.5454545,78.9285714" id="Shape" stroke="#EA9DC5" stroke-width="1.24" stroke-linecap="round" stroke-linejoin="round"/>
        <path d="M52.5454545,71.1904762 C53.5120962,72.0892442 54.0943167,73.6322432 54.0908941,75.2861953 C53.9741469,76.7678912 53.4087683,78.1004064 52.5454545,78.9285714" id="Shape" stroke="#EA9DC5" stroke-width="1.24" stroke-linecap="round" stroke-linejoin="round"/>
      </g>
    </g>
  </g>
</svg>