<svg width="85px" height="149px" viewBox="0 0 85 149" version="1.1" xml:space="preserve" xmlns="http://www.w3.org/2000/svg" xmlns:xlink="http://www.w3.org/1999/xlink">
  <!-- Generator: Sketch 52.4 (67378) - http://www.bohemiancoding.com/sketch -->
  <g>
    <title>Slice 1</title>
    <desc>Created with Sketch.</desc>
    <g id="Page-1" stroke="none" stroke-width="1" fill="none" fill-rule="evenodd">
      <g id="pitcher-a-[baseball,sports,people,alex-eben-meyer]">
        <path d="M63.877,81.733 C62.079,80.957 46.016,86.209 46.016,86.209 L61.871,122.602 L71.296,123.025 C71.296,123.025 64.513,83.697 63.877,81.733 Z" id="Shape" fill="#3C3C32"/>
        <g id="Group-7" transform="translate(57.000000, 117.000000)">
          <path d="M22.489,30.396 C21.631,30.227 20.765,30.101 19.893,30.019 C18.881,28.067 15.267,2.851 15.267,2.851 L2.731,2.851 C6.866,11.671 12.931,31.206 12.931,31.206 C12.931,31.206 21.027,31.503 22.489,31.092 L22.489,30.396 Z" id="Shape" fill="#BE0A3C"/>
          <polyline id="Shape" fill="#FFDC00" points="6.391 15.707 18.453 15.707 17.071 6.453 2.535 6.453 6.391 15.707"/>
          <polyline id="Shape" fill="#FFC800" points="16.516 4.307 15.921 0.322 0.326 0.322 1.98 4.307 16.516 4.307"/>
        </g>
        <path d="M39.372,86.203 L17.925,89.383 C17.925,89.383 12.357,117.539 12.357,121.124 C16.19,121.581 19.417,122.682 23.285,122.391 C23.32,122.089 39.372,86.203 39.372,86.203 Z" id="Shape" fill="#3C3C32"/>
        <g id="Group-6" transform="translate(3.000000, 117.000000)">
          <path d="M7.553,2.851 C6.749,7.104 5.54,25.549 4.147,30.133 C3.309,30.31 2.505,30.516 1.707,30.133 C1.377,30.316 1.125,30.61 0.996,30.961 C1.279,31.874 8.981,31.304 10.143,31.321 C12.132,30.75 16.053,18.761 17.342,15.661 C19.077,11.431 22.546,2.822 22.546,2.822 L7.553,2.851 Z" id="Shape" fill="#BE0A3C"/>
          <polyline id="Shape" fill="#FFDC00" points="18.088 15.707 5.517 15.707 5.951 6.453 21.939 6.453 18.088 15.707"/>
          <polyline id="Shape" fill="#FFC800" points="5.997 4.307 6.593 0.322 24.541 0.322 22.887 4.307 5.997 4.307"/>
        </g>
        <path d="M19.394,79.672 C18.746,82.498 17.977,90.65 17.411,93.493 L65.861,95.554 C65.282,92.7 64.022,81.916 63.478,79.084 L19.394,79.672 Z" id="Shape" fill="#3C3C32"/>
        <path d="M66.358,87.71 C65.12,81.259 62.888,69.556 61.732,63.094 C60.865,58.359 59.986,53.629 59.095,48.902 C58.662,46.618 58.627,45.905 57.707,43.718 L26.969,44.289 C25.662,46.641 25.373,50.215 24.696,52.795 C23.893,55.878 23.06,58.943 22.383,62.06 C20.944,68.883 18.7,80.991 17.121,87.784 L66.358,87.71 Z" id="Shape" fill="#FFDC00"/>
        <g id="Group-5" transform="translate(15.000000, 83.000000)">
          <polygon id="Rectangle-path" fill="#BE0A3C" points="0.028 1.576 52.746 1.576 52.746 7.85 0.028 7.85"/>
          <polygon id="Rectangle-path" fill="#FFC800" points="23.314 0.263 30.831 0.263 30.831 8.735 23.314 8.735"/>
          <polygon id="Rectangle-path" fill="#3C3C32" points="35.173 0.263 38.932 0.263 38.932 8.735 35.173 8.735"/>
          <polygon id="Rectangle-path" fill="#3C3C32" points="44.17 0.263 47.929 0.263 47.929 8.735 44.17 8.735"/>
          <polygon id="Rectangle-path" fill="#3C3C32" points="15.906 0.263 19.665 0.263 19.665 8.735 15.906 8.735"/>
          <polygon id="Rectangle-path" fill="#3C3C32" points="4.897 0.263 8.655 0.263 8.655 8.735 4.897 8.735"/>
        </g>
        <g id="Group-4" transform="translate(16.000000, 0.000000)">
          <path d="M23.742,3.304 C24.817,4.453 26.749,3.201 27.94,2.902 C27.94,1.305 27.408,0.8 26.899,0.202 C26.072,0.145 23.505,0.57 23.742,3.304 Z" id="Shape" fill="#3C3C32"/>
          <path d="M48.704,27.402 L47.108,20.426 L15.462,15.174 L3.186,23.811 C3.186,23.811 3.186,38.654 26.107,36.942 C49.028,35.229 48.704,27.402 48.704,27.402 Z" id="Shape" fill="#E6781E"/>
          <path d="M47.108,20.403 C47.727,34.139 34.057,35.378 34.497,35.48 C37.735,35.143 62.252,36.245 62.385,24.559 C62.454,19.296 50.705,20.164 47.108,20.403 Z" id="Shape" fill="#FAB414"/>
          <path d="M10.5,38.278 C10.778,35.526 8.638,31.301 8.118,28.516 C4.967,25.45 3.191,25.775 1.179,29.189 C-1.66,34.013 7.343,39.785 10.5,38.278 Z" id="Shape" fill="#824600"/>
          <path d="M38.539,37.952 C38.261,35.201 38.932,30.394 39.452,27.608 C42.604,24.542 47.102,24.234 47.854,28.864 C48.762,34.378 41.696,39.465 38.539,37.952 Z" id="Shape" fill="#824600"/>
          <path d="M44.032,18.988 C37.498,18.291 8.841,20.306 6.389,21.425 C5.898,23.515 7.574,37.672 8.633,41.338 C9.344,43.809 9.789,46.875 11.055,49.136 C18.22,48.942 37.324,49.347 37.324,49.347 C37.324,49.347 41.06,41.851 42.731,34.458 C43.808,29.374 44.245,24.178 44.032,18.988 Z" id="Shape" fill="#A0640A"/>
          <path d="M19.457,19.444 L43.165,33.014 C44.067,29.503 44.659,25.922 44.934,22.31 C45.183,17.326 44.552,15.956 44.552,15.956 L19.457,19.444 Z" id="Shape" fill="#000000"/>
          <polyline id="Shape" fill="#000000" points="8.361 20.438 30.178 28.784 24.499 18.822 8.361 20.438"/>
          <path d="M24.228,30.417 C22.186,31.501 19.486,36.165 19.486,36.165 L31.444,36.103 C31.444,36.103 29.484,31.73 28.281,30.479 C27.078,29.229 26.274,29.338 24.228,30.417 Z" id="Shape" fill="#824600"/>
          <path d="M47.108,20.403 C47.368,17.766 45.582,14.124 44.483,11.783 C43.165,9.003 41.262,6.97 38.863,5.024 C34.318,1.336 28.125,0.936 22.58,1.97 C17.034,3.003 10.813,5.503 7.684,10.436 C5.146,14.432 4.018,19.199 3.186,23.789 L47.108,20.403 Z" id="Shape" fill="#FFDC00"/>
          <path d="M20.051,30.736 C18.143,31.087 18.408,31.898 17.809,32.469 C18.116,33.157 18.102,33.845 19.341,34.319 C20.398,34.25 21.215,33.826 21.304,33.301 C21.691,32.397 21.23,31.454 20.051,30.736 Z" id="Shape" fill="#000000"/>
          <path d="M36.047,30.462 L34.579,30.623 C33.273,32.162 33.435,32.821 35.431,34.045 C35.886,33.899 36.649,33.796 36.81,33.583 C37.768,32.555 37.472,31.345 36.047,30.462 Z" id="Shape" fill="#000000"/>
        </g>
        <g id="Group-3" transform="translate(43.000000, 41.000000)">
          <path d="M33.436,13.411 L25.341,14.495 C25.341,14.495 34.894,24.92 33.72,30.623 C32.517,36.48 28.857,37.411 22.346,32.484 C22.057,32.267 14.609,24.925 11.938,21.066 C10.619,19.165 9.567,16.67 8.023,14.963 C7.092,15.534 1.981,18.903 0.888,20.598 C7.537,29.578 13.435,40.904 24.896,44.507 C27.683,45.38 32.413,45.751 35.096,44.284 C37.756,42.913 39.753,40.553 40.647,37.725 C44.544,24.332 33.436,13.411 33.436,13.411 Z" id="Shape" fill="#A0640A"/>
          <path d="M12.059,0.172 L12.059,9.917 C14.372,10.362 18.021,10.425 21.75,13.342 C24.346,15.411 26.606,17.86 28.452,20.604 C28.452,20.604 34.408,16.836 37.01,15.945 C32.54,8.958 23.601,0.823 12.059,0.172 Z" id="Shape" fill="#FFDC00"/>
        </g>
        <g id="Group-2" transform="translate(0.000000, 43.000000)">
          <path d="M38.302,22.246 C38.302,22.246 35.989,30.615 32.52,34.6 C28.426,39.367 22.8,44.744 16.329,44.339 C10.807,43.997 1.226,39.201 0.249,30.29 C-0.729,21.378 9.252,12.199 11.565,11.085 C14.213,11.982 16.566,17.199 16.566,17.199 C16.566,17.199 10.842,20.882 10.079,26.904 C9.315,32.927 15.456,35.833 18.631,34.703 C30.687,30.41 30.912,19.797 30.912,19.797 L38.302,22.246 Z" id="Shape" fill="#A0640A"/>
          <path d="M26.327,0.301 C25.691,0.044 20.938,3.053 20.493,3.373 C19.209,4.275 12.941,8.425 11.339,9.721 C9.737,11.017 8.269,12.37 6.76,13.717 C6.431,14.048 6.123,14.397 5.834,14.762 C6.066,14.95 14.155,22.103 14.803,21.875 C14.999,21.675 18.388,16.937 21.695,14.453 C26.194,11.068 32.074,10.303 32.381,9.944 L26.327,0.301 Z" id="Shape" fill="#FFDC00"/>
        </g>
        <g id="Group" transform="translate(22.000000, 32.000000)">
          <path d="M35.771,15.737 C34.898,8.253 29.023,1.111 21.136,0.54 C17.441,0.278 14.371,0.443 11.977,3.56 C10.705,5.216 9.93,7.134 8.172,8.356 C6.576,9.463 3.749,8.824 1.233,11.553 C-0.501,13.448 0.245,21.035 1.783,25.99 C2.291,27.64 4.529,32.841 6.547,33.623 C9.265,34.662 16.718,37.619 16.718,37.619 C16.718,37.619 26.242,34.251 29.648,30.968 C35.355,25.516 36.106,18.609 35.771,15.737 Z" id="Shape" fill="#BE0A3C"/>
          <path d="M6.958,27.771 C6.073,28.953 6.42,31.419 6.42,31.419 L17.609,34.844 C17.609,34.844 19.876,33.389 19.13,32.059 C17.898,31.368 8.646,27.76 6.958,27.771 Z" id="Shape" fill="#6E1E3C"/>
          <path d="M17.661,12.797 C17.661,12.797 16.562,7.659 10.057,9.526 C3.552,11.393 1.071,14.904 4.697,19.613 C8.322,24.323 16.741,17.096 17.661,12.797 Z" id="Shape" fill="#6E1E3C"/>
        </g>
      </g>
    </g>
  </g>
</svg>