<svg version="1.1" width="116" height="103" viewBox="-1 -1 116 103" xmlns="http://www.w3.org/2000/svg" xmlns:xlink="http://www.w3.org/1999/xlink">
  <!-- Exported by Scratch - http://scratch.mit.edu/ -->
  <g id="ID0.08603932848200202" transform="matrix(1, 0, 0, 1, 0.5, 0.25)">
    <g id="Page-1">
      <g id="takeout-d-[food,alex-eben-meyer]">
        <g id="scratch_fridge_takeout02">
          <path id="Shape" fill="#00A08C" stroke="none" stroke-width="1" d="M 101.168 78.516 C 101.168 78.516 105.477 83.261 108.276 79.205 C 108.434 78.876 108.567 78.535 108.675 78.185 L 101.168 78.516 Z " transform="matrix(-1, 0, 0, 1, 115, 0)"/>
          <path id="Shape" fill="#006482" stroke="none" stroke-width="1" d="M 42.494 76.333 C 43.069 74.209 43.840 71.217 44.958 67.145 C 47.206 58.973 55.280 47.665 51.610 44.920 C 47.941 42.175 46.994 46.988 46.503 47.617 C 46.164 48.052 42.470 55.929 40.969 63.750 C 39.727 70.229 39.619 73.942 39.771 76.333 L 42.494 76.333 Z " transform="matrix(-1, 0, 0, 1, 115, 0)"/>
          <path id="Shape" fill="#006482" stroke="none" stroke-width="1" d="M 98.125 92.091 C 98.125 91.525 98.026 90.027 98.026 90.027 C 98.026 90.027 93.234 91.732 89.987 89.939 C 87.991 88.836 88.095 85.158 88.322 82.740 C 88.322 82.740 88.610 76.046 83.930 76.145 C 79.250 76.245 80.560 83.014 80.560 83.014 C 80.620 85.632 80.959 89.820 82.556 92.282 C 84.637 95.470 91.002 94.370 92.495 93.968 C 94.092 93.537 95.690 92.374 97.383 92.314 C 97.606 93.075 97.151 94.828 97.151 94.828 C 97.151 94.828 97.734 95.454 97.950 94.987 C 98.209 94.430 98.117 92.736 98.125 92.091 Z " transform="matrix(-1, 0, 0, 1, 115, 0)"/>
          <path id="Shape" fill="#006482" stroke="none" stroke-width="1" d="M 67.107 74.619 C 64.560 68.926 59.465 78.381 59.465 78.381 C 56.594 83.827 54.805 88.405 53.950 90.166 C 52.585 92.995 51.842 96.342 50.169 98.980 C 49.666 98.721 48.376 96.757 47.917 97.123 C 47.094 97.781 49.139 99.155 49.486 99.514 C 50.217 100.311 50.911 101.932 51.766 101.649 C 52.529 101.406 69.655 80.313 67.107 74.619 Z " transform="matrix(-1, 0, 0, 1, 115, 0)"/>
          <g id="Group-3">
            <path id="Shape" fill="#828278" stroke="none" stroke-width="1" d="M 5.981 3.957 L 2.914 16.488 L 0.558 16.369 L 5.805 0.666 L 5.981 3.957 " transform="matrix(-1, 0, 0, 1, 64, 9)"/>
            <path id="Shape" fill="#008264" stroke="none" stroke-width="1" d="M 41.216 45.558 L 44.494 76.923 C 44.494 76.923 27.092 76.712 23.730 76.477 C 25.239 72.891 27.020 45.399 27.020 45.399 L 41.216 45.558 Z " transform="matrix(-1, 0, 0, 1, 64, 9)"/>
            <path id="Shape" fill="#00A08C" stroke="none" stroke-width="1" d="M 49.988 13.050 C 48.535 13.050 36.081 12.559 36.081 12.559 L 27.635 30.150 C 27.144 31.641 44.498 76.923 44.498 76.923 C 44.498 76.923 53.075 35.529 54.081 30.390 C 54.592 27.772 54.980 25.130 55.471 22.512 C 56.018 19.604 57.176 16.448 57.176 13.480 C 54.996 12.707 52.264 13.042 49.988 13.050 Z " transform="matrix(-1, 0, 0, 1, 64, 9)"/>
            <path id="Shape" fill="#78C8C8" stroke="none" stroke-width="1" d="M 44.350 23.038 L 36.077 12.559 L 18.639 12.300 L 15.496 18.648 L 23.714 76.477 C 23.714 76.477 25.431 73.560 25.922 72.724 C 26.681 71.425 27.356 70.090 27.987 68.739 C 29.121 66.293 30.382 63.918 31.493 61.452 C 33.449 57.069 35.553 52.662 37.207 48.160 C 39.067 43.076 41.096 38.008 42.685 32.832 C 43.412 30.469 44.458 28.106 44.949 25.684 C 45.197 24.469 45.105 24.106 44.350 23.038 Z " transform="matrix(-1, 0, 0, 1, 64, 9)"/>
            <path id="Shape" fill="#281446" stroke="none" stroke-width="1" d="M 42.014 26.270 C 42.014 27.377 41.379 28.262 40.597 28.262 C 39.814 28.262 39.179 27.365 39.179 26.270 C 39.158 25.653 39.385 25.053 39.810 24.604 C 40.022 24.392 40.309 24.272 40.609 24.270 C 41.008 24.270 41.559 24.823 41.807 25.186 C 42.054 25.549 42.014 25.716 42.014 26.270 Z " transform="matrix(-1, 0, 0, 1, 64, 9)"/>
          </g>
          <path id="Shape" fill="#828278" stroke="none" stroke-width="1" d="M 95.286 0.466 C 89.365 0.115 83.429 0.093 77.505 0.398 C 73.113 0.610 61.533 -0.677 58.926 3.773 C 57.488 6.216 56.789 9.260 56.130 11.985 C 55.495 14.603 54.349 17.364 54.026 20.025 C 55.963 19.806 56.023 16.539 56.510 14.886 C 57.212 12.495 57.728 10.065 58.347 7.638 C 58.850 5.646 59.381 3.116 61.397 2.223 C 63.338 1.359 66.448 1.745 68.537 1.646 C 76.675 1.247 87.097 1.646 95.226 1.721 C 96.652 1.721 98.493 1.853 98.940 3.658 C 99.275 5.020 96.309 17.511 95.430 21.818 C 95.031 23.687 94.935 25.600 94.548 27.452 C 94.320 28.548 94.001 29.628 93.749 30.716 C 93.569 31.445 93.473 33.680 92.974 34.282 C 92.862 34.413 92.044 34.624 91.433 34.879 C 91.346 35.212 91.370 35.565 91.501 35.883 L 91.709 35.943 C 93.306 36.373 94.001 34.919 94.408 33.736 C 96.712 27.010 99.970 6.244 100.022 4.857 C 100.110 1.717 98.081 0.637 95.286 0.466 Z " transform="matrix(-1, 0, 0, 1, 115, 0)"/>
          <path id="Shape" fill="#00A0B4" stroke="none" stroke-width="1" d="M 69.643 21.300 L 35.838 21.392 C 35.838 21.392 37.191 26.811 37.503 28.114 C 38.222 31.094 39.100 34.046 39.659 37.059 C 40.857 43.334 42.885 49.546 44.451 55.646 C 46.016 61.746 47.953 67.750 49.482 73.850 C 50.141 76.476 52.449 84.445 52.449 84.445 C 52.449 84.445 56.606 84.768 57.919 84.879 C 60.966 85.142 63.969 85.337 67.023 85.413 C 68.645 85.453 70.266 85.529 71.883 85.517 C 73.500 85.505 74.722 85.477 74.722 85.477 L 69.643 21.300 Z " transform="matrix(-1, 0, 0, 1, 115, 0)"/>
          <g id="Group-2">
            <path id="Shape" fill="#828278" stroke="none" stroke-width="1" d="M 109.537 10.651 L 113.331 13.010 L 114.713 12.875 L 114.621 5.723 L 113.331 5.484 L 109.537 10.651 " transform="matrix(-1, 0, 0, 1, 115, 66)"/>
            <path id="Shape" fill="#C8C8BE" stroke="none" stroke-width="1" d="M 113.331 13.010 L 113.331 5.484 C 113.331 5.484 51.239 7.579 44.974 7.874 C 42.434 7.986 39.907 8.241 37.359 8.364 C 35.961 8.432 32.967 8.145 31.314 8.763 L 31.314 11.576 C 32.643 12.142 34.831 12.046 35.989 12.154 C 38.785 12.412 41.632 12.405 44.439 12.580 C 50.049 12.922 113.331 13.010 113.331 13.010 Z " transform="matrix(-1, 0, 0, 1, 115, 66)"/>
            <path id="Shape" fill="#C8C8BE" stroke="none" stroke-width="1" d="M -0.000 2.810 C 5.247 3.312 22.621 3.256 24.422 4.260 C 25.328 4.766 24.509 5.691 24.509 5.691 C 24.509 5.691 2.060 7.093 -0.000 7.368 L -0.000 8.508 C 2.200 8.854 20.149 8.556 21.778 8.735 C 22.549 8.819 25.440 9.763 23.723 11.400 C 22.864 12.221 5.167 12.197 -0.000 12.699 L -0.000 13.317 C 5.339 13.859 24.162 12.839 24.198 15.389 C 24.234 17.939 5.227 17.098 -0.000 17.696 L -0.000 18.246 C 3.781 18.604 13.177 19.301 20.664 19.317 C 26.690 19.317 36.700 19.317 37.187 10.504 C 37.674 1.691 27.864 0.778 23.707 0.778 C 21.339 0.778 5.059 1.340 -0.000 2.053 L -0.000 2.810 Z " transform="matrix(-1, 0, 0, 1, 115, 66)"/>
            <path id="Shape" fill="#828278" stroke="none" stroke-width="1" d="M 34.340 10.217 C 34.340 7.073 33.218 5.272 32.220 5.201 C 31.625 5.157 29.936 6.026 30.032 10.424 C 30.128 14.823 30.950 15.257 31.489 15.401 C 32.651 15.700 34.340 13.361 34.340 10.217 Z " transform="matrix(-1, 0, 0, 1, 115, 66)"/>
          </g>
          <path id="Shape" fill="#00A08C" stroke="none" stroke-width="1" d="M 108.391 78.990 L 105.169 80.138 C 105.169 80.138 105.720 74.595 103.672 67.145 C 101.424 58.973 93.605 46.952 97.682 44.920 C 101.759 42.888 106.155 55.929 107.665 63.750 C 109.941 75.639 108.391 78.990 108.391 78.990 Z " transform="matrix(-1, 0, 0, 1, 115, 0)"/>
          <g id="Group">
            <path id="Shape" fill="#281446" stroke="none" stroke-width="1" d="M 1.940 4.464 C 1.940 4.464 0.275 2.632 0.383 1.596 C 0.383 1.596 0.555 1.285 0.834 1.663 C 1.262 2.067 1.740 2.416 2.256 2.699 L 1.940 4.464 Z " transform="matrix(-1, 0, 0, 1, 78, 75)"/>
            <path id="Shape" fill="#006482" stroke="none" stroke-width="1" d="M 6.744 3.946 C 6.832 2.161 7.479 1.042 6.820 0.910 C 6.161 0.779 6.169 2.763 5.151 2.711 C 4.392 2.671 5.702 0.277 4.927 0.145 C 4.152 0.014 4.264 3.887 2.978 2.496 C 2.727 2.221 3.142 0.014 2.623 0.145 C 2.104 0.277 2.032 2.815 1.904 4.440 C 1.904 4.440 2.547 5.194 4.212 5.301 C 5.236 5.326 6.198 4.812 6.744 3.946 Z " transform="matrix(-1, 0, 0, 1, 78, 75)"/>
          </g>
        </g>
      </g>
    </g>
  </g>
</svg>