<svg version="1.1" width="104" height="132" xmlns="http://www.w3.org/2000/svg" xmlns:xlink="http://www.w3.org/1999/xlink">
  <!-- Exported by Scratch - http://scratch.mit.edu/ -->
  <g id="ID0.006957779638469219" transform="matrix(1.0499999523162842, 0, 0, 1.0499999523162842, -0.55, -0.3)">
    <path id="Front_Leg_8_" fill="#F05A28" stroke="#000000" stroke-linecap="round" d="M 52.192 130.990 L 39.971 145.802 C 39.971 145.802 51.980 155.599 53.032 153.567 C 54.085 151.535 48.900 147.217 48.900 147.217 L 57.773 134.920 " transform="matrix(0.855231523513794, 0, 0, 0.855231523513794, 0.6, -0.55)"/>
    <path id="Back_Arm_5_" fill="#F05A28" stroke="#000000" stroke-linecap="round" d="M 79.051 110.588 C 79.051 110.588 89.731 107.460 91.379 112.969 C 92.270 115.932 87.697 117.978 86.141 118.440 C 83.879 119.107 83.299 119.384 80.952 118.862 C 78.610 118.342 69.968 116.513 67.140 115.008 C 62.708 112.641 56.067 106.655 67.800 108.189 C 67.800 108.189 74.236 109.642 78.571 110.524 L 79.051 110.588 L 79.051 110.588 L 79.051 110.588 L 79.051 110.588 Z " transform="matrix(0.855231523513794, 0, 0, 0.855231523513794, 0.6, -0.55)"/>
    <path id="Body_5_" fill="#F05A28" stroke="#000000" stroke-linecap="round" d="M 69.689 121.003 C 69.472 119.274 71.017 109.657 71.277 107.835 C 71.277 107.835 74.080 100.288 63.068 99.159 C 56.830 98.519 52.985 101.121 52.139 103.805 C 51.413 106.110 49.831 113.193 49.831 113.193 C 49.831 113.193 47.290 121.141 46.419 123.585 C 45.050 127.411 42.368 137.368 57.775 137.368 C 57.775 137.368 69.579 137.097 70.376 126.700 C 70.530 124.717 70.161 122.790 69.698 121.267 L 69.689 121.003 L 69.689 121.003 L 69.689 121.003 L 69.689 121.003 Z " transform="matrix(0.855231523513794, 0, 0, 0.855231523513794, 0.6, -0.55)"/>
    <path id="Front_Leg_6_" fill="#F05A28" stroke="#000000" stroke-linecap="round" d="M 56.773 135.632 L 67.798 154.572 C 67.798 154.572 81.446 147.228 79.970 145.478 C 78.495 143.727 72.523 146.865 72.523 146.865 L 62.541 131.981 " transform="matrix(0.855231523513794, 0, 0, 0.855231523513794, 0.6, -0.55)"/>
    <path id="Front_Arm_5_" fill="#F05A28" stroke="#000000" stroke-linecap="round" d="M 59.789 106.214 C 55.146 104.659 43.721 104.743 37.015 110.346 C 28.688 117.299 32.059 119.620 33.631 120.480 C 35.932 121.733 39.375 118.306 43.477 116.122 C 46.776 114.363 52.514 113.958 52.514 113.958 " transform="matrix(0.855231523513794, 0, 0, 0.855231523513794, 0.6, -0.55)"/>
    <g id="Head_8_">
      <path id="Head_9_" fill="#F05A28" stroke="#000000" stroke-linecap="round" d="M 19.750 41.105 C 19.750 41.105 20.680 37.293 28.594 29.191 C 36.504 21.093 45.068 18.304 50.746 15.976 C 56.426 13.648 60.238 2.016 60.238 2.016 C 60.238 2.016 65.467 8.520 70.842 14.434 C 76.326 20.465 89.096 25.750 102.780 39.524 C 104.413 41.173 105.801 42.899 106.968 44.670 L 107.204 44.876 C 110.261 47.527 121.099 58.104 119.710 73.501 C 118.648 85.231 113.314 88.939 110.730 89.937 L 110.709 90.023 C 112.041 87.384 112.834 84.584 113.209 81.741 C 114.443 72.340 109.379 66.230 106.131 58.053 C 101.920 47.449 90.401 41.483 75.485 41.780 C 47.096 42.341 40.844 58.300 40.844 58.300 L 40.824 58.506 C 46.090 68.285 48.193 89.979 37.410 96.471 C 25.795 103.452 8.598 101.016 1.899 74.033 C -4.232 49.340 14.127 41.559 19.526 41.623 L 19.750 41.105 L 19.750 41.105 L 19.750 41.105 L 19.750 41.105 Z M 106.967 44.670 C 106.967 44.670 114.414 56.503 111.990 71.125 M 19.525 41.623 C 24.748 41.765 28.248 45.503 28.248 45.503 M 40.823 58.504 C 39.944 57.133 39.332 56.004 39.332 56.004 " transform="matrix(0.855231523513794, 0, 0, 0.855231523513794, 0.6, -0.55)"/>
      <path id="R_Ear_3_" fill="#404041" stroke="#000000" d="M 112.338 86.007 C 112.338 86.007 114.690 81.742 116.276 73.929 C 117.860 66.108 115.747 55.475 115.747 55.475 C 118.372 60.236 120.360 66.346 119.718 73.501 C 118.691 84.933 113.384 88.829 110.736 89.937 L 112.338 86.007 L 112.338 86.007 L 112.338 86.007 L 112.338 86.007 Z " transform="matrix(0.855231523513794, 0, 0, 0.855231523513794, 0.6, -0.55)"/>
      <g id="L_Ear_3_">
        <path id="Outer_Ear_3_" fill="#404041" stroke="#231F20" d="M 2.510 76.438 C 3.711 81.078 6.506 86.500 7.946 88.979 C 9.382 91.458 12.899 95.292 16.967 97.526 C 21.039 99.762 23.058 99.506 23.058 99.506 C 29.219 96.707 31.590 84.492 28.338 71.116 C 24.883 56.927 16.397 46.805 9.375 48.516 C 5.625 49.426 2.219 53.180 1.230 58.973 C 0.269 64.589 1.312 71.810 2.510 76.438 L 2.510 76.438 L 2.510 76.438 L 2.510 76.438 Z " transform="matrix(0.855231523513794, 0, 0, 0.855231523513794, 0.6, -0.55)"/>
        <path id="Inner_Ear_3_" fill="#929497" stroke="#231F20" stroke-linecap="round" d="M 6.871 64.639 C 9.572 63.482 14.156 68.135 17.111 75.035 C 20.063 81.931 20.270 88.468 17.572 89.622 C 14.869 90.776 10.287 86.122 7.334 79.224 C 4.377 72.326 4.172 65.796 6.871 64.639 L 6.871 64.639 L 6.871 64.639 L 6.871 64.639 Z M 18.750 88.495 C 7.629 81.446 7.752 64.465 7.752 64.465 " transform="matrix(0.855231523513794, 0, 0, 0.855231523513794, 0.6, -0.55)"/>
      </g>
      <path id="Face_4_" fill="#E6E7E8" stroke="#000000" stroke-linecap="round" d="M 36.484 97.108 C 37.785 97.998 47.402 104.412 57.845 107.014 C 64.763 108.743 63.034 112.125 63.034 112.125 C 63.034 112.125 63.311 111.104 68.710 108.771 C 74.106 106.452 73.460 108.500 89.564 104.677 C 105.668 100.865 111.918 91.521 113.210 81.737 C 114.448 72.338 109.380 66.227 106.132 58.049 C 101.921 47.445 90.403 41.479 75.489 41.776 C 47.094 42.338 40.843 58.297 40.843 58.297 L 40.800 58.469 C 46.079 68.226 48.204 89.969 37.406 96.469 C 37.083 96.662 36.755 96.852 36.423 97.031 L 36.484 97.108 L 36.484 97.108 L 36.484 97.108 L 36.484 97.108 Z " transform="matrix(0.855231523513794, 0, 0, 0.855231523513794, 0.6, -0.55)"/>
      <path id="Smile_3_" fill="#FFFFFF" stroke="#000000" stroke-width="1.0904" stroke-linecap="round" d="M 79.682 94.968 C 66.967 95.823 65.547 79.288 65.547 79.288 C 65.547 79.288 72.815 79.058 82.192 78.476 C 91.569 77.898 93.817 78.476 93.817 78.476 C 93.817 78.476 92.395 94.108 79.682 94.968 L 79.682 94.968 L 79.682 94.968 L 79.682 94.968 Z " transform="matrix(0.855231523513794, 0, 0, 0.855231523513794, 0.6, -0.55)"/>
      <path id="R_Eye_3_" d="M 98.959 68.999 C 98.801 68.999 98.643 68.978 98.480 68.933 C 97.582 68.670 97.062 67.725 97.330 66.825 C 97.451 66.405 97.476 65.971 97.408 65.537 C 97.150 63.906 95.572 62.794 93.926 63.054 C 92.262 63.316 91.119 64.858 91.375 66.492 C 91.521 67.419 90.887 68.289 89.959 68.434 C 89.025 68.580 88.162 67.948 88.018 67.018 C 87.467 63.536 89.879 60.248 93.399 59.692 C 96.911 59.148 100.215 61.524 100.772 65.004 C 100.918 65.939 100.860 66.871 100.592 67.777 C 100.373 68.518 99.695 68.999 98.959 68.999 L 98.959 68.999 L 98.959 68.999 L 98.959 68.999 L 98.959 68.999 Z " transform="matrix(0.855231523513794, 0, 0, 0.855231523513794, 0.6, -0.55)"/>
      <path id="L_Eye_3_" d="M 66.549 68.999 C 66.393 68.999 66.233 68.978 66.070 68.933 C 65.170 68.670 64.652 67.725 64.918 66.825 C 65.039 66.405 65.064 65.971 64.998 65.537 C 64.740 63.906 63.166 62.794 61.514 63.054 C 59.851 63.316 58.707 64.858 58.963 66.492 C 59.109 67.419 58.476 68.289 57.547 68.434 C 56.613 68.580 55.750 67.948 55.605 67.018 C 55.055 63.536 57.467 60.248 60.985 59.692 C 64.491 59.148 67.805 61.524 68.360 65.004 C 68.506 65.939 68.448 66.871 68.180 67.777 C 67.963 68.518 67.285 68.999 66.549 68.999 L 66.549 68.999 L 66.549 68.999 L 66.549 68.999 L 66.549 68.999 Z " transform="matrix(0.855231523513794, 0, 0, 0.855231523513794, 0.6, -0.55)"/>
    </g>
  </g>
</svg>