<svg version="1.1" width="84" height="105" viewBox="-1 -1 84 105" xmlns="http://www.w3.org/2000/svg" xmlns:xlink="http://www.w3.org/1999/xlink">
  <!-- Exported by Scratch - http://scratch.mit.edu/ -->
  <g id="ID0.8079297817312181" transform="matrix(1, 0, 0, 1, 0, 0.25)">
    <g id="Page-1">
      <g id="takeout-b-[food,alex-eben-meyer]">
        <g id="scratch_fridge_takeout03">
          <path id="Shape" fill="#006482" stroke="none" stroke-width="1" d="M 54.995 81.650 C 55.714 86.073 56.831 91.811 57.274 93.576 C 57.649 95.074 58.096 96.577 58.499 98.067 C 58.930 99.661 60.095 101.255 60.155 102.944 C 59.393 103.167 57.637 102.713 57.637 102.713 C 57.637 102.713 57.011 103.295 57.477 103.510 C 58.028 103.773 59.732 103.681 60.383 103.689 C 60.949 103.689 62.450 103.590 62.450 103.590 C 62.450 103.590 64.616 77.255 59.185 76.354 C 53.754 75.454 54.995 81.650 54.995 81.650 Z " transform="matrix(-1, 0, 0, 1, 83.25, 0)"/>
          <path id="Shape" fill="#006482" stroke="none" stroke-width="1" d="M 32.498 81.650 C 34.433 86.806 36.544 92.293 37.178 93.835 C 38.376 96.740 40.371 99.525 41.225 102.530 C 40.698 102.729 38.372 102.378 38.340 102.960 C 38.280 104.008 40.670 103.406 41.177 103.398 C 42.254 103.398 43.930 103.956 44.289 103.131 C 44.561 102.502 41.137 88.324 39.740 81.646 C 39.740 81.646 40.187 76.996 34.756 76.219 C 29.325 75.442 32.498 81.650 32.498 81.650 Z " transform="matrix(-1, 0, 0, 1, 83.25, 0)"/>
          <g id="Group">
            <path id="Shape" fill="#008264" stroke="none" stroke-width="1" d="M 9.117 39.277 C 9.117 39.277 7.002 45.015 7.629 45.166 C 8.255 45.318 8.639 43.831 9.042 43.102 C 9.215 42.742 9.454 42.418 9.748 42.146 L 9.117 39.277 Z " transform="matrix(-1, 0, 0, 1, 13.25, 52)"/>
            <path id="Shape" fill="#00A08C" stroke="none" stroke-width="1" d="M 10.247 47.270 C 9.604 47.350 10.570 43.369 9.389 44.740 C 9.157 45.007 9.389 47.394 8.511 47.230 C 8.990 42.612 8.315 33.093 7.094 25.514 C 5.139 13.361 -1.062 7.898 1.005 2.801 C 3.072 -2.295 5.059 1.606 5.059 1.606 C 5.059 1.606 9.449 13.464 10.203 15.983 C 10.969 18.617 11.503 21.313 11.799 24.040 C 12.198 27.534 12.573 30.945 12.681 34.475 C 12.733 36.209 12.737 37.954 12.645 39.691 C 12.597 40.604 12.537 46.298 11.627 46.804 C 11.296 45.246 11.915 44.098 11.300 44.138 C 10.686 44.178 10.889 47.190 10.247 47.270 Z " transform="matrix(-1, 0, 0, 1, 13.25, 52)"/>
          </g>
          <g id="Group-2">
            <path id="Shape" fill="#006482" stroke="none" stroke-width="1" d="M 20.120 31.562 L 19.234 31.004 C 15.898 28.948 14.465 27.195 12.450 23.907 C 10.435 20.620 9.433 16.938 8.344 13.324 C 7.171 9.439 6.149 0.107 5.199 0.175 C 4.250 0.242 5.874 3.920 4.872 4.119 C 3.871 4.319 3.591 0.386 2.793 0.318 C 1.995 0.250 2.993 4.570 1.871 4.510 C 1.261 4.478 0.830 1.199 0.343 1.394 C -0.144 1.589 2.279 18.819 5.930 25.166 C 9.581 31.514 12.123 34.507 16.704 37.284 C 19.649 39.069 23.376 39.412 25.706 39.874 C 25.706 39.874 31.097 39.571 29.980 35.694 C 29.333 33.451 26.500 33.208 23.914 32.737 C 22.614 32.471 21.343 32.077 20.120 31.562 Z " transform="matrix(-1, 0, 0, 1, 83.25, 21)"/>
            <path id="Shape" fill="#281446" stroke="none" stroke-width="1" d="M 7.809 3.195 C 7.175 2.972 6.668 5.347 6.668 5.347 C 5.962 5.566 4.178 6.263 4.274 7.658 C 4.409 9.395 6.568 11.288 7.498 9.224 C 7.510 9.224 8.444 3.418 7.809 3.195 Z " transform="matrix(-1, 0, 0, 1, 83.25, 21)"/>
          </g>
          <path id="Shape" fill="#828278" stroke="none" stroke-width="1" d="M 31.799 12.958 L 28.735 25.490 L 26.376 25.370 L 31.620 9.667 L 31.799 12.958 " transform="matrix(-1, 0, 0, 1, 83.25, 0)"/>
          <g id="Group-3">
            <path id="Shape" fill="#008264" stroke="none" stroke-width="1" d="M 26.011 33.562 L 29.287 64.930 C 29.287 64.930 11.897 64.718 8.537 64.483 C 10.045 60.897 11.825 33.403 11.825 33.403 L 26.011 33.562 Z " transform="matrix(-1, 0, 0, 1, 42.25, 21)"/>
            <path id="Shape" fill="#00A08C" stroke="none" stroke-width="1" d="M 34.773 1.051 C 33.321 1.051 20.875 0.561 20.875 0.561 L 12.435 18.153 C 11.944 19.644 29.287 64.930 29.287 64.930 C 29.287 64.930 37.858 23.533 38.864 18.392 C 39.374 15.775 39.761 13.133 40.252 10.515 C 40.799 7.606 41.956 4.450 41.956 1.482 C 39.781 0.709 37.052 1.043 34.773 1.051 Z " transform="matrix(-1, 0, 0, 1, 42.25, 21)"/>
            <path id="Shape" fill="#78C8C8" stroke="none" stroke-width="1" d="M 29.143 11.041 L 20.875 0.561 L 3.449 0.302 L 0.308 6.650 L 8.521 64.483 C 8.521 64.483 10.237 61.566 10.727 60.730 C 11.486 59.431 12.160 58.096 12.790 56.745 C 13.924 54.298 15.185 51.924 16.294 49.457 C 18.249 45.074 20.352 40.667 22.004 36.164 C 23.864 31.080 25.891 26.011 27.479 20.835 C 28.205 18.472 29.251 16.109 29.742 13.687 C 29.985 12.471 29.893 12.109 29.143 11.041 Z " transform="matrix(-1, 0, 0, 1, 42.25, 21)"/>
            <path id="Shape" fill="#281446" stroke="none" stroke-width="1" d="M 26.805 14.272 C 26.805 15.380 26.170 16.265 25.388 16.265 C 24.606 16.265 23.971 15.368 23.971 14.272 C 23.950 13.655 24.177 13.056 24.602 12.607 C 24.814 12.395 25.100 12.275 25.400 12.272 C 25.799 12.272 26.350 12.826 26.597 13.189 C 26.845 13.551 26.805 13.718 26.805 14.272 Z " transform="matrix(-1, 0, 0, 1, 42.25, 21)"/>
          </g>
          <path id="Shape" fill="#828278" stroke="none" stroke-width="1" d="M 70.075 0.466 C 64.158 0.115 58.226 0.093 52.306 0.398 C 47.917 0.610 36.344 -0.677 33.739 3.773 C 32.302 6.216 31.604 9.260 30.945 11.986 C 30.311 14.604 29.166 17.365 28.843 20.027 C 30.778 19.808 30.838 16.540 31.325 14.887 C 32.027 12.496 32.542 10.065 33.160 7.639 C 33.663 5.646 34.194 3.116 36.209 2.223 C 38.148 1.359 41.257 1.745 43.344 1.646 C 51.476 1.247 61.891 1.646 70.015 1.721 C 71.440 1.721 73.279 1.853 73.726 3.658 C 74.062 5.021 71.097 17.513 70.219 21.820 C 69.820 23.689 69.724 25.602 69.337 27.454 C 69.109 28.550 68.790 29.630 68.539 30.718 C 68.359 31.447 68.264 33.682 67.765 34.284 C 67.653 34.416 66.835 34.627 66.224 34.882 C 66.138 35.215 66.162 35.567 66.292 35.886 L 66.500 35.946 C 68.096 36.376 68.790 34.922 69.197 33.738 C 71.500 27.012 74.756 6.244 74.808 4.857 C 74.900 1.717 72.868 0.638 70.075 0.466 Z " transform="matrix(-1, 0, 0, 1, 83.25, 0)"/>
          <path id="Shape" fill="#00A0B4" stroke="none" stroke-width="1" d="M 44.449 21.302 L 10.666 21.394 C 10.666 21.394 12.019 26.813 12.330 28.116 C 13.049 31.096 13.926 34.049 14.485 37.061 C 15.682 43.337 17.709 49.549 19.274 55.650 C 20.838 61.750 22.773 67.755 24.301 73.856 C 24.960 76.482 27.266 84.451 27.266 84.451 C 27.266 84.451 31.420 84.774 32.733 84.886 C 35.778 85.149 38.779 85.344 41.831 85.419 C 43.451 85.459 45.071 85.535 46.688 85.523 C 48.304 85.511 49.525 85.483 49.525 85.483 L 44.449 21.302 Z " transform="matrix(-1, 0, 0, 1, 83.25, 0)"/>
        </g>
      </g>
    </g>
  </g>
</svg>