<svg version="1.1" width="482" height="362" viewBox="-1 0 482 362" xmlns="http://www.w3.org/2000/svg" xmlns:xlink="http://www.w3.org/1999/xlink">
  <!-- Exported by Scratch - http://scratch.mit.edu/ -->
  <g id="ID0.9136589458212256">
    <path id="ID0.6814516433514655" fill="#D0BDEA" d="M -0.400 0.200 L 479.600 0.200 L 479.600 360.200 L -0.400 360.200 L -0.400 0.200 Z "/>
    <g id="ID0.17063987581059337">
      <g id="layer1">
        <path id="path2417" fill="#EAD6FF" d="M 224.200 336.500 C 215.800 327.100 194.700 308.600 177.400 295.600 C 126.200 256.900 119.200 251.300 98.400 232.200 C 60 196.800 43.800 161.300 43.800 113.200 C 43.800 89.700 45.400 80.700 52 66.800 C 63.200 43.300 79.600 25.900 100.600 15.200 C 115.500 7.600 122.800 4.300 147.700 4.100 C 173.700 4 179.200 7 194.500 15.400 C 213.100 25.600 232.300 47.500 236.200 63 L 238.600 72.600 L 244.600 59.400 C 278.700 -15.200 387.500 -14.100 425.400 61.300 C 437.400 85.200 438.700 136.200 428.100 165 C 414.200 202.500 388.100 231.100 327.800 274.900 C 288.200 303.600 243.400 347.100 240.300 353.200 C 236.700 360.300 240.100 354.400 224.200 336.500 Z "/>
      </g>
      <g id="layer1_1_">
        <path id="path2417_1_" fill="#F2E9FF" d="M 226.500 302.600 C 219.400 295.200 201.600 280.800 187 270.500 C 143.700 240.200 137.800 235.800 120.200 220.800 C 87.800 193.100 74 165.300 74.100 127.600 C 74.100 109.200 75.500 102.100 81 91.300 C 90.400 72.900 104.300 59.200 122.100 50.900 C 134.700 45 140.900 42.300 161.900 42.200 C 183.900 42.100 188.500 44.500 201.400 51 C 217.100 59 233.300 76.100 236.700 88.300 L 238.800 95.800 L 243.900 85.500 C 272.700 27.100 364.600 28 396.600 87 C 406.800 105.700 407.900 145.700 398.900 168.300 C 387.200 197.700 365.100 220.100 314.100 254.400 C 280.700 276.900 242.800 311 240.200 315.800 C 237.100 321.400 240 316.700 226.500 302.600 Z "/>
      </g>
    </g>
    <path id="ID0.184414304792881" fill="none" stroke="#FFFFFF" d="M 450 1 L 450 1 L 450 1 L 450 1 L 450 1 Z "/>
  </g>
</svg>