<svg version="1.1" width="97" height="111" viewBox="-1 -1 97 111" xmlns="http://www.w3.org/2000/svg" xmlns:xlink="http://www.w3.org/1999/xlink">
  <!-- Exported by Scratch - http://scratch.mit.edu/ -->
  <g id="ID0.6663856389932334" transform="matrix(1, 0, 0, 1, -0.25, 0)">
    <g id="Page-1">
      <g id="strawberry-c-[food,fruit,alex-eben-meyer]">
        <g id="Group-4">
          <path id="Shape" fill="#BE0A3C" stroke="none" stroke-width="1" d="M 28.117 36.816 C 27.350 32.481 19.766 31.124 19.501 30.967 C 16.115 28.940 14.649 27.193 12.580 23.909 C 10.512 20.626 9.451 16.928 8.303 13.303 C 7.069 9.405 5.917 0.015 4.961 0.091 C 4.005 0.167 5.692 3.857 4.684 4.069 C 3.675 4.282 3.338 0.332 2.551 0.272 C 1.763 0.211 2.812 4.555 1.687 4.511 C 1.072 4.487 0.594 1.191 0.104 1.392 C -0.386 1.592 1.422 18.586 5.190 24.929 C 8.957 31.272 12.420 34.588 17.059 37.326 C 20.048 39.085 23.803 39.382 26.157 39.815 C 26.157 39.815 28.892 41.152 28.117 36.816 Z " transform="matrix(1, 0, 0, 1, 0.5, 37.25)"/>
          <path id="Shape" fill="#82001E" stroke="none" stroke-width="1" d="M 7.632 3.106 C 6.989 2.889 6.515 5.290 6.515 5.290 C 5.804 5.523 4.021 6.245 4.149 7.650 C 4.310 9.401 6.507 11.264 7.415 9.184 C 7.415 9.168 8.278 3.323 7.632 3.106 Z " transform="matrix(1, 0, 0, 1, 0.5, 37.25)"/>
        </g>
        <g id="Group-3">
          <path id="Shape" fill="#BE0A3C" stroke="none" stroke-width="1" d="M 34.598 4.372 C 33.658 3.236 31.754 7.243 31.100 6.215 C 30.445 5.187 33.377 2.220 32.763 1.598 C 32.148 0.976 29.573 4.726 29.184 4.288 C 29.035 4.119 29.292 3.589 29.658 2.923 C 30.252 1.839 30.803 0.611 30.461 0.334 C 30.120 0.057 29.288 1.409 27.935 2.923 C 23.516 7.885 -2.918 39.014 0.705 44.125 C 4.328 49.235 26.621 16.649 29.312 12.715 C 32.208 8.435 34.847 4.693 34.598 4.372 Z " transform="matrix(1, 0, 0, 1, 61.5, 21.25)"/>
          <path id="Shape" fill="#82001E" stroke="none" stroke-width="1" d="M 25.247 1.582 C 26.111 1.582 25.749 4.669 25.749 4.669 C 26.517 5.227 28.401 6.801 27.694 8.455 C 26.814 10.515 23.416 11.928 23.135 9.037 C 23.139 9.037 24.384 1.594 25.247 1.582 Z " transform="matrix(1, 0, 0, 1, 61.5, 21.25)"/>
        </g>
        <path id="Shape" fill="#82001E" stroke="none" stroke-width="1" d="M 62.392 74.306 C 62.231 74.226 64.224 68.080 56.700 66.931 C 49.177 65.783 50.486 104.095 51.768 108.599 C 52.270 110.365 52.973 109.803 54.242 109.896 C 55.511 109.988 56.307 110.032 55.849 109.201 C 55.756 109.032 54.146 109.273 54.146 109.273 C 54.146 109.273 57.018 101.449 58.126 97.462 C 58.676 95.483 59.207 93.480 59.653 91.473 C 59.894 90.417 62.661 75.366 62.392 74.306 Z " transform="matrix(1, 0, 0, 1, 0.5, 0.25)"/>
        <path id="Shape" fill="#82001E" stroke="none" stroke-width="1" d="M 23.377 92.300 C 22.695 93.761 22 95.190 21.297 96.639 C 20.152 98.992 19.409 102.637 17.658 104.576 C 17.356 104.364 16.220 103.223 15.950 103.227 C 14.304 103.264 15.806 104.159 16.083 104.432 C 16.840 105.165 17.669 105.820 18.557 106.387 C 19.762 107.158 19.541 106.997 20.758 106.074 C 22.795 104.536 49.297 75.466 42.919 69.091 C 36.540 62.716 23.900 91.184 23.377 92.300 Z " transform="matrix(1, 0, 0, 1, 0.5, 0.25)"/>
        <g id="Group-2">
          <path id="Shape" fill="#82783C" stroke="none" stroke-width="1" d="M 18.609 17.468 C 17.026 13.280 15.524 6.086 17.737 1.911 C 19.769 -1.919 23.324 0.550 25.019 6.624 C 26.449 11.735 26.192 20.157 26.256 21.936 C 26.329 23.899 26.092 25.822 26.007 27.773 C 25.939 29.419 26.530 32.161 25.939 33.646 C 22.971 28.504 20.705 23.012 18.609 17.468 Z " transform="matrix(1, 0, 0, 1, 18.5, 0.25)"/>
          <path id="Shape" fill="#A0AA1E" stroke="none" stroke-width="1" d="M 25.975 33.570 C 23.629 33.691 20.713 31.314 18.906 30.017 C 17.942 29.307 5.948 19.672 2.686 14.854 C 1.212 12.686 -0.174 10.526 0.184 7.804 C 0.662 4.155 3.152 3.324 6.378 4.914 C 11.378 7.379 15.560 12.899 18.183 17.692 C 19.488 20.073 20.729 22.510 22.051 24.862 C 23.324 27.139 26.035 30.880 25.975 33.570 Z " transform="matrix(1, 0, 0, 1, 18.5, 0.25)"/>
          <path id="Shape" fill="#A0AA1E" stroke="none" stroke-width="1" d="M 25.533 33.438 C 25.381 31.747 26.509 29.487 26.895 27.841 C 27.297 26.079 27.698 24.345 28.269 22.622 C 29.346 19.082 30.630 15.607 32.113 12.216 C 33.450 9.282 34.872 6.022 37.029 3.589 C 38.865 1.501 42.355 -0.703 44.882 1.819 C 47.063 3.999 45.685 8.503 44.914 11.052 C 43.858 14.453 41.974 17.263 39.841 20.073 C 37.833 22.723 28.237 32.542 25.533 33.438 Z " transform="matrix(1, 0, 0, 1, 18.5, 0.25)"/>
          <path id="Shape" fill="#A0AA1E" stroke="none" stroke-width="1" d="M 25.883 33.558 C 26.991 32.109 28.811 30.904 30.157 29.628 C 31.900 27.974 33.679 26.364 35.451 24.746 C 38.025 22.397 40.777 19.989 44.384 19.527 C 45.689 19.362 48.063 19.282 48.513 20.896 C 48.915 22.381 46.959 24.080 45.995 24.878 C 44.564 26.018 43.033 27.024 41.420 27.885 C 40.524 28.395 29.823 32.426 25.883 33.558 Z " transform="matrix(1, 0, 0, 1, 18.5, 0.25)"/>
          <path id="Shape" fill="#A0AA1E" stroke="none" stroke-width="1" d="M 25.626 33.634 C 25.353 28.660 25.931 23.778 26.092 18.836 C 26.108 16.259 26.393 13.691 26.943 11.173 C 27.224 10.024 28.654 5.954 30.116 8.266 C 30.960 9.595 30.422 12.514 30.370 13.995 C 30.293 16.139 30.269 18.487 29.538 20.539 C 29.056 21.872 25.891 33.650 25.626 33.634 Z " transform="matrix(1, 0, 0, 1, 18.5, 0.25)"/>
        </g>
        <g id="Group">
          <path id="Shape" fill="#F01446" stroke="none" stroke-width="1" d="M 32.232 63.708 C 28.272 63.728 24.400 62.539 21.134 60.300 C 18.965 58.795 17.254 56.526 15.788 54.358 C 13.598 51.119 11.450 47.811 9.429 44.458 C 5.771 38.426 3.095 31.851 1.500 24.980 C 0.247 19.415 -0.147 9.150 5.633 5.709 C 8.594 3.939 12.980 2.927 16.334 2.237 C 19.238 1.639 22.102 0.888 25.086 0.631 C 26.789 0.495 28.509 0.338 30.196 0.603 C 31.493 0.808 32.124 1.522 33.060 1.530 C 33.240 1.530 34.417 0.876 34.743 0.796 C 35.405 0.666 36.077 0.593 36.751 0.579 C 38.896 0.454 40.912 0.796 43.017 1.113 C 48.452 1.916 54.184 3.987 58.437 7.564 C 63.743 12.024 62.880 18.849 61.410 24.988 C 59.803 31.748 54.063 47.116 48.556 54.567 C 43.049 62.018 35.494 63.724 32.232 63.708 Z " transform="matrix(1, 0, 0, 1, 11.5, 31.25)"/>
          <path id="Shape" fill="#F00A78" stroke="none" stroke-width="1" d="M 5.706 10.399 C 5.706 10.399 6.280 8.885 8.819 7.552 C 12.025 5.984 15.624 5.400 19.162 5.874 C 27.384 7.139 26.360 34.221 16.559 34.221 C 11.249 34.221 7.658 31.937 5.975 26.754 C 4.553 22.370 3.533 15.609 5.706 10.399 Z " transform="matrix(1, 0, 0, 1, 11.5, 31.25)"/>
          <path id="Oval" fill="#F04650" stroke="none" stroke-width="1" d="M 26.974 43.009 C 27.250 43.009 27.500 43.124 27.681 43.310 C 27.862 43.496 27.974 43.753 27.974 44.037 C 27.974 44.320 27.862 44.577 27.681 44.763 C 27.500 44.949 27.250 45.065 26.974 45.065 C 26.698 45.065 26.448 44.949 26.267 44.763 C 26.086 44.577 25.974 44.320 25.974 44.037 C 25.974 43.753 26.086 43.496 26.267 43.310 C 26.448 43.124 26.698 43.009 26.974 43.009 Z " transform="matrix(1, 0, 0, 1, 11.5, 31.25)"/>
          <path id="Oval" fill="#F04650" stroke="none" stroke-width="1" d="M 46.122 14.594 C 46.398 14.594 46.648 14.709 46.829 14.895 C 47.010 15.081 47.122 15.338 47.122 15.622 C 47.122 15.905 47.010 16.162 46.829 16.348 C 46.648 16.534 46.398 16.649 46.122 16.649 C 45.846 16.649 45.596 16.534 45.415 16.348 C 45.234 16.162 45.122 15.905 45.122 15.622 C 45.122 15.338 45.234 15.081 45.415 14.895 C 45.596 14.709 45.846 14.594 46.122 14.594 Z " transform="matrix(1, 0, 0, 1, 11.5, 31.25)"/>
          <path id="Oval" fill="#F04650" stroke="none" stroke-width="1" d="M 42.969 9.812 C 43.245 9.812 43.495 9.928 43.676 10.114 C 43.857 10.300 43.969 10.557 43.969 10.840 C 43.969 11.124 43.857 11.381 43.676 11.567 C 43.495 11.753 43.245 11.868 42.969 11.868 C 42.693 11.868 42.443 11.753 42.262 11.567 C 42.081 11.381 41.969 11.124 41.969 10.840 C 41.969 10.557 42.081 10.300 42.262 10.114 C 42.443 9.928 42.693 9.812 42.969 9.812 Z " transform="matrix(1, 0, 0, 1, 11.5, 31.25)"/>
          <path id="Oval" fill="#F04650" stroke="none" stroke-width="1" d="M 50.030 10.290 C 50.306 10.290 50.556 10.405 50.737 10.591 C 50.918 10.777 51.030 11.034 51.030 11.318 C 51.030 11.601 50.918 11.858 50.737 12.044 C 50.556 12.230 50.306 12.346 50.030 12.346 C 49.754 12.346 49.504 12.230 49.323 12.044 C 49.142 11.858 49.030 11.601 49.030 11.318 C 49.030 11.034 49.142 10.777 49.323 10.591 C 49.504 10.405 49.754 10.290 50.030 10.290 Z " transform="matrix(1, 0, 0, 1, 11.5, 31.25)"/>
          <path id="Oval" fill="#F04650" stroke="none" stroke-width="1" d="M 38.575 5.011 C 38.850 5.011 39.100 5.126 39.281 5.312 C 39.463 5.498 39.575 5.755 39.575 6.039 C 39.575 6.322 39.463 6.579 39.281 6.765 C 39.100 6.951 38.850 7.066 38.575 7.066 C 38.299 7.066 38.049 6.951 37.868 6.765 C 37.687 6.579 37.575 6.322 37.575 6.039 C 37.575 5.755 37.687 5.498 37.868 5.312 C 38.049 5.126 38.299 5.011 38.575 5.011 Z " transform="matrix(1, 0, 0, 1, 11.5, 31.25)"/>
          <path id="Oval" fill="#F04650" stroke="none" stroke-width="1" d="M 30.352 7.584 C 30.628 7.584 30.878 7.699 31.059 7.886 C 31.240 8.072 31.352 8.328 31.352 8.612 C 31.352 8.896 31.240 9.153 31.059 9.339 C 30.878 9.525 30.628 9.640 30.352 9.640 C 30.076 9.640 29.826 9.525 29.645 9.339 C 29.464 9.153 29.352 8.896 29.352 8.612 C 29.352 8.328 29.464 8.072 29.645 7.886 C 29.826 7.699 30.076 7.584 30.352 7.584 Z " transform="matrix(1, 0, 0, 1, 11.5, 31.25)"/>
          <path id="Oval" fill="#F04650" stroke="none" stroke-width="1" d="M 23.608 6.878 C 23.884 6.878 24.134 6.993 24.315 7.179 C 24.496 7.365 24.608 7.622 24.608 7.905 C 24.608 8.189 24.496 8.446 24.315 8.632 C 24.134 8.818 23.884 8.933 23.608 8.933 C 23.332 8.933 23.082 8.818 22.901 8.632 C 22.720 8.446 22.608 8.189 22.608 7.905 C 22.608 7.622 22.720 7.365 22.901 7.179 C 23.082 6.993 23.332 6.878 23.608 6.878 Z " transform="matrix(1, 0, 0, 1, 11.5, 31.25)"/>
          <path id="Oval" fill="#F04650" stroke="none" stroke-width="1" d="M 15.065 6.685 C 15.340 6.685 15.590 6.800 15.772 6.986 C 15.953 7.172 16.065 7.429 16.065 7.713 C 16.065 7.996 15.953 8.253 15.772 8.439 C 15.590 8.625 15.340 8.741 15.065 8.741 C 14.789 8.741 14.539 8.625 14.358 8.439 C 14.177 8.253 14.065 7.996 14.065 7.713 C 14.065 7.429 14.177 7.172 14.358 6.986 C 14.539 6.800 14.789 6.685 15.065 6.685 Z " transform="matrix(1, 0, 0, 1, 11.5, 31.25)"/>
          <path id="Oval" fill="#F04650" stroke="none" stroke-width="1" d="M 21.118 15.104 C 21.394 15.104 21.644 15.219 21.825 15.405 C 22.006 15.591 22.118 15.848 22.118 16.131 C 22.118 16.415 22.006 16.672 21.825 16.858 C 21.644 17.044 21.394 17.159 21.118 17.159 C 20.842 17.159 20.592 17.044 20.411 16.858 C 20.230 16.672 20.118 16.415 20.118 16.131 C 20.118 15.848 20.230 15.591 20.411 15.405 C 20.592 15.219 20.842 15.104 21.118 15.104 Z " transform="matrix(1, 0, 0, 1, 11.5, 31.25)"/>
          <path id="Oval" fill="#F04650" stroke="none" stroke-width="1" d="M 12.474 14.606 C 12.750 14.606 13 14.721 13.181 14.907 C 13.362 15.093 13.474 15.350 13.474 15.634 C 13.474 15.917 13.362 16.174 13.181 16.360 C 13 16.546 12.750 16.661 12.474 16.661 C 12.198 16.661 11.948 16.546 11.767 16.360 C 11.586 16.174 11.474 15.917 11.474 15.634 C 11.474 15.350 11.586 15.093 11.767 14.907 C 11.948 14.721 12.198 14.606 12.474 14.606 Z " transform="matrix(1, 0, 0, 1, 11.5, 31.25)"/>
          <path id="Oval" fill="#F04650" stroke="none" stroke-width="1" d="M 37.297 45.330 C 37.573 45.330 37.823 45.445 38.004 45.631 C 38.185 45.817 38.297 46.074 38.297 46.357 C 38.297 46.641 38.185 46.898 38.004 47.084 C 37.823 47.270 37.573 47.385 37.297 47.385 C 37.021 47.385 36.771 47.270 36.590 47.084 C 36.409 46.898 36.297 46.641 36.297 46.357 C 36.297 46.074 36.409 45.817 36.590 45.631 C 36.771 45.445 37.021 45.330 37.297 45.330 Z " transform="matrix(1, 0, 0, 1, 11.5, 31.25)"/>
          <path id="Oval" fill="#F04650" stroke="none" stroke-width="1" d="M 34.128 13.534 C 34.404 13.534 34.654 13.649 34.835 13.835 C 35.016 14.021 35.128 14.278 35.128 14.562 C 35.128 14.845 35.016 15.102 34.835 15.288 C 34.654 15.474 34.404 15.589 34.128 15.589 C 33.852 15.589 33.602 15.474 33.421 15.288 C 33.240 15.102 33.128 14.845 33.128 14.562 C 33.128 14.278 33.240 14.021 33.421 13.835 C 33.602 13.649 33.852 13.534 34.128 13.534 Z " transform="matrix(1, 0, 0, 1, 11.5, 31.25)"/>
          <path id="Oval" fill="#F04650" stroke="none" stroke-width="1" d="M 36.418 20.122 C 36.693 20.122 36.943 20.237 37.124 20.423 C 37.306 20.609 37.418 20.866 37.418 21.150 C 37.418 21.433 37.306 21.690 37.124 21.876 C 36.943 22.062 36.693 22.177 36.418 22.177 C 36.142 22.177 35.892 22.062 35.711 21.876 C 35.530 21.690 35.418 21.433 35.418 21.150 C 35.418 20.866 35.530 20.609 35.711 20.423 C 35.892 20.237 36.142 20.122 36.418 20.122 Z " transform="matrix(1, 0, 0, 1, 11.5, 31.25)"/>
          <path id="Oval" fill="#F04650" stroke="none" stroke-width="1" d="M 28.637 15.188 C 28.913 15.188 29.163 15.303 29.344 15.489 C 29.525 15.675 29.637 15.932 29.637 16.216 C 29.637 16.499 29.525 16.756 29.344 16.942 C 29.163 17.128 28.913 17.243 28.637 17.243 C 28.361 17.243 28.111 17.128 27.930 16.942 C 27.749 16.756 27.637 16.499 27.637 16.216 C 27.637 15.932 27.749 15.675 27.930 15.489 C 28.111 15.303 28.361 15.188 28.637 15.188 Z " transform="matrix(1, 0, 0, 1, 11.5, 31.25)"/>
          <path id="Oval" fill="#F04650" stroke="none" stroke-width="1" d="M 20.013 48.999 C 20.289 48.999 20.539 49.114 20.720 49.300 C 20.901 49.486 21.013 49.743 21.013 50.027 C 21.013 50.310 20.901 50.567 20.720 50.753 C 20.539 50.939 20.289 51.054 20.013 51.054 C 19.737 51.054 19.487 50.939 19.306 50.753 C 19.125 50.567 19.013 50.310 19.013 50.027 C 19.013 49.743 19.125 49.486 19.306 49.300 C 19.487 49.114 19.737 48.999 20.013 48.999 Z " transform="matrix(1, 0, 0, 1, 11.5, 31.25)"/>
          <path id="Oval" fill="#F04650" stroke="none" stroke-width="1" d="M 26.974 21.563 C 27.250 21.563 27.500 21.678 27.681 21.864 C 27.862 22.050 27.974 22.307 27.974 22.591 C 27.974 22.874 27.862 23.131 27.681 23.317 C 27.500 23.503 27.250 23.619 26.974 23.619 C 26.698 23.619 26.448 23.503 26.267 23.317 C 26.086 23.131 25.974 22.874 25.974 22.591 C 25.974 22.307 26.086 22.050 26.267 21.864 C 26.448 21.678 26.698 21.563 26.974 21.563 Z " transform="matrix(1, 0, 0, 1, 11.5, 31.25)"/>
          <path id="Oval" fill="#F04650" stroke="none" stroke-width="1" d="M 15.101 38.565 C 15.377 38.565 15.627 38.680 15.808 38.866 C 15.989 39.052 16.101 39.309 16.101 39.593 C 16.101 39.876 15.989 40.133 15.808 40.319 C 15.627 40.505 15.377 40.620 15.101 40.620 C 14.825 40.620 14.575 40.505 14.394 40.319 C 14.213 40.133 14.101 39.876 14.101 39.593 C 14.101 39.309 14.213 39.052 14.394 38.866 C 14.575 38.680 14.825 38.565 15.101 38.565 Z " transform="matrix(1, 0, 0, 1, 11.5, 31.25)"/>
          <path id="Oval" fill="#F04650" stroke="none" stroke-width="1" d="M 21.973 28.320 C 22.249 28.320 22.499 28.435 22.680 28.621 C 22.861 28.807 22.973 29.064 22.973 29.347 C 22.973 29.631 22.861 29.888 22.680 30.074 C 22.499 30.260 22.249 30.375 21.973 30.375 C 21.697 30.375 21.447 30.260 21.266 30.074 C 21.085 29.888 20.973 29.631 20.973 29.347 C 20.973 29.064 21.085 28.807 21.266 28.621 C 21.447 28.435 21.697 28.320 21.973 28.320 Z " transform="matrix(1, 0, 0, 1, 11.5, 31.25)"/>
          <path id="Oval" fill="#F04650" stroke="none" stroke-width="1" d="M 14.651 28.055 C 14.927 28.055 15.177 28.170 15.358 28.356 C 15.539 28.542 15.651 28.799 15.651 29.082 C 15.651 29.366 15.539 29.623 15.358 29.809 C 15.177 29.995 14.927 30.110 14.651 30.110 C 14.375 30.110 14.125 29.995 13.944 29.809 C 13.763 29.623 13.651 29.366 13.651 29.082 C 13.651 28.799 13.763 28.542 13.944 28.356 C 14.125 28.170 14.375 28.055 14.651 28.055 Z " transform="matrix(1, 0, 0, 1, 11.5, 31.25)"/>
          <path id="Oval" fill="#F04650" stroke="none" stroke-width="1" d="M 47.291 26.561 C 47.567 26.561 47.817 26.676 47.998 26.863 C 48.179 27.049 48.291 27.306 48.291 27.589 C 48.291 27.873 48.179 28.130 47.998 28.316 C 47.817 28.502 47.567 28.617 47.291 28.617 C 47.015 28.617 46.765 28.502 46.584 28.316 C 46.403 28.130 46.291 27.873 46.291 27.589 C 46.291 27.306 46.403 27.049 46.584 26.863 C 46.765 26.676 47.015 26.561 47.291 26.561 Z " transform="matrix(1, 0, 0, 1, 11.5, 31.25)"/>
          <path id="Oval" fill="#F04650" stroke="none" stroke-width="1" d="M 53.641 15.104 C 53.917 15.104 54.167 15.219 54.348 15.405 C 54.529 15.591 54.641 15.848 54.641 16.131 C 54.641 16.415 54.529 16.672 54.348 16.858 C 54.167 17.044 53.917 17.159 53.641 17.159 C 53.365 17.159 53.115 17.044 52.934 16.858 C 52.753 16.672 52.641 16.415 52.641 16.131 C 52.641 15.848 52.753 15.591 52.934 15.405 C 53.115 15.219 53.365 15.104 53.641 15.104 Z " transform="matrix(1, 0, 0, 1, 11.5, 31.25)"/>
          <path id="Oval" fill="#F04650" stroke="none" stroke-width="1" d="M 54.268 25.220 C 54.544 25.220 54.794 25.336 54.975 25.522 C 55.156 25.708 55.268 25.965 55.268 26.248 C 55.268 26.532 55.156 26.789 54.975 26.975 C 54.794 27.161 54.544 27.276 54.268 27.276 C 53.992 27.276 53.742 27.161 53.561 26.975 C 53.380 26.789 53.268 26.532 53.268 26.248 C 53.268 25.965 53.380 25.708 53.561 25.522 C 53.742 25.336 53.992 25.220 54.268 25.220 Z " transform="matrix(1, 0, 0, 1, 11.5, 31.25)"/>
          <path id="Oval" fill="#F04650" stroke="none" stroke-width="1" d="M 57.666 19.841 C 57.942 19.841 58.192 19.956 58.373 20.142 C 58.554 20.328 58.666 20.585 58.666 20.869 C 58.666 21.152 58.554 21.409 58.373 21.595 C 58.192 21.781 57.942 21.896 57.666 21.896 C 57.390 21.896 57.140 21.781 56.959 21.595 C 56.778 21.409 56.666 21.152 56.666 20.869 C 56.666 20.585 56.778 20.328 56.959 20.142 C 57.140 19.956 57.390 19.841 57.666 19.841 Z " transform="matrix(1, 0, 0, 1, 11.5, 31.25)"/>
          <path id="Oval" fill="#F04650" stroke="none" stroke-width="1" d="M 57.863 10.214 C 58.139 10.214 58.389 10.329 58.570 10.515 C 58.751 10.701 58.863 10.958 58.863 11.242 C 58.863 11.525 58.751 11.782 58.570 11.968 C 58.389 12.154 58.139 12.269 57.863 12.269 C 57.587 12.269 57.337 12.154 57.156 11.968 C 56.975 11.782 56.863 11.525 56.863 11.242 C 56.863 10.958 56.975 10.701 57.156 10.515 C 57.337 10.329 57.587 10.214 57.863 10.214 Z " transform="matrix(1, 0, 0, 1, 11.5, 31.25)"/>
          <path id="Oval" fill="#F04650" stroke="none" stroke-width="1" d="M 45.997 3.851 C 46.273 3.851 46.523 3.966 46.704 4.152 C 46.885 4.338 46.997 4.595 46.997 4.878 C 46.997 5.162 46.885 5.419 46.704 5.605 C 46.523 5.791 46.273 5.906 45.997 5.906 C 45.722 5.906 45.472 5.791 45.291 5.605 C 45.110 5.419 44.997 5.162 44.997 4.878 C 44.997 4.595 45.110 4.338 45.291 4.152 C 45.472 3.966 45.722 3.851 45.997 3.851 Z " transform="matrix(1, 0, 0, 1, 11.5, 31.25)"/>
          <path id="Oval" fill="#F04650" stroke="none" stroke-width="1" d="M 6.481 10.936 C 6.757 10.936 7.007 11.052 7.188 11.238 C 7.369 11.424 7.481 11.681 7.481 11.964 C 7.481 12.248 7.369 12.505 7.188 12.691 C 7.007 12.877 6.757 12.992 6.481 12.992 C 6.205 12.992 5.955 12.877 5.774 12.691 C 5.593 12.505 5.481 12.248 5.481 11.964 C 5.481 11.681 5.593 11.424 5.774 11.238 C 5.955 11.052 6.205 10.936 6.481 10.936 Z " transform="matrix(1, 0, 0, 1, 11.5, 31.25)"/>
          <path id="Oval" fill="#F04650" stroke="none" stroke-width="1" d="M 4.742 24.703 C 5.017 24.703 5.267 24.818 5.449 25.004 C 5.630 25.190 5.742 25.447 5.742 25.730 C 5.742 26.014 5.630 26.271 5.449 26.457 C 5.267 26.643 5.017 26.758 4.742 26.758 C 4.466 26.758 4.216 26.643 4.035 26.457 C 3.854 26.271 3.742 26.014 3.742 25.730 C 3.742 25.447 3.854 25.190 4.035 25.004 C 4.216 24.818 4.466 24.703 4.742 24.703 Z " transform="matrix(1, 0, 0, 1, 11.5, 31.25)"/>
          <path id="Oval" fill="#F04650" stroke="none" stroke-width="1" d="M 2.998 18.372 C 3.274 18.372 3.524 18.487 3.705 18.673 C 3.886 18.859 3.998 19.116 3.998 19.399 C 3.998 19.683 3.886 19.940 3.705 20.126 C 3.524 20.312 3.274 20.427 2.998 20.427 C 2.722 20.427 2.472 20.312 2.291 20.126 C 2.110 19.940 1.998 19.683 1.998 19.399 C 1.998 19.116 2.110 18.859 2.291 18.673 C 2.472 18.487 2.722 18.372 2.998 18.372 Z " transform="matrix(1, 0, 0, 1, 11.5, 31.25)"/>
          <path id="Oval" fill="#F04650" stroke="none" stroke-width="1" d="M 33.192 24.943 C 33.468 24.943 33.718 25.059 33.899 25.245 C 34.080 25.431 34.192 25.688 34.192 25.971 C 34.192 26.255 34.080 26.512 33.899 26.698 C 33.718 26.884 33.468 26.999 33.192 26.999 C 32.916 26.999 32.666 26.884 32.485 26.698 C 32.304 26.512 32.192 26.255 32.192 25.971 C 32.192 25.688 32.304 25.431 32.485 25.245 C 32.666 25.059 32.916 24.943 33.192 24.943 Z " transform="matrix(1, 0, 0, 1, 11.5, 31.25)"/>
          <path id="Oval" fill="#F04650" stroke="none" stroke-width="1" d="M 50.673 34.121 C 50.949 34.121 51.199 34.236 51.380 34.422 C 51.561 34.608 51.673 34.865 51.673 35.149 C 51.673 35.432 51.561 35.689 51.380 35.875 C 51.199 36.061 50.949 36.176 50.673 36.176 C 50.397 36.176 50.147 36.061 49.966 35.875 C 49.785 35.689 49.673 35.432 49.673 35.149 C 49.673 34.865 49.785 34.608 49.966 34.422 C 50.147 34.236 50.397 34.121 50.673 34.121 Z " transform="matrix(1, 0, 0, 1, 11.5, 31.25)"/>
          <path id="Oval" fill="#F04650" stroke="none" stroke-width="1" d="M 39.121 29.627 C 39.405 29.627 39.662 29.739 39.848 29.920 C 40.034 30.101 40.150 30.351 40.150 30.627 C 40.150 30.903 40.034 31.153 39.848 31.334 C 39.662 31.515 39.405 31.627 39.121 31.627 C 38.838 31.627 38.581 31.515 38.394 31.334 C 38.208 31.153 38.093 30.903 38.093 30.627 C 38.093 30.351 38.208 30.101 38.394 29.920 C 38.581 29.739 38.838 29.627 39.121 29.627 Z " transform="matrix(0.36650121212005615, -0.9304175972938538, 0.9304175972938538, 0.36650121212005615, 7.75, 87.05)"/>
          <path id="Oval" fill="#F04650" stroke="none" stroke-width="1" d="M 42.330 18.372 C 42.606 18.372 42.856 18.487 43.037 18.673 C 43.218 18.859 43.330 19.116 43.330 19.399 C 43.330 19.683 43.218 19.940 43.037 20.126 C 42.856 20.312 42.606 20.427 42.330 20.427 C 42.054 20.427 41.804 20.312 41.623 20.126 C 41.442 19.940 41.330 19.683 41.330 19.399 C 41.330 19.116 41.442 18.859 41.623 18.673 C 41.804 18.487 42.054 18.372 42.330 18.372 Z " transform="matrix(1, 0, 0, 1, 11.5, 31.25)"/>
          <path id="Oval" fill="#F04650" stroke="none" stroke-width="1" d="M 29.794 33.735 C 30.070 33.735 30.320 33.851 30.501 34.037 C 30.682 34.223 30.794 34.480 30.794 34.763 C 30.794 35.047 30.682 35.304 30.501 35.490 C 30.320 35.676 30.070 35.791 29.794 35.791 C 29.518 35.791 29.268 35.676 29.087 35.490 C 28.906 35.304 28.794 35.047 28.794 34.763 C 28.794 34.480 28.906 34.223 29.087 34.037 C 29.268 33.851 29.518 33.735 29.794 33.735 Z " transform="matrix(1, 0, 0, 1, 11.5, 31.25)"/>
          <path id="Oval" fill="#F04650" stroke="none" stroke-width="1" d="M 49.689 20.419 C 49.965 20.419 50.215 20.534 50.396 20.720 C 50.577 20.906 50.689 21.163 50.689 21.447 C 50.689 21.730 50.577 21.987 50.396 22.173 C 50.215 22.359 49.965 22.474 49.689 22.474 C 49.413 22.474 49.163 22.359 48.982 22.173 C 48.801 21.987 48.689 21.730 48.689 21.447 C 48.689 21.163 48.801 20.906 48.982 20.720 C 49.163 20.534 49.413 20.419 49.689 20.419 Z " transform="matrix(1, 0, 0, 1, 11.5, 31.25)"/>
          <path id="Oval" fill="#F04650" stroke="none" stroke-width="1" d="M 50.946 42.816 C 51.222 42.816 51.472 42.932 51.653 43.118 C 51.834 43.304 51.946 43.561 51.946 43.844 C 51.946 44.128 51.834 44.385 51.653 44.571 C 51.472 44.757 51.222 44.872 50.946 44.872 C 50.670 44.872 50.420 44.757 50.239 44.571 C 50.058 44.385 49.946 44.128 49.946 43.844 C 49.946 43.561 50.058 43.304 50.239 43.118 C 50.420 42.932 50.670 42.816 50.946 42.816 Z " transform="matrix(1, 0, 0, 1, 11.5, 31.25)"/>
          <path id="Oval" fill="#F04650" stroke="none" stroke-width="1" d="M 42.555 37.212 C 42.831 37.212 43.081 37.327 43.262 37.513 C 43.443 37.699 43.555 37.956 43.555 38.240 C 43.555 38.523 43.443 38.780 43.262 38.966 C 43.081 39.152 42.831 39.268 42.555 39.268 C 42.279 39.268 42.029 39.152 41.848 38.966 C 41.667 38.780 41.555 38.523 41.555 38.240 C 41.555 37.956 41.667 37.699 41.848 37.513 C 42.029 37.327 42.279 37.212 42.555 37.212 Z " transform="matrix(1, 0, 0, 1, 11.5, 31.25)"/>
          <path id="Oval" fill="#F04650" stroke="none" stroke-width="1" d="M 17.438 21.627 C 17.714 21.627 17.964 21.743 18.145 21.929 C 18.326 22.115 18.438 22.372 18.438 22.655 C 18.438 22.939 18.326 23.196 18.145 23.382 C 17.964 23.568 17.714 23.683 17.438 23.683 C 17.163 23.683 16.913 23.568 16.732 23.382 C 16.551 23.196 16.438 22.939 16.438 22.655 C 16.438 22.372 16.551 22.115 16.732 21.929 C 16.913 21.743 17.163 21.627 17.438 21.627 Z " transform="matrix(1, 0, 0, 1, 11.5, 31.25)"/>
          <path id="Oval" fill="#F04650" stroke="none" stroke-width="1" d="M 10.425 20.210 C 10.701 20.210 10.951 20.325 11.132 20.511 C 11.313 20.697 11.425 20.954 11.425 21.238 C 11.425 21.522 11.313 21.778 11.132 21.964 C 10.951 22.151 10.701 22.266 10.425 22.266 C 10.149 22.266 9.899 22.151 9.718 21.964 C 9.537 21.778 9.425 21.522 9.425 21.238 C 9.425 20.954 9.537 20.697 9.718 20.511 C 9.899 20.325 10.149 20.210 10.425 20.210 Z " transform="matrix(1, 0, 0, 1, 11.5, 31.25)"/>
        </g>
      </g>
    </g>
  </g>
</svg>