<?xml version="1.0" encoding="utf-8"?>
<!-- Generator: Adobe Illustrator 18.0.0, SVG Export Plug-In . SVG Version: 6.00 Build 0)  -->
<!DOCTYPE svg PUBLIC "-//W3C//DTD SVG 1.1//EN" "http://www.w3.org/Graphics/SVG/1.1/DTD/svg11.dtd">
<svg version="1.1" id="Layer_2" xmlns="http://www.w3.org/2000/svg" xmlns:xlink="http://www.w3.org/1999/xlink" x="0px" y="0px"
	 viewBox="0 0 53.3 51.6" enable-background="new 0 0 53.3 51.6" xml:space="preserve">
<g>
	<path fill="#53AD4E" d="M53.2,0.2c0,0-0.2-0.1-0.4-0.1c-0.2,0-0.4,0-0.6,0c-2,0-4.1,0.1-6.1,0.2c-1.4,0-2.8,0-4.3,0
		c-0.4,0-0.9,0.2-1.3,0.4c-0.6,0.3-1.1,0.7-1.6,1.2c-0.7,0.6-1.4,1.2-1.8,1.9c-0.2,0.4,0.2,1.2,0.3,1.8c0,0,0,0,0,0.1
		c0.1,0.5,0.3,0.6,0.8,0.6c0.9,0,1.7,0,2.6,0.2c0.9,0.1,1.4,0.7,1.5,1.6c0.2,2.5,0.6,5.1,0.6,7.6c0.1,3.7-0.1,7.5-0.2,11.2
		c0,1.2-0.1,2.4-0.2,3.8c-0.8-0.8-1.5-1.5-2.1-2.2c-1.9-1.9-3.8-3.8-5.7-5.8c-1.8-1.9-3.5-3.8-5.4-5.7c-1.8-1.8-3.7-3.5-5.5-5.2
		c-1.1-1.1-2.1-2.2-3.1-3.4c-1.7-1.8-3.3-3.5-5-5.3c-0.2-0.2-0.4-0.4-0.7-0.5c-2-1.2-4.1-2-6.4-2.2C7.1,0.1,5.6,0.1,4.1,0
		C4,0.4,4,0.6,3.9,0.8C2.7,2.1,1.5,3.5,0.2,4.9C0.2,4.9,0.1,5.1,0.1,5.2C0,5.8,0,6.3,0,6.9c0,0.1,0.3,0.4,0.4,0.4
		c1.4,0.2,2.8,0.3,4.1,0.5c1.7,0.3,2.8,1.4,2.9,3.1c0.1,1.2,0.2,2.5,0.2,3.8c0,4,0,8.1,0,12.2c0,4.6-0.1,9.3-0.2,13.9
		c0,0.3,0,0.6-0.1,0.9c-0.1,0.5-0.2,1-0.2,1.4c0,0.6,0.2,1.2,0.1,1.8c0,0.3-0.2,0.7-0.4,0.9C6,46.7,5,47.7,4,48.6
		c-0.6,0.5-0.8,1.2-0.8,1.9c0,0.7,0.3,1,1,1c1.1,0,2.2,0.1,3.3,0.1c2.7-0.1,5.5-0.2,8.2-0.3c0.6,0,1-0.4,1.3-0.9
		c0.5-0.8,0.9-1.6,1.5-2.3c0.5-0.6,0.8-1.3,0.7-2.1c0-0.5-0.2-0.7-0.6-0.7c-0.6,0-1.2-0.1-1.7-0.2c-0.7-0.1-1-0.5-1.1-1.2
		c-0.2-1.5,0.1-3,0.1-4.5c0.1-4.7-0.8-9.3-0.3-14c0.1-1,0-2,0-3c0.1-0.1,0.2-0.1,0.4-0.1c1.7,1.7,3.5,3.3,5,5.1
		c4.2,5.2,8.9,10,14.1,14.3c3.3,2.7,6.6,5.3,9.5,8.5c0.5,0.6,1,1,1.9,1c0.9,0,1.3-0.2,1.8-1c0.9-1.4,1.8-2.8,1.8-4.5
		c-0.1-3.3-0.2-6.6-0.3-9.9C49.6,29.9,49.5,24,50,18.2c0.3-3.4,0.3-6.8-0.3-10.2c-0.2-1.3-0.3-2.6-0.2-4c0.1-0.9,0.4-1.2,1.3-1.3
		c0.6-0.1,1.2-0.1,1.7-0.2c0.2,0,0.6-0.2,0.6-0.4C53.3,1.4,53.2,0.8,53.2,0.2z M38,5.3c-0.4-0.7-0.4-1.2,0.2-1.8
		c1-0.9,1.9-1.8,2.9-2.8C41.7,3.5,39.5,4.1,38,5.3z M39.9,5.6c-0.3,0-0.6,0-0.9-0.1c0-0.1,0-0.2,0.1-0.2C40.2,4.9,41,4,41.8,3
		c0.6-0.8,2.5-0.6,2.9,0.3c0.2,0.5,0.5,1.1,0.4,1.7c-0.3,2.9,0.4,5.7,0.5,8.5c0,1.5,0,3,0,4.4c0,5,0.1,10,0.2,14.9v1
		c-0.1,0-0.2,0.1-0.3,0.1c-0.3-0.3-0.7-0.6-1-1c-0.2-0.2-0.2-0.6-0.5-0.7c-0.9-0.7-0.9-1.7-0.8-2.7c0.1-3.6,0-7.2,0.2-10.7
		c0.2-3.4-0.1-6.8-0.5-10.2C42.7,6.6,41.9,5.8,39.9,5.6z M0.5,6.1c0.1-0.3,0.1-0.7,0.3-0.9C1.9,4,3.1,2.8,4.2,1.5
		c0-0.1,0.1-0.1,0.4-0.2c-0.1,0.5-0.1,1-0.3,1.2C3.2,3.8,2,5.1,0.8,6.3C0.7,6.2,0.6,6.1,0.5,6.1z M7.5,9.1C6.8,7.3,5,7,3.3,6.8
		C2.6,6.7,2,6.7,1.4,6.7c1-1.1,2.1-2.1,3.1-3.2c0.4-0.4,0.7-1.1,1-1.1c1,0.1,2.1,0.2,2.9,0.7c2.2,1.1,2.7,3.2,2.7,5.5
		c0,2.2,0.2,4.3,0.2,6.5c0.1,1.4,0.1,2.8,0.1,4.3c-0.1,4.6-0.2,9.1-0.2,13.7c0,1.8,0.3,3.6,0.3,5.4c0,1.6,0,3.2-0.2,4.9
		c-0.2,1.7-0.3,1.8-2,2c-0.5,0.1-1,0.1-1.6,0.1c0-1,0.1-2.1,0.2-3.1C8,41.9,8,41.4,8,41c0-4.3,0-8.7,0.1-13c0-2,0.1-3.9,0.2-5.8
		c0-3.1,0.1-6.2,0-9.2C8.2,11.6,8,10.3,7.5,9.1z M4,50.9c-0.1-0.6,0-1.1,0.4-1.5c1.1-1.1,2.1-2.3,3.1-3.4c0.6,1.3,0,2.2-1,3
		C5.7,49.6,4.9,50.2,4,50.9z M17.8,47.6c-0.5,0.9-1,1.7-1.5,2.5c-0.2,0.2-0.5,0.4-0.8,0.4c-3.2,0.1-6.5,0.2-9.8,0.3
		c-0.2,0-0.3,0-0.5-0.1C6.7,50,7.9,49,8.6,47.3C11.6,47.4,14.7,47.5,17.8,47.6z M45.1,49.8c-2.5-3.2-5.8-5.5-8.9-8.1
		C30.9,37.2,26,32.3,21.7,27c-1.3-1.7-3-3-4.6-4.5c-0.9-0.9-1.7-1.8-1.6-3.2c0.1-1.8,0-3.6,0.1-5.3c0-0.2,0.1-0.4,0.2-0.7
		c0.9,1,1.7,1.9,2.5,2.8c0.9,0.9,1.9,1.7,2.8,2.6c0.6,0.6,1.2,1.1,1.7,1.7c2.3,2.5,4.7,5,7,7.6c1.3,1.4,2.4,2.9,3.7,4.2
		c1.3,1.5,2.7,2.9,4,4.3c0.7,0.8,1.2,1.7,1.9,2.5c1.6,1.6,3.3,3.2,5,4.7c1.1,1,2.2,2.1,3.2,3.1c0.1,0.1,0.2,0.5,0.1,0.6
		c-0.3,0.6-0.7,1.3-1.1,1.9c-0.2,0.3-0.5,0.6-0.8,1C45.6,50.1,45.3,50,45.1,49.8z M47.4,50.5c-0.1,0.2-0.5,0.2-0.8,0.2
		c0-0.1-0.1-0.2-0.2-0.2c1.3-0.6,1.5-2.1,2.5-2.9c0.1,0.1,0.2,0.1,0.2,0.2C48.6,48.7,48,49.6,47.4,50.5z"/>
	<path fill="#FFFFFF" d="M38,5.3c-0.4-0.7-0.4-1.2,0.2-1.8c1-0.9,1.9-1.8,2.9-2.8C41.7,3.5,39.5,4.1,38,5.3z"/>
	<path fill="#FFFFFF" d="M4.7,1.3c-0.1,0.5-0.1,1-0.3,1.2C3.2,3.8,2,5.1,0.8,6.3C0.7,6.2,0.6,6.1,0.5,6.1c0.1-0.3,0.1-0.7,0.3-0.9
		C1.9,4,3.1,2.8,4.2,1.5C4.3,1.5,4.4,1.5,4.7,1.3z"/>
	<path fill="#FFFFFF" d="M6.5,48.9c-0.8,0.7-1.7,1.3-2.6,2c-0.1-0.6,0-1.1,0.4-1.5c1.1-1.1,2.1-2.3,3.1-3.4
		C8.1,47.2,7.5,48.2,6.5,48.9z"/>
	<path fill="#FFFFFF" d="M17.8,47.6c-0.5,0.9-1,1.7-1.5,2.5c-0.2,0.2-0.5,0.4-0.8,0.4c-3.2,0.1-6.5,0.2-9.8,0.3
		c-0.2,0-0.3,0-0.5-0.1C6.7,50,7.9,49,8.6,47.3C11.6,47.4,14.7,47.5,17.8,47.6z"/>
	<path fill="#FFFFFF" d="M49.1,47.8c-0.6,0.9-1.1,1.8-1.8,2.7c-0.1,0.2-0.5,0.2-0.8,0.2c0-0.1-0.1-0.2-0.2-0.2
		c1.3-0.6,1.5-2.1,2.5-2.9C49,47.6,49.1,47.7,49.1,47.8z"/>
	<path fill="#FFFFFF" d="M45.7,32.8v1c-0.1,0-0.2,0.1-0.3,0.1c-0.3-0.3-0.7-0.6-1-1c-0.2-0.2-0.2-0.6-0.5-0.7
		c-0.9-0.7-0.9-1.7-0.8-2.7c0.1-3.6,0-7.2,0.2-10.7c0.2-3.4-0.1-6.8-0.5-10.2c-0.2-2.1-1-2.8-3.1-3c-0.3,0-0.6,0-0.9-0.1
		c0-0.1,0-0.2,0.1-0.2C40.2,4.9,41,4,41.8,3c0.6-0.8,2.5-0.6,2.9,0.3c0.2,0.5,0.5,1.1,0.4,1.7c-0.3,2.9,0.4,5.7,0.5,8.5
		c0,1.5,0,3,0,4.4C45.6,22.9,45.7,27.8,45.7,32.8z"/>
	<path fill="#FFFFFF" d="M47.7,47.5c-0.3,0.6-0.7,1.3-1.1,1.9c-0.2,0.3-0.5,0.6-0.8,1c-0.2-0.2-0.5-0.3-0.7-0.5
		c-2.5-3.2-5.8-5.5-8.9-8.1C30.9,37.2,26,32.3,21.7,27c-1.3-1.7-3-3-4.6-4.5c-0.9-0.9-1.7-1.8-1.6-3.2c0.1-1.8,0-3.6,0.1-5.3
		c0-0.2,0.1-0.4,0.2-0.7c0.9,1,1.7,1.9,2.5,2.8c0.9,0.9,1.9,1.7,2.8,2.6c0.6,0.6,1.2,1.1,1.7,1.7c2.3,2.5,4.7,5,7,7.6
		c1.3,1.4,2.4,2.9,3.7,4.2c1.3,1.5,2.7,2.9,4,4.3c0.7,0.8,1.2,1.7,1.9,2.5c1.6,1.6,3.3,3.2,5,4.7c1.1,1,2.2,2.1,3.2,3.1
		C47.8,47,47.8,47.3,47.7,47.5z"/>
	<path fill="#FFFFFF" d="M11.4,43.3c-0.2,1.7-0.3,1.8-2,2c-0.5,0.1-1,0.1-1.6,0.1c0-1,0.1-2.1,0.2-3.1C8,41.9,8,41.4,8,41
		c0-4.3,0-8.7,0.1-13c0-2,0.1-3.9,0.2-5.8c0-3.1,0.1-6.2,0-9.2c0-1.3-0.2-2.6-0.7-3.8C6.8,7.3,5,7,3.3,6.8C2.6,6.7,2,6.7,1.4,6.7
		c1-1.1,2.1-2.1,3.1-3.2c0.4-0.4,0.7-1.1,1-1.1c1,0.1,2.1,0.2,2.9,0.7c2.2,1.1,2.7,3.2,2.7,5.5c0,2.2,0.2,4.3,0.2,6.5
		c0.1,1.4,0.1,2.8,0.1,4.3c-0.1,4.6-0.2,9.1-0.2,13.7c0,1.8,0.3,3.6,0.3,5.4C11.6,40,11.6,41.7,11.4,43.3z"/>
</g>
</svg>
