<svg version="1.1" width="142" height="123" viewBox="-1 -1 142 123" xmlns="http://www.w3.org/2000/svg" xmlns:xlink="http://www.w3.org/1999/xlink">
  <!-- Exported by Scratch - http://scratch.mit.edu/ -->
  <g id="ID0.07848733244463801" transform="matrix(1, 0, 0, 1, 0, 0.5)">
    <g id="Page-1">
      <g id="ghost-d-[fantasy,spooky,halloween,ghoul,monster,alex-eben-meyer]">
        <g id="Arm-T">
          <path id="Shape" fill="#78C8C8" stroke="none" stroke-width="1" d="M 79.063 0.222 C 56.400 0.543 2.060 2.791 0.515 4.011 C 0.515 4.267 0.451 4.588 0.386 4.909 C 1.416 5.231 5.279 4.203 5.408 5.552 C 4.442 6.900 1.674 6.836 0.386 7.992 C 1.932 8.569 5.408 6.386 5.730 9.083 C 4.378 9.661 2.125 10.239 1.159 11.395 C 1.867 11.780 57.559 11.908 79.063 11.844 L 79.063 0.222 Z " transform="matrix(1, 0, 0, 1, 0, 48)"/>
          <path id="Shape" fill="#AADCDC" stroke="none" stroke-width="1" d="M 16.225 7.992 C 16.096 6.001 13.199 5.808 13.263 7.927 C 13.327 10.046 16.353 9.725 16.225 7.992 Z " transform="matrix(1, 0, 0, 1, 0, 48)"/>
          <path id="Shape" fill="#AADCDC" stroke="none" stroke-width="1" d="M 48.416 3.497 C 48.095 1.763 42.429 2.020 42.751 3.818 C 43.073 5.616 48.674 5.038 48.416 3.497 Z " transform="matrix(1, 0, 0, 1, 0, 48)"/>
        </g>
        <path id="Shape" fill="#00A0B4" stroke="none" stroke-width="1" d="M 42.622 82.382 C 41.527 83.153 40.884 84.373 40.690 85.657 C 40.497 86.813 40.819 87.968 41.527 88.867 C 41.914 89.317 42.364 89.702 42.944 89.959 C 43.588 90.216 44.167 90.408 44.811 90.601 C 40.433 90.858 34.832 91.693 31.226 94.389 C 30.132 95.160 29.488 96.380 29.295 97.664 C 29.101 98.820 29.423 99.976 30.132 100.875 C 30.518 101.388 30.968 101.709 31.548 101.966 C 32.514 102.352 33.479 102.673 34.510 102.994 C 35.282 103.251 35.990 103.572 36.763 103.893 C 37.342 104.149 37.729 104.663 37.922 105.177 C 38.115 105.562 38.244 106.012 38.373 106.397 C 38.115 107.232 37.536 107.938 36.827 108.387 C 36.184 108.901 35.733 109.543 35.411 110.314 C 35.218 110.827 35.153 111.405 35.282 111.983 C 35.733 114.744 38.115 116.542 40.562 116.927 C 40.690 116.927 40.819 116.992 40.948 116.927 C 41.141 116.927 47.386 117.313 47.644 117.248 L 62.452 78.529 C 61.615 78.594 48.932 77.695 42.622 82.382 Z "/>
        <g id="Arm-B">
          <path id="Shape" fill="#AADCDC" stroke="none" stroke-width="1" d="M 77.355 10.338 L 78.127 0.128 C 74.200 0.193 2.799 0.385 1.318 1.220 C 2.348 2.376 4.086 1.991 5.181 2.954 L 5.181 3.467 C 3.958 4.623 1.768 3.596 0.288 4.366 C 0.996 6.293 4.344 5.586 5.567 6.806 C 4.859 7.962 2.863 7.127 2.477 7.962 C 3.829 9.888 9.945 10.017 12.005 10.274 C 15.547 10.659 19.281 10.466 22.822 10.659 C 32.222 11.237 73.942 11.301 77.355 10.338 Z " transform="matrix(1, 0, 0, 1, 1, 61)"/>
          <path id="Shape" fill="#78C8C8" stroke="none" stroke-width="1" d="M 36.536 3.724 C 36.407 1.734 33.510 1.541 33.574 3.660 C 33.638 5.715 36.600 5.458 36.536 3.724 Z " transform="matrix(1, 0, 0, 1, 1, 61)"/>
          <path id="Shape" fill="#78C8C8" stroke="none" stroke-width="1" d="M 20.955 5.907 C 20.826 3.917 17.929 3.724 17.993 5.843 C 18.058 7.962 21.019 7.641 20.955 5.907 Z " transform="matrix(1, 0, 0, 1, 1, 61)"/>
          <path id="Shape" fill="#78C8C8" stroke="none" stroke-width="1" d="M 11.040 4.109 C 10.911 2.119 8.014 1.926 8.078 4.045 C 8.142 6.100 11.104 5.843 11.040 4.109 Z " transform="matrix(1, 0, 0, 1, 1, 61)"/>
        </g>
        <g id="Body-+-Face">
          <path id="Rectangle-path" fill="#006482" stroke="none" stroke-width="1" d="M 69.593 34.288 L 97.471 34.288 L 97.471 55.606 L 69.593 55.606 L 69.593 34.288 Z " transform="matrix(1, 0, 0, 1, 34, 0)"/>
          <path id="Shape" fill="#FFFFFF" stroke="none" stroke-width="1" d="M 84.015 35.637 C 84.015 35.637 83.307 39.554 85.238 40.260 C 87.170 40.966 88.651 41.031 89.359 39.554 C 90.067 38.077 89.874 34.866 89.874 34.866 L 84.015 35.637 Z " transform="matrix(1, 0, 0, 1, 34, 0)"/>
          <path id="Shape" fill="#000000" stroke="none" stroke-width="1" d="M 69.786 54.322 C 70.816 49.185 77.190 46.360 84.595 47.516 C 92.578 48.736 96.634 48.736 94.960 54.772 C 94.059 59.652 88.329 64.146 80.152 62.669 C 73.714 61.514 68.821 59.009 69.786 54.322 " transform="matrix(1, 0, 0, 1, 34, 0)"/>
          <path id="Shape" fill="#AADCDC" stroke="none" stroke-width="1" d="M 103.716 43.599 C 101.849 36.279 99.338 29.344 94.960 23.180 C 90.453 16.823 86.268 9.888 79.122 6.036 C 71.203 1.734 63.477 0.193 54.463 0.385 C 46.866 0.578 37.659 3.082 32.315 8.925 C 19.438 23.116 24.525 37.435 32.058 49.956 C 36.114 56.762 41.136 57.019 40.427 64.467 C 39.977 65.752 39.590 67.485 39.011 68.384 C 37.788 70.054 36.242 71.338 34.440 72.301 C 29.482 74.869 24.010 74.548 18.601 74.741 C 15.511 74.805 8.558 74.099 7.334 77.952 C 6.690 79.942 8.300 81.419 9.716 82.382 C 11.262 83.474 12.292 83.987 13.386 84.951 C 15.640 86.877 14.030 88.033 13.129 88.418 C 9.459 89.895 0.059 87.840 0.188 94.775 C 0.123 97.600 1.990 100.168 4.695 101.003 C 7.721 102.095 12.034 100.682 14.416 103.122 C 20.340 109.222 4.308 109.158 8.171 116.349 C 9.652 119.111 13.064 120.587 16.026 120.973 C 25.812 122.321 47.703 120.652 57.553 119.111 C 66.632 117.698 76.482 114.680 84.530 110.121 C 92.771 105.498 99.016 100.811 102.364 91.821 C 110.541 70.054 105.648 51.176 103.716 43.599 Z M 82.792 52.781 C 78.027 52.781 73.907 50.341 73.327 45.333 C 72.748 40.324 76.740 36.151 83.436 36.536 C 89.681 36.921 93.093 39.361 92.900 45.204 C 92.707 51.047 87.621 52.781 82.792 52.781 Z " transform="matrix(1, 0, 0, 1, 34, 0)"/>
          <path id="Shape" fill="#78C8C8" stroke="none" stroke-width="1" d="M 36.693 10.916 C 33.216 9.439 27.036 19.841 30.641 21.446 C 34.247 23.052 39.784 12.200 36.693 10.916 Z " transform="matrix(1, 0, 0, 1, 34, 0)"/>
          <path id="Shape" fill="#000000" stroke="none" stroke-width="1" d="M 46.801 42.122 C 47.896 42.700 48.218 43.342 47.896 44.691 C 47.767 44.755 47.510 44.883 47.316 44.883 C 47.123 44.819 46.930 44.691 46.737 44.498 C 46.415 43.984 46.222 43.406 46.222 42.828 C 46.286 42.507 46.286 42.443 46.801 42.122 Z " transform="matrix(1, 0, 0, 1, 34, 0)"/>
          <path id="Shape" fill="#000000" stroke="none" stroke-width="1" d="M 100.304 42.507 L 99.338 42.186 C 99.210 41.287 98.630 40.581 98.888 39.682 C 99.145 39.489 99.596 39.554 99.789 39.811 C 99.789 39.811 99.853 39.875 99.853 39.875 C 99.982 40.067 100.047 40.260 100.111 40.517 C 100.111 41.095 100.175 41.673 100.304 42.507 Z " transform="matrix(1, 0, 0, 1, 34, 0)"/>
          <path id="Shape" fill="#78C8C8" stroke="none" stroke-width="1" d="M 16.605 111.726 C 14.416 111.919 12.549 112.818 12.356 116.093 C 12.163 119.881 28.130 118.854 28.388 114.873 C 28.645 110.892 21.756 111.341 16.605 111.726 Z " transform="matrix(1, 0, 0, 1, 34, 0)"/>
          <path id="Shape" fill="#78C8C8" stroke="none" stroke-width="1" d="M 24.396 101.709 C 23.301 101.902 22.400 102.801 22.271 106.076 C 22.207 109.864 30.126 108.837 30.319 104.856 C 30.512 100.875 26.971 101.324 24.396 101.709 Z " transform="matrix(1, 0, 0, 1, 34, 0)"/>
          <path id="Shape" fill="#00A0B4" stroke="none" stroke-width="1" d="M 41.007 110.635 C 40.621 106.846 29.933 106.589 30.255 110.506 C 30.577 114.423 41.329 113.909 41.007 110.635 Z " transform="matrix(1, 0, 0, 1, 34, 0)"/>
          <path id="Shape" fill="#78C8C8" stroke="none" stroke-width="1" d="M 24.782 81.933 C 24.460 79.043 13.773 79.300 14.030 82.318 C 14.288 85.336 25.040 84.437 24.782 81.933 Z " transform="matrix(1, 0, 0, 1, 34, 0)"/>
          <path id="Shape" fill="#78C8C8" stroke="none" stroke-width="1" d="M 43.003 102.287 C 42.874 100.297 39.977 100.104 40.041 102.223 C 40.105 104.342 43.067 104.021 43.003 102.287 Z " transform="matrix(1, 0, 0, 1, 34, 0)"/>
          <path id="Shape" fill="#006482" stroke="none" stroke-width="1" d="M 12.485 79.236 C 12.356 77.245 9.459 77.053 9.523 79.172 C 9.588 81.291 12.614 80.969 12.485 79.236 Z " transform="matrix(1, 0, 0, 1, 34, 0)"/>
          <path id="Shape" fill="#78C8C8" stroke="none" stroke-width="1" d="M 9.330 96.380 C 9.137 92.592 3.600 92.335 3.729 96.252 C 3.858 100.168 9.459 99.655 9.330 96.380 Z " transform="matrix(1, 0, 0, 1, 34, 0)"/>
          <path id="Shape" fill="#78C8C8" stroke="none" stroke-width="1" d="M 78.929 100.875 C 78.736 97.086 73.199 96.829 73.392 100.746 C 73.585 104.663 79.058 104.149 78.929 100.875 Z " transform="matrix(1, 0, 0, 1, 34, 0)"/>
          <path id="Shape" fill="#78C8C8" stroke="none" stroke-width="1" d="M 85.174 100.811 C 85.110 99.013 82.470 98.884 82.599 100.746 C 82.727 102.608 85.238 102.352 85.174 100.811 Z " transform="matrix(1, 0, 0, 1, 34, 0)"/>
          <path id="Shape" fill="#78C8C8" stroke="none" stroke-width="1" d="M 54.527 115.322 C 54.463 113.524 51.823 113.396 51.888 115.258 C 51.952 117.120 54.592 116.863 54.527 115.322 Z " transform="matrix(1, 0, 0, 1, 34, 0)"/>
        </g>
      </g>
    </g>
  </g>
</svg>