<svg version="1.1" width="70" height="122" viewBox="-1 -1 70 122" xmlns="http://www.w3.org/2000/svg" xmlns:xlink="http://www.w3.org/1999/xlink">
  <!-- Exported by Scratch - http://scratch.mit.edu/ -->
  <g id="ID0.37173417629674077" transform="matrix(1, 0, 0, 1, 0, -0.5)">
    <path id="ID0.4098525517620146" fill="#272525" d="M 42 118.790 C 42.619 94.644 61.605 85.254 58.923 62.244 C 56.446 40.987 80.180 29.019 70.479 9 C 90.910 19.525 75.741 37.273 85.337 52.751 C 95.141 68.538 87.091 85.254 101.022 97.327 C 108.348 103.622 109.276 111.152 109.276 120.853 C 109.275 129.831 51.906 135.093 42 118.790 Z " transform="matrix(1, 0, 0, 1, -41.25, -8.25)"/>
    <path id="ID0.20387241011485457" fill="#5B76DF" d="M 104.324 119.615 C 92.633 125.269 58.716 131.791 45.715 116.107 C 46.540 103.724 51.501 100.431 55.876 92.365 C 61.794 81.452 64.628 74.424 63.651 61.749 C 63.313 57.365 63.322 51.693 64.907 47.592 C 68.241 38.959 77.289 29.844 76.671 17.668 C 80.180 26.748 76.723 36.118 77.163 41.981 C 77.836 50.946 85.178 56.624 86.988 65.132 C 88.263 71.127 86.756 77.820 88.043 83.809 C 91.657 100.626 104.080 102.023 104.324 119.615 Z " transform="matrix(1, 0, 0, 1, -41.25, -8.25)"/>
    <path id="ID0.9912253888323903" fill="#FFE400" d="M 97.684 114.943 L 110.270 115.249 L 100.057 119.374 L 101.240 128.170 L 95.238 119.301 L 83.589 120.938 L 91.729 116.932 L 87.659 108.383 L 94.956 112.241 L 98.161 106.093 L 97.684 114.943 " transform="matrix(1, 0, 0, 1, -41.25, -8.25)"/>
    <path id="ID0.08650197880342603" fill="#FFE400" d="M 87.828 90.989 C 78.943 88.230 67.586 93.755 68.671 104.078 C 69.808 114.890 80.184 119.339 89.275 118.383 C 83.068 114.700 79.150 110.076 78.881 103.572 C 78.566 96.577 82.279 94.979 87.828 90.989 Z " transform="matrix(1, 0, 0, 1, -41.25, -8.25)"/>
    <path id="ID0.8787638684734702" fill="#FFE400" d="M 76.257 71.736 L 78.527 59.354 L 81.004 70.086 L 89.878 70.292 L 80.180 74.833 L 79.973 86.596 L 77.289 77.930 L 68.209 80.609 L 73.162 74.007 L 67.590 69.880 L 76.257 71.736 " transform="matrix(1, 0, 0, 1, -41.25, -8.25)"/>
    <path id="ID0.21761883096769452" fill="#FFE400" d="M 54.795 105.582 L 55.208 97.533 L 59.129 104.137 L 67.590 104.550 L 59.335 110.534 L 60.160 118.583 L 56.239 108.884 L 47.365 113.837 L 51.906 107.232 L 48.604 102.279 L 54.795 105.582 " transform="matrix(1, 0, 0, 1, -41.25, -8.25)"/>
    <path id="ID0.5554028246551752" fill="#FFE400" d="M 73.385 44.155 L 78.152 45.556 L 74.259 49.449 L 76.357 53.978 L 71.511 50.067 L 64.804 55.331 L 70.431 47.218 L 63.585 40.545 L 70.066 44.083 L 72.439 36.345 L 73.385 44.155 " transform="matrix(1, 0, 0, 1, -41.25, -8.25)"/>
  </g>
</svg>