<svg width="169px" height="169px" viewBox="0 0 169 169" version="1.1" xml:space="preserve" xmlns="http://www.w3.org/2000/svg" xmlns:xlink="http://www.w3.org/1999/xlink">
  <defs/>
  <g>
    <title>rabbit-a</title>
    <desc>Created with Sketch.</desc>
    <g id="forest" stroke="none" stroke-width="1" fill="none" fill-rule="evenodd">
      <g id="rabbit-a" fill-rule="nonzero">
        <g id="Rabbit1(jumping)" transform="translate(4.000000, 7.000000)">
          <g id="paw_back2" transform="translate(26.083799, 58.459119)" fill="#B5C5C1">
            <path d="M0.269832402,34.5358491 C1.25921788,27.8805031 6.02625698,32.9169811 9.44413408,29.9490566 C15.9201117,24.372956 11.9625698,7.19496855 21.496648,1.70880503 C30.4011173,-3.41761006 42.7234637,9.0836478 46.5910615,14.8396226 C51.8078212,22.6641509 49.9189944,35.2553459 49.2893855,45.1484277 C48.7497207,52.4333333 43.7128492,57.5597484 36.6072626,56.2106918 C29.8614525,54.9515723 25.4541899,52.3433962 19.0681564,50.6345912 C19.6977654,54.8616352 25.9039106,58.4591195 28.5122905,62.0566038 C29.3217877,63.2257862 31.3905028,64.754717 32.2899441,66.5534591 C33.2793296,68.7119497 32.9195531,71.2301887 32.7396648,73.0289308 C32.2,77.6157233 28.152514,72.5792453 26.6234637,70.8704403 C31.3905028,84.0012579 12.052514,58.5490566 10.4335196,54.681761 C10.3435754,54.681761 -0.179888268,37.2339623 0.269832402,34.5358491 Z" id="Shape"/>
          </g>
          <g id="paw_front2" transform="translate(95.340782, 80.044025)" fill="#B5C5C1">
            <path d="M4.31731844,20.7754717 C2.42849162,17.4477987 1.43910615,13.7603774 0.719553073,9.89308176 C-0.899441341,1.52893082 20.9569832,-2.96792453 25.5441341,3.59748428 C30.4011173,10.6125786 28.4223464,13.7603774 26.803352,18.7968553 C25.4541899,22.9339623 34.0888268,31.3880503 34.0888268,31.3880503 C34.0888268,31.3880503 38.6759777,30.1289308 40.3849162,30.8484277 C42.0938547,31.5679245 44.1625698,33.0968553 45.0620112,34.8056604 C45.7815642,36.154717 43.7128492,38.3132075 39.575419,37.4138365 C42.7234637,39.3025157 39.2156425,39.7522013 37.0569832,39.9320755 C32.9195531,40.2918239 25.2743017,37.9534591 24.0150838,37.0540881 C20.5072626,34.4459119 8.4547486,27.8805031 4.31731844,20.7754717 Z" id="Shape"/>
          </g>
          <g id="paw_front1" transform="translate(93.541899, 94.433962)">
            <path d="M0.809497207,16.9981132 C-0.0899441341,13.8503145 -8.70137296e-15,10.5226415 0.359776536,7.19496855 C1.07932961,-0.0899371069 38.3162011,-1.79874214 40.924581,4.76666667 C43.622905,11.6918239 25.9039106,16.818239 22.9357542,20.6855346 C20.5072626,23.8333333 26.5335196,31.927673 26.5335196,31.927673 C26.5335196,31.927673 33.0094972,32.1974843 34.4486034,33.1867925 C35.8877095,34.1761006 36.5173184,36.8742138 36.0675978,38.0433962 C35.527933,39.3025157 33.7290503,39.8421384 30.0413408,38.0433962 C32.5597765,40.381761 29.0519553,40.7415094 26.9832402,40.381761 C22.9357542,39.7522013 16.2798883,35.9748428 15.2905028,34.9855346 C12.5921788,32.1075472 2.78826816,23.9232704 0.809497207,16.9981132 Z" id="Shape" fill="#CBD7D4"/>
            <path d="M31.0307263,38.7628931 C29.9513966,37.2339623 28.152514,35.7050314 26.173743,35.8849057 C25.3642458,35.9748428 25.3642458,37.1440252 26.173743,37.1440252 C27.7027933,37.0540881 29.1418994,38.2232704 29.9513966,39.4823899 C30.4011173,40.0220126 31.4804469,39.4823899 31.0307263,38.7628931 Z" id="Shape" fill="#B5C5C1"/>
          </g>
          <g id="tail" transform="translate(17.988827, 37.773585)">
            <path d="M20.6871508,6.92515723 C22.9357542,12.3213836 20.4173184,18.527044 15.0206704,20.7754717 C9.62402235,23.0238994 3.32793296,20.5056604 1.07932961,15.109434 C-1.16927374,9.71320755 1.34916201,3.50754717 6.74581006,1.2591195 C12.1424581,-0.989308176 18.4385475,1.52893082 20.6871508,6.92515723 Z" id="Shape" fill="#B5C5C1"/>
            <path d="M6.20614525,13.5805031 C6.65586592,13.9402516 7.10558659,14.2100629 7.55530726,14.5698113 C7.82513966,14.7496855 8.27486034,14.5698113 8.36480447,14.3899371 C8.54469274,14.1201258 8.4547486,13.7603774 8.1849162,13.5805031 C7.73519553,13.2207547 7.28547486,12.9509434 6.83575419,12.591195 C6.56592179,12.4113208 6.11620112,12.591195 6.02625698,12.7710692 C5.75642458,13.0408805 5.93631285,13.4006289 6.20614525,13.5805031 Z" id="Shape" fill="#CBD7D4"/>
            <path d="M4.04748603,16.2786164 C4.58715084,16.4584906 5.12681564,16.6383648 5.66648045,16.818239 C6.38603352,17.0880503 6.74581006,15.9188679 6.02625698,15.6490566 C5.48659218,15.4691824 4.94692737,15.2893082 4.40726257,15.109434 C4.13743017,15.0194969 3.6877095,15.1993711 3.6877095,15.5591195 C3.50782123,15.8289308 3.6877095,16.0987421 4.04748603,16.2786164 Z" id="Shape" fill="#CBD7D4"/>
            <path d="M8.54469274,8.81383648 C8.81452514,9.62327044 9.26424581,10.6125786 9.80391061,11.2421384 C9.98379888,11.5119497 10.3435754,11.6018868 10.6134078,11.4220126 C10.8832402,11.2421384 11.0631285,10.8823899 10.7932961,10.6125786 C10.3435754,9.98301887 9.89385475,9.17358491 9.71396648,8.45408805 C9.53407821,7.73459119 8.36480447,8.09433962 8.54469274,8.81383648 Z" id="Shape" fill="#CBD7D4"/>
            <path d="M12.4122905,8.45408805 C12.5921788,9.17358491 12.772067,9.80314465 12.9519553,10.5226415 C13.1318436,11.2421384 14.3910615,10.972327 14.1212291,10.1628931 C13.9413408,9.53333333 13.7614525,8.81383648 13.5815642,8.09433962 C13.401676,7.28490566 12.2324022,7.64465409 12.4122905,8.45408805 Z" id="Shape" fill="#CBD7D4"/>
            <path d="M16.6396648,8.18427673 C16.3698324,8.90377358 16.3698324,9.62327044 16.4597765,10.4327044 C16.5497207,10.7924528 16.9094972,10.972327 17.1793296,10.8823899 C17.5391061,10.7924528 17.6290503,10.4327044 17.6290503,10.1628931 C17.5391061,9.62327044 17.6290503,9.0836478 17.8089385,8.54402516 C18.0787709,7.73459119 16.9094972,7.46477987 16.6396648,8.18427673 Z" id="Shape" fill="#CBD7D4"/>
            <path d="M18.4385475,11.781761 C18.2586592,12.3213836 18.1687151,12.9509434 18.0787709,13.490566 C18.0787709,13.8503145 18.3486034,14.1201258 18.7083799,14.1201258 C19.0681564,14.1201258 19.2480447,13.8503145 19.3379888,13.490566 C19.427933,13.0408805 19.5178771,12.5012579 19.6977654,12.0515723 C19.8776536,11.3320755 18.7083799,11.0622642 18.4385475,11.781761 Z" id="Shape" fill="#CBD7D4"/>
            <path d="M3.59776536,7.19496855 C3.9575419,7.91446541 4.4972067,8.54402516 4.94692737,9.26352201 C5.39664804,9.98301887 6.38603352,9.35345912 6.02625698,8.63396226 C5.57653631,7.91446541 5.03687151,7.37484277 4.67709497,6.56540881 C4.31731844,5.84591195 3.32793296,6.4754717 3.59776536,7.19496855 Z" id="Shape" fill="#CBD7D4"/>
            <path d="M6.56592179,3.8672956 C6.83575419,4.58679245 7.01564246,5.30628931 7.19553073,6.02578616 C7.37541899,6.83522013 8.63463687,6.4754717 8.36480447,5.66603774 C8.1849162,4.94654088 7.9150838,4.22704403 7.73519553,3.50754717 C7.46536313,2.78805031 6.29608939,3.14779874 6.56592179,3.8672956 Z" id="Shape" fill="#CBD7D4"/>
            <path d="M10.703352,3.23773585 C10.8832402,4.31698113 10.9731844,5.30628931 11.2430168,6.29559748 C11.5128492,7.01509434 12.6821229,6.74528302 12.4122905,5.93584906 C12.1424581,4.94654088 11.9625698,3.8672956 11.8726257,2.87798742 C11.7826816,2.15849057 10.6134078,2.51823899 10.703352,3.23773585 Z" id="Shape" fill="#CBD7D4"/>
            <path d="M15.0206704,3.59748428 C15.0206704,3.8672956 15.1106145,4.04716981 15.1106145,4.31698113 C15.2005587,4.67672956 15.5603352,4.85660377 15.8301676,4.76666667 C16.1899441,4.67672956 16.2798883,4.31698113 16.2798883,4.04716981 C16.2798883,3.77735849 16.1899441,3.59748428 16.1899441,3.32767296 C16.1,2.96792453 15.7402235,2.78805031 15.4703911,2.87798742 C15.0206704,2.87798742 14.9307263,3.23773585 15.0206704,3.59748428 Z" id="Shape" fill="#CBD7D4"/>
            <path d="M0.809497207,11.4220126 C1.34916201,11.781761 1.88882682,12.2314465 2.42849162,12.591195 C2.69832402,12.7710692 3.14804469,12.591195 3.23798883,12.4113208 C3.41787709,12.1415094 3.32793296,11.781761 3.05810056,11.6018868 C2.51843575,11.2421384 1.97877095,10.7924528 1.43910615,10.4327044 C1.16927374,10.2528302 0.719553073,10.4327044 0.629608939,10.6125786 C0.44972067,10.972327 0.539664804,11.2421384 0.809497207,11.4220126 Z" id="Shape" fill="#CBD7D4"/>
            <path d="M9.53407821,15.6490566 C10.073743,16.0987421 10.5234637,16.5484277 10.9731844,16.9981132 C11.5128492,17.5377358 12.4122905,16.6383648 11.8726257,16.0987421 C11.422905,15.6490566 10.8832402,15.109434 10.4335196,14.7496855 C10.1636872,14.5698113 9.80391061,14.4798742 9.53407821,14.7496855 C9.35418994,15.0194969 9.35418994,15.4691824 9.53407821,15.6490566 Z" id="Shape" fill="#CBD7D4"/>
            <path d="M7.9150838,18.7069182 C8.1849162,18.8867925 8.4547486,19.0666667 8.81452514,19.1566038 C9.62402235,19.336478 9.89385475,18.1672956 9.17430168,17.9874214 C8.90446927,17.8974843 8.72458101,17.8075472 8.54469274,17.7176101 C8.27486034,17.5377358 7.82513966,17.627673 7.73519553,17.8974843 C7.46536313,18.2572327 7.6452514,18.527044 7.9150838,18.7069182 Z" id="Shape" fill="#CBD7D4"/>
            <path d="M12.2324022,12.8610063 C12.2324022,13.6704403 12.3223464,14.4798742 12.5022346,15.1993711 C12.5921788,16.008805 13.8513966,15.6490566 13.6715084,14.8396226 C13.4916201,14.2100629 13.401676,13.490566 13.4916201,12.8610063 C13.4916201,12.0515723 12.2324022,12.0515723 12.2324022,12.8610063 Z" id="Shape" fill="#CBD7D4"/>
            <path d="M15.2905028,13.490566 C15.2905028,13.8503145 15.2005587,14.1201258 15.2005587,14.4798742 C15.2005587,14.8396226 15.4703911,15.109434 15.8301676,15.109434 C16.1899441,15.109434 16.3698324,14.8396226 16.4597765,14.4798742 C16.4597765,14.1201258 16.5497207,13.8503145 16.5497207,13.490566 C16.5497207,13.1308176 16.2798883,12.8610063 15.9201117,12.8610063 C15.4703911,12.8610063 15.2905028,13.1308176 15.2905028,13.490566 Z" id="Shape" fill="#CBD7D4"/>
          </g>
          <g id="body" transform="translate(19.787709, 52.163522)" fill="#CBD7D4">
            <path d="M57.2044693,63.3157233 C48.3899441,65.2044025 26.7134078,60.0779874 19.427933,55.5811321 C7.55530726,48.2062893 -8.09497207,28.0603774 7.10558659,7.55471698 C19.6078212,-9.35345912 55.4955307,9.62327044 69.2569832,12.7710692 C77.172067,14.5698113 88.6849162,18.0773585 96.3301676,13.7603774 C98.6687151,12.4113208 99.6581006,9.71320755 101.906704,8.54402516 C105.774302,6.4754717 118.456425,-0.0899371069 121.604469,2.69811321 C129.069832,9.17358491 141.122346,12.3213836 132.307821,35.2553459 C124.392737,55.8509434 89.7642458,60.0779874 73.2145251,62.4163522 L57.2044693,63.3157233 Z" id="Shape"/>
          </g>
          <g id="head_x2B_ears" transform="translate(76.452514, 0.000000)">
            <g id="ears">
              <path d="M54.6860335,57.7396226 C40.924581,59.2685535 26.173743,49.4654088 16.6396648,41.6408805 C10.1636872,36.3345912 3.41787709,25.0025157 0.989385475,17.8075472 C-1.16927374,11.5119497 25.7240223,23.563522 32.5597765,28.7798742 C44.0726257,37.6836478 54.2363128,49.5553459 63.9502793,60.1679245 L54.6860335,57.7396226 Z" id="Shape" fill="#C9D8D5"/>
              <path d="M66.1089385,56.4805031 C56.3949721,54.3220126 46.5910615,36.6943396 42.903352,28.4201258 C38.8558659,19.5163522 38.1363128,0.899371069 38.1363128,0.899371069 C43.1731844,-1.70880503 54.8659218,19.6962264 58.8234637,26.2616352 C64.6698324,35.9748428 72.4050279,46.6773585 75.0134078,57.9194969 L66.1089385,56.4805031 Z" id="Shape" fill="#B5C5C1"/>
            </g>
            <g id="head" transform="translate(39.575419, 41.371069)">
              <path d="M15.9201117,1.88867925 C16.4597765,1.70880503 16.9994413,1.43899371 17.5391061,1.3490566 C16.5497207,1.52893082 15.5603352,1.70880503 14.4810056,1.97861635 C-3.41787709,7.46477987 -2.51843575,29.9490566 8.4547486,38.3132075 C-0.899441341,28.1503145 -1.88882682,8.90377358 15.9201117,1.88867925 Z" id="Shape" fill="#B5C5C1"/>
              <path d="M10.073743,39.8421384 C-0.719553073,30.308805 -2.78826816,9.26352201 15.9201117,1.88867925 C24.9145251,-1.70880503 32.2,2.33836478 37.0569832,8.99371069 C39.0357542,11.6918239 40.1150838,15.0194969 41.7340782,17.9874214 C44.8821229,24.1930818 44.252514,28.8698113 43.5329609,33.3666667 C43.5329609,33.3666667 42.6335196,38.1333333 39.9351955,42.0006289 C38.3162011,44.3389937 36.0675978,46.3176101 33.0094972,46.8572327 C23.9251397,48.2962264 18.4385475,47.2169811 10.073743,39.8421384 Z" id="Shape" fill="#C9D8D5"/>
              <g id="face" transform="translate(12.592179, 12.591195)">
                <g id="Group" transform="translate(0.000000, 18.886792)">
                  <g transform="translate(25.184358, 0.000000)" fill="#3C4F45" id="Shape">
                    <path d="M0.719553073,2.78805031 C1.52905028,3.05786164 2.69832402,3.32767296 3.41787709,2.87798742 C4.13743017,2.42830189 4.13743017,1.79874214 4.31731844,1.07924528 C4.4972067,0.269811321 3.32793296,-1.31006317e-14 3.05810056,0.719496855 C2.96815642,1.07924528 3.05810056,1.61886792 2.69832402,1.79874214 C2.24860335,2.06855346 1.34916201,1.79874214 0.899441341,1.61886792 C0.269832402,1.2591195 -0.0899441341,2.51823899 0.719553073,2.78805031 Z"/>
                    <path d="M2.33854749,2.51823899 C2.87821229,3.8672956 3.14804469,5.30628931 3.14804469,6.65534591 C3.14804469,7.46477987 4.40726257,7.46477987 4.40726257,6.65534591 C4.40726257,5.12641509 4.04748603,3.59748428 3.50782123,2.15849057 C3.23798883,1.43899371 1.97877095,1.79874214 2.33854749,2.51823899 Z"/>
                    <path d="M0.629608939,7.37484277 C1.61899441,8.00440252 2.96815642,7.91446541 4.04748603,7.55471698 C4.76703911,7.28490566 4.4972067,6.02578616 3.6877095,6.29559748 C2.96815642,6.56540881 1.97877095,6.74528302 1.25921788,6.29559748 C0.629608939,5.84591195 -7.10542736e-15,6.92515723 0.629608939,7.37484277 Z"/>
                  </g>
                  <g fill="#B5C5C1" id="Shape">
                    <path d="M7.37541899,0.809433962 C5.57653631,0.809433962 3.86759777,1.07924528 2.15865922,1.70880503 C1.43910615,1.97861635 1.70893855,3.14779874 2.51843575,2.87798742 C4.04748603,2.24842767 5.66648045,1.97861635 7.37541899,1.97861635 C8.1849162,2.06855346 8.1849162,0.809433962 7.37541899,0.809433962 Z"/>
                    <path d="M9.08435754,2.96792453 C6.47597765,3.77735849 3.59776536,4.58679245 1.16927374,5.84591195 C0.44972067,6.20566038 1.07932961,7.28490566 1.79888268,6.92515723 C4.13743017,5.66603774 6.83575419,4.94654088 9.44413408,4.13710692 C10.1636872,3.9572327 9.89385475,2.78805031 9.08435754,2.96792453 Z"/>
                    <path d="M8.54469274,5.66603774 C7.46536313,6.56540881 6.29608939,7.46477987 5.21675978,8.45408805 C4.58715084,8.99371069 5.48659218,9.89308176 6.11620112,9.35345912 C7.19553073,8.36415094 8.27486034,7.46477987 9.44413408,6.56540881 C9.98379888,6.02578616 9.08435754,5.12641509 8.54469274,5.66603774 Z"/>
                  </g>
                </g>
                <g id="Group">
                  <ellipse id="Oval" fill="#3C4F45" transform="translate(8.617547, 9.652320) rotate(-24.242898) translate(-8.617547, -9.652320) " cx="8.61754749" cy="9.65232013" rx="1.97874285" ry="2.60813906"/>
                  <path d="M1.61899441,4.22704403 C2.15865922,3.14779874 3.32793296,1.88867925 4.58715084,2.06855346 C5.39664804,2.15849057 5.66648045,0.989308176 4.94692737,0.899371069 C3.05810056,0.629559748 1.34916201,1.97861635 0.539664804,3.59748428 C0.269832402,4.31698113 1.34916201,4.94654088 1.61899441,4.22704403 Z" id="Shape" fill="#B5C5C1"/>
                </g>
              </g>
            </g>
          </g>
          <g id="paw_back1" transform="translate(0.000000, 67.452830)">
            <path d="M0.809497207,32.6471698 C2.33854749,26.081761 6.65586592,31.4779874 10.3435754,28.7798742 C17.2692737,23.7433962 14.6608939,6.29559748 24.5547486,1.52893082 C33.8189944,-2.87798742 46.4111732,9.89308176 49.7391061,16.008805 C54.326257,24.2830189 53.1569832,39.4823899 51.7178771,49.2855346 C50.6385475,56.4805031 41.8240223,62.1465409 34.898324,60.1679245 C28.3324022,58.3691824 24.4648045,52.2534591 18.1687151,50.0949686 C18.4385475,54.4119497 24.3748603,58.4591195 26.6234637,62.236478 C27.3430168,63.4056604 29.3217877,65.1144654 30.0413408,67.0930818 C30.9407821,69.3415094 30.3111732,71.7698113 29.9513966,73.5685535 C29.0519553,78.0654088 25.4541899,72.7591195 24.0150838,70.9603774 C27.7027933,84.3610063 10.5234637,57.4698113 9.17430168,53.5125786 C9.26424581,53.6025157 0.179888268,35.345283 0.809497207,32.6471698 Z" id="Shape" fill="#CBD7D4"/>
            <path d="M49.8290503,16.0987421 C53.3368715,22.4842767 53.5167598,33.0069182 52.7072626,42.0006289 C55.5854749,30.8484277 53.6067039,15.2893082 47.4905028,9.80314465 C43.622905,6.29559748 40.3849162,4.40691824 37.2368715,3.50754717 C42.903352,6.83522013 47.9402235,12.591195 49.8290503,16.0987421 Z" id="Shape" fill="#B5C5C1"/>
            <path d="M22.5759777,69.2515723 C23.6553073,70.8704403 24.1050279,72.2194969 23.8351955,74.1081761 C23.7452514,74.9176101 25.0044693,74.9176101 25.0944134,74.1081761 C25.3642458,71.9496855 24.824581,70.4207547 23.6553073,68.6220126 C23.2055866,67.9924528 22.126257,68.6220126 22.5759777,69.2515723 Z" id="Shape" fill="#B5C5C1"/>
          </g>
        </g>
      </g>
    </g>
  </g>
</svg>