<svg version="1.1" width="41" height="81" xmlns="http://www.w3.org/2000/svg" xmlns:xlink="http://www.w3.org/1999/xlink">
  <!-- Exported by Scratch - http://scratch.mit.edu/ -->
  <g id="ID0.8113708319142461">
    <path id="ID0.7949924408458173" fill="#FF9400" d="M 321 358 C 319.957 360.833 319.957 362.167 321 365 C 318.775 366.442 316.178 367.511 312 367 C 310.689 387.310 314.951 402.049 317 419 C 321.290 419.943 326.104 418.814 325 427 C 317.074 427.390 308.109 427.501 300 430 C 300 427.667 300 425.333 300 423 C 301.334 421.334 305.666 422.666 307 421 C 305.609 401.201 303.794 387.392 303 368 C 300.786 366.979 293.840 368 292 364 C 294.306 354.791 313.655 356.024 321 358 Z " transform="matrix(0.9404097199440002, 0, 0, 0.9404097199440002, -267.5, -331.05)"/>
    <path id="ID0.08376348996534944" d="M 313 353 C 316.333 353 319.667 353 323 353 C 326.602 359.903 320.805 367.895 321 374 C 318.265 375.595 316.735 373.503 314 376 C 314.313 391.353 318.873 402.461 320 417 C 323.438 416.562 325.604 417.396 328 418 C 328 422.333 328 426.667 328 431 C 327.333 431 326.667 431 326 431 C 323.971 431.638 325.342 435.675 323 436 C 320.674 436.054 309.278 434.669 307 438 C 302.667 438 298.333 438 294 438 C 292.668 433.665 292.313 428.353 292 423 C 294.327 420.994 298.220 420.554 299 417 C 296.462 403.960 297.699 390.324 296 375 C 292.132 374.465 291.118 376.785 287 376 C 286.334 369.785 287.424 367.529 285 364 C 285 363 285 362 285 361 C 285.667 361 286.333 361 287 361 C 291.254 361.921 287.066 354.399 291 355 C 299.077 355.077 306.691 354.691 313 353 Z M 292 364 C 293.840 368 300.786 366.979 303 368 C 303.794 387.392 305.609 401.201 307 421 C 305.666 422.666 301.334 421.334 300 423 C 300 425.333 300 427.667 300 430 C 308.109 427.501 317.074 427.390 325 427 C 326.104 418.814 321.290 419.943 317 419 C 314.951 402.049 310.689 387.310 312 367 C 316.178 367.511 318.775 366.442 321 365 C 319.957 362.167 319.957 360.833 321 358 C 313.655 356.024 294.306 354.791 292 364 Z " transform="matrix(0.9404097199440002, 0, 0, 0.9404097199440002, -267.5, -331.05)"/>
  </g>
</svg>