<svg version="1.1" width="123" height="159" viewBox="-2 -2 123 159" xmlns="http://www.w3.org/2000/svg" xmlns:xlink="http://www.w3.org/1999/xlink">
  <!-- Exported by Scratch - http://scratch.mit.edu/ -->
  <g id="ID0.20486638182774186" transform="matrix(0.7718465328216553, 0, 0, 0.7718465328216553, 1.55, 1.8)">
    <g id="Foot">
      <path id="ID0.978875685017556" fill="#F7941E" d="M 77.800 157.091 C 74.490 157.091 70.126 154.518 69.942 154.408 C 69.907 154.387 69.872 154.364 69.838 154.341 C 68.307 153.250 62.287 146.690 61.226 145.087 C 60.945 144.662 60.898 144.123 61.103 143.656 C 61.308 143.189 61.736 142.858 62.239 142.777 C 66.118 142.156 76.826 140.236 79.750 138.836 C 84.905 136.371 88.997 133.728 90.128 132.976 C 90.374 132.813 90.733 132.678 91.029 132.678 C 91.346 132.678 91.647 132.779 91.894 132.953 C 98.011 134.262 100.002 137.056 99.797 139.294 C 99.642 140.999 98.044 142.956 94.145 143.400 C 94.683 144.057 95.116 144.791 95.380 145.584 C 95.858 147.012 95.990 149.213 93.908 151.584 C 92.842 152.796 91.293 153.411 89.305 153.411 C 86.819 153.411 83.999 152.443 81.637 151.291 C 82.232 153.173 82.260 155.207 80.187 156.479 C 79.567 156.879 78.755 157.091 77.800 157.091 L 77.800 157.091 Z "/>
      <path id="ID0.6269367155618966" d="M 91.029 134.178 C 91.030 134.178 90.982 134.211 90.883 134.282 C 100.717 136.096 100.327 141.994 92.422 141.994 C 91.279 141.994 89.980 141.871 88.531 141.595 C 91.524 142.216 96.653 146.186 92.781 150.595 C 91.952 151.537 90.719 151.912 89.305 151.912 C 85.412 151.912 80.150 149.070 78.188 147.400 C 78.981 149.392 82.128 153.529 79.403 155.200 C 78.974 155.476 78.422 155.592 77.799 155.592 C 75.438 155.592 72.075 153.934 70.707 153.120 C 69.358 152.159 63.444 145.723 62.476 144.260 C 62.476 144.260 76.636 141.991 80.398 140.190 C 86.485 137.278 91.019 134.178 91.029 134.178 M 91.029 131.178 C 90.122 131.178 89.523 131.576 89.298 131.727 C 88.188 132.464 84.170 135.060 79.105 137.482 C 76.648 138.659 67.311 140.447 62.002 141.297 C 60.995 141.458 60.139 142.119 59.730 143.054 C 59.320 143.988 59.413 145.066 59.976 145.915 C 61.014 147.482 67.207 154.308 68.968 155.562 C 69.035 155.610 69.105 155.655 69.176 155.698 C 69.674 155.994 74.148 158.591 77.801 158.591 C 79.034 158.591 80.110 158.305 81 157.740 C 82.748 156.658 83.405 155.212 83.486 153.716 C 85.420 154.429 87.452 154.911 89.307 154.911 C 92.343 154.911 94.098 153.640 95.036 152.575 C 97.028 150.305 97.656 147.654 96.805 145.107 C 96.729 144.879 96.641 144.655 96.544 144.436 C 99.734 143.450 101.120 141.323 101.293 139.430 C 101.554 136.582 99.339 133.089 92.462 131.541 C 92.031 131.309 91.542 131.178 91.029 131.178 L 91.029 131.178 Z "/>
    </g>
    <g id="Body_1_">
      <g id="Purple">
        <path id="ID0.8103257887996733" fill="#8A8FC6" d="M 61.233 145.103 C 54.841 145.103 47.975 144.085 41.336 143.102 C 40.310 142.951 39.287 142.798 38.267 142.651 C 35.829 142.299 33.832 142.036 31.982 141.823 L 31.025 141.713 C 30.667 141.675 29.688 141.582 29.688 141.582 C 29.282 141.543 28.879 141.505 28.479 141.473 C 28.071 141.439 27.668 141.411 27.266 141.382 C 26.832 141.353 26.398 141.328 25.967 141.307 C 25.596 141.287 25.232 141.271 24.870 141.258 C 24.392 141.242 23.921 141.237 23.450 141.232 L 22.534 141.225 C 21.850 141.231 21.177 141.251 20.514 141.287 L 20.353 141.293 C 19.657 141.333 19.040 141.352 18.436 141.352 C 7.764 141.352 0.493 135.431 0.341 126.620 C 0.320 125.356 0.451 124.050 0.732 122.736 C 1.995 116.842 4.834 113.316 7.579 109.906 C 8.597 108.641 9.649 107.335 10.626 105.904 C 13.944 100.529 15.679 93.389 17.515 85.831 C 19.637 77.097 21.827 68.081 26.783 61.318 C 19.487 52.327 15.995 43.580 16.113 34.610 C 16.160 31.049 17.044 27.443 18.106 23.437 C 24.228 0.360 60.322 0.095 61.855 0.095 C 62.307 0.095 62.923 0.104 63.293 0.147 C 66.200 0.484 71.574 1.773 72.365 2.033 C 79.779 4.485 86.856 11.261 87.426 11.952 C 87.852 12.470 88.288 13.052 88.761 13.733 C 88.801 13.783 88.837 13.831 88.872 13.881 L 89.134 14.276 C 89.653 15.061 90.085 15.777 90.455 16.467 C 90.496 16.542 90.529 16.620 90.556 16.698 C 93.505 22.194 96.164 28.213 94.176 31.917 C 92.312 35.392 89.460 37.589 86.945 39.527 C 79.087 45.583 72.299 50.813 104.181 97.172 C 109.637 105.106 110.256 113.088 106.022 120.896 C 103.269 125.972 98.461 130.890 91.733 135.514 C 78.891 144.338 68.394 145.025 65.482 145.025 C 65.481 145.025 65.481 145.025 65.481 145.025 C 65.047 145.025 64.747 145.010 64.590 145.001 C 63.521 145.068 62.393 145.103 61.233 145.103 L 61.233 145.103 Z "/>
        <path id="ID0.9180831182748079" d="M 61.855 1.595 C 62.479 1.595 62.914 1.613 63.121 1.637 C 65.990 1.970 71.238 3.241 71.896 3.458 C 79.020 5.813 85.875 12.429 86.268 12.906 C 86.708 13.442 87.125 14.008 87.529 14.589 C 87.564 14.640 87.604 14.685 87.639 14.735 C 87.722 14.856 87.802 14.980 87.883 15.103 C 88.322 15.768 88.745 16.453 89.134 17.177 C 89.134 17.177 89.119 17.167 89.097 17.153 C 90.694 20.111 94.774 27.632 92.855 31.208 C 85.341 45.211 60.605 36.458 102.945 98.022 C 114.632 115.015 99.968 128.035 90.883 134.278 C 78.445 142.824 68.431 143.525 65.481 143.525 C 64.903 143.525 64.595 143.498 64.595 143.498 C 63.491 143.569 62.370 143.602 61.233 143.602 C 53.981 143.602 46.109 142.270 38.482 141.165 C 36.346 140.856 34.232 140.570 32.153 140.331 C 31.830 140.294 31.505 140.254 31.183 140.220 C 30.729 140.171 30.280 140.130 29.830 140.087 C 29.418 140.047 29.008 140.009 28.600 139.976 C 28.187 139.942 27.778 139.913 27.370 139.884 C 26.924 139.854 26.481 139.828 26.040 139.807 C 25.665 139.787 25.291 139.770 24.921 139.757 C 24.431 139.740 23.947 139.735 23.465 139.730 C 23.204 139.727 22.940 139.722 22.680 139.722 C 22.626 139.722 22.573 139.723 22.520 139.723 C 21.814 139.729 21.119 139.750 20.433 139.787 C 20.356 139.792 20.276 139.791 20.199 139.796 C 19.598 139.832 19.011 139.850 18.436 139.850 C 8.120 139.850 1.971 134.170 1.841 126.592 C 1.821 125.449 1.939 124.264 2.199 123.048 C 3.840 115.393 8.199 112.114 11.865 106.747 C 19.533 94.334 19.033 73.358 28.699 61.280 C 28.699 61.280 28.699 61.279 28.698 61.279 C 22.365 53.730 17.478 44.926 17.613 34.626 C 17.658 31.193 18.533 27.675 19.556 23.818 C 24.874 3.772 54.968 1.595 61.855 1.595 M 61.855 -1.405 C 60.275 -1.405 23.070 -1.128 16.656 23.051 C 15.568 27.155 14.663 30.856 14.614 34.588 C 14.495 43.626 17.867 52.408 24.909 61.373 C 20.245 68.241 18.120 76.990 16.058 85.475 C 14.257 92.887 12.556 99.890 9.349 105.114 C 8.416 106.474 7.397 107.740 6.411 108.965 C 3.556 112.512 0.604 116.179 -0.734 122.421 C -1.039 123.846 -1.181 125.267 -1.158 126.645 C -0.992 136.339 6.883 142.852 18.436 142.852 C 19.072 142.852 19.725 142.832 20.378 142.793 C 20.468 142.791 20.546 142.788 20.623 142.783 C 21.232 142.750 21.888 142.730 22.545 142.724 L 22.680 142.723 C 22.838 142.723 22.998 142.725 23.157 142.728 L 23.437 142.731 C 23.894 142.736 24.353 142.741 24.819 142.756 C 25.170 142.769 25.527 142.785 25.883 142.804 C 26.315 142.825 26.739 142.849 27.166 142.878 C 27.556 142.905 27.953 142.934 28.352 142.966 C 28.748 142.999 29.143 143.035 29.539 143.074 L 29.816 143.100 C 30.164 143.132 30.511 143.165 30.861 143.203 C 31.068 143.225 31.272 143.250 31.477 143.273 L 31.810 143.312 C 33.645 143.523 35.629 143.785 38.052 144.134 C 39.069 144.281 40.092 144.433 41.116 144.585 C 47.809 145.576 54.730 146.602 61.233 146.602 C 62.391 146.602 63.521 146.569 64.594 146.503 C 64.790 146.514 65.089 146.524 65.481 146.524 C 68.502 146.524 79.383 145.819 92.583 136.750 C 99.509 131.990 104.475 126.896 107.341 121.611 C 111.803 113.384 111.138 104.639 105.417 96.321 C 90.925 75.250 83.271 60.873 82.018 52.371 C 81.072 45.949 83.773 43.867 87.862 40.716 C 90.497 38.686 93.483 36.385 95.500 32.627 C 97.813 28.315 95.033 21.875 91.930 16.083 C 91.886 15.973 91.836 15.864 91.779 15.758 C 91.387 15.028 90.932 14.273 90.388 13.450 L 90.324 13.352 C 90.256 13.248 90.186 13.143 90.116 13.040 C 90.062 12.962 90.012 12.896 89.963 12.832 C 89.479 12.135 89.028 11.537 88.588 11.001 C 87.891 10.154 80.639 3.189 72.840 0.610 C 71.990 0.330 66.525 -0.988 63.469 -1.343 C 63.113 -1.384 62.571 -1.405 61.855 -1.405 L 61.855 -1.405 Z "/>
      </g>
      <path id="White" fill="#FFFFFF" d="M 64.596 143.498 C 64.596 143.498 76.007 144.501 90.884 134.278 C 99.969 128.035 114.632 115.015 102.946 98.022 C 60.606 36.458 85.342 45.210 92.856 31.208 C 94.775 27.632 90.695 20.110 89.098 17.153 C 89.120 17.167 89.135 17.177 89.135 17.177 C 88.746 16.453 88.323 15.768 87.884 15.103 C 87.803 14.980 87.723 14.856 87.640 14.735 C 87.605 14.684 87.565 14.639 87.530 14.589 C 75.676 9.891 57.520 11.492 50.036 29.347 C 43.631 44.621 74.231 69.624 55.106 79.292 C 47.737 83.017 32.368 94.322 32.368 106.076 C 32.368 117.830 39.368 131.322 38.702 139.322 C 38.645 139.998 38.569 140.598 38.483 141.166 C 47.306 142.443 56.454 144.025 64.596 143.498 Z "/>
    </g>
    <g id="Beak">
      <path id="ID0.37231157114729285" fill="#F7941E" d="M 89.842 64.605 C 83.418 64.604 75.406 60.092 71.208 54.109 C 68.685 50.513 67.911 46.829 69.029 43.737 C 71.954 35.640 81.277 26.227 88.914 26.227 C 89.452 26.227 89.979 26.275 90.481 26.371 C 96.268 27.366 99.359 29.205 102.086 30.829 C 103.713 31.798 105.250 32.713 107.284 33.431 C 109.610 34.253 111.600 34.596 113.356 34.899 C 116.811 35.494 119.795 36.008 120.668 40.208 C 121.179 42.655 120.666 45.260 119.260 47.354 C 118.055 49.149 115.566 51.482 110.555 52.405 C 109.334 52.630 107.920 52.744 106.355 52.744 C 101.024 52.744 94.344 51.404 89.376 49.855 C 93.053 55.798 100.176 57.470 100.522 57.548 C 100.728 57.594 100.930 57.686 101.099 57.813 C 101.731 58.286 101.887 59.168 101.457 59.830 C 99.869 62.276 96.804 63.804 92.345 64.371 C 91.549 64.528 90.707 64.607 89.842 64.607 C 89.844 64.605 89.843 64.605 89.842 64.605 Z "/>
      <path id="ID0.5737760849297047" d="M 88.914 27.727 C 89.354 27.727 89.785 27.765 90.201 27.844 C 99.105 29.375 101.035 32.813 106.785 34.844 C 113.904 37.359 118.187 35.636 119.201 40.511 C 119.939 44.047 118.320 49.448 110.285 50.928 C 109.105 51.145 107.776 51.242 106.356 51.242 C 99.752 51.242 91.173 49.141 86.535 47.261 C 89.617 56.761 100.197 59.008 100.201 59.011 C 98.910 60.999 96.251 62.368 92.105 62.887 C 91.376 63.034 90.619 63.104 89.842 63.104 C 80.155 63.104 67.570 52.180 70.439 44.247 C 73.341 36.215 82.343 27.727 88.914 27.727 M 88.914 24.727 C 80.550 24.727 70.772 34.495 67.618 43.228 C 66.329 46.792 67.168 50.963 69.981 54.972 C 74.507 61.423 82.861 66.105 89.842 66.105 C 90.787 66.105 91.709 66.020 92.585 65.851 C 97.475 65.219 100.883 63.468 102.716 60.645 C 103.576 59.321 103.263 57.557 101.999 56.610 C 101.660 56.357 101.265 56.175 100.852 56.083 C 100.620 56.030 97.044 55.193 93.836 52.621 C 97.947 53.576 102.451 54.243 106.356 54.243 C 108.012 54.243 109.517 54.120 110.829 53.879 C 116.352 52.861 119.141 50.223 120.507 48.189 C 122.137 45.762 122.732 42.740 122.138 39.898 C 121.058 34.702 117.102 34.020 113.612 33.419 C 111.916 33.127 109.992 32.795 107.785 32.016 C 105.891 31.347 104.484 30.510 102.854 29.540 C 100.019 27.852 96.805 25.939 90.733 24.892 C 90.147 24.782 89.535 24.727 88.914 24.727 L 88.914 24.727 Z "/>
    </g>
    <path id="Eye" d="M 70.439 23.604 C 71.485 23.604 72.433 24.149 73.119 25.030 C 73.805 25.910 74.230 27.126 74.230 28.468 C 74.230 29.810 73.805 31.026 73.119 31.906 C 72.433 32.787 71.485 33.332 70.439 33.332 C 69.393 33.332 68.445 32.787 67.759 31.906 C 67.073 31.026 66.648 29.810 66.648 28.468 C 66.648 27.126 67.073 25.910 67.759 25.030 C 68.445 24.149 69.393 23.604 70.439 23.604 Z "/>
    <path id="Wing" fill="#8A8FC6" stroke="#000000" stroke-width="3" stroke-linecap="round" stroke-linejoin="round" d="M 50.072 79.952 C 50.072 79.952 43.090 98.415 50.072 112.793 C 57.054 127.171 65.468 135.626 72.968 121.126 C 82.607 102.492 68.823 77.959 57.965 63.912 "/>
  </g>
</svg>