<svg width="115px" height="76px" viewBox="0 0 115 76" version="1.1" xml:space="preserve" xmlns="http://www.w3.org/2000/svg" xmlns:xlink="http://www.w3.org/1999/xlink">
  <defs/>
  <g>
    <title>Slice 1</title>
    <desc>Created with Sketch.</desc>
    <g id="Page-1" stroke="none" stroke-width="1" fill="none" fill-rule="evenodd">
      <g id="trumpet-a-[music,andrew-rae]" transform="translate(57.500000, 38.000000) rotate(11.000000) translate(-57.500000, -38.000000) translate(5.000000, 10.000000)" fill-rule="nonzero">
        <g id="trumpet-a-_x5B_music_x2C_andrew-rae_x5D_" transform="translate(52.500000, 28.000000) rotate(90.000000) translate(-52.500000, -28.000000) translate(25.000000, -24.000000)">
          <path d="M17,70.3 C16.1,70 15.5,69.6 15.1,68.7 C14.7,67.7 14.7,66.7 15.1,65.8 C15.3,65.4 15.5,65.1 15.9,64.9 C16.4,64.7 17,64.9 17.3,65.4 C17.5,65.6 17.6,65.9 17.8,66.1 C17.9,66.3 18,66.5 18.1,66.7 C18.4,66.9 18.5,66.7 18.8,66.6 C18.8,65.6 18.7,64.6 19,63.6 C18.6,63 18.3,62.4 18.1,61.7 C18,61.4 17.7,61.3 17.4,61.4 C17.1,61.6 17.2,61.9 17.2,62.1 C17.2,62.6 17,63.1 16.7,63.5 C16.2,64.2 15.5,64.4 14.8,63.9 C13.5,63 13,60.6 13.7,59.3 C14.3,58.3 15.7,58.3 16.3,59.4 C16.5,59.8 16.6,60.2 16.8,60.5 C17.1,60.6 17.3,60.6 17.6,60.3 C17.7,59.7 17.5,59 17.8,58.4 C18,57.9 18.2,57.5 18.7,57.4 C19.1,57.3 19.4,57.2 19.7,57.1 C19.7,56.9 19.8,56.8 19.8,56.8 C19.3,55 19.1,53.2 18.7,51.5 C18.2,49.5 17.9,47.5 17.5,45.5 C17.1,43.5 16.8,41.5 16.4,39.6 C16.2,38.9 16.1,38.3 15.9,37.6 C15.4,35.6 15,33.5 14.5,31.5 C13.8,28.8 12.9,26.1 11.6,23.6 C10.2,21 8.6,18.4 6.9,16.1 C5.2,13.8 3.2,11.8 0.9,10.1 C0.9,9.8 0.7,9.7 0.6,9.5 C0.1,8.9 0.1,8.3 0.6,7.7 C0.9,7.3 1.4,7 1.8,6.7 C3.2,5.8 4.7,5.2 6.2,4.7 C9.5,3.5 12.9,2.4 16.4,1.7 C18,1.3 19.6,1.1 21.1,0.9 C23.8,0.6 26.4,0.3 29.2,0.3 C30.5,0.3 31.9,0.4 33.2,0.6 C33.8,0.7 34.3,0.8 34.8,1.1 C35.6,1.5 35.7,1.9 35.6,2.8 C35.5,3.7 35,4.3 34.6,5 C32.6,9 31,13.2 30.1,17.7 C29.5,20.2 29,22.7 28.8,25.3 C28.7,26.1 28.6,26.9 28.7,27.7 C28.8,28.4 28.5,29 28.6,29.6 C28.9,29.8 29,29.6 29.2,29.4 C29.7,29.1 30.1,28.7 30.6,28.4 C33.3,26.7 35.9,27.1 38.5,28.6 C39.2,29 39.7,29.6 40.2,30.2 C41.5,31.9 42.5,33.8 43.1,35.8 C43.2,36.2 43.3,36.5 43.5,36.9 C44.8,37.4 45.5,38.5 46.1,39.8 C46.5,40.7 46.9,41.6 47.1,42.5 C47.6,44.8 48,47.1 48.5,49.3 C48.6,49.8 48.4,50.4 48.7,50.8 C49,51.1 49.3,50.9 49.6,51 C49.7,51.1 49.8,51.1 49.8,51.2 C50.7,52.3 51.2,53.6 51.3,55 C51.4,55.6 51.5,56.1 51.4,56.7 C51.3,57 51.5,57.3 51.7,57.5 C52.7,58.8 53,60.3 53.1,61.8 C52.7,62.9 53.2,63.9 53.7,64.9 C54.2,65.9 54.2,66.9 54.2,68 C54.2,68.5 54.1,69 53.7,69.4 C53.1,69.2 52.5,69.5 51.8,69.7 C52.1,71.7 52.4,73.6 52.5,75.5 C52.6,76.7 52.6,77.9 52.1,79 C51.5,80.3 50.8,81.3 49.4,81.8 C47.5,85.7 44.7,88.4 40.1,88.7 C40.5,90.9 41.2,93 41.6,95.2 C42.8,96 43,96.4 42.3,97.8 C42.9,98.8 43.7,99.7 44,101 C43.7,101.8 43,102.3 42.3,102.5 C40.9,103 39.5,103.4 38.1,103.2 C37,103.1 36.6,102.7 36.6,101.5 C36.6,100.7 36.8,99.9 37,99.1 C36.8,98.9 36.7,98.8 36.6,98.6 C36.2,98.1 36,97.6 36.3,97 C36.6,96.5 36.5,96.1 36.4,95.6 C35.9,93.3 35.4,91.1 34.9,88.8 C34.9,88.7 34.8,88.6 34.7,88.5 C34.4,88.4 34.2,88.3 33.9,88.2 C32.3,87.7 31,86.8 29.9,85.6 C29.1,84.7 28.4,83.9 27.8,83 C26.9,81.6 26.2,80.2 25.7,78.7 C25.3,77.7 25,76.7 24.6,75.8 C24.4,75.8 24.3,75.7 24.2,75.7 C23.1,76.1 22.4,75.5 21.8,74.7 C21.5,74.3 21.3,74 21,73.6 C20.6,73.4 20.2,73.6 19.9,73.7 C19.6,74.1 19.8,74.4 19.7,74.7 C19.6,75.1 19.6,75.4 19.3,75.7 C18.9,76.2 18.4,76.3 17.9,76.2 C16.9,75.8 16.4,75 16.3,74.1 C16.1,72.8 16.2,71.7 17.3,70.8 C18.3,70.6 18.5,70.7 19,71.5 C19.2,71.9 19.4,72.3 19.6,72.7 C20,72.7 20.4,72.6 20.7,72.3 C20.4,71.4 20.5,70.5 20.9,69.6 C20.6,69.3 20.4,69 20.2,68.7 C19.9,68.4 19.8,68 19.5,67.8 C19.2,67.8 19,67.9 18.8,68.1 C18.1,69.8 18.1,69.8 17,70.3 Z M48.5,67.4 C48.5,67.8 48.3,68.2 48.7,68.4 C48.8,68.6 49,68.6 49.1,68.6 C49.6,68.5 50.1,68.3 50.5,68.2 C51,68.1 51.5,68 51.9,67.9 C52.2,67.8 52.3,67.6 52.4,67.4 C52.6,66 52.4,64.6 51.5,63.4 C50.3,63.7 49.2,63.9 48,64.2 C48.1,65.3 48.5,66.3 48.5,67.4 Z M39.6,51 C39.5,51.5 39.5,51.9 39.8,52.3 C39.9,52.5 40,52.6 40.3,52.4 C40.2,52.1 40.2,51.8 40.1,51.5 C40.3,51.1 40.5,51.2 40.8,51.4 C40.8,51.2 40.9,51 40.9,50.9 C40.7,50 40.5,49.2 40.3,48.3 C40,47.2 39.7,46.1 39.6,45 C39.2,43 38.8,41 38.4,39 C37.8,39.6 37.7,39.8 37.5,40.6 C37,42 37,43.5 37.2,44.9 C37.4,46.6 37.7,48.2 38,49.9 C38.2,50.9 38.4,51.8 38.6,52.7 C39.1,52.5 39.1,52.5 39.1,52.4 C39,51.8 38.9,51.3 38.9,50.7 C38.9,50.5 39,50.3 39.3,50.3 C39.5,50.3 39.6,50.4 39.7,50.6 C39.5,50.7 39.5,50.8 39.6,51 Z M37.3,66.2 C36.6,66.1 35.9,66.4 35.1,66.5 C35.4,67.9 35.6,69.2 35.9,70.5 C36,70.8 36.1,71 36.4,71.1 C38.8,70.4 41.3,70 43.8,69.7 C43.6,68.1 43.4,66.6 43.1,65.2 C42.8,65 42.6,65.1 42.4,65.1 C40.7,65.4 39.1,65.8 37.5,66.2 C37.4,66.1 37.4,66.2 37.3,66.2 Z M5.7,6.4 C6,6.5 6.5,6.2 6.6,6.8 C6.3,7.3 5.8,7.3 5.3,7.5 C4.8,7.8 4.3,8 3.8,8.3 C3.3,8.5 2.9,8.7 2.4,9.1 C2.8,9.3 3.1,9.3 3.4,9.2 C3.7,9 4.1,8.8 4.4,8.7 C5.1,8.3 5.8,8 6.6,7.7 C6.9,7.6 7.2,7.6 7.3,8 C6.7,8.6 5.7,8.8 5,9.4 C5.3,9.7 5.5,9.6 5.8,9.5 C6.2,9.3 6.6,9.1 7.1,9 C7.5,8.9 7.7,9 7.8,9.6 C8.2,9.6 8.6,9.6 9,9.6 C12.9,9.3 16.8,8.7 20.7,7.9 C22.2,7.6 23.6,7.2 25,6.8 C26.1,6.5 27.2,6.2 28.2,5.8 C28.5,5.9 28.8,5.8 28.8,5.3 C28.5,5.3 28.2,5.2 28,5.2 C27.9,5.3 28,5.2 28,5.1 C28.1,4.9 28.4,4.9 28.6,4.8 C29.1,4.8 29.7,4.8 30.2,4.9 C30.7,5 31.1,4.9 31.4,4.5 C30.5,4.1 29.4,4.8 28.5,4.1 C28.6,3.8 28.7,3.7 28.8,3.7 C29.1,3.6 29.5,3.6 29.8,3.5 C30.7,3.4 31.7,3.4 32.6,3.7 C33,3.8 33.3,3.7 33.5,3.3 C32.6,3 31.8,3 31.1,3 C30.5,3 30,3 29.4,2.9 C29.1,2.9 28.9,2.7 29,2.4 C29.3,2 29.8,2 30.2,2 C30.7,2 31.1,2 31.5,2 C32,2.1 32.5,2.2 32.9,2.2 C33.4,2.3 33.7,2.7 34.2,2.6 C34.4,2.3 34.4,2 34.1,1.8 C33.8,1.6 33.5,1.5 33.2,1.5 C32.5,1.4 31.8,1.3 31.2,1.3 C30.1,1.2 29,1.4 27.9,1.5 C25.5,1.6 23.1,1.7 20.7,2 C19,2.3 17.3,2.6 15.6,3 C13.7,3.5 11.9,4 10,4.5 C8.4,5 6.8,5.4 5.2,6.2 C3.9,6.6 2.7,7.3 1.6,8.1 C1.4,8.2 1.2,8.4 1.2,8.6 C1.4,8.8 1.6,8.8 1.7,8.6 C2.5,8 3.4,7.5 4.4,7 C4.7,6.9 5.3,6.8 5.7,6.4 Z M3.4,10.6 C3.7,10.9 3.9,11.1 4.1,11.3 C5.1,12.3 6.1,13.2 7,14.2 C8,15.3 8.8,16.4 9.5,17.6 C10.7,19.6 12.1,21.5 13,23.6 C13.6,24.9 14.2,26.2 14.6,27.6 C15.6,30.9 16.3,34.3 17,37.6 C17.6,40.3 18.2,43 18.7,45.7 C19.6,50 20.4,54.3 21.2,58.6 C21.8,61.3 22.3,64 23,66.7 C24.1,70.4 24.9,74.2 26.4,77.9 C27,79.5 27.6,81 28.6,82.5 C29.6,84 30.9,85.2 32.3,86.2 C32.8,86.6 33.3,86.8 34,86.8 C33.9,86.2 33.9,85.8 33.8,85.4 C33.5,84 33.2,82.6 32.9,81.2 C32.4,78.9 32.1,76.7 31.6,74.5 C30.9,70.8 30.1,67.2 29.4,63.5 C28.9,60.9 28.3,58.3 27.8,55.7 C27.2,52.8 26.7,50 26.2,47.1 C25.9,45.1 25.6,43.2 25.4,41.3 C25.2,39.6 25.3,37.8 25.6,36.1 C25.8,34.4 26.1,32.8 27,31.4 C27.3,31 27.3,30.6 27.3,30.1 C27.2,28 27.2,25.8 27.6,23.7 C27.9,22.2 28,20.8 28.3,19.3 C28.8,16.9 29.4,14.6 30.1,12.3 C31,10 32,7.7 33,5.3 C33.1,5.1 33.3,4.9 33.1,4.7 C33,4.8 32.9,4.8 32.8,4.8 C28.9,6.9 24.8,8.3 20.5,9.1 C18,9.6 15.5,10.1 12.9,10.4 C10.1,10.8 7.3,10.9 4.5,10.6 C4.1,10.5 3.8,10.4 3.4,10.6 Z M40,95.3 C39.5,93.4 39.1,91.6 38.7,89.8 C38,86.8 37.3,83.8 36.8,80.8 C36.5,79.5 36.3,78.2 36.1,76.9 C35.8,75.8 35.7,74.7 35.5,73.6 C35,71.3 34.6,69 34.1,66.8 C33.5,64.4 33,61.9 32.6,59.5 C32.3,57.6 32.1,55.8 31.8,53.9 C31.6,52.3 31.4,50.7 31.1,49.1 C30.9,48 30.9,46.8 30.7,45.7 C30.4,43.3 30.2,40.9 30.3,38.5 C30.3,37.2 30.7,36 31.2,34.9 C31.6,34.2 32.1,33.6 32.9,33.2 C34.6,32.3 36.8,32.9 37.8,34.7 C38.4,35.6 38.9,36.5 39.1,37.6 C39.5,39.1 39.8,40.7 40.1,42.2 C40.5,43.9 40.6,45.6 41.1,47.3 C41.8,49.6 42.2,52 42.7,54.3 C42.9,55.4 43.1,56.5 43.3,57.6 C43.5,58.8 43.7,60.1 43.9,61.3 C44.3,63.6 44.7,65.8 45,68.1 C45.3,70.4 45.9,72.6 46.2,74.8 C46.3,75.4 46.6,76 46.9,76.5 C47.1,76.8 47.3,77 47.6,77 C48,76.9 48.3,76.7 48.5,76.4 C48.6,76.2 48.6,76.1 48.6,75.9 C48.6,75.2 48.6,74.4 48.5,73.7 C48.1,70.4 47.7,67.1 47,63.9 C46.6,62 46.2,60 45.9,58.1 C45.5,56.2 45.2,54.2 44.9,52.3 C44.5,49.7 44.1,47.2 43.8,44.7 C43.4,42.1 42.8,39.5 42.2,37 C41.7,35.1 40.8,33.3 39.8,31.7 C38.4,29.4 33.9,27.8 31,29.9 C29.2,31.1 28,32.7 27.5,34.8 C26.8,37.9 27,41 27.3,44.1 C27.5,45.6 27.8,47.1 28,48.6 C28.7,52.2 29.4,55.7 30,59.2 C30.2,60.3 30.6,61.4 30.7,62.5 C31,64.2 31.4,65.9 31.7,67.6 C32.3,70.5 32.9,73.4 33.5,76.3 C34.2,80 34.9,83.8 35.6,87.5 C36,89.4 36.4,91.4 36.8,93.3 C37,94.3 37.2,95.3 37.5,96.2 C38.3,96.1 39.1,95.8 40,95.3 Z M37.9,37.7 C37.5,36.8 37.2,35.9 36.7,35.2 C36.1,34.3 35.2,33.9 34.1,33.9 C33.5,33.9 33,34.2 32.6,34.6 C32.1,35.2 31.7,35.9 31.5,36.7 C31.4,37.3 31.2,38 31.2,38.6 C31.2,41.1 31.5,43.5 31.7,45.9 C31.8,46.2 31.7,46.5 32,46.7 C33.7,45.3 34.3,45.2 36,46 C36,45.9 36.1,45.8 36.1,45.8 C35.8,44.7 35.8,43.6 35.9,42.4 C36,40.7 36.2,38.9 37.9,37.7 Z M36.4,72 C36.5,73.2 37.6,78.9 37.9,80.1 C40.1,81.2 41.6,80.7 42.9,78.6 C42,76.6 41.4,74.5 41.2,72.3 C41.1,71.9 41,71.5 40.8,71.1 C39.3,71.4 37.9,71.7 36.4,72 Z M49,69.6 C49,69.8 48.9,69.9 49,70 C49.2,71.4 49.3,72.8 49.5,74.2 C49.6,74.8 49.6,75.4 49.6,76 C49.6,76.3 49.5,76.6 49.4,76.8 C48.9,78 46.8,78.5 45.9,77.2 C45.5,76.6 45.1,75.9 45,75.2 C44.8,74.3 44.6,73.5 44.5,72.6 C44.3,71.9 44.3,71.2 44,70.6 C43.4,70.7 42.8,70.8 42.3,70.9 C42.1,71.6 42.4,72.2 42.5,72.7 C42.8,74.7 43.3,76.5 44.2,78.3 C44.4,78.6 44.6,78.9 44.8,79.3 C45.7,80.7 48.5,80.7 49.5,79.8 C50.4,78.9 50.8,78 50.9,76.8 C51,75 50.8,73.3 50.5,71.5 C50.4,70.8 50.4,70.1 50,69.4 C49.6,69.5 49.3,69.6 49,69.6 Z M47.4,81.5 C46.6,81.5 45.9,81.4 45.3,81.1 C44.6,80.8 44.1,80.4 43.4,80 C42.8,80.9 41.9,81.3 41,81.6 C40,82 39,81.8 38.1,81.4 C38.2,82.6 39,86.4 39.3,87 C42.2,87.4 46.1,84.8 47.4,81.5 Z M42.8,63.8 C42.8,63 42.3,60 42,59.1 C39.3,59.5 36.7,60.3 34.1,60.7 C34,60.9 34,61 34,61 C34.3,62.4 34.6,63.8 34.8,65.1 C34.9,65.3 34.9,65.5 35.2,65.6 C37.6,65.2 40,64.3 42.5,64 C42.6,63.9 42.7,63.8 42.8,63.8 Z M41.2,53.4 C39.7,53.4 38.4,53.9 37.1,54.1 C35.7,54.3 34.4,54.6 33.1,54.8 C33,56 33.5,58.7 33.8,59.6 C35.2,59.5 36.5,59.1 37.8,58.8 C39.2,58.4 40.5,58.2 42,58 C41.7,56.4 41.5,55 41.2,53.4 Z M51.3,62.3 C51.5,60.4 51.4,58.7 49.9,57.3 C49,57.7 48,57.8 47,58 C47.3,59.8 47.5,61.4 47.9,63.2 C49,62.9 50.1,62.6 51.3,62.3 Z M47.2,51 C47.2,50.7 47.3,50.4 47.2,50.2 C46.8,47.9 46.4,45.7 45.9,43.5 C45.6,42.3 45.3,41.1 44.8,40.1 C44.5,39.5 44.2,38.9 43.5,38.2 C43.9,40.6 44.5,42.6 44.8,44.8 C45.1,47 45.4,49.2 45.9,51.3 C46.4,51.3 46.8,51.2 47.2,51 Z M49.9,56.2 C49.7,54.6 49.9,53.1 48.8,51.9 C47.8,52.1 47,52.2 46.1,52.4 C46.1,53.6 46.5,55.8 46.9,57.1 C47.9,56.8 48.9,56.6 49.9,56.2 Z M37.2,101.3 C38.8,101.9 40.6,101.6 42.1,100.4 C41.8,99.5 41.3,98.7 40.7,98 C39.7,98.6 38.5,98.7 37.4,98.8 C37.1,100.3 37.1,100.3 37.2,101.3 Z M36.1,49 C36.2,48.2 35.9,47.5 35.5,47 C35.2,46.7 34.9,46.5 34.5,46.5 C33.5,46.5 32.7,47.3 32.6,48.4 C32.5,49.6 33.3,50.6 34.2,50.8 C35.1,51 35.5,50.7 35.8,49.9 C36,49.6 36.1,49.2 36.1,49 Z M23.8,74.4 C23.4,72.7 22.9,71.2 22.4,69.6 C22.1,69.6 22,69.6 21.8,69.7 C21.1,69.8 21,69.9 21,70.6 C20.9,71.9 21.3,73.1 22.1,74.2 C22.7,74.7 22.9,74.8 23.8,74.4 Z M36.8,50.8 C35.6,52.2 34.6,52.3 33.2,51.5 C33,51.4 32.9,51.1 32.5,51.3 C32.7,52.1 32.6,52.9 33,53.7 C34.5,53.5 35.9,53.2 37.4,52.9 C37.2,52.2 37.1,51.7 37,51.1 C37,51 36.9,51 36.8,50.8 Z M18.7,58.4 C18.5,59.7 18.4,61.1 19.2,62.3 C19.4,62.7 19.5,63.1 19.8,63.3 C20.2,63.3 20.5,63.4 20.9,63 C20.5,61.4 20.2,59.7 19.8,58.1 C19.4,58.1 19.1,58 18.7,58.4 Z M19.9,64.3 C19.8,64.4 19.8,64.4 19.8,64.4 C19.4,66 19.9,67.3 21.1,68.4 C21.5,68.8 21.8,68.7 22.2,68.3 C22.2,67.5 21.9,66.8 21.7,66.2 C21.5,65.5 21.5,64.8 21,64.1 C20.6,64.3 20.2,64.3 19.9,64.3 Z M16,61.9 C15.8,61.7 15.7,61.8 15.5,61.8 C15.2,61.7 15,61.6 15,61.3 C14.9,61 15.1,60.9 15.3,60.8 C15.5,60.7 15.7,60.6 15.7,60.3 C15.6,60.1 15.5,59.9 15.4,59.7 C15.3,59.5 15.1,59.3 14.8,59.3 C14.5,59.4 14.3,59.6 14.2,59.9 C14,60.8 14.1,61.7 14.6,62.4 C14.8,62.7 15.1,63 15.5,63 C16,62.6 16,62.6 16,61.9 Z M17.3,71.9 C16.9,72.6 16.8,73.3 17.1,74 C17.3,74.5 17.5,74.9 18.1,75 C18.5,74.7 18.6,74.3 18.5,73.9 C18.2,73.5 17.7,73.6 17.6,73.3 C17.5,72.7 18.1,72.7 18.2,72.4 C18.1,71.9 17.7,71.9 17.3,71.9 Z M17.1,69.2 C17.3,68.8 17.4,68.5 17.2,68.2 C16.9,68.1 16.4,68.1 16.4,67.6 C16.3,67.1 16.9,67.2 17,66.9 C16.9,66.5 16.8,66.1 16.4,65.9 C15.7,66.5 15.7,67.2 15.9,68 C16,68.6 16.3,69.1 17.1,69.2 Z M41,96.1 C40.1,96.4 39.4,96.7 38.8,96.9 C38.1,97.1 37.4,97 36.7,97.2 C37,97.9 37.6,97.8 38,97.7 C39.1,97.5 40.2,97.4 41,96.1 Z" id="Shape" fill="#010001"/>
          <path d="M3.4,10.6 C3.8,10.4 4.1,10.5 4.4,10.5 C7.2,10.9 10,10.7 12.8,10.3 C15.4,10 17.9,9.5 20.4,9 C24.7,8.2 28.8,6.8 32.7,4.7 C32.8,4.6 32.9,4.6 33,4.6 C33.2,4.8 33.1,5 32.9,5.2 C31.9,7.6 30.8,9.9 30.1,12.3 C29.3,14.6 28.8,16.9 28.3,19.3 C28,20.8 27.8,22.2 27.6,23.7 C27.2,25.8 27.2,27.9 27.3,30.1 C27.3,30.6 27.2,31 27,31.4 C26.1,32.8 25.8,34.4 25.6,36.1 C25.4,37.8 25.3,39.6 25.4,41.3 C25.6,43.3 25.9,45.2 26.2,47.1 C26.7,50 27.3,52.9 27.8,55.7 C28.3,58.3 28.9,60.9 29.4,63.5 C30.2,67.2 30.9,70.8 31.6,74.5 C32.1,76.8 32.4,79 32.9,81.2 C33.2,82.6 33.5,84 33.8,85.4 C33.9,85.8 34,86.3 34,86.8 C33.3,86.7 32.7,86.5 32.3,86.2 C30.9,85.1 29.6,84 28.6,82.5 C27.6,81.1 27,79.5 26.4,77.9 C24.9,74.3 24.1,70.5 23,66.7 C22.2,64 21.7,61.3 21.2,58.6 C20.3,54.3 19.5,50 18.7,45.7 C18.1,43 17.6,40.3 17,37.6 C16.2,34.2 15.5,30.9 14.6,27.6 C14.2,26.2 13.6,24.9 13,23.6 C12,21.5 10.7,19.6 9.5,17.6 C8.8,16.4 8,15.2 7,14.2 C6.1,13.2 5.1,12.2 4.1,11.3 C3.9,11.1 3.6,10.9 3.4,10.6 Z M26.3,72.7 C25.8,72.9 25.7,73.2 25.8,73.5 C26,74.5 26.3,75.4 26.6,76.3 C27.2,78.2 28,80 29.1,81.6 C29.7,82.5 30.4,83.5 31.3,84.1 C31.5,84 31.7,83.8 31.6,83.6 C31.4,83.1 31.1,82.7 30.8,82.2 C30,81.1 29.3,80 28.7,78.8 C28,77.4 27.6,76 27.1,74.6 C26.9,74 26.8,73.3 26.3,72.7 Z M29.3,77.1 C29.1,77.2 28.9,77.3 28.9,77.4 C28.9,77.5 28.9,77.7 29,77.9 C29.6,79.2 30.2,80.3 31,81.4 C31.1,81.6 31.2,81.7 31.3,81.8 C31.5,81.9 31.7,82.1 31.8,81.9 C32,81.7 32,81.5 31.9,81.3 C31.8,81.1 31.7,81 31.6,80.9 C30.9,80 30.3,78.9 29.8,77.9 C29.7,77.7 29.5,77.5 29.4,77.3 C29.5,77.1 29.4,77.1 29.3,77.1 Z M28.2,74.5 C28.1,74.6 28,74.6 27.9,74.7 C27.6,75.2 27.9,75.9 28.4,76.3 C28.6,76.4 28.9,76.3 28.9,76.1 C29,75.5 28.7,75.1 28.4,74.7 C28.4,74.6 28.3,74.6 28.2,74.5 Z M25.5,71.5 C25.8,71.4 25.9,71.1 25.8,70.9 C25.7,70.5 25.7,70.1 25.4,69.9 C25.3,69.8 25.1,69.8 25,69.8 C24.7,69.9 24.6,70.7 24.9,71.2 C25.2,71.4 25.3,71.5 25.5,71.5 Z M24.3,67.8 C24.2,68.2 24.2,68.4 24.6,68.6 C24.8,68.7 24.9,68.7 24.9,68.5 C25.2,68.3 25.1,68 25,67.7 C24.9,67.6 24.8,67.5 24.7,67.4 C24.6,67.3 24.4,67.3 24.4,67.5 C24.3,67.7 24.3,67.8 24.3,67.8 Z" id="Shape_2_" fill="#FFC941"/>
          <path d="M40,95.3 C39.1,95.8 38.3,96.1 37.3,95.9 C36.9,94.9 36.8,93.9 36.6,93 C36.2,91.1 35.7,89.2 35.4,87.2 C34.7,83.5 34,79.7 33.3,76 C32.7,73.1 32.2,70.2 31.5,67.3 C31.1,65.6 30.8,63.9 30.5,62.2 C30.3,61.1 30,60 29.8,58.9 C29.1,55.4 28.4,51.8 27.8,48.3 C27.5,46.8 27.2,45.3 27.1,43.8 C26.8,40.7 26.6,37.6 27.3,34.5 C27.8,32.4 29.1,30.9 30.8,29.6 C33.7,27.5 38.2,29.1 39.6,31.4 C40.7,33.1 41.6,34.8 42,36.7 C42.6,39.3 43.3,41.8 43.6,44.4 C44,47 44.4,49.5 44.7,52 C45,54 45.3,55.9 45.7,57.8 C46.1,59.7 46.4,61.7 46.8,63.6 C47.5,66.9 47.9,70.2 48.3,73.4 C48.4,74.1 48.4,74.9 48.4,75.6 C48.4,75.8 48.4,75.9 48.3,76.1 C48.1,76.5 47.8,76.7 47.4,76.7 C47.1,76.7 46.8,76.5 46.7,76.2 C46.4,75.7 46.1,75.1 46,74.5 C45.6,72.2 45.1,70 44.8,67.8 C44.5,65.5 44,63.3 43.7,61 C43.5,59.8 43.3,58.5 43.1,57.3 C42.9,56.2 42.7,55.1 42.5,54 C42,51.6 41.6,49.3 40.9,47 C40.4,45.3 40.3,43.6 39.9,41.9 C39.6,40.3 39.3,38.8 38.9,37.3 C38.6,36.3 38.1,35.3 37.6,34.4 C36.6,32.7 34.3,32 32.7,32.9 C31.9,33.3 31.4,33.9 31,34.6 C30.4,35.7 30.1,36.9 30.1,38.2 C30,40.6 30.3,43 30.5,45.4 C30.7,46.5 30.7,47.7 30.9,48.8 C31.2,50.4 31.4,52 31.6,53.6 C31.9,55.5 32.1,57.4 32.4,59.2 C32.8,61.7 33.3,64.1 33.9,66.5 C34.4,68.8 34.9,71.1 35.3,73.3 C35.5,74.4 35.7,75.5 35.9,76.6 C36.2,77.9 36.4,79.2 36.6,80.5 C37.2,83.5 37.8,86.6 38.5,89.5 C39.1,91.5 39.5,93.4 40,95.3 Z M28.2,38.3 C28.5,37.9 28.6,37.5 28.7,37.1 C28.9,36.1 29,35.1 29.4,34.2 C30,32.8 30.6,31.3 32.2,30.6 C32.5,30.5 32.6,30.3 32.5,30 C32.4,29.7 32.1,29.7 31.9,29.7 C31.1,29.7 30.6,30.1 30.1,30.6 C28.8,32.1 28.1,34 27.7,35.9 C27.6,36.5 27.6,37 27.7,37.6 C27.7,37.9 27.8,38.2 28.2,38.3 Z M28.4,40.7 C28.4,40.5 28.4,40.2 28.3,39.8 C28.3,39.7 28.1,39.6 28,39.5 C27.8,39.4 27.7,39.6 27.6,39.7 C27.4,40.2 27.2,40.7 27.4,41.2 C27.6,41.5 27.5,41.9 27.9,42 C28.1,42.1 28.3,41.7 28.3,41.1 C28.4,41 28.4,41 28.4,40.7 Z" id="Shape_3_" fill="#FFC941"/>
          <path d="M5.1,6.2 C6.7,5.4 8.3,5 9.9,4.5 C11.8,3.9 13.6,3.4 15.5,3 C17.2,2.6 18.9,2.3 20.6,2.1 C23,1.8 25.4,1.6 27.8,1.6 C28.9,1.6 30,1.4 31.1,1.4 C31.8,1.5 32.5,1.5 33.1,1.6 C33.4,1.7 33.7,1.8 34,1.9 C34.3,2 34.3,2.4 34.1,2.7 C33.6,2.8 33.3,2.3 32.8,2.3 C32.3,2.2 31.8,2.1 31.4,2.1 C30.9,2 30.5,2.1 30.1,2.1 C29.6,2.1 29.2,2.1 28.9,2.5 C28.8,2.9 29.1,3 29.3,3 C29.9,3 30.4,3 31,3 C31.7,3 32.5,3.1 33.2,3.4 C33,3.8 32.7,3.9 32.3,3.8 C31.4,3.5 30.5,3.5 29.5,3.6 C29.2,3.6 28.8,3.7 28.5,3.8 C28.3,3.9 28.2,4 28.2,4.2 C29.1,4.9 30.1,4.3 31.1,4.6 C30.8,5 30.4,5.1 29.9,5 C29.4,4.9 28.8,4.9 28.3,4.9 C28.1,4.9 27.9,5 27.7,5.2 C27.6,5.3 27.6,5.4 27.8,5.5 C27.9,5.7 28,5.9 28,6 C26.9,6.5 25.9,6.7 24.8,7 C23.3,7.4 21.9,7.8 20.5,8.1 C16.6,8.9 12.8,9.6 8.8,9.8 C8.4,9.9 8,9.8 7.6,9.8 C7.6,9 7.4,8.9 7,9 C6.6,9.1 6.2,9.3 5.7,9.4 C5.5,9.5 5.2,9.6 4.9,9.4 C5.6,8.8 6.6,8.6 7.2,8 C7.1,7.6 6.8,7.6 6.5,7.7 C5.7,7.9 5,8.3 4.3,8.7 C4,8.8 3.6,9 3.3,9.2 C3,9.3 2.7,9.3 2.3,9.1 C2.8,8.7 3.2,8.5 3.7,8.2 C4.2,7.9 4.7,7.7 5.2,7.4 C5.7,7.1 6.2,7.1 6.5,6.6 C6.4,6.2 6,6.5 5.6,6.4 C5.5,6.4 5.2,6.4 5.1,6.2 Z M12.1,4.9 C12.3,5.4 12.5,5.5 12.9,5.4 C13.9,5 15,4.7 16.1,4.5 C17.6,4.2 19,3.9 20.4,3.6 C20.7,3.5 21,3.5 21.2,3.4 C21.4,3.3 21.5,3.1 21.4,2.9 C21.2,2.8 21.1,2.8 20.9,2.8 C19.2,3.1 17.6,3.3 16,3.7 C14.7,4 13.5,4.3 12.3,4.8 C12.3,4.7 12.2,4.8 12.1,4.9 Z M7.7,5.9 C7.5,5.9 7.2,5.9 7,6.1 C6.9,6.3 6.9,6.5 7.1,6.6 C7.5,6.9 8.2,6.6 8.3,6.1 C8.2,6 8,5.9 7.7,5.9 Z M27.1,2.7 C27.2,2.8 27.2,3 27.3,3 C27.6,3.2 27.9,3.2 28.2,2.9 C28.4,2.8 28.4,2.5 28.1,2.4 C27.8,2.2 27.6,2.2 27.3,2.3 C27.2,2.5 27.2,2.6 27.1,2.7 Z M9.7,5.7 C9.8,5.5 9.6,5.4 9.5,5.3 C9.3,5.2 9.1,5.3 9,5.4 C8.8,5.5 8.7,5.6 8.8,5.8 C8.9,6 9,6.1 9.2,6.1 C9.4,6.1 9.6,6 9.7,5.7 Z M27.3,4.4 C27.6,4.4 27.8,4.1 27.7,3.9 C27.6,3.6 27.4,3.6 27.2,3.6 C27,3.6 26.8,3.7 26.7,3.9 C26.7,4.2 27.1,4.4 27.3,4.4 Z M26.2,2.8 C26.3,2.6 26.1,2.4 25.9,2.4 C25.6,2.3 25.3,2.5 25.3,2.7 C25.2,3 25.5,3.1 25.6,3.1 C25.9,3.1 26.2,3 26.2,2.8 Z M8.7,7.5 C8.6,7.3 8.5,7.2 8.3,7.2 C8.1,7.2 7.9,7.3 7.9,7.5 C7.9,7.7 8,7.9 8.2,7.9 C8.5,7.9 8.6,7.7 8.7,7.5 Z" id="Shape_4_" fill="#FFC941"/>
          <path d="M49,69.6 C49.3,69.5 49.6,69.5 49.9,69.4 C50.3,70.1 50.2,70.8 50.4,71.5 C50.7,73.3 50.9,75 50.8,76.8 C50.7,78 50.3,79 49.4,79.8 C48.4,80.8 45.6,80.8 44.7,79.3 C44.5,79 44.3,78.7 44.1,78.3 C43.2,76.5 42.7,74.6 42.4,72.7 C42.3,72.1 42,71.5 42.2,70.9 C42.8,70.8 43.3,70.7 43.9,70.6 C44.2,71.3 44.2,72 44.4,72.6 C44.6,73.5 44.8,74.3 44.9,75.2 C45.1,75.9 45.4,76.6 45.8,77.2 C46.7,78.5 48.8,78.1 49.3,76.8 C49.4,76.5 49.5,76.2 49.5,76 C49.5,75.4 49.5,74.8 49.4,74.2 C49.2,72.8 49.1,71.4 48.9,70 C49,69.9 49,69.8 49,69.6 Z" id="Shape_5_" fill="#FDC841"/>
          <path d="M47.4,81.5 C46.1,84.8 42.2,87.4 39.3,87.1 C39,86.4 38.2,82.7 38.1,81.5 C39.1,81.8 40.1,82 41,81.7 C41.9,81.3 42.8,81 43.4,80.1 C44.1,80.5 44.6,80.9 45.3,81.2 C45.9,81.4 46.6,81.5 47.4,81.5 Z M39.5,83 C39.9,83.6 40.4,83.7 40.9,83.6 C41.5,83.4 42.2,83.4 42.6,82.8 C42.8,82.6 42.8,82.3 42.4,82.2 C41.6,82.9 40.5,82.4 39.5,83 Z M39.6,84.4 C39.3,84.9 39.5,85.4 39.6,85.9 C39.6,86 39.7,86 39.7,86 C39.8,86.2 40,86.3 40.2,86.3 C40.5,86.2 40.5,86 40.5,85.8 C40.4,85.4 40.3,85 40.1,84.7 C40,84.5 39.9,84.4 39.6,84.4 Z M41.3,84.4 C41.2,84.5 41.1,84.5 41.1,84.6 C40.8,85 41,85.6 41.5,86 C41.7,86.1 42,85.9 42,85.7 C42,85.2 41.8,84.8 41.6,84.5 C41.5,84.4 41.4,84.4 41.3,84.4 Z M43.4,84.5 C43.4,84.2 43.2,83.9 42.9,83.9 C42.7,83.9 42.6,84.1 42.6,84.3 C42.6,84.6 42.6,84.8 42.9,84.9 C43.1,84.9 43.4,84.7 43.4,84.5 Z" id="Shape_6_" fill="#FDC841"/>
          <path d="M42.8,63.8 C42.7,63.9 42.6,63.9 42.5,64 C40,64.3 37.6,65.2 35.2,65.6 C34.9,65.5 34.8,65.3 34.8,65.1 C34.5,63.7 34.2,62.3 34,61 C34,60.9 34.1,60.8 34.1,60.7 C36.7,60.3 39.3,59.5 42,59.1 C42.3,60 42.8,63 42.8,63.8 Z M39.5,60.5 C38.4,60.3 38.4,60.3 35.5,61.3 C35.4,61.5 35.4,61.6 35.5,61.8 C35.7,62 36,62.2 36.3,62.1 C37.3,61.8 38.3,61.6 39.2,61.1 C39.4,61 39.6,60.8 39.5,60.5 Z M39.2,63.1 C39,63.1 38.9,63.1 38.7,63.2 C37.8,63.5 36.8,63.7 35.9,64 C35.8,64 35.7,64.1 35.7,64.1 C35.6,64.2 35.5,64.3 35.5,64.4 C35.5,64.6 35.6,64.7 35.8,64.8 C36,64.9 36.1,64.9 36.3,64.9 C37.4,64.7 38.4,64.4 39.4,64.1 C39.5,64 39.6,64 39.7,63.9 C39.8,63.8 39.8,63.7 39.8,63.7 C39.7,63.6 39.7,63.5 39.6,63.4 C39.5,63.1 39.3,63.1 39.2,63.1 Z M41.5,63.2 C41.7,63.1 41.9,63.1 42.1,63 C42.3,62.9 42.4,62.8 42.4,62.6 C42.3,62.4 42.2,62.3 42.1,62.3 C41.8,62.2 41.4,62.3 41.2,62.5 C41,62.6 41,62.8 41,62.9 C41.1,63 41.1,63.1 41.2,63.1 C41.2,63.1 41.4,63.1 41.5,63.2 Z" id="Shape_7_" fill="#FDC841"/>
          <path d="M41.2,53.4 C41.5,55 41.7,56.4 42,57.9 C40.5,58.2 39.2,58.4 37.8,58.7 C36.5,59 35.2,59.5 33.8,59.5 C33.4,58.5 33,55.9 33.1,54.7 C34.4,54.5 35.8,54.2 37.1,54 C38.5,53.9 39.8,53.4 41.2,53.4 Z M33.8,55.9 C34,56.3 34.2,56.4 34.5,56.4 C35.8,56.3 36.9,56 38.1,55.5 C38.3,55.4 38.4,55.2 38.4,55 C38,54.7 37.6,54.8 37.3,54.9 C36,55.2 34.8,55.3 33.8,55.9 Z M37.6,57.6 C37.5,57.5 37.4,57.5 37.4,57.5 C36.4,57.5 35.4,57.8 34.5,58.2 C34.3,58.3 34.2,58.5 34.3,58.8 C35.4,58.9 36.5,58.6 37.5,58.1 C37.6,58 37.6,57.8 37.6,57.6 Z M38.6,57.7 C39.4,58 39.9,57.8 40.4,57.2 C40.3,56.9 40.1,56.7 39.8,56.8 C39.3,56.9 38.8,57 38.6,57.7 Z" id="Shape_8_" fill="#FDC841"/>
          <path d="M37.3,66.2 C37.4,66.1 37.4,66 37.5,66 C39.1,65.6 40.8,65.2 42.4,64.9 C42.6,64.8 42.8,64.8 43.1,65 C43.4,66.4 43.7,67.9 43.8,69.5 C41.3,69.9 38.8,70.3 36.4,70.9 C36.1,70.8 36,70.6 35.9,70.3 C35.6,69 35.4,67.7 35.1,66.3 C35.9,66.4 36.6,66.2 37.3,66.2 C37.2,66.6 36.8,66.4 36.6,66.6 C36.4,66.8 36.3,66.9 36.4,67.1 C36.5,67.2 36.6,67.2 36.6,67.2 C37.8,67.3 38.9,67 40,66.5 C40.2,66.4 40.3,66.3 40.2,66 C39.7,65.9 39.2,65.9 38.6,66.1 C38.2,66.2 37.7,66.3 37.3,66.2 Z M37.5,70.1 C38.4,70 39.5,69.7 40.5,69.4 C40.9,69.2 41.1,69.1 41,68.8 C40.9,68.5 40.6,68.5 40.4,68.5 C40.2,68.5 40.1,68.5 39.9,68.6 C39,68.8 38.1,69 37.2,69.2 C36.7,69.3 36.5,69.6 36.6,69.8 C36.7,70.1 37,70.1 37.5,70.1 Z M43.5,68.5 C43.1,68.1 43,68.1 42.8,68.1 C42.5,68.2 42.2,68.2 42.1,68.5 C42,68.6 42,68.8 42.1,68.8 C42.2,68.9 42.3,69 42.4,69 C42.8,69.1 43.2,69 43.5,68.5 Z" id="Shape_9_" fill="#FDC841"/>
          <path d="M39.6,51 C39.5,50.8 39.5,50.7 39.5,50.5 C39.4,50.3 39.3,50.2 39.1,50.2 C38.8,50.2 38.8,50.4 38.7,50.6 C38.6,51.2 38.8,51.7 38.9,52.3 C38.9,52.5 38.9,52.5 38.4,52.6 C38.2,51.6 38,50.7 37.8,49.8 C37.5,48.1 37.2,46.5 37,44.8 C36.8,43.3 36.8,41.9 37.2,40.5 C37.4,39.7 37.5,39.5 38.1,38.9 C38.5,40.9 39,42.9 39.3,44.9 C39.5,46 39.8,47.1 40,48.2 C40.2,49.1 40.4,49.9 40.6,50.8 C40.7,51 40.6,51.1 40.5,51.3 C40.2,51.1 39.9,51 39.8,51.4 C39.8,51.3 39.7,51.2 39.6,51 Z" id="Shape_10_" fill="#FDC741"/>
          <path d="M51.3,62.3 C50.1,62.6 49,62.9 47.9,63.2 C47.5,61.4 47.3,59.7 47,58 C48,57.8 49,57.6 49.9,57.3 C51.4,58.7 51.5,60.4 51.3,62.3 Z M48.9,62 C49.1,61.9 49.2,61.9 49.3,61.8 C49.5,61.7 49.5,61.5 49.5,61.4 C49.4,61.2 49.2,61.1 49,61.1 C48.6,61.2 48.4,61.4 48.4,61.6 C48.4,61.7 48.5,61.8 48.5,61.8 C48.5,61.8 48.7,61.9 48.9,62 Z" id="Shape_11_" fill="#FCC741"/>
          <path d="M47.2,51 C46.7,51.2 46.4,51.3 45.9,51.3 C45.4,49.2 45.1,47 44.8,44.8 C44.5,42.6 43.9,40.6 43.5,38.2 C44.2,38.9 44.5,39.5 44.8,40.1 C45.4,41.2 45.6,42.4 45.9,43.5 C46.5,45.7 46.8,48 47.2,50.2 C47.3,50.4 47.2,50.7 47.2,51 Z" id="Shape_12_" fill="#F9C540"/>
          <path d="M48.5,67.4 C48.5,66.3 48.1,65.3 48,64.2 C49.2,63.9 50.3,63.7 51.5,63.4 C52.4,64.6 52.6,66 52.4,67.4 C52.3,67.7 52.2,67.9 51.9,67.9 C51.4,68 50.9,68.1 50.5,68.2 C50,68.3 49.5,68.5 49.1,68.6 C48.9,68.7 48.8,68.5 48.7,68.4 C48.8,68.2 48.6,67.9 48.9,67.7 C49.5,68 50,67.9 50.5,67.5 C50.7,67.4 50.7,67.3 50.7,67.1 C50.6,66.9 50.5,66.8 50.3,66.8 C49.8,66.8 49.3,66.9 49,67.2 C48.8,67.4 48.7,67.4 48.5,67.4 Z" id="Shape_13_" fill="#FCC741"/>
          <path d="M49.9,56.2 C48.9,56.7 47.9,56.9 46.9,57 C46.5,55.7 46.1,53.5 46.1,52.3 C47,52.1 47.9,52 48.8,51.8 C49.9,53.1 49.8,54.6 49.9,56.2 Z M47.9,55.8 C47.9,55.6 47.6,55.4 47.4,55.4 C47.1,55.4 46.9,55.6 46.9,55.9 C46.9,56.2 47.1,56.2 47.3,56.2 C47.5,56.2 47.6,56.1 47.8,56.1 C47.9,56 47.9,55.9 47.9,55.8 Z" id="Shape_14_" fill="#FBC641"/>
          <path d="M37.2,101.3 C37,100.3 37,100.3 37.5,98.9 C38.6,98.8 39.8,98.6 40.8,98.1 C41.5,98.8 41.9,99.6 42.2,100.5 C40.6,101.5 38.9,101.8 37.2,101.3 Z" id="Shape_15_" fill="#FBC641"/>
          <path d="M23.8,74.4 C22.8,74.9 22.6,74.7 22.2,74.1 C21.4,73 21.1,71.8 21.1,70.5 C21.1,69.8 21.2,69.7 21.9,69.6 C22.1,69.5 22.2,69.6 22.5,69.5 C22.9,71.1 23.4,72.7 23.8,74.4 Z" id="Shape_17_" fill="#FBC640"/>
          <path d="M18.7,58.4 C19.1,58 19.4,58.1 19.8,58.2 C20.2,59.9 20.5,61.5 20.9,63.1 C20.5,63.4 20.2,63.4 19.8,63.4 C19.4,63.1 19.4,62.7 19.2,62.4 C18.5,61 18.6,59.7 18.7,58.4 Z" id="Shape_18_" fill="#F7C340"/>
          <path d="M19.9,64.3 C20.2,64.2 20.6,64.2 21,64.2 C21.5,64.9 21.5,65.6 21.7,66.3 C21.9,67 22.3,67.7 22.2,68.4 C21.8,68.7 21.5,68.8 21.1,68.5 C19.9,67.4 19.4,66.1 19.8,64.5 C19.8,64.4 19.8,64.4 19.9,64.3 Z" id="Shape_19_" fill="#F8C440"/>
          <path d="M16,61.9 C16,62.7 16,62.7 15.6,63.2 C15.2,63.3 14.9,63 14.7,62.6 C14.2,61.8 14.1,60.9 14.3,60.1 C14.4,59.8 14.6,59.6 14.9,59.5 C15.2,59.4 15.4,59.7 15.5,59.9 C15.6,60.1 15.7,60.4 15.8,60.5 C15.7,60.8 15.5,60.9 15.4,61 C15.1,61 15,61.1 15,61.3 C15.1,61.6 15.2,61.7 15.5,61.8 C15.7,61.8 15.8,61.7 16,61.9 Z" id="Shape_20_" fill="#ECBB3F"/>
          <path d="M5.1,6.2 C5.2,6.5 5.5,6.4 5.7,6.5 C5.3,6.8 4.7,6.8 4.3,7 C3.3,7.5 2.4,8 1.6,8.6 C1.4,8.8 1.2,8.8 1.1,8.6 C1.1,8.3 1.3,8.2 1.5,8.1 C2.6,7.3 3.8,6.6 5.1,6.2 Z" id="Shape_21_" fill="#D8AC3C"/>
          <path d="M17.3,71.9 C17.7,71.9 18.1,72 18.2,72.4 C18.1,72.8 17.5,72.8 17.6,73.3 C17.7,73.7 18.2,73.6 18.5,73.9 C18.6,74.3 18.6,74.7 18.1,75 C17.5,74.9 17.3,74.4 17.1,74 C16.9,73.3 16.9,72.6 17.3,71.9 Z" id="Shape_22_" fill="#DFB13D"/>
          <path d="M17.1,69.2 C16.3,69.1 16.1,68.6 16,68.1 C15.8,67.3 15.7,66.6 16.5,66 C16.9,66.3 17.1,66.6 17.1,67 C16.9,67.3 16.4,67.2 16.5,67.7 C16.6,68.2 17,68.2 17.3,68.3 C17.3,68.5 17.3,68.8 17.1,69.2 Z" id="Shape_23_" fill="#E4B53E"/>
          <path d="M41,96.1 C40.2,97.5 39,97.6 37.9,97.7 C37.5,97.8 36.9,97.9 36.6,97.2 C37.4,97 38.1,97.1 38.7,96.9 C39.5,96.7 40.2,96.4 41,96.1 Z" id="Shape_24_" fill="#E3B53E"/>
          <path d="M48.5,67.4 C48.7,67.5 48.8,67.5 48.9,67.3 C49.3,66.9 49.8,66.9 50.2,66.9 C50.4,66.9 50.5,67 50.6,67.2 C50.7,67.4 50.5,67.5 50.4,67.6 C49.9,67.9 49.4,68 48.8,67.8 C48.6,68.1 48.7,68.3 48.6,68.5 C48.3,68.1 48.5,67.7 48.5,67.4 Z" id="Shape_25_" fill="#272111"/>
          <path d="M39.6,51 C39.8,51.2 39.9,51.3 40,51.5 C40.1,51.8 40.1,52.1 40.2,52.4 C39.9,52.6 39.8,52.5 39.7,52.3 C39.5,51.9 39.5,51.4 39.6,51 Z" id="Shape_26_" fill="#AC8B37"/>
          <path d="M28.1,5.9 C28,5.7 27.9,5.5 27.9,5.4 C28.2,5.4 28.5,5.5 28.7,5.5 C28.7,5.9 28.4,6 28.1,5.9 Z" id="Shape_27_" fill="#574A2A"/>
          <path d="M26.3,72.7 C26.8,73.3 26.9,74.1 27.2,74.7 C27.7,76.1 28.2,77.5 28.8,78.9 C29.4,80.1 30.1,81.2 30.9,82.3 C31.2,82.7 31.6,83.1 31.7,83.7 C31.8,84 31.6,84.1 31.4,84.2 C30.5,83.5 29.8,82.6 29.2,81.7 C28.1,80 27.3,78.3 26.7,76.4 C26.4,75.5 26,74.6 25.9,73.6 C25.8,73.1 25.8,72.8 26.3,72.7 Z" id="Shape_28_" fill="#070603"/>
          <path d="M29.3,77.1 C29.4,77.2 29.5,77.2 29.6,77.3 C29.8,77.5 29.9,77.7 30,77.9 C30.5,79 31.1,80 31.8,80.9 C31.9,81.1 32,81.2 32.1,81.3 C32.2,81.5 32.2,81.7 32,81.9 C31.8,82.1 31.6,82 31.5,81.8 C31.4,81.7 31.3,81.5 31.2,81.4 C30.3,80.3 29.7,79.1 29.2,77.9 C29,77.6 29,77.5 29,77.3 C29,77.2 29.1,77.1 29.3,77.1 Z" id="Shape_29_" fill="#110E08"/>
          <path d="M28.2,74.5 C28.3,74.6 28.4,74.6 28.5,74.7 C28.8,75.2 29,75.6 29,76.1 C29,76.3 28.7,76.4 28.5,76.3 C28,75.9 27.8,75.2 28,74.7 C28,74.6 28.1,74.5 28.2,74.5 Z" id="Shape_30_" fill="#241E10"/>
          <path d="M25.5,71.5 C25.3,71.5 25.1,71.4 25.1,71.3 C24.8,70.7 24.8,70 25.2,69.9 C25.3,69.8 25.5,69.9 25.6,70 C25.9,70.3 25.9,70.7 26,71 C25.9,71.1 25.8,71.4 25.5,71.5 Z" id="Shape_31_" fill="#1E190D"/>
          <path d="M24.3,67.8 C24.4,67.7 24.4,67.6 24.5,67.5 C24.6,67.4 24.7,67.3 24.8,67.4 C24.9,67.5 25,67.6 25.1,67.7 C25.2,68 25.3,68.3 25,68.5 C24.9,68.6 24.8,68.6 24.7,68.6 C24.2,68.4 24.2,68.2 24.3,67.8 Z" id="Shape_32_" fill="#2F2815"/>
          <path d="M28.2,38.3 C27.8,38.2 27.7,37.9 27.7,37.6 C27.7,37 27.6,36.4 27.7,35.9 C28.2,34 28.9,32.2 30.1,30.6 C30.6,30.1 31.1,29.7 31.9,29.7 C32.2,29.7 32.4,29.8 32.5,30 C32.6,30.3 32.4,30.5 32.2,30.6 C30.6,31.3 30,32.8 29.4,34.2 C29,35.1 28.8,36.1 28.7,37.1 C28.6,37.5 28.5,37.9 28.2,38.3 Z" id="Shape_33_" fill="#FEFDFA"/>
          <path d="M28.4,40.7 C28.4,41 28.4,41.1 28.4,41.2 C28.4,41.8 28.3,42.2 28,42.1 C27.6,42 27.6,41.6 27.5,41.3 C27.2,40.7 27.5,40.3 27.7,39.8 C27.8,39.6 27.9,39.5 28.1,39.6 C28.2,39.7 28.3,39.8 28.4,39.9 C28.4,40.2 28.4,40.5 28.4,40.7 Z" id="Shape_34_" fill="#FEFBF3"/>
          <path d="M12.1,4.9 C12.2,4.8 12.3,4.7 12.4,4.7 C13.6,4.2 14.8,3.9 16.1,3.6 C17.8,3.3 19.4,3 21,2.8 C21.2,2.8 21.3,2.9 21.5,2.9 C21.6,3.2 21.5,3.4 21.3,3.4 C21,3.5 20.7,3.6 20.5,3.6 C19,4 17.6,4.3 16.2,4.5 C15,4.7 14,5 12.9,5.3 C12.5,5.4 12.3,5.3 12.1,4.9 Z" id="Shape_35_" fill="#FEFCF4"/>
          <path d="M7.7,5.9 C8,5.9 8.2,6 8.2,6.2 C8.2,6.7 7.5,6.9 7.1,6.7 C6.9,6.5 6.9,6.3 7,6.2 C7.2,5.9 7.5,5.9 7.7,5.9 Z" id="Shape_36_" fill="#262011"/>
          <path d="M27.1,2.7 C27.2,2.6 27.3,2.4 27.3,2.4 C27.6,2.3 27.8,2.3 28.1,2.5 C28.3,2.6 28.3,2.9 28.2,3 C27.9,3.2 27.6,3.2 27.3,3.1 C27.2,2.9 27.2,2.8 27.1,2.7 Z" id="Shape_37_" fill="#272112"/>
          <path d="M9.7,5.7 C9.6,6 9.4,6.1 9.2,6.1 C9,6.1 8.9,6 8.8,5.8 C8.8,5.6 8.8,5.5 9,5.4 C9.2,5.3 9.4,5.2 9.6,5.3 C9.7,5.4 9.8,5.5 9.7,5.7 Z" id="Shape_38_" fill="#42371A"/>
          <path d="M27.3,4.4 C27,4.4 26.8,4.2 26.8,4 C26.9,3.7 27.1,3.7 27.3,3.7 C27.5,3.7 27.7,3.7 27.8,4 C27.8,4.2 27.5,4.4 27.3,4.4 Z" id="Shape_39_" fill="#44381B"/>
          <path d="M26.2,2.8 C26.2,3 25.9,3.1 25.7,3 C25.5,2.9 25.3,2.8 25.4,2.6 C25.5,2.4 25.7,2.2 26,2.3 C26.1,2.4 26.2,2.6 26.2,2.8 Z" id="Shape_40_" fill="#2D2615"/>
          <path d="M8.7,7.5 C8.6,7.7 8.5,7.9 8.3,7.9 C8.1,7.9 7.9,7.7 7.9,7.5 C7.9,7.3 8.1,7.1 8.3,7.1 C8.5,7.2 8.6,7.3 8.7,7.5 Z" id="Shape_41_" fill="#5C4C25"/>
          <path d="M39.5,83 C40.5,82.4 41.6,82.9 42.4,82.2 C42.8,82.4 42.8,82.6 42.6,82.8 C42.2,83.4 41.5,83.5 40.9,83.6 C40.4,83.7 39.9,83.6 39.5,83 Z" id="Shape_42_" fill="#FEF7E3"/>
          <path d="M39.6,84.4 C39.9,84.4 40,84.5 40.1,84.7 C40.3,85.1 40.4,85.5 40.5,85.8 C40.6,86 40.5,86.2 40.2,86.3 C40,86.4 39.8,86.2 39.7,86 C39.7,85.9 39.6,85.9 39.6,85.9 C39.5,85.4 39.4,85 39.6,84.4 Z" id="Shape_43_" fill="#292212"/>
          <path d="M41.3,84.4 C41.4,84.5 41.6,84.5 41.6,84.6 C41.8,85 42,85.4 42,85.8 C42,86 41.7,86.2 41.5,86.1 C41,85.8 40.8,85.1 41.1,84.6 C41.1,84.4 41.2,84.4 41.3,84.4 Z" id="Shape_44_" fill="#211C0F"/>
          <path d="M43.4,84.5 C43.4,84.7 43.2,84.9 43,84.9 C42.7,84.8 42.6,84.6 42.7,84.3 C42.7,84.1 42.8,84 43,83.9 C43.1,83.9 43.4,84.2 43.4,84.5 Z" id="Shape_45_" fill="#4B3F20"/>
          <path d="M39.5,60.5 C39.6,60.8 39.4,61 39.2,61.1 C38.2,61.6 37.2,61.8 36.3,62.1 C36,62.2 35.7,62 35.5,61.8 C35.3,61.7 35.4,61.5 35.5,61.3 C38.4,60.3 38.4,60.3 39.5,60.5 Z" id="Shape_46_" fill="#FEFBF1"/>
          <path d="M39.2,63.1 C39.3,63.1 39.5,63.1 39.6,63.2 C39.7,63.3 39.8,63.4 39.8,63.5 C39.8,63.6 39.8,63.7 39.7,63.7 C39.6,63.8 39.5,63.9 39.4,63.9 C38.3,64.2 37.3,64.6 36.3,64.7 C36.1,64.7 36,64.7 35.8,64.6 C35.6,64.5 35.5,64.4 35.5,64.2 C35.5,64.1 35.6,64 35.7,63.9 C35.8,63.8 35.9,63.8 35.9,63.8 C36.8,63.5 37.8,63.3 38.7,63 C38.9,63.1 39,63.1 39.2,63.1 Z" id="Shape_47_" fill="#120F08"/>
          <path d="M41.5,63.2 C41.3,63.1 41.2,63.1 41.1,63.1 C41.1,63 41.1,63 41,62.9 C40.9,62.7 41,62.6 41.1,62.6 C41.4,62.3 41.7,62.3 42,62.4 C42.2,62.5 42.3,62.6 42.3,62.7 C42.4,62.9 42.2,63 42,63.1 C41.9,63.1 41.7,63.1 41.5,63.2 Z" id="Shape_48_" fill="#1F1A0F"/>
          <path d="M33.8,55.9 C34.9,55.2 36.1,55.2 37.1,54.9 C37.5,54.8 37.9,54.7 38.2,55 C38.3,55.3 38.1,55.5 37.9,55.5 C36.7,56 35.5,56.3 34.3,56.4 C34.2,56.4 33.9,56.3 33.8,55.9 Z" id="Shape_49_" fill="#FEFCF4"/>
          <path d="M37.6,57.6 C37.7,57.8 37.7,58 37.5,58.1 C36.5,58.6 35.4,58.9 34.3,58.8 C34.2,58.4 34.2,58.2 34.5,58.2 C35.5,57.9 36.4,57.6 37.4,57.5 C37.4,57.5 37.5,57.6 37.6,57.6 Z" id="Shape_50_" fill="#120F09"/>
          <path d="M38.6,57.7 C38.9,57 39.3,56.9 39.8,56.8 C40.1,56.7 40.3,56.9 40.4,57.2 C39.9,57.7 39.4,57.9 38.6,57.7 Z" id="Shape_51_" fill="#3B3017"/>
          <path d="M37.5,70.1 C37,70.1 36.7,70.2 36.6,69.8 C36.5,69.5 36.7,69.3 37.2,69.2 C38.1,69 39,68.8 39.9,68.6 C40.1,68.5 40.2,68.5 40.4,68.5 C40.7,68.5 40.9,68.5 41,68.8 C41.1,69 40.9,69.2 40.5,69.4 C39.5,69.7 38.4,70 37.5,70.1 Z" id="Shape_52_" fill="#0F0D07"/>
          <path d="M37.3,66.2 C37.8,66.3 38.2,66.2 38.6,66 C39.1,65.8 39.7,65.8 40.2,65.9 C40.3,66.2 40.2,66.4 40,66.4 C38.9,66.9 37.8,67.1 36.6,67.1 C36.5,67.1 36.4,67 36.4,67 C36.3,66.7 36.4,66.6 36.6,66.5 C36.8,66.4 37.2,66.6 37.3,66.2 Z" id="Shape_53_" fill="#FDF7E7"/>
          <path d="M43.5,68.5 C43.2,69 42.8,69.1 42.3,69 C42.2,69 42.1,68.8 42,68.8 C41.9,68.7 41.9,68.5 42,68.5 C42.2,68.3 42.5,68.2 42.7,68.1 C42.9,68.1 43,68.2 43.5,68.5 Z" id="Shape_54_" fill="#352C16"/>
          <path d="M48.9,62 C48.7,61.9 48.6,61.9 48.5,61.9 C48.4,61.8 48.4,61.8 48.4,61.7 C48.3,61.5 48.6,61.2 49,61.2 C49.2,61.1 49.4,61.2 49.5,61.5 C49.6,61.7 49.5,61.9 49.3,61.9 C49.2,61.9 49,61.9 48.9,62 Z" id="Shape_55_" fill="#3C321B"/>
          <path d="M47.9,55.8 C47.8,55.9 47.8,56 47.8,56 C47.6,56.1 47.5,56.1 47.3,56.1 C47.1,56.1 46.9,56.1 46.9,55.8 C46.9,55.5 47.1,55.3 47.4,55.3 C47.7,55.4 47.9,55.6 47.9,55.8 Z" id="Shape_56_" fill="#342C17"/>
        </g>
      </g>
    </g>
  </g>
</svg>