<?xml version="1.0" encoding="utf-8"?>
<!-- Generator: Adobe Illustrator 18.0.0, SVG Export Plug-In . SVG Version: 6.00 Build 0)  -->
<!DOCTYPE svg PUBLIC "-//W3C//DTD SVG 1.1//EN" "http://www.w3.org/Graphics/SVG/1.1/DTD/svg11.dtd">
<svg version="1.1" id="Layer_2" xmlns="http://www.w3.org/2000/svg" xmlns:xlink="http://www.w3.org/1999/xlink" x="0px" y="0px"
	 viewBox="0 0 51.5 52.7" enable-background="new 0 0 51.5 52.7" xml:space="preserve">
<g>
	<path fill="#F7941E" d="M49,13.9c-0.7-1.6-1.5-3.2-2.5-4.7c-2-2.8-4.7-4.7-7.7-6.2c-3.2-1.6-6.6-2.6-10.2-2.7
		C22.4,0.2,16.1,0.1,9.9,0C8.8,0,7.7,0.1,6.7,0.3c-0.4,0-0.8,0.2-1,0.4C3.9,2.3,2.1,4,0.3,5.7C0.2,5.8,0.2,5.9,0.2,6.1
		C0.1,6.9,0,7.8,0,8.6c0,0.2,0.2,0.5,0.4,0.5c1.2,0.1,2.5,0.2,3.7,0.1c1.3-0.1,1.7,0.4,1.5,1.6c-0.1,0.7-0.1,1.4-0.1,2.1
		c0,1.1,0.2,2.2,0.2,3.3c-0.1,1.8-0.4,3.5-0.4,5.3c-0.1,4.6-0.1,9.2-0.1,13.8c0,3.1,0.1,6.2,0.2,9.3c0,1.1-0.3,1.8-1.2,2.4
		c-1.2,0.7-2.2,1.6-3.3,2.5c-0.2,0.2-0.4,0.5-0.4,0.8c0,0.5,0.1,1.1,0.2,1.6c0,0.4,0.2,0.7,0.8,0.7c1.5-0.1,3-0.2,4.5-0.3
		c2.9-0.1,5.7-0.2,8.6-0.2c3.1,0,6.1,0.2,9.6,0.3c1.2-0.3,2.8-0.7,4.3-1.2c2-0.8,4.1-1.7,6-2.8c2.7-1.7,5.2-3.5,7.7-5.5
		c2.7-2.1,5.1-4.5,6.5-7.7c1.2-2.7,2.3-5.4,2.5-8.4c0.1-1.2,0.4-2.3,0.3-3.5C51.2,20.1,50.2,16.9,49,13.9z M50.8,24.1
		c-0.4,4.6-1.6,9-4,12.9c-0.7,1.1-1.7,2.1-2.7,3.1c-1.6,1.5-3.1,3.1-4.9,4.3c-1.4,0.9-3.2,1.4-4.9,2c-2.5,0.8-5.1,0.3-7.6,0.3
		c-1,0-2.1,0-3.1,0c-3.7,0.1-7.5,0.1-11.2,0.2c-1.5,0-2.9,0.2-4.4,0.3c-0.5,0-0.7-0.1-0.8-0.6c-0.1-0.5,0.3-0.6,0.6-0.7
		c0.3-0.1,0.7-0.1,1-0.2c1.4-0.4,2-1.1,2-2.5c0-3.4,0-6.7,0.2-10.1c0.2-6.5,0.2-12.9-0.3-19.4c-0.1-1.5,0-3,0-4.6c0-1.7,0-3.3-0.1-5
		c0-1.1-0.7-1.7-1.8-1.7c-0.7,0-1.4,0-2.2,0C6.3,1,6.4,1,7.5,0.9c1.4-0.1,2.8-0.3,4.2-0.3c3.7,0,7.4,0.1,11.1,0.3
		c2.9,0.1,5.7,0.1,8.6,0.4c1.5,0.2,3,0.7,4.5,1.2c3,0.9,5.5,2.6,7.8,4.7c2.4,2.2,4,5,5,8c0.9,2.5,1.7,5,2,7.7
		C50.8,23.3,50.8,23.7,50.8,24.1z"/>
	<path fill="#FFFFFF" d="M50.7,22.9c-0.2-2.7-1.1-5.2-2-7.7c-1.1-3-2.6-5.8-5-8c-2.3-2-4.8-3.8-7.8-4.7c-1.5-0.4-3-1-4.5-1.2
		c-2.9-0.3-5.7-0.3-8.6-0.4c-3.7-0.1-7.4-0.2-11.1-0.3c-1.4,0-2.8,0.2-4.2,0.3C6.4,1,6.3,1,6.5,2.3c0.8,0,1.5,0,2.2,0
		c1.2,0,1.8,0.6,1.8,1.7c0,1.7,0,3.3,0.1,5c0,1.5-0.1,3.1,0,4.6c0.5,6.5,0.5,12.9,0.3,19.4c-0.1,3.4-0.1,6.7-0.2,10.1
		c0,1.3-0.6,2.1-2,2.5c-0.3,0.1-0.7,0.2-1,0.2c-0.4,0.1-0.7,0.1-0.6,0.7c0.1,0.5,0.3,0.7,0.8,0.6c1.5-0.1,2.9-0.2,4.4-0.3
		c3.7-0.1,7.5-0.1,11.2-0.2c1,0,2.1,0,3.1,0c2.5,0,5.1,0.5,7.6-0.3c1.7-0.5,3.4-1,4.9-2c1.8-1.2,3.4-2.8,4.9-4.3
		c1-0.9,2-1.9,2.7-3.1c2.4-4,3.6-8.3,4-12.9C50.8,23.7,50.8,23.3,50.7,22.9z M43,9.8c0.4,0.5,0.8,0.9,1.1,1.4
		c1.4,2.2,2.4,4.5,2.6,7.1c0.1,0.9,0.4,1.8,0.6,2.8c0,0.2-0.1,0.5-0.2,0.8c-0.2-0.2-0.4-0.4-0.5-0.7c-0.4-1.6-0.6-3.2-1-4.8
		c-0.3-1.2-0.8-2.3-1.3-3.4c-0.4-0.9-1-1.9-1.5-2.8c0-0.1-0.1-0.2-0.1-0.3C42.9,9.9,43,9.9,43,9.8z M13.5,4.3
		c0.2,0.9,0.4,1.9,0.5,2.8c0.1,2.8,0.2,5.6,0.2,8.4c0,1.7-0.2,3.4-0.3,5c0,0.5,0.1,1,0,1.5c0,0.3-0.2,0.5-0.5,0.7
		c-0.7-3.1,0.2-6.2,0-9.2c-0.1-3.1-0.2-6.1-0.3-9.2C13.3,4.4,13.4,4.3,13.5,4.3z M14.2,28.2c0,3.7-0.1,7.3-0.2,11
		c0,1.5-0.2,2.9-0.3,4.4c0,0.1-0.1,0.2-0.1,0.3c0,0-0.1,0-0.2,0c0-0.2-0.1-0.4-0.1-0.6c0-1.9,0.1-3.8,0.1-5.7c0-3.1,0.1-6.2,0.2-9.3
		c0-0.4,0.2-1.1,0.2-1.1C14.5,27.3,14.2,27.9,14.2,28.2z M13.6,25.9c-0.3,0-0.6-0.4-1.1-0.8c0.4-0.5,0.6-0.9,0.9-1
		c0.5-0.1,0.8,0.3,0.8,0.8C14.3,25.4,14.2,26,13.6,25.9z M37.9,41.4c-1.2,1.2-2.6,2-4.2,2.7c-4.1,1.7-8.3,1.5-12.6,1.3
		c-0.9-0.1-1.8-0.1-2.7-0.2c-1.4-0.3-1.9-0.8-1.9-2.1c0.1-1.3,0-2.6,0-3.9h-0.1c0-1,0-2.1,0-3.1c0.1-3.8,0.2-7.5,0.2-11.3
		c0-3.7,0-7.5-0.1-11.2c0-2.7,0-5.3-0.2-8c-0.1-2.1,1.2-3.2,3-3.2c3.5,0,7-0.6,10.5,0.1c2.2,0.4,4.3,1.1,6,2.5
		c0.7,0.6,1.6,1,2.1,1.7c1,1.3,2,2.7,2.8,4.1c1,1.7,1.9,3.5,2.6,5.4c1,2.7,1.3,5.6,1.1,8.5c-0.2,1.7-0.5,3.4-0.7,5.1
		c-0.3,2.4-1.3,4.4-2.4,6.5C40.6,38.1,39.4,39.9,37.9,41.4z M43.6,37.3c-0.2,0.2-0.4,0.3-0.7,0.4c2.2-3.5,3.8-7.2,4.2-11.3
		c0.1,0,0.2,0,0.3-0.1c0.1,0.3,0.3,0.6,0.2,0.9C47.1,30.9,46,34.3,43.6,37.3z M47.6,24.7c-0.2-0.2-0.5-0.4-0.9-0.7
		c0.3-0.4,0.5-0.8,0.7-0.8c0.5-0.1,0.8,0.3,0.7,0.8C48.2,24.2,47.8,24.5,47.6,24.7z"/>
	<path fill="#F7941E" d="M43.6,16.2c-0.7-1.9-1.6-3.7-2.6-5.4c-0.8-1.5-1.8-2.8-2.8-4.1C37.7,6,36.8,5.5,36.1,5
		c-1.8-1.4-3.9-2.1-6-2.5c-3.5-0.7-7-0.1-10.5-0.1c-1.8,0-3.1,1.1-3,3.2c0.1,2.7,0.1,5.3,0.2,8c0,3.7,0.1,7.5,0.1,11.2
		c0,3.8-0.2,7.5-0.2,11.3c0,1,0,2,0,3.1h0.1c0,1.3,0,2.6,0,3.9c-0.1,1.4,0.4,1.9,1.9,2.1c0.9,0.2,1.8,0.2,2.7,0.2
		c4.3,0.3,8.5,0.4,12.6-1.3c1.6-0.6,3-1.4,4.2-2.7c1.5-1.5,2.7-3.3,3.7-5.2c1-2.1,2.1-4.1,2.4-6.5c0.2-1.7,0.6-3.4,0.7-5.1
		C44.9,21.8,44.7,18.9,43.6,16.2z M40,24.9c-0.1,2.7-0.1,5.5-0.6,8.1c-0.5,3-1.5,6-3.7,8.3c-1.9,2.1-4.5,3.3-7.4,3.4
		c-2.9,0.1-5.8,0-8.8,0c-0.4,0-0.7-0.1-1.1-0.2c-0.7-0.2-1.1-0.6-1.1-1.4c0.1-6.4,0.2-12.8,0.2-19.2c0-4.8-0.1-9.6-0.2-14.5
		c0-0.3,0-0.5,0-0.7c3.1,0,6.1,0.1,9.1,0.1c2.3,0,4.3,0.5,6.2,1.9c1.6,1.2,3.3,2.3,4.3,4c1,1.8,2,3.8,2.7,5.8
		C40,21.9,40,23.5,40,24.9z"/>
	<path fill="#F7941E" d="M13.9,20.6c0,0.5,0.1,1,0,1.5c0,0.3-0.2,0.5-0.5,0.7c-0.7-3.1,0.2-6.2,0-9.2c-0.1-3.1-0.2-6.1-0.3-9.2
		c0.1,0,0.2,0,0.3,0c0.2,0.9,0.4,1.9,0.5,2.8c0.1,2.8,0.2,5.6,0.2,8.4C14.2,17.2,14,18.9,13.9,20.6z"/>
	<path fill="#F7941E" d="M14.2,28.2c0,3.7-0.1,7.3-0.2,11c0,1.5-0.2,2.9-0.3,4.4c0,0.1-0.1,0.2-0.1,0.3c0,0-0.1,0-0.2,0
		c0-0.2-0.1-0.4-0.1-0.6c0-1.9,0.1-3.8,0.1-5.7c0-3.1,0.1-6.2,0.2-9.3c0-0.4,0.2-1.1,0.2-1.1C14.5,27.3,14.2,27.9,14.2,28.2z"/>
	<path fill="#F7941E" d="M47.3,21.1c0,0.2-0.1,0.5-0.2,0.8c-0.2-0.2-0.4-0.4-0.5-0.7c-0.4-1.6-0.6-3.2-1-4.8
		c-0.3-1.2-0.8-2.3-1.3-3.4c-0.4-0.9-1-1.9-1.5-2.8c0-0.1-0.1-0.2-0.1-0.3C42.9,9.9,43,9.9,43,9.8c0.4,0.5,0.8,0.9,1.1,1.4
		c1.4,2.2,2.4,4.5,2.6,7.1C46.8,19.3,47.2,20.2,47.3,21.1z"/>
	<path fill="#F7941E" d="M47.7,27.2c-0.6,3.7-1.7,7.1-4.1,10c-0.2,0.2-0.4,0.3-0.7,0.4c2.2-3.5,3.8-7.2,4.2-11.3
		c0.1,0,0.2,0,0.3-0.1C47.5,26.6,47.7,27,47.7,27.2z"/>
	<path fill="#F7941E" d="M14.3,24.9c0,0.4-0.1,1-0.7,0.9c-0.3,0-0.6-0.4-1.1-0.8c0.4-0.5,0.6-0.9,0.9-1C14,24,14.3,24.4,14.3,24.9z"
		/>
	<path fill="#F7941E" d="M48.2,23.9c0,0.3-0.4,0.5-0.6,0.8c-0.2-0.2-0.5-0.4-0.9-0.7c0.3-0.4,0.5-0.8,0.7-0.8
		C48,23.1,48.3,23.5,48.2,23.9z"/>
</g>
</svg>
