<svg version="1.1" width="131" height="131" viewBox="-1 -1 131 131" xmlns="http://www.w3.org/2000/svg" xmlns:xlink="http://www.w3.org/1999/xlink">
  <!-- Exported by Scratch - http://scratch.mit.edu/ -->
  <g id="ID0.9967376780696213" transform="matrix(1, 0, 0, 1, 0, -0.25)">
    <g id="Page-1">
      <g id="andie-a-[sports,basketball,people,wheelchair,handicap,handicapable,alex-eben-meyer]">
        <path id="Fill-1" fill="#A0783C" stroke="none" stroke-width="1" d="M 116 82.300 C 115.700 81.300 117.400 80.300 119 80.200 C 120.600 80.100 122.100 81 122.300 81 C 122.400 81.700 121.500 83.200 121.500 83.200 C 121.500 83.200 120.700 82.600 119.700 82.600 C 118.100 82.500 116.100 82.900 116 82.300 " transform="matrix(1, 0, 0, 1, -1, 0.25)"/>
        <g id="Group">
          <g id="Wheel">
            <path id="Fill-3" fill="#006482" stroke="none" stroke-width="1" d="M 0.800 30.200 C 0.600 31.600 0.300 32.600 0.700 33.900 C 1 34 27.900 28.900 27.900 28.900 L 26.700 25.600 C 26.700 25.500 1.900 30 0.800 30.200 " transform="matrix(1, 0, 0, 1, 95, 73.25)"/>
            <path id="Fill-5" fill="#008CB4" stroke="none" stroke-width="1" d="M 20.600 21.900 L 23.500 35.200 L 19.500 36.100 L 16.100 23 L 20.600 21.900 " transform="matrix(1, 0, 0, 1, 95, 73.25)"/>
            <path id="Fill-7" fill="#000000" stroke="none" stroke-width="1" d="M 14.100 0.800 C 12.500 1.200 13.100 1.600 13.800 5.300 C 15 12 23.300 38.600 24.600 43 C 25.900 47.200 26.900 51.700 28.900 55.700 C 29.600 56.400 30.400 56.700 31.300 56.300 C 32.900 55.100 31.800 51.300 30.600 48 C 29.800 45.800 17.800 5.300 17.800 5.300 C 17.800 5.300 16.900 0.100 14.100 0.800 " transform="matrix(1, 0, 0, 1, 95, 73.25)"/>
            <path id="Fill-9" fill="#000000" stroke="none" stroke-width="1" d="M 20.500 5.700 C 20.100 5.800 20.200 5.900 20.400 6.900 C 20.700 8.800 32 43.900 32.300 45.200 C 32.600 46.400 32.900 47.600 33.400 48.700 C 33.600 48.900 33.800 49 34.100 48.900 C 34.500 48.600 34.300 46.700 34 45.800 C 33.800 45.100 22.100 7.300 22.100 7.300 C 22.100 7.300 21.300 5.500 20.500 5.700 " transform="matrix(1, 0, 0, 1, 95, 73.25)"/>
          </g>
          <g id="Chair">
            <path id="Fill-35" fill="#006482" stroke="none" stroke-width="1" d="M 22.700 17.800 C 22.700 17.800 24.200 4.700 25.100 3 C 26.100 1.300 64.900 1.400 64.900 1.400 L 68 16.600 L 22.700 17.800 Z " transform="matrix(1, 0, 0, 1, 40, 73.25)"/>
            <path id="Fill-37" fill="#006482" stroke="none" stroke-width="1" d="M 65.400 29.900 C 64.700 34.500 62.400 47.400 62.400 47.400 C 62.400 47.400 62.300 47.900 62.200 48.400 C 61.400 48.300 60.700 48.400 60.700 48.400 C 60.700 48.400 33.200 48.600 31.700 48.500 C 30.600 48.400 29.500 48.400 28.600 48.500 C 28.500 47.800 28.400 47.300 28.400 47.300 C 28.400 47.300 26.100 34.400 25.400 29.800 L 22.500 29.800 C 22.700 30.800 22.900 31.900 23 32.900 C 23.500 35.900 24.900 44.200 26 48.400 C 26.100 48.900 26.700 51 27.200 51 C 30 51.500 32.900 51.200 35.800 51.200 C 38.800 51.200 63.200 50.900 63.200 50.900 C 63.200 50.900 64 50.700 64.600 48.400 C 65.800 44.100 67.200 35.800 67.600 32.900 C 67.800 31.900 67.900 30.800 68.100 29.800 L 65.400 29.800 L 65.400 29.900 Z " transform="matrix(1, 0, 0, 1, 40, 73.25)"/>
            <path id="Fill-39" fill="#000000" stroke="none" stroke-width="1" d="M 59.100 56.600 C 58.400 56.600 58.100 55.600 58.100 54.400 C 58.100 53.300 58 53 58.300 51.900 C 58.500 51.700 58.800 51.600 59.200 51.600 C 60 51.800 60 52.700 60 53.500 C 60 53.600 60.300 56.600 59.100 56.600 " transform="matrix(1, 0, 0, 1, 40, 73.25)"/>
            <g id="Fill-41-Clipped">
              <path id="Fill-41" fill="#008CB4" stroke="none" stroke-width="1" d="M 0 6 L 4.100 6 L 4.100 0.800 L 0 0.800 L 0 6 " transform="matrix(1, 0, 0, 1, 97, 120.25)"/>
            </g>
            <g id="Fill-43-Clipped">
              <path id="Fill-43" fill="#000000" stroke="none" stroke-width="1" d="M 1.900 5.600 C 1.200 5.600 0.900 4.600 0.900 3.400 C 0.900 2.300 0.800 2 1.100 0.900 C 1.300 0.700 1.600 0.600 2 0.600 C 2.800 0.800 2.800 1.700 2.800 2.500 C 2.800 2.600 3.200 5.600 1.900 5.600 " transform="matrix(1, 0, 0, 1, 70, 124.25)"/>
            </g>
            <g id="Fill-44-Clipped">
              <path id="Fill-44" fill="#008CB4" stroke="none" stroke-width="1" d="M 0.800 6 L 4.900 6 L 4.900 0.800 L 0.800 0.800 L 0.800 6 " transform="matrix(1, 0, 0, 1, 69, 120.25)"/>
            </g>
            <g id="Fill-45-Clipped">
              <path id="Fill-45" fill="#006482" stroke="none" stroke-width="1" d="M 6 12.900 L 3.600 13.400 L 0.700 0.800 L 3.100 0.300 L 6 12.900 " transform="matrix(1, 0, 0, 1, 62, 90.25)"/>
            </g>
            <g id="Fill-46-Clipped">
              <path id="Fill-46" fill="#006482" stroke="none" stroke-width="1" d="M 2.900 18.200 L 0.500 17.700 L 4.200 0.500 L 6.600 1 L 2.900 18.200 " transform="matrix(1, 0, 0, 1, 56, 101.25)"/>
            </g>
            <g id="Fill-47-Clipped">
              <path id="Fill-47" fill="#006482" stroke="none" stroke-width="1" d="M 4.300 18.200 L 6.700 17.700 L 3 0.500 L 0.600 1 L 4.300 18.200 " transform="matrix(1, 0, 0, 1, 107, 101.25)"/>
            </g>
            <g id="Fill-48-Clipped">
              <path id="Fill-48" fill="#006482" stroke="none" stroke-width="1" d="M 2.500 13.400 L 0.100 13 L 2.300 0.300 L 4.700 0.700 L 2.500 13.400 " transform="matrix(1, 0, 0, 1, 103, 90.25)"/>
            </g>
            <g id="Fill-49-Clipped">
              <path id="Fill-49" fill="#006482" stroke="none" stroke-width="1" d="M 27.200 5.200 C 27.400 6.600 27.700 7.600 27.300 8.900 C 27 9 0.100 3.900 0.100 3.900 L 1.300 0.600 C 1.300 0.500 26.100 5 27.200 5.200 " transform="matrix(1, 0, 0, 1, 47, 98.25)"/>
            </g>
            <g id="Fill-50-Clipped">
              <path id="Fill-50" fill="#008CB4" stroke="none" stroke-width="1" d="M 3.400 0.900 L 0.400 14.200 L 4.400 15.100 L 7.900 2 L 3.400 0.900 " transform="matrix(1, 0, 0, 1, 51, 94.25)"/>
            </g>
            <g id="Fill-51-Clipped">
              <path id="Fill-51" fill="#000000" stroke="none" stroke-width="1" d="M 18.900 0.800 C 20.500 1.200 19.900 1.600 19.200 5.300 C 18 12 9.700 38.600 8.300 43 C 7 47.200 6 51.700 4 55.700 C 3.300 56.400 2.500 56.700 1.600 56.300 C 0 55.100 1.100 51.300 2.300 48 C 3.100 45.900 15.100 5.400 15.100 5.400 C 15.100 5.400 16.100 0.100 18.900 0.800 " transform="matrix(1, 0, 0, 1, 42, 73.25)"/>
            </g>
            <g id="Fill-52-Clipped">
              <path id="Fill-52" fill="#000000" stroke="none" stroke-width="1" d="M 14.500 0.700 C 14.900 0.800 14.800 0.900 14.600 1.900 C 14.300 3.800 3 38.900 2.700 40.200 C 2.400 41.400 2.100 42.600 1.600 43.700 C 1.400 43.900 1.200 44 0.900 43.900 C 0.500 43.600 0.700 41.700 1 40.800 C 1.200 40.200 12.900 2.400 12.900 2.400 C 12.900 2.400 13.700 0.500 14.500 0.700 " transform="matrix(1, 0, 0, 1, 40, 78.25)"/>
            </g>
            <g id="Fill-53-Clipped">
              <path id="Fill-53" fill="#006482" stroke="none" stroke-width="1" d="M 0.100 0.200 L 0.100 3.900 C 3.900 3.900 12.600 3.900 20.800 3.900 L 20.800 0.100 C 13.700 0.100 5.800 0.100 0.100 0.200 " transform="matrix(1, 0, 0, 1, 75, 103.25)"/>
            </g>
            <g id="Fill-54-Clipped">
              <path id="Fill-54" fill="#008CB4" stroke="none" stroke-width="1" d="M 48.100 0.700 C 40.800 0.300 6.200 0.600 3.300 1.600 C 1 1.400 0.300 2.700 1.200 4.600 C 2.100 5.400 3.700 6 5 5.700 C 12.400 5.500 37.800 5.600 44.400 5.400 C 45.200 5.700 48.400 5.200 49.200 4.700 C 49.300 3.700 50.100 0.300 48.100 0.700 " transform="matrix(1, 0, 0, 1, 60, 87.25)"/>
            </g>
            <g id="Fill-55-Clipped">
              <path id="Fill-55" fill="#008CB4" stroke="none" stroke-width="1" d="M 58.200 1.800 C 58.200 2.900 57.900 2.600 55.500 2.800 C 51.100 3.300 12.900 3.200 9.900 3.200 C 7 3.200 4.100 3.400 1.200 3 C 0.600 2.700 0.300 2.300 0.400 1.600 C 0.900 0.400 3.400 0.300 5.700 0.400 C 7.100 0.500 54.700 0.300 54.700 0.300 C 54.700 0.300 58.100 -0.100 58.200 1.800 " transform="matrix(1, 0, 0, 1, 56, 117.25)"/>
            </g>
          </g>
        </g>
        <g id="Head-Hair">
          <g id="Fill-85-Clipped">
            <path id="Fill-85" fill="#A0783C" stroke="none" stroke-width="1" d="M 0.900 2.100 C 0.900 2.100 1.500 0.100 3.900 1.100 C 6.300 2.200 4.700 4.600 4.100 5.500 C 3.400 6.600 2 7 0.600 7.400 C 0.800 5.300 0.900 2.100 0.900 2.100 " transform="matrix(1, 0, 0, 1, 92, 26.25)"/>
          </g>
          <g id="Fill-86-Clipped">
            <path id="Fill-86" fill="#A0783C" stroke="none" stroke-width="1" d="M 4.900 7.300 C 3.500 6.900 2.100 6.600 1.400 5.400 C 0.800 4.500 -0.800 2.100 1.600 1 C 4 -0.100 4.600 2 4.600 2 C 4.600 2 4.700 5.200 4.900 7.300 " transform="matrix(1, 0, 0, 1, 74, 26.25)"/>
          </g>
          <g id="Fill-87-Clipped">
            <path id="Fill-87" fill="#BE965A" stroke="none" stroke-width="1" d="M 16.400 8.100 C 16 4.800 15 2.100 15 2.100 C 15 2.100 11.900 0.300 8.600 0.100 C 6.200 0 3.500 1.300 3 1.800 C 1.600 3.200 0.900 5.500 0.900 8 C 1 8.300 1.100 13.100 1.300 14.500 C 1.500 16.500 1.900 18.100 3 19.700 C 5.400 23.200 8.700 23.700 12.600 22.900 C 13.800 21.900 15 21.100 15.800 19.600 C 16.500 18.300 16.700 10.500 16.400 8.100 " transform="matrix(1, 0, 0, 1, 77, 19.25)"/>
          </g>
          <g id="Fill-88-Clipped">
            <path id="Fill-88" fill="#000000" stroke="none" stroke-width="1" d="M 5.700 1.300 L 0.700 4.800 C 0.700 4.800 7.900 7.200 10 0.200 L 5.700 1.300 Z " transform="matrix(1, 0, 0, 1, 82, 21.25)"/>
          </g>
          <g id="Fill-89-Clipped">
            <path id="Fill-89" fill="#000000" stroke="none" stroke-width="1" d="M 0.100 2.400 L 4.500 6.300 C 4.500 6.300 5.100 2.900 3 0.100 L 0.100 2.400 Z " transform="matrix(1, 0, 0, 1, 89, 21.25)"/>
          </g>
          <g id="Fill-90-Clipped">
            <path id="Fill-90" fill="#000000" stroke="none" stroke-width="1" d="M 2.200 0.200 C 1.100 0.200 0.500 0.100 0 1.700 C 0 2.500 1.100 3.300 2.100 3.200 C 3.100 3.200 4.100 2.300 4.100 1.600 C 4.100 0 3.200 0.200 2.200 0.200 " transform="matrix(1, 0, 0, 1, 84, 34.25)"/>
          </g>
          <g id="Fill-91-Clipped">
            <path id="Fill-91" fill="#A0783C" stroke="none" stroke-width="1" d="M 3.200 3.300 C 2.900 2.500 2.400 1.100 1.800 0.300 C 0.600 1 0 3.300 0.600 4.400 C 0.800 4.700 1.500 5.500 2.800 4.900 C 3.300 4.800 3.400 3.900 3.200 3.300 " transform="matrix(1, 0, 0, 1, 86, 26.25)"/>
          </g>
          <g id="Fill-92-Clipped">
            <path id="Fill-92" fill="#000000" stroke="none" stroke-width="1" d="M 1.100 0.900 C 1.300 1.600 1.400 2.100 0.900 2.600 C 0.100 2.200 0.400 1.500 0.300 0.900 L 1.100 0.900 Z " transform="matrix(1, 0, 0, 1, 91, 26.25)"/>
          </g>
          <g id="Fill-93-Clipped">
            <path id="Fill-93" fill="#000000" stroke="none" stroke-width="1" d="M 0.900 1.500 C 0.300 1.300 0.300 1.300 0.100 0.700 C 0.200 0.500 0.300 0.300 0.500 0.100 C 0.700 0.100 0.900 0.200 1 0.200 C 1.200 0.700 1.200 1.100 0.900 1.500 " transform="matrix(1, 0, 0, 1, 84, 27.25)"/>
          </g>
          <g id="Fill-94-Clipped">
            <path id="Fill-94" fill="#000000" stroke="none" stroke-width="1" d="M 15 5.100 C 15 5.100 15.400 5.200 10.700 6.700 C 6 8.200 0.800 11.300 0.800 11.300 C 0.200 9.100 -0.200 4.700 3.700 1.900 C 4.400 1.400 8 0.200 10.900 1.300 C 13.300 2.100 15 5.100 15 5.100 " transform="matrix(1, 0, 0, 1, 77, 16.25)"/>
          </g>
        </g>
        <g id="Group-13">
          <g id="Fill-11-Clipped">
            <path id="Fill-11" fill="#BE965A" stroke="none" stroke-width="1" d="M 23.500 45.900 C 23 45.300 23.800 45.500 23.900 44.600 C 24.100 43.700 22.400 44.100 22.200 43.300 C 22 42.500 23.200 43.100 22.700 42 C 22.300 40.900 21.700 41.800 21.700 40.500 C 21.700 39.200 24.200 37.700 24.500 36.800 C 25.800 32.600 26.400 28.200 24.300 24.100 C 20 15.800 11.100 12 2.400 9.900 C 1.300 7 1 3.700 0.100 0.600 C 2.300 -0.400 6.100 0.900 8.300 1.500 C 11 2.300 13.700 3.500 16.300 4.800 C 21.100 7.300 26.100 10.500 29.200 15 C 32.400 19.700 35.800 25.300 35.700 31.100 C 35.600 34.900 35.100 39.500 33 43 C 32.900 43.200 31.100 45.200 29.700 45.900 C 27.600 46.800 24 46.500 23.500 45.900 " transform="matrix(1, 0, 0, 1, 94, 44.55)"/>
          </g>
        </g>
        <g id="Arm">
          <path id="Fill-14" fill="#BE965A" stroke="none" stroke-width="1" d="M 56.500 30.600 C 53.200 29.300 49.700 27.300 48.400 26.600 C 40.600 22.400 34.200 18.100 25.300 12.800 C 21.400 10.600 6.600 0.600 6.600 0.600 L 0.800 9.100 C 0.800 9.100 13.100 13.900 16.100 16.300 C 19.100 18.800 32.800 30 42 34.800 C 53.500 40.800 60.300 42.900 60.900 43.100 C 61.800 39.100 63 32.500 63 32.500 C 63 32.500 59.900 31.900 56.500 30.600 " transform="matrix(1, 0, 0, 1, 15, 12.25)"/>
          <path id="Fill-33" fill="#F01446" stroke="none" stroke-width="1" d="M 30.400 14 C 28.700 17.800 27.100 21.600 25.100 25.200 C 21 25.600 16.900 21.400 14.200 18.900 C 15.200 15.500 18.700 10.500 21.400 8.200 C 23.800 7.900 30.200 13.600 30.400 14 " transform="matrix(1, 0, 0, 1, 15, 12.25)"/>
        </g>
        <g id="Ball">
          <g id="Group-18">
            <g id="Fill-16-Clipped">
              <path id="Fill-16" fill="#E6781E" stroke="none" stroke-width="1" d="M 2.600 21.600 C 6.200 28.600 14.900 31.400 21.900 27.800 C 28.900 24.200 31.700 15.400 28 8.400 C 26.600 5.700 24.500 3.600 22 2.300 C 18.400 -0.100 14.300 -0.100 10.600 1.400 C 10 1.600 9.400 1.900 8.800 2.200 C 5.800 3.700 3.600 6.200 2.300 9 C 2.200 9.300 2 9.600 1.900 9.900 C 1.700 10.400 0.900 12 1 14.700 C 1 17 1.500 19.400 2.600 21.600 " transform="matrix(1, 0, 0, 1, -1, 0.4)"/>
            </g>
          </g>
          <path id="Fill-19" fill="#FF963C" stroke="none" stroke-width="1" d="M 11.200 17.600 C 11.200 17.600 14.400 23 12.900 29.300 C 15.800 29.800 18.900 29.400 21.800 27.900 L 15.400 15.300 L 11.200 17.600 Z " transform="matrix(1, 0, 0, 1, -1, 0.25)"/>
          <path id="Fill-21" fill="#FF963C" stroke="none" stroke-width="1" d="M 19.700 13.300 L 28.200 8.900 C 28.100 8.800 28.100 8.600 28 8.500 C 26.600 5.800 24.500 3.700 22 2.400 C 20.800 1.600 19.600 1.100 18.400 0.800 C 16 7 19.700 13.300 19.700 13.300 " transform="matrix(1, 0, 0, 1, -1, 0.25)"/>
          <path id="Fill-23" fill="#824600" stroke="none" stroke-width="1" d="M 21.500 28.100 C 21.600 28 21.700 28 21.900 27.900 C 18.100 20.400 13.400 11 8.800 2.400 C 8.800 2.400 8.800 2.400 8.800 2.400 C 8.600 2.400 8.500 2.500 8.400 2.600 C 13 11.200 17.700 20.600 21.500 28.100 " transform="matrix(1, 0, 0, 1, -1, 0.25)"/>
          <path id="Fill-25" fill="#824600" stroke="none" stroke-width="1" d="M 28.300 9 C 28.300 9 28.300 9 28.300 9 C 28.200 8.900 28.200 8.700 28.100 8.600 C 28.100 8.600 28.100 8.600 28.100 8.600 L 2.700 21.800 C 2.800 21.900 2.800 22.100 2.900 22.200 L 28.300 9 Z " transform="matrix(1, 0, 0, 1, -1, 0.25)"/>
          <path id="Fill-27" fill="#824600" stroke="none" stroke-width="1" d="M 12.900 22.800 C 13.400 25.100 13.300 27.300 12.700 29.200 C 12.800 29.200 13 29.300 13.100 29.300 C 13.700 27.300 13.800 25.100 13.300 22.700 C 12.100 17.200 8 11.100 2.300 9.200 C 2.200 9.400 2.200 9.500 2.100 9.600 C 6.500 11.100 11.300 15.800 12.900 22.800 " transform="matrix(1, 0, 0, 1, -1, 0.25)"/>
          <path id="Fill-29" fill="#824600" stroke="none" stroke-width="1" d="M 17.900 8.700 C 18.600 11.900 20.100 15.200 22.200 17.700 C 23.800 19.600 25.900 21.200 27.900 22 C 28 21.900 28 21.700 28.100 21.600 C 26.100 20.800 24 19.300 22.500 17.400 C 17.900 11.700 17.100 5.200 18.700 0.900 C 18.600 0.900 18.400 0.800 18.300 0.800 C 17.400 3.100 17.300 5.800 17.900 8.700 " transform="matrix(1, 0, 0, 1, -1, 0.25)"/>
        </g>
        <g id="Group">
          <g id="Torse">
            <g id="Fill-57-Clipped">
              <path id="Fill-57" fill="#BE965A" stroke="none" stroke-width="1" d="M 17.600 1.300 C 16.500 1 1.600 0.500 1.200 0.700 C 0.900 1.500 0 12.100 0 12.100 L 17.700 10.200 C 17.600 10.300 17.700 3.500 17.600 1.300 " transform="matrix(1, 0, 0, 1, 76, 44.25)"/>
            </g>
            <g id="Fill-58-Clipped">
              <path id="Fill-58" fill="#F01446" stroke="none" stroke-width="1" d="M 31.600 19.900 C 31.400 18.900 30 12.100 28.800 7 C 28.100 4 27.200 1.500 27.200 1.500 C 27.200 1.500 24.400 1.300 23.700 1.400 C 23.700 1.800 23.400 4.100 22.400 5.500 C 21.100 7.300 19 8.200 17.600 8.200 C 15.100 8.300 13.200 7.100 12.400 5.700 C 11.200 3.600 11.300 0.900 11.300 0.900 C 11.300 0.900 9.400 0.800 9.100 0.900 C 6.400 1.800 3.300 14.600 2.900 16.900 C 2.200 21.100 1.500 25.300 1 29.600 C 0.800 31 -0.600 36.200 0.400 37.500 L 34.400 37.200 C 34.600 36.300 31.700 20.800 31.600 19.900 " transform="matrix(1, 0, 0, 1, 68, 43.25)"/>
            </g>
            <g id="Fill-56-Clipped">
              <path id="Fill-56" fill="#780046" stroke="none" stroke-width="1" d="M 33.800 0.400 C 32 0 4.800 1 0.400 0.600 L 4.200 12.300 C 6.100 12.800 29 12.500 33.200 11.600 C 33.300 10.300 33.800 1 33.800 0.400 " transform="matrix(1, 0, 0, 1, 67, 77.25)"/>
            </g>
          </g>
          <g id="Belt">
            <path id="Fill-59" fill="#000000" stroke="none" stroke-width="1" d="M 0.400 6.200 L 34.800 6.200 L 34.800 1.400 L 0.400 1.400 L 0.400 6.200 " transform="matrix(1, 0, 0, 1, 67, 76.25)"/>
            <g id="Fill-84-Clipped">
              <path id="Fill-84" fill="#64645A" stroke="none" stroke-width="1" d="M 0.400 6.700 L 8.100 6.700 L 8.100 0.700 L 0.400 0.700 L 0.400 6.700 " transform="matrix(1, 0, 0, 1, 81, 76.25)"/>
            </g>
          </g>
        </g>
        <g id="Right-Leg">
          <g id="Fill-60-Clipped">
            <path id="Fill-60" fill="#BE965A" stroke="none" stroke-width="1" d="M 14.400 12.400 C 14.300 19 12.300 25.200 12.300 25.200 L 0 25.400 C 0 25.400 0.800 6.100 3.900 3.100 C 4.800 2.300 6.900 -0.500 11.200 1.400 C 15.400 3.200 14.400 9.500 14.400 12.400 " transform="matrix(1, 0, 0, 1, 90, 67.25)"/>
          </g>
          <g id="Fill-61-Clipped">
            <path id="Fill-61" fill="#F0E6D2" stroke="none" stroke-width="1" d="M 0.400 0.800 C 0.100 4.500 0 11.100 0 12.400 C 2.100 13 10.100 12 12 11.600 C 12.800 10.400 14.200 4.500 14.900 0.800 L 0.400 0.800 Z " transform="matrix(1, 0, 0, 1, 89, 87.25)"/>
          </g>
          <g id="Fill-62-Clipped">
            <path id="Fill-62" fill="#F01446" stroke="none" stroke-width="1" d="M 0.200 2.100 L 0 3.600 L 15.700 3.500 L 15.900 2.300 L 6.800 0.500 L 0.200 2.100 " transform="matrix(1, 0, 0, 1, 86, 114.25)"/>
          </g>
          <g id="Fill-63-Clipped">
            <path id="Fill-63" fill="#000000" stroke="none" stroke-width="1" d="M 16.800 0.800 C 16.800 0.800 13.100 0.800 9.400 0.900 C 5.800 0.900 2.200 1 1.900 1 C 1.700 4.100 0.200 21.200 0.200 21.200 C 0.200 21.200 14.700 21.300 15.900 21.300 C 16 21.100 16 20.900 16 20.800 C 15.100 19.800 13 20.300 11.800 19.800 C 12.500 17.900 15.700 6.200 16.800 0.800 " transform="matrix(1, 0, 0, 1, 86, 95.25)"/>
          </g>
          <g id="Fill-64-Clipped">
            <path id="Fill-64" fill="#F01446" stroke="none" stroke-width="1" d="M 8.100 4 C 8.100 6.100 6.400 7.900 4.300 7.900 C 2.200 7.900 0.500 6.200 0.500 4 C 0.500 1.800 2.200 0.100 4.300 0.100 C 6.400 0.100 8.100 1.900 8.100 4 " transform="matrix(1, 0, 0, 1, 88, 97.25)"/>
          </g>
          <g id="Fill-65-Clipped">
            <path id="Fill-65" fill="#780046" stroke="none" stroke-width="1" d="M 4.100 2 C 4.100 3 3.300 3.800 2.300 3.800 C 1.300 3.800 0.500 3 0.500 2 C 0.500 1 1.300 0.200 2.300 0.200 C 3.200 0.200 4.100 1 4.100 2 " transform="matrix(1, 0, 0, 1, 90, 99.25)"/>
          </g>
          <g id="Fill-66-Clipped">
            <path id="Fill-66" fill="#780046" stroke="none" stroke-width="1" d="M 1.600 1.600 C 1.600 2 1.300 2.400 0.800 2.400 C 0.300 2.400 0 2 0 1.600 C 0 1.200 0.300 0.800 0.800 0.800 C 1.300 0.800 1.600 1.200 1.600 1.600 " transform="matrix(1, 0, 0, 1, 100, 96.25)"/>
          </g>
          <g id="Fill-67-Clipped">
            <path id="Fill-67" fill="#780046" stroke="none" stroke-width="1" d="M 1.700 1.600 C 1.700 2 1.400 2.400 0.900 2.400 C 0.400 2.400 0.100 2.100 0.100 1.600 C 0.100 1.200 0.400 0.800 0.900 0.800 C 1.400 0.800 1.700 1.200 1.700 1.600 " transform="matrix(1, 0, 0, 1, 99, 99.25)"/>
          </g>
          <g id="Fill-68-Clipped">
            <path id="Fill-68" fill="#780046" stroke="none" stroke-width="1" d="M 2 0.800 C 2 1.200 1.700 1.600 1.200 1.600 C 0.800 1.600 0.400 1.300 0.400 0.800 C 0.400 0.400 0.700 0 1.200 0 C 1.700 0 2 0.300 2 0.800 " transform="matrix(1, 0, 0, 1, 98, 103.25)"/>
          </g>
          <g id="Fill-69-Clipped">
            <path id="Fill-69" fill="#780046" stroke="none" stroke-width="1" d="M 2.300 1.400 C 2.300 1.800 2 2.200 1.500 2.200 C 1 2.200 0.700 1.900 0.700 1.400 C 0.700 0.900 1 0.600 1.500 0.600 C 2 0.600 2.300 1 2.300 1.400 " transform="matrix(1, 0, 0, 1, 97, 105.25)"/>
          </g>
          <g id="Fill-70-Clipped">
            <path id="Fill-70" fill="#780046" stroke="none" stroke-width="1" d="M 1.600 1.100 C 1.600 1.500 1.300 1.900 0.800 1.900 C 0.300 1.900 0 1.600 0 1.100 C 0 0.600 0.300 0.300 0.800 0.300 C 1.300 0.300 1.600 0.700 1.600 1.100 " transform="matrix(1, 0, 0, 1, 97, 108.25)"/>
          </g>
          <g id="Fill-71-Clipped">
            <path id="Fill-71" fill="#780046" stroke="none" stroke-width="1" d="M 1.800 1 C 1.800 1.400 1.500 1.800 1 1.800 C 0.500 1.800 0.200 1.500 0.200 1 C 0.200 0.500 0.500 0.200 1 0.200 C 1.500 0.200 1.800 0.600 1.800 1 " transform="matrix(1, 0, 0, 1, 96, 111.25)"/>
          </g>
        </g>
        <g id="Left-Leg">
          <g id="Fill-72-Clipped">
            <path id="Fill-72" fill="#BE965A" stroke="none" stroke-width="1" d="M 14.800 23 C 13.700 23.100 3.800 22.800 3.500 22.800 C 3.100 20.300 0.900 13.100 1 8.400 C 1.100 5.600 1.900 2.700 3.500 1.200 C 4.500 0.300 5.800 -0.200 7.500 0.100 C 11.900 0.800 13.300 7.300 13.800 11 C 14.400 14.400 14.300 19.500 14.800 23 " transform="matrix(1, 0, 0, 1, 65, 67.25)"/>
          </g>
          <g id="Fill-73-Clipped">
            <path id="Fill-73" fill="#F0E6D2" stroke="none" stroke-width="1" d="M 0.300 0.800 C 0.700 3.700 1.500 8.600 1.700 10.700 C 4.800 11.700 11 11.400 14.100 10.700 C 14.500 9.600 13.600 3.500 13.200 0.800 L 0.300 0.800 Z " transform="matrix(1, 0, 0, 1, 67, 87.25)"/>
          </g>
          <g id="Fill-74-Clipped">
            <path id="Fill-74" fill="#F01446" stroke="none" stroke-width="1" d="M 15.900 2.100 L 16.100 3.600 L 0.500 3.500 L 0.200 2.300 L 9.300 0.500 L 15.900 2.100 " transform="matrix(1, 0, 0, 1, 68, 114.25)"/>
          </g>
          <g id="Fill-75-Clipped">
            <path id="Fill-75" fill="#000000" stroke="none" stroke-width="1" d="M 0.400 0.800 C 0.400 0.800 4.100 0.800 7.800 0.900 C 11.400 0.900 15 1 15.300 1 C 15.500 4.100 17 21.200 17 21.200 C 17 21.200 2.500 21.300 1.300 21.300 C 1.200 21.100 1.200 20.900 1.200 20.800 C 2.100 19.800 4.200 20.300 5.400 19.800 C 4.700 17.900 1.600 6.800 0.400 0.800 " transform="matrix(1, 0, 0, 1, 67, 95.25)"/>
          </g>
          <g id="Fill-76-Clipped">
            <path id="Fill-76" fill="#F01446" stroke="none" stroke-width="1" d="M 0.100 4 C 0.100 6.100 1.800 7.900 3.900 7.900 C 6 7.900 7.700 6.200 7.700 4 C 7.700 1.800 6 0.100 3.900 0.100 C 1.800 0.100 0.100 1.900 0.100 4 " transform="matrix(1, 0, 0, 1, 74, 97.25)"/>
          </g>
          <g id="Fill-77-Clipped">
            <path id="Fill-77" fill="#780046" stroke="none" stroke-width="1" d="M 0.100 2 C 0.100 3 0.900 3.800 1.900 3.800 C 2.900 3.800 3.700 3 3.700 2 C 3.700 1 2.900 0.200 1.900 0.200 C 0.900 0.200 0.100 1 0.100 2 " transform="matrix(1, 0, 0, 1, 76, 99.25)"/>
          </g>
          <g id="Fill-78-Clipped">
            <path id="Fill-78" fill="#780046" stroke="none" stroke-width="1" d="M 0.600 1.600 C 0.600 2 0.900 2.400 1.400 2.400 C 1.900 2.400 2.200 2.100 2.200 1.600 C 2.200 1.100 1.900 0.800 1.400 0.800 C 0.900 0.800 0.600 1.200 0.600 1.600 " transform="matrix(1, 0, 0, 1, 68, 96.25)"/>
          </g>
          <g id="Fill-79-Clipped">
            <path id="Fill-79" fill="#780046" stroke="none" stroke-width="1" d="M 0.400 1.600 C 0.400 2 0.700 2.400 1.200 2.400 C 1.700 2.400 2 2.100 2 1.600 C 2 1.200 1.700 0.800 1.200 0.800 C 0.700 0.800 0.400 1.200 0.400 1.600 " transform="matrix(1, 0, 0, 1, 69, 99.25)"/>
          </g>
          <g id="Fill-80-Clipped">
            <path id="Fill-80" fill="#780046" stroke="none" stroke-width="1" d="M 0.100 0.800 C 0.100 1.200 0.400 1.600 0.900 1.600 C 1.400 1.600 1.700 1.300 1.700 0.800 C 1.700 0.400 1.400 0 0.900 0 C 0.400 0 0.100 0.300 0.100 0.800 " transform="matrix(1, 0, 0, 1, 70, 103.25)"/>
          </g>
          <g id="Fill-81-Clipped">
            <path id="Fill-81" fill="#780046" stroke="none" stroke-width="1" d="M 0.900 1.400 C 0.900 1.800 1.200 2.200 1.700 2.200 C 2.200 2.200 2.500 1.900 2.500 1.400 C 2.500 0.900 2.200 0.600 1.700 0.600 C 1.200 0.600 0.900 1 0.900 1.400 " transform="matrix(1, 0, 0, 1, 70, 105.25)"/>
          </g>
          <g id="Fill-82-Clipped">
            <path id="Fill-82" fill="#780046" stroke="none" stroke-width="1" d="M 0.600 1.100 C 0.600 1.500 0.900 1.900 1.400 1.900 C 1.900 1.900 2.200 1.600 2.200 1.100 C 2.200 0.600 1.900 0.300 1.400 0.300 C 0.900 0.300 0.600 0.700 0.600 1.100 " transform="matrix(1, 0, 0, 1, 71, 108.25)"/>
          </g>
          <g id="Fill-83-Clipped">
            <path id="Fill-83" fill="#780046" stroke="none" stroke-width="1" d="M 0.300 1 C 0.300 1.400 0.600 1.800 1.100 1.800 C 1.600 1.800 1.900 1.500 1.900 1 C 1.900 0.500 1.600 0.200 1.100 0.200 C 0.600 0.200 0.300 0.600 0.300 1 " transform="matrix(1, 0, 0, 1, 72, 111.25)"/>
          </g>
        </g>
        <path id="Fill-31" fill="#A0783C" stroke="none" stroke-width="1" d="M 29.900 18.700 C 30.100 19.300 28.700 20.200 29.400 22.100 C 30.200 23.900 34 23.200 34.200 21.600 C 34.500 19 29.100 13.800 27.500 14.300 C 26.100 14.700 29 15.600 29.900 18.700 " transform="matrix(1, 0, 0, 1, -1, 0.25)"/>
      </g>
    </g>
  </g>
</svg>