<svg version="1.1" width="167" height="176" viewBox="-1 -1 167 176" xmlns="http://www.w3.org/2000/svg" xmlns:xlink="http://www.w3.org/1999/xlink">
  <!-- Exported by Scratch - http://scratch.mit.edu/ -->
  <g id="space" transform="matrix(1, 0, 0, 1, -9, -11)">
    <g id="monet-d">
      <g id="monet-puppet-tools">
        <g id="Layer_1">
          <g id="Group">
            <path id="Shape" fill="#70CBD2" stroke="none" stroke-width="1" d="M 13.533 35.210 L 22.304 35.210 L 38.656 35.509 L 46.211 35.360 L 46.713 29.166 L 47.966 18.746 L 49.168 12.962 L 50.272 8.990 L 50.272 5.142 L 49.642 1.438 L 47.465 0.500 C 47.465 0.500 45.310 0.100 45.209 0.250 C 45.109 0.400 42.402 1.703 42.402 1.703 L 38.192 3.896 L 33.230 5.725 L 28.330 6.181 L 24.459 6.597 L 23.858 11.537 C 23.858 11.537 24.259 14.034 24.259 14.184 C 24.259 14.334 24.158 16.798 24.158 16.798 L 23.457 18.229 L 21.173 18.746 L 17.292 18.746 L 15.739 17.759 L 15.338 15.356 L 15.488 12.962 C 15.488 12.962 17.643 12.327 17.894 12.332 C 18.145 12.336 21.463 12.332 21.463 12.332 L 23.294 12.332 L 24.862 12.332 L 25.334 9.639 L 25.106 7.017 L 22.304 6.093 L 16.344 4.498 L 12.183 3.096 L 10.526 2.647 L 9.724 3.566 C 9.724 3.566 8.672 7.043 8.722 7.017 C 8.772 6.991 9.173 10.038 9.173 10.038 L 9.785 13.552 L 11.013 15.032 C 11.013 15.032 11.127 17.829 11.227 18.178 C 11.328 18.528 11.929 25.771 11.929 25.771 L 13.432 33.012 L 13.533 35.210 Z " transform="matrix(1, 0, 0, 1, 58.9, 72.1)"/>
            <path id="Shape" fill="#70CBD2" stroke="none" stroke-width="1" d="M 45.168 42.009 L 27.291 41.652 L 15.788 41.652 L 11.578 42.402 L 9.698 48.769 C 9.698 48.769 15.487 50.889 15.938 50.766 C 16.389 50.642 25.684 53.264 25.684 53.264 C 25.684 53.264 29.697 53.863 29.922 53.863 C 30.148 53.863 33.230 52.929 33.230 52.929 L 38.192 53.339 L 44.644 50.417 L 47.439 47.758 L 47.846 45.177 L 46.488 42.326 L 45.168 42.009 Z " transform="matrix(1, 0, 0, 1, 58.9, 72.1)"/>
            <path id="Shape" fill="#32429B" stroke="none" stroke-width="1" d="M 48.127 27.591 C 48.429 25.750 48.848 23.927 49.114 22.082 C 49.362 20.364 49.484 18.627 49.643 16.897 L 49.879 12.963 C 49.854 12.938 49.821 12.919 49.804 12.891 C 49.457 12.351 49.000 11.812 48.369 12.236 C 47.856 12.580 47.281 13.195 47.204 13.752 C 46.926 15.794 46.866 17.865 46.682 19.921 C 46.528 21.656 46.302 23.383 46.138 25.118 C 46.023 26.347 46.025 27.590 45.853 28.810 C 45.616 30.499 45.296 32.180 44.924 33.844 C 44.871 34.080 44.337 34.340 44.011 34.361 C 42.907 34.431 41.794 34.460 40.690 34.394 C 37.796 34.221 34.906 33.991 32.014 33.774 C 31.867 33.763 31.726 33.661 31.481 33.560 C 31.419 33.534 31.441 32.684 31.437 32.581 C 31.295 29.473 31.153 26.364 31.012 23.256 C 30.871 20.145 30.729 17.034 30.587 13.922 C 30.516 12.365 30.445 10.808 30.374 9.251 C 30.327 8.226 30.554 6.568 29.529 5.919 C 29.036 5.607 28.355 5.675 27.963 6.106 C 27.754 6.334 27.596 6.642 27.572 6.951 C 27.560 7.090 27.585 7.229 27.591 7.368 C 27.596 7.481 27.552 7.627 27.566 7.732 C 27.591 7.920 27.786 8.094 27.876 8.275 C 28.114 8.757 28.165 9.315 28.157 9.845 C 28.133 11.273 28.375 12.704 28.449 14.135 C 28.498 15.078 28.437 16.026 28.460 16.971 C 28.492 18.240 28.538 19.510 28.613 20.776 C 28.767 23.313 28.942 25.849 29.114 28.385 C 29.146 28.861 29.249 29.337 29.236 29.811 C 29.215 30.543 29.128 31.274 29.058 32.005 C 29.017 32.449 28.956 32.891 28.880 33.530 C 26.921 33.599 24.857 33.682 22.791 33.741 C 20.467 33.808 18.140 33.824 15.818 33.926 C 15.027 33.961 14.864 33.509 14.743 32.929 C 14.352 31.063 13.941 29.200 13.583 27.327 C 13.113 24.869 12.606 22.413 12.265 19.936 C 11.994 17.976 11.993 15.981 11.766 14.014 C 11.721 13.631 11.240 13.147 10.853 13.007 C 10.819 12.994 10.781 12.992 10.740 12.995 L 10.161 15.466 C 11.110 20.667 10.518 25.758 12.157 30.937 C 9.229 29.351 6.915 30.115 4.589 31.577 C 2.167 33.101 1.081 35.480 0.541 37.998 C 0.060 40.245 0.398 42.677 1.723 44.664 C 2.704 46.135 3.986 47.415 5.563 48.244 C 6.357 48.661 7.211 48.958 8.091 49.137 C 8.570 49.235 9.057 49.298 9.546 49.328 C 9.739 49.341 9.958 49.291 10.134 49.307 C 10.134 49.307 10.134 49.307 10.134 49.307 C 10.169 49.267 10.208 49.227 10.239 49.185 C 10.252 49.121 10.263 49.055 10.281 48.993 L 10.043 49.298 C 10.356 48.645 10.722 47.961 11.012 47.293 C 11.322 46.580 11.396 45.836 11.593 45.117 C 11.782 44.428 12.216 43.717 12.266 43.010 C 12.989 43.137 13.717 43.301 14.438 43.487 C 14.511 43.498 14.585 43.503 14.657 43.511 C 14.991 43.466 15.340 43.477 15.655 43.558 C 15.790 43.556 15.926 43.550 16.061 43.540 C 16.058 43.527 16.057 43.513 16.053 43.501 C 16.131 43.510 16.209 43.512 16.287 43.520 C 16.321 43.516 16.356 43.515 16.390 43.511 C 16.489 43.498 16.584 43.515 16.672 43.552 C 17.749 43.654 18.833 43.715 19.913 43.724 C 21.753 43.740 23.594 43.598 25.431 43.634 C 25.675 43.639 25.920 43.703 26.165 43.785 C 26.953 43.749 27.756 43.698 28.514 43.770 C 28.875 43.805 29.253 43.863 29.529 44.094 C 29.861 44.137 30.162 44.371 30.162 44.801 L 30.162 45.650 C 30.162 45.666 30.154 45.680 30.153 45.695 C 30.263 45.964 30.294 46.298 30.287 46.682 C 30.266 47.721 30.202 48.767 30.277 49.801 C 30.318 50.384 30.327 50.975 30.224 51.552 C 30.154 51.947 30.117 52.552 30.596 52.726 C 31.211 52.949 31.927 52.631 32.385 52.218 C 32.855 51.795 32.585 51.229 32.487 50.718 C 32.434 50.444 32.375 50.167 32.328 49.891 C 32.292 49.678 32.152 49.318 32.181 49.110 C 32.348 47.889 32.486 46.989 32.592 46.086 C 32.700 45.171 33.294 44.876 34.099 44.937 C 36.249 45.099 38.392 45.368 40.544 45.466 C 42.120 45.539 43.714 45.484 45.287 45.350 C 46.025 45.287 46.575 45.276 47.018 45.394 C 47.735 45.223 48.487 45.027 49.141 44.711 C 49.087 44.621 49.030 44.532 48.977 44.442 C 48.862 44.245 48.740 44.003 48.751 43.788 C 48.859 41.731 48.908 39.665 49.149 37.623 C 49.373 35.720 49.722 33.877 47.763 32.590 C 47.599 32.482 47.546 32.082 47.574 31.833 C 47.733 30.415 47.897 28.997 48.127 27.591 Z " transform="matrix(1, 0, 0, 1, 58.9, 72.1)"/>
            <path id="Shape" fill="#32429B" stroke="none" stroke-width="1" d="M 25.049 13.202 C 24.963 12.159 24.524 11.324 23.374 11.189 C 22.632 11.101 21.870 11.172 21.118 11.172 C 21.116 11.147 21.115 11.122 21.113 11.097 C 19.121 11.279 17.132 11.500 15.136 11.624 C 14.247 11.679 14.047 12.128 14.099 12.870 C 14.231 14.774 14.370 16.678 14.496 18.583 C 14.568 19.671 15.206 19.857 16.156 19.732 C 17.221 19.593 18.298 19.487 19.371 19.482 C 20.650 19.475 21.931 19.669 23.208 19.633 C 24.826 19.588 25.420 18.889 25.325 17.379 C 25.237 15.986 25.163 14.593 25.049 13.202 Z M 23.262 16.181 C 23.180 17.270 22.409 17.496 21.466 17.459 C 20.867 17.435 20.267 17.454 19.667 17.454 C 19.069 17.453 18.469 17.428 17.873 17.460 C 17.235 17.495 16.918 17.342 16.723 16.617 C 16.115 14.352 16.395 13.524 18.921 13.663 C 19.975 13.721 21.054 13.613 22.079 13.806 C 23.373 14.050 23.339 15.178 23.262 16.181 Z " transform="matrix(1, 0, 0, 1, 58.9, 72.1)"/>
          </g>
          <g id="Group">
            <path id="Shape" fill="#70CBD2" stroke="none" stroke-width="1" d="M 24.272 18.429 L 21.763 11.537 L 17.893 2.740 L 16.981 1.274 L 15.742 1.043 L 12.178 2.740 C 12.178 2.740 7.442 4.998 6.991 5.383 C 6.540 5.768 3.758 6.791 3.758 6.791 L 3.082 8.990 L 4.285 11.866 L 7.518 19.178 L 9.247 24.647 L 12.179 27.194 C 12.179 27.194 15.322 27.812 15.743 27.653 C 16.164 27.494 19.322 26.894 19.322 26.894 C 19.322 26.894 22.404 25.771 22.554 25.546 C 22.705 25.321 23.832 23.371 23.832 23.371 C 23.832 23.371 24.659 21.950 24.735 21.725 C 24.810 21.500 24.272 18.429 24.272 18.429 Z " transform="matrix(1, 0, 0, 1, 90.15, 116.45)"/>
            <path id="Shape" fill="#32429B" stroke="none" stroke-width="1" d="M 17.278 2.738 C 18.901 6.585 20.574 10.431 21.854 14.397 C 22.424 16.164 22.921 17.953 23.388 19.750 C 23.747 21.132 23.905 23.413 25.852 23.371 C 27.216 23.342 25.904 20.268 25.739 19.655 C 25.068 17.154 24.284 14.677 23.419 12.236 C 22.531 9.730 21.581 7.236 20.472 4.823 C 19.756 3.266 18.756 1.839 17.867 0.360 C 17.212 0.676 16.460 0.872 15.744 1.043 C 16.414 1.220 16.837 1.693 17.278 2.738 Z " transform="matrix(1, 0, 0, 1, 90.15, 116.45)"/>
            <path id="Shape" fill="#32429B" stroke="none" stroke-width="1" d="M 8.839 19.396 C 7.542 15.851 5.972 12.437 3.961 9.219 C 3.429 8.367 2.758 7.580 1.899 7.043 C 1.582 6.846 1.320 6.533 0.925 6.502 C 0.553 6.472 0.282 6.712 0.187 7.061 C 0.021 7.675 0.205 8.471 0.492 9.027 C 0.559 9.158 0.640 9.304 0.719 9.420 C 0.891 9.672 1.191 9.836 1.379 10.082 C 2.412 11.431 3.559 12.759 4.266 14.277 C 5.379 16.665 6.424 19.083 7.419 21.521 C 7.922 22.752 8.352 24.028 8.896 25.241 C 9.226 25.975 9.515 27.078 10.576 26.867 C 11.095 26.764 11.133 26.516 11.127 25.970 C 11.118 25.053 10.461 23.983 10.158 23.112 C 9.727 21.870 9.291 20.630 8.839 19.396 Z " transform="matrix(1, 0, 0, 1, 90.15, 116.45)"/>
          </g>
          <g id="Group">
            <path id="Shape" fill="#70CBD2" stroke="none" stroke-width="1" d="M 15.338 1.848 L 10.877 3.300 L 6.416 5.693 L 2.346 9.289 L 1.153 11.133 L 0.902 13.187 L 1.203 15.133 L 2.606 17.547 L 4.962 18.796 L 7.769 19.433 L 9.654 19.009 L 11.728 17.547 L 13.177 15.921 L 16.289 13.385 L 17.329 12.548 L 17.761 10.469 L 18.814 7.360 L 19.246 5.094 C 19.246 5.094 18.845 3.240 18.795 3.090 C 18.745 2.940 17.957 1.592 17.957 1.592 L 16.608 1.322 L 15.338 1.848 Z " transform="matrix(1, 0, 0, 1, 51.7, 73.3)"/>
            <path id="Shape" fill="#32429B" stroke="none" stroke-width="1" d="M 3.346 9.887 C 3.389 9.829 3.431 9.774 3.474 9.721 C 4.539 8.417 5.910 7.320 7.327 6.420 C 10.146 4.631 13.363 3.602 16.563 2.723 C 16.954 2.616 17.345 2.511 17.736 2.407 C 17.828 2.382 17.929 2.374 18.031 2.370 C 18.890 1.274 16.803 0.113 15.152 0.633 C 15.162 0.648 15.172 0.663 15.182 0.678 C 14.382 0.922 13.607 1.105 12.872 1.393 C 11.209 2.044 9.528 2.671 7.928 3.455 C 6.828 3.994 5.891 4.852 4.812 5.442 C 3.392 6.219 2.173 7.312 1.166 8.569 C 0.674 9.183 -0.675 11.189 0.549 11.748 C 1.966 12.394 2.654 10.826 3.346 9.887 Z " transform="matrix(1, 0, 0, 1, 51.7, 73.3)"/>
            <path id="Shape" fill="#32429B" stroke="none" stroke-width="1" d="M 10.515 17.717 C 10.416 17.801 10.317 17.886 10.219 17.970 L 11.779 19.326 C 12.115 18.977 12.410 18.606 12.631 18.202 C 13.717 16.219 15.781 15.727 17.375 14.242 C 17.376 14.249 17.377 14.257 17.378 14.265 L 17.957 11.795 C 17.689 11.817 17.292 12.145 17.002 12.354 C 16.338 12.830 15.686 13.327 15.061 13.854 C 13.544 15.137 12.003 16.401 10.517 17.721 C 9.946 18.229 8.904 19.756 10.274 20.028 C 10.810 20.135 11.312 19.833 11.613 19.472 C 12.029 18.974 11.839 18.535 11.729 17.930 " transform="matrix(1, 0, 0, 1, 51.7, 73.3)"/>
          </g>
          <g id="Group">
            <path id="Shape" fill="#70CBD2" stroke="none" stroke-width="1" d="M 10.996 4.195 L 6.573 2.635 L 3.713 1.897 L 2.105 1.897 C 2.105 1.897 0.634 2.668 0.722 2.916 C 0.810 3.163 0.698 5.044 0.698 5.044 C 0.698 5.044 0.393 8.040 0.698 8.290 C 1.003 8.540 2.161 12.070 2.161 12.070 L 5.064 13.433 L 9.273 15.782 C 9.273 15.782 10.954 18.648 11.191 18.663 C 11.427 18.679 13.801 20.828 13.801 20.828 L 14.986 21.625 L 16.239 21.193 L 18.645 18.319 L 20.724 15.583 L 21.302 13.530 L 20.021 11.302 L 16.440 7.492 L 10.996 4.195 Z " transform="matrix(1, 0, 0, 1, 102.2, 70.9)"/>
            <path id="Shape" fill="#32429B" stroke="none" stroke-width="1" d="M 6.904 14.301 C 5.929 13.975 5.058 14.035 4.962 15.257 C 4.809 17.192 6.559 16.678 7.724 17.306 C 8.286 17.608 8.867 17.921 9.328 18.350 C 10.557 19.493 11.734 20.822 13.057 21.846 C 13.504 21.491 14.145 22.069 14.413 21.262 C 14.971 19.577 13.138 18.549 12.046 17.605 C 11.238 16.907 10.392 16.249 9.488 15.676 C 8.984 15.358 7.891 14.632 6.904 14.301 Z " transform="matrix(1, 0, 0, 1, 102.2, 70.9)"/>
            <path id="Shape" fill="#32429B" stroke="none" stroke-width="1" d="M 16.319 6.293 C 14.748 4.790 13.163 3.342 10.816 2.878 C 8.519 2.424 6.318 1.487 4.078 0.751 C 3.971 0.716 3.882 0.626 3.780 0.535 C 3.083 0.431 2.361 0.325 2.049 0.562 C 1.635 1.030 1.635 1.536 1.673 1.911 C 1.743 2.205 2.479 2.575 2.482 2.636 C 2.566 2.779 2.804 2.558 2.887 2.702 C 6.511 3.288 9.959 4.438 13.107 6.341 C 14.078 6.927 14.911 7.767 15.730 8.568 C 16.417 9.239 17.087 9.927 17.755 10.617 C 18.259 11.137 18.945 12.178 19.640 12.364 C 20.914 12.703 20.936 10.987 20.368 10.347 C 19.107 8.926 17.690 7.607 16.319 6.293 Z " transform="matrix(1, 0, 0, 1, 102.2, 70.9)"/>
          </g>
          <g id="Group">
            <path id="Shape" fill="#DB6FAB" stroke="none" stroke-width="1" d="M 4.500 65.629 L 6.229 64.280 L 8.382 59.935 L 13.290 50.945 L 17.431 42.705 L 20.138 35.513 L 22.017 29.670 L 23.671 25.924 L 24.498 25.924 L 25.024 27.797 L 27.342 37.161 L 28.408 39.783 L 35.550 24.276 L 43.669 38.435 L 50.736 21.129 L 55.923 36.562 L 62.239 21.129 L 72.852 43.754 L 77.726 55.515 L 80.372 61.209 L 81.540 61.658 L 82.913 38.360 L 80.733 23.446 L 77.256 14.986 L 70.362 7.945 L 64.193 4.049 L 51.563 1.127 L 37.702 1.577 L 24.724 3.000 L 15.852 7.420 L 9.387 13.488 L 5.778 20.755 L 3.372 28.846 L 1.869 40.158 L 2.320 54.519 L 3.523 64.355 L 4.500 65.629 " transform="matrix(1, 0, 0, 1, 42.65, 11)"/>
            <path id="Shape" fill="#F7B3D1" stroke="none" stroke-width="1" d="M 23.400 26.973 L 21.416 32.591 L 20.063 37.086 L 17.958 41.956 L 17.958 46.076 L 19.011 50.945 L 21.091 55.515 L 25.702 61.733 L 32.980 65.853 L 42.617 67.726 L 51.413 65.853 L 63.017 59.036 L 68.836 51.695 L 71.336 45.477 L 71.787 42.480 L 68.254 34.165 L 65.698 28.171 L 63.548 22.703 L 61.863 21.129 L 60.242 24.501 L 59.307 28.246 L 58.179 30.718 L 57.202 32.666 C 57.202 32.666 56.976 33.715 56.901 33.940 C 56.826 34.165 55.774 34.989 55.774 34.989 L 54.721 33.790 L 52.917 28.171 L 51.112 21.129 L 48.710 24.650 L 47.203 30.194 L 45.766 34.239 L 44.694 35.588 L 44.569 36.487 L 42.213 36.712 L 39.986 32.666 L 35.776 24.501 L 33.972 27.272 L 32.980 30.868 L 31.202 35.213 L 29.536 37.686 L 28.408 38.884 L 27.343 35.813 L 24.574 28.621 L 23.822 25.474 L 23.400 26.973 Z " transform="matrix(1, 0, 0, 1, 42.65, 11)"/>
            <path id="Shape" fill="#32429B" stroke="none" stroke-width="1" d="M 55.073 47.348 C 55.094 47.002 55.084 46.657 55.045 46.313 C 54.754 45.275 54.043 44.557 53.376 44.543 C 52.646 44.528 51.935 45.272 51.965 46.020 C 52.024 47.523 52.766 48.730 53.660 48.483 C 54.259 48.318 54.729 47.694 55.073 47.348 Z " transform="matrix(1, 0, 0, 1, 42.65, 11)"/>
            <path id="Shape" fill="#32429B" stroke="none" stroke-width="1" d="M 36.342 47.487 C 36.430 48.305 36.522 49.149 37.646 49.141 C 38.558 49.134 39.208 48.355 39.186 47.210 C 39.107 46.959 39.001 46.575 38.866 46.201 C 38.579 45.412 38.116 44.820 37.169 45.101 C 36.342 45.346 36.026 45.912 36.333 46.778 C 36.408 46.988 36.316 47.252 36.342 47.487 Z " transform="matrix(1, 0, 0, 1, 42.65, 11)"/>
            <path id="Shape" fill="#32429B" stroke="none" stroke-width="1" d="M 83.730 35.233 C 83.601 33.030 83.326 30.830 83.008 28.645 C 82.819 27.350 82.344 26.098 82.127 24.804 C 81.513 21.156 80.633 17.616 78.569 14.463 C 76.657 11.540 74.109 9.231 71.439 7.041 C 70.203 6.029 69.013 4.888 67.617 4.156 C 64.353 2.443 60.893 1.138 57.198 0.733 C 54.195 0.404 51.167 0.211 48.147 0.162 C 46.198 0.130 44.102 0.046 42.146 0.157 C 40.235 0.266 38.187 0.183 36.274 0.262 C 34.766 0.324 32.884 0.650 30.072 0.861 C 29.885 0.875 29.697 0.899 29.509 0.919 C 27.719 1.439 25.934 2.067 24.122 2.463 C 22.272 3.250 20.458 4.134 18.650 5.016 C 15.127 6.735 11.957 8.947 9.503 12.053 C 7.726 14.300 5.549 17.470 4.685 19.278 C 4.404 19.865 4.202 20.135 4.083 20.377 C 3.692 21.175 3.460 21.873 3.203 22.688 C 2.669 24.381 2.260 26.127 1.975 27.880 C 1.007 33.833 0.257 39.819 0.287 45.859 C 0.307 49.999 0.447 54.149 0.795 58.273 C 1.004 60.755 1.736 63.191 2.189 65.656 C 2.369 66.631 2.860 67.332 3.820 67.498 C 4.826 67.672 5.784 67.592 6.403 66.490 C 8.334 63.055 10.362 59.673 12.283 56.231 C 13.484 54.077 14.563 51.856 15.685 49.660 C 15.959 49.123 16.187 48.564 16.426 48.040 C 17.536 50.751 18.402 53.449 19.716 55.910 C 20.882 58.093 22.387 60.098 23.863 62.235 C 24.065 62.253 24.265 62.346 24.415 62.545 C 25.194 63.586 26.760 64.381 27.956 64.827 C 28.057 64.865 28.139 64.918 28.209 64.980 C 28.322 65.015 28.431 65.054 28.533 65.097 C 32.967 66.999 37.420 68.752 42.394 68.543 C 42.880 68.523 43.271 68.601 43.590 68.753 C 44.254 68.682 44.919 68.665 45.584 68.654 C 45.592 68.652 45.597 68.649 45.605 68.647 C 46.067 68.545 46.535 68.530 47.003 68.514 C 47.015 68.510 47.021 68.501 47.033 68.498 C 47.759 68.263 48.505 68.131 49.261 68.048 C 50.589 67.561 51.913 67.073 53.226 66.568 C 54.066 66.244 54.873 65.832 55.679 65.431 C 57.239 64.655 58.766 63.809 60.352 63.096 C 61.411 62.242 62.698 61.619 63.611 60.620 C 63.579 60.591 63.547 60.562 63.510 60.534 C 67.264 56.564 70.630 52.379 72.172 46.953 C 72.608 47.309 72.888 47.597 73.033 47.941 C 73.433 48.892 73.762 49.871 74.144 50.829 C 75.144 53.339 76.116 55.862 77.183 58.345 C 77.904 60.027 78.774 61.631 80.147 62.923 C 81.036 63.760 82.310 63.961 82.578 63.150 C 82.901 62.180 83.240 61.172 83.295 60.166 C 83.583 54.883 83.859 49.597 83.986 44.309 C 84.060 41.286 83.906 38.254 83.730 35.233 Z M 70.816 42.933 C 70.626 44.519 70.134 46.112 69.502 47.590 C 68.548 49.817 67.477 52.012 66.255 54.104 C 64.606 56.930 61.881 58.720 59.364 60.692 C 57.301 62.308 55.093 63.660 52.557 64.411 C 51.105 64.841 49.641 65.233 48.188 65.662 C 44.079 66.876 40.002 66.491 35.901 65.549 C 32.556 64.781 29.512 63.369 26.842 61.294 C 25.480 60.235 24.249 58.848 23.372 57.367 C 21.691 54.527 20.277 51.529 18.824 48.561 C 18.579 48.063 18.704 47.390 18.632 46.801 C 18.259 43.718 19.328 41.058 20.745 38.369 C 21.940 36.099 22.622 33.561 23.529 31.140 C 23.626 30.883 23.704 30.619 23.811 30.367 C 23.834 30.314 23.946 30.298 24.273 30.147 C 24.591 31.320 24.892 32.412 25.185 33.507 C 25.616 35.117 26.032 36.733 26.472 38.342 C 26.649 38.991 26.817 39.652 27.094 40.260 C 27.305 40.723 27.594 41.304 28.006 41.489 C 28.665 41.788 29.395 41.571 29.713 40.813 C 30.498 38.943 31.227 37.050 31.998 35.174 C 32.585 33.744 33.171 32.313 33.812 30.907 C 34.352 29.723 34.971 28.575 35.653 27.217 C 36.178 27.865 36.790 28.397 37.119 29.067 C 38.120 31.100 39.022 33.182 39.940 35.254 C 40.598 36.739 41.169 38.264 41.892 39.716 C 42.085 40.102 42.803 40.593 43.089 40.493 C 43.758 40.260 44.619 39.827 44.863 39.249 C 46.508 35.361 48.025 31.419 49.552 27.482 C 49.781 26.892 49.802 26.223 50.011 25.622 C 50.135 25.258 50.433 24.953 50.654 24.622 C 50.796 24.636 50.940 24.650 51.083 24.665 C 51.459 26.260 51.829 27.856 52.214 29.449 C 52.606 31.073 53.013 32.695 53.417 34.317 C 53.685 35.394 53.863 36.506 54.264 37.532 C 54.500 38.136 55.125 39.054 55.516 39.026 C 56.126 38.982 56.942 38.373 57.215 37.790 C 57.852 36.428 58.182 34.926 58.702 33.504 C 59.818 30.443 60.973 27.396 62.122 24.348 C 62.216 24.101 62.386 23.883 62.639 23.446 C 63.102 24.372 63.527 25.115 63.855 25.898 C 64.876 28.323 65.827 30.777 66.869 33.193 C 67.869 35.517 68.976 37.797 69.977 40.122 C 70.364 41.025 70.924 42.040 70.816 42.933 Z M 81.394 47.889 C 81.178 51.014 80.703 54.122 80.335 57.236 C 80.318 57.374 80.233 57.504 80.147 57.719 C 79.961 57.565 79.795 57.493 79.738 57.370 C 78.677 55.056 77.564 52.763 76.596 50.411 C 74.867 46.211 73.337 41.927 71.517 37.769 C 70.050 34.419 68.203 31.236 66.662 27.917 C 65.757 25.966 65.127 23.889 64.356 21.876 C 64.084 21.168 63.832 20.434 63.424 19.807 C 63.215 19.487 62.672 19.197 62.295 19.214 C 61.574 19.245 60.001 21.210 59.800 21.900 C 58.791 25.378 57.733 28.843 56.675 32.307 C 56.602 32.544 56.389 32.738 56.074 33.195 C 55.630 31.719 55.246 30.484 54.888 29.241 C 54.001 26.179 53.148 23.106 52.222 20.055 C 52.096 19.640 51.631 19.037 51.316 19.034 C 50.792 19.028 50.000 19.296 49.786 19.695 C 49.042 21.085 48.361 22.540 47.906 24.045 C 46.788 27.748 45.652 31.436 43.973 34.928 C 43.807 35.043 43.641 35.158 43.475 35.274 C 43.191 34.818 42.882 34.376 42.627 33.905 C 41.290 31.427 39.970 28.940 38.637 26.459 C 38.146 25.545 37.630 24.644 37.138 23.730 C 36.741 22.993 36.293 22.331 35.303 22.483 C 34.180 22.657 33.660 23.425 33.356 24.441 C 32.802 26.299 32.310 28.183 31.609 29.986 C 30.833 31.980 29.852 33.894 28.871 36.039 C 28.609 35.514 28.305 35.079 28.167 34.597 C 27.533 32.382 26.942 30.155 26.343 27.929 C 26.097 27.014 25.989 26.035 25.587 25.195 C 25.361 24.721 24.659 24.187 24.184 24.197 C 23.702 24.208 22.972 24.765 22.804 25.242 C 21.560 28.773 20.505 32.370 19.228 35.889 C 18.622 37.557 17.641 39.089 16.866 40.699 C 15.277 44.002 13.791 47.357 12.112 50.614 C 10.839 53.083 9.303 55.416 7.949 57.846 C 7.509 58.636 7.308 59.555 6.938 60.388 C 6.451 61.484 5.906 62.556 5.386 63.638 C 5.174 63.603 4.961 63.568 4.749 63.533 C 4.416 62.085 3.908 60.652 3.781 59.187 C 3.387 54.635 2.954 50.073 2.891 45.511 C 2.841 41.905 3.182 38.277 3.595 34.687 C 3.949 31.608 4.468 28.521 5.254 25.527 C 5.868 23.194 6.970 20.983 7.923 18.747 C 8.515 17.359 9.138 15.965 9.918 14.678 C 11.647 11.826 14.053 9.600 16.963 7.997 C 19.267 6.728 21.626 5.501 24.086 4.593 C 25.733 3.985 27.602 3.981 29.369 3.688 C 30.426 3.513 31.470 3.229 32.533 3.123 C 33.803 2.996 35.089 3.031 36.364 2.948 C 37.508 2.873 38.646 2.653 39.789 2.637 C 42.741 2.596 45.695 2.609 48.648 2.653 C 48.805 2.656 48.961 2.668 49.117 2.687 C 49.193 2.665 49.274 2.653 49.368 2.658 C 50.505 2.723 51.645 2.704 52.781 2.766 C 52.813 2.763 52.845 2.762 52.876 2.758 C 52.999 2.745 53.105 2.759 53.196 2.793 C 53.281 2.792 53.367 2.783 53.452 2.787 C 54.435 2.835 55.437 2.945 56.382 3.208 C 58.799 3.881 61.187 4.656 63.589 5.385 C 66.573 6.289 69.032 8.000 71.207 10.190 C 71.806 10.792 72.682 11.127 73.261 11.743 C 74.266 12.815 75.329 13.905 76.032 15.173 C 77.855 18.467 79.289 21.961 79.937 25.679 C 80.546 29.166 80.890 32.700 81.321 36.217 C 81.447 37.242 81.536 38.280 81.534 39.313 C 81.530 42.172 81.591 45.040 81.394 47.889 Z " transform="matrix(1, 0, 0, 1, 42.65, 11)"/>
            <path id="Shape" fill="#32429B" stroke="none" stroke-width="1" d="M 47.864 56.719 C 49.976 56.643 52.083 56.388 54.551 56.185 C 55.721 55.924 57.221 55.504 58.751 55.280 C 59.743 55.133 59.990 54.403 60.194 53.736 C 60.330 53.295 60.153 52.390 59.869 52.269 C 59.313 52.031 58.540 52.047 57.935 52.223 C 55.998 52.785 54.121 53.557 52.173 54.070 C 51.110 54.350 49.950 54.239 48.838 54.359 C 46.854 54.573 44.860 55.117 42.898 55.008 C 38.756 54.776 34.544 54.845 30.570 53.300 C 29.971 53.068 29.289 52.914 28.974 53.786 C 28.647 54.689 29.428 54.901 29.932 55.186 C 31.923 56.309 34.157 56.825 36.368 56.902 C 40.194 57.035 44.033 56.855 47.864 56.719 Z " transform="matrix(1, 0, 0, 1, 42.65, 11)"/>
          </g>
          <g id="Group">
            <path id="Shape" fill="#70CBD2" stroke="none" stroke-width="1" d="M 4.893 9.189 L 2.863 16.515 L 1.379 23.258 L 1.379 25.953 C 1.379 25.953 3.236 28.427 3.538 28.651 C 3.840 28.876 6.997 29.726 8.200 30.050 C 9.403 30.374 13.162 30.101 13.538 30.050 C 13.914 30.000 16.287 29.618 16.996 29.475 C 17.705 29.332 19.553 26.928 19.553 26.928 L 22.409 18.805 L 25.120 12.095 L 24.055 10.148 L 21.959 8.499 L 15.193 6.851 L 11.269 6.851 L 7.306 6.851 L 5.559 7.964 L 4.893 9.189 Z " transform="matrix(1, 0, 0, 1, 63.7, 114.05)"/>
            <path id="Shape" fill="#32429B" stroke="none" stroke-width="1" d="M 4.449 15.314 C 5.119 13.251 5.542 11.108 6.223 9.050 C 6.972 6.781 7.904 4.571 8.722 2.323 C 8.849 1.974 9.238 1.715 9.255 1.372 C 9.276 0.957 8.846 0.499 8.496 0.346 C 7.863 0.068 7.279 0.364 6.941 0.949 C 6.772 1.242 6.748 1.611 6.635 1.932 C 6.487 2.351 6.288 2.751 6.170 3.181 C 5.972 3.900 5.898 4.643 5.589 5.357 C 5.291 6.042 4.913 6.743 4.595 7.414 C 4.620 7.414 4.643 7.417 4.667 7.417 C 4.585 7.812 4.565 8.129 4.454 8.411 C 3.873 9.886 3.179 11.322 2.696 12.828 C 2.058 14.821 1.529 16.854 1.040 18.890 C 0.728 20.186 0.281 21.515 0.090 22.834 C -0.017 23.572 0.016 24.605 0.994 24.589 C 1.708 24.577 1.880 23.988 2.058 23.420 C 2.323 22.571 2.498 21.683 2.734 20.818 C 3.242 18.964 3.855 17.142 4.449 15.314 Z " transform="matrix(1, 0, 0, 1, 63.7, 114.05)"/>
            <path id="Shape" fill="#32429B" stroke="none" stroke-width="1" d="M 26.647 9.270 C 26.597 9.240 26.541 9.220 26.479 9.210 C 26.247 9.177 25.905 9.176 25.684 9.253 C 25.501 9.318 25.366 9.478 25.234 9.618 C 24.966 9.902 24.916 10.371 24.757 10.718 C 24.665 10.917 24.554 11.107 24.428 11.286 C 24.327 11.430 24.051 11.642 24.003 11.798 C 23.729 12.693 23.204 13.565 22.817 14.382 C 22.680 14.669 22.528 14.946 22.369 15.218 C 21.964 16.223 21.561 17.229 21.226 18.258 C 20.599 20.188 19.985 22.122 19.373 24.057 C 19.067 25.025 18.762 25.992 18.456 26.960 C 18.203 27.763 17.748 28.762 18.238 29.573 C 18.480 29.972 18.790 30.110 19.266 30.024 C 19.946 29.902 19.919 29.255 20.096 28.738 C 20.295 28.156 20.705 27.664 20.893 27.063 C 21.781 24.220 22.528 21.329 23.528 18.528 C 23.562 18.432 23.597 18.337 23.633 18.241 C 24.150 16.872 24.832 15.574 25.479 14.263 C 25.746 13.720 25.960 13.117 26.283 12.604 C 26.541 12.195 27.057 11.950 27.259 11.514 C 27.516 10.956 27.281 10.223 27.010 9.721 C 26.920 9.554 26.812 9.365 26.647 9.270 Z " transform="matrix(1, 0, 0, 1, 63.7, 114.05)"/>
          </g>
          <g id="Group">
            <path id="Shape" fill="#70CBD2" stroke="none" stroke-width="1" d="M 22.554 13.185 L 31.200 15.058 L 37.365 16.107 L 39.771 13.634 L 40.874 9.589 L 40.593 7.402 L 39.319 4.193 L 35.486 2.622 L 27.507 1.648 C 27.507 1.648 25.100 1.499 24.880 1.948 C 24.659 2.397 23.531 3.667 23.456 4.193 C 23.381 4.720 23.102 7.866 22.903 8.091 C 22.704 8.315 21.427 12.396 21.539 12.641 C 21.652 12.885 22.554 13.185 22.554 13.185 Z " transform="matrix(1, 0, 0, 1, 40.85, 135.65)"/>
            <path id="Shape" fill="#BDDD9D" stroke="none" stroke-width="1" d="M 38.117 16.107 L 22.028 12.960 L 19.773 23.685 L 19.773 25.546 L 12.555 25.546 L 6.165 27.194 L 2.255 31.239 L 1.787 35.959 L 2.707 40.379 L 7.518 44.349 L 15.938 45.848 L 26.163 45.848 L 32.111 44.874 L 33.756 39.555 L 38.117 17.979 L 38.117 16.107 " transform="matrix(1, 0, 0, 1, 40.85, 135.65)"/>
            <path id="Shape" fill="#32429B" stroke="none" stroke-width="1" d="M 40.820 6.965 C 40.478 7.562 40.236 8.247 40.124 8.595 C 39.560 10.362 38.925 12.107 38.402 13.886 C 38.196 14.586 37.796 14.630 37.231 14.534 C 33.018 13.814 28.803 13.099 24.591 12.369 C 24.172 12.296 23.769 12.134 23.402 12.026 C 23.802 9.666 24.324 7.445 24.527 5.196 C 24.622 4.154 25.621 1.374 24.415 0.636 C 22.907 -0.285 22.616 3.039 22.449 3.753 C 22.028 5.554 21.626 7.361 21.271 9.176 C 20.452 13.355 19.820 17.570 19.162 21.777 C 18.858 23.719 18.412 24.115 16.201 23.974 C 13.578 23.808 11.018 24.042 8.512 24.908 C 5.584 25.919 3.053 27.396 1.785 30.378 C 0.900 32.462 -0.091 34.506 0.341 36.933 C 1.053 40.939 3.421 43.496 7.076 44.991 C 9.974 46.175 12.889 47.293 16.151 46.748 C 16.913 46.620 17.736 46.906 18.529 46.893 C 22.597 46.829 26.673 46.854 30.729 46.586 C 32.606 46.462 33.853 44.636 33.988 42.667 C 34.010 42.351 34.097 42.037 34.168 41.726 C 34.639 39.676 35.128 37.630 35.582 35.576 C 36.100 33.241 36.544 30.890 37.102 28.566 C 37.507 26.881 38.113 25.243 38.505 23.554 C 38.936 21.699 39.144 19.793 39.592 17.943 C 40.168 15.561 41.182 13.317 41.914 10.984 C 42.248 9.923 42.469 8.840 42.704 7.764 C 42.819 7.236 43.082 6.081 42.321 5.878 C 41.724 5.718 41.208 6.286 40.820 6.965 Z M 37.229 18.358 C 36.715 20.483 36.117 22.588 35.602 24.712 C 35.323 25.866 35.137 27.043 34.938 28.215 C 34.646 29.936 34.408 31.665 34.099 33.382 C 33.578 36.271 33.006 39.151 32.482 42.038 C 32.288 43.109 30.884 44.282 29.517 44.344 C 26.531 44.480 23.543 44.847 20.556 44.718 C 19.529 44.781 18.504 44.816 17.477 44.811 C 16.682 44.867 15.884 44.862 15.089 44.795 C 13.011 45.168 11.083 44.135 9.175 43.405 C 7.258 42.669 5.330 41.878 3.963 40.123 C 2.210 37.873 1.929 35.526 2.956 32.940 C 4.791 28.317 8.447 26.571 13.171 26.499 C 13.612 26.492 14.053 26.457 14.494 26.435 C 15.974 26.375 17.406 26.285 18.634 27.480 C 19.474 28.298 20.310 27.962 20.521 26.773 C 21.146 23.268 21.732 19.756 22.248 16.234 C 22.517 14.393 22.656 14.179 24.516 14.544 C 27.887 15.206 31.251 15.902 34.609 16.630 C 35.413 16.804 36.203 17.110 36.948 17.465 C 37.147 17.559 37.295 18.086 37.229 18.358 Z " transform="matrix(1, 0, 0, 1, 40.85, 135.65)"/>
          </g>
          <g id="Group">
            <path id="Shape" fill="#70CBD2" stroke="none" stroke-width="1" d="M 2.255 6.677 L 3.458 10.843 C 3.458 10.843 5.639 12.363 5.864 12.400 C 6.090 12.436 14.886 11.163 14.886 11.163 L 18.045 10.339 L 18.045 8.016 L 17.410 3.971 L 17.066 1.873 L 14.510 1.216 L 10.576 0.599 C 10.576 0.599 8.480 2.094 7.323 2.395 C 6.165 2.697 3.759 3.521 3.684 3.821 C 3.609 4.120 2.255 6.677 2.255 6.677 Z " transform="matrix(1, 0, 0, 1, 98.6, 137.45)"/>
            <path id="Shape" fill="#BDDD9D" stroke="none" stroke-width="1" d="M 18.045 10.338 L 4.210 12.400 L 6.792 24.647 L 9.322 38.506 L 10.576 45.623 L 13.232 46.597 C 13.232 46.597 21.953 46.971 22.254 46.597 C 22.554 46.222 32.854 43.525 32.854 43.525 L 37.966 38.656 L 37.966 33.487 L 34.784 27.606 L 29.245 22.625 L 25.712 21.888 L 21.803 21.888 L 20.449 20.527 L 18.645 10.339 L 18.045 10.339 L 18.045 10.338 Z " transform="matrix(1, 0, 0, 1, 98.6, 137.45)"/>
            <path id="Shape" fill="#32429B" stroke="none" stroke-width="1" d="M 17.041 6.853 C 17.062 6.930 17.064 7.013 17.090 7.088 C 17.837 9.214 18.004 9.310 15.214 9.741 C 13.014 10.080 10.828 10.513 8.636 10.905 C 8.478 10.933 8.320 10.960 8.165 10.999 C 5.747 11.617 5.031 11.340 4.195 9.099 C 3.532 7.325 2.989 5.483 2.219 3.756 C 1.990 3.244 1.709 3.001 1.164 2.971 C -0.466 2.882 1.002 5.704 1.235 6.352 C 1.981 8.426 2.636 10.534 3.202 12.665 C 3.790 14.875 4.075 17.164 4.493 19.420 C 4.579 19.889 4.657 20.359 4.732 20.830 C 5.123 23.314 5.243 25.878 5.963 28.262 C 7.215 32.407 7.533 36.695 8.388 40.894 C 8.745 42.644 9.205 44.407 9.898 46.047 C 10.795 48.169 11.230 48.266 13.420 47.771 C 13.769 47.692 14.136 47.558 14.478 47.600 C 17.091 47.925 19.661 47.865 22.267 47.329 C 26.056 46.548 30.003 46.419 33.390 44.196 C 34.520 43.455 35.935 43.067 36.906 42.178 C 39.626 39.685 39.930 36.034 39.050 32.871 C 37.992 29.069 35.548 26.098 32.622 23.533 C 31.645 22.677 30.595 21.690 29.405 21.336 C 27.435 20.749 25.329 20.580 23.268 20.334 C 22.515 20.244 21.954 20.130 21.756 19.301 C 21.453 18.033 21.019 16.790 20.805 15.508 C 20.477 13.545 20.423 11.530 20.011 9.588 C 19.602 7.666 19.157 5.753 18.686 3.846 C 18.425 2.786 18.208 -0.123 16.502 0.171 C 15.360 0.369 15.698 1.612 15.896 2.303 C 16.327 3.803 16.647 5.341 17.041 6.853 Z M 18.254 13.739 C 18.228 14.789 18.486 15.844 18.577 16.901 C 18.662 17.882 18.804 18.878 18.716 19.849 C 18.581 21.354 19.637 22.730 21.163 22.784 C 21.965 22.814 22.769 22.827 23.570 22.803 C 27.668 22.681 30.876 24.534 33.373 27.542 C 35.218 29.767 36.376 32.441 37.004 35.285 C 37.448 37.291 35.790 40.351 33.995 41.352 C 31.387 42.807 28.687 44.020 25.745 44.539 C 23.202 44.988 20.624 45.268 18.053 45.537 C 16.584 45.690 15.096 45.681 13.616 45.725 C 12.433 45.760 11.610 45.232 11.346 44.055 C 11.010 42.560 10.749 41.048 10.441 39.547 C 10.075 37.757 9.721 35.964 9.312 34.183 C 8.877 32.286 8.385 30.400 7.916 28.511 C 7.887 28.395 7.804 28.281 7.807 28.169 C 7.958 23.268 6.329 18.630 5.622 13.705 C 6.688 13.562 7.703 13.401 8.724 13.293 C 11.464 13.000 14.205 12.734 16.946 12.450 C 17.923 12.348 18.280 12.714 18.254 13.739 Z " transform="matrix(1, 0, 0, 1, 98.6, 137.45)"/>
          </g>
        </g>
        <g id="Layer_2">
          <g id="Group">
            <path id="Shape" fill="#F8EC22" stroke="none" stroke-width="1" d="M 11.526 51.403 L 16.491 54.399 L 20.594 55.073 L 20.067 56.871 L 15.692 62.490 L 12.399 62.490 L 8.364 59.475 L 8.770 54.849 L 11.526 51.403 " transform="matrix(1, 0, 0, 1, 114.85, 63.1)"/>
            <path id="Shape" fill="#70CBD2" stroke="none" stroke-width="1" d="M 7.298 21.960 C 7.539 21.618 7.620 21.361 7.565 21.117 L 5.012 20.876 C 5.012 20.876 3.308 22.774 3.258 23.023 C 3.208 23.273 2.256 26.110 2.256 26.110 C 2.256 26.110 2.557 27.339 2.557 27.554 C 2.557 27.667 2.727 28.116 2.887 28.512 C 3.182 28.121 3.451 27.788 3.680 27.438 C 4.884 25.611 6.036 23.747 7.298 21.960 Z " transform="matrix(1, 0, 0, 1, 114.85, 63.1)"/>
            <g id="Shape">
              <path id="ID0.27364805480465293" fill="#BDDD9D" stroke="none" stroke-width="1" d="M 14.128 39.791 C 17.580 38.262 16.386 35.026 15.847 31.794 L 15.846 31.794 L 15.846 31.794 C 15.845 31.794 15.845 31.794 15.845 31.794 C 15.628 31.883 15.411 31.920 15.199 31.911 C 15.193 31.911 15.187 31.910 15.180 31.909 C 14.975 31.897 14.776 31.840 14.588 31.743 C 14.576 31.737 14.565 31.732 14.553 31.726 C 14.464 31.677 14.375 31.619 14.290 31.552 C 14.279 31.544 14.269 31.534 14.259 31.525 C 14.182 31.462 14.108 31.391 14.037 31.313 C 14.026 31.301 14.016 31.291 14.005 31.279 C 13.931 31.195 13.862 31.102 13.795 31.003 C 13.781 30.981 13.767 30.958 13.752 30.935 C 13.687 30.831 13.623 30.722 13.567 30.603 C 13.035 29.485 12.249 28.485 11.575 27.433 C 11.450 27.236 11.309 27.047 11.212 26.838 C 10.811 25.979 10.456 25.095 10.002 24.266 C 9.920 24.116 9.300 24.039 9.179 24.165 C 7.813 25.597 6.447 27.037 5.177 28.554 C 4.110 29.830 4.268 30.376 5.707 31.257 C 5.871 31.358 6.025 31.495 6.146 31.646 C 7.335 33.131 8.511 34.625 9.700 36.109 C 10.125 36.640 10.504 37.240 11.028 37.651 C 12.324 38.670 12.354 38.663 11.630 40.201 C 11.611 40.242 11.594 40.284 11.574 40.325 C 12.512 40.347 13.392 40.231 14.128 39.791 Z " transform="matrix(1, 0, 0, 1, 114.85, 63.1)"/>
              <path id="ID0.14154399186372757" fill="#BDDD9D" stroke="none" stroke-width="1" d="M 15.199 30.200 L 19.316 28.392 L 24.353 28.392 L 27.134 29.725 L 25.405 33.423 C 25.405 33.423 24.954 34.847 24.804 35.446 C 24.653 36.045 25.856 37.407 26.007 37.888 C 26.157 38.368 28.337 40.690 28.337 40.690 L 32.096 41.064 L 33.901 42.553 L 32.773 47.133 L 29.540 50.279 L 24.550 53.554 C 24.550 53.554 21.721 53.863 21.120 54.019 C 20.518 54.174 15.522 52.751 15.522 52.751 L 10.788 49.080 L 9.498 43.761 L 10.563 39.491 L 13.567 35.521 L 15.786 32.599 L 15.199 30.200 Z " transform="matrix(1, 0, 0, 1, 114.85, 63.1)"/>
              <path id="ID0.5056622009724379" fill="#F8EC22" stroke="none" stroke-width="1" d="M 31.495 40.355 L 29.766 40.234 L 27.285 38.442 L 24.804 35.446 L 35.705 19.836 L 32.698 15.223 L 32.848 8.842 L 35.705 5.031 L 42.020 2.015 L 46.080 2.015 L 46.832 3.233 L 41.193 13.125 L 46.832 17.952 L 54.576 8.842 L 57.432 12.192 L 58.109 17.952 L 57.357 20.754 L 55.102 24.183 L 50.666 26.560 L 47.508 26.385 L 44.426 25.417 L 43.298 25.417 L 31.495 40.355 " transform="matrix(1, 0, 0, 1, 114.85, 63.1)"/>
              <g id="ID0.4715434587560594">
                <path id="ID0.888780053704977" fill="none" stroke="none" stroke-width="1" d="M 28.418 42.041 C 26.936 40.610 25.416 39.208 24.041 37.680 C 22.461 35.921 21.904 34.390 23.984 32.262 C 24.582 31.650 25.049 30.912 25.660 30.124 C 23.065 29.669 20.625 29.152 18.222 30.243 C 17.656 30.500 17.108 30.880 16.672 31.321 C 15.808 32.199 14.974 32.274 13.975 31.411 C 13.990 31.373 14.004 31.332 14.019 31.293 C 14.014 31.289 14.010 31.284 14.006 31.280 C 13.933 31.196 13.863 31.103 13.797 31.004 C 13.782 30.982 13.768 30.959 13.753 30.937 C 13.688 30.832 13.625 30.723 13.568 30.604 C 13.036 29.486 12.250 28.487 11.577 27.434 C 11.451 27.238 11.310 27.048 11.213 26.839 C 10.812 25.980 10.457 25.096 10.003 24.267 C 9.921 24.118 9.301 24.040 9.181 24.166 C 7.814 25.599 6.448 27.038 5.178 28.556 C 4.112 29.832 4.270 30.377 5.708 31.258 C 5.873 31.359 6.027 31.496 6.147 31.647 C 7.336 33.132 8.512 34.627 9.701 36.111 C 9.974 36.451 10.232 36.816 10.517 37.146 C 10.949 37.376 11.275 37.520 11.479 37.759 C 11.677 37.990 11.903 38.290 12.025 38.579 C 12.072 38.667 12.100 38.755 12.105 38.851 C 12.116 38.918 12.120 38.985 12.111 39.047 C 12.006 39.766 11.607 40.449 11.315 41.139 C 10.528 42.999 10.505 44.866 11.286 46.730 C 11.572 47.417 11.855 48.112 12.225 48.755 C 14.253 52.283 18.811 54.243 22.652 52.822 C 26.226 51.500 29.541 49.565 31.169 45.803 C 31.599 44.813 31.754 43.703 32.063 42.541 C 30.455 43.292 29.589 43.171 28.418 42.041 Z " transform="matrix(1, 0, 0, 1, 114.85, 63.1)"/>
                <path id="ID0.7747892057523131" fill="none" stroke="none" stroke-width="1" d="M 12.963 53.112 C 12.084 52.630 11.467 52.727 10.971 53.319 C 9.280 55.332 8.249 57.938 11.142 60.187 C 12.610 61.327 15.499 61.517 16.492 60.360 C 17.662 58.994 18.694 57.511 20.040 55.748 C 17.038 55.964 15.092 54.278 12.963 53.112 Z " transform="matrix(1, 0, 0, 1, 114.85, 63.1)"/>
                <path id="ID0.47561740782111883" fill="none" stroke="none" stroke-width="1" d="M 53.714 11.485 C 52.810 12.544 51.980 13.667 51.087 14.735 C 49.947 16.101 48.758 17.426 47.623 18.795 C 46.757 19.840 45.852 19.258 45.184 18.717 C 43.548 17.391 42.017 15.932 40.484 14.486 C 40.122 14.146 39.587 13.540 39.687 13.241 C 40.071 12.093 40.574 10.952 41.229 9.934 C 42.447 8.038 43.830 6.248 45.065 4.361 C 45.201 4.154 44.927 3.400 44.652 3.255 C 42.925 2.345 41.311 3.143 39.752 3.814 C 37.779 4.663 36.452 6.268 35.080 7.866 C 32.488 10.883 32.827 16.177 36.277 18.516 C 37.770 19.529 37.690 20.127 36.225 21.184 C 36.036 21.320 35.882 21.514 35.741 21.703 C 34.381 23.527 33.035 25.360 31.672 27.181 C 29.828 29.649 28.002 32.133 26.097 34.557 C 25.619 35.165 25.736 35.608 26.151 36.021 C 26.916 36.781 27.755 37.469 28.565 38.184 C 30.584 39.965 31.465 39.850 33.091 37.647 C 33.281 37.388 33.456 37.121 33.628 36.848 C 34.918 35.762 35.954 34.350 36.840 32.937 C 36.943 32.773 36.967 32.612 36.943 32.467 C 36.957 32.457 36.967 32.445 36.981 32.436 C 37.426 32.123 37.768 31.635 38.091 31.181 C 39.698 28.927 41.286 26.660 42.872 24.390 C 43.389 23.648 43.846 23.342 44.837 23.870 C 46.007 24.494 47.364 24.771 48.639 25.198 C 51.834 24.946 55.425 22.353 56.483 19.416 C 57.474 16.665 57.133 14.095 55.610 11.637 C 54.973 10.609 54.517 10.544 53.714 11.485 Z " transform="matrix(1, 0, 0, 1, 114.85, 63.1)"/>
                <path id="ID0.19451299589127302" fill="#32429B" stroke="none" stroke-width="1" d="M 56.036 7.756 C 55.573 7.243 54.612 6.771 54.013 6.900 C 53.420 7.028 52.953 7.904 52.505 8.508 C 51.687 9.611 50.958 10.779 50.130 11.874 C 49.443 12.780 48.617 13.583 47.950 14.502 C 47.398 15.262 46.758 15.814 45.891 15.259 C 44.910 14.630 44.048 13.805 43.185 13.011 C 43.058 12.894 43.120 12.416 43.250 12.202 C 44.002 10.977 44.765 9.756 45.591 8.582 C 46.797 6.871 47.908 5.133 48.219 3.005 C 48.401 1.762 47.767 0.732 46.669 0.555 C 45.696 0.399 44.725 0.233 43.750 0.093 C 43.494 0.056 43.196 0.021 42.971 0.113 C 40.653 1.059 38.587 1.798 36.476 3.133 C 31.658 6.182 28.305 15.350 33.617 19.521 C 34.170 19.955 34.028 20.271 33.661 20.696 C 33.060 21.393 32.496 22.121 31.904 22.826 C 30.391 24.627 28.872 26.422 27.415 28.149 C 26.866 27.854 26.502 27.604 26.101 27.453 C 23.337 26.408 20.521 26.533 17.746 27.314 C 16.944 27.540 16.116 27.960 15.470 28.505 C 15.366 28.438 15.263 28.330 15.157 28.165 C 14.210 26.690 13.185 25.267 12.211 23.809 C 11.490 22.730 10.934 21.509 10.069 20.565 C 9.261 19.681 8.431 18.817 7.601 17.953 L 6.433 19.710 C 6.584 19.864 6.733 20.022 6.885 20.175 C 7.093 20.383 7.216 20.565 7.258 20.755 C 7.314 20.999 7.232 21.255 6.991 21.598 C 5.729 23.384 4.578 25.249 3.374 27.076 C 3.143 27.425 2.876 27.759 2.580 28.150 C 2.552 28.188 2.527 28.219 2.498 28.257 C 2.144 27.906 1.792 27.558 1.442 27.214 L 0.082 29.259 C 0.686 29.846 1.285 30.437 1.870 31.043 C 4.273 33.532 6.587 36.106 8.917 38.664 C 9.060 38.821 9.076 39.157 9.047 39.397 C 9.045 39.413 9.043 39.431 9.042 39.448 C 8.914 39.766 8.798 40.088 8.705 40.417 C 8.408 41.476 8.482 42.632 8.292 43.727 C 7.970 45.564 8.447 47.173 9.459 48.690 C 9.951 49.428 10.344 50.193 9.801 51.134 C 8.954 52.611 7.981 54.059 7.424 55.645 C 6.793 57.443 6.113 59.457 8.301 60.882 C 8.431 60.968 8.535 61.105 8.622 61.237 C 9.777 62.949 11.360 63.974 13.426 64.208 C 15.146 64.404 16.916 64.405 18.037 62.875 C 19.655 60.663 21.078 58.308 22.604 56.028 C 22.768 55.783 23.045 55.566 23.318 55.449 C 24.814 54.804 26.329 54.206 27.828 53.569 C 29.358 52.920 30.466 51.770 31.659 50.636 C 34.343 48.085 35.312 44.596 34.550 40.984 C 34.381 40.185 34.135 39.937 34.594 39.150 C 35.775 37.128 37.523 35.285 38.968 33.441 C 40.567 31.401 42.199 29.389 43.836 27.379 C 44.072 27.088 44.808 27.038 45.266 27.122 C 46.223 27.297 47.133 27.768 48.091 27.881 C 50.197 28.131 51.959 27.363 53.792 26.245 C 56.451 24.623 58.081 22.345 59.202 19.627 C 59.642 18.558 59.818 17.293 59.773 16.129 C 59.647 12.876 58.172 10.129 56.036 7.756 Z M 16.492 60.360 C 15.499 61.517 12.610 61.327 11.142 60.187 C 8.248 57.938 9.280 55.332 10.970 53.319 C 11.467 52.728 12.084 52.631 12.962 53.112 C 15.091 54.278 17.038 55.964 20.039 55.747 C 18.694 57.511 17.662 58.994 16.492 60.360 Z M 31.168 45.804 C 29.540 49.565 26.226 51.500 22.652 52.823 C 18.810 54.244 14.252 52.284 12.224 48.756 C 11.855 48.113 11.572 47.417 11.286 46.731 C 10.504 44.867 10.527 43.000 11.314 41.139 C 11.607 40.450 12.005 39.767 12.111 39.047 C 12.120 38.985 12.116 38.919 12.105 38.852 C 12.099 38.755 12.072 38.667 12.025 38.580 C 11.902 38.290 11.676 37.991 11.479 37.759 C 11.274 37.521 10.949 37.376 10.516 37.146 C 10.231 36.817 9.973 36.452 9.701 36.111 C 8.511 34.627 7.335 33.133 6.146 31.648 C 6.026 31.498 5.872 31.360 5.708 31.259 C 4.269 30.377 4.111 29.832 5.178 28.556 C 6.448 27.039 7.813 25.599 9.180 24.167 C 9.301 24.040 9.920 24.118 10.003 24.267 C 10.457 25.098 10.812 25.980 11.212 26.840 C 11.310 27.049 11.450 27.239 11.576 27.435 C 12.249 28.487 13.035 29.486 13.567 30.605 C 13.624 30.724 13.687 30.833 13.753 30.937 C 13.767 30.960 13.782 30.983 13.796 31.005 C 13.862 31.104 13.932 31.197 14.005 31.281 C 14.010 31.285 14.014 31.290 14.018 31.294 C 14.004 31.333 13.989 31.374 13.974 31.411 C 14.973 32.275 15.808 32.200 16.672 31.322 C 17.108 30.880 17.656 30.500 18.222 30.243 C 20.624 29.153 23.064 29.670 25.659 30.125 C 25.048 30.913 24.581 31.652 23.983 32.263 C 21.903 34.390 22.460 35.921 24.041 37.680 C 25.415 39.210 26.935 40.611 28.418 42.041 C 29.588 43.172 30.454 43.292 32.063 42.541 C 31.754 43.704 31.598 44.813 31.168 45.804 Z M 56.483 19.416 C 55.426 22.353 51.835 24.946 48.640 25.198 C 47.365 24.771 46.008 24.494 44.838 23.870 C 43.847 23.342 43.390 23.648 42.873 24.390 C 41.287 26.659 39.699 28.927 38.092 31.181 C 37.769 31.635 37.428 32.123 36.981 32.436 C 36.967 32.445 36.957 32.457 36.944 32.467 C 36.968 32.612 36.944 32.773 36.841 32.937 C 35.955 34.350 34.918 35.762 33.629 36.848 C 33.457 37.120 33.282 37.388 33.092 37.647 C 31.465 39.851 30.585 39.965 28.566 38.184 C 27.756 37.469 26.917 36.781 26.152 36.021 C 25.737 35.608 25.620 35.165 26.098 34.557 C 28.002 32.134 29.828 29.649 31.673 27.181 C 33.035 25.359 34.381 23.527 35.741 21.703 C 35.882 21.514 36.036 21.320 36.226 21.184 C 37.690 20.128 37.771 19.529 36.278 18.516 C 32.828 16.177 32.488 10.882 35.080 7.866 C 36.452 6.268 37.779 4.663 39.753 3.814 C 41.312 3.143 42.925 2.345 44.653 3.255 C 44.927 3.400 45.201 4.154 45.066 4.361 C 43.831 6.247 42.448 8.038 41.229 9.934 C 40.574 10.952 40.071 12.093 39.687 13.241 C 39.587 13.540 40.123 14.146 40.484 14.486 C 42.018 15.932 43.549 17.391 45.184 18.717 C 45.852 19.258 46.757 19.840 47.623 18.795 C 48.759 17.426 49.947 16.100 51.087 14.735 C 51.981 13.666 52.810 12.544 53.715 11.485 C 54.518 10.544 54.974 10.610 55.611 11.637 C 57.134 14.095 57.475 16.665 56.483 19.416 Z " transform="matrix(1, 0, 0, 1, 114.85, 63.1)"/>
              </g>
            </g>
          </g>
          <g id="Group">
            <path id="Shape" fill="#70CBD2" stroke="none" stroke-width="1" d="M 44.674 23.531 C 43.668 24.890 42.754 26.327 41.809 27.733 C 41.292 28.502 41.341 29.099 42.390 29.588 C 43.524 30.116 44.550 30.913 45.539 31.697 C 46.515 32.471 47.386 33.374 48.350 34.263 C 48.824 33.732 49.223 33.177 49.727 32.742 C 50.404 32.156 51.081 31.570 51.764 30.991 C 52.050 30.750 52.419 30.325 52.782 30.026 L 52.701 29.302 L 52.701 28.203 L 50.752 26.094 L 48.196 23.731 L 45.790 23.069 L 45.058 23.069 C 45.025 23.158 44.988 23.244 44.933 23.315 C 44.879 23.385 44.786 23.461 44.674 23.531 Z " transform="matrix(1, 0, 0, 1, 9, 61.3)"/>
            <g id="Shape">
              <path id="ID0.29792455583810806" fill="#BDDD9D" stroke="none" stroke-width="1" d="M 36.995 35.533 L 32.334 35.533 L 32.334 36.935 C 32.334 36.935 33.011 39.593 33.086 39.998 C 33.161 40.402 32.710 43.399 32.710 43.399 L 29.853 45.600 L 26.771 46.771 L 23.463 46.771 L 20.958 45.966 C 20.958 45.966 19.328 47.070 19.328 47.370 C 19.328 47.670 19.403 50.142 19.328 50.441 C 19.252 50.741 21.207 55.664 21.207 55.664 L 24.290 58.495 L 29.026 61.586 C 29.026 61.586 34.147 62.002 34.443 61.877 C 34.740 61.753 38.574 60.684 38.799 60.469 C 39.025 60.255 43.413 57.783 43.413 57.783 L 45.867 52.929 L 45.059 47.894 L 42.774 43.624 L 39.803 41.452 L 36.995 35.533 Z " transform="matrix(1, 0, 0, 1, 9, 61.3)"/>
              <path id="ID0.06894243229180574" fill="#BDDD9D" stroke="none" stroke-width="1" d="M 40.078 46.096 C 41.031 46.286 41.923 46.292 42.774 46.177 C 42.411 45.620 42.012 45.082 41.580 44.557 C 40.763 43.565 40.887 42.839 41.966 42.040 C 42.155 41.901 42.289 41.688 42.455 41.516 C 43.425 40.513 44.360 39.473 45.379 38.520 C 46.684 37.298 46.741 36.618 45.494 35.438 C 45.293 35.247 45.127 35.016 44.919 34.832 C 43.586 33.658 42.262 32.472 40.900 31.332 C 40.348 30.870 39.912 31.037 39.589 31.710 C 38.794 33.365 37.844 34.954 37.160 36.652 C 36.652 37.910 35.818 37.850 34.837 37.608 C 34.693 37.573 34.553 37.517 34.416 37.454 C 34.370 41.355 35.414 45.167 40.078 46.096 Z " transform="matrix(1, 0, 0, 1, 9, 61.3)"/>
              <path id="ID0.3648052760399878" fill="#F8EC22" stroke="none" stroke-width="1" d="M 44.373 58.495 L 32.596 62.353 L 34.460 66.248 L 37.747 68.870 L 42.774 69.447 L 47.128 67.372 L 48.307 65.104 L 47.136 61.229 L 44.373 58.495 " transform="matrix(1, 0, 0, 1, 9, 61.3)"/>
              <path id="ID0.2622922584414482" fill="#F8EC22" stroke="none" stroke-width="1" d="M 33.086 40.178 L 32.710 43.399 L 28.800 46.253 L 25.104 47.295 L 22.034 45.600 L 16.320 35.533 L 15.869 31.984 L 16.922 30.731 L 9.930 16.461 L 3.389 16.955 L 1.886 4.968 L 9.404 1.697 L 19.703 9.957 L 19.779 11.436 L 14.290 14.303 L 23.162 29.639 L 25.643 28.834 L 33.086 40.178 " transform="matrix(1, 0, 0, 1, 9, 61.3)"/>
              <g id="ID0.36733507039025426">
                <path id="ID0.2402855223044753" fill="none" stroke="none" stroke-width="1" d="M 17.134 28.330 C 17.551 29.270 17.887 30.267 18.447 31.117 C 18.801 31.656 19.497 31.973 19.764 32.178 C 21.409 32.202 21.743 31.983 21.449 30.798 C 21.153 29.603 20.577 28.440 19.942 27.370 C 17.678 23.555 15.261 19.828 13.059 15.978 C 12.145 14.382 12.127 14.074 14.111 13.344 C 15.125 12.970 16.133 12.568 17.110 12.108 C 18.033 11.674 18.240 10.782 17.560 10.077 C 15.668 8.119 13.760 6.175 11.805 4.280 C 10.835 3.341 9.725 2.970 8.332 3.593 C 7.212 4.096 5.962 4.303 4.791 4.705 C 4.051 4.958 3.363 5.246 3.478 6.326 C 3.799 9.363 4.004 12.412 4.341 15.447 C 4.368 15.685 5.100 16.054 5.458 16.008 C 6.742 15.843 8.002 15.499 9.283 15.285 C 9.568 15.237 10.015 15.342 10.181 15.546 C 10.626 16.089 10.988 16.706 11.329 17.324 C 12.190 18.883 13.015 20.463 13.865 22.028 C 14.925 23.975 15.999 25.913 17.056 27.860 C 17.127 27.993 17.072 28.189 17.134 28.330 Z " transform="matrix(1, 0, 0, 1, 9, 61.3)"/>
                <path id="ID0.4281166731379926" fill="none" stroke="none" stroke-width="1" d="M 41.833 30.503 L 41.830 30.500 L 41.834 30.503 L 41.833 30.503 " transform="matrix(1, 0, 0, 1, 9, 61.3)"/>
                <path id="ID0.11223898455500603" fill="none" stroke="none" stroke-width="1" d="M 26.969 45.685 C 28.110 45.057 29.250 44.401 30.290 43.625 C 31.722 42.556 31.971 41.329 31.124 39.696 C 30.488 38.470 29.707 37.320 29.002 36.130 C 28.597 35.445 28.273 34.706 27.807 34.068 C 26.828 32.729 25.780 31.439 24.757 30.126 C 24.012 31.481 24.742 32.979 23.298 33.933 C 20.723 35.636 18.631 35.261 16.866 32.576 C 16.767 32.685 16.669 32.795 16.570 32.904 C 16.658 33.556 16.586 34.289 16.866 34.844 C 17.579 36.250 18.420 37.596 19.264 38.931 C 20.435 40.780 21.632 42.614 22.866 44.422 C 23.481 45.323 26.136 46.144 26.969 45.685 Z " transform="matrix(1, 0, 0, 1, 9, 61.3)"/>
                <path id="ID0.6407659677788615" fill="none" stroke="none" stroke-width="1" d="M 43.841 59.098 C 40.790 61.086 37.749 63.002 33.593 63.204 C 34.927 64.820 35.824 66.253 37.047 67.311 C 39.012 69.008 43.257 68.522 45.734 66.655 C 46.788 65.861 46.951 64.965 46.740 63.748 C 46.402 61.797 45.323 60.359 43.841 59.098 Z " transform="matrix(1, 0, 0, 1, 9, 61.3)"/>
                <path id="ID0.40874542528763413" fill="none" stroke="none" stroke-width="1" d="M 44.384 52.008 C 44.569 49.858 43.814 47.876 42.642 46.063 C 42.468 45.794 42.296 45.523 42.124 45.252 C 41.948 45.018 41.769 44.786 41.581 44.557 C 41.271 44.180 41.098 43.842 41.059 43.523 C 40.951 43.341 40.837 43.163 40.733 42.979 C 40.615 42.770 40.678 42.297 40.843 42.138 C 41.000 41.989 41.412 42.039 41.693 42.095 C 41.747 42.107 41.792 42.128 41.843 42.140 C 41.886 42.106 41.920 42.073 41.966 42.039 C 42.155 41.900 42.289 41.688 42.455 41.516 C 43.425 40.513 44.360 39.472 45.379 38.519 C 46.684 37.297 46.741 36.617 45.494 35.437 C 45.293 35.246 45.127 35.016 44.919 34.832 C 43.586 33.658 42.262 32.471 40.900 31.331 C 40.348 30.869 39.912 31.036 39.589 31.710 C 38.794 33.364 37.844 34.954 37.160 36.651 C 36.652 37.910 35.818 37.850 34.837 37.608 C 34.693 37.572 34.553 37.516 34.416 37.454 C 34.416 37.400 34.416 37.348 34.417 37.295 C 34.417 37.294 34.417 37.294 34.417 37.293 C 34.280 37.241 34.142 37.190 34.004 37.168 C 33.690 37.119 33.361 37.158 32.781 37.158 C 33.202 37.158 33.893 38.771 34.023 39.142 C 34.317 39.979 34.387 40.877 34.253 41.752 C 33.991 43.472 32.964 44.982 31.535 45.957 C 28.743 47.863 24.543 49.983 21.609 47.009 C 20.210 47.906 20.057 49.274 20.374 50.476 C 20.783 52.025 21.496 53.534 22.310 54.925 C 23.502 56.965 25.356 58.494 27.435 59.467 C 28.892 60.151 30.700 60.305 32.351 60.304 C 34.124 60.302 35.919 59.944 37.663 59.558 C 41.055 58.810 44.089 55.439 44.384 52.008 Z " transform="matrix(1, 0, 0, 1, 9, 61.3)"/>
                <g id="ID0.3888487806543708">
                  <path id="ID0.5404735989868641" fill="none" stroke="none" stroke-width="1" d="M 42.890 21.780 C 42.875 21.802 42.859 21.824 42.844 21.846 L 42.852 21.872 L 42.890 21.780 Z " transform="matrix(1, 0, 0, 1, 9, 61.3)"/>
                  <path id="ID0.9418143006041646" fill="none" stroke="none" stroke-width="1" d="M 41.833 30.503 L 41.830 30.500 L 41.834 30.503 L 41.833 30.503 " transform="matrix(1, 0, 0, 1, 9, 61.3)"/>
                  <path id="ID0.005065626464784145" fill="none" stroke="none" stroke-width="1" d="M 44.674 23.531 L 44.495 23.630 C 44.558 23.599 44.620 23.566 44.674 23.531 Z " transform="matrix(1, 0, 0, 1, 9, 61.3)"/>
                  <path id="ID0.855939176864922" fill="none" stroke="none" stroke-width="1" d="M 17.134 28.330 C 17.551 29.270 17.887 30.267 18.447 31.117 C 18.801 31.656 19.497 31.973 19.764 32.178 C 21.409 32.202 21.743 31.983 21.449 30.798 C 21.153 29.603 20.577 28.440 19.942 27.370 C 17.678 23.555 15.261 19.828 13.059 15.978 C 12.145 14.382 12.127 14.074 14.111 13.344 C 15.125 12.970 16.133 12.568 17.110 12.108 C 18.033 11.674 18.240 10.782 17.560 10.077 C 15.668 8.119 13.760 6.175 11.805 4.280 C 10.835 3.341 9.725 2.970 8.332 3.593 C 7.212 4.096 5.962 4.303 4.791 4.705 C 4.051 4.958 3.363 5.246 3.478 6.326 C 3.799 9.363 4.004 12.412 4.341 15.447 C 4.368 15.685 5.100 16.054 5.458 16.008 C 6.742 15.843 8.002 15.499 9.283 15.285 C 9.568 15.237 10.015 15.342 10.181 15.546 C 10.626 16.089 10.988 16.706 11.329 17.324 C 12.190 18.883 13.015 20.463 13.865 22.028 C 14.925 23.975 15.999 25.913 17.056 27.860 C 17.127 27.993 17.072 28.189 17.134 28.330 Z " transform="matrix(1, 0, 0, 1, 9, 61.3)"/>
                  <path id="ID0.40764416521415114" fill="none" stroke="none" stroke-width="1" d="M 44.920 34.832 C 43.587 33.658 42.263 32.472 40.901 31.332 C 40.349 30.870 39.913 31.037 39.590 31.710 C 38.795 33.365 37.845 34.954 37.161 36.652 C 36.654 37.910 35.819 37.850 34.838 37.608 C 34.694 37.573 34.554 37.517 34.417 37.454 C 34.417 37.401 34.417 37.348 34.419 37.295 C 34.419 37.295 34.419 37.294 34.419 37.294 C 34.281 37.242 34.144 37.190 34.005 37.169 C 33.691 37.120 33.362 37.159 32.783 37.159 C 33.204 37.159 33.895 38.771 34.025 39.142 C 34.319 39.979 34.388 40.878 34.254 41.752 C 33.992 43.473 32.965 44.982 31.536 45.957 C 28.744 47.864 24.544 49.983 21.610 47.010 C 20.211 47.907 20.058 49.274 20.375 50.477 C 20.784 52.025 21.498 53.535 22.311 54.926 C 23.503 56.965 25.357 58.495 27.436 59.468 C 28.893 60.151 30.702 60.305 32.352 60.304 C 34.125 60.303 35.920 59.945 37.665 59.559 C 41.055 58.810 44.089 55.440 44.383 52.009 C 44.569 49.858 43.813 47.876 42.641 46.064 C 42.467 45.795 42.296 45.523 42.123 45.253 C 41.947 45.018 41.768 44.786 41.580 44.557 C 41.270 44.181 41.097 43.843 41.059 43.524 C 40.951 43.342 40.836 43.163 40.732 42.979 C 40.614 42.771 40.677 42.297 40.843 42.139 C 41.000 41.989 41.412 42.040 41.692 42.096 C 41.746 42.107 41.791 42.128 41.843 42.141 C 41.886 42.107 41.919 42.074 41.966 42.040 C 42.154 41.901 42.288 41.688 42.455 41.516 C 43.425 40.513 44.360 39.473 45.378 38.520 C 46.684 37.298 46.740 36.618 45.494 35.438 C 45.293 35.247 45.128 35.016 44.920 34.832 Z " transform="matrix(1, 0, 0, 1, 9, 61.3)"/>
                  <path id="ID0.01608532853424549" fill="none" stroke="none" stroke-width="1" d="M 26.969 45.685 C 28.110 45.057 29.250 44.401 30.290 43.625 C 31.722 42.556 31.971 41.329 31.124 39.696 C 30.488 38.470 29.707 37.320 29.002 36.130 C 28.597 35.445 28.273 34.706 27.807 34.068 C 26.828 32.729 25.780 31.439 24.757 30.126 C 24.012 31.481 24.742 32.979 23.298 33.933 C 20.723 35.636 18.631 35.261 16.866 32.576 C 16.767 32.685 16.669 32.795 16.570 32.904 C 16.658 33.556 16.586 34.289 16.866 34.844 C 17.579 36.250 18.420 37.596 19.264 38.931 C 20.435 40.780 21.632 42.614 22.866 44.422 C 23.481 45.323 26.136 46.144 26.969 45.685 Z " transform="matrix(1, 0, 0, 1, 9, 61.3)"/>
                  <path id="ID0.9130905559286475" fill="none" stroke="none" stroke-width="1" d="M 43.841 59.098 C 40.790 61.086 37.749 63.002 33.593 63.204 C 34.927 64.820 35.824 66.253 37.047 67.311 C 39.012 69.008 43.257 68.522 45.734 66.655 C 46.788 65.861 46.951 64.965 46.740 63.748 C 46.402 61.797 45.323 60.359 43.841 59.098 Z " transform="matrix(1, 0, 0, 1, 9, 61.3)"/>
                  <path id="ID0.8489345274865627" fill="#32429B" stroke="none" stroke-width="1" d="M 54.472 29.957 C 54.123 29.642 53.703 29.552 53.244 29.728 C 53.097 29.785 52.940 29.894 52.783 30.024 C 52.420 30.324 52.050 30.748 51.765 30.990 C 51.082 31.569 50.404 32.155 49.728 32.741 C 49.224 33.177 48.825 33.731 48.351 34.262 C 47.387 33.373 46.516 32.470 45.540 31.696 C 44.550 30.912 43.524 30.114 42.391 29.586 C 41.341 29.097 41.292 28.501 41.810 27.732 C 42.755 26.326 43.668 24.889 44.675 23.530 C 44.620 23.564 44.559 23.597 44.496 23.629 L 44.675 23.530 L 45.060 23.067 C 45.186 22.732 45.170 22.308 45.041 22.003 C 44.792 21.409 44.084 21.071 43.470 21.312 C 42.809 21.570 42.398 22.505 42.074 23.073 C 40.061 26.604 38.441 30.358 36.669 34.023 C 36.528 34.313 36.369 34.540 36.184 34.703 C 36.160 34.648 36.134 34.592 36.115 34.544 C 35.462 34.502 34.953 34.587 34.550 34.420 C 33.600 34.027 32.692 33.808 31.674 34.171 C 31.447 34.251 30.979 34.065 30.818 33.855 C 29.950 32.717 29.142 31.533 28.314 30.364 C 27.463 29.163 26.751 27.573 25.103 27.560 C 23.412 27.545 22.459 27.250 21.717 25.504 C 20.769 23.272 19.222 21.293 17.951 19.195 C 17.210 17.973 16.505 16.730 15.721 15.390 C 16.533 15.054 17.271 14.841 17.909 14.463 C 18.880 13.887 20.035 13.378 20.656 12.515 C 21.553 11.267 21.036 9.539 19.759 8.310 C 18.647 7.240 17.530 6.172 16.365 5.161 C 14.556 3.592 12.706 2.071 10.869 0.535 C 10.635 0.339 10.393 0.208 10.147 0.123 C 9.369 0.294 8.594 0.480 7.822 0.681 C 7.453 0.974 7.106 1.308 6.688 1.439 C 5.805 1.715 4.900 1.926 3.991 2.117 C 2.986 2.582 1.976 3.038 0.960 3.481 C 0.722 4.060 0.398 4.708 0.550 5.185 C 1.297 7.534 1.534 9.914 1.602 12.360 C 1.652 14.176 1.992 15.986 2.234 17.795 C 2.361 18.743 3.239 18.850 3.857 18.789 C 5.493 18.627 7.109 18.264 8.937 17.944 C 11.186 21.964 13.391 25.884 15.556 29.826 C 15.706 30.099 15.715 30.673 15.532 30.871 C 14.066 32.454 13.969 34.269 14.796 36.075 C 15.547 37.709 16.590 39.210 17.515 40.764 C 18.270 42.031 19.042 43.288 19.814 44.560 C 17.583 47.173 17.204 50.031 18.205 53.056 C 19.285 56.318 21.327 58.953 24.201 60.838 C 25.506 61.693 27.018 62.246 28.467 62.865 C 29.686 63.387 31.222 63.193 32.095 64.487 C 32.672 65.343 33.213 66.227 33.837 67.047 C 34.627 68.086 35.298 69.597 36.355 69.973 C 38.296 70.663 40.473 70.789 42.566 70.933 C 44.376 71.057 45.793 69.861 47.304 69.054 C 48.759 68.279 50.024 65.909 49.622 64.330 C 49.008 61.919 48.157 59.601 46.174 57.872 C 45.927 57.657 46.002 56.965 46.074 56.518 C 46.178 55.872 46.486 55.257 46.577 54.611 C 46.703 53.725 46.701 52.821 46.764 51.926 C 46.790 51.576 46.846 51.230 46.881 50.882 C 47.087 48.799 46.499 46.896 45.269 45.266 C 44.843 44.704 44.442 44.094 43.976 43.553 C 43.942 43.255 43.965 42.975 44.075 42.822 C 45.245 41.193 46.692 39.762 47.866 38.134 C 49.165 36.333 50.435 34.562 52.259 33.213 C 52.997 32.669 53.509 32.166 54.056 31.470 C 54.465 30.950 55.200 30.615 54.472 29.957 Z M 42.890 21.780 L 42.852 21.873 L 42.844 21.847 C 42.859 21.825 42.874 21.802 42.890 21.780 Z M 41.833 30.503 L 41.830 30.500 L 41.833 30.503 Z M 13.865 22.029 C 13.014 20.465 12.190 18.884 11.329 17.325 C 10.989 16.707 10.626 16.090 10.181 15.547 C 10.015 15.344 9.568 15.238 9.283 15.286 C 8.003 15.500 6.742 15.843 5.458 16.009 C 5.100 16.055 4.368 15.686 4.341 15.448 C 4.004 12.414 3.799 9.364 3.478 6.328 C 3.363 5.248 4.051 4.959 4.791 4.706 C 5.962 4.304 7.212 4.097 8.332 3.595 C 9.725 2.971 10.835 3.341 11.805 4.281 C 13.759 6.177 15.668 8.120 17.560 10.079 C 18.240 10.783 18.033 11.675 17.110 12.109 C 16.133 12.569 15.125 12.971 14.111 13.345 C 12.127 14.076 12.145 14.382 13.059 15.979 C 15.261 19.828 17.678 23.556 19.942 27.371 C 20.577 28.442 21.153 29.604 21.449 30.799 C 21.743 31.984 21.410 32.202 19.764 32.180 C 19.497 31.974 18.801 31.657 18.447 31.118 C 17.887 30.268 17.551 29.271 17.134 28.331 C 17.072 28.190 17.127 27.994 17.056 27.863 C 15.999 25.914 14.924 23.976 13.865 22.029 Z M 19.266 38.932 C 18.421 37.596 17.580 36.250 16.868 34.844 C 16.587 34.289 16.659 33.557 16.571 32.905 C 16.670 32.796 16.768 32.686 16.868 32.577 C 18.632 35.261 20.724 35.636 23.299 33.934 C 24.743 32.980 24.013 31.481 24.758 30.126 C 25.781 31.440 26.829 32.729 27.808 34.069 C 28.274 34.706 28.597 35.446 29.003 36.130 C 29.709 37.321 30.490 38.471 31.125 39.696 C 31.972 41.330 31.723 42.556 30.291 43.625 C 29.251 44.402 28.111 45.058 26.970 45.686 C 26.137 46.145 23.482 45.323 22.868 44.423 C 21.634 42.614 20.436 40.781 19.266 38.932 Z M 46.740 63.748 C 46.950 64.965 46.788 65.860 45.734 66.655 C 43.257 68.522 39.011 69.008 37.047 67.311 C 35.823 66.253 34.927 64.821 33.593 63.204 C 37.748 63.002 40.790 61.087 43.840 59.098 C 45.323 60.359 46.402 61.797 46.740 63.748 Z M 45.379 38.519 C 44.361 39.472 43.426 40.513 42.456 41.516 C 42.290 41.688 42.155 41.900 41.967 42.039 C 41.920 42.073 41.887 42.106 41.844 42.140 C 41.792 42.128 41.747 42.106 41.694 42.095 C 41.413 42.039 41.001 41.989 40.844 42.138 C 40.679 42.297 40.615 42.771 40.733 42.979 C 40.837 43.163 40.952 43.341 41.060 43.523 C 41.098 43.842 41.271 44.180 41.581 44.557 C 41.769 44.786 41.949 45.018 42.124 45.252 C 42.298 45.522 42.468 45.794 42.642 46.063 C 43.814 47.876 44.570 49.858 44.385 52.008 C 44.090 55.439 41.056 58.810 37.666 59.558 C 35.921 59.945 34.126 60.302 32.353 60.304 C 30.702 60.305 28.894 60.151 27.437 59.467 C 25.358 58.494 23.503 56.965 22.312 54.925 C 21.499 53.534 20.785 52.025 20.377 50.476 C 20.060 49.274 20.213 47.906 21.611 47.009 C 24.545 49.983 28.746 47.863 31.538 45.957 C 32.966 44.982 33.993 43.472 34.256 41.752 C 34.389 40.877 34.320 39.978 34.026 39.142 C 33.896 38.771 33.205 37.158 32.784 37.158 C 33.363 37.158 33.692 37.119 34.007 37.168 C 34.145 37.190 34.283 37.241 34.420 37.293 C 34.420 37.294 34.420 37.294 34.420 37.295 C 34.419 37.348 34.419 37.400 34.418 37.454 C 34.556 37.516 34.695 37.572 34.839 37.608 C 35.821 37.850 36.655 37.910 37.162 36.651 C 37.846 34.954 38.796 33.365 39.591 31.710 C 39.915 31.036 40.351 30.870 40.902 31.331 C 42.264 32.472 43.588 33.658 44.922 34.832 C 45.130 35.016 45.295 35.246 45.497 35.437 C 46.741 36.618 46.685 37.297 45.379 38.519 Z " transform="matrix(1, 0, 0, 1, 9, 61.3)"/>
                </g>
              </g>
            </g>
          </g>
        </g>
      </g>
    </g>
  </g>
</svg>