<svg width="107px" height="139px" viewBox="0 0 107 139" version="1.1" xml:space="preserve" xmlns="http://www.w3.org/2000/svg" xmlns:xlink="http://www.w3.org/1999/xlink">
  <!-- Generator: Sketch 52.4 (67378) - http://www.bohemiancoding.com/sketch -->
  <g>
    <title>Slice 1</title>
    <desc>Created with Sketch.</desc>
    <g id="Page-1" stroke="none" stroke-width="1" fill="none" fill-rule="evenodd">
      <g id="ben-a-[sports,soccer,football,people,alex-eben-meyer]">
        <g id="Group-7" transform="translate(23.000000, 84.000000)">
          <path d="M11.085,14.27 C10.16,19.405 8.625,26.6 8.455,27.425 L20.315,27.775 C21.065,26.54 25.51,17.555 27.28,14.275 L11.085,14.27 Z" id="Shape" fill="#824600"/>
          <path d="M25.95,20.145 C25.95,20.145 35.2,2.685 35.45,0.065 L12.9,0.65 C11.84,2.815 11.71,5.845 11.13,8.18 C10.1057283,12.1620794 8.8434604,16.079117 7.35,19.91 L25.95,20.145 Z" id="Shape" fill="#000000"/>
          <g id="Group-6" transform="translate(0.000000, 26.000000)">
            <path d="M21.905,0.1 C17.33,0.15 12.75,0.1 8.175,0.265 C5.88,8.64 2.745,17.115 0.935,25.55 L1.27,26.2 C1.08,26.605 0.13,27.935 0.735,28.51 L1.28,28.555 C1.53,27.6 1.72,26.625 2.55,25.97 C3.23,26.06 3.935,25.79 4.67,26.13 L3.91,28.295 L4.675,28.58 C5.415,26.83 5.36,26.08 7.49,26.08 L6.81,27.695 C7.615,29.17 8.07,26.28 8.42,26.02 C9.16,26.18 10.03,25.56 10.73,26.02 C10.5268397,26.875348 10.2508321,27.711734 9.905,28.52 L10.82,28.695 C10.98,27.595 11.105,26.58 11.78,25.64 C12.6,25.775 13.54,26.24 14.145,25.5 L13.69,24.875 C11.515,25.005 8.875,24.725 6.8,25.295 C7.115,23.915 8.51,22.385 9.24,21.22 C10.8533333,18.633333 12.46,16.043333 14.06,13.45 C16.52,9.45 19.25,5.565 21.195,1.3 C21.472399,0.949892 21.6964904,0.560681 21.86,0.145 L21.905,0.1 Z" id="Shape" fill="#000000"/>
            <polygon id="Shape" fill="#BE0A3C" points="11.175 13.44 3.1 13.22 4.285 8.995 11.545 9.145"/>
            <path d="M14.965,5.085 C21.785,6.365 16.22,20.22 10.5,20.62 C3.105,21.12 8.81,5.12 14.955,5.12 L14.965,5.085 Z" id="Shape" fill="#F01446"/>
          </g>
        </g>
        <g id="Group-5" transform="translate(31.000000, 75.000000)">
          <path d="M44.375,7.455 C42.96,7.035 32.21,6.545 32.21,6.545 L32.44,19.235 C34.885,19.935 41.835,18.965 44.125,18.13 C44.475,16.1 44.35,9.165 44.375,7.455 Z" id="Shape" fill="#A0640A"/>
          <g id="Group-4" transform="translate(42.000000, 0.000000)">
            <path d="M27.365,8.645 L27.365,8.09 L26.82,7.805 C26.185,7.98 25.61,8.27 24.89,8.05 L25.02,6.665 C25.5821468,6.3070194 26.2456565,6.1420196 26.91,6.195 L27.21,5.695 C26.48,4.97 25.885,5.785 25.055,5.225 C25.055,4.35 26.12,1.54 25.29,0.85 L24.595,0.92 C24.36,3.095 24.015,8.195 24.015,8.195 L0.925,6.395 L0.175,19.545 L26.62,14.18 L26.69,13.435 L24.05,13.435 C24.05,13.435 24.05,12.11 24.11,11.77 L26.865,11.445 L27.01,10.86 C26.405,10.29 25.23,10.7 24.455,10.22 L24.83,9.22 L27.365,8.645 Z" id="Shape" fill="#000000"/>
            <polygon id="Shape" fill="#BE0A3C" points="13.615 17.625 13.865 9.175 9.645 10.365 9.365 18.335"/>
            <path d="M19.97,8.325 C19.97,12.465 8.78,12.425 6.18,10.075 C-0.5,4.055 19.86,4.185 19.97,8.325 Z" id="Shape" fill="#F01446"/>
          </g>
          <path d="M0.96,2.785 C6.99,2.785 37.72,5.215 37.72,5.215 L36.515,20.215 C36.515,20.215 18.08,20.56 14.015,20.185 C5.5,19.39 -2.18,11.795 0.96,2.785 Z" id="Shape" fill="#000000"/>
        </g>
        <g id="Group-3" transform="translate(34.000000, 0.000000)">
          <path d="M34.165,33.155 C34.165,33.155 39.94,34.735 41.52,29.28 C43.1,23.825 35.145,25.35 34.085,28.095 C33.605,29.34 34.165,33.155 34.165,33.155 Z" id="Shape" fill="#824600"/>
          <path d="M36.54,13.92 C36,13.265 27.15,11.355 27.15,11.355 L7.65,22.01 C8.1118156,24.2275917 8.7300272,26.4097117 9.5,28.54 C11.755,33.95 15.675,39.825 19.77,41.13 C21.985,41.835 30.47,42.77 34.73,38.2 C37.2,35.55 39.765,30.2 39.64,24.35 C39.57,20.095 37.19,14.705 36.54,13.92 Z" id="Shape" fill="#A0640A"/>
          <path d="M5.65,9.47 L6.22,9.12 C5.36,6.725 3.28,2.87 7.22,2.12 C9.6,1.65 13.12,4.27 13.85,6.485 C14.245,6.655 14.245,6.655 14.605,6.345 C14.255,4.52 13.51,2.265 15.04,0.845 C19.57,-1.755 21.765,4.68 24.32,7.215 L24.87,7.115 C25.32,5.115 23.945,2.29 26.945,2.21 C28.91,2.16 29.81,3.895 30.82,5.21 C33.195,8.305 36.58,13.945 36.58,13.945 C36.58,13.945 36.615,17.4 31.365,18.35 C28.745,18.85 24.29,16.135 17.365,18.85 C10.44,21.565 10.595,30.955 10.595,30.955 C10.595,30.955 3.08,17 2.22,15 C1.57,13.5 -0.4,9.07 1.22,7.795 C2.5,6.775 4.66,8.8 5.65,9.47 Z" id="Shape" fill="#000000"/>
          <path d="M11.765,32.655 C11.765,32.655 5.99,34.235 4.41,28.78 C2.83,23.325 10.785,24.85 11.845,27.595 C12.325,28.84 11.765,32.655 11.765,32.655 Z" id="Shape" fill="#A0640A"/>
          <path d="M22.605,31.23 C25.605,31.575 28.3,32.615 31.075,33.79 C29.68,38.54 19.825,35.58 22.605,31.23 Z" id="Shape" fill="#000000"/>
          <path d="M28.025,29.71 C26.305,26.735 32.805,24.025 33.61,28.445 C34.235,31.865 30.03,30.25 28.025,29.71 Z" id="Shape" fill="#824600"/>
          <path d="M22.46,26.78 L22.085,27.82 L21.35,27.75 C21.16,26.5 22.06,24.715 22.46,26.78 Z" id="Shape" fill="#000000"/>
          <path d="M37.42,29.245 L36.83,29.165 L36.575,27.75 C36.955,27.33 36.955,27.33 37.4,27.46 C37.6489966,28.0275514 37.6562175,28.672012 37.42,29.245 Z" id="Shape" fill="#000000"/>
        </g>
        <g id="Group-2" transform="translate(49.000000, 47.000000)">
          <path d="M54.345,15.285 C53.745,14.725 57.425,13.045 57.185,12.525 C56.945,12.005 53.63,13.925 53.185,13.405 C52.74,12.885 56.225,11.33 56.045,10.97 C55.865,10.61 54.545,11.395 51.785,12.21 C50.785,12.5 48.565,13.31 47.36,13.485 C45.824099,13.7580816 44.2586635,13.8253399 42.705,13.685 C42.77,13.77 34.585,12.275 32.205,11.495 C30.805,11.04 26.07,8.495 21.975,6.805 L21.975,19.305 C25.915,20.23 35.295,22.24 43.795,20.805 C50.795,19.6 57.51,15.015 57.7,14.46 C58.1,13.205 54.945,15.845 54.345,15.285 Z" id="Shape" fill="#A0640A"/>
          <path d="M12.175,1.24 C12.175,1.24 4.115,-2.805 1.175,4.515 C-1.765,11.835 11.105,17.445 11.105,17.445 C13.945,18.88 24.79,22.32 24.79,22.32 C24.79,22.32 28.375,7.99 28.375,7.73 C27.585,7.315 12.09,1.17 12.175,1.24 Z" id="Shape" fill="#BE0A3C"/>
          <path d="M48.5,15.5 C46.81,15.38 46.375,13.655 46.375,13.655 C46.375,13.655 50.795,9.51 51.275,9.91 C51.755,10.31 50.865,11.41 50.195,12.67 C52.055,14 50.18,15.605 48.5,15.5 Z" id="Shape" fill="#824600"/>
        </g>
        <g id="Group" transform="translate(0.000000, 40.000000)">
          <path d="M9.325,37.345 C7.125,36.72 10.215,28.035 10.745,27.23 C11.155,28.1 10.31,36.885 9.325,37.345 Z" id="Shape" fill="#824600"/>
          <path d="M19.6,5.935 C15.9366937,8.0564083 12.8297354,11.0177011 10.535,14.575 C6.14,21.275 -0.125,36.82 0.45,37.54 C1.025,38.26 2.03,33.88 3.32,34.31 C4.61,34.74 2.03,39.05 2.675,39.625 C3.32,40.2 5.405,34.885 5.98,35.315 C6.555,35.745 4.545,39.405 4.905,39.695 C5.265,39.985 11.575,28.775 15.27,24.505 C17.01,22.505 20.215,18.72 22.415,17.22 C25.25,15.285 29.365,14.075 32.915,14.72 L35.315,2.22 C31.71,1.76 22.66,4.11 19.6,5.935 Z" id="Shape" fill="#A0640A"/>
          <path d="M40.285,1.16 C32.755,0.58 30.105,1.575 30.105,1.575 L30.86,15.66 C30.86,15.66 37.305,15.975 42.86,18.36 C42.86,18.36 51.905,22.62 57.275,16.64 C62.645,10.66 59.58,7.28 59.58,7.28 C59.38,7.21 47.82,1.735 40.285,1.16 Z" id="Shape" fill="#F01446"/>
        </g>
        <path d="M69.16,64.565 C69.36,56.065 64.16,45.66 54.555,46.495 C51.39,46.77 47.42,47.695 44.84,49.57 C44.495,49.82 39.645,55.52 38.635,57.125 C30.795,69.58 29.525,83.555 29.525,83.555 L67.345,80.1 C67.345,80.1 69.055,69 69.16,64.565 Z" id="Shape" fill="#F01446"/>
      </g>
    </g>
  </g>
</svg>