<svg width="46px" height="46px" viewBox="0 0 46 46" version="1.1" xml:space="preserve" xmlns="http://www.w3.org/2000/svg" xmlns:xlink="http://www.w3.org/1999/xlink">
  <!-- Generator: Sketch 52.4 (67378) - http://www.bohemiancoding.com/sketch -->
  <g>
    <title>Slice 1</title>
    <desc>Created with Sketch.</desc>
    <g id="Page-1" stroke="none" stroke-width="1" fill="none" fill-rule="evenodd">
      <g id="basketball-[sports,basketball,alex-eben-meyer]">
        <path d="M45.8574648,23.1360563 C45.8846538,13.3683614 39.6539895,4.68084279 30.3934296,1.57429566 C21.1328697,-1.53225146 10.9236157,1.64033263 5.05483732,9.44840822 C-0.813941103,17.2564838 -1.02330531,27.9452781 4.53521127,35.9771831 C7.82,42.015493 13.6056338,44.9957746 19.8512676,45.5335211 C26.0303958,46.4528578 32.3146456,44.7762762 37.2146479,40.9011268 C37.5969014,40.6419718 37.9726761,40.3698592 38.335493,40.0912676 C40.4134082,38.5367279 42.0338268,36.4507748 43.0261972,34.0529577 C44.8779518,30.7119673 45.852078,26.9558971 45.8574648,23.1360563 Z" id="Shape" fill="#E6781E"/>
        <g id="Group" fill="#824600">
          <path d="M23.868169,0.505352113 L23.2202817,0.505352113 C23.1230986,13.8194366 23.0064789,30.3664789 23.1295775,45.7926761 L23.2073239,45.7926761 L23.7774648,45.7926761 C23.6543662,30.3535211 23.7709859,13.8194366 23.868169,0.505352113 Z" id="Shape"/>
          <path d="M0.596056338,22.3261972 C0.596056338,22.5529577 0.596056338,22.7797183 0.596056338,23.0129577 L45.8769014,23.0129577 C45.8769014,22.7797183 45.8769014,22.5464789 45.8769014,22.3197183 L0.596056338,22.3261972 Z" id="Shape"/>
          <path d="M32.2388732,14.1369014 C33.0678257,10.8081213 34.7543188,7.75456349 37.1304225,5.28028169 C36.955493,5.14422535 36.7740845,5.00169014 36.5926761,4.87211268 C34.1801721,7.41629412 32.4661572,10.5408005 31.6169014,13.9425352 C29.3039437,22.591831 30.6126761,34.195493 37.26,40.888169 C37.4543662,40.7585915 37.6357746,40.6160563 37.823662,40.48 C32.6794366,35.2709859 29.3039437,25.1315493 32.2388732,14.1369014 Z" id="Shape"/>
          <path d="M14.9014085,30.3340845 C16.2875264,25.1949269 16.445105,19.8017434 15.3614085,14.5904225 C14.5798336,10.8503822 12.8836511,7.36230095 10.424507,4.43802817 L9.88028169,4.82676056 C12.3017267,7.67541516 13.9701687,11.0858087 14.7329577,14.7459155 C17.1625352,26.0580282 13.4371831,35.7439437 8.09859155,40.5642254 C8.26704225,40.7283568 8.44197183,40.8838498 8.62338028,41.0307042 C11.5129577,38.4650704 13.6639437,34.8239437 14.9014085,30.3340845 Z" id="Shape"/>
        </g>
      </g>
    </g>
  </g>
</svg>