<svg width="138px" height="123px" viewBox="0 0 138 123" version="1.1" xml:space="preserve" xmlns="http://www.w3.org/2000/svg" xmlns:xlink="http://www.w3.org/1999/xlink">
  <defs/>
  <g>
    <title>pufferfish-c</title>
    <desc>Created with Sketch.</desc>
    <g id="ocean" stroke="none" stroke-width="1" fill="none" fill-rule="evenodd">
      <g id="pufferfish-c" fill-rule="nonzero">
        <g id="flippers" transform="translate(8.000000, 29.000000)">
          <g id="Group" transform="translate(97.000000, 0.000000)">
            <path d="M13.1,0.5 L24.7,22.1 C24.7,22.1 5.4,27.4 1.7,21.3 C-2.1,15.2 13.1,0.5 13.1,0.5 Z" id="Shape" fill="#E2BB7D"/>
            <path d="M21.9,17 C17.7,18.4 13.3,19.1 8.8,19.1 C8,19.1 7.3,19.1 6.5,19.1 C9.1,17.5 11.5,15.8 14,14.3 C15.6,13.3 17.2,12.3 18.7,11.2 L17.7,9.4 C16.5,10.3 15.2,11.1 13.8,11.9 C10.9,13.7 7.5,15.3 4.1,16.8 C5.4,15.4 6.6,13.8 7.9,12.6 C10.6,10.2 13,7.5 15.2,4.6 L14.1,2.5 C12.5,4.8 10.7,7 8.7,8.9 C6.7,10.8 4.7,12.7 2.5,14.4 C2.3,14.5 2,14.7 1.8,15 C1.3,16 1,17.7 0.8,18.8 C0.8,19.6 1,20.4 1.4,21.1 C1.5,21.2 1.5,21.2 1.5,21.3 C1.8,21.2 2.1,21 2.5,20.9 C5.2,21 8,21 10.6,21 C14.8,20.9 18.9,20.2 22.8,18.8 L21.9,17 Z" id="Shape" fill="#D2AE69"/>
          </g>
          <g id="Group">
            <path d="M23.8,21.3 C20,27.4 0.8,22.1 0.8,22.1 L12.4,0.5 C12.3,0.5 27.5,15.2 23.8,21.3 Z" id="Shape" fill="#E2BB7D"/>
            <path d="M3.5,17 C7.7,18.4 12.1,19.1 16.6,19.1 C17.4,19.1 18.1,19.1 18.9,19.1 C16.3,17.5 13.9,15.8 11.4,14.3 C9.8,13.3 8.2,12.3 6.7,11.2 L7.7,9.4 C8.9,10.3 10.2,11.1 11.6,11.9 C14.5,13.7 17.9,15.3 21.3,16.8 C20,15.4 18.8,13.8 17.5,12.6 C14.8,10.2 12.4,7.5 10.2,4.6 L11.3,2.5 C12.9,4.8 14.7,7 16.7,8.9 C18.7,10.8 20.7,12.7 22.9,14.4 C23.1,14.5 23.4,14.7 23.6,15 C24.1,16 24.4,17.7 24.6,18.8 C24.6,19.6 24.4,20.4 24,21.1 C23.9,21.2 23.9,21.2 23.9,21.3 C23.6,21.2 23.3,21 22.9,20.9 C20.2,21 17.4,21 14.8,21 C10.6,20.9 6.5,20.2 2.6,18.8 L3.5,17 Z" id="Shape" fill="#D2AE69"/>
          </g>
        </g>
        <g id="body" transform="translate(11.000000, 4.000000)">
          <path d="M112.8,57.5 L113,57.5 C113,57.5 101,57.2 97.8,51.1 C97.5,49 97,46.9 96.4,44.8 C95.9,43.1 95.3,41.4 94.5,39.8 C94.2,39.1 93.9,38.4 93.5,37.7 C95.6,33.4 101.8,28.4 101.8,28.4 C101.8,28.4 95.5,32.3 90,32.1 L89.8,31.8 C88.3,27.3 96.4,17.3 96.4,17.3 C96.4,17.3 89.3,24.1 83.1,23.8 C83.8,19.1 87.1,13 87.1,13 C87.1,13 82.9,18.8 77.8,20.8 C74.9,19 71.8,17.7 68.6,16.6 C67.2,12 68,4.6 68,4.6 C68,4.6 66.3,11.4 62.5,15.2 L61.6,15.1 C58.2,11.7 56.9,0.9 56.9,0.9 C56.9,0.9 56.8,10.5 52.4,14.9 C51.8,15 51.2,15 50.7,15.1 C47.6,11.4 45.4,4.6 45.4,4.6 C45.4,4.6 46.7,11.2 44.9,16.2 C41.8,17 38.7,18.2 35.9,19.7 C34,18.5 32.2,17 30.6,15.3 C29,13.6 27.9,12.3 27.9,12.3 L28,12.5 C27.7,12.1 27.5,11.9 27.5,11.9 C27.5,11.9 30.9,17.4 31.2,22.6 C30.7,22.9 30.3,23.3 29.8,23.6 C24.9,23.3 16.8,16.9 16.8,16.9 C16.8,16.9 23.2,23.7 23.3,29.8 C17.8,36.2 14.4,44.1 13.5,52.5 C9.5,55.4 0.1,56.5 0.1,56.5 C0.1,56.5 8.7,57.1 13.4,60.7 C13.5,61.7 13.6,62.8 13.7,63.8 C9.9,66.4 4.4,68.2 4.4,68.2 C4.4,68.2 9.9,67.2 14.7,68.3 C15,69.3 15.3,70.2 15.6,71.2 C12.5,74.6 7.5,77.6 7.5,77.6 C7.5,77.6 12.5,75.4 17.3,75.4 C17.8,76.4 18.3,77.5 18.9,78.5 C18.8,78.8 18.6,79 18.4,79.2 L18.4,79.3 C17,81.1 15.5,82.7 13.8,84.3 C13.3,84.8 12.8,85.2 12.5,85.5 L12,86 L11.9,86.1 L11.8,86.2 L12,86.2 L12,86 C13,85.4 17.3,83 21.6,82.5 C22.1,83.1 22.5,83.7 23,84.3 C22.2,89.2 16.4,96.4 16.4,96.4 C16.4,96.4 22.6,90.4 28.6,89.9 C29.1,90.3 29.5,90.6 30,91 C29.1,95.5 26.2,101 26.2,101 C26.2,101 29.8,96.1 34.2,93.8 C34.9,94.3 35.7,94.6 36.4,95 C36.8,99.6 34.7,106.4 34.7,106.4 C34.7,106.4 37.5,100.3 41.7,97.3 C42.7,97.6 43.7,98 44.8,98.2 C45.8,102.8 45.1,109.3 45.1,109.3 C45.1,109.3 46.6,103.1 50,99.2 C50.3,99.3 50.7,99.3 51,99.3 L52.8,99.3 C55.1,103.7 56,111.6 56,111.6 C56,111.6 56.2,104.1 59.3,99.3 L61.1,99.3 L61.2,99.2 C61.6,99.1 62,99.1 62.4,99 C65.4,102.7 67.6,109.3 67.6,109.3 C67.6,109.3 66.3,102.6 68.1,97.6 C68.7,97.4 69.3,97.2 69.9,97 C73.3,100.1 76.6,106.2 76.6,106.2 C76.6,106.2 74.3,99.8 75.2,94.7 C75.7,94.4 76.2,94.2 76.6,93.9 C80,95.8 83.8,99.9 85,101.4 L85.4,101.9 L85.5,102 L85.4,101.9 C84.9,101.2 81.6,95.5 81.8,90.5 C82.1,90.3 82.3,90.1 82.6,89.9 C87.5,89.9 95.9,96.6 95.9,96.6 C95.9,96.6 89.4,89.8 89.4,83.6 C94.1,84.2 100.6,87.6 100.6,87.6 C100.6,87.6 94.6,83.2 92.7,78 C93.1,77.3 93.5,76.6 93.9,75.9 C98.5,75.7 104.8,77.6 104.8,77.6 C104.8,77.6 99,75 96,71 C96.2,70.5 96.4,69.9 96.5,69.4 C101.1,67.8 109,68.7 109,68.7 C109,68.7 101.8,66.9 98.1,63 C100.1,59.2 111.3,57.7 112.8,57.5 Z" id="Shape" fill="#EAC685"/>
          <path d="M93.8,62 C95.4,59.1 96.6,56 97.4,52.7 C100.5,49.1 109.1,46.2 109.1,46.2 C109.1,46.2 101.6,47.6 96.6,45.4 C96.3,44.6 96.1,43.8 95.8,43 C98.5,41.5 101.3,40.2 104.1,39.2 C104.1,39.2 98.9,40.2 94.2,39.2 C93.9,38.7 93.7,38.1 93.4,37.6 C95.5,33.3 101.7,28.3 101.7,28.3 C101.7,28.3 95.4,32.2 89.9,32 C86.1,26.9 81.3,22.6 75.6,19.6 C75.5,15 77.3,9.2 77.3,9.2 C77.3,9.2 75,14.5 71.3,17.6 C68.2,16.4 65,15.5 61.7,15.1 C58.3,11.7 57,1 57,1 C57,1 56.7,10.6 52.3,14.9 C49.2,15.2 46.2,15.7 43.3,16.6 C41.2,14.1 39.3,11.5 37.8,8.6 C38.8,11.6 39.4,14.8 39.4,18 C32.9,20.7 27.2,25 22.8,30.4 C18.3,29.4 13,26.6 13,26.6 C13,26.6 17.7,30 20.1,34.3 C19.3,35.6 18.5,37 17.8,38.3 C14.8,38 11.8,37.5 8.9,36.6 C11.6,37.9 14.1,39.6 16.3,41.6 C15.8,42.8 15.4,44.1 15,45.4 C10.4,46.2 4.7,45.6 4.7,45.6 C4.7,45.6 10.2,46.9 14,49.9 C13.9,50.2 13.9,50.5 13.9,50.7 C14.4,53 15.1,55.2 15.9,57.4 C13.7,59.2 11.3,60.8 8.8,62.2 C11.5,61.2 14.4,60.6 17.3,60.5 C18.5,62.9 19.8,65.2 21.5,67.4 C20.2,71.9 14,77.9 14,77.9 C14,77.9 21.1,72.6 26.8,73.3 C27.7,74.1 28.6,74.9 29.6,75.6 C28.6,78.2 27.4,80.7 26,83 C27.8,80.9 29.9,79 32.2,77.5 C33.7,78.5 35.3,79.4 36.9,80.2 C36.5,83.4 35.7,86.7 34.6,89.8 C34.6,89.8 37.2,84.9 41,81.9 C42.6,82.5 44.1,82.9 45.7,83.3 C46.1,86.2 46.2,89.2 46,92.1 C46.7,89.2 47.8,86.5 49.2,84 C51.1,84.3 53.1,84.5 55,84.5 C55.8,87.2 56.4,89.8 56.8,92.6 C56.9,89.9 57.3,87.1 58.2,84.5 C59.6,84.4 61.1,84.3 62.5,84 C64,86.2 65.3,88.6 66.4,91 C65.7,88.5 65.4,86 65.4,83.4 C67.2,83 69,82.5 70.8,81.8 C74.6,84.2 78.3,88.6 78.3,88.6 C76.7,86 75.4,83.2 74.7,80.2 C76.6,79.3 78.5,78.2 80.2,77 C82,78.7 83.7,80.5 85.3,82.5 C84.1,80.2 83.1,77.9 82.5,75.3 C83.7,74.3 84.9,73.4 86,72.2 C87.9,73.1 89.7,74.2 91.5,75.4 C90,74 88.6,72.5 87.5,70.8 C89.6,68.5 91.6,66 93.2,63.3 C95.1,64 97,64.8 98.9,65.7 C96.7,64.9 95.1,63.6 93.8,62 Z" id="Shape" fill="#F2D39A"/>
        </g>
        <g id="face" transform="translate(19.000000, 30.000000)">
          <path d="M48.4,17.1 C46.5,17.1 46.5,20.2 48.4,20.2 C50.3,20.1 50.3,17.1 48.4,17.1 Z" id="Shape" fill="#E7C684"/>
          <path d="M54.6,35.7 C48.9,38.7 48.1,48.1 48.1,48.1 C48.1,48.1 47.3,37.4 43.1,36 C43.1,36 46.5,37.2 48.7,37.2 C51.4,37.3 54.6,35.7 54.6,35.7 Z" id="Shape" fill="#EAC685"/>
          <g id="Group" transform="translate(0.000000, 14.000000)">
            <circle id="Oval" fill="#F2D39A" cx="17.8" cy="17.3" r="17"/>
            <path d="M16.1,6.2 C19.4,5 24.3,6.3 26.5,9.2 C27.7,10.8 30.3,9.2 29.1,7.7 C26.2,3.8 20,1.5 15.3,3.3 C13.5,4 14.3,6.9 16.1,6.2 Z" id="Shape" fill="#E7C684"/>
          </g>
          <g id="Group" transform="translate(63.000000, 14.000000)">
            <circle id="Oval" fill="#F2D39A" cx="17.3" cy="16.7" r="16.4"/>
            <path d="M7.7,8.5 C9,6.7 10.8,5 13.1,4.7 C15,4.5 15,1.4 13.1,1.7 C9.6,2.1 7,4.2 5.1,7 C4,8.6 6.6,10.1 7.7,8.5 Z" id="Shape" fill="#E7C684"/>
          </g>
          <path d="M42.1,30.2 C45.9,30.2 45.9,24.3 42.1,24.3 C38.3,24.3 38.3,30.2 42.1,30.2 Z" id="Shape" fill="#737977"/>
          <g id="Group" transform="translate(26.000000, 1.000000)">
            <path d="M1.5,2.7 C3.4,3.5 5.3,4.3 7.2,5.1 C8.4,5.6 8.9,3.6 7.7,3.1 C5.8,2.3 3.9,1.5 2,0.7 C0.9,0.2 0.4,2.2 1.5,2.7 Z" id="Shape" fill="#D2AE69"/>
            <g transform="translate(0.000000, 5.000000)" id="Shape">
              <path d="M6.7,9.3 C7.2,9.3 7.9,9.4 8.6,9.7 C10,8.6 10.9,6.8 10.6,4.9 C10.3,2 7.6,-4.5519144e-15 4.7,0.3 C1.8,0.6 -0.2,3.3 0.1,6.2 C0.3,7.9 1.3,9.3 2.7,10.1 C3.9,9.6 5.3,9.3 6.7,9.3 Z" fill="#FFFFFF"/>
              <g>
                <path d="M7.7,6.1 C7.6,4.8 6.3,3.9 5,4 C4.1,4.1 3.4,4.7 3,5.6 C3.8,5.5 4.6,6.2 4.7,7 C4.8,7.6 4.5,8.2 4,8.5 C4.5,8.8 4.9,8.8 5.4,8.8 C6.9,8.6 7.8,7.4 7.7,6.1 Z" fill="#737977"/>
                <path d="M4.7,0.2 C2.1,0.5 0.2,2.6 0,5.1 L10.6,5.1 C10.6,5 10.6,4.9 10.6,4.9 C10.3,1.9 7.6,-0.1 4.7,0.2 Z" fill="#F2D39A"/>
              </g>
            </g>
          </g>
          <g id="Group" transform="translate(59.000000, 0.000000)">
            <path d="M3.3,4.9 C5.1,4.2 7,3.6 8.8,2.9 C10,2.5 9.5,0.5 8.3,0.9 C6.5,1.6 4.6,2.2 2.8,2.9 C1.6,3.4 2.1,5.4 3.3,4.9 Z" id="Shape" fill="#D2AE69"/>
            <g transform="translate(0.000000, 6.000000)" id="Shape">
              <path d="M3,10.1 C4.2,9.6 5.5,9.3 6.9,9.4 C7.4,9.4 8.2,9.6 8.9,9.8 C10.3,8.7 11.2,6.9 11,4.9 C10.7,2 8,-1.87627691e-14 5.1,0.3 C2.2,0.6 0.2,3.3 0.5,6.2 C0.6,7.9 1.6,9.3 3,10.1 Z" fill="#FFFFFF"/>
              <g>
                <path d="M8.1,6.1 C8,4.8 6.7,3.9 5.4,4 C4.5,4.1 3.8,4.7 3.4,5.6 C4.2,5.5 5,6.2 5.1,7 C5.2,7.6 4.9,8.2 4.4,8.5 C4.9,8.8 5.3,8.8 5.8,8.8 C7.4,8.6 8.3,7.4 8.1,6.1 Z" fill="#737977"/>
                <path d="M6.4,0.2 C9,0.5 10.9,2.6 11.1,5.1 L0.5,5.1 C0.5,5 0.5,4.9 0.5,4.9 C0.8,1.9 3.4,-0.2 6.4,0.2 Z" fill="#F2D39A"/>
              </g>
            </g>
          </g>
        </g>
        <g id="bubbles" transform="translate(28.000000, -1.000000)" fill="#FFFFFF">
          <circle id="Oval" opacity="0.5" cx="29.1" cy="54.8" r="3.9"/>
          <circle id="Oval" opacity="0.4" cx="9.4" cy="39.8" r="3.9"/>
          <circle id="Oval" opacity="0.5" cx="15.8" cy="23.6" r="5.4"/>
          <circle id="Oval" opacity="0.5" cx="6.5" cy="6.9" r="6.4"/>
        </g>
      </g>
    </g>
  </g>
</svg>