<svg width="155px" height="135px" viewBox="0 0 155 135" version="1.1" xml:space="preserve" xmlns="http://www.w3.org/2000/svg" xmlns:xlink="http://www.w3.org/1999/xlink">
  <!-- Generator: Sketch 50.2 (55047) - http://www.bohemiancoding.com/sketch -->
  <defs/>
  <g>
    <title>Slice 1</title>
    <desc>Created with Sketch.</desc>
    <g id="Page-1" stroke="none" stroke-width="1" fill="none" fill-rule="evenodd">
      <g id="dorian-c-[sports,basketball,people,alex-eben-meyer]" fill-rule="nonzero">
        <g id="Right-Arm" transform="translate(100.000000, 38.000000)">
          <path d="M54.932088,8.8894659 C54.804253,7.5234421 48.636211,8.4888724 48.656186,6.3456973 C48.67616,4.2025223 54.225,4.7433234 53.45,3.9661721 C53.014562,3.5175074 24.790979,3.3813056 0.478351,3.2010386 L0.478351,13.6765579 C19.99317,14.0130564 40.526675,14.2654303 40.854253,14.2694362 C43.682603,14.2694362 53.274227,14.2454006 53.006572,13.5203264 C52.738918,12.7952522 48.472423,12.7912463 48.8,11.0646884 C49.127577,9.3381306 55.059923,10.2594955 54.932088,8.8894659 Z" id="Shape" fill="#E6BE6E"/>
          <path d="M44.481572,3.7578635 C44.765206,3.3372404 45.148711,3.35727 45.512242,3.1609792 C46.926418,2.3597923 48.476418,1.4103858 48.468428,0.7574184 C48.468428,-0.0437685 38.249613,1.8350148 39.679768,7.6876855 C40.842268,12.4547478 45.348454,10.2835312 45.076804,5.8329377 C45.036856,5.264095 44.213918,4.1824926 44.481572,3.7578635 Z" id="Shape" fill="#BE965A"/>
        </g>
        <g id="Left-Arm" transform="translate(0.000000, 38.000000)">
          <path d="M57.969201,2.7764095 C33.0134021,2.9686944 2.29304124,3.0968843 1.83762887,3.5775964 C1.07061856,4.3787834 6.6314433,3.7979228 6.6314433,5.9571217 C6.6314433,8.1163205 0.479381443,7.1348665 0.351546392,8.5008902 C0.22371134,9.8669139 6.15206186,8.9335312 6.47963918,10.664095 C6.80721649,12.3946588 2.5367268,12.3906528 2.26907216,13.1197329 C2.00141753,13.8488131 11.5930412,13.8808605 14.4213918,13.8688427 C14.7689433,13.8688427 37.5675258,13.5844214 57.9652062,13.2198813 L57.969201,2.7764095 Z" id="Shape" fill="#E6BE6E"/>
          <path d="M10.8180412,3.35727 C10.5344072,2.9366469 10.1469072,2.9566766 9.78337629,2.7603858 C8.37319588,1.9591988 6.81920103,1.0097923 6.82719072,0.3568249 C6.82719072,-0.444362 17.0460052,1.4344214 15.6158505,7.287092 C14.4533505,12.0541543 9.95115979,9.8829377 10.2188144,5.4323442 C10.2587629,4.8635015 11.0976804,3.7818991 10.8180412,3.35727 Z" id="Shape" fill="#BE965A"/>
        </g>
        <path d="M65.4036082,72.4753709 L58.3247423,76.4813056 C59.0637887,81.6890208 71.8393041,84.8617211 82.6493557,85.5547478 C93.4594072,86.2477745 103.650258,80.5593472 103.650258,80.5593472 L65.4036082,72.4753709 Z" id="Shape" fill="#006482"/>
        <rect id="Rectangle-path" fill="#281446" x="67.5887887" y="70.1078635" width="25.7787371" height="12.0218101"/>
        <g id="Right-Leg" transform="translate(83.000000, 74.000000)">
          <polygon id="Shape" fill="#E6BE6E" points="8.5139175 34.116172 14.1826031 27.446291 13.978866 17.9041543 3.3485825 17.4154303 4.1155928 27.822849"/>
          <polygon id="Shape" fill="#FAF0E6" points="14.3703608 49.45089 14.1826031 27.446291 3.9917526 27.726706 4.8027062 48.609644"/>
          <polygon id="Shape" fill="#281446" points="16.871134 22.3307122 17.118814 0.5224036 0.5282216 0.4903561 2.25 22.5830861"/>
          <polygon id="Shape" fill="#00A0DC" points="22.280155 59.774184 15.6726804 58.912908 4.3073454 59.537834 4.5430412 60.839763 22.591753 60.971958"/>
          <path d="M21.09768,58.480267 C19.904454,58.415696 18.716754,58.272508 17.542268,58.051632 L14.7458763,45.485015 L4.2993557,45.485015 L4.2993557,59.537834 L22.27616,59.774184 C22.118489,59.434214 21.984995,59.083487 21.876675,58.724629 C21.628399,58.610368 21.366631,58.528254 21.09768,58.480267 Z" id="Shape" fill="#281446"/>
          <ellipse id="Oval" fill="#00A0DC" cx="9.1650773" cy="51.437834" rx="3.07203608" ry="3.0805638"/>
          <polygon id="Shape" fill="#006482" points="16.1081186 48.481454 13.0520619 48.481454 12.8003866 47.700297 15.968299 47.700297"/>
          <polygon id="Shape" fill="#00A0DC" points="16.4516753 50.30816 13.3996134 50.30816 13.1479381 49.522997 16.3118557 49.522997"/>
          <polygon id="Shape" fill="#006482" points="16.7992268 52.130861 13.7431701 52.130861 13.4914948 51.345697 16.6594072 51.345697"/>
          <polygon id="Shape" fill="#00A0DC" points="17.146778 53.953561 14.0907216 53.953561 13.8390464 53.168398 17.006959 53.168398"/>
          <polygon id="Shape" fill="#006482" points="17.490335 55.776261 14.4382732 55.776261 14.1865979 54.995104 17.35451 54.995104"/>
        </g>
        <g id="Left-Leg" transform="translate(42.000000, 72.000000)">
          <polygon id="Shape" fill="#E6BE6E" points="20.7310567 35.158754 16.8600515 27.2991098 19.3887887 18.0974777 29.8153351 20.2326409 26.5315722 30.131306"/>
          <polygon id="Shape" fill="#FAF0E6" points="11.3112113 48.590653 16.8600515 27.2991098 26.6753866 30.071217 20.7949742 50.12092"/>
          <polygon id="Shape" fill="#00A0DC" points="1.1283505 56.658605 7.7438144 57.447774 18.6137887 60.840801 18.0664948 62.042582 0.5331186 57.744214"/>
          <path d="M2.5904639,55.697181 C3.7618325,55.926254 4.9468004,56.078801 6.1378866,56.153858 L11.9304124,44.652819 L17.778866,46.135015 L22.0573454,47.216617 L18.6257732,60.836795 L1.1443299,56.658605 C1.3774552,56.366885 1.5897116,56.058995 1.7795103,55.73724 C2.0472105,55.690982 2.319526,55.677531 2.5904639,55.697181 Z" id="Shape" fill="#281446"/>
          <ellipse id="Oval" fill="#00A0DC" cx="15.8773196" cy="51.795401" rx="3.07203608" ry="3.0805638"/>
          <polygon id="Shape" fill="#006482" points="9.8650773 47.228635 12.8292526 47.977745 13.2646907 47.276706 10.1926546 46.499555"/>
          <polygon id="Shape" fill="#00A0DC" points="9.0860825 48.911128 12.0462629 49.660237 12.481701 48.963205 9.4096649 48.186053"/>
          <polygon id="Shape" fill="#006482" points="8.3070876 50.59362 11.267268 51.34273 11.7027062 50.645697 8.6306701 49.868546"/>
          <polygon id="Shape" fill="#00A0DC" points="7.5240979 52.276113 10.4882732 53.025223 10.9237113 52.32819 7.8516753 51.551039"/>
          <polygon id="Shape" fill="#006482" points="6.7451031 53.958605 9.7052835 54.707715 10.1407216 54.010682 7.0686856 53.233531"/>
          <polygon id="Shape" fill="#281446" points="15.5018041 21.6827893 20.5832474 0.4753709 36.6744845 4.5093472 29.6195876 25.508457"/>
        </g>
        <path d="M106.993943,53.6795252 L106.993943,40.2676558 C106.993943,40.2676558 56.1515464,39.7589021 52.879768,39.8350148 L52.879768,52.1412463 C55.5243557,52.3175074 59.7389175,52.3335312 63.7377577,52.2934718 L64.2570876,52.3135015 L58.3247423,76.4692878 C60.8934278,77.44273 64.8363402,76.8698813 67.580799,76.9259644 C71.507732,76.9940653 75.4426546,76.9259644 79.3615979,77.0461424 C87.0157216,77.3025223 95.996134,80.9639466 103.650258,80.5473294 C103.114948,79.2854599 98.1813144,62.6688427 95.428866,53.3550445 L95.8283505,53.3550445 C99.5155928,53.4952522 103.758119,53.6795252 106.993943,53.6795252 Z" id="Shape" fill="#00A0DC"/>
        <g id="Head" transform="translate(64.000000, 0.000000)">
          <path d="M9.1655928,32.0875371 C7.4381758,32.1884973 5.7062362,31.9934181 4.044201,31.5106825 C2.6612532,31.0188964 1.5179866,30.0157612 0.8483247,28.7065282 C0.1572165,27.4847181 -0.1903351,25.0250742 2.1106959,23.6630564 C4.4117268,22.3010386 6.9045103,23.9394659 7.7034794,25.2894659 C8.4305412,26.5152819 8.9139175,30.6133531 9.1655928,32.0875371 Z" id="Shape" fill="#BE965A"/>
          <path d="M6.3092784,29.9283383 C6.3092784,29.9283383 4.355799,28.8507418 3.3610825,24.604451 C2.6460052,21.539911 2.4742268,15.5991098 3.6846649,13.0393175 C6.576933,6.92626113 9.5051546,3.70548961 9.5051546,3.70548961 L13.9314433,19.6290801 L6.3092784,29.9283383 Z" id="Shape" fill="#642800"/>
          <path d="M27.0545103,29.9323442 C27.0545103,29.9323442 30.1824742,18.1428783 27.4539948,12.3863501 C24.7255155,6.62982196 21.6654639,5.65237389 21.6654639,5.65237389 L18.6173969,15.0022255 L27.0545103,29.9323442 Z" id="Shape" fill="#642800"/>
          <path d="M25.4126289,32.5922849 C25.8496089,30.4091017 26.1167361,28.1951665 26.2115979,25.9704748 C28.404768,22.5413947 34.1533505,21.2034125 33.598067,26.935905 C33.1865979,31.05 29.6112113,34.0704748 25.4126289,32.5922849 Z" id="Shape" fill="#E6BE6E"/>
          <path d="M22.8798969,16.7007418 L8.6662371,16.6446588 C7.3759021,18.3391691 5.0708763,21.9364985 4.7712629,25.0571217 C4.7712629,25.1933234 4.5076031,30.5212166 6.4610825,34.2186944 C7.5516753,36.2817507 10.0164948,37.4234421 11.9340206,37.8721068 C16.4841495,38.9617211 22.6521907,38.0764095 25.6443299,33.9623145 C26.8068299,32.3599407 26.9306701,30.7816024 27.0385309,29.455638 C27.7975515,20.0296736 24.5697165,17.9265579 22.8798969,16.7007418 Z" id="Shape" fill="#E6BE6E"/>
          <path d="M25.4845361,18.8278932 C23.7108247,19.4207715 7.9951031,20.0857567 6.1534794,19.8133531 C5.7539948,17.2896142 15.7411082,0.21231454 15.7411082,0.21231454 C15.7411082,0.21231454 25.4845361,16.3362018 25.4845361,18.8278932 Z" id="Shape" fill="#642800"/>
          <path d="M14.4188144,26.4992582 C15.3876838,27.6635819 16.0802267,29.033336 16.444201,30.5051929 C14.9501289,31.0139466 12.7529639,31.234273 11.2509021,30.7295252 C11.2349227,29.2433234 11.9699742,26.4391691 14.4188144,26.4992582 Z" id="Shape" fill="#BE965A"/>
          <path d="M12.4853093,33.6498516 C12.5429247,33.8248455 12.6384175,33.984898 12.7649485,34.118546 C13.4801736,34.1077514 14.1953602,34.1425395 14.9061856,34.2227003 L14.9780928,34.1746291 C15.1312298,34.0471138 15.2018716,33.8453799 15.1618557,33.6498516 C14.2989691,33.5977745 13.3681701,33.6218101 12.4853093,33.6498516 Z" id="Shape" fill="#000000"/>
          <path d="M7.3399485,27.368546 C6.3532216,27.368546 6.7407216,25.9744807 6.9844072,25.4537092 C7.1006442,25.3646828 7.2475813,25.3260163 7.3924339,25.3463369 C7.5372865,25.3666575 7.668001,25.4442743 7.7554124,25.5618694 C7.903405,26.196117 7.7499717,26.8633333 7.3399485,27.368546 Z" id="Shape" fill="#000000"/>
          <path d="M19.6161082,27.5608309 C18.641366,27.6930267 18.8171392,26.2669139 18.9969072,25.7181009 C19.0997694,25.6061952 19.2446213,25.5425358 19.3963918,25.5425358 C19.5481622,25.5425358 19.6930141,25.6061952 19.7958763,25.7181009 C20.028337,26.3265054 19.9617428,27.0091361 19.6161082,27.5608309 Z" id="Shape" fill="#000000"/>
          <polygon id="Shape" fill="#642800" points="20.6467784 17.4538576 27.1064433 27.4847181 27.6657216 19.1964392"/>
        </g>
      </g>
    </g>
  </g>
</svg>