<svg width="300px" height="120px" viewBox="0 0 300 120" version="1.1" xml:space="preserve" xmlns="http://www.w3.org/2000/svg" xmlns:xlink="http://www.w3.org/1999/xlink">
  <!-- Generator: Sketch 49.3 (51167) - http://www.bohemiancoding.com/sketch -->
  <defs/>
  <g>
    <title>shark-a</title>
    <desc>Created with Sketch.</desc>
    <g id="shark-a" stroke="none" stroke-width="1" fill="none" fill-rule="evenodd">
      <g id="Great-White-Shark" transform="translate(150.500000, 60.500000) scale(-1, 1) translate(-150.500000, -60.500000) translate(17.000000, 16.000000)" fill-rule="nonzero">
        <g id="Group" transform="translate(58.000000, 40.000000)">
          <path d="M26.5,14.9 C21.6,17.1 21.3,38.1 21.3,44.1 C21.3,44.8 20.5,44.9 19.9,44.4 C-2.4,24.6 1.1,0.2 1.1,0.2 C10.5,-0.2 19,4 26.5,14.9 Z" id="Shape" fill="#608899"/>
          <path d="M26.3,14.8 C26.3,14.8 25.9,15.1 25.5,15.8 C25,16.5 24.5,17.5 24.1,18.9 C23.2,21.6 22.8,25.3 22.5,29.1 C22.3,31 22.2,32.9 22.1,34.6 C22,36.4 21.8,38 21.7,39.4 C21.5,42.2 21.3,44.1 21.3,44.1 C21.3,44.1 21.3,42.2 21.3,39.4 C21.3,38 21.4,36.3 21.5,34.6 C21.6,32.8 21.7,30.9 21.9,29.1 C22,28.2 22.1,27.2 22.2,26.3 C22.3,25.4 22.4,24.5 22.6,23.6 C22.7,22.7 22.9,21.9 23.1,21.1 C23.3,20.3 23.5,19.6 23.8,18.9 C24.3,17.6 24.9,16.5 25.4,15.9 C25.9,15.1 26.3,14.8 26.3,14.8 Z" id="Shape" fill="#4E6F7D"/>
          <path d="M1.1,0.2 C1.1,0.2 1,1 0.9,2.3 C0.9,3 0.9,3.8 0.9,4.7 C0.9,5.6 1,6.7 1.1,7.8 C1.2,8.9 1.4,10.2 1.6,11.5 C1.9,12.8 2.1,14.2 2.5,15.6 C2.7,16.3 2.8,17 3.1,17.7 C3.3,18.4 3.6,19.1 3.8,19.8 C3.9,20.2 4,20.5 4.2,20.9 L4.6,22 C4.9,22.7 5.2,23.4 5.5,24.1 C6.1,25.5 6.8,26.9 7.5,28.2 C8.3,29.5 9,30.8 9.8,32 C10.6,33.2 11.4,34.3 12.2,35.4 C12.9,36.5 13.8,37.4 14.5,38.3 C15.2,39.2 15.9,40 16.5,40.7 C17.1,41.4 17.7,42 18.2,42.5 C19.1,43.5 19.7,44 19.7,44 C19.7,44 19,43.6 18,42.6 C17.5,42.1 16.9,41.6 16.2,40.9 C15.5,40.3 14.8,39.5 14,38.6 C13.3,37.7 12.4,36.8 11.6,35.7 C10.8,34.6 10,33.5 9.1,32.3 C8.3,31.1 7.6,29.8 6.8,28.5 C6.1,27.1 5.4,25.8 4.7,24.3 C4.4,23.6 4.1,22.9 3.8,22.1 L3.4,21 C3.3,20.6 3.2,20.3 3,19.9 C2.8,19.2 2.5,18.4 2.3,17.7 C2.1,17 1.9,16.3 1.8,15.6 C1.4,14.2 1.2,12.8 1,11.5 C0.8,10.2 0.7,8.9 0.6,7.8 C0.6,7.2 0.5,6.7 0.5,6.1 C0.5,5.6 0.5,5.1 0.5,4.6 C0.5,3.7 0.6,2.8 0.6,2.2 C0.9,0.9 1.1,0.2 1.1,0.2 Z" id="Shape" fill="#4E6F7D"/>
        </g>
        <g id="Group" transform="translate(216.000000, 7.000000)">
          <path d="M0.2,38.3 C5.6,38.3 9.8,36.1 15.6,27.7 C21.1,19.6 31.5,5.8 48.5,0.3 C49.5,-2.60902411e-15 50.3,1 49.9,1.9 C48.7,4.6 44.2,10.5 41.4,14.4 C34.2,24.3 34.3,31.1 34,37.2 C33.6,44.7 40.8,59.6 45.7,66.5 C46.3,67.4 45.5,68.4 44.4,68.2 C36.7,66.5 28.6,63.3 21.3,57.1 C12,49.3 6.9,46.4 0.6,46.5" id="Shape" fill="#6DA3B2"/>
          <path d="M4.4,37.7 C4.4,37.7 5.2,37.3 6.7,36.6 C7.4,36.2 8.2,35.7 9,35 C9.4,34.6 9.8,34.2 10.2,33.7 C10.6,33.2 11.1,32.8 11.5,32.2 C11.9,31.7 12.4,31.1 12.7,30.5 C13.1,29.9 13.5,29.2 13.9,28.5 C14.7,27.1 15.6,25.7 16.7,24.3 C17.7,22.9 18.8,21.4 20,20 C21.2,18.6 22.4,17.2 23.6,15.8 C24.9,14.5 26.2,13.1 27.6,11.9 C28.9,10.7 30.3,9.5 31.7,8.4 C34.5,6.3 37.3,4.6 39.8,3.3 C42.3,2 44.5,1.2 46,0.7 C46.8,0.4 47.4,0.3 47.8,0.2 C48.2,0.1 48.4,2.66453526e-15 48.4,2.66453526e-15 C48.4,2.66453526e-15 48.2,0.1 47.8,0.2 C47.4,0.3 46.8,0.6 46.1,0.9 C44.6,1.5 42.6,2.6 40.2,4 C39,4.7 37.7,5.5 36.4,6.4 C35.1,7.3 33.8,8.3 32.5,9.4 C31.2,10.5 29.8,11.6 28.5,12.9 C27.2,14.1 25.9,15.4 24.6,16.8 C22.1,19.5 19.8,22.3 17.7,25 C16.7,26.4 15.7,27.7 14.8,29 C14.4,29.7 13.9,30.3 13.5,30.9 C13.1,31.5 12.6,32.1 12.1,32.6 C11.1,33.6 10.2,34.5 9.3,35.2 C8.4,35.9 7.5,36.4 6.7,36.7 C5.9,37 5.3,37.2 4.9,37.3 C4.6,37.6 4.4,37.7 4.4,37.7 Z" id="Shape" fill="#4E6F7D"/>
          <path d="M47.8,5.1 C47.8,5.1 47.7,5.3 47.4,5.7 C47.2,6.1 46.8,6.7 46.3,7.5 C45.3,9 43.9,11.1 42.1,13.6 C41.2,14.9 40.3,16.2 39.4,17.7 C38.5,19.2 37.6,20.8 36.9,22.5 C36.2,24.2 35.6,26.1 35.2,28 C34.8,29.9 34.6,31.9 34.5,33.9 C34.4,35.9 34.5,37.9 34.8,39.9 C35.1,41.9 35.5,43.8 36,45.6 C37,49.2 38.4,52.6 39.7,55.3 C41,58.1 42.2,60.3 43,61.9 C43.9,63.5 44.4,64.4 44.4,64.4 C44.4,64.4 44.3,64.2 44,63.8 C43.7,63.4 43.3,62.8 42.8,62.1 C41.8,60.6 40.4,58.4 39,55.7 C37.6,53 36,49.7 34.9,46 C34.3,44.2 33.8,42.2 33.6,40.1 C33.3,38.1 33.2,36 33.2,33.9 C33.3,31.8 33.5,29.7 34,27.7 C34.4,25.7 35.1,23.8 35.9,22 C36.7,20.2 37.6,18.6 38.7,17.1 C39.7,15.6 40.7,14.3 41.7,13.1 C43.6,10.7 45.2,8.7 46.3,7.3 C47.2,6 47.8,5.1 47.8,5.1 Z" id="Shape" fill="#4E6F7D"/>
          <path d="M5.8,47 C5.8,47 6,47 6.3,47.1 C6.6,47.2 7.1,47.3 7.6,47.5 C8.7,47.9 10.3,48.6 12.1,49.6 C13.9,50.6 15.8,52 17.9,53.5 C20,55 22.1,56.6 24.3,58.2 C25.4,59 26.5,59.7 27.6,60.5 C28.7,61.2 29.8,61.9 30.9,62.5 C32,63.1 33.1,63.7 34.1,64.2 C35.1,64.7 36.1,65.2 37,65.6 C37.9,66 38.8,66.3 39.5,66.6 C40.3,66.9 40.9,67.1 41.5,67.3 C42.6,67.6 43.3,67.9 43.3,67.9 C43.3,67.9 42.6,67.8 41.5,67.6 C40.9,67.5 40.2,67.3 39.4,67.1 C38.6,66.9 37.7,66.7 36.7,66.3 C35.7,66 34.7,65.6 33.6,65.1 C33.1,64.9 32.5,64.6 32,64.4 C31.4,64.1 30.9,63.8 30.3,63.6 C29.2,63 28,62.4 26.9,61.6 C25.8,60.9 24.6,60.1 23.5,59.4 C21.3,57.8 19.2,56.1 17.2,54.6 C15.2,53 13.3,51.6 11.7,50.4 C10.1,49.2 8.6,48.3 7.6,47.9 C6.4,47.2 5.8,47 5.8,47 Z" id="Shape" fill="#4E6F7D"/>
        </g>
        <g id="Group">
          <g transform="translate(165.000000, 64.000000)" id="Shape">
            <path d="M0.2,5 C7.6,5 14.7,8 18,8.4 C21.3,8.8 17.3,2.7 19,7.10542736e-15" fill="#AEDEEB"/>
            <path d="M5,5.3 C5,5.3 5.3,5.3 5.9,5.3 C6.5,5.3 7.3,5.4 8.3,5.6 C9.3,5.8 10.4,6 11.7,6.2 C12.9,6.5 14.2,6.8 15.5,7.1 C16.1,7.3 16.8,7.4 17.4,7.6 C18,7.8 18.7,7.9 18.8,7.7 C18.9,7.7 19,7.2 18.9,6.7 C18.8,6.2 18.7,5.6 18.7,5.1 C18.5,3.1 18.6,1.7 18.6,1.7 C18.6,1.7 18.9,3 19.4,4.9 C19.5,5.4 19.7,5.9 19.9,6.4 C20,6.7 20,7 20,7.4 C20,7.8 19.8,8.4 19.3,8.7 C18.8,9 18.4,9 18,9 C17.6,9 17.3,8.9 16.9,8.8 C16.3,8.7 15.6,8.5 14.9,8.4 C13.6,8.1 12.3,7.7 11.1,7.3 C9.9,6.9 8.8,6.6 7.9,6.3 C7,6 6.2,5.7 5.6,5.5 C5.3,5.4 5,5.3 5,5.3 Z" fill="#648F9E"/>
          </g>
          <g transform="translate(187.000000, 59.000000)" id="Shape">
            <path d="M0.8,4 C6.4,4 11.7,6.3 14.3,6.5 C16.8,6.8 13.8,2.2 15.1,0.1" fill="#AEDEEB"/>
            <path d="M4.1,4.2 C4.1,4.2 4.4,4.2 4.9,4.2 C5.4,4.2 6.1,4.3 6.9,4.5 C7.7,4.6 8.7,4.8 9.6,5.1 C10.6,5.3 11.6,5.6 12.7,5.8 C13.2,5.9 13.7,6 14.2,6 C14.4,6 14.6,6 14.6,6 C14.6,6 14.6,6 14.6,6 C14.6,6 14.7,5.9 14.5,6.1 C14.5,6.1 14.6,6 14.6,6 C14.6,6 14.6,6 14.6,5.9 C14.7,5.6 14.6,5.1 14.6,4.6 C14.5,4.1 14.5,3.7 14.5,3.3 C14.4,2.5 14.6,1.7 14.7,1.2 C14.9,0.7 15.1,0.5 15.1,0.5 C15.1,0.5 15,0.8 15,1.2 C15,1.7 15.1,2.3 15.3,3.1 C15.4,3.5 15.5,3.9 15.7,4.4 C15.8,4.9 16,5.4 15.9,6 C15.9,6.1 15.8,6.4 15.7,6.6 C15.7,6.7 15.6,6.7 15.6,6.8 C15.5,6.9 15.6,6.8 15.5,6.9 C15.4,7 15.4,7 15.3,7.1 C14.8,7.4 14.5,7.4 14.2,7.4 C13.6,7.4 13,7.3 12.5,7.2 C10.3,6.8 8.2,6 6.7,5.4 C5.9,5.1 5.3,4.8 4.9,4.6 C4.3,4.3 4.1,4.2 4.1,4.2 Z" fill="#648F9E"/>
          </g>
          <g transform="translate(183.000000, 31.000000)" id="Shape">
            <path d="M0.4,5.7 C4.8,5.9 10.8,0.2 14.4,0.6 C16.6,0.8 14.6,2.3 14.6,4.5 C14.6,6.7 16.3,10.3 19.7,11.5" fill="#6DA3B2"/>
            <path d="M2,5.6 C2,5.6 2.2,5.5 2.5,5.4 C2.8,5.3 3.3,5 3.9,4.7 C5,4.1 6.5,3.4 8,2.6 C8.7,2.2 9.5,1.8 10.2,1.5 C10.9,1.2 11.6,1 12.3,0.8 C12.9,0.6 13.5,0.6 13.8,0.6 C14.2,0.6 14.4,0.6 14.4,0.6 C14.4,0.6 13.5,0.6 12.4,1 C11.2,1.4 9.7,2.1 8.3,3 C6.8,3.8 5.3,4.5 4.1,4.9 C3.5,5.1 3,5.3 2.7,5.4 C2.2,5.6 2,5.6 2,5.6 Z" fill="#4E6F7D"/>
            <path d="M16.7,9.5 C16.7,9.5 16.3,9.2 15.9,8.6 C15.4,8 14.9,7.2 14.6,6.2 C14.5,6 14.5,5.7 14.5,5.5 C14.5,5.3 14.5,5 14.5,4.8 C14.5,4.3 14.6,3.9 14.7,3.5 C14.8,3.1 14.9,2.9 15,2.7 C15.1,2.5 15.1,2.4 15.1,2.4 C15.1,2.4 15.1,2.5 15.1,2.7 C15,2.9 15,3.2 15,3.6 C15,4 15,4.4 15,4.8 C15,5.2 15.1,5.7 15.2,6.1 C15.4,7 15.9,7.8 16.2,8.5 C16.4,9.1 16.7,9.5 16.7,9.5 Z" fill="#4E6F7D"/>
          </g>
          <g transform="translate(93.000000, 0.000000)" id="Shape">
            <path d="M0.6,21.3 C3.6,21.7 7,21.6 9.8,17.4 C12.6,13.2 28.8,-2.3 43.6,1.8 C45.5,2.3 42.4,2.2 39.4,8 C36.4,13.8 36.8,22.7 42.9,25.5" fill="#6DA3B2"/>
            <path d="M4,21.1 C4,21.1 4.2,21.1 4.5,21 C4.8,20.9 5.3,20.9 5.8,20.6 C6.3,20.4 6.9,20 7.5,19.4 C8.1,18.8 8.7,18.1 9.3,17.3 C9.9,16.5 10.6,15.6 11.3,14.7 C12.1,13.8 12.9,12.8 13.8,11.9 C15.6,10.1 17.8,8.3 20.1,6.7 C21.3,5.9 22.4,5.2 23.6,4.6 C24.8,3.9 26,3.4 27.2,2.9 C29.6,1.9 32,1.4 34.1,1.1 C35.1,1 36.1,0.9 36.9,0.9 C37.7,0.9 38.5,0.9 39.1,1 C39.7,1 40.2,1.1 40.5,1.2 C40.8,1.2 41,1.3 41,1.3 C41,1.3 40.8,1.3 40.5,1.3 C40.2,1.3 39.7,1.3 39.1,1.3 C37.9,1.3 36.2,1.5 34.2,1.9 C32.2,2.3 30,3 27.7,4 C25.4,5 23,6.3 20.8,7.8 C18.6,9.3 16.5,11 14.6,12.7 C13.7,13.6 12.8,14.4 12,15.3 C11.2,16.2 10.5,17 9.8,17.8 C8.4,19.3 7,20.5 5.8,20.8 C5.2,21 4.7,21 4.4,21 C4.2,21.1 4,21.1 4,21.1 Z" fill="#4E6F7D"/>
            <path d="M41.1,24.3 C41.1,24.3 41,24.3 40.9,24.2 C40.8,24.1 40.5,24 40.3,23.8 C40.1,23.6 39.8,23.3 39.4,23 C39.1,22.7 38.8,22.3 38.5,21.8 C37.9,20.8 37.4,19.6 37.1,18.2 C37,17.5 36.9,16.8 36.9,16 C36.9,15.3 37,14.5 37,13.8 C37.2,12.3 37.5,10.8 38,9.5 C38.5,8.2 39.2,7 39.9,6.2 C40.6,5.3 41.3,4.7 41.8,4.3 C42.3,3.9 42.6,3.7 42.6,3.7 C42.6,3.7 42.4,4 42,4.5 C41.6,5 41.1,5.7 40.5,6.6 C40,7.5 39.4,8.6 39.1,9.9 C38.9,10.5 38.8,11.2 38.6,11.9 C38.5,12.6 38.4,13.3 38.3,14 C38.2,14.7 38.1,15.4 38.1,16.1 C38.1,16.8 38.1,17.5 38.2,18.1 C38.3,18.7 38.4,19.4 38.6,19.9 C38.8,20.5 38.9,21 39.2,21.5 C39.6,22.5 40.1,23.2 40.5,23.7 C40.8,24.1 41.1,24.3 41.1,24.3 Z" fill="#4E6F7D"/>
          </g>
          <g transform="translate(0.000000, 20.000000)">
            <g>
              <g id="Shape">
                <path d="M1,23.5 C-0.2,17.9 40.7,0.1 95,0.9 C149.4,1.7 196,22.1 218.8,25.5 C226.7,26.7 227.9,31.5 217.6,33.4 C207.3,35.3 181.1,52.4 129.9,54.8 C78.8,57.2 27.6,47.3 24,35.8 C24,35.8 2,27.8 1,23.5 Z" fill="#6DA3B2"/>
                <path d="M212.2,34.1 C206.8,33.6 207.6,37.6 202.4,36.5 C197.2,35.4 193.4,38.4 189.1,39.8 C184.8,41.2 180.4,39 175.8,39 C171.2,39 170.4,43.1 166.8,43.1 C163.3,43.1 157.8,46.1 153.5,47.4 C149.2,48.8 140.7,42.2 138,41.2 C135.3,40.1 131.2,40.9 128.2,41.7 C125.2,42.5 121.1,38.2 113.3,40.3 C105.4,42.5 84.2,55.2 79.4,47.1 C74.6,39 63.4,35.4 60.1,35.4 C56.8,35.4 56.8,34.6 54.9,33.5 C53,32.4 48.9,37.6 46.8,33.8 C44.6,30 40.6,32.4 38.1,32.7 C35.7,33 31.6,27.3 24.8,26.5 C18,25.7 11.8,27 8,25.1 C5.7,23.9 3.8,23 1.2,22.4 C1,22.8 1,23.2 1,23.5 C2,27.8 24,35.8 24,35.8 C27.6,47.3 78.8,57.2 129.9,54.8 C176,52.7 201.8,38.6 214,34.4 C213.5,34.3 212.9,34.1 212.2,34.1 Z" fill="#AEDEEB"/>
                <path d="M5.3,18.8 C5.3,18.8 5.7,18.6 6.3,18.2 C7,17.8 8,17.2 9.3,16.5 C10.6,15.8 12.3,15 14.2,14.2 C16.1,13.4 18.3,12.5 20.7,11.6 C23.1,10.7 25.7,9.8 28.5,8.9 C31.3,8 34.3,7.2 37.4,6.4 C39,6 40.5,5.7 42.2,5.3 C43.8,5 45.4,4.6 47.1,4.3 C50.4,3.7 53.8,3.1 57.2,2.6 C60.6,2.1 64,1.8 67.3,1.5 C70.7,1.2 74,1 77.2,0.8 C80.4,0.6 83.5,0.6 86.4,0.6 C89.3,0.6 92.1,0.6 94.7,0.7 C97.3,0.8 99.6,0.9 101.7,1 C103.8,1.1 105.6,1.3 107.1,1.4 C110.1,1.7 111.8,1.9 111.8,1.9 C111.8,1.9 110.1,1.8 107.1,1.6 C104.1,1.4 99.9,1.4 94.8,1.3 C92.2,1.3 89.5,1.3 86.6,1.4 C83.7,1.5 80.6,1.7 77.4,1.8 C74.2,2 70.9,2.2 67.6,2.6 C64.3,2.9 60.9,3.3 57.5,3.8 C54.1,4.2 50.8,4.8 47.5,5.4 C45.9,5.7 44.2,6.1 42.6,6.4 C41,6.8 39.4,7.1 37.9,7.5 C34.8,8.3 31.8,9 29,9.8 C26.2,10.6 23.5,11.4 21.1,12.2 C18.7,13 16.5,13.8 14.5,14.6 C12.6,15.3 10.9,16.1 9.5,16.7 C8.1,17.3 7.1,17.8 6.4,18.2 C5.7,18.6 5.3,18.8 5.3,18.8 Z" fill="#4E6F7D"/>
                <path d="M123.8,3.1 C123.8,3.1 124.1,3.1 124.6,3.1 C125.1,3.1 125.8,3.1 126.8,3.2 C128.7,3.3 131.4,3.6 134.5,4.1 C137.7,4.6 141.4,5.2 145.3,6 C149.2,6.8 153.4,7.7 157.6,8.7 C159.7,9.2 161.8,9.7 163.8,10.2 C165.9,10.7 167.9,11.2 169.8,11.7 C173.7,12.7 177.3,13.8 180.4,14.8 C183.5,15.7 186,16.7 187.8,17.3 C189.6,17.9 190.6,18.3 190.6,18.3 C190.6,18.3 189.6,18 187.8,17.5 C186,17 183.4,16.3 180.3,15.5 C177.2,14.7 173.6,13.8 169.7,12.9 C165.8,12 161.6,11 157.4,10.1 C153.2,9.1 149.1,8.2 145.1,7.3 C141.2,6.4 137.5,5.6 134.4,5 C131.3,4.4 128.6,3.9 126.8,3.6 C124.8,3.2 123.8,3.1 123.8,3.1 Z" fill="#4E6F7D"/>
                <path d="M41.2,46.3 C41.2,46.3 41.7,46.4 42.7,46.7 C43.7,46.9 45,47.3 46.8,47.7 C48.6,48.1 50.7,48.6 53.2,49.1 C54.4,49.4 55.8,49.6 57.2,49.8 C58.6,50 60.1,50.3 61.6,50.6 C64.7,51.1 68.1,51.6 71.6,52 C75.2,52.4 78.9,52.8 82.8,53.1 C90.6,53.8 99,54.2 107.3,54.4 C115.6,54.7 124,54.4 131.8,54 C135.7,53.8 139.5,53.5 143.1,53.2 C146.7,52.9 150.1,52.6 153.2,52.2 C154.8,52 156.2,51.8 157.7,51.6 C159.1,51.4 160.5,51.2 161.7,51 C163,50.8 164.1,50.6 165.2,50.4 C166.3,50.2 167.3,50 168.2,49.8 C169.1,49.6 169.9,49.4 170.6,49.3 C171.3,49.1 171.9,49 172.3,48.8 C173.2,48.5 173.8,48.4 173.8,48.4 C173.8,48.4 173.3,48.6 172.4,48.9 C171.9,49.1 171.4,49.2 170.7,49.5 C170,49.7 169.2,49.9 168.3,50.1 C167.4,50.4 166.4,50.6 165.3,50.8 C164.2,51.1 163.1,51.3 161.8,51.6 C160.5,51.9 159.2,52.1 157.8,52.4 C156.4,52.7 154.9,52.9 153.3,53.1 C150.2,53.6 146.8,54 143.2,54.4 C139.6,54.8 135.8,55.1 131.9,55.4 C124.1,55.9 115.7,56.2 107.3,56 C98.9,55.7 90.5,55.3 82.7,54.5 C78.8,54.1 75,53.7 71.4,53.2 C67.8,52.7 64.5,52.2 61.4,51.6 C58.3,51 55.5,50.5 53,49.8 C50.5,49.2 48.4,48.6 46.6,48.2 C44.8,47.7 43.5,47.3 42.5,47 C41.7,46.4 41.2,46.3 41.2,46.3 Z" fill="#648F9E"/>
                <path d="M180.2,46.6 C180.2,46.6 181.2,46.3 182.6,45.8 C183.3,45.6 184.1,45.3 185,45 C185.9,44.7 186.9,44.4 187.8,44.1 C188.8,43.8 189.7,43.5 190.6,43.2 C191.5,42.9 192.4,42.7 193.1,42.5 C194.6,42.1 195.5,41.8 195.5,41.8 C195.5,41.8 194.6,42.2 193.2,42.8 C192.5,43.1 191.7,43.4 190.8,43.7 C189.9,44 188.9,44.3 188,44.7 C187,45 186.1,45.3 185.2,45.6 C184.3,45.9 183.4,46.1 182.7,46.2 C181.2,46.4 180.2,46.6 180.2,46.6 Z" fill="#648F9E"/>
                <path d="M199.2,40.5 C199.2,40.5 200.2,40 201.7,39.3 C202.4,39 203.3,38.5 204.3,38.1 C205.2,37.7 206.3,37.3 207.3,36.8 C208.3,36.4 209.3,36 210.3,35.6 C211.3,35.2 212.2,34.9 213,34.7 C213.8,34.4 214.4,34.3 214.9,34.1 C215.4,34 215.6,33.9 215.6,33.9 C215.6,33.9 215.3,34 214.9,34.2 C214.5,34.4 213.8,34.7 213.1,35 C212.3,35.3 211.5,35.7 210.5,36.1 C209.6,36.5 208.5,36.9 207.5,37.4 C206.5,37.8 205.5,38.2 204.5,38.6 C203.5,39 202.6,39.3 201.9,39.6 C200.2,40.2 199.2,40.5 199.2,40.5 Z" fill="#648F9E"/>
              </g>
              <path d="M4.6,27 C4.6,27 5.3,27.3 6.5,27.9 C7.7,28.5 9.4,29.3 11.5,30.3 C13.6,31.3 16,32.3 18.7,33.4 C20,33.9 21.4,34.4 22.8,34.8 C24.2,35.2 25.7,35.6 27.1,35.7 C27.8,35.8 28.6,35.8 29.3,35.8 C30.1,35.8 30.8,35.7 31.6,35.7 C33.2,35.7 34.6,35.8 36.1,36 C37.5,36.1 38.9,36.4 40.2,36.6 C41.5,36.8 42.7,37.1 43.9,37.3 C46.2,37.8 48,38.3 49.3,38.6 C50.6,39 51.3,39.2 51.3,39.2 C51.3,39.2 50.5,39.1 49.2,38.9 C47.9,38.7 46,38.4 43.7,38.1 C41.4,37.8 38.8,37.5 35.9,37.3 C34.5,37.2 33,37.1 31.5,37.2 C30.8,37.2 30,37.3 29.2,37.3 C28.4,37.4 27.6,37.3 26.8,37.2 C23.6,36.8 20.7,35.7 18,34.6 C15.3,33.5 12.9,32.2 10.9,31.1 C8.9,30 7.3,28.9 6.1,28.2 C5.2,27.5 4.6,27 4.6,27 Z" id="Shape" fill="#648F9E"/>
              <ellipse id="Oval" fill="#212F33" cx="49.7" cy="24.5" rx="1.2" ry="2.1"/>
            </g>
            <path d="M71.7,23.6 C71.7,23.6 71.9,23.9 72.1,24.4 C72.2,24.6 72.4,25 72.5,25.3 C72.6,25.7 72.8,26.1 72.9,26.5 C73,27 73.2,27.5 73.3,28 C73.4,28.5 73.5,29.1 73.6,29.7 C73.6,30.3 73.7,30.9 73.6,31.6 C73.6,32.2 73.5,32.9 73.4,33.5 C73.3,34.1 73.1,34.8 73,35.4 C72.9,36 72.6,36.6 72.3,37.2 C72.1,37.8 71.7,38.3 71.5,38.7 C71.2,39.2 70.9,39.6 70.6,40 C70.3,40.4 70,40.7 69.7,41 C69.4,41.3 69.2,41.5 69,41.7 C68.6,42.1 68.3,42.3 68.3,42.3 C68.3,42.3 68.5,42 68.8,41.6 C68.9,41.4 69.1,41.1 69.3,40.8 C69.5,40.5 69.7,40.1 69.9,39.7 C70.1,39.3 70.4,38.9 70.6,38.4 C70.8,37.9 71.1,37.4 71.2,36.9 C71.4,36.4 71.6,35.8 71.7,35.2 C71.9,34.6 72,34.1 72.1,33.5 C72.2,32.9 72.3,32.3 72.3,31.7 C72.4,31.1 72.3,30.5 72.4,30 C72.4,29.4 72.4,28.9 72.3,28.4 C72.3,27.9 72.2,27.4 72.2,26.9 C72.1,26 72,25.2 71.8,24.7 C71.8,23.9 71.7,23.6 71.7,23.6 Z" id="Shape" fill="#4E6F7D"/>
            <path d="M75.6,23.6 C75.6,23.6 75.8,23.9 76,24.4 C76.1,24.6 76.3,25 76.4,25.3 C76.5,25.7 76.7,26.1 76.8,26.5 C76.9,27 77.1,27.5 77.2,28 C77.3,28.5 77.4,29.1 77.5,29.7 C77.5,30.3 77.6,30.9 77.5,31.6 C77.5,32.2 77.4,32.9 77.3,33.5 C77.2,34.1 77,34.8 76.9,35.4 C76.8,36 76.5,36.6 76.2,37.2 C76,37.8 75.6,38.3 75.4,38.7 C75.1,39.2 74.8,39.6 74.5,40 C74.2,40.4 73.9,40.7 73.6,41 C73.3,41.3 73.1,41.5 72.9,41.7 C72.5,42.1 72.2,42.3 72.2,42.3 C72.2,42.3 72.4,42 72.7,41.6 C72.8,41.4 73,41.1 73.2,40.8 C73.4,40.5 73.6,40.1 73.8,39.7 C74,39.3 74.3,38.9 74.5,38.4 C74.7,37.9 75,37.4 75.1,36.9 C75.3,36.4 75.5,35.8 75.6,35.2 C75.8,34.6 75.9,34.1 76,33.5 C76.1,32.9 76.2,32.3 76.2,31.7 C76.3,31.1 76.2,30.5 76.3,30 C76.3,29.4 76.3,28.9 76.2,28.4 C76.2,27.9 76.1,27.4 76.1,26.9 C76,26 75.9,25.2 75.7,24.7 C75.7,23.9 75.6,23.6 75.6,23.6 Z" id="Shape" fill="#4E6F7D"/>
            <path d="M80.6,23.6 C80.6,23.6 80.8,23.9 81,24.4 C81.1,24.6 81.3,25 81.4,25.3 C81.5,25.7 81.7,26.1 81.8,26.5 C81.9,27 82.1,27.5 82.2,28 C82.3,28.5 82.4,29.1 82.5,29.7 C82.5,30.3 82.6,30.9 82.5,31.6 C82.5,32.2 82.4,32.9 82.3,33.5 C82.2,34.1 82,34.8 81.9,35.4 C81.8,36 81.5,36.6 81.2,37.2 C81,37.8 80.6,38.3 80.4,38.7 C80.1,39.2 79.8,39.6 79.5,40 C79.2,40.4 78.9,40.7 78.6,41 C78.3,41.3 78.1,41.5 77.9,41.7 C77.5,42.1 77.2,42.3 77.2,42.3 C77.2,42.3 77.4,42 77.7,41.6 C77.8,41.4 78,41.1 78.2,40.8 C78.4,40.5 78.6,40.1 78.8,39.7 C79,39.3 79.3,38.9 79.5,38.4 C79.7,37.9 80,37.4 80.1,36.9 C80.3,36.4 80.5,35.8 80.6,35.2 C80.8,34.6 80.9,34.1 81,33.5 C81.1,32.9 81.2,32.3 81.2,31.7 C81.3,31.1 81.2,30.5 81.3,30 C81.3,29.4 81.3,28.9 81.2,28.4 C81.2,27.9 81.1,27.4 81.1,26.9 C81,26 80.9,25.2 80.7,24.7 C80.7,23.9 80.6,23.6 80.6,23.6 Z" id="Shape" fill="#4E6F7D"/>
            <path d="M23.1,28.8 C23.1,28.8 22.8,28.6 22.8,28 C22.8,27.5 23,26.8 23.4,26.3 C23.6,26.1 23.8,25.8 24.1,25.7 C24.3,25.5 24.6,25.4 24.8,25.3 C25.2,25.1 25.6,25.2 25.6,25.2 C25.6,25.2 25.5,25.5 25.3,25.9 C25.1,26.3 24.8,26.7 24.5,27.1 C24.3,27.3 24.2,27.5 24,27.6 C23.9,27.8 23.7,27.9 23.6,28.1 C23.5,28.2 23.3,28.4 23.3,28.5 C23.1,28.8 23.1,28.8 23.1,28.8 Z" id="Shape" fill="#4E6F7D"/>
          </g>
        </g>
        <g id="Group" transform="translate(80.000000, 57.000000)">
          <path d="M31.7,2.7 C29.1,7.9 43.1,25.5 47.1,30.5 C47.6,31.1 47,31.7 46.1,31.7 C14.1,30.3 0.5,7.6 0.5,7.6 C8.1,0.9 18.1,-1.4 31.7,2.7 Z" id="Shape" fill="#6DA3B2"/>
          <path d="M31.5,2.7 C31.5,2.7 31.4,3.2 31.5,4.1 C31.6,5 32,6.2 32.5,7.5 C32.8,8.2 33.1,8.9 33.6,9.7 C34,10.5 34.5,11.2 35,12 C35.5,12.8 36,13.6 36.6,14.4 C37.2,15.2 37.7,16.1 38.3,16.9 C39.4,18.6 40.6,20.2 41.6,21.8 C42.7,23.4 43.6,24.8 44.5,26.1 C45.3,27.4 46,28.4 46.5,29.2 C47,29.9 47.2,30.4 47.2,30.4 C47.2,30.4 46.8,30 46.3,29.4 C45.7,28.7 44.9,27.8 43.9,26.6 C42.9,25.4 41.8,24 40.7,22.5 C40.1,21.7 39.5,21 39,20.1 C38.4,19.3 37.8,18.5 37.3,17.6 C36.7,16.8 36.2,15.9 35.7,15.1 C35.2,14.3 34.7,13.4 34.2,12.6 C33.7,11.8 33.3,10.9 33,10.1 C32.6,9.3 32.4,8.5 32.1,7.8 C31.7,6.3 31.5,5 31.5,4.1 C31.2,3.2 31.5,2.7 31.5,2.7 Z" id="Shape" fill="#4E6F7D"/>
          <path d="M0.6,7.6 C0.6,7.6 0.7,7.8 0.9,8.1 C1.1,8.4 1.5,8.9 1.9,9.4 C2.4,10 2.9,10.7 3.6,11.4 C3.9,11.8 4.3,12.2 4.7,12.6 C5.1,13 5.5,13.4 5.9,13.9 C6.3,14.3 6.8,14.8 7.3,15.2 C7.8,15.6 8.3,16.1 8.8,16.6 C9.9,17.5 11,18.5 12.3,19.3 C12.9,19.7 13.5,20.2 14.2,20.7 C14.9,21.1 15.5,21.5 16.2,22 C16.5,22.2 16.9,22.4 17.2,22.6 L18.3,23.2 C19,23.6 19.7,24 20.5,24.4 C22,25.1 23.5,25.8 24.9,26.5 C26.4,27.1 27.9,27.6 29.3,28.2 C30.8,28.6 32.2,29.1 33.6,29.5 C34.3,29.7 35,29.8 35.6,30 C36.2,30.1 36.9,30.3 37.5,30.4 C38.7,30.7 39.8,31 40.8,31.1 C41.8,31.3 42.7,31.4 43.4,31.5 C44.8,31.7 45.7,31.9 45.7,31.9 C45.7,31.9 44.9,31.9 43.4,31.8 C42.7,31.8 41.8,31.7 40.8,31.6 C39.8,31.6 38.7,31.4 37.4,31.2 C36.2,31 34.8,30.9 33.4,30.5 C32,30.1 30.5,29.8 29,29.4 C27.5,28.9 26,28.3 24.4,27.8 C22.9,27.1 21.4,26.5 19.8,25.7 C19.1,25.3 18.3,24.9 17.6,24.5 L16.5,23.9 C16.1,23.7 15.8,23.4 15.5,23.2 C14.8,22.7 14.1,22.3 13.5,21.8 C12.8,21.3 12.2,20.8 11.6,20.4 C10.3,19.5 9.2,18.4 8.2,17.5 C7.2,16.5 6.2,15.5 5.4,14.6 C5,14.1 4.6,13.7 4.2,13.2 C3.9,12.7 3.5,12.3 3.2,11.9 C2.6,11.1 2.1,10.3 1.7,9.7 C0.9,8.3 0.6,7.6 0.6,7.6 Z" id="Shape" fill="#4E6F7D"/>
        </g>
      </g>
    </g>
  </g>
</svg>