<svg width="143px" height="112px" viewBox="0 0 143 112" version="1.1" xml:space="preserve" xmlns="http://www.w3.org/2000/svg" xmlns:xlink="http://www.w3.org/1999/xlink">
  <defs/>
  <g>
    <title>hedgehog-b</title>
    <desc>Created with Sketch.</desc>
    <g id="forest" stroke="none" stroke-width="1" fill="none" fill-rule="evenodd">
      <g id="hedgehog-b" fill-rule="nonzero">
        <g id="paws" transform="translate(31.161074, 61.039216)">
          <path d="M13.3375839,12.1392157 C16.6919463,18.4901961 11.7402685,19.5352941 14.5355705,21.7862745 C17.6503356,24.2784314 23.4006711,29.9058824 18.9281879,29.5843137 C14.4557047,29.1823529 12.8583893,26.6098039 10.5422819,24.8411765 C9.10469799,23.7960784 7.66711409,20.6607843 6.7885906,18.972549 C5.98993289,17.445098 2.71543624,10.2098039 1.43758389,8.84313725 C1.43758389,8.7627451 10.0630872,5.78823529 13.3375839,12.1392157 Z" id="Shape" fill="#C9B59B"/>
          <path d="M63.8926174,8.28039216 C65.809396,15.5960784 66.2885906,18.0882353 69.4033557,19.9372549 C72.8375839,21.9470588 76.2718121,24.6803922 71.7993289,24.9215686 C67.3268456,25.2431373 65.4100671,23.3137255 62.7744966,21.8666667 C61.1771812,20.9823529 60.4583893,20.5803922 59.3402685,19.0529412 C58.3020134,17.6058824 52.9510067,8.11960784 51.5134228,6.91372549 C51.5932886,6.91372549 61.9758389,0.964705882 63.8926174,8.28039216 Z" id="Shape" fill="#C9B59B"/>
          <path d="M16.8516779,22.6705882 C13.8167785,21.6254902 12.3791946,21.2235294 10.4624161,24.2784314 C8.30604027,27.654902 0.159731544,34.4078431 0.159731544,29.8254902 C0.0798657718,25.3235294 2.5557047,23.4745098 4.07315436,20.9823529 C5.03154362,19.454902 5.03154362,18.6509804 6.62885906,17.6058824 C8.06644295,16.6411765 14.695302,6.51176471 19.0879195,10.3705882 C23.4805369,14.2294118 16.8516779,22.6705882 16.8516779,22.6705882 Z" id="Shape" fill="#DBCCB6"/>
          <path d="M73.7161074,12.4607843 C66.9275168,20.5 66.7677852,19.8568627 63.8926174,23.3941176 C61.4167785,26.4490196 55.1073826,30.8705882 55.5865772,27.5745098 C56.1456376,24.1176471 57.5832215,19.9372549 59.0208054,17.3647059 C59.8993289,15.8372549 59.5798658,10.0490196 59.7395973,8.11960784 C60.7778523,-5.70784314 74.6744966,2.25098039 74.195302,7.31568627 C73.7161074,12.4607843 73.7161074,12.4607843 73.7161074,12.4607843 Z" id="Shape" fill="#DBCCB6"/>
        </g>
        <path d="M111.346309,74.7862745 C111.665772,74.3843137 112.065101,73.9019608 112.384564,73.4196078 C111.825503,73.0980392 108.391275,67.9529412 105.356376,64.4960784 C106.314765,62.0039216 106.79396,59.4313725 106.79396,56.6980392 C106.79396,40.0568627 87.8657718,26.5509804 64.4651007,26.5509804 C41.0644295,26.5509804 22.1362416,40.0568627 22.1362416,56.6980392 C22.1362416,72.454902 39.2275168,85.3980392 60.9510067,86.6843137 C60.7114094,86.9254902 60.5516779,87.2470588 60.3919463,87.4882353 C60.7912752,88.0509804 61.190604,89.1764706 61.5100671,90.7039216 C61.5899329,90.7039216 61.6697987,90.7039216 61.7496644,90.7039216 C62.1489933,90.7039216 62.5483221,90.7039216 63.0275168,90.7039216 C64.1456376,86.1215686 65.1838926,86.1215686 66.5416107,90.5431373 C67.0208054,90.5431373 67.4201342,90.4627451 67.8194631,90.4627451 C68.3785235,85.5588235 69.4966443,85.4784314 71.4932886,90.1411765 C71.8127517,90.1411765 72.1322148,90.0607843 72.4516779,90.0607843 C72.3718121,88.2921569 71.8926174,85.3980392 73.4100671,85.3980392 C75.0073826,85.3980392 75.0073826,88.0509804 75.8060403,89.6588235 C75.9657718,89.6588235 76.2852349,89.5784314 76.2852349,89.5784314 C76.2852349,89.5784314 75.8060403,85.3980392 77.4832215,85.3980392 C79.1604027,85.3980392 79.6395973,89.0156863 79.6395973,89.0156863 L80.2785235,88.9352941 C80.2785235,88.9352941 79.2402685,85.0764706 80.6778523,84.5137255 C82.1154362,83.9509804 83.7127517,88.2921569 83.7127517,88.2921569 C83.7127517,88.2921569 84.1919463,88.2117647 84.3516779,88.1313725 C82.0355705,82.4235294 84.6711409,80.8960784 87.9456376,87.2470588 C88.3449664,87.1666667 88.6644295,87.0862745 89.0637584,86.9254902 C87.0671141,81.4588235 89.3832215,79.127451 93.5362416,84.5941176 C93.9355705,84.4333333 94.3348993,84.3529412 94.7342282,84.1921569 C91.7791946,81.0568627 96.2516779,78.3235294 99.7657718,82.9862745 C100.165101,82.8254902 100.005369,82.9058824 100.404698,82.745098 C97.7691275,79.3686275 101.522819,77.6 103.519463,80.9764706 C104.238255,80.5745098 103.519463,80.9764706 104.238255,80.5745098 C101.522819,77.6803922 103.279866,74.7862745 107.273154,78.4039216 L107.991946,78.0823529 C104.078523,74.3039216 104.797315,73.6607843 111.346309,74.7862745 Z" id="belly_1_" fill="#DBCCB6"/>
        <g id="Group" transform="translate(8.000000, 12.000000)" fill="#3E5360">
          <path d="M108.777181,42.527451 C108.777181,42.2058824 108.857047,41.8039216 108.857047,41.4823529 C100.87047,39.5529412 101.828859,39.0705882 109.336242,37.6235294 C109.336242,37.2215686 109.256376,36.8196078 109.256376,36.4176471 C104.065101,35.9352941 101.189933,35.5333333 108.936913,33.845098 C108.936913,33.6843137 108.857047,33.4431373 108.857047,33.2823529 C99.3530201,32.9607843 99.3530201,31.8352941 107.738926,29.0215686 C107.579195,28.6196078 107.499329,28.2980392 107.339597,27.8960784 C99.5926174,27.9764706 98.714094,26.3686275 104.863758,22.9117647 C104.544295,22.4294118 104.304698,21.9470588 103.985235,21.4647059 C96.0785235,22.5098039 95.5993289,22.4294118 101.509396,18.1686275 C101.349664,17.927451 101.110067,17.6862745 100.87047,17.445098 C92.8838926,20.1784314 92.0852349,19.6156863 98.714094,15.1941176 C98.6342282,15.1137255 98.4744966,14.9529412 98.3147651,14.872549 C91.8456376,17.6862745 90.647651,16.2392157 94.8805369,11.9784314 C94.5610738,11.7372549 94.2416107,11.4960784 93.9221477,11.254902 C88.4114094,14.3901961 87.6127517,14.3901961 92.1651007,10.0490196 C92.0852349,9.96862745 91.9255034,9.88823529 91.8456376,9.80784314 C86.1751678,13.6666667 85.1369128,12.5411765 88.7308725,7.87843137 C88.3315436,7.6372549 87.9322148,7.39607843 87.4530201,7.23529412 C81.3832215,11.0137255 77.9489933,10.6117647 82.5013423,4.98431373 C82.261745,4.90392157 82.1020134,4.82352941 81.8624161,4.74313725 C77.3899329,8.44117647 75.5530201,8.92352941 77.3899329,3.21568627 C76.990604,3.05490196 76.5114094,2.9745098 76.1120805,2.81372549 C72.2785235,7.79803922 71.6395973,7.15490196 73.2369128,2.09019608 C72.9973154,2.00980392 72.6778523,2.00980392 72.438255,1.92941176 C68.7644295,7.79803922 68.1255034,7.87843137 69.8026846,1.44705882 C69.642953,1.44705882 69.4033557,1.36666667 69.2436242,1.36666667 C64.7711409,8.03921569 63.2536913,7.0745098 62.6946309,0.643137255 C62.3751678,0.643137255 62.0557047,0.643137255 61.7362416,0.562745098 C59.8993289,7.15490196 59.4201342,7.31568627 59.8194631,0.482352941 C59.7395973,0.482352941 59.5798658,0.482352941 59.5,0.482352941 C57.1040268,8.11960784 55.7463087,7.71764706 54.4684564,0.562745098 C54.3087248,0.562745098 54.0691275,0.562745098 53.909396,0.562745098 C52.7114094,8.28039216 51.7530201,8.7627451 49.5966443,0.964705882 C49.4369128,0.964705882 49.357047,0.964705882 49.1973154,1.04509804 C47.9993289,8.28039216 47.2805369,7.71764706 43.5268456,2.09019608 C43.047651,2.17058824 42.4885906,2.33137255 42.009396,2.49215686 C42.2489933,8.68235294 42.5684564,8.44117647 38.495302,3.5372549 C37.9362416,3.69803922 37.457047,3.85882353 36.8979866,4.1 C37.9362416,8.52156863 36.5785235,9.24509804 32.9845638,5.62745098 C32.5852349,5.78823529 32.185906,5.94901961 31.7865772,6.10980392 C34.1026846,11.7372549 33.5436242,12.3 28.5919463,7.6372549 C28.4322148,7.71764706 28.352349,7.79803922 28.1926174,7.79803922 C32.3456376,14.1490196 31.7865772,14.4705882 26.1161074,8.92352941 C26.0362416,9.00392157 25.9563758,9.00392157 25.8765101,9.08431373 C30.2691275,14.9529412 29.7100671,15.2745098 23.8798658,10.2901961 C23.7201342,10.3705882 23.6402685,10.4509804 23.4805369,10.5313725 C27.314094,15.2745098 26.6751678,15.6764706 21.0845638,12.0588235 C20.7651007,12.2196078 20.5255034,12.4607843 20.2060403,12.7019608 C23.5604027,16.7215686 22.761745,17.445098 17.3308725,14.872549 C17.0912752,15.1137255 16.7718121,15.2745098 16.5322148,15.5156863 C21.4040268,20.0980392 20.5255034,20.9019608 13.3375839,18.4098039 C13.1778523,18.5705882 12.938255,18.8117647 12.7785235,18.972549 C18.5288591,23.4745098 17.6503356,24.4392157 9.50402685,22.5098039 C9.26442953,22.7509804 9.10469799,22.9921569 8.86510067,23.3137255 C14.2959732,26.6901961 13.4973154,27.7352941 6.06979866,27.172549 C5.83020134,27.5745098 5.59060403,27.9764706 5.35100671,28.3784314 C11.9,31.5941176 11.4208054,32.9607843 2.87516779,33.3627451 C2.71543624,33.6843137 2.63557047,33.9254902 2.5557047,34.2470588 C10.142953,36.6588235 9.82348993,36.9 1.35771812,38.0254902 C1.27785235,38.3470588 1.19798658,38.7490196 1.11812081,39.0705882 C7.18791946,39.6333333 7.10805369,40.1156863 0.718791946,41.2411765 C0.638926174,41.7235294 0.638926174,42.2058824 0.559060403,42.6882353 C5.6704698,43.572549 5.6704698,45.6627451 0.638926174,47.9941176 C0.718791946,48.7176471 0.87852349,49.3607843 1.03825503,50.0843137 C5.03154362,50.1647059 5.27114094,50.8882353 1.75704698,52.5764706 C1.9966443,53.2196078 2.15637584,53.8627451 2.47583893,54.4254902 C6.30939597,54.1843137 6.62885906,54.9078431 3.51409396,56.7568627 C3.75369128,57.3196078 4.07315436,57.8019608 4.39261745,58.2843137 C8.86510067,57.4803922 9.42416107,58.2843137 5.98993289,60.7764706 C6.38926174,61.3392157 6.7885906,61.9019608 7.26778523,62.4647059 C12.6986577,61.2588235 13.4973154,62.2235294 9.82348993,65.4392157 C10.142953,65.7607843 10.4624161,66.0823529 10.7818792,66.4039216 C16.6919463,63.9117647 17.4107383,64.6352941 13.2577181,68.654902 C13.5771812,68.8960784 13.8167785,69.1372549 14.1362416,69.3784314 C20.4456376,66.0019608 21.3241611,66.7254902 17.2510067,71.7098039 C17.5704698,71.9509804 17.8899329,72.1117647 18.1295302,72.3529412 C24.6785235,68.2529412 25.8765101,68.8960784 22.3624161,74.9254902 C22.6818792,75.0862745 23.0013423,75.2470588 23.3208054,75.4078431 C28.9114094,70.8254902 29.8697987,71.5490196 27.1543624,77.1764706 C27.3939597,77.2568627 27.7134228,77.4176471 27.9530201,77.4980392 C32.7449664,72.1921569 33.942953,72.9156863 31.2275168,78.7039216 C31.4671141,78.7843137 31.7067114,78.8647059 31.9463087,78.945098 C37.2973154,72.5941176 37.1375839,72.272549 35.4604027,79.9098039 C35.7,79.9901961 35.8597315,79.9901961 36.0993289,80.0705882 C40.8114094,72.8352941 41.8496644,72.9960784 40.3322148,80.8745098 C40.4120805,80.8745098 40.4919463,80.8745098 40.5718121,80.8745098 C44.5651007,72.5941176 45.2838926,73.5588235 45.2838926,81.2764706 C45.4436242,81.2764706 45.6832215,81.2764706 45.842953,81.2764706 C48.7181208,73.7196078 50.7946309,72.6745098 51.8328859,81.0352941 C51.9127517,81.0352941 52.0724832,81.0352941 52.152349,81.0352941 C53.8295302,73.7196078 55.0275168,73.8 57.1838926,80.1509804 C57.5832215,80.0705882 57.9026846,79.9901961 58.3020134,79.9098039 C58.3020134,79.9098039 57.4234899,75.4882353 59.0208054,74.845098 C60.6181208,74.2019608 61.6563758,77.9803922 62.6946309,78.5431373 C62.9342282,78.4627451 63.1738255,78.3823529 63.4134228,78.3019608 C63.1738255,77.4176471 62.3751678,75.4078431 62.2154362,74.6039216 C62.3751678,72.9960784 64.052349,73.6392157 66.5281879,75.4882353 C66.847651,75.4078431 67.6463087,75.2470588 67.885906,75.0862745 C64.5315436,70.8254902 63.8926174,68.654902 69.5630872,71.7901961 C69.9624161,71.5490196 70.2818792,71.3882353 70.6812081,71.1470588 C67.4865772,66.7254902 68.7644295,65.9215686 75.3134228,68.172549 C75.7127517,67.9313725 75.6328859,67.9313725 76.0322148,67.6901961 C72.2785235,64.9568627 73.0771812,62.0627451 78.1885906,66.3235294 C78.5879195,66.0823529 78.8275168,65.8411765 79.1469799,65.6 C73.7161074,61.6607843 76.9107383,59.5705882 82.4214765,63.5098039 C82.9805369,63.1078431 83.4597315,62.7058824 83.9389262,62.3039216 C79.466443,59.0882353 82.9805369,55.6313725 88.6510067,58.927451 L89.4496644,58.3647059 C85.3765101,56.0333333 85.6161074,52.7372549 89.3697987,53.8627451 C93.1234899,54.9882353 93.8422819,55.6313725 94.161745,55.6313725 C94.6409396,54.9882353 95.0402685,54.4254902 95.4395973,53.7823529 C90.9671141,51.6921569 95.0402685,51.9333333 100.551007,51.5313725 C100.710738,51.1294118 100.87047,50.727451 101.030201,50.3254902 C94.9604027,49.3607843 99.752349,46.2254902 106.141611,46.7078431 C106.221477,46.5470588 106.221477,46.3862745 106.301342,46.2254902 C99.033557,44.3764706 100.391275,43.0098039 108.777181,42.527451 Z" id="Shape"/>
          <path d="M87.6926174,58.6058824 C87.6926174,58.6862745 88.0919463,58.1235294 87.6926174,58.6058824 Z" id="Shape"/>
        </g>
        <g id="face_1_" transform="translate(86.268456, 44.960784)">
          <path d="M32.5852349,20.2588235 C29.6302013,17.3647059 29.3107383,15.0333333 28.0328859,11.3352941 C27.7932886,10.772549 27.4738255,9.80784314 27.1543624,9.16470588 C27.1543624,9.16470588 27.5536913,9.00392157 25.6369128,9.56666667 C21.7234899,10.772549 11.1013423,6.02941176 8.06644295,7.71764706 C7.42751678,8.11960784 7.26778523,8.03921569 6.94832215,8.52156863 C9.02483221,9.08431373 10.861745,9.40588235 10.861745,9.40588235 C10.861745,9.64705882 11.0214765,10.2098039 11.0214765,10.2098039 C8.46577181,11.0941176 6.30939597,11.9784314 5.98993289,12.7823529 C5.98993289,13.0235294 6.06979866,13.2647059 6.06979866,13.4254902 C7.02818792,14.3098039 12.1395973,13.7470588 12.1395973,13.7470588 L12.3791946,14.5509804 C12.3791946,14.5509804 7.26778523,16.7215686 8.30604027,17.6862745 C9.42416107,18.7313725 11.8201342,18.8921569 13.8966443,19.454902 C13.7369128,19.6156863 13.5771812,20.4196078 13.5771812,20.4196078 C13.5771812,20.4196078 10.3026846,20.0980392 8.94496644,21.1431373 C9.3442953,21.8666667 9.66375839,22.5901961 9.9033557,23.1529412 C12.5389262,28.7803922 23.0812081,31.5941176 36.4187919,28.4588235 L38.8946309,26.9313725 C38.8147651,22.1882353 35.2208054,22.9117647 32.5852349,20.2588235 Z" id="Shape" fill="#DBCCB6"/>
          <ellipse id="Oval" fill="#3E5360" transform="translate(20.456449, 16.504325) rotate(-85.978900) translate(-20.456449, -16.504325) " cx="20.4564494" cy="16.5043248" rx="1.43752871" ry="1.44700327"/>
          <g id="Group" opacity="0.6" transform="translate(15.973154, 4.823529)" fill="#C6A87B">
            <path d="M6.38926174,2.41176471 C5.03154362,0.884313725 2.87516779,-0.0803921569 0.87852349,0.643137255 C0.0798657718,0.884313725 0.399328859,2.17058824 1.19798658,1.92941176 C2.79530201,1.36666667 4.39261745,2.17058824 5.43087248,3.37647059 C5.98993289,3.93921569 6.94832215,2.9745098 6.38926174,2.41176471 Z" id="Shape"/>
          </g>
          <path d="M35.3006711,25.8862745 C35.3006711,25.8862745 36.6583893,28.2980392 38.0161074,28.2176471 C39.3738255,28.0568627 40.3322148,25.4843137 40.3322148,25.4843137 C40.1724832,24.1176471 39.0543624,23.554902 37.6167785,23.7156863 C36.2590604,23.7156863 35.1409396,24.4392157 35.3006711,25.8862745 Z" id="Shape" fill="#65746F"/>
          <path d="M12.7785235,8.28039216 C11.9,4.58235294 9.18456376,-2.9745098 1.91677852,1.44705882 C-4.15302013,5.2254902 9.74362416,11.1745098 12.7785235,8.28039216 Z" id="Shape" fill="#DBCCB6"/>
        </g>
      </g>
    </g>
  </g>
</svg>