<svg version="1.1" width="145" height="181" viewBox="-1 -1 145 181" xmlns="http://www.w3.org/2000/svg" xmlns:xlink="http://www.w3.org/1999/xlink">
  <!-- Exported by Scratch - http://scratch.mit.edu/ -->
  <g id="ID0.09677001275122166" transform="matrix(1, 0, 0, 1, 0, 0.25)">
    <g id="Page-1">
      <g id="dinosaur4-d-[animals,dinosaur,tyrannosaurus,t-rex,trex,alex-eben-meyer]">
        <path id="Shape" fill="#828C00" stroke="none" stroke-width="1" d="M 32.361 148.968 C 24.602 153.354 11.829 154.285 11.829 154.285 C 11.829 154.285 -1.885 115.805 0.627 115.768 C 2.249 115.744 8.200 120.888 19.583 123.442 C 25.860 124.851 38.278 124.735 40 124.707 C 42.482 124.670 44.965 124.624 47.423 124.620 C 49.078 124.620 52.641 123.953 54.122 124.756 C 53.729 127.083 46.513 140.973 32.361 148.968 Z " transform="matrix(-1, 0, 0, 1, 54.9, 0.25)"/>
        <path id="Shape" fill="#828C00" stroke="none" stroke-width="1" d="M 72.773 84.851 C 72.181 84.851 72.475 81.919 72.098 81.919 C 71.722 81.919 71.887 84.769 71.213 84.724 C 70.538 84.678 70.960 82.005 70.331 82.005 C 69.702 82.005 70.294 87.644 70.269 89.267 C 70.232 91.462 70.327 93.666 70.232 95.857 C 70.145 97.818 69.847 99.762 68.842 101.480 C 68.254 102.481 64.584 105.034 60.669 105.351 C 58.314 105.554 55.941 105.311 53.676 104.635 L 51.057 108.605 C 51.057 108.605 56.506 110.125 61.402 109.730 C 64.815 109.458 68.436 108.115 69.206 107.600 C 71.875 105.833 73.410 102.316 73.580 99.445 C 73.741 96.730 73.807 93.995 73.882 91.273 C 73.944 88.851 74.486 82.586 73.882 82.417 C 73.278 82.248 73.348 84.851 72.773 84.851 Z " transform="matrix(-1, 0, 0, 1, 125.7, 0.25)"/>
        <path id="Shape" fill="#828C00" stroke="none" stroke-width="1" d="M 141.274 139.444 L 132.319 127.087 C 119.698 140.519 104.976 154.874 102.112 157.346 C 101.123 156.658 100.772 155.583 100.085 154.784 L 99.162 155.319 C 100.105 156.476 103.639 161.802 104.856 162.795 C 105.898 162.033 141.274 139.444 141.274 139.444 Z " transform="matrix(-1, 0, 0, 1, 240.9, 0.25)"/>
        <path id="Shape" fill="#A0AA1E" stroke="none" stroke-width="1" d="M 112.745 117.964 C 111.392 116.666 109.530 115.904 108.086 114.829 C 105.884 113.182 103.286 111.979 101.051 110.344 C 100.327 109.821 98.895 108.614 98.895 108.614 L 96.276 104.643 C 96.276 104.643 94.402 99.548 94.095 97.871 C 92.854 91.141 92.788 71.139 92.746 64.302 L 45.657 77.437 L 43.013 87.183 C 43.013 87.183 42.909 97.208 42.719 102.192 C 42.342 112.057 41.937 121.551 43.435 131.355 C 44.117 135.840 44.854 140.099 47.614 143.827 C 50.511 147.736 53.949 150.961 58.633 152.642 C 67.290 155.743 107.833 154.759 110.697 154.466 C 113.676 154.162 116.796 154.656 119.742 154.285 C 120.197 152.090 119.825 149.445 119.792 147.213 C 119.659 137.879 120.123 125.040 112.745 117.964 Z " transform="matrix(-1, 0, 0, 1, 162.8, 0.25)"/>
        <path id="Shape" fill="#828C00" stroke="none" stroke-width="1" d="M 93.300 75.448 L 93.171 87.183 L 119.327 75.806 L 93.300 75.448 " transform="matrix(-1, 0, 0, 1, 212.95, 0.25)"/>
        <path id="Shape" fill="#A0AA1E" stroke="none" stroke-width="1" d="M 109.842 85.263 C 110.434 85.263 110.140 82.330 110.517 82.330 C 110.893 82.330 110.728 85.181 111.402 85.135 C 112.077 85.090 111.655 82.417 112.284 82.417 C 112.913 82.417 112.321 88.056 112.346 89.679 C 112.383 91.874 112.288 94.078 112.383 96.269 C 112.470 98.230 112.764 100.174 113.773 101.892 C 114.361 102.892 118.031 105.446 121.946 105.763 C 125.926 106.089 130.160 104.173 131.219 104.363 C 131.155 105.705 131.171 107.051 131.264 108.391 L 130.937 108.956 C 129.613 109.038 126.104 110.537 121.201 110.142 C 117.791 109.870 113.790 108.037 113.012 107.522 C 110.343 105.759 109.197 102.728 109.027 99.857 C 108.866 97.142 108.800 94.407 108.725 91.685 C 108.659 89.263 108.117 82.998 108.725 82.829 C 109.333 82.660 109.255 85.263 109.842 85.263 Z " transform="matrix(-1, 0, 0, 1, 240.2, 0.25)"/>
        <path id="Shape" fill="#A0AA1E" stroke="none" stroke-width="1" d="M 66.771 135.103 C 66.771 135.103 77.389 172.508 77.389 178.838 C 76.818 178.937 73.827 178.530 73.392 179.143 C 73.756 180.400 81.126 179.592 82.620 179.349 C 83.079 177.986 84.978 136.232 84.978 136.232 L 66.771 135.103 Z " transform="matrix(-1, 0, 0, 1, 152.2, 0.25)"/>
        <g id="Group">
          <path id="Shape" fill="#AAA082" stroke="none" stroke-width="1" d="M 55.866 1.771 L 38.238 5.437 L 47.052 7.459 L 55.866 1.771 " transform="matrix(-1, 0, 0, 1, 162.6, 0.25)"/>
          <path id="Shape" fill="#AAA082" stroke="none" stroke-width="1" d="M 63.997 60.351 L 54.563 53.708 C 53.329 55.941 51.982 58.110 50.528 60.207 L 63.997 60.351 Z " transform="matrix(-1, 0, 0, 1, 183, 0.25)"/>
          <path id="Shape" fill="#DCD2B4" stroke="none" stroke-width="1" d="M 66.409 30.275 L 49.117 23.441 C 49.117 23.441 63.004 17.102 65.975 15.961 C 66.119 17.802 66.409 30.275 66.409 30.275 Z " transform="matrix(-1, 0, 0, 1, 184, 0.25)"/>
          <path id="Shape" fill="#AAA082" stroke="none" stroke-width="1" d="M 64.150 36.416 L 63.769 47.393 C 63.769 47.393 50.387 43.352 48.587 42.426 C 48.587 42.360 64.150 36.416 64.150 36.416 Z " transform="matrix(-1, 0, 0, 1, 181.2, 0.25)"/>
          <path id="Shape" fill="#DCD2B4" stroke="none" stroke-width="1" d="M 65.146 29.097 C 65.374 31.280 64.501 37.359 64.501 37.359 L 48.831 33.207 C 48.831 33.207 62.837 29.278 65.146 29.097 Z " transform="matrix(-1, 0, 0, 1, 182.5, 0.25)"/>
          <path id="Shape" fill="#DCD2B4" stroke="none" stroke-width="1" d="M 61.911 6.178 C 60.839 7.624 60.380 16.665 59.684 17.843 C 56.258 17.106 48.409 14.458 45.202 13.098 C 47.349 11.830 61.894 6.129 61.911 6.178 Z " transform="matrix(-1, 0, 0, 1, 175.6, 0.25)"/>
          <path id="Shape" fill="#AAA082" stroke="none" stroke-width="1" d="M 60.335 46.462 L 48.426 51.154 L 60.045 57.822 L 60.335 46.462 " transform="matrix(-1, 0, 0, 1, 177.25, 0.25)"/>
          <path id="Shape" fill="#000000" stroke="none" stroke-width="1" d="M 50.014 25.571 C 47.432 10.524 40.666 2.883 40.666 2.883 C 40.666 2.883 31.977 0.552 29.928 0.638 C 26.974 0.758 19.583 3.390 16.501 6.376 C 15.772 7.045 15.175 7.843 14.738 8.728 C 13.777 10.658 13.151 12.736 12.884 14.874 C 12.586 17.627 12.447 20.396 12.470 23.165 C 12.470 26.049 12.979 38.175 13.046 41.367 C 13.070 42.520 13.526 51.883 13.596 54.264 C 13.596 54.820 14.051 61.814 14.051 61.814 L 50.436 59.816 C 50.436 59.816 52.298 38.879 50.014 25.571 Z " transform="matrix(-1, 0, 0, 1, 132.1, 0.25)"/>
          <path id="Shape" fill="#FAF0E6" stroke="none" stroke-width="1" d="M 24.223 1.965 C 24.223 1.965 35.917 0.873 40.709 0.511 C 41.914 0.372 43.135 0.513 44.276 0.923 C 46.312 0.853 48.178 3.266 50.247 4.045 C 49.063 4.889 24.223 1.965 24.223 1.965 Z " transform="matrix(-1, 0, 0, 1, 142.95, 0.25)"/>
          <path id="Shape" fill="#FFFFFF" stroke="none" stroke-width="1" d="M 40.067 29.867 C 38.271 30.139 15.525 25.418 14.685 24.710 C 17.412 21.794 35.875 12.571 38.081 12.143 C 39.128 14.931 41.043 28.454 40.067 29.867 Z " transform="matrix(-1, 0, 0, 1, 123.5, 0.25)"/>
          <path id="Shape" fill="#FFFFFF" stroke="none" stroke-width="1" d="M 38.734 25.913 C 36.574 27.338 15.098 36.428 13.402 38.389 C 15.736 39.468 39.152 46.705 39.152 46.705 C 39.152 46.705 40.712 24.595 38.734 25.913 Z " transform="matrix(-1, 0, 0, 1, 121.6, 0.25)"/>
          <path id="Shape" fill="#DCD2B4" stroke="none" stroke-width="1" d="M 29.598 45.165 L 29.399 55.421 C 29.399 55.421 14.424 50.532 14.416 50.478 C 16.187 49.370 29.598 45.165 29.598 45.165 Z " transform="matrix(-1, 0, 0, 1, 112.5, 0.25)"/>
          <path id="Shape" fill="#FAF0E6" stroke="none" stroke-width="1" d="M 70.398 59.647 C 66.865 59.841 63.343 59.697 59.818 59.898 C 60.372 56.018 62.123 51.389 63.836 47.859 C 65.139 49.716 69.740 57.406 70.398 59.647 Z " transform="matrix(-1, 0, 0, 1, 198.7, 0.25)"/>
          <path id="Shape" fill="#FAF0E6" stroke="none" stroke-width="1" d="M 57.050 49.939 L 61.382 60.718 L 47.768 60.615 L 57.050 49.939 " transform="matrix(-1, 0, 0, 1, 177.65, 0.25)"/>
          <path id="Shape" fill="#DCD2B4" stroke="none" stroke-width="1" d="M 37.167 62.506 C 38.363 59.470 41.421 52.847 43.002 49.988 L 43.175 49.988 C 44.003 51.636 50.591 61.043 50.210 61.682 C 48.484 61.896 38.802 63.272 37.167 62.506 Z " transform="matrix(-1, 0, 0, 1, 155.85, 0.25)"/>
          <path id="Shape" fill="#FAF0E6" stroke="none" stroke-width="1" d="M 39.699 60.961 C 39.484 61.039 32.251 60.426 30.740 60.232 C 30.997 59.165 34.787 51.434 35.321 50.940 C 36.020 52.645 40.042 59.091 39.699 60.961 Z " transform="matrix(-1, 0, 0, 1, 138.95, 0.25)"/>
          <path id="Shape" fill="#FAF0E6" stroke="none" stroke-width="1" d="M 31.866 59.915 C 30.575 57.139 28.850 54.148 28.850 54.148 C 28.850 54.148 27.195 57.262 25.891 59.915 L 31.866 59.915 Z " transform="matrix(-1, 0, 0, 1, 126.25, 0.25)"/>
          <path id="Shape" fill="#FAF0E6" stroke="none" stroke-width="1" d="M 27.918 61.373 C 26.627 58.601 24.897 55.606 24.897 55.606 C 24.897 55.606 23.242 58.720 21.943 61.373 L 27.918 61.373 Z " transform="matrix(-1, 0, 0, 1, 118.35, 0.25)"/>
          <path id="Shape" fill="#DCD2B4" stroke="none" stroke-width="1" d="M 70.054 60.339 C 69.583 58.692 71.598 52.352 72.976 50.346 C 73.584 51.652 75.517 60.586 75.517 60.586 C 75.517 60.586 71.163 60.549 70.054 60.339 Z " transform="matrix(-1, 0, 0, 1, 214, 0.25)"/>
          <path id="Shape" fill="#FFFFFF" stroke="none" stroke-width="1" d="M 33.753 3.505 L 42.066 14.462 C 42.066 14.462 20.578 14.841 17.623 14.684 C 18.393 13.395 33.753 3.505 33.753 3.505 Z " transform="matrix(-1, 0, 0, 1, 128.15, 0.25)"/>
          <path id="Shape" fill="#A0AA1E" stroke="none" stroke-width="1" d="M 75.698 51.141 C 75.425 39.851 75.624 26.572 70.286 16.311 C 67.712 11.368 64.691 7.060 59.527 4.519 C 56.881 3.147 54.087 2.080 51.198 1.339 C 48.856 0.799 45.305 -0.012 42.942 0.515 C 47.573 2.047 50.722 4.502 53.242 8.683 C 56.039 13.317 57.500 18.766 58.696 23.993 C 59.771 29 60.257 34.115 60.144 39.233 C 60.111 41.804 60.098 44.382 59.962 46.940 C 59.933 47.443 59.784 58.226 59.784 58.226 C 59.784 58.226 1.327 59.379 1.158 59.169 C 0.131 61.435 3.847 66.942 5.155 68.544 C 7.298 71.164 15.690 76.259 16.956 76.708 C 18.667 77.364 20.413 77.926 22.187 78.389 C 25.451 79.142 28.840 79.151 32.176 79.431 C 56.043 81.222 68.353 78.063 74.933 76.523 C 75.305 68.070 75.901 59.635 75.698 51.141 Z " transform="matrix(-1, 0, 0, 1, 145.2, 0.25)"/>
          <path id="Shape" fill="#000000" stroke="none" stroke-width="1" d="M 7.625 58.152 C 8.039 58.465 11.482 60.277 11.482 60.277 L 10.989 60.730 L 6.823 58.543 L 6.823 58.020 C 7.166 57.905 8.428 56.463 10.071 55.635 C 10.270 55.476 10.554 55.476 10.754 55.635 C 10.667 56.018 7.994 57.839 7.625 58.152 Z " transform="matrix(-1, 0, 0, 1, 86.8, 0.25)"/>
        </g>
      </g>
    </g>
  </g>
</svg>