<?xml version="1.0" encoding="utf-8"?>
<!-- Generator: Adobe Illustrator 18.0.0, SVG Export Plug-In . SVG Version: 6.00 Build 0)  -->
<!DOCTYPE svg PUBLIC "-//W3C//DTD SVG 1.1//EN" "http://www.w3.org/Graphics/SVG/1.1/DTD/svg11.dtd">
<svg version="1.1" id="Layer_2" xmlns="http://www.w3.org/2000/svg" xmlns:xlink="http://www.w3.org/1999/xlink" x="0px" y="0px"
	 viewBox="0 0 47.5 52.4" enable-background="new 0 0 47.5 52.4" xml:space="preserve">
<g>
	<path fill="#53AD4E" d="M47.4,47c-0.1-0.6-0.3-0.9-1-0.9c-0.7,0-1.6-0.1-2-0.5c-0.8-0.9-1.5-1.9-1.9-3c-0.5-1.2-0.8-2.4-1.2-3.7
		c-0.3-1-0.9-1.9-1.1-2.9c-0.8-3-1.9-5.9-3-8.8c-0.5-1.3-0.9-2.6-1.3-3.9c-0.6-1.6-1.2-3.1-1.7-4.7c-0.6-1.7-1-3.4-1.5-5
		c-0.2-0.7-0.6-1.4-0.8-2.1c-0.8-3.1-1.4-6.2-2.7-9.1c-0.2-0.4-0.5-0.9-0.9-1.2c-0.6-0.4-1.4-0.7-2.1-1c-0.8-0.4-1.4-0.7-2,0.4
		C23.3,2,22,3,21.1,4.1c-0.6,0.7-0.9,1.6-1.4,2.5c-0.2,0.3-0.2,0.6-0.3,1c-0.8,2.4-1.6,4.7-2.4,7.1c-0.2,0.5-0.3,0.9-0.5,1.4
		c-0.6,1.4-1.2,2.8-1.7,4.2c-0.3,0.7-0.4,1.4-0.7,2c-1.3,3.1-2.6,6.2-3.3,9.5c-1,4.4-2.9,8.5-4.8,12.5c-0.5,1-1.1,1.8-2.3,1.9
		c-0.5,0-1,0.1-1.5,0.2c-0.3,0.1-0.6,0.2-0.7,0.4c-0.5,1-1,2.1-1.5,3.1c-0.4,1,0,1.6,1,1.6c1.6,0,3.2,0,4.7,0.1
		c2.7,0.1,5.3,0.2,8,0.3c0.3,0,0.7-0.1,0.9-0.3c0.6-0.7,1.3-1.4,1.8-2.2c0.4-0.6,0.6-1.2,0.7-1.9c0.1-0.5-0.2-0.9-0.7-0.9
		c-0.9-0.1-1.8-0.3-2.7-0.4c-0.5-0.1-1-0.2-1.5-0.4c-0.6-0.2-0.7-0.7-0.5-1.2c0.6-1.5,1.1-3.1,1.8-4.6c0.4-1.1,1-2.1,1.3-3.1
		c0.2-0.6,0.5-0.8,1.1-0.8c4.5,0.3,9,0.4,13.6,0c0.2,0,0.7,0.2,0.8,0.4c0.3,0.6,0.4,1.2,0.6,1.8c0.5,1.7,1,3.4,1.5,5.1
		c0.3,1,0.6,2,0.9,3c-0.5,0.2-1.2,0.3-1.4,0.7c-0.8,1.3-1.5,2.6-2.1,4c-0.3,0.7,0,1,0.8,1c1.8,0,3.6,0,5.4,0.1
		c2.6,0.1,5.1,0.2,7.7,0.3c0.5,0,0.9-0.1,1.2-0.6c0.5-0.9,1.1-1.9,1.8-2.7C47.4,48.5,47.5,47.9,47.4,47z M24.2,11.5
		c0.1,0,0.2,0,0.2,0c0.4,0.9,0.9,1.8,1.2,2.7c0.8,2.4,1.4,4.9,2.2,7.2c0.6,1.8,1.3,3.4,1.9,5.2c0.1,0.2,0.2,0.4,0.3,0.8
		c-0.8,0-1.4,0-2.1,0c-0.1,0-0.3-0.2-0.4-0.4c-0.7-2-1.3-4-1.9-6.1c-0.3-0.9-0.4-1.9-0.6-2.9c-0.3-1.3-0.8-2.7-1-4
		C23.8,13.2,24.1,12.4,24.2,11.5z M25.7,27.4c-2.2,0-4.3,0-6.5,0c-0.2,0-0.3,0-0.7-0.1c1.6-4.3,3.1-8.5,4.6-12.7
		c0.1,0,0.2,0,0.3,0.1c0.3,1.5,0.6,3.1,1,4.6c0.6,2.4,1.3,4.7,2,7C26.9,27.4,26.9,27.4,25.7,27.4z M1.1,51c-0.1,0-0.2,0-0.2-0.1
		c-0.1-1,0.7-1.7,0.8-2.6c0.1,0,0.2,0,0.2,0.1C1.6,49.2,1.3,50.1,1.1,51z M13.2,48.9c0.9,0,1.8,0,2.6,0c0,0.1,0,0.2,0.1,0.2
		c-0.6,0.7-1.2,1.4-1.9,2.1c-0.1,0.1-0.4,0.1-0.5,0.1C11,51.2,8.4,51.1,5.9,51C4.5,51,3,51,1.4,51c0.4-0.8,0.8-1.5,1.2-2.2
		c0.1-0.1,0.4-0.2,0.6-0.2C6.5,48.8,9.9,48.9,13.2,48.9z M14.1,28c-0.3,0.7-0.4,1.4-0.7,2.1c-1,2.5-2,5-3,7.6
		c-0.8,1.9-1.5,3.8-2.3,5.7c-0.4,0.8-1,1.6-1.6,2.4c-0.1,0-0.1-0.1-0.2-0.1c0.5-1.1,1-2.1,1.5-3.2c1.8-4,3.2-8.2,4.4-12.5
		c0.7-2.5,1.8-4.9,2.7-7.4c0.2-0.4,0.3-0.8,0.5-1.3c0.5-1.2,1.1-2.5,1.6-3.8c0.4-1,0.6-1.9,0.9-2.9c0.9-2.7,1.7-5.5,2.7-8.2
		c0.3-0.9,1-1.7,1.6-2.5c0.3-0.5,0.8-0.8,1.2-1.2c0.1,0,0.1,0.1,0.2,0.1c-0.6,1.7-1.3,3.5-1.9,5.2c-0.7,1.9-1.5,3.8-2.2,5.7
		c-0.5,1.2-1.1,2.5-1.5,3.7c-0.7,1.9-1.2,3.8-1.9,5.6C15.4,24.7,14.7,26.4,14.1,28z M30.3,35c-0.1,0.2-0.4,0.3-0.6,0.3
		c-4,0-8,0-12,0c-0.7,0-1.5-0.1-2.2-0.2c0.3-1.2,0.6-2.3,1-3.4c0.1-0.2,0.4-0.4,0.6-0.4c4.3,0.1,8.6,0.2,12.8,0.3
		c0.5,0,1,0.1,1.5,0.2C31.1,33,30.7,34,30.3,35z M32.1,39c-0.3-1-0.8-1.9-1.2-2.8c0-0.1-0.2-0.3-0.1-0.4c0.4-1.2,0.8-2.4,1.2-3.6
		c0.1,0,0.2,0,0.2,0c0.5,1.4,1,2.8,1.5,4.2c0.4,1,0.7,2,1,3c0.5,1.4,1,2.8,1.3,4.2c0.3,1.2-0.2,2-1.3,2.4c-0.4,0.2-0.7,0.1-0.8-0.3
		C33.4,43.4,32.8,41.2,32.1,39z M30.5,51.3c0.5-1.1,1-2.3,1.5-3.6c0.2,0.4,0.3,0.7,0.3,0.8c-0.5,1-1,2-1.5,2.9
		C30.7,51.4,30.6,51.4,30.5,51.3z M44.2,51.5c-0.1,0.2-0.4,0.3-0.6,0.3c-2.6-0.1-5.2-0.2-7.8-0.3c-1.1,0-2.2,0-3.2,0
		c-0.4,0-0.7,0-1.2,0c0.7-1,1.2-2,1.9-2.8c0.1-0.2,0.5-0.2,0.7-0.2c2.8,0.1,5.6,0.2,8.3,0.2c0.8,0,1.6-0.1,2.3-0.1
		c0.5,0,0.9,0,1.5-0.1C45.5,49.6,44.9,50.6,44.2,51.5z"/>
	<path fill="#FFFFFF" d="M1.9,48.4c-0.3,0.9-0.5,1.7-0.8,2.6c-0.1,0-0.2,0-0.2-0.1c-0.1-1,0.7-1.7,0.8-2.6
		C1.7,48.3,1.8,48.4,1.9,48.4z"/>
	<path fill="#FFFFFF" d="M32.3,48.6c-0.5,1-1,2-1.5,2.9c-0.1,0-0.2-0.1-0.3-0.1c0.5-1.1,1-2.3,1.5-3.6
		C32.2,48.1,32.4,48.4,32.3,48.6z"/>
	<path fill="#FFFFFF" d="M46.2,48.5c-0.7,1.1-1.3,2.1-2,3c-0.1,0.2-0.4,0.3-0.6,0.3c-2.6-0.1-5.2-0.2-7.8-0.3c-1.1,0-2.2,0-3.2,0
		c-0.4,0-0.7,0-1.2,0c0.7-1,1.2-2,1.9-2.8c0.1-0.2,0.5-0.2,0.7-0.2c2.8,0.1,5.6,0.2,8.3,0.2c0.8,0,1.6-0.1,2.3-0.1
		C45.1,48.5,45.6,48.5,46.2,48.5z"/>
	<path fill="#FFFFFF" d="M34.8,46c-0.4,0.2-0.7,0.1-0.8-0.3c-0.6-2.2-1.2-4.4-1.9-6.7c-0.3-1-0.8-1.9-1.2-2.8c0-0.1-0.2-0.3-0.1-0.4
		c0.4-1.2,0.8-2.4,1.2-3.6c0.1,0,0.2,0,0.2,0c0.5,1.4,1,2.8,1.5,4.2c0.4,1,0.7,2,1,3c0.5,1.4,1,2.8,1.3,4.2
		C36.4,44.8,35.9,45.5,34.8,46z"/>
	<path fill="#FFFFFF" d="M15.9,49.2c-0.6,0.7-1.2,1.4-1.9,2.1c-0.1,0.1-0.4,0.1-0.5,0.1C11,51.2,8.4,51.1,5.9,51C4.5,51,3,51,1.4,51
		c0.4-0.8,0.8-1.5,1.2-2.2c0.1-0.1,0.4-0.2,0.6-0.2c3.3,0.1,6.7,0.2,10,0.3c0.9,0,1.8,0,2.6,0C15.9,49,15.9,49.1,15.9,49.2z"/>
	<path fill="#FFFFFF" d="M31.5,31.9C31.1,33,30.7,34,30.3,35c-0.1,0.2-0.4,0.3-0.6,0.3c-4,0-8,0-12,0c-0.7,0-1.5-0.1-2.2-0.2
		c0.3-1.2,0.6-2.3,1-3.4c0.1-0.2,0.4-0.4,0.6-0.4c4.3,0.1,8.6,0.2,12.8,0.3C30.5,31.7,31,31.8,31.5,31.9z"/>
	<path fill="#FFFFFF" d="M30,27.4c-0.8,0-1.4,0-2.1,0c-0.1,0-0.3-0.2-0.4-0.4c-0.7-2-1.3-4-1.9-6.1c-0.3-0.9-0.4-1.9-0.6-2.9
		c-0.3-1.3-0.8-2.7-1-4c-0.1-0.8,0.2-1.7,0.3-2.5c0.1,0,0.2,0,0.2,0c0.4,0.9,0.9,1.8,1.2,2.7c0.8,2.4,1.4,4.9,2.2,7.2
		c0.6,1.8,1.3,3.4,1.9,5.2C29.8,26.9,29.9,27.1,30,27.4z"/>
	<path fill="#FFFFFF" d="M23.6,2.9c-0.6,1.7-1.3,3.5-1.9,5.2c-0.7,1.9-1.5,3.8-2.2,5.7c-0.5,1.2-1.1,2.5-1.5,3.7
		c-0.7,1.9-1.2,3.8-1.9,5.6c-0.6,1.6-1.3,3.3-1.9,4.9c-0.3,0.7-0.4,1.4-0.7,2.1c-1,2.5-2,5-3,7.6c-0.8,1.9-1.5,3.8-2.3,5.7
		c-0.4,0.8-1,1.6-1.6,2.4c-0.1,0-0.1-0.1-0.2-0.1c0.5-1.1,1-2.1,1.5-3.2c1.8-4,3.2-8.2,4.4-12.5c0.7-2.5,1.8-4.9,2.7-7.4
		c0.2-0.4,0.3-0.8,0.5-1.3c0.5-1.2,1.1-2.5,1.6-3.8c0.4-1,0.6-1.9,0.9-2.9c0.9-2.7,1.7-5.5,2.7-8.2c0.3-0.9,1-1.7,1.6-2.5
		c0.3-0.5,0.8-0.8,1.2-1.2C23.4,2.8,23.5,2.9,23.6,2.9z"/>
</g>
</svg>
