<?xml version="1.0" encoding="utf-8"?>
<!-- Generator: Adobe Illustrator 18.0.0, SVG Export Plug-In . SVG Version: 6.00 Build 0)  -->
<!DOCTYPE svg PUBLIC "-//W3C//DTD SVG 1.1//EN" "http://www.w3.org/Graphics/SVG/1.1/DTD/svg11.dtd">
<svg version="1.1" id="Layer_2" xmlns="http://www.w3.org/2000/svg" xmlns:xlink="http://www.w3.org/1999/xlink" x="0px" y="0px"
	 viewBox="0 0 60.3 51.6" enable-background="new 0 0 60.3 51.6" xml:space="preserve">
<g>
	<path fill="#F7941E" d="M60.2,0.8c-0.1-0.2-0.7-0.4-1.1-0.5c-2.4-0.1-4.8-0.1-7.3-0.1c-0.8,0-1.7,0.1-2.5,0.1
		c-0.2,0-0.4,0.1-0.5,0.2c-0.5,0.4-1,0.8-1.5,1.2C45.7,3,43.9,4,42.9,5.9c-0.6,1.2-1.4,2.3-1.9,3.5c-0.5,1.2-0.8,2.5-1.1,3.7
		c-0.4,1.3-0.8,2.5-1.2,3.7c-1,2.7-1.8,5.4-2.9,8c-1.2,2.8-2.6,5.6-3.9,8.4c-0.2,0.4-0.5,0.8-0.8,1.4c-0.3-0.8-0.5-1.4-0.7-2
		c-0.9-2-1.8-4-2.6-6c-0.9-2.2-1.8-4.5-2.7-6.7c-0.9-2.4-1.6-4.8-2.6-7.2c-1.5-3.8-3.1-7.5-4.6-11.3c-0.5-1.2-0.7-1.4-2-1.4
		c-3.2,0-6.4,0-9.6,0c-0.3,0-0.8,0.2-1,0.5C4,1.9,2.8,3.5,1.5,4.9C0.3,6.1,0,7.4,0,9c0,0.6,0.2,0.9,0.8,0.9c0.5,0,1,0,1.5,0
		c1.1,0,1.5,0.4,1.6,1.5c0.1,1.3,0.3,2.7,0.3,4.1c0,3.7,0,7.3-0.1,11C4,32.8,3.8,39.2,3.7,45.6c0,0.7-0.2,1.2-0.8,1.5
		c-1.3,0.8-1.9,1.8-1.6,3.4c0.2,0.7,0.3,1,1.1,1c3.8,0,7.6,0,11.5,0c0.6,0,0.9-0.3,1.2-0.7c0.5-0.8,1.1-1.4,1.7-2.2
		c0.2-0.3,0.4-0.6,0.5-0.9c0.1-0.7,0.1-1.4,0.2-2c0.1-0.6-0.1-0.8-0.7-0.8c-0.5,0-1,0-1.4-0.2c-0.5-0.2-1.2-0.6-1.4-1.1
		c-0.3-0.9-0.3-1.9-0.3-2.9c0.1-4.5,0.2-9,0.3-13.4c0-1.8,0-3.7,0-5.5c0.1,0.2,0.2,0.3,0.3,0.5c1.7,3.4,3.4,6.8,5.1,10.3
		c0.1,0.3,0.3,0.6,0.4,0.9c1.4,3.4,2.8,6.8,4.4,10.2c1.2,2.5,2.6,5,3.4,7.7c0,0.1,0.3,0.3,0.5,0.3c0.3,0.1,0.6,0,0.9,0
		c1.1,0.2,1.8,0,2.4-1.2c0.9-1.9,2.2-3.6,3.1-5.4c1.2-2.4,2.4-4.8,3.4-7.2c1.1-2.6,2.1-5.2,3.2-7.8c1.2-2.9,2.5-5.8,3.7-8.7
		c0.3-0.7,0.5-1.5,0.8-2.2c0.1,0,0.2,0,0.3,0c0,2.4,0,4.7,0,7.1c-0.1,4.2-0.4,8.4,0.1,12.5c0.2,1.9,0.3,3.7,0.4,5.6
		c0,0.2,0,0.6-0.2,0.7c-0.8,0.6-1.6,1.3-2.4,1.8c-1.1,0.8-1.7,1.8-1.5,3.2c0.1,0.8,0.2,1,1.1,1.1c1.9,0.1,3.7,0.2,5.6,0.3
		c2.6,0.1,5.3,0,7.9,0c0.1-0.2,0.1-0.5,0.2-0.6c0.9-1.1,2-2.2,2.8-3.4c0.3-0.5,0.3-1.3,0.3-1.9c0-0.2-0.6-0.3-1-0.4
		c-0.3-0.1-0.6-0.1-0.9-0.1c-1.4-0.1-1.8-0.5-1.7-1.9c0.1-2.5,0.2-4.9,0.2-7.3c0.1-7.4,0.1-14.7,0.1-22.1c0-1-0.1-2-0.1-3.1
		c0-2.3,0-4.5,0-6.8c0-0.6,0.4-0.9,1-0.9c0.7,0,1.3,0,2,0c0.2,0,0.5-0.1,0.5-0.2C60.3,2,60.4,1.4,60.2,0.8z M59.6,2.3
		c-0.8,0-1.5,0-2.2,0c-0.9,0-1.3,0.4-1.4,1.3c0,2.7,0,5.5,0,8.2c0,3,0,6.1,0,9.2c0,5-0.1,10-0.1,14.9c0,2.4-0.1,4.8-0.2,7.3
		c0,1.6,0.5,2.2,2.1,2.3c0.5,0,1,0.1,1.6,0.2c-0.1,0.4-0.1,0.8-0.2,1.2c-4.4,0.8-8.8,0.5-13.2,0.6c-0.5-1.2-0.2-1.8,1-2
		c0.5-0.1,1.1-0.2,1.6-0.4c1.1-0.3,1.7-1.1,1.7-2.4c-0.1-5-0.1-10-0.3-14.9c-0.2-5.5-0.2-10.9,0-16.3c0.1-1-0.1-2-0.3-3
		c0-0.2-0.1-0.5-0.3-0.9c-0.7,1.3-1.5,2.3-1.9,3.5c-1.3,3.6-2.5,7.2-3.8,10.8c-1,2.6-2.2,5.1-3.3,7.6c-0.7,1.6-1.4,3.1-2,4.7
		c-1.5,4-3.2,7.8-5.3,11.6c-0.2,0.4-0.4,0.5-0.8,0.5c-1.5,0.2-2.2-0.3-2.9-1.8c-3.4-6.8-6-13.9-8.4-21c-0.6-1.9-1.6-3.7-2.4-5.5
		c-1.2-2.7-2.4-5.3-3.6-8c-0.5-1-1-2-1.5-3c0-0.1-0.3-0.2-0.4-0.2c-0.1,0.1-0.3,0.3-0.3,0.5c0,2.5,0,4.9,0,7.3
		c0,2.7,0.1,5.4,0.1,8.1c0.1,2.3,0.1,4.7,0.1,7c0,3-0.2,6-0.2,9.1c0,1.5,0,3,0.1,4.5c0,1.1,1,2,2.1,2c0.5,0,0.9,0,1.5,0
		c-0.1,0.8-0.2,1.4-0.2,2.2c-0.2,0-0.5,0.1-0.9,0.1c-2.2,0.1-4.5,0.1-6.7,0.2c-0.6,0-1.3,0.1-1.9,0.1c-0.8,0.1-1.1-0.2-0.9-1
		c0.1-0.4,0.2-0.8,0.2-1.1C7.2,45.4,8.1,45.2,9,45c0.6-0.2,0.9-0.6,0.9-1.3c0-2.7,0-5.3,0.1-8c0.1-2.1,0.3-4.2,0.4-6.3
		c0-1.3-0.2-2.6-0.2-3.9c0-2.4,0-4.9-0.1-7.3c0-1.6,0-3.2,0-4.8c0-2.2,0-4.4-0.1-6.6c0-1-0.1-1.9-0.2-2.9C9.7,3,9.1,2.5,8,2.3
		c-0.5-0.1-1-0.1-1.6-0.2V0.5h8.6c0.1,0,0.2,0,0.3,0c0.9,0.1,1.5,0.2,1.9,1.3c1.2,3.4,2.8,6.7,4.1,10.1c1.1,2.7,2,5.5,3,8.2
		c0.9,2.3,1.8,4.6,2.7,6.8c0.8,2,1.8,4,2.7,6c0.5,1.2,1,2.5,1.5,3.7c0.5,1.2,1,2.4,1.5,3.6c0,0.1,0.2,0.3,0.3,0.3
		c0.1,0,0.4-0.1,0.4-0.3c1.1-2.2,2.2-4.4,3.1-6.6c0.8-1.8,1.3-3.8,2-5.6c0.5-1.2,1.2-2.3,1.7-3.6c1.2-3.1,2.3-6.2,3.5-9.3
		c1.6-4.2,3.5-8.3,5-12.5c0.5-1.5,1.3-1.8,2.7-1.8c2.7,0.1,5.4,0,8.2,0V2.3z"/>
	<path fill="#FFFFFF" d="M57.5,2.3c0.7,0,1.4,0,2.2,0V0.9c-2.8,0-5.5,0.1-8.2,0c-1.4,0-2.1,0.3-2.7,1.8c-1.5,4.2-3.4,8.3-5,12.5
		c-1.2,3.1-2.3,6.2-3.5,9.3c-0.5,1.2-1.2,2.3-1.7,3.6c-0.7,1.9-1.3,3.8-2,5.6c-1,2.2-2.1,4.4-3.1,6.6c-0.1,0.1-0.3,0.2-0.4,0.3
		c-0.1,0-0.3-0.2-0.3-0.3c-0.5-1.2-1-2.4-1.5-3.6c-0.5-1.2-1-2.5-1.5-3.7c-0.9-2-1.8-4-2.7-6c-1-2.3-1.9-4.5-2.7-6.8
		c-1-2.7-2-5.5-3-8.2c-1.3-3.4-2.8-6.7-4.1-10.1c-0.4-1.1-1-1.2-1.9-1.3c-0.1,0-0.2,0-0.3,0H6.3v1.5C6.9,2.2,7.4,2.2,8,2.3
		C9.1,2.5,9.7,3,9.9,4C10,5,10.1,5.9,10.1,6.9c0.1,2.2,0.1,4.4,0.1,6.6c0,1.6,0,3.2,0,4.8c0,2.4,0,4.9,0.1,7.3
		c0,1.3,0.2,2.6,0.2,3.9c-0.1,2.1-0.3,4.2-0.4,6.3c-0.1,2.7-0.1,5.3-0.1,8c0,0.7-0.2,1.1-0.9,1.3c-0.9,0.2-1.8,0.4-2.7,0.7
		C6.2,46,6.1,46.4,6,46.8c-0.1,0.8,0.2,1.1,0.9,1c0.6,0,1.3-0.1,1.9-0.1c2.2-0.1,4.5-0.1,6.7-0.2c0.3,0,0.6-0.1,0.9-0.1
		c0.1-0.8,0.2-1.4,0.2-2.2c-0.5,0-1,0-1.5,0c-1.1,0-2-0.9-2.1-2c0-1.5-0.1-3-0.1-4.5c0-3,0.2-6,0.2-9.1c0-2.3-0.1-4.7-0.1-7
		c0-2.7-0.1-5.4-0.1-8.1c0-2.5,0-4.9,0-7.3c0-0.2,0.2-0.3,0.3-0.5c0,0,0.3,0.1,0.4,0.2c0.5,1,1,2,1.5,3c1.2,2.7,2.4,5.3,3.6,8
		c0.8,1.8,1.8,3.6,2.4,5.5c2.4,7.2,5,14.2,8.4,21c0.7,1.4,1.4,2,2.9,1.8c0.4-0.1,0.6-0.1,0.8-0.5c2-3.7,3.7-7.6,5.3-11.6
		c0.6-1.6,1.3-3.2,2-4.7c1.1-2.5,2.3-5,3.3-7.6c1.3-3.6,2.5-7.2,3.8-10.8c0.4-1.1,1.2-2.2,1.9-3.5c0.2,0.5,0.3,0.7,0.3,0.9
		c0.1,1,0.3,2,0.3,3c-0.2,5.5-0.3,10.9,0,16.3c0.2,5,0.2,9.9,0.3,14.9c0,1.3-0.6,2.1-1.7,2.4c-0.5,0.1-1.1,0.2-1.6,0.4
		c-1.2,0.2-1.5,0.8-1,2c4.4-0.1,8.8,0.1,13.2-0.6c0.1-0.4,0.1-0.7,0.2-1.2c-0.6-0.1-1.1-0.2-1.6-0.2c-1.6-0.1-2.2-0.7-2.1-2.3
		c0.1-2.4,0.2-4.8,0.2-7.3c0.1-5,0.1-10,0.1-14.9c0-3.1,0-6.1,0-9.2c0-2.8-0.1-5.5,0-8.2C56.1,2.7,56.6,2.3,57.5,2.3z M22.6,22.1
		c-0.1,0.1-0.6-0.3-0.7-0.5c-0.9-2.1-1.8-4.3-2.7-6.4c-0.8-2-1.7-4-2.6-5.9c-0.4-0.8-0.7-1.7-1-2.5c0.1,0,0.2-0.1,0.2-0.1
		c0.2,0.2,0.4,0.5,0.5,0.7c1.4,3,2.7,6.1,4,9.2c0.7,1.6,1.4,3.2,2.1,4.8C22.8,21.6,23.1,21.9,22.6,22.1z M23.4,24.7
		c-0.2,0-0.6-0.4-0.6-0.5c0.1-0.3,0.4-0.5,0.7-1c0.3,0.5,0.6,0.8,0.6,1C24.1,24.4,23.7,24.7,23.4,24.7z M30.8,41.9
		c-0.1,0-0.2,0.1-0.3,0.1c-0.4-0.9-0.8-1.7-1.2-2.6c-0.9-2.1-1.8-4.2-2.7-6.4c-0.8-2.1-1.5-4.2-2.1-6.3c-0.1-0.2,0.1-0.4,0.2-0.6
		c0.2,0.1,0.4,0.2,0.5,0.4c0.5,1.4,0.9,2.7,1.4,4.1c0.4,1.1,0.8,2.1,1.2,3.2c1,2.6,2,5.3,3,7.9C30.8,41.7,30.8,41.8,30.8,41.9z
		 M52.2,7.8c0-0.2,0-0.4,0.1-0.6c0.1,0,0.1,0,0.2-0.1c0.1,0.2,0.2,0.4,0.2,0.6c0.1,3.3,0.2,6.6,0.2,9.9c0,1.8,0,3.6,0,5.4
		c0,0.2-0.2,0.5-0.4,0.7c-0.1-0.2-0.3-0.5-0.3-0.7c0-3.2,0-6.4,0-9.6C52.3,11.5,52.2,9.7,52.2,7.8z M53.2,34.7c0,2.2,0,4.3-0.1,6.5
		c0,0.9,0,1.8-0.1,2.8c0,0.1-0.1,0.3-0.2,0.4c0,0-0.1,0-0.2,0c0-0.4-0.1-0.9-0.1-1.3c-0.5-3.6-0.3-7.1,0.1-10.7
		c0.1-0.9-0.1-1.7-0.1-2.6c0-0.2,0.2-0.4,0.3-0.6c0.1,0.2,0.4,0.4,0.4,0.5C53.3,31.3,53.3,33,53.2,34.7z M52.9,27.4
		c-0.3,0-0.6-0.4-1.1-0.7c0.5-0.4,0.7-0.7,1-0.9c0.3,0.3,0.6,0.7,0.8,1C53.6,26.9,53.1,27.4,52.9,27.4z"/>
	<path fill="#F7941E" d="M30.8,41.9c-0.1,0-0.2,0.1-0.3,0.1c-0.4-0.9-0.8-1.7-1.2-2.6c-0.9-2.1-1.8-4.2-2.7-6.4
		c-0.8-2.1-1.5-4.2-2.1-6.3c-0.1-0.2,0.1-0.4,0.2-0.6c0.2,0.1,0.4,0.2,0.5,0.4c0.5,1.4,0.9,2.7,1.4,4.1c0.4,1.1,0.8,2.1,1.2,3.2
		c1,2.6,2,5.3,3,7.9C30.8,41.7,30.8,41.8,30.8,41.9z"/>
	<path fill="#F7941E" d="M22.6,22.1c-0.1,0.1-0.6-0.3-0.7-0.5c-0.9-2.1-1.8-4.3-2.7-6.4c-0.8-2-1.7-4-2.6-5.9
		c-0.4-0.8-0.7-1.7-1-2.5c0.1,0,0.2-0.1,0.2-0.1c0.2,0.2,0.4,0.5,0.5,0.7c1.4,3,2.7,6.1,4,9.2c0.7,1.6,1.4,3.2,2.1,4.8
		C22.8,21.6,23.1,21.9,22.6,22.1z"/>
	<path fill="#F7941E" d="M52.9,23c0,0.2-0.2,0.5-0.4,0.7c-0.1-0.2-0.3-0.5-0.3-0.7c0-3.2,0-6.4,0-9.6c0-1.9,0-3.7,0-5.6
		c0-0.2,0-0.4,0.1-0.6c0.1,0,0.1,0,0.2-0.1c0.1,0.2,0.2,0.4,0.2,0.6c0.1,3.3,0.2,6.6,0.2,9.9C52.9,19.4,52.9,21.2,52.9,23z"/>
	<path fill="#F7941E" d="M53.3,29.6c0,1.7,0,3.4-0.1,5.1c0,2.2,0,4.3-0.1,6.5c0,0.9,0,1.8-0.1,2.8c0,0.1-0.1,0.3-0.2,0.4
		c0,0-0.1,0-0.2,0c0-0.4-0.1-0.9-0.1-1.3c-0.5-3.6-0.3-7.1,0.1-10.7c0.1-0.9-0.1-1.7-0.1-2.6c0-0.2,0.2-0.4,0.3-0.6
		C53,29.2,53.3,29.4,53.3,29.6z"/>
	<path fill="#F7941E" d="M53.5,26.8c0,0.1-0.4,0.6-0.6,0.6c-0.3,0-0.6-0.4-1.1-0.7c0.5-0.4,0.7-0.7,1-0.9
		C53,26.1,53.4,26.4,53.5,26.8z"/>
	<path fill="#F7941E" d="M24.1,24.2c0,0.2-0.4,0.5-0.7,0.5c-0.2,0-0.6-0.4-0.6-0.5c0.1-0.3,0.4-0.5,0.7-1
		C23.8,23.7,24.2,24,24.1,24.2z"/>
</g>
</svg>
