<svg version="1.1" width="120" height="147" xmlns="http://www.w3.org/2000/svg" xmlns:xlink="http://www.w3.org/1999/xlink">
  <!-- Exported by Scratch - http://scratch.mit.edu/ -->
  <g id="ID0.6641015410423279" transform="matrix(0.9024999737739563, 0, 0, 0.9024999737739563, 0.75, 0)">
    <path id="R_Arm_1_" fill="#F05A28" stroke="#000000" stroke-linecap="round" d="M 69.320 117.129 C 70.710 116.084 72.898 115.818 74.247 115.756 L 74.415 115.754 C 74.665 114.408 70.061 111.113 70.061 111.113 C 66.492 106.967 72.649 106.072 72.649 106.072 C 76.684 109.116 83.920 115.036 82.854 117.634 C 81.180 121.720 73.339 125.208 69.739 123.177 C 66.622 121.415 69.320 117.128 69.320 117.129 L 69.320 117.129 Z M 76.961 115.779 L 74.414 115.754 "/>
    <g id="Body_1_">
      <path id="Body_2_" fill="#F05A28" stroke="#000000" stroke-linecap="round" stroke-linejoin="round" d="M 69.840 108.429 C 69.408 111.300 68.257 118.778 68.442 120.255 L 68.173 119.652 C 68.725 121.212 69.283 123.430 69.106 125.738 C 68.762 130.217 66.303 132.617 63.690 133.898 L 63.661 134.044 L 61.419 142.986 C 61.462 142.985 61.843 143.008 64.524 143.266 C 67.922 143.592 66.340 145.639 66.340 145.639 L 60.006 145.527 L 59.682 145.523 L 46.883 145.294 C 46.726 144.773 46.851 143.162 47.662 139.087 C 47.975 137.486 48.265 136.109 48.518 134.983 L 48.520 134.975 C 44.196 131.614 44.715 126.413 46.033 122.733 C 46.873 120.379 51.668 102.610 51.668 102.610 C 51.668 102.610 53.752 95.786 62.377 98.161 C 62.377 98.161 72.305 99.813 69.841 108.425 C 69.841 108.429 69.840 108.429 69.840 108.429 L 69.840 108.429 Z M 57.210 135.071 C 57.210 135.071 59.752 135.481 63.689 133.901 M 68.442 120.258 C 68.216 119.225 66.878 117.404 66.878 117.404 M 49.294 131.821 C 49.294 131.821 49.005 132.722 48.520 134.978 "/>
      <path id="Leg_Separation" d="M 60.286 145.412 C 60.278 145.412 60.270 145.412 60.265 145.412 C 59.988 145.399 59.774 145.166 59.786 144.891 C 59.797 144.643 59.731 144.453 59.580 144.291 C 58.944 143.617 57.017 143.587 55.865 143.569 C 55.519 143.564 55.211 143.558 54.969 143.543 C 54.818 143.532 54.679 143.453 54.593 143.329 C 54.507 143.204 54.481 143.047 54.524 142.901 C 54.937 141.507 55.337 140.097 55.737 138.687 L 56.243 136.908 C 56.319 136.642 56.593 136.484 56.861 136.565 C 57.127 136.640 57.280 136.918 57.205 137.183 L 56.699 138.959 C 56.358 140.163 56.016 141.369 55.666 142.563 C 55.735 142.564 55.807 142.565 55.880 142.567 C 57.358 142.588 59.382 142.620 60.308 143.602 C 60.647 143.960 60.808 144.409 60.787 144.928 C 60.772 145.202 60.551 145.412 60.286 145.412 L 60.286 145.412 L 60.286 145.412 Z "/>
    </g>
    <path id="L_Arm" fill="#F05A28" stroke="#000000" stroke-linecap="round" d="M 54.412 105.993 C 54.910 109.524 51.543 110.665 51.543 110.665 C 51.543 110.665 45.359 112.493 45.061 113.829 L 45.332 114.251 C 47.238 115.173 50.830 117.380 49.453 120.388 C 46.291 127.297 36.576 118.262 36.678 112.576 C 36.744 108.709 47.841 103.574 52.386 103.404 C 53.207 103.373 54.220 103.876 54.412 105.993 L 54.412 105.993 Z M 45.332 114.251 L 43.959 113.342 "/>
    <g id="Head_1_">
      <path id="Head_2_" fill="#F05A28" stroke="#000000" stroke-linecap="round" d="M 19.380 39.756 C 19.380 39.756 20.310 35.944 28.224 27.842 C 36.134 19.744 44.697 16.955 50.376 14.627 C 56.055 12.299 59.868 0.667 59.868 0.667 C 59.868 0.667 65.097 7.171 70.471 13.085 C 75.955 19.116 88.725 24.402 102.409 38.175 C 104.042 39.824 105.430 41.550 106.597 43.321 L 106.833 43.528 C 109.890 46.179 120.729 56.755 119.339 72.153 C 118.277 83.884 112.943 87.591 110.357 88.587 L 110.336 88.673 C 111.668 86.034 112.461 83.234 112.836 80.391 C 114.072 70.989 109.006 64.880 105.758 56.703 C 101.547 46.099 90.028 40.133 75.113 40.430 C 46.727 40.991 40.475 56.950 40.475 56.950 L 40.454 57.157 C 45.720 66.937 47.823 88.630 37.040 95.122 C 25.425 102.105 8.227 99.668 1.529 72.686 C -4.602 47.992 13.756 40.212 19.156 40.276 L 19.380 39.756 L 19.380 39.756 Z M 106.596 43.321 C 106.596 43.321 114.044 55.154 111.620 69.777 M 19.155 40.275 C 24.377 40.416 27.877 44.154 27.877 44.154 M 40.453 57.155 C 39.574 55.784 38.961 54.655 38.961 54.655 "/>
      <path id="R_Ear" fill="#404041" stroke="#000000" d="M 111.967 84.658 C 111.967 84.658 114.317 80.394 115.903 72.579 C 117.487 64.759 115.374 54.126 115.374 54.126 C 117.999 58.887 119.987 64.997 119.345 72.153 C 118.316 83.583 113.011 87.481 110.361 88.587 L 111.967 84.658 L 111.967 84.658 Z "/>
      <g id="L_Ear">
        <path id="Outer_Ear" fill="#404041" stroke="#231F20" d="M 2.140 75.090 C 3.341 79.729 6.136 85.153 7.575 87.630 C 9.010 90.110 12.528 93.945 16.597 96.178 C 20.669 98.414 22.687 98.157 22.687 98.157 C 28.849 95.360 31.220 83.145 27.968 69.769 C 24.513 55.579 16.026 45.458 9.005 47.169 C 5.255 48.079 1.848 51.833 0.860 57.626 C -0.102 63.240 0.941 70.460 2.140 75.090 L 2.140 75.090 Z "/>
        <path id="Inner_Ear" fill="#929497" stroke="#231F20" stroke-linecap="round" d="M 6.501 63.290 C 9.202 62.133 13.786 66.786 16.741 73.687 C 19.693 80.583 19.900 87.118 17.202 88.274 C 14.499 89.429 9.917 84.774 6.964 77.875 C 4.007 70.977 3.802 64.447 6.501 63.290 L 6.501 63.290 Z M 18.380 87.146 C 7.258 80.097 7.382 63.116 7.382 63.116 "/>
      </g>
      <path id="Face" fill="#E6E7E8" stroke="#000000" stroke-linecap="round" d="M 36.114 95.760 C 37.415 96.649 47.032 103.063 57.476 105.665 C 64.393 107.394 62.664 110.778 62.664 110.778 C 62.664 110.778 62.943 109.755 68.340 107.423 C 73.738 105.104 73.090 107.152 89.194 103.329 C 105.298 99.519 111.548 90.173 112.840 80.389 C 114.078 70.988 109.010 64.879 105.763 56.701 C 101.551 46.097 90.034 40.131 75.119 40.428 C 46.727 40.988 40.475 56.949 40.475 56.949 L 40.432 57.121 C 45.710 66.878 47.835 88.621 37.038 95.121 C 36.714 95.315 36.386 95.503 36.054 95.683 L 36.114 95.760 L 36.114 95.760 Z "/>
      <path id="Mouth" fill="none" stroke="#231F20" stroke-linecap="round" d="M 61.706 77.748 C 85.089 67.916 97.761 77.093 97.761 77.093 "/>
      <path id="R_Eye" fill="#FFFFFF" stroke="#000000" stroke-width="2" d="M 92.540 63.502 C 93.171 65.773 95.421 67.270 97.831 66.891 C 100.427 66.485 102.202 64.074 101.800 61.507 C 101.698 60.870 101.472 60.284 101.152 59.774 L 92.540 63.502 L 92.540 63.502 Z "/>
      <path id="L_Eye_1_" fill="#FFFFFF" stroke="#000000" stroke-width="2" d="M 60.806 60.072 C 59.589 62.093 60.048 64.752 61.982 66.244 C 64.060 67.850 67.032 67.483 68.618 65.429 C 69.011 64.921 69.279 64.352 69.433 63.766 L 60.806 60.072 L 60.806 60.072 Z "/>
    </g>
  </g>
</svg>