<svg version="1.1" width="73" height="68" xmlns="http://www.w3.org/2000/svg" xmlns:xlink="http://www.w3.org/1999/xlink">
  <!-- Exported by Scratch - http://scratch.mit.edu/ -->
  <g id="Gift">
    <g id="Box">
      <path id="Box_Fill" fill="#1F519B" d="M 30.377 69.562 L 31.500 88.938 L 43 94.625 L 57.062 88.438 L 58.398 69.562 L 43.375 65.500 L 30.377 69.562 " transform="matrix(1.9799314737319946, 0, 0, 1.9799314737319946, -52.5, -120.6)"/>
      <path id="Box_Top" fill="#3579BC" d="M 30.377 69.562 L 43.292 73.708 L 58.500 69.562 L 43.375 65.500 L 30.377 69.562 " transform="matrix(1.9799314737319946, 0, 0, 1.9799314737319946, -52.5, -120.6)"/>
      <path id="Box_Side" fill="#2964AA" d="M 43.292 73.708 L 43 94.625 L 57.062 88.438 L 58.500 69.562 L 43.292 73.708 " transform="matrix(1.9799314737319946, 0, 0, 1.9799314737319946, -52.5, -120.6)"/>
      <path id="Box_Outline" d="M 42.994 94.900 L 31.259 89.096 L 30.117 69.382 L 43.370 65.240 L 58.662 69.375 L 57.301 88.605 L 42.994 94.900 L 42.994 94.900 Z M 31.741 88.778 L 43.006 94.349 L 56.824 88.269 L 58.135 69.749 L 43.380 65.760 L 30.638 69.742 L 31.741 88.778 L 31.741 88.778 Z " transform="matrix(1.9799314737319946, 0, 0, 1.9799314737319946, -52.5, -120.6)"/>
    </g>
    <path id="R_Ribbon" fill="#CECECE" stroke="#000000" stroke-width="0.5" d="M 35.375 67.917 L 48.722 72.229 C 48.722 72.229 48.125 92.642 48.065 92.669 C 48.005 92.696 53 90.656 53 90.656 L 53.891 70.819 L 39.782 66.446 L 35.375 67.917 Z " transform="matrix(1.9799314737319946, 0, 0, 1.9799314737319946, -52.5, -120.6)"/>
    <path id="L_Ribbon" fill="#CECECE" stroke="#000000" stroke-width="0.5" d="M 48.250 66.750 L 34.497 70.885 L 34.821 90.858 L 38.767 92.810 L 38.703 72.235 L 53 68.062 L 48.250 66.750 " transform="matrix(1.9799314737319946, 0, 0, 1.9799314737319946, -52.5, -120.6)"/>
    <g id="Bow">
      <g id="ID0.16421956615522504">
        <path id="ID0.3979996433481574" fill="#CECECE" d="M 52.517 70.871 C 48.506 70.871 44.900 70.198 43.762 69.962 L 44.330 69.181 C 45.332 69.234 46.319 69.261 47.268 69.261 C 56.501 69.261 60.747 66.797 62.075 65.812 C 61.830 66.957 60.812 68.291 60.801 68.307 L 60.581 68.592 L 60.926 68.698 C 61.375 68.837 61.806 68.906 62.156 68.939 C 59.763 70.221 56.525 70.871 52.517 70.871 L 52.517 70.871 Z " transform="matrix(1.9799314737319946, 0, 0, 1.9799314737319946, -52.5, -120.6)"/>
        <path id="ID0.905133131891489" d="M 61.614 66.423 C 61.315 67.136 60.841 67.844 60.602 68.154 L 60.164 68.725 L 60.852 68.937 C 61.018 68.988 61.181 69.030 61.338 69.064 C 59.063 70.098 56.105 70.621 52.517 70.621 C 48.902 70.621 45.618 70.071 44.194 69.794 L 44.453 69.438 C 45.413 69.486 46.359 69.511 47.269 69.511 C 55.449 69.510 59.769 67.574 61.614 66.423 M 62.375 65.240 C 62.375 65.240 58.588 69.011 47.269 69.011 C 46.304 69.011 45.286 68.984 44.208 68.924 L 43.333 70.126 C 43.333 70.126 47.591 71.122 52.516 71.122 C 56.141 71.122 60.126 70.583 63.041 68.710 C 63.041 68.710 62.934 68.719 62.751 68.719 C 62.387 68.719 61.719 68.682 60.998 68.460 C 60.999 68.458 62.458 66.563 62.375 65.240 L 62.375 65.240 Z " transform="matrix(1.9799314737319946, 0, 0, 1.9799314737319946, -52.5, -120.6)"/>
      </g>
      <g id="ID0.7600986659526825">
        <path id="ID0.16094404179602861" fill="#CECECE" d="M 34.563 71.131 C 31.664 71.131 29.327 70.481 27.605 69.195 C 27.864 69.160 28.180 69.089 28.509 68.948 L 28.765 68.839 L 28.629 68.596 C 28.621 68.581 27.931 67.333 27.721 66.203 C 28.849 67.278 31.967 69.519 38.368 69.519 C 39.038 69.519 39.736 69.494 40.442 69.443 L 40.858 70.231 C 40.017 70.471 37.433 71.131 34.563 71.131 L 34.563 71.131 Z " transform="matrix(1.9799314737319946, 0, 0, 1.9799314737319946, -52.5, -120.6)"/>
        <path id="ID0.39298297418281436" d="M 28.169 66.914 C 29.684 68.091 32.816 69.770 38.368 69.770 C 38.993 69.770 39.640 69.748 40.297 69.705 L 40.491 70.073 C 39.448 70.350 37.119 70.880 34.562 70.880 C 31.974 70.880 29.848 70.355 28.221 69.317 C 28.346 69.279 28.475 69.234 28.606 69.178 L 29.118 68.960 L 28.847 68.474 C 28.689 68.190 28.388 67.572 28.169 66.914 M 27.414 65.500 C 27.353 66.823 28.412 68.719 28.412 68.719 C 27.889 68.941 27.405 68.978 27.141 68.978 C 27.009 68.978 26.931 68.969 26.931 68.969 C 29.045 70.842 31.935 71.381 34.564 71.381 C 38.135 71.381 41.223 70.385 41.223 70.385 L 40.589 69.183 C 39.808 69.243 39.069 69.270 38.370 69.270 C 30.160 69.271 27.414 65.500 27.414 65.500 L 27.414 65.500 Z " transform="matrix(1.9799314737319946, 0, 0, 1.9799314737319946, -52.5, -120.6)"/>
      </g>
      <path id="ID0.8502797214314342" fill="#CECECE" stroke="#000000" stroke-width="0.5" d="M 43 67.562 C 43 67.562 46.562 64.762 47.875 63.262 C 49.188 61.762 52.268 60.394 52.674 62.176 C 53.080 63.958 53.063 63.813 54.156 64.688 C 55.249 65.563 56 67.844 52.562 69.063 C 49.124 70.282 45.896 70.522 43.927 70.241 C 41.958 69.960 42.370 68.063 43 67.562 Z " transform="matrix(1.9799314737319946, 0, 0, 1.9799314737319946, -52.5, -120.6)"/>
      <path id="ID0.009513366967439651" fill="#CECECE" stroke="#000000" stroke-width="0.5" d="M 41.031 67.203 C 41.031 67.203 39.209 65.229 38.271 64.646 C 37.333 64.063 36.250 62.500 35.354 63.708 C 34.458 64.916 33.208 65.208 32.333 66.062 C 31.458 66.916 32.541 67.541 34.145 68.250 C 35.749 68.959 39.602 69.479 41.030 69.562 C 42.458 69.645 41.770 67.781 41.031 67.203 Z " transform="matrix(1.9799314737319946, 0, 0, 1.9799314737319946, -52.5, -120.6)"/>
      <path id="ID0.3380579291842878" fill="#CECECE" stroke="#000000" stroke-width="0.5" d="M 40.792 70.333 C 41.421 70.685 41.782 71.062 43.668 70.524 C 44.020 70.424 44.082 69.958 43.583 68.958 C 43.083 67.958 44.250 67.416 42.958 67.166 C 41.666 66.916 40.541 67.040 40.583 67.916 C 40.625 68.792 39.870 69.818 40.792 70.333 Z " transform="matrix(1.9799314737319946, 0, 0, 1.9799314737319946, -52.5, -120.6)"/>
    </g>
  </g>
</svg>