<svg width="114px" height="71px" viewBox="0 0 114 71" version="1.1" xml:space="preserve" xmlns="http://www.w3.org/2000/svg" xmlns:xlink="http://www.w3.org/1999/xlink">
  <defs/>
  <g>
    <title>Slice 1</title>
    <desc>Created with Sketch.</desc>
    <g id="Page-1" stroke="none" stroke-width="1" fill="none" fill-rule="evenodd">
      <g id="hare-b-[animals,rabbit,cold,north-pole,south-pole,ice,antarctica,arctic,robert-hunter]" transform="translate(0.000000, 1.000000)">
        <g id="BACK-back-leg" transform="translate(7.000000, 32.000000)">
          <path d="M43.8309063,0.6383178 C43.8309063,0.6383178 45.6972491,15.0282243 32.0426549,17.4114953 C20.4824034,19.8333645 16.1855806,12.8307477 16.1855806,12.8307477 L6.2030891,23.6846729 C6.2030891,23.6846729 2.515352,27.993271 0.194312,23.0579439 L17.3151577,8.3507477 C17.3151577,8.3507477 20.3514663,11.4078505 22.957832,9.1730841 C24.6658777,7.708972 24.2098777,4.5642056 24.2098777,4.5642056" id="Fill-1" fill="#D9E2F3" fill-rule="nonzero"/>
          <path d="M3.8437451,23.6415607 C3.8437451,23.6415607 3.8300651,23.6441776 3.8046594,23.6500654 C3.7929337,23.6631495 3.8391851,23.6474486 3.7890251,23.6664206 C3.7023851,23.7069813 3.566888,23.7691308 3.4001223,23.8312804 C3.0711509,23.951 2.55587086,24.0681028 2.09009943,23.8783832 C1.85753943,23.7952991 1.669928,23.6376355 1.51879657,23.4812804 C1.45235086,23.3955794 1.38785943,23.3131495 1.32662514,23.2346449 C1.27841943,23.1489439 1.23347086,23.0678224 1.19177943,22.993243 C1.10253371,22.8480093 1.06996229,22.7067009 1.02827086,22.6190374 C0.99244229,22.5281028 0.97159657,22.4757664 0.97159657,22.4757664 C0.97159657,22.4757664 0.99895657,22.5241776 1.04716229,22.6098785 C1.10123086,22.6916542 1.15073943,22.8244579 1.25692229,22.9526822 C1.30643086,23.018757 1.359848,23.0900654 1.41652229,23.1646449 C1.482968,23.2300654 1.55332229,23.298757 1.62563086,23.3694112 C1.78327657,23.4917477 1.96307086,23.604271 2.16305943,23.6441776 C2.56108229,23.7462336 2.96366514,23.5944579 3.2353109,23.4518411 C3.3734137,23.3779159 3.4835051,23.3072617 3.5675394,23.2536168 C3.6027166,23.2261402 3.7180194,23.1757664 3.7525451,23.1672617 C3.7772994,23.158757 3.7909794,23.1535234 3.7909794,23.1535234 L3.8437451,23.6415607 Z" id="Fill-3" fill="#738CB5" fill-rule="nonzero"/>
          <path d="M43.8309063,0.6383178 C43.8309063,0.6383178 45.6972491,15.0282243 32.0426549,17.4114953 C20.4824034,19.8333645 16.1855806,12.8307477 16.1855806,12.8307477 L6.2030891,23.6846729 C6.2030891,23.6846729 2.515352,27.993271 0.194312,23.0579439 L17.3151577,8.3507477 C17.3151577,8.3507477 20.3514663,11.4078505 22.957832,9.1730841 C24.6658777,7.708972 24.2098777,4.5642056 24.2098777,4.5642056" id="Stroke-5" stroke="#738CB5" stroke-width="0.5"/>
        </g>
        <g id="Back-Ear" transform="translate(61.234286, 0.181215)">
          <path d="M32.1248743,21.0321215 C32.1248743,21.0321215 24.0035143,20.0985701 13.77804,14.539785 C3.55321714,8.98034579 0.987891429,1.91557944 0.442645714,0.0720280374 C0.442645714,0.0720280374 19.5197314,0.532588785 32.5860857,18.622028" id="Fill-7" fill="#FFFEF9" fill-rule="nonzero"/>
          <path d="M32.1248743,21.0321215 C32.1248743,21.0321215 24.0035143,20.0985701 13.77804,14.539785 C3.55321714,8.98034579 0.987891429,1.91557944 0.442645714,0.0720280374 C0.442645714,0.0720280374 19.5197314,0.532588785 32.5860857,18.622028" id="Stroke-9" stroke="#738CB5" stroke-width="0.5"/>
        </g>
        <g id="Back-Leg" transform="translate(84.000000, 38.000000)">
          <path d="M0.8660949,0.2667757 C2.857512,1.9840654 5.9517977,8.2369626 5.9517977,8.2369626 L22.875261,15.9480841 C22.875261,15.9480841 24.742255,16.2830374 26.105043,15.6857477 C27.502358,15.0740654 29.435798,19.4435047 29.435798,19.4435047 L23.122803,19.4435047 L3.3232834,13.6407009 C3.3232834,13.6407009 2.5585063,11.4451869 0.5612263,10.3049065" id="Fill-11" fill="#D9E2F3" fill-rule="nonzero"/>
          <path d="M0.8660949,0.2667757 C2.857512,1.9840654 5.9517977,8.2369626 5.9517977,8.2369626 L22.875261,15.9480841 C22.875261,15.9480841 24.328598,15.9421963 25.836003,15.7106075 C28.258015,15.3390187 29.435798,19.4435047 29.435798,19.4435047 L23.122803,19.4435047 L3.3232834,13.6407009 C3.3232834,13.6407009 2.5585063,11.4451869 0.5612263,10.3049065" id="Stroke-13" stroke="#738CB5" stroke-width="0.5"/>
          <path d="M27.011702,16.8251121 C27.011702,16.8251121 27.654662,17.3170748 28.056593,17.998757 C28.261793,18.3343645 28.382959,18.7164206 28.408365,19.0036168 C28.437027,19.2934299 28.382959,19.4805327 28.393382,19.4805327 C28.38361,19.4811869 28.405759,19.2875421 28.33345,19.0173551 C28.263747,18.7471682 28.095027,18.4167944 27.857256,18.1407196 C27.62209,17.8626822 27.341325,17.6291308 27.12049,17.4727757 C26.895747,17.3144579 26.745919,17.2366075 26.745919,17.2366075 L27.011702,16.8251121 Z" id="Fill-15" fill="#738CB5" fill-rule="nonzero"/>
        </g>
        <g id="Tail" transform="translate(25.405714, 23.732617)">
          <path d="M3.72193714,8.28983178 C3.72193714,8.08964486 -1.49470286,6.70403738 1.43868,2.02450467 C4.26066857,-2.47839252 8.79721714,2.02450467 8.79721714,2.02450467" id="Fill-17" fill="#FFFEF9" fill-rule="nonzero"/>
          <path d="M3.72193714,8.28983178 C3.72193714,8.08964486 -1.49470286,6.70403738 1.43868,2.02450467 C4.26066857,-2.47839252 8.79721714,2.02450467 8.79721714,2.02450467" id="Stroke-19" stroke="#738CB5" stroke-width="0.5"/>
        </g>
        <g id="Body" transform="translate(28.000000, 17.000000)">
          <path d="M39.0024251,8.1558411 C47.1218309,12.7241589 50.8694994,11.1193925 50.8694994,11.1193925 C50.8694994,11.1193925 56.3851451,10.3474299 56.0138309,6.2370561 C55.6379566,2.0815421 59.9803794,0.5448131 63.6309851,0.2818224 C66.8777051,0.0469626 68.8730309,0.7764019 70.8455566,1.9755607 C71.9230194,2.6304206 74.169797,4.0107944 74.186082,5.6070561 C74.204322,7.3387383 73.709237,7.5533178 75.487637,9.0978972 C77.734414,11.0493925 77.989774,11.2436916 77.989774,11.2436916 C77.989774,11.2436916 77.378734,12.6207944 76.495397,13.9769626 C76.251111,14.3518224 75.154757,15.8924766 71.9536366,15.8421028 C69.4000366,15.8015421 68.7844366,15.9657477 66.9317737,16.2967757 C65.4093851,16.568271 63.3482651,15.4397664 63.3482651,15.4397664 C63.3482651,15.4397664 62.8994309,32.7336916 50.0741051,34.8978037 C35.7895794,37.3078972 33.0561851,24.0046262 22.3466994,21.2909813 C18.7260594,20.373785 6.4121051,24.7157477 1.9771794,19.556028 C-4.9709577,11.4720093 13.9015794,2.4819159 19.4354651,1.7858411 C23.6918994,1.2500467 25.9308594,0.8006075 39.0024251,8.1558411" id="Fill-21" fill="#FFFEF9" fill-rule="nonzero"/>
          <path d="M63.3524343,15.6383178 L62.5414057,14.7760748 C53.6168343,49.7021495 27.0444114,16.2179439 19.6259429,19.8971963 C19.7874971,20.0528972 19.3536457,21.2376636 19.3536457,21.2376636 C19.3536457,21.2376636 23.69216,21.5660748 26.3408686,23.1034579 C34.0316343,27.567757 35.58008,34.6148598 47.00288,35.2690654 C63.1439771,34.6148598 63.3524343,15.6383178 63.3524343,15.6383178" id="Fill-23" fill="#D9E2F3" fill-rule="nonzero"/>
          <path d="M61.0339349,11.2671776 C61.0560834,12.2170841 61.5759234,14.2981121 63.3484606,15.4397009 C63.8702549,15.7759626 64.5014891,16.0304486 65.2604034,16.1508224 C68.2413406,16.6238131 69.3995806,15.8014766 71.953832,15.8420374 C75.154952,15.8924112 76.251306,14.351757 76.494941,13.9775514 C77.378929,12.620729 77.989969,11.2436262 77.989969,11.2436262 C77.989969,11.2436262 77.733958,11.0493271 75.487832,9.098486 C73.709432,7.5532523 74.203866,7.3386729 74.186278,5.6069907 C74.169992,4.010729 71.9232149,2.6303551 70.845752,1.9754953 C68.8732263,0.7763364 66.8772491,0.0475514 63.6305291,0.281757 C59.9805749,0.5447477 55.578872,2.0873645 56.0133749,6.2376449 C56.5586206,11.4451215 48.4053406,11.3496075 48.4053406,11.3496075 C48.4053406,11.3496075 43.763912,11.0225047 35.2953406,6.1977383 C26.8267691,1.372972 22.5924834,0.8005421 16.7700149,2.3542804 C10.9481977,3.9080187 -1.9175166,10.899514 0.8914434,17.8098879 C3.7010549,24.7196075 16.1596263,21.3668037 20.5971577,21.1214766 C25.0353406,20.8761495 30.7353406,26.3551215 34.2771577,29.8714766 C37.8196263,33.3878318 51.0879234,40.8706355 59.9271577,27.7865234 C59.9271577,27.7865234 63.5464949,22.6346542 63.3484606,15.4397009" id="Stroke-25" stroke="#738CB5" stroke-width="0.5"/>
        </g>
        <g id="Face" transform="translate(94.000000, 21.000000)">
          <path d="M0.0726697,1.1192804 C0.0726697,1.1192804 2.7207269,0.074514 3.9682126,1.4411495 C5.2150469,2.807785 4.981184,4.3739533 4.981184,4.3739533 C4.981184,4.3739533 3.4288297,5.3362897 1.9956869,4.2097477 C0.5612411,3.0825514 0.0726697,1.1192804 0.0726697,1.1192804" id="Fill-27" fill="#D9E2F3" fill-rule="nonzero"/>
          <path d="M10.821827,9.2163832 C10.821827,9.2163832 10.756033,8.4117103 10.315016,7.7169439 C9.873999,7.0221776 9.720262,6.6551682 10.231633,6.3843271 C10.643336,6.1664766 11.483679,6.9731121 11.483679,6.9731121 L11.921439,7.3918037 L10.821827,9.2163832 Z" id="Fill-29" fill="#0F233A" fill-rule="nonzero"/>
          <path d="M3.725816,1.2183271 C3.725816,1.2183271 2.5350046,0.8912243 1.929176,2.554215 C1.3422389,4.1615981 2.531096,4.5377664 2.531096,4.5377664 C2.531096,4.5377664 3.5870617,5.0833738 4.2476103,3.6192617 C4.8508331,2.2820654 4.3251303,1.5611308 3.725816,1.2183271" id="Fill-31" fill="#0F233A" fill-rule="nonzero"/>
          <path d="M0.0726697,1.1192804 C0.0726697,1.1192804 2.7207269,0.074514 3.9682126,1.4411495 C5.2150469,2.807785 4.981184,4.3739533 4.981184,4.3739533 C4.981184,4.3739533 3.4288297,5.3362897 1.9956869,4.2097477 C0.5612411,3.0825514 0.0726697,1.1192804 0.0726697,1.1192804 Z" id="Stroke-33" stroke="#0F233A" stroke-width="0.5"/>
        </g>
        <g id="Front-Ear" transform="translate(54.000000, 5.000000)">
          <path d="M35.5409417,17.1805794 C35.5409417,17.1805794 27.2221989,17.3166542 16.0163246,13.0656262 C4.8104503,8.8145981 1.0543131,2.03048598 0.1996389,0.24450467 C0.1996389,0.24450467 19.4526103,-1.81951402 35.6015246,14.6900187" id="Fill-35" fill="#FFFEF9" fill-rule="nonzero"/>
          <path d="M33.4346126,15.5591308 C33.4346126,15.5591308 11.8228183,13.663243 3.3477326,2.10604673 C3.3477326,2.10604673 25.0344411,3.92146729 33.4346126,15.5591308" id="Fill-37" fill="#D9E2F3" fill-rule="nonzero"/>
          <path d="M35.5409417,17.1805794 C35.5409417,17.1805794 27.2221989,17.3166542 16.0163246,13.0656262 C4.8104503,8.8145981 1.0543131,2.03048598 0.1996389,0.24450467 C0.1996389,0.24450467 19.4526103,-1.81951402 35.6015246,14.6900187" id="Stroke-39" stroke="#738CB5" stroke-width="0.5"/>
        </g>
        <g id="Front-Leg" transform="translate(78.000000, 36.000000)">
          <path d="M5.6214754,0.4945327 C7.1249726,3.305 7.9060354,11.7167757 7.9060354,11.7167757 L23.769624,27.4726636 C23.769624,27.4726636 26.960321,28.6077103 28.805167,28.5874299 C29.893053,28.5763084 29.592093,33.2375234 29.592093,33.2375234 L22.430938,31.8813551 L2.5942869,16.6684579 C2.5942869,16.6684579 2.6828811,13.8553738 0.9233726,11.6938785" id="Fill-41" fill="#FFFEF9" fill-rule="nonzero"/>
          <path d="M5.6214754,0.4945327 C7.1249726,3.305 7.9060354,11.7167757 7.9060354,11.7167757 L23.769624,27.4726636 C23.769624,27.4726636 26.499761,28.6064019 28.34135,28.4925701 C30.182938,28.3780841 29.592093,33.2375234 29.592093,33.2375234 L22.430938,31.8813551 L2.5942869,16.6684579 C2.5942869,16.6684579 2.6828811,13.8553738 0.9233726,11.6938785" id="Stroke-43" stroke="#738CB5" stroke-width="0.5"/>
          <path d="M26.599821,30.5183832 C26.590701,30.5124953 26.725546,30.6538037 26.861695,30.8762336 C26.938563,30.982215 27.001752,31.1228692 27.080575,31.2628692 C27.141809,31.4139907 27.218026,31.5683832 27.263626,31.7338972 C27.301409,31.9026822 27.365249,32.061 27.368506,32.223243 C27.376323,32.3835234 27.413455,32.5267944 27.391306,32.6543645 C27.366552,32.9016542 27.350266,33.0671682 27.350266,33.0671682 C27.350266,33.0671682 27.335935,32.9036168 27.315089,32.6582897 C27.314438,32.5366075 27.251249,32.4018411 27.218026,32.2572617 C27.188712,32.1107196 27.098163,31.972028 27.037581,31.8274486 C26.969181,31.6861402 26.871466,31.5585701 26.794598,31.4355794 C26.698186,31.3224019 26.621969,31.2105327 26.536632,31.1307196 C26.378335,30.9567009 26.264335,30.8795047 26.259775,30.871 L26.599821,30.5183832 Z" id="Fill-45" fill="#738CB5" fill-rule="nonzero"/>
          <path d="M28.304739,29.873729 C28.304739,29.873729 28.331448,29.9241028 28.376397,30.0124206 C28.425254,30.1053178 28.486488,30.2387757 28.547071,30.3977477 C28.679311,30.713729 28.799174,31.155972 28.857151,31.6041028 C28.861059,31.8311121 28.907311,32.0535421 28.872134,32.2641963 C28.840865,32.4735421 28.846728,32.6704579 28.789402,32.8294299 C28.686477,33.1434486 28.618077,33.3527944 28.618077,33.3527944 C28.618077,33.3527944 28.656511,33.138215 28.714488,32.8156916 C28.748362,32.658028 28.714488,32.4643832 28.717745,32.2655047 C28.724259,32.0653178 28.648042,31.855972 28.616774,31.6485888 C28.504077,31.2377477 28.336659,30.8478411 28.175105,30.5763458 C28.098888,30.4363458 28.029185,30.3303645 27.979025,30.2590561 C27.932774,30.1870935 27.894991,30.1406449 27.894991,30.1406449 L28.304739,29.873729 Z" id="Fill-47" fill="#738CB5" fill-rule="nonzero"/>
        </g>
        <g id="Group-52" transform="translate(0.000000, 31.583084)">
          <path d="M48.4752103,2.32851402 C48.4752103,2.32851402 46.1541703,16.6523458 32.3927417,15.0024393 C20.6266389,13.9943084 18.509496,6.0483271 18.509496,6.0483271 L5.84702743,13.5716916 C5.84702743,13.5716916 1.08378171,16.6379533 0.269496,11.240757 L20.8709246,2.0818785 C20.8709246,2.0818785 22.9066389,5.8847757 26.0413131,4.49458879 C28.0959189,3.58328037 28.5571303,0.439168224 28.5571303,0.439168224" id="Fill-49" fill="#FFFEF9" fill-rule="nonzero"/>
          <path d="M48.4752103,2.32851402 C48.4752103,2.32851402 46.1541703,16.6523458 32.3927417,15.0024393 C20.6266389,13.9943084 18.509496,6.0483271 18.509496,6.0483271 L5.84702743,13.5716916 C5.84702743,13.5716916 1.08378171,16.6379533 0.269496,11.240757 L20.8709246,2.0818785 C20.8709246,2.0818785 22.9066389,5.8847757 26.0413131,4.49458879 C28.0959189,3.58328037 28.5571303,0.439168224 28.5571303,0.439168224" id="Stroke-51" stroke="#738CB5" stroke-width="0.5"/>
          <path d="M1.49600571,10.8012618 C1.49600571,10.8012618 1.53704571,10.9778973 1.64909143,11.2487384 C1.75657714,11.5136917 1.93962857,11.8578039 2.20866857,12.1234113 C2.34221143,12.2555609 2.49985714,12.3628506 2.66662286,12.4204207 C2.83208571,12.4806076 3.00471429,12.4976169 3.14933143,12.4799534 C3.44442857,12.4583646 3.62617714,12.3445328 3.62943429,12.3602338 C3.62943429,12.3602338 3.58513714,12.383131 3.50631429,12.4230375 C3.42814286,12.4668693 3.31414286,12.5224767 3.16105714,12.5558412 C3.01318286,12.5970562 2.82296571,12.6094861 2.62623429,12.5695796 C2.4282,12.5335982 2.22821143,12.4393926 2.05362857,12.3137852 C1.70316,12.0599534 1.44454286,11.7092992 1.28233714,11.4378039 C1.11882857,11.1689253 1.03414286,10.960888 1.03414286,10.960888 L1.49600571,10.8012618 Z" id="Fill-53" fill="#738CB5" fill-rule="nonzero"/>
        </g>
      </g>
    </g>
  </g>
</svg>