<?xml version="1.0" encoding="utf-8"?>
<!-- Generator: Adobe Illustrator 18.0.0, SVG Export Plug-In . SVG Version: 6.00 Build 0)  -->
<!DOCTYPE svg PUBLIC "-//W3C//DTD SVG 1.1//EN" "http://www.w3.org/Graphics/SVG/1.1/DTD/svg11.dtd">
<svg version="1.1" id="Layer_2" xmlns="http://www.w3.org/2000/svg" xmlns:xlink="http://www.w3.org/1999/xlink" x="0px" y="0px"
	 viewBox="0 0 45.4 48.3" enable-background="new 0 0 45.4 48.3" xml:space="preserve">
<g>
	<path fill="#41A2F2" d="M45.3,47.7c0.1,0.5-0.3,0.7-0.8,0.7c-1.2-0.1-2.4-0.1-3.5-0.2c-2.7,0-5.5,0-8.2,0c-0.2,0-0.5,0-0.7,0
		c-0.4-0.1-1,0-1-0.7c0-1,0.1-1.4,0.9-1.6c0.3-0.1,0.6-0.1,0.9-0.2c1.9-0.4,1.8-0.6,2-2.5c0.2-1.6,0.1-3.2,0.1-4.8
		c0-1.9-0.1-3.8-0.1-5.8c0-1.5,0.1-2.9,0.2-4.4c0-0.8-0.2-1-1-1c-6.3,0.2-12.5,0.3-18.8,0.4c-1.6,0-3.2-0.1-4.7-0.2
		c0,4.5,0,8.9,0,13.3c0,1.2,0.1,2.4,0.1,3.6c0,0.6,0.3,0.9,0.8,1c0.7,0.1,1.4,0.2,2,0.2c0.6,0,0.9,0.3,0.8,0.9c0,0.1,0,0.1,0,0.2
		c-0.2,1.7-0.2,1.7-1.9,1.7c-3.8,0-7.5-0.1-11.3-0.2c-0.7,0-1.1-0.2-0.9-0.9c0-0.2,0-0.5,0-0.7c0-0.6,0.2-0.8,0.8-0.8
		c0.4,0,0.7-0.1,1.1-0.1c1.5-0.1,1.6-0.8,1.8-1.9c0.2-1,0.1-2,0.1-3c0-0.9-0.1-1.9-0.1-2.8C3.7,32.9,3.6,28,3.6,23
		c0-3.4,0.2-6.8,0.3-10.3C4,10.6,4,8.5,4,6.3C4,6,4.2,5.8,4.2,5.5C4.3,4,3.4,3,1.9,2.9C1.3,2.9,0.6,3,0.3,2.7C0,2.5,0.1,1.8,0.1,1.3
		c-0.1-1-0.1-1,0.9-1c2.8,0.1,5.7,0.1,8.5,0.1c1.3,0,2.6-0.1,3.9-0.2c1.1-0.1,1.3,0.1,1.1,1.1c-0.2,1.6-0.2,1.6-1.8,1.8
		c-0.2,0-0.4,0-0.6,0.1c-1.4,0.3-1.5,0.5-1.8,1.9c-0.6,3.7-0.1,7.3,0.1,10.9c0.1,2.3,0,4.6,0,7c0.9-0.1,1.6-0.2,2.3-0.2
		c4.3,0,8.6,0,13,0c2.9,0,5.8,0.2,8.7,0.3c0.5,0,0.6-0.2,0.6-0.7c-0.1-1.4-0.2-2.8-0.3-4.2c-0.3-3-0.1-5.9,0.3-8.9
		c0.2-1.5-0.1-3-0.1-4.5c0-1.5-0.3-1.7-1.9-1.9c-0.1,0-0.2,0-0.3,0c-1.4,0-1.4,0-1.5-1.4c0-0.4-0.1-0.7-0.3-1.3
		c1.4-0.1,2.8-0.2,4.1-0.3c1.4-0.1,2.8,0,4.3-0.1c1.7,0,3.4,0,5.1-0.1c0.7,0,1.1,0.3,1,1c0,0.3,0.1,0.6,0,0.9
		c-0.1,0.2-0.2,0.5-0.5,0.6c-0.6,0.3-1.2,0.5-1.9,0.7c-0.9,0.2-1.3,0.8-1.3,1.7c0,2.3,0,4.5-0.1,6.8c-0.1,2.4-0.2,4.8-0.2,7.2
		c0,5.9,0,11.8,0,17.8c0,1.4,0.1,2.9,0.1,4.3c0,1,0.1,2.1,0.1,3.1c0,0.7,0.4,1.1,1.1,1.2c0.6,0.1,1.1,0.1,1.7,0.2
		c0.2,0,0.4,0,0.5,0.1C45.7,46.2,45.2,47,45.3,47.7z"/>
</g>
</svg>
