<svg version="1.1" width="83" height="111" viewBox="-1 -1 83 111" xmlns="http://www.w3.org/2000/svg" xmlns:xlink="http://www.w3.org/1999/xlink">
  <!-- Exported by Scratch - http://scratch.mit.edu/ -->
  <g id="ID0.6545983520336449" transform="matrix(1, 0, 0, 1, 0.25, -0.25)">
    <g id="Page-1">
      <g id="strawberry-d-[food,fruit,alex-eben-meyer]">
        <g id="Group-4">
          <path id="Shape" fill="#BE0A3C" stroke="none" stroke-width="1" d="M 23.139 38.287 C 22.813 34.497 14.071 32.767 11.050 28.403 C 8.029 24.039 7.778 17.628 7.177 13.874 C 6.528 9.839 6.743 0.381 5.796 0.317 C 4.848 0.253 5.971 4.147 4.952 4.211 C 3.933 4.275 4.156 0.317 3.403 0.144 C 2.651 -0.028 3.041 4.420 1.939 4.211 C 1.341 4.099 1.345 0.766 0.836 0.895 C 0.326 1.023 -0.955 18.680 2.719 27.327 C 6.393 35.974 9.661 41.579 18.076 42.153 C 21.658 42.406 23.466 42.077 23.139 38.287 Z " transform="matrix(1, 0, 0, 1, 0, 23.5)"/>
          <path id="Shape" fill="#82001E" stroke="none" stroke-width="1" d="M 7.961 3.685 C 7.360 3.380 6.552 5.692 6.552 5.692 C 5.824 5.817 3.969 6.278 3.893 7.700 C 3.801 9.454 5.684 11.630 6.874 9.707 C 6.886 9.671 8.574 3.994 7.961 3.685 Z " transform="matrix(1, 0, 0, 1, 0, 23.5)"/>
        </g>
        <g id="Group-3">
          <path id="Shape" fill="#BE0A3C" stroke="none" stroke-width="1" d="M 0.861 38.287 C 1.187 34.497 9.929 32.767 12.950 28.403 C 15.971 24.039 16.222 17.628 16.823 13.874 C 17.472 9.839 17.257 0.381 18.204 0.317 C 19.152 0.253 18.029 4.147 19.048 4.211 C 20.067 4.275 19.844 0.317 20.597 0.144 C 21.349 -0.028 20.959 4.420 22.061 4.211 C 22.659 4.099 22.655 0.766 23.164 0.895 C 23.674 1.023 24.955 18.680 21.281 27.327 C 17.607 35.974 14.339 41.579 5.924 42.153 C 2.338 42.406 0.515 42.077 0.861 38.287 Z " transform="matrix(1, 0, 0, 1, 58, 23.5)"/>
          <path id="Shape" fill="#82001E" stroke="none" stroke-width="1" d="M 16.039 3.685 C 16.640 3.380 17.448 5.692 17.448 5.692 C 18.176 5.817 20.031 6.278 20.107 7.700 C 20.199 9.454 18.316 11.630 17.126 9.707 C 17.114 9.671 15.426 3.994 16.039 3.685 Z " transform="matrix(1, 0, 0, 1, 58, 23.5)"/>
        </g>
        <path id="Shape" fill="#82001E" stroke="none" stroke-width="1" d="M 60.238 74.306 C 60.079 74.226 62.029 65.314 55.199 65.314 C 48.368 65.314 48.432 104.099 49.710 108.599 C 50.207 110.365 50.904 109.803 52.162 109.896 C 53.419 109.988 54.208 110.032 53.754 109.201 C 53.662 109.032 52.066 109.273 52.066 109.273 C 52.066 109.273 54.912 101.449 56.011 97.462 C 56.556 95.483 57.082 93.480 57.523 91.473 C 57.762 90.417 60.505 75.366 60.238 74.306 Z " transform="matrix(1, 0, 0, 1, 0, 0.5)"/>
        <path id="Shape" fill="#82001E" stroke="none" stroke-width="1" d="M 22.833 74.716 C 22.936 74.792 26.284 94.520 26.582 95.716 C 26.980 97.282 27.327 98.827 27.689 100.397 C 28.278 102.946 29.982 106.242 29.846 108.852 C 29.480 108.876 27.892 108.707 27.689 108.880 C 26.443 109.944 28.163 109.683 28.557 109.747 C 29.595 109.837 30.639 109.821 31.673 109.699 C 33.091 109.530 32.812 109.550 33.174 108.069 C 33.779 105.592 35.829 67.799 28.441 67.923 C 21.053 68.047 22.928 74.619 22.833 74.716 Z " transform="matrix(1, 0, 0, 1, 0, 0.5)"/>
        <g id="Group-2">
          <path id="Shape" fill="#82783C" stroke="none" stroke-width="1" d="M 18.687 17.468 C 17.118 13.280 15.630 6.086 17.823 1.911 C 19.837 -1.919 23.360 0.550 25.040 6.624 C 26.457 11.735 26.202 20.157 26.266 21.936 C 26.337 23.899 26.103 25.822 26.019 27.773 C 25.951 29.419 26.537 32.161 25.951 33.646 C 23.010 28.504 20.765 23.012 18.687 17.468 Z " transform="matrix(1, 0, 0, 1, 16, 0.5)"/>
          <path id="Shape" fill="#A0AA1E" stroke="none" stroke-width="1" d="M 25.987 33.570 C 23.663 33.691 20.773 31.314 18.981 30.017 C 18.026 29.307 6.140 19.672 2.908 14.854 C 1.447 12.686 0.074 10.526 0.428 7.804 C 0.902 4.155 3.370 3.324 6.566 4.914 C 11.522 7.379 15.666 12.899 18.265 17.692 C 19.559 20.073 20.789 22.510 22.098 24.862 C 23.360 27.139 26.047 30.880 25.987 33.570 Z " transform="matrix(1, 0, 0, 1, 16, 0.5)"/>
          <path id="Shape" fill="#A0AA1E" stroke="none" stroke-width="1" d="M 25.549 33.438 C 25.398 31.747 26.517 29.487 26.899 27.841 C 27.297 26.079 27.695 24.345 28.260 22.622 C 29.328 19.082 30.600 15.607 32.070 12.216 C 33.395 9.282 34.804 6.022 36.942 3.589 C 38.761 1.501 42.220 -0.703 44.724 1.819 C 46.885 3.999 45.520 8.503 44.756 11.052 C 43.709 14.453 41.842 17.263 39.728 20.073 C 37.738 22.723 28.228 32.542 25.549 33.438 Z " transform="matrix(1, 0, 0, 1, 16, 0.5)"/>
          <path id="Shape" fill="#A0AA1E" stroke="none" stroke-width="1" d="M 25.896 33.558 C 26.994 32.109 28.797 30.904 30.131 29.628 C 31.859 27.974 33.622 26.364 35.377 24.746 C 37.929 22.397 40.656 19.989 44.230 19.527 C 45.524 19.362 47.876 19.282 48.322 20.896 C 48.720 22.381 46.782 24.080 45.826 24.878 C 44.409 26.018 42.891 27.024 41.293 27.885 C 40.405 28.395 29.801 32.426 25.896 33.558 Z " transform="matrix(1, 0, 0, 1, 16, 0.5)"/>
          <path id="Shape" fill="#A0AA1E" stroke="none" stroke-width="1" d="M 25.641 33.634 C 25.370 28.660 25.943 23.778 26.103 18.836 C 26.119 16.259 26.401 13.691 26.947 11.173 C 27.225 10.024 28.642 5.954 30.091 8.266 C 30.927 9.595 30.394 12.514 30.342 13.995 C 30.266 16.139 30.242 18.487 29.518 20.539 C 29.040 21.872 25.904 33.650 25.641 33.634 Z " transform="matrix(1, 0, 0, 1, 16, 0.5)"/>
        </g>
        <g id="Group">
          <path id="Shape" fill="#F01446" stroke="none" stroke-width="1" d="M 31.251 63.708 C 27.326 63.728 23.489 62.539 20.252 60.300 C 18.103 58.795 16.407 56.526 14.954 54.358 C 12.785 51.119 10.655 47.811 8.653 44.458 C 5.028 38.426 2.376 31.851 0.795 24.980 C -0.447 19.415 -0.837 9.150 4.891 5.709 C 7.825 3.939 12.172 2.927 15.496 2.237 C 18.374 1.639 21.212 0.888 24.169 0.631 C 25.857 0.495 27.561 0.338 29.233 0.603 C 30.518 0.808 31.143 1.522 32.071 1.530 C 32.250 1.530 33.416 0.876 33.739 0.796 C 34.395 0.666 35.061 0.593 35.729 0.579 C 37.855 0.454 39.853 0.796 41.939 1.113 C 47.324 1.916 53.005 3.987 57.220 7.564 C 62.478 12.024 61.623 18.849 60.166 24.988 C 58.573 31.748 52.885 47.116 47.428 54.567 C 41.970 62.018 34.483 63.724 31.251 63.708 Z " transform="matrix(1, 0, 0, 1, 10, 31.5)"/>
          <path id="Shape" fill="#F00A78" stroke="none" stroke-width="1" d="M 4.963 10.399 C 4.963 10.399 5.532 8.885 8.048 7.552 C 11.225 5.984 14.792 5.400 18.298 5.874 C 26.446 7.139 25.431 34.221 15.719 34.221 C 10.456 34.221 6.898 31.937 5.230 26.754 C 3.821 22.370 2.810 15.609 4.963 10.399 Z " transform="matrix(1, 0, 0, 1, 10, 31.5)"/>
          <path id="Oval" fill="#F04650" stroke="none" stroke-width="1" d="M 26.040 43.009 C 26.316 43.009 26.566 43.124 26.747 43.310 C 26.928 43.496 27.040 43.753 27.040 44.037 C 27.040 44.320 26.928 44.577 26.747 44.763 C 26.566 44.949 26.316 45.065 26.040 45.065 C 25.764 45.065 25.514 44.949 25.333 44.763 C 25.152 44.577 25.040 44.320 25.040 44.037 C 25.040 43.753 25.152 43.496 25.333 43.310 C 25.514 43.124 25.764 43.009 26.040 43.009 Z " transform="matrix(1, 0, 0, 1, 10, 31.5)"/>
          <path id="Oval" fill="#F04650" stroke="none" stroke-width="1" d="M 45.016 14.594 C 45.292 14.594 45.542 14.709 45.723 14.895 C 45.904 15.081 46.016 15.338 46.016 15.622 C 46.016 15.905 45.904 16.162 45.723 16.348 C 45.542 16.534 45.292 16.649 45.016 16.649 C 44.740 16.649 44.490 16.534 44.309 16.348 C 44.128 16.162 44.016 15.905 44.016 15.622 C 44.016 15.338 44.128 15.081 44.309 14.895 C 44.490 14.709 44.740 14.594 45.016 14.594 Z " transform="matrix(1, 0, 0, 1, 10, 31.5)"/>
          <path id="Oval" fill="#F04650" stroke="none" stroke-width="1" d="M 41.891 9.812 C 42.167 9.812 42.417 9.928 42.598 10.114 C 42.779 10.300 42.891 10.557 42.891 10.840 C 42.891 11.124 42.779 11.381 42.598 11.567 C 42.417 11.753 42.167 11.868 41.891 11.868 C 41.615 11.868 41.365 11.753 41.184 11.567 C 41.003 11.381 40.891 11.124 40.891 10.840 C 40.891 10.557 41.003 10.300 41.184 10.114 C 41.365 9.928 41.615 9.812 41.891 9.812 Z " transform="matrix(1, 0, 0, 1, 10, 31.5)"/>
          <path id="Oval" fill="#F04650" stroke="none" stroke-width="1" d="M 48.889 10.290 C 49.165 10.290 49.415 10.405 49.596 10.591 C 49.777 10.777 49.889 11.034 49.889 11.318 C 49.889 11.601 49.777 11.858 49.596 12.044 C 49.415 12.230 49.165 12.346 48.889 12.346 C 48.613 12.346 48.363 12.230 48.182 12.044 C 48.001 11.858 47.889 11.601 47.889 11.318 C 47.889 11.034 48.001 10.777 48.182 10.591 C 48.363 10.405 48.613 10.290 48.889 10.290 Z " transform="matrix(1, 0, 0, 1, 10, 31.5)"/>
          <path id="Oval" fill="#F04650" stroke="none" stroke-width="1" d="M 37.536 5.011 C 37.812 5.011 38.062 5.126 38.243 5.312 C 38.424 5.498 38.536 5.755 38.536 6.039 C 38.536 6.322 38.424 6.579 38.243 6.765 C 38.062 6.951 37.812 7.066 37.536 7.066 C 37.260 7.066 37.010 6.951 36.829 6.765 C 36.648 6.579 36.536 6.322 36.536 6.039 C 36.536 5.755 36.648 5.498 36.829 5.312 C 37.010 5.126 37.260 5.011 37.536 5.011 Z " transform="matrix(1, 0, 0, 1, 10, 31.5)"/>
          <path id="Oval" fill="#F04650" stroke="none" stroke-width="1" d="M 29.388 7.584 C 29.664 7.584 29.914 7.699 30.095 7.886 C 30.276 8.072 30.388 8.328 30.388 8.612 C 30.388 8.896 30.276 9.153 30.095 9.339 C 29.914 9.525 29.664 9.640 29.388 9.640 C 29.112 9.640 28.862 9.525 28.681 9.339 C 28.500 9.153 28.388 8.896 28.388 8.612 C 28.388 8.328 28.500 8.072 28.681 7.886 C 28.862 7.699 29.112 7.584 29.388 7.584 Z " transform="matrix(1, 0, 0, 1, 10, 31.5)"/>
          <path id="Oval" fill="#F04650" stroke="none" stroke-width="1" d="M 22.704 6.878 C 22.980 6.878 23.230 6.993 23.411 7.179 C 23.592 7.365 23.704 7.622 23.704 7.905 C 23.704 8.189 23.592 8.446 23.411 8.632 C 23.230 8.818 22.980 8.933 22.704 8.933 C 22.429 8.933 22.179 8.818 21.998 8.632 C 21.817 8.446 21.704 8.189 21.704 7.905 C 21.704 7.622 21.817 7.365 21.998 7.179 C 22.179 6.993 22.429 6.878 22.704 6.878 Z " transform="matrix(1, 0, 0, 1, 10, 31.5)"/>
          <path id="Oval" fill="#F04650" stroke="none" stroke-width="1" d="M 14.238 6.685 C 14.514 6.685 14.764 6.800 14.945 6.986 C 15.126 7.172 15.238 7.429 15.238 7.713 C 15.238 7.996 15.126 8.253 14.945 8.439 C 14.764 8.625 14.514 8.741 14.238 8.741 C 13.962 8.741 13.712 8.625 13.531 8.439 C 13.350 8.253 13.238 7.996 13.238 7.713 C 13.238 7.429 13.350 7.172 13.531 6.986 C 13.712 6.800 13.962 6.685 14.238 6.685 Z " transform="matrix(1, 0, 0, 1, 10, 31.5)"/>
          <path id="Oval" fill="#F04650" stroke="none" stroke-width="1" d="M 20.237 15.104 C 20.512 15.104 20.762 15.219 20.943 15.405 C 21.124 15.591 21.237 15.848 21.237 16.131 C 21.237 16.415 21.124 16.672 20.943 16.858 C 20.762 17.044 20.512 17.159 20.237 17.159 C 19.961 17.159 19.711 17.044 19.530 16.858 C 19.349 16.672 19.237 16.415 19.237 16.131 C 19.237 15.848 19.349 15.591 19.530 15.405 C 19.711 15.219 19.961 15.104 20.237 15.104 Z " transform="matrix(1, 0, 0, 1, 10, 31.5)"/>
          <path id="Oval" fill="#F04650" stroke="none" stroke-width="1" d="M 11.670 14.606 C 11.946 14.606 12.196 14.721 12.377 14.907 C 12.558 15.093 12.670 15.350 12.670 15.634 C 12.670 15.917 12.558 16.174 12.377 16.360 C 12.196 16.546 11.946 16.661 11.670 16.661 C 11.394 16.661 11.144 16.546 10.963 16.360 C 10.782 16.174 10.670 15.917 10.670 15.634 C 10.670 15.350 10.782 15.093 10.963 14.907 C 11.144 14.721 11.394 14.606 11.670 14.606 Z " transform="matrix(1, 0, 0, 1, 10, 31.5)"/>
          <path id="Oval" fill="#F04650" stroke="none" stroke-width="1" d="M 36.270 45.330 C 36.546 45.330 36.796 45.445 36.977 45.631 C 37.158 45.817 37.270 46.074 37.270 46.357 C 37.270 46.641 37.158 46.898 36.977 47.084 C 36.796 47.270 36.546 47.385 36.270 47.385 C 35.994 47.385 35.744 47.270 35.563 47.084 C 35.382 46.898 35.270 46.641 35.270 46.357 C 35.270 46.074 35.382 45.817 35.563 45.631 C 35.744 45.445 35.994 45.330 36.270 45.330 Z " transform="matrix(1, 0, 0, 1, 10, 31.5)"/>
          <path id="Oval" fill="#F04650" stroke="none" stroke-width="1" d="M 33.130 13.534 C 33.406 13.534 33.656 13.649 33.837 13.835 C 34.018 14.021 34.130 14.278 34.130 14.562 C 34.130 14.845 34.018 15.102 33.837 15.288 C 33.656 15.474 33.406 15.589 33.130 15.589 C 32.854 15.589 32.604 15.474 32.423 15.288 C 32.242 15.102 32.130 14.845 32.130 14.562 C 32.130 14.278 32.242 14.021 32.423 13.835 C 32.604 13.649 32.854 13.534 33.130 13.534 Z " transform="matrix(1, 0, 0, 1, 10, 31.5)"/>
          <path id="Oval" fill="#F04650" stroke="none" stroke-width="1" d="M 35.399 20.122 C 35.674 20.122 35.924 20.237 36.105 20.423 C 36.286 20.609 36.399 20.866 36.399 21.150 C 36.399 21.433 36.286 21.690 36.105 21.876 C 35.924 22.062 35.674 22.177 35.399 22.177 C 35.123 22.177 34.873 22.062 34.692 21.876 C 34.511 21.690 34.399 21.433 34.399 21.150 C 34.399 20.866 34.511 20.609 34.692 20.423 C 34.873 20.237 35.123 20.122 35.399 20.122 Z " transform="matrix(1, 0, 0, 1, 10, 31.5)"/>
          <path id="Oval" fill="#F04650" stroke="none" stroke-width="1" d="M 27.688 15.188 C 27.964 15.188 28.214 15.303 28.395 15.489 C 28.576 15.675 28.688 15.932 28.688 16.216 C 28.688 16.499 28.576 16.756 28.395 16.942 C 28.214 17.128 27.964 17.243 27.688 17.243 C 27.412 17.243 27.162 17.128 26.981 16.942 C 26.800 16.756 26.688 16.499 26.688 16.216 C 26.688 15.932 26.800 15.675 26.981 15.489 C 27.162 15.303 27.412 15.188 27.688 15.188 Z " transform="matrix(1, 0, 0, 1, 10, 31.5)"/>
          <path id="Oval" fill="#F04650" stroke="none" stroke-width="1" d="M 19.142 48.999 C 19.418 48.999 19.668 49.114 19.849 49.300 C 20.030 49.486 20.142 49.743 20.142 50.027 C 20.142 50.310 20.030 50.567 19.849 50.753 C 19.668 50.939 19.418 51.054 19.142 51.054 C 18.866 51.054 18.616 50.939 18.435 50.753 C 18.254 50.567 18.142 50.310 18.142 50.027 C 18.142 49.743 18.254 49.486 18.435 49.300 C 18.616 49.114 18.866 48.999 19.142 48.999 Z " transform="matrix(1, 0, 0, 1, 10, 31.5)"/>
          <path id="Oval" fill="#F04650" stroke="none" stroke-width="1" d="M 26.040 21.563 C 26.316 21.563 26.566 21.678 26.747 21.864 C 26.928 22.050 27.040 22.307 27.040 22.591 C 27.040 22.874 26.928 23.131 26.747 23.317 C 26.566 23.503 26.316 23.619 26.040 23.619 C 25.764 23.619 25.514 23.503 25.333 23.317 C 25.152 23.131 25.040 22.874 25.040 22.591 C 25.040 22.307 25.152 22.050 25.333 21.864 C 25.514 21.678 25.764 21.563 26.040 21.563 Z " transform="matrix(1, 0, 0, 1, 10, 31.5)"/>
          <path id="Oval" fill="#F04650" stroke="none" stroke-width="1" d="M 14.274 38.565 C 14.549 38.565 14.799 38.680 14.981 38.866 C 15.162 39.052 15.274 39.309 15.274 39.593 C 15.274 39.876 15.162 40.133 14.981 40.319 C 14.799 40.505 14.549 40.620 14.274 40.620 C 13.998 40.620 13.748 40.505 13.567 40.319 C 13.386 40.133 13.274 39.876 13.274 39.593 C 13.274 39.309 13.386 39.052 13.567 38.866 C 13.748 38.680 13.998 38.565 14.274 38.565 Z " transform="matrix(1, 0, 0, 1, 10, 31.5)"/>
          <path id="Oval" fill="#F04650" stroke="none" stroke-width="1" d="M 21.084 28.320 C 21.360 28.320 21.610 28.435 21.791 28.621 C 21.972 28.807 22.084 29.064 22.084 29.347 C 22.084 29.631 21.972 29.888 21.791 30.074 C 21.610 30.260 21.360 30.375 21.084 30.375 C 20.808 30.375 20.558 30.260 20.377 30.074 C 20.196 29.888 20.084 29.631 20.084 29.347 C 20.084 29.064 20.196 28.807 20.377 28.621 C 20.558 28.435 20.808 28.320 21.084 28.320 Z " transform="matrix(1, 0, 0, 1, 10, 31.5)"/>
          <path id="Oval" fill="#F04650" stroke="none" stroke-width="1" d="M 13.828 28.055 C 14.104 28.055 14.354 28.170 14.535 28.356 C 14.716 28.542 14.828 28.799 14.828 29.082 C 14.828 29.366 14.716 29.623 14.535 29.809 C 14.354 29.995 14.104 30.110 13.828 30.110 C 13.552 30.110 13.302 29.995 13.121 29.809 C 12.940 29.623 12.828 29.366 12.828 29.082 C 12.828 28.799 12.940 28.542 13.121 28.356 C 13.302 28.170 13.552 28.055 13.828 28.055 Z " transform="matrix(1, 0, 0, 1, 10, 31.5)"/>
          <path id="Oval" fill="#F04650" stroke="none" stroke-width="1" d="M 46.174 26.561 C 46.450 26.561 46.700 26.676 46.881 26.863 C 47.062 27.049 47.174 27.306 47.174 27.589 C 47.174 27.873 47.062 28.130 46.881 28.316 C 46.700 28.502 46.450 28.617 46.174 28.617 C 45.898 28.617 45.648 28.502 45.467 28.316 C 45.286 28.130 45.174 27.873 45.174 27.589 C 45.174 27.306 45.286 27.049 45.467 26.863 C 45.648 26.676 45.898 26.561 46.174 26.561 Z " transform="matrix(1, 0, 0, 1, 10, 31.5)"/>
          <path id="Oval" fill="#F04650" stroke="none" stroke-width="1" d="M 52.467 15.104 C 52.743 15.104 52.993 15.219 53.174 15.405 C 53.355 15.591 53.467 15.848 53.467 16.131 C 53.467 16.415 53.355 16.672 53.174 16.858 C 52.993 17.044 52.743 17.159 52.467 17.159 C 52.191 17.159 51.941 17.044 51.760 16.858 C 51.579 16.672 51.467 16.415 51.467 16.131 C 51.467 15.848 51.579 15.591 51.760 15.405 C 51.941 15.219 52.191 15.104 52.467 15.104 Z " transform="matrix(1, 0, 0, 1, 10, 31.5)"/>
          <path id="Oval" fill="#F04650" stroke="none" stroke-width="1" d="M 53.088 25.220 C 53.364 25.220 53.614 25.336 53.795 25.522 C 53.976 25.708 54.088 25.965 54.088 26.248 C 54.088 26.532 53.976 26.789 53.795 26.975 C 53.614 27.161 53.364 27.276 53.088 27.276 C 52.812 27.276 52.562 27.161 52.381 26.975 C 52.200 26.789 52.088 26.532 52.088 26.248 C 52.088 25.965 52.200 25.708 52.381 25.522 C 52.562 25.336 52.812 25.220 53.088 25.220 Z " transform="matrix(1, 0, 0, 1, 10, 31.5)"/>
          <path id="Oval" fill="#F04650" stroke="none" stroke-width="1" d="M 56.456 19.841 C 56.732 19.841 56.982 19.956 57.163 20.142 C 57.344 20.328 57.456 20.585 57.456 20.869 C 57.456 21.152 57.344 21.409 57.163 21.595 C 56.982 21.781 56.732 21.896 56.456 21.896 C 56.180 21.896 55.930 21.781 55.749 21.595 C 55.568 21.409 55.456 21.152 55.456 20.869 C 55.456 20.585 55.568 20.328 55.749 20.142 C 55.930 19.956 56.180 19.841 56.456 19.841 Z " transform="matrix(1, 0, 0, 1, 10, 31.5)"/>
          <path id="Oval" fill="#F04650" stroke="none" stroke-width="1" d="M 56.651 10.214 C 56.927 10.214 57.177 10.329 57.358 10.515 C 57.539 10.701 57.651 10.958 57.651 11.242 C 57.651 11.525 57.539 11.782 57.358 11.968 C 57.177 12.154 56.927 12.269 56.651 12.269 C 56.375 12.269 56.125 12.154 55.944 11.968 C 55.763 11.782 55.651 11.525 55.651 11.242 C 55.651 10.958 55.763 10.701 55.944 10.515 C 56.125 10.329 56.375 10.214 56.651 10.214 Z " transform="matrix(1, 0, 0, 1, 10, 31.5)"/>
          <path id="Oval" fill="#F04650" stroke="none" stroke-width="1" d="M 44.892 3.851 C 45.168 3.851 45.418 3.966 45.599 4.152 C 45.780 4.338 45.892 4.595 45.892 4.878 C 45.892 5.162 45.780 5.419 45.599 5.605 C 45.418 5.791 45.168 5.906 44.892 5.906 C 44.616 5.906 44.366 5.791 44.185 5.605 C 44.004 5.419 43.892 5.162 43.892 4.878 C 43.892 4.595 44.004 4.338 44.185 4.152 C 44.366 3.966 44.616 3.851 44.892 3.851 Z " transform="matrix(1, 0, 0, 1, 10, 31.5)"/>
          <path id="Oval" fill="#F04650" stroke="none" stroke-width="1" d="M 5.731 10.936 C 6.007 10.936 6.257 11.052 6.438 11.238 C 6.619 11.424 6.731 11.681 6.731 11.964 C 6.731 12.248 6.619 12.505 6.438 12.691 C 6.257 12.877 6.007 12.992 5.731 12.992 C 5.455 12.992 5.205 12.877 5.024 12.691 C 4.843 12.505 4.731 12.248 4.731 11.964 C 4.731 11.681 4.843 11.424 5.024 11.238 C 5.205 11.052 5.455 10.936 5.731 10.936 Z " transform="matrix(1, 0, 0, 1, 10, 31.5)"/>
          <path id="Oval" fill="#F04650" stroke="none" stroke-width="1" d="M 4.008 24.703 C 4.284 24.703 4.534 24.818 4.715 25.004 C 4.896 25.190 5.008 25.447 5.008 25.730 C 5.008 26.014 4.896 26.271 4.715 26.457 C 4.534 26.643 4.284 26.758 4.008 26.758 C 3.732 26.758 3.482 26.643 3.301 26.457 C 3.120 26.271 3.008 26.014 3.008 25.730 C 3.008 25.447 3.120 25.190 3.301 25.004 C 3.482 24.818 3.732 24.703 4.008 24.703 Z " transform="matrix(1, 0, 0, 1, 10, 31.5)"/>
          <path id="Oval" fill="#F04650" stroke="none" stroke-width="1" d="M 2.280 18.372 C 2.556 18.372 2.806 18.487 2.987 18.673 C 3.168 18.859 3.280 19.116 3.280 19.399 C 3.280 19.683 3.168 19.940 2.987 20.126 C 2.806 20.312 2.556 20.427 2.280 20.427 C 2.004 20.427 1.754 20.312 1.573 20.126 C 1.392 19.940 1.280 19.683 1.280 19.399 C 1.280 19.116 1.392 18.859 1.573 18.673 C 1.754 18.487 2.004 18.372 2.280 18.372 Z " transform="matrix(1, 0, 0, 1, 10, 31.5)"/>
          <path id="Oval" fill="#F04650" stroke="none" stroke-width="1" d="M 32.202 24.943 C 32.478 24.943 32.728 25.059 32.909 25.245 C 33.090 25.431 33.202 25.688 33.202 25.971 C 33.202 26.255 33.090 26.512 32.909 26.698 C 32.728 26.884 32.478 26.999 32.202 26.999 C 31.926 26.999 31.676 26.884 31.495 26.698 C 31.314 26.512 31.202 26.255 31.202 25.971 C 31.202 25.688 31.314 25.431 31.495 25.245 C 31.676 25.059 31.926 24.943 32.202 24.943 Z " transform="matrix(1, 0, 0, 1, 10, 31.5)"/>
          <path id="Oval" fill="#F04650" stroke="none" stroke-width="1" d="M 49.526 34.121 C 49.802 34.121 50.052 34.236 50.233 34.422 C 50.414 34.608 50.526 34.865 50.526 35.149 C 50.526 35.432 50.414 35.689 50.233 35.875 C 50.052 36.061 49.802 36.176 49.526 36.176 C 49.250 36.176 49 36.061 48.819 35.875 C 48.638 35.689 48.526 35.432 48.526 35.149 C 48.526 34.865 48.638 34.608 48.819 34.422 C 49 34.236 49.250 34.121 49.526 34.121 Z " transform="matrix(1, 0, 0, 1, 10, 31.5)"/>
          <path id="Oval" fill="#F04650" stroke="none" stroke-width="1" d="M 38.078 29.627 C 38.359 29.627 38.614 29.739 38.798 29.920 C 38.983 30.101 39.097 30.351 39.097 30.627 C 39.097 30.903 38.983 31.153 38.798 31.334 C 38.614 31.515 38.359 31.627 38.078 31.627 C 37.797 31.627 37.542 31.515 37.358 31.334 C 37.173 31.153 37.059 30.903 37.059 30.627 C 37.059 30.351 37.173 30.101 37.358 29.920 C 37.542 29.739 37.797 29.627 38.078 29.627 Z " transform="matrix(0.36650121212005615, -0.9304175972938538, 0.9304175972938538, 0.36650121212005615, 5.6, 86.3)"/>
          <path id="Oval" fill="#F04650" stroke="none" stroke-width="1" d="M 41.258 18.372 C 41.534 18.372 41.784 18.487 41.965 18.673 C 42.146 18.859 42.258 19.116 42.258 19.399 C 42.258 19.683 42.146 19.940 41.965 20.126 C 41.784 20.312 41.534 20.427 41.258 20.427 C 40.982 20.427 40.732 20.312 40.551 20.126 C 40.370 19.940 40.258 19.683 40.258 19.399 C 40.258 19.116 40.370 18.859 40.551 18.673 C 40.732 18.487 40.982 18.372 41.258 18.372 Z " transform="matrix(1, 0, 0, 1, 10, 31.5)"/>
          <path id="Oval" fill="#F04650" stroke="none" stroke-width="1" d="M 28.835 33.735 C 29.110 33.735 29.360 33.851 29.541 34.037 C 29.723 34.223 29.835 34.480 29.835 34.763 C 29.835 35.047 29.723 35.304 29.541 35.490 C 29.360 35.676 29.110 35.791 28.835 35.791 C 28.559 35.791 28.309 35.676 28.128 35.490 C 27.947 35.304 27.835 35.047 27.835 34.763 C 27.835 34.480 27.947 34.223 28.128 34.037 C 28.309 33.851 28.559 33.735 28.835 33.735 Z " transform="matrix(1, 0, 0, 1, 10, 31.5)"/>
          <path id="Oval" fill="#F04650" stroke="none" stroke-width="1" d="M 48.550 20.419 C 48.826 20.419 49.076 20.534 49.257 20.720 C 49.438 20.906 49.550 21.163 49.550 21.447 C 49.550 21.730 49.438 21.987 49.257 22.173 C 49.076 22.359 48.826 22.474 48.550 22.474 C 48.274 22.474 48.024 22.359 47.843 22.173 C 47.662 21.987 47.550 21.730 47.550 21.447 C 47.550 21.163 47.662 20.906 47.843 20.720 C 48.024 20.534 48.274 20.419 48.550 20.419 Z " transform="matrix(1, 0, 0, 1, 10, 31.5)"/>
          <path id="Oval" fill="#F04650" stroke="none" stroke-width="1" d="M 49.796 42.816 C 50.072 42.816 50.322 42.932 50.503 43.118 C 50.684 43.304 50.796 43.561 50.796 43.844 C 50.796 44.128 50.684 44.385 50.503 44.571 C 50.322 44.757 50.072 44.872 49.796 44.872 C 49.520 44.872 49.270 44.757 49.089 44.571 C 48.908 44.385 48.796 44.128 48.796 43.844 C 48.796 43.561 48.908 43.304 49.089 43.118 C 49.270 42.932 49.520 42.816 49.796 42.816 Z " transform="matrix(1, 0, 0, 1, 10, 31.5)"/>
          <path id="Oval" fill="#F04650" stroke="none" stroke-width="1" d="M 41.481 37.212 C 41.757 37.212 42.007 37.327 42.188 37.513 C 42.369 37.699 42.481 37.956 42.481 38.240 C 42.481 38.523 42.369 38.780 42.188 38.966 C 42.007 39.152 41.757 39.268 41.481 39.268 C 41.205 39.268 40.955 39.152 40.774 38.966 C 40.593 38.780 40.481 38.523 40.481 38.240 C 40.481 37.956 40.593 37.699 40.774 37.513 C 40.955 37.327 41.205 37.212 41.481 37.212 Z " transform="matrix(1, 0, 0, 1, 10, 31.5)"/>
          <path id="Oval" fill="#F04650" stroke="none" stroke-width="1" d="M 16.590 21.627 C 16.866 21.627 17.116 21.743 17.297 21.929 C 17.478 22.115 17.590 22.372 17.590 22.655 C 17.590 22.939 17.478 23.196 17.297 23.382 C 17.116 23.568 16.866 23.683 16.590 23.683 C 16.314 23.683 16.064 23.568 15.883 23.382 C 15.702 23.196 15.590 22.939 15.590 22.655 C 15.590 22.372 15.702 22.115 15.883 21.929 C 16.064 21.743 16.314 21.627 16.590 21.627 Z " transform="matrix(1, 0, 0, 1, 10, 31.5)"/>
          <path id="Oval" fill="#F04650" stroke="none" stroke-width="1" d="M 9.640 20.210 C 9.916 20.210 10.166 20.325 10.347 20.511 C 10.528 20.697 10.640 20.954 10.640 21.238 C 10.640 21.522 10.528 21.778 10.347 21.964 C 10.166 22.151 9.916 22.266 9.640 22.266 C 9.364 22.266 9.114 22.151 8.933 21.964 C 8.752 21.778 8.640 21.522 8.640 21.238 C 8.640 20.954 8.752 20.697 8.933 20.511 C 9.114 20.325 9.364 20.210 9.640 20.210 Z " transform="matrix(1, 0, 0, 1, 10, 31.5)"/>
        </g>
      </g>
    </g>
  </g>
</svg>