<svg version="1.1" width="87" height="81" viewBox="-1 -1 87 81" xmlns="http://www.w3.org/2000/svg" xmlns:xlink="http://www.w3.org/1999/xlink">
  <!-- Exported by Scratch - http://scratch.mit.edu/ -->
  <g id="ID0.6624482236802578" transform="matrix(1, 0, 0, 1, -0.3, -0.15)">
    <g id="Page-1">
      <g id="dinosaur3-e-[animals,dinosaur,pteranodon,alex-eben-meyer]">
        <g id="Group-3">
          <path id="Shape" fill="#828278" stroke="none" stroke-width="1" d="M 35.787 28.932 L 16.745 28.932 C 18.952 31.392 22.616 36.514 22.630 36.535 C 22.828 36.791 26.050 38.920 28.958 52.292 C 31.867 65.663 22.209 71.570 21.991 71.702 C 23.386 71.786 26.823 71.771 29.528 70.415 C 30.723 69.814 32.300 67.771 32.604 67.359 C 33.500 66.171 34.142 64.764 34.814 63.450 C 36.235 60.662 36.704 57.275 37.125 54.208 C 37.999 47.743 37.929 41.184 36.916 34.740 C 36.591 32.764 36.208 30.833 35.787 28.932 Z " transform="matrix(1, 0, 0, 1, 48.55, 4.3)"/>
          <path id="Shape" fill="#64645A" stroke="none" stroke-width="1" d="M 20.460 34.511 L 35.787 28.932 C 34.759 24.381 33.325 19.932 31.505 15.639 C 30.176 12.556 28.994 9.624 27.235 6.740 C 26.435 5.429 23.329 -0.617 21.311 0.123 C 20.274 2.229 21.311 4.842 21.239 7.098 C 21.185 9.350 20.735 11.575 19.910 13.669 C 19.185 15.474 18.280 17.946 16.599 19.083 C 15.809 19.585 14.913 19.894 13.983 19.985 C 13.457 20.030 4.176 18.451 3.830 18.986 C 6.335 20.884 11.346 23.675 16.046 28.217 C 16.177 28.322 20.310 34.349 20.460 34.511 Z " transform="matrix(1, 0, 0, 1, 48.55, 4.3)"/>
          <path id="Shape" fill="#3C3C32" stroke="none" stroke-width="1" d="M 28.609 56.328 C 28.609 56.328 28.212 49.110 19.617 43.486 C 17.497 42.096 10.686 41.080 7.437 40.680 L 0.127 20.641 C 0.127 20.641 12.991 22.620 19.376 30.361 C 22.159 33.732 29.212 44.253 29.788 50.180 C 30.535 57.853 28.609 56.328 28.609 56.328 Z " transform="matrix(1, 0, 0, 1, 48.55, 4.3)"/>
        </g>
        <g id="Group-2">
          <path id="Shape" fill="#3C3C32" stroke="none" stroke-width="1" d="M 8.519 47.783 C 8.519 47.783 10.153 34.839 26.576 32.812 L 36.431 12.632 C 36.431 12.632 17.021 10.866 12.542 21.955 C 10.153 27.847 5.689 33.365 6.271 39.865 C 6.784 45.630 8.519 47.783 8.519 47.783 Z " transform="matrix(1, 0, 0, 1, 0.55, 12.3)"/>
          <path id="Shape" fill="#828278" stroke="none" stroke-width="1" d="M 12.001 33.910 C 12.828 30 15.131 25.086 17.645 20.932 L 0.648 20.932 C 0.282 23.983 0.103 27.053 0.110 30.126 C 0.110 35.320 0.764 40.409 1.535 45.534 C 1.848 47.615 2.592 56.382 6.142 61.011 C 7.716 63.062 10.308 63.717 12.915 63.949 C 12.957 63.859 10.825 58.668 10.407 56.093 C 9.490 50.478 10.033 43.188 12.001 33.910 Z " transform="matrix(1, 0, 0, 1, 0.55, 12.3)"/>
          <path id="Shape" fill="#64645A" stroke="none" stroke-width="1" d="M 14.306 28.259 C 15.462 26.376 20.177 17.032 21.288 15.651 C 24.591 11.555 27.108 10.731 27.075 10.608 C 27.075 10.577 17.767 14.298 15.316 13.474 C 13.106 12.731 12.404 11.035 11.500 9.080 C 11.649 7.762 11.183 6.153 11.231 4.749 C 11.279 3.344 11.389 1.931 10.860 0.538 C 8.454 -0.364 6.492 3.546 5.515 5.206 C 4.121 7.562 3.034 10.089 2.281 12.725 C 1.535 15.411 0.989 18.149 0.648 20.917 L 14.306 28.259 Z " transform="matrix(1, 0, 0, 1, 0.55, 12.3)"/>
        </g>
        <path id="Shape" fill="#C8C8BE" stroke="none" stroke-width="1" d="M 20.192 31.579 C 20.192 31.579 24.304 28.571 27.392 27.320 C 30.479 26.069 32.599 26.502 37.025 27.047 L 37.204 20.791 C 37.204 20.791 24.782 21.065 20.461 26.412 C 16.140 31.759 20.192 31.579 20.192 31.579 Z " transform="matrix(1, 0, 0, 1, 0.55, 0.3)"/>
        <path id="Shape" fill="#C8C8BE" stroke="none" stroke-width="1" d="M 65.545 36.463 C 65.545 36.463 61.789 30.283 49.790 27.792 L 47.318 20.150 C 47.318 20.150 53.386 21.771 57.187 24.165 C 60.988 26.559 62.613 30.944 62.613 30.944 L 65.545 36.463 Z " transform="matrix(1, 0, 0, 1, 0.55, 0.3)"/>
        <g id="Left-Foot">
          <path id="Shape" fill="#C8C8BE" stroke="none" stroke-width="1" d="M 12.952 23.797 C 12.439 21.391 9.748 3.451 9.748 3.451 C 9.748 3.451 1.961 1.689 0.835 0.970 C 0.772 1.271 4.717 12.368 6.075 15.352 C 7.434 18.335 8.957 21.283 10.435 24.248 C 9.901 24.462 9.396 24.224 8.852 24.329 C 8.894 24.486 8.924 24.603 8.954 24.717 C 10.017 24.880 12.197 24.958 13.155 24.444 C 13.081 24.191 12.997 23.989 12.952 23.797 Z " transform="matrix(1, 0, 0, 1, 22.55, 55.3)"/>
          <path id="Shape" fill="#C8C8BE" stroke="none" stroke-width="1" d="M 10.958 22.841 C 10.958 22.841 8.064 23.409 7.798 23.493 C 7.780 23.562 7.760 23.629 7.733 23.722 C 8.157 23.941 10.402 23.755 10.856 23.833 C 10.924 23.507 10.958 23.174 10.958 22.841 Z " transform="matrix(1, 0, 0, 1, 22.55, 55.3)"/>
          <path id="Shape" fill="#C8C8BE" stroke="none" stroke-width="1" d="M 11.860 21.734 C 11.860 21.734 8.655 22.486 8.390 22.570 C 8.369 22.636 8.318 22.898 8.318 22.898 C 8.318 22.898 11.304 22.648 11.755 22.726 C 11.825 22.400 11.860 22.067 11.860 21.734 Z " transform="matrix(1, 0, 0, 1, 22.55, 55.3)"/>
        </g>
        <g id="Right-foot">
          <path id="Shape" fill="#C8C8BE" stroke="none" stroke-width="1" d="M 8.991 0.871 C 8.808 0.982 3.003 1.171 0.671 1.472 C 0.656 1.890 1.119 24.365 1.528 24.675 C 2.860 24.537 4.335 24.588 5.634 24.308 C 5.285 23.638 4.419 24.137 3.843 23.908 C 5.861 18.795 6.865 13.511 7.919 8.143 C 7.892 7.737 9.050 1.268 8.991 0.871 Z " transform="matrix(1, 0, 0, 1, 50.55, 55.3)"/>
          <path id="Shape" fill="#C8C8BE" stroke="none" stroke-width="1" d="M 2.436 24.149 C 2.436 24.149 5.330 23.571 5.592 23.484 C 5.613 23.418 5.631 23.352 5.658 23.259 C 5.234 23.039 3.174 22.973 2.720 22.898 C 2.603 23.309 2.509 23.727 2.436 24.149 Z " transform="matrix(1, 0, 0, 1, 50.55, 55.3)"/>
          <path id="Shape" fill="#C8C8BE" stroke="none" stroke-width="1" d="M 2.257 22.735 C 2.257 22.735 5.204 22.802 5.482 22.774 C 5.515 22.714 5.548 22.654 5.592 22.567 C 5.225 22.266 2.992 21.965 2.567 21.791 C 2.430 22.093 2.326 22.410 2.257 22.735 Z " transform="matrix(1, 0, 0, 1, 50.55, 55.3)"/>
        </g>
        <g id="Group">
          <path id="Shape" fill="#64645A" stroke="none" stroke-width="1" d="M 30.560 2.947 C 25.698 2.731 3.500 3.059 3.500 3.059 C 3.500 3.059 3.882 3.934 6.805 4.562 C 13.115 5.880 24.680 7.462 31.064 7.417 L 30.560 2.947 Z " transform="matrix(1, 0, 0, 1, 8.55, 0.3)"/>
          <path id="Shape" fill="#828278" stroke="none" stroke-width="1" d="M 47.972 0.084 C 41.641 0.277 4.395 0.144 0.555 1.251 C 0.452 1.566 0.472 1.910 0.612 2.211 C 0.818 2.430 1.771 3.113 2.057 3.155 C 6.268 3.675 25.594 3.008 26.788 4.698 C 27.532 5.750 28.914 8.307 29.225 10.713 C 29.303 11.496 29.247 12.288 29.061 13.053 C 28.932 13.582 13.533 56.442 13.533 56.442 C 13.533 56.442 19.804 62.959 20.912 63.699 C 24.985 66.473 29.820 67.889 34.734 67.747 C 39.646 67.663 45.574 64.415 49.178 60.932 C 50.919 59.251 52.430 55.892 52.430 55.892 C 52.430 55.892 40.163 19.311 39.846 13.305 C 39.667 9.907 41.098 6.866 44.287 4.809 C 46.732 3.233 50.817 2.268 52.349 1.979 C 54.649 1.546 58.516 1.050 58.713 0.517 C 55.149 0.096 51.558 -0.049 47.972 0.084 Z " transform="matrix(1, 0, 0, 1, 8.55, 0.3)"/>
          <path id="Shape" fill="#000000" stroke="none" stroke-width="1" d="M 33.668 4.701 C 33.946 4.370 34.236 4.217 34.612 4.400 C 35.066 5.137 34.970 5.702 34.271 6.307 C 33.731 5.949 33.600 5.341 33.668 4.701 Z " transform="matrix(1, 0, 0, 1, 8.55, 0.3)"/>
          <path id="Shape" fill="#000000" stroke="none" stroke-width="1" d="M 4.419 1.783 C 4.617 1.612 4.889 1.558 5.136 1.642 C 5.479 1.997 5.408 2.271 4.876 2.562 C 4.544 2.465 4.344 2.124 4.419 1.783 Z " transform="matrix(1, 0, 0, 1, 8.55, 0.3)"/>
          <path id="Shape" fill="#000000" stroke="none" stroke-width="1" d="M 2.153 1.823 C 2.350 1.651 2.623 1.598 2.869 1.681 C 3.216 2.036 3.141 2.310 2.613 2.602 C 2.281 2.502 2.081 2.163 2.153 1.823 Z " transform="matrix(1, 0, 0, 1, 8.55, 0.3)"/>
        </g>
        <path id="Shape" fill="#C8C8BE" stroke="none" stroke-width="1" d="M 69.278 35.239 C 65.372 30.274 62.150 26.238 53.959 22.520 C 54.470 23.585 53.248 24.650 54.231 27.507 C 54.712 28.905 60.266 30.568 63.320 34.307 C 65.742 37.269 68.746 41.895 69.355 42.893 C 70.834 45.317 72.210 47.681 73.154 50.367 C 74.692 54.758 78.114 66.232 72.682 68.758 C 67.752 71.050 64.022 60.680 61.804 57.630 C 61.227 55.567 59.519 53.420 58.295 51.690 C 56.744 49.476 55.043 47.373 53.204 45.395 C 51.470 43.466 49.585 41.681 47.566 40.057 C 45.971 38.818 43.514 36.493 41.319 37.732 C 41.731 38.656 43.517 38.135 43.741 39.311 C 43.042 40.466 41.871 39.086 41.077 39.946 C 41.832 40.391 43.197 40.505 43.654 41.356 C 43.221 41.693 41.564 41.609 41.588 42.259 C 43.296 43.627 45.795 43.943 47.652 45.191 C 49.307 46.301 50.558 47.756 51.767 49.329 C 54.332 52.668 56.094 56.755 57.895 60.550 C 59.773 64.505 61.514 68.854 64.073 72.421 C 65.182 74.024 66.835 75.163 68.719 75.624 C 70.633 76.135 74.707 75.832 78.803 70.484 C 81.192 67.359 79.887 56.349 76.645 47.817 C 74.321 41.729 70.018 36.195 69.278 35.239 Z " transform="matrix(1, 0, 0, 1, 0.55, 0.3)"/>
        <path id="Shape" fill="#C8C8BE" stroke="none" stroke-width="1" d="M 29.464 23.516 C 29.273 24.418 26.158 26.523 22.712 30.226 C 21.297 31.729 19.568 34.135 17.582 38.024 C 15.695 41.717 13.521 46.914 13.118 48.608 C 12.246 52.259 11.398 56.045 11.201 59.802 C 11.078 62.114 10.475 67.835 13.252 69.038 C 16.095 70.274 17.606 64.177 18.170 62.388 C 19.189 59.028 20.487 55.762 22.052 52.623 C 23.805 49.203 26.024 45.615 28.544 42.716 C 29.701 41.350 31.103 40.215 32.677 39.371 C 33.797 38.800 36.798 37.026 37.995 37.952 C 38.061 38.553 36.855 38.635 36.502 38.719 C 36.201 38.882 35.977 39.161 35.881 39.492 L 36.024 39.841 C 36.577 40.174 37.753 39.687 38.377 39.705 L 38.458 40.006 C 37.861 40.529 36.980 40.478 36.350 41.059 C 35.860 41.789 35.848 42.021 36.371 42.523 C 36.935 42.268 37.494 42.006 38.049 41.732 C 38.398 41.805 38.715 41.817 38.963 42.060 C 39.025 43.077 36.657 43.982 35.911 44.379 C 34.293 45.186 32.805 46.232 31.495 47.483 C 29.482 49.471 27.418 51.411 25.839 53.798 C 24.167 56.325 22.700 58.911 21.831 61.850 C 20.962 64.788 20.485 67.997 19.308 70.854 C 18.311 73.260 16.663 75.522 13.933 75.949 C 10.350 76.508 8.764 72.505 8.098 69.669 C 7.280 66.183 6.979 59.098 8.301 51.753 C 9.278 46.340 11.685 40.211 12.613 38.183 C 15.035 32.896 18.929 28.102 20.479 26.409 C 22.438 24.259 29.545 23.131 29.464 23.516 Z " transform="matrix(1, 0, 0, 1, 0.55, 0.3)"/>
      </g>
    </g>
  </g>
</svg>