<svg width="80px" height="160px" viewBox="0 0 80 160" version="1.1" xml:space="preserve" xmlns="http://www.w3.org/2000/svg" xmlns:xlink="http://www.w3.org/1999/xlink">
  <!-- Generator: Sketch 49.3 (51167) - http://www.bohemiancoding.com/sketch -->
  <defs/>
  <g>
    <title>brownie-b</title>
    <desc>Created with Sketch.</desc>
    <g id="brownie-b" stroke="none" stroke-width="1" fill="none" fill-rule="evenodd">
      <g id="Brownie-Happy" transform="translate(40.000000, 81.000000) scale(-1, 1) translate(-40.000000, -81.000000) translate(4.000000, 6.000000)" fill-rule="nonzero">
        <g id="Group" transform="translate(0.000000, 49.000000)">
          <g transform="translate(15.000000, 0.000000)" id="Shape">
            <path d="M5.2,8.8 C6.9,5.2 13.7,-1.3 17.1,1 C20.5,3.3 20.6,6.9 16.3,13.7 C14.2,17 12.1,19.6 10.2,21.3 C9.6,21.9 9.3,23.1 8.7,23.5 C6.8,24.7 4.7,24.2 3.3,23.3 C1.4,22 3.13638004e-15,20.4 0.2,18.5 C0.4,15.8 1.8,15.9 5.2,8.8 Z" fill="#D1C1B4"/>
            <path d="M19.5,4 C19.5,4 19.5,4.1 19.5,4.3 C19.5,4.5 19.5,4.8 19.5,5.1 C19.5,5.8 19.5,6.8 19.3,8 C19.1,9.2 18.6,10.5 17.9,11.8 C17.2,13.1 16.3,14.4 15.4,15.7 C14.4,17 13.5,18.2 12.5,19.3 C12,19.9 11.5,20.4 11,20.8 C10.7,21 10.5,21.2 10.3,21.5 C10.1,21.7 10,22 9.8,22.3 C9.5,22.8 9.1,23.3 8.8,23.6 C8.4,23.9 8,24.1 7.6,24.1 C7.2,24.1 7,24.1 6.8,24.1 C6.6,24.1 6.5,24 6.5,24 C6.5,24 6.6,24 6.8,24 C7,24 7.3,24 7.6,24 C7.9,23.9 8.3,23.7 8.6,23.4 C8.9,23.1 9.2,22.6 9.5,22.1 C9.6,21.8 9.8,21.6 10,21.3 C10.2,21 10.4,20.8 10.7,20.5 C11.2,20 11.6,19.5 12.1,18.9 C13,17.8 14,16.5 14.9,15.3 C15.8,14.1 16.7,12.8 17.4,11.5 C18.1,10.2 18.6,9 18.9,7.9 C19.2,6.8 19.3,5.8 19.4,5.1 C19.5,4.4 19.5,4 19.5,4 Z" fill="#9E8B7B"/>
            <path d="M0.6,20.4 C0.6,20.4 0.4,20.2 0.3,19.8 C0.1,19.4 -2.615963e-15,18.7 0.1,18 C0.1,17.6 0.2,17.2 0.4,16.8 C0.6,16.4 0.8,16 1,15.6 C1.5,14.8 2.1,14 2.6,13.1 C3.1,12.3 3.6,11.4 4.1,10.6 C4.6,9.8 5,9.1 5.4,8.4 C5.8,7.8 6.1,7.2 6.4,6.9 C6.7,6.5 6.8,6.4 6.8,6.4 C6.8,6.4 6.7,6.6 6.5,7 C6.3,7.4 6,8 5.7,8.6 C5.4,9.3 5,10.1 4.5,10.9 C4.1,11.7 3.6,12.6 3,13.5 C2.7,13.9 2.5,14.3 2.2,14.8 C1.9,15.2 1.6,15.6 1.4,16 C1.1,16.4 0.9,16.7 0.7,17.1 C0.5,17.5 0.4,17.8 0.3,18.2 C0.2,18.9 0.2,19.5 0.3,19.9 C0.5,20.1 0.6,20.4 0.6,20.4 Z" fill="#9E8B7B"/>
          </g>
          <g id="Shape">
            <path d="M10.8,9.5 C10.8,9.5 11.8,7 10.5,4 C9.7,2 9.6,-1.34614542e-15 9,0.3 C7.7,1 9.2,4.1 9.2,4.1 C9.2,4.1 7.2,2 6.5,1.4 C5.8,0.8 4.3,-0.2 3.9,0.1 C3.1,0.6 4,1.3 5.4,2.6 C5.4,2.6 4.1,1.7 3.2,1.5 C2.4,1.4 1.6,1.9 2.2,2.7 C2.2,2.7 0.7,2.3 1.3,4.2 C1.3,4.2 -0.2,4.8 3,7.1 C4.5,8.1 7,15.5 10.8,9.5 Z" fill="#A2B04A"/>
            <path d="M1.3,4.1 C1.3,4.1 1.6,4.1 2.1,4.2 C2.5,4.3 3.1,4.6 3.6,5 C4.1,5.4 4.5,5.8 4.8,6.2 C5.1,6.6 5.2,6.8 5.2,6.8 C5.2,6.8 4.9,6.7 4.6,6.4 C4.2,6.2 3.8,5.8 3.3,5.5 C2.8,5.2 2.4,4.8 2.1,4.6 C1.6,4.3 1.3,4.1 1.3,4.1 Z" fill="#698237"/>
            <path d="M2.1,2.4 C2.1,2.4 2.4,2.4 2.9,2.5 C3.4,2.6 4,2.9 4.5,3.3 C5,3.7 5.4,4.2 5.7,4.6 C5.9,5.1 6,5.4 6,5.4 C6,5.4 5.9,5.4 5.8,5.3 C5.7,5.2 5.5,5.1 5.3,5 C4.9,4.7 4.5,4.3 4,4 C3.5,3.6 3,3.3 2.7,3 C2.3,2.6 2.1,2.4 2.1,2.4 Z" fill="#698237"/>
            <path d="M4.4,1.8 C4.4,1.8 4.7,1.8 5,2 C5.3,2.1 5.8,2.4 6.2,2.7 C6.6,3 6.9,3.4 7.1,3.7 C7.3,4 7.3,4.3 7.3,4.3 C7.3,4.3 7.2,4.3 7.2,4.2 C7.1,4.1 7,4.1 6.8,4 C6.5,3.8 6.1,3.5 5.8,3.2 C5.4,2.9 5.1,2.6 4.8,2.3 C4.6,2 4.4,1.8 4.4,1.8 Z" fill="#698237"/>
            <path d="M11,8.6 C11,8.6 11.1,8.3 11,7.9 C11,7.5 10.9,6.9 10.8,6.4 C10.7,5.8 10.6,5.3 10.6,4.8 C10.6,4.4 10.6,4.1 10.6,4.1 C10.6,4.1 10.8,4.3 11,4.7 C11.2,5.1 11.4,5.7 11.5,6.3 C11.6,6.9 11.6,7.5 11.5,8 C11.3,8.4 11,8.6 11,8.6 Z" fill="#698237"/>
            <path d="M9.2,4.2 C9.2,4.2 9.1,4.5 9,4.8 C8.9,5.2 8.8,5.6 8.7,6.1 C8.6,6.6 8.6,7.1 8.5,7.4 C8.5,7.6 8.5,7.8 8.5,7.9 C8.5,8 8.5,8.1 8.5,8.1 C8.5,8.1 8.3,7.9 8.2,7.5 C8,7.3 8,7.1 8,6.8 C8,6.5 8,6.3 8,6 C8.1,5.4 8.4,4.9 8.6,4.6 C8.9,4.3 9.2,4.2 9.2,4.2 Z" fill="#698237"/>
          </g>
          <g transform="translate(7.000000, 8.000000)" id="Shape">
            <path d="M15.9,15.8 C16.8,14.6 16.6,12.3 15.4,10.1 C15,9.3 13.8,8.7 13.5,7.7 C12.4,3.7 7.4,1.9 5.9,1.5 C3,0.7 -0.1,5.8 2.9,9.6 C3.8,10.7 6.2,13.7 7.6,15.7 C9.7,18.9 13.3,19.3 15.9,15.8 Z" fill="#D1C1B4"/>
            <path d="M6,2.6 L4.4,0.2 C4.4,0.2 1.3,1.9 0.6,4.2 L2.7,6.7" fill="#D1C1B4"/>
            <path d="M2.5,3.9 C2.5,3.9 2.4,4.1 2.2,4.4 C2,4.7 1.8,5.2 1.8,5.8 C1.8,6.4 1.9,7.1 2.3,7.8 C2.5,8.1 2.7,8.5 2.9,8.9 C3.1,9.2 3.4,9.6 3.6,9.9 C4.6,11.3 5.7,12.6 6.4,13.7 C6.8,14.2 7.1,14.7 7.2,15.1 C7.4,15.4 7.5,15.6 7.5,15.6 C7.5,15.6 7.1,15 6.2,14 C5.3,13 4.2,11.7 3.1,10.3 C2.8,9.9 2.6,9.6 2.4,9.2 C2.2,8.8 2,8.5 1.8,8.1 C1.5,7.3 1.3,6.5 1.5,5.8 C1.6,5.1 2,4.6 2.2,4.3 C2.4,4 2.5,3.9 2.5,3.9 Z" fill="#9E8B7B"/>
            <path d="M14.8,9.4 C14.8,9.4 14.6,9.3 14.3,9.1 C14,8.9 13.5,8.5 13.3,7.7 C13.2,7.4 13.1,7.1 12.9,6.8 C12.7,6.5 12.5,6.2 12.2,5.8 C11.7,5.2 11.1,4.5 10.4,4 C10.1,3.7 9.7,3.5 9.3,3.3 C8.9,3.1 8.5,2.8 8.2,2.6 C7.5,2.1 6.8,1.7 6.2,1.6 C5.6,1.4 5,1.6 4.7,1.8 C4.4,2 4.2,2.2 4.2,2.2 C4.2,2.2 4.2,2.2 4.3,2.1 C4.4,2 4.4,1.9 4.6,1.7 C4.9,1.4 5.5,1.1 6.2,1.2 C6.9,1.3 7.7,1.7 8.4,2.1 C8.8,2.3 9.1,2.5 9.5,2.7 C9.9,2.9 10.3,3.1 10.7,3.4 C11.4,4 12.1,4.6 12.6,5.3 C12.9,5.6 13.1,6 13.3,6.4 C13.5,6.7 13.6,7.1 13.7,7.5 C13.8,8.1 14.1,8.6 14.4,8.8 C14.7,9.2 14.8,9.4 14.8,9.4 Z" fill="#9E8B7B"/>
          </g>
        </g>
        <g id="Group" transform="translate(21.000000, 82.000000)">
          <g transform="translate(0.000000, 30.000000)" id="Shape">
            <g transform="translate(7.000000, 0.000000)">
              <path d="M2.3,0.7 C-0.4,1.6 1.7,15.4 2.1,17.6 C2.5,19.9 9.9,22.1 10.4,14.4 C10.9,6.7 11.1,-2.4 2.3,0.7 Z" fill="#A2B04A"/>
              <path d="M9.7,3.2 C9.7,3.2 9.9,3.4 10,3.8 C10.2,4.2 10.4,4.7 10.5,5.4 C10.7,6.1 10.8,6.9 10.8,7.8 C10.8,8.7 10.8,9.6 10.8,10.6 C10.7,11.5 10.7,12.5 10.6,13.4 C10.5,14.3 10.3,15.1 10.2,15.8 C10.1,16.5 9.9,17.1 9.8,17.5 C9.7,17.9 9.6,18.1 9.6,18.1 C9.6,18.1 9.6,17.2 9.7,15.8 C9.8,14.4 10,12.5 10,10.7 C10.1,9.8 10.1,8.8 10.1,8 C10.1,7.6 10.1,7.1 10.1,6.7 C10.1,6.3 10.1,5.9 10,5.6 C9.9,4.9 9.8,4.3 9.7,3.9 C9.8,3.4 9.7,3.2 9.7,3.2 Z" fill="#778C3A"/>
            </g>
            <path d="M0.8,31.9 L0.9,32.8 C0.9,32.8 5,34.2 8.1,33.5 C11.2,32.8 12.7,32.3 13.5,32.3 L13.6,32.7 C13.6,32.7 16.1,32.7 17.6,31.8 L17.7,29 C16.9,28.8 4.2,25.7 0.8,31.9 Z" fill="#17110B"/>
            <path d="M8.7,15 C8.7,15 11.7,17.6 17.5,14.9 C17.5,14.9 17.3,24.6 17.3,26.4 C17.3,28.2 19.1,30.5 14.8,31 C10.5,31.5 12.1,32.3 7.6,32.5 C3.1,32.7 0.8,31.9 0.8,31.9 C0.8,31.9 0.5,29.3 2.4,28.3 C4.3,27.3 6.4,27.2 8,25.2 C9.5,23.3 8.7,15 8.7,15 Z" fill="#4F3B26"/>
            <path d="M0.8,31.9 C0.8,31.9 0.7,31.6 0.7,31 C0.7,30.7 0.7,30.4 0.8,29.9 C0.9,29.5 1.1,29 1.5,28.7 C1.9,28.3 2.4,28.1 3,27.9 C3.5,27.7 4.1,27.5 4.7,27.3 C5.8,26.9 7,26.3 7.7,25.3 C8.1,24.8 8.2,24.2 8.3,23.6 C8.4,23 8.4,22.3 8.5,21.7 C8.6,20.5 8.6,19.3 8.7,18.3 C8.8,16.3 8.8,15 8.8,15 C8.8,15 8.9,16.3 9,18.3 C9,19.3 9,20.4 9,21.7 C9,22.3 8.9,23 8.8,23.6 C8.7,24.2 8.5,25 8.1,25.6 C7.7,26.2 7.2,26.7 6.6,27 C6,27.3 5.4,27.6 4.8,27.8 C4.2,28 3.6,28.2 3.1,28.3 C2.6,28.5 2.1,28.6 1.7,28.9 C1.4,29.2 1.2,29.6 1,30 C0.9,30.4 0.8,30.7 0.8,31 C0.7,31.6 0.8,31.9 0.8,31.9 Z" fill="#1F180E"/>
            <path d="M9.4,15.4 C9.4,15.4 9.5,15.4 9.7,15.5 C9.9,15.6 10.2,15.6 10.5,15.7 C10.8,15.8 11.3,15.8 11.7,15.8 C12.1,15.8 12.6,15.8 13.1,15.8 C13.6,15.8 14,15.7 14.5,15.7 C14.9,15.6 15.3,15.6 15.7,15.5 C16.1,15.4 16.3,15.4 16.5,15.3 C16.7,15.3 16.8,15.2 16.8,15.2 C16.8,15.2 16.7,15.3 16.5,15.4 C16.3,15.5 16,15.7 15.7,15.8 C15.4,15.9 15,16.1 14.5,16.2 C14.1,16.3 13.6,16.4 13.1,16.4 C12.6,16.4 12.1,16.4 11.7,16.3 C11.2,16.2 10.8,16.1 10.5,16 C9.8,15.7 9.4,15.4 9.4,15.4 Z" fill="#1F180E"/>
            <path d="M17.4,16.2 C17.4,16.2 17.5,17.2 17.5,18.8 C17.5,19.6 17.5,20.5 17.5,21.5 C17.5,22.5 17.5,23.5 17.5,24.6 C17.5,25.1 17.5,25.6 17.5,26.1 C17.5,26.6 17.6,27.1 17.7,27.6 C17.8,28.1 17.8,28.6 17.8,29.1 C17.8,29.6 17.6,30 17.2,30.3 C16.9,30.6 16.5,30.8 16.2,30.8 C15.9,30.9 15.6,30.9 15.4,31 C14.9,31 14.7,31 14.7,31 C14.7,31 15,31 15.4,30.9 C15.6,30.8 15.9,30.8 16.2,30.6 C16.5,30.5 16.8,30.3 17,30 C17.2,29.7 17.4,29.4 17.4,28.9 C17.4,28.5 17.3,28 17.2,27.6 C17.1,27.1 17,26.6 17,26.1 C17,25.6 17,25.1 17,24.5 C17,23.5 17,22.4 17.1,21.4 C17.1,20.4 17.2,19.5 17.2,18.7 C17.3,17.3 17.4,16.2 17.4,16.2 Z" fill="#1F180E"/>
            <path d="M5,27.5 C5,27.5 5.2,27.5 5.5,27.6 C5.8,27.7 6.1,27.9 6.4,28.1 C6.7,28.3 6.9,28.6 7.1,28.9 C7.2,29.1 7.3,29.3 7.3,29.3 C7.3,29.3 7.1,29.2 6.9,29.1 C6.8,29 6.6,29 6.5,28.9 C6.4,28.8 6.2,28.7 6.1,28.6 C5.8,28.4 5.6,28.1 5.4,27.9 C5.1,27.7 5,27.5 5,27.5 Z" fill="#1F180E"/>
            <path d="M7.9,25.3 C7.9,25.3 8.1,25.2 8.3,25.2 C8.6,25.2 8.9,25.2 9.2,25.3 C9.4,25.4 9.5,25.4 9.6,25.5 C9.7,25.6 9.8,25.7 9.9,25.8 C10.1,26 10.1,26.2 10.1,26.2 C10.1,26.2 9.4,26.1 8.9,25.9 C8.8,25.8 8.6,25.8 8.5,25.8 C8.4,25.8 8.2,25.7 8.1,25.6 C8.1,25.4 7.9,25.3 7.9,25.3 Z" fill="#1F180E"/>
            <path d="M8.7,21.8 C8.7,21.8 8.9,21.8 9.2,21.8 C9.5,21.8 9.8,21.8 10.2,21.8 C10.9,21.8 11.6,21.9 11.6,21.9 C11.6,21.9 11.4,22 11.2,22.2 C10.9,22.3 10.6,22.4 10.2,22.4 C10,22.4 9.8,22.4 9.6,22.3 C9.4,22.3 9.3,22.2 9.1,22.1 C8.8,22 8.7,21.8 8.7,21.8 Z" fill="#1F180E"/>
            <path d="M8.8,17.8 C8.8,17.8 9,17.8 9.3,17.8 C9.4,17.8 9.6,17.8 9.7,17.8 C9.9,17.8 10,17.8 10.2,17.9 C10.5,17.9 10.9,18 11.1,18 C11.2,18 11.3,18 11.4,18 C11.5,18 11.5,18 11.5,18 C11.5,18 11.4,18.2 11.1,18.3 C11,18.4 10.8,18.4 10.6,18.4 C10.4,18.4 10.2,18.4 10,18.4 C9.6,18.4 9.3,18.2 9,18 C8.9,17.9 8.8,17.8 8.8,17.8 Z" fill="#1F180E"/>
            <path d="M13.6,31 C13.6,31 13.5,30.6 13.5,30 C13.5,29.7 13.6,29.3 13.7,28.9 C13.8,28.5 14,28.1 14.3,27.8 C14.4,27.6 14.6,27.5 14.7,27.3 C14.8,27.1 15,27 15.2,26.9 C15.4,26.8 15.6,26.7 15.7,26.6 C15.9,26.5 16,26.5 16.2,26.4 C16.5,26.3 16.8,26.3 17,26.3 C17.2,26.3 17.3,26.3 17.3,26.3 C17.3,26.3 16.9,26.4 16.4,26.7 C16.3,26.8 16.1,26.8 16,26.9 C15.9,27 15.7,27.1 15.6,27.2 C15.3,27.4 15,27.7 14.8,28 C14.6,28.3 14.4,28.6 14.2,28.9 C14,29.2 13.9,29.5 13.8,29.8 C13.6,30.6 13.6,31 13.6,31 Z" fill="#1F180E"/>
          </g>
          <g transform="translate(2.000000, 0.000000)" id="Shape">
            <g transform="translate(4.000000, 13.000000)">
              <path d="M0.2,8.4 C0.8,13.1 0.8,22.4 4.3,22.3 C12.6,22.2 13.8,9.8 11.1,3.8 C8.5,-2.2 -0.8,-0.5 0.2,8.4 Z" fill="#A2B04A"/>
              <path d="M12.7,10.4 C12.7,10.4 12.8,10.9 12.7,11.7 C12.7,12.5 12.6,13.5 12.3,14.6 C12.1,15.6 11.7,16.6 11.3,17.3 C11.2,17.5 11.1,17.6 11,17.8 C10.9,17.9 10.8,18 10.7,18.1 C10.5,18.3 10.5,18.4 10.5,18.4 C10.5,18.4 10.5,18.3 10.6,18.1 C10.7,18 10.7,17.9 10.8,17.7 C10.8,17.5 10.9,17.4 11,17.2 C11.2,16.5 11.5,15.5 11.7,14.5 C11.9,13.5 12.2,12.5 12.3,11.7 C12.6,10.9 12.7,10.4 12.7,10.4 Z" fill="#778C3A"/>
              <path d="M0.4,9.7 C0.4,9.7 0.5,10.4 0.7,11.4 C0.9,12.4 1,13.8 1.2,15.2 C1.3,15.9 1.4,16.6 1.5,17.2 C1.6,17.8 1.7,18.4 1.8,18.9 C1.9,19.4 2,19.8 2.1,20.1 C2.2,20.4 2.3,20.5 2.3,20.5 C2.3,20.5 2.2,20.4 2,20.1 C1.8,19.8 1.6,19.4 1.4,18.9 C1,17.9 0.8,16.5 0.6,15.2 C0.4,13.8 0.4,12.4 0.4,11.4 C0.3,10.4 0.4,9.7 0.4,9.7 Z" fill="#778C3A"/>
            </g>
            <g>
              <path d="M0.5,25 C-0.3,14 1.1,2.7 6.3,1 C17.1,-2.4 20.1,6.9 20.7,24.4 C15.3,26.2 6.1,26.5 0.5,25 Z" fill="#4F3B26"/>
              <path d="M0.5,25 C0.5,25 1.8,25.2 3.7,25.4 C4.6,25.5 5.8,25.5 6.9,25.6 C8.1,25.7 9.4,25.7 10.6,25.6 C11.2,25.6 11.9,25.5 12.5,25.5 C13.1,25.5 13.7,25.4 14.3,25.3 C14.9,25.2 15.5,25.2 16,25.1 C16.5,25 17.1,25 17.5,24.9 C18.4,24.8 19.2,24.6 19.8,24.5 C20.4,24.4 20.7,24.3 20.7,24.3 C20.7,24.3 20.4,24.4 19.9,24.6 C19.4,24.8 18.6,25 17.7,25.2 C17.2,25.3 16.7,25.4 16.2,25.5 C15.7,25.6 15.1,25.7 14.5,25.8 C13.9,25.9 13.3,26 12.7,26 C12.1,26 11.4,26.1 10.8,26.1 C9.5,26.1 8.2,26.1 7,26 C5.8,25.9 4.7,25.8 3.7,25.6 C1.7,25.4 0.5,25 0.5,25 Z" fill="#1F180E"/>
              <path d="M0.5,22.1 C0.5,22.1 1.7,22.4 3.6,22.6 C4.5,22.7 5.6,22.8 6.8,22.9 C8,23 9.2,23 10.5,22.9 C11.1,22.9 11.8,22.8 12.4,22.8 C13,22.8 13.6,22.7 14.2,22.6 C14.8,22.5 15.3,22.4 15.9,22.4 C16.4,22.3 16.9,22.2 17.4,22.1 C17.9,22 18.3,21.9 18.7,21.9 C19.1,21.8 19.4,21.7 19.7,21.7 C20.2,21.6 20.6,21.5 20.6,21.5 C20.6,21.5 20.3,21.6 19.8,21.8 C19.3,22 18.5,22.3 17.6,22.5 C17.1,22.6 16.6,22.8 16.1,22.9 C15.6,23 15,23.1 14.4,23.2 C13.8,23.3 13.2,23.4 12.6,23.4 C12,23.4 11.3,23.5 10.7,23.5 C9.4,23.5 8.1,23.5 6.9,23.4 C6.3,23.4 5.7,23.3 5.2,23.2 C4.7,23.1 4.1,23 3.7,22.9 C1.7,22.6 0.5,22.1 0.5,22.1 Z" fill="#1F180E"/>
              <path d="M18.8,8.3 C18.8,8.3 19.1,9.2 19.4,10.5 C19.7,11.9 20.1,13.7 20.4,15.5 C20.7,17.3 20.8,19.2 20.8,20.6 C20.8,22 20.7,22.9 20.7,22.9 C20.7,22.9 20.6,22 20.4,20.6 C20.2,19.2 20,17.4 19.7,15.6 C19.4,13.8 19.2,11.9 19,10.6 C18.9,9.2 18.8,8.3 18.8,8.3 Z" fill="#25592D"/>
              <path d="M0.5,24 C0.5,24 0.4,23.4 0.3,22.6 C0.2,21.7 0.1,20.6 0.2,19.5 C0.2,18.9 0.2,18.4 0.3,17.8 C0.3,17.3 0.4,16.8 0.5,16.3 C0.7,15.4 0.9,14.9 0.9,14.9 C0.9,14.9 0.8,15.5 0.8,16.3 C0.8,17.1 0.8,18.3 0.8,19.4 C0.8,20 0.8,20.5 0.8,21.1 C0.8,21.6 0.7,22.1 0.7,22.6 C0.6,23.4 0.5,24 0.5,24 Z" fill="#1F180E"/>
            </g>
          </g>
        </g>
        <g id="Group" transform="translate(24.000000, 46.000000)">
          <g transform="translate(0.000000, 26.000000)" id="Shape">
            <path d="M3.9,4.5 C1.7,8.2 -1.3,17 1.6,21.6 C7.3,30.8 32.2,31.7 34.8,21.2 C37.3,10.6 31.4,3.4 31.4,3.4 C31.4,3.4 8.6,-3.6 3.9,4.5 Z" fill="#4F3B26"/>
            <path d="M6.6,25.8 C6.6,25.8 7.5,26.2 8.9,26.6 C9.6,26.8 10.4,27.1 11.3,27.3 C12.2,27.5 13.1,27.8 14.1,27.9 C15.1,28.1 16,28.3 17,28.4 C17.9,28.5 18.8,28.6 19.5,28.6 C20.2,28.6 20.9,28.7 21.3,28.7 C21.7,28.7 22,28.7 22,28.7 C22,28.7 21.8,28.7 21.3,28.8 C20.9,28.9 20.2,28.9 19.5,29 C19.1,29 18.7,29 18.3,29 C17.9,29 17.4,29 16.9,28.9 C16,28.8 15,28.7 14,28.5 C13,28.3 12.1,28 11.2,27.8 C10.3,27.5 9.5,27.2 8.8,26.9 C8.1,26.6 7.6,26.3 7.2,26.1 C6.8,25.9 6.6,25.8 6.6,25.8 Z" fill="#1F180E"/>
            <path d="M1.9,9.3 C1.9,9.3 2.4,9.6 3.2,9.9 C4,10.3 5.3,10.7 6.8,11.1 C8.3,11.5 10.1,11.9 12.1,12.2 C14,12.5 16.1,12.8 18.2,12.8 C20.3,12.9 22.4,12.8 24.3,12.5 C25.3,12.4 26.2,12.1 27.1,11.9 C28,11.6 28.8,11.4 29.5,11 C30.2,10.7 30.8,10.3 31.4,10 C31.7,9.8 31.9,9.6 32.1,9.5 C32.3,9.3 32.5,9.2 32.7,9 C33.1,8.7 33.3,8.4 33.5,8.2 C33.7,8 33.8,7.9 33.8,7.9 C33.8,7.9 33.7,8 33.6,8.2 C33.4,8.4 33.2,8.7 32.9,9 C32.7,9.2 32.6,9.3 32.4,9.5 C32.2,9.7 31.9,9.9 31.7,10.1 C31.2,10.5 30.6,10.9 29.9,11.3 C29.2,11.7 28.4,12 27.5,12.3 C26.6,12.6 25.7,12.8 24.7,13 C22.7,13.3 20.6,13.4 18.5,13.4 C16.4,13.3 14.3,13 12.3,12.7 C10.3,12.3 8.6,11.8 7,11.4 C5.5,10.9 4.3,10.4 3.4,10 C2.3,9.6 1.9,9.3 1.9,9.3 Z" fill="#1F180E"/>
          </g>
          <g transform="translate(2.000000, 0.000000)" id="Shape">
            <path d="M2.4,16.2 C2.2,22.8 -1.4,27.6 0.7,31.8 C2.8,36 24,39.2 30.1,32.8 C36.2,26.4 32.4,7.9 28.7,4.2 C23.9,-0.6 3,-2.6 2.4,16.2 Z" fill="#D1C1B4"/>
            <path d="M25.4,35.4 C25.4,35.4 25.7,35.3 26.3,35 C26.6,34.9 27,34.7 27.3,34.5 C27.5,34.4 27.7,34.3 27.9,34.2 C28.1,34.1 28.3,34 28.6,33.8 C29,33.5 29.5,33.1 29.9,32.7 C30.3,32.3 30.7,31.7 31,31.2 C31.1,30.9 31.3,30.6 31.4,30.3 C31.5,30 31.6,29.6 31.7,29.3 C31.8,29 31.9,28.6 31.9,28.3 C32,27.9 32,27.6 32.1,27.2 C32.1,26.5 32.3,25.8 32.2,25.1 C32.2,24.4 32.2,23.7 32.1,23 C32,22.3 32,21.7 31.9,21.1 C31.8,20.5 31.7,19.9 31.7,19.4 C31.6,18.3 31.4,17.4 31.3,16.8 C31.2,16.2 31.1,15.8 31.1,15.8 C31.1,15.8 31.2,16.1 31.4,16.8 C31.5,17.4 31.9,18.3 32.1,19.4 C32.2,19.9 32.3,20.5 32.4,21.1 C32.5,21.7 32.6,22.4 32.7,23.1 C32.8,23.8 32.8,24.5 32.8,25.2 C32.8,25.9 32.7,26.7 32.7,27.4 C32.7,27.8 32.6,28.1 32.5,28.5 C32.4,28.9 32.4,29.2 32.2,29.6 C32.1,29.9 32,30.3 31.8,30.6 C31.6,30.9 31.5,31.2 31.3,31.6 C30.9,32.2 30.5,32.8 30.1,33.2 C29.6,33.6 29.1,34 28.7,34.3 C28.2,34.6 27.7,34.8 27.3,34.9 C26.9,35.1 26.5,35.2 26.2,35.3 C25.8,35.4 25.4,35.4 25.4,35.4 Z" fill="#9E8B7B"/>
          </g>
          <path d="M20.8,38.5 C20.8,38.5 17.8,6.7 25,1.6 L27.1,2.3 C27.1,2.3 19.9,11.2 23.2,38.3 L20.8,38.5 Z" id="Shape" fill="#4F3B26"/>
          <path d="M2.9,34.9 C2.9,34.9 0.8,9.4 8.6,5.3 C8.6,5.3 4.4,10.6 5.5,35.7 L2.9,34.9 Z" id="Shape" fill="#4F3B26"/>
        </g>
        <g id="Group" transform="translate(38.000000, 85.000000)">
          <g transform="translate(0.000000, 30.000000)" id="Shape">
            <g transform="translate(7.000000, 0.000000)">
              <path d="M1.9,1.1 C-0.9,2.1 1.7,15.9 2.1,18.2 C2.5,20.5 9.9,22.7 10.4,15 C11,7.2 11.3,-2.2 1.9,1.1 Z" fill="#A2B04A"/>
              <path d="M9.7,3.4 C9.7,3.4 9.9,3.6 10,4 C10.2,4.4 10.4,5 10.5,5.7 C10.6,6.4 10.8,7.3 10.8,8.2 C10.9,9.1 10.9,10.1 10.8,11 C10.7,12 10.7,12.9 10.6,13.8 C10.5,14.7 10.3,15.5 10.2,16.2 C10.1,16.9 9.9,17.5 9.8,17.9 C9.7,18.3 9.6,18.5 9.6,18.5 C9.6,18.5 9.6,17.5 9.8,16.1 C9.9,14.7 10.1,12.8 10.1,10.9 C10.1,9.9 10.2,9 10.1,8.1 C10.1,7.2 10.1,6.4 10,5.7 C9.9,5 9.8,4.4 9.7,4 C9.8,3.6 9.7,3.4 9.7,3.4 Z" fill="#778C3A"/>
            </g>
            <path d="M0.8,32.5 L0.9,33.4 C0.9,33.4 5,34.8 8.1,34.1 C11.2,33.4 12.7,32.9 13.5,32.9 L13.6,33.3 C13.6,33.3 16.1,33.3 17.6,32.4 L17.7,29.6 C16.9,29.4 4.2,26.3 0.8,32.5 Z" fill="#17110B"/>
            <path d="M8.7,15.6 C8.7,15.6 11.7,18.2 17.5,15.5 C17.5,15.5 17.3,25.2 17.3,27 C17.3,28.8 19.1,31.1 14.8,31.6 C10.5,32.1 12.1,32.9 7.6,33.1 C3.1,33.3 0.8,32.5 0.8,32.5 C0.8,32.5 0.5,29.9 2.4,28.9 C4.3,27.9 6.4,27.8 8,25.8 C9.5,23.9 8.7,15.6 8.7,15.6 Z" fill="#4F3B26"/>
            <path d="M0.8,32.5 C0.8,32.5 0.7,32.2 0.7,31.6 C0.7,31.3 0.7,31 0.8,30.5 C0.9,30.1 1.1,29.6 1.5,29.3 C1.9,28.9 2.4,28.7 3,28.5 C3.5,28.3 4.1,28.1 4.7,27.9 C5.8,27.5 7,26.9 7.7,25.9 C8.1,25.4 8.2,24.8 8.3,24.2 C8.4,23.6 8.4,22.9 8.5,22.3 C8.6,21.1 8.6,19.9 8.7,18.9 C8.8,16.9 8.8,15.6 8.8,15.6 C8.8,15.6 8.9,16.9 9,18.9 C9,19.9 9.1,21 9,22.3 C9,22.9 8.9,23.6 8.8,24.2 C8.7,24.8 8.5,25.6 8.1,26.2 C7.7,26.8 7.2,27.3 6.6,27.6 C6,27.9 5.4,28.2 4.8,28.4 C4.2,28.6 3.6,28.8 3.1,28.9 C2.6,29.1 2.1,29.2 1.7,29.5 C1.4,29.8 1.2,30.2 1,30.6 C0.9,31 0.8,31.3 0.8,31.6 C0.8,32.2 0.8,32.5 0.8,32.5 Z" fill="#1F180E"/>
            <path d="M9.4,16 C9.4,16 9.5,16 9.7,16.1 C9.9,16.2 10.2,16.2 10.5,16.3 C10.8,16.4 11.3,16.4 11.7,16.4 C12.1,16.4 12.6,16.4 13.1,16.4 C13.6,16.4 14,16.3 14.5,16.3 C14.9,16.2 15.3,16.2 15.7,16.1 C16.1,16 16.3,16 16.5,15.9 C16.7,15.9 16.8,15.8 16.8,15.8 C16.8,15.8 16.7,15.9 16.5,16 C16.3,16.1 16.1,16.3 15.7,16.4 C15.4,16.5 15,16.7 14.5,16.8 C14.1,16.9 13.6,17 13.1,17 C12.6,17 12.1,17 11.7,16.9 C11.2,16.8 10.8,16.7 10.5,16.6 C9.8,16.3 9.4,16 9.4,16 Z" fill="#1F180E"/>
            <path d="M17.4,16.8 C17.4,16.8 17.5,17.8 17.5,19.4 C17.5,20.2 17.5,21.1 17.5,22.1 C17.5,23.1 17.5,24.1 17.5,25.2 C17.5,25.7 17.5,26.2 17.5,26.7 C17.5,27.2 17.6,27.7 17.7,28.2 C17.8,28.7 17.8,29.2 17.8,29.7 C17.8,30.2 17.6,30.6 17.3,30.9 C17,31.2 16.6,31.4 16.3,31.4 C16,31.5 15.7,31.5 15.5,31.6 C15,31.6 14.8,31.6 14.8,31.6 C14.8,31.6 15.1,31.6 15.5,31.5 C15.7,31.4 16,31.4 16.3,31.2 C16.6,31.1 16.9,30.9 17.1,30.6 C17.3,30.3 17.5,30 17.5,29.5 C17.5,29.1 17.4,28.6 17.3,28.2 C17.2,27.7 17.1,27.2 17.1,26.7 C17.1,26.2 17.1,25.7 17.1,25.1 C17.1,24.1 17.1,23 17.2,22 C17.2,21 17.3,20.1 17.3,19.3 C17.2,17.8 17.4,16.8 17.4,16.8 Z" fill="#1F180E"/>
            <path d="M5,28.1 C5,28.1 5.2,28.1 5.5,28.2 C5.8,28.3 6.1,28.5 6.4,28.7 C6.7,28.9 6.9,29.2 7.1,29.5 C7.2,29.7 7.3,29.9 7.3,29.9 C7.3,29.9 7.1,29.8 6.9,29.7 C6.8,29.6 6.6,29.6 6.5,29.5 C6.4,29.4 6.2,29.3 6.1,29.2 C5.8,29 5.6,28.7 5.4,28.5 C5.1,28.2 5,28.1 5,28.1 Z" fill="#1F180E"/>
            <path d="M7.9,25.8 C7.9,25.8 8.1,25.7 8.3,25.7 C8.6,25.7 8.9,25.7 9.2,25.8 C9.4,25.9 9.5,25.9 9.6,26 C9.7,26.1 9.8,26.2 9.9,26.3 C10.1,26.5 10.1,26.7 10.1,26.7 C10.1,26.7 9.4,26.6 8.9,26.4 C8.8,26.3 8.6,26.3 8.5,26.3 C8.4,26.3 8.2,26.2 8.1,26.1 C8.1,25.9 7.9,25.8 7.9,25.8 Z" fill="#1F180E"/>
            <path d="M8.7,22.4 C8.7,22.4 8.9,22.4 9.2,22.4 C9.5,22.4 9.8,22.4 10.2,22.4 C10.9,22.4 11.6,22.5 11.6,22.5 C11.6,22.5 11.4,22.6 11.2,22.8 C10.9,22.9 10.6,23 10.2,23 C10,23 9.8,23 9.6,22.9 C9.4,22.9 9.3,22.8 9.1,22.7 C8.8,22.6 8.7,22.4 8.7,22.4 Z" fill="#1F180E"/>
            <path d="M8.8,18.4 C8.8,18.4 9,18.4 9.3,18.4 C9.4,18.4 9.6,18.4 9.7,18.4 C9.9,18.4 10,18.4 10.2,18.5 C10.5,18.5 10.9,18.6 11.1,18.6 C11.2,18.6 11.3,18.6 11.4,18.6 C11.5,18.6 11.5,18.6 11.5,18.6 C11.5,18.6 11.4,18.8 11.1,18.9 C11,19 10.8,19 10.6,19 C10.4,19 10.2,19 10,19 C9.6,19 9.3,18.8 9,18.6 C8.9,18.5 8.8,18.4 8.8,18.4 Z" fill="#1F180E"/>
            <path d="M13.6,31.6 C13.6,31.6 13.5,31.2 13.5,30.6 C13.5,30.3 13.6,29.9 13.7,29.5 C13.8,29.1 14,28.7 14.3,28.4 C14.4,28.2 14.6,28.1 14.7,27.9 C14.8,27.7 15,27.6 15.2,27.5 C15.4,27.4 15.6,27.3 15.7,27.2 C15.9,27.1 16,27.1 16.2,27 C16.5,26.9 16.8,26.9 17,26.9 C17.2,26.9 17.3,26.9 17.3,26.9 C17.3,26.9 16.9,27 16.4,27.3 C16.3,27.4 16.1,27.4 16,27.5 C15.9,27.6 15.7,27.7 15.6,27.8 C15.3,28 15,28.3 14.8,28.6 C14.6,28.9 14.4,29.2 14.2,29.6 C14.1,29.9 13.9,30.2 13.8,30.5 C13.6,31.2 13.6,31.6 13.6,31.6 Z" fill="#1F180E"/>
          </g>
          <g transform="translate(2.000000, 0.000000)" id="Shape">
            <g transform="translate(4.000000, 13.000000)">
              <path d="M0.2,9 C0.8,13.7 0.8,23 4.3,22.9 C12.6,22.8 13.8,10.4 11.1,4.4 C8.5,-1.7 -0.9,0.1 0.2,9 Z" fill="#A2B04A"/>
              <path d="M12.7,10.9 C12.7,10.9 12.8,11.4 12.7,12.2 C12.7,13 12.6,14 12.3,15.1 C12.1,16.1 11.7,17.1 11.3,17.8 C11.2,18 11.1,18.1 11,18.3 C10.9,18.4 10.8,18.5 10.7,18.6 C10.5,18.8 10.5,18.9 10.5,18.9 C10.5,18.9 10.5,18.8 10.6,18.6 C10.7,18.5 10.7,18.4 10.8,18.2 C10.8,18 10.9,17.9 11,17.7 C11.2,17 11.5,16 11.7,15 C11.9,14 12.2,13 12.3,12.2 C12.5,11.5 12.7,10.9 12.7,10.9 Z" fill="#778C3A"/>
              <path d="M0.4,10.2 C0.4,10.2 0.5,10.9 0.7,11.8 C0.8,12.8 1,14.1 1.2,15.4 C1.3,16 1.4,16.7 1.4,17.3 C1.5,17.9 1.6,18.5 1.7,18.9 C1.8,19.4 1.9,19.8 2,20 C2.1,20.3 2.2,20.4 2.2,20.4 C2.2,20.4 2.1,20.3 1.9,20.1 C1.7,19.9 1.5,19.5 1.4,19 C1,18.1 0.8,16.7 0.6,15.4 C0.4,14.1 0.4,12.8 0.4,11.8 C0.3,10.9 0.4,10.2 0.4,10.2 Z" fill="#778C3A"/>
            </g>
            <g>
              <path d="M0.5,25.6 C-0.3,14.6 3.2,2.7 8.4,1 C19.2,-2.4 20.1,7.5 20.7,25 C15.3,26.7 6,27.1 0.5,25.6 Z" fill="#4F3B26"/>
              <path d="M0.5,25.6 C0.5,25.6 1.8,25.8 3.7,26 C4.6,26.1 5.8,26.1 6.9,26.2 C8.1,26.2 9.4,26.2 10.6,26.2 C11.2,26.2 11.9,26.1 12.5,26.1 C13.1,26.1 13.7,26 14.3,25.9 C14.9,25.8 15.5,25.8 16,25.7 C16.5,25.6 17.1,25.6 17.5,25.5 C18.4,25.4 19.2,25.2 19.8,25.1 C20.4,25 20.7,24.9 20.7,24.9 C20.7,24.9 20.4,25 19.9,25.2 C19.4,25.4 18.6,25.6 17.7,25.8 C17.2,25.9 16.7,26 16.2,26.1 C15.7,26.2 15.1,26.3 14.5,26.4 C13.9,26.5 13.3,26.6 12.7,26.6 C12.1,26.6 11.4,26.7 10.8,26.7 C9.5,26.7 8.2,26.7 7,26.6 C5.8,26.5 4.7,26.4 3.7,26.2 C1.7,26 0.5,25.6 0.5,25.6 Z" fill="#1F180E"/>
              <path d="M0.5,22.7 C0.5,22.7 1.7,23 3.6,23.2 C4.5,23.3 5.6,23.4 6.8,23.5 C8,23.6 9.2,23.6 10.5,23.5 C11.1,23.5 11.8,23.4 12.4,23.4 C13,23.4 13.6,23.3 14.2,23.2 C14.8,23.1 15.3,23 15.9,23 C16.4,22.9 16.9,22.8 17.4,22.7 C17.9,22.6 18.3,22.5 18.7,22.5 C19.1,22.4 19.4,22.3 19.7,22.3 C20.2,22.2 20.6,22.1 20.6,22.1 C20.6,22.1 20.3,22.2 19.8,22.4 C19.3,22.6 18.5,22.9 17.6,23.1 C17.1,23.2 16.6,23.4 16.1,23.5 C15.6,23.6 15,23.7 14.4,23.8 C13.8,23.9 13.2,24 12.6,24 C12,24 11.3,24.1 10.7,24.1 C9.4,24.1 8.1,24.1 6.9,24 C6.3,24 5.7,23.9 5.2,23.8 C4.7,23.7 4.1,23.6 3.7,23.5 C1.7,23.2 0.5,22.7 0.5,22.7 Z" fill="#1F180E"/>
              <path d="M19.3,8.6 C19.3,8.6 19.5,9.5 19.8,10.9 C19.9,11.6 20.1,12.4 20.2,13.3 C20.3,14.2 20.4,15.1 20.5,16 C20.6,16.9 20.6,17.9 20.7,18.8 C20.8,19.7 20.8,20.5 20.8,21.2 C20.8,22.6 20.7,23.6 20.7,23.6 C20.7,23.6 20.7,23.4 20.6,23 C20.6,22.6 20.5,22 20.4,21.3 C20.3,19.9 20.1,18 19.9,16.2 C19.8,15.3 19.7,14.3 19.7,13.5 C19.6,12.6 19.6,11.8 19.5,11.1 C19.4,9.5 19.3,8.6 19.3,8.6 Z" fill="#1F180E"/>
              <path d="M0.4,24.6 C0.4,24.6 0.3,24 0.2,23.2 C0.1,22.3 -4.82947016e-15,21.2 0.1,20.1 C0.1,19.5 0.1,19 0.2,18.4 C0.2,17.9 0.3,17.4 0.4,16.9 C0.6,16 0.8,15.5 0.8,15.5 C0.8,15.5 0.7,16.1 0.7,16.9 C0.7,17.7 0.7,18.9 0.7,20 C0.7,20.6 0.7,21.1 0.7,21.7 C0.7,22.2 0.6,22.7 0.6,23.2 C0.5,24 0.4,24.6 0.4,24.6 Z" fill="#1F180E"/>
            </g>
          </g>
        </g>
        <g id="Group" transform="translate(48.000000, 49.000000)">
          <g transform="translate(12.000000, 40.000000)" id="Shape">
            <g>
              <path d="M2.1,0.7 C2.1,0.7 0.2,2.1 0.3,5.3 C0.4,7.4 -0.3,9.1 0.4,9.2 C1.9,9.3 1.7,6 1.7,6 C1.7,6 2.9,8.9 2.4,10.1 C2,11 2.4,12.5 2.9,12.6 C3.5,12.7 4,10.6 4.3,9.2 C4.3,9.2 4.2,10.8 4.3,11.8 C4.5,12.8 4.9,13.1 5.5,12 C5.5,12 6.6,13.5 7.2,10.2 C7.2,10.2 8.1,10.4 8.2,8.7 C8.4,6.9 8.1,-2 2.1,0.7 Z" fill="#A2B04A"/>
              <path d="M3.3,12.2 C3.3,12.2 3.4,11.9 3.5,11.3 C3.6,10.8 3.7,10.1 3.8,9.4 C3.8,9.1 3.8,8.7 3.9,8.4 C3.9,8.1 3.9,7.8 3.9,7.5 C3.9,7.2 3.9,7 3.9,6.8 C3.9,6.6 3.9,6.5 3.9,6.5 C3.9,6.5 4.1,6.8 4.2,7.4 C4.4,7.9 4.5,8.7 4.4,9.4 C4.4,9.8 4.3,10.1 4.2,10.5 C4.1,10.8 4,11.1 3.8,11.4 C3.6,12 3.3,12.2 3.3,12.2 Z" fill="#698237"/>
              <path d="M5.6,12 C5.6,12 5.7,11.7 5.7,11.2 C5.8,10.7 5.8,10.1 5.8,9.4 C5.8,8.8 5.8,8.1 5.8,7.6 C5.8,7.3 5.8,7.1 5.8,7 C5.8,6.9 5.8,6.8 5.8,6.8 C5.8,6.8 6,7.1 6.1,7.6 C6.3,8.1 6.4,8.8 6.4,9.5 C6.4,10.2 6.2,10.9 6,11.3 C5.8,11.7 5.6,12 5.6,12 Z" fill="#698237"/>
              <path d="M7.3,10.2 C7.3,10.2 7.2,9.9 7.2,9.6 C7.1,9.2 7.1,8.7 7.1,8.2 C7.1,7.7 7.1,7.2 7.1,6.9 C7.1,6.7 7.1,6.6 7.1,6.4 C7.1,6.3 7.1,6.2 7.1,6.2 C7.1,6.2 7.3,6.4 7.4,6.8 C7.5,7.2 7.6,7.7 7.6,8.2 C7.6,8.7 7.5,9.2 7.4,9.6 C7.5,10 7.3,10.2 7.3,10.2 Z" fill="#698237"/>
            </g>
            <path d="M1.5,1.3 C1.5,1.3 1.4,1.3 1.5,1.3 C1.3,1.5 1.3,1.6 1.2,1.8 C1.1,2.2 1,2.6 0.8,3.1 C0.7,3.6 0.6,4.1 0.4,4.5 C0.3,4.9 0.2,5.1 0.2,5.1 C0.2,5.1 0.1,4.8 0.1,4.4 C0.1,4 0.1,3.4 0.2,2.9 C0.3,2.4 0.6,1.8 0.9,1.5 C1.2,1.3 1.5,1.3 1.5,1.3 Z" fill="#698237"/>
          </g>
          <g transform="translate(7.000000, 20.000000)" id="Shape">
            <path d="M3.8,1.2 C2.4,1.7 1.3,3.8 1.3,6.5 C1.3,7.4 2,8.7 1.7,9.8 C0.6,14 4.1,18.5 5.2,19.8 C7.3,22.2 12.7,19.7 12,14.5 C11.8,13 11.2,8.9 11,6.3 C10.9,2.2 7.9,-0.3 3.8,1.2 Z" fill="#D1C1B4"/>
            <path d="M5.7,18.7 L5.9,21.7 C5.9,21.7 9.5,22.1 11.3,20.5 L10.8,17" fill="#D1C1B4"/>
            <path d="M9.4,19.7 C9.4,19.7 9.6,19.6 9.9,19.4 C10.2,19.2 10.7,18.9 11.1,18.3 C11.4,17.8 11.6,17 11.7,16.2 C11.7,15.8 11.7,15.3 11.7,14.9 C11.7,14.5 11.6,14 11.6,13.6 C11.4,11.8 11.2,10 11.1,8.6 C11,7.9 11.1,7.3 11.1,6.9 C11.1,6.5 11.2,6.3 11.2,6.3 C11.2,6.3 11.3,7.2 11.5,8.5 C11.7,9.8 12.1,11.6 12.3,13.5 C12.3,14 12.4,14.4 12.4,14.9 C12.4,15.4 12.4,15.8 12.4,16.2 C12.3,17.1 12,17.9 11.6,18.5 C11.1,19.1 10.6,19.3 10.2,19.5 C9.7,19.6 9.4,19.7 9.4,19.7 Z" fill="#9E8B7B"/>
            <path d="M1.4,7.5 C1.4,7.5 1.5,7.7 1.7,8.1 C1.9,8.5 2.1,9.1 1.8,9.9 C1.7,10.2 1.7,10.6 1.7,11 C1.7,11.4 1.8,11.8 1.8,12.3 C1.9,13.2 2.2,14.1 2.5,14.9 C2.7,15.3 2.9,15.7 3.1,16.2 C3.3,16.6 3.5,17.1 3.7,17.5 C4.1,18.3 4.4,19.1 4.9,19.6 C5.3,20.1 5.9,20.4 6.3,20.3 C6.7,20.3 6.9,20.2 6.9,20.2 C6.9,20.2 6.8,20.2 6.7,20.3 C6.6,20.3 6.4,20.4 6.2,20.4 C5.8,20.5 5.1,20.3 4.5,19.8 C4,19.3 3.5,18.5 3.1,17.7 C2.9,17.3 2.7,16.9 2.4,16.5 C2.2,16.1 1.9,15.6 1.7,15.2 C1.4,14.3 1.2,13.3 1,12.4 C0.9,11.9 0.9,11.5 1,11.1 C1,10.7 1.1,10.2 1.2,9.9 C1.5,9.3 1.4,8.7 1.3,8.3 C1.5,7.7 1.4,7.5 1.4,7.5 Z" fill="#9E8B7B"/>
          </g>
          <g id="Shape">
            <path d="M3,15.5 C0.8,11.7 -1,1.9 2.8,0.5 C6.6,-0.9 9.8,1.2 13.3,9.1 C15,13 16.1,16.4 16.5,19.1 C16.6,20 17.6,21 17.6,21.7 C17.6,24.1 16,25.6 14.5,26.2 C12.4,27 10.2,27.1 8.6,25.8 C6.4,24.1 7.3,22.9 3,15.5 Z" fill="#D1C1B4"/>
            <path d="M6.7,0.3 C6.7,0.3 6.8,0.4 7,0.5 C7.2,0.6 7.4,0.8 7.7,1 C8.3,1.4 9.2,2.1 10,3 C10.9,3.9 11.8,5.1 12.5,6.6 C13.3,8 13.9,9.6 14.5,11.2 C15.1,12.8 15.6,14.4 16,15.9 C16.2,16.7 16.4,17.4 16.5,18.1 C16.6,18.5 16.6,18.8 16.7,19.1 C16.8,19.4 17,19.7 17.1,20 C17.4,20.6 17.6,21.1 17.6,21.7 C17.7,22.2 17.6,22.7 17.5,23.1 C17.2,23.8 16.8,24 16.8,24 C16.8,24 17.2,23.7 17.4,23 C17.5,22.7 17.5,22.2 17.4,21.7 C17.3,21.2 17,20.7 16.8,20.1 C16.7,19.8 16.5,19.5 16.4,19.2 C16.3,18.9 16.2,18.5 16.1,18.1 C16,17.4 15.7,16.7 15.5,15.9 C15.1,14.4 14.5,12.8 13.9,11.2 C13.3,9.6 12.7,8.1 12,6.7 C11.3,5.3 10.5,4.1 9.7,3.1 C8.9,2.2 8.1,1.4 7.6,0.9 C7,0.5 6.7,0.3 6.7,0.3 Z" fill="#9E8B7B"/>
            <path d="M10.5,26.7 C10.5,26.7 10.2,26.7 9.8,26.6 C9.3,26.5 8.7,26.2 8.1,25.6 C7.8,25.3 7.5,25 7.2,24.6 C6.9,24.2 6.7,23.8 6.5,23.3 C6.1,22.3 5.7,21.4 5.3,20.4 C4.9,19.4 4.4,18.4 4,17.5 C3.6,16.6 3.2,15.7 2.8,15 C2.5,14.3 2.2,13.6 2,13.2 C1.8,12.8 1.8,12.5 1.8,12.5 C1.8,12.5 1.9,12.7 2.1,13.2 C2.3,13.6 2.7,14.2 3.1,14.9 C3.5,15.6 4,16.4 4.4,17.3 C4.9,18.2 5.3,19.2 5.8,20.1 C6.2,21.1 6.6,22.1 7,23 C7.2,23.5 7.4,23.9 7.6,24.3 C7.8,24.7 8.1,25 8.3,25.3 C8.8,25.9 9.4,26.2 9.8,26.4 C10.2,26.7 10.5,26.7 10.5,26.7 Z" fill="#9E8B7B"/>
          </g>
        </g>
        <g id="Group" transform="translate(18.000000, 45.000000)">
          <g transform="translate(18.000000, 0.000000)" id="Shape">
            <path d="M0.1,5.6 C0.1,5.6 6.6,12.9 9.4,24.9 C9.4,24.9 21.4,23.7 32.2,15.7 C32.2,15.7 23.7,0.9 14.3,0.3 C14.4,0.3 8.9,1.7 0.1,5.6 Z" fill="#7D543D"/>
            <path d="M15.9,0.6 C15.9,0.6 16.3,0.6 16.9,0.8 C17.2,0.9 17.6,1 18,1.2 C18.4,1.4 18.9,1.6 19.3,1.8 C19.8,2 20.3,2.4 20.8,2.7 C21.3,3.1 21.9,3.4 22.4,3.8 C22.9,4.2 23.5,4.7 24,5.1 C24.5,5.6 25,6.1 25.5,6.6 C26,7.1 26.5,7.7 26.9,8.2 C27.4,8.7 27.8,9.3 28.2,9.8 C29.1,10.8 29.7,11.9 30.3,12.8 C30.9,13.7 31.3,14.5 31.7,15 C32,15.5 32.2,15.8 32.2,15.8 C32.2,15.8 32,15.5 31.6,15 C31.2,14.5 30.7,13.8 30.1,12.9 C29.8,12.5 29.4,12 29,11.5 C28.6,11 28.2,10.5 27.8,10 C27.4,9.5 26.9,9 26.5,8.5 C26,8 25.6,7.5 25.1,7 C24.6,6.5 24.1,6 23.6,5.5 C23.1,5 22.6,4.6 22.1,4.2 C21.6,3.8 21.1,3.4 20.6,3 C20.1,2.7 19.6,2.3 19.2,2.1 C18.3,1.5 17.5,1.2 16.9,0.9 C16.3,0.6 15.9,0.6 15.9,0.6 Z" fill="#523219"/>
            <path d="M1.5,7.3 C1.5,7.3 1.7,7.5 2.1,7.9 C2.4,8.3 2.9,8.9 3.4,9.7 C3.9,10.5 4.5,11.4 5,12.4 C5.5,13.4 6.1,14.5 6.6,15.6 C7.1,16.7 7.5,17.9 7.9,19 C8.3,20.1 8.5,21.1 8.8,22 C9.1,22.9 9.2,23.6 9.3,24.2 C9.4,24.7 9.5,25 9.5,25 C9.5,25 9.4,24.7 9.2,24.2 C9,23.7 8.8,23 8.5,22.1 C8.2,21.2 7.8,20.2 7.4,19.2 C7.2,18.7 7,18.1 6.8,17.6 C6.6,17 6.3,16.5 6.1,15.9 C5.6,14.8 5.1,13.7 4.6,12.7 C4.1,11.7 3.6,10.7 3.1,10 C2.6,9.2 2.3,8.6 2,8.1 C1.6,7.5 1.5,7.3 1.5,7.3 Z" fill="#523219"/>
          </g>
          <g transform="translate(0.000000, 3.000000)" id="Shape">
            <path d="M18.2,2.5 C18.2,2.5 14,12.6 11.2,19.9 C11.2,19.9 2.1,15.9 0.1,11.8 C0.1,11.8 6.7,0.2 11.1,0.6 C11.1,0.7 16.5,2.5 18.2,2.5 Z" fill="#7D543D"/>
            <path d="M11.2,19.9 C11.2,19.9 11.4,19 11.8,17.7 C12.2,16.4 12.8,14.6 13.5,12.9 C14.2,11.2 14.9,9.5 15.6,8.3 C15.9,7.7 16.2,7.2 16.5,6.9 C16.6,6.7 16.7,6.6 16.8,6.5 C16.9,6.4 16.9,6.4 16.9,6.4 C16.9,6.4 16.8,6.6 16.6,7 C16.4,7.4 16.2,7.9 16,8.5 C15.5,9.8 14.8,11.5 14.2,13.2 C13.5,14.9 12.8,16.6 12.3,17.9 C11.6,19.1 11.2,19.9 11.2,19.9 Z" fill="#523219"/>
            <path d="M0.2,11.8 C0.2,11.8 0.6,10.9 1.3,9.5 C1.7,8.8 2.1,8.1 2.7,7.3 C3.2,6.5 3.9,5.7 4.5,4.9 C5.2,4.1 5.9,3.4 6.6,2.8 C6.9,2.5 7.3,2.2 7.7,2 C8.1,1.7 8.4,1.5 8.8,1.4 C9.1,1.2 9.5,1.1 9.8,1 C10.1,0.9 10.4,0.8 10.6,0.8 C11,0.8 11.3,0.7 11.3,0.7 C11.3,0.7 11.1,0.8 10.6,0.9 C10.4,0.9 10.1,1 9.9,1.2 C9.6,1.3 9.3,1.5 9,1.7 C8.7,1.9 8.3,2.1 8,2.4 C7.7,2.7 7.3,3 7,3.3 C6.3,3.9 5.6,4.7 5,5.4 C4.3,6.2 3.7,6.9 3.2,7.7 C2.6,8.5 2.1,9.2 1.7,9.8 C0.7,11 0.2,11.8 0.2,11.8 Z" fill="#523219"/>
          </g>
        </g>
        <g id="Group" transform="translate(13.000000, 0.000000)">
          <g transform="translate(0.000000, 15.000000)" id="Shape">
            <path d="M19.7,9.8 C18.3,5.6 12.7,4.7 9.2,3.9 C5.7,3.1 3.1,0.2 1.3,0.2 C-0.4,0.2 3.3,2.6 5.4,6 C7.5,9.4 10,15.2 16.9,14.9 C19.8,14.7 20.3,11.6 19.7,9.8 Z" fill="#A2B04A"/>
            <path d="M17.7,12.6 C17.7,12.6 17.4,12.6 17,12.5 C16.5,12.4 15.9,12.1 15.2,11.6 C14.9,11.3 14.5,11 14.2,10.6 C14,10.4 13.9,10.2 13.8,10 C13.7,9.8 13.6,9.6 13.5,9.3 C13.3,8.8 13,8.5 12.6,8.2 C12.2,7.9 11.8,7.5 11.3,7.3 C10.4,6.7 9.4,6.2 8.5,5.7 C7.6,5.2 6.7,4.7 6,4.3 C5.3,3.9 4.7,3.5 4.3,3.2 C3.9,2.9 3.7,2.7 3.7,2.7 C3.7,2.7 3.9,2.8 4.4,3.1 C4.8,3.3 5.4,3.6 6.2,4 C6.9,4.4 7.8,4.7 8.7,5.2 C9.6,5.7 10.6,6.1 11.6,6.7 C12.1,7 12.5,7.3 12.9,7.7 C13.1,7.9 13.3,8.1 13.5,8.3 C13.7,8.5 13.9,8.8 14,9 L14.2,9.4 L14.3,9.7 C14.4,9.9 14.5,10.1 14.6,10.3 C14.8,10.7 15.1,11 15.4,11.3 C16,11.8 16.6,12.2 17,12.4 C17.4,12.5 17.7,12.6 17.7,12.6 Z" fill="#698237"/>
            <path d="M19.7,9.8 C19.7,9.8 19.5,9.2 18.9,8.5 C18.6,8.1 18.2,7.8 17.8,7.4 C17.4,7 16.9,6.7 16.3,6.4 C15.8,6.1 15.2,5.8 14.7,5.6 C14.2,5.3 13.7,5.2 13.2,5 C12.8,4.8 12.4,4.7 12.1,4.6 C11.8,4.5 11.7,4.4 11.7,4.4 C11.7,4.4 11.9,4.4 12.1,4.4 C12.4,4.4 12.8,4.5 13.2,4.6 C13.7,4.7 14.2,4.8 14.8,5 C15.4,5.2 15.9,5.5 16.5,5.8 C17.1,6.1 17.6,6.5 18,6.9 C18.4,7.3 18.8,7.8 19,8.2 C19.2,8.6 19.4,9 19.4,9.3 C19.7,9.7 19.7,9.8 19.7,9.8 Z" fill="#698237"/>
          </g>
          <path d="M8.5,14.3 C5.2,19.2 2.2,34.8 6.2,40.8 C10.2,46.8 19.3,51.7 23.4,51.1 C27.5,50.5 44,39.6 41.9,22.3 C39.9,5.1 13.7,6.5 8.5,14.3 Z" id="Shape" fill="#5C3E2C"/>
          <path d="M34.4,43.8 C33.5,39 24.6,36.7 22.2,43.9 C22.2,43.9 21.8,49.3 20.2,50.7 C21.5,51 22.6,51.2 23.5,51.1 C25.4,50.9 30.1,48.3 34.4,43.8 Z" id="Shape" fill="#A2B04A"/>
          <g transform="translate(7.000000, 3.000000)">
            <path d="M35.6,13.6 C32.6,1.2 19.4,-2 11.5,2.6 C2.7,7.7 2.2,21.4 2.2,21.4 C2.2,21.4 -2.7,27.3 2.3,35.5 C4.9,39.7 8.7,42.3 14.3,43.2 C19,43.9 30.7,40.3 34.3,30.4 C36,25.9 36.7,18.2 35.6,13.6 Z" id="Shape" fill="#A2B04A"/>
            <ellipse id="Oval" fill="#382C18" transform="translate(20.777220, 24.278160) rotate(-83.523137) translate(-20.777220, -24.278160) " cx="20.77722" cy="24.27816" rx="2.499956" ry="1.09998064"/>
            <ellipse id="Oval" fill="#382C18" transform="translate(8.353500, 22.282000) rotate(-83.523137) translate(-8.353500, -22.282000) " cx="8.3535" cy="22.282" rx="2.499956" ry="1.09998064"/>
            <path d="M13.7,23.7 C13.7,23.7 13.1,24.7 12.1,26.1 C11.8,26.4 11.6,26.8 11.3,27.2 C11,27.6 10.7,28 10.2,28.4 C9.7,28.8 9.1,28.9 8.6,29.1 C8.1,29.3 7.5,29.4 7,29.7 C6.8,29.8 6.5,29.9 6.4,30.1 C6.2,30.3 6.2,30.4 6.2,30.6 C6.2,30.7 6.3,30.8 6.3,30.9 C6.4,31 6.5,31.2 6.5,31.2 C6.6,31.3 6.9,31.5 7.1,31.6 C8,32 9,32.2 9.9,32.3 C10.8,32.4 11.5,32.6 12,32.7 C12.5,32.8 12.7,33 12.7,33 C12.7,33 12.4,32.9 11.9,32.8 C11.4,32.7 10.7,32.7 9.8,32.6 C9.4,32.6 8.9,32.5 8.4,32.4 C7.9,32.3 7.4,32.2 6.8,32 C6.5,31.9 6.3,31.7 6,31.5 C5.9,31.4 5.8,31.3 5.7,31.2 C5.6,31 5.5,30.9 5.5,30.7 C5.4,30.3 5.5,29.9 5.8,29.6 C6.1,29.4 6.3,29.2 6.6,29.1 C7.2,28.9 7.7,28.7 8.3,28.6 C8.8,28.4 9.4,28.3 9.7,28 C10.1,27.7 10.4,27.3 10.8,26.9 C11.1,26.5 11.4,26.2 11.7,25.9 C13,24.6 13.7,23.7 13.7,23.7 Z" id="Shape" fill="#546626"/>
            <path d="M12.9,32.1 C12.9,32.1 13,32.1 13.2,32.1 C13.4,32.1 13.6,32.2 13.8,32.3 C13.9,32.4 14,32.4 14.1,32.5 C14.2,32.6 14.2,32.7 14.3,32.7 C14.4,32.9 14.4,33 14.4,33 C14.4,33 14.3,33 14.1,32.9 C14,32.8 13.8,32.7 13.6,32.6 C13.5,32.5 13.4,32.5 13.4,32.4 C13.3,32.4 13.3,32.3 13.2,32.2 C13,32.1 12.9,32.1 12.9,32.1 Z" id="Shape" fill="#546626"/>
            <path d="M6.4,16.5 C6.4,16.5 6.6,16.2 7,15.8 C7.2,15.6 7.5,15.4 7.8,15.3 C8.1,15.1 8.5,15 8.9,15 C9.1,15 9.3,15 9.5,15 C9.7,15 9.9,15.1 10.1,15.2 C10.3,15.3 10.4,15.4 10.6,15.5 C10.7,15.6 10.8,15.7 10.9,15.8 C11.1,16 11.2,16.2 11.3,16.4 C11.4,16.5 11.4,16.6 11.4,16.6 C11.4,16.6 11.3,16.5 11.2,16.4 C11.1,16.3 11.1,16.3 11,16.2 C10.9,16.1 10.8,16.1 10.7,16 C10.5,15.8 10.2,15.7 10,15.6 C9.9,15.5 9.7,15.5 9.6,15.5 C9.5,15.5 9.3,15.5 9.1,15.5 C8.5,15.5 7.8,15.8 7.3,16 C6.7,16.3 6.4,16.5 6.4,16.5 Z" id="Shape" fill="#546626"/>
            <path d="M23.9,19 C23.9,19 23.6,18.7 23.1,18.3 C22.9,18.1 22.6,17.9 22.2,17.7 C21.9,17.5 21.5,17.3 21.2,17.2 C21,17.1 20.8,17.1 20.7,17.1 C20.5,17.1 20.3,17 20.2,17.1 C20,17.1 19.9,17.1 19.7,17.2 C19.5,17.2 19.4,17.3 19.2,17.3 C18.9,17.4 18.7,17.5 18.5,17.6 C18.3,17.7 18.2,17.7 18.2,17.7 C18.2,17.7 18.3,17.6 18.4,17.5 C18.5,17.4 18.7,17.1 19,16.9 C19.1,16.8 19.3,16.7 19.5,16.6 C19.7,16.5 19.9,16.5 20.1,16.4 C20.5,16.3 21,16.4 21.4,16.5 C22.3,16.8 22.9,17.4 23.3,17.9 C23.7,18.6 23.9,19 23.9,19 Z" id="Shape" fill="#546626"/>
            <path d="M3.7,37.7 C3.7,37.7 3.9,37.9 4.4,38.3 C4.8,38.7 5.4,39.1 6.2,39.7 C6.6,40 7,40.2 7.5,40.5 C8,40.8 8.4,41.1 9,41.3 C9.5,41.6 10.1,41.8 10.6,42 C11.2,42.2 11.7,42.4 12.4,42.5 L13.3,42.7 C13.6,42.7 13.9,42.8 14.2,42.8 C14.8,42.9 15.4,42.9 16,42.9 C16.6,42.9 17.1,42.9 17.7,42.8 C18.2,42.7 18.7,42.7 19.2,42.6 C19.7,42.5 20.1,42.4 20.4,42.3 C20.8,42.2 21.1,42.1 21.3,42 C21.8,41.8 22.1,41.7 22.1,41.7 C22.1,41.7 21.8,41.8 21.3,42.1 C21,42.2 20.7,42.4 20.4,42.5 C20,42.6 19.6,42.8 19.2,42.9 C18.7,43 18.2,43.1 17.7,43.2 C17.2,43.3 16.6,43.3 16,43.4 C15.4,43.4 14.8,43.4 14.2,43.3 C13.9,43.3 13.6,43.2 13.3,43.2 C13,43.1 12.7,43.1 12.4,43 C11.8,42.9 11.2,42.6 10.6,42.4 C10,42.1 9.5,41.9 8.9,41.6 C8.4,41.3 7.9,41 7.4,40.7 C7,40.4 6.5,40.1 6.2,39.8 C5.5,39.2 4.9,38.6 4.5,38.2 C3.9,37.9 3.7,37.7 3.7,37.7 Z" id="Shape" fill="#698237"/>
            <path d="M26,29.6 C25.9,30.6 23.8,31.2 22.5,31 C21.2,30.8 20.4,30.1 20.5,29.2 C20.6,28.2 22.4,27.4 23.7,27.6 C25.1,27.7 26.1,28.6 26,29.6 Z" id="Shape" fill="#B09D3C"/>
            <path d="M1,25.7 C0.9,26.7 2.8,27.7 4.1,27.9 C5.4,28.1 6.3,27.5 6.4,26.6 C6.5,25.6 5,24.4 3.6,24.3 C2.3,24.1 1.1,24.7 1,25.7 Z" id="Shape" fill="#B09D3C"/>
            <g transform="translate(8.000000, 34.000000)" id="Shape">
              <path d="M9.3,1.6 C11.4,3.1 7.9,5.4 4.6,4.9 C1.5,4.4 -1,2 1,1 C1.9,0.6 3.8,1.7 5.2,1.8 C6.6,2 8.3,0.8 9.3,1.6 Z" fill="#A64646"/>
              <path d="M4.7,4.9 C7.9,5.4 11.4,3.2 9.4,1.6 C8.3,0.8 6.7,2 5.3,1.8 C5.2,1.8 5.1,1.8 5,1.8 C3.8,2.5 2.8,3.3 2,3.9 C2.7,4.4 3.7,4.7 4.7,4.9 Z" fill="#CF7878"/>
              <path d="M9.6,1.9 C9.6,1.9 9.5,1.8 9.3,1.7 C9.1,1.6 8.7,1.6 8.3,1.6 C7.9,1.6 7.3,1.7 6.8,1.9 C6.5,2 6.2,2 6,2.1 C5.9,2.1 5.7,2.2 5.6,2.2 C5.4,2.2 5.3,2.3 5.1,2.3 C4.4,2.3 3.8,2.1 3.2,1.9 C2.7,1.6 2.2,1.4 1.8,1.2 C1.4,1.1 1.1,1.2 0.8,1.3 C0.6,1.4 0.5,1.5 0.5,1.5 C0.5,1.5 0.6,1.4 0.8,1.2 C0.9,1.1 1,1 1.2,0.9 C1.4,0.8 1.6,0.8 1.9,0.8 C2.4,0.9 2.9,1.1 3.4,1.3 C3.9,1.5 4.5,1.7 5,1.6 C5.1,1.6 5.3,1.6 5.4,1.6 L5.8,1.5 C6.1,1.4 6.4,1.4 6.7,1.3 C7.3,1.2 7.8,1.2 8.3,1.2 C8.8,1.2 9.2,1.4 9.4,1.6 C9.6,1.8 9.6,1.9 9.6,1.9 Z" fill="#8F3C3C"/>
            </g>
          </g>
          <g transform="translate(8.000000, 0.000000)" id="Shape">
            <g>
              <g>
                <path d="M0.5,14.3 C3.7,9.9 12.5,10.5 15.5,11.5 C18.5,12.4 26.6,18.1 27.5,25.9 C28.4,33.7 23.2,49.2 15.4,51.2 C15.4,51.2 35.2,47.3 37.4,44.7 C40.3,41.3 42.5,28.2 42.7,24 C42.9,20.3 40.7,13.2 40.7,13.2 C40.7,13.2 42.3,6 44.5,4.9 C44.5,4.9 39.7,3 34.5,2.9 C29.3,2.9 24.6,-1.2 17.1,0.5 C4.8,3.1 0.5,14.3 0.5,14.3 Z" fill="#7D543D"/>
                <path d="M38.7,9.8 C38.7,9.8 39,10.2 39.5,10.9 C40,11.6 40.6,12.7 41.1,14.1 C41.4,14.8 41.7,15.6 41.9,16.4 C42.2,17.2 42.4,18.1 42.6,19 C42.8,19.9 42.9,20.9 43,21.9 C43.1,22.9 43.1,23.9 43.1,24.9 C43.1,25.9 42.9,26.9 42.8,27.9 C42.7,28.9 42.5,29.8 42.3,30.7 C41.9,32.5 41.5,34.2 41.1,35.7 C40.3,38.6 39.6,40.4 39.6,40.4 C39.6,40.4 40.1,38.5 40.8,35.6 C41.1,34.2 41.5,32.5 41.8,30.6 C42,29.7 42.1,28.7 42.3,27.8 C42.4,26.8 42.5,25.9 42.6,24.9 C42.7,23.9 42.6,22.9 42.6,22 C42.5,21 42.4,20.1 42.3,19.2 C42,17.4 41.5,15.7 41,14.3 C39.8,11.5 38.7,9.8 38.7,9.8 Z" fill="#523219"/>
                <path d="M5.7,11.1 C5.7,11.1 6.4,11 7.6,10.8 C8.8,10.7 10.5,10.4 12.6,10.6 C13.6,10.7 14.8,10.9 15.9,11.3 C17,11.7 18.2,12.3 19.3,13 C21.5,14.5 23.5,16.5 25.1,18.8 C25.9,20 26.6,21.2 27.1,22.5 C27.2,22.8 27.3,23.1 27.4,23.5 C27.5,23.8 27.6,24.2 27.6,24.5 C27.7,25.2 27.8,25.8 27.8,26.5 C27.9,27.8 27.8,29.1 27.7,30.3 C27.6,31.5 27.4,32.6 27.2,33.6 C26.8,35.6 26.3,37.3 25.9,38.4 C25.5,39.5 25.2,40.2 25.2,40.2 C25.2,40.2 25.5,39.6 25.8,38.4 C26.1,37.2 26.6,35.6 26.9,33.5 C27.2,31.5 27.5,29.1 27.3,26.5 C27.3,25.9 27.2,25.2 27.1,24.6 C27,24.3 27,24 26.9,23.7 C26.8,23.4 26.7,23.1 26.6,22.7 C26.1,21.5 25.4,20.3 24.6,19.2 C23,16.9 21,15 18.9,13.5 C17.8,12.8 16.8,12.2 15.7,11.8 C14.6,11.4 13.5,11.2 12.5,11.1 C10.5,10.9 8.7,11 7.5,11.1 C6.4,11.1 5.7,11.1 5.7,11.1 Z" fill="#523219"/>
                <path d="M20.3,0.1 C20.3,0.1 20.7,0.1 21.4,0.1 C22.1,0.1 23,0.1 24.2,0.3 C25.4,0.4 26.7,0.7 28.1,1.2 C28.8,1.4 29.5,1.7 30.2,1.9 C30.9,2.1 31.6,2.3 32.4,2.4 C33.9,2.6 35.5,2.7 36.9,2.8 C38.4,2.9 39.7,3.2 40.8,3.5 C41.4,3.7 41.9,3.8 42.3,4 C42.7,4.2 43.1,4.3 43.4,4.4 C44,4.7 44.4,4.8 44.4,4.8 C44.4,4.8 44,4.7 43.4,4.5 C43.1,4.4 42.7,4.3 42.2,4.2 C41.7,4.1 41.2,4 40.7,3.8 C40.1,3.7 39.5,3.6 38.9,3.5 C38.2,3.4 37.6,3.4 36.8,3.3 C35.4,3.2 33.8,3.1 32.3,2.9 C31.5,2.8 30.7,2.6 30,2.4 C29.3,2.2 28.6,1.9 27.9,1.6 C26.5,1.1 25.3,0.7 24.1,0.6 C23,0.4 22,0.3 21.3,0.2 C20.7,0.1 20.3,0.1 20.3,0.1 Z" fill="#523219"/>
              </g>
              <path d="M37.5,44.7 C37.5,44.7 37.2,44.9 36.7,45.3 C36.5,45.5 36.1,45.7 35.7,45.9 C35.3,46.1 34.9,46.4 34.4,46.6 C33.4,47.1 32.2,47.5 30.9,48 C29.6,48.4 28.2,48.8 26.8,49.2 C25.4,49.5 24,49.9 22.6,50.1 C21.3,50.4 20,50.6 18.9,50.7 C16.8,51 15.3,51.1 15.3,51.1 C15.3,51.1 16.7,50.8 18.8,50.3 C19.9,50.1 21.1,49.8 22.4,49.5 C23.7,49.2 25.1,48.9 26.5,48.5 C27.9,48.2 29.3,47.8 30.6,47.4 C31.9,47 33.1,46.6 34.1,46.2 C34.6,46 35.1,45.8 35.5,45.6 C35.9,45.4 36.3,45.3 36.5,45.1 C37.2,44.9 37.5,44.7 37.5,44.7 Z" fill="#523219"/>
            </g>
            <g transform="translate(31.000000, 12.000000)" fill="#523219">
              <path d="M2.3,1.2 C2.3,1.2 2.6,1.5 3.1,2.1 C3.5,2.7 4,3.5 4.4,4.4 C4.8,5.3 5,6.2 5.1,6.9 C5.2,7.6 5.2,8.1 5.2,8.1 C5.2,8.1 5.1,8 5,7.8 C4.9,7.6 4.8,7.3 4.7,7 C4.4,6.4 4.1,5.5 3.7,4.7 C3.3,3.8 3,3 2.7,2.4 C2.5,1.7 2.3,1.2 2.3,1.2 Z"/>
              <path d="M5.2,0.5 C5.2,0.5 5.5,0.8 6,1.4 C6.4,2 6.9,2.8 7.3,3.7 C7.7,4.6 7.9,5.5 8,6.2 C8.1,6.9 8.1,7.4 8.1,7.4 C8.1,7.4 8,7.3 8,7.1 C7.9,6.9 7.8,6.6 7.7,6.3 C7.4,5.7 7.1,4.8 6.7,4 C6.3,3.1 6,2.3 5.7,1.7 C5.4,0.9 5.2,0.5 5.2,0.5 Z"/>
              <path d="M0.8,5.2 C0.8,5.2 1.1,4.9 1.7,4.4 C2.3,4 3.1,3.5 4,3.1 C4.9,2.7 5.8,2.5 6.5,2.4 C7.2,2.3 7.7,2.3 7.7,2.3 C7.7,2.3 7.6,2.4 7.4,2.4 C7.2,2.5 6.9,2.6 6.6,2.7 C6,3 5.1,3.3 4.3,3.7 C3.4,4.1 2.6,4.4 2,4.7 C1.2,5 0.8,5.2 0.8,5.2 Z"/>
              <path d="M2,7.5 C2,7.5 2.3,7.2 2.9,6.7 C3.5,6.3 4.3,5.8 5.2,5.4 C6.1,5 7,4.8 7.7,4.7 C8.4,4.6 8.9,4.6 8.9,4.6 C8.9,4.6 8.8,4.7 8.6,4.7 C8.4,4.8 8.1,4.9 7.8,5 C7.2,5.3 6.3,5.6 5.5,6 C4.6,6.4 3.8,6.7 3.2,7 C2.5,7.3 2,7.5 2,7.5 Z"/>
            </g>
          </g>
          <g transform="translate(37.000000, 24.000000)" id="Shape">
            <path d="M1,6.4 C3.1,2.5 8.8,2.6 12.4,2.5 C16,2.4 19.1,-3.83026943e-15 20.8,0.3 C22.5,0.6 18.4,2.3 15.7,5.2 C13,8.1 9.5,13.4 2.8,11.9 C5.55111512e-16,11.2 0.1,8.1 1,6.4 Z" fill="#A2B04A"/>
            <path d="M2.5,9.5 C2.5,9.5 2.8,9.5 3.2,9.4 C3.7,9.3 4.3,9.1 5,8.7 C5.3,8.5 5.7,8.2 6,7.9 C6.2,7.7 6.3,7.6 6.4,7.4 L6.6,7.1 L6.8,6.8 C6.9,6.6 7.2,6.4 7.4,6.2 C7.6,6 7.8,5.9 8.1,5.7 C8.6,5.4 9.1,5.1 9.6,4.9 C10.6,4.5 11.7,4.2 12.7,3.9 C13.7,3.6 14.6,3.4 15.4,3.2 C16.2,3 16.8,2.8 17.3,2.6 C17.8,2.4 18,2.4 18,2.4 C18,2.4 17.8,2.5 17.3,2.8 C16.9,3 16.2,3.3 15.5,3.6 C14.7,3.9 13.8,4.2 12.8,4.5 C11.8,4.8 10.8,5.1 9.8,5.5 C9.3,5.7 8.8,5.9 8.4,6.2 C8,6.5 7.6,6.7 7.3,7.2 C7.1,7.4 7,7.6 6.8,7.8 C6.6,8 6.5,8.2 6.3,8.3 C5.9,8.6 5.5,8.9 5.2,9.1 C4.4,9.5 3.7,9.6 3.3,9.7 C2.8,9.5 2.5,9.5 2.5,9.5 Z" fill="#698237"/>
            <path d="M1,6.4 C1,6.4 1,6.2 1.1,6 C1.2,5.7 1.4,5.4 1.7,5 C1.8,4.8 2,4.6 2.2,4.4 C2.4,4.2 2.6,4 2.9,3.9 C3.4,3.6 4,3.3 4.6,3.1 C5.2,2.9 5.8,2.7 6.4,2.6 C7,2.5 7.5,2.5 8,2.4 C8.5,2.4 8.9,2.4 9.1,2.4 C9.4,2.4 9.5,2.4 9.5,2.4 C9.5,2.4 9.3,2.4 9.1,2.5 C8.8,2.6 8.5,2.6 8,2.7 C7.6,2.8 7,2.9 6.5,3 C5.9,3.1 5.4,3.3 4.8,3.5 C4.2,3.7 3.7,3.9 3.2,4.2 C2.7,4.5 2.3,4.8 1.9,5.1 C1.2,5.9 1,6.4 1,6.4 Z" fill="#698237"/>
          </g>
        </g>
        <g id="Group" transform="translate(31.000000, 48.000000)">
          <circle id="Oval" fill="#518237" cx="3.5" cy="3.9" r="3.4"/>
          <path d="M1.3,4.9 C1.3,4.9 1.2,4.8 1.2,4.7 C1.1,4.6 1,4.4 0.9,4.1 C0.7,3.6 0.8,2.8 1.3,2.2 C1.7,1.6 2.4,1.3 3,1.2 C3.3,1.2 3.5,1.2 3.6,1.2 C3.7,1.2 3.8,1.2 3.8,1.2 C3.8,1.2 3.7,1.2 3.6,1.3 C3.5,1.3 3.3,1.4 3.1,1.5 C2.7,1.7 2.2,2 1.9,2.5 C1.6,3 1.4,3.5 1.4,4 C1.4,4.2 1.4,4.4 1.4,4.6 C1.3,4.8 1.3,4.9 1.3,4.9 Z" id="Shape" fill="#1E4730"/>
          <path d="M5.6,2.6 C5.6,2.6 5.7,2.7 5.7,2.8 C5.8,2.9 5.9,3.1 6,3.4 C6.2,3.9 6.1,4.7 5.6,5.3 C5.2,5.9 4.5,6.2 3.9,6.3 C3.6,6.3 3.4,6.3 3.3,6.3 C3.2,6.3 3.1,6.3 3.1,6.3 C3.1,6.3 3.2,6.3 3.3,6.2 C3.4,6.2 3.6,6.1 3.8,6 C4.2,5.8 4.7,5.5 5,5 C5.3,4.5 5.5,4 5.5,3.5 C5.5,3.3 5.5,3.1 5.5,2.9 C5.6,2.6 5.6,2.6 5.6,2.6 Z" id="Shape" fill="#1E4730"/>
          <circle id="Oval" fill="#1E4730" cx="4" cy="2.8" r="1"/>
          <circle id="Oval" fill="#1E4730" cx="2.8" cy="4.6" r="1"/>
        </g>
      </g>
    </g>
  </g>
</svg>