<svg version="1.1" width="53" height="80" xmlns="http://www.w3.org/2000/svg" xmlns:xlink="http://www.w3.org/1999/xlink">
  <!-- Exported by Scratch - http://scratch.mit.edu/ -->
  <g id="ID0.19021361554041505">
    <path id="ID0.8817562349140644" d="M 293 349 C 297.652 348.712 302.333 349 307 349 C 330.633 349.214 338.283 377.189 322 390 C 327.344 398.989 329.869 410.797 337 418 C 337 419.333 337 420.667 337 422 C 335.385 421.719 335.278 422.945 334 423 C 334.111 425.555 335.833 426.500 337 428 C 337 429 337 430 337 431 C 330.427 433.093 326.028 437.361 320 440 C 313.701 430.632 311.771 416.896 305 408 C 300.097 413.752 306.208 424.764 305 433 C 304.697 435.059 301.879 433.270 301.150 434.500 C 299.977 436.313 301.947 439.788 300 441 C 296.279 443.309 290.390 441.390 287 443 C 285.333 443 283.667 443 282 443 C 278.278 414.223 278.396 391.474 275 365 C 275 363.333 273.921 361.266 275 360 C 276.656 358.072 280.377 358.715 281.900 356.600 C 283.109 355.047 280.304 351.809 282 350.600 C 285.016 348.456 289.546 349.544 293 349 Z M 317 355 C 307.641 354.099 295.503 349.453 285 355 C 289.196 385.318 286.008 406.840 291 431 C 295.294 430.961 298.363 429.696 301 428 C 299.504 414.387 291.452 395.620 310 395 C 312.623 407.043 320.665 413.669 324 425 C 327.489 423.489 331.171 422.171 333 419 C 326.378 410.289 322.271 399.062 317 389 C 327.989 382.134 330.697 361.061 317 355 Z " transform="matrix(0.8471237421035767, 0, 0, 0.8471237421035767, -232.5, -295.3)"/>
    <path id="ID0.7739334432408214" fill="#FF9400" d="M 317 389 C 322.271 399.062 326.378 410.289 333 419 C 331.171 422.171 327.489 423.489 324 425 C 320.665 413.669 312.623 407.043 310 395 C 291.452 395.620 299.504 414.387 301 428 C 298.363 429.696 295.294 430.961 291 431 C 286.008 406.840 289.196 385.318 285 355 C 295.503 349.453 307.641 354.099 317 355 C 330.697 361.061 327.989 382.134 317 389 Z M 295 361 C 296.710 372.964 295.776 379.391 298 389 C 309.231 385.898 318.894 381.227 320 368 C 315.808 361.695 305.004 358.355 295 361 Z " transform="matrix(0.8471237421035767, 0, 0, 0.8471237421035767, -232.5, -295.3)"/>
    <path id="ID0.5371424774639308" d="M 320 368 C 318.894 381.227 309.231 385.898 298 389 C 295.776 379.391 296.710 372.964 295 361 C 305.004 358.355 315.808 361.695 320 368 Z M 300 384 C 304.734 381.400 312.460 381.793 311 373 C 308.545 370.788 304.310 370.357 300 370 C 300 374.667 300 379.333 300 384 Z " transform="matrix(0.8471237421035767, 0, 0, 0.8471237421035767, -232.5, -295.3)"/>
  </g>
</svg>