<svg version="1.1" width="137" height="149" xmlns="http://www.w3.org/2000/svg" xmlns:xlink="http://www.w3.org/1999/xlink">
  <!-- Exported by Scratch - http://scratch.mit.edu/ -->
  <g id="ID0.038037963677197695" transform="matrix(1, 0, 0, 1, 0.5, 0)">
    <path id="R_Leg" fill="#BE1E2D" stroke="#231F20" stroke-linecap="round" stroke-linejoin="round" d="M 84.291 148.579 C 86.021 148.075 88.146 148.579 88.146 148.579 C 88.146 148.579 89.087 154.297 89.375 156.365 C 89.664 158.436 90.735 161.677 90.735 161.677 C 90.735 161.677 91.276 162.001 91.125 162.847 C 90.969 163.691 89.110 163.855 86.781 164.298 C 84.455 164.736 82.552 164.360 82.186 163.527 C 81.817 162.700 82.505 162.313 82.505 162.313 C 82.505 162.313 83.589 155.484 82.602 153.134 C 82.609 153.141 82.083 149.219 84.291 148.579 L 84.291 148.579 L 84.291 148.579 L 84.291 148.579 L 84.291 148.579 L 84.291 148.579 L 84.291 148.579 L 84.291 148.579 Z " transform="matrix(0.9024999737739563, 0, 0, 0.9024999737739563, 1.3, 0)"/>
    <path id="L_Leg" fill="#BE1E2D" stroke="#231F20" stroke-linecap="round" stroke-linejoin="round" d="M 76.830 149.219 C 74.787 148.281 73.052 150.490 73.052 150.490 C 73.052 150.490 73.394 156.217 73.433 158.302 C 73.470 160.394 73.415 162.351 73.415 162.351 C 73.415 162.351 72.929 162.753 73.214 163.566 C 73.499 164.379 75.360 164.254 77.727 164.333 C 80.097 164.407 81.915 163.741 82.151 162.864 C 82.382 161.989 81.643 161.718 81.643 161.718 C 81.643 161.718 79.665 155.989 80.285 153.523 C 80.281 153.518 79.949 150.650 76.830 149.219 L 76.830 149.219 L 76.830 149.219 L 76.830 149.219 L 76.830 149.219 L 76.830 149.219 L 76.830 149.219 L 76.830 149.219 Z " transform="matrix(0.9024999737739563, 0, 0, 0.9024999737739563, 1.3, 0)"/>
    <g id="Body_1_">
      <path id="Body" fill="#BE1E2D" stroke="#000000" d="M 88.863 141.242 C 88.763 140.576 88.623 139.879 88.457 139.193 C 87.928 135.307 84.756 129.080 77.926 130.080 C 71.094 131.080 71.073 139.197 71.073 139.197 L 71.073 139.197 C 70.737 142.707 70.660 148.977 73.873 151.172 C 77.750 153.818 81.491 154.084 85.019 152.098 C 88.583 150.086 89.324 144.354 88.863 141.242 L 88.863 141.242 L 88.863 141.242 L 88.863 141.242 L 88.863 141.242 L 88.863 141.242 L 88.863 141.242 L 88.863 141.242 Z " transform="matrix(0.9024999737739563, 0, 0, 0.9024999737739563, 1.3, 0)"/>
      <path id="Belly" fill="#E6E7E8" stroke="#231F20" stroke-linecap="round" stroke-linejoin="round" d="M 86.980 150.160 C 87.027 148.432 86.857 140.252 79.382 140.770 C 72.799 141.231 74.693 151.555 74.693 151.555 L 74.730 151.715 C 78.302 153.842 81.751 153.934 85.019 152.094 C 85.794 151.656 86.439 151.042 86.962 150.318 L 86.980 150.160 L 86.980 150.160 L 86.980 150.160 L 86.980 150.160 L 86.980 150.160 L 86.980 150.160 L 86.980 150.160 L 86.980 150.160 Z " transform="matrix(0.9024999737739563, 0, 0, 0.9024999737739563, 1.3, 0)"/>
    </g>
    <path id="L_Arm" fill="#BE1E2D" stroke="#000000" stroke-linecap="round" d="M 74.440 135.447 C 73.375 135.447 68.895 137.485 68.895 137.485 C 66.082 138.752 63.177 140.440 63.027 142.056 C 62.589 146.734 68.195 153.122 71.268 149.169 C 71.959 148.280 71.893 147.345 71.498 146.484 C 71.945 146.112 72.428 145.560 72.295 144.963 C 72.061 143.906 70.299 144.613 70.299 144.613 L 69.121 143.760 L 68.992 143.680 C 69.028 143.541 69.129 143.414 69.260 143.294 C 69.260 143.294 69.924 142.922 70.984 142.491 C 72.132 142.023 73.359 142.295 73.359 142.295 " transform="matrix(0.9024999737739563, 0, 0, 0.9024999737739563, 1.3, 0)"/>
    <path id="R_Arm" fill="#BE1E2D" stroke="#000000" stroke-linecap="round" d="M 85.433 135.446 C 86.497 135.446 90.978 137.484 90.978 137.484 C 93.790 138.751 96.696 140.439 96.846 142.055 C 97.284 146.733 91.677 153.121 88.605 149.168 C 87.914 148.279 87.980 147.344 88.375 146.483 C 87.928 146.110 87.445 145.559 87.578 144.962 C 87.812 143.905 89.574 144.612 89.574 144.612 L 90.752 143.759 L 90.881 143.679 C 90.846 143.540 90.744 143.413 90.613 143.293 C 90.613 143.293 89.949 142.921 88.888 142.490 C 87.740 142.022 86.513 142.294 86.513 142.294 " transform="matrix(0.9024999737739563, 0, 0, 0.9024999737739563, 1.3, 0)"/>
    <g id="Head_3_">
      <g id="Head_2_">
        <path id="Head_1_" fill="#BE1E2D" stroke="#000000" stroke-linecap="round" stroke-linejoin="round" d="M 128.634 107.738 L 128.040 109.459 C 124.745 118.147 120.061 123.147 120.061 123.147 C 120.061 123.147 120.229 121.596 120.139 119.104 L 119.993 119.053 C 119.570 120.365 118.878 122.057 117.724 124.147 C 115.200 128.737 107.782 132.585 107.782 132.585 C 107.782 132.585 108.243 131.007 108.532 128.425 L 108.427 128.030 C 107.622 128.648 106.788 129.218 105.947 129.771 C 105.699 129.935 105.451 130.095 105.199 130.250 C 104.432 130.727 103.651 131.182 102.854 131.606 C 102.539 131.772 102.210 131.926 101.893 132.085 C 101.311 132.376 100.721 132.650 100.122 132.917 C 99.683 133.109 99.239 133.302 98.788 133.480 C 98.320 133.668 97.841 133.837 97.364 134.013 C 96.486 134.327 95.595 134.620 94.685 134.890 C 94.388 134.978 94.090 135.066 93.789 135.148 C 93.140 135.327 92.485 135.501 91.819 135.655 L 91.822 135.657 C 88.478 136.435 84.931 136.943 81.134 137.178 C 77.026 137.430 73.301 137.389 69.823 137.147 L 69.823 137.147 C 67.071 136.955 64.495 136.625 62.056 136.178 C 61.938 136.157 61.819 136.135 61.700 136.115 C 60.946 135.971 60.204 135.819 59.476 135.656 C 59.222 135.596 58.979 135.533 58.726 135.471 C 57.759 135.242 56.819 134.990 55.892 134.721 C 55.306 134.551 54.724 134.377 54.155 134.192 C 53.817 134.086 53.478 133.973 53.147 133.860 C 52.243 133.548 51.347 133.231 50.478 132.889 L 50.327 133.035 C 50.655 135.385 51.465 136.647 52.112 137.250 C 53.431 138.479 55.970 138.771 55.970 138.771 C 55.970 138.771 48.209 139.857 43.983 133.866 C 43.534 133.228 43.081 132.568 42.651 131.866 L 42.466 131.464 C 41.548 131.157 40.618 130.749 39.700 130.224 C 34.102 126.999 33.399 124.339 33.399 124.339 L 33.516 125.314 C 34.055 127.855 34.581 129.460 34.581 129.460 C 34.581 129.460 27.881 125.220 24.897 118.866 C 22.491 113.734 22.300 110.630 22.284 110.105 L 22.059 108.241 C 21.914 100.933 22.368 92.738 23.372 84.675 L 23.434 84.460 C 24.329 78.227 23.461 67.900 31.731 57.335 C 47.230 37.540 63.062 38.228 72.531 23.599 C 79.495 12.837 77.706 0.495 77.706 0.495 C 77.706 0.495 81.977 6.542 83.683 10.093 C 85.331 13.554 87.095 18.015 87.095 18.015 L 87.152 17.977 C 87.191 17.847 87.226 17.714 87.256 17.581 C 87.722 15.510 87.537 12.448 87.537 12.448 C 87.537 12.448 91.609 24.382 98.183 32.206 C 104.751 40.024 114.247 42.261 126.238 69.042 C 127.730 72.370 129.117 75.171 129.859 78.274 L 130.195 80.061 C 131.242 85.645 130.832 101.073 128.634 107.738 L 128.634 107.738 L 128.634 107.738 L 128.634 107.738 L 128.634 107.738 L 128.634 107.738 L 128.634 107.738 L 128.634 107.738 Z M 51.833 81.509 C 51.833 81.509 44.067 89.577 44.579 100.801 C 45.032 110.733 47.606 113.801 48.993 114.569 C 50.419 115.354 52.630 114.889 52.630 114.889 C 52.630 114.889 46.376 118.201 41.278 113.707 C 37.868 110.703 34.157 106.828 33.118 95.895 M 116.458 99.397 C 116.458 99.397 117.423 102.160 115.070 107.932 C 112.424 114.436 106.841 116.449 106.841 116.449 C 106.841 116.449 111.481 106.428 107.587 97.008 C 105.889 92.893 100.645 89.826 95.171 87.662 C 87.753 84.724 79.913 83.444 79.913 83.444 M 120.027 118.942 C 119.609 120.270 118.908 122.004 117.720 124.149 C 115.196 128.740 107.777 132.587 107.777 132.587 C 107.777 132.587 109.119 127.983 108.662 121.644 M 34.700 103.952 C 33.938 105.366 33.352 106.882 33.024 108.482 C 30.964 118.464 34.589 129.460 34.589 129.460 C 34.589 129.460 27.891 125.222 24.905 118.866 C 22.258 113.224 22.292 110.030 22.292 110.030 M 128.037 109.464 C 124.740 118.152 120.058 123.152 120.058 123.152 C 120.058 123.152 121.025 114.340 117.123 104.919 C 116.945 104.493 116.748 104.079 116.537 103.677 M 79.916 83.444 C 79.916 83.444 81.244 83.797 84.748 86.586 C 88.252 89.375 89.541 92.418 89.541 92.418 C 89.541 92.418 79.193 89.692 73.466 87.633 C 67.744 85.572 48.435 80.313 48.435 80.313 M 47.152 124.928 C 49.957 129.334 52.875 131.731 52.875 131.731 C 52.875 131.731 46.012 133.856 39.707 130.227 C 34.109 127.002 33.406 124.342 33.406 124.342 M 108.421 128.034 C 101.025 133.724 92.050 136.513 81.138 137.185 C 68.125 137.987 58.615 136.085 50.485 132.896 M 50.254 132.315 C 50.500 135.133 51.406 136.594 52.117 137.254 C 53.437 138.483 55.976 138.774 55.976 138.774 C 55.976 138.774 48.213 139.863 43.988 133.871 C 43.539 133.231 43.086 132.574 42.656 131.871 M 80.666 83.778 C 80.666 83.778 109.008 87.235 109.008 102.705 " transform="matrix(0.9024999737739563, 0, 0, 0.9024999737739563, 1.3, 0)"/>
        <path id="Face" fill="#E6E7E8" stroke="#000000" stroke-linecap="round" stroke-linejoin="round" d="M 114.562 109.393 C 113.505 120.518 100.716 132.125 82 133.219 C 65.478 134.194 41.060 126.764 37.517 113.082 C 37.165 111.707 36.978 110.379 36.927 109.102 L 37.286 109.367 C 38.540 111.203 39.931 112.524 41.278 113.711 C 46.376 118.203 52.630 114.891 52.630 114.891 C 52.630 114.891 50.419 115.358 48.993 114.574 C 47.606 113.805 45.032 110.737 44.579 100.805 C 44.067 89.578 51.833 81.513 51.833 81.513 L 51.860 81.255 C 57.672 82.865 69.251 86.116 73.464 87.633 C 79.192 89.695 89.538 92.418 89.538 92.418 C 89.538 92.418 88.249 89.375 84.745 86.586 C 82.991 85.190 81.784 84.406 81.016 83.969 L 81.737 84.082 C 81.737 84.082 103.589 87.311 107.591 97.008 C 111.485 106.430 106.848 116.449 106.848 116.449 C 106.848 116.449 111.602 114.733 114.410 109.363 L 114.562 109.393 L 114.562 109.393 L 114.562 109.393 L 114.562 109.393 L 114.562 109.393 L 114.562 109.393 L 114.562 109.393 L 114.562 109.393 Z " transform="matrix(0.9024999737739563, 0, 0, 0.9024999737739563, 1.3, 0)"/>
      </g>
      <g id="R_Ear">
        <path id="Outer_Ear_1_" fill="#BE1E2D" stroke="#000000" stroke-linecap="round" d="M 122.287 89.085 C 122.287 89.085 132.355 77.809 132.916 77.274 C 133.478 76.742 137.640 71.638 149.633 69.895 C 149.633 69.895 141.931 104.148 123.987 111.984 C 123.986 111.983 125.693 102.182 122.287 89.085 L 122.287 89.085 L 122.287 89.085 L 122.287 89.085 L 122.287 89.085 L 122.287 89.085 L 122.287 89.085 L 122.287 89.085 Z M 122.355 89.360 C 122.097 88.278 121.314 86.365 121.314 86.365 M 123.126 114.610 C 123.126 114.610 123.814 112.967 123.984 111.983 " transform="matrix(0.9024999737739563, 0, 0, 0.9024999737739563, 1.3, 0)"/>
        <path id="Inner_Ear_1_" fill="#929497" stroke="#000000" stroke-linecap="round" d="M 131.138 106.600 C 131.138 106.600 129.339 105.219 129.132 100.676 C 128.999 97.858 130.237 92.719 130.237 92.719 L 130.135 92.883 C 130.920 91.975 131.748 90.914 132.498 89.750 C 133.769 87.781 135.256 84.828 136.619 81.917 L 136.830 81.516 C 136.830 81.516 140.434 76.245 147.904 75.578 L 147.990 75.625 C 146.416 80.832 143.849 88.469 141.006 93.686 C 137.818 99.539 134.127 103.789 131.002 106.707 L 131.138 106.600 L 131.138 106.600 L 131.138 106.600 L 131.138 106.600 L 131.138 106.600 L 131.138 106.600 L 131.138 106.600 L 131.138 106.600 Z M 127.126 95.819 C 127.126 95.819 129.747 93.257 130.237 92.719 " transform="matrix(0.9024999737739563, 0, 0, 0.9024999737739563, 1.3, 0)"/>
      </g>
      <g id="L_Ear">
        <path id="Outer_Ear_2_" fill="#BE1E2D" stroke="#000000" stroke-linecap="round" d="M 25.084 111.983 C 7.143 104.147 -0.561 69.895 -0.561 69.895 C 11.434 71.639 15.596 76.743 16.156 77.274 C 16.716 77.807 26.786 89.084 26.786 89.084 C 23.377 102.182 25.084 111.983 25.084 111.983 L 25.084 111.983 L 25.084 111.983 L 25.084 111.983 L 25.084 111.983 L 25.084 111.983 L 25.084 111.983 L 25.084 111.983 Z M 27.756 86.365 C 27.756 86.365 26.974 88.278 26.715 89.360 M 25.084 111.983 C 25.255 112.967 25.944 114.610 25.944 114.610 " transform="matrix(0.9024999737739563, 0, 0, 0.9024999737739563, 1.3, 0)"/>
        <path id="Inner_Ear_2_" fill="#929497" stroke="#000000" stroke-linecap="round" d="M 18.065 106.708 C 14.940 103.788 11.251 99.538 8.061 93.687 C 5.217 88.470 2.651 80.833 1.077 75.626 L 1.163 75.579 C 8.634 76.247 12.237 81.517 12.237 81.517 L 12.448 81.918 C 13.811 84.830 15.298 87.783 16.569 89.751 C 17.319 90.915 18.147 91.976 18.932 92.884 L 18.832 92.720 C 18.832 92.720 20.070 97.859 19.937 100.677 C 19.730 105.220 17.933 106.601 17.933 106.601 L 18.065 106.708 L 18.065 106.708 L 18.065 106.708 L 18.065 106.708 L 18.065 106.708 L 18.065 106.708 L 18.065 106.708 L 18.065 106.708 Z M 18.833 92.719 C 19.323 93.256 21.944 95.819 21.944 95.819 " transform="matrix(0.9024999737739563, 0, 0, 0.9024999737739563, 1.3, 0)"/>
      </g>
      <path id="Mouth" fill="none" stroke="#231F20" stroke-linecap="round" d="M 65.245 123.859 C 65.245 123.859 71.397 116.088 80.460 116.088 C 89.522 116.088 95.675 121.916 95.675 121.916 " transform="matrix(0.9024999737739563, 0, 0, 0.9024999737739563, 1.3, 0)"/>
      <path id="R_Eye" fill="#231F20" d="M 102.541 102.963 C 102.645 102.420 102.297 101.897 101.756 101.787 C 101.207 101.670 100.688 102.031 100.580 102.572 C 100.492 103 100.051 103.219 100.020 103.235 C 99.833 103.317 99.705 103.459 99.598 103.619 C 99.481 103.592 99.356 103.567 99.225 103.541 C 99.333 103.272 99.419 102.979 99.438 102.631 C 99.466 102.078 99.042 101.610 98.494 101.582 C 97.901 101.520 97.473 101.979 97.442 102.529 C 97.423 102.842 97.218 103.069 97.089 103.180 C 94.442 102.832 91.136 102.791 89.568 104.383 C 88.986 104.975 88.997 105.924 89.587 106.504 C 89.880 106.793 90.259 106.938 90.640 106.938 C 91.029 106.938 91.415 106.789 91.708 106.492 C 92.517 105.666 96.552 105.944 99.667 106.713 C 100.486 106.914 101.284 106.418 101.480 105.615 C 101.558 105.299 101.502 104.990 101.390 104.709 C 101.830 104.388 102.365 103.855 102.541 102.963 L 102.541 102.963 L 102.541 102.963 L 102.541 102.963 L 102.541 102.963 L 102.541 102.963 L 102.541 102.963 L 102.541 102.963 Z " transform="matrix(0.9024999737739563, 0, 0, 0.9024999737739563, 1.3, 0)"/>
      <path id="L_Eye" fill="#231F20" d="M 66.754 104.195 C 66.594 104.150 63.777 103.383 60.195 103.550 C 60.078 103.372 59.918 103.222 59.701 103.148 C 59.697 103.146 59.232 102.954 59.119 102.527 C 58.978 101.995 58.435 101.669 57.896 101.816 C 57.361 101.960 57.044 102.504 57.185 103.040 C 57.271 103.359 57.414 103.620 57.568 103.852 C 57.422 103.877 57.273 103.910 57.125 103.940 C 57.014 103.852 56.885 103.785 56.738 103.752 C 56.732 103.750 56.234 103.633 56.062 103.225 C 55.845 102.713 55.255 102.485 54.751 102.694 C 54.240 102.910 54.003 103.498 54.218 104.006 C 54.402 104.444 54.669 104.762 54.949 105.008 C 54.777 105.338 54.721 105.731 54.835 106.112 C 55.025 106.766 55.626 107.194 56.275 107.194 C 56.415 107.194 56.553 107.173 56.693 107.133 C 61.242 105.807 65.895 107.071 65.941 107.086 C 66.744 107.305 67.566 106.842 67.789 106.043 C 68.014 105.244 67.551 104.418 66.754 104.195 L 66.754 104.195 L 66.754 104.195 L 66.754 104.195 L 66.754 104.195 L 66.754 104.195 L 66.754 104.195 L 66.754 104.195 Z " transform="matrix(0.9024999737739563, 0, 0, 0.9024999737739563, 1.3, 0)"/>
    </g>
  </g>
</svg>