<svg width="220px" height="280px" viewBox="0 0 220 280" version="1.1" xml:space="preserve" xmlns="http://www.w3.org/2000/svg" xmlns:xlink="http://www.w3.org/1999/xlink">
  <!-- Generator: Sketch 49.3 (51167) - http://www.bohemiancoding.com/sketch -->
  <defs/>
  <g>
    <title>centaur-b</title>
    <desc>Created with Sketch.</desc>
    <g id="centaur-b" stroke="none" stroke-width="1" fill="none" fill-rule="evenodd">
      <g id="Centaur-Disapproval" transform="translate(13.000000, 43.000000)" fill-rule="nonzero">
        <g id="Group" transform="translate(152.000000, 47.000000)">
          <g transform="translate(4.000000, 55.000000)" id="Shape">
            <path d="M3.3,6.7 C4.3,4.8 5.9,1.9 8.4,0.6 L14.4,3.1 C14.4,3.1 15,6.5 14.3,8.4 C13.8,9.5 13.2,10.1 12.8,12.2 C12.5,14.1 8.7,16.9 7.5,15.7 C7.5,15.7 5.8,17 4.9,14.9 C4.9,14.9 2.9,15.1 2.1,13.4 C2.1,13.4 0.9,13.3 1,10.5 C1,9 1.6,6.6 3.3,6.7 Z" fill="#FFD0AE"/>
            <g transform="translate(0.000000, 6.000000)">
              <path d="M3.3,3.5 C4.1,2.1 5.1,1.6 5.5,1.9 C6.4,2.5 5.1,4.7 4.6,6 C4.1,7.3 4.7,7.4 4.7,7.4 C5.2,4.7 7.1,3.3 7.4,3.4 C8.2,3.6 8.2,4.2 8.1,4.6 C8.8,3.5 9.8,4 10.1,4.3 C10.8,5.1 8.8,9.1 8.8,9.1 C8.7,9.4 8.4,9.6 8,9.9 C7.7,10 7.6,9.8 7.4,9.6 C7.4,9.6 5.7,10.9 4.8,8.8 C4.8,8.8 2.8,9 2,7.3 C2,7.3 0.8,7.2 0.9,4.4 C0.9,2.9 1.5,0.7 3.1,0.6 C3.3,0.7 3.4,0.7 3.5,0.9 C4.2,1.6 3.6,2.9 3.3,3.5 Z" fill="#FFD0AE"/>
              <path d="M7.8,10 C7.8,10 7.6,10 7.3,9.8 C7,9.6 6.8,9.1 6.8,8.5 C6.8,7.9 6.9,7.3 7.1,6.6 C7.2,6.3 7.3,5.9 7.4,5.6 C7.6,5.3 7.6,4.9 7.9,4.5 C8.2,4.2 8.6,4 9,3.9 C9.4,3.8 9.9,3.8 10.3,4.3 C10.5,4.5 10.5,4.8 10.4,5 C10.4,5.2 10.3,5.3 10.3,5.5 C10.2,5.8 10.1,6.1 10,6.4 C9.6,7.4 9.3,8.1 9.3,8.1 C9.3,8.1 9.4,7.4 9.6,6.3 C9.6,6 9.7,5.7 9.8,5.4 C9.8,5.2 9.8,5.1 9.9,4.9 C9.9,4.8 9.9,4.7 9.8,4.6 C9.7,4.5 9.4,4.4 9.1,4.5 C8.8,4.6 8.5,4.7 8.3,4.9 C8.1,5.1 8,5.5 7.9,5.8 C7.8,6.1 7.6,6.5 7.5,6.8 C7.3,7.4 7.1,8 7.1,8.5 C7.1,9 7.1,9.5 7.3,9.7 C7.6,10 7.8,10 7.8,10 Z" fill="#BF8865"/>
              <path d="M8.2,4.6 C8.2,4.6 8.2,4.4 8.1,4.2 C8,4 7.8,3.7 7.5,3.7 C7.2,3.7 6.8,4 6.5,4.3 C6.3,4.5 6.2,4.7 6,4.9 C5.8,5.1 5.7,5.4 5.6,5.6 C5.5,5.8 5.3,6.1 5.2,6.3 C5.1,6.5 5,6.8 4.9,7 C4.8,7.5 4.7,8 4.8,8.4 C4.8,8.8 5,9.1 5.1,9.4 C5.2,9.6 5.3,9.7 5.3,9.7 C5.3,9.7 5.2,9.6 5,9.4 C4.8,9.2 4.6,8.9 4.5,8.4 C4.4,8 4.3,7.4 4.4,6.9 C4.5,6.6 4.5,6.3 4.6,6.1 C4.7,5.8 4.8,5.5 4.9,5.3 C5.2,4.8 5.5,4.3 5.9,3.8 C6.1,3.6 6.3,3.4 6.6,3.3 C6.9,3.2 7.2,3.1 7.5,3.2 C7.8,3.3 8,3.5 8,3.7 C8.1,3.9 8.1,4.1 8.1,4.2 C8.3,4.4 8.2,4.6 8.2,4.6 Z" fill="#BF8865"/>
              <path d="M3.1,8.6 C3.1,8.6 2.9,8.5 2.6,8.3 C2.3,8 1.9,7.6 1.8,6.8 C1.8,6.4 1.8,6.1 1.9,5.7 C2,5.3 2.2,4.9 2.4,4.6 C2.8,3.9 3.3,3.1 3.8,2.4 C4.1,2.1 4.4,1.6 5.1,1.6 C5.5,1.6 5.7,1.8 5.9,2 C5.9,2.1 6,2.1 6,2.2 C6,2.3 6,2.3 6.1,2.4 C6.1,2.6 6.1,2.7 6.1,2.8 C6.1,3.3 5.9,3.7 5.7,4 C5.5,4.4 5.4,4.7 5.2,5 C4.5,6.2 4,6.9 4,6.9 C4,6.9 4.3,6.1 4.8,4.9 C4.9,4.6 5,4.3 5.2,3.9 C5.3,3.6 5.4,3.2 5.4,2.8 C5.5,2.6 5.1,2.2 5,2.2 C4.8,2.2 4.4,2.5 4.2,2.8 C3.7,3.4 3.2,4.2 2.7,4.9 C2.5,5.3 2.3,5.6 2.2,5.9 C2.1,6.2 2,6.6 2,6.9 C2,7.5 2.2,8 2.5,8.3 C2.9,8.5 3.1,8.6 3.1,8.6 Z" fill="#BF8865"/>
              <path d="M3.4,2.9 C3.4,2.9 3.4,2.7 3.4,2.4 C3.4,2.1 3.4,1.7 3.3,1.3 C3.3,1.2 3.3,1.1 3.2,1.1 C3.2,1 3.1,1 3.1,1 C3,0.9 2.8,0.9 2.7,0.9 C2.5,0.9 2.4,1 2.3,1 C2.2,1 2.1,1 2.1,1 C2.1,1 2.1,1 2.2,0.9 C2.3,0.8 2.4,0.7 2.5,0.6 C2.6,0.6 2.7,0.5 2.8,0.5 C2.9,0.5 3,0.4 3.2,0.5 C3.3,0.5 3.5,0.6 3.6,0.7 C3.7,0.8 3.8,0.9 3.8,1.1 C4,1.6 4,2.1 3.9,2.4 C3.9,2.7 3.8,3 3.8,3 L3.4,2.9 Z" fill="#BF8865"/>
            </g>
            <g transform="translate(6.000000, 6.000000)">
              <path d="M3.3,4.1 C3.3,4.1 5.7,-2.4 8.1,1.2 C8.5,1.8 8.1,4.9 6.5,6.3 C5.1,7.5 0.7,7.6 0.8,5.2 C0.8,4.2 3.3,4.1 3.3,4.1 Z" fill="#FFD0AE"/>
              <path d="M1.4,6.6 C1.4,6.6 1.3,6.6 1.1,6.5 C0.9,6.4 0.7,6.2 0.5,6 C0.4,5.9 0.3,5.7 0.3,5.5 C0.3,5.3 0.3,5 0.5,4.8 C0.6,4.7 0.6,4.6 0.7,4.5 C0.8,4.4 0.9,4.4 1,4.3 C1.2,4.2 1.4,4.1 1.6,4 C2.5,3.8 3.3,3.8 4,4 C4.3,4.1 4.6,4.2 4.7,4.3 C4.9,4.4 4.9,4.5 4.9,4.5 C4.9,4.5 4.5,4.4 3.9,4.4 C3.3,4.4 2.5,4.5 1.8,4.7 C1.6,4.7 1.4,4.8 1.3,4.9 C1.2,4.9 1.2,5 1.1,5 L1,5.1 C0.8,5.3 0.8,5.6 0.9,5.9 C1,6.2 1.2,6.4 1.3,6.5 C1.3,6.5 1.4,6.6 1.4,6.6 Z" fill="#BF8865"/>
            </g>
            <path d="M14.4,5.8 C14.4,5.8 14.5,6 14.6,6.3 C14.7,6.6 14.7,7.1 14.7,7.7 C14.7,8.3 14.6,8.9 14.3,9.6 C14.2,10 14.1,10.3 13.9,10.6 C13.7,10.9 13.5,11.3 13.3,11.6 C13.2,11.8 13,11.9 12.9,12.1 L12.4,12.5 C12.3,12.6 12.1,12.7 11.9,12.8 C11.7,12.9 11.6,13 11.4,13.1 C11,13.2 10.7,13.3 10.3,13.3 C10,13.3 9.6,13.4 9.4,13.3 C9.1,13.2 8.8,13.2 8.6,13.1 C8.4,13 8.2,12.9 8,12.9 C7.7,12.8 7.5,12.7 7.5,12.7 C7.5,12.7 7.7,12.7 8,12.8 C8.2,12.8 8.4,12.9 8.6,12.9 C8.8,12.9 9.1,12.9 9.3,12.9 C9.6,12.9 9.9,12.9 10.2,12.8 C10.5,12.8 10.8,12.6 11.1,12.5 C11.4,12.4 11.7,12.2 11.9,12 L12.3,11.7 L12.6,11.3 C12.8,11 13,10.7 13.2,10.4 C13.3,10.1 13.5,9.8 13.6,9.4 C13.9,8.8 14,8.1 14.1,7.6 C14.2,7.1 14.3,6.6 14.3,6.3 C14.5,6 14.4,5.8 14.4,5.8 Z" fill="#BF8865"/>
            <path d="M9.5,10.3 C9.5,10.3 9.4,10.3 9.3,10.2 C9.2,10.1 9.1,10.1 8.9,9.9 C8.6,9.6 8.4,9.2 8.4,8.7 C8.3,8.2 8.4,7.8 8.4,7.4 C8.5,7.1 8.6,6.8 8.6,6.8 C8.6,6.8 8.7,7 8.8,7.4 C8.9,7.7 8.9,8.2 9,8.6 C9.1,9 9.1,9.4 9.2,9.7 C9.4,10.1 9.5,10.3 9.5,10.3 Z" fill="#BF8865"/>
          </g>
          <g transform="translate(10.000000, 25.000000)" id="Shape">
            <path d="M10.2,36.1 C10.2,36.1 3.5,38 0.3,30.8 L1.6,28.1 C1.6,28.1 -0.2,25.8 1,23.2 C2.1,20.5 4.2,19.3 4.6,17.5 C5,15.7 10,6.8 11.5,4 C16.1,-4.7 25.6,4.2 25.7,8.1 C25.8,12 22.5,15.7 21.8,18 C21.1,20.3 19.2,23.8 18.1,25.2 C17,26.6 15.9,30.4 14.4,31.6 C12.9,32.8 11.5,33.5 11.5,33.5 L10.2,36.1 Z" fill="#CCAD87"/>
            <path d="M6.6,31.4 C6.6,31.4 6.1,31.3 5.4,30.9 C4.7,30.6 3.6,30.1 2.4,29.2 C1.8,28.8 1.3,28.2 0.8,27.5 C0.3,26.8 -4.24660307e-15,25.9 0.1,24.9 C0.1,24.4 0.2,24 0.4,23.5 C0.6,23.1 0.8,22.6 1,22.2 C1.4,21.4 1.9,20.6 2.4,19.8 C2.9,19 3.5,18.3 3.9,17.5 C4.3,16.7 4.7,15.9 5,15.1 C5.7,13.5 6.5,12 7.2,10.8 C7.9,9.6 8.6,8.6 9,7.9 C9.5,7.2 9.8,6.8 9.8,6.8 C9.8,6.8 9.6,7.2 9.2,7.9 C8.8,8.6 8.2,9.6 7.6,10.9 C7,12.2 6.3,13.7 5.6,15.3 C5.3,16.1 4.9,17 4.5,17.8 C4.1,18.7 3.5,19.4 3,20.2 C2.5,21 2,21.8 1.6,22.6 C1.4,23 1.1,23.4 1,23.8 C0.8,24.2 0.7,24.6 0.7,25 C0.6,25.8 0.9,26.6 1.3,27.3 C1.7,28 2.2,28.5 2.7,29 C3.7,29.9 4.8,30.5 5.5,30.9 C6.2,31.3 6.6,31.4 6.6,31.4 Z" fill="#8C6C54"/>
            <path d="M9.3,32.8 C9.3,32.8 9.7,33.1 10.4,33.2 C10.8,33.3 11.2,33.3 11.7,33.2 C12.2,33.1 12.7,32.9 13.2,32.5 C13.7,32.1 14.1,31.6 14.5,31 C14.9,30.4 15.3,29.7 15.7,29.1 C16.1,28.4 16.4,27.7 16.7,26.9 C17,26.1 17.5,25.3 18,24.6 C18.9,23.2 19.8,21.7 20.5,20.3 C20.8,19.6 21.2,18.9 21.4,18.2 C21.6,17.5 22,16.8 22.3,16.3 C22.9,15.1 23.5,14.3 23.9,13.6 C24.3,13 24.6,12.6 24.6,12.6 C24.6,12.6 24.4,13 24,13.6 C23.6,14.3 23.1,15.2 22.6,16.4 C22.3,17 22.1,17.6 21.9,18.3 C21.7,19 21.4,19.8 21,20.5 C20.3,22 19.5,23.5 18.5,25 C18,25.7 17.6,26.4 17.2,27.2 C16.9,28 16.5,28.7 16.1,29.5 C15.7,30.2 15.2,30.9 14.8,31.5 C14.4,32.1 13.9,32.6 13.3,33 C12.8,33.4 12.2,33.6 11.6,33.7 C11.1,33.8 10.6,33.7 10.2,33.6 C9.8,33.5 9.6,33.3 9.4,33.2 C9.4,32.9 9.3,32.8 9.3,32.8 Z" fill="#8C6C54"/>
            <path d="M10.3,36.1 C10.3,36.1 10.1,36.2 9.8,36.3 C9.5,36.4 9,36.5 8.4,36.5 C8.1,36.5 7.8,36.5 7.4,36.5 C7.1,36.5 6.7,36.4 6.3,36.4 C5.9,36.3 5.5,36.2 5.2,36.1 C4.8,36 4.5,35.8 4.1,35.6 C3.7,35.4 3.4,35.1 3.1,34.9 C2.8,34.6 2.5,34.4 2.2,34.1 C2,33.8 1.7,33.5 1.5,33.2 C1.3,32.9 1.1,32.6 1,32.4 C0.7,31.9 0.5,31.4 0.4,31.1 C0.3,30.8 0.2,30.6 0.2,30.6 C0.2,30.6 0.3,30.8 0.5,31.1 C0.7,31.4 0.9,31.8 1.3,32.3 C1.5,32.5 1.7,32.8 1.9,33 C2.1,33.2 2.4,33.5 2.6,33.8 C2.9,34 3.1,34.3 3.4,34.5 C3.7,34.7 4,34.9 4.3,35.1 C4.6,35.3 5,35.5 5.3,35.6 C5.6,35.7 6,35.9 6.3,36 C7,36.2 7.7,36.3 8.2,36.3 C8.8,36.3 9.3,36.3 9.6,36.3 C10.1,36.2 10.3,36.1 10.3,36.1 Z" fill="#8C6C54"/>
          </g>
          <g id="Shape">
            <path d="M23.9,40.3 C23.9,40.3 24.2,40.3 24.6,40.2 C24.8,40.2 25.1,40.1 25.3,40.1 C25.6,40.1 25.8,40 26.1,40 C26.7,39.9 27.2,39.8 27.6,39.7 C27.8,39.7 28,39.6 28.1,39.6 C28.2,39.6 28.3,39.6 28.3,39.6 C28.3,39.6 28.1,39.8 27.7,40 C27.5,40.1 27.3,40.2 27,40.3 C26.7,40.4 26.4,40.4 26.2,40.5 C25.6,40.6 25,40.6 24.6,40.5 C24.2,40.4 23.9,40.3 23.9,40.3 Z" fill="#8C6C54"/>
            <path d="M32.8,34.1 C34.8,31.7 33,26.1 30.9,24.1 C28.8,22.1 24,11.4 21.6,8.3 C19.2,5.2 12.7,-2.3 4.3,1.8 C-5.4,6.6 6.5,26.6 11.9,31.5 C17.4,36.4 19,38.6 21,39.3 C23,40 30.1,37.4 32.8,34.1 Z" fill="#CCAD87"/>
            <path d="M24.6,39.2 C24.6,39.2 24.5,39.2 24.2,39.3 C24,39.4 23.6,39.4 23.2,39.5 C22.7,39.6 22.2,39.6 21.5,39.5 C20.9,39.4 20.1,39.1 19.5,38.7 C18.1,37.9 16.7,36.6 15.4,35.2 C14,33.8 12.4,32.5 10.9,31 C10.2,30.2 9.4,29.5 8.8,28.6 C8.1,27.8 7.5,27 7,26.2 C6.4,25.4 5.9,24.6 5.5,23.8 C5.1,23 4.7,22.3 4.3,21.5 C3.9,20.8 3.7,20.1 3.4,19.5 C3.1,18.9 2.9,18.4 2.8,18 C2.5,17.1 2.3,16.7 2.3,16.7 C2.3,16.7 2.5,17.2 2.9,18 C3.1,18.4 3.3,18.9 3.7,19.5 C4,20.1 4.3,20.7 4.7,21.4 C5.1,22.1 5.5,22.8 6,23.6 C6.5,24.4 7,25.1 7.6,25.9 C8.2,26.7 8.8,27.5 9.4,28.3 C10.1,29.1 10.8,29.8 11.5,30.6 C12.9,32.1 14.5,33.5 15.9,34.9 C16.6,35.6 17.2,36.3 17.8,36.9 C18.4,37.5 19.1,38.1 19.7,38.5 C20.3,38.9 21,39.2 21.6,39.4 C22.2,39.6 22.8,39.6 23.2,39.5 C24.1,39.2 24.6,39.2 24.6,39.2 Z" fill="#8C6C54"/>
            <path d="M32.8,34.1 C32.8,34.1 32.8,33.6 32.9,32.8 C33,32 33.2,30.9 33.3,29.5 C33.3,28.8 33.3,28.1 33,27.4 C32.7,26.7 32.3,26.1 31.8,25.4 C30.7,24 29.7,22.5 28.7,21 C27.7,19.4 26.8,17.8 26.1,16.3 C25.7,15.5 25.4,14.8 25,14.1 C24.6,13.4 24.3,12.8 23.9,12.2 C22.5,9.8 21.6,8.2 21.6,8.2 C21.6,8.2 21.9,8.6 22.4,9.2 C22.9,9.9 23.5,10.8 24.3,11.9 C24.7,12.5 25.1,13.1 25.5,13.8 C25.9,14.5 26.3,15.2 26.7,16 C27.5,17.5 28.4,19.1 29.4,20.6 C30.4,22.1 31.3,23.7 32.4,25 C32.9,25.7 33.4,26.4 33.6,27.2 C33.8,28 33.9,28.8 33.8,29.5 C33.7,30.2 33.6,30.8 33.5,31.4 C33.4,31.9 33.3,32.4 33.2,32.8 C32.8,33.7 32.8,34.1 32.8,34.1 Z" fill="#8C6C54"/>
          </g>
        </g>
        <g id="Group" transform="translate(129.000000, 119.000000)">
          <g id="Shape">
            <path d="M25.5,33.7 C25.6,33.3 33.1,13.1 28.5,7.1 C21.7,-1.7 8.1,-0.3 3.5,3.5 C-1.1,7.3 0.4,17.2 2.6,23.3 C3.7,26.2 3.8,28.1 4.8,31.8 C5.8,35.5 6.1,42.4 6.7,47 C7.6,53.3 6.6,57.7 5.5,59.5 C4.4,61.3 3.3,65.4 4.6,69.1 C5.5,71.4 9,78.7 7.3,90.5 C6.9,93.4 9.4,95.9 10.6,97 C12.3,98.7 12.7,103.7 12.7,103.7 C14.4,105.4 22.5,104.4 22.5,104.4 C22.7,99.7 22.5,96.4 20,94.7 C16.5,92.3 15.9,88.6 15.9,87.2 C16,83.6 16.1,77.3 18.1,71.8 C19.9,66.8 20.4,59.9 20.4,57.5 C20.6,53.6 22.5,47.2 25.5,33.7 Z" fill="#73432D"/>
            <path d="M7.1,53.3 C7.1,53.3 7.1,52.8 7.1,51.8 C7.1,50.8 7,49.5 6.9,47.8 C6.8,46.2 6.6,44.3 6.3,42.2 C6.2,41.2 6,40.1 5.9,39.1 C5.8,38 5.5,37 5.4,35.9 C5.2,34.8 5,33.8 4.8,32.7 C4.6,31.6 4.3,30.6 4.1,29.6 C3.9,28.6 3.6,27.6 3.4,26.7 C3.2,25.8 2.9,24.9 2.7,24.1 C2.5,23.3 2.3,22.6 2.1,21.9 C1.9,21.3 1.8,20.7 1.6,20.2 C1.3,19.3 1.2,18.7 1.2,18.7 C1.2,18.7 1.4,19.2 1.7,20.1 C2,21 2.5,22.3 3,23.9 C3.2,24.7 3.5,25.5 3.8,26.4 C4.1,27.3 4.3,28.3 4.6,29.3 C4.8,30.3 5.1,31.3 5.3,32.4 C5.5,33.5 5.7,34.5 5.9,35.6 C6.1,36.7 6.3,37.8 6.4,38.8 C6.5,39.9 6.7,40.9 6.8,42 C7,44 7.1,46 7.2,47.6 C7.2,49.2 7.2,50.6 7.2,51.6 C7.2,52.8 7.1,53.3 7.1,53.3 Z" fill="#543825"/>
            <path d="M26,32.2 C26,32.2 26.1,31.6 26.3,30.8 C26.5,29.9 26.8,28.8 27.1,27.7 C27.7,25.5 28.4,23.2 28.4,23.2 C28.4,23.2 28.4,23.8 28.4,24.7 C28.3,25.6 28.1,26.7 27.8,27.9 C27.5,29 27.1,30.1 26.7,30.9 C26.3,31.7 26,32.2 26,32.2 Z" fill="#543825"/>
            <path d="M9.8,63.6 C9.8,63.6 9.8,63.9 9.9,64.4 C10,64.9 10.1,65.5 10.3,66.1 C10.4,66.4 10.5,66.7 10.6,67 C10.7,67.3 10.9,67.5 11,67.7 C11.1,67.9 11.3,68.1 11.4,68.2 C11.5,68.3 11.6,68.4 11.6,68.4 C11.6,68.4 11.5,68.4 11.4,68.3 C11.3,68.2 11,68.2 10.8,68 C10.6,67.8 10.3,67.6 10.2,67.3 C10,67 9.9,66.7 9.7,66.3 C9.5,65.6 9.5,64.9 9.6,64.4 C9.6,63.9 9.8,63.6 9.8,63.6 Z" fill="#543825"/>
          </g>
          <path d="M13.8,107.9 C16.8,108.8 23.5,108.1 26.6,107.1 C26.6,107.1 27.2,103.3 26.2,100.2 C22.7,101.1 15.6,101.9 13.2,101.9 C14,104.2 13.8,107.9 13.8,107.9 Z" id="Shape" fill="#B3927E"/>
          <path d="M5.2,69.7 C5.7,74 6.6,85.1 3.3,87.2 C3.3,87.2 5.1,87 6.5,85.1 C6.5,85.1 4.7,86.5 4.7,90.8 C4.7,95.1 2.4,98.8 2.4,98.8 C2.4,98.8 4.9,97.9 5.8,96.3 C5.8,96.3 4.2,100.9 6.7,104 C6.7,104 6,102.8 7.9,100.6 C7.9,100.6 7.6,106 12.8,106.7 C12.8,106.7 11.6,105.2 11.9,102.8 C11.9,102.8 12.9,106.8 18.2,106.8 C17,105.6 15.7,102.9 15.4,101.9 C16.2,103.6 18.6,105.6 19.4,105.6 C18.9,105.6 18,102.5 18.5,101.4 C18.5,101.4 20.2,104.5 20.2,106.3 C20.2,106.3 23.8,104.3 22.7,100.8 C22.7,100.8 24.2,102.5 24.2,105 C25.1,104 25.8,102.9 25.6,101.5 C26.4,102.2 26.8,102.3 27.9,104.3 C27.9,104.3 29.4,97.1 24.8,95.8 C24.8,95.8 26.7,96.4 27.5,95.1 C27.5,95.1 22.8,93.3 21,90.3 C19.2,87.3 18.6,85.3 18.6,85.3 C18.6,85.3 18.7,86 20.5,88.2 C20.5,88.2 20.2,85.2 18.9,83.4 C16.8,80.5 17.5,72.1 17.5,72.1 C17.5,72.1 14.4,70 12.8,70.7 C11.2,71.4 10.3,73 8.7,71.8 C7.1,70.6 5.2,69.7 5.2,69.7 Z" id="Shape" fill="#D9C4B6"/>
        </g>
        <g id="Group" transform="translate(48.000000, 100.000000)">
          <g id="Shape">
            <path d="M44.1,25.4 C44.1,25.4 43.2,53 29.4,62.8 C15.6,72.6 14.4,83.6 14.8,92.4 C15,97.9 15.6,114.5 20.6,116.1 C26,117.8 24.5,126.7 24.5,126.7 C21.5,127.6 15.3,128.1 12.3,127.2 C12.3,127.2 12.4,119.8 10.2,119.2 C8,118.6 5.1,116.8 6.3,113.5 C7.5,110.2 5.9,95.4 4.4,90.9 C3,86.3 -1.7,78 1.8,73.2 C5.3,68.4 13.4,55.3 10.8,47 C8.2,38.7 -5.9,6.8 13.6,2.1 C33.1,-2.6 46.2,5 44.1,25.4 Z" fill="#73432D"/>
            <path d="M11.8,127.6 C14.8,128.5 21.5,127.8 24.6,126.8 C24.6,126.8 25.2,123 24.2,119.9 C20.7,120.8 13.6,121.6 11.2,121.6 C12,123.8 11.8,127.6 11.8,127.6 Z" fill="#B3927E"/>
            <path d="M5.3,82.4 C5.3,82.4 5,82 4.7,81.2 C4.6,80.8 4.4,80.4 4.4,79.9 C4.3,79.4 4.3,78.9 4.3,78.4 C4.4,78.1 4.4,77.9 4.5,77.6 C4.6,77.3 4.6,77.1 4.8,76.9 C4.9,76.7 5,76.5 5.2,76.3 C5.3,76.1 5.5,75.9 5.6,75.8 C5.9,75.5 6.2,75.3 6.4,75.2 C6.6,75.1 6.7,75 6.7,75 C6.7,75 6.6,75.1 6.5,75.3 C6.4,75.4 6.3,75.5 6.2,75.6 C6.1,75.7 6,75.9 5.9,76 C5.8,76.1 5.7,76.3 5.6,76.5 C5.5,76.7 5.4,76.9 5.3,77.1 C5.2,77.3 5.2,77.5 5.1,77.8 C5,78 5,78.3 5,78.5 C4.9,79.5 5,80.4 5.1,81.2 C5.1,81.9 5.3,82.4 5.3,82.4 Z" fill="#543825"/>
            <path d="M6.8,65.1 C6.8,65.1 7.1,64.5 7.7,63.4 C8.2,62.3 8.9,60.8 9.6,58.9 C10.3,57 11,54.7 11.2,52.2 C11.3,51 11.2,49.7 10.8,48.4 C10.4,47.1 10,45.8 9.5,44.6 C8.6,42 7.7,39.5 6.9,37 C6.1,34.6 5.6,32.2 5.1,30.3 C4.7,28.3 4.4,26.6 4.2,25.5 C4,24.3 3.9,23.7 3.9,23.7 C3.9,23.7 4,24.4 4.3,25.5 C4.4,26.1 4.6,26.8 4.8,27.6 C5,28.4 5.2,29.3 5.5,30.3 C5.8,31.3 6,32.3 6.4,33.5 C6.7,34.6 7.1,35.8 7.5,37 C8.3,39.4 9.2,41.9 10.2,44.5 C10.6,45.8 11.1,47.1 11.4,48.4 C11.8,49.7 11.9,51.1 11.8,52.4 C11.7,53.7 11.4,54.9 11.1,56 C10.8,57.1 10.4,58.2 10,59.1 C9.2,61 8.4,62.5 7.8,63.5 C7.2,64.5 6.8,65.1 6.8,65.1 Z" fill="#543825"/>
            <path d="M31.2,61.5 C31.2,61.5 31.7,61.1 32.4,60.3 C32.8,59.9 33.2,59.4 33.6,58.8 C34,58.2 34.6,57.5 35.1,56.8 C35.3,56.4 35.6,56 35.9,55.6 C36.1,55.2 36.4,54.7 36.7,54.3 C37.2,53.4 37.7,52.4 38.2,51.4 C38.6,50.3 39.2,49.3 39.6,48.1 C40,47 40.4,45.8 40.8,44.6 L41.3,42.9 C41.5,42.3 41.6,41.7 41.8,41.1 C42.1,39.9 42.4,38.8 42.6,37.7 C42.8,36.6 43.1,35.5 43.2,34.4 C43.4,33.4 43.5,32.4 43.6,31.5 C43.9,29.7 44,28.1 44.1,27.1 C44.2,26 44.3,25.4 44.3,25.4 C44.3,25.4 44.3,26 44.2,27.1 C44.2,27.6 44.1,28.3 44.1,29 C44.1,29.8 44,30.6 43.9,31.5 C43.8,32.4 43.7,33.4 43.6,34.5 C43.5,35.6 43.3,36.7 43.1,37.8 C42.9,38.9 42.6,40.1 42.4,41.3 C42.3,41.9 42.1,42.5 42,43.1 L41.5,44.9 C41.2,46.1 40.7,47.2 40.3,48.4 C39.9,49.6 39.3,50.6 38.9,51.7 C38.4,52.7 37.9,53.7 37.3,54.6 C37,55.1 36.8,55.5 36.5,55.9 C36.2,56.3 35.9,56.7 35.7,57.1 C35.2,57.9 34.6,58.5 34.1,59.1 C33.6,59.7 33.2,60.1 32.8,60.5 C31.7,61.2 31.2,61.5 31.2,61.5 Z" fill="#543825"/>
          </g>
          <path d="M4,89.3 C4.5,93.6 4.5,104.6 1.3,106.8 C1.3,106.8 3.1,106.6 4.5,104.7 C4.5,104.7 2.7,106.1 2.7,110.4 C2.7,114.7 0.4,118.4 0.4,118.4 C0.4,118.4 2.9,117.5 3.8,115.9 C3.8,115.9 2.2,120.5 4.7,123.6 C4.7,123.6 4,122.4 5.9,120.2 C5.9,120.2 5.6,125.6 10.8,126.3 C10.8,126.3 9.6,124.8 9.9,122.4 C9.9,122.4 10.9,126.4 16.2,126.4 C15,125.2 13.7,122.5 13.4,121.5 C14.2,123.2 16.6,125.2 17.4,125.2 C16.9,125.2 16,122.1 16.5,121 C16.5,121 18.2,124.1 18.2,125.9 C18.2,125.9 21.8,123.9 20.7,120.4 C20.7,120.4 22.2,122.1 22.2,124.6 C23.1,123.6 23.8,122.5 23.6,121.1 C24.4,121.8 24.8,121.9 25.9,123.9 C25.9,123.9 27.4,116.7 22.8,115.4 C22.8,115.4 24.7,116 25.5,114.7 C25.5,114.7 20.8,112.9 19,109.9 C17.2,106.9 16.6,104.9 16.6,104.9 C16.6,104.9 16.7,105.6 18.5,107.8 C18.5,107.8 18.2,104.8 16.9,103 C14.8,100.1 14.6,92.4 14.6,92.4 C14.6,92.4 12.5,89.6 10.9,90.3 C9.3,91 8.4,92.6 6.8,91.4 C5.4,90.2 4,89.3 4,89.3 Z" id="Shape" fill="#D9C4B6"/>
        </g>
        <g id="Group" transform="translate(0.000000, 88.000000)">
          <g id="Shape">
            <path d="M43.7,14 C33.8,10.6 32.2,29.3 35,41.3 C37.8,53.3 32,57.4 30.1,62.9 C28.2,68.4 31.7,70.5 31.7,70.5 C29,71.6 27.3,69.1 27.3,69.1 C27.3,69.1 30,77.3 27.6,81.1 C25.2,84.9 28.4,88.5 28.4,88.5 C24.9,88.5 24.6,84.1 24.6,84.1 C24.6,92 17.5,94.7 17.5,94.7 C18,104.8 8.5,106.2 8.5,106.2 C12.3,103.5 10.7,98.8 10.7,98.8 C8.5,106.2 0.9,103.4 0.9,103.4 C6.6,104.5 9.4,95.5 4.4,92.5 C-0.6,89.5 4.7,81.3 4.7,81.3 C2.2,82.1 0.3,80.2 0.3,80.2 C7.7,79.1 3.6,70.1 3.3,62.7 C3,55.3 9.3,53.1 9.3,53.1 C3.3,53.1 4.7,47.9 4.7,47.9 C4.7,47.9 5,52.3 11.3,49.5 C17.6,46.7 11.6,29.8 11.6,21.4 C11.6,12.9 17.9,3.9 28.8,0.7 C39.7,-2.6 46.3,9.4 46.3,9.4 C49.2,15 46.8,15.1 43.7,14 Z" fill="#453027"/>
            <path d="M31.7,70.5 C31.7,70.5 31.6,70.6 31.3,70.7 C31.1,70.8 30.7,71 30.2,71 C30,71 29.7,71 29.4,71 C29.1,71 28.8,70.8 28.5,70.7 C28.2,70.5 27.9,70.4 27.7,70.1 C27.4,69.9 27.3,69.6 27.1,69.3 C26.9,69 26.8,68.7 26.6,68.5 C26.5,68.2 26.4,67.9 26.3,67.6 C26.1,67 26.1,66.5 26,66 C25.9,65.1 25.9,64.4 25.9,64.4 C25.9,64.4 26.1,65 26.3,65.9 C26.5,66.3 26.6,66.8 26.8,67.4 C26.9,67.7 27,67.9 27.1,68.2 C27.2,68.4 27.4,68.7 27.5,69 C27.7,69.2 27.8,69.5 28,69.7 C28.2,69.9 28.4,70.1 28.6,70.2 C28.8,70.3 29,70.5 29.3,70.5 C29.5,70.6 29.8,70.6 30,70.6 C30.4,70.6 30.8,70.6 31.1,70.5 C31.6,70.5 31.7,70.5 31.7,70.5 Z" fill="#261A11"/>
            <path d="M28.4,88.5 C28.4,88.5 28.2,88.6 27.9,88.6 C27.7,88.6 27.6,88.6 27.3,88.6 C27.2,88.6 27.1,88.6 27,88.5 C26.9,88.5 26.8,88.4 26.6,88.3 C26.4,88.2 26.1,88 25.9,87.8 C25.7,87.6 25.5,87.3 25.3,87 C25.1,86.7 24.9,86.4 24.8,86.1 C24.7,85.8 24.5,85.4 24.5,85.1 C24.4,84.8 24.3,84.4 24.3,84.1 C24.3,83.8 24.2,83.4 24.2,83.1 C24.2,82.8 24.2,82.5 24.2,82.2 C24.2,81.9 24.2,81.6 24.2,81.4 C24.3,80.4 24.3,79.7 24.3,79.7 C24.3,79.7 24.4,80.4 24.5,81.4 C24.6,81.9 24.7,82.5 24.8,83.1 C24.9,83.4 24.9,83.7 25,84.1 C25.1,84.4 25.2,84.7 25.2,85.1 C25.3,85.4 25.4,85.7 25.5,86 C25.6,86.3 25.8,86.6 25.9,86.9 C26.1,87.1 26.2,87.4 26.4,87.6 C26.6,87.8 26.8,88 27,88.1 C27.2,88.2 27.4,88.3 27.6,88.4 C27.8,88.5 28,88.5 28.1,88.5 C28.3,88.5 28.4,88.5 28.4,88.5 Z" fill="#261A11"/>
            <path d="M21.6,91.6 C21.2,92.4 20.6,93 20,93.6 C19.7,93.9 19.3,94.1 18.9,94.3 C18.5,94.5 18.1,94.7 17.7,94.8 C17.5,94.9 17.3,94.9 17.1,95 C16.9,95.1 16.7,95.1 16.5,95.1 L15.8,95.2 L15.1,95.2 C14.7,95.2 14.2,95.1 13.8,95 C13.6,95 13.4,94.9 13.2,94.8 C13,94.7 12.8,94.6 12.6,94.6 C13.3,94.5 14.1,94.2 14.7,93.9 C15,93.7 15.3,93.5 15.6,93.3 C15.9,93.1 16.2,92.8 16.4,92.5 C16.5,92.4 16.6,92.2 16.7,92.1 C16.8,92 16.9,91.8 17,91.6 L17.3,91.1 L17.5,90.6 C17.7,90.3 17.7,89.9 17.8,89.5 C17.9,89.1 17.9,88.8 18,88.4 C18,88.6 18,88.8 18,89 C18,89.2 18,89.4 18,89.6 C17.9,90 17.9,90.4 17.8,90.7 L17.6,91.3 L17.3,91.8 C17.1,92.1 16.9,92.5 16.6,92.8 C16.3,93.1 16,93.3 15.7,93.6 L15.2,93.9 L14.7,94.2 C14,94.5 13.2,94.7 12.5,94.7 C12.9,94.7 13.3,94.8 13.8,94.8 L14.4,94.8 C14.6,94.8 14.8,94.8 15,94.8 C15.4,94.8 15.8,94.8 16.2,94.7 C16.4,94.7 16.6,94.6 16.8,94.6 C17,94.6 17.2,94.5 17.4,94.5 C17.8,94.4 18.2,94.2 18.5,94.1 C18.9,93.9 19.2,93.7 19.6,93.5 C19.9,93.3 20.3,93 20.6,92.8 C21,92.3 21.3,92 21.6,91.6 Z" fill="#261A11"/>
            <path d="M0.9,103.5 C0.9,103.5 1.1,103.5 1.6,103.6 C2,103.7 2.6,103.7 3.3,103.7 C3.7,103.7 4,103.7 4.4,103.6 C4.8,103.6 5.2,103.5 5.6,103.4 C6,103.3 6.4,103.2 6.9,103 C7.3,102.8 7.7,102.6 8.1,102.3 C8.5,102.1 8.8,101.7 9.1,101.4 C9.4,101.1 9.6,100.7 9.9,100.3 C10.1,99.9 10.2,99.5 10.4,99.2 C10.5,98.8 10.6,98.4 10.7,98.1 C10.8,97.8 10.9,97.4 10.9,97.2 C10.9,96.9 11,96.7 11,96.5 C11.1,96.1 11.1,95.8 11.1,95.8 C11.1,95.8 11.1,96 11.1,96.5 C11.1,96.7 11.1,97 11.1,97.3 C11.1,97.4 11.1,97.6 11.1,97.8 C11.1,98 11,98.1 11,98.3 C10.9,98.7 10.9,99.1 10.8,99.5 C10.7,99.9 10.5,100.3 10.3,100.8 C10,101.2 9.8,101.6 9.5,102 C9.2,102.4 8.8,102.8 8.4,103 C8,103.3 7.5,103.5 7.1,103.7 C6.6,103.9 6.2,104 5.7,104.1 C5.2,104.2 4.8,104.2 4.4,104.2 C4,104.2 3.6,104.2 3.2,104.2 C1.8,103.9 0.9,103.5 0.9,103.5 Z" fill="#261A11"/>
            <path d="M0.3,80.3 C0.3,80.3 0.9,80.6 1.7,80.9 C1.9,81 2.2,81 2.4,81.1 C2.7,81.2 2.9,81.2 3.2,81.2 C3.5,81.2 3.8,81.2 4,81.2 C4.3,81.2 4.6,81.1 4.8,81 C5.1,80.9 5.3,80.8 5.6,80.6 C5.8,80.4 6.1,80.3 6.3,80.1 C6.5,79.9 6.7,79.7 6.9,79.5 C7.1,79.3 7.2,79.1 7.4,78.9 C7.7,78.5 7.9,78.2 8,78 C8.2,77.8 8.2,77.6 8.2,77.6 C8.2,77.6 8.2,77.8 8.1,78 C8,78.3 7.9,78.7 7.7,79.1 C7.6,79.3 7.5,79.5 7.3,79.8 C7.1,80 6.9,80.3 6.7,80.5 C6.5,80.7 6.2,80.9 6,81.1 C5.7,81.3 5.4,81.4 5.1,81.6 C4.8,81.7 4.4,81.8 4.1,81.8 C3.8,81.9 3.4,81.8 3.1,81.8 C2.5,81.7 1.9,81.5 1.5,81.3 C0.7,80.8 0.3,80.3 0.3,80.3 Z" fill="#261A11"/>
            <path d="M4.7,48.1 C4.7,48.1 4.7,48.3 4.7,48.7 C4.7,49.1 4.7,49.6 4.8,50.2 C4.8,50.5 5,50.8 5.1,51.1 C5.2,51.2 5.3,51.4 5.3,51.5 C5.4,51.7 5.5,51.8 5.6,51.9 C5.7,52.1 5.9,52.1 6,52.3 C6.1,52.4 6.3,52.5 6.5,52.6 C6.7,52.7 6.8,52.8 7,52.8 L7.6,52.9 C8,53 8.4,52.9 8.8,53 C9.2,53 9.6,52.9 10,52.9 C10.8,52.8 11.4,52.6 12.1,52.5 C13.3,52.2 14.1,52 14.1,52 C14.1,52 13.4,52.4 12.2,52.9 C11.9,53 11.6,53.1 11.2,53.2 C10.9,53.3 10.5,53.4 10.1,53.5 C9.7,53.5 9.3,53.7 8.9,53.7 C8.5,53.7 8,53.7 7.6,53.6 L7,53.5 C6.8,53.4 6.6,53.3 6.4,53.2 C6.2,53.1 6,53 5.9,52.8 C5.7,52.7 5.6,52.5 5.4,52.3 C5.3,52.1 5.1,52 5.1,51.8 C5,51.6 4.9,51.4 4.9,51.3 C4.8,50.9 4.7,50.6 4.7,50.3 C4.6,49.7 4.7,49.1 4.8,48.8 C4.6,48.3 4.7,48.1 4.7,48.1 Z" fill="#261A11"/>
            <path d="M44.8,10.5 C44.8,10.5 44.3,9.6 43.2,8.5 C42.9,8.2 42.7,7.9 42.3,7.6 C42,7.3 41.6,7 41.3,6.7 C40.9,6.4 40.5,6.1 40.1,5.9 C39.7,5.7 39.2,5.4 38.8,5.3 C38.4,5.1 37.9,5 37.4,4.9 C36.9,4.8 36.4,4.8 36,4.7 C35.5,4.7 35.1,4.7 34.7,4.7 C34.3,4.7 33.9,4.8 33.5,4.8 C33.1,4.9 32.8,4.9 32.5,5 C32.2,5.1 31.9,5.1 31.7,5.2 C31.3,5.3 31,5.4 31,5.4 C31,5.4 31.2,5.3 31.6,5.1 C31.8,5 32.1,4.9 32.4,4.8 C32.7,4.7 33,4.6 33.4,4.5 C33.8,4.4 34.2,4.3 34.6,4.3 C35,4.3 35.5,4.2 36,4.2 C36.5,4.3 37,4.2 37.5,4.4 C38,4.5 38.5,4.6 39,4.8 C39.5,5 40,5.2 40.4,5.5 C40.9,5.8 41.3,6.1 41.6,6.4 C42.4,7 43,7.7 43.4,8.3 C44.5,9.5 44.8,10.5 44.8,10.5 Z" fill="#261A11"/>
            <path d="M43.6,12 C43.6,12 43.3,11.8 42.9,11.4 C42.4,11.1 41.7,10.6 40.8,10.2 C39.9,9.8 38.8,9.4 37.6,9.3 C36.4,9.2 35.1,9.5 34,10.2 C33.4,10.5 33,11 32.5,11.4 C32.3,11.6 32.1,11.9 31.9,12.1 C31.7,12.4 31.5,12.6 31.3,12.9 C31,13.4 30.6,13.9 30.4,14.5 C30.1,15 29.9,15.5 29.7,16 C29.5,16.5 29.3,16.9 29.2,17.3 C29,17.7 28.9,18 28.8,18.3 C28.6,18.9 28.5,19.2 28.5,19.2 C28.5,19.2 28.6,18.9 28.7,18.3 C28.8,18 28.8,17.7 29,17.3 C29.1,16.9 29.2,16.4 29.4,16 C29.8,15 30.2,13.9 30.9,12.8 C31.1,12.5 31.3,12.3 31.5,12 C31.7,11.7 31.9,11.5 32.1,11.2 C32.6,10.7 33.1,10.2 33.7,9.8 C34.9,9 36.4,8.7 37.7,8.9 C39,9 40.2,9.5 41.1,10.1 C42,10.6 42.7,11.2 43.1,11.6 C43.4,11.8 43.6,12 43.6,12 Z" fill="#261A11"/>
          </g>
          <path d="M42.7,13.9 C42.7,13.9 42.4,13.8 41.8,13.7 C41.5,13.7 41.2,13.7 40.8,13.7 C40.4,13.8 40,13.8 39.6,14 C39.4,14.1 39.2,14.2 39,14.3 C38.8,14.4 38.6,14.6 38.4,14.7 C38.2,14.9 38,15 37.8,15.3 C37.6,15.5 37.4,15.7 37.3,16 C37,16.5 36.7,17 36.4,17.5 C36.2,18.1 35.9,18.6 35.7,19.2 C35.5,19.8 35.3,20.4 35.2,21 C35.1,21.6 34.9,22.2 34.8,22.8 C34.7,23.4 34.6,23.9 34.5,24.5 C34.4,25 34.3,25.5 34.3,26 C34.1,27.9 33.9,29.2 33.9,29.2 C33.9,29.2 33.9,27.9 33.9,26 C33.9,25.5 34,25 34,24.5 C34.1,24 34.1,23.4 34.2,22.8 C34.3,22.2 34.4,21.6 34.6,21 C34.7,20.4 34.9,19.8 35.1,19.1 C35.3,18.5 35.6,17.9 35.8,17.3 C36.1,16.7 36.4,16.2 36.8,15.7 C37,15.5 37.2,15.2 37.4,15 C37.6,14.8 37.9,14.6 38.1,14.4 C38.3,14.2 38.6,14.1 38.8,14 C39,13.9 39.3,13.7 39.5,13.7 C40,13.5 40.4,13.5 40.8,13.5 C41.2,13.5 41.5,13.5 41.8,13.6 C42.4,13.8 42.7,13.9 42.7,13.9 Z" id="Shape" fill="#261A11"/>
          <path d="M8.5,106.2 C8.5,106.2 8.7,106.1 9.2,106 C9.6,105.9 10.2,105.7 10.9,105.3 C11.6,105 12.3,104.5 13,104 C13.4,103.7 13.7,103.4 14.1,103.1 C14.5,102.8 14.7,102.4 15,102 C15.3,101.6 15.5,101.2 15.8,100.8 C16,100.4 16.2,99.9 16.4,99.5 C16.5,99.1 16.7,98.6 16.8,98.3 C16.9,97.9 17,97.5 17.1,97.1 C17.2,96.7 17.3,96.4 17.3,96.1 C17.3,95.8 17.4,95.5 17.4,95.3 C17.5,94.9 17.5,94.6 17.5,94.6 C17.5,94.6 17.5,94.9 17.5,95.3 C17.5,95.5 17.5,95.8 17.5,96.1 C17.5,96.4 17.5,96.8 17.4,97.1 C17.3,97.5 17.3,97.9 17.2,98.3 C17.1,98.7 17,99.2 16.8,99.6 C16.6,100 16.4,100.5 16.2,101 C15.9,101.4 15.7,101.9 15.4,102.3 C15.1,102.7 14.8,103.1 14.4,103.4 C14,103.8 13.6,104.1 13.3,104.3 C12.9,104.6 12.5,104.8 12.1,105 C11.7,105.2 11.3,105.4 11,105.5 C10.3,105.8 9.7,105.9 9.2,105.9 C8.8,106.2 8.5,106.2 8.5,106.2 Z" id="Shape" fill="#261A11"/>
          <path d="M11.2,49.7 C11.2,49.7 11.4,49.7 11.6,49.5 C11.9,49.3 12.2,49.1 12.5,48.6 C12.8,48.1 13.2,47.6 13.4,46.8 C13.6,46.1 13.8,45.2 13.9,44.2 C13.9,43.7 14,43.2 14,42.7 C14,42.2 14,41.7 13.9,41.1 C13.8,40.6 13.8,40 13.7,39.4 C13.6,38.8 13.5,38.2 13.4,37.7 C13.2,36.5 13,35.3 12.7,34.1 C12.4,32.9 12.2,31.6 11.9,30.3 C11.7,29 11.5,27.8 11.3,26.5 C11.1,25.2 11,24 11,22.8 C11,21.6 11,20.4 11.2,19.3 C11.3,18.7 11.4,18.2 11.5,17.7 C11.7,17.2 11.8,16.7 11.9,16.2 C12.6,14.4 13.4,13 14,12 C14.3,11.5 14.6,11.2 14.7,10.9 C14.9,10.6 15,10.5 15,10.5 C15,10.5 14.7,11.1 14.1,12 C13.6,13 12.8,14.4 12.2,16.2 C12,16.7 12,17.1 11.8,17.6 C11.7,18.1 11.6,18.6 11.6,19.2 C11.5,20.3 11.5,21.4 11.5,22.6 C11.6,23.8 11.7,25 11.9,26.3 C12.1,27.5 12.3,28.8 12.5,30.1 C12.7,31.4 13,32.6 13.2,33.9 C13.5,35.1 13.7,36.4 13.9,37.6 C14,38.2 14.1,38.8 14.1,39.4 C14.1,40 14.2,40.6 14.2,41.1 C14.2,41.7 14.2,42.2 14.2,42.7 C14.2,43.2 14.1,43.7 14.1,44.2 C14,44.7 14,45.1 13.9,45.6 C13.8,46 13.7,46.4 13.5,46.8 C13.2,47.6 12.8,48.1 12.5,48.6 C12.1,49 11.8,49.3 11.5,49.4 C11.4,49.7 11.2,49.7 11.2,49.7 Z" id="Shape" fill="#261A11"/>
        </g>
        <g id="Group" transform="translate(33.000000, 89.000000)">
          <g id="Shape">
            <g>
              <path d="M128.1,16.6 C133.5,27.3 134.5,40.2 130.5,50.5 C122.1,71.8 87.2,72 62.6,62.6 C52.3,58.7 42,61.9 18.5,58.7 C4.7,56.8 -4.6,39.2 2.8,22 C10.2,4.8 29.2,-1.8 44.4,6 C62.6,15.3 91.2,5.7 97.9,1.8 C104,-1.8 122.7,5.9 128.1,16.6 Z" fill="#874E35"/>
              <path d="M45.4,6.4 C45.4,6.4 46,6.7 47.2,7.1 C47.8,7.3 48.5,7.5 49.3,7.7 C50.1,7.9 51.1,8.1 52.1,8.4 C53.1,8.6 54.2,8.8 55.4,8.9 C56,9 56.6,9.1 57.2,9.1 C57.8,9.2 58.5,9.2 59.1,9.3 C60.4,9.4 61.8,9.4 63.1,9.5 C64.5,9.5 65.9,9.5 67.3,9.4 C68.7,9.3 70.1,9.2 71.5,9.1 C72.9,8.9 74.2,8.8 75.5,8.6 C76.8,8.4 78,8.1 79.2,7.9 C80.4,7.7 81.5,7.4 82.5,7.1 C83.5,6.9 84.5,6.7 85.3,6.4 C86.1,6.2 86.8,6 87.4,5.8 C88.6,5.5 89.3,5.3 89.3,5.3 C89.3,5.3 88.6,5.5 87.5,5.9 C86.9,6.1 86.2,6.3 85.4,6.6 C84.6,6.9 83.7,7.2 82.6,7.4 C81.6,7.7 80.5,8 79.3,8.3 C78.1,8.5 76.9,8.8 75.6,9.1 C74.3,9.3 72.9,9.5 71.6,9.7 C70.2,9.9 68.8,9.9 67.4,10.1 C66,10.1 64.6,10.2 63.2,10.1 C61.8,10 60.4,10 59.1,9.9 C58.4,9.8 57.8,9.8 57.2,9.7 C56.6,9.6 56,9.5 55.4,9.4 C54.2,9.2 53.1,8.9 52,8.7 C51,8.4 50,8.2 49.2,7.9 C48.4,7.7 47.7,7.4 47.1,7.2 C46,6.8 45.4,6.4 45.4,6.4 Z" fill="#633C22"/>
            </g>
            <path d="M68.4,64.5 C68.4,64.5 69.3,64.8 70.8,65.2 C72.3,65.6 74.6,66.1 77.3,66.6 C82.7,67.6 89.9,68.6 97.2,68.3 C99,68.3 100.8,68.1 102.6,67.9 C104.4,67.7 106.1,67.4 107.8,67 C108.6,66.8 109.4,66.6 110.2,66.4 C111,66.2 111.8,66 112.5,65.7 C114,65.2 115.4,64.7 116.6,64.1 C117.2,63.8 117.8,63.5 118.4,63.2 C118.9,62.9 119.5,62.6 119.9,62.3 C120.9,61.8 121.6,61.2 122.3,60.8 C123.6,59.8 124.3,59.3 124.3,59.3 C124.3,59.3 123.6,59.9 122.4,60.9 C121.7,61.4 121,62 120,62.6 C119.5,62.9 119,63.2 118.5,63.5 C118,63.8 117.4,64.1 116.7,64.4 C115.5,65 114.1,65.6 112.6,66.1 C111.1,66.6 109.5,67.1 107.8,67.5 C106.1,67.9 104.4,68.2 102.6,68.4 C100.8,68.6 99,68.8 97.1,68.8 C95.3,68.9 93.4,68.8 91.6,68.7 C89.8,68.6 88,68.5 86.3,68.3 C82.9,67.9 79.7,67.3 77,66.8 C74.3,66.2 72.1,65.6 70.6,65.1 C69.3,64.8 68.4,64.5 68.4,64.5 Z" fill="#633C22"/>
          </g>
          <g transform="translate(129.000000, 19.000000)" id="Shape">
            <path d="M0.1,0.3 C0.1,0.3 3.3,9.3 6.1,10 C6.1,10 3.4,9.9 2.6,7.9 C2.6,7.9 6.3,11.3 6.3,14.2 C6.3,14.2 5.6,12.5 4.5,12.5 C4.5,12.5 7.4,16.9 3.8,20.1" fill="#874E35"/>
            <path d="M3.3,16.2 C3.3,16.2 3.5,16.8 3.7,17.7 C3.9,18.6 4,19.9 4,21.1 C4,22.3 3.8,23.6 3.6,24.5 C3.5,25 3.3,25.3 3.2,25.6 C3.1,25.9 3,26 3,26 C3,26 3,25.8 3,25.6 C3,25.3 3.1,24.9 3.1,24.5 C3.2,23.6 3.2,22.4 3.3,21.2 C3.3,20 3.3,18.8 3.3,17.8 C3.3,16.8 3.3,16.2 3.3,16.2 Z" fill="#633C22"/>
            <path d="M6,9.9 C6,9.9 5.9,9.9 5.7,9.9 C5.5,9.8 5.2,9.7 4.9,9.5 C4.3,9.1 3.6,8.4 3.1,7.6 C2.6,6.8 2.2,5.9 2,5.2 C1.9,4.9 1.8,4.6 1.8,4.4 C1.8,4.2 1.7,4.1 1.7,4.1 C1.7,4.1 2,4.5 2.3,5.1 C2.7,5.7 3.1,6.5 3.6,7.3 C4.1,8.1 4.6,8.8 5.1,9.3 C5.6,9.7 6,9.9 6,9.9 Z" fill="#633C22"/>
            <path d="M6.2,14.2 C6.2,14.2 6.1,13.9 5.9,13.4 C5.7,12.9 5.5,12.3 5.2,11.8 C4.9,11.2 4.6,10.7 4.3,10.3 C4.2,10.1 4.1,9.9 4,9.8 C3.9,9.7 3.9,9.6 3.9,9.6 C3.9,9.6 4,9.6 4.1,9.7 C4.2,9.8 4.4,9.9 4.6,10 C4.8,10.2 5,10.4 5.2,10.6 C5.4,10.9 5.6,11.2 5.7,11.5 C6,12.1 6.1,12.8 6.2,13.3 C6.3,13.8 6.2,14.2 6.2,14.2 Z" fill="#633C22"/>
            <path d="M4.4,12.5 C4.4,12.5 4.7,12.8 5,13.3 C5.2,13.5 5.3,13.9 5.4,14.2 C5.5,14.5 5.6,14.9 5.7,15.3 C5.8,15.7 5.8,16.1 5.7,16.5 C5.7,16.9 5.6,17.2 5.5,17.5 C5.4,17.8 5.3,18 5.2,18.1 C5.1,18.2 5.1,18.3 5.1,18.3 C5.1,18.3 5.1,18.2 5.1,18 C5.1,17.8 5.1,17.6 5.2,17.3 C5.2,17 5.2,16.7 5.2,16.4 C5.2,16.1 5.2,15.7 5.1,15.3 C5,14.6 4.8,13.9 4.7,13.3 C4.5,12.9 4.4,12.5 4.4,12.5 Z" fill="#633C22"/>
          </g>
        </g>
        <g id="Group" transform="translate(31.000000, 104.000000)">
          <g id="Shape">
            <path d="M43.9,25.1 C43.9,25.1 43,52.7 29.2,62.5 C15.4,72.3 14.2,83.3 14.6,92.1 C14.8,97.6 15.4,114.2 20.4,115.8 C25.8,117.5 24.3,126.4 24.3,126.4 C21.3,127.3 15.1,127.8 12.1,126.9 C12.1,126.9 12.2,119.5 10,118.9 C7.8,118.3 4.9,116.5 6.1,113.2 C7.3,109.9 5.7,95.1 4.2,90.6 C2.7,86.1 -1.9,77.7 1.6,72.9 C5.1,68.1 13.2,55 10.6,46.7 C8,38.4 -6.1,6.5 13.4,1.8 C32.9,-2.9 45.9,4.7 43.9,25.1 Z" fill="#874E35"/>
            <path d="M11.5,127.3 C14.5,128.2 21.2,127.5 24.3,126.5 C24.3,126.5 24.9,122.7 23.9,119.6 C20.4,120.5 13.3,121.3 10.9,121.3 C11.7,123.5 11.5,127.3 11.5,127.3 Z" fill="#B3927E"/>
            <path d="M5,82.1 C5,82.1 4.7,81.7 4.4,80.9 C4.3,80.5 4.1,80.1 4.1,79.6 C4,79.1 4,78.6 4,78.1 C4.1,77.8 4.1,77.6 4.2,77.3 C4.3,77 4.3,76.8 4.5,76.6 C4.6,76.4 4.7,76.2 4.9,76 C5,75.8 5.2,75.6 5.3,75.5 C5.6,75.2 5.9,75 6.1,74.9 C6.3,74.8 6.4,74.7 6.4,74.7 C6.4,74.7 6.3,74.8 6.2,75 C6.1,75.1 6,75.2 5.9,75.3 C5.8,75.4 5.7,75.6 5.6,75.7 C5.5,75.8 5.4,76 5.3,76.2 C5.2,76.4 5.1,76.6 5,76.8 C4.9,77 4.9,77.2 4.8,77.5 C4.7,77.7 4.7,78 4.7,78.2 C4.6,79.2 4.7,80.1 4.8,80.9 C4.9,81.6 5,82.1 5,82.1 Z" fill="#633C22"/>
            <path d="M6.5,64.8 C6.5,64.8 6.8,64.2 7.4,63.1 C7.9,62 8.6,60.5 9.3,58.6 C10,56.7 10.7,54.4 10.9,51.9 C11,50.7 10.9,49.4 10.5,48.1 C10.1,46.8 9.7,45.5 9.2,44.3 C8.3,41.7 7.4,39.2 6.6,36.7 C5.8,34.3 5.3,31.9 4.8,30 C4.4,28 4.1,26.3 3.9,25.2 C3.7,24 3.6,23.4 3.6,23.4 C3.6,23.4 3.7,24.1 4,25.2 C4.1,25.8 4.3,26.5 4.5,27.3 C4.7,28.1 4.9,29 5.2,30 C5.5,31 5.7,32 6.1,33.2 C6.4,34.3 6.8,35.5 7.2,36.7 C8,39.1 8.9,41.6 9.9,44.2 C10.3,45.5 10.8,46.8 11.1,48.1 C11.5,49.4 11.6,50.8 11.5,52.1 C11.4,53.4 11.1,54.6 10.8,55.7 C10.5,56.8 10.1,57.9 9.7,58.8 C8.9,60.7 8.1,62.2 7.5,63.2 C6.9,64.2 6.5,64.8 6.5,64.8 Z" fill="#633C22"/>
            <path d="M30.9,61.2 C30.9,61.2 31.4,60.8 32.1,60 C32.5,59.6 32.9,59.1 33.3,58.5 C33.7,57.9 34.3,57.2 34.8,56.5 C35,56.1 35.3,55.7 35.6,55.3 C35.8,54.9 36.1,54.4 36.4,54 C36.9,53.1 37.4,52.1 37.9,51.1 C38.3,50 38.9,49 39.3,47.8 C39.7,46.7 40.1,45.5 40.5,44.3 L41,42.6 C41.2,42 41.3,41.4 41.5,40.8 C41.8,39.6 42.1,38.5 42.3,37.4 C42.5,36.3 42.8,35.2 42.9,34.1 C43.1,33.1 43.2,32.1 43.3,31.2 C43.6,29.4 43.7,27.8 43.8,26.8 C43.9,25.7 44,25.1 44,25.1 C44,25.1 44,25.7 43.9,26.8 C43.9,27.3 43.8,28 43.8,28.7 C43.8,29.5 43.7,30.3 43.6,31.2 C43.5,32.1 43.4,33.1 43.3,34.2 C43.2,35.3 43,36.4 42.8,37.5 C42.6,38.6 42.3,39.8 42.1,41 C42,41.6 41.8,42.2 41.7,42.8 L41.2,44.6 C40.9,45.8 40.4,46.9 40,48.1 C39.6,49.3 39,50.3 38.6,51.4 C38.1,52.4 37.6,53.4 37,54.3 C36.7,54.8 36.5,55.2 36.2,55.6 C35.9,56 35.6,56.4 35.4,56.8 C34.9,57.6 34.3,58.2 33.8,58.8 C33.3,59.4 32.9,59.8 32.5,60.2 C31.4,60.9 30.9,61.2 30.9,61.2 Z" fill="#633C22"/>
          </g>
          <path d="M3.7,89 C4.2,93.3 4.2,104.3 1,106.5 C1,106.5 2.8,106.3 4.2,104.4 C4.2,104.4 2.4,105.8 2.4,110.1 C2.4,114.4 0.1,118.1 0.1,118.1 C0.1,118.1 2.6,117.2 3.5,115.6 C3.5,115.6 1.9,120.2 4.4,123.3 C4.4,123.3 3.7,122.1 5.6,119.9 C5.6,119.9 5.3,125.3 10.5,126 C10.5,126 9.3,124.5 9.6,122.1 C9.6,122.1 10.6,126.1 15.9,126.1 C14.7,124.9 13.4,122.2 13.1,121.2 C13.9,122.9 16.3,124.9 17.1,124.9 C16.6,124.9 15.7,121.8 16.2,120.7 C16.2,120.7 17.9,123.8 17.9,125.6 C17.9,125.6 21.5,123.6 20.4,120.1 C20.4,120.1 21.9,121.8 21.9,124.3 C22.8,123.3 23.5,122.2 23.3,120.8 C24.1,121.5 24.5,121.6 25.6,123.6 C25.6,123.6 27.1,116.4 22.5,115.1 C22.5,115.1 24.4,115.7 25.2,114.4 C25.2,114.4 20.5,112.6 18.7,109.6 C16.9,106.6 16.3,104.6 16.3,104.6 C16.3,104.6 16.4,105.3 18.2,107.5 C18.2,107.5 17.9,104.5 16.6,102.7 C14.5,99.8 14.3,92.1 14.3,92.1 C14.3,92.1 12.2,89.3 10.6,90 C9,90.7 8.1,92.3 6.5,91.1 C5.1,89.9 3.7,89 3.7,89 Z" id="Shape" fill="#EBD4C5"/>
        </g>
        <g id="Group" transform="translate(115.000000, 123.000000)">
          <g id="Shape">
            <path d="M25.7,34.1 C25.8,33.7 33.3,13.5 28.7,7.5 C21.9,-1.3 8.3,0.1 3.7,3.9 C-0.9,7.7 0.6,17.6 2.8,23.7 C3.9,26.6 4,28.5 5,32.2 C6,35.9 6.3,42.8 6.9,47.4 C7.8,53.7 6.8,58.1 5.7,59.9 C4.6,61.7 3.5,65.8 4.8,69.5 C5.7,71.8 9.2,79.1 7.5,90.9 C7.1,93.8 9.6,96.3 10.8,97.4 C12.5,99.1 12.9,104.1 12.9,104.1 C14.6,105.8 22.7,104.8 22.7,104.8 C22.9,100.1 22.7,96.8 20.2,95.1 C16.7,92.7 16.1,89 16.1,87.6 C16.2,84 16.3,77.7 18.3,72.2 C20.1,67.2 20.6,60.3 20.6,57.9 C20.8,54 22.6,47.6 25.7,34.1 Z" fill="#874E35"/>
            <path d="M7.3,53.7 C7.3,53.7 7.3,53.2 7.3,52.2 C7.3,51.2 7.2,49.9 7.1,48.2 C7,46.6 6.8,44.7 6.5,42.6 C6.4,41.6 6.2,40.5 6.1,39.5 C6,38.4 5.7,37.4 5.6,36.3 C5.4,35.2 5.2,34.2 5,33.1 C4.8,32 4.5,31 4.3,30 C4.1,29 3.8,28 3.6,27.1 C3.4,26.2 3.1,25.3 2.9,24.5 C2.7,23.7 2.5,23 2.3,22.3 C2.1,21.7 2,21.1 1.8,20.6 C1.5,19.7 1.4,19.1 1.4,19.1 C1.4,19.1 1.6,19.6 1.9,20.5 C2.2,21.4 2.7,22.7 3.2,24.3 C3.4,25.1 3.7,25.9 4,26.8 C4.3,27.7 4.5,28.7 4.8,29.7 C5,30.7 5.3,31.7 5.5,32.8 C5.7,33.9 5.9,34.9 6.1,36 C6.3,37.1 6.5,38.2 6.6,39.2 C6.7,40.3 6.9,41.3 7,42.4 C7.2,44.4 7.3,46.4 7.4,48 C7.4,49.6 7.4,51 7.4,52 C7.3,53.2 7.3,53.7 7.3,53.7 Z" fill="#633C22"/>
            <path d="M26.2,32.6 C26.2,32.6 26.3,32 26.5,31.2 C26.7,30.3 27,29.2 27.3,28.1 C27.9,25.9 28.6,23.6 28.6,23.6 C28.6,23.6 28.6,24.2 28.6,25.1 C28.5,26 28.3,27.1 28,28.3 C27.7,29.4 27.3,30.5 26.9,31.3 C26.5,32.1 26.2,32.6 26.2,32.6 Z" fill="#633C22"/>
            <path d="M10,64 C10,64 10,64.3 10.1,64.8 C10.2,65.3 10.3,65.9 10.5,66.5 C10.6,66.8 10.7,67.1 10.8,67.4 C10.9,67.7 11.1,67.9 11.2,68.1 C11.3,68.3 11.5,68.5 11.6,68.6 C11.7,68.7 11.8,68.8 11.8,68.8 C11.8,68.8 11.7,68.8 11.6,68.7 C11.5,68.6 11.2,68.6 11,68.4 C10.8,68.2 10.5,68 10.4,67.7 C10.2,67.4 10.1,67.1 9.9,66.7 C9.7,66 9.7,65.3 9.8,64.8 C9.8,64.3 10,64 10,64 Z" fill="#633C22"/>
          </g>
          <path d="M14,108.3 C17,109.2 23.7,108.5 26.8,107.5 C26.8,107.5 27.4,103.7 26.4,100.6 C22.9,101.5 15.8,102.3 13.4,102.3 C14.2,104.5 14,108.3 14,108.3 Z" id="Shape" fill="#B3927E"/>
          <path d="M5.4,70.1 C5.9,74.4 6.8,85.5 3.5,87.6 C3.5,87.6 5.3,87.4 6.7,85.5 C6.7,85.5 4.9,86.9 4.9,91.2 C4.9,95.5 2.6,99.2 2.6,99.2 C2.6,99.2 5.1,98.3 6,96.7 C6,96.7 4.4,101.3 6.9,104.4 C6.9,104.4 6.2,103.2 8.1,101 C8.1,101 7.8,106.4 13,107.1 C13,107.1 11.8,105.6 12.1,103.2 C12.1,103.2 13.1,107.2 18.4,107.2 C17.2,106 15.9,103.3 15.6,102.3 C16.4,104 18.8,106 19.6,106 C19.1,106 18.2,102.9 18.7,101.8 C18.7,101.8 20.4,104.9 20.4,106.7 C20.4,106.7 24,104.7 22.9,101.2 C22.9,101.2 24.4,102.9 24.4,105.4 C25.3,104.4 26,103.3 25.8,101.9 C26.6,102.6 27,102.7 28.1,104.7 C28.1,104.7 29.6,97.5 25,96.2 C25,96.2 26.9,96.8 27.7,95.5 C27.7,95.5 23,93.7 21.2,90.7 C19.4,87.7 18.8,85.7 18.8,85.7 C18.8,85.7 18.9,86.4 20.7,88.6 C20.7,88.6 20.4,85.6 19.1,83.8 C17,80.9 17.7,72.5 17.7,72.5 C17.7,72.5 14.6,70.4 13,71.1 C11.4,71.8 10.5,73.4 8.9,72.2 C7.6,71 5.4,70.1 5.4,70.1 Z" id="Shape" fill="#EBD4C5"/>
        </g>
        <g id="Group" transform="translate(109.000000, 31.000000)">
          <g transform="translate(0.000000, 64.000000)" id="Shape">
            <path d="M49.8,8 C49.8,8 55.8,14.1 56.4,16.1 C56.4,16.1 46.7,24.7 34.6,23.1 C22.5,21.5 5.2,14 0,2.1 L7.2,0.9 C7.2,0.9 40.1,13.9 49.8,8 Z" fill="#CCAD87"/>
            <path d="M56.4,16.1 C56.4,16.1 56.2,15.9 55.9,15.6 C55.6,15.3 55.2,14.8 54.9,14.3 C54.6,13.8 54.3,13.3 54,12.9 C53.8,12.5 53.6,12.2 53.6,12.2 C53.6,12.2 53.9,12.3 54.3,12.6 C54.7,12.9 55.1,13.3 55.4,13.8 C55.7,14.3 56,14.8 56.2,15.2 C56.3,15.8 56.4,16.1 56.4,16.1 Z" fill="#8C6C54"/>
          </g>
          <g transform="translate(3.000000, 64.000000)">
            <path d="M0.6,1.2 C0.6,1.2 4.5,15 23.8,16.4 C38.8,17.5 46.8,16.4 50.6,12.3 L49.4,9.8 C49.4,9.8 44.5,14.6 21.5,11.4 C12.5,10.1 3.3,0.9 3.3,0.9 L0.6,1.2 Z" id="Shape" fill="#633C22"/>
            <g transform="translate(0.000000, 7.000000)">
              <path d="M6,0.4 C3.1,1.8 0.4,10.5 0.8,14.3 C1.2,18.1 9.8,22.8 14.6,20.1 C19.4,17.4 19.6,7.7 17.7,5.6 C15.8,3.5 7.5,-0.3 6,0.4 Z" id="Shape" fill="#633C22"/>
              <path d="M5.2,1.5 C5.2,1.5 5.3,1.8 5.4,2.2 C5.5,2.6 5.7,3.3 5.9,4 C6.1,4.7 6.4,5.6 6.9,6.4 C7.1,6.8 7.4,7.2 7.7,7.5 C8.1,7.8 8.4,8 8.9,7.9 C9.4,7.9 9.9,7.8 10.4,7.8 C10.9,7.7 11.4,7.7 11.9,7.6 C12.9,7.5 13.8,7.4 14.6,7.3 C16.2,7.1 17.2,7 17.2,7 C17.2,7 16.2,7.3 14.7,7.7 C13.9,7.9 13,8.1 12.1,8.2 C11.6,8.3 11.1,8.3 10.6,8.4 C10.1,8.5 9.5,8.5 9,8.6 L8.8,8.6 C8.7,8.6 8.6,8.6 8.6,8.6 C8.4,8.6 8.3,8.5 8.1,8.5 C8,8.4 7.8,8.4 7.7,8.3 C7.6,8.2 7.5,8.1 7.4,8 C7,7.6 6.7,7.1 6.5,6.7 C6.1,5.8 5.8,4.9 5.7,4.1 C5.3,2.6 5.2,1.5 5.2,1.5 Z" id="Shape" fill="#45281C"/>
              <circle id="Oval" fill="#8C7539" cx="8.9" cy="6.7" r="1"/>
              <path d="M5.1,19.2 C5.1,19.2 5.5,19.4 6.1,19.7 C6.7,20 7.7,20.3 8.8,20.6 C9.9,20.9 11.4,21 12.7,20.6 C13.4,20.4 14,20 14.6,19.5 C15.2,19 15.6,18.4 16,17.7 C16.8,16.4 17.5,14.9 17.8,13.5 C18,12.8 18.1,12.1 18.2,11.4 C18.3,10.7 18.3,10.1 18.3,9.5 C18.3,9.2 18.3,8.9 18.2,8.6 C18.2,8.3 18.1,8.1 18.1,7.8 C18,7.3 17.9,6.9 17.8,6.6 C17.6,5.9 17.5,5.5 17.5,5.5 C17.5,5.5 17.5,5.6 17.6,5.8 C17.7,6 17.8,6.2 17.9,6.6 C18,6.9 18.2,7.3 18.3,7.8 C18.4,8.3 18.5,8.8 18.6,9.4 C18.7,10 18.7,10.7 18.6,11.4 C18.6,12.1 18.5,12.8 18.3,13.6 C17.9,15.1 17.3,16.6 16.5,18 C16.1,18.7 15.6,19.4 14.9,19.9 C14.3,20.4 13.5,20.9 12.8,21.1 C12,21.3 11.3,21.3 10.6,21.3 C9.9,21.2 9.2,21.1 8.7,20.9 C7.5,20.6 6.6,20.1 6,19.7 C5.7,19.5 5.5,19.4 5.3,19.3 C5.2,19.2 5.1,19.2 5.1,19.2 Z" id="Shape" fill="#45281C"/>
            </g>
          </g>
          <g transform="translate(3.000000, 0.000000)" id="Shape">
            <g>
              <g>
                <path d="M20.6,5.8 C20.6,5.8 20.3,14.2 15.2,16 C10,17.8 11,19.1 11,19.1 C11,19.1 22.5,36.3 35.2,31.7 C43.9,28.6 45.1,20.9 45.1,20.9 C45.1,20.9 42,18.5 40.3,16.3 C38.6,14.1 37.1,5.9 37.1,5.9 C37.1,5.9 30.6,-5.8 20.6,5.8 Z" fill="#FFD0AE"/>
                <path d="M19.5,11.6 C21.5,14 33.8,32 33.8,32 C33.8,32 38.9,15.2 39.6,14.5 C39.6,14.5 42.4,13.5 48.2,15.6 C52.1,17 53.3,20.9 53.3,20.9 C53.3,20.9 52,37.9 52.2,41.6 C52.4,45.3 51.1,62.9 51.1,66.8 C51.1,68.3 51.5,71.5 48.8,75.3 C46.1,79.1 39.3,77.7 30.5,77.7 C21.7,77.7 5.1,71.9 2.9,67.2 C0.9,62.8 4.8,60.6 5.8,54.1 C6.8,47.6 0.5,19.1 0.5,19.1 C0.5,19.1 1.1,16.9 11.6,14 C17.2,12.6 19.5,11.6 19.5,11.6 Z" fill="#CCAD87"/>
              </g>
              <path d="M31.5,31.6 C31.5,31.6 31.8,31.3 32.2,30.9 C32.6,30.5 33.2,30 33.9,29.5 C34.5,29 35.2,28.6 35.7,28.4 C36.2,28.1 36.6,28 36.6,28 C36.6,28 36.3,28.3 35.9,28.7 C35.5,29.1 34.8,29.6 34.2,30.1 C33.6,30.6 32.9,31 32.3,31.2 C31.9,31.5 31.5,31.6 31.5,31.6 Z" fill="#8C5634"/>
              <path d="M30.6,28.9 C30.6,28.9 31,29 31.7,29.1 C32.3,29.2 33.2,29.5 34,29.8 C34.8,30.1 35.6,30.4 36.2,30.7 C36.8,31 37.2,31.2 37.2,31.2 C37.2,31.2 36.8,31.2 36.1,31 C35.5,30.9 34.6,30.6 33.8,30.3 C33,30 32.2,29.7 31.6,29.4 C30.9,29.2 30.6,28.9 30.6,28.9 Z" fill="#8C5634"/>
              <path d="M27.9,27.4 C27.9,27.4 28.5,27 29.5,26.4 C30.5,25.8 31.9,25.1 33.2,24.4 C34.6,23.7 36,23.1 37.1,22.6 C38.2,22.2 38.9,21.9 38.9,21.9 C38.9,21.9 38.3,22.3 37.3,22.9 C36.3,23.5 34.9,24.2 33.6,24.9 C32.2,25.6 30.8,26.2 29.7,26.7 C28.6,27.2 27.9,27.4 27.9,27.4 Z" fill="#8C5634"/>
              <path d="M26,22.6 C26,22.6 26.8,22.8 28,23.1 C29.2,23.4 30.7,23.9 32.2,24.4 C33.7,24.9 35.2,25.5 36.4,26 C37.5,26.5 38.2,26.8 38.2,26.8 C38.2,26.8 37.4,26.6 36.2,26.3 C35,26 33.5,25.5 32,25 C30.5,24.5 29,23.9 27.8,23.4 C26.7,23 26,22.6 26,22.6 Z" fill="#8C5634"/>
            </g>
            <path d="M44.4,77.5 C44.4,77.5 44.6,77.5 44.9,77.5 C45.2,77.5 45.7,77.4 46.3,77.1 C46.9,76.9 47.5,76.4 48.1,75.8 C48.7,75.2 49.2,74.3 49.6,73.3 C50.4,71.3 50.8,68.8 50.9,66.1 C51,64.8 50.9,63.4 50.9,62 C50.9,60.6 50.9,59.1 50.9,57.7 C50.9,54.8 51.1,51.9 51.2,49.2 C51.3,46.5 51.5,44 51.6,41.8 C51.7,39.6 51.8,37.8 51.9,36.6 C51.9,35.3 51.9,34.6 51.9,34.6 C51.9,34.6 51.9,34.8 51.9,35.1 C51.9,35.4 52,35.9 52,36.6 C52,37.9 52.1,39.7 52,41.8 C52,44 51.9,46.5 51.8,49.2 C51.7,51.9 51.6,54.8 51.5,57.7 C51.5,59.1 51.4,60.6 51.5,62 C51.5,63.4 51.5,64.8 51.4,66.2 C51.2,68.9 50.8,71.5 49.8,73.5 C49.3,74.5 48.8,75.4 48.1,76 C47.5,76.6 46.8,77 46.2,77.3 C45.6,77.5 45.1,77.6 44.8,77.6 C44.6,77.6 44.4,77.5 44.4,77.5 Z" fill="#8C6C54"/>
            <path d="M5.2,69.8 C5.2,69.8 5.1,69.7 4.9,69.6 C4.7,69.5 4.4,69.2 4,68.9 C3.6,68.6 3.2,68.2 2.8,67.6 C2.4,67 2,66.3 1.9,65.5 C1.7,64.7 1.8,63.7 2.2,62.8 C2.6,61.9 3.1,61 3.5,60.1 C4.4,58.3 5.1,56.2 5.3,54.1 C5.5,53 5.5,52 5.5,50.9 C5.5,49.8 5.4,48.8 5.3,47.8 C5.1,45.8 4.9,43.9 4.6,42.2 C4.4,40.6 4.2,39.2 4,38.3 C3.8,37.4 3.7,36.8 3.7,36.8 C3.7,36.8 3.9,37.3 4.1,38.3 C4.3,39.2 4.6,40.6 4.9,42.2 C5.2,43.8 5.5,45.7 5.8,47.7 C5.9,48.7 6,49.8 6.1,50.9 C6.1,52 6.1,53.1 6,54.2 C5.7,56.4 5,58.6 4,60.4 C3.5,61.3 3,62.2 2.6,63 C2.2,63.8 2.1,64.7 2.2,65.4 C2.5,67 3.4,68.1 4,68.8 C4.3,69.1 4.6,69.4 4.8,69.6 C5.1,69.7 5.2,69.8 5.2,69.8 Z" fill="#8C6C54"/>
          </g>
        </g>
        <g id="Group" transform="translate(88.000000, 47.000000)">
          <g transform="translate(16.000000, 54.000000)" id="Shape">
            <path d="M6.6,0.5 C6.6,0.5 10.5,3.2 12.4,8.9 C13,10.8 13.5,11.8 11.8,12.2 C11.8,12.2 12,14.4 9.7,14 C9.7,14 8.8,15.8 6.9,15.5 C6.9,15.5 5.6,17.2 3.3,15.5 C2,14.6 0.9,12 2,10.6 C1,8.1 0.9,4.6 1.3,3.1" fill="#FFD0AE"/>
            <path d="M7.3,1.2 C7.3,1.2 10.2,3.8 12.3,5.8 C13.9,7.4 13.9,9.4 11.5,8.5" fill="#FFD0AE"/>
            <path d="M0.8,5.8 C0.8,5.8 0.9,6.3 1.1,7.2 C1.3,8 1.6,9.1 1.9,10.1 C2.1,10.6 2.3,11.1 2.5,11.6 C2.6,11.8 2.7,12 2.8,12.3 C2.9,12.5 3,12.7 3.1,12.9 C3.3,13.2 3.5,13.5 3.7,13.7 C3.9,13.9 3.9,14 3.9,14 C3.9,14 3.8,13.9 3.6,13.8 C3.4,13.7 3.1,13.4 2.8,13.1 C2.5,12.8 2.2,12.4 1.9,11.9 C1.6,11.4 1.4,10.9 1.2,10.4 C0.8,9.3 0.7,8.2 0.6,7.3 C0.8,6.3 0.8,5.8 0.8,5.8 Z" fill="#BF8865"/>
            <path d="M6.7,13 C6.7,13 6.8,13.2 7,13.5 C7.1,13.8 7.2,14.2 7.2,14.7 C7.2,14.9 7.1,15.2 7,15.4 C6.9,15.6 6.8,15.8 6.6,15.9 C6.3,16.1 6,16.1 6,16.1 C6,16.1 6,16 6.1,16 C6.2,15.9 6.2,15.8 6.3,15.7 C6.4,15.4 6.5,15.1 6.5,14.7 C6.5,14.3 6.6,13.9 6.6,13.6 C6.6,13.2 6.7,13 6.7,13 Z" fill="#BF8865"/>
            <path d="M9.4,11.8 C9.4,11.8 9.6,12 9.7,12.3 C9.8,12.6 9.9,13.1 9.9,13.5 C9.9,14 9.7,14.4 9.4,14.7 C9.1,14.9 8.9,15 8.9,15 C8.9,15 8.9,14.9 9,14.9 C9.1,14.8 9.1,14.7 9.2,14.6 C9.2,14.5 9.3,14.3 9.3,14.1 C9.3,13.9 9.4,13.7 9.4,13.5 C9.4,13.1 9.4,12.7 9.5,12.4 C9.4,12 9.4,11.8 9.4,11.8 Z" fill="#BF8865"/>
            <path d="M11.4,10.2 C11.4,10.2 11.6,10.4 11.7,10.7 C11.8,11 12,11.4 12,11.9 C12,12.3 12,12.8 11.8,13.1 C11.7,13.3 11.6,13.4 11.5,13.4 C11.4,13.5 11.3,13.5 11.3,13.5 C11.3,13.5 11.3,13.4 11.4,13.4 C11.4,13.3 11.4,13.2 11.4,13 C11.4,12.7 11.4,12.3 11.3,11.9 C11.3,11.5 11.2,11.1 11.3,10.7 C11.4,10.4 11.4,10.2 11.4,10.2 Z" fill="#BF8865"/>
            <path d="M3,12.2 C3,12.2 3.1,12.3 3.1,12.5 C3.1,12.7 3.1,12.9 3.1,13 C3.1,13.2 3,13.4 2.9,13.5 C2.8,13.6 2.7,13.7 2.7,13.7 C2.7,13.7 2.6,13.6 2.5,13.4 C2.4,13.2 2.4,13 2.4,12.8 C2.4,12.6 2.6,12.4 2.7,12.3 C2.8,12.3 3,12.2 3,12.2 Z" fill="#BF8865"/>
            <path d="M12.9,10.6 C12.9,10.6 12.8,10.2 12.5,9.7 C12.2,9.2 11.9,8.5 11.6,7.8 C11.3,7.1 10.9,6.4 10.7,5.9 C10.5,5.4 10.4,5 10.4,5 C10.4,5 10.7,5.3 11.1,5.8 C11.5,6.3 11.9,6.9 12.2,7.6 C12.5,8.3 12.8,9.1 12.9,9.7 C13,10 13,10.3 13,10.4 C12.9,10.5 12.9,10.6 12.9,10.6 Z" fill="#BF8865"/>
          </g>
          <g transform="translate(0.000000, 23.000000)" id="Shape">
            <path d="M14.3,37.3 C14.3,37.3 21,39.9 24.6,32.9 L23.5,30 C23.5,30 25.4,27.9 24.4,25 C23.4,22.2 21.4,20.7 21.1,18.8 C20.9,16.9 16.3,7.4 15,4.3 C10.9,-5 0.7,3.1 0.4,7.1 C2.00395256e-14,11.1 3.1,15.2 3.7,17.6 C4.3,20.1 5.9,23.7 7,25.3 C8.1,26.9 8.9,30.8 10.3,32.3 C11.7,33.8 13.1,34.5 13.1,34.5 L14.3,37.3 Z" fill="#CCAD87"/>
            <path d="M18.2,32.8 C18.2,32.8 18.7,32.7 19.4,32.3 C20.2,32 21.3,31.4 22.4,30.6 C23,30.2 23.5,29.6 24,29 C24.4,28.3 24.7,27.5 24.6,26.7 C24.6,25.8 24.1,25 23.7,24.2 C23.3,23.3 22.9,22.5 22.4,21.6 C22,20.8 21.4,19.9 21,19 C20.6,18.1 20.3,17.2 20.1,16.3 C19.5,14.6 19,13 18.4,11.7 C17.8,10.4 17.4,9.3 17,8.5 C16.6,7.7 16.4,7.3 16.4,7.3 C16.4,7.3 16.7,7.7 17.1,8.4 C17.5,9.1 18.1,10.2 18.7,11.5 C19.3,12.8 20,14.4 20.6,16.1 C20.9,17 21.2,17.8 21.6,18.7 C22,19.5 22.5,20.3 23,21.2 C23.5,22.1 23.9,22.9 24.3,23.8 C24.7,24.6 25.1,25.6 25.2,26.5 C25.3,27.5 24.9,28.4 24.4,29.1 C23.9,29.8 23.3,30.3 22.7,30.8 C21.5,31.6 20.3,32.1 19.5,32.4 C18.6,32.7 18.2,32.8 18.2,32.8 Z" fill="#8C6C54"/>
            <path d="M15.3,34 C15.3,34 15.2,34.1 15,34.2 C14.8,34.3 14.5,34.4 14.1,34.5 C13.7,34.6 13.2,34.6 12.7,34.5 C12.2,34.4 11.6,34.1 11.1,33.6 C10.6,33.1 10.1,32.5 9.7,31.9 C9.3,31.2 8.9,30.5 8.5,29.8 C8.1,29 7.8,28.2 7.5,27.4 C7.2,26.6 6.8,25.8 6.3,25.1 C5.5,23.5 4.7,21.9 4.1,20.3 C3.8,19.5 3.6,18.7 3.4,18 C3.2,17.3 3,16.6 2.8,16 C2.3,14.8 1.9,13.7 1.6,13 C1.3,12.3 1.1,11.9 1.1,11.9 C1.1,11.9 1.3,12.3 1.7,13 C2.1,13.7 2.6,14.7 3.2,15.9 C3.5,16.5 3.7,17.2 3.9,17.9 C4.1,18.6 4.4,19.4 4.7,20.1 C5.3,21.6 6.1,23.2 6.9,24.8 C7.3,25.6 7.8,26.4 8.1,27.2 C8.4,28 8.7,28.8 9,29.6 C9.3,30.3 9.7,31.1 10.1,31.7 C10.5,32.4 10.9,32.9 11.3,33.4 C11.7,33.9 12.3,34.2 12.8,34.3 C13.3,34.5 13.8,34.5 14.1,34.4 C14.9,34.2 15.3,34 15.3,34 Z" fill="#8C6C54"/>
            <path d="M14.1,37.3 C14.1,37.3 14.3,37.4 14.6,37.4 C14.9,37.5 15.4,37.5 16,37.5 C16.6,37.5 17.3,37.5 18,37.4 C18.7,37.3 19.4,37.1 20.1,36.7 C20.5,36.6 20.8,36.3 21.1,36.2 C21.4,36 21.7,35.8 22,35.6 C22.3,35.4 22.5,35.1 22.8,34.9 C23,34.7 23.2,34.4 23.4,34.2 C23.8,33.8 24.1,33.4 24.3,33.1 C24.5,32.8 24.6,32.7 24.6,32.7 C24.6,32.7 24.5,32.9 24.4,33.2 C24.2,33.5 24.1,34 23.7,34.5 C23.5,34.7 23.4,35 23.1,35.3 C22.9,35.6 22.6,35.8 22.4,36.1 C22.1,36.3 21.8,36.6 21.5,36.8 C21.1,37 20.8,37.2 20.4,37.4 C20,37.6 19.6,37.7 19.2,37.8 C18.8,37.9 18.4,38 18,38 C17.6,38 17.2,38 16.9,38 C16.6,38 16.2,38 15.9,37.9 C15.3,37.8 14.8,37.6 14.5,37.5 C14.3,37.4 14.1,37.3 14.1,37.3 Z" fill="#8C6C54"/>
          </g>
          <g id="Shape">
            <path d="M9.2,39.7 C9.2,39.7 8.9,39.8 8.5,39.8 C8.1,39.8 7.5,39.7 6.9,39.6 C6.6,39.5 6.3,39.4 6.1,39.3 C5.8,39.2 5.6,39.1 5.4,39 C5,38.8 4.8,38.6 4.8,38.6 C4.8,38.6 5.1,38.7 5.5,38.8 C5.9,38.9 6.4,39.1 7,39.2 C7.3,39.3 7.5,39.3 7.8,39.4 C8.1,39.5 8.3,39.5 8.5,39.6 C8.9,39.6 9.2,39.7 9.2,39.7 Z" fill="#8C6C54"/>
            <path d="M1.2,32.3 C-0.5,29.6 2.2,24.1 4.6,22.3 C7,20.5 13.4,10.1 16.3,7.2 C19.2,4.3 26.8,-2.7 34.6,2.6 C43.6,8.6 28.7,27.7 22.5,32.1 C16.3,36.4 14.4,38.5 12.2,39 C10,39.5 3.5,36 1.2,32.3 Z" fill="#CCAD87"/>
            <path d="M8.7,38.4 C8.7,38.4 9.2,38.5 10,38.7 C10.4,38.8 10.9,38.9 11.5,38.8 C12.1,38.8 12.7,38.6 13.3,38.3 C14.6,37.8 15.9,36.8 17.2,35.6 C17.9,35 18.6,34.4 19.3,33.9 C20,33.3 20.8,32.8 21.6,32.2 C22.3,31.6 23.1,31.1 23.8,30.5 C24.5,29.9 25.2,29.3 25.9,28.7 C26.5,28.1 27.1,27.5 27.7,26.9 C28.3,26.3 28.8,25.7 29.2,25.2 C30.1,24.1 30.8,23.2 31.3,22.5 C31.8,21.8 32.1,21.5 32.1,21.5 C32.1,21.5 31.9,21.9 31.5,22.6 C31.1,23.3 30.5,24.3 29.6,25.5 C29.2,26.1 28.7,26.7 28.2,27.3 C27.7,27.9 27.1,28.6 26.4,29.2 C25.8,29.8 25.1,30.4 24.3,31 C23.6,31.6 22.8,32.2 22.1,32.7 C21.3,33.3 20.6,33.8 19.8,34.4 C19.1,34.9 18.3,35.5 17.7,36.1 C16.3,37.2 14.9,38.1 13.5,38.7 C12.8,39 12.1,39.1 11.6,39.1 C11,39.1 10.5,39 10.1,38.9 C9.7,38.8 9.4,38.7 9.2,38.6 C8.8,38.5 8.7,38.4 8.7,38.4 Z" fill="#8C6C54"/>
            <path d="M1.2,32.3 C1.2,32.3 1.2,31.8 1.2,31 C1.2,30.6 1.1,30.1 1.1,29.5 C1.1,28.9 1,28.3 1,27.5 C1,26.8 1.2,26 1.6,25.2 C2,24.4 2.5,23.7 3.2,23.1 C4.4,21.8 5.6,20.4 6.8,18.9 C8,17.4 9.2,16 10.2,14.5 C10.7,13.8 11.2,13.1 11.7,12.4 C12.2,11.8 12.7,11.2 13.2,10.6 C14.1,9.5 14.9,8.7 15.5,8 C16.1,7.4 16.4,7.1 16.4,7.1 C16.4,7.1 15.3,8.6 13.5,10.9 C13.1,11.5 12.6,12.1 12.2,12.7 C11.7,13.3 11.3,14.1 10.8,14.8 C9.8,16.3 8.7,17.8 7.5,19.3 C6.3,20.8 5,22.2 3.8,23.5 C3.2,24.1 2.6,24.7 2.3,25.4 C1.9,26.1 1.7,26.8 1.7,27.5 C1.6,28.9 1.6,30.1 1.6,30.9 C1.3,31.8 1.2,32.3 1.2,32.3 Z" fill="#8C6C54"/>
          </g>
        </g>
        <g id="Group" transform="translate(116.000000, 0.000000)">
          <g transform="translate(34.000000, 27.000000)" id="Shape">
            <g transform="translate(6.000000, 30.000000)">
              <path d="M2.3,0.6 C3.8,0.4 5.4,1.4 5,4 C4.6,6.6 7,6.7 7.8,6.5 C7.8,6.5 4.7,8.4 2.7,5.7 C2.7,5.7 3.4,7.1 4.3,7.5 C4.3,7.5 0.6,6.4 0.5,3.1 C0.4,2.1 0.9,0.8 2.3,0.6 Z" fill="#BF7547"/>
              <path d="M7.8,6.5 C7.8,6.5 7.7,6.6 7.5,6.6 C7.3,6.7 6.9,6.7 6.5,6.6 C6.1,6.5 5.6,6.2 5.3,5.8 C5.1,5.6 5,5.4 4.9,5.1 C4.8,4.9 4.7,4.5 4.7,4.2 C4.7,3.6 4.8,3.1 4.8,2.6 C4.8,2.4 4.8,2.2 4.7,2 C4.6,1.8 4.5,1.6 4.4,1.5 C4.2,1.2 3.9,1 3.7,0.9 C3.5,0.8 3.4,0.7 3.4,0.7 C3.4,0.7 3.5,0.7 3.8,0.8 C4,0.9 4.3,1 4.7,1.3 C4.9,1.5 5,1.6 5.1,1.9 C5.2,2.1 5.3,2.4 5.3,2.7 C5.4,3.2 5.3,3.8 5.3,4.3 C5.3,4.6 5.3,4.7 5.4,5 C5.5,5.2 5.6,5.4 5.7,5.6 C6,6 6.3,6.3 6.6,6.4 C6.9,6.6 7.3,6.6 7.5,6.6 C7.6,6.6 7.8,6.5 7.8,6.5 Z" fill="#8C5634"/>
            </g>
            <g>
              <path d="M8.5,1.7 C8.5,1.7 13.2,8 8.3,12.9 C8.3,12.9 11.8,15.1 8.8,20.5 C8.8,20.5 11.9,22.8 8.9,26.7 C8.9,26.7 10.9,28.6 8.8,31.3 C8.8,31.3 4.7,31.2 5.8,26.4 C5.8,26.4 3.7,23.5 5.1,20.4 C5.1,20.4 0.5,17.7 3.4,12.2 C3.4,12.2 -1.4,7.1 1.8,2.9 C5,-1.3 7,-4.88498131e-15 8.5,1.7 Z" fill="#BF7547"/>
              <path d="M6.3,4.8 C6.3,4.8 6.1,5.1 5.8,5.6 C5.7,5.8 5.5,6.1 5.4,6.5 C5.3,6.8 5.1,7.2 5,7.5 C4.7,8.2 4.6,8.9 4.5,9.5 C4.4,9.8 4.4,10 4.4,10.2 C4.4,10.4 4.3,10.5 4.3,10.5 C4.3,10.5 4.3,10.4 4.2,10.2 C4.2,10 4.1,9.8 4.1,9.5 C4.1,9.2 4.1,8.9 4.1,8.5 C4.1,8.1 4.2,7.7 4.4,7.4 C4.7,6.6 5.1,6 5.6,5.5 C5.9,5 6.3,4.8 6.3,4.8 Z" fill="#8C5634"/>
              <path d="M4.4,7.7 C4.4,7.7 4.2,7.5 4,7.3 C3.8,7.1 3.5,6.7 3.2,6.4 C2.9,6.1 2.6,5.8 2.4,5.5 C2.3,5.4 2.2,5.3 2.1,5.2 C2,5.1 2,5.1 2,5.1 C2,5.1 2.2,5.1 2.6,5.3 C2.9,5.4 3.3,5.7 3.6,6.1 C3.9,6.5 4.1,6.9 4.3,7.2 C4.4,7.5 4.4,7.7 4.4,7.7 Z" fill="#8C5634"/>
              <path d="M6.2,14 C6.2,14 6,14.3 5.9,14.7 C5.7,15.1 5.5,15.6 5.3,16.2 C5.1,16.7 5,17.3 5,17.7 C4.9,18.1 4.9,18.5 4.9,18.5 C4.9,18.5 4.9,18.4 4.8,18.3 C4.7,18.2 4.7,18 4.6,17.8 C4.5,17.6 4.5,17.3 4.5,17 C4.5,16.7 4.6,16.4 4.7,16.1 C4.9,15.5 5.3,14.9 5.6,14.6 C5.9,14.1 6.2,14 6.2,14 Z" fill="#8C5634"/>
              <path d="M4.1,15 C4.1,15 4.2,15.1 4.3,15.2 C4.4,15.3 4.5,15.5 4.6,15.6 C4.7,15.8 4.7,16 4.7,16.1 C4.7,16.2 4.7,16.4 4.7,16.4 C4.7,16.4 4.6,16.3 4.5,16.2 C4.4,16.1 4.3,15.9 4.2,15.8 C4.1,15.6 4.1,15.4 4.1,15.3 C4.1,15.1 4.1,15 4.1,15 Z" fill="#8C5634"/>
              <path d="M7.9,21.1 C7.9,21.1 7.8,21.4 7.6,21.8 C7.4,22.2 7.2,22.7 6.9,23.1 C6.7,23.6 6.5,24.1 6.3,24.5 C6.2,24.7 6.2,24.9 6.1,25 C6.1,25.1 6,25.2 6,25.2 C6,25.2 5.9,24.9 5.9,24.5 C5.9,24.1 6,23.5 6.2,22.9 C6.5,22.4 6.8,21.9 7.1,21.6 C7.7,21.2 7.9,21.1 7.9,21.1 Z" fill="#8C5634"/>
              <path d="M7.6,26.9 C7.6,26.9 7.6,27.1 7.6,27.5 C7.6,27.8 7.6,28.3 7.6,28.7 C7.6,29.1 7.6,29.5 7.6,29.9 C7.6,30.2 7.6,30.5 7.6,30.5 C7.6,30.5 7.4,30.4 7.2,30 C7.1,29.8 7,29.7 7,29.4 C6.9,29.2 6.9,28.9 6.9,28.7 C6.9,28.2 7,27.7 7.2,27.4 C7.4,27 7.6,26.9 7.6,26.9 Z" fill="#8C5634"/>
              <g transform="translate(5.000000, 22.000000)" fill="#8C5634">
                <path d="M0.9,0.4 C0.9,0.4 1,0.4 1.1,0.5 C1.2,0.6 1.3,0.7 1.4,0.8 C1.5,0.9 1.5,1.1 1.5,1.2 C1.5,1.3 1.4,1.4 1.4,1.4 C1.4,1.4 1.3,1.3 1.3,1.2 C1.2,1.1 1.1,1 1.1,0.9 C1.1,0.8 1,0.8 1,0.7 C1,0.6 1,0.6 0.9,0.5 C0.9,0.5 0.9,0.4 0.9,0.4 Z"/>
                <path d="M1.4,5.7 C1.4,5.7 1.5,5.7 1.6,5.8 C1.7,5.8 1.8,5.9 2,6 C2.1,6.1 2.2,6.2 2.2,6.4 C2.2,6.5 2.3,6.6 2.3,6.6 C2.3,6.6 2.2,6.6 2.1,6.5 C2,6.5 1.9,6.4 1.7,6.3 C1.6,6.2 1.5,6.1 1.5,5.9 C1.4,5.8 1.4,5.7 1.4,5.7 Z"/>
              </g>
              <path d="M8.9,2.3 C8.9,2.3 9.4,2.8 9.9,3.8 C10.4,4.8 10.9,6.2 10.8,7.7 C10.8,8.1 10.7,8.4 10.7,8.8 C10.6,9.2 10.5,9.5 10.4,9.8 C10.3,10.1 10.1,10.4 10,10.7 C9.9,11 9.7,11.2 9.5,11.4 C9.3,11.6 9.2,11.8 9,12 C8.8,12.2 8.7,12.3 8.6,12.4 C8.4,12.6 8.2,12.7 8.2,12.7 C8.2,12.7 8.3,12.5 8.5,12.3 C8.6,12.2 8.7,12 8.8,11.8 C8.9,11.6 9,11.4 9.1,11.2 C9.2,11 9.4,10.7 9.5,10.4 C9.6,10.1 9.7,9.8 9.8,9.5 C9.9,9.2 10,8.9 10,8.5 C10,8.2 10.1,7.8 10.1,7.5 C10.1,7.2 10.1,6.8 10.1,6.5 C10.1,6.2 10,5.8 10,5.5 C9.9,5.2 9.9,4.9 9.8,4.6 C9.7,4.3 9.6,4 9.5,3.8 C9.3,3.3 9.2,2.9 9,2.6 C9,2.5 8.9,2.3 8.9,2.3 Z" fill="#8C5634"/>
              <path d="M3.5,12.2 C3.5,12.2 3.4,12.3 3.3,12.6 C3.2,12.8 3.1,13.2 3,13.6 C2.9,13.8 2.9,14 2.8,14.3 C2.7,14.5 2.7,14.8 2.7,15.1 C2.7,15.4 2.7,15.6 2.7,15.9 C2.7,16.2 2.7,16.4 2.8,16.7 C2.8,17 3,17.2 3,17.5 C3.1,17.8 3.2,18 3.3,18.2 C3.4,18.4 3.6,18.6 3.7,18.8 C3.8,19 4,19.2 4.1,19.3 C4.4,19.7 4.6,19.9 4.8,20.1 C5,20.3 5.1,20.4 5.1,20.4 C5.1,20.4 5,20.3 4.7,20.2 C4.5,20.1 4.1,19.9 3.8,19.6 C3.6,19.4 3.4,19.3 3.3,19.1 C3.1,18.9 3,18.7 2.8,18.4 C2.7,18.1 2.5,17.9 2.4,17.6 C2.3,17.3 2.2,17 2.1,16.7 C2,16.4 2,16.1 2,15.8 C2,15.5 2,15.2 2.1,14.9 C2.2,14.6 2.2,14.3 2.3,14.1 C2.4,13.8 2.5,13.6 2.6,13.4 C3.1,12.6 3.5,12.2 3.5,12.2 Z" fill="#8C5634"/>
              <path d="M8.8,20.4 C8.8,20.4 9.2,20.6 9.7,21.1 C9.9,21.4 10.1,21.7 10.3,22.1 C10.5,22.5 10.5,23 10.5,23.4 C10.5,23.6 10.5,23.9 10.4,24.1 C10.3,24.3 10.3,24.5 10.2,24.7 C10,25.1 9.8,25.4 9.7,25.7 C9.5,26 9.3,26.2 9.2,26.3 C9.1,26.4 9,26.5 9,26.5 C9,26.5 9,26.4 9.1,26.2 C9.2,26 9.3,25.8 9.4,25.5 C9.5,25.2 9.6,24.9 9.7,24.5 C9.8,24.3 9.8,24.1 9.8,23.9 C9.9,23.7 9.8,23.5 9.9,23.3 C9.9,23.1 9.9,22.9 9.9,22.7 C9.9,22.5 9.9,22.3 9.8,22.1 C9.7,21.7 9.6,21.4 9.4,21.1 C9.1,20.8 8.8,20.4 8.8,20.4 Z" fill="#8C5634"/>
              <path d="M5.9,26.4 C5.9,26.4 5.9,26.8 5.9,27.4 C5.9,27.7 5.9,28 6,28.4 C6,28.6 6.1,28.7 6.1,28.9 C6.2,29.1 6.2,29.3 6.3,29.4 C6.4,29.6 6.5,29.7 6.6,29.9 C6.7,30.1 6.8,30.2 7,30.3 C7.1,30.4 7.3,30.5 7.4,30.6 C7.5,30.7 7.7,30.8 7.8,30.8 C8.1,31 8.3,31 8.5,31.1 C8.7,31.2 8.8,31.2 8.8,31.2 C8.8,31.2 8.7,31.2 8.5,31.2 C8.3,31.2 8,31.2 7.7,31.1 C7.5,31.1 7.4,31 7.2,30.9 C7,30.8 6.8,30.8 6.7,30.6 C6.5,30.5 6.3,30.4 6.2,30.2 C6,30 5.9,29.9 5.8,29.6 C5.6,29.2 5.5,28.8 5.4,28.3 C5.4,27.9 5.4,27.5 5.5,27.2 C5.7,26.8 5.9,26.4 5.9,26.4 Z" fill="#8C5634"/>
            </g>
          </g>
          <g transform="translate(0.000000, 29.000000)" id="Shape">
            <g transform="translate(0.000000, 31.000000)">
              <path d="M5.9,0.1 C4.4,-1.80411242e-16 2.9,1 3.4,3.6 C3.9,6.2 1.5,6.4 0.7,6.3 C0.7,6.3 3.8,8.1 5.8,5.2 C5.8,5.2 5.2,6.7 4.3,7.1 C4.3,7.1 7.9,5.9 7.9,2.6 C7.8,1.5 7.3,0.2 5.9,0.1 Z" fill="#BF7547"/>
              <path d="M0.6,6.3 C0.6,6.3 0.7,6.3 1,6.3 C1.2,6.3 1.5,6.2 1.9,6.1 C2.2,5.9 2.5,5.6 2.8,5.2 C2.9,5 3,4.8 3.1,4.6 C3.2,4.4 3.2,4.2 3.2,3.9 C3.2,3.4 3.1,2.9 3.1,2.3 C3.1,2 3.2,1.8 3.3,1.5 C3.4,1.3 3.6,1.1 3.7,0.9 C4,0.6 4.3,0.5 4.6,0.4 C4.8,0.3 4.9,0.3 4.9,0.3 C4.9,0.3 4.8,0.4 4.6,0.5 C4.4,0.6 4.2,0.9 4,1.2 C3.9,1.4 3.8,1.5 3.8,1.7 C3.8,1.9 3.7,2.1 3.7,2.3 C3.7,2.8 3.9,3.3 3.9,3.9 C3.9,4.2 3.8,4.5 3.7,4.8 C3.6,5.1 3.5,5.3 3.3,5.5 C3,5.9 2.5,6.3 2.1,6.4 C1.7,6.5 1.3,6.5 1.1,6.4 C0.8,6.4 0.6,6.3 0.6,6.3 Z" fill="#8C5634"/>
            </g>
            <g transform="translate(2.000000, 0.000000)">
              <path d="M2.3,2.2 C2.3,2.2 -2.1,8.7 3,13.4 C3,13.4 -0.4,15.7 2.8,21 C2.8,21 -0.2,23.4 3,27.2 C3,27.2 1.1,29.2 3.3,31.8 C3.3,31.8 7.4,31.5 6,26.8 C6,26.8 8,23.8 6.4,20.8 C6.4,20.8 10.8,17.9 7.7,12.5 C7.7,12.5 12.3,7.1 8.9,3.1 C5.7,-0.9 3.8,0.5 2.3,2.2 Z" fill="#BF7547"/>
              <path d="M4.7,5.2 C4.7,5.2 5.1,5.4 5.5,5.8 C5.9,6.2 6.4,6.9 6.7,7.6 C6.8,8 7,8.4 7,8.7 C7.1,9.1 7.1,9.4 7.1,9.7 C7.1,10 7,10.2 7,10.4 C7,10.6 6.9,10.7 6.9,10.7 C6.9,10.7 6.9,10.6 6.8,10.4 C6.8,10.2 6.7,10 6.6,9.7 C6.5,9.1 6.3,8.4 6,7.8 C5.9,7.5 5.7,7.1 5.5,6.8 C5.3,6.5 5.2,6.2 5,6 C4.9,5.5 4.7,5.2 4.7,5.2 Z" fill="#8C5634"/>
              <path d="M6.6,8.1 C6.6,8.1 6.6,7.9 6.7,7.5 C6.8,7.2 7,6.7 7.3,6.4 C7.6,6 8,5.7 8.3,5.6 C8.6,5.4 8.9,5.4 8.9,5.4 C8.9,5.4 8.9,5.5 8.8,5.5 C8.7,5.6 8.7,5.7 8.6,5.8 C8.4,6.1 8.1,6.4 7.9,6.7 C7.6,7 7.4,7.4 7.1,7.6 C6.8,7.9 6.6,8.1 6.6,8.1 Z" fill="#8C5634"/>
              <path d="M5.2,14.4 C5.2,14.4 5.5,14.5 5.9,14.8 C6.3,15.1 6.7,15.6 6.9,16.2 C7,16.5 7.1,16.8 7.1,17.1 C7.1,17.4 7.1,17.7 7.1,17.9 C7.1,18.1 7,18.3 6.9,18.5 C6.8,18.6 6.8,18.7 6.8,18.7 C6.8,18.7 6.8,18.4 6.7,17.9 C6.6,17.5 6.5,16.9 6.3,16.4 C6.1,15.9 5.8,15.4 5.6,15 C5.4,14.7 5.2,14.4 5.2,14.4 Z" fill="#8C5634"/>
              <path d="M3.8,21.6 C3.8,21.6 4.1,21.7 4.4,22 C4.7,22.3 5.1,22.7 5.4,23.2 C5.7,23.7 5.8,24.3 5.8,24.8 C5.8,25.3 5.7,25.5 5.7,25.5 C5.7,25.5 5.7,25.4 5.6,25.3 C5.6,25.2 5.5,25 5.4,24.8 C5.2,24.4 5,23.9 4.8,23.5 C4.5,23 4.3,22.5 4.1,22.2 C3.9,21.9 3.8,21.6 3.8,21.6 Z" fill="#8C5634"/>
              <path d="M4.4,27.3 C4.4,27.3 4.6,27.5 4.8,27.8 C5,28.1 5.2,28.6 5.2,29 C5.2,29.2 5.2,29.5 5.1,29.7 C5.1,29.9 5,30.1 4.9,30.3 C4.7,30.6 4.5,30.8 4.5,30.8 C4.5,30.8 4.5,30.6 4.5,30.2 C4.5,29.9 4.5,29.5 4.5,29 C4.5,28.6 4.4,28.2 4.4,27.8 C4.4,27.6 4.4,27.3 4.4,27.3 Z" fill="#8C5634"/>
              <g transform="translate(4.000000, 15.000000)" fill="#8C5634">
                <path d="M3.3,0.3 C3.3,0.3 3.3,0.4 3.3,0.6 C3.3,0.8 3.3,0.9 3.2,1.1 C3.1,1.3 3.1,1.4 3,1.6 C2.9,1.7 2.8,1.8 2.8,1.8 C2.8,1.8 2.8,1.7 2.8,1.5 C2.8,1.3 2.8,1.2 2.9,1 C3,0.8 3,0.7 3.1,0.5 C3.2,0.4 3.3,0.3 3.3,0.3 Z"/>
                <path d="M1.9,7.8 C1.9,7.8 1.9,7.9 1.9,8 C1.9,8.1 1.9,8.1 1.9,8.2 C1.9,8.3 1.8,8.3 1.8,8.4 C1.7,8.5 1.6,8.6 1.6,8.7 C1.5,8.8 1.5,8.9 1.5,8.9 C1.5,8.9 1.4,8.8 1.4,8.7 C1.4,8.6 1.4,8.4 1.5,8.2 C1.6,8.1 1.7,7.9 1.8,7.9 C1.8,7.8 1.9,7.8 1.9,7.8 Z"/>
                <path d="M1.6,13.1 C1.6,13.1 1.6,13.2 1.6,13.3 C1.6,13.4 1.5,13.5 1.4,13.7 C1.3,13.8 1.2,13.9 1,13.9 C0.9,14 0.8,14 0.8,14 C0.8,14 0.8,13.9 0.8,13.8 C0.8,13.7 0.9,13.6 1,13.4 C1.1,13.3 1.2,13.2 1.4,13.2 C1.5,13.1 1.6,13.1 1.6,13.1 Z"/>
              </g>
              <path d="M1.9,2.9 C1.9,2.9 1.8,3.1 1.7,3.4 C1.6,3.7 1.4,4.1 1.3,4.6 C1.2,4.9 1.2,5.1 1.1,5.4 C1,5.7 1,6 0.9,6.3 C0.9,6.6 0.8,7 0.8,7.3 C0.8,7.6 0.8,8 0.8,8.3 C0.8,8.6 0.9,9 1,9.3 C1.1,9.6 1.2,9.9 1.3,10.3 C1.4,10.6 1.5,10.9 1.7,11.2 C1.8,11.5 2,11.7 2.1,11.9 C2.2,12.1 2.3,12.4 2.5,12.5 C2.6,12.7 2.7,12.8 2.8,13 C3,13.3 3.1,13.4 3.1,13.4 C3.1,13.4 3,13.3 2.7,13.1 C2.6,13 2.4,12.9 2.3,12.7 C2.1,12.6 2,12.3 1.8,12.1 C1.6,11.9 1.4,11.7 1.3,11.4 C1.2,11.1 1,10.8 0.8,10.5 C0.7,10.2 0.5,9.8 0.5,9.5 C0.4,9.1 0.3,8.8 0.3,8.4 C0.1,6.9 0.5,5.4 1,4.4 C1.4,3.4 1.9,2.9 1.9,2.9 Z" fill="#8C5634"/>
              <path d="M7.8,12.5 C7.8,12.5 8.3,12.9 8.7,13.7 C8.8,13.9 8.9,14.1 9,14.4 C9.1,14.6 9.2,14.9 9.2,15.2 C9.2,15.5 9.3,15.8 9.3,16.1 C9.3,16.4 9.3,16.7 9.2,17 C9.2,17.3 9,17.6 9,17.9 C8.9,18.2 8.7,18.4 8.6,18.7 C8.4,18.9 8.3,19.2 8.1,19.4 C7.9,19.6 7.7,19.8 7.6,19.9 C7.3,20.2 6.9,20.4 6.7,20.6 C6.5,20.7 6.4,20.8 6.4,20.8 C6.4,20.8 6.5,20.7 6.7,20.5 C6.9,20.3 7.1,20 7.4,19.7 C7.5,19.5 7.7,19.3 7.8,19.1 C7.9,18.9 8,18.7 8.2,18.4 C8.3,18.2 8.4,17.9 8.5,17.7 C8.6,17.4 8.7,17.2 8.7,16.9 C8.8,16.6 8.8,16.4 8.8,16.1 C8.8,15.8 8.8,15.6 8.8,15.3 C8.7,15 8.7,14.8 8.7,14.6 C8.6,14.4 8.6,14.1 8.5,13.9 C8.4,13.5 8.2,13.1 8.1,12.9 C7.9,12.6 7.8,12.5 7.8,12.5 Z" fill="#8C5634"/>
              <path d="M2.8,21 C2.8,21 2.5,21.3 2.3,21.9 C2.2,22.2 2.1,22.5 2,22.9 C2,23.1 2,23.3 1.9,23.5 C1.9,23.7 1.9,23.9 1.9,24.1 C1.9,24.3 1.9,24.5 2,24.7 C2.1,24.9 2.1,25.1 2.2,25.3 C2.3,25.7 2.5,26 2.6,26.3 C2.7,26.6 2.8,26.8 2.9,27 C3,27.2 3,27.3 3,27.3 C3,27.3 2.9,27.2 2.8,27.1 C2.7,27 2.4,26.8 2.3,26.5 C2.1,26.2 1.9,25.9 1.7,25.5 C1.6,25.3 1.5,25.1 1.5,24.9 C1.4,24.7 1.4,24.5 1.4,24.2 C1.4,23.7 1.4,23.3 1.5,22.8 C1.6,22.4 1.8,22 2,21.8 C2.4,21.2 2.8,21 2.8,21 Z" fill="#8C5634"/>
              <path d="M6,26.8 C6,26.8 6.2,27.2 6.4,27.8 C6.5,28.1 6.5,28.5 6.5,28.9 C6.5,29.3 6.4,29.8 6.2,30.2 C6.1,30.4 6,30.6 5.8,30.8 C5.7,31 5.5,31.1 5.3,31.3 C5.1,31.4 4.9,31.5 4.8,31.6 C4.6,31.7 4.5,31.7 4.3,31.8 C4,31.9 3.7,31.9 3.5,31.9 C3.3,31.9 3.2,31.9 3.2,31.9 C3.2,31.9 3.3,31.8 3.5,31.8 C3.7,31.7 3.9,31.6 4.2,31.5 C4.3,31.4 4.5,31.4 4.6,31.3 C4.7,31.2 4.9,31.1 5,31 C5.1,30.9 5.3,30.8 5.4,30.6 C5.5,30.5 5.6,30.3 5.7,30.1 C5.8,29.9 5.8,29.8 5.9,29.6 C5.9,29.4 6,29.2 6,29.1 C6.1,28.7 6.1,28.4 6.1,28.1 C6.1,27.2 6,26.8 6,26.8 Z" fill="#8C5634"/>
            </g>
          </g>
          <g transform="translate(2.000000, 0.000000)">
            <g transform="translate(7.000000, 1.000000)" id="Shape">
              <path d="M0.7,25.7 C-0.9,18.1 -0.3,2 13.8,0.3 C22.8,-0.8 33.9,4.3 31.3,21.8 C31.3,21.8 33,28.4 31.4,33.3 C29.8,38.2 27.6,42.8 21.8,43.3 C13.4,44 3,36.5 0.7,25.7 Z" fill="#FFD0AE"/>
              <path d="M32.3,29.1 C32.3,29.1 32.3,29.6 32.2,30.5 C32.1,31.4 32,32.7 31.6,34.2 C31.2,35.7 30.6,37.4 29.5,39.1 C28.4,40.7 26.8,42.3 24.8,43 C23.8,43.4 22.7,43.5 21.7,43.5 C20.7,43.5 19.7,43.4 18.7,43.2 C16.8,42.9 15,42.4 13.5,41.8 C12.1,41.2 11,40.4 10.3,39.9 C9.9,39.6 9.7,39.4 9.5,39.2 C9.3,39 9.2,38.9 9.2,38.9 C9.2,38.9 9.6,39.2 10.4,39.7 C11.2,40.2 12.3,40.8 13.7,41.4 C15.1,41.9 16.9,42.4 18.8,42.6 C19.8,42.7 20.7,42.8 21.8,42.9 C22.8,43 23.8,42.8 24.7,42.5 C26.6,41.8 28.1,40.4 29.2,38.8 C30.3,37.2 31,35.5 31.4,34.1 C31.8,32.6 32.1,31.3 32.2,30.5 C32.2,29.6 32.3,29.1 32.3,29.1 Z" fill="#BF8865"/>
            </g>
            <g id="Shape">
              <g>
                <path d="M42.7,34.3 C40.1,33.1 41,31.2 41.6,27.2 C42.1,23.8 40,21.9 39.3,21.4 C40.3,22.1 41.9,21.2 41.9,21.2 C39,21.2 39.2,15 38.7,11.6 C38.3,8.2 34.2,2.4 29.1,1.1 C24,-0.2 21.7,1 21.7,1 C16.7,-0.3 9.4,2.2 7.6,7.7 C5.8,13.2 1.9,15.5 1.9,15.5 C1.9,15.5 3.4,16 4.6,15.5 C4.6,15.5 2.4,17.3 1.6,20.4 C1.1,22.4 2.1,25.6 0,26.3 C0,26.3 1.8,27.3 3.1,26.2 C3.1,26.2 0.4,29 1.6,31.4 C5.5,39.2 11.8,36 11.8,36 C9,29.3 13.1,23.7 13.1,23.7 C13.4,24 13.7,24.9 13.9,25.7 C13.9,27.3 13.8,29.6 13.5,31 C12.9,33.4 8,42.5 12.6,44.2 C12.6,44.2 12.4,43.2 12.8,41.8 C12.8,41.8 13,49.5 20.9,50.8 C20.9,50.8 19.7,49.8 19.7,49 C19.7,49 21.5,51.2 24.8,51.5 C28.2,51.8 28.3,53.5 28.3,53.5 C28.3,53.5 30.6,52.5 30.3,50.1 C30.3,50.1 34.1,50 34.7,46.9 C34.7,46.9 34.7,48.5 34.1,49.2 C34.1,49.2 36.8,47.9 36.4,44.4 C36.4,44.4 36.8,45.8 38.2,45.8 C38.2,45.8 36.8,44.3 37.6,42.9 C38.4,41.5 39.2,38.4 38.9,36.6 C38.9,36.6 39.4,38.6 39.4,39.6 C39.4,39.6 40.4,37.5 40.6,34.5 C41.7,34.7 42.7,34.3 42.7,34.3 Z M36.9,31.9 C34.9,32.9 23.1,33.8 18.5,29.8 C18.5,29.8 18.4,30.6 18.5,31.2 C16.9,29.2 15.9,26.3 15.3,23 C15.2,21.8 15.1,20.5 14.9,19.1 C14.5,15.7 16.5,10.9 20.4,8.3 C24.3,5.8 28.2,8.4 28.2,8.4 C28.2,8.4 29.8,6.1 34.1,7.8 C38.4,9.5 38.2,18.9 38.3,22.7 C38.7,24.4 39,26.3 39.1,28.5 C39,29.7 38.4,31.1 36.9,31.9 Z" fill="#BF7547"/>
                <path d="M42.7,34.3 C42.7,34.3 42.5,34.3 42.1,34.1 C41.7,33.9 41.1,33.6 40.8,32.9 C40.6,32.5 40.6,32.1 40.6,31.7 C40.6,31.3 40.8,30.9 40.9,30.4 C41.1,29.6 41.3,28.7 41.4,27.8 C41.5,26.9 41.5,26 41.4,25.2 C41.3,24.8 41.2,24.4 41.1,24 C41,23.6 40.8,23.3 40.6,23 C40.3,22.4 39.9,22 39.6,21.7 C39.3,21.4 39.1,21.3 39.1,21.3 C39.1,21.3 39.3,21.4 39.6,21.7 C39.8,21.8 40,22 40.2,22.2 C40.4,22.4 40.6,22.6 40.9,22.9 C41.1,23.2 41.3,23.5 41.5,23.9 C41.6,24.1 41.7,24.3 41.7,24.5 C41.8,24.7 41.8,24.9 41.9,25.1 C42,25.5 42.1,26 42.1,26.5 C42.1,27 42.1,27.5 42,27.9 C41.9,28.8 41.7,29.8 41.4,30.6 C41.3,31 41.1,31.4 41.1,31.8 C41,32.2 41,32.5 41.1,32.8 C41.3,33.4 41.7,33.8 42.1,34 C42.5,34.2 42.7,34.3 42.7,34.3 Z" fill="#8C5634"/>
                <path d="M41.9,21.3 C41.9,21.3 41.8,21.3 41.5,21.2 C41.3,21.1 40.9,21.1 40.5,20.8 C40.1,20.5 39.9,20 39.7,19.4 C39.5,18.8 39.4,18.1 39.3,17.3 C39.1,15.8 38.9,14 38.4,12.1 C38,10.2 37.3,8.3 36.1,6.6 C35,4.9 33.5,3.5 31.7,2.7 C30.8,2.3 30,2 29.1,1.7 C28.3,1.4 27.4,1.2 26.7,1.1 C25.2,0.8 23.9,0.7 23,0.8 C22.1,0.9 21.6,1.1 21.6,1.1 C21.6,1.1 22,0.8 22.9,0.6 C23.8,0.4 25.1,0.4 26.7,0.6 C27.5,0.7 28.3,0.9 29.2,1.1 C30.1,1.3 31,1.6 31.9,2 C33.7,2.8 35.4,4.3 36.5,6.1 C37.7,7.9 38.4,9.9 38.8,11.8 C39.2,13.7 39.3,15.6 39.5,17.1 C39.6,17.9 39.7,18.6 39.8,19.2 C39.9,19.8 40.2,20.3 40.5,20.6 C40.8,20.9 41.2,21 41.4,21.1 C41.8,21.3 41.9,21.3 41.9,21.3 Z" fill="#8C5634"/>
                <path d="M28.2,8.5 C28.2,8.5 28,8 27.7,7.4 C27.4,6.7 26.9,5.9 26.2,5.2 C25.9,4.8 25.6,4.5 25.2,4.1 C24.9,3.8 24.6,3.5 24.3,3.3 C24,3.1 23.8,2.9 23.6,2.7 C23.4,2.6 23.3,2.5 23.3,2.5 C23.3,2.5 23.4,2.5 23.6,2.6 C23.8,2.7 24.1,2.8 24.4,3 C24.7,3.2 25.1,3.4 25.5,3.7 C25.9,4 26.2,4.4 26.6,4.8 C26.9,5.2 27.2,5.6 27.4,6.1 C27.6,6.5 27.8,7 27.9,7.3 C28.2,8 28.2,8.5 28.2,8.5 Z" fill="#8C5634"/>
                <path d="M1.8,20.5 C1.8,20.5 1.8,19.9 2,19.1 C2.1,18.7 2.3,18.3 2.6,17.8 C2.9,17.3 3.2,16.9 3.6,16.5 C4.3,15.7 5.2,15 6,14.7 C6.3,14.5 6.7,14.4 6.9,14.3 C7.1,14.2 7.2,14.2 7.2,14.2 C7.2,14.2 7.1,14.3 6.9,14.4 C6.7,14.5 6.4,14.7 6.1,15 C5.8,15.2 5.4,15.5 5.1,15.9 C4.9,16.1 4.7,16.3 4.6,16.4 C4.4,16.6 4.2,16.8 4.1,17 C3.7,17.4 3.4,17.8 3.1,18.2 C2.8,18.6 2.6,19 2.4,19.3 C1.9,19.9 1.8,20.5 1.8,20.5 Z" fill="#8C5634"/>
                <path d="M0.2,26.4 C0.2,26.4 0.5,26.4 1,26.5 C1.2,26.5 1.5,26.5 1.8,26.5 C2.1,26.5 2.4,26.4 2.7,26.3 C3,26.2 3.3,26.1 3.5,25.9 C3.6,25.8 3.7,25.7 3.8,25.7 C3.9,25.6 4,25.5 4.1,25.5 C4.3,25.3 4.4,25.2 4.5,25.1 C4.6,25 4.7,24.9 4.7,24.9 C4.7,24.9 4.7,25 4.6,25.1 C4.5,25.2 4.5,25.5 4.3,25.7 C4.2,25.8 4.2,25.9 4,26.1 C3.9,26.2 3.8,26.4 3.6,26.4 C3.5,26.5 3.3,26.6 3.2,26.7 C3,26.8 2.9,26.9 2.7,26.9 C2.3,27 2,27 1.6,27 C1.3,27 1,26.9 0.7,26.8 C0.5,26.6 0.2,26.4 0.2,26.4 Z" fill="#8C5634"/>
                <path d="M6.6,10.4 C6.6,10.4 6.7,10.2 6.8,9.8 C6.9,9.5 7.1,8.9 7.3,8.3 C7.5,7.7 7.8,6.9 8.1,6.2 C8.3,5.8 8.5,5.4 8.8,5.1 C9,4.7 9.4,4.4 9.6,4.1 C9.9,3.8 10.2,3.5 10.6,3.2 C10.9,2.9 11.3,2.7 11.7,2.5 C12.1,2.3 12.4,2.1 12.8,2 C13.1,1.8 13.5,1.7 13.8,1.6 C14.1,1.5 14.4,1.4 14.7,1.4 C15,1.4 15.2,1.3 15.4,1.3 C15.8,1.2 16,1.2 16,1.2 C16,1.2 15.8,1.3 15.4,1.4 C15.2,1.5 15,1.5 14.8,1.6 C14.5,1.7 14.3,1.8 14,2 C13.7,2.1 13.4,2.3 13.1,2.5 C12.8,2.7 12.4,2.8 12.1,3.1 C11.8,3.3 11.4,3.6 11.1,3.8 C10.8,4 10.5,4.4 10.2,4.7 C9.9,5 9.6,5.3 9.4,5.7 C9.1,6 8.9,6.4 8.7,6.7 C8.3,7.4 8,8.1 7.7,8.7 C7.4,9.3 7.2,9.8 7,10.1 C6.9,10.3 6.8,10.4 6.8,10.5 C6.6,10.3 6.6,10.4 6.6,10.4 Z" fill="#8C5634"/>
              </g>
              <g transform="translate(10.000000, 33.000000)" fill="#8C5634">
                <path d="M18.5,20.5 C18.5,20.5 18.8,20.2 19.2,19.8 C19.4,19.6 19.6,19.3 19.8,19 C20,18.7 20.2,18.4 20.2,18 C20.3,17.7 20.3,17.3 20.3,17 C20.2,16.7 20.2,16.3 20,16.1 C19.9,15.8 19.8,15.6 19.7,15.4 C19.6,15.2 19.6,15.1 19.6,15.1 C19.6,15.1 19.7,15.2 19.8,15.3 C19.9,15.4 20.1,15.6 20.3,15.9 C20.5,16.2 20.7,16.5 20.8,16.9 C20.8,17.1 20.9,17.3 20.9,17.5 C20.9,17.7 20.9,18 20.8,18.2 C20.7,18.6 20.5,19 20.2,19.4 C19.9,19.7 19.6,19.9 19.4,20.1 C18.9,20.4 18.5,20.5 18.5,20.5 Z"/>
                <path d="M20.5,17.1 C20.5,17.1 20.9,17 21.5,16.7 C22.1,16.4 22.8,16.1 23.4,15.6 C23.5,15.5 23.7,15.4 23.8,15.2 C23.9,15.1 24.1,14.9 24.2,14.8 C24.3,14.7 24.4,14.5 24.5,14.3 C24.6,14.2 24.7,14 24.7,13.9 C24.8,13.6 24.9,13.4 24.9,13.2 C25,13 25,12.9 25,12.9 C25,12.9 25,13 25,13.2 C25,13.4 25,13.7 25,14 C25,14.2 24.9,14.3 24.9,14.5 C24.8,14.7 24.8,14.9 24.7,15.1 C24.5,15.5 24.2,15.8 23.9,16.1 C23.5,16.4 23.2,16.6 22.8,16.8 C22.4,17 22,17 21.7,17.1 C20.9,17.1 20.5,17.1 20.5,17.1 Z"/>
                <path d="M28.3,12.8 C28.3,12.8 28.1,12.7 27.9,12.5 C27.7,12.3 27.4,11.9 27.3,11.4 C27.2,10.9 27.3,10.2 27.6,9.6 C27.8,9 28,8.4 28.2,7.7 C28.6,6.4 28.8,5.1 28.8,4.1 C28.8,3.9 28.8,3.6 28.7,3.4 C28.7,3.2 28.6,3 28.6,2.9 C28.5,2.6 28.4,2.5 28.4,2.5 C28.4,2.5 28.5,2.6 28.7,2.9 C28.8,3 28.9,3.2 28.9,3.4 C29,3.6 29,3.8 29.1,4.1 C29.3,5.2 29.1,6.6 28.7,7.9 C28.5,8.6 28.3,9.2 28,9.8 C27.7,10.4 27.5,10.9 27.6,11.4 C27.6,11.9 27.8,12.3 27.9,12.5 C28.2,12.6 28.3,12.8 28.3,12.8 Z"/>
                <path d="M29.5,6.5 C29.5,6.5 29.6,6.1 29.7,5.5 C29.8,4.9 30,4.1 30.1,3.4 C30.2,2.6 30.3,1.9 30.3,1.3 C30.3,1 30.3,0.8 30.2,0.6 C30.2,0.4 30.1,0.3 30.1,0.3 C30.1,0.3 30.2,0.4 30.3,0.5 C30.4,0.6 30.4,0.7 30.5,0.8 C30.6,0.9 30.6,1 30.7,1.2 C30.9,1.8 30.9,2.7 30.8,3.5 C30.7,4.3 30.4,5.1 30.1,5.6 C29.8,6.2 29.5,6.5 29.5,6.5 Z"/>
                <path d="M24.2,16.2 C24.2,16.2 24.5,16 24.8,15.6 C25.2,15.2 25.5,14.7 25.8,14.1 C25.9,13.8 26,13.5 26.1,13.2 C26.2,12.9 26.2,12.6 26.3,12.3 C26.4,12 26.4,11.8 26.4,11.7 C26.4,11.5 26.4,11.5 26.4,11.5 C26.4,11.5 26.4,11.6 26.5,11.7 C26.5,11.9 26.6,12.1 26.6,12.4 C26.6,12.7 26.6,13 26.6,13.4 C26.6,13.8 26.5,14.1 26.3,14.5 C26.1,14.8 25.9,15.2 25.7,15.4 C25.5,15.7 25.2,15.9 25,16 C24.6,16.2 24.2,16.2 24.2,16.2 Z"/>
                <path d="M11.1,17.9 C11.1,17.9 10.9,17.9 10.4,17.9 C10,17.9 9.4,17.8 8.7,17.6 C8.3,17.5 8,17.3 7.6,17.2 C7.2,17 6.8,16.8 6.5,16.5 C6.1,16.2 5.8,15.9 5.4,15.6 C5,15.3 4.8,14.9 4.5,14.5 C4.3,14.1 4,13.7 3.8,13.2 C3.6,12.7 3.4,12.3 3.3,11.9 C3.2,11.5 3.1,11 3,10.6 C3,10.2 2.9,9.8 2.9,9.4 C2.8,9 2.9,8.7 2.9,8.4 C2.9,8.1 2.9,7.9 2.9,7.6 C2.9,7.2 2.9,6.9 2.9,6.9 C2.9,6.9 2.9,7.1 3,7.6 C3.1,8 3.1,8.6 3.2,9.3 C3.3,9.6 3.3,10 3.4,10.4 C3.5,10.8 3.7,11.2 3.8,11.6 C3.9,12 4.1,12.4 4.3,12.8 C4.5,13.2 4.8,13.6 5,14 C5.3,14.4 5.5,14.8 5.8,15.1 C6.1,15.4 6.4,15.7 6.8,16 C7.1,16.3 7.5,16.5 7.8,16.7 C8.2,16.9 8.5,17.1 8.8,17.2 C9.4,17.5 10,17.7 10.4,17.8 C10.8,17.8 11.1,17.9 11.1,17.9 Z"/>
                <path d="M2.8,11.2 C2.8,11.2 2.7,11.2 2.4,11.1 C2.2,11 1.9,10.9 1.5,10.7 C1.3,10.6 1.2,10.4 1,10.2 C0.9,10 0.7,9.8 0.6,9.6 C0.5,9.4 0.4,9.1 0.4,8.9 C0.3,8.6 0.3,8.4 0.3,8.1 C0.3,7.8 0.3,7.6 0.3,7.3 C0.3,7 0.4,6.8 0.4,6.6 C0.5,6.1 0.7,5.7 0.8,5.3 C0.9,4.9 1.1,4.7 1.2,4.5 C1.3,4.3 1.4,4.2 1.4,4.2 C1.4,4.2 1.3,4.7 1.2,5.4 C1.2,5.8 1,6.2 1,6.7 C1,6.9 0.9,7.2 0.9,7.4 C0.9,7.6 0.9,7.9 0.9,8.1 C0.9,8.3 0.9,8.6 1,8.8 C1,9 1.1,9.2 1.1,9.5 C1.2,9.9 1.4,10.3 1.7,10.5 C1.9,10.8 2.2,11 2.3,11.1 C2.7,11.2 2.8,11.2 2.8,11.2 Z"/>
              </g>
            </g>
            <g transform="translate(7.000000, 21.000000)" id="Shape">
              <path d="M7.3,4.7 C7.3,4.7 5.9,-0.3 2.5,1.1 C-1,2.6 2,7.8 2,7.8 C2,7.8 1.6,13.6 6,10.4 C7,9.7 7.8,6.8 7.3,4.7 Z" fill="#FFD0AE"/>
              <path d="M2.4,4.4 C2.4,4.4 2.4,4.3 2.4,4 C2.4,3.7 2.4,3.4 2.5,2.9 C2.6,2.7 2.6,2.4 2.8,2.2 C3,2 3.2,1.8 3.6,1.7 C3.9,1.6 4.3,1.7 4.6,1.8 C4.9,1.9 5.2,2.2 5.4,2.4 C5.8,2.9 6.1,3.4 6.2,4 C6.4,4.5 6.5,5 6.5,5.5 C6.6,6.4 6.4,7 6.4,7 C6.4,7 6.4,6.4 6.2,5.6 C6,4.8 5.6,3.7 4.9,2.9 C4.7,2.7 4.6,2.6 4.4,2.5 C4.2,2.4 4,2.4 3.8,2.4 C3.4,2.5 3.1,2.8 2.9,3.2 C2.7,3.6 2.6,3.9 2.6,4.2 C2.5,4.2 2.4,4.4 2.4,4.4 Z" fill="#BF8865"/>
              <path d="M5.6,4.1 C5.6,4.1 5.5,4.2 5.3,4.4 C5.1,4.6 4.9,4.8 4.7,5.1 C4.3,5.6 3.9,6.3 3.9,6.3 C3.9,6.3 3.9,6.1 3.9,5.8 C3.9,5.5 4,5.1 4.3,4.8 C4.4,4.6 4.6,4.5 4.7,4.4 C4.8,4.3 5,4.2 5.1,4.2 C5.4,4 5.6,4.1 5.6,4.1 Z" fill="#BF8865"/>
            </g>
            <g transform="translate(18.000000, 17.000000)">
              <g transform="translate(1.000000, 3.000000)" fill="#4A311F">
                <ellipse id="Oval" cx="3.6" cy="3.3" rx="1.1" ry="2.1"/>
                <path d="M0.3,2.3 C0.3,2.3 0.5,2 1,1.6 C1.2,1.4 1.5,1.2 1.9,1 C2.2,0.8 2.7,0.7 3.1,0.7 C3.3,0.7 3.5,0.7 3.7,0.7 C3.9,0.7 4.1,0.8 4.3,0.9 C4.5,1 4.7,1.1 4.8,1.2 C5,1.3 5.1,1.4 5.2,1.5 C5.4,1.7 5.5,1.9 5.6,2.1 C5.7,2.3 5.7,2.3 5.7,2.3 C5.7,2.3 5.6,2.2 5.5,2.1 C5.4,2 5.4,2 5.3,1.9 C5.2,1.8 5.1,1.8 5,1.7 C4.9,1.6 4.8,1.6 4.6,1.5 C4.5,1.4 4.3,1.4 4.2,1.3 C4,1.2 3.9,1.2 3.7,1.2 C3.5,1.2 3.4,1.2 3.2,1.2 C2.5,1.3 1.8,1.5 1.3,1.8 C0.7,2.1 0.3,2.3 0.3,2.3 Z" id="Shape"/>
              </g>
              <g transform="translate(12.000000, 3.000000)" fill="#4A311F">
                <ellipse id="Oval" cx="4" cy="3" rx="1.1" ry="2.1"/>
                <path d="M0.8,1.9 C0.8,1.9 1,1.6 1.5,1.2 C1.7,1 2,0.8 2.4,0.6 C2.7,0.4 3.2,0.3 3.6,0.3 C3.8,0.3 4,0.3 4.2,0.3 C4.4,0.3 4.6,0.4 4.8,0.5 C5,0.6 5.2,0.7 5.3,0.8 C5.5,0.9 5.6,1 5.7,1.1 C5.9,1.3 6,1.5 6.1,1.7 C6.2,1.9 6.2,1.9 6.2,1.9 C6.2,1.9 6.1,1.8 6,1.7 C5.9,1.6 5.9,1.6 5.8,1.5 C5.7,1.4 5.6,1.4 5.5,1.3 C5.4,1.2 5.3,1.2 5.1,1.1 C5,1 4.8,1 4.7,0.9 C4.5,0.8 4.4,0.8 4.2,0.8 C4,0.8 3.9,0.8 3.7,0.8 C3,0.9 2.3,1.1 1.8,1.4 C1.1,1.7 0.8,1.9 0.8,1.9 Z" id="Shape"/>
              </g>
              <path d="M2.2,1.2 C0.8,0.8 -0.2,1.6 1.8,2.9 C4.3,4.5 8.7,4.8 8.8,3.4 C9,2 6.9,2.7 5.7,2.4 C4.5,2.1 3.3,1.5 2.2,1.2 Z" id="Shape" fill="#BF7547"/>
              <path d="M17.5,0.9 C18.7,0.5 19.6,1.3 18,2.6 C16,4.2 12.3,4.4 12,3 C11.8,1.6 13.6,2.3 14.6,2.1 C15.6,1.8 16.6,1.2 17.5,0.9 Z" id="Shape" fill="#BF7547"/>
              <g transform="translate(10.000000, 8.000000)" fill="#BF8865" id="Shape">
                <path d="M2.3,0.4 C2.3,0.4 2.8,0.6 3.4,1.2 C4,1.8 4.7,2.6 5.1,3.8 C5.2,4.1 5.2,4.4 5.2,4.7 C5.2,4.9 5.2,5 5.2,5.1 C5.2,5.3 5.1,5.4 5.1,5.5 C4.9,6 4.5,6.4 4.1,6.6 C3.4,7.1 2.9,7.2 2.9,7.2 C2.9,7.2 3,7.1 3.2,7 C3.4,6.9 3.7,6.7 3.9,6.4 C4.2,6.1 4.5,5.8 4.6,5.4 C4.6,5.3 4.7,5.2 4.7,5.1 C4.7,5 4.7,4.8 4.7,4.8 C4.7,4.6 4.6,4.3 4.6,4.1 C4.3,3.1 3.7,2.3 3.3,1.6 C2.7,0.9 2.3,0.4 2.3,0.4 Z"/>
                <path d="M0.6,6.7 C0.6,6.7 0.9,6.3 1.3,6.2 C1.7,6 2.1,6.1 2.2,6.1 C2.2,6.1 2.1,6.2 2,6.3 C1.9,6.4 1.7,6.5 1.5,6.6 C1,6.8 0.6,6.7 0.6,6.7 Z"/>
              </g>
              <path d="M7.7,20.3 C7.7,20.3 8.2,20.1 8.9,19.8 C9.6,19.6 10.6,19.3 11.6,19.2 C12.1,19.2 12.6,19.1 13.1,19.1 C13.6,19.1 14,19.2 14.4,19.3 C14.8,19.4 15.1,19.5 15.3,19.6 C15.5,19.7 15.6,19.8 15.6,19.8 C15.6,19.8 15.5,19.8 15.3,19.8 C15.1,19.8 14.8,19.8 14.4,19.7 C13.7,19.7 12.7,19.8 11.7,19.9 C10.7,20 9.7,20.1 9,20.2 C8.2,20.2 7.7,20.3 7.7,20.3 Z" id="Shape" fill="#8C5634"/>
              <g transform="translate(5.000000, 13.000000)" id="Shape">
                <path d="M4.5,1.4 C2.3,1.7 0.9,2.4 0.7,4 C0.7,4 1.3,3.4 1.9,3.2 C1.9,3.2 0.3,4.2 1.2,6.2 C1.2,6.2 3.4,5.6 4.1,4.4 C4.1,4.4 3.8,5.4 4.3,6.1 C4.3,6.1 6.8,5.9 7.3,4 C7.3,4 7.7,5.3 9.3,5.3 C9.3,5.3 9.5,4.1 8.9,3.3 C8.9,3.3 9.9,4.4 10.3,5.1 C10.3,5.1 11,4.4 10.6,3.8 C10.6,3.8 11.4,4.2 11.6,5.2 C11.6,5.2 13.7,2.6 10,0.7 C7.6,3.2 6.4,2.2 4.5,1.4 Z" fill="#BF7547"/>
                <path d="M1.2,6.3 C1.2,6.3 1.4,6.2 1.7,6 C2,5.8 2.3,5.6 2.7,5.4 C3.1,5.2 3.4,5 3.7,4.9 C3.8,4.8 4,4.8 4,4.7 C4.1,4.6 4.1,4.6 4.1,4.6 C4.1,4.6 4.1,4.8 3.9,5.1 C3.7,5.4 3.4,5.7 3,5.9 C2.6,6.1 2.2,6.2 1.8,6.3 C1.4,6.3 1.2,6.3 1.2,6.3 Z" fill="#8C5634"/>
                <path d="M0.7,4 C0.7,4 0.7,3.8 0.9,3.6 C1,3.4 1.3,3.2 1.5,3 C1.8,2.8 2.1,2.7 2.3,2.7 C2.6,2.7 2.7,2.7 2.7,2.7 C2.7,2.7 2.7,2.7 2.6,2.8 C2.5,2.8 2.5,2.9 2.4,3 C2.2,3.2 2,3.3 1.7,3.5 C1.4,3.7 1.2,3.8 1,3.9 C0.9,4 0.7,4 0.7,4 Z" fill="#8C5634"/>
                <path d="M4.2,6.2 C4.2,6.2 4.4,6.1 4.8,6 C5.1,5.9 5.5,5.7 5.9,5.4 C6.3,5.2 6.6,4.9 6.8,4.6 C6.9,4.5 7,4.4 7.1,4.3 C7.2,4.2 7.2,4.2 7.2,4.2 C7.2,4.2 7.2,4.3 7.2,4.4 C7.2,4.5 7.2,4.7 7.1,4.9 C7,5.1 6.9,5.3 6.8,5.5 C6.7,5.7 6.5,5.9 6.3,6 C5.9,6.3 5.3,6.5 4.9,6.4 C4.4,6.3 4.2,6.2 4.2,6.2 Z" fill="#8C5634"/>
                <path d="M11.4,5.3 C11.4,5.3 11.4,5.2 11.5,5.1 C11.6,5 11.6,4.7 11.7,4.5 C11.8,4 11.9,3.4 11.6,2.8 C11.5,2.7 11.5,2.5 11.4,2.4 C11.3,2.3 11.2,2.1 11.1,2 C11,1.9 10.9,1.8 10.8,1.7 C10.7,1.6 10.6,1.5 10.5,1.4 C10.3,1.2 10.1,1.1 10,1 C9.9,0.9 9.8,0.8 9.8,0.8 C9.8,0.8 9.9,0.8 10,0.9 C10.1,1 10.4,1 10.6,1.1 C10.8,1.2 11.1,1.4 11.4,1.6 C11.7,1.8 11.9,2.1 12.1,2.5 C12.3,2.9 12.4,3.3 12.3,3.7 C12.3,4.1 12.1,4.4 12,4.6 C11.9,4.8 11.7,5 11.6,5.1 C11.5,5.3 11.4,5.3 11.4,5.3 Z" fill="#8C5634"/>
                <path d="M9.2,5.4 C9.2,5.4 9.1,5.3 9.1,5.1 C9.1,5 9,4.9 9,4.8 C9,4.7 9,4.6 8.9,4.4 C8.8,3.9 8.8,3.4 8.8,3.4 C8.8,3.4 8.9,3.5 9.1,3.6 C9.2,3.7 9.2,3.8 9.3,3.9 C9.3,4 9.4,4.2 9.4,4.3 C9.4,4.6 9.4,4.8 9.4,5 C9.2,5.3 9.2,5.4 9.2,5.4 Z" fill="#8C5634"/>
                <path d="M10.1,5.2 C10.1,5.2 10.1,5.1 10.1,5 C10.1,4.9 10.2,4.7 10.2,4.6 C10.2,4.5 10.2,4.5 10.3,4.4 C10.3,4.3 10.3,4.3 10.4,4.2 C10.4,4.1 10.5,4 10.5,4 C10.5,4 10.6,4.1 10.6,4.2 C10.7,4.3 10.7,4.5 10.7,4.7 C10.7,4.8 10.6,4.9 10.6,5 C10.6,5.1 10.5,5.1 10.4,5.2 C10.2,5.2 10.1,5.2 10.1,5.2 Z" fill="#8C5634"/>
              </g>
              <path d="M8.9,4.1 C8.9,4.1 9,4 9.2,3.8 C9.3,3.6 9.4,3.4 9.5,3.1 C9.6,2.8 9.6,2.5 9.7,2.3 C9.7,2.1 9.8,1.9 9.8,1.9 C9.8,1.9 9.9,2 10,2.3 C10.1,2.5 10.1,2.9 10,3.2 C9.9,3.5 9.7,3.9 9.4,4 C9.1,4.2 8.9,4.1 8.9,4.1 Z" id="Shape" fill="#BF8865"/>
            </g>
          </g>
        </g>
      </g>
    </g>
  </g>
</svg>