<svg version="1.1" width="173" height="121" viewBox="-1 -1 173 121" xmlns="http://www.w3.org/2000/svg" xmlns:xlink="http://www.w3.org/1999/xlink">
  <!-- Exported by Scratch - http://scratch.mit.edu/ -->
  <g id="ID0.5476893447339535" transform="matrix(1, 0, 0, 1, 0.75, 0.75)">
    <g id="Page-1">
      <g id="andie-d-[sports,basketball,people,wheelchair,handicap,handicapable,alex-eben-meyer]">
        <g id="Head">
          <path id="Fill-1" fill="#000000" stroke="none" stroke-width="1" d="M 10.724 0.188 C 12.397 0.412 14.312 1.150 15.400 1.992 C 17.567 3.670 19.414 4.906 18.739 11.790 C 18.800 11.174 4.558 4.597 4.558 4.597 C 5.029 2.117 8.117 -0.162 10.724 0.188 " transform="matrix(1, 0, 0, 1, 75, 7.5)"/>
          <path id="Fill-3" fill="#A0783C" stroke="none" stroke-width="1" d="M 17.870 11.398 C 17.870 11.398 18.456 9.060 20.801 10.302 C 23.145 11.544 21.590 14.306 21.020 15.342 C 20.319 16.617 18.978 17.023 17.661 17.456 C 17.839 15.067 17.870 11.398 17.870 11.398 " transform="matrix(1, 0, 0, 1, 75, 7.5)"/>
          <path id="Fill-5" fill="#A0783C" stroke="none" stroke-width="1" d="M 4.421 16.456 C 3.105 16.022 1.764 15.616 1.063 14.342 C 0.493 13.306 -1.062 10.544 1.282 9.302 C 3.627 8.060 4.213 10.398 4.213 10.398 C 4.213 10.398 4.244 14.067 4.421 16.456 " transform="matrix(1, 0, 0, 1, 75, 7.5)"/>
          <path id="Fill-7" fill="#BE965A" stroke="none" stroke-width="1" d="M 18.711 10.076 C 18.195 5.945 15.465 1.627 10.769 1.379 C 5.332 1.092 3.176 5.141 3.118 10.032 C 3.240 10.317 3.332 15.101 3.492 16.532 C 3.712 18.495 4.101 20.072 5.226 21.725 C 7.607 25.222 11.176 26.439 14.871 24.920 C 16.494 24.252 17.318 23.095 18.072 21.658 C 18.808 20.253 19.007 12.444 18.711 10.076 " transform="matrix(1, 0, 0, 1, 75, 7.5)"/>
          <path id="Fill-9" fill="#000000" stroke="none" stroke-width="1" d="M 9.581 0.923 L 6.390 3 C 6.390 3 12.596 3.133 14.457 1.940 L 9.581 0.923 Z " transform="matrix(1, 0, 0, 1, 75, 7.5)"/>
          <path id="Fill-11" fill="#000000" stroke="none" stroke-width="1" d="M 11.054 9.615 C 8.907 9.615 7.620 9.511 6.701 11.536 C 6.744 12.558 8.874 13.591 10.939 13.538 C 13.003 13.485 15.002 12.346 15.002 11.384 C 15.002 9.461 13.200 9.614 11.054 9.615 " transform="matrix(1, 0, 0, 1, 75, 7.5)"/>
          <path id="Fill-13" fill="#A0783C" stroke="none" stroke-width="1" d="M 11.620 6.650 C 11.347 5.743 10.900 4.916 10.368 4.075 C 9.297 4.784 8.660 6.703 9.281 7.902 C 9.435 8.199 10.136 9.084 11.296 8.433 C 11.706 8.204 11.791 7.216 11.620 6.650 " transform="matrix(1, 0, 0, 1, 75, 7.5)"/>
          <path id="Fill-15" fill="#000000" stroke="none" stroke-width="1" d="M 14.721 4.608 C 14.940 5.312 14.980 5.849 14.484 6.350 C 13.671 5.952 13.942 5.282 13.926 4.608 L 14.721 4.608 Z " transform="matrix(1, 0, 0, 1, 75, 7.5)"/>
          <path id="Fill-17" fill="#000000" stroke="none" stroke-width="1" d="M 6.682 6.166 C 6.116 6.001 6.116 6.001 5.848 5.404 C 5.954 5.229 6.076 5.027 6.214 4.798 C 6.413 4.836 6.576 4.867 6.746 4.899 C 6.960 5.334 7 5.720 6.682 6.166 " transform="matrix(1, 0, 0, 1, 75, 7.5)"/>
        </g>
        <g id="Bottom-Right-Arm">
          <path id="Fill-19" fill="#BE965A" stroke="none" stroke-width="1" d="M 80.141 26.933 C 80.265 26.736 80.416 26.495 80.570 26.248 C 80.105 24.807 12.182 2.429 5.102 0.142 C 1.945 1.483 -0.338 7.485 0.063 9.434 C 3.082 11.821 72.466 37.590 74.992 35.743 C 74.981 35.511 74.967 35.242 74.955 35.016 C 73.753 34.049 72.246 33.789 71.137 32.897 C 70.973 32.424 71.019 32.065 71.492 31.734 C 73.222 31.608 76.614 32.767 78.049 31.468 C 78.027 31.282 78.002 31.078 77.975 30.854 C 76.801 30.228 74.464 29.540 74.146 28.075 C 74.342 27.819 74.573 27.517 74.784 27.242 C 76.447 27.165 78.671 27.778 80.141 26.933 " transform="matrix(1, 0, 0, 1, 91, 42.5)"/>
          <path id="Fill-21" fill="#A0783C" stroke="none" stroke-width="1" d="M 76.322 20.251 C 75.324 21.299 73.050 21.592 71.737 21.423 C 71.541 21.531 70.741 24.009 69.723 25.209 C 68.377 26.794 66.561 27.144 64.368 26.689 C 61.220 24.720 63.865 21.239 66.555 20.704 C 68.124 20.392 76.029 18.485 76.322 20.251 " transform="matrix(1, 0, 0, 1, 91, 42.5)"/>
          <path id="Fill-23" fill="#A0783C" stroke="none" stroke-width="1" d="M 24.938 5.675 L 16.422 8.326 L 33.059 9.380 L 24.938 5.675 " transform="matrix(1, 0, 0, 1, 91, 42.5)"/>
        </g>
        <g id="Middle-Right-Arm">
          <path id="Fill-25" fill="#BE965A" stroke="none" stroke-width="1" d="M 80.735 3.474 C 80.410 4.726 76.969 5.099 77.202 6.534 C 77.718 7.512 80.528 6.518 81.556 7.292 C 81.063 8.429 78.954 9.235 77.969 9.827 C 77.988 10.025 78.008 10.221 78.022 10.370 C 78.845 10.898 81.118 10.185 81.692 11.075 C 81.223 13.006 11.169 26.430 3.443 26.430 C 3.285 26.559 0.262 13.391 0.262 13.391 C 0.262 13.391 79.104 1.742 80.735 3.474 " transform="matrix(1, 0, 0, 1, 90, 27.5)"/>
          <path id="Fill-27" fill="#A0783C" stroke="none" stroke-width="1" d="M 23.873 9.350 L 15.296 15.614 L 37.336 8.193 L 23.873 9.350 " transform="matrix(1, 0, 0, 1, 90, 27.5)"/>
          <path id="Fill-34" fill="#A0783C" stroke="none" stroke-width="1" d="M 74.668 0.288 C 75.494 0.841 70.214 2.864 70.883 3.558 C 73.066 5.822 72.810 8.544 69.484 8.309 C 67.020 8.135 65.448 6.038 66.982 3.789 C 68.515 1.541 73.842 -0.264 74.668 0.288 " transform="matrix(1, 0, 0, 1, 90, 27.5)"/>
        </g>
        <g id="Top-Right-Arm">
          <path id="Fill-29" fill="#BE965A" stroke="none" stroke-width="1" d="M 61.830 9.702 C 60.612 8.721 68.014 5.077 67.359 3.956 C 66.703 2.835 60.378 7.179 59.394 6.525 C 58.411 5.871 64.556 1.681 64.247 0.787 C 63.939 -0.108 49.696 8.674 49.696 8.674 L 0.673 37.093 C 0.673 37.093 0.863 41.961 1.651 43.959 C 2.144 45.209 2.580 48.691 3.680 49.289 C 6.399 48.082 32.614 34.155 41.945 28.130 C 46.806 24.991 67.793 10.138 68.296 8.160 C 66.929 7.586 63.049 10.683 61.830 9.702 " transform="matrix(1, 0, 0, 1, 93, -0.5)"/>
          <path id="Fill-32" fill="#A0783C" stroke="none" stroke-width="1" d="M 55.238 0.915 C 56.230 0.994 52.649 6.491 53.572 6.769 C 56.587 7.679 57.699 10.177 54.683 11.595 C 52.449 12.645 50.049 11.583 50.284 8.874 C 50.518 6.164 54.246 0.836 55.238 0.915 " transform="matrix(1, 0, 0, 1, 93, -0.5)"/>
        </g>
        <g id="Bottom-Left-Arm">
          <path id="Fill-36" fill="#BE965A" stroke="none" stroke-width="1" d="M 0.551 26.933 C 0.427 26.736 0.276 26.495 0.121 26.248 C 0.587 24.807 68.510 2.429 75.590 0.142 C 78.747 1.483 81.030 7.485 80.629 9.434 C 77.610 11.821 8.226 37.590 5.699 35.743 C 5.711 35.511 5.725 35.242 5.737 35.016 C 6.939 34.049 8.446 33.789 9.554 32.897 C 9.719 32.424 9.674 32.065 9.200 31.734 C 7.470 31.607 4.078 32.767 2.643 31.468 C 2.666 31.282 2.690 31.078 2.716 30.854 C 3.891 30.228 6.228 29.540 6.545 28.075 C 6.350 27.819 6.119 27.517 5.908 27.242 C 4.245 27.165 2.021 27.778 0.551 26.933 " transform="matrix(1, 0, 0, 1, 0, 42.5)"/>
          <path id="Fill-38" fill="#A0783C" stroke="none" stroke-width="1" d="M 4.369 20.251 C 5.369 21.299 7.641 21.592 8.956 21.423 C 9.151 21.531 9.951 24.009 10.969 25.209 C 12.315 26.794 14.131 27.144 16.325 26.689 C 19.472 24.720 16.826 21.239 14.137 20.704 C 12.568 20.392 4.663 18.485 4.369 20.251 " transform="matrix(1, 0, 0, 1, 0, 42.5)"/>
          <path id="Fill-40" fill="#A0783C" stroke="none" stroke-width="1" d="M 55.754 5.675 L 64.269 8.326 L 47.632 9.380 L 55.754 5.675 " transform="matrix(1, 0, 0, 1, 0, 42.5)"/>
        </g>
        <g id="Middle-Left-Arm">
          <path id="Fill-42" fill="#BE965A" stroke="none" stroke-width="1" d="M 0.957 3.474 C 1.281 4.726 4.723 5.099 4.490 6.534 C 3.974 7.512 1.164 6.518 0.137 7.292 C 0.629 8.429 2.738 9.235 3.723 9.827 C 3.704 10.025 3.684 10.221 3.669 10.370 C 2.847 10.898 0.573 10.185 0 11.075 C 0.469 13.006 70.522 26.430 78.250 26.430 C 78.407 26.559 81.429 13.391 81.429 13.391 C 81.429 13.391 2.588 1.742 0.957 3.474 " transform="matrix(1, 0, 0, 1, 0, 27.5)"/>
          <path id="Fill-44" fill="#A0783C" stroke="none" stroke-width="1" d="M 57.819 9.350 L 66.396 15.614 L 44.355 8.193 L 57.819 9.350 " transform="matrix(1, 0, 0, 1, 0, 27.5)"/>
          <path id="Fill-51" fill="#A0783C" stroke="none" stroke-width="1" d="M 7.024 0.288 C 6.198 0.841 11.478 2.864 10.809 3.558 C 8.626 5.822 8.881 8.544 12.208 8.309 C 14.672 8.135 16.243 6.038 14.710 3.789 C 13.176 1.541 7.850 -0.264 7.024 0.288 " transform="matrix(1, 0, 0, 1, 0, 27.5)"/>
        </g>
        <g id="Top-Left-Arm">
          <path id="Fill-46" fill="#BE965A" stroke="none" stroke-width="1" d="M 6.811 9.702 C 8.029 8.721 0.627 5.077 1.283 3.956 C 1.939 2.835 8.264 7.179 9.247 6.525 C 10.231 5.871 4.085 1.681 4.394 0.787 C 4.703 -0.108 18.945 8.674 18.945 8.674 L 67.969 37.093 C 67.969 37.093 67.779 41.961 66.991 43.959 C 66.498 45.209 66.061 48.691 64.961 49.289 C 62.243 48.082 36.028 34.155 26.697 28.130 C 21.836 24.991 0.849 10.138 0.346 8.160 C 1.712 7.586 5.593 10.683 6.811 9.702 " transform="matrix(1, 0, 0, 1, 10, -0.5)"/>
          <path id="Fill-49" fill="#A0783C" stroke="none" stroke-width="1" d="M 13.454 0.915 C 12.462 0.994 16.043 6.491 15.120 6.769 C 12.105 7.679 10.993 10.177 14.009 11.595 C 16.243 12.645 18.643 11.583 18.408 8.874 C 18.174 6.164 14.445 0.836 13.454 0.915 " transform="matrix(1, 0, 0, 1, 10, -0.5)"/>
        </g>
        <g id="Chair">
          <path id="Fill-53" fill="#006482" stroke="none" stroke-width="1" d="M 22.935 17.523 C 22.935 17.523 24.389 4.443 25.358 2.752 C 26.327 1.062 65.319 1.183 65.319 1.183 L 68.462 16.277 L 22.935 17.523 Z " transform="matrix(1, 0, 0, 1, 40, 63.5)"/>
          <path id="Fill-55" fill="#006482" stroke="none" stroke-width="1" d="M 65.712 29.533 C 64.982 34.070 62.703 46.967 62.703 46.967 C 62.703 46.967 62.572 47.419 62.501 48.007 C 61.721 47.929 61.011 48.020 61.011 48.020 C 61.011 48.020 33.407 48.178 31.959 48.102 C 30.907 48.046 29.795 48.032 28.853 48.148 C 28.787 47.493 28.636 46.967 28.636 46.967 C 28.636 46.967 26.358 34.070 25.628 29.533 L 22.749 29.533 C 22.924 30.564 23.112 31.591 23.270 32.617 C 23.726 35.578 25.128 43.831 26.287 48.100 C 26.434 48.641 27.036 50.735 27.540 50.664 C 30.376 51.127 33.289 50.899 36.150 50.897 C 39.155 50.895 63.616 50.633 63.616 50.633 C 63.616 50.633 64.410 50.468 65.053 48.100 C 66.212 43.831 67.614 35.578 68.070 32.617 C 68.228 31.591 68.416 30.564 68.591 29.533 L 65.712 29.533 Z " transform="matrix(1, 0, 0, 1, 40, 63.5)"/>
          <path id="Fill-57" fill="#000000" stroke="none" stroke-width="1" d="M 59.386 56.227 C 58.663 56.244 58.381 55.218 58.379 54.051 C 58.378 52.925 58.274 52.678 58.600 51.562 C 58.805 51.344 59.088 51.221 59.530 51.248 C 60.294 51.420 60.375 52.327 60.313 53.178 C 60.310 53.227 60.655 56.197 59.386 56.227 " transform="matrix(1, 0, 0, 1, 40, 63.5)"/>
          <path id="Fill-59" fill="#008CB4" stroke="none" stroke-width="1" d="M 57.296 52.554 L 61.370 52.554 L 61.370 47.376 L 57.296 47.376 L 57.296 52.554 " transform="matrix(1, 0, 0, 1, 40, 63.5)"/>
          <path id="Fill-61" fill="#000000" stroke="none" stroke-width="1" d="M 32.127 56.227 C 31.405 56.244 31.123 55.218 31.121 54.051 C 31.119 52.925 31.016 52.678 31.342 51.562 C 31.546 51.344 31.830 51.221 32.272 51.248 C 33.036 51.420 33.117 52.327 33.055 53.178 C 33.051 53.227 33.397 56.197 32.127 56.227 " transform="matrix(1, 0, 0, 1, 40, 63.5)"/>
          <path id="Fill-62" fill="#008CB4" stroke="none" stroke-width="1" d="M 30.037 52.554 L 34.111 52.554 L 34.111 47.376 L 30.037 47.376 L 30.037 52.554 " transform="matrix(1, 0, 0, 1, 40, 63.5)"/>
          <path id="Fill-63" fill="#006482" stroke="none" stroke-width="1" d="M 28.166 29.573 L 25.777 30.109 L 22.935 17.523 L 25.323 16.987 L 28.166 29.573 " transform="matrix(1, 0, 0, 1, 40, 63.5)"/>
          <path id="Fill-64" fill="#006482" stroke="none" stroke-width="1" d="M 19.079 45.799 L 16.686 45.282 L 20.406 28.188 L 22.798 28.706 L 19.079 45.799 " transform="matrix(1, 0, 0, 1, 40, 63.5)"/>
          <path id="Fill-65" fill="#006482" stroke="none" stroke-width="1" d="M 71.642 45.799 L 74.034 45.282 L 70.315 28.188 L 67.922 28.706 L 71.642 45.799 " transform="matrix(1, 0, 0, 1, 40, 63.5)"/>
          <path id="Fill-66" fill="#006482" stroke="none" stroke-width="1" d="M 65.825 30.112 L 63.413 29.697 L 65.614 16.984 L 68.027 17.398 L 65.825 30.112 " transform="matrix(1, 0, 0, 1, 40, 63.5)"/>
          <path id="Fill-67" fill="#006482" stroke="none" stroke-width="1" d="M 56.094 29.831 C 55.902 31.212 55.612 32.210 55.953 33.475 C 56.214 33.534 83.257 28.511 83.257 28.511 L 82.029 25.205 C 82.029 25.205 57.213 29.635 56.094 29.831 " transform="matrix(1, 0, 0, 1, 40, 63.5)"/>
          <path id="Fill-68" fill="#008CB4" stroke="none" stroke-width="1" d="M 75.936 21.638 L 78.907 34.822 L 74.896 35.711 L 71.424 22.675 L 75.936 21.638 " transform="matrix(1, 0, 0, 1, 40, 63.5)"/>
          <path id="Fill-69" fill="#000000" stroke="none" stroke-width="1" d="M 69.399 0.603 C 67.793 1.024 68.413 1.356 69.102 5.047 C 70.344 11.699 78.661 38.228 80.002 42.613 C 81.296 46.844 82.270 51.258 84.272 55.231 C 84.972 55.913 85.739 56.187 86.677 55.788 C 88.242 54.564 87.183 50.767 85.979 47.475 C 85.219 45.397 73.096 5.055 73.096 5.055 C 73.096 5.055 72.222 -0.138 69.399 0.603 " transform="matrix(1, 0, 0, 1, 40, 63.5)"/>
          <path id="Fill-70" fill="#000000" stroke="none" stroke-width="1" d="M 75.843 5.439 C 75.396 5.552 75.567 5.645 75.749 6.670 C 76.077 8.518 87.349 43.557 87.710 44.776 C 88.059 45.953 88.318 47.179 88.863 48.286 C 89.056 48.477 89.267 48.555 89.528 48.447 C 89.966 48.111 89.752 46.239 89.427 45.323 C 89.221 44.745 77.475 7.090 77.475 7.090 C 77.475 7.090 76.627 5.240 75.843 5.439 " transform="matrix(1, 0, 0, 1, 40, 63.5)"/>
          <path id="Fill-71" fill="#006482" stroke="none" stroke-width="1" d="M 34.418 29.831 C 34.610 31.212 34.900 32.210 34.558 33.475 C 34.299 33.534 7.255 28.511 7.255 28.511 L 8.483 25.205 C 8.483 25.205 33.299 29.635 34.418 29.831 " transform="matrix(1, 0, 0, 1, 40, 63.5)"/>
          <path id="Fill-72" fill="#008CB4" stroke="none" stroke-width="1" d="M 14.576 21.638 L 11.605 34.822 L 15.616 35.711 L 19.089 22.675 L 14.576 21.638 " transform="matrix(1, 0, 0, 1, 40, 63.5)"/>
          <path id="Fill-73" fill="#000000" stroke="none" stroke-width="1" d="M 21.113 0.603 C 22.719 1.024 22.099 1.356 21.410 5.047 C 20.168 11.699 11.852 38.228 10.510 42.613 C 9.216 46.844 8.242 51.258 6.241 55.231 C 5.540 55.913 4.774 56.187 3.836 55.788 C 2.270 54.564 3.330 50.767 4.534 47.475 C 5.293 45.397 17.417 5.055 17.417 5.055 C 17.417 5.055 18.290 -0.138 21.113 0.603 " transform="matrix(1, 0, 0, 1, 40, 63.5)"/>
          <path id="Fill-74" fill="#000000" stroke="none" stroke-width="1" d="M 14.669 5.439 C 15.116 5.552 14.945 5.645 14.763 6.670 C 14.435 8.518 3.163 43.557 2.802 44.776 C 2.454 45.953 2.195 47.179 1.649 48.286 C 1.457 48.477 1.245 48.555 0.984 48.447 C 0.547 48.111 0.760 46.239 1.086 45.323 C 1.291 44.745 13.037 7.090 13.037 7.090 C 13.037 7.090 13.885 5.240 14.669 5.439 " transform="matrix(1, 0, 0, 1, 40, 63.5)"/>
          <path id="Fill-75" fill="#006482" stroke="none" stroke-width="1" d="M 35.306 29.830 L 35.306 33.551 C 39.122 33.558 47.809 33.584 56.035 33.514 L 56.035 29.766 C 49.001 29.795 41.036 29.823 35.306 29.830 " transform="matrix(1, 0, 0, 1, 40, 63.5)"/>
          <path id="Fill-76" fill="#008CB4" stroke="none" stroke-width="1" d="M 68.379 14.411 C 61.079 14.014 26.407 14.296 23.482 15.325 C 21.194 15.172 20.462 16.461 21.332 18.318 C 22.281 19.137 23.801 19.746 25.122 19.415 C 32.525 19.260 57.992 19.282 64.625 19.131 C 65.429 19.401 68.683 18.923 69.408 18.411 C 69.626 17.400 70.388 14.016 68.379 14.411 " transform="matrix(1, 0, 0, 1, 40, 63.5)"/>
          <path id="Fill-77" fill="#008CB4" stroke="none" stroke-width="1" d="M 74.537 45.446 C 74.579 46.528 74.253 46.205 71.808 46.481 C 67.401 46.979 29.125 46.868 26.120 46.871 C 23.221 46.873 20.268 47.110 17.396 46.622 C 16.834 46.316 16.516 45.891 16.587 45.230 C 17.054 44.020 19.637 43.955 21.930 44.076 C 23.378 44.152 71.039 43.994 71.039 43.994 C 71.039 43.994 74.461 43.546 74.537 45.446 " transform="matrix(1, 0, 0, 1, 40, 63.5)"/>
        </g>
        <g id="Torso">
          <path id="Fill-78" fill="#780046" stroke="none" stroke-width="1" d="M 34.150 34.129 C 32.296 33.805 5.007 34.756 0.566 34.420 L 4.363 46.067 C 6.221 46.539 29.270 46.231 33.420 45.339 C 33.572 44.058 34.076 34.820 34.150 34.129 " transform="matrix(1, 0, 0, 1, 67, 33.5)"/>
          <path id="Fill-79" fill="#BE965A" stroke="none" stroke-width="1" d="M 26.881 2.225 C 25.822 1.954 10.818 1.405 10.393 1.673 C 10.081 2.495 9.175 13.038 9.175 13.038 L 26.881 11.162 C 26.881 11.162 26.952 4.423 26.881 2.225 " transform="matrix(1, 0, 0, 1, 67, 33.5)"/>
          <path id="Fill-80" fill="#F01446" stroke="none" stroke-width="1" d="M 32.860 19.748 C 32.692 18.714 31.298 11.937 30.067 6.907 C 29.324 3.873 28.467 1.408 28.467 1.408 C 28.467 1.408 25.683 1.159 24.970 1.290 C 24.964 1.728 24.659 3.967 23.668 5.340 C 22.396 7.102 20.249 8.019 18.827 8.057 C 16.299 8.125 14.382 6.955 13.580 5.527 C 12.427 3.474 12.500 0.779 12.500 0.779 C 12.500 0.779 10.563 0.665 10.337 0.737 C 7.594 1.603 4.495 14.381 4.094 16.697 C 3.366 20.894 2.717 25.108 2.152 29.330 C 1.969 30.695 0.506 35.954 1.502 37.183 L 35.588 36.847 C 35.918 36.063 33 20.606 32.860 19.748 " transform="matrix(1, 0, 0, 1, 67, 33.5)"/>
        </g>
        <g id="Belt">
          <path id="Fill-81" fill="#000000" stroke="none" stroke-width="1" d="M 0.566 6.008 L 35.154 6.008 L 35.154 1.145 L 0.566 1.145 L 0.566 6.008 " transform="matrix(1, 0, 0, 1, 67, 66.5)"/>
          <path id="Fill-106" fill="#64645A" stroke="none" stroke-width="1" d="M 14.610 6.483 L 22.339 6.483 L 22.339 0.462 L 14.610 0.462 L 14.610 6.483 " transform="matrix(1, 0, 0, 1, 67, 66.5)"/>
        </g>
        <g id="Right-Leg">
          <path id="Fill-82" fill="#BE965A" stroke="none" stroke-width="1" d="M 18.690 12.191 C 18.630 18.758 16.554 24.892 16.554 24.892 L 4.290 25.085 C 4.290 25.085 5.091 5.855 8.175 2.891 C 9.040 2.060 11.186 -0.651 15.449 1.175 C 19.713 3.002 18.717 9.305 18.690 12.191 " transform="matrix(1, 0, 0, 1, 86, 57.5)"/>
          <path id="Fill-83" fill="#F0E6D2" stroke="none" stroke-width="1" d="M 3.691 20.573 C 3.357 24.177 3.232 30.775 3.243 32.133 C 5.384 32.760 13.379 31.743 15.320 31.292 C 16.093 30.132 17.491 24.262 18.207 20.573 L 3.691 20.573 Z " transform="matrix(1, 0, 0, 1, 86, 57.5)"/>
          <path id="Fill-84" fill="#F01446" stroke="none" stroke-width="1" d="M 0.510 48.766 L 0.279 50.241 L 15.989 50.149 L 16.235 48.912 L 7.118 47.108 L 0.510 48.766 " transform="matrix(1, 0, 0, 1, 86, 57.5)"/>
          <path id="Fill-85" fill="#000000" stroke="none" stroke-width="1" d="M 17.067 28.500 C 17.067 28.500 13.389 28.541 9.692 28.585 C 6.096 28.628 2.482 28.672 2.215 28.682 C 1.975 31.735 0.510 48.766 0.510 48.766 C 0.510 48.766 15.031 48.817 16.235 48.912 C 16.294 48.709 16.341 48.552 16.377 48.428 C 15.463 47.426 13.374 47.941 12.173 47.476 C 12.772 45.503 16.015 33.880 17.067 28.500 " transform="matrix(1, 0, 0, 1, 86, 57.5)"/>
          <path id="Fill-86" fill="#F01446" stroke="none" stroke-width="1" d="M 10.369 33.715 C 10.369 35.839 8.643 37.561 6.512 37.561 C 4.382 37.561 2.655 35.839 2.655 33.715 C 2.655 31.591 4.382 29.870 6.512 29.870 C 8.643 29.870 10.369 31.591 10.369 33.715 " transform="matrix(1, 0, 0, 1, 86, 57.5)"/>
          <path id="Fill-87" fill="#780046" stroke="none" stroke-width="1" d="M 8.342 33.715 C 8.342 34.723 7.523 35.540 6.512 35.540 C 5.501 35.540 4.682 34.723 4.682 33.715 C 4.682 32.707 5.501 31.891 6.512 31.891 C 7.523 31.891 8.342 32.707 8.342 33.715 " transform="matrix(1, 0, 0, 1, 86, 57.5)"/>
          <path id="Fill-88" fill="#780046" stroke="none" stroke-width="1" d="M 15.888 30.314 C 15.888 30.736 15.544 31.079 15.121 31.079 C 14.697 31.079 14.353 30.736 14.353 30.314 C 14.353 29.891 14.697 29.549 15.121 29.549 C 15.544 29.549 15.888 29.891 15.888 30.314 " transform="matrix(1, 0, 0, 1, 86, 57.5)"/>
          <path id="Fill-89" fill="#780046" stroke="none" stroke-width="1" d="M 15.056 33.313 C 15.056 33.735 14.712 34.078 14.289 34.078 C 13.865 34.078 13.521 33.735 13.521 33.313 C 13.521 32.890 13.865 32.548 14.289 32.548 C 14.712 32.548 15.056 32.890 15.056 33.313 " transform="matrix(1, 0, 0, 1, 86, 57.5)"/>
          <path id="Fill-90" fill="#780046" stroke="none" stroke-width="1" d="M 14.352 36.440 C 14.352 36.862 14.008 37.205 13.585 37.205 C 13.161 37.205 12.817 36.862 12.817 36.440 C 12.817 36.017 13.161 35.675 13.585 35.675 C 14.008 35.675 14.352 36.017 14.352 36.440 " transform="matrix(1, 0, 0, 1, 86, 57.5)"/>
          <path id="Fill-91" fill="#780046" stroke="none" stroke-width="1" d="M 13.584 39.056 C 13.584 39.479 13.240 39.821 12.817 39.821 C 12.393 39.821 12.049 39.479 12.049 39.056 C 12.049 38.634 12.393 38.291 12.817 38.291 C 13.240 38.291 13.584 38.634 13.584 39.056 " transform="matrix(1, 0, 0, 1, 86, 57.5)"/>
          <path id="Fill-92" fill="#780046" stroke="none" stroke-width="1" d="M 12.880 41.800 C 12.880 42.222 12.536 42.565 12.113 42.565 C 11.689 42.565 11.345 42.222 11.345 41.800 C 11.345 41.377 11.689 41.035 12.113 41.035 C 12.536 41.035 12.880 41.377 12.880 41.800 " transform="matrix(1, 0, 0, 1, 86, 57.5)"/>
          <path id="Fill-93" fill="#780046" stroke="none" stroke-width="1" d="M 12.112 44.672 C 12.112 45.094 11.768 45.437 11.345 45.437 C 10.921 45.437 10.577 45.094 10.577 44.672 C 10.577 44.249 10.921 43.907 11.345 43.907 C 11.768 43.907 12.112 44.249 12.112 44.672 " transform="matrix(1, 0, 0, 1, 86, 57.5)"/>
        </g>
        <g id="Left-Leg">
          <path id="Fill-94" fill="#BE965A" stroke="none" stroke-width="1" d="M 14.014 23.717 C 12.953 23.789 2.989 23.527 2.669 23.478 C 2.233 20.965 0.030 13.854 0.199 9.133 C 0.300 6.330 1.069 3.477 2.733 1.911 C 3.732 0.971 5.054 0.495 6.747 0.769 C 11.124 1.480 12.533 7.951 13.091 11.641 C 13.623 15.162 13.565 20.223 14.014 23.717 " transform="matrix(1, 0, 0, 1, 66, 56.5)"/>
          <path id="Fill-95" fill="#F0E6D2" stroke="none" stroke-width="1" d="M 1.498 21.573 C 1.941 24.469 2.684 29.383 2.940 31.391 C 6.031 32.431 12.230 32.100 15.421 31.411 C 15.836 30.291 14.900 24.283 14.483 21.573 L 1.498 21.573 Z " transform="matrix(1, 0, 0, 1, 66, 56.5)"/>
          <path id="Fill-96" fill="#F01446" stroke="none" stroke-width="1" d="M 18.163 49.766 L 18.394 51.241 L 2.684 51.149 L 2.439 49.912 L 11.556 48.108 L 18.163 49.766 " transform="matrix(1, 0, 0, 1, 66, 56.5)"/>
          <path id="Fill-97" fill="#000000" stroke="none" stroke-width="1" d="M 1.606 29.500 C 1.606 29.500 5.283 29.541 8.981 29.585 C 12.577 29.628 16.191 29.672 16.457 29.682 C 16.698 32.735 18.163 49.766 18.163 49.766 C 18.163 49.766 3.642 49.817 2.438 49.912 C 2.379 49.709 2.332 49.552 2.296 49.428 C 3.210 48.426 5.299 48.941 6.500 48.476 C 5.901 46.503 2.776 35.514 1.606 29.500 " transform="matrix(1, 0, 0, 1, 66, 56.5)"/>
          <path id="Fill-98" fill="#F01446" stroke="none" stroke-width="1" d="M 8.303 34.715 C 8.303 36.839 10.031 38.561 12.161 38.561 C 14.291 38.561 16.018 36.839 16.018 34.715 C 16.018 32.591 14.291 30.870 12.161 30.870 C 10.031 30.870 8.303 32.591 8.303 34.715 " transform="matrix(1, 0, 0, 1, 66, 56.5)"/>
          <path id="Fill-99" fill="#780046" stroke="none" stroke-width="1" d="M 10.331 34.715 C 10.331 35.723 11.150 36.540 12.161 36.540 C 13.172 36.540 13.991 35.723 13.991 34.715 C 13.991 33.707 13.172 32.891 12.161 32.891 C 11.150 32.891 10.331 33.707 10.331 34.715 " transform="matrix(1, 0, 0, 1, 66, 56.5)"/>
          <path id="Fill-100" fill="#780046" stroke="none" stroke-width="1" d="M 2.785 31.314 C 2.785 31.736 3.129 32.079 3.552 32.079 C 3.976 32.079 4.320 31.736 4.320 31.314 C 4.320 30.891 3.976 30.549 3.552 30.549 C 3.129 30.549 2.785 30.891 2.785 31.314 " transform="matrix(1, 0, 0, 1, 66, 56.5)"/>
          <path id="Fill-101" fill="#780046" stroke="none" stroke-width="1" d="M 3.617 34.313 C 3.617 34.735 3.961 35.078 4.384 35.078 C 4.808 35.078 5.152 34.735 5.152 34.313 C 5.152 33.890 4.808 33.548 4.384 33.548 C 3.961 33.548 3.617 33.890 3.617 34.313 " transform="matrix(1, 0, 0, 1, 66, 56.5)"/>
          <path id="Fill-102" fill="#780046" stroke="none" stroke-width="1" d="M 4.321 37.440 C 4.321 37.862 4.665 38.205 5.088 38.205 C 5.512 38.205 5.856 37.862 5.856 37.440 C 5.856 37.017 5.512 36.675 5.088 36.675 C 4.665 36.675 4.321 37.017 4.321 37.440 " transform="matrix(1, 0, 0, 1, 66, 56.5)"/>
          <path id="Fill-103" fill="#780046" stroke="none" stroke-width="1" d="M 5.089 40.056 C 5.089 40.479 5.433 40.821 5.856 40.821 C 6.280 40.821 6.624 40.479 6.624 40.056 C 6.624 39.634 6.280 39.291 5.856 39.291 C 5.433 39.291 5.089 39.634 5.089 40.056 " transform="matrix(1, 0, 0, 1, 66, 56.5)"/>
          <path id="Fill-104" fill="#780046" stroke="none" stroke-width="1" d="M 5.793 42.800 C 5.793 43.222 6.137 43.565 6.560 43.565 C 6.984 43.565 7.328 43.222 7.328 42.800 C 7.328 42.377 6.984 42.035 6.560 42.035 C 6.137 42.035 5.793 42.377 5.793 42.800 " transform="matrix(1, 0, 0, 1, 66, 56.5)"/>
          <path id="Fill-105" fill="#780046" stroke="none" stroke-width="1" d="M 6.561 45.672 C 6.561 46.094 6.905 46.437 7.328 46.437 C 7.752 46.437 8.096 46.094 8.096 45.672 C 8.096 45.249 7.752 44.907 7.328 44.907 C 6.905 44.907 6.561 45.249 6.561 45.672 " transform="matrix(1, 0, 0, 1, 66, 56.5)"/>
        </g>
      </g>
    </g>
  </g>
</svg>