<svg version="1.1" width="57" height="122" viewBox="-1 -1 57 122" xmlns="http://www.w3.org/2000/svg" xmlns:xlink="http://www.w3.org/1999/xlink">
  <!-- Exported by Scratch - http://scratch.mit.edu/ -->
  <g id="ID0.6440100739710033" transform="matrix(1, 0, 0, 1, 0, 0.25)">
    <g id="Page-1">
      <g id="bat-d-[fantasy,spooky,halloween,bat,animals,alex-eben-meyer]">
        <path id="Path" fill="#3C3C32" stroke="none" stroke-width="1" d="M 27.819 92.466 L 15.234 90.961 C 15.295 91.201 23.484 119.555 23.484 119.555 L 21.738 119.736 C 21.738 119.736 21.918 120.157 21.858 120.217 L 26.735 120.037 C 26.735 119.977 27.819 93.007 27.819 92.466 Z " transform="matrix(1, 0, 0, 1, -0.5, 0)"/>
        <path id="Path" fill="#3C3C32" stroke="none" stroke-width="1" d="M 34.804 120.518 C 34.865 120.338 34.865 120.157 34.985 120.037 C 34.503 120.037 34.022 119.916 33.540 119.796 C 33.540 119.435 33.841 118.953 34.804 116.304 C 37.815 107.997 44.439 90.780 44.800 89.576 L 28.723 89.095 C 28.723 89.697 29.325 97.583 29.204 98.185 C 29.204 98.185 28.783 97.583 28.783 97.643 C 28.903 98.666 30.348 120.278 30.348 120.278 C 30.348 120.278 34.443 120.518 34.804 120.518 Z " transform="matrix(1, 0, 0, 1, -0.5, 0)"/>
        <g id="Group">
          <g id="Path">
            <path id="ID0.4010299611836672" fill="#64645A" stroke="none" stroke-width="1" d="M 2.047 3.672 L 1.686 3.431 C 1.686 3.191 1.746 3.010 1.746 2.829 C 1.806 2.288 1.806 1.686 1.806 1.144 C 1.806 0.722 1.806 0.722 2.047 0.421 C 2.348 0.542 2.409 0.602 2.409 0.843 C 2.409 1.324 2.348 1.746 2.288 2.227 C 2.228 2.589 2.228 2.950 2.168 3.311 C 2.168 3.371 2.108 3.492 2.047 3.672 Z " transform="matrix(1, 0, 0, 1, 16.95, 3)"/>
            <path id="ID0.43324658926576376" fill="#64645A" stroke="none" stroke-width="1" d="M 1.084 4.214 L 0.662 4.033 C 0.662 3.793 0.602 3.612 0.602 3.431 C 0.482 2.890 0.422 2.288 0.301 1.746 C 0.181 1.505 0.241 1.204 0.422 0.963 C 0.783 1.023 0.843 1.023 0.903 1.264 C 0.963 1.746 1.024 2.167 1.144 2.589 C 1.265 3.010 1.204 3.311 1.265 3.672 C 1.144 3.913 1.144 4.033 1.084 4.214 Z " transform="matrix(1, 0, 0, 1, 16.95, 3)"/>
            <path id="ID0.18829718325287104" fill="#64645A" stroke="none" stroke-width="1" d="M 2.469 4.094 L 2.951 4.033 C 3.011 3.853 3.071 3.612 3.131 3.431 C 3.312 2.890 3.553 2.348 3.733 1.866 C 3.914 1.625 3.914 1.324 3.794 1.084 C 3.492 1.084 3.372 1.084 3.252 1.324 C 3.071 1.746 2.951 2.167 2.770 2.589 C 2.589 3.010 2.529 3.311 2.409 3.672 C 2.409 3.793 2.409 3.913 2.469 4.094 Z " transform="matrix(1, 0, 0, 1, 16.95, 3)"/>
          </g>
          <path id="Path" fill="#64645A" stroke="none" stroke-width="1" d="M 0.783 59.717 C 0.783 59.717 0.120 43.945 1.024 36.240 C 1.746 29.919 3.372 23.718 5.118 17.638 C 6.262 13.725 9.273 3.010 14.391 2.528 C 19.931 5.599 19.028 21.912 18.787 27.029 C 18.486 33.711 17.161 50.688 16.017 57.249 C 12.766 58.273 0.783 59.717 0.783 59.717 Z " transform="matrix(1, 0, 0, 1, 4.9, 3)"/>
          <path id="Path" fill="#3C3C32" stroke="none" stroke-width="1" d="M 3.854 49.604 C 3.854 49.604 4.757 34.434 7.226 22.755 C 8.972 14.689 11.501 9.451 12.766 9.391 C 15.897 9.271 15.535 22.394 15.355 25.765 C 15.174 30.100 13.849 43.945 13.127 48.219 C 11.080 48.882 3.854 49.604 3.854 49.604 Z " transform="matrix(1, 0, 0, 1, 4.9, 3)"/>
        </g>
        <g id="Group">
          <g id="Path">
            <path id="ID0.4343621665611863" fill="#64645A" stroke="none" stroke-width="1" d="M 2.108 3.431 L 1.686 3.191 C 1.686 2.950 1.686 2.769 1.686 2.589 C 1.626 2.047 1.626 1.445 1.566 0.903 C 1.505 0.602 1.566 0.361 1.746 0.120 C 2.108 0.181 2.168 0.241 2.168 0.482 C 2.228 0.963 2.228 1.385 2.228 1.866 C 2.228 2.227 2.288 2.589 2.228 2.950 C 2.228 3.130 2.168 3.311 2.108 3.431 Z " transform="matrix(1, 0, 0, 1, 34.4, 0)"/>
            <path id="ID0.6537702172063291" fill="#64645A" stroke="none" stroke-width="1" d="M 1.265 4.094 L 0.783 3.973 C 0.723 3.793 0.723 3.552 0.662 3.371 C 0.482 2.829 0.301 2.288 0.120 1.746 C 0 1.505 0 1.204 0.120 0.963 C 0.482 0.963 0.542 0.963 0.602 1.204 C 0.723 1.625 0.903 2.047 1.024 2.528 C 1.144 3.010 1.204 3.251 1.265 3.612 C 1.325 3.793 1.325 3.973 1.265 4.094 Z " transform="matrix(1, 0, 0, 1, 34.4, 0)"/>
            <path id="ID0.6319489334709942" fill="#64645A" stroke="none" stroke-width="1" d="M 2.589 3.793 L 3.071 3.672 C 3.131 3.431 3.131 3.251 3.191 3.070 C 3.312 2.528 3.432 1.987 3.553 1.385 C 3.673 1.144 3.673 0.843 3.492 0.602 C 3.131 0.602 3.071 0.662 3.011 0.903 C 2.890 1.324 2.830 1.806 2.710 2.227 C 2.589 2.649 2.589 2.950 2.529 3.311 C 2.529 3.492 2.589 3.672 2.589 3.793 Z " transform="matrix(1, 0, 0, 1, 34.4, 0)"/>
          </g>
          <path id="Path" fill="#64645A" stroke="none" stroke-width="1" d="M 20.654 67.543 C 17.763 63.871 3.613 55.503 2.710 54.600 C 1.024 48.460 -2.770 2.890 5.600 2.468 C 12.645 2.107 14.211 15.471 15.415 20.106 C 17.161 26.728 20.594 59.356 20.654 67.543 Z " transform="matrix(1, 0, 0, 1, 30.2, 0)"/>
          <path id="Path" fill="#3C3C32" stroke="none" stroke-width="1" d="M 15.656 57.851 C 14.994 45.571 13.910 30.400 13.247 26.187 C 12.525 21.672 9.394 5.538 6.262 9.030 C 3.131 12.521 6.202 46.534 6.804 57.851 L 15.656 57.851 Z " transform="matrix(1, 0, 0, 1, 30.2, 0)"/>
        </g>
        <g id="Group">
          <path id="Path" fill="#64645A" stroke="none" stroke-width="1" d="M 46.606 22.153 C 46.125 16.856 43.776 10.956 39.923 7.224 C 35.105 2.709 28.662 0.241 22.039 0.482 C 12.103 0.722 8.731 2.709 3.673 10.053 C -0.963 16.796 0.542 28.113 1.024 35.818 C 1.505 44.066 5.660 55.142 12.705 59.958 C 20.052 65.015 30.770 65.798 37.514 59.416 C 43.596 53.637 47.690 34.073 46.606 22.153 Z " transform="matrix(1, 0, 0, 1, 4.3, 37.3)"/>
          <path id="Path" fill="#828278" stroke="none" stroke-width="1" d="M 21.677 38.106 L 23.363 37.986 L 25.290 45.571 C 25.290 45.571 25.110 48.581 22.641 48.882 C 20.172 49.183 18.968 44.668 18.968 44.668 L 21.677 38.106 Z " transform="matrix(1, 0, 0, 1, 4.3, 37.3)"/>
        </g>
        <g id="Group">
          <path id="Path" fill="#C8C8BE" stroke="none" stroke-width="1" d="M 22.761 0.241 C 28.120 9.812 27.940 25.524 25.772 35.879 C 23.604 46.233 16.559 55.684 7.166 62.727 C 4.938 58.333 0.542 21.672 0.542 21.672 C 0.542 21.672 18.667 13.906 22.761 0.241 Z " transform="matrix(1, 0, 0, 1, 27.15, 53.55)"/>
          <path id="Path" fill="#F0E6D2" stroke="none" stroke-width="1" d="M 0.482 21.732 C 0.482 21.732 21.015 21.190 23.424 21.310 C 25.832 21.431 27.759 21.130 28.060 23.478 C 28.361 25.825 24.688 25.524 24.688 25.524 C 24.688 25.524 7.948 25.344 0.482 21.732 Z " transform="matrix(1, 0, 0, 1, 27.15, 53.55)"/>
          <path id="Path" fill="#F0E6D2" stroke="none" stroke-width="1" d="M 21.978 44.728 C 21.978 44.728 6.383 29.799 0.542 21.732 C 0.542 21.732 10.176 43.644 19.751 49.905 C 19.751 49.905 21.135 51.530 22.942 49.002 C 24.748 46.474 21.978 44.728 21.978 44.728 Z " transform="matrix(1, 0, 0, 1, 27.15, 53.55)"/>
        </g>
        <g id="Group">
          <path id="Path" fill="#C8C8BE" stroke="none" stroke-width="1" d="M 22.460 63.570 C 17.041 62.426 12.766 55.383 10.237 51.410 C 7.406 47.076 5.359 42.260 4.155 37.263 C 2.951 32.026 1.806 26.367 1.686 21.009 C 1.385 9.632 6.142 0.060 6.142 0.060 C 6.142 0.060 8.129 8.669 12.465 13.605 C 17.824 19.685 26.555 23.056 26.555 23.056 C 25.170 31.063 24.508 39.190 24.568 47.316 C 24.568 49.965 24.447 52.614 24.086 55.263 C 23.665 57.851 23.785 61.222 22.460 63.570 Z " transform="matrix(1, 0, 0, 1, -0.5, 52.35)"/>
          <path id="Path" fill="#F0E6D2" stroke="none" stroke-width="1" d="M 26.495 23.056 C 26.495 23.056 8.551 21.732 5.600 21.792 C 2.649 21.852 0.422 22.815 0.542 24.742 C 0.662 26.668 2.168 26.728 4.998 26.909 C 7.828 27.090 19.209 26.668 26.495 23.056 Z " transform="matrix(1, 0, 0, 1, -0.5, 52.35)"/>
          <path id="Path" fill="#F0E6D2" stroke="none" stroke-width="1" d="M 7.467 44.788 C 8.972 43.163 20.774 32.146 26.555 23.056 C 26.555 23.056 21.858 33.290 16.800 41.236 C 14.632 44.607 10.538 48.701 9.755 49.544 C 7.166 52.373 6.383 52.614 5.118 50.808 C 3.854 49.002 5.961 46.353 7.467 44.788 Z " transform="matrix(1, 0, 0, 1, -0.5, 52.35)"/>
        </g>
        <g id="Group">
          <g id="Path">
            <path id="ID0.6919337171129882" fill="#F01446" stroke="none" stroke-width="1" d="M 17.703 3.311 C 16.559 0.241 14.632 0.361 11.682 0 C 8.791 0.120 4.877 -0.241 2.409 1.686 C -0.060 3.612 -0.602 7.705 1.806 9.692 C 4.637 12.040 13.548 12.943 16.860 9.451 C 18.065 8.187 18.546 5.538 17.703 3.311 Z " transform="matrix(1, 0, 0, 1, 18.15, 49.35)"/>
            <path id="ID0.6199347320944071" fill="#6E1E3C" stroke="none" stroke-width="1" d="M 14.512 2.950 C 16.077 2.829 16.198 4.936 16.077 5.900 C 15.957 6.863 15.957 8.488 14.572 8.368 C 13.187 8.247 12.946 6.742 13.006 5.900 C 13.067 5.057 12.946 3.010 14.512 2.950 Z " transform="matrix(1, 0, 0, 1, 18.15, 49.35)"/>
            <path id="ID0.21719414927065372" fill="#6E1E3C" stroke="none" stroke-width="1" d="M 3.914 2.950 C 5.480 2.829 5.600 4.936 5.480 5.900 C 5.359 6.863 5.359 8.488 3.974 8.368 C 2.589 8.247 2.348 6.742 2.409 5.900 C 2.469 5.057 2.348 3.010 3.914 2.950 Z " transform="matrix(1, 0, 0, 1, 18.15, 49.35)"/>
          </g>
          <path id="Path" fill="#000000" stroke="none" stroke-width="1" d="M 33.359 3.853 L 34.142 3.973 C 34.082 5.237 33.359 6.321 32.215 6.923 C 31.974 7.043 31.733 7.103 31.492 7.103 C 31.071 7.103 30.649 7.103 30.228 6.983 C 28.903 6.802 28 5.599 28.120 4.274 C 28.120 4.214 28.120 4.154 28.120 4.094 C 28.120 4.033 28.181 3.973 28.301 3.853 C 28.422 3.913 28.542 3.973 28.602 4.094 C 28.723 4.334 28.843 4.635 28.963 4.876 C 29.385 5.779 30.288 6.321 31.252 6.140 C 32.215 6.080 32.938 5.358 33.178 4.455 C 33.239 4.334 33.239 4.214 33.359 3.853 Z " transform="matrix(1, 0, 0, 1, 10.9, 49.35)"/>
          <path id="Path" fill="#000000" stroke="none" stroke-width="1" d="M 4.817 4.214 L 5.299 4.395 C 5.359 4.515 5.359 4.635 5.359 4.756 C 5.178 5.839 4.335 6.742 3.252 6.983 C 2.108 7.344 0.903 6.742 0.482 5.599 C 0.482 5.599 0.482 5.538 0.482 5.538 C 0.422 5.358 0.361 5.117 0.301 4.876 C 0.241 4.515 0.181 4.094 0.120 3.612 C 0.361 3.672 0.662 3.672 0.723 3.732 C 0.903 3.973 1.024 4.214 1.144 4.455 C 1.265 4.816 1.325 5.237 1.445 5.659 L 2.348 6.200 C 3.492 6.080 4.456 5.298 4.817 4.214 Z " transform="matrix(1, 0, 0, 1, 10.9, 49.35)"/>
          <g id="Path">
            <path id="ID0.2310139648616314" fill="#000000" stroke="none" stroke-width="1" d="M 8.972 0.903 C 8.009 0.542 6.323 0 4.998 0 C 3.733 0 2.228 0.542 1.325 0.903 C 0.361 1.746 -0.361 2.709 0.361 4.214 C 4.215 7.465 8.731 6.802 10.598 1.926 C 9.996 1.505 9.514 1.204 8.972 0.903 Z " transform="matrix(1, 0, 0, 1, 22.35, 64.4)"/>
            <path id="ID0.9234176510944963" fill="#FFFFFF" stroke="none" stroke-width="1" d="M 1.867 0.662 C 2.288 1.264 3.733 2.950 4.095 2.890 C 4.456 2.829 4.637 0.963 4.697 0 C 3.794 0.060 2.710 0.361 1.867 0.662 Z " transform="matrix(1, 0, 0, 1, 22.35, 64.4)"/>
            <path id="ID0.646018604747951" fill="#FFFFFF" stroke="none" stroke-width="1" d="M 5.540 0 C 5.660 0.482 6.022 2.528 6.323 2.709 C 7.226 2.890 8.069 1.324 8.370 0.722 C 7.527 0.421 6.503 0.120 5.540 0 Z " transform="matrix(1, 0, 0, 1, 22.35, 64.4)"/>
          </g>
        </g>
      </g>
    </g>
  </g>
</svg>