<svg version="1.1" id="apple1" x="0px" y="0px" width="62.218px" height="63.375px" viewBox="0 0 62.218 63.375" enable-background="new 0 0 62.218 63.375" xml:space="preserve" xmlns="http://www.w3.org/2000/svg" xmlns:xlink="http://www.w3.org/1999/xlink">
  <g>
    <g id="Apple">
      <path id="Fill_1_" fill="#EC1C2C" d="M59.083,34.402c0,14.527-12.525,26.307-27.978,26.307c-15.453,0-27.977-11.775-27.977-26.307&#xD;&#xA;&#x9;&#x9;c0-14.527,12.523-21.275,27.977-21.275C46.557,13.126,59.083,19.876,59.083,34.402z"/>
      <g id="Outline_1_">
        <path id="Outline_2_" fill="#231F20" d="M34.285,11.96c-4.608-0.391-9.136,0.189-9.136,0.189C10.821,13.473,0,19.883,0,34.121&#xD;&#xA;&#x9;&#x9;&#x9;c0,16.156,13.928,29.254,31.107,29.254c17.182,0,31.109-13.098,31.109-29.254C62.216,18.977,49.969,12.69,34.285,11.96z&#xD;&#xA;&#x9;&#x9;&#x9; M31.108,59.333c-14.559,0-26.357-11.099-26.357-24.785c0-12.064,9.169-18.433,21.314-19.774c0.249-0.029,8.456-0.144,8.456-0.144&#xD;&#xA;&#x9;&#x9;&#x9;c12.942,0.936,22.949,7.318,22.949,19.92C57.464,48.236,45.666,59.333,31.108,59.333z"/>
        <path id="Line" fill="#231F20" d="M40.332,19.062c-2.303-0.761-4.617-0.241-6.929,0.389c-1.916,0.608-6.112,1.162-6.19,1.098&#xD;&#xA;&#x9;&#x9;&#x9;c-1.198-0.058-2.389-0.358-3.571-1.099c-0.48-0.303-0.982,0.378-0.598,0.773c1.768,1.803,4.068,1.782,6.455,1.514&#xD;&#xA;&#x9;&#x9;&#x9;c3.575-0.401,6.993-0.491,10.561-0.672C41.22,21.004,41.433,19.426,40.332,19.062z"/>
      </g>
      <path id="Shine" fill="#FFFFFF" d="M12.555,34.261c0,3.431,1.85,6.212-0.084,6.212c-1.934,0-3.5-2.781-3.5-6.212&#xD;&#xA;&#x9;&#x9;c0-3.43,1.566-6.211,3.5-6.211C14.405,28.05,12.555,30.832,12.555,34.261z"/>
    </g>
    <g id="Stem">
      <path id="Fill" fill="#99661D" d="M29.515,20.766c0.371-0.066,0.973-0.13,1.348-0.219c0.062-4.827,0.538-9.648-1.624-14.212&#xD;&#xA;&#x9;&#x9;c-0.592-1.253-1.33-2.354-2.064-3.482c-1.02,0.611-2.038,1.223-3.059,1.833C28.31,8.982,29.773,14.618,29.515,20.766z"/>
      <path id="Outline" fill="#231F20" d="M28.602,0.6c-0.393-0.523-1.078-0.782-1.658-0.435c-1.805,1.084-3.607,2.168-5.414,3.252&#xD;&#xA;&#x9;&#x9;c-0.637,0.383-0.838,1.371-0.242,1.898c3.477,3.091,4.617,6.041,4.9,6.557c0.592,1.081,1.592,4.534,1.562,7.749l0.046,1.609&#xD;&#xA;&#x9;&#x9;c1.479,0.562,5.25-0.562,5.25-0.562c0.021-0.354,0.251-2.23,0.251-2.23C33.466,17.677,34.13,7.958,28.602,0.6z M30.755,20.38&#xD;&#xA;&#x9;&#x9;l-1.109,0.141v-1.152c0.05-5.714-1.568-10.625-5.53-14.683c1.021-0.61,2.039-1.222,3.059-1.833&#xD;&#xA;&#x9;&#x9;c0.734,1.128,1.472,2.229,2.064,3.482c2.012,4.247,1.634,8.375,1.522,12.817L30.755,20.38z"/>
    </g>
  </g>
</svg>