<svg version="1.1" id="butterfly1-a" x="0px" y="0px" width="150px" height="150px" viewBox="0 0 150 150" enable-background="new 0 0 150 150" xml:space="preserve" xmlns="http://www.w3.org/2000/svg" xmlns:xlink="http://www.w3.org/1999/xlink">
  <g>
    <g id="R_Wing">
      <path id="Wing_Outline_1_" fill="#00B900" d="M80.021,102.439c-3.258,2.922-7.417,5.316-13.861,4.752&#xD;&#xA;&#x9;&#x9;c-5.583-0.513-9.787-3.196-8.598-6.104c-2.722,0.677-5.556,0.906-7.436-0.254c-1.933-1.192-2.079-2.438-0.076-4.021&#xD;&#xA;&#x9;&#x9;c-3.222,0.138-4.16,1.514-6.257,2.771c-3.241,1.933-7.523,2.498-12.167,1.64c-3.746-0.703-5.331-2.976-3.948-4.916&#xD;&#xA;&#x9;&#x9;c1.366-1.932,6.017-4.388,15.919-3.41c4.914,0.479,12.178-2.08,14.729-4.34c2.017-1.785,12.367-1.229,16.716-1.125&#xD;&#xA;&#x9;&#x9;c5.769,0.127,2.608-1.373,8.21-0.789c9.432,0.965,21.534,5.812,24.691,10.596c2.742,4.154-0.308,7.562-8.004,9.266&#xD;&#xA;&#x9;&#x9;C92.189,108.218,84.575,105.962,80.021,102.439z"/>
      <path id="Wing_Fill_1_" fill="#FFFF00" d="M63.311,88.426c-3.475,2.956-12.87,6.122-19.682,5.555&#xD;&#xA;&#x9;&#x9;c-3.815-0.312-9.093-0.217-10.525,2.23c-1.83,3.129,7.032,3.77,10.358,1.645c4.598-2.938,6.744-2.897,13.981-3.314&#xD;&#xA;&#x9;&#x9;c-4.781,2.212-6.201,3.636-4.287,4.796c1.914,1.16,6.743-0.047,11.035-2.272c-4.23,4.399-1.572,7.66,1.397,8.141&#xD;&#xA;&#x9;&#x9;c4.242,0.684,11.038-1.195,14.196-6.449c1.64,1.336,3.356,2.598,3.356,2.598c8.146,5.901,24.562,1.918,20.193-4.604&#xD;&#xA;&#x9;&#x9;c-2.811-4.191-13.475-6.561-22-8.262C76.172,90.689,68.977,86.917,63.311,88.426z"/>
      <path id="Design_6_" fill="#00B900" d="M82.898,92.053c-2.685,0.584-2.121,2.32,0.252,3.188c2.496,0.901,4.469,0.062,5.957,1.438&#xD;&#xA;&#x9;&#x9;c1.588,1.483,0.678,2.11,1.91,3.688c1.146,1.479,4.104,1.942,6.676,1.083c4.926-1.649,0.123-5.715-5.104-5.706&#xD;&#xA;&#x9;&#x9;C87.229,95.736,87.861,90.98,82.898,92.053z"/>
      <path id="Design_7_" fill="#00B900" d="M68.234,98.868c-1.858,0.528-2.442,1.428-2.094,2.495c0.3,0.963,2.504,1.396,4.289,1.121&#xD;&#xA;&#x9;&#x9;c2.174-0.326,3.221-1.573,2.597-2.707C72.562,98.919,70.441,98.241,68.234,98.868z"/>
      <path id="Design_8_" fill="#00B900" d="M72.626,90.671c0.659,1.772-2.355,2.548-3.291,4.265c-0.711,1.321,1.704,3.028,4.302,2.738&#xD;&#xA;&#x9;&#x9;c2.693-0.312,3.414-2.139,2.437-3.492c-1.079-1.509,0.382-2.509,1.465-4.06L72.626,90.671z"/>
      <path id="Design_9_" fill="#00B900" d="M64.358,95.209c-1.128,0.832-4.925,2.521-6.263,1.762c-1.77-1.008,1.788-2.348,3.919-3.222&#xD;&#xA;&#x9;&#x9;C64.509,92.727,66.182,93.864,64.358,95.209z"/>
      <path id="Design_10_" fill="#00B900" d="M44.041,95.505c-0.872,0.572-1.099,0.897-2.25,1.449c-1.583,0.757-4.729,1.287-5.89-0.011&#xD;&#xA;&#x9;&#x9;c-0.961-1.075,1.571-1.702,3.292-1.931C40.914,94.788,42.42,95.145,44.041,95.505z"/>
    </g>
    <g id="L_Wing">
      <path id="Wing_Outline" fill="#00B900" d="M57.768,52.006c-7.305-2.368-14.722-3.411-20.068,1.331&#xD;&#xA;&#x9;&#x9;c-4.608,4.133-4.784,10.657,0.514,14.247c-3.566,0.648-6.613,2.015-6.749,4.873c-0.134,2.943,1.506,4.876,5.69,6.014&#xD;&#xA;&#x9;&#x9;c-3.277,1.746-6.146,0.271-9.961-0.335c-5.861-0.898-10.776,0.845-13.981,4.931c-2.577,3.312-0.843,7.638,3.267,9.687&#xD;&#xA;&#x9;&#x9;c4.067,2.033,12.035,2.865,20.113-4.562c4.008-3.688,14.628-4.275,20.31-2.463c4.485,1.428,13.59-5.654,17.598-8.441&#xD;&#xA;&#x9;&#x9;c5.338-3.674,4.462,0.463,8.985-3.792c7.636-7.133,12.271-21.638,8.438-30.645c-3.328-7.822-11.13-11.034-20.932-8.908&#xD;&#xA;&#x9;&#x9;C61.126,36.076,57.074,44.025,57.768,52.006z"/>
      <path id="Wing_Fill" fill="#FFFF00" d="M61.857,82.895c-7.558-2.282-21.083-1.301-26.784,3.66&#xD;&#xA;&#x9;&#x9;c-3.194,2.778-8.389,5.818-13.265,3.053c-6.233-3.529,1.326-9.842,7.552-8.695c8.609,1.575,10.611,0.229,18.132-3.525&#xD;&#xA;&#x9;&#x9;c-7.743-0.393-11.14-1.646-10.972-4.521c0.169-2.878,6.517-4.009,13.818-3.294c-10.356-3.979-12.483-10.42-10.327-12.924&#xD;&#xA;&#x9;&#x9;c3.08-3.577,12.272-4.899,22.821,0.986c-0.345-2.972-0.511-5.881-0.511-5.881c-0.661-13.686,20.752-17.703,25.924-5.38&#xD;&#xA;&#x9;&#x9;c3.323,7.916-3.492,17.872-9.212,25.551C70.919,71.764,69.439,81.708,61.857,82.895z"/>
      <path id="Design_5_" fill="#00B900" d="M51.608,64.43c-2.534,0.34-4.382-0.643-5.577-2.434c-1.095-1.613,0.392-3.589,2.496-4.258&#xD;&#xA;&#x9;&#x9;c2.545-0.831,5.334,0.386,6.361,2.445C55.672,61.735,54.617,64.025,51.608,64.43z"/>
      <path id="Design_4_" fill="#00B900" d="M67.551,73.932c-1.91-3.027-5.901-2.354-9.256-4.334c-2.572-1.53-2.709-5.523,0.19-6.665&#xD;&#xA;&#x9;&#x9;c3.024-1.164,6.331,1.109,7.334,3.708c1.131,2.892,3.96,3.491,7.22,5.139L67.551,73.932z"/>
      <path id="Design_3_" fill="#00B900" d="M53.142,72.2c-2.273-0.554-8.324-0.763-8.513,1.175c-0.251,2.564,5.071,2.4,8.364,2.407&#xD;&#xA;&#x9;&#x9;C56.844,75.792,56.814,73.093,53.142,72.2z"/>
      <path id="Design_2_" fill="#00B900" d="M33.283,84.045c-1.654-0.322-2.339-0.67-4.229-0.791c-2.6-0.165-6.37,0.948-5.619,3.577&#xD;&#xA;&#x9;&#x9;c0.621,2.175,3.94,1.573,5.912,0.871C31.319,86.999,32.251,85.561,33.283,84.045z"/>
      <path id="Design" fill="#00B900" d="M50.816,80.831c5.968-1.448,9.797,0.17,12.026-0.12c-4.157-3.118-9.966-3.064-12.72-2.602&#xD;&#xA;&#x9;&#x9;C46.9,78.65,47.534,81.627,50.816,80.831z"/>
      <path id="Design_1_" fill="#00B900" d="M75.397,65.674c-3.398,0.753-5.352-2.16-4.322-4.88c1.091-2.85,4.183-2.795,3.636-5.734&#xD;&#xA;&#x9;&#x9;c-0.61-3.165-2.378-3.545-3.452-6.623c-1.02-2.89,1.139-5.365,4.834-5.643c7.074-0.531,8.306,8.402,3.298,11.549&#xD;&#xA;&#x9;&#x9;C74.263,57.592,81.684,64.263,75.397,65.674z"/>
    </g>
    <g id="Body">
      <path id="Body_1_" fill="#6600A1" d="M99.975,76.752c-7.173-4.523-17.088-6.541-30.312-5.451&#xD;&#xA;&#x9;&#x9;C57.169,72.35,46.431,82.993,54.15,89.604c7.371,6.259,16.604,8.379,28.14,6.461c16.104-2.676,18.744-10.305,20.577-12.479&#xD;&#xA;&#x9;&#x9;C104.572,81.555,100.589,79.064,99.975,76.752z"/>
      <path id="Spot_5_" fill="#FFB400" d="M70.786,75.335c0,3.655,5.188,5.388,9.698,5.542c3.951,0.135,7.66-2.811,7.043-6.004&#xD;&#xA;&#x9;&#x9;c-0.283-1.451-1.211-2.526-2.503-3.286c-3.514-0.5-7.378-0.672-11.603-0.508C71.824,72.023,70.786,73.541,70.786,75.335z"/>
      <path id="Spot_4_" fill="#FFB400" d="M55.368,83.572c0-2.463,1.807-4.504,4.756-4.772c3.473-0.308,7.421,1.193,7.421,4.003&#xD;&#xA;&#x9;&#x9;c0,2.463-1.998,4.465-4.947,4.926C59.221,88.266,55.368,86.41,55.368,83.572z"/>
      <path id="Spot_3_" fill="#FFB400" d="M78.609,92.032c-2.027,0.187-4.111-0.282-4.633-1.875c-0.869-2.529,0.405-4.731,3.474-5.716&#xD;&#xA;&#x9;&#x9;c2.315-0.741,5.849,0.375,6.254,2.343C84.285,89.314,81.794,91.703,78.609,92.032z"/>
      <path id="Spot_2_" fill="#FFB400" d="M93.811,87.791c-1.977-0.913-4.59-0.43-5.688,1.168c-1.062,1.547-0.763,4.121,1.312,4.809&#xD;&#xA;&#x9;&#x9;c0.277,0.092,0.576,0.164,0.886,0.221c2.294-0.857,4.139-1.833,5.634-2.843C96.062,89.8,95.324,88.499,93.811,87.791z"/>
      <path id="Spot_1_" fill="#FFB400" d="M93.805,84.341c-2.115-0.075-4.305-1.29-3.996-3.002c0.381-2.001,2.379-3.31,4.854-3.31&#xD;&#xA;&#x9;&#x9;c2.354,0,3.974,2.175,3.426,4.002C97.609,83.59,95.803,84.418,93.805,84.341z"/>
      <path id="Spot" fill="#FFB400" d="M65.406,95.811c-1.903-0.174-3.615-1.502-3.235-3.002c0.381-1.463,2.236-2.252,4.091-2.002&#xD;&#xA;&#x9;&#x9;c1.808,0.096,3.163,1.385,3.044,2.852C69.188,95.136,67.238,95.982,65.406,95.811z"/>
    </g>
    <g id="Head">
      <path id="R_Antenna" fill="#00B900" d="M142.314,43.189c2.086,0.274,4.176,2.393-0.162,2.535c-9.771,0.32,0.289,6.538-2.411,9.998&#xD;&#xA;&#x9;&#x9;c-3.666,4.693-15.858-0.675-15.216,5.844l-1.586-0.144c-1.338-10.084,16.25-1.226,11.936-12.224&#xD;&#xA;&#x9;&#x9;C133.27,45.105,137.102,42.503,142.314,43.189z"/>
      <path id="Head_1_" fill="#6600A1" d="M101.202,82.227c-2.538-4.136-3.407-7.744-1.998-12.353&#xD;&#xA;&#x9;&#x9;c2.42-7.889,11.468-14.093,20.362-12.536c9.021,1.569,17.056,9.94,15.307,20.985c-9.34,2.896-18.236,2.393-28.062-1.878&#xD;&#xA;&#x9;&#x9;c3.326,10.716,20.22,9.42,23.068,9.662c-0.76,3.422-4.904,4.832-8.779,5.184C116.314,91.727,106.703,91.189,101.202,82.227z"/>
      <g id="L_Eye">
        <path id="White_1_" fill="#FFFFFF" d="M113.999,66.557c3.127-0.636,6.358,0.197,7.224,1.859c0.862,1.663-0.972,3.525-4.097,4.161&#xD;&#xA;&#x9;&#x9;&#x9;c-3.127,0.636-6.36-0.198-7.224-1.86C109.039,69.055,110.873,67.192,113.999,66.557z"/>
        <path id="Pupil_1_" fill="#6600A1" d="M113.236,68.838c0.516-0.945,1.828-1.354,2.934-0.914c1.104,0.441,1.583,1.566,1.068,2.511&#xD;&#xA;&#x9;&#x9;&#x9;c-0.516,0.945-1.829,1.355-2.934,0.915C113.199,70.909,112.723,69.784,113.236,68.838z"/>
      </g>
      <g id="R_Eye">
        <path id="White" fill="#FFFFFF" d="M126.381,71.523c-1.977-0.717-2.697-2.057-1.609-2.991c1.088-0.935,3.57-1.112,5.547-0.396&#xD;&#xA;&#x9;&#x9;&#x9;c1.979,0.717,2.697,2.056,1.611,2.991C130.841,72.064,128.355,72.241,126.381,71.523z"/>
        <path id="Pupil" fill="#6600A1" d="M126.846,69.302c0.35-0.621,1.238-0.889,1.986-0.599c0.747,0.289,1.07,1.027,0.723,1.645&#xD;&#xA;&#x9;&#x9;&#x9;c-0.349,0.621-1.236,0.89-1.984,0.6C126.82,70.659,126.498,69.921,126.846,69.302z"/>
      </g>
      <path id="L_Antenna" fill="#00B900" d="M127.232,43.55c-0.297-3.641-5.777-5.367-7.072-8.626c-0.713-1.791,7.152-5.905,0.451-5.889&#xD;&#xA;&#x9;&#x9;c-0.009,0-0.019,0.002-0.027,0.002c-0.139-0.005-0.295,0.006-0.484,0.062c-2.947,0.876-6.438,2.202-5.838,5.886&#xD;&#xA;&#x9;&#x9;c0.62,3.822,6.291,6.476,5.957,10.331c-0.279,3.22-6.388,4.512-7.666,7.562c-0.709,1.683-0.527,3.389,0.497,4.941&#xD;&#xA;&#x9;&#x9;c1.007,1.526,1.925,1.308,3.726,1.612c0.312,0.052,1.82-0.167,1.562-0.78C114.246,49.064,127.882,51.555,127.232,43.55z"/>
    </g>
  </g>
</svg>