<svg version="1.1" width="187" height="142" viewBox="-1 -1 187 142" xmlns="http://www.w3.org/2000/svg" xmlns:xlink="http://www.w3.org/1999/xlink">
  <!-- Exported by Scratch - http://scratch.mit.edu/ -->
  <path id="ID0.5249641677364707" fill="#975B3D" d="M 108.014 16.081 C 112.105 16.350 118.348 11.775 116.195 8.331 C 114.845 8.524 113.666 8.277 112.428 8.116 C 111.613 6.396 112.346 2.370 110.597 1.334 C 108.284 3.649 107.477 6.501 106.453 9.569 C 103.762 8.224 101.555 9.193 98.541 9.193 C 95.419 9.193 92.298 7.416 89.337 8.439 C 87.991 8.870 91.972 12.086 90.575 11.776 C 89.606 11.560 88.475 11.560 87.131 11.560 C 83.955 11.560 82.718 11.668 79.973 13.228 L 83.040 15.435 L 73.998 18.449 C 74.482 19.364 75.666 19.848 75.290 20.818 C 74.644 22.432 71.199 20.549 70.984 22.325 C 70.877 23.455 72.330 23.563 73.136 24.263 L 67.539 27.277 C 68.635 27.456 69.906 27.816 70.553 28.354 C 78.501 28.598 83.513 23.643 92.081 20.819 C 95.688 19.634 97.625 18.505 101.339 18.236 C 106.023 17.911 106.884 20.655 108.014 16.081 Z " transform="matrix(1.399999976158142, 0, 0, 1.399999976158142, 0.2, 0)"/>
  <path id="ID0.03286631219089031" fill="#D1B23E" d="M 130.727 28.567 C 129.543 27.006 129.543 26.629 128.413 25.176 C 129.383 20.870 127.109 20.007 124.364 20.277 C 122.857 20.439 122.434 22.283 120.920 22.215 C 119.736 22.161 114.044 18.503 113.183 15.005 C 110.167 15.759 106.993 17.750 105.216 15.220 C 102.633 11.614 104.355 8.546 104.031 4.133 C 101.072 4.617 98.542 6.502 98.327 9.461 C 98.111 12.099 101.502 13.821 99.403 15.436 C 93.859 19.742 90.091 21.033 83.902 24.263 C 72.222 30.399 64.256 32.013 51.178 32.013 C 45.849 32.013 42.944 30.668 37.616 30.291 C 30.404 29.753 23.676 33.951 22.545 41.055 C 21.630 46.815 24.483 53.004 22.760 55.803 C 21.582 57.718 20.186 61.711 21.307 63.877 C 22.430 66.047 25.180 66.811 27.389 66.353 C 24.644 69.098 24.536 73.888 25.935 76.095 C 28.014 79.372 31.118 79.712 32.448 83.468 C 34.785 90.069 33.146 96.260 32.607 97.958 C 32.656 98.120 32.697 98.289 32.731 98.465 C 32.731 98.465 32.870 98.481 33.111 98.510 C 34.554 98.684 39.607 99.291 39.607 99.291 L 45.563 97.917 C 45.632 97.825 45.703 97.735 45.776 97.649 C 45.824 97.570 45.867 97.488 45.920 97.413 C 45.927 97.076 45.927 96.563 45.893 95.940 C 45.773 95.522 45.740 95.096 45.768 94.673 C 45.740 94.578 45.716 94.484 45.685 94.389 C 45.670 94.366 45.654 94.342 45.637 94.321 C 45.505 94.287 45.393 94.194 45.360 94.007 C 45.353 93.966 45.339 93.928 45.332 93.888 C 44.878 93.178 44.598 92.363 44.520 91.513 C 44.094 90.585 43.606 89.683 43.217 88.736 C 39.448 84.179 33.443 80.399 33.688 74.534 C 33.829 73.463 35.312 72.856 36.325 71.844 C 38.055 72.847 37.561 75.674 36.987 77.566 C 36.923 77.776 36.859 77.974 36.796 78.158 C 36.734 78.342 36.672 78.510 36.617 78.658 C 36.449 79.104 36.325 79.379 36.325 79.379 C 36.513 79.391 36.697 79.399 36.880 79.401 C 39.830 79.493 42.830 79.493 45.138 76.455 C 45.300 76.353 45.465 76.250 45.631 76.145 C 45.964 75.936 46.306 75.722 46.659 75.503 C 48.812 74.157 51.503 72.812 50.749 70.335 C 49.888 67.429 47.144 67.161 44.506 65.600 C 41.869 64.038 43.914 60.810 43.215 57.850 C 46.659 58.172 48.058 60.217 51.396 61.079 C 57.640 62.694 61.783 62.694 67.974 60.648 C 71.364 64.632 69.749 70.283 66.036 73.997 C 62.968 77.064 57.263 74.912 55.918 70.768 C 53.137 72.830 49.524 76.045 49.830 79.272 C 49.884 79.388 49.939 79.503 49.993 79.619 C 50.412 80.123 50.713 80.711 50.905 81.341 C 50.986 81.471 51.091 81.585 51.179 81.710 C 52.337 82.330 53.527 82.975 54.741 83.598 C 55.263 83.712 55.797 83.813 56.350 83.902 C 61.679 84.710 63.562 86.002 68.352 83.632 C 74.434 80.618 75.456 73.299 74.649 66.463 C 74.380 63.987 73.519 62.534 73.519 60.059 C 73.519 57.852 75.887 58.820 78.094 58.497 C 79.924 60.974 81.754 61.888 83.476 64.525 C 87.675 70.823 87.675 75.935 87.136 83.470 C 86.813 88.099 84.983 93.481 85.737 94.396 C 86.214 94.974 86.721 95.436 87.254 95.814 C 87.778 96.085 88.297 96.364 88.810 96.647 C 91.115 97.532 93.822 97.251 96.826 96.926 C 96.829 96.926 96.832 96.925 96.835 96.925 C 97.416 96.746 97.992 96.541 98.561 96.306 C 99.962 95.492 101.123 94.030 100.702 92.727 C 99.679 89.660 95.858 89.498 95.320 86.269 C 94.565 81.694 95.357 80.217 94.888 75.557 C 93.866 65.386 88.645 59.088 80.680 53.115 C 87.998 46.494 87.622 36.484 96.287 31.801 C 99.302 30.186 101.508 32.070 104.360 31.586 C 106.836 32.663 106.083 36.161 108.667 36.968 C 111.196 37.721 113.887 36.860 115.771 34.976 C 113.027 32.231 109.959 30.724 109.959 26.849 C 115.286 28.949 118.785 32.824 124.222 33.954 C 128.360 34.811 133.257 31.904 130.727 28.567 Z " transform="matrix(1.399999976158142, 0, 0, 1.399999976158142, 0.2, 0)"/>
  <path id="ID0.5103596481494606" fill="#B4762E" d="M 102.847 91.896 C 101.779 90.435 100.564 89.106 99.012 88.088 C 98.242 87.665 97.480 87.228 96.849 86.593 C 96.841 86.585 96.840 86.576 96.833 86.569 C 94.645 87.382 92.947 88.309 89.499 90.033 C 87.797 90.884 86.185 91.521 84.608 92.012 C 84.523 92.479 84.389 92.935 84.245 93.394 C 84.840 94.411 85.746 95.032 87.154 95.761 C 88.212 96.308 89.232 96.889 90.232 97.495 C 90.264 97.494 90.294 97.490 90.327 97.490 C 90.951 97.490 91.512 97.587 92.014 97.756 C 92.401 97.754 92.786 97.751 93.173 97.748 C 93.546 97.636 93.928 97.541 94.327 97.490 C 97.154 97.128 99.884 95.863 102.399 94.328 C 102.337 94.208 102.327 94.059 102.420 93.895 C 102.769 93.276 102.839 92.594 102.847 91.896 Z " transform="matrix(1.399999976158142, 0, 0, 1.399999976158142, 0.2, 0)"/>
  <path id="ID0.48582707485184073" fill="#B4762E" d="M 45.767 94.673 C 45.740 94.581 45.716 94.487 45.686 94.396 C 45.665 94.370 45.644 94.343 45.623 94.317 C 45.497 94.280 45.391 94.187 45.359 94.005 C 45.355 93.982 45.347 93.959 45.343 93.936 C 44.874 93.220 44.600 92.379 44.522 91.515 C 44.211 90.839 43.869 90.176 43.553 89.500 C 42.892 90.320 42.061 90.953 40.953 91.539 C 38.064 93.091 35.370 93.143 32.875 91.578 C 32.870 91.602 32.856 91.624 32.851 91.648 C 32.797 92.193 32.588 92.712 32.224 93.116 C 32.146 93.368 32.063 93.618 31.997 93.873 C 31.914 94.193 31.751 94.468 31.559 94.717 L 31.559 96.195 C 31.975 96.633 32.310 97.164 32.528 97.790 C 32.582 97.946 32.630 98.108 33.091 98.824 C 33.257 98.848 33.425 98.878 33.593 98.908 C 34.769 99.121 35.931 99.399 37.089 99.701 C 37.850 99.738 38.608 99.796 39.341 100.004 C 39.865 99.998 40.389 99.982 40.913 99.965 C 43.129 99.394 45.048 98.621 45.480 98.021 C 45.604 97.849 45.734 97.689 45.869 97.540 C 45.992 97.354 46.105 97.163 46.254 96.996 C 46.165 96.751 46.087 96.503 45.992 96.260 C 45.788 95.738 45.729 95.203 45.767 94.673 Z " transform="matrix(1.399999976158142, 0, 0, 1.399999976158142, 0.2, 0)"/>
  <path id="ID0.5547199798747897" fill="#B4762E" d="M 51.554 70.375 C 51.530 70.296 51.506 70.215 51.499 70.121 C 51.437 70.024 51.400 69.905 51.383 69.769 C 51.107 69.257 50.818 68.724 50.417 68.317 C 50.111 68.006 49.811 67.702 49.540 67.365 C 48.674 66.692 47.729 66.131 46.719 65.660 C 46.468 66.081 46.232 66.511 46.011 66.889 C 43.724 70.819 40.737 71.705 36.969 74.208 C 36.886 74.263 36.814 74.324 36.740 74.384 C 36.742 75.665 36.334 76.884 36.246 78.157 C 36.238 78.272 36.189 78.362 36.125 78.437 C 36.274 78.884 36.468 79.328 36.674 79.764 C 36.690 79.768 36.703 79.763 36.719 79.769 C 36.797 79.783 36.872 79.788 36.948 79.795 C 36.979 79.783 37.016 79.779 37.052 79.774 C 37.118 79.731 37.191 79.698 37.285 79.696 C 38.723 79.665 40.211 79.467 41.586 79.027 C 42.527 78.727 43.435 78.394 44.407 78.241 C 44.447 78.209 44.484 78.175 44.537 78.155 C 45.513 77.799 46.493 77.460 47.460 77.085 C 48.158 76.590 48.782 75.986 49.486 75.494 C 49.611 75.264 49.724 75.026 49.857 74.801 C 50.436 73.815 51.142 72.793 51.493 71.699 C 51.516 71.628 51.554 71.573 51.597 71.526 L 51.597 70.663 C 51.563 70.573 51.542 70.479 51.554 70.375 Z " transform="matrix(1.399999976158142, 0, 0, 1.399999976158142, 0.2, 0)"/>
  <path id="ID0.6060596397146583" fill="#B4762E" d="M 59.895 73.023 C 58.358 71.952 57.155 70.726 56.353 69.094 C 56.043 69.215 55.733 69.333 55.454 69.521 C 55.390 69.565 55.329 69.583 55.269 69.592 C 55.240 69.613 55.213 69.636 55.178 69.650 C 55.170 69.663 55.166 69.676 55.153 69.689 C 54.333 70.459 53.556 71.256 52.580 71.821 C 52.580 71.822 52.579 71.822 52.578 71.823 C 52.539 71.963 52.452 72.089 52.311 72.148 C 51.908 73.242 51.229 74.220 50.673 75.240 C 50.283 75.955 49.917 76.682 49.553 77.411 C 49.522 77.657 49.487 77.903 49.452 78.148 C 49.513 78.219 49.557 78.311 49.557 78.438 L 49.557 78.718 C 49.636 78.790 49.679 78.888 49.688 78.996 C 49.700 79.013 49.713 79.025 49.723 79.046 C 49.823 79.266 49.926 79.481 50.028 79.697 C 50.375 80.143 50.629 80.652 50.804 81.195 C 50.907 81.366 51.030 81.524 51.144 81.688 C 53.592 82.997 56.172 84.432 58.857 85.483 C 58.849 85.278 58.837 85.072 58.820 84.864 C 58.497 80.908 58.820 78.647 59.466 74.746 C 59.568 74.132 59.735 73.565 59.895 73.023 Z " transform="matrix(1.399999976158142, 0, 0, 1.399999976158142, 0.2, 0)"/>
  <path id="ID0.5582508374936879" fill="#272525" d="M 112.865 7.874 C 115.441 6.338 117.266 6.693 117.463 7.140 C 118.373 9.206 115.988 13.413 114.382 14.672 C 111.855 16.651 109.414 16.996 106.508 16.511 C 105.782 16.389 104.878 15.458 105.647 15.650 C 109.675 16.650 115.397 13.272 115.947 9.047 C 113.629 8.802 111.945 9.675 110.078 11.737 C 111.406 8.437 112.704 5.746 110.177 2.592 C 107.855 5.262 107.262 7.199 106.901 11.150 C 106.901 11.150 105.380 9.724 104.896 9.047 C 104.380 10.355 104.845 11.808 104.553 13.155 L 103.820 13.009 C 103.368 10.347 103.238 7.635 103.380 4.940 C 95.583 9.837 101.608 11.185 101.619 13.742 C 100.294 13.996 98.554 12.814 97.853 11.737 C 95.672 8.384 100.737 3.834 103.722 3.179 C 104.045 3.108 105.184 3.031 105.140 3.619 L 104.896 6.895 L 106.558 8.558 C 107.137 5.412 107.740 1.757 110.764 -0.001 C 113.635 1.061 113.495 5.534 112.865 7.874 Z " transform="matrix(1.399999976158142, 0, 0, 1.399999976158142, 0.2, 0)"/>
  <path id="ID0.520366549026221" fill="#272525" d="M 5.714 8.313 C 21.167 7.783 8.418 26.023 17.696 27.924 C 20.980 28.597 24.700 24.945 27.330 29.782 C 27.783 30.614 27.529 31.666 28.113 32.374 C 36.259 27.272 45.633 32.256 54.424 31.200 C 60.221 30.503 65.259 30.025 70.171 28.265 C 68.896 28.084 67.573 27.863 66.504 27.092 C 66.724 25.502 69.755 24.980 70.857 24.060 C 70.307 23.502 69.909 23.236 69.096 22.543 C 70.429 21.125 72.438 21.028 74.133 20.293 C 73.520 19.639 73.084 19.308 72.128 18.533 C 74.816 16.326 78.243 15.353 81.663 15.110 C 80.764 14.438 79.627 14.171 78.828 13.349 C 81.157 11.073 85.824 10.654 88.559 10.660 C 88.093 9.972 87.777 9.405 87.288 8.557 C 89.014 7.326 94.908 7.184 96.434 7.971 C 97.212 8.372 97.205 9.945 96.605 10.051 C 94.775 10.374 91.839 8.608 89.769 9.459 C 90.542 10.140 91.968 11.353 92.326 12.324 C 89.878 12.205 85.405 11.312 82.692 13.840 C 84.281 14.465 85.206 14.946 86.360 15.698 C 84.387 16.134 78.854 17.059 75.796 18.633 C 76.303 18.886 78.359 19.418 79.171 20.638 C 79.802 21.588 73.755 22.185 72.709 22.647 C 73.623 23.185 74.431 23.616 75.454 24.648 C 73.346 25.272 71.307 26.111 69.341 27.094 C 69.860 27.420 70.505 27.298 70.858 27.827 C 75.441 27.026 79.549 24.144 83.867 22.545 C 87.470 21.211 97.129 15.148 99.370 14.525 C 99.647 14.448 100.393 14.636 100.543 14.916 C 100.704 15.216 100.328 16.014 100.104 16.188 C 98.026 17.796 95.305 19.145 93.010 20.451 C 79.945 27.888 67.458 32.536 52.323 33.304 C 44.440 33.705 37.427 30.116 30.120 34.624 C 25.516 37.464 23.294 41.850 23.419 47.291 C 23.489 50.315 25.380 51.769 25.424 53.845 L 24.592 54.578 C 20.933 51.162 19.984 45.722 21.684 41.053 C 22.598 38.545 23.684 36.645 25.080 34.722 C 24.664 34.185 23.667 34.432 23.075 34.478 C 18.224 34.851 12.772 44.595 4.460 38.470 C -1.675 33.949 -0.279 27.331 1.606 23.327 C 3.135 20.079 6.641 17.380 5.616 13.350 C 5 10.929 4.353 7.899 2.095 6.211 C 3.489 6.515 4.642 7.421 5.714 8.313 Z " transform="matrix(1.399999976158142, 0, 0, 1.399999976158142, 0.2, 0)"/>
  <path id="ID0.24653478991240263" fill="#975B3D" d="M 27.086 32.962 L 25.325 34.380 C 25.435 33.899 24.870 33.617 24.493 33.548 C 20.064 32.745 15.383 38.940 9.480 38.487 C 6.071 38.227 3.697 36.251 2.290 33.206 C -1.299 25.434 11.572 20.333 6.203 9.389 C 8.581 9.931 11.475 12.156 12.268 14.525 C 13.597 18.497 10.661 22.831 13.441 26.849 C 17.860 33.235 22.572 27.003 26.254 31.103 C 26.760 31.667 27.036 32.189 27.086 32.962 Z " transform="matrix(1.399999976158142, 0, 0, 1.399999976158142, 0.2, 0)"/>
  <path id="ID0.7069452675059438" fill="#272525" d="M 25.912 32.962 C 18.723 29.051 16.433 37.141 9.822 35.212 C 7.872 34.642 6.546 33.910 5.714 31.935 C 3.728 27.218 7.075 24.059 8.404 19.953 C 9.211 17.459 9.950 13.820 7.719 10.564 C 8.876 11.191 9.719 13.463 10.165 14.672 C 12.298 20.452 4.692 27.787 8.062 31.935 C 11.821 36.563 17.638 29.155 23.418 31.202 C 24.247 31.495 25.020 32.011 25.912 32.962 Z " transform="matrix(1.399999976158142, 0, 0, 1.399999976158142, 0.2, 0)"/>
  <path id="ID0.6897000474855304" fill="#272525" d="M 121.460 21.634 C 123.415 16.177 132.418 20.239 128.845 25.155 C 130.945 26.457 132.973 29.052 132.134 31.788 C 130.337 37.643 118.606 35.443 116.141 30.760 C 113.927 30.318 111.779 29.420 110.273 27.679 C 110.524 30.948 114.390 33.165 116.876 34.721 C 115.148 39.203 108.453 38.715 106.166 35.064 C 105.788 34.461 105.460 32.703 104.649 32.717 C 101.864 32.762 99.012 34.147 96.775 31.347 C 95.650 29.937 95.316 27.930 95.993 26.261 C 98.542 32.064 103.092 30.279 106.556 28.999 C 106.777 31.525 107.136 38.984 114.625 34.477 C 112.337 33.333 107.368 30.718 109.686 24.402 C 109.917 23.772 112.321 29.481 117.218 29.440 C 122.954 36.279 137.098 33.046 127.427 25.741 C 130.338 21.675 124.579 18.176 122.977 22.806 C 121.013 24.798 113.907 18.359 113.012 16.528 C 113.217 15.775 114.088 15.541 114.772 15.501 C 116.827 17.449 118.599 20.168 121.314 21.535 L 121.460 21.634 Z " transform="matrix(1.399999976158142, 0, 0, 1.399999976158142, 0.2, 0)"/>
  <path id="ID0.08290862245485187" fill="#272525" d="M 110.517 18.438 C 113.727 22.954 104.829 22.499 104.307 20.786 C 103.500 18.134 108.762 15.966 110.517 18.438 Z " transform="matrix(1.399999976158142, 0, 0, 1.399999976158142, 0.2, 0)"/>
  <path id="ID0.1608870690688491" fill="#FFFFFF" d="M 109.686 20.295 C 109.686 20.295 108.552 20.664 107.691 20.654 C 106.830 20.646 105.481 20.393 105.481 20.393 C 106.091 19.338 106.992 18.887 107.803 18.838 C 108.883 18.772 109.806 19.417 109.686 20.295 Z " transform="matrix(1.399999976158142, 0, 0, 1.399999976158142, 0.2, 0)"/>
  <path id="ID0.3996476330794394" fill="#272525" d="M 109.090 18.825 C 109.461 18.825 109.798 18.949 110.042 19.149 C 110.285 19.348 110.436 19.624 110.436 19.929 C 110.436 20.234 110.285 20.510 110.042 20.709 C 109.798 20.909 109.461 21.033 109.090 21.033 C 108.719 21.033 108.382 20.909 108.138 20.709 C 107.895 20.510 107.744 20.234 107.744 19.929 C 107.744 19.624 107.895 19.348 108.138 19.149 C 108.382 18.949 108.719 18.825 109.090 18.825 Z " transform="matrix(1.399999976158142, 0, 0, 1.399999976158142, 0.2, 0)"/>
  <path id="ID0.31966521218419075" fill="#272525" d="M 121.179 24.403 C 121.179 24.403 118.632 24.214 117.805 25.235 C 117.044 26.173 117.111 27.329 116.875 28.414 C 112.346 23.639 118.731 21.753 121.179 24.403 Z " transform="matrix(1.399999976158142, 0, 0, 1.399999976158142, 0.2, 0)"/>
  <path id="ID0.6549390256404877" fill="#272525" d="M 119.418 28.414 C 118.429 24.719 124.827 27.893 123.184 29.686 C 122.690 30.224 119.749 29.643 119.418 28.414 Z " transform="matrix(1.399999976158142, 0, 0, 1.399999976158142, 0.2, 0)"/>
  <path id="ID0.30931072449311614" fill="#272525" d="M 101.623 90.379 C 100.799 89.642 99.689 88.710 98.734 87.934 C 98.061 87.556 97.404 87.151 96.849 86.593 C 96.620 86.364 96.725 86.057 96.933 85.886 C 96.965 84.217 97.079 82.831 97.020 81.329 C 96.571 70.204 91.415 60.078 82.249 53.649 C 87.238 49.235 87.066 41.584 93.498 34.869 C 94.367 33.961 96.270 32.981 96.433 31.689 L 96.090 31.348 C 94.805 31.807 93.685 32.917 92.569 33.695 C 87.406 37.298 85.564 43.629 82.547 48.835 C 81.624 50.430 80.397 51.670 79.413 53.159 C 78.886 53.959 84.518 57.478 85.527 58.441 C 93.176 65.745 95.275 77.031 94.330 87.099 C 95.549 88.710 99.395 91.473 99.953 92.967 C 100.130 93.439 99.783 94.082 99.186 94.444 C 95.779 96.509 90.475 95.831 87.041 93.995 C 91.154 85.917 89.339 76.254 86.357 68.173 C 84.902 64.229 78.841 57.361 77.211 55.751 C 75.991 57.287 74.090 57.863 72.518 58.930 C 72.622 60.401 73.274 61.525 73.544 62.891 C 74.131 65.856 74.472 68.630 74.033 71.597 C 73.587 74.614 73.065 76.904 71.197 79.470 C 69.049 82.419 64.004 84.729 60.388 83.676 C 57.502 82.837 53.438 81.481 51.732 78.883 C 52.336 76.468 53.787 74.350 55.693 72.770 C 65.498 83.341 74.912 65.865 68.016 59.860 C 58.973 61.941 50.096 58.974 41.919 55.263 C 42.780 50.849 36.557 43.596 35.153 47.389 C 38.421 49.880 39.142 52.631 38.919 55.164 C 38.649 58.230 35.917 59.715 33.638 61.131 C 33.235 61.381 33.261 61.614 33.540 61.962 C 38.206 62.044 44.626 65.730 47.890 69.350 C 48.095 69.579 49.313 70.933 49.386 71.107 C 50.100 72.835 47.526 74.914 44.567 76.321 C 44.457 76.374 44.347 76.425 44.237 76.475 C 41.827 77.489 40.827 77.489 38.827 77.489 C 38.827 77.489 38.827 76.489 38.460 76.501 C 38.483 76.333 38.509 76.161 38.538 75.986 C 38.820 74.245 39.247 72.273 38.823 71.010 C 37.716 67.722 33.615 64.654 30.264 64.212 C 28.224 63.943 23.659 64.843 22.390 62.891 C 20.932 60.649 23.197 57.570 24.151 55.604 C 23.974 55.141 23.390 55.118 22.977 55.018 C 21.008 54.543 21.252 55.800 20.630 57.267 C 19.454 59.676 19.185 63.240 20.874 65.484 C 24.978 70.935 32.692 62.945 35.986 70.521 C 35.069 71.715 33.736 72.458 32.465 73.210 C 32.059 80.638 43.029 87.066 44.545 94.239 C 44.753 95.227 44.719 96.866 44.202 97.760 C 41.275 98.643 36.918 98.710 33.639 97.074 C 33.974 95.930 34.491 94.715 34.715 93.553 C 35.726 88.291 33.715 81.770 30.106 77.880 C 29.140 76.839 27.727 76.096 26.841 75.115 C 25.514 73.647 27.312 70.398 27.329 68.660 C 26.902 67.905 25.910 68.617 25.324 68.758 C 24.823 70.716 23.762 72.811 24.395 74.871 C 25.411 78.174 35.648 82.415 32.709 92.476 C 32.458 93.337 31.992 94.115 31.557 94.903 L 31.557 96.173 C 31.978 96.614 32.321 97.147 32.541 97.777 C 32.596 97.934 32.644 98.098 33.088 98.819 C 33.255 98.844 33.422 98.874 33.590 98.904 C 34.766 99.117 35.928 99.395 37.086 99.697 C 37.847 99.734 38.605 99.792 39.338 100 C 39.862 99.994 40.387 99.978 40.911 99.961 C 43.127 99.389 45.045 98.616 45.477 98.017 C 45.572 97.885 45.672 97.764 45.773 97.645 C 45.915 97.416 46.070 97.194 46.251 96.991 C 46.163 96.747 46.084 96.499 45.988 96.256 C 45.787 95.741 45.733 95.212 45.769 94.689 C 45.740 94.590 45.715 94.492 45.684 94.394 C 45.663 94.368 45.642 94.341 45.621 94.315 C 45.495 94.278 45.389 94.185 45.357 94.003 C 45.353 93.980 45.345 93.957 45.340 93.933 C 44.871 93.216 44.597 92.376 44.519 91.513 C 44.163 90.737 43.760 89.979 43.409 89.197 C 43.339 89.041 43.271 88.884 43.206 88.724 C 43.826 87.488 41.826 86.488 41.385 85.970 C 41.264 85.854 41.142 85.738 41.019 85.621 C 39.546 84.227 37.980 82.837 36.571 81.083 C 35.366 79.584 34.471 76.859 34.224 74.971 C 34.991 74.409 35.843 73.972 36.571 73.357 C 36.771 73.695 36.786 74.169 36.719 74.716 C 36.660 75.875 36.323 76.993 36.243 78.155 C 36.235 78.272 36.184 78.363 36.119 78.439 C 36.118 78.875 36.175 79.291 36.327 79.664 C 36.433 79.696 36.541 79.726 36.651 79.751 C 36.738 79.772 36.828 79.788 36.918 79.806 C 36.957 79.787 37.004 79.781 37.050 79.773 C 37.116 79.730 37.190 79.697 37.283 79.695 C 37.890 79.681 38.506 79.631 39.118 79.552 C 39.769 79.447 40.402 79.321 41.023 79.178 C 41.210 79.128 41.399 79.084 41.583 79.026 C 42.497 78.735 43.379 78.414 44.320 78.255 C 44.353 78.244 44.385 78.235 44.418 78.225 C 44.455 78.200 44.488 78.171 44.534 78.155 C 45.509 77.799 46.490 77.459 47.458 77.085 C 48.129 76.608 48.734 76.035 49.404 75.554 C 49.432 75.526 49.466 75.499 49.495 75.471 C 49.617 75.248 49.726 75.019 49.854 74.801 C 50.433 73.815 51.139 72.793 51.490 71.699 C 51.511 71.634 51.544 71.582 51.581 71.535 C 51.593 71.377 51.598 71.219 51.595 71.059 L 51.595 71.032 C 51.591 70.868 51.577 70.704 51.551 70.539 C 51.551 70.535 51.550 70.531 51.549 70.527 C 51.530 70.411 51.516 70.295 51.487 70.178 C 51.475 70.131 51.453 70.082 51.438 70.035 C 51.426 70.009 51.418 69.981 51.410 69.953 C 51.037 68.879 49.921 67.723 48.595 66.666 C 47.653 66.081 46.641 65.595 45.591 65.163 C 45.060 64.945 44.712 64.493 44.521 63.967 C 44.186 63.779 43.878 63.613 43.614 63.478 C 44.145 62.006 43.640 60.437 43.614 58.930 C 44.587 59.534 45.674 60.071 46.826 60.549 C 47.235 60.561 47.655 60.648 48.060 60.814 C 48.614 61.042 49.164 61.294 49.707 61.565 C 55.740 63.339 62.954 63.461 68.016 61.131 C 72.037 66.735 66.659 75.485 61.018 73.495 C 60.692 73.461 60.375 73.355 60.090 73.163 C 58.455 72.057 57.166 70.809 56.327 69.102 C 56.025 69.220 55.723 69.337 55.451 69.520 C 55.402 69.553 55.355 69.566 55.309 69.581 C 55.263 69.609 55.216 69.634 55.169 69.663 C 55.161 69.671 55.159 69.681 55.150 69.688 C 54.400 70.391 53.685 71.116 52.824 71.668 C 52.615 71.897 52.413 72.138 52.216 72.383 C 51.805 73.382 51.186 74.293 50.670 75.238 C 50.324 75.871 49.991 76.510 49.666 77.154 C 49.592 77.408 49.535 77.660 49.481 77.912 C 49.469 77.990 49.460 78.068 49.449 78.146 C 49.510 78.217 49.554 78.309 49.554 78.436 L 49.554 78.716 C 49.633 78.788 49.676 78.886 49.685 78.994 C 49.697 79.011 49.710 79.023 49.720 79.044 C 49.809 79.240 49.901 79.431 49.991 79.624 C 50.382 80.106 50.661 80.666 50.848 81.263 C 50.938 81.410 51.047 81.547 51.145 81.689 C 53.974 83.203 56.980 84.880 60.120 85.937 C 60.130 85.938 60.140 85.941 60.149 85.943 C 60.151 85.943 60.153 85.944 60.155 85.944 C 60.164 85.944 60.169 85.949 60.178 85.949 C 61.928 86.246 63.656 86.321 65.226 86.120 C 68.857 85.653 72.699 82.167 74.273 78.979 C 76.864 73.738 75.442 66.295 74.029 60.884 C 74.841 60.549 76.952 58.805 77.403 59.026 C 78.908 59.762 81.838 64.216 82.832 65.727 C 87.641 73.032 87.342 80.126 86.109 87.196 C 85.755 89.223 85.089 90.732 84.513 92.442 C 84.432 92.762 84.337 93.081 84.237 93.400 C 84.833 94.415 85.742 95.029 87.149 95.757 C 88.210 96.306 89.235 96.884 90.239 97.490 C 90.267 97.490 90.294 97.486 90.322 97.486 C 90.943 97.486 91.501 97.583 92.001 97.752 C 92.405 97.750 92.810 97.747 93.214 97.744 C 93.571 97.631 93.938 97.535 94.322 97.486 C 96.957 97.148 99.505 96.023 101.877 94.630 C 102.194 94.171 102.515 93.618 102.715 93.081 C 102.804 92.696 102.837 92.297 102.841 91.892 C 102.461 91.368 102.054 90.862 101.623 90.379 Z " transform="matrix(1.399999976158142, 0, 0, 1.399999976158142, 0.2, 0)"/>
  <path id="ID0.26010353956371546" fill="#D1B23E" d="M 41.757 62.452 C 40.210 61.536 38.395 61.362 36.720 60.789 C 38.351 59.921 39.660 59.030 41.170 57.512 C 41.848 58.450 41.778 61.428 41.757 62.452 Z " transform="matrix(1.399999976158142, 0, 0, 1.399999976158142, 0.2, 0)"/>
  <path id="ID0.9278712212108076" fill="#272525" d="M 45.375 67.831 C 45.375 70.519 42.782 72.863 40.094 73.456 C 39.785 73.523 39.355 72.838 39.654 72.624 C 42.620 70.495 44.182 67.266 45.375 67.831 Z " transform="matrix(1.399999976158142, 0, 0, 1.399999976158142, 0.2, 0)"/>
  <path id="ID0.5757170431315899" fill="#272525" d="M 59.803 76.390 L 59.705 81.820 C 56.880 83.418 57.919 74.538 59.803 76.390 Z " transform="matrix(1.399999976158142, 0, 0, 1.399999976158142, 0.2, 0)"/>
  <path id="ID0.3393205441534519" fill="#272525" d="M 94.397 88.687 C 93.375 90.140 90.771 90.877 89.715 91.001 C 88.800 91.108 88.452 90.470 88.854 90.140 C 90.266 88.975 91.913 88.512 93.590 87.772 C 93.926 87.623 94.607 88.389 94.397 88.687 Z " transform="matrix(1.399999976158142, 0, 0, 1.399999976158142, 0.2, 0)"/>
  <path id="ID0.5668331836350262" fill="#272525" d="M 42.136 92.185 C 40.414 93.262 37.076 93.456 35.462 92.723 C 34.839 92.441 35.408 91.648 35.889 91.649 C 37.894 91.747 40.143 91.698 41.757 90.378 C 42.295 90.132 42.871 91.726 42.136 92.185 Z " transform="matrix(1.399999976158142, 0, 0, 1.399999976158142, 0.2, 0)"/>
  <path id="ID0.8338625109754503" fill="#272525" d="M 119.694 18.233 C 116.733 20.924 114.311 19.901 114.273 18.969 C 114.091 17.519 115.469 15.842 117.487 16.403 C 118.456 16.673 119.263 17.210 119.694 18.233 Z " transform="matrix(1.399999976158142, 0, 0, 1.399999976158142, 0.2, 0)"/>
  <path id="ID0.15264540491625667" fill="#FFFFFF" d="M 118.428 18.227 C 117.449 18.493 116.350 19.185 115.172 19.041 C 115.368 18.452 115.725 17.597 116.357 17.427 C 117.197 17.198 118.294 17.574 118.428 18.227 Z " transform="matrix(1.399999976158142, 0, 0, 1.399999976158142, 0.2, 0)"/>
  <path id="ID0.120642751455307" fill="#272525" d="M 118.025 17.211 C 118.337 17.211 118.619 17.304 118.824 17.455 C 119.028 17.606 119.155 17.815 119.155 18.045 C 119.155 18.275 119.028 18.484 118.824 18.635 C 118.619 18.786 118.337 18.879 118.025 18.879 C 117.713 18.879 117.431 18.786 117.226 18.635 C 117.022 18.484 116.895 18.275 116.895 18.045 C 116.895 17.815 117.022 17.606 117.226 17.455 C 117.431 17.304 117.713 17.211 118.025 17.211 Z " transform="matrix(1.399999976158142, 0, 0, 1.399999976158142, 0.2, 0)"/>
  <path id="ID0.6889466000720859" fill="#272525" d="M 124.852 24.208 C 126.612 21.787 127.832 27.241 125.933 27.125 C 125.363 27.089 124.266 25.014 124.852 24.208 Z " transform="matrix(1.399999976158142, 0, 0, 1.399999976158142, 0.2, 0)"/>
</svg>