<svg width="191px" height="87px" viewBox="0 0 191 87" version="1.1" xml:space="preserve" xmlns="http://www.w3.org/2000/svg" xmlns:xlink="http://www.w3.org/1999/xlink">
  <defs>
    <polygon id="path-1" points="0.200827206 0.657235772 9.07634191 0.657235772 9.07634191 11.6234244 0.200827206 11.6234244"/>
  </defs>
  <g>
    <title>Slice 1</title>
    <desc>Created with Sketch.</desc>
    <g id="Page-1" stroke="none" stroke-width="1" fill="none" fill-rule="evenodd">
      <g id="lion-c-[cat,animals,africa,savanna,robert-hunter]">
        <g id="Group-4" transform="translate(41.000000, 28.000000)">
          <path d="M49.8933456,4.8447984 C49.8933456,4.8447984 50.2454044,17.5553187 33.1579779,24.8737089 C15.9811397,32.2298553 12.8147059,34.2588959 11.8179044,35.9390423 C10.7610294,37.7212699 11.3729412,40.4145382 12.5373897,44.2600667 L14.2683456,49.1264081 C14.2683456,49.1264081 14.7915441,50.9911398 16.6552206,50.5247821 C22.3419485,49.1026358 23.8395956,49.0627821 24.3823529,49.6507984 C25.9191176,51.316961 24.9313971,52.8852374 22.8260294,57.0796602 L10.3244485,57.0796602 C10.3244485,57.0796602 9.5826103,57.2111073 8.2288603,53.4089285 C6.8758088,49.6074488 1.15625,33.6568959 1.15625,33.6568959 C1.15625,33.6568959 0.6323529,32.6521642 1.15625,31.3411886 C1.6801471,30.030213 5.466875,27.0404894 7.1810662,24.6548634 C8.9713971,22.1643593 14.0713603,13.817465 15.9525,0.0959203" id="Fill-1" fill="#BB8E5D"/>
          <path d="M49.8940441,4.8447984 C49.8940441,4.8447984 50.2461029,17.5553187 33.1579779,24.8737089 C15.9811397,32.2298553 12.8147059,34.2588959 11.8186029,35.9390423 C10.7617279,37.7212699 11.3736397,40.4145382 12.5373897,44.2600667 L14.2690441,49.1264081 C14.2690441,49.1264081 14.7922426,50.9911398 16.6552206,50.5247821 C22.3419485,49.1026358 23.8395956,49.0627821 24.3830515,49.6507984 C25.9191176,51.316961 25.1751838,52.9635463 22.8260294,57.0796602 L10.3251471,57.0796602 C10.3251471,57.0796602 9.5826103,57.2111073 8.2295588,53.4089285 C6.8758088,49.6074488 1.1569485,33.6568959 1.1569485,33.6568959 C1.1569485,33.6568959 0.6330515,32.6521642 1.1569485,31.3411886 C1.6808456,30.030213 5.4675735,27.0404894 7.1817647,24.6548634 C8.9713971,22.1643593 14.0713603,13.817465 15.9525,0.0959203" id="Stroke-3" stroke="#784E3D" stroke-width="0.525"/>
          <path d="M19.2747059,52.1857008 C19.2747059,52.1857008 19.3990441,52.0913106 19.6309559,51.9486764 C19.7476103,51.8794569 19.8901103,51.7927577 20.0605515,51.7088553 C20.2323897,51.6347415 20.4188971,51.5004976 20.6543015,51.476026 C21.1125368,51.3844325 21.6608824,51.2753593 22.2930515,51.3830341 C22.6004044,51.4403675 22.9622426,51.5802049 23.1969485,51.8920423 C23.3115074,52.0395707 23.3946324,52.2241561 23.4302574,52.388465 C23.4728676,52.5248065 23.5043015,52.6905138 23.5259559,52.8681073 C23.5993015,53.5379285 23.4267647,54.1888715 23.1787868,54.7272455 C22.9336029,55.2726114 22.6199632,55.7221886 22.3419485,56.0934569 C22.2693015,56.183652 22.2029412,56.273148 22.1414706,56.359148 C22.0639338,56.4318634 21.9787132,56.4905951 21.9053676,56.5507252 C21.7523897,56.6639935 21.6189706,56.7625789 21.5093015,56.8443837 C21.2864706,57.0003024 21.1523529,57.0800098 21.1523529,57.0800098 C21.1523529,57.0800098 21.2263971,56.9443675 21.3563235,56.7059447 C21.4205882,56.5884813 21.4988235,56.445148 21.5875368,56.2815382 C21.6308456,56.2004325 21.6713603,56.1081398 21.7251471,56.0221398 C21.7908088,55.9459285 21.8571691,55.8641236 21.9242279,55.776026 C22.1889706,55.424335 22.4830515,55.0006276 22.7016912,54.5111967 C22.9259191,54.0266602 23.0649265,53.4673106 23.0055515,52.9289366 C22.9908824,52.8058797 22.970625,52.6744325 22.9245221,52.5227089 C22.8958824,52.3933593 22.8469853,52.3010667 22.7820221,52.2129691 C22.6569853,52.0402699 22.4355515,51.9430829 22.1959559,51.898335 C21.7062868,51.8116358 21.1886765,51.898335 20.7688603,51.9899285 C20.5627941,52.0640423 20.3483456,52.0395707 20.168125,52.070335 C19.9858088,52.0927089 19.8258456,52.111587 19.6938235,52.1269691 C19.4276838,52.1647252 19.2747059,52.1857008 19.2747059,52.1857008" id="Fill-5" fill="#784E3D"/>
        </g>
        <g id="Group-3" transform="translate(134.000000, 30.000000)">
          <path d="M2.720018,7.1420016 C5.688768,12.5607008 0.231158,20.6447008 0.231158,20.6447008 C3.418548,25.0146195 5.557445,32.0917902 9.74932,41.1399691 C13.767261,49.8154813 17.170496,55.0803593 17.170496,55.0803593 L28.740239,55.0803593 C31.01046,51.1180667 32.00307,49.1659366 31.187886,48.1758878 C30.372702,47.1851398 29.016857,47.3599366 25.174945,48.2919528 C21.333033,49.2246683 21.194724,47.5780829 20.809136,47.0103431 C20.144136,45.6832862 18.015018,41.5916439 16.967224,30.1718228 C15.91943,18.7513024 21.099724,7.9139041 21.099724,7.9139041 C21.099724,7.9139041 20.127371,6.4560992 19.310092,5.3940341 C12.237482,-3.797478 0.738989,3.5258065 2.720018,7.1420016" id="Fill-7" fill="#BB8E5D"/>
          <path d="M2.720018,7.1420016 C5.470827,13.784278 0.231158,20.6447008 0.231158,20.6447008 C3.418548,25.0146195 5.557445,32.0917902 9.74932,41.1399691 C13.767261,49.8154813 17.170496,55.0803593 17.170496,55.0803593 L28.740239,55.0803593 C31.01046,51.1180667 32.00307,49.1659366 31.187886,48.1758878 C30.372702,47.1851398 29.016857,47.3599366 25.174945,48.2919528 C21.333033,49.2246683 21.194724,47.5780829 20.809136,47.0103431 C20.144136,45.6832862 18.015018,41.5916439 16.967224,30.1718228 C15.91943,18.7513024 21.099724,7.9139041 21.099724,7.9139041" id="Stroke-9" stroke="#784E3D" stroke-width="0.525"/>
          <path d="M24.549063,50.5352943 C24.549063,50.5352943 24.682482,50.4304163 24.933952,50.2737984 C25.061783,50.1982862 25.216158,50.1066927 25.393585,50.0018146 C25.485092,49.9521724 25.582188,49.8990341 25.683474,49.8430992 C25.788952,49.7955545 25.910496,49.7815707 26.029246,49.7403187 C26.514724,49.6039772 27.088217,49.457148 27.744136,49.4186927 C28.071048,49.4082049 28.429393,49.4130992 28.80171,49.5788065 C28.986121,49.6578146 29.168438,49.8158309 29.273217,50.0137008 C29.378695,50.2101724 29.415717,50.4304163 29.403842,50.6219935 C29.398254,50.8359447 29.368915,50.9631967 29.352849,51.1372943 C29.327004,51.3044 29.299063,51.4777984 29.264835,51.6428065 C29.192188,51.9721236 29.104173,52.2944488 28.986121,52.5957984 C28.755607,53.2019935 28.422408,53.7242862 28.088511,54.1172293 C27.941121,54.3325789 27.735754,54.4647252 27.561121,54.5793919 C27.387188,54.6954569 27.23421,54.7884488 27.10568,54.8625626 C26.84932,55.0093919 26.694945,55.0800098 26.694945,55.0800098 C26.694945,55.0800098 26.799026,54.9478634 26.979945,54.7164325 C27.070754,54.6031642 27.178327,54.464026 27.292886,54.3011154 C27.410239,54.1382049 27.516415,53.9424325 27.686857,53.7802211 C27.991415,53.420839 28.288989,52.957278 28.497151,52.4077171 C28.604724,52.134335 28.685754,51.839278 28.752813,51.5351317 C28.783548,51.3820098 28.807298,51.2323837 28.833143,51.0757659 C28.847114,50.9233431 28.88204,50.724774 28.879945,50.6094081 C28.889724,50.3332293 28.79682,50.1535382 28.576783,50.0521561 C28.353952,49.9500748 28.053585,49.9290992 27.768585,49.9430829 C27.190202,49.9759447 26.637665,50.1129854 26.173842,50.2444325 C26.056489,50.2724 25.95171,50.324839 25.842739,50.3465138 C25.730276,50.3604976 25.624099,50.3737821 25.52421,50.3863675 C25.323732,50.4164325 25.149099,50.4423024 25.005901,50.4639772 C24.715313,50.5094244 24.549063,50.5352943 24.549063,50.5352943" id="Fill-11" fill="#784E3D"/>
        </g>
        <g id="Group-16" transform="translate(54.183824, 1.139512)">
          <path d="M120.365963,8.9722 C120.365963,8.9722 125.570706,11.6333057 128.102875,14.4300537 L127.724971,13.0316797 C127.724971,13.0316797 130.344456,13.9930618 131.62486,15.0418423 C131.62486,15.0418423 130.984309,10.9921512 127.608316,8.31216748 C127.608316,8.31216748 128.568096,8.22476911 129.55861,8.83655772 C129.55861,8.83655772 121.54089,1.08397236 114.190963,1.05810244 C108.835338,1.0385252 105.749934,3.03889919 105.051404,3.35912683 C104.352875,3.68005366 101.879382,5.04906179 100.016404,4.96166341 C98.1534265,4.87426504 93.2637206,3.18433008 88.3160368,5.19449268 C88.3160368,5.19449268 89.9170662,5.39865528 90.3822868,5.86501301 C90.3822868,5.86501301 88.3740147,5.6021187 84.0375441,7.93320813 C84.0375441,7.93320813 86.2784265,7.72904553 86.5697132,8.3702 C86.5697132,8.3702 81.4473971,9.56441138 77.0815882,12.1283301 C77.0815882,12.1283301 78.3040147,11.8367691 79.2931324,11.8955008 C79.1499338,11.8906065 77.1165147,13.3330293 75.5098971,13.8762976 C70.9394191,15.4201024 65.17725,17.3428667 43.3482059,14.4300537 C21.5191618,11.5165415 18.5504118,12.0409317 17.3859632,12.0989642 C16.2222132,12.1569967 14.8279485,12.7394195 13.4280956,13.6141024 C11.3325074,15.0712081 3.35739706,19.2222813 1.72772794,28.3550618 C-1.70694118,52.768574 22.8582426,37.0948992 29.0283529,41.6396146 C43.9887574,54.6913382 58.3086103,54.4585089 58.3086103,54.4585089 C70.5915515,54.3417447 78.6239412,47.466639 85.9585,44.6698911 C93.2930588,41.8731431 100.045743,39.7748829 109.067949,43.0379886 L111.687434,41.4067854 C111.687434,41.4067854 113.492434,42.7471268 113.667066,43.5043463 C113.667066,43.5043463 115.122801,42.2227366 115.180081,41.0571919 C115.180081,41.0571919 116.111919,41.2900211 116.402507,41.9892081 C116.402507,41.9892081 117.624934,41.0571919 116.926404,39.9503789 C116.926404,39.9503789 119.255301,40.6495659 119.604566,43.2715171 C119.604566,43.2715171 122.224051,40.1832081 122.107397,35.0560699 C122.107397,35.0560699 122.863904,35.4049642 122.980559,36.3957122 C122.980559,36.3957122 123.40736,34.2289317 125.735559,32.0146065 L121.604456,30.4889805 C126.174235,31.2755659 128.248868,34.4149154 128.860081,33.3367691 C130.030118,31.2741675 132.52736,28.4424602 134.186368,26.4322976 C135.845375,24.422135 134.855559,23.7816797 134.855559,23.7816797 L130.315118,19.4697935 C130.315118,16.6730455 128.994199,13.5532732 128.994199,13.5532732" id="Fill-13" fill="#DCB285"/>
          <path d="M120.365963,8.9722 C120.365963,8.9722 125.570706,11.6333057 128.102875,14.4300537 L127.724971,13.0316797 C127.724971,13.0316797 130.344456,13.9930618 131.62486,15.0418423 C131.62486,15.0418423 130.984309,10.9921512 127.608316,8.31216748 C127.608316,8.31216748 128.568096,8.22476911 129.55861,8.83655772 C129.55861,8.83655772 121.54089,1.08397236 114.190963,1.05810244 C108.835338,1.0385252 105.749934,3.03889919 105.051404,3.35912683 C104.352875,3.68005366 101.879382,5.04906179 100.016404,4.96166341 C98.1534265,4.87426504 93.2637206,3.18433008 88.3160368,5.19449268 C88.3160368,5.19449268 89.9170662,5.39865528 90.3822868,5.86501301 C90.3822868,5.86501301 88.3740147,5.6021187 84.0375441,7.93320813 C84.0375441,7.93320813 86.2784265,7.72904553 86.5697132,8.3702 C86.5697132,8.3702 81.4473971,9.56441138 77.0815882,12.1283301 C77.0815882,12.1283301 78.3040147,11.8367691 79.2931324,11.8955008 C79.1499338,11.8906065 77.1165147,13.3330293 75.5098971,13.8762976 C70.9394191,15.4201024 65.17725,17.3428667 43.3482059,14.4300537 C21.5191618,11.5165415 18.5504118,12.0409317 17.3859632,12.0989642 C16.2222132,12.1569967 14.8279485,12.7394195 13.4280956,13.6141024 C11.3325074,15.0712081 3.35739706,19.2222813 1.72772794,28.3550618 C-1.70694118,52.768574 22.8582426,37.0948992 29.0283529,41.6396146 C43.9887574,54.6913382 58.3086103,54.4585089 58.3086103,54.4585089 C70.5915515,54.3417447 78.6239412,47.466639 85.9585,44.6698911 C93.2930588,41.8731431 100.045743,39.7748829 109.067949,43.0379886 L111.687434,41.4067854 C111.687434,41.4067854 113.492434,42.7471268 113.667066,43.5043463 C113.667066,43.5043463 115.122801,42.2227366 115.180081,41.0571919 C115.180081,41.0571919 116.111919,41.2900211 116.402507,41.9892081 C116.402507,41.9892081 117.624934,41.0571919 116.926404,39.9503789 C116.926404,39.9503789 119.255301,40.6495659 119.604566,43.2715171 C119.604566,43.2715171 122.224051,40.1832081 122.107397,35.0560699 C122.107397,35.0560699 122.863904,35.4049642 122.980559,36.3957122 C122.980559,36.3957122 123.40736,34.2289317 125.735559,32.0146065 L121.604456,30.4889805 C126.174235,31.2755659 128.248868,34.4149154 128.860081,33.3367691 C130.030118,31.2741675 132.52736,28.4424602 134.186368,26.4322976 C135.845375,24.422135 134.855559,23.7816797 134.855559,23.7816797 L130.315118,19.4697935 C130.315118,16.6730455 128.994199,13.5532732 128.994199,13.5532732" id="Stroke-15" stroke="#784E3D" stroke-width="0.525"/>
          <g id="Group-2" transform="translate(0.816176, 0.860488)">
            <path d="M120.738125,29.764974 C120.796801,29.6775756 124.329265,30.5368764 124.783309,31.3136732 C124.783309,31.3136732 122.634632,33.0371691 122.441838,34.4753967 C122.029007,37.5692992 122.17011,34.6376081 121.055956,34.1153154 C121.055956,34.1153154 121.820147,37.9167951 118.774559,42.3279659 C118.774559,42.3279659 117.625478,39.0166163 115.675184,38.899852 C115.675184,38.899852 117.089007,39.7262911 115.467721,41.2596081 C115.467721,41.2596081 115.245588,39.9269577 114.256471,40.1891528 C114.256471,40.1891528 113.634081,41.7993805 112.789559,42.7313967 C112.789559,42.7313967 111.527316,40.6590065 110.811324,40.6338358 L108.191838,42.265039 C108.191838,42.265039 102.337463,40.1891528 97.787243,40.6464211 C97.787243,40.6464211 105.048456,30.3096407 103.15614,23.2884049 L102.271801,25.670535 C102.271801,25.670535 102.556103,20.9615106 100.984412,17.9242423 L100.383676,19.7819821 C100.383676,19.7819821 100.311728,16.1217382 98.419412,14.0241772 C98.419412,14.0241772 98.457831,16.0287463 98.244779,16.7880634 C98.244779,16.7880634 97.338787,13.8388927 96.902206,13.1501935 C96.465625,12.4621935 95.679779,11.402226 95.123051,10.9764211 L94.817794,11.5882098 C94.817794,11.5882098 92.852831,8.4635431 88.934779,9.1522423 C84.5075,9.9297382 79.224522,12.6565675 77.026949,13.0851691 C74.560441,13.5655106 74.014191,13.4669252 74.014191,13.4669252 C74.014191,13.4669252 77.714301,11.6756081 78.292684,11.2386163 C78.292684,11.2386163 77.626985,10.9323724 77.114265,10.9764211 C77.114265,10.9764211 83.204743,7.82658374 85.692904,7.59655122 C85.62864,7.60354309 85.04886,7.0868439 83.695809,6.93442114 C83.695809,6.93442114 87.04875,4.8669252 89.460772,5.05290894 C89.460772,5.05290894 88.869118,4.62920163 87.963125,4.35581951 C87.90864,4.35581951 91.391507,3.2063561 93.923676,3.47903902 C96.455846,3.75242114 99.292574,4.63968943 100.984412,3.99573821 C102.67625,3.3510878 109.825,-0.90975772 115.925956,0.6962748 C122.02761,2.30230732 128.277353,7.6888439 128.277353,7.6888439 C128.277353,7.6888439 127.059118,7.40777073 126.731507,7.5385187 C126.731507,7.5385187 130.420441,10.8778358 130.649559,14.0899008 C130.649559,14.0899008 127.113603,12.254535 126.764338,12.1888114 L127.198125,13.5529252 C127.198125,13.5529252 123.697096,10.5170553 119.473088,8.0153642 C119.424191,7.98599837 119.451434,6.9365187 119.125221,6.80297398 C118.365919,6.49253496 116.977941,7.02741301 115.527794,6.55336423 C114.975257,6.3722748 113.496471,4.22017724 112.957206,4.07194959 C112.451471,3.93281138 112.46614,5.63533171 112.019081,5.60107154 C109.704853,5.4262748 109.06011,5.75699024 113.062684,9.0648439 C120.444743,14.6031041 120.330184,18.457722 120.613787,19.4407789 C120.613787,19.4407789 119.156654,18.4926813 118.436471,19.2247301 C118.436471,19.2247301 121.874632,23.0590715 120.950478,28.044974 C120.950478,28.044974 119.790221,27.057722 119.53875,26.9374618 L120.738125,29.764974" id="Fill-17" fill="#AC612A"/>
            <path d="M119.489783,8.1991106 C119.489783,8.1991106 124.694526,10.8602163 127.226695,13.6569642 L126.847393,12.2585902 C126.847393,12.2585902 129.466879,13.2199724 130.747982,14.2687528 C130.747982,14.2687528 130.108129,10.2190618 126.731438,7.53907805 C126.731438,7.53907805 127.691915,7.45167967 128.681033,8.0634683 C128.681033,8.0634683 120.663313,0.31088293 113.314085,0.28501301 C107.95846,0.26543577 104.873754,2.26580976 104.175224,2.5860374 C103.476695,2.90696423 101.001805,4.27597236 99.139526,4.18857398 C97.277246,4.10117561 92.386842,2.41124065 87.439158,4.42140325 C87.439158,4.42140325 89.040188,4.62556585 89.506107,5.09192358 C89.506107,5.09192358 87.497835,4.82902927 83.160665,7.1601187 C83.160665,7.1601187 85.402246,6.9559561 85.692835,7.59711057 C85.692835,7.59711057 80.56982,8.791322 76.204011,11.3552407 C76.204011,11.3552407 77.426438,11.0636797 78.416952,11.1224114 C78.272357,11.1175171 76.239636,12.5599398 74.63232,13.1032081 C70.063239,14.647013 64.300371,16.5697772 42.4713272,13.6569642 C20.6422831,10.743452 17.6735331,11.2678423 16.5097831,11.3258748 C15.3453346,11.3839073 13.9503713,11.9663301 12.5512169,12.841013 C10.4556287,14.2981187 2.4805184,18.4491919 0.8501507,27.5819724 C-0.912239,49.7811593 21.981364,36.3218098 28.1514743,40.8665252 C43.1111801,53.9182488 57.431732,53.6854195 57.431732,53.6854195 C69.713974,53.5686553 77.747062,46.6935496 85.081621,43.8968016 C92.41618,41.1000537 99.168864,39.0017935 108.191768,42.2648992 L110.811254,40.6336959 C110.811254,40.6336959 112.614857,41.9740374 112.789489,42.7312569 C112.789489,42.7312569 114.245224,41.4496472 114.303901,40.2841024 C114.303901,40.2841024 115.23504,40.5169317 115.526327,41.2161187 C115.526327,41.2161187 116.748754,40.2841024 116.050224,39.1772894 C116.050224,39.1772894 118.377724,39.8764764 118.726989,42.4984276 C118.726989,42.4984276 121.346474,39.4101187 121.230518,34.2829805 C121.230518,34.2829805 121.987724,34.6318748 122.10368,35.6226228 C122.10368,35.6226228 122.53118,33.4558423 124.859379,31.2415171 L120.728276,29.7158911 C125.297357,30.5024764 127.37129,33.641826 127.983202,32.5636797 C129.153239,30.501078 131.650482,27.6693707 133.309489,25.6592081 C134.968496,23.6490455 133.97868,23.0085902 133.97868,23.0085902 L129.438239,18.6967041 C129.438239,15.8999561 128.11732,12.7801837 128.11732,12.7801837" id="Stroke-19" stroke="#784E3D" stroke-width="0.525"/>
          </g>
        </g>
        <g id="Group" transform="translate(56.000000, 19.000000)">
          <path d="M29.9020037,66.0800098 L17.3284743,66.0800098 C10.8014154,53.0849203 11.1562684,54.6629854 8.4222243,49.7365138 C7.3304228,47.7704 4.3616728,43.7934244 4.5363051,41.4336683 C4.7109375,39.0739122 6.4970772,33.2035382 0.9528493,20.4874244 C-4.5920772,7.7706114 18.2889522,-1.8725756 23.1346507,0.836774 C27.9810478,3.5461236 37.5858272,14.1213268 32.8707537,22.8178146 C28.1556801,31.5136033 22.8727022,36.4079122 20.5591728,38.549522 C18.2456434,40.6904325 15.921636,43.3221724 15.4075184,44.8862537 C14.922739,46.3594407 15.0827022,46.3342699 20.1659007,57.383522 C21.3883272,60.0054732 21.0830699,59.6558797 22.4361213,59.5251317 C23.7898713,59.3936846 28.590864,58.9007577 28.590864,58.9007577 C28.590864,58.9007577 32.4341728,58.1267577 32.2162316,60.8361073 C32.0248346,63.2028553 31.1244301,65.075278 29.9020037,66.0800098" id="Fill-23" fill="#DCB285"/>
          <path d="M29.9020037,66.0800098 L17.3284743,66.0800098 C10.8014154,53.0849203 11.1562684,54.6629854 8.4222243,49.7365138 C7.3304228,47.7704 4.3616728,43.7934244 4.5363051,41.4336683 C4.7109375,39.0739122 6.4970772,33.2035382 0.9528493,20.4874244 C-1.4731434,14.9239935 8.096011,6.3274894 16.0159375,6.6630992 C26.1984007,7.0937984 38.4848346,9.8975382 32.8707537,22.8178146 C28.9275551,31.8911642 22.8727022,36.4079122 20.5591728,38.549522 C18.2456434,40.6904325 15.921636,43.3221724 15.4075184,44.8862537 C14.922739,46.3594407 15.0827022,46.3342699 20.1659007,57.383522 C21.3883272,60.0054732 21.0830699,59.6558797 22.4361213,59.5251317 C23.7898713,59.3936846 28.590864,58.9007577 28.590864,58.9007577 C28.590864,58.9007577 32.4341728,58.1267577 32.2162316,60.8361073 C32.0248346,63.2028553 31.1244301,65.075278 29.9020037,66.0800098 Z" id="Stroke-25" stroke="#784E3D" stroke-width="0.525"/>
          <path d="M25.7981434,61.7537902 C25.7981434,61.7537902 25.9140993,61.6594 26.132739,61.5167659 C26.2424081,61.446148 26.3772243,61.3622455 26.537886,61.2762455 C26.619614,61.2342943 26.7055331,61.1895463 26.7970404,61.1420016 C26.8885478,61.0944569 26.999614,61.0972537 27.1057904,61.0636927 C27.3223346,61.0133512 27.559136,60.9644081 27.8175919,60.9364407 C28.0725551,60.9021805 28.3491728,60.8854 28.6411581,60.907774 C28.9317463,60.9210585 29.2425919,60.9923756 29.5415625,61.1329122 C29.8335478,61.2916276 30.1080699,61.5475301 30.2372978,61.8677577 C30.2596507,61.9187984 30.2708272,61.9153024 30.3001654,62.0110911 L30.324614,62.1159691 L30.3756066,62.325026 C30.4203125,62.4515789 30.4070404,62.6417577 30.4140257,62.8018715 C30.4259007,62.9745707 30.3993566,63.1234976 30.3707169,63.2703268 C30.3441728,63.4185545 30.324614,63.5681805 30.2715257,63.701026 C30.2261213,63.8366683 30.1814154,63.970213 30.1374081,64.100961 C30.0794301,64.2240179 30.0221507,64.344278 29.9662684,64.4617415 C29.8635846,64.7022618 29.720386,64.897335 29.6086213,65.0917089 C29.5129228,65.2986683 29.3424816,65.4280179 29.2048713,65.5489772 C29.0721507,65.6734325 28.9415257,65.7664244 28.8381434,65.8447333 C28.6285846,65.9999528 28.5049449,66.0796602 28.5049449,66.0796602 C28.5049449,66.0796602 28.5692096,65.9426195 28.6893566,65.7174813 C28.7494301,65.6056114 28.8255699,65.4741642 28.8926287,65.3098553 C28.9275551,65.2308472 28.9645772,65.1455463 29.0043934,65.0560504 C29.0414154,64.9658553 29.1245404,64.9022293 29.1678493,64.807839 C29.2705331,64.6288472 29.4067463,64.4456602 29.4968566,64.2296114 C29.5471507,64.123335 29.5988419,64.0142618 29.6526287,63.9037902 C29.6903493,63.7884244 29.7301654,63.670961 29.7699816,63.5514 C29.8188787,63.4332374 29.8307537,63.3087821 29.8545037,63.1836276 C29.8796507,63.057774 29.9020037,62.9312211 29.8908272,62.818652 C29.8817463,62.6983919 29.9159743,62.5970098 29.8649816,62.4480829 L29.8160846,62.239026 L29.7909375,62.134148 C29.8000184,62.1614163 29.7692831,62.0984894 29.7602022,62.0852049 C29.672886,61.8656602 29.5010478,61.7146358 29.303364,61.5999691 C29.0903125,61.5034813 28.852114,61.4405545 28.6048346,61.4307659 C28.3603493,61.4118878 28.1130699,61.4251724 27.879761,61.4566358 C27.6471507,61.4811073 27.4257169,61.5279528 27.2238419,61.5747984 C27.1204596,61.5915789 27.0303493,61.637026 26.9332537,61.6461154 C26.8354596,61.6524081 26.7439522,61.6587008 26.656636,61.6649935 C26.4806066,61.681774 26.3276287,61.6964569 26.2004963,61.7090423 C25.9448346,61.7377089 25.7981434,61.7537902 25.7981434,61.7537902" id="Fill-27" fill="#784E3D"/>
        </g>
        <path d="M167.789629,10.9952049 C168.824849,11.4643593 169.785327,12.0908309 170.708085,12.7711398 C171.177496,13.1032537 171.566577,13.5297577 171.975217,13.9303919 C172.376173,14.3401154 172.756871,14.7708146 173.11382,15.2210911 C173.829114,16.1195463 174.454298,17.0963106 174.939776,18.1429935 C175.435732,19.1847821 175.771724,20.3020829 175.965217,21.4410585 L176.046246,21.9200016 L175.592202,21.7186358 C174.960732,21.438961 174.178379,21.2250098 173.589518,21.4361642 L173.685915,21.0131561 C173.970217,21.3333837 174.204923,21.6557089 174.433342,21.9955138 C174.65757,22.3353187 174.863636,22.6863106 175.052937,23.0456927 C175.24154,23.405774 175.40779,23.7770423 175.563562,24.1532049 L175.771724,24.7265382 C175.846467,24.9160179 175.889776,25.1159854 175.949849,25.3103593 C176.008526,25.5054325 176.060915,25.7019041 176.098636,25.9025707 C176.137754,26.101839 176.186651,26.3004081 176.218085,26.5010748 C176.269077,26.9052049 176.335437,27.3086358 176.341026,27.716961 C176.346614,27.9204244 176.371062,28.1238878 176.359187,28.3273512 L176.335437,28.9384407 C176.321467,29.3460667 176.241835,29.7474 176.197827,30.1515301 L176.128673,30.7780016 L175.731908,30.2661967 C175.586614,30.0781154 175.397312,29.8998228 175.217092,29.736213 C175.120695,29.6627984 175.034077,29.5733024 174.936982,29.5068797 C174.843379,29.4278715 174.742092,29.3817252 174.642901,29.3222943 L174.906945,29.0062618 C175.245732,29.6970585 175.51746,30.3997415 175.699776,31.1373837 C175.788489,31.5044569 175.861136,31.8792211 175.86882,32.2588797 C175.879996,32.446961 175.867423,32.6385382 175.843673,32.824522 C175.822717,33.0126033 175.767533,33.1929935 175.706761,33.3691886 C175.747974,33.1860016 175.782202,33.0049122 175.782901,32.8196276 C175.785695,32.6357415 175.778011,32.4511561 175.746577,32.2693675 C175.695585,31.9057902 175.598489,31.5492049 175.477643,31.2031073 C175.238048,30.5109122 174.903452,29.8417902 174.526945,29.2258065 L174.190952,28.674148 L174.792386,28.909774 C174.931393,28.9636114 175.079482,29.014652 175.200327,29.0915626 C175.334445,29.1586846 175.447607,29.2446846 175.560768,29.3334813 C175.779408,29.5187659 175.961026,29.7215301 176.147533,29.9466683 L175.682312,30.061335 C175.722827,29.6753837 175.799665,29.2929285 175.812239,28.9055789 L175.83529,28.3238553 C175.847165,28.1301805 175.822717,27.9365057 175.817827,27.7428309 C175.813636,27.3547821 175.748673,26.9716276 175.701173,26.5863756 C175.671136,26.3947984 175.623636,26.2067171 175.586614,26.0165382 C175.550989,25.824961 175.502092,25.6375789 175.444812,25.4522943 C175.387533,25.2670098 175.347018,25.0761317 175.275768,24.8950423 L175.076687,24.3475789 C174.927901,23.9881967 174.769335,23.6337089 174.589114,23.2890098 C174.408195,22.9457089 174.21121,22.6100992 173.99746,22.2863756 C173.783011,21.9668472 173.546908,21.6459203 173.30382,21.3711398 L173.043967,21.0774813 L173.400217,20.9474325 C173.831908,20.7894163 174.26779,20.8089935 174.668048,20.878213 C175.072496,20.9537252 175.444114,21.0746846 175.82132,21.2473837 L175.448305,21.524961 C175.261798,20.4349285 174.941871,19.3658715 174.465474,18.365335 C173.998857,17.3599041 173.396724,16.4174 172.703783,15.5476114 C172.35871,15.1120179 171.990585,14.6946033 171.600107,14.2960667 C171.219408,13.8877415 170.782827,13.5402455 170.394445,13.1368146 C169.596026,12.353026 168.724261,11.6363593 167.789629,10.9952049" id="Fill-21" fill="#784E3D"/>
        <path d="M147.765515,11.6653756 C148.162279,11.9198797 148.540882,12.2023512 148.906213,12.5037008 C149.08364,12.6610179 149.265956,12.8127415 149.429412,12.9875382 C149.603346,13.151148 149.74864,13.3434244 149.90511,13.5266114 L149.722096,13.5405951 L149.992426,12.9113268 L150.065772,12.740026 L150.21875,12.8658797 C150.69375,13.259522 151.103787,13.6993106 151.487279,14.1726602 C151.683566,14.4047902 151.851912,14.6599935 152.004191,14.9221886 C152.151581,15.1871805 152.305956,15.4493756 152.436581,15.7234569 C152.704118,16.2681236 152.936029,16.8323675 153.105074,17.4168878 C153.199375,17.7063512 153.26364,18.0035057 153.330699,18.299961 C153.399154,18.5964163 153.431287,18.8998634 153.482978,19.1991154 L152.988419,19.115213 C153.026838,19.0264163 153.071544,18.9082537 153.104375,18.7984813 C153.143493,18.6880098 153.166544,18.5698472 153.196581,18.4551805 C153.246176,18.2223512 153.291581,17.9867252 153.30625,17.7469041 C153.336287,17.5084813 153.328603,17.2672618 153.329301,17.0267415 C153.32511,16.7862211 153.286691,16.5464 153.269228,16.3065789 L153.203566,15.4360911 L153.729559,16.1010179 C153.837831,16.2373593 153.911875,16.3569203 153.994301,16.4876683 C154.07114,16.6170179 154.147279,16.7463675 154.21364,16.879213 C154.354044,17.1421073 154.472096,17.4133919 154.583162,17.686774 C154.8025,18.2356358 154.968051,18.801278 155.102169,19.3718146 C155.237684,19.9430504 155.323603,20.5226764 155.390662,21.1030016 C155.454926,21.684026 155.481471,22.267148 155.493346,22.8495707 L154.978529,22.7810504 L155.764375,19.9843024 L155.969044,19.257148 L156.25614,19.9493431 C156.546029,20.6471317 156.752794,21.3421236 156.928125,22.0573919 C157.099963,22.7705626 157.234081,23.4928228 157.315809,24.2213756 C157.398934,24.9499285 157.446434,25.6833756 157.435956,26.417522 C157.441544,26.7852943 157.412206,27.1509691 157.39614,27.5180423 C157.384963,27.8851154 157.301838,28.2465951 157.24386,28.6080748 L156.814963,28.4857171 C157.072721,27.9871967 157.322096,27.4781886 157.554007,26.9656846 C157.777537,26.4489854 158.02761,25.939278 158.15614,25.3869203 C158.131691,25.6693919 158.076507,25.950465 158.010147,26.2280423 C157.938199,26.503522 157.862059,26.7790016 157.775441,27.049587 C157.607794,27.5942537 157.423382,28.1312293 157.227096,28.6682049 L156.757684,29.9477171 L156.798199,28.5458472 C156.818456,27.8305789 156.923235,27.1271967 156.912059,26.414026 C156.922537,25.7022537 156.876434,24.9904813 156.794706,24.2829041 C156.715772,23.5753268 156.586544,22.8733431 156.419596,22.1818472 C156.25125,21.4938472 156.043088,20.7995545 155.778346,20.1625951 L156.269412,20.1269366 L155.483566,22.9236846 L155.005074,24.6241073 L154.969449,22.854465 C154.957574,22.2881236 154.931728,21.7217821 154.870257,21.1596358 C154.805294,20.5974894 154.722169,20.0381398 154.591544,19.4899772 C154.463015,18.9418146 154.304449,18.4013431 154.096985,17.8818472 C153.990809,17.623148 153.880441,17.3665463 153.749118,17.1225301 C153.625478,16.8799122 153.475294,16.6296033 153.327206,16.4359285 L153.787537,16.2310667 C153.808493,16.490465 153.84761,16.7498634 153.8525,17.0113593 C153.853199,17.2728553 153.860184,17.5343512 153.827353,17.795148 C153.810588,18.0566439 153.761691,18.3160423 153.707206,18.5733431 C153.673676,18.7012943 153.648529,18.8306439 153.603125,18.9578959 C153.56261,19.0872455 153.521397,19.2061073 153.457132,19.3459447 L153.110662,20.1122537 L152.962574,19.2620423 C152.912978,18.9774732 152.882941,18.6887089 152.817279,18.4076358 C152.753713,18.1258634 152.69364,17.8426927 152.603529,17.5679122 C152.443566,17.0120585 152.222132,16.4750829 151.967868,15.9562862 C151.724779,15.4290992 151.388088,14.957148 151.086324,14.4621236 C150.777574,13.9740911 150.423419,13.4986439 150.027353,13.0868228 L150.253676,13.0413756 L149.912794,13.6356846 L149.828971,13.7818146 L149.730478,13.6489691 C149.592169,13.4650829 149.466434,13.2714081 149.306471,13.1008065 C149.158382,12.9211154 148.993529,12.7561073 148.830074,12.5876033 C148.494081,12.2610829 148.140625,11.9506439 147.765515,11.6653756" id="Fill-29" fill="#784E3D"/>
        <g id="Group-45" transform="translate(165.551471, 0.041951)">
          <g id="Fill-43-Clipped">
            <mask id="mask-2" fill="white">
              <use xlink:href="#path-1"/>
            </mask>
            <g id="path-1"/>
            <path d="M9.06376838,11.6234244 C9.06376838,11.6234244 8.9953125,11.289213 8.8765625,10.7053919 C8.82207721,10.4131317 8.75571691,10.0572455 8.67887868,9.64961951 C8.64045956,9.4461561 8.59924632,9.22940813 8.5559375,9.00077398 C8.51542279,8.77144065 8.51821691,8.52532683 8.48678309,8.27222114 C8.39178309,7.25700163 8.28071691,6.07327805 8.16196691,4.80425366 C8.08582721,4.18757073 7.96428309,3.54781463 7.74634191,2.95000976 C7.52770221,2.35779837 7.19170956,1.78586341 6.68527574,1.46843252 C6.43310662,1.3139122 6.15020221,1.20833496 5.84773897,1.19505041 C5.78068015,1.19225366 5.67869485,1.17687154 5.64097426,1.18176585 L5.38880515,1.20413984 C5.21766544,1.22161951 5.11847426,1.26846504 4.97597426,1.31041626 C4.43042279,1.53205854 4.00641544,2.00331057 3.70185662,2.52420488 C3.38821691,3.04370081 3.17237132,3.60794472 2.98935662,4.15121301 C2.89854779,4.43018862 2.80983456,4.70077398 2.72461397,4.96296911 C2.63590074,5.22026992 2.56954044,5.45939187 2.50248162,5.70690407 C2.39211397,6.20053008 2.23913603,6.6508065 2.04913603,7.04374959 C1.95204044,7.23952195 1.86193015,7.42830244 1.68659926,7.58352195 C1.61534926,7.67022114 1.43023897,7.70168455 1.37295956,7.68979837 C1.29123162,7.69119675 1.21229779,7.69259512 1.13685662,7.6939935 C0.820422794,7.66253008 0.584319853,7.59750569 0.434136029,7.5485626 C0.280459559,7.50521301 0.200827206,7.47235122 0.200827206,7.47235122 C0.200827206,7.47235122 0.286047794,7.48773333 0.4453125,7.49682276 C0.605974265,7.51430244 0.835091912,7.51570081 1.1103125,7.5003187 C1.24792279,7.45696911 1.45748162,7.46675772 1.4903125,7.37516423 C1.56924632,7.27518049 1.63141544,7.09479024 1.68170956,6.90670894 C1.7753125,6.52145691 1.84097426,6.06069268 1.99674632,5.5705626 C2.06240809,5.32654634 2.13854779,5.05316423 2.23005515,4.79166829 C2.31457721,4.53087154 2.40189338,4.26168455 2.49270221,3.98410732 C2.68270221,3.42335935 2.90693015,2.82765203 3.25340074,2.2543187 C3.58799632,1.68518049 4.07696691,1.11184715 4.78387868,0.823082927 C4.95641544,0.762253659 5.17924632,0.695131707 5.34200368,0.681847154 L5.59347426,0.659473171 C5.72409926,0.65038374 5.79045956,0.669261789 5.89244485,0.672757724 C6.26685662,0.690237398 6.64266544,0.824481301 6.96538603,1.02514797 C7.62130515,1.44186341 7.99571691,2.12077398 8.23810662,2.76822114 C8.47770221,3.42895285 8.60134191,4.09318049 8.68167279,4.73922927 C8.80042279,6.00755447 8.91148897,7.19197724 9.00648897,8.20719675 C9.02325368,8.46170081 9.07215074,8.70152195 9.07354779,8.93574959 C9.07424632,9.16927805 9.07494485,9.39161951 9.07494485,9.59997724 C9.07494485,10.0173919 9.07634191,10.3809691 9.07634191,10.6802211 C9.06795956,11.2808228 9.06376838,11.6234244 9.06376838,11.6234244" id="Fill-43" fill="#784E3D" mask="url(#mask-2)"/>
          </g>
          <path d="M2.729294,4.6944116 C3.046426,3.11634656 4.101904,0.698557943 5.848228,0.917403472 C6.891132,1.04745225 8.409036,2.15566363 8.573191,6.64164737 C8.694735,9.9599888 7.914478,11.1597937 5.092419,11.1514035 C3.971279,11.1479075 1.834478,9.15172867 2.729294,4.6944116" id="Fill-31" fill="#BB8E5D"/>
          <path d="M17.293353,20.9313514 L14.499235,20.4069612 L12.141698,16.7145547 L16.23997,17.8940831 C16.23997,17.8940831 17.234676,20.0867336 17.293353,20.9313514" id="Fill-33" fill="#FBF3ED"/>
          <path d="M21.419007,27.1803352 C21.419007,27.1803352 20.371213,26.3504002 20.589853,24.741571 C20.774264,23.3781563 21.397353,22.8104165 23.499926,25.0317336 C24.252242,25.82601 23.29875,26.9705791 22.899191,27.4495222 C22.499632,27.9284653 22.073529,27.6606766 21.419007,27.1803352" id="Fill-35" fill="#311A14"/>
          <path d="M17.293353,20.9313514 L16.660485,18.2220018 C16.660485,18.2220018 16.694713,17.9654002 15.241073,17.5228149 C13.735044,17.0641482 12.141698,16.7145547 12.141698,16.7145547 L14.499235,20.4069612 L17.293353,20.9313514 Z" id="Stroke-37" stroke="#311A14" stroke-width="0.5"/>
          <path d="M15.568823,20.4834523 C15.568823,20.4834523 14.848639,20.0031108 15.001617,18.8886067 C15.07636,18.3418425 15.67011,17.7440376 16.24011,17.8936636 C16.948419,18.0796474 17.293492,20.9316311 17.293492,20.9316311 L15.079853,20.5156149" id="Fill-39" fill="#311A14"/>
          <path d="M12.309485,26.160571 C12.309485,26.160571 12.31647,26.3283758 12.403786,26.5912701 C12.444301,26.7227173 12.512757,26.8751401 12.595882,27.0408474 C12.679705,27.2093514 12.819411,27.3687661 12.901838,27.577823 C13.007316,27.7749937 13.140036,27.9833514 13.308382,28.1847173 C13.467647,28.3909775 13.662536,28.5930425 13.876286,28.7874165 C14.302389,29.1866523 14.811617,29.5320506 15.36136,29.8697579 C15.906213,30.2095628 16.450367,30.5472701 16.968676,30.8388311 C17.485588,31.1282945 17.982242,31.3716116 18.403455,31.4736929 C18.505441,31.4960669 18.607426,31.5093514 18.696139,31.5100506 C18.785551,31.5324246 18.87147,31.5499043 18.953897,31.5499043 C19.11875,31.5575953 19.269632,31.5128474 19.391875,31.4576116 C19.510625,31.3974815 19.609117,31.3443433 19.669191,31.2967986 C19.733455,31.253449 19.767683,31.2296766 19.767683,31.2296766 C19.756507,31.2226848 19.715992,31.3897905 19.513419,31.6205222 C19.410735,31.7323921 19.259154,31.8645384 19.039816,31.9512376 C18.930147,31.9952864 18.807904,32.0323433 18.677279,32.0414327 C18.545955,32.0435303 18.418823,32.0057742 18.286801,31.9847986 C17.766397,31.8568474 17.246691,31.5939531 16.713014,31.2960994 C16.180036,30.9968474 15.630294,30.6549449 15.084044,30.3144409 C14.537794,29.9795303 13.976875,29.6012701 13.520735,29.1733677 C13.289522,28.9629124 13.077867,28.7419693 12.899044,28.5119368 C12.713235,28.288197 12.561654,28.0539693 12.44011,27.8267336 C12.286433,27.6148799 12.266176,27.3582783 12.227058,27.1548149 C12.199117,26.9450588 12.199117,26.7611726 12.210992,26.6122457 C12.238235,26.3129937 12.309485,26.160571 12.309485,26.160571" id="Fill-41" fill="#23110A"/>
          <path d="M3.088128,3.1508864 C3.088128,3.1508864 0.681694,10.953114 5.702025,11.2299921 C8.718974,11.3963986 8.647724,6.90621973 8.534562,5.7308864" id="Stroke-46" stroke="#784E3D" stroke-width="0.525"/>
        </g>
        <g id="Group-51" transform="translate(0.000000, 23.814309)">
          <path d="M56.9526397,2.03316585 C56.9526397,2.03316585 42.1563897,20.7126455 24.9544044,20.4511496 C6.70602206,19.3142715 4.39249265,6.07376748 4.13054412,4.28175122 C3.86859559,2.49043415 3.69396324,0.480271545 2.12227206,0.655068293 C0.550580882,0.829865041 -1.37526471,6.91279187 2.68528676,13.7732146 C6.74513971,20.6343366 17.4026029,25.3811171 24.9991103,25.3447593 C33.8613529,25.2140114 45.4667206,22.5046618 56.9526397,12.2350033" id="Fill-48" fill="#DCB285"/>
          <path d="M56.9526397,2.03316585 C56.9526397,2.03316585 42.1563897,20.7126455 24.9544044,20.4511496 C6.70602206,19.3142715 4.39249265,6.07376748 4.13054412,4.28175122 C3.86859559,2.49043415 3.69396324,0.480271545 2.12227206,0.655068293 C0.550580882,0.829865041 -1.37526471,6.91279187 2.68528676,13.7732146 C6.74513971,20.6343366 17.4026029,25.3811171 24.9991103,25.3447593 C33.8613529,25.2140114 45.4667206,22.5046618 56.9526397,12.2350033" id="Stroke-50" stroke="#784E3D" stroke-width="0.525"/>
        </g>
        <g id="Group-55" transform="translate(119.448529, 37.098862)">
          <path d="M12.4322868,0.0431398374 C11.6548235,6.68541626 2.77092647,13.545839 2.77092647,13.545839 C3.63640441,17.9157577 2.30500735,24.9754488 1.40111029,34.0411073 C0.956845588,38.4935301 0.167507353,42.830587 0.0264044118,44.4415138 C-0.205507353,47.0816439 2.55857353,47.9814976 2.55857353,47.9814976 L12.9876176,47.9814976 C16.0925809,47.9814976 18.5283529,44.9540179 18.0575441,42.1258065 C17.7955956,40.5526358 17.3646029,40.4246846 13.6477279,41.0329772 C9.10728676,41.776213 8.66791176,40.0708959 8.58338971,39.5038553 C8.62460294,38.1760992 9.42721324,34.4927821 14.4461471,23.072961 C19.4643824,11.6524407 30.4019559,0.815042276 30.4019559,0.815042276" id="Fill-52" fill="#DCB285"/>
          <path d="M12.4322868,0.0431398374 C11.6548235,6.68541626 2.77092647,13.545839 2.77092647,13.545839 C3.63640441,17.9157577 2.30500735,24.9754488 1.40111029,34.0411073 C0.956845588,38.4935301 0.167507353,42.830587 0.0264044118,44.4415138 C-0.205507353,47.0816439 2.55857353,47.9814976 2.55857353,47.9814976 L12.9876176,47.9814976 C16.0925809,47.9814976 18.5283529,44.9540179 18.0575441,42.1258065 C17.7955956,40.5526358 17.3646029,40.4246846 13.6477279,41.0329772 C9.10728676,41.776213 8.66791176,40.0708959 8.58338971,39.5038553 C8.62460294,38.1760992 9.42721324,34.4927821 14.4461471,23.072961 C19.4643824,11.6524407 30.4019559,0.815042276 30.4019559,0.815042276" id="Stroke-54" stroke="#784E3D" stroke-width="0.525"/>
          <path d="M13.38592,42.5774811 C13.38592,42.5774811 13.520736,42.4886843 13.773603,42.3607331 C13.89864,42.2964079 14.054412,42.2222941 14.240221,42.150977 C14.422537,42.0698713 14.639081,41.9971559 14.887758,41.9971559 C15.132942,41.9740827 15.405368,41.9670908 15.70364,42.0083429 C15.99353,42.0600827 16.360258,42.1558713 16.606839,42.4956762 C16.861103,42.8522616 16.783567,43.2459039 16.72978,43.5822128 C16.64875,43.8828632 16.593567,44.1800177 16.488089,44.4911559 C16.395883,44.8022941 16.289008,45.1092372 16.149302,45.4007982 C16.038236,45.7028469 15.837758,45.9622453 15.685478,46.2307331 C15.480111,46.4614648 15.313162,46.7194648 15.093824,46.8977575 C14.880074,47.0788469 14.694265,47.2788144 14.484706,47.4018713 C14.296103,47.5563917 14.087243,47.6479852 13.900736,47.7151071 C13.712133,47.7731396 13.546581,47.8234811 13.411765,47.8647331 C13.141434,47.9451396 12.987758,47.9814973 12.987758,47.9814973 C12.987758,47.9814973 13.107905,47.8703266 13.319559,47.6920339 C13.425736,47.6046356 13.552868,47.4990583 13.699559,47.3773998 C13.833677,47.23966 13.976875,47.0844404 14.177353,46.9774648 C14.374339,46.8627982 14.535699,46.6831071 14.731287,46.5194973 C14.931765,46.3586843 15.07217,46.129351 15.259375,45.9265868 C15.391397,45.6839689 15.573015,45.4616274 15.673603,45.1819526 C15.800736,44.91766 15.899228,44.6344892 15.985147,44.3464242 C16.081545,44.065351 16.143015,43.7465217 16.222647,43.4528632 C16.261765,43.2018551 16.298089,42.9305705 16.176545,42.7949282 C16.074559,42.6460014 15.853125,42.5648957 15.626103,42.5264404 C15.392795,42.494977 15.153897,42.4977738 14.933861,42.5194486 C14.822795,42.5180502 14.719412,42.5627982 14.616728,42.5565055 C14.51125,42.5481152 14.412059,42.5516112 14.317758,42.5488144 C14.127059,42.5523104 13.960809,42.5551071 13.823897,42.5579039 C13.545883,42.5704892 13.38592,42.5774811 13.38592,42.5774811" id="Fill-56" fill="#784E3D"/>
        </g>
        <path d="M57.3468897,39.3706602 C57.3468897,39.3706602 54.3334338,36.2306114 56.0923309,33.0667902 C57.8519265,29.9036683 69.5264485,24.4584 69.5264485,24.4584 L89.3129926,23.0565301 L96.5804926,28.0829854 C96.5804926,28.0829854 91.6907868,34.6951967 87.1503456,37.141652 C82.6099044,39.5888065 57.3468897,39.3706602 57.3468897,39.3706602" id="Fill-58" fill="#DCB285"/>
      </g>
    </g>
  </g>
</svg>