<svg width="420px" height="300px" viewBox="0 0 420 300" version="1.1" xml:space="preserve" xmlns="http://www.w3.org/2000/svg" xmlns:xlink="http://www.w3.org/1999/xlink">
  <!-- Generator: Sketch 49.3 (51167) - http://www.bohemiancoding.com/sketch -->
  <defs/>
  <g>
    <title>dragon-a</title>
    <desc>Created with Sketch.</desc>
    <g id="dragon-a" stroke="none" stroke-width="1" fill="none" fill-rule="evenodd">
      <g id="Dragon-Neutral" transform="translate(187.500000, 150.000000) scale(-1, 1) translate(-187.500000, -150.000000) translate(24.000000, 11.000000)" fill-rule="nonzero">
        <g id="Neutral">
          <g id="Group">
            <g transform="translate(122.000000, 129.000000)" id="Shape">
              <g>
                <path d="M7,16 C-3.2,31.6 -1.3,62.9 13.2,69.3 C27.7,75.7 44.9,84.7 51.3,87.6 C57.6,90.4 58.5,93.3 63.9,120.5 C65.3,127.3 74.3,137.4 74.5,122.7 C74.5,119.8 75,97.5 72,90 C66.4,76.3 60.4,77.7 55.9,73.9 C50.2,69.2 44.3,60.5 51.9,45.8 C66.3,17.8 32.3,-22.6 7,16 Z" fill="#69B229"/>
                <path d="M64,125.7 C63.3,127.6 59.3,130.5 57.6,131 C55.9,131.5 55.3,129.8 53,130.9 C50.8,132 51.1,134.2 52.5,135.2 C53.9,136.2 54.3,136 55.1,135.8 C55.1,135.8 55.1,136.7 55.8,137.6 C56.7,138.7 58,138.6 59,137.8 C60,137 60.5,137.1 60.5,137.1 C60.5,137.1 60.5,138.9 61.7,139.6 C63.4,140.6 64.5,139.8 65.6,137.9 C66.7,136 68.5,135.3 71.6,134.6 C73.8,134.1 75.7,129.9 75.2,125.6 C74.5,119.4 74.4,115.5 70.6,114.7 C59.6,112.3 65.2,122.3 64,125.7 Z" fill="#69B229"/>
                <path d="M55.1,135.8 C55.1,135.8 55.1,135.6 55.1,135.3 C55.1,135.1 55.1,135 55.2,134.7 C55.3,134.5 55.3,134.2 55.5,134 C55.8,133.5 56.3,133 57,132.8 C57.3,132.7 57.7,132.6 58.1,132.6 C58.5,132.6 58.8,132.6 59.1,132.5 C59.7,132.4 60.4,132.2 61,131.9 C61.6,131.6 62.1,131.4 62.5,131.1 C62.9,130.8 63.3,130.5 63.5,130.3 C63.7,130.1 63.8,130 63.8,130 C63.8,130 63.7,130.2 63.6,130.4 C63.4,130.7 63.2,131 62.8,131.4 C62.4,131.8 61.9,132.1 61.3,132.5 C60.7,132.8 60,133.1 59.3,133.2 C58.9,133.2 58.6,133.2 58.2,133.2 C57.9,133.2 57.6,133.3 57.3,133.3 C57,133.4 56.7,133.5 56.5,133.7 C56.3,133.9 56.1,134 55.9,134.2 C55.6,134.6 55.4,135 55.4,135.3 C55.1,135.6 55.1,135.8 55.1,135.8 Z" fill="#519B3D"/>
                <path d="M60.5,137.1 C60.5,137.1 60.3,136.5 60.6,135.7 C60.7,135.3 61,134.8 61.4,134.5 C61.6,134.3 61.8,134.1 62.1,134 C62.3,133.8 62.6,133.7 62.9,133.6 C63.9,133.2 65,132.9 65.7,132.7 C66.5,132.4 66.9,132.1 66.9,132.1 C66.9,132.1 66.8,132.2 66.7,132.4 C66.5,132.6 66.3,132.8 65.9,133 C65.2,133.4 64.1,133.8 63.2,134.2 C62.2,134.6 61.4,135.2 61.1,135.9 C60.9,136.2 60.8,136.5 60.7,136.8 C60.5,137 60.5,137.1 60.5,137.1 Z" fill="#519B3D"/>
                <path d="M61.1,141.2 C61.1,141.2 60.1,137 62.2,137.4 C63.5,137.6 63,138.5 62.3,139.2 C61.7,139.8 61.3,140 61.1,141.2 Z" fill="#A1AF93"/>
                <path d="M55.1,139.5 C55.1,139.5 54.8,135.2 56.9,135.9 C58.2,136.4 57.5,137.1 56.7,137.7 C55.9,138.3 55.5,138.4 55.1,139.5 Z" fill="#A1AF93"/>
                <path d="M50.3,136.6 C50.3,136.6 51.5,132.4 53.1,133.8 C54.1,134.6 53.3,135.1 52.4,135.4 C51.4,135.7 51,135.7 50.3,136.6 Z" fill="#A1AF93"/>
                <path d="M49,63.9 C49,63.9 48.8,63.6 48.7,63 C48.5,62.4 48.3,61.5 48.3,60.4 C48.2,59.9 48.2,59.3 48.2,58.6 C48.2,58 48.2,57.3 48.3,56.6 C48.4,55.9 48.4,55.2 48.6,54.5 C48.7,53.8 48.9,53.1 49,52.4 C49.2,51.7 49.4,51 49.6,50.3 C49.8,49.6 50,49 50.3,48.3 C50.5,47.7 50.8,47.1 51,46.5 C51.3,45.9 51.5,45.4 51.7,44.9 C52.1,43.9 52.6,43.1 52.9,42.6 C53.2,42.1 53.4,41.7 53.4,41.7 C53.4,41.7 53.3,42 53,42.6 C52.8,43.2 52.4,44 52,45 C51.8,45.5 51.6,46 51.4,46.6 C51.2,47.2 51,47.8 50.8,48.4 C50.6,49 50.4,49.7 50.2,50.4 C50,51.1 49.8,51.8 49.7,52.5 C49.5,53.2 49.4,53.9 49.2,54.6 C49,55.3 49,56 48.9,56.6 C48.7,57.9 48.6,59.2 48.7,60.2 C48.7,61.3 48.8,62.2 48.9,62.8 C48.9,63.6 49,63.9 49,63.9 Z" fill="#519B3D"/>
              </g>
              <path d="M47.9,86.1 C47.9,86.1 48.3,86.2 49.1,86.5 C49.9,86.8 51,87.2 52.2,87.9 C52.8,88.2 53.5,88.6 54.2,89 C54.5,89.2 54.9,89.5 55.2,89.8 C55.5,90.1 55.7,90.5 56,90.9 C57,92.4 57.8,94.1 58.4,95.9 C59,97.7 59.5,99.5 60,101.2 C60.4,102.9 60.8,104.5 61.1,105.9 C61.4,107.3 61.6,108.4 61.7,109.2 C61.8,110 61.9,110.5 61.9,110.5 C61.9,110.5 61.4,108.7 60.7,106 C60.4,104.6 59.9,103.1 59.4,101.4 C58.9,99.7 58.4,97.9 57.8,96.2 C57.2,94.5 56.5,92.7 55.5,91.3 C55.3,91 55,90.6 54.8,90.3 C54.6,90 54.2,89.8 53.9,89.5 C53.3,89 52.6,88.7 52,88.3 C50.8,87.6 49.7,87.1 49,86.7 C48.4,86.3 47.9,86.1 47.9,86.1 Z" fill="#519B3D"/>
            </g>
            <g transform="translate(67.000000, 0.000000)" id="Shape">
              <path d="M173,58.7 C163.5,55 133.3,55.6 148.2,97.4 C148.2,97.4 107.7,80.4 112.2,123.9 C112.2,123.9 52.9,91 22.7,129.2 C22.7,129.2 45.7,66.3 18.2,34.2 C18.2,34.2 34.5,-5.2 97.8,5.8 C127.5,11.1 173,58.7 173,58.7 Z" fill="#A1C380"/>
              <path d="M0.7,134.2 C0.7,134.2 31.2,101.1 27.1,80.6 C23,60.1 2.1,37.2 4.3,25.2 C6.5,13.2 14.3,3.9 24.4,5.1 C24.4,5.1 12.1,7.6 13.9,18.1 C13.9,18.1 54.1,-2.9 93.6,0.6 C124.7,3.4 179.2,64.4 179.2,64.4 C179.2,64.4 114.6,10.6 91.4,9.3 C68.1,8 29.8,16.1 26.2,26.3 C26.2,26.3 74.4,12.2 89.3,23.1 C104.1,34 128.5,55.6 151.4,102.7 C151.4,102.7 103.6,38.5 85.5,32.5 C67.4,26.5 28,35.6 28,35.6 C28,35.6 78,42.1 92.1,69.6 C106.2,97.1 114.6,129.7 114.6,129.7 C114.6,129.7 86.8,66.8 66.5,57.6 C47,48.7 29.2,45.5 29.2,45.5 C29.2,45.5 42.1,71.4 38.7,91.7 C35,114.4 23.9,121.3 20.3,136.6 C18,146.7 -0.5,142.5 0.7,134.2 Z" fill="#69B229"/>
              <path d="M3.4,131.2 C3.4,131.2 7.1,126.9 12,120 C14.4,116.5 17.2,112.4 19.7,107.8 C22.3,103.2 24.7,98.1 26.2,92.7 C26.9,90 27.3,87.2 27.1,84.5 C26.8,81.8 26.2,79.1 25.5,76.6 C24,71.6 22.1,67 20.3,63.2 C16.7,55.6 13.7,50.8 13.7,50.8 C13.7,50.8 14.5,52 15.7,54.1 C17,56.2 18.7,59.3 20.6,63.1 C22.5,66.9 24.5,71.4 26,76.5 C26.7,79 27.4,81.7 27.7,84.5 C27.9,87.3 27.5,90.2 26.8,92.9 C25.3,98.4 22.8,103.5 20.2,108.1 C17.6,112.7 14.8,116.8 12.3,120.2 C9.8,123.6 7.6,126.4 6,128.3 C4.4,130.2 3.4,131.2 3.4,131.2 Z" fill="#519B3D"/>
              <path d="M24.5,35.1 C24.5,35.2 25.3,35.3 26.7,35.4 C28.1,35.6 30.1,35.8 32.4,36.2 C34.8,36.6 37.5,37.1 40.4,37.8 C43.3,38.5 46.4,39.3 49.4,40.2 C52.4,41.2 55.5,42.2 58.2,43.3 C61,44.4 63.5,45.5 65.7,46.6 C67.9,47.6 69.6,48.6 70.8,49.2 C72,49.9 72.7,50.3 72.7,50.3 C72.7,50.3 72,49.9 70.7,49.3 C69.5,48.7 67.6,47.9 65.5,46.9 C63.3,45.9 60.7,44.9 58,43.8 C55.2,42.7 52.2,41.7 49.2,40.8 C46.2,39.8 43.1,39 40.2,38.3 C37.3,37.6 34.6,37 32.3,36.5 C30,36 28,35.7 26.6,35.4 C25.3,35.3 24.5,35.2 24.5,35.1 Z" fill="#519B3D"/>
              <path d="M23.3,27.2 C23.3,27.2 24.1,26.9 25.5,26.4 C26.9,25.9 28.9,25.3 31.4,24.6 C32.6,24.2 34,23.9 35.4,23.5 C36.8,23.2 38.3,22.8 39.9,22.5 C43,21.8 46.3,21.2 49.7,20.7 C51.4,20.4 53.1,20.2 54.7,20 C56.4,19.8 58,19.6 59.6,19.5 C61.2,19.3 62.7,19.3 64.2,19.2 C65.7,19.1 67,19.1 68.3,19 C69.6,19 70.7,18.9 71.8,18.9 C72.8,18.9 73.7,18.9 74.5,19 C76,19 76.8,19.1 76.8,19.1 C76.8,19.1 76,19.1 74.5,19.2 C73.8,19.2 72.9,19.2 71.8,19.3 C70.8,19.4 69.6,19.4 68.3,19.5 C67,19.6 65.7,19.6 64.2,19.8 C62.8,19.9 61.2,20 59.7,20.2 C58.1,20.4 56.5,20.5 54.8,20.8 C53.2,21 51.5,21.2 49.8,21.5 C46.5,22 43.1,22.6 40,23.2 C36.9,23.8 34,24.5 31.6,25.1 C29.1,25.7 27.1,26.3 25.7,26.7 C24.1,26.9 23.3,27.2 23.3,27.2 Z" fill="#519B3D"/>
              <path d="M13.9,18.2 C13.9,18.2 15,17.6 16.9,16.7 C17.8,16.2 19,15.7 20.3,15.1 C21.6,14.5 23.1,13.8 24.8,13.1 C26.5,12.4 28.3,11.7 30.2,10.9 C32.1,10.1 34.2,9.4 36.3,8.7 C38.5,8 40.7,7.3 42.9,6.6 C45.2,5.9 47.5,5.2 49.8,4.7 C51,4.4 52.1,4.1 53.3,3.8 C54.5,3.6 55.6,3.3 56.8,3.1 C58,2.9 59.1,2.6 60.3,2.4 C61.4,2.2 62.6,2 63.7,1.8 C64.8,1.6 65.9,1.4 67,1.3 C68.1,1.2 69.1,1.1 70.2,0.9 C71.2,0.8 72.2,0.7 73.2,0.6 C74.2,0.5 75.1,0.5 76,0.4 C77.8,0.3 79.5,0.2 80.9,0.1 C82.4,0.1 83.6,0.1 84.7,0.1 C86.8,0.1 88,0.1 88,0.1 C88,0.1 86.8,0.1 84.7,0.2 C83.6,0.2 82.4,0.3 80.9,0.3 C79.4,0.4 77.8,0.6 76,0.7 C75.1,0.8 74.2,0.8 73.2,1 C72.2,1.1 71.2,1.3 70.2,1.4 C69.2,1.5 68.1,1.7 67.1,1.8 C66,2 64.9,2.2 63.8,2.4 C62.7,2.6 61.6,2.8 60.4,3 C59.3,3.2 58.1,3.5 57,3.7 C55.8,3.9 54.7,4.2 53.5,4.5 C52.3,4.8 51.2,5.1 50,5.4 C47.7,5.9 45.4,6.6 43.1,7.3 C40.8,7.9 38.6,8.7 36.5,9.3 C34.4,10.1 32.3,10.7 30.4,11.4 C28.5,12.1 26.6,12.8 25,13.5 C21.6,14.8 18.9,16 17,16.9 C15,17.6 13.9,18.2 13.9,18.2 Z" fill="#519B3D"/>
              <path d="M21.5,134.3 C21.5,134.3 21.5,134.1 21.5,133.7 C21.5,133.3 21.6,132.7 21.8,131.9 C22.1,130.4 22.9,128.2 24.1,125.8 C24.7,124.6 25.4,123.3 26.2,121.9 C27,120.6 27.8,119.1 28.7,117.7 C30.5,114.9 32.1,111.6 33.5,108.3 C34.9,105 36.1,101.6 36.9,98.3 C37.8,95 38.4,92 38.8,89.3 C39.2,86.6 39.3,84.4 39.3,82.8 C39.3,82 39.2,81.4 39.2,81 C39.2,80.6 39.1,80.4 39.1,80.4 C39.1,80.4 39.1,80.6 39.2,81 C39.3,81.4 39.3,82 39.4,82.8 C39.5,84.4 39.5,86.7 39.1,89.3 C38.8,92 38.2,95.1 37.4,98.4 C36.5,101.7 35.4,105.1 34,108.5 C32.6,111.8 30.9,115.1 29.1,117.9 C28.2,119.3 27.3,120.7 26.5,122 C25.7,123.3 25,124.6 24.4,125.8 C23.8,127 23.3,128.1 22.8,129.1 C22.4,130.1 22.1,131 21.9,131.8 C21.7,132.6 21.6,133.2 21.6,133.6 C21.5,134.1 21.5,134.3 21.5,134.3 Z" fill="#519B3D"/>
              <path d="M26.6,42.2 C26.6,42.2 26.8,42.3 27,42.6 C27.3,42.9 27.6,43.3 28,43.8 C28.8,44.9 29.7,46.4 30.4,48 C31.1,49.6 31.8,51.2 32.1,52.5 C32.3,53.1 32.4,53.7 32.5,54 C32.6,54.4 32.6,54.6 32.6,54.6 C32.6,54.6 32.5,54.4 32.3,54.1 C32.1,53.8 31.9,53.3 31.7,52.7 C31.2,51.5 30.5,49.9 29.7,48.3 C29,46.7 28.2,45.2 27.5,44.1 C27.2,43 26.6,42.2 26.6,42.2 Z" fill="#519B3D"/>
              <path d="M26.2,26.3 C26.2,26.3 26.2,25.9 26.5,25.4 C26.6,25.1 26.8,24.8 27.1,24.5 C27.3,24.1 27.7,23.8 28,23.4 C28.4,23 28.8,22.6 29.3,22.3 C29.8,21.9 30.3,21.5 30.8,21.2 C31.3,20.8 31.9,20.5 32.5,20.1 C33.1,19.8 33.7,19.4 34.3,19.1 C34.9,18.8 35.6,18.5 36.2,18.2 C36.8,17.9 37.5,17.7 38.1,17.4 C39.3,16.9 40.5,16.6 41.4,16.2 C42.4,15.9 43.2,15.7 43.8,15.5 C44.4,15.3 44.7,15.3 44.7,15.3 C44.7,15.3 43.4,15.8 41.5,16.6 C40.5,17 39.4,17.4 38.2,17.9 C37.6,18.2 37,18.4 36.4,18.7 C35.8,19 35.2,19.3 34.6,19.6 C34,19.9 33.4,20.2 32.8,20.5 C32.2,20.8 31.6,21.2 31.1,21.5 C30.6,21.9 30,22.2 29.6,22.5 C29.1,22.8 28.7,23.2 28.3,23.5 C27.9,23.8 27.6,24.2 27.3,24.5 C27,24.8 26.8,25.1 26.6,25.3 C26.3,25.9 26.2,26.3 26.2,26.3 Z" fill="#519B3D"/>
              <path d="M14.4,12.6 C14.4,12.6 14.2,13.4 14.1,14.6 C14,15.2 14,15.9 14,16.6 C14,17.3 14.2,18.1 14.5,18.8 C14.6,19 14.7,19.1 14.8,19.2 C14.9,19.4 15.1,19.5 15.2,19.7 C15.5,20.1 15.6,20.5 15.7,20.9 C15.9,21.7 15.7,22.5 15.4,23.1 C15.1,23.7 14.7,24 14.3,24.2 C14,24.4 13.7,24.3 13.7,24.3 C13.7,24.3 13.9,24.3 14.2,24 C14.5,23.8 14.8,23.4 15,22.9 C15.2,22.4 15.3,21.7 15.1,21 C15,20.7 14.8,20.3 14.6,20.1 C14.5,20 14.3,19.8 14.2,19.6 C14,19.4 13.9,19.2 13.8,19.1 C13.4,18.3 13.3,17.4 13.3,16.6 C13.3,15.8 13.4,15.1 13.6,14.5 C14,13.3 14.4,12.6 14.4,12.6 Z" fill="#519B3D"/>
              <path d="M47.5,112.9 C47.5,112.9 47.7,112.8 48.2,112.7 C48.7,112.5 49.4,112.4 50.2,112.1 C51.1,111.9 52.2,111.6 53.4,111.4 C54.7,111.2 56.1,111 57.7,110.9 C58.5,110.8 59.3,110.8 60.2,110.7 C61,110.6 61.9,110.7 62.8,110.6 C64.6,110.5 66.5,110.7 68.5,110.7 C69.5,110.7 70.5,110.9 71.5,111 C72.5,111.1 73.5,111.2 74.6,111.3 C75.6,111.5 76.7,111.6 77.7,111.8 L79.3,112 L80.8,112.3 C82.8,112.8 84.9,113.2 86.9,113.8 C87.9,114.1 88.9,114.4 89.9,114.6 C90.4,114.7 90.9,114.9 91.4,115 C91.9,115.2 92.3,115.3 92.8,115.5 C94.7,116.1 96.5,116.8 98.2,117.4 C99.9,118.1 101.4,118.7 102.9,119.3 C103.6,119.6 104.3,119.9 105,120.2 C105.6,120.5 106.3,120.8 106.8,121.1 C107.9,121.7 108.9,122.1 109.8,122.5 C111.4,123.3 112.4,123.8 112.4,123.8 C112.4,123.8 111.4,123.4 109.8,122.6 C109,122.2 107.9,121.8 106.8,121.3 C106.2,121 105.6,120.8 104.9,120.5 C104.2,120.2 103.5,120 102.8,119.7 C101.3,119.1 99.8,118.5 98.1,117.9 C96.4,117.3 94.6,116.7 92.7,116.1 C92.2,115.9 91.8,115.8 91.3,115.6 C90.8,115.5 90.3,115.3 89.9,115.2 C88.9,114.9 87.9,114.7 87,114.4 C85,113.8 83,113.4 80.9,113 L79.4,112.7 L77.9,112.4 C76.9,112.2 75.9,112.1 74.8,111.9 C73.8,111.7 72.8,111.7 71.8,111.5 C70.8,111.4 69.8,111.3 68.8,111.2 C66.8,111.1 65,110.9 63.2,111 C62.3,111 61.4,111 60.6,111 C59.8,111 58.9,111.1 58.2,111.1 C57.4,111.1 56.7,111.2 56,111.3 C55.3,111.4 54.6,111.4 54,111.5 C52.7,111.7 51.6,111.9 50.7,112 C49.8,112.2 49.1,112.4 48.6,112.5 C47.8,112.8 47.5,112.9 47.5,112.9 Z" fill="#7D9950"/>
              <path d="M64.3,56.8 C64.3,56.8 64.6,56.8 65.2,57 C65.8,57.2 66.6,57.5 67.7,58.1 C68.7,58.6 69.9,59.4 71.2,60.4 C72.5,61.4 73.9,62.6 75.3,64 C76.7,65.4 78.2,67 79.7,68.7 C81.2,70.4 82.7,72.3 84.1,74.4 C85.6,76.4 87,78.5 88.4,80.7 C89.1,81.8 89.8,82.9 90.5,84 C91.2,85.1 91.9,86.2 92.6,87.4 C94,89.7 95.3,92 96.6,94.2 C97.9,96.5 99.1,98.7 100.3,100.9 C102.7,105.3 104.8,109.4 106.6,113 C108.4,116.6 109.8,119.5 110.8,121.6 C111.8,123.7 112.4,124.9 112.4,124.9 C112.4,124.9 109.9,120.2 106.3,113.2 C104.4,109.7 102.3,105.6 99.9,101.2 C98.7,99 97.5,96.8 96.2,94.5 C94.9,92.2 93.6,89.9 92.2,87.7 C91.5,86.6 90.8,85.4 90.1,84.3 C89.4,83.2 88.7,82.1 88,81 C86.6,78.8 85.2,76.7 83.7,74.7 C82.3,72.7 80.8,70.8 79.4,69 C78,67.2 76.5,65.6 75.1,64.2 C72.3,61.4 69.7,59.3 67.7,58.2 C66.7,57.6 65.9,57.3 65.3,57.1 C64.6,56.9 64.3,56.8 64.3,56.8 Z" fill="#519B3D"/>
              <path d="M145.2,70.4 C145.2,70.4 145.3,69.9 145.5,69.1 C145.6,68.7 145.8,68.2 146.1,67.6 C146.3,67 146.6,66.4 147,65.8 C147.4,65.1 147.9,64.5 148.4,63.8 C149,63.2 149.5,62.4 150.3,61.8 C151,61.1 151.8,60.6 152.6,60 C153,59.7 153.5,59.5 153.9,59.3 C154.4,59.1 154.8,58.8 155.3,58.6 L156.7,58.1 C157.2,57.9 157.7,57.8 158.2,57.7 C158.7,57.6 159.2,57.5 159.7,57.4 L160.4,57.3 C160.6,57.3 160.9,57.3 161.1,57.2 C162,57.1 163,57.1 163.8,57.1 C164.7,57.2 165.5,57.2 166.2,57.2 C166.6,57.2 166.9,57.2 167.3,57.3 C167.6,57.4 168,57.4 168.3,57.5 C168.9,57.6 169.4,57.7 169.9,57.8 C170.8,58 171.3,58.1 171.3,58.1 C171.3,58.1 170.8,58.1 169.9,58 C169.5,58 168.9,57.9 168.3,57.8 C168,57.8 167.7,57.7 167.3,57.7 C167,57.7 166.6,57.7 166.2,57.7 C165.5,57.7 164.6,57.7 163.8,57.7 C162.9,57.7 162.1,57.9 161.1,57.9 C160.9,57.9 160.6,57.9 160.4,58 L159.7,58.1 C159.2,58.2 158.8,58.3 158.3,58.4 C157.8,58.5 157.4,58.6 156.9,58.8 L155.5,59.3 C155,59.5 154.6,59.7 154.2,59.9 C153.8,60.1 153.3,60.3 152.9,60.6 C152.1,61.1 151.3,61.6 150.6,62.3 C149.9,62.9 149.3,63.6 148.7,64.2 C148.2,64.9 147.6,65.5 147.3,66.1 C146.9,66.7 146.6,67.3 146.3,67.8 C146,68.3 145.8,68.8 145.6,69.2 C145.3,69.9 145.2,70.4 145.2,70.4 Z" fill="#7D9950"/>
              <path d="M113.5,106.1 C113.5,106.1 113.6,105.5 114,104.6 C114.2,104.1 114.5,103.6 114.8,103 C115,102.7 115.2,102.4 115.4,102 C115.6,101.7 115.9,101.3 116.1,101 C116.3,100.6 116.7,100.3 117,100 C117.3,99.7 117.6,99.3 118,99 C118.4,98.7 118.8,98.3 119.1,98 C119.5,97.7 120,97.4 120.4,97.1 C120.6,96.9 120.9,96.8 121.1,96.6 C121.3,96.5 121.6,96.3 121.8,96.2 C122.3,95.9 122.8,95.7 123.3,95.4 C123.8,95.2 124.4,95 124.9,94.8 L125.7,94.5 C126,94.4 126.3,94.4 126.5,94.3 C127.6,94.1 128.8,93.8 129.9,93.8 C131,93.7 132.1,93.6 133.2,93.7 C134.3,93.8 135.3,93.8 136.3,93.9 C137.3,94.1 138.2,94.2 139,94.4 C139.9,94.5 140.6,94.8 141.3,95 C142,95.2 142.6,95.4 143,95.5 C144,95.8 144.5,96 144.5,96 C144.5,96 143.9,95.9 143,95.7 C142.5,95.6 141.9,95.5 141.2,95.3 C140.5,95.1 139.8,95 138.9,94.9 C138.1,94.8 137.1,94.7 136.2,94.5 C135.7,94.4 135.2,94.4 134.7,94.4 C134.2,94.4 133.7,94.4 133.1,94.3 C132,94.2 131,94.3 129.8,94.4 C128.7,94.4 127.6,94.7 126.5,94.9 C126.2,95 125.9,95 125.7,95.1 L124.9,95.4 C124.4,95.6 123.8,95.8 123.3,95.9 C122.8,96.1 122.3,96.4 121.8,96.6 L121.1,97 C120.9,97.1 120.7,97.3 120.4,97.4 C120,97.7 119.5,98 119.1,98.3 C118.7,98.6 118.3,98.9 118,99.2 C117.6,99.5 117.3,99.9 117,100.2 C116.7,100.5 116.4,100.8 116.1,101.2 C115.8,101.5 115.6,101.8 115.3,102.1 C115.1,102.4 114.9,102.7 114.7,103 C114.3,103.6 114,104.1 113.8,104.5 C113.7,105.5 113.5,106.1 113.5,106.1 Z" fill="#7D9950"/>
              <path d="M76.2,30.7 C76.2,30.7 76.9,30.7 78.1,30.9 C79.3,31.1 81.1,31.3 83.1,31.7 C84.1,31.9 85.2,32.2 86.4,32.6 C87.6,33 88.7,33.6 89.8,34.3 C92.1,35.6 94.3,37.3 96.5,39.2 C98.6,41 100.6,43 102.5,44.8 C104.4,46.6 106,48.4 107.5,49.9 C110.4,52.9 112.2,55 112.2,55 C112.2,55 110.2,53 107.2,50.1 C105.7,48.6 103.9,46.9 102.1,45.1 C100.2,43.3 98.2,41.4 96.1,39.6 C94,37.8 91.8,36.1 89.6,34.7 C88.5,34.1 87.4,33.4 86.3,33 C85.2,32.6 84.1,32.2 83.1,32 C81.1,31.5 79.4,31.1 78.2,30.9 C76.9,30.8 76.2,30.7 76.2,30.7 Z" fill="#519B3D"/>
              <path d="M179.2,64.5 C179.2,64.5 175.9,62 171,58.2 C168.5,56.3 165.7,54.1 162.6,51.7 C159.5,49.3 156.3,46.8 153,44.3 C149.7,41.8 146.4,39.3 143.3,37 C140.2,34.7 137.3,32.6 134.7,30.8 C133.4,29.9 132.3,29.1 131.2,28.4 C130.1,27.7 129.2,27.1 128.5,26.6 C126.9,25.7 126.1,25.1 126.1,25.1 C126.1,25.1 127,25.6 128.6,26.5 C129.4,26.9 130.3,27.5 131.4,28.2 C132.5,28.8 133.7,29.6 135,30.5 C137.6,32.2 140.6,34.2 143.7,36.5 C146.8,38.8 150.2,41.2 153.5,43.7 C156.8,46.2 160.1,48.7 163.1,51.1 C166.1,53.5 169,55.8 171.4,57.7 C173.8,59.6 175.8,61.3 177.2,62.5 C178.4,63.8 179.2,64.5 179.2,64.5 Z" fill="#519B3D"/>
            </g>
            <g transform="translate(26.000000, 154.000000)" id="Shape">
              <path d="M22.4,6.3 C15.8,15.8 15.9,37.2 27.6,51.9 C39.3,66.6 29.9,83.5 25.3,89.3 C19.5,96.6 16.1,96.9 15.3,100.3 C14.4,103.8 22.4,109.4 34.2,93 C44.2,79.1 55,69.6 50.2,56.6 C45,42.4 53.2,35.3 55.4,21.8 C57.6,8.5 33.7,-9.8 22.4,6.3 Z" fill="#69B229"/>
              <path d="M15.9,98.4 C14.3,99.6 10.2,102 8.4,102.1 C6.6,102.2 6.4,100.4 4,100.9 C1.6,101.5 1.4,103.7 2.5,105 C3.6,106.2 4,106.2 4.9,106.1 C4.9,106.1 4.7,107 5.2,108 C5.8,109.3 7.1,109.4 8.3,108.9 C9.4,108.3 10,108.6 10,108.6 C10,108.6 9.6,110.3 10.6,111.3 C12,112.6 13.3,112.2 14.8,110.6 C16.3,109 18.3,108.7 21.4,108.7 C23.7,108.7 24.8,107.4 26.1,106.2 C27,105.4 28.1,104.9 28.9,105.4 C30.1,106.2 31.6,106.8 32.2,105.5 C33.3,103.2 29.4,103.2 29.4,101.7 C29.4,99.4 33.9,95.2 30,94.5 C26.1,94 18.8,96.2 15.9,98.4 Z" fill="#69B229"/>
              <path d="M33.6,106.7 C33.6,106.7 32,103.9 31.3,105.1 C30.8,105.8 31.4,106.1 32.1,106.1 C32.6,106.1 32.9,106.1 33.6,106.7 Z" fill="#A1AF93"/>
              <path d="M49.9,55.4 C49.9,55.4 49.7,55.1 49.5,54.4 C49.3,53.8 49,52.9 48.7,51.7 C48.6,51.1 48.5,50.5 48.4,49.9 C48.3,49.2 48.3,48.5 48.3,47.8 C48.3,47.1 48.3,46.3 48.4,45.6 C48.5,44.8 48.5,44.1 48.7,43.3 C48.9,42.5 49,41.8 49.2,41 C49.4,40.3 49.6,39.5 49.8,38.9 C50,38.2 50.3,37.6 50.5,36.9 C50.8,36.3 51,35.7 51.2,35.2 C51.4,34.7 51.6,34.2 51.9,33.8 C52.1,33.4 52.3,33 52.5,32.7 C52.8,32.1 53,31.8 53,31.8 C53,31.8 52.9,32.2 52.6,32.8 C52.4,33.4 51.9,34.3 51.6,35.4 C51.4,35.9 51.2,36.5 51,37.1 C50.8,37.7 50.6,38.4 50.4,39.1 C50.2,39.8 50,40.5 49.9,41.2 C49.7,41.9 49.6,42.7 49.5,43.4 C49.4,44.1 49.3,44.9 49.2,45.6 C49.2,46.3 49.1,47.1 49.1,47.8 C49.1,48.5 49.1,49.2 49.1,49.8 C49.1,50.5 49.2,51.1 49.3,51.6 C49.4,52.2 49.5,52.7 49.6,53.1 C49.7,53.6 49.8,53.9 49.9,54.3 C49.8,55 49.9,55.4 49.9,55.4 Z" fill="#519B3D"/>
              <path d="M26.4,87.9 C26.4,87.9 26.7,87.5 27.2,86.7 C27.5,86.3 27.7,85.8 28.1,85.3 C28.4,84.7 28.8,84.1 29.1,83.4 C29.5,82.7 29.8,82 30.2,81.1 C30.6,80.3 30.9,79.4 31.2,78.5 C31.5,77.6 31.8,76.6 32.1,75.7 C32.3,74.7 32.6,73.7 32.7,72.7 L32.9,71.2 C32.9,70.7 33,70.2 33,69.7 C33.1,68.7 33,67.7 33,66.7 C33,65.7 32.8,64.8 32.7,63.9 C32.6,63.5 32.6,63 32.5,62.6 C32.4,62.2 32.3,61.8 32.2,61.4 C32,60.7 31.9,59.9 31.7,59.4 C31.5,58.8 31.3,58.3 31.1,57.9 C30.8,57 30.6,56.6 30.6,56.6 C30.6,56.6 30.8,57.1 31.2,57.9 C31.4,58.3 31.6,58.8 31.9,59.4 C32.2,60 32.3,60.7 32.5,61.4 C32.6,61.8 32.7,62.2 32.8,62.6 C32.9,63 33,63.4 33,63.9 C33.1,64.8 33.4,65.7 33.4,66.7 C33.4,67.7 33.5,68.7 33.4,69.7 C33.4,70.2 33.3,70.7 33.3,71.3 L33.1,72.9 C33,73.9 32.7,75 32.4,76 C32.1,77 31.8,78 31.5,78.9 C31.1,79.8 30.8,80.7 30.4,81.5 C30,82.3 29.6,83.1 29.2,83.7 C28.8,84.4 28.4,85 28.1,85.5 C27.7,86 27.4,86.5 27.1,86.8 C26.8,87.5 26.4,87.9 26.4,87.9 Z" fill="#519B3D"/>
              <path d="M30,102.9 C30,102.9 29.9,102.9 29.8,102.7 C29.7,102.6 29.5,102.3 29.4,101.9 C29.2,101.2 29.5,100.1 30.1,99 C30.7,97.9 31.5,96.7 32.3,95.4 C33.2,94.1 34.1,92.8 35.1,91.4 C36.1,90.1 37.1,88.8 38,87.6 C39,86.4 39.9,85.3 40.7,84.3 C42.3,82.4 43.4,81.2 43.4,81.2 C43.4,81.2 42.4,82.5 41,84.5 C39.5,86.5 37.6,89.1 35.6,91.8 C34.6,93.1 33.6,94.4 32.8,95.7 C31.9,97 31.1,98.1 30.5,99.2 C29.9,100.2 29.5,101.2 29.6,101.9 C29.6,102.2 29.8,102.5 29.9,102.7 C29.9,102.8 30,102.9 30,102.9 Z" fill="#519B3D"/>
              <path d="M4.9,106.2 C4.9,106.2 4.9,106 5,105.7 C5,105.6 5.1,105.4 5.2,105.2 C5.3,105 5.4,104.8 5.6,104.6 C6,104.2 6.6,103.8 7.3,103.8 C7.7,103.8 8,103.8 8.4,103.8 C8.8,103.9 9.1,104 9.4,104 C10,104.1 10.7,104 11.3,103.9 C11.9,103.8 12.5,103.6 13,103.4 C13.5,103.2 13.9,103 14.1,102.9 C14.4,102.7 14.5,102.6 14.5,102.6 C14.5,102.6 14.4,102.7 14.2,103 C14,103.2 13.6,103.5 13.2,103.8 C12.7,104.1 12.1,104.3 11.5,104.5 C10.8,104.7 10.1,104.8 9.4,104.7 C9,104.7 8.7,104.6 8.4,104.5 C8.1,104.4 7.8,104.4 7.5,104.4 C7.2,104.4 6.9,104.5 6.7,104.6 C6.5,104.7 6.2,104.8 6,105 C5.6,105.3 5.4,105.7 5.2,105.9 C4.9,106 4.9,106.2 4.9,106.2 Z" fill="#519B3D"/>
              <path d="M9.9,108.7 C9.9,108.7 9.9,108.1 10.3,107.4 C10.5,107 10.9,106.7 11.4,106.4 C11.6,106.3 11.9,106.1 12.2,106.1 C12.5,106 12.8,106 13,105.9 C14.1,105.7 15.2,105.7 15.9,105.6 C16.7,105.5 17.2,105.3 17.2,105.3 C17.2,105.3 17.1,105.4 16.9,105.5 C16.7,105.6 16.4,105.8 16,105.9 C15.2,106.2 14.1,106.3 13.1,106.4 C12.1,106.5 11.2,107 10.6,107.6 C10.3,107.9 10.2,108.2 10.1,108.4 C9.9,108.6 9.9,108.7 9.9,108.7 Z" fill="#519B3D"/>
              <path d="M9.5,112.8 C9.5,112.8 9.4,108.5 11.4,109.3 C12.6,109.8 12,110.5 11.1,111 C10.4,111.6 10,111.7 9.5,112.8 Z" fill="#A1AF93"/>
              <path d="M4,109.8 C4,109.8 4.7,105.5 6.5,106.7 C7.6,107.4 6.9,108 5.9,108.4 C5.1,108.8 4.7,108.8 4,109.8 Z" fill="#A1AF93"/>
              <path d="M0,105.9 C0,105.9 2.1,102.1 3.4,103.8 C4.2,104.9 3.3,105.2 2.3,105.2 C1.4,105.3 1,105.2 0,105.9 Z" fill="#A1AF93"/>
            </g>
            <g transform="translate(31.000000, 106.000000)" id="Shape">
              <g>
                <path d="M28.3,29.6 C43.1,25.2 47.9,28.3 64.3,14.2 C80.8,0.1 118.7,-3.7 143.4,5.9 C168.1,15.5 189.5,35.4 187.6,60.2 C186.1,80.4 164.4,82.4 137.2,76.4 C110,70.4 95.6,106.5 68.2,105.9 C37.8,105.3 27.3,100 3,68.6 C-6.3,56.6 14,33.8 28.3,29.6 Z" fill="#7CBF2E"/>
                <path d="M72.9,88.9 C48.8,97.1 19.4,70.7 5.4,48.3 C0.7,55.5 -1.2,63.2 3.1,68.8 C27.4,100.1 37.9,105.5 68.3,106.1 C95.7,106.6 110.2,70.2 137.3,76.6 C160.8,82.1 168.7,79.5 177.4,76.7 C141.6,49 100.2,79.5 72.9,88.9 Z" fill="#B4D189"/>
                <path d="M15.7,83.9 C15.7,83.9 16,84.2 16.5,84.8 C17,85.4 17.8,86.2 18.8,87.2 C20.8,89.2 23.8,92 27.8,94.9 C29.8,96.3 32,97.8 34.5,99.1 C37,100.4 39.7,101.5 42.7,102.4 C45.6,103.3 48.7,104 51.9,104.5 C55.1,105 58.3,105.3 61.6,105.5 C64.9,105.7 68.1,105.7 71.3,105.4 C74.5,105.1 77.6,104.4 80.5,103.4 C83.4,102.4 86,101 88.4,99.6 C90.8,98.1 93,96.6 95,95.2 C98.9,92.3 102.2,89.8 104.5,88 C106.8,86.3 108.1,85.3 108.1,85.3 C108.1,85.3 106.8,86.3 104.6,88.1 C102.4,89.9 99.2,92.5 95.3,95.5 C93.3,97 91.2,98.5 88.8,100 C86.4,101.5 83.7,102.9 80.8,103.9 C77.9,104.9 74.7,105.7 71.5,106 C68.3,106.3 65,106.3 61.7,106.1 C58.4,105.9 55.1,105.6 51.9,105.1 C48.7,104.6 45.6,103.8 42.7,102.9 C39.8,102 37,100.8 34.5,99.5 C32,98.2 29.8,96.7 27.8,95.2 C23.8,92.2 20.9,89.3 19,87.3 C18,86.3 17.3,85.4 16.8,84.8 C16,84.2 15.7,83.9 15.7,83.9 Z" fill="#7D9950"/>
              </g>
              <path d="M77.7,6.6 C77.7,6.6 79.3,5.8 82.4,4.8 C85.4,3.8 89.8,2.5 95.2,1.6 C100.6,0.7 106.9,-8.32667268e-16 113.8,0.2 C120.6,0.4 127.9,1.3 135,3 C138.5,3.9 142,5 145.3,6.3 C148.6,7.6 151.8,9.1 154.8,10.7 C160.8,14 165.9,17.8 170,21.5 C174,25.2 177,28.7 178.9,31.2 C180.8,33.8 181.7,35.4 181.7,35.4 C181.7,35.4 180.8,33.8 178.8,31.3 C176.9,28.8 173.8,25.4 169.8,21.8 C165.7,18.2 160.6,14.5 154.6,11.2 C151.6,9.6 148.4,8.1 145.1,6.8 C141.8,5.5 138.3,4.4 134.8,3.6 C127.8,1.8 120.6,0.9 113.8,0.7 C107,0.5 100.7,1 95.3,1.9 C89.9,2.8 85.5,3.9 82.5,4.9 C79.4,5.9 77.7,6.6 77.7,6.6 Z" fill="#519B3D"/>
            </g>
            <g transform="translate(169.000000, 128.000000)" id="Shape">
              <g>
                <path d="M29.8,2 C45.5,8.6 74.1,81.1 102.7,93.9 C131.1,106.7 156.5,98.1 157.7,82.3 C157.7,82.3 160.2,111 106.5,105.6 C52.8,100.2 50.5,70.7 30.7,60.7 C4.6,47.5 4.6,41.1 3.9,26.4 C3,10.7 12.4,-5.3 29.8,2 Z" fill="#7CBF2E"/>
                <path d="M10.8,45.3 L0.4,52.5 C4.1,55.2 19.1,58.8 25.6,62 C45.4,72 52.8,100.3 106.5,105.6 C113,106.3 118.8,106.4 123.7,106.2 C104.7,103.5 78.9,97 64.8,81.2 C40.8,54.3 10.8,45.3 10.8,45.3 Z" fill="#B4D189"/>
              </g>
              <path d="M142.4,98.3 C142.4,98.3 141.4,98.6 139.5,99 C138.6,99.2 137.5,99.4 136.2,99.6 C134.9,99.8 133.4,99.9 131.8,100 C131,100 130.2,100.1 129.3,100.1 C128.4,100.1 127.5,100.1 126.6,100.1 C124.8,100 122.8,99.9 120.8,99.6 C118.8,99.3 116.8,99 114.7,98.5 C112.6,98 110.6,97.5 108.5,96.7 C106.5,96 104.5,95.1 102.6,94.2 C100.7,93.2 98.9,92.2 97.3,91 C95.6,89.9 94.1,88.6 92.7,87.4 C92,86.8 91.4,86.2 90.7,85.6 C90.1,85 89.5,84.4 88.9,83.8 C88.3,83.2 87.8,82.7 87.3,82.1 C86.8,81.6 86.4,81 85.9,80.5 C85,79.5 84.3,78.6 83.7,77.9 C82.5,76.4 81.9,75.6 81.9,75.6 C81.9,75.6 82.6,76.4 83.8,77.8 C84.4,78.5 85.2,79.4 86.1,80.3 C87,81.3 88,82.3 89.1,83.4 C89.7,84 90.3,84.5 90.9,85.1 C91.5,85.7 92.2,86.3 92.9,86.9 C94.3,88.1 95.8,89.3 97.5,90.4 C99.1,91.5 100.9,92.6 102.8,93.5 C104.7,94.5 106.6,95.3 108.6,96 C110.6,96.7 112.7,97.3 114.7,97.8 C116.7,98.3 118.8,98.7 120.7,98.9 C122.7,99.2 124.6,99.3 126.4,99.5 C127.3,99.6 128.2,99.6 129.1,99.6 C130,99.6 130.8,99.6 131.6,99.6 C133.2,99.5 134.7,99.4 136,99.3 C137.3,99.2 138.4,99 139.3,98.8 C141.3,98.6 142.4,98.3 142.4,98.3 Z" fill="#519B3D"/>
              <path d="M49.9,82.8 C49.9,82.8 50.7,83.6 52.3,84.9 C53.1,85.5 54,86.3 55.2,87.1 C56.3,87.9 57.6,88.8 59.1,89.7 C59.8,90.2 60.6,90.6 61.4,91.1 C62.2,91.6 63,92.1 63.9,92.5 C65.6,93.4 67.4,94.4 69.4,95.3 C70.4,95.7 71.3,96.3 72.3,96.7 C73.3,97.1 74.3,97.6 75.4,98 C76.4,98.5 77.5,98.8 78.6,99.2 C79.7,99.6 80.7,100 81.8,100.3 C84,101 86.2,101.6 88.3,102.3 C90.5,102.8 92.6,103.3 94.7,103.8 C96.8,104.2 98.8,104.5 100.8,104.8 C101.8,105 102.7,105.1 103.6,105.2 C104.5,105.3 105.4,105.4 106.3,105.5 C108,105.7 109.6,105.9 111,105.9 C112.4,106 113.6,106 114.6,106.1 C116.6,106.2 117.7,106.3 117.7,106.3 C117.7,106.3 116.6,106.3 114.6,106.2 C113.6,106.2 112.4,106.2 111,106.1 C109.6,106.1 108,105.9 106.3,105.8 C105.4,105.7 104.6,105.6 103.6,105.6 C102.7,105.5 101.7,105.4 100.8,105.3 C98.9,105 96.8,104.7 94.7,104.3 C92.6,103.8 90.4,103.3 88.2,102.8 C86,102.2 83.8,101.6 81.6,100.9 C80.5,100.5 79.4,100.1 78.4,99.7 C77.3,99.3 76.3,98.9 75.2,98.5 C74.2,98.1 73.1,97.6 72.1,97.2 C71.1,96.8 70.1,96.3 69.1,95.8 C67.1,94.9 65.3,93.8 63.6,92.9 C62.7,92.4 61.9,91.9 61.1,91.4 C60.3,90.9 59.5,90.5 58.8,90 C58.1,89.5 57.4,89 56.8,88.6 C56.2,88.1 55.6,87.7 55,87.3 C53.9,86.5 53,85.7 52.2,85 C50.7,83.6 49.9,82.8 49.9,82.8 Z" fill="#7D9950"/>
            </g>
            <g transform="translate(18.000000, 43.000000)" id="Shape">
              <g transform="translate(1.000000, 0.000000)">
                <g>
                  <path d="M21.8,1.3 C31.1,5.3 38,30.9 30.5,52 C20.4,80.2 35.1,89.6 53.2,93.4 C72,97.3 70.4,108.7 65.6,123.2 C60.8,137.7 36.5,158.6 13.1,131.9 C-5.3,110.9 0.2,77 3.2,63.4 C6.2,49.8 14.9,31.7 9.2,24.8 C3.4,17.7 8.4,-4.5 21.8,1.3 Z" fill="#7CBF2E"/>
                  <path d="M46.9,142.7 C27.9,129.4 12.1,106.7 9.5,93.5 C5.2,71.8 20.1,36.9 14.2,35.6 C12.7,35.3 11.5,35.8 10.5,36.6 C9,44.7 5,54.8 3.2,63.2 C0.2,76.8 -5.3,110.7 13.1,131.7 C25.1,145.4 37.2,146.7 46.9,142.7 Z" fill="#B4D189"/>
                </g>
                <path d="M40.9,89.5 C40.9,89.5 40.6,89.4 40.1,89.1 C39.6,88.9 38.8,88.5 37.9,87.9 C37.4,87.6 36.9,87.3 36.4,86.9 C35.9,86.5 35.3,86.1 34.7,85.6 C33.6,84.6 32.3,83.5 31.2,81.9 C30.1,80.4 29.1,78.6 28.4,76.7 C27.7,74.7 27.2,72.5 27,70.2 C26.8,67.9 26.9,65.5 27.2,63.1 C27.5,60.7 28,58.3 28.9,55.9 C30.5,51.3 31.8,46.6 32.6,42.1 C33.4,37.6 33.8,33.3 33.7,29.7 C33.6,27.9 33.4,26.2 33.2,24.7 C33,23.2 32.8,21.9 32.6,20.9 C32.2,18.8 31.9,17.6 31.9,17.6 C31.9,17.6 32.2,18.8 32.7,20.9 C32.9,21.9 33.2,23.2 33.4,24.7 C33.6,26.2 33.9,27.8 34,29.7 C34.2,33.4 33.9,37.7 33.1,42.2 C32.3,46.7 31.1,51.5 29.5,56.1 C28.7,58.4 28.2,60.8 27.8,63.1 C27.5,65.5 27.4,67.8 27.6,70.1 C27.8,72.4 28.2,74.5 28.9,76.5 C29.6,78.5 30.5,80.2 31.6,81.7 C32.6,83.2 33.8,84.4 34.9,85.4 C35.5,85.9 36,86.3 36.5,86.7 C37,87.1 37.5,87.4 38,87.7 C38.9,88.3 39.6,88.7 40.1,88.9 C40.6,89.4 40.9,89.5 40.9,89.5 Z" fill="#519B3D"/>
              </g>
              <path d="M15.6,133.7 C15.6,133.7 14.8,132.7 13.3,131 C11.9,129.3 9.9,126.7 8,123.3 C6.1,119.9 4.3,115.7 3.1,111.1 C1.8,106.4 1.1,101.3 0.8,96.1 C0.6,93.5 0.6,90.9 0.7,88.4 C0.8,85.9 0.9,83.4 1.1,81 C1.3,78.6 1.6,76.3 1.9,74.1 C2.2,71.9 2.6,69.8 3,68 C3.8,64.2 4.6,61.1 5.2,58.9 C5.8,56.7 6.2,55.5 6.2,55.5 C6.2,55.5 5.9,56.7 5.3,58.9 C4.8,61.1 4,64.2 3.3,68 C2.9,69.9 2.6,72 2.3,74.1 C2,76.3 1.8,78.6 1.6,81 C1.4,83.4 1.3,85.9 1.2,88.4 C1.2,90.9 1.2,93.5 1.3,96 C1.6,101.1 2.3,106.2 3.5,110.9 C4.7,115.5 6.4,119.7 8.2,123.1 C10,126.5 11.9,129.1 13.3,130.9 C14.8,132.7 15.6,133.7 15.6,133.7 Z" fill="#7D9950"/>
            </g>
            <g transform="translate(0.000000, 15.000000)">
              <g>
                <path d="M20.5,27.6 C17.5,26 20,18.8 23.9,17.7 C27.9,16.6 32.7,11.6 34.4,13.2 C36.1,14.8 30.5,33 20.5,27.6 Z" id="Shape" fill="#69B229"/>
                <g transform="translate(13.000000, 0.000000)" id="Shape">
                  <path d="M1.7,24 C1.7,24 6.3,13.1 12.5,9.6 C18.7,6.2 23.1,7.5 27.9,0.4 C27.9,0.4 26.8,7.6 21.7,10.7 C13.1,15.9 10.3,26.4 10.3,26.4 C10.3,26.4 6.2,22.5 1.7,24 Z" fill="#F1F2DC"/>
                  <path d="M0.9,24.9 C0.9,24.9 1.3,21.5 3.4,20.8 C3.4,20.8 9.9,19.8 12.1,23.3 C12.1,23.3 12.6,26.4 11.2,27.6" fill="#7CBF2E"/>
                  <path d="M1.6,22.7 C1.6,22.7 1.6,22.5 1.7,22.1 C1.8,21.9 1.9,21.7 2,21.5 C2.2,21.3 2.4,21.1 2.7,20.9 C3,20.7 3.4,20.6 3.7,20.5 C4.1,20.4 4.5,20.3 4.9,20.3 C5.3,20.3 5.8,20.3 6.2,20.4 C6.6,20.4 7.1,20.5 7.5,20.6 C7.9,20.7 8.4,20.8 8.8,20.9 C9.2,21 9.7,21.2 10,21.4 C10.8,21.8 11.4,22.3 11.8,22.9 C12.2,23.5 12.2,24.1 12.2,24.5 C12.1,24.9 12,25.1 12,25.1 C12,25.1 12.1,24.9 12.1,24.5 C12.1,24.1 12,23.6 11.6,23.1 C11.2,22.6 10.6,22.2 9.9,21.9 C9.5,21.7 9.1,21.6 8.7,21.5 C8.3,21.4 7.9,21.3 7.4,21.2 C7,21.1 6.6,21 6.1,21 C5.7,20.9 5.3,20.9 4.9,20.9 C4.5,20.9 4.1,20.9 3.8,21 C3.4,21.1 3.1,21.2 2.8,21.3 C2.5,21.4 2.3,21.6 2.1,21.8 C1.9,22 1.8,22.2 1.7,22.3 C1.7,22.5 1.6,22.7 1.6,22.7 Z" fill="#519B3D"/>
                  <path d="M13.4,19.7 C13.4,19.7 13.7,18.9 14.4,17.8 C15.1,16.7 16.1,15.3 17.3,14.1 C17.9,13.5 18.5,12.9 19.2,12.4 C19.5,12.1 19.8,11.9 20.1,11.7 C20.4,11.5 20.7,11.3 21,11.1 C21.5,10.8 22,10.5 22.4,10.4 C22.7,10.2 22.9,10.2 22.9,10.2 C22.9,10.2 22.7,10.3 22.4,10.5 C22.1,10.7 21.7,11 21.2,11.4 C20.7,11.8 20.1,12.3 19.6,12.8 C19,13.3 18.4,13.9 17.8,14.5 C16.6,15.7 15.5,17 14.7,18 C13.9,19 13.4,19.7 13.4,19.7 Z" fill="#C9BD9B"/>
                  <path d="M16.5,7.9 C16.5,7.9 17.3,7.6 18.5,7.1 C19.7,6.6 21.3,5.9 22.8,5 C23.2,4.8 23.5,4.6 23.9,4.3 C24.2,4 24.6,3.8 24.9,3.6 C25.2,3.3 25.5,3.1 25.8,2.9 C26.1,2.6 26.4,2.4 26.6,2.2 C26.8,2 27,1.8 27.2,1.6 C27.4,1.4 27.5,1.2 27.6,1.1 C27.8,0.8 28,0.6 28,0.6 C28,0.6 27.9,0.8 27.7,1.1 C27.5,1.4 27.2,1.9 26.8,2.4 C26.6,2.7 26.3,2.9 26.1,3.2 C25.9,3.5 25.5,3.8 25.2,4 C24.9,4.3 24.5,4.5 24.2,4.8 C23.9,5.1 23.5,5.3 23.1,5.5 C22.3,5.9 21.5,6.3 20.8,6.7 C20,7 19.3,7.3 18.7,7.4 C17.3,7.8 16.5,7.9 16.5,7.9 Z" fill="#C9BD9B"/>
                </g>
                <path d="M26,19.2 C18,20.5 13.3,21.9 10.4,30.2 C7.5,38.5 8.8,45.4 3.7,50.8 C-1.4,56.2 2,62.9 3.5,65 L6.1,64.3 C6.1,64.3 6.5,65.7 8.2,65.8 C10,65.9 17.3,60.8 21.4,59.3 C25.5,57.8 43.4,55.6 45.4,41.8 C47.4,28 37.5,17.2 26,19.2 Z" id="Shape" fill="#7CBF2E"/>
                <path d="M7.8,58.7 C7.2,58.9 7,56.9 8.2,56.5 C9.5,56 9.1,58.3 7.8,58.7 Z" id="Shape" fill="#46893D"/>
                <path d="M7.8,58.7 C7.8,58.7 7.6,58.7 7.4,58.5 C7.3,58.4 7.2,58.3 7.1,58.1 C7,57.9 7,57.7 7.1,57.5 C7.2,57.1 7.6,56.8 7.8,56.7 C7.9,56.6 8.1,56.6 8.1,56.6 C8.2,56.6 8.2,56.6 8.2,56.6 C8.2,56.6 8.2,56.6 8.1,56.7 C8.1,56.8 8,56.9 7.9,57 C7.8,57.2 7.6,57.5 7.6,57.7 C7.5,57.9 7.5,58.2 7.6,58.4 C7.8,58.5 7.8,58.7 7.8,58.7 Z" id="Shape" fill="#34662D"/>
                <ellipse id="Oval" fill="#283F1F" transform="translate(25.738199, 43.373252) rotate(-86.251242) translate(-25.738199, -43.373252) " cx="25.738199" cy="43.3732517" rx="2.00007949" ry="1.00003974"/>
                <path d="M21.5,56.1 C21.5,56.1 21.6,55.1 22,54 C22.2,53.5 22.9,53.5 23.1,54 C23.4,54.6 23.6,55.4 23.6,56 L21.5,56.1 Z" id="Shape" fill="#F1F2DC"/>
                <path d="M6.2,64.3 C6.2,64.3 7.5,63.7 9.4,62.7 C10.4,62.2 11.4,61.6 12.5,60.8 C13,60.4 13.6,60 14.1,59.5 C14.4,59.3 14.6,59 14.8,58.7 L15.4,57.8 C15.6,57.5 15.9,57.2 16.2,57 C16.5,56.8 16.9,56.6 17.2,56.5 C17.9,56.2 18.6,56.1 19.3,56 C20.7,55.8 21.9,55.8 23,55.8 C23.5,55.8 24,55.7 24.5,55.7 C24.9,55.6 25.3,55.6 25.6,55.5 C25.9,55.4 26.1,55.3 26.3,55.2 C26.4,55.1 26.5,55.1 26.5,55.1 C26.5,55.1 26.4,55.2 26.3,55.3 C26.2,55.4 26,55.5 25.7,55.7 C25.4,55.8 25,55.9 24.6,56.1 C24.2,56.2 23.7,56.3 23.1,56.4 C22,56.5 20.8,56.6 19.5,56.8 C18.8,56.9 18.2,57 17.6,57.3 C17.3,57.4 17,57.6 16.7,57.8 C16.5,58 16.2,58.2 16,58.5 L15.4,59.4 C15.1,59.7 14.9,60 14.6,60.2 C14.1,60.7 13.5,61.1 12.9,61.5 C11.8,62.3 10.6,62.8 9.6,63.2 C7.6,63.9 6.2,64.3 6.2,64.3 Z" id="Shape" fill="#519B3D"/>
                <path d="M22.3,43.7 C22.3,43.7 22.5,43.2 23.1,42.6 C23.4,42.3 23.8,42 24.2,41.8 C24.6,41.5 25.2,41.3 25.7,41.2 C26.2,41.1 26.8,40.9 27.3,40.9 C27.8,40.9 28.3,40.9 28.7,40.9 C29.1,40.9 29.4,41 29.7,41.1 C29.9,41.1 30.1,41.2 30.1,41.2 C30.1,41.2 30,41.2 29.7,41.2 C29.5,41.2 29.1,41.2 28.7,41.3 C28.3,41.3 27.8,41.4 27.4,41.5 C26.9,41.6 26.4,41.7 25.9,41.9 C24.9,42.2 24,42.6 23.3,43.1 C22.7,43.4 22.3,43.7 22.3,43.7 Z" id="Shape" fill="#519B3D"/>
                <path d="M21,42.2 C21,42.2 20.8,41.9 20.7,41.4 C20.6,40.9 20.7,40.2 21,39.6 C21.1,39.4 21.2,39.3 21.3,39.2 C21.4,39.1 21.5,39 21.7,38.9 C22,38.7 22.2,38.6 22.5,38.5 C22.7,38.4 22.9,38.4 23.1,38.4 C23.2,38.4 23.3,38.4 23.3,38.4 C23.3,38.4 23.2,38.5 23.1,38.5 C23,38.6 22.8,38.7 22.7,38.8 C22.5,38.9 22.3,39.1 22.1,39.3 C21.9,39.5 21.7,39.7 21.6,39.9 C21.3,40.4 21.2,40.9 21.1,41.3 C21,41.9 21,42.2 21,42.2 Z" id="Shape" fill="#519B3D"/>
                <g transform="translate(24.000000, 2.000000)" id="Shape">
                  <path d="M1.6,22.4 C1.6,22.4 6.9,11.8 13.3,8.7 C19.7,5.7 24,7.3 29.2,0.5 C29.2,0.5 27.7,7.7 22.4,10.4 C13.5,15.1 10.1,25.4 10.1,25.4 C10.1,25.4 6.1,21.1 1.6,22.4 Z" fill="#F1F2DC"/>
                  <path d="M0.7,23.2 C0.7,23.2 1.3,19.9 3.4,19.2 C3.4,19.2 9.9,18.6 11.9,22.2 C11.9,22.2 12.2,25.3 10.7,26.4" fill="#7CBF2E"/>
                  <path d="M1.6,21.1 C1.6,21.1 1.6,20.9 1.7,20.5 C1.8,20.3 1.9,20.1 2.1,19.9 C2.3,19.7 2.5,19.5 2.9,19.3 C3.2,19.1 3.6,19 4,18.9 C4.4,18.8 4.8,18.8 5.2,18.8 C5.6,18.8 6.1,18.8 6.5,18.9 C6.9,19 7.4,19.1 7.8,19.2 C8.2,19.3 8.7,19.5 9.1,19.6 C9.5,19.8 9.9,19.9 10.3,20.2 C11,20.6 11.7,21.2 12,21.8 C12.4,22.4 12.3,23.1 12.3,23.4 C12.2,23.8 12.1,24 12.1,24 C12.1,24 12.2,23.8 12.2,23.4 C12.2,23 12.1,22.5 11.8,22 C11.4,21.5 10.8,21 10.1,20.7 C9.8,20.5 9.4,20.4 9,20.2 C8.6,20.1 8.2,19.9 7.8,19.8 C7.4,19.7 7,19.6 6.5,19.5 C6.1,19.4 5.7,19.4 5.3,19.3 C4.9,19.3 4.5,19.3 4.2,19.3 C3.8,19.3 3.5,19.4 3.2,19.5 C2.9,19.6 2.7,19.8 2.5,19.9 C2.3,20.1 2.2,20.2 2.1,20.4 C1.6,20.9 1.6,21.1 1.6,21.1 Z" fill="#519B3D"/>
                  <path d="M13.4,18.8 C13.4,18.8 13.8,18 14.5,17 C15.2,16 16.3,14.6 17.6,13.5 C18.2,12.9 18.9,12.4 19.6,11.9 C19.9,11.7 20.2,11.5 20.6,11.3 C20.9,11.1 21.2,10.9 21.5,10.8 C22.1,10.5 22.6,10.3 22.9,10.2 C23.2,10.1 23.4,10 23.4,10 C23.4,10 23.2,10.1 22.9,10.3 C22.6,10.5 22.1,10.8 21.6,11.1 C21.1,11.5 20.5,11.9 19.9,12.4 C19.3,12.9 18.6,13.4 18,14 C16.8,15.1 15.6,16.3 14.7,17.3 C14,18.1 13.4,18.8 13.4,18.8 Z" fill="#C9BD9B"/>
                  <path d="M17.3,7.2 C17.3,7.2 18.2,7 19.4,6.5 C20.6,6.1 22.3,5.5 23.8,4.7 C24.2,4.5 24.6,4.3 24.9,4.1 C25.3,3.9 25.6,3.7 25.9,3.4 C26.2,3.2 26.6,3 26.8,2.7 C27.1,2.5 27.4,2.3 27.6,2 C27.8,1.8 28.1,1.6 28.3,1.4 C28.5,1.2 28.6,1 28.8,0.9 C29.1,0.6 29.2,0.5 29.2,0.5 C29.2,0.5 29.1,0.7 28.9,1 C28.7,1.3 28.4,1.8 27.9,2.3 C27.7,2.6 27.4,2.8 27.1,3.1 C26.8,3.4 26.5,3.6 26.2,3.9 C25.9,4.2 25.5,4.4 25.1,4.6 C24.7,4.8 24.3,5 23.9,5.3 C23.1,5.7 22.3,6 21.5,6.3 C20.7,6.6 20,6.8 19.3,6.9 C18.2,7.1 17.3,7.2 17.3,7.2 Z" fill="#C9BD9B"/>
                </g>
                <path d="M14.8,36.7 C14.8,36.7 14.7,35.9 14.8,34.6 C14.9,34 14.9,33.2 15.1,32.4 C15.2,32 15.3,31.6 15.4,31.2 C15.5,30.8 15.7,30.4 15.8,30 C16.1,29.2 16.5,28.4 17,27.8 C17.2,27.5 17.4,27.1 17.7,26.9 C18,26.6 18.2,26.4 18.4,26.2 C18.9,25.8 19.3,25.5 19.7,25.3 C20,25.1 20.2,25 20.2,25 C20.2,25 20,25.1 19.8,25.4 C19.7,25.5 19.5,25.6 19.3,25.8 C19.1,26 18.9,26.2 18.7,26.4 C18.5,26.6 18.3,26.9 18.1,27.2 C17.9,27.5 17.7,27.8 17.5,28.1 C17.3,28.4 17.1,28.8 16.9,29.1 C16.7,29.5 16.6,29.8 16.4,30.2 C15.8,31.7 15.4,33.3 15.2,34.6 C14.9,35.8 14.8,36.7 14.8,36.7 Z" id="Shape" fill="#519B3D"/>
                <path d="M27.8,57.6 C27.8,57.6 28.7,57.2 30.1,56.7 C30.8,56.4 31.6,56.1 32.4,55.7 C33.2,55.3 34.1,54.9 35,54.5 C35.4,54.3 35.9,54.1 36.3,53.9 C36.7,53.7 37.1,53.4 37.5,53.2 C38.3,52.7 39,52.3 39.6,51.9 C39.9,51.7 40.2,51.5 40.4,51.3 C40.6,51.1 40.8,51 41,50.8 C41.3,50.5 41.5,50.4 41.5,50.4 C41.5,50.4 41.3,50.6 41.1,50.9 C41,51.1 40.8,51.3 40.6,51.5 C40.4,51.7 40.1,52 39.9,52.2 C39.3,52.7 38.6,53.2 37.8,53.7 C37.4,53.9 37,54.2 36.6,54.4 C36.2,54.6 35.7,54.9 35.3,55.1 C34.4,55.5 33.5,55.9 32.6,56.2 C31.7,56.5 30.9,56.8 30.2,57 C28.8,57.4 27.8,57.6 27.8,57.6 Z" id="Shape" fill="#519B3D"/>
                <path d="M1.5,60.9 C1.5,60.9 1.3,60.1 1.1,58.7 C1,58 1,57.2 1.1,56.2 C1.2,55.2 1.4,54.1 1.9,53 C2,52.7 2.2,52.5 2.3,52.2 C2.5,51.9 2.7,51.7 2.9,51.4 C3.3,50.9 3.8,50.4 4.2,49.9 C5,48.9 5.6,47.6 6.1,46.2 C6.6,44.8 6.9,43.3 7.2,41.8 C7.5,40.3 7.7,38.7 8,37.1 C8.2,36.3 8.4,35.5 8.6,34.8 C8.8,34 8.9,33.3 9.1,32.5 C9.5,31 10,29.5 10.7,28.1 C11,27.4 11.4,26.8 11.8,26.2 C12.2,25.6 12.7,25 13.1,24.5 C13.6,24 14,23.5 14.6,23.1 C15.1,22.7 15.6,22.3 16.1,22 C17.1,21.3 18.1,20.9 19,20.6 C19.9,20.3 20.7,20 21.4,19.9 C22.8,19.6 23.5,19.5 23.5,19.5 C23.5,19.5 23,19.7 21.7,20 C21,20.2 20.2,20.5 19.3,20.8 C18.4,21.2 17.4,21.7 16.5,22.3 C16,22.6 15.5,23 15,23.4 C14.5,23.8 14.1,24.3 13.6,24.8 C12.7,25.8 11.9,27 11.3,28.3 C10.7,29.6 10.2,31.1 9.8,32.6 C9.6,33.4 9.5,34.1 9.3,34.9 C9.2,35.7 8.9,36.4 8.7,37.2 C8.4,38.7 8.1,40.3 7.8,41.9 C7.5,43.4 7.1,45 6.6,46.4 C6.1,47.8 5.4,49.1 4.5,50.2 C4,50.7 3.6,51.2 3.1,51.6 C2.9,51.9 2.7,52.1 2.6,52.3 C2.5,52.6 2.3,52.8 2.2,53.1 C1.7,54.2 1.4,55.2 1.3,56.2 C1.2,57.2 1.2,58 1.2,58.7 C1.3,60.1 1.5,60.9 1.5,60.9 Z" id="Shape" fill="#519B3D"/>
              </g>
              <g transform="translate(37.000000, 19.000000)" id="Shape">
                <path d="M2,10.5 C-1.7,7.3 0.1,1.5 6,1.5 C11.9,1.5 15.1,1.8 16.7,0.8 C18.3,-0.2 18.3,3.3 16.1,5.6 C13.9,7.9 6.4,14.5 2,10.5 Z" fill="#7CBF2E"/>
                <path d="M1.2,9.9 C1.2,9.9 1.5,9.9 2,9.7 C2.5,9.6 3.1,9.3 3.7,8.8 C4.3,8.3 4.9,7.5 5.4,6.6 C5.4,6.5 5.4,6.5 5.5,6.4 L5.6,6.2 C5.7,6.1 5.8,6 5.9,5.9 C6.2,5.7 6.4,5.6 6.7,5.5 C7.3,5.3 7.8,5.2 8.4,5.1 C9.5,5 10.6,4.9 11.7,4.7 C12.2,4.6 12.7,4.5 13.2,4.4 C13.7,4.3 14.1,4.1 14.5,4 C14.9,3.8 15.2,3.7 15.5,3.5 C15.8,3.3 16,3.2 16.2,3 C16.6,2.7 16.8,2.5 16.8,2.5 C16.8,2.5 16.6,2.7 16.3,3.1 C16.1,3.3 15.9,3.5 15.6,3.7 C15.3,3.9 15,4.1 14.6,4.3 C14.2,4.5 13.8,4.7 13.3,4.8 C12.8,5 12.3,5.1 11.8,5.2 C10.8,5.4 9.6,5.5 8.5,5.7 C8,5.8 7.4,5.9 6.9,6 C6.7,6.1 6.4,6.2 6.3,6.3 C6.2,6.3 6.1,6.4 6,6.5 L5.9,6.7 C5.9,6.7 5.8,6.8 5.8,6.8 C5.2,7.7 4.6,8.5 3.9,9 C3.2,9.5 2.5,9.7 2,9.8 C1.5,9.9 1.2,9.9 1.2,9.9 Z" fill="#519B3D"/>
                <path d="M3.5,11.7 C3.5,11.7 4,11.7 4.8,11.6 C5.2,11.6 5.6,11.5 6.1,11.4 C6.6,11.3 7.1,11.2 7.6,11.1 C8.6,10.8 9.5,10.4 10.2,10 C10.6,9.8 10.8,9.7 11,9.5 C11.2,9.4 11.3,9.3 11.3,9.3 C11.3,9.3 11.2,9.4 11,9.6 C10.8,9.8 10.6,10 10.3,10.3 C10.1,10.4 10,10.6 9.8,10.7 C9.6,10.8 9.4,11 9.2,11.1 C9,11.2 8.7,11.3 8.5,11.4 C8.2,11.5 8,11.6 7.7,11.7 C6.6,12 5.5,12.1 4.7,12 C4,11.9 3.5,11.7 3.5,11.7 Z" fill="#519B3D"/>
                <path d="M0.3,5.9 C0.3,5.9 0.3,5.7 0.4,5.3 C0.5,4.9 0.6,4.3 1,3.7 C1.3,3.1 1.9,2.4 2.7,2 C3.1,1.8 3.5,1.6 4,1.4 C4.5,1.3 4.9,1.2 5.4,1.2 C7.3,1.1 9.1,1.3 10.4,1.4 C11.7,1.5 12.7,1.5 12.7,1.5 C12.7,1.5 11.8,1.7 10.4,1.7 C9,1.8 7.2,1.6 5.5,1.8 C5.1,1.8 4.6,1.9 4.2,2 C3.8,2.1 3.4,2.2 3,2.5 C2.3,2.9 1.7,3.4 1.3,3.9 C0.9,4.4 0.6,4.9 0.5,5.3 C0.3,5.7 0.3,5.9 0.3,5.9 Z" fill="#519B3D"/>
              </g>
            </g>
            <g transform="translate(42.000000, 162.000000)" id="Shape">
              <g>
                <path d="M33.9,107 C33.9,107 32.3,104.2 31.6,105.4 C31.1,106.1 31.7,106.4 32.4,106.4 C33,106.4 33.2,106.4 33.9,107 Z" fill="#A1AF93"/>
                <path d="M22.7,6.6 C16.1,16.1 16.2,37.5 27.9,52.2 C39.6,66.9 30.2,83.8 25.6,89.6 C19.8,96.9 16.4,97.2 15.6,100.6 C14.7,104.1 22.7,109.7 34.5,93.3 C44.5,79.4 55.3,69.9 50.5,56.9 C45.3,42.7 53.5,35.6 55.7,22.1 C57.9,8.8 34,-9.5 22.7,6.6 Z" fill="#7CBF2E"/>
                <path d="M50.2,55.7 C50.2,55.7 50,55.4 49.8,54.7 C49.6,54.1 49.3,53.2 49,52 C48.9,51.4 48.8,50.8 48.7,50.2 C48.6,49.5 48.6,48.8 48.6,48.1 C48.6,47.4 48.6,46.6 48.7,45.9 C48.8,45.1 48.8,44.4 49,43.6 C49.2,42.8 49.3,42.1 49.5,41.3 C49.7,40.6 49.9,39.8 50.1,39.2 C50.3,38.5 50.6,37.9 50.8,37.2 C51.1,36.6 51.3,36 51.5,35.5 C51.7,35 51.9,34.5 52.2,34.1 C52.4,33.7 52.6,33.3 52.8,33 C53.1,32.4 53.3,32.1 53.3,32.1 C53.3,32.1 53.2,32.5 52.9,33.1 C52.7,33.7 52.2,34.6 51.9,35.7 C51.7,36.2 51.5,36.8 51.3,37.4 C51.1,38 50.9,38.7 50.7,39.4 C50.5,40.1 50.3,40.8 50.2,41.5 C50,42.2 49.9,43 49.8,43.7 C49.7,44.4 49.6,45.2 49.5,45.9 C49.5,46.6 49.4,47.4 49.4,48.1 C49.4,48.8 49.4,49.5 49.4,50.1 C49.4,50.8 49.5,51.4 49.6,51.9 C49.7,52.5 49.8,53 49.9,53.4 C50,53.9 50.1,54.2 50.2,54.6 C50.1,55.3 50.2,55.7 50.2,55.7 Z" fill="#519B3D"/>
                <path d="M26.7,88.2 C26.7,88.2 27,87.8 27.5,87 C27.8,86.6 28,86.1 28.4,85.6 C28.7,85 29.1,84.4 29.4,83.7 C29.8,83 30.1,82.3 30.5,81.4 C30.9,80.6 31.2,79.7 31.5,78.8 C31.8,77.9 32.1,76.9 32.4,76 C32.6,75 32.9,74 33,73 L33.2,71.5 C33.2,71 33.3,70.5 33.3,70 C33.4,69 33.3,68 33.3,67 C33.3,66 33.1,65.1 33,64.2 C32.9,63.8 32.9,63.3 32.8,62.9 C32.7,62.5 32.6,62.1 32.5,61.7 C32.3,61 32.2,60.2 32,59.7 C31.8,59.1 31.6,58.6 31.4,58.2 C31.1,57.3 30.9,56.9 30.9,56.9 C30.9,56.9 31.1,57.4 31.5,58.2 C31.7,58.6 31.9,59.1 32.2,59.7 C32.5,60.3 32.6,61 32.8,61.7 C32.9,62.1 33,62.5 33.1,62.9 C33.2,63.3 33.3,63.7 33.3,64.2 C33.4,65.1 33.7,66 33.7,67 C33.7,68 33.8,69 33.7,70 C33.7,70.5 33.6,71 33.6,71.6 L33.4,73.2 C33.3,74.2 33,75.3 32.7,76.3 C32.4,77.3 32.1,78.3 31.8,79.2 C31.4,80.1 31.1,81 30.7,81.8 C30.3,82.6 29.9,83.4 29.5,84 C29.1,84.7 28.7,85.3 28.4,85.8 C28,86.3 27.7,86.8 27.4,87.1 C27.1,87.8 26.7,88.2 26.7,88.2 Z" fill="#519B3D"/>
                <path d="M16.2,98.7 C14.6,99.9 10.5,102.3 8.7,102.4 C6.9,102.5 6.7,100.7 4.3,101.2 C1.9,101.8 1.7,104 2.8,105.3 C3.9,106.5 4.3,106.5 5.2,106.4 C5.2,106.4 5,107.3 5.5,108.3 C6.1,109.6 7.4,109.7 8.6,109.2 C9.8,108.7 10.3,108.9 10.3,108.9 C10.3,108.9 9.9,110.6 10.9,111.6 C12.3,112.9 13.6,112.5 15.1,110.9 C16.6,109.3 18.6,109 21.7,109 C24,109 25.1,107.7 26.4,106.5 C27.3,105.7 28.4,105.2 29.2,105.7 C30.4,106.5 31.9,107.1 32.5,105.8 C33.6,103.5 29.7,103.5 29.7,102 C29.7,99.7 34.2,95.5 30.3,94.8 C26.4,94.1 19.1,96.5 16.2,98.7 Z" fill="#7CBF2E"/>
                <path d="M30.3,103.1 C30.3,103.1 30.2,103.1 30,102.9 C29.8,102.8 29.7,102.5 29.6,102.1 C29.5,101.7 29.6,101.2 29.7,100.7 C29.8,100.2 30.1,99.6 30.4,99 C30.7,98.4 31.1,97.8 31.5,97.1 C31.9,96.5 32.4,95.8 32.8,95.1 C33.8,93.7 34.8,92.3 35.8,90.9 C36.9,89.5 38,88.1 39,86.8 C40,85.5 41,84.3 41.9,83.3 C43.6,81.3 44.8,79.9 44.8,79.9 C44.8,79.9 43.8,81.3 42.2,83.5 C40.6,85.6 38.5,88.5 36.4,91.3 C35.4,92.7 34.3,94.1 33.3,95.5 C32.8,96.2 32.4,96.8 31.9,97.5 C31.5,98.1 31.1,98.7 30.7,99.3 C30.4,99.9 30.1,100.4 29.9,100.9 C29.7,101.4 29.6,101.8 29.6,102.2 C29.6,102.6 29.7,102.9 29.9,103 C30.2,103.1 30.3,103.1 30.3,103.1 Z" fill="#519B3D"/>
                <path d="M5.2,106.5 C5.2,106.5 5.2,106.3 5.3,106 C5.3,105.9 5.4,105.7 5.5,105.5 C5.6,105.3 5.7,105.1 5.9,104.9 C6.3,104.5 6.9,104.1 7.6,104.1 C8,104.1 8.3,104.1 8.7,104.1 C9.1,104.2 9.4,104.3 9.7,104.3 C10.3,104.4 11,104.3 11.6,104.2 C12.2,104.1 12.8,103.9 13.3,103.7 C13.8,103.5 14.2,103.3 14.4,103.2 C14.7,103 14.8,102.9 14.8,102.9 C14.8,102.9 14.7,103 14.5,103.3 C14.3,103.5 13.9,103.8 13.5,104.1 C13,104.4 12.4,104.6 11.8,104.8 C11.1,105 10.4,105.1 9.7,105 C9.3,105 9,104.9 8.7,104.8 C8.4,104.7 8.1,104.7 7.8,104.7 C7.5,104.7 7.2,104.8 7,104.9 C6.8,105 6.5,105.1 6.3,105.3 C5.9,105.6 5.7,106 5.5,106.2 C5.2,106.3 5.2,106.5 5.2,106.5 Z" fill="#519B3D"/>
                <path d="M10.2,109 C10.2,109 10.2,108.4 10.6,107.7 C10.8,107.3 11.2,107 11.7,106.7 C11.9,106.6 12.2,106.4 12.5,106.4 C12.8,106.3 13.1,106.3 13.3,106.2 C14.4,106 15.5,106 16.2,105.9 C17,105.8 17.5,105.6 17.5,105.6 C17.5,105.6 17.4,105.7 17.2,105.8 C17,105.9 16.7,106.1 16.3,106.2 C15.5,106.5 14.4,106.6 13.4,106.7 C12.4,106.8 11.5,107.3 10.9,107.9 C10.6,108.2 10.5,108.5 10.4,108.7 C10.2,108.9 10.2,109 10.2,109 Z" fill="#519B3D"/>
                <path d="M9.8,113.1 C9.8,113.1 9.7,108.8 11.7,109.6 C12.9,110.1 12.3,110.8 11.4,111.3 C10.7,111.9 10.3,112 9.8,113.1 Z" fill="#A1AF93"/>
                <path d="M4.4,110.1 C4.4,110.1 5.1,105.8 6.9,107 C8,107.7 7.3,108.3 6.3,108.7 C5.4,109.1 5,109.1 4.4,110.1 Z" fill="#A1AF93"/>
                <path d="M0.3,106.2 C0.3,106.2 2.4,102.4 3.7,104.1 C4.5,105.2 3.6,105.5 2.6,105.5 C1.6,105.5 1.3,105.5 0.3,106.2 Z" fill="#A1AF93"/>
              </g>
              <path d="M18.4,26.8 C18.4,26.8 18.2,25.5 18.1,23.5 C18.1,22.5 18.1,21.3 18.1,20.1 C18.2,18.9 18.3,17.5 18.5,16.2 C18.6,15.5 18.7,14.9 18.9,14.2 C19,13.6 19.2,12.9 19.4,12.3 C19.5,11.7 19.8,11.1 20,10.6 C20.2,10.1 20.5,9.6 20.7,9.1 C20.9,8.6 21.2,8.3 21.4,7.9 C21.5,7.7 21.6,7.6 21.7,7.4 C21.8,7.3 21.9,7.2 22,7.1 C22.4,6.7 22.6,6.5 22.6,6.5 C22.6,6.5 22.4,6.8 22.1,7.2 C22,7.3 21.9,7.4 21.8,7.6 C21.7,7.7 21.6,7.9 21.5,8.1 C21.3,8.5 21.1,8.8 20.9,9.3 C20.7,9.8 20.5,10.2 20.3,10.8 C20.1,11.3 19.9,11.9 19.8,12.5 C19.6,13.1 19.5,13.7 19.4,14.3 C19.3,14.9 19.2,15.6 19.1,16.2 C18.9,17.5 18.8,18.8 18.7,20 C18.6,21.2 18.5,22.4 18.5,23.4 C18.4,25.4 18.4,26.8 18.4,26.8 Z" fill="#519B3D"/>
            </g>
            <g transform="translate(144.000000, 134.000000)" id="Shape">
              <g>
                <g>
                  <path d="M6.2,16.1 C-4,31.7 1.2,65.9 14.3,71.3 C34.3,79.5 46,86.7 52.4,89.6 C58.7,92.4 59.6,95.3 65,122.5 C66.4,129.3 75.4,139.4 75.6,124.7 C75.6,121.8 76.1,99.5 73.1,92 C67.5,78.3 61.5,79.7 57,75.9 C51.3,71.2 45.4,61.8 53,47.1 C67.5,19.1 31.5,-22.6 6.2,16.1 Z" fill="#7CBF2E"/>
                  <path d="M65.2,127.7 C64.5,129.6 60.5,132.5 58.8,133 C57.1,133.5 56.5,131.8 54.2,132.9 C52,134 52.3,136.2 53.7,137.2 C55.1,138.2 55.5,138 56.3,137.8 C56.3,137.8 56.3,138.7 57,139.6 C57.9,140.7 59.2,140.6 60.2,139.8 C61.2,139 61.7,139.1 61.7,139.1 C61.7,139.1 61.7,140.9 62.9,141.6 C64.6,142.6 65.7,141.8 66.8,139.9 C67.9,138 69.7,137.3 72.8,136.6 C75,136.1 76.9,131.9 76.4,127.6 C75.7,121.4 75.6,117.5 71.8,116.7 C60.7,114.3 66.4,124.3 65.2,127.7 Z" fill="#7CBF2E"/>
                  <path d="M56.3,137.8 C56.3,137.8 56.3,137.6 56.3,137.3 C56.3,137.1 56.3,137 56.4,136.7 C56.5,136.5 56.5,136.2 56.7,136 C57,135.5 57.5,135 58.2,134.8 C58.5,134.7 58.9,134.6 59.3,134.6 C59.7,134.6 60,134.6 60.3,134.5 C60.9,134.4 61.6,134.2 62.2,133.9 C62.8,133.6 63.3,133.4 63.7,133.1 C64.1,132.8 64.5,132.5 64.7,132.3 C64.9,132.1 65,132 65,132 C65,132 64.9,132.2 64.8,132.4 C64.6,132.7 64.4,133 64,133.4 C63.6,133.8 63.1,134.1 62.5,134.5 C61.9,134.8 61.2,135.1 60.5,135.2 C60.1,135.2 59.8,135.2 59.4,135.2 C59.1,135.2 58.8,135.3 58.5,135.3 C58.2,135.4 57.9,135.5 57.7,135.7 C57.5,135.9 57.3,136 57.1,136.2 C56.8,136.6 56.6,137 56.6,137.3 C56.3,137.6 56.3,137.8 56.3,137.8 Z" fill="#519B3D"/>
                  <path d="M61.7,139.1 C61.7,139.1 61.5,138.5 61.8,137.7 C61.9,137.3 62.2,136.8 62.6,136.5 C62.8,136.3 63,136.1 63.3,136 C63.5,135.8 63.8,135.7 64.1,135.6 C65.1,135.2 66.2,134.9 66.9,134.7 C67.7,134.4 68.1,134.1 68.1,134.1 C68.1,134.1 68,134.2 67.9,134.4 C67.7,134.6 67.5,134.8 67.1,135 C66.4,135.4 65.3,135.8 64.4,136.2 C63.4,136.6 62.6,137.2 62.3,137.9 C62.1,138.2 62,138.5 61.9,138.8 C61.7,139 61.7,139.1 61.7,139.1 Z" fill="#519B3D"/>
                  <path d="M62.3,143.2 C62.3,143.2 61.3,139 63.4,139.4 C64.7,139.6 64.2,140.5 63.5,141.2 C62.8,141.8 62.5,142 62.3,143.2 Z" fill="#A1AF93"/>
                  <path d="M56.3,141.5 C56.3,141.5 56,137.2 58.1,137.9 C59.4,138.4 58.7,139.1 57.9,139.7 C57,140.3 56.7,140.4 56.3,141.5 Z" fill="#A1AF93"/>
                  <path d="M51.5,138.7 C51.5,138.7 52.7,134.5 54.3,135.9 C55.3,136.7 54.5,137.2 53.6,137.5 C52.6,137.7 52.2,137.7 51.5,138.7 Z" fill="#A1AF93"/>
                  <path d="M50.2,65.9 C50.2,65.9 50,65.6 49.9,65 C49.7,64.4 49.5,63.5 49.5,62.4 C49.4,61.9 49.4,61.3 49.4,60.6 C49.4,60 49.4,59.3 49.5,58.6 C49.6,57.9 49.6,57.2 49.8,56.5 C49.9,55.8 50.1,55.1 50.2,54.4 C50.4,53.7 50.6,53 50.8,52.3 C51,51.6 51.2,51 51.5,50.3 C51.7,49.7 52,49.1 52.2,48.5 C52.5,47.9 52.7,47.4 52.9,46.9 C53.3,45.9 53.8,45.1 54.1,44.6 C54.4,44.1 54.6,43.7 54.6,43.7 C54.6,43.7 54.5,44 54.2,44.6 C54,45.2 53.6,46 53.2,47 C53,47.5 52.8,48 52.6,48.6 C52.4,49.2 52.2,49.8 52,50.4 C51.8,51 51.6,51.7 51.4,52.4 C51.2,53.1 51,53.8 50.9,54.5 C50.7,55.2 50.6,55.9 50.4,56.6 C50.2,57.3 50.2,58 50.1,58.6 C49.9,59.9 49.8,61.2 49.9,62.2 C49.9,63.3 50,64.2 50.1,64.8 C50,65.6 50.2,65.9 50.2,65.9 Z" fill="#519B3D"/>
                  <path d="M0.2,36.9 C0.2,36.9 0.7,40.7 1.7,46.3 C2.2,49.1 2.9,52.4 3.8,55.8 C4.3,57.5 4.8,59.3 5.5,61 C6.2,62.7 7,64.4 8.1,65.9 C9.2,67.4 10.6,68.7 12.1,69.7 C13.6,70.7 15.3,71.5 16.9,72.2 C20.2,73.6 23.3,74.9 25.9,76.1 C28.5,77.3 30.6,78.4 32.1,79.2 C33.6,80 34.4,80.5 34.4,80.5 C34.4,80.5 33.5,80.1 32.1,79.3 C30.6,78.6 28.4,77.6 25.8,76.5 C23.2,75.4 20,74.2 16.7,72.8 C15.1,72.1 13.4,71.3 11.8,70.3 C10.2,69.3 8.8,67.9 7.6,66.4 C6.4,64.8 5.6,63.1 4.9,61.3 C4.2,59.5 3.7,57.7 3.2,56 C2.3,52.5 1.7,49.2 1.3,46.4 C0.9,43.6 0.6,41.2 0.4,39.5 C0.3,37.8 0.2,36.9 0.2,36.9 Z" fill="#519B3D"/>
                </g>
                <g transform="translate(19.000000, 6.000000)" fill="#89CE30">
                  <path d="M9.5,12.6 C5.7,7.5 3.5,0.7 10.8,0.7 C18,0.7 28.7,4.5 27.9,11.4 C27,18.1 13.3,17.7 9.5,12.6 Z"/>
                  <path d="M12.5,24.9 C7.1,23 13.8,19.4 19.3,20.6 C24.8,21.8 21,27.9 12.5,24.9 Z"/>
                  <path d="M3.1,14.7 C-0.8,13.3 -0.3,18.1 2.2,19.8 C4.7,21.5 7.8,16.4 3.1,14.7 Z"/>
                </g>
              </g>
              <path d="M49.1,88 C49.1,88 49.5,88.1 50.3,88.4 C51.1,88.7 52.2,89.1 53.4,89.8 C54,90.1 54.7,90.5 55.4,90.9 C55.7,91.1 56.1,91.4 56.4,91.7 C56.7,92 56.9,92.4 57.2,92.8 C58.2,94.3 59,96 59.6,97.8 C60.2,99.6 60.7,101.4 61.2,103.1 C61.6,104.8 62,106.4 62.3,107.8 C62.6,109.2 62.8,110.3 62.9,111.1 C63,111.9 63.1,112.4 63.1,112.4 C63.1,112.4 62.6,110.6 61.9,107.9 C61.6,106.5 61.1,105 60.6,103.3 C60.1,101.6 59.6,99.8 59,98.1 C58.4,96.4 57.7,94.6 56.7,93.2 C56.5,92.9 56.2,92.5 56,92.2 C55.8,91.9 55.4,91.7 55.1,91.4 C54.5,90.9 53.8,90.6 53.2,90.2 C52,89.5 50.9,89 50.2,88.6 C49.6,88.3 49.1,88 49.1,88 Z" fill="#519B3D"/>
            </g>
            <g transform="translate(83.000000, 0.000000)" id="Shape">
              <path d="M177.4,64.6 C168.1,60.3 138,59.2 150.3,101.7 C150.3,101.7 110.9,82.4 112.8,126.1 C112.8,126.1 55.6,89.8 23.1,126.1 C23.1,126.1 49.8,64.6 24.3,31 C24.3,31 42.9,-7.4 105.5,7.4 C134.9,14.3 177.4,64.6 177.4,64.6 Z" fill="#B4D189"/>
              <path d="M1,129.7 C1,129.7 33.5,98.4 30.5,77.8 C27.5,57.1 8.1,33 11,21.2 C13.9,9.4 22.2,0.5 32.2,2.3 C32.2,2.3 19.8,4.1 21,14.7 C21,14.7 62.4,-3.9 101.6,2 C132.5,6.6 183.2,70.8 183.2,70.8 C183.2,70.8 122,13.2 98.9,10.5 C75.7,7.8 37,13.6 32.8,23.5 C32.8,23.5 81.8,12.3 95.9,24.1 C110.1,35.9 133.1,58.9 153.1,107.3 C153.1,107.3 109.2,40.4 91.5,33.3 C73.8,26.2 34,33 34,33 C34,33 83.6,42.4 96,70.8 C108.4,99.1 114.9,132.2 114.9,132.2 C114.9,132.2 90.9,67.8 71.2,57.4 C52.2,47.4 34.7,43.1 34.7,43.1 C34.7,43.1 46,69.7 41.4,89.8 C36.3,112.2 24.8,118.4 20.4,133.6 C17.5,143.2 -0.8,138 1,129.7 Z" fill="#7CBF2E"/>
              <path d="M3.9,126.9 C3.9,126.9 7.8,122.8 13.1,116.2 C15.7,112.9 18.7,108.9 21.5,104.5 C24.3,100.1 27.1,95.1 28.8,89.8 C29.7,87.1 30.2,84.4 30.2,81.6 C30.1,78.9 29.6,76.2 29.1,73.6 C27.9,68.5 26.3,63.8 24.7,59.9 C21.6,52.1 18.9,47.1 18.9,47.1 C18.9,47.1 19.6,48.3 20.7,50.5 C21.8,52.7 23.4,55.8 25.1,59.8 C26.7,63.7 28.5,68.4 29.7,73.5 C30.3,76.1 30.8,78.8 30.9,81.6 C30.9,84.4 30.4,87.3 29.5,90 C27.7,95.4 24.9,100.4 22,104.8 C19.1,109.2 16.1,113.1 13.4,116.4 C10.7,119.7 8.3,122.3 6.6,124.1 C4.9,125.9 3.9,126.9 3.9,126.9 Z" fill="#519B3D"/>
              <path d="M30.6,32.3 C30.6,32.4 31.4,32.5 32.7,32.8 C34.1,33.1 36,33.4 38.4,34 C40.7,34.5 43.4,35.2 46.3,36.1 C49.2,37 52.2,38 55.2,39.1 C58.2,40.2 61.1,41.5 63.8,42.7 C66.5,43.9 69,45.3 71.1,46.4 C73.2,47.5 74.9,48.6 76.1,49.3 C77.3,50.1 77.9,50.5 77.9,50.5 C77.9,50.5 77.2,50.1 76,49.4 C74.8,48.7 73,47.8 70.9,46.7 C68.8,45.6 66.3,44.4 63.6,43.2 C60.9,42 57.9,40.8 55,39.7 C52,38.6 49,37.5 46.2,36.7 C43.4,35.8 40.7,35 38.4,34.4 C36.1,33.8 34.2,33.3 32.8,33 C31.4,32.5 30.6,32.3 30.6,32.3 Z" fill="#519B3D"/>
              <path d="M29.9,24.3 C29.9,24.3 30.7,24 32.1,23.7 C33.5,23.3 35.6,22.8 38.1,22.2 C39.3,21.9 40.7,21.7 42.1,21.4 C43.5,21.1 45,20.8 46.6,20.6 C49.7,20.1 53.1,19.7 56.5,19.4 C58.2,19.2 59.9,19.1 61.5,19 C63.2,18.9 64.8,18.8 66.4,18.8 C68,18.7 69.5,18.8 71,18.7 C72.5,18.7 73.8,18.7 75.1,18.8 C76.4,18.8 77.5,18.9 78.6,19 C79.6,19.1 80.5,19.2 81.3,19.2 C82.8,19.3 83.6,19.4 83.6,19.4 C83.6,19.4 82.8,19.4 81.3,19.3 C80.6,19.3 79.7,19.2 78.6,19.2 C77.6,19.2 76.4,19.2 75.1,19.2 C73.8,19.2 72.5,19.2 71,19.2 C69.5,19.2 68,19.2 66.4,19.3 C64.8,19.4 63.2,19.4 61.5,19.6 C59.8,19.7 58.2,19.8 56.5,20 C53.1,20.3 49.8,20.7 46.6,21.2 C43.5,21.7 40.5,22.1 38.1,22.6 C35.6,23.1 33.5,23.5 32.1,23.8 C30.7,24 29.9,24.3 29.9,24.3 Z" fill="#519B3D"/>
              <path d="M21,14.7 C21,14.7 22.1,14.2 24,13.4 C25,13 26.2,12.5 27.5,12 C28.9,11.5 30.4,10.9 32.1,10.3 C33.8,9.7 35.7,9.1 37.6,8.5 C39.6,7.9 41.7,7.3 43.8,6.6 C46,6.1 48.2,5.4 50.6,4.9 C52.9,4.4 55.3,3.8 57.6,3.4 C58.8,3.2 60,3 61.2,2.7 C62.4,2.5 63.6,2.3 64.7,2.2 C65.9,2 67,1.8 68.2,1.7 C69.4,1.6 70.5,1.5 71.6,1.3 C72.7,1.2 73.8,1 74.9,1 C76,0.9 77,0.9 78.1,0.8 C79.1,0.7 80.1,0.7 81.1,0.6 C82.1,0.5 83,0.6 83.9,0.6 C85.7,0.6 87.4,0.6 88.8,0.6 C90.3,0.7 91.5,0.8 92.6,0.8 C94.7,0.9 95.9,1 95.9,1 C95.9,1 94.7,1 92.6,0.9 C91.5,0.9 90.3,0.8 88.8,0.8 C87.3,0.8 85.7,0.9 83.9,0.9 C83,0.9 82.1,0.9 81.1,1 C80.1,1.1 79.1,1.1 78.1,1.2 C77.1,1.3 76,1.3 74.9,1.4 C73.8,1.5 72.7,1.6 71.6,1.8 C70.5,1.9 69.3,2.1 68.2,2.2 C67.1,2.3 65.9,2.5 64.7,2.7 C63.5,2.9 62.4,3.1 61.2,3.2 C60,3.4 58.8,3.6 57.7,3.9 C55.3,4.3 53,4.8 50.7,5.3 C48.4,5.8 46.1,6.4 44,6.9 C41.8,7.5 39.7,8 37.7,8.7 C35.7,9.3 33.9,9.9 32.1,10.4 C28.7,11.5 25.8,12.5 23.9,13.3 C22.1,14.2 21,14.7 21,14.7 Z" fill="#519B3D"/>
              <path d="M21.7,131.1 C21.7,131.1 21.7,130.9 21.7,130.5 C21.7,130.1 21.8,129.5 22.1,128.7 C22.5,127.2 23.4,125.1 24.7,122.7 C25.4,121.5 26.1,120.3 27,119 C27.8,117.7 28.8,116.3 29.8,115 C31.8,112.3 33.6,109.2 35.2,105.9 C36.8,102.7 38.1,99.3 39.2,96.1 C40.3,92.9 41.1,89.9 41.6,87.2 C42.1,84.6 42.4,82.3 42.5,80.7 C42.5,79.9 42.5,79.3 42.5,78.9 C42.5,78.5 42.5,78.3 42.5,78.3 C42.5,78.3 42.5,78.5 42.6,78.9 C42.6,79.3 42.7,79.9 42.7,80.7 C42.7,82.3 42.5,84.5 42.1,87.2 C41.6,89.9 40.9,93 39.8,96.2 C38.7,99.4 37.4,102.8 35.8,106.1 C34.2,109.3 32.3,112.5 30.3,115.2 C29.3,116.6 28.3,117.9 27.5,119.1 C26.6,120.4 25.8,121.6 25.1,122.8 C24.4,124 23.8,125 23.3,126 C22.8,127 22.5,127.9 22.2,128.6 C21.9,129.3 21.8,130 21.8,130.4 C21.7,130.8 21.7,131.1 21.7,131.1 Z" fill="#519B3D"/>
              <path d="M32.3,39.5 C32.3,39.5 32.5,39.6 32.7,39.9 C32.9,40.2 33.3,40.6 33.6,41.2 C34.3,42.3 35.1,43.9 35.8,45.5 C36.5,47.1 37,48.8 37.3,50.1 C37.5,50.7 37.5,51.3 37.6,51.7 C37.7,52.1 37.7,52.3 37.7,52.3 C37.7,52.3 37.6,52.1 37.5,51.7 C37.4,51.3 37.2,50.8 36.9,50.2 C36.4,49 35.8,47.3 35.2,45.7 C34.6,44.1 33.9,42.5 33.3,41.3 C32.8,40.2 32.3,39.5 32.3,39.5 Z" fill="#519B3D"/>
              <path d="M32.8,23.5 C32.8,23.5 32.9,23.2 33.2,22.6 C33.4,22.3 33.6,22 33.8,21.7 C34.1,21.4 34.4,21 34.8,20.7 C35.2,20.4 35.6,20 36.1,19.6 C36.6,19.2 37.1,18.9 37.7,18.6 C38.3,18.3 38.9,18 39.5,17.6 C40.1,17.3 40.7,17 41.4,16.7 C42,16.4 42.7,16.2 43.3,16 C43.9,15.8 44.6,15.6 45.2,15.4 C46.4,15 47.6,14.7 48.6,14.4 C49.6,14.1 50.5,14 51,13.9 C51.6,13.8 51.9,13.7 51.9,13.7 C51.9,13.7 50.6,14.1 48.6,14.8 C47.6,15.1 46.5,15.5 45.3,16 C44.7,16.2 44.1,16.4 43.4,16.7 C42.8,17 42.1,17.2 41.5,17.5 C40.9,17.8 40.3,18.1 39.6,18.3 C39,18.6 38.4,18.9 37.8,19.2 C37.3,19.5 36.7,19.8 36.2,20.1 C35.7,20.4 35.3,20.7 34.9,21 C34.5,21.3 34.1,21.6 33.9,21.9 C33.6,22.2 33.4,22.5 33.2,22.7 C32.9,23.2 32.8,23.5 32.8,23.5 Z" fill="#519B3D"/>
              <path d="M21.8,9.1 C21.8,9.1 21.6,9.9 21.4,11.1 C21.3,11.7 21.2,12.4 21.2,13.1 C21.2,13.8 21.3,14.6 21.6,15.3 C21.7,15.5 21.8,15.6 21.9,15.8 C22,16 22.1,16.1 22.3,16.3 C22.5,16.7 22.7,17.1 22.8,17.5 C22.9,18.3 22.7,19.1 22.4,19.7 C22.1,20.3 21.6,20.6 21.3,20.7 C21,20.8 20.7,20.8 20.7,20.8 C20.7,20.8 20.9,20.8 21.2,20.6 C21.5,20.4 21.8,20 22.1,19.5 C22.3,19 22.5,18.3 22.3,17.6 C22.2,17.3 22.1,16.9 21.9,16.6 C21.8,16.4 21.7,16.3 21.6,16.1 C21.5,15.9 21.3,15.7 21.2,15.5 C20.8,14.7 20.8,13.8 20.8,13 C20.8,12.2 21,11.5 21.2,10.9 C21.4,9.8 21.8,9.1 21.8,9.1 Z" fill="#519B3D"/>
              <path d="M49,111.2 C49,111.2 49.2,111.1 49.7,111 C50.2,110.9 50.9,110.7 51.8,110.5 C52.7,110.3 53.8,110.2 55.1,110 C56.4,109.8 57.8,109.8 59.4,109.7 C60.2,109.7 61,109.7 61.9,109.7 C62.7,109.7 63.6,109.8 64.5,109.8 C66.3,109.8 68.2,110.1 70.2,110.3 C71.2,110.4 72.2,110.6 73.2,110.8 C74.2,111 75.2,111.1 76.2,111.3 C77.2,111.5 78.2,111.7 79.2,112 L80.7,112.3 L82.2,112.7 C84.2,113.3 86.3,113.8 88.2,114.5 C89.2,114.8 90.1,115.2 91.1,115.5 C91.6,115.7 92.1,115.8 92.5,116 C93,116.2 93.4,116.4 93.9,116.6 C95.7,117.3 97.5,118.1 99.1,118.8 C100.7,119.6 102.3,120.3 103.7,121 C104.4,121.3 105.1,121.7 105.7,122 C106.3,122.4 106.9,122.7 107.5,123 C108.6,123.6 109.6,124.2 110.4,124.6 C112,125.5 112.9,126 112.9,126 C112.9,126 112,125.5 110.3,124.7 C109.5,124.3 108.5,123.8 107.4,123.2 C106.8,122.9 106.2,122.6 105.6,122.3 C104.9,122 104.3,121.7 103.6,121.4 C102.2,120.7 100.6,120 99,119.3 C97.3,118.6 95.6,117.9 93.8,117.2 C93.3,117 92.9,116.8 92.4,116.6 C91.9,116.4 91.5,116.3 91,116.1 C90,115.8 89.1,115.4 88.1,115.1 C86.2,114.4 84.1,113.9 82.1,113.3 L80.6,112.9 L79.1,112.6 C78.1,112.4 77.1,112.1 76.1,111.9 C75.1,111.7 74.1,111.5 73.1,111.4 C72.1,111.2 71.1,111 70.2,110.9 C68.3,110.7 66.4,110.4 64.6,110.3 C63.7,110.3 62.8,110.2 62,110.2 C61.2,110.2 60.3,110.2 59.6,110.2 C58.8,110.2 58.1,110.2 57.4,110.3 C56.7,110.3 56,110.3 55.4,110.4 C54.1,110.5 53,110.6 52.1,110.7 C51.2,110.8 50.5,111 50,111.1 C49.2,111.1 49,111.2 49,111.2 Z" fill="#7D9950"/>
              <path d="M69,56.3 C69,56.3 69.3,56.4 69.9,56.6 C70.5,56.8 71.4,57.2 72.4,57.9 C74.5,59.2 77.1,61.4 79.9,64.5 C81.3,66.1 82.7,67.8 84.1,69.7 C85.5,71.6 86.9,73.7 88.2,75.9 C89.6,78.1 90.9,80.4 92.2,82.8 C92.9,84 93.5,85.2 94.2,86.4 C94.9,87.6 95.5,88.8 96.1,90.1 C98.6,95 101,100 103.2,104.7 C104.3,107 105.3,109.3 106.3,111.5 C107.3,113.7 108.2,115.7 109,117.6 C110.6,121.4 112,124.6 112.9,126.8 C113.8,129 114.3,130.3 114.3,130.3 C114.3,130.3 113.7,129 112.8,126.8 C111.8,124.6 110.4,121.5 108.7,117.7 C107,113.9 105,109.6 102.7,104.9 C100.5,100.2 98.1,95.3 95.5,90.4 C94.2,88 93,85.5 91.6,83.2 C90.3,80.8 89,78.5 87.6,76.3 C84.9,71.9 82.2,67.9 79.5,64.8 C78.1,63.2 76.8,61.9 75.6,60.7 C74.4,59.6 73.2,58.7 72.2,58 C71.2,57.3 70.4,56.9 69.8,56.7 C69.4,56.3 69,56.3 69,56.3 Z" fill="#519B3D"/>
              <path d="M149,74.7 C149,74.7 149.1,74.2 149.4,73.4 C149.6,73 149.8,72.5 150,72 C150.3,71.5 150.6,70.8 151,70.2 C151.4,69.6 152,68.9 152.5,68.3 C153.1,67.7 153.7,67 154.5,66.4 C155.2,65.8 156.1,65.3 156.9,64.8 C157.3,64.5 157.8,64.4 158.3,64.2 C158.8,64 159.2,63.8 159.7,63.6 L161.2,63.2 C161.7,63.1 162.2,62.9 162.7,62.9 C163.2,62.8 163.7,62.8 164.2,62.7 L164.9,62.6 C165.1,62.6 165.4,62.6 165.6,62.6 C166.5,62.6 167.5,62.6 168.3,62.6 C169.2,62.7 170,62.8 170.7,62.9 C171.1,63 171.4,63 171.8,63 C172.1,63.1 172.5,63.2 172.7,63.2 C173.3,63.3 173.8,63.5 174.2,63.6 C175,63.8 175.5,63.9 175.5,63.9 C175.5,63.9 175,63.8 174.1,63.7 C173.7,63.6 173.1,63.5 172.5,63.4 C172.2,63.3 171.9,63.3 171.5,63.2 C171.2,63.2 170.8,63.1 170.4,63.1 C169.7,63 168.9,63 168,62.9 C167.1,62.9 166.3,63 165.3,63 C165.1,63 164.8,63 164.6,63 L163.9,63.1 C163.4,63.2 163,63.2 162.5,63.3 C162,63.3 161.5,63.5 161.1,63.6 L159.7,64 C159.2,64.1 158.8,64.4 158.3,64.5 C157.9,64.7 157.4,64.8 157,65.1 C156.2,65.6 155.3,66 154.6,66.6 C153.8,67.1 153.2,67.8 152.6,68.3 C152,68.9 151.5,69.5 151.1,70.1 C150.6,70.7 150.3,71.3 150,71.8 C149.7,72.3 149.4,72.8 149.3,73.2 C149.1,74.2 149,74.7 149,74.7 Z" fill="#7D9950"/>
              <path d="M115.3,108.4 C115.3,108.4 115.5,107.9 115.9,107 C116.1,106.6 116.4,106 116.8,105.4 C117,105.1 117.2,104.8 117.4,104.5 C117.7,104.2 117.9,103.9 118.2,103.5 C118.5,103.2 118.8,102.9 119.1,102.5 C119.4,102.2 119.8,101.8 120.2,101.5 C120.6,101.2 121,100.9 121.4,100.6 C121.8,100.3 122.3,100 122.8,99.8 C123,99.7 123.3,99.5 123.5,99.4 C123.8,99.3 124,99.2 124.3,99.1 C124.8,98.9 125.3,98.7 125.9,98.4 C126.4,98.2 127,98.1 127.6,97.9 L128.4,97.7 C128.7,97.6 129,97.6 129.3,97.6 C130.4,97.5 131.6,97.2 132.7,97.3 C133.8,97.3 135,97.2 136,97.4 C137.1,97.5 138.1,97.6 139.1,97.8 C140.1,98 141,98.2 141.8,98.4 C142.6,98.6 143.4,98.9 144,99.1 C144.7,99.3 145.2,99.5 145.7,99.7 C146.6,100 147.2,100.2 147.2,100.2 C147.2,100.2 146.7,100 145.7,99.8 C145.2,99.7 144.6,99.5 144,99.3 C143.3,99.1 142.6,98.9 141.7,98.7 C140.9,98.5 140,98.4 139,98.2 C138.5,98.1 138,98.1 137.5,98 C137,98 136.5,97.9 135.9,97.8 C134.8,97.6 133.8,97.7 132.6,97.7 C131.5,97.7 130.4,97.9 129.3,98 C129,98 128.7,98.1 128.5,98.1 L127.7,98.3 C127.2,98.4 126.6,98.6 126.1,98.7 C125.6,98.9 125.1,99.1 124.6,99.3 C124.3,99.4 124.1,99.5 123.9,99.6 C123.7,99.7 123.4,99.9 123.2,100 C122.7,100.3 122.3,100.5 121.9,100.8 C121.5,101.1 121.1,101.4 120.7,101.7 C120.3,102 120,102.3 119.6,102.6 C119.3,102.9 118.9,103.2 118.7,103.5 C118.4,103.8 118.1,104.1 117.9,104.4 C117.7,104.7 117.4,105 117.2,105.3 C116.8,105.8 116.5,106.4 116.2,106.8 C115.5,107.8 115.3,108.4 115.3,108.4 Z" fill="#7D9950"/>
              <path d="M82.5,30.9 C82.5,30.9 83.2,31 84.4,31.2 C85.6,31.4 87.3,31.7 89.3,32.3 C90.3,32.6 91.4,32.9 92.5,33.4 C93.6,33.9 94.7,34.6 95.8,35.3 C98,36.8 100.1,38.6 102.2,40.5 C104.2,42.5 106.1,44.5 107.8,46.5 C109.6,48.4 111.1,50.3 112.5,51.9 C115.2,55.1 116.9,57.3 116.9,57.3 C116.9,57.3 115,55.2 112.2,52.1 C110.8,50.6 109.1,48.7 107.4,46.8 C105.6,44.9 103.7,42.8 101.7,40.9 C99.7,38.9 97.6,37.1 95.5,35.7 C94.4,35 93.4,34.3 92.3,33.8 C91.2,33.3 90.2,32.9 89.2,32.6 C87.2,32 85.5,31.5 84.3,31.2 C83.2,31 82.5,30.9 82.5,30.9 Z" fill="#519B3D"/>
              <path d="M183.3,70.7 C183.3,70.7 180.2,68 175.5,63.9 C173.2,61.9 170.4,59.5 167.5,56.9 C164.6,54.4 161.5,51.6 158.3,49 C155.2,46.3 152,43.6 149,41.2 C146,38.7 143.2,36.4 140.8,34.5 C139.6,33.6 138.5,32.7 137.5,31.9 C136.5,31.2 135.6,30.5 134.9,30 C133.4,29 132.5,28.4 132.5,28.4 C132.5,28.4 133.4,28.9 134.9,29.9 C135.7,30.4 136.6,31 137.6,31.7 C138.6,32.4 139.8,33.3 141,34.2 C143.5,36.1 146.4,38.3 149.4,40.7 C152.4,43.1 155.6,45.8 158.7,48.5 C161.8,51.2 164.9,53.9 167.8,56.5 C170.7,59.1 173.4,61.5 175.7,63.6 C178,65.7 179.9,67.5 181.2,68.7 C182.5,70 183.3,70.7 183.3,70.7 Z" fill="#519B3D"/>
            </g>
          </g>
        </g>
      </g>
    </g>
  </g>
</svg>