<?xml version="1.0" encoding="utf-8"?>
<!-- Generator: Adobe Illustrator 18.0.0, SVG Export Plug-In . SVG Version: 6.00 Build 0)  -->
<!DOCTYPE svg PUBLIC "-//W3C//DTD SVG 1.1//EN" "http://www.w3.org/Graphics/SVG/1.1/DTD/svg11.dtd">
<svg version="1.1" id="Layer_2" xmlns="http://www.w3.org/2000/svg" xmlns:xlink="http://www.w3.org/1999/xlink" x="0px" y="0px"
	 viewBox="0 0 44.8 53" enable-background="new 0 0 44.8 53" xml:space="preserve">
<g>
	<path fill="#53AD4E" d="M44.6,47.7c-0.1-0.2-0.1-0.4-0.1-0.6c0-1.4-0.2-1.1-1.3-0.9c0,0-0.1,0-0.1,0c-1.7,0.4-3.2,0-4.2-1.5
		c-1.7-2.7-3.2-5.4-4.8-8.1c-1.2-2.1-2.2-4.3-3.3-6.4c-1.2-2.1-2.4-4.2-3.6-6.3c-0.2-0.3-0.2-0.9,0-1.2c0.4-1,1-1.8,1.5-2.8
		c0.6-1.1,1.1-2.3,1.6-3.4c1.1-2.1,2.2-4.2,3.4-6.2c0.4-0.7,0.8-1.4,1.2-2c0.4-0.7,1-1.2,1.3-1.9c0.8-1.7,2.1-2.7,3.9-3
		c0.9-0.1,1.7-0.2,2.5-0.3c0-0.7,0-1.3,0.1-1.9c0.1-0.9,0-1-0.9-1c-1.6,0-3.2,0-4.8,0c-3.1,0-6.1,0.1-9.1,0.2
		c-0.1,0-0.3,0.1-0.4,0.2c-1.2,1.2-2.4,2.3-3.5,3.5c-0.4,0.4-0.3,1.9,0.1,2.2c0.1,0.1,0.3,0.1,0.4,0.1c0.9,0,1.9,0,2.8,0
		c0.8,0,1.2,0.5,1.1,1.2c0,0.4-0.2,0.8-0.4,1.2c-0.7,1.4-1.5,2.8-2.3,4.1c-0.7,1.3-1.4,2.5-2.2,3.9c-0.2-0.3-0.3-0.5-0.4-0.8
		c-0.7-1.3-1.2-2.6-2-3.9c-1.2-2-2.5-3.9-3.7-5.9c-0.3-0.5-0.6-1.1-0.8-1.6c-0.3-0.7-0.1-1,0.7-1.2c0.7-0.1,1.4-0.2,2.1-0.2
		C20.8,3,20.8,3,20.8,1.6c0-0.2,0-0.4,0-0.6c0.2-0.8-0.2-1-1-1c-1.7,0-3.5,0-5.2,0c-2.8,0-5.5,0.1-8.3,0.2c-0.2,0-0.5,0.1-0.7,0.3
		C4.3,1.7,2.9,3,1.5,4.2C1.1,4.6,1.1,6.5,1.6,7c0.1,0.1,0.2,0.2,0.3,0.2c1,0.2,2.1,0.4,3.1,0.6c1.4,0.2,2.5,0.8,3.2,2.2
		c0.4,0.9,0.8,1.8,1.2,2.7c0.3,0.6,0.5,1.3,0.8,2c1.2,2.6,2.5,5.3,3.7,7.9c0.8,1.7,1.5,3.4,2.3,5.1c0.2,0.5,0.4,0.9,0.1,1.4
		c-0.4,0.8-0.8,1.6-1.2,2.4c-2.7,4.7-5.4,9.3-8.1,14c-0.4,0.7-1,1-1.8,1c-0.3,0-0.7,0.1-1,0.2c-1.1,1-2.2,2-3.3,3
		c-0.8,0.7-1.1,1.5-0.8,2.5c0.2,0.6,0.3,0.9,1,0.9c2.2-0.1,4.4-0.2,6.5-0.1c2.8,0,5.7,0.1,8.5,0.2c0.2,0,0.6-0.1,0.7-0.3
		c0.4-0.6,0.8-1.2,1.1-1.8c0.7-1.2,2.2-1.9,2.2-3.5c0,0,0-0.1,0-0.2c0.2-0.8,0.1-1-0.8-1c-1.3-0.1-2.5-0.2-3.8-0.4
		c-0.8-0.1-1-0.5-0.6-1.1c0.7-1.3,1.3-2.5,2-3.7c0.5-0.9,1.1-1.8,1.7-2.8c0.7-1.2,1.3-2.5,2-3.8c0.6,1.1,1.2,2,1.6,3
		c1.3,3.2,2.9,6.3,5,9.2c0.1,0.2,0.1,0.6-0.1,0.8c-0.9,1-1.9,1.9-2.8,2.9c-0.5,0.5-0.8,1.8-0.4,2.3c0.1,0.2,0.4,0.3,0.6,0.3
		c0.6,0,1.1-0.1,1.7-0.1c1.5,0,3.1,0,4.7-0.1c1.6-0.1,3.2-0.3,4.9-0.3c1.8,0,3.6,0.1,5.4,0.1c0.3,0,0.6,0,0.8-0.2
		c0.7-0.7,1.4-1.5,2.1-2.2C44.9,49.3,44.9,48.6,44.6,47.7z M1.8,6.2c0.1-0.6,0-1,0.2-1.2c1.2-1.3,2.5-2.6,3.9-4C6,1.8,6,2.4,5.5,2.9
		c-1,1-2.1,2-3.2,2.9C2.2,5.9,2.1,6,1.8,6.2z M0.9,51.9C0.5,51.3,0.6,51,1,50.6c1.1-1.2,2.3-2.4,3.5-3.8c0.2,1.7-0.3,2.8-1.5,3.6
		C2.3,50.8,1.6,51.4,0.9,51.9z M18.3,49.2c-0.7,0.9-1.3,1.7-1.9,2.5c-0.2,0.2-0.5,0.4-0.7,0.4C11.1,51.8,6.5,52,2,52.4
		c-0.1,0-0.1,0-0.3-0.1C2,52,2.2,51.9,2.4,51.7c0.8-0.7,1.7-1.3,2.5-2c0.5-0.4,1-0.6,1.6-0.6c2.5,0.1,4.9,0.1,7.3,0.1
		C15.3,49.3,16.8,49.2,18.3,49.2z M18.5,30.7c-0.7,1.4-1.5,2.8-2.2,4.2c-0.3,0.5-0.6,0.9-0.8,1.4c-0.9,1.8-1.8,3.6-2.7,5.3
		c-1.2,2.2-2.8,4.1-5.5,4.4c2.5-4.3,5.1-8.5,7.6-12.8c0.8-1.3,1.3-2.8,2.1-4.1c0.3-0.6,0.9-1.1,1.4-1.5c0.6-0.5,1.4-0.8,2.3-1.2
		C20,28,19.3,29.3,18.5,30.7z M17.1,27.6c-0.1-0.1-0.3-0.4-0.4-0.6c-1.6-3.5-3.1-7-4.7-10.5c-1.1-2.4-2.3-4.8-3.5-7.2
		C7.8,7.9,6.6,7.2,5.1,7C4.3,6.9,3.5,6.8,2.7,6.7c0-0.1,0-0.2,0-0.2c1.1-1,2.2-2,3.3-3c0.2-0.2,0.5-0.3,0.8-0.3C8,3.3,9,3.5,9.9,4.7
		c1.1,1.6,1.8,3.3,2.6,5c0.6,1.2,1.4,2.3,2,3.4c1.4,2.7,2.8,5.4,4.2,8.1c0.7,1.4,1.6,2.8,2.4,4.2C19.7,26.2,18.5,26.9,17.1,27.6z
		 M24.4,5.1c0.1-0.2,0.1-0.5,0.2-0.6c1-1.1,1.9-2.1,3-3.2C27.8,1.9,28,2.5,27.4,3c-0.9,0.7-1.9,1.4-2.8,2.2
		C24.5,5.1,24.5,5.1,24.4,5.1z M24.1,17c1.4-2.6,2.9-5.1,4.3-7.7c0.2-0.4,0.5-0.8,0.6-1.2c0.4-1.5-0.5-2.5-2-2.6c-0.4,0-0.8,0-1.5,0
		C26.1,5,26.6,4.7,27,4.3c1-1,2.2-1.3,3.5-1c0.6,0.1,1.2,0.1,1.8,0.3c0.7,0.2,1,0.6,0.7,1.3c-0.4,0.8-0.8,1.6-1.3,2.4
		c-1.4,2.4-2.8,4.8-4.2,7.2c-0.9,1.5-1.7,3.1-2.6,4.9c-0.4-0.7-0.7-1.2-0.9-1.7C23.9,17.5,24,17.2,24.1,17z M22.9,36.8
		c-0.4-0.9-1-1.7-1.5-2.6c-0.1-0.2-0.2-0.5-0.1-0.6c0.7-1.3,1.4-2.6,2.2-3.9c0-0.1,0.1-0.1,0.2-0.2c0.8,1.4,1.5,2.7,2.3,4
		c1.4,2.4,2.8,4.8,4.1,7.2c0.7,1.3,1.3,2.8,1.9,4.1c0.1,0.2-0.1,0.6-0.3,0.8c-1.1,0.7-2.4,0.6-3.6,0.4c-0.2,0-0.5-0.4-0.6-0.6
		C25.5,42.8,24.1,39.8,22.9,36.8z M24.4,51.8c0.1-0.3,0.1-0.6,0.3-0.8c1.2-1.2,2.4-2.4,3.6-3.7c0.2,0.8,0.2,1.5-0.6,2.1
		c-1,0.8-2,1.7-3,2.5C24.5,51.9,24.5,51.8,24.4,51.8z M41.8,51.6c-0.2,0.2-0.5,0.2-0.7,0.2c-1.7,0-3.4-0.1-5-0.1
		c-1.7,0-3.4,0.2-5,0.3c-1.7,0.1-3.4,0-5.1,0c0,0,0-0.1,0-0.1c1-0.8,1.9-1.7,2.9-2.5c0.2-0.2,0.5-0.2,0.8-0.2c3.2,0,6.4,0,9.6-0.1
		c1.6,0,3.2-0.2,4.9-0.4c0.1,0.1,0.1,0.2,0.2,0.3C43.4,49.9,42.6,50.8,41.8,51.6z"/>
	<path fill="#FFFFFF" d="M27.4,3c-0.9,0.7-1.9,1.4-2.8,2.2c-0.1,0-0.2-0.1-0.2-0.1c0.1-0.2,0.1-0.5,0.2-0.6c1-1.1,1.9-2.1,3-3.2
		C27.8,1.9,28,2.5,27.4,3z"/>
	<path fill="#FFFFFF" d="M33,4.9c-0.4,0.8-0.8,1.6-1.3,2.4c-1.4,2.4-2.8,4.8-4.2,7.2c-0.9,1.5-1.7,3.1-2.6,4.9
		c-0.4-0.7-0.7-1.2-0.9-1.7c-0.1-0.2,0-0.5,0.1-0.6c1.4-2.6,2.9-5.1,4.3-7.7c0.2-0.4,0.5-0.8,0.6-1.2c0.4-1.5-0.5-2.5-2-2.6
		c-0.4,0-0.8,0-1.5,0C26.1,5,26.6,4.7,27,4.3c1-1,2.2-1.3,3.5-1c0.6,0.1,1.2,0.1,1.8,0.3C33,3.8,33.3,4.2,33,4.9z"/>
	<path fill="#FFFFFF" d="M5.5,2.9c-1,1-2.1,2-3.2,2.9C2.2,5.9,2.1,6,1.8,6.2c0.1-0.6,0-1,0.2-1.2c1.2-1.3,2.5-2.6,3.9-4
		C6,1.8,6,2.4,5.5,2.9z"/>
	<path fill="#FFFFFF" d="M21,25.4c-1.3,0.8-2.5,1.5-3.8,2.2c-0.1-0.1-0.3-0.4-0.4-0.6c-1.6-3.5-3.1-7-4.7-10.5
		c-1.1-2.4-2.3-4.8-3.5-7.2C7.8,7.9,6.6,7.2,5.1,7C4.3,6.9,3.5,6.8,2.7,6.7c0-0.1,0-0.2,0-0.2c1.1-1,2.2-2,3.3-3
		c0.2-0.2,0.5-0.3,0.8-0.3C8,3.3,9,3.5,9.9,4.7c1.1,1.6,1.8,3.3,2.6,5c0.6,1.2,1.4,2.3,2,3.4c1.4,2.7,2.8,5.4,4.2,8.1
		C19.3,22.7,20.2,24,21,25.4z"/>
	<path fill="#FFFFFF" d="M31.6,45.6c-1.1,0.7-2.4,0.6-3.6,0.4c-0.2,0-0.5-0.4-0.6-0.6c-1.9-2.6-3.3-5.5-4.5-8.5
		c-0.4-0.9-1-1.7-1.5-2.6c-0.1-0.2-0.2-0.5-0.1-0.6c0.7-1.3,1.4-2.6,2.2-3.9c0-0.1,0.1-0.1,0.2-0.2c0.8,1.4,1.5,2.7,2.3,4
		c1.4,2.4,2.8,4.8,4.1,7.2c0.7,1.3,1.3,2.8,1.9,4.1C32.1,45,31.8,45.5,31.6,45.6z"/>
	<path fill="#FFFFFF" d="M44.2,49.1c-0.8,0.8-1.6,1.7-2.4,2.5c-0.2,0.2-0.5,0.2-0.7,0.2c-1.7,0-3.4-0.1-5-0.1c-1.7,0-3.4,0.2-5,0.3
		c-1.7,0.1-3.4,0-5.1,0c0,0,0-0.1,0-0.1c1-0.8,1.9-1.7,2.9-2.5c0.2-0.2,0.5-0.2,0.8-0.2c3.2,0,6.4,0,9.6-0.1c1.6,0,3.2-0.2,4.9-0.4
		C44.1,48.8,44.2,49,44.2,49.1z"/>
	<path fill="#FFFFFF" d="M27.7,49.4c-1,0.8-2,1.7-3,2.5c-0.1,0-0.2-0.1-0.2-0.1c0.1-0.3,0.1-0.6,0.3-0.8c1.2-1.2,2.4-2.4,3.6-3.7
		C28.4,48.1,28.4,48.8,27.7,49.4z"/>
	<path fill="#FFFFFF" d="M18.3,49.2c-0.7,0.9-1.3,1.7-1.9,2.5c-0.2,0.2-0.5,0.4-0.7,0.4C11.1,51.8,6.5,52,2,52.4
		c-0.1,0-0.1,0-0.3-0.1C2,52,2.2,51.9,2.4,51.7c0.8-0.7,1.7-1.3,2.5-2c0.5-0.4,1-0.6,1.6-0.6c2.5,0.1,4.9,0.1,7.3,0.1
		C15.3,49.3,16.8,49.2,18.3,49.2z"/>
	<path fill="#FFFFFF" d="M3,50.4c-0.7,0.5-1.4,1-2.2,1.5C0.5,51.3,0.6,51,1,50.6c1.1-1.2,2.3-2.4,3.5-3.8C4.7,48.4,4.2,49.5,3,50.4z
		"/>
	<path fill="#FFFFFF" d="M20.9,26.4c-0.8,1.6-1.6,2.9-2.3,4.3c-0.7,1.4-1.5,2.8-2.2,4.2c-0.3,0.5-0.6,0.9-0.8,1.4
		c-0.9,1.8-1.8,3.6-2.7,5.3c-1.2,2.2-2.8,4.1-5.5,4.4c2.5-4.3,5.1-8.5,7.6-12.8c0.8-1.3,1.3-2.8,2.1-4.1c0.3-0.6,0.9-1.1,1.4-1.5
		C19.2,27.2,19.9,26.9,20.9,26.4z"/>
</g>
</svg>
