<svg version="1.1" width="137" height="149" xmlns="http://www.w3.org/2000/svg" xmlns:xlink="http://www.w3.org/1999/xlink">
  <!-- Exported by Scratch - http://scratch.mit.edu/ -->
  <g id="ID0.666665967553854">
    <path id="L_Arm" fill="#BE1E2D" stroke="#231F20" stroke-width="0.8739" stroke-linecap="round" stroke-linejoin="round" d="M 74.208 140.913 C 74.483 138.874 73.462 135.698 71.578 135.660 C 69.807 135.624 69.089 136.961 69.089 136.961 C 68.220 138.477 66.501 141.192 65.720 143.192 C 65.583 143.546 65.468 143.881 65.359 144.217 L 65.359 144.196 C 65.359 144.196 63.066 145.018 63.517 146.092 C 63.788 146.740 64.396 147.041 64.835 147.188 C 64.855 148.477 65.302 149.459 66.308 150.020 C 68.662 151.334 71.980 147.674 71.980 147.674 C 72.784 146.702 73.933 142.952 74.208 140.913 L 74.208 140.913 L 74.208 140.913 L 74.208 140.913 L 74.208 140.913 L 74.208 140.913 L 74.208 140.913 Z " transform="matrix(0.9002436995506287, 0, 0, 0.9002436995506287, 0.4, 0.2)"/>
    <path id="R_Arm" fill="#BE1E2D" stroke="#231F20" stroke-width="0.8739" stroke-linecap="round" stroke-linejoin="round" d="M 89.551 146.699 C 88.008 144.932 87.060 139.809 86.838 138.762 C 86.617 137.715 87.224 135.345 88.615 134.866 C 90.006 134.386 91.365 135.742 91.365 135.742 C 92.379 137.164 94.358 139.699 95.336 141.608 C 95.506 141.947 95.653 142.272 95.797 142.592 L 95.795 142.572 C 95.795 142.572 98.158 143.166 97.816 144.278 C 97.609 144.951 97.038 145.309 96.613 145.498 C 96.718 146.783 96.376 147.809 95.427 148.463 C 93.217 150.010 89.551 146.699 89.551 146.699 L 89.551 146.699 L 89.551 146.699 L 89.551 146.699 L 89.551 146.699 L 89.551 146.699 L 89.551 146.699 Z " transform="matrix(0.9002436995506287, 0, 0, 0.9002436995506287, 0.4, 0.2)"/>
    <path id="R_Leg" fill="#BE1E2D" stroke="#231F20" stroke-linecap="round" stroke-linejoin="round" d="M 84.953 148.237 C 86.684 147.734 88.809 148.237 88.809 148.237 C 88.809 148.237 89.750 153.955 90.038 156.024 C 90.327 158.096 91.399 161.336 91.399 161.336 C 91.399 161.336 91.940 161.660 91.788 162.506 C 91.632 163.350 89.774 163.514 87.444 163.957 C 85.118 164.395 83.216 164.020 82.850 163.188 C 82.481 162.360 83.169 161.974 83.169 161.974 C 83.169 161.974 84.253 155.145 83.266 152.795 C 83.271 152.800 82.746 148.878 84.953 148.237 L 84.953 148.237 L 84.953 148.237 L 84.953 148.237 L 84.953 148.237 L 84.953 148.237 L 84.953 148.237 Z " transform="matrix(0.9002436995506287, 0, 0, 0.9002436995506287, 0.4, 0.2)"/>
    <path id="L_Leg" fill="#BE1E2D" stroke="#231F20" stroke-linecap="round" stroke-linejoin="round" d="M 77.492 148.878 C 75.448 147.940 73.714 150.149 73.714 150.149 C 73.714 150.149 74.056 155.875 74.095 157.961 C 74.132 160.053 74.077 162.010 74.077 162.010 C 74.077 162.010 73.591 162.412 73.876 163.225 C 74.161 164.038 76.021 163.913 78.388 163.990 C 80.759 164.065 82.576 163.399 82.812 162.522 C 83.044 161.647 82.304 161.375 82.304 161.375 C 82.304 161.375 80.327 155.646 80.945 153.180 C 80.944 153.177 80.612 150.309 77.492 148.878 L 77.492 148.878 L 77.492 148.878 L 77.492 148.878 L 77.492 148.878 L 77.492 148.878 L 77.492 148.878 Z " transform="matrix(0.9002436995506287, 0, 0, 0.9002436995506287, 0.4, 0.2)"/>
    <g id="Body_1_">
      <path id="Body" fill="#BE1E2D" stroke="#000000" d="M 89.526 140.901 C 89.426 140.235 89.284 139.537 89.118 138.853 C 88.590 134.967 85.418 128.738 78.588 129.738 C 71.756 130.738 71.734 138.856 71.734 138.856 L 71.734 138.856 C 71.398 142.365 71.321 148.637 74.534 150.830 C 78.412 153.476 82.153 153.742 85.680 151.756 C 89.246 149.744 89.987 144.013 89.526 140.901 L 89.526 140.901 L 89.526 140.901 L 89.526 140.901 L 89.526 140.901 L 89.526 140.901 L 89.526 140.901 Z " transform="matrix(0.9002436995506287, 0, 0, 0.9002436995506287, 0.4, 0.2)"/>
      <path id="Belly" fill="#E6E7E8" stroke="#231F20" stroke-linecap="round" stroke-linejoin="round" d="M 87.642 149.819 C 87.689 148.092 87.519 139.910 80.045 140.430 C 73.463 140.891 75.355 151.215 75.355 151.215 L 75.392 151.375 C 78.965 153.502 82.414 153.594 85.681 151.754 C 86.457 151.316 87.101 150.702 87.625 149.978 L 87.642 149.819 L 87.642 149.819 L 87.642 149.819 L 87.642 149.819 L 87.642 149.819 L 87.642 149.819 L 87.642 149.819 Z " transform="matrix(0.9002436995506287, 0, 0, 0.9002436995506287, 0.4, 0.2)"/>
    </g>
    <g id="Head_3_">
      <g id="Head_2_">
        <path id="Head_1_" fill="#BE1E2D" stroke="#000000" stroke-linecap="round" stroke-linejoin="round" d="M 129.344 107.740 L 128.750 109.460 C 125.455 118.148 120.771 123.148 120.771 123.148 C 120.771 123.148 120.939 121.597 120.849 119.105 L 120.703 119.054 C 120.281 120.366 119.588 122.058 118.436 124.148 C 115.910 128.738 108.492 132.586 108.492 132.586 C 108.492 132.586 108.953 131.008 109.242 128.426 L 109.138 128.031 C 108.334 128.650 107.500 129.219 106.657 129.773 C 106.409 129.937 106.161 130.097 105.909 130.252 C 105.142 130.729 104.361 131.184 103.564 131.609 C 103.249 131.775 102.922 131.929 102.603 132.088 C 102.021 132.379 101.431 132.654 100.832 132.920 C 100.392 133.113 99.949 133.305 99.498 133.484 C 99.031 133.672 98.551 133.841 98.074 134.017 C 97.197 134.331 96.307 134.624 95.397 134.894 C 95.100 134.982 94.803 135.070 94.501 135.152 C 93.852 135.330 93.198 135.504 92.532 135.658 L 92.534 135.660 C 89.191 136.439 85.644 136.947 81.847 137.181 C 77.739 137.433 74.015 137.392 70.537 137.150 L 70.537 137.150 C 67.785 136.957 65.209 136.627 62.770 136.181 C 62.652 136.160 62.533 136.138 62.414 136.117 C 61.660 135.974 60.918 135.822 60.190 135.658 C 59.936 135.599 59.693 135.535 59.440 135.474 C 58.473 135.244 57.533 134.992 56.606 134.724 C 56.020 134.554 55.438 134.380 54.869 134.195 C 54.531 134.088 54.192 133.976 53.861 133.863 C 52.957 133.551 52.061 133.234 51.192 132.892 L 51.041 133.037 C 51.369 135.386 52.179 136.650 52.826 137.252 C 54.145 138.481 56.684 138.773 56.684 138.773 C 56.684 138.773 48.923 139.859 44.697 133.867 C 44.248 133.230 43.795 132.570 43.365 131.867 L 43.180 131.465 C 42.262 131.158 41.332 130.750 40.414 130.225 C 34.816 127 34.113 124.340 34.113 124.340 L 34.230 125.315 C 34.769 127.856 35.295 129.460 35.295 129.460 C 35.295 129.460 28.595 125.220 25.611 118.866 C 23.205 113.737 23.014 110.630 22.998 110.108 L 22.773 108.242 C 22.628 100.935 23.082 92.739 24.086 84.676 L 24.148 84.461 C 25.043 78.228 24.175 67.902 32.445 57.336 C 47.942 37.542 63.774 38.230 73.243 23.601 C 80.208 12.839 78.419 0.496 78.419 0.496 C 78.419 0.496 82.690 6.543 84.394 10.094 C 86.044 13.555 87.806 18.016 87.806 18.016 L 87.863 17.978 C 87.902 17.848 87.937 17.715 87.967 17.582 C 88.432 15.511 88.248 12.449 88.248 12.449 C 88.248 12.449 92.320 24.383 98.894 32.207 C 105.464 40.027 114.960 42.262 126.949 69.043 C 128.441 72.371 129.828 75.172 130.570 78.277 L 130.906 80.064 C 131.951 85.648 131.540 101.075 129.344 107.740 L 129.344 107.740 L 129.344 107.740 L 129.344 107.740 L 129.344 107.740 L 129.344 107.740 L 129.344 107.740 Z M 52.542 81.512 C 52.542 81.512 44.776 89.579 45.288 100.804 C 45.741 110.736 48.315 113.804 49.702 114.572 C 51.128 115.357 53.339 114.892 53.339 114.892 C 53.339 114.892 47.085 118.204 41.987 113.710 C 38.577 110.706 34.866 106.831 33.827 95.901 M 117.167 99.400 C 117.167 99.400 118.132 102.162 115.780 107.935 C 113.134 114.439 107.551 116.451 107.551 116.451 C 107.551 116.451 112.190 106.431 108.297 97.010 C 106.598 92.894 101.354 89.828 95.880 87.663 C 88.462 84.727 80.623 83.447 80.623 83.447 M 120.737 118.945 C 120.319 120.273 119.616 122.006 118.430 124.152 C 115.905 128.742 108.487 132.590 108.487 132.590 C 108.487 132.590 109.827 127.986 109.370 121.647 M 35.409 103.955 C 34.647 105.369 34.061 106.885 33.733 108.486 C 31.673 118.468 35.298 129.463 35.298 129.463 C 35.298 129.463 28.600 125.225 25.614 118.869 C 22.967 113.228 23.001 110.033 23.001 110.033 M 128.745 109.467 C 125.448 118.155 120.765 123.155 120.765 123.155 C 120.765 123.155 121.732 114.343 117.831 104.921 C 117.655 104.495 117.456 104.081 117.245 103.679 M 80.624 83.447 C 80.624 83.447 81.952 83.799 85.456 86.588 C 88.960 89.377 90.249 92.420 90.249 92.420 C 90.249 92.420 79.903 89.695 74.175 87.635 C 68.453 85.573 49.144 80.315 49.144 80.315 M 47.862 124.931 C 50.667 129.337 53.585 131.734 53.585 131.734 C 53.585 131.734 46.722 133.859 40.417 130.230 C 34.819 127.005 34.116 124.345 34.116 124.345 M 109.131 128.037 C 101.734 133.728 92.761 136.517 81.847 137.189 C 68.835 137.990 59.324 136.089 51.195 132.900 M 50.964 132.318 C 51.210 135.136 52.116 136.597 52.827 137.257 C 54.147 138.486 56.686 138.778 56.686 138.778 C 56.686 138.778 48.923 139.864 44.698 133.872 C 44.249 133.235 43.796 132.575 43.366 131.872 M 81.375 83.781 C 81.375 83.781 109.717 87.238 109.717 102.707 " transform="matrix(0.9002436995506287, 0, 0, 0.9002436995506287, 0.4, 0.2)"/>
        <path id="Face" fill="#E6E7E8" stroke="#000000" stroke-linecap="round" stroke-linejoin="round" d="M 115.272 109.396 C 114.215 120.521 101.426 132.128 82.710 133.222 C 66.187 134.197 41.769 126.767 38.226 113.085 C 37.874 111.710 37.687 110.382 37.636 109.106 L 37.995 109.368 C 39.249 111.204 40.640 112.528 41.987 113.712 C 47.085 118.204 53.339 114.892 53.339 114.892 C 53.339 114.892 51.128 115.359 49.702 114.574 C 48.315 113.806 45.741 110.738 45.288 100.806 C 44.776 89.579 52.542 81.514 52.542 81.514 L 52.569 81.256 C 58.381 82.866 69.960 86.116 74.173 87.635 C 79.901 89.696 90.247 92.420 90.247 92.420 C 90.247 92.420 88.958 89.377 85.454 86.588 C 83.700 85.193 82.493 84.408 81.725 83.971 L 82.445 84.084 C 82.445 84.084 104.297 87.314 108.299 97.010 C 112.191 106.432 107.554 116.451 107.554 116.451 C 107.554 116.451 112.308 114.736 115.116 109.365 L 115.272 109.396 L 115.272 109.396 L 115.272 109.396 L 115.272 109.396 L 115.272 109.396 L 115.272 109.396 L 115.272 109.396 Z " transform="matrix(0.9002436995506287, 0, 0, 0.9002436995506287, 0.4, 0.2)"/>
      </g>
      <g id="R_Ear">
        <path id="Outer_Ear_1_" fill="#BE1E2D" stroke="#000000" stroke-linecap="round" d="M 122.995 89.087 C 122.995 89.087 133.065 77.812 133.625 77.278 C 134.185 76.744 138.347 71.642 150.342 69.899 C 150.342 69.899 142.639 104.152 124.696 111.987 C 124.696 111.986 126.403 102.185 122.995 89.087 L 122.995 89.087 L 122.995 89.087 L 122.995 89.087 L 122.995 89.087 L 122.995 89.087 L 122.995 89.087 Z M 123.065 89.363 C 122.806 88.280 122.024 86.367 122.024 86.367 M 123.836 114.613 C 123.836 114.613 124.525 112.971 124.696 111.986 " transform="matrix(0.9002436995506287, 0, 0, 0.9002436995506287, 0.4, 0.2)"/>
        <path id="Inner_Ear_1_" fill="#929497" stroke="#000000" stroke-linecap="round" d="M 131.847 106.603 C 131.847 106.603 130.050 105.222 129.843 100.679 C 129.710 97.861 130.948 92.722 130.948 92.722 L 130.848 92.886 C 131.633 91.978 132.461 90.917 133.211 89.753 C 134.482 87.784 135.969 84.831 137.332 81.920 L 137.543 81.519 C 137.543 81.519 141.147 76.248 148.617 75.581 L 148.703 75.628 C 147.129 80.835 144.562 88.472 141.719 93.689 C 138.530 99.541 134.840 103.791 131.715 106.710 L 131.847 106.603 L 131.847 106.603 L 131.847 106.603 L 131.847 106.603 L 131.847 106.603 L 131.847 106.603 L 131.847 106.603 Z M 127.837 95.821 C 127.837 95.821 130.458 93.260 130.948 92.722 " transform="matrix(0.9002436995506287, 0, 0, 0.9002436995506287, 0.4, 0.2)"/>
      </g>
      <g id="L_Ear">
        <path id="Outer_Ear_2_" fill="#BE1E2D" stroke="#000000" stroke-linecap="round" d="M 25.794 111.986 C 7.852 104.151 0.149 69.898 0.149 69.898 C 12.144 71.642 16.306 76.744 16.866 77.277 C 17.426 77.810 27.496 89.086 27.496 89.086 C 24.087 102.185 25.794 111.986 25.794 111.986 L 25.794 111.986 L 25.794 111.986 L 25.794 111.986 L 25.794 111.986 L 25.794 111.986 L 25.794 111.986 Z M 28.466 86.367 C 28.466 86.367 27.684 88.280 27.425 89.363 M 25.794 111.986 C 25.965 112.971 26.654 114.613 26.654 114.613 " transform="matrix(0.9002436995506287, 0, 0, 0.9002436995506287, 0.4, 0.2)"/>
        <path id="Inner_Ear_2_" fill="#929497" stroke="#000000" stroke-linecap="round" d="M 18.775 106.710 C 15.650 103.790 11.961 99.540 8.771 93.689 C 5.927 88.472 3.361 80.835 1.787 75.628 L 1.873 75.581 C 9.344 76.249 12.947 81.519 12.947 81.519 L 13.158 81.920 C 14.521 84.831 16.008 87.784 17.279 89.753 C 18.029 90.917 18.857 91.978 19.642 92.886 L 19.542 92.722 C 19.542 92.722 20.780 97.861 20.647 100.679 C 20.440 105.222 18.643 106.603 18.643 106.603 L 18.775 106.710 L 18.775 106.710 L 18.775 106.710 L 18.775 106.710 L 18.775 106.710 L 18.775 106.710 L 18.775 106.710 Z M 19.542 92.722 C 20.032 93.260 22.653 95.821 22.653 95.821 " transform="matrix(0.9002436995506287, 0, 0, 0.9002436995506287, 0.4, 0.2)"/>
      </g>
      <path id="L_Eye" fill="#231F20" d="M 66.757 104.195 C 66.597 104.150 63.780 103.383 60.198 103.550 C 60.081 103.372 59.921 103.222 59.704 103.148 C 59.700 103.146 59.235 102.953 59.122 102.527 C 58.981 101.994 58.438 101.668 57.899 101.816 C 57.364 101.959 57.046 102.504 57.188 103.039 C 57.274 103.359 57.417 103.619 57.571 103.851 C 57.425 103.876 57.276 103.908 57.128 103.939 C 57.017 103.851 56.888 103.783 56.741 103.750 C 56.735 103.748 56.237 103.631 56.065 103.223 C 55.848 102.711 55.258 102.483 54.753 102.692 C 54.243 102.907 54.005 103.495 54.221 104.003 C 54.405 104.441 54.671 104.759 54.952 105.005 C 54.780 105.335 54.724 105.728 54.837 106.110 C 55.028 106.764 55.628 107.192 56.278 107.192 C 56.417 107.192 56.556 107.171 56.696 107.131 C 61.245 105.805 65.898 107.070 65.944 107.084 C 66.747 107.303 67.569 106.840 67.792 106.041 C 68.017 105.244 67.554 104.418 66.757 104.195 L 66.757 104.195 L 66.757 104.195 L 66.757 104.195 L 66.757 104.195 L 66.757 104.195 L 66.757 104.195 Z " transform="matrix(0.9002436995506287, 0, 0, 0.9002436995506287, 0.4, 0.2)"/>
      <path id="R_Eye" fill="#231F20" d="M 102.542 102.963 C 102.649 102.420 102.298 101.897 101.757 101.787 C 101.208 101.670 100.691 102.031 100.581 102.572 C 100.495 103 100.052 103.220 100.024 103.236 C 99.836 103.318 99.706 103.459 99.602 103.619 C 99.485 103.592 99.360 103.568 99.229 103.541 C 99.336 103.273 99.422 102.979 99.442 102.631 C 99.469 102.078 99.046 101.610 98.495 101.582 C 97.905 101.520 97.474 101.980 97.446 102.529 C 97.426 102.843 97.221 103.070 97.092 103.181 C 94.446 102.833 91.139 102.792 89.572 104.384 C 88.990 104.976 88.998 105.925 89.588 106.505 C 89.881 106.794 90.260 106.939 90.643 106.939 C 91.032 106.939 91.416 106.789 91.709 106.492 C 92.520 105.666 96.553 105.945 99.668 106.713 C 100.490 106.914 101.285 106.418 101.484 105.615 C 101.562 105.299 101.505 104.990 101.394 104.709 C 101.831 104.388 102.366 103.855 102.542 102.963 L 102.542 102.963 L 102.542 102.963 L 102.542 102.963 L 102.542 102.963 L 102.542 102.963 L 102.542 102.963 Z " transform="matrix(0.9002436995506287, 0, 0, 0.9002436995506287, 0.4, 0.2)"/>
      <path id="Mouth" fill="none" stroke="#231F20" stroke-linecap="round" d="M 66.286 115.722 C 66.286 115.722 69.874 121.228 78.938 121.261 C 88 121.300 90.889 113.960 90.889 113.960 " transform="matrix(0.9002436995506287, 0, 0, 0.9002436995506287, 0.4, 0.2)"/>
    </g>
  </g>
</svg>