<svg version="1.1" width="199" height="118" viewBox="-1 -1 199 118" xmlns="http://www.w3.org/2000/svg" xmlns:xlink="http://www.w3.org/1999/xlink">
  <defs>
    <linearGradient id="grad_1" y1="0.501791722" x2="0.9996545170000001" y2="0.501791722">
      <stop offset="0.55" stop-color="#0C5A43"/>
      <stop offset="0.87" stop-color="#81AC43"/>
      <stop offset="0.92" stop-color="#B0CC4D"/>
    </linearGradient>
  </defs>
  <!-- Exported by Scratch - http://scratch.mit.edu/ -->
  <g id="ID0.9726754105649889" transform="matrix(1, 0, 0, 1, 0.05, 0)">
    <g id="Page-1">
      <g id="Asset-8frog22222">
        <g id="Group-3">
          <path id="Path" fill="#00A9AE" stroke="none" stroke-width="1" d="M 182.917 2.009 C 182.387 1.038 181.457 0.349 180.374 0.127 C 179.292 -0.095 178.167 0.170 177.298 0.854 C 172.315 4.770 166.596 7.653 160.726 10.043 L 55.139 50.521 L 56.377 53.177 L 163.693 12.001 C 169.032 9.827 174.661 8.597 180.315 7.517 C 180.559 7.471 180.797 7.400 181.027 7.306 C 182.022 6.903 182.797 6.094 183.158 5.082 C 183.519 4.070 183.431 2.952 182.917 2.009 Z " transform="matrix(1, 0, 0, 1, 10.3, 5.35)"/>
          <path id="Path" fill="#F3E5CF" stroke="none" stroke-width="1" d="M 53.004 49.130 L 52.919 46.715 C 51.893 47.868 51.642 49.519 52.277 50.926 C 52.911 52.334 54.314 53.236 55.856 53.227 L 73.526 53.227 C 74.686 53.226 75.730 52.521 76.167 51.445 L 76.593 50.395 L 53.004 49.130 Z " transform="matrix(1, 0, 0, 1, 10.3, 5.35)"/>
          <path id="Path" fill="#F3E5CF" stroke="none" stroke-width="1" d="M 47.455 59.384 L 50.142 57.410 C 53.854 54.679 58.338 53.203 62.944 53.197 L 68.588 53.197 L 68.588 51.189 L 52.633 48.829 L 47.455 59.384 Z " transform="matrix(1, 0, 0, 1, 10.3, 5.35)"/>
          <path id="Path" fill="#0C5A43" stroke="none" stroke-width="1" d="M 0.336 87.690 L 0.336 62.005 C 0.336 56.212 5.024 51.515 10.807 51.515 L 14.873 51.515 C 26.537 51.515 36.728 44.018 43.124 37.862 C 48.107 33.045 55.184 31.080 61.931 32.639 L 73.877 35.416 C 74.681 35.597 75.305 36.231 75.474 37.039 C 75.642 37.848 75.324 38.680 74.659 39.167 L 5.945 90.507 C 4.881 91.303 3.459 91.430 2.272 90.833 C 1.085 90.237 0.335 89.020 0.336 87.690 Z " transform="matrix(1, 0, 0, 1, 10.3, 5.35)"/>
          <path id="Oval" fill="#B0CC4D" stroke="none" stroke-width="1" d="M 10.486 59.173 C 11.005 59.173 11.475 59.384 11.815 59.725 C 12.156 60.066 12.366 60.536 12.366 61.056 C 12.366 61.575 12.156 62.046 11.815 62.387 C 11.475 62.728 11.005 62.939 10.486 62.939 C 9.968 62.939 9.498 62.728 9.158 62.387 C 8.817 62.046 8.607 61.575 8.607 61.056 C 8.607 60.536 8.817 60.066 9.158 59.725 C 9.498 59.384 9.968 59.173 10.486 59.173 Z " transform="matrix(1, 0, 0, 1, 10.3, 5.35)"/>
          <path id="Oval" fill="#B0CC4D" stroke="none" stroke-width="1" d="M 41.249 54.151 C 41.855 54.151 42.404 54.398 42.801 54.796 C 43.199 55.194 43.445 55.744 43.445 56.351 C 43.445 56.958 43.199 57.507 42.801 57.906 C 42.404 58.304 41.855 58.550 41.249 58.550 C 40.643 58.550 40.095 58.304 39.697 57.906 C 39.300 57.507 39.054 56.958 39.054 56.351 C 39.054 55.744 39.300 55.194 39.697 54.796 C 40.095 54.398 40.643 54.151 41.249 54.151 Z " transform="matrix(1, 0, 0, 1, 10.3, 5.35)"/>
          <path id="Oval" fill="#B0CC4D" stroke="none" stroke-width="1" d="M 22.702 65.450 C 23.446 65.450 24.121 65.752 24.609 66.241 C 25.097 66.731 25.399 67.406 25.399 68.151 C 25.399 68.897 25.097 69.572 24.609 70.061 C 24.121 70.550 23.446 70.853 22.702 70.853 C 21.958 70.853 21.284 70.550 20.796 70.061 C 20.308 69.572 20.006 68.897 20.006 68.151 C 20.006 67.406 20.308 66.731 20.796 66.241 C 21.284 65.752 21.958 65.450 22.702 65.450 Z " transform="matrix(1, 0, 0, 1, 10.3, 5.35)"/>
          <path id="Oval" fill="#B0CC4D" stroke="none" stroke-width="1" d="M 15.309 69.592 C 16.018 69.592 16.661 69.881 17.126 70.347 C 17.592 70.814 17.880 71.458 17.880 72.168 C 17.880 72.879 17.592 73.523 17.126 73.989 C 16.661 74.456 16.018 74.744 15.309 74.744 C 14.599 74.744 13.956 74.456 13.491 73.989 C 13.025 73.523 12.737 72.879 12.737 72.168 C 12.737 71.458 13.025 70.814 13.491 70.347 C 13.956 69.881 14.599 69.592 15.309 69.592 Z " transform="matrix(1, 0, 0, 1, 10.3, 5.35)"/>
          <path id="Path" fill="none" stroke="#1C252E" stroke-width="0.5" d="M 4.346 77.376 L 4.346 72.249 C 4.346 71.341 4.725 70.474 5.391 69.859 C 6.058 69.243 6.951 68.936 7.855 69.010 L 8.617 69.070 C 10.458 69.223 12.116 67.956 12.456 66.138 L 12.577 65.500 C 12.750 64.570 13.296 63.751 14.088 63.235 C 14.880 62.719 15.848 62.550 16.767 62.768 L 18.091 63.080 C 19.883 63.498 21.696 62.469 22.261 60.714 L 22.692 59.384 C 23.238 57.686 24.947 56.648 26.702 56.948 L 30.161 57.546 C 32.385 57.941 34.642 57.047 35.996 55.236 L 50.838 35.341 " transform="matrix(1, 0, 0, 1, 10.3, 5.35)"/>
          <path id="Oval" fill="#1C252E" stroke="none" stroke-width="1" d="M 69.821 37.776 C 70.097 37.776 70.347 37.888 70.528 38.069 C 70.709 38.250 70.821 38.500 70.821 38.776 C 70.821 39.052 70.709 39.302 70.528 39.483 C 70.347 39.664 70.097 39.776 69.821 39.776 C 69.545 39.776 69.295 39.664 69.114 39.483 C 68.933 39.302 68.821 39.052 68.821 38.776 C 68.821 38.500 68.933 38.250 69.114 38.069 C 69.295 37.888 69.545 37.776 69.821 37.776 Z " transform="matrix(1, 0, 0, 1, 10.3, 5.35)"/>
          <path id="Oval" fill="#1C252E" stroke="none" stroke-width="1" d="M 70.323 34.763 C 70.598 34.763 70.848 34.875 71.030 35.056 C 71.211 35.237 71.323 35.487 71.323 35.763 C 71.323 36.039 71.211 36.289 71.030 36.470 C 70.848 36.651 70.598 36.763 70.323 36.763 C 70.047 36.763 69.797 36.651 69.616 36.470 C 69.435 36.289 69.323 36.039 69.323 35.763 C 69.323 35.487 69.435 35.237 69.616 35.056 C 69.797 34.875 70.047 34.763 70.323 34.763 Z " transform="matrix(1, 0, 0, 1, 10.3, 5.35)"/>
          <path id="Oval" fill="#60A14E" stroke="none" stroke-width="1" d="M 48.833 43.606 C 50.078 43.606 51.206 44.113 52.023 44.931 C 52.839 45.749 53.345 46.879 53.345 48.126 C 53.345 49.373 52.839 50.502 52.023 51.320 C 51.206 52.139 50.078 52.645 48.833 52.645 C 47.589 52.645 46.461 52.139 45.644 51.320 C 44.827 50.502 44.322 49.373 44.322 48.126 C 44.322 46.879 44.827 45.749 45.644 44.931 C 46.461 44.113 47.589 43.606 48.833 43.606 Z " transform="matrix(1, 0, 0, 1, 10.3, 5.35)"/>
          <path id="Path" fill="#B0CC4D" stroke="none" stroke-width="1" d="M 15.750 58.294 C 17.425 58.296 18.963 57.367 19.744 55.883 C 20.525 54.399 20.422 52.603 19.474 51.219 C 17.970 51.466 16.447 51.592 14.923 51.595 L 11.790 51.595 C 11.025 52.996 11.054 54.697 11.867 56.070 C 12.680 57.443 14.156 58.285 15.750 58.284 L 15.750 58.294 Z " transform="matrix(1, 0, 0, 1, 10.3, 5.35)"/>
          <path id="Path" fill="#B0CC4D" stroke="none" stroke-width="1" d="M 0.386 62.095 L 0.386 65.450 C 0.733 65.655 1.113 65.799 1.509 65.877 C 3.145 66.211 4.809 65.444 5.619 63.981 C 6.429 62.518 6.198 60.697 5.048 59.484 C 4.911 59.347 4.842 59.157 4.857 58.964 C 4.872 58.770 4.971 58.594 5.128 58.480 C 5.824 57.934 6.263 57.123 6.341 56.240 C 6.414 55.126 5.913 54.052 5.013 53.393 C 2.120 55.341 0.386 58.604 0.386 62.095 Z " transform="matrix(1, 0, 0, 1, 10.3, 5.35)"/>
          <path id="Path" fill="#B0CC4D" stroke="none" stroke-width="1" d="M 2.090 71.807 C 2.091 70.721 1.408 69.753 0.386 69.392 L 0.386 74.217 C 1.406 73.856 2.089 72.891 2.090 71.807 Z " transform="matrix(1, 0, 0, 1, 10.3, 5.35)"/>
          <path id="Path" fill="#B0CC4D" stroke="none" stroke-width="1" d="M 26.316 51.922 C 25.946 52.402 25.811 53.024 25.951 53.614 C 26.178 54.615 27.122 55.283 28.140 55.163 C 29.158 55.043 29.921 54.174 29.911 53.147 C 29.911 53.012 29.911 52.916 29.911 52.831 C 29.901 52.689 29.949 52.550 30.043 52.444 C 30.137 52.338 30.270 52.275 30.412 52.268 C 32.079 52.332 33.630 51.416 34.382 49.923 C 35.154 48.415 35.047 46.604 34.101 45.198 C 31.601 46.844 28.941 48.232 26.161 49.341 C 26.229 49.524 26.309 49.701 26.402 49.873 C 26.779 50.513 26.746 51.316 26.316 51.922 Z " transform="matrix(1, 0, 0, 1, 10.3, 5.35)"/>
          <g id="Group-2">
            <path id="Oval" fill="#EEE75A" stroke="none" stroke-width="1" d="M 6.662 0.065 C 8.494 0.065 10.155 0.811 11.357 2.015 C 12.559 3.220 13.304 4.883 13.304 6.719 C 13.304 8.554 12.559 10.218 11.357 11.422 C 10.155 12.627 8.494 13.372 6.662 13.372 C 4.829 13.372 3.169 12.627 1.967 11.422 C 0.764 10.218 0.020 8.554 0.020 6.719 C 0.020 4.883 0.764 3.220 1.967 2.015 C 3.169 0.811 4.829 0.065 6.662 0.065 Z " transform="matrix(1, 0, 0, 1, 60.45, 35.5)"/>
            <path id="Path" fill="#1C252E" stroke="none" stroke-width="1" d="M 11.113 5.654 L 10.582 5.654 C 10.079 5.645 9.615 5.385 9.344 4.961 C 8.752 4.056 7.744 3.511 6.664 3.511 C 5.584 3.511 4.577 4.056 3.985 4.961 C 3.714 5.385 3.249 5.645 2.747 5.654 L 2.216 5.654 C 1.654 5.641 1.171 6.051 1.093 6.608 C 1.062 6.909 1.159 7.208 1.360 7.433 C 1.562 7.658 1.849 7.787 2.150 7.788 L 2.747 7.788 C 3.257 7.788 3.733 8.047 4.010 8.476 C 4.600 9.384 5.608 9.931 6.689 9.931 C 7.770 9.931 8.778 9.384 9.369 8.476 C 9.641 8.054 10.105 7.796 10.607 7.788 L 11.198 7.788 C 11.501 7.788 11.789 7.660 11.992 7.435 C 12.194 7.210 12.292 6.910 12.261 6.608 C 12.181 6.041 11.684 5.628 11.113 5.654 Z " transform="matrix(1, 0, 0, 1, 60.45, 35.5)"/>
          </g>
        </g>
        <g id="Group">
          <path id="Path" fill="#0C5A43" stroke="none" stroke-width="1" d="M 62.658 10.676 L 0.336 10.676 L 0.336 0.462 L 52.132 0.462 C 57.819 0.459 62.479 4.982 62.658 10.676 Z " transform="matrix(1, 0, 0, 1, 10.3, 81.1)"/>
          <path id="Rectangle" fill="#1C252E" stroke="none" stroke-width="1" d="M 46.703 0.462 L 51.716 0.462 L 51.716 10.671 L 46.703 10.671 L 46.703 0.462 Z " transform="matrix(1, 0, 0, 1, 10.3, 81.1)"/>
          <path id="Rectangle" fill="#1C252E" stroke="none" stroke-width="1" d="M 30.788 0.462 L 35.800 0.462 L 35.800 10.701 L 30.788 10.701 L 30.788 0.462 Z " transform="matrix(1, 0, 0, 1, 10.3, 81.1)"/>
        </g>
        <g id="Group">
          <path id="Path" fill="#0C5A43" stroke="none" stroke-width="1" d="M 0.501 9.169 L 64.162 9.169 C 68.868 9.169 72.684 5.347 72.684 0.633 L 8.857 0.633 C 6.613 0.634 4.463 1.539 2.891 3.144 C 1.319 4.750 0.458 6.921 0.501 9.169 Z " transform="matrix(1, 0, 0, 1, 0.3, 91.15)"/>
          <path id="Rectangle" fill="#1C252E" stroke="none" stroke-width="1" d="M 56.728 0.462 L 61.741 0.462 L 61.741 9.164 L 56.728 9.164 L 56.728 0.462 Z " transform="matrix(1, 0, 0, 1, 0.3, 91.15)"/>
          <path id="Rectangle" fill="#1C252E" stroke="none" stroke-width="1" d="M 40.813 0.462 L 45.826 0.462 L 45.826 9.164 L 40.813 9.164 L 40.813 0.462 Z " transform="matrix(1, 0, 0, 1, 0.3, 91.15)"/>
          <path id="Path" fill="#1C252E" stroke="none" stroke-width="1" d="M 18.366 9.169 L 13.354 9.169 L 13.369 1.175 L 18.381 1.175 L 18.366 9.169 " transform="matrix(1, 0, 0, 1, 0.3, 91.15)"/>
        </g>
        <g id="Foot">
          <path id="Path" fill="url(#grad_1)" stroke="none" stroke-width="1" d="M 51.570 7.422 C 51.126 7.315 50.658 7.383 50.262 7.613 C 49.708 7.913 49.069 8.021 48.447 7.919 L 35.505 6.096 C 35.087 6.028 34.785 5.661 34.797 5.238 C 34.810 4.815 35.134 4.466 35.555 4.424 L 49.164 3.344 C 49.630 3.322 50.096 3.403 50.528 3.580 C 50.869 3.710 51.242 3.731 51.595 3.641 C 52.494 3.425 53.087 2.567 52.973 1.648 C 52.859 0.729 52.073 0.043 51.149 0.055 C 50.729 0.054 50.323 0.202 50.001 0.472 C 49.446 0.904 48.759 1.129 48.056 1.110 L 27.905 1.110 L 0 1.110 C 0 6.379 4.264 10.651 9.524 10.651 L 18.336 10.651 C 21.243 10.652 24.139 11.001 26.963 11.690 L 46.347 16.430 C 46.979 16.588 47.547 16.939 47.971 17.435 C 48.559 18.094 49.536 18.230 50.282 17.758 C 51.027 17.286 51.323 16.342 50.980 15.528 C 50.637 14.714 49.757 14.267 48.898 14.472 C 48.436 14.597 47.948 14.597 47.485 14.472 L 35.154 10.831 C 34.748 10.704 34.501 10.293 34.578 9.875 C 34.654 9.456 35.030 9.160 35.455 9.184 L 48.823 10.194 C 49.296 10.241 49.748 10.414 50.132 10.696 C 50.426 10.900 50.776 11.010 51.134 11.012 C 51.691 11.012 52.216 10.756 52.561 10.319 C 52.906 9.881 53.032 9.310 52.904 8.767 C 52.750 8.102 52.233 7.581 51.570 7.422 Z " transform="matrix(1, 0, 0, 1, 0.8, 99.25)"/>
          <path id="Rectangle" fill="#1C252E" stroke="none" stroke-width="1" d="M 12.867 1.135 L 17.880 1.135 L 17.880 10.676 L 12.867 10.676 L 12.867 1.135 Z " transform="matrix(1, 0, 0, 1, 0.8, 99.25)"/>
        </g>
        <g id="Arm">
          <path id="Path" fill="none" stroke="#0C5A43" stroke-width="2.5" stroke-linecap="round" d="M 10.862 15.948 L 18.717 15.948 C 25.638 15.948 31.249 21.569 31.249 28.502 " transform="matrix(1, 0, 0, 1, 43.9, 63.6)"/>
          <path id="Path" fill="#0C5A43" stroke="none" stroke-width="1" d="M 12.451 2.009 L 12.452 17.229 L 8.707 17.229 C 4.001 17.229 0.185 13.407 0.185 8.692 L 0.185 3.405 C 0.184 3.200 0.320 3.019 0.516 2.963 L 10.121 0.216 C 10.677 0.061 11.274 0.178 11.732 0.530 C 12.190 0.882 12.457 1.430 12.451 2.009 Z " transform="matrix(1, 0, 0, 1, 43.9, 63.6)"/>
          <path id="Path" fill="#B0CC4D" stroke="none" stroke-width="1" d="M 2.186 14.110 C 4.533 13.053 5.852 10.523 5.376 7.989 C 4.899 5.455 2.751 3.578 0.180 3.450 L 0.180 8.627 C 0.181 10.635 0.891 12.577 2.186 14.110 Z " transform="matrix(1, 0, 0, 1, 43.9, 63.6)"/>
        </g>
        <g id="Fly">
          <path id="Path" fill="#FBF4E9" stroke="none" stroke-width="1" d="M 13.955 8.978 L 3.679 10.249 C 1.945 10.393 0.528 11.693 0.232 13.410 C -0.065 15.128 0.835 16.829 2.420 17.548 C 4.005 18.267 5.875 17.822 6.968 16.465 L 13.955 8.978 Z " transform="matrix(1, 0, 0, 1, 182.75, 0.35)"/>
          <path id="Path" fill="#FBF4E9" stroke="none" stroke-width="1" d="M 13.955 8.913 L 3.679 7.643 C 1.945 7.498 0.528 6.199 0.232 4.481 C -0.065 2.764 0.835 1.063 2.420 0.344 C 4.005 -0.375 5.875 0.070 6.968 1.426 L 13.955 8.913 Z " transform="matrix(1, 0, 0, 1, 182.75, 0.35)"/>
          <path id="Oval" fill="#1C252E" stroke="none" stroke-width="1" d="M 12.662 6.297 C 13.353 6.297 13.980 6.578 14.434 7.033 C 14.887 7.487 15.168 8.115 15.168 8.808 C 15.168 9.500 14.887 10.128 14.434 10.583 C 13.980 11.037 13.353 11.318 12.662 11.318 C 11.970 11.318 11.344 11.037 10.890 10.583 C 10.436 10.128 10.156 9.500 10.156 8.808 C 10.156 8.115 10.436 7.487 10.890 7.033 C 11.344 6.578 11.970 6.297 12.662 6.297 Z " transform="matrix(1, 0, 0, 1, 182.75, 0.35)"/>
        </g>
      </g>
    </g>
  </g>
</svg>