<svg version="1.1" width="78" height="136" viewBox="-1 -1 78 136" xmlns="http://www.w3.org/2000/svg" xmlns:xlink="http://www.w3.org/1999/xlink">
  <!-- Exported by Scratch - http://scratch.mit.edu/ -->
  <g id="ID0.138600779697299" transform="matrix(1, 0, 0, 1, 0, -0.5)">
    <g id="Page-1">
      <g id="ghost-b-[fantasy,spooky,halloween,ghoul,monster,alex-eben-meyer]">
        <g id="Backside">
          <path id="Shape" fill="#00A0B4" stroke="none" stroke-width="1" d="M 35.473 27.182 C 34.900 32.941 33.118 34.860 29.618 35.692 C 27.836 36.140 26.118 36.204 24.527 35.372 C 21.155 33.581 20.455 28.590 18.736 25.327 C 15.300 24.367 15.745 28.014 10.845 28.014 C 2.318 28.014 2.382 23.472 0.791 10.483 C -0.800 -2.505 34.264 1.526 34.264 1.526 C 34.264 1.526 36.045 21.488 35.473 27.182 Z " transform="matrix(1, 0, 0, 1, 5, 86.5)"/>
          <path id="Shape" fill="#00A0B4" stroke="none" stroke-width="1" d="M 33.882 27.758 C 32.673 24.431 39.736 4.853 39.736 4.853 L 65 7.796 C 65 7.796 65.891 16.178 65.955 18.801 C 66.273 30.701 62.455 32.301 59.845 32.237 C 56.218 32.109 52.973 31.405 49.855 24.623 C 46.736 17.841 36.173 24.559 33.882 27.758 Z " transform="matrix(1, 0, 0, 1, 5, 86.5)"/>
        </g>
        <g id="Arm-L">
          <path id="Shape" fill="#78C8C8" stroke="none" stroke-width="1" d="M 0.473 0.915 C -1.182 14.095 4.482 33.545 6.327 35.336 L 7.091 35.336 C 7.282 34.441 6.009 31.306 7.218 31.050 C 8.427 31.690 8.618 34.057 9.700 35.017 C 10.082 33.673 7.855 30.986 10.082 30.410 C 10.718 31.498 11.355 33.353 12.500 34.057 C 12.818 33.161 10.782 14.223 9.382 4.690 L 0.473 0.915 Z " transform="matrix(1, 0, 0, 1, 12, 98.5)"/>
          <path id="Shape" fill="#AADCDC" stroke="none" stroke-width="1" d="M 8.682 20.045 C 6.964 20.109 6.773 22.732 8.618 22.604 C 10.464 22.476 10.209 19.981 8.682 20.045 Z " transform="matrix(1, 0, 0, 1, 12, 98.5)"/>
          <path id="Shape" fill="#AADCDC" stroke="none" stroke-width="1" d="M 5.691 21.964 C 4.927 22.028 4.864 24.908 5.627 24.844 C 6.391 24.780 6.391 21.900 5.691 21.964 Z " transform="matrix(1, 0, 0, 1, 12, 98.5)"/>
        </g>
        <g id="Arm-R">
          <path id="Shape" fill="#78C8C8" stroke="none" stroke-width="1" d="M 1.982 5.507 L 12.418 0.900 C 12.418 5.187 12.355 39.929 11.464 41.592 C 10.191 40.441 10.573 38.521 9.555 37.370 L 8.982 37.370 C 7.709 38.713 8.918 41.145 8.091 42.744 C 5.991 41.976 6.755 38.329 5.355 36.986 C 4.082 37.754 5.100 39.929 4.082 40.377 C 1.982 38.905 1.727 32.251 1.473 30.012 C 1.027 26.109 0.836 22.142 0.900 18.175 C 0.900 14.209 0.964 9.218 1.982 5.507 Z " transform="matrix(1, 0, 0, 1, 46, 92.5)"/>
          <path id="Shape" fill="#AADCDC" stroke="none" stroke-width="1" d="M 8.091 26.749 C 5.418 26.877 5.227 30.844 7.964 30.716 C 10.700 30.588 10.382 26.621 8.091 26.749 Z " transform="matrix(1, 0, 0, 1, 46, 92.5)"/>
        </g>
        <g id="Group">
          <path id="Shape" fill="#006482" stroke="none" stroke-width="1" d="M 33.664 60.078 L 6.109 60.078 L 8.527 38.900 L 33.664 38.836 L 33.664 60.078 " transform="matrix(1, 0, 0, 1, 0, 0.5)"/>
          <path id="Shape" fill="#FFFFFF" stroke="none" stroke-width="1" d="M 16.418 38.836 C 16.418 38.836 15.845 43.891 17.564 44.595 C 19.282 45.299 20.491 45.363 21.127 43.891 C 21.764 42.419 21.573 39.220 21.573 39.220 L 16.418 38.836 Z " transform="matrix(1, 0, 0, 1, 0, 0.5)"/>
          <path id="Shape" fill="#000000" stroke="none" stroke-width="1" d="M 19.855 51.441 C 15.845 50.609 12.091 50.737 9.291 52.784 L 9.100 62.062 L 26.091 61.294 L 26.536 53.552 C 25.836 52.720 22.655 52.081 19.855 51.441 Z " transform="matrix(1, 0, 0, 1, 0, 0.5)"/>
          <path id="Shape" fill="#AADCDC" stroke="none" stroke-width="1" d="M 73.373 26.360 C 69.045 12.348 61.727 3.711 47.345 0.768 C 33.473 -2.047 16.418 5.438 10.691 18.107 C 4.391 32.055 5.791 48.114 4.709 62.893 C 4.073 71.275 4.645 79.273 5.027 87.654 C 5.155 91.493 4.773 100.642 6.300 107.168 C 7.891 114.078 11.518 118.301 15.527 117.597 C 26.282 118.365 20.745 103.265 25.836 103.841 C 30.927 104.417 29.591 110.879 30.927 112.735 C 33.409 116.190 39.391 119.069 43.464 117.469 C 51.800 114.142 45.627 99.746 52.691 99.171 C 59.755 98.595 60.773 107.488 63.127 110.175 C 65.991 113.502 71.145 114.206 73.691 110.175 C 76.236 106.145 75.982 99.427 76.173 94.820 C 76.427 88.230 78.273 42.419 73.373 26.360 Z M 23.927 49.777 C 23.800 55.600 20.045 57.263 16.609 57.263 C 13.173 57.263 10.245 54.832 9.800 49.841 C 9.355 44.851 12.282 40.692 17.055 41.076 C 21.636 41.524 24.055 43.955 23.927 49.777 Z " transform="matrix(1, 0, 0, 1, 0, 0.5)"/>
          <path id="Shape" fill="#78C8C8" stroke="none" stroke-width="1" d="M 23.927 10.301 C 20.745 8.318 13.045 17.531 16.355 19.642 C 19.664 21.754 26.664 12.028 23.927 10.301 Z " transform="matrix(1, 0, 0, 1, 0, 0.5)"/>
          <path id="Shape" fill="#000000" stroke="none" stroke-width="1" d="M 1.018 45.810 C 0.509 45.427 0.255 44.851 0.318 44.275 C 0.191 43.763 0.382 43.187 0.827 42.867 C 1.464 43.059 1.655 43.251 1.718 43.955 C 1.782 44.659 1.845 45.427 1.018 45.810 Z " transform="matrix(1, 0, 0, 1, 0, 0.5)"/>
          <path id="Shape" fill="#000000" stroke="none" stroke-width="1" d="M 36.527 46.130 C 35.827 45.427 35.827 44.275 36.527 43.571 C 36.527 43.571 36.527 43.571 36.527 43.571 C 36.845 43.507 37.036 43.699 37.164 43.955 C 37.482 44.403 37.545 44.979 37.355 45.491 C 37.164 45.618 36.845 45.874 36.527 46.130 Z " transform="matrix(1, 0, 0, 1, 0, 0.5)"/>
          <path id="Shape" fill="#78C8C8" stroke="none" stroke-width="1" d="M 38.818 109.919 C 39.009 112.095 39.900 113.950 43.145 114.078 C 46.900 114.270 45.882 98.403 41.936 98.147 C 37.991 97.891 38.436 104.801 38.818 109.919 Z " transform="matrix(1, 0, 0, 1, 0, 0.5)"/>
          <path id="Shape" fill="#78C8C8" stroke="none" stroke-width="1" d="M 37.991 89.701 C 38.182 90.789 39.073 91.685 42.318 91.813 C 46.073 91.877 45.055 84.007 41.109 83.815 C 37.164 83.623 37.609 87.142 37.991 89.701 Z " transform="matrix(1, 0, 0, 1, 0, 0.5)"/>
          <path id="Shape" fill="#78C8C8" stroke="none" stroke-width="1" d="M 49.509 77.609 C 45.755 77.993 45.500 88.614 49.382 88.294 C 53.264 87.974 52.755 77.289 49.509 77.609 Z " transform="matrix(1, 0, 0, 1, 0, 0.5)"/>
          <path id="Shape" fill="#00A0B4" stroke="none" stroke-width="1" d="M 24.436 95.140 C 20.682 95.332 20.427 100.834 24.309 100.642 C 28.191 100.450 27.682 95.012 24.436 95.140 Z " transform="matrix(1, 0, 0, 1, 0, 0.5)"/>
          <path id="Shape" fill="#00A0B4" stroke="none" stroke-width="1" d="M 9.100 75.818 C 6.427 75.945 6.173 79.912 8.973 79.784 C 11.773 79.656 11.455 75.754 9.100 75.818 Z " transform="matrix(1, 0, 0, 1, 0, 0.5)"/>
          <path id="Shape" fill="#78C8C8" stroke="none" stroke-width="1" d="M 33.345 81.576 C 30.673 81.704 30.482 85.671 33.218 85.543 C 35.955 85.415 35.700 81.448 33.345 81.576 Z " transform="matrix(1, 0, 0, 1, 0, 0.5)"/>
          <path id="Shape" fill="#006482" stroke="none" stroke-width="1" d="M 70.700 102.434 C 68.027 102.562 67.773 106.528 70.573 106.400 C 73.373 106.273 72.991 102.306 70.700 102.434 Z " transform="matrix(1, 0, 0, 1, 0, 0.5)"/>
          <path id="Shape" fill="#78C8C8" stroke="none" stroke-width="1" d="M 9.227 97.507 C 9.482 100.770 10.945 103.457 15.973 103.713 C 21.827 104.033 20.236 80.616 14.127 80.232 C 8.018 79.848 8.655 89.957 9.227 97.507 Z " transform="matrix(1, 0, 0, 1, 0, 0.5)"/>
        </g>
      </g>
    </g>
  </g>
</svg>