<svg version="1.1" width="35" height="81" xmlns="http://www.w3.org/2000/svg" xmlns:xlink="http://www.w3.org/1999/xlink">
  <!-- Exported by Scratch - http://scratch.mit.edu/ -->
  <g id="ID0.35889380099251866">
    <path id="ID0.9205659148283303" d="M 312 346 C 313 346 314 346 315 346 C 315.379 352.622 318.831 356.169 320 362 C 318.059 368.982 313.274 369.912 309 376 C 316.290 384.043 326.949 388.718 328 403 C 328 404.333 328 405.667 328 407 C 323.877 423.877 317.987 438.987 304 446 C 302.333 446 300.667 446 299 446 C 294.081 440.919 290.079 434.921 287 428 C 293.375 421.594 303.973 418.191 304 409 C 304.033 397.872 285.750 394.389 285 382 C 285 380.333 285 378.667 285 377 C 289.885 362.551 296.860 350.193 312 346 Z M 293 364 C 292.713 376.251 290.607 380.828 297 388 C 301.311 392.837 308.372 394.301 310 399 C 313.295 408.512 306.783 418.880 298 424 C 299.118 428.882 300.231 433.769 305 435 C 314.903 424.620 329.273 413.815 324 397 C 320.722 386.547 303.674 383.836 303 374 C 302.494 366.621 309.936 362.360 316 362 C 314.250 358.083 313.972 352.695 311 350 C 304.337 354.004 297.188 357.521 293 364 Z " transform="matrix(0.7941985726356506, 0, 0, 0.7941985726356506, -225.5, -274.1)"/>
    <path id="ID0.5772864166647196" fill="#FF9400" d="M 311 350 C 313.972 352.695 314.250 358.083 316 362 C 309.936 362.360 302.494 366.621 303 374 C 303.674 383.836 320.722 386.547 324 397 C 329.273 413.815 314.903 424.620 305 435 C 300.231 433.769 299.118 428.882 298 424 C 306.783 418.880 313.295 408.512 310 399 C 308.372 394.301 301.311 392.837 297 388 C 290.607 380.828 292.713 376.251 293 364 C 297.188 357.521 304.337 354.004 311 350 Z " transform="matrix(0.7941985726356506, 0, 0, 0.7941985726356506, -225.5, -274.1)"/>
  </g>
</svg>