<svg width="162px" height="182px" viewBox="0 0 162 182" version="1.1" xml:space="preserve" xmlns="http://www.w3.org/2000/svg" xmlns:xlink="http://www.w3.org/1999/xlink">
  <!-- Generator: Sketch 52.4 (67378) - http://www.bohemiancoding.com/sketch -->
  <g>
    <title>Slice 1</title>
    <desc>Created with Sketch.</desc>
    <g id="Page-1" stroke="none" stroke-width="1" fill="none" fill-rule="evenodd">
      <g id="dinosaur1-c-[animals,dinosaur,alex-eben-meyer,sauropod]">
        <g id="ID0.2425487800501287" transform="translate(81.000000, 91.000000) scale(-1, 1) translate(-81.000000, -91.000000) ">
          <g id="dinosaurs">
            <g id="brontosaurus-c">
              <g id="scratch_dinos03c">
                <g id="Group-2" transform="translate(122.000000, 70.000000)">
                  <path d="M29.91,7.94 C30.015,8.2 30.525,10.59 30.575,10.715 C29.4,18.09 21.025,17.605 15.15,16.53 C7.685,15.165 3.22,9.975 0.325,3.27 L29.91,7.94 Z" id="Shape" fill="#00A08C"/>
                  <path d="M29.21,7.04 C29.12,7.655 30.38,10.72 27.38,12.285 C24.38,13.85 19.16,14.205 16.69,13.285 C13.775,12.225 8.755,9.35 7.6,6.39 L16.325,0.345 L29.21,7.04 Z" id="Shape" fill="#000000"/>
                  <path d="M29.525,7.605 C29.525,7.605 29.025,9.685 28.5,10.295 C27.769,11.12 26.533,11.261 25.635,10.62 C24.345,9.71 24.55,7.695 24.55,7.695 L29.525,7.605 Z" id="Shape" fill="#FFFFFF"/>
                </g>
                <path d="M156.615,64.6 C154.75,62.015 151.565,62.195 149.015,60.735 C142.015,56.735 137.79,38.405 119.06,39.705 C112.995,40.125 99.41,43.32 78.525,46.365 C56.675,49.555 37.08,51.015 37.08,51.015 C37.08,51.015 27.23,53.34 26.275,61.82 C25.32,70.3 36,72.45 36,72.45 L38.565,72.325 L42.445,70.19 C47.587,70.805 52.774,70.972 57.945,70.69 C71.49,69.94 107.33,63.415 110.84,63.765 C120.305,64.705 121.545,71.425 122.34,73.265 C125.595,75.155 129.67,79.765 129.67,79.765 C132.548,77 136.563,75.756 140.5,76.41 C147.07,77.565 150.1,80.105 152.465,79.175 C157.71,77.105 159.95,69.22 156.615,64.6 Z" id="Shape" fill="#00A08C"/>
                <g id="Group" transform="translate(130.000000, 64.000000)">
                  <path d="M14.61,10.24 C14.88,8.265 12.86,6.985 12.16,9.7 C11.425,12.565 14.345,12.21 14.61,10.24 Z" id="Shape" fill="#005A5A"/>
                  <path d="M24.89,10 C25.16,8.025 23.14,6.745 22.44,9.46 C21.705,12.31 24.62,11.955 24.89,10 Z" id="Shape" fill="#005A5A"/>
                  <path d="M30.5,4.715 L31.285,4.54 C31.836,3.404 31.768,2.065 31.105,0.99 L30.535,1.11 C29.655,1.86 29.63,3.865 30.5,4.715 Z" id="Shape" fill="#000000"/>
                  <path d="M1.36,3.755 L2.145,3.575 C2.696,2.44 2.628,1.103 1.965,0.03 L1.39,0.145 C0.5,0.895 0.47,2.9 1.36,3.755 Z" id="Shape" fill="#000000"/>
                </g>
                <path d="M137.075,134.3 C136.905,130.165 135.6,115.515 135.04,111.41 C134.94,114.64 128.715,122.91 123.205,128.375 C111.965,133.065 84.88,151.155 47.84,159.875 C43.265,160.95 36.53,162.14 32.18,159.875 C29.435,158.43 28.3,156.04 27.49,153.245 C27.095,151.88 27.025,150.48 25.515,150.3 C24.105,150.135 22.765,151.51 22.555,152.8 C21.63,158.545 22.13,165.145 27.645,168.435 C33.04,171.65 41.085,171.115 47.065,170.59 C53.27,170.04 59.35,169.195 65.49,168.145 C67.85,167.745 90.91,163.485 100.1,162.98 C115.72,162.115 122.395,163.45 130.01,156.915 C137.625,150.38 137.245,138.425 137.075,134.3 Z" id="Shape" fill="#005A5A"/>
                <path d="M54.11,137 C54.11,137 58.835,172.055 59.705,181.17 C58.205,181.625 48.145,181.355 46.625,181.22 C44.575,176.105 37.705,135.39 37.705,135.39 L54.11,137 Z" id="Shape" fill="#008264"/>
                <path d="M102.84,137 C102.84,137 105.475,172.385 106.34,181.5 C104.84,181.95 95.26,181.35 93.74,181.215 C91.685,176.095 88,135.6 88,135.6 L102.84,137 Z" id="Shape" fill="#008264"/>
                <g id="Group-3">
                  <path d="" id="Shape" fill="#00A08C"/>
                  <path d="M38.56,72.325 L43.205,72.045 C43.205,72.045 44.51,55.345 44.51,54.81 C44.51,54.275 38.56,72.325 38.56,72.325 Z" id="Shape" fill="#005A5A"/>
                  <path d="M124.845,90.525 C116.71,82.21 106.265,76.82 94.43,76.765 C91.58,76.765 88.715,77.36 85.895,77.73 C82.115,78.23 78.26,78.3 74.455,78.58 C67.655,79.08 63.455,77.58 61.925,70.515 C61.925,70.515 61.925,70.485 61.925,70.47 C62.79,57.3 64.33,44.925 64.305,36.245 C64.275,26.085 62.58,20.635 62.27,19.55 C60.5,13.31 55.5,7.195 49.97,4.035 C39.365,-2.03 26.395,-0.105 16.97,7.31 C7.86,14.445 2.175,26.715 0.625,38 C0.21,41.045 -0.705,56.2 6.985,64 C14.85,71.97 31.375,72.555 35.985,72.44 C36.315,68.78 36.35,65.065 36.75,61.44 C37.15,57.815 36.295,54.63 37.07,51.005 C16.07,53.845 22.365,36.75 24.57,31.705 C26.475,27.375 31.61,22.92 36.32,26.275 C40.21,29.045 41.945,34.84 42.79,39.275 C43.46,42.775 42.385,69.355 41.385,73.955 C39.145,92.82 36,118.885 35.945,121.685 C35.79,129.555 37.145,141.08 41.99,146.6 C46.835,152.12 52.225,152.32 55.185,153.33 C58.655,154.515 92.475,155.205 98.405,154.51 C98.545,154.39 119.93,155.755 127.47,145.79 C135.01,135.825 136.03,124.185 136.025,120.095 C136.035,109.19 132.625,98.5 124.845,90.525 Z" id="Shape" fill="#00A08C"/>
                </g>
                <path d="M77.915,137 C77.915,137 80.55,172.385 81.415,181.5 C79.915,181.95 70.335,181.35 68.815,181.215 C66.765,176.1 63.08,135.605 63.08,135.605 L77.915,137 Z" id="Shape" fill="#00A08C"/>
                <path d="M125.525,137 C125.525,137 128.16,172.385 129.025,181.5 C127.525,181.95 117.945,181.35 116.425,181.215 C114.37,176.1 110.69,135.605 110.69,135.605 L125.525,137 Z" id="Shape" fill="#00A08C"/>
              </g>
            </g>
          </g>
        </g>
      </g>
    </g>
  </g>
</svg>