<svg version="1.1" width="66" height="71" xmlns="http://www.w3.org/2000/svg" xmlns:xlink="http://www.w3.org/1999/xlink">
  <!-- Exported by Scratch - http://scratch.mit.edu/ -->
  <g id="ID0.4668309511616826">
    <g id="ID0.054108092561364174">
      <g id="ID0.7094646096229553">
        <path id="ID0.6654982101172209" fill="#00CCCC" d="M 65.579 42.010 C 65.559 42.750 65.459 43.480 65.289 44.200 C 64.079 49.290 60.959 53.680 56.019 57.250 C 55.979 57.280 55.929 57.310 55.889 57.350 C 52.899 59.440 50.249 60.970 47.789 62.040 C 45.979 62.820 44.189 63.580 42.429 64.310 C 40.529 65.090 37.859 65.870 33.989 66.780 C 30.009 67.710 28.139 68.310 27.369 68.590 C 23.959 69.870 21.919 70.350 19.869 70.350 C 18.749 70.350 17.659 70.200 16.619 69.900 C 16.579 69.890 16.539 69.880 16.499 69.860 C 14.669 69.310 13.219 68.620 11.939 67.680 C 9.799 66.120 8.179 63.990 7.249 61.510 C 7.129 61.180 7.019 60.840 6.929 60.500 C 5.659 55.730 7.159 50.910 10.779 47.640 C 10.559 44.510 10.279 40.630 9.929 36.050 C 9.879 35.200 9.829 34.440 9.779 33.750 C 9.289 32.170 9.159 30.490 9.409 28.810 C 9.499 28.240 9.579 27.520 9.609 26.630 C 7.689 25.960 5.629 24.830 3.609 22.980 C 1.589 21.120 0.329 18.570 0.089 15.840 C -0.021 14.570 -0.251 11.960 1.049 9.130 C 2.189 6.630 5.759 1.150 15.039 1.150 C 15.249 1.150 15.469 1.150 15.689 1.160 C 15.749 1.150 15.819 1.140 15.889 1.130 C 16.419 1.050 16.789 0.990 17.019 0.950 L 18.289 0.700 C 18.829 0.590 19.379 0.520 19.939 0.490 C 26.849 0.160 31.349 0 33.679 0 C 34.629 0 35.309 0.030 35.919 0.080 C 41.629 0.520 43.809 0.910 45.059 1.190 C 45.099 1.200 45.129 1.210 45.169 1.220 C 51.429 2.700 56.089 5.720 59.029 10.180 C 59.089 10.280 59.149 10.370 59.209 10.470 C 60.609 12.740 62.009 16.610 60.729 22.130 C 60.689 22.310 60.649 22.480 60.599 22.650 C 60.169 24.180 59.549 25.630 58.739 26.990 C 60.399 28.460 61.869 30.090 63.119 31.860 C 63.189 31.950 63.249 32.040 63.309 32.130 C 65.499 35.430 65.679 39.140 65.579 42.010 Z "/>
      </g>
    </g>
    <g id="ID0.648121704813093">
      <path id="ID0.9030450112186372" fill="#FFFFFF" d="M 54.589 41.651 C 54.002 44.114 52.331 46.343 49.575 48.336 C 47.229 49.979 45.177 51.182 43.418 51.942 C 41.659 52.705 39.929 53.438 38.229 54.141 C 36.938 54.669 34.680 55.315 31.456 56.077 C 27.937 56.899 25.299 57.632 23.540 58.276 C 21.370 59.097 20.079 59.450 19.670 59.332 C 19.083 59.155 18.672 58.979 18.439 58.804 C 18.028 58.511 17.735 58.131 17.559 57.660 C 17.324 56.780 17.676 56.048 18.615 55.461 C 19.024 55.168 20.168 54.876 22.046 54.581 C 22.046 54.523 22.002 54.348 21.914 54.054 C 21.825 53.761 21.781 53.527 21.781 53.350 C 21.958 52.002 22.046 51.270 22.046 51.152 C 21.811 47.576 21.430 42.267 20.902 35.231 C 20.784 33.471 20.696 32.036 20.637 30.920 C 20.578 30.804 20.461 30.656 20.285 30.481 C 20.871 26.669 20.695 21.979 19.758 16.407 L 19.934 16.231 C 19.406 16.173 18.878 16.143 18.351 16.143 C 17.880 16.143 17.265 16.203 16.503 16.319 C 15.740 16.437 15.154 16.495 14.744 16.495 C 13.455 16.495 12.223 15.957 11.050 14.879 C 10.992 14.221 10.992 13.832 11.050 13.713 C 11.577 12.520 13.248 12.010 16.064 12.186 C 16.240 12.186 16.723 12.128 17.515 12.010 C 18.307 11.893 18.848 11.805 19.142 11.746 C 19.435 11.687 19.874 11.600 20.461 11.481 C 29.023 11.072 33.860 10.924 34.975 11.042 C 38.787 11.336 41.337 11.629 42.627 11.922 C 46.087 12.743 48.490 14.180 49.840 16.232 C 50.309 16.995 50.367 18.138 50.016 19.663 C 49.370 21.950 47.495 23.944 44.387 25.644 C 43.156 26.347 40.633 27.374 36.823 28.722 C 45.091 30.424 50.866 33.590 54.151 38.222 C 54.501 38.748 54.647 39.891 54.589 41.651 Z M 41.660 15.790 C 39.549 15.204 36.998 14.852 34.007 14.734 L 29.257 14.734 C 27.907 14.734 26.443 14.910 24.860 15.261 C 25.329 18.546 25.592 20.950 25.652 22.474 L 25.652 27.752 C 28.700 27.283 32.893 26.140 38.230 24.321 C 40.986 23.383 42.715 22.416 43.419 21.418 C 44.357 20.070 44.826 19.073 44.826 18.428 C 44.826 17.257 43.770 16.377 41.660 15.790 Z M 49.047 42.443 C 49.516 41.505 49.516 40.714 49.047 40.068 C 44.825 34.849 38.609 32.239 30.400 32.239 C 29.050 32.239 27.586 32.299 26.003 32.415 C 26.296 38.515 26.735 44.760 27.322 51.151 C 27.322 51.561 27.322 51.797 27.322 51.854 C 27.554 52.265 27.758 52.734 27.932 53.261 C 31.074 52.909 35.014 51.722 39.755 49.699 C 44.495 47.676 47.594 45.257 49.047 42.443 Z "/>
    </g>
  </g>
</svg>