<svg width="40px" height="50px" viewBox="0 0 40 50" version="1.1" xml:space="preserve" xmlns="http://www.w3.org/2000/svg" xmlns:xlink="http://www.w3.org/1999/xlink">
  <!-- Generator: Sketch 49.3 (51167) - http://www.bohemiancoding.com/sketch -->
  <defs/>
  <g>
    <title>jar-b</title>
    <desc>Created with Sketch.</desc>
    <g id="jar-b" stroke="none" stroke-width="1" fill="none" fill-rule="evenodd">
      <g id="Honey2" transform="translate(2.000000, 2.000000)" fill-rule="nonzero">
        <g id="Group" transform="translate(1.000000, 4.000000)">
          <path d="M11,1.4 C5.5,2.2 0.8,4.9 0.8,12.4 C0.8,19.9 -1.1,37.4 5.2,39.9 C11.5,42.4 26.1,43.9 30.3,38.4 C34.5,32.9 34.3,8.4 30.5,4.6 C27.4,1.6 20,0.2 11,1.4 Z" id="Shape" fill="#CFEBE2"/>
          <g transform="translate(2.000000, 3.000000)">
            <path d="M7.5,1.6 C3.7,2.3 -9.02056208e-16,4.8 0.1,15.5 C0.2,26 0.9,32.9 5,35.2 C10.3,38.2 24.9,37.8 27.6,33.3 C30.3,28.8 29.3,8.4 27.2,5.5 C25.2,2.5 22.3,-1.4 7.5,1.6 Z" id="Shape" fill="#F7A737"/>
            <path d="M27.3,33.8 C18.6,29.4 7.7,31.8 3.5,33.9 C4,34.4 4.5,34.9 5.1,35.2 C10.1,38.1 23.9,37.9 27.3,33.8 Z" id="Shape" fill="#EB9034"/>
            <circle id="Oval" fill="#FFC154" cx="4.7" cy="30.9" r="1"/>
            <circle id="Oval" fill="#FFC154" cx="24.6" cy="13" r="1"/>
            <circle id="Oval" fill="#FFC154" cx="25.8" cy="28" r="1"/>
            <circle id="Oval" fill="#FFC154" cx="18" cy="31.9" r="1"/>
            <circle id="Oval" fill="#FFC154" cx="5.7" cy="31.9" r="1"/>
            <circle id="Oval" fill="#FFC154" cx="22.6" cy="29" r="1"/>
            <circle id="Oval" fill="#FFC154" cx="4.6" cy="11.6" r="1"/>
            <circle id="Oval" fill="#FFC154" cx="17.1" cy="9.9" r="1"/>
            <circle id="Oval" fill="#FFC154" cx="8" cy="26.4" r="1"/>
            <circle id="Oval" fill="#FFC154" cx="14.8" cy="34.4" r="1"/>
            <circle id="Oval" fill="#FFC154" cx="22.9" cy="10.7" r="1"/>
            <circle id="Oval" fill="#FFC154" cx="7.4" cy="14.2" r="1"/>
            <circle id="Oval" fill="#FFC154" cx="11.9" cy="10" r="1"/>
          </g>
          <path d="M33.1,27.1 C33.4,23.9 33.4,20.4 33.3,17.2 C30.8,18.2 26.8,18.9 19.3,19.5 C9.3,20.3 3.1,18.3 0.6,16.8 C0.5,19.6 0.4,22.7 0.5,25.9 C3.7,27.1 9.4,28.7 16.6,28.6 C25,28.5 30.2,27.7 33.1,27.1 Z" id="Shape" fill="#F0E0DA"/>
          <g transform="translate(10.000000, 16.000000)" id="Shape">
            <g fill="#F0E0DA">
              <path d="M15.3,9.3 L13.5,8.9 C13.3,7.7 12.7,6.9 11.8,6.4 C11.5,6.2 11.1,6 10.8,5.9 C10.4,5.8 10.1,5.7 9.7,5.6 C9.6,5.6 9.5,5.6 9.4,5.5 C10.7,4.8 12.3,3.5 10.4,2.3 C8.6,1.1 8.1,4 8,5.4 C7.9,5.4 7.9,5.4 7.8,5.4 C7.7,3.9 7.2,0.8 5.1,2.5 C3.7,3.6 5.2,4.8 6.5,5.5 C6.4,5.5 6.3,5.5 6.2,5.5 C5.5,5.6 4.8,5.8 4.1,5.9 C4.1,5.9 4.1,5.9 4,5.9 C0.3,7.1 0.7,12.3 4.3,12.7 C4.3,12.7 4.3,12.7 4.4,12.7 C5.1,12.8 6,12.8 6.9,12.9 C10,13 13.7,12.5 13.7,10 C13.7,9.9 13.7,9.8 13.7,9.6 L15.3,9.3 Z"/>
              <path d="M14.4,8 C14.1,6.9 13.4,6.1 12.4,5.4 C12.1,5.2 11.8,5.1 11.5,4.9 C11.9,4.4 12.1,3.9 12.2,3.4 C12.2,2.8 12,2 10.9,1.3 C10,0.7 9.2,0.8 8.8,1 C8.5,1.2 8.2,1.4 7.9,1.8 C7.6,1.4 7.3,1.1 7,1 C6.5,0.8 5.6,0.7 4.5,1.5 C3.6,2.2 3.5,2.9 3.6,3.4 C3.6,3.9 3.8,4.3 4.2,4.8 C4.1,4.8 3.9,4.9 3.8,4.9 C1.3,5.7 0.3,8 0.5,9.8 C0.7,11.8 2.2,13.4 4.2,13.6 L4.4,13.6 C5.3,13.7 6.2,13.7 7,13.8 C7.2,13.8 7.4,13.8 7.6,13.8 C13,13.8 14.6,12 14.9,10.3 L20.3,9.3 L14.4,8 Z M9.5,2.9 C9.5,2.9 9.6,2.9 9.7,3 C10.1,3.2 10.1,3.4 10.1,3.4 C10.1,3.4 10,3.8 9,4.4 C9.2,3.3 9.5,2.9 9.5,2.9 Z M5.6,3.1 C5.9,2.9 6.1,2.8 6.1,2.8 C6.2,2.9 6.5,3.3 6.7,4.3 C5.8,3.8 5.5,3.4 5.5,3.3 C5.4,3.3 5.5,3.3 5.6,3.1 Z M6.9,11.9 C6.1,11.9 5.3,11.8 4.5,11.8 L4.3,11.8 C3,11.6 2.4,10.6 2.3,9.7 C2.2,8.7 2.6,7.4 4.3,6.8 C4.9,6.6 5.5,6.5 6.3,6.4 L7.2,6.3 L8.5,6.3 L9.5,6.4 C9.8,6.5 10.2,6.6 10.5,6.7 C10.8,6.8 11.1,6.9 11.3,7.1 C12,7.6 12.4,8.2 12.6,9 L12.7,9.8 L12.7,9.9 C12.6,11.8 8.6,11.9 6.9,11.9 Z"/>
            </g>
            <g transform="translate(1.000000, 1.000000)">
              <path d="M6.8,5 C6.8,5 1.8,3.1 4,1.3 C6.7,-0.8 6.8,5 6.8,5 Z" fill="#A7D9C9"/>
              <path d="M6.9,5.1 C6.9,5.1 7,-0.4 9.3,1.2 C12.2,3.1 6.9,5.1 6.9,5.1 Z" fill="#A7D9C9"/>
              <g transform="translate(0.000000, 4.000000)">
                <polygon fill="#614F4F" points="11.2 3.5 14.3 4.3 11.1 4.9"/>
                <g>
                  <path d="M3.3,7.7 C-0.4,7.3 -0.8,2 3,0.8 C6.8,-0.4 12.8,-0.1 12.7,4.9 C12.6,8.3 6.2,8 3.3,7.7 Z" fill="#F7A737"/>
                  <path d="M2.9,0.9 C-0.8,2.1 -0.4,7.3 3.2,7.7 C4.8,5.1 3.8,2.4 2.9,0.9 Z" fill="#614F4F"/>
                  <path d="M6.6,0.3 C6.1,0.3 5.6,0.3 5.1,0.4 C6,1.9 7,4.7 5.8,7.9 C6.3,7.9 6.9,7.9 7.5,7.9 C8.3,6 9,3 6.6,0.3 Z" fill="#614F4F"/>
                  <path d="M8.6,0.5 C9.4,2 10.5,4.6 9.4,7.7 C10.1,7.6 10.8,7.3 11.3,7 C11.8,5.4 12,3.3 10.8,1.3 C10.2,0.9 9.5,0.6 8.6,0.5 Z" fill="#614F4F"/>
                </g>
              </g>
            </g>
          </g>
        </g>
        <g id="Group">
          <path d="M4.1,8.7 C4.1,8.7 0.8,10.4 0,10.9 C0,10.9 0.8,14.5 3.2,13.9 C5.6,13.4 6.6,13.6 8.1,15.5 C9.6,17.4 13.8,14.2 16.1,14.7 C18.4,15.2 18.9,15.9 20.2,15.3 C21.5,14.8 23.6,14.3 25.3,14.6 C26.9,14.9 29.1,15.5 31.2,14.5 C33.4,13.5 35.8,11.6 35.8,11.6 C35.8,11.6 32.1,9 31,9.3 C31,9.3 21.2,11.1 4.1,8.7 Z" id="Shape" fill="#E5E4E1"/>
          <path d="M3.8,8.8 C3.1,9.2 0.7,10.5 0,10.9 C0,10.9 0.2,11.7 0.6,12.5 L4.7,9.1 L3.8,8.8 Z" id="Shape" fill="#F0CF95"/>
          <path d="M6.6,9.9 L1.9,13.9 C2.3,14.1 2.7,14.1 3.2,14 C3.4,13.9 3.7,13.9 3.9,13.9 L7.7,10.2 L6.6,9.9 Z" id="Shape" fill="#F0CF95"/>
          <path d="M9.4,10.3 L6.8,14.2 C7.2,14.5 7.6,14.8 8,15.4 L10.9,10.4 L9.4,10.3 Z" id="Shape" fill="#F0CF95"/>
          <path d="M11,15.9 C11.6,15.8 12.1,15.6 12.7,15.4 L13.9,11.7 L12.4,11.3 L11,15.9 Z" id="Shape" fill="#F0CF95"/>
          <path d="M15.3,14.7 C15.6,14.7 15.8,14.7 16.1,14.8 C16.4,14.9 16.6,14.9 16.8,15 L17.6,11.8 L16.1,11.5 L15.3,14.7 Z" id="Shape" fill="#F0CF95"/>
          <path d="M19.9,15.4 C20,15.4 20.1,15.3 20.2,15.3 C20.6,15.1 21,15 21.5,14.9 L21.3,11.4 L20,11.4 L19.9,15.4 Z" id="Shape" fill="#F0CF95"/>
          <path d="M26.1,14.8 L25.4,10.6 L24.5,10.9 L24.7,14.6 C24.9,14.6 25,14.6 25.2,14.7 C25.6,14.7 25.8,14.8 26.1,14.8 Z" id="Shape" fill="#F0CF95"/>
          <path d="M30.4,14.9 L28,10.1 L27,10.4 L28.9,15.1 C29.3,15.1 29.8,15 30.4,14.9 Z" id="Shape" fill="#F0CF95"/>
          <path d="M34.9,12.3 L30.4,9.7 L29.3,9.7 L33.7,13.1 C34.2,12.8 34.6,12.6 34.9,12.3 Z" id="Shape" fill="#F0CF95"/>
          <path d="M3.9,9.6 C3.9,9.6 2,6.7 3.5,4.5 C5,2.3 11.6,0.9 19.8,1 C28,1.1 34.3,2.9 32,9.7 C32,9.7 18.1,15.6 3.9,9.6 Z" id="Shape" fill="#D3D2CF"/>
          <path d="M3.9,9.6 C3.9,9.6 2,6.7 3.5,4.5 C5,2.3 11.6,0.9 19.8,1 C28,1.1 34.3,2.9 32,9.7 C32,9.7 18.1,15.6 3.9,9.6 Z" id="Shape" fill="#D3D2CF"/>
          <path d="M19.4,6.6 C26,6.1 29.6,5.3 31.6,4.5 C29.9,1.9 25.3,1.1 19.8,1 C11.6,0.9 5.1,2.3 3.5,4.5 C3.5,4.6 3.4,4.6 3.4,4.7 C5.3,5.8 9.6,7.4 19.4,6.6 Z" id="Shape" fill="#E5E4E1"/>
          <path d="M10.7,1.6 C8.5,2.5 5.5,3.9 4.7,4.7 C3.8,5.5 3.9,8.1 4,9.6 C4.5,9.8 5.1,10 5.6,10.2 C5.5,9 5.4,6.7 5.8,5.5 C6,4.8 11.6,2.3 14.4,1.1 C13.1,1.3 11.8,1.4 10.7,1.6 Z" id="Shape" fill="#E6BE79"/>
          <path d="M14.4,1.2 C13.1,1.3 11.8,1.4 10.7,1.6 C8.5,2.5 5.5,3.9 4.7,4.7 C4.5,4.8 4.4,5 4.4,5.2 C4.8,5.4 5.2,5.6 5.8,5.7 C5.8,5.6 5.8,5.6 5.8,5.5 C6,4.8 11.6,2.3 14.4,1.2 Z" id="Shape" fill="#F0CF95"/>
          <path d="M20.3,1 C20.1,1 20,1 19.8,1 C19.1,1 18.4,1 17.7,1 C15.3,1.9 10.2,4 9.2,5 C8.2,6 8.6,9.4 8.9,11.2 C9.4,11.3 10,11.5 10.5,11.6 C10.3,10.1 10,7 10.3,5.9 C10.5,5.1 17.5,2.2 20.3,1 Z" id="Shape" fill="#E6BE79"/>
          <path d="M9.2,5.1 C8.9,5.3 8.8,5.8 8.7,6.4 C9.2,6.5 9.7,6.5 10.2,6.6 C10.2,6.3 10.2,6.1 10.3,5.9 C10.5,5.1 17.5,2.2 20.3,1 C20.1,1 20,1 19.8,1 C19.1,1 18.4,1 17.7,1 C15.3,2 10.2,4 9.2,5.1 Z" id="Shape" fill="#F0CF95"/>
          <path d="M23.8,1.2 C21.5,2.1 14.8,4.9 13.7,6 C12.6,7.1 13,10.8 13.2,12 C13.7,12.1 14.2,12.1 14.7,12.1 C14.6,11.2 14.4,8.2 14.8,6.9 C15,6.1 22.6,2.9 25.8,1.5 C25.1,1.4 24.5,1.3 23.8,1.2 Z" id="Shape" fill="#E6BE79"/>
          <path d="M25.7,1.5 C25.1,1.4 24.5,1.3 23.8,1.2 C21.5,2.1 14.8,4.9 13.7,6 C13.5,6.2 13.4,6.4 13.3,6.8 C13.8,6.8 14.3,6.8 14.9,6.8 C15.5,5.9 22.6,2.8 25.7,1.5 Z" id="Shape" fill="#F0CF95"/>
          <path d="M29.3,2.6 C28.9,2.4 28.5,2.2 28,2.1 C26.5,2.7 19.8,5.3 18.6,6.5 C17.7,7.4 18,10.5 18.2,12.3 C18.7,12.3 19.2,12.3 19.8,12.3 C19.6,10.7 19.5,8.3 19.7,7.4 C19.8,6.6 26.2,3.8 29.3,2.6 Z" id="Shape" fill="#E6BE79"/>
          <path d="M29.3,2.6 C29.2,2.6 29.1,2.5 29,2.5 C28.7,2.4 28.3,2.2 28,2.1 C26.5,2.7 19.8,5.3 18.6,6.5 C18.5,6.6 18.5,6.7 18.4,6.8 C18.8,6.8 19.1,6.8 19.5,6.7 C19.9,6.7 20.3,6.6 20.7,6.6 C22.5,5.4 26.9,3.6 29.3,2.6 Z" id="Shape" fill="#F0CF95"/>
          <path d="M24.5,7.2 C24.6,6.7 28.4,5.2 31.2,3.9 C30.9,3.6 30.6,3.4 30.3,3.1 C27.8,4.2 24.3,5.9 23.7,6.5 C22.7,7.5 22.5,10.6 22.6,12 C23.1,11.9 23.6,11.8 24.1,11.7 C24,10.5 24.2,8.3 24.5,7.2 Z" id="Shape" fill="#E6BE79"/>
          <path d="M24.2,6.2 C25.4,6 26.5,5.9 27.4,5.7 C28.6,5.1 30,4.5 31.2,4 C31,3.8 30.8,3.6 30.5,3.4 C30.4,3.4 30.4,3.3 30.3,3.3 C28.2,4.1 25.4,5.4 24.2,6.2 Z" id="Shape" fill="#F0CF95"/>
          <path d="M19.7,1 L28,2.1 C25.8,1.4 22.9,1.1 19.7,1 C19.8,1 19.7,1 19.7,1 Z" id="Shape" fill="#F0CF95"/>
          <path d="M23.2,1.5 L25.2,1.8 C25.4,1.7 25.5,1.7 25.7,1.6 C25.7,1.6 25.7,1.6 25.6,1.6 C25,1.5 24.4,1.4 23.7,1.3 C23.6,1.3 23.4,1.4 23.2,1.5 Z" id="Shape" fill="#EDB34E"/>
          <path d="M3,6.9 C3,7.3 3.1,7.6 3.2,8 C18.5,12.9 29.6,8.5 32.4,7.2 C32.4,6.8 32.4,6.4 32.3,6 C30.2,6.8 24,9 16.1,9 C9,9.1 4.8,7.7 3,6.9 Z" id="Shape" fill="#E6BE79"/>
          <path d="M22.8,8.5 C22.7,9 22.6,9.4 22.6,9.9 C23.1,9.8 23.7,9.7 24.2,9.7 C24.2,9.2 24.3,8.7 24.4,8.3 C23.8,8.3 23.3,8.4 22.8,8.5 Z" id="Shape" fill="#E3AC4C"/>
          <path d="M19.5,8.9 C19,8.9 18.4,9 17.9,9 C17.9,9.4 17.9,9.8 17.9,10.3 C18.4,10.3 19,10.3 19.5,10.2 C19.5,9.7 19.5,9.3 19.5,8.9 Z" id="Shape" fill="#E3AC4C"/>
          <path d="M14.5,9 C14,9 13.4,9 12.9,9 C12.9,9.4 12.9,9.7 12.9,10.1 C13.4,10.2 14,10.2 14.5,10.2 C14.5,9.8 14.5,9.4 14.5,9 Z" id="Shape" fill="#E3AC4C"/>
          <path d="M8.6,9.4 C9.2,9.5 9.7,9.6 10.2,9.7 C10.2,9.4 10.2,9.1 10.1,8.7 C9.6,8.6 9.1,8.6 8.6,8.5 C8.6,8.8 8.6,9.1 8.6,9.4 Z" id="Shape" fill="#E3AC4C"/>
          <path d="M5.5,7.8 C4.9,7.6 4.4,7.4 4,7.3 C4,7.6 4,7.9 4,8.2 C4.5,8.4 5,8.5 5.6,8.7 C5.5,8.4 5.5,8.1 5.5,7.8 Z" id="Shape" fill="#E3AC4C"/>
          <path d="M27.5,11.1 C27.6,9.9 27.6,6.1 26.2,6.1 C25.4,6.1 7.6,5.1 3.2,4.9 C3.1,5.2 3.1,5.4 3,5.7 C6.9,5.9 24,6.9 25.3,6.9 C26.4,6.9 26.5,10.1 26.5,11.4 C26.9,11.3 27.2,11.2 27.5,11.1 Z" id="Shape" fill="#E6BE79"/>
          <path d="M6.3,5.9 C10.1,6.1 15.7,6.4 19.8,6.6 C21.7,6.4 23.4,6.3 24.9,6.1 C20.7,5.9 8.4,5.2 3.9,5 C4.5,5.3 5.3,5.6 6.3,5.9 Z" id="Shape" fill="#F0CF95"/>
          <path d="M26.4,9.2 C26.8,9.1 27.2,9 27.5,8.9 C27.5,8.4 27.4,8 27.3,7.5 C26.9,7.6 26.5,7.7 26.1,7.8 C26.3,8.2 26.3,8.7 26.4,9.2 Z" id="Shape" fill="#E3AC4C"/>
          <path d="M25,6.9 C25.3,6.7 25.8,6.5 26.4,6.2 L26.3,6.2 C26.2,6.2 25.5,6.2 24.4,6.1 C24.1,6.3 23.8,6.5 23.7,6.6 C23.6,6.7 23.6,6.8 23.5,6.8 C24.1,6.8 24.6,6.8 25,6.9 Z" id="Shape" fill="#EDB34E"/>
          <path d="M21.8,5.9 C21.1,5.9 20.3,5.8 19.5,5.8 C19.1,6 18.7,6.3 18.5,6.5 C18.5,6.5 18.5,6.6 18.4,6.6 C19.1,6.6 19.7,6.7 20.4,6.7 C20.8,6.4 21.2,6.2 21.8,5.9 Z" id="Shape" fill="#EDB34E"/>
          <path d="M15.4,6.4 C15.7,6.2 16.2,5.9 16.7,5.7 C16,5.7 15.2,5.6 14.4,5.6 C14.1,5.8 13.8,6 13.6,6.1 C13.5,6.2 13.5,6.2 13.4,6.3 C14.1,6.3 14.8,6.3 15.4,6.4 Z" id="Shape" fill="#EDB34E"/>
          <path d="M9.1,5.2 C8.9,5.4 8.8,5.7 8.7,6 C9.2,6 9.7,6.1 10.2,6.1 C10.2,6 10.2,6 10.2,5.9 C10.2,5.8 10.5,5.6 10.9,5.3 C10.3,5.3 9.7,5.3 9.1,5.2 Z" id="Shape" fill="#EDB34E"/>
          <path d="M4.4,5 C4.3,5.2 4.2,5.5 4.1,5.8 C4.6,5.8 5.1,5.9 5.7,5.9 C5.7,5.8 5.7,5.7 5.8,5.6 C5.8,5.5 6,5.3 6.2,5.2 C5.6,5 5,5 4.4,5 Z" id="Shape" fill="#EDB34E"/>
          <path d="M28.8,4.7 C27.4,4.4 12.7,3.1 6.6,2.6 C5.6,3 4.8,3.4 4.2,3.8 C6.4,3.9 24.4,4.5 27.9,5.5 C28.7,5.7 28.9,9.7 28.9,10.8 C29.3,10.7 29.7,10.6 30,10.5 C30.1,9 30.2,5 28.8,4.7 Z" id="Shape" fill="#E6BE79"/>
          <path d="M28.8,4.7 C27.4,4.4 12.7,3.1 6.6,2.6 C6.4,2.7 6.1,2.8 5.9,2.8 C5.9,2.8 5.9,2.8 5.8,2.8 C5.7,3 5.5,3 5.3,3.1 C5.3,3.1 5.3,3.1 5.2,3.1 C5,3.3 4.9,3.4 4.7,3.5 C4.5,3.6 4.4,3.7 4.2,3.8 C6.4,3.9 24.4,4.5 27.9,5.5 C27.9,5.5 28,5.5 28,5.6 C28.5,5.5 29,5.4 29.5,5.3 C29.3,4.9 29.1,4.7 28.8,4.7 Z" id="Shape" fill="#F0CF95"/>
          <path d="M27.8,5.5 C28.2,5.3 28.7,5.1 29.1,4.9 C29,4.8 28.9,4.7 28.7,4.7 C28.5,4.7 28,4.6 27.2,4.5 C26.8,4.7 26.3,4.9 25.9,5.1 C26.8,5.2 27.4,5.3 27.8,5.5 Z" id="Shape" fill="#EDB34E"/>
          <path d="M23.9,4.9 C24.3,4.7 24.8,4.5 25.2,4.3 C24.5,4.2 23.8,4.2 23,4.1 C22.5,4.3 22.1,4.5 21.6,4.7 C22.4,4.8 23.2,4.8 23.9,4.9 Z" id="Shape" fill="#EDB34E"/>
          <path d="M19,4.5 C19.5,4.3 20,4.1 20.5,3.8 C19.8,3.7 19,3.7 18.3,3.6 C17.8,3.8 17.2,4.1 16.7,4.3 C17.4,4.4 18.2,4.5 19,4.5 Z" id="Shape" fill="#EDB34E"/>
          <path d="M12.7,3.1 C12,3.4 11.3,3.7 10.8,4 C11.6,4 12.4,4.1 13.2,4.1 C13.8,3.8 14.4,3.5 15,3.3 C14.2,3.3 13.4,3.2 12.7,3.1 Z" id="Shape" fill="#EDB34E"/>
          <path d="M8.2,3.9 C8.9,3.6 9.6,3.2 10.4,2.9 C9.6,2.8 8.8,2.8 8.1,2.7 C7.3,3.1 6.5,3.5 5.9,3.9 C6.5,3.9 7.3,3.9 8.2,3.9 Z" id="Shape" fill="#EDB34E"/>
          <path d="M28.7,8.6 C29.2,8.5 29.6,8.3 30,8.2 C30,7.8 30,7.3 29.9,6.9 C29.5,7 29,7.2 28.6,7.3 C28.6,7.7 28.7,8.1 28.7,8.6 Z" id="Shape" fill="#E3AC4C"/>
          <path d="M31.9,9.7 C31.9,8.6 32,6.3 31.8,4.7 C31.3,3.9 30.5,3.2 29.4,2.7 C26,2.2 18.6,1.6 13.8,1.2 C12.1,1.3 10.5,1.6 9.2,1.9 C14.2,2.2 28.7,3 29.5,3.4 C30.4,3.9 31.5,5.1 31.3,10 C31.6,9.9 31.9,9.8 31.9,9.7 Z" id="Shape" fill="#E6BE79"/>
          <path d="M30.5,3.4 C30.4,3.3 30.3,3.3 30.2,3.2 C30.2,3.1 30.1,3.1 30,3 C29.8,2.9 29.7,2.8 29.5,2.7 C29.5,2.7 29.4,2.7 29.4,2.6 C26,2.2 18.6,1.6 13.8,1.2 C12.9,1.3 12.1,1.4 11.4,1.5 C11.4,1.5 11.4,1.5 11.3,1.5 C10.9,1.6 10.6,1.6 10.2,1.7 C10.1,1.7 10,1.7 9.9,1.8 C9.6,1.8 9.4,1.9 9.1,2 C14.1,2.3 28.6,3.1 29.4,3.5 C29.8,3.7 30.3,4.1 30.6,4.9 C31,4.8 31.3,4.7 31.6,4.5 C31.3,4.1 31,3.7 30.5,3.4 Z" id="Shape" fill="#F0CF95"/>
          <path d="M30.9,3.7 C30.8,3.6 30.8,3.6 30.7,3.5 C30.6,3.4 30.4,3.3 30.2,3.2 C30,3.3 29.7,3.4 29.5,3.5 C29.8,3.7 30.1,3.9 30.3,4.3 C30.6,4.2 30.8,4.1 31.1,3.9 C31.1,3.9 31,3.8 30.9,3.7 Z" id="Shape" fill="#EDB34E"/>
          <path d="M25.7,2.9 C26.6,3 27.3,3 27.9,3.1 C28.3,2.9 28.8,2.7 29.1,2.6 C28.5,2.5 27.8,2.4 27.1,2.4 C26.7,2.5 26.2,2.7 25.7,2.9 Z" id="Shape" fill="#EDB34E"/>
          <path d="M20.6,2.6 C21.4,2.7 22.2,2.7 22.9,2.8 C23.4,2.6 23.9,2.4 24.3,2.2 C23.6,2 22.9,2 22.2,1.9 C21.7,2.1 21.1,2.3 20.6,2.6 Z" id="Shape" fill="#EDB34E"/>
          <path d="M10.8,1.6 C10.7,1.6 10.7,1.6 10.8,1.6 C10.5,1.7 10.2,1.8 10,1.9 C10.7,1.9 11.5,2 12.4,2 C13.1,1.7 13.7,1.4 14.3,1.2 C14.2,1.2 14.1,1.2 13.9,1.2 C12.8,1.3 11.7,1.4 10.8,1.6 Z" id="Shape" fill="#EDB34E"/>
          <path d="M16.7,1.4 C16.1,1.6 15.5,1.9 14.8,2.2 C15.6,2.2 16.4,2.3 17.2,2.3 C17.8,2 18.4,1.8 18.9,1.6 C18.1,1.6 17.4,1.5 16.7,1.4 Z" id="Shape" fill="#EDB34E"/>
          <path d="M31.2,7.7 C31.5,7.6 31.7,7.5 32,7.4 C32,7 32,6.6 32,6.2 C31.8,6.3 31.5,6.4 31.2,6.5 C31.1,6.8 31.2,7.2 31.2,7.7 Z" id="Shape" fill="#E3AC4C"/>
          <path d="M34.4,10.7 C34,10.5 33.6,10.2 33.1,9.9 C32.5,10.7 31.1,12 29.6,11.9 C27.4,11.8 23.1,11.5 21.5,12.3 C19.8,13.1 18.7,13.2 16.3,12.7 C13.9,12.2 10.8,14.3 9.9,13.6 C9,12.9 6.5,11.1 5,11.1 C3.9,11.2 3,10.8 2.2,9.7 C1.8,9.9 1.4,10.1 1,10.3 C1.6,11.4 2.7,12.7 4.2,12.5 C6.2,12.2 7,14.6 9.6,14.7 C12.2,14.8 12.9,13.5 15.5,13.5 C18.1,13.6 17.7,14.5 19.6,14 C21.6,13.5 23.2,12.5 25.2,13 C27.1,13.5 31.9,13.2 34.4,10.7 Z" id="Shape" fill="#F0CF95"/>
          <path d="M17.3,12.9 C17,12.9 16.7,12.8 16.3,12.7 C16.1,12.7 16,12.6 15.8,12.6 L15.5,13.6 C16.2,13.6 16.7,13.7 17,13.8 L17.3,12.9 Z" id="Shape" fill="#EDB34E"/>
          <path d="M11.3,14.6 C11.9,14.4 12.5,14.2 13,14 L13.4,12.9 C12.8,13.1 12.2,13.3 11.7,13.4 L11.3,14.6 Z" id="Shape" fill="#EDB34E"/>
          <path d="M8.5,14.6 L9.3,13.2 C8.9,12.9 8.5,12.7 8.1,12.4 L7.1,13.9 C7.5,14.1 8,14.4 8.5,14.6 Z" id="Shape" fill="#EDB34E"/>
          <path d="M5.1,11.2 L3.5,12.6 C3.7,12.6 4,12.7 4.2,12.6 C4.5,12.6 4.8,12.6 5.1,12.7 L6.3,11.5 C5.9,11.3 5.4,11.1 5.1,11.2 Z" id="Shape" fill="#EDB34E"/>
          <path d="M1.8,11.5 L3,10.5 C2.7,10.3 2.4,10.1 2.2,9.7 C2.2,9.7 2.2,9.7 2.1,9.7 C2,9.8 1.8,9.9 1.7,10 C1.6,10 1.6,10 1.5,10.1 C1.4,10.1 1.3,10.2 1.1,10.3 C1.1,10.3 1,10.3 1,10.4 C1.2,10.7 1.5,11.2 1.8,11.5 Z" id="Shape" fill="#EDB34E"/>
          <path d="M32.4,10.8 C32.2,11 31.9,11.2 31.6,11.4 L32.5,12.1 C32.9,11.9 33.2,11.7 33.6,11.5 L32.4,10.8 Z" id="Shape" fill="#EDB34E"/>
          <path d="M28.1,13.2 C28.5,13.2 29,13.1 29.4,13 L28.8,11.9 C28.4,11.9 27.9,11.8 27.5,11.8 L28.1,13.2 Z" id="Shape" fill="#EDB34E"/>
          <path d="M24.6,11.8 L24.7,13 C24.9,13 25,13 25.2,13.1 C25.4,13.1 25.6,13.2 25.8,13.2 L25.6,11.8 C25.3,11.8 25,11.8 24.6,11.8 Z" id="Shape" fill="#EDB34E"/>
          <path d="M19.9,14.1 C20.4,14 20.9,13.8 21.4,13.6 L21.3,12.4 C20.8,12.6 20.4,12.8 20,12.9 L19.9,14.1 Z" id="Shape" fill="#EDB34E"/>
          <path d="M3.5,8.7 C3.5,8.7 8.7,12.2 17.8,11.9 C26.9,11.6 32.2,8.8 32.2,8.8 C32.2,8.8 32.4,8.9 32.4,9.5 C32.4,9.5 23.5,13.2 16.3,12.6 C5.8,11.7 3.2,9.2 3.2,9.2 L3.5,8.7 Z" id="Shape" fill="#C6AA8B"/>
        </g>
      </g>
    </g>
  </g>
</svg>