<svg version="1.1" width="90" height="156" viewBox="-1 -1 90 156" xmlns="http://www.w3.org/2000/svg" xmlns:xlink="http://www.w3.org/1999/xlink">
  <!-- Exported by Scratch - http://scratch.mit.edu/ -->
  <g id="ID0.5657270951196551" transform="matrix(1, 0, 0, 1, 0, -0.75)">
    <g id="Page-1">
      <g id="andie-b-[sports,basketball,people,wheelchair,handicap,handicapable,alex-eben-meyer]">
        <g id="Right-Arm">
          <path id="Fill-1" fill="#BE965A" stroke="none" stroke-width="1" d="M 33.582 26.305 C 32.538 22.391 30.343 18.736 27.821 15.609 C 25.404 12.612 23.153 11.538 19.993 9.697 C 18.602 8.887 11.152 7.252 10.933 5.097 C 10.714 2.942 10.962 1.585 10.375 0.986 C 8.829 1.106 9.280 5.046 8.779 6.008 C 6.721 7.082 7.179 1.092 6.098 0.939 C 5.016 0.787 6.011 4.215 5.492 5.967 C 4.859 6.571 4.346 6.464 3.884 5.827 C 2.825 4.366 3.407 2.160 2.842 2.222 C 2.277 2.284 1.937 4.833 2.152 6.158 C 2.575 8.769 3.883 11.745 5.074 12.249 C 6.967 13.050 9.296 14.724 12.374 15.745 C 15.665 16.836 18.856 20.346 20.580 23.314 C 23.453 28.262 23.271 33.864 20.671 38.795 C 19.126 41.725 16.753 43.907 13.946 45.601 C 12.982 46.182 11.871 46.967 10.752 47.191 C 9.799 47.383 8.459 46.794 7.549 47.264 L 9.515 59.276 C 14.157 58.706 18.310 57.983 22.982 55.272 C 26.359 53.312 30.801 49.073 32.809 42.169 C 34.450 36.528 34.049 28.059 33.582 26.305 " transform="matrix(1, 0, 0, 1, 46.25, 23.75)"/>
          <path id="Fill-3" fill="#A0783C" stroke="none" stroke-width="1" d="M 3.738 11.853 C 6.285 12.292 7.368 9.319 10.395 10.141 C 12.854 10.807 13.800 13.596 12.373 15.745 C 10.032 15.523 7.449 14.154 5.213 13.452 C 3.843 13.021 -0.204 11.762 0.434 10.950 C 1.071 10.137 3.087 11.558 3.738 11.853 " transform="matrix(1, 0, 0, 1, 46.25, 23.75)"/>
        </g>
        <g id="Chair">
          <path id="Fill-5" fill="#006482" stroke="none" stroke-width="1" d="M 22.383 17.827 C 22.383 17.827 23.833 4.747 24.799 3.056 C 25.765 1.366 64.644 1.487 64.644 1.487 L 67.778 16.581 L 22.383 17.827 Z " transform="matrix(1, 0, 0, 1, 0.25, 98.75)"/>
          <path id="Fill-7" fill="#006482" stroke="none" stroke-width="1" d="M 65.036 29.837 C 64.307 34.374 62.036 47.271 62.036 47.271 C 62.036 47.271 61.905 47.723 61.835 48.311 C 61.057 48.233 60.348 48.324 60.348 48.324 C 60.348 48.324 32.825 48.482 31.382 48.406 C 30.332 48.350 29.223 48.336 28.284 48.452 C 28.219 47.797 28.068 47.271 28.068 47.271 C 28.068 47.271 25.797 34.374 25.068 29.837 L 22.198 29.837 C 22.372 30.868 22.560 31.895 22.718 32.921 C 23.172 35.882 24.570 44.135 25.725 48.404 C 25.872 48.945 26.472 51.039 26.975 50.968 C 29.803 51.431 32.707 51.203 35.560 51.201 C 38.556 51.199 62.946 50.937 62.946 50.937 C 62.946 50.937 63.738 50.772 64.379 48.404 C 65.535 44.135 66.932 35.882 67.387 32.921 C 67.544 31.895 67.732 30.868 67.906 29.837 L 65.036 29.837 Z " transform="matrix(1, 0, 0, 1, 0.25, 98.75)"/>
          <path id="Fill-9" fill="#000000" stroke="none" stroke-width="1" d="M 58.728 56.531 C 58.008 56.548 57.727 55.522 57.725 54.355 C 57.723 53.229 57.620 52.982 57.945 51.866 C 58.149 51.648 58.432 51.525 58.872 51.552 C 59.634 51.724 59.715 52.631 59.653 53.482 C 59.650 53.531 59.994 56.501 58.728 56.531 " transform="matrix(1, 0, 0, 1, 0.25, 98.75)"/>
          <path id="Fill-11" fill="#008CB4" stroke="none" stroke-width="1" d="M 56.644 52.858 L 60.706 52.858 L 60.706 47.679 L 56.644 47.679 L 56.644 52.858 " transform="matrix(1, 0, 0, 1, 0.25, 98.75)"/>
          <path id="Fill-13" fill="#000000" stroke="none" stroke-width="1" d="M 31.549 56.531 C 30.828 56.548 30.547 55.522 30.546 54.355 C 30.544 53.229 30.440 52.982 30.765 51.866 C 30.969 51.648 31.253 51.525 31.693 51.552 C 32.455 51.724 32.535 52.631 32.474 53.482 C 32.470 53.531 32.815 56.501 31.549 56.531 " transform="matrix(1, 0, 0, 1, 0.25, 98.75)"/>
          <path id="Fill-14" fill="#008CB4" stroke="none" stroke-width="1" d="M 29.465 52.858 L 33.527 52.858 L 33.527 47.679 L 29.465 47.679 L 29.465 52.858 " transform="matrix(1, 0, 0, 1, 0.25, 98.75)"/>
          <path id="Fill-15" fill="#006482" stroke="none" stroke-width="1" d="M 27.599 29.877 L 25.218 30.413 L 22.384 17.827 L 24.765 17.291 L 27.599 29.877 " transform="matrix(1, 0, 0, 1, 0.25, 98.75)"/>
          <path id="Fill-16" fill="#006482" stroke="none" stroke-width="1" d="M 18.538 46.103 L 16.152 45.586 L 19.862 28.492 L 22.247 29.010 L 18.538 46.103 " transform="matrix(1, 0, 0, 1, 0.25, 98.75)"/>
          <path id="Fill-17" fill="#006482" stroke="none" stroke-width="1" d="M 70.949 46.103 L 73.334 45.586 L 69.625 28.492 L 67.240 29.010 L 70.949 46.103 " transform="matrix(1, 0, 0, 1, 0.25, 98.75)"/>
          <path id="Fill-18" fill="#006482" stroke="none" stroke-width="1" d="M 65.149 30.416 L 62.744 30 L 64.939 17.287 L 67.344 17.703 L 65.149 30.416 " transform="matrix(1, 0, 0, 1, 0.25, 98.75)"/>
          <path id="Fill-19" fill="#006482" stroke="none" stroke-width="1" d="M 55.446 30.135 C 55.255 31.516 54.966 32.514 55.306 33.779 C 55.565 33.838 82.530 28.815 82.530 28.815 L 81.306 25.509 C 81.306 25.509 56.562 29.939 55.446 30.135 " transform="matrix(1, 0, 0, 1, 0.25, 98.75)"/>
          <path id="Fill-20" fill="#008CB4" stroke="none" stroke-width="1" d="M 75.231 21.942 L 78.193 35.126 L 74.194 36.015 L 70.731 22.979 L 75.231 21.942 " transform="matrix(1, 0, 0, 1, 0.25, 98.75)"/>
          <path id="Fill-21" fill="#000000" stroke="none" stroke-width="1" d="M 68.713 0.907 C 67.111 1.328 67.730 1.660 68.416 5.351 C 69.654 12.003 77.947 38.532 79.284 42.917 C 80.575 47.148 81.546 51.562 83.542 55.535 C 84.240 56.217 85.004 56.491 85.940 56.092 C 87.501 54.868 86.445 51.071 85.244 47.779 C 84.486 45.701 72.398 5.359 72.398 5.359 C 72.398 5.359 71.527 0.166 68.713 0.907 " transform="matrix(1, 0, 0, 1, 0.25, 98.75)"/>
          <path id="Fill-22" fill="#000000" stroke="none" stroke-width="1" d="M 75.138 5.743 C 74.692 5.856 74.863 5.949 75.044 6.974 C 75.371 8.822 86.611 43.861 86.971 45.080 C 87.318 46.257 87.576 47.483 88.120 48.590 C 88.312 48.781 88.523 48.859 88.784 48.751 C 89.220 48.415 89.007 46.543 88.682 45.627 C 88.477 45.049 76.765 7.394 76.765 7.394 C 76.765 7.394 75.920 5.544 75.138 5.743 " transform="matrix(1, 0, 0, 1, 0.25, 98.75)"/>
          <path id="Fill-23" fill="#006482" stroke="none" stroke-width="1" d="M 33.833 30.135 C 34.024 31.516 34.313 32.514 33.973 33.779 C 33.714 33.838 6.749 28.815 6.749 28.815 L 7.973 25.509 C 7.973 25.509 32.717 29.939 33.833 30.135 " transform="matrix(1, 0, 0, 1, 0.25, 98.75)"/>
          <path id="Fill-24" fill="#008CB4" stroke="none" stroke-width="1" d="M 14.049 21.942 L 11.086 35.126 L 15.086 36.015 L 18.548 22.979 L 14.049 21.942 " transform="matrix(1, 0, 0, 1, 0.25, 98.75)"/>
          <path id="Fill-25" fill="#000000" stroke="none" stroke-width="1" d="M 20.567 0.907 C 22.169 1.328 21.550 1.660 20.863 5.351 C 19.625 12.003 11.333 38.532 9.995 42.917 C 8.704 47.148 7.733 51.562 5.737 55.535 C 5.039 56.217 4.275 56.491 3.339 56.092 C 1.778 54.868 2.835 51.071 4.035 47.779 C 4.793 45.701 16.881 5.359 16.881 5.359 C 16.881 5.359 17.752 0.166 20.567 0.907 " transform="matrix(1, 0, 0, 1, 0.25, 98.75)"/>
          <path id="Fill-26" fill="#000000" stroke="none" stroke-width="1" d="M 14.142 5.743 C 14.587 5.856 14.416 5.949 14.235 6.974 C 13.908 8.822 2.669 43.861 2.309 45.080 C 1.961 46.257 1.703 47.483 1.160 48.590 C 0.968 48.781 0.756 48.859 0.496 48.751 C 0.060 48.415 0.273 46.543 0.597 45.627 C 0.802 45.049 12.514 7.394 12.514 7.394 C 12.514 7.394 13.359 5.544 14.142 5.743 " transform="matrix(1, 0, 0, 1, 0.25, 98.75)"/>
          <path id="Fill-27" fill="#006482" stroke="none" stroke-width="1" d="M 34.719 30.134 L 34.719 33.855 C 38.523 33.862 47.185 33.888 55.387 33.818 L 55.387 30.070 C 48.374 30.099 40.431 30.127 34.719 30.134 " transform="matrix(1, 0, 0, 1, 0.25, 98.75)"/>
          <path id="Fill-28" fill="#008CB4" stroke="none" stroke-width="1" d="M 67.696 14.715 C 60.417 14.318 25.845 14.600 22.929 15.629 C 20.648 15.476 19.918 16.765 20.785 18.622 C 21.732 19.441 23.246 20.050 24.564 19.719 C 31.945 19.564 57.339 19.586 63.952 19.435 C 64.754 19.705 67.999 19.227 68.721 18.715 C 68.939 17.704 69.699 14.320 67.696 14.715 " transform="matrix(1, 0, 0, 1, 0.25, 98.75)"/>
          <path id="Fill-29" fill="#008CB4" stroke="none" stroke-width="1" d="M 73.835 45.750 C 73.878 46.832 73.552 46.509 71.115 46.785 C 66.721 47.283 28.556 47.172 25.560 47.175 C 22.669 47.177 19.725 47.414 16.860 46.926 C 16.301 46.620 15.983 46.195 16.054 45.534 C 16.520 44.324 19.095 44.259 21.382 44.380 C 22.825 44.456 70.348 44.298 70.348 44.298 C 70.348 44.298 73.760 43.850 73.835 45.750 " transform="matrix(1, 0, 0, 1, 0.25, 98.75)"/>
        </g>
        <g id="Head">
          <path id="Fill-31" fill="#000000" stroke="none" stroke-width="1" d="M 11.107 0.492 C 12.774 0.716 14.684 1.454 15.769 2.296 C 17.929 3.974 19.771 5.210 19.098 12.094 C 19.159 11.478 4.958 4.901 4.958 4.901 C 5.428 2.421 8.506 0.142 11.107 0.492 " transform="matrix(1, 0, 0, 1, 34.25, 42.75)"/>
          <path id="Fill-32" fill="#A0783C" stroke="none" stroke-width="1" d="M 18.231 11.702 C 18.231 11.702 18.816 9.364 21.153 10.606 C 23.491 11.848 21.941 14.610 21.372 15.646 C 20.673 16.921 19.336 17.327 18.023 17.760 C 18.200 15.371 18.231 11.702 18.231 11.702 " transform="matrix(1, 0, 0, 1, 34.25, 42.75)"/>
          <path id="Fill-33" fill="#A0783C" stroke="none" stroke-width="1" d="M 4.822 16.760 C 3.509 16.326 2.172 15.920 1.473 14.646 C 0.904 13.610 -0.646 10.848 1.692 9.606 C 4.030 8.364 4.614 10.702 4.614 10.702 C 4.614 10.702 4.645 14.371 4.822 16.760 " transform="matrix(1, 0, 0, 1, 34.25, 42.75)"/>
          <path id="Fill-34" fill="#BE965A" stroke="none" stroke-width="1" d="M 19.070 10.380 C 18.555 6.249 15.833 1.931 11.151 1.683 C 5.730 1.396 3.580 5.445 3.522 10.336 C 3.644 10.621 3.736 15.405 3.896 16.836 C 4.114 18.799 4.502 20.376 5.624 22.029 C 7.998 25.526 11.556 26.743 15.241 25.224 C 16.859 24.556 17.681 23.399 18.433 21.962 C 19.167 20.557 19.365 12.748 19.070 10.380 " transform="matrix(1, 0, 0, 1, 34.25, 42.75)"/>
          <path id="Fill-35" fill="#000000" stroke="none" stroke-width="1" d="M 9.967 1.227 L 6.785 3.304 C 6.785 3.304 12.972 3.437 14.828 2.243 L 9.967 1.227 Z " transform="matrix(1, 0, 0, 1, 34.25, 42.75)"/>
          <path id="Fill-36" fill="#000000" stroke="none" stroke-width="1" d="M 10.441 9.971 C 8.589 9.971 7.478 9.872 6.685 11.796 C 6.723 12.766 8.561 13.747 10.342 13.697 C 12.124 13.646 13.848 12.564 13.848 11.651 C 13.848 9.825 12.294 9.970 10.441 9.971 " transform="matrix(1, 0, 0, 1, 34.25, 42.75)"/>
          <path id="Fill-37" fill="#A0783C" stroke="none" stroke-width="1" d="M 11.708 6.226 C 11.436 5.319 10.991 4.492 10.460 3.652 C 9.393 4.360 8.757 6.279 9.376 7.478 C 9.530 7.775 10.229 8.660 11.386 8.010 C 11.793 7.780 11.878 6.792 11.708 6.226 " transform="matrix(1, 0, 0, 1, 34.25, 42.75)"/>
          <path id="Fill-38" fill="#000000" stroke="none" stroke-width="1" d="M 14.412 4.427 C 14.630 5.130 14.670 5.668 14.175 6.168 C 13.365 5.771 13.635 5.101 13.619 4.427 L 14.412 4.427 Z " transform="matrix(1, 0, 0, 1, 34.25, 42.75)"/>
          <path id="Fill-39" fill="#000000" stroke="none" stroke-width="1" d="M 6.881 5.645 C 6.317 5.480 6.317 5.480 6.050 4.884 C 6.155 4.708 6.277 4.506 6.415 4.278 C 6.613 4.315 6.776 4.346 6.945 4.378 C 7.159 4.813 7.199 5.199 6.881 5.645 " transform="matrix(1, 0, 0, 1, 34.25, 42.75)"/>
        </g>
        <g id="Left-Arm">
          <path id="Fill-40" fill="#BE965A" stroke="none" stroke-width="1" d="M 11.339 2.608 C 11.168 1.787 10.746 0.196 9.728 0 C 9.084 1.330 9.623 3.918 9.660 5.408 C 9.334 5.857 9.151 6.359 8.542 6.488 C 8.339 6.384 8.119 6.270 7.902 6.159 C 7.193 4.626 6.854 0.028 4.293 0.576 C 3.962 1.728 4.794 2.181 5.241 3.214 C 5.840 4.602 5.932 6.042 5.582 7.511 C 5.386 7.593 5.194 7.672 5.021 7.744 C 3.023 6.848 2.775 4.841 0.299 5.377 C -0.457 6.956 0.912 7.138 1.900 7.973 C 3.576 9.393 3.686 10.792 3.640 12.957 C 3.578 15.915 3.255 18.877 3.043 21.827 C 2.662 27.113 2.208 37.382 1.771 42.659 C 1.081 51.007 0.087 59.370 0.681 67.758 C 1.160 74.512 2.710 79.793 8.822 83.582 L 12.170 72.912 C 12.926 71.273 11.926 67.809 11.821 66.037 C 11.622 62.701 12.422 7.802 11.339 2.608 " transform="matrix(1, 0, 0, 1, 24.25, 0.75)"/>
          <path id="Fill-41" fill="#A0783C" stroke="none" stroke-width="1" d="M 11.840 12.265 C 12.424 12.144 12.585 11.834 12.698 11.474 C 12.924 10.751 13.150 10.028 13.385 9.308 C 13.511 8.919 13.677 8.560 14.263 8.553 C 14.335 8.753 14.468 8.970 14.488 9.197 C 14.586 10.272 14.303 11.283 13.815 12.219 C 13.467 12.887 13.018 13.505 12.582 14.123 C 12.018 14.921 12.029 19.350 11.938 19.539 C 11.721 19.581 7.098 19.487 6.700 19.375 C 6.553 18.903 6.631 16.726 6.732 16.267 C 6.885 15.563 7.033 14.856 7.221 14.161 C 7.506 13.108 8.120 12.404 9.250 12.154 C 10.158 11.953 11.030 11.875 11.840 12.265 " transform="matrix(1, 0, 0, 1, 24.25, 0.75)"/>
          <path id="Fill-42" fill="#F01446" stroke="none" stroke-width="1" d="M 12.362 18.617 C 13 21.655 13.293 25.434 12.822 28.513 C 12.589 28.632 12.400 28.727 12.191 28.833 C 11.937 28.714 5.571 29.543 3.129 29.289 C 2.875 29.179 2.480 29.008 2.066 28.829 C 0.526 26.801 0.920 21.086 2.188 19.024 C 2.361 18.908 9.901 16.619 12.362 18.617 " transform="matrix(1, 0, 0, 1, 24.25, 0.75)"/>
        </g>
        <g id="Torso">
          <path id="Fill-30" fill="#780046" stroke="none" stroke-width="1" d="M 33.487 33.433 C 31.638 33.109 4.429 34.060 0.001 33.724 L 3.786 45.371 C 5.640 45.843 28.621 45.535 32.759 44.643 C 32.911 43.362 33.413 34.124 33.487 33.433 " transform="matrix(1, 0, 0, 1, 27.25, 69.75)"/>
          <path id="Fill-43" fill="#BE965A" stroke="none" stroke-width="1" d="M 26.240 1.529 C 25.183 1.258 10.223 0.709 9.799 0.977 C 9.489 1.799 8.586 12.342 8.586 12.342 L 26.240 10.466 C 26.240 10.466 26.310 3.727 26.240 1.529 " transform="matrix(1, 0, 0, 1, 27.25, 69.75)"/>
          <path id="Fill-44" fill="#F01446" stroke="none" stroke-width="1" d="M 32.201 19.052 C 32.033 18.018 30.643 11.241 29.416 6.211 C 28.676 3.177 27.822 0.712 27.822 0.712 C 27.822 0.712 25.045 0.463 24.334 0.594 C 24.328 1.032 24.023 3.271 23.035 4.644 C 21.768 6.406 19.626 7.323 18.209 7.361 C 15.687 7.429 13.777 6.259 12.977 4.831 C 11.827 2.778 11.900 0.083 11.900 0.083 C 11.900 0.083 9.969 -0.031 9.744 0.041 C 7.009 0.907 3.919 13.685 3.518 16.001 C 2.793 20.198 2.145 24.412 1.582 28.634 C 1.400 29.999 -0.059 35.258 0.934 36.487 L 34.921 36.151 C 35.250 35.367 32.341 19.910 32.201 19.052 " transform="matrix(1, 0, 0, 1, 27.25, 69.75)"/>
        </g>
        <g id="Belt">
          <path id="Fill-45" fill="#000000" stroke="none" stroke-width="1" d="M 0.001 6.313 L 34.489 6.313 L 34.489 1.450 L 0.001 1.450 L 0.001 6.313 " transform="matrix(1, 0, 0, 1, 27.25, 101.75)"/>
          <path id="Fill-70" fill="#64645A" stroke="none" stroke-width="1" d="M 14.004 6.787 L 21.711 6.787 L 21.711 0.766 L 14.004 0.766 L 14.004 6.787 " transform="matrix(1, 0, 0, 1, 27.25, 101.75)"/>
        </g>
        <g id="Right-Leg">
          <path id="Fill-46" fill="#BE965A" stroke="none" stroke-width="1" d="M 19.017 12.495 C 18.956 19.062 16.887 25.196 16.887 25.196 L 4.659 25.389 C 4.659 25.389 5.457 6.159 8.532 3.195 C 9.395 2.364 11.534 -0.347 15.786 1.479 C 20.037 3.306 19.043 9.609 19.017 12.495 " transform="matrix(1, 0, 0, 1, 45.25, 92.75)"/>
          <path id="Fill-47" fill="#F0E6D2" stroke="none" stroke-width="1" d="M 4.062 20.877 C 3.728 24.481 3.603 31.079 3.615 32.437 C 5.750 33.064 13.722 32.047 15.656 31.596 C 16.428 30.436 17.821 24.566 18.536 20.877 L 4.062 20.877 Z " transform="matrix(1, 0, 0, 1, 45.25, 92.75)"/>
          <path id="Fill-48" fill="#F01446" stroke="none" stroke-width="1" d="M 0.890 49.070 L 0.660 50.545 L 16.324 50.453 L 16.569 49.216 L 7.478 47.412 L 0.890 49.070 " transform="matrix(1, 0, 0, 1, 45.25, 92.75)"/>
          <path id="Fill-49" fill="#000000" stroke="none" stroke-width="1" d="M 17.399 28.804 C 17.399 28.804 13.732 28.845 10.046 28.889 C 6.460 28.932 2.856 28.976 2.590 28.986 C 2.351 32.039 0.890 49.070 0.890 49.070 C 0.890 49.070 15.369 49.121 16.569 49.216 C 16.628 49.013 16.674 48.856 16.711 48.732 C 15.800 47.730 13.716 48.245 12.520 47.780 C 13.116 45.807 16.350 34.184 17.399 28.804 " transform="matrix(1, 0, 0, 1, 45.25, 92.75)"/>
          <path id="Fill-50" fill="#F01446" stroke="none" stroke-width="1" d="M 10.721 34.019 C 10.721 36.143 8.999 37.865 6.875 37.865 C 4.751 37.865 3.029 36.143 3.029 34.019 C 3.029 31.895 4.751 30.174 6.875 30.174 C 8.999 30.174 10.721 31.895 10.721 34.019 " transform="matrix(1, 0, 0, 1, 45.25, 92.75)"/>
          <path id="Fill-51" fill="#780046" stroke="none" stroke-width="1" d="M 8.699 34.019 C 8.699 35.027 7.882 35.844 6.875 35.844 C 5.867 35.844 5.050 35.027 5.050 34.019 C 5.050 33.011 5.867 32.195 6.875 32.195 C 7.882 32.195 8.699 33.011 8.699 34.019 " transform="matrix(1, 0, 0, 1, 45.25, 92.75)"/>
          <path id="Fill-52" fill="#780046" stroke="none" stroke-width="1" d="M 16.223 30.618 C 16.223 31.040 15.880 31.383 15.458 31.383 C 15.035 31.383 14.693 31.040 14.693 30.618 C 14.693 30.195 15.035 29.853 15.458 29.853 C 15.880 29.853 16.223 30.195 16.223 30.618 " transform="matrix(1, 0, 0, 1, 45.25, 92.75)"/>
          <path id="Fill-53" fill="#780046" stroke="none" stroke-width="1" d="M 15.394 33.617 C 15.394 34.039 15.051 34.382 14.629 34.382 C 14.206 34.382 13.863 34.039 13.863 33.617 C 13.863 33.194 14.206 32.852 14.629 32.852 C 15.051 32.852 15.394 33.194 15.394 33.617 " transform="matrix(1, 0, 0, 1, 45.25, 92.75)"/>
          <path id="Fill-54" fill="#780046" stroke="none" stroke-width="1" d="M 14.691 36.744 C 14.691 37.166 14.349 37.509 13.926 37.509 C 13.504 37.509 13.161 37.166 13.161 36.744 C 13.161 36.321 13.504 35.979 13.926 35.979 C 14.349 35.979 14.691 36.321 14.691 36.744 " transform="matrix(1, 0, 0, 1, 45.25, 92.75)"/>
          <path id="Fill-55" fill="#780046" stroke="none" stroke-width="1" d="M 13.926 39.360 C 13.926 39.783 13.583 40.125 13.161 40.125 C 12.738 40.125 12.396 39.783 12.396 39.360 C 12.396 38.938 12.738 38.595 13.161 38.595 C 13.583 38.595 13.926 38.938 13.926 39.360 " transform="matrix(1, 0, 0, 1, 45.25, 92.75)"/>
          <path id="Fill-56" fill="#780046" stroke="none" stroke-width="1" d="M 13.224 42.104 C 13.224 42.526 12.882 42.869 12.459 42.869 C 12.036 42.869 11.694 42.526 11.694 42.104 C 11.694 41.681 12.036 41.339 12.459 41.339 C 12.882 41.339 13.224 41.681 13.224 42.104 " transform="matrix(1, 0, 0, 1, 45.25, 92.75)"/>
          <path id="Fill-57" fill="#780046" stroke="none" stroke-width="1" d="M 12.458 44.976 C 12.458 45.398 12.116 45.741 11.693 45.741 C 11.271 45.741 10.928 45.398 10.928 44.976 C 10.928 44.553 11.271 44.211 11.693 44.211 C 12.116 44.211 12.458 44.553 12.458 44.976 " transform="matrix(1, 0, 0, 1, 45.25, 92.75)"/>
        </g>
        <g id="Left-Leg">
          <path id="Fill-58" fill="#BE965A" stroke="none" stroke-width="1" d="M 14.413 24.021 C 13.355 24.093 3.420 23.831 3.101 23.782 C 2.666 21.269 0.470 14.158 0.638 9.437 C 0.738 6.634 1.505 3.781 3.165 2.215 C 4.161 1.275 5.479 0.799 7.167 1.073 C 11.531 1.784 12.936 8.255 13.492 11.945 C 14.023 15.466 13.965 20.527 14.413 24.021 " transform="matrix(1, 0, 0, 1, 25.25, 91.75)"/>
          <path id="Fill-59" fill="#F0E6D2" stroke="none" stroke-width="1" d="M 1.933 21.877 C 2.374 24.773 3.115 29.687 3.371 31.695 C 6.453 32.735 12.634 32.404 15.815 31.715 C 16.229 30.595 15.296 24.587 14.880 21.877 L 1.933 21.877 Z " transform="matrix(1, 0, 0, 1, 25.25, 91.75)"/>
          <path id="Fill-60" fill="#F01446" stroke="none" stroke-width="1" d="M 18.549 50.070 L 18.780 51.545 L 3.115 51.453 L 2.870 50.216 L 11.961 48.412 L 18.549 50.070 " transform="matrix(1, 0, 0, 1, 25.25, 91.75)"/>
          <path id="Fill-61" fill="#000000" stroke="none" stroke-width="1" d="M 2.041 29.804 C 2.041 29.804 5.708 29.845 9.394 29.889 C 12.980 29.932 16.584 29.976 16.850 29.986 C 17.089 33.039 18.550 50.070 18.550 50.070 C 18.550 50.070 4.071 50.121 2.871 50.216 C 2.812 50.013 2.765 49.856 2.729 49.732 C 3.640 48.730 5.724 49.245 6.920 48.780 C 6.324 46.807 3.207 35.818 2.041 29.804 " transform="matrix(1, 0, 0, 1, 25.25, 91.75)"/>
          <path id="Fill-62" fill="#F01446" stroke="none" stroke-width="1" d="M 8.719 35.019 C 8.719 37.143 10.441 38.865 12.565 38.865 C 14.689 38.865 16.411 37.143 16.411 35.019 C 16.411 32.895 14.689 31.174 12.565 31.174 C 10.441 31.174 8.719 32.895 8.719 35.019 " transform="matrix(1, 0, 0, 1, 25.25, 91.75)"/>
          <path id="Fill-63" fill="#780046" stroke="none" stroke-width="1" d="M 10.740 35.019 C 10.740 36.027 11.557 36.844 12.565 36.844 C 13.573 36.844 14.390 36.027 14.390 35.019 C 14.390 34.011 13.573 33.195 12.565 33.195 C 11.557 33.195 10.740 34.011 10.740 35.019 " transform="matrix(1, 0, 0, 1, 25.25, 91.75)"/>
          <path id="Fill-64" fill="#780046" stroke="none" stroke-width="1" d="M 3.216 31.618 C 3.216 32.040 3.559 32.383 3.981 32.383 C 4.404 32.383 4.746 32.040 4.746 31.618 C 4.746 31.195 4.404 30.853 3.981 30.853 C 3.559 30.853 3.216 31.195 3.216 31.618 " transform="matrix(1, 0, 0, 1, 25.25, 91.75)"/>
          <path id="Fill-65" fill="#780046" stroke="none" stroke-width="1" d="M 4.046 34.617 C 4.046 35.039 4.389 35.382 4.811 35.382 C 5.233 35.382 5.576 35.039 5.576 34.617 C 5.576 34.194 5.233 33.852 4.811 33.852 C 4.389 33.852 4.046 34.194 4.046 34.617 " transform="matrix(1, 0, 0, 1, 25.25, 91.75)"/>
          <path id="Fill-66" fill="#780046" stroke="none" stroke-width="1" d="M 4.748 37.744 C 4.748 38.166 5.090 38.509 5.513 38.509 C 5.935 38.509 6.278 38.166 6.278 37.744 C 6.278 37.321 5.935 36.979 5.513 36.979 C 5.090 36.979 4.748 37.321 4.748 37.744 " transform="matrix(1, 0, 0, 1, 25.25, 91.75)"/>
          <path id="Fill-67" fill="#780046" stroke="none" stroke-width="1" d="M 5.514 40.360 C 5.514 40.783 5.856 41.125 6.279 41.125 C 6.701 41.125 7.044 40.783 7.044 40.360 C 7.044 39.938 6.701 39.595 6.279 39.595 C 5.856 39.595 5.514 39.938 5.514 40.360 " transform="matrix(1, 0, 0, 1, 25.25, 91.75)"/>
          <path id="Fill-69" fill="#780046" stroke="none" stroke-width="1" d="M 6.981 45.976 C 6.981 46.398 7.324 46.741 7.746 46.741 C 8.169 46.741 8.512 46.398 8.512 45.976 C 8.512 45.553 8.169 45.211 7.746 45.211 C 7.324 45.211 6.981 45.553 6.981 45.976 " transform="matrix(1, 0, 0, 1, 25.25, 91.75)"/>
        </g>
      </g>
    </g>
  </g>
</svg>