<svg version="1.1" width="67" height="71" xmlns="http://www.w3.org/2000/svg" xmlns:xlink="http://www.w3.org/1999/xlink">
  <!-- Exported by Scratch - http://scratch.mit.edu/ -->
  <g id="ID0.6561286393553019">
    <g id="ID0.09132010536268353">
      <g id="ID0.8797872932627797">
        <path id="ID0.2016247776336968" fill="#00CCCC" d="M 61.110 64.550 C 58.600 66.340 55.530 67.370 52 67.580 C 50.540 67.670 49.120 67.750 47.750 67.810 C 47 67.860 43.620 68.120 32.280 69.020 C 32.200 69.030 32.110 69.030 32.020 69.040 C 30.060 69.150 26.730 69.460 22.110 69.970 C 18.550 70.620 17.620 70.730 16.540 70.730 C 11.770 70.730 7.470 68.850 4.450 65.450 C 2.940 63.750 2 61.620 1.740 59.370 C 1.550 57.650 1.160 54.190 3.160 50.770 C 4.200 48.960 6.160 46.430 9.590 44.760 L 9.590 40.380 C 9.590 38.590 9.430 34.800 8.660 26.890 C 4.940 25.420 2.160 22.590 0.870 18.840 C 0.850 18.780 0.830 18.720 0.810 18.650 C 0.270 17.010 0 15.350 0 13.710 C 0 8.620 3.410 0 16.190 0 C 17.370 0 18.740 0.120 20.580 0.380 C 20.720 0.390 20.840 0.390 20.960 0.390 C 22.340 0.230 24.780 0.070 30.740 0 L 30.880 0 C 36.200 0 39.440 2.260 41.230 4.170 C 43.580 6.670 44.870 10 44.870 13.540 C 44.870 18.530 42.450 22.860 38.390 25.190 C 37.610 25.640 36.780 26.020 35.910 26.330 C 35.950 26.930 36 27.540 36.050 28.180 C 36.070 28.450 36.080 28.720 36.080 28.990 L 36.080 33.180 C 36.100 33.610 36.210 35.310 36.860 41.790 C 36.970 41.780 37.080 41.770 37.190 41.760 C 37.120 41.380 37.050 41.020 36.980 40.660 C 36.450 37.980 36.940 35.220 38.320 32.900 C 39.370 30.720 41.080 28.830 43.330 27.460 C 45.700 26.010 48.430 25.240 51.200 25.240 C 53.540 25.240 55.810 25.850 57.780 26.990 C 59.960 28.260 62.770 30.780 64.100 35.680 C 64.760 38.130 64.950 40.480 64.680 42.700 C 64.650 43 64.600 44.280 65.020 47.360 C 65.280 47.880 65.520 48.420 65.760 49.010 C 65.990 49.570 66.180 50.140 66.310 50.720 C 67.560 56.070 65.560 61.370 61.110 64.550 Z "/>
      </g>
    </g>
    <g id="ID0.24423800874501467">
      <path id="ID0.40692060021683574" fill="#FFFFFF" d="M 55.599 53.217 C 55.831 54.215 55.538 55.007 54.718 55.592 C 53.898 56.179 52.769 56.516 51.331 56.604 C 49.893 56.692 48.503 56.766 47.153 56.824 C 46.274 56.879 41.025 57.290 31.409 58.055 C 29.180 58.179 25.545 58.520 20.502 59.076 C 18.156 59.511 16.837 59.726 16.544 59.726 C 14.901 59.726 13.611 59.198 12.674 58.142 C 12.556 57.086 12.556 56.471 12.674 56.295 C 13.377 55.006 14.696 54.272 16.632 54.096 C 18.215 53.979 19.769 53.863 21.294 53.744 C 21.352 53.744 21.410 53.685 21.470 53.567 C 21.587 51.164 21.294 48.408 20.590 45.299 L 20.590 40.373 C 20.590 37.324 20.238 32.223 19.534 25.067 C 19.416 23.308 19.240 20.757 19.007 17.415 C 18.655 17.182 18.185 17.094 17.600 17.151 C 16.837 17.269 16.369 17.297 16.193 17.239 C 15.313 17.118 14.403 16.999 13.465 16.878 C 12.292 16.636 11.559 16.093 11.267 15.248 C 11.090 14.705 11.002 14.192 11.002 13.710 C 11.002 11.899 12.731 10.994 16.192 10.994 C 16.895 10.994 18.008 11.112 19.534 11.346 C 20.765 11.406 21.587 11.406 21.997 11.346 C 23.228 11.170 26.189 11.053 30.882 10.994 C 31.995 10.994 32.773 11.228 33.212 11.696 C 33.652 12.165 33.872 12.779 33.872 13.539 C 33.872 14.594 33.549 15.296 32.904 15.646 C 32.025 16.173 30.646 16.407 28.770 16.348 C 26.423 16.290 24.928 16.319 24.284 16.436 C 24.401 19.246 24.665 23.429 25.076 28.987 L 25.076 33.289 C 25.076 34.226 25.428 38.146 26.132 45.051 C 26.308 46.632 26.541 49.118 26.835 52.512 C 26.952 52.718 27.100 52.820 27.275 52.820 C 29.385 53.143 31.321 53.246 33.080 53.128 C 35.249 52.952 37.448 52.776 39.678 52.601 C 41.085 52.543 42.492 52.455 43.900 52.336 C 45.777 52.220 47.623 51.927 49.441 51.457 C 49.441 50.812 49.295 49.757 49.002 48.290 C 48.650 46.474 48.443 45.418 48.387 45.124 C 48.444 44.538 48.475 43.687 48.475 42.572 C 48.241 41.049 48.004 39.700 47.772 38.526 C 47.829 38.526 47.948 38.438 48.124 38.262 C 48.063 37.735 48.372 37.266 49.048 36.855 C 49.720 36.445 50.439 36.239 51.202 36.239 C 51.612 36.239 51.964 36.327 52.257 36.504 C 52.786 36.798 53.195 37.486 53.489 38.570 C 53.782 39.656 53.870 40.608 53.753 41.429 C 53.519 43.539 53.753 46.737 54.456 51.016 C 54.806 51.489 55.187 52.221 55.599 53.217 Z "/>
    </g>
  </g>
</svg>