<?xml version="1.0" encoding="utf-8"?>
<!-- Generator: Adobe Illustrator 18.0.0, SVG Export Plug-In . SVG Version: 6.00 Build 0)  -->
<!DOCTYPE svg PUBLIC "-//W3C//DTD SVG 1.1//EN" "http://www.w3.org/Graphics/SVG/1.1/DTD/svg11.dtd">
<svg version="1.1" id="Layer_2" xmlns="http://www.w3.org/2000/svg" xmlns:xlink="http://www.w3.org/1999/xlink" x="0px" y="0px"
	 viewBox="0 0 41.9 49.8" enable-background="new 0 0 41.9 49.8" xml:space="preserve">
<g>
	<path fill="#41A2F2" d="M40.8,12.6c-0.8,0.1-1.2-0.2-1.6-0.9c-0.5-1-1.1-2-1.8-2.9c-1-1.4-2.4-2.2-4.1-2.5
		c-3.1-0.6-6.2-0.3-9.3,0.2c0.1,4.5,0.2,8.9,0.1,13.3c0,6,0.7,11.9,0.3,17.9c-0.2,2.7,0.1,5.4,0.1,8.1c0,0.6,0.3,0.9,0.9,0.9
		c0.6,0,1.3,0,1.9,0c0.6,0,0.9,0.3,0.8,0.9c0,0,0,0.1,0,0.1c-0.1,2.1-0.1,2.1-2.1,2.2c-2,0.1-4-0.1-6.1-0.1c-1.8,0-3.6,0-5.5-0.1
		c-1.2,0-1.2,0-1.2-1.1c0-1.8,0-1.8,1.8-2.1c0.1,0,0.1,0,0.2,0c1.9,0,1.9-0.3,2.1-2.1c0.2-2.3,0.2-4.7,0.2-7
		c0-6.6,0.2-13.2,0.2-19.7c0-3-0.2-5.9-0.2-8.9c0-0.7,0-1.4,0-2.1c-1.6,0-3.2-0.1-4.7,0c-1.5,0.1-3,0.4-4.5,0.6
		c-2,0.3-3.3,1.7-4.5,3.1c-0.6,0.7-1,1.6-1.4,2.5c-0.2,0.4-0.4,0.7-0.9,0.6c-0.6-0.1-1.4,0-1.4-0.9c0-0.8,0.2-1.6,0.4-2.3
		c0.5-1.9,1.1-3.7,1.6-5.6c0.3-1.1,0.4-2.2,0.6-3.3c0.2-1.1,0.7-1.3,1.7-0.9C4.6,0.5,5,0.8,5.3,1.1c0.5,0.5,1.1,0.7,1.8,0.7
		C9,1.9,10.7,2.2,12.5,2C17.8,1.5,23,1.9,28.3,1.8c1.6,0,3.3,0.1,4.9,0.2c1.5,0.1,2.8-0.5,3.9-1.4c0.2-0.2,0.5-0.3,0.7-0.4
		C38.8-0.2,39.4,0,39.6,1c0.8,3.5,1.5,6.9,2.2,10.4C42,12.4,41.8,12.5,40.8,12.6z"/>
</g>
</svg>
