<svg width="150px" height="300px" viewBox="0 0 150 300" version="1.1" xml:space="preserve" xmlns="http://www.w3.org/2000/svg" xmlns:xlink="http://www.w3.org/1999/xlink">
  <!-- Generator: Sketch 49.3 (51167) - http://www.bohemiancoding.com/sketch -->
  <defs/>
  <g>
    <title>princess-e</title>
    <desc>Created with Sketch.</desc>
    <g id="princess-e" stroke="none" stroke-width="1" fill="none" fill-rule="evenodd">
      <g id="Princess-Angry" transform="translate(9.000000, 18.000000)">
        <g id="Group" transform="translate(73.000000, 59.000000)" fill-rule="nonzero">
          <g transform="translate(0.000000, 6.000000)" id="Shape">
            <g transform="translate(2.000000, 0.000000)">
              <path d="M17.1,11.3 C14.3,7.6 1.1,-6.8 0.5,6.1 C-0.1,18.5 27.2,48.1 30.4,41.6 C33.6,35.1 23.6,19.7 17.1,11.3 Z" fill="#52B6CC"/>
              <path d="M12.3,6 C12.3,6 13.4,7 14.9,8.7 C15.6,9.5 16.5,10.5 17.4,11.6 C18.3,12.7 19.2,13.9 20.1,15.1 C21,16.3 21.8,17.5 22.6,18.7 C23.4,19.9 24,21 24.6,22 C25.2,23 25.6,23.8 25.9,24.4 C26.2,25 26.4,25.3 26.4,25.3 C26.4,25.3 26.2,25 25.8,24.4 C25.5,23.8 24.9,23.1 24.3,22.1 C23.7,21.2 22.9,20.1 22.2,19 C21.4,17.9 20.6,16.6 19.7,15.5 C18.8,14.3 17.9,13.1 17.1,12 C16.2,10.9 15.5,9.9 14.8,9 C13.2,7.1 12.3,6 12.3,6 Z" fill="#2E83BF"/>
              <path d="M2.2,1.3 C2.2,1.3 2.1,1.4 1.9,1.6 C1.7,1.8 1.5,2.2 1.3,2.6 C1.1,3.1 0.9,3.7 0.8,4.4 C0.7,4.7 0.7,5.1 0.7,5.5 C0.7,5.7 0.7,5.9 0.7,6.1 C0.7,6.3 0.7,6.5 0.8,6.7 C0.8,7.6 1.1,8.5 1.3,9.5 C1.4,10 1.6,10.5 1.8,11 C2,11.5 2.1,12 2.4,12.5 C2.9,13.5 3.3,14.6 3.8,15.6 C4.4,16.6 4.9,17.7 5.5,18.7 C6.1,19.7 6.7,20.8 7.4,21.7 C8.1,22.7 8.7,23.6 9.4,24.5 C10,25.4 10.7,26.3 11.3,27.1 C11.9,27.9 12.5,28.7 13,29.4 C15.3,32.2 16.7,34.1 16.7,34.1 C16.7,34.1 15.1,32.3 12.7,29.7 C12.1,29 11.5,28.2 10.9,27.5 C10.3,26.7 9.5,25.9 8.9,25 C8.3,24.1 7.6,23.1 6.9,22.2 C6.2,21.2 5.6,20.2 5,19.2 C4.3,18.2 3.8,17.1 3.3,16.1 C2.7,15.1 2.3,14 1.9,12.9 C1.7,12.4 1.5,11.8 1.4,11.3 C1.3,10.8 1.1,10.3 1,9.8 C0.8,8.8 0.6,7.8 0.6,6.9 C0.6,6.7 0.6,6.5 0.6,6.2 C0.6,6 0.6,5.8 0.6,5.6 C0.6,5.2 0.6,4.8 0.7,4.4 C0.8,3.7 1.1,3.1 1.3,2.6 C1.5,2.1 1.8,1.8 2,1.6 C2.1,1.4 2.2,1.3 2.2,1.3 Z" fill="#2E83BF"/>
            </g>
            <g>
              <g>
                <path d="M6.3,0.3 C3,1 0.8,3.3 1.6,10.8 C2.4,18.3 4.2,19.4 6.8,26.4 C8.2,30.2 16.4,31.3 22.2,25.6 C28.1,19.9 29.2,14.8 23.6,10.4 C18.1,6 10.8,-0.7 6.3,0.3 Z" fill="#6FCED9"/>
                <path d="M14,2.9 C14,2.9 15.6,3.8 17.8,5.4 C18.9,6.2 20.2,7.1 21.5,8.2 C22.8,9.3 24.2,10.5 25.5,11.9 C26.1,12.6 26.7,13.3 27.1,14.2 C27.2,14.3 27.2,14.4 27.3,14.5 L27.4,14.8 C27.4,15 27.5,15.2 27.6,15.5 L27.7,16.2 C27.7,16.4 27.7,16.7 27.7,16.9 C27.6,17.8 27.3,18.6 27,19.3 C26.7,20 26.3,20.7 25.9,21.3 C25.2,22.5 24.4,23.3 23.9,23.9 C23.4,24.5 23,24.8 23,24.8 C23,24.8 23.3,24.5 23.8,23.8 C24.3,23.2 24.9,22.2 25.6,21.1 C26.2,19.9 26.9,18.5 27.1,16.8 L27.1,16.2 L27,15.6 C27,15.4 26.9,15.2 26.8,15 L26.7,14.7 C26.7,14.7 26.6,14.5 26.6,14.4 C26.2,13.6 25.6,12.9 25.1,12.3 C23.9,10.9 22.6,9.7 21.3,8.6 C20,7.5 18.8,6.5 17.7,5.6 C15.5,4 14,2.9 14,2.9 Z" fill="#3FADC4"/>
                <path d="M5.1,0.8 C5.1,0.8 4.5,0.9 3.8,1.6 C3.4,1.9 3,2.4 2.7,3 C2.4,3.6 2.1,4.3 1.9,5.1 C1.7,5.9 1.6,6.8 1.6,7.8 C1.6,8.8 1.7,9.8 1.8,10.8 C2.1,12.9 2.6,15.1 3.4,17.2 C3.8,18.3 4.2,19.3 4.7,20.3 C4.9,20.8 5.1,21.3 5.4,21.8 C5.5,22.1 5.6,22.3 5.7,22.6 C5.8,22.9 5.8,23.1 5.9,23.4 C6.2,24.4 6.5,25.4 7,26.2 C7.5,27 8.1,27.7 8.8,28.2 C9.5,28.7 10.2,29 10.8,29.2 C11.1,29.3 11.4,29.3 11.7,29.4 C12,29.4 12.3,29.4 12.5,29.5 C13,29.6 13.4,29.5 13.6,29.5 C13.9,29.5 14,29.5 14,29.5 C14,29.5 13.9,29.5 13.6,29.5 C13.3,29.5 12.9,29.6 12.4,29.6 C12.1,29.6 11.9,29.6 11.6,29.6 C11.3,29.6 11,29.5 10.6,29.5 C9.9,29.3 9.1,29.1 8.4,28.6 C7.7,28.1 7,27.4 6.4,26.6 C5.8,25.8 5.4,24.8 5.1,23.7 C5,23.4 5,23.2 4.9,22.9 C4.8,22.7 4.7,22.4 4.6,22.2 C4.4,21.7 4.2,21.2 3.9,20.7 C3.4,19.7 3,18.6 2.6,17.5 C1.8,15.3 1.3,13.1 1.1,10.9 C1,9.8 0.9,8.8 1,7.8 C1.1,6.8 1.2,5.9 1.4,5 C1.6,4.2 2,3.4 2.4,2.8 C2.8,2.2 3.2,1.8 3.6,1.5 C4,1.2 4.4,1 4.6,0.9 C5,0.9 5.1,0.8 5.1,0.8 Z" fill="#3FADC4"/>
              </g>
              <path d="M17.8,28.8 C17.8,28.8 12.4,28.7 9.1,21.6 C7.3,17.7 5.4,15.2 5.4,15.2 C5.4,15.2 7.5,21.3 8.6,24.6 C9.7,27.9 13.6,29.4 17.8,28.8 Z" fill="#52B6CC"/>
              <path d="M24.8,22.6 C24.8,22.6 27.5,18 23.9,14 C20.3,10 15.3,7.1 15.3,7.1 C15.3,7.1 26.1,16.1 24.8,22.6 Z" fill="#52B6CC"/>
              <path d="M20.4,27.5002458 C20.4,27.5002458 15.7,27.6001235 12.6,22.1000757 C10.3,18.00004 9.5,13.4 9.5,13.4 C9.5,13.4 14,21.6000713 20.4,27.5002458 Z" fill="#52B6CC"/>
              <path d="M13.3,9.5 C13.3,9.5 22.8,21.5 22.8,25 C22.8,25 28.6,21.2 13.3,9.5 Z" fill="#52B6CC"/>
            </g>
          </g>
          <g transform="translate(45.000000, 0.000000)" id="Shape">
            <path d="M11.9,10.8 C10.7,12.5 8.7,15.3 6.1,16.2 L2,14 C2,14 0.3,9.5 1.2,7.7 C1.9,6.6 2.5,6.1 3.2,4.1 C3.8,2.3 7.8,2.10942375e-15 8.9,1.3 C8.9,1.3 10.7,0.2 11.4,2.4 C11.4,2.4 13.4,2.4 14,4.3 C14,4.3 15.2,4.6 14.7,7.3 C14.5,8.8 13.6,11.1 11.9,10.8 Z" fill="#875137"/>
            <g transform="translate(5.000000, 1.000000)">
              <path d="M7.2,7 C6.2,8.2 5.1,8.7 4.8,8.3 C4,7.6 5.6,5.6 6.2,4.4 C6.8,3.2 6.3,3 6.3,3 C5.4,5.6 3.4,6.7 3.1,6.6 C2.3,6.3 2.4,5.7 2.6,5.3 C1.7,6.3 0.9,5.7 0.6,5.3 C-1.97619698e-14,4.5 2.5,0.7 2.5,0.7 C2.7,0.4 3,0.2 3.4,-7.10542736e-15 C3.7,-7.10542736e-15 3.8,0.2 3.9,0.4 C3.9,0.4 5.7,-0.7 6.4,1.5 C6.4,1.5 8.4,1.5 9,3.4 C9,3.4 10.2,3.7 9.7,6.4 C9.5,7.8 8.6,10 7.1,9.9 C7,9.8 6.8,9.7 6.7,9.6 C6.1,8.8 6.8,7.5 7.2,7 Z" fill="#875137"/>
              <path d="M3.6,0 C3.6,0 3.8,0 4,0.3 C4.2,0.5 4.4,1.1 4.4,1.6 C4.4,2.2 4.2,2.8 3.9,3.5 C3.8,3.8 3.6,4.2 3.4,4.5 C3.2,4.8 3.1,5.1 2.7,5.5 C2.4,5.8 1.9,5.9 1.5,6 C1.1,6 0.6,5.9 0.3,5.5 C0.2,5.3 0.2,5 0.3,4.8 C0.4,4.6 0.4,4.5 0.5,4.3 C0.6,4 0.8,3.7 0.9,3.5 C1.4,2.5 1.8,1.9 1.8,1.9 C1.8,1.9 1.6,2.6 1.2,3.6 C1.1,3.9 1,4.1 0.9,4.4 C0.9,4.6 0.8,4.7 0.8,4.9 C0.8,5 0.8,5.1 0.8,5.2 C0.9,5.3 1.2,5.4 1.5,5.4 C1.8,5.4 2.1,5.3 2.3,5.1 C2.5,5 2.7,4.6 2.8,4.3 C3,4 3.1,3.7 3.3,3.4 C3.6,2.8 3.8,2.2 3.9,1.7 C4,1.2 4,0.7 3.8,0.5 C3.8,0.1 3.6,0 3.6,0 Z" fill="#613A27"/>
              <path d="M2.5,5.3 C2.5,5.3 2.5,5.5 2.5,5.7 C2.5,5.9 2.7,6.3 3,6.3 C3.3,6.4 3.7,6.1 4.1,5.8 C4.3,5.6 4.5,5.4 4.6,5.2 C4.8,5 4.9,4.8 5.1,4.5 C5.3,4.3 5.4,4.1 5.5,3.8 C5.6,3.6 5.7,3.3 5.9,3.1 C6.1,2.6 6.2,2.2 6.2,1.7 C6.2,1.3 6.1,0.9 6.1,0.7 C6,0.5 5.9,0.3 5.9,0.3 C5.9,0.3 6,0.4 6.1,0.6 C6.2,0.8 6.4,1.2 6.4,1.6 C6.5,2 6.4,2.6 6.3,3.1 C6.2,3.4 6.1,3.6 6,3.9 C5.9,4.2 5.7,4.4 5.6,4.7 C5.3,5.2 4.9,5.7 4.4,6 C4.2,6.2 3.9,6.3 3.7,6.4 C3.4,6.5 3.1,6.5 2.8,6.4 C2.5,6.3 2.4,6.1 2.3,5.9 C2.2,5.7 2.2,5.5 2.2,5.4 C2.4,5.5 2.5,5.3 2.5,5.3 Z" fill="#613A27"/>
              <path d="M8.1,2 C8.1,2 8.3,2.1 8.6,2.4 C8.9,2.7 9.2,3.2 9.2,4 C9.2,4.4 9.1,4.7 8.9,5.1 C8.7,5.5 8.5,5.8 8.2,6.2 C7.7,6.9 7.2,7.6 6.5,8.2 C6.1,8.5 5.8,8.9 5.1,8.9 C4.7,8.9 4.5,8.6 4.4,8.4 C4.4,8.3 4.3,8.3 4.3,8.2 C4.3,8.1 4.3,8.1 4.3,8 C4.3,7.8 4.3,7.7 4.3,7.6 C4.4,7.1 4.6,6.8 4.8,6.4 C5,6.1 5.2,5.8 5.4,5.5 C6.2,4.4 6.8,3.8 6.8,3.8 C6.8,3.8 6.4,4.6 5.7,5.7 C5.5,6 5.4,6.3 5.2,6.6 C5,6.9 4.9,7.3 4.8,7.6 C4.7,7.8 5,8.3 5.1,8.2 C5.3,8.2 5.7,7.9 6,7.7 C6.6,7.1 7.2,6.4 7.7,5.8 C8,5.5 8.2,5.2 8.4,4.9 C8.6,4.6 8.7,4.3 8.7,4 C8.8,3.4 8.6,2.9 8.4,2.5 C8.3,2.1 8.1,2 8.1,2 Z" fill="#613A27"/>
              <path d="M7,7.6 C7,7.6 7,7.8 6.9,8.1 C6.9,8.4 6.8,8.8 6.8,9.2 C6.8,9.3 6.8,9.4 6.8,9.4 C6.8,9.5 6.8,9.5 6.9,9.5 C7,9.6 7.2,9.6 7.3,9.6 C7.5,9.6 7.6,9.6 7.7,9.6 C7.8,9.6 7.9,9.6 7.9,9.6 C7.9,9.6 7.9,9.6 7.8,9.7 C7.7,9.8 7.6,9.9 7.4,9.9 C7.3,9.9 7.2,10 7.1,10 C7,10 6.8,10 6.7,10 C6.6,10 6.4,9.8 6.4,9.7 C6.3,9.6 6.3,9.4 6.2,9.3 C6.1,8.8 6.2,8.3 6.2,8 C6.3,7.7 6.4,7.4 6.4,7.4 L7,7.6 Z" fill="#613A27"/>
            </g>
            <g transform="translate(1.000000, 3.000000)">
              <path d="M5.4,3.6 C5.4,3.6 2.2,9.7 0.3,5.9 C1.40720768e-14,5.2 0.8,2.2 2.5,1 C4,-6.77236045e-15 8.4,0.5 8,2.8 C7.8,3.9 5.4,3.6 5.4,3.6 Z" fill="#875137"/>
              <path d="M7.6,1.4 C7.6,1.4 7.7,1.5 7.8,1.6 C7.9,1.7 8.1,1.9 8.3,2.2 C8.4,2.4 8.4,2.5 8.4,2.8 C8.4,3 8.3,3.3 8.2,3.5 C8.1,3.6 8.1,3.7 7.9,3.8 C7.8,3.9 7.7,3.9 7.6,4 C7.4,4.1 7.2,4.1 6.9,4.2 C6,4.3 5.2,4.2 4.6,3.9 C4.3,3.8 4.1,3.6 3.9,3.5 C3.7,3.4 3.7,3.3 3.7,3.3 C3.7,3.3 4.1,3.5 4.7,3.5 C5.3,3.6 6.1,3.6 6.9,3.5 C7.1,3.5 7.3,3.4 7.4,3.4 C7.5,3.4 7.5,3.4 7.6,3.3 C7.6,3.3 7.7,3.2 7.8,3.2 C8,3 8.1,2.7 8,2.4 C7.9,2.1 7.8,1.9 7.7,1.7 C7.6,1.5 7.6,1.4 7.6,1.4 Z" fill="#613A27"/>
            </g>
            <path d="M0.9,9.8 C0.9,9.8 0.8,9.6 0.8,9.3 C0.8,9 0.8,8.5 0.9,8 C1,7.5 1.2,6.8 1.5,6.2 C1.6,5.9 1.8,5.6 2,5.2 C2.2,4.9 2.4,4.6 2.7,4.3 C3,4 3.3,3.8 3.6,3.6 C3.8,3.5 4,3.5 4.1,3.4 C4.3,3.3 4.5,3.3 4.6,3.3 C5,3.2 5.3,3.2 5.6,3.3 C5.9,3.3 6.2,3.4 6.5,3.5 C6.8,3.6 7,3.7 7.2,3.8 C7.4,3.9 7.6,4 7.7,4.1 C8,4.3 8.1,4.4 8.1,4.4 C8.1,4.4 7.9,4.3 7.6,4.3 C7.5,4.3 7.3,4.2 7.1,4.1 C6.9,4 6.6,4 6.4,4 C6.1,3.9 5.9,3.9 5.6,3.9 C5.3,3.9 5,4 4.7,4 C4.4,4.1 4.1,4.2 3.8,4.3 C3.5,4.5 3.2,4.7 3,4.9 C2.7,5.1 2.5,5.4 2.3,5.7 C2.1,6 1.9,6.3 1.8,6.6 C1.5,7.2 1.3,7.8 1.1,8.3 C0.9,8.8 0.8,9.2 0.8,9.5 C0.9,9.6 0.9,9.8 0.9,9.8 Z" fill="#613A27"/>
            <path d="M6.1,6.5 C6.1,6.5 6.2,6.5 6.3,6.6 C6.4,6.7 6.5,6.8 6.6,6.9 C6.8,7.2 7,7.7 7,8.2 C7,8.7 6.9,9.1 6.8,9.5 C6.7,9.8 6.5,10 6.5,10 C6.5,10 6.4,9.8 6.4,9.4 C6.4,9.1 6.4,8.6 6.3,8.2 C6.3,7.8 6.3,7.4 6.2,7.1 C6.2,6.7 6.1,6.5 6.1,6.5 Z" fill="#613A27"/>
          </g>
          <g transform="translate(26.000000, 13.000000)" id="Shape">
            <g>
              <path d="M0.5,31.8 C1.4,26.7 8.3,17.7 13.1,11.6 C16.2,7.7 20.8,0.4 20.8,0.4 C23,-0.2 24.9,1.2 26,2.9 C26,2.9 24.4,6.7 21.2,14 C17.8,21.9 9.9,34.5 6.9,35.6 C3.3,36.7 0.1,34.3 0.5,31.8 Z" fill="#52B6CC"/>
              <path d="M1.5,28.6 C1.5,28.6 2.1,27.2 3.2,25.2 C3.8,24.2 4.4,23 5.1,21.8 C5.9,20.6 6.7,19.3 7.5,18.1 C8.4,16.9 9.3,15.6 10.2,14.5 C10.6,13.9 11.1,13.4 11.5,12.9 C11.9,12.4 12.3,11.9 12.7,11.5 C13.4,10.6 14.1,10 14.6,9.5 C15.1,9 15.3,8.8 15.3,8.8 C15.3,8.8 14.4,10 13,11.8 C12.3,12.7 11.5,13.8 10.7,14.9 C9.9,16 9,17.3 8.1,18.5 C7.2,19.7 6.4,21 5.6,22.2 C4.8,23.4 4.1,24.5 3.5,25.5 C2.3,27.3 1.5,28.6 1.5,28.6 Z" fill="#2E83BF"/>
            </g>
            <path d="M25.8,3.1 C25.8,3.1 25.7,3.6 25.4,4.4 C25.1,5.2 24.7,6.5 24.1,7.9 C23.5,9.3 22.9,11 22.1,12.7 C21.3,14.4 20.4,16.3 19.5,18.1 C18.6,19.9 17.5,21.7 16.6,23.3 C16.1,24.1 15.6,24.9 15.1,25.6 C14.6,26.3 14.2,27 13.7,27.7 C12.8,29 12.1,30 11.5,30.7 C10.9,31.4 10.6,31.8 10.6,31.8 C10.6,31.8 10.9,31.4 11.4,30.6 C11.6,30.2 11.9,29.8 12.3,29.3 C12.6,28.8 13,28.2 13.4,27.5 C14.2,26.2 15.1,24.7 16.1,23 C17.1,21.3 18,19.6 19,17.7 C20,15.9 20.9,14.1 21.7,12.3 C22.5,10.6 23.3,9 23.9,7.5 C25,5 25.8,3.1 25.8,3.1 Z" fill="#2E83BF"/>
          </g>
        </g>
        <g id="Group" transform="translate(33.000000, 24.000000)">
          <path d="M3.6,42.3 C7.8,39.9 7,36 7,36 C6.5,41 0.8,37.7 0.8,37.7 C3.2,38.5 4.4,36.6 4.1,33.7 C3.2,34.5 1.8,34.3 1.8,34.3 C3.5,34.1 3.4,31.8 2.9,29.9 C2.7,29.6 2.6,29.2 2.4,28.9 C-0.5,23.6 5.7,22.1 5.7,22.1 C3,22.4 3.5,17.8 3.5,17.8 C3.5,17.8 4.3,20.8 6.8,19 C9.3,17.2 10.2,6.9 10.2,6.9 C12.9,-0.2 18,0.9 31.6,0.1 C45.2,-0.7 47.6,18.4 47.9,21.6 C48.5,28.3 53.8,27.8 53.8,27.8 C52.4,30 49.2,28.8 49.2,28.8 C49.2,28.8 52.2,30.7 50.4,34.9 C50.4,34.9 50.6,33.5 50,32.3 C49.9,33 49.7,33.8 49.5,34.6 C48.9,37.1 53.3,38.9 53.3,38.9 C50.3,40 48.1,37.2 48.1,37.2 C48.1,37.2 49,39 50.6,41.8 C51.4,42.9 52.6,43.1 53.7,43.6 C53.7,43.6 52.6,44.3 51.5,43.9 C51.9,46.5 49.6,48.8 49.6,48.8 C50.7,45.7 46.6,42.6 46.6,42.6 C46.6,42.6 48.8,45.6 47.4,47.6 C46,49.6 48.1,51.5 48.1,51.5 C43.4,50.6 43.5,47 43.5,47 C41.1,49.7 44.2,54.2 44.2,54.2 C40.8,53.2 40.9,48 40.9,48 C40.9,48 40.3,51.7 41.3,54 C42.3,56.3 39.6,57.9 39.6,57.9 C39.6,57.9 41.2,56.1 38.6,54.7 C36.9,53.8 36.3,51.9 36.1,50.7 C36.3,54.6 32.9,56 32.9,56 C34.5,54.2 32.8,49.8 32.8,49.8 C32.8,49.8 33.2,52.9 31.6,54.9 C30,56.9 32.2,59.6 32.2,59.6 C29.7,58.6 29.2,56.5 29.2,56.5 C28.6,58.6 29.8,61 29.8,61 C29.8,61 25.4,58.4 26.4,54.6 C27.4,50.8 24.4,48.4 24.4,48.4 C24.4,48.4 25.6,51 23.4,54.4 C21.3,57.8 23.7,59.5 23.7,59.5 C19.5,58 18.7,53.5 18.7,53.5 C18.4,61 11.6,58.2 11.6,58.2 C13,58 15.8,54 12.6,53.2 C11,52.8 10.5,52 10.4,51.4 C10.5,53.7 12.6,55 12.6,55 C3.5,55.1 5.2,48.6 5.2,48.6 C1.7,50.9 4.7,53.6 4.7,53.6 C-0.4,53 -0.7,44.7 3.6,42.3 Z" id="Shape" fill="#261C17" fill-rule="nonzero"/>
          <path d="M8.8,14.9 C8.8,14.9 8.7,15.5 8.5,16.3 C8.3,17.1 7.8,18.2 7.1,19.1 C6.9,19.3 6.7,19.5 6.4,19.7 C6.1,19.9 5.8,20 5.5,19.9 C5.2,19.9 4.9,19.7 4.7,19.6 C4.5,19.4 4.3,19.2 4.2,19.1 C3.9,18.7 3.8,18.4 3.7,18.2 C3.6,18 3.6,17.8 3.6,17.8 C3.6,17.8 3.7,17.9 3.8,18.1 C3.9,18.3 4.2,18.6 4.5,18.8 C4.8,19.1 5.2,19.3 5.6,19.3 C6,19.3 6.4,19 6.7,18.6 C7.4,17.8 7.9,16.8 8.3,16.1 C8.6,15.4 8.8,14.9 8.8,14.9 Z" id="Shape" fill="#120D0B" fill-rule="nonzero"/>
          <path d="M5.7,22.1 C5.7,22.1 5.3,22.3 4.6,22.7 C4,23 3.2,23.5 2.6,24.2 C2.4,24.3 2.3,24.5 2.2,24.7 C2.2,24.8 2,25 2,25.2 C1.9,25.6 1.8,26 1.8,26.3 C1.8,26.5 1.8,26.6 1.8,26.8 C1.8,26.9 1.9,27.1 1.9,27.2 C1.9,27.4 2,27.5 2,27.5 C2,27.5 1.9,27.4 1.8,27.2 C1.7,27 1.5,26.8 1.4,26.4 C1.3,26.2 1.3,26 1.3,25.8 C1.3,25.6 1.3,25.3 1.4,25.1 C1.4,24.9 1.6,24.6 1.7,24.4 C1.9,24.2 2,24 2.2,23.8 C2.4,23.6 2.6,23.4 2.8,23.3 C3,23.1 3.2,23 3.4,22.9 C3.8,22.7 4.2,22.5 4.6,22.4 C5.2,22.1 5.7,22.1 5.7,22.1 Z" id="Shape" fill="#120D0B" fill-rule="nonzero"/>
          <path d="M0.8,37.7 C0.8,37.7 0.9,37.7 1.1,37.7 C1.3,37.7 1.5,37.8 1.8,37.7 C2.1,37.7 2.4,37.6 2.7,37.5 C2.8,37.4 3,37.3 3.1,37.2 L3.3,37 L3.4,36.8 C3.5,36.7 3.5,36.5 3.6,36.3 C3.7,36.1 3.7,35.9 3.7,35.8 C3.8,35.4 3.8,35.1 3.9,34.8 C4,34.2 4,33.8 4,33.8 C4,33.8 4.1,34.2 4.2,34.8 C4.2,35.1 4.3,35.5 4.2,35.9 C4.2,36.1 4.2,36.3 4.1,36.5 C4,36.7 4,36.9 3.9,37.1 L3.7,37.4 L3.5,37.7 C3.3,37.9 3.1,38 2.9,38.1 C2.7,38.2 2.5,38.2 2.3,38.2 C2.1,38.2 1.9,38.2 1.8,38.2 C1.5,38.1 1.2,38 1.1,37.9 C0.9,37.8 0.8,37.7 0.8,37.7 Z" id="Shape" fill="#120D0B" fill-rule="nonzero"/>
          <path d="M5.1,41.4 C5.1,41.4 4.9,41.5 4.5,41.8 C4.1,42 3.6,42.4 3.1,42.9 C2.8,43.2 2.5,43.4 2.3,43.8 C2,44.1 1.8,44.5 1.6,44.9 C1.5,45.1 1.4,45.3 1.3,45.5 C1.2,45.7 1.2,45.9 1.1,46.2 L0.9,47 C0.9,47.2 0.9,47.5 0.9,47.7 C0.9,47.9 0.9,48.2 0.9,48.4 C0.9,48.6 0.9,48.9 1,49.1 C1.1,49.6 1.2,50 1.4,50.5 C1.6,50.9 1.8,51.3 2,51.7 C2.2,52.1 2.5,52.4 2.7,52.6 C3.2,53.1 3.8,53.4 4.2,53.5 C4.6,53.6 4.9,53.6 4.9,53.6 C4.9,53.6 4.6,53.7 4.2,53.6 C3.8,53.5 3.1,53.4 2.5,52.8 C2.2,52.6 1.9,52.2 1.6,51.9 C1.3,51.5 1.1,51.1 0.9,50.7 C0.7,50.3 0.5,49.8 0.4,49.3 C0.3,49.1 0.3,48.8 0.3,48.5 C0.3,48.2 0.2,48 0.2,47.7 C0.2,47.4 0.2,47.2 0.2,46.9 C0.3,46.6 0.3,46.4 0.4,46.1 C0.5,45.9 0.6,45.6 0.7,45.4 C0.8,45.2 0.9,44.9 1,44.7 C1.3,44.3 1.6,43.9 1.9,43.6 C2.2,43.3 2.5,43 2.8,42.7 C3.4,42.2 4,41.9 4.4,41.7 C4.9,41.5 5.1,41.4 5.1,41.4 Z" id="Shape" fill="#120D0B" fill-rule="nonzero"/>
          <path d="M12.9,55 C12.9,55 12,55.2 10.6,55.1 C10.3,55.1 9.9,55 9.5,54.9 C9.1,54.8 8.7,54.7 8.3,54.5 C8.1,54.4 7.9,54.3 7.7,54.2 C7.5,54.1 7.3,54 7.1,53.8 L6.5,53.3 C6.3,53.1 6.2,52.9 6,52.7 L5.8,52.4 C5.7,52.3 5.7,52.2 5.7,52.1 L5.4,51.4 C5.3,50.9 5.2,50.5 5.2,50 C5.2,49.6 5.2,49.1 5.3,48.7 C5.4,48.3 5.5,47.9 5.6,47.6 C5.7,47.3 5.8,47 5.9,46.7 C6,46.4 6.1,46.2 6.2,46 C6.4,45.6 6.5,45.4 6.5,45.4 C6.5,45.4 6.4,45.6 6.3,46 C6.2,46.4 6,46.9 5.9,47.6 C5.8,47.9 5.8,48.3 5.7,48.7 C5.7,49.1 5.7,49.5 5.7,49.9 C5.7,50.3 5.8,50.7 5.9,51.1 L6.2,51.7 C6.2,51.8 6.3,51.9 6.3,52 L6.5,52.3 C6.6,52.5 6.7,52.7 6.9,52.8 L7.4,53.2 C7.6,53.3 7.8,53.4 7.9,53.5 C8.1,53.6 8.3,53.7 8.5,53.8 C8.9,54 9.3,54.1 9.6,54.2 C10,54.3 10.3,54.4 10.7,54.5 C11.9,55 12.9,55 12.9,55 Z" id="Shape" fill="#120D0B" fill-rule="nonzero"/>
          <path d="M1.8,34.3 C1.8,34.3 5.7,35.2 5.1,29.4" id="Shape" stroke="#120D0B" stroke-width="0.1951"/>
          <path d="M5.8,46.4 C5.8,46.4 5.9,45.8 6.2,45.2 C6.4,44.6 6.8,44.1 6.8,44.1 C6.8,44.1 6.7,44.7 6.4,45.3 C6.1,45.9 5.8,46.4 5.8,46.4 Z" id="Shape" fill="#120D0B" fill-rule="nonzero"/>
          <path d="M5.9,44.5 C5.9,44.5 6,44 6.2,43.6 C6.4,43.2 6.7,42.8 6.7,42.8 C6.7,42.8 6.6,43.3 6.4,43.7 C6.2,44.1 5.9,44.5 5.9,44.5 Z" id="Shape" fill="#120D0B" fill-rule="nonzero"/>
          <path d="M5.6,29.8 C5.6,29.8 5.5,29.4 5.4,29 C5.3,28.6 5.4,28.2 5.4,28.2 C5.4,28.2 5.5,28.6 5.6,29 C5.7,29.3 5.6,29.8 5.6,29.8 Z" id="Shape" fill="#120D0B" fill-rule="nonzero"/>
          <path d="M6.3,28.9 C6.3,28.9 6.1,28.5 6,28.1 C5.9,27.7 5.9,27.3 5.9,27.3 C5.9,27.3 6.1,27.7 6.2,28.1 C6.3,28.5 6.3,28.9 6.3,28.9 Z" id="Shape" fill="#120D0B" fill-rule="nonzero"/>
          <path d="M8.3,21.5 C8.3,21.5 8,21.8 7.5,22 C7.2,22.1 6.9,22.3 6.6,22.4 C6.2,22.5 5.8,22.5 5.4,22.5 C5,22.4 4.6,22.3 4.3,22 C4.1,21.9 4,21.7 4,21.6 C3.9,21.5 3.9,21.3 3.8,21.2 C3.7,20.9 3.7,20.7 3.7,20.5 C3.7,20.3 3.7,20.2 3.7,20.2 C3.7,20.2 3.7,20.3 3.8,20.4 C3.8,20.5 3.9,20.6 3.9,20.7 C3.9,20.8 4,20.9 4.1,21 C4.2,21.2 4.4,21.5 4.7,21.6 C4.8,21.7 5,21.7 5.1,21.8 C5.2,21.9 5.4,21.9 5.5,21.9 C5.8,22 6.2,21.9 6.5,21.9 C6.8,21.9 7.1,21.8 7.4,21.8 C7.9,21.6 8.3,21.5 8.3,21.5 Z" id="Shape" fill="#120D0B" fill-rule="nonzero"/>
          <path d="M53.4,38.8 C53.4,38.8 52.9,39.1 52,39.1 C51.8,39.1 51.5,39.1 51.3,39.1 C51,39.1 50.8,39 50.5,39 C50.2,38.9 49.9,38.8 49.7,38.7 C49.4,38.6 49.2,38.4 48.9,38.2 C48.7,38 48.5,37.8 48.3,37.5 C48.1,37.3 48,37 47.9,36.8 C47.8,36.5 47.7,36.3 47.6,36.1 C47.5,35.9 47.5,35.6 47.5,35.4 C47.4,35 47.4,34.6 47.4,34.4 C47.4,34.2 47.4,34 47.4,34 C47.4,34 47.5,34.1 47.5,34.4 C47.6,34.6 47.6,35 47.8,35.4 C47.9,35.6 48,35.8 48,36 C48.1,36.2 48.2,36.4 48.3,36.6 C48.4,36.8 48.6,37 48.7,37.2 C48.9,37.4 49,37.6 49.2,37.7 C49.6,38 50.1,38.3 50.5,38.4 C50.7,38.5 51,38.6 51.2,38.6 C51.4,38.6 51.6,38.7 51.8,38.7 C52.2,38.7 52.6,38.8 52.8,38.7 C53.3,38.8 53.4,38.8 53.4,38.8 Z" id="Shape" fill="#120D0B" fill-rule="nonzero"/>
          <path d="M50.4,34.8 C50.4,34.8 50.5,34.3 50.6,33.5 C50.6,33.1 50.7,32.7 50.6,32.2 C50.6,31.7 50.5,31.3 50.3,30.8 C50.2,30.6 50.1,30.4 50,30.2 C49.9,30 49.7,29.8 49.6,29.6 C49.5,29.4 49.3,29.3 49.2,29.1 C49.1,28.9 48.9,28.8 48.7,28.7 C48.4,28.4 48.1,28.3 48,28.2 C47.8,28.1 47.7,28 47.7,28 C47.7,28 47.8,28 48,28.1 C48.2,28.2 48.5,28.2 48.9,28.4 C49.1,28.5 49.3,28.6 49.5,28.7 C49.7,28.8 49.9,29 50.1,29.2 C50.3,29.4 50.5,29.6 50.6,29.8 C50.7,30 50.9,30.3 51,30.5 C51.2,31 51.3,31.6 51.2,32.1 C51.2,32.6 51.1,33.1 51,33.4 C50.8,34.4 50.4,34.8 50.4,34.8 Z" id="Shape" fill="#120D0B" fill-rule="nonzero"/>
          <path d="M53.8,27.8 C53.8,27.8 53.7,27.8 53.4,27.9 C53.1,27.9 52.7,27.9 52.3,27.9 C52.1,27.9 51.8,27.8 51.6,27.7 C51.4,27.6 51.1,27.5 50.8,27.4 C50.5,27.3 50.3,27.1 50,26.9 C49.7,26.7 49.5,26.5 49.3,26.3 C49.1,26 48.9,25.8 48.8,25.5 C48.7,25.2 48.5,25 48.4,24.7 C48.3,24.4 48.2,24.2 48.1,23.9 C48.1,23.6 48,23.4 48,23.2 C47.9,22.8 48,22.4 47.9,22.1 C47.9,21.8 47.9,21.7 47.9,21.7 C47.9,21.7 47.9,21.8 48,22.1 C48.1,22.4 48.1,22.7 48.3,23.1 C48.4,23.3 48.4,23.5 48.5,23.8 C48.6,24 48.7,24.3 48.8,24.5 C48.9,24.8 49.1,25 49.2,25.2 C49.3,25.4 49.5,25.6 49.7,25.9 C49.9,26.1 50.1,26.3 50.3,26.5 C50.5,26.7 50.7,26.8 51,27 C51.2,27.2 51.5,27.2 51.7,27.4 C51.9,27.5 52.1,27.6 52.4,27.6 C52.8,27.7 53.2,27.8 53.4,27.9 C53.7,27.8 53.8,27.8 53.8,27.8 Z" id="Shape" fill="#120D0B" fill-rule="nonzero"/>
          <path d="M53.7,43.6 C53.7,43.6 53.4,43.9 52.7,44 C52.5,44 52.4,44.1 52.2,44.1 C52,44.1 51.8,44.1 51.6,44.1 C51.4,44.1 51.2,44 51,43.9 C50.8,43.8 50.6,43.7 50.4,43.6 C50,43.3 49.7,43 49.5,42.7 C49.3,42.4 49.1,42 49,41.7 C48.9,41.4 48.9,41.1 48.8,41 C48.8,40.8 48.8,40.7 48.8,40.7 C48.8,40.7 48.9,40.8 49,40.9 C49.1,41.1 49.2,41.3 49.4,41.5 C49.5,41.6 49.6,41.8 49.7,41.9 C49.8,42 49.9,42.2 50,42.3 C50.1,42.4 50.3,42.6 50.4,42.7 C50.5,42.8 50.7,42.9 50.8,43 C51,43.1 51.1,43.2 51.3,43.3 C51.5,43.4 51.6,43.4 51.8,43.5 C52.1,43.6 52.5,43.6 52.8,43.6 C53.1,43.6 53.4,43.6 53.5,43.6 C53.6,43.7 53.7,43.6 53.7,43.6 Z" id="Shape" fill="#120D0B" fill-rule="nonzero"/>
          <path d="M46.7,34.6 C46.7,34.6 46.6,34.3 46.6,33.9 C46.6,33.5 46.7,33.2 46.7,33.2 C46.7,33.2 46.8,33.5 46.8,33.9 C46.8,34.2 46.7,34.6 46.7,34.6 Z" id="Shape" fill="#120D0B" fill-rule="nonzero"/>
          <path d="M45.8,32.4 C45.8,32.4 45.9,32.7 45.9,33 C45.9,33.3 45.8,33.6 45.8,33.6 C45.8,33.6 45.7,33.3 45.7,33 C45.7,32.7 45.8,32.4 45.8,32.4 Z" id="Shape" fill="#120D0B" fill-rule="nonzero"/>
          <path d="M47.8,28.8 C47.8,28.8 47.5,28.7 47.3,28.6 C47.1,28.5 46.9,28.2 46.9,28.2 C46.9,28.2 47.2,28.3 47.4,28.4 C47.6,28.6 47.8,28.8 47.8,28.8 Z" id="Shape" fill="#120D0B" fill-rule="nonzero"/>
        </g>
        <g id="Group" transform="translate(36.000000, 50.000000)" fill-rule="nonzero">
          <g transform="translate(1.000000, 0.000000)" id="Shape">
            <path d="M18.4,1.1 C18.4,1.1 21.3,9.5 18.9,12.2 C16.5,14.9 3.8,20.3 3.8,20.3 C3.8,20.3 -4.4,25.5 4,43.9 C7.6,51.9 44.9,42.3 45.9,36.5 C46.9,30.6 42.2,15.2 42.2,15.2 C42.2,15.2 34.8,13.6 33,12.2 C31.1,10.9 31,5.2 31,5.2 C31,5.2 24.5,-2.3 18.4,1.1 Z" fill="#875137"/>
            <path d="M19.6,5.8 C19.6,5.8 19.7,6.1 19.7,6.5 C19.8,7 19.9,7.7 19.9,8.5 C19.9,9.3 20,10.3 19.6,11.4 C19.5,11.7 19.4,11.9 19.2,12.2 C19,12.5 18.8,12.6 18.6,12.8 C18.1,13.2 17.7,13.5 17.2,13.8 C16.3,14.4 15.3,14.9 14.4,15.4 C13.5,15.9 12.6,16.3 11.9,16.7 C10.4,17.4 9.4,17.8 9.4,17.8 C9.4,17.8 10.3,17.2 11.7,16.4 C12.4,16 13.2,15.5 14.1,15 C15,14.5 15.9,13.9 16.8,13.3 C17.3,13 17.7,12.7 18.1,12.4 C18.3,12.3 18.6,12 18.7,11.9 C18.8,11.7 18.9,11.5 19,11.3 C19.3,10.4 19.4,9.4 19.4,8.6 C19.4,7.8 19.4,7.1 19.4,6.6 C19.6,6.1 19.6,5.8 19.6,5.8 Z" fill="#613A27"/>
            <path d="M25.4,18.1 C25.4,18.1 24.9,18.1 24.1,18.1 C23.3,18.1 22.3,18.1 21.4,18 C20.4,17.9 19.4,17.9 18.7,17.8 C18.3,17.8 18,17.7 17.8,17.7 C17.6,17.7 17.5,17.7 17.5,17.7 C17.5,17.7 18,17.6 18.8,17.5 C19.6,17.4 20.6,17.4 21.6,17.5 C22.6,17.6 23.6,17.7 24.3,17.9 C24.9,18 25.4,18.1 25.4,18.1 Z" fill="#613A27"/>
            <path d="M37.8,15.7 C37.8,15.7 37.4,15.9 36.7,16.1 C36,16.3 35.2,16.6 34.3,16.9 C33.4,17.1 32.5,17.4 31.8,17.5 C31.1,17.6 30.7,17.7 30.7,17.7 C30.7,17.7 31.1,17.4 31.7,17.1 C32.3,16.8 33.2,16.5 34.1,16.2 C35,16 35.9,15.8 36.6,15.7 C37.4,15.7 37.8,15.7 37.8,15.7 Z" fill="#613A27"/>
          </g>
          <g transform="translate(0.000000, 14.000000)" id="Shape">
            <g>
              <path d="M44.7,14.9 C44.7,14.9 36.8,14.3 32.8,19.3 C32.8,19.3 26.7,15.2 15.9,17.5 C15.9,17.5 15.9,3.6 8.4,4.3 C6.9,4.7 4.9,5.9 4.2,6.5 C3.5,7.1 0.7,9.2 0.8,16.3 C0.9,24.3 5.5,31.2 4.4,29.3 C3.3,27.4 10.5,40.2 11.9,45.9 C11.9,45.9 30.6,54.6 44.5,45 C44.5,45 47.7,38.2 49.4,31.4 C50.6,26.6 48,18.5 46.9,11.7 C45.2,1.1 43.3,1 43.3,1 L39.8,0.2 C39.7,0.3 42.8,0.8 44.7,14.9 Z" fill="#6FCED9"/>
              <path d="M44.6,44.8 C44.6,44.8 45.3,43 46.2,40.3 C46.7,39 47.3,37.4 47.8,35.7 C48.1,34.9 48.4,34 48.7,33.1 C48.8,32.7 49,32.2 49.1,31.8 C49.2,31.4 49.2,30.9 49.3,30.4 C49.4,29.5 49.5,28.5 49.5,27.6 C49.5,26.7 49.4,25.8 49.3,24.9 C49.1,23.1 48.9,21.5 48.6,20.1 C48.1,17.3 47.8,15.4 47.8,15.4 C47.8,15.4 47.9,15.9 48.1,16.7 C48.3,17.5 48.6,18.6 48.9,20 C49.2,21.4 49.6,23 49.8,24.8 C49.9,25.7 50,26.6 50,27.6 C50,28.5 50,29.5 49.8,30.5 L49.7,31.2 C49.7,31.4 49.6,31.7 49.6,31.9 C49.5,32.4 49.3,32.8 49.2,33.3 C48.9,34.2 48.6,35.1 48.3,35.9 C47.7,37.6 47,39.1 46.5,40.4 C45.4,43.1 44.6,44.8 44.6,44.8 Z" fill="#3FADC4"/>
              <path d="M11.7,44.7 C11.7,44.7 11.3,44 10.8,43 C10.3,42 9.6,40.6 9,39.1 C8.4,37.7 7.8,36.3 7.3,35.2 C6.9,34.1 6.5,33.4 6.5,33.4 C6.5,33.4 7,34 7.6,35 C8.2,36 8.9,37.4 9.5,38.8 C10.1,40.2 10.7,41.7 11.1,42.8 C11.5,43.9 11.7,44.7 11.7,44.7 Z" fill="#3FADC4"/>
              <path d="M44.7,14.9 C44.1,14.9 43.6,14.9 43.1,15 C42.6,15 42,15.1 41.5,15.2 C41,15.3 40.4,15.4 39.9,15.5 C39.6,15.6 39.4,15.6 39.1,15.7 L38.3,15.9 C37.8,16.1 37.3,16.2 36.8,16.5 C36.5,16.6 36.3,16.7 36.1,16.8 C35.9,16.9 35.6,17 35.4,17.2 L34.7,17.6 C34.5,17.8 34.3,18 34.1,18.1 C33.9,18.3 33.7,18.5 33.5,18.7 L33,19.3 L32.9,19.4 L32.8,19.3 C32.2,18.9 31.5,18.6 30.9,18.4 C30.2,18.2 29.5,18 28.8,17.8 C28.5,17.7 28.1,17.7 27.8,17.6 C27.5,17.5 27.1,17.5 26.7,17.4 C26.3,17.3 26,17.3 25.6,17.3 C25.2,17.3 24.9,17.2 24.5,17.2 C23.8,17.1 23.1,17.1 22.4,17.1 C21.7,17.1 21,17.1 20.3,17.1 C19.6,17.1 18.9,17.2 18.1,17.2 L15.9,17.4 L15.9,17.3 C16.6,17.1 17.3,16.9 18,16.8 C18.7,16.7 19.4,16.6 20.2,16.5 C20.9,16.4 21.7,16.4 22.4,16.4 C23.1,16.4 23.9,16.4 24.6,16.5 C25,16.5 25.3,16.6 25.7,16.6 C26.1,16.6 26.4,16.7 26.8,16.8 C27.5,16.9 28.2,17.1 28.9,17.3 C29.2,17.4 29.6,17.5 29.9,17.6 C30.2,17.7 30.6,17.9 30.9,18 C31.6,18.3 32.2,18.6 32.8,19 L32.6,19 C33,18.6 33.3,18.1 33.7,17.8 C33.9,17.6 34.1,17.4 34.3,17.2 L35,16.7 C35.2,16.5 35.5,16.4 35.7,16.2 C35.9,16 36.2,15.9 36.4,15.8 C36.7,15.7 36.9,15.5 37.2,15.4 L38,15.1 C38.5,14.9 39.1,14.8 39.6,14.7 C39.9,14.6 40.2,14.6 40.4,14.6 C40.7,14.6 41,14.5 41.2,14.5 C42.5,14.6 43.6,14.6 44.7,14.9 Z" fill="#3FADC4"/>
              <path d="M15.8,15.3 C15.8,15.3 15.7,14.4 15.4,13 C15.1,11.6 14.7,9.8 13.9,8.2 C13.7,7.8 13.5,7.4 13.3,7 C13.1,6.6 12.8,6.3 12.5,6 C12.2,5.7 11.9,5.4 11.6,5.2 C11.3,5 11,4.8 10.7,4.7 C10.4,4.6 10.1,4.5 9.8,4.4 C9.5,4.3 9.3,4.3 9.1,4.3 C8.7,4.3 8.5,4.3 8.5,4.3 C8.5,4.3 8.7,4.3 9.1,4.2 C9.3,4.2 9.6,4.2 9.8,4.2 C10.1,4.2 10.4,4.3 10.8,4.4 C11.1,4.5 11.5,4.7 11.9,4.9 C12.3,5.1 12.6,5.4 12.9,5.7 C13.6,6.3 14.1,7.2 14.5,8 C15.3,9.7 15.6,11.6 15.8,13 C15.9,14.4 15.8,15.3 15.8,15.3 Z" fill="#3FADC4"/>
            </g>
            <path d="M20.5,46.8 C20.5,46.8 20.2,45.5 19.7,43.5 C19.4,42.5 19.1,41.4 18.8,40.1 C18.5,38.9 18.1,37.6 17.7,36.3 C17.5,35.6 17.3,35 17.1,34.4 C16.9,33.8 16.7,33.2 16.5,32.6 C16.1,31.4 15.7,30.3 15.2,29.4 C15,28.9 14.8,28.5 14.6,28.1 C14.4,27.7 14.3,27.4 14.1,27.2 C13.8,26.7 13.6,26.4 13.6,26.4 C13.6,26.4 13.8,26.7 14.2,27.2 C14.4,27.4 14.6,27.7 14.8,28.1 C15,28.5 15.3,28.8 15.5,29.3 C16,30.2 16.5,31.3 16.9,32.5 C17.1,33.1 17.4,33.7 17.6,34.3 C17.8,34.9 18,35.6 18.2,36.2 C18.6,37.5 18.9,38.8 19.2,40.1 C19.5,41.3 19.7,42.5 19.9,43.5 C20.3,45.4 20.5,46.8 20.5,46.8 Z" fill="#3FADC4"/>
            <path d="M49.2,25.1 C49.2,25.1 49,25.4 48.8,26 C48.5,26.5 48.2,27.3 47.7,28.3 C47.3,29.2 46.8,30.4 46.3,31.6 C45.8,32.8 45.3,34.1 44.8,35.4 C44.3,36.7 43.8,38 43.4,39.2 C43,40.4 42.6,41.6 42.2,42.6 C41.5,44.6 41.1,45.9 41.1,45.9 C41.1,45.9 41.2,45.6 41.3,45 C41.4,44.4 41.6,43.5 41.9,42.5 C42.2,41.5 42.5,40.3 42.9,39.1 C43.3,37.9 43.8,36.5 44.3,35.2 C44.8,33.9 45.4,32.6 45.9,31.4 C46.4,30.2 47,29.1 47.5,28.2 C48.4,26.3 49.2,25.1 49.2,25.1 Z" fill="#3FADC4"/>
          </g>
        </g>
        <g id="Group" transform="translate(0.000000, 108.000000)" fill-rule="nonzero">
          <g transform="translate(0.000000, 1.000000)" id="Shape">
            <path d="M0.1,131.6 C0.1,131.6 12.6,28.2 47.1,1.3 C47.9,1.8 56.8,6.6 70.1,5 C80.2,3.8 81.3,0.6 81.3,0.6 C81.3,0.6 81.3,0.5 81.3,0.4 C85.2,5.1 93.9,18 104.9,49.4 C119.9,92.5 122.9,128.8 122.9,128.8 C122.9,128.8 114.5,137.3 104.2,137.8 C104.2,137.8 105,142.4 105.2,146.6 C105.4,150.8 62.2,160.2 48.5,152.1 C45.6,150.4 47.3,146 39.3,146.1 C20.6,146.3 14.9,142.2 14.9,142.2 L15.5,137.2 C15.3,137.3 5.5,137.3 0.1,131.6 Z" fill="#6FCED9"/>
            <g transform="translate(15.000000, 1.000000)" fill="#3FADC4">
              <g transform="translate(0.000000, 2.000000)">
                <path d="M90.2,141.1 C90.2,141.1 89.1,134.7 87.4,125 C86.5,120.2 85.5,114.6 84.5,108.5 C83.4,102.5 82.3,96.1 81,89.7 C80.4,86.5 79.8,83.3 79.2,80.1 C78.6,77 78,73.9 77.4,70.9 C76.2,64.9 75.1,59.3 74,54.5 C73.5,52.1 73,49.9 72.5,48 C72,46.1 71.7,44.4 71.3,43 C70.6,40.2 70.1,38.7 70.1,38.7 C70.1,38.7 70.6,40.3 71.4,43 C71.8,44.4 72.2,46.1 72.7,48 C73.2,49.9 73.8,52.1 74.3,54.5 C74.9,56.9 75.5,59.5 76.1,62.2 C76.7,64.9 77.3,67.8 77.9,70.8 C78.5,73.8 79.1,76.9 79.8,80 C80.4,83.2 81,86.4 81.6,89.6 C82.8,96 83.9,102.4 85,108.5 C86,114.5 87,120.2 87.8,125 C88.6,129.8 89.2,133.9 89.6,136.7 C89.9,139.5 90.2,141.1 90.2,141.1 Z"/>
                <path d="M0,136.9 C0,136.9 0.1,135.8 0.3,133.9 C0.5,132 0.8,129.3 1.2,126.1 C1.6,122.9 2,119.1 2.6,115.1 C3.2,111.1 3.7,106.8 4.3,102.5 C5,98.2 5.6,93.9 6.2,89.9 C6.8,85.9 7.5,82.1 8.1,78.9 C8.7,75.7 9.2,73 9.6,71.2 C10,69.3 10.2,68.3 10.2,68.3 C10.2,68.3 10,69.4 9.7,71.2 C9.4,73.1 9,75.8 8.5,79 C8,82.2 7.4,86 6.8,90 C6.2,94 5.6,98.3 5,102.6 C2.5,119.7 0,136.9 0,136.9 Z"/>
                <path d="M43.2,1.8 C43.2,1.8 42.8,2.7 42.2,4.2 C41.6,5.7 40.9,8 40.1,10.7 C39.7,12.1 39.3,13.6 38.9,15.1 C38.5,16.7 38.1,18.4 37.7,20.1 C37.3,21.8 36.9,23.6 36.6,25.5 C36.2,27.3 35.9,29.2 35.6,31.1 C35.4,32 35.3,33 35.1,33.9 C35,34.8 34.8,35.8 34.7,36.7 C34.4,38.5 34.2,40.4 34,42.1 C33.8,43.9 33.6,45.6 33.4,47.2 C33.2,48.8 33.1,50.4 32.9,51.8 C32.6,54.6 32.4,57 32.3,58.6 C32.2,60.3 32.1,61.2 32.1,61.2 C32.1,61.2 32.1,60.3 32.2,58.6 C32.2,57.8 32.3,56.8 32.3,55.6 C32.3,54.4 32.4,53.1 32.5,51.7 C32.6,50.3 32.7,48.7 32.9,47.1 C33,45.5 33.2,43.8 33.4,42 C33.6,40.2 33.8,38.4 34.1,36.6 C34.2,35.7 34.4,34.7 34.5,33.8 C34.7,32.9 34.8,31.9 35,31 C35.3,29.1 35.7,27.3 36,25.4 C36.3,23.6 36.8,21.8 37.1,20 C37.5,18.3 37.9,16.6 38.4,15 C38.9,13.4 39.3,11.9 39.7,10.6 C40.1,9.2 40.6,8 41,6.9 C41.4,5.8 41.8,4.9 42.1,4.1 C42.7,2.7 43.2,1.8 43.2,1.8 Z"/>
                <path d="M58.5,1.5 C58.5,1.5 58.8,1.7 59.3,2.2 C59.8,2.7 60.3,3.4 60.9,4.4 C61.5,5.4 62.1,6.6 62.6,7.9 C62.9,8.6 63.1,9.2 63.4,9.9 C63.6,10.6 63.9,11.3 64.1,12 C64.5,13.4 64.9,14.9 65.3,16.3 C65.5,17 65.6,17.6 65.8,18.3 C65.9,18.9 66.1,19.5 66.2,20.1 C66.6,22.3 66.9,23.8 66.9,23.8 C66.9,23.8 66.5,22.4 65.9,20.2 C65.6,19.1 65.2,17.9 64.9,16.5 C64.5,15.1 64.1,13.7 63.6,12.3 C63.4,11.6 63.1,10.9 62.9,10.2 C62.7,9.5 62.4,8.8 62.2,8.2 C61.7,6.9 61.2,5.7 60.7,4.7 C60.2,3.7 59.7,2.9 59.3,2.4 C58.8,1.7 58.5,1.5 58.5,1.5 Z"/>
                <path d="M36.5,0.3 C36.5,0.3 36,0.7 35.3,1.5 C35,1.9 34.6,2.4 34.2,2.9 C33.8,3.4 33.4,4 33,4.6 C32.6,5.2 32.2,5.7 31.8,6.3 C31.4,6.8 31.1,7.4 30.8,7.8 C30.5,8.2 30.3,8.6 30.1,8.9 C29.9,9.2 29.8,9.3 29.8,9.3 C29.8,9.3 29.9,9.1 30,8.8 C30.1,8.5 30.3,8.1 30.5,7.6 C31,6.6 31.7,5.4 32.5,4.2 C32.9,3.6 33.3,3.1 33.8,2.6 C34.2,2.1 34.7,1.7 35.1,1.3 C35.5,0.9 35.9,0.7 36.1,0.5 C36.3,0.4 36.5,0.3 36.5,0.3 Z"/>
                <path d="M53.8,2.3 C53.8,2.3 54,3 54.5,4.2 C54.9,5.4 55.5,7.1 56.1,9.2 C56.7,11.3 57.4,13.7 58,16.3 C58.6,18.9 59.2,21.7 59.8,24.6 C60.1,26 60.3,27.4 60.5,28.8 C60.7,30.2 60.9,31.6 61.1,32.9 C61.3,34.2 61.4,35.5 61.5,36.8 C61.6,38 61.7,39.2 61.8,40.3 C62,42.5 62,44.3 62.1,45.5 C62.1,46.8 62.2,47.5 62.2,47.5 C62.2,47.5 62.1,46.8 62,45.5 C61.9,44.9 61.9,44.1 61.8,43.2 C61.7,42.3 61.6,41.3 61.5,40.3 C61.4,39.2 61.3,38.1 61.1,36.8 C60.9,35.6 60.8,34.3 60.6,33 C60.4,31.7 60.2,30.3 60,28.9 C59.8,27.5 59.5,26.1 59.2,24.7 C58.7,21.9 58.1,19.1 57.5,16.4 C56.9,13.8 56.3,11.3 55.8,9.2 C55.3,7.1 54.8,5.4 54.4,4.2 C54,3 53.8,2.3 53.8,2.3 Z"/>
              </g>
              <path d="M70.7,5.6 C70.7,5.6 70.9,6 71.3,6.7 C71.7,7.4 72.4,8.5 73.2,9.8 C74.8,12.5 77,16.4 79.2,21.3 C81.5,26.2 83.9,32 86.3,38.3 C88.7,44.6 91.1,51.4 93.3,58.2 C95.5,65 97.5,72 99.2,78.5 C100.9,85 102.2,91.2 103.2,96.5 C104.2,101.8 104.9,106.2 105.3,109.3 C105.5,110.9 105.7,112.1 105.8,112.9 C105.9,113.3 105.9,113.6 105.9,113.8 C105.9,114 106,114.1 106,114.1 C106,114.1 106,114 105.9,113.8 C105.9,113.6 105.8,113.3 105.7,112.9 C105.6,112.1 105.4,110.9 105.1,109.3 C104.6,106.2 103.8,101.8 102.7,96.5 C101.6,91.2 100.2,85.1 98.5,78.6 C96.8,72.1 94.8,65.2 92.6,58.4 C91.5,55 90.4,51.6 89.2,48.2 C88,44.9 86.8,41.6 85.7,38.5 C83.3,32.2 81,26.4 78.8,21.5 C76.6,16.6 74.6,12.6 73,9.9 C72.2,8.5 71.6,7.5 71.2,6.7 C70.9,6 70.7,5.6 70.7,5.6 Z"/>
              <path d="M47.5,154.3 C47.5,154.3 46.8,154.3 45.5,154.3 C44.2,154.2 42.3,154.1 40.1,153.7 C39,153.5 37.8,153.2 36.6,152.8 C36,152.6 35.3,152.4 34.7,152.1 C34.1,151.8 33.5,151.4 32.9,151 C31.8,150.1 31,148.7 30.4,147.4 C30.2,147.1 30.1,146.8 29.8,146.7 C29.5,146.5 29.2,146.4 28.9,146.3 C28.2,146.1 27.5,146 26.8,145.9 C25.3,145.7 23.9,145.7 22.4,145.7 C20.9,145.7 19.5,145.7 18.1,145.6 C15.3,145.5 12.7,145 10.5,144.6 C8.3,144.2 6.5,143.7 5.3,143.4 C4,143.1 3.3,142.8 3.3,142.8 C3.3,142.8 4,143 5.3,143.3 C6.6,143.6 8.4,143.9 10.6,144.3 C12.8,144.7 15.4,144.9 18.1,145.1 C19.5,145.2 20.9,145.1 22.4,145.1 C23.9,145.1 25.4,145.2 26.8,145.3 C27.5,145.4 28.3,145.5 29,145.7 C29.4,145.8 29.8,146 30.1,146.2 C30.5,146.4 30.7,146.8 30.9,147.1 C31.6,148.4 32.2,149.7 33.2,150.5 C33.7,150.9 34.3,151.3 34.8,151.6 C35.1,151.7 35.4,151.9 35.7,152 C36,152.1 36.3,152.2 36.6,152.3 C37.8,152.7 39,153 40,153.2 C44.5,154.3 47.5,154.3 47.5,154.3 Z"/>
              <path d="M32,0.2 C32,0.2 31.8,0.4 31.5,0.7 C31.1,1 30.6,1.5 30,2.1 C28.7,3.3 26.9,5.1 25,7.4 C23.1,9.7 21,12.6 19,15.8 C18,17.4 17,19.1 16.1,20.9 C15.1,22.6 14.2,24.4 13.3,26.2 C11.5,29.8 9.8,33.5 8.3,37 C7.6,38.7 6.8,40.4 6.2,42 C5.5,43.6 4.9,45.1 4.4,46.6 C3.3,49.4 2.5,51.8 2,53.5 C1.7,54.3 1.5,55 1.4,55.5 C1.3,56 1.2,56.2 1.2,56.2 C1.2,56.2 1.3,56 1.4,55.5 C1.5,55 1.7,54.4 1.9,53.5 C2.4,51.8 3.1,49.4 4.1,46.5 C5.1,43.6 6.4,40.3 7.8,36.8 C9.3,33.3 10.9,29.6 12.7,26 C13.6,24.2 14.5,22.4 15.5,20.7 C16.5,18.9 17.5,17.3 18.5,15.6 C20.5,12.4 22.7,9.6 24.7,7.3 C26.7,5 28.6,3.3 29.9,2.1 C30.6,1.5 31.1,1.1 31.5,0.8 C31.8,0.4 32,0.2 32,0.2 Z"/>
            </g>
          </g>
          <g transform="translate(46.000000, 0.000000)" id="Shape">
            <path d="M34.7,0.5 C34.7,0.5 25.9,5.1 17.2,4.1 C8.6,3.1 1.9,0.5 1.9,0.5 C1.9,0.5 1,1 1.1,2.2 C1.1,2.2 10.2,7.6 24.2,6 C34.3,4.8 35.4,1.6 35.4,1.6 C35.4,1.6 35.3,0.3 34.7,0.5 Z" fill="#D9A64A"/>
            <path d="M31.6,4.3 C31.6,4.3 31.1,4.5 30.3,4.7 C29.5,4.9 28.3,5.3 26.8,5.6 C26.1,5.8 25.3,5.9 24.4,6 C23.6,6.1 22.7,6.2 21.7,6.3 C20.8,6.3 19.8,6.4 18.8,6.4 C17.8,6.4 16.8,6.4 15.8,6.4 L14.3,6.3 C13.8,6.2 13.3,6.2 12.8,6.1 C11.8,6 10.9,5.8 10,5.6 C9.1,5.4 8.2,5.2 7.4,4.9 C7,4.8 6.6,4.7 6.2,4.5 C5.8,4.4 5.5,4.2 5.1,4.1 C4.4,3.8 3.8,3.6 3.2,3.3 C2.7,3 2.2,2.8 1.8,2.6 C1,2.2 0.6,2 0.6,2 C0.6,2 1.1,2.2 1.9,2.5 C2.3,2.7 2.8,2.9 3.3,3.1 C3.9,3.3 4.5,3.5 5.2,3.7 C5.5,3.8 5.9,3.9 6.3,4.1 C6.7,4.2 7.1,4.3 7.5,4.4 C8.3,4.6 9.2,4.8 10.1,5 C11,5.2 11.9,5.3 12.9,5.4 C13.4,5.5 13.9,5.5 14.3,5.6 L15.8,5.7 C16.8,5.8 17.7,5.8 18.7,5.8 C19.7,5.8 20.6,5.7 21.5,5.7 C22.4,5.6 23.3,5.6 24.1,5.5 C24.9,5.4 25.7,5.3 26.4,5.2 C27.9,5 29.1,4.7 29.9,4.5 C31.2,4.5 31.6,4.3 31.6,4.3 Z" fill="#A67939"/>
            <path d="M32.9,1.3 C32.9,1.3 31.7,2 29.8,2.7 C29.3,2.9 28.8,3 28.2,3.2 C27.6,3.3 27,3.5 26.4,3.7 C25.1,4 23.8,4.2 22.4,4.3 C21.7,4.4 21,4.4 20.4,4.4 C19.7,4.4 19.1,4.4 18.4,4.4 C17.8,4.4 17.1,4.3 16.6,4.2 C16,4.2 15.5,4 15,4 C14.5,3.9 14,3.8 13.6,3.7 C13.2,3.6 12.8,3.5 12.6,3.4 C12,3.2 11.7,3.1 11.7,3.1 C11.7,3.1 12,3.1 12.6,3.2 C12.9,3.2 13.2,3.3 13.7,3.4 C14.1,3.5 14.6,3.5 15.1,3.5 C15.6,3.6 16.1,3.6 16.7,3.6 C17.3,3.6 17.9,3.7 18.5,3.7 C19.1,3.7 19.8,3.7 20.4,3.7 C21.1,3.7 21.7,3.7 22.4,3.6 C23.7,3.5 25.1,3.3 26.3,3.1 C27.5,2.9 28.7,2.6 29.7,2.3 C31.6,1.9 32.9,1.3 32.9,1.3 Z" fill="#A67939"/>
          </g>
        </g>
        <g id="Group" transform="translate(37.000000, 0.000000)" fill-rule="nonzero">
          <g id="Shape">
            <g>
              <path d="M36.9,9.8 C36.9,9.8 36.6,0.8 29.6,0.9 C29.6,0.9 27.5,-0.9 25.4,0.7 C25.4,0.7 22.8,-1 21.4,0.9 C21.4,0.9 18.6,-0.5 17.9,1.2 C17.9,1.2 14.3,6.66188025e-16 13.2,2.7 C13.2,2.7 9,1.6 8.5,5.1 C8.5,5.1 5.7,5.8 5.9,8.4 C5.9,8.4 2.6,9.3 4,11.9 C4,11.9 1,12.2 1.9,15.5 C1.9,15.5 2.33146835e-15,17.6 1.5,19 C1.5,19 -0.3,21.6 2.1,22.3 C2.1,22.3 1.2,25.1 3.9,24.8 C3.9,24.8 5.3,27.3 8.1,25.8" fill="#261C17"/>
              <path d="M25.5,0.7 C25.5,0.7 26,0.8 26.7,1.1 C27,1.3 27.4,1.5 27.8,1.9 C28.2,2.2 28.5,2.6 28.8,3.1 C29,3.5 29.3,4 29.4,4.5 C29.6,5 29.7,5.4 29.7,5.8 C29.8,6.2 29.8,6.5 29.8,6.7 C29.8,6.9 29.8,7 29.8,7 C29.8,7 29.7,6.9 29.7,6.7 C29.6,6.5 29.5,6.2 29.4,5.9 C29.3,5.6 29.1,5.2 28.9,4.8 C28.7,4.4 28.5,4 28.2,3.6 C27.7,2.8 27,2.1 26.5,1.6 C26,1 25.5,0.7 25.5,0.7 Z" fill="#120D0B"/>
              <path d="M21.5,0.9 C21.5,0.9 21.6,0.8 21.7,0.9 C21.9,0.9 22.1,1 22.3,1.2 C22.7,1.5 23.2,2 23.6,2.6 C24,3.2 24.2,3.8 24.4,4.3 C24.5,4.8 24.6,5.1 24.6,5.1 C24.6,5.1 24.4,4.8 24.1,4.4 C23.8,4 23.4,3.4 23.1,2.9 C22.8,2.3 22.4,1.8 22.1,1.4 C22,1.2 21.8,1.1 21.7,1 C21.6,0.9 21.5,0.9 21.5,0.9 Z" fill="#120D0B"/>
              <path d="M18,1.2 C18,1.2 18.1,1.2 18.3,1.2 C18.5,1.3 18.8,1.3 19.1,1.5 C19.7,1.8 20.4,2.5 20.9,3.4 C21.1,3.8 21.4,4.2 21.5,4.6 C21.7,5 21.8,5.4 21.9,5.7 C22,6.1 22,6.4 22.1,6.6 C22.1,6.8 22.1,6.9 22.1,6.9 C22.1,6.9 22,6.9 21.9,6.7 C21.8,6.5 21.7,6.3 21.5,6 C21.3,5.7 21.2,5.3 21,5 C20.8,4.6 20.6,4.2 20.4,3.9 C19.9,3.1 19.4,2.5 18.9,2 C18.5,1.4 18,1.2 18,1.2 Z" fill="#120D0B"/>
              <path d="M29.7,0.9 C29.7,0.9 29.9,0.9 30.1,1.1 C30.3,1.2 30.6,1.4 30.8,1.7 C31,2 31.1,2.3 31.2,2.5 C31.3,2.8 31.2,2.9 31.2,2.9 C31.2,2.9 31,2.8 30.8,2.7 C30.6,2.5 30.4,2.3 30.2,2.1 C30,1.9 29.9,1.6 29.8,1.4 C29.7,1.1 29.7,0.9 29.7,0.9 Z" fill="#120D0B"/>
              <path d="M13.3,2.7 C13.3,2.7 13.8,2.7 14.6,3 C15,3.2 15.4,3.4 15.8,3.7 C16.2,4 16.6,4.4 16.9,4.8 C17.6,5.6 18.1,6.5 18.3,7.3 C18.4,7.7 18.5,8 18.6,8.2 C18.7,8.4 18.7,8.5 18.7,8.5 C18.7,8.5 18.6,8.4 18.5,8.2 C18.4,8 18.2,7.7 18,7.4 C17.8,7.1 17.6,6.7 17.3,6.3 C17,6 16.7,5.6 16.4,5.3 C15.8,4.5 15,3.9 14.4,3.4 C13.8,3 13.3,2.7 13.3,2.7 Z" fill="#120D0B"/>
              <path d="M8.6,5.2 C8.6,5.2 8.8,5 9.1,4.9 C9.5,4.8 10,4.9 10.4,5 C10.8,5.2 11.2,5.5 11.4,5.8 C11.6,6.1 11.7,6.3 11.7,6.3 C11.7,6.3 11.6,6.3 11.5,6.3 C11.4,6.3 11.3,6.2 11.1,6.2 C10.8,6.1 10.4,5.9 10.1,5.7 C9.7,5.5 9.4,5.4 9.1,5.3 C8.9,5.2 8.6,5.2 8.6,5.2 Z" fill="#120D0B"/>
              <path d="M12.2,5.4 C12.2,5.4 12.4,5.4 12.7,5.5 C13,5.6 13.3,5.8 13.6,6.1 C13.9,6.4 14.1,6.7 14.1,7 C14.2,7.3 14.1,7.5 14.1,7.5 C14.1,7.5 14.1,7.5 14,7.4 C13.9,7.3 13.8,7.3 13.7,7.2 C13.5,7 13.3,6.8 13,6.5 C12.8,6.2 12.5,6 12.4,5.8 C12.3,5.6 12.2,5.4 12.2,5.4 Z" fill="#120D0B"/>
              <path d="M6,8.4 C6,8.4 6.4,8.5 7,8.8 C7.6,9.1 8.4,9.5 9,10.1 C9.3,10.4 9.6,10.7 9.9,11.1 C10.1,11.4 10.3,11.8 10.5,12.1 C10.6,12.4 10.7,12.7 10.7,12.9 C10.7,13.1 10.7,13.2 10.7,13.2 C10.7,13.2 10.6,13.1 10.5,12.9 C10.4,12.7 10.3,12.5 10.1,12.2 C9.9,11.9 9.7,11.7 9.4,11.4 C9.1,11.1 8.8,10.8 8.5,10.5 C7.9,9.9 7.2,9.4 6.7,9 C6.3,8.7 6,8.4 6,8.4 Z" fill="#120D0B"/>
              <path d="M4.1,11.9 C4.1,11.9 4.5,12 5.1,12.3 C5.6,12.6 6.3,13.2 6.8,13.8 C7.1,14.1 7.3,14.5 7.5,14.8 C7.7,15.1 7.9,15.5 8,15.8 C8.2,16.4 8.3,16.8 8.3,16.8 C8.3,16.8 8.2,16.7 8.1,16.6 C8,16.5 7.8,16.2 7.7,16 C7.3,15.5 6.9,14.9 6.4,14.3 C5.9,13.7 5.4,13.1 4.9,12.7 C4.4,12.2 4.1,11.9 4.1,11.9 Z" fill="#120D0B"/>
              <path d="M6.2,12.3 C6.2,12.3 6.4,12.3 6.7,12.4 C7,12.5 7.3,12.7 7.5,12.9 C7.7,13.2 7.9,13.5 8,13.7 C8,14 8,14.2 8,14.2 C8,14.2 8,14.2 7.9,14.1 C7.8,14.1 7.7,14 7.6,13.9 C7.4,13.7 7.2,13.5 6.9,13.3 C6.7,13.1 6.5,12.8 6.3,12.6 C6.3,12.4 6.2,12.3 6.2,12.3 Z" fill="#120D0B"/>
              <path d="M24.7,3.4 C24.7,3.4 24.9,3.5 25.1,3.7 C25.3,3.9 25.6,4.2 25.8,4.6 C26,5 26,5.4 26,5.7 C26.1,6 26,6.2 26,6.2 C26,6.2 26,6.2 25.9,6.1 C25.9,6 25.8,5.9 25.7,5.8 C25.6,5.5 25.4,5.2 25.2,4.9 C25.1,4.6 24.9,4.2 24.8,3.9 C24.8,3.6 24.7,3.4 24.7,3.4 Z" fill="#120D0B"/>
            </g>
            <g transform="translate(5.000000, 6.000000)">
              <path d="M0.6,19.7 C0.6,19.7 7.4,3.3 22.7,3.4 C28.2,3.4 32.8,4.5 32.8,4.5 C32.8,4.5 29.8,0.4 19.6,1.2 C11,1.9 2.4,5.5 0.6,19.7 Z" fill="#D9A64A"/>
              <g transform="translate(20.000000, 0.000000)">
                <path d="M2.2,4 C2.2,4 3.3,2.7 3.3,1.9 C3.3,1.9 2.3,0.3 1.5,0.2 C1.5,0.2 0.4,1.6 0.3,2.4 C0.3,2.5 1.2,3.8 2.2,4 Z" fill="#FFB83B"/>
                <path d="M2,3.7 C2,3.7 2.9,2.4 2.9,1.9 C2.9,1.9 2,0.8 1.5,0.6 C1.5,0.6 0.8,1.6 0.7,2.4 C0.7,2.4 1.3,3.2 2,3.7 Z" fill="#D12A2A"/>
              </g>
            </g>
          </g>
          <g transform="translate(5.000000, 8.000000)">
            <g transform="translate(35.000000, 18.000000)" id="Shape">
              <path d="M4,1.1 C4,1.1 2.5,9.3 5.7,11 C8.9,12.7 8.9,15.6 7.4,16.3 C7.4,16.3 8.6,14.7 7.3,13.7 C7.3,13.7 7.9,15.9 4.8,16.8 C1.7,17.7 4.6,22 7.4,20.1 C7.4,20.1 6.8,21.3 5.6,21.3 C5.6,21.3 8.6,21 8.9,22.8 C9.2,24.5 7.4,27.5 2.6,24.9 C2.6,24.9 4.9,25.4 5.8,24.7 C5.8,24.7 4.7,24.9 4.3,24.4 C4.3,24.4 9.4,24.1 7.5,22.8 C5.6,21.4 8.77076189e-15,22.6 1.1,19.2 C2.2,15.8 6.5,16.2 6,14.6 C5.5,13 2.3,12.4 2.3,9.6 C2.3,9.6 1.2,12.5 4.7,14 C4.7,14 0.6,14.2 1.5,8.8 C2.4,3.4 4,1.1 4,1.1 Z" fill="#30231D"/>
              <path d="M2.3,9.5 C2.3,9.5 2.3,9.7 2.4,9.9 C2.5,10.2 2.6,10.5 2.9,10.9 C3.2,11.3 3.5,11.7 3.9,12 C4.1,12.2 4.4,12.3 4.6,12.5 L5,12.7 L5.4,13 C5.6,13.2 5.9,13.5 6.1,13.8 C6.3,14.1 6.3,14.6 6.2,14.9 C6.1,15.2 5.8,15.5 5.6,15.6 C5.4,15.8 5.1,15.9 4.9,16 C4.5,16.2 4.1,16.3 3.8,16.3 C3.5,16.3 3.4,16.3 3.4,16.3 C3.4,16.3 4,16.1 4.8,15.6 C5.2,15.3 5.6,15 5.7,14.6 C5.8,14.4 5.7,14.2 5.6,14 C5.5,13.8 5.3,13.6 5.1,13.4 L4.7,13.1 L4.3,12.8 C4,12.6 3.8,12.4 3.6,12.2 C3.2,11.8 2.8,11.3 2.6,10.8 C2.4,10.4 2.3,9.9 2.3,9.7 C2.2,9.7 2.3,9.5 2.3,9.5 Z" fill="#120D0B"/>
              <path d="M5.1,22 C5.1,22 4.7,22.1 4.2,22.1 C3.6,22.1 2.8,22.1 2.1,21.7 C1.7,21.5 1.4,21.3 1.1,21 C0.8,20.7 0.7,20.3 0.8,20 C0.8,19.8 0.8,19.7 0.9,19.6 C0.9,19.5 1,19.4 1,19.3 C1.1,19.1 1.1,19.1 1.1,19.1 C1.1,19.1 1.1,19.2 1.1,19.4 C1.1,19.5 1.1,19.6 1.1,19.7 C1.1,19.8 1.2,19.9 1.2,20 C1.2,20.1 1.3,20.2 1.3,20.4 C1.4,20.5 1.5,20.6 1.6,20.7 C1.8,20.9 2.1,21.1 2.4,21.2 C3,21.5 3.7,21.7 4.3,21.8 C4.8,21.9 5.1,22 5.1,22 Z" fill="#120D0B"/>
              <path d="M5.7,11 C5.7,11 5.5,11 5.2,10.8 C5.1,10.7 4.9,10.6 4.8,10.4 C4.6,10.2 4.5,10 4.3,9.8 C4.2,9.6 4,9.3 3.9,9 C3.8,8.7 3.7,8.4 3.6,8 C3.6,7.7 3.5,7.3 3.5,7 C3.5,6.6 3.5,6.3 3.5,5.9 C3.5,5.2 3.6,4.5 3.7,3.8 C3.7,3.5 3.8,3.2 3.9,2.9 C4,2.6 4,2.3 4.1,2.1 C4.4,1.1 4.7,0.4 4.7,0.4 C4.7,0.4 4.6,1.1 4.5,2.2 C4.5,2.7 4.4,3.3 4.3,4 C4.2,4.6 4.2,5.3 4.2,6 C4.2,6.7 4.2,7.4 4.3,8 C4.4,8.3 4.4,8.6 4.5,8.9 C4.6,9.2 4.6,9.4 4.7,9.7 C4.8,9.9 4.9,10.1 5,10.3 C5.1,10.5 5.2,10.6 5.3,10.7 C5.5,10.9 5.7,11 5.7,11 Z" fill="#120D0B"/>
            </g>
            <g transform="translate(4.000000, 2.000000)">
              <g id="Shape">
                <path d="M27.8,2.8 C40.2,7.9 36.9,27.3 36.9,27.3 C36.9,27.3 40.1,32.2 33.4,42.8 C27.2,52.7 8.8,46.7 3.8,36.9 C0.5,30.4 -2.2,14.8 6.7,5.1 C11.8,-0.5 19.4,-0.7 27.8,2.8 Z" fill="#875137"/>
                <path d="M26.4,47.6 C26.4,47.6 25.3,48 23.6,48.1 C22.8,48.1 21.8,48.2 20.7,48 C20.2,48 19.6,47.9 19.1,47.8 C18.5,47.7 18,47.6 17.5,47.4 C17,47.2 16.4,47 15.9,46.9 C15.4,46.7 14.9,46.5 14.4,46.3 C13.9,46.1 13.5,45.8 13,45.6 C12.6,45.4 12.2,45.1 11.8,44.9 C11.1,44.5 10.5,44 10.1,43.7 C9.7,43.4 9.5,43.2 9.5,43.2 C9.5,43.2 9.7,43.3 10.2,43.6 C10.4,43.7 10.7,43.9 11,44 C11.3,44.2 11.6,44.3 12,44.5 C12.4,44.7 12.8,44.9 13.2,45.1 C13.6,45.3 14.1,45.5 14.6,45.7 C15.1,45.9 15.6,46.1 16.1,46.3 C16.6,46.5 17.1,46.6 17.7,46.8 C18.2,46.9 18.8,47.1 19.3,47.2 C19.8,47.3 20.4,47.4 20.9,47.5 C21.9,47.6 22.9,47.7 23.7,47.8 C25.3,47.7 26.4,47.6 26.4,47.6 Z" fill="#613A27"/>
                <path d="M36.9,27.3 C36.9,27.3 37.1,27.5 37.3,27.9 C37.5,28.3 37.7,28.9 37.8,29.7 C37.9,30.1 37.9,30.5 37.9,31 C37.9,31.4 37.9,31.9 37.9,32.4 C37.8,32.9 37.8,33.4 37.7,33.9 C37.6,34.4 37.5,34.9 37.3,35.4 C37.2,35.9 37,36.4 36.8,36.9 C36.6,37.4 36.4,37.8 36.2,38.3 C35.8,39.2 35.3,40 34.9,40.6 C34.5,41.3 34.1,41.8 33.9,42.2 C33.6,42.6 33.5,42.8 33.5,42.8 C33.5,42.8 33.6,42.6 33.8,42.2 C34,41.8 34.3,41.2 34.6,40.5 C34.8,40.2 34.9,39.8 35.1,39.4 C35.3,39 35.4,38.6 35.6,38.1 C35.8,37.7 36,37.2 36.1,36.7 C36.3,36.2 36.4,35.8 36.6,35.3 C36.8,34.8 36.9,34.3 37,33.8 C37.1,33.3 37.2,32.8 37.3,32.4 C37.4,31.5 37.5,30.6 37.4,29.8 C37.4,29 37.3,28.4 37.1,28 C37,27.5 36.9,27.3 36.9,27.3 Z" fill="#613A27"/>
              </g>
              <path d="M27.4,25.3 C27.4,25.3 27.8,25.9 28.4,26.9 C28.9,27.9 29.6,29.2 30.2,30.5 C30.3,30.8 30.5,31.2 30.6,31.5 C30.7,31.9 30.8,32.2 30.9,32.6 C30.9,33 30.8,33.4 30.7,33.7 C30.5,34 30.3,34.2 30.1,34.4 C29.7,34.8 29.2,35 28.9,35.1 C28.6,35.2 28.4,35.3 28.4,35.3 C28.4,35.3 28.6,35.2 28.8,35 C29.1,34.8 29.4,34.5 29.8,34.1 C30.1,33.7 30.4,33.2 30.3,32.6 C30.3,32.3 30.1,32 30,31.7 C29.9,31.4 29.7,31 29.6,30.7 C29,29.4 28.5,28 28.1,27 C27.7,26 27.4,25.3 27.4,25.3 Z" id="Shape" fill="#613A27"/>
              <path d="M27.8,33.8 C27.8,33.8 27.7,33.9 27.6,34.1 C27.5,34.3 27.3,34.4 27.1,34.6 C26.9,34.7 26.7,34.8 26.5,34.9 C26.4,34.9 26.3,34.9 26.3,35 C26.2,35 26.2,35 26.2,35 C26.2,35 26.2,34.8 26.3,34.6 C26.4,34.4 26.6,34.2 26.8,34 C27,33.8 27.3,33.8 27.5,33.8 C27.7,33.7 27.8,33.8 27.8,33.8 Z" id="Shape" fill="#613A27"/>
              <path d="M23.7,22.8 C23.7,22.8 23.6,22.8 23.3,22.8 C23,22.8 22.7,22.8 22.2,22.8 C21.3,22.7 20.2,22.5 19,22.2 C17.9,21.9 16.8,21.5 16,21.1 C15.2,20.7 14.7,20.5 14.7,20.5 C14.7,20.5 15.3,20.6 16.1,20.8 C17,21 18.1,21.3 19.2,21.6 C20.3,21.9 21.4,22.2 22.3,22.5 C23.1,22.7 23.7,22.8 23.7,22.8 Z" id="Shape" fill="#30231D"/>
              <g transform="translate(16.000000, 22.000000)" fill="#30231D">
                <ellipse id="Oval" transform="translate(3.876452, 3.308487) rotate(-89.682219) translate(-3.876452, -3.308487) " cx="3.876452" cy="3.30848732" rx="2.40003691" ry="1.00001538"/>
                <path d="M6.1,1.8 C6.1,1.8 5.7,1.6 5.2,1.4 C4.6,1.2 3.9,1 3.1,1.1 C2.7,1.1 2.4,1.3 2,1.4 C1.8,1.5 1.7,1.6 1.5,1.6 C1.4,1.7 1.2,1.8 1.1,1.9 C0.8,2 0.6,2.2 0.5,2.3 C0.3,2.4 0.3,2.5 0.3,2.5 C0.3,2.5 0.3,2.4 0.5,2.2 C0.6,2.1 0.7,1.8 1,1.6 C1.2,1.3 1.5,1.1 1.9,0.9 C2.1,0.8 2.3,0.7 2.5,0.6 C2.7,0.6 2.9,0.5 3.2,0.5 C3.4,0.5 3.7,0.5 3.9,0.5 C4.1,0.5 4.3,0.6 4.5,0.6 C4.9,0.7 5.3,0.9 5.5,1.1 C5.9,1.5 6.1,1.8 6.1,1.8 Z" id="Shape"/>
              </g>
              <g transform="translate(29.000000, 22.000000)" fill="#30231D">
                <ellipse id="Oval" transform="translate(2.999618, 2.804269) rotate(-89.682219) translate(-2.999618, -2.804269) " cx="2.99961787" cy="2.80426877" rx="2.40003691" ry="1.00001538"/>
                <path d="M5.3,1.6 C5.3,1.6 5,1.4 4.5,1.2 C4.3,1.1 4,1 3.6,0.9 C3.3,0.8 3,0.8 2.6,0.9 C2.3,0.9 1.9,1 1.6,1.2 C1.5,1.3 1.3,1.3 1.2,1.4 C1.1,1.5 0.9,1.6 0.8,1.6 C0.6,1.7 0.4,1.9 0.2,2 C0.1,2.1 -1.42108547e-14,2.1 -1.42108547e-14,2.1 C-1.42108547e-14,2.1 -1.42108547e-14,2 0.1,1.9 C0.2,1.8 0.3,1.5 0.5,1.3 C0.7,1.1 1,0.8 1.3,0.6 C1.5,0.5 1.6,0.4 1.8,0.3 C2,0.2 2.2,0.2 2.4,0.2 C2.8,0.2 3.2,0.2 3.6,0.3 C4,0.4 4.3,0.6 4.5,0.8 C5.1,1.2 5.3,1.6 5.3,1.6 Z" id="Shape"/>
              </g>
              <path d="M35.1,20.6 C35.1,20.6 35,20.7 34.9,20.8 C34.7,20.9 34.5,21.1 34.2,21.3 C33.6,21.6 32.8,22 31.9,22.3 C31,22.6 30.1,22.7 29.5,22.8 C28.8,22.9 28.4,22.9 28.4,22.9 C28.4,22.9 28.8,22.7 29.5,22.5 C30.1,22.3 31,22 31.8,21.7 C32.7,21.5 33.5,21.2 34.1,21 C34.7,20.7 35.1,20.6 35.1,20.6 Z" id="Shape" fill="#30231D"/>
            </g>
            <g id="Shape">
              <path d="M41.1,20.6 C41.1,20.6 39.7,7.6 28.1,12.7 C28.1,12.7 12,5.2 13.4,28.5 C13.4,28.5 6,26.2 7.7,38.8 C7.7,38.8 -2.2,31.7 0.6,17.7 C3.2,5.2 13.1,-0.7 21.1,1.5 C21.1,1.5 26.2,-0.2 32.1,2 C37.4,4 41.9,9.5 41.1,20.6 Z" fill="#30231D"/>
              <path d="M28.6,14.7 C28.6,14.7 28.4,14.1 28.1,13.2 C27.8,12.3 27.4,11.1 26.9,9.9 C26.4,8.7 25.8,7.6 25.3,6.8 C25.1,6.4 24.9,6 24.7,5.8 C24.5,5.6 24.5,5.4 24.5,5.4 C24.5,5.4 24.6,5.5 24.8,5.7 C25,5.9 25.3,6.2 25.6,6.6 C25.9,7 26.3,7.4 26.6,8 C26.9,8.5 27.2,9.1 27.5,9.7 C28,10.9 28.3,12.2 28.5,13.1 C28.6,14.1 28.6,14.7 28.6,14.7 Z" fill="#875137"/>
              <path d="M26.9,9.9 C26.9,9.9 26.5,9.6 25.8,9.3 C25.5,9.2 25.1,9 24.7,8.9 C24.3,8.8 23.8,8.7 23.4,8.7 C22.9,8.7 22.5,8.7 22.1,8.7 C21.7,8.8 21.3,8.8 20.9,8.9 C20.5,9 20.3,9.1 20.1,9.1 C19.9,9.2 19.8,9.2 19.8,9.2 C19.8,9.2 19.9,9.1 20.1,9 C20.3,8.9 20.5,8.7 20.9,8.5 C21.2,8.3 21.6,8.2 22.1,8.1 C22.3,8.1 22.6,8 22.8,8 C23.1,8 23.3,8 23.6,8 C24.1,8 24.6,8.1 25.1,8.3 C25.5,8.5 25.9,8.7 26.2,8.9 C26.7,9.5 26.9,9.9 26.9,9.9 Z" fill="#120D0B"/>
              <path d="M25.6,7.2 C25.6,7.2 25.4,7.1 25.1,7.1 C24.8,7 24.4,6.9 24,6.9 C23.6,6.8 23.2,6.8 22.9,6.8 C22.6,6.8 22.3,6.8 22.3,6.8 C22.3,6.8 22.5,6.6 22.8,6.5 C23,6.4 23.2,6.4 23.4,6.3 C23.6,6.3 23.9,6.3 24.1,6.3 C24.6,6.4 25,6.6 25.3,6.9 C25.5,7 25.6,7.2 25.6,7.2 Z" fill="#120D0B"/>
              <path d="M23.3,3 C23.3,3 22.6,2.5 21.5,2 C21.2,1.9 20.9,1.8 20.6,1.7 C20.3,1.6 19.9,1.5 19.5,1.5 C19.1,1.4 18.7,1.4 18.3,1.4 C17.9,1.4 17.5,1.4 17.1,1.4 C16.7,1.4 16.3,1.4 15.9,1.5 C15.5,1.6 15.1,1.6 14.7,1.7 C14.3,1.8 14,1.9 13.6,2 C13.3,2.1 12.9,2.2 12.6,2.3 C12,2.5 11.5,2.7 11.2,2.8 C10.9,2.9 10.7,3 10.7,3 C10.7,3 10.9,2.9 11.2,2.7 C11.5,2.5 12,2.2 12.5,1.9 C12.8,1.8 13.1,1.6 13.4,1.5 C13.7,1.4 14.1,1.3 14.5,1.1 C14.9,1 15.3,0.9 15.7,0.8 C16.1,0.7 16.6,0.7 17,0.7 C17.4,0.7 17.9,0.7 18.3,0.7 C18.7,0.8 19.1,0.8 19.5,0.9 C19.9,1 20.3,1.1 20.6,1.3 C21,1.4 21.3,1.6 21.6,1.7 C22.7,2.4 23.3,3 23.3,3 Z" fill="#120D0B"/>
              <path d="M7.8,38.8 C7.8,38.8 6.8,38.2 5.5,37 C5.2,36.7 4.9,36.3 4.5,36 C4.2,35.6 3.8,35.2 3.5,34.7 C3.2,34.2 2.9,33.8 2.6,33.3 C2.3,32.8 2,32.3 1.8,31.7 C1.5,31.2 1.4,30.6 1.2,30.1 C1,29.5 0.9,29 0.7,28.5 C0.6,28 0.5,27.4 0.4,26.9 C0.3,26.4 0.3,25.9 0.2,25.5 C0.2,25.1 0.1,24.7 0.1,24.3 C0.1,23.9 0.1,23.6 0.1,23.4 C0.1,22.9 0.1,22.6 0.1,22.6 C0.1,22.6 0.1,22.9 0.2,23.4 C0.2,23.7 0.3,24 0.3,24.3 C0.3,24.7 0.4,25 0.5,25.5 C0.6,25.9 0.6,26.4 0.8,26.9 C0.9,27.4 1.1,27.9 1.2,28.4 C1.4,28.9 1.5,29.4 1.7,30 C1.9,30.5 2.1,31.1 2.4,31.6 C2.6,32.1 2.9,32.7 3.2,33.1 C3.5,33.6 3.8,34.1 4,34.5 C4.6,35.4 5.2,36.2 5.7,36.9 C6.9,38.1 7.8,38.8 7.8,38.8 Z" fill="#120D0B"/>
              <path d="M30.9,3.9 C30.9,3.9 30.4,3.8 29.8,3.7 C29.1,3.6 28.2,3.5 27.4,3.5 C27,3.5 26.5,3.5 26.1,3.6 C25.9,3.6 25.7,3.7 25.5,3.7 C25.3,3.8 25.2,3.8 25,3.9 C24.9,4 24.7,4 24.6,4.1 C24.5,4.2 24.4,4.2 24.3,4.3 C24.1,4.4 24,4.5 24,4.5 C24,4.5 24.1,4.4 24.2,4.2 C24.3,4.1 24.3,4 24.4,3.9 C24.5,3.8 24.6,3.7 24.8,3.6 C25.1,3.4 25.5,3.2 25.9,3.1 C26.1,3.1 26.4,3 26.6,3 C26.8,3 27.1,3 27.3,3 C28.3,3 29.2,3.3 29.8,3.5 C30.5,3.6 30.9,3.9 30.9,3.9 Z" fill="#120D0B"/>
              <path d="M34.1,6.9 C34.1,6.9 33.5,6.6 32.7,6.3 C32.3,6.1 31.8,6 31.3,5.8 C30.8,5.6 30.2,5.5 29.6,5.4 C29.3,5.3 29,5.3 28.8,5.3 C28.5,5.3 28.2,5.3 28,5.3 C27.7,5.3 27.5,5.4 27.2,5.4 C27,5.5 26.7,5.5 26.5,5.6 C26.3,5.7 26.1,5.8 26,5.9 C25.8,6 25.7,6.1 25.6,6.2 C25.4,6.4 25.3,6.4 25.3,6.4 C25.3,6.4 25.4,6.3 25.6,6.1 C25.7,6 25.8,5.9 25.9,5.7 C26,5.6 26.2,5.4 26.4,5.3 C26.6,5.2 26.8,5.1 27.1,5 C27.4,4.9 27.6,4.9 27.9,4.8 C28.2,4.8 28.5,4.7 28.8,4.8 C29.1,4.8 29.4,4.8 29.7,4.9 C30.9,5.1 32.1,5.7 32.8,6.2 C33.7,6.5 34.1,6.9 34.1,6.9 Z" fill="#120D0B"/>
              <path d="M14.9,10.9 C14.9,10.9 14.7,11.2 14.5,11.5 C14.2,11.9 13.9,12.3 13.5,12.8 C13.1,13.2 12.7,13.7 12.4,14 C12.2,14.2 12.1,14.3 12,14.4 C11.9,14.5 11.8,14.5 11.8,14.5 C11.8,14.5 11.9,14.2 12.1,13.8 C12.3,13.4 12.6,12.9 13,12.4 C13.4,11.9 13.9,11.5 14.3,11.3 C14.6,11 14.9,10.9 14.9,10.9 Z" fill="#452F26"/>
              <path d="M13.1,11.2 C13.1,11.2 13,11.3 12.9,11.5 C12.8,11.7 12.6,11.9 12.5,12 C12.3,12.2 12.1,12.3 12,12.4 C11.8,12.5 11.7,12.6 11.7,12.6 C11.7,12.6 11.7,12.4 11.7,12.2 C11.7,12 11.9,11.7 12.1,11.5 C12.3,11.3 12.6,11.2 12.8,11.1 C12.9,11.2 13.1,11.2 13.1,11.2 Z" fill="#452F26"/>
              <path d="M12.5,9.4 C12.5,9.4 12.3,9.8 11.9,10.3 C11.5,10.8 11,11.5 10.4,12.1 C9.9,12.7 9.3,13.4 8.9,13.8 C8.7,14 8.5,14.2 8.4,14.4 C8.3,14.5 8.2,14.6 8.2,14.6 C8.2,14.6 8.3,14.2 8.6,13.6 C8.9,13 9.4,12.3 9.9,11.6 C10.5,10.9 11.1,10.4 11.6,10 C12.1,9.7 12.5,9.4 12.5,9.4 Z" fill="#452F26"/>
              <path d="M9.5,10.8 C9.5,10.8 9.5,11 9.4,11.2 C9.3,11.4 9.2,11.7 9.1,11.9 C8.9,12.1 8.7,12.3 8.5,12.5 C8.3,12.6 8.1,12.7 8.1,12.7 C8.1,12.7 8.1,12.5 8.2,12.3 C8.3,12.1 8.4,11.8 8.5,11.6 C8.7,11.4 8.9,11.2 9.1,11 C9.4,10.8 9.5,10.8 9.5,10.8 Z" fill="#452F26"/>
              <path d="M9.7,9.5 C9.7,9.5 9.6,9.7 9.5,10 C9.3,10.3 9.1,10.6 8.8,10.9 C8.5,11.2 8.2,11.5 8,11.7 C7.8,11.9 7.6,12 7.6,12 C7.6,12 7.6,11.8 7.7,11.5 C7.8,11.2 8,10.8 8.3,10.5 C8.6,10.2 8.9,9.9 9.2,9.8 C9.5,9.6 9.7,9.5 9.7,9.5 Z" fill="#452F26"/>
              <path d="M9.9,7 C9.9,7 9.6,7.3 9.1,7.7 C8.7,8.1 8.1,8.7 7.6,9.3 C7.3,9.6 7.1,9.9 6.8,10.2 C6.6,10.5 6.3,10.8 6.1,11 C5.9,11.2 5.7,11.4 5.6,11.6 C5.5,11.7 5.4,11.8 5.4,11.8 C5.4,11.8 5.5,11.4 5.8,10.8 C6.1,10.2 6.5,9.5 7.1,8.8 C7.7,8.1 8.3,7.6 8.9,7.3 C9.5,7.1 9.9,7 9.9,7 Z" fill="#452F26"/>
              <path d="M36,10.5 C36,10.5 35.7,10.5 35.4,10.4 C35,10.3 34.5,10.2 34.1,10 C33.6,9.8 33.2,9.6 32.9,9.5 C32.7,9.4 32.6,9.3 32.5,9.3 C32.4,9.3 32.3,9.2 32.3,9.2 C32.3,9.2 32.6,9.1 33,9.1 C33.4,9.1 33.9,9.2 34.4,9.4 C34.9,9.6 35.3,9.8 35.6,10.1 C35.8,10.3 36,10.5 36,10.5 Z" fill="#452F26"/>
              <path d="M35.7,8.8 C35.7,8.8 35.5,8.8 35.3,8.8 C35.1,8.8 34.8,8.8 34.6,8.7 C34.1,8.6 33.7,8.2 33.7,8.2 C33.7,8.2 33.8,8.1 34.1,8 C34.3,7.9 34.6,8 34.9,8 C35.2,8.1 35.4,8.2 35.6,8.4 C35.6,8.7 35.7,8.8 35.7,8.8 Z" fill="#452F26"/>
              <path d="M35.8,6.5 C35.8,6.5 35.5,6.4 35.1,6.3 C34.7,6.2 34.2,5.9 33.7,5.7 C33.2,5.5 32.7,5.2 32.4,5.1 C32.2,5 32.1,4.9 31.9,4.9 C31.8,4.9 31.7,4.8 31.7,4.8 C31.7,4.8 32,4.7 32.4,4.7 C32.8,4.7 33.4,4.9 33.9,5.1 C34.4,5.3 34.9,5.7 35.2,6 C35.6,6.3 35.8,6.5 35.8,6.5 Z" fill="#452F26"/>
            </g>
            <g transform="translate(3.000000, 24.000000)" id="Shape">
              <path d="M8.9,4.3 C8.9,4.3 6.7,-1.9 2.5,0.7 C-1.7,3.3 -0.3,10.8 4.7,12.4" fill="#875137"/>
              <path d="M2.5,3.3 C2.5,3.3 2.6,3.2 2.7,3 C2.9,2.9 3.1,2.6 3.5,2.5 C3.7,2.4 3.9,2.4 4.2,2.5 C4.3,2.5 4.4,2.6 4.6,2.6 C4.7,2.7 4.8,2.7 4.9,2.8 C5.1,3 5.3,3.1 5.5,3.4 C5.6,3.6 5.8,3.8 5.9,4.1 C6,4.3 6.1,4.6 6.2,4.8 C6.3,5 6.3,5.3 6.4,5.5 C6.5,6 6.6,6.4 6.6,6.8 C6.7,7.6 6.6,8.1 6.6,8.1 C6.6,8.1 6.4,7.6 6.2,6.9 C6.1,6.5 5.9,6.1 5.8,5.7 C5.7,5.5 5.6,5.3 5.5,5 C5.4,4.8 5.3,4.6 5.2,4.4 C5.1,4.2 5,4 4.9,3.8 C4.8,3.6 4.6,3.5 4.5,3.3 L4.3,3.1 C4.2,3.1 4.1,3 4.1,3 C3.9,3 3.8,2.9 3.6,2.9 C3.3,2.9 3,3 2.8,3.1 C2.6,3.2 2.5,3.3 2.5,3.3 Z" fill="#613A27"/>
              <path d="M5.9,4.9 C5.9,4.9 5.6,5 5.3,5.2 C5,5.4 4.6,5.6 4.2,6 C4,6.2 3.9,6.4 3.7,6.5 C3.6,6.7 3.4,6.9 3.3,7 C3.2,7.2 3.1,7.3 3,7.4 C2.9,7.5 2.9,7.6 2.9,7.6 C2.9,7.6 2.9,7.5 2.9,7.4 C2.9,7.3 2.9,7.1 2.9,6.9 C3,6.5 3.2,5.9 3.6,5.5 C3.8,5.3 4,5.1 4.3,5 C4.5,4.9 4.8,4.8 5,4.8 C5.7,4.8 5.9,4.9 5.9,4.9 Z" fill="#613A27"/>
            </g>
            <g transform="translate(10.000000, 18.000000)" id="Shape">
              <path d="M3.5,1 C3.5,1 2,9.2 5.2,10.9 C8.4,12.6 8.4,15.5 6.9,16.2 C6.9,16.2 8.1,14.6 6.8,13.6 C6.8,13.6 7.4,15.8 4.3,16.7 C1.2,17.6 4.1,21.9 6.9,20 C6.9,20 6.3,21.2 5.1,21.2 C5.1,21.2 8.1,20.9 8.4,22.7 C8.7,24.4 6.9,27.4 2.1,24.8 C2.1,24.8 4.4,25.3 5.3,24.6 C5.3,24.6 4.2,24.8 3.8,24.3 C3.8,24.3 8.9,24 7,22.7 C5.1,21.3 -0.5,22.5 0.6,19.1 C1.7,15.7 6,16.1 5.5,14.5 C4.9,12.8 1.8,12.3 1.8,9.5 C1.8,9.5 0.7,12.4 4.2,13.9 C4.2,13.9 0.1,14.1 1,8.7 C1.9,3.1 3.5,1 3.5,1 Z" fill="#30231D"/>
              <path d="M1.8,9.4 C1.8,9.4 1.8,9.6 1.9,9.8 C2,10.1 2.1,10.4 2.4,10.8 C2.7,11.2 3,11.6 3.4,11.9 C3.6,12.1 3.9,12.2 4.1,12.4 L4.5,12.6 L4.9,12.9 C5.1,13.1 5.4,13.4 5.6,13.7 C5.8,14 5.8,14.5 5.7,14.8 C5.6,15.1 5.3,15.4 5.1,15.5 C4.9,15.7 4.6,15.8 4.4,15.9 C4,16.1 3.6,16.2 3.3,16.2 C3,16.2 2.9,16.2 2.9,16.2 C2.9,16.2 3.5,16 4.3,15.5 C4.7,15.2 5.1,14.9 5.2,14.5 C5.3,14.3 5.2,14.1 5.1,13.9 C5,13.7 4.8,13.5 4.6,13.3 L4.2,13 L3.8,12.7 C3.5,12.5 3.3,12.3 3.1,12.1 C2.7,11.7 2.3,11.2 2.1,10.7 C1.9,10.3 1.8,9.8 1.8,9.6 C1.8,9.5 1.8,9.4 1.8,9.4 Z" fill="#120D0B"/>
              <path d="M4.7,21.9 C4.7,21.9 4.3,22 3.8,22 C3.2,22 2.4,22 1.7,21.6 C1.3,21.4 1,21.2 0.7,20.9 C0.4,20.6 0.3,20.2 0.4,19.9 C0.4,19.7 0.4,19.6 0.5,19.5 C0.5,19.4 0.6,19.3 0.6,19.2 C0.7,19 0.7,19 0.7,19 C0.7,19 0.7,19.1 0.7,19.3 C0.7,19.4 0.7,19.5 0.7,19.6 C0.7,19.7 0.8,19.8 0.8,19.9 C0.8,20 0.9,20.1 0.9,20.3 C1,20.4 1.1,20.5 1.2,20.6 C1.4,20.8 1.7,21 2,21.1 C2.6,21.4 3.3,21.6 3.9,21.7 C4.3,21.8 4.7,21.9 4.7,21.9 Z" fill="#120D0B"/>
              <path d="M5.2,10.9 C5.2,10.9 5,10.9 4.7,10.7 C4.6,10.6 4.4,10.5 4.3,10.3 C4.1,10.1 4,9.9 3.8,9.7 C3.7,9.5 3.5,9.2 3.4,8.9 C3.3,8.6 3.2,8.3 3.1,7.9 C3.1,7.6 3,7.2 3,6.9 C3,6.5 3,6.2 3,5.8 C3,5.1 3.1,4.4 3.2,3.7 C3.2,3.4 3.3,3.1 3.4,2.8 C3.5,2.5 3.5,2.2 3.6,2 C3.9,1 4.2,0.3 4.2,0.3 C4.2,0.3 4.2,1 4.1,2 C4.1,2.5 4,3.1 3.9,3.8 C3.8,4.4 3.8,5.1 3.8,5.8 C3.8,6.5 3.8,7.2 3.9,7.8 C4,8.1 4,8.4 4.1,8.7 C4.2,9 4.2,9.2 4.3,9.5 C4.4,9.7 4.5,9.9 4.6,10.1 C4.7,10.3 4.8,10.4 4.9,10.5 C5,10.8 5.2,10.9 5.2,10.9 Z" fill="#120D0B"/>
            </g>
          </g>
        </g>
        <g id="Group" transform="translate(10.000000, 68.000000)" fill-rule="nonzero">
          <g id="Shape">
            <g>
              <path d="M29.9,18.4 C33.2,15.1 45.8,0.2 32.9,1.2 C20.6,2.2 -5.4,33.1 1.5,35.4 C8.4,37.7 22.4,25.8 29.9,18.4 Z" fill="#52B6CC"/>
              <path d="M34.6,12.9 C34.6,12.9 33.7,14.1 32.3,15.8 C31.6,16.6 30.7,17.6 29.8,18.7 C28.8,19.7 27.8,20.8 26.7,21.8 C25.6,22.8 24.5,23.8 23.4,24.7 C22.3,25.6 21.3,26.4 20.4,27.1 C19.5,27.8 18.7,28.3 18.2,28.7 C17.7,29.1 17.3,29.3 17.3,29.3 C17.3,29.3 17.6,29.1 18.1,28.6 C18.6,28.2 19.3,27.6 20.2,26.9 C21.1,26.2 22,25.3 23,24.4 C24,23.5 25.1,22.5 26.2,21.4 C27.3,20.4 28.3,19.3 29.3,18.4 C30.3,17.4 31.2,16.5 32,15.7 C33.6,13.9 34.6,12.9 34.6,12.9 Z" fill="#2E83BF"/>
              <path d="M37.9,2.3 C37.9,2.3 37.8,2.2 37.6,2 C37.4,1.8 37,1.6 36.5,1.4 C36,1.2 35.4,1.1 34.7,1.1 C34.3,1 34,1.1 33.6,1.2 C33.2,1.2 32.8,1.3 32.3,1.4 C31.4,1.5 30.5,1.9 29.6,2.3 C29.1,2.5 28.7,2.8 28.2,3 C28,3.1 27.7,3.2 27.5,3.4 C27.3,3.5 27,3.7 26.8,3.8 C25.8,4.4 24.8,5 23.9,5.7 C23.4,6 22.9,6.4 22.5,6.7 C22,7.1 21.6,7.5 21.1,7.8 C20.2,8.6 19.2,9.3 18.4,10.1 C17.5,10.9 16.7,11.7 15.9,12.4 C15.1,13.2 14.3,14 13.6,14.7 C12.9,15.4 12.2,16.1 11.6,16.8 C9.2,19.4 7.5,21.2 7.5,21.2 C7.5,21.2 9,19.3 11.4,16.6 C12,15.9 12.7,15.2 13.4,14.5 C14.1,13.7 14.8,12.9 15.6,12.1 C16.4,11.3 17.3,10.5 18.1,9.7 C18.9,8.9 19.9,8.1 20.8,7.3 C21.3,6.9 21.7,6.5 22.2,6.2 C22.7,5.9 23.2,5.5 23.7,5.2 C24.7,4.5 25.7,3.9 26.7,3.3 C26.9,3.2 27.2,3 27.4,2.9 C27.7,2.8 27.9,2.7 28.2,2.6 C28.7,2.4 29.2,2.2 29.7,1.9 C30.7,1.6 31.6,1.2 32.5,1.1 C32.9,1 33.4,0.9 33.8,0.9 C34.2,0.9 34.6,0.8 35,0.9 C35.7,1 36.4,1.1 36.9,1.3 C37.4,1.5 37.7,1.8 37.9,1.9 C37.8,2.1 37.9,2.3 37.9,2.3 Z" fill="#2E83BF"/>
            </g>
            <g transform="translate(10.000000, 0.000000)">
              <g>
                <path d="M29.2,4.3 C28,1.2 25.6,-0.8 18.2,1 C10.8,2.8 10,4.6 3.4,8 C-0.1,9.9 -0.2,18.1 6.2,23.2 C12.6,28.3 17.8,28.7 21.4,22.7 C25,16.7 30.7,8.5 29.2,4.3 Z" fill="#6FCED9"/>
                <path d="M27.6,12.2 C27.6,12.2 26.9,13.9 25.6,16.3 C25,17.5 24.2,18.9 23.3,20.4 C22.4,21.9 21.4,23.4 20.2,24.8 C19.6,25.5 18.9,26.2 18.1,26.7 C18,26.8 17.9,26.8 17.8,26.9 L17.5,27 C17.3,27.1 17.1,27.2 16.9,27.2 L16.2,27.4 C16,27.4 15.7,27.4 15.5,27.4 C14.6,27.4 13.8,27.3 13,27 C12.2,26.8 11.5,26.5 10.9,26.2 C9.6,25.6 8.7,25 8,24.5 C7.3,24 7,23.8 7,23.8 C7,23.8 7.4,24 8.1,24.4 C8.8,24.8 9.8,25.3 11.1,25.8 C12.3,26.3 13.9,26.8 15.5,26.7 L16.1,26.7 L16.7,26.6 C16.9,26.6 17.1,26.4 17.3,26.4 L17.6,26.3 C17.6,26.3 17.8,26.2 17.8,26.1 C18.5,25.6 19.1,25 19.7,24.3 C20.9,23 21.9,21.5 22.8,20 C23.7,18.6 24.6,17.2 25.3,16 C26.7,13.8 27.6,12.2 27.6,12.2 Z" fill="#3FADC4"/>
                <path d="M28.5,3.1 C28.5,3.1 28.3,2.5 27.6,1.9 C27.2,1.6 26.7,1.2 26.1,1 C25.5,0.7 24.7,0.5 23.9,0.5 C23.1,0.4 22.2,0.5 21.2,0.6 C20.3,0.7 19.2,0.9 18.2,1.2 C16.2,1.7 14,2.5 12,3.5 C11,4 10,4.5 9.1,5.1 C8.6,5.4 8.2,5.7 7.7,6 C7.2,6.3 6.7,6.6 6.2,6.8 C5.2,7.2 4.3,7.7 3.6,8.3 C2.8,8.9 2.2,9.6 1.8,10.3 C1,11.8 0.9,13.2 1,14.2 C1,14.7 1.1,15.1 1.1,15.3 C1.1,15.6 1.2,15.7 1.2,15.7 C1.2,15.7 1.2,15.6 1.1,15.3 C1,15 0.9,14.7 0.9,14.2 C0.8,13.7 0.8,13.1 0.9,12.4 C1,11.7 1.1,10.9 1.6,10.1 C2,9.3 2.6,8.6 3.4,7.9 C4.2,7.3 5.1,6.7 6.1,6.3 C7.1,5.9 7.9,5.3 8.9,4.7 C9.9,4.1 10.8,3.5 11.9,3 C14,2 16.1,1.2 18.2,0.7 C19.2,0.4 20.3,0.3 21.2,0.2 C22.2,0.1 23.1,0.1 24,0.2 C24.9,0.3 25.6,0.5 26.3,0.9 C26.9,1.2 27.4,1.6 27.8,2 C28.2,2.4 28.4,2.7 28.5,2.9 C28.4,3 28.5,3.1 28.5,3.1 Z" fill="#3FADC4"/>
              </g>
              <path d="M2.4,19.3 C2.4,19.3 1.8,14 8.4,9.8 C12,7.5 14.3,5.3 14.3,5.3 C14.3,5.3 8.6,8.1 5.4,9.7 C2.2,11.3 1.2,15.2 2.4,19.3 Z" fill="#52B6CC"/>
              <path d="M9.8,25.5 C9.8,25.5 14.3,27.5 17.8,23.5 C21.3,19.5 23.5,14.1 23.5,14.1 C23.5,14.1 16.5,25.9 9.8,25.5 Z" fill="#52B6CC"/>
              <path d="M4,21.7 C4,21.7 3.3,17 8.4,13.2 C12.2,10.4 16.6,9 16.6,9 C16.6,9 9,14.6 4,21.7 Z" fill="#52B6CC"/>
              <path d="M20.9,12.4 C20.9,12.4 10.2,23.3 6.8,23.8 C6.8,23.8 11.3,29 20.9,12.4 Z" fill="#52B6CC"/>
            </g>
          </g>
          <g transform="translate(9.000000, 65.000000)" id="Shape">
            <path d="M5.7,0.7 C5.7,0.7 9.7,3.2 11.8,8.8 C12.5,10.7 13,11.7 11.3,12.1 C11.3,12.1 11.6,14.3 9.3,14 C9.3,14 8.4,15.9 6.5,15.6 C6.5,15.6 5.2,17.3 2.9,15.8 C1.6,15 0.4,12.4 1.4,10.9 C0.3,8.4 1.5,3.4 1.8,1.9" fill="#875137"/>
            <path d="M6.4,1.3 C6.4,1.3 9.4,3.8 11.6,5.7 C13.3,7.2 13.4,9.3 10.9,8.4" fill="#875137"/>
            <path d="M1.1,6.5 C1.1,6.5 1.2,7 1.3,7.8 C1.4,8.2 1.4,8.6 1.5,9.1 C1.6,9.6 1.7,10.1 1.8,10.6 C1.9,11.1 2.1,11.6 2.3,12 C2.4,12.2 2.5,12.4 2.6,12.6 C2.7,12.8 2.8,13 2.9,13.1 C3,13.2 3.1,13.4 3.2,13.5 C3.3,13.6 3.4,13.7 3.5,13.8 C3.7,14 3.7,14.1 3.7,14.1 C3.7,14.1 3.6,14 3.4,13.9 C3.3,13.8 3.2,13.8 3,13.7 C2.9,13.6 2.7,13.5 2.6,13.3 C2.3,13 2,12.6 1.8,12.2 C1.6,11.7 1.4,11.2 1.2,10.7 C0.9,9.7 0.9,8.6 0.9,7.8 C1,7 1.1,6.5 1.1,6.5 Z" fill="#613A27"/>
            <path d="M6.3,13.2 C6.3,13.2 6.4,13.4 6.6,13.7 C6.7,14 6.8,14.4 6.8,14.9 C6.8,15.1 6.7,15.4 6.7,15.6 C6.6,15.8 6.5,16 6.3,16.1 C6,16.3 5.8,16.3 5.8,16.3 C5.8,16.3 5.8,16.2 5.9,16.2 C6,16.1 6,16 6.1,15.9 C6.2,15.6 6.2,15.3 6.3,14.9 C6.3,14.5 6.3,14.1 6.4,13.8 C6.2,13.4 6.3,13.2 6.3,13.2 Z" fill="#613A27"/>
            <path d="M9,11.9 C9,11.9 9.2,12.1 9.3,12.4 C9.5,12.7 9.6,13.1 9.6,13.6 C9.6,14.1 9.4,14.5 9.1,14.8 C9,14.9 8.8,15 8.7,15 C8.6,15 8.6,15.1 8.6,15.1 C8.6,15.1 8.6,15 8.7,15 C8.8,14.9 8.8,14.8 8.8,14.7 C8.8,14.6 8.9,14.4 8.9,14.2 C8.9,14 8.9,13.8 8.9,13.6 C8.9,13.2 8.9,12.8 8.9,12.5 C8.9,12.1 9,11.9 9,11.9 Z" fill="#613A27"/>
            <path d="M10.9,10.2 C10.9,10.2 11.1,10.4 11.2,10.7 C11.4,11 11.5,11.4 11.6,11.9 C11.7,12.3 11.6,12.8 11.5,13.2 C11.4,13.4 11.3,13.5 11.2,13.6 C11.1,13.7 11.1,13.7 11.1,13.7 L11.1,13.6 C11.1,13.5 11.1,13.4 11.1,13.2 C11.1,12.9 11,12.5 11,12.1 C10.9,11.7 10.9,11.3 10.9,10.9 C10.9,10.4 10.9,10.2 10.9,10.2 Z" fill="#613A27"/>
            <path d="M2.5,12.5 C2.5,12.5 2.6,12.6 2.6,12.8 C2.6,13 2.6,13.2 2.6,13.3 C2.6,13.5 2.5,13.7 2.4,13.8 C2.3,13.9 2.2,14 2.2,14 C2.2,14 2.1,13.9 2,13.7 C1.9,13.5 1.9,13.3 1.9,13.1 C1.9,12.9 2,12.7 2.2,12.6 C2.4,12.6 2.5,12.5 2.5,12.5 Z" fill="#613A27"/>
            <path d="M12.4,10.6 C12.4,10.6 12.2,10.2 12,9.7 C11.7,9.2 11.4,8.5 11,7.8 C10.6,7.1 10.3,6.4 10,5.9 C9.8,5.4 9.6,5 9.6,5 C9.6,5 9.9,5.3 10.3,5.7 C10.7,6.2 11.1,6.8 11.5,7.5 C11.9,8.2 12.2,8.9 12.3,9.5 C12.4,9.8 12.4,10 12.4,10.2 C12.4,10.5 12.4,10.6 12.4,10.6 Z" fill="#613A27"/>
          </g>
          <g transform="translate(0.000000, 28.000000)" id="Shape">
            <g>
              <path d="M7.8,1.8 C10.7,6 12.2,17.3 13,25 C13.5,30 15.5,38.2 15.5,38.2 C14.4,40.2 11.9,40.7 10,40.3 C10,40.3 8.5,36.5 5.6,29 C2.5,21 -0.8,6.5 0.7,3.6 C2.4,0.2 6.4,-0.3 7.8,1.8 Z" fill="#52B6CC"/>
              <path d="M9.3,4.8 C9.3,4.8 9.8,6.3 10.4,8.5 C10.7,9.6 11,10.9 11.3,12.4 C11.6,13.8 11.9,15.4 12.1,16.9 C12.3,18.4 12.5,20 12.7,21.4 C12.9,22.8 13,24.2 13.1,25.4 C13.2,26.6 13.2,27.5 13.3,28.2 C13.3,28.9 13.3,29.3 13.3,29.3 C13.3,29.3 13.2,28.9 13.1,28.2 C13,27.5 12.9,26.6 12.7,25.4 C12.5,24.3 12.3,22.9 12.1,21.5 C11.9,20.1 11.7,18.5 11.4,17 C11.2,15.5 10.9,13.9 10.7,12.5 C10.4,11.1 10.2,9.7 10,8.6 C9.6,6.3 9.3,4.8 9.3,4.8 Z" fill="#2E83BF"/>
            </g>
            <path d="M9.9,39.9 C9.9,39.9 9.7,39.5 9.3,38.6 C8.9,37.8 8.3,36.6 7.7,35.2 C7.1,33.8 6.4,32.1 5.7,30.3 C5,28.5 4.4,26.6 3.8,24.6 C3.2,22.6 2.7,20.7 2.2,18.8 C2,17.9 1.8,17 1.6,16.1 C1.4,15.2 1.3,14.4 1.1,13.7 C0.8,12.2 0.7,10.9 0.6,10 C0.5,9.1 0.4,8.6 0.4,8.6 C0.4,8.6 0.5,9.1 0.7,10 C0.8,10.4 0.9,11 1,11.6 C1.1,12.2 1.3,12.9 1.5,13.6 C1.8,15.1 2.3,16.8 2.7,18.7 C3.2,20.6 3.7,22.5 4.4,24.5 C5,26.5 5.6,28.4 6.3,30.2 C6.9,32 7.5,33.7 8.1,35.1 C9.1,38 9.9,39.9 9.9,39.9 Z" fill="#2E83BF"/>
          </g>
        </g>
        <g id="Group" transform="translate(68.000000, 48.000000)" fill-rule="nonzero">
          <path d="M1.2,3.8 C-0.6,3.5 0.1,0.3 4.9,0.5 C9.7,0.7 9.6,4.6 6.8,3.8 C4.4,3.2 2.5,4 1.2,3.8 Z" id="Shape" fill="#872A2A"/>
          <path d="M1.9,1 C-0.1,1.8 -0.1,3.6 1.2,3.8 C2.5,4 4.4,3.1 6.8,3.8 L6.9,3.8 C5.4,2 2.6,1.2 1.9,1 Z" id="Shape" fill="#B34B4B"/>
          <path d="M7.2,1.1 C6.6,0.8 5.9,0.6 4.9,0.6 C3.5,0.5 2.4,0.8 1.7,1.1 C3.1,1.3 5.5,1.5 7.2,1.1 Z" id="Shape" fill="#FFFFFF"/>
          <path d="M0.5,3.5 C0.5,3.5 0.4,3.4 0.2,3 C0.1,2.8 0.1,2.6 0.1,2.4 C0.1,2.2 0.3,1.9 0.5,1.7 C0.8,1.2 1.4,0.8 2.1,0.6 C2.8,0.4 3.6,0.3 4.3,0.3 C5.1,0.3 5.8,0.4 6.5,0.6 C7.2,0.8 7.8,1.2 8.2,1.7 C8.4,1.9 8.5,2.2 8.6,2.4 C8.7,2.6 8.6,2.9 8.6,3 C8.5,3.3 8.4,3.5 8.4,3.5 C8.4,3.5 8.5,3.3 8.5,3 C8.5,2.8 8.5,2.7 8.4,2.5 C8.3,2.3 8.2,2.1 8,1.9 C7.2,1.2 5.8,0.9 4.4,0.9 C3.7,0.9 3,0.9 2.3,1.1 C1.7,1.3 1.1,1.6 0.8,2 C0.6,2.2 0.5,2.4 0.4,2.6 C0.3,2.8 0.3,3 0.3,3.1 C0.4,3.3 0.5,3.5 0.5,3.5 Z" id="Shape" fill="#611E1E"/>
        </g>
      </g>
    </g>
  </g>
</svg>