<svg version="1.1" width="44" height="80" xmlns="http://www.w3.org/2000/svg" xmlns:xlink="http://www.w3.org/1999/xlink">
  <!-- Exported by Scratch - http://scratch.mit.edu/ -->
  <g id="ID0.33697850117459893">
    <path id="ID0.39866629615426064" d="M 289.500 349.750 C 297.463 347.901 303.237 348.127 307 349 C 318.140 352.202 329.789 355.544 332 368 C 332 370.667 332 373.333 332 376 C 325.518 387.184 319.944 399.278 305 402 C 307.457 410.877 307.591 422.076 310 431 C 308.258 435.300 303.511 433.365 306 440 C 300.341 439.674 296.706 441.373 293 443 C 291.667 443 290.333 443 289 443 C 284.731 419.602 283.921 392.746 280 369 C 280 366 280 363 280 360 C 284.118 360.785 286.372 360.340 289 359 C 290.947 356.951 287.216 351.837 289.500 349.750 Z M 327 379 C 334.433 359.340 311.082 348.321 292 354 C 291.337 381.355 292.590 407.250 299 431 C 299.431 428.764 303.928 430.595 306 430 C 303.976 416.718 301.845 403.782 302 391 C 314.498 390.766 324.048 386.809 327 379 Z " transform="matrix(0.8406611084938049, 0, 0, 0.8406611084938049, -235.1, -292.5)"/>
    <path id="ID0.3580125533044338" fill="#FF9400" d="M 302 391 C 301.845 403.782 303.976 416.718 306 430 C 303.928 430.595 299.431 428.764 299 431 C 292.590 407.250 291.337 381.355 292 354 C 311.082 348.321 334.433 359.340 327 379 C 324.048 386.809 314.498 390.766 302 391 Z M 302 383 C 306.079 384.095 314.507 381.739 319 380 C 326.561 367.833 317.187 357.168 301 360 C 301.584 367.917 302.068 377.235 302 383 Z " transform="matrix(0.8406611084938049, 0, 0, 0.8406611084938049, -235.1, -292.5)"/>
    <path id="ID0.986502141226083" d="M 301 360 C 317.187 357.168 326.561 367.833 319 380 C 314.507 381.739 306.079 384.095 302 383 C 302.068 377.235 301.584 367.917 301 360 Z M 305 379 C 307.050 380.320 312.658 378.516 315 377 C 314.736 371.574 308.674 366.690 304 369 C 306.280 370.387 304.373 375.960 305 379 Z " transform="matrix(0.8406611084938049, 0, 0, 0.8406611084938049, -235.1, -292.5)"/>
  </g>
</svg>