<?xml version="1.0" encoding="utf-8"?>
<!-- Generator: Adobe Illustrator 18.0.0, SVG Export Plug-In . SVG Version: 6.00 Build 0)  -->
<!DOCTYPE svg PUBLIC "-//W3C//DTD SVG 1.1//EN" "http://www.w3.org/Graphics/SVG/1.1/DTD/svg11.dtd">
<svg version="1.1" id="Layer_2" xmlns="http://www.w3.org/2000/svg" xmlns:xlink="http://www.w3.org/1999/xlink" x="0px" y="0px"
	 viewBox="0 0 44.6 59.4" enable-background="new 0 0 44.6 59.4" xml:space="preserve">
<g>
	<path fill="#41A2F2" d="M44.4,21c-0.4-4.1-1.6-7.9-4.2-11.1c-1.5-1.8-3-3.6-5.1-4.8C34,4.3,32.8,3.6,31.6,3c-2.4-1.2-5-2.2-7.6-2.7
		c-2.7-0.5-5.4,0-8,0.8C8.9,3.4,4.5,8.4,1.6,14.9c-1.7,3.9-1.7,7.9-1.5,12c0.1,2.8,1.3,5.3,2.3,7.9c0.8,1.9,1.8,3.6,3.2,5
		c2.2,2.2,4.2,4.6,7.2,5.7c2.6,1,5.1,2.2,8,1.9c0,0.1,0,0.1,0,0.2c1.8-0.2,3.6-0.3,5.4-0.7c2.7-0.6,5.2-1.9,7.5-3.4
		c2.9-1.8,5.3-4.2,7.1-7.1c1.4-2.2,2.1-4.6,2.9-7.1C44.6,26.7,44.7,23.8,44.4,21z M36.6,29.9c-0.3,2.8-1.2,5.6-2.8,7.8
		c-2.6,3.8-5.8,6.7-10.7,7.5c-3.4,0.5-5.8-0.7-8.2-2.6c-3.3-2.6-5.1-6-6.1-10c-0.3-1-0.6-2-0.7-3c-0.3-1.9-0.4-3.9-0.6-5.8
		c0.1,0,0.2,0,0.2,0c-0.3-4,0.5-7.8,1.9-11.4c0.9-2.4,2.4-4.4,4.4-6c1.6-1.3,3.1-2.6,5-3.2c3.3-1,6.4-0.6,9.2,1.3
		c3.9,2.7,6.8,6.2,8,10.8c0.5,2,0.7,4.2,0.7,6.2C37,24.4,36.9,27.1,36.6,29.9z"/>
	<path fill="#41A2F2" d="M41.2,54c-1.8,2.2-3.8,4.1-6.6,5c-0.6,0.2-1.3,0.3-1.7,0.4c-3.8-0.2-6.4-1.7-8.3-4.7
		c-0.9-1.5-2.8-2.2-4.6-1.7c-1.2,0.3-2.3,0.9-3.4,1.4c-0.4,0.2-0.7,0.2-1-0.1c-1.4-1.3-1.4-1.7-0.1-3c2.1-2,5.8-3.4,9-1.9
		c1.7,0.7,3.2,1.7,4.5,3.1c0.9,0.9,1.9,1.9,3,2.5c1.4,0.6,3,0.8,4.4-0.3c0.9-0.7,1.7-1.4,2.6-2.2c0.4-0.4,0.7-0.5,1.1,0.1
		c0.2,0.3,0.5,0.5,0.8,0.6C41.6,53.3,41.5,53.6,41.2,54z"/>
</g>
</svg>
