<svg version="1.1" width="186" height="140" viewBox="-1 -1 186 140" xmlns="http://www.w3.org/2000/svg" xmlns:xlink="http://www.w3.org/1999/xlink">
  <!-- Exported by Scratch - http://scratch.mit.edu/ -->
  <g id="ID0.8851484144106507" transform="matrix(1, 0, 0, 1, -0.5, -0.5)">
    <g id="Page-1">
      <g id="dinosaur1-b-[animals,dinosaur,alex-eben-meyer,sauropod]">
        <path id="Shape" fill="#008264" stroke="none" stroke-width="1" d="M 136.100 92.500 C 136.100 92.500 140.825 127.555 141.695 136.670 C 140.195 137.125 130.135 136.855 128.615 136.720 C 126.565 131.605 119.695 90.890 119.695 90.890 L 136.100 92.500 Z " transform="matrix(-1, 0, 0, 1, 261.85, 0.5)"/>
        <path id="Shape" fill="#008264" stroke="none" stroke-width="1" d="M 87.900 92.500 C 87.900 92.500 90.535 127.885 91.400 137 C 89.900 137.450 80.320 136.850 78.800 136.715 C 76.745 131.595 73.060 91.100 73.060 91.100 L 87.900 92.500 Z " transform="matrix(-1, 0, 0, 1, 164.95, 0.5)"/>
        <path id="Shape" fill="#005A5A" stroke="none" stroke-width="1" d="M 57.367 44.320 C 51.662 43.165 45.047 43.400 41.547 48.780 C 38.117 54.045 38.332 62.105 38.617 68.105 C 38.917 74.325 39.527 80.430 40.327 86.605 C 40.637 88.980 41.962 102.225 40.327 111.280 C 39.067 118.225 35.207 121.780 32.932 121.780 C 27.692 121.780 22.402 118.750 20.742 114.705 C 19.082 110.660 18.742 106.450 18.527 102.160 C 18.327 98.030 18.027 93.940 17.862 89.815 C 17.697 85.690 16.387 71.030 15.827 66.925 C 15.702 70.890 6.352 82.425 0.417 87.110 C 1.612 97.410 1.807 129.555 12.482 135.250 C 21.337 139.975 37.052 139.790 44.797 133.335 C 52.712 126.740 54.122 116.270 53.567 105.965 C 52.859 93.670 51.427 81.427 49.277 69.300 C 48.477 64.670 47.462 57.915 49.922 53.655 C 51.472 50.970 53.922 49.930 56.732 49.230 C 58.107 48.890 59.517 48.880 59.732 47.375 C 59.972 46 58.652 44.580 57.367 44.320 Z " transform="matrix(-1, 0, 0, 1, 60.65, 0.5)"/>
        <path id="Shape" fill="#00A08C" stroke="none" stroke-width="1" d="M 132.237 46.025 C 124.102 37.710 113.652 31.920 101.822 32.265 C 88.392 32.655 74.757 38.190 71.987 36.030 C 67.677 32.670 66.647 20.375 65.307 19.170 L 48.507 31.965 C 46.297 50.555 43.392 74.500 43.362 77.200 C 43.207 85.070 44.562 96.595 49.407 102.115 C 54.252 107.635 59.642 107.835 62.602 108.845 C 66.072 110.030 99.892 110.720 105.822 110.025 C 105.962 109.905 127.347 111.270 134.887 101.305 C 142.427 91.340 143.447 79.700 143.442 75.610 C 143.427 64.690 140.017 54 132.237 46.025 Z " transform="matrix(-1, 0, 0, 1, 187.25, 0.5)"/>
        <path id="Shape" fill="#00A08C" stroke="none" stroke-width="1" d="M 112.820 92.500 C 112.820 92.500 115.455 127.885 116.320 137 C 114.820 137.450 105.240 136.850 103.720 136.715 C 101.670 131.600 97.985 91.105 97.985 91.105 L 112.820 92.500 Z " transform="matrix(-1, 0, 0, 1, 214.8, 0.5)"/>
        <path id="Shape" fill="#00A08C" stroke="none" stroke-width="1" d="M 65.210 92.500 C 65.210 92.500 67.845 127.885 68.710 137 C 67.210 137.450 57.630 136.850 56.110 136.715 C 54.055 131.600 50.375 91.105 50.375 91.105 L 65.210 92.500 Z " transform="matrix(-1, 0, 0, 1, 119.55, 0.5)"/>
        <g id="Group-2">
          <path id="Shape" fill="#00A08C" stroke="none" stroke-width="1" d="M 35.280 32.090 C 35.385 32.345 35.895 34.735 35.945 34.860 C 34.770 42.240 26.395 41.755 20.520 40.680 C 13.055 39.315 8.590 34.120 5.695 27.420 L 35.280 32.090 Z " transform="matrix(-1, 0, 0, 1, 188.1, 85.5)"/>
          <path id="Shape" fill="#000000" stroke="none" stroke-width="1" d="M 23.849 31.185 C 23.759 31.800 25.014 34.865 22.019 36.435 C 19.322 37.842 16.161 38.063 13.294 37.045 C 10.384 35.985 8.029 33.220 6.874 30.260 L 23.849 31.185 Z " transform="matrix(-1, 0, 0, 1, 177.4, 85.5)"/>
          <path id="Shape" fill="#FFFFFF" stroke="none" stroke-width="1" d="M 11.062 31.875 C 11.062 31.875 10.562 33.955 10.037 34.570 C 9.303 35.392 8.069 35.529 7.172 34.890 C 5.882 33.985 6.087 31.965 6.087 31.965 L 11.062 31.875 Z " transform="matrix(-1, 0, 0, 1, 163.6, 85.5)"/>
          <path id="Shape" fill="#00A08C" stroke="none" stroke-width="1" d="M 21.702 0.850 C 21.911 3.046 22.468 5.194 23.352 7.215 C 24.607 10.050 27.017 13.300 29.747 14.885 C 32.287 16.385 35.477 16.165 37.347 18.750 C 40.682 23.370 38.442 31.250 33.172 33.325 C 30.812 34.255 27.807 34.460 25.307 34.270 C 23.587 34.135 17.452 33.620 11.922 31.115 C 8.042 29.360 6.312 29.310 3.057 27.420 C -0.233 19.615 -0.323 9.635 0.557 0.850 L 21.702 0.850 Z " transform="matrix(-1, 0, 0, 1, 185.5, 85.5)"/>
        </g>
        <path id="Shape" fill="#00A08C" stroke="none" stroke-width="1" d="M 161.580 75.580 L 184.855 75.580 C 183.705 74.325 182.855 72.555 182.355 70.130 C 181.205 64.910 181.900 58.800 182.385 53.510 C 182.930 47.600 184.075 42.745 184.195 36.810 C 184.315 30.875 184.360 24.995 182.695 19.170 C 180.910 12.930 175.925 6.810 170.400 3.670 C 159.795 -2.395 146.825 -0.465 137.400 6.945 C 128.310 14.085 122.625 26.350 121.075 37.650 C 120.217 43.878 119.858 50.165 120 56.450 C 120.135 61.950 119.635 91.640 119.300 95.765 L 140.525 93.890 C 140.375 92.470 141.795 59.220 141.985 48.130 C 142.080 42.675 142.825 36.395 145.045 31.355 C 146.950 27.020 152.085 22.565 156.800 25.925 C 160.685 28.695 162.420 34.490 163.270 38.925 C 164.450 45.110 164.410 51.350 163.725 57.595 C 163.255 61.445 162.475 68.050 161.580 75.580 Z " transform="matrix(-1, 0, 0, 1, 304.65, 0.5)"/>
        <g id="Group">
          <path id="Shape" fill="#005A5A" stroke="none" stroke-width="1" d="M 20.204 9.385 C 20.474 7.415 18.454 6.135 17.754 8.845 C 17.019 11.715 19.934 11.360 20.204 9.385 Z " transform="matrix(-1, 0, 0, 1, 180.35, 104.5)"/>
          <path id="Shape" fill="#005A5A" stroke="none" stroke-width="1" d="M 9.211 7.705 C 9.476 5.735 7.456 4.450 6.761 7.165 C 6.021 10.035 8.941 9.675 9.211 7.705 Z " transform="matrix(-1, 0, 0, 1, 158.35, 104.5)"/>
          <path id="Shape" fill="#000000" stroke="none" stroke-width="1" d="M 1.296 4.650 L 2.076 4.470 C 2.630 3.337 2.564 1.998 1.901 0.925 L 1.326 1.040 C 0.431 1.790 0.406 3.795 1.296 4.650 Z " transform="matrix(-1, 0, 0, 1, 145.55, 104.5)"/>
          <path id="Shape" fill="#000000" stroke="none" stroke-width="1" d="M 35.390 4.470 L 36.175 4.290 C 36.727 3.156 36.661 1.819 36 0.745 L 35.425 0.860 C 34.535 1.610 34.510 3.615 35.390 4.470 Z " transform="matrix(-1, 0, 0, 1, 213.75, 104.5)"/>
        </g>
      </g>
    </g>
  </g>
</svg>