<svg version="1.1" width="147" height="69" xmlns="http://www.w3.org/2000/svg" xmlns:xlink="http://www.w3.org/1999/xlink">
  <!-- Exported by Scratch - http://scratch.mit.edu/ -->
  <g id="ID0.8153662532567978" transform="matrix(1.0499999523162842, 0, 0, 1.0499999523162842, 0.3, -0.75)">
    <g id="Body">
      <g id="Teeth">
        <path id="ID0.47505385521799326" fill="#FFFFFF" stroke="#000000" d="M 110.782 88.075 C 111.187 86.959 112.654 85.111 113.039 85.308 C 113.428 85.502 112.637 87.658 112.193 88.695 L 110.782 88.075 L 110.782 88.075 L 110.782 88.075 L 110.782 88.075 Z " transform="matrix(1.0997436046600342, 0, 0, 1.0997436046600342, -9.45, -46.4)"/>
        <path id="ID0.1700705992989242" fill="#FFFFFF" stroke="#000000" d="M 107.191 87.348 C 107.597 86.233 109.062 84.386 109.450 84.583 C 109.837 84.779 109.046 86.932 108.603 87.971 L 107.191 87.348 L 107.191 87.348 L 107.191 87.348 L 107.191 87.348 Z " transform="matrix(1.0997436046600342, 0, 0, 1.0997436046600342, -9.45, -46.4)"/>
        <path id="ID0.22641177149489522" fill="#FFFFFF" stroke="#000000" d="M 103.955 86.466 C 104.357 85.352 105.824 83.506 106.211 83.701 C 106.598 83.898 105.807 86.052 105.365 87.089 L 103.955 86.466 L 103.955 86.466 L 103.955 86.466 L 103.955 86.466 Z " transform="matrix(1.0997436046600342, 0, 0, 1.0997436046600342, -9.45, -46.4)"/>
        <path id="ID0.5497826454229653" fill="#FFFFFF" stroke="#000000" d="M 100.839 82.824 C 100.519 82.943 99.898 81.794 99.425 80.758 C 99.830 80.362 100.259 79.999 100.711 79.669 C 101.078 80.875 101.207 82.688 100.839 82.824 L 100.839 82.824 L 100.839 82.824 L 100.839 82.824 Z " transform="matrix(1.0997436046600342, 0, 0, 1.0997436046600342, -9.45, -46.4)"/>
        <path id="ID0.713533132802695" fill="#FFFFFF" stroke="#000000" d="M 100.738 85.607 C 101.252 84.703 102.786 83.333 103.088 83.562 C 103.393 83.791 102.395 85.539 101.861 86.368 L 100.738 85.607 L 100.738 85.607 L 100.738 85.607 L 100.738 85.607 Z " transform="matrix(1.0997436046600342, 0, 0, 1.0997436046600342, -9.45, -46.4)"/>
        <path id="ID0.8864496797323227" fill="#FFFFFF" stroke="#000000" d="M 110.496 82.635 C 110.078 82.459 110.535 80.584 110.982 79.122 C 111.586 79.362 112.187 79.607 112.802 79.818 C 112.117 81.227 110.916 82.812 110.496 82.635 L 110.496 82.635 L 110.496 82.635 L 110.496 82.635 Z " transform="matrix(1.0997436046600342, 0, 0, 1.0997436046600342, -9.45, -46.4)"/>
        <path id="ID0.9374523004516959" fill="#FFFFFF" stroke="#000000" d="M 106.977 81.189 C 106.512 81.088 106.416 79.676 106.629 78.142 C 106.629 78.142 108.498 78.229 108.940 78.319 C 108.550 79.882 107.456 81.298 106.977 81.189 L 106.977 81.189 L 106.977 81.189 L 106.977 81.189 Z " transform="matrix(1.0997436046600342, 0, 0, 1.0997436046600342, -9.45, -46.4)"/>
        <path id="ID0.8298322623595595" fill="#FFFFFF" stroke="#000000" d="M 103.399 81.957 C 103.011 81.984 102.692 80.287 102.532 79.069 C 103.032 78.886 103.557 78.740 104.106 78.627 C 104.192 79.898 103.812 81.930 103.399 81.957 L 103.399 81.957 L 103.399 81.957 L 103.399 81.957 Z " transform="matrix(1.0997436046600342, 0, 0, 1.0997436046600342, -9.45, -46.4)"/>
        <path id="ID0.38277680333703756" fill="#FFFFFF" stroke="#000000" d="M 115.402 83.256 C 115.042 83.154 115.138 81.826 115.338 80.522 C 115.442 80.526 115.549 80.528 115.549 80.528 C 115.549 80.528 115.494 80.526 115.338 80.522 C 116.418 80.532 116.863 80.485 117.283 80.414 C 116.746 81.831 115.814 83.371 115.402 83.256 L 115.402 83.256 L 115.402 83.256 L 115.402 83.256 Z " transform="matrix(1.0997436046600342, 0, 0, 1.0997436046600342, -9.45, -46.4)"/>
        <path id="ID0.23444315837696195" fill="#FFFFFF" stroke="#000000" d="M 129.897 83.919 C 129.543 83.667 130.118 82.251 130.809 80.886 L 132.645 81.915 C 131.573 83.124 130.267 84.177 129.897 83.919 L 129.897 83.919 L 129.897 83.919 L 129.897 83.919 Z " transform="matrix(1.0997436046600342, 0, 0, 1.0997436046600342, -9.45, -46.4)"/>
        <path id="ID0.5970389265567064" fill="#FFFFFF" stroke="#000000" d="M 125.376 82.407 C 124.934 82.214 125.369 80.377 125.868 78.763 C 126.668 78.810 127.353 79.071 128.029 79.352 C 127.188 80.934 125.842 82.614 125.376 82.407 L 125.376 82.407 L 125.376 82.407 L 125.376 82.407 Z " transform="matrix(1.0997436046600342, 0, 0, 1.0997436046600342, -9.45, -46.4)"/>
        <path id="ID0.7332274583168328" fill="#FFFFFF" stroke="#000000" d="M 120.911 82.421 C 120.488 82.376 120.357 80.923 120.349 79.375 C 121.070 79.203 121.786 78.984 122.523 78.766 C 122.212 80.541 121.410 82.475 120.911 82.421 L 120.911 82.421 L 120.911 82.421 L 120.911 82.421 Z " transform="matrix(1.0997436046600342, 0, 0, 1.0997436046600342, -9.45, -46.4)"/>
        <path id="ID0.5271980953402817" fill="#FFFFFF" stroke="#000000" d="M 133.544 86.136 C 133.178 85.873 133.807 84.369 134.527 82.962 C 134.670 83.041 134.812 83.123 134.812 83.123 C 134.812 83.123 134.739 83.078 134.527 82.962 C 135.646 83.629 135.974 83.876 136.298 84.126 C 135.225 85.337 133.913 86.394 133.544 86.136 L 133.544 86.136 L 133.544 86.136 L 133.544 86.136 Z " transform="matrix(1.0997436046600342, 0, 0, 1.0997436046600342, -9.45, -46.4)"/>
      </g>
      <path id="Fill" fill="#2F8EFF" d="M 94.141 84.009 C 96.403 79.541 102.575 76.192 107.329 76.580 C 111.399 76.914 114.722 80.441 119.032 78.698 C 129.208 74.578 130.770 78.726 138.203 84.005 C 140.349 69.095 130.622 55.564 120.057 50.230 C 111.072 45.694 86.029 46.472 70.862 54.800 C 70.843 54.834 70.815 54.866 70.774 54.895 C 67.239 57.378 45.399 41.776 42.544 47.920 C 40.548 52.215 54.143 65.529 53.951 65.696 C 52.821 66.675 33.300 76.524 31.534 77.393 C 30.992 76.789 31.068 75.952 30.829 75.247 C 28.491 68.371 21.780 62.392 12.332 62.943 C 8.527 71.249 18.960 80.041 27.685 80.997 C 24.712 84.035 18.450 91.685 19.502 98.169 C 19.612 98.846 19.996 100.493 20.348 101.070 C 20.729 101.695 21.432 102.214 22.243 102.429 C 24.220 102.955 27.057 101.657 28.717 100.820 C 33.438 98.439 35.394 88.775 33.633 82.784 C 33.544 82.480 37.518 82.599 38.006 82.599 C 46.852 82.601 57.514 84.495 65.580 87.407 L 70.249 89.125 C 70.249 89.125 82.953 93.758 87.414 95.879 C 94.462 99.010 104.287 94.731 110.314 89.275 C 107.586 88.650 95.599 86.754 94.097 85.652 C 93.535 85.240 93.891 84.507 94.141 84.009 L 94.141 84.009 L 94.141 84.009 L 94.141 84.009 Z " transform="matrix(1.0997436046600342, 0, 0, 1.0997436046600342, -9.45, -46.4)"/>
      <path id="Outline" d="M 132.512 56.863 C 129.407 53.558 125.362 50.492 120.098 48.011 C 110.182 43.337 84.386 44.932 70.038 53.826 C 64.437 51.049 45.527 40.573 41.048 46.058 C 40.909 46.228 40.796 46.407 40.694 46.588 C 39.539 48.647 40.694 51.325 41.709 53.248 C 43.035 55.762 48.799 64.133 50.033 66.053 C 44.222 69.114 32.593 75.316 32.593 75.316 C 31.319 68.356 23.489 62.080 14.976 60.815 C 14.552 60.752 14.127 60.690 13.700 60.652 C 13.283 60.615 12.697 60.568 12.085 60.563 C 10.855 60.552 9.512 60.724 9.164 61.582 C 9.083 61.782 9.024 63.681 9.014 64.013 C 8.906 67.840 9.429 70.717 11.895 74.030 C 13.057 75.591 14.066 76.846 15.640 77.921 C 16.101 78.235 16.603 78.536 17.180 78.822 C 20.224 80.330 22.514 81.083 25.416 81.507 C 25.392 81.523 25.367 81.543 25.343 81.560 C 21.522 84.088 17.761 90.736 16.960 94.634 C 16.609 96.344 16.784 99.001 17.710 101.191 C 18.297 102.581 19.185 103.783 20.439 104.433 C 22.266 105.380 24.665 104.220 26.384 103.646 C 27.207 103.372 27.956 103.033 28.671 102.666 C 35.810 98.999 37.666 90.998 35.973 84.339 C 35.962 84.297 35.956 84.255 35.945 84.214 C 37.234 84.183 38.511 84.185 39.777 84.217 C 43.432 84.313 46.995 84.678 50.499 85.260 C 54.723 85.960 58.857 86.991 62.951 88.280 C 63.755 88.532 64.559 88.781 65.361 89.053 C 65.646 89.151 67.140 89.796 68.439 90.128 L 68.438 90.129 C 68.740 90.234 69.160 90.389 69.666 90.579 C 74.305 92.323 86.426 97.180 86.426 97.180 C 94.785 100.940 105.855 98.050 112.249 90.812 C 112.468 90.565 112.695 90.327 112.902 90.069 C 113.171 89.735 113.437 89.192 113.228 88.766 C 108.246 86.272 102.191 86.618 97.421 83.889 C 99.071 79.301 106.574 77.712 110.386 79.735 C 114.806 82.083 117.205 80.814 121.170 79.923 C 121.486 79.852 121.816 79.784 122.154 79.720 C 122.353 79.683 122.550 79.644 122.758 79.610 C 129.604 78.483 137.848 86.627 139.811 86.526 C 142.196 86.403 144.648 69.780 132.512 56.863 L 132.512 56.863 L 132.512 56.863 L 132.512 56.863 Z M 87.414 95.879 C 82.953 93.758 70.249 89.125 70.249 89.125 L 65.580 87.407 C 57.514 84.495 46.852 82.601 38.006 82.599 C 37.518 82.599 33.544 82.480 33.633 82.784 C 35.394 88.775 33.438 98.439 28.717 100.820 C 27.057 101.657 24.220 102.956 22.243 102.429 C 21.432 102.213 20.729 101.695 20.348 101.070 C 19.996 100.493 19.612 98.845 19.502 98.169 C 18.450 91.686 24.712 84.035 27.685 80.997 C 18.960 80.041 8.527 71.249 12.332 62.943 C 21.780 62.392 28.491 68.371 30.829 75.247 C 31.068 75.951 30.992 76.789 31.534 77.393 C 33.300 76.524 52.821 66.675 53.951 65.696 C 54.143 65.529 40.548 52.215 42.544 47.920 C 45.399 41.776 67.239 57.378 70.774 54.895 C 70.815 54.866 70.843 54.834 70.862 54.800 C 86.029 46.472 111.071 45.695 120.057 50.230 C 130.621 55.564 140.348 69.095 138.203 84.005 C 130.770 78.727 129.208 74.578 119.032 78.698 C 114.721 80.441 111.399 76.914 107.329 76.580 C 102.575 76.191 96.403 79.541 94.141 84.009 C 93.891 84.507 93.536 85.240 94.098 85.653 C 95.600 86.755 107.587 88.651 110.315 89.276 C 104.287 94.730 94.462 99.010 87.414 95.879 L 87.414 95.879 L 87.414 95.879 L 87.414 95.879 Z " transform="matrix(1.0997436046600342, 0, 0, 1.0997436046600342, -9.45, -46.4)"/>
      <path id="Gill_1_" d="M 84.604 82.543 C 78.694 80.200 77.784 70.476 80.508 66.375 C 81.088 65.502 82.516 63.512 83.325 63.800 C 84.828 64.335 83.202 65.395 82.710 66.233 C 80.538 69.928 80.911 75.371 82.954 79.045 C 83.476 79.983 84.488 80.672 85.267 81.399 C 86.066 82.136 85.434 82.871 84.604 82.543 L 84.604 82.543 L 84.604 82.543 L 84.604 82.543 Z " transform="matrix(1.0997436046600342, 0, 0, 1.0997436046600342, -9.45, -46.4)"/>
      <path id="Gill" d="M 73.813 69.378 C 73.652 70.799 73.430 71.077 73.417 72.312 C 73.377 76.254 75.046 78.322 77.863 80.540 C 78.551 81.082 78.386 81.934 77.336 81.828 C 75.180 81.609 74.166 79.752 73.197 78.394 C 71.745 76.066 71.130 72.378 71.562 69.639 C 71.835 67.895 73.998 67.750 73.813 69.378 L 73.813 69.378 L 73.813 69.378 L 73.813 69.378 Z " transform="matrix(1.0997436046600342, 0, 0, 1.0997436046600342, -9.45, -46.4)"/>
    </g>
    <g id="Fin">
      <path id="Fill_1_" fill="#2F8EFF" d="M 65.270 98.568 C 65.819 99.547 68.345 99.676 69.496 99.785 C 74.969 100.288 81.363 97.759 84.603 94.205 C 85.332 93.405 85.857 90.643 87.775 91.271 C 82.383 81.792 73.352 86.368 73.352 86.368 C 73.352 86.370 73.352 86.372 73.352 86.374 C 73.630 86.609 73.767 87.141 73.813 87.408 C 74.760 92.930 64.192 96.646 65.270 98.568 L 65.270 98.568 L 65.270 98.568 L 65.270 98.568 Z " transform="matrix(1.0997436046600342, 0, 0, 1.0997436046600342, -9.45, -46.4)"/>
      <path id="Outline_3_" d="M 87.775 91.271 C 85.857 90.642 85.332 93.405 84.603 94.205 C 81.363 97.759 74.968 100.288 69.496 99.785 C 68.345 99.677 65.819 99.548 65.270 98.568 C 64.192 96.646 74.760 92.929 73.813 87.408 C 73.767 87.140 73.630 86.609 73.352 86.374 C 73.165 86.215 72.915 86.187 72.581 86.478 C 70.973 93.496 60.896 95.711 60.735 98.316 C 60.550 101.252 70.879 101.345 73.286 101.070 C 75.601 100.806 77.747 100.345 79.848 99.534 C 83.618 98.076 87.608 96.378 88.744 93.705 C 89.018 93.055 88.652 91.559 87.775 91.271 L 87.775 91.271 L 87.775 91.271 L 87.775 91.271 Z " transform="matrix(1.0997436046600342, 0, 0, 1.0997436046600342, -9.45, -46.4)"/>
    </g>
    <g id="L_Eye">
      <path id="White" fill="#FFFFFF" d="M 93.497 54.108 C 93.704 55.887 95.420 57.838 97.596 58.328 C 102.321 59.394 108.959 51.017 107.241 47.348 C 104.867 42.277 92.555 45.942 93.497 54.108 L 93.497 54.108 L 93.497 54.108 L 93.497 54.108 Z " transform="matrix(1.0997436046600342, 0, 0, 1.0997436046600342, -9.45, -46.4)"/>
      <path id="Pupil" d="M 100.242 51.307 C 101.093 51.307 101.863 51.537 102.421 51.910 C 102.980 52.282 103.325 52.796 103.325 53.363 C 103.325 53.930 102.980 54.444 102.421 54.816 C 101.863 55.189 101.093 55.419 100.242 55.419 C 99.391 55.419 98.621 55.189 98.063 54.816 C 97.504 54.444 97.159 53.930 97.159 53.363 C 97.159 52.796 97.504 52.282 98.063 51.910 C 98.621 51.537 99.391 51.307 100.242 51.307 L 100.242 51.307 L 100.242 51.307 Z " transform="matrix(1.0997436046600342, 0, 0, 1.0997436046600342, -9.45, -46.4)"/>
      <g id="Eyelid_1_">
        <path id="Eyelid" fill="#2F8EFF" d="M 107.240 47.348 C 105.238 43.069 96.160 45.010 93.937 50.626 C 97.968 49.302 103.656 48.345 107.476 48.262 C 107.438 47.937 107.370 47.625 107.240 47.348 L 107.240 47.348 L 107.240 47.348 L 107.240 47.348 Z " transform="matrix(1.0997436046600342, 0, 0, 1.0997436046600342, -9.45, -46.4)"/>
        <path id="Eyelash" d="M 108.868 48.272 C 104.810 48.082 97.148 49.342 92.661 51.075 C 91.237 51.625 90.133 52.222 89.566 52.837 C 89.337 53.083 89.044 53.533 89.468 53.767 C 91.281 53.152 92.888 52.268 94.732 51.693 C 98.431 50.538 102.330 49.830 106.361 49.784 C 107.664 49.768 109.533 50.102 110.715 49.976 C 111.211 49.922 111.676 49.492 111.543 49.117 C 111.363 48.607 110.358 48.342 108.868 48.272 L 108.868 48.272 L 108.868 48.272 L 108.868 48.272 Z " transform="matrix(1.0997436046600342, 0, 0, 1.0997436046600342, -9.45, -46.4)"/>
      </g>
      <path id="Outline_1_" d="M 108.827 45.773 C 104.137 38.769 89.730 46.352 91.254 53.927 C 91.753 56.420 94.092 59.370 97.288 59.937 C 103.712 61.077 112.232 50.866 108.827 45.773 L 108.827 45.773 L 108.827 45.773 L 108.827 45.773 Z M 97.596 58.328 C 95.420 57.838 93.704 55.887 93.497 54.108 C 93.350 52.832 93.526 51.666 93.937 50.626 C 96.160 45.010 105.238 43.069 107.240 47.348 C 107.370 47.625 107.437 47.937 107.476 48.262 C 107.951 52.237 101.963 59.313 97.596 58.328 L 97.596 58.328 L 97.596 58.328 L 97.596 58.328 Z " transform="matrix(1.0997436046600342, 0, 0, 1.0997436046600342, -9.45, -46.4)"/>
    </g>
    <g id="R_Eye">
      <path id="White_1_" fill="#FFFFFF" d="M 123.283 56.465 C 123.415 57.568 124.512 58.779 125.902 59.081 C 128.924 59.742 133.366 54.461 132.072 52.273 C 129.418 47.783 122.676 51.402 123.283 56.465 L 123.283 56.465 L 123.283 56.465 L 123.283 56.465 Z " transform="matrix(1.0997436046600342, 0, 0, 1.0997436046600342, -9.45, -46.4)"/>
      <path id="Pupil_1_" d="M 127.566 54.360 C 128.118 54.360 128.619 54.509 128.981 54.751 C 129.344 54.992 129.568 55.326 129.568 55.694 C 129.568 56.062 129.344 56.396 128.981 56.637 C 128.619 56.879 128.118 57.028 127.566 57.028 C 127.014 57.028 126.513 56.879 126.151 56.637 C 125.788 56.396 125.564 56.062 125.564 55.694 C 125.564 55.326 125.788 54.992 126.151 54.751 C 126.513 54.509 127.014 54.360 127.566 54.360 L 127.566 54.360 L 127.566 54.360 Z " transform="matrix(1.0997436046600342, 0, 0, 1.0997436046600342, -9.45, -46.4)"/>
      <g id="Eyelid_3_">
        <path id="Eyelash_1_" d="M 133.062 51.613 C 130.220 51.636 125.731 52.467 122.770 53.606 C 121.523 54.085 120.548 54.619 120.082 55.170 C 119.923 55.361 119.712 55.710 120.013 55.892 C 121.302 55.415 122.445 54.727 123.753 54.281 C 126.385 53.384 129.153 52.835 132.024 52.798 C 132.946 52.786 134.272 53.046 135.115 52.948 C 135.469 52.906 135.799 52.573 135.704 52.281 C 135.549 51.800 134.521 51.601 133.062 51.613 L 133.062 51.613 L 133.062 51.613 L 133.062 51.613 Z " transform="matrix(1.0997436046600342, 0, 0, 1.0997436046600342, -9.45, -46.4)"/>
        <path id="Eyelid_2_" fill="#2F8EFF" d="M 123.951 53.193 C 126.329 52.433 129.285 51.871 131.645 51.685 C 129.486 49.040 125.550 50.341 123.951 53.193 L 123.951 53.193 L 123.951 53.193 L 123.951 53.193 Z " transform="matrix(1.0997436046600342, 0, 0, 1.0997436046600342, -9.45, -46.4)"/>
      </g>
      <path id="Outline_2_" d="M 133.678 50.920 C 129.212 43.795 120.106 51.318 121.188 56.539 C 121.542 58.256 123.205 60.288 125.475 60.679 C 130.042 61.464 135.936 54.521 133.678 50.920 L 133.678 50.920 L 133.678 50.920 L 133.678 50.920 Z M 125.902 59.081 C 124.511 58.779 123.415 57.568 123.283 56.465 C 123.138 55.261 123.419 54.144 123.951 53.193 C 125.550 50.341 129.486 49.040 131.645 51.685 C 131.793 51.867 131.941 52.053 132.072 52.273 C 133.366 54.461 128.925 59.742 125.902 59.081 L 125.902 59.081 L 125.902 59.081 L 125.902 59.081 Z " transform="matrix(1.0997436046600342, 0, 0, 1.0997436046600342, -9.45, -46.4)"/>
    </g>
  </g>
</svg>