<svg version="1.1" width="122" height="121" xmlns="http://www.w3.org/2000/svg" xmlns:xlink="http://www.w3.org/1999/xlink">
  <!-- Exported by Scratch - http://scratch.mit.edu/ -->
  <g id="ID0.15523275081068277" transform="matrix(1, 0, 0, 1, 0.3, 0)">
    <path id="L_Leg_1_" fill="#9A8479" stroke="#000000" d="M 62.894 115.785 C 58.589 114.144 57.920 118.415 57.920 118.415 C 57.920 118.415 58.252 124.125 58.252 126.212 C 58.248 128.299 58.115 130.241 58.115 130.241 C 58.115 130.241 57.401 130.622 57.790 131.441 C 58.178 132.264 60.870 132.223 64.296 132.405 C 67.723 132.588 70.367 132.009 70.732 131.139 C 71.097 130.280 70.032 129.974 70.032 129.974 C 70.032 129.974 67.837 124.324 68.293 121.750 C 68.900 118.320 67.200 117.426 62.894 115.785 L 62.894 115.785 L 62.894 115.785 L 62.894 115.785 L 62.894 115.785 L 62.894 115.785 L 62.894 115.785 L 62.894 115.785 L 62.894 115.785 L 62.894 115.785 L 62.894 115.785 L 62.894 115.785 L 62.894 115.785 L 62.894 115.785 L 62.894 115.785 L 62.894 115.785 L 62.894 115.785 L 62.894 115.785 Z " transform="matrix(0.9036146402359009, 0, 0, 0.908536970615387, -0.4, -0.45)"/>
    <path id="R_Leg_2_" fill="#9A8479" stroke="#000000" d="M 74.011 116.548 C 70.774 118.026 71.845 121.969 71.845 121.969 C 71.845 121.969 72.655 125.560 72.721 127.510 C 72.789 129.459 72.721 130.265 72.721 130.265 C 72.721 130.265 72.145 130.331 72.301 131.073 C 72.452 131.816 74.201 132.623 79.111 132.490 C 84.022 132.351 84.954 131.240 84.960 130.673 C 84.968 130.105 83.886 129.530 83.886 129.530 C 83.886 129.530 83.302 125.898 82.488 122.741 C 81.672 119.583 80.049 116.551 80.049 116.551 C 79.217 114.823 77.249 115.068 74.011 116.548 L 74.011 116.548 L 74.011 116.548 L 74.011 116.548 L 74.011 116.548 L 74.011 116.548 L 74.011 116.548 L 74.011 116.548 L 74.011 116.548 L 74.011 116.548 L 74.011 116.548 L 74.011 116.548 L 74.011 116.548 L 74.011 116.548 L 74.011 116.548 L 74.011 116.548 L 74.011 116.548 L 74.011 116.548 Z " transform="matrix(0.9036146402359009, 0, 0, 0.908536970615387, -0.4, -0.45)"/>
    <path id="Belly" fill="#9A8479" stroke="#000000" d="M 66.617 100.363 C 57.670 101.056 56.105 106.420 56.105 106.420 C 55.856 107.555 55.389 110.164 55.650 112.836 C 55.650 112.836 55.832 114.443 56.256 115.676 C 56.851 117.388 57.952 118.892 59.812 119.776 C 65.323 122.399 70.626 122.644 75.610 120.648 C 78.784 119.381 80.111 116.581 80.925 114.023 C 81.119 113.412 81.172 111.412 81.172 111.412 C 81.155 110.836 81.092 110.299 80.988 109.822 C 80.612 108.094 79.709 106.203 78.979 104.862 C 78.982 104.862 75.565 99.671 66.617 100.363 L 66.617 100.363 L 66.617 100.363 L 66.617 100.363 L 66.617 100.363 L 66.617 100.363 L 66.617 100.363 L 66.617 100.363 L 66.617 100.363 L 66.617 100.363 L 66.617 100.363 L 66.617 100.363 L 66.617 100.363 L 66.617 100.363 L 66.617 100.363 L 66.617 100.363 L 66.617 100.363 L 66.617 100.363 Z " transform="matrix(0.9036146402359009, 0, 0, 0.908536970615387, -0.4, -0.45)"/>
    <path id="R_Arm" fill="#9A8479" stroke="#000000" d="M 84.577 103.286 C 87.889 104.763 91.370 106.753 91.550 108.659 C 92.058 114.069 85.570 121.464 82.015 116.889 C 81.214 115.860 81.288 114.778 81.745 113.784 C 81.227 113.352 80.673 112.718 80.823 112.026 C 81.094 110.803 83.134 111.620 83.134 111.620 L 84.495 110.640 L 84.645 110.542 C 84.440 109.751 82.700 109.226 81.463 108.944 C 81.463 108.944 74.422 102.317 84.577 103.286 L 84.577 103.286 L 84.577 103.286 L 84.577 103.286 L 84.577 103.286 L 84.577 103.286 L 84.577 103.286 L 84.577 103.286 L 84.577 103.286 L 84.577 103.286 L 84.577 103.286 L 84.577 103.286 L 84.577 103.286 L 84.577 103.286 L 84.577 103.286 L 84.577 103.286 L 84.577 103.286 L 84.577 103.286 Z " transform="matrix(0.9036146402359009, 0, 0, 0.908536970615387, -0.4, -0.45)"/>
    <path id="L_Arm" fill="#9A8479" stroke="#000000" d="M 52.026 104.048 C 48.714 105.523 45.233 107.515 45.055 109.419 C 44.546 114.829 51.034 122.226 54.589 117.649 C 55.391 116.620 55.315 115.538 54.858 114.544 C 55.376 114.112 55.932 113.478 55.780 112.786 C 55.509 111.563 53.471 112.382 53.471 112.382 L 52.108 111.400 L 51.958 111.304 C 52.163 110.513 53.903 109.986 55.140 109.704 C 55.140 109.706 62.181 103.079 52.026 104.048 L 52.026 104.048 L 52.026 104.048 L 52.026 104.048 L 52.026 104.048 L 52.026 104.048 L 52.026 104.048 L 52.026 104.048 L 52.026 104.048 L 52.026 104.048 L 52.026 104.048 L 52.026 104.048 L 52.026 104.048 L 52.026 104.048 L 52.026 104.048 L 52.026 104.048 L 52.026 104.048 L 52.026 104.048 Z " transform="matrix(0.9036146402359009, 0, 0, 0.908536970615387, -0.4, -0.45)"/>
    <g id="Head_1_">
      <path id="Head" fill="#9A8479" stroke="#000000" d="M 20.318 85.127 C 20.617 85.656 20.939 86.187 21.291 86.726 C 21.312 86.761 21.334 86.795 21.356 86.830 C 21.724 87.390 22.130 87.953 22.557 88.517 C 22.639 88.623 23.698 89.958 24.187 90.521 C 24.255 90.597 24.331 90.672 24.397 90.750 C 24.876 91.285 25.381 91.820 25.915 92.352 C 25.978 92.413 26.037 92.478 26.102 92.539 C 26.668 93.099 27.269 93.644 27.895 94.188 C 28.015 94.293 28.137 94.399 28.262 94.503 C 28.904 95.048 29.569 95.589 30.273 96.118 C 30.340 96.171 30.416 96.221 30.486 96.268 C 31.161 96.770 31.867 97.262 32.598 97.746 C 32.714 97.820 32.826 97.898 32.943 97.974 C 33.712 98.472 34.519 98.955 35.352 99.428 C 35.509 99.518 35.670 99.605 35.831 99.695 C 36.697 100.173 37.587 100.638 38.520 101.085 C 38.554 101.104 38.592 101.116 38.627 101.137 C 39.538 101.570 40.487 101.978 41.460 102.369 C 41.632 102.437 41.800 102.513 41.973 102.577 C 42.960 102.968 43.983 103.336 45.033 103.678 C 45.223 103.740 45.419 103.801 45.611 103.863 C 46.703 104.214 47.822 104.545 48.986 104.839 C 48.994 104.841 49.003 104.843 49.010 104.846 C 50.172 105.143 51.383 105.404 52.615 105.647 C 52.844 105.692 53.074 105.737 53.305 105.784 C 54.521 106.009 55.770 106.209 57.055 106.377 C 62.248 107.054 67.997 107.246 74.347 106.789 C 79.904 106.389 85.079 105.072 89.845 103.052 C 90.971 102.573 92.074 102.058 93.152 101.496 C 93.381 101.377 93.620 101.269 93.844 101.146 C 95.106 100.466 96.326 99.730 97.520 98.946 C 97.804 98.758 98.078 98.557 98.360 98.366 C 99.338 97.695 100.291 96.990 101.214 96.254 C 101.461 96.058 101.712 95.866 101.957 95.666 C 103.057 94.753 104.125 93.798 105.150 92.796 C 105.348 92.603 105.539 92.398 105.735 92.196 C 106.588 91.336 107.417 90.441 108.218 89.521 C 108.446 89.253 108.681 88.994 108.904 88.725 C 109.839 87.610 110.738 86.463 111.589 85.272 C 111.692 85.130 111.783 84.979 111.885 84.835 C 112.636 83.766 113.351 82.662 114.035 81.536 C 114.232 81.214 114.428 80.888 114.622 80.558 C 115.370 79.278 116.091 77.976 116.751 76.634 C 120.581 69.055 120.087 53.754 116.672 45.169 C 115.733 42.806 114.251 40.752 112.973 38.723 C 107 29.212 99.196 19.092 99.196 19.092 L 100.419 8.729 C 100.419 8.729 95.985 7.283 90.741 10.649 C 87.784 12.550 84.175 17.754 84.175 17.754 L 90.297 1.047 C 90.297 1.047 78.759 0.068 70.957 6.772 C 63.153 13.475 63.190 17.310 63.190 17.310 L 62.502 3.976 C 62.502 3.976 43.104 4.512 30.306 17.690 C 24.667 23.492 15.120 34.454 13.906 54.992 L 13.873 55.224 C 13.501 60.070 14.449 75.595 18.724 82.460 C 18.724 82.459 20.265 85.035 20.318 85.127 L 20.318 85.127 L 20.318 85.127 L 20.318 85.127 L 20.318 85.127 L 20.318 85.127 L 20.318 85.127 L 20.318 85.127 L 20.318 85.127 L 20.318 85.127 L 20.318 85.127 L 20.318 85.127 L 20.318 85.127 L 20.318 85.127 L 20.318 85.127 L 20.318 85.127 L 20.318 85.127 L 20.318 85.127 Z " transform="matrix(0.9036146402359009, 0, 0, 0.908536970615387, -0.4, -0.45)"/>
      <path id="Face" fill="#E6E7E8" stroke="#000000" d="M 95.656 55.164 C 95.656 55.164 92.627 61.335 84.745 64.487 C 76.863 67.644 67.761 67.740 67.761 67.740 L 74.652 57.972 C 74.652 57.972 71.353 60.264 68.344 61.983 C 65.335 63.704 61.609 64.280 61.609 64.280 L 66.339 55.392 C 66.339 55.392 37.535 61.175 33.951 73.546 C 30.370 85.916 40.456 98.878 62.213 100.248 C 78.672 101.283 100.092 95.516 103.675 81.904 C 107.260 68.289 95.656 55.164 95.656 55.164 L 95.656 55.164 L 95.656 55.164 L 95.656 55.164 L 95.656 55.164 L 95.656 55.164 L 95.656 55.164 L 95.656 55.164 L 95.656 55.164 L 95.656 55.164 L 95.656 55.164 L 95.656 55.164 L 95.656 55.164 L 95.656 55.164 L 95.656 55.164 L 95.656 55.164 L 95.656 55.164 L 95.656 55.164 Z " transform="matrix(0.9036146402359009, 0, 0, 0.908536970615387, -0.4, -0.45)"/>
      <g id="R_Ear_1_">
        <path id="Outer_Ear_1_" fill="#9A8479" stroke="#000000" stroke-linecap="round" d="M 110.506 48.067 C 110.506 48.067 129.186 37.570 133.455 46.496 C 137.726 55.421 130.087 65.881 114.147 75.345 C 114.148 75.345 114.500 59.806 110.506 48.067 L 110.506 48.067 L 110.506 48.067 L 110.506 48.067 L 110.506 48.067 L 110.506 48.067 L 110.506 48.067 L 110.506 48.067 L 110.506 48.067 L 110.506 48.067 L 110.506 48.067 L 110.506 48.067 L 110.506 48.067 L 110.506 48.067 L 110.506 48.067 L 110.506 48.067 L 110.506 48.067 L 110.506 48.067 Z M 110.506 48.067 C 110.171 46.693 109.068 44.067 109.068 44.067 M 113.734 77.765 L 113.934 75.252 " transform="matrix(0.9036146402359009, 0, 0, 0.908536970615387, -0.4, -0.45)"/>
        <path id="Inner_Ear" fill="#EE4036" stroke="#000000" d="M 113.934 75.251 C 114.038 72.373 114.035 67.634 113.385 61.716 C 113.012 58.273 112.290 54.720 111.549 51.652 L 111.551 51.656 C 122.493 48.870 132.231 58.987 132.231 58.987 L 132.235 58.987 C 126.766 68.069 114.022 75 114.022 75 L 113.934 75.251 L 113.934 75.251 L 113.934 75.251 L 113.934 75.251 L 113.934 75.251 L 113.934 75.251 L 113.934 75.251 L 113.934 75.251 L 113.934 75.251 L 113.934 75.251 L 113.934 75.251 L 113.934 75.251 L 113.934 75.251 L 113.934 75.251 L 113.934 75.251 L 113.934 75.251 L 113.934 75.251 L 113.934 75.251 Z " transform="matrix(0.9036146402359009, 0, 0, 0.908536970615387, -0.4, -0.45)"/>
      </g>
      <g id="L_Ear">
        <path id="Outer_Ear_2_" fill="#9A8479" stroke="#000000" stroke-linecap="round" d="M 22.833 82.191 C 7.317 76.015 -1.055 67.663 1.291 58.889 C 3.637 50.115 21.728 56.813 21.728 56.813 C 20.069 68.104 22.833 82.191 22.833 82.191 L 22.833 82.191 L 22.833 82.191 L 22.833 82.191 L 22.833 82.191 L 22.833 82.191 L 22.833 82.191 L 22.833 82.191 L 22.833 82.191 L 22.833 82.191 L 22.833 82.191 L 22.833 82.191 L 22.833 82.191 L 22.833 82.191 L 22.833 82.191 L 22.833 82.191 L 22.833 82.191 L 22.833 82.191 Z M 22.360 52.954 C 22.360 52.954 21.804 55.511 21.728 56.813 M 23.006 82.071 L 23.580 84.329 " transform="matrix(0.9036146402359009, 0, 0, 0.908536970615387, -0.4, -0.45)"/>
        <path id="Inner_Ear_1_" fill="#EE4036" stroke="#000000" d="M 22.890 81.857 C 22.890 81.857 10.584 77.497 4.338 70.069 L 4.341 70.068 C 4.341 70.068 11.309 59.375 21.375 60.239 L 21.376 60.236 C 21.209 63.140 21.135 66.483 21.351 69.673 C 21.716 75.157 22.461 79.469 23.006 82.071 L 22.890 81.857 L 22.890 81.857 L 22.890 81.857 L 22.890 81.857 L 22.890 81.857 L 22.890 81.857 L 22.890 81.857 L 22.890 81.857 L 22.890 81.857 L 22.890 81.857 L 22.890 81.857 L 22.890 81.857 L 22.890 81.857 L 22.890 81.857 L 22.890 81.857 L 22.890 81.857 L 22.890 81.857 L 22.890 81.857 Z " transform="matrix(0.9036146402359009, 0, 0, 0.908536970615387, -0.4, -0.45)"/>
      </g>
      <path id="L_Eye_1_" fill="#231F20" d="M 58.692 77.727 C 58.429 77.727 58.168 77.659 57.923 77.516 C 54.888 75.704 48.936 74.270 48.876 74.254 C 48.069 74.065 47.573 73.252 47.766 72.447 C 47.956 71.638 48.766 71.144 49.573 71.336 C 49.836 71.398 56.033 72.891 59.465 74.938 C 60.176 75.364 60.407 76.284 59.985 76.997 C 59.703 77.465 59.205 77.727 58.692 77.727 L 58.692 77.727 L 58.692 77.727 L 58.692 77.727 L 58.692 77.727 L 58.692 77.727 L 58.692 77.727 L 58.692 77.727 L 58.692 77.727 L 58.692 77.727 L 58.692 77.727 L 58.692 77.727 L 58.692 77.727 L 58.692 77.727 L 58.692 77.727 L 58.692 77.727 L 58.692 77.727 L 58.692 77.727 L 58.692 77.727 Z " transform="matrix(0.9036146402359009, 0, 0, 0.908536970615387, -0.4, -0.45)"/>
      <path id="R_Eye_1_" fill="#231F20" d="M 83.966 77.602 C 83.480 77.602 83.003 77.366 82.714 76.930 C 82.257 76.241 82.444 75.311 83.134 74.852 C 83.761 74.436 89.325 70.768 91.675 70.030 C 92.470 69.776 93.308 70.219 93.556 71.010 C 93.804 71.801 93.367 72.645 92.576 72.893 C 91.111 73.352 87.023 75.872 84.797 77.352 C 84.539 77.521 84.251 77.602 83.966 77.602 L 83.966 77.602 L 83.966 77.602 L 83.966 77.602 L 83.966 77.602 L 83.966 77.602 L 83.966 77.602 L 83.966 77.602 L 83.966 77.602 L 83.966 77.602 L 83.966 77.602 L 83.966 77.602 L 83.966 77.602 L 83.966 77.602 L 83.966 77.602 L 83.966 77.602 L 83.966 77.602 L 83.966 77.602 L 83.966 77.602 Z " transform="matrix(0.9036146402359009, 0, 0, 0.908536970615387, -0.4, -0.45)"/>
      <path id="Mouth_1_" fill="none" stroke="#231F20" stroke-linecap="round" d="M 57.378 89.473 C 57.378 89.473 63.529 81.703 72.593 81.703 C 81.655 81.703 87.808 87.531 87.808 87.531 " transform="matrix(0.9036146402359009, 0, 0, 0.908536970615387, -0.4, -0.45)"/>
    </g>
  </g>
</svg>