<svg version="1.1" width="208" height="86" viewBox="-1 -1 208 86" xmlns="http://www.w3.org/2000/svg" xmlns:xlink="http://www.w3.org/1999/xlink">
  <!-- Exported by Scratch - http://scratch.mit.edu/ -->
  <g id="ID0.4650039882399142" transform="matrix(1, 0, 0, 1, -0.25, 0)">
    <g id="Page-1">
      <g id="polar-bear-a-[animals,cold,north-pole,south-pole,ice,antarctica,arctic,robert-hunter]">
        <g id="Back-Back-Leg">
          <path id="Fill-1" fill="#E2DDC9" stroke="none" stroke-width="1" d="M 23.087 47.515 L 0.282 47.515 L 20.080 0.181 C 20.080 0.181 45.224 4.894 45.558 4.537 C 45.892 4.181 55.582 17.698 55.582 17.698 C 55.582 17.698 28.183 39.431 17.741 43.931 C 17.741 43.931 20.247 44.515 23.087 47.515 " transform="matrix(1, 0, 0, 1, 0.25, 37)"/>
          <path id="Fill-3" fill="#4D4F68" stroke="none" stroke-width="1" d="M 19.532 47.515 C 19.532 47.515 19.391 45.546 18.780 44.484 C 19.579 44.095 23.087 47.515 23.087 47.515 L 19.532 47.515 Z " transform="matrix(1, 0, 0, 1, 0.25, 37)"/>
          <path id="Stroke-5" fill="none" stroke="#7593B1" stroke-width="0.5" d="M 23.087 47.515 L 0.282 47.515 L 20.080 0.181 C 20.080 0.181 45.224 4.894 45.558 4.537 C 45.892 4.181 55.582 17.698 55.582 17.698 C 55.582 17.698 28.183 39.431 17.741 43.931 C 17.741 43.931 20.247 44.515 23.087 47.515 Z " transform="matrix(1, 0, 0, 1, 0.25, 37)"/>
        </g>
        <g id="Back-Front-Leg">
          <path id="Fill-9" fill="#E2DDC9" stroke="none" stroke-width="1" d="M 89.040 21.515 L 67.321 21.515 L 74.755 4.181 L 96.517 0.681 L 85.114 18.599 C 85.114 18.599 87.787 19.099 89.040 21.515 " transform="matrix(1, 0, 0, 1, 18.25, 63)"/>
          <path id="Fill-11" fill="#4D4F68" stroke="none" stroke-width="1" d="M 84.909 21.515 C 84.909 21.515 84.673 18.392 85.719 18.690 C 88.069 19.359 89.040 21.515 89.040 21.515 L 84.909 21.515 Z " transform="matrix(1, 0, 0, 1, 18.25, 63)"/>
          <path id="Stroke-13" fill="none" stroke="#7593B1" stroke-width="0.5" d="M 89.040 21.515 L 67.321 21.515 L 74.755 4.181 L 96.517 0.681 L 85.114 18.599 C 85.114 18.599 87.787 19.099 89.040 21.515 Z " transform="matrix(1, 0, 0, 1, 18.25, 63)"/>
          <path id="Stroke-15" fill="none" stroke="#7593B1" stroke-width="0.5" d="M 85.114 21.515 C 85.114 21.515 84.468 19.273 85.471 18.690 L 85.114 21.515 Z M 0.242 18.095 C 0.242 18.095 1.662 19.181 1.495 21.515 L 0.242 18.095 Z " transform="matrix(1, 0, 0, 1, 18.25, 63)"/>
        </g>
        <g id="Ear">
          <path id="Fill-17" fill="#E2DDC9" stroke="none" stroke-width="1" d="M 1.115 4.464 L 0.887 0.872 C 0.887 0.872 0.665 -0.093 1.242 0.216 C 1.817 0.525 4.945 2.159 4.945 2.159 C 4.945 2.159 5.234 2.293 5.248 3.210 C 5.263 4.128 5.580 6.097 5.580 6.097 " transform="matrix(1, 0, 0, 1, 179.25, 29)"/>
          <path id="Stroke-19" fill="none" stroke="#7593B1" stroke-width="0.5" d="M 1.115 4.464 L 0.887 0.872 C 0.887 0.872 0.665 -0.093 1.241 0.216 C 1.817 0.525 4.945 2.159 4.945 2.159 C 4.945 2.159 5.233 2.293 5.248 3.210 C 5.262 4.128 5.579 6.097 5.579 6.097 " transform="matrix(1, 0, 0, 1, 179.25, 29)"/>
          <path id="Fill-21" fill="#4D4F68" stroke="none" stroke-width="1" d="M 2.128 4.264 L 1.782 2.524 C 1.782 2.524 1.525 1.370 2.205 1.682 C 2.885 1.994 4.040 2.508 4.040 2.508 C 4.040 2.508 4.328 2.683 4.372 3.309 C 4.415 3.936 4.673 5.131 4.673 5.131 L 2.128 4.264 Z " transform="matrix(1, 0, 0, 1, 179.25, 29)"/>
        </g>
        <path id="Fill-23" fill="#FBF8EA" stroke="none" stroke-width="1" d="M 30.062 15.973 C 31.482 14.515 51.531 3.515 62.181 0.765 C 72.832 -1.985 95.986 5.864 109.350 8.036 C 130.025 11.395 136.157 11.297 139.242 12.640 C 140.784 13.398 145.132 18.015 150.144 21.140 C 155.156 24.265 158.295 25.453 162.674 27.140 C 174.703 31.453 176.395 30.765 181.282 32.140 C 184.097 33.070 193.185 37.078 193.185 37.078 C 193.185 37.078 198.949 42.078 205.846 44.233 C 205.846 44.233 207.344 44.547 206.530 46.203 C 205.716 48.390 200.829 53.828 199.012 54.953 C 199.012 54.953 197.300 53.307 189.406 55.015 C 183.192 56.359 182.482 57.463 175.152 58.182 C 167.822 58.901 109.964 67.640 104.492 68.682 C 99.020 69.724 96.473 70.432 95.220 70.474 C 93.967 70.515 67.528 65.849 55.833 63.265 C 44.138 60.682 26.387 54.849 22.377 48.682 C 22.377 48.682 20.790 52.265 19.424 52.319 C 18.255 52.365 16.404 48.515 16.363 46.724 C 16.321 44.932 16.237 44.015 18.159 39.140 C 20.080 34.265 26.930 19.140 30.062 15.973 " transform="matrix(1, 0, 0, 1, 0.25, 0)"/>
        <g id="Face">
          <path id="Fill-25" fill="#E0DAC5" stroke="none" stroke-width="1" d="M 1.533 12.744 C 1.533 12.744 -2.142 11.265 3.747 5.098 C 5.168 3.610 7.695 1.911 9.450 1.415 C 10.567 1.100 12.623 0.141 13.685 1.057 C 15.233 2.392 19.584 1.238 16.901 5.473 C 14.815 8.765 10.012 12.953 10.012 12.953 C 10.012 12.953 8.091 11.431 1.533 12.744 " transform="matrix(1, 0, 0, 1, 189.25, 42)"/>
          <path id="Fill-29" fill="#000000" stroke="none" stroke-width="1" d="M 14.915 3.937 C 14.601 3.499 14.034 2.551 14.880 2.447 C 16.074 2.301 17.375 2.489 17.375 2.489 C 17.375 2.489 18.045 3.145 17.606 4.036 C 17.168 4.926 16.205 6.421 16.205 6.421 L 16.528 5.062 C 16.528 5.062 16.731 4.499 16.168 4.484 C 15.931 4.477 15.422 4.645 14.915 3.937 " transform="matrix(1, 0, 0, 1, 189.25, 42)"/>
          <path id="Stroke-31" fill="none" stroke="#7593B1" stroke-width="0.5" d="M 1.533 9.265 C 1.533 9.265 2.244 10.181 3.789 10.181 C 5.334 10.181 13.178 10.049 13.178 10.049 " transform="matrix(1, 0, 0, 1, 189.25, 42)"/>
        </g>
        <path id="Stroke-27" fill="none" stroke="#7593B1" stroke-width="0.5" d="M 30.062 15.973 C 31.482 14.515 51.531 3.515 62.181 0.765 C 72.832 -1.985 95.986 5.864 109.350 8.036 C 130.025 11.395 136.157 11.297 139.242 12.640 C 140.784 13.398 145.132 18.015 150.144 21.140 C 155.156 24.265 158.295 25.453 162.674 27.140 C 174.703 31.453 176.395 30.765 181.282 32.140 C 184.097 33.070 193.185 37.078 193.185 37.078 C 193.185 37.078 198.949 42.078 205.846 44.233 C 205.846 44.233 207.344 44.547 206.530 46.203 C 205.716 48.390 200.829 53.828 199.012 54.953 C 199.012 54.953 197.300 53.307 189.406 55.015 C 183.192 56.359 182.482 57.463 175.152 58.182 C 167.822 58.901 109.964 67.640 104.492 68.682 C 99.020 69.724 96.473 70.432 95.220 70.474 C 93.967 70.515 67.528 65.849 55.833 63.265 C 44.138 60.682 26.387 54.849 22.377 48.682 C 22.377 48.682 20.790 52.265 19.424 52.319 C 18.255 52.365 16.404 48.515 16.363 46.724 C 16.321 44.932 16.237 44.015 18.159 39.140 C 20.080 34.265 26.930 19.140 30.062 15.973 Z " transform="matrix(1, 0, 0, 1, 0.25, 0)"/>
        <path id="Stroke-33" fill="none" stroke="#7593B1" stroke-width="0.5" d="M 114.517 14.765 C 114.642 14.723 121.032 11.057 125.668 11.848 C 130.305 12.640 138.616 19.431 138.616 19.431 " transform="matrix(1, 0, 0, 1, 0.25, 0)"/>
        <g id="EYE">
          <path id="Fill-35" fill="#4D6E8C" stroke="none" stroke-width="1" d="M 0.858 1.807 L 5.410 0.432 C 5.410 0.432 6.037 1.557 5.619 2.390 C 5.202 3.223 0.858 1.807 0.858 1.807 " transform="matrix(1, 0, 0, 1, 186.25, 39)"/>
          <path id="Fill-37" fill="#000000" stroke="none" stroke-width="1" d="M 4.820 2.538 C 4.820 2.538 4.178 2.343 4.069 1.624 C 3.960 0.911 4.554 0.690 4.554 0.690 L 5.410 0.432 C 5.410 0.432 5.741 0.780 5.738 1.411 C 5.735 2.042 5.464 2.538 5.464 2.538 L 4.820 2.538 Z " transform="matrix(1, 0, 0, 1, 186.25, 39)"/>
          <path id="Stroke-39" fill="none" stroke="#000000" stroke-width="0.5" d="M 0.858 1.807 L 5.410 0.432 C 5.410 0.432 6.037 1.557 5.619 2.390 C 5.202 3.223 0.858 1.807 0.858 1.807 Z " transform="matrix(1, 0, 0, 1, 186.25, 39)"/>
        </g>
        <g id="Ear">
          <path id="Fill-41" fill="#FBF8EA" stroke="none" stroke-width="1" d="M 1.034 10.354 L 0.031 4.438 C 0.031 4.438 -0.135 4.188 0.533 3.563 C 1.201 2.938 3.916 0.396 3.916 0.396 C 3.916 0.396 4.292 0.021 4.751 0.646 C 5.210 1.271 7.675 4.479 7.675 4.479 " transform="matrix(1, 0, 0, 1, 172.15, 29.7)"/>
          <path id="Stroke-43" fill="none" stroke="#7593B1" stroke-width="0.5" d="M 1.034 10.354 L 0.031 4.438 C 0.031 4.438 -0.135 4.188 0.533 3.563 C 1.201 2.938 3.916 0.396 3.916 0.396 C 3.916 0.396 4.292 0.021 4.751 0.646 C 5.210 1.271 7.675 4.479 7.675 4.479 " transform="matrix(1, 0, 0, 1, 172.15, 29.7)"/>
          <path id="Fill-45" fill="#4D4F68" stroke="none" stroke-width="1" d="M 2.148 9.408 L 1.563 6.887 C 1.563 6.887 0.929 4.562 2.334 3.260 C 3.552 2.130 4.313 0.917 5.030 2.575 C 5.588 3.864 6.255 4.708 6.255 4.708 C 6.255 4.708 7.007 5.167 5.284 6.599 C 4.024 7.647 2.278 10.158 2.148 9.408 " transform="matrix(1, 0, 0, 1, 172.15, 29.7)"/>
        </g>
        <g id="Front-Front-Leg">
          <path id="Fill-47" fill="#FBF8EA" stroke="none" stroke-width="1" d="M 2.040 0.432 L 2.040 23.598 C 2.040 23.598 17.995 35.265 25.597 45.515 L 48.235 45.515 C 48.235 45.515 47.149 42.182 43.139 41.932 C 43.139 41.932 38.709 38.889 35.621 34.932 L 30.031 20.538 C 30.031 20.538 30.860 15.515 32.029 12.723 " transform="matrix(1, 0, 0, 1, 105.25, 39)"/>
          <path id="Fill-49" fill="#4D4F68" stroke="none" stroke-width="1" d="M 39.798 45.390 C 39.798 45.390 41.730 41.765 43.139 41.931 C 47.569 42.456 48.235 45.515 48.235 45.515 L 39.798 45.390 Z " transform="matrix(1, 0, 0, 1, 105.25, 39)"/>
          <path id="Stroke-51" fill="none" stroke="#7593B1" stroke-width="0.5" d="M 2.040 0.432 L 2.040 23.598 C 2.040 23.598 17.995 35.265 25.597 45.515 L 48.235 45.515 C 48.235 45.515 47.149 42.182 43.139 41.932 C 43.139 41.932 38.709 38.889 35.621 34.932 L 30.031 20.538 C 30.031 20.538 30.860 15.515 32.029 12.723 " transform="matrix(1, 0, 0, 1, 105.25, 39)"/>
          <path id="Stroke-53" fill="none" stroke="#7593B1" stroke-width="0.5" d="M 33.616 14.932 C 33.616 14.932 31.395 14.044 30.838 16.613 " transform="matrix(1, 0, 0, 1, 105.25, 39)"/>
          <path id="Stroke-55" fill="none" stroke="#7593B1" stroke-width="0.5" d="M 0.369 2.538 C 0.620 2.954 2.040 3.515 2.040 8.015 " transform="matrix(1, 0, 0, 1, 105.25, 39)"/>
          <path id="Stroke-57" fill="none" stroke="#7593B1" stroke-width="0.5" d="M 39.798 45.515 C 39.798 45.515 40.466 43.015 43.139 41.931 " transform="matrix(1, 0, 0, 1, 105.25, 39)"/>
        </g>
        <g id="Front-Back-Leg">
          <path id="Fill-59" fill="#FBF8EA" stroke="none" stroke-width="1" d="M 39.929 0.280 C 39.929 0.280 57.972 15.348 56.719 26.682 C 56.302 30.348 42.936 49.348 42.936 49.348 C 42.936 49.348 49.201 51.681 51.791 54.515 L 26.981 54.515 L 0.166 17.015 " transform="matrix(1, 0, 0, 1, 21.25, 30)"/>
          <path id="Fill-61" fill="#4D4F68" stroke="none" stroke-width="1" d="M 45.024 54.515 C 45.024 54.515 45.192 51.477 46.515 50.931 C 46.989 50.736 51.791 54.515 51.791 54.515 L 45.024 54.515 Z " transform="matrix(1, 0, 0, 1, 21.25, 30)"/>
          <path id="Stroke-63" fill="none" stroke="#7593B1" stroke-width="0.5" d="M 39.929 0.280 C 39.929 0.280 57.972 15.348 56.719 26.682 C 56.302 30.348 42.936 49.348 42.936 49.348 C 42.936 49.348 49.201 51.681 51.791 54.515 L 26.981 54.515 L 0.166 17.015 " transform="matrix(1, 0, 0, 1, 21.25, 30)"/>
          <path id="Stroke-65" fill="none" stroke="#7593B1" stroke-width="0.5" d="M 45.024 54.515 C 45.108 54.265 44.690 52.515 46.515 50.931 " transform="matrix(1, 0, 0, 1, 21.25, 30)"/>
        </g>
      </g>
    </g>
  </g>
</svg>