<?xml version="1.0" encoding="utf-8"?>
<!-- Generator: Adobe Illustrator 18.0.0, SVG Export Plug-In . SVG Version: 6.00 Build 0)  -->
<!DOCTYPE svg PUBLIC "-//W3C//DTD SVG 1.1//EN" "http://www.w3.org/Graphics/SVG/1.1/DTD/svg11.dtd">
<svg version="1.1" id="Layer_2" xmlns="http://www.w3.org/2000/svg" xmlns:xlink="http://www.w3.org/1999/xlink" x="0px" y="0px"
	 viewBox="0 0 60.3 51.6" enable-background="new 0 0 60.3 51.6" xml:space="preserve">
<g>
	<path fill="#53AD4E" d="M59.2,45.1c-0.3,0-0.7-0.1-1-0.1c-1.4-0.1-1.8-0.5-1.7-2c0.1-2.4,0.2-4.9,0.2-7.3
		c0.1-7.8,0.1-15.7,0.1-23.5c0-0.5-0.1-1-0.1-1.5c0-2.3,0-4.5,0-6.8c0-0.6,0.4-0.9,1-0.9s1.3,0,1.9,0c0.2,0,0.5-0.1,0.6-0.2
		c0.1-0.6,0.2-1.2,0-1.8c-0.1-0.2-0.7-0.5-1.1-0.5c-2.4-0.1-4.8-0.1-7.3-0.1c-0.9,0-1.7,0.1-2.6,0.1c-0.2,0-0.3,0.1-0.5,0.2
		c-0.5,0.4-1,0.8-1.5,1.2C45.7,3,43.9,4,43,5.9c-0.6,1.2-1.4,2.3-1.9,3.5c-0.5,1.2-0.8,2.5-1.2,3.8c-0.4,1.2-0.8,2.5-1.2,3.7
		c-1,2.7-1.8,5.4-2.9,8c-1.2,2.8-2.6,5.6-3.9,8.4c-0.2,0.4-0.5,0.8-0.7,1.2c-0.1,0-0.1,0-0.2-0.1c-0.2-0.6-0.4-1.2-0.6-1.8
		c-0.9-2-1.8-3.9-2.6-5.9c-0.9-2.2-1.8-4.5-2.7-6.7c-1-2.5-1.8-5.1-2.7-7.6c-1.5-3.7-3-7.4-4.5-11.1C17.3,0.2,17.1,0,15.9,0
		c-3.2,0-6.5,0-9.7,0C5.9,0,5.5,0.2,5.3,0.4C3.7,2.2,2.2,4,0.7,5.9c-0.3,0.4-0.5,1-0.6,1.6C-0.1,10-0.3,9.9,2.3,9.9
		c1.1,0,1.6,0.4,1.7,1.5c0.1,1.7,0.3,3.4,0.3,5.1c0,3.2,0,6.4-0.1,9.6C4,32.6,3.9,39.3,3.7,45.9c0,0.4-0.3,0.8-0.5,1
		c-0.3,0.3-0.8,0.6-1.1,0.9c-0.9,0.8-0.8,1.8-0.6,2.8c0.1,0.6,0.3,0.8,0.9,0.8c3.9,0,7.8,0,11.8,0c0.3,0,0.7-0.3,1-0.6
		c0.4-0.5,0.7-1.2,1.2-1.7c0.7-0.7,1.1-1.3,1.1-2.4c0-2,0.1-2-2-2.1c-0.7,0-1.3-0.5-1.4-1.2c-0.2-0.9-0.3-1.8-0.2-2.7
		c0.1-4.1,0.2-8.3,0.3-12.4c0-2-0.1-4.1-0.1-6.2c0-0.2,0-0.4,0.1-0.8c0.3,0.6,0.4,0.9,0.6,1.2c1.1,2.4,2.1,4.8,3.3,7.1
		c1.9,3.4,3.4,7.1,5,10.7c0.9,2,1.6,4.1,2.8,6c0.8,1.4,1.2,3,1.9,4.6c0.1,0.2,0.3,0.4,0.5,0.5c0.2,0.1,0.5,0,0.8,0
		c1.1,0.1,1.9,0.1,2.5-1.2c0.8-1.8,2.1-3.4,3-5.2c1.3-2.5,2.4-5,3.6-7.5c1.1-2.6,2.1-5.2,3.2-7.7c1.2-2.9,2.4-5.8,3.6-8.6
		c0.3-0.7,0.5-1.5,0.8-2.3c0.1,0.1,0.1,0.1,0.2,0.2c0,2.4,0.1,4.7,0.1,7.1c0,4.1-0.3,8.2,0.1,12.3c0.2,1.9,0.3,3.8,0.4,5.7
		c0,0.2-0.1,0.6-0.2,0.8c-0.8,0.7-1.7,1.4-2.6,2c-1.1,0.8-1.4,1.7-1.3,3c0.1,0.9,0.2,1.1,1.2,1.1c1.8,0.1,3.7,0.2,5.5,0.2
		c2.7,0.1,5.3,0,7.9,0c0.2-0.3,0.4-0.7,0.6-0.9c0.5-0.7,1.2-1.3,1.7-2c0.5-0.6,0.9-1.3,1.1-2C60.4,45.6,60.1,45.2,59.2,45.1z
		 M2.3,9.3c-0.5,0-1,0-1.6,0c0.1-1.3,0-2.4,0.9-3.4c1.3-1.5,2.6-3.1,3.9-4.6c0,0,0,0,0,0C5.6,2.7,5.6,2.7,7,2.7
		c1.7,0.1,2.3,0.7,2.3,2.4c0.1,3.4,0.2,6.7,0.2,10.1c0,2-0.2,4-0.2,6c0,2.4,0.3,4.7,0.3,7.1c0,1.9-0.1,3.9-0.2,5.8
		c-0.1,1.2-0.1,2.4-0.1,3.5c-0.1,2.1-0.1,4.2-0.2,6.3c0,0.2-0.2,0.4-0.4,0.5c-0.5,0.2-1,0.4-1.5,0.4c-1,0.1-2,0.1-2.6,1.1
		c-0.1,0-0.2-0.1-0.2-0.1c0-0.9,0-1.8,0-2.7c0.1-3.1,0.3-6.3,0.3-9.4c0.1-3.4,0.1-6.8,0.1-10.2c0-2.7,0.1-5.4,0.1-8.1
		c0-1.4-0.2-2.8-0.4-4.2C4.4,9.9,3.6,9.3,2.3,9.3z M2.1,50.5c-0.4-0.9-0.1-1.7,0.5-2.2c0.9-0.8,1.8-1.4,2.8-2.1c0.4,1.3,0.2,2-1,2.8
		C3.7,49.6,2.9,50,2.1,50.5z M15.9,48.2c-0.5,0.7-1,1.5-1.5,2.3c-0.1,0.2-0.4,0.3-0.6,0.3c-3.4,0-6.9,0-10.3,0.1
		c-0.1,0-0.3-0.1-0.4-0.1c1-0.8,2-1.6,3.1-2.2c0.6-0.3,1.3-0.3,2-0.4C10.9,48.2,13.5,48.2,15.9,48.2z M49.2,9.2c0.1,0,0.2,0,0.3,0.1
		c-0.1,2.4-0.3,4.9-0.3,7.3c0,3.5,0.1,7,0.1,10.4c0.1,4.4,0.2,8.8,0.3,13.2c0,1.1-0.1,2.2-0.2,3.4c0,0.3-0.2,0.6-0.5,0.7
		c-0.6,0.3-1.3,0.5-2,0.7c-0.2-2.1-0.2-3.9-0.4-5.8c-0.5-4.6-0.2-9.1-0.1-13.7c0.1-2.7-0.2-5.4-0.2-8c0-0.5,0.1-0.9,0.2-1.4
		c0.4-1.1,0.8-2.2,1.3-3.3C48.2,11.6,48.7,10.4,49.2,9.2z M27.7,50c-0.2-0.4-0.2-0.8-0.4-1.1c-0.9-1.9-1.8-3.8-2.6-5.6
		c-1.5-3.4-2.9-6.8-4.3-10.2c-0.1-0.3-0.3-0.6-0.4-0.9c-2-4-4-8.1-6-12.1c-0.1-0.3-0.2-0.6-0.2-0.9c0-3.2,0-6.3,0-9.5
		c0-0.1,0-0.2,0.1-0.5c0.6,1.3,1.1,2.3,1.6,3.4c0.9,2,1.8,4.1,2.7,6c1.9,3.8,3.2,7.8,4.6,11.8C24,34,25.4,37.6,27.1,41
		c0.6,1.2,1.2,2.5,1.8,3.8c0.5,1,0.4,1.8-0.1,2.7C28.5,48.3,28.1,49.1,27.7,50z M29.8,51.1c-0.4,0-1-0.1-1.6-0.2c0.5-1.1,1-2,1.3-3
		c0.3-1,0.9-1.4,1.9-1.2c0.4,0.1,0.8,0,1.4-0.1C31.8,48.2,30.8,49.6,29.8,51.1z M41.6,18.8c-0.7,1.8-1.1,3.6-2,5.3
		c-2,3.9-3.1,8.1-4.8,12.1c-0.5,1.1-1.1,2.1-1.6,3.1c-0.1,0-0.2-0.1-0.2-0.1c-0.5-1.3-1-2.6-1.5-3.8c0.4-0.7,0.8-1.2,1-1.9
		c1.3-2.8,2.7-5.5,3.9-8.4c1.1-2.6,2-5.4,3-8.1c0.3-0.9,0.6-1.8,0.8-2.6c0.5-1.7,1-3.3,1.6-5c0.2-0.7,0.6-1.3,1-1.9
		C43,7,43.3,6.5,43.7,5.9c0.3-0.4,0.6-0.9,1-1.2c1.1-0.9,2.2-1.7,3.5-2.4c-0.2,0.5-0.4,0.9-0.6,1.4C45.6,8.7,43.6,13.8,41.6,18.8z
		 M42.6,50.5c0.1-0.7,0.1-1.4,0.4-1.8c0.6-0.9,1.4-1.7,2.2-2.5C45.9,47.6,44.3,49.7,42.6,50.5z M56,50.7c-0.2,0.2-0.6,0.3-1,0.3
		c-3.5-0.1-7-0.2-10.5-0.4c0,0-0.1,0-0.2-0.1c0.6-0.8,1.2-1.6,1.9-2.4c0.1-0.1,0.4-0.1,0.6-0.1c1.6,0,3.2,0,4.8-0.1
		c2.1-0.1,4.2-0.3,6.3-0.4c0.3,0,0.6,0,1.1,0C57.9,48.7,57,49.7,56,50.7z"/>
	<path fill="#FFFFFF" d="M4.4,49c-0.7,0.5-1.5,1-2.3,1.5c-0.4-0.9-0.1-1.7,0.5-2.2c0.9-0.8,1.8-1.4,2.8-2.1
		C5.7,47.5,5.5,48.2,4.4,49z"/>
	<path fill="#FFFFFF" d="M15.9,48.2c-0.5,0.7-1,1.5-1.5,2.3c-0.1,0.2-0.4,0.3-0.6,0.3c-3.4,0-6.9,0-10.3,0.1c-0.1,0-0.3-0.1-0.4-0.1
		c1-0.8,2-1.6,3.1-2.2c0.6-0.3,1.3-0.3,2-0.4C10.9,48.2,13.5,48.2,15.9,48.2z"/>
	<path fill="#FFFFFF" d="M32.8,46.6c-1.1,1.6-2,3-3,4.5c-0.4,0-1-0.1-1.6-0.2c0.5-1.1,1-2,1.3-3c0.3-1,0.9-1.4,1.9-1.2
		C31.8,46.7,32.2,46.6,32.8,46.6z"/>
	<path fill="#FFFFFF" d="M42.6,50.5c0.1-0.7,0.1-1.4,0.4-1.8c0.6-0.9,1.4-1.7,2.2-2.5C45.9,47.6,44.3,49.7,42.6,50.5z"/>
	<path fill="#FFFFFF" d="M59,47.5c-1.1,1.2-2,2.2-3,3.2c-0.2,0.2-0.6,0.3-1,0.3c-3.5-0.1-7-0.2-10.5-0.4c0,0-0.1,0-0.2-0.1
		c0.6-0.8,1.2-1.6,1.9-2.4c0.1-0.1,0.4-0.1,0.6-0.1c1.6,0,3.2,0,4.8-0.1c2.1-0.1,4.2-0.3,6.3-0.4C58.2,47.5,58.5,47.5,59,47.5z"/>
	<path fill="#FFFFFF" d="M49.7,40.2c0,1.1-0.1,2.2-0.2,3.4c0,0.3-0.2,0.6-0.5,0.7c-0.6,0.3-1.3,0.5-2,0.7c-0.2-2.1-0.2-3.9-0.4-5.8
		c-0.5-4.6-0.2-9.1-0.1-13.7c0.1-2.7-0.2-5.4-0.2-8c0-0.5,0.1-0.9,0.2-1.4c0.4-1.1,0.8-2.2,1.3-3.3c0.5-1.2,1-2.4,1.5-3.6
		c0.1,0,0.2,0,0.3,0.1c-0.1,2.4-0.3,4.9-0.3,7.3c0,3.5,0.1,7,0.1,10.4C49.5,31.4,49.6,35.8,49.7,40.2z"/>
	<path fill="#FFFFFF" d="M48.2,2.2c-0.2,0.5-0.4,0.9-0.6,1.4c-2,5.1-4,10.1-6,15.2c-0.7,1.8-1.1,3.6-2,5.3c-2,3.9-3.1,8.1-4.8,12.1
		c-0.5,1.1-1.1,2.1-1.6,3.1c-0.1,0-0.2-0.1-0.2-0.1c-0.5-1.3-1-2.6-1.5-3.8c0.4-0.7,0.8-1.2,1-1.9c1.3-2.8,2.7-5.5,3.9-8.4
		c1.1-2.6,2-5.4,3-8.1c0.3-0.9,0.6-1.8,0.8-2.6c0.5-1.7,1-3.3,1.6-5c0.2-0.7,0.6-1.3,1-1.9C43,7,43.3,6.5,43.7,5.9
		c0.3-0.4,0.6-0.9,1-1.2C45.7,3.8,46.9,3,48.2,2.2z"/>
	<path fill="#FFFFFF" d="M28.9,47.5c-0.4,0.8-0.8,1.6-1.2,2.5c-0.2-0.4-0.2-0.8-0.4-1.1c-0.9-1.9-1.8-3.8-2.6-5.6
		c-1.5-3.4-2.9-6.8-4.3-10.2c-0.1-0.3-0.3-0.6-0.4-0.9c-2-4-4-8.1-6-12.1c-0.1-0.3-0.2-0.6-0.2-0.9c0-3.2,0-6.3,0-9.5
		c0-0.1,0-0.2,0.1-0.5c0.6,1.3,1.1,2.3,1.6,3.4c0.9,2,1.8,4.1,2.7,6c1.9,3.8,3.2,7.8,4.6,11.8C24,34,25.4,37.6,27.1,41
		c0.6,1.2,1.2,2.5,1.8,3.8C29.5,45.7,29.3,46.6,28.9,47.5z"/>
	<path fill="#FFFFFF" d="M9.7,28.3c0,1.9-0.1,3.9-0.2,5.8c-0.1,1.2-0.1,2.4-0.1,3.5c-0.1,2.1-0.1,4.2-0.2,6.3c0,0.2-0.2,0.4-0.4,0.5
		c-0.5,0.2-1,0.4-1.5,0.4c-1,0.1-2,0.1-2.6,1.1c-0.1,0-0.2-0.1-0.2-0.1c0-0.9,0-1.8,0-2.7c0.1-3.1,0.3-6.3,0.3-9.4
		c0.1-3.4,0.1-6.8,0.1-10.2c0-2.7,0.1-5.4,0.1-8.1c0-1.4-0.2-2.8-0.4-4.2c-0.2-1.3-1-1.9-2.3-2c-0.5,0-1,0-1.6,0
		c0.1-1.3,0-2.4,0.9-3.4c1.3-1.5,2.6-3.1,3.9-4.6c0,0,0,0,0,0C5.6,2.7,5.6,2.7,7,2.7c1.7,0.1,2.3,0.7,2.3,2.4
		c0.1,3.4,0.2,6.7,0.2,10.1c0,2-0.2,4-0.2,6C9.5,23.6,9.7,25.9,9.7,28.3z"/>
</g>
</svg>
