<svg version="1.1" width="60" height="79" xmlns="http://www.w3.org/2000/svg" xmlns:xlink="http://www.w3.org/1999/xlink">
  <!-- Exported by Scratch - http://scratch.mit.edu/ -->
  <g id="ID0.5927098118700087">
    <g id="ID0.4447302892804146">
      <g id="ID0.7447618972510099">
        <path id="ID0.10947818402200937" fill="#00CCCC" d="M 59.880 14.117 C 59.590 17.567 58.110 20.617 55.750 22.917 C 56.910 27.627 57.450 31.307 57.450 34.397 L 57.450 42.397 C 57.450 47.757 57.080 51.637 56.290 54.627 C 54.880 59.937 54.490 61.117 54.240 61.807 C 52.480 66.697 49.810 70.567 46.320 73.267 C 42.770 76.007 38.670 77.737 34.120 78.427 C 33.930 78.457 33.730 78.487 33.540 78.507 C 32.590 78.597 31.580 78.647 30.530 78.647 C 23.980 78.647 17.640 76.737 11.710 72.977 C 1.630 66.547 -0.040 58.427 0.060 53.427 C 0.020 52.937 0 52.437 0 51.897 C 0 49.247 0.530 46.527 1.590 43.827 C 3.450 39.017 6.480 36.517 8.690 35.277 C 13.470 32.647 17.110 31.487 20.590 31.487 C 24.070 31.487 27.390 32.727 30.090 35.017 C 29.970 33.637 29.730 32.167 29.360 30.607 C 26.790 30.517 24.360 29.787 22.300 28.487 C 19.550 26.727 17.630 24.577 16.510 22.037 C 14.860 18.357 15.230 15.157 15.880 13.047 C 17.570 7.447 22.200 3.397 28.620 1.947 C 28.960 1.867 29.310 1.807 29.660 1.757 C 31.360 1.537 33.090 1.317 34.840 1.097 C 36.360 0.817 39.100 0.467 45.900 0.027 C 46.600 -0.023 47.300 -0.003 47.990 0.087 C 49.940 0.327 52.860 1.177 55.670 3.837 C 59.360 7.317 59.910 11.197 59.910 13.197 C 59.910 13.507 59.900 13.817 59.880 14.117 Z "/>
      </g>
    </g>
    <g id="ID0.1137806847691536">
      <path id="ID0.6012937603518367" fill="#FFFFFF" d="M 48.914 13.198 C 48.796 14.605 47.916 15.544 46.275 16.012 C 44.984 16.306 43.693 16.599 42.404 16.892 C 43.166 18.593 43.988 21.202 44.867 24.720 C 45.923 28.884 46.451 32.109 46.451 34.396 L 46.451 42.400 C 46.451 46.681 46.186 49.819 45.659 51.812 C 44.721 55.331 44.134 57.413 43.900 58.057 C 42.844 60.990 41.407 63.160 39.589 64.567 C 37.536 66.150 35.161 67.146 32.465 67.557 C 31.878 67.615 31.234 67.645 30.529 67.645 C 26.072 67.645 21.761 66.326 17.598 63.687 C 12.907 60.696 10.738 57.149 11.089 53.043 C 11.030 52.750 11.001 52.369 11.001 51.899 C 11.001 50.610 11.278 49.247 11.837 47.809 C 12.394 46.372 13.141 45.390 14.080 44.862 C 16.952 43.279 19.122 42.487 20.589 42.487 C 21.585 42.487 22.480 42.883 23.272 43.675 C 24.064 44.467 24.460 45.362 24.460 46.359 C 24.460 47.180 24.108 47.884 23.404 48.469 C 23.169 48.645 22.641 48.764 21.821 48.822 C 20.883 48.940 20.310 48.837 20.105 48.513 C 19.899 48.192 19.446 47.737 18.742 47.150 C 18.508 47.034 18.155 47.092 17.686 47.326 C 16.923 47.621 16.484 48.324 16.367 49.437 C 16.426 50.024 16.455 50.875 16.455 51.988 C 16.396 53.924 17.188 55.918 18.830 57.969 C 19.007 58.145 19.974 58.791 21.733 59.905 C 25.192 62.016 28.212 63.071 30.793 63.071 C 31.438 63.071 32.054 63.013 32.641 62.895 C 33.520 62.779 34.663 62.338 36.071 61.576 C 38.064 59.465 39.443 56.533 40.206 52.780 C 40.615 50.669 40.938 47.356 41.173 42.841 L 41.173 36.860 C 41.173 33.166 40.498 29.120 39.151 24.721 C 39.151 24.545 39.151 24.282 39.151 23.929 C 38.916 23.753 38.712 23.314 38.535 22.610 C 38.241 21.672 38.065 21.145 38.008 21.027 C 37.949 20.500 37.861 19.899 37.744 19.224 C 37.626 18.550 37.304 18.124 36.776 17.948 C 36.482 17.890 35.486 18.155 33.786 18.740 C 31.908 19.327 30.619 19.620 29.915 19.620 C 29.212 19.620 28.625 19.474 28.156 19.180 C 27.334 18.653 26.806 18.125 26.573 17.597 C 26.338 17.070 26.279 16.629 26.397 16.278 C 26.924 14.462 28.477 13.258 31.058 12.672 C 32.875 12.439 34.722 12.203 36.600 11.969 C 37.949 11.676 41.290 11.353 46.627 11.001 C 47.096 11.060 47.595 11.339 48.122 11.837 C 48.649 12.335 48.914 12.788 48.914 13.198 Z "/>
    </g>
  </g>
</svg>