<svg width="81px" height="55px" viewBox="0 0 81 55" version="1.1" xml:space="preserve" xmlns="http://www.w3.org/2000/svg" xmlns:xlink="http://www.w3.org/1999/xlink">
  <!-- Generator: Sketch 50.2 (55047) - http://www.bohemiancoding.com/sketch -->
  <defs/>
  <g>
    <title>Slice 1</title>
    <desc>Created with Sketch.</desc>
    <g id="Page-1" stroke="none" stroke-width="1" fill="none" fill-rule="evenodd">
      <g id="hat-d-[people,fashion,hat]" transform="translate(1.000000, 1.000000)">
        <g id="Brim" transform="translate(0.000000, 14.454545)">
          <path d="M71.1,22.3684091 C74.3198485,16.1529545 72.3687879,10.3229545 67.8442424,6.02272727 C60.6624242,2.40909091 50.6557576,0.108409091 39.5,0.108409091 C17.9545455,0.108409091 0.418939394,8.6125 0.418939394,19.0920455 C0.418939394,29.5715909 17.9545455,38.0877273 39.5,38.0877273 C40.8525758,38.0877273 42.1812121,38.0877273 43.4978788,37.9913636 C53.2531818,35.8593182 66.4078788,31.3904545 71.1,22.3684091 Z" id="Shape" fill="#FFF2BB" fill-rule="nonzero"/>
          <path d="M78.5810606,19.0920455 C78.5810606,14.0329545 74.4993939,9.45568182 67.8083333,6.02272727 C72.3328788,10.3470455 74.2839394,16.1529545 71.0640909,22.3684091 C66.3719697,31.3904545 53.2172727,35.8593182 43.4619697,38.0275 C63.2,37.0156818 78.5810606,28.9090909 78.5810606,19.0920455 Z" id="Shape" fill="#FFFFFF" fill-rule="nonzero"/>
          <path d="M67.8442424,6.02272727 C60.6624242,2.40909091 50.6557576,0.108409091 39.5,0.108409091 C17.9545455,0.108409091 0.418939394,8.6125 0.418939394,19.0920455 C0.418939394,29.5715909 17.9545455,38.0877273 39.5,38.0877273 C40.8525758,38.0877273 42.1812121,38.0877273 43.4978788,37.9913636 C63.2,37.0156818 78.5810606,28.9331818 78.5810606,19.0920455 C78.5810606,14.0329545 74.4993939,9.43159091 67.8442424,6.02272727 Z" id="Shape" stroke="#5E154D" stroke-width="0.96" stroke-linecap="round" stroke-linejoin="round"/>
          <path d="M23.9393939,33.0406818 C24.885,33.2575 25.8545455,33.4622727 26.8719697,33.6188636" id="Shape" stroke="#EFDC8F" stroke-width="1.92" stroke-linecap="round" stroke-linejoin="round"/>
          <path d="M8.01969697,25.6688636 C11.6055311,28.457016 15.6597742,30.5744856 19.9893939,31.9204545" id="Shape" stroke="#EFDC8F" stroke-width="1.92" stroke-linecap="round" stroke-linejoin="round"/>
        </g>
        <path d="M39.5,33.5465909 C27.3866667,33.5465909 19.7260606,29.7402273 16.1471212,27.3793182 C15.4528788,31.1254545 15.0818182,33.7272727 15.0818182,33.7272727 C17.4332921,35.9886552 20.2600649,37.6888666 23.3528788,38.7020455 C28.5477273,40.4245455 32.4737879,40.9545455 39.5,40.9545455 C46.5262121,40.9545455 50.4522727,40.4486364 55.6471212,38.7261364 C58.7421265,37.7059014 61.5690821,35.997346 63.9181818,33.7272727 C63.9181818,33.7272727 63.5471212,31.1254545 62.8768182,27.3793182 C59.2978788,29.7402273 51.6372727,33.5345455 39.5,33.5465909 Z" id="Shape" stroke="#5E154D" stroke-width="0.96" fill="#5E154D" fill-rule="nonzero" stroke-linecap="round" stroke-linejoin="round"/>
        <g id="Dome" transform="translate(15.560606, 0.000000)">
          <path d="M18.3615152,23.5729545 C31.9590909,26.5 39.2486364,2.21636364 39.2486364,2.21636364 C36.5434848,-0.891363636 32.8568182,0.566136364 30.4389394,3.13181818 C28.7272727,4.99886364 26.465,5.42045455 23.9393939,5.42045455 C21.4137879,5.42045455 19.1515152,4.99886364 17.4398485,3.13181818 C16.2827679,1.82862683 14.7518912,0.919440472 13.0589394,0.53 C11.0121212,8.43181818 8.85757576,21.5252273 18.3615152,23.5729545 Z" id="Shape" fill="#FFFFFF" fill-rule="nonzero"/>
          <path d="M37.1060606,0.710681818 C35.2387879,9.63636364 29.5172727,25.705 18.3615152,22.8863636 C8.92939394,20.4772727 11.2874242,9.74477273 13.0589394,0.493863636 C11.3866343,0.191381375 9.68460078,0.839470099 8.63015152,2.18022727 C5.03924242,6.27568182 2.40590909,17.6104545 0.90969697,25.5122727 C0.778030303,26.1506818 0.67030303,26.7168182 0.562575758,27.3431818 C4.15348485,29.7522727 11.8021212,33.4984091 23.9154545,33.5104545 C36.0287879,33.5104545 43.6893939,29.7040909 47.2683333,27.3431818 C47.1606061,26.7529545 47.0528788,26.1386364 46.9331818,25.5122727 C46.6818182,23.9102273 42.4684848,1.97545455 37.1060606,0.710681818 Z" id="Shape" fill="#FFF2BB" fill-rule="nonzero"/>
          <path d="M46.9810606,25.5484091 C46.6578788,23.9102273 46.2987879,22.1275 45.8918182,20.2965909 C44.3237879,13.2620455 42.0615152,5.45659091 39.2486364,2.22840909 C36.4357576,-0.999772727 32.8568182,0.578181818 30.4389394,3.14386364 C28.7272727,4.99886364 26.465,5.42045455 23.9393939,5.42045455 C21.4137879,5.42045455 19.1515152,4.99886364 17.4398485,3.13181818 C16.2827679,1.82862683 14.7518912,0.919440472 13.0589394,0.53 C11.3866343,0.227517739 9.68460078,0.875606463 8.63015152,2.21636364 C5.03924242,6.31181818 2.40590909,17.6465909 0.90969697,25.5484091 C0.778030303,26.1868182 0.67030303,26.7529545 0.562575758,27.3793182 C4.15348485,29.7884091 11.8021212,33.5345455 23.9154545,33.5465909 C36.0287879,33.5465909 43.6893939,29.7402273 47.2683333,27.3793182 C47.2084848,26.7890909 47.1007576,26.1868182 46.9810606,25.5484091 Z" id="Shape" stroke="#5E154D" stroke-width="0.96" stroke-linecap="round" stroke-linejoin="round"/>
        </g>
      </g>
    </g>
  </g>
</svg>