<svg version="1.1" id="Layer_1" x="0px" y="0px" width="150px" height="150px" viewBox="0 0 150 150" enable-background="new 0 0 150 150" xml:space="preserve" xmlns="http://www.w3.org/2000/svg" xmlns:xlink="http://www.w3.org/1999/xlink">
  <g>
    <path fill="#007B00" d="M35.463,108.984c23.826-5.019,61.596-3.998,67.816,0c1.218,0.783-0.452,2.084-0.604,3.4&#xD;&#xA;&#x9;c-0.148,1.361,0.15,2.766-1.203,3.402c-2.459,1.191-4.363-0.766-7.223-1.021c-6.521-0.638-10.133-1.274-16.652-1.531&#xD;&#xA;&#x9;c-15.199-0.594-23.727-1.443-38.924,0.682L35.463,108.984z"/>
    <path fill="#1CCC42" d="M17.106,106.688c-3.812-1.189-7.875,0.979-11.537-2.125c-3.06-2.594-0.201-8.761,4.113-9.016&#xD;&#xA;&#x9;c-0.552-5.697,0.2-11.013,6.821-12.162c7.825-1.361,14.797,0,22.772,0.936c14.797,1.787,20.113,0,34.911,0&#xD;&#xA;&#x9;c0-4.295,1.103-11.651,1.103-11.651S88.13,81.516,88.631,84.32c0.352,1.963,13.442-2.041,18.86-2.041&#xD;&#xA;&#x9;c9.079,0,14.495,0.511,22.37,4.423c3.712,1.827,4.766,3.358,7.123,6.464c2.007,2.636,1.154,6.208,4.814,6.208&#xD;&#xA;&#x9;c3.713,7.653-4.814,9.228-11.234,10.205c-6.371,0.979-3.461-8.589-9.229-11.142c-7.224-3.23-13.394-2.764-19.16,2.127&#xD;&#xA;&#x9;c-3.661,3.104-3.411,7.144-4.014,11.396c-21.567-2.892-37.468-1.955-53.67-1.955c-0.602-2.638-1.053-3.828-2.006-6.464&#xD;&#xA;&#x9;c-1.605-4.338-4.965-6.721-10.232-7.4C24.579,95.122,17.106,100.098,17.106,106.688z"/>
    <path fill="#272525" d="M89.789,83.605c6.746-0.797,23.105-3.242,31.383-1.549c11.493,2.351,14.999,7.572,19.531,16.23&#xD;&#xA;&#x9;c1.318-0.133,2.486-0.11,3.253,0.939c1.369,1.871,1.513,5.541-0.289,7.295c-2.554,2.48-12.685,3.363-16.528,3.984&#xD;&#xA;&#x9;c-0.723-1.531-1.81-10.102-8.914-12.382c-4.442-1.426-10.056-0.116-13.649,2.321c-4.665,3.166-4.875,7.4-5.271,12.064&#xD;&#xA;&#x9;c-2.89,0.119-6.01-0.771-8.908-1.05c-15.642-1.498-31.389-1.469-47.105-0.651c0.278-2.014-0.824-8.147-4.772-11.535&#xD;&#xA;&#x9;c-4.997-4.289-18.631-1.682-20.407,4.268c-0.466,1.557-0.255,2.499-0.301,4.082c-2.658,0.298-4.89,0.244-7.537-0.053&#xD;&#xA;&#x9;c-4.873-0.545-5.518-3.211-6.07-5.147c-0.531-1.86-0.06-4.22,1.963-5.278c0.484-0.254,1.168-0.584,1.546,0.021&#xD;&#xA;&#x9;c0.66,1.06-1.193,2.173-1.34,3.312c-0.674,5.236,5.397,5.693,10.033,5.19c-0.201-8.08,14.52-14.442,22.25-8.478&#xD;&#xA;&#x9;c3.394,2.619,6.395,7.152,6.641,11.965c12.22-1.405,37.083-0.897,51.344,1.623c0.398-3.782,2.441-8.949,5.664-11.767&#xD;&#xA;&#x9;c3.945-3.448,10.864-4.265,15.233-3.384c5.798,1.166,9.258,7.282,10.224,12.005c1.188,0.036,9.863-0.636,11.172-1.036&#xD;&#xA;&#x9;c3.766-1.16,3.092-5.887,3.092-5.887s-3.047,0.363-3.463-0.025c-0.414-0.39-1.086-3.009-1.086-3.009l-9.084,0.99l-1.156-7.263&#xD;&#xA;&#x9;l6.062-0.992c-10.486-10.805-43.965-4.613-44.496-4.75c-3.797-4.107-11.925-11.415-12.686-11.354&#xD;&#xA;&#x9;c-0.762,0.061-1.404,7.615-1.477,11.444c-1.608,0.229-13.364,0.525-17.719,0.465c-10.449-0.146-20.843-1.087-31.217-2.084&#xD;&#xA;&#x9;c-5.64-0.541-12.235-0.004-15.149,4.782c1.374,0.716,6.236,1.8,6.236,1.8l-0.394,5.732l-8.579-0.639&#xD;&#xA;&#x9;c-1.767-1.92-1.112-4.711,0.028-6.773c0.96-1.739,3.466-4.577,5.407-5.568c6.116-3.119,21.093-0.431,24.569-0.056&#xD;&#xA;&#x9;c9.728,1.05,31.129,1.097,34.646,0.812c0.548-0.38,0.451-11.875,2.338-12.214C76.695,71.667,89.789,83.605,89.789,83.605z"/>
    <path fill="#272525" d="M86.51,85.628l-10.066,0.183c0,0-0.344-9.256,0.541-9.511C77.87,76.043,86.51,85.628,86.51,85.628z"/>
    <path fill="#99FFFF" d="M83.124,84.289l-4.74-0.016c-0.185-1.654-0.552-4.616-0.028-4.784C78.876,79.32,81.645,82.729,83.124,84.289&#xD;&#xA;&#x9;z"/>
    <path fill="#272525" d="M52.587,87.939c-0.024,1.02-0.191,15.362-0.207,16.147c-0.016,0.786-1.854,1.044-1.851,0.125&#xD;&#xA;&#x9;c0.003-0.918,0.643-15.098,0.61-16.123C51.108,87.064,52.612,86.921,52.587,87.939z"/>
    <polygon fill="#FFAA00" points="14.82,94.143 9.948,93.727 10.052,91.104 14.787,91.886 "/>
    <path fill="#272525" d="M89.25,87.887c0.012,0.682,0.083,15.127-0.068,15.937c-0.15,0.81-1.715,0.663-1.762-0.058&#xD;&#xA;&#x9;c-0.046-0.721,0.512-15.07,0.628-15.824C88.167,87.186,89.241,87.206,89.25,87.887z"/>
    <path fill="#272525" d="M47.309,104.527c-0.667,0.623-3.919-7.077-6.625-9.819c-3.35-3.396-9.94-2.888-14.421-1.526&#xD;&#xA;&#x9;c-0.866,0.264-3.432,1.842-4.096,1.808c-0.529-0.026-0.203-0.572-0.044-0.72c2.243-2.078,6.276-3.274,9.465-3.672&#xD;&#xA;&#x9;C41.952,89.309,47.084,96.79,47.309,104.527z"/>
    <polygon fill="#272525" points="61.962,91.73 62.096,95.607 53.903,95.746 53.929,91.861 "/>
    <path fill="#272525" d="M123.455,95.727c0.126,0.574-1.207,0.271-1.551-0.065c-7.786-7.687-22.471-4.734-26.014,9.057&#xD;&#xA;&#x9;c-0.179,0.693-2.466,0.357-2.236-0.85C97.294,84.583,121.921,88.745,123.455,95.727z"/>
    <polygon fill="#007B00" points="60.875,92.811 60.547,94.825 55.222,94.807 55.394,92.713 "/>
    <path fill="#FFF400" d="M137.021,96.389l-6.244,0.639l-0.527-4.221c0,0,3.973-0.586,4.675-0.279&#xD;&#xA;&#x9;C135.637,92.837,137.021,96.389,137.021,96.389z"/>
    <polygon fill="#272525" points="16.424,103.73 7.743,103.518 8.314,98.312 15.464,98.538 "/>
    <polygon fill="#FFF400" points="14.438,100.027 14.669,102.049 8.959,102.059 9.453,99.48 "/>
    <path fill="#272525" d="M97.66,106.857c0.701,0.176,0.13,1.672-0.434,1.482c-2.593-0.861-13.599-1.919-15.343-1.975&#xD;&#xA;&#x9;c-12.477-0.398-25.118,0.553-37.52,1.644c-0.556,0.05-0.928-0.698-0.274-0.981C46.396,106.031,86.557,104.079,97.66,106.857z"/>
    <path fill="#272525" d="M125.729,107.975c0.576,8.765-10.371,13.201-18.728,8.713c-1.534-0.823-2.44-1.979-3.498-3.209&#xD;&#xA;&#x9;c-6.685-7.776,3.412-16,13.728-13.928C121.246,100.357,125.463,103.959,125.729,107.975z"/>
    <path fill="#3815D9" d="M116.133,116.716c-3.762,0.414-9.324-1.653-11.021-4.583c-1-1.722-1.443-5.562-0.014-7.17&#xD;&#xA;&#x9;c4.063-4.564,12.898-5.48,17.237-0.15C126.464,109.883,122.238,116.043,116.133,116.716z"/>
    <path fill="#272525" d="M121.031,107.508c1.422,2.812-2.237,7.295-5.785,7.518c-4.444,0.276-7.771-2.349-8.407-4.952&#xD;&#xA;&#x9;c-0.94-3.854,4.623-8.892,10.08-6.343C119.545,104.955,120.566,106.591,121.031,107.508z"/>
    <path fill="#FFFFFF" d="M108.889,109.448c-0.242-3.78,6.109-6.255,9.172-3.483c1.112,1.008,1.461,2.202,1.297,3.503&#xD;&#xA;&#x9;C118.566,115.751,109.197,114.343,108.889,109.448z"/>
    <polygon fill="#272525" points="105.586,110.516 121.637,107.453 122.139,108.729 105.586,111.279 "/>
    <polygon fill="#272525" points="116.375,116.055 111.105,102.843 112.55,102.286 117.271,115.977 "/>
    <path fill="#272525" d="M42.263,106.784c0.577,8.764-10.372,13.2-18.726,8.712c-1.534-0.823-2.164-1.114-3.221-2.346&#xD;&#xA;&#x9;c-6.685-7.776,3.134-16.863,13.45-14.791C37.782,99.168,41.999,102.77,42.263,106.784z"/>
    <path fill="#3815D9" d="M32.668,115.525c-3.729,0.592-9.324-1.653-11.023-4.584c-0.999-1.721-1.399-5.532-0.012-7.17&#xD;&#xA;&#x9;c5.103-6.015,12.898-5.48,17.237-0.15C42.999,108.691,37.533,114.753,32.668,115.525z"/>
    <path fill="#272525" d="M37.566,106.316c1.423,2.812-2.237,7.295-5.784,7.518c-4.446,0.275-7.771-2.348-8.407-4.952&#xD;&#xA;&#x9;c-0.941-3.854,4.623-8.892,10.08-6.343C36.081,103.766,37.103,105.4,37.566,106.316z"/>
    <path fill="#FFFFFF" d="M25.423,108.258c-0.621-3.75,6.111-6.255,9.173-3.482c1.113,1.007,1.46,2.201,1.297,3.502&#xD;&#xA;&#x9;C35.104,114.562,26.134,112.557,25.423,108.258z"/>
    <polygon fill="#272525" points="22.582,104.918 38.01,109.76 37.611,111.062 22.09,105.559 "/>
    <polygon fill="#272525" points="28.072,114.544 32.141,101.029 33.709,101.229 28.876,114.893 "/>
    <path fill="#272525" d="M34.071,107.084c0.712,1.406-1.118,3.646-2.892,3.759c-2.223,0.14-3.885-1.174-4.204-2.477&#xD;&#xA;&#x9;c-0.471-1.929,2.312-4.446,5.04-3.171C33.328,105.809,33.838,106.626,34.071,107.084z"/>
    <path fill="#A4B9BC" d="M27.999,108.055c-0.31-1.875,3.055-3.128,4.587-1.742c0.556,0.504,0.73,1.103,0.648,1.752&#xD;&#xA;&#x9;C32.84,111.206,28.355,110.204,27.999,108.055z"/>
    <path fill="#272525" d="M117.535,108.275c0.712,1.406-1.118,3.646-2.893,3.758c-2.223,0.138-3.886-1.174-4.203-2.477&#xD;&#xA;&#x9;c-0.471-1.928,2.312-4.445,5.039-3.172C116.793,106.998,117.305,107.814,117.535,108.275z"/>
    <path fill="#A4B9BC" d="M111.464,109.245c-0.414-1.861,3.056-3.128,4.587-1.741c0.555,0.503,0.729,1.102,0.648,1.75&#xD;&#xA;&#x9;C116.305,112.396,111.762,110.583,111.464,109.245z"/>
  </g>
</svg>