<svg version="1.1" width="157" height="117" viewBox="-1 -1 157 117" xmlns="http://www.w3.org/2000/svg" xmlns:xlink="http://www.w3.org/1999/xlink">
  <!-- Exported by Scratch - http://scratch.mit.edu/ -->
  <g id="ID0.1320589273236692" transform="matrix(1, 0, 0, 1, -0.5, 0)">
    <g id="Page-1">
      <g id="casey-a-[sports,basketball,people,alex-eben-meyer]">
        <g id="Left-Leg/Shoe">
          <path id="Shape" fill="#DC785A" stroke="none" stroke-width="1" d="M 18.368 1.948 C 17.782 3.840 13.607 4.824 13.279 10.416 C 12.950 16.008 16.655 25.688 16.816 27.452 C 13.431 27.548 10.050 27.952 6.674 27.736 C 4.095 23.888 2.234 19.432 0.795 15.048 C 0.394 13.784 -0.108 9.232 1.557 5.772 C 2.976 2.832 6.569 0.856 6.509 0.432 L 18.368 1.948 Z " transform="matrix(1, 0, 0, 1, 47.75, 75.25)"/>
          <path id="Shape" fill="#FAF0E6" stroke="none" stroke-width="1" d="M 16.763 25 C 16.763 25 16.046 22.792 15.689 21.456 C 15.332 20.120 14.730 17.904 14.730 17.904 L 1.689 18.304 C 1.970 19.611 2.355 20.894 2.840 22.140 C 3.437 23.432 4.552 25.472 4.552 25.472 L 16.763 25 Z " transform="matrix(1, 0, 0, 1, 47.75, 75.25)"/>
          <path id="Shape" fill="#00A0DC" stroke="none" stroke-width="1" d="M 16.691 23.224 L 21.050 34.600 L 16.411 40.004 L 7.620 39.560 C 7.387 38.624 10.628 38.732 10.628 38.732 L 3.289 23.532 L 16.691 23.224 Z " transform="matrix(1, 0, 0, 1, 47.75, 75.25)"/>
          <path id="Oval" fill="#006482" stroke="none" stroke-width="1" d="M 14.630 25.384 C 15.337 25.384 15.978 25.670 16.442 26.133 C 16.905 26.596 17.193 27.235 17.193 27.940 C 17.193 28.645 16.905 29.284 16.442 29.747 C 15.978 30.210 15.337 30.496 14.630 30.496 C 13.923 30.496 13.282 30.210 12.818 29.747 C 12.355 29.284 12.067 28.645 12.067 27.940 C 12.067 27.235 12.355 26.596 12.818 26.133 C 13.282 25.670 13.923 25.384 14.630 25.384 Z " transform="matrix(1, 0, 0, 1, 47.75, 75.25)"/>
          <path id="Shape" fill="#FAF0E6" stroke="none" stroke-width="1" d="M 6.389 25.540 C 6.521 25.824 6.658 26.100 6.790 26.376 L 3.983 26.376 L 3.983 25.540 L 6.389 25.540 Z " transform="matrix(1, 0, 0, 1, 47.75, 75.25)"/>
          <path id="Shape" fill="#F0E6D2" stroke="none" stroke-width="1" d="M 7.973 27.952 C 8.029 28.092 8.093 28.228 8.161 28.352 L 8.374 28.776 L 5.190 28.776 L 5.190 27.936 L 7.973 27.952 Z " transform="matrix(1, 0, 0, 1, 47.75, 75.25)"/>
          <path id="Shape" fill="#FAF0E6" stroke="none" stroke-width="1" d="M 5.964 31 L 5.964 30.352 L 9.144 30.352 C 9.280 30.632 9.414 30.912 9.545 31.192 L 6.056 31.192 C 6.028 31.144 5.996 31.080 5.964 31 Z " transform="matrix(1, 0, 0, 1, 47.75, 75.25)"/>
          <path id="Shape" fill="#F0E6D2" stroke="none" stroke-width="1" d="M 6.966 32.976 C 6.930 32.912 6.898 32.848 6.866 32.784 L 10.251 32.784 C 10.279 32.844 10.307 32.904 10.331 32.968 C 10.423 33.188 10.528 33.404 10.624 33.624 L 7.275 33.624 C 7.175 33.400 7.075 33.188 6.966 32.976 Z " transform="matrix(1, 0, 0, 1, 47.75, 75.25)"/>
          <path id="Shape" fill="#FAF0E6" stroke="none" stroke-width="1" d="M 11.586 36.036 L 8.342 36.036 C 8.206 35.760 8.077 35.480 7.941 35.200 L 11.334 35.200 C 11.434 35.476 11.514 35.756 11.586 36.036 Z " transform="matrix(1, 0, 0, 1, 47.75, 75.25)"/>
          <path id="Shape" fill="#281446" stroke="none" stroke-width="1" d="M 15.444 39.512 C 13.900 34.852 21.030 34.600 21.030 34.600 L 22.121 37.800 C 22.348 38.486 22.222 39.239 21.783 39.814 C 21.345 40.389 20.651 40.711 19.928 40.676 L 7.764 40.676 L 7.620 39.564 L 15.444 39.512 Z " transform="matrix(1, 0, 0, 1, 47.75, 75.25)"/>
        </g>
        <path id="Shape" fill="#006482" stroke="none" stroke-width="1" d="M 59.693 66.984 L 43.712 79.600 C 43.712 79.600 44.081 82.472 47.526 84 C 51.031 85.564 67.914 87.104 84.477 86.400 C 101.039 85.696 108.278 80.300 108.278 80.300 L 59.693 66.984 Z " transform="matrix(1, 0, 0, 1, 0.75, 0.25)"/>
        <g id="Right-Leg/-Shoe">
          <path id="Shape" fill="#DC785A" stroke="none" stroke-width="1" d="M 4.018 1.948 C 4.603 3.840 8.778 4.824 9.107 10.416 C 9.436 16.008 5.730 25.688 5.570 27.452 C 8.955 27.548 12.335 27.952 15.712 27.736 C 18.291 23.888 20.151 19.432 21.591 15.048 C 21.992 13.784 22.493 9.232 20.829 5.772 C 19.409 2.832 15.816 0.856 15.876 0.432 L 4.018 1.948 Z " transform="matrix(1, 0, 0, 1, 81.75, 75.25)"/>
          <path id="Shape" fill="#FAF0E6" stroke="none" stroke-width="1" d="M 5.646 25 C 5.646 25 6.364 22.792 6.721 21.456 C 7.078 20.120 7.679 17.904 7.679 17.904 L 20.721 18.304 C 20.439 19.611 20.054 20.894 19.570 22.140 C 18.972 23.432 17.857 25.472 17.857 25.472 L 5.646 25 Z " transform="matrix(1, 0, 0, 1, 81.75, 75.25)"/>
          <path id="Shape" fill="#00A0DC" stroke="none" stroke-width="1" d="M 5.718 23.224 L 1.359 34.600 L 5.999 40.004 L 14.790 39.560 C 15.022 38.624 11.782 38.732 11.782 38.732 L 19.121 23.532 L 5.718 23.224 Z " transform="matrix(1, 0, 0, 1, 81.75, 75.25)"/>
          <path id="Oval" fill="#006482" stroke="none" stroke-width="1" d="M 7.780 25.384 C 8.487 25.384 9.127 25.670 9.591 26.133 C 10.055 26.596 10.342 27.235 10.342 27.940 C 10.342 28.645 10.055 29.284 9.591 29.747 C 9.127 30.210 8.487 30.496 7.780 30.496 C 7.073 30.496 6.432 30.210 5.968 29.747 C 5.504 29.284 5.217 28.645 5.217 27.940 C 5.217 27.235 5.504 26.596 5.968 26.133 C 6.432 25.670 7.073 25.384 7.780 25.384 Z " transform="matrix(1, 0, 0, 1, 81.75, 75.25)"/>
          <path id="Shape" fill="#FAF0E6" stroke="none" stroke-width="1" d="M 16.021 25.540 C 15.888 25.824 15.752 26.100 15.620 26.376 L 18.427 26.376 L 18.427 25.540 L 16.021 25.540 Z " transform="matrix(1, 0, 0, 1, 81.75, 75.25)"/>
          <path id="Shape" fill="#F0E6D2" stroke="none" stroke-width="1" d="M 14.445 27.952 C 14.389 28.092 14.324 28.228 14.256 28.352 L 14.044 28.776 L 17.228 28.776 L 17.228 27.936 L 14.445 27.952 Z " transform="matrix(1, 0, 0, 1, 81.75, 75.25)"/>
          <path id="Shape" fill="#FAF0E6" stroke="none" stroke-width="1" d="M 16.450 31 L 16.450 30.352 L 13.266 30.352 C 13.129 30.632 12.996 30.912 12.865 31.192 L 16.354 31.192 C 16.382 31.144 16.414 31.080 16.450 31 Z " transform="matrix(1, 0, 0, 1, 81.75, 75.25)"/>
          <path id="Shape" fill="#F0E6D2" stroke="none" stroke-width="1" d="M 15.443 32.976 C 15.479 32.912 15.511 32.848 15.544 32.784 L 12.159 32.784 C 12.131 32.844 12.103 32.904 12.079 32.968 C 11.986 33.188 11.882 33.404 11.786 33.624 L 15.134 33.624 C 15.247 33.400 15.335 33.188 15.443 32.976 Z " transform="matrix(1, 0, 0, 1, 81.75, 75.25)"/>
          <path id="Shape" fill="#FAF0E6" stroke="none" stroke-width="1" d="M 10.835 36.036 L 14.080 36.036 C 14.216 35.760 14.344 35.480 14.481 35.200 L 11.088 35.200 C 10.976 35.476 10.896 35.756 10.835 36.036 Z " transform="matrix(1, 0, 0, 1, 81.75, 75.25)"/>
          <path id="Shape" fill="#281446" stroke="none" stroke-width="1" d="M 6.966 39.512 C 8.510 34.852 1.379 34.600 1.379 34.600 L 0.288 37.800 C 0.062 38.486 0.188 39.239 0.626 39.814 C 1.065 40.389 1.759 40.711 2.482 40.676 L 14.645 40.676 L 14.790 39.564 L 6.966 39.512 Z " transform="matrix(1, 0, 0, 1, 81.75, 75.25)"/>
        </g>
        <g id="Shorts">
          <path id="Shape" fill="#281446" stroke="none" stroke-width="1" d="M 46.835 16.600 L 15.555 16.600 L 11.545 0.200 L 50.846 0.200 L 46.835 16.600 " transform="matrix(1, 0, 0, 1, 45.75, 67.25)"/>
          <path id="Shape" fill="#281446" stroke="none" stroke-width="1" d="M 0.557 21 C 0.557 21 0.673 8.740 4.695 2.312 L 26.090 2.340 C 23.865 10.512 20.877 21.360 20.877 21.360 L 0.557 21 Z " transform="matrix(1, 0, 0, 1, 45.75, 67.25)"/>
          <path id="Shape" fill="#281446" stroke="none" stroke-width="1" d="M 59.813 21 C 59.813 21 59.696 8.740 55.674 2.312 L 34.279 2.340 C 36.505 10.512 39.493 21.360 39.493 21.360 L 59.813 21 Z " transform="matrix(1, 0, 0, 1, 45.75, 67.25)"/>
        </g>
        <g id="Right-Arm">
          <path id="Shape" fill="#DC785A" stroke="none" stroke-width="1" d="M 69.856 19.496 C 69.378 17.496 61.470 23.348 58.655 18.736 C 56.782 15.664 61.570 13.136 63.387 11.416 C 64.662 10.216 67.169 8.728 66.323 6.616 C 63.515 5.704 55.691 12.800 53.137 10.288 C 50.582 7.776 57.099 4.064 57.949 2.308 C 60.179 -2.196 49.728 4.508 49.102 4.984 C 43.504 9.228 0.622 29.600 0.622 29.600 L 9.316 47.884 C 12.986 49.684 70.333 21.508 69.856 19.496 Z " transform="matrix(1, 0, 0, 1, 86.75, 18.25)"/>
          <path id="Shape" fill="#DC5050" stroke="none" stroke-width="1" d="M 34.669 13.620 C 35.872 8.692 34.208 1.828 37.328 0.052 C 38.162 0.396 38.555 1.120 38.856 1.792 C 39.117 3.564 39.257 5.028 38.856 6.768 C 38.936 6.880 38.924 8.744 40.821 8.600 C 42.718 8.456 45.497 8.460 47.683 12.256 C 49.688 15.748 50.169 19.884 47.839 23.428 C 45.798 26.536 42.373 28.628 38.664 27.428 C 35.800 26.480 33.450 18.544 34.669 13.620 Z " transform="matrix(1, 0, 0, 1, 86.75, 18.25)"/>
        </g>
        <g id="Left-Arm">
          <path id="Shape" fill="#DC785A" stroke="none" stroke-width="1" d="M 0.120 22.284 C 0.602 20.284 5.983 24.548 8.795 19.936 C 10.671 16.864 5.883 14.336 4.062 12.616 C 2.787 11.416 1.203 10.516 2.057 8.392 C 4.864 7.480 11.766 13.992 14.317 11.476 C 16.867 8.960 10.359 5.252 9.504 3.496 C 7.279 -1.008 17.729 5.696 18.355 6.172 C 23.949 10.428 66.831 30.800 66.831 30.800 L 58.149 49.084 C 54.468 50.884 -0.357 24.296 0.120 22.284 Z " transform="matrix(1, 0, 0, 1, 0.75, 18.25)"/>
          <path id="Shape" fill="#DC5050" stroke="none" stroke-width="1" d="M 32.323 12.572 C 29.612 8.280 29.034 1.236 25.505 0.532 C 24.820 1.124 24.679 1.936 24.603 2.668 C 24.916 4.428 25.265 5.868 26.207 7.380 C 26.167 7.516 26.765 9.276 24.920 9.740 C 23.075 10.204 20.452 11.076 19.562 15.368 C 18.760 19.312 19.614 23.388 22.947 26.020 C 25.866 28.328 29.764 29.248 32.916 26.920 C 35.315 25.136 35.038 16.864 32.323 12.572 Z " transform="matrix(1, 0, 0, 1, 0.75, 18.25)"/>
        </g>
        <g id="Torso">
          <path id="Shape" fill="#DC785A" stroke="none" stroke-width="1" d="M 45.190 2.600 L 43.089 13.612 L 15.670 13.664 L 19.721 2.688 L 45.190 2.600 " transform="matrix(1, 0, 0, 1, 43.75, 41.25)"/>
          <path id="Shape" fill="#006482" stroke="none" stroke-width="1" d="M 47.520 2.480 L 51.494 0.896 L 61.825 23.728 L 56.724 27.940 L 47.520 2.480 " transform="matrix(1, 0, 0, 1, 43.75, 41.25)"/>
          <path id="Shape" fill="#006482" stroke="none" stroke-width="1" d="M 16.934 2.480 L 12.230 1.052 L 3.487 23.884 L 7.481 28.212 L 16.934 2.480 " transform="matrix(1, 0, 0, 1, 43.75, 41.25)"/>
          <path id="Shape" fill="#00A0DC" stroke="none" stroke-width="1" d="M 65.278 39.300 L 48.651 0.464 L 42.367 0.632 C 42.367 0.632 43.357 9.912 31.643 9.944 C 23.250 9.968 21.934 0.800 21.934 0.800 L 14.888 0.200 L 0.712 38.600 L 65.278 39.300 Z " transform="matrix(1, 0, 0, 1, 43.75, 41.25)"/>
        </g>
        <g id="Head">
          <path id="Shape" fill="#DC785A" stroke="none" stroke-width="1" d="M 33.216 32.476 C 33.096 32.284 33.785 27.236 34.551 25.744 C 35.229 24.424 37.206 23.072 38.606 23.884 C 40.338 24.896 39.781 27.404 39.007 28.760 C 37.876 30.764 35.377 31.824 33.216 32.476 Z " transform="matrix(1, 0, 0, 1, 51.75, 0.25)"/>
          <path id="Shape" fill="#DC785A" stroke="none" stroke-width="1" d="M 14.813 32.476 C 14.937 32.284 14.243 27.236 13.477 25.744 C 12.800 24.424 10.823 23.072 9.423 23.884 C 7.690 24.896 8.248 27.404 9.022 28.760 C 10.169 30.764 12.667 31.824 14.813 32.476 Z " transform="matrix(1, 0, 0, 1, 51.75, 0.25)"/>
          <path id="Shape" fill="#FFC800" stroke="none" stroke-width="1" d="M 31.913 14.220 C 34.034 16.416 41.337 6.492 42.379 5.120 C 40.807 1.844 37.792 0.512 34.243 0.360 C 33.203 2.627 32.543 5.048 32.290 7.528 C 32.049 9.648 31.548 12.096 31.913 14.220 Z " transform="matrix(1, 0, 0, 1, 51.75, 0.25)"/>
          <path id="Shape" fill="#006482" stroke="none" stroke-width="1" d="M 27.786 15.292 L 33.757 19.008 C 33.757 19.008 36.288 15.988 32.991 13.848 C 29.695 11.708 27.786 15.292 27.786 15.292 Z " transform="matrix(1, 0, 0, 1, 51.75, 0.25)"/>
          <path id="Shape" fill="#FFC800" stroke="none" stroke-width="1" d="M 13.429 16.276 C 12.186 19.076 1.924 12.224 0.476 11.288 C 0.833 7.688 3.211 5.396 6.491 4.040 C 8.243 5.817 9.691 7.868 10.778 10.112 C 11.737 12.024 13.044 14.152 13.429 16.276 Z " transform="matrix(1, 0, 0, 1, 51.75, 0.25)"/>
          <path id="Shape" fill="#006482" stroke="none" stroke-width="1" d="M 17.676 15.876 L 13.337 21.404 C 13.337 21.404 9.924 19.428 12.290 16.292 C 14.656 13.156 17.676 15.876 17.676 15.876 Z " transform="matrix(1, 0, 0, 1, 51.75, 0.25)"/>
          <path id="Shape" fill="#FFC800" stroke="none" stroke-width="1" d="M 35.815 19.656 L 12.282 19.600 C 12.282 19.600 12.467 13.492 24.614 13.568 C 34.166 13.644 35.815 19.656 35.815 19.656 Z " transform="matrix(1, 0, 0, 1, 51.75, 0.25)"/>
          <path id="Shape" fill="#DC785A" stroke="none" stroke-width="1" d="M 13.124 21.936 C 12.952 22.276 12.856 25.896 12.683 26.240 C 12.635 27.192 12.214 28.064 12.924 30.392 C 13.582 32.260 14.399 34.067 15.366 35.796 C 16.417 37.272 18.061 38.904 19.777 39.580 C 23.098 40.900 27.317 40.540 30.108 38.572 C 33.437 36.224 34.571 32.172 35.105 28.240 C 35.349 26.428 36.308 23.608 36.023 21.788 L 13.124 21.936 Z " transform="matrix(1, 0, 0, 1, 51.75, 0.25)"/>
          <path id="Shape" fill="#DC5050" stroke="none" stroke-width="1" d="M 25.997 26.400 C 25.925 28.192 21.550 28.968 21.674 26.092 C 21.799 23.216 21.630 21.316 23.651 21.292 C 25.673 21.268 26.062 24.596 25.997 26.400 Z " transform="matrix(1, 0, 0, 1, 51.75, 0.25)"/>
          <path id="Shape" fill="#FFC800" stroke="none" stroke-width="1" d="M 31.925 23.236 L 35.337 28.244 L 36.155 23.332 L 31.925 23.236 " transform="matrix(1, 0, 0, 1, 51.75, 0.25)"/>
          <path id="Shape" fill="#FFC800" stroke="none" stroke-width="1" d="M 15.944 23.236 L 12.535 28.244 L 11.713 23.332 L 15.944 23.236 " transform="matrix(1, 0, 0, 1, 51.75, 0.25)"/>
          <path id="Shape" fill="#00A0DC" stroke="none" stroke-width="1" d="M 36.946 25.220 C 37.347 23.532 37.748 20.120 36.661 18.972 L 12.046 18.972 C 10.919 19.872 10.690 23.896 10.790 25.504 L 36.946 25.220 Z " transform="matrix(1, 0, 0, 1, 51.75, 0.25)"/>
          <path id="Shape" fill="#000000" stroke="none" stroke-width="1" d="M 27.421 30.708 C 27.421 30.708 26.803 31.908 24.478 31.820 C 22.152 31.732 21.698 30.744 21.698 30.744 C 21.698 30.744 21.261 29.516 24.790 29.580 C 28.319 29.644 27.421 30.708 27.421 30.708 Z " transform="matrix(1, 0, 0, 1, 51.75, 0.25)"/>
          <path id="Shape" fill="#000000" stroke="none" stroke-width="1" d="M 31.062 27.660 C 30.373 28.612 29.639 27.036 30.405 26.356 C 30.902 26.400 31.074 26.756 31.062 27.660 Z " transform="matrix(1, 0, 0, 1, 51.75, 0.25)"/>
          <path id="Shape" fill="#000000" stroke="none" stroke-width="1" d="M 17.431 27.712 C 16.930 27.500 16.970 27.056 16.886 26.656 L 17.540 26.160 C 18.270 26.400 18.117 27.552 17.431 27.712 Z " transform="matrix(1, 0, 0, 1, 51.75, 0.25)"/>
          <path id="Shape" fill="#006482" stroke="none" stroke-width="1" d="M 37.298 23.732 L 10.566 23.724 L 10.915 20.456 L 37.298 20.352 L 37.298 23.732 " transform="matrix(1, 0, 0, 1, 51.75, 0.25)"/>
        </g>
      </g>
    </g>
  </g>
</svg>