<svg version="1.1" width="276" height="238" viewBox="-1 -1 276 238" xmlns="http://www.w3.org/2000/svg" xmlns:xlink="http://www.w3.org/1999/xlink">
  <!-- Exported by Scratch - http://scratch.mit.edu/ -->
  <g id="ID0.834542874712497" transform="matrix(1, 0, 0, 1, -201, -132)">
    <g id="ID0.008622032590210438" transform="matrix(1, 0, 0, 1, 202, 132)">
      <path id="ID0.09444683231413364" fill="#CCCCCC" stroke="#000000" stroke-width="2" d="M 210.500 121.500 C 220.294 121.500 229.169 121.864 235.596 122.453 C 242.022 123.041 246 123.853 246 124.750 C 246 125.647 242.022 126.459 235.596 127.047 C 229.169 127.636 220.294 128 210.500 128 C 200.706 128 191.831 127.636 185.404 127.047 C 178.978 126.459 175 125.647 175 124.750 C 175 123.853 178.978 123.041 185.404 122.453 C 191.831 121.864 200.706 121.500 210.500 121.500 Z " transform="matrix(1, 0, 0, 1.570588231086731, -173.5, -188.8)"/>
      <path id="ID0.1540069291368127" fill="#CCCCCC" stroke="#000000" stroke-width="2" d="M 243.500 251 C 248.190 251 252.440 251.364 255.518 251.953 C 258.595 252.541 260.500 253.353 260.500 254.250 C 260.500 255.147 258.595 255.959 255.518 256.547 C 252.440 257.136 248.190 257.500 243.500 257.500 C 238.810 257.500 234.560 257.136 231.482 256.547 C 228.405 255.959 226.500 255.147 226.500 254.250 C 226.500 253.353 228.405 252.541 231.482 251.953 C 234.560 251.364 238.810 251 243.500 251 Z " transform="matrix(1, 0, 0, 1.6470588445663452, -204.5, -311.25)"/>
      <path id="ID0.37185795046389103" fill="none" stroke="#000000" stroke-width="2" stroke-linecap="round" d="M 278 157 L 261 256 " transform="matrix(1, 0, 0, 1, -204.5, -149)"/>
      <path id="ID0.34106422076001763" fill="none" stroke="#000000" stroke-width="2" stroke-linecap="round" d="M 205.500 156.500 L 226 256.500 " transform="matrix(1, 0, 0, 1, -204.5, -149)"/>
    </g>
    <path id="ID0.18914945842698216" fill="#CCCCCC" stroke="#CCCCCC" stroke-width="2" stroke-linecap="round" d="M 257.150 235.250 L 253.650 233.500 L 250.500 232.600 L 245.800 232 L 241.150 231.750 L 235.500 232 L 232.400 232.500 L 229.800 233.100 L 227.400 233.900 L 224.650 235.500 L 205.700 143 L 211.500 144.650 L 220.200 145.800 L 229.850 146.400 L 240.600 146.500 L 248.600 146.300 L 257.250 145.800 L 265.400 144.800 L 269.900 143.900 L 273.200 142.500 L 257.150 235.250 Z "/>
  </g>
</svg>