<?xml version="1.0" encoding="utf-8"?>
<!-- Generator: Adobe Illustrator 18.0.0, SVG Export Plug-In . SVG Version: 6.00 Build 0)  -->
<!DOCTYPE svg PUBLIC "-//W3C//DTD SVG 1.1//EN" "http://www.w3.org/Graphics/SVG/1.1/DTD/svg11.dtd">
<svg version="1.1" id="Layer_2" xmlns="http://www.w3.org/2000/svg" xmlns:xlink="http://www.w3.org/1999/xlink" x="0px" y="0px"
	 viewBox="0 0 35.8 48" enable-background="new 0 0 35.8 48" xml:space="preserve">
<g>
	<path fill="#41A2F2" d="M35.2,17.7c-1.2,3-2.8,5.5-5.6,7.4c-2.6,1.8-5.5,2.2-8.5,2.5c-2.1,0.2-4.1-0.1-6.2-0.1
		c-0.6,0-0.8-0.3-0.8-0.9c0-0.4-0.1-0.8-0.2-1.3c0.6-0.1,1.3-0.2,2-0.2c2.7-0.1,5.3-0.7,7.8-1.6c2.6-1,4.6-2.7,5.4-5.6
		c0.9-3,0.9-6-0.4-8.9c-0.8-1.9-2.1-3.5-4.1-4.4c-1.1-0.5-2.2-1-3.3-1.5c-0.2-0.1-0.5-0.1-0.7-0.1c-2.6,0-5.2-0.2-7.8,0.5
		c-1,0.2-1.2,0.5-1.4,1.4c-0.6,2.1,0,4.2-0.1,6.4c-0.2,4.6-0.3,9.2-0.6,13.8c-0.2,3.7,0,7.5,0.3,11.2c0.2,2.4,0.3,4.8,0.4,7.2
		c0,0.8,0.3,1.3,1.1,1.4c0.5,0.1,1.1,0.3,1.6,0.4c0.5,0.1,0.7,0.3,0.7,0.9c0,0.1,0,0.2,0,0.3C14.9,48,14.9,48,13.5,48
		c-3.9,0-7.8-0.1-11.8-0.2c-1.2,0-1.8-1-1.2-2c0.1-0.2,0.5-0.4,0.8-0.5c0.5-0.1,0.9,0,1.4,0c0.9,0,1.4-0.4,1.5-1.3
		c0.1-0.7,0-1.5,0-2.2c-0.1-2.8-0.3-5.5-0.2-8.3c0.1-4,0.5-7.9,0.6-11.9c0.1-2-0.1-3.9-0.2-5.9C4.3,13.8,4.1,11.8,4,9.9
		C4,8.5,4.2,7,4.2,5.6c0-0.7-0.3-1.5-0.5-2.1C3.6,3.2,3.2,3,2.9,3C2.1,2.8,1.3,2.8,0.5,2.7c-0.1,0-0.3,0-0.3-0.1C0.1,2,0,1.4,0,0.8
		c0-0.2,0.4-0.5,0.7-0.5c3.8-0.3,7.6-0.3,11.4-0.2C15.1,0.2,18,0.2,21,0c2.7-0.1,5.2,0.4,7.5,1.6c2,1,3.8,2.6,4.9,4.4
		c1.2,1.8,2.1,4,2.3,6.3C35.8,14.2,35.9,16,35.2,17.7z"/>
</g>
</svg>
