<svg width="110px" height="74px" viewBox="0 0 110 74" version="1.1" xml:space="preserve" xmlns="http://www.w3.org/2000/svg" xmlns:xlink="http://www.w3.org/1999/xlink">
  <g>
    <title>Slice 1</title>
    <desc>Created with Sketch.</desc>
    <g id="Page-1" stroke="none" stroke-width="1" fill="none" fill-rule="evenodd">
      <g id="Layer_3" transform="translate(1.800000, 30.400000)">
        <path d="M15.1919183,20.173002 C12.9627434,18.6297271 11.2479935,16.5720272 10.2191435,14.0856398 C7.73275613,7.74106505 9.61898105,0.367640358 5.50358122,0.453377855 C1.47391889,0.539115351 -3.84180589,11.5135149 4.56046876,19.830052 C7.04685616,22.2307019 10.0476685,24.1169269 13.2199559,25.4887268 C13.9058559,25.8316768 19.9074806,28.1465892 23.251243,26.2603643 C26.5950053,24.3741394 25.5661554,23.0023394 25.1374679,22.3164394 C24.7087804,21.544802 17.8497807,22.1449645 15.1919183,20.173002 Z" id="ID0.8451694184914231" fill="#F9A41F"/>
        <path d="M5.84653121,0.539115351 C3.96030628,0.196165365 0.959493909,3.71140272 0.359331434,7.05516508 C-0.0693560484,9.54155248 0.187856441,12.1136774 0.959493909,14.5143273 C1.81686887,15.9718647 2.24555636,12.8853148 4.64620626,12.2851524 C6.36095618,11.9422024 8.07570611,12.1136774 9.70471854,12.7995773 C9.70471854,12.7995773 8.84734358,7.91254004 8.4186561,5.25467766 C8.07570611,2.51107777 7.81849362,0.967802833 5.84653121,0.539115351 Z" id="ID0.6858935537748039" fill="#FFFFFF"/>
        <path d="M15.1919183,20.173002 C12.9627434,18.6297271 11.2479935,16.5720272 10.2191435,14.0856398 C7.73275613,7.74106505 9.61898105,0.367640358 5.50358122,0.453377855 C1.47391889,0.539115351 -3.84180589,11.5135149 4.56046876,19.830052 C7.04685616,22.2307019 10.0476685,24.1169269 13.2199559,25.4887268 C13.9058559,25.8316768 19.9074806,28.1465892 23.251243,26.2603643 C26.5950053,24.3741394 25.5661554,23.0023394 25.1374679,22.3164394 C24.7087804,21.544802 17.8497807,22.1449645 15.1919183,20.173002 Z" id="ID0.17426032526418567" stroke="#231F20" stroke-width="0.857374964" stroke-linecap="round" stroke-linejoin="round"/>
      </g>
      <g id="ID0.8015054534189403" transform="translate(74.949999, 60.799999)">
        <path d="M2.82980421,5.63443926 C2.82980421,5.63443926 17.3194411,12.9221265 26.3218782,11.121639 C35.2385779,9.3211516 33.8667779,-1.22456046 27.4364657,0.404451973 C23.4068033,1.43330193 12.3466663,2.54788938 6.43077906,0.661664463 C0.429154305,-1.22456046 -0.856908141,3.91968933 2.82980421,5.63443926 Z" id="ID0.35254472540691495" fill="#F9A41F"/>
        <path d="M2.82980421,5.63443926 C2.82980421,5.63443926 17.3194411,12.9221265 26.3218782,11.121639 C35.2385779,9.3211516 33.8667779,-1.22456046 27.4364657,0.404451973 C23.4068033,1.43330193 12.3466663,2.54788938 6.43077906,0.661664463 C0.429154305,-1.22456046 -0.856908141,3.91968933 2.82980421,5.63443926 Z" id="ID0.18118325853720307" stroke="#231F20" stroke-width="0.857374964" stroke-linecap="round" stroke-linejoin="round"/>
      </g>
      <g id="ID0.05117864953354001" transform="translate(17.000000, 33.250000)">
        <path d="M18.8541677,18.1421395 C17.5681053,16.4273896 16.1105678,14.9698522 14.3958179,13.7695272 C13.6241804,10.6829773 13.5384429,7.51068998 14.2243429,4.42414011 C16.8822053,7.25347749 19.1971177,10.3400274 21.1690801,13.7695272 C22.8838301,16.3416521 21.3405551,21.2286894 18.8541677,18.1421395 Z" id="ID0.9482145281508565" stroke="#231F20" stroke-width="0.857374964" fill="#231F20" opacity="0.1" stroke-linecap="round" stroke-linejoin="round"/>
        <path d="M21.0833426,13.6362897 C21.0833426,13.6362897 15.3389304,3.17631516 9.42304311,0.947140251 C0.849293472,-2.22514712 -1.20840644,5.14827758 2.13535592,8.49203994 C6.25075575,12.6931773 11.652218,8.83498992 18.8541677,18.008902 C21.3405551,21.1811894 22.8838301,16.3798896 21.0833426,13.6362897 Z" id="ID0.1841080985032022" fill="#F9A41F"/>
        <path d="M21.0833426,13.6362897 C21.0833426,13.6362897 15.3389304,3.17631516 9.42304311,0.947140251 C0.849293472,-2.22514712 -1.20840644,5.14827758 2.13535592,8.49203994 C6.25075575,12.6931773 11.652218,8.83498992 18.8541677,18.008902 C21.3405551,21.1811894 22.8838301,16.3798896 21.0833426,13.6362897 Z" id="ID0.6833870257250965" stroke="#231F20" stroke-width="0.857374964" stroke-linecap="round" stroke-linejoin="round"/>
      </g>
      <g id="ID0.48522777296602726" transform="translate(1.800000, 51.299999)">
        <path d="M51.2016668,12.9910017 C51.2016668,12.9910017 41.4275922,17.2778765 24.5373054,17.706564 C8.07570611,18.1352515 -0.0693560484,14.7057517 1.04523141,9.90445185 C2.33129385,4.0743021 7.64701863,6.56068949 11.162256,7.24658946 C14.4202808,7.67527695 17.7640432,7.24658946 20.8505931,5.87478952 L20.7648556,1.41643971 C20.8505931,1.33070221 52.2305168,-3.2133851 51.2016668,12.9910017 Z" id="ID0.7030626530759037" fill="#F9A41F"/>
        <path d="M41.5133297,5.44610204 C41.5133297,5.44610204 29.5100802,5.01741456 25.9091054,8.7041269 C23.5084555,11.1047768 25.7376304,13.4196892 28.4812303,13.8483767 C34.825805,14.8772266 45.8002045,11.7906768 46.4861045,10.1616643 L41.5133297,5.44610204 Z" id="ID0.6132942135445774" fill="#FFFFFF"/>
        <path d="M51.2016668,12.9910017 C51.2016668,12.9910017 41.4275922,17.2778765 24.5373054,17.706564 C8.07570611,18.1352515 -0.0693560484,15.5631266 1.04523141,9.90445185 C2.15981886,3.9885646 7.64701863,6.64642699 11.162256,7.24658946 C14.2488059,7.67527695 17.3353557,7.93248944 20.4219056,7.93248944 L20.7648556,1.41643971 C20.8505931,1.33070221 52.2305168,-3.2133851 51.2016668,12.9910017 Z" id="ID0.21069183386862278" stroke="#231F20" stroke-width="0.857374964" stroke-linecap="round" stroke-linejoin="round"/>
      </g>
      <g id="ID0.685240566264838" transform="translate(32.200000, 1.900000)">
        <g id="ID0.7746110348962247">
          <path d="M34.2624541,12.2345657 C31.0901668,11.8058782 27.8321419,12.0630907 24.745592,12.8347282 L12.5708675,0.317053689 L10.5989051,20.5511028 C10.5989051,20.5511028 4.0828554,23.6376527 1.16778052,35.2979522 C-2.09024435,48.2443142 8.54120521,61.3621511 24.745592,66.0777135 C46.2657036,72.3365507 65.2136904,66.1634509 66.3282778,51.4166016 C66.9284403,43.7002269 61.355503,41.8997395 61.355503,41.8997395 C61.355503,41.8997395 62.8130405,37.0984397 60.669603,30.4109149 C59.3835406,26.3812526 56.9828907,22.8660153 53.8106033,20.1224154 L53.4676533,7.43326589 L43.0934163,14.4637406 C40.1783414,13.4348906 37.2632665,12.6632532 34.2624541,12.2345657 Z" id="ID0.328220805618912" fill="#F9A41F"/>
          <path d="M42.0645663,43.2715394 C34.0909791,43.1858019 16.5147924,31.2682899 10.6846426,43.2715394 C4.34006788,56.3036389 14.54283,63.2483761 24.745592,66.0777135 C54.6679783,74.4799881 66.4140153,59.7331387 66.3282778,51.4166016 C66.3282778,45.1577643 64.6135279,43.1858019 61.355503,41.8997395 C53.8106033,38.8989271 49.952416,43.2715394 42.0645663,43.2715394 Z" id="ID0.6610133568756282" fill="#FFFFFF"/>
          <g id="ID0.5234180972911417" stroke="#231F20" stroke-linecap="round" stroke-linejoin="round" stroke-width="0.857374964">
            <path d="M34.2624541,12.2345657 C31.0901668,11.8058782 27.8321419,12.0630907 24.745592,12.8347282 L12.5708675,0.317053689 L10.5989051,20.5511028 C10.5989051,20.5511028 4.0828554,23.6376527 1.16778052,35.2979522 C-2.09024435,48.2443142 8.54120521,61.3621511 24.745592,66.0777135 C46.2657036,72.3365507 65.2136904,66.1634509 66.3282778,51.4166016 C66.9284403,43.7002269 61.355503,41.8997395 61.355503,41.8997395 C61.355503,41.8997395 62.8130405,37.0984397 60.669603,30.4109149 C59.3835406,26.3812526 56.9828907,22.8660153 53.8106033,20.1224154 L53.4676533,7.43326589 L43.0934163,14.4637406 C40.1783414,13.4348906 37.2632665,12.6632532 34.2624541,12.2345657 Z" id="ID0.6854334818199277"/>
          </g>
        </g>
        <path d="M24.745592,12.8347282 L25.8601795,14.0350531" id="ID0.18328718142583966" stroke="#231F20" stroke-width="0.857374964" stroke-linecap="round" stroke-linejoin="round"/>
      </g>
      <g id="Group-3" transform="translate(22.000000, 29.000000)" stroke="#231F20" stroke-linecap="round" stroke-linejoin="round" stroke-width="0.857374964">
        <path d="M0.907805559,10.9890521 C2.96550547,11.6749521 5.02320539,12.1893771 7.0809053,12.6180645 C9.05286772,12.9610145 12.9110551,13.3039645 12.9110551,13.3039645" id="ID0.9732344932854176"/>
        <path d="M14.0256425,9.27430218 C12.3108926,7.47381475 10.4246677,5.75906482 8.45270524,4.30152738 C6.56648032,2.84398995 4.50878041,1.5579275 2.2796055,0.443340045" id="ID0.982788821682334"/>
      </g>
      <g id="ID0.26337171206250787" transform="translate(76.849999, 23.750000)">
        <path d="M13.7904287,8.13222773 C15.8481286,13.4479525 14.7335412,18.8494148 11.4755163,20.1354772 C8.13175393,21.4215397 3.84487911,18.0777773 1.78717919,12.7620525 C-0.270520721,7.44632776 0.844066733,2.04486548 4.1020916,0.758803035 C7.36011646,-0.612996908 11.7327288,2.81650295 13.7904287,8.13222773 Z" id="ID0.56489945249632" stroke="#231F20" stroke-width="0.857374964" fill="#FFFFFF" stroke-linecap="round" stroke-linejoin="round"/>
        <path d="M12.0756788,11.0473026 C12.0756788,12.0761526 11.1325663,12.9335275 10.1037163,12.9335275 C9.07486639,12.9335275 8.21749143,11.9904151 8.21749143,10.9615651 C8.21749143,9.93271515 8.98912889,9.16107769 10.0179789,9.07534019 C11.1325663,9.07534019 12.0756788,10.0184527 12.0756788,11.0473026 C12.0756788,11.0473026 12.0756788,11.0473026 12.0756788,11.0473026" id="ID0.775096942204982" fill="#231F20"/>
      </g>
      <g id="ID0.7706028069369495" transform="translate(49.299999, 21.850000)">
        <path d="M15.5334419,7.97452779 C17.5911418,13.2902526 16.0478669,18.8631898 12.1039421,20.3207273 C8.16001723,21.7782647 3.27297993,18.6917148 1.30101751,13.3759901 C-0.7566824,7.97452779 0.786592536,2.48732802 4.73051737,1.02979058 C8.67444221,-0.42774686 13.5614795,2.65880301 15.5334419,7.97452779 Z" id="ID0.9455000613816082" stroke="#231F20" stroke-width="0.857374964" fill="#FFFFFF" stroke-linecap="round" stroke-linejoin="round"/>
        <path d="M13.5614795,11.1468152 C13.2185295,12.1756651 12.1896796,12.7758276 11.1608296,12.4328776 C10.1319796,12.0899276 9.53181717,11.0610777 9.87476716,10.0322277 C10.1319796,9.08911524 11.1608296,8.48895277 12.1039421,8.74616526 C13.2185295,8.91764025 13.9044295,10.0322277 13.5614795,11.1468152 C13.5614795,11.1468152 13.5614795,11.1468152 13.5614795,11.1468152" id="ID0.35412361985072494" fill="#231F20"/>
      </g>
      <g id="ID0.7050393782556057" transform="translate(66.399999, 41.799999)" stroke="#231F20" stroke-linecap="round" stroke-linejoin="round" stroke-width="0.857374964">
        <path d="M7.52161676,0.799415009 C9.32210418,0.970890002 12.6658665,0.627940016 12.4943916,2.77137743 C12.3229166,3.71448989 9.83652916,6.88677726 7.77882925,6.54382727 C5.72112933,6.20087728 2.37736697,3.11432741 2.89179195,1.48531498 C3.40621693,-0.143697452 5.89260433,0.627940016 7.52161676,0.799415009 Z" id="ID0.7292461628094316" fill="#231F20"/>
        <path d="M13.951929,12.4597145 C13.6947165,14.6031519 -0.45197041,13.4885645 0.0624545689,10.7449646" id="ID0.4421373223885894"/>
      </g>
      <g id="Group-2" transform="translate(13.000000, 48.000000)">
        <path d="M16.1666428,7.16458898 C15.4807428,10.2511388 11.365343,12.4803138 7.07846818,12.1373638 C2.79159335,11.7944138 -0.0377440277,9.0508139 0.73389344,5.96426403 C1.50553091,2.87771415 5.53519324,0.648539246 9.82206806,0.905751736 C14.1089429,1.24870172 16.9382803,4.0780391 16.1666428,7.16458898 Z" id="ID0.5864751464687288" fill="#F9A41F"/>
        <path d="M16.1666428,7.16458898 C15.4807428,10.2511388 11.365343,12.4803138 7.07846818,12.1373638 C2.79159335,11.7944138 -0.0377440277,9.0508139 0.73389344,5.96426403 C1.50553091,2.87771415 5.53519324,0.648539246 9.82206806,0.905751736 C14.1089429,1.24870172 16.9382803,4.0780391 16.1666428,7.16458898 Z" id="ID0.6067810989916325" stroke="#231F20" stroke-width="0.857374964" stroke-linecap="round" stroke-linejoin="round"/>
      </g>
      <g id="Group" transform="translate(95.000000, 48.000000)" stroke="#231F20" stroke-linecap="round" stroke-linejoin="round" stroke-width="0.857374964">
        <path d="M1.2991025,1.7631267 C3.7854899,1.93460169 6.2718773,1.8488642 8.84400219,1.6773892 C10.7302271,1.42017671 12.5307145,0.905751736 14.159727,0.0483767712" id="ID0.3905865359120071"/>
        <path d="M0.270252548,7.25032647 C2.07073997,8.19343893 3.95696489,8.8793389 6.01466481,9.39376388 C7.64367724,9.73671387 9.27268967,9.99392636 10.9017021,10.0796639" id="ID0.570885996799916"/>
      </g>
    </g>
  </g>
</svg>