<svg version="1.1" width="102" height="61" xmlns="http://www.w3.org/2000/svg" xmlns:xlink="http://www.w3.org/1999/xlink">
  <!-- Exported by Scratch - http://scratch.mit.edu/ -->
  <g id="ID0.5455418778583407" transform="matrix(0.949999988079071, 0, 0, 0.949999988079071, 0.5, -0.5)">
    <path id="L_Leg_3" fill="#74BF44" stroke="#000000" stroke-width="3" d="M 33.774 12.541 C 33.774 12.541 30.781 4.758 25.625 4.572 C 20.469 4.385 11.141 10.593 13.992 13.197 C 16.846 15.801 23.617 10.756 24.867 10.850 C 26.117 10.944 30.217 16.949 30.217 16.949 L 33.774 12.541 L 33.774 12.541 L 33.774 12.541 L 33.774 12.541 L 33.774 12.541 L 33.774 12.541 Z " transform="matrix(0.8145062327384949, 0, 0, 0.8145062327384949, 0.35, 0.65)"/>
    <path id="L_Leg_2" fill="#74BF44" stroke="#000000" stroke-width="3" d="M 25.625 25.884 C 25.625 25.884 17.926 17.796 13.461 18.822 C 8.996 19.847 -1.633 36.197 4.617 37.822 C 10.867 39.447 12.992 27.072 14.867 27.072 C 16.742 27.072 23.617 33.127 23.617 33.127 L 25.625 25.884 L 25.625 25.884 L 25.625 25.884 L 25.625 25.884 L 25.625 25.884 L 25.625 25.884 Z " transform="matrix(0.8145062327384949, 0, 0, 0.8145062327384949, 0.35, 0.65)"/>
    <path id="L_Leg_1" fill="#74BF44" stroke="#000000" stroke-width="3" d="M 27.932 44.221 C 27.932 44.221 22.601 39.586 17.493 40.412 C 12.385 41.236 -2.847 56.537 2.698 60.162 C 8.243 63.787 16.868 48.912 19.493 48.787 C 22.118 48.662 33.775 55.754 33.775 55.754 L 33.243 50.524 L 27.932 44.221 L 27.932 44.221 L 27.932 44.221 L 27.932 44.221 L 27.932 44.221 L 27.932 44.221 Z " transform="matrix(0.8145062327384949, 0, 0, 0.8145062327384949, 0.35, 0.65)"/>
    <path id="R_Leg_3" fill="#74BF44" stroke="#000000" stroke-width="3" d="M 90.288 12.541 C 90.288 12.541 93.281 4.758 98.437 4.572 C 103.591 4.385 112.921 10.593 110.070 13.197 C 107.216 15.801 100.445 10.756 99.195 10.850 C 97.945 10.944 93.843 16.949 93.843 16.949 L 90.288 12.541 L 90.288 12.541 L 90.288 12.541 L 90.288 12.541 L 90.288 12.541 L 90.288 12.541 Z " transform="matrix(0.8145062327384949, 0, 0, 0.8145062327384949, 0.35, 0.65)"/>
    <path id="R_Leg_2" fill="#74BF44" stroke="#000000" stroke-width="3" d="M 98.438 25.884 C 98.438 25.884 106.135 17.796 110.602 18.822 C 115.067 19.847 125.696 36.197 119.446 37.822 C 113.196 39.447 111.071 27.072 109.196 27.072 C 107.321 27.072 100.446 33.127 100.446 33.127 L 98.438 25.884 L 98.438 25.884 L 98.438 25.884 L 98.438 25.884 L 98.438 25.884 L 98.438 25.884 Z " transform="matrix(0.8145062327384949, 0, 0, 0.8145062327384949, 0.35, 0.65)"/>
    <path id="R_Leg_1" fill="#74BF44" stroke="#000000" stroke-width="3" d="M 96.131 44.506 C 96.131 44.506 101.462 39.871 106.570 40.697 C 111.677 41.521 126.910 56.822 121.365 60.447 C 115.820 64.072 107.195 49.197 104.570 49.072 C 101.945 48.947 90.288 56.039 90.288 56.039 L 90.820 50.809 L 96.131 44.506 L 96.131 44.506 L 96.131 44.506 L 96.131 44.506 L 96.131 44.506 L 96.131 44.506 Z " transform="matrix(0.8145062327384949, 0, 0, 0.8145062327384949, 0.35, 0.65)"/>
    <g id="R_Wing">
      <g id="Wing_1_">
        <path id="ID0.5016931747086346" fill="#A6479A" d="M 62.455 33.170 L 61.316 1.534 L 62.905 1.569 C 64.473 1.603 66.107 1.745 67.761 1.992 C 70.674 2.426 73.567 3.191 76.361 4.263 C 81.486 6.231 86.223 9.221 90.062 12.910 C 92.613 15.362 94.717 18.067 96.319 20.950 C 98.620 25.093 99.786 29.388 99.786 33.717 C 99.786 34.269 99.762 34.858 99.710 35.517 C 99.485 38.422 98.722 41.234 97.439 43.876 C 96.307 46.208 94.772 48.418 92.876 50.446 C 92.282 51.135 91.291 52.083 89.953 53.236 C 89.957 53.369 89.960 53.503 89.960 53.636 C 89.960 54.653 89.843 55.663 89.611 56.641 L 89.486 57.166 L 89.055 57.492 C 88.489 57.919 87.859 58.363 87.126 58.848 C 82.389 61.991 76.772 64.199 70.884 65.232 C 68.625 65.629 66.307 65.861 63.993 65.920 L 62.455 65.960 L 62.455 33.170 L 62.455 33.170 L 62.455 33.170 L 62.455 33.170 L 62.455 33.170 L 62.455 33.170 Z " transform="matrix(0.8145062327384949, 0, 0, 0.8145062327384949, 0.35, 0.65)"/>
        <path id="ID0.10186179494485259" d="M 62.872 3.068 C 64.441 3.102 65.999 3.245 67.540 3.475 C 70.388 3.900 73.168 4.644 75.822 5.663 C 80.815 7.580 85.351 10.464 89.022 13.991 C 91.431 16.307 93.463 18.899 95.006 21.677 C 97.089 25.428 98.284 29.513 98.284 33.716 C 98.284 34.284 98.256 34.844 98.213 35.401 C 97.998 38.179 97.264 40.798 96.088 43.220 C 95 45.462 93.540 47.537 91.778 49.421 C 90.953 50.377 89.499 51.659 88.406 52.581 C 88.437 52.931 88.458 53.281 88.458 53.636 C 88.458 54.550 88.353 55.438 88.149 56.295 C 87.550 56.747 86.928 57.179 86.295 57.599 C 81.797 60.583 76.461 62.731 70.623 63.755 C 68.462 64.135 66.233 64.362 63.953 64.421 L 63.953 33.170 L 62.872 3.068 M 59.760 0 L 59.874 3.176 L 60.955 33.223 L 60.955 64.421 L 60.955 67.500 L 64.032 67.421 C 66.419 67.359 68.811 67.120 71.144 66.711 C 77.234 65.642 83.046 63.356 87.955 60.100 C 88.713 59.597 89.368 59.136 89.959 58.690 L 90.820 58.040 L 91.069 56.988 C 91.306 55.987 91.436 54.955 91.456 53.916 C 92.566 52.937 93.422 52.104 94.009 51.431 C 95.991 49.304 97.599 46.983 98.788 44.532 C 100.152 41.721 100.966 38.727 101.205 35.635 C 101.259 34.936 101.285 34.309 101.285 33.719 C 101.285 29.132 100.056 24.592 97.630 20.223 C 95.956 17.209 93.760 14.386 91.102 11.831 C 87.120 8.004 82.208 4.904 76.898 2.865 C 74.002 1.753 71.003 0.961 67.983 0.510 C 66.266 0.254 64.569 0.107 62.938 0.072 L 59.760 0 L 59.760 0 L 62.872 3.068 L 62.872 3.068 L 62.872 3.068 L 62.872 3.068 L 62.872 3.068 Z " transform="matrix(0.8145062327384949, 0, 0, 0.8145062327384949, 0.35, 0.65)"/>
      </g>
      <path id="Spot_13_" fill="#F4EB43" d="M 69.607 14.675 C 70.570 14.675 71.442 15.087 72.074 15.752 C 72.706 16.417 73.097 17.336 73.097 18.350 C 73.097 19.364 72.706 20.283 72.074 20.948 C 71.442 21.613 70.570 22.025 69.607 22.025 C 68.644 22.025 67.772 21.613 67.140 20.948 C 66.508 20.283 66.117 19.364 66.117 18.350 C 66.117 17.336 66.508 16.417 67.140 15.752 C 67.772 15.087 68.644 14.675 69.607 14.675 L 69.607 14.675 L 69.607 14.675 L 69.607 14.675 L 69.607 14.675 Z " transform="matrix(0.8145062327384949, 0, 0, 0.8145062327384949, 0.35, 0.65)"/>
      <path id="Spot_12_" fill="#F4EB43" d="M 84.068 29.174 C 85.031 29.174 85.903 29.586 86.535 30.251 C 87.167 30.916 87.558 31.835 87.558 32.849 C 87.558 33.863 87.167 34.782 86.535 35.447 C 85.903 36.112 85.031 36.524 84.068 36.524 C 83.105 36.524 82.233 36.112 81.601 35.447 C 80.969 34.782 80.578 33.863 80.578 32.849 C 80.578 31.835 80.969 30.916 81.601 30.251 C 82.233 29.586 83.105 29.174 84.068 29.174 L 84.068 29.174 L 84.068 29.174 L 84.068 29.174 L 84.068 29.174 Z " transform="matrix(0.8145062327384949, 0, 0, 0.8145062327384949, 0.35, 0.65)"/>
      <path id="Spot_11_" fill="#F4EB43" d="M 71.117 12.072 C 73.809 12.072 75.992 9.773 75.992 6.939 C 75.992 6.496 75.922 6.073 75.822 5.663 C 73.168 4.643 70.387 3.899 67.540 3.475 C 66.741 4.390 66.242 5.599 66.242 6.939 C 66.242 9.773 68.425 12.072 71.117 12.072 L 71.117 12.072 L 71.117 12.072 L 71.117 12.072 L 71.117 12.072 L 71.117 12.072 Z " transform="matrix(0.8145062327384949, 0, 0, 0.8145062327384949, 0.35, 0.65)"/>
      <path id="Spot_10_" fill="#F4EB43" d="M 80.402 20.829 C 80.402 24.668 83.684 27.780 87.734 27.780 C 91.480 27.780 94.564 25.116 95.006 21.678 C 93.463 18.900 91.431 16.308 89.022 13.992 C 88.603 13.922 88.174 13.878 87.734 13.878 C 83.685 13.878 80.402 16.990 80.402 20.829 L 80.402 20.829 L 80.402 20.829 L 80.402 20.829 L 80.402 20.829 L 80.402 20.829 Z " transform="matrix(0.8145062327384949, 0, 0, 0.8145062327384949, 0.35, 0.65)"/>
      <path id="Spot_9_" fill="#F4EB43" d="M 75.991 44.917 C 70.099 44.917 65.325 49.444 65.325 55.027 C 65.325 58.755 67.458 62.003 70.625 63.756 C 76.463 62.732 81.799 60.584 86.297 57.600 C 86.525 56.778 86.658 55.918 86.658 55.028 C 86.658 49.444 81.882 44.917 75.991 44.917 L 75.991 44.917 L 75.991 44.917 L 75.991 44.917 L 75.991 44.917 L 75.991 44.917 Z " transform="matrix(0.8145062327384949, 0, 0, 0.8145062327384949, 0.35, 0.65)"/>
      <path id="Spot_8_" fill="#F4EB43" d="M 93.694 33.195 C 90.621 33.195 88.132 35.555 88.132 38.468 C 88.132 41.379 90.621 43.740 93.694 43.740 C 94.552 43.740 95.363 43.551 96.089 43.220 C 97.265 40.798 97.999 38.179 98.214 35.401 C 97.204 34.067 95.559 33.195 93.694 33.195 L 93.694 33.195 L 93.694 33.195 L 93.694 33.195 L 93.694 33.195 L 93.694 33.195 Z " transform="matrix(0.8145062327384949, 0, 0, 0.8145062327384949, 0.35, 0.65)"/>
      <path id="Spot_7_" fill="#F4EB43" d="M 71.805 24.763 C 73.340 24.763 74.730 25.354 75.737 26.308 C 76.744 27.262 77.367 28.580 77.367 30.035 C 77.367 31.490 76.744 32.808 75.737 33.762 C 74.730 34.716 73.340 35.307 71.805 35.307 C 70.270 35.307 68.880 34.716 67.873 33.762 C 66.866 32.808 66.243 31.490 66.243 30.035 C 66.243 28.580 66.866 27.262 67.873 26.308 C 68.880 25.354 70.270 24.763 71.805 24.763 L 71.805 24.763 L 71.805 24.763 L 71.805 24.763 L 71.805 24.763 Z " transform="matrix(0.8145062327384949, 0, 0, 0.8145062327384949, 0.35, 0.65)"/>
    </g>
    <g id="L_Wing">
      <g id="Wing">
        <path id="ID0.11360358074307442" fill="#A6479A" d="M 59.913 65.852 C 50.433 65.282 41.531 61.844 34.846 56.174 L 34.397 55.794 L 34.327 55.210 C 34.258 54.637 34.224 54.122 34.224 53.637 C 34.224 53.446 34.229 53.250 34.240 53.044 C 33.877 52.710 33.503 52.360 33.134 52.013 L 33.027 52.343 L 31.306 50.447 C 30.907 50.020 30.527 49.581 30.159 49.136 C 27.608 46.058 25.880 42.638 25.021 38.968 C 24.606 37.197 24.396 35.431 24.396 33.718 C 24.396 27.146 27.057 20.677 32.090 15.013 C 36.983 9.505 43.749 5.292 51.140 3.148 C 54.499 2.174 57.910 1.644 61.277 1.570 L 62.866 1.535 L 61.725 33.224 L 61.493 65.946 L 59.913 65.852 L 59.913 65.852 L 59.913 65.852 L 59.913 65.852 L 59.913 65.852 L 59.913 65.852 Z " transform="matrix(0.8145062327384949, 0, 0, 0.8145062327384949, 0.35, 0.65)"/>
        <path id="ID0.5329429218545556" d="M 61.310 3.070 L 60.691 20.246 L 60.359 29.454 L 60.225 33.170 L 60.171 40.719 L 60.024 61.442 L 60.003 64.354 C 50.547 63.785 42.060 60.326 35.816 55.030 C 35.761 54.572 35.724 54.109 35.724 53.636 C 35.724 53.231 35.752 52.829 35.793 52.429 C 35.143 51.843 34.421 51.166 33.743 50.522 C 33.278 50.081 32.830 49.651 32.454 49.288 C 32.439 49.333 32.417 49.377 32.402 49.422 C 32.023 49.017 31.663 48.600 31.313 48.178 L 31.312 48.177 C 28.973 45.355 27.304 42.142 26.481 38.626 C 26.111 37.048 25.896 35.415 25.896 33.718 C 25.896 27.278 28.682 21.106 33.211 16.009 C 37.862 10.774 44.353 6.678 51.557 4.589 C 54.704 3.677 57.985 3.143 61.310 3.070 M 64.422 0.002 L 61.244 0.071 C 57.746 0.147 54.206 0.697 50.722 1.707 C 43.062 3.928 36.047 8.300 30.969 14.016 C 25.688 19.960 22.897 26.772 22.897 33.718 C 22.897 35.546 23.121 37.428 23.562 39.311 C 24.474 43.207 26.305 46.834 29.003 50.091 L 29.087 50.193 L 29.090 50.196 C 29.494 50.680 29.852 51.088 30.211 51.471 L 32.736 54.172 C 32.752 54.557 32.786 54.959 32.838 55.389 L 32.979 56.557 L 33.876 57.319 C 40.806 63.197 50.021 66.759 59.823 67.349 L 62.980 67.539 L 63.003 64.376 L 63.024 61.464 L 63.171 40.741 L 63.224 33.235 L 63.356 29.562 L 63.688 20.354 L 64.306 3.178 L 64.422 0.002 L 64.422 0.002 L 61.310 3.070 L 61.310 3.070 L 61.310 3.070 L 61.310 3.070 L 61.310 3.070 Z " transform="matrix(0.8145062327384949, 0, 0, 0.8145062327384949, 0.35, 0.65)"/>
      </g>
      <path id="Spot_6_" fill="#F4EB43" d="M 57.830 19.490 C 54.757 19.490 52.268 21.850 52.268 24.763 C 52.268 27.674 54.757 30.035 57.830 30.035 C 58.742 30.035 59.600 29.823 60.359 29.454 L 60.691 20.246 C 59.854 19.770 58.878 19.490 57.830 19.490 L 57.830 19.490 L 57.830 19.490 L 57.830 19.490 L 57.830 19.490 L 57.830 19.490 Z " transform="matrix(0.8145062327384949, 0, 0, 0.8145062327384949, 0.35, 0.65)"/>
      <path id="Spot_5_" fill="#F4EB43" d="M 50.214 31.633 C 51.177 31.633 52.049 32.045 52.681 32.710 C 53.313 33.375 53.704 34.294 53.704 35.308 C 53.704 36.322 53.313 37.241 52.681 37.906 C 52.049 38.571 51.177 38.983 50.214 38.983 C 49.251 38.983 48.379 38.571 47.747 37.906 C 47.115 37.241 46.724 36.322 46.724 35.308 C 46.724 34.294 47.115 33.375 47.747 32.710 C 48.379 32.045 49.251 31.633 50.214 31.633 L 50.214 31.633 L 50.214 31.633 L 50.214 31.633 L 50.214 31.633 Z " transform="matrix(0.8145062327384949, 0, 0, 0.8145062327384949, 0.35, 0.65)"/>
      <path id="Spot_4_" fill="#F4EB43" d="M 42.704 48.279 C 43.667 48.279 44.539 48.691 45.171 49.356 C 45.803 50.021 46.194 50.940 46.194 51.954 C 46.194 52.968 45.803 53.887 45.171 54.552 C 44.539 55.217 43.667 55.629 42.704 55.629 C 41.741 55.629 40.869 55.217 40.237 54.552 C 39.605 53.887 39.214 52.968 39.214 51.954 C 39.214 50.940 39.605 50.021 40.237 49.356 C 40.869 48.691 41.741 48.279 42.704 48.279 L 42.704 48.279 L 42.704 48.279 L 42.704 48.279 L 42.704 48.279 Z " transform="matrix(0.8145062327384949, 0, 0, 0.8145062327384949, 0.35, 0.65)"/>
      <path id="Spot_3_" fill="#F4EB43" d="M 37.267 24.764 C 38.802 24.764 40.192 25.355 41.199 26.309 C 42.206 27.263 42.829 28.581 42.829 30.036 C 42.829 31.491 42.206 32.809 41.199 33.763 C 40.192 34.717 38.802 35.308 37.267 35.308 C 35.732 35.308 34.342 34.717 33.335 33.763 C 32.328 32.809 31.705 31.491 31.705 30.036 C 31.705 28.581 32.328 27.263 33.335 26.309 C 34.342 25.355 35.732 24.764 37.267 24.764 L 37.267 24.764 L 37.267 24.764 L 37.267 24.764 L 37.267 24.764 Z " transform="matrix(0.8145062327384949, 0, 0, 0.8145062327384949, 0.35, 0.65)"/>
      <g id="Spot_2_">
        <path id="ID0.05397807341068983" fill="#F4EB43" d="M 36.014 43.595 C 35.190 39.783 31.576 37.328 27.942 38.116 C 27.425 38.227 26.938 38.403 26.483 38.627 C 27.306 42.143 28.975 45.356 31.314 48.178 L 31.315 48.179 C 31.665 48.601 32.025 49.018 32.404 49.423 C 32.419 49.378 32.441 49.334 32.456 49.289 C 32.832 49.652 33.280 50.082 33.745 50.523 C 35.632 48.919 36.595 46.280 36.014 43.595 L 36.014 43.595 L 36.014 43.595 L 36.014 43.595 L 36.014 43.595 L 36.014 43.595 Z " transform="matrix(0.8145062327384949, 0, 0, 0.8145062327384949, 0.35, 0.65)"/>
      </g>
      <g id="Spot_1_">
        <path id="ID0.24636078719049692" fill="#F4EB43" d="M 42.704 21.186 C 48.779 21.186 53.704 16.518 53.704 10.758 C 53.704 8.446 52.901 6.318 51.558 4.589 C 44.354 6.678 37.863 10.774 33.212 16.009 C 35.120 19.103 38.651 21.186 42.704 21.186 L 42.704 21.186 L 42.704 21.186 L 42.704 21.186 L 42.704 21.186 L 42.704 21.186 Z " transform="matrix(0.8145062327384949, 0, 0, 0.8145062327384949, 0.35, 0.65)"/>
      </g>
      <g id="Spot">
        <path id="ID0.8482278920710087" fill="#F4EB43" d="M 50.310 51.092 C 50.310 56.439 54.556 60.838 60.025 61.443 L 60.172 40.720 C 54.631 41.260 50.310 45.697 50.310 51.092 L 50.310 51.092 L 50.310 51.092 L 50.310 51.092 L 50.310 51.092 L 50.310 51.092 Z " transform="matrix(0.8145062327384949, 0, 0, 0.8145062327384949, 0.35, 0.65)"/>
      </g>
    </g>
    <g id="Head_1_">
      <path id="L_Antenna" fill="#74BF44" stroke="#000000" stroke-width="3" d="M 49.413 36.854 C 49.413 36.854 46.617 30.948 46.992 26.198 C 47.367 21.448 46.529 17.362 43.323 17.718 C 40.117 18.074 36.880 22.790 38.117 28.887 C 39.354 34.984 43.631 39.081 43.631 39.081 L 49.413 36.854 L 49.413 36.854 L 49.413 36.854 L 49.413 36.854 L 49.413 36.854 L 49.413 36.854 Z " transform="matrix(0.8145062327384949, 0, 0, 0.8145062327384949, 0.35, 0.65)"/>
      <path id="R_Antenna" fill="#74BF44" stroke="#000000" stroke-width="3" d="M 74.649 36.854 C 74.649 36.854 77.445 30.948 77.070 26.198 C 76.695 21.448 77.533 17.362 80.739 17.718 C 83.945 18.074 87.182 22.790 85.945 28.887 C 84.708 34.984 80.432 39.080 80.432 39.080 L 74.649 36.854 L 74.649 36.854 L 74.649 36.854 L 74.649 36.854 L 74.649 36.854 L 74.649 36.854 Z " transform="matrix(0.8145062327384949, 0, 0, 0.8145062327384949, 0.35, 0.65)"/>
      <g id="Head">
        <path id="ID0.16291373409330845" fill="#74BF44" d="M 62.091 71.627 C 46.205 71.627 34.225 63.893 34.225 53.637 C 34.225 42.945 46.725 34.246 62.091 34.246 C 77.457 34.246 89.959 42.944 89.959 53.637 C 89.959 63.893 77.979 71.627 62.091 71.627 L 62.091 71.627 L 62.091 71.627 L 62.091 71.627 L 62.091 71.627 L 62.091 71.627 L 62.091 71.627 Z " transform="matrix(0.8145062327384949, 0, 0, 0.8145062327384949, 0.35, 0.65)"/>
        <path id="ID0.31059188302606344" d="M 62.091 35.746 C 76.465 35.746 88.459 43.885 88.459 53.637 C 88.459 63.386 76.465 70.127 62.091 70.127 C 47.717 70.127 35.725 63.387 35.725 53.637 C 35.725 43.885 47.717 35.746 62.091 35.746 M 62.091 32.746 C 45.899 32.746 32.725 42.117 32.725 53.637 C 32.725 64.748 45.350 73.127 62.091 73.127 C 78.833 73.127 91.459 64.748 91.459 53.637 C 91.459 42.117 78.284 32.746 62.091 32.746 L 62.091 32.746 L 62.091 35.746 L 62.091 35.746 L 62.091 35.746 L 62.091 35.746 L 62.091 35.746 Z " transform="matrix(0.8145062327384949, 0, 0, 0.8145062327384949, 0.35, 0.65)"/>
      </g>
      <path id="Mouth" fill="#231F20" d="M 53.867 57.990 C 58.911 60.447 62.829 56.269 67.365 58.590 C 71.242 60.572 75.578 54.754 78.666 60.194 C 79.762 62.122 78.142 64.669 75.867 65.380 C 72.839 66.325 69.367 64.198 66.813 65.966 C 64.040 67.884 63.658 68.450 60.281 67.214 C 58.311 66.489 57.004 64.706 54.843 64.318 C 52.693 63.929 50.356 65.880 48.269 64.615 C 43.101 61.480 50.757 56.474 53.867 57.990 L 53.867 57.990 L 53.867 57.990 L 53.867 57.990 L 53.867 57.990 L 53.867 57.990 Z " transform="matrix(0.8145062327384949, 0, 0, 0.8145062327384949, 0.35, 0.65)"/>
      <g id="L_Eye">
        <path id="White" fill="#FFFFFF" d="M 52.719 41.886 C 49.622 41.421 46.652 44.080 46.187 47.188 C 45.725 50.294 47.782 53.724 50.880 54.186 C 53.978 54.649 56.948 51.973 57.413 48.866 C 57.878 45.757 55.818 42.347 52.719 41.886 L 52.719 41.886 L 52.719 41.886 L 52.719 41.886 L 52.719 41.886 L 52.719 41.886 Z " transform="matrix(0.8145062327384949, 0, 0, 0.8145062327384949, 0.35, 0.65)"/>
        <path id="Pupil" fill="#231F20" d="M 51.766 45.822 C 52.415 45.822 53.003 46.102 53.429 46.555 C 53.854 47.007 54.118 47.632 54.118 48.322 C 54.118 49.012 53.854 49.637 53.429 50.089 C 53.003 50.542 52.415 50.822 51.766 50.822 C 51.117 50.822 50.529 50.542 50.103 50.089 C 49.678 49.637 49.414 49.012 49.414 48.322 C 49.414 47.632 49.678 47.007 50.103 46.555 C 50.529 46.102 51.117 45.822 51.766 45.822 L 51.766 45.822 L 51.766 45.822 L 51.766 45.822 L 51.766 45.822 Z " transform="matrix(0.8145062327384949, 0, 0, 0.8145062327384949, 0.35, 0.65)"/>
        <path id="Outline" fill="#231F20" d="M 52.974 39.174 C 48.238 38.467 43.803 41.846 43.076 46.723 C 42.348 51.602 45.597 56.131 50.332 56.838 C 55.068 57.545 59.499 54.166 60.228 49.287 C 60.958 44.410 57.712 39.881 52.974 39.174 L 52.974 39.174 L 52.974 39.174 L 52.974 39.174 L 52.974 39.174 L 52.974 39.174 Z M 57.413 48.865 C 56.948 51.972 53.977 54.648 50.880 54.185 C 47.781 53.723 45.725 50.293 46.187 47.187 C 46.652 44.080 49.623 41.420 52.719 41.885 C 55.818 42.347 57.878 45.757 57.413 48.865 L 57.413 48.865 L 57.413 48.865 L 57.413 48.865 L 57.413 48.865 L 57.413 48.865 Z " transform="matrix(0.8145062327384949, 0, 0, 0.8145062327384949, 0.35, 0.65)"/>
      </g>
      <g id="R_Eye">
        <path id="White_1_" fill="#FFFFFF" d="M 73.596 41.886 C 70.499 41.421 67.529 44.080 67.064 47.188 C 66.602 50.294 68.659 53.724 71.757 54.186 C 74.855 54.649 77.825 51.973 78.290 48.866 C 78.755 45.757 76.695 42.347 73.596 41.886 L 73.596 41.886 L 73.596 41.886 L 73.596 41.886 L 73.596 41.886 L 73.596 41.886 Z " transform="matrix(0.8145062327384949, 0, 0, 0.8145062327384949, 0.35, 0.65)"/>
        <path id="Pupil_1_" fill="#231F20" d="M 72.643 45.822 C 73.292 45.822 73.880 46.102 74.306 46.555 C 74.731 47.007 74.995 47.632 74.995 48.322 C 74.995 49.012 74.731 49.637 74.306 50.089 C 73.880 50.542 73.292 50.822 72.643 50.822 C 71.994 50.822 71.406 50.542 70.980 50.089 C 70.555 49.637 70.291 49.012 70.291 48.322 C 70.291 47.632 70.555 47.007 70.980 46.555 C 71.406 46.102 71.994 45.822 72.643 45.822 L 72.643 45.822 L 72.643 45.822 L 72.643 45.822 L 72.643 45.822 Z " transform="matrix(0.8145062327384949, 0, 0, 0.8145062327384949, 0.35, 0.65)"/>
        <path id="Outline_1_" fill="#231F20" d="M 73.851 39.174 C 69.115 38.467 64.680 41.846 63.953 46.723 C 63.225 51.602 66.474 56.131 71.209 56.838 C 75.945 57.545 80.376 54.166 81.105 49.287 C 81.835 44.410 78.589 39.881 73.851 39.174 L 73.851 39.174 L 73.851 39.174 L 73.851 39.174 L 73.851 39.174 L 73.851 39.174 Z M 78.290 48.865 C 77.825 51.972 74.854 54.648 71.757 54.185 C 68.658 53.723 66.602 50.293 67.064 47.187 C 67.529 44.080 70.500 41.420 73.596 41.885 C 76.695 42.347 78.755 45.757 78.290 48.865 L 78.290 48.865 L 78.290 48.865 L 78.290 48.865 L 78.290 48.865 L 78.290 48.865 Z " transform="matrix(0.8145062327384949, 0, 0, 0.8145062327384949, 0.35, 0.65)"/>
      </g>
    </g>
  </g>
</svg>