<svg width="420px" height="300px" viewBox="0 0 420 300" version="1.1" xml:space="preserve" xmlns="http://www.w3.org/2000/svg" xmlns:xlink="http://www.w3.org/1999/xlink">
  <!-- Generator: Sketch 49.3 (51167) - http://www.bohemiancoding.com/sketch -->
  <defs/>
  <g>
    <title>dragon-b</title>
    <desc>Created with Sketch.</desc>
    <g id="dragon-b" stroke="none" stroke-width="1" fill="none" fill-rule="evenodd">
      <g id="Dragon-Flying" transform="translate(210.000000, 150.000000) scale(-1, 1) translate(-210.000000, -150.000000) translate(7.000000, 19.000000)" fill-rule="nonzero">
        <g id="Flying">
          <g id="Group">
            <g transform="translate(88.000000, 152.000000)" id="Shape">
              <g transform="translate(0.000000, 56.000000)">
                <path d="M14.2,14.6 C14.2,14.6 15.3,11.6 13.9,11.8 C13.1,11.9 13.3,12.5 13.6,13.1 C14,13.5 14.2,13.7 14.2,14.6 Z" fill="#A1AF93"/>
                <path d="M0.7,15.7 C0.9,17.7 -0.3,19.2 0.4,20.9 C1.8,24.3 2.6,26.6 1.8,29 C1,31.3 6.1,33.8 6.8,32.1 C7.4,30.5 6.8,30.1 5.9,28.7 C5.9,28.7 7.1,29.8 8.2,29.9 C9.6,30.1 10.3,28.9 10.5,27.7 C10.6,26.4 9.5,25.2 9.5,25.2 C9.5,25.2 11.2,25.8 12.1,24.4 C13.2,22.8 12.5,22.7 11.2,21 C10.2,19.6 9.6,17.9 10.1,16.1 C10.7,13.9 10,12.3 10.8,10.4 C11.2,9.3 12.5,13.2 13.4,12.8 C14.7,12.2 15,11.1 14.3,9.9 C13,7.7 12.1,7 10.8,6.1 C8.8,4.9 7.7,-1.1 5.1,1.7 C2.3,4.7 0.3,12.1 0.7,15.7 Z" fill="#69B229"/>
                <path d="M7.4,29.9 C7.4,29.9 7.2,29.9 6.9,29.8 C6.6,29.7 6.2,29.6 5.7,29.2 C5.5,29 5.3,28.8 5.2,28.5 C5.1,28.2 4.9,27.9 4.9,27.5 C4.8,27.2 4.8,26.8 4.8,26.4 C4.8,26 4.9,25.7 4.9,25.4 C4.9,24.1 4.4,22.8 4,21.9 C3.8,21.4 3.6,21.1 3.4,20.8 C3.2,20.6 3.1,20.4 3.1,20.4 C3.1,20.4 3.3,20.5 3.5,20.7 C3.7,20.9 4.1,21.2 4.4,21.7 C5,22.6 5.6,23.9 5.6,25.4 C5.6,25.8 5.5,26.1 5.5,26.5 C5.5,26.8 5.5,27.1 5.5,27.4 C5.6,28 5.8,28.5 6.1,28.9 C6.4,29.3 6.8,29.5 7,29.7 C7.2,29.8 7.4,29.9 7.4,29.9 Z" fill="#519B3D"/>
                <path d="M9.7,25.2 C9.7,25.2 9.1,25.1 8.4,24.6 C8,24.3 7.6,24 7.3,23.5 C7,23 6.7,22.5 6.5,21.9 C6.4,21.6 6.4,21.3 6.3,21.1 C6.2,20.8 6.2,20.6 6.2,20.3 C6.1,19.8 6,19.3 6,18.9 C5.9,18.1 5.6,17.6 5.6,17.6 C5.6,17.6 5.7,17.7 5.9,17.9 C6,18.1 6.3,18.4 6.4,18.8 C6.7,19.6 7,20.8 7.2,21.8 C7.5,22.8 8.1,23.8 8.7,24.3 C9.2,24.9 9.7,25.2 9.7,25.2 Z" fill="#519B3D"/>
                <path d="M13.7,24.5 C13.7,24.5 9.4,25 10,22.9 C10.4,21.6 11.2,22.2 11.8,23 C12.4,23.8 12.6,24.1 13.7,24.5 Z" fill="#A1AF93"/>
                <path d="M11.3,30.2 C11.3,30.2 7,29.9 8,28 C8.6,26.8 9.3,27.5 9.7,28.4 C10.1,29.3 10.2,29.6 11.3,30.2 Z" fill="#A1AF93"/>
                <path d="M7.8,34.6 C7.8,34.6 3.8,32.9 5.4,31.4 C6.4,30.5 6.8,31.4 6.9,32.4 C7,33.3 6.9,33.7 7.8,34.6 Z" fill="#A1AF93"/>
              </g>
              <g transform="translate(3.000000, 0.000000)">
                <path d="M18.9,9.8 C14.5,20.5 18.8,39.4 32.7,52.1 C37.4,56.3 36.6,58.2 36.6,58.2 C36.6,58.2 31,57.5 21.3,58.6 C13.8,59.5 6.7,55.9 3.4,56.8 C-0.1,57.7 -3.2,66.3 18.9,69.8 C57.5,76 64.4,64.7 56.9,53 C48.7,40.2 55.3,31.5 54.5,17.9 C53.7,4.3 26.4,-8.3 18.9,9.8 Z" fill="#69B229"/>
                <path d="M56.3,51.8 C56.3,51.8 56,51.5 55.7,51 C55.3,50.4 54.8,49.6 54.4,48.6 C54.2,48.1 53.9,47.5 53.7,46.9 C53.5,46.3 53.3,45.6 53.1,44.9 C52.9,44.2 52.8,43.5 52.7,42.7 C52.6,41.9 52.5,41.2 52.5,40.4 C52.5,39.6 52.4,38.9 52.5,38.1 C52.5,37.3 52.5,36.6 52.6,35.9 C52.7,35.2 52.8,34.5 52.8,33.8 C52.9,33.2 53,32.5 53.2,32 C53.3,31.4 53.4,30.9 53.6,30.5 C53.7,30.1 53.8,29.7 53.9,29.3 C54.1,28.7 54.2,28.3 54.2,28.3 C54.2,28.3 54.1,28.7 54,29.3 C53.9,30 53.7,30.9 53.6,32 C53.5,32.6 53.4,33.2 53.4,33.8 C53.4,34.5 53.3,35.1 53.2,35.8 C53.1,36.5 53.2,37.2 53.1,38 C53.1,38.7 53.2,39.5 53.2,40.3 C53.2,41.1 53.3,41.8 53.4,42.5 C53.5,43.2 53.6,44 53.8,44.7 C54,45.4 54.1,46.1 54.3,46.7 C54.5,47.3 54.7,47.9 54.9,48.4 C55.1,48.9 55.3,49.4 55.5,49.8 C55.7,50.2 55.9,50.6 56,50.9 C56.1,51.5 56.3,51.8 56.3,51.8 Z" fill="#519B3D"/>
                <path d="M4.9,56.5 C4.9,56.5 5.5,56.6 6.5,56.9 C7,57 7.7,57.2 8.4,57.3 C9.1,57.4 10,57.6 10.9,57.7 C11.8,57.8 12.8,57.9 13.8,58 C14.8,58.1 15.9,58.1 17.1,58.2 C19.4,58.3 21.8,58.2 24.3,58.1 C26.7,58.1 29.2,58 31.5,58 C33.8,58 36,58.1 37.8,58.1 C39.6,58.2 41.2,58.3 42.2,58.4 C43.3,58.5 43.9,58.6 43.9,58.6 C43.9,58.6 43.3,58.6 42.2,58.5 C41.7,58.5 41,58.4 40.3,58.4 C39.6,58.4 38.7,58.4 37.8,58.4 C36,58.4 33.8,58.4 31.5,58.5 C29.2,58.5 26.8,58.6 24.3,58.7 C21.8,58.8 19.4,58.8 17.1,58.7 C15.9,58.7 14.8,58.5 13.8,58.4 C12.8,58.3 11.8,58.2 10.9,58 C10.4,57.9 10,57.8 9.6,57.8 C9.2,57.7 8.8,57.6 8.4,57.5 C7.7,57.3 7,57.2 6.5,57 C5.5,56.7 4.9,56.5 4.9,56.5 Z" fill="#519B3D"/>
                <path d="M20.6,70.3 C20.6,70.3 23.2,70.5 27.2,70.8 C29.2,70.9 31.5,71.1 33.9,71.2 C35.1,71.3 36.4,71.3 37.7,71.4 C39,71.4 40.3,71.5 41.6,71.3 C42.9,71.2 44.2,71.1 45.5,70.9 C46.8,70.7 48,70.5 49.2,70.2 C51.6,69.6 53.7,68.8 55.4,67.7 C57.1,66.7 58.1,65.4 58.7,64.4 C59.3,63.4 59.3,62.7 59.3,62.7 C59.3,62.7 59.3,62.9 59.2,63.2 C59.1,63.5 59,64 58.8,64.5 C58.6,65 58.2,65.7 57.7,66.3 C57.2,66.9 56.5,67.5 55.6,68.1 C54,69.3 51.7,70.2 49.3,70.8 C46.9,71.4 44.2,71.7 41.6,71.8 C38.9,71.9 36.3,71.7 33.8,71.6 C31.3,71.4 29,71.2 27.1,71 C23.2,70.6 20.6,70.3 20.6,70.3 Z" fill="#519B3D"/>
                <path d="M19.1,30.4 C19.1,30.4 18.6,29.2 18.1,27.2 C17.9,26.2 17.6,25.1 17.4,23.9 C17.2,22.7 17,21.4 16.9,20 C16.9,19.3 16.8,18.7 16.8,18 C16.8,17.3 16.8,16.7 16.9,16.1 C16.9,15.5 17,14.9 17.1,14.3 C17.2,13.7 17.4,13.2 17.5,12.7 C17.6,12.2 17.8,11.8 18,11.4 C18.1,11.2 18.1,11 18.2,10.9 C18.3,10.8 18.4,10.6 18.5,10.5 C18.8,10 19,9.7 19,9.7 C19,9.7 18.9,10 18.6,10.5 C18.5,10.6 18.5,10.8 18.4,10.9 C18.3,11.1 18.3,11.2 18.2,11.4 C18.1,11.8 17.9,12.2 17.9,12.7 C17.8,13.2 17.7,13.7 17.6,14.3 C17.6,14.9 17.5,15.4 17.5,16.1 C17.5,16.7 17.4,17.3 17.5,18 C17.5,18.6 17.5,19.3 17.6,19.9 C17.7,21.2 17.8,22.5 18,23.7 C18.2,24.9 18.3,26.1 18.5,27 C18.8,29.1 19.1,30.4 19.1,30.4 Z" fill="#519B3D"/>
              </g>
            </g>
            <g transform="translate(192.000000, 131.000000)" id="Shape">
              <g transform="translate(89.000000, 97.000000)">
                <path d="M8,17.6 C9.2,19.2 11.4,23.4 11.5,25.2 C11.5,27 9.7,27.1 10.2,29.6 C10.7,32 12.9,32.3 14.2,31.2 C15.5,30.1 15.4,29.7 15.4,28.8 C15.4,28.8 16.3,29.1 17.3,28.6 C18.6,28 18.8,26.7 18.3,25.6 C17.8,24.5 18.1,23.9 18.1,23.9 C18.1,23.9 19.8,24.4 20.8,23.4 C22.2,22.1 21.8,20.7 20.2,19.2 C18.7,17.7 18.5,15.7 18.6,12.5 C18.7,10.2 14.7,8.2 11.5,3.4 C8,-1.8 5,0.5 2.6,3.6 C-1.8,9.1 3.5,12 8,17.6 Z" fill="#69B229"/>
                <path d="M15.4,28.8 C15.4,28.8 15.2,28.8 14.9,28.7 C14.8,28.7 14.6,28.6 14.4,28.5 C14.2,28.4 14,28.3 13.8,28.1 C13.4,27.7 13.1,27.1 13,26.4 C13,26 13,25.7 13.1,25.3 C13.2,24.9 13.3,24.6 13.3,24.3 C13.4,23.7 13.3,23 13.3,22.4 C13.2,21.8 13.1,21.2 12.9,20.7 C12.7,20.2 12.6,19.8 12.4,19.6 C12.3,19.3 12.2,19.2 12.2,19.2 C12.2,19.2 12.3,19.3 12.5,19.5 C12.7,19.7 13,20.1 13.2,20.6 C13.4,21.1 13.7,21.7 13.8,22.3 C13.9,23 14,23.7 13.9,24.4 C13.8,24.8 13.7,25.1 13.7,25.4 C13.6,25.7 13.6,26 13.6,26.3 C13.6,26.6 13.7,26.9 13.7,27.1 C13.8,27.4 13.9,27.6 14.1,27.8 C14.4,28.2 14.8,28.4 15,28.6 C15.2,28.8 15.4,28.8 15.4,28.8 Z" fill="#519B3D"/>
                <path d="M18.1,24 C18.1,24 17.5,24 16.8,23.5 C16.4,23.3 16.1,22.9 15.8,22.4 C15.7,22.2 15.6,21.9 15.5,21.6 C15.4,21.3 15.4,21 15.3,20.8 C15.2,19.7 15.2,18.6 15.1,17.8 C15.1,17 14.9,16.5 14.9,16.5 C14.9,16.5 15,16.6 15.1,16.8 C15.2,17 15.4,17.3 15.5,17.7 C15.7,18.5 15.8,19.6 15.9,20.7 C16,21.7 16.4,22.7 17,23.2 C17.3,23.5 17.5,23.7 17.8,23.8 C17.9,23.9 18.1,24 18.1,24 Z" fill="#519B3D"/>
                <path d="M22.2,24.4 C22.2,24.4 17.9,24.3 18.8,22.3 C19.4,21.1 20,21.8 20.5,22.6 C21,23.5 21.1,23.9 22.2,24.4 Z" fill="#A1AF93"/>
                <path d="M19,29.8 C19,29.8 14.7,28.9 16,27.2 C16.8,26.1 17.3,26.9 17.7,27.8 C18,28.7 18,29.1 19,29.8 Z" fill="#A1AF93"/>
                <path d="M15,33.7 C15,33.7 11.3,31.5 13,30.2 C14.1,29.4 14.4,30.3 14.4,31.3 C14.4,32.3 14.3,32.7 15,33.7 Z" fill="#A1AF93"/>
              </g>
              <path d="M1.9,23.8 C-3.1,41.8 12.4,72.8 26.6,73.9 C48.2,75.6 61.5,78.9 68.5,79.6 C75.3,80.4 77.1,82.8 90.6,107.1 C94,113.2 105.6,120 101.3,105.9 C100.5,103.1 94,81.7 88.9,75.6 C79.4,64.3 74.1,67.4 68.7,65.2 C61.9,62.5 53.4,55.4 56.1,39 C61.2,8 14.2,-20.7 1.9,23.8 Z" fill="#69B229"/>
            </g>
            <g transform="translate(128.000000, 0.000000)" id="Shape">
              <path d="M173.5,59.4 C164,55.6 133.8,56.1 148.5,97.9 C148.5,97.9 108.1,80.7 112.4,124.2 C112.4,124.2 53.3,91 22.8,129 C22.8,129 46.2,66.2 18.9,34 C18.9,34 35.4,-5.3 98.7,6.1 C128.4,11.5 173.5,59.4 173.5,59.4 Z" fill="#A1C380"/>
              <path d="M0.8,133.8 C0.8,133.8 31.5,100.8 27.5,80.4 C23.5,60 2.7,36.8 5,24.9 C7.3,13 15.1,3.7 25.2,4.9 C25.2,4.9 12.9,7.3 14.7,17.9 C14.7,17.9 55,-2.9 94.5,0.9 C125.6,3.9 179.7,65.2 179.7,65.2 C179.7,65.2 115.5,11 92.3,9.5 C69,8 30.7,15.9 27,26.1 C27,26.1 75.3,12.3 90.1,23.3 C104.9,34.3 129.1,56.1 151.7,103.3 C151.7,103.3 104.3,38.8 86.2,32.7 C68.1,26.6 28.7,35.5 28.7,35.5 C28.7,35.5 78.7,42.3 92.6,69.9 C106.5,97.5 114.7,130.2 114.7,130.2 C114.7,130.2 87.3,67.2 67,57.8 C47.5,48.8 29.8,45.5 29.8,45.5 C29.8,45.5 42.5,71.5 39,91.8 C35.1,114.4 24,121.3 20.4,136.6 C18,146.4 -0.5,142.2 0.8,133.8 Z" fill="#69B229"/>
              <path d="M3.5,130.9 C3.5,130.9 7.2,126.6 12.1,119.7 C14.6,116.3 17.3,112.2 19.9,107.6 C22.5,103 25,97.9 26.5,92.5 C27.2,89.8 27.6,87 27.5,84.3 C27.3,81.6 26.6,78.9 25.9,76.4 C24.4,71.3 22.5,66.8 20.8,62.9 C17.2,55.2 14.3,50.4 14.3,50.4 C14.3,50.4 15.1,51.6 16.3,53.7 C17.5,55.8 19.3,58.9 21.1,62.7 C22.9,66.5 24.9,71.1 26.4,76.2 C27.1,78.8 27.8,81.4 28,84.2 C28.2,87 27.8,89.9 27,92.6 C25.5,98.1 22.9,103.2 20.3,107.8 C17.6,112.4 14.8,116.5 12.3,119.9 C9.8,123.3 7.5,126 5.9,127.9 C4.5,129.8 3.5,130.9 3.5,130.9 Z" fill="#519B3D"/>
              <path d="M25.2,34.9 C25.2,35 26,35.1 27.4,35.2 C28.8,35.4 30.8,35.6 33.1,36.1 C35.5,36.5 38.2,37.1 41.1,37.8 C44,38.5 47.1,39.4 50.1,40.3 C53.1,41.3 56.1,42.4 58.9,43.5 C61.7,44.6 64.2,45.8 66.4,46.8 C68.6,47.8 70.3,48.8 71.5,49.5 C72.7,50.2 73.4,50.6 73.4,50.6 C73.4,50.6 72.7,50.2 71.4,49.6 C70.2,49 68.4,48.1 66.2,47.2 C64,46.2 61.5,45.2 58.7,44.1 C55.9,43 52.9,42 49.9,41 C46.9,40 43.8,39.2 40.9,38.4 C38,37.7 35.3,37 33,36.6 C30.7,36.1 28.7,35.7 27.3,35.5 C26,35.1 25.2,35 25.2,34.9 Z" fill="#519B3D"/>
              <path d="M24,27 C24,27 24.8,26.7 26.2,26.2 C27.6,25.7 29.6,25.1 32.1,24.4 C33.3,24.1 34.7,23.7 36.1,23.4 C37.5,23.1 39,22.7 40.6,22.4 C43.7,21.8 47,21.1 50.4,20.6 C52.1,20.3 53.8,20.2 55.4,20 C57.1,19.8 58.7,19.7 60.3,19.5 C61.9,19.3 63.4,19.3 64.9,19.2 C66.4,19.1 67.7,19.1 69,19.1 C70.3,19.1 71.4,19 72.5,19.1 C73.5,19.1 74.4,19.2 75.2,19.2 C76.7,19.2 77.5,19.3 77.5,19.3 C77.5,19.3 76.7,19.3 75.2,19.3 C74.5,19.3 73.6,19.3 72.5,19.3 C71.5,19.3 70.3,19.4 69,19.5 C67.7,19.5 66.4,19.6 64.9,19.7 C63.5,19.8 61.9,19.9 60.3,20.1 C58.7,20.3 57.1,20.4 55.4,20.6 C53.8,20.8 52.1,21 50.4,21.3 C47.1,21.8 43.7,22.4 40.6,23 C37.5,23.6 34.6,24.2 32.1,24.9 C29.6,25.5 27.6,26 26.2,26.4 C24.8,26.7 24,27 24,27 Z" fill="#519B3D"/>
              <path d="M14.7,17.9 C14.7,17.9 15.8,17.3 17.7,16.4 C18.6,15.9 19.8,15.4 21.1,14.8 C22.4,14.2 24,13.5 25.6,12.9 C27.3,12.2 29.1,11.5 31,10.8 C32.9,10.1 35,9.4 37.1,8.6 C39.3,7.9 41.5,7.2 43.8,6.5 C46.1,5.9 48.4,5.2 50.7,4.6 C51.9,4.3 53,4 54.2,3.8 C55.4,3.6 56.5,3.3 57.7,3.1 C58.9,2.9 60,2.6 61.2,2.4 C62.3,2.2 63.5,2 64.6,1.9 C65.7,1.7 66.8,1.5 67.9,1.4 C69,1.3 70,1.2 71.1,1.1 C72.1,1 73.1,0.9 74.1,0.8 C75.1,0.7 76,0.7 76.9,0.6 C78.7,0.5 80.4,0.4 81.8,0.3 C83.3,0.3 84.5,0.3 85.6,0.3 C87.7,0.3 88.9,0.3 88.9,0.3 C88.9,0.3 87.7,0.3 85.6,0.4 C84.5,0.4 83.3,0.5 81.8,0.5 C80.3,0.6 78.7,0.7 76.9,0.9 C76,1 75.1,1 74.1,1.1 C73.1,1.2 72.1,1.3 71.1,1.5 C70.1,1.6 69,1.8 67.9,1.9 C66.8,2.1 65.7,2.3 64.6,2.4 C63.5,2.6 62.4,2.8 61.2,3 C60.1,3.2 58.9,3.5 57.8,3.7 C56.6,3.9 55.5,4.2 54.3,4.4 C53.1,4.7 52,5 50.8,5.3 C48.5,5.8 46.1,6.5 43.9,7.1 C41.6,7.7 39.4,8.5 37.3,9.1 C35.2,9.8 33.1,10.5 31.1,11.2 C29.2,11.9 27.3,12.6 25.6,13.2 C22.2,14.5 19.5,15.7 17.5,16.5 C15.8,17.3 14.7,17.9 14.7,17.9 Z" fill="#519B3D"/>
              <path d="M21.6,134.1 C21.6,134.1 21.6,133.9 21.6,133.5 C21.6,133.1 21.7,132.5 21.9,131.7 C22.3,130.2 23,128 24.2,125.6 C24.8,124.4 25.5,123.1 26.3,121.7 C27.1,120.4 27.9,119 28.9,117.5 C30.7,114.7 32.4,111.5 33.8,108.2 C35.2,104.9 36.4,101.5 37.3,98.2 C38.2,95 38.9,91.9 39.3,89.2 C39.7,86.5 39.9,84.3 39.8,82.7 C39.8,81.9 39.8,81.3 39.7,80.9 C39.7,80.5 39.6,80.3 39.6,80.3 C39.6,80.3 39.6,80.5 39.7,80.9 C39.8,81.3 39.8,81.9 39.9,82.7 C40,84.3 40,86.6 39.6,89.2 C39.3,91.9 38.7,95 37.8,98.3 C36.9,101.6 35.8,105 34.3,108.4 C32.9,111.7 31.2,115 29.3,117.8 C28.4,119.2 27.5,120.6 26.7,121.9 C25.9,123.2 25.2,124.5 24.5,125.7 C23.9,126.9 23.3,128 22.9,129 C22.5,130 22.2,130.9 22,131.7 C21.8,132.5 21.7,133.1 21.7,133.5 C21.6,133.8 21.6,134.1 21.6,134.1 Z" fill="#519B3D"/>
              <path d="M27.3,42 C27.3,42 27.5,42.1 27.7,42.4 C28,42.7 28.3,43.1 28.7,43.6 C29.5,44.7 30.4,46.2 31.1,47.8 C31.8,49.4 32.4,51 32.8,52.3 C33,52.9 33.1,53.5 33.2,53.8 C33.3,54.2 33.3,54.4 33.3,54.4 C33.3,54.4 33.2,54.2 33,53.9 C32.8,53.6 32.6,53.1 32.4,52.5 C31.9,51.3 31.2,49.7 30.5,48.1 C29.8,46.5 29,45 28.4,43.8 C27.8,42.8 27.3,42 27.3,42 Z" fill="#519B3D"/>
              <path d="M26.9,26.1 C26.9,26.1 26.9,25.7 27.2,25.2 C27.3,24.9 27.5,24.6 27.8,24.3 C28,23.9 28.4,23.6 28.7,23.2 C29.1,22.8 29.5,22.4 30,22.1 C30.5,21.7 31,21.4 31.5,21 C32,20.6 32.6,20.3 33.2,19.9 C33.8,19.6 34.4,19.2 35,18.9 C35.6,18.6 36.3,18.3 36.9,18 C37.5,17.7 38.2,17.5 38.8,17.3 C40,16.8 41.2,16.5 42.1,16.1 C43.1,15.8 43.9,15.6 44.5,15.4 C45.1,15.3 45.4,15.2 45.4,15.2 C45.4,15.2 44.1,15.7 42.2,16.4 C41.2,16.8 40.1,17.2 38.9,17.7 C38.3,18 37.7,18.2 37.1,18.5 C36.5,18.8 35.9,19.1 35.3,19.4 C34.7,19.7 34.1,20 33.5,20.3 C32.9,20.6 32.3,21 31.8,21.3 C31.3,21.7 30.7,22 30.3,22.3 C29.8,22.6 29.4,23 29,23.3 C28.6,23.6 28.3,24 28,24.3 C27.7,24.6 27.5,24.9 27.3,25.1 C27,25.7 26.9,26.1 26.9,26.1 Z" fill="#519B3D"/>
              <path d="M15.2,12.3 C15.2,12.3 15,13.1 14.9,14.3 C14.8,14.9 14.8,15.6 14.8,16.3 C14.8,17 15,17.8 15.3,18.5 C15.4,18.7 15.5,18.8 15.6,18.9 C15.7,19.1 15.9,19.2 16,19.4 C16.3,19.8 16.4,20.2 16.5,20.6 C16.7,21.4 16.5,22.2 16.2,22.8 C15.9,23.4 15.5,23.7 15.1,23.9 C14.8,24.1 14.5,24 14.5,24 C14.5,24 14.7,24 15,23.8 C15.3,23.6 15.6,23.2 15.8,22.7 C16,22.2 16.1,21.5 15.9,20.8 C15.8,20.5 15.6,20.1 15.4,19.9 C15.3,19.8 15.1,19.6 15,19.4 C14.8,19.2 14.7,19 14.6,18.8 C14.2,18 14.1,17.1 14.1,16.3 C14.1,15.5 14.2,14.8 14.4,14.2 C14.8,13 15.2,12.3 15.2,12.3 Z" fill="#519B3D"/>
              <path d="M47.7,112.8 C47.7,112.8 47.9,112.7 48.4,112.6 C48.9,112.4 49.6,112.3 50.5,112 C51.4,111.8 52.5,111.6 53.7,111.4 C55,111.2 56.4,111 58,110.9 C58.8,110.9 59.6,110.8 60.5,110.7 C61.3,110.6 62.2,110.7 63.1,110.7 C64.9,110.6 66.8,110.8 68.8,110.9 C69.8,111 70.8,111.1 71.8,111.2 C72.8,111.3 73.8,111.4 74.9,111.6 C75.9,111.8 76.9,111.9 78,112.1 L79.6,112.4 L81.1,112.7 C83.1,113.2 85.2,113.6 87.2,114.2 C88.2,114.5 89.2,114.8 90.2,115.1 C90.7,115.2 91.2,115.4 91.6,115.5 C92.1,115.7 92.5,115.8 93,116 C94.9,116.6 96.7,117.3 98.3,117.9 C100,118.6 101.5,119.3 103,119.9 C103.7,120.2 104.4,120.5 105.1,120.8 C105.7,121.1 106.4,121.4 106.9,121.7 C108,122.3 109,122.8 109.9,123.2 C111.5,124 112.5,124.5 112.5,124.5 C112.5,124.5 111.5,124.1 109.9,123.3 C109.1,122.9 108,122.5 106.9,122 C106.3,121.7 105.7,121.5 105,121.2 C104.3,120.9 103.6,120.7 102.9,120.4 C101.4,119.8 99.9,119.2 98.2,118.5 C96.5,117.9 94.7,117.3 92.8,116.7 C92.3,116.5 91.9,116.4 91.4,116.2 C90.9,116.1 90.4,115.9 90,115.8 C89,115.5 88,115.3 87.1,115 C85.1,114.4 83.1,114 81,113.5 L79.5,113.2 L78,112.9 C77,112.7 76,112.5 74.9,112.4 C73.9,112.2 72.9,112.1 71.9,112 C70.9,111.9 69.9,111.7 68.9,111.7 C66.9,111.6 65.1,111.4 63.3,111.4 C62.4,111.4 61.5,111.4 60.7,111.4 C59.9,111.4 59,111.5 58.3,111.5 C57.5,111.5 56.8,111.6 56.1,111.7 C55.4,111.8 54.7,111.8 54.1,111.9 C52.8,112 51.7,112.2 50.8,112.4 C49.9,112.6 49.2,112.7 48.7,112.9 C48,112.7 47.7,112.8 47.7,112.8 Z" fill="#7D9950"/>
              <path d="M64.8,56.9 C64.8,56.9 65.1,56.9 65.7,57.1 C66.3,57.3 67.1,57.6 68.2,58.2 C69.2,58.8 70.4,59.5 71.7,60.5 C73,61.5 74.4,62.7 75.8,64.1 C77.2,65.5 78.7,67.1 80.1,68.9 C81.6,70.7 83,72.6 84.5,74.6 C85.9,76.6 87.4,78.8 88.8,81 C89.5,82.1 90.2,83.2 90.9,84.3 C91.6,85.4 92.3,86.6 93,87.7 C94.4,90 95.7,92.3 96.9,94.6 C98.2,96.9 99.4,99.1 100.6,101.3 C102.9,105.7 105,109.8 106.8,113.4 C108.6,117 110,120 111,122.1 C112,124.2 112.6,125.4 112.6,125.4 C112.6,125.4 110.2,120.7 106.5,113.6 C104.7,110.1 102.5,106 100.1,101.6 C98.9,99.4 97.7,97.2 96.4,94.9 C95.1,92.6 93.8,90.3 92.4,88.1 C91.7,87 91.1,85.8 90.4,84.7 C89.7,83.6 89,82.5 88.3,81.4 C86.9,79.2 85.5,77.1 84.1,75 C82.7,73 81.2,71 79.8,69.3 C78.4,67.5 76.9,65.9 75.6,64.5 C72.8,61.7 70.2,59.6 68.2,58.4 C67.2,57.8 66.4,57.5 65.8,57.2 C65.2,56.9 64.8,56.9 64.8,56.9 Z" fill="#519B3D"/>
              <path d="M145.7,70.9 C145.7,70.9 145.8,70.4 146.1,69.6 C146.2,69.2 146.4,68.7 146.7,68.1 C147,67.5 147.2,66.9 147.7,66.3 C148.1,65.6 148.6,65 149.1,64.3 C149.7,63.7 150.3,62.9 151,62.3 C151.7,61.6 152.5,61.1 153.4,60.5 C153.8,60.2 154.3,60 154.7,59.8 C155.2,59.6 155.6,59.3 156.1,59.1 L157.5,58.6 C158,58.4 158.5,58.3 159,58.2 C159.5,58.1 160,58 160.5,57.9 L161.2,57.8 C161.4,57.8 161.7,57.8 161.9,57.8 C162.8,57.7 163.8,57.7 164.6,57.7 C165.5,57.8 166.3,57.8 167,57.9 C167.4,57.9 167.7,57.9 168.1,58 C168.4,58.1 168.8,58.1 169.1,58.2 C169.7,58.3 170.2,58.4 170.7,58.5 C171.6,58.7 172,58.8 172,58.8 C172,58.8 171.5,58.7 170.6,58.7 C170.2,58.7 169.6,58.6 169,58.5 C168.7,58.5 168.4,58.4 168,58.4 C167.7,58.4 167.3,58.4 166.9,58.4 C166.2,58.4 165.3,58.4 164.5,58.3 C163.6,58.3 162.8,58.5 161.8,58.5 C161.6,58.5 161.3,58.5 161.1,58.6 L160.4,58.7 C159.9,58.8 159.5,58.9 159,59 C158.5,59.1 158.1,59.2 157.6,59.4 L156.2,59.9 C155.7,60.1 155.3,60.3 154.9,60.5 C154.5,60.7 154,60.9 153.6,61.2 C152.8,61.7 152,62.2 151.3,62.9 C150.6,63.5 150,64.1 149.4,64.7 C148.9,65.4 148.3,66 148,66.6 C147.6,67.2 147.2,67.8 147,68.3 C146.7,68.8 146.5,69.3 146.3,69.7 C145.8,70.4 145.7,70.9 145.7,70.9 Z" fill="#7D9950"/>
              <path d="M113.8,106.4 C113.8,106.4 113.9,105.8 114.3,104.9 C114.5,104.4 114.8,103.9 115.1,103.3 C115.3,103 115.5,102.7 115.7,102.3 C115.9,102 116.2,101.7 116.4,101.3 C116.6,100.9 117,100.6 117.3,100.3 C117.6,100 117.9,99.6 118.3,99.3 C118.7,99 119.1,98.6 119.4,98.3 C119.8,98 120.3,97.7 120.7,97.4 C120.9,97.2 121.2,97.1 121.4,96.9 C121.6,96.8 121.9,96.7 122.1,96.5 C122.6,96.3 123.1,96 123.6,95.7 C124.1,95.5 124.7,95.3 125.2,95.1 L126,94.8 C126.3,94.7 126.6,94.7 126.8,94.6 C127.9,94.4 129.1,94.1 130.2,94.1 C131.3,94 132.4,93.9 133.5,94 C134.6,94.1 135.6,94.1 136.6,94.3 C137.6,94.5 138.5,94.6 139.3,94.8 C140.2,94.9 140.9,95.2 141.6,95.4 C142.3,95.6 142.8,95.8 143.3,95.9 C144.3,96.2 144.8,96.4 144.8,96.4 C144.8,96.4 144.2,96.3 143.3,96.1 C142.8,96 142.2,95.9 141.5,95.7 C140.8,95.5 140.1,95.3 139.2,95.3 C138.4,95.2 137.4,95 136.5,94.9 C136,94.8 135.5,94.8 135,94.8 C134.5,94.8 134,94.8 133.4,94.7 C132.3,94.6 131.3,94.7 130.1,94.8 C129,94.8 127.9,95.1 126.8,95.3 C126.5,95.4 126.2,95.4 126,95.5 L125.2,95.8 C124.7,96 124.1,96.1 123.6,96.3 C123.1,96.5 122.6,96.8 122.1,97 L121.4,97.4 C121.2,97.5 121,97.7 120.7,97.8 C120.3,98.1 119.8,98.4 119.4,98.7 C119,99 118.6,99.3 118.2,99.6 C117.8,99.9 117.5,100.3 117.2,100.6 C116.9,100.9 116.6,101.2 116.3,101.6 C116,101.9 115.8,102.2 115.5,102.5 C115.3,102.8 115.1,103.1 114.9,103.4 C114.5,104 114.2,104.5 114,104.9 C114,105.9 113.8,106.4 113.8,106.4 Z" fill="#7D9950"/>
              <path d="M76.9,30.8 C76.9,30.8 77.6,30.8 78.8,31 C80,31.2 81.7,31.4 83.8,31.9 C84.8,32.1 85.9,32.4 87.1,32.9 C88.3,33.3 89.4,34 90.5,34.6 C92.8,35.9 95,37.7 97.1,39.5 C99.2,41.4 101.2,43.3 103.1,45.2 C105,47.1 106.6,48.8 108.1,50.4 C111,53.5 112.8,55.6 112.8,55.6 C112.8,55.6 110.8,53.6 107.8,50.7 C106.3,49.2 104.6,47.5 102.7,45.7 C100.8,43.9 98.8,41.9 96.7,40.1 C94.6,38.3 92.4,36.5 90.2,35.2 C89.1,34.5 88,33.9 86.9,33.4 C85.8,32.9 84.7,32.6 83.7,32.4 C81.7,31.9 80,31.5 78.8,31.3 C77.6,30.9 76.9,30.8 76.9,30.8 Z" fill="#519B3D"/>
              <path d="M179.7,65.2 C179.7,65.2 176.4,62.6 171.6,58.8 C169.2,56.9 166.3,54.7 163.3,52.3 C160.2,49.9 157,47.4 153.7,44.9 C150.4,42.4 147.1,39.9 144,37.6 C140.9,35.3 138,33.1 135.4,31.4 C134.1,30.5 133,29.7 131.9,29 C130.8,28.3 130,27.7 129.2,27.2 C127.7,26.3 126.8,25.7 126.8,25.7 C126.8,25.7 127.7,26.2 129.3,27.1 C130.1,27.5 131,28.1 132.1,28.8 C133.2,29.4 134.4,30.2 135.7,31.1 C138.3,32.8 141.3,34.9 144.4,37.2 C147.5,39.5 150.8,42 154.1,44.5 C157.4,47 160.6,49.6 163.7,52 C166.7,54.4 169.5,56.7 171.9,58.7 C174.3,60.7 176.3,62.4 177.6,63.5 C178.9,64.5 179.7,65.2 179.7,65.2 Z" fill="#519B3D"/>
            </g>
            <g transform="translate(92.000000, 106.000000)" id="Shape">
              <g>
                <path d="M28.4,29.2 C43.3,24.9 48,28.1 64.5,14.1 C81.1,0.1 119,-3.4 143.6,6.3 C168.2,16 189.5,36.1 187.5,60.9 C185.9,81.1 164.1,83 137,76.8 C109.9,70.6 95.3,106.6 67.9,105.9 C37.5,105.1 27,99.7 2.9,68.3 C-6.4,56 14,33.3 28.4,29.2 Z" fill="#7CBF2E"/>
                <path d="M72.6,88.7 C48.5,96.8 19.2,70.2 5.3,47.6 C0.6,54.8 -1.4,62.5 2.9,68.1 C27,99.6 37.5,105 67.9,105.7 C95.3,106.4 110,70 137,76.6 C160.4,82.3 168.4,79.7 177.1,77 C141.5,49.2 100,79.6 72.6,88.7 Z" fill="#B4D189"/>
                <path d="M15.4,83.4 C15.4,83.4 15.7,83.7 16.2,84.3 C16.7,84.9 17.5,85.7 18.5,86.7 C20.5,88.7 23.5,91.6 27.4,94.5 C29.4,96 31.6,97.4 34.1,98.7 C36.6,100 39.3,101.1 42.2,102 C45.1,102.9 48.2,103.7 51.4,104.2 C54.6,104.7 57.8,105.1 61.1,105.3 C64.4,105.5 67.6,105.6 70.8,105.3 C74,105 77.1,104.4 80,103.3 C82.9,102.3 85.5,101 87.9,99.5 C90.3,98.1 92.5,96.5 94.5,95.1 C98.5,92.2 101.7,89.7 104,88 C106.3,86.3 107.6,85.3 107.6,85.3 C107.6,85.3 106.3,86.3 104.1,88.1 C101.8,89.9 98.7,92.5 94.7,95.4 C92.7,96.9 90.6,98.4 88.2,99.9 C85.8,101.4 83.1,102.8 80.2,103.8 C77.3,104.8 74.1,105.5 70.9,105.8 C67.7,106.1 64.4,106.1 61.1,105.9 C57.8,105.7 54.5,105.4 51.4,104.8 C48.2,104.2 45.1,103.5 42.2,102.5 C39.3,101.6 36.5,100.4 34,99 C31.5,97.6 29.3,96.1 27.3,94.6 C23.4,91.6 20.5,88.7 18.5,86.6 C17.5,85.6 16.8,84.7 16.3,84.1 C15.7,83.7 15.4,83.4 15.4,83.4 Z" fill="#7D9950"/>
              </g>
              <path d="M78,6.5 C78,6.5 79.7,5.7 82.7,4.7 C85.7,3.7 90.1,2.4 95.5,1.5 C100.9,0.6 107.2,6.18949336e-15 114.1,0.2 C120.9,0.4 128.2,1.4 135.2,3.2 C138.7,4.1 142.2,5.2 145.5,6.6 C148.8,7.9 152,9.4 155,11.1 C161,14.4 166.1,18.3 170.1,22 C174.1,25.7 177,29.2 178.9,31.8 C180.8,34.4 181.6,36 181.6,36 C181.6,36 180.7,34.4 178.8,31.9 C176.9,29.4 173.9,26 169.8,22.3 C165.8,18.7 160.6,14.9 154.7,11.7 C151.7,10.1 148.5,8.6 145.2,7.3 C141.9,6 138.4,4.9 134.9,4 C127.9,2.2 120.7,1.2 113.9,1 C107.1,0.8 100.8,1.3 95.4,2.1 C90,2.9 85.6,4.1 82.6,5 C79.6,5.8 78,6.5 78,6.5 Z" fill="#519B3D"/>
            </g>
            <g transform="translate(237.000000, 127.000000)" id="Shape">
              <g>
                <path d="M18.7,0.7 C35.8,1.3 88.2,58.8 119.5,60.6 C150.6,62.4 171.3,45.4 166.8,30.2 C166.8,30.2 179.3,56.1 127.2,70.2 C75.1,84.3 62.5,57.6 40.3,55.3 C11.2,52.2 9,46.2 3,32.8 C-3.3,18.4 -0.2,7.32747196e-15 18.7,0.7 Z" fill="#7CBF2E"/>
                <path d="M16.4,47.9 L9.2,58.3 C13.6,59.5 28.9,57.5 36.1,58.3 C58.2,60.6 75.1,84.4 127.2,70.3 C133.5,68.6 138.9,66.7 143.5,64.7 C124.8,68.9 98.4,72 79.6,62.3 C47.6,45.7 16.4,47.9 16.4,47.9 Z" fill="#B4D189"/>
              </g>
              <path d="M158.2,50.6 C158.2,50.6 157.4,51.3 155.8,52.3 C155,52.8 154,53.4 152.9,54 C151.8,54.6 150.4,55.3 149,56 C148.3,56.3 147.5,56.6 146.7,57 C145.9,57.3 145.1,57.6 144.2,57.9 C142.5,58.5 140.6,59.1 138.6,59.5 C136.6,60 134.6,60.4 132.5,60.6 C130.4,60.9 128.3,61.1 126.1,61.1 C123.9,61.1 121.8,61.1 119.7,60.8 C117.6,60.6 115.5,60.2 113.6,59.7 C111.6,59.3 109.8,58.6 108,58 C107.1,57.7 106.3,57.3 105.5,57 C104.7,56.7 103.9,56.3 103.2,56 C102.5,55.7 101.8,55.3 101.1,55 C100.5,54.7 99.8,54.3 99.3,54 C98.1,53.4 97.2,52.8 96.3,52.4 C94.7,51.4 93.8,50.9 93.8,50.9 C93.8,50.9 94.7,51.4 96.4,52.3 C97.2,52.7 98.2,53.3 99.4,53.8 C100.6,54.4 101.9,55 103.4,55.6 C104.1,55.9 104.9,56.2 105.7,56.6 C106.5,56.9 107.3,57.2 108.2,57.5 C109.9,58.1 111.8,58.7 113.7,59.1 C115.6,59.6 117.7,59.9 119.8,60.1 C121.9,60.3 124,60.4 126.1,60.3 C128.2,60.3 130.4,60.1 132.4,59.8 C134.5,59.5 136.5,59.2 138.5,58.7 C140.4,58.3 142.3,57.7 144.1,57.2 C145,56.9 145.8,56.6 146.6,56.3 C147.4,56 148.2,55.7 148.9,55.4 C150.4,54.8 151.7,54.2 152.9,53.6 C154.1,53 155.1,52.5 155.9,52 C157.3,51.2 158.2,50.6 158.2,50.6 Z" fill="#519B3D"/>
              <path d="M66.2,69 C66.2,69 67.3,69.4 69.2,70.1 C70.2,70.4 71.3,70.8 72.7,71.1 C74,71.5 75.6,71.8 77.2,72.2 C78,72.4 78.9,72.5 79.8,72.7 C80.7,72.8 81.6,73.1 82.6,73.2 C84.5,73.5 86.6,73.7 88.7,73.9 C89.8,74 90.8,74.1 91.9,74.1 C93,74.1 94.1,74.2 95.2,74.2 C96.3,74.3 97.5,74.2 98.6,74.2 C99.7,74.2 100.9,74.1 102,74.1 C104.3,74 106.5,73.8 108.8,73.6 C111,73.3 113.2,73 115.3,72.7 C117.4,72.3 119.4,71.9 121.4,71.5 C122.4,71.3 123.3,71.1 124.2,70.8 C125.1,70.6 126,70.3 126.8,70.1 C128.5,69.6 130,69.3 131.3,68.8 C132.6,68.4 133.8,68 134.7,67.7 C136.6,67.1 137.7,66.7 137.7,66.7 C137.7,66.7 136.6,67.1 134.7,67.8 C133.8,68.1 132.6,68.6 131.3,69 C130,69.5 128.5,69.9 126.8,70.4 C126,70.6 125.1,70.9 124.2,71.1 C123.3,71.4 122.4,71.6 121.4,71.8 C119.5,72.2 117.4,72.7 115.3,73.1 C113.2,73.4 111,73.7 108.7,74 C106.4,74.2 104.2,74.4 101.9,74.5 C100.8,74.5 99.6,74.5 98.5,74.6 C97.4,74.6 96.2,74.6 95.1,74.6 C94,74.6 92.9,74.5 91.7,74.5 C90.6,74.5 89.5,74.3 88.4,74.2 C86.3,74.1 84.2,73.7 82.3,73.4 C81.3,73.3 80.4,73 79.5,72.9 C78.6,72.7 77.7,72.6 76.9,72.3 C76.1,72.1 75.3,71.9 74.5,71.7 C73.7,71.5 73,71.3 72.4,71.1 C71.1,70.7 69.9,70.3 69,70 C67.3,69.5 66.2,69 66.2,69 Z" fill="#7D9950"/>
            </g>
            <g transform="translate(30.000000, 77.000000)" id="Shape">
              <g>
                <g>
                  <path d="M7.9,0.7 C17.9,-1.3 38.1,15.9 43.9,37.5 C51.6,66.5 68.2,63.4 86.1,58.7 C113.2,51.6 108.9,61.5 113.2,76.2 C117.5,90.9 109.4,121.9 74.9,113.2 C47.8,106.4 33.1,75.3 27.8,62.5 C22.5,49.7 19.5,29.7 10.8,27.3 C2.1,24.9 -6.4,3.6 7.9,0.7 Z" fill="#7CBF2E"/>
                  <path d="M108.9,102.9 C85.7,102.7 59.8,93 50.2,83.7 C34.4,68.2 27.8,36.8 21.2,35.3 C19.7,35 19,35 18.7,36.3 C22.1,43.8 24.5,54.4 27.8,62.4 C33.1,75.3 41.1,97.6 65.8,110.7 C93.3,125.4 91.7,125.9 108.9,102.9 Z" fill="#B4D189"/>
                </g>
                <path d="M73.5,61.5 C73.5,61.5 73.2,61.5 72.6,61.6 C72,61.7 71.2,61.8 70.2,61.9 C69.7,62 69.1,62 68.4,62 C67.8,62 67.1,62 66.3,61.9 C65.6,61.9 64.8,61.7 64,61.6 C63.2,61.4 62.3,61.2 61.5,60.9 C59.8,60.3 57.9,59.5 56.2,58.3 C54.5,57.1 52.8,55.7 51.3,53.9 C49.8,52.2 48.5,50.2 47.4,48 C46.3,45.9 45.4,43.6 44.8,41.2 C43.5,36.6 41.9,32 40,27.9 C38.1,23.8 36,20.1 33.9,17.2 C32.8,15.8 31.7,14.5 30.7,13.4 C29.7,12.3 28.8,11.4 28.1,10.6 C26.6,9.1 25.7,8.3 25.7,8.3 C25.7,8.3 26.6,9.1 28.2,10.5 C29,11.2 29.9,12.1 30.9,13.2 C31.9,14.3 33.1,15.5 34.2,16.9 C36.4,19.8 38.6,23.4 40.5,27.6 C42.4,31.7 44.1,36.3 45.4,40.9 C46,43.2 46.9,45.5 47.9,47.6 C49,49.7 50.2,51.7 51.7,53.4 C53.1,55.1 54.8,56.6 56.4,57.8 C58.1,59 59.9,59.8 61.6,60.4 C63.3,61 64.9,61.3 66.4,61.4 C67.1,61.5 67.8,61.5 68.4,61.5 C69,61.5 69.6,61.5 70.1,61.5 C71.2,61.5 72,61.4 72.5,61.3 C73.2,61.5 73.5,61.5 73.5,61.5 Z" fill="#519B3D"/>
              </g>
              <path d="M77.2,116.8 C77.2,116.8 76,116.2 73.9,115.3 C71.8,114.3 68.9,112.9 65.4,111 C62,109 58.1,106.5 54.3,103.4 C50.5,100.3 46.8,96.5 43.5,92.4 C40.2,88.3 37.4,83.8 35,79.5 C32.7,75.2 30.8,70.9 29.3,67.3 C27.8,63.7 26.7,60.6 26,58.4 C25.3,56.2 24.9,55 24.9,55 C24.9,55 25.4,56.2 26.1,58.4 C26.9,60.5 28.1,63.6 29.7,67.2 C31.3,70.8 33.2,75 35.5,79.3 C37.9,83.6 40.7,88 44,92.1 C47.2,96.2 50.9,99.9 54.6,103.1 C58.3,106.3 62.1,108.8 65.5,110.8 C68.9,112.8 71.8,114.3 73.8,115.3 C76,116.2 77.2,116.8 77.2,116.8 Z" fill="#7D9950"/>
            </g>
            <g transform="translate(0.000000, 54.000000)">
              <g>
                <path d="M27.5,20.4 C25.1,18 29.4,11.7 33.5,11.8 C37.6,11.9 43.7,8.3 44.8,10.3 C46,12.4 35.6,28.4 27.5,20.4 Z" id="Shape" fill="#69B229"/>
                <g transform="translate(21.000000, 0.000000)" id="Shape">
                  <path d="M1.9,15.4 C1.9,15.4 9.4,6.2 16.2,4.6 C23.1,3 26.9,5.5 33.5,1.42108547e-14 C33.5,1.42108547e-14 30.5,6.7 24.7,8.2 C15,10.9 9.4,20.2 9.4,20.2 C9.4,20.2 6.6,15.2 1.9,15.4 Z" fill="#F1F2DC"/>
                  <path d="M0.8,16.1 C0.8,16.1 2.1,13 4.3,12.8 C4.3,12.8 10.8,13.6 11.9,17.6 C11.9,17.6 11.5,20.7 9.8,21.4" fill="#7CBF2E"/>
                  <path d="M2.2,14.2 C2.2,14.2 2.2,14 2.5,13.6 C2.6,13.4 2.8,13.3 3,13.1 C3.2,12.9 3.5,12.8 3.9,12.7 C4.2,12.6 4.6,12.6 5,12.6 C5.4,12.6 5.8,12.7 6.2,12.8 C6.6,12.9 7,13 7.4,13.2 C7.8,13.4 8.2,13.6 8.6,13.8 C9,14 9.4,14.3 9.8,14.5 C10.2,14.8 10.5,15 10.8,15.3 C11.4,15.9 11.9,16.6 12.1,17.2 C12.3,17.9 12.2,18.5 12,18.9 C11.8,19.3 11.7,19.4 11.7,19.4 C11.7,19.4 11.8,19.2 11.9,18.8 C12,18.4 12,17.9 11.8,17.3 C11.6,16.7 11.1,16.2 10.5,15.7 C10.2,15.4 9.9,15.2 9.5,15 C9.1,14.8 8.8,14.5 8.4,14.4 C8,14.2 7.6,14 7.2,13.8 C6.8,13.6 6.4,13.5 6,13.4 C5.6,13.3 5.2,13.2 4.9,13.2 C4.5,13.2 4.2,13.2 3.9,13.2 C3.6,13.3 3.3,13.3 3.1,13.5 C2.9,13.6 2.7,13.8 2.6,13.9 C2.3,14 2.2,14.2 2.2,14.2 Z" fill="#519B3D"/>
                  <path d="M14.3,14.4 C14.3,14.4 14.8,13.7 15.8,12.9 C16.7,12 18.1,11 19.6,10.1 C20.3,9.7 21.1,9.3 21.9,9 C22.3,8.8 22.6,8.7 23,8.6 C23.3,8.5 23.7,8.4 24,8.3 C24.6,8.1 25.1,8 25.5,8 C25.9,7.9 26.1,7.9 26.1,7.9 C26.1,7.9 25.9,8 25.6,8.1 C25.2,8.2 24.8,8.4 24.2,8.7 C23.6,8.9 22.9,9.2 22.2,9.6 C21.5,9.9 20.8,10.3 20,10.8 C18.5,11.6 17.2,12.6 16.1,13.3 C14.9,13.9 14.3,14.4 14.3,14.4 Z" fill="#C9BD9B"/>
                  <path d="M20.5,3.9 C20.5,3.9 21.4,3.9 22.7,3.7 C24,3.6 25.7,3.3 27.4,2.9 C27.8,2.8 28.2,2.7 28.6,2.5 C29,2.4 29.4,2.2 29.8,2.1 C30.2,1.9 30.5,1.8 30.9,1.6 C31.2,1.4 31.6,1.3 31.8,1.1 C32.1,0.9 32.3,0.8 32.6,0.7 C32.8,0.6 33,0.4 33.2,0.3 C33.5,0.1 33.7,-1.42108547e-14 33.7,-1.42108547e-14 C33.7,-1.42108547e-14 33.5,0.2 33.3,0.4 C33,0.7 32.6,1.1 32.1,1.5 C31.8,1.7 31.5,1.9 31.2,2.1 C30.9,2.3 30.5,2.5 30.1,2.7 C29.7,2.9 29.3,3 28.9,3.2 C28.5,3.4 28.1,3.5 27.6,3.6 C26.7,3.8 25.9,4 25,4.1 C24.2,4.2 23.4,4.2 22.7,4.2 C21.4,4.1 20.5,3.9 20.5,3.9 Z" fill="#C9BD9B"/>
                </g>
                <path d="M35,13.9 C26.9,13 22.1,13 17,20.2 C11.9,27.3 11.3,34.4 4.9,38.2 C-1.5,42 -0.1,49.3 0.8,51.8 L3.5,51.8 C3.5,51.8 3.5,53.2 5.2,53.8 C6.9,54.4 15.3,51.5 19.7,51.2 C24.1,50.9 41.8,53.7 47.6,41 C53.4,28.3 46.7,15.2 35,13.9 Z" id="Shape" fill="#7CBF2E"/>
                <path d="M6.7,46.9 C6.1,46.9 6.4,45 7.7,44.9 C9,44.7 8,46.8 6.7,46.9 Z" id="Shape" fill="#46893D"/>
                <path d="M6.7,46.9 C6.7,46.9 6.5,46.8 6.4,46.6 C6.3,46.5 6.3,46.3 6.2,46.1 C6.2,45.9 6.2,45.7 6.3,45.5 C6.5,45.1 6.9,45 7.2,44.9 C7.3,44.9 7.5,44.9 7.5,44.9 C7.6,44.9 7.6,44.9 7.6,44.9 C7.6,44.9 7.6,44.9 7.5,45 C7.4,45.1 7.4,45.1 7.3,45.2 C7.1,45.4 6.9,45.6 6.8,45.8 C6.7,46 6.6,46.2 6.6,46.5 C6.7,46.7 6.7,46.9 6.7,46.9 Z" id="Shape" fill="#34662D"/>
                <ellipse id="Oval" fill="#283F1F" transform="translate(28.164120, 37.065860) rotate(-70.282200) translate(-28.164120, -37.065860) " cx="28.16412" cy="37.06586" rx="2.00007272" ry="1.00003636"/>
                <path d="M20.6,48.1 C20.6,48.1 21,47.2 21.7,46.2 C22,45.8 22.7,46 22.7,46.5 C22.8,47.2 22.8,48 22.6,48.5 L20.6,48.1 Z" id="Shape" fill="#F1F2DC"/>
                <path d="M3.6,51.8 C3.6,51.8 5,51.6 7.1,51.2 C8.2,51 9.4,50.7 10.6,50.3 C11.2,50.1 11.9,49.9 12.5,49.5 C12.8,49.4 13.1,49.2 13.4,49 L14.2,48.3 C14.4,48.1 14.9,47.9 15.2,47.7 C15.6,47.6 15.9,47.5 16.3,47.5 C17,47.4 17.8,47.5 18.4,47.6 C19.8,47.8 21,48.2 22,48.4 C22.5,48.5 23,48.6 23.4,48.7 C23.8,48.8 24.2,48.8 24.5,48.8 C24.8,48.8 25.1,48.8 25.2,48.7 C25.4,48.7 25.5,48.6 25.5,48.6 C25.5,48.6 25.4,48.6 25.3,48.7 C25.1,48.8 24.9,48.8 24.6,48.9 C24.3,49 23.9,49 23.5,48.9 C23.1,48.9 22.6,48.8 22,48.7 C20.9,48.5 19.7,48.3 18.4,48.1 C17.7,48 17.1,48 16.4,48.1 C16.1,48.1 15.7,48.2 15.4,48.3 C15.1,48.4 14.9,48.5 14.6,48.8 L13.7,49.5 C13.4,49.7 13.1,49.9 12.7,50.1 C12,50.4 11.4,50.7 10.7,50.9 C9.4,51.3 8.1,51.5 7.1,51.7 C5.1,51.8 3.6,51.8 3.6,51.8 Z" id="Shape" fill="#519B3D"/>
                <path d="M24.8,36.5 C24.8,36.5 25.2,36.1 25.9,35.7 C26.3,35.5 26.7,35.3 27.2,35.2 C27.7,35.1 28.3,35 28.8,35 C29.4,35 29.9,35.1 30.4,35.2 C30.9,35.3 31.4,35.4 31.7,35.6 C32.1,35.7 32.4,35.9 32.6,36 C32.8,36.1 32.9,36.2 32.9,36.2 C32.9,36.2 32.8,36.2 32.5,36.1 C32.3,36.1 31.9,36 31.5,35.9 C31.1,35.8 30.7,35.8 30.2,35.7 C29.7,35.7 29.2,35.6 28.7,35.6 C27.7,35.6 26.6,35.8 25.9,36 C25.2,36.2 24.8,36.5 24.8,36.5 Z" id="Shape" fill="#519B3D"/>
                <path d="M23.9,34.7 C23.9,34.7 23.8,34.4 23.9,33.9 C23.9,33.4 24.2,32.8 24.7,32.3 C24.8,32.2 25,32.1 25.1,32 C25.2,31.9 25.4,31.9 25.5,31.8 C25.8,31.7 26.1,31.6 26.3,31.6 C26.5,31.6 26.7,31.6 26.9,31.7 C27,31.7 27.1,31.7 27.1,31.7 C27.1,31.7 27,31.7 26.9,31.8 C26.8,31.8 26.6,31.9 26.4,32 C26.2,32.1 26,32.2 25.7,32.3 C25.5,32.4 25.2,32.6 25.1,32.8 C24.7,33.2 24.4,33.6 24.2,34 C24,34.4 23.9,34.7 23.9,34.7 Z" id="Shape" fill="#519B3D"/>
                <path d="M26.3,38.2 C26.3,38.2 26.5,38.3 26.9,38.4 C27.2,38.5 27.6,38.7 28,38.8 C28.4,39 28.8,39.2 29.1,39.3 C29.2,39.4 29.4,39.5 29.5,39.5 C29.6,39.6 29.6,39.6 29.6,39.6 C29.6,39.6 29.4,39.7 29,39.7 C28.7,39.7 28.2,39.6 27.8,39.4 C27.4,39.2 27,38.9 26.8,38.7 C26.4,38.4 26.3,38.2 26.3,38.2 Z" id="Shape" fill="#519B3D"/>
                <g transform="translate(32.000000, 5.000000)" id="Shape">
                  <path d="M1.2,13.7 C1.2,13.7 9.2,5 16.2,3.8 C23.1,2.6 26.8,5.4 33.8,0.3 C33.8,0.3 30.3,6.8 24.5,8 C14.7,10.1 8.5,19 8.5,19 C8.5,19 5.9,13.8 1.2,13.7 Z" fill="#F1F2DC"/>
                  <path d="M0.1,14.3 C0.1,14.3 1.6,11.3 3.8,11.2 C3.8,11.2 10.2,12.4 11.1,16.4 C11.1,16.4 10.5,19.5 8.8,20.1" fill="#7CBF2E"/>
                  <path d="M1.6,12.5 C1.6,12.5 1.7,12.3 1.9,12 C2,11.8 2.2,11.7 2.4,11.5 C2.6,11.3 2.9,11.2 3.3,11.1 C3.6,11 4,11 4.4,11.1 C4.8,11.1 5.2,11.2 5.6,11.4 C6,11.5 6.4,11.7 6.8,11.9 C7.2,12.1 7.6,12.3 8,12.5 C8.4,12.7 8.8,13 9.1,13.3 C9.4,13.6 9.8,13.9 10.1,14.2 C10.7,14.8 11.2,15.5 11.3,16.2 C11.5,16.9 11.3,17.5 11.1,17.8 C10.9,18.2 10.7,18.3 10.7,18.3 C10.7,18.3 10.8,18.1 11,17.8 C11.1,17.4 11.2,16.9 11,16.3 C10.8,15.7 10.3,15.1 9.8,14.6 C9.5,14.3 9.2,14.1 8.9,13.8 C8.5,13.5 8.2,13.3 7.8,13.1 C7.4,12.9 7.1,12.6 6.7,12.5 C6.3,12.3 5.9,12.1 5.6,12 C5.2,11.9 4.9,11.8 4.5,11.7 C4.1,11.6 3.8,11.6 3.5,11.6 C3.2,11.6 2.9,11.7 2.7,11.8 C2.5,11.9 2.3,12 2.1,12.2 C1.7,12.3 1.6,12.5 1.6,12.5 Z" fill="#519B3D"/>
                  <path d="M13.6,13.5 C13.6,13.5 14.2,12.9 15.2,12.1 C16.2,11.3 17.6,10.3 19.2,9.6 C20,9.2 20.8,8.9 21.5,8.6 C21.9,8.5 22.2,8.3 22.6,8.3 C23,8.2 23.3,8.1 23.6,8.1 C24.2,8 24.8,7.9 25.1,7.9 C25.5,7.9 25.7,7.8 25.7,7.8 C25.7,7.8 25.5,7.9 25.1,8 C24.7,8.1 24.2,8.3 23.6,8.5 C23,8.7 22.3,9 21.6,9.3 C20.9,9.6 20.1,9.9 19.4,10.3 C17.9,11 16.4,11.9 15.4,12.5 C14.3,13.1 13.6,13.5 13.6,13.5 Z" fill="#C9BD9B"/>
                  <path d="M20.5,3.4 C20.5,3.4 21.4,3.4 22.7,3.3 C24,3.2 25.7,3.1 27.4,2.8 C27.8,2.7 28.2,2.6 28.6,2.5 C29,2.4 29.4,2.3 29.8,2.2 C30.2,2.1 30.6,2 30.9,1.8 C31.2,1.6 31.6,1.5 31.9,1.4 C32.2,1.3 32.5,1.1 32.7,1 C32.9,0.9 33.1,0.7 33.3,0.6 C33.6,0.4 33.8,0.3 33.8,0.3 C33.8,0.3 33.6,0.4 33.4,0.7 C33.1,1 32.7,1.3 32.1,1.7 C31.8,1.9 31.5,2 31.2,2.2 C30.9,2.4 30.5,2.5 30.1,2.7 C29.7,2.9 29.3,3 28.9,3.1 C28.5,3.2 28,3.3 27.6,3.4 C26.7,3.6 25.8,3.7 25,3.7 C24.2,3.7 23.4,3.7 22.7,3.7 C21.4,3.7 20.5,3.4 20.5,3.4 Z" fill="#C9BD9B"/>
                </g>
                <path d="M19.5,27.6 C19.5,27.6 19.6,26.8 20.1,25.6 C20.3,25 20.6,24.3 21,23.6 C21.2,23.2 21.4,22.9 21.6,22.5 C21.8,22.1 22.1,21.8 22.3,21.5 C22.8,20.8 23.4,20.2 24,19.7 C24.3,19.5 24.6,19.2 24.9,19 C25.2,18.8 25.5,18.6 25.8,18.5 C26.4,18.2 26.9,18.1 27.3,18 C27.7,17.9 27.9,17.9 27.9,17.9 C27.9,17.9 27.7,18 27.4,18.1 C27.2,18.2 27,18.3 26.8,18.4 C26.6,18.5 26.3,18.7 26.1,18.8 C25.8,19 25.6,19.2 25.3,19.4 C25,19.6 24.8,19.9 24.5,20.1 C24.2,20.4 24,20.7 23.7,21 C23.4,21.3 23.2,21.6 22.9,21.9 C21.9,23.2 21.1,24.6 20.5,25.8 C19.8,26.8 19.5,27.6 19.5,27.6 Z" id="Shape" fill="#519B3D"/>
                <path d="M26.2,51.3 C26.2,51.3 27.2,51.2 28.7,51 C29.4,50.9 30.3,50.8 31.2,50.7 C32.1,50.6 33.1,50.5 34,50.3 C34.5,50.2 35,50.1 35.4,50.1 C35.9,50 36.3,49.9 36.8,49.8 C37.7,49.6 38.5,49.4 39.2,49.1 C39.5,49 39.9,48.9 40.1,48.8 C40.4,48.7 40.6,48.6 40.8,48.5 C41.2,48.3 41.4,48.2 41.4,48.2 C41.4,48.2 41.2,48.3 40.8,48.6 C40.6,48.7 40.4,48.9 40.1,49 C39.8,49.1 39.5,49.3 39.2,49.5 C38.5,49.8 37.7,50.1 36.8,50.4 C36.3,50.5 35.9,50.7 35.4,50.7 C34.9,50.8 34.4,50.9 33.9,51 C32.9,51.2 31.9,51.3 31,51.4 C30.1,51.5 29.2,51.5 28.5,51.5 C27.2,51.4 26.2,51.3 26.2,51.3 Z" id="Shape" fill="#519B3D"/>
                <path d="M0,47.2 C0,47.2 0,46.4 0.3,45 C0.4,44.3 0.6,43.5 1,42.6 C1.4,41.7 1.9,40.7 2.7,39.8 C2.9,39.6 3.1,39.4 3.3,39.1 C3.5,38.9 3.8,38.7 4.1,38.5 C4.7,38.2 5.2,37.8 5.8,37.4 C6.9,36.6 7.8,35.6 8.7,34.4 C9.6,33.2 10.3,31.9 11,30.5 C11.7,29.1 12.3,27.7 13.1,26.2 C13.5,25.5 14,24.8 14.3,24.1 C14.7,23.4 15,22.7 15.4,22 C16.2,20.6 17.1,19.4 18.1,18.2 C18.6,17.6 19.2,17.1 19.7,16.7 C20.3,16.3 20.8,15.8 21.4,15.5 C22,15.2 22.6,14.8 23.2,14.6 C23.8,14.3 24.4,14.1 25,14 C26.1,13.6 27.3,13.5 28.2,13.4 C29.2,13.4 30,13.3 30.7,13.4 C32.1,13.5 32.9,13.6 32.9,13.6 C32.9,13.6 32.1,13.6 30.7,13.5 C30,13.5 29.2,13.6 28.2,13.6 C27.3,13.8 26.2,13.9 25.1,14.3 C24.5,14.4 24,14.7 23.4,15 C22.8,15.2 22.3,15.6 21.7,15.9 C20.6,16.6 19.5,17.5 18.5,18.7 C17.5,19.8 16.7,21 15.9,22.4 C15.5,23.1 15.2,23.8 14.8,24.5 C14.4,25.2 14,25.9 13.6,26.6 C12.9,28 12.2,29.4 11.5,30.8 C10.8,32.2 10,33.6 9.1,34.8 C8.2,36 7.2,37.1 6,37.9 C5.4,38.2 4.8,38.6 4.3,38.9 C4.1,39.1 3.8,39.3 3.6,39.5 C3.4,39.7 3.2,39.9 3,40.1 C2.2,41 1.7,41.9 1.3,42.8 C0.9,43.7 0.7,44.5 0.5,45.2 C0,46.4 0,47.2 0,47.2 Z" id="Shape" fill="#519B3D"/>
              </g>
              <g transform="translate(43.000000, 19.000000)" id="Shape">
                <path d="M1.7,8.4 C-0.9,4.3 2.3,-0.8 8,0.9 C13.7,2.5 16.7,3.7 18.5,3.1 C20.3,2.6 19.4,5.9 16.6,7.5 C13.9,9.1 4.9,13.4 1.7,8.4 Z" fill="#7CBF2E"/>
                <path d="M1.1,7.6 C1.1,7.6 1.4,7.6 1.9,7.6 C2.4,7.6 3.1,7.5 3.8,7.2 C4.5,6.9 5.3,6.2 6,5.5 C6.1,5.4 6.1,5.4 6.2,5.3 L6.4,5.2 C6.5,5.1 6.6,5 6.8,5 C7.1,4.9 7.4,4.8 7.7,4.8 C8.3,4.8 8.9,4.8 9.4,4.9 C10.5,5.1 11.6,5.3 12.6,5.4 C13.1,5.5 13.6,5.5 14.1,5.5 C14.6,5.5 15,5.5 15.4,5.4 C15.8,5.3 16.2,5.3 16.5,5.2 C16.8,5.1 17.1,5 17.3,4.9 C17.7,4.7 18,4.6 18,4.6 C18,4.6 17.8,4.8 17.4,5.1 C17.2,5.2 16.9,5.4 16.6,5.5 C16.3,5.6 15.9,5.8 15.5,5.9 C15.1,6 14.6,6.1 14.1,6.1 C13.6,6.1 13.1,6.1 12.6,6.1 C11.5,6 10.4,5.8 9.3,5.7 C8.8,5.6 8.2,5.6 7.7,5.6 C7.4,5.6 7.2,5.7 7,5.7 C6.9,5.7 6.8,5.8 6.7,5.9 L6.5,6 C6.5,6 6.4,6.1 6.4,6.1 C5.6,6.8 4.8,7.4 3.9,7.7 C3.1,8 2.3,8 1.8,7.9 C1.4,7.7 1.1,7.6 1.1,7.6 Z" fill="#519B3D"/>
                <path d="M2.9,9.9 C2.9,9.9 3.4,10.1 4.2,10.2 C4.6,10.3 5,10.3 5.5,10.4 C6,10.4 6.5,10.5 7,10.5 C8,10.5 9.1,10.4 9.8,10.2 C10.2,10.1 10.5,10.1 10.7,10 C10.9,9.9 11.1,9.9 11.1,9.9 C11.1,9.9 11,10 10.8,10.1 C10.6,10.2 10.3,10.4 9.9,10.5 C9.7,10.6 9.5,10.7 9.3,10.7 C9.1,10.8 8.8,10.8 8.6,10.9 C8.3,10.9 8.1,11 7.8,11 C7.5,11 7.3,11.1 7,11 C5.9,11 4.8,10.8 4.1,10.4 C3.3,10.2 2.9,9.9 2.9,9.9 Z" fill="#519B3D"/>
                <path d="M1.3,3.5 C1.3,3.5 1.4,3.3 1.6,2.9 C1.8,2.6 2.1,2 2.6,1.6 C3.1,1.1 3.8,0.6 4.7,0.4 C5.1,0.3 5.6,0.2 6.1,0.2 C6.6,0.2 7.1,0.3 7.5,0.4 C9.3,0.8 11,1.5 12.3,2 C13.6,2.5 14.4,2.7 14.4,2.7 C14.4,2.7 13.5,2.6 12.2,2.3 C10.9,2 9.2,1.4 7.4,1 C7,0.9 6.5,0.9 6.1,0.8 C5.7,0.8 5.3,0.8 4.9,0.9 C4.1,1.1 3.4,1.4 2.9,1.8 C2.4,2.2 2,2.6 1.8,2.9 C1.4,3.3 1.3,3.5 1.3,3.5 Z" fill="#519B3D"/>
              </g>
            </g>
            <path d="M269.3,188.9 C269.3,188.9 269,188.6 268.7,188.1 C268.3,187.6 267.9,186.8 267.5,185.8 C267.3,185.3 267.1,184.7 266.9,184.2 C266.7,183.6 266.5,183 266.4,182.3 C266.3,181.6 266.1,180.9 266,180.2 C265.9,179.5 265.8,178.8 265.8,178.1 C265.7,177.4 265.7,176.7 265.7,175.9 C265.7,175.2 265.7,174.5 265.7,173.8 C265.7,173.1 265.8,172.5 265.8,171.9 C265.9,171.3 265.9,170.7 266,170.2 C266.1,169.1 266.3,168.2 266.4,167.6 C266.5,167 266.6,166.6 266.6,166.6 C266.6,166.6 266.6,167 266.5,167.6 C266.5,168.2 266.4,169.1 266.3,170.2 C266.3,170.7 266.2,171.3 266.2,171.9 C266.2,172.5 266.2,173.2 266.2,173.8 C266.2,174.5 266.2,175.2 266.2,175.9 C266.2,176.6 266.2,177.3 266.3,178 C266.3,178.7 266.4,179.4 266.5,180.1 C266.6,180.8 266.7,181.5 266.8,182.1 C267.1,183.4 267.3,184.6 267.7,185.6 C268,186.6 268.4,187.4 268.7,188 C269.1,188.6 269.3,188.9 269.3,188.9 Z" id="Shape" fill="#519B3D"/>
            <path d="M213.7,177.1 C213.7,177.1 215,180.7 217.5,185.7 C218.7,188.2 220.3,191.1 222.3,194 C223.3,195.5 224.4,196.9 225.6,198.3 C226.8,199.7 228.2,200.9 229.7,201.9 C231.2,202.9 232.9,203.7 234.7,204.2 C236.5,204.7 238.3,204.9 240,205.1 C243.5,205.4 246.8,205.7 249.6,206.1 C252.4,206.4 254.7,206.8 256.4,207.1 C258,207.4 258.9,207.6 258.9,207.6 C258.9,207.6 258,207.5 256.3,207.2 C254.7,207 252.3,206.7 249.5,206.4 C248.1,206.3 246.6,206.1 245,206 C243.4,205.9 241.7,205.8 239.9,205.6 C238.1,205.4 236.3,205.2 234.5,204.7 C232.7,204.2 230.9,203.5 229.3,202.4 C227.7,201.3 226.3,200 225.1,198.6 C223.9,197.2 222.8,195.7 221.8,194.2 C219.8,191.2 218.4,188.3 217.2,185.7 C216,183.1 215.2,180.9 214.6,179.4 C213.9,178 213.7,177.1 213.7,177.1 Z" id="Shape" fill="#519B3D"/>
            <g transform="translate(211.000000, 131.000000)" id="Shape">
              <g transform="translate(89.000000, 97.000000)">
                <path d="M7.4,17.7 C8.6,19.3 10.8,23.5 10.9,25.3 C10.9,27.1 9.1,27.2 9.6,29.7 C10.1,32.1 12.3,32.4 13.6,31.3 C14.9,30.2 14.8,29.8 14.8,28.9 C14.8,28.9 15.7,29.2 16.7,28.7 C18,28.1 18.2,26.8 17.7,25.7 C17.2,24.6 17.5,24 17.5,24 C17.5,24 19.2,24.5 20.2,23.5 C21.6,22.2 21.2,20.8 19.6,19.3 C18.1,17.8 17.9,15.8 18,12.6 C18.1,10.3 14.1,8.3 10.9,3.5 C7.4,-1.7 4.4,0.6 2,3.7 C-2.5,9.2 2.9,12.1 7.4,17.7 Z" fill="#7CBF2E"/>
                <path d="M14.8,28.9 C14.8,28.9 14.6,28.9 14.3,28.8 C14.2,28.8 14,28.7 13.8,28.6 C13.6,28.5 13.4,28.4 13.2,28.2 C12.8,27.8 12.5,27.2 12.4,26.5 C12.4,26.1 12.4,25.8 12.5,25.4 C12.6,25 12.7,24.7 12.7,24.4 C12.8,23.8 12.7,23.1 12.7,22.5 C12.6,21.9 12.5,21.3 12.3,20.8 C12.1,20.3 12,19.9 11.8,19.7 C11.7,19.4 11.6,19.3 11.6,19.3 C11.6,19.3 11.7,19.4 11.9,19.6 C12.1,19.8 12.4,20.2 12.6,20.7 C12.8,21.2 13.1,21.8 13.2,22.4 C13.3,23.1 13.4,23.8 13.3,24.5 C13.2,24.9 13.1,25.2 13.1,25.5 C13,25.8 13,26.1 13,26.4 C13,26.7 13.1,27 13.1,27.2 C13.2,27.5 13.3,27.7 13.5,27.9 C13.8,28.3 14.2,28.5 14.4,28.7 C14.6,28.9 14.8,28.9 14.8,28.9 Z" fill="#519B3D"/>
                <path d="M17.4,24.1 C17.4,24.1 16.8,24.1 16.1,23.6 C15.7,23.4 15.4,23 15.1,22.5 C15,22.3 14.9,22 14.8,21.7 C14.7,21.4 14.7,21.1 14.6,20.9 C14.5,19.8 14.5,18.7 14.4,17.9 C14.4,17.1 14.2,16.6 14.2,16.6 C14.2,16.6 14.3,16.7 14.4,16.9 C14.5,17.1 14.7,17.4 14.8,17.8 C15,18.6 15.1,19.7 15.2,20.8 C15.3,21.8 15.7,22.8 16.3,23.3 C16.6,23.6 16.8,23.8 17.1,23.9 C17.3,24 17.4,24.1 17.4,24.1 Z" fill="#519B3D"/>
                <path d="M21.5,24.5 C21.5,24.5 17.2,24.4 18.1,22.4 C18.7,21.2 19.3,21.9 19.8,22.7 C20.3,23.7 20.4,24 21.5,24.5 Z" fill="#A1AF93"/>
                <path d="M18.3,29.9 C18.3,29.9 14,29 15.3,27.3 C16.1,26.2 16.6,27 17,27.9 C17.3,28.8 17.4,29.2 18.3,29.9 Z" fill="#A1AF93"/>
                <path d="M14.3,33.8 C14.3,33.8 10.6,31.6 12.3,30.3 C13.4,29.5 13.7,30.4 13.7,31.4 C13.7,32.4 13.6,32.8 14.3,33.8 Z" fill="#A1AF93"/>
              </g>
              <g>
                <path d="M1.3,23.9 C-3.7,41.9 11.8,72.9 26,74 C47.6,75.7 60.9,79 67.9,79.7 C74.7,80.5 76.5,82.9 90,107.2 C93.4,113.3 105,120.1 100.7,106 C99.9,103.2 93.4,81.8 88.3,75.7 C78.8,64.4 73.5,67.5 68.1,65.3 C61.3,62.6 52.8,55.5 55.5,39.1 C60.5,8.1 13.5,-20.6 1.3,23.9 Z" fill="#7CBF2E"/>
                <g transform="translate(15.000000, 6.000000)" fill="#89CE30">
                  <path d="M8.3,13.4 C3.1,9.7 -1,3.9 5.9,1.6 C12.8,-0.6 24.1,-0.2 25.4,6.5 C26.6,13.4 13.5,17.1 8.3,13.4 Z"/>
                  <path d="M14.9,24.3 C9.2,24.2 14.4,18.6 20.1,18.2 C25.7,17.7 23.9,24.5 14.9,24.3 Z"/>
                  <path d="M2.8,17.4 C-1.4,17.2 0.6,21.7 3.6,22.5 C6.5,23.4 7.8,17.6 2.8,17.4 Z"/>
                </g>
              </g>
            </g>
            <path d="M275.2,210.3 C275.2,210.3 275.7,210.3 276.5,210.4 C277.3,210.5 278.5,210.5 279.9,210.7 C280.6,210.8 281.4,210.9 282.1,211.2 C282.5,211.3 282.9,211.4 283.3,211.7 C283.7,211.9 284,212.2 284.4,212.5 C285.8,213.6 287.1,215 288.2,216.5 C289.3,218 290.4,219.6 291.3,221.1 C292.2,222.6 293.1,224 293.7,225.2 C294.4,226.4 294.9,227.5 295.3,228.2 C295.7,228.9 295.9,229.3 295.9,229.3 C295.9,229.3 294.9,227.7 293.4,225.3 C292.7,224.1 291.8,222.7 290.8,221.3 C289.8,219.8 288.8,218.3 287.6,216.8 C286.5,215.3 285.3,213.9 283.9,212.8 C283.6,212.5 283.2,212.2 282.9,212.1 C282.6,211.9 282.2,211.8 281.8,211.6 C281.1,211.4 280.3,211.2 279.6,211 C278.2,210.7 277.1,210.5 276.3,210.4 C275.6,210.4 275.2,210.3 275.2,210.3 Z" id="Shape" fill="#519B3D"/>
            <g transform="translate(144.000000, 0.000000)" id="Shape">
              <path d="M177.9,65.4 C168.6,61.1 138.5,59.7 150.6,102.3 C150.6,102.3 111.3,82.7 113,126.4 C113,126.4 56,89.7 23.3,125.9 C23.3,125.9 50.3,64.6 25,30.8 C25,30.8 43.8,-7.5 106.3,7.7 C135.7,14.9 177.9,65.4 177.9,65.4 Z" fill="#B4D189"/>
              <path d="M1.1,129.5 C1.1,129.5 33.7,98.4 30.9,77.8 C28.1,57.1 8.8,32.8 11.8,21 C14.8,9.2 23.1,0.4 33.2,2.2 C33.2,2.2 20.8,3.9 21.9,14.5 C21.9,14.5 63.4,-3.8 102.6,2.3 C133.5,7.1 183.8,71.5 183.8,71.5 C183.8,71.5 122.9,13.6 99.8,10.7 C76.6,7.9 37.9,13.4 33.6,23.3 C33.6,23.3 82.6,12.4 96.7,24.3 C110.8,36.2 133.7,59.3 153.4,107.8 C153.4,107.8 109.9,40.6 92.2,33.4 C74.5,26.2 34.6,32.7 34.6,32.7 C34.6,32.7 84.1,42.4 96.3,70.8 C108.5,99.2 114.8,132.3 114.8,132.3 C114.8,132.3 91.2,67.8 71.5,57.2 C52.6,47 35.1,42.7 35.1,42.7 C35.1,42.7 46.2,69.4 41.5,89.5 C36.3,111.9 24.7,118 20.2,133.1 C17.5,143.1 -0.7,137.7 1.1,129.5 Z" fill="#7CBF2E"/>
              <path d="M4,126.7 C4,126.7 8,122.7 13.3,116.1 C16,112.8 18.9,108.9 21.8,104.4 C24.7,100 27.5,95 29.2,89.7 C30.1,87 30.7,84.3 30.7,81.5 C30.6,78.8 30.2,76.1 29.6,73.5 C28.4,68.4 26.8,63.7 25.3,59.8 C22.2,51.9 19.5,46.9 19.5,46.9 C19.5,46.9 20.2,48.1 21.3,50.3 C22.4,52.5 24,55.7 25.6,59.6 C27.2,63.5 28.9,68.2 30.1,73.4 C30.7,76 31.2,78.7 31.3,81.5 C31.3,84.3 30.7,87.2 29.8,89.9 C28,95.3 25.1,100.2 22.2,104.7 C19.3,109.1 16.2,113 13.5,116.3 C10.8,119.6 8.4,122.1 6.7,123.9 C5,125.7 4,126.7 4,126.7 Z" fill="#519B3D"/>
              <path d="M31.3,32.2 C31.3,32.3 32.1,32.4 33.4,32.7 C34.8,33 36.7,33.3 39,33.9 C41.3,34.5 44,35.2 46.9,36 C49.8,36.9 52.8,37.9 55.8,39 C58.8,40.2 61.7,41.4 64.4,42.7 C67.1,44 69.6,45.3 71.7,46.4 C73.8,47.6 75.5,48.6 76.6,49.4 C77.8,50.2 78.4,50.6 78.4,50.6 C78.4,50.6 77.7,50.2 76.5,49.5 C75.3,48.8 73.5,47.9 71.4,46.7 C69.3,45.6 66.8,44.4 64.1,43.1 C61.4,41.9 58.5,40.6 55.5,39.5 C52.5,38.3 49.5,37.3 46.7,36.4 C43.9,35.5 41.2,34.7 38.9,34.1 C36.6,33.5 34.7,33 33.3,32.7 C32.1,32.4 31.3,32.2 31.3,32.2 Z" fill="#519B3D"/>
              <path d="M30.6,24.2 C30.6,24.2 31.4,24 32.8,23.6 C34.2,23.2 36.3,22.7 38.8,22.2 C40,21.9 41.4,21.7 42.8,21.4 C44.2,21.2 45.7,20.9 47.3,20.6 C50.4,20.1 53.8,19.7 57.2,19.4 C58.9,19.2 60.6,19.2 62.2,19 C63.9,18.9 65.5,18.9 67.1,18.8 C68.7,18.7 70.2,18.8 71.7,18.8 C73.2,18.8 74.5,18.8 75.8,18.9 C77.1,19 78.2,19 79.3,19.1 C80.3,19.2 81.2,19.3 82,19.3 C83.5,19.4 84.3,19.5 84.3,19.5 C84.3,19.5 83.5,19.5 82,19.4 C81.3,19.4 80.4,19.3 79.3,19.3 C78.3,19.3 77.1,19.3 75.8,19.3 C74.5,19.3 73.2,19.3 71.7,19.3 C70.2,19.3 68.7,19.3 67.1,19.4 C65.5,19.5 63.9,19.5 62.2,19.6 C60.5,19.7 58.9,19.8 57.2,20 C53.8,20.3 50.5,20.7 47.3,21.1 C44.2,21.5 41.2,22 38.7,22.5 C36.2,23 34.1,23.4 32.7,23.7 C31.4,24 30.6,24.2 30.6,24.2 Z" fill="#519B3D"/>
              <path d="M21.8,14.5 C21.8,14.5 22.9,14 24.8,13.2 C25.8,12.8 27,12.3 28.3,11.8 C29.7,11.3 31.2,10.7 32.9,10.1 C34.6,9.5 36.5,8.9 38.4,8.3 C40.4,7.7 42.5,7.1 44.7,6.5 C46.9,6 49.1,5.3 51.5,4.8 C53.8,4.3 56.2,3.7 58.5,3.3 C59.7,3.1 60.9,2.9 62.1,2.7 C63.3,2.5 64.5,2.4 65.6,2.2 C66.8,2 67.9,1.9 69.1,1.7 C70.3,1.6 71.4,1.5 72.5,1.4 C73.6,1.3 74.7,1.2 75.8,1.1 C76.9,1 77.9,1 79,0.9 C80,0.9 81,0.8 82,0.8 C83,0.8 83.9,0.8 84.8,0.8 C86.6,0.8 88.3,0.8 89.7,0.8 C91.2,0.9 92.4,1 93.5,1 C95.6,1.1 96.8,1.2 96.8,1.2 C96.8,1.2 95.6,1.2 93.5,1.1 C92.4,1.1 91.2,1 89.7,1 C88.2,1 86.6,1.1 84.8,1.1 C83.9,1.1 83,1.1 82,1.2 C81,1.3 80,1.3 79,1.4 C78,1.5 76.9,1.5 75.8,1.6 C74.7,1.7 73.6,1.8 72.5,1.9 C71.4,2 70.2,2.1 69.1,2.3 C68,2.4 66.8,2.6 65.6,2.8 C64.4,3 63.3,3.1 62.1,3.3 C60.9,3.5 59.7,3.7 58.6,3.9 C56.2,4.3 53.9,4.8 51.6,5.3 C49.3,5.8 47,6.4 44.8,6.9 C42.6,7.5 40.5,8 38.5,8.6 C36.5,9.2 34.6,9.7 32.9,10.3 C29.5,11.4 26.6,12.4 24.7,13.1 C22.9,14.1 21.8,14.5 21.8,14.5 Z" fill="#519B3D"/>
              <path d="M21.8,130.9 C21.8,130.9 21.8,130.7 21.8,130.3 C21.8,129.9 21.9,129.3 22.2,128.5 C22.6,127 23.5,124.9 24.9,122.5 C25.6,121.3 26.3,120.1 27.2,118.8 C28.1,117.5 29,116.2 30,114.8 C32,112.1 33.8,109 35.4,105.8 C37,102.6 38.4,99.3 39.5,96.1 C40.6,92.9 41.5,89.9 42,87.2 C42.6,84.6 42.9,82.3 42.9,80.8 C42.9,80 42.9,79.4 42.9,79 C42.9,78.6 42.9,78.4 42.9,78.4 C42.9,78.4 42.9,78.6 43,79 C43,79.4 43.1,80 43.1,80.8 C43.1,82.4 42.9,84.6 42.4,87.3 C41.9,90 41.2,93.1 40.1,96.3 C39,99.5 37.7,102.9 36.1,106.1 C34.5,109.3 32.6,112.5 30.6,115.2 C29.6,116.6 28.6,117.9 27.7,119.1 C26.8,120.4 26,121.6 25.3,122.7 C24.6,123.9 24,124.9 23.5,125.9 C23,126.9 22.7,127.8 22.4,128.5 C22.1,129.2 22,129.9 22,130.3 C21.8,130.7 21.8,130.9 21.8,130.9 Z" fill="#519B3D"/>
              <path d="M33,39.4 C33,39.4 33.2,39.5 33.4,39.8 C33.6,40.1 34,40.5 34.3,41.1 C35,42.2 35.8,43.8 36.5,45.4 C37.1,47 37.6,48.7 37.9,50 C38.1,50.6 38.1,51.2 38.2,51.6 C38.3,52 38.3,52.2 38.3,52.2 C38.3,52.2 38.2,52 38.1,51.6 C38,51.2 37.8,50.7 37.6,50.1 C37.2,48.9 36.6,47.2 35.9,45.6 C35.3,44 34.6,42.4 34,41.2 C33.4,40.1 33,39.4 33,39.4 Z" fill="#519B3D"/>
              <path d="M33.6,23.5 C33.6,23.5 33.7,23.2 34,22.6 C34.2,22.3 34.4,22 34.6,21.7 C34.9,21.4 35.2,21 35.6,20.7 C36,20.4 36.4,20 36.9,19.7 C37.4,19.3 37.9,19 38.5,18.7 C39.1,18.4 39.7,18.1 40.3,17.7 C40.9,17.4 41.6,17.1 42.2,16.8 C42.8,16.6 43.5,16.3 44.1,16.1 C44.7,15.9 45.4,15.7 46,15.5 C47.2,15.1 48.4,14.8 49.4,14.5 C50.4,14.3 51.3,14.1 51.8,14 C52.4,13.9 52.7,13.8 52.7,13.8 C52.7,13.8 51.4,14.2 49.4,14.8 C48.4,15.1 47.3,15.5 46.1,15.9 C45.5,16.1 44.9,16.3 44.2,16.6 C43.6,16.9 42.9,17.1 42.3,17.4 C41.7,17.7 41,17.9 40.4,18.2 C39.8,18.5 39.2,18.8 38.6,19.1 C38.1,19.4 37.5,19.7 37,20 C36.5,20.3 36.1,20.6 35.6,20.9 C35.2,21.2 34.8,21.5 34.5,21.8 C34.2,22.1 34,22.4 33.8,22.6 C33.7,23.1 33.6,23.5 33.6,23.5 Z" fill="#519B3D"/>
              <path d="M22.7,9 C22.7,9 22.5,9.8 22.3,11 C22.2,11.6 22.1,12.3 22.1,13 C22.1,13.7 22.2,14.5 22.5,15.2 C22.6,15.4 22.7,15.5 22.8,15.7 C22.9,15.9 23,16 23.2,16.2 C23.4,16.6 23.6,17 23.6,17.4 C23.7,18.2 23.5,19 23.2,19.6 C22.9,20.2 22.4,20.5 22.1,20.6 C21.8,20.7 21.5,20.7 21.5,20.7 C21.5,20.7 21.7,20.7 22,20.5 C22.3,20.3 22.6,19.9 22.9,19.4 C23.1,18.9 23.3,18.2 23.1,17.5 C23,17.2 22.9,16.8 22.7,16.5 C22.6,16.3 22.5,16.2 22.4,16 C22.3,15.8 22.1,15.6 22,15.4 C21.6,14.6 21.6,13.7 21.6,12.9 C21.7,12.1 21.8,11.4 22,10.8 C22.3,9.7 22.7,9 22.7,9 Z" fill="#519B3D"/>
              <path d="M49.2,111.2 C49.2,111.2 49.4,111.1 49.9,111 C50.4,110.9 51.1,110.7 52,110.6 C52.9,110.4 54,110.3 55.3,110.2 C56.6,110.1 58,110 59.6,109.9 C60.4,109.9 61.2,109.9 62.1,109.9 C62.9,109.9 63.8,110 64.7,110 C66.5,110 68.4,110.3 70.4,110.5 C71.4,110.6 72.4,110.8 73.4,111 C74.4,111.2 75.4,111.3 76.4,111.5 C77.4,111.7 78.4,112 79.4,112.2 L80.9,112.5 L82.4,112.9 C84.4,113.5 86.5,114 88.4,114.8 C89.4,115.1 90.3,115.5 91.3,115.8 C91.8,116 92.3,116.1 92.7,116.3 C93.2,116.5 93.6,116.7 94.1,116.9 C95.9,117.7 97.7,118.4 99.3,119.1 C100.9,119.9 102.4,120.6 103.9,121.3 C104.6,121.6 105.3,122 105.9,122.3 C106.5,122.7 107.1,123 107.7,123.3 C108.8,123.9 109.8,124.5 110.6,124.9 C112.2,125.8 113.1,126.3 113.1,126.3 C113.1,126.3 112.2,125.8 110.5,125 C109.7,124.6 108.7,124.1 107.6,123.5 C107,123.2 106.4,122.9 105.8,122.6 C105.2,122.3 104.5,122 103.8,121.7 C102.4,121 100.8,120.3 99.2,119.6 C97.5,118.9 95.8,118.2 94,117.5 C93.5,117.3 93.1,117.1 92.6,116.9 C92.1,116.7 91.7,116.6 91.2,116.4 C90.2,116.1 89.3,115.7 88.3,115.4 C86.4,114.7 84.3,114.2 82.3,113.6 L80.8,113.2 L79.3,112.8 C78.3,112.6 77.3,112.3 76.3,112.1 C75.3,111.9 74.3,111.7 73.3,111.5 C72.3,111.3 71.3,111.1 70.4,111 C68.5,110.8 66.6,110.5 64.8,110.4 C63.9,110.3 63,110.2 62.2,110.2 C61.4,110.2 60.5,110.2 59.8,110.2 C59,110.2 58.3,110.2 57.6,110.2 C56.9,110.2 56.2,110.2 55.6,110.3 C54.3,110.4 53.2,110.5 52.3,110.6 C51.4,110.7 50.7,110.8 50.2,111 C49.4,111.2 49.2,111.2 49.2,111.2 Z" fill="#7D9950"/>
              <path d="M69.6,56.4 C69.6,56.4 69.9,56.5 70.5,56.7 C71.1,56.9 72,57.3 73,58 C75.1,59.3 77.7,61.5 80.5,64.6 C81.9,66.2 83.3,67.9 84.6,69.9 C86,71.8 87.3,73.9 88.7,76.2 C90,78.4 91.4,80.7 92.7,83.1 C93.4,84.3 94,85.5 94.7,86.7 C95.3,87.9 96,89.1 96.6,90.4 C99.1,95.3 101.5,100.3 103.6,105 C104.7,107.3 105.7,109.6 106.6,111.8 C107.5,114 108.4,116 109.2,117.9 C110.8,121.7 112.1,124.9 113,127.1 C113.9,129.3 114.4,130.6 114.4,130.6 C114.4,130.6 113.8,129.3 112.9,127.1 C111.9,124.9 110.5,121.7 108.9,118 C107.2,114.2 105.2,109.8 103,105.2 C100.8,100.5 98.4,95.6 95.9,90.7 C94.7,88.2 93.4,85.8 92.1,83.4 C90.8,81 89.5,78.7 88.2,76.5 C85.6,72.1 82.9,68.1 80.2,64.9 C78.9,63.3 77.6,62 76.3,60.8 C75.1,59.7 73.9,58.8 72.9,58.1 C71.9,57.4 71.1,57 70.5,56.7 C69.9,56.5 69.6,56.4 69.6,56.4 Z" fill="#519B3D"/>
              <path d="M149.4,75.3 C149.4,75.3 149.5,74.8 149.8,74 C150,73.6 150.2,73.1 150.5,72.6 C150.8,72.1 151.1,71.4 151.6,70.8 C152,70.2 152.6,69.5 153.1,68.9 C153.7,68.3 154.3,67.6 155.1,67 C155.8,66.4 156.7,65.9 157.6,65.4 C158,65.1 158.5,65 159,64.8 C159.5,64.6 159.9,64.4 160.4,64.2 L161.9,63.8 C162.4,63.7 162.9,63.5 163.4,63.5 C163.9,63.4 164.4,63.4 164.9,63.3 L165.6,63.2 C165.8,63.2 166.1,63.2 166.3,63.2 C167.2,63.2 168.2,63.2 169,63.2 C169.9,63.3 170.7,63.4 171.4,63.5 C171.8,63.6 172.1,63.6 172.5,63.7 C172.8,63.8 173.1,63.9 173.4,63.9 C174,64 174.5,64.2 174.9,64.3 C175.7,64.5 176.2,64.6 176.2,64.6 C176.2,64.6 175.7,64.5 174.8,64.4 C174.4,64.3 173.8,64.2 173.2,64.1 C172.9,64 172.6,64 172.2,63.9 C171.9,63.9 171.5,63.8 171.1,63.8 C170.4,63.7 169.6,63.7 168.7,63.6 C167.8,63.6 167,63.7 166,63.7 C165.8,63.7 165.5,63.7 165.3,63.7 L164.6,63.8 C164.1,63.9 163.7,63.9 163.2,64 C162.7,64 162.2,64.2 161.8,64.3 L160.4,64.7 C159.9,64.8 159.5,65.1 159,65.2 C158.6,65.4 158.1,65.5 157.7,65.8 C156.9,66.3 156,66.7 155.3,67.3 C154.5,67.8 153.9,68.5 153.3,69 C152.7,69.6 152.2,70.2 151.7,70.8 C151.2,71.4 150.9,72 150.6,72.5 C150.3,73 150,73.5 149.8,73.9 C149.6,74.8 149.4,75.3 149.4,75.3 Z" fill="#7D9950"/>
              <path d="M115.5,108.8 C115.5,108.8 115.7,108.3 116.1,107.4 C116.3,107 116.6,106.4 117,105.8 C117.2,105.5 117.4,105.2 117.6,104.9 C117.9,104.6 118.1,104.3 118.4,104 C118.7,103.7 119,103.4 119.3,103 C119.6,102.7 120,102.3 120.4,102 C120.8,101.7 121.2,101.4 121.6,101.1 C122,100.8 122.5,100.6 123,100.3 C123.2,100.2 123.5,100 123.7,99.9 C124,99.8 124.2,99.7 124.5,99.6 C125,99.4 125.5,99.2 126.1,98.9 C126.6,98.7 127.2,98.6 127.8,98.4 L128.6,98.2 C128.9,98.1 129.2,98.1 129.5,98.1 C130.6,98 131.8,97.8 132.9,97.8 C134,97.8 135.2,97.8 136.2,97.9 C137.3,98 138.3,98.1 139.3,98.3 C140.3,98.5 141.2,98.8 142,99 C142.8,99.2 143.6,99.5 144.2,99.7 C144.9,99.9 145.4,100.1 145.9,100.3 C146.8,100.7 147.4,100.9 147.4,100.9 C147.4,100.9 146.9,100.7 145.9,100.5 C145.4,100.4 144.8,100.2 144.2,100 C143.5,99.8 142.8,99.6 141.9,99.4 C141.1,99.2 140.2,99 139.2,98.8 C138.7,98.7 138.2,98.7 137.7,98.6 C137.2,98.5 136.7,98.5 136.1,98.4 C135,98.2 134,98.3 132.8,98.3 C131.7,98.3 130.6,98.5 129.5,98.6 C129.2,98.6 128.9,98.7 128.7,98.7 L127.9,98.9 C127.4,99 126.8,99.2 126.3,99.3 C125.8,99.5 125.3,99.7 124.8,99.9 C124.5,100 124.3,100.1 124.1,100.2 C123.9,100.3 123.6,100.5 123.4,100.6 C122.9,100.9 122.5,101.1 122.1,101.4 C121.7,101.7 121.3,102 120.9,102.3 C120.5,102.6 120.2,102.9 119.8,103.2 C119.5,103.5 119.1,103.8 118.8,104.1 C118.5,104.4 118.2,104.7 118,105 C117.8,105.3 117.5,105.6 117.3,105.9 C116.9,106.4 116.6,107 116.3,107.4 C115.7,108.3 115.5,108.8 115.5,108.8 Z" fill="#7D9950"/>
              <path d="M83.2,31.1 C83.2,31.1 83.9,31.2 85.1,31.4 C86.3,31.6 88,32 90,32.6 C91,32.9 92.1,33.3 93.2,33.8 C94.3,34.3 95.4,35 96.5,35.7 C98.7,37.2 100.8,39 102.8,41 C104.8,43 106.7,45 108.4,47 C110.1,49 111.7,50.8 113,52.5 C115.7,55.7 117.4,57.9 117.4,57.9 C117.4,57.9 115.5,55.8 112.7,52.7 C111.3,51.1 109.7,49.3 107.9,47.4 C106.1,45.5 104.2,43.4 102.3,41.5 C100.3,39.5 98.2,37.7 96.1,36.2 C95,35.5 94,34.7 92.9,34.2 C91.8,33.7 90.8,33.3 89.8,33 C87.8,32.3 86.1,31.9 84.9,31.6 C83.9,31.3 83.2,31.1 83.2,31.1 Z" fill="#519B3D"/>
              <path d="M183.7,71.6 C183.7,71.6 180.6,68.9 176,64.8 C173.7,62.7 171,60.4 168.1,57.8 C165.2,55.2 162.1,52.5 159,49.8 C155.9,47.1 152.8,44.4 149.8,41.9 C146.8,39.4 144.1,37.1 141.6,35.2 C140.4,34.2 139.3,33.3 138.3,32.6 C137.3,31.9 136.4,31.2 135.7,30.7 C134.2,29.7 133.4,29.1 133.4,29.1 C133.4,29.1 134.3,29.7 135.8,30.6 C136.6,31.1 137.5,31.7 138.5,32.4 C139.5,33.1 140.7,34 141.9,34.9 C144.4,36.8 147.2,39 150.2,41.5 C153.2,44 156.3,46.6 159.5,49.3 C162.6,52 165.7,54.8 168.6,57.4 C171.5,60 174.1,62.5 176.4,64.6 C178.7,66.7 180.5,68.5 181.8,69.7 C183,70.9 183.7,71.6 183.7,71.6 Z" fill="#519B3D"/>
            </g>
            <g transform="translate(108.000000, 163.000000)" id="Shape">
              <g transform="translate(0.000000, 58.000000)">
                <path d="M13.9,13.6 C13.9,13.6 14.8,10.5 13.4,10.8 C12.6,11 12.8,11.6 13.2,12.1 C13.7,12.6 13.9,12.7 13.9,13.6 Z" fill="#A1AF93"/>
                <path d="M0.5,15.7 C0.8,17.7 -0.3,19.3 0.5,20.9 C2.1,24.2 3.1,26.4 2.5,28.9 C1.9,31.3 7.1,33.4 7.7,31.6 C8.2,30 7.6,29.6 6.5,28.3 C6.5,28.3 7.8,29.3 8.9,29.3 C10.3,29.4 11,28.2 11,26.9 C11,25.6 9.9,24.5 9.9,24.5 C9.9,24.5 11.6,24.9 12.5,23.5 C13.5,21.8 12.8,21.8 11.4,20.1 C10.3,18.8 9.6,17.1 10,15.3 C10.4,13.1 9.6,11.5 10.3,9.6 C10.7,8.5 12.2,12.3 13.1,11.8 C14.4,11.1 14.6,10 13.7,8.8 C12.2,6.7 11.3,6 9.9,5.3 C7.8,4.2 6.3,-1.7 3.9,1.4 C1.5,4.5 -0.1,12.1 0.5,15.7 Z" fill="#7CBF2E"/>
                <path d="M8.2,29.4 C8.2,29.4 8,29.4 7.7,29.4 C7.4,29.3 6.9,29.2 6.5,28.9 C6.3,28.7 6.1,28.5 5.9,28.2 C5.7,27.9 5.6,27.6 5.5,27.3 C5.4,27 5.4,26.6 5.4,26.2 C5.4,25.8 5.4,25.5 5.4,25.2 C5.3,23.9 4.7,22.6 4.2,21.7 C3.9,21.3 3.7,20.9 3.5,20.7 C3.3,20.5 3.2,20.3 3.2,20.3 C3.2,20.3 3.4,20.4 3.6,20.6 C3.8,20.8 4.2,21.1 4.5,21.5 C5.2,22.3 5.9,23.6 6,25.2 C6,25.6 6,25.9 6,26.3 C6,26.6 6,26.9 6.1,27.2 C6.2,27.8 6.4,28.3 6.8,28.7 C7.1,29.1 7.5,29.3 7.8,29.4 C8,29.3 8.2,29.4 8.2,29.4 Z" fill="#519B3D"/>
                <path d="M10.2,24.5 C10.2,24.5 9.6,24.4 8.8,24 C8.4,23.8 8,23.4 7.6,23 C7.2,22.6 6.9,22 6.7,21.5 C6.6,21.2 6.5,20.9 6.4,20.7 C6.3,20.4 6.3,20.2 6.2,19.9 C6.1,19.4 6,18.9 5.9,18.5 C5.7,17.7 5.4,17.2 5.4,17.2 C5.4,17.2 5.5,17.3 5.7,17.5 C5.9,17.7 6.1,18 6.3,18.4 C6.7,19.2 7,20.3 7.3,21.4 C7.6,22.4 8.3,23.3 8.9,23.8 C9.6,24.3 10.2,24.5 10.2,24.5 Z" fill="#519B3D"/>
                <path d="M14.2,23.5 C14.2,23.5 9.9,24.3 10.4,22.1 C10.7,20.8 11.5,21.3 12.2,22.1 C12.8,22.9 13,23.2 14.2,23.5 Z" fill="#A1AF93"/>
                <path d="M12.1,29.4 C12.1,29.4 7.8,29.4 8.6,27.4 C9.1,26.2 9.8,26.8 10.3,27.7 C10.9,28.5 11,28.9 12.1,29.4 Z" fill="#A1AF93"/>
                <path d="M8.9,34 C8.9,34 4.8,32.6 6.3,31 C7.2,30 7.7,30.9 7.9,31.8 C8.1,32.8 8,33.2 8.9,34 Z" fill="#A1AF93"/>
              </g>
              <g transform="translate(2.000000, 0.000000)">
                <path d="M15.2,10.5 C11.5,21.5 17.2,40.1 32,51.7 C37,55.6 36.4,57.5 36.4,57.5 C36.4,57.5 30.8,57.2 21.2,59 C13.8,60.4 6.5,57.4 3.2,58.5 C-0.2,59.6 -2.7,68.4 19.6,70.3 C58.6,73.7 64.6,61.9 56.3,50.8 C47.2,38.6 53.1,29.5 51.4,16 C49.6,2.5 21.4,-8.2 15.2,10.5 Z" fill="#7CBF2E"/>
                <path d="M55.6,49.7 C55.6,49.7 55.3,49.4 54.9,48.9 C54.5,48.4 53.9,47.6 53.4,46.6 C53.1,46.1 52.9,45.5 52.6,44.9 C52.3,44.3 52.1,43.6 51.9,42.9 C51.7,42.2 51.5,41.5 51.3,40.7 C51.2,40 51,39.2 50.9,38.4 C50.8,37.6 50.7,36.9 50.7,36.1 C50.7,35.3 50.6,34.6 50.7,33.9 C50.7,33.2 50.8,32.5 50.8,31.8 C50.9,31.1 51,30.5 51,30 C51.1,29.4 51.1,28.9 51.2,28.5 C51.3,28 51.4,27.6 51.4,27.3 C51.5,26.6 51.6,26.3 51.6,26.3 C51.6,26.3 51.6,26.7 51.5,27.3 C51.4,28 51.3,28.9 51.2,30 C51.2,30.6 51.1,31.2 51.1,31.8 C51.1,32.5 51.1,33.1 51.1,33.9 C51.1,34.6 51.2,35.3 51.2,36.1 C51.2,36.8 51.4,37.6 51.4,38.3 C51.5,39.1 51.6,39.8 51.7,40.5 C51.9,41.2 52,41.9 52.2,42.6 C52.4,43.3 52.6,43.9 52.8,44.5 C53,45.1 53.3,45.7 53.5,46.2 C53.8,46.7 54,47.2 54.2,47.6 C54.4,48 54.6,48.4 54.8,48.6 C55.3,49.4 55.6,49.7 55.6,49.7 Z" fill="#519B3D"/>
                <path d="M4.6,58 C4.6,58 5.2,58.1 6.3,58.3 C6.8,58.4 7.5,58.5 8.2,58.5 C8.9,58.6 9.8,58.7 10.7,58.7 C11.6,58.8 12.6,58.8 13.7,58.8 C14.7,58.8 15.9,58.8 17,58.7 C19.3,58.6 21.7,58.4 24.2,58.1 C26.6,57.9 29.1,57.6 31.4,57.4 C33.7,57.2 35.8,57.1 37.7,57.1 C39.5,57.1 41.1,57.1 42.1,57.1 C43.2,57.1 43.8,57.2 43.8,57.2 C43.8,57.2 43.2,57.2 42.1,57.3 C41.6,57.3 40.9,57.3 40.2,57.4 C39.5,57.4 38.6,57.5 37.7,57.5 C35.9,57.6 33.7,57.8 31.5,58 C29.2,58.2 26.8,58.5 24.3,58.7 C21.9,58.9 19.4,59.1 17.1,59.2 C15.9,59.3 14.8,59.2 13.8,59.2 C12.7,59.1 11.7,59.1 10.8,59 C10.3,59 9.9,58.9 9.5,58.9 C9.1,58.8 8.7,58.8 8.3,58.7 C7.6,58.6 6.9,58.5 6.4,58.3 C5.2,58.2 4.6,58 4.6,58 Z" fill="#519B3D"/>
                <path d="M21.3,70.6 C21.3,70.6 23.9,70.6 27.9,70.7 C29.9,70.7 32.2,70.7 34.7,70.6 C35.9,70.6 37.2,70.5 38.5,70.5 C39.8,70.4 41.1,70.4 42.4,70.1 C43.7,69.9 45,69.7 46.3,69.4 C47.6,69.1 48.8,68.8 49.9,68.4 C52.2,67.7 54.3,66.6 55.9,65.5 C57.5,64.4 58.5,63 59,62 C59.5,61 59.5,60.3 59.5,60.3 C59.5,60.3 59.5,60.5 59.5,60.8 C59.5,61.1 59.4,61.6 59.2,62.1 C59,62.6 58.7,63.3 58.2,63.9 C57.7,64.6 57.1,65.2 56.3,65.9 C54.7,67.2 52.6,68.2 50.2,69 C47.8,69.8 45.2,70.3 42.6,70.6 C40,70.9 37.3,70.9 34.8,70.9 C32.3,70.9 30,70.9 28,70.8 C23.9,70.8 21.3,70.6 21.3,70.6 Z" fill="#519B3D"/>
                <path d="M16.9,31 C16.9,31 16.3,29.8 15.7,27.9 C15.4,27 15,25.8 14.8,24.6 C14.5,23.4 14.2,22.1 14.1,20.8 C14,20.1 13.9,19.5 13.9,18.8 C13.8,18.1 13.8,17.5 13.8,16.9 C13.8,16.3 13.9,15.7 13.9,15.1 C13.9,14.5 14.1,14 14.2,13.5 C14.3,13 14.5,12.6 14.6,12.2 C14.7,12 14.7,11.8 14.8,11.7 C14.9,11.5 15,11.4 15,11.3 C15.3,10.8 15.4,10.5 15.4,10.5 C15.4,10.5 15.3,10.8 15.1,11.3 C15,11.4 15,11.6 14.9,11.7 C14.9,11.9 14.8,12.1 14.8,12.2 C14.7,12.6 14.6,13 14.5,13.5 C14.5,14 14.3,14.5 14.4,15.1 C14.4,15.7 14.4,16.2 14.4,16.9 C14.4,17.5 14.4,18.1 14.5,18.8 C14.5,19.4 14.6,20.1 14.7,20.7 C14.9,22 15.1,23.3 15.4,24.5 C15.7,25.7 15.9,26.8 16.2,27.8 C16.5,29.7 16.9,31 16.9,31 Z" fill="#519B3D"/>
              </g>
            </g>
          </g>
        </g>
      </g>
    </g>
  </g>
</svg>