<svg width="145px" height="136px" viewBox="0 0 145 136" version="1.1" xml:space="preserve" xmlns="http://www.w3.org/2000/svg" xmlns:xlink="http://www.w3.org/1999/xlink">
  <defs/>
  <g>
    <title>keyboard-a</title>
    <desc>Created with Sketch.</desc>
    <g id="music" stroke="none" stroke-width="1" fill="none" fill-rule="evenodd">
      <g id="keyboard-a" fill-rule="nonzero">
        <g id="Group" transform="translate(6.000000, 31.000000)">
          <path d="M117.55,5.20786517 C118.2,5.96629213 118.15,6.92696629 118.35,7.78651685 C118.45,8.19101124 118.5,8.59550562 118.5,9 C118.6,10.4662921 118.7,11.8820225 118.8,13.3483146 C118.85,13.9044944 118.7,14.3595506 118.45,14.8651685 C116.65,18.4550562 114.9,22.0955056 113.05,25.6853933 C111.7,28.2640449 110.45,30.8426966 109.15,33.4719101 C108.35,35.0898876 107.4,36.6573034 106.6,38.2752809 C105.65,40.0955056 104.65,41.9157303 103.8,43.7359551 C103.35,44.6460674 102.7,44.9494382 101.8,45 C101.25,45 100.7,45 100.15,45 C97.5,44.8483146 94.8,44.6966292 92.15,44.5449438 C89.8,44.3932584 87.45,44.1404494 85.1,43.988764 C82.8,43.8370787 80.45,43.7359551 78.15,43.5842697 C74.45,43.3314607 70.75,43.0786517 67.05,42.8258427 C63.85,42.6235955 60.65,42.3707865 57.5,42.1179775 C55.1,41.9157303 52.75,41.7640449 50.35,41.511236 C48.55,41.3089888 46.75,41.258427 44.95,41.1573034 C43.85,41.1067416 42.8,41.005618 41.7,40.9044944 C39.25,40.7022472 36.75,40.5505618 34.3,40.3483146 C30.45,40.0449438 26.55,39.741573 22.7,39.4382022 C18.85,39.1348315 15,38.8314607 11.1,38.5280899 C8.6,38.3258427 6.1,38.1235955 3.6,37.7696629 C1.8,37.5168539 1.75,37.5674157 1.4,35.7977528 C0.95,33.5224719 0.55,31.1966292 0.3,28.8707865 C0.25,28.6179775 0.3,28.3651685 0.2,28.1629213 C-0.15,27.4550562 0.15,26.9494382 0.6,26.3932584 C2.2,24.3707865 3.75,22.3483146 5.3,20.2752809 C6.4,18.8089888 7.6,17.3932584 8.75,15.9269663 C11.65,12.3876404 14.6,8.8988764 17.5,5.35955056 C18.6,4.04494382 19.65,2.67977528 20.85,1.36516854 C21,1.21348315 21.1,1.06179775 21.25,0.91011236 C21.6,0.505617978 22,0.353932584 22.5,0.353932584 C23.95,0.404494382 25.4,0.404494382 26.8,0.45505618 C31.05,0.606741573 35.35,0.758426966 39.6,0.960674157 C44.75,1.21348315 49.9,1.51685393 55.05,1.76966292 C58.3,1.97191011 61.6,2.12359551 64.85,2.3258427 C68.7,2.57865169 72.5,2.83146067 76.35,3.03370787 C81.25,3.33707865 86.15,3.58988764 91.05,3.84269663 C93.95,3.99438202 96.9,4.14606742 99.8,4.29775281 C103.45,4.5 107.15,4.70224719 110.8,4.90449438 C112.3,5.00561798 113.85,5.00561798 115.35,5.05617978 C116,5.05617978 116.75,5.10674157 117.55,5.20786517 Z M116.35,6.16853933 C114.85,6.06741573 113.45,5.96629213 112.05,5.91573034 C108.6,5.76404494 105.2,5.61235955 101.75,5.51123596 C96.9,5.35955056 92.1,5.05617978 87.25,4.75280899 C85.2,4.6011236 83.2,4.5505618 81.15,4.4494382 C77.55,4.24719101 73.95,3.99438202 70.4,3.79213483 C68.2,3.64044944 66,3.53932584 63.8,3.43820225 C59.3,3.18539326 54.8,2.88202247 50.3,2.57865169 C47.85,2.42696629 45.45,2.37640449 43,2.2752809 C40.15,2.12359551 37.35,2.02247191 34.5,1.87078652 C31.5,1.71910112 28.5,1.56741573 25.5,1.46629213 C24.45,1.41573034 23.45,1.21348315 22.35,1.36516854 C22,1.76966292 21.6,2.1741573 21.25,2.62921348 C18.9,5.66292135 16.4,8.54494382 13.95,11.4775281 C10.4,15.6235955 6.95,19.8707865 3.6,24.2191011 C2.95,25.0280899 2.35,25.8876404 1.75,26.6966292 C1.9,26.9494382 2.1,27 2.3,27 C4.4,27.252809 6.5,27.4550562 8.6,27.6573034 C10.55,27.8595506 10.55,27.8595506 11.85,26.2921348 C13.85,23.8651685 15.75,21.2865169 17.85,18.9101124 C18.4,18.252809 18.95,17.8988764 19.8,18 C20,18 20.2,18 20.4,18.0505618 C22.65,18.2022472 24.95,18.3539326 27.2,18.505618 C30.3,18.6573034 33.45,18.7078652 36.55,18.8595506 C39.9,19.011236 43.25,19.1629213 46.6,19.3146067 C48.85,19.4157303 51.05,19.5674157 53.3,19.6685393 C55,19.7696629 56.75,19.9213483 58.45,19.9719101 C61.3,20.1235955 64.1,20.2247191 66.95,20.3258427 C69.5,20.4269663 72.05,20.5786517 74.6,20.7303371 C76.85,20.8820225 79.05,21.0842697 81.3,21.1348315 C84.6,21.2359551 87.9,21.488764 91.25,21.6910112 C93.95,21.8426966 96.65,22.0955056 99.35,22.3483146 C99.7,22.3483146 100,22.4494382 100.25,22.6011236 C100.6,22.8033708 100.75,23.1067416 100.6,23.511236 C100.5,23.8146067 100.35,24.1179775 100.25,24.4213483 C99.85,25.4325843 99.15,26.2921348 98.65,27.252809 C97.55,29.3258427 96.6,31.4494382 95.4,33.4719101 C95.3,33.6235955 95.25,33.7752809 95.35,33.9269663 C96.8,34.1797753 100.25,34.3314607 101.1,34.1797753 C101.9,32.7640449 102.75,31.3483146 103.55,29.9325843 C104.95,27.3033708 106.3,24.6741573 107.7,21.994382 C108.8,19.9213483 109.85,17.8483146 111,15.8258427 C112.45,13.1460674 113.9,10.4662921 115.5,7.83707865 C115.8,7.23033708 116.2,6.8258427 116.35,6.16853933 Z M31.95,19.7696629 C31.4,19.7191011 30.8,19.7191011 30.25,19.6685393 C29.75,19.6179775 29.4,19.7696629 29.1,20.1741573 C28.3,21.2359551 27.45,22.247191 26.75,23.3595506 C26.3,24.0674157 25.75,24.7247191 25.2,25.3820225 C25.05,25.5842697 24.85,25.8370787 24.55,25.8370787 C23.85,25.8370787 23.1,25.9382022 22.45,25.6853933 C22.45,25.0280899 22.45,24.9775281 22.65,24.7247191 C23,24.2191011 23.4,23.6629213 23.8,23.1573034 C24.55,22.1460674 25.3,21.1348315 26.05,20.1741573 C26.15,20.0224719 26.3,19.8707865 26.25,19.5674157 C25.8,19.4662921 25.35,19.4157303 25,19.5168539 C23.9,20.7303371 23.05,21.994382 22.2,23.258427 C21.75,23.9157303 21.2,24.5224719 20.7,25.1292135 C20.55,25.3314607 20.4,25.5337079 20.15,25.5337079 C19.4,25.5842697 18.65,25.6348315 18,25.3820225 C17.85,24.9269663 18.05,24.6741573 18.2,24.4213483 C18.6,23.8146067 19.05,23.258427 19.5,22.6516854 C20.1,21.7921348 20.75,20.9831461 21.4,20.1235955 C21.5,19.9719101 21.6,19.7696629 21.55,19.5168539 C21.2,19.4662921 20.8,19.4662921 20.4,19.3651685 C19.95,19.2134831 19.65,19.4157303 19.35,19.7696629 C18.9,20.3764045 18.4,20.9831461 17.9,21.5393258 C16.6,23.1067416 15.5,24.8764045 14.05,26.3426966 C13.85,26.5449438 13.7,26.7977528 13.7,27.1516854 C14.35,27.3539326 15,27.3539326 15.65,27.4044944 C17.65,27.5561798 19.65,27.6573034 21.65,27.8089888 C24.5,28.011236 27.3,28.2134831 30.15,28.4662921 C33.45,28.7191011 36.75,28.9719101 40.05,29.2247191 C42.1,29.3764045 44.1,29.5280899 46.15,29.6292135 C47.85,29.7303371 49.6,29.8314607 51.3,29.9831461 C52.85,30.0842697 54.4,30.2359551 55.95,30.3370787 C57.8,30.4382022 59.6,30.5393258 61.45,30.6910112 C64.5,30.8932584 67.5,31.1460674 70.55,31.3483146 C72.4,31.5 74.3,31.6011236 76.15,31.7022472 C79.05,31.9044944 81.95,32.1573034 84.85,32.3595506 C86.5,32.511236 88.2,32.6629213 89.85,32.7640449 C91.35,32.8651685 92.85,33.1179775 94.4,33.0168539 C96,30.2359551 97.6,27.505618 99.15,24.7247191 C99.35,24.3707865 99.6,23.9662921 99.6,23.511236 C98.8,23.3595506 98.05,23.3595506 97.35,23.3089888 C96.3,24.3707865 95.5,25.6348315 94.7,26.7977528 C94.2,27.5561798 93.65,28.2134831 93.05,28.8707865 C92.85,29.0730337 92.7,29.3258427 92.35,29.3258427 C91.65,29.3258427 90.9,29.4269663 90.3,29.0730337 C90.2,28.6179775 90.35,28.3146067 90.6,28.011236 C91.05,27.4550562 91.45,26.8483146 91.9,26.2921348 C92.5,25.4831461 93.1,24.6741573 93.7,23.8651685 C93.9,23.6123596 94.05,23.3089888 93.9,23.005618 C93.65,22.8539326 93.35,22.8539326 93.1,22.9550562 C92.05,24.0168539 91.3,25.3314607 90.4,26.494382 C89.9,27.2022472 89.4,27.8595506 88.85,28.5168539 C88.7,28.7191011 88.5,28.9719101 88.2,28.9719101 C87.5,28.9719101 86.75,29.0730337 86.1,28.7696629 C85.95,28.2134831 86.25,27.9101124 86.5,27.5561798 C87.45,26.241573 88.4,24.9775281 89.4,23.6629213 C89.55,23.4101124 89.75,23.2078652 89.8,22.9044944 C89.8,22.8539326 89.75,22.752809 89.7,22.6516854 C89.4,22.6011236 89.1,22.5505618 88.8,22.6516854 C87.75,23.7640449 87,25.0280899 86.1,26.241573 C85.6,26.9494382 85.1,27.6067416 84.55,28.2640449 C84.4,28.4662921 84.2,28.7191011 83.9,28.7191011 C83.2,28.7191011 82.45,28.8202247 81.8,28.5674157 C81.6,28.1629213 81.8,27.8595506 81.95,27.6067416 C82.35,27 82.8,26.4438202 83.25,25.8370787 C83.85,24.9775281 84.5,24.1685393 85.15,23.3089888 C85.35,23.0561798 85.55,22.8033708 85.4,22.3988764 C84.45,22.3483146 83.5,22.2977528 82.6,22.2977528 C81.55,23.4101124 80.75,24.6235955 79.95,25.8370787 C79.45,26.5955056 78.95,27.3033708 78.3,27.9101124 C78.15,28.0617978 77.95,28.3146067 77.75,28.3651685 C76.95,28.4662921 76.2,28.5674157 75.5,28.1123596 C75.45,27.7078652 75.6,27.4044944 75.8,27.1516854 C76.15,26.6460674 76.55,26.0898876 76.95,25.5842697 C77.6,24.7247191 78.25,23.8651685 78.9,22.9550562 C79.05,22.7022472 79.2,22.5 79.2,22.1966292 C78.85,21.994382 78.5,22.0955056 78.2,22.1460674 C77.15,23.2078652 76.4,24.4719101 75.6,25.6348315 C75.1,26.3932584 74.55,27.0505618 73.95,27.7078652 C73.8,27.8595506 73.65,28.1123596 73.4,28.1123596 C72.65,28.1629213 71.9,28.2640449 71.25,27.8595506 C71.15,27.4550562 71.35,27.1516854 71.5,26.8988764 C71.85,26.3932584 72.25,25.8370787 72.65,25.3314607 C73.3,24.4719101 73.95,23.6123596 74.6,22.7022472 C74.75,22.4494382 74.95,22.247191 74.9,21.8426966 C73.6,21.741573 72.25,21.5393258 70.95,21.6404494 C69.9,22.752809 69.1,23.9662921 68.3,25.1797753 C67.8,25.8876404 67.25,26.5955056 66.65,27.252809 C66.45,27.505618 66.2,27.7078652 65.85,27.7078652 C65.2,27.6573034 64.55,27.758427 63.95,27.5561798 C63.9,26.8483146 63.9,26.8483146 64.15,26.5449438 C64.55,25.9382022 65,25.3820225 65.45,24.7752809 C66.1,23.9157303 66.75,23.0561798 67.4,22.1460674 C67.55,21.9438202 67.65,21.741573 67.5,21.488764 C67.05,21.2865169 66.65,21.3370787 66.35,21.7921348 C66.15,22.0449438 65.95,22.2977528 65.75,22.5505618 C65.2,23.3595506 64.65,24.1179775 64.1,24.9269663 C63.6,25.6348315 63.1,26.2921348 62.55,26.8988764 C62.4,27.0505618 62.2,27.3033708 62,27.3539326 C61.2,27.4550562 60.45,27.5561798 59.65,27.0505618 C60.05,25.9382022 60.85,25.1292135 61.5,24.2191011 C62.15,23.3089888 62.9,22.4494382 63.4,21.4382022 C62.9,21.1348315 62.45,21.0842697 62.1,21.5393258 C61.9,21.7921348 61.65,22.0449438 61.5,22.2977528 C60.9,23.1067416 60.35,23.9157303 59.75,24.7752809 C59.25,25.4831461 58.75,26.1404494 58.2,26.747191 C58.05,26.8988764 57.9,27.1516854 57.65,27.1516854 C56.9,27.2022472 56.15,27.3033708 55.5,26.8988764 C55.4,26.5449438 55.5,26.2921348 55.7,26.0393258 C56,25.5842697 56.3,25.1797753 56.6,24.7752809 C57.35,23.7640449 58.15,22.7022472 58.9,21.6910112 C59,21.5393258 59.15,21.3876404 59.05,21.1853933 C58.2,20.9831461 56.05,20.8314607 55.05,20.9325843 C54.05,21.994382 53.25,23.2078652 52.45,24.4213483 C51.85,25.3314607 51.2,26.1910112 50.35,26.8988764 C49.55,26.8988764 48.75,27.0505618 48.05,26.5955056 C48.05,26.4438202 48.05,26.2921348 48.1,26.1910112 C48.15,25.988764 48.25,25.8370787 48.4,25.6348315 C48.75,25.1292135 49.15,24.5730337 49.55,24.0674157 C50.2,23.2078652 50.85,22.3483146 51.5,21.4382022 C51.65,21.1853933 51.8,20.9831461 51.8,20.6797753 C51.45,20.4775281 51.15,20.5280899 50.8,20.5786517 C49.75,21.6404494 49,22.8539326 48.2,24.0674157 C47.7,24.7752809 47.15,25.4831461 46.55,26.1404494 C46.4,26.2921348 46.25,26.5449438 46,26.5449438 C45.25,26.5955056 44.5,26.6966292 43.85,26.2921348 C43.75,25.8876404 43.9,25.5842697 44.1,25.3314607 C44.55,24.7247191 45,24.1179775 45.45,23.511236 C46.05,22.6516854 46.7,21.8426966 47.3,20.9831461 C47.4,20.8314607 47.6,20.5786517 47.4,20.3258427 C46.3,20.2752809 45.2,20.1741573 44.05,20.1235955 C43.45,21.0337079 42.85,21.8932584 42.3,22.752809 C41.6,23.8146067 40.95,24.8258427 40.1,25.7865169 C39.9,25.988764 39.75,26.2921348 39.45,26.3426966 C38.65,26.4438202 37.9,26.5449438 37.2,26.0898876 C37.15,25.5337079 37.45,25.1797753 37.7,24.8258427 C38.65,23.4606742 39.65,22.0449438 40.6,20.6797753 C40.7,20.5280899 40.9,20.3764045 40.75,20.1235955 C40.3,19.9213483 39.95,20.0224719 39.6,20.3764045 C38.8,21.3370787 38.1,22.3988764 37.4,23.4101124 C36.9,24.1685393 36.35,24.8258427 35.8,25.4831461 C35.6,25.6853933 35.45,25.9382022 35.1,25.9382022 C34.4,25.9382022 33.65,26.0393258 33,25.7359551 C32.85,25.1797753 33.15,24.8764045 33.4,24.5224719 C34.35,23.2078652 35.3,21.9438202 36.3,20.6292135 C36.45,20.4269663 36.65,20.1741573 36.65,19.8707865 C36.3,19.7191011 35.95,19.7191011 35.55,19.8707865 C35.25,20.2247191 34.95,20.5786517 34.65,20.9325843 C34.1,21.6910112 33.55,22.5505618 33,23.3089888 C32.5,23.9662921 31.95,24.6235955 31.45,25.2808989 C31.25,25.4831461 31.05,25.6853933 30.75,25.6853933 C30.1,25.6853933 29.4,25.7359551 28.75,25.4831461 C28.55,24.9269663 28.85,24.5730337 29.15,24.2696629 C30.15,22.9550562 31.1,21.6404494 32.1,20.2752809 C31.9,20.2752809 32,20.1235955 31.95,19.7696629 Z M95.15,39.5898876 C94.9,39.5898876 94.7,39.5898876 94.5,39.5898876 C92.85,39.488764 91.25,39.3876404 89.6,39.2865169 C89.5,39.2865169 89.45,39.2865169 89.35,39.2865169 C87.85,38.9831461 86.35,39.0842697 84.85,38.8820225 C83.35,38.7303371 81.85,38.6797753 80.3,38.5786517 C77.5,38.3764045 74.75,38.1235955 71.95,37.9213483 C70.1,37.7696629 68.2,37.7191011 66.35,37.6179775 C66.25,37.6179775 66.1,37.6179775 66,37.6179775 C64.65,37.2640449 63.3,37.4157303 61.95,37.2640449 C60.15,37.0617978 58.3,37.011236 56.45,36.9101124 C56.3,36.9101124 56.15,36.9101124 55.95,36.8595506 C54.4,36.505618 52.75,36.6573034 51.2,36.505618 C49.4,36.3539326 47.55,36.1011236 45.7,36.1516854 C45.55,36.1516854 45.4,36.1516854 45.2,36.1516854 C43.85,35.8483146 42.5,35.9494382 41.15,35.7977528 C39.25,35.5955056 37.35,35.5449438 35.4,35.4438202 C35.3,35.4438202 35.25,35.4438202 35.15,35.4438202 C33.55,35.241573 31.9,35.0898876 30.25,34.988764 C29.1,34.8876404 27.95,34.8876404 26.8,34.7359551 C25.25,34.5337079 23.7,34.5842697 22.15,34.3820225 C20.25,34.1797753 18.35,34.1797753 16.4,34.0280899 C15.4,33.9269663 14.4,33.8258427 13.4,33.8258427 C13.15,33.8258427 12.95,33.7247191 12.7,33.6741573 C12.15,33.6235955 11.85,33.2696629 11.7,32.7640449 C11.5,32.005618 11.35,31.1966292 11.2,30.3876404 C11.1,29.9325843 11.05,29.4269663 10.85,29.0224719 C10.45,28.9213483 10.1,28.8202247 9.75,28.8202247 C8.65,28.7696629 7.5,28.7191011 6.4,28.5674157 C5.2,28.3651685 3.95,28.2640449 2.75,28.1123596 C2.25,28.0617978 1.75,27.9606742 1.2,28.1123596 C1.2,29.1235955 1.5,30.0337079 1.6,30.994382 C1.7,31.9044944 1.95,32.8146067 2.05,33.7247191 C2.15,34.6853933 2.45,35.5955056 2.65,36.505618 C2.9,36.6067416 3.1,36.6573034 3.3,36.7078652 C4.9,36.9101124 6.55,37.0617978 8.15,37.2134831 C9.85,37.3651685 11.55,37.6179775 13.25,37.6685393 C15.5,37.7191011 17.8,37.9719101 20.05,38.1235955 C22.15,38.2752809 24.25,38.4775281 26.35,38.5786517 C27.8,38.6797753 29.3,38.7808989 30.75,38.9325843 C32.35,39.0842697 33.95,39.1348315 35.55,39.2359551 C35.65,39.2359551 35.8,39.2359551 35.9,39.2865169 C37,39.5898876 38.1,39.488764 39.2,39.6404494 C41.2,39.8426966 43.25,39.8932584 45.3,39.994382 C45.45,39.994382 45.6,39.994382 45.8,40.0449438 C47.25,40.1460674 48.65,40.2977528 50.1,40.3988764 C52,40.5505618 53.95,40.6011236 55.85,40.7022472 C55.95,40.7022472 56,40.7022472 56.1,40.7022472 C57.7,40.8539326 59.3,41.005618 60.85,41.1067416 C62.75,41.2078652 64.65,41.3089888 66.6,41.4101124 C66.7,41.4101124 66.75,41.4101124 66.85,41.4101124 C68.4,41.7640449 69.95,41.6629213 71.5,41.7640449 C73.55,41.9662921 75.65,42.1179775 77.7,42.2191011 C79.95,42.3707865 82.15,42.5224719 84.35,42.7247191 C85.55,42.8258427 86.75,42.8764045 87.95,42.9775281 C89.55,43.0786517 91.15,43.2808989 92.7,43.3314607 C93.15,43.3314607 93.6,43.3314607 94,43.3820225 C96.1,43.5842697 98.2,43.7865169 100.3,43.7865169 C100.8,43.7865169 101.3,43.7359551 101.95,43.6853933 C101.7,42.2191011 101.4,40.8539326 101.2,39.4382022 C101,38.0730337 100.9,36.6573034 100.6,35.2921348 C100.35,35.2921348 100.2,35.2921348 100.05,35.2921348 C98.8,35.1910112 97.6,35.2921348 96.35,35.0898876 C95.85,34.988764 95.25,34.8876404 94.7,35.1910112 C94.65,36.6067416 95.25,38.0224719 95.15,39.5898876 Z M93.75,34.2808989 C93.35,34.2303371 93,34.1292135 92.65,34.0786517 C91.2,33.9775281 89.8,33.8764045 88.35,33.7752809 C84.75,33.5224719 81.2,33.2696629 77.6,33.0168539 C75.4,32.8651685 73.2,32.7134831 71.05,32.5617978 C69.4,32.4606742 67.8,32.3595506 66.15,32.258427 C63.35,32.0561798 60.6,31.8539326 57.8,31.6516854 C56.1,31.5505618 54.35,31.4494382 52.65,31.2977528 C49.05,31.0449438 45.5,30.7921348 41.9,30.5393258 C38.75,30.2865169 35.6,30.0842697 32.45,29.8314607 C28.85,29.5280899 25.2,29.2247191 21.6,28.9719101 C19.55,28.8202247 17.45,28.6685393 15.4,28.5168539 C14.7,28.4662921 14,28.4157303 13.2,28.4662921 C13.3,29.6797753 13.6,30.7921348 13.8,31.9044944 C14,31.9550562 14.1,32.005618 14.2,32.005618 C16.85,32.2078652 19.55,32.4101124 22.2,32.6123596 C24.85,32.8146067 27.55,32.9662921 30.2,33.1685393 C33.25,33.3707865 36.25,33.6235955 39.3,33.8764045 C40.7,33.9775281 42.1,34.0786517 43.5,34.1797753 C46.2,34.3820225 48.9,34.5842697 51.6,34.7865169 C53.15,34.8876404 54.7,34.988764 56.25,35.0898876 C59.35,35.2921348 62.45,35.5449438 65.55,35.7977528 C67,35.8988764 68.5,36 69.95,36.1011236 C72.6,36.3033708 75.2,36.505618 77.85,36.7078652 C80.6,36.9101124 83.35,37.0617978 86.1,37.2640449 C87.7,37.3651685 89.3,37.5168539 90.9,37.6685393 C91.9,37.7191011 92.95,37.7696629 93.95,37.8202247 C94,36.5561798 93.55,35.5449438 93.75,34.2808989 Z M116.8,7.78651685 C116.65,8.03932584 116.5,8.19101124 116.4,8.34269663 C113.95,12.4382022 111.75,16.5842697 109.55,20.7808989 C107.25,25.1292135 105.15,29.5280899 102.55,33.7247191 C102,34.5842697 101.7,35.4438202 101.95,36.5561798 C102.35,38.2247191 102.5,39.994382 102.75,41.7134831 C102.8,42.0168539 102.9,42.2696629 103.1,42.6235955 C103.25,42.4213483 103.35,42.2696629 103.45,42.1685393 C104.2,40.6516854 105,39.1853933 105.75,37.6685393 C107.5,34.0786517 109.3,30.5393258 111.2,27.0505618 C111.95,25.6853933 112.7,24.3707865 113.35,23.005618 C114.55,20.4269663 116,17.9494382 117.1,15.3202247 C117.45,14.4606742 117.75,13.6516854 117.6,12.741573 C117.4,11.2247191 117.2,9.70786517 117,8.19101124 C117,7.98876404 116.95,7.93820225 116.8,7.78651685 Z" id="Shape" fill="#000000"/>
          <path d="M116.35,6.16853933 C116.2,6.8258427 115.8,7.28089888 115.5,7.73595506 C113.9,10.3651685 112.45,13.0449438 111,15.7247191 C109.9,17.7977528 108.8,19.8202247 107.7,21.8932584 C106.3,24.5224719 104.95,27.2022472 103.55,29.8314607 C102.75,31.2977528 101.9,32.7134831 101.1,34.0786517 C100.25,34.2303371 96.8,34.0786517 95.35,33.8258427 C95.25,33.6741573 95.3,33.5224719 95.4,33.3707865 C96.6,31.3483146 97.55,29.2247191 98.65,27.1516854 C99.15,26.1910112 99.85,25.3314607 100.25,24.3202247 C100.35,24.0168539 100.5,23.7134831 100.6,23.4101124 C100.75,23.005618 100.6,22.7022472 100.25,22.5 C99.95,22.3483146 99.65,22.2977528 99.35,22.247191 C96.65,22.0449438 93.95,21.7921348 91.25,21.5898876 C87.95,21.3876404 84.65,21.1348315 81.3,21.0337079 C79.05,20.9831461 76.85,20.7303371 74.6,20.6292135 C72.05,20.4775281 69.5,20.3258427 66.95,20.2247191 C64.1,20.0730337 61.3,19.9719101 58.45,19.8707865 C56.75,19.7696629 55,19.6685393 53.3,19.5674157 C51.05,19.4157303 48.85,19.3146067 46.6,19.2134831 C43.25,19.0617978 39.9,18.9101124 36.55,18.758427 C33.45,18.6067416 30.3,18.5561798 27.2,18.4044944 C24.95,18.3033708 22.65,18.1011236 20.4,17.9494382 C20.2,17.9494382 20,17.9494382 19.8,17.8988764 C18.95,17.7977528 18.45,18.1516854 17.85,18.8089888 C15.75,21.1853933 13.9,23.7640449 11.85,26.1910112 C10.55,27.758427 10.55,27.758427 8.6,27.5561798 C6.5,27.3539326 4.4,27.1011236 2.3,26.8988764 C2.1,26.8988764 1.9,26.8483146 1.75,26.5955056 C2.35,25.7865169 2.95,24.9269663 3.6,24.1179775 C6.95,19.8202247 10.4,15.5224719 13.95,11.3764045 C16.45,8.44382022 18.9,5.56179775 21.25,2.52808989 C21.6,2.07303371 22,1.66853933 22.35,1.26404494 C23.4,1.11235955 24.45,1.31460674 25.5,1.36516854 C28.5,1.46629213 31.5,1.61797753 34.5,1.76966292 C37.35,1.92134831 40.15,2.02247191 43,2.1741573 C45.45,2.2752809 47.85,2.37640449 50.3,2.47752809 C54.8,2.73033708 59.3,3.03370787 63.8,3.33707865 C66,3.48876404 68.2,3.58988764 70.4,3.69101124 C74,3.89325843 77.6,4.14606742 81.15,4.34831461 C83.2,4.4494382 85.2,4.5505618 87.25,4.65168539 C92.1,4.95505618 96.9,5.25842697 101.75,5.41011236 C105.2,5.51123596 108.6,5.66292135 112.05,5.81460674 C113.45,5.96629213 114.85,6.06741573 116.35,6.16853933 Z M80.2,5.81460674 C80.05,5.51123596 79.9,5.30898876 79.65,5.30898876 C79.2,5.25842697 78.8,5.20786517 78.35,5.15730337 C76.9,5.10674157 75.5,5.10674157 74.05,5.00561798 C71.9,4.90449438 69.75,4.80337079 67.6,4.70224719 C64.8,4.6011236 62,4.5 59.25,4.3988764 C56.7,4.29775281 54.15,4.24719101 51.6,4.14606742 C51.3,4.14606742 50.95,4.09550562 50.65,4.24719101 C49.7,5.51123596 48.8,6.87640449 48,8.24157303 C47.05,9.75842697 46.15,11.2752809 45.3,12.7921348 C44.75,13.752809 44.05,14.6629213 43.7,15.7247191 C43.6,15.9269663 43.45,16.1797753 43.7,16.4831461 C44,16.7359551 44.45,16.7359551 44.85,16.7865169 C46.75,16.9382022 48.65,17.0898876 50.55,17.2921348 C53.35,17.6460674 56.1,17.747191 58.9,17.8483146 C62.55,18.0505618 66.25,18.1011236 69.9,18.252809 C70.2,18.252809 70.55,18.3033708 70.85,18.3033708 C71.5,18.3539326 72.15,18.3539326 72.75,18.3539326 C73.2,18.3539326 73.5,18.2022472 73.65,17.747191 C73.75,17.3932584 73.95,17.0898876 74.1,16.7865169 C75.05,14.8651685 76.2,13.0955056 77.3,11.2752809 C78.35,9.55617978 79.25,7.63483146 80.2,5.81460674 Z M15.3,18.5561798 C15.15,18.3033708 15,18.252809 14.85,18.252809 C14.15,18.2022472 13.4,18.2022472 12.7,18.0505618 C11.85,17.8988764 11.25,18.252809 10.75,18.9101124 C9.3,20.7808989 7.85,22.6516854 6.4,24.5224719 C6.25,24.7247191 6.05,24.9775281 6.15,25.3314607 C6.5,25.6348315 6.95,25.6853933 7.45,25.7359551 C8,25.7865169 8.55,25.7865169 9.1,25.8876404 C9.75,25.988764 10.2,25.8370787 10.6,25.2303371 C12,23.3089888 13.25,21.2865169 14.75,19.4662921 C15,19.2134831 15.25,18.9101124 15.3,18.5561798 Z M35.85,16.2303371 C36.4,16.2808989 36.9,16.0786517 37.35,15.8764045 C38.45,15.3202247 38.7,13.9044944 37.85,13.0449438 C36.75,11.9325843 34.15,12.488764 33.6,14.005618 C33.3,14.9157303 33.65,15.7247191 34.55,16.0280899 C35,16.1797753 35.45,16.2808989 35.85,16.2303371 Z M38.25,11.6797753 C39,11.6797753 39.8,11.3764045 40.25,10.9719101 C41.1,10.2134831 41.05,9.15168539 40.15,8.49438202 C40,8.39325843 39.85,8.34269663 39.75,8.29213483 C38.9,7.93820225 38.05,8.08988764 37.2,8.34269663 C36.6,8.54494382 36.1,9.30337079 36.1,9.96067416 C36.1,10.6179775 36.4,11.1235955 37,11.3764045 C37.4,11.5280899 37.8,11.7303371 38.25,11.6797753 Z M19.45,11.6292135 C18.65,11.6292135 18,11.8314607 17.55,12.1853933 C16.6,12.994382 16.7,14.3089888 17.85,14.8651685 C18.6,15.2191011 19.45,15.3202247 20.3,14.9157303 C21.15,14.5617978 21.6,13.6011236 21.4,12.741573 C21.25,12.1348315 20.55,11.6797753 19.75,11.6292135 C19.65,11.6292135 19.55,11.6292135 19.45,11.6292135 Z M27.75,15.3707865 C28.6,15.4719101 29.3,15.1685393 29.85,14.511236 C30.45,13.8033708 30.4,12.994382 29.65,12.4382022 C28.5,11.5280899 26.4,11.9831461 25.7,13.2977528 C25.4,13.8539326 25.45,14.258427 25.9,14.7134831 C26.4,15.1685393 27,15.4719101 27.75,15.3707865 Z M27.7,4.24719101 C27.7,3.58988764 27.5,3.18539326 27.05,2.93258427 C26.35,2.47752809 24.35,2.67977528 23.7,3.43820225 C23,4.19662921 23.1,5.25842697 24,5.76404494 C24.95,6.26966292 26.35,6.11797753 27.1,5.35955056 C27.4,5.00561798 27.7,4.65168539 27.7,4.24719101 Z M21.5,10.5168539 C22.35,10.5168539 23.35,10.1629213 23.85,9.75842697 C24.4,9.30337079 24.5,8.39325843 24,7.83707865 C23,6.6741573 20.65,6.8258427 19.75,8.54494382 C19.45,9.1011236 19.65,9.75842697 20.2,10.1123596 C20.65,10.4662921 21.15,10.5168539 21.5,10.5168539 Z M40.9,7.02808989 C41.45,6.92696629 41.95,6.92696629 42.45,6.7247191 C43.65,6.32022472 43.85,4.90449438 42.9,4.09550562 C42.65,3.89325843 42.35,3.74157303 42.05,3.69101124 C41.3,3.58988764 40.6,3.69101124 39.95,3.94382022 C39.65,4.04494382 39.4,4.29775281 39.2,4.5505618 C38.75,5.15730337 38.8,5.91573034 39.4,6.42134831 C39.85,6.7752809 40.4,6.92696629 40.9,7.02808989 Z M33,6.62359551 C33.75,6.6741573 34.4,6.37078652 34.9,5.71348315 C35.45,5.00561798 35.35,4.3988764 34.7,3.79213483 C34.45,3.58988764 34.2,3.43820225 33.85,3.33707865 C32.95,3.13483146 32.1,3.38764045 31.35,3.89325843 C31.2,3.99438202 31.05,4.19662921 30.95,4.34831461 C30.55,5.00561798 30.65,5.56179775 31.2,6.06741573 C31.75,6.57303371 32.3,6.6741573 33,6.62359551 Z M30.65,7.48314607 C29.85,7.43258427 29.2,7.68539326 28.6,8.29213483 C27.8,9.1011236 28,10.2134831 29.05,10.6685393 C30.15,11.1741573 31.65,10.8202247 32.4,9.85955056 C32.95,9.15168539 32.8,8.24157303 32,7.83707865 C31.6,7.58426966 31.15,7.48314607 30.65,7.48314607 Z M78.75,15.7752809 C78.95,16.2303371 79.35,16.2808989 79.75,16.3314607 C81.25,16.4831461 82.75,16.5337079 84.3,16.5337079 C84.65,16.5337079 85.05,16.5337079 85.3,16.1797753 C85.25,15.8258427 85.05,15.6741573 84.7,15.5730337 C84.25,15.4213483 83.85,15.5224719 83.4,15.4719101 C82.15,15.3707865 80.95,15.3707865 79.7,15.3707865 C79.3,15.3202247 78.95,15.3707865 78.75,15.7752809 Z M95.8,13.9550562 C95.75,13.6011236 95.55,13.4494382 95.2,13.3483146 C94.75,13.1966292 94.35,13.2977528 93.9,13.247191 C92.65,13.1460674 91.45,13.1460674 90.2,13.1460674 C89.85,13.1460674 89.5,13.1966292 89.3,13.6011236 C89.5,14.0561798 89.9,14.1067416 90.3,14.1573034 C91.8,14.3089888 93.3,14.3595506 94.85,14.3595506 C95.2,14.3595506 95.55,14.3089888 95.8,13.9550562 Z M107.25,11.5786517 C107.3,11.3258427 107.25,11.1235955 107.05,11.0224719 C106.75,10.8707865 106.45,10.7696629 106.15,10.7696629 C104.75,10.7191011 103.35,10.6179775 102,10.5168539 C101.7,10.5168539 101.35,10.4662921 101.05,10.6179775 C100.85,10.7191011 100.65,10.7696629 100.65,11.0224719 C100.75,11.3258427 101,11.3764045 101.3,11.4269663 C102.85,11.7303371 104.45,11.6292135 106.05,11.8314607 C106.45,11.9325843 106.85,11.7808989 107.25,11.5786517 Z M94.75,16.6853933 C94.8,16.3314607 94.65,16.1797753 94.45,16.0786517 C94.05,15.8764045 93.6,15.8764045 93.15,15.8258427 C92.05,15.7752809 90.9,15.7752809 89.8,15.6235955 C89.4,15.5730337 89,15.6235955 88.6,15.6741573 C88.4,15.7247191 88.1,15.7752809 88.05,16.0786517 C88.15,16.4831461 88.45,16.4831461 88.75,16.5337079 C90.3,16.8370787 91.85,16.7359551 93.4,16.9382022 C93.95,17.0393258 94.35,16.8876404 94.75,16.6853933 Z M85.7,13.8539326 C86.05,13.8539326 86.3,13.8033708 86.6,13.8033708 C86.75,13.8033708 86.9,13.6516854 86.9,13.5 C86.9,13.3483146 86.8,13.1966292 86.65,13.1460674 C86.15,12.8932584 85.6,12.7921348 85.05,12.741573 C83.8,12.6910112 82.6,12.6404494 81.35,12.488764 C81.1,12.4382022 80.85,12.488764 80.65,12.5393258 C80.55,12.5393258 80.45,12.6910112 80.4,12.7921348 C80.35,12.9438202 80.4,13.0955056 80.55,13.1966292 C80.75,13.3483146 81,13.3988764 81.2,13.4494382 C82.75,13.6011236 84.25,13.752809 85.7,13.8539326 Z M108.25,8.59550562 C108.05,8.19101124 107.75,8.08988764 107.45,8.08988764 C105.8,7.98876404 104.1,7.88764045 102.45,7.83707865 C102.25,7.83707865 102.05,7.88764045 101.85,7.93820225 C101.7,7.98876404 101.55,8.08988764 101.55,8.29213483 C101.55,8.49438202 101.7,8.59550562 101.85,8.64606742 C102.15,8.74719101 102.45,8.79775281 102.8,8.84831461 C103.65,8.9494382 104.55,9 105.4,9.0505618 C106.05,9.1011236 106.65,9.1011236 107.3,9.1011236 C107.65,9.0505618 108.05,9 108.25,8.59550562 Z M97.95,10.7191011 C97.65,10.2640449 97.2,10.2134831 96.75,10.1629213 C95.9,10.1123596 95.1,10.011236 94.25,10.011236 C93.6,9.96067416 92.9,9.96067416 92.25,9.96067416 C91.95,9.96067416 91.7,9.96067416 91.45,10.1123596 C91.35,10.1629213 91.25,10.3146067 91.25,10.3651685 C91.25,10.4662921 91.35,10.6179775 91.4,10.6685393 C91.7,10.7696629 92,10.8707865 92.3,10.9213483 C93.2,11.0224719 94.1,11.1235955 95,11.1741573 C95.65,11.2247191 96.25,11.2247191 96.9,11.2247191 C97.35,11.2247191 97.7,11.2247191 97.95,10.7191011 Z M104.2,17.2921348 C103.6,16.8370787 103.6,16.7865169 103.1,16.7865169 C102.45,16.7359551 101.85,16.7865169 101.2,16.6853933 C100.35,16.5842697 99.45,16.5337079 98.6,16.5337079 C98.35,16.5337079 98.05,16.5842697 97.8,16.6348315 C97.65,16.6853933 97.5,16.7865169 97.5,16.988764 C97.5,17.1910112 97.65,17.2921348 97.8,17.3426966 C98.05,17.3932584 98.35,17.494382 98.6,17.5449438 C99.5,17.6460674 100.4,17.6966292 101.3,17.7977528 C101.95,17.8483146 102.55,17.8483146 103.2,17.8483146 C103.6,17.747191 103.95,17.747191 104.2,17.2921348 Z M98.9,14.1573034 C99.25,14.511236 99.65,14.5617978 100.05,14.5617978 C101.45,14.6629213 102.9,14.7640449 104.3,14.8651685 C104.55,14.8651685 104.85,14.8651685 105.15,14.8146067 C105.4,14.7640449 105.6,14.6629213 105.55,14.3595506 C104.95,13.9550562 104.95,13.9550562 104.4,13.9044944 C103.6,13.8539326 102.8,13.752809 102.05,13.752809 C101.25,13.7022472 100.45,13.7022472 99.65,13.7022472 C99.35,13.6011236 99,13.6516854 98.9,14.1573034 Z M83.6,6.97752809 C83.5,7.23033708 83.5,7.48314607 83.8,7.58426966 C84.05,7.68539326 84.3,7.78651685 84.6,7.83707865 C86.15,7.98876404 87.7,8.08988764 89.25,8.19101124 C89.5,8.19101124 89.8,8.19101124 90.05,7.98876404 C90.1,7.78651685 90.05,7.58426966 89.85,7.48314607 C89.5,7.28089888 89.1,7.17977528 88.7,7.12921348 C87.25,7.02808989 85.75,6.92696629 84.3,6.8258427 C84.05,6.7247191 83.8,6.7752809 83.6,6.97752809 Z M92.45,7.78651685 C92.5,8.03932584 92.6,8.19101124 92.75,8.24157303 C93.1,8.39325843 93.5,8.49438202 93.9,8.49438202 C95.25,8.54494382 96.6,8.54494382 97.95,8.59550562 C98.2,8.59550562 98.45,8.54494382 98.65,8.49438202 C98.75,8.49438202 98.85,8.34269663 98.9,8.24157303 C99,8.08988764 98.9,7.93820225 98.75,7.83707865 C98.4,7.58426966 98.05,7.53370787 97.6,7.53370787 C96.25,7.48314607 94.9,7.43258427 93.55,7.38202247 C93.15,7.43258427 92.8,7.48314607 92.45,7.78651685 Z M81.8,10.0617978 C82.2,10.6179775 82.75,10.6685393 83.25,10.7191011 C84.65,10.7696629 86,10.7696629 87.4,10.8202247 C87.65,10.8202247 87.85,10.7696629 88.1,10.7191011 C88.2,10.6685393 88.3,10.5674157 88.3,10.4662921 C88.3,10.3651685 88.25,10.2134831 88.2,10.1629213 C87.9,9.85955056 87.5,9.85955056 87.1,9.80898876 C85.7,9.75842697 84.3,9.85955056 82.95,9.65730337 C82.55,9.55617978 82.2,9.65730337 81.8,10.0617978 Z" id="Shape" fill="#87D7DC"/>
          <path d="M31.95,19.7696629 C32,20.1235955 31.9,20.2752809 31.75,20.4775281 C30.75,21.7921348 29.8,23.1067416 28.8,24.4719101 C28.55,24.8258427 28.2,25.1797753 28.4,25.6853933 C29.05,25.9382022 29.7,25.8370787 30.4,25.8876404 C30.7,25.8876404 30.95,25.7359551 31.1,25.4831461 C31.65,24.8258427 32.15,24.1685393 32.65,23.511236 C33.2,22.752809 33.75,21.9438202 34.3,21.1348315 C34.6,20.7303371 34.9,20.3764045 35.2,20.0730337 C35.6,19.9719101 35.95,19.9213483 36.3,20.0730337 C36.3,20.3764045 36.15,20.5786517 35.95,20.8314607 C35,22.0955056 34.05,23.4101124 33.05,24.7247191 C32.8,25.0786517 32.5,25.4325843 32.65,25.9382022 C33.35,26.1910112 34.05,26.1404494 34.75,26.1404494 C35.05,26.1404494 35.25,25.8876404 35.45,25.6853933 C36.05,25.0280899 36.6,24.3202247 37.05,23.6123596 C37.75,22.6011236 38.45,21.5393258 39.25,20.5786517 C39.6,20.1741573 39.95,20.1235955 40.4,20.3258427 C40.5,20.5786517 40.35,20.7303371 40.25,20.8820225 C39.3,22.247191 38.3,23.6629213 37.35,25.0280899 C37.1,25.3820225 36.8,25.7359551 36.85,26.2921348 C37.55,26.747191 38.35,26.6460674 39.1,26.5449438 C39.4,26.494382 39.55,26.1910112 39.75,25.988764 C40.6,25.0786517 41.3,24.0168539 41.95,22.9550562 C42.5,22.0955056 43.1,21.2359551 43.7,20.3258427 C44.85,20.3764045 45.95,20.4775281 47.05,20.5280899 C47.25,20.8314607 47.05,21.0337079 46.95,21.1853933 C46.35,22.0449438 45.7,22.8539326 45.1,23.7134831 C44.65,24.3202247 44.2,24.9269663 43.75,25.5337079 C43.55,25.7865169 43.4,26.0898876 43.5,26.494382 C44.15,26.8988764 44.95,26.7977528 45.65,26.747191 C45.9,26.747191 46.05,26.494382 46.2,26.3426966 C46.8,25.6853933 47.35,24.9775281 47.85,24.2696629 C48.65,23.0561798 49.45,21.8426966 50.45,20.7808989 C50.8,20.6797753 51.1,20.6797753 51.45,20.8820225 C51.45,21.1853933 51.3,21.4382022 51.15,21.6404494 C50.5,22.5 49.85,23.3595506 49.2,24.2696629 C48.8,24.7752809 48.45,25.2808989 48.05,25.8370787 C47.95,25.988764 47.85,26.1910112 47.75,26.3932584 C47.7,26.494382 47.75,26.6460674 47.7,26.7977528 C48.45,27.252809 49.25,27.1011236 50,27.1011236 C50.85,26.3932584 51.45,25.4831461 52.1,24.6235955 C52.9,23.4101124 53.7,22.1966292 54.7,21.1348315 C55.7,21.0337079 57.85,21.1348315 58.7,21.3876404 C58.8,21.5898876 58.7,21.741573 58.55,21.8932584 C57.8,22.9044944 57,23.9662921 56.25,24.9775281 C55.95,25.3820225 55.65,25.8370787 55.35,26.241573 C55.2,26.494382 55.05,26.747191 55.15,27.1011236 C55.8,27.4550562 56.6,27.4044944 57.3,27.3539326 C57.55,27.3539326 57.7,27.1011236 57.85,26.9494382 C58.45,26.3426966 58.95,25.6853933 59.4,24.9775281 C59.95,24.1685393 60.55,23.3089888 61.15,22.5 C61.35,22.247191 61.55,21.994382 61.75,21.741573 C62.15,21.2865169 62.55,21.3370787 63.05,21.6404494 C62.5,22.7022472 61.8,23.5617978 61.15,24.4213483 C60.5,25.3314607 59.7,26.1404494 59.3,27.252809 C60.1,27.758427 60.9,27.6573034 61.65,27.5561798 C61.85,27.5561798 62.05,27.3033708 62.2,27.1011236 C62.8,26.494382 63.3,25.7865169 63.75,25.1292135 C64.3,24.3202247 64.85,23.5617978 65.4,22.752809 C65.6,22.5 65.8,22.247191 66,21.994382 C66.3,21.5898876 66.7,21.5393258 67.15,21.6910112 C67.35,21.9438202 67.2,22.1460674 67.05,22.3483146 C66.4,23.2078652 65.75,24.1179775 65.1,24.9775281 C64.65,25.5842697 64.25,26.1404494 63.8,26.747191 C63.55,27.1011236 63.6,27.1011236 63.6,27.758427 C64.2,27.9606742 64.85,27.9101124 65.5,27.9101124 C65.85,27.9101124 66.1,27.7078652 66.3,27.4550562 C66.9,26.7977528 67.45,26.0898876 67.95,25.3820225 C68.75,24.1685393 69.55,22.9550562 70.6,21.8426966 C71.9,21.741573 73.2,21.9438202 74.55,22.0449438 C74.55,22.4494382 74.4,22.7022472 74.25,22.9044944 C73.6,23.7640449 72.95,24.6235955 72.3,25.5337079 C71.9,26.0393258 71.55,26.5449438 71.15,27.1011236 C70.95,27.3539326 70.8,27.6573034 70.9,28.0617978 C71.55,28.4662921 72.35,28.3651685 73.05,28.3146067 C73.3,28.3146067 73.45,28.0617978 73.6,27.9101124 C74.2,27.252809 74.75,26.5449438 75.25,25.8370787 C76.05,24.6235955 76.85,23.4101124 77.85,22.3483146 C78.15,22.2977528 78.5,22.1966292 78.85,22.3988764 C78.85,22.7022472 78.7,22.9550562 78.55,23.1573034 C77.9,24.0168539 77.25,24.8764045 76.6,25.7865169 C76.2,26.2921348 75.85,26.7977528 75.45,27.3539326 C75.25,27.6067416 75.1,27.9101124 75.15,28.3146067 C75.85,28.7696629 76.65,28.6685393 77.4,28.5674157 C77.6,28.5674157 77.8,28.3146067 77.95,28.1123596 C78.55,27.4550562 79.1,26.747191 79.6,26.0393258 C80.4,24.8258427 81.2,23.6123596 82.25,22.5 C83.15,22.5505618 84.1,22.6011236 85.05,22.6011236 C85.2,23.005618 84.95,23.258427 84.8,23.511236 C84.2,24.3707865 83.55,25.1797753 82.9,26.0393258 C82.45,26.5955056 82.05,27.2022472 81.6,27.8089888 C81.4,28.0617978 81.25,28.3651685 81.45,28.7696629 C82.1,29.0224719 82.8,28.9719101 83.55,28.9213483 C83.85,28.9213483 84.05,28.6685393 84.2,28.4662921 C84.75,27.8089888 85.25,27.1516854 85.75,26.4438202 C86.6,25.2303371 87.4,23.9662921 88.45,22.8539326 C88.75,22.752809 89.05,22.8033708 89.35,22.8539326 C89.4,22.9550562 89.45,23.0561798 89.45,23.1067416 C89.4,23.4101124 89.25,23.6123596 89.05,23.8651685 C88.1,25.1292135 87.15,26.4438202 86.15,27.758427 C85.9,28.1123596 85.6,28.4662921 85.75,28.9719101 C86.45,29.2247191 87.15,29.1741573 87.85,29.1741573 C88.15,29.1741573 88.35,28.9213483 88.5,28.7191011 C89.05,28.0617978 89.55,27.4044944 90.05,26.6966292 C90.9,25.4831461 91.7,24.2191011 92.75,23.1573034 C93,23.0561798 93.3,23.0561798 93.55,23.2078652 C93.7,23.5617978 93.5,23.8146067 93.35,24.0674157 C92.75,24.8764045 92.15,25.6853933 91.55,26.494382 C91.1,27.0505618 90.7,27.6573034 90.25,28.2134831 C90.05,28.5168539 89.85,28.8202247 89.95,29.2752809 C90.6,29.6292135 91.3,29.5280899 92,29.5280899 C92.3,29.5280899 92.5,29.2752809 92.7,29.0730337 C93.3,28.4157303 93.85,27.7078652 94.35,27 C95.15,25.7865169 95.95,24.5730337 97,23.511236 C97.7,23.5617978 98.45,23.511236 99.25,23.7134831 C99.25,24.2191011 99,24.5730337 98.8,24.9269663 C97.25,27.7078652 95.65,30.4382022 94.05,33.2191011 C92.5,33.3202247 91,33.0168539 89.5,32.9662921 C87.85,32.8651685 86.15,32.7134831 84.5,32.5617978 C81.6,32.3595506 78.7,32.1067416 75.8,31.9044944 C73.95,31.752809 72.05,31.6516854 70.2,31.5505618 C67.15,31.3483146 64.15,31.0955056 61.1,30.8932584 C59.25,30.7921348 57.45,30.6910112 55.6,30.5393258 C54.05,30.4382022 52.5,30.2865169 50.95,30.1853933 C49.25,30.0842697 47.5,29.9831461 45.8,29.8314607 C43.75,29.6797753 41.75,29.5786517 39.7,29.4269663 C36.4,29.1741573 33.1,28.9213483 29.8,28.6685393 C26.95,28.4662921 24.15,28.2134831 21.3,28.011236 C19.3,27.8595506 17.3,27.758427 15.3,27.6067416 C14.65,27.5561798 13.95,27.5561798 13.35,27.3539326 C13.35,27 13.5,26.747191 13.7,26.5449438 C15.15,25.0786517 16.3,23.3595506 17.55,21.741573 C18.05,21.1348315 18.5,20.5786517 19,19.9719101 C19.25,19.6179775 19.55,19.4157303 20.05,19.5674157 C20.4,19.6685393 20.8,19.6685393 21.2,19.7191011 C21.25,19.9719101 21.2,20.1741573 21.05,20.3258427 C20.4,21.1853933 19.8,21.994382 19.15,22.8539326 C18.7,23.4101124 18.3,24.0168539 17.85,24.6235955 C17.65,24.8764045 17.5,25.1797753 17.65,25.5842697 C18.3,25.8370787 19.05,25.7865169 19.8,25.7359551 C20.05,25.7359551 20.2,25.5337079 20.35,25.3314607 C20.85,24.7247191 21.4,24.1179775 21.85,23.4606742 C22.75,22.1966292 23.55,20.8820225 24.65,19.7191011 C25,19.6179775 25.45,19.6685393 25.9,19.7696629 C26,20.0730337 25.85,20.2247191 25.7,20.3764045 C24.95,21.3876404 24.2,22.3988764 23.45,23.3595506 C23.05,23.8651685 22.7,24.3707865 22.3,24.9269663 C22.1,25.1797753 22.15,25.1797753 22.1,25.8876404 C22.8,26.1404494 23.5,26.0898876 24.2,26.0393258 C24.5,26.0393258 24.7,25.7865169 24.85,25.5842697 C25.4,24.9269663 25.9,24.2696629 26.4,23.5617978 C27.15,22.4494382 27.95,21.3876404 28.75,20.3764045 C29.05,19.9719101 29.4,19.8202247 29.9,19.8707865 C30.85,19.6685393 31.4,19.7191011 31.95,19.7696629 Z" id="Shape" fill="#FFFFFF"/>
          <path d="M95.15,39.5898876 C95.25,38.0224719 94.7,36.6067416 94.9,35.1404494 C95.45,34.8370787 96,34.988764 96.55,35.0393258 C97.8,35.241573 99,35.1404494 100.25,35.241573 C100.4,35.241573 100.55,35.241573 100.8,35.241573 C101.1,36.6573034 101.25,38.0224719 101.4,39.3876404 C101.6,40.752809 101.85,42.1179775 102.15,43.6348315 C101.55,43.6853933 101.05,43.6853933 100.5,43.7359551 C98.4,43.7359551 96.3,43.5337079 94.2,43.3314607 C93.75,43.2808989 93.3,43.2808989 92.9,43.2808989 C91.3,43.2303371 89.7,43.0280899 88.15,42.9269663 C86.95,42.8764045 85.75,42.8258427 84.55,42.6741573 C82.35,42.4719101 80.1,42.3202247 77.9,42.1685393 C75.85,42.0168539 73.75,41.8651685 71.7,41.7134831 C70.15,41.5617978 68.6,41.6629213 67.05,41.3595506 C66.95,41.3595506 66.9,41.3595506 66.8,41.3595506 C64.9,41.258427 62.95,41.1573034 61.05,41.0561798 C59.45,40.9550562 57.85,40.8033708 56.3,40.6516854 C56.2,40.6516854 56.15,40.6516854 56.05,40.6516854 C54.15,40.5505618 52.2,40.4494382 50.3,40.3483146 C48.85,40.247191 47.45,40.0955056 46,39.994382 C45.85,39.994382 45.7,39.994382 45.5,39.9438202 C43.45,39.8426966 41.45,39.7921348 39.4,39.5898876 C38.3,39.488764 37.15,39.5393258 36.1,39.2359551 C36,39.1853933 35.85,39.2359551 35.75,39.1853933 C34.15,39.0842697 32.55,39.0337079 30.95,38.8820225 C29.5,38.7303371 28,38.6292135 26.55,38.5280899 C24.45,38.3764045 22.35,38.1741573 20.25,38.0730337 C18,37.9213483 15.75,37.7191011 13.45,37.6179775 C11.75,37.5674157 10.05,37.3651685 8.35,37.1629213 C6.7,37.011236 5.1,36.8089888 3.5,36.6573034 C3.3,36.6573034 3.1,36.5561798 2.85,36.4550562 C2.65,35.5449438 2.4,34.6348315 2.25,33.6741573 C2.15,32.7640449 1.9,31.8539326 1.8,30.9438202 C1.7,29.9831461 1.35,29.0730337 1.4,28.0617978 C1.95,27.9101124 2.45,28.011236 2.95,28.0617978 C4.2,28.2134831 5.4,28.3651685 6.6,28.5168539 C7.7,28.6685393 8.8,28.7191011 9.95,28.7696629 C10.3,28.7696629 10.65,28.9213483 11.05,28.9719101 C11.25,29.4269663 11.35,29.8820225 11.4,30.3370787 C11.55,31.1460674 11.7,31.9044944 11.9,32.7134831 C12,33.2191011 12.3,33.5730337 12.9,33.6235955 C13.15,33.6235955 13.35,33.7247191 13.6,33.7752809 C14.6,33.8258427 15.6,33.9269663 16.6,33.9775281 C18.5,34.1292135 20.45,34.1292135 22.35,34.3314607 C23.9,34.5337079 25.45,34.4831461 27,34.6853933 C28.15,34.8370787 29.3,34.8876404 30.45,34.9382022 C32.1,35.0393258 33.7,35.1910112 35.35,35.3932584 C35.45,35.3932584 35.5,35.3932584 35.6,35.3932584 C37.5,35.494382 39.45,35.5449438 41.35,35.747191 C42.7,35.8988764 44.05,35.7977528 45.4,36.1011236 C45.55,36.1516854 45.7,36.1516854 45.9,36.1011236 C47.75,36.0505618 49.55,36.252809 51.4,36.4550562 C53,36.6067416 54.6,36.505618 56.15,36.8089888 C56.3,36.8595506 56.45,36.8089888 56.65,36.8595506 C58.5,36.9606742 60.35,36.9606742 62.15,37.2134831 C63.5,37.3651685 64.85,37.2640449 66.2,37.5674157 C66.3,37.6179775 66.45,37.5674157 66.55,37.5674157 C68.4,37.6685393 70.3,37.7696629 72.15,37.8707865 C74.95,38.0730337 77.7,38.3258427 80.5,38.5280899 C82,38.6292135 83.55,38.6797753 85.05,38.8314607 C86.55,38.9831461 88.1,38.9325843 89.55,39.2359551 C89.65,39.2359551 89.7,39.2359551 89.8,39.2359551 C91.45,39.3370787 93.05,39.4382022 94.7,39.5393258 C94.65,39.5898876 94.85,39.5898876 95.15,39.5898876 Z" id="Shape" fill="#498D91"/>
          <path d="M93.75,34.2808989 C93.5,35.5449438 94,36.5561798 93.95,37.7696629 C92.95,37.7191011 91.9,37.7191011 90.9,37.6179775 C89.3,37.5168539 87.7,37.3651685 86.1,37.2134831 C83.35,37.011236 80.6,36.8595506 77.85,36.6573034 C75.2,36.4550562 72.6,36.252809 69.95,36.0505618 C68.5,35.9494382 67,35.8483146 65.55,35.747191 C62.45,35.494382 59.35,35.2921348 56.25,35.0393258 C54.7,34.9382022 53.15,34.8370787 51.6,34.7359551 C48.9,34.5337079 46.2,34.3314607 43.5,34.1292135 C42.1,34.0280899 40.7,33.9269663 39.3,33.8258427 C36.25,33.6235955 33.25,33.3707865 30.2,33.1179775 C27.55,32.9157303 24.85,32.7640449 22.2,32.5617978 C19.55,32.3595506 16.85,32.1573034 14.2,31.9550562 C14.1,31.9550562 13.95,31.9044944 13.8,31.8539326 C13.6,30.741573 13.3,29.6292135 13.2,28.4157303 C14,28.3651685 14.7,28.4157303 15.4,28.4662921 C17.45,28.6179775 19.55,28.7696629 21.6,28.9213483 C25.2,29.2247191 28.85,29.5280899 32.45,29.7808989 C35.6,30.0337079 38.75,30.2865169 41.9,30.488764 C45.5,30.741573 49.05,30.994382 52.65,31.247191 C54.35,31.3483146 56.1,31.4494382 57.8,31.6011236 C60.6,31.8033708 63.35,32.005618 66.15,32.2078652 C67.8,32.3089888 69.4,32.4101124 71.05,32.511236 C73.25,32.6629213 75.45,32.8146067 77.6,32.9662921 C81.2,33.2191011 84.75,33.4719101 88.35,33.7247191 C89.8,33.8258427 91.2,33.9269663 92.65,34.0280899 C93,34.1292135 93.35,34.2303371 93.75,34.2808989 Z" id="Shape" fill="#D0E9EA"/>
          <path d="M116.8,7.78651685 C116.95,7.98876404 117,8.03932584 117,8.08988764 C117.2,9.60674157 117.4,11.1235955 117.6,12.6404494 C117.7,13.5505618 117.45,14.3595506 117.1,15.2191011 C116.05,17.8988764 114.55,20.3258427 113.35,22.9044944 C112.7,24.2696629 111.95,25.6348315 111.2,26.9494382 C109.3,30.4382022 107.5,33.9775281 105.75,37.5674157 C105,39.0842697 104.2,40.6011236 103.45,42.0674157 C103.4,42.2191011 103.25,42.3202247 103.1,42.5224719 C102.9,42.2191011 102.8,41.9157303 102.75,41.6123596 C102.5,39.8932584 102.3,38.1741573 101.95,36.4550562 C101.7,35.3426966 102,34.5337079 102.55,33.6235955 C105.1,29.4269663 107.25,25.0280899 109.55,20.6797753 C111.75,16.4831461 114,12.2865169 116.4,8.24157303 C116.5,8.14044944 116.65,7.98876404 116.8,7.78651685 Z" id="Shape" fill="#61AFB4"/>
          <path d="M80.2,5.81460674 C79.25,7.63483146 78.35,9.50561798 77.3,11.2752809 C76.2,13.0955056 75.05,14.9157303 74.1,16.7865169 C73.95,17.0898876 73.75,17.4438202 73.65,17.747191 C73.5,18.2022472 73.2,18.4044944 72.75,18.3539326 C72.1,18.3539326 71.45,18.3033708 70.85,18.3033708 C70.55,18.3033708 70.2,18.252809 69.9,18.252809 C66.25,18.1516854 62.55,18.0505618 58.9,17.8483146 C56.1,17.6966292 53.3,17.5955056 50.55,17.2921348 C48.65,17.0898876 46.75,16.9382022 44.85,16.7865169 C44.4,16.7359551 43.95,16.7359551 43.7,16.4831461 C43.5,16.1292135 43.65,15.9269663 43.7,15.7247191 C44.1,14.6629213 44.75,13.752809 45.3,12.7921348 C46.15,11.2247191 47.1,9.75842697 48,8.24157303 C48.85,6.87640449 49.7,5.51123596 50.65,4.24719101 C50.95,4.04494382 51.3,4.09550562 51.6,4.14606742 C54.15,4.24719101 56.7,4.29775281 59.25,4.3988764 C62.05,4.5 64.85,4.6011236 67.6,4.70224719 C69.75,4.80337079 71.9,4.90449438 74.05,5.00561798 C75.5,5.05617978 76.9,5.10674157 78.35,5.15730337 C78.8,5.15730337 79.2,5.25842697 79.65,5.30898876 C79.9,5.35955056 80.05,5.51123596 80.2,5.81460674 Z M56.6,16.6853933 C57.6,16.8370787 58.55,16.8370787 59.55,16.7865169 C59.85,16.7865169 60.2,16.8370787 60.5,16.8370787 C62.2,16.9382022 63.95,16.9382022 65.65,17.1404494 C67.65,17.3426966 69.65,17.1910112 71.6,17.3932584 C72.05,17.4438202 72.55,17.2921348 72.75,16.7359551 C72.95,16.2808989 73.25,15.9269663 73.5,15.5224719 C74.9,13.0955056 76.25,10.7191011 77.65,8.29213483 C77.95,7.73595506 78.4,7.17977528 78.5,6.37078652 C76.9,6.42134831 75.45,6.01685393 73.9,6.16853933 C72.7,5.96629213 71.5,6.11797753 70.25,6.01685393 C69.3,5.86516854 68.4,5.91573034 67.45,5.96629213 C66,5.91573034 64.5,5.81460674 63.05,5.76404494 C62.95,5.76404494 62.8,5.71348315 62.7,5.71348315 C60,5.61235955 57.3,5.51123596 54.55,5.41011236 C54.25,5.41011236 53.9,5.35955056 53.6,5.30898876 C52.8,5.20786517 52,5.15730337 51.25,5.20786517 C49.5,7.68539326 45.45,14.4101124 44.85,15.8258427 C46.2,16.1797753 47.55,16.0786517 48.9,16.1292135 C49,16.1797753 49.1,16.2808989 49.2,16.2808989 C50.5,16.3820225 51.75,16.4325843 53.05,16.5337079 C54.3,16.5337079 55.45,16.5842697 56.6,16.6853933 Z" id="Shape" fill="#010201"/>
          <path d="M15.3,18.5561798 C15.2,18.9101124 15,19.2134831 14.8,19.5168539 C13.3,21.3370787 12.05,23.3595506 10.65,25.2808989 C10.2,25.8370787 9.8,26.0393258 9.15,25.9382022 C8.6,25.8370787 8.05,25.8370787 7.5,25.7865169 C7,25.7359551 6.55,25.6853933 6.2,25.3820225 C6.1,24.9775281 6.3,24.7752809 6.45,24.5730337 C7.9,22.7022472 9.35,20.8314607 10.8,18.9606742 C11.3,18.3033708 11.9,17.9494382 12.75,18.1011236 C13.45,18.2022472 14.2,18.252809 14.9,18.3033708 C15,18.252809 15.15,18.3033708 15.3,18.5561798 Z M12.35,21.1348315 C12.75,20.4269663 13.4,19.9719101 13.7,19.1629213 C13.3,18.9101124 12.95,18.9606742 12.6,19.0617978 C12.2,19.5674157 11.8,20.0224719 11.4,20.4775281 C11.35,20.5786517 11.35,20.6797753 11.3,20.8314607 C11.65,20.9325843 11.95,20.9831461 12.35,21.1348315 Z M11.55,21.9438202 C11,21.8932584 10.5,21.7921348 9.95,21.741573 C9.6,22.0449438 9.35,22.3483146 9.15,22.8033708 C9.8,22.8539326 10.4,22.9550562 11.05,23.005618 C11.25,22.6516854 11.55,22.3988764 11.55,21.9438202 Z M10,24.1685393 C8.75,24.0168539 8.75,24.0168539 8.5,24.7752809 C9.1,24.8258427 9.7,25.0280899 10,24.1685393 Z" id="Shape" fill="#020202"/>
          <path d="M35.85,16.2303371 C35.45,16.2808989 35,16.1797753 34.6,16.0280899 C33.7,15.7247191 33.35,14.9157303 33.65,14.005618 C34.2,12.488764 36.8,11.9325843 37.9,13.0449438 C38.75,13.9044944 38.5,15.3202247 37.4,15.8764045 C36.9,16.1292135 36.4,16.2808989 35.85,16.2303371 Z M36,15.1179775 C36.5,15.1179775 36.8,15.0168539 37.05,14.7134831 C37.3,14.4606742 37.25,14.1067416 37,13.9044944 C36.55,13.4494382 35.2,13.7022472 34.9,14.0561798 C34.65,14.3089888 34.7,14.7134831 35,14.8651685 C35.3,15.0168539 35.65,15.1179775 36,15.1179775 Z" id="Shape" fill="#030606"/>
          <path d="M38.25,11.6797753 C37.85,11.7303371 37.45,11.5280899 37.05,11.3764045 C36.45,11.1235955 36.15,10.6179775 36.15,9.96067416 C36.15,9.30337079 36.65,8.54494382 37.25,8.34269663 C38.1,8.08988764 38.95,7.88764045 39.8,8.29213483 C39.95,8.34269663 40.1,8.39325843 40.2,8.49438202 C41.1,9.15168539 41.1,10.2134831 40.3,10.9719101 C39.8,11.3764045 38.95,11.6797753 38.25,11.6797753 Z M37.35,10.4157303 C37.6,10.5168539 37.9,10.6179775 38.2,10.6685393 C38.7,10.7696629 39.15,10.6179775 39.5,10.2640449 C39.8,10.011236 39.7,9.55617978 39.4,9.35393258 C38.85,9 38.3,9.0505618 37.7,9.30337079 C37.25,9.50561798 37.2,9.60674157 37.35,10.4157303 Z" id="Shape" fill="#040605"/>
          <path d="M19.45,11.6292135 C19.55,11.6292135 19.6,11.6292135 19.7,11.6292135 C20.55,11.6797753 21.25,12.1348315 21.35,12.741573 C21.55,13.6516854 21.1,14.5617978 20.25,14.9157303 C19.45,15.2696629 18.6,15.2191011 17.8,14.8651685 C16.7,14.3089888 16.55,12.994382 17.5,12.1853933 C18,11.8314607 18.65,11.6292135 19.45,11.6292135 Z M19.2,14.0561798 C19.45,14.0561798 19.75,13.9044944 20,13.7022472 C20.35,13.3988764 20.3,12.8932584 19.85,12.741573 C19.6,12.6404494 19.3,12.5898876 19.05,12.5898876 C18.5,12.6404494 18.05,13.0449438 18.05,13.4494382 C18.1,13.8033708 18.65,14.1067416 19.2,14.0561798 Z" id="Shape" fill="#040505"/>
          <path d="M27.75,15.3707865 C27,15.4719101 26.4,15.1685393 25.9,14.6629213 C25.45,14.258427 25.4,13.8033708 25.7,13.247191 C26.4,11.9325843 28.5,11.4775281 29.65,12.3876404 C30.35,12.9438202 30.45,13.752809 29.85,14.4606742 C29.25,15.1685393 28.55,15.4719101 27.75,15.3707865 Z M29.05,13.6516854 C28.8,13.1460674 28.45,12.9438202 28,12.9438202 C27.5,12.9438202 27.05,13.0955056 26.75,13.5 C26.55,13.752809 26.7,14.2078652 27,14.258427 C27.75,14.4606742 28.5,14.4606742 29.05,13.6516854 Z" id="Shape" fill="#030604"/>
          <path d="M27.7,4.24719101 C27.75,4.65168539 27.45,5.00561798 27.1,5.35955056 C26.3,6.11797753 24.9,6.26966292 24,5.76404494 C23.1,5.25842697 23,4.19662921 23.7,3.43820225 C24.35,2.73033708 26.35,2.52808989 27.05,2.93258427 C27.45,3.18539326 27.65,3.58988764 27.7,4.24719101 Z M26.5,4.09550562 C26.25,3.64044944 25.85,3.69101124 25.45,3.69101124 C25.05,3.69101124 24.75,3.79213483 24.45,4.04494382 C24.35,4.14606742 24.3,4.24719101 24.25,4.34831461 C24.2,4.5 24.25,4.70224719 24.4,4.75280899 C24.8,5.00561798 25.25,4.90449438 25.65,4.85393258 C26.1,4.80337079 26.4,4.5505618 26.5,4.09550562 Z" id="Shape" fill="#030506"/>
          <path d="M21.5,10.5168539 C21.15,10.5168539 20.65,10.4157303 20.2,10.1123596 C19.65,9.70786517 19.45,9.1011236 19.75,8.54494382 C20.65,6.8258427 23,6.6741573 24,7.83707865 C24.5,8.39325843 24.4,9.30337079 23.85,9.75842697 C23.35,10.1629213 22.35,10.5168539 21.5,10.5168539 Z M20.7,9.0505618 C21.7,9.75842697 22.3,9.65730337 23.2,8.64606742 C22.8,8.03932584 22.7,7.98876404 22.1,7.98876404 C21.4,8.03932584 20.95,8.34269663 20.7,9.0505618 Z" id="Shape" fill="#050504"/>
          <path d="M40.9,7.02808989 C40.35,6.92696629 39.8,6.7752809 39.4,6.37078652 C38.85,5.91573034 38.75,5.10674157 39.2,4.5 C39.4,4.24719101 39.65,4.04494382 39.95,3.89325843 C40.65,3.64044944 41.35,3.53932584 42.05,3.64044944 C42.35,3.69101124 42.65,3.84269663 42.9,4.04494382 C43.85,4.85393258 43.6,6.26966292 42.45,6.6741573 C41.95,6.92696629 41.45,6.92696629 40.9,7.02808989 Z M39.9,5.41011236 C40.6,5.96629213 41.15,6.01685393 41.9,5.71348315 C42.1,5.61235955 42.35,5.51123596 42.3,5.20786517 C42.3,4.95505618 42.1,4.75280899 41.85,4.70224719 C41.45,4.5505618 41.05,4.6011236 40.7,4.70224719 C40.35,4.80337079 40,4.95505618 39.9,5.41011236 Z" id="Shape" fill="#050304"/>
          <path d="M33,6.62359551 C32.3,6.62359551 31.75,6.52247191 31.25,6.11797753 C30.7,5.61235955 30.6,5.05617978 31,4.3988764 C31.1,4.24719101 31.25,4.04494382 31.4,3.94382022 C32.15,3.43820225 32.95,3.18539326 33.9,3.38764045 C34.2,3.48876404 34.5,3.64044944 34.75,3.84269663 C35.4,4.3988764 35.5,5.05617978 34.95,5.76404494 C34.4,6.42134831 33.75,6.6741573 33,6.62359551 Z M31.75,5.05617978 C32.25,5.56179775 32.35,5.56179775 32.75,5.61235955 C33.15,5.61235955 33.55,5.51123596 33.85,5.30898876 C34.15,5.10674157 34.05,4.70224719 33.75,4.5505618 C33.35,4.34831461 32.95,4.4494382 32.6,4.5505618 C32.25,4.6011236 31.85,4.65168539 31.75,5.05617978 Z" id="Shape" fill="#040405"/>
          <path d="M30.65,7.48314607 C31.15,7.43258427 31.6,7.58426966 32.05,7.83707865 C32.85,8.24157303 33,9.15168539 32.45,9.85955056 C31.7,10.8202247 30.2,11.1741573 29.1,10.6685393 C28.05,10.2134831 27.85,9.1011236 28.65,8.29213483 C29.15,7.73595506 29.85,7.48314607 30.65,7.48314607 Z M31.65,8.9494382 C31.05,8.49438202 30.95,8.49438202 30.45,8.49438202 C30,8.49438202 29.6,8.69662921 29.3,9 C29.05,9.25280899 29.1,9.60674157 29.4,9.80898876 C29.8,10.0617978 30.25,10.0617978 30.65,9.96067416 C31.1,9.75842697 31.5,9.55617978 31.65,8.9494382 Z" id="Shape" fill="#040506"/>
          <path d="M78.75,15.7752809 C78.95,15.3707865 79.3,15.3202247 79.65,15.3202247 C80.9,15.3707865 82.1,15.3707865 83.35,15.4213483 C83.8,15.4719101 84.2,15.3707865 84.65,15.5224719 C85,15.6235955 85.2,15.7752809 85.25,16.1292135 C85,16.4831461 84.6,16.4831461 84.25,16.4831461 C82.75,16.4831461 81.2,16.4325843 79.7,16.2808989 C79.35,16.2808989 78.95,16.2303371 78.75,15.7752809 Z" id="Shape" fill="#0C1212"/>
          <path d="M95.8,13.9550562 C95.55,14.3089888 95.15,14.3089888 94.8,14.3089888 C93.3,14.3089888 91.75,14.3089888 90.25,14.1067416 C89.85,14.0561798 89.45,14.005618 89.25,13.5505618 C89.45,13.1460674 89.8,13.0955056 90.15,13.0955056 C91.4,13.1460674 92.6,13.1460674 93.85,13.1966292 C94.3,13.247191 94.7,13.1460674 95.15,13.2977528 C95.55,13.4494382 95.8,13.6011236 95.8,13.9550562 Z" id="Shape" fill="#0D1313"/>
          <path d="M107.25,11.5786517 C106.9,11.7808989 106.45,11.9325843 106.05,11.8820225 C104.45,11.6797753 102.85,11.7808989 101.3,11.4775281 C101,11.4269663 100.75,11.3764045 100.65,11.0730337 C100.65,10.8202247 100.85,10.7696629 101.05,10.6685393 C101.35,10.5168539 101.7,10.5674157 102,10.5674157 C103.4,10.6179775 104.8,10.7191011 106.15,10.8202247 C106.5,10.8202247 106.75,10.9213483 107.05,11.0730337 C107.2,11.1235955 107.3,11.2752809 107.25,11.5786517 Z" id="Shape" fill="#090C0D"/>
          <path d="M94.75,16.6853933 C94.35,16.8876404 93.9,17.0393258 93.45,16.988764 C91.9,16.7865169 90.35,16.8876404 88.8,16.5842697 C88.5,16.5337079 88.15,16.5337079 88.1,16.1292135 C88.15,15.8258427 88.45,15.7752809 88.65,15.7247191 C89.05,15.6741573 89.45,15.6235955 89.85,15.6741573 C90.95,15.8258427 92.05,15.8258427 93.2,15.8764045 C93.65,15.8764045 94.05,15.9269663 94.5,16.1292135 C94.65,16.1797753 94.8,16.3314607 94.75,16.6853933 Z" id="Shape" fill="#090D0E"/>
          <path d="M85.7,13.8539326 C84.25,13.7022472 82.75,13.5505618 81.25,13.3988764 C81,13.3988764 80.75,13.3483146 80.6,13.1460674 C80.45,13.0449438 80.4,12.8932584 80.45,12.741573 C80.5,12.6404494 80.6,12.488764 80.7,12.488764 C80.95,12.4382022 81.2,12.3876404 81.4,12.4382022 C82.65,12.6404494 83.85,12.6404494 85.1,12.6910112 C85.65,12.741573 86.2,12.8426966 86.7,13.0955056 C86.85,13.1966292 86.95,13.2977528 86.95,13.4494382 C86.95,13.6011236 86.8,13.752809 86.65,13.752809 C86.3,13.8539326 86.05,13.8539326 85.7,13.8539326 Z" id="Shape" fill="#080B0B"/>
          <path d="M108.25,8.59550562 C108.05,9.0505618 107.65,9.0505618 107.3,9.0505618 C106.65,9.0505618 106.05,9.0505618 105.4,9 C104.55,8.9494382 103.65,8.84831461 102.8,8.79775281 C102.5,8.74719101 102.2,8.69662921 101.85,8.59550562 C101.7,8.54494382 101.55,8.44382022 101.55,8.24157303 C101.55,8.08988764 101.7,7.93820225 101.85,7.88764045 C102.05,7.83707865 102.25,7.78651685 102.45,7.78651685 C104.1,7.88764045 105.8,7.93820225 107.45,8.03932584 C107.75,8.03932584 108.05,8.19101124 108.25,8.59550562 Z" id="Shape" fill="#07090A"/>
          <path d="M97.95,10.7191011 C97.7,11.1741573 97.35,11.1741573 97,11.1741573 C96.35,11.1741573 95.75,11.1741573 95.1,11.1235955 C94.2,11.0730337 93.3,10.9719101 92.4,10.8707865 C92.1,10.8202247 91.8,10.7191011 91.5,10.6179775 C91.4,10.5674157 91.35,10.4157303 91.35,10.3146067 C91.35,10.2134831 91.45,10.1123596 91.55,10.0617978 C91.8,9.91011236 92.05,9.91011236 92.35,9.91011236 C93,9.91011236 93.7,9.96067416 94.35,9.96067416 C95.2,10.011236 96,10.1123596 96.85,10.1123596 C97.2,10.2134831 97.65,10.2640449 97.95,10.7191011 Z" id="Shape" fill="#07090A"/>
          <path d="M104.2,17.2921348 C103.95,17.747191 103.6,17.7977528 103.25,17.7977528 C102.6,17.7977528 102,17.7977528 101.35,17.747191 C100.45,17.6966292 99.55,17.5955056 98.65,17.494382 C98.4,17.4438202 98.1,17.3932584 97.85,17.2921348 C97.7,17.241573 97.55,17.1404494 97.55,16.9382022 C97.55,16.7359551 97.7,16.6348315 97.85,16.5842697 C98.1,16.5337079 98.4,16.4831461 98.65,16.4831461 C99.5,16.4831461 100.4,16.5337079 101.25,16.6348315 C101.9,16.7359551 102.5,16.6853933 103.15,16.7359551 C103.55,16.7865169 103.55,16.7865169 104.2,17.2921348 Z" id="Shape" fill="#060909"/>
          <path d="M98.9,14.1573034 C99,13.6516854 99.35,13.6011236 99.65,13.6011236 C100.45,13.6011236 101.25,13.6011236 102.05,13.6516854 C102.85,13.7022472 103.65,13.752809 104.4,13.8033708 C104.95,13.8539326 104.95,13.8539326 105.55,14.258427 C105.6,14.5617978 105.35,14.6629213 105.15,14.7134831 C104.9,14.7640449 104.6,14.8146067 104.3,14.7640449 C102.9,14.6629213 101.45,14.6123596 100.05,14.4606742 C99.65,14.511236 99.25,14.4606742 98.9,14.1573034 Z" id="Shape" fill="#060909"/>
          <path d="M83.6,6.97752809 C83.8,6.7752809 84.05,6.7752809 84.3,6.7752809 C85.75,6.87640449 87.25,6.97752809 88.7,7.07865169 C89.1,7.12921348 89.5,7.17977528 89.85,7.43258427 C90.05,7.53370787 90.1,7.73595506 90.05,7.93820225 C89.85,8.14044944 89.55,8.14044944 89.25,8.14044944 C87.7,8.03932584 86.15,7.93820225 84.6,7.78651685 C84.35,7.78651685 84.05,7.68539326 83.8,7.53370787 C83.5,7.43258427 83.5,7.17977528 83.6,6.97752809 Z" id="Shape" fill="#070909"/>
          <path d="M92.45,7.78651685 C92.8,7.48314607 93.15,7.43258427 93.6,7.43258427 C94.95,7.48314607 96.3,7.53370787 97.65,7.58426966 C98.05,7.58426966 98.45,7.63483146 98.8,7.88764045 C98.9,7.98876404 99,8.14044944 98.95,8.29213483 C98.9,8.39325843 98.8,8.49438202 98.7,8.54494382 C98.45,8.59550562 98.25,8.64606742 98,8.64606742 C96.65,8.64606742 95.3,8.59550562 93.95,8.54494382 C93.55,8.54494382 93.15,8.44382022 92.8,8.29213483 C92.6,8.19101124 92.5,8.03932584 92.45,7.78651685 Z" id="Shape" fill="#050606"/>
          <path d="M81.8,10.0617978 C82.15,9.70786517 82.55,9.60674157 82.95,9.65730337 C84.35,9.80898876 85.7,9.70786517 87.1,9.80898876 C87.5,9.80898876 87.9,9.85955056 88.2,10.1629213 C88.25,10.2134831 88.35,10.3651685 88.3,10.4662921 C88.3,10.5674157 88.2,10.6685393 88.1,10.7191011 C87.85,10.7696629 87.65,10.8202247 87.4,10.8202247 C86,10.8202247 84.65,10.7696629 83.25,10.7191011 C82.75,10.6685393 82.25,10.6179775 81.8,10.0617978 Z" id="Shape" fill="#050606"/>
          <path d="M73.95,6.16853933 C75.45,6.01685393 76.95,6.42134831 78.55,6.37078652 C78.4,7.12921348 78,7.68539326 77.7,8.29213483 C76.35,10.7191011 74.95,13.0955056 73.55,15.5224719 C73.3,15.9269663 72.95,16.3314607 72.8,16.7359551 C72.55,17.2921348 72.1,17.4438202 71.65,17.3932584 C69.65,17.1910112 67.65,17.3426966 65.7,17.1404494 C64,16.988764 62.3,16.9382022 60.55,16.8370787 C60.25,16.8370787 59.9,16.7865169 59.6,16.7865169 C59.65,16.6853933 59.75,16.5842697 59.8,16.5337079 C61.1,15.5730337 62.45,14.6123596 63.75,13.6011236 C67,11.1741573 70.3,8.79775281 73.65,6.52247191 C73.75,6.42134831 73.8,6.26966292 73.95,6.16853933 Z" id="Shape" fill="#00FF00"/>
          <path d="M49,16.0786517 C47.65,16.0280899 46.3,16.1292135 44.95,15.7752809 C45.55,14.3089888 49.6,7.58426966 51.35,5.15730337 C52.1,5.10674157 52.9,5.15730337 53.7,5.25842697 C54,5.30898876 54.35,5.35955056 54.65,5.35955056 C57.35,5.46067416 60.05,5.56179775 62.8,5.66292135 C62.9,5.66292135 63.05,5.71348315 63.15,5.71348315 C60.1,8.03932584 56.95,10.2134831 53.8,12.4382022 C52.15,13.6011236 50.6,14.8651685 49,16.0786517 Z" id="Shape" fill="#00FF00"/>
          <path d="M49,16.0786517 C50.6,14.8651685 52.15,13.6516854 53.75,12.488764 C56.85,10.2640449 60.05,8.08988764 63.1,5.76404494 C64.55,5.81460674 66.05,5.91573034 67.5,5.96629213 C66.75,6.52247191 66.05,7.07865169 65.3,7.58426966 C62.95,9.30337079 60.6,10.9719101 58.25,12.6910112 C56.55,13.9550562 54.85,15.2191011 53.2,16.4831461 C51.9,16.4325843 50.65,16.3314607 49.35,16.2303371 C49.2,16.1797753 49.1,16.1292135 49,16.0786517 Z" id="Shape" fill="#87FF87"/>
          <path d="M73.95,6.16853933 C73.85,6.26966292 73.75,6.42134831 73.65,6.52247191 C70.3,8.79775281 67,11.1741573 63.75,13.6011236 C62.45,14.5617978 61.15,15.5224719 59.8,16.5337079 C59.7,16.5842697 59.65,16.7359551 59.6,16.7865169 C58.6,16.8370787 57.65,16.8370787 56.65,16.6853933 C57,16.0280899 57.7,15.6741573 58.25,15.2696629 C60.25,13.6011236 62.3,11.9831461 64.35,10.4157303 C66.3,8.8988764 68.35,7.48314607 70.35,6.01685393 C71.5,6.11797753 72.7,5.96629213 73.95,6.16853933 Z" id="Shape" fill="#86FF86"/>
          <path d="M70.3,5.96629213 C68.3,7.43258427 66.3,8.84831461 64.3,10.3651685 C62.25,11.9325843 60.2,13.5505618 58.2,15.2191011 C57.65,15.6741573 57,15.9775281 56.6,16.6348315 C55.45,16.5337079 54.3,16.4831461 53.15,16.3820225 C54.85,15.1179775 56.5,13.8539326 58.2,12.5898876 C60.55,10.8707865 62.9,9.20224719 65.25,7.48314607 C66,6.92696629 66.7,6.37078652 67.45,5.86516854 C68.45,5.86516854 69.35,5.81460674 70.3,5.96629213 Z" id="Shape" fill="#01FF01"/>
          <path d="M12.35,21.1348315 C11.95,21.0337079 11.65,20.9325843 11.3,20.8314607 C11.35,20.6797753 11.35,20.5786517 11.4,20.4775281 C11.8,20.0224719 12.15,19.5674157 12.6,19.0617978 C12.95,18.9606742 13.35,18.9101124 13.7,19.1629213 C13.4,19.9213483 12.75,20.3764045 12.35,21.1348315 Z" id="Shape" fill="#589CA0"/>
          <path d="M11.55,21.9438202 C11.55,22.4494382 11.25,22.6516854 11.05,23.005618 C10.45,22.9550562 9.85,22.8539326 9.15,22.8033708 C9.35,22.2977528 9.6,21.994382 9.95,21.741573 C10.45,21.7921348 10.95,21.8426966 11.55,21.9438202 Z" id="Shape" fill="#5BA3A7"/>
          <path d="M10,24.1685393 C9.7,25.0786517 9.1,24.8258427 8.5,24.7752809 C8.75,24.0168539 8.75,24.0168539 10,24.1685393 Z" id="Shape" fill="#56999D"/>
          <path d="M36,15.1179775 C35.65,15.1179775 35.3,15.0168539 35,14.8651685 C34.7,14.7134831 34.7,14.258427 34.9,14.0561798 C35.25,13.7022472 36.55,13.5 37,13.9044944 C37.25,14.1573034 37.3,14.4606742 37.05,14.7134831 C36.8,15.0168539 36.5,15.1179775 36,15.1179775 Z" id="Shape" fill="#01F4F4"/>
          <path d="M37.35,10.4157303 C37.2,9.60674157 37.25,9.50561798 37.7,9.30337079 C38.25,9.0505618 38.85,9 39.4,9.35393258 C39.75,9.55617978 39.8,10.011236 39.5,10.2640449 C39.15,10.6179775 38.7,10.7696629 38.2,10.6685393 C37.9,10.6179775 37.6,10.4662921 37.35,10.4157303 Z" id="Shape" fill="#35A76D"/>
          <path d="M19.2,14.0561798 C18.65,14.0561798 18.1,13.752809 18.05,13.4494382 C18,13.0449438 18.5,12.6404494 19.05,12.5898876 C19.35,12.5898876 19.6,12.6404494 19.85,12.741573 C20.25,12.9438202 20.35,13.3988764 20,13.7022472 C19.75,13.9550562 19.45,14.0561798 19.2,14.0561798 Z" id="Shape" fill="#DA6694"/>
          <path d="M29.05,13.6516854 C28.5,14.511236 27.75,14.511236 27,14.258427 C26.65,14.1573034 26.5,13.7022472 26.75,13.5 C27.1,13.0955056 27.55,12.9438202 28,12.9438202 C28.5,12.8932584 28.85,13.1460674 29.05,13.6516854 Z" id="Shape" fill="#01F001"/>
          <path d="M26.5,4.09550562 C26.4,4.5 26.1,4.80337079 25.7,4.85393258 C25.3,4.90449438 24.85,5.00561798 24.45,4.75280899 C24.3,4.65168539 24.25,4.5 24.3,4.34831461 C24.35,4.24719101 24.4,4.14606742 24.5,4.04494382 C24.75,3.79213483 25.1,3.69101124 25.5,3.69101124 C25.8,3.69101124 26.2,3.69101124 26.5,4.09550562 Z" id="Shape" fill="#008BDA"/>
          <path d="M20.7,9.0505618 C20.95,8.34269663 21.4,7.98876404 22.1,7.98876404 C22.7,7.98876404 22.8,8.03932584 23.2,8.64606742 C22.3,9.65730337 21.7,9.75842697 20.7,9.0505618 Z" id="Shape" fill="#EBE502"/>
          <path d="M39.9,5.41011236 C40.05,4.90449438 40.35,4.75280899 40.7,4.70224719 C41.1,4.6011236 41.5,4.5505618 41.85,4.70224719 C42.1,4.80337079 42.25,4.95505618 42.3,5.20786517 C42.3,5.51123596 42.1,5.61235955 41.9,5.71348315 C41.15,6.06741573 40.6,5.96629213 39.9,5.41011236 Z" id="Shape" fill="#F30001"/>
          <path d="M31.75,5.05617978 C31.85,4.6011236 32.25,4.5505618 32.55,4.5 C32.95,4.3988764 33.35,4.34831461 33.7,4.5 C34.05,4.65168539 34.1,5.05617978 33.8,5.25842697 C33.45,5.51123596 33.1,5.61235955 32.7,5.56179775 C32.35,5.61235955 32.3,5.56179775 31.75,5.05617978 Z" id="Shape" fill="#DE93AD"/>
          <path d="M31.65,8.9494382 C31.5,9.60674157 31.1,9.80898876 30.65,9.96067416 C30.25,10.1123596 29.8,10.0617978 29.4,9.80898876 C29.1,9.60674157 29.05,9.30337079 29.3,9 C29.65,8.69662921 30,8.49438202 30.45,8.49438202 C30.95,8.44382022 31.05,8.49438202 31.65,8.9494382 Z" id="Shape" fill="#865492"/>
        </g>
      </g>
    </g>
  </g>
</svg>