<svg version="1.1" width="59" height="80" xmlns="http://www.w3.org/2000/svg" xmlns:xlink="http://www.w3.org/1999/xlink">
  <!-- Exported by Scratch - http://scratch.mit.edu/ -->
  <g id="ID0.7413995480164886">
    <path id="ID0.614277433604002" d="M 325.250 347.250 C 325.739 346.730 325.909 347.270 327 348 C 331.349 350.965 334.402 355.264 340 357 C 339.655 374.988 321.495 375.161 319 391 C 325.597 399.070 329.662 409.672 338 416 C 338.651 420.318 336.272 421.605 335 424 C 334.845 426.822 337.827 426.507 339 428 C 336.484 436.150 325.716 436.049 323 444 C 322.667 444 322.333 444 322 444 C 315.756 433.578 308.170 424.497 303 413 C 297.831 418.021 293.025 426.961 294 435 C 288.936 435.115 286.921 436.049 285 441 C 278.124 439.543 275.408 433.925 269 432 C 269 431 269 430 269 429 C 276.682 418.349 283.318 406.651 290 395 C 286.445 386.555 281.950 379.050 274 375 C 276.705 367.711 279.709 369.041 276 361 C 280.159 356.826 284.719 353.053 290 350 C 296.996 355.338 299.625 365.042 307 370 C 309.119 362.786 312.954 357.642 316 351 C 318.048 350.118 320.205 352.339 322 351.500 C 323.731 350.702 323.712 348.151 325.250 347.250 Z M 308 377 C 297.468 373.532 297.864 359.136 288 355 C 287.008 359.342 281.534 359.200 280 363 C 288.332 370.334 295.567 378.767 300 390 C 294.130 402.464 285.042 411.709 281 426 C 283.460 427.873 286.540 429.127 289 431 C 295.076 420.743 297.171 406.504 307 400 C 313.804 408.529 317.299 420.368 325 428 C 326.584 424.250 328.032 420.365 333 420 C 328.019 409.981 320.438 402.562 314 394 C 313.468 377.604 327.495 373.461 335 361 C 323.471 342.453 318.631 373.430 308 377 Z " transform="matrix(0.8210933208465576, 0, 0, 0.8210933208465576, -220.35, -284.75)"/>
    <path id="ID0.7932597128674388" fill="#FF9400" d="M 335 361 C 327.495 373.461 313.468 377.604 314 394 C 320.438 402.562 328.019 409.981 333 420 C 328.032 420.365 326.584 424.250 325 428 C 317.299 420.368 313.804 408.529 307 400 C 297.171 406.504 295.076 420.743 289 431 C 286.540 429.127 283.460 427.873 281 426 C 285.042 411.709 294.130 402.464 300 390 C 295.567 378.767 288.332 370.334 280 363 C 281.534 359.200 287.008 359.342 288 355 C 297.864 359.136 297.468 373.532 308 377 C 318.631 373.430 323.471 342.453 335 361 Z " transform="matrix(0.8210933208465576, 0, 0, 0.8210933208465576, -220.35, -284.75)"/>
  </g>
</svg>