<svg version="1.1" id="shark1-b" x="0px" y="0px" width="150px" height="150px" viewBox="0 0 150 150" enable-background="new 0 0 150 150" xml:space="preserve" xmlns="http://www.w3.org/2000/svg" xmlns:xlink="http://www.w3.org/1999/xlink">
  <g>
    <g id="Body">
      <g id="Teeth">
        <path fill="#FFFFFF" stroke="#000000" d="M92.652,82.128c0.969-0.229,2.943-0.013,2.984,0.369c0.043,0.381-1.83,0.813-2.764,0.979&#xD;&#xA;&#x9;&#x9;&#x9;L92.652,82.128z"/>
        <path fill="#FFFFFF" stroke="#000000" d="M93.505,87.201c0.943-0.49,3.039-0.784,3.181-0.399c0.142,0.384-1.687,1.321-2.605,1.735&#xD;&#xA;&#x9;&#x9;&#x9;L93.505,87.201z"/>
        <path fill="#FFFFFF" stroke="#000000" d="M92.799,84.227c0.969-0.229,2.942-0.014,2.984,0.367&#xD;&#xA;&#x9;&#x9;&#x9;c0.042,0.383-1.831,0.815-2.762,0.979L92.799,84.227z"/>
        <path fill="#FFFFFF" stroke="#000000" d="M92.752,78.867c1.107-0.001,3.199,0.736,3.15,1.16c-0.049,0.426-2.19,0.42-3.244,0.361&#xD;&#xA;&#x9;&#x9;&#x9;L92.752,78.867z"/>
        <path fill="#FFFFFF" stroke="#000000" d="M94.566,90.427c0.799-0.706,2.763-1.506,2.99-1.169c0.228,0.338-1.322,1.696-2.117,2.325&#xD;&#xA;&#x9;&#x9;&#x9;L94.566,90.427z"/>
        <path fill="#FFFFFF" stroke="#000000" d="M96.695,92.823c0.693-0.813,2.527-1.882,2.8-1.578c0.272,0.301-1.076,1.864-1.777,2.601&#xD;&#xA;&#x9;&#x9;&#x9;L96.695,92.823z"/>
        <path fill="#FFFFFF" stroke="#000000" d="M92.928,75.412c1.215,0.148,3.408,1.242,3.299,1.701c-0.106,0.46-2.457,0.16-3.602-0.047&#xD;&#xA;&#x9;&#x9;&#x9;L92.928,75.412z"/>
        <path fill="#FFFFFF" stroke="#000000" d="M93.96,71.891c1.169,0.36,3.144,1.822,2.956,2.256s-2.445-0.273-3.539-0.681&#xD;&#xA;&#x9;&#x9;&#x9;L93.96,71.891z"/>
        <path fill="#FFFFFF" stroke="#000000" d="M95.627,68.147c1.234,0.581,3.186,2.502,2.913,2.949&#xD;&#xA;&#x9;&#x9;&#x9;c-0.271,0.447-2.651-0.686-3.793-1.305L95.627,68.147z"/>
        <path fill="#FFFFFF" stroke="#000000" d="M98.04,64.716c1.153,0.73,2.858,2.877,2.536,3.288c-0.323,0.41-2.551-1.009-3.609-1.765&#xD;&#xA;&#x9;&#x9;&#x9;L98.04,64.716z"/>
        <path fill="#FFFFFF" stroke="#000000" d="M101.568,97.143c0.621-0.871,2.355-2.099,2.654-1.818&#xD;&#xA;&#x9;&#x9;&#x9;c0.297,0.275-0.912,1.953-1.549,2.746L101.568,97.143z"/>
        <path fill="#FFFFFF" stroke="#000000" d="M98.85,95.127c0.693-0.812,2.528-1.881,2.801-1.579c0.271,0.304-1.073,1.867-1.774,2.603&#xD;&#xA;&#x9;&#x9;&#x9;L98.85,95.127z"/>
        <path fill="#FFFFFF" stroke="#000000" d="M113.971,103.413c0.43-1.146,1.985-3.017,2.393-2.8c0.408,0.217-0.436,2.426-0.901,3.49&#xD;&#xA;&#x9;&#x9;&#x9;L113.971,103.413z"/>
        <path fill="#FFFFFF" stroke="#000000" d="M110.283,102.732c0.432-1.146,2.24-3.586,2.646-3.369&#xD;&#xA;&#x9;&#x9;&#x9;c0.405,0.217-0.688,2.994-1.156,4.059L110.283,102.732z"/>
        <path fill="#FFFFFF" stroke="#000000" d="M107.059,100.973c0.435-1.146,1.987-3.018,2.396-2.801&#xD;&#xA;&#x9;&#x9;&#x9;c0.406,0.217-0.412,2.592-0.885,3.654L107.059,100.973z"/>
        <path fill="#FFFFFF" stroke="#000000" d="M104.074,99.327c0.543-0.923,2.167-2.298,2.486-2.05c0.317,0.25-0.74,2.027-1.308,2.875&#xD;&#xA;&#x9;&#x9;&#x9;L104.074,99.327z"/>
        <path fill="#FFFFFF" stroke="#000000" d="M101.509,61.345c1.171,1.065,2.685,3.856,2.235,4.257&#xD;&#xA;&#x9;&#x9;&#x9;c-0.45,0.401-2.701-1.668-3.758-2.742L101.509,61.345z"/>
        <path fill="#FFFFFF" stroke="#000000" d="M126.252,50.595c0.325,1.854-0.264,5.569-0.969,5.611s-1.319-3.545-1.531-5.324&#xD;&#xA;&#x9;&#x9;&#x9;L126.252,50.595z"/>
        <path fill="#FFFFFF" stroke="#000000" d="M120.609,51.232c0.422,1.834,0.021,5.576-0.678,5.655c-0.703,0.079-1.5-3.47-1.807-5.235&#xD;&#xA;&#x9;&#x9;&#x9;L120.609,51.232z"/>
        <path fill="#FFFFFF" stroke="#000000" d="M114.798,52.367c0.668,1.757,0.788,5.518,0.103,5.696&#xD;&#xA;&#x9;&#x9;&#x9;c-0.684,0.178-1.961-3.225-2.504-4.93L114.798,52.367z"/>
        <path fill="#FFFFFF" stroke="#000000" d="M109.596,54.636c0.784,1.493,1.299,4.835,0.706,5.07&#xD;&#xA;&#x9;&#x9;&#x9;c-0.591,0.234-2.098-2.659-2.766-4.12L109.596,54.636z"/>
        <path fill="#FFFFFF" stroke="#000000" d="M105.248,57.633c0.982,1.368,1.949,4.604,1.396,4.92&#xD;&#xA;&#x9;&#x9;&#x9;c-0.556,0.316-2.442-2.336-3.307-3.688L105.248,57.633z"/>
        <path fill="#FFFFFF" stroke="#000000" d="M137.538,50.737c-0.32,1.855-2.127,5.142-2.804,4.937&#xD;&#xA;&#x9;&#x9;&#x9;c-0.678-0.206-0.045-3.79,0.354-5.535L137.538,50.737z"/>
        <path fill="#FFFFFF" stroke="#000000" d="M131.914,50.426c0.036,1.883-1.119,5.459-1.822,5.389s-0.757-3.71-0.691-5.501&#xD;&#xA;&#x9;&#x9;&#x9;L131.914,50.426z"/>
        <path fill="#FFFFFF" stroke="#000000" d="M142.854,52.395c-0.567,1.792-2.81,4.791-3.451,4.493&#xD;&#xA;&#x9;&#x9;&#x9;c-0.645-0.299,0.477-3.759,1.111-5.43L142.854,52.395z"/>
      </g>
      <path id="Fill" fill="#2F8EFF" d="M135.825,40.68C119.926,28.1,95.09,30.743,71.396,51.139c-0.016,0.023-0.027,0.048-0.051,0.069&#xD;&#xA;&#x9;&#x9;c-0.03,0.026-0.072,0.038-0.104,0.062c-0.018,0.015-0.035,0.029-0.053,0.044l-0.009-0.008c-0.119,0.076-0.257,0.127-0.405,0.167&#xD;&#xA;&#x9;&#x9;c-0.007,0.002-0.014,0.011-0.021,0.013c-0.002,0-0.005-0.001-0.007-0.001c-5.099,1.271-26.371-17.263-29.262-9.493&#xD;&#xA;&#x9;&#x9;c-2.111,5.676,12.269,23.271,12.065,23.49c-1.195,1.295-21.843,14.308-23.711,15.456c-0.574-0.799-0.493-1.903-0.745-2.836&#xD;&#xA;&#x9;&#x9;c-2.474-9.083-9.572-16.984-19.566-16.259c-4.025,10.976,7.011,22.591,16.24,23.854c-3.145,4.018-9.77,14.127-8.656,22.693&#xD;&#xA;&#x9;&#x9;c0.116,0.895,0.522,3.069,0.895,3.836c0.402,0.821,1.146,1.51,2.003,1.795c2.091,0.701,5.092-1.021,6.848-2.127&#xD;&#xA;&#x9;&#x9;c4.993-3.146,7.062-15.918,5.198-23.834c-0.094-0.399,4.111-0.244,4.626-0.244c9.355,0.004,20.634,2.509,29.167,6.354&#xD;&#xA;&#x9;&#x9;c0,0,5.394,3.004,6.839,3.9c4.822,2.99,11.291,7.043,17.864,9.799l-0.001,0.001c0.967,0.339,1.932,0.689,2.922,0.956&#xD;&#xA;&#x9;&#x9;c6.377,1.71,13.711,1.083,19.102-3.071c-7.721-2.216-10.643-4.819-15.65-10.774c-1.879-2.231-4.449-6.771-5.029-9.645&#xD;&#xA;&#x9;&#x9;c-0.787-3.893-0.933-8.6,0.371-12.146c5.596-15.255,16.358-21.321,28.275-24.248c6.16-1.512,16.803-0.76,22.505,1.191&#xD;&#xA;&#x9;&#x9;C140.838,45.582,138.908,43.119,135.825,40.68z"/>
      <path id="Outline" d="M146.439,52.203c-0.406-4.838-6.068-12.301-9.83-15.077c-11.5-8.498-26.899-8.996-37.588-5.308&#xD;&#xA;&#x9;&#x9;c-9.3,3.209-21.121,10.989-28.353,18.042c-5.789-3.564-26.001-17.617-30.768-10.324c-1.822,2.787-0.468,6.735,0.699,9.499&#xD;&#xA;&#x9;&#x9;c1.403,3.323,7.499,14.384,8.804,16.921c-6.146,4.046-18.448,12.24-18.448,12.24c-1.415-9.655-10.471-18.333-19.985-19.376&#xD;&#xA;&#x9;&#x9;c-1.326-0.147-4.246-0.471-4.798,1.228c-0.086,0.263-0.149,2.774-0.159,3.212C5.9,68.316,6.453,72.118,9.061,76.493&#xD;&#xA;&#x9;&#x9;c1.589,2.666,2.895,4.667,5.59,6.333c3.218,1.99,5.641,2.986,8.711,3.546c-4.069,3.294-8.092,12.164-8.944,17.349&#xD;&#xA;&#x9;&#x9;c-0.608,3.692,0.261,10.733,3.68,12.947c1.934,1.252,4.472-0.283,6.289-1.04c9.615-4.004,12.146-15.969,10.114-25.679&#xD;&#xA;&#x9;&#x9;c10.975-0.333,21.154,2.102,31.114,6.396c4.197,1.81,17.432,10.171,22.313,12.4c2.15,0.982,7.264,2.23,8.106,2.348&#xD;&#xA;&#x9;&#x9;c7.357,1.026,14.02,0.228,20.217-4.301c1.137-0.83,2.828-1.69,0.932-2.837c-8.8-0.448-15.527-5.846-20.358-12.947&#xD;&#xA;&#x9;&#x9;c-5.05-7.429-3.39-17.83,1.353-25.05c5.449-8.297,14.928-13.715,24.596-14.889c5.412-0.657,11.229-0.745,16.562,0.502&#xD;&#xA;&#x9;&#x9;c1.833,0.428,4.541,1.906,5.895,2.145C146.216,53.891,146.508,53.007,146.439,52.203z M120.541,48.942&#xD;&#xA;&#x9;&#x9;c-11.917,2.927-22.68,8.993-28.275,24.248c-1.304,3.546-1.158,8.253-0.371,12.146c0.58,2.873,3.15,7.413,5.029,9.645&#xD;&#xA;&#x9;&#x9;c5.008,5.955,7.93,8.559,15.65,10.774c-5.391,4.154-12.725,4.781-19.102,3.071c-0.99-0.267-1.955-0.617-2.922-0.956l0.001-0.001&#xD;&#xA;&#x9;&#x9;c-6.573-2.756-13.042-6.809-17.864-9.799c-1.446-0.896-6.839-3.9-6.839-3.9c-8.533-3.845-19.812-6.35-29.167-6.354&#xD;&#xA;&#x9;&#x9;c-0.515,0-4.72-0.155-4.626,0.244c1.864,7.916-0.205,20.688-5.198,23.834c-1.756,1.105-4.757,2.828-6.848,2.127&#xD;&#xA;&#x9;&#x9;c-0.857-0.285-1.601-0.974-2.003-1.795c-0.373-0.767-0.779-2.941-0.895-3.836c-1.114-8.566,5.511-18.676,8.656-22.693&#xD;&#xA;&#x9;&#x9;c-9.229-1.264-20.265-12.878-16.24-23.854c9.994-0.726,17.092,7.175,19.566,16.259c0.252,0.933,0.171,2.037,0.745,2.836&#xD;&#xA;&#x9;&#x9;c1.868-1.147,22.516-14.161,23.711-15.456c0.204-0.219-14.176-17.814-12.065-23.49c2.891-7.771,24.163,10.764,29.262,9.493&#xD;&#xA;&#x9;&#x9;c0.01-0.002,0.018-0.009,0.028-0.012c0.148-0.04,0.286-0.092,0.405-0.167l0.009,0.008c0.018-0.015,0.035-0.029,0.053-0.044&#xD;&#xA;&#x9;&#x9;c0.033-0.023,0.075-0.035,0.104-0.062c0.024-0.021,0.035-0.046,0.051-0.069C95.09,30.743,119.926,28.1,135.825,40.68&#xD;&#xA;&#x9;&#x9;c3.083,2.439,5.013,4.902,7.221,9.453C137.344,48.182,126.701,47.43,120.541,48.942z"/>
      <path id="Gill_1_" d="M85.973,87.746c-6.252-3.096-7.216-15.947-4.332-21.365c0.613-1.155,2.125-3.783,2.98-3.402&#xD;&#xA;&#x9;&#x9;c1.59,0.705-0.131,2.106-0.652,3.213c-2.296,4.884-1.9,12.076,0.26,16.932c0.556,1.242,1.623,2.147,2.447,3.106&#xD;&#xA;&#x9;&#x9;C87.52,87.208,86.852,88.182,85.973,87.746z"/>
      <path id="Gill" d="M74.559,70.35c-0.17,1.878-0.405,2.244-0.419,3.876c-0.042,5.209,1.723,7.94,4.706,10.872&#xD;&#xA;&#x9;&#x9;c0.729,0.717,0.553,1.842-0.56,1.7c-2.282-0.284-3.354-2.739-4.379-4.539c-1.537-3.069-2.188-7.943-1.73-11.568&#xD;&#xA;&#x9;&#x9;C72.468,68.387,74.754,68.198,74.559,70.35z"/>
    </g>
    <g id="Fin">
      <path id="Fill_1_" fill="#2F8EFF" d="M65.521,108.919c0.582,1.295,3.254,1.467,4.472,1.606c5.788,0.664,12.551-2.678,15.978-7.373&#xD;&#xA;&#x9;&#x9;c0.698-0.96,1.223-4.029,2.82-3.985c-3.22-9.386-12.646-6.677-14.507-6.035c0.156,0.343,0.24,0.785,0.275,1.04&#xD;&#xA;&#x9;&#x9;C75.561,101.467,64.382,106.38,65.521,108.919z"/>
      <path id="Outline_1_" d="M89.325,99.277c-0.192-0.079-0.367-0.106-0.534-0.11c-1.598-0.044-2.122,3.025-2.82,3.985&#xD;&#xA;&#x9;&#x9;c-3.427,4.695-10.189,8.037-15.978,7.373c-1.218-0.14-3.89-0.312-4.472-1.606c-1.139-2.539,10.04-7.452,9.038-14.747&#xD;&#xA;&#x9;&#x9;c-0.035-0.255-0.12-0.697-0.275-1.04c-0.205-0.45-0.531-0.729-1.03-0.188c-1.698,9.274-12.358,12.203-12.531,15.642&#xD;&#xA;&#x9;&#x9;c-0.195,3.877,10.731,4.004,13.276,3.642c2.45-0.35,4.717-0.959,6.94-2.033c3.985-1.928,8.209-4.17,9.41-7.702&#xD;&#xA;&#x9;&#x9;C90.641,101.631,90.253,99.654,89.325,99.277z"/>
    </g>
    <g id="L_Eye">
      <path d="M97.152,26.395c-0.674,0.259-1.852-0.03-2.562-0.141c-2.816-0.439-8.146,0.635-10.296-0.331&#xD;&#xA;&#x9;&#x9;c-0.243-0.109-0.415-0.553-0.326-0.803c0.733-2.04,11.373-0.157,12.952,0.708C97.1,25.926,97.186,26.206,97.152,26.395z"/>
      <path d="M102.695,30.129c-1.408-2.953-5.608-4.921-8.711-4.773c-7.041,0.332-12.33,8.959-8.385,15.313&#xD;&#xA;&#x9;&#x9;C90.346,48.313,107.768,40.765,102.695,30.129z M98.547,38.779c-2.684,2.614-6.811,3.983-9.5,1.89&#xD;&#xA;&#x9;&#x9;c-2.958-2.302-1.96-7.308,0.66-10.545c2.65-3.276,8.148-3.271,10.521,0.241C102.121,33.164,100.945,36.442,98.547,38.779z"/>
      <path fill="#FFFFFF" d="M89.707,30.124c-2.62,3.237-3.618,8.243-0.66,10.545c2.689,2.093,6.816,0.724,9.5-1.89&#xD;&#xA;&#x9;&#x9;c2.398-2.337,3.574-5.615,1.682-8.414C97.855,26.853,92.357,26.848,89.707,30.124z"/>
      <ellipse cx="98.555" cy="34.534" rx="3.262" ry="2.718"/>
    </g>
    <g id="R_Eye">
      <path d="M116.598,27.507c0.512,0.062,1.281-0.347,1.756-0.549c1.885-0.801,5.771-0.991,7.102-2.04&#xD;&#xA;&#x9;&#x9;c0.148-0.119,0.191-0.457,0.089-0.615c-0.854-1.289-7.931,1.89-8.878,2.771C116.555,27.173,116.544,27.381,116.598,27.507z"/>
      <path d="M120.421,25.974c-2.222-0.105-5.229,1.303-6.239,3.419c-3.632,7.617,7.2,15.185,12.246,7.548&#xD;&#xA;&#x9;&#x9;C129.379,32.474,125.464,26.212,120.421,25.974z M123.581,36.517c-5.043,3.682-10.304-3.235-7.206-6.642&#xD;&#xA;&#x9;&#x9;c2.211-2.431,5.334-2.145,7.027,0.168C124.938,32.141,125.448,35.154,123.581,36.517z"/>
      <path fill="#FFFFFF" d="M116.375,29.875c-3.098,3.407,2.163,10.324,7.206,6.642c1.867-1.363,1.356-4.376-0.179-6.474&#xD;&#xA;&#x9;&#x9;C121.709,27.73,118.586,27.444,116.375,29.875z"/>
      <ellipse cx="123.536" cy="32.974" rx="2.417" ry="2.014"/>
    </g>
  </g>
</svg>