<svg version="1.1" width="121" height="130" viewBox="-1 -1 121 130" xmlns="http://www.w3.org/2000/svg" xmlns:xlink="http://www.w3.org/1999/xlink">
  <!-- Exported by Scratch - http://scratch.mit.edu/ -->
  <g id="ID0.335130050778389" transform="matrix(1, 0, 0, 1, 0.5, -0.25)">
    <g id="Page-1">
      <g id="casey-b-[sports,basketball,people,alex-eben-meyer]">
        <path id="Shape" fill="#006482" stroke="none" stroke-width="1" d="M 44.990 70.475 L 29.103 83.071 C 29.103 83.071 29.470 85.939 32.894 87.464 C 36.379 89.026 53.163 90.564 69.628 89.861 C 86.093 89.158 93.289 83.770 93.289 83.770 L 44.990 70.475 Z "/>
        <path id="Shape" fill="#281446" stroke="none" stroke-width="1" d="M 76.944 87.065 L 45.847 87.065 L 41.860 70.690 L 80.930 70.690 L 76.944 87.065 "/>
        <g id="Right-Arm">
          <path id="Shape" fill="#DC785A" stroke="none" stroke-width="1" d="M 47.178 3.900 C 45.221 3.245 46.054 13.026 40.672 12.982 C 37.084 12.954 37.458 7.579 36.948 5.127 C 36.589 3.413 36.649 0.514 34.405 0.114 C 32.168 1.999 34.082 12.367 30.617 13.206 C 27.153 14.045 27.428 6.584 26.379 4.923 C 23.732 0.669 23.944 13.042 24.015 13.821 C 24.681 20.814 21.452 35.711 16.014 40.979 C 10.576 46.247 0.952 47.561 0.952 47.561 L 7.538 69.690 C 10.987 67.534 26.922 68.528 40.138 47.545 C 51.308 29.812 49.132 4.555 47.178 3.900 Z " transform="matrix(1, 0, 0, 1, 71, 1)"/>
          <path id="Shape" fill="#DC5050" stroke="none" stroke-width="1" d="M 21.093 27.037 C 19.694 22.168 14.834 17.052 16.640 13.973 C 17.533 13.857 18.235 14.288 18.825 14.720 C 19.929 16.125 20.762 17.332 21.280 19.037 C 21.408 19.093 22.321 20.710 23.884 19.648 C 25.447 18.586 27.847 17.204 31.614 19.404 C 35.078 21.429 37.546 24.772 37.299 28.990 C 37.084 32.692 35.178 36.218 31.375 36.977 C 28.460 37.576 25.909 37.265 23.652 35.827 C 20.523 33.866 22.476 31.905 21.093 27.037 Z " transform="matrix(1, 0, 0, 1, 71, 1)"/>
        </g>
        <g id="Left-Arm">
          <path id="Shape" fill="#DC785A" stroke="none" stroke-width="1" d="M 24.482 23.456 C 22.326 10.699 23.793 6.334 23.123 4.233 C 22.246 1.522 20.767 2.692 19.934 4.657 C 19.344 5.963 18.120 15.863 14.870 11.902 C 13.898 10.703 13.471 8.774 13.348 7.369 C 13.156 5.192 13.930 2.133 12.419 0.351 C 9.361 -0.467 9.839 3.774 9.313 6.190 C 9.030 7.488 9.361 14.677 5.769 14.342 C 2.177 14.006 4.186 4.517 0.925 4.793 C 0.435 4.837 -0.973 22.325 1.196 32.749 C 4.039 46.412 11.163 54.192 15.668 57.679 C 28.517 67.599 38.982 69.380 41.494 70.023 L 45.449 48.481 C 42.817 48.129 37.395 45.809 31.946 40.573 C 27.062 35.876 25.515 29.486 24.482 23.456 Z "/>
          <path id="Shape" fill="#DC5050" stroke="none" stroke-width="1" d="M 24.024 17.381 L 24.478 17.101 C 24.419 15.644 25.774 10.140 28.122 10.560 C 30.167 10.927 27.903 16.906 27.592 18.148 C 26.902 20.916 26.165 23.340 26.460 26.199 C 26.755 29.059 26.408 32.338 24.128 34.271 C 21.847 36.204 13.088 37.011 11.370 28.963 C 9.680 21.031 16.090 13.731 24.024 17.381 Z "/>
        </g>
        <g id="Right-Leg">
          <path id="Shape" fill="#DC785A" stroke="none" stroke-width="1" d="M 4.418 14.626 L 4.817 29.527 L 15.058 29.878 C 15.058 29.878 15.481 15.193 15.613 14.278 L 4.418 14.626 Z " transform="matrix(1, 0, 0, 1, 67, 77)"/>
          <path id="Shape" fill="#FAF0E6" stroke="none" stroke-width="1" d="M 4.227 35.793 L 4.223 28.832 L 15.804 29.040 L 15.529 35.518 L 4.227 35.793 " transform="matrix(1, 0, 0, 1, 67, 77)"/>
          <path id="Shape" fill="#00A0DC" stroke="none" stroke-width="1" d="M 3.350 34.252 L 3.401 45.594 L 12.052 50.990 L 18.399 50.546 C 18.631 49.612 15.409 49.720 15.409 49.720 L 16.278 34.543 L 3.350 34.252 Z " transform="matrix(1, 0, 0, 1, 67, 77)"/>
          <path id="Oval" fill="#006482" stroke="none" stroke-width="1" d="M 7.591 36.548 C 8.294 36.548 8.931 36.834 9.392 37.296 C 9.853 37.758 10.139 38.396 10.139 39.100 C 10.139 39.804 9.853 40.442 9.392 40.904 C 8.931 41.366 8.294 41.652 7.591 41.652 C 6.889 41.652 6.252 41.366 5.790 40.904 C 5.329 40.442 5.044 39.804 5.044 39.100 C 5.044 38.396 5.329 37.758 5.790 37.296 C 6.252 36.834 6.889 36.548 7.591 36.548 Z " transform="matrix(1, 0, 0, 1, 67, 77)"/>
          <path id="Shape" fill="#FAF0E6" stroke="none" stroke-width="1" d="M 13.990 36.564 C 13.862 36.847 13.723 37.123 13.591 37.399 L 16.382 37.399 L 16.781 36.564 L 13.990 36.564 Z " transform="matrix(1, 0, 0, 1, 67, 77)"/>
          <path id="Shape" fill="#F0E6D2" stroke="none" stroke-width="1" d="M 13.986 38.972 C 13.930 39.112 13.866 39.248 13.799 39.372 L 13.587 39.795 L 16.753 39.795 L 16.753 38.956 L 13.986 38.972 Z " transform="matrix(1, 0, 0, 1, 67, 77)"/>
          <path id="Shape" fill="#FAF0E6" stroke="none" stroke-width="1" d="M 16.753 42.015 L 16.753 41.368 L 13.587 41.368 C 13.452 41.648 13.324 41.928 13.189 42.207 L 16.657 42.207 C 16.693 42.159 16.721 42.095 16.753 42.015 Z " transform="matrix(1, 0, 0, 1, 67, 77)"/>
          <path id="Shape" fill="#F0E6D2" stroke="none" stroke-width="1" d="M 16.653 43.988 C 16.689 43.925 16.721 43.861 16.753 43.797 L 13.388 43.797 C 13.360 43.857 13.332 43.917 13.308 43.980 C 13.213 44.200 13.113 44.416 13.017 44.635 L 16.346 44.635 C 16.446 44.412 16.546 44.200 16.653 43.988 Z " transform="matrix(1, 0, 0, 1, 67, 77)"/>
          <path id="Shape" fill="#FAF0E6" stroke="none" stroke-width="1" d="M 13.133 47.044 L 16.358 47.044 C 16.494 46.768 16.621 46.489 16.757 46.209 L 13.384 46.209 C 13.296 46.485 13.217 46.764 13.133 47.044 Z " transform="matrix(1, 0, 0, 1, 67, 77)"/>
          <path id="Shape" fill="#281446" stroke="none" stroke-width="1" d="M 10.701 50.402 C 10.211 44.891 3.421 45.578 3.421 45.578 L 3.421 51.641 L 18.272 51.641 L 18.415 50.530 L 10.701 50.402 Z " transform="matrix(1, 0, 0, 1, 67, 77)"/>
          <path id="Shape" fill="#281446" stroke="none" stroke-width="1" d="M 21.218 20.109 L 21.660 0.208 L 0.391 0.236 L 0.451 20.129 L 21.218 20.109 " transform="matrix(1, 0, 0, 1, 67, 77)"/>
        </g>
        <g id="Left-Leg">
          <path id="Shape" fill="#DC785A" stroke="none" stroke-width="1" d="M 17.536 14.626 L 17.138 29.527 L 6.896 29.878 C 6.896 29.878 6.473 15.193 6.338 14.278 L 17.536 14.626 Z " transform="matrix(1, 0, 0, 1, 34, 77)"/>
          <path id="Shape" fill="#FAF0E6" stroke="none" stroke-width="1" d="M 17.732 35.793 L 17.736 28.832 L 6.150 29.040 L 6.429 35.518 L 17.732 35.793 " transform="matrix(1, 0, 0, 1, 34, 77)"/>
          <path id="Shape" fill="#00A0DC" stroke="none" stroke-width="1" d="M 18.625 34.252 L 18.573 45.594 L 9.922 50.990 L 3.575 50.546 C 3.344 49.612 6.565 49.720 6.565 49.720 L 5.700 34.543 L 18.625 34.252 Z " transform="matrix(1, 0, 0, 1, 34, 77)"/>
          <path id="Oval" fill="#006482" stroke="none" stroke-width="1" d="M 14.367 36.548 C 15.070 36.548 15.706 36.834 16.168 37.296 C 16.629 37.758 16.914 38.396 16.914 39.100 C 16.914 39.804 16.629 40.442 16.168 40.904 C 15.706 41.366 15.070 41.652 14.367 41.652 C 13.664 41.652 13.027 41.366 12.566 40.904 C 12.105 40.442 11.819 39.804 11.819 39.100 C 11.819 38.396 12.105 37.758 12.566 37.296 C 13.027 36.834 13.664 36.548 14.367 36.548 Z " transform="matrix(1, 0, 0, 1, 34, 77)"/>
          <path id="Shape" fill="#FAF0E6" stroke="none" stroke-width="1" d="M 7.964 36.564 C 8.092 36.847 8.231 37.123 8.363 37.399 L 5.572 37.399 L 5.173 36.564 L 7.964 36.564 Z " transform="matrix(1, 0, 0, 1, 34, 77)"/>
          <path id="Shape" fill="#F0E6D2" stroke="none" stroke-width="1" d="M 7.972 38.972 C 8.028 39.112 8.088 39.248 8.159 39.372 L 8.367 39.795 L 5.201 39.795 L 5.201 38.956 L 7.972 38.972 Z " transform="matrix(1, 0, 0, 1, 34, 77)"/>
          <path id="Shape" fill="#FAF0E6" stroke="none" stroke-width="1" d="M 5.201 42.015 L 5.201 41.368 L 8.371 41.368 C 8.502 41.648 8.634 41.928 8.769 42.207 L 5.305 42.207 L 5.201 42.015 Z " transform="matrix(1, 0, 0, 1, 34, 77)"/>
          <path id="Shape" fill="#F0E6D2" stroke="none" stroke-width="1" d="M 5.301 43.988 L 5.201 43.797 L 8.570 43.797 C 8.594 43.857 8.622 43.917 8.646 43.980 C 8.742 44.200 8.841 44.416 8.941 44.635 L 5.608 44.635 C 5.508 44.412 5.409 44.200 5.301 43.988 Z " transform="matrix(1, 0, 0, 1, 34, 77)"/>
          <path id="Shape" fill="#FAF0E6" stroke="none" stroke-width="1" d="M 8.813 47.044 L 5.584 47.044 C 5.449 46.768 5.321 46.489 5.185 46.209 L 8.558 46.209 C 8.658 46.485 8.738 46.764 8.813 47.044 Z " transform="matrix(1, 0, 0, 1, 34, 77)"/>
          <path id="Shape" fill="#281446" stroke="none" stroke-width="1" d="M 11.257 50.402 C 11.744 44.891 18.533 45.578 18.533 45.578 L 18.533 51.641 L 3.698 51.641 L 3.555 50.530 L 11.257 50.402 Z " transform="matrix(1, 0, 0, 1, 34, 77)"/>
          <path id="Shape" fill="#281446" stroke="none" stroke-width="1" d="M 0.971 20.109 L 0.294 0.208 L 21.567 0.236 L 21.503 20.129 L 0.971 20.109 " transform="matrix(1, 0, 0, 1, 34, 77)"/>
        </g>
        <g id="Torso">
          <path id="Shape" fill="#DC785A" stroke="none" stroke-width="1" d="M 44.320 3.127 L 42.231 14.122 L 14.973 14.174 L 19 3.215 L 44.320 3.127 " transform="matrix(1, 0, 0, 1, 29, 44)"/>
          <path id="Shape" fill="#006482" stroke="none" stroke-width="1" d="M 46.636 3.007 L 50.587 1.426 L 60.856 24.222 L 55.785 28.428 L 46.636 3.007 " transform="matrix(1, 0, 0, 1, 29, 44)"/>
          <path id="Shape" fill="#006482" stroke="none" stroke-width="1" d="M 16.229 3.007 L 11.553 1.581 L 2.862 24.378 L 6.833 28.699 L 16.229 3.007 " transform="matrix(1, 0, 0, 1, 29, 44)"/>
          <path id="Shape" fill="#00A0DC" stroke="none" stroke-width="1" d="M 64.289 39.770 L 47.760 0.994 L 41.513 1.162 C 41.513 1.162 42.498 10.428 30.852 10.460 C 22.508 10.484 21.201 1.330 21.201 1.330 L 14.196 0.731 L 0.103 39.071 L 64.289 39.770 Z " transform="matrix(1, 0, 0, 1, 29, 44)"/>
        </g>
        <g id="Head">
          <path id="Shape" fill="#DC785A" stroke="none" stroke-width="1" d="M 28.369 33.020 C 28.249 32.828 28.935 27.788 29.696 26.299 C 30.370 24.981 32.336 23.631 33.727 24.441 C 35.449 25.452 34.895 27.956 34.126 29.310 C 33.001 31.311 30.518 32.369 28.369 33.020 Z " transform="matrix(1, 0, 0, 1, 41, 3)"/>
          <path id="Shape" fill="#DC785A" stroke="none" stroke-width="1" d="M 10.074 33.020 C 10.197 32.828 9.508 27.788 8.746 26.299 C 8.072 24.981 6.107 23.631 4.716 24.441 C 2.993 25.452 3.548 27.956 4.317 29.310 C 5.457 31.311 7.941 32.369 10.074 33.020 Z " transform="matrix(1, 0, 0, 1, 41, 3)"/>
          <path id="Shape" fill="#FFC800" stroke="none" stroke-width="1" d="M 27.073 14.792 C 29.182 16.985 36.442 7.076 37.478 5.707 C 35.916 2.436 32.918 1.106 29.389 0.954 C 28.355 3.217 27.700 5.635 27.448 8.111 C 27.209 10.227 26.710 12.672 27.073 14.792 Z " transform="matrix(1, 0, 0, 1, 41, 3)"/>
          <path id="Shape" fill="#006482" stroke="none" stroke-width="1" d="M 22.971 15.863 L 28.907 19.573 C 28.907 19.573 31.423 16.558 28.146 14.421 C 24.868 12.284 22.971 15.863 22.971 15.863 Z " transform="matrix(1, 0, 0, 1, 41, 3)"/>
          <path id="Shape" fill="#FFC800" stroke="none" stroke-width="1" d="M 10.795 14.609 C 8.682 16.801 1.423 6.893 0.390 5.523 C 1.953 2.252 4.947 0.922 8.479 0.770 C 9.514 3.033 10.172 5.451 10.429 7.927 C 10.656 10.044 11.158 12.488 10.795 14.609 Z " transform="matrix(1, 0, 0, 1, 41, 3)"/>
          <path id="Shape" fill="#006482" stroke="none" stroke-width="1" d="M 14.894 15.679 L 8.957 19.389 C 8.957 19.389 6.442 16.378 9.723 14.237 C 13.004 12.097 14.894 15.679 14.894 15.679 Z " transform="matrix(1, 0, 0, 1, 41, 3)"/>
          <path id="Shape" fill="#FFC800" stroke="none" stroke-width="1" d="M 30.952 20.220 L 7.558 20.164 C 7.558 20.164 7.742 14.066 19.817 14.141 C 29.314 14.217 30.952 20.220 30.952 20.220 Z " transform="matrix(1, 0, 0, 1, 41, 3)"/>
          <path id="Shape" fill="#DC785A" stroke="none" stroke-width="1" d="M 8.395 22.496 C 8.224 22.836 8.128 26.450 7.957 26.794 C 7.909 27.744 7.490 28.615 8.196 30.939 C 8.850 32.804 9.662 34.609 10.624 36.335 C 11.668 37.809 13.303 39.438 15.009 40.113 C 18.310 41.431 22.504 41.072 25.279 39.107 C 28.588 36.762 29.716 32.717 30.247 28.791 C 30.490 26.982 31.443 24.166 31.159 22.349 L 8.395 22.496 Z " transform="matrix(1, 0, 0, 1, 41, 3)"/>
          <path id="Shape" fill="#DC5050" stroke="none" stroke-width="1" d="M 21.193 26.954 C 21.121 28.743 16.771 29.518 16.895 26.646 C 17.019 23.774 16.851 21.877 18.860 21.853 C 20.870 21.830 21.256 25.152 21.193 26.954 Z " transform="matrix(1, 0, 0, 1, 41, 3)"/>
          <path id="Shape" fill="#FFC800" stroke="none" stroke-width="1" d="M 27.085 23.794 L 30.478 28.795 L 31.291 23.890 L 27.085 23.794 " transform="matrix(1, 0, 0, 1, 41, 3)"/>
          <path id="Shape" fill="#FFC800" stroke="none" stroke-width="1" d="M 11.198 23.794 L 7.809 28.795 L 6.992 23.890 L 11.198 23.794 " transform="matrix(1, 0, 0, 1, 41, 3)"/>
          <path id="Shape" fill="#00A0DC" stroke="none" stroke-width="1" d="M 32.076 25.775 C 32.475 24.090 32.874 20.683 31.793 19.537 L 7.323 19.537 C 6.203 20.436 5.975 24.453 6.075 26.059 L 32.076 25.775 Z " transform="matrix(1, 0, 0, 1, 41, 3)"/>
          <path id="Shape" fill="#000000" stroke="none" stroke-width="1" d="M 21.843 30.808 C 21.843 30.808 21.229 32.006 18.916 31.918 C 16.604 31.830 16.153 30.848 16.153 30.848 L 21.843 30.808 Z " transform="matrix(1, 0, 0, 1, 41, 3)"/>
          <path id="Shape" fill="#000000" stroke="none" stroke-width="1" d="M 26.228 28.212 C 25.542 29.162 24.813 27.589 25.574 26.910 C 26.068 26.954 26.240 27.309 26.228 28.212 Z " transform="matrix(1, 0, 0, 1, 41, 3)"/>
          <path id="Shape" fill="#000000" stroke="none" stroke-width="1" d="M 12.677 28.264 C 12.179 28.052 12.219 27.609 12.135 27.209 L 12.785 26.714 C 13.510 26.954 13.359 28.104 12.677 28.264 Z " transform="matrix(1, 0, 0, 1, 41, 3)"/>
          <path id="Shape" fill="#006482" stroke="none" stroke-width="1" d="M 32.427 24.290 L 5.852 24.282 L 6.199 21.019 L 32.427 20.915 L 32.427 24.290 " transform="matrix(1, 0, 0, 1, 41, 3)"/>
        </g>
      </g>
    </g>
  </g>
</svg>