<svg width="70px" height="75px" viewBox="0 0 70 75" version="1.1" xml:space="preserve" xmlns="http://www.w3.org/2000/svg" xmlns:xlink="http://www.w3.org/1999/xlink">
  <!-- Generator: Sketch 50.2 (55047) - http://www.bohemiancoding.com/sketch -->
  <defs/>
  <g>
    <title>Slice 1</title>
    <desc>Created with Sketch.</desc>
    <g id="Page-1" stroke="none" stroke-width="1" fill="none" fill-rule="evenodd">
      <g id="shorts-a-[people,fashion,pants,shorts,clothing]" transform="translate(1.000000, 1.000000)">
        <g id="Base">
          <path d="M63.58,35.28875 C62.8845455,25.345 60.6590909,9.805 59.3763636,1.27958333 C54.6318182,1.63416667 43.69,2.32791667 32.7327273,2.32791667 C21.08,2.32791667 11.6218182,1.71125 8.28363636,1.46458333 C7.00090909,10.0208333 4.80636364,25.4220833 4.11090909,35.28875 C3.56402251,47.5567629 3.6517147,59.8447475 4.37363636,72.10375 C9.87545455,72.7204167 22.8109091,73.95375 31.3263636,72.9208333 C31.3263636,72.9208333 32.2227273,37.6320833 34.1545455,37.6320833 C35.4527273,37.6320833 35.9781818,45.64875 36.4881818,53.04875 C36.9518182,59.9245833 37.1218182,72.9516667 37.1218182,72.9516667 C45.8686662,73.5864163 54.6564535,73.3799087 63.3636364,72.335 C64.0726583,59.998125 64.1448749,47.6330285 63.58,35.28875 Z" id="Shape" fill="#FFFF4F" fill-rule="nonzero"/>
          <path d="M4.11090909,35.28875 C4.80636364,25.4220833 7.00090909,10.0208333 8.28363636,1.46458333 L6.98545455,1.35666667 C5.31411301,3.3050096 4.29312518,5.72458604 4.06454545,8.27875 C2.25751038,19.759254 1.22488708,31.347793 0.973636364,42.96625 C0.973636364,58.1516667 1.66909091,71.7954167 1.66909091,71.7954167 L4.29636364,72.10375 C3.6001905,59.8434223 3.53829013,47.555438 4.11090909,35.28875 Z" id="Shape" fill="#F4EE2C" fill-rule="nonzero"/>
          <path d="M66.7327273,42.4420833 C66.3075726,30.6993204 64.9901574,19.00564 62.7918182,7.46166667 C62.0345455,2.52833333 61.8181818,1.09458333 61.8181818,1.09458333 L59.3763636,1.27958333 C60.6590909,9.805 62.8845455,25.345 63.58,35.28875 C64.122699,47.6186941 64.0298494,59.968313 63.3018182,72.28875 C64.9863636,72.0883333 65.9754545,71.9341667 65.9754545,71.9341667 C65.9754545,71.9341667 67.1809091,56.2091667 66.7327273,42.4420833 Z" id="Shape" fill="#FFFFFF" fill-rule="nonzero"/>
          <path d="M6.98545455,1.35666667 C5.31411301,3.3050096 4.29312518,5.72458604 4.06454545,8.27875 C2.25751038,19.759254 1.22488708,31.347793 0.973636364,42.96625 C0.973636364,58.1516667 1.66909091,71.7954167 1.66909091,71.7954167 C1.66909091,71.7954167 20.2145455,74.2620833 31.2490909,72.9208333 C31.2490909,72.9208333 32.1454545,37.6320833 34.0772727,37.6320833 C35.3754545,37.6320833 35.9009091,45.64875 36.4109091,53.04875 C36.8745455,59.9245833 37.0445455,72.9516667 37.0445455,72.9516667 C46.6691693,73.6331846 56.3386808,73.3180296 65.8981818,72.01125 C65.8981818,72.01125 67.1036364,56.24 66.6554545,42.4729167 C66.2302998,30.7301537 64.9128847,19.0364733 62.7145455,7.4925 L61.8181818,1.09458333 C61.8181818,1.09458333 47.2909091,2.32791667 32.7327273,2.32791667 C18.1745455,2.32791667 6.98545455,1.35666667 6.98545455,1.35666667 Z" id="Shape" stroke="#DB20A5" stroke-width="1.24" stroke-linecap="round" stroke-linejoin="round"/>
          <path d="M34.4172727,37.6320833 L34.4172727,10.8533333" id="Shape" stroke="#DB20A5" stroke-width="0.992" fill="#FFFFFF" fill-rule="nonzero" stroke-linecap="round" stroke-linejoin="round"/>
        </g>
        <g id="Belt" stroke-linecap="round" stroke-linejoin="round" transform="translate(3.090909, 0.000000)" stroke="#DB20A5">
          <path d="M28.3590909,2.3125 L28.3590909,10.7916667 C28.3590909,10.7916667 41.1090909,10.59125 48.1563636,10.175 C52.3367846,9.94180221 56.5006792,9.47341846 60.6281818,8.77208333 L59.3763636,1.06375 C59.3763636,1.06375 54.3381818,1.64958333 44.4936364,2.11208333 C39.1224109,2.45360818 33.737176,2.52050134 28.3590909,2.3125 Z" id="Shape" stroke-width="1.24" fill="#F4EE2C" fill-rule="nonzero"/>
          <path d="M1.08181818,1.18708333 L0.200909091,8.26333333 C0.200909091,8.26333333 17.68,10.0054167 28.3590909,10.0054167 L28.3590909,2.29708333 C28.3590909,2.29708333 21.6518182,2.29708333 14.28,1.95791667 C6.90818182,1.61875 1.08181818,1.18708333 1.08181818,1.18708333 Z" id="Shape" stroke-width="1.24" fill="#F4EE2C" fill-rule="nonzero"/>
          <path d="M49.2227273,1.03291667 C49.2227273,1.03291667 49.6245455,6.67541667 49.9336364,10.7916667 L53.3336364,10.3291667 C53.3336364,10.3291667 53.1018182,5.30333333 52.6227273,0.74 L49.2227273,1.03291667 Z" id="Shape" stroke-width="0.992" fill="#FFFF4F" fill-rule="nonzero"/>
          <path d="M11.9154545,1.03291667 C11.9154545,1.03291667 11.4981818,6.67541667 11.1890909,10.7916667 L7.80454545,10.3291667 C7.80454545,10.3291667 8.03636364,5.24166667 8.5,0.678333333 L11.9154545,1.03291667 Z" id="Shape" stroke-width="0.992" fill="#FFFF4F" fill-rule="nonzero"/>
          <ellipse id="Oval" stroke-width="0.8215" cx="33.6290909" cy="6.30541667" rx="1.54545455" ry="1.54166667"/>
        </g>
        <path d="M34.4172727,10.7916667 L39.3163636,10.6220833 C39.3163636,10.6220833 39.95,20.6120833 38.2345455,24.1733333 C37.5352735,25.8565356 36.1450574,27.1591253 34.4172727,27.75 L34.4172727,10.7916667 Z" id="Shape" stroke="#DB20A5" stroke-width="0.992" fill="#FFFF4F" fill-rule="nonzero" stroke-linecap="round" stroke-linejoin="round"/>
        <g id="Right-Pocket" transform="translate(55.636364, 35.458333)">
          <path d="M1.32909091,10.6220833 C1.32909091,10.6220833 1.46818182,21.41375 1.32909091,22.9554167 C4.90930783,23.0974185 8.4930134,22.7813747 11.9927273,22.015 L11.9927273,8.66416667 L1.32909091,10.6220833 Z" id="Shape" stroke="#DB20A5" stroke-width="0.992" fill="#FFFF4F" fill-rule="nonzero"/>
          <path d="M0,1.71125 C0,1.71125 0.587272727,7.27666667 0.695454545,10.4525 L8.42272727,12.4104167 L12.2709091,8.10916667 C12.2587328,5.49772151 12.109133,2.88871457 11.8227273,0.292916667 L0,1.71125 Z" id="Shape" stroke="#DB20A5" stroke-width="0.992" fill="#FFFF4F" fill-rule="nonzero"/>
          <path d="M9.69,2.32791667 C9.69,2.32791667 9.89090909,5.51916667 10.0763636,7.73916667" id="Shape" stroke="#FFFFFF" stroke-width="1.24"/>
          <path d="M10.2618182,12.8575 C10.2618182,12.8575 10.4163636,17.06625 10.2618182,20.5658333" id="Shape" stroke="#FFFFFF" stroke-width="1.24"/>
        </g>
        <g id="Left-Pocket" transform="translate(0.000000, 35.458333)">
          <path d="M11.0345455,10.6220833 C11.0345455,10.6220833 10.8954545,21.41375 11.0345455,22.9554167 C7.45432853,23.0974185 3.87062296,22.7813747 0.370909091,22.015 L0.370909091,8.66416667 L11.0345455,10.6220833 Z" id="Shape" stroke="#DB20A5" stroke-width="0.992" fill="#FFFF4F" fill-rule="nonzero"/>
          <path d="M11.9618182,1.35666667 C11.9618182,1.35666667 11.7918182,7.27666667 11.6836364,10.4525 L3.95636364,12.4104167 L0.108181818,8.10916667 C0.120358142,5.49772151 0.269957948,2.88871457 0.556363636,0.292916667 L11.9618182,1.35666667 Z" id="Shape" stroke="#DB20A5" stroke-width="0.992" fill="#FFFF4F" fill-rule="nonzero"/>
          <path d="M2.53454545,2.37416667 C2.53454545,2.37416667 2.42636364,5.6425 2.24090909,7.8625" id="Shape" stroke="#F4EE2C" stroke-width="1.24"/>
          <path d="M2.07090909,12.8575 C2.07090909,12.8575 1.91636364,17.06625 2.07090909,20.5658333" id="Shape" stroke="#F4EE2C" stroke-width="1.24"/>
        </g>
      </g>
    </g>
  </g>
</svg>