<svg width="87px" height="120px" viewBox="0 0 87 120" version="1.1" xml:space="preserve" xmlns="http://www.w3.org/2000/svg" xmlns:xlink="http://www.w3.org/1999/xlink">
  <defs/>
  <g>
    <title>drum-a</title>
    <desc>Created with Sketch.</desc>
    <g id="music" stroke="none" stroke-width="1" fill="none" fill-rule="evenodd">
      <g id="drum-a" fill-rule="nonzero">
        <g id="Group" transform="translate(5.000000, 7.000000)" fill="#010101">
          <path d="M25.9300699,2.9 C23.6643357,3.85 21.448951,4.85 19.2335664,5.75 C15.1552448,7.35 11.227972,9.25 7.14965035,10.9 C5.43776224,11.6 3.77622378,12.35 2.01398601,12.9 C1.71188811,13 1.40979021,13.15 1.10769231,13 C0.100699301,12.55 0.201398601,11.75 0.805594406,11.2 C1.00699301,11 1.25874126,10.9 1.51048951,10.8 C4.73286713,9.45 7.95524476,8.1 11.1776224,6.75 C15.7090909,4.9 20.441958,3.5 24.9734266,1.7 C25.3762238,1.55 25.627972,1.25 25.8797203,0.95 C26.4839161,0.35 27.1888112,0.3 27.8433566,0.75 C28.3972028,1.15 28.5482517,2 28.1958042,2.6 C27.8433566,3.2 27.0377622,3.45 26.4335664,3.1 C26.3832168,3.05 26.2825175,3 26.2321678,2.95 C26.1314685,3 26.0811189,2.95 25.9300699,2.9 Z" id="Shape"/>
          <path d="M44.7608392,2.9 C44.4083916,3.4 44.0559441,3.7 43.4517483,3.65 C42.5958042,3.55 42.041958,2.9 42.1426573,2.1 C42.2433566,1.3 42.9986014,0.75 43.8041958,0.9 C43.9048951,0.9 44.0559441,0.9 44.1566434,1 C44.9622378,1.7 45.9692308,1.55 46.8755245,1.65 C49.6447552,1.85 52.413986,2 55.1832168,2.2 C58.8587413,2.45 62.5342657,2.7 66.2601399,2.95 C67.5692308,3.05 68.8783217,3.25 70.2377622,3.35 C70.7916084,3.4 71.2447552,3.6 71.6475524,3.95 C72,4.3 71.9496503,4.8 71.5468531,5.1 C71.0937063,5.45 70.5398601,5.55 69.9356643,5.55 C69.4825175,5.55 69.0293706,5.5 68.6265734,5.5 C64.5482517,5.25 60.4699301,4.8 56.3916084,4.3 C54.3776224,4.05 52.3132867,3.85 50.2993007,3.6 C48.4363636,3.4 46.6741259,3.15 44.7608392,2.9 Z" id="Shape"/>
        </g>
        <g id="Group" transform="translate(20.608392, 18.500000)">
          <path d="M1.30909091,10.8 C0.654545455,10.5 0.604195804,9.85 0.553846154,9.15 C0.453146853,8 0.503496503,6.85 0.453146853,5.7 C0.453146853,5.1 0.704895105,4.7 1.15804196,4.4 C2.06433566,3.8 3.07132867,3.35 4.07832168,3 C6.7972028,2.05 9.56643357,1.5 12.386014,1.1 C16.3132867,0.55 20.2405594,0.3 24.1678322,0.35 C27.5412587,0.4 30.9146853,0.7 34.2377622,1.3 C35.0937063,1.45 35.9496503,1.75 36.8055944,1.95 C37.006993,2 37.2083916,2.1 37.3594406,2.15 C38.5678322,2.7 39.2223776,3.65 39.2727273,4.95 C39.3230769,6.25 39.2223776,7.5 39.1216783,8.75 C39.0713287,9.25 38.6181818,9.35 38.3160839,9.75 C38.2657343,16.15 38.2657343,22.7 38.2153846,29.2 C38.165035,35.65 38.0643357,42.15 37.9636364,48.65 C38.6685315,48.95 38.8195804,49.55 38.8699301,50.2 C38.9706294,51.65 39.020979,53.05 38.9706294,54.5 C38.9706294,55.1 38.7692308,55.5 38.2657343,55.8 C37.6111888,56.15 37.006993,56.45 36.3524476,56.8 C34.3888112,57.8 32.3748252,58.45 30.2097902,58.8 C29.3034965,58.95 28.3972028,59.15 27.4909091,59.3 C26.2321678,59.5 24.9230769,59.7 23.6643357,59.8 C21.1972028,60 18.7804196,60.1 16.3132867,59.95 C15.1552448,59.9 13.9972028,59.85 12.8391608,59.6 C11.379021,59.3 9.91888112,59.1 8.45874126,58.7 C6.5958042,58.15 4.83356643,57.45 3.07132867,56.6 C2.41678322,56.3 1.86293706,55.85 1.25874126,55.45 C1.00699301,55.3 0.855944056,55.05 0.855944056,54.75 C0.855944056,54.5 0.805594406,54.25 0.855944056,54.05 C0.956643357,52.8 1.00699301,51.6 1.10769231,50.35 C1.10769231,50.1 1.10769231,49.8 1.25874126,49.65 C1.71188811,49.2 1.66153846,48.65 1.66153846,48.1 C1.66153846,46 1.66153846,43.85 1.46013986,41.75 C1.40979021,41.05 1.51048951,40.3 1.51048951,39.6 C1.46013986,38.25 1.35944056,36.9 1.35944056,35.55 C1.35944056,32.55 1.20839161,29.55 1.25874126,26.55 C1.30909091,22.55 1.25874126,18.55 1.25874126,14.55 C1.30909091,13.25 1.30909091,12.05 1.30909091,10.8 Z M12.5370629,9.1 C12.4867133,9.05 12.386014,9 12.3356643,9 C10.0699301,8.9 7.85454545,8.6 5.68951049,8.15 C4.53146853,7.9 3.32307692,7.65 2.26573427,7.15 C2.01398601,7.05 1.81258741,6.9 1.46013986,6.95 C1.51048951,7.5 1.61118881,8.05 1.56083916,8.6 C1.51048951,9.5 1.96363636,10 2.76923077,10.3 C2.97062937,10.35 3.12167832,10.45 3.32307692,10.5 C5.18601399,11.1 7.0993007,11.5 9.06293706,11.8 C9.96923077,11.95 10.8755245,12.1 11.7818182,11.95 C12.0839161,12 12.4363636,12.05 12.7384615,11.95 C12.8895105,12 13.0405594,12.05 13.1916084,12.05 C15.558042,12.1 17.9244755,12.15 20.2909091,12.05 C23.765035,11.85 27.1888112,11.6 30.5622378,10.95 C32.3244755,10.6 33.986014,10.2 35.6475524,9.6 C36.5034965,9.3 37.3090909,8.85 38.0643357,8.25 C38.2153846,7.25 38.2657343,6.3 38.2153846,5.35 C37.9636364,5.3 37.8629371,5.4 37.7118881,5.45 C36.9062937,5.85 36.0503497,6.3 35.1944056,6.65 C33.8853147,7.2 32.4755245,7.45 31.1160839,7.7 C28.2965035,8.3 25.4265734,8.75 22.5062937,8.85 C20.8951049,8.9 19.2839161,9 17.6727273,9.05 C16.9678322,8.95 16.2125874,8.95 15.5076923,9.05 C14.551049,8.95 13.5944056,8.95 12.5874126,9.05 C12.6377622,9.05 12.5874126,9.05 12.5370629,9.1 Z M12.234965,54.75 C12.0839161,54.75 11.9328671,54.7 11.7818182,54.7 C11.6811189,54.65 11.5804196,54.55 11.4797203,54.55 C9.46573427,54.25 7.5020979,53.55 5.58881119,52.95 C4.68251748,52.7 3.77622378,52.3 2.97062937,51.8 C2.71888112,51.65 2.51748252,51.5 2.11468531,51.55 C2.01398601,52.5 1.91328671,53.5 1.96363636,54.5 C2.46713287,55 3.02097902,55.4 3.62517483,55.65 C5.63916084,56.5 7.7034965,57.35 9.81818182,57.85 C11.0769231,58.15 12.3356643,58.3 13.5944056,58.45 C15.8601399,58.75 18.1258741,58.9 20.441958,58.75 C20.7944056,58.75 21.1468531,58.85 21.4993007,58.6 C21.751049,58.6 21.9524476,58.65 22.2041958,58.65 C25.3258741,58.55 28.4475524,58.05 31.4685315,57.3 C33.4825175,56.8 35.3958042,56.1 37.1076923,55 C37.3594406,54.85 37.6615385,54.7 37.8629371,54.3 C37.7622378,53.25 37.9132867,52.1 37.7622378,51 C37.5104895,50.9 37.3594406,51 37.2587413,51.1 C35.848951,52.25 34.2377622,52.9 32.5258741,53.4 C30.1594406,54.1 27.793007,54.55 25.3258741,54.75 C24.4699301,54.85 23.5636364,54.85 22.7076923,55 C21.8517483,55.15 20.9454545,55.2 20.0895105,55.2 C19.7370629,55.2 19.3846154,55.2 19.0321678,55.25 C18.4783217,55.25 17.9244755,55.2 17.3706294,55.2 C15.6587413,55.05 13.9468531,54.9 12.234965,54.75 Z M14.6517483,53.8 C15.8097902,54.1 17.0181818,53.95 18.2265734,53.9 C19.3846154,53.95 20.5426573,54 21.6503497,53.8 C24.2685315,53.85 26.8867133,53.4 29.3538462,52.95 C29.6055944,52.6 29.6055944,52.3 29.6055944,52.05 C29.6055944,51.7 29.6055944,51.35 29.6055944,50.95 C29.7566434,49.35 30.3104895,48 31.6195804,47.05 C31.7706294,46.95 31.8713287,46.9 31.972028,46.85 C32.0223776,45.85 32.0223776,44.95 32.0727273,44.1 C32.1230769,40.55 31.972028,37 32.2237762,33.5 C32.3244755,31.95 32.3244755,30.4 32.3244755,28.85 C32.3244755,27.05 32.2741259,25.25 32.3748252,23.45 C32.4755245,21.5 32.5258741,19.55 32.5258741,17.6 C32.5258741,17.3 32.5762238,16.95 32.3244755,16.55 C31.1664336,16.1 30.7132867,15 30.4111888,13.8 C30.3608392,13.55 30.3608392,13.25 30.3104895,12.95 C30.2601399,12.7 30.2601399,12.45 29.958042,12.3 C29.3538462,12.5 28.5986014,12.45 27.8937063,12.6 C25.5776224,13 23.2111888,13.25 20.8447552,13.25 C19.586014,13.25 18.3776224,13.3 17.1188811,13.35 C17.0181818,13.35 16.8671329,13.35 16.7664336,13.35 C15.9104895,13.2 15.0545455,13.25 14.1986014,13.3 C13.6447552,13.2 13.0405594,13.2 12.4867133,13.25 C11.8321678,13.2 11.1272727,13.1 10.4727273,13.05 C10.220979,13.45 10.3216783,13.85 10.3216783,14.25 C10.1706294,15.7 9.86853147,17 8.15664336,17.5 C8.15664336,17.8 8.15664336,18 8.15664336,18.25 C8.15664336,20.15 8.20699301,22 8.15664336,23.85 C8.10629371,26.3 8.20699301,28.8 8.00559441,31.25 C7.9048951,32.3 8.00559441,33.4 8.05594406,34.45 C8.20699301,38.25 8.20699301,42.1 8.15664336,45.95 C8.15664336,46.4 8.15664336,46.8 8.15664336,47.2 C9.71748252,48.65 10.2713287,50.6 10.0195804,53.1 C10.8251748,53.45 11.6811189,53.6 12.5370629,53.55 C13.1916084,53.75 13.8965035,53.8 14.6517483,53.8 Z M2.26573427,11.3 C2.26573427,11.8 2.26573427,12.15 2.26573427,12.5 C2.26573427,15 2.31608392,17.55 2.31608392,20.05 C2.31608392,25.35 2.26573427,30.6 2.36643357,35.9 C2.41678322,38.05 2.51748252,40.2 2.51748252,42.35 C2.51748252,44.8 2.51748252,47.25 2.51748252,49.65 C2.51748252,49.85 2.51748252,50.05 2.56783217,50.25 C2.61818182,50.4 2.71888112,50.55 2.92027972,50.5 C3.12167832,50.45 3.12167832,50.25 3.12167832,50.1 C3.12167832,49.8 3.12167832,49.45 3.12167832,49.15 C3.12167832,47.7 3.17202797,46.25 3.17202797,44.85 C3.17202797,44.55 3.17202797,44.2 3.52447552,44.05 C3.67552448,44.1 3.82657343,44.2 3.82657343,44.4 C3.92727273,45.5 4.12867133,46.6 4.02797203,47.7 C3.92727273,48.8 3.97762238,49.95 3.92727273,51.05 C3.92727273,51.2 4.02797203,51.35 4.22937063,51.35 C4.27972028,51.25 4.33006993,51.15 4.33006993,51.05 C4.43076923,49.55 4.53146853,48 4.58181818,46.5 C4.58181818,46.3 4.58181818,46.1 4.63216783,45.9 C4.63216783,45.75 4.78321678,45.6 4.98461538,45.55 C5.68951049,46.35 5.13566434,47.35 5.38741259,48.25 C5.84055944,47.9 6.24335664,47.6 6.6965035,47.25 C6.6965035,46.9 6.74685315,46.55 6.74685315,46.2 C6.74685315,41.7 6.6965035,37.15 6.64615385,32.65 C6.64615385,32.25 6.4951049,31.85 6.54545455,31.45 C6.74685315,30.4 6.64615385,29.4 6.6965035,28.35 C6.6965035,26.45 6.74685315,24.5 6.7972028,22.6 C6.84755245,21.2 6.8979021,19.85 6.8979021,18.45 C6.8979021,17.8 6.7972028,17.3 6.09230769,17 C5.58881119,16.8 5.33706294,16.3 5.18601399,15.7 C4.98461538,14.85 4.93426573,13.95 4.93426573,13.1 C4.93426573,12.85 5.03496503,12.55 4.73286713,12.2 C4.12867133,12.05 3.37342657,11.5 2.26573427,11.3 Z M33.5832168,16.7 C33.5832168,17.3 33.5832168,17.8 33.5832168,18.35 C33.6335664,19.4 33.7846154,20.4 33.5328671,21.45 C33.4825175,21.65 33.5328671,21.85 33.5328671,22.05 C33.5328671,24.8 33.4825175,27.55 33.4825175,30.3 C33.4825175,31.05 33.3314685,31.8 33.3314685,32.55 C33.2811189,36 33.2811189,39.4 33.2811189,42.85 C33.2811189,43.85 33.3314685,44.85 33.1804196,45.85 C33.0797203,46.6 33.0797203,46.6 33.986014,46.9 C33.986014,46.4 33.986014,45.95 33.986014,45.45 C33.986014,45 33.834965,44.5 34.1874126,44.15 C34.5902098,44.2 34.6909091,44.4 34.6909091,44.65 C34.6909091,45.65 35.0433566,46.6 34.993007,47.6 C34.9426573,48.15 35.0433566,48.7 34.993007,49.3 C34.993007,49.9 35.1440559,50.45 35.2951049,51.1 C35.4965035,50.8 35.4461538,50.55 35.4461538,50.3 C35.4461538,48.1 35.4461538,45.9 35.4461538,43.7 C35.4461538,43.45 35.4461538,43.2 35.4965035,43 C35.4965035,42.85 35.6475524,42.7 35.848951,42.7 C36,42.7 36.151049,42.8 36.2013986,42.95 C36.2517483,43.05 36.2517483,43.2 36.2517483,43.3 C36.4531469,45.1 36.5034965,46.9 36.4531469,48.65 C36.4531469,49.15 36.4531469,49.65 36.5034965,50.25 C37.006993,49.9 36.9566434,49.45 36.9566434,49 C36.9566434,47.75 36.9566434,46.5 37.006993,45.3 C37.0573427,41.9 37.006993,38.5 37.1076923,35.15 C37.158042,33.7 37.158042,32.3 37.2083916,30.85 C37.2587413,26.25 37.2587413,21.65 37.2587413,17.05 C37.2587413,15 37.3090909,12.95 37.3090909,10.95 C37.3090909,10.75 37.4097902,10.45 37.0573427,10.3 C36.6041958,10.55 36.0503497,10.65 35.5972028,11.05 C35.5972028,11.8 35.6475524,12.55 35.5972028,13.3 C35.3958042,14.75 34.8923077,15.95 33.5832168,16.7 Z M4.38041958,6.6 C4.78321678,6.75 4.98461538,6.9 5.23636364,6.9 C6.6965035,7.2 8.15664336,7.5 9.61678322,7.65 C11.7314685,7.85 13.8965035,7.9 16.0111888,7.9 C20.441958,7.9 24.8727273,7.7 29.2027972,6.9 C31.1160839,6.55 32.979021,6.2 34.7916084,5.55 C34.993007,5.45 35.1440559,5.35 35.0433566,5.05 C34.6909091,4.95 34.3384615,4.85 33.9356643,4.75 C32.0223776,4.4 30.0587413,4.05 28.0951049,3.9 C24.8727273,3.65 21.6503497,3.65 18.427972,3.85 C15.1552448,4.05 11.9328671,4.35 8.76083916,5.2 C7.4013986,5.65 5.99160839,6 4.38041958,6.6 Z M37.8629371,3.85 C37.2083916,3.15 36.4027972,2.9 35.5972028,2.65 C34.6405594,2.35 33.6335664,2.2 32.6265734,2.05 C30.7636364,1.7 28.9006993,1.5 26.9874126,1.45 C25.627972,1.4 24.2685315,1.4 22.8587413,1.4 C20.3916084,1.4 17.9748252,1.5 15.5076923,1.75 C13.2923077,1.95 11.1272727,2.25 8.96223776,2.7 C6.9986014,3.1 5.03496503,3.6 3.17202797,4.35 C2.66853147,4.55 2.21538462,4.8 1.86293706,5.15 C1.76223776,5.25 1.71188811,5.45 1.76223776,5.6 C1.96363636,6.05 2.97062937,6.4 3.42377622,6.1 C4.12867133,5.65 4.93426573,5.3 5.73986014,5.05 C6.84755245,4.7 7.95524476,4.35 9.11328671,4.1 C12.2853147,3.35 15.5076923,2.95 18.7804196,2.85 C20.1902098,2.8 21.6,2.85 23.0097902,2.8 C26.0307692,2.75 29.0517483,2.9 32.0223776,3.35 C33.4825175,3.6 34.993007,3.75 36.3524476,4.35 C37.0573427,4.65 37.5104895,4.55 37.8629371,3.85 Z M30.6125874,52.65 C31.7202797,52.45 32.7272727,52.15 33.6335664,51.8 C33.986014,50.8 33.986014,50.1 33.6839161,49.05 C33.5328671,48.55 33.4321678,48 32.8783217,47.75 C31.9216783,47.9 31.4181818,48.55 31.0657343,49.3 C30.6629371,50.35 30.5118881,51.4 30.6125874,52.65 Z M8.81118881,52.85 C8.96223776,51.4 8.71048951,50.1 8.10629371,48.9 C8.05594406,48.75 7.95524476,48.65 7.8041958,48.5 C7.55244755,48.25 7.2,48.2 6.94825175,48.4 C6.54545455,48.7 6.24335664,49.15 6.09230769,49.65 C5.89090909,50.35 5.73986014,51.1 5.68951049,51.9 C6.6965035,52.35 7.65314685,52.65 8.81118881,52.85 Z M9.01258741,12.8 C8.05594406,12.85 7.2,12.45 6.24335664,12.4 C6.14265734,13.35 6.14265734,14.3 6.44475524,15.25 C6.64615385,15.95 7.14965035,16.3 7.85454545,16.25 C8.40839161,16.25 8.81118881,15.9 9.01258741,15.2 C9.16363636,14.5 9.16363636,13.75 9.01258741,12.8 Z M31.2671329,12.1 C31.2671329,12.35 31.2671329,12.6 31.3174825,12.85 C31.4181818,13.3 31.4685315,13.8 31.6195804,14.25 C31.7202797,14.65 31.972028,14.95 32.2741259,15.25 C32.827972,15.75 33.3818182,15.7 33.7846154,15.05 C34.4895105,13.95 34.4391608,12.75 34.1874126,11.5 C33.1300699,11.65 32.2237762,11.75 31.2671329,12.1 Z" id="Shape" fill="#010000"/>
          <path d="M17.1188811,13.3 C18.3776224,13.25 19.586014,13.25 20.8447552,13.2 C23.2111888,13.2 25.5776224,12.95 27.8937063,12.55 C28.5986014,12.45 29.3034965,12.45 29.958042,12.25 C30.3104895,12.45 30.3104895,12.7 30.3104895,12.9 C30.3608392,13.2 30.3608392,13.45 30.4111888,13.75 C30.7132867,14.95 31.1160839,16.05 32.3244755,16.5 C32.5762238,16.9 32.5258741,17.2 32.5258741,17.55 C32.4755245,19.5 32.4755245,21.45 32.3748252,23.4 C32.2741259,25.2 32.3244755,27 32.3244755,28.8 C32.3244755,30.35 32.3244755,31.9 32.2237762,33.45 C31.972028,37 32.1230769,40.55 32.0727273,44.05 C32.0727273,44.95 32.0223776,45.8 31.972028,46.8 C31.9216783,46.85 31.7706294,46.9 31.6195804,47 C30.2601399,47.95 29.7062937,49.3 29.6055944,50.9 C29.5552448,51.25 29.6055944,51.6 29.6055944,52 C29.6055944,52.3 29.6055944,52.55 29.3538462,52.9 C26.8867133,53.4 24.3188811,53.85 21.6503497,53.75 C21.6503497,50.95 21.6503497,48.15 21.6503497,45.35 C21.6503497,45 21.7006993,44.6 21.6,44.3 C21.3986014,43.8 21.448951,43.3 21.448951,42.75 C21.448951,39.9 21.448951,37.1 21.448951,34.25 C21.448951,33.95 21.4993007,33.55 21.3986014,33.3 C21.1468531,32.7 21.2475524,32.1 21.1972028,31.55 C21.1972028,28.85 21.1468531,26.2 21.1972028,23.5 C21.1972028,22.75 20.8951049,22.05 21.1468531,21.3 C20.7944056,20.6 20.9958042,19.9 20.9454545,19.2 C20.8951049,18.3 20.8951049,17.35 20.9454545,16.45 C20.9958042,15.45 20.6937063,14.5 20.6433566,13.45 C19.6867133,13.4 18.8307692,13.45 17.9748252,13.4 C17.6727273,13.4 17.3706294,13.55 17.1188811,13.3 Z" id="Shape" fill="#DD002B"/>
          <path d="M17.1188811,13.3 C17.3706294,13.55 17.6223776,13.4 17.9244755,13.45 C18.7804196,13.5 19.6867133,13.4 20.593007,13.5 C20.6433566,14.55 20.9958042,15.5 20.8951049,16.5 C20.8447552,17.4 20.8951049,18.35 20.8951049,19.25 C20.8951049,19.95 20.7440559,20.7 21.0965035,21.35 C20.8447552,22.1 21.1468531,22.8 21.1468531,23.55 C21.1468531,26.25 21.1468531,28.9 21.1468531,31.6 C21.1468531,32.2 21.0965035,32.8 21.3482517,33.35 C21.448951,33.65 21.3986014,34 21.3986014,34.3 C21.3986014,37.15 21.3986014,39.95 21.3986014,42.8 C21.3986014,43.3 21.3482517,43.8 21.5496503,44.35 C21.6503497,44.65 21.6,45.05 21.6,45.4 C21.6,48.2 21.6,51 21.6,53.8 C20.441958,54.05 19.3342657,53.95 18.1762238,53.9 C17.9748252,53.6 17.5216783,53.9 17.2699301,53.45 C17.2699301,53 17.2699301,52.45 17.2699301,51.9 C17.2699301,51.6 17.2699301,51.25 17.1692308,50.95 C17.0181818,50.55 17.0181818,50.15 17.0181818,49.75 C17.0181818,49.05 17.1188811,48.35 16.9678322,47.7 C16.6657343,46.35 16.8167832,45 16.7664336,43.65 C16.7664336,43.4 16.8167832,43.15 16.7160839,42.95 C16.413986,42.25 16.5146853,41.55 16.5146853,40.8 C16.5146853,39.35 16.5146853,37.9 16.5146853,36.5 C16.5146853,36.2 16.565035,35.9 16.4643357,35.65 C16.2125874,35.1 16.2629371,34.55 16.2629371,34 C16.2629371,27.5 16.2629371,21.05 16.2629371,14.55 C16.2629371,14.2 16.2629371,13.85 16.2629371,13.5 C16.413986,13.35 16.565035,13.3 16.6657343,13.2 C16.8671329,13.3 17.0181818,13.3 17.1188811,13.3 Z" id="Shape" fill="#F73D61"/>
          <path d="M2.26573427,11.3 C3.37342657,11.5 4.12867133,12.05 4.93426573,12.1 C5.23636364,12.45 5.18601399,12.75 5.13566434,13 C5.08531469,13.9 5.18601399,14.75 5.38741259,15.6 C5.53846154,16.2 5.79020979,16.7 6.29370629,16.9 C6.9986014,17.2 7.0993007,17.7 7.0993007,18.35 C7.0993007,19.75 7.04895105,21.1 6.9986014,22.5 C6.94825175,24.4 6.8979021,26.35 6.8979021,28.25 C6.8979021,29.3 6.94825175,30.3 6.74685315,31.35 C6.6965035,31.75 6.7972028,32.15 6.84755245,32.55 C6.8979021,37.05 6.8979021,41.6 6.94825175,46.1 C6.94825175,46.45 6.8979021,46.8 6.8979021,47.15 C6.44475524,47.5 6.04195804,47.8 5.58881119,48.15 C5.28671329,47.25 5.84055944,46.25 5.18601399,45.45 C4.98461538,45.55 4.83356643,45.65 4.83356643,45.8 C4.78321678,46 4.78321678,46.2 4.78321678,46.4 C4.68251748,47.9 4.63216783,49.45 4.53146853,50.95 C4.53146853,51.05 4.48111888,51.15 4.43076923,51.25 C4.22937063,51.25 4.07832168,51.15 4.12867133,50.95 C4.17902098,49.85 4.17902098,48.7 4.22937063,47.6 C4.33006993,46.5 4.12867133,45.4 4.02797203,44.3 C4.02797203,44.15 3.87692308,44.05 3.72587413,43.95 C3.37342657,44.1 3.37342657,44.45 3.37342657,44.75 C3.37342657,46.2 3.32307692,47.65 3.32307692,49.05 C3.32307692,49.35 3.32307692,49.7 3.32307692,50 C3.32307692,50.15 3.27272727,50.3 3.12167832,50.4 C2.92027972,50.4 2.81958042,50.3 2.76923077,50.15 C2.71888112,49.95 2.71888112,49.75 2.71888112,49.55 C2.71888112,47.1 2.71888112,44.65 2.71888112,42.25 C2.71888112,40.1 2.56783217,37.95 2.56783217,35.8 C2.46713287,30.55 2.51748252,25.25 2.51748252,19.95 C2.51748252,17.45 2.46713287,14.9 2.46713287,12.4 C2.26573427,12.15 2.26573427,11.8 2.26573427,11.3 Z" id="Shape" fill="#DD002B"/>
          <path d="M12.4363636,53.5 C11.5300699,53.55 10.7244755,53.4 9.91888112,53.05 C10.220979,50.5 9.61678322,48.6 8.05594406,47.15 C8.05594406,46.8 8.05594406,46.35 8.05594406,45.9 C8.10629371,42.05 8.10629371,38.25 7.95524476,34.4 C7.9048951,33.35 7.8041958,32.25 7.9048951,31.2 C8.15664336,28.75 8.00559441,26.25 8.05594406,23.8 C8.10629371,21.95 8.05594406,20.05 8.05594406,18.2 C8.05594406,17.95 8.05594406,17.75 8.05594406,17.45 C9.71748252,16.95 10.0699301,15.65 10.220979,14.2 C10.2713287,13.8 10.1202797,13.4 10.372028,13 C11.0769231,13.1 11.7314685,13.15 12.386014,13.2 C12.386014,14.5 12.386014,15.75 12.386014,17.05 C12.386014,17.3 12.4363636,17.55 12.3356643,17.75 C12.0839161,18.3 12.1342657,18.85 12.1342657,19.4 C12.1342657,23.75 12.1342657,28.1 12.1342657,32.45 C12.1342657,35.6 12.0839161,38.75 12.1342657,41.9 C12.1846154,45.1 11.9328671,48.25 12.3356643,51.45 C12.5370629,52.15 12.4363636,52.85 12.4363636,53.5 Z" id="Shape" fill="#DD002B"/>
          <path d="M33.5832168,16.7 C34.8923077,15.9 35.3958042,14.75 35.4461538,13.35 C35.4965035,12.6 35.4461538,11.85 35.4461538,11.1 C35.8993007,10.7 36.4531469,10.6 36.9062937,10.35 C37.2587413,10.5 37.158042,10.8 37.158042,11 C37.158042,13.05 37.1076923,15.1 37.1076923,17.1 C37.1076923,21.7 37.1076923,26.3 37.0573427,30.9 C37.0573427,32.35 37.006993,33.75 36.9566434,35.2 C36.8559441,38.6 36.8559441,41.95 36.8559441,45.35 C36.8559441,46.6 36.8559441,47.85 36.8055944,49.05 C36.8055944,49.45 36.8559441,49.95 36.3524476,50.3 C36.3524476,49.75 36.3020979,49.2 36.3020979,48.7 C36.3524476,46.9 36.3020979,45.1 36.1006993,43.35 C36.1006993,43.25 36.1006993,43.1 36.0503497,43 C36,42.85 35.848951,42.75 35.6979021,42.75 C35.5468531,42.75 35.3958042,42.85 35.3454545,43.05 C35.2951049,43.3 35.2951049,43.55 35.2951049,43.75 C35.2951049,45.95 35.2951049,48.15 35.2951049,50.35 C35.2951049,50.6 35.3454545,50.85 35.1440559,51.15 C34.993007,50.5 34.841958,49.95 34.841958,49.35 C34.841958,48.8 34.7916084,48.25 34.841958,47.65 C34.8923077,46.65 34.5902098,45.7 34.5398601,44.7 C34.5398601,44.45 34.3888112,44.25 34.0363636,44.2 C33.6839161,44.55 33.834965,45.05 33.834965,45.5 C33.834965,45.95 33.834965,46.45 33.834965,46.95 C32.9286713,46.6 32.9286713,46.6 33.0293706,45.9 C33.1804196,44.9 33.1300699,43.9 33.1300699,42.9 C33.1804196,39.45 33.1804196,36.05 33.1804196,32.6 C33.1804196,31.85 33.3314685,31.1 33.3314685,30.35 C33.3818182,27.6 33.3818182,24.85 33.3818182,22.1 C33.3818182,21.9 33.3314685,21.7 33.3818182,21.5 C33.6335664,20.45 33.4321678,19.45 33.4321678,18.4 C33.5328671,17.85 33.5832168,17.3 33.5832168,16.7 Z" id="Shape" fill="#DC002B"/>
          <path d="M4.38041958,6.6 C5.94125874,5.95 7.4013986,5.6 8.86153846,5.25 C12.0335664,4.4 15.2559441,4.1 18.5286713,3.9 C21.751049,3.7 24.9734266,3.7 28.1958042,3.95 C30.1594406,4.1 32.1230769,4.45 34.0363636,4.8 C34.4391608,4.85 34.7916084,5 35.1440559,5.1 C35.2447552,5.45 35.0937063,5.55 34.8923077,5.6 C33.0797203,6.25 31.1664336,6.6 29.3034965,6.95 C24.9230769,7.75 20.5426573,7.95 16.1118881,7.95 C13.9972028,7.95 11.8321678,7.9 9.71748252,7.7 C8.25734266,7.55 6.7972028,7.25 5.33706294,6.95 C5.03496503,6.9 4.78321678,6.8 4.38041958,6.6 Z" id="Shape" fill="#F4E6D0"/>
          <path d="M12.4363636,53.5 C12.4363636,52.8 12.5370629,52.15 12.4363636,51.45 C12.0335664,48.25 12.2853147,45.1 12.234965,41.9 C12.1846154,38.75 12.234965,35.6 12.234965,32.45 C12.234965,28.1 12.234965,23.75 12.234965,19.4 C12.234965,18.85 12.1342657,18.3 12.4363636,17.75 C12.5370629,17.55 12.4867133,17.3 12.4867133,17.05 C12.4867133,15.75 12.4867133,14.5 12.4867133,13.2 C13.0405594,13.15 13.6447552,13.15 14.1986014,13.25 C14.5006993,13.6 14.4,14 14.4,14.4 C14.4,16.25 14.4,18.15 14.4,20 C14.4,20.7 14.551049,21.45 14.248951,22.15 C14.4503497,22.95 14.3496503,23.75 14.3496503,24.5 C14.3496503,25.35 14.4,26.15 14.4,27 C14.4,32.6 14.4,38.25 14.4,43.9 C14.4,44.25 14.3496503,44.65 14.4503497,44.95 C14.6013986,45.4 14.6013986,45.8 14.6013986,46.25 C14.6013986,48.75 14.6013986,51.3 14.6517483,53.8 C13.8965035,53.8 13.1916084,53.75 12.4363636,53.5 Z" id="Shape" fill="#F73D61"/>
          <path d="M14.6517483,53.8 C14.6517483,51.3 14.6517483,48.75 14.6013986,46.25 C14.6013986,45.8 14.6013986,45.4 14.4503497,44.95 C14.3496503,44.65 14.4,44.25 14.4,43.9 C14.4,38.3 14.4,32.65 14.4,27 C14.4,26.15 14.3496503,25.35 14.3496503,24.5 C14.3496503,23.7 14.5006993,22.9 14.248951,22.15 C14.5006993,21.45 14.3496503,20.75 14.4,20 C14.4,18.15 14.4,16.25 14.4,14.4 C14.4,14 14.4503497,13.6 14.1986014,13.25 C15.0545455,13.2 15.9104895,13.15 16.7664336,13.3 C16.6153846,13.4 16.5146853,13.5 16.3636364,13.6 C16.3636364,13.9 16.3636364,14.3 16.3636364,14.65 C16.3636364,21.15 16.3636364,27.6 16.3636364,34.1 C16.3636364,34.65 16.3132867,35.2 16.565035,35.75 C16.6657343,36 16.6153846,36.3 16.6153846,36.6 C16.6153846,38.05 16.6153846,39.5 16.6153846,40.9 C16.6153846,41.6 16.5146853,42.35 16.8167832,43.05 C16.9174825,43.25 16.8167832,43.5 16.8671329,43.75 C16.9174825,45.1 16.7664336,46.45 17.0685315,47.8 C17.2195804,48.45 17.1188811,49.15 17.1188811,49.85 C17.1188811,50.25 17.1188811,50.65 17.2699301,51.05 C17.3706294,51.35 17.3706294,51.7 17.3706294,52 C17.3706294,52.55 17.3706294,53.1 17.3706294,53.55 C17.6727273,54 18.0755245,53.65 18.2769231,54 C17.0181818,53.95 15.8601399,54.1 14.6517483,53.8 Z" id="Shape" fill="#DD002B"/>
          <path d="M12.6881119,9.1 C13.6447552,9 14.6013986,9.05 15.6083916,9.1 C15.3062937,9.5 15.3062937,10 15.406993,10.45 C15.5076923,10.95 15.0041958,11.35 15.2559441,11.9 C16.2125874,11.9 17.1692308,11.95 18.2265734,11.9 C18.2769231,11.05 18.2769231,10.25 18.2769231,9.55 C18.0755245,9.35 17.9244755,9.25 17.7734266,9.1 C19.3846154,9.05 20.9958042,8.95 22.606993,8.9 C25.5272727,8.75 28.3468531,8.35 31.2167832,7.75 C32.5762238,7.45 33.986014,7.25 35.2951049,6.7 C36.151049,6.35 36.9566434,5.9 37.8125874,5.5 C37.9636364,5.45 38.0643357,5.3 38.3160839,5.4 C38.3664336,6.35 38.3160839,7.35 38.165035,8.3 C37.4097902,8.9 36.6041958,9.3 35.7482517,9.65 C34.0867133,10.25 32.3748252,10.7 30.6629371,11 C27.2391608,11.65 23.8153846,11.9 20.3916084,12.1 C18.0251748,12.2 15.6587413,12.15 13.2923077,12.1 C13.1412587,12.1 12.9902098,12.05 12.8391608,12 C12.6881119,11.05 12.6881119,10.1 12.6881119,9.1 Z M36.151049,7.95 C36.1006993,7.9 36.0503497,7.75 35.9496503,7.75 C35.7482517,7.7 35.5468531,7.7 35.3454545,7.75 C33.5328671,8.35 31.7202797,8.8 29.806993,9.2 C29.1524476,9.35 28.4979021,9.55 27.8433566,9.7 C27.641958,9.75 27.4909091,9.9 27.4909091,10.1 C27.4909091,10.3 27.7426573,10.55 27.9440559,10.55 C28.0447552,10.55 28.1958042,10.6 28.2965035,10.55 C29.5048951,10.3 30.7132867,10.05 31.8713287,9.8 C32.9286713,9.6 33.9356643,9.3 34.9426573,8.9 C35.2951049,8.8 35.5972028,8.65 35.8993007,8.45 C36.1006993,8.3 36.151049,8.15 36.151049,7.95 Z" id="Shape" fill="#D0E9EA"/>
          <path d="M18.9818182,55.25 C19.3342657,55.25 19.6867133,55.2 20.0391608,55.2 C20.9454545,55.2 21.8013986,55.15 22.6573427,55 C23.5132867,54.85 24.4195804,54.85 25.2755245,54.75 C27.7426573,54.55 30.1090909,54.1 32.4755245,53.4 C34.1874126,52.9 35.7986014,52.25 37.2083916,51.1 C37.3090909,51 37.4601399,50.9 37.7118881,51 C37.8629371,52.1 37.7118881,53.25 37.8125874,54.3 C37.6615385,54.7 37.3594406,54.85 37.0573427,55 C35.2951049,56.1 33.3818182,56.85 31.4181818,57.3 C28.3468531,58.05 25.2755245,58.55 22.1538462,58.65 C21.9020979,58.65 21.7006993,58.6 21.448951,58.6 C20.9958042,58.6 20.5426573,58.55 20.0895105,58.55 C20.1398601,57.55 20.1398601,56.55 20.0895105,55.7 C19.7874126,55.3 19.2335664,55.65 18.9818182,55.25 Z M28.7496503,55.9 C29.2531469,55.95 29.7566434,56 30.2097902,55.85 C31.7706294,55.5 33.3314685,55.1 34.9426573,54.75 C35.6475524,54.6 36.151049,54.25 36.5538462,53.65 C36.4027972,53.4 36.2517483,53.3 35.9496503,53.4 C34.841958,53.75 33.7846154,54.05 32.6265734,54.35 C32.3748252,54.4 32.1734266,54.5 31.9216783,54.5 C31.3174825,54.55 30.6629371,54.65 30.0587413,54.8 C29.6559441,54.9 29.2531469,55.1 28.8503497,55.3 C28.648951,55.35 28.648951,55.55 28.7496503,55.9 Z" id="Shape" fill="#D0E9EA"/>
          <path d="M37.8629371,3.85 C37.4601399,4.55 37.0573427,4.65 36.4027972,4.4 C35.0433566,3.85 33.5328671,3.65 32.0727273,3.4 C29.1020979,2.9 26.0811189,2.8 23.0601399,2.85 C21.6503497,2.85 20.2405594,2.85 18.8307692,2.9 C15.558042,3 12.3356643,3.4 9.16363636,4.15 C8.00559441,4.4 6.8979021,4.75 5.79020979,5.1 C4.98461538,5.35 4.22937063,5.7 3.47412587,6.15 C3.02097902,6.45 2.01398601,6.1 1.81258741,5.65 C1.76223776,5.5 1.81258741,5.35 1.91328671,5.2 C2.31608392,4.85 2.71888112,4.6 3.22237762,4.4 C5.08531469,3.65 7.04895105,3.2 9.01258741,2.75 C11.1776224,2.3 13.393007,2 15.558042,1.8 C18.0251748,1.6 20.441958,1.45 22.9090909,1.45 C24.2685315,1.45 25.627972,1.45 27.0377622,1.5 C28.951049,1.55 30.813986,1.75 32.6769231,2.1 C33.6839161,2.3 34.6909091,2.4 35.6475524,2.7 C36.4027972,2.9 37.2083916,3.15 37.8629371,3.85 Z" id="Shape" fill="#AACECF"/>
          <path d="M20.1398601,58.55 C20.593007,58.55 21.0461538,58.6 21.4993007,58.6 C21.1468531,58.8 20.7944056,58.7 20.441958,58.75 C18.1762238,58.9 15.8601399,58.75 13.5944056,58.45 C12.3356643,58.3 11.0265734,58.15 9.81818182,57.85 C7.65314685,57.35 5.63916084,56.5 3.62517483,55.65 C3.02097902,55.4 2.41678322,55 1.96363636,54.5 C1.91328671,53.5 2.01398601,52.55 2.11468531,51.55 C2.46713287,51.5 2.71888112,51.65 2.97062937,51.8 C3.77622378,52.3 4.68251748,52.7 5.58881119,52.95 C7.55244755,53.55 9.46573427,54.25 11.4797203,54.55 C11.5804196,54.55 11.6811189,54.65 11.7818182,54.7 C11.5804196,54.8 11.2783217,54.7 11.0769231,54.9 C11.0769231,55 11.0265734,55.1 11.0265734,55.2 C11.0265734,55.35 11.0265734,55.5 11.0265734,55.7 C11.0769231,56.2 11.227972,56.4 11.7818182,56.4 C12.234965,56.4 12.6377622,56.45 13.0405594,56.65 C13.6951049,56.2 13.4433566,55.65 13.393007,55.2 C12.9902098,54.85 12.4867133,55.2 12.234965,54.8 C13.9468531,54.95 15.6587413,55.1 17.3706294,55.25 C17.1692308,55.35 16.8671329,55.25 16.6153846,55.5 C16.6153846,56.45 16.5146853,57.5 16.7160839,58.6 C17.8741259,58.55 19.0321678,58.55 20.1398601,58.55 Z M9.26433566,55.75 C7.5020979,55.35 5.94125874,54.75 4.38041958,54.05 C4.07832168,53.9 3.72587413,53.65 3.37342657,54 C3.17202797,54.2 3.37342657,54.6 3.92727273,54.9 C5.43776224,55.7 6.94825175,56.3 8.60979021,56.65 C8.76083916,56.7 8.91188811,56.7 9.06293706,56.75 C9.36503497,56.8 9.51608392,56.55 9.41538462,56.2 C9.41538462,56.05 9.31468531,55.95 9.26433566,55.75 Z" id="Shape" fill="#CFE8E9"/>
          <path d="M11.7314685,12 C10.8251748,12.15 9.86853147,12 9.01258741,11.85 C7.0993007,11.55 5.13566434,11.1 3.27272727,10.55 C3.07132867,10.5 2.92027972,10.4 2.71888112,10.35 C1.91328671,10.05 1.46013986,9.55 1.51048951,8.65 C1.56083916,8.1 1.46013986,7.55 1.40979021,7 C1.71188811,6.95 1.96363636,7.1 2.21538462,7.2 C3.32307692,7.7 4.48111888,7.95 5.63916084,8.2 C7.85454545,8.65 10.0699301,8.95 12.2853147,9.05 C12.3356643,9.05 12.4363636,9.1 12.4867133,9.15 C11.7818182,9.2 11.0769231,9.2 10.2713287,9.25 C10.220979,10.1 10.1706294,10.9 10.2713287,11.7 C10.6237762,11.9 10.9762238,11.85 11.2783217,11.85 C11.5300699,11.8 11.6307692,11.85 11.7314685,12 Z M8.05594406,10.7 C8.25734266,10.4 8.10629371,10.15 7.85454545,10 C7.75384615,9.9 7.55244755,9.85 7.4013986,9.85 C6.14265734,9.65 4.88391608,9.35 3.67552448,8.95 C3.37342657,8.85 3.02097902,8.75 2.81958042,9.1 C2.66853147,9.35 2.92027972,9.7 3.37342657,9.85 C4.63216783,10.25 5.89090909,10.55 7.2,10.8 C7.5020979,10.8 7.8041958,10.85 8.05594406,10.7 Z" id="Shape" fill="#CEE7E8"/>
          <path d="M30.6125874,52.65 C30.5118881,51.4 30.6629371,50.35 31.0657343,49.35 C31.4181818,48.55 31.9216783,47.95 32.8783217,47.8 C33.4321678,48.05 33.5328671,48.6 33.6839161,49.1 C33.986014,50.15 33.986014,50.85 33.6335664,51.85 C32.7272727,52.15 31.7706294,52.45 30.6125874,52.65 Z" id="Shape" fill="#CDE6E7"/>
          <path d="M20.1398601,58.55 C18.9818182,58.55 17.8741259,58.55 16.6657343,58.55 C16.4643357,57.45 16.6153846,56.4 16.565035,55.45 C16.8671329,55.2 17.1188811,55.25 17.3202797,55.2 C17.8741259,55.2 18.427972,55.25 18.9818182,55.25 C19.2335664,55.7 19.7874126,55.3 20.1902098,55.7 C20.2405594,56.55 20.2405594,57.55 20.1398601,58.55 Z" id="Shape" fill="#F0FCFC"/>
          <path d="M8.81118881,52.85 C7.65314685,52.65 6.6965035,52.35 5.68951049,51.95 C5.79020979,51.15 5.89090909,50.4 6.09230769,49.7 C6.24335664,49.2 6.54545455,48.75 6.94825175,48.45 C7.25034965,48.25 7.55244755,48.25 7.8041958,48.55 C7.9048951,48.65 8.00559441,48.8 8.10629371,48.95 C8.71048951,50.15 8.96223776,51.4 8.81118881,52.85 Z" id="Shape" fill="#CDE6E7"/>
          <path d="M9.01258741,12.8 C9.16363636,13.75 9.16363636,14.5 8.96223776,15.2 C8.81118881,15.85 8.40839161,16.2 7.8041958,16.25 C7.0993007,16.25 6.5958042,15.9 6.39440559,15.25 C6.09230769,14.35 6.09230769,13.4 6.19300699,12.4 C7.2,12.45 8.05594406,12.85 9.01258741,12.8 Z" id="Shape" fill="#CCE5E6"/>
          <path d="M31.2671329,12.1 C32.2237762,11.75 33.1300699,11.65 34.1874126,11.45 C34.4391608,12.7 34.4895105,13.9 33.7846154,15 C33.3818182,15.65 32.827972,15.7 32.2741259,15.2 C31.972028,14.9 31.7706294,14.6 31.6195804,14.2 C31.4685315,13.75 31.3678322,13.3 31.3174825,12.8 C31.2671329,12.6 31.2671329,12.35 31.2671329,12.1 Z" id="Shape" fill="#CEE6E7"/>
          <path d="M17.7734266,9.15 C17.9244755,9.3 18.0755245,9.4 18.2769231,9.6 C18.2769231,10.3 18.3272727,11.1 18.2265734,11.95 C17.1692308,12.05 16.2125874,12 15.2559441,11.95 C15.0041958,11.35 15.4573427,11 15.406993,10.5 C15.3062937,10.05 15.3062937,9.55 15.6083916,9.15 C16.3132867,9.05 17.0685315,9.05 17.7734266,9.15 Z" id="Shape" fill="#EDF9F9"/>
          <path d="M11.7314685,12 C11.6307692,11.85 11.5300699,11.8 11.3286713,11.75 C11.0265734,11.7 10.6741259,11.8 10.3216783,11.6 C10.220979,10.85 10.2713287,10.05 10.3216783,9.15 C11.1272727,9.1 11.8321678,9.1 12.5370629,9.05 C12.5874126,9 12.6881119,9 12.7384615,9.1 C12.7384615,10.05 12.7384615,11.05 12.7384615,12 C12.386014,12.1 12.0839161,12.05 11.7314685,12 Z" id="Shape" fill="#F0FCFC"/>
          <path d="M12.234965,54.75 C12.4867133,55.2 12.9902098,54.85 13.393007,55.15 C13.393007,55.6 13.6447552,56.15 13.0405594,56.6 C12.6377622,56.45 12.234965,56.4 11.7818182,56.35 C11.227972,56.35 11.0769231,56.15 11.0265734,55.65 C11.0265734,55.5 11.0265734,55.35 11.0265734,55.15 C11.0265734,55.05 11.0769231,54.9 11.0769231,54.85 C11.2783217,54.65 11.5804196,54.75 11.7818182,54.65 C11.9328671,54.7 12.0839161,54.75 12.234965,54.75 Z" id="Shape" fill="#F2FEFE"/>
          <path d="M36.151049,7.95 C36.151049,8.15 36.1006993,8.3 36,8.45 C35.6979021,8.7 35.3958042,8.8 35.0433566,8.9 C34.0363636,9.25 33.0293706,9.55 31.972028,9.8 C30.7636364,10.05 29.5552448,10.3 28.3972028,10.55 C28.2965035,10.55 28.1454545,10.55 28.0447552,10.55 C27.793007,10.5 27.5412587,10.3 27.5916084,10.1 C27.5916084,9.9 27.793007,9.7 27.9440559,9.7 C28.5986014,9.55 29.2531469,9.35 29.9076923,9.2 C31.7706294,8.85 33.6335664,8.35 35.4461538,7.75 C35.6475524,7.7 35.848951,7.7 36.0503497,7.75 C36.0503497,7.75 36.1006993,7.9 36.151049,7.95 Z" id="Shape" fill="#FCFEFE"/>
          <path d="M28.7496503,55.9 C28.648951,55.55 28.5986014,55.35 28.8503497,55.25 C29.2531469,55.05 29.6559441,54.85 30.0587413,54.75 C30.6629371,54.6 31.3174825,54.55 31.9216783,54.45 C32.1734266,54.4 32.3748252,54.35 32.6265734,54.3 C33.7342657,54 34.841958,53.7 35.9496503,53.35 C36.2517483,53.25 36.4027972,53.35 36.5538462,53.6 C36.2013986,54.2 35.6475524,54.55 34.9426573,54.7 C33.3818182,55.05 31.7706294,55.45 30.2097902,55.8 C29.7566434,55.95 29.3034965,55.95 28.7496503,55.9 Z" id="Shape" fill="#FCFEFE"/>
          <path d="M9.26433566,55.75 C9.36503497,55.9 9.41538462,56 9.46573427,56.15 C9.56643357,56.5 9.41538462,56.75 9.11328671,56.7 C8.96223776,56.7 8.81118881,56.65 8.66013986,56.6 C6.9986014,56.25 5.43776224,55.65 3.97762238,54.85 C3.42377622,54.55 3.17202797,54.2 3.42377622,53.95 C3.77622378,53.6 4.12867133,53.85 4.43076923,54 C5.89090909,54.75 7.5020979,55.4 9.26433566,55.75 Z" id="Shape" fill="#090A0A"/>
          <path d="M8.05594406,10.7 C7.8041958,10.9 7.5020979,10.8 7.25034965,10.75 C5.94125874,10.5 4.68251748,10.25 3.42377622,9.8 C2.92027972,9.65 2.66853147,9.3 2.86993007,9.05 C3.12167832,8.7 3.47412587,8.85 3.72587413,8.9 C4.93426573,9.3 6.19300699,9.6 7.45174825,9.8 C7.6027972,9.8 7.75384615,9.85 7.9048951,9.95 C8.10629371,10.15 8.25734266,10.4 8.05594406,10.7 Z" id="Shape" fill="#0B0C0C"/>
        </g>
      </g>
    </g>
  </g>
</svg>