<svg version="1.1" width="117" height="180" viewBox="-1 -1 117 180" xmlns="http://www.w3.org/2000/svg" xmlns:xlink="http://www.w3.org/1999/xlink">
  <!-- Exported by Scratch - http://scratch.mit.edu/ -->
  <g id="ID0.9374103178270161" transform="matrix(1, 0, 0, 1, 0.5, 0.5)">
    <g id="Page-1">
      <g id="skeleton-a-[fantasy,spooky,halloween,bones,monster,alex-eben-meyer]">
        <g id="RIGHT-FEMUR">
          <path id="Shape" fill="#AAA082" stroke="none" stroke-width="1" d="M 7.134 36.152 C 4.447 36.349 3.661 36.349 2.154 32.152 C 0.974 28.874 2.023 23.891 2.612 20.547 C 3.202 17.072 3.989 13.466 2.154 10.318 C 0.253 6.909 0.843 4.089 2.809 1.598 C 3.858 0.286 9.035 -0.238 11.853 3.499 C 14.475 6.909 14.802 14.384 14.606 17.859 C 14.409 23.301 9.887 35.955 7.134 36.152 Z " transform="matrix(1, 0, 0, 1, 74, 94)"/>
          <path id="Shape" fill="#DCD2B4" stroke="none" stroke-width="1" d="M 9.494 4.614 C 10.739 6.384 9.559 8.023 7.986 8.745 C 6.610 9.335 4.972 8.745 4.382 7.302 C 4.382 7.237 4.316 7.237 4.316 7.171 C 4.054 6.253 4.251 5.204 4.841 4.417 C 4.972 4.221 5.168 4.024 5.365 3.893 C 5.627 3.696 5.955 3.565 6.282 3.434 C 7.134 3.237 8.249 2.778 9.494 4.614 Z " transform="matrix(1, 0, 0, 1, 74, 94)"/>
        </g>
        <g id="LEFT-FEMUR">
          <path id="Shape" fill="#C8BEA0" stroke="none" stroke-width="1" d="M 3.963 2.352 C 6.715 0.057 11.434 0.385 14.055 2.877 C 16.284 5.040 15.628 10.548 12.745 11.400 C 9.533 13.040 10.516 15.466 11.106 18.482 C 11.762 21.695 11.762 24.973 12.155 28.251 C 12.417 30.743 13.007 33.890 12.024 36.316 C 11.368 38.021 9.927 38.677 8.354 38.742 C 7.960 38.742 5.470 37.627 4.094 34.808 C 1.866 30.481 0.489 23.465 0.424 20.449 C 0.227 13.761 1.210 4.647 3.963 2.352 Z " transform="matrix(1, 0, 0, 1, 33, 92)"/>
          <path id="Shape" fill="#F0E6D2" stroke="none" stroke-width="1" d="M 11.631 5.040 C 12.286 6.942 11.696 8.647 10.123 9.302 C 8.747 9.892 7.108 9.302 6.519 7.860 C 6.519 7.794 6.453 7.794 6.453 7.729 C 6.191 6.811 6.388 5.762 6.977 4.975 C 7.108 4.778 7.305 4.581 7.502 4.450 C 7.764 4.253 8.092 4.122 8.419 3.991 C 9.468 3.729 11.172 4.057 11.631 5.040 Z " transform="matrix(1, 0, 0, 1, 33, 92)"/>
        </g>
        <g id="RIGHT-LEG-TIB-+-FIB">
          <path id="Shape" fill="#AAA082" stroke="none" stroke-width="1" d="M 6.951 46.623 C 7.218 41.980 9.184 8.995 11.377 8.020 C 12.426 8.479 13.475 9.004 13.737 11.167 C 14.857 20.431 9.609 42.385 8.547 46.688 C 11.203 46.793 14.195 46.902 14.195 46.902 L 14.458 48.082 C 14.458 48.082 6.659 48.607 6.069 48.279 C 4.824 48.279 3.644 48.082 2.464 47.623 L 1.940 44.345 C 2.923 44.017 3.841 43.689 4.824 43.427 C 4.889 43.492 4.431 46.705 4.562 46.508 C 4.759 46.528 5.714 46.572 6.951 46.623 Z " transform="matrix(1, 0, 0, 1, 75, 130)"/>
          <path id="Shape" fill="#AAA082" stroke="none" stroke-width="1" d="M 3.579 8.151 L 4.365 8.545 C 5.938 14.446 5.282 21.330 5.282 27.428 C 5.282 33.264 5.348 46.771 5.348 46.771 L 3.447 47.164 L 1.940 44.345 C 2.006 44.345 -1.927 11.102 3.579 8.151 Z " transform="matrix(1, 0, 0, 1, 75, 130)"/>
          <path id="Shape" fill="#AAA082" stroke="none" stroke-width="1" d="M 11.574 2.316 C 12.492 4.676 11.508 6.971 9.346 7.823 C 7.576 8.545 5.086 7.889 4.365 5.856 C 3.972 4.676 4.234 3.365 5.086 2.381 C 5.282 2.119 5.545 1.922 5.807 1.726 C 6.200 1.463 6.593 1.267 7.052 1.136 C 8.232 0.939 10.525 0.611 11.574 2.316 Z " transform="matrix(1, 0, 0, 1, 75, 130)"/>
          <path id="Shape" fill="#AAA082" stroke="none" stroke-width="1" d="M 3.120 0.939 C 3.775 1.201 4.103 1.922 3.841 2.578 C 3.841 2.578 3.841 2.644 3.775 2.644 C 3.513 3.234 2.858 3.562 2.268 3.299 C 1.940 3.103 1.678 2.775 1.678 2.381 C 1.678 2.250 1.678 2.185 1.678 2.053 C 1.678 1.922 1.744 1.791 1.809 1.660 C 2.137 1.398 2.530 0.808 3.120 0.939 Z " transform="matrix(1, 0, 0, 1, 75, 130)"/>
        </g>
        <g id="LEFT-LEG-TIB-+-FIB">
          <path id="Shape" fill="#C8BEA0" stroke="none" stroke-width="1" d="M 0.028 12.085 C 0.290 11.364 0.421 10.774 1.011 10.512 C 1.667 10.446 2.125 10.840 2.650 11.167 C 7.041 21.724 8.155 34.247 10.318 45.394 L 9.072 45.394 C 6.582 41.197 5.664 37.132 4.550 32.477 C 3.043 25.658 1.011 19.101 0.028 12.085 Z " transform="matrix(1, 0, 0, 1, 37, 130)"/>
          <path id="Shape" fill="#C8BEA0" stroke="none" stroke-width="1" d="M 6.844 45.197 C 6.058 45.263 4.681 45.132 4.092 45.722 C 4.157 45.918 4.223 46.115 4.223 46.246 C 5.664 46.967 8.482 46.640 10.055 46.640 C 11.890 46.640 13.267 46.508 13.463 46.049 C 13.660 45.328 13.594 44.541 13.201 43.886 C 13.267 44.017 10.711 44.935 10.711 44.935 L 6.844 45.197 Z " transform="matrix(1, 0, 0, 1, 37, 130)"/>
          <path id="Shape" fill="#C8BEA0" stroke="none" stroke-width="1" d="M 9.007 10.184 C 10.383 9.790 10.776 16.216 11.235 19.101 C 11.694 22.445 12.153 25.789 12.415 29.133 C 12.742 32.739 13.267 43.886 13.267 43.886 L 12.349 45.787 L 10.842 45.656 L 7.827 14.511 C 7.762 14.511 7.631 10.577 9.007 10.184 Z " transform="matrix(1, 0, 0, 1, 37, 130)"/>
          <path id="Shape" fill="#C8BEA0" stroke="none" stroke-width="1" d="M 0.421 7.037 C 0.421 6.840 0.356 6.512 0.290 6.250 C 0.159 3.824 0.946 2.906 3.502 2.250 C 4.681 1.922 5.861 2.185 6.844 2.906 C 8.810 4.611 7.434 7.823 5.206 8.348 L 3.502 8.807 C 2.322 8.610 1.142 8.282 0.421 7.037 Z " transform="matrix(1, 0, 0, 1, 37, 130)"/>
          <path id="Shape" fill="#C8BEA0" stroke="none" stroke-width="1" d="M 8.941 0.873 C 9.138 1.529 8.679 2.250 8.024 2.381 C 8.024 2.381 7.958 2.381 7.958 2.381 C 7.303 2.512 6.713 2.119 6.582 1.463 C 6.516 1.070 6.713 0.677 6.975 0.480 C 7.041 0.414 7.172 0.349 7.237 0.349 C 7.368 0.283 7.499 0.283 7.631 0.283 C 8.024 0.283 8.745 0.349 8.941 0.873 Z " transform="matrix(1, 0, 0, 1, 37, 130)"/>
        </g>
        <path id="Shape" fill="#DCD2B4" stroke="none" stroke-width="1" d="M 73.663 102.220 C 73.401 106.875 66.979 106.220 63.571 106.351 C 59.966 106.482 54.789 106.613 51.840 104.187 C 48.432 101.433 51.119 96.581 48.497 93.500 C 45.417 89.959 40.567 92.516 36.897 91.664 C 36.438 85.697 51.381 88.648 54.527 88.779 C 61.473 88.975 68.355 88.123 75.236 87.336 C 77.792 87.008 81.200 86.222 83.690 86.812 C 86.181 87.402 88.147 90.811 85.001 92.254 C 83.101 93.106 79.693 91.336 77.399 91.795 C 73.532 92.516 73.401 95.008 73.663 102.220 Z M 54.920 93.959 C 54.527 95.139 54.920 99.401 56.624 100.843 C 57.607 101.696 59.573 101.696 61.342 101.958 C 64.947 102.482 67.306 101.892 68.027 98.942 C 68.486 96.975 68.289 96.319 68.289 94.090 C 68.289 91.860 65.930 92.123 65.078 92.451 C 64.226 92.778 65.012 94.155 64.160 94.811 C 63.505 95.270 60.490 95.795 59.638 94.942 C 58.786 94.090 59.638 93.172 58 92.844 C 56.362 92.516 55.313 92.778 54.920 93.959 Z "/>
        <path id="RIGHT-ARM-RAD-+-ULN" fill="#C8BEA0" stroke="none" stroke-width="1" d="M 109.577 148.380 L 108.267 148.314 C 102.106 140.118 104.007 127.857 104.859 118.219 C 105.449 112.252 105.186 106.285 104.072 100.384 C 103.745 98.811 102.958 88.582 110.036 87.861 C 117.114 87.140 115.214 99.860 115.214 102.810 C 115.214 108.252 115.082 113.695 114.886 119.137 C 114.558 128.578 117.769 141.626 109.577 148.380 Z M 108.529 101.564 C 107.284 102.679 107.349 108.187 107.218 109.826 C 106.956 113.170 106.956 116.514 107.153 119.858 C 107.415 123.464 107.677 127.005 107.677 130.611 C 107.677 133.496 107.153 137.364 107.742 140.118 L 108.922 141.364 C 109.446 141.626 110.036 141.626 110.560 141.495 C 113.051 134.807 111.871 128.185 111.937 121.235 C 111.937 117.563 111.871 113.957 111.871 110.285 C 111.871 107.925 112.920 102.089 109.446 101.368 L 108.529 101.564 Z "/>
        <path id="LEFT-ARM-RAD-+-ULN" fill="#DCD2B4" stroke="none" stroke-width="1" d="M 5.177 142.216 C 1.769 138.807 3.080 134.152 3.408 129.693 C 3.801 124.644 4.719 119.727 6.160 114.875 C 7.471 110.547 8.651 106.220 9.634 101.827 C 10.093 99.597 10.814 97.237 10.486 95.008 C 10.158 92.582 8.585 84.189 16.646 83.992 C 24.707 83.796 17.760 98.352 17.302 99.991 C 15.794 105.171 15.139 110.875 14.025 116.186 C 12.911 121.366 12.976 126.611 12.059 131.791 C 11.076 136.840 10.945 141.495 5.177 142.216 Z M 14.549 93.893 C 12.255 94.418 10.945 101.368 10.420 103.335 C 9.503 107.007 8.847 110.810 8.192 114.612 C 7.602 117.825 6.816 120.973 6.160 124.120 C 5.571 126.874 3.539 132.447 5.440 135.004 L 7.668 135.594 C 9.765 133.103 9.503 128.513 10.158 125.497 C 10.945 121.825 11.928 118.153 12.714 114.481 C 13.369 111.400 17.892 95.008 14.549 93.893 Z "/>
        <g id="RIGHT-HAND">
          <path id="Shape" fill="#C8BEA0" stroke="none" stroke-width="1" d="M 5.220 6.068 C 4.893 4.560 5.417 2.986 6.597 2.003 C 7.121 1.609 10.201 0.101 11.708 0.888 C 14.395 2.199 15.641 6.658 13.806 8.166 C 12.757 9.018 10.725 9.871 9.087 9.346 C 7.449 8.822 6.072 6.855 5.220 6.068 Z " transform="matrix(1, 0, 0, 1, 98, 149)"/>
          <path id="Shape" fill="#C8BEA0" stroke="none" stroke-width="1" d="M 10.332 10.658 C 10.332 11.313 10.398 11.903 10.398 12.493 C 10.463 14.133 10.463 15.706 10.529 17.345 C 10.529 18.788 10.398 20.165 10.005 21.542 C 9.677 22.722 9.087 23.050 7.776 22.788 C 7.449 22.525 7.449 22.132 7.449 21.804 C 7.318 20.034 7.449 18.329 7.842 16.624 C 8.104 15.575 8.301 14.460 8.563 13.346 C 8.694 12.756 8.890 12.231 9.087 11.707 C 9.218 11.116 9.742 10.723 10.332 10.658 Z " transform="matrix(1, 0, 0, 1, 98, 149)"/>
          <path id="Shape" fill="#C8BEA0" stroke="none" stroke-width="1" d="M 12.823 21.214 C 11.971 19.509 11.577 12.756 12.167 10.395 C 12.298 10.264 12.495 10.199 12.692 10.133 C 12.888 10.067 13.150 10.002 13.347 10.002 C 13.478 10.264 13.609 10.526 13.675 10.789 C 13.740 11.182 13.806 11.575 13.871 12.034 C 14.002 13.674 14.199 15.247 14.264 16.886 C 14.264 17.936 14.133 18.985 13.937 19.968 C 13.871 20.558 13.478 21.083 12.823 21.214 Z " transform="matrix(1, 0, 0, 1, 98, 149)"/>
          <path id="Shape" fill="#C8BEA0" stroke="none" stroke-width="1" d="M 5.482 7.576 L 6.662 8.363 C 6.728 9.805 6.662 11.313 6.400 12.756 C 6.138 14.264 5.941 15.772 5.810 17.280 C 5.745 18.329 5.286 19.312 4.499 19.968 C 4.303 19.706 4.041 19.575 3.910 19.378 C 3.779 19.050 3.779 18.657 3.779 18.263 C 4.041 14.788 4.696 11.379 5.220 7.904 C 5.286 7.904 5.351 7.838 5.482 7.576 Z " transform="matrix(1, 0, 0, 1, 98, 149)"/>
          <path id="Shape" fill="#C8BEA0" stroke="none" stroke-width="1" d="M 0.633 11.641 C 0.174 11.248 0.043 10.592 0.174 10.002 C 0.371 9.346 0.502 8.625 0.764 7.969 C 1.026 7.182 1.419 6.461 1.681 5.674 C 2.075 4.888 2.533 4.166 3.123 3.511 C 3.385 3.248 3.713 3.052 4.041 2.855 C 4.172 3.117 4.303 3.379 4.303 3.707 C 4.237 6.002 3.647 8.232 2.730 10.330 C 2.468 11.248 1.550 11.772 0.633 11.641 Z " transform="matrix(1, 0, 0, 1, 98, 149)"/>
        </g>
        <g id="LEFT-HAND">
          <path id="Shape" fill="#AAA082" stroke="none" stroke-width="1" d="M 1.573 5.232 C 1.638 4.183 1.901 3.200 2.425 2.282 C 3.080 1.298 4.063 0.577 5.177 0.315 C 6.095 0.052 6.947 0.446 7.799 0.905 C 8.061 1.101 8.258 1.364 8.323 1.692 C 8.520 2.544 8.651 3.396 8.716 4.249 C 8.585 5.822 7.602 7.199 6.095 7.724 C 5.964 7.789 5.833 7.789 5.702 7.789 C 4.588 7.724 3.473 7.462 2.425 7.068 C 1.769 6.806 1.507 6.216 1.573 5.232 Z " transform="matrix(1, 0, 0, 1, 0, 144)"/>
          <path id="Shape" fill="#C8BEA0" stroke="none" stroke-width="1" d="M 9.372 21.952 L 7.864 21.755 C 7.471 21.362 7.209 20.837 7.209 20.247 C 6.947 17.887 6.685 15.526 6.488 13.232 C 6.357 12.182 6.357 11.133 6.488 10.150 C 6.488 9.625 6.685 9.166 7.078 8.838 C 7.471 8.707 7.733 8.970 7.930 9.232 C 8.585 10.084 8.979 11.133 9.110 12.182 C 9.241 13.625 9.634 15.067 9.765 16.444 C 9.831 17.756 9.831 19.001 9.765 20.313 C 9.634 20.903 9.568 21.427 9.372 21.952 Z " transform="matrix(1, 0, 0, 1, 0, 144)"/>
          <path id="Shape" fill="#C8BEA0" stroke="none" stroke-width="1" d="M 4.063 23.395 C 3.408 23.001 3.080 22.345 3.080 21.624 C 3.015 20.706 2.949 19.788 2.884 18.870 C 2.687 16.903 2.621 15.002 2.687 13.035 C 2.687 12.182 2.818 11.264 2.884 10.412 C 2.884 9.822 3.277 9.363 3.867 9.232 C 3.932 9.363 4.063 9.494 4.063 9.691 C 4.129 10.281 4.325 10.805 4.588 11.330 C 4.719 11.527 4.784 11.789 4.784 12.051 C 4.981 14.018 5.440 15.985 5.440 18.018 C 5.440 19.264 5.308 20.510 5.046 21.690 C 4.981 22.345 4.588 23.001 4.063 23.395 Z " transform="matrix(1, 0, 0, 1, 0, 144)"/>
          <path id="Shape" fill="#C8BEA0" stroke="none" stroke-width="1" d="M 1.180 20.575 C 0.066 18.411 -0.131 11.068 0.918 8.773 C 1.507 9.166 1.835 9.822 1.835 10.543 C 1.835 11.986 1.835 13.428 1.835 14.871 C 1.835 15.723 1.835 16.641 1.901 17.493 C 2.032 18.608 1.769 19.723 1.180 20.575 Z " transform="matrix(1, 0, 0, 1, 0, 144)"/>
          <path id="Shape" fill="#C8BEA0" stroke="none" stroke-width="1" d="M 13.828 11.527 C 13.107 11.330 12.518 10.805 12.255 10.084 C 12.059 9.756 11.928 9.429 11.862 9.035 C 11.338 7.003 10.617 4.970 9.765 3.068 C 9.699 2.872 9.634 2.675 9.634 2.544 C 9.896 2.478 10.158 2.478 10.355 2.478 C 11.272 2.610 12.059 3.134 12.583 3.986 C 13.566 5.691 14.615 7.396 15.073 9.363 C 15.270 10.609 15.139 10.937 13.828 11.527 Z " transform="matrix(1, 0, 0, 1, 0, 144)"/>
        </g>
        <g id="UPPER-RIGHT-ARM">
          <path id="Shape" fill="#AAA082" stroke="none" stroke-width="1" d="M 13.521 4.799 C 14.963 4.537 18.502 7.487 19.812 8.667 C 24.531 19.224 28.856 31.092 29.446 33.452 C 30.495 37.452 33.903 49.910 30.233 53.122 C 28.136 52.860 27.611 48.533 27.349 46.828 C 24.924 31.354 15.225 11.028 14.373 10.175 C 13.521 9.323 12.079 9.061 11.227 8.077 C 10.637 6.438 12.472 5.520 13.521 4.799 Z " transform="matrix(1, 0, 0, 1, 80, 43)"/>
          <path id="Shape" fill="#AAA082" stroke="none" stroke-width="1" d="M 32.527 49.778 C 33.379 52.073 32.395 54.565 30.429 55.417 C 28.725 56.138 26.694 55.352 25.973 53.647 C 25.973 53.581 25.907 53.516 25.907 53.516 C 25.580 52.336 25.776 51.090 26.563 50.172 C 26.759 49.910 26.956 49.713 27.218 49.516 C 27.546 49.254 27.939 49.057 28.332 48.926 C 29.774 48.729 31.281 49.057 32.527 49.778 Z " transform="matrix(1, 0, 0, 1, 80, 43)"/>
          <path id="Shape" fill="#DCD2B4" stroke="none" stroke-width="1" d="M 6.640 0.406 C 6.377 0.668 2.773 0.996 0.217 2.832 C -0.701 6.504 5.329 7.684 7.623 6.963 C 9.916 6.241 11.751 4.733 11.620 3.356 C 11.489 1.914 9.130 0.603 6.640 0.406 Z " transform="matrix(1, 0, 0, 1, 80, 43)"/>
        </g>
        <g id="UPPER-LEFT-ARM">
          <path id="Shape" fill="#C8BEA0" stroke="none" stroke-width="1" d="M 5.892 46.599 C 6.612 48.303 5.892 50.336 4.188 51.188 C 2.811 51.778 1.173 51.188 0.583 49.746 C 0.583 49.680 0.518 49.680 0.518 49.615 C 0.255 48.697 0.452 47.648 1.042 46.861 C 1.173 46.664 1.369 46.467 1.566 46.336 C 1.828 46.140 2.156 46.008 2.484 45.877 C 3.663 45.746 4.843 46.008 5.892 46.599 Z " transform="matrix(1, 0, 0, 1, 12, 41)"/>
          <path id="Shape" fill="#C8BEA0" stroke="none" stroke-width="1" d="M 3.598 48.500 L 2.811 48.303 C 0.911 42.861 3.663 35.518 4.843 30.272 C 5.695 26.404 6.416 22.535 7.333 18.667 C 7.989 15.847 8.775 11.651 10.741 9.225 C 11.266 8.569 13.887 6.733 13.887 8.963 C 13.821 16.372 8.579 39.452 3.598 48.500 Z " transform="matrix(1, 0, 0, 1, 12, 41)"/>
          <path id="Shape" fill="#DCD2B4" stroke="none" stroke-width="1" d="M 18.212 7.520 C 17.950 7.258 14.346 6.733 11.855 4.832 C 11.134 1.095 17.164 0.177 19.458 1.029 C 21.751 1.881 23.521 3.455 23.324 4.766 C 23.128 6.078 20.637 7.455 18.212 7.520 Z " transform="matrix(1, 0, 0, 1, 12, 41)"/>
        </g>
        <g id="Spine">
          <path id="Shape" fill="#DCD2B4" stroke="none" stroke-width="1" d="M 1.920 42.795 C 2.051 41.746 2.379 41.090 2.968 40.959 C 3.493 40.763 4.017 40.632 4.607 40.566 C 6.180 40.369 7.818 40.632 9.391 40.632 C 10.833 40.566 12.275 40.632 13.782 40.632 L 14.503 40.632 C 15.355 42.008 14.765 44.107 13.979 44.631 C 13.782 44.697 13.651 44.828 13.454 44.893 C 12.471 45.221 11.423 45.352 10.440 45.287 C 8.605 45.287 6.769 45.221 4.934 45.090 C 4.345 45.090 3.755 44.959 3.165 44.762 C 2.510 44.434 2.051 43.910 1.920 42.795 Z " transform="matrix(1, 0, 0, 1, 53, 45)"/>
          <path id="Shape" fill="#DCD2B4" stroke="none" stroke-width="1" d="M 0.609 2.996 C 0.740 1.947 1.068 1.291 1.658 1.160 C 2.182 0.963 2.706 0.832 3.296 0.766 C 4.869 0.570 6.507 0.832 8.080 0.832 C 9.522 0.766 10.964 0.832 12.471 0.832 C 12.733 0.832 12.995 0.832 13.192 0.832 C 14.044 2.209 13.454 4.307 12.668 4.832 C 12.471 4.897 12.340 5.028 12.144 5.094 C 11.160 5.422 10.112 5.553 9.129 5.487 C 7.294 5.487 5.459 5.422 3.558 5.290 C 2.968 5.290 2.379 5.159 1.789 4.963 C 1.199 4.700 0.740 4.176 0.609 2.996 Z " transform="matrix(1, 0, 0, 1, 53, 45)"/>
          <path id="Shape" fill="#C8BEA0" stroke="none" stroke-width="1" d="M 6.901 8.241 C 6.638 12.765 6.573 17.289 6.769 21.748 C 6.835 24.567 7.032 27.387 7.032 30.206 C 7.032 32.436 6.769 35.124 7.556 37.091 C 8.342 37.550 8.867 37.288 9.456 36.042 C 9.981 27.059 9.391 17.355 8.539 8.241 L 6.901 8.241 Z " transform="matrix(1, 0, 0, 1, 53, 45)"/>
          <path id="Shape" fill="#C8BEA0" stroke="none" stroke-width="1" d="M 3.493 36.501 C 3.755 32.829 9.915 34.337 12.471 34.468 C 15.158 40.697 3.886 40.369 3.493 36.501 Z " transform="matrix(1, 0, 0, 1, 53, 45)"/>
          <path id="Shape" fill="#C8BEA0" stroke="none" stroke-width="1" d="M 4.279 29.223 C 4.541 25.551 9.915 27.059 12.144 27.190 C 14.568 33.485 4.672 33.091 4.279 29.223 Z " transform="matrix(1, 0, 0, 1, 53, 45)"/>
          <path id="Shape" fill="#C8BEA0" stroke="none" stroke-width="1" d="M 4.869 22.666 C 5.131 18.994 10.112 18.666 11.423 21.420 C 13.454 25.748 5.262 26.534 4.869 22.666 Z " transform="matrix(1, 0, 0, 1, 53, 45)"/>
          <path id="Shape" fill="#C8BEA0" stroke="none" stroke-width="1" d="M 4.082 15.716 C 4.345 12.044 9.325 11.716 10.636 14.470 C 12.668 18.863 4.410 19.650 4.082 15.716 Z " transform="matrix(1, 0, 0, 1, 53, 45)"/>
          <path id="Shape" fill="#C8BEA0" stroke="none" stroke-width="1" d="M 4.476 9.552 C 4.672 6.602 8.736 6.340 9.784 8.569 C 11.423 12.110 4.803 12.765 4.476 9.552 Z " transform="matrix(1, 0, 0, 1, 53, 45)"/>
          <path id="Shape" fill="#DCD2B4" stroke="none" stroke-width="1" d="M 9.719 36.107 C 9.850 36.763 9.456 37.484 8.736 37.615 C 8.736 37.615 8.670 37.615 8.670 37.615 C 8.015 37.747 7.425 37.288 7.294 36.697 C 7.228 36.304 7.425 35.911 7.753 35.714 C 7.818 35.648 7.949 35.583 8.015 35.583 C 8.146 35.517 8.277 35.517 8.408 35.517 C 8.801 35.452 9.522 35.517 9.719 36.107 Z " transform="matrix(1, 0, 0, 1, 53, 45)"/>
          <path id="Shape" fill="#DCD2B4" stroke="none" stroke-width="1" d="M 9.653 28.895 C 9.784 29.551 9.391 30.272 8.670 30.403 C 8.670 30.403 8.605 30.403 8.605 30.403 C 7.949 30.534 7.359 30.075 7.228 29.485 C 7.163 29.092 7.359 28.698 7.687 28.501 C 7.753 28.436 7.884 28.370 7.949 28.370 C 8.080 28.305 8.211 28.305 8.342 28.305 C 8.736 28.239 9.456 28.305 9.653 28.895 Z " transform="matrix(1, 0, 0, 1, 53, 45)"/>
          <path id="Shape" fill="#DCD2B4" stroke="none" stroke-width="1" d="M 9.522 22.010 C 9.653 22.666 9.260 23.387 8.539 23.518 C 8.539 23.518 8.473 23.518 8.473 23.518 C 7.818 23.649 7.228 23.190 7.097 22.600 C 7.097 22.207 7.228 21.814 7.556 21.617 C 7.621 21.551 7.753 21.486 7.818 21.486 C 7.949 21.420 8.080 21.420 8.211 21.420 C 8.670 21.355 9.391 21.420 9.522 22.010 Z " transform="matrix(1, 0, 0, 1, 53, 45)"/>
          <path id="Shape" fill="#DCD2B4" stroke="none" stroke-width="1" d="M 8.998 15.060 C 9.129 15.716 8.736 16.437 8.015 16.568 C 8.015 16.568 7.949 16.568 7.949 16.568 C 7.294 16.699 6.704 16.240 6.573 15.650 C 6.507 15.257 6.704 14.863 7.032 14.667 C 7.097 14.601 7.228 14.536 7.294 14.536 C 7.425 14.470 7.556 14.470 7.687 14.470 C 8.080 14.404 8.801 14.470 8.998 15.060 Z " transform="matrix(1, 0, 0, 1, 53, 45)"/>
          <path id="Shape" fill="#DCD2B4" stroke="none" stroke-width="1" d="M 8.670 9.028 C 8.801 9.684 8.408 10.405 7.687 10.536 C 7.687 10.536 7.621 10.536 7.621 10.536 C 6.966 10.667 6.376 10.208 6.245 9.618 C 6.180 9.225 6.376 8.831 6.704 8.634 C 6.769 8.569 6.901 8.503 6.966 8.503 C 7.097 8.438 7.228 8.438 7.359 8.438 C 7.753 8.372 8.539 8.438 8.670 9.028 Z " transform="matrix(1, 0, 0, 1, 53, 45)"/>
        </g>
        <g id="Ribs">
          <path id="Shape" fill="#C8BEA0" stroke="none" stroke-width="1" d="M 2.982 3.979 C 2.982 3.979 4.489 27.714 10.453 28.698 L 15.303 27.452 L 12.550 4.897 L 2.982 3.979 Z " transform="matrix(1, 0, 0, 1, 29, 49)"/>
          <path id="Shape" fill="#AAA082" stroke="none" stroke-width="1" d="M 49.185 6.011 L 49.579 25.944 L 55.936 28.698 C 55.936 28.698 61.899 11.519 58.557 5.093 L 49.185 6.011 Z " transform="matrix(1, 0, 0, 1, 29, 49)"/>
          <path id="Shape" fill="#DCD2B4" stroke="none" stroke-width="1" d="M 1.016 5.421 C 0.688 4.110 0.885 2.733 1.540 1.553 C 3.768 -0.742 11.371 1.159 14.058 1.422 C 18.121 1.749 22.184 2.274 26.247 3.061 C 26.641 3.454 26.772 4.044 26.575 4.569 C 23.560 6.536 18.318 6.142 14.779 6.339 C 10.977 6.536 4.162 8.110 1.016 5.421 Z " transform="matrix(1, 0, 0, 1, 29, 49)"/>
          <path id="Shape" fill="#DCD2B4" stroke="none" stroke-width="1" d="M 2.458 13.748 C 1.868 12.437 1.540 11.257 2.195 9.945 C 9.142 8.568 17.793 7.847 24.871 8.568 C 25.920 9.880 25.985 10.077 25.920 11.257 C 19.038 14.732 9.798 16.240 2.458 13.748 Z " transform="matrix(1, 0, 0, 1, 29, 49)"/>
          <path id="Shape" fill="#DCD2B4" stroke="none" stroke-width="1" d="M 5.210 20.043 C 9.339 18.928 13.468 18.141 17.728 17.617 C 19.890 17.289 25.264 14.994 27.099 16.568 C 27.427 19.125 15.368 22.403 13.599 22.993 C 11.829 23.584 8.028 24.764 6.193 24.174 C 4.031 23.452 4.751 21.944 5.210 20.043 Z " transform="matrix(1, 0, 0, 1, 29, 49)"/>
          <path id="Shape" fill="#DCD2B4" stroke="none" stroke-width="1" d="M 8.356 28.698 C 11.371 26.862 15.237 26.206 18.580 24.960 C 21.463 23.911 24.544 22.075 27.689 22.207 C 26.444 25.419 9.405 33.747 8.356 28.698 Z " transform="matrix(1, 0, 0, 1, 29, 49)"/>
          <path id="Shape" fill="#DCD2B4" stroke="none" stroke-width="1" d="M 4.162 2.864 L 0.950 4.831 C 0.950 4.831 2.916 25.157 8.749 29.288 L 11.305 29.616 C 9.142 24.239 7.307 18.732 5.669 13.158 C 4.882 9.749 4.358 6.339 4.162 2.864 Z " transform="matrix(1, 0, 0, 1, 29, 49)"/>
          <path id="Shape" fill="#DCD2B4" stroke="none" stroke-width="1" d="M 37.979 12.634 L 37.258 11.322 C 37.389 10.863 37.585 10.404 37.782 9.945 C 40.207 8.044 47.023 9.880 49.841 10.077 C 52.986 10.273 56.001 10.404 59.081 11.191 C 59.671 12.109 59.999 13.158 60.130 14.273 C 58.754 17.486 52.331 15.781 49.775 15.519 C 45.712 15.191 41.714 14.207 37.979 12.634 Z " transform="matrix(1, 0, 0, 1, 29, 49)"/>
          <path id="Shape" fill="#DCD2B4" stroke="none" stroke-width="1" d="M 37.651 4.831 C 38.568 1.618 44.794 2.799 47.088 2.864 C 51.020 2.995 54.953 3.061 58.819 3.192 C 62.751 7.388 52.200 7.519 50.889 7.519 C 48.333 7.454 38.241 8.568 37.651 4.831 Z " transform="matrix(1, 0, 0, 1, 29, 49)"/>
          <path id="Shape" fill="#DCD2B4" stroke="none" stroke-width="1" d="M 39.027 16.764 C 45.712 17.289 52.659 19.190 59.278 20.633 L 59.933 21.616 C 59.999 22.469 59.802 23.321 59.409 24.108 C 56.984 24.370 36.733 19.715 39.027 16.764 Z " transform="matrix(1, 0, 0, 1, 29, 49)"/>
          <path id="Shape" fill="#DCD2B4" stroke="none" stroke-width="1" d="M 39.224 23.780 C 39.879 20.895 54.821 26.927 57.181 27.714 L 57.640 29.026 C 56.591 33.353 41.059 26.468 39.224 23.780 Z " transform="matrix(1, 0, 0, 1, 29, 49)"/>
          <path id="Shape" fill="#DCD2B4" stroke="none" stroke-width="1" d="M 54.035 29.812 L 57.050 29.878 C 57.050 29.878 59.147 27.583 60.261 22.075 C 61.375 16.305 61.047 6.864 59.147 3.913 L 56.067 3.848 C 56.919 5.356 57.508 6.995 57.705 8.765 C 58.098 11.060 57.771 13.945 57.443 17.355 C 57.115 21.354 54.494 28.304 54.035 29.812 Z " transform="matrix(1, 0, 0, 1, 29, 49)"/>
        </g>
        <g id="Head">
          <path id="Shape" fill="#C8BEA0" stroke="none" stroke-width="1" d="M 24.966 34.161 C 27.653 33.243 31.127 33.440 33.748 32.718 C 34.141 33.505 34.207 37.308 34.141 38.095 C 34.076 38.882 33.879 39.537 33.748 40.324 C 33.682 40.849 33.355 41.242 32.962 41.570 C 31.585 42.685 29.816 43.144 28.046 42.881 C 27.194 42.816 26.473 42.291 26.146 41.504 C 25.687 40.193 24.704 35.669 24.966 34.161 Z " transform="matrix(1, 0, 0, 1, 35, 0)"/>
          <path id="Shape" fill="#F0E6D2" stroke="none" stroke-width="1" d="M 24.442 38.685 C 24.442 38.357 24.180 34.948 24.114 34.554 L 16.577 34.095 C 16.315 34.685 17.036 38.554 17.102 39.078 C 17.167 40.127 17.429 41.111 17.888 42.095 C 18.150 42.685 18.609 43.078 19.199 43.340 C 20.510 43.865 22.017 43.865 23.328 43.340 C 24.180 43.078 24.704 42.291 24.638 41.439 C 24.573 40.521 24.507 39.603 24.442 38.685 Z " transform="matrix(1, 0, 0, 1, 35, 0)"/>
          <path id="Shape" fill="#F0E6D2" stroke="none" stroke-width="1" d="M 15.529 34.292 C 14.480 33.899 9.303 33.046 8.254 32.718 C 7.927 33.046 8.779 36.259 8.910 36.587 C 9.106 37.636 9.499 38.554 10.155 39.406 C 11.400 40.849 12.907 41.504 14.873 41.045 C 15.070 40.718 15.201 40.390 15.267 40.062 C 15.594 38.226 15.660 36.259 15.529 34.292 Z " transform="matrix(1, 0, 0, 1, 35, 0)"/>
          <path id="Shape" fill="#AAA082" stroke="none" stroke-width="1" d="M 40.892 30.620 C 41.088 32.063 40.892 36.390 40.498 37.636 C 40.171 38.751 39.253 39.668 38.139 40.062 C 37.484 39.865 36.828 39.537 36.369 39.078 C 36.238 38.947 36.107 38.816 35.976 38.619 C 35.649 38.029 34.862 33.046 34.928 32.128 C 35.452 31.997 39.515 30.620 40.892 30.620 Z " transform="matrix(1, 0, 0, 1, 35, 0)"/>
          <path id="Shape" fill="#DCD2B4" stroke="none" stroke-width="1" d="M 29.357 0.262 C 41.612 0.262 48.821 10.819 47.642 22.424 C 47.380 25.112 46.528 27.735 45.282 30.161 C 43.841 32.653 37.287 34.489 34.600 35.144 C 28.308 36.652 26.015 37.111 19.461 36.652 C 14.087 36.259 6.419 34.882 3.077 30.227 C -0.069 25.834 -0.397 18.425 0.390 13.245 C 1.438 6.491 4.912 4.131 11.269 2.754 C 17.167 1.508 23.393 0.328 29.357 0.262 Z " transform="matrix(1, 0, 0, 1, 35, 0)"/>
          <path id="Shape" fill="#FFFFFF" stroke="none" stroke-width="1" d="M 43.579 18.228 C 45.020 22.162 43.447 24.850 40.105 26.293 C 37.418 27.473 33.486 26.424 32.372 23.014 C 31.782 21.047 32.175 18.884 33.486 17.244 C 33.814 16.851 34.207 16.458 34.600 16.130 C 35.190 15.736 35.780 15.408 36.501 15.212 C 38.401 14.818 42.071 14.490 43.579 18.228 Z " transform="matrix(1, 0, 0, 1, 35, 0)"/>
          <path id="Shape" fill="#FFFFFF" stroke="none" stroke-width="1" d="M 16.446 17.703 C 18.609 20.916 16.446 24.785 13.104 26.227 C 10.417 27.407 6.485 26.358 5.371 22.949 C 4.781 21.113 5.240 18.556 6.485 17.179 C 6.812 16.785 7.206 16.392 7.599 16.064 C 8.189 15.671 8.779 15.343 9.499 15.146 C 11.400 14.687 14.284 14.490 16.446 17.703 Z " transform="matrix(1, 0, 0, 1, 35, 0)"/>
          <path id="Shape" fill="#DCD2B4" stroke="none" stroke-width="1" d="M 11.203 19.277 C 10.679 19.342 10.351 19.736 10.286 20.195 C 10.286 20.916 10.024 21.703 10.876 22.227 C 11.924 22.096 11.990 21.178 12.121 20.457 C 12.055 19.933 11.728 19.474 11.203 19.277 Z " transform="matrix(1, 0, 0, 1, 35, 0)"/>
          <path id="Shape" fill="#DCD2B4" stroke="none" stroke-width="1" d="M 38.336 22.424 C 38.925 21.900 38.991 21.834 39.056 21.572 C 39.122 20.916 38.991 20.260 38.729 19.736 C 38.401 19.474 37.877 19.605 37.680 19.933 C 37.680 19.933 37.680 19.998 37.615 19.998 C 37.549 20.654 37.287 21.375 37.680 22.162 L 38.336 22.424 Z " transform="matrix(1, 0, 0, 1, 35, 0)"/>
          <path id="Shape" fill="#000000" stroke="none" stroke-width="1" d="M 11.203 19.277 C 11.728 19.474 12.055 19.933 12.121 20.457 C 11.990 21.244 11.990 22.096 10.876 22.227 C 10.024 21.703 10.286 20.916 10.286 20.195 C 10.351 19.736 10.745 19.342 11.203 19.277 Z " transform="matrix(1, 0, 0, 1, 35, 0)"/>
          <path id="Shape" fill="#000000" stroke="none" stroke-width="1" d="M 38.336 22.424 L 37.615 22.096 C 37.221 21.310 37.484 20.588 37.549 19.933 C 37.746 19.539 38.205 19.408 38.598 19.670 C 38.598 19.670 38.663 19.670 38.663 19.736 C 38.991 20.326 39.122 20.982 38.991 21.572 C 38.991 21.834 38.925 21.900 38.336 22.424 Z " transform="matrix(1, 0, 0, 1, 35, 0)"/>
          <path id="Shape" fill="#C8BEA0" stroke="none" stroke-width="1" d="M 24.704 17.375 C 23.786 17.310 23 17.900 22.738 18.752 C 22.082 20.129 21.624 21.637 21.362 23.145 C 21.165 24.719 20.706 26.227 20.444 27.801 C 20.247 28.850 19.723 31.145 21.558 31.145 C 23.393 31.145 23.721 28.653 24.966 28.456 C 26.211 28.260 26.015 30.030 27.784 30.948 C 29.554 31.866 29.619 30.358 29.816 30.096 C 29.881 26.686 27.850 17.834 24.704 17.375 Z " transform="matrix(1, 0, 0, 1, 35, 0)"/>
        </g>
      </g>
    </g>
  </g>
</svg>