<svg version="1.1" id="Layer_1" x="0px" y="0px" width="150px" height="150px" viewBox="0 0 150 150" enable-background="new 0 0 150 150" xml:space="preserve" xmlns="http://www.w3.org/2000/svg" xmlns:xlink="http://www.w3.org/1999/xlink">
  <g>
    <path fill="#910063" d="M71.876,128.768c-1.29,3.143-1.539,5.08-3.493,7.912c-1.788,2.577-3.763,3.314-5.406,5.973&#xD;&#xA;&#x9;c1.372,0.643,2.433,0,3.909-0.312c3.493-0.735,5.073-2.229,7.983-4.188c0.458,1.729-0.249,3.646,1.497,4.188&#xD;&#xA;&#x9;c1.581,0.486,2.579,0,4.241-0.153c0.229-2.58-0.998-3.938-1.912-6.359c-0.521-1.416-0.166-2.542-1.166-3.725&#xD;&#xA;&#x9;C76.096,130.396,74.017,129.582,71.876,128.768z"/>
    <path fill="#910063" d="M93.895,132.956c-0.666,1.261,0.041,2.25,0.5,3.569c0.664,1.857,0.914,2.908,1.58,4.809&#xD;&#xA;&#x9;c0.248,0.719,0.062,1.57,0.83,1.785c0.998,0.291,2.186,0.329,2.661-0.543c0.812-1.455-0.707-2.483-0.831-4.112&#xD;&#xA;&#x9;c2.868,0.795,4.116,2.212,7.069,2.483c2.392,0.213,4.927,0.949,6.071-1.01c-5.387-3.006-7.984-5.196-12.396-9.312&#xD;&#xA;&#x9;C98.316,131.925,97.423,132.643,93.895,132.956z"/>
    <path fill="#663C2B" d="M87.344,43.429c0.936-2.309,0.062-3.841,0.249-6.284c0.084-1.241-1.018-2.541-2.327-2.327&#xD;&#xA;&#x9;c-1.27,0.194-2.102,1.59-3.16,0.931c-1.082-0.66-1.83-1.571-3.076-1.241c-1.371,0.368-1.728,1.746-3.159,1.784&#xD;&#xA;&#x9;c-1.248,0.039-1.581-1.61-2.828-1.474c-1.289,0.135-1.746,1.241-3.035,1.241v5.973c-2.413,0-4.47,1.688-6.196,0.078&#xD;&#xA;&#x9;c-1.227-1.144-1.019-2.347-1.83-3.724c-0.583-0.969-1.601-0.95-2.661-1.474c-2.224-1.105-0.416-3.685-0.416-6.051&#xD;&#xA;&#x9;c0-0.97-0.998-1.299-1.164-2.25c-0.27-1.59,0.271-2.618,1.164-4.034c1.393-2.192-0.894-4.306,0.5-6.517&#xD;&#xA;&#x9;c0.832-1.319,2.203-1.242,3.492-2.172c1.352-0.97,1.623-1.998,2.662-3.258c1.123-1.357,2.412-1.746,4.241-1.862&#xD;&#xA;&#x9;c1.892-0.116,2.599-1.648,4.491-1.784c1.954-0.136,3.16,0.911,4.987,0.31c1.414-0.465,2.352-1.028,3.826-0.698&#xD;&#xA;&#x9;c1.496,0.349,2.227,1.532,3.742,1.241c2.598-0.504,5.051,0.175,6.318,2.328c1.311,2.211,4.408,2.036,4.99,4.499&#xD;&#xA;&#x9;c0.25,1.106-0.229,2.211,0.748,2.871c1.269,0.853,2.91,1.163,2.91,2.637c0,2.793-2.435,4.112-2.162,6.905&#xD;&#xA;&#x9;c0.168,1.765,1.166,2.657,1.166,4.422c0,1.338-0.957,2.076-2.162,2.792c-2.496,1.494-2.245,4.112-4.824,5.431&#xD;&#xA;&#x9;C91.544,42.904,89.84,42.652,87.344,43.429z"/>
    <path fill="#B7854D" d="M70.047,36.523c-0.458,2.599-0.104,4.073,0.083,6.672c0.271,3.472,0.52,5.721,2.578,8.611&#xD;&#xA;&#x9;c1.746,2.463,4.242,3.414,7.401,3.104c3.597-0.349,5.511-2.832,6.57-6.051c1.245-2.812,0.995-4.771,0.995-7.835&#xD;&#xA;&#x9;c0-1.958,0.998-3.239,0.167-5.042c-0.438-0.931-1.496-1.008-2.576-1.008c-1.062,0-1.438,1.008-2.496,1.008&#xD;&#xA;&#x9;c-1.062,0-1.371-0.931-2.41-1.164c-1.104-0.233-1.784,0.413-2.746,1.008c-2.002,1.239-2.183-0.64-3.575-1.008&#xD;&#xA;&#x9;C72.417,34.391,71.751,36.64,70.047,36.523z"/>
    <path fill="#B7854D" d="M74.454,52.894c0.25,2.968-1.309,5.159-0.582,8.069c0.77,3.083,2.786,5.663,6.155,5.663&#xD;&#xA;&#x9;c2.617,0,3.679-2.483,4.24-4.888c0.853-3.607-0.582-5.722-0.582-9.387C80.089,52.35,77.469,54.754,74.454,52.894z"/>
    <path fill="#B7854D" d="M70.878,57.547c-2.037,0.136-2.869,1.319-4.574,2.328c-4.096,2.424-5.427,5.139-7.402,9.31&#xD;&#xA;&#x9;c-2.432,5.121-3.659,7.969-5.738,13.188c-0.561,1.396-0.956,2.229-1.081,3.727c-0.083,1.084,0.25,2.072-0.666,2.713&#xD;&#xA;&#x9;c-2.494,1.746-4.428,2.91-5.239,5.742c-0.582,2.074,2.578,4.383,4.657,3.411c2.744-1.278,2.952-3.489,4.325-6.052&#xD;&#xA;&#x9;c0.311,0.895,0.415,1.494,1.081,2.174c0.811,0.812,2.724,0.23,2.911-0.854c0.395-2.094-0.853-3.396-2.412-4.965&#xD;&#xA;&#x9;c-1.601-1.609,0.333-3.475,1.165-5.511c0.894-2.149,1.351-3.374,2.661-5.354c2.953-4.421,5.489-6.128,9.563-9.619&#xD;&#xA;&#x9;c1.227-1.047,0.416-2.405,0.416-3.957C70.545,61.504,70.878,59.875,70.878,57.547z"/>
    <path fill="#B7854D" d="M86.762,67.789c4.491,2.095,5.82,4.945,7.4,9.154c0.812,2.188,1.207,3.49,1.414,5.815&#xD;&#xA;&#x9;c0.167,1.845,1.27,3.782-0.415,4.732c-1.894,1.065-3.847,2.386-3.244,4.346c0.25,0.854,1.414,1.026,2.329,0.776&#xD;&#xA;&#x9;c0.936-0.256,1.186-1.243,2.163-1.165c2.058,0.192,1.683,2.577,2.493,4.345c0.707,1.516,3.076,2.404,4.324,1.242&#xD;&#xA;&#x9;c1.873-1.746,1.187-4.27-0.248-6.362c-0.979-1.416-2.621-1.728-2.828-3.413c-0.541-4.285-0.041-6.751-1.166-10.938&#xD;&#xA;&#x9;c-1.08-4.053-0.645-6.729-3.075-10.239c-1.871-2.715-3.306-4.034-5.904-6.129c-0.978-0.776-1.913-0.776-2.827-1.629L86.762,67.789z"/>
    <path fill="#910063" d="M98.839,131.654c-3.005-4.456-6.401-21.991-6.587-24.146c-0.479-5.47-0.105-8.861-2.746-13.809&#xD;&#xA;&#x9;c-1.705-3.184-2.807-4.87-4.24-8.146c-1.394-3.183-1.81-5.412-0.998-8.768c0.604-2.502,1.686-3.725,2.078-6.285&#xD;&#xA;&#x9;c0.854-5.391,2.12-7.848-0.082-13.809c-0.854-0.097-1.311-0.466-2.162-0.466c-0.271,2.929,0.354,4.733-0.832,7.448&#xD;&#xA;&#x9;c-0.812,1.843-2.205,3.258-4.324,3.103c-4.968-0.368-5.854-6.049-5.238-10.861c-0.707,0.427-1.006-0.148-1.608,0.415&#xD;&#xA;&#x9;c-1.31,1.222-1.323,2.959-1.385,4.705c-0.125,2.948,0.083,4.635,0.582,7.525c1.123,6.381,0.145,10.823-3.576,16.292&#xD;&#xA;&#x9;c-2.079,3.063-3.556,4.867-4.159,8.455c-0.707,4.133,0.707,6.519,1.331,10.707c0.604,3.938,2.308,17.416,3.327,21.256&#xD;&#xA;&#x9;c1.704,3.184,4.137,3.781,7.318,5.433c3.033,1.569,4.762,2.793,8.23,3.182c2.828,0.329,4.407,0.101,7.235-0.075&#xD;&#xA;&#x9;C94.143,133.616,96.509,133.614,98.839,131.654z"/>
    <path fill="#272525" d="M70.238,41.85c-5.383-1.438-6.01,5.327,0.1,5.129C70.77,45.284,70.458,43.794,70.238,41.85z"/>
    <path fill="#B7854D" d="M69.002,42.693c-0.71,0.02-1.533-0.013-1.584,0.907c-0.105,1.887,1.03,2.273,2.002,2.038&#xD;&#xA;&#x9;C69.508,44.825,69.523,43.127,69.002,42.693z"/>
    <path fill="#272525" d="M87.462,41.85c5.384-1.438,6.013,5.327-0.099,5.129C86.932,45.284,87.244,43.794,87.462,41.85z"/>
    <path fill="#B7854D" d="M88.7,42.693c0.709,0.02,1.532-0.013,1.583,0.907c0.105,1.887-1.03,2.273-2.002,2.038&#xD;&#xA;&#x9;C88.193,44.825,88.178,43.127,88.7,42.693z"/>
    <path fill="#272525" d="M96.783,39.97c-0.021,2.091-4.708,3.814-5.299,2.572c-0.606-1.275,1.141-0.742,1.677-1.21&#xD;&#xA;&#x9;c3.353-0.997,0.26-4.558,3.515-5.852c1.344-0.534,2.383-1.852,2.488-3.229c0.105-1.373-0.729-2.792-0.682-4.104&#xD;&#xA;&#x9;c0.022-0.686,2.168-3.571,1.877-5.511c-0.291-1.94-2.041-1.932-2.396-2.879c-0.322-0.861,0.214-1.723-0.391-3.172&#xD;&#xA;&#x9;c-0.605-1.449-2.271-0.984-3.9-1.92c-0.884-0.507-1.339-3.2-2.918-3.899c-1.58-0.698-3.621,1.248-6.089,0.159&#xD;&#xA;&#x9;c-0.632-0.278-0.769-0.701-1.237-1.07c-1.844-1.448-4.691,1.457-6.867,0.857c-1.072-0.294-1.677-1.012-2.866-0.402&#xD;&#xA;&#x9;c-1.045,0.536-1.947,1.157-2.915,1.593c-0.966,0.434-2.259,0.156-3.514,0.562c-1.255,0.406-1.914,2.652-2.946,3.974&#xD;&#xA;&#x9;c-0.577,0.738-2.871,1.081-4.004,2.553c-1.132,1.471,0.47,3.022,0.083,4.965c-0.173,0.87-1.668,1.346-1.917,2.664&#xD;&#xA;&#x9;c-0.25,1.319,1.174,2.556,1.783,4.074c0.328,0.816-0.205,2.252-0.78,3.192c-1.964,3.209,5.027,1.984,4.747,5.479&#xD;&#xA;&#x9;c-0.08,1.004,1.284,2.506,2.081,3.118c2.47-0.305-1.659,1.966-4.026,0.26c-2.118-1.523-0.049-4.865-2.801-5.133&#xD;&#xA;&#x9;c-1.842-0.179-2.428-0.743-2.769-1.272c-1.911-2.965,3.506-4.177,0.108-7.617c-2.199-2.226,1.809-4.124,0.919-6.154&#xD;&#xA;&#x9;c-0.749-1.709-0.744-3.089,0.27-4.742c1.75-2.85,5.013-1.083,6.327-5.447c0.625-2.077,3.95-2.468,5.84-2.422&#xD;&#xA;&#x9;c1.028-1.35,1.661-1.78,3.3-2.094c1.072-0.205,4.05,0.375,4.55,0.302c0.5-0.073,2.453-1.207,3.992-1.163&#xD;&#xA;&#x9;c1.539,0.043,2.838,1.771,3.894,1.896s1.929-1.588,4.001-1.21c4.021,0.734,1.684,4.597,6.866,5.195&#xD;&#xA;&#x9;c3.062,0.354,1.231,4.742,4.542,7.012c1.113,0.763,1.513,2.341,1.299,3.531c-0.318,1.768-2.713,4.217-1.947,5.902&#xD;&#xA;&#x9;C103.593,35.745,96.825,35.98,96.783,39.97z"/>
    <path fill="#272525" d="M83.016,35.042c1.252-0.069,2.463-1.73,3.33-1.698c0.868,0.032,0.998,1.629,1.746,1.784&#xD;&#xA;&#x9;c0.749,0.155,1.143-0.943,1.143-0.943c0.479-0.802,1.156,1.412,0.648,2.168c-1.637,2.451-2.794-0.45-4.162-0.604&#xD;&#xA;&#x9;c-1.369-0.155-1.777,1.54-2.951,1.629c-1.172,0.09-2.513-1.514-3.324-1.629c-1.313-0.186-2.188,1.471-3.409,1.396&#xD;&#xA;&#x9;c-1.221-0.075-1.353-1.276-2.657-1.408C72.076,35.606,70.4,39.323,68.2,35.9c0.241-1.244,1.561-0.126,2.38-0.605&#xD;&#xA;&#x9;c1.207-0.706,1.906-2.052,3.213-2.012c1.308,0.04,1.04,2.523,2.325,2.467c1.245-0.054,1.743-2.907,3.157-2.927&#xD;&#xA;&#x9;C80.691,32.8,81.766,35.11,83.016,35.042z"/>
    <path fill="#272525" d="M69.464,47.541c-0.832-3.297-0.326-9.396,0.336-10.95c1.41,0.399,0.658,2.899,0.812,4.337&#xD;&#xA;&#x9;c0.337,3.152,0.386,6.84,2.434,9.584c1.275,1.709,3.279,4.282,7.104,3.273c8.062-2.125,6.611-13.267,6.685-16.691&#xD;&#xA;&#x9;c0.017-0.746,1.907-0.857,1.956-0.321c0.759,8.284-0.939,15.15-6.282,17.875C76.439,57.743,70.882,53.159,69.464,47.541z"/>
    <path fill="#272525" d="M75.743,42.614c-0.271-0.389,0.603-1.334,0.978-0.949c1.664,1.707,3.264,1.414,4.451-0.023&#xD;&#xA;&#x9;c0.402-0.485,1.526,0.38,0.934,1.011C80.361,44.512,77.199,44.708,75.743,42.614z"/>
    <path fill="#272525" d="M81.21,46.073c4.228,3.452-1.188,9.366-5.028,5.953C73.181,49.357,77.316,42.893,81.21,46.073z"/>
    <path fill="#7B6EC9" d="M81.038,48.943c0.95,2.242-3.433,3.543-3.935,1.267C76.494,47.438,79.412,45.118,81.038,48.943z"/>
    <path fill="#272525" d="M83.699,55.253c0.859-0.212,1.938-0.111,2.595,0.353c1.495,1.058,1.728,4.672,2.054,6.305&#xD;&#xA;&#x9;c1.539,7.692-6.546,16.503-2.054,23.103c0.713,1.047,1.718,1.979,2.446,3.055c3.537,5.205,4.049,9.846,4.312,15.812&#xD;&#xA;&#x9;c0.246,5.562,1.688,12.322,3.244,17.704c0.791,2.735,3.493,7.608,4.163,9.332c0.65,1.671-2.023,1.799-2.805,2.028l0.697-0.719&#xD;&#xA;&#x9;c-2.92-5.139-4.787-10.453-6.221-16.092c-1.771-6.955-0.797-14.346-2.324-20.328c-1.136-4.435-5.777-7.63-6.76-12.104&#xD;&#xA;&#x9;c-2.13-9.725,6.157-14.96,2.965-26.581l-0.871-0.233c0.188,6.649-0.543,11.288-6.363,11.133c-5.821-0.155-6.042-4.802-5.488-11.559&#xD;&#xA;&#x9;c-0.028-0.344-0.77,0.004-1.206-0.078c-1.912,6.595-0.001,11.059,1.125,14.809c2.603,8.672-6.912,16.49-7.787,25.072&#xD;&#xA;&#x9;c-0.628,6.174,1.499,12.016,2.434,18.057c0.807,5.22,0.354,10.906,5.569,14.275c3.648,2.356,8.042,3.18,12.329,3.885&#xD;&#xA;&#x9;c3.124,0.514,10.61-0.176,12.601-0.252c0.32-0.015-0.836,1.022-0.92,1.211c-4.312,2.107-9.68,2.096-14.383,1.463&#xD;&#xA;&#x9;c-6.794-0.916-13.502-5.127-16.115-9.334c-1.146-8.67-6.355-26.109-4.109-33.645c2.042-6.847,9.283-12.396,7.895-19.976&#xD;&#xA;&#x9;c-1.002-5.467-2.08-11.494,1.027-16.595L74.506,55c-0.164,2.105-0.622,3.643-0.052,6.038c1.058,4.432,6.085,6.103,8.597,1.932&#xD;&#xA;&#x9;C84.423,60.689,83.714,57.734,83.699,55.253z"/>
    <path fill="#272525" d="M71.194,58.528c-2.894,1.347-3.98,2.314-5.733,3.873c-5.747,5.106-8.762,12.102-11.246,18.978&#xD;&#xA;&#x9;c-0.921,2.551-0.756,5.146-1.189,7.77c-1.527,1.311-7.418,4.492-6.218,7.012c0.417,0.877,2.149,0.967,2.974,0.706&#xD;&#xA;&#x9;c2.65-0.839,4.502-4.162,5.191-6.507c1.328,0.586,1.745,2.104,2.217,3.276c1.617,0.962,1.468-1.853,0.919-2.674&#xD;&#xA;&#x9;c-0.771-1.153-2.961-1.188-2.866-2.772c0.478-7.879,7.244-16.323,13.518-21.188c0.353-0.12,0.766-0.396,1.135-0.151&#xD;&#xA;&#x9;c0.22,0.522,0.821,1.404,0.433,1.967c-0.866,1.255-2.913,2.654-4.051,3.827c-4.333,4.458-8.049,9.727-9.196,15.746&#xD;&#xA;&#x9;c6.705,3.234,1.124,10.06-1.947,4.844c-2.725,10.18-14.36,7.386-10.274,0.25c1.467-2.562,4.531-3.586,6.65-5.549&#xD;&#xA;&#x9;c0.511-10.191,5.486-21.534,13.844-28.349c1.31-1.069,3.713-2.392,5.46-2.522C70.815,57.064,71.814,58.24,71.194,58.528z"/>
    <path fill="#272525" d="M101.039,87.327c2.378,1.81,5.113,5.032,4.271,8.122c-0.254,0.934-2.166,5.311-5.947,2.521&#xD;&#xA;&#x9;c-1.709-1.261-1.051-6.405-3.12-5.821c-0.62,0.176-1.442,1.336-1.964,1.584c-0.703,0.338-2.307,0.062-2.866-0.453&#xD;&#xA;&#x9;c-3.69-3.422,3.36-5.776,3.246-7.868c-0.216-3.866-2.989-13.231-6.316-15.682c-2.28-1.681-2.286-3.658-0.659-3.234&#xD;&#xA;&#x9;c7.116,5.181,8.979,13.161,8.813,21.187c-1.095,0.398-5.487,2.985-3.405,4.389c1.584,1.066,3.41-3.482,4.536-1.685&#xD;&#xA;&#x9;c0.421,0.675,1.728,6.656,4.052,6.097c0.896-0.215,2.133-0.918,1.688-2.849c-0.427-1.827-3.154-4.76-4.437-6.054&#xD;&#xA;&#x9;c0.34-0.719,0.502-1.789,0.539-2.572c0.188-3.96-1.555-12.863-3.351-16.444c-1.993-3.969-4.582-6.658-8.328-9.18&#xD;&#xA;&#x9;c-0.64-0.43-1.009-1.231-0.757-1.967c0.195-0.57,0.847-0.407,1.297-0.252c3.533,1.216,7.68,7.095,9.301,10.189&#xD;&#xA;&#x9;C100.464,72.758,101.889,81.398,101.039,87.327z"/>
    <path fill="#272525" d="M72.957,129.854c-0.383,4.076-5.425,9.435-8.347,12.061c3.525-0.199,7.496-1.393,9.463-4.338&#xD;&#xA;&#x9;c0.499-0.747,0.645-1.646,1.081-2.424c1.084,0.043,1.747,5.34,1.813,5.979c0.643,0.104,1.291,0.247,1.946,0.253&#xD;&#xA;&#x9;c-0.063-1.281-1.713-7.05-1.985-8.287l0.271-0.604c2.172-0.404,4.213,8.776,4.31,10.356c-1.315,0.637-4.866,0.854-6.11,0&#xD;&#xA;&#x9;c0.028-0.455-0.691-3.029-0.786-3.457c-3.513,3.881-9.364,5.082-14.544,4.086c5.844-2.734,9.977-12.871,10.563-13.729&#xD;&#xA;&#x9;C71.143,129.007,72.395,129.32,72.957,129.854z"/>
    <path fill="#272525" d="M100.32,131.173c2.736,3.769,14.271,9.009,13.734,10.644c-4.558,1.52-9.693,0.523-13.896-1.461&#xD;&#xA;&#x9;c0.183,1.213,0.695,2.362,1.08,3.528c-1.709,0.603-3.604,0.894-5.354,0.252c-1.278-2.04-3.135-8.347-1.782-10.438&#xD;&#xA;&#x9;c0.926-0.054,1.472,6.358,2.977,8.118l1.404-0.354c-0.483-1.835-1.676-3.455-1.947-5.347c1.494-0.119,5.432,5.436,13.355,4.136&#xD;&#xA;&#x9;C106.734,138.729,100.816,135.439,100.32,131.173z"/>
    <path fill="#272525" d="M82.893,73.145c0.709,0.191,0.127,1.393-0.996,1.51c-1.123,0.116-5.537,0.021-6.483-0.078&#xD;&#xA;&#x9;c-0.949-0.099-1.658-1.359-0.871-1.494S82.184,72.955,82.893,73.145z"/>
    <path fill="#272525" d="M76.137,39.643c0.209,0.326-0.535,1.078-0.832,0.752c-1.312-1.444-2.633-1.247-3.65-0.1&#xD;&#xA;&#x9;c-0.344,0.388-1.24-0.353-0.735-0.854C72.409,37.963,75.007,37.887,76.137,39.643z"/>
    <path fill="#272525" d="M86.781,39.643c0.209,0.326-0.533,1.078-0.83,0.752c-1.311-1.444-2.633-1.247-3.65-0.1&#xD;&#xA;&#x9;c-0.344,0.388-1.24-0.353-0.734-0.854C83.053,37.963,85.652,37.887,86.781,39.643z"/>
  </g>
</svg>