<svg version="1.1" width="213" height="172" viewBox="-1 -1 213 172" xmlns="http://www.w3.org/2000/svg" xmlns:xlink="http://www.w3.org/1999/xlink">
  <!-- Exported by Scratch - http://scratch.mit.edu/ -->
  <g id="ID0.1382995117455721" transform="matrix(1, 0, 0, 1, -0.5, 0.5)">
    <g id="Page-1">
      <g id="frank-b-[fantasy,spooky,halloween,frankenstein,monster,alex-eben-meyer]">
        <g id="Arm-L">
          <path id="Shape" fill="#82783C" stroke="none" stroke-width="1" d="M 46.624 73.790 L 46.624 79.787 C 42.725 79.544 37.120 79.057 36.227 76.869 C 39.801 75.897 43.212 74.924 46.624 73.790 Z " transform="matrix(1, 0, 0, 1, 0, 27.5)"/>
          <path id="Shape" fill="#A0AA1E" stroke="none" stroke-width="1" d="M 31.759 65.118 C 31.922 66.496 32.247 67.792 32.897 69.008 L 1.137 69.008 C -0.081 61.714 1.625 52.475 3.899 44.695 C 6.417 36.429 13.808 27.676 13.808 27.676 L 43.862 32.701 C 43.943 32.620 31.028 57.986 31.759 65.118 Z " transform="matrix(1, 0, 0, 1, 0, 27.5)"/>
          <path id="Shape" fill="#824600" stroke="none" stroke-width="1" d="M 50.198 0.284 L 58.077 29.459 L 41.831 43.966 L 6.417 34.322 C 6.417 34.322 14.377 19.167 27.292 11.711 C 35.902 6.767 47.923 1.094 50.198 0.284 Z " transform="matrix(1, 0, 0, 1, 0, 27.5)"/>
        </g>
        <g id="Arm-R">
          <path id="Shape" fill="#82783C" stroke="none" stroke-width="1" d="M 11.889 71.520 L 11.889 77.518 C 15.788 77.274 21.311 76.788 22.286 74.600 C 18.712 73.627 15.300 72.655 11.889 71.520 Z " transform="matrix(1, 0, 0, 1, 153, 27.5)"/>
          <path id="Shape" fill="#A0AA1E" stroke="none" stroke-width="1" d="M 27.566 63.497 C 27.403 64.875 27.078 66.172 26.428 67.387 L 58.188 67.387 C 59.406 60.093 58.675 51.098 56.644 43.236 C 53.802 31.972 37.313 20.382 37.313 20.382 L 14.975 37.807 C 14.975 37.726 28.297 56.365 27.566 63.497 Z " transform="matrix(1, 0, 0, 1, 153, 27.5)"/>
          <path id="Shape" fill="#824600" stroke="none" stroke-width="1" d="M 8.315 0.284 L 0.436 29.459 L 12.701 42.912 L 51.852 31.809 C 51.852 31.809 44.136 19.248 31.221 11.792 C 22.530 6.767 10.589 1.094 8.315 0.284 Z " transform="matrix(1, 0, 0, 1, 153, 27.5)"/>
        </g>
        <g id="Leg-R">
          <path id="Shape" fill="#A0AA1E" stroke="none" stroke-width="1" d="M 10.216 37.689 L 35.071 41.498 C 35.071 41.903 31.335 63.784 31.335 63.784 L 41.163 63.946 C 41.163 63.946 41.082 64.595 41.001 64.838 C 37.752 64.919 9.485 64.757 9.485 64.757 C 9.485 64.757 10.054 38.175 10.216 37.689 Z " transform="matrix(1, 0, 0, 1, 126, 105.5)"/>
          <path id="Shape" fill="#005A5A" stroke="none" stroke-width="1" d="M 39.051 52.844 C 39.214 49.926 39.051 46.846 39.295 44.010 C 39.701 39.634 41.651 19.292 41.326 17.023 L 2.175 0.166 C 2.175 2.354 2.012 39.472 3.556 52.925 L 39.051 52.844 Z " transform="matrix(1, 0, 0, 1, 126, 105.5)"/>
          <path id="Rectangle-path" fill="#006482" stroke="none" stroke-width="1" d="M 0.307 46.765 L 42.138 46.765 L 42.138 60.137 L 0.307 60.137 L 0.307 46.765 Z " transform="matrix(1, 0, 0, 1, 126, 105.5)"/>
        </g>
        <g id="Leg-L">
          <path id="Shape" fill="#A0AA1E" stroke="none" stroke-width="1" d="M 31.241 29.689 L 6.385 33.498 C 6.385 33.903 10.122 55.784 10.122 55.784 L 0.293 55.946 C 0.293 55.946 0.375 56.595 0.456 56.838 C 3.705 56.919 31.972 56.757 31.972 56.757 C 31.972 56.757 31.322 30.175 31.241 29.689 Z " transform="matrix(1, 0, 0, 1, 43, 113.5)"/>
          <path id="Shape" fill="#005A5A" stroke="none" stroke-width="1" d="M 36.683 43.547 L 36.602 0.432 L 1.106 10.644 C 1.106 10.644 2.811 35.281 4.923 43.628 L 36.683 43.547 Z " transform="matrix(1, 0, 0, 1, 43, 113.5)"/>
          <path id="Rectangle-path" fill="#006482" stroke="none" stroke-width="1" d="M 0.050 40.386 L 39.769 40.386 L 39.769 53.758 L 0.050 53.758 L 0.050 40.386 Z " transform="matrix(1, 0, 0, 1, 43, 113.5)"/>
        </g>
        <g id="Head">
          <path id="Shape" fill="#FFC800" stroke="none" stroke-width="1" d="M 58.438 7.051 C 55.839 6.970 53.402 8.104 51.940 10.211 C 50.234 12.400 49.747 19.045 57.464 19.450 C 60.469 19.612 64.936 18.964 64.936 13.939 C 64.936 8.915 61.200 7.051 58.438 7.051 Z " transform="matrix(1, 0, 0, 1, 66, -0.5)"/>
          <path id="Shape" fill="#A0AA1E" stroke="none" stroke-width="1" d="M 60.225 1.945 C 52.590 -0.162 27.816 0.810 22.374 0.891 C 17.257 0.973 12.139 -0.243 9.621 4.944 C 7.510 9.320 6.129 23.097 5.316 30.310 L 66.561 30.067 C 65.830 23.502 62.256 3.890 60.225 1.945 Z " transform="matrix(1, 0, 0, 1, 66, -0.5)"/>
          <path id="Shape" fill="#A0AA1E" stroke="none" stroke-width="1" d="M 64.287 15.560 C 64.287 15.560 64.368 15.560 64.368 15.641 L 64.287 15.560 Z " transform="matrix(1, 0, 0, 1, 66, -0.5)"/>
          <path id="Shape" fill="#82783C" stroke="none" stroke-width="1" d="M 62.093 14.101 C 58.926 15.155 48.772 14.588 48.366 14.264 C 48.285 10.860 48.123 8.428 54.946 8.023 C 61.769 7.618 61.687 10.536 62.093 14.101 Z " transform="matrix(1, 0, 0, 1, 66, -0.5)"/>
          <path id="Shape" fill="#645A1E" stroke="none" stroke-width="1" d="M 60.063 11.589 C 59.657 11.589 59.251 11.751 59.007 12.075 C 58.763 12.400 58.763 13.534 60.063 13.615 C 60.550 13.615 61.200 13.534 61.200 12.724 C 61.119 12.156 60.713 11.670 60.063 11.589 C 60.063 11.589 60.063 11.589 60.063 11.589 Z " transform="matrix(1, 0, 0, 1, 66, -0.5)"/>
          <path id="Shape" fill="#645A1E" stroke="none" stroke-width="1" d="M 52.021 11.670 C 51.615 11.670 51.209 11.832 50.966 12.156 C 50.722 12.481 50.722 13.615 52.021 13.696 C 52.509 13.696 53.159 13.615 53.159 12.805 C 53.240 12.237 52.752 11.670 52.184 11.670 C 52.103 11.670 52.021 11.670 52.021 11.670 Z " transform="matrix(1, 0, 0, 1, 66, -0.5)"/>
          <path id="Shape" fill="#000000" stroke="none" stroke-width="1" d="M 54.377 16.695 C 54.377 16.695 57.382 16.533 58.844 16.614 C 59.007 17.019 59.088 17.505 59.007 17.910 C 58.926 17.991 58.926 18.154 58.844 18.154 C 58.276 18.154 54.621 18.478 54.377 17.910 C 54.377 17.586 54.377 17.100 54.377 16.695 Z " transform="matrix(1, 0, 0, 1, 66, -0.5)"/>
          <path id="Shape" fill="#000000" stroke="none" stroke-width="1" d="M 67.130 10.779 C 66.642 10.779 66.236 11.103 65.992 11.508 C 65.749 12.075 65.749 13.696 67.048 13.777 C 67.536 13.777 68.185 13.615 68.185 12.400 C 68.185 11.184 67.617 10.779 67.130 10.779 Z " transform="matrix(1, 0, 0, 1, 66, -0.5)"/>
          <path id="Shape" fill="#000000" stroke="none" stroke-width="1" d="M 35.045 11.265 C 34.558 11.265 34.152 11.589 33.989 11.994 C 33.664 12.481 33.746 14.182 35.045 14.264 C 35.533 14.264 36.182 14.101 36.182 12.886 C 36.182 11.670 35.533 11.265 35.045 11.265 Z " transform="matrix(1, 0, 0, 1, 66, -0.5)"/>
          <path id="Shape" fill="#FAB414" stroke="none" stroke-width="1" d="M 16.932 12.318 L 16.932 14.426 C 13.520 14.507 8.241 14.345 6.535 14.345 L 6.535 12.237 C 9.459 12.237 14.008 12.237 16.932 12.318 Z " transform="matrix(1, 0, 0, 1, 66, -0.5)"/>
          <path id="Shape" fill="#FFC800" stroke="none" stroke-width="1" d="M 7.753 7.051 C 5.154 6.970 2.717 8.104 1.255 10.211 C -0.451 12.400 -0.938 19.045 6.697 19.450 C 9.703 19.612 14.170 18.964 14.170 13.939 C 14.170 8.915 10.515 7.051 7.753 7.051 Z " transform="matrix(1, 0, 0, 1, 66, -0.5)"/>
          <path id="Shape" fill="#FAB414" stroke="none" stroke-width="1" d="M 7.347 11.589 C 6.616 11.589 5.966 11.913 5.560 12.481 C 5.073 13.048 4.992 14.912 7.022 14.993 C 7.834 15.074 9.053 14.831 9.053 13.453 C 9.134 12.481 8.403 11.670 7.428 11.589 C 7.428 11.589 7.428 11.589 7.347 11.589 Z " transform="matrix(1, 0, 0, 1, 66, -0.5)"/>
        </g>
        <g id="Overalls-+-Shirt">
          <path id="Shape" fill="#A0640A" stroke="none" stroke-width="1" d="M 1.831 50.966 L 62.589 74.630 L 125.701 49.912 C 125.701 49.912 124.726 32.326 123.752 27.301 C 123.670 26.977 121.965 8.824 121.721 7.527 C 115.710 4.772 97.434 2.421 97.434 2.421 L 27.986 2.583 C 27.986 2.583 19.620 3.799 13.690 5.987 C 7.761 8.175 0.369 11.822 0.369 11.822 C 0.369 11.822 0.044 26.005 0.451 33.299 C 1.019 43.591 1.831 50.966 1.831 50.966 Z " transform="matrix(1, 0, 0, 1, 40, 20.5)"/>
          <path id="Shape" fill="#008264" stroke="none" stroke-width="1" d="M 62.913 22.439 C 46.506 22.439 30.098 22.601 30.098 22.601 C 30.098 22.601 26.524 22.844 26.443 22.601 C 21.894 24.303 1.750 50.966 1.750 50.966 L 4.025 103.563 L 62.913 102.833 L 70.630 57.206 L 62.913 22.439 Z " transform="matrix(1, 0, 0, 1, 40, 20.5)"/>
          <path id="Shape" fill="#00A08C" stroke="none" stroke-width="1" d="M 62.913 102.833 L 127.326 102.023 L 125.701 49.912 C 125.701 49.912 103.689 25.762 98.409 22.844 C 93.211 22.520 77.859 22.439 62.995 22.439 L 62.913 102.833 Z " transform="matrix(1, 0, 0, 1, 40, 20.5)"/>
          <path id="Shape" fill="#005A5A" stroke="none" stroke-width="1" d="M 93.454 0.638 L 94.267 36.945 L 102.064 37.027 C 102.064 37.027 102.308 8.986 100.927 0.638 L 93.454 0.638 Z " transform="matrix(1, 0, 0, 1, 40, 20.5)"/>
          <path id="Shape" fill="#FFC800" stroke="none" stroke-width="1" d="M 98.328 30.705 C 97.434 30.705 96.622 31.110 96.054 31.840 C 95.485 32.569 95.566 35 98.247 35.082 C 99.303 35.163 100.602 34.838 100.602 33.136 C 100.684 31.921 99.709 30.867 98.490 30.786 C 98.409 30.705 98.328 30.705 98.328 30.705 Z " transform="matrix(1, 0, 0, 1, 40, 20.5)"/>
          <path id="Shape" fill="#005A5A" stroke="none" stroke-width="1" d="M 23.194 0.638 C 21.813 8.986 22.057 37.027 22.057 37.027 L 29.773 36.945 L 30.585 0.638 L 23.194 0.638 Z " transform="matrix(1, 0, 0, 1, 40, 20.5)"/>
          <path id="Shape" fill="#FFC800" stroke="none" stroke-width="1" d="M 25.712 30.705 C 26.605 30.705 27.418 31.110 27.986 31.840 C 28.555 32.569 28.474 35 25.793 35.082 C 24.737 35.163 23.438 34.838 23.438 33.136 C 23.356 31.921 24.331 30.867 25.549 30.786 C 25.549 30.705 25.631 30.705 25.712 30.705 Z " transform="matrix(1, 0, 0, 1, 40, 20.5)"/>
          <path id="Shape" fill="#005A5A" stroke="none" stroke-width="1" d="M 48.861 42.213 C 47.562 47.724 49.836 55.261 53.166 58.827 C 57.146 61.745 66.162 62.069 70.386 59.637 C 75.260 56.882 76.559 50.561 76.478 45.617 C 76.478 44.482 76.478 43.348 76.397 42.213 L 48.861 42.213 Z " transform="matrix(1, 0, 0, 1, 40, 20.5)"/>
          <path id="Rectangle-path" fill="#006482" stroke="none" stroke-width="1" d="M 46.912 37.027 L 78.103 37.027 L 78.103 45.779 L 46.912 45.779 L 46.912 37.027 Z " transform="matrix(1, 0, 0, 1, 40, 20.5)"/>
          <path id="Shape" fill="#FAB414" stroke="none" stroke-width="1" d="M 62.913 39.458 C 62.020 39.377 61.126 39.863 60.558 40.592 C 59.908 41.403 60.070 43.834 62.832 43.996 C 63.969 44.077 65.188 43.753 65.188 41.970 C 65.269 40.673 64.294 39.539 62.995 39.458 C 62.995 39.458 62.913 39.458 62.913 39.458 Z " transform="matrix(1, 0, 0, 1, 40, 20.5)"/>
        </g>
        <path id="Hand-R" fill="#A0AA1E" stroke="none" stroke-width="1" d="M 180.809 93.280 C 179.997 94.577 176.017 100.979 173.011 102.438 C 165.539 106.166 155.142 104.302 154.736 106.652 C 154.330 109.002 164.320 107.706 163.995 109.651 C 163.670 111.596 151.162 111.839 151.080 114.432 C 150.999 117.026 159.203 115.081 161.234 116.701 C 161.234 116.945 161.315 117.269 161.396 117.593 C 159.609 118.971 152.786 120.024 152.624 121.240 C 152.461 122.455 153.355 123.104 158.066 123.104 C 162.777 123.104 169.275 122.861 177.154 122.861 C 185.033 122.861 202.903 120.105 209.888 100.412 C 210.457 98.710 210.863 97.008 211.188 95.306 L 180.809 93.280 Z " transform="matrix(1, 0, 0, 1, 0, -0.5)"/>
        <path id="Hand-L" fill="#A0AA1E" stroke="none" stroke-width="1" d="M 31.516 94.901 C 32.328 96.198 36.308 102.600 39.313 104.059 C 46.786 107.787 57.183 105.923 57.589 108.273 C 57.995 110.623 48.005 109.327 48.330 111.272 C 48.654 113.217 61.163 113.379 61.244 116.053 C 61.326 118.727 53.122 116.701 51.091 118.322 C 51.091 118.565 51.010 118.890 50.929 119.214 C 52.716 120.591 59.539 121.645 59.701 122.861 C 59.864 124.076 58.970 124.725 54.259 124.725 C 49.548 124.725 43.050 124.482 35.171 124.482 C 27.292 124.482 9.422 121.807 2.437 102.114 C 1.868 100.412 1.462 98.710 1.137 97.008 L 31.516 94.901 Z " transform="matrix(1, 0, 0, 1, 0, -0.5)"/>
      </g>
    </g>
  </g>
</svg>