<svg version="1.1" width="72" height="112" viewBox="-1 -1 72 112" xmlns="http://www.w3.org/2000/svg" xmlns:xlink="http://www.w3.org/1999/xlink">
  <!-- Exported by Scratch - http://scratch.mit.edu/ -->
  <g id="ID0.8569089779630303" transform="matrix(1, 0, 0, 1, 0, 0.5)">
    <g id="Page-1">
      <g id="milk-e-[food,drink,alex-eben-meyer]">
        <path id="Shape" fill="#82001E" stroke="none" stroke-width="1" d="M 52.232 96.943 L 54.380 89.904 C 54.380 89.904 54.696 84.742 49.324 84.213 C 43.952 83.685 45.972 97.195 45.972 97.195 L 49.296 101.718 L 47.228 105.447 L 50.828 110.058 L 48.964 109.986 C 48.964 109.986 48.276 110.214 48.964 110.634 C 49.172 110.762 53.572 110.550 53.572 110.550 L 50.916 105.431 L 54.400 101.369 L 52.232 96.943 Z "/>
        <path id="Shape" fill="#82001E" stroke="none" stroke-width="1" d="M 30.020 101.057 L 25.888 96.679 C 25.888 96.679 28.620 91.785 28.896 91.173 C 29.444 89.972 29.732 87.895 26.624 86.214 C 21.936 83.685 20.488 91.637 20.488 91.637 L 20.088 96.667 L 25.200 101.093 L 23.024 105.339 C 23.024 105.339 27.824 109.377 27.756 109.741 C 27.200 109.910 26.620 109.625 26.116 109.906 C 25.988 110.186 25.872 110.438 26.212 110.706 C 26.408 110.706 29.968 110.534 30.176 110.602 C 30.268 110.530 26.904 105.243 26.904 105.243 L 30.020 101.057 Z "/>
        <g id="Group-3">
          <path id="Shape" fill="#82001E" stroke="none" stroke-width="1" d="M 3.364 20.399 C 3.364 20.399 2.676 17.029 2.536 17.249 L 0.868 22.316 C 0.868 22.316 0.364 23.917 0.656 24.233 C 0.852 24.453 1.856 23.128 2.544 21.832 L 2.576 21.772 L 3.364 20.399 Z " transform="matrix(1, 0, 0, 1, 34, 84)"/>
          <path id="Shape" fill="#BE0A3C" stroke="none" stroke-width="1" d="M 1.748 4.427 C 1.568 7.669 1.920 14.968 1.980 16.109 C 2.148 19.346 1.980 22.564 2.136 25.798 C 3.140 26.026 2.692 23.396 3.104 23.080 C 4.092 22.352 3.676 25.577 4.152 25.681 C 4.628 25.786 4.460 23.280 5.112 23.000 C 5.768 23.436 5.788 25.549 6.184 25.497 C 6.480 25.457 7.932 11.463 6.948 4.323 C 6.608 1.858 5.536 0.677 4.632 0.529 C 1.104 -0.051 1.748 4.427 1.748 4.427 Z " transform="matrix(1, 0, 0, 1, 34, 84)"/>
        </g>
        <g id="Group-2">
          <path id="Shape" fill="#82001E" stroke="none" stroke-width="1" d="M 3.952 19.115 C 3.952 19.115 4.640 15.745 4.780 15.965 L 6.448 21.032 C 6.448 21.032 6.952 22.632 6.660 22.949 C 6.464 23.169 5.460 21.844 4.772 20.547 L 4.740 20.487 L 3.952 19.115 Z " transform="matrix(1, 0, 0, 1, 9, 85)"/>
          <path id="Shape" fill="#BE0A3C" stroke="none" stroke-width="1" d="M 5.572 3.163 C 5.752 6.405 5.400 13.704 5.340 14.845 C 5.172 18.082 5.340 21.300 5.184 24.533 C 4.180 24.762 4.628 22.132 4.216 21.816 C 3.228 21.088 3.644 24.313 3.168 24.417 C 2.692 24.521 2.860 22.016 2.208 21.736 C 1.552 22.172 1.532 24.285 1.136 24.233 C 0.740 24.181 0.120 13.400 0.264 7.297 C 0.264 7.297 0.264 1.022 2.880 0.814 C 5.496 0.606 5.572 3.163 5.572 3.163 Z " transform="matrix(1, 0, 0, 1, 9, 85)"/>
        </g>
        <g id="Group">
          <path id="Shape" fill="#82001E" stroke="none" stroke-width="1" d="M 31.540 13.075 C 31.540 13.075 45.684 27.418 45.828 28.683 C 44.344 28.727 16.168 32.805 16.168 32.805 L 1.476 27.562 L 31.540 13.075 Z "/>
          <path id="Shape" fill="#BE0A3C" stroke="none" stroke-width="1" d="M 46.224 0.637 L 20.068 0.237 C 20.068 0.569 19.816 5.840 20.220 6.328 C 20.912 7.128 32.248 7.625 35.256 7.833 C 36.656 7.933 46.456 6.408 46.456 6.408 C 46.456 6.408 46.360 1.293 46.224 0.637 Z "/>
          <path id="Shape" fill="#FFC800" stroke="none" stroke-width="1" d="M 1.472 27.566 L 20.216 6.356 C 20.216 6.356 32.908 9.958 35.216 12.479 C 31.012 15.276 1.472 27.566 1.472 27.566 Z "/>
          <path id="Shape" fill="#F01446" stroke="none" stroke-width="1" d="M 64.360 28.507 C 63.012 28.691 43.700 30.764 43.700 30.764 L 40.500 28.334 C 40.500 28.334 26.012 12.699 20.168 6.324 C 22.168 5.620 46.472 6.408 46.472 6.408 C 46.472 6.408 62.064 24.733 64.360 28.507 Z "/>
          <path id="Shape" fill="#82001E" stroke="none" stroke-width="1" d="M 43.680 84.449 L 43.748 93.150 L 66.416 92.649 L 67.980 87.063 L 43.680 84.449 "/>
          <path id="Shape" fill="#BE0A3C" stroke="none" stroke-width="1" d="M 67.980 87.063 L 61.704 71.719 L 51.784 69.726 L 36.464 70.259 L 44.976 86.622 L 67.980 87.063 "/>
          <path id="Shape" fill="#82001E" stroke="none" stroke-width="1" d="M 37.256 71.631 L 61.704 71.719 L 70.516 58.461 L 57.136 55.768 L 45.936 55.415 L 37.256 71.631 "/>
          <path id="Shape" fill="#BE0A3C" stroke="none" stroke-width="1" d="M 70.516 58.461 L 62.576 47.047 L 35.808 47.167 L 47.712 57.969 L 70.516 58.461 "/>
          <path id="Shape" fill="#82001E" stroke="none" stroke-width="1" d="M 45.548 37.315 L 39.596 48.028 L 63.292 48.136 L 69.268 39.884 L 45.548 37.315 "/>
          <path id="Shape" fill="#BE0A3C" stroke="none" stroke-width="1" d="M 63.292 32.116 L 36.456 31.220 L 39.416 33.533 L 47.500 39.444 L 69.268 39.884 L 63.292 32.116 "/>
          <path id="Shape" fill="#82001E" stroke="none" stroke-width="1" d="M 63.292 32.116 L 64.360 28.507 L 40.480 28.334 L 38.076 30.632 L 39.272 31.964 L 63.292 32.116 "/>
          <path id="Shape" fill="#F01446" stroke="none" stroke-width="1" d="M 40.480 28.334 L 1.472 27.566 L 0.192 31.376 L 8.868 39.780 L 1.268 48.776 L 9.784 59.750 L 0 71.067 L 9.292 86.863 L 9.292 92.277 C 9.292 92.277 15.492 92.553 17.760 92.609 C 22.340 92.725 26.908 92.789 31.488 92.969 C 33.608 93.053 43.776 93.146 43.776 93.146 L 45.008 86.618 L 38.288 71.643 L 47.744 57.969 L 39.600 48.028 L 47.504 39.440 L 39.272 31.960 L 40.480 28.334 Z "/>
          <path id="Shape" fill="#C8C8BE" stroke="none" stroke-width="1" d="M 13.164 80.235 L 36 80.672 L 31.164 71.679 L 19.040 66.801 L 7.152 70.995 C 7.152 70.995 12.952 79.911 13.040 80.059 C 13.075 80.122 13.117 80.181 13.164 80.235 Z "/>
          <path id="Shape" fill="#FFFFFF" stroke="none" stroke-width="1" d="M 31.176 71.679 L 40.420 58.773 L 28.028 57.965 L 16.272 59.305 L 7.152 70.995 L 31.176 71.679 "/>
          <path id="Shape" fill="#C8C8BE" stroke="none" stroke-width="1" d="M 40.420 58.773 L 32.312 48.028 L 24.620 47.011 L 8.104 48.328 L 16.272 59.305 L 40.420 58.773 "/>
          <path id="Shape" fill="#FFFFFF" stroke="none" stroke-width="1" d="M 32.312 48.028 L 40.008 39.776 L 20.904 37.647 L 15.260 39.776 L 8.104 48.328 L 32.312 48.028 "/>
          <path id="Shape" fill="#C8C8BE" stroke="none" stroke-width="1" d="M 40.008 39.776 L 33.796 34.225 L 9.032 34.225 L 15.260 39.776 L 40.008 39.776 "/>
        </g>
      </g>
    </g>
  </g>
</svg>