<svg version="1.1" width="68" height="80" xmlns="http://www.w3.org/2000/svg" xmlns:xlink="http://www.w3.org/1999/xlink">
  <!-- Exported by Scratch - http://scratch.mit.edu/ -->
  <g id="ID0.4342425293289125">
    <path id="ID0.7510652793571353" d="M 302 356 C 304.916 355.442 308.050 355.482 311 356 L 324.500 359.750 C 329.057 361.044 336.790 375.676 339.500 385 C 341.794 393.408 342.435 403.567 339 411 C 330.317 422.672 323.661 436.328 303 436 C 300.667 436 298.333 436 296 436 C 285.284 432.049 282.313 420.354 274 414 C 274 410.333 274 406.665 274 403 C 274 390.481 272.355 389.870 274 387 C 279.255 372.895 291.448 365.097 302 356 Z M 281 406 C 288.846 414.956 291.649 425.346 303 427 C 316.639 428.987 331.245 419.431 335 411 C 345.198 388.104 327.790 353.759 306 359 C 288.403 366.414 281.629 384.104 281 406 Z " transform="matrix(0.98531574010849, 0, 0, 0.98531574010849, -269, -349.6)"/>
    <path id="ID0.6840315409936011" fill="#FF9400" d="M 306 359 C 327.790 353.759 345.198 388.104 335 411 C 331.245 419.431 316.639 428.987 303 427 C 291.649 425.346 288.846 414.956 281 406 C 281.629 384.104 288.403 366.414 306 359 Z M 291 401 C 292.375 408.332 300.651 419.363 309 420 C 330.573 421.646 331.648 394.676 327 377 C 308.263 354.816 286.649 377.810 291 401 Z " transform="matrix(0.98531574010849, 0, 0, 0.98531574010849, -269, -349.6)"/>
    <path id="ID0.8511354154907167" d="M 327 377 C 331.648 394.676 330.573 421.646 309 420 C 300.651 419.363 292.375 408.332 291 401 C 286.649 377.810 308.263 354.816 327 377 Z M 296 406 C 297.755 409.420 305.622 416.086 309 416 C 314.544 415.858 320.764 406.023 321 397 C 321.387 382.231 315.322 371.896 300 375 C 296.726 381.590 290.729 395.732 296 406 Z " transform="matrix(0.98531574010849, 0, 0, 0.98531574010849, -269, -349.6)"/>
  </g>
</svg>