<svg version="1.1" width="68" height="201" xmlns="http://www.w3.org/2000/svg" xmlns:xlink="http://www.w3.org/1999/xlink">
  <!-- Exported by Scratch - http://scratch.mit.edu/ -->
  <g id="ID0.4707334293052554" transform="matrix(0.949999988079071, 0, 0, 0.949999988079071, -0.3, 0)">
    <g id="R_Shoe">
      <path id="Fill_8_" fill="#EAA06D" d="M 54.095 181.352 C 53.556 181.970 52.991 182.136 52.237 182.533 C 51.397 182.976 50.675 183.306 49.782 183.673 C 47.903 184.446 45.841 185.251 43.843 185.147 C 42.492 185.076 38.742 185.115 37.431 185.419 C 35.931 185.767 40.664 187.590 41.509 187.691 C 44.215 189.050 46.639 189.127 49.566 189.683 C 50.943 189.949 54.226 189.850 55.681 189.781 C 57.391 189.699 57.289 189.406 58.953 189.064 C 60.543 188.740 62.057 188.189 63.455 187.452 C 64.463 186.921 65.358 186.140 66.405 185.732 C 66.441 185.586 66.461 185.296 66.425 185.148 C 66.262 184.480 65.117 183.200 64.489 182.928 C 63.511 182.503 62.269 182.326 61.157 182.335 C 59.905 182.341 57.979 182.798 56.684 182.651 C 56.195 182.593 54.218 182.180 54.507 181.555 " transform="matrix(1, 0, 0, 1, 0.5, 0)"/>
      <path id="Trim_1_" fill="#BC7240" d="M 66.617 185.680 C 66.874 186.641 66.926 187.637 66.958 188.684 C 66.972 189.197 66.845 189.580 66.783 190.017 C 66.719 190.496 66.895 190.954 66.829 191.432 C 65.764 191.852 64.836 192.494 63.725 192.859 C 62.526 193.254 61.280 193.558 60.071 193.937 C 57.231 194.831 54.014 194.660 51.147 193.995 C 50.006 193.731 48.926 193.322 47.844 192.884 C 46.800 192.460 46.025 191.894 44.865 191.797 C 43.683 191.695 42.542 192.044 41.347 191.960 C 40.233 191.884 38.965 191.807 37.928 191.410 C 35.719 190.562 37.247 187.226 37.185 185.607 C 37.630 185.872 38.504 186.350 38.942 186.656 C 39.887 187.306 40.665 187.449 41.761 187.760 C 42.930 188.094 43.875 188.505 45.040 188.823 C 47.559 189.512 50.186 189.756 52.811 189.901 C 55.337 190.041 57.768 189.897 60.108 188.998 C 61.412 188.498 62.664 187.860 63.903 187.213 C 64.661 186.817 65.710 185.566 66.549 185.554 " transform="matrix(1, 0, 0, 1, 0.5, 0)"/>
      <path id="Outline_13_" d="M 66.188 185.383 C 66.242 185.545 66.744 185.614 66.690 185.448 C 65.977 183.246 64.296 182.078 61.996 182.039 C 60.834 182.018 59.688 182.184 58.541 182.332 C 57.939 182.409 57.328 182.503 56.723 182.496 C 55.653 182.488 55.039 182.099 54.327 181.349 C 54.223 181.240 53.721 181.204 53.861 181.352 C 54.554 182.081 55.048 182.562 56.070 182.708 C 56.997 182.840 57.931 182.718 58.850 182.595 C 61.864 182.194 65.057 181.882 66.188 185.383 L 66.188 185.383 L 66.188 185.383 Z M 66.846 185.448 C 66.820 185.283 66.314 185.194 66.344 185.382 C 66.681 187.420 66.576 189.475 66.617 191.528 C 66.621 191.683 67.125 191.795 67.119 191.594 C 67.076 189.538 67.184 187.483 66.846 185.448 L 66.846 185.448 L 66.846 185.448 Z M 56.202 194.601 C 56.544 194.593 56.182 194.326 56.002 194.330 C 53.812 194.379 51.632 194.258 49.552 193.511 C 47.935 192.930 46.361 191.893 44.634 191.673 C 43.849 191.573 43.097 191.674 42.316 191.795 C 40.759 192.036 39.253 191.764 37.759 191.310 C 36.083 190.799 37.489 187.042 37.435 185.639 C 37.427 185.484 36.925 185.377 36.933 185.576 C 37.007 187.456 36.203 189.234 36.566 191.113 C 36.587 191.201 36.719 191.242 36.788 191.262 C 38.527 191.816 40.263 192.277 42.102 192.133 C 43.252 192.044 44.271 191.747 45.423 192.101 C 46.299 192.374 47.093 192.797 47.937 193.150 C 50.636 194.274 53.286 194.666 56.202 194.601 L 56.202 194.601 L 56.202 194.601 Z M 67.071 191.677 C 67.272 191.586 66.809 191.378 66.671 191.443 C 63.222 193.001 59.789 194.179 56.005 194.333 C 55.666 194.346 56.022 194.611 56.203 194.604 C 60.065 194.448 63.550 193.265 67.071 191.677 L 67.071 191.677 L 67.071 191.677 Z M 66.674 185.513 C 66.802 185.404 66.336 185.210 66.203 185.318 C 62.437 188.566 56.967 190.063 52.084 189.788 C 49.270 189.627 46.473 189.108 43.762 188.338 C 42.383 187.948 40.698 187.598 39.483 186.803 C 38.765 186.331 38.114 185.803 37.334 185.435 C 37.118 185.331 36.826 185.476 37.141 185.624 C 38.487 186.261 39.487 187.173 40.915 187.683 C 42.134 188.121 43.366 188.508 44.622 188.823 C 47.288 189.489 50.014 190.019 52.768 190.084 C 57.631 190.192 62.922 188.753 66.674 185.513 L 66.674 185.513 L 66.674 185.513 Z " transform="matrix(1, 0, 0, 1, 0.5, 0)"/>
    </g>
    <g id="L_Shoe">
      <path id="Fill_6_" fill="#EAA06D" d="M 30.246 192.156 C 30.254 192.882 29.758 194.287 29.195 194.653 C 28.433 195.144 27.049 195.672 26.169 195.851 C 22.315 196.640 16.775 196.671 12.937 195.705 C 12.058 195.484 11.197 195.011 10.974 194.309 C 10.858 193.938 10.585 192.421 10.640 192.083 C 10.738 191.458 12.078 190.661 12.474 190.104 C 12.899 189.507 13.787 189.026 14.378 188.551 C 15.569 187.588 17.400 187.296 18.899 187.072 C 20.612 186.814 22.128 187.048 23.897 187.552 C 25.269 187.948 26.384 188.568 27.609 189.268 C 28.199 189.608 28.736 189.873 29.091 190.503 C 29.385 191.022 29.696 191.845 30.246 192.156 " transform="matrix(1, 0, 0, 1, 0.5, 0)"/>
      <path id="Trim" fill="#BC7240" d="M 29.890 193.589 C 29.842 193.541 29.704 194.155 29.617 194.133 C 29.371 194.479 29.121 194.666 28.752 195 C 28.383 195.332 27.606 195.453 27.170 195.635 C 25.696 196.251 24.022 196.302 22.420 196.518 C 19.584 196.902 17.133 196.781 14.213 196.019 C 13.098 195.729 11.230 195.441 10.973 194.303 C 10.815 193.599 10.952 191.800 10.057 192.164 C 9.146 192.537 9.385 193.978 9.510 194.826 C 9.677 195.966 10.103 197.032 10.906 197.971 C 11.574 198.753 12.631 198.909 13.608 199.115 C 14.787 199.361 16.040 199.635 17.248 199.685 C 18.711 199.747 19.781 199.880 21.240 199.880 C 22.844 199.880 24.463 199.648 26.006 199.275 C 26.789 199.086 27.608 199.060 28.295 198.629 C 28.769 198.329 29.730 198.170 29.872 197.634 C 30.164 196.528 30.755 194.613 30.357 193.572 " transform="matrix(1, 0, 0, 1, 0.5, 0)"/>
      <path id="Outline_12_" d="M 29.966 192.133 C 29.992 192.296 30.498 192.387 30.467 192.198 C 30.258 190.912 27.686 189.781 26.707 189.260 C 25.178 188.448 23.446 188.026 21.719 188.012 C 19.708 188.001 17.378 188.048 15.448 188.651 C 13.399 189.293 11.773 190.514 10.323 192.071 C 10.198 192.202 10.677 192.384 10.794 192.261 C 12.015 190.952 13.427 189.736 15.138 189.125 C 16.946 188.479 18.962 188.361 20.871 188.300 C 22.681 188.240 24.454 188.438 26.100 189.249 C 27.042 189.715 29.771 190.945 29.966 192.133 L 29.966 192.133 L 29.966 192.133 Z M 10.888 192.285 C 10.879 192.123 10.375 192.021 10.395 192.223 C 10.457 193.094 10.358 194.303 11.083 194.949 C 11.638 195.441 12.315 195.747 13.033 195.933 C 14.986 196.454 17.117 196.715 19.137 196.748 C 21.678 196.793 24.338 196.603 26.797 195.916 C 27.699 195.662 28.696 195.366 29.422 194.731 C 30.266 193.996 30.199 193.254 30.471 192.237 C 30.303 192.199 30.137 192.168 29.969 192.133 C 30.206 193.551 30.154 195.055 29.823 196.458 C 29.649 197.191 29.780 197.574 29.014 198.020 C 28.647 198.233 28.269 198.461 27.868 198.606 C 25.153 199.569 22.127 199.847 19.266 199.794 C 17.782 199.767 16.287 199.675 14.830 199.392 C 13.332 199.101 11.496 198.785 10.642 197.364 C 9.984 196.272 8.786 192.330 10.922 191.994 C 11.202 191.950 10.761 191.709 10.610 191.729 C 8.425 192.073 9.269 195.864 10.013 197.101 C 11.494 199.569 15.020 199.789 17.593 199.994 C 21.007 200.264 24.811 200.073 28.062 198.920 C 28.634 198.716 29.231 198.432 29.716 198.064 C 30.232 197.668 30.100 197.517 30.241 196.923 C 30.607 195.377 30.723 193.774 30.466 192.203 C 30.443 192.059 30.007 191.936 29.964 192.099 C 29.721 192.998 29.790 193.922 28.948 194.537 C 28.109 195.147 27.139 195.507 26.132 195.735 C 24.092 196.196 21.993 196.473 19.903 196.474 C 18.029 196.477 16.145 196.299 14.300 195.957 C 13.425 195.797 11.821 195.577 11.339 194.713 C 10.921 193.959 10.947 193.123 10.888 192.285 L 10.888 192.285 L 10.888 192.285 Z " transform="matrix(1, 0, 0, 1, 0.5, 0)"/>
    </g>
    <g id="Pants_3_">
      <path id="Fill_7_" fill="#3D6767" d="M 56.302 182.286 C 57.162 181.020 57.703 179.456 57.936 177.949 C 58.246 175.957 56.768 175.365 55.362 174.477 C 54.121 173.697 54.176 172.585 54.685 171.301 C 54.955 170.625 55.276 170.008 55.395 169.282 C 55.531 168.454 55.125 167.798 54.516 167.327 C 54.445 167.276 54.371 167.225 54.302 167.177 C 53.661 166.759 52.859 166.522 52.187 166.508 C 52.081 166.509 51.613 166.299 51.861 166.304 C 52.217 166.311 52.570 166.359 52.918 166.433 C 51.757 165.299 51.723 163.410 51.671 161.889 C 51.575 159.220 51.217 156.619 50.818 153.979 C 50.423 151.363 49.984 148.728 49.752 146.089 C 49.503 143.293 49.647 140.607 49.055 137.829 C 49.054 137.825 49.063 137.825 49.064 137.822 C 49.062 137.816 49.050 137.811 49.050 137.805 C 49.261 129.578 48.709 121.369 48.701 113.145 C 48.701 113.140 48.717 113.140 48.721 113.136 L 47.508 96.782 C 47.508 96.782 33.633 96.657 16.820 99.470 L 15.646 113.001 C 15.646 113.001 15.785 113.283 15.624 113.232 C 14.608 124.004 13.588 134.784 12.572 145.559 C 12.572 145.560 12.575 145.561 12.575 145.563 C 12.152 152.446 10.763 159.303 9.076 165.979 C 8.311 169 7.063 172.285 7.679 175.432 C 7.806 176.083 8.054 176.212 7.411 176.720 C 6.384 177.535 7.177 177.957 8.007 178.608 C 8.024 178.623 8.029 178.637 8.028 178.660 C 7.384 179.698 6.512 180.549 5.783 181.519 C 5.447 181.965 5.205 182.457 5.011 182.978 C 4.657 183.919 5.123 184.582 5.615 185.349 C 6.470 186.677 7.501 187.883 8.675 188.937 C 9.702 189.863 8.565 191.011 10.898 191.042 C 10.967 191.046 11.218 191.150 11.273 191.210 C 12.733 190.152 13.866 187.734 16.097 187.530 C 18.582 186.858 20.189 186.924 22.395 187.244 C 24.500 187.552 24.938 187.556 26.698 188.681 C 27.552 189.003 29.558 191.035 30.028 190.982 C 30.804 190.893 31.599 189.861 30.765 187.249 C 30.329 185.885 31.002 186.447 32.023 185.148 C 32.566 186.472 35.050 188.154 37.150 186.842 C 37.062 186.434 36.297 185.148 39.200 185.148 C 41.922 185.172 43.553 185.163 46.399 184.913 C 47.938 184.777 49.807 183.717 51.255 183.130 C 52.518 182.615 52.325 182.026 53.596 181.652 C 54.328 181.366 55.858 182.976 56.491 182.416 C 56.377 182.375 56.282 182.316 56.302 182.286 L 56.302 182.286 Z " transform="matrix(1, 0, 0, 1, 0.5, 0)"/>
      <path id="Outline_11_" d="M 58.382 176.780 C 57.784 174.944 54.483 174.759 54.842 172.629 C 55.097 171.126 56.771 169.140 55.370 167.733 C 54.862 167.221 54.240 166.869 53.573 166.633 C 53.549 166.624 53.524 166.613 53.500 166.605 C 53.444 166.557 53.408 166.498 53.357 166.447 C 51.966 165.061 52.215 162.591 52.135 160.789 C 52.014 158.052 51.485 155.353 51.114 152.646 C 50.739 149.899 50.175 147.145 50.162 144.364 C 50.151 142.182 50.007 140.078 49.552 137.937 C 49.763 129.714 49.211 121.508 49.202 113.286 L 48.007 96.285 C 35.195 95.847 16.382 98.973 16.382 98.973 L 15.143 112.869 C 14.664 117.941 14.185 123.015 13.705 128.089 C 13.623 128.957 13.541 129.825 13.459 130.694 C 12.995 135.607 12.531 140.519 12.067 145.432 C 12.067 145.433 12.069 145.434 12.069 145.435 C 11.689 151.648 10.513 157.860 9.051 163.901 C 8.368 166.715 7.348 169.563 7.079 172.461 C 6.980 173.484 6.891 174.600 7.308 175.547 C 7.613 176.240 6.956 176.449 6.554 176.853 C 6.251 177.160 6.216 177.501 6.554 177.815 C 6.989 178.218 7.654 178.426 7.158 179.092 C 6.831 179.531 6.475 179.941 6.120 180.355 C 5.557 181.013 4.932 181.712 4.625 182.535 C 4.522 182.802 4.135 183.667 4.295 183.936 C 4.560 184.385 4.825 184.836 5.116 185.271 C 5.800 186.300 6.548 187.297 7.429 188.168 C 8.098 188.827 8.326 189.207 8.700 190.014 C 8.864 190.365 9.090 190.614 9.354 190.797 C 9.360 190.801 9.366 190.807 9.373 190.811 C 9.849 191.134 10.454 191.234 11.093 191.252 C 11.134 191.253 11.174 191.256 11.215 191.257 C 11.219 191.257 11.219 191.256 11.222 191.256 C 11.285 191.255 11.293 191.239 11.271 191.215 C 11.253 191.196 11.215 191.173 11.170 191.151 C 11.225 191.133 11.283 191.113 11.342 191.092 C 11.366 191.175 11.765 191.324 11.836 191.209 C 15.189 185.100 25.623 186.233 29.565 191.110 C 29.639 191.200 29.925 191.278 30.030 191.214 C 30.569 190.872 31.629 190.422 31.592 189.624 C 31.537 188.442 30.882 187.603 31.065 186.383 C 31.420 186.105 31.745 185.779 32.050 185.429 C 33.440 187.168 35.140 187.736 37.359 186.920 C 37.510 186.865 37.060 186.682 36.948 186.724 C 35.969 187.088 34.781 187.425 33.822 186.786 C 33.186 186.362 32.719 185.804 32.280 185.186 C 32.278 185.182 32.269 185.181 32.266 185.178 C 33.605 183.504 34.336 181.221 33.875 179.141 C 33.645 178.088 33.125 177.541 32.271 176.928 C 31.891 176.654 30.906 176.092 31.182 175.465 C 31.326 175.147 31.512 174.905 31.694 174.611 C 32.128 173.911 31.960 173.224 31.843 172.482 C 33.603 174.562 35.904 176.591 38.774 176.296 C 39.026 176.270 38.556 176.075 38.447 176.089 C 35.613 176.381 33.409 173.935 31.791 171.901 C 31.618 163.321 30.890 154.688 32.237 146.165 C 32.253 146.158 32.279 146.158 32.283 146.144 C 33.656 141.248 34.420 136.222 35.012 131.180 C 35.289 128.824 35.660 126.441 35.752 124.066 C 35.835 121.960 35.907 119.987 36.792 118.032 C 36.833 117.945 36.344 117.775 36.293 117.893 C 35.337 119.998 35.377 122.096 35.231 124.352 C 35.081 126.751 34.744 129.145 34.454 131.531 C 33.871 136.308 33.133 141.066 31.853 145.712 C 31.811 145.716 31.776 145.726 31.771 145.749 C 30.366 154.346 31.109 163.053 31.285 171.706 C 31.247 171.715 31.229 171.733 31.257 171.768 C 31.267 171.781 31.278 171.793 31.288 171.806 C 31.288 171.845 31.290 171.883 31.291 171.922 C 31.290 171.925 31.280 171.924 31.280 171.927 C 31.283 171.963 31.290 171.999 31.294 172.035 C 31.294 172.044 31.294 172.053 31.294 172.060 C 31.294 172.061 31.297 172.062 31.297 172.064 C 31.401 172.888 31.707 173.748 31.187 174.479 C 30.794 175.040 30.455 175.476 30.874 176.099 C 31.496 177.027 32.812 177.271 33.202 178.415 C 34.117 181.106 32.845 184.332 30.717 186.092 C 29.634 184.800 27.246 184.398 25.756 184.038 C 23.138 183.406 20.495 182.848 17.817 182.545 C 17.488 182.508 17.904 182.735 18.032 182.749 C 20.162 182.990 22.268 183.402 24.357 183.881 C 25.266 184.088 26.181 184.290 27.076 184.561 C 27.656 184.739 28.209 184.948 28.778 185.146 C 29.152 185.263 29.507 185.426 29.840 185.636 C 29.790 185.879 29.737 186.121 29.686 186.362 C 26.290 186.351 23.058 185.034 19.662 185.121 C 19.412 185.129 19.882 185.332 19.986 185.330 C 22.189 185.269 24.257 185.885 26.411 186.230 C 27.716 186.441 29.221 186.746 30.547 186.471 C 30.468 187.400 30.824 187.952 31.016 188.929 C 31.226 190.001 30.562 190.411 29.784 190.893 C 25.605 186.130 15.112 184.868 11.508 190.803 L 10.897 191.045 C 8.564 191.014 9.702 189.865 8.674 188.940 C 7.500 187.886 6.470 186.680 5.614 185.352 C 5.123 184.585 4.656 183.922 5.010 182.981 C 5.204 182.460 5.447 181.968 5.782 181.522 C 6.511 180.551 7.384 179.701 8.027 178.663 C 8.028 178.641 8.022 178.626 8.006 178.611 C 7.176 177.961 6.383 177.539 7.410 176.723 C 8.053 176.215 7.805 176.086 7.678 175.435 C 7.676 175.424 7.676 175.414 7.674 175.404 C 10.329 176.223 12.679 177.903 15.513 178.099 C 18.406 178.300 21.215 176.796 23.969 176.040 C 24.116 175.999 23.673 175.811 23.552 175.844 C 20.990 176.548 18.353 177.917 15.645 177.896 C 12.775 177.875 10.332 176.041 7.652 175.225 C 7.130 172.141 8.328 168.935 9.076 165.982 C 10.763 159.306 12.152 152.449 12.575 145.566 C 12.575 145.564 12.572 145.563 12.572 145.562 C 13.588 134.787 14.608 124.007 15.624 113.235 C 15.785 113.286 15.646 113.004 15.646 113.004 L 16.820 99.473 C 33.632 96.661 47.508 96.785 47.508 96.785 L 48.721 113.139 C 48.717 113.143 48.701 113.143 48.701 113.148 C 48.709 121.373 49.261 129.582 49.050 137.808 C 49.050 137.814 49.062 137.819 49.064 137.825 C 49.063 137.828 49.054 137.828 49.055 137.832 C 49.647 140.609 49.503 143.296 49.752 146.092 C 49.984 148.731 50.424 151.365 50.818 153.982 C 51.216 156.623 51.575 159.223 51.671 161.892 C 51.723 163.413 51.757 165.302 52.918 166.436 C 52.570 166.362 52.218 166.314 51.861 166.307 C 51.613 166.302 52.081 166.512 52.187 166.511 C 52.859 166.525 53.662 166.762 54.302 167.180 C 54.376 167.228 54.448 167.278 54.516 167.330 C 55.125 167.801 55.531 168.457 55.395 169.285 C 55.276 170.011 54.955 170.628 54.685 171.304 C 54.176 172.588 54.121 173.700 55.362 174.480 C 56.768 175.368 58.246 175.959 57.936 177.952 C 57.704 179.459 57.163 181.023 56.302 182.289 L 56.006 182.495 L 56.009 182.504 C 55.951 182.485 55.901 182.474 55.873 182.476 C 55.564 182.501 54.859 181.492 54.502 181.320 C 54.302 181.227 54.097 181.195 53.888 181.258 C 53.065 181.490 52.160 182.380 51.390 182.792 C 50.286 183.381 49.148 183.925 47.954 184.313 C 45.531 185.100 43.214 185.114 40.695 185.101 C 38.847 185.092 37 185.153 35.291 185.936 C 35.229 185.963 35.629 186.171 35.764 186.105 C 37.926 185.114 40.346 185.312 42.661 185.327 C 44.781 185.340 46.779 185.114 48.781 184.360 C 50.642 183.661 52.412 182.743 54.056 181.625 C 54.571 181.274 55.325 182.559 56.055 182.665 L 56.070 182.713 C 56.070 182.713 56.645 182.611 56.703 182.458 C 56.744 182.456 56.786 182.453 56.804 182.427 C 57.732 181.057 58.931 178.472 58.382 176.780 L 58.382 176.780 Z " transform="matrix(1, 0, 0, 1, 0.5, 0)"/>
    </g>
    <g id="Undershirt">
      <path id="Fill_5_" fill="#C0E1E1" d="M 15.209 112.072 C 15.563 113.122 16.411 113.755 17.448 114.162 C 18.246 114.438 19.136 114.628 19.994 114.775 C 20.908 114.907 21.798 114.983 22.515 115.093 C 26.489 115.708 30.473 116.201 34.503 116.035 C 34.501 116.026 34.489 116.019 34.491 116.010 C 34.589 115.192 34.869 114.409 34.974 113.583 C 35.090 112.671 35.245 111.765 35.377 110.854 C 35.617 109.194 36.098 107.589 36.348 105.942 C 36.373 105.781 36.704 105.881 36.727 106.008 C 37.071 108.029 37.444 110.068 37.379 112.128 C 37.354 112.949 36.992 115.134 37.712 115.787 C 41.021 115.439 44.305 114.919 47.426 113.725 C 47.759 113.600 52.131 111.461 52.442 110.210 C 52.445 110.181 52.452 110.151 52.454 110.123 C 52.462 110.040 52.450 109.961 52.415 109.889 C 52.355 109.865 52.303 109.831 52.291 109.782 C 52.285 109.757 52.280 109.731 52.273 109.706 C 52.273 109.705 52.273 109.705 52.272 109.704 C 52.193 109.642 52.204 109.594 52.240 109.558 C 51.656 107.154 51.292 104.714 50.958 102.260 C 50.804 101.131 50.605 100 50.513 98.864 C 50.441 97.989 50.459 97.002 50.152 96.168 C 47.482 97.076 44.796 99.062 42.131 99.976 C 38.772 101.126 36.348 102.117 32.805 102.545 C 29.760 102.913 26.948 102.947 23.883 102.947 C 22.562 102.947 20.769 102.548 19.497 102.240 C 18.924 102.104 17.896 101.817 17.330 101.636 C 16.940 101.514 16.807 100.934 16.580 101.198 C 16.295 101.530 16.231 101.065 16.262 101.399 C 16.228 102.051 16.173 102.574 16.069 103.116 C 15.841 106.105 15.243 109.063 15.207 112.069 C 15.208 112.071 15.209 112.071 15.209 112.072 L 15.209 112.072 Z " transform="matrix(1, 0, 0, 1, 0.5, 0)"/>
      <path id="Outline_10_" d="M 52.643 109.689 C 51.968 106.941 51.591 104.142 51.208 101.341 C 50.982 99.704 51.096 97.629 50.491 96.081 C 50.436 95.940 50.059 95.918 50.136 96.110 C 50.143 96.129 50.146 96.149 50.153 96.168 C 50.461 97.002 50.442 97.989 50.514 98.864 C 50.607 100.001 50.805 101.132 50.959 102.260 C 51.293 104.714 51.657 107.154 52.241 109.558 C 52.205 109.593 52.194 109.641 52.273 109.704 C 52.274 109.705 52.274 109.705 52.274 109.706 C 52.281 109.731 52.286 109.757 52.292 109.782 C 52.304 109.832 52.356 109.865 52.416 109.889 C 52.451 109.961 52.463 110.040 52.455 110.123 C 52.452 110.151 52.450 110.180 52.443 110.210 C 52.132 111.461 47.760 113.600 47.427 113.725 C 44.306 114.918 41.022 115.439 37.713 115.787 C 36.993 115.134 37.355 112.949 37.380 112.128 C 37.444 110.067 37.071 108.029 36.728 106.008 C 36.706 105.881 36.374 105.780 36.349 105.942 C 36.099 107.589 35.619 109.194 35.378 110.854 C 35.246 111.765 35.091 112.671 34.975 113.583 C 34.870 114.409 34.589 115.191 34.492 116.010 C 34.490 116.020 34.502 116.027 34.504 116.035 C 30.474 116.201 26.490 115.708 22.516 115.093 C 21.799 114.983 20.909 114.906 19.995 114.775 C 19.123 114.650 18.233 114.469 17.449 114.162 C 16.412 113.755 15.563 113.122 15.210 112.072 C 15.210 112.071 15.209 112.071 15.208 112.070 C 15.244 109.064 15.842 106.106 16.070 103.117 C 16.129 102.347 16.169 101.575 16.161 100.800 C 16.159 100.648 15.776 100.581 15.778 100.764 C 15.797 102.533 15.599 104.284 15.379 106.033 C 15.178 107.630 14.965 109.226 14.874 110.832 C 14.851 111.234 14.832 111.636 14.827 112.039 C 14.827 112.041 14.830 112.042 14.830 112.045 C 15.658 114.486 18.917 114.838 21.098 115.135 C 25.681 115.758 30.197 116.502 34.841 116.282 C 35.008 116.274 34.965 116.170 34.872 116.098 C 34.969 115.284 35.247 114.506 35.351 113.686 C 35.468 112.774 35.617 111.868 35.753 110.957 C 35.946 109.686 36.265 108.444 36.517 107.194 C 36.521 107.174 36.525 107.155 36.529 107.136 C 36.531 107.157 36.535 107.178 36.539 107.198 C 36.826 109.112 37.011 111 36.971 112.961 C 36.955 113.741 36.769 115.201 37.390 115.862 C 37.346 115.941 37.503 116.079 37.633 116.064 C 41.661 115.650 46.098 115.101 49.661 113.019 C 50.361 112.613 53.562 110.775 52.643 109.689 L 52.643 109.689 Z " transform="matrix(1, 0, 0, 1, 0.5, 0)"/>
    </g>
    <g id="Sweater">
      <path id="Fill_4_" fill="#302D63" d="M 51.848 97.432 C 52.719 101.800 59.046 101.180 62.171 100.040 C 63.184 99.672 63.923 99.028 64.503 98.107 C 65.671 96.252 63.982 95.129 62.941 93.848 C 61.342 91.878 61.902 88.541 61.702 86.209 C 61.400 82.770 60.146 79.634 59.355 76.307 C 58.484 72.641 58.279 68.796 57.575 65.087 C 56.884 61.441 56.085 57.816 55.480 54.154 C 55.179 52.329 54.916 50.498 54.628 48.671 C 54.340 46.829 54.214 44.823 53.255 43.189 C 51.877 42.295 50.535 41.336 49.140 40.469 C 47.863 39.676 46.433 39.121 45.058 38.526 L 40.394 37.968 C 40.394 37.968 40.228 42.134 35.269 42.051 C 30.310 41.968 27.310 37.468 27.310 37.468 L 23.685 38.676 C 23.685 38.676 23.501 38.710 23.282 38.735 C 23.257 38.752 23.245 38.776 23.199 38.783 C 20.646 39.171 18.149 39.746 15.795 40.824 C 13.753 41.762 11.904 43.096 10.063 44.377 C 9.276 45.968 9.257 47.857 9.073 49.595 C 8.867 51.533 8.688 53.475 8.469 55.412 C 8.019 59.409 7.312 63.373 6.791 67.360 C 6.280 71.298 6.262 75.237 5.299 79.106 C 4.836 80.960 4.358 82.745 4.166 84.653 C 3.975 86.557 4.326 88.580 3.941 90.447 C 3.686 91.698 2.700 92.742 1.971 93.737 C 0.890 95.216 0.282 96.923 0.659 98.751 C 1.163 101.204 3.054 103.022 5.268 103.981 C 9.098 105.641 15.039 104.846 15.541 99.977 C 15.437 99.401 15.920 98.731 16.169 98.230 C 16.501 97.566 16.422 96.965 16.399 96.230 C 16.398 96.176 16.428 96.145 16.460 96.116 C 16.228 95.607 16.040 95.081 15.883 94.545 C 15.545 93.386 15.562 92.258 15.731 91.076 C 16.178 87.973 16.609 84.955 16.710 81.815 C 16.886 76.556 17.397 71.347 18.198 66.148 C 18.153 65.056 17.909 63.984 17.756 62.904 C 16.692 61.840 15.632 60.882 14.861 59.560 C 14.715 59.310 15.228 59.294 15.345 59.496 C 16.056 60.717 17.041 61.618 18.025 62.594 C 18.130 62.622 18.230 62.681 18.242 62.780 C 18.245 62.801 18.249 62.822 18.252 62.843 C 18.253 62.845 18.252 62.847 18.253 62.849 C 18.404 63.965 18.669 65.075 18.711 66.201 C 18.711 66.214 18.699 66.216 18.697 66.227 C 18.697 66.236 18.707 66.242 18.706 66.251 C 17.863 71.708 17.366 77.170 17.196 82.690 C 17.107 85.565 16.710 88.378 16.234 91.211 C 15.971 92.773 16.196 94.172 16.756 95.646 C 17.131 96.625 18.019 97.414 17.908 98.506 C 17.885 98.749 17.381 98.622 17.406 98.372 C 17.457 97.877 17.182 97.409 16.910 96.968 C 16.876 97.747 16.714 98.221 16.318 99.115 C 15.765 100.361 16.714 100.690 17.700 101.099 C 18.596 101.474 19.585 101.728 20.546 101.853 C 25.349 102.476 30.082 102.359 34.899 101.793 C 39.696 101.231 44.159 98.689 48.696 97.189 C 49.649 96.877 50.581 96.521 51.481 96.084 C 52.252 95.709 54.377 94.776 54.069 93.730 C 53.832 92.924 53.022 91.961 52.940 91.039 C 52.341 91.673 51.706 92.312 51.122 93.017 C 50.970 93.203 50.491 92.996 50.661 92.790 C 51.602 91.650 52.741 90.699 53.688 89.565 C 55.214 87.743 54.987 85.762 54.141 83.680 C 52.575 79.820 50.803 76.053 49.641 72.038 C 48.684 68.731 48.426 65.468 48.787 62.059 C 48.815 61.792 48.846 61.527 48.875 61.261 C 48.863 61.221 48.863 61.179 48.890 61.134 C 49.279 57.655 49.743 54.238 49.483 50.711 C 49.465 50.445 49.981 50.510 49.999 50.749 C 50.228 53.872 49.927 56.927 49.556 60.009 C 50.487 58.394 51.253 56.701 50.970 54.768 C 50.933 54.501 51.449 54.565 51.482 54.803 C 51.836 57.210 50.603 59.286 49.403 61.273 C 49.395 61.334 49.388 61.394 49.381 61.455 C 48.873 65.591 49.293 69.387 50.549 73.366 C 51.184 75.371 51.979 77.325 52.787 79.265 C 53.558 81.120 54.584 82.996 55.111 84.941 C 55.762 87.341 54.843 88.905 53.539 90.387 C 53.542 90.410 53.560 90.429 53.549 90.455 C 52.926 91.809 54.922 93.079 54.629 94.460 C 54.492 95.102 53.035 95.731 52.525 96.034 C 52.143 96.261 51.745 96.457 51.341 96.641 C 51.343 96.713 51.347 96.783 51.357 96.793 C 51.446 96.895 51.522 97.054 51.594 97.238 C 51.709 97.264 51.825 97.327 51.848 97.432 L 51.848 97.432 Z " transform="matrix(1, 0, 0, 1, 0.5, 0)"/>
      <path id="Outline_9_" fill="#010101" d="M 63.568 93.937 C 62.609 92.757 62.457 91.378 62.412 89.906 C 62.351 87.935 62.271 85.956 61.928 84.011 C 61.627 82.302 61.106 80.705 60.606 79.049 C 59.377 74.985 59.133 70.778 58.371 66.617 C 57.608 62.469 56.670 58.352 55.998 54.190 C 55.649 52.033 55.344 49.868 54.987 47.712 C 54.724 46.120 54.570 44.528 53.740 43.116 C 53.744 43.072 53.719 43.023 53.643 42.974 C 53.436 42.840 53.233 42.698 53.028 42.561 C 52.727 42.361 52.427 42.161 52.129 41.957 C 51.220 41.339 50.311 40.721 49.371 40.154 C 48.391 39.564 47.342 39.095 46.291 38.642 C 45.956 38.497 45.621 38.355 45.288 38.210 C 44.848 38.038 39.978 37.507 39.978 37.507 C 39.978 37.507 39.978 41.799 35.270 41.590 C 30.562 41.381 27.603 37.048 27.603 37.048 L 23.190 38.430 C 23.140 38.407 23.085 38.390 23.027 38.399 C 22.948 38.411 22.869 38.424 22.791 38.437 C 22.735 38.446 22.678 38.456 22.622 38.464 L 22.603 38.465 C 22.602 38.466 22.603 38.466 22.602 38.467 C 20.070 38.871 17.541 39.458 15.231 40.601 C 13.375 41.520 11.672 42.690 9.975 43.869 C 9.867 43.840 9.750 43.851 9.700 43.942 C 9.669 43.999 9.654 44.058 9.625 44.115 C 9.578 44.147 9.531 44.179 9.485 44.212 C 9.380 44.285 9.406 44.375 9.482 44.444 C 8.994 45.576 8.868 46.766 8.728 48.009 C 8.527 49.784 8.361 51.567 8.173 53.343 C 7.740 57.490 7.048 61.596 6.486 65.723 C 5.929 69.794 5.969 74.018 5.023 78.020 C 4.547 80.035 3.915 81.993 3.708 84.063 C 3.532 85.805 3.583 87.528 3.554 89.274 C 3.522 91 2.451 92.314 1.494 93.682 C 1.195 94.109 0.909 94.543 0.667 94.994 C 0.235 95.802 -0.052 96.669 0.012 97.682 C 0.173 100.236 1.644 102.239 3.648 103.529 C 3.705 103.566 3.763 103.602 3.821 103.638 C 5.190 104.478 6.789 104.996 8.390 105.127 C 11.785 105.405 15.257 104.059 15.967 100.654 C 16.772 101.416 18.424 101.797 19.266 101.998 C 24.078 103.145 28.970 102.654 33.842 102.301 C 39.248 101.911 44.280 99.186 49.338 97.434 C 50.015 97.200 50.688 96.943 51.341 96.646 C 51.744 96.462 52.143 96.266 52.525 96.039 C 52.742 95.910 53.129 95.720 53.513 95.497 C 53.522 95.507 53.526 95.516 53.536 95.526 C 55.730 97.533 59.394 99.269 61.947 96.898 C 61.983 96.864 61.997 96.829 62.001 96.794 C 62.003 96.786 62.003 96.777 62.002 96.768 C 62.001 96.752 61.999 96.738 61.993 96.723 C 61.989 96.713 61.983 96.702 61.976 96.692 C 61.967 96.678 61.957 96.665 61.945 96.652 C 61.937 96.643 61.934 96.634 61.924 96.625 C 60.979 95.776 59.108 96.528 57.985 96.398 C 57.643 96.358 57.741 96.751 58.026 96.787 C 58.598 96.851 59.180 96.773 59.749 96.725 C 60.187 96.688 60.895 96.564 61.360 96.762 C 59.002 98.701 55.842 97.082 53.875 95.283 C 53.873 95.281 53.869 95.280 53.867 95.278 C 54.247 95.027 54.568 94.747 54.629 94.464 C 54.922 93.083 52.926 91.814 53.549 90.459 C 53.561 90.433 53.542 90.414 53.539 90.391 C 54.844 88.909 55.763 87.345 55.111 84.945 C 54.584 83.001 53.558 81.125 52.787 79.269 C 51.978 77.329 51.183 75.374 50.549 73.370 C 49.293 69.391 48.873 65.595 49.381 61.459 C 49.389 61.398 49.396 61.338 49.403 61.277 C 50.603 59.290 51.837 57.214 51.482 54.807 C 51.449 54.569 50.933 54.505 50.970 54.772 C 51.253 56.706 50.487 58.398 49.556 60.013 C 49.927 56.931 50.229 53.876 49.999 50.753 C 49.981 50.514 49.466 50.449 49.483 50.715 C 49.743 54.241 49.279 57.659 48.890 61.138 C 48.864 61.183 48.864 61.226 48.875 61.265 C 48.846 61.531 48.815 61.797 48.787 62.063 C 48.426 65.472 48.683 68.736 49.641 72.042 C 50.803 76.057 52.575 79.823 54.141 83.684 C 54.987 85.766 55.214 87.746 53.688 89.569 C 52.741 90.703 51.602 91.654 50.661 92.794 C 50.491 92.999 50.970 93.206 51.122 93.021 C 51.706 92.316 52.342 91.677 52.940 91.043 C 53.022 91.965 53.832 92.928 54.069 93.734 C 54.378 94.781 52.253 95.713 51.481 96.088 C 50.581 96.526 49.649 96.881 48.696 97.193 C 44.159 98.693 39.696 101.236 34.899 101.797 C 30.083 102.362 25.350 102.480 20.546 101.857 C 19.585 101.732 18.596 101.478 17.700 101.103 C 16.714 100.694 15.765 100.365 16.318 99.119 C 16.714 98.225 16.877 97.751 16.910 96.972 C 17.181 97.413 17.456 97.881 17.406 98.376 C 17.381 98.626 17.885 98.753 17.908 98.510 C 18.019 97.417 17.131 96.629 16.756 95.650 C 16.196 94.176 15.971 92.778 16.234 91.215 C 16.370 90.403 16.497 89.592 16.615 88.781 C 22.313 97.238 35.119 98.907 43.707 94.192 C 43.959 94.053 43.523 93.782 43.322 93.892 C 34.927 98.497 22.430 96.810 16.949 88.497 C 16.890 88.410 16.770 88.380 16.666 88.393 C 16.932 86.504 17.136 84.612 17.195 82.692 C 17.365 77.171 17.862 71.710 18.705 66.253 C 18.706 66.243 18.696 66.237 18.696 66.229 C 18.698 66.218 18.710 66.215 18.710 66.203 C 18.668 65.077 18.403 63.968 18.252 62.851 C 18.251 62.849 18.252 62.847 18.251 62.845 C 18.248 62.824 18.244 62.803 18.241 62.782 C 18.228 62.683 18.129 62.624 18.024 62.596 C 17.040 61.620 16.055 60.719 15.344 59.498 C 15.227 59.297 14.714 59.312 14.860 59.562 C 15.631 60.883 16.691 61.841 17.755 62.906 C 17.909 63.986 18.152 65.058 18.197 66.150 C 17.396 71.349 16.885 76.558 16.709 81.817 C 16.608 84.957 16.177 87.975 15.730 91.078 C 15.593 92.038 15.567 92.963 15.739 93.897 C 15.726 93.930 15.707 93.959 15.723 94.006 C 16.941 97.627 10.924 99.164 8.445 98.033 C 8.182 97.911 7.906 98.202 8.218 98.345 C 10.553 99.413 15.551 98.436 16.282 95.687 C 16.340 95.831 16.393 95.976 16.458 96.117 C 16.427 96.146 16.396 96.177 16.397 96.231 C 16.420 96.966 16.499 97.567 16.167 98.231 C 15.918 98.732 15.436 99.402 15.539 99.978 C 15.038 104.847 9.096 105.642 5.266 103.982 C 3.052 103.023 1.161 101.205 0.657 98.752 C 0.280 96.924 0.888 95.218 1.969 93.738 C 2.698 92.743 3.684 91.699 3.939 90.448 C 4.324 88.581 3.973 86.558 4.164 84.654 C 4.356 82.746 4.834 80.962 5.297 79.107 C 6.260 75.238 6.278 71.298 6.789 67.361 C 7.310 63.374 8.017 59.410 8.467 55.413 C 8.686 53.475 8.865 51.533 9.071 49.596 C 9.255 47.859 9.274 45.970 10.061 44.378 C 11.902 43.098 13.751 41.763 15.793 40.825 C 18.147 39.747 20.644 39.172 23.197 38.784 C 23.243 38.777 23.255 38.753 23.280 38.736 C 23.499 38.711 23.683 38.677 23.683 38.677 L 27.308 37.469 C 27.308 37.469 30.308 41.969 35.267 42.052 C 40.226 42.135 40.392 37.969 40.392 37.969 L 45.056 38.527 C 46.431 39.123 47.861 39.677 49.138 40.470 C 50.534 41.337 51.875 42.296 53.253 43.190 C 54.212 44.825 54.338 46.831 54.626 48.672 C 54.913 50.499 55.177 52.330 55.478 54.155 C 56.082 57.816 56.881 61.441 57.573 65.088 C 58.277 68.797 58.482 72.642 59.353 76.308 C 60.144 79.635 61.398 82.771 61.700 86.210 C 61.900 88.542 61.341 91.879 62.939 93.849 C 63.980 95.130 65.668 96.252 64.501 98.108 C 63.921 99.029 63.182 99.672 62.169 100.041 C 59.044 101.181 52.717 101.801 51.846 97.433 C 51.824 97.328 51.707 97.265 51.591 97.243 C 51.447 97.215 51.304 97.254 51.331 97.398 C 51.398 97.734 51.477 98.081 51.622 98.392 C 53.262 101.830 58.383 101.566 61.458 100.711 C 63.333 100.190 65.111 99.119 65.395 97 C 65.589 95.550 64.348 94.896 63.568 93.937 L 63.568 93.937 Z " transform="matrix(1, 0, 0, 1, 0.5, 0)"/>
    </g>
    <g id="Neck">
      <path id="Fill_1_" fill="#A86C35" d="M 35.478 41.927 C 39.832 41.709 40.641 38.743 40.838 37.650 C 40.378 37.754 38.394 38.067 38.371 35.770 C 37.754 36.146 37.101 36.452 36.420 36.613 C 36.420 36.613 36.418 36.613 36.418 36.613 C 36.397 36.618 36.367 36.622 36.324 36.621 C 33.578 36.567 30.486 35.253 28.052 34.067 C 27.988 34.036 27.926 34.001 27.863 33.967 L 27.790 34.938 L 27.570 37.818 C 28.399 38.906 31.042 42.149 35.478 41.927 L 35.478 41.927 Z " transform="matrix(1, 0, 0, 1, 0.5, 0)"/>
      <path id="L_Side" d="M 27.790 34.937 L 27.863 33.966 L 27.884 33.687 L 27.634 33.625 L 27.478 34.562 L 27.228 37.459 L 27.356 37.644 L 27.561 37.938 L 27.790 34.937 " transform="matrix(1, 0, 0, 1, 0.5, 0)"/>
      <path id="R_Side" d="M 40.936 37.626 L 40.932 37.589 L 40.914 37.397 C 38.352 37.876 38.623 35.459 38.623 35.459 L 38.373 35.459 C 38.366 35.571 38.371 35.667 38.371 35.769 C 38.396 38.368 40.936 37.626 40.936 37.626 L 40.936 37.626 Z " transform="matrix(1, 0, 0, 1, 0.5, 0)"/>
    </g>
    <g id="Collar_3_">
      <path id="R_Fill" fill="#C0E1E1" d="M 39.442 36.551 C 38.856 37.289 38.384 38.111 37.895 38.918 C 37.819 39.044 37.740 39.168 37.662 39.293 C 37.238 39.973 36.787 40.632 36.224 41.209 C 35.495 41.959 35.778 42.249 36.416 42.907 C 36.858 43.361 37.289 43.825 37.721 44.289 C 38.562 45.196 39.397 46.110 40.243 47.011 C 41.262 43.838 42.902 40.808 44.279 37.783 C 42.792 36.582 40.712 35.933 38.903 35.464 C 38.851 35.451 38.826 35.424 38.796 35.400 L 38.778 35.411 C 38.245 35.625 38.870 37.104 38.866 36.390 C 38.866 36.356 38.866 36.457 38.864 36.491 C 38.903 36.439 38.938 36.384 38.978 36.333 C 39.116 36.163 39.593 36.354 39.442 36.551 L 39.442 36.551 Z " transform="matrix(1, 0, 0, 1, 0.5, 0)"/>
      <path id="L_Fill" fill="#C0E1E1" d="M 28.729 45.406 C 29.700 46.229 30.711 47.016 31.643 47.843 C 32.336 46.758 32.729 45.510 33.358 44.386 C 33.750 43.687 34.164 43 34.578 42.316 C 35.154 41.358 34.314 41.084 33.592 40.581 C 32.234 39.641 30.873 38.625 29.648 37.478 C 29.552 37.388 29.453 37.302 29.358 37.210 C 28.948 36.812 28.562 36.392 28.193 35.959 C 27.935 35.656 27.688 35.344 27.455 35.022 C 27.448 35.013 27.441 35.004 27.434 34.995 C 25.965 35.863 24.303 36.768 23.324 38.186 C 23.314 38.201 23.299 38.209 23.284 38.219 C 22.680 38.690 25.924 42.573 26.309 43.043 C 26.917 43.781 27.631 44.445 28.371 45.089 C 28.380 45.093 28.387 45.099 28.396 45.104 C 28.559 45.182 28.648 45.288 28.729 45.406 L 28.729 45.406 Z " transform="matrix(1, 0, 0, 1, 0.5, 0)"/>
      <path id="Outline_6_" d="M 44.815 37.818 C 44.819 37.795 44.816 37.769 44.800 37.740 C 44.787 37.715 44.772 37.696 44.744 37.677 C 44.739 37.672 44.738 37.668 44.732 37.663 C 43.491 36.614 41.824 35.960 40.216 35.480 C 40.132 35.455 40.048 35.430 39.965 35.406 C 39.636 35.311 39.310 35.220 38.992 35.138 C 38.732 35.072 38.643 35.280 38.795 35.399 C 38.825 35.423 38.851 35.450 38.902 35.463 C 40.711 35.933 42.791 36.581 44.278 37.782 C 42.901 40.807 41.260 43.836 40.242 47.010 C 39.395 46.110 38.560 45.195 37.720 44.288 C 37.288 43.824 36.858 43.360 36.415 42.906 C 35.776 42.248 35.494 41.958 36.223 41.208 C 36.785 40.631 37.237 39.972 37.661 39.292 C 37.739 39.167 37.818 39.042 37.894 38.917 C 38.383 38.110 38.855 37.289 39.441 36.550 C 39.591 36.354 39.115 36.162 38.978 36.332 C 38.938 36.383 38.903 36.438 38.864 36.490 C 38.760 36.630 38.656 36.770 38.557 36.914 C 38.013 37.702 37.551 38.543 37.031 39.345 C 36.710 39.833 36.388 40.351 35.979 40.772 C 35.819 40.934 35.536 41.155 35.361 41.401 C 32.642 39.364 29.689 37.553 27.727 34.694 C 27.725 34.691 27.723 34.688 27.721 34.685 C 27.632 34.554 27.432 34.484 27.286 34.571 C 25.729 35.499 23.915 36.440 22.860 37.967 C 22.853 37.978 22.854 37.988 22.849 37.998 C 22.168 38.776 24.816 41.813 25.238 42.349 C 27.015 44.620 29.417 46.306 31.536 48.245 C 31.631 48.334 31.873 48.430 31.974 48.286 C 32.620 47.364 32.934 46.321 33.435 45.326 C 33.981 44.237 34.628 43.197 35.266 42.157 C 35.501 42.907 36.505 43.559 36.986 44.077 C 38.044 45.220 39.086 46.375 40.160 47.500 C 40.248 47.608 40.456 47.645 40.562 47.562 C 40.596 47.547 40.619 47.526 40.628 47.499 C 41.642 44.168 43.382 41.002 44.818 37.839 C 44.823 37.832 44.813 37.826 44.815 37.818 L 44.815 37.818 Z M 26.310 43.041 C 25.925 42.572 22.680 38.688 23.285 38.217 C 23.300 38.207 23.315 38.199 23.325 38.184 C 24.304 36.767 25.966 35.861 27.435 34.993 C 27.442 35.002 27.449 35.011 27.456 35.020 C 27.689 35.342 27.935 35.654 28.194 35.957 C 28.563 36.390 28.949 36.810 29.359 37.208 C 29.454 37.300 29.553 37.386 29.649 37.476 C 30.875 38.622 32.235 39.638 33.593 40.579 C 34.316 41.082 35.155 41.356 34.579 42.314 C 34.165 42.999 33.751 43.685 33.359 44.384 C 32.730 45.508 32.337 46.756 31.644 47.841 C 30.712 47.014 29.701 46.227 28.730 45.404 C 28.608 45.300 28.493 45.191 28.372 45.086 C 27.631 44.443 26.918 43.779 26.310 43.041 L 26.310 43.041 Z " transform="matrix(1, 0, 0, 1, 0.5, 0)"/>
    </g>
    <g id="Head">
      <g id="Head_1_">
        <path id="R_Ear" fill="#A86C35" d="M 45.613 19.211 C 45.610 19.217 45.596 19.215 45.592 19.220 C 45.562 19.663 45.559 20.098 45.618 20.491 C 45.620 20.503 45.601 20.504 45.597 20.513 C 45.807 21.480 45.928 22.460 45.954 23.437 C 46.189 22.890 46.431 22.344 46.633 21.782 C 46.806 21.299 46.872 20.803 46.898 20.295 C 46.901 20.036 46.879 19.779 46.836 19.524 C 46.781 18.981 46.374 18.877 45.613 19.211 L 45.613 19.211 Z " transform="matrix(1, 0, 0, 1, 0.5, 0)"/>
        <path id="Head_Fill" fill="#A86C35" d="M 41.521 32.581 C 41.777 32.294 42.036 32.013 42.300 31.737 C 42.847 31.108 43.363 30.454 43.825 29.779 C 45.721 26.996 45.790 23.291 45.035 20.109 C 45.027 20.075 45.054 20.056 45.098 20.047 C 45 18.874 45.237 17.479 45.767 16.479 C 45.769 16.475 45.778 16.477 45.780 16.474 C 46.030 15.553 49.177 2.966 34.808 1.997 C 19.964 0.997 18.182 9.655 19.097 19.659 C 19.186 19.711 19.273 19.750 19.366 19.814 C 19.580 19.962 19.075 19.914 18.972 19.844 C 18.530 19.535 18.148 19.435 17.819 19.480 C 17.799 19.483 17.780 19.487 17.761 19.491 C 16.343 19.764 15.959 22.829 16.225 23.891 C 16.433 24.722 16.994 25.431 17.566 26.037 C 17.909 26.400 18.316 26.698 18.712 27.001 C 19.816 27.855 20.608 27.400 21.221 26.494 C 21.311 26.359 21.774 26.554 21.721 26.629 C 21.648 26.737 21.569 26.838 21.489 26.938 C 21.495 26.964 21.506 26.995 21.513 27.022 C 21.614 27.045 21.711 27.083 21.731 27.140 C 22.800 30.241 25.231 32.356 28.074 33.838 C 30.344 35.026 33.453 36.323 36.058 36.390 C 37.543 36.025 38.816 34.983 39.974 34.029 C 40.514 33.583 41.025 33.092 41.521 32.581 L 41.521 32.581 Z " transform="matrix(1, 0, 0, 1, 0.5, 0)"/>
        <g id="Outline_5_">
          <path id="Outline_4_" d="M 47.157 19.104 C 46.913 18.543 46.253 18.413 45.726 18.594 C 45.702 18.602 45.673 18.602 45.650 18.612 C 45.759 17.892 45.968 17.183 46.269 16.615 C 46.273 16.608 46.256 16.598 46.254 16.590 C 46.271 16.576 46.282 16.566 46.282 16.566 C 47.525 12.631 46.539 4.157 39.445 2.438 C 39.245 2.390 39.052 2.349 38.856 2.303 C 35.900 1.622 33.327 1.306 30.947 1.451 C 27.873 1.639 25.116 2.593 22.257 4.531 C 17.301 7.892 18.646 18.436 18.794 19.490 C 18.702 19.449 18.616 19.431 18.527 19.403 C 16.059 18.634 14.869 22.753 16.164 24.799 C 16.928 26.010 18.130 27.158 19.482 27.689 C 20.233 27.985 20.818 27.683 21.287 27.183 C 22.341 30.100 24.638 32.221 27.313 33.676 C 27.305 33.677 27.300 33.680 27.292 33.682 C 27.457 33.744 27.609 33.820 27.745 33.915 C 27.744 33.911 27.743 33.907 27.742 33.903 C 27.846 33.956 27.945 34.015 28.050 34.066 C 30.485 35.252 33.576 36.566 36.322 36.620 C 36.365 36.621 36.394 36.618 36.416 36.612 C 36.416 36.612 36.418 36.612 36.418 36.612 C 37.116 36.447 37.783 36.131 38.414 35.743 C 38.558 35.627 38.719 35.531 38.898 35.455 C 38.890 35.452 38.884 35.447 38.875 35.444 C 39.434 35.060 39.961 34.631 40.445 34.207 C 41.783 33.036 43.088 31.728 44.092 30.251 C 45.238 28.571 45.792 26.674 45.925 24.723 C 45.962 24.716 45.999 24.708 46.008 24.681 C 46.610 22.932 47.987 21.002 47.157 19.104 L 47.157 19.104 Z M 43.825 29.779 C 43.363 30.455 42.846 31.109 42.300 31.737 C 42.049 32.027 41.788 32.306 41.521 32.581 C 41.026 33.091 40.514 33.583 39.975 34.029 C 38.817 34.984 37.544 36.025 36.059 36.390 C 33.454 36.323 30.345 35.027 28.075 33.838 C 25.232 32.356 22.802 30.240 21.732 27.140 C 21.712 27.083 21.615 27.045 21.514 27.022 C 21.489 27.016 21.466 27.006 21.441 27.003 C 21.458 26.982 21.473 26.959 21.490 26.938 C 21.570 26.838 21.649 26.737 21.722 26.629 C 21.970 25.970 21.583 25.471 20.978 25.428 C 19.767 25.340 18.392 25.990 17.748 24.489 C 17.686 24.350 17.205 24.302 17.250 24.407 C 17.610 25.251 18.388 25.663 19.271 25.768 C 19.838 25.838 21.621 25.432 21.220 26.495 C 21.220 26.496 21.221 26.496 21.221 26.497 C 20.609 27.402 19.817 27.855 18.714 27.002 C 18.318 26.699 17.911 26.401 17.568 26.038 C 16.996 25.432 16.435 24.723 16.227 23.892 C 15.961 22.830 16.345 19.765 17.763 19.492 C 17.782 19.489 17.801 19.484 17.821 19.481 C 18.150 19.436 18.532 19.537 18.974 19.845 C 19.077 19.914 19.581 19.963 19.368 19.815 C 19.276 19.751 19.189 19.712 19.099 19.660 C 18.182 9.656 19.964 0.998 34.809 1.997 C 49.178 2.966 46.030 15.553 45.780 16.474 C 45.778 16.477 45.769 16.475 45.767 16.479 C 45.237 17.479 45 18.874 45.098 20.047 C 45.053 20.056 45.027 20.075 45.035 20.109 C 45.790 23.291 45.721 26.996 43.825 29.779 L 43.825 29.779 Z M 46.633 21.782 C 46.431 22.344 46.190 22.890 45.954 23.437 C 45.928 22.460 45.807 21.480 45.597 20.513 C 45.602 20.504 45.620 20.503 45.618 20.491 C 45.558 20.098 45.561 19.663 45.592 19.220 C 45.597 19.215 45.611 19.217 45.613 19.211 C 46.374 18.877 46.781 18.982 46.835 19.523 C 46.879 19.779 46.900 20.036 46.897 20.294 C 46.872 20.803 46.806 21.299 46.633 21.782 L 46.633 21.782 Z " transform="matrix(1, 0, 0, 1, 0.5, 0)"/>
          <path id="L_Ear" d="M 16.589 21.964 C 16.582 22.118 17.085 22.208 17.091 22.100 C 17.142 21.059 18.493 20.893 19.154 21.555 C 19.762 22.166 20.211 22.914 20.842 23.507 C 20.937 23.595 21.420 23.646 21.300 23.532 C 20.376 22.664 19.842 21.341 18.527 21.007 C 17.734 20.808 16.640 20.981 16.589 21.964 L 16.589 21.964 Z " transform="matrix(1, 0, 0, 1, 0.5, 0)"/>
        </g>
      </g>
      <g id="Mouth_3_">
        <path id="Mouth" fill="#700F10" d="M 31.061 29.500 C 30.886 30.205 31.179 30.694 31.716 31.028 C 31.812 31.209 31.903 31.395 32.030 31.570 C 32.451 32.133 33.087 32.371 33.686 32.679 C 34.391 33.039 35.191 33.239 36.003 33.127 C 36.507 33.061 37.330 32.842 37.646 32.443 C 38.007 31.985 38.042 31.537 38.042 30.982 C 38.042 30.961 38.044 30.930 38.044 30.906 C 38.077 30.867 38.115 30.829 38.122 30.790 C 38.290 29.873 39.414 29.144 39.414 29.144 C 32.790 30.688 31.061 29.500 31.061 29.500 L 31.061 29.500 Z " transform="matrix(1, 0, 0, 1, 0.5, 0)"/>
        <path id="Teeth" fill="#FFFFFF" d="M 31.128 29.672 C 31.133 29.719 31.136 29.766 31.145 29.813 C 33.298 30.796 36.660 30.990 38.602 29.501 C 38.607 29.498 38.614 29.499 38.621 29.498 C 38.641 29.478 38.657 29.455 38.678 29.436 C 36.247 29.985 33.484 30.485 31.128 29.672 L 31.128 29.672 Z " transform="matrix(1, 0, 0, 1, 0.5, 0)"/>
        <path id="Outline_1_" d="M 39.237 28.714 C 39.175 28.723 39.102 28.762 39.115 28.832 C 39.117 28.844 39.128 28.849 39.133 28.859 C 39.108 28.880 39.083 28.902 39.088 28.941 C 39.094 28.981 39.122 29.006 39.152 29.028 C 36.693 29.595 33.685 30.300 31.236 29.440 C 31.252 29.438 31.266 29.433 31.282 29.432 C 31.344 29.425 31.417 29.385 31.407 29.314 C 31.393 29.235 31.312 29.195 31.249 29.171 C 31.128 29.130 31.007 29.130 30.891 29.150 C 30.578 29.137 30.263 29.338 30.351 29.668 C 30.335 29.703 30.313 29.735 30.303 29.772 C 30.304 29.772 30.306 29.773 30.308 29.773 C 30.308 29.774 30.307 29.774 30.307 29.775 C 30.279 29.948 30.635 30.046 30.686 29.877 C 30.689 29.866 30.700 29.860 30.704 29.849 C 30.724 29.835 30.744 29.822 30.746 29.791 C 30.746 29.787 30.748 29.783 30.749 29.779 C 30.755 29.766 30.764 29.756 30.771 29.744 C 31.013 31.482 33.206 33.161 34.859 33.239 C 35.900 33.288 36.987 33.177 37.850 32.547 C 38.231 32.269 38.103 31.715 38.184 31.297 C 38.361 30.407 38.680 29.761 39.458 29.274 C 39.466 29.296 39.479 29.319 39.482 29.339 C 39.500 29.475 39.791 29.556 39.848 29.419 C 39.893 29.409 39.929 29.385 39.937 29.338 C 40.019 28.897 39.641 28.669 39.237 28.714 L 39.237 28.714 Z M 37.356 32.482 C 36.859 32.759 36.309 32.924 35.740 32.961 C 34.516 33.040 33.494 32.784 32.598 31.916 C 32.032 31.364 31.348 30.698 31.160 29.897 C 31.378 29.995 31.599 30.089 31.837 30.170 C 31.959 30.212 32.088 30.243 32.214 30.279 C 33.487 30.649 34.946 30.762 36.276 30.526 C 36.538 30.687 36.835 30.836 37.051 31.059 C 37.293 31.307 37.502 31.593 37.727 31.860 C 37.663 32.131 37.559 32.370 37.356 32.482 L 37.356 32.482 Z M 38.342 29.800 C 38.115 30.106 37.957 30.461 37.875 30.872 C 37.836 31.073 37.818 31.369 37.771 31.657 C 37.614 31.458 37.456 31.259 37.278 31.083 C 37.038 30.852 36.723 30.690 36.443 30.514 C 36.436 30.510 36.420 30.506 36.405 30.502 C 37.057 30.374 37.678 30.169 38.222 29.854 C 38.276 29.823 38.328 29.791 38.381 29.758 C 38.369 29.772 38.354 29.784 38.342 29.800 L 38.342 29.800 Z M 38.621 29.497 C 38.614 29.498 38.607 29.497 38.602 29.500 C 36.660 30.989 33.298 30.795 31.145 29.812 C 31.136 29.766 31.133 29.718 31.128 29.671 C 33.484 30.483 36.247 29.983 38.677 29.434 C 38.657 29.454 38.641 29.477 38.621 29.497 L 38.621 29.497 Z " transform="matrix(1, 0, 0, 1, 0.5, 0)"/>
      </g>
      <g id="Nose">
        <path id="Outline_3_" d="M 32.866 27.410 C 33.222 27.182 33.631 27.136 34.029 27.029 C 34.078 27.079 34.165 27.133 34.257 27.147 C 35.185 27.294 35.954 27.666 36.926 27.552 C 37.780 27.453 38.574 26.761 38.726 25.916 C 38.751 25.775 38.247 25.658 38.224 25.783 C 38.069 26.643 37.224 27.345 36.339 27.361 C 35.574 27.374 34.946 27.075 34.229 26.949 C 34.233 26.873 33.892 26.739 33.789 26.774 C 33.312 26.931 32.825 26.956 32.392 27.228 C 32.302 27.288 32.735 27.491 32.866 27.410 L 32.866 27.410 Z " transform="matrix(1, 0, 0, 1, 0.5, 0)"/>
        <path id="Outline_2_" d="M 34.091 25.258 C 35.312 24.779 36.638 24.488 37.921 24.909 C 38.123 24.975 38.442 24.882 38.102 24.770 C 36.612 24.282 35.126 24.485 33.683 25.050 C 33.515 25.115 33.972 25.304 34.091 25.258 L 34.091 25.258 Z " transform="matrix(1, 0, 0, 1, 0.5, 0)"/>
      </g>
      <path id="L_Eye" fill="#010101" d="M 31.211 19.741 C 31.582 19.867 32.236 19.771 31.553 19.540 C 29.938 18.993 25.436 17.673 24.949 20.288 C 24.906 20.517 25.924 20.748 25.959 20.559 C 26.371 18.344 29.766 19.251 31.211 19.741 L 31.211 19.741 L 31.211 19.741 Z " transform="matrix(1, 0, 0, 1, 0.5, 0)"/>
      <path id="R_Eye" fill="#010101" d="M 38.572 19.531 C 38.476 19.579 39.267 19.997 39.521 19.865 C 40.191 19.523 40.879 19.182 41.607 18.975 C 42.525 18.718 43.326 18.608 43.666 19.663 C 43.746 19.910 44.715 20.018 44.660 19.850 C 43.814 17.235 40.188 18.710 38.572 19.531 L 38.572 19.531 L 38.572 19.531 Z " transform="matrix(1, 0, 0, 1, 0.5, 0)"/>
      <path id="L_Eyebrow" d="M 24.278 16.867 C 25.156 14.652 27.754 14.345 29.826 14.804 C 30.121 14.869 30.176 14.691 29.875 14.623 C 27.653 14.129 24.737 14.302 23.775 16.733 C 23.729 16.845 24.223 17.004 24.278 16.867 L 24.278 16.867 Z " transform="matrix(1, 0, 0, 1, 0.5, 0)"/>
      <path id="R_Eyebrow" d="M 38.496 14.517 C 40.406 13.796 42.931 13.574 44.100 15.610 C 44.176 15.742 44.647 15.777 44.598 15.692 C 43.277 13.392 40.278 13.483 38.085 14.308 C 37.917 14.372 38.374 14.561 38.496 14.517 L 38.496 14.517 Z " transform="matrix(1, 0, 0, 1, 0.5, 0)"/>
      <g id="Hair">
        <path id="Fill" fill="#301113" d="M 46.820 14.900 C 46.784 14.847 46.767 14.786 46.802 14.718 C 47.136 14.070 47.072 13.222 46.789 12.569 C 46.751 12.481 46.781 12.423 46.838 12.387 C 46.837 12.368 46.819 12.355 46.825 12.335 C 47.118 11.307 47.021 10.114 46.574 9.143 C 46.536 9.057 46.562 9 46.616 8.965 C 47.079 7.868 46.220 6.756 45.481 5.992 C 45.415 5.957 45.360 5.909 45.346 5.840 C 45.199 5.094 44.650 4.544 44.174 3.986 C 44.139 3.945 44.128 3.911 44.126 3.879 C 44.117 3.869 44.106 3.861 44.100 3.851 C 43.690 3.162 43.164 2.431 42.343 2.247 C 42.216 2.299 41.994 2.254 41.933 2.118 C 41.537 1.245 40.108 1.194 39.287 1.107 C 39.274 1.106 39.268 1.096 39.257 1.093 C 39.242 1.092 39.235 1.100 39.219 1.097 C 38.536 0.946 37.575 0.282 36.905 0.715 C 36.821 0.770 36.697 0.752 36.598 0.702 C 36.562 0.724 36.522 0.743 36.452 0.735 C 35.987 0.681 35.520 0.640 35.053 0.603 C 34.991 0.622 34.920 0.623 34.846 0.583 C 34.842 0.583 34.839 0.582 34.835 0.582 C 34.822 0.581 34.816 0.571 34.804 0.569 C 34.225 0.287 33.516 0.414 32.908 0.504 C 32.386 0.581 31.876 0.593 31.349 0.560 C 31.312 0.558 31.288 0.536 31.259 0.523 C 31.239 0.528 31.238 0.543 31.212 0.544 C 30.457 0.590 29.709 0.668 28.962 0.775 C 28.933 0.792 28.892 0.789 28.850 0.789 C 28.836 0.791 28.822 0.792 28.808 0.794 C 28.800 0.795 28.794 0.789 28.786 0.790 C 28.776 0.788 28.771 0.794 28.761 0.790 C 27.930 0.531 27.232 0.675 26.642 1.333 C 26.564 1.421 26.413 1.417 26.298 1.368 C 25.670 1.562 25.057 1.794 24.453 2.058 C 24.467 2.116 24.442 2.170 24.343 2.199 C 23.532 2.431 21.929 2.410 21.935 3.574 C 21.936 3.741 21.755 3.772 21.607 3.725 C 21.051 4.154 20.531 4.622 20.059 5.142 C 20.054 5.148 20.047 5.154 20.040 5.161 L 20.040 5.161 C 20.040 5.161 20.039 5.161 20.039 5.162 C 20.022 5.179 20.005 5.196 19.977 5.210 C 19.626 5.389 19.039 5.649 18.956 6.073 C 18.927 6.215 18.958 6.370 18.936 6.514 C 18.922 6.627 18.851 6.712 18.768 6.786 C 18.764 6.804 18.762 6.822 18.750 6.840 C 18.430 7.337 18.150 7.853 17.897 8.386 C 17.908 8.415 17.931 8.441 17.923 8.476 C 17.837 8.886 17.469 9.136 17.402 9.552 C 17.343 9.923 17.447 10.304 17.166 10.606 C 17.143 10.630 17.114 10.646 17.082 10.656 C 16.949 11.186 16.851 11.721 16.790 12.264 C 16.830 12.307 16.852 12.362 16.839 12.424 C 16.751 12.877 16.392 13.310 16.588 13.734 C 16.667 13.769 16.734 13.820 16.740 13.902 C 16.741 13.927 16.746 13.952 16.747 13.978 C 16.766 14.016 16.771 14.050 16.757 14.079 C 16.792 14.539 16.855 14.996 16.955 15.448 C 17.154 15.732 17.178 16.052 17.268 16.392 C 17.320 16.582 17.371 16.843 17.526 16.979 C 17.632 17.075 17.677 17.173 17.672 17.316 C 17.671 17.334 17.654 17.338 17.649 17.353 C 18.064 18.151 18.598 18.869 19.261 19.476 C 19.289 19.501 19.305 19.525 19.319 19.549 C 19.402 19.553 19.486 19.579 19.537 19.638 C 20.344 20.555 20.881 21.526 21.395 22.606 C 21.827 22.331 22.330 21.967 22.135 21.452 C 21.966 21.013 21.642 20.613 21.445 20.181 C 20.883 18.979 20.285 17.737 19.799 16.504 C 18.996 14.472 19.541 11.759 20.431 9.854 C 21.330 7.921 23.621 6.520 25.506 5.704 C 28.387 4.458 31.752 4.450 34.836 4.601 C 36.508 4.683 38.187 4.920 39.850 5.138 C 40.920 5.279 41.958 5.577 42.890 6.134 C 46.369 8.202 46.530 13.004 46.283 16.563 C 46.263 16.770 45.971 16.781 45.834 16.672 C 45.692 17.756 45.535 18.606 45.484 18.763 L 45.581 18.662 C 45.800 18.358 46.052 18.078 46.285 17.772 C 46.880 16.987 46.822 15.844 46.820 14.900 L 46.820 14.900 Z " transform="matrix(1, 0, 0, 1, 0.5, 0)"/>
        <path id="Outline" d="M 47.279 12.519 C 47.295 12.501 47.321 12.496 47.329 12.469 C 47.630 11.401 47.535 10.168 47.085 9.151 C 47.091 9.142 47.105 9.142 47.109 9.131 C 47.656 7.904 46.676 6.611 45.856 5.773 C 45.844 5.761 45.829 5.754 45.815 5.745 C 45.620 4.985 45.101 4.410 44.598 3.821 C 44.597 3.820 44.596 3.820 44.595 3.819 C 44.590 3.807 44.591 3.796 44.583 3.782 C 44.072 2.920 43.405 2.034 42.354 1.854 C 42.331 1.850 42.318 1.862 42.296 1.862 C 41.712 0.950 40.284 0.824 39.302 0.721 C 38.409 0.520 37.429 -0.146 36.542 0.402 C 36.505 0.376 36.467 0.348 36.414 0.342 C 35.915 0.285 35.417 0.239 34.917 0.204 C 33.816 -0.270 32.457 0.240 31.311 0.167 C 31.254 0.164 31.226 0.185 31.191 0.200 C 31.144 0.177 31.095 0.156 31.043 0.159 C 30.512 0.189 29.982 0.242 29.454 0.305 C 29.218 0.333 28.982 0.361 28.747 0.396 C 28.662 0.372 28.577 0.348 28.493 0.332 C 27.745 0.186 27.064 0.334 26.484 0.820 C 26.452 0.847 26.421 0.879 26.389 0.908 C 26.364 0.907 26.338 0.908 26.314 0.914 C 26.123 0.969 25.939 1.040 25.751 1.102 C 25.048 1.331 24.357 1.590 23.689 1.911 C 23.667 1.922 23.655 1.935 23.640 1.947 C 22.983 2.088 22.218 2.217 21.780 2.648 C 21.729 2.699 21.683 2.754 21.642 2.814 C 21.562 2.930 21.507 3.067 21.472 3.223 C 21.471 3.224 21.468 3.224 21.467 3.225 C 20.790 3.717 20.179 4.281 19.616 4.897 C 19.255 5.077 18.756 5.309 18.561 5.660 C 18.459 5.843 18.469 6.066 18.434 6.261 C 18.421 6.335 18.394 6.403 18.357 6.464 C 18.325 6.516 18.294 6.568 18.231 6.604 C 18.137 6.659 18.138 6.732 18.188 6.795 C 17.863 7.323 17.570 7.863 17.313 8.427 C 17.289 8.480 17.302 8.528 17.333 8.568 C 17.196 8.817 16.967 9.021 16.920 9.314 C 16.880 9.568 16.920 9.876 16.846 10.129 C 16.842 10.144 16.835 10.157 16.829 10.171 C 16.824 10.186 16.811 10.198 16.805 10.213 C 16.723 10.220 16.649 10.248 16.628 10.331 C 16.451 10.991 16.327 11.659 16.263 12.339 C 16.260 12.376 16.285 12.402 16.301 12.433 C 16.217 12.706 16.064 12.963 16.022 13.245 C 15.982 13.546 16.066 13.781 16.243 14.008 C 16.278 14.461 16.341 14.907 16.436 15.352 C 16.406 15.395 16.406 15.452 16.468 15.520 C 16.708 15.789 16.722 16.208 16.812 16.546 C 16.847 16.685 16.892 16.821 16.960 16.947 C 17.001 17.020 17.103 17.120 17.144 17.212 C 17.110 17.248 17.101 17.298 17.136 17.366 C 17.590 18.261 18.188 19.052 18.930 19.727 C 18.981 19.775 19.046 19.795 19.109 19.797 C 19.112 19.800 19.112 19.803 19.115 19.806 C 19.325 20.046 19.518 20.290 19.696 20.539 C 19.733 20.591 19.764 20.645 19.800 20.697 C 20.290 21.410 20.682 22.163 21.059 22.977 C 21.131 23.130 21.356 23.186 21.497 23.094 C 21.784 22.901 22.163 22.676 22.421 22.388 C 22.444 22.362 22.469 22.337 22.490 22.310 C 22.652 22.103 22.746 21.864 22.696 21.581 C 22.565 20.857 21.883 20.003 21.594 19.321 C 21.138 18.231 20.373 17.105 20.141 15.944 C 19.911 14.798 19.918 13.599 20.147 12.452 C 20.676 9.800 22.144 8.015 24.504 6.685 C 27.371 5.071 30.758 4.837 33.986 4.954 C 35.844 5.020 37.681 5.278 39.529 5.486 C 40.508 5.596 41.502 5.803 42.372 6.288 C 45.893 8.253 46.015 13 45.767 16.530 C 45.763 16.589 45.792 16.637 45.836 16.673 C 45.973 16.781 46.266 16.770 46.285 16.564 C 46.532 13.005 46.372 8.204 42.892 6.135 C 41.960 5.578 40.922 5.280 39.852 5.139 C 38.189 4.921 36.510 4.684 34.838 4.602 C 31.754 4.451 28.389 4.458 25.508 5.705 C 23.623 6.521 21.332 7.923 20.433 9.855 C 19.543 11.760 18.998 14.473 19.801 16.505 C 20.287 17.737 20.885 18.980 21.447 20.182 C 21.644 20.614 21.968 21.013 22.137 21.453 C 22.332 21.969 21.829 22.332 21.397 22.607 C 20.883 21.527 20.346 20.557 19.539 19.639 C 19.487 19.580 19.404 19.555 19.321 19.550 C 19.307 19.526 19.291 19.502 19.263 19.477 C 18.600 18.870 18.066 18.152 17.651 17.354 C 17.656 17.339 17.673 17.334 17.674 17.317 C 17.680 17.174 17.635 17.076 17.528 16.980 C 17.373 16.844 17.322 16.584 17.270 16.393 C 17.180 16.053 17.156 15.732 16.957 15.449 C 16.857 14.997 16.793 14.540 16.759 14.080 C 16.773 14.052 16.768 14.018 16.749 13.979 C 16.748 13.954 16.743 13.929 16.742 13.903 C 16.736 13.821 16.668 13.770 16.590 13.735 C 16.394 13.312 16.753 12.879 16.841 12.425 C 16.854 12.363 16.832 12.309 16.792 12.265 C 16.853 11.722 16.951 11.187 17.084 10.657 C 17.116 10.646 17.145 10.631 17.168 10.607 C 17.449 10.305 17.346 9.924 17.404 9.553 C 17.470 9.137 17.839 8.887 17.925 8.477 C 17.933 8.442 17.910 8.416 17.899 8.387 C 18.151 7.854 18.432 7.338 18.752 6.841 C 18.764 6.822 18.766 6.805 18.770 6.787 C 18.853 6.713 18.924 6.628 18.938 6.515 C 18.959 6.370 18.928 6.215 18.958 6.074 C 19.041 5.650 19.628 5.389 19.979 5.211 C 20.007 5.197 20.024 5.180 20.041 5.163 C 20.041 5.163 20.042 5.163 20.042 5.162 L 20.042 5.162 C 20.048 5.156 20.056 5.150 20.061 5.143 C 20.533 4.623 21.053 4.155 21.609 3.726 C 21.757 3.772 21.938 3.742 21.937 3.575 C 21.931 2.411 23.535 2.432 24.345 2.200 C 24.444 2.172 24.469 2.117 24.455 2.059 C 25.059 1.794 25.672 1.562 26.300 1.369 C 26.415 1.418 26.566 1.422 26.644 1.334 C 27.234 0.676 27.932 0.532 28.763 0.791 C 28.773 0.794 28.778 0.789 28.788 0.791 C 28.796 0.791 28.802 0.796 28.810 0.795 C 28.824 0.793 28.838 0.792 28.852 0.790 C 28.894 0.790 28.935 0.793 28.964 0.776 C 29.711 0.668 30.459 0.590 31.214 0.545 C 31.240 0.544 31.242 0.529 31.261 0.524 C 31.291 0.537 31.314 0.559 31.351 0.561 C 31.877 0.594 32.387 0.582 32.910 0.505 C 33.517 0.415 34.226 0.288 34.806 0.570 C 34.819 0.572 34.825 0.582 34.837 0.583 C 34.841 0.583 34.844 0.584 34.848 0.584 C 34.922 0.624 34.993 0.622 35.055 0.604 C 35.523 0.641 35.990 0.682 36.454 0.736 C 36.524 0.744 36.564 0.725 36.600 0.703 C 36.699 0.752 36.823 0.771 36.907 0.716 C 37.578 0.282 38.539 0.946 39.221 1.098 C 39.237 1.101 39.244 1.093 39.259 1.094 C 39.271 1.096 39.277 1.106 39.289 1.108 C 40.109 1.195 41.539 1.246 41.935 2.119 C 41.997 2.255 42.218 2.300 42.345 2.248 C 43.166 2.432 43.692 3.162 44.102 3.852 C 44.109 3.863 44.120 3.871 44.128 3.880 C 44.130 3.912 44.141 3.947 44.176 3.987 C 44.652 4.545 45.200 5.094 45.348 5.841 C 45.362 5.909 45.416 5.958 45.483 5.993 C 46.221 6.757 47.081 7.869 46.618 8.966 C 46.562 9 46.536 9.057 46.575 9.141 C 47.022 10.113 47.119 11.305 46.826 12.333 C 46.820 12.353 46.838 12.367 46.839 12.385 C 46.782 12.421 46.752 12.479 46.790 12.567 C 47.072 13.220 47.137 14.068 46.803 14.716 C 46.768 14.784 46.784 14.845 46.821 14.898 C 46.823 15.842 46.881 16.985 46.286 17.773 C 46.053 18.079 45.801 18.359 45.582 18.663 C 45.464 18.828 45.353 18.997 45.265 19.186 C 45.161 19.413 45.661 19.555 45.767 19.323 C 46.070 18.664 46.720 18.238 46.997 17.567 C 47.349 16.714 47.331 15.751 47.332 14.846 C 47.332 14.830 47.315 14.822 47.311 14.807 C 47.624 14.090 47.581 13.235 47.279 12.519 L 47.279 12.519 Z " transform="matrix(1, 0, 0, 1, 0.5, 0)"/>
      </g>
    </g>
    <g id="R_Hand">
      <path id="Fill_2_" fill="#A86C35" d="M 61.916 100.486 C 60.634 100.712 59.377 100.880 58.068 100.941 C 56.910 100.997 56.425 101.064 55.347 100.808 C 54.693 100.651 54.243 100.412 53.783 100.875 C 53.371 101.293 53.006 101.722 52.599 102.140 C 51.870 102.890 51.658 103.847 51.509 104.832 C 51.429 105.357 51.404 105.894 51.242 106.394 C 51.100 106.847 50.668 107.331 50.763 107.849 C 50.763 107.849 51.409 107.998 51.919 107.870 C 52.497 107.724 52.674 107.659 52.898 107.167 C 53.156 106.604 53.224 104.768 54.084 104.780 C 54.145 105.925 54.020 107.010 53.843 108.113 C 53.673 109.166 53.614 110.356 53.338 111.389 C 53.213 111.869 52.899 112.264 52.776 112.713 C 52.649 113.182 52.701 113.745 52.772 114.227 C 52.844 114.715 52.875 115.193 53.403 115.297 C 53.875 115.391 54.840 115.115 55.235 114.869 C 56.131 114.313 56.801 113.648 57.754 113.201 C 58.185 112.995 58.560 112.662 58.969 112.473 C 59.412 112.268 60.019 112.217 60.519 112.130 C 60.457 111.613 60.853 111.079 61.082 110.641 C 61.336 110.147 61.354 109.766 61.461 109.242 C 61.653 108.272 62.144 107.416 62.297 106.406 C 62.362 105.962 62.398 105.482 62.420 105.018 C 62.444 104.491 62.308 104.070 62.237 103.631 C 62.117 102.854 61.711 101.051 61.977 100.415 " transform="matrix(1, 0, 0, 1, 0.5, 0)"/>
      <path id="Outline_7_" fill="#010101" d="M 62.041 107.209 C 62.055 107.375 62.561 107.480 62.545 107.272 C 62.399 105.015 62.634 102.670 62.170 100.444 C 62.137 100.276 61.627 100.192 61.666 100.381 C 62.129 102.606 61.896 104.953 62.041 107.209 L 62.041 107.209 L 62.041 107.209 Z M 51.957 102.545 C 51.830 102.685 52.311 102.870 52.428 102.739 C 52.711 102.429 52.955 102.107 53.192 101.761 C 53.508 101.296 53.901 100.893 54.296 100.495 C 54.429 100.363 53.950 100.177 53.827 100.302 C 53.432 100.699 53.034 101.099 52.723 101.566 C 52.486 101.916 52.240 102.236 51.957 102.545 L 51.957 102.545 L 51.957 102.545 Z M 52.416 102.547 C 52.451 102.366 51.941 102.243 51.912 102.410 C 51.570 104.285 50.953 106.088 50.324 107.883 C 50.265 108.045 50.765 108.193 50.828 108.019 C 51.459 106.224 52.074 104.422 52.416 102.547 L 52.416 102.547 L 52.416 102.547 Z M 54.262 104.618 C 54.461 104.490 53.996 104.290 53.860 104.376 C 52.326 105.345 53.155 108.441 50.610 107.827 C 50.309 107.755 50.239 108.001 50.547 108.075 C 51.506 108.308 52.521 108.267 52.985 107.263 C 53.377 106.415 53.400 105.159 54.262 104.618 L 54.262 104.618 L 54.262 104.618 Z M 53.314 111.220 C 53.326 111.386 53.832 111.488 53.816 111.283 C 53.679 109.033 54.410 106.849 54.326 104.609 C 54.318 104.447 53.814 104.340 53.822 104.547 C 53.906 106.785 53.174 108.972 53.314 111.220 L 53.314 111.220 L 53.314 111.220 Z M 55.645 111.133 C 55.610 111.315 56.119 111.441 56.149 111.271 C 56.481 109.599 57.059 108.008 57.664 106.418 C 57.724 106.258 57.224 106.107 57.158 106.281 C 56.555 107.871 55.979 109.461 55.645 111.133 L 55.645 111.133 L 55.645 111.133 Z M 52.541 114.819 C 52.566 114.988 53.076 115.079 53.045 114.881 C 52.838 113.506 53.158 112.365 53.789 111.152 C 53.859 111.010 53.373 110.846 53.283 111.016 C 52.643 112.253 52.332 113.427 52.541 114.819 L 52.541 114.819 L 52.541 114.819 Z M 56.232 111.254 C 56.294 111.099 55.795 110.945 55.728 111.120 C 55.103 112.666 53.713 113.776 52.795 115.142 C 52.685 115.312 53.175 115.476 53.267 115.338 C 54.201 113.951 55.600 112.828 56.232 111.254 L 56.232 111.254 L 56.232 111.254 Z M 59.250 107.101 C 59.293 106.927 58.789 106.792 58.744 106.965 C 58.215 109.015 57.797 111.090 57.197 113.119 C 57.146 113.289 57.648 113.431 57.701 113.256 C 58.302 111.226 58.723 109.151 59.250 107.101 L 59.250 107.101 L 59.250 107.101 Z M 57.922 113.161 C 58.043 113.004 57.561 112.831 57.453 112.963 C 57.129 113.374 53.453 115.817 53.256 115.107 C 53.209 114.939 52.703 114.865 52.752 115.044 C 53.227 116.751 57.387 113.841 57.922 113.161 L 57.922 113.161 L 57.922 113.161 Z M 61.033 106.881 C 61.053 106.693 60.545 106.583 60.527 106.746 C 60.308 108.818 59.588 110.746 58.670 112.606 C 58.600 112.752 59.090 112.914 59.176 112.744 C 60.094 110.883 60.812 108.955 61.033 106.881 L 61.033 106.881 L 61.033 106.881 Z M 59.211 112.592 C 59.332 112.437 58.848 112.263 58.746 112.396 C 58.473 112.746 57.971 112.875 57.601 113.095 C 57.396 113.215 57.861 113.418 58 113.336 C 58.395 113.103 58.920 112.963 59.211 112.592 L 59.211 112.592 L 59.211 112.592 Z M 62.580 107.312 C 62.623 107.136 62.119 107.004 62.076 107.177 C 61.648 108.901 60.756 110.451 60.201 112.133 C 60.144 112.297 60.646 112.442 60.705 112.269 C 61.260 110.588 62.152 109.036 62.580 107.312 L 62.580 107.312 L 62.580 107.312 Z M 60.619 112.179 C 60.752 112.060 60.281 111.867 60.150 111.984 C 59.881 112.222 59.521 112.327 59.177 112.388 C 59.073 112.408 59.052 112.493 59.131 112.562 C 59.222 112.640 59.367 112.679 59.485 112.659 C 59.891 112.582 60.307 112.453 60.619 112.179 L 60.619 112.179 L 60.619 112.179 Z " transform="matrix(1, 0, 0, 1, 0.5, 0)"/>
    </g>
    <g id="L_Hand">
      <path id="Fill_3_" fill="#A86C35" d="M 13.496 103.888 C 11.849 104.463 10.651 105.099 8.776 104.935 C 7.666 104.838 6.679 104.660 5.627 104.267 C 5.174 104.097 4.690 103.829 4.242 103.685 C 3.600 103.482 3.597 103.875 3.535 104.519 C 3.355 106.353 2.435 109.404 3.584 111.081 C 3.860 111.486 4.127 111.935 4.418 112.324 C 4.735 112.748 5.189 112.914 5.567 113.267 C 5.968 113.636 5.972 113.867 6.623 113.849 C 7.146 113.836 7.469 113.694 8.013 113.724 C 9.205 113.790 10.063 113.694 11.041 114.403 C 11.599 114.808 13.006 116.312 13.740 115.794 C 13.414 114.593 12.891 113.538 12.108 112.530 C 11.546 111.807 10.461 111.601 10.504 110.579 C 10.525 110.021 10.805 109.207 11.150 108.810 C 11.384 109.992 12.664 112.789 14.203 112.168 C 14.446 111.439 14.104 110.551 13.873 109.939 C 13.588 109.189 13.477 108.657 13.559 107.860 C 13.705 106.433 14.603 105.097 13.497 103.827 " transform="matrix(1, 0, 0, 1, 0.5, 0)"/>
      <path id="Outline_8_" fill="#010101" d="M 10.957 109.458 C 10.973 109.310 10.465 109.208 10.449 109.319 C 10.445 109.350 10.442 109.381 10.439 109.413 C 10.424 109.554 10.877 109.665 10.943 109.548 C 11.170 109.157 11.139 108.421 11.216 107.974 C 11.049 107.937 10.882 107.902 10.714 107.867 C 11.075 108.984 11.313 111.019 12.429 111.691 C 12.721 111.871 14.220 112.603 14.404 111.898 C 14.552 111.336 14.281 110.726 14.078 110.210 C 13.711 109.296 13.506 108.501 13.690 107.525 C 13.891 106.476 14.457 104.886 13.916 103.870 C 13.846 103.737 13.367 103.700 13.416 103.788 C 14.324 105.485 12.533 107.648 13.304 109.462 C 13.533 110.009 13.844 110.609 13.920 111.206 C 14.086 112.483 12.555 111.556 12.228 110.876 C 11.779 109.938 11.534 108.933 11.217 107.945 C 11.184 107.845 10.735 107.708 10.713 107.837 C 10.638 108.286 10.670 109.019 10.442 109.413 C 10.611 109.458 10.779 109.503 10.948 109.548 C 10.951 109.519 10.953 109.488 10.957 109.458 L 10.957 109.458 L 10.957 109.458 Z M 13.342 114.825 C 13.381 114.959 13.877 115.031 13.842 114.910 C 13.537 113.858 13.039 113.074 12.207 112.369 C 11.939 112.144 11.670 111.998 11.371 111.826 C 10.482 111.312 10.789 110.412 10.935 109.565 C 10.958 109.423 10.453 109.308 10.431 109.429 C 10.270 110.347 9.942 111.253 10.869 111.788 C 12.131 112.517 12.935 113.413 13.342 114.825 L 13.342 114.825 L 13.342 114.825 Z M 13.857 114.812 C 13.834 114.679 13.336 114.590 13.359 114.724 C 13.442 115.206 13.338 116.092 12.612 115.525 C 12.268 115.254 11.947 114.960 11.623 114.663 C 11.324 114.390 11.031 114.122 10.664 113.934 C 9.799 113.486 8.947 113.147 8.541 112.182 C 8.229 111.443 7.990 110.691 7.734 109.932 C 7.687 109.793 7.195 109.734 7.234 109.850 C 7.584 110.889 7.828 112.430 8.773 113.121 C 9.705 113.803 10.687 114.228 11.563 115.006 C 12.314 115.672 14.221 116.883 13.857 114.812 L 13.857 114.812 L 13.857 114.812 Z M 10.666 114.183 C 10.865 114.269 11.176 114.191 10.845 114.048 C 9.774 113.587 8.055 113.984 7.264 113.075 C 6.431 112.116 6.090 110.868 5.660 109.696 C 5.608 109.560 5.121 109.503 5.160 109.614 C 5.664 110.990 6.057 112.415 7.193 113.411 C 8.104 114.209 9.623 113.735 10.666 114.183 L 10.666 114.183 L 10.666 114.183 Z M 7.897 113.738 C 8.058 113.695 7.610 113.501 7.486 113.532 C 7.268 113.589 6.334 113.958 6.135 113.755 C 5.853 113.470 5.656 113.107 5.482 112.749 C 5.139 112.048 4.886 111.294 4.492 110.620 C 4.418 110.488 3.947 110.454 3.994 110.536 C 4.560 111.515 4.789 112.829 5.600 113.650 C 6.229 114.288 7.146 113.937 7.897 113.738 L 7.897 113.738 L 7.897 113.738 Z M 5.322 113.245 C 5.422 113.302 5.933 113.342 5.715 113.214 C 2.156 111.140 3.297 106.945 4.015 103.665 C 4.045 103.529 3.537 103.403 3.511 103.528 C 2.769 106.917 1.690 111.124 5.322 113.245 L 5.322 113.245 L 5.322 113.245 Z " transform="matrix(1, 0, 0, 1, 0.5, 0)"/>
    </g>
  </g>
</svg>