<svg version="1.1" width="81" height="126" viewBox="-1 -1 81 126" xmlns="http://www.w3.org/2000/svg" xmlns:xlink="http://www.w3.org/1999/xlink">
  <!-- Exported by Scratch - http://scratch.mit.edu/ -->
  <g id="ID0.3345674891024828" transform="matrix(1, 0, 0, 1, 0, -0.25)">
    <g id="Page-1">
      <g id="jordyn-d-[sports,soccer,football,people,alex-eben-meyer]">
        <g id="Group-4">
          <path id="Shape" fill="#DCAA78" stroke="none" stroke-width="1" d="M 9.278 0.847 C 7.919 0.616 2.058 1.651 0.725 1.806 C 0.684 2.640 3.316 12.323 3.708 13.051 L 10.164 13.051 C 10.058 11.821 9.384 2.087 9.278 0.847 Z " transform="matrix(1, 0, 0, 1, 52, 86.75)"/>
          <path id="Shape" fill="#000000" stroke="none" stroke-width="1" d="M 13.369 33.413 C 13.356 33.296 13.336 33.180 13.308 33.066 C 13.077 27.328 12.040 11.736 11.930 11.103 C 8.538 10.813 5.128 10.837 1.741 11.174 C 4.141 19.246 10.465 34.040 10.898 35.456 C 11.401 35.852 12.800 35.250 13.333 35.140 C 13.630 34.552 13.409 33.980 13.369 33.413 Z " transform="matrix(1, 0, 0, 1, 52, 86.75)"/>
          <path id="Shape" fill="#000000" stroke="none" stroke-width="1" d="M 19.950 35.581 C 19.140 35.581 18.325 35.652 17.519 35.581 C 16.593 35.433 15.659 35.334 14.722 35.285 C 14.687 35.285 12.896 27.358 12.795 27.308 C 12.694 27.258 10.606 31.103 10.606 31.103 C 10.606 31.103 10.893 35.305 10.918 35.461 C 10.951 35.595 10.995 35.726 11.049 35.852 C 11.144 36.087 11.220 36.329 11.275 36.575 C 11.341 36.987 11.316 37.409 11.401 37.815 C 11.487 38.222 11.703 38.347 12.196 38.227 C 12.554 37.776 12.519 37.131 12.116 36.721 L 12.473 35.872 C 12.976 35.752 13.258 36.073 13.545 36.344 L 13.716 37.931 L 14.491 38.121 C 14.529 37.930 14.547 37.735 14.546 37.539 C 14.507 37.261 14.448 36.986 14.370 36.716 C 14.271 36.471 14.368 36.191 14.596 36.058 L 15.854 36.209 C 16.528 36.836 16.116 37.790 16.624 38.518 L 17.223 38.548 C 17.429 37.795 16.669 37.117 17.162 36.430 L 18.108 36.430 C 18.356 36.611 18.456 36.933 18.355 37.223 C 18.224 37.725 18.440 37.986 18.913 38.192 L 19.301 37.971 L 19.301 36.575 C 19.834 36.485 20.508 36.887 20.674 36.073 C 20.568 35.768 20.274 35.568 19.950 35.581 Z " transform="matrix(1, 0, 0, 1, 52, 86.75)"/>
          <path id="Shape" fill="#F01446" stroke="none" stroke-width="1" d="M 11.019 24.477 L 5.484 24.397 L 4.236 21.440 L 11.019 21.440 L 11.019 24.477 " transform="matrix(1, 0, 0, 1, 52, 86.75)"/>
          <path id="Shape" fill="#00A08C" stroke="none" stroke-width="1" d="M 11.482 14.873 C 13.213 14.873 14.878 15.918 15.265 16.510 C 16.310 18.054 16.981 19.819 17.223 21.666 C 17.726 25.004 16.508 30.386 13.132 30.832 C 6.792 31.666 5.796 15.908 11.482 14.873 Z " transform="matrix(1, 0, 0, 1, 52, 86.75)"/>
          <path id="Shape" fill="#008264" stroke="none" stroke-width="1" d="M 11.899 17.870 C 12.791 17.875 13.643 18.237 14.264 18.874 C 14.917 19.839 15.336 20.943 15.487 22.097 C 15.809 24.186 15.039 27.549 12.931 27.830 C 8.946 28.367 8.322 18.533 11.899 17.870 Z " transform="matrix(1, 0, 0, 1, 52, 86.75)"/>
          <path id="Rectangle-path" fill="#F01446" stroke="none" stroke-width="1" d="M 0.881 10.175 L 12.800 10.175 L 12.800 12.941 L 0.881 12.941 L 0.881 10.175 Z " transform="matrix(1, 0, 0, 1, 52, 86.75)"/>
        </g>
        <g id="Group-3">
          <path id="Shape" fill="#DCAA78" stroke="none" stroke-width="1" d="M 13.519 0.018 C 13.268 0.801 11.004 10.209 10.918 11.062 L 18.048 10.390 C 18.455 9.817 22.335 1.956 22.385 1.163 C 20.785 1.168 15.119 -0.012 13.519 0.018 Z " transform="matrix(1, 0, 0, 1, 4, 87.75)"/>
          <path id="Shape" fill="#000000" stroke="none" stroke-width="1" d="M 18.687 11.017 L 9.947 11.017 L 6.118 31.881 C 6.118 31.881 4.252 32.101 3.975 32.101 C 3.135 32.101 2.294 32.101 1.459 32.056 C 1.008 32.052 0.609 32.347 0.483 32.779 L 0.599 33.156 L 1.499 33.261 L 2.475 33.100 L 2.309 35.485 C 2.747 35.821 2.747 35.821 3.145 35.610 L 3.371 33.010 L 4.528 33.146 C 4.597 33.882 4.597 34.623 4.528 35.359 L 5.424 35.570 C 5.509 35.349 5.353 34.280 5.645 33.206 L 6.933 33.085 C 6.984 34.014 6.606 34.852 6.989 35.711 L 7.668 35.711 C 7.869 34.847 7.351 33.863 8.287 33.065 L 9.293 33.115 C 9.464 33.984 8.835 34.797 9.489 35.580 L 9.947 35.726 L 10.325 35.430 C 10.321 35.342 10.310 35.254 10.289 35.169 C 10.334 34.372 10.440 33.580 10.606 32.799 C 10.606 32.799 16.191 17.533 18.687 11.017 Z " transform="matrix(1, 0, 0, 1, 4, 87.75)"/>
          <path id="Shape" fill="#F01446" stroke="none" stroke-width="1" d="M 9.942 23.477 L 15.477 23.397 L 16.725 20.440 L 9.942 20.440 L 9.942 23.477 " transform="matrix(1, 0, 0, 1, 4, 87.75)"/>
          <path id="Shape" fill="#00A08C" stroke="none" stroke-width="1" d="M 13.781 18.688 C 13.679 20.270 13.326 21.825 12.735 23.296 C 11.829 25.369 8.946 30.063 5.872 28.171 C 4.865 27.322 3.925 26.665 3.608 25.354 C 3.215 23.778 3.401 22.222 3.633 20.646 C 3.864 19.069 4.790 15.831 7.301 14.416 C 8.408 13.793 11.462 13.286 12.926 14.471 C 14.113 15.410 13.852 17.970 13.781 18.688 Z " transform="matrix(1, 0, 0, 1, 4, 87.75)"/>
          <path id="Shape" fill="#008264" stroke="none" stroke-width="1" d="M 11.980 19.561 C 11.915 20.595 11.686 21.612 11.301 22.573 C 10.712 23.924 8.835 26.976 6.838 25.746 C 6.179 25.194 5.570 24.742 5.364 23.914 C 5.161 22.903 5.161 21.862 5.364 20.851 C 5.519 19.802 6.118 17.719 7.748 16.795 C 8.468 16.389 10.455 16.057 11.406 16.830 C 12.191 17.418 12.030 19.094 11.980 19.561 Z " transform="matrix(1, 0, 0, 1, 4, 87.75)"/>
          <path id="Rectangle-path" fill="#F01446" stroke="none" stroke-width="1" d="M 8.247 9.175 L 20.166 9.175 L 20.166 11.941 L 8.247 11.941 L 8.247 9.175 Z " transform="matrix(1, 0, 0, 1, 4, 87.75)"/>
        </g>
        <g id="Group-2">
          <path id="Shape" fill="#DCAA78" stroke="none" stroke-width="1" d="M 50.818 16.175 C 51.713 14.639 52.679 12.600 54.888 13.163 C 56.564 13.584 57.328 15.783 57.001 17.369 C 56.674 18.956 54.873 20.482 53.223 20.462 C 50.314 20.412 50.551 18.338 50.818 16.175 Z " transform="matrix(1, 0, 0, 1, 0, 0.75)"/>
          <path id="Shape" fill="#DCAA78" stroke="none" stroke-width="1" d="M 52.231 9.036 L 37.997 6.702 L 29.353 5.281 C 27.230 4.935 27.099 4.699 26.083 6.913 C 24.292 10.818 24.966 16.451 26.189 20.542 C 26.958 23.117 31.723 31.642 39.421 31.642 C 47.119 31.642 52.201 22.796 52.438 20.858 C 52.969 16.930 52.900 12.944 52.231 9.036 Z " transform="matrix(1, 0, 0, 1, 0, 0.75)"/>
          <path id="Shape" fill="#000000" stroke="none" stroke-width="1" d="M 24.247 6.250 C 24.247 6.250 20.287 7.555 18.631 9.880 C 16.584 12.761 16.267 16.099 15.401 19.418 C 14.611 22.460 13.107 25.231 10.123 26.526 C 7.140 27.821 3.452 26.928 1.902 23.855 C -0.875 18.363 1.670 8.921 6.732 5.582 C 9.514 3.745 12.926 3.675 16.111 4.076 C 18.912 4.416 21.650 5.147 24.247 6.250 Z " transform="matrix(1, 0, 0, 1, 0, 0.75)"/>
          <path id="Shape" fill="#000000" stroke="none" stroke-width="1" d="M 26.053 6.526 C 29.072 0.934 36.448 -0.833 42.898 0.557 C 50.908 2.279 53.640 7.877 53.001 14.694 C 48.624 14.769 26.309 7.229 26.053 6.526 Z " transform="matrix(1, 0, 0, 1, 0, 0.75)"/>
          <path id="Shape" fill="#DCAA78" stroke="none" stroke-width="1" d="M 27.366 13.876 C 27.366 13.876 29.454 18.238 29.565 20.146 C 28.483 20.146 25.509 20.899 24.116 20.542 C 22.994 20.256 21.786 19.398 21.525 18.223 C 21.288 17.159 20.714 14.930 21.167 13.976 C 22.873 10.407 27.366 13.876 27.366 13.876 Z " transform="matrix(1, 0, 0, 1, 0, 0.75)"/>
          <path id="Shape" fill="#F01446" stroke="none" stroke-width="1" d="M 25.182 10.356 C 23.926 9.497 23.468 7.861 24.096 6.476 C 25.142 3.966 27.618 4.970 27.618 4.970 L 25.182 10.356 Z " transform="matrix(1, 0, 0, 1, 0, 0.75)"/>
          <path id="Shape" fill="#BE8C64" stroke="none" stroke-width="1" d="M 39.215 13.589 C 39.593 14.268 39.907 14.981 40.151 15.718 C 40.292 16.325 40.558 17.038 39.940 17.620 C 39.593 18.003 39.036 18.111 38.571 17.887 C 38.133 17.711 38.068 17.344 38.003 16.923 C 37.968 15.981 38.209 15.049 38.697 14.242 C 38.849 14.009 39.022 13.790 39.215 13.589 Z " transform="matrix(1, 0, 0, 1, 0, 0.75)"/>
          <path id="Shape" fill="#000000" stroke="none" stroke-width="1" d="M 41.177 21.084 C 40.297 20.939 39.426 20.743 38.536 20.653 C 37.836 20.577 36.881 20.226 36.211 20.261 C 34.606 20.356 35.114 22.369 35.829 23.273 C 37.424 25.281 42.460 24.177 43.054 21.677 C 42.447 21.425 41.819 21.227 41.177 21.084 Z " transform="matrix(1, 0, 0, 1, 0, 0.75)"/>
          <path id="Shape" fill="#000000" stroke="none" stroke-width="1" d="M 32.478 14.152 C 32.926 14.026 33.167 14.152 33.243 14.388 C 33.353 14.754 33.318 16.104 32.956 16.355 L 32.453 16.180 L 32.478 14.152 Z " transform="matrix(1, 0, 0, 1, 0, 0.75)"/>
          <path id="Shape" fill="#000000" stroke="none" stroke-width="1" d="M 46.058 16.200 C 45.555 16.084 45.263 15.246 45.555 14.669 C 45.635 14.503 45.796 14.327 45.912 14.342 C 46.028 14.357 46.204 14.578 46.229 14.754 C 46.359 15.240 46.298 15.757 46.058 16.200 Z " transform="matrix(1, 0, 0, 1, 0, 0.75)"/>
          <path id="Shape" fill="#000000" stroke="none" stroke-width="1" d="M 35.457 6.024 L 25.021 18.574 C 25.021 18.574 19.859 2.405 35.628 0.316 L 35.457 6.024 Z " transform="matrix(1, 0, 0, 1, 0, 0.75)"/>
          <path id="Shape" fill="#000000" stroke="none" stroke-width="1" d="M 30.274 4.880 L 28.287 20.281 L 34.486 6.396 L 30.274 4.880 " transform="matrix(1, 0, 0, 1, 0, 0.75)"/>
        </g>
        <path id="Shape" fill="#DCAA78" stroke="none" stroke-width="1" d="M 16.765 73.614 L 15.215 82.570 C 15.215 82.570 15.628 84.739 16.448 85.808 L 20.262 72.871 L 16.765 73.614 Z " transform="matrix(1, 0, 0, 1, 0, 0.75)"/>
        <path id="Shape" fill="#DCAA78" stroke="none" stroke-width="1" d="M 57.077 71.787 L 60.966 86.581 C 60.966 86.581 61.469 76.421 64.991 73.589 L 64.991 71.531 L 57.077 71.787 Z " transform="matrix(1, 0, 0, 1, 0, 0.75)"/>
        <path id="Shape" fill="#F01446" stroke="none" stroke-width="1" d="M 28.760 90.663 L 32.382 78.820 L 45.177 78.680 L 45.177 78.559 L 49.519 90.658 L 63.728 90.658 C 61.927 82.309 59.552 70.266 58.551 67.987 L 29.872 67.364 C 27.990 67.324 21.892 66.245 20.579 67.460 C 19.990 68.002 19.648 70.527 19.401 71.305 C 18.757 73.350 18.101 75.392 17.434 77.430 C 16.005 81.841 14.561 86.248 13.102 90.653 L 28.760 90.663 Z " transform="matrix(1, 0, 0, 1, 0, 0.75)"/>
        <path id="Shape" fill="#DCAA78" stroke="none" stroke-width="1" d="M 79.497 53.936 C 78.626 46.948 74.018 41.852 68.317 38.670 C 66.712 37.776 60.614 36.295 59.235 36.300 L 58.662 44.543 C 64.906 44.543 68.679 47.083 70.652 53.640 C 72.624 60.196 69.419 63.800 67.950 65.879 C 66.481 67.957 62.113 69.709 60.428 70.246 C 58.742 70.783 55.824 70.025 54.440 71.195 C 55.301 73.173 58.556 71.777 59.869 73.775 C 61.182 75.773 60.991 76.285 62.053 78.484 C 62.259 78.404 63.059 76.913 63.638 76.270 C 64.725 75.020 66.319 75.196 67.824 74.729 C 70.747 73.830 73.349 72.112 75.321 69.779 C 78.772 65.683 80.166 59.272 79.497 53.936 Z " transform="matrix(1, 0, 0, 1, 0, 0.75)"/>
        <path id="Shape" fill="#DCAA78" stroke="none" stroke-width="1" d="M 22.309 72.144 C 21.545 71.391 19.346 72.279 18.370 72.209 C 17.217 72.045 16.108 71.652 15.109 71.054 C 13.067 69.849 11.311 67.405 10.078 65.261 C 7.442 60.678 7.155 54.809 11.180 49.237 C 15.205 43.665 19.054 44.618 19.376 44.483 L 19.220 36.837 C 16.704 37.204 14.249 37.339 11.839 38.534 C 9.791 39.538 -1.791 45.246 0.553 57.796 C 1.711 63.996 4.357 69.769 9.016 73.489 C 10.445 74.629 13.459 75.331 14.551 76.742 C 15.935 78.539 14.375 80.497 15.215 82.565 C 16.191 79.809 16.483 78.087 17.660 75.447 C 18.279 74.056 18.667 73.720 20.030 73.439 C 20.629 73.293 23.769 73.574 22.309 72.144 Z " transform="matrix(1, 0, 0, 1, 0, 0.75)"/>
        <g id="Group">
          <path id="Shape" fill="#008264" stroke="none" stroke-width="1" d="M 43.946 11.823 C 43.597 9.240 43.407 6.638 43.377 4.032 C 43.342 3.595 43.312 1.678 43.282 1.306 L 23.096 1.306 L 15.438 19.379 L 19.226 29.705 L 23.075 36.040 L 42.557 35.277 C 41.506 30.674 38.623 19.213 36.736 11.738 L 43.946 11.823 Z " transform="matrix(1, 0, 0, 1, 17, 34.75)"/>
          <path id="Rectangle-path" fill="#F01446" stroke="none" stroke-width="1" d="M 40.756 0.383 L 45.440 0.383 L 45.440 12.566 L 40.756 12.566 L 40.756 0.383 Z " transform="matrix(1, 0, 0, 1, 17, 34.75)"/>
          <path id="Shape" fill="#00A08C" stroke="none" stroke-width="1" d="M 1.325 1.301 C 1.249 2.406 1.118 5.026 1.204 6.136 C 1.281 7.060 1.308 7.989 1.284 8.917 C 1.284 9.589 1.164 10.764 1.601 11.291 C 2.069 11.336 4.696 11.392 8.424 11.452 C 6.502 18.626 3.584 29.569 1.682 36.853 L 23.096 36.045 L 23.096 1.306 L 1.325 1.301 Z " transform="matrix(1, 0, 0, 1, 17, 34.75)"/>
          <path id="Rectangle-path" fill="#F01446" stroke="none" stroke-width="1" d="M 0.142 0.383 L 4.826 0.383 L 4.826 12.566 L 0.142 12.566 L 0.142 0.383 Z " transform="matrix(1, 0, 0, 1, 17, 34.75)"/>
          <path id="Shape" fill="#00A08C" stroke="none" stroke-width="1" d="M 32.424 7.350 C 33.536 8.385 34.230 9.740 34.260 10.182 C 34.406 11.228 34.183 12.292 33.631 13.194 C 32.977 14.138 31.955 14.764 30.815 14.919 C 29.675 15.073 28.522 14.742 27.639 14.007 C 23.252 10.503 28.374 4.343 32.424 7.350 Z " transform="matrix(1, 0, 0, 1, 17, 34.75)"/>
        </g>
      </g>
    </g>
  </g>
</svg>