<?xml version="1.0" encoding="utf-8"?>
<!-- Generator: Adobe Illustrator 18.0.0, SVG Export Plug-In . SVG Version: 6.00 Build 0)  -->
<!DOCTYPE svg PUBLIC "-//W3C//DTD SVG 1.1//EN" "http://www.w3.org/Graphics/SVG/1.1/DTD/svg11.dtd">
<svg version="1.1" id="Layer_2" xmlns="http://www.w3.org/2000/svg" xmlns:xlink="http://www.w3.org/1999/xlink" x="0px" y="0px"
	 viewBox="0 0 40.4 49.4" enable-background="new 0 0 40.4 49.4" xml:space="preserve">
<g>
	<path fill="#41A2F2" d="M39,48.9c-2.2,0.1-4.5,0.3-6.7,0.4c-1.5,0-3,0-4.6,0c-1,0-2.1,0-3.1,0.1c-0.6,0.1-0.7-0.1-0.7-0.7
		c0-0.8-0.1-1.6-0.1-2.4c0.9-0.1,1.9-0.2,2.8-0.4c1.1-0.3,1.1-0.6,0.7-1.6c-1.3-3.2-3.1-6-4.9-8.9c-1.1-1.8-1.9-3.6-2.9-5.4
		c-0.1-0.2-0.2-0.3-0.4-0.6c-0.3,0.6-0.6,1.1-0.9,1.7c-1.6,2.9-3.1,5.7-4.7,8.6c-0.7,1.3-1.6,2.5-2.4,3.8c-0.2,0.4-0.4,0.8-0.6,1.2
		c-0.3,0.8-0.1,1.1,0.7,1.2c1.2,0.1,2.5,0.3,3.7,0.3c0.8,0.1,0.9,0.2,0.8,1c-0.4,1.8-0.4,1.9-2.1,2c-1.9,0.1-3.8,0-5.7,0
		c-2.5,0-5,0-7.5,0.1c-0.5,0-0.7-0.1-0.6-0.6c0.1-0.7,0.2-1.4,0.2-2.3c0.6-0.1,1.3-0.2,2-0.2c3.1-0.2,5-2.2,6.3-4.7
		c1.6-3,3.1-6,4.7-9c1.1-2.1,2.3-4.1,3.4-6.1c0.1-0.2,0-0.7-0.1-0.9c-1.3-2.4-2.7-4.8-4-7.3c-1.4-2.6-2.8-5.1-4.2-7.7
		C8,9.7,7.7,8.9,7.3,8.1c-0.7-1.4-1.4-2.8-2.4-4C4.5,3.6,3.4,3.5,2.6,3.3c-0.3-0.1-0.7,0-1.1,0c0-0.8,0-1.6,0-2.4
		c0-0.2,0.4-0.5,0.6-0.6C4.4,0.2,6.7,0,9,0c2.3,0,4.5,0.1,6.8,0.1c0.6,0,0.8,0.2,0.7,0.8c-0.1,0.5-0.1,1,0,1.4
		c0.1,0.6-0.1,0.8-0.7,0.8c-0.9,0.1-1.8,0.2-2.7,0.3c-1,0.2-1.3,0.5-0.8,1.4c1,1.9,1.9,3.8,3.1,5.5c1.4,1.9,2.2,4.1,3.4,6.1
		c0.5,0.9,1,1.9,1.6,3c0.6-1,1.2-1.9,1.7-2.8c1.5-2.7,2.9-5.3,4.3-8C27,7.7,27.7,6.9,28.2,6c0.3-0.4,0.4-0.9,0.5-1.4
		c0.1-0.7-0.5-0.9-1-1c-1.1-0.2-2.2-0.3-3.4-0.4c-0.7-0.1-0.9-0.3-1-1c-0.1-1.8-0.2-1.9,1.7-2c4.2-0.1,8.4-0.1,12.6-0.1
		c0.6,0,0.9,0.2,0.7,0.9c-0.1,0.7-0.1,1.3-0.2,2.1c-0.9,0.1-1.7,0.2-2.6,0.4c-1.8,0.3-3,1.3-3.8,3c-0.3,0.7-0.8,1.2-1.2,1.8
		c-0.6,1.1-1.2,2.2-1.8,3.3c-0.9,1.7-1.9,3.4-2.9,5.1c-0.6,1.1-1,2.2-1.6,3.3c-0.5,0.9-1,1.9-1.5,2.8c-0.3,0.5-0.3,0.8,0,1.3
		c1.2,2.1,2.5,4.2,3.6,6.3c1.1,2.1,2.1,4.2,3.3,6.3c1.6,2.8,3.3,5.7,5,8.4c0.8,1.3,2.2,1.6,3.7,1.3c1.5-0.3,1.4-0.3,1.7,1.1
		C40.5,49.1,40.5,48.9,39,48.9z"/>
</g>
</svg>
