<?xml version="1.0" encoding="utf-8"?>
<!-- Generator: Adobe Illustrator 18.0.0, SVG Export Plug-In . SVG Version: 6.00 Build 0)  -->
<!DOCTYPE svg PUBLIC "-//W3C//DTD SVG 1.1//EN" "http://www.w3.org/Graphics/SVG/1.1/DTD/svg11.dtd">
<svg version="1.1" id="Layer_2" xmlns="http://www.w3.org/2000/svg" xmlns:xlink="http://www.w3.org/1999/xlink" x="0px" y="0px"
	 viewBox="0 0 46.7 51.7" enable-background="new 0 0 46.7 51.7" xml:space="preserve">
<g>
	<path fill="#53AD4E" d="M45.1,24.6c-3.8,0.1-7.6,0.2-11.4,0.4c-0.9,0-2-0.1-2.8,0.7c-0.8,0.9-1.8,1.7-2.7,2.5c-1,0.9-1.8,1.8-1,3.2
		c0,0,0,0.1,0,0.2c0,0.7,0.4,0.8,1,0.8c1.1-0.1,2.3-0.1,3.4-0.2c1,0,1.7,0.4,1.8,1.3c0.2,2,0.3,3.9,0.3,5.9c0,1.2-0.6,2.3-1.7,2.9
		c-2.6,1.4-5.5,2.2-8.5,1.6c-3.8-0.8-6.3-3.4-8.2-6.5c-1.3-2-2-4.4-2.8-6.8c-1-3.2-1.1-6.6-0.7-9.9c0.4-2.9,0.8-5.9,2.8-8.3
		c1.7-2,3.4-4,6.1-4.8c3.9-1.3,8.5-0.3,11,3.5c0.7,1,1.1,2.1,1.7,3.2c0.1,0.2,0.5,0.4,0.8,0.4c1,0,2,0,3-0.1c0.3,0,0.6-0.2,0.8-0.4
		c0.8-0.7,1.4-1.5,2.2-2.2c0.6-0.5,0.9-1.1,0.9-1.9c-0.1-3.1-0.1-6.3-0.2-9.5c0-0.2-0.3-0.5-0.4-0.5c-1.4,0-2.8-0.3-4.1,0.5
		c-1,0.6-1.9,0.5-3,0.3c-1.8-0.4-3.7-0.8-5.5-0.8c-1.5-0.1-3,0.3-4.5,0.6c-2.8,0.5-5.6,1.2-8,2.9C12.7,5.2,10.1,7,7.7,8.9
		c-2.6,1.9-4.3,4.6-5.7,7.3C0.5,18.9,0,21.8,0,23.9c-0.2,4.8,0.9,8.4,2.1,12c1.1,3.2,3.1,5.9,5.1,8.6c1.4,1.9,3,3.5,5.3,4.2
		c0.3,0.1,0.7,0.3,1,0.5c1.1,0.5,2.1,1.1,3.3,1.5c1.5,0.4,3.2,0.6,4.7,0.8c3.2,0.5,6.4,0,9.4-0.9c4.5-1.3,7.7-4.6,11-7.8
		c0.5-0.5,1-1.4,1-2.1c0.1-1.8,0.1-3.5,0-5.3c-0.1-1.6-0.3-3.2-0.2-4.8c0-1.5,0.8-3.1,3-3c0.7,0,0.9-0.3,1-1
		C46.9,24.8,46.8,24.6,45.1,24.6z M39.6,10.9c0.1,0,0.2,0.1,0.4,0.2c-0.9,0.9-1.7,2-2.7,2.6c-0.7,0.4-1.8,0.2-2.7,0.3l-0.1-0.2
		c0.7-0.6,1.5-1.2,2-1.9C37.4,10.6,38.5,10.8,39.6,10.9z M37,1c0.1,0.4,0.1,0.7,0.2,1.2c-0.7-0.3-1.1-0.5-1.8-0.8
		C36.1,1.3,36.5,1.2,37,1z M23.9,4.2c3.3-1,6.5-0.7,9.7,0.5c2.3,0.9,3.5,2.7,4,5.1c0,0.2-0.1,0.5-0.3,0.6c-1.1,1-2.3,1.9-3.5,3
		c-3.3-6.5-8.3-8.5-15.2-6C20.1,5.8,21.9,4.8,23.9,4.2z M31.9,43c1.5-0.8,2.2-2,2.3-3.7c0.2-2,0.2-3.9-0.2-5.9
		c-0.4-1.7-1.1-2.2-2.8-2c-0.8,0.1-1.7,0.2-2.5,0.3c0-0.1-0.1-0.1-0.1-0.2c1.3-1.2,2.5-2.4,3.9-3.4c1.3-0.9,3.5,0.4,3.4,2
		c0,3.1-0.1,6.3-0.2,9.4c0,1.3-0.6,2.5-1.8,3.1c-1,0.5-2.1,0.9-3.2,1.3c0-0.1-0.1-0.2-0.1-0.2C31.1,43.4,31.5,43.2,31.9,43z
		 M30.6,50c-2.4,0.7-4.8,1.1-7.3,1c-2.7-0.2-5.4-0.7-8-1.7c-1.4-0.6-2.8-1.2-4.1-2.1c-1.1-0.7-2.2-1.6-3-2.6
		c-1.8-2.3-3.6-4.7-4.9-7.4c-1.3-2.9-2-5.9-2.4-9c-0.4-2.7-0.3-5.4,0.3-8c0.2-0.9,0.5-1.8,0.9-2.6c1-2.2,2.1-4.2,3.6-6
		c0.9-1.1,2-2,3.2-2.9c-1.7,2.1-2.8,4.4-3.7,6.8C4.6,17.2,4.1,19,4,20.7c-0.2,4.1,0.4,8.1,1.7,12c1.2,3.7,3.3,6.8,6.1,9.2
		c3.3,2.9,7.1,5.3,11.6,6.1c3.2,0.5,6.4,0.3,9.5-0.5c1.3-0.3,2.6-0.8,3.9-1.1C35,47.8,33,49.4,30.6,50z"/>
	<path fill="#FFFFFF" d="M37.2,2.2c-0.7-0.3-1.1-0.5-1.8-0.8C36.1,1.3,36.5,1.2,37,1C37.1,1.4,37.2,1.7,37.2,2.2z"/>
	<path fill="#FFFFFF" d="M40,11.1c-0.9,0.9-1.7,2-2.7,2.6c-0.7,0.4-1.8,0.2-2.7,0.3l-0.1-0.2c0.7-0.6,1.5-1.2,2-1.9
		c0.8-1.2,1.9-1.1,3.1-0.9C39.7,10.9,39.8,11,40,11.1z"/>
	<path fill="#FFFFFF" d="M37.6,9.8c0,0.2-0.1,0.5-0.3,0.6c-1.1,1-2.3,1.9-3.5,3c-3.3-6.5-8.3-8.5-15.2-6c1.5-1.6,3.3-2.6,5.4-3.2
		c3.3-1,6.5-0.7,9.7,0.5C35.9,5.6,37.2,7.4,37.6,9.8z"/>
	<path fill="#FFFFFF" d="M35.9,30.1c0,3.1-0.1,6.3-0.2,9.4c0,1.3-0.6,2.5-1.8,3.1c-1,0.5-2.1,0.9-3.2,1.3c0-0.1-0.1-0.2-0.1-0.2
		c0.4-0.2,0.8-0.4,1.2-0.6c1.5-0.8,2.2-2,2.3-3.7c0.2-2,0.2-3.9-0.2-5.9c-0.4-1.7-1.1-2.2-2.8-2c-0.8,0.1-1.7,0.2-2.5,0.3
		c0-0.1-0.1-0.1-0.1-0.2c1.3-1.2,2.5-2.4,3.9-3.4C33.8,27.2,35.9,28.5,35.9,30.1z"/>
	<path fill="#FFFFFF" d="M36.9,46.3c-2,1.5-3.9,3.1-6.4,3.7c-2.4,0.7-4.8,1.1-7.3,1c-2.7-0.2-5.4-0.7-8-1.7
		c-1.4-0.6-2.8-1.2-4.1-2.1c-1.1-0.7-2.2-1.6-3-2.6c-1.8-2.3-3.6-4.7-4.9-7.4c-1.3-2.9-2-5.9-2.4-9c-0.4-2.7-0.3-5.4,0.3-8
		c0.2-0.9,0.5-1.8,0.9-2.6c1-2.2,2.1-4.2,3.6-6c0.9-1.1,2-2,3.2-2.9c-1.7,2.1-2.8,4.4-3.7,6.8C4.6,17.2,4.1,19,4,20.7
		c-0.2,4.1,0.4,8.1,1.7,12c1.2,3.7,3.3,6.8,6.1,9.2c3.3,2.9,7.1,5.3,11.6,6.1c3.2,0.5,6.4,0.3,9.5-0.5
		C34.3,47.1,35.6,46.7,36.9,46.3z"/>
</g>
</svg>
