<?xml version="1.0" encoding="utf-8"?>
<!-- Generator: Adobe Illustrator 18.0.0, SVG Export Plug-In . SVG Version: 6.00 Build 0)  -->
<!DOCTYPE svg PUBLIC "-//W3C//DTD SVG 1.1//EN" "http://www.w3.org/Graphics/SVG/1.1/DTD/svg11.dtd">
<svg version="1.1" id="Layer_2" xmlns="http://www.w3.org/2000/svg" xmlns:xlink="http://www.w3.org/1999/xlink" x="0px" y="0px"
	 viewBox="0 0 48.4 52.7" enable-background="new 0 0 48.4 52.7" xml:space="preserve">
<g>
	<path fill="#F7941E" d="M45.4,45.1c-2.3-0.4-4.3-1.4-6.1-3c-2-1.8-3.9-3.8-5.9-5.6c-0.8-0.7-1.6-1.3-2.4-2.1
		c-3.3-3.3-6.5-6.7-9.8-10.1c-0.4-0.4-0.3-0.5,0.1-0.9c1-0.9,1.9-1.8,2.9-2.8c1.1-1.1,2.1-2.2,3.2-3.3c0.7-0.7,1.6-1.2,2.4-1.8
		c0.7-0.5,1.4-1.1,2-1.7c1.9-2.1,3.8-4.3,5.7-6.4c0.4-0.4,0.8-0.9,1.3-1.2c0.9-0.7,1.8-1.3,2.7-1.9c0.8-0.5,1.6-1,2.4-1.2
		c1-0.2,1.4-0.7,1.3-1.7c0-0.1,0-0.3,0-0.4c0.1-0.5-0.1-0.8-0.7-0.8c-0.8,0-1.6-0.2-2.4-0.2c-3.5,0.2-7,0.5-10.5,0.8
		c-0.2,0-0.3,0.1-0.5,0.2c-1.2,0.8-2.5,1.5-3.8,2.3c-0.5,0.3-0.8,1.4-0.5,2c0.3,0.7,0.8,0.4,1.3,0.3c0.5-0.1,1-0.1,1.7-0.2
		c-0.2,0.4-0.3,0.5-0.4,0.6C28.7,6.7,28,7.3,27.3,8c-1.2,1.1-2.4,2.3-3.6,3.4c-0.4,0.4-0.8,0.8-1.2,1.3c-1.5,1.8-3,3.7-4.5,5.5
		c-0.4,0.5-0.9,0.9-1.3,1.3c-0.1,0-0.2-0.1-0.2-0.1c0-1.4,0-2.8,0-4.1c0-3.1,0-6.2-0.1-9.3c0-1.8,0.7-2.7,2.5-2.7c0.3,0,0.5,0,0.8,0
		c0.6,0,0.8-0.2,0.9-0.8c0-0.3,0-0.6,0-0.9c0-0.5-0.2-0.6-0.7-0.6c-0.7,0-1.4-0.1-2.1-0.1c-4-0.1-8-0.2-12-0.2
		c-0.5,0-1.1,0.2-1.5,0.5c-1,0.8-1.8,1.7-2.7,2.6C0.7,4.7-0.3,5.5,0.1,7c0.1,0.5,0.3,0.8,0.8,0.8c0.9,0,1.7,0.1,2.6,0.1
		c2,0.1,2,0.5,2.1,2.2c0.1,2,0.1,3.9,0.1,5.9c0,4.1-0.1,8.2-0.1,12.2c0,5.1-0.1,10.1,0,15.2c0,1.7-0.4,2.8-1.7,3.9
		c-1.2,1.1-2.4,2.3-2.2,4.2c0.1,0.8,0.3,1,1.1,1c0.9-0.1,1.9-0.2,2.8-0.1c3.1,0.1,6.2,0.2,9.4,0.3c0.8,0,1.6,0.1,1.9-0.9
		c0-0.1,0.2-0.1,0.2-0.2c1-1.4,2.2-2.6,2.9-4.2c0.6-1.6,0.5-1.6-1.2-1.5c-1.5,0.1-2.3-0.4-2.3-1.9c0-2.4,0-4.7,0-7.1
		c0-0.1,0.1-0.1,0.1-0.1c0.9,1,1.7,2,2.6,2.9c1.1,1.1,2.2,2.1,3.4,3.2c1.2,1.2,2.3,2.5,3.7,3.6c3.1,2.6,6.7,4.5,10.8,5.1
		c1.1,0.2,2.2,0.1,3.3,0.3c1.6,0.3,2.8-0.5,4-1.2c1.1-0.7,2.1-1.5,3.1-2.4c0.7-0.7,0.8-1.5,1-2.4C47.3,45.5,46.4,45.3,45.4,45.1z
		 M46.5,47.3c-2.6,0-5-0.8-7.4-1.3c-0.8-0.2-1.5-0.4-2.3-0.6c-2-0.6-3.6-1.9-5.1-3.3c-1.5-1.4-2.9-2.9-4.4-4.3
		c-1.8-1.6-3.6-3.2-5.3-4.8c-0.3-0.3-0.6-0.7-0.9-1c-1.5-1.6-3.1-3.2-4.7-4.7c-0.1-0.1-0.3-0.2-0.6-0.3c0,0.5-0.1,0.8-0.1,1.2
		c0.5,4.4,0.1,8.8,0.1,13.2c0,0.9,0,1.7,0,2.6c0.1,1.7,1,2.4,2.7,2.4h1.2c-0.2,0.5-0.4,1-0.5,1.4H6.3c0-0.4-0.1-0.9-0.1-1.1
		c1.1-0.4,2.2-0.7,3.2-1.2c0.3-0.2,0.7-0.6,0.7-1c0-4.3,0-8.6,0-12.9c0-3.7-0.3-7.4-0.2-11.1c0.3-4.7,0-9.5,0-14.2
		c0-0.7-0.2-1.4-0.3-2C9.4,3.5,8.8,3.1,8,2.9C7.6,2.8,7.2,2.6,6.7,2.6c-0.8,0-1.1-0.5-0.9-1.3c4.7-0.5,9.4,0.3,14,0.2
		C20,2.4,20,2.5,19.2,2.4c-1.4,0-2.6,0.4-3.2,1.8c-0.1,0.3-0.2,0.7-0.2,1.1c0,3.3,0,6.6-0.1,9.9c0,2.1-0.1,4.3-0.1,6.4
		c0,1.5,0.2,1.6,1.5,0.9c1.1-0.6,2-1.4,2.8-2.3c1.5-1.8,3-3.5,4.5-5.2c0.4-0.4,0.8-0.8,1.2-1.2c0.8-0.8,1.6-1.5,2.3-2.3
		c1.6-1.5,3.1-3.1,4.7-4.7c0.8-0.9,1.7-1.7,2.5-2.6c0.5-0.5,0.3-1.2-0.3-1.4c-0.5-0.2-1-0.2-1.5-0.3c-0.4-0.1-0.8-0.1-1.2-0.1
		c0-0.4,0-0.7-0.1-1c4.2,0,8.3-1.1,12.5-0.3c0.2,0.7,0.1,1.1-0.8,1.3c-0.5,0.1-1,0.3-1.5,0.6c-1.9,1.1-3.8,2.2-5.3,3.8
		c-2,2.1-3.9,4.4-5.8,6.5c-0.3,0.3-0.6,0.6-0.9,0.9c-0.8,0.6-1.7,1.2-2.5,1.9c-1.5,1.2-3.1,2.5-4.2,4.1c-0.7,1-1.7,1.9-2.5,2.8
		c-0.7,0.8-0.7,1.1-0.1,1.9c0.6,0.8,1.1,1.5,1.8,2.2c3.5,3.5,6.9,7.1,10.5,10.5c1.9,1.9,3.9,3.7,6,5.4c1.8,1.5,3.9,2.5,6.3,2.8
		c0.7,0.1,1.4,0.3,2.1,0.4C47.5,47.3,47.5,47.3,46.5,47.3z"/>
	<path fill="#FFFFFF" d="M45.5,45.8c-2.4-0.3-4.5-1.3-6.3-2.8c-2.1-1.7-4-3.5-6-5.4c-3.5-3.5-7-7-10.5-10.5
		c-0.7-0.7-1.2-1.5-1.8-2.2c-0.6-0.8-0.6-1.2,0.1-1.9c0.9-0.9,1.8-1.8,2.5-2.8c1.2-1.7,2.7-2.9,4.2-4.1c0.8-0.6,1.7-1.2,2.5-1.9
		c0.3-0.3,0.6-0.6,0.9-0.9c1.9-2.2,3.8-4.4,5.8-6.5c1.5-1.6,3.5-2.7,5.3-3.8c0.4-0.3,0.9-0.5,1.5-0.6c0.8-0.2,0.9-0.6,0.8-1.3
		c-4.2-0.8-8.3,0.3-12.5,0.3c0,0.3,0,0.6,0.1,1c0.4,0,0.8,0.1,1.2,0.1c0.5,0.1,1,0.1,1.5,0.3c0.6,0.3,0.8,0.9,0.3,1.4
		c-0.8,0.9-1.7,1.8-2.5,2.6c-1.5,1.6-3.1,3.1-4.7,4.7c-0.8,0.8-1.5,1.6-2.3,2.3c-0.4,0.4-0.9,0.8-1.2,1.2c-1.5,1.7-3,3.4-4.5,5.2
		c-0.8,1-1.7,1.7-2.8,2.3c-1.3,0.7-1.5,0.6-1.5-0.9c0-2.1,0.1-4.2,0.1-6.4c0-3.3,0-6.6,0.1-9.9c0-0.4,0-0.7,0.2-1.1
		c0.6-1.4,1.7-1.9,3.2-1.8c0.8,0,0.9,0,0.7-0.9c-4.7,0-9.4-0.7-14-0.2c-0.2,0.8,0,1.2,0.9,1.3c0.4,0,0.9,0.2,1.3,0.3
		c0.8,0.2,1.4,0.6,1.5,1.4c0.1,0.7,0.3,1.3,0.3,2c0.1,4.7,0.3,9.5,0,14.2C9.7,24.3,10,27.9,10,31.6c0.1,4.3,0,8.6,0,12.9
		c0,0.3-0.4,0.8-0.7,1c-1,0.4-2,0.8-3.2,1.2c0,0.2,0.1,0.7,0.1,1.1h12.8c0.1-0.4,0.3-0.9,0.5-1.4h-1.2c-1.7,0-2.5-0.7-2.7-2.4
		c-0.1-0.9,0-1.7,0-2.6c0-4.4,0.4-8.8-0.1-13.2c0-0.3,0.1-0.7,0.1-1.2c0.3,0.1,0.5,0.2,0.6,0.3c1.6,1.6,3.1,3.1,4.7,4.7
		c0.3,0.3,0.6,0.7,0.9,1c1.8,1.6,3.6,3.2,5.3,4.8c1.5,1.4,2.9,2.9,4.4,4.3c1.5,1.4,3.1,2.7,5.1,3.3c0.8,0.2,1.5,0.4,2.3,0.6
		c2.5,0.5,4.9,1.3,7.4,1.3c1,0,1,0,1.1-1.1C46.9,46,46.2,45.9,45.5,45.8z M11.8,5.8c0.1,0,0.2,0,0.3,0c0.1,0.4,0.3,0.9,0.3,1.3
		c0.1,2.3,0,4.5,0.1,6.8c0,2.2,0.1,4.5,0.2,6.7c0,0.4,0,0.8-0.6,0.7C11.6,16.1,11.8,11,11.8,5.8z M12.9,42.3c0,0.2-0.1,0.5-0.1,0.7
		h-0.3c-0.1-0.9-0.1-1.8-0.2-2.7c0-3.5,0-7.1,0-10.6c0-0.5,0-1,0.1-1.4c0-0.1,0.3-0.2,0.4-0.4c0.1,0.2,0.3,0.3,0.3,0.5
		C13.1,33,13,37.7,12.9,42.3z M12.6,25.6c-0.4-0.5-0.7-0.7-0.8-1c-0.1-0.4,0.1-0.9,0.6-0.8c0.4,0.1,0.7,0.6,0.9,0.9
		C13.3,24.8,13,25.1,12.6,25.6z"/>
	<path fill="#F7941E" d="M12,21.3c-0.5-5.2-0.2-10.3-0.2-15.4c0.1,0,0.2,0,0.3,0c0.1,0.4,0.3,0.9,0.3,1.3c0.1,2.3,0,4.5,0.1,6.8
		c0,2.2,0.1,4.5,0.2,6.7C12.7,21,12.7,21.3,12,21.3z"/>
	<path fill="#F7941E" d="M13.2,28.4c-0.1,4.6-0.2,9.3-0.3,13.9c0,0.2-0.1,0.5-0.1,0.7h-0.3c-0.1-0.9-0.1-1.8-0.2-2.7
		c0-3.5,0-7.1,0-10.6c0-0.5,0-1,0.1-1.4c0-0.1,0.3-0.2,0.4-0.4C13,28.1,13.2,28.2,13.2,28.4z"/>
	<path fill="#F7941E" d="M13.3,24.7c0.1,0.1-0.3,0.4-0.6,0.9c-0.4-0.5-0.7-0.7-0.8-1c-0.1-0.4,0.1-0.9,0.6-0.8
		C12.8,23.9,13.1,24.3,13.3,24.7z"/>
</g>
</svg>
