<svg version="1.1" width="80" height="193" viewBox="-1 -1 80 193" xmlns="http://www.w3.org/2000/svg" xmlns:xlink="http://www.w3.org/1999/xlink">
  <!-- Exported by Scratch - http://scratch.mit.edu/ -->
  <g id="ID0.9591130423359573" transform="matrix(0.9024999737739563, 0, 0, 0.9024999737739563, -0.15, 0.25)">
    <path id="ID0.2957450137473643" fill="#00A3A6" d="M 201.600 102.400 C 190.900 136.400 199.100 204.500 201.600 216.400 C 204.100 228.300 210.700 247.100 241.600 248.400 C 252.200 248.800 274.600 242.800 280.800 214.500 C 287 186.300 281.500 115.400 279.600 105.800 C 277.700 96.200 268.200 73.700 240.800 73.700 C 216.500 73.800 205 91.600 201.600 102.400 Z " transform="matrix(0.9024999737739563, 0, 0, 0.9024999737739563, -176.6, -66.4)"/>
    <g id="ID0.922984919976443">
      <path id="ID0.32370807277038693" fill="#008994" d="M 237.400 201.500 C 217.500 189.900 205 200.200 201.300 215.200 C 201.400 215.700 201.500 216.100 201.600 216.500 C 204.100 228.400 210.700 247.200 241.600 248.500 C 252.200 248.900 274.600 242.900 280.800 214.600 C 281.700 210.600 282.300 205.800 282.800 200.400 C 271.800 186.400 246.300 188.700 237.400 201.500 Z " transform="matrix(0.9024999737739563, 0, 0, 0.9024999737739563, -176.6, -66.4)"/>
    </g>
    <path id="ID0.18004698818549514" fill="#00D9F9" d="M 209 110.600 C 209.828 110.600 210.578 110.936 211.121 111.479 C 211.664 112.022 212 112.772 212 113.600 C 212 114.428 211.664 115.178 211.121 115.721 C 210.578 116.264 209.828 116.600 209 116.600 C 208.172 116.600 207.422 116.264 206.879 115.721 C 206.336 115.178 206 114.428 206 113.600 C 206 112.772 206.336 112.022 206.879 111.479 C 207.422 110.936 208.172 110.600 209 110.600 Z " transform="matrix(0.9024999737739563, 0, 0, 0.9024999737739563, -176.6, -66.4)"/>
    <path id="ID0.3078068564645946" fill="#00D9F9" d="M 218.100 112.300 C 218.817 112.300 219.467 112.591 219.938 113.062 C 220.409 113.533 220.700 114.183 220.700 114.900 C 220.700 115.617 220.409 116.267 219.938 116.738 C 219.467 117.209 218.817 117.500 218.100 117.500 C 217.383 117.500 216.733 117.209 216.262 116.738 C 215.791 116.267 215.500 115.617 215.500 114.900 C 215.500 114.183 215.791 113.533 216.262 113.062 C 216.733 112.591 217.383 112.300 218.100 112.300 Z " transform="matrix(0.9024999737739563, 0, 0, 0.9024999737739563, -176.6, -66.4)"/>
    <path id="ID0.22948593366891146" fill="#00D9F9" d="M 212.300 117.900 C 213.072 117.900 213.772 118.214 214.279 118.721 C 214.786 119.228 215.100 119.928 215.100 120.700 C 215.100 121.472 214.786 122.172 214.279 122.679 C 213.772 123.186 213.072 123.500 212.300 123.500 C 211.528 123.500 210.828 123.186 210.321 122.679 C 209.814 122.172 209.500 121.472 209.500 120.700 C 209.500 119.928 209.814 119.228 210.321 118.721 C 210.828 118.214 211.528 117.900 212.300 117.900 Z " transform="matrix(0.9024999737739563, 0, 0, 0.9024999737739563, -176.6, -66.4)"/>
    <path id="ID0.4515280877240002" fill="#00D9F9" d="M 256.800 125.600 C 257.490 125.600 258.115 125.880 258.567 126.333 C 259.020 126.785 259.300 127.410 259.300 128.100 C 259.300 128.790 259.020 129.415 258.567 129.867 C 258.115 130.320 257.490 130.600 256.800 130.600 C 256.110 130.600 255.485 130.320 255.033 129.867 C 254.580 129.415 254.300 128.790 254.300 128.100 C 254.300 127.410 254.580 126.785 255.033 126.333 C 255.485 125.880 256.110 125.600 256.800 125.600 Z " transform="matrix(0.9024999737739563, 0, 0, 0.9024999737739563, -176.6, -66.4)"/>
    <path id="ID0.24154971493408084" fill="#00D9F9" d="M 265.600 128.600 C 266.317 128.600 266.967 128.891 267.438 129.362 C 267.909 129.833 268.200 130.483 268.200 131.200 C 268.200 131.917 267.909 132.567 267.438 133.038 C 266.967 133.509 266.317 133.800 265.600 133.800 C 264.883 133.800 264.233 133.509 263.762 133.038 C 263.291 132.567 263 131.917 263 131.200 C 263 130.483 263.291 129.833 263.762 129.362 C 264.233 128.891 264.883 128.600 265.600 128.600 Z " transform="matrix(0.9024999737739563, 0, 0, 0.9024999737739563, -176.6, -66.4)"/>
    <path id="ID0.20973603753373027" fill="#00D9F9" d="M 259.300 134.300 C 260.100 134.300 260.825 134.625 261.350 135.150 C 261.875 135.675 262.200 136.400 262.200 137.200 C 262.200 138 261.875 138.725 261.350 139.250 C 260.825 139.775 260.100 140.100 259.300 140.100 C 258.500 140.100 257.775 139.775 257.250 139.250 C 256.725 138.725 256.400 138 256.400 137.200 C 256.400 136.400 256.725 135.675 257.250 135.150 C 257.775 134.625 258.500 134.300 259.300 134.300 Z " transform="matrix(0.9024999737739563, 0, 0, 0.9024999737739563, -176.6, -66.4)"/>
    <path id="ID0.47503848001360893" fill="#00D9F9" d="M 231.500 157.700 C 232.217 157.700 232.867 157.991 233.338 158.462 C 233.809 158.933 234.100 159.583 234.100 160.300 C 234.100 161.017 233.809 161.667 233.338 162.138 C 232.867 162.609 232.217 162.900 231.500 162.900 C 230.783 162.900 230.133 162.609 229.662 162.138 C 229.191 161.667 228.900 161.017 228.900 160.300 C 228.900 159.583 229.191 158.933 229.662 158.462 C 230.133 157.991 230.783 157.700 231.500 157.700 Z " transform="matrix(0.9024999737739563, 0, 0, 0.9024999737739563, -176.6, -66.4)"/>
    <path id="ID0.9230392631143332" fill="#00D9F9" d="M 209 169.600 C 209.910 169.600 210.735 169.970 211.333 170.567 C 211.930 171.165 212.300 171.990 212.300 172.900 C 212.300 173.810 211.930 174.635 211.333 175.233 C 210.735 175.830 209.910 176.200 209 176.200 C 208.090 176.200 207.265 175.830 206.667 175.233 C 206.070 174.635 205.700 173.810 205.700 172.900 C 205.700 171.990 206.070 171.165 206.667 170.567 C 207.265 169.970 208.090 169.600 209 169.600 Z " transform="matrix(0.9024999737739563, 0, 0, 0.9024999737739563, -176.6, -66.4)"/>
    <path id="ID0.005155132617801428" fill="#00D9F9" d="M 216.100 175.600 C 216.872 175.600 217.572 175.914 218.079 176.421 C 218.586 176.928 218.900 177.628 218.900 178.400 C 218.900 179.172 218.586 179.872 218.079 180.379 C 217.572 180.886 216.872 181.200 216.100 181.200 C 215.328 181.200 214.628 180.886 214.121 180.379 C 213.614 179.872 213.300 179.172 213.300 178.400 C 213.300 177.628 213.614 176.928 214.121 176.421 C 214.628 175.914 215.328 175.600 216.100 175.600 Z " transform="matrix(0.9024999737739563, 0, 0, 0.9024999737739563, -176.6, -66.4)"/>
    <path id="ID0.678705814294517" fill="#00D9F9" d="M 265.300 80 C 266.210 80 267.035 80.370 267.633 80.967 C 268.230 81.565 268.600 82.390 268.600 83.300 C 268.600 84.210 268.230 85.035 267.633 85.633 C 267.035 86.230 266.210 86.600 265.300 86.600 C 264.390 86.600 263.565 86.230 262.967 85.633 C 262.370 85.035 262 84.210 262 83.300 C 262 82.390 262.370 81.565 262.967 80.967 C 263.565 80.370 264.390 80 265.300 80 Z " transform="matrix(0.9024999737739563, 0, 0, 0.9024999737739563, -176.6, -66.4)"/>
    <path id="ID0.3525572163052857" fill="#00D9F9" d="M 260.100 87.600 C 260.955 87.600 261.730 87.947 262.291 88.509 C 262.853 89.070 263.200 89.845 263.200 90.700 C 263.200 91.555 262.853 92.330 262.291 92.891 C 261.730 93.453 260.955 93.800 260.100 93.800 C 259.245 93.800 258.470 93.453 257.909 92.891 C 257.347 92.330 257 91.555 257 90.700 C 257 89.845 257.347 89.070 257.909 88.509 C 258.470 87.947 259.245 87.600 260.100 87.600 Z " transform="matrix(0.9024999737739563, 0, 0, 0.9024999737739563, -176.6, -66.4)"/>
    <path id="ID0.8604256007820368" fill="#00D9F9" d="M 267 92.900 C 267.993 92.900 268.893 93.303 269.545 93.955 C 270.197 94.607 270.600 95.507 270.600 96.500 C 270.600 97.493 270.197 98.393 269.545 99.045 C 268.893 99.697 267.993 100.100 267 100.100 C 266.007 100.100 265.107 99.697 264.455 99.045 C 263.803 98.393 263.400 97.493 263.400 96.500 C 263.400 95.507 263.803 94.607 264.455 93.955 C 265.107 93.303 266.007 92.900 267 92.900 Z " transform="matrix(0.9024999737739563, 0, 0, 0.9024999737739563, -176.6, -66.4)"/>
    <path id="ID0.9588575563393533" fill="#658542" d="M 229.800 136 C 229.800 136 229.800 136 229.800 136 C 229.200 136 228.800 135.500 228.800 135 C 229.500 119 234.100 102.100 234.200 101.900 C 234.300 101.400 234.900 101.100 235.400 101.200 C 235.900 101.300 236.200 101.900 236.100 102.400 C 236.100 102.600 231.500 119.300 230.800 135 C 230.800 135.600 230.300 136 229.800 136 Z " transform="matrix(0.9024999737739563, 0, 0, 0.9024999737739563, -176.6, -66.4)"/>
    <path id="ID0.945248682051897" fill="#658542" d="M 232.200 116.300 C 232 116.300 231.900 116.200 231.800 116.100 C 231.700 115.900 231.700 115.600 232 115.400 C 243.300 108.100 247.300 102.500 247.300 102.500 C 247.500 102.300 247.800 102.200 248 102.400 C 248.200 102.600 248.300 102.900 248.100 103.100 C 247.900 103.300 244 108.900 232.500 116.300 C 232.400 116.300 232.300 116.300 232.200 116.300 Z " transform="matrix(0.9024999737739563, 0, 0, 0.9024999737739563, -176.6, -66.4)"/>
    <path id="ID0.3258338291198015" fill="#658542" d="M 212.100 160.400 C 211.800 160.400 211.500 160.200 211.300 160 C 206.100 152.100 201.100 137.600 200.900 137 C 200.700 136.500 201 135.900 201.500 135.700 C 202 135.500 202.600 135.800 202.800 136.300 C 202.900 136.400 207.900 151.100 212.900 158.800 C 213.200 159.300 213.100 159.900 212.600 160.200 C 212.500 160.300 212.300 160.400 212.100 160.400 Z " transform="matrix(0.9024999737739563, 0, 0, 0.9024999737739563, -176.6, -66.4)"/>
    <path id="ID0.7034301301464438" fill="#658542" d="M 244.100 187.400 C 243.700 187.400 243.300 187.100 243.100 186.700 C 238.200 169.800 237.400 148.300 237.400 148.100 C 237.400 147.500 237.800 147.100 238.400 147.100 C 239 147.100 239.400 147.500 239.400 148.100 C 239.400 148.300 240.200 169.600 245 186.200 C 245.200 186.700 244.800 187.300 244.300 187.400 C 244.300 187.400 244.200 187.400 244.100 187.400 Z " transform="matrix(0.9024999737739563, 0, 0, 0.9024999737739563, -176.6, -66.4)"/>
    <path id="ID0.8296373700723052" fill="#658542" d="M 240.500 173.500 C 240.400 173.500 240.300 173.500 240.200 173.400 C 240 173.200 240 172.900 240.200 172.700 C 247.200 165 254.500 151.200 254.500 151.100 C 254.600 150.900 254.900 150.800 255.200 150.900 C 255.400 151 255.500 151.300 255.400 151.600 C 255.300 151.700 248 165.600 240.900 173.400 C 240.800 173.500 240.700 173.500 240.500 173.500 Z " transform="matrix(0.9024999737739563, 0, 0, 0.9024999737739563, -176.6, -66.4)"/>
    <path id="ID0.7922162716276944" fill="#597933" d="M 228.300 216.100 C 228.300 216.100 228.300 216.100 228.300 216.100 C 228 216.100 227.800 215.900 227.800 215.600 C 228.100 209.300 226.900 192 226.900 191.900 C 226.900 191.600 227.100 191.400 227.400 191.400 C 227.700 191.400 227.900 191.600 227.900 191.900 C 227.900 192.100 229.100 209.400 228.800 215.700 C 228.800 215.800 228.600 216.100 228.300 216.100 Z " transform="matrix(0.9024999737739563, 0, 0, 0.9024999737739563, -176.6, -66.4)"/>
    <path id="ID0.5057654464617372" fill="#597933" d="M 263 206.700 C 262.700 206.700 262.500 206.600 262.300 206.400 C 261.900 206 261.900 205.400 262.300 205 C 262.400 204.900 270.800 196.400 274.600 188.500 C 274.800 188 275.400 187.800 275.900 188 C 276.400 188.200 276.600 188.800 276.400 189.300 C 272.500 197.500 264.100 206 263.700 206.400 C 263.500 206.600 263.200 206.700 263 206.700 Z " transform="matrix(0.9024999737739563, 0, 0, 0.9024999737739563, -176.6, -66.4)"/>
    <path id="ID0.8078408031724393" fill="#668543" d="M 250.800 183.700 L 260.800 179.200 C 260.800 179.200 247.500 261.700 235.300 283.700 L 224.800 286.200 C 224.800 286.200 232.800 256.700 234.800 241.500 C 234.800 241.500 226.300 234.900 216.300 220 L 220.800 212.200 C 220.800 212.200 230.600 225 238 230.400 C 237.900 230.500 247.200 202.100 250.800 183.700 Z " transform="matrix(0.9024999737739563, 0, 0, 0.9024999737739563, -176.6, -66.4)"/>
    <path id="ID0.8219047002494335" fill="#6F7138" d="M 217.200 218.300 C 220.800 223 226.300 229.100 226.400 229.200 C 226.500 229.300 226.600 229.300 226.700 229.300 C 226.800 229.300 226.900 229.300 227 229.200 C 227.200 229.100 227.200 228.800 227 228.700 C 226.900 228.600 221.200 222.300 217.700 217.600 L 217.200 218.300 Z " transform="matrix(0.9024999737739563, 0, 0, 0.9024999737739563, -176.6, -66.4)"/>
    <path id="ID0.8072443180717528" fill="#6F7138" d="M 235.600 234.300 C 235.700 234.300 235.800 234.200 235.900 234.200 C 236 234 236 233.800 235.800 233.700 C 235.700 233.600 227 226.800 219.200 214.800 L 218.800 215.500 C 226.600 227.400 235.300 234.200 235.400 234.200 C 235.400 234.300 235.500 234.300 235.600 234.300 Z " transform="matrix(0.9024999737739563, 0, 0, 0.9024999737739563, -176.6, -66.4)"/>
    <path id="ID0.25279558496549726" fill="#6F7138" d="M 229.700 280.300 C 229.700 280.300 229.600 280.300 229.600 280.300 C 229.400 280.200 229.300 280 229.400 279.800 C 232.700 269.200 238.500 240.700 238.600 240.400 C 238.600 240.200 238.800 240.100 239 240.100 C 239.200 240.100 239.300 240.300 239.300 240.500 C 239.200 240.800 233.400 269.300 230.100 280 C 230 280.200 229.900 280.300 229.700 280.300 Z " transform="matrix(0.9024999737739563, 0, 0, 0.9024999737739563, -176.6, -66.4)"/>
    <path id="ID0.18496010545641184" fill="#6F7138" d="M 235.900 270.800 C 235.900 270.800 235.800 270.800 235.800 270.800 C 235.600 270.700 235.500 270.500 235.600 270.300 C 240.100 256.100 244.200 239.700 244.200 239.500 C 244.200 239.300 244.400 239.200 244.700 239.200 C 244.900 239.200 245 239.500 245 239.700 C 245 239.900 240.900 256.400 236.400 270.600 C 236.200 270.700 236.100 270.800 235.900 270.800 Z " transform="matrix(0.9024999737739563, 0, 0, 0.9024999737739563, -176.6, -66.4)"/>
    <path id="ID0.555535904597491" fill="#6F7138" d="M 234.500 274.900 C 234.300 274.900 234.100 275 234 275.200 C 233.300 278 231.900 282.100 230.900 284.700 L 231.800 284.500 C 232.700 281.900 234.100 278 234.700 275.400 C 234.800 275.200 234.700 275 234.500 274.900 Z " transform="matrix(0.9024999737739563, 0, 0, 0.9024999737739563, -176.6, -66.4)"/>
    <path id="ID0.8258884754031897" fill="#6F7138" d="M 242.100 237 C 242.100 237 242.100 237 242.100 237 C 241.800 236.900 241.700 236.700 241.700 236.500 C 246.700 218.600 248.800 200.600 248.900 200.500 C 248.900 200.300 249.100 200.200 249.300 200.200 C 249.500 200.200 249.700 200.400 249.600 200.600 C 249.600 200.800 247.400 218.800 242.400 236.700 C 242.400 236.900 242.300 237 242.100 237 Z " transform="matrix(0.9024999737739563, 0, 0, 0.9024999737739563, -176.6, -66.4)"/>
    <path id="ID0.8793840720318258" fill="#6F7138" d="M 252 196.700 C 252 196.700 252 196.700 252 196.700 C 252.200 196.700 252.400 196.600 252.400 196.400 C 252.400 196.300 253.500 189.100 254 182.300 L 253.200 182.700 C 252.700 189.300 251.700 196.200 251.700 196.300 C 251.600 196.500 251.800 196.700 252 196.700 Z " transform="matrix(0.9024999737739563, 0, 0, 0.9024999737739563, -176.6, -66.4)"/>
    <path id="ID0.7857774524018168" fill="#6F7138" d="M 250.500 216.700 C 250.700 216.700 250.800 216.600 250.900 216.400 C 250.900 216.200 254.700 196.500 256.600 181.200 L 255.800 181.600 C 253.900 196.800 250.300 216.100 250.200 216.300 C 250.100 216.400 250.200 216.600 250.500 216.700 C 250.400 216.700 250.500 216.700 250.500 216.700 Z " transform="matrix(0.9024999737739563, 0, 0, 0.9024999737739563, -176.6, -66.4)"/>
  </g>
</svg>