<svg version="1.1" width="105" height="166" viewBox="-1 -1 105 166" xmlns="http://www.w3.org/2000/svg" xmlns:xlink="http://www.w3.org/1999/xlink">
  <!-- Exported by Scratch - http://scratch.mit.edu/ -->
  <g id="ID0.8703301670029759" transform="matrix(1, 0, 0, 1, 0.75, 0)">
    <g id="Page-1">
      <g id="batter-a-[baseball,sports,people,alex-eben-meyer]">
        <g id="Left-Leg">
          <path id="Shape" fill="#BE0A3C" stroke="none" stroke-width="1" d="M 29.893 39.845 C 28.447 40.114 14.639 39.315 14.639 39.315 C 14.639 39.315 20.814 24.047 22.665 19.443 C 24.586 14.672 26.573 9.900 28.685 5.219 C 31.065 4.944 52.221 0.626 53.619 0.913 C 54.006 1.807 33.231 33.154 29.893 39.845 Z " transform="matrix(1, 0, 0, 1, 0, 94)"/>
          <path id="Shape" fill="#6E1E3C" stroke="none" stroke-width="1" d="M 5.569 67.575 L 0.381 67.575 L 0 68.201 C 3.528 69.394 8.858 68.589 12.565 68.523 C 15.153 65.249 28.110 42.968 28.110 42.968 L 13.017 42.968 C 12.910 43.582 6.110 63.979 5.569 67.575 Z " transform="matrix(1, 0, 0, 1, 0, 94)"/>
          <path id="Shape" fill="#F0E6D2" stroke="none" stroke-width="1" d="M 15.474 35.141 C 14.522 37.079 12.499 42.650 12.701 43.562 L 29.514 44.105 L 33.518 35.940 L 15.474 35.141 Z " transform="matrix(1, 0, 0, 1, 0, 94)"/>
          <path id="Shape" fill="#F0E6D2" stroke="none" stroke-width="1" d="M 28.589 45.903 L 11.931 45.903 C 11.854 46.314 11.789 46.720 11.711 47.131 L 28.066 47.131 C 28.217 46.712 28.392 46.302 28.589 45.903 Z " transform="matrix(1, 0, 0, 1, 0, 94)"/>
        </g>
        <g id="Right-Leg">
          <path id="Shape" fill="#F01446" stroke="none" stroke-width="1" d="M 26.018 7.260 C 26.018 7.260 25.750 1.236 25.614 0.998 C 23.900 0.592 0.989 1.922 0.989 1.922 C 0.989 1.922 3.155 16.134 3.488 20.082 C 4.012 26.267 5.814 35.547 9.533 40.735 L 25.834 40.139 C 25.834 40.139 24.001 29.929 24.263 22.539 C 24.416 17.406 25.004 12.294 26.018 7.260 Z " transform="matrix(1, 0, 0, 1, 40, 93)"/>
          <path id="Shape" fill="#6E1E3C" stroke="none" stroke-width="1" d="M 36.943 69.822 C 36.146 65.707 33.671 61.508 32.327 57.506 C 30.911 53.302 29.132 49.294 28.073 44.946 L 9.773 44.946 C 12.997 49.425 17.180 55.222 19.887 58.299 C 23.522 62.421 28.769 65.897 31.785 70.454 C 30.516 70.611 29.236 70.655 27.960 70.585 L 27.740 71.009 C 28.370 72.124 36.170 71.533 37.419 71.074 C 37.227 70.670 37.068 70.251 36.943 69.822 Z " transform="matrix(1, 0, 0, 1, 40, 93)"/>
          <path id="Shape" fill="#F0E6D2" stroke="none" stroke-width="1" d="M 27.358 37.233 L 5.869 37.119 C 6.684 39.687 7.849 42.130 9.332 44.378 C 9.825 44.455 29.059 44.419 29.059 44.419 C 29.059 44.419 27.530 38.587 27.358 37.233 Z " transform="matrix(1, 0, 0, 1, 40, 93)"/>
          <path id="Shape" fill="#F0E6D2" stroke="none" stroke-width="1" d="M 29.263 47.016 L 9.773 46.903 C 9.898 47.344 10.070 47.851 10.279 48.376 L 29.727 48.376 C 29.543 47.933 29.388 47.479 29.263 47.016 Z " transform="matrix(1, 0, 0, 1, 40, 93)"/>
          <path id="Shape" fill="#FFC800" stroke="none" stroke-width="1" d="M 18.692 40.263 C 17.721 40.365 16.742 40.365 15.771 40.263 C 13.766 36.238 14.807 7.462 16.169 2.887 C 16.854 2.929 19.221 2.851 19.888 2.887 C 20.036 4.939 18.620 13.622 18.293 22.240 C 18.108 28.251 18.242 34.267 18.692 40.263 Z " transform="matrix(1, 0, 0, 1, 40, 93)"/>
        </g>
        <g id="Right-Arm">
          <path id="Shape" fill="#824600" stroke="none" stroke-width="1" d="M 26.903 0.770 C 25.457 0.741 21.501 0.699 16.557 0.878 C 14.308 0.961 9.478 1.176 6.681 2.667 C 3.885 4.158 1.113 6.150 0.447 7.086 C 0.536 7.182 23.054 7.742 23.881 7.742 C 24.030 7.492 27.284 1.110 26.903 0.770 Z " transform="matrix(1, 0, 0, 1, 22, 56)"/>
          <path id="Shape" fill="#6E1E3C" stroke="none" stroke-width="1" d="M 22.559 0.814 C 22.559 0.814 18.989 10.100 18.989 11.221 C 20.679 11.299 40.704 14.030 42.328 13.899 L 48.873 0.779 C 48.391 0.683 22.559 0.814 22.559 0.814 Z " transform="matrix(1, 0, 0, 1, 22, 56)"/>
        </g>
        <g id="Bat">
          <path id="Shape" fill="#FFC800" stroke="none" stroke-width="1" d="M 84.866 2.687 C 82.724 0.898 81.207 -0.778 78.375 0.385 C 76.228 1.268 74.062 3.767 72.355 5.341 C 68.684 8.723 17.336 65.231 2.808 83.373 C 3.283 83.457 4.592 83.797 4.592 83.797 C 4.592 83.797 52.282 37.958 56.351 33.980 C 60.420 30.002 79.250 12.510 80.815 11.108 C 82.641 9.450 84.801 7.584 85.907 5.347 C 85.922 4.358 85.548 3.402 84.866 2.687 Z " transform="matrix(1, 0, 0, 1, 5, 0)"/>
          <path id="Shape" fill="#FFC800" stroke="none" stroke-width="1" d="M 0.931 81.643 C 1.740 79.198 4.982 79.090 5.875 79.335 C 6.440 79.490 9.397 80.528 9.736 81.774 C 10.075 83.021 9.665 84.834 7.904 86.122 C 6.143 87.410 0.116 84.082 0.931 81.643 Z " transform="matrix(1, 0, 0, 1, 5, 0)"/>
        </g>
        <g id="Hand">
          <path id="Shape" fill="#642800" stroke="none" stroke-width="1" d="M 15.036 1.614 C 15.036 1.614 18.480 2.407 17.362 4.596 C 16.243 6.785 14.387 8.771 12.043 7.846 C 9.699 6.922 13.745 2.324 15.036 1.614 Z " transform="matrix(1, 0, 0, 1, 16, 61)"/>
          <path id="Shape" fill="#824600" stroke="none" stroke-width="1" d="M 3.643 12.542 C 2.615 12.494 1.673 11.954 1.111 11.090 C 0.549 10.226 0.435 9.144 0.805 8.182 C 1.680 5.582 5.791 2.010 6.427 1.574 C 8.165 0.381 11.419 0.381 13.323 1.258 C 17.344 3.047 12.728 9.292 10.598 10.120 C 8.590 11.638 6.157 12.485 3.643 12.542 Z " transform="matrix(1, 0, 0, 1, 16, 61)"/>
          <path id="Shape" fill="#642800" stroke="none" stroke-width="1" d="M 16.318 3.037 C 16.318 3.037 11 1.611 10.405 3.866 C 9.810 6.120 14.272 6.126 15.081 6.359 C 15.890 6.591 17.907 5.112 16.318 3.037 Z " transform="matrix(1, 0, 0, 1, 16, 61)"/>
        </g>
        <path id="Shape" fill="#BE0A3C" stroke="none" stroke-width="1" d="M 72.553 56.753 C 65.661 56.566 58.983 59.159 54.015 63.952 C 49.500 68.425 43.193 74.687 37.821 82.905 C 32.621 90.837 28.302 100.797 28.302 100.797 L 66.324 101.071 C 66.324 101.071 72.119 87.354 73.838 82.201 C 73.023 80.740 72.553 56.753 72.553 56.753 Z "/>
        <g id="Belt">
          <path id="Shape" fill="#6E1E3C" stroke="none" stroke-width="1" d="M 43.209 6.776 L 0.374 6.776 L 2.159 1.856 L 44.399 1.856 L 43.209 6.776 " transform="matrix(1, 0, 0, 1, 25, 95)"/>
          <path id="Rectangle-path" fill="#F01446" stroke="none" stroke-width="1" d="M 20.869 0.877 L 24.123 0.877 L 24.123 7.754 L 20.869 7.754 L 20.869 0.877 " transform="matrix(1, 0, 0, 1, 25, 95)"/>
          <path id="Rectangle-path" fill="#F01446" stroke="none" stroke-width="1" d="M 7.206 0.877 L 10.460 0.877 L 10.460 7.754 L 7.206 7.754 L 7.206 0.877 " transform="matrix(1, 0, 0, 1, 25, 95)"/>
          <path id="Rectangle-path" fill="#F01446" stroke="none" stroke-width="1" d="M 35.508 0.877 L 39.316 0.877 L 39.316 7.754 L 35.508 7.754 L 35.508 0.877 " transform="matrix(1, 0, 0, 1, 25, 95)"/>
        </g>
        <g id="Left-Arm-and-hand">
          <path id="Shape" fill="#824600" stroke="none" stroke-width="1" d="M 15.883 15.764 C 18.388 16.515 16.115 23.064 14.527 24.662 C 12.085 27.143 8.475 28.068 5.145 27.066 C 3.746 26.678 1.283 26.231 0.932 24.495 C -0.370 18.060 8.905 13.760 10.600 14.529 C 12.694 15.466 13.372 15.019 15.883 15.764 Z " transform="matrix(1, 0, 0, 1, 7, 56)"/>
          <path id="Shape" fill="#824600" stroke="none" stroke-width="1" d="M 60.807 5.636 L 47.510 16.603 L 26.872 17.295 C 26.872 17.295 25.087 23.110 25.212 24.100 C 28.996 25.036 66.732 24.994 66.732 24.994 L 60.807 5.636 Z " transform="matrix(1, 0, 0, 1, 7, 56)"/>
          <path id="Shape" fill="#F01446" stroke="none" stroke-width="1" d="M 28.297 16.422 C 25.542 16.392 20.562 16.374 17.195 16.458 L 13.495 25.153 C 18.254 25.332 27.261 25.750 28.297 25.815 L 28.297 16.422 Z " transform="matrix(1, 0, 0, 1, 7, 56)"/>
          <path id="Shape" fill="#F01446" stroke="none" stroke-width="1" d="M 65.650 0.744 C 70.255 2.533 73.563 5.515 73.057 10.811 C 72.426 17.371 66.911 26.174 66.911 26.174 L 51.556 13.429 C 51.556 13.429 60.694 4.131 65.650 0.744 Z " transform="matrix(1, 0, 0, 1, 7, 56)"/>
        </g>
        <g id="Head">
          <path id="Shape" fill="#000000" stroke="none" stroke-width="1" d="M 25.003 4.155 C 25.401 4.155 38.603 15.767 40.037 17.443 C 41.030 18.488 41.939 19.611 42.756 20.801 C 44.146 22.946 45.204 25.291 45.891 27.755 C 46.165 28.828 46.486 29.890 46.706 30.981 C 47.053 32.949 47.131 34.956 46.938 36.945 C 46.851 38.093 46.548 39.214 46.046 40.249 C 45.887 40.580 45.671 40.881 45.409 41.138 C 44.157 42.339 42.385 42.825 40.697 42.432 C 40.450 42.380 40.214 42.283 40.001 42.146 C 38.963 41.504 38.059 40.665 37.342 39.677 C 36.021 37.710 35.004 35.554 34.325 33.283 C 34.160 32.754 33.938 32.244 33.665 31.762 C 33.190 30.971 32.820 30.121 32.564 29.234 C 31.607 25.930 30.577 22.673 29.667 19.334 C 29.167 17.509 28.644 15.702 28.019 13.924 C 27.948 13.751 25.045 4.459 25.003 4.155 Z " transform="matrix(1, 0, 0, 1, 56, 34)"/>
          <path id="Shape" fill="#824600" stroke="none" stroke-width="1" d="M 27.162 0.242 L 0.604 0.689 C 0.694 1.041 0.955 5.234 1.068 5.657 C 1.529 7.183 2.163 8.650 2.960 10.029 C 3.551 11.054 4.232 12.024 4.995 12.927 C 5.548 13.613 6.262 14.168 6.845 14.836 C 7.360 15.417 7.977 15.899 8.666 16.255 C 9.848 16.862 11.107 17.305 12.408 17.573 C 14.011 17.841 15.639 17.931 17.262 17.842 C 17.632 17.839 17.998 17.772 18.345 17.645 C 19.731 17.255 21.092 16.781 22.420 16.225 C 23.676 15.629 26.323 13.243 27.311 12.128 C 27.132 11.979 27.251 0.302 27.162 0.242 Z " transform="matrix(1, 0, 0, 1, 56, 34)"/>
          <path id="Shape" fill="#642800" stroke="none" stroke-width="1" d="M 9.994 7.604 L 9.262 7.604 C 8.666 7.254 8.157 6.773 7.775 6.196 C 7.067 4.878 5.514 2.063 5.484 1.252 C 6.335 1.067 10.458 1.735 12.028 2.099 C 12.480 4.025 11.665 6.798 9.994 7.604 Z " transform="matrix(1, 0, 0, 1, 56, 34)"/>
          <path id="Shape" fill="#000000" stroke="none" stroke-width="1" d="M 14.268 9.643 L 17.278 9.047 C 17.994 9.091 18.680 9.351 19.247 9.793 C 17.986 10.985 16.731 11.194 14.381 10.568 C 14.351 10.329 14.309 10.013 14.268 9.643 Z " transform="matrix(1, 0, 0, 1, 56, 34)"/>
          <path id="Shape" fill="#000000" stroke="none" stroke-width="1" d="M 5.769 4.156 C 6.041 4.664 6.061 5.271 5.822 5.796 C 5.695 6.085 5.391 6.253 5.079 6.208 C 4.406 5.856 4.442 5.265 4.615 4.609 C 4.922 4.307 5.339 4.143 5.769 4.156 Z " transform="matrix(1, 0, 0, 1, 56, 34)"/>
          <path id="Shape" fill="#000000" stroke="none" stroke-width="1" d="M 15.244 6.458 C 15.236 5.971 15.410 5.499 15.732 5.134 L 16.440 5.414 C 16.666 6.010 16.404 6.332 15.940 6.654 L 15.244 6.458 Z " transform="matrix(1, 0, 0, 1, 56, 34)"/>
        </g>
        <g id="Hat">
          <path id="Shape" fill="#F01446" stroke="none" stroke-width="1" d="M 50.356 18.675 C 49.660 12.383 45.335 6.264 39.832 3.282 C 34.614 0.455 25.137 -0.297 19.699 2.041 C 14.618 4.206 9.157 11.327 9.716 17.637 C 11.001 18.645 24.744 21.263 33.103 22.855 C 33.519 22.933 31.699 27.984 38.457 31.205 C 39.881 31.780 41.456 31.862 42.931 31.437 C 44.626 30.964 46.181 30.086 47.464 28.879 C 49.862 26.279 50.731 22.104 50.356 18.675 Z " transform="matrix(1, 0, 0, 1, 44, 15)"/>
          <path id="Shape" fill="#BE0A3C" stroke="none" stroke-width="1" d="M 32.734 22.504 C 27.379 23.196 5.867 21.716 0.893 21.496 C 2.934 20.100 9.347 17.285 9.347 17.285 C 9.347 17.285 29.973 21.275 32.734 22.504 Z " transform="matrix(1, 0, 0, 1, 44, 15)"/>
          <path id="Shape" fill="#BE0A3C" stroke="none" stroke-width="1" d="M 25.837 11.424 C 27.395 17.579 16.514 18.408 16.508 12.110 C 16.502 6.754 25.474 5.490 25.837 11.424 Z " transform="matrix(1, 0, 0, 1, 44, 15)"/>
          <path id="Shape" fill="#6E1E3C" stroke="none" stroke-width="1" d="M 44.232 24.088 C 43.532 22.863 42.212 22.128 40.805 22.180 L 39.478 22.466 C 36.355 25.102 38.503 29.068 42.328 28.501 C 44.202 27.815 45.106 25.573 44.232 24.088 Z " transform="matrix(1, 0, 0, 1, 44, 15)"/>
        </g>
      </g>
    </g>
  </g>
</svg>