<svg version="1.1" width="280" height="115" viewBox="-1 -1 280 115" xmlns="http://www.w3.org/2000/svg" xmlns:xlink="http://www.w3.org/1999/xlink">
  <!-- Exported by Scratch - http://scratch.mit.edu/ -->
  <g id="ID0.3765560705214739">
    <g id="Page-1">
      <g id="Grasshopper-4Grasshopper-4">
        <g id="Group">
          <path id="Path" fill="#174832" stroke="none" stroke-width="1" d="M 140.554 18.750 L 125.727 30.300 L 37.468 30.700 C 23.993 30.750 11.070 25.300 1.703 15.600 L 0.701 14.550 C -0.100 13.700 -0.050 12.400 0.751 11.600 C 0.902 11.450 1.052 11.350 1.252 11.250 L 22.090 0.600 L 140.454 0.050 L 140.554 18.750 Z " transform="matrix(1, 0, 0, 1, 75.6, 41.5)"/>
          <g id="Path">
            <path id="ID0.6580324154347181" fill="none" stroke="#151B22" stroke-width="0.5" d="M 119.065 0.300 L 119.265 27.600 " transform="matrix(1, 0, 0, 1, 84.65, 41.5)"/>
            <path id="ID0.7212462415918708" fill="none" stroke="#151B22" stroke-width="0.5" d="M 107.143 0.350 L 107.344 30.200 " transform="matrix(1, 0, 0, 1, 84.65, 41.5)"/>
            <path id="ID0.031045252457261086" fill="none" stroke="#151B22" stroke-width="0.5" d="M 95.272 0.400 L 95.472 30.250 " transform="matrix(1, 0, 0, 1, 84.65, 41.5)"/>
            <path id="ID0.7547790934331715" fill="none" stroke="#151B22" stroke-width="0.5" d="M 83.401 0.450 L 83.601 30.300 " transform="matrix(1, 0, 0, 1, 84.65, 41.5)"/>
            <path id="ID0.7042694762349129" fill="none" stroke="#151B22" stroke-width="0.5" d="M 71.479 0.500 L 71.679 30.350 " transform="matrix(1, 0, 0, 1, 84.65, 41.5)"/>
            <path id="ID0.8891249769367278" fill="none" stroke="#151B22" stroke-width="0.5" d="M 59.608 0.550 L 59.808 30.400 " transform="matrix(1, 0, 0, 1, 84.65, 41.5)"/>
            <path id="ID0.829685918521136" fill="none" stroke="#151B22" stroke-width="0.5" d="M 47.736 0.600 L 47.937 30.450 " transform="matrix(1, 0, 0, 1, 84.65, 41.5)"/>
            <path id="ID0.18633352080360055" fill="none" stroke="#151B22" stroke-width="0.5" d="M 35.815 0.650 L 36.015 30.500 " transform="matrix(1, 0, 0, 1, 84.65, 41.5)"/>
            <path id="ID0.9663372193463147" fill="none" stroke="#151B22" stroke-width="0.5" d="M 23.943 0.700 L 24.144 30.550 " transform="matrix(1, 0, 0, 1, 84.65, 41.5)"/>
            <path id="ID0.8034687270410359" fill="none" stroke="#151B22" stroke-width="0.5" d="M 12.072 1.300 L 12.272 30.600 " transform="matrix(1, 0, 0, 1, 84.65, 41.5)"/>
            <path id="ID0.13198929047212005" fill="none" stroke="#151B22" stroke-width="0.5" d="M 0.150 7.350 L 0.351 21.650 " transform="matrix(1, 0, 0, 1, 84.65, 41.5)"/>
          </g>
        </g>
        <g id="Group">
          <path id="Path" fill="none" stroke="#151B22" stroke-width="1" stroke-linecap="round" d="M 42.176 0 L 17.081 42.450 L 57.003 15.100 " transform="matrix(1, 0, 0, 1, 220.85, 0.5)"/>
          <path id="Path" fill="#00C0A5" stroke="none" stroke-width="1" d="M 3.657 34.850 L 11.320 34.800 C 15.428 34.800 18.734 38.100 18.734 42.150 C 18.734 43.450 18.383 44.750 17.732 45.900 L 8.014 62.500 C 6.862 64.500 4.308 65.150 2.304 64 C 1.052 63.250 0.250 61.900 0.250 60.450 L 0.150 38.350 C 0.200 36.400 1.753 34.850 3.657 34.850 Z " transform="matrix(1, 0, 0, 1, 220.85, 0.5)"/>
          <path id="Path" fill="none" stroke="#174832" stroke-width="0.5" stroke-linecap="round" d="M 4.358 64.300 L 10.068 45.300 " transform="matrix(1, 0, 0, 1, 220.85, 0.5)"/>
          <path id="Oval" fill="#ECF135" stroke="none" stroke-width="1" d="M 10.669 37.100 C 12.176 37.100 13.541 37.711 14.529 38.697 C 15.517 39.684 16.129 41.046 16.129 42.550 C 16.129 44.054 15.517 45.416 14.529 46.403 C 13.541 47.389 12.176 48 10.669 48 C 9.163 48 7.798 47.389 6.810 46.403 C 5.821 45.416 5.209 44.054 5.209 42.550 C 5.209 41.046 5.821 39.684 6.810 38.697 C 7.798 37.711 9.163 37.100 10.669 37.100 Z " transform="matrix(1, 0, 0, 1, 220.85, 0.5)"/>
          <path id="Oval" fill="#151B22" stroke="none" stroke-width="1" d="M 10.669 39.200 C 11.595 39.200 12.434 39.575 13.042 40.182 C 13.649 40.788 14.025 41.626 14.025 42.550 C 14.025 43.474 13.649 44.312 13.042 44.918 C 12.434 45.525 11.595 45.900 10.669 45.900 C 9.743 45.900 8.904 45.525 8.297 44.918 C 7.689 44.312 7.313 43.474 7.313 42.550 C 7.313 41.626 7.689 40.788 8.297 40.182 C 8.904 39.575 9.743 39.200 10.669 39.200 Z " transform="matrix(1, 0, 0, 1, 220.85, 0.5)"/>
        </g>
        <g id="Group">
          <path id="Path" fill="none" stroke="#151B22" stroke-width="1.5" stroke-linecap="round" d="M 0.250 53 L 13.925 51.550 L 96.073 14.050 " transform="matrix(1, 0, 0, 1, 1, 56)"/>
          <path id="Path" fill="#ECF135" stroke="none" stroke-width="1" d="M 172.612 0.350 L 95.422 12 C 94.771 12.050 94.120 12.450 93.769 13 C 93.118 14.050 93.419 15.450 94.471 16.100 C 94.471 16.100 94.471 16.100 94.471 16.100 C 94.871 16.350 95.322 16.450 95.773 16.450 L 174.365 16 C 178.723 16 182.279 12.450 182.279 8.100 C 182.279 3.750 178.723 0.200 174.365 0.200 C 173.764 0.150 173.163 0.250 172.612 0.350 Z " transform="matrix(1, 0, 0, 1, 1, 56)"/>
        </g>
        <g id="Group">
          <path id="Path" fill="none" stroke="#151B22" stroke-width="1.5" stroke-linecap="round" d="M 0.351 41.500 L 15.428 39.800 L 58.856 6.450 " transform="matrix(1, 0, 0, 1, 97.15, 66.5)"/>
          <path id="Oval" fill="#151B22" stroke="none" stroke-width="1" d="M 59.257 3.300 C 59.879 3.300 60.442 3.552 60.850 3.959 C 61.258 4.367 61.511 4.929 61.511 5.550 C 61.511 6.171 61.258 6.733 60.850 7.141 C 60.442 7.548 59.879 7.800 59.257 7.800 C 58.635 7.800 58.072 7.548 57.664 7.141 C 57.255 6.733 57.003 6.171 57.003 5.550 C 57.003 4.929 57.255 4.367 57.664 3.959 C 58.072 3.552 58.635 3.300 59.257 3.300 Z " transform="matrix(1, 0, 0, 1, 97.15, 66.5)"/>
          <path id="Oval" fill="#151B22" stroke="none" stroke-width="1" d="M 103.687 0.300 C 105.069 0.300 106.321 0.860 107.228 1.765 C 108.135 2.671 108.696 3.921 108.696 5.300 C 108.696 6.679 108.135 7.929 107.228 8.835 C 106.321 9.740 105.069 10.300 103.687 10.300 C 102.305 10.300 101.053 9.740 100.146 8.835 C 99.239 7.929 98.678 6.679 98.678 5.300 C 98.678 3.921 99.239 2.671 100.146 1.765 C 101.053 0.860 102.305 0.300 103.687 0.300 Z " transform="matrix(1, 0, 0, 1, 97.15, 66.5)"/>
          <path id="Path" fill="none" stroke="#151B22" stroke-width="2.5" d="M 104.388 5.500 L 58.506 5.500 " transform="matrix(1, 0, 0, 1, 97.15, 66.5)"/>
        </g>
        <g id="Group">
          <path id="Path" fill="#00B694" stroke="none" stroke-width="1" d="M 116.761 0.100 L 3.607 0.600 C -0.601 0.600 -1.352 6.600 2.705 7.650 L 49.139 19.650 C 65.819 23.950 83.401 22.850 99.379 16.450 L 119.866 8.250 L 116.761 0.100 Z " transform="matrix(1, 0, 0, 1, 86.65, 41)"/>
          <g id="Path">
            <path id="ID0.21033304370939732" fill="none" stroke="#1B7E64" stroke-width="0.5" d="M 118.013 0.250 L 0.401 1 " transform="matrix(1, 0, 0, 1, 86.65, 44)"/>
            <path id="ID0.02290082862600684" fill="none" stroke="#1B7E64" stroke-width="0.5" d="M 113.555 7.750 L 19.435 8.500 " transform="matrix(1, 0, 0, 1, 86.65, 44)"/>
            <path id="ID0.03879817249253392" fill="none" stroke="#1B7E64" stroke-width="0.5" d="M 94.020 15.250 L 48.538 16 " transform="matrix(1, 0, 0, 1, 86.65, 44)"/>
          </g>
        </g>
        <g id="Group">
          <path id="Path" fill="#54923A" stroke="none" stroke-width="1" d="M 1.352 0.150 L 31.757 0 L 31.908 29.800 C 31.908 32.350 29.854 34.450 27.299 34.450 C 25.847 34.450 24.444 33.750 23.542 32.600 L 0.551 1.750 C 0.200 1.300 0.301 0.700 0.751 0.350 C 0.902 0.250 1.102 0.150 1.352 0.150 Z " transform="matrix(1, 0, 0, 1, 189.3, 39)"/>
          <g id="Oval">
            <path id="ID0.034939838107675314" fill="#174832" stroke="none" stroke-width="1" d="M 4.057 0.300 C 5.052 0.300 5.954 0.703 6.607 1.355 C 7.260 2.007 7.664 2.907 7.664 3.900 C 7.664 4.893 7.260 5.793 6.607 6.445 C 5.954 7.097 5.052 7.500 4.057 7.500 C 3.062 7.500 2.161 7.097 1.508 6.445 C 0.855 5.793 0.451 4.893 0.451 3.900 C 0.451 2.907 0.855 2.007 1.508 1.355 C 2.161 0.703 3.062 0.300 4.057 0.300 Z " transform="matrix(1, 0, 0, 1, 199.35, 41.5)"/>
            <path id="ID0.9827874787151814" fill="#174832" stroke="none" stroke-width="1" d="M 15.378 7.400 C 16.373 7.400 17.274 7.803 17.927 8.455 C 18.580 9.107 18.984 10.007 18.984 11 C 18.984 11.993 18.580 12.893 17.927 13.545 C 17.274 14.197 16.373 14.600 15.378 14.600 C 14.383 14.600 13.481 14.197 12.828 13.545 C 12.175 12.893 11.771 11.993 11.771 11 C 11.771 10.007 12.175 9.107 12.828 8.455 C 13.481 7.803 14.383 7.400 15.378 7.400 Z " transform="matrix(1, 0, 0, 1, 199.35, 41.5)"/>
          </g>
          <path id="Path" fill="#174832" stroke="none" stroke-width="1" d="M 23.542 32.450 C 24.444 33.650 25.797 34.300 27.299 34.300 C 29.854 34.300 31.908 32.200 31.908 29.650 L 31.908 26.100 L 18.834 26.100 L 23.542 32.450 Z " transform="matrix(1, 0, 0, 1, 189.3, 39)"/>
          <path id="Path" fill="#174832" stroke="none" stroke-width="1" d="M 15.077 21.150 C 16.580 20.750 17.732 19.350 17.732 17.700 C 17.732 15.700 16.129 14.100 14.125 14.100 C 12.823 14.100 11.721 14.750 11.070 15.800 L 15.077 21.150 Z " transform="matrix(1, 0, 0, 1, 189.3, 39)"/>
          <path id="Path" fill="#174832" stroke="none" stroke-width="1" d="M 31.858 24.100 L 31.807 16.950 C 29.854 16.950 28.251 18.550 28.251 20.550 C 28.251 22.450 29.854 24.100 31.858 24.100 Z " transform="matrix(1, 0, 0, 1, 189.3, 39)"/>
          <path id="Path" fill="#174832" stroke="none" stroke-width="1" d="M 2.404 0.150 C 2.404 0.200 2.404 0.250 2.404 0.250 C 2.404 2.250 4.007 3.850 6.011 3.850 C 8.014 3.850 9.617 2.250 9.617 0.250 C 9.617 0.200 9.617 0.150 9.617 0.150 L 2.404 0.150 Z " transform="matrix(1, 0, 0, 1, 189.3, 39)"/>
          <path id="Path" fill="#174832" stroke="none" stroke-width="1" d="M 22.441 0 C 21.990 0.600 21.739 1.350 21.739 2.150 C 21.739 4.150 23.342 5.750 25.346 5.750 C 27.349 5.750 28.952 4.150 28.952 2.150 C 28.952 1.350 28.702 0.600 28.251 0 L 22.441 0 Z " transform="matrix(1, 0, 0, 1, 189.3, 39)"/>
        </g>
        <g id="Group">
          <path id="Path" fill="none" stroke="#151B22" stroke-width="1.5" stroke-linecap="round" d="M 0.100 48.450 L 14.727 46.450 L 31.407 14.800 L 52.996 5.150 " transform="matrix(1, 0, 0, 1, 163.75, 64)"/>
          <path id="Oval" fill="#151B22" stroke="none" stroke-width="1" d="M 52.745 0.350 C 53.989 0.350 55.116 0.854 55.932 1.669 C 56.748 2.483 57.253 3.608 57.253 4.850 C 57.253 6.092 56.748 7.217 55.932 8.031 C 55.116 8.846 53.989 9.350 52.745 9.350 C 51.501 9.350 50.374 8.846 49.558 8.031 C 48.742 7.217 48.237 6.092 48.237 4.850 C 48.237 3.608 48.742 2.483 49.558 1.669 C 50.374 0.854 51.501 0.350 52.745 0.350 Z " transform="matrix(1, 0, 0, 1, 163.75, 64)"/>
        </g>
      </g>
    </g>
  </g>
</svg>