<svg version="1.1" width="81" height="200" xmlns="http://www.w3.org/2000/svg" xmlns:xlink="http://www.w3.org/1999/xlink">
  <!-- Exported by Scratch - http://scratch.mit.edu/ -->
  <g id="ID0.40466386592015624" transform="matrix(0.949999988079071, 0, 0, 0.949999988079071, 0.05, 0)">
    <g id="R_Shoe">
      <path id="Fill_8_" fill="#EAA06D" d="M 62.904 180.627 C 62.365 181.245 61.800 181.411 61.046 181.808 C 60.206 182.251 59.484 182.581 58.591 182.948 C 56.712 183.721 54.650 184.526 52.652 184.422 C 51.301 184.351 47.551 184.390 46.240 184.694 C 44.740 185.042 49.473 186.865 50.318 186.966 C 53.024 188.325 55.448 188.402 58.375 188.958 C 59.752 189.224 63.035 189.125 64.490 189.056 C 66.200 188.974 66.098 188.681 67.762 188.339 C 69.352 188.015 70.866 187.464 72.264 186.727 C 73.272 186.196 74.167 185.415 75.214 185.007 C 75.250 184.861 75.270 184.571 75.234 184.423 C 75.071 183.755 73.926 182.475 73.298 182.203 C 72.320 181.778 71.078 181.601 69.966 181.610 C 68.714 181.616 66.788 182.073 65.493 181.926 C 65.004 181.868 63.027 181.455 63.316 180.830 " transform="matrix(1, 0, 0, 1, 0.9, 0.5)"/>
      <path id="Trim_1_" fill="#BC7240" d="M 75.427 184.956 C 75.684 185.917 75.736 186.913 75.768 187.960 C 75.782 188.473 75.655 188.856 75.593 189.293 C 75.529 189.772 75.705 190.230 75.639 190.708 C 74.574 191.128 73.646 191.770 72.535 192.135 C 71.336 192.530 70.090 192.834 68.881 193.213 C 66.041 194.107 62.824 193.936 59.957 193.271 C 58.816 193.007 57.736 192.598 56.654 192.160 C 55.610 191.736 54.835 191.170 53.675 191.073 C 52.493 190.971 51.352 191.320 50.157 191.236 C 49.043 191.160 47.775 191.083 46.738 190.686 C 44.529 189.838 46.057 186.502 45.995 184.883 C 46.440 185.148 47.314 185.626 47.752 185.932 C 48.697 186.582 49.475 186.725 50.571 187.036 C 51.740 187.370 52.685 187.781 53.850 188.099 C 56.369 188.788 58.996 189.032 61.621 189.177 C 64.147 189.317 66.578 189.173 68.918 188.274 C 70.222 187.774 71.474 187.136 72.713 186.489 C 73.471 186.093 74.520 184.842 75.359 184.830 " transform="matrix(1, 0, 0, 1, 0.9, 0.5)"/>
      <path id="Outline_13_" d="M 74.998 184.659 C 75.052 184.821 75.554 184.890 75.500 184.724 C 74.787 182.522 73.106 181.354 70.806 181.315 C 69.644 181.294 68.498 181.460 67.351 181.608 C 66.749 181.685 66.138 181.779 65.533 181.772 C 64.463 181.764 63.849 181.375 63.137 180.625 C 63.033 180.516 62.531 180.480 62.671 180.628 C 63.364 181.357 63.858 181.838 64.880 181.984 C 65.807 182.116 66.741 181.994 67.660 181.871 C 70.674 181.469 73.866 181.158 74.998 184.659 L 74.998 184.659 L 74.998 184.659 L 74.998 184.659 Z M 75.655 184.723 C 75.629 184.558 75.123 184.469 75.153 184.657 C 75.490 186.695 75.385 188.750 75.426 190.803 C 75.430 190.958 75.934 191.070 75.928 190.869 C 75.886 188.814 75.993 186.758 75.655 184.723 L 75.655 184.723 L 75.655 184.723 L 75.655 184.723 Z M 65.012 193.876 C 65.354 193.868 64.992 193.601 64.812 193.605 C 62.622 193.654 60.442 193.533 58.362 192.786 C 56.745 192.205 55.171 191.168 53.444 190.948 C 52.659 190.848 51.907 190.949 51.126 191.070 C 49.569 191.311 48.063 191.039 46.569 190.585 C 44.893 190.074 46.299 186.317 46.245 184.914 C 46.237 184.759 45.735 184.652 45.743 184.851 C 45.817 186.731 45.013 188.509 45.376 190.388 C 45.397 190.476 45.529 190.517 45.598 190.537 C 47.337 191.091 49.073 191.552 50.912 191.408 C 52.062 191.319 53.081 191.022 54.233 191.376 C 55.109 191.649 55.903 192.072 56.747 192.425 C 59.445 193.549 62.096 193.942 65.012 193.876 L 65.012 193.876 L 65.012 193.876 L 65.012 193.876 Z M 75.881 190.953 C 76.082 190.862 75.619 190.654 75.481 190.719 C 72.032 192.277 68.599 193.455 64.815 193.609 C 64.476 193.622 64.832 193.887 65.013 193.880 C 68.875 193.723 72.359 192.541 75.881 190.953 L 75.881 190.953 L 75.881 190.953 L 75.881 190.953 Z M 75.483 184.789 C 75.611 184.680 75.145 184.486 75.012 184.594 C 71.246 187.842 65.776 189.339 60.893 189.064 C 58.079 188.903 55.282 188.384 52.571 187.614 C 51.192 187.224 49.507 186.874 48.292 186.079 C 47.574 185.607 46.923 185.079 46.143 184.711 C 45.927 184.607 45.635 184.752 45.950 184.900 C 47.296 185.537 48.296 186.449 49.724 186.959 C 50.943 187.397 52.175 187.784 53.431 188.099 C 56.097 188.765 58.823 189.295 61.577 189.360 C 66.440 189.467 71.731 188.029 75.483 184.789 L 75.483 184.789 L 75.483 184.789 L 75.483 184.789 Z " transform="matrix(1, 0, 0, 1, 0.9, 0.5)"/>
    </g>
    <g id="L_Shoe">
      <path id="Fill_6_" fill="#EAA06D" d="M 39.056 191.432 C 39.064 192.158 38.568 193.563 38.005 193.929 C 37.243 194.420 35.859 194.948 34.979 195.127 C 31.125 195.916 25.585 195.947 21.747 194.981 C 20.868 194.760 20.007 194.287 19.784 193.585 C 19.668 193.214 19.395 191.697 19.450 191.359 C 19.548 190.734 20.888 189.937 21.284 189.380 C 21.709 188.783 22.597 188.302 23.188 187.827 C 24.379 186.864 26.210 186.572 27.709 186.348 C 29.422 186.090 30.938 186.324 32.707 186.828 C 34.079 187.224 35.194 187.844 36.419 188.544 C 37.009 188.884 37.546 189.149 37.901 189.779 C 38.194 190.297 38.506 191.121 39.056 191.432 " transform="matrix(1, 0, 0, 1, 0.9, 0.5)"/>
      <path id="Trim" fill="#BC7240" d="M 38.699 192.865 C 38.651 192.817 38.513 193.431 38.426 193.409 C 38.180 193.755 37.930 193.942 37.561 194.276 C 37.192 194.608 36.415 194.729 35.979 194.911 C 34.505 195.527 32.831 195.578 31.229 195.794 C 28.393 196.178 25.942 196.057 23.022 195.295 C 21.907 195.005 20.039 194.717 19.782 193.579 C 19.624 192.875 19.761 191.076 18.866 191.440 C 17.955 191.813 18.194 193.254 18.319 194.102 C 18.486 195.242 18.912 196.308 19.715 197.247 C 20.383 198.029 21.440 198.185 22.417 198.391 C 23.596 198.637 24.849 198.911 26.057 198.961 C 27.520 199.023 28.590 199.156 30.049 199.156 C 31.653 199.156 33.272 198.924 34.815 198.551 C 35.598 198.362 36.417 198.336 37.104 197.905 C 37.578 197.605 38.539 197.446 38.681 196.910 C 38.973 195.804 39.564 193.889 39.166 192.848 " transform="matrix(1, 0, 0, 1, 0.9, 0.5)"/>
      <path id="Outline_12_" d="M 38.775 191.409 C 38.801 191.572 39.307 191.663 39.276 191.474 C 39.067 190.188 36.495 189.057 35.516 188.536 C 33.987 187.724 32.255 187.302 30.528 187.288 C 28.517 187.277 26.187 187.324 24.257 187.927 C 22.208 188.569 20.582 189.790 19.132 191.347 C 19.007 191.478 19.486 191.660 19.603 191.537 C 20.824 190.228 22.236 189.012 23.947 188.401 C 25.755 187.755 27.771 187.637 29.680 187.576 C 31.490 187.516 33.263 187.714 34.909 188.525 C 35.852 188.991 38.581 190.220 38.775 191.409 L 38.775 191.409 L 38.775 191.409 L 38.775 191.409 Z M 19.697 191.561 C 19.688 191.399 19.184 191.297 19.204 191.499 C 19.266 192.370 19.167 193.579 19.892 194.225 C 20.447 194.717 21.124 195.023 21.842 195.209 C 23.795 195.730 25.926 195.991 27.946 196.024 C 30.487 196.069 33.147 195.879 35.606 195.192 C 36.508 194.938 37.505 194.642 38.231 194.007 C 39.075 193.272 39.008 192.530 39.280 191.513 C 39.112 191.475 38.946 191.444 38.778 191.409 C 39.015 192.827 38.963 194.331 38.632 195.734 C 38.458 196.467 38.589 196.850 37.823 197.296 C 37.456 197.509 37.078 197.737 36.677 197.882 C 33.962 198.845 30.936 199.123 28.075 199.070 C 26.591 199.043 25.096 198.951 23.639 198.668 C 22.141 198.377 20.305 198.061 19.451 196.640 C 18.793 195.548 17.595 191.606 19.731 191.270 C 20.011 191.226 19.570 190.985 19.419 191.005 C 17.234 191.349 18.078 195.140 18.822 196.377 C 20.303 198.845 23.829 199.065 26.402 199.270 C 29.816 199.540 33.620 199.349 36.871 198.196 C 37.443 197.992 38.040 197.708 38.525 197.340 C 39.041 196.944 38.909 196.793 39.050 196.199 C 39.416 194.653 39.532 193.050 39.275 191.479 C 39.252 191.335 38.816 191.212 38.773 191.375 C 38.530 192.274 38.599 193.198 37.757 193.813 C 36.918 194.423 35.948 194.783 34.941 195.011 C 32.901 195.472 30.802 195.749 28.712 195.750 C 26.838 195.753 24.954 195.575 23.109 195.233 C 22.234 195.073 20.630 194.853 20.148 193.989 C 19.730 193.235 19.757 192.399 19.697 191.561 L 19.697 191.561 L 19.697 191.561 L 19.697 191.561 Z " transform="matrix(1, 0, 0, 1, 0.9, 0.5)"/>
    </g>
    <g id="Pants_3_">
      <path id="Fill_7_" fill="#3D6767" d="M 65.111 181.562 C 65.971 180.296 66.512 178.732 66.745 177.225 C 67.055 175.233 65.577 174.641 64.171 173.753 C 62.930 172.973 62.985 171.861 63.494 170.577 C 63.764 169.901 64.085 169.284 64.204 168.558 C 64.340 167.730 63.934 167.074 63.325 166.603 C 63.254 166.552 63.180 166.501 63.111 166.453 C 62.470 166.035 61.668 165.798 60.996 165.784 C 60.890 165.785 60.422 165.575 60.670 165.580 C 61.026 165.587 61.379 165.635 61.727 165.709 C 60.566 164.575 60.532 162.686 60.480 161.165 C 60.384 158.496 60.026 155.895 59.627 153.255 C 59.232 150.639 58.793 148.004 58.561 145.365 C 58.312 142.569 58.456 139.883 57.864 137.105 C 57.863 137.101 57.872 137.101 57.873 137.098 C 57.871 137.092 57.859 137.087 57.859 137.081 C 58.070 128.854 57.518 120.645 57.510 112.421 C 57.510 112.416 57.526 112.416 57.530 112.412 L 56.317 96.058 C 56.317 96.058 42.442 95.933 25.629 98.746 L 24.455 112.277 C 24.455 112.277 24.594 112.559 24.433 112.508 C 23.417 123.280 22.397 134.060 21.381 144.835 C 21.381 144.836 21.384 144.837 21.384 144.839 C 20.961 151.722 19.572 158.579 17.885 165.255 C 17.120 168.276 15.872 171.561 16.488 174.708 C 16.615 175.359 16.863 175.488 16.220 175.996 C 15.193 176.811 15.986 177.233 16.816 177.884 C 16.833 177.899 16.838 177.913 16.837 177.936 C 16.193 178.974 15.321 179.825 14.592 180.795 C 14.256 181.241 14.014 181.733 13.820 182.254 C 13.466 183.195 13.932 183.858 14.424 184.625 C 15.279 185.953 16.310 187.159 17.484 188.213 C 18.511 189.139 17.374 190.287 19.707 190.318 C 19.776 190.322 20.027 190.426 20.082 190.486 C 21.542 189.428 22.675 187.010 24.906 186.806 C 27.391 186.134 28.998 186.200 31.204 186.520 C 33.309 186.828 33.747 186.832 35.507 187.957 C 36.361 188.279 38.367 190.311 38.837 190.258 C 39.613 190.169 40.408 189.137 39.574 186.525 C 39.138 185.161 39.811 185.723 40.832 184.424 C 41.375 185.748 43.859 187.430 45.959 186.118 C 45.871 185.710 45.106 184.424 48.009 184.424 C 50.731 184.448 52.362 184.439 55.208 184.189 C 56.747 184.053 58.616 182.993 60.064 182.406 C 61.327 181.891 61.134 181.302 62.405 180.928 C 63.137 180.642 64.667 182.252 65.300 181.692 C 65.187 181.651 65.092 181.591 65.111 181.562 L 65.111 181.562 L 65.111 181.562 Z " transform="matrix(1, 0, 0, 1, 0.9, 0.5)"/>
      <path id="Outline_11_" d="M 67.191 176.055 C 66.593 174.219 63.292 174.034 63.651 171.904 C 63.906 170.401 65.580 168.415 64.179 167.008 C 63.671 166.496 63.049 166.144 62.382 165.908 C 62.358 165.899 62.333 165.888 62.309 165.880 C 62.253 165.832 62.217 165.773 62.166 165.722 C 60.775 164.336 61.024 161.866 60.944 160.064 C 60.823 157.327 60.294 154.628 59.923 151.921 C 59.548 149.174 58.984 146.420 58.971 143.639 C 58.960 141.457 58.816 139.353 58.361 137.212 C 58.572 128.989 58.020 120.783 58.011 112.561 L 56.816 95.560 C 44.004 95.122 25.191 98.248 25.191 98.248 L 23.952 112.144 C 23.473 117.216 22.994 122.290 22.514 127.364 C 22.432 128.232 22.350 129.100 22.268 129.969 C 21.804 134.882 21.340 139.794 20.876 144.707 C 20.876 144.708 20.878 144.709 20.878 144.710 C 20.498 150.923 19.322 157.135 17.860 163.176 C 17.177 165.990 16.157 168.838 15.888 171.736 C 15.789 172.759 15.700 173.875 16.117 174.822 C 16.422 175.515 15.765 175.724 15.363 176.128 C 15.060 176.435 15.025 176.776 15.363 177.090 C 15.798 177.493 16.463 177.701 15.967 178.367 C 15.640 178.806 15.284 179.216 14.929 179.630 C 14.366 180.288 13.741 180.987 13.434 181.810 C 13.331 182.077 12.944 182.942 13.104 183.211 C 13.369 183.660 13.634 184.111 13.925 184.546 C 14.609 185.575 15.357 186.572 16.238 187.443 C 16.907 188.102 17.135 188.482 17.509 189.289 C 17.673 189.640 17.899 189.889 18.163 190.072 C 18.169 190.076 18.175 190.082 18.182 190.086 C 18.658 190.409 19.263 190.509 19.902 190.527 C 19.943 190.528 19.983 190.531 20.024 190.532 C 20.028 190.532 20.028 190.531 20.031 190.531 C 20.094 190.530 20.102 190.514 20.080 190.490 C 20.062 190.471 20.024 190.448 19.979 190.426 C 20.034 190.408 20.092 190.388 20.151 190.367 C 20.175 190.450 20.574 190.599 20.645 190.484 C 23.998 184.375 34.432 185.508 38.374 190.385 C 38.448 190.475 38.734 190.553 38.839 190.489 C 39.378 190.147 40.438 189.697 40.401 188.899 C 40.346 187.717 39.691 186.878 39.874 185.658 C 40.229 185.380 40.553 185.054 40.859 184.704 C 42.249 186.443 43.950 187.011 46.168 186.195 C 46.319 186.140 45.869 185.957 45.757 185.999 C 44.778 186.363 43.590 186.700 42.631 186.061 C 41.995 185.637 41.528 185.079 41.089 184.461 C 41.087 184.457 41.078 184.456 41.075 184.453 C 42.414 182.779 43.145 180.496 42.684 178.416 C 42.454 177.363 41.934 176.816 41.080 176.203 C 40.700 175.929 39.715 175.367 39.991 174.740 C 40.135 174.422 40.321 174.180 40.503 173.886 C 40.937 173.186 40.769 172.499 40.651 171.757 C 42.413 173.837 44.712 175.866 47.583 175.571 C 47.835 175.545 47.365 175.350 47.256 175.364 C 44.421 175.656 42.218 173.210 40.600 171.176 C 40.427 162.596 39.699 153.963 41.046 145.440 C 41.062 145.433 41.088 145.433 41.092 145.419 C 42.465 140.523 43.229 135.497 43.821 130.455 C 44.098 128.099 44.469 125.716 44.561 123.341 C 44.644 121.235 44.716 119.262 45.601 117.307 C 45.642 117.220 45.153 117.050 45.102 117.168 C 44.146 119.273 44.186 121.371 44.040 123.627 C 43.890 126.026 43.553 128.420 43.263 130.806 C 42.679 135.583 41.942 140.341 40.662 144.987 C 40.620 144.991 40.585 145.001 40.580 145.024 C 39.175 153.621 39.918 162.328 40.094 170.981 C 40.056 170.990 40.038 171.008 40.066 171.043 C 40.076 171.056 40.087 171.068 40.097 171.081 C 40.097 171.120 40.099 171.158 40.100 171.197 C 40.099 171.200 40.089 171.199 40.089 171.202 C 40.092 171.238 40.099 171.274 40.103 171.310 C 40.103 171.319 40.103 171.328 40.103 171.335 C 40.103 171.336 40.106 171.337 40.106 171.339 C 40.210 172.163 40.516 173.023 39.996 173.754 C 39.603 174.315 39.264 174.751 39.683 175.374 C 40.305 176.302 41.621 176.546 42.011 177.690 C 42.925 180.381 41.654 183.607 39.526 185.367 C 38.443 184.075 36.055 183.673 34.565 183.313 C 31.947 182.681 29.304 182.123 26.626 181.820 C 26.297 181.783 26.713 182.010 26.841 182.024 C 28.971 182.265 31.077 182.677 33.166 183.156 C 34.075 183.363 34.990 183.565 35.885 183.836 C 36.465 184.014 37.018 184.223 37.587 184.421 C 37.961 184.538 38.316 184.701 38.649 184.911 C 38.599 185.154 38.546 185.396 38.495 185.637 C 35.099 185.626 31.867 184.309 28.471 184.396 C 28.221 184.404 28.691 184.607 28.795 184.605 C 30.998 184.544 33.066 185.160 35.220 185.505 C 36.525 185.716 38.030 186.021 39.356 185.746 C 39.277 186.675 39.633 187.227 39.825 188.204 C 40.035 189.276 39.371 189.686 38.593 190.168 C 34.414 185.405 23.921 184.143 20.317 190.078 L 19.706 190.320 C 17.373 190.289 18.511 189.140 17.483 188.215 C 16.309 187.161 15.279 185.955 14.423 184.627 C 13.932 183.860 13.465 183.197 13.819 182.256 C 14.013 181.735 14.256 181.243 14.591 180.797 C 15.320 179.826 16.193 178.976 16.836 177.938 C 16.837 177.916 16.831 177.901 16.815 177.886 C 15.985 177.236 15.192 176.814 16.219 175.998 C 16.862 175.490 16.614 175.361 16.487 174.710 C 16.485 174.699 16.485 174.689 16.483 174.679 C 19.138 175.498 21.488 177.178 24.322 177.374 C 27.215 177.575 30.024 176.071 32.778 175.315 C 32.925 175.274 32.482 175.086 32.361 175.119 C 29.799 175.823 27.162 177.192 24.454 177.171 C 21.584 177.150 19.141 175.316 16.461 174.500 C 15.939 171.416 17.137 168.210 17.885 165.257 C 19.572 158.581 20.961 151.724 21.384 144.841 C 21.384 144.839 21.381 144.838 21.381 144.837 C 22.397 134.062 23.417 123.282 24.433 112.510 C 24.594 112.561 24.455 112.279 24.455 112.279 L 25.629 98.748 C 42.441 95.936 56.317 96.060 56.317 96.060 L 57.530 112.414 C 57.526 112.418 57.510 112.418 57.510 112.423 C 57.518 120.648 58.070 128.857 57.859 137.083 C 57.859 137.089 57.871 137.094 57.873 137.100 C 57.872 137.103 57.863 137.103 57.864 137.107 C 58.456 139.884 58.312 142.571 58.561 145.367 C 58.793 148.006 59.233 150.640 59.627 153.257 C 60.025 155.898 60.384 158.498 60.480 161.167 C 60.532 162.688 60.566 164.577 61.727 165.711 C 61.379 165.637 61.027 165.589 60.670 165.582 C 60.422 165.577 60.890 165.787 60.996 165.786 C 61.668 165.800 62.471 166.037 63.111 166.455 C 63.185 166.503 63.257 166.553 63.325 166.605 C 63.934 167.076 64.340 167.732 64.204 168.560 C 64.085 169.286 63.764 169.903 63.494 170.579 C 62.985 171.863 62.930 172.975 64.171 173.755 C 65.577 174.643 67.055 175.234 66.745 177.227 C 66.513 178.734 65.972 180.298 65.111 181.564 L 64.815 181.770 L 64.818 181.779 C 64.760 181.760 64.710 181.749 64.682 181.751 C 64.373 181.776 63.668 180.767 63.311 180.595 C 63.111 180.502 62.906 180.470 62.697 180.533 C 61.874 180.765 60.969 181.655 60.199 182.067 C 59.095 182.656 57.957 183.200 56.763 183.588 C 54.340 184.375 52.023 184.389 49.504 184.376 C 47.656 184.367 45.809 184.428 44.100 185.211 C 44.038 185.238 44.438 185.446 44.573 185.380 C 46.735 184.389 49.155 184.587 51.470 184.602 C 53.590 184.615 55.588 184.389 57.590 183.635 C 59.451 182.936 61.221 182.018 62.865 180.900 C 63.380 180.549 64.134 181.834 64.864 181.940 L 64.879 181.988 C 64.879 181.988 65.454 181.886 65.512 181.733 C 65.553 181.731 65.595 181.728 65.613 181.702 C 66.542 180.333 67.740 177.748 67.191 176.055 L 67.191 176.055 L 67.191 176.055 Z " transform="matrix(1, 0, 0, 1, 0.9, 0.5)"/>
    </g>
    <g id="Undershirt_3_">
      <path id="Fill_5_" fill="#C0E1E1" d="M 24.019 111.347 C 24.373 112.397 25.221 113.030 26.258 113.437 C 27.056 113.713 27.946 113.903 28.804 114.050 C 29.718 114.182 30.608 114.258 31.325 114.368 C 35.299 114.983 39.283 115.476 43.312 115.310 C 43.311 115.301 43.300 115.294 43.301 115.285 C 43.399 114.467 43.679 113.684 43.784 112.858 C 43.900 111.946 44.055 111.040 44.187 110.129 C 44.427 108.469 44.908 106.864 45.158 105.217 C 45.183 105.056 45.514 105.156 45.537 105.283 C 45.881 107.304 46.254 109.343 46.189 111.403 C 46.164 112.224 45.803 114.409 46.522 115.062 C 49.831 114.714 53.115 114.194 56.236 113 C 56.569 112.875 60.941 110.736 61.252 109.485 C 61.255 109.456 61.262 109.426 61.264 109.398 C 61.272 109.315 61.260 109.236 61.225 109.164 C 61.165 109.140 61.113 109.106 61.101 109.057 C 61.095 109.032 61.090 109.006 61.083 108.981 C 61.083 108.980 61.083 108.980 61.082 108.979 C 61.003 108.917 61.014 108.869 61.050 108.833 C 60.466 106.429 60.102 103.989 59.768 101.535 C 59.614 100.406 59.415 99.275 59.323 98.139 C 59.251 97.264 59.269 96.277 58.962 95.443 C 56.292 96.351 53.606 98.337 50.941 99.251 C 47.582 100.401 45.158 101.392 41.615 101.820 C 38.570 102.188 35.758 102.222 32.693 102.222 C 31.372 102.222 29.579 101.823 28.307 101.515 C 27.734 101.379 26.706 101.092 26.140 100.911 C 25.750 100.789 25.617 100.209 25.390 100.473 C 25.105 100.805 25.041 100.340 25.072 100.674 C 25.038 101.326 24.983 101.849 24.879 102.391 C 24.651 105.380 24.053 108.338 24.017 111.344 C 24.017 111.346 24.019 111.346 24.019 111.347 L 24.019 111.347 L 24.019 111.347 Z " transform="matrix(1, 0, 0, 1, 0.9, 0.5)"/>
      <path id="Outline_10_" d="M 61.452 108.964 C 60.777 106.216 60.400 103.417 60.017 100.616 C 59.791 98.979 59.905 96.904 59.300 95.356 C 59.245 95.215 58.868 95.193 58.945 95.385 C 58.952 95.404 58.955 95.424 58.962 95.443 C 59.270 96.277 59.251 97.264 59.323 98.139 C 59.416 99.276 59.614 100.407 59.768 101.535 C 60.102 103.989 60.466 106.429 61.050 108.833 C 61.014 108.868 61.003 108.916 61.082 108.979 C 61.083 108.980 61.083 108.980 61.083 108.981 C 61.090 109.006 61.095 109.032 61.101 109.057 C 61.113 109.107 61.165 109.140 61.225 109.164 C 61.260 109.236 61.272 109.315 61.264 109.398 C 61.261 109.426 61.259 109.455 61.252 109.485 C 60.941 110.736 56.569 112.875 56.236 113 C 53.115 114.193 49.831 114.714 46.522 115.062 C 45.803 114.409 46.164 112.224 46.189 111.403 C 46.253 109.342 45.880 107.304 45.537 105.283 C 45.515 105.156 45.183 105.055 45.158 105.217 C 44.908 106.864 44.428 108.469 44.187 110.129 C 44.055 111.040 43.900 111.946 43.784 112.858 C 43.679 113.684 43.398 114.466 43.301 115.285 C 43.300 115.295 43.311 115.302 43.312 115.310 C 39.283 115.476 35.299 114.983 31.325 114.368 C 30.608 114.258 29.718 114.181 28.804 114.050 C 27.932 113.925 27.042 113.744 26.258 113.437 C 25.221 113.030 24.372 112.397 24.019 111.347 C 24.019 111.346 24.018 111.346 24.017 111.345 C 24.053 108.339 24.651 105.381 24.879 102.392 C 24.938 101.622 24.978 100.850 24.970 100.075 C 24.968 99.923 24.585 99.856 24.587 100.039 C 24.606 101.808 24.408 103.559 24.188 105.308 C 23.987 106.905 23.774 108.501 23.683 110.107 C 23.660 110.509 23.641 110.911 23.636 111.314 C 23.636 111.316 23.639 111.317 23.639 111.320 C 24.467 113.761 27.726 114.113 29.907 114.410 C 34.490 115.033 39.006 115.777 43.650 115.557 C 43.818 115.549 43.774 115.445 43.681 115.373 C 43.778 114.559 44.056 113.781 44.160 112.961 C 44.277 112.049 44.426 111.143 44.562 110.232 C 44.754 108.961 45.074 107.719 45.327 106.469 C 45.331 106.449 45.333 106.430 45.337 106.411 C 45.341 106.432 45.344 106.453 45.347 106.473 C 45.634 108.387 45.820 110.275 45.780 112.236 C 45.764 113.016 45.578 114.476 46.199 115.137 C 46.154 115.216 46.312 115.354 46.442 115.339 C 50.470 114.925 54.907 114.376 58.470 112.294 C 59.171 111.888 62.371 110.050 61.452 108.964 L 61.452 108.964 L 61.452 108.964 Z " transform="matrix(1, 0, 0, 1, 0.9, 0.5)"/>
    </g>
    <g id="Sweater">
      <path id="Cuff" fill="#C0E1E1" d="M 70.191 40.953 C 71.671 38.803 70.995 36.348 69.117 34.724 C 62.188 32.244 59.506 36.897 59.506 36.897 C 58.635 40.980 61.693 43.798 65.678 43.605 C 66.307 43.548 66.881 43.405 67.474 43.203 C 68.566 42.752 69.498 41.959 70.191 40.953 L 70.191 40.953 L 70.191 40.953 Z " transform="matrix(1, 0, 0, 1, 0.9, 0.5)"/>
      <path id="Fill_3_" fill="#302D63" d="M 77.762 50.248 C 77.586 49.492 77.183 48.885 76.863 48.197 C 76.856 48.190 76.840 48.185 76.836 48.177 C 75.483 45.648 75.155 42.861 74.646 40.082 C 74.093 37.064 72.890 34.694 69.699 33.895 C 69.288 33.825 68.203 33.821 67.555 33.825 C 68.521 34.112 69.226 34.460 69.451 34.578 C 69.481 34.589 69.509 34.603 69.528 34.620 C 71.311 36.157 72.159 38.446 70.963 40.639 C 69.910 42.567 68.119 43.721 65.949 43.923 C 64.192 44.087 62.188 43.590 60.799 42.479 C 59.006 41.041 58.535 38.959 59.004 36.766 C 59.097 36.614 59.198 36.493 59.294 36.353 L 58.992 36.506 C 58.908 36.576 58.828 36.647 58.748 36.717 L 58.748 36.717 C 58.560 36.883 58.386 37.051 58.225 37.227 C 58.209 37.244 58.195 37.260 58.179 37.277 C 58.027 37.446 57.890 37.624 57.770 37.813 C 57.755 37.836 57.742 37.861 57.727 37.885 C 57.612 38.075 57.513 38.277 57.439 38.495 C 57.431 38.517 57.426 38.541 57.419 38.563 C 57.347 38.793 57.293 39.037 57.273 39.306 C 57.200 40.259 57.501 41.385 57.759 42.298 C 58.242 43.990 59.296 45.470 60.421 46.842 C 60.429 46.853 60.449 46.861 60.451 46.873 C 60.452 46.876 60.452 46.878 60.453 46.881 C 60.828 47.337 61.210 47.780 61.581 48.215 C 61.708 48.370 61.208 48.320 61.112 48.209 C 60.949 48.017 60.785 47.823 60.622 47.629 C 61.156 49.756 62.197 51.809 62.849 53.893 C 63.406 55.671 63.620 57.268 64.703 58.872 C 65.947 60.712 67.783 61.962 69.818 62.779 C 70.152 62.913 69.847 63.038 69.630 62.952 C 65.778 61.403 63.244 58.466 62.489 54.356 C 62.010 51.760 60.445 49.422 59.954 46.822 C 58.775 45.362 57.709 43.808 57.188 41.983 C 57.035 41.454 56.934 40.898 56.863 40.338 C 55.917 39.688 54.791 39.362 53.717 38.964 C 53.597 38.920 53.474 38.878 53.356 38.831 C 53.282 38.801 53.243 38.772 53.225 38.746 L 53.120 38.715 L 49.463 37.625 C 49.463 37.625 48.880 41.913 43.088 41.580 C 37.296 41.247 35.588 37.747 35.588 37.747 L 31.563 38.042 C 31.532 38.047 31.501 38.052 31.470 38.057 C 31.154 38.107 30.835 38.156 30.517 38.205 C 28.344 38.539 26.131 38.856 24.072 39.604 C 22.128 40.309 20.522 41.668 18.971 42.998 C 18.971 42.999 18.972 42.999 18.971 43 C 17.815 44.469 17.481 46.422 16.987 48.187 C 16.462 50.066 15.965 51.953 15.425 53.828 C 14.316 57.697 12.961 61.490 11.788 65.341 C 10.634 69.138 9.956 73.028 8.366 76.683 C 7.629 78.375 6.879 79.995 6.379 81.782 C 5.869 83.597 5.787 85.515 5.275 87.319 C 4.924 88.548 3.816 89.456 2.929 90.298 C 1.676 91.488 0.700 92.901 0.519 94.652 C 0.247 97.219 1.896 99.702 3.890 101.124 C 7.513 103.714 13.995 103.921 15.105 98.631 C 15.105 98.630 15.108 98.630 15.109 98.628 C 15.109 98.627 15.106 98.625 15.107 98.623 C 16.334 96.584 16.570 94.061 16.922 91.754 C 17.132 90.394 17.356 89.037 17.692 87.700 C 18.049 86.281 18.718 85.008 19.297 83.674 C 20.641 80.576 21.611 77.331 22.831 74.185 C 23.348 72.854 23.895 71.502 24.586 70.250 C 25.008 69.488 25.564 68.774 25.904 67.969 C 25.922 67.927 25.973 67.911 26.034 67.909 C 26.144 67.103 26.247 66.298 26.371 65.493 C 26.371 65.493 26.373 65.493 26.373 65.492 C 26.330 64.390 26.077 63.306 25.925 62.215 C 24.866 61.153 23.807 60.210 23.038 58.898 C 22.932 58.710 23.432 58.780 23.502 58.906 C 24.225 60.137 25.206 61.051 26.201 62.033 C 26.304 62.062 26.400 62.109 26.409 62.172 C 26.560 63.324 26.834 64.465 26.879 65.628 C 26.879 65.629 26.877 65.628 26.877 65.629 L 26.877 65.629 C 26.053 70.965 25.551 76.307 25.375 81.703 C 25.274 84.708 24.901 87.636 24.401 90.599 C 24.163 92.034 24.333 93.361 24.792 94.726 C 25.145 95.787 26.194 96.750 26.080 97.899 C 26.065 98.040 25.559 97.934 25.576 97.763 C 25.635 97.168 25.382 96.835 25.122 96.420 C 25.136 96.731 25.133 97.042 25.055 97.328 C 24.906 97.848 24.552 98.365 24.344 98.865 C 23.680 100.467 27.615 101.178 28.701 101.319 C 33.586 101.955 38.525 101.908 43.420 101.199 C 48.176 100.511 52.650 98.051 57.178 96.526 C 58.135 96.206 59.063 95.822 59.959 95.355 C 60.647 94.999 62.480 94.202 62.307 93.251 C 62.147 92.361 61.226 91.387 61.131 90.428 C 60.517 91.071 59.873 91.707 59.315 92.383 C 59.216 92.502 58.735 92.328 58.843 92.195 C 59.784 91.054 60.923 90.104 61.871 88.968 C 63.288 87.276 63.236 85.411 62.493 83.415 C 61.037 79.515 59.164 75.810 57.953 71.811 C 56.913 68.376 56.598 64.990 56.973 61.434 C 57.003 61.149 57.035 60.866 57.067 60.582 C 57.065 60.571 57.047 60.560 57.053 60.549 C 57.060 60.537 57.068 60.525 57.074 60.513 C 57.466 57.023 57.935 53.602 57.675 50.062 C 57.663 49.883 58.168 49.991 58.178 50.137 C 58.407 53.256 58.110 56.307 57.741 59.387 C 58.676 57.763 59.447 56.055 59.161 54.117 C 59.139 53.945 59.642 54.041 59.663 54.191 C 60.015 56.595 58.789 58.650 57.590 60.634 C 57.582 60.698 57.574 60.763 57.567 60.827 C 57.485 61.490 57.436 62.142 57.401 62.791 C 57.463 62.811 57.517 62.837 57.541 62.869 C 59.552 65.576 62.841 67.011 65.976 67.980 C 68.788 68.851 71.829 69.405 74.783 69.332 C 76.437 69.291 77.512 69.207 78.374 67.670 C 78.820 66.873 78.835 65.816 78.980 64.933 C 79.187 63.672 79.509 62.530 79.527 61.234 C 79.560 58.683 78.861 56.088 78.429 53.588 C 78.234 52.469 78.020 51.355 77.762 50.248 L 77.762 50.248 L 77.762 50.248 Z " transform="matrix(1, 0, 0, 1, 0.9, 0.5)"/>
      <path id="Outline_7_" d="M 79.090 54.624 C 78.846 53.190 78.639 51.728 78.262 50.321 C 78.055 49.551 77.684 48.965 77.352 48.251 C 77.348 48.243 77.332 48.238 77.327 48.231 C 75.734 45.236 75.711 41.944 74.836 38.745 C 74.283 36.718 73.233 35.265 71.588 34.377 C 71.147 34.138 70.650 33.951 70.120 33.794 C 69.997 33.757 69.883 33.712 69.755 33.680 C 69.671 33.659 69.615 33.664 69.573 33.679 L 66.953 33.664 C 64.889 33.174 61.985 33.131 59.804 35.674 L 58.702 36.167 C 57.750 36.943 56.744 37.834 56.764 39.172 C 56.769 39.457 56.809 39.748 56.837 40.037 C 55.872 39.478 54.800 39.142 53.763 38.742 C 53.691 38.714 53.617 38.688 53.545 38.659 L 49.295 37.413 C 49.295 37.413 47.962 41.746 43.087 41.246 C 38.212 40.746 35.754 37.458 35.754 37.458 L 31.244 37.793 C 30.953 37.840 30.660 37.886 30.366 37.930 C 28.117 38.270 25.779 38.563 23.662 39.377 C 21.695 40.135 20.082 41.453 18.497 42.809 C 18.497 42.809 18.498 42.810 18.497 42.811 C 17.602 43.949 17.270 45.276 16.877 46.647 C 16.429 48.209 16.008 49.781 15.575 51.347 C 14.471 55.365 13.134 59.298 11.881 63.271 C 11.226 65.352 10.590 67.443 10.074 69.565 C 9.610 71.477 9.173 73.358 8.430 75.187 C 7.666 77.065 6.698 78.856 6.115 80.802 C 5.608 82.503 5.256 84.236 5.006 85.990 C 4.741 87.833 3.737 88.856 2.458 90.104 C 1.431 91.107 0.378 92.336 0.115 93.799 C -0.385 96.572 0.901 99.007 2.907 100.689 C 3.278 101 3.673 101.288 4.087 101.545 C 4.973 102.096 5.942 102.516 6.927 102.778 C 10.532 103.742 14.740 102.912 15.610 98.758 C 16.900 96.612 17.105 93.937 17.484 91.515 C 17.695 90.167 17.902 88.804 18.290 87.494 C 18.669 86.207 19.282 85.043 19.803 83.811 C 21.082 80.771 22.053 77.617 23.255 74.551 C 23.322 74.380 23.383 74.206 23.452 74.036 C 23.473 73.982 23.492 73.928 23.514 73.874 C 24.020 72.626 24.524 71.339 25.212 70.179 C 25.418 69.829 25.647 69.483 25.864 69.129 C 25.339 73.257 24.999 77.397 24.870 81.567 C 24.785 84.254 24.419 86.853 24.037 89.494 C 23.997 89.773 23.957 90.051 23.917 90.331 C 23.911 90.375 23.904 90.419 23.898 90.463 C 23.710 91.771 23.730 92.998 24.159 94.264 C 24.303 94.691 24.472 95.101 24.656 95.507 C 24.608 95.514 24.575 95.531 24.576 95.564 C 24.595 96.136 24.735 96.854 24.458 97.390 C 24.175 97.942 23.493 98.863 23.747 99.466 C 24.186 100.509 26.226 100.992 27.171 101.238 C 31.923 102.476 36.841 102.017 41.673 101.652 C 41.827 101.640 41.978 101.610 42.131 101.594 C 42.245 101.583 42.358 101.565 42.472 101.552 C 44.997 101.260 47.407 100.548 49.775 99.682 C 50.373 99.464 50.968 99.239 51.562 99.008 C 53.444 98.279 55.318 97.515 57.228 96.872 C 58.437 96.466 59.603 96.007 60.718 95.384 C 61.202 95.116 62.689 94.434 62.814 93.845 C 63.107 92.472 61.101 91.220 61.734 89.843 C 61.741 89.829 61.720 89.814 61.714 89.800 C 63.061 88.295 64.055 86.669 63.292 84.342 C 61.955 80.264 59.847 76.473 58.597 72.348 C 57.670 69.288 57.264 66.317 57.380 63.224 C 59.355 65.633 62.378 67.066 65.283 67.998 C 68.301 68.967 71.591 69.672 74.778 69.592 C 75.768 69.569 77.421 69.738 78.128 68.904 C 78.782 68.131 79.148 67.293 79.294 66.284 C 79.466 65.125 79.839 63.981 79.949 62.817 C 80.211 60.047 79.555 57.339 79.090 54.624 L 79.090 54.624 L 79.090 54.624 Z M 59.506 36.897 C 59.506 36.897 62.189 32.244 69.117 34.724 C 70.995 36.348 71.672 38.803 70.191 40.953 C 69.498 41.959 68.566 42.752 67.473 43.203 C 66.937 43.424 66.365 43.569 65.756 43.604 C 65.730 43.605 65.703 43.604 65.677 43.605 C 61.692 43.798 58.635 40.980 59.506 36.897 L 59.506 36.897 L 59.506 36.897 Z M 78.977 64.935 C 78.831 65.818 78.817 66.875 78.371 67.672 C 77.510 69.209 76.434 69.293 74.780 69.334 C 71.826 69.407 68.786 68.853 65.973 67.982 C 62.838 67.013 59.549 65.578 57.538 62.871 C 57.515 62.840 57.461 62.813 57.398 62.793 C 57.433 62.144 57.482 61.491 57.564 60.829 C 57.572 60.765 57.580 60.700 57.587 60.636 C 58.786 58.652 60.012 56.597 59.660 54.193 C 59.639 54.043 59.136 53.947 59.158 54.119 C 59.444 56.057 58.673 57.765 57.738 59.389 C 58.106 56.309 58.404 53.258 58.175 50.139 C 58.165 49.993 57.660 49.885 57.672 50.064 C 57.933 53.604 57.463 57.025 57.071 60.515 C 57.064 60.527 57.056 60.539 57.050 60.551 C 57.044 60.561 57.062 60.573 57.064 60.584 C 57.033 60.868 57.001 61.151 56.970 61.436 C 56.595 64.992 56.910 68.378 57.950 71.813 C 59.161 75.812 61.034 79.517 62.490 83.417 C 63.233 85.413 63.285 87.278 61.868 88.970 C 60.920 90.106 59.781 91.056 58.840 92.197 C 58.732 92.330 59.213 92.504 59.312 92.385 C 59.871 91.710 60.514 91.073 61.128 90.430 C 61.223 91.389 62.144 92.363 62.304 93.253 C 62.478 94.204 60.644 95.001 59.956 95.357 C 59.060 95.824 58.132 96.208 57.175 96.528 C 52.648 98.053 48.173 100.513 43.417 101.201 C 38.522 101.910 33.583 101.957 28.698 101.321 C 27.612 101.180 23.677 100.469 24.341 98.867 C 24.549 98.367 24.903 97.850 25.052 97.330 C 25.131 97.044 25.134 96.733 25.119 96.422 C 25.379 96.837 25.631 97.170 25.573 97.765 C 25.556 97.936 26.062 98.042 26.077 97.901 C 26.191 96.752 25.142 95.789 24.789 94.728 C 24.330 93.363 24.160 92.036 24.398 90.601 C 24.445 90.323 24.484 90.046 24.529 89.768 C 30.338 97.892 42.940 99.517 51.398 94.875 C 51.589 94.771 51.121 94.578 50.994 94.649 C 42.590 99.261 30.140 97.636 24.640 89.298 C 24.634 89.288 24.620 89.279 24.609 89.270 C 24.999 86.758 25.288 84.259 25.374 81.705 C 25.550 76.309 26.052 70.967 26.876 65.631 L 26.876 65.631 C 26.876 65.630 26.878 65.631 26.878 65.630 C 26.833 64.467 26.559 63.326 26.408 62.174 C 26.400 62.112 26.304 62.064 26.200 62.035 C 25.205 61.053 24.224 60.139 23.501 58.908 C 23.431 58.782 22.931 58.712 23.037 58.900 C 23.806 60.212 24.865 61.154 25.924 62.217 C 26.076 63.308 26.329 64.392 26.372 65.494 C 26.372 65.495 26.370 65.495 26.370 65.495 C 26.246 66.300 26.143 67.105 26.033 67.911 C 25.971 67.913 25.920 67.929 25.903 67.971 C 25.563 68.776 25.007 69.490 24.585 70.252 C 23.894 71.504 23.347 72.856 22.830 74.187 C 21.610 77.333 20.640 80.578 19.296 83.676 C 18.717 85.010 18.048 86.283 17.691 87.702 C 17.355 89.039 17.131 90.396 16.921 91.756 C 16.751 92.873 16.606 94.040 16.364 95.178 C 16.208 95.112 15.973 95.098 15.989 95.218 C 16.594 98.985 10.518 99.683 8.210 98.122 C 8.097 98.044 7.585 98.027 7.814 98.179 C 9.551 99.355 13.450 99.539 15.393 98.084 C 15.301 98.266 15.212 98.450 15.106 98.626 C 15.105 98.627 15.109 98.629 15.108 98.631 C 15.107 98.632 15.104 98.632 15.104 98.634 C 13.994 103.924 7.512 103.717 3.889 101.127 C 1.895 99.706 0.246 97.222 0.518 94.655 C 0.699 92.904 1.675 91.491 2.928 90.301 C 3.815 89.459 4.923 88.551 5.274 87.322 C 5.786 85.518 5.868 83.600 6.378 81.785 C 6.878 79.998 7.628 78.378 8.365 76.686 C 9.955 73.031 10.633 69.141 11.787 65.344 C 12.960 61.493 14.315 57.700 15.424 53.831 C 15.964 51.956 16.461 50.069 16.986 48.190 C 17.480 46.425 17.814 44.472 18.970 43.003 C 18.970 43.002 18.969 43.002 18.970 43.001 C 20.521 41.672 22.127 40.313 24.071 39.607 C 26.130 38.859 28.343 38.542 30.516 38.208 C 30.834 38.159 31.153 38.110 31.469 38.060 C 31.500 38.055 31.531 38.050 31.562 38.045 L 35.587 37.750 C 35.587 37.750 37.295 41.250 43.087 41.583 C 48.879 41.916 49.462 37.628 49.462 37.628 L 53.119 38.718 L 53.224 38.749 C 53.242 38.776 53.281 38.805 53.355 38.834 C 53.473 38.881 53.596 38.923 53.716 38.967 C 54.789 39.365 55.915 39.691 56.862 40.341 C 56.933 40.901 57.034 41.456 57.187 41.986 C 57.708 43.811 58.774 45.365 59.953 46.825 C 60.444 49.425 62.010 51.763 62.488 54.359 C 63.243 58.469 65.777 61.406 69.629 62.955 C 69.846 63.041 70.150 62.916 69.817 62.782 C 67.782 61.965 65.946 60.715 64.702 58.875 C 63.619 57.271 63.405 55.674 62.848 53.896 C 62.197 51.812 61.156 49.760 60.621 47.632 C 60.784 47.826 60.948 48.020 61.111 48.212 C 61.207 48.323 61.707 48.373 61.580 48.218 C 61.209 47.782 60.827 47.339 60.452 46.884 C 60.451 46.881 60.451 46.879 60.450 46.876 C 60.448 46.864 60.428 46.856 60.420 46.845 C 59.295 45.473 58.241 43.993 57.758 42.301 C 57.499 41.388 57.198 40.262 57.272 39.309 C 57.293 39.039 57.346 38.796 57.418 38.566 C 57.425 38.544 57.430 38.520 57.438 38.498 C 57.512 38.280 57.611 38.079 57.726 37.888 C 57.741 37.864 57.754 37.840 57.769 37.816 C 57.889 37.628 58.026 37.450 58.178 37.280 C 58.194 37.263 58.208 37.247 58.224 37.230 C 58.385 37.055 58.560 36.886 58.747 36.720 C 58.827 36.649 58.907 36.579 58.991 36.509 L 59.293 36.356 C 59.197 36.496 59.096 36.617 59.003 36.769 C 58.534 38.962 59.005 41.044 60.798 42.482 C 62.188 43.593 64.192 44.090 65.948 43.926 C 68.118 43.724 69.909 42.570 70.962 40.642 C 72.158 38.449 71.311 36.160 69.527 34.623 C 69.507 34.606 69.480 34.592 69.450 34.581 C 69.224 34.462 68.519 34.115 67.554 33.828 C 68.201 33.824 69.286 33.828 69.698 33.898 C 72.889 34.697 74.093 37.067 74.645 40.085 C 75.155 42.864 75.483 45.651 76.835 48.180 C 76.839 48.188 76.856 48.193 76.862 48.200 C 77.182 48.888 77.586 49.495 77.761 50.251 C 78.019 51.358 78.234 52.472 78.425 53.593 C 78.857 56.093 79.556 58.688 79.523 61.239 C 79.506 62.532 79.184 63.674 78.977 64.935 L 78.977 64.935 L 78.977 64.935 Z " transform="matrix(1, 0, 0, 1, 0.9, 0.5)"/>
    </g>
    <g id="Neck">
      <path id="Fill_1_" fill="#A86C35" d="M 43.889 41.401 C 48.243 41.183 49.167 38.742 49.366 37.649 C 48.905 37.753 46.921 38.066 46.899 35.769 C 46.281 36.145 45.628 36.451 44.947 36.612 C 44.946 36.612 44.946 36.612 44.945 36.612 C 44.924 36.617 44.893 36.621 44.851 36.620 C 42.105 36.566 39.013 35.252 36.579 34.066 C 36.515 34.035 36.453 34 36.390 33.966 L 36.317 34.937 L 36.097 37.817 C 36.926 38.906 39.454 41.624 43.889 41.401 L 43.889 41.401 L 43.889 41.401 Z " transform="matrix(1, 0, 0, 1, 0.9, 0.5)"/>
      <path id="L_Side" d="M 36.316 34.937 L 36.389 33.966 L 36.410 33.687 L 36.160 33.625 L 36.004 34.562 L 35.754 37.459 L 35.882 37.644 L 36.087 37.938 L 36.316 34.937 " transform="matrix(1, 0, 0, 1, 0.9, 0.5)"/>
      <path id="R_Side" d="M 49.462 37.625 L 49.459 37.588 L 49.441 37.396 C 46.878 37.875 47.149 35.458 47.149 35.458 L 46.899 35.458 C 46.892 35.570 46.896 35.666 46.898 35.768 C 46.923 38.368 49.462 37.625 49.462 37.625 L 49.462 37.625 L 49.462 37.625 Z " transform="matrix(1, 0, 0, 1, 0.9, 0.5)"/>
    </g>
    <g id="Collar_3_">
      <path id="R_Fill" fill="#C0E1E1" d="M 47.969 36.550 C 47.383 37.288 46.912 38.110 46.422 38.917 C 46.346 39.043 46.268 39.167 46.190 39.292 C 45.766 39.972 45.315 40.631 44.752 41.208 C 44.023 41.958 44.306 42.248 44.944 42.906 C 45.386 43.360 45.817 43.824 46.249 44.288 C 47.091 45.195 47.925 46.109 48.771 47.010 C 49.790 43.837 51.430 40.807 52.807 37.782 C 51.320 36.581 49.241 35.932 47.431 35.463 C 47.379 35.450 47.354 35.423 47.324 35.399 L 47.306 35.410 C 46.774 35.624 47.399 37.103 47.394 36.389 C 47.394 36.355 47.395 36.456 47.392 36.490 C 47.430 36.438 47.465 36.383 47.506 36.332 C 47.643 36.163 48.119 36.354 47.969 36.550 L 47.969 36.550 L 47.969 36.550 Z " transform="matrix(1, 0, 0, 1, 0.9, 0.5)"/>
      <path id="L_Fill" fill="#C0E1E1" d="M 37.256 45.405 C 38.227 46.228 39.238 47.015 40.170 47.842 C 40.863 46.757 41.256 45.509 41.885 44.385 C 42.277 43.686 42.691 42.999 43.105 42.315 C 43.681 41.357 42.841 41.083 42.119 40.580 C 40.761 39.640 39.400 38.624 38.175 37.477 C 38.079 37.387 37.980 37.301 37.885 37.209 C 37.475 36.811 37.089 36.391 36.720 35.958 C 36.462 35.655 36.215 35.343 35.982 35.021 C 35.975 35.012 35.968 35.003 35.961 34.994 C 34.492 35.862 32.830 36.767 31.851 38.185 C 31.841 38.200 31.826 38.208 31.811 38.218 C 31.207 38.689 34.451 42.572 34.836 43.042 C 35.444 43.780 36.158 44.444 36.898 45.088 C 36.907 45.092 36.914 45.098 36.923 45.103 C 37.085 45.182 37.174 45.288 37.256 45.405 L 37.256 45.405 L 37.256 45.405 Z " transform="matrix(1, 0, 0, 1, 0.9, 0.5)"/>
      <path id="Outline_6_" d="M 53.342 37.818 C 53.346 37.795 53.343 37.769 53.327 37.740 C 53.314 37.715 53.299 37.696 53.271 37.677 C 53.266 37.672 53.265 37.668 53.259 37.663 C 52.018 36.614 50.351 35.960 48.743 35.480 C 48.659 35.455 48.575 35.430 48.491 35.406 C 48.163 35.311 47.837 35.220 47.519 35.138 C 47.258 35.072 47.170 35.280 47.322 35.399 C 47.352 35.423 47.378 35.450 47.429 35.463 C 49.239 35.933 51.318 36.581 52.805 37.782 C 51.428 40.807 49.787 43.836 48.769 47.010 C 47.922 46.110 47.088 45.195 46.247 44.288 C 45.815 43.824 45.385 43.360 44.942 42.906 C 44.303 42.248 44.021 41.958 44.750 41.208 C 45.313 40.631 45.765 39.972 46.188 39.292 C 46.266 39.167 46.344 39.042 46.420 38.917 C 46.910 38.110 47.381 37.289 47.967 36.550 C 48.117 36.354 47.641 36.162 47.504 36.332 C 47.463 36.383 47.428 36.438 47.390 36.490 C 47.286 36.630 47.182 36.770 47.082 36.914 C 46.539 37.702 46.077 38.543 45.557 39.345 C 45.236 39.833 44.914 40.351 44.505 40.772 C 44.344 40.934 44.062 41.155 43.887 41.401 C 41.168 39.364 38.215 37.553 36.253 34.694 C 36.251 34.691 36.249 34.688 36.247 34.685 C 36.158 34.554 35.958 34.484 35.812 34.571 C 34.255 35.499 32.441 36.440 31.386 37.967 C 31.379 37.978 31.380 37.988 31.375 37.998 C 30.694 38.776 33.342 41.813 33.764 42.349 C 35.541 44.620 37.943 46.306 40.062 48.245 C 40.157 48.334 40.399 48.430 40.500 48.286 C 41.146 47.364 41.460 46.321 41.961 45.326 C 42.507 44.237 43.153 43.197 43.792 42.157 C 44.026 42.907 45.031 43.559 45.512 44.077 C 46.570 45.220 47.611 46.375 48.686 47.500 C 48.773 47.608 48.982 47.645 49.089 47.562 C 49.122 47.547 49.146 47.526 49.153 47.499 C 50.168 44.168 51.908 41.002 53.344 37.839 C 53.350 37.832 53.340 37.826 53.342 37.818 L 53.342 37.818 L 53.342 37.818 Z M 34.836 43.041 C 34.451 42.572 31.206 38.688 31.811 38.217 C 31.826 38.207 31.841 38.199 31.851 38.184 C 32.830 36.767 34.492 35.861 35.961 34.993 C 35.968 35.002 35.975 35.011 35.982 35.020 C 36.215 35.342 36.461 35.654 36.720 35.957 C 37.089 36.390 37.475 36.810 37.885 37.208 C 37.980 37.300 38.079 37.386 38.175 37.476 C 39.401 38.622 40.761 39.638 42.119 40.579 C 42.842 41.082 43.681 41.356 43.105 42.314 C 42.691 42.999 42.277 43.685 41.885 44.384 C 41.256 45.508 40.864 46.756 40.170 47.841 C 39.238 47.014 38.227 46.227 37.256 45.404 C 37.134 45.300 37.019 45.191 36.898 45.086 C 36.158 44.443 35.444 43.778 34.836 43.041 L 34.836 43.041 L 34.836 43.041 Z " transform="matrix(1, 0, 0, 1, 0.9, 0.5)"/>
    </g>
    <g id="Head">
      <g id="Head_1_">
        <path id="R_Ear" fill="#A86C35" d="M 54.140 19.210 C 54.137 19.216 54.123 19.214 54.119 19.219 C 54.089 19.662 54.086 20.097 54.145 20.490 C 54.147 20.502 54.128 20.503 54.124 20.512 C 54.334 21.479 54.455 22.459 54.481 23.436 C 54.716 22.889 54.958 22.343 55.160 21.781 C 55.333 21.298 55.399 20.802 55.425 20.294 C 55.428 20.035 55.406 19.778 55.363 19.523 C 55.308 18.981 54.900 18.876 54.140 19.210 L 54.140 19.210 L 54.140 19.210 Z " transform="matrix(1, 0, 0, 1, 0.9, 0.5)"/>
        <path id="Head_Fill" fill="#A86C35" d="M 50.047 32.581 C 50.303 32.294 50.562 32.013 50.826 31.737 C 51.373 31.108 51.889 30.454 52.351 29.779 C 54.247 26.996 54.316 23.291 53.561 20.109 C 53.553 20.075 53.580 20.056 53.624 20.047 C 53.526 18.874 53.763 17.479 54.293 16.479 C 54.295 16.475 54.304 16.477 54.306 16.474 C 54.556 15.553 57.703 2.966 43.333 1.997 C 28.490 0.997 26.708 9.655 27.623 19.659 C 27.712 19.711 27.799 19.750 27.892 19.814 C 28.106 19.962 27.601 19.914 27.498 19.844 C 27.056 19.535 26.674 19.435 26.345 19.480 C 26.325 19.483 26.306 19.487 26.287 19.491 C 24.869 19.764 24.485 22.829 24.751 23.891 C 24.959 24.722 25.520 25.431 26.092 26.037 C 26.435 26.400 26.842 26.698 27.238 27.001 C 28.342 27.855 29.134 27.400 29.747 26.494 C 29.837 26.359 30.300 26.554 30.247 26.629 C 30.174 26.737 30.095 26.838 30.015 26.938 C 30.021 26.964 30.032 26.995 30.039 27.022 C 30.140 27.045 30.237 27.083 30.257 27.140 C 31.326 30.241 33.757 32.356 36.600 33.838 C 38.870 35.026 41.980 36.323 44.583 36.390 C 46.069 36.025 47.343 34.983 48.500 34.029 C 49.041 33.583 49.552 33.091 50.047 32.581 L 50.047 32.581 L 50.047 32.581 Z " transform="matrix(1, 0, 0, 1, 0.9, 0.5)"/>
        <g id="Outline_5_">
          <path id="Outline_4_" d="M 55.684 19.104 C 55.440 18.543 54.780 18.413 54.253 18.594 C 54.229 18.602 54.200 18.602 54.177 18.612 C 54.286 17.892 54.495 17.183 54.796 16.615 C 54.800 16.608 54.783 16.598 54.781 16.590 C 54.798 16.576 54.809 16.566 54.809 16.566 C 56.052 12.631 55.066 4.157 47.972 2.438 C 47.772 2.390 47.579 2.349 47.382 2.303 C 44.427 1.622 41.854 1.306 39.474 1.451 C 36.400 1.639 33.643 2.593 30.784 4.531 C 25.828 7.892 27.173 18.436 27.321 19.490 C 27.229 19.449 27.143 19.431 27.054 19.403 C 24.586 18.634 23.396 22.753 24.691 24.799 C 25.455 26.010 26.657 27.158 28.009 27.689 C 28.760 27.985 29.345 27.683 29.814 27.183 C 30.868 30.100 33.165 32.221 35.840 33.676 C 35.832 33.677 35.827 33.680 35.819 33.682 C 35.984 33.744 36.136 33.820 36.272 33.915 C 36.271 33.911 36.270 33.907 36.269 33.903 C 36.373 33.956 36.472 34.015 36.577 34.066 C 39.012 35.252 42.103 36.566 44.849 36.620 C 44.891 36.621 44.922 36.618 44.943 36.612 C 44.944 36.612 44.944 36.612 44.945 36.612 C 45.643 36.447 46.311 36.131 46.942 35.743 C 47.085 35.627 47.245 35.531 47.425 35.455 C 47.416 35.452 47.410 35.447 47.403 35.444 C 47.961 35.060 48.487 34.631 48.972 34.207 C 50.310 33.036 51.615 31.728 52.619 30.251 C 53.765 28.571 54.319 26.674 54.452 24.723 C 54.489 24.716 54.526 24.708 54.535 24.681 C 55.137 22.932 56.514 21.001 55.684 19.104 L 55.684 19.104 L 55.684 19.104 Z M 52.352 29.779 C 51.890 30.455 51.373 31.109 50.827 31.737 C 50.576 32.027 50.315 32.306 50.048 32.581 C 49.553 33.091 49.042 33.583 48.502 34.029 C 47.345 34.984 46.071 36.025 44.585 36.390 C 41.981 36.323 38.872 35.027 36.602 33.838 C 33.759 32.356 31.329 30.240 30.259 27.140 C 30.239 27.083 30.142 27.045 30.041 27.022 C 30.016 27.016 29.993 27.006 29.968 27.003 C 29.985 26.982 30 26.959 30.017 26.938 C 30.097 26.838 30.176 26.737 30.249 26.629 C 30.497 25.970 30.110 25.471 29.505 25.428 C 28.294 25.340 26.919 25.990 26.275 24.489 C 26.213 24.350 25.732 24.302 25.777 24.407 C 26.137 25.251 26.915 25.663 27.798 25.768 C 28.365 25.838 30.148 25.432 29.747 26.495 C 29.747 26.496 29.748 26.496 29.748 26.497 C 29.136 27.402 28.344 27.855 27.241 27.002 C 26.845 26.699 26.438 26.401 26.095 26.038 C 25.523 25.432 24.962 24.723 24.754 23.892 C 24.488 22.830 24.872 19.765 26.290 19.492 C 26.309 19.489 26.328 19.484 26.348 19.481 C 26.677 19.436 27.059 19.537 27.501 19.845 C 27.604 19.914 28.108 19.963 27.895 19.815 C 27.803 19.751 27.716 19.712 27.626 19.660 C 26.708 9.655 28.491 0.998 43.334 1.997 C 57.704 2.965 54.557 15.553 54.307 16.474 C 54.305 16.477 54.296 16.475 54.294 16.479 C 53.764 17.479 53.527 18.874 53.625 20.047 C 53.580 20.056 53.554 20.075 53.562 20.109 C 54.316 23.291 54.247 26.996 52.352 29.779 L 52.352 29.779 L 52.352 29.779 Z M 55.159 21.782 C 54.957 22.344 54.716 22.890 54.480 23.437 C 54.454 22.460 54.333 21.480 54.123 20.513 C 54.128 20.504 54.146 20.503 54.144 20.491 C 54.084 20.098 54.087 19.663 54.118 19.220 C 54.123 19.215 54.137 19.217 54.139 19.211 C 54.900 18.877 55.307 18.982 55.361 19.523 C 55.405 19.779 55.426 20.036 55.423 20.294 C 55.398 20.803 55.332 21.298 55.159 21.782 L 55.159 21.782 L 55.159 21.782 Z " transform="matrix(1, 0, 0, 1, 0.9, 0.5)"/>
          <path id="L_Ear" d="M 25.115 21.963 C 25.108 22.117 25.611 22.207 25.617 22.099 C 25.668 21.058 27.019 20.892 27.680 21.554 C 28.288 22.165 28.737 22.913 29.368 23.506 C 29.463 23.594 29.946 23.645 29.826 23.531 C 28.902 22.663 28.368 21.340 27.053 21.006 C 26.261 20.808 25.166 20.981 25.115 21.963 L 25.115 21.963 L 25.115 21.963 Z " transform="matrix(1, 0, 0, 1, 0.9, 0.5)"/>
        </g>
      </g>
      <g id="Mouth_2_">
        <path id="Inside" fill="#7B1315" d="M 44.634 26.651 C 43.631 26.881 42.510 27.234 41.717 27.921 C 41.724 27.932 41.740 27.943 41.737 27.955 C 41.300 29.193 42.341 30.225 43.050 31.113 C 43.054 31.118 43.046 31.118 43.048 31.123 C 43.053 31.127 43.064 31.129 43.067 31.134 C 44.227 32.844 47.077 33.096 47.852 30.922 C 47.852 30.922 47.852 30.922 47.852 30.922 C 47.853 30.922 47.852 30.922 47.852 30.922 C 48.180 30.281 48.194 29.595 48.268 28.893 C 48.351 28.084 48.665 27.441 49.206 26.869 C 48.077 25.883 45.935 26.352 44.634 26.651 L 44.634 26.651 L 44.634 26.651 Z " transform="matrix(1, 0, 0, 1, 0.9, 0.5)"/>
        <g id="Teeth">
          <path id="Fill_9_" fill="#FFFFFF" d="M 49.573 26.813 C 48.611 26.434 47.978 26.197 47.210 26.199 C 46.352 26.111 45.549 26.326 44.695 26.510 C 43.974 26.665 43.201 26.891 42.519 27.206 C 42.241 27.335 41.835 27.521 41.648 27.772 C 41.508 27.955 41.496 28.037 41.549 28.064 C 43.761 26.919 46.460 27.284 48.857 27.303 C 48.885 27.303 48.949 27.325 49.010 27.351 C 49.048 27.330 49.082 27.316 49.125 27.282 C 49.286 27.155 49.359 26.933 49.573 26.813 L 49.573 26.813 L 49.573 26.813 Z " transform="matrix(1, 0, 0, 1, 0.9, 0.5)"/>
          <path id="Line" fill="#010101" d="M 41.550 28.064 C 41.512 28.084 41.472 28.096 41.434 28.116 C 41.389 28.141 41.694 28.297 41.790 28.245 C 43.984 27.046 46.704 27.435 49.103 27.456 C 49.221 27.457 49.120 27.396 49.010 27.351 C 48.948 27.325 48.885 27.303 48.857 27.303 C 46.461 27.284 43.762 26.919 41.550 28.064 L 41.550 28.064 L 41.550 28.064 Z " transform="matrix(1, 0, 0, 1, 0.9, 0.5)"/>
        </g>
        <path id="Outline_9_" fill="#010101" d="M 49.348 26.720 C 48.399 26.050 47.007 26.071 45.913 26.209 C 44.378 26.402 42.486 26.753 41.298 27.832 C 41.274 27.854 41.302 27.883 41.345 27.911 C 40.956 29.149 41.992 30.200 42.707 31.092 C 42.707 31.092 42.708 31.092 42.708 31.092 C 43.954 32.898 47.332 33.533 48.228 31.023 C 48.229 31.023 48.229 31.023 48.229 31.023 C 48.563 30.375 48.551 29.701 48.647 28.995 C 48.750 28.188 49.032 27.554 49.585 26.975 C 49.615 26.970 49.624 26.958 49.615 26.940 C 49.641 26.914 49.660 26.885 49.687 26.858 C 49.755 26.791 49.438 26.664 49.348 26.720 L 49.348 26.720 L 49.348 26.720 Z M 48.268 28.891 C 48.240 29.158 48.216 29.421 48.185 29.682 C 47.617 28.687 46.937 27.626 45.801 27.307 C 45.580 27.245 45.547 27.376 45.768 27.441 C 46.893 27.756 47.547 29.157 48.080 30.093 C 48.086 30.103 48.103 30.108 48.114 30.116 C 48.059 30.389 47.986 30.659 47.852 30.920 C 47.852 30.920 47.853 30.920 47.852 30.920 C 47.852 30.920 47.852 30.920 47.852 30.920 C 47.077 33.094 44.227 32.842 43.067 31.132 C 43.064 31.127 43.053 31.125 43.048 31.121 C 43.046 31.117 43.054 31.116 43.050 31.111 C 42.341 30.223 41.300 29.191 41.737 27.953 C 41.741 27.942 41.724 27.931 41.717 27.919 C 42.510 27.232 43.631 26.880 44.634 26.649 C 45.935 26.350 48.077 25.881 49.206 26.865 C 48.665 27.439 48.351 28.083 48.268 28.891 L 48.268 28.891 L 48.268 28.891 Z " transform="matrix(1, 0, 0, 1, 0.9, 0.5)"/>
      </g>
      <g id="Nose">
        <path id="Outline_3_" d="M 42.059 24.865 C 42.416 24.637 42.825 24.591 43.222 24.484 C 43.271 24.534 43.358 24.588 43.450 24.602 C 44.378 24.749 45.147 25.121 46.120 25.007 C 46.974 24.908 47.768 24.216 47.919 23.371 C 47.944 23.230 47.440 23.113 47.417 23.238 C 47.263 24.098 46.417 24.800 45.532 24.816 C 44.767 24.829 44.139 24.530 43.423 24.404 C 43.426 24.328 43.085 24.194 42.982 24.229 C 42.505 24.386 42.019 24.411 41.586 24.683 C 41.494 24.743 41.928 24.946 42.059 24.865 L 42.059 24.865 L 42.059 24.865 Z " transform="matrix(1, 0, 0, 1, 0.9, 0.5)"/>
        <path id="Outline_2_" d="M 43.283 22.713 C 44.504 22.234 45.830 21.943 47.113 22.364 C 47.316 22.430 47.634 22.337 47.295 22.225 C 45.805 21.737 44.318 21.940 42.875 22.505 C 42.707 22.570 43.164 22.760 43.283 22.713 L 43.283 22.713 L 43.283 22.713 Z " transform="matrix(1, 0, 0, 1, 0.9, 0.5)"/>
      </g>
      <g id="L_Eye">
        <path id="L_White" fill="#FFFFFF" d="M 41.041 19.201 C 40.887 18.483 40.299 18.046 39.957 17.439 C 39.645 16.877 39.098 16.544 38.493 16.262 C 36.972 15.544 35.609 16.453 34.715 17.685 C 34.440 18.065 34.171 18.506 34.243 19.001 C 34.358 19.803 34.985 20.092 35.688 20.247 C 36.634 20.460 37.797 20.583 38.725 20.330 C 39.204 20.200 40.721 19.733 40.840 19.137 C 40.897 19.109 40.942 19.103 41.002 19.098 " transform="matrix(1, 0, 0, 1, 0.9, 0.5)"/>
        <path id="L_Outline" d="M 40.719 19.461 C 40.774 19.611 41.272 19.677 41.219 19.535 C 40.647 17.923 39.774 16.191 37.917 15.914 C 36.677 15.730 35.409 16.558 34.604 17.427 C 34.201 17.864 33.762 18.308 34.009 18.948 C 34.250 19.579 34.738 19.988 35.387 20.182 C 37.177 20.719 39.527 20.512 41.171 19.612 C 41.360 19.508 40.894 19.320 40.769 19.387 C 39.427 20.122 37.227 20.503 35.741 20.057 C 33.938 19.515 34.354 18.251 35.319 17.369 C 35.924 16.811 36.696 16.242 37.548 16.164 C 39.367 15.996 40.223 18.056 40.719 19.461 L 40.719 19.461 L 40.719 19.461 L 40.719 19.461 Z " transform="matrix(1, 0, 0, 1, 0.9, 0.5)"/>
        <path id="L_Pupil" fill="#42210B" stroke="#010101" stroke-width="0.2494" d="M 37.230 17.127 C 37.533 17.127 37.807 17.250 38.006 17.449 C 38.205 17.648 38.328 17.922 38.328 18.225 C 38.328 18.528 38.205 18.802 38.006 19.001 C 37.807 19.200 37.533 19.323 37.230 19.323 C 36.927 19.323 36.653 19.200 36.454 19.001 C 36.255 18.802 36.132 18.528 36.132 18.225 C 36.132 17.922 36.255 17.648 36.454 17.449 C 36.653 17.250 36.927 17.127 37.230 17.127 L 37.230 17.127 Z " transform="matrix(1, 0, 0, 1, 0.9, 0.5)"/>
      </g>
      <path id="L_Eyebrow" d="M 33.138 14.989 C 34.016 12.774 36.614 12.467 38.686 12.926 C 38.981 12.991 39.036 12.813 38.735 12.745 C 36.513 12.251 33.597 12.424 32.635 14.855 C 32.589 14.967 33.082 15.125 33.138 14.989 L 33.138 14.989 L 33.138 14.989 Z " transform="matrix(1, 0, 0, 1, 0.9, 0.5)"/>
      <g id="R_Eye">
        <path id="R_White" fill="#FFFFFF" d="M 53.391 17.200 C 53.391 17.211 53.391 17.221 53.391 17.234 C 53.391 17.886 52.963 18.328 52.340 18.629 C 51.535 19.022 51.084 19.179 50.190 19.222 C 49.297 19.267 48.469 19.289 47.628 19.038 C 47.237 18.923 47.216 18.884 47.255 18.490 C 47.288 18.155 47.407 17.979 47.554 17.677 C 47.695 17.390 47.716 17.045 47.896 16.793 C 48.054 16.565 48 16.225 48.191 16.022 C 48.670 15.508 49.322 15.353 50.045 15.334 C 50.682 15.318 51.440 15.402 51.963 15.740 C 52.334 15.978 53.488 16.656 53.463 17.232 " transform="matrix(1, 0, 0, 1, 0.9, 0.5)"/>
        <path id="R_Outline" d="M 46.990 18.916 C 46.963 19.077 47.469 19.196 47.492 19.049 C 47.697 17.843 48.062 16.082 49.332 15.528 C 50.248 15.132 51.207 15.409 52.021 15.920 C 52.906 16.476 53.800 17.558 52.490 18.382 C 51.113 19.249 48.865 19.420 47.338 18.901 C 47.127 18.827 46.815 18.955 47.150 19.070 C 48.843 19.650 51.088 19.540 52.691 18.737 C 53.195 18.486 54.080 17.466 53.570 16.837 C 53.308 16.516 52.976 16.237 52.631 16.007 C 51.787 15.445 50.676 14.915 49.623 15.102 C 47.812 15.420 47.258 17.333 46.990 18.916 L 46.990 18.916 L 46.990 18.916 L 46.990 18.916 Z " transform="matrix(1, 0, 0, 1, 0.9, 0.5)"/>
        <path id="R_Pupil" fill="#42210B" stroke="#010101" stroke-width="0.2494" d="M 49.571 16.107 C 49.874 16.107 50.149 16.230 50.348 16.429 C 50.547 16.628 50.670 16.903 50.670 17.206 C 50.670 17.509 50.547 17.784 50.348 17.983 C 50.149 18.182 49.874 18.305 49.571 18.305 C 49.268 18.305 48.993 18.182 48.794 17.983 C 48.595 17.784 48.472 17.509 48.472 17.206 C 48.472 16.903 48.595 16.628 48.794 16.429 C 48.993 16.230 49.268 16.107 49.571 16.107 L 49.571 16.107 Z " transform="matrix(1, 0, 0, 1, 0.9, 0.5)"/>
      </g>
      <path id="R_Eyebrow" d="M 47.870 11.856 C 49.905 11.699 52.391 12.193 52.942 14.476 C 52.979 14.624 53.421 14.789 53.397 14.694 C 52.773 12.116 49.870 11.362 47.534 11.540 C 47.354 11.554 47.740 11.864 47.870 11.856 L 47.870 11.856 L 47.870 11.856 Z " transform="matrix(1, 0, 0, 1, 0.9, 0.5)"/>
      <g id="Hair_3_">
        <path id="Fill" fill="#301113" d="M 55.347 14.899 C 55.311 14.846 55.294 14.785 55.329 14.717 C 55.663 14.069 55.599 13.221 55.316 12.568 C 55.278 12.480 55.308 12.422 55.365 12.386 C 55.364 12.367 55.346 12.354 55.352 12.334 C 55.645 11.306 55.548 10.113 55.101 9.142 C 55.062 9.057 55.089 9 55.143 8.964 C 55.606 7.867 54.747 6.755 54.008 5.991 C 53.942 5.956 53.887 5.908 53.873 5.839 C 53.726 5.093 53.177 4.543 52.701 3.985 C 52.666 3.944 52.655 3.910 52.653 3.878 C 52.644 3.868 52.633 3.860 52.627 3.850 C 52.217 3.161 51.691 2.430 50.870 2.246 C 50.743 2.298 50.521 2.253 50.460 2.117 C 50.064 1.244 48.635 1.193 47.814 1.106 C 47.801 1.105 47.795 1.095 47.784 1.092 C 47.769 1.091 47.762 1.099 47.746 1.096 C 47.063 0.945 46.102 0.281 45.432 0.714 C 45.348 0.769 45.225 0.751 45.125 0.701 C 45.090 0.723 45.049 0.742 44.979 0.734 C 44.514 0.680 44.047 0.639 43.581 0.602 C 43.519 0.621 43.447 0.622 43.374 0.582 C 43.370 0.582 43.366 0.581 43.362 0.581 C 43.349 0.580 43.342 0.570 43.331 0.568 C 42.752 0.286 42.044 0.413 41.435 0.503 C 40.913 0.580 40.403 0.592 39.876 0.559 C 39.839 0.557 39.815 0.535 39.786 0.522 C 39.766 0.527 39.765 0.542 39.739 0.543 C 38.984 0.589 38.236 0.667 37.489 0.774 C 37.460 0.791 37.419 0.788 37.377 0.788 C 37.363 0.790 37.349 0.791 37.335 0.793 C 37.327 0.794 37.321 0.788 37.313 0.789 C 37.303 0.787 37.298 0.793 37.288 0.789 C 36.457 0.530 35.759 0.674 35.169 1.332 C 35.091 1.420 34.940 1.416 34.825 1.367 C 34.197 1.561 33.584 1.793 32.980 2.057 C 32.994 2.115 32.969 2.169 32.870 2.198 C 32.059 2.430 30.456 2.409 30.462 3.573 C 30.463 3.740 30.282 3.771 30.134 3.724 C 29.578 4.153 29.058 4.621 28.586 5.141 C 28.581 5.147 28.574 5.153 28.567 5.160 L 28.567 5.160 C 28.567 5.160 28.566 5.160 28.566 5.161 C 28.549 5.178 28.532 5.195 28.504 5.209 C 28.153 5.388 27.566 5.648 27.483 6.072 C 27.454 6.214 27.485 6.369 27.463 6.513 C 27.449 6.626 27.378 6.711 27.295 6.785 C 27.291 6.803 27.289 6.821 27.277 6.839 C 26.957 7.336 26.677 7.852 26.424 8.385 C 26.435 8.414 26.458 8.440 26.450 8.475 C 26.364 8.885 25.996 9.135 25.929 9.551 C 25.870 9.922 25.974 10.303 25.693 10.605 C 25.670 10.629 25.641 10.645 25.609 10.655 C 25.476 11.185 25.378 11.720 25.317 12.263 C 25.357 12.306 25.379 12.361 25.366 12.423 C 25.278 12.876 24.919 13.309 25.115 13.733 C 25.194 13.768 25.261 13.819 25.267 13.901 C 25.268 13.926 25.273 13.951 25.274 13.977 C 25.293 14.015 25.298 14.049 25.284 14.078 C 25.319 14.538 25.382 14.995 25.482 15.447 C 25.681 15.731 25.705 16.051 25.795 16.391 C 25.847 16.581 25.898 16.842 26.053 16.978 C 26.159 17.074 26.204 17.172 26.199 17.315 C 26.198 17.333 26.181 17.337 26.176 17.352 C 26.591 18.150 27.125 18.868 27.788 19.475 C 27.816 19.500 27.832 19.524 27.846 19.548 C 27.929 19.552 28.013 19.578 28.064 19.637 C 28.871 20.554 29.408 21.525 29.922 22.605 C 30.354 22.330 30.857 21.966 30.662 21.451 C 30.493 21.012 30.169 20.612 29.972 20.180 C 29.410 18.978 28.812 17.736 28.326 16.503 C 27.523 14.471 28.068 11.758 28.958 9.853 C 29.857 7.920 32.148 6.519 34.033 5.703 C 36.914 4.457 40.279 4.449 43.363 4.600 C 45.035 4.682 46.714 4.919 48.377 5.137 C 49.447 5.278 50.485 5.576 51.417 6.133 C 54.896 8.201 55.057 13.003 54.810 16.562 C 54.790 16.769 54.498 16.780 54.361 16.671 C 54.219 17.755 54.062 18.605 54.011 18.762 L 54.108 18.661 C 54.327 18.357 54.579 18.077 54.812 17.771 C 55.406 16.987 55.349 15.843 55.347 14.899 L 55.347 14.899 L 55.347 14.899 Z " transform="matrix(1, 0, 0, 1, 0.9, 0.5)"/>
        <path id="Outline" d="M 55.806 12.519 C 55.822 12.501 55.848 12.496 55.856 12.469 C 56.157 11.401 56.062 10.168 55.612 9.151 C 55.618 9.142 55.632 9.142 55.636 9.131 C 56.183 7.904 55.203 6.611 54.383 5.773 C 54.371 5.761 54.356 5.754 54.342 5.745 C 54.147 4.985 53.628 4.410 53.125 3.821 C 53.124 3.820 53.123 3.820 53.122 3.819 C 53.117 3.807 53.118 3.796 53.110 3.782 C 52.599 2.920 51.932 2.034 50.881 1.854 C 50.858 1.850 50.845 1.862 50.823 1.862 C 50.239 0.950 48.811 0.824 47.828 0.721 C 46.935 0.520 45.955 -0.146 45.070 0.402 C 45.031 0.376 44.994 0.348 44.941 0.342 C 44.442 0.285 43.943 0.239 43.445 0.204 C 42.343 -0.270 40.984 0.240 39.838 0.167 C 39.781 0.164 39.753 0.185 39.718 0.200 C 39.671 0.177 39.622 0.156 39.570 0.159 C 39.039 0.189 38.509 0.242 37.981 0.305 C 37.745 0.333 37.509 0.361 37.274 0.396 C 37.189 0.372 37.104 0.348 37.020 0.332 C 36.272 0.186 35.591 0.334 35.011 0.820 C 34.979 0.847 34.948 0.879 34.916 0.908 C 34.891 0.907 34.865 0.908 34.841 0.914 C 34.650 0.969 34.466 1.040 34.278 1.102 C 33.575 1.331 32.884 1.590 32.216 1.911 C 32.194 1.922 32.182 1.935 32.167 1.947 C 31.510 2.088 30.745 2.217 30.307 2.648 C 30.256 2.699 30.210 2.754 30.169 2.814 C 30.089 2.930 30.034 3.067 29.999 3.223 C 29.998 3.224 29.995 3.224 29.994 3.225 C 29.317 3.717 28.706 4.281 28.143 4.897 C 27.782 5.077 27.283 5.309 27.088 5.660 C 26.986 5.843 26.996 6.066 26.961 6.261 C 26.948 6.335 26.921 6.403 26.884 6.464 C 26.852 6.516 26.821 6.568 26.758 6.604 C 26.664 6.659 26.665 6.732 26.715 6.795 C 26.390 7.323 26.097 7.863 25.840 8.427 C 25.816 8.480 25.829 8.528 25.860 8.568 C 25.723 8.817 25.494 9.021 25.447 9.314 C 25.407 9.568 25.447 9.876 25.373 10.129 C 25.369 10.144 25.362 10.157 25.356 10.171 C 25.351 10.186 25.338 10.198 25.332 10.213 C 25.250 10.220 25.176 10.248 25.155 10.331 C 24.978 10.991 24.854 11.659 24.790 12.339 C 24.787 12.376 24.812 12.402 24.828 12.433 C 24.744 12.706 24.591 12.963 24.549 13.245 C 24.509 13.546 24.593 13.781 24.770 14.008 C 24.805 14.461 24.868 14.907 24.963 15.352 C 24.933 15.395 24.933 15.452 24.995 15.520 C 25.235 15.789 25.249 16.208 25.339 16.546 C 25.374 16.685 25.419 16.821 25.487 16.947 C 25.528 17.020 25.630 17.120 25.671 17.212 C 25.637 17.248 25.628 17.298 25.663 17.366 C 26.117 18.261 26.715 19.052 27.457 19.727 C 27.508 19.775 27.573 19.795 27.636 19.797 C 27.639 19.800 27.639 19.803 27.642 19.806 C 27.852 20.046 28.045 20.290 28.223 20.539 C 28.260 20.591 28.291 20.645 28.327 20.697 C 28.817 21.410 29.209 22.163 29.586 22.977 C 29.658 23.130 29.883 23.186 30.024 23.094 C 30.311 22.901 30.690 22.676 30.948 22.388 C 30.971 22.362 30.996 22.337 31.017 22.310 C 31.179 22.103 31.273 21.864 31.223 21.581 C 31.092 20.857 30.410 20.003 30.121 19.321 C 29.665 18.231 28.900 17.105 28.668 15.944 C 28.438 14.798 28.445 13.599 28.674 12.452 C 29.203 9.800 30.671 8.015 33.031 6.685 C 35.898 5.071 39.285 4.837 42.513 4.954 C 44.371 5.020 46.208 5.278 48.056 5.486 C 49.035 5.596 50.029 5.803 50.899 6.288 C 54.420 8.253 54.542 13 54.294 16.530 C 54.290 16.589 54.319 16.637 54.363 16.673 C 54.500 16.781 54.793 16.770 54.812 16.564 C 55.059 13.005 54.899 8.204 51.419 6.135 C 50.487 5.578 49.449 5.280 48.379 5.139 C 46.716 4.921 45.037 4.684 43.365 4.602 C 40.281 4.451 36.916 4.458 34.035 5.705 C 32.150 6.521 29.859 7.923 28.960 9.855 C 28.070 11.760 27.525 14.473 28.328 16.505 C 28.814 17.737 29.412 18.980 29.974 20.182 C 30.171 20.614 30.495 21.013 30.664 21.453 C 30.859 21.969 30.356 22.332 29.924 22.607 C 29.410 21.527 28.873 20.557 28.066 19.639 C 28.014 19.580 27.931 19.555 27.848 19.550 C 27.834 19.526 27.818 19.502 27.790 19.477 C 27.127 18.870 26.593 18.152 26.178 17.354 C 26.183 17.339 26.200 17.334 26.201 17.317 C 26.207 17.174 26.162 17.076 26.055 16.980 C 25.900 16.844 25.849 16.584 25.797 16.393 C 25.707 16.053 25.683 15.732 25.484 15.449 C 25.384 14.997 25.320 14.540 25.286 14.080 C 25.300 14.052 25.295 14.018 25.276 13.979 C 25.275 13.954 25.270 13.929 25.269 13.903 C 25.263 13.821 25.195 13.770 25.117 13.735 C 24.921 13.312 25.280 12.879 25.368 12.425 C 25.381 12.363 25.359 12.309 25.319 12.265 C 25.380 11.722 25.478 11.187 25.611 10.657 C 25.643 10.646 25.672 10.631 25.695 10.607 C 25.976 10.305 25.873 9.924 25.931 9.553 C 25.997 9.137 26.366 8.887 26.452 8.477 C 26.460 8.442 26.437 8.416 26.426 8.387 C 26.678 7.854 26.959 7.338 27.279 6.841 C 27.291 6.822 27.293 6.805 27.297 6.787 C 27.380 6.713 27.451 6.628 27.465 6.515 C 27.486 6.370 27.455 6.215 27.485 6.074 C 27.568 5.650 28.155 5.389 28.506 5.211 C 28.534 5.197 28.551 5.180 28.568 5.163 C 28.568 5.163 28.569 5.163 28.569 5.162 L 28.569 5.162 C 28.575 5.156 28.583 5.150 28.588 5.143 C 29.060 4.623 29.580 4.155 30.136 3.726 C 30.284 3.772 30.465 3.742 30.464 3.575 C 30.458 2.411 32.062 2.432 32.872 2.200 C 32.971 2.172 32.996 2.117 32.982 2.059 C 33.586 1.794 34.199 1.562 34.827 1.369 C 34.942 1.418 35.093 1.422 35.171 1.334 C 35.761 0.676 36.459 0.532 37.290 0.791 C 37.300 0.794 37.305 0.789 37.315 0.791 C 37.323 0.791 37.329 0.796 37.337 0.795 C 37.351 0.793 37.365 0.792 37.379 0.790 C 37.421 0.790 37.462 0.793 37.491 0.776 C 38.238 0.668 38.986 0.590 39.741 0.545 C 39.767 0.544 39.769 0.529 39.788 0.524 C 39.818 0.537 39.841 0.559 39.878 0.561 C 40.404 0.594 40.914 0.582 41.437 0.505 C 42.045 0.415 42.753 0.288 43.333 0.570 C 43.345 0.572 43.352 0.582 43.364 0.583 C 43.368 0.583 43.372 0.584 43.376 0.584 C 43.449 0.624 43.521 0.622 43.583 0.604 C 44.050 0.641 44.517 0.682 44.981 0.736 C 45.051 0.744 45.092 0.725 45.127 0.703 C 45.227 0.752 45.350 0.771 45.434 0.716 C 46.105 0.282 47.066 0.946 47.748 1.098 C 47.764 1.101 47.771 1.093 47.786 1.094 C 47.798 1.096 47.804 1.106 47.816 1.108 C 48.636 1.195 50.066 1.246 50.462 2.119 C 50.524 2.255 50.745 2.300 50.872 2.248 C 51.693 2.432 52.219 3.162 52.629 3.852 C 52.636 3.863 52.647 3.871 52.655 3.880 C 52.657 3.912 52.668 3.947 52.703 3.987 C 53.179 4.545 53.727 5.094 53.875 5.841 C 53.889 5.909 53.943 5.958 54.010 5.993 C 54.748 6.757 55.608 7.869 55.145 8.966 C 55.089 9 55.062 9.057 55.102 9.141 C 55.549 10.113 55.646 11.305 55.353 12.333 C 55.347 12.353 55.365 12.367 55.366 12.385 C 55.309 12.421 55.279 12.479 55.317 12.567 C 55.599 13.220 55.664 14.068 55.330 14.716 C 55.295 14.784 55.311 14.845 55.348 14.898 C 55.350 15.842 55.408 16.985 54.813 17.773 C 54.580 18.079 54.328 18.359 54.109 18.663 C 53.991 18.828 53.880 18.997 53.792 19.186 C 53.688 19.413 54.188 19.555 54.294 19.323 C 54.597 18.664 55.247 18.238 55.524 17.567 C 55.876 16.714 55.858 15.751 55.859 14.846 C 55.859 14.830 55.842 14.822 55.838 14.807 C 56.150 14.089 56.107 13.234 55.806 12.519 L 55.806 12.519 L 55.806 12.519 Z " transform="matrix(1, 0, 0, 1, 0.9, 0.5)"/>
      </g>
    </g>
    <g id="L_Hand">
      <path id="Fill_4_" fill="#A86C35" d="M 0.627 102.714 C 0.397 104.372 0.589 106.048 0.512 107.715 C 0.551 107.737 0.585 107.764 0.601 107.797 C 0.730 108.068 0.967 108.265 1.214 108.434 C 1.105 106.504 1.182 104.591 1.716 102.717 C 1.779 102.506 2.281 102.643 2.224 102.852 C 1.672 104.773 1.604 106.740 1.734 108.723 C 1.741 108.735 1.759 108.742 1.763 108.754 C 1.853 109.074 2.136 109.336 2.372 109.593 C 2.398 109.591 2.417 109.581 2.446 109.584 C 2.659 107.577 3.026 105.591 3.290 103.590 C 3.316 103.381 3.824 103.504 3.795 103.727 C 3.518 105.825 3.122 107.909 2.915 110.014 C 2.913 110.035 2.889 110.039 2.878 110.054 C 3.374 110.981 5.074 113.307 5.688 113.325 C 5.325 111.757 4.525 110.248 4.519 108.622 C 4.519 108.555 4.560 108.517 4.615 108.495 C 4.912 106.874 4.979 105.242 5.017 103.597 C 5.023 103.355 5.532 103.447 5.525 103.648 C 5.486 105.363 5.423 107.068 5.101 108.757 C 5.095 108.788 5.063 108.798 5.040 108.815 C 5.087 110.298 5.756 111.686 6.131 113.112 C 6.769 112.023 6.920 110.935 6.838 109.714 C 6.761 109.671 6.704 109.614 6.737 109.547 C 7.715 107.516 7.848 105.211 8.776 103.170 C 8.784 103.152 8.807 103.151 8.820 103.139 C 8.773 102.975 9.211 102.997 9.315 103.145 C 10.305 104.576 8.566 106.945 10.759 107.459 C 10.830 105.924 10.864 104.359 11.178 102.850 C 10.567 103.026 9.867 103.051 9.228 102.989 C 8.474 102.913 7.748 102.839 7.001 102.678 C 6.269 102.524 5.582 102.194 4.913 101.856 C 4.558 101.676 4.121 101.520 3.829 101.251 C 3.620 101.057 3.472 100.858 3.203 100.709 C 2.962 100.572 2.858 100.500 2.667 100.260 C 2.539 100.100 2.435 99.930 2.297 99.766 C 2.191 99.635 2.037 99.531 1.900 99.424 C 1.842 99.377 1.663 99.187 1.503 99.047 C 1.148 100.244 0.857 101.447 0.659 102.683 C 0.658 102.699 0.637 102.701 0.627 102.714 L 0.627 102.714 L 0.627 102.714 Z " transform="matrix(1, 0, 0, 1, 0.9, 0.5)"/>
      <path id="Outline_8_" fill="#010101" d="M 11.695 102.917 C 11.740 102.698 11.234 102.569 11.191 102.780 C 11.186 102.802 11.184 102.826 11.180 102.848 C 10.867 104.358 10.832 105.922 10.761 107.457 C 8.569 106.942 10.307 104.573 9.317 103.143 C 9.213 102.996 8.775 102.973 8.822 103.137 C 8.809 103.150 8.786 103.151 8.778 103.168 C 7.850 105.209 7.717 107.514 6.739 109.545 C 6.706 109.612 6.763 109.669 6.840 109.712 C 6.922 110.934 6.771 112.022 6.133 113.110 C 5.758 111.684 5.089 110.297 5.042 108.813 C 5.065 108.796 5.096 108.787 5.103 108.755 C 5.425 107.066 5.488 105.360 5.527 103.646 C 5.534 103.445 5.025 103.353 5.019 103.595 C 4.981 105.241 4.914 106.872 4.617 108.493 C 4.562 108.514 4.521 108.553 4.521 108.620 C 4.527 110.246 5.327 111.755 5.690 113.323 C 5.076 113.305 3.376 110.979 2.880 110.052 C 2.891 110.037 2.915 110.033 2.917 110.012 C 3.124 107.907 3.520 105.823 3.797 103.725 C 3.826 103.502 3.318 103.379 3.292 103.588 C 3.027 105.589 2.661 107.575 2.448 109.582 C 2.419 109.579 2.400 109.589 2.374 109.591 C 2.138 109.334 1.855 109.072 1.765 108.752 C 1.761 108.739 1.744 108.732 1.736 108.721 C 1.606 106.738 1.674 104.771 2.226 102.850 C 2.283 102.641 1.781 102.504 1.718 102.715 C 1.184 104.589 1.107 106.502 1.216 108.432 C 0.969 108.263 0.732 108.066 0.603 107.795 C 0.587 107.762 0.553 107.735 0.514 107.713 C 0.591 106.046 0.399 104.370 0.629 102.712 C 0.638 102.698 0.660 102.696 0.663 102.678 C 0.860 101.442 1.151 100.239 1.507 99.042 C 1.535 98.947 1.556 98.851 1.585 98.756 C 1.647 98.551 1.147 98.412 1.080 98.621 C 0.684 99.895 0.380 101.175 0.167 102.490 C 0.154 102.506 0.129 102.510 0.126 102.532 C -0.124 104.292 0.116 106.065 0.001 107.833 C -0.007 107.951 0.130 108.034 0.265 108.061 C 0.460 108.329 0.734 108.544 1.007 108.718 C 1.069 108.757 1.151 108.776 1.231 108.777 C 1.234 108.816 1.233 108.855 1.236 108.894 C 1.242 108.971 1.325 109.023 1.419 109.054 C 1.615 109.361 1.907 109.616 2.123 109.900 C 2.168 109.960 2.264 109.993 2.355 109.998 C 2.896 111.141 5.063 114.282 6.107 113.662 C 6.190 113.652 6.255 113.620 6.239 113.540 C 6.262 113.515 6.289 113.502 6.311 113.473 C 6.328 113.450 6.335 113.426 6.335 113.403 C 6.438 113.428 6.544 113.418 6.587 113.346 C 7.315 112.117 7.470 110.895 7.337 109.492 C 7.337 109.488 7.331 109.486 7.330 109.482 C 8.155 107.660 8.364 105.637 9.089 103.785 C 9.261 104.583 8.919 105.471 9.054 106.283 C 9.220 107.311 10.057 107.681 10.999 107.835 C 10.999 107.835 10.999 107.835 11 107.836 C 11.011 107.837 11.022 107.840 11.033 107.842 C 11.051 107.845 11.054 107.836 11.070 107.837 C 11.119 107.841 11.158 107.837 11.192 107.820 C 11.202 107.814 11.206 107.806 11.213 107.798 C 11.232 107.781 11.260 107.773 11.262 107.744 C 11.339 106.138 11.361 104.497 11.695 102.917 L 11.695 102.917 L 11.695 102.917 Z " transform="matrix(1, 0, 0, 1, 0.9, 0.5)"/>
    </g>
    <g id="R_Hand">
      <path id="Fill_2_" fill="#A86C35" d="M 65.163 39.968 C 65.388 39.971 65.621 39.946 65.860 39.881 C 65.864 39.880 65.856 39.876 65.861 39.875 C 67.160 39.623 67.898 37.571 68.359 36.514 C 69.082 34.860 69.484 33.133 69.779 31.357 C 70.072 29.607 70.312 27.862 70.812 26.156 C 70.996 25.531 71.855 23.288 71.375 22.508 C 69.143 24.710 69.328 28.067 67.679 30.623 C 67.605 30.738 67.144 30.536 67.173 30.487 C 68.814 27.949 68.655 24.633 70.822 22.417 C 70.822 22.415 70.815 22.412 70.815 22.409 C 70.881 22.045 70.959 21.740 71.078 21.415 C 71.058 21.401 71.039 21.386 71.016 21.373 C 69.448 21.520 69.005 23.174 68.607 24.562 C 68.095 26.352 67.295 28.067 66.616 29.798 C 66.574 29.909 66.080 29.746 66.111 29.665 C 66.896 27.657 67.726 25.680 68.340 23.612 C 68.688 22.445 69.220 21.543 70.202 21.250 C 70.159 21.225 70.133 21.198 70.140 21.173 C 70.271 20.700 70.369 20.068 70.141 19.597 C 70.138 19.595 70.134 19.594 70.131 19.592 C 68.645 19.908 68.140 22.541 67.679 23.697 C 66.933 25.551 66.767 27.955 65.474 29.530 C 65.378 29.643 64.943 29.425 64.966 29.395 C 65.689 28.511 65.972 27.356 66.277 26.283 C 66.609 25.131 67.013 24.031 67.421 22.908 C 67.770 21.939 68.185 20.358 69.125 19.689 C 69.064 19.664 69.017 19.632 69.014 19.592 C 69.001 19.371 68.925 19.172 68.802 18.990 C 68.774 18.953 68.744 18.918 68.712 18.886 C 68.690 18.865 68.630 18.839 68.625 18.825 C 68.476 18.833 68.330 18.927 68.216 19.009 C 68.216 19.009 68.215 19.009 68.214 19.009 C 68.214 19.009 68.215 19.010 68.215 19.010 C 66.944 19.942 66.547 21.777 66.125 23.206 C 65.543 25.187 65.260 27.294 64.413 29.188 C 64.361 29.301 63.875 29.128 63.908 29.055 C 64.756 27.160 65.033 25.053 65.620 23.071 C 66.048 21.625 66.445 19.806 67.724 18.854 C 67.832 18.514 67.801 18.331 67.701 18.236 C 67.311 18.139 66.811 18.377 66.466 18.638 C 65.709 19.277 65.409 20.593 65.165 21.478 C 64.597 23.543 64.251 25.660 63.691 27.724 C 63.691 27.725 63.694 27.726 63.694 27.727 C 63.526 29.231 63.012 30.927 61.856 31.969 C 61.794 32.027 61.596 31.954 61.534 31.933 C 59.413 31.232 60.989 24.739 58.777 25.077 C 58.402 25.336 58.760 26.261 58.821 26.605 C 58.958 27.359 58.880 28.188 58.917 28.954 C 58.995 30.558 58.737 32.104 58.714 33.703 C 58.691 35.405 59.054 36.545 60.387 37.383 C 60.629 37.495 60.841 37.591 60.945 37.654 C 61.045 37.714 61.168 37.769 61.289 37.824 C 61.675 37.964 62.088 38.063 62.447 38.251 C 61.769 36.513 62.820 34.526 64.144 33.226 C 64.232 33.139 64.685 33.330 64.623 33.392 C 63.693 34.308 63.043 35.380 62.762 36.659 C 62.504 37.831 63.033 39.014 63.948 39.596 C 64.264 39.723 64.598 39.853 64.907 39.921 C 64.971 39.937 65.062 39.954 65.163 39.968 L 65.163 39.968 L 65.163 39.968 Z " transform="matrix(1, 0, 0, 1, 0.9, 0.5)"/>
      <path id="Outline_1_" fill="#010101" d="M 71.602 22.311 C 71.571 22.290 71.477 22.267 71.385 22.252 C 71.449 21.938 71.522 21.647 71.661 21.326 C 71.697 21.241 71.337 21.171 71.296 21.166 C 71.075 21.143 70.870 21.142 70.680 21.159 C 70.812 20.628 70.894 19.953 70.551 19.510 C 70.514 19.461 70.414 19.435 70.316 19.419 C 70.243 19.391 70.170 19.370 70.139 19.369 C 69.892 19.363 69.676 19.417 69.474 19.499 C 69.328 18.962 68.823 18.603 68.298 18.639 C 68.378 17.495 66.587 17.801 65.955 18.500 C 65.088 19.458 64.791 20.792 64.477 22.035 C 64.454 22.128 64.429 22.219 64.406 22.311 C 64.384 22.398 64.361 22.486 64.338 22.572 C 63.884 24.230 63.639 25.936 63.188 27.593 C 63.188 27.593 63.190 27.594 63.190 27.595 C 63.090 28.494 62.870 29.407 62.477 30.223 C 62.242 30.715 61.592 32.288 61.170 31.266 C 60.734 30.206 60.760 28.993 60.643 27.868 C 60.564 27.115 60.429 26.260 60.057 25.655 C 59.920 25.432 59.754 25.238 59.540 25.104 C 59.518 25.090 59.494 25.078 59.471 25.065 C 59.391 25.022 59.298 24.995 59.206 24.966 C 58.990 24.898 58.754 24.858 58.464 24.889 C 58.405 24.876 58.353 24.873 58.320 24.891 C 57.699 25.237 58.269 25.904 58.316 26.471 C 58.378 27.254 58.373 28.038 58.410 28.819 C 58.494 30.536 58.170 32.204 58.207 33.912 C 58.228 34.923 58.316 36.156 59.180 36.842 C 59.664 37.225 60.182 37.555 60.758 37.787 C 61.177 37.957 62.168 38.228 62.401 38.497 C 62.436 38.536 62.511 38.558 62.592 38.574 C 62.704 38.787 62.839 38.997 63.012 39.199 C 63.880 40.213 65.417 40.415 66.604 39.970 C 66.607 39.969 66.590 39.958 66.584 39.953 C 67.673 39.495 68.331 37.872 68.746 36.921 C 69.575 35.021 70.040 33.074 70.359 31.026 C 70.666 29.052 71.115 27.181 71.607 25.255 C 71.787 24.544 72.430 22.832 71.602 22.311 L 71.602 22.311 L 71.602 22.311 Z M 63.945 39.597 C 63.030 39.015 62.502 37.832 62.759 36.660 C 63.040 35.381 63.691 34.309 64.620 33.393 C 64.682 33.331 64.229 33.140 64.141 33.227 C 62.817 34.528 61.766 36.515 62.444 38.252 C 62.085 38.064 61.672 37.965 61.286 37.825 C 61.205 37.795 61.119 37.775 61.042 37.739 C 60.800 37.627 60.582 37.509 60.385 37.385 C 59.052 36.548 58.689 35.407 58.712 33.705 C 58.735 32.106 58.993 30.560 58.915 28.956 C 58.878 28.190 58.956 27.361 58.819 26.607 C 58.758 26.263 58.400 25.338 58.775 25.079 C 60.987 24.741 59.411 31.234 61.532 31.935 C 61.594 31.956 61.792 32.029 61.854 31.971 C 63.010 30.929 63.524 29.233 63.692 27.729 C 63.692 27.728 63.689 27.727 63.689 27.726 C 64.249 25.662 64.594 23.545 65.163 21.480 C 65.407 20.595 65.707 19.279 66.464 18.640 C 66.506 18.605 66.543 18.564 66.587 18.533 C 66.971 18.266 67.493 18.046 67.699 18.238 C 67.800 18.332 67.831 18.516 67.722 18.856 C 66.444 19.809 66.046 21.627 65.618 23.073 C 65.031 25.055 64.754 27.162 63.906 29.057 C 63.873 29.130 64.359 29.303 64.411 29.190 C 65.258 27.296 65.541 25.189 66.123 23.208 C 66.545 21.779 66.941 19.944 68.213 19.012 C 68.213 19.012 68.212 19.011 68.212 19.011 C 68.213 19.011 68.214 19.011 68.214 19.011 C 68.328 18.928 68.474 18.835 68.623 18.827 C 68.628 18.840 68.687 18.867 68.710 18.888 C 68.742 18.920 68.772 18.955 68.800 18.992 C 68.923 19.174 68.999 19.373 69.012 19.594 C 69.015 19.635 69.063 19.666 69.123 19.691 C 68.183 20.360 67.768 21.941 67.419 22.910 C 67.012 24.033 66.607 25.133 66.275 26.285 C 65.970 27.358 65.687 28.513 64.964 29.397 C 64.941 29.427 65.376 29.645 65.472 29.532 C 66.765 27.957 66.931 25.553 67.677 23.699 C 68.138 22.543 68.643 19.909 70.129 19.594 C 70.132 19.594 70.134 19.592 70.136 19.591 C 70.137 19.593 70.137 19.597 70.139 19.599 C 70.367 20.070 70.269 20.702 70.138 21.175 C 70.131 21.199 70.158 21.226 70.200 21.252 C 69.218 21.545 68.685 22.448 68.338 23.614 C 67.724 25.682 66.894 27.659 66.109 29.667 C 66.078 29.748 66.572 29.911 66.614 29.800 C 67.294 28.069 68.093 26.354 68.605 24.564 C 69.003 23.176 69.446 21.522 71.014 21.375 C 71.042 21.372 71.066 21.361 71.095 21.359 C 71.087 21.379 71.083 21.397 71.076 21.416 C 70.957 21.741 70.880 22.046 70.813 22.410 C 70.813 22.412 70.820 22.415 70.820 22.418 C 68.653 24.633 68.811 27.950 67.171 30.488 C 67.142 30.537 67.603 30.739 67.677 30.624 C 69.326 28.067 69.141 24.710 71.373 22.509 C 71.852 23.290 70.993 25.532 70.810 26.157 C 70.310 27.863 70.070 29.608 69.777 31.358 C 69.482 33.134 69.080 34.861 68.357 36.515 C 67.896 37.572 67.158 39.624 65.859 39.876 C 65.854 39.877 65.862 39.881 65.858 39.882 C 65.619 39.946 65.385 39.972 65.161 39.969 C 64.713 39.960 64.301 39.824 63.945 39.597 L 63.945 39.597 L 63.945 39.597 Z " transform="matrix(1, 0, 0, 1, 0.9, 0.5)"/>
    </g>
  </g>
</svg>