<?xml version="1.0" encoding="utf-8"?>
<!-- Generator: Adobe Illustrator 18.0.0, SVG Export Plug-In . SVG Version: 6.00 Build 0)  -->
<!DOCTYPE svg PUBLIC "-//W3C//DTD SVG 1.1//EN" "http://www.w3.org/Graphics/SVG/1.1/DTD/svg11.dtd">
<svg version="1.1" id="Layer_2" xmlns="http://www.w3.org/2000/svg" xmlns:xlink="http://www.w3.org/1999/xlink" x="0px" y="0px"
	 viewBox="0 0 48.7 52.1" enable-background="new 0 0 48.7 52.1" xml:space="preserve">
<g>
	<path fill="#53AD4E" d="M47.8,0c-3.3,0.1-6.6,0.1-10,0.2c-0.5,0-1.1,0.1-1.5,0.4c-1.3,0.8-2.6,1.8-3.9,2.6
		c-1.1,0.7-1.9,1.5-1.5,2.9c0,0,0,0.1,0,0.2c0,0.5,0.1,0.7,0.7,0.7c1.3-0.1,2.6-0.1,3.9-0.1c1.3,0,2,1,1.6,2.3
		c-0.1,0.2-0.1,0.4-0.1,0.6c0,2.4,0,4.8,0.1,7.3c0,2.9,0,5.7,0,8.6c0,3.3-0.1,6.7,0,10c0,2.6-0.5,4.8-2.9,6.4
		c-1.9,1.3-3.9,2.2-6.2,1.7c-1.3-0.3-2.7-0.7-4-1.2c-4.5-1.8-6.9-5.3-7.2-10c-0.3-5.6-0.1-11.3-0.1-16.9c0-1.2,0.1-2.4,0.1-3.6
		c0-2.1-0.4-4.2,0-6.4c0.2-1,0.6-1.6,1.4-1.9c0.6-0.2,1.3-0.3,2-0.5c0.2-0.1,0.5-0.3,0.5-0.5c0-0.7,0-1.4-0.1-2
		c0-0.2-0.3-0.4-0.5-0.4c-1.2,0-2.5,0-3.7,0C13,0.4,9.7,0.5,6.3,0.5c-0.8,0-1.2,0.2-1.7,0.6C3.2,2.3,1.7,3.4,0.3,4.5
		c-0.4,0.3-0.4,2.5,0,2.7c0.1,0.1,0.4,0.1,0.5,0.1c1-0.1,2-0.1,3.1-0.2C5.4,7,5.9,7.4,5.9,8.8c0,1.6-0.1,3.1-0.1,4.7
		c0,4.5,0,9.1,0,13.7h0c0,2.6,0,5.1,0,7.7c0,1.3,0.1,2.7,0.4,4c1.1,4.6,3.9,8,7.8,10.4c0.9,0.6,1.9,1.1,3,1.5
		c2.3,0.8,4.7,1.4,7.2,1.3c1.9-0.1,3.8,0,5.6-0.4c3.3-0.7,5.8-2.8,8-5.3c1.9-2.1,3.4-4.5,5-6.9c1.1-1.7,1.8-3.7,2-5.7
		c0.2-2.3,0.2-4.6,0.2-6.9c0-4.4,0-8.9,0-13.3c0-2.6-0.1-5.3-0.2-7.9c0-1,0.4-1.7,1.2-2.1c0.6-0.3,1.4-0.5,2.1-0.5
		c0.6,0,0.8-0.2,0.8-0.8c0-0.4,0-0.9,0-1.3C48.8,0.2,48.5,0,47.8,0z M31.9,4.5c1.6-1.1,3.1-2.4,4.7-3.6c0.3,1.1,0.1,1.9-0.9,2.5
		c-1.4,0.8-2.7,1.7-4.1,2.5C31.4,5.3,31.4,5,31.9,4.5z M0.8,6.2c-0.3-0.6-0.2-1,0.3-1.4C2.6,3.7,4,2.5,5.6,1.2
		C5.7,2,5.6,2.6,4.9,3.1C3.5,4,2.2,5.1,0.8,6.2z M36.9,46.2c-2.1,2-4.3,3.8-7.1,4.7c-1,0.3-2,0.5-3,0.5c-2.3-0.1-4.6-0.3-6.8-0.6
		c-1.1-0.2-2.2-0.6-3.2-1c-3.9-1.6-6.8-4.3-8.7-8c-1.2-2.3-1.5-4.9-1.5-7.4c0-4.5,0.1-9,0.1-13.5c0-3.3-0.1-6.5-0.2-9.8
		c0-1,0.1-2.1,0-3.1C6.3,6.8,5.8,6.4,4.6,6.4c-1,0-2,0.1-3.2,0.2C2.2,6,2.9,5.5,3.6,5C4,4.7,4.4,4.4,4.8,4.1
		c0.4-0.3,0.9-0.7,1.2-0.7C7,3.6,7.9,3.9,8.8,4.3c0.3,0.1,0.4,0.8,0.4,1.2c0,2.9-0.1,5.8-0.1,8.7c0,2.6,0.1,5.1,0.1,7.7
		c0,2.2-0.2,4.4,0,6.5c0.4,3,0,6.2,1.3,9c1.4,3.1,3.2,5.8,6,7.9c2.9,2.1,6.2,3.3,9.8,3.2c1.1,0,2.2,0.1,3.2-0.1
		c3.1-0.3,5.8-1.5,8.1-3.5c0.1-0.1,0.2-0.1,0.3-0.1C37.8,45.3,37.4,45.8,36.9,46.2z M40.6,13.9c-0.1,5.5-0.1,10.9-0.2,16.3
		c0,1.2,0,2.4-0.1,3.5c-0.1,2.3-1.3,4-3,5.6c0.1-0.7,0.3-1.4,0.3-2.1c0-1.9,0-3.9,0-5.8c0-6.8-0.1-13.7-0.1-20.5
		c0-0.8,0.2-1.6,0.2-2.4c0-1.8-0.8-2.5-2.6-2.5c-0.7,0-1.4,0.1-2.2,0c0.3-0.2,0.6-0.5,0.9-0.7c1-0.7,2.1-1.3,3.1-2
		c0.9-0.6,1.8-0.2,2.7,0.1c0.7,0.3,1,1,1,1.8c0,0.9,0.2,1.9,0.2,2.8C40.8,10.1,40.6,12,40.6,13.9z"/>
	<path fill="#FFFFFF" d="M4.9,3.1c-1.4,1-2.7,2-4.1,3.1c-0.3-0.6-0.2-1,0.3-1.4C2.6,3.7,4,2.5,5.6,1.2C5.7,2,5.6,2.6,4.9,3.1z"/>
	<path fill="#FFFFFF" d="M35.7,3.4c-1.4,0.8-2.7,1.7-4.1,2.5c-0.2-0.6-0.2-1,0.3-1.4c1.6-1.1,3.1-2.4,4.7-3.6
		C36.9,2.1,36.7,2.8,35.7,3.4z"/>
	<path fill="#FFFFFF" d="M40.8,8.2c0,1.9-0.2,3.8-0.2,5.8c-0.1,5.5-0.1,10.9-0.2,16.3c0,1.2,0,2.4-0.1,3.5c-0.1,2.3-1.3,4-3,5.6
		c0.1-0.7,0.3-1.4,0.3-2.1c0-1.9,0-3.9,0-5.8c0-6.8-0.1-13.7-0.1-20.5c0-0.8,0.2-1.6,0.2-2.4c0-1.8-0.8-2.5-2.6-2.5
		c-0.7,0-1.4,0.1-2.2,0c0.3-0.2,0.6-0.5,0.9-0.7c1-0.7,2.1-1.3,3.1-2c0.9-0.6,1.8-0.2,2.7,0.1c0.7,0.3,1,1,1,1.8
		C40.5,6.3,40.8,7.3,40.8,8.2z"/>
	<path fill="#FFFFFF" d="M38.2,44.8c-0.4,0.5-0.8,1-1.3,1.4c-2.1,2-4.3,3.8-7.1,4.7c-1,0.3-2,0.5-3,0.5c-2.3-0.1-4.6-0.3-6.8-0.6
		c-1.1-0.2-2.2-0.6-3.2-1c-3.9-1.6-6.8-4.3-8.7-8c-1.2-2.3-1.5-4.9-1.5-7.4c0-4.5,0.1-9,0.1-13.5c0-3.3-0.1-6.5-0.2-9.8
		c0-1,0.1-2.1,0-3.1C6.3,6.8,5.8,6.4,4.6,6.4c-1,0-2,0.1-3.2,0.2C2.2,6,2.9,5.5,3.6,5C4,4.7,4.4,4.4,4.8,4.1
		c0.4-0.3,0.9-0.7,1.2-0.7C7,3.6,7.9,3.9,8.8,4.3c0.3,0.1,0.4,0.8,0.4,1.2c0,2.9-0.1,5.8-0.1,8.7c0,2.6,0.1,5.1,0.1,7.7
		c0,2.2-0.2,4.4,0,6.5c0.4,3,0,6.2,1.3,9c1.4,3.1,3.2,5.8,6,7.9c2.9,2.1,6.2,3.3,9.8,3.2c1.1,0,2.2,0.1,3.2-0.1
		c3.1-0.3,5.8-1.5,8.1-3.5C37.9,44.8,38,44.8,38.2,44.8z"/>
</g>
</svg>
